solid OpenSCAD_Model
  facet normal 0 0 -1
    outer loop
      vertex 252.105 -254.998 -3
      vertex 252.002 -254.998 -3
      vertex 252.314 -254.984 -3
    endloop
  endfacet
  facet normal -0 0 -1
    outer loop
      vertex 252.314 -254.984 -3
      vertex 252.002 -254.998 -3
      vertex 252.521 -254.954 -3
    endloop
  endfacet
  facet normal -0 0 -1
    outer loop
      vertex 255 -252 -3
      vertex 252.002 -254.998 -3
      vertex 252.002 254.998 -3
    endloop
  endfacet
  facet normal -0 0 -1
    outer loop
      vertex 252.521 -254.954 -3
      vertex 252.002 -254.998 -3
      vertex 252.726 -254.911 -3
    endloop
  endfacet
  facet normal -0 0 -1
    outer loop
      vertex 252.726 -254.911 -3
      vertex 252.002 -254.998 -3
      vertex 252.927 -254.853 -3
    endloop
  endfacet
  facet normal -0 0 -1
    outer loop
      vertex 252.927 -254.853 -3
      vertex 252.002 -254.998 -3
      vertex 253.124 -254.782 -3
    endloop
  endfacet
  facet normal -0 0 -1
    outer loop
      vertex 253.124 -254.782 -3
      vertex 252.002 -254.998 -3
      vertex 253.315 -254.696 -3
    endloop
  endfacet
  facet normal -0 0 -1
    outer loop
      vertex 253.315 -254.696 -3
      vertex 252.002 -254.998 -3
      vertex 253.5 -254.598 -3
    endloop
  endfacet
  facet normal -0 0 -1
    outer loop
      vertex 253.5 -254.598 -3
      vertex 252.002 -254.998 -3
      vertex 253.678 -254.487 -3
    endloop
  endfacet
  facet normal -0 0 -1
    outer loop
      vertex 253.678 -254.487 -3
      vertex 252.002 -254.998 -3
      vertex 253.847 -254.364 -3
    endloop
  endfacet
  facet normal -0 0 -1
    outer loop
      vertex 253.847 -254.364 -3
      vertex 252.002 -254.998 -3
      vertex 254.007 -254.229 -3
    endloop
  endfacet
  facet normal -0 0 -1
    outer loop
      vertex 254.007 -254.229 -3
      vertex 252.002 -254.998 -3
      vertex 254.158 -254.084 -3
    endloop
  endfacet
  facet normal -0 0 -1
    outer loop
      vertex 254.158 -254.084 -3
      vertex 252.002 -254.998 -3
      vertex 254.298 -253.928 -3
    endloop
  endfacet
  facet normal -0 0 -1
    outer loop
      vertex 254.298 -253.928 -3
      vertex 252.002 -254.998 -3
      vertex 254.427 -253.763 -3
    endloop
  endfacet
  facet normal -0 0 -1
    outer loop
      vertex 254.427 -253.763 -3
      vertex 252.002 -254.998 -3
      vertex 254.544 -253.59 -3
    endloop
  endfacet
  facet normal -0 0 -1
    outer loop
      vertex 254.544 -253.59 -3
      vertex 252.002 -254.998 -3
      vertex 254.649 -253.408 -3
    endloop
  endfacet
  facet normal -0 0 -1
    outer loop
      vertex 254.649 -253.408 -3
      vertex 252.002 -254.998 -3
      vertex 254.741 -253.22 -3
    endloop
  endfacet
  facet normal -0 0 -1
    outer loop
      vertex 254.741 -253.22 -3
      vertex 252.002 -254.998 -3
      vertex 254.819 -253.026 -3
    endloop
  endfacet
  facet normal -0 0 -1
    outer loop
      vertex 254.819 -253.026 -3
      vertex 252.002 -254.998 -3
      vertex 254.884 -252.827 -3
    endloop
  endfacet
  facet normal -0 0 -1
    outer loop
      vertex 254.884 -252.827 -3
      vertex 252.002 -254.998 -3
      vertex 254.934 -252.624 -3
    endloop
  endfacet
  facet normal -0 0 -1
    outer loop
      vertex 254.934 -252.624 -3
      vertex 252.002 -254.998 -3
      vertex 254.971 -252.418 -3
    endloop
  endfacet
  facet normal -0 0 -1
    outer loop
      vertex 254.971 -252.418 -3
      vertex 252.002 -254.998 -3
      vertex 254.993 -252.209 -3
    endloop
  endfacet
  facet normal -0 0 -1
    outer loop
      vertex 254.993 -252.209 -3
      vertex 252.002 -254.998 -3
      vertex 255 -252 -3
    endloop
  endfacet
  facet normal 0 0 -1
    outer loop
      vertex 255 -252 -3
      vertex 252.002 254.998 -3
      vertex 255 252 -3
    endloop
  endfacet
  facet normal 0 0 -1
    outer loop
      vertex 252.002 254.998 -3
      vertex 254.971 252.418 -3
      vertex 254.993 252.209 -3
    endloop
  endfacet
  facet normal -0 -0 -1
    outer loop
      vertex 254.884 252.827 -3
      vertex 254.934 252.624 -3
      vertex 252.002 254.998 -3
    endloop
  endfacet
  facet normal 0 0 -1
    outer loop
      vertex 254.741 253.22 -3
      vertex 252.002 254.998 -3
      vertex 254.649 253.408 -3
    endloop
  endfacet
  facet normal -0 -0 -1
    outer loop
      vertex 254.741 253.22 -3
      vertex 254.819 253.026 -3
      vertex 252.002 254.998 -3
    endloop
  endfacet
  facet normal 0 0 -1
    outer loop
      vertex 252.002 254.998 -3
      vertex 254.007 254.229 -3
      vertex 254.158 254.084 -3
    endloop
  endfacet
  facet normal 0 0 -1
    outer loop
      vertex 254.427 253.763 -3
      vertex 252.002 254.998 -3
      vertex 254.298 253.928 -3
    endloop
  endfacet
  facet normal -0 -0 -1
    outer loop
      vertex 254.427 253.763 -3
      vertex 254.544 253.59 -3
      vertex 252.002 254.998 -3
    endloop
  endfacet
  facet normal 0 0 -1
    outer loop
      vertex 254.298 253.928 -3
      vertex 252.002 254.998 -3
      vertex 254.158 254.084 -3
    endloop
  endfacet
  facet normal 0 0 -1
    outer loop
      vertex 252.002 254.998 -3
      vertex 252.927 254.853 -3
      vertex 253.124 254.782 -3
    endloop
  endfacet
  facet normal 0 0 -1
    outer loop
      vertex 253.847 254.364 -3
      vertex 252.002 254.998 -3
      vertex 253.678 254.487 -3
    endloop
  endfacet
  facet normal -0 -0 -1
    outer loop
      vertex 253.847 254.364 -3
      vertex 254.007 254.229 -3
      vertex 252.002 254.998 -3
    endloop
  endfacet
  facet normal 0 0 -1
    outer loop
      vertex 253.678 254.487 -3
      vertex 252.002 254.998 -3
      vertex 253.5 254.598 -3
    endloop
  endfacet
  facet normal 0 0 -1
    outer loop
      vertex 253.5 254.598 -3
      vertex 252.002 254.998 -3
      vertex 253.315 254.696 -3
    endloop
  endfacet
  facet normal 0 0 -1
    outer loop
      vertex 253.315 254.696 -3
      vertex 252.002 254.998 -3
      vertex 253.124 254.782 -3
    endloop
  endfacet
  facet normal 0 0 -1
    outer loop
      vertex 254.649 253.408 -3
      vertex 252.002 254.998 -3
      vertex 254.544 253.59 -3
    endloop
  endfacet
  facet normal 0 0 -1
    outer loop
      vertex 252.726 254.911 -3
      vertex 252.002 254.998 -3
      vertex 252.521 254.954 -3
    endloop
  endfacet
  facet normal -0 -0 -1
    outer loop
      vertex 252.726 254.911 -3
      vertex 252.927 254.853 -3
      vertex 252.002 254.998 -3
    endloop
  endfacet
  facet normal -0 -0 -1
    outer loop
      vertex 254.819 253.026 -3
      vertex 254.884 252.827 -3
      vertex 252.002 254.998 -3
    endloop
  endfacet
  facet normal -0 -0 -1
    outer loop
      vertex 252.314 254.984 -3
      vertex 252.521 254.954 -3
      vertex 252.002 254.998 -3
    endloop
  endfacet
  facet normal 0 0 -1
    outer loop
      vertex 252.002 254.998 -3
      vertex 254.934 252.624 -3
      vertex 254.971 252.418 -3
    endloop
  endfacet
  facet normal 0 0 -1
    outer loop
      vertex 252.002 254.998 -3
      vertex 252.105 254.998 -3
      vertex 252.314 254.984 -3
    endloop
  endfacet
  facet normal 0 0 -1
    outer loop
      vertex 255 252 -3
      vertex 252.002 254.998 -3
      vertex 254.993 252.209 -3
    endloop
  endfacet
  facet normal 0 -0 -1
    outer loop
      vertex -252 255 -3
      vertex 252 255 -3
      vertex -252.002 254.998 -3
    endloop
  endfacet
  facet normal 0 0 -1
    outer loop
      vertex -252.002 254.998 -3
      vertex 252 255 -3
      vertex 252.002 254.998 -3
    endloop
  endfacet
  facet normal 0 0 -1
    outer loop
      vertex 252.002 -254.998 -3
      vertex -252.002 254.998 -3
      vertex 252.002 254.998 -3
    endloop
  endfacet
  facet normal 0 0 -1
    outer loop
      vertex -255 -252 -3
      vertex -255 252 -3
      vertex -252.002 -254.998 -3
    endloop
  endfacet
  facet normal -0 0 -1
    outer loop
      vertex -252.002 254.998 -3
      vertex -252.314 254.984 -3
      vertex -252.105 254.998 -3
    endloop
  endfacet
  facet normal 0 0 -1
    outer loop
      vertex -252.002 254.998 -3
      vertex -252.521 254.954 -3
      vertex -252.314 254.984 -3
    endloop
  endfacet
  facet normal 0 0 -1
    outer loop
      vertex -252.002 254.998 -3
      vertex -252.726 254.911 -3
      vertex -252.521 254.954 -3
    endloop
  endfacet
  facet normal 0 0 -1
    outer loop
      vertex -252.002 254.998 -3
      vertex -252.927 254.853 -3
      vertex -252.726 254.911 -3
    endloop
  endfacet
  facet normal 0 0 -1
    outer loop
      vertex -252.002 254.998 -3
      vertex -253.124 254.782 -3
      vertex -252.927 254.853 -3
    endloop
  endfacet
  facet normal 0 0 -1
    outer loop
      vertex -252.002 254.998 -3
      vertex -253.315 254.696 -3
      vertex -253.124 254.782 -3
    endloop
  endfacet
  facet normal 0 0 -1
    outer loop
      vertex -252.002 254.998 -3
      vertex -253.5 254.598 -3
      vertex -253.315 254.696 -3
    endloop
  endfacet
  facet normal 0 0 -1
    outer loop
      vertex -252.002 254.998 -3
      vertex -253.678 254.487 -3
      vertex -253.5 254.598 -3
    endloop
  endfacet
  facet normal 0 0 -1
    outer loop
      vertex -252.002 254.998 -3
      vertex -253.847 254.364 -3
      vertex -253.678 254.487 -3
    endloop
  endfacet
  facet normal 0 0 -1
    outer loop
      vertex -252.002 254.998 -3
      vertex -254.007 254.229 -3
      vertex -253.847 254.364 -3
    endloop
  endfacet
  facet normal 0 0 -1
    outer loop
      vertex -252.002 254.998 -3
      vertex -254.158 254.084 -3
      vertex -254.007 254.229 -3
    endloop
  endfacet
  facet normal 0 0 -1
    outer loop
      vertex -252.002 254.998 -3
      vertex -254.298 253.928 -3
      vertex -254.158 254.084 -3
    endloop
  endfacet
  facet normal 0 0 -1
    outer loop
      vertex -252.002 254.998 -3
      vertex -254.427 253.763 -3
      vertex -254.298 253.928 -3
    endloop
  endfacet
  facet normal 0 0 -1
    outer loop
      vertex -252.002 254.998 -3
      vertex -254.544 253.59 -3
      vertex -254.427 253.763 -3
    endloop
  endfacet
  facet normal 0 0 -1
    outer loop
      vertex -252.002 254.998 -3
      vertex -254.649 253.408 -3
      vertex -254.544 253.59 -3
    endloop
  endfacet
  facet normal 0 0 -1
    outer loop
      vertex -252.002 254.998 -3
      vertex -254.741 253.22 -3
      vertex -254.649 253.408 -3
    endloop
  endfacet
  facet normal 0 0 -1
    outer loop
      vertex -252.002 254.998 -3
      vertex -254.819 253.026 -3
      vertex -254.741 253.22 -3
    endloop
  endfacet
  facet normal 0 0 -1
    outer loop
      vertex -252.002 254.998 -3
      vertex -254.884 252.827 -3
      vertex -254.819 253.026 -3
    endloop
  endfacet
  facet normal 0 0 -1
    outer loop
      vertex -252.002 254.998 -3
      vertex -254.934 252.624 -3
      vertex -254.884 252.827 -3
    endloop
  endfacet
  facet normal 0 0 -1
    outer loop
      vertex -252.002 254.998 -3
      vertex -254.971 252.418 -3
      vertex -254.934 252.624 -3
    endloop
  endfacet
  facet normal 0 0 -1
    outer loop
      vertex -252.002 254.998 -3
      vertex -254.993 252.209 -3
      vertex -254.971 252.418 -3
    endloop
  endfacet
  facet normal 0 0 -1
    outer loop
      vertex -252.002 254.998 -3
      vertex -255 252 -3
      vertex -254.993 252.209 -3
    endloop
  endfacet
  facet normal 0 0 -1
    outer loop
      vertex -252.002 -254.998 -3
      vertex -255 252 -3
      vertex -252.002 254.998 -3
    endloop
  endfacet
  facet normal 0 0 -1
    outer loop
      vertex 252.002 -254.998 -3
      vertex -252.002 -254.998 -3
      vertex -252.002 254.998 -3
    endloop
  endfacet
  facet normal 0 0 -1
    outer loop
      vertex -252.002 -254.998 -3
      vertex -254.971 -252.418 -3
      vertex -254.993 -252.209 -3
    endloop
  endfacet
  facet normal 0 0 -1
    outer loop
      vertex -254.884 -252.827 -3
      vertex -254.934 -252.624 -3
      vertex -252.002 -254.998 -3
    endloop
  endfacet
  facet normal 0 0 -1
    outer loop
      vertex -254.741 -253.22 -3
      vertex -252.002 -254.998 -3
      vertex -254.649 -253.408 -3
    endloop
  endfacet
  facet normal 0 0 -1
    outer loop
      vertex -254.741 -253.22 -3
      vertex -254.819 -253.026 -3
      vertex -252.002 -254.998 -3
    endloop
  endfacet
  facet normal 0 0 -1
    outer loop
      vertex -252.002 -254.998 -3
      vertex -254.007 -254.229 -3
      vertex -254.158 -254.084 -3
    endloop
  endfacet
  facet normal 0 0 -1
    outer loop
      vertex -254.427 -253.763 -3
      vertex -252.002 -254.998 -3
      vertex -254.298 -253.928 -3
    endloop
  endfacet
  facet normal 0 0 -1
    outer loop
      vertex -254.427 -253.763 -3
      vertex -254.544 -253.59 -3
      vertex -252.002 -254.998 -3
    endloop
  endfacet
  facet normal 0 0 -1
    outer loop
      vertex -254.298 -253.928 -3
      vertex -252.002 -254.998 -3
      vertex -254.158 -254.084 -3
    endloop
  endfacet
  facet normal 0 0 -1
    outer loop
      vertex -252.002 -254.998 -3
      vertex -252.927 -254.853 -3
      vertex -253.124 -254.782 -3
    endloop
  endfacet
  facet normal 0 0 -1
    outer loop
      vertex -253.847 -254.364 -3
      vertex -252.002 -254.998 -3
      vertex -253.678 -254.487 -3
    endloop
  endfacet
  facet normal 0 0 -1
    outer loop
      vertex -253.847 -254.364 -3
      vertex -254.007 -254.229 -3
      vertex -252.002 -254.998 -3
    endloop
  endfacet
  facet normal 0 0 -1
    outer loop
      vertex -253.678 -254.487 -3
      vertex -252.002 -254.998 -3
      vertex -253.5 -254.598 -3
    endloop
  endfacet
  facet normal 0 0 -1
    outer loop
      vertex -253.5 -254.598 -3
      vertex -252.002 -254.998 -3
      vertex -253.315 -254.696 -3
    endloop
  endfacet
  facet normal 0 0 -1
    outer loop
      vertex -253.315 -254.696 -3
      vertex -252.002 -254.998 -3
      vertex -253.124 -254.782 -3
    endloop
  endfacet
  facet normal 0 0 -1
    outer loop
      vertex -254.649 -253.408 -3
      vertex -252.002 -254.998 -3
      vertex -254.544 -253.59 -3
    endloop
  endfacet
  facet normal 0 0 -1
    outer loop
      vertex -252.726 -254.911 -3
      vertex -252.002 -254.998 -3
      vertex -252.521 -254.954 -3
    endloop
  endfacet
  facet normal 0 0 -1
    outer loop
      vertex -252.726 -254.911 -3
      vertex -252.927 -254.853 -3
      vertex -252.002 -254.998 -3
    endloop
  endfacet
  facet normal 0 0 -1
    outer loop
      vertex -254.819 -253.026 -3
      vertex -254.884 -252.827 -3
      vertex -252.002 -254.998 -3
    endloop
  endfacet
  facet normal 0 0 -1
    outer loop
      vertex -252.314 -254.984 -3
      vertex -252.521 -254.954 -3
      vertex -252.002 -254.998 -3
    endloop
  endfacet
  facet normal 0 0 -1
    outer loop
      vertex -252.002 -254.998 -3
      vertex -254.934 -252.624 -3
      vertex -254.971 -252.418 -3
    endloop
  endfacet
  facet normal 0 0 -1
    outer loop
      vertex -252.002 -254.998 -3
      vertex -252.105 -254.998 -3
      vertex -252.314 -254.984 -3
    endloop
  endfacet
  facet normal -0 0 -1
    outer loop
      vertex 252.002 -254.998 -3
      vertex 252 -255 -3
      vertex -252.002 -254.998 -3
    endloop
  endfacet
  facet normal 0 0 -1
    outer loop
      vertex -252.002 -254.998 -3
      vertex 252 -255 -3
      vertex -252 -255 -3
    endloop
  endfacet
  facet normal 0 0 -1
    outer loop
      vertex -255 -252 -3
      vertex -252.002 -254.998 -3
      vertex -254.993 -252.209 -3
    endloop
  endfacet
  facet normal 0 0 1
    outer loop
      vertex 252.314 -254.984 0
      vertex 252.002 -254.998 0
      vertex 252.105 -254.998 0
    endloop
  endfacet
  facet normal 0 0 1
    outer loop
      vertex 252.521 -254.954 0
      vertex 252.002 -254.998 0
      vertex 252.314 -254.984 0
    endloop
  endfacet
  facet normal 0 0 1
    outer loop
      vertex 252.002 254.998 0
      vertex 252.002 -254.998 0
      vertex 255 -252 0
    endloop
  endfacet
  facet normal 0 0 1
    outer loop
      vertex 252.726 -254.911 0
      vertex 252.002 -254.998 0
      vertex 252.521 -254.954 0
    endloop
  endfacet
  facet normal 0 0 1
    outer loop
      vertex 252.927 -254.853 0
      vertex 252.002 -254.998 0
      vertex 252.726 -254.911 0
    endloop
  endfacet
  facet normal 0 0 1
    outer loop
      vertex 253.124 -254.782 0
      vertex 252.002 -254.998 0
      vertex 252.927 -254.853 0
    endloop
  endfacet
  facet normal 0 0 1
    outer loop
      vertex 253.315 -254.696 0
      vertex 252.002 -254.998 0
      vertex 253.124 -254.782 0
    endloop
  endfacet
  facet normal 0 0 1
    outer loop
      vertex 253.5 -254.598 0
      vertex 252.002 -254.998 0
      vertex 253.315 -254.696 0
    endloop
  endfacet
  facet normal 0 0 1
    outer loop
      vertex 253.678 -254.487 0
      vertex 252.002 -254.998 0
      vertex 253.5 -254.598 0
    endloop
  endfacet
  facet normal 0 0 1
    outer loop
      vertex 253.847 -254.364 0
      vertex 252.002 -254.998 0
      vertex 253.678 -254.487 0
    endloop
  endfacet
  facet normal 0 0 1
    outer loop
      vertex 254.007 -254.229 0
      vertex 252.002 -254.998 0
      vertex 253.847 -254.364 0
    endloop
  endfacet
  facet normal 0 0 1
    outer loop
      vertex 254.158 -254.084 0
      vertex 252.002 -254.998 0
      vertex 254.007 -254.229 0
    endloop
  endfacet
  facet normal 0 0 1
    outer loop
      vertex 254.298 -253.928 0
      vertex 252.002 -254.998 0
      vertex 254.158 -254.084 0
    endloop
  endfacet
  facet normal 0 0 1
    outer loop
      vertex 254.427 -253.763 0
      vertex 252.002 -254.998 0
      vertex 254.298 -253.928 0
    endloop
  endfacet
  facet normal 0 0 1
    outer loop
      vertex 254.544 -253.59 0
      vertex 252.002 -254.998 0
      vertex 254.427 -253.763 0
    endloop
  endfacet
  facet normal 0 0 1
    outer loop
      vertex 254.649 -253.408 0
      vertex 252.002 -254.998 0
      vertex 254.544 -253.59 0
    endloop
  endfacet
  facet normal 0 0 1
    outer loop
      vertex 254.741 -253.22 0
      vertex 252.002 -254.998 0
      vertex 254.649 -253.408 0
    endloop
  endfacet
  facet normal 0 0 1
    outer loop
      vertex 254.819 -253.026 0
      vertex 252.002 -254.998 0
      vertex 254.741 -253.22 0
    endloop
  endfacet
  facet normal 0 0 1
    outer loop
      vertex 254.884 -252.827 0
      vertex 252.002 -254.998 0
      vertex 254.819 -253.026 0
    endloop
  endfacet
  facet normal 0 0 1
    outer loop
      vertex 254.934 -252.624 0
      vertex 252.002 -254.998 0
      vertex 254.884 -252.827 0
    endloop
  endfacet
  facet normal 0 0 1
    outer loop
      vertex 254.971 -252.418 0
      vertex 252.002 -254.998 0
      vertex 254.934 -252.624 0
    endloop
  endfacet
  facet normal 0 0 1
    outer loop
      vertex 254.993 -252.209 0
      vertex 252.002 -254.998 0
      vertex 254.971 -252.418 0
    endloop
  endfacet
  facet normal 0 0 1
    outer loop
      vertex 255 -252 0
      vertex 252.002 -254.998 0
      vertex 254.993 -252.209 0
    endloop
  endfacet
  facet normal 0 0 1
    outer loop
      vertex 255 252 0
      vertex 252.002 254.998 0
      vertex 255 -252 0
    endloop
  endfacet
  facet normal 0 0 1
    outer loop
      vertex 254.993 252.209 0
      vertex 254.971 252.418 0
      vertex 252.002 254.998 0
    endloop
  endfacet
  facet normal 0 0 1
    outer loop
      vertex 252.002 254.998 0
      vertex 254.934 252.624 0
      vertex 254.884 252.827 0
    endloop
  endfacet
  facet normal 0 0 1
    outer loop
      vertex 254.649 253.408 0
      vertex 252.002 254.998 0
      vertex 254.741 253.22 0
    endloop
  endfacet
  facet normal 0 0 1
    outer loop
      vertex 252.002 254.998 0
      vertex 254.819 253.026 0
      vertex 254.741 253.22 0
    endloop
  endfacet
  facet normal 0 0 1
    outer loop
      vertex 254.158 254.084 0
      vertex 254.007 254.229 0
      vertex 252.002 254.998 0
    endloop
  endfacet
  facet normal 0 0 1
    outer loop
      vertex 254.298 253.928 0
      vertex 252.002 254.998 0
      vertex 254.427 253.763 0
    endloop
  endfacet
  facet normal 0 0 1
    outer loop
      vertex 252.002 254.998 0
      vertex 254.544 253.59 0
      vertex 254.427 253.763 0
    endloop
  endfacet
  facet normal 0 0 1
    outer loop
      vertex 254.158 254.084 0
      vertex 252.002 254.998 0
      vertex 254.298 253.928 0
    endloop
  endfacet
  facet normal 0 0 1
    outer loop
      vertex 253.124 254.782 0
      vertex 252.927 254.853 0
      vertex 252.002 254.998 0
    endloop
  endfacet
  facet normal 0 0 1
    outer loop
      vertex 253.678 254.487 0
      vertex 252.002 254.998 0
      vertex 253.847 254.364 0
    endloop
  endfacet
  facet normal 0 0 1
    outer loop
      vertex 252.002 254.998 0
      vertex 254.007 254.229 0
      vertex 253.847 254.364 0
    endloop
  endfacet
  facet normal 0 0 1
    outer loop
      vertex 253.5 254.598 0
      vertex 252.002 254.998 0
      vertex 253.678 254.487 0
    endloop
  endfacet
  facet normal 0 0 1
    outer loop
      vertex 253.315 254.696 0
      vertex 252.002 254.998 0
      vertex 253.5 254.598 0
    endloop
  endfacet
  facet normal 0 0 1
    outer loop
      vertex 253.124 254.782 0
      vertex 252.002 254.998 0
      vertex 253.315 254.696 0
    endloop
  endfacet
  facet normal 0 0 1
    outer loop
      vertex 254.544 253.59 0
      vertex 252.002 254.998 0
      vertex 254.649 253.408 0
    endloop
  endfacet
  facet normal 0 0 1
    outer loop
      vertex 252.521 254.954 0
      vertex 252.002 254.998 0
      vertex 252.726 254.911 0
    endloop
  endfacet
  facet normal 0 0 1
    outer loop
      vertex 252.002 254.998 0
      vertex 252.927 254.853 0
      vertex 252.726 254.911 0
    endloop
  endfacet
  facet normal 0 0 1
    outer loop
      vertex 252.002 254.998 0
      vertex 254.884 252.827 0
      vertex 254.819 253.026 0
    endloop
  endfacet
  facet normal 0 0 1
    outer loop
      vertex 252.002 254.998 0
      vertex 252.521 254.954 0
      vertex 252.314 254.984 0
    endloop
  endfacet
  facet normal 0 0 1
    outer loop
      vertex 254.971 252.418 0
      vertex 254.934 252.624 0
      vertex 252.002 254.998 0
    endloop
  endfacet
  facet normal 0 0 1
    outer loop
      vertex 252.314 254.984 0
      vertex 252.105 254.998 0
      vertex 252.002 254.998 0
    endloop
  endfacet
  facet normal 0 0 1
    outer loop
      vertex 254.993 252.209 0
      vertex 252.002 254.998 0
      vertex 255 252 0
    endloop
  endfacet
  facet normal 0 0 1
    outer loop
      vertex -252.002 254.998 0
      vertex 252 255 0
      vertex -252 255 0
    endloop
  endfacet
  facet normal 0 0 1
    outer loop
      vertex 252.002 254.998 0
      vertex 252 255 0
      vertex -252.002 254.998 0
    endloop
  endfacet
  facet normal 0 0 1
    outer loop
      vertex 252.002 254.998 0
      vertex -252.002 254.998 0
      vertex 252.002 -254.998 0
    endloop
  endfacet
  facet normal 0 0 1
    outer loop
      vertex -252.002 -254.998 0
      vertex -255 252 0
      vertex -255 -252 0
    endloop
  endfacet
  facet normal -0 0 1
    outer loop
      vertex -252.105 254.998 0
      vertex -252.314 254.984 0
      vertex -252.002 254.998 0
    endloop
  endfacet
  facet normal -0 0 1
    outer loop
      vertex -252.314 254.984 0
      vertex -252.521 254.954 0
      vertex -252.002 254.998 0
    endloop
  endfacet
  facet normal -0 0 1
    outer loop
      vertex -252.521 254.954 0
      vertex -252.726 254.911 0
      vertex -252.002 254.998 0
    endloop
  endfacet
  facet normal -0 0 1
    outer loop
      vertex -252.726 254.911 0
      vertex -252.927 254.853 0
      vertex -252.002 254.998 0
    endloop
  endfacet
  facet normal -0 0 1
    outer loop
      vertex -252.927 254.853 0
      vertex -253.124 254.782 0
      vertex -252.002 254.998 0
    endloop
  endfacet
  facet normal -0 0 1
    outer loop
      vertex -253.124 254.782 0
      vertex -253.315 254.696 0
      vertex -252.002 254.998 0
    endloop
  endfacet
  facet normal -0 0 1
    outer loop
      vertex -253.315 254.696 0
      vertex -253.5 254.598 0
      vertex -252.002 254.998 0
    endloop
  endfacet
  facet normal -0 0 1
    outer loop
      vertex -253.5 254.598 0
      vertex -253.678 254.487 0
      vertex -252.002 254.998 0
    endloop
  endfacet
  facet normal -0 0 1
    outer loop
      vertex -253.678 254.487 0
      vertex -253.847 254.364 0
      vertex -252.002 254.998 0
    endloop
  endfacet
  facet normal -0 0 1
    outer loop
      vertex -253.847 254.364 0
      vertex -254.007 254.229 0
      vertex -252.002 254.998 0
    endloop
  endfacet
  facet normal -0 0 1
    outer loop
      vertex -254.007 254.229 0
      vertex -254.158 254.084 0
      vertex -252.002 254.998 0
    endloop
  endfacet
  facet normal -0 0 1
    outer loop
      vertex -254.158 254.084 0
      vertex -254.298 253.928 0
      vertex -252.002 254.998 0
    endloop
  endfacet
  facet normal -0 0 1
    outer loop
      vertex -254.298 253.928 0
      vertex -254.427 253.763 0
      vertex -252.002 254.998 0
    endloop
  endfacet
  facet normal -0 0 1
    outer loop
      vertex -254.427 253.763 0
      vertex -254.544 253.59 0
      vertex -252.002 254.998 0
    endloop
  endfacet
  facet normal -0 0 1
    outer loop
      vertex -254.544 253.59 0
      vertex -254.649 253.408 0
      vertex -252.002 254.998 0
    endloop
  endfacet
  facet normal -0 0 1
    outer loop
      vertex -254.649 253.408 0
      vertex -254.741 253.22 0
      vertex -252.002 254.998 0
    endloop
  endfacet
  facet normal -0 0 1
    outer loop
      vertex -254.741 253.22 0
      vertex -254.819 253.026 0
      vertex -252.002 254.998 0
    endloop
  endfacet
  facet normal -0 0 1
    outer loop
      vertex -254.819 253.026 0
      vertex -254.884 252.827 0
      vertex -252.002 254.998 0
    endloop
  endfacet
  facet normal -0 0 1
    outer loop
      vertex -254.884 252.827 0
      vertex -254.934 252.624 0
      vertex -252.002 254.998 0
    endloop
  endfacet
  facet normal -0 0 1
    outer loop
      vertex -254.934 252.624 0
      vertex -254.971 252.418 0
      vertex -252.002 254.998 0
    endloop
  endfacet
  facet normal -0 0 1
    outer loop
      vertex -254.971 252.418 0
      vertex -254.993 252.209 0
      vertex -252.002 254.998 0
    endloop
  endfacet
  facet normal -0 0 1
    outer loop
      vertex -254.993 252.209 0
      vertex -255 252 0
      vertex -252.002 254.998 0
    endloop
  endfacet
  facet normal 0 0 1
    outer loop
      vertex -252.002 254.998 0
      vertex -255 252 0
      vertex -252.002 -254.998 0
    endloop
  endfacet
  facet normal 0 0 1
    outer loop
      vertex -252.002 254.998 0
      vertex -252.002 -254.998 0
      vertex 252.002 -254.998 0
    endloop
  endfacet
  facet normal 0 0 1
    outer loop
      vertex -254.993 -252.209 0
      vertex -254.971 -252.418 0
      vertex -252.002 -254.998 0
    endloop
  endfacet
  facet normal 0 0 1
    outer loop
      vertex -252.002 -254.998 0
      vertex -254.934 -252.624 0
      vertex -254.884 -252.827 0
    endloop
  endfacet
  facet normal -0 -0 1
    outer loop
      vertex -254.649 -253.408 0
      vertex -252.002 -254.998 0
      vertex -254.741 -253.22 0
    endloop
  endfacet
  facet normal 0 0 1
    outer loop
      vertex -252.002 -254.998 0
      vertex -254.819 -253.026 0
      vertex -254.741 -253.22 0
    endloop
  endfacet
  facet normal 0 0 1
    outer loop
      vertex -254.158 -254.084 0
      vertex -254.007 -254.229 0
      vertex -252.002 -254.998 0
    endloop
  endfacet
  facet normal -0 -0 1
    outer loop
      vertex -254.298 -253.928 0
      vertex -252.002 -254.998 0
      vertex -254.427 -253.763 0
    endloop
  endfacet
  facet normal 0 0 1
    outer loop
      vertex -252.002 -254.998 0
      vertex -254.544 -253.59 0
      vertex -254.427 -253.763 0
    endloop
  endfacet
  facet normal -0 -0 1
    outer loop
      vertex -254.158 -254.084 0
      vertex -252.002 -254.998 0
      vertex -254.298 -253.928 0
    endloop
  endfacet
  facet normal 0 0 1
    outer loop
      vertex -253.124 -254.782 0
      vertex -252.927 -254.853 0
      vertex -252.002 -254.998 0
    endloop
  endfacet
  facet normal -0 -0 1
    outer loop
      vertex -253.678 -254.487 0
      vertex -252.002 -254.998 0
      vertex -253.847 -254.364 0
    endloop
  endfacet
  facet normal 0 0 1
    outer loop
      vertex -252.002 -254.998 0
      vertex -254.007 -254.229 0
      vertex -253.847 -254.364 0
    endloop
  endfacet
  facet normal -0 -0 1
    outer loop
      vertex -253.5 -254.598 0
      vertex -252.002 -254.998 0
      vertex -253.678 -254.487 0
    endloop
  endfacet
  facet normal -0 -0 1
    outer loop
      vertex -253.315 -254.696 0
      vertex -252.002 -254.998 0
      vertex -253.5 -254.598 0
    endloop
  endfacet
  facet normal -0 -0 1
    outer loop
      vertex -253.124 -254.782 0
      vertex -252.002 -254.998 0
      vertex -253.315 -254.696 0
    endloop
  endfacet
  facet normal -0 -0 1
    outer loop
      vertex -254.544 -253.59 0
      vertex -252.002 -254.998 0
      vertex -254.649 -253.408 0
    endloop
  endfacet
  facet normal -0 -0 1
    outer loop
      vertex -252.521 -254.954 0
      vertex -252.002 -254.998 0
      vertex -252.726 -254.911 0
    endloop
  endfacet
  facet normal 0 0 1
    outer loop
      vertex -252.002 -254.998 0
      vertex -252.927 -254.853 0
      vertex -252.726 -254.911 0
    endloop
  endfacet
  facet normal 0 0 1
    outer loop
      vertex -252.002 -254.998 0
      vertex -254.884 -252.827 0
      vertex -254.819 -253.026 0
    endloop
  endfacet
  facet normal 0 0 1
    outer loop
      vertex -252.002 -254.998 0
      vertex -252.521 -254.954 0
      vertex -252.314 -254.984 0
    endloop
  endfacet
  facet normal 0 0 1
    outer loop
      vertex -254.971 -252.418 0
      vertex -254.934 -252.624 0
      vertex -252.002 -254.998 0
    endloop
  endfacet
  facet normal 0 0 1
    outer loop
      vertex -252.314 -254.984 0
      vertex -252.105 -254.998 0
      vertex -252.002 -254.998 0
    endloop
  endfacet
  facet normal -0 0 1
    outer loop
      vertex -252.002 -254.998 0
      vertex 252 -255 0
      vertex 252.002 -254.998 0
    endloop
  endfacet
  facet normal 0 -0 1
    outer loop
      vertex -252 -255 0
      vertex 252 -255 0
      vertex -252.002 -254.998 0
    endloop
  endfacet
  facet normal -0 -0 1
    outer loop
      vertex -254.993 -252.209 0
      vertex -252.002 -254.998 0
      vertex -255 -252 0
    endloop
  endfacet
  facet normal 0 -1 0
    outer loop
      vertex 252.105 -254.998 -3
      vertex 252.002 -254.998 0
      vertex 252.002 -254.998 -3
    endloop
  endfacet
  facet normal 0 -1 0
    outer loop
      vertex 252.105 -254.998 -3
      vertex 252.105 -254.998 0
      vertex 252.002 -254.998 0
    endloop
  endfacet
  facet normal 0.0668359 -0.997764 0
    outer loop
      vertex 252.314 -254.984 -3
      vertex 252.105 -254.998 0
      vertex 252.105 -254.998 -3
    endloop
  endfacet
  facet normal 0.0668359 -0.997764 0
    outer loop
      vertex 252.314 -254.984 -3
      vertex 252.314 -254.984 0
      vertex 252.105 -254.998 0
    endloop
  endfacet
  facet normal 0.143429 -0.989661 0
    outer loop
      vertex 252.521 -254.954 -3
      vertex 252.314 -254.984 0
      vertex 252.314 -254.984 -3
    endloop
  endfacet
  facet normal 0.143429 -0.989661 0
    outer loop
      vertex 252.521 -254.954 -3
      vertex 252.521 -254.954 0
      vertex 252.314 -254.984 0
    endloop
  endfacet
  facet normal 0.205289 -0.978701 0
    outer loop
      vertex 252.726 -254.911 -3
      vertex 252.521 -254.954 0
      vertex 252.521 -254.954 -3
    endloop
  endfacet
  facet normal 0.205289 -0.978701 0
    outer loop
      vertex 252.726 -254.911 -3
      vertex 252.726 -254.911 0
      vertex 252.521 -254.954 0
    endloop
  endfacet
  facet normal 0.277246 -0.960799 0
    outer loop
      vertex 252.927 -254.853 -3
      vertex 252.726 -254.911 0
      vertex 252.726 -254.911 -3
    endloop
  endfacet
  facet normal 0.277246 -0.960799 0
    outer loop
      vertex 252.927 -254.853 -3
      vertex 252.927 -254.853 0
      vertex 252.726 -254.911 0
    endloop
  endfacet
  facet normal 0.339058 -0.940766 0
    outer loop
      vertex 253.124 -254.782 -3
      vertex 252.927 -254.853 0
      vertex 252.927 -254.853 -3
    endloop
  endfacet
  facet normal 0.339058 -0.940766 0
    outer loop
      vertex 253.124 -254.782 -3
      vertex 253.124 -254.782 0
      vertex 252.927 -254.853 0
    endloop
  endfacet
  facet normal 0.410563 -0.911832 0
    outer loop
      vertex 253.315 -254.696 -3
      vertex 253.124 -254.782 0
      vertex 253.124 -254.782 -3
    endloop
  endfacet
  facet normal 0.410563 -0.911832 0
    outer loop
      vertex 253.315 -254.696 -3
      vertex 253.315 -254.696 0
      vertex 253.124 -254.782 0
    endloop
  endfacet
  facet normal 0.468107 -0.883672 0
    outer loop
      vertex 253.5 -254.598 -3
      vertex 253.315 -254.696 0
      vertex 253.315 -254.696 -3
    endloop
  endfacet
  facet normal 0.468107 -0.883672 0
    outer loop
      vertex 253.5 -254.598 -3
      vertex 253.5 -254.598 0
      vertex 253.315 -254.696 0
    endloop
  endfacet
  facet normal 0.529142 -0.848533 0
    outer loop
      vertex 253.678 -254.487 -3
      vertex 253.5 -254.598 0
      vertex 253.5 -254.598 -3
    endloop
  endfacet
  facet normal 0.529142 -0.848533 0
    outer loop
      vertex 253.678 -254.487 -3
      vertex 253.678 -254.487 0
      vertex 253.5 -254.598 0
    endloop
  endfacet
  facet normal 0.588456 -0.808529 0
    outer loop
      vertex 253.847 -254.364 -3
      vertex 253.678 -254.487 0
      vertex 253.678 -254.487 -3
    endloop
  endfacet
  facet normal 0.588456 -0.808529 0
    outer loop
      vertex 253.847 -254.364 -3
      vertex 253.847 -254.364 0
      vertex 253.678 -254.487 0
    endloop
  endfacet
  facet normal 0.644871 -0.764291 0
    outer loop
      vertex 254.007 -254.229 -3
      vertex 253.847 -254.364 0
      vertex 253.847 -254.364 -3
    endloop
  endfacet
  facet normal 0.644871 -0.764291 0
    outer loop
      vertex 254.007 -254.229 -3
      vertex 254.007 -254.229 0
      vertex 253.847 -254.364 0
    endloop
  endfacet
  facet normal 0.692631 -0.721292 0
    outer loop
      vertex 254.158 -254.084 -3
      vertex 254.007 -254.229 0
      vertex 254.007 -254.229 -3
    endloop
  endfacet
  facet normal 0.692631 -0.721292 0
    outer loop
      vertex 254.158 -254.084 -3
      vertex 254.158 -254.084 0
      vertex 254.007 -254.229 0
    endloop
  endfacet
  facet normal 0.744242 -0.66791 0
    outer loop
      vertex 254.298 -253.928 -3
      vertex 254.158 -254.084 0
      vertex 254.158 -254.084 -3
    endloop
  endfacet
  facet normal 0.744242 -0.66791 0
    outer loop
      vertex 254.298 -253.928 -3
      vertex 254.298 -253.928 0
      vertex 254.158 -254.084 0
    endloop
  endfacet
  facet normal 0.787807 -0.615922 0
    outer loop
      vertex 254.427 -253.763 -3
      vertex 254.298 -253.928 0
      vertex 254.298 -253.928 -3
    endloop
  endfacet
  facet normal 0.787807 -0.615922 0
    outer loop
      vertex 254.427 -253.763 -3
      vertex 254.427 -253.763 0
      vertex 254.298 -253.928 0
    endloop
  endfacet
  facet normal 0.828349 -0.560213 0
    outer loop
      vertex 254.544 -253.59 -3
      vertex 254.427 -253.763 0
      vertex 254.427 -253.763 -3
    endloop
  endfacet
  facet normal 0.828349 -0.560213 0
    outer loop
      vertex 254.544 -253.59 -3
      vertex 254.544 -253.59 0
      vertex 254.427 -253.763 0
    endloop
  endfacet
  facet normal 0.866186 -0.499722 0
    outer loop
      vertex 254.649 -253.408 -3
      vertex 254.544 -253.59 0
      vertex 254.544 -253.59 -3
    endloop
  endfacet
  facet normal 0.866186 -0.499722 0
    outer loop
      vertex 254.649 -253.408 -3
      vertex 254.649 -253.408 0
      vertex 254.544 -253.59 0
    endloop
  endfacet
  facet normal 0.898217 -0.439553 0
    outer loop
      vertex 254.741 -253.22 -3
      vertex 254.649 -253.408 0
      vertex 254.649 -253.408 -3
    endloop
  endfacet
  facet normal 0.898217 -0.439553 0
    outer loop
      vertex 254.741 -253.22 -3
      vertex 254.741 -253.22 0
      vertex 254.649 -253.408 0
    endloop
  endfacet
  facet normal 0.927816 -0.373039 0
    outer loop
      vertex 254.819 -253.026 -3
      vertex 254.741 -253.22 0
      vertex 254.741 -253.22 -3
    endloop
  endfacet
  facet normal 0.927816 -0.373039 0
    outer loop
      vertex 254.819 -253.026 -3
      vertex 254.819 -253.026 0
      vertex 254.741 -253.22 0
    endloop
  endfacet
  facet normal 0.950577 -0.31049 0
    outer loop
      vertex 254.884 -252.827 -3
      vertex 254.819 -253.026 0
      vertex 254.819 -253.026 -3
    endloop
  endfacet
  facet normal 0.950577 -0.31049 0
    outer loop
      vertex 254.884 -252.827 -3
      vertex 254.884 -252.827 0
      vertex 254.819 -253.026 0
    endloop
  endfacet
  facet normal 0.970981 -0.239158 0
    outer loop
      vertex 254.934 -252.624 -3
      vertex 254.884 -252.827 0
      vertex 254.884 -252.827 -3
    endloop
  endfacet
  facet normal 0.970981 -0.239158 0
    outer loop
      vertex 254.934 -252.624 -3
      vertex 254.934 -252.624 0
      vertex 254.884 -252.827 0
    endloop
  endfacet
  facet normal 0.98425 -0.176783 0
    outer loop
      vertex 254.971 -252.418 -3
      vertex 254.934 -252.624 0
      vertex 254.934 -252.624 -3
    endloop
  endfacet
  facet normal 0.98425 -0.176783 0
    outer loop
      vertex 254.971 -252.418 -3
      vertex 254.971 -252.418 0
      vertex 254.934 -252.624 0
    endloop
  endfacet
  facet normal 0.994505 -0.104685 0
    outer loop
      vertex 254.993 -252.209 -3
      vertex 254.971 -252.418 0
      vertex 254.971 -252.418 -3
    endloop
  endfacet
  facet normal 0.994505 -0.104685 0
    outer loop
      vertex 254.993 -252.209 -3
      vertex 254.993 -252.209 0
      vertex 254.971 -252.418 0
    endloop
  endfacet
  facet normal 0.99944 -0.0334741 0
    outer loop
      vertex 255 -252 -3
      vertex 254.993 -252.209 0
      vertex 254.993 -252.209 -3
    endloop
  endfacet
  facet normal 0.99944 -0.0334741 0
    outer loop
      vertex 255 -252 -3
      vertex 255 -252 0
      vertex 254.993 -252.209 0
    endloop
  endfacet
  facet normal 1 0 0
    outer loop
      vertex 255 252 -3
      vertex 255 -252 0
      vertex 255 -252 -3
    endloop
  endfacet
  facet normal 1 0 -0
    outer loop
      vertex 255 252 -3
      vertex 255 252 0
      vertex 255 -252 0
    endloop
  endfacet
  facet normal 0.99944 0.0334741 0
    outer loop
      vertex 254.993 252.209 -3
      vertex 255 252 0
      vertex 255 252 -3
    endloop
  endfacet
  facet normal 0.99944 0.0334741 -0
    outer loop
      vertex 254.993 252.209 -3
      vertex 254.993 252.209 0
      vertex 255 252 0
    endloop
  endfacet
  facet normal 0.994505 0.104685 0
    outer loop
      vertex 254.971 252.418 -3
      vertex 254.993 252.209 0
      vertex 254.993 252.209 -3
    endloop
  endfacet
  facet normal 0.994505 0.104685 -0
    outer loop
      vertex 254.971 252.418 -3
      vertex 254.971 252.418 0
      vertex 254.993 252.209 0
    endloop
  endfacet
  facet normal 0.98425 0.176783 0
    outer loop
      vertex 254.934 252.624 -3
      vertex 254.971 252.418 0
      vertex 254.971 252.418 -3
    endloop
  endfacet
  facet normal 0.98425 0.176783 -0
    outer loop
      vertex 254.934 252.624 -3
      vertex 254.934 252.624 0
      vertex 254.971 252.418 0
    endloop
  endfacet
  facet normal 0.970981 0.239158 0
    outer loop
      vertex 254.884 252.827 -3
      vertex 254.934 252.624 0
      vertex 254.934 252.624 -3
    endloop
  endfacet
  facet normal 0.970981 0.239158 -0
    outer loop
      vertex 254.884 252.827 -3
      vertex 254.884 252.827 0
      vertex 254.934 252.624 0
    endloop
  endfacet
  facet normal 0.950577 0.31049 0
    outer loop
      vertex 254.819 253.026 -3
      vertex 254.884 252.827 0
      vertex 254.884 252.827 -3
    endloop
  endfacet
  facet normal 0.950577 0.31049 -0
    outer loop
      vertex 254.819 253.026 -3
      vertex 254.819 253.026 0
      vertex 254.884 252.827 0
    endloop
  endfacet
  facet normal 0.927816 0.373039 0
    outer loop
      vertex 254.741 253.22 -3
      vertex 254.819 253.026 0
      vertex 254.819 253.026 -3
    endloop
  endfacet
  facet normal 0.927816 0.373039 -0
    outer loop
      vertex 254.741 253.22 -3
      vertex 254.741 253.22 0
      vertex 254.819 253.026 0
    endloop
  endfacet
  facet normal 0.898217 0.439553 0
    outer loop
      vertex 254.649 253.408 -3
      vertex 254.741 253.22 0
      vertex 254.741 253.22 -3
    endloop
  endfacet
  facet normal 0.898217 0.439553 -0
    outer loop
      vertex 254.649 253.408 -3
      vertex 254.649 253.408 0
      vertex 254.741 253.22 0
    endloop
  endfacet
  facet normal 0.866186 0.499722 0
    outer loop
      vertex 254.544 253.59 -3
      vertex 254.649 253.408 0
      vertex 254.649 253.408 -3
    endloop
  endfacet
  facet normal 0.866186 0.499722 -0
    outer loop
      vertex 254.544 253.59 -3
      vertex 254.544 253.59 0
      vertex 254.649 253.408 0
    endloop
  endfacet
  facet normal 0.828349 0.560213 0
    outer loop
      vertex 254.427 253.763 -3
      vertex 254.544 253.59 0
      vertex 254.544 253.59 -3
    endloop
  endfacet
  facet normal 0.828349 0.560213 -0
    outer loop
      vertex 254.427 253.763 -3
      vertex 254.427 253.763 0
      vertex 254.544 253.59 0
    endloop
  endfacet
  facet normal 0.787807 0.615922 0
    outer loop
      vertex 254.298 253.928 -3
      vertex 254.427 253.763 0
      vertex 254.427 253.763 -3
    endloop
  endfacet
  facet normal 0.787807 0.615922 -0
    outer loop
      vertex 254.298 253.928 -3
      vertex 254.298 253.928 0
      vertex 254.427 253.763 0
    endloop
  endfacet
  facet normal 0.744242 0.66791 0
    outer loop
      vertex 254.158 254.084 -3
      vertex 254.298 253.928 0
      vertex 254.298 253.928 -3
    endloop
  endfacet
  facet normal 0.744242 0.66791 -0
    outer loop
      vertex 254.158 254.084 -3
      vertex 254.158 254.084 0
      vertex 254.298 253.928 0
    endloop
  endfacet
  facet normal 0.692631 0.721292 0
    outer loop
      vertex 254.007 254.229 -3
      vertex 254.158 254.084 0
      vertex 254.158 254.084 -3
    endloop
  endfacet
  facet normal 0.692631 0.721292 -0
    outer loop
      vertex 254.007 254.229 -3
      vertex 254.007 254.229 0
      vertex 254.158 254.084 0
    endloop
  endfacet
  facet normal 0.644871 0.764291 0
    outer loop
      vertex 253.847 254.364 -3
      vertex 254.007 254.229 0
      vertex 254.007 254.229 -3
    endloop
  endfacet
  facet normal 0.644871 0.764291 -0
    outer loop
      vertex 253.847 254.364 -3
      vertex 253.847 254.364 0
      vertex 254.007 254.229 0
    endloop
  endfacet
  facet normal 0.588456 0.808529 0
    outer loop
      vertex 253.678 254.487 -3
      vertex 253.847 254.364 0
      vertex 253.847 254.364 -3
    endloop
  endfacet
  facet normal 0.588456 0.808529 -0
    outer loop
      vertex 253.678 254.487 -3
      vertex 253.678 254.487 0
      vertex 253.847 254.364 0
    endloop
  endfacet
  facet normal 0.529142 0.848533 0
    outer loop
      vertex 253.5 254.598 -3
      vertex 253.678 254.487 0
      vertex 253.678 254.487 -3
    endloop
  endfacet
  facet normal 0.529142 0.848533 -0
    outer loop
      vertex 253.5 254.598 -3
      vertex 253.5 254.598 0
      vertex 253.678 254.487 0
    endloop
  endfacet
  facet normal 0.468107 0.883672 0
    outer loop
      vertex 253.315 254.696 -3
      vertex 253.5 254.598 0
      vertex 253.5 254.598 -3
    endloop
  endfacet
  facet normal 0.468107 0.883672 -0
    outer loop
      vertex 253.315 254.696 -3
      vertex 253.315 254.696 0
      vertex 253.5 254.598 0
    endloop
  endfacet
  facet normal 0.410563 0.911832 0
    outer loop
      vertex 253.124 254.782 -3
      vertex 253.315 254.696 0
      vertex 253.315 254.696 -3
    endloop
  endfacet
  facet normal 0.410563 0.911832 -0
    outer loop
      vertex 253.124 254.782 -3
      vertex 253.124 254.782 0
      vertex 253.315 254.696 0
    endloop
  endfacet
  facet normal 0.339058 0.940766 0
    outer loop
      vertex 252.927 254.853 -3
      vertex 253.124 254.782 0
      vertex 253.124 254.782 -3
    endloop
  endfacet
  facet normal 0.339058 0.940766 -0
    outer loop
      vertex 252.927 254.853 -3
      vertex 252.927 254.853 0
      vertex 253.124 254.782 0
    endloop
  endfacet
  facet normal 0.277246 0.960799 0
    outer loop
      vertex 252.726 254.911 -3
      vertex 252.927 254.853 0
      vertex 252.927 254.853 -3
    endloop
  endfacet
  facet normal 0.277246 0.960799 -0
    outer loop
      vertex 252.726 254.911 -3
      vertex 252.726 254.911 0
      vertex 252.927 254.853 0
    endloop
  endfacet
  facet normal 0.205289 0.978701 0
    outer loop
      vertex 252.521 254.954 -3
      vertex 252.726 254.911 0
      vertex 252.726 254.911 -3
    endloop
  endfacet
  facet normal 0.205289 0.978701 -0
    outer loop
      vertex 252.521 254.954 -3
      vertex 252.521 254.954 0
      vertex 252.726 254.911 0
    endloop
  endfacet
  facet normal 0.143429 0.989661 0
    outer loop
      vertex 252.314 254.984 -3
      vertex 252.521 254.954 0
      vertex 252.521 254.954 -3
    endloop
  endfacet
  facet normal 0.143429 0.989661 -0
    outer loop
      vertex 252.314 254.984 -3
      vertex 252.314 254.984 0
      vertex 252.521 254.954 0
    endloop
  endfacet
  facet normal 0.0668359 0.997764 0
    outer loop
      vertex 252.105 254.998 -3
      vertex 252.314 254.984 0
      vertex 252.314 254.984 -3
    endloop
  endfacet
  facet normal 0.0668359 0.997764 -0
    outer loop
      vertex 252.105 254.998 -3
      vertex 252.105 254.998 0
      vertex 252.314 254.984 0
    endloop
  endfacet
  facet normal 0 1 0
    outer loop
      vertex 252.002 254.998 -3
      vertex 252.105 254.998 0
      vertex 252.105 254.998 -3
    endloop
  endfacet
  facet normal 0 1 0
    outer loop
      vertex 252.002 254.998 -3
      vertex 252.002 254.998 0
      vertex 252.105 254.998 0
    endloop
  endfacet
  facet normal 0.707107 0.707107 0
    outer loop
      vertex 252 255 -3
      vertex 252.002 254.998 0
      vertex 252.002 254.998 -3
    endloop
  endfacet
  facet normal 0.707107 0.707107 -0
    outer loop
      vertex 252 255 -3
      vertex 252 255 0
      vertex 252.002 254.998 0
    endloop
  endfacet
  facet normal 0 1 0
    outer loop
      vertex -252 255 -3
      vertex 252 255 0
      vertex 252 255 -3
    endloop
  endfacet
  facet normal 0 1 0
    outer loop
      vertex -252 255 -3
      vertex -252 255 0
      vertex 252 255 0
    endloop
  endfacet
  facet normal -0.707107 0.707107 0
    outer loop
      vertex -252.002 254.998 -3
      vertex -252 255 0
      vertex -252 255 -3
    endloop
  endfacet
  facet normal -0.707107 0.707107 0
    outer loop
      vertex -252.002 254.998 -3
      vertex -252.002 254.998 0
      vertex -252 255 0
    endloop
  endfacet
  facet normal 0 1 0
    outer loop
      vertex -252.105 254.998 -3
      vertex -252.002 254.998 0
      vertex -252.002 254.998 -3
    endloop
  endfacet
  facet normal 0 1 0
    outer loop
      vertex -252.105 254.998 -3
      vertex -252.105 254.998 0
      vertex -252.002 254.998 0
    endloop
  endfacet
  facet normal -0.0668359 0.997764 0
    outer loop
      vertex -252.314 254.984 -3
      vertex -252.105 254.998 0
      vertex -252.105 254.998 -3
    endloop
  endfacet
  facet normal -0.0668359 0.997764 0
    outer loop
      vertex -252.314 254.984 -3
      vertex -252.314 254.984 0
      vertex -252.105 254.998 0
    endloop
  endfacet
  facet normal -0.143429 0.989661 0
    outer loop
      vertex -252.521 254.954 -3
      vertex -252.314 254.984 0
      vertex -252.314 254.984 -3
    endloop
  endfacet
  facet normal -0.143429 0.989661 0
    outer loop
      vertex -252.521 254.954 -3
      vertex -252.521 254.954 0
      vertex -252.314 254.984 0
    endloop
  endfacet
  facet normal -0.205289 0.978701 0
    outer loop
      vertex -252.726 254.911 -3
      vertex -252.521 254.954 0
      vertex -252.521 254.954 -3
    endloop
  endfacet
  facet normal -0.205289 0.978701 0
    outer loop
      vertex -252.726 254.911 -3
      vertex -252.726 254.911 0
      vertex -252.521 254.954 0
    endloop
  endfacet
  facet normal -0.277246 0.960799 0
    outer loop
      vertex -252.927 254.853 -3
      vertex -252.726 254.911 0
      vertex -252.726 254.911 -3
    endloop
  endfacet
  facet normal -0.277246 0.960799 0
    outer loop
      vertex -252.927 254.853 -3
      vertex -252.927 254.853 0
      vertex -252.726 254.911 0
    endloop
  endfacet
  facet normal -0.339058 0.940766 0
    outer loop
      vertex -253.124 254.782 -3
      vertex -252.927 254.853 0
      vertex -252.927 254.853 -3
    endloop
  endfacet
  facet normal -0.339058 0.940766 0
    outer loop
      vertex -253.124 254.782 -3
      vertex -253.124 254.782 0
      vertex -252.927 254.853 0
    endloop
  endfacet
  facet normal -0.410563 0.911832 0
    outer loop
      vertex -253.315 254.696 -3
      vertex -253.124 254.782 0
      vertex -253.124 254.782 -3
    endloop
  endfacet
  facet normal -0.410563 0.911832 0
    outer loop
      vertex -253.315 254.696 -3
      vertex -253.315 254.696 0
      vertex -253.124 254.782 0
    endloop
  endfacet
  facet normal -0.468107 0.883672 0
    outer loop
      vertex -253.5 254.598 -3
      vertex -253.315 254.696 0
      vertex -253.315 254.696 -3
    endloop
  endfacet
  facet normal -0.468107 0.883672 0
    outer loop
      vertex -253.5 254.598 -3
      vertex -253.5 254.598 0
      vertex -253.315 254.696 0
    endloop
  endfacet
  facet normal -0.529142 0.848533 0
    outer loop
      vertex -253.678 254.487 -3
      vertex -253.5 254.598 0
      vertex -253.5 254.598 -3
    endloop
  endfacet
  facet normal -0.529142 0.848533 0
    outer loop
      vertex -253.678 254.487 -3
      vertex -253.678 254.487 0
      vertex -253.5 254.598 0
    endloop
  endfacet
  facet normal -0.588456 0.808529 0
    outer loop
      vertex -253.847 254.364 -3
      vertex -253.678 254.487 0
      vertex -253.678 254.487 -3
    endloop
  endfacet
  facet normal -0.588456 0.808529 0
    outer loop
      vertex -253.847 254.364 -3
      vertex -253.847 254.364 0
      vertex -253.678 254.487 0
    endloop
  endfacet
  facet normal -0.644871 0.764291 0
    outer loop
      vertex -254.007 254.229 -3
      vertex -253.847 254.364 0
      vertex -253.847 254.364 -3
    endloop
  endfacet
  facet normal -0.644871 0.764291 0
    outer loop
      vertex -254.007 254.229 -3
      vertex -254.007 254.229 0
      vertex -253.847 254.364 0
    endloop
  endfacet
  facet normal -0.692631 0.721292 0
    outer loop
      vertex -254.158 254.084 -3
      vertex -254.007 254.229 0
      vertex -254.007 254.229 -3
    endloop
  endfacet
  facet normal -0.692631 0.721292 0
    outer loop
      vertex -254.158 254.084 -3
      vertex -254.158 254.084 0
      vertex -254.007 254.229 0
    endloop
  endfacet
  facet normal -0.744242 0.66791 0
    outer loop
      vertex -254.298 253.928 -3
      vertex -254.158 254.084 0
      vertex -254.158 254.084 -3
    endloop
  endfacet
  facet normal -0.744242 0.66791 0
    outer loop
      vertex -254.298 253.928 -3
      vertex -254.298 253.928 0
      vertex -254.158 254.084 0
    endloop
  endfacet
  facet normal -0.787807 0.615922 0
    outer loop
      vertex -254.427 253.763 -3
      vertex -254.298 253.928 0
      vertex -254.298 253.928 -3
    endloop
  endfacet
  facet normal -0.787807 0.615922 0
    outer loop
      vertex -254.427 253.763 -3
      vertex -254.427 253.763 0
      vertex -254.298 253.928 0
    endloop
  endfacet
  facet normal -0.828349 0.560213 0
    outer loop
      vertex -254.544 253.59 -3
      vertex -254.427 253.763 0
      vertex -254.427 253.763 -3
    endloop
  endfacet
  facet normal -0.828349 0.560213 0
    outer loop
      vertex -254.544 253.59 -3
      vertex -254.544 253.59 0
      vertex -254.427 253.763 0
    endloop
  endfacet
  facet normal -0.866186 0.499722 0
    outer loop
      vertex -254.649 253.408 -3
      vertex -254.544 253.59 0
      vertex -254.544 253.59 -3
    endloop
  endfacet
  facet normal -0.866186 0.499722 0
    outer loop
      vertex -254.649 253.408 -3
      vertex -254.649 253.408 0
      vertex -254.544 253.59 0
    endloop
  endfacet
  facet normal -0.898217 0.439553 0
    outer loop
      vertex -254.741 253.22 -3
      vertex -254.649 253.408 0
      vertex -254.649 253.408 -3
    endloop
  endfacet
  facet normal -0.898217 0.439553 0
    outer loop
      vertex -254.741 253.22 -3
      vertex -254.741 253.22 0
      vertex -254.649 253.408 0
    endloop
  endfacet
  facet normal -0.927816 0.373039 0
    outer loop
      vertex -254.819 253.026 -3
      vertex -254.741 253.22 0
      vertex -254.741 253.22 -3
    endloop
  endfacet
  facet normal -0.927816 0.373039 0
    outer loop
      vertex -254.819 253.026 -3
      vertex -254.819 253.026 0
      vertex -254.741 253.22 0
    endloop
  endfacet
  facet normal -0.950577 0.31049 0
    outer loop
      vertex -254.884 252.827 -3
      vertex -254.819 253.026 0
      vertex -254.819 253.026 -3
    endloop
  endfacet
  facet normal -0.950577 0.31049 0
    outer loop
      vertex -254.884 252.827 -3
      vertex -254.884 252.827 0
      vertex -254.819 253.026 0
    endloop
  endfacet
  facet normal -0.970981 0.239158 0
    outer loop
      vertex -254.934 252.624 -3
      vertex -254.884 252.827 0
      vertex -254.884 252.827 -3
    endloop
  endfacet
  facet normal -0.970981 0.239158 0
    outer loop
      vertex -254.934 252.624 -3
      vertex -254.934 252.624 0
      vertex -254.884 252.827 0
    endloop
  endfacet
  facet normal -0.98425 0.176783 0
    outer loop
      vertex -254.971 252.418 -3
      vertex -254.934 252.624 0
      vertex -254.934 252.624 -3
    endloop
  endfacet
  facet normal -0.98425 0.176783 0
    outer loop
      vertex -254.971 252.418 -3
      vertex -254.971 252.418 0
      vertex -254.934 252.624 0
    endloop
  endfacet
  facet normal -0.994505 0.104685 0
    outer loop
      vertex -254.993 252.209 -3
      vertex -254.971 252.418 0
      vertex -254.971 252.418 -3
    endloop
  endfacet
  facet normal -0.994505 0.104685 0
    outer loop
      vertex -254.993 252.209 -3
      vertex -254.993 252.209 0
      vertex -254.971 252.418 0
    endloop
  endfacet
  facet normal -0.99944 0.0334741 0
    outer loop
      vertex -255 252 -3
      vertex -254.993 252.209 0
      vertex -254.993 252.209 -3
    endloop
  endfacet
  facet normal -0.99944 0.0334741 0
    outer loop
      vertex -255 252 -3
      vertex -255 252 0
      vertex -254.993 252.209 0
    endloop
  endfacet
  facet normal -1 0 0
    outer loop
      vertex -255 -252 -3
      vertex -255 252 0
      vertex -255 252 -3
    endloop
  endfacet
  facet normal -1 0 0
    outer loop
      vertex -255 -252 -3
      vertex -255 -252 0
      vertex -255 252 0
    endloop
  endfacet
  facet normal -0.99944 -0.0334741 0
    outer loop
      vertex -254.993 -252.209 -3
      vertex -255 -252 0
      vertex -255 -252 -3
    endloop
  endfacet
  facet normal -0.99944 -0.0334741 0
    outer loop
      vertex -254.993 -252.209 -3
      vertex -254.993 -252.209 0
      vertex -255 -252 0
    endloop
  endfacet
  facet normal -0.994505 -0.104685 0
    outer loop
      vertex -254.971 -252.418 -3
      vertex -254.993 -252.209 0
      vertex -254.993 -252.209 -3
    endloop
  endfacet
  facet normal -0.994505 -0.104685 0
    outer loop
      vertex -254.971 -252.418 -3
      vertex -254.971 -252.418 0
      vertex -254.993 -252.209 0
    endloop
  endfacet
  facet normal -0.98425 -0.176783 0
    outer loop
      vertex -254.934 -252.624 -3
      vertex -254.971 -252.418 0
      vertex -254.971 -252.418 -3
    endloop
  endfacet
  facet normal -0.98425 -0.176783 0
    outer loop
      vertex -254.934 -252.624 -3
      vertex -254.934 -252.624 0
      vertex -254.971 -252.418 0
    endloop
  endfacet
  facet normal -0.970981 -0.239158 0
    outer loop
      vertex -254.884 -252.827 -3
      vertex -254.934 -252.624 0
      vertex -254.934 -252.624 -3
    endloop
  endfacet
  facet normal -0.970981 -0.239158 0
    outer loop
      vertex -254.884 -252.827 -3
      vertex -254.884 -252.827 0
      vertex -254.934 -252.624 0
    endloop
  endfacet
  facet normal -0.950577 -0.31049 0
    outer loop
      vertex -254.819 -253.026 -3
      vertex -254.884 -252.827 0
      vertex -254.884 -252.827 -3
    endloop
  endfacet
  facet normal -0.950577 -0.31049 0
    outer loop
      vertex -254.819 -253.026 -3
      vertex -254.819 -253.026 0
      vertex -254.884 -252.827 0
    endloop
  endfacet
  facet normal -0.927816 -0.373039 0
    outer loop
      vertex -254.741 -253.22 -3
      vertex -254.819 -253.026 0
      vertex -254.819 -253.026 -3
    endloop
  endfacet
  facet normal -0.927816 -0.373039 0
    outer loop
      vertex -254.741 -253.22 -3
      vertex -254.741 -253.22 0
      vertex -254.819 -253.026 0
    endloop
  endfacet
  facet normal -0.898217 -0.439553 0
    outer loop
      vertex -254.649 -253.408 -3
      vertex -254.741 -253.22 0
      vertex -254.741 -253.22 -3
    endloop
  endfacet
  facet normal -0.898217 -0.439553 0
    outer loop
      vertex -254.649 -253.408 -3
      vertex -254.649 -253.408 0
      vertex -254.741 -253.22 0
    endloop
  endfacet
  facet normal -0.866186 -0.499722 0
    outer loop
      vertex -254.544 -253.59 -3
      vertex -254.649 -253.408 0
      vertex -254.649 -253.408 -3
    endloop
  endfacet
  facet normal -0.866186 -0.499722 0
    outer loop
      vertex -254.544 -253.59 -3
      vertex -254.544 -253.59 0
      vertex -254.649 -253.408 0
    endloop
  endfacet
  facet normal -0.828349 -0.560213 0
    outer loop
      vertex -254.427 -253.763 -3
      vertex -254.544 -253.59 0
      vertex -254.544 -253.59 -3
    endloop
  endfacet
  facet normal -0.828349 -0.560213 0
    outer loop
      vertex -254.427 -253.763 -3
      vertex -254.427 -253.763 0
      vertex -254.544 -253.59 0
    endloop
  endfacet
  facet normal -0.787807 -0.615922 0
    outer loop
      vertex -254.298 -253.928 -3
      vertex -254.427 -253.763 0
      vertex -254.427 -253.763 -3
    endloop
  endfacet
  facet normal -0.787807 -0.615922 0
    outer loop
      vertex -254.298 -253.928 -3
      vertex -254.298 -253.928 0
      vertex -254.427 -253.763 0
    endloop
  endfacet
  facet normal -0.744242 -0.66791 0
    outer loop
      vertex -254.158 -254.084 -3
      vertex -254.298 -253.928 0
      vertex -254.298 -253.928 -3
    endloop
  endfacet
  facet normal -0.744242 -0.66791 0
    outer loop
      vertex -254.158 -254.084 -3
      vertex -254.158 -254.084 0
      vertex -254.298 -253.928 0
    endloop
  endfacet
  facet normal -0.692631 -0.721292 0
    outer loop
      vertex -254.007 -254.229 -3
      vertex -254.158 -254.084 0
      vertex -254.158 -254.084 -3
    endloop
  endfacet
  facet normal -0.692631 -0.721292 0
    outer loop
      vertex -254.007 -254.229 -3
      vertex -254.007 -254.229 0
      vertex -254.158 -254.084 0
    endloop
  endfacet
  facet normal -0.644871 -0.764291 0
    outer loop
      vertex -253.847 -254.364 -3
      vertex -254.007 -254.229 0
      vertex -254.007 -254.229 -3
    endloop
  endfacet
  facet normal -0.644871 -0.764291 0
    outer loop
      vertex -253.847 -254.364 -3
      vertex -253.847 -254.364 0
      vertex -254.007 -254.229 0
    endloop
  endfacet
  facet normal -0.588456 -0.808529 0
    outer loop
      vertex -253.678 -254.487 -3
      vertex -253.847 -254.364 0
      vertex -253.847 -254.364 -3
    endloop
  endfacet
  facet normal -0.588456 -0.808529 0
    outer loop
      vertex -253.678 -254.487 -3
      vertex -253.678 -254.487 0
      vertex -253.847 -254.364 0
    endloop
  endfacet
  facet normal -0.529142 -0.848533 0
    outer loop
      vertex -253.5 -254.598 -3
      vertex -253.678 -254.487 0
      vertex -253.678 -254.487 -3
    endloop
  endfacet
  facet normal -0.529142 -0.848533 0
    outer loop
      vertex -253.5 -254.598 -3
      vertex -253.5 -254.598 0
      vertex -253.678 -254.487 0
    endloop
  endfacet
  facet normal -0.468107 -0.883672 0
    outer loop
      vertex -253.315 -254.696 -3
      vertex -253.5 -254.598 0
      vertex -253.5 -254.598 -3
    endloop
  endfacet
  facet normal -0.468107 -0.883672 0
    outer loop
      vertex -253.315 -254.696 -3
      vertex -253.315 -254.696 0
      vertex -253.5 -254.598 0
    endloop
  endfacet
  facet normal -0.410563 -0.911832 0
    outer loop
      vertex -253.124 -254.782 -3
      vertex -253.315 -254.696 0
      vertex -253.315 -254.696 -3
    endloop
  endfacet
  facet normal -0.410563 -0.911832 0
    outer loop
      vertex -253.124 -254.782 -3
      vertex -253.124 -254.782 0
      vertex -253.315 -254.696 0
    endloop
  endfacet
  facet normal -0.339058 -0.940766 0
    outer loop
      vertex -252.927 -254.853 -3
      vertex -253.124 -254.782 0
      vertex -253.124 -254.782 -3
    endloop
  endfacet
  facet normal -0.339058 -0.940766 0
    outer loop
      vertex -252.927 -254.853 -3
      vertex -252.927 -254.853 0
      vertex -253.124 -254.782 0
    endloop
  endfacet
  facet normal -0.277246 -0.960799 0
    outer loop
      vertex -252.726 -254.911 -3
      vertex -252.927 -254.853 0
      vertex -252.927 -254.853 -3
    endloop
  endfacet
  facet normal -0.277246 -0.960799 0
    outer loop
      vertex -252.726 -254.911 -3
      vertex -252.726 -254.911 0
      vertex -252.927 -254.853 0
    endloop
  endfacet
  facet normal -0.205289 -0.978701 0
    outer loop
      vertex -252.521 -254.954 -3
      vertex -252.726 -254.911 0
      vertex -252.726 -254.911 -3
    endloop
  endfacet
  facet normal -0.205289 -0.978701 0
    outer loop
      vertex -252.521 -254.954 -3
      vertex -252.521 -254.954 0
      vertex -252.726 -254.911 0
    endloop
  endfacet
  facet normal -0.143429 -0.989661 0
    outer loop
      vertex -252.314 -254.984 -3
      vertex -252.521 -254.954 0
      vertex -252.521 -254.954 -3
    endloop
  endfacet
  facet normal -0.143429 -0.989661 0
    outer loop
      vertex -252.314 -254.984 -3
      vertex -252.314 -254.984 0
      vertex -252.521 -254.954 0
    endloop
  endfacet
  facet normal -0.0668359 -0.997764 0
    outer loop
      vertex -252.105 -254.998 -3
      vertex -252.314 -254.984 0
      vertex -252.314 -254.984 -3
    endloop
  endfacet
  facet normal -0.0668359 -0.997764 0
    outer loop
      vertex -252.105 -254.998 -3
      vertex -252.105 -254.998 0
      vertex -252.314 -254.984 0
    endloop
  endfacet
  facet normal 0 -1 0
    outer loop
      vertex -252.002 -254.998 -3
      vertex -252.105 -254.998 0
      vertex -252.105 -254.998 -3
    endloop
  endfacet
  facet normal 0 -1 0
    outer loop
      vertex -252.002 -254.998 -3
      vertex -252.002 -254.998 0
      vertex -252.105 -254.998 0
    endloop
  endfacet
  facet normal -0.707107 -0.707107 0
    outer loop
      vertex -252 -255 -3
      vertex -252.002 -254.998 0
      vertex -252.002 -254.998 -3
    endloop
  endfacet
  facet normal -0.707107 -0.707107 0
    outer loop
      vertex -252 -255 -3
      vertex -252 -255 0
      vertex -252.002 -254.998 0
    endloop
  endfacet
  facet normal 0 -1 0
    outer loop
      vertex 252 -255 -3
      vertex -252 -255 0
      vertex -252 -255 -3
    endloop
  endfacet
  facet normal 0 -1 0
    outer loop
      vertex 252 -255 -3
      vertex 252 -255 0
      vertex -252 -255 0
    endloop
  endfacet
  facet normal 0.707107 -0.707107 0
    outer loop
      vertex 252.002 -254.998 -3
      vertex 252 -255 0
      vertex 252 -255 -3
    endloop
  endfacet
  facet normal 0.707107 -0.707107 0
    outer loop
      vertex 252.002 -254.998 -3
      vertex 252.002 -254.998 0
      vertex 252 -255 0
    endloop
  endfacet
endsolid OpenSCAD_Model
