<svg xmlns="http://www.w3.org/2000/svg" width="127mm" height="80mm" viewBox="0 0 360 226.8">
  <rect width="360" height="226.77" style="fill: none;stroke: #fff;stroke-miterlimit: 10;stroke-width: 1.41732283464567px"/>
  <path d="M210.4,162.2h6.2a5.3,5.3,0,0,1,2.5.4,3.6,3.6,0,0,1,1.4,1.1,2.7,2.7,0,0,1,.7,1.4,7.7,7.7,0,0,1,.2,1.5,7.8,7.8,0,0,1-.2,1.4,2.7,2.7,0,0,1-.7,1.4,4.9,4.9,0,0,1-1.4,1.1,6.9,6.9,0,0,1-2.5.4h-3.7v5.4h-2.5Zm2.5,6.6h4.4l.8-.4.6-.7a3.1,3.1,0,0,0,0-2.2,1.8,1.8,0,0,0-.5-.7l-.8-.4h-4.6Z" style="fill: #fff"/>
  <path d="M223.6,162.2h6.7a4.7,4.7,0,0,1,3.4,1,3.6,3.6,0,0,1,1.2,2.8,4.5,4.5,0,0,1-.3,1.6,4.1,4.1,0,0,1-.7,1.1,2.1,2.1,0,0,1-.8.6l-.6.3h0l.7.2a1.2,1.2,0,0,1,.7.5,1.9,1.9,0,0,1,.5.9,3,3,0,0,1,.2,1.3,17.9,17.9,0,0,0,.2,2.3,3.5,3.5,0,0,0,.6,1.4h-2.7a2.9,2.9,0,0,1-.3-1v-1.1a9.7,9.7,0,0,0-.1-1.7,4.9,4.9,0,0,0-.4-1.1l-.9-.7-1.4-.2H226v5.8h-2.4Zm2.4,6.4h4.1a3,3,0,0,0,1.8-.6,2.5,2.5,0,0,0,.6-1.7,4.3,4.3,0,0,0-.2-1.1,1.8,1.8,0,0,0-.5-.7l-.8-.3h-5Z" style="fill: #fff"/>
  <path d="M237.3,162.2h2.5v8.2c0,.4.1.9.1,1.4a2.8,2.8,0,0,0,.4,1.3,2.4,2.4,0,0,0,1,1,3.9,3.9,0,0,0,1.8.4,4.1,4.1,0,0,0,1.9-.4,2.4,2.4,0,0,0,1-1,2.8,2.8,0,0,0,.4-1.3c0-.5.1-1,.1-1.4v-8.2h2.4v9a4.5,4.5,0,0,1-.4,2.3,3,3,0,0,1-1.2,1.7,4.2,4.2,0,0,1-1.8,1.1,9.4,9.4,0,0,1-4.7,0,7.2,7.2,0,0,1-1.9-1.1,5.6,5.6,0,0,1-1.1-1.7,5.9,5.9,0,0,1-.4-2.3Z" style="fill: #fff"/>
  <path d="M253.4,171.6a2,2,0,0,0,.2,1.3,3.9,3.9,0,0,0,.8,1l1.1.5,1.4.2,1.4-.2.9-.5a1.8,1.8,0,0,0,.5-.7,1.9,1.9,0,0,0,.2-.8,1.5,1.5,0,0,0-.4-1.1,1.6,1.6,0,0,0-.8-.6l-1.7-.5-2.5-.7-1.5-.6a3.9,3.9,0,0,1-1-.8,4.7,4.7,0,0,1-.5-1,4.9,4.9,0,0,1-.1-1.2,3.9,3.9,0,0,1,.4-1.8,3.7,3.7,0,0,1,1.2-1.3l1.7-.8,1.9-.2a6.4,6.4,0,0,1,2,.3,9.8,9.8,0,0,1,1.8.8,4.4,4.4,0,0,1,1.6,3.4h-2.5a2.2,2.2,0,0,0-.9-1.9,4.2,4.2,0,0,0-2.1-.6h-.9l-.9.3-.6.5a1.8,1.8,0,0,0,.2,2.1,3.4,3.4,0,0,0,1.2.6l.6.2,1.3.3,1.3.4.9.2,1.2.6.9.9a3.1,3.1,0,0,1,.5,1,4.5,4.5,0,0,1,.1,1.1,3.9,3.9,0,0,1-.4,2.1,5.3,5.3,0,0,1-1.3,1.3,4.8,4.8,0,0,1-1.8.8l-2.1.3a8.3,8.3,0,0,1-2.2-.3,6.6,6.6,0,0,1-1.9-.9,6.1,6.1,0,0,1-1.2-1.6,5.9,5.9,0,0,1-.5-2.2Z" style="fill: #fff"/>
  <path d="M268.3,162.2h2.6l5.5,14.1h-2.7l-1.3-3.8h-5.6l-1.4,3.8h-2.5Zm-.9,8.4h4.3l-2.1-6h0Z" style="fill: #fff"/>
  <path d="M284.8,171.6a3.1,3.1,0,0,0,.3,1.3,2.5,2.5,0,0,0,.8,1l1.1.5,1.4.2,1.4-.2.9-.5a1.8,1.8,0,0,0,.5-.7,1.9,1.9,0,0,0,.2-.8,2,2,0,0,0-.3-1.1,2.1,2.1,0,0,0-.8-.6l-1.8-.5-2.5-.7-1.5-.6a3.4,3.4,0,0,1-.9-.8,2.4,2.4,0,0,1-.5-1,5,5,0,0,1-.2-1.2,4.1,4.1,0,0,1,.5-1.8,4.7,4.7,0,0,1,1.1-1.3l1.7-.8,1.9-.2,2.1.3a4.4,4.4,0,0,1,2.9,2.2,4.8,4.8,0,0,1,.4,2H291a2.2,2.2,0,0,0-.9-1.9,3.9,3.9,0,0,0-2.1-.6h-.9l-.8.3a1.3,1.3,0,0,0-.7.6,2,2,0,0,0-.2.9,1.6,1.6,0,0,0,.5,1.1,2.3,2.3,0,0,0,1.2.6l.6.2,1.2.3,1.3.3.9.3a2.3,2.3,0,0,1,1.2.6,2,2,0,0,1,.9.9,3.1,3.1,0,0,1,.5,1,3.6,3.6,0,0,1,.2,1.1,4.6,4.6,0,0,1-.5,2,3.5,3.5,0,0,1-1.3,1.4,4.9,4.9,0,0,1-1.8.8l-2,.2a7.8,7.8,0,0,1-2.2-.3,4.7,4.7,0,0,1-3.2-2.5,5.1,5.1,0,0,1-.5-2.2Z" style="fill: #fff"/>
  <path d="M296,162.2h2.5v11.9h7.1v2.2H296Z" style="fill: #fff"/>
  <path d="M306.9,164.7h1.4l1.2-.4.9-.7a2.2,2.2,0,0,0,.5-1.1h1.8v13.9h-2.4v-9.8h-3.4Z" style="fill: #fff"/>
  <path d="M214.8,149.6a4.4,4.4,0,0,1,3.5,1.5,5.6,5.6,0,0,1,.9,1.7,6.4,6.4,0,0,1,.3,2,7.5,7.5,0,0,1-.3,2,5.1,5.1,0,0,1-.9,1.6,4.8,4.8,0,0,1-1.5,1.1,5.3,5.3,0,0,1-2,.5,4.6,4.6,0,0,1-2-.5,3.3,3.3,0,0,1-1.5-1.1,5.4,5.4,0,0,1-1-1.6,7.5,7.5,0,0,1-.3-2,6.4,6.4,0,0,1,.3-2,5.9,5.9,0,0,1,1-1.7,4.1,4.1,0,0,1,3.5-1.5Zm0,1.4a3.2,3.2,0,0,0-1.4.3,2,2,0,0,0-.9.9,2.3,2.3,0,0,0-.6,1.2,6.1,6.1,0,0,0-.1,1.4,7.1,7.1,0,0,0,.1,1.4,3.4,3.4,0,0,0,.6,1.2,2.4,2.4,0,0,0,.9.8,2.2,2.2,0,0,0,1.4.3,2.1,2.1,0,0,0,1.3-.3,3.9,3.9,0,0,0,1-.8,6.1,6.1,0,0,0,.5-1.2,7.8,7.8,0,0,0,.2-1.4,5.9,5.9,0,0,0-.2-1.4,3.3,3.3,0,0,0-.5-1.2,2.8,2.8,0,0,0-1-.9A3.1,3.1,0,0,0,214.8,151Z" style="fill: #fff"/>
  <path d="M221.1,149.8h4.7a3.7,3.7,0,0,1,2.5.7,2.2,2.2,0,0,1,.8,2,4.3,4.3,0,0,1-.2,1.1,3.5,3.5,0,0,1-.5.8l-.5.4h-.4l.5.2.4.3a1.6,1.6,0,0,1,.4.7,1.4,1.4,0,0,1,.1.9,7.8,7.8,0,0,0,.2,1.6,1.8,1.8,0,0,0,.4,1h-1.9a1.4,1.4,0,0,1-.2-.7v-.7a4.9,4.9,0,0,0-.1-1.2,1.1,1.1,0,0,0-.3-.8,1,1,0,0,0-.6-.5h-3.6v4h-1.7Zm1.7,4.5h2.9a1.7,1.7,0,0,0,1.2-.4,1.5,1.5,0,0,0,.5-1.2,2.4,2.4,0,0,0-.2-.8c0-.2-.2-.3-.3-.5l-.6-.2h-3.5Z" style="fill: #fff"/>
  <path d="M230.9,149.8h1.8v9.9h-1.8Z" style="fill: #fff"/>
  <path d="M243.4,159.7h-1.1l-.2-1.1-1.4,1.1a4.5,4.5,0,0,1-1.6.3,4.5,4.5,0,0,1-2-.4,4.7,4.7,0,0,1-2.5-2.8,6.9,6.9,0,0,1-.3-2,6.4,6.4,0,0,1,.3-2,4.7,4.7,0,0,1,2.5-2.8,4.5,4.5,0,0,1,2-.4l1.5.2,1.3.7a2.2,2.2,0,0,1,.9,1,3,3,0,0,1,.5,1.5h-1.7a1.6,1.6,0,0,0-.3-.9l-.5-.6-.8-.4h-.9a3.2,3.2,0,0,0-1.4.3,2,2,0,0,0-.9.9,3.4,3.4,0,0,0-.6,1.2,9.9,9.9,0,0,0,0,2.8,3.4,3.4,0,0,0,.6,1.2,2,2,0,0,0,.9.9,3.2,3.2,0,0,0,1.4.3l1.2-.2.8-.5a4.7,4.7,0,0,0,.6-.9,4.1,4.1,0,0,0,.1-1.1h-2.6v-1.4h4.2Z" style="fill: #fff"/>
  <path d="M245.3,149.8H247v9.9h-1.7Z" style="fill: #fff"/>
  <path d="M249.1,149.8H251l4.4,7.3h0v-7.3h1.7v9.9h-1.9l-4.4-7.3h0v7.3h-1.7Z" style="fill: #fff"/>
  <path d="M261.8,149.8h1.9l3.8,9.9h-1.9l-.9-2.6h-4l-.9,2.6H258Zm-.6,6h3.1l-1.5-4.3h0Z" style="fill: #fff"/>
  <path d="M268.4,149.8h1.8v8.4h5v1.5h-6.8Z" style="fill: #fff"/>
  <path d="M317.2,171.5a2.9,2.9,0,0,0,.3,1.4,3.6,3.6,0,0,0,.7,1l1.2.5,1.4.2,1.4-.2a1.9,1.9,0,0,0,.9-.5,1.8,1.8,0,0,0,.5-.7,1.9,1.9,0,0,0,.2-.8,1.6,1.6,0,0,0-.4-1.2l-.8-.5-1.7-.5-2.5-.7a5.2,5.2,0,0,1-1.5-.6,4.5,4.5,0,0,1-1-.9,3.1,3.1,0,0,1-.5-1,3.7,3.7,0,0,1-.1-1.1,3.4,3.4,0,0,1,.4-1.8,3,3,0,0,1,1.2-1.3,4.8,4.8,0,0,1,1.6-.8,6.5,6.5,0,0,1,1.9-.2l2.1.2a4.6,4.6,0,0,1,1.7.9,5.3,5.3,0,0,1,1.2,1.4,4.2,4.2,0,0,1,.5,2h-2.5a2.6,2.6,0,0,0-1-2,4.1,4.1,0,0,0-2.1-.5h-.9a1.3,1.3,0,0,0-.8.3,1.5,1.5,0,0,0-.6.5,1.6,1.6,0,0,0-.3.9,1.7,1.7,0,0,0,.5,1.2,3.5,3.5,0,0,0,1.2.7h.6l1.3.3,1.3.4.9.2,1.2.6a7.6,7.6,0,0,1,.9.9l.5,1a5.2,5.2,0,0,1,.2,1.1,4.6,4.6,0,0,1-.5,2.1,8.6,8.6,0,0,1-1.3,1.4,4.8,4.8,0,0,1-1.8.7l-2.1.3a9.1,9.1,0,0,1-2.3-.3,4.8,4.8,0,0,1-3.1-2.5,5.2,5.2,0,0,1-.5-2.3Z" style="fill: #fff"/>
  <g>
    <path d="M211,186.2a3.7,3.7,0,0,0,.2,1.2,2.3,2.3,0,0,0,.7.7,1.9,1.9,0,0,0,.9.4h1.9a1.1,1.1,0,0,0,.8-.3.9.9,0,0,0,.6-.6,1.1,1.1,0,0,0,.3-.8,1.4,1.4,0,0,0-.2-.7l-.5-.4a.9.9,0,0,0-.6-.3l-.6-.2-2-.5-.8-.3-.6-.4a1.5,1.5,0,0,1-.5-.6,2.2,2.2,0,0,1-.1-.9,2.5,2.5,0,0,1,.1-.8,1.8,1.8,0,0,1,.5-.8,2.2,2.2,0,0,1,.9-.7l1.6-.2h1.2a3.9,3.9,0,0,1,1.1.6,1.6,1.6,0,0,1,.7.9,2.1,2.1,0,0,1,.3,1.2H216a2,2,0,0,0-.2-.9,1.8,1.8,0,0,0-.5-.7l-.8-.4h-1.8l-.7.3a1,1,0,0,0-.5.6,1.9,1.9,0,0,0-.2.8,4.3,4.3,0,0,0,.1.5l.3.4.5.3.5.2,2.2.5.9.3a1.8,1.8,0,0,1,.7.5l.5.6a1.6,1.6,0,0,1,.2,1v.4c0,.2-.1.3-.2.5s-.2.4-.3.6l-.6.5-1,.4-1.3.2-1.5-.2a2.3,2.3,0,0,1-1.2-.6,2.6,2.6,0,0,1-.7-1,2.1,2.1,0,0,1-.2-1.4Z" style="fill: #fff"/>
    <path d="M218.6,180.2h5.1l.8.5a2.8,2.8,0,0,1,.6.9,3,3,0,0,1,.2,1,3.6,3.6,0,0,1-.2,1.1,2.4,2.4,0,0,1-.6.8,1.4,1.4,0,0,1-.8.5,2,2,0,0,1-1.1.2h-3.2v3.9h-.8Zm.8,4.4h3a2,2,0,0,0,1.4-.5,1.6,1.6,0,0,0,.6-1.4,1.8,1.8,0,0,0-.6-1.4,2,2,0,0,0-1.4-.4h-3Z" style="fill: #fff"/>
    <path d="M226.5,180.2h6.3v.7h-5.4v3.3h5v.7h-5v3.5h5.4v.8h-6.3Z" style="fill: #fff"/>
    <path d="M234,180.2h6.2v.7h-5.3v3.3h5v.7h-5v3.5h5.4v.8H234Z" style="fill: #fff"/>
    <path d="M241.5,180.2h3.1a4.2,4.2,0,0,1,3.1,1.1,5,5,0,0,1,1.1,3.4,4.5,4.5,0,0,1-1.1,3.3,4.2,4.2,0,0,1-3.1,1.2h-3.1Zm.9,8.2h1.8a4.7,4.7,0,0,0,1.7-.2,2.5,2.5,0,0,0,1.8-1.8,8.8,8.8,0,0,0,.2-1.7,9,9,0,0,0-.2-1.8,3,3,0,0,0-1.8-1.8l-1.7-.2h-1.8Z" style="fill: #fff"/>
  </g>
  <g>
    <rect width="368.5" height="226.77" style="fill: none;stroke: #fff;stroke-miterlimit: 10;stroke-width: 0.28346456692913385px"/>
    <line y1="198.4" x2="368.5" y2="198.4" style="fill: none;stroke: #fff;stroke-miterlimit: 10;stroke-width: 0.28346456692913385px"/>
    <line y1="170.1" x2="198.4" y2="170.1" style="fill: none;stroke: #fff;stroke-miterlimit: 10;stroke-width: 0.28346456692913385px"/>
    <line y1="141.7" x2="368.5" y2="141.7" style="fill: none;stroke: #fff;stroke-miterlimit: 10;stroke-width: 0.28346456692913385px"/>
    <line y1="113.4" x2="368.5" y2="113.4" style="fill: none;stroke: #fff;stroke-miterlimit: 10;stroke-width: 0.28346456692913385px"/>
    <line y1="85" x2="368.5" y2="85" style="fill: none;stroke: #fff;stroke-miterlimit: 10;stroke-width: 0.28346456692913385px"/>
    <line y1="56.7" x2="368.5" y2="56.7" style="fill: none;stroke: #fff;stroke-miterlimit: 10;stroke-width: 0.28346456692913385px"/>
    <line y1="28.3" x2="368.5" y2="28.3" style="fill: none;stroke: #fff;stroke-miterlimit: 10;stroke-width: 0.28346456692913385px"/>
    <line x1="340.2" x2="340.2" y2="226.8" style="fill: none;stroke: #fff;stroke-miterlimit: 10;stroke-width: 0.28346456692913385px"/>
    <line x1="311.8" x2="311.8" y2="141.7" style="fill: none;stroke: #fff;stroke-miterlimit: 10;stroke-width: 0.28346456692913385px"/>
    <line x1="283.5" x2="283.5" y2="141.7" style="fill: none;stroke: #fff;stroke-miterlimit: 10;stroke-width: 0.28346456692913385px"/>
    <line x1="311.8" y1="198.4" x2="311.8" y2="340.2" style="fill: none;stroke: #fff;stroke-miterlimit: 10;stroke-width: 0.28346456692913385px"/>
    <line x1="283.5" y1="198.4" x2="283.5" y2="340.2" style="fill: none;stroke: #fff;stroke-miterlimit: 10;stroke-width: 0.28346456692913385px"/>
    <line x1="255.1" x2="255.1" y2="141.7" style="fill: none;stroke: #fff;stroke-miterlimit: 10;stroke-width: 0.28346456692913385px"/>
    <line x1="255.1" y1="198.4" x2="255.1" y2="340.2" style="fill: none;stroke: #fff;stroke-miterlimit: 10;stroke-width: 0.28346456692913385px"/>
    <line x1="226.8" x2="226.8" y2="141.7" style="fill: none;stroke: #fff;stroke-miterlimit: 10;stroke-width: 0.28346456692913385px"/>
    <line x1="226.8" y1="198.4" x2="226.8" y2="340.2" style="fill: none;stroke: #fff;stroke-miterlimit: 10;stroke-width: 0.28346456692913385px"/>
    <line x1="198.4" x2="198.4" y2="226.8" style="fill: none;stroke: #fff;stroke-miterlimit: 10;stroke-width: 0.28346456692913385px"/>
    <line x1="170.1" x2="170.1" y2="226.8" style="fill: none;stroke: #fff;stroke-miterlimit: 10;stroke-width: 0.28346456692913385px"/>
    <line x1="141.7" x2="141.7" y2="226.8" style="fill: none;stroke: #fff;stroke-miterlimit: 10;stroke-width: 0.28346456692913385px"/>
    <line x1="113.4" x2="113.4" y2="226.8" style="fill: none;stroke: #fff;stroke-miterlimit: 10;stroke-width: 0.28346456692913385px"/>
    <line x1="85" x2="85" y2="226.8" style="fill: none;stroke: #fff;stroke-miterlimit: 10;stroke-width: 0.28346456692913385px"/>
    <line x1="56.7" x2="56.7" y2="226.8" style="fill: none;stroke: #fff;stroke-miterlimit: 10;stroke-width: 0.28346456692913385px"/>
    <line x1="28.3" x2="28.3" y2="226.8" style="fill: none;stroke: #fff;stroke-miterlimit: 10;stroke-width: 0.28346456692913385px"/>
    <line x1="340.2" y1="170.1" x2="538.6" y2="170.1" style="fill: none;stroke: #fff;stroke-miterlimit: 10;stroke-width: 0.28346456692913385px"/>
  </g>
</svg>
