<svg xmlns="http://www.w3.org/2000/svg" width="127mm" height="80mm" viewBox="0 0 360 226.8">
  <rect width="360" height="226.77" style="fill: none;stroke: #fff;stroke-miterlimit: 10;stroke-width: 1.41732283464567px"/>
  <polyline points="283.5 206.2 283.5 283.5 0 283.5 0 0 283.5 0 283.5 154.6" style="fill: none;stroke: #fff;stroke-miterlimit: 10;stroke-width: 0.283464566929134px"/>
  <line y1="206.2" x2="283.5" y2="206.2" style="fill: none;stroke: #fff;stroke-miterlimit: 10;stroke-width: 0.283464566929134px"/>
  <line y1="180.4" x2="206.2" y2="180.4" style="fill: none;stroke: #fff;stroke-miterlimit: 10;stroke-width: 0.283464566929134px"/>
  <line x1="335" y1="181.6" x2="541.2" y2="181.6" style="fill: none;stroke: #fff;stroke-miterlimit: 10;stroke-width: 0.283464566929134px"/>
  <line y1="154.6" x2="283.5" y2="154.6" style="fill: none;stroke: #fff;stroke-miterlimit: 10;stroke-width: 0.283464566929134px"/>
  <line y1="128.8" x2="283.5" y2="128.8" style="fill: none;stroke: #fff;stroke-miterlimit: 10;stroke-width: 0.283464566929134px"/>
  <line y1="103.1" x2="283.5" y2="103.1" style="fill: none;stroke: #fff;stroke-miterlimit: 10;stroke-width: 0.283464566929134px"/>
  <line y1="77.3" x2="283.5" y2="77.3" style="fill: none;stroke: #fff;stroke-miterlimit: 10;stroke-width: 0.283464566929134px"/>
  <line y1="51.5" x2="283.5" y2="51.5" style="fill: none;stroke: #fff;stroke-miterlimit: 10;stroke-width: 0.283464566929134px"/>
  <line y1="25.8" x2="283.5" y2="25.8" style="fill: none;stroke: #fff;stroke-miterlimit: 10;stroke-width: 0.283464566929134px"/>
  <line x1="257.7" y1="206.2" x2="257.7" y2="283.5" style="fill: none;stroke: #fff;stroke-miterlimit: 10;stroke-width: 0.283464566929134px"/>
  <line x1="257.7" x2="257.7" y2="154.6" style="fill: none;stroke: #fff;stroke-miterlimit: 10;stroke-width: 0.283464566929134px"/>
  <line x1="231.9" y1="206.2" x2="231.9" y2="283.5" style="fill: none;stroke: #fff;stroke-miterlimit: 10;stroke-width: 0.283464566929134px"/>
  <line x1="231.9" x2="231.9" y2="154.6" style="fill: none;stroke: #fff;stroke-miterlimit: 10;stroke-width: 0.283464566929134px"/>
  <line x1="206.2" y1="206.2" x2="206.2" y2="231.9" style="fill: none;stroke: #fff;stroke-miterlimit: 10;stroke-width: 0.283464566929134px"/>
  <line x1="206.2" y1="180.4" x2="206.2" y2="206.2" style="fill: none;stroke: #fff;stroke-miterlimit: 10;stroke-width: 0.283464566929134px"/>
  <line x1="206.2" x2="206.2" y2="180.4" style="fill: none;stroke: #fff;stroke-miterlimit: 10;stroke-width: 0.283464566929134px"/>
  <line x1="180.4" y1="206.2" x2="180.4" y2="231.9" style="fill: none;stroke: #fff;stroke-miterlimit: 10;stroke-width: 0.283464566929134px"/>
  <line x1="180.4" x2="180.4" y2="206.2" style="fill: none;stroke: #fff;stroke-miterlimit: 10;stroke-width: 0.283464566929134px"/>
  <line x1="154.6" x2="154.6" y2="283.5" style="fill: none;stroke: #fff;stroke-miterlimit: 10;stroke-width: 0.283464566929134px"/>
  <line x1="128.8" x2="128.8" y2="283.5" style="fill: none;stroke: #fff;stroke-miterlimit: 10;stroke-width: 0.283464566929134px"/>
  <line x1="103.1" x2="103.1" y2="283.5" style="fill: none;stroke: #fff;stroke-miterlimit: 10;stroke-width: 0.283464566929134px"/>
  <line x1="77.3" x2="77.3" y2="283.5" style="fill: none;stroke: #fff;stroke-miterlimit: 10;stroke-width: 0.283464566929134px"/>
  <line x1="51.5" x2="51.5" y2="283.5" style="fill: none;stroke: #fff;stroke-miterlimit: 10;stroke-width: 0.283464566929134px"/>
  <line x1="25.8" x2="25.8" y2="283.5" style="fill: none;stroke: #fff;stroke-miterlimit: 10;stroke-width: 0.283464566929134px"/>
  <polyline points="283.5 154.6 283.5 0 566.9 0 566.9 283.5 283.5 283.5 283.5 206.2" style="fill: none;stroke: #fff;stroke-miterlimit: 10;stroke-width: 0.283464566929134px"/>
  <line x1="283.5" y1="206.2" x2="566.9" y2="206.2" style="fill: none;stroke: #fff;stroke-miterlimit: 10;stroke-width: 0.283464566929134px"/>
  <line x1="283.5" y1="154.6" x2="566.9" y2="154.6" style="fill: none;stroke: #fff;stroke-miterlimit: 10;stroke-width: 0.283464566929134px"/>
  <line x1="283.5" y1="128.8" x2="566.9" y2="128.8" style="fill: none;stroke: #fff;stroke-miterlimit: 10;stroke-width: 0.283464566929134px"/>
  <line x1="283.5" y1="103.1" x2="566.9" y2="103.1" style="fill: none;stroke: #fff;stroke-miterlimit: 10;stroke-width: 0.283464566929134px"/>
  <line x1="283.5" y1="77.3" x2="566.9" y2="77.3" style="fill: none;stroke: #fff;stroke-miterlimit: 10;stroke-width: 0.283464566929134px"/>
  <line x1="283.5" y1="51.5" x2="566.9" y2="51.5" style="fill: none;stroke: #fff;stroke-miterlimit: 10;stroke-width: 0.283464566929134px"/>
  <line x1="283.5" y1="25.8" x2="566.9" y2="25.8" style="fill: none;stroke: #fff;stroke-miterlimit: 10;stroke-width: 0.283464566929134px"/>
  <line x1="335" y1="180.4" x2="335" y2="283.5" style="fill: none;stroke: #fff;stroke-miterlimit: 10;stroke-width: 0.283464566929134px"/>
  <line x1="335" x2="335" y2="180.4" style="fill: none;stroke: #fff;stroke-miterlimit: 10;stroke-width: 0.283464566929134px"/>
  <line x1="309.2" y1="206.2" x2="309.2" y2="283.5" style="fill: none;stroke: #fff;stroke-miterlimit: 10;stroke-width: 0.283464566929134px"/>
  <line x1="309.2" x2="309.2" y2="154.6" style="fill: none;stroke: #fff;stroke-miterlimit: 10;stroke-width: 0.283464566929134px"/>
  <path d="M212.8,173.1h6.3a5.1,5.1,0,0,1,2.4.4,4.2,4.2,0,0,1,1.5,1.1,6.1,6.1,0,0,1,.7,1.4,7.7,7.7,0,0,1,.2,1.5,6.8,6.8,0,0,1-.2,1.4,6.1,6.1,0,0,1-.7,1.4,3.3,3.3,0,0,1-1.5,1.1,5.1,5.1,0,0,1-2.4.4h-3.8v5.4h-2.5Zm2.5,6.7h3.6l.8-.2a1.9,1.9,0,0,0,.8-.3,1.6,1.6,0,0,0,.6-.8,1.4,1.4,0,0,0,.2-1.1,1.5,1.5,0,0,0-.2-1.1,1.2,1.2,0,0,0-.5-.7l-.8-.4h-4.5Z" style="fill: #fff"/>
  <path d="M226,173.1h6.7a5,5,0,0,1,3.5,1,3.3,3.3,0,0,1,1.1,2.8,5.1,5.1,0,0,1-.3,1.7l-.7,1.1-.8.5-.5.3h0l.6.2a1.8,1.8,0,0,1,.7.5c.3.2.4.6.6.9a5.9,5.9,0,0,1,.2,1.4,16.2,16.2,0,0,0,.1,2.2,3.5,3.5,0,0,0,.6,1.4h-2.6a1.7,1.7,0,0,1-.3-1V185a8.8,8.8,0,0,0-.2-1.6,2.8,2.8,0,0,0-.4-1.2,1.5,1.5,0,0,0-.9-.6,3.2,3.2,0,0,0-1.4-.3h-3.6v5.9H226Zm2.5,6.4h4a2.8,2.8,0,0,0,1.8-.6,1.8,1.8,0,0,0,.6-1.7,1.5,1.5,0,0,0-.2-1.1,1.5,1.5,0,0,0-.5-.6l-.8-.4h-4.9Z" style="fill: #fff"/>
  <path d="M239.8,173.1h2.5v9.6a5,5,0,0,0,.4,1.3,2.4,2.4,0,0,0,1,1,4.1,4.1,0,0,0,1.9.4,4.3,4.3,0,0,0,1.9-.4,2.2,2.2,0,0,0,.9-1,2,2,0,0,0,.4-1.3,6.6,6.6,0,0,0,.1-1.4v-8.2h2.5v9a6.7,6.7,0,0,1-.4,2.4,6.6,6.6,0,0,1-1.2,1.7,6.4,6.4,0,0,1-1.8,1,9.8,9.8,0,0,1-4.8,0,5.2,5.2,0,0,1-1.8-1,4.5,4.5,0,0,1-1.1-1.7,5.1,5.1,0,0,1-.4-2.4Z" style="fill: #fff"/>
  <path d="M255.8,182.5a3.9,3.9,0,0,0,.3,1.4,2.8,2.8,0,0,0,.7.9l1.2.5,1.4.2,1.3-.2,1-.5a1.8,1.8,0,0,0,.5-.7,1.7,1.7,0,0,0,.1-.7,1.7,1.7,0,0,0-1.1-1.8l-1.8-.5-2.4-.6-1.6-.7-.9-.8a4.7,4.7,0,0,1-.5-1,5.2,5.2,0,0,1-.2-1.1,4.1,4.1,0,0,1,.5-1.9,4.9,4.9,0,0,1,1.2-1.3,4.6,4.6,0,0,1,1.6-.7,6.3,6.3,0,0,1,1.9-.3l2.1.3a5.6,5.6,0,0,1,1.7.9,4.2,4.2,0,0,1,1.6,3.3h-2.5a2.3,2.3,0,0,0-.9-1.9,3.9,3.9,0,0,0-2.1-.6H258l-.8.3a.9.9,0,0,0-.6.6,1.6,1.6,0,0,0,.1,2l1.3.7h.6l1.2.4,1.3.3.9.2,1.2.6a3.8,3.8,0,0,1,.9.9l.5,1a5,5,0,0,1,.2,1.2,4.6,4.6,0,0,1-.5,2,4,4,0,0,1-1.3,1.3,3.7,3.7,0,0,1-1.8.8,6.4,6.4,0,0,1-2,.3,9.1,9.1,0,0,1-2.3-.3,6.1,6.1,0,0,1-1.8-.9,4,4,0,0,1-1.3-1.6,5.9,5.9,0,0,1-.5-2.2Z" style="fill: #fff"/>
  <path d="M270.7,173.1h2.7l5.4,14.1h-2.6l-1.4-3.8h-5.6l-1.3,3.8h-2.6Zm-.8,8.5h4.3l-2.1-6.1H272Z" style="fill: #fff"/>
  <path d="M287.3,182.5a2.4,2.4,0,0,0,.2,1.4,3.4,3.4,0,0,0,.8.9l1.1.5,1.4.2,1.4-.2.9-.5a1.8,1.8,0,0,0,.5-.7,1.9,1.9,0,0,0,.2-.7,1.7,1.7,0,0,0-1.1-1.8l-1.8-.5-2.4-.6a6.9,6.9,0,0,1-1.5-.7,3.9,3.9,0,0,1-1-.8l-.5-1a4.5,4.5,0,0,1-.1-1.1,4.1,4.1,0,0,1,.4-1.9,4.9,4.9,0,0,1,1.2-1.3,5.6,5.6,0,0,1,1.6-.7l1.9-.3,2.1.3a5.6,5.6,0,0,1,1.7.9,3.3,3.3,0,0,1,1.2,1.4,3.1,3.1,0,0,1,.4,1.9h-2.4a2.6,2.6,0,0,0-1-1.9,3.7,3.7,0,0,0-2.1-.6h-.9l-.8.3a1.2,1.2,0,0,0-.6.6,1.4,1.4,0,0,0-.3.9,1.6,1.6,0,0,0,.5,1.1,2.7,2.7,0,0,0,1.2.6l.6.2,1.2.3,1.4.4.9.2,1.2.6a2.4,2.4,0,0,1,.8.9,3.3,3.3,0,0,1,.6,1,4.1,4.1,0,0,1,.1,1.1,2.9,2.9,0,0,1-.5,2,3.3,3.3,0,0,1-1.2,1.4,7.1,7.1,0,0,1-1.8.8,7.5,7.5,0,0,1-2.1.2l-2.2-.2a5,5,0,0,1-1.9-1,4.4,4.4,0,0,1-1.2-1.5,4.6,4.6,0,0,1-.5-2.3Z" style="fill: #fff"/>
  <path d="M298.4,173.1h2.5V185h7.2v2.2h-9.7Z" style="fill: #fff"/>
  <path d="M309.3,175.6h1.4a2.8,2.8,0,0,0,1.2-.4,1.6,1.6,0,0,0,.9-.7,2.7,2.7,0,0,0,.6-1h1.8v13.8h-2.5v-9.8h-3.4Z" style="fill: #fff"/>
  <path d="M217.2,160.5a4.7,4.7,0,0,1,3.5,1.5,5.6,5.6,0,0,1,.9,1.7,4.5,4.5,0,0,1,.4,2,4.8,4.8,0,0,1-.4,2,5.6,5.6,0,0,1-.9,1.7,5.8,5.8,0,0,1-1.5,1.1,5.2,5.2,0,0,1-4,0,5.8,5.8,0,0,1-1.5-1.1,5.6,5.6,0,0,1-.9-1.7,6.9,6.9,0,0,1-.3-2,6.4,6.4,0,0,1,.3-2,5.6,5.6,0,0,1,.9-1.7,4.7,4.7,0,0,1,3.5-1.5Zm0,1.4a3.5,3.5,0,0,0-1.4.3,2.6,2.6,0,0,0-.9.9,6.1,6.1,0,0,0-.5,1.2,6.8,6.8,0,0,0-.2,1.4,7.8,7.8,0,0,0,.2,1.4,6.1,6.1,0,0,0,.5,1.2,3.4,3.4,0,0,0,.9.8,2.5,2.5,0,0,0,1.4.4,2.3,2.3,0,0,0,1.4-.4,2.4,2.4,0,0,0,.9-.8,6.7,6.7,0,0,0,.6-1.2,7.1,7.1,0,0,0,.1-1.4,6.6,6.6,0,0,0-.1-1.4,4.5,4.5,0,0,0-.6-1.2,2,2,0,0,0-.9-.9A3.2,3.2,0,0,0,217.2,161.9Z" style="fill: #fff"/>
  <path d="M223.5,160.7h4.8a4,4,0,0,1,2.4.7,2.7,2.7,0,0,1,.9,2,5.2,5.2,0,0,1-.7,1.9l-.6.4h-.4l.5.2.5.3a4.5,4.5,0,0,1,.5,1.6,8.1,8.1,0,0,0,.1,1.6,3.6,3.6,0,0,0,.4,1.1h-1.8a2.6,2.6,0,0,1-.3-.8v-1.9l-.3-.8-.6-.5h-3.7v4.1h-1.7Zm1.8,4.5h2.8a2,2,0,0,0,1.3-.4,1.4,1.4,0,0,0,.4-1.2,2.2,2.2,0,0,0-.1-.8.8.8,0,0,0-.4-.4c-.2-.2-.4-.2-.6-.3h-3.4Z" style="fill: #fff"/>
  <path d="M233.4,160.7h1.7v9.9h-1.7Z" style="fill: #fff"/>
  <path d="M245.8,170.6h-1.1l-.2-1.1-1.4,1.1a4.1,4.1,0,0,1-1.6.3,4.5,4.5,0,0,1-2-.4,4.2,4.2,0,0,1-1.5-1.1,5.6,5.6,0,0,1-.9-1.7,6.4,6.4,0,0,1-.3-2,6.9,6.9,0,0,1,.3-2,5.6,5.6,0,0,1,.9-1.7,8.3,8.3,0,0,1,1.5-1.1,4.5,4.5,0,0,1,2-.4l1.6.2a4.7,4.7,0,0,1,1.2.7,3.2,3.2,0,0,1,1,1,8.8,8.8,0,0,1,.5,1.5h-1.7l-.3-.8-.6-.7a1.9,1.9,0,0,0-.8-.3l-.9-.2a2.5,2.5,0,0,0-1.4.4,3.4,3.4,0,0,0-.9.8,6.1,6.1,0,0,0-.5,1.2,6.8,6.8,0,0,0-.2,1.4,5.9,5.9,0,0,0,.2,1.4,4.3,4.3,0,0,0,.5,1.2,2.6,2.6,0,0,0,.9.9,3.5,3.5,0,0,0,1.4.3,2.5,2.5,0,0,0,1.2-.2l.9-.5a4.1,4.1,0,0,0,.5-.9,4.3,4.3,0,0,0,.2-1.1h-2.7v-1.3h4.3Z" style="fill: #fff"/>
  <path d="M247.7,160.7h1.8v9.9h-1.8Z" style="fill: #fff"/>
  <path d="M251.5,160.7h1.9l4.5,7.3h0v-7.3h1.6v9.9h-1.8l-4.5-7.2h0v7.2h-1.7Z" style="fill: #fff"/>
  <path d="M264.3,160.7h1.8l3.8,9.9h-1.8l-.9-2.6h-4l-.9,2.6h-1.8Zm-.6,6h3l-1.5-4.3h0Z" style="fill: #fff"/>
  <path d="M270.9,160.7h1.7v8.4h5.1v1.5h-6.8Z" style="fill: #fff"/>
  <path d="M319.6,182.5a2.5,2.5,0,0,0,.3,1.3,3.9,3.9,0,0,0,.8,1l1.1.5,1.4.2,1.4-.2a1.9,1.9,0,0,0,.9-.5,1.3,1.3,0,0,0,.6-.7,1.9,1.9,0,0,0,.1-.8,2.1,2.1,0,0,0-.3-1.2l-.8-.5-1.8-.5-2.5-.7a3.4,3.4,0,0,1-1.5-.6,2.6,2.6,0,0,1-.9-.9,2.1,2.1,0,0,1-.6-1,3.7,3.7,0,0,1-.1-1.1,3.4,3.4,0,0,1,.4-1.8,3.7,3.7,0,0,1,1.2-1.3,5.3,5.3,0,0,1,1.7-.8l1.9-.2a7.6,7.6,0,0,1,2.1.3,4.4,4.4,0,0,1,2.9,2.2,4.5,4.5,0,0,1,.4,2h-2.5a2.2,2.2,0,0,0-.9-1.9,3.7,3.7,0,0,0-2.1-.6h-.9l-.9.3-.6.6a1.9,1.9,0,0,0-.2.8,1.6,1.6,0,0,0,.4,1.2l1.3.7h.6l1.2.4,1.3.3.9.3a3.1,3.1,0,0,1,1.3.6,3,3,0,0,1,.8.8,3.7,3.7,0,0,1,.5,1.1,3.6,3.6,0,0,1,.2,1.1,4.2,4.2,0,0,1-.5,2,3.5,3.5,0,0,1-1.3,1.4,7.5,7.5,0,0,1-1.8.8l-2,.2a8.5,8.5,0,0,1-2.3-.3,6.6,6.6,0,0,1-1.9-.9,5.1,5.1,0,0,1-1.7-3.8Z" style="fill: #fff"/>
  <g>
    <path d="M213.5,197.1a2.2,2.2,0,0,0,.2,1.2,1.1,1.1,0,0,0,.6.7,1.8,1.8,0,0,0,1,.4l1.1.2h.8l.8-.4.6-.5a2.4,2.4,0,0,0,.2-.9,1.4,1.4,0,0,0-.2-.6,1,1,0,0,0-.4-.5l-.6-.3-.7-.2-2-.5-.7-.3-.7-.4a.9.9,0,0,1-.4-.6,2,2,0,0,1-.2-.9,2,2,0,0,1,.1-.7,4.1,4.1,0,0,1,.5-.9,2.4,2.4,0,0,1,1-.6,3.3,3.3,0,0,1,1.5-.3,2.7,2.7,0,0,1,1.3.2l1.1.5a2.4,2.4,0,0,1,.9,2.1h-.8a2,2,0,0,0-.2-.9l-.6-.7a1.9,1.9,0,0,0-.8-.3l-.9-.2h-.8l-.7.3a1,1,0,0,0-.5.6,1.1,1.1,0,0,0-.2.8,1.3,1.3,0,0,0,.1.6.5.5,0,0,0,.3.4l.4.2.5.2,2.2.5.9.3.8.5a1.8,1.8,0,0,1,.5.7,2,2,0,0,1,.2.9c0,.1-.1.2-.1.4a1.3,1.3,0,0,1-.1.6l-.4.5a1.7,1.7,0,0,1-.6.6l-.9.3-1.4.2-1.5-.2a2.4,2.4,0,0,1-1.1-.6,2.7,2.7,0,0,1-.8-1,5.2,5.2,0,0,1-.2-1.4Z" style="fill: #fff"/>
    <path d="M221,191.1h4a2,2,0,0,1,1.1.2,1.6,1.6,0,0,1,.9.5,2.2,2.2,0,0,1,.5.8,3.6,3.6,0,0,1,.2,1.1,3,3,0,0,1-.2,1,2.6,2.6,0,0,1-.5.9l-.9.5h-4.2v3.9H221Zm.9,4.4h2.9a2.5,2.5,0,0,0,1.5-.5,1.4,1.4,0,0,0,.5-1.3c0-.7-.1-1.1-.5-1.4a2.5,2.5,0,0,0-1.5-.5h-2.9Z" style="fill: #fff"/>
    <path d="M229,191.1h6.2v.7h-5.4v3.3h5.1v.7h-5.1v3.6h5.5v.7H229Z" style="fill: #fff"/>
    <path d="M236.5,191.1h6.2v.7h-5.4v3.3h5v.7h-5v3.6h5.5v.7h-6.3Z" style="fill: #fff"/>
    <path d="M244,191.1h3.1a4.3,4.3,0,0,1,3.1,1.1,4.9,4.9,0,0,1,1,3.4,4.5,4.5,0,0,1-1,3.3,4,4,0,0,1-3.1,1.2H244Zm.8,8.3h1.8l1.7-.2a3.5,3.5,0,0,0,1.2-.7,2.3,2.3,0,0,0,.6-1.2,4.3,4.3,0,0,0,.3-1.7,4,4,0,0,0-.3-1.7,2.3,2.3,0,0,0-.6-1.2,3.5,3.5,0,0,0-1.2-.7l-1.7-.2h-1.8Z" style="fill: #fff"/>
  </g>
</svg>
