<svg xmlns="http://www.w3.org/2000/svg" width="3200" height="3200" viewBox="0 0 3200 3200"><rect width="3200" height="3200" style="fill:#424444"/><line y2="3200" style="fill:none;stroke:#696c6a;stroke-miterlimit:10;stroke-width:2px"/><line x1="100" x2="100" y2="3200" style="fill:none;stroke:#696c6a;stroke-miterlimit:10;stroke-width:2px"/><line x1="200" x2="200" y2="3200" style="fill:none;stroke:#696c6a;stroke-miterlimit:10"/><line x1="300" x2="300" y2="3200" style="fill:none;stroke:#696c6a;stroke-miterlimit:10"/><line x1="400" x2="400" y2="3200" style="fill:none;stroke:#696c6a;stroke-miterlimit:10"/><line x1="500" x2="500" y2="3200" style="fill:none;stroke:#696c6a;stroke-miterlimit:10"/><line x1="600" x2="600" y2="3200" style="fill:none;stroke:#696c6a;stroke-miterlimit:10;stroke-width:2px"/><line x1="700" x2="700" y2="3200" style="fill:none;stroke:#696c6a;stroke-miterlimit:10"/><line x1="800" x2="800" y2="3200" style="fill:none;stroke:#696c6a;stroke-miterlimit:10"/><line x1="900" x2="900" y2="3200" style="fill:none;stroke:#696c6a;stroke-miterlimit:10"/><line x1="1000" x2="1000" y2="3200" style="fill:none;stroke:#696c6a;stroke-miterlimit:10"/><line x1="1100" x2="1100" y2="3200" style="fill:none;stroke:#696c6a;stroke-miterlimit:10;stroke-width:2px"/><line x1="1200" x2="1200" y2="3200" style="fill:none;stroke:#696c6a;stroke-miterlimit:10"/><line x1="1300" x2="1300" y2="3200" style="fill:none;stroke:#696c6a;stroke-miterlimit:10"/><line x1="1400" x2="1400" y2="3200" style="fill:none;stroke:#696c6a;stroke-miterlimit:10"/><line x1="1500" x2="1500" y2="3200" style="fill:none;stroke:#696c6a;stroke-miterlimit:10"/><line x1="1600" x2="1600" y2="3200" style="fill:none;stroke:#696c6a;stroke-miterlimit:10;stroke-width:2px"/><line x1="1700" x2="1700" y2="3200" style="fill:none;stroke:#696c6a;stroke-miterlimit:10"/><line x1="1800" x2="1800" y2="3200" style="fill:none;stroke:#696c6a;stroke-miterlimit:10"/><line x1="1900" x2="1900" y2="3200" style="fill:none;stroke:#696c6a;stroke-miterlimit:10"/><line x1="2000" x2="2000" y2="3200" style="fill:none;stroke:#696c6a;stroke-miterlimit:10"/><line x1="2100" x2="2100" y2="3200" style="fill:none;stroke:#696c6a;stroke-miterlimit:10;stroke-width:2px"/><line x1="2200" x2="2200" y2="3200" style="fill:none;stroke:#696c6a;stroke-miterlimit:10"/><line x1="2300" x2="2300" y2="3200" style="fill:none;stroke:#696c6a;stroke-miterlimit:10"/><line x1="2400" x2="2400" y2="3200" style="fill:none;stroke:#696c6a;stroke-miterlimit:10"/><line x1="2500" x2="2500" y2="3200" style="fill:none;stroke:#696c6a;stroke-miterlimit:10"/><line x1="2600" x2="2600" y2="3200" style="fill:none;stroke:#696c6a;stroke-miterlimit:10;stroke-width:2px"/><line x1="2700" x2="2700" y2="3200" style="fill:none;stroke:#696c6a;stroke-miterlimit:10"/><line x1="2800" x2="2800" y2="3200" style="fill:none;stroke:#696c6a;stroke-miterlimit:10"/><line x1="2900" x2="2900" y2="3200" style="fill:none;stroke:#696c6a;stroke-miterlimit:10"/><line x1="2999.999" x2="2999.999" y2="3200" style="fill:none;stroke:#696c6a;stroke-miterlimit:10"/><line x1="3099.999" x2="3099.999" y2="3200" style="fill:none;stroke:#696c6a;stroke-miterlimit:10;stroke-width:2px"/><line x1="3199.999" x2="3199.999" y2="3200" style="fill:none;stroke:#696c6a;stroke-miterlimit:10;stroke-width:2px"/><line x1="3200" y1="0.001" style="fill:none;stroke:#696c6a;stroke-miterlimit:10;stroke-width:2px"/><line x1="3200" y1="100.001" y2="100" style="fill:none;stroke:#696c6a;stroke-miterlimit:10;stroke-width:2px"/><line x1="3200" y1="200.001" y2="200" style="fill:none;stroke:#696c6a;stroke-miterlimit:10"/><line x1="3200" y1="300.001" y2="300" style="fill:none;stroke:#696c6a;stroke-miterlimit:10"/><line x1="3200" y1="400.001" y2="400" style="fill:none;stroke:#696c6a;stroke-miterlimit:10"/><line x1="3200" y1="500.001" y2="500" style="fill:none;stroke:#696c6a;stroke-miterlimit:10"/><line x1="3200" y1="600.001" y2="600" style="fill:none;stroke:#696c6a;stroke-miterlimit:10;stroke-width:2px"/><line x1="3200" y1="700.001" y2="700" style="fill:none;stroke:#696c6a;stroke-miterlimit:10"/><line x1="3200" y1="800.001" y2="800" style="fill:none;stroke:#696c6a;stroke-miterlimit:10"/><line x1="3200" y1="900.001" y2="900" style="fill:none;stroke:#696c6a;stroke-miterlimit:10"/><line x1="3200" y1="1000.001" y2="1000" style="fill:none;stroke:#696c6a;stroke-miterlimit:10"/><line x1="3200" y1="1100.001" y2="1100" style="fill:none;stroke:#696c6a;stroke-miterlimit:10;stroke-width:2px"/><line x1="3200" y1="1200.001" y2="1200" style="fill:none;stroke:#696c6a;stroke-miterlimit:10"/><line x1="3200" y1="1300.001" y2="1299.999" style="fill:none;stroke:#696c6a;stroke-miterlimit:10"/><line x1="3200" y1="1400.001" y2="1399.999" style="fill:none;stroke:#696c6a;stroke-miterlimit:10"/><line x1="3200" y1="1500.001" y2="1499.999" style="fill:none;stroke:#696c6a;stroke-miterlimit:10"/><line x1="3200" y1="1600" y2="1599.999" style="fill:none;stroke:#696c6a;stroke-miterlimit:10;stroke-width:2px"/><line x1="3200" y1="1700" y2="1699.999" style="fill:none;stroke:#696c6a;stroke-miterlimit:10"/><line x1="3200" y1="1800" y2="1799.999" style="fill:none;stroke:#696c6a;stroke-miterlimit:10"/><line x1="3200" y1="1900" y2="1899.999" style="fill:none;stroke:#696c6a;stroke-miterlimit:10"/><line x1="3200" y1="2000" y2="1999.999" style="fill:none;stroke:#696c6a;stroke-miterlimit:10"/><line x1="3200" y1="2100" y2="2099.999" style="fill:none;stroke:#696c6a;stroke-miterlimit:10;stroke-width:2px"/><line x1="3200" y1="2200" y2="2199.999" style="fill:none;stroke:#696c6a;stroke-miterlimit:10"/><line x1="3200" y1="2300" y2="2299.999" style="fill:none;stroke:#696c6a;stroke-miterlimit:10"/><line x1="3199.999" y1="2400" x2="-0.001" y2="2399.999" style="fill:none;stroke:#696c6a;stroke-miterlimit:10"/><line x1="3199.999" y1="2500" x2="-0.001" y2="2499.999" style="fill:none;stroke:#696c6a;stroke-miterlimit:10"/><line x1="3199.999" y1="2600" x2="-0.001" y2="2599.999" style="fill:none;stroke:#696c6a;stroke-miterlimit:10;stroke-width:2px"/><line x1="3199.999" y1="2700" x2="-0.001" y2="2699.999" style="fill:none;stroke:#696c6a;stroke-miterlimit:10"/><line x1="3199.999" y1="2800" x2="-0.001" y2="2799.999" style="fill:none;stroke:#696c6a;stroke-miterlimit:10"/><line x1="3199.999" y1="2900" x2="-0.001" y2="2899.999" style="fill:none;stroke:#696c6a;stroke-miterlimit:10"/><line x1="3199.999" y1="3000" x2="-0.001" y2="2999.999" style="fill:none;stroke:#696c6a;stroke-miterlimit:10"/><line x1="3199.999" y1="3100" x2="-0.001" y2="3099.999" style="fill:none;stroke:#696c6a;stroke-miterlimit:10;stroke-width:2px"/><line x1="3199.999" y1="3200" x2="-0.001" y2="3199.999" style="fill:none;stroke:#696c6a;stroke-miterlimit:10;stroke-width:2px"/><circle cx="1600" cy="1600" r="1000" style="fill:none;stroke:#696c6a;stroke-miterlimit:10;stroke-width:2px"/><path d="M1514.292,3143.613v-33.5c1.2,0,80.683,0,120.216,0,7.279,0,9.125-3.118,9.165-8.817,0-4.587-1.306-7.958-8.65-7.958l-78.549-.041c-22.863-.047-40.367-18.027-39.822-40.787.478-19.932,16.884-37.6,36.913-38.016,29.864-.62,59.75-.161,89.864-.161v32.918c-1.163,0-58.514-.035-84.662.073-3.382,0-5.362,2.483-5.362,6.348a6,6,0,0,0,6.127,6.076c26.043-.084,52.087-.055,78.131-.047,24.044.008,40.638,16.866,40.96,40.944.2,15.085-4.708,27.4-17.216,36.225a35.994,35.994,0,0,1-20.986,6.8C1599.02,3143.747,1515.526,3143.613,1514.292,3143.613Zm-131.075-97.105v-32.072H1247.194v129.045h37.882v-49.61h62.563v-34.885h-62.514v-12.478Zm303.429-32.1c0,31.622-.152,64.674.069,96.295.125,17.943,15.428,32.868,33.513,32.975,24.687.147,49.379.265,74.064-.051,13.7-.176,23.775-6.911,30.167-19.075,3.408-6.487,3.449-15.176,3.449-23.146,0,0-30.009-22.98-31.05-23.654,0,5.208.008,9.964,0,14.72-.018,8.889-4.993,13.9-13.839,13.9q-25.207.015-50.415,0c-9.3,0-14.2-4.887-14.206-14.161-.006-24.779,0-76.559,0-77.808ZM1502.779,3143.5v-33.425h-70.328v-95.657H1396.6V3143.5Zm325.129-129.091-31.049-.164c0,16.333-.035,34.387.078,50.459l31.277,24.013V3059.9h0c24.56,24.585,54.289,53.645,78.8,78.276,0,0,42.427-.054,44.726-.054Zm123.749,103.97V3014.393H1847.622Z" style="fill:#878b88"/></svg>