<?xml version="1.0" standalone="no"?><!DOCTYPE svg PUBLIC "-//W3C//DTD SVG 1.1//EN" "http://www.w3.org/Graphics/SVG/1.1/DTD/svg11.dtd"><svg t="1705396927105" class="icon" viewBox="0 0 1025 1024" version="1.1" xmlns="http://www.w3.org/2000/svg" p-id="5159" xmlns:xlink="http://www.w3.org/1999/xlink" width="48.046875" height="48"><path d="M0.69565 0.693767h1022.612466v1022.612466H0.69565z" fill="#404442" p-id="5160"></path><path d="M1024.001883 1024H0.001883V0h1024v1024zM1.389417 1022.612466h1021.224932V1.387534H1.389417v1021.224932z" fill="#B3B3B3" p-id="5161"></path><path d="M0.69565 984.039024h1022.612466" fill="#404442" p-id="5162"></path><path d="M0.69565 983.345257h1022.612466v1.387534H0.69565z" fill="#B3B3B3" p-id="5163"></path><path d="M0.69565 944.633062h1022.612466" fill="#404442" p-id="5164"></path><path d="M0.69565 943.939295h1022.612466v1.387534H0.69565z" fill="#B3B3B3" p-id="5165"></path><path d="M0.69565 824.888889h1022.612466" fill="#404442" p-id="5166"></path><path d="M0.69565 824.195122h1022.612466v1.387534H0.69565z" fill="#B3B3B3" p-id="5167"></path><path d="M0.69565 865.959892h1022.612466" fill="#404442" p-id="5168"></path><path d="M0.69565 865.266125h1022.612466v1.387534H0.69565z" fill="#B3B3B3" p-id="5169"></path><path d="M0.69565 907.169648h1022.612466" fill="#404442" p-id="5170"></path><path d="M0.69565 905.920867h1022.612466v2.497561H0.69565z" fill="#CCCCCC" p-id="5171"></path><path d="M0.69565 787.286721h1022.612466" fill="#404442" p-id="5172"></path><path d="M0.69565 786.592954h1022.612466v1.387534H0.69565z" fill="#B3B3B3" p-id="5173"></path><path d="M0.69565 748.019512h1022.612466" fill="#404442" p-id="5174"></path><path d="M0.69565 747.325745h1022.612466v1.387534H0.69565z" fill="#B3B3B3" p-id="5175"></path><path d="M0.69565 668.375068h1022.612466" fill="#404442" p-id="5176"></path><path d="M0.69565 667.681301h1022.612466v1.387534H0.69565z" fill="#B3B3B3" p-id="5177"></path><path d="M0.69565 709.584824h1022.612466" fill="#404442" p-id="5178"></path><path d="M0.69565 708.336043h1022.612466v2.497561H0.69565z" fill="#CCCCCC" p-id="5179"></path><path d="M0.69565 629.940379h1022.612466" fill="#404442" p-id="5180"></path><path d="M0.69565 629.246612h1022.612466v1.387534H0.69565z" fill="#B3B3B3" p-id="5181"></path><path d="M0.69565 590.673171h1022.612466" fill="#404442" p-id="5182"></path><path d="M0.69565 589.979404h1022.612466v1.387534H0.69565z" fill="#B3B3B3" p-id="5183"></path><path d="M0.69565 551.405962h1022.612466" fill="#404442" p-id="5184"></path><path d="M0.69565 550.712195h1022.612466v1.387534H0.69565z" fill="#B3B3B3" p-id="5185"></path><path d="M0.69565 512h1022.612466" fill="#404442" p-id="5186"></path><path d="M0.69565 510.75122h1022.612466v2.49756H0.69565z" fill="#CCCCCC" p-id="5187"></path><path d="M0.69565 472.732791h1022.612466" fill="#404442" p-id="5188"></path><path d="M0.69565 472.039024h1022.612466v1.387534H0.69565z" fill="#B3B3B3" p-id="5189"></path><path d="M0.69565 433.326829h1022.612466" fill="#404442" p-id="5190"></path><path d="M0.69565 432.633062h1022.612466v1.387534H0.69565z" fill="#B3B3B3" p-id="5191"></path><path d="M0.69565 394.059621h1022.612466" fill="#404442" p-id="5192"></path><path d="M0.69565 393.365854h1022.612466v1.387534H0.69565z" fill="#B3B3B3" p-id="5193"></path><path d="M0.69565 314.415176h1022.612466" fill="#404442" p-id="5194"></path><path d="M0.69565 313.166396h1022.612466v2.497561H0.69565z" fill="#CCCCCC" p-id="5195"></path><path d="M0.69565 355.624932h1022.612466" fill="#404442" p-id="5196"></path><path d="M0.69565 354.931165h1022.612466v1.387534H0.69565z" fill="#B3B3B3" p-id="5197"></path><path d="M0.69565 275.980488h1022.612466" fill="#404442" p-id="5198"></path><path d="M0.69565 275.286721h1022.612466v1.387534H0.69565z" fill="#B3B3B3" p-id="5199"></path><path d="M0.69565 236.713279h1022.612466" fill="#404442" p-id="5200"></path><path d="M0.69565 236.019512h1022.612466v1.387534H0.69565z" fill="#B3B3B3" p-id="5201"></path><path d="M0.69565 118.217886h1022.612466" fill="#404442" p-id="5202"></path><path d="M0.69565 116.969106h1022.612466v2.497561H0.69565z" fill="#CCCCCC" p-id="5203"></path><path d="M0.69565 158.040108h1022.612466" fill="#404442" p-id="5204"></path><path d="M0.69565 157.346341h1022.612466v1.387534H0.69565z" fill="#B3B3B3" p-id="5205"></path><path d="M0.69565 197.723577h1022.612466" fill="#404442" p-id="5206"></path><path d="M0.69565 197.02981h1022.612466v1.387534H0.69565z" fill="#B3B3B3" p-id="5207"></path><path d="M0.69565 79.366938h1022.612466" fill="#404442" p-id="5208"></path><path d="M0.69565 78.673171h1022.612466v1.387534H0.69565z" fill="#B3B3B3" p-id="5209"></path><path d="M0.69565 39.960976h1022.612466" fill="#404442" p-id="5210"></path><path d="M0.69565 39.267209h1022.612466v1.387534H0.69565z" fill="#B3B3B3" p-id="5211"></path><path d="M984.040907 0.693767v1022.612466" fill="#404442" p-id="5212"></path><path d="M983.34714 0.693767h1.387534v1022.612466h-1.387534z" fill="#B3B3B3" p-id="5213"></path><path d="M944.634945 0.693767v1022.612466" fill="#404442" p-id="5214"></path><path d="M943.941178 0.693767h1.387534v1022.612466h-1.387534z" fill="#B3B3B3" p-id="5215"></path><path d="M826.278305 0.693767v1022.612466" fill="#404442" p-id="5216"></path><path d="M825.584539 0.693767h1.387533v1022.612466h-1.387533z" fill="#B3B3B3" p-id="5217"></path><path d="M865.961774 0.693767v1022.612466" fill="#404442" p-id="5218"></path><path d="M865.268007 0.693767h1.387534v1022.612466h-1.387534z" fill="#B3B3B3" p-id="5219"></path><path d="M905.783996 0.693767v1022.612466" fill="#404442" p-id="5220"></path><path d="M904.535216 0.693767h2.497561v1022.612466h-2.497561z" fill="#CCCCCC" p-id="5221"></path><path d="M787.288604 0.693767v1022.612466" fill="#404442" p-id="5222"></path><path d="M786.594837 0.693767h1.387533v1022.612466h-1.387533z" fill="#B3B3B3" p-id="5223"></path><path d="M748.021395 0.693767v1022.612466" fill="#404442" p-id="5224"></path><path d="M747.327628 0.693767h1.387534v1022.612466h-1.387534z" fill="#B3B3B3" p-id="5225"></path><path d="M669.764484 0.693767v1022.612466" fill="#404442" p-id="5226"></path><path d="M669.070717 0.693767h1.387534v1022.612466h-1.387534z" fill="#B3B3B3" p-id="5227"></path><path d="M709.586707 0.693767v1022.612466" fill="#404442" p-id="5228"></path><path d="M708.337926 0.693767h2.497561v1022.612466h-2.497561z" fill="#CCCCCC" p-id="5229"></path><path d="M629.942262 0.693767v1022.612466" fill="#404442" p-id="5230"></path><path d="M629.248495 0.693767h1.387534v1022.612466h-1.387534z" fill="#B3B3B3" p-id="5231"></path><path d="M590.675053 0.693767v1022.612466" fill="#404442" p-id="5232"></path><path d="M589.981286 0.693767h1.387534v1022.612466h-1.387534z" fill="#B3B3B3" p-id="5233"></path><path d="M551.407845 0.693767v1022.612466" fill="#404442" p-id="5234"></path><path d="M550.714078 0.693767h1.387534v1022.612466h-1.387534z" fill="#B3B3B3" p-id="5235"></path><path d="M512.001883 0.693767v1022.612466" fill="#404442" p-id="5236"></path><path d="M510.753102 0.693767h2.497561v1022.612466h-2.497561z" fill="#CCCCCC" p-id="5237"></path><path d="M472.734674 0.693767v1022.612466" fill="#404442" p-id="5238"></path><path d="M472.040907 0.693767h1.387534v1022.612466h-1.387534z" fill="#B3B3B3" p-id="5239"></path><path d="M433.328712 0.693767v1022.612466" fill="#404442" p-id="5240"></path><path d="M432.634945 0.693767h1.387534v1022.612466h-1.387534z" fill="#B3B3B3" p-id="5241"></path><path d="M394.061503 0.693767v1022.612466" fill="#404442" p-id="5242"></path><path d="M393.367736 0.693767h1.387534v1022.612466h-1.387534z" fill="#B3B3B3" p-id="5243"></path><path d="M315.804593 0.693767v1022.612466" fill="#404442" p-id="5244"></path><path d="M314.555812 0.693767h2.497561v1022.612466h-2.497561z" fill="#CCCCCC" p-id="5245"></path><path d="M357.014349 0.693767v1022.612466" fill="#404442" p-id="5246"></path><path d="M356.320582 0.693767h1.387534v1022.612466h-1.387534z" fill="#B3B3B3" p-id="5247"></path><path d="M275.98237 0.693767v1022.612466" fill="#404442" p-id="5248"></path><path d="M275.288604 0.693767h1.387533v1022.612466h-1.387533z" fill="#B3B3B3" p-id="5249"></path><path d="M236.715162 0.693767v1022.612466" fill="#404442" p-id="5250"></path><path d="M236.021395 0.693767h1.387534v1022.612466h-1.387534z" fill="#B3B3B3" p-id="5251"></path><path d="M116.832235 0.693767v1022.612466" fill="#404442" p-id="5252"></path><path d="M115.583454 0.693767h2.497561v1022.612466h-2.497561z" fill="#CCCCCC" p-id="5253"></path><path d="M158.041991 0.693767v1022.612466" fill="#404442" p-id="5254"></path><path d="M157.348224 0.693767h1.387534v1022.612466h-1.387534z" fill="#B3B3B3" p-id="5255"></path><path d="M199.112994 0.693767v1022.612466" fill="#404442" p-id="5256"></path><path d="M198.419227 0.693767h1.387534v1022.612466h-1.387534z" fill="#B3B3B3" p-id="5257"></path><path d="M79.36882 0.693767v1022.612466" fill="#404442" p-id="5258"></path><path d="M78.675053 0.693767h1.387534v1022.612466h-1.387534z" fill="#B3B3B3" p-id="5259"></path><path d="M39.962858 0.693767v1022.612466" fill="#404442" p-id="5260"></path><path d="M39.269091 0.693767h1.387534v1022.612466h-1.387534z" fill="#B3B3B3" p-id="5261"></path><path d="M467.878305 920.76748v24.420596h6.105149v-9.01897h10.822765v-6.105149h-10.822765v-3.468835h17.760434v-5.827642h-17.760434zM500.069091 939.082927v-18.315447h-5.966395v24.420596H514.083183v-6.105149zM541.695108 930.480217h-16.78916c-1.110027 0-1.803794-0.83252-1.803794-1.803794 0-1.110027 0.83252-1.803794 1.803794-1.803794h15.679133v-5.966396h-15.817887c-4.301355 0-7.77019 3.468835-7.770189 7.908943s3.468835 7.908943 7.770189 7.908943h16.78916c1.526287 0 1.526287 2.636314 0 2.636315h-25.253116v5.966395h25.253116c4.023848 0 6.660163-3.330081 6.660163-7.353929 0-4.162602-2.497561-7.492683-6.521409-7.492683zM572.359606 931.451491v7.631436h-15.817886v-18.315447h-5.966396v18.315447c0 3.330081 2.636314 5.966396 5.966396 5.966395h15.817886c3.191328 0 5.966396-2.636314 5.966396-5.966395v-2.220054l-5.966396-5.411382zM600.249037 945.188076l-22.061788-24.420596h-5.827643V928.676423l5.827643 5.411382V929.647696l14.014092 15.54038z" fill="#C5CBC9" p-id="5262"></path><path d="M600.249037 939.499187v-18.870461h-16.927913z" fill="#C5CBC9" p-id="5263"></path><path d="M422.089688 932.700271h14.152845v6.798916h-14.152845zM422.089688 923.542547h14.152845v1.526288h-14.152845zM422.089688 925.762602h14.152845v1.526287h-14.152845zM422.089688 928.121409h14.152845v1.526287h-14.152845zM422.089688 930.480217h14.152845v1.526287h-14.152845zM429.58237 947.269377l4.856369-5.272629v-1.665041h-10.406504v1.665041l4.856369 5.272629zM417.649579 962.532249c-1.942547 0-2.913821-0.41626-2.913821-1.110027-0.138753-1.110027 2.358808-1.665041 3.330081-1.66504 3.052575-0.41626 29.554472-3.468835 33.855827-3.885095 3.468835-0.41626 7.35393-0.971274 7.353929-1.387534 0-0.41626-14.014092 0.138753-20.535501 0.555013-2.358808 0.138753-4.440108 0.41626-6.105149 0.416261-1.526287 0.138753-3.191328 0.138753-4.995122 0.41626-13.181572 0.83252-16.234146 0.971274-16.78916 0.41626-0.138753-0.138753-0.138753-0.277507-0.138753-0.41626 0-0.555014 0-1.110027 8.741463-2.220054 4.440108-0.555014 9.01897-1.110027 9.712737-1.110028 2.636314-0.277507 24.55935-2.358808 24.55935-2.913821 0-0.555014-12.626558-0.971274-15.124119-0.971273h-10.128998v-1.110028h10.128998c1.110027 0 5.411382 0.138753 9.157723 0.416261 8.047696 0.555014 8.047696 1.110027 8.047697 1.66504 0 0.555014 0 0.971274-12.904065 2.497561-6.243902 0.693767-12.904065 1.387534-13.736586 1.526288-3.330081 0.41626-15.817886 1.665041-15.817886 2.0813 0 0.555014 9.573984-0.693767 14.152846-0.971273 1.803794-0.138753 3.468835-0.277507 5.133875-0.416261 1.665041-0.138753 3.607588-0.277507 6.105149-0.41626 11.239024-0.971274 20.119241-1.665041 21.645529-0.138753 0.277507 0.277507 0.41626 0.555014 0.41626 0.693767 0 0.41626 0 0.693767-2.636315 1.387534-0.971274 0.277507-3.052575 0.693767-5.827642 0.971273-4.301355 0.41626-30.803252 3.468835-33.855827 3.885095-0.971274 0.138753-2.081301 0.277507-2.0813 0.555014s0.83252 0.138753 1.803794 0.138753c4.162602-0.138753 25.946883 0 26.085637 0v1.110027c-0.138753 0-21.923035-0.138753-26.085637 0h-0.555014zM445.12275 913.82981L439.850121 919.934959l-7.215176-2.497561h-6.937669l-7.215177 2.497561-5.133875-6.105149-2.775068 2.081301 6.93767 5.133875 4.301355 1.248781h14.985366l4.301355-1.248781 6.937669-5.133875-2.913821-2.081301z m-9.712737 7.076423h-12.349052c-1.24878 0-2.358808-0.693767-2.358807-0.693767l5.133875-1.803794h6.660163l5.133875 1.803794c0.138753 0.138753-1.110027 0.693767-2.220054 0.693767z" fill="#C5CBC9" p-id="5264"></path><path d="M436.9363 908.834688l4.578862-3.746341-3.052575-1.803794-4.162601 4.856368c-1.665041-0.277507-3.191328-0.555014-5.133876-0.555013-1.803794 0-3.330081 0.138753-4.856368 0.41626l-4.162602-4.717615-3.052574 1.803794 4.440108 3.468835c-4.995122 1.526287-7.492683 4.023848-7.492683 4.023848l4.717615 5.688889 6.243903-2.358808h7.631436l6.243902 2.358808 4.717616-5.688889c0.41626 0.138753-1.665041-2.358808-6.660163-3.746342z m-15.679133 3.885095c-0.41626 0-0.83252-0.41626-0.83252-0.83252s0.41626-0.83252 0.83252-0.83252 0.83252 0.41626 0.832521 0.83252c-0.138753 0.41626-0.555014 0.83252-0.832521 0.83252z m15.54038 0c-0.41626 0-0.83252-0.41626-0.832521-0.83252s0.41626-0.83252 0.832521-0.83252 0.83252 0.41626 0.83252 0.83252-0.41626 0.83252-0.83252 0.83252z" fill="#C5CBC9" p-id="5265"></path></svg>