<?xml version="1.0" standalone="no"?><!DOCTYPE svg PUBLIC "-//W3C//DTD SVG 1.1//EN" "http://www.w3.org/Graphics/SVG/1.1/DTD/svg11.dtd"><svg t="1703207851741" class="icon" viewBox="0 0 1025 1024" version="1.1" xmlns="http://www.w3.org/2000/svg" p-id="2725" xmlns:xlink="http://www.w3.org/1999/xlink" width="48.046875" height="48"><path d="M1.129494 0.563815h1022.872371v1022.87237H1.129494z" fill="#404442" p-id="2726"></path><path d="M1024.565679 1024H0.565679V0h1024v1024zM1.693308 1022.872371h1021.744742V1.127629H1.693308v1021.744742z" fill="#B3B3B3" p-id="2727"></path><path d="M1.129494 991.411519h1022.872371" fill="#404442" p-id="2728"></path><path d="M1.129494 990.847704h1022.872371v1.127629H1.129494z" fill="#B3B3B3" p-id="2729"></path><path d="M1.129494 959.499615h1022.872371" fill="#404442" p-id="2730"></path><path d="M1.129494 958.9358h1022.872371v1.127629H1.129494z" fill="#B3B3B3" p-id="2731"></path><path d="M1.129494 927.474948h1022.872371" fill="#404442" p-id="2732"></path><path d="M1.129494 926.911133h1022.872371v1.127629H1.129494z" fill="#B3B3B3" p-id="2733"></path><path d="M1.129494 895.563044h1022.872371" fill="#404442" p-id="2734"></path><path d="M1.129494 894.999229h1022.872371v1.127629H1.129494z" fill="#B3B3B3" p-id="2735"></path><path d="M1.129494 863.65114h1022.872371" fill="#404442" p-id="2736"></path><path d="M1.129494 863.087325h1022.872371v1.127629H1.129494z" fill="#B3B3B3" p-id="2737"></path><path d="M1.129494 831.626473h1022.872371" fill="#404442" p-id="2738"></path><path d="M1.129494 830.611607h1022.872371v2.029732H1.129494z" fill="#CCCCCC" p-id="2739"></path><path d="M1.129494 799.714569h1022.872371" fill="#404442" p-id="2740"></path><path d="M1.129494 799.150754h1022.872371v1.127629H1.129494z" fill="#B3B3B3" p-id="2741"></path><path d="M1.129494 767.689902h1022.872371" fill="#404442" p-id="2742"></path><path d="M1.129494 767.126087h1022.872371v1.12763H1.129494z" fill="#B3B3B3" p-id="2743"></path><path d="M1.129494 735.777998h1022.872371" fill="#404442" p-id="2744"></path><path d="M1.129494 735.214183h1022.872371v1.12763H1.129494z" fill="#B3B3B3" p-id="2745"></path><path d="M1.129494 703.753331h1022.872371" fill="#404442" p-id="2746"></path><path d="M1.129494 703.189517h1022.872371v1.127629H1.129494z" fill="#B3B3B3" p-id="2747"></path><path d="M0.001865 671.841427h1022.872371" fill="#404442" p-id="2748"></path><path d="M0.001865 670.826561h1022.872371v2.029732H0.001865z" fill="#CCCCCC" p-id="2749"></path><path d="M1.129494 639.81676h1022.872371" fill="#404442" p-id="2750"></path><path d="M1.129494 639.252946h1022.872371v1.127629H1.129494z" fill="#B3B3B3" p-id="2751"></path><path d="M1.129494 607.904856h1022.872371" fill="#404442" p-id="2752"></path><path d="M1.129494 607.341042h1022.872371v1.127629H1.129494z" fill="#B3B3B3" p-id="2753"></path><path d="M1.129494 575.880189h1022.872371" fill="#404442" p-id="2754"></path><path d="M1.129494 575.316375h1022.872371v1.127629H1.129494z" fill="#B3B3B3" p-id="2755"></path><path d="M1.129494 543.968285h1022.872371" fill="#404442" p-id="2756"></path><path d="M1.129494 543.404471h1022.872371v1.127629H1.129494z" fill="#B3B3B3" p-id="2757"></path><path d="M1.129494 511.943619h1022.872371" fill="#404442" p-id="2758"></path><path d="M1.129494 510.928752h1022.872371v2.029733H1.129494z" fill="#CCCCCC" p-id="2759"></path><path d="M1.129494 480.031715h1022.872371" fill="#404442" p-id="2760"></path><path d="M1.129494 479.4679h1022.872371v1.127629H1.129494z" fill="#B3B3B3" p-id="2761"></path><path d="M1.129494 448.119811h1022.872371" fill="#404442" p-id="2762"></path><path d="M1.129494 447.555996h1022.872371v1.127629H1.129494z" fill="#B3B3B3" p-id="2763"></path><path d="M1.129494 416.095144h1022.872371" fill="#404442" p-id="2764"></path><path d="M1.129494 415.531329h1022.872371v1.127629H1.129494z" fill="#B3B3B3" p-id="2765"></path><path d="M1.129494 384.18324h1022.872371" fill="#404442" p-id="2766"></path><path d="M1.129494 383.619425h1022.872371v1.127629H1.129494z" fill="#B3B3B3" p-id="2767"></path><path d="M1.129494 352.158573h1022.872371" fill="#404442" p-id="2768"></path><path d="M1.129494 351.143707h1022.872371v2.029732H1.129494z" fill="#CCCCCC" p-id="2769"></path><path d="M1.129494 320.246669h1022.872371" fill="#404442" p-id="2770"></path><path d="M1.129494 319.682854h1022.872371v1.127629H1.129494z" fill="#B3B3B3" p-id="2771"></path><path d="M1.129494 288.222002h1022.872371" fill="#404442" p-id="2772"></path><path d="M1.129494 287.658187h1022.872371v1.12763H1.129494z" fill="#B3B3B3" p-id="2773"></path><path d="M1.129494 256.310098h1022.872371" fill="#404442" p-id="2774"></path><path d="M1.129494 255.746283h1022.872371v1.12763H1.129494z" fill="#B3B3B3" p-id="2775"></path><path d="M1.129494 224.285431h1022.872371" fill="#404442" p-id="2776"></path><path d="M1.129494 223.721617h1022.872371v1.127629H1.129494z" fill="#B3B3B3" p-id="2777"></path><path d="M1.129494 192.373527h1022.872371" fill="#404442" p-id="2778"></path><path d="M1.129494 191.358661h1022.872371v2.029732H1.129494z" fill="#CCCCCC" p-id="2779"></path><path d="M1.129494 160.34886h1022.872371" fill="#404442" p-id="2780"></path><path d="M1.129494 159.785046h1022.872371v1.127629H1.129494z" fill="#B3B3B3" p-id="2781"></path><path d="M1.129494 128.436956h1022.872371" fill="#404442" p-id="2782"></path><path d="M1.129494 127.873142h1022.872371v1.127629H1.129494z" fill="#B3B3B3" p-id="2783"></path><path d="M1.129494 96.412289h1022.872371" fill="#404442" p-id="2784"></path><path d="M1.129494 95.848475h1022.872371v1.127629H1.129494z" fill="#B3B3B3" p-id="2785"></path><path d="M1.129494 64.500385h1022.872371" fill="#404442" p-id="2786"></path><path d="M1.129494 63.936571h1022.872371v1.127629H1.129494z" fill="#B3B3B3" p-id="2787"></path><path d="M1.129494 32.475719h1022.872371" fill="#404442" p-id="2788"></path><path d="M1.129494 31.911904h1022.872371v1.127629H1.129494z" fill="#B3B3B3" p-id="2789"></path><path d="M991.977198 0.563815v1022.87237" fill="#404442" p-id="2790"></path><path d="M991.413383 0.563815h1.127629v1022.87237h-1.127629z" fill="#B3B3B3" p-id="2791"></path><path d="M960.065294 0.563815v1022.87237" fill="#404442" p-id="2792"></path><path d="M959.501479 0.563815h1.127629v1022.87237h-1.127629z" fill="#B3B3B3" p-id="2793"></path><path d="M928.040627 0.563815v1022.87237" fill="#404442" p-id="2794"></path><path d="M927.476812 0.563815h1.127629v1022.87237h-1.127629z" fill="#B3B3B3" p-id="2795"></path><path d="M896.128723 0.563815v1022.87237" fill="#404442" p-id="2796"></path><path d="M895.564908 0.563815h1.12763v1022.87237h-1.12763z" fill="#B3B3B3" p-id="2797"></path><path d="M864.216819 0.563815v1022.87237" fill="#404442" p-id="2798"></path><path d="M863.653004 0.563815h1.12763v1022.87237h-1.12763z" fill="#B3B3B3" p-id="2799"></path><path d="M832.192152 0.563815v1022.87237" fill="#404442" p-id="2800"></path><path d="M831.177286 0.563815h2.029732v1022.87237h-2.029732z" fill="#CCCCCC" p-id="2801"></path><path d="M800.280248 0.563815v1022.87237" fill="#404442" p-id="2802"></path><path d="M799.716434 0.563815h1.127629v1022.87237h-1.127629z" fill="#B3B3B3" p-id="2803"></path><path d="M768.255581 0.563815v1022.87237" fill="#404442" p-id="2804"></path><path d="M767.691767 0.563815h1.127629v1022.87237h-1.127629z" fill="#B3B3B3" p-id="2805"></path><path d="M736.343677 0.563815v1022.87237" fill="#404442" p-id="2806"></path><path d="M735.779863 0.563815h1.127629v1022.87237h-1.127629z" fill="#B3B3B3" p-id="2807"></path><path d="M704.31901 0.563815v1022.87237" fill="#404442" p-id="2808"></path><path d="M703.755196 0.563815h1.127629v1022.87237h-1.127629z" fill="#B3B3B3" p-id="2809"></path><path d="M672.407106 0.563815v1022.87237" fill="#404442" p-id="2810"></path><path d="M671.39224 0.563815h2.029733v1022.87237h-2.029733z" fill="#CCCCCC" p-id="2811"></path><path d="M640.382439 0.563815v1022.87237" fill="#404442" p-id="2812"></path><path d="M639.818625 0.563815h1.127629v1022.87237h-1.127629z" fill="#B3B3B3" p-id="2813"></path><path d="M608.470536 0.563815v1022.87237" fill="#404442" p-id="2814"></path><path d="M607.906721 0.563815h1.127629v1022.87237h-1.127629z" fill="#B3B3B3" p-id="2815"></path><path d="M576.445869 0.563815v1022.87237" fill="#404442" p-id="2816"></path><path d="M575.882054 0.563815h1.127629v1022.87237h-1.127629z" fill="#B3B3B3" p-id="2817"></path><path d="M544.533965 0.563815v1022.87237" fill="#404442" p-id="2818"></path><path d="M543.97015 0.563815h1.127629v1022.87237h-1.127629z" fill="#B3B3B3" p-id="2819"></path><path d="M512.509298 0.563815v1022.87237" fill="#404442" p-id="2820"></path><path d="M511.494432 0.563815h2.029732v1022.87237h-2.029732z" fill="#CCCCCC" p-id="2821"></path><path d="M480.597394 0.563815v1022.87237" fill="#404442" p-id="2822"></path><path d="M480.033579 0.563815h1.127629v1022.87237h-1.127629z" fill="#B3B3B3" p-id="2823"></path><path d="M448.68549 0.563815v1022.87237" fill="#404442" p-id="2824"></path><path d="M448.121675 0.563815h1.127629v1022.87237h-1.127629z" fill="#B3B3B3" p-id="2825"></path><path d="M416.660823 0.563815v1022.87237" fill="#404442" p-id="2826"></path><path d="M416.097008 0.563815h1.127629v1022.87237h-1.127629z" fill="#B3B3B3" p-id="2827"></path><path d="M384.748919 0.563815v1022.87237" fill="#404442" p-id="2828"></path><path d="M384.185104 0.563815h1.12763v1022.87237h-1.12763z" fill="#B3B3B3" p-id="2829"></path><path d="M352.724252 0.563815v1022.87237" fill="#404442" p-id="2830"></path><path d="M351.709386 0.563815h2.029732v1022.87237h-2.029732z" fill="#CCCCCC" p-id="2831"></path><path d="M320.812348 0.563815v1022.87237" fill="#404442" p-id="2832"></path><path d="M320.248534 0.563815h1.127629v1022.87237h-1.127629z" fill="#B3B3B3" p-id="2833"></path><path d="M288.787681 0.563815v1022.87237" fill="#404442" p-id="2834"></path><path d="M288.223867 0.563815h1.127629v1022.87237h-1.127629z" fill="#B3B3B3" p-id="2835"></path><path d="M256.875777 0.563815v1022.87237" fill="#404442" p-id="2836"></path><path d="M256.311963 0.563815h1.127629v1022.87237h-1.127629z" fill="#B3B3B3" p-id="2837"></path><path d="M224.85111 0.563815v1022.87237" fill="#404442" p-id="2838"></path><path d="M224.287296 0.563815h1.127629v1022.87237h-1.127629z" fill="#B3B3B3" p-id="2839"></path><path d="M192.939206 0.563815v1022.87237" fill="#404442" p-id="2840"></path><path d="M191.92434 0.563815h2.029733v1022.87237h-2.029733z" fill="#CCCCCC" p-id="2841"></path><path d="M160.914539 0.563815v1022.87237" fill="#404442" p-id="2842"></path><path d="M160.350725 0.563815h1.127629v1022.87237h-1.127629z" fill="#B3B3B3" p-id="2843"></path><path d="M129.002636 0.563815v1022.87237" fill="#404442" p-id="2844"></path><path d="M128.438821 0.563815h1.127629v1022.87237h-1.127629z" fill="#B3B3B3" p-id="2845"></path><path d="M96.977969 0.563815v1022.87237" fill="#404442" p-id="2846"></path><path d="M96.414154 0.563815h1.127629v1022.87237h-1.127629z" fill="#B3B3B3" p-id="2847"></path><path d="M65.066065 0.563815v1022.87237" fill="#404442" p-id="2848"></path><path d="M64.50225 0.563815h1.127629v1022.87237h-1.127629z" fill="#B3B3B3" p-id="2849"></path><path d="M33.041398 0.563815v1022.87237" fill="#404442" p-id="2850"></path><path d="M32.477583 0.563815h1.127629v1022.87237h-1.127629z" fill="#B3B3B3" p-id="2851"></path><path d="M459.736255 931.985464v27.514151h6.765775v-10.148662h12.291157v-6.878538h-12.291157v-3.833939h20.184561v-6.653012h-20.184561zM496.045913 952.73384v-20.748376h-6.765775v27.514151h22.552582v-6.765775zM543.068047 942.923467h-18.944169c-1.240392 0-2.029732-1.014866-2.029733-2.029733 0-1.240392 1.014866-2.029732 2.029733-2.029732H541.827655v-6.765775h-17.81654c-4.848805 0-8.795507 3.946702-8.795507 8.90827s3.946702 8.90827 8.795507 8.90827H542.955284c1.691444 0 1.691444 3.044599 0 3.044599h-28.529017v6.765774H542.955284c4.510516 0 7.442352-3.721176 7.442352-8.344455 0-4.623279-2.819073-8.457218-7.329589-8.457218zM577.573498 944.051096v8.569981h-17.81654v-20.748376h-6.765775v20.748376c0 3.721176 2.931836 6.765775 6.765775 6.765775h17.81654c3.608413 0 6.765775-3.044599 6.765774-6.765775v-2.480784l-6.765774-6.089197zM609.147113 959.612377l-24.920603-27.626913h-6.653012v8.90827l6.653012 6.089197v-4.961568l15.786807 17.591014z" fill="#C5CBC9" p-id="2852"></path><path d="M609.147113 953.072129v-21.199428h-19.169695z" fill="#C5CBC9" p-id="2853"></path><path d="M407.978079 945.517014h16.012333v7.667878h-16.012333zM407.978079 935.142826h16.012333v1.691443h-16.012333zM407.978079 937.62361h16.012333v1.691443h-16.012333zM407.978079 940.217157h16.012333v1.691443h-16.012333zM407.978079 942.923467h16.012333v1.691443h-16.012333zM416.435297 961.980399l5.41262-6.089198v-1.804206h-11.61458v1.804206l5.41262 6.089198zM403.016511 979.120361c-2.255258 0-3.270124-0.451052-3.270125-1.240392-0.112763-1.240392 2.593547-1.804207 3.721176-1.916969 3.49565-0.451052 33.377822-3.946702 38.226627-4.397754 3.946702-0.451052 8.231693-1.127629 8.231693-1.578681 0-0.451052-15.786808 0.112763-23.116397 0.676578-2.70631 0.225526-5.074331 0.451052-6.878538 0.451051-1.691444 0.112763-3.608413 0.225526-5.638145 0.451052-14.884704 1.014866-18.267592 1.127629-18.944169 0.451052-0.112763-0.112763-0.225526-0.338289-0.225526-0.451052 0-0.676577 0-1.240392 9.923136-2.480784 5.074331-0.563815 10.148662-1.240392 10.938002-1.240392 3.044599-0.338289 27.739676-2.70631 27.739677-3.270124 0-0.676577-14.32089-1.127629-17.0272-1.12763h-11.389054v-1.240392h11.389054c1.240392 0 6.089197 0.225526 10.374188 0.451052 9.133796 0.676577 9.133796 1.240392 9.133796 1.804207 0 0.676577 0 1.127629-14.546416 2.819072-7.104063 0.78934-14.546416 1.578681-15.561282 1.691444-3.833939 0.451052-17.929303 1.804207-17.929303 2.368021s10.82524-0.78934 16.012334-1.127629c2.029732-0.112763 3.946702-0.338289 5.750908-0.451051 1.804207-0.112763 4.059465-0.338289 6.878538-0.451052 12.742209-1.127629 22.778108-1.804207 24.469552-0.225526 0.338289 0.338289 0.451052 0.563815 0.451051 0.78934 0 0.451052 0 0.78934-3.044598 1.578681-1.127629 0.338289-3.49565 0.78934-6.540249 1.127629-4.848805 0.451052-34.730977 3.946702-38.226627 4.397754-1.127629 0.225526-2.368021 0.338289-2.368021 0.563814s1.014866 0.112763 2.029732 0.112763c4.736042-0.112763 29.318357 0 29.43112 0v1.240392c-0.225526 0-24.695078-0.112763-29.43112 0-0.338289 0.225526-0.451052 0.225526-0.563814 0.225526zM433.913548 924.09206l-5.863671 6.878538-8.11893-2.819073h-7.893403l-8.11893 2.819073-5.863671-6.878538-3.157362 2.368021 7.893404 5.863672 4.848805 1.353155h16.914437l4.848805-1.353155 7.893404-5.863672-3.382888-2.368021z m-10.938002 8.11893h-13.869838c-1.353155 0-2.70631-0.78934-2.70631-0.78934l5.750908-2.029733h7.667878l5.750909 2.029733c0.112763 0.112763-1.240392 0.78934-2.593547 0.78934z" fill="#C5CBC9" p-id="2854"></path><path d="M424.779753 918.453915l5.187094-4.172228-3.382888-2.029732-4.736042 5.412619c-1.804207-0.338289-3.608413-0.563815-5.863672-0.563814-2.029732 0-3.721176 0.225526-5.412619 0.451051l-4.62328-5.299856-3.382887 2.029732 5.074331 3.946702c-5.638146 1.691444-8.457218 4.510516-8.457218 4.510516l5.299856 6.427486 7.104064-2.70631h8.569981l7.104064 2.70631 5.299856-6.427486c0.225526 0.225526-2.255258-2.593547-7.78064-4.28499z m-17.81654 4.397753c-0.451052 0-0.902103-0.451052-0.902104-0.902103s0.451052-0.902103 0.902104-0.902103 0.902103 0.451052 0.902103 0.902103-0.451052 0.902103-0.902103 0.902103z m17.591014 0c-0.451052 0-0.902103-0.451052-0.902104-0.902103s0.451052-0.902103 0.902104-0.902103 0.902103 0.451052 0.902103 0.902103-0.451052 0.902103-0.902103 0.902103z" fill="#C5CBC9" p-id="2855"></path></svg>