<?xml version="1.0" encoding="UTF-8" standalone="no"?>
<svg
   xmlns:dc="http://purl.org/dc/elements/1.1/"
   xmlns:cc="http://creativecommons.org/ns#"
   xmlns:rdf="http://www.w3.org/1999/02/22-rdf-syntax-ns#"
   xmlns:svg="http://www.w3.org/2000/svg"
   xmlns="http://www.w3.org/2000/svg"
   xmlns:sodipodi="http://sodipodi.sourceforge.net/DTD/sodipodi-0.dtd"
   xmlns:inkscape="http://www.inkscape.org/namespaces/inkscape"
   version="1.1"
   id="svg10"
   width="2666.6667"
   height="2666.6667"
   viewBox="0 0 2666.6667 2666.6667"
   sodipodi:docname="textura3.svg"
   inkscape:version="1.0.1 (3bc2e813f5, 2020-09-07)">
  <sodipodi:namedview
     pagecolor="#ffffff"
     bordercolor="#666666"
     borderopacity="1"
     objecttolerance="10"
     gridtolerance="10"
     guidetolerance="10"
     inkscape:pageopacity="0"
     inkscape:pageshadow="2"
     inkscape:window-width="1663"
     inkscape:window-height="1280"
     id="namedview64"
     showgrid="false"
     inkscape:zoom="0.37799999"
     inkscape:cx="846.56087"
     inkscape:cy="1333.3334"
     inkscape:window-x="0"
     inkscape:window-y="0"
     inkscape:window-maximized="0"
     inkscape:current-layer="svg10" />
  <metadata
     id="metadata16">
    <rdf:RDF>
      <cc:Work
         rdf:about="">
        <dc:format>image/svg+xml</dc:format>
        <dc:type
           rdf:resource="http://purl.org/dc/dcmitype/StillImage" />
        <dc:title></dc:title>
      </cc:Work>
    </rdf:RDF>
  </metadata>
  <defs
     id="defs14" />
  <g
     id="g18"
     transform="matrix(0.9,0,0,0.9,133.51373,249.58775)">
    <path
       style="fill:#ffffff;stroke-width:1.33333"
       d="m 736.00001,2399.1318 c -2.56667,-0.255 -7.866,-0.8132 -11.77631,-1.2407 l -7.10964,-0.7771 -2.45808,-2.458 -2.45806,-2.4581 0.74568,-2.8515 c 0.41012,-1.5682 2.06538,-3.7161 3.67838,-4.773 5.97655,-3.916 29.43186,-8.602 62.71136,-12.5287 17.2392,-2.034 62.35572,-6.5152 73.4462,-7.2949 5.19542,-0.3654 10.29542,-0.9624 11.33334,-1.3268 1.03792,-0.3644 12.08713,-1.5918 24.5538,-2.7275 12.46666,-1.1359 28.06666,-2.6515 34.66666,-3.3681 48.09681,-5.2226 69.69526,-8.0527 79.33336,-10.3952 3.3,-0.8022 8.2667,-1.8203 11.037,-2.2627 l 5.0371,-0.8043 -0.7824,-1.2658 -0.7824,-1.266 -15.588,0.013 c -23.31789,0.019 -70.35022,2.6089 -108.92132,6.0001 -3.66667,0.3224 -17.16667,1.4792 -30,2.5706 -21.27866,1.8097 -43.15159,3.7517 -83.33334,7.399 -34.85161,3.1635 -79.97028,4.9459 -87.83801,3.4699 l -4.95137,-0.9289 -1.468,-3.2219 -1.468,-3.222 1.71304,-2.064 c 4.85429,-5.8491 24.06004,-9.9324 75.34568,-16.0193 15.4,-1.8278 30.23033,-3.6284 32.95629,-4.0015 2.72596,-0.3731 19.52596,-2.1564 37.33333,-3.9629 17.80738,-1.8067 38.37704,-3.8956 45.71038,-4.6424 7.33333,-0.7467 16.03333,-1.6248 19.33333,-1.9512 8.07387,-0.7988 39.46086,-4.415 52.66667,-6.0679 5.86667,-0.7343 13.36667,-1.6183 16.66667,-1.9644 3.3,-0.346 7.8,-1.1585 10,-1.8053 l 4,-1.1763 -10,-0.93 c -12.61362,-1.1731 -28.08191,-1.7216 -99.2397,-3.5196 -31.48184,-0.7955 -57.80041,-1.7929 -58.48571,-2.2164 -0.6853,-0.4236 -0.94528,-3.0123 -0.57772,-5.7527 l 0.66831,-4.9825 -15.79221,-17.178 -15.7922,-17.1779 -0.84714,-4.2001 c -0.46592,-2.3101 -0.63337,-5.3101 -0.37212,-6.6667 l 0.475,-2.4665 h 37.31508 37.31507 l 0.3892,4 0.3892,4 -9.72253,12.0119 c -9.74695,12.042 -11.91019,14.6634 -18.72254,22.6878 -2.01666,2.3755 -3.66666,4.8976 -3.66666,5.605 v 1.2858 l 41.66666,0.9088 c 95.33237,2.0795 125.93701,4.9306 134.66667,12.5454 7.79209,6.7969 -5.58553,12.1109 -39.50324,15.6918 -2.28988,0.2418 -14.66342,1.7086 -27.49676,3.2594 -12.83333,1.5509 -29.03333,3.3506 -36,3.9994 -31.76296,2.9579 -44.92221,4.3278 -76.66667,7.981 -13.2,1.519 -29.7,3.3545 -36.66666,4.0786 -16.44847,1.7099 -42.86454,5.0524 -51.33334,6.4955 l -6.66666,1.136 6.66666,0.1481 c 3.66667,0.081 17.16667,-0.7234 30,-1.7886 43.52271,-3.6127 71.28839,-5.9928 86,-7.3723 8.06667,-0.7564 22.46667,-1.9645 32,-2.6848 9.53334,-0.7204 23.93334,-1.906 32,-2.6349 30.18418,-2.7274 59.43375,-4.1036 84.00001,-3.9524 l 25.33335,0.1561 5.2,1.7995 c 5.7288,1.9825 7.4155,3.8428 7.4462,8.2128 l 0.02,2.9032 -3.5434,2.7873 c -3.3191,2.6108 -13.0262,6.0524 -21.3054,7.5537 -1.997,0.3622 -4.1252,0.9639 -4.7294,1.3372 -0.6041,0.3734 -5.14611,1.1726 -10.09339,1.7759 -4.94727,0.6035 -18.29504,2.3424 -29.66171,3.8645 -22.38103,2.9971 -63.94175,7.5912 -80,8.8432 -5.5,0.4288 -11.8,1.0671 -14,1.4184 -2.2,0.3514 -10.3,1.2099 -18,1.908 -31.13576,2.8227 -68.66898,6.9366 -91.82078,10.064 -13.46809,1.8195 -25.01809,3.308 -25.66666,3.308 -0.64858,0 -1.17923,0.6766 -1.17923,1.5036 v 1.5035 L 826,2390.4342 918.66666,2389.86 v 2.2407 c 0,1.2324 -0.8093,2.9124 -1.79846,3.7333 l -1.79846,1.4926 -24.73036,1.2885 C 867.60932,2399.7995 746.79009,2400.205 736,2399.133 Z m 305.33329,-176.4304 v -85.368 H 1128 h 86.6667 v 18.588 18.588 l -1.6667,1.0309 c -0.9167,0.5671 -30.4667,1.3525 -65.6667,1.7455 l -64,0.7142 -0.3852,11.6667 -0.3852,11.6667 h 38.7515 38.7516 l 1.3388,3.5212 1.3387,3.5212 -0.3717,16.8121 L 1162,2242 l -39.643,0.3532 -39.643,0.3531 -0.357,32.3136 -0.357,32.3135 -20.3333,0.368 -20.3334,0.3681 z m 194.2223,84.4097 c -0.4889,-0.4888 -0.8889,-38.8888 -0.8889,-85.3333 v -84.4444 h 21.9873 21.9873 l 0.346,65 0.346,65 47.7772,0.2216 c 26.2774,0.1213 48.0221,0.4665 48.3214,0.7658 0.4371,0.437 0.9681,31.51 0.6497,38.0126 l -0.081,1.6666 h -69.7778 c -38.3778,0 -70.1778,-0.4 -70.6667,-0.8889 z m 162.076,-19.1883 0.3684,-20.1889 86.1972,0.1519 86.1971,0.1518 3.3388,-1.2694 3.3389,-1.2695 1.569,-4.7539 1.5689,-4.754 -0.92,-4.3288 c -0.506,-2.3808 -1.8461,-5.3786 -2.9783,-6.662 l -2.0582,-2.3333 h -62.8891 -62.8892 l -6.5709,-2.1996 c -15.4386,-5.1681 -27.9792,-17.8657 -33.1803,-33.5957 l -2.3571,-7.1288 0.5942,-12.8712 0.594,-12.8714 3.3722,-7.3333 c 4.5178,-9.8237 12.926,-19.0048 22.5955,-24.6719 l 7.9536,-4.6614 H 1504.7382 1568 v 20 20 h -56.4118 -56.4118 l -2.429,1.7761 -2.4291,1.7763 -0.66,6.8688 -0.66,6.8688 2.1591,3.2952 2.159,3.2952 64.3419,0.4596 64.3417,0.4596 5.8783,2.3332 c 16.996,6.746 27.3629,17.498 32.5748,33.7844 l 2.2136,6.9172 v 10.1656 10.1656 l -2.1992,6.9172 c -1.2095,3.8044 -3.0095,7.8644 -4,9.0221 -0.9904,1.1577 -1.8008,2.7792 -1.8008,3.6032 0,2.9703 -13.3643,14.7779 -20.9323,18.494 l -7.7344,3.7979 -94.3684,0.3892 -94.3682,0.3892 z m 272.9692,18.2612 c -14.5482,-3.9236 -29.0184,-18.8126 -33.8889,-34.8697 l -2.0164,-6.6476 -0.015,-63.6997 -0.015,-63.6996 21.6666,0.3662 21.6667,0.3664 0.3463,62.8475 0.3462,62.8475 2.19,1.8192 2.1899,1.8192 47.4639,0.4162 c 26.105,0.2291 50.0176,0.041 53.139,-0.4162 l 5.6754,-0.8327 1.9913,-3.8508 1.9913,-3.8508 v -19.3995 c 0,-10.6698 0.45,-19.3945 1,-19.3884 0.9072,0.013 26.9279,21.4928 37.2355,30.7416 l 4.2355,3.8004 -0.6151,7.1724 c -1.1775,13.7322 -8.2167,26.8158 -19.3085,35.889 l -5.8807,4.8104 -8.2913,2.7874 -8.2912,2.7876 -58.3755,-0.091 -58.3753,-0.089 -6.0659,-1.636 z m 258.5816,-4.5764 c -3.2169,-3.5157 -7.9453,-8.7657 -10.5073,-11.6666 -2.5621,-2.9008 -11.49,-12.7743 -19.8399,-21.941 -21.4714,-23.572 -35.0646,-38.5461 -49.5742,-54.6105 l -12.5943,-13.944 -0.7173,14.8835 c -0.3944,8.1858 -1.1168,15.2829 -1.6052,15.7713 -0.7047,0.7048 -9.9155,-5.4772 -13.0108,-8.7325 -1.3115,-1.3792 -16.7727,-14.2023 -22.3334,-18.5226 l -5.6666,-4.4026 v -30.5546 -30.5546 l 21,0.043 21,0.043 2.0216,1.6243 c 1.1118,0.8933 7.0501,7.3242 13.196,14.2909 6.146,6.9667 15.2484,17.206 20.2276,22.7543 4.9792,5.5481 13.441,15.1901 18.804,21.4268 8.8668,10.3112 25.5845,29.2545 36.3176,41.1522 22.5325,24.9776 59.4332,67.5391 59.4332,68.5507 0,0.4304 -11.3179,0.7827 -25.151,0.7827 h -25.1508 l -5.8492,-6.3924 z m 18.6983,-78.6008 c -19.9936,-23.287 -38.796,-45.1118 -41.7831,-48.4994 -2.9869,-3.3876 -6.8746,-7.8876 -8.6392,-10 -1.7644,-2.1124 -7.3144,-8.4946 -12.3333,-14.1824 -5.0188,-5.688 -9.1251,-10.938 -9.1251,-11.6667 v -1.3249 h 55.3334 55.3333 v 63.2546 63.2547 l -1.2169,0.7521 c -0.6694,0.4136 -17.5755,-18.3009 -37.5691,-41.588 z M 766.59932,2239.4 l -1.26598,-1.2666 v -18.9799 c 0,-10.4389 0.58148,-20.5093 1.29218,-22.3785 l 1.29217,-3.3987 47.31592,0.013 47.31593,0.013 0.72884,1.1793 c 0.40087,0.6487 1.12144,11.134 1.6013,23.3008 l 0.87244,22.1215 -1.20939,0.013 c -0.66516,0 -22.68971,0.1549 -48.94341,0.3333 l -47.73404,0.3243 -1.26596,-1.2667 z m 2.40069,-52.355 -3.66667,-0.5554 v -4.5944 -4.5942 l 49.57954,0.3494 49.57952,0.3496 0.47514,4.1635 0.47515,4.1636 -3.05467,0.8183 c -3.33229,0.8926 -87.42966,0.8022 -93.38801,-0.1 z m -2,-15.928 c -1.8656,-0.7528 -2.19449,-5.5544 -0.55712,-8.1339 l 1.06871,-1.6835 48.46137,0.3502 48.46137,0.3502 0.20675,4 c 0.11373,2.2 -0.434,4.4408 -1.21716,4.9796 -1.57253,1.0819 -93.75785,1.2132 -96.42392,0.1374 z m -0.1068,-16.282 -1.77343,-1.1243 0.4401,-3.8553 0.4401,-3.8554 48.84628,-0.3496 48.84628,-0.3496 0.65043,4.3496 0.65043,4.3496 -1.49671,0.9796 c -2.09409,1.3706 -94.43143,1.2323 -96.60348,-0.1446 z m 0.69735,-15.8039 -2.40943,-0.5892 0.40943,-4.2209 0.40942,-4.221 48.58311,-0.3502 48.58311,-0.3502 1.10022,1.1002 c 0.60512,0.6052 0.71938,3.0045 0.25391,5.3318 l -0.84633,4.2316 -46.837,-0.1714 c -25.76036,-0.095 -47.92126,-0.4366 -49.24644,-0.7607 z m -6.25722,-17.9843 c -15.90178,-4.5921 -26.6179,-8.6264 -30.8633,-11.6188 -17.14899,-12.0877 -35.81222,-25.7585 -39.7691,-29.1306 l -4.6324,-3.9479 7.54414,-4.8259 c 4.14928,-2.6542 7.91926,-5.4329 8.37776,-6.1748 0.45849,-0.7418 1.96266,-1.3488 3.34261,-1.3488 h 2.50899 l 7.74565,9.5452 c 7.66839,9.45 15.91217,19.1728 23.19011,27.3506 l 3.76369,4.2289 7.0626,-2.7067 c 3.88443,-1.4886 15.46259,-5.6044 25.72925,-9.1461 l 18.66667,-6.4393 25.00879,-0.044 25.0088,-0.044 14.9912,5.1832 c 8.24517,2.8506 18.57641,6.4858 22.9583,8.0781 l 7.96711,2.8951 4.03289,-4.5167 c 2.21811,-2.4841 9.93131,-11.556 17.14048,-20.1596 l 13.10756,-15.6429 4.22578,2.5218 c 2.32416,1.387 6.77576,3.9164 9.89243,5.6211 l 5.66666,3.0993 -0.0443,2.0878 -0.0443,2.0878 -11.62247,8.4038 c -6.39235,4.6221 -17.28405,12.5117 -24.20379,17.5326 l -12.58134,9.1288 -12.08532,3.5636 c -6.64694,1.9602 -13.46356,4.1204 -15.14807,4.8008 l -3.06275,1.2371 -49.60392,-0.1361 -49.60393,-0.1362 -4.66667,-1.3476 z m 105.10006,-10.2922 c 6.10504,-1.3806 11.37428,-2.7844 11.70942,-3.1196 0.66572,-0.6658 -0.44424,-1.1139 -20.25024,-8.1759 l -13.44074,-4.7924 H 819.4433 794.43477 l -14.88405,5.1923 c -19.18192,6.6916 -23.18408,8.3513 -21.55071,8.937 0.73333,0.263 4.63333,1.352 8.66667,2.42 l 7.33333,1.9419 40.66667,0.053 40.66666,0.053 11.10006,-2.5104 z m -129.74644,-23.0928 c -3.65552,-4.5807 -7.03351,-8.6284 -7.50664,-8.9951 -2.90264,-2.2495 -17.1007,-20.9023 -16.74591,-22 1.53501,-4.7495 37.80824,-27.3333 43.90165,-27.3333 1.10226,0 2.61398,-0.75 3.35938,-1.6667 L 761.0507,2026 747.21809,2016 c -7.60793,-5.5 -13.84433,-10.6981 -13.85868,-11.5514 -0.0248,-1.477 17.61908,-12.4486 20.01919,-12.4486 0.6294,0 6.99221,6.9223 14.13961,15.383 l 12.99527,15.3828 4.0766,-1.002 c 5.82714,-1.4323 46.2252,-0.7036 58.0766,1.0476 l 10,1.4777 6.4768,-7.1445 c 3.56224,-3.9295 9.7378,-11.1946 13.72345,-16.1446 3.98567,-4.95 7.98479,-9 8.88695,-9 0.90214,0 4.82896,2.1 8.72625,4.6667 3.89728,2.5667 7.56013,4.6667 8.13967,4.6667 0.57953,0 1.75477,0.8448 2.61165,1.8772 l 1.55795,1.8772 -16.10263,11.7841 -16.10264,11.7841 4.37461,1.874 c 11.84091,5.0723 27.0335,12.9318 31.44575,16.2675 10.43075,7.8857 12.26219,9.4364 12.26219,10.3825 0,1.121 -28.56319,35.52 -30.47516,36.7016 -0.69388,0.429 -5.67083,-1.0169 -11.05988,-3.213 -5.38907,-2.196 -10.3983,-3.9986 -11.13163,-4.0055 -0.73333,-0.013 -2.85969,-0.8095 -4.72524,-1.7829 -5.67225,-2.9603 -11.46963,-3.5824 -40.60593,-4.3576 l -28.00216,-0.7451 -13.33334,4.8404 c -16.26178,5.9036 -32.86352,11.3439 -34.66666,11.3601 -0.73334,0 -4.32422,-3.7357 -7.97972,-8.3162 z m 27.04638,-34.5951 c 2.45968,-2.4597 1.90292,-6.144 -1.17758,-7.7927 l -2.77758,-1.4865 -2.55576,2.3129 c -3.18038,2.8782 -3.2578,5.3582 -0.22241,7.1262 3.10359,1.8077 4.80623,1.7672 6.73333,-0.1599 z m 106.88023,-0.336 1.60676,-1.936 -0.82759,-2.6075 c -0.45517,-1.4341 -1.84948,-2.9996 -3.09848,-3.4789 l -2.2709,-0.8715 -2.37947,2.9386 -2.37947,2.9385 2.24111,2.4764 c 2.69407,2.9769 4.94395,3.148 7.10804,0.5404 z"
       id="path22" />
  </g>
</svg>
