<svg xmlns="http://www.w3.org/2000/svg" width="606.6" height="527.2" viewBox="0 0 606.6 527.2">
  <title>BIBO2_new</title>
  <line y2="527.2" style="fill: none;stroke: #fff;stroke-linecap: round;stroke-linejoin: round;stroke-width: 1.41999995708466px"/>
  <line x1="141.7" x2="141.7" y2="514.7" style="fill: none;stroke: #fff;stroke-linecap: round;stroke-linejoin: round;stroke-width: 1.41999995708466px"/>
  <line x1="283.5" x2="283.5" y2="514.7" style="fill: none;stroke: #fff;stroke-linecap: round;stroke-linejoin: round;stroke-width: 1.41999995708466px"/>
  <line x1="425.2" x2="425.2" y2="514.7" style="fill: none;stroke: #fff;stroke-linecap: round;stroke-linejoin: round;stroke-width: 1.41999995708466px"/>
  <line x1="566.9" x2="566.9" y2="514.7" style="fill: none;stroke: #fff;stroke-linecap: round;stroke-linejoin: round;stroke-width: 1.41999995708466px"/>
  <line x1="606.6" y1="514.7" x2="606.6" style="fill: none;stroke: #fff;stroke-linecap: round;stroke-linejoin: round;stroke-width: 1.41999995708466px"/>
  <line x1="11.6" y1="513.1" x2="606.6" y2="513.1" style="fill: none;stroke: #fff;stroke-linecap: round;stroke-linejoin: round;stroke-width: 1.41999995708466px"/>
  <line y1="527.2" x2="606.6" y2="527.2" style="fill: none;stroke: #fff;stroke-linecap: round;stroke-linejoin: round;stroke-width: 1.41999995708466px"/>
  <line x1="11.6" y1="371.3" x2="606.6" y2="371.3" style="fill: none;stroke: #fff;stroke-linecap: round;stroke-linejoin: round;stroke-width: 1.41999995708466px"/>
  <line x1="11.6" y1="229.6" x2="606.6" y2="229.6" style="fill: none;stroke: #fff;stroke-linecap: round;stroke-linejoin: round;stroke-width: 1.41999995708466px"/>
  <line x1="11.6" y1="87.9" x2="606.6" y2="87.9" style="fill: none;stroke: #fff;stroke-linecap: round;stroke-linejoin: round;stroke-width: 1.41999995708466px"/>
  <line x1="606.6" style="fill: none;stroke: #fff;stroke-linecap: round;stroke-linejoin: round;stroke-width: 1.41999995708466px"/>
  <line x1="85" x2="85" y2="514.7" style="fill: none;stroke: #fff;stroke-linecap: round;stroke-linejoin: round;stroke-width: 0.370000004768372px"/>
  <line x1="113.4" x2="113.4" y2="514.7" style="fill: none;stroke: #fff;stroke-linecap: round;stroke-linejoin: round;stroke-width: 0.370000004768372px"/>
  <line x1="170.1" x2="170.1" y2="514.7" style="fill: none;stroke: #fff;stroke-linecap: round;stroke-linejoin: round;stroke-width: 0.370000004768372px"/>
  <line x1="198.4" x2="198.4" y2="514.7" style="fill: none;stroke: #fff;stroke-linecap: round;stroke-linejoin: round;stroke-width: 0.370000004768372px"/>
  <line x1="226.8" x2="226.8" y2="514.7" style="fill: none;stroke: #fff;stroke-linecap: round;stroke-linejoin: round;stroke-width: 0.370000004768372px"/>
  <line x1="255.1" x2="255.1" y2="514.7" style="fill: none;stroke: #fff;stroke-linecap: round;stroke-linejoin: round;stroke-width: 0.370000004768372px"/>
  <line x1="311.8" x2="311.8" y2="514.7" style="fill: none;stroke: #fff;stroke-linecap: round;stroke-linejoin: round;stroke-width: 0.370000004768372px"/>
  <line x1="340.2" x2="340.2" y2="514.7" style="fill: none;stroke: #fff;stroke-linecap: round;stroke-linejoin: round;stroke-width: 0.370000004768372px"/>
  <line x1="368.5" x2="368.5" y2="514.7" style="fill: none;stroke: #fff;stroke-linecap: round;stroke-linejoin: round;stroke-width: 0.370000004768372px"/>
  <line x1="396.9" x2="396.9" y2="514.7" style="fill: none;stroke: #fff;stroke-linecap: round;stroke-linejoin: round;stroke-width: 0.370000004768372px"/>
  <line x1="453.5" x2="453.5" y2="514.7" style="fill: none;stroke: #fff;stroke-linecap: round;stroke-linejoin: round;stroke-width: 0.370000004768372px"/>
  <line x1="481.9" x2="481.9" y2="514.7" style="fill: none;stroke: #fff;stroke-linecap: round;stroke-linejoin: round;stroke-width: 0.370000004768372px"/>
  <line x1="510.2" x2="510.2" y2="514.7" style="fill: none;stroke: #fff;stroke-linecap: round;stroke-linejoin: round;stroke-width: 0.370000004768372px"/>
  <line x1="538.6" x2="538.6" y2="514.7" style="fill: none;stroke: #fff;stroke-linecap: round;stroke-linejoin: round;stroke-width: 0.370000004768372px"/>
  <line x1="595.3" x2="595.3" y2="514.7" style="fill: none;stroke: #fff;stroke-linecap: round;stroke-linejoin: round;stroke-width: 0.370000004768372px"/>
  <line x1="28.3" x2="28.3" y2="514.7" style="fill: none;stroke: #fff;stroke-linecap: round;stroke-linejoin: round;stroke-width: 0.370000004768372px"/>
  <line x1="56.7" x2="56.7" y2="514.7" style="fill: none;stroke: #fff;stroke-linecap: round;stroke-linejoin: round;stroke-width: 0.370000004768372px"/>
  <line x1="11.6" y1="399.7" x2="606.6" y2="399.7" style="fill: none;stroke: #fff;stroke-linecap: round;stroke-linejoin: round;stroke-width: 0.370000004768372px"/>
  <line x1="11.6" y1="428" x2="606.6" y2="428" style="fill: none;stroke: #fff;stroke-linecap: round;stroke-linejoin: round;stroke-width: 0.370000004768372px"/>
  <line x1="11.6" y1="456.4" x2="606.6" y2="456.4" style="fill: none;stroke: #fff;stroke-linecap: round;stroke-linejoin: round;stroke-width: 0.370000004768372px"/>
  <line x1="11.6" y1="484.7" x2="606.6" y2="484.7" style="fill: none;stroke: #fff;stroke-linecap: round;stroke-linejoin: round;stroke-width: 0.370000004768372px"/>
  <line x1="11.6" y1="343" x2="606.6" y2="343" style="fill: none;stroke: #fff;stroke-linecap: round;stroke-linejoin: round;stroke-width: 0.370000004768372px"/>
  <line x1="11.6" y1="314.7" x2="606.6" y2="314.7" style="fill: none;stroke: #fff;stroke-linecap: round;stroke-linejoin: round;stroke-width: 0.370000004768372px"/>
  <line x1="11.6" y1="286.3" x2="606.6" y2="286.3" style="fill: none;stroke: #fff;stroke-linecap: round;stroke-linejoin: round;stroke-width: 0.370000004768372px"/>
  <line x1="11.6" y1="258" x2="606.6" y2="258" style="fill: none;stroke: #fff;stroke-linecap: round;stroke-linejoin: round;stroke-width: 0.370000004768372px"/>
  <line x1="11.6" y1="201.3" x2="606.6" y2="201.3" style="fill: none;stroke: #fff;stroke-linecap: round;stroke-linejoin: round;stroke-width: 0.370000004768372px"/>
  <line x1="11.6" y1="172.9" x2="606.6" y2="172.9" style="fill: none;stroke: #fff;stroke-linecap: round;stroke-linejoin: round;stroke-width: 0.370000004768372px"/>
  <line x1="11.6" y1="144.6" x2="606.6" y2="144.6" style="fill: none;stroke: #fff;stroke-linecap: round;stroke-linejoin: round;stroke-width: 0.370000004768372px"/>
  <line x1="11.6" y1="116.2" x2="606.6" y2="116.2" style="fill: none;stroke: #fff;stroke-linecap: round;stroke-linejoin: round;stroke-width: 0.370000004768372px"/>
  <line x1="11.6" y1="59.5" x2="606.6" y2="59.5" style="fill: none;stroke: #fff;stroke-linecap: round;stroke-linejoin: round;stroke-width: 0.370000004768372px"/>
  <line x1="11.6" y1="31.2" x2="606.6" y2="31.2" style="fill: none;stroke: #fff;stroke-linecap: round;stroke-linejoin: round;stroke-width: 0.370000004768372px"/>
  <line x1="11.6" y1="2.8" x2="606.6" y2="2.8" style="fill: none;stroke: #fff;stroke-linecap: round;stroke-linejoin: round;stroke-width: 0.370000004768372px"/>
  <path d="M26.4,519.7H27l.5-.2a.5.5,0,0,0,.4-.3c.1-.1.1-.2.2-.4h.7v5.6h-1v-4H26.4Z" style="fill: #fff"/>
  <path d="M58.1,524.4H54.3a2.7,2.7,0,0,1,.3-1.2,3.8,3.8,0,0,1,.9-.9l.6-.4.6-.4.4-.5a1.3,1.3,0,0,0,.1-.6v-.3a.4.4,0,0,0-.1-.3l-.3-.2-.5-.2-.4.2a.3.3,0,0,0-.3.3.5.5,0,0,0-.2.4v.6h-1c0-.3.1-.6.1-.9a4.3,4.3,0,0,1,.4-.7l.6-.4a1.7,1.7,0,0,1,1.7,0l.6.4.3.5c0,.2.1.4.1.6a1.4,1.4,0,0,1-.2.6.8.8,0,0,1-.2.5c-.1.2-.3.3-.4.4l-.5.4-.5.3-.4.3-.4.3c-.1.1-.1.3-.2.4h2.7Z" style="fill: #fff"/>
  <path d="M84.2,521.1h.4l.4-.2.3-.2a.9.9,0,0,0,.1-.5,1.4,1.4,0,0,0-.2-.6,1.2,1.2,0,0,0-1-.1l-.3.3a.5.5,0,0,0-.2.4v.4h-.9a2.2,2.2,0,0,1,.1-.8l.4-.6.6-.4h1.4l.6.2.4.5a1.5,1.5,0,0,1,.1.7,1,1,0,0,1-.2.7,1,1,0,0,1-.6.5h0a1.2,1.2,0,0,1,.8.4,2,2,0,0,1,.1,1.7l-.4.5-.7.4h-.7l-.9-.2-.6-.4a.9.9,0,0,1-.4-.6,1.9,1.9,0,0,1-.1-.8h.9a1.6,1.6,0,0,0,.3.9,1,1,0,0,0,.8.3l.7-.2a1.1,1.1,0,0,0,.3-.8.9.9,0,0,0-.1-.5l-.3-.3h-1Z" style="fill: #fff"/>
  <path d="M114.7,523H114v1.4h-.9v-1.3h-2.4v-.9l2.4-3.4h.9v3.6h.7Zm-3.3-.7h1.7v-2.5h0Z" style="fill: #fff"/>
  <path d="M140,518.8h2.9v.8h-2.2l-.3,1.4h0a.9.9,0,0,1,.5-.3h1.3a1,1,0,0,1,.5.4,2.1,2.1,0,0,1,.4.6,1.7,1.7,0,0,1,.1.7,1.5,1.5,0,0,1-.1.7l-.3.7a1.8,1.8,0,0,1-1.5.6h-.8a.9.9,0,0,1-.6-.3,1,1,0,0,1-.4-.5,1.9,1.9,0,0,1-.2-.8h.9a.8.8,0,0,0,.3.7,1.1,1.1,0,0,0,.8.3h.4l.4-.3c0-.1.1-.2.1-.4a.6.6,0,0,0,.1-.4.9.9,0,0,0-.1-.5.8.8,0,0,0-.2-.4l-.3-.2h-1l-.4.4h-.9Z" style="fill: #fff"/>
  <path d="M170.4,520.2a1.4,1.4,0,0,0-.2-.6l-.6-.2h-.4l-.3.2a.8.8,0,0,0-.2.4.6.6,0,0,0-.1.4.6.6,0,0,1-.1.4v.4h0a1.2,1.2,0,0,1,.5-.5h1.4a1.3,1.3,0,0,1,.6.4.9.9,0,0,1,.3.6,1.9,1.9,0,0,1,.2.7,1.9,1.9,0,0,1-.2.8c0,.2-.2.4-.3.6l-.6.4-.8.2a1.9,1.9,0,0,1-1-.3,1.2,1.2,0,0,1-.6-.6,1.6,1.6,0,0,1-.3-.9,4.9,4.9,0,0,1-.1-1.2,3.8,3.8,0,0,1,.1-1l.3-.9a2.3,2.3,0,0,1,.7-.7,1.7,1.7,0,0,1,1-.3l.6.2a.5.5,0,0,1,.5.3l.4.4a1.4,1.4,0,0,1,.2.7Zm-.9,3.5h.5c.1-.1.2-.1.3-.3l.2-.3v-.9c-.1-.1-.1-.3-.2-.4l-.3-.2h-.9l-.3.2c-.1.1-.1.3-.2.4s-.1.3-.1.4.1.3.1.5l.2.4.3.2Z" style="fill: #fff"/>
  <path d="M196,518.8h3.8v.7l-.8,1-.6,1.1a6.5,6.5,0,0,0-.4,1.3l-.3,1.4h-1l.3-1.3c.1-.4.3-.8.4-1.2a12.7,12.7,0,0,1,.7-1.2,7.6,7.6,0,0,1,.8-1.1H196Z" style="fill: #fff"/>
  <path d="M226.3,524.5l-.8-.2a.9.9,0,0,1-.6-.3l-.5-.6a1.7,1.7,0,0,1-.1-.7,1.2,1.2,0,0,1,.3-.9c.1-.3.4-.4.7-.5h0l-.6-.5a1.4,1.4,0,0,1-.2-.7,1.6,1.6,0,0,1,.5-1.1,2.4,2.4,0,0,1,2.6,0,1.5,1.5,0,0,1,.4,1.1,1.4,1.4,0,0,1-.2.7,1.5,1.5,0,0,1-.6.5h0a1.4,1.4,0,0,1,.8.5,2,2,0,0,1,.2.9,1.7,1.7,0,0,1-.1.7l-.4.6-.7.3Zm0-.8a.8.8,0,0,0,.8-.2,1.1,1.1,0,0,0,.3-.8.9.9,0,0,0-.3-.7,1.2,1.2,0,0,0-1.6,0,.9.9,0,0,0-.3.7,1.1,1.1,0,0,0,.3.8A.8.8,0,0,0,226.3,523.7Zm0-4.3c-.2,0-.5,0-.6.2a.8.8,0,0,0,0,1.2.9.9,0,0,0,1.2,0,.7.7,0,0,0,0-1.2c-.1-.2-.4-.2-.6-.2Z" style="fill: #fff"/>
  <path d="M253.8,522.9a.9.9,0,0,0,.3.6.8.8,0,0,0,.6.2l.5-.2a1,1,0,0,0,.4-.5c.1-.2.1-.4.2-.6v-.6h0a1.2,1.2,0,0,1-.5.5l-.7.2-.7-.2-.6-.4a1.6,1.6,0,0,1-.3-.6,1.9,1.9,0,0,1-.2-.7,1.9,1.9,0,0,1,.2-.8,2.1,2.1,0,0,1,.4-.6.9.9,0,0,1,.6-.4l.8-.2a1.9,1.9,0,0,1,1,.3,1.7,1.7,0,0,1,.6.6l.3.9c0,.4.1.8.1,1.2s-.1.7-.1,1a3.6,3.6,0,0,1-.4.9l-.6.7a1.9,1.9,0,0,1-1,.3H254a1,1,0,0,1-.5-.4,1.3,1.3,0,0,1-.5-1.1Zm.9-3.5h-.4l-.3.2c-.1.2-.2.3-.2.4s-.1.3-.1.4.1.3.1.5a.8.8,0,0,0,.2.4l.3.2h.9l.3-.2c.1-.2.1-.3.2-.4v-.9l-.2-.4-.3-.2Z" style="fill: #fff"/>
  <path d="M278.1,519.7h.5l.5-.2c.2,0,.3-.1.4-.3a.5.5,0,0,0,.2-.4h.7v5.6h-1v-4H278Z" style="fill: #fff"/>
  <path d="M284.3,518.6a1.7,1.7,0,0,1,1,.3,1.3,1.3,0,0,1,.6.7,1.7,1.7,0,0,1,.3,1,6.7,6.7,0,0,1,0,2,1.6,1.6,0,0,1-.3.9,1.3,1.3,0,0,1-.6.7,1.7,1.7,0,0,1-1,.3,1.9,1.9,0,0,1-1-.3,1.8,1.8,0,0,1-.5-.7,1.6,1.6,0,0,1-.3-.9,6.7,6.7,0,0,1,0-2,1.7,1.7,0,0,1,.3-1,1.8,1.8,0,0,1,.5-.7A1.9,1.9,0,0,1,284.3,518.6Zm0,5.1c.2,0,.4,0,.5-.2a.8.8,0,0,0,.4-.4c0-.2.1-.5.1-.7a4.9,4.9,0,0,0,0-1.7c0-.2-.1-.4-.1-.7l-.4-.4-.5-.2-.5.2-.3.4a2,2,0,0,0-.1.7,4.9,4.9,0,0,0,0,1.7,1.7,1.7,0,0,0,.1.7l.3.4A.6.6,0,0,0,284.3,523.7Z" style="fill: #fff"/>
  <path d="M307.2,519.7h.6l.5-.2a.5.5,0,0,0,.4-.3c.1-.1.1-.2.2-.4h.7v5.6h-1v-4h-1.4Z" style="fill: #fff"/>
  <path d="M311.7,519.7h.6l.4-.2c.2,0,.3-.1.4-.3a.5.5,0,0,0,.2-.4h.8v5.6h-1v-4h-1.4Z" style="fill: #fff"/>
  <path d="M334.8,519.7h.5l.5-.2c.2,0,.3-.1.4-.3a.5.5,0,0,0,.2-.4h.7v5.6h-1v-4h-1.3Z" style="fill: #fff"/>
  <path d="M342.9,524.4h-3.8a1.9,1.9,0,0,1,.4-1.2,2,2,0,0,1,.9-.9l.5-.4.6-.4.4-.5a1.3,1.3,0,0,0,.1-.6.2.2,0,0,0,0-.3.4.4,0,0,0-.1-.3l-.3-.2-.5-.2-.4.2-.3.3-.2.4v.6h-.9a2.8,2.8,0,0,1,.1-.9,1.6,1.6,0,0,1,.4-.7.9.9,0,0,1,.6-.4,1.7,1.7,0,0,1,1.6,0l.6.4.3.5a1.9,1.9,0,0,1,0,1.2l-.3.5a.8.8,0,0,1-.4.4l-.5.4-.4.3-.5.3-.3.3-.3.4H343Z" style="fill: #fff"/>
  <path d="M363.1,519.7h.6l.5-.2q.2,0,.3-.3c.2-.1.2-.2.3-.4h.7v5.6h-1v-4h-1.4Z" style="fill: #fff"/>
  <path d="M369,521.1h.4l.4-.2.3-.2a.9.9,0,0,0,.1-.5,1.4,1.4,0,0,0-.2-.6l-.7-.2h-.4l-.3.3c0,.1-.1.2-.1.4s-.1.2,0,.4h-1c.1-.3.1-.5.2-.8a2.1,2.1,0,0,1,.4-.6.9.9,0,0,1,.6-.4h1.4l.5.2.4.5a1.4,1.4,0,0,1,.2.7,1.9,1.9,0,0,1-.2.7,1.5,1.5,0,0,1-.6.5h0a.8.8,0,0,1,.7.4,1.7,1.7,0,0,1,.1,1.7,1,1,0,0,1-.4.5l-.6.4h-.8l-.8-.2a.7.7,0,0,1-.6-.4.9.9,0,0,1-.4-.6c-.1-.2-.1-.5-.2-.8h1a1,1,0,0,0,.2.9,1.1,1.1,0,0,0,.8.3l.8-.2a1.3,1.3,0,0,0,.2-1.3l-.4-.3h-1Z" style="fill: #fff"/>
  <path d="M391.3,519.7h.6l.5-.2a.5.5,0,0,0,.4-.3c.1-.1.1-.2.2-.4h.7v5.6h-1v-4h-1.4Z" style="fill: #fff"/>
  <path d="M399.5,523h-.7v1.4h-.9v-1.3h-2.4v-.9l2.4-3.4h.9v3.6h.7Zm-3.2-.7h1.6v-2.5h0Z" style="fill: #fff"/>
  <path d="M419.8,519.7h.6l.5-.2q.2,0,.3-.3c.2-.1.2-.2.2-.4h.8v5.6h-1v-4h-1.4Z" style="fill: #fff"/>
  <path d="M424.8,518.8h2.9v.8h-2.2l-.3,1.4h0a.9.9,0,0,1,.5-.3H427a1,1,0,0,1,.5.4,2.1,2.1,0,0,1,.4.6,1.7,1.7,0,0,1,.1.7,1.5,1.5,0,0,1-.1.7l-.3.7-.7.5a1.1,1.1,0,0,1-.8.1h-.8a.9.9,0,0,1-.6-.3,1,1,0,0,1-.4-.5,1.9,1.9,0,0,1-.2-.8h.9a1.1,1.1,0,0,0,1,1h.5l.3-.3a.5.5,0,0,0,.2-.4c0-.1.1-.3.1-.4s-.1-.3-.1-.5a.8.8,0,0,0-.2-.4l-.3-.2h-1.1c-.1.1-.3.2-.3.4h-.9Z" style="fill: #fff"/>
  <path d="M448.2,519.7h.5l.5-.2c.2,0,.3-.1.4-.3a.5.5,0,0,0,.2-.4h.7v5.6h-1v-4h-1.3Z" style="fill: #fff"/>
  <path d="M455.4,520.2c-.1-.2-.1-.4-.3-.6l-.6-.2a.9.9,0,0,0-.7.3.8.8,0,0,0-.2.4.6.6,0,0,0-.1.4.6.6,0,0,0-.1.4v.4h0a1.2,1.2,0,0,1,.5-.5h1.5a1,1,0,0,1,.5.4,2.1,2.1,0,0,1,.4.6,1.7,1.7,0,0,1,.1.7c0,.3-.1.6-.1.8l-.4.6-.6.4-.8.2a1.9,1.9,0,0,1-1-.3,1.2,1.2,0,0,1-.6-.6,1.6,1.6,0,0,1-.3-.9,4.9,4.9,0,0,1-.1-1.2,3.8,3.8,0,0,1,.1-1,3.6,3.6,0,0,1,.4-.9,1.3,1.3,0,0,1,.6-.7,1.9,1.9,0,0,1,1-.3,2.1,2.1,0,0,1,1.2.5c.1.1.3.3.3.4a1.4,1.4,0,0,1,.2.7Zm-1,3.5h.5c.1-.1.2-.1.3-.3l.2-.3v-.9l-.2-.4-.3-.2H454c-.3.1-.4.3-.5.6a.6.6,0,0,0-.1.4.9.9,0,0,0,.1.5c0,.1.1.2.2.4l.3.2Z" style="fill: #fff"/>
  <path d="M476.5,519.7h.6l.5-.2q.1,0,.3-.3a.5.5,0,0,0,.2-.4h.8v5.6h-1v-4h-1.4Z" style="fill: #fff"/>
  <path d="M480.8,518.8h3.9v.7l-.8,1-.7,1.1a9.3,9.3,0,0,0-.4,1.3,6.8,6.8,0,0,0-.2,1.4h-1a5.9,5.9,0,0,1,.2-1.3,6.1,6.1,0,0,1,.5-1.2,4.5,4.5,0,0,1,.6-1.2l.8-1.1h-2.9Z" style="fill: #fff"/>
  <path d="M504.9,519.7h.5l.5-.2a.5.5,0,0,0,.4-.3.5.5,0,0,0,.2-.4h.7v5.6h-1v-4h-1.4Z" style="fill: #fff"/>
  <path d="M511.1,524.5l-.8-.2a.9.9,0,0,1-.6-.3,1.3,1.3,0,0,1-.4-.6,1.4,1.4,0,0,1-.2-.7,1.6,1.6,0,0,1,.3-.9l.7-.5h0a1,1,0,0,1-.5-.4,1,1,0,0,1-.2-.7,1.1,1.1,0,0,1,.4-1.1,1.9,1.9,0,0,1,2.6,0,1.1,1.1,0,0,1,.4,1.1.7.7,0,0,1-.2.7,1,1,0,0,1-.5.4h0a1.8,1.8,0,0,1,.7.5,1.6,1.6,0,0,1,.3.9,1.4,1.4,0,0,1-.2.7,1.3,1.3,0,0,1-.4.6.9.9,0,0,1-.6.3Zm0-.8a.8.8,0,0,0,.8-.2,1.1,1.1,0,0,0,.3-.8.9.9,0,0,0-.3-.7,1.1,1.1,0,0,0-.8-.3,1.3,1.3,0,0,0-.8.3.9.9,0,0,0-.3.7,1.1,1.1,0,0,0,.3.8A.8.8,0,0,0,511.1,523.7Zm0-4.3c-.2-.1-.4,0-.6.2a.9.9,0,0,0,0,1.2,1,1,0,0,0,1.3,0,.9.9,0,0,0,0-1.2,1,1,0,0,0-.7-.2Z" style="fill: #fff"/>
  <path d="M533.3,519.7h.6l.5-.2a.5.5,0,0,0,.4-.3c.1-.1.1-.2.2-.4h.7v5.6h-1v-4h-1.4Z" style="fill: #fff"/>
  <path d="M538.6,522.9c.1.2.1.4.3.6l.6.2.6-.2.3-.5c.1-.2.1-.4.2-.6v-.6h0a1.2,1.2,0,0,1-.5.5l-.7.2-.7-.2-.6-.4a1.6,1.6,0,0,1-.3-.6,1.7,1.7,0,0,1-.1-.7,1.9,1.9,0,0,1,.1-.8,2.1,2.1,0,0,1,.4-.6.9.9,0,0,1,.6-.4l.8-.2a1.9,1.9,0,0,1,1,.3l.6.6.3.9a4.9,4.9,0,0,1,.1,1.2c0,.3-.1.7-.1,1a3.6,3.6,0,0,1-.4.9c-.1.3-.4.5-.6.7a1.9,1.9,0,0,1-1,.3h-.7l-.5-.4-.4-.4a1.5,1.5,0,0,1-.1-.7Zm.9-3.5h-.4l-.3.2c-.1.2-.2.3-.2.4s-.1.3-.1.4.1.3.1.5a.8.8,0,0,0,.2.4l.3.2h.9l.3-.2c.1-.1.1-.3.2-.4v-.9l-.2-.4-.3-.2Z" style="fill: #fff"/>
  <path d="M565.7,524.4h-3.9a2.8,2.8,0,0,1,.4-1.2,2,2,0,0,1,.9-.9l.5-.4.6-.4.4-.5a.8.8,0,0,0,.2-.6v-.3l-.2-.3-.3-.2-.4-.2-.5.2q-.1,0-.3.3c-.1.1-.1.2-.1.4a1.3,1.3,0,0,0-.1.6H562a2.8,2.8,0,0,1,.1-.9,1.6,1.6,0,0,1,.4-.7.9.9,0,0,1,.6-.4,1.7,1.7,0,0,1,1.7,0,1,1,0,0,1,.5.4.5.5,0,0,1,.3.5,1.9,1.9,0,0,1,0,1.2l-.3.5a.8.8,0,0,1-.4.4l-.4.4-.5.3-.5.3-.3.3a.8.8,0,0,0-.2.4h2.7Z" style="fill: #fff"/>
  <path d="M568.2,518.6a1.7,1.7,0,0,1,1,.3,1.3,1.3,0,0,1,.6.7l.3,1a6.7,6.7,0,0,1,0,2l-.3.9a1.3,1.3,0,0,1-.6.7,1.8,1.8,0,0,1-2,0,1.3,1.3,0,0,1-.6-.7l-.3-.9a6.7,6.7,0,0,1,0-2l.3-1a1.3,1.3,0,0,1,.6-.7A1.7,1.7,0,0,1,568.2,518.6Zm0,5.1c.2,0,.4,0,.5-.2s.3-.2.3-.4a1.9,1.9,0,0,0,.2-.7v-1.7a2.5,2.5,0,0,0-.2-.7c0-.1-.2-.3-.3-.4l-.5-.2-.5.2-.3.4a6.4,6.4,0,0,1-.2.7v1.7c.1.2.1.5.2.7l.3.4C567.8,523.7,568,523.7,568.2,523.7Z" style="fill: #fff"/>
  <path d="M594.8,524.4H591a2.7,2.7,0,0,1,.3-1.2,3.8,3.8,0,0,1,.9-.9l.6-.4.5-.4c.2-.1.3-.3.5-.5a1.3,1.3,0,0,0,.1-.6v-.3c0-.1-.1-.2-.1-.3l-.3-.2-.5-.2-.4.2a.3.3,0,0,0-.3.3.5.5,0,0,0-.2.4v.6h-1a2.9,2.9,0,0,1,.2-.9,1.5,1.5,0,0,1,.3-.7l.6-.4a1.5,1.5,0,0,1,.9-.2,1.1,1.1,0,0,1,.8.2l.6.4.3.5c0,.2.1.4.1.6s-.1.4-.1.6l-.3.5c-.1.2-.3.3-.4.4l-.5.4-.5.3-.4.3-.4.3c-.1.1-.1.3-.2.4h2.8Z" style="fill: #fff"/>
  <path d="M595.6,519.7h.5l.5-.2c.2,0,.3-.1.4-.3a.5.5,0,0,0,.2-.4h.7v5.6h-1v-4h-1.3Z" style="fill: #fff"/>
  <path d="M1.7,482.8h.5l.5-.2c.2,0,.3-.1.4-.3a.5.5,0,0,0,.2-.4h.8v5.6h-1v-3.9H1.7Z" style="fill: #fff"/>
  <path d="M6.2,459.1H2.4a1.9,1.9,0,0,1,.4-1.2,2,2,0,0,1,.9-.9l.5-.4.6-.4.4-.5c.1-.1.1-.3.2-.5v-.4l-.2-.3-.3-.2H4q-.2,0-.3.3c-.1.1-.1.3-.2.4v.6h-1a2.8,2.8,0,0,1,.1-.9A2.5,2.5,0,0,1,3,454l.6-.4.8-.2.9.2a1,1,0,0,1,.5.4.7.7,0,0,1,.3.6.7.7,0,0,1,.1.5,1.3,1.3,0,0,1-.1.6.8.8,0,0,1-.2.5l-.4.5L5,457l-.5.3-.4.3a.8.8,0,0,0-.4.4c-.1.1-.2.2-.2.3H6.2Z" style="fill: #fff"/>
  <path d="M3.9,427.5h.8q.3-.1.3-.3a.8.8,0,0,0-.1-1,.7.7,0,0,0-.6-.2H3.8l-.2.2a.8.8,0,0,0-.2.4v.4h-1a1.9,1.9,0,0,1,.2-.7.9.9,0,0,1,.4-.6.7.7,0,0,1,.5-.4l.8-.2h.6l.6.3a1,1,0,0,1,.4.5,1.4,1.4,0,0,1,.2.6,1.4,1.4,0,0,1-.2.7,1.3,1.3,0,0,1-.6.5h0a1.2,1.2,0,0,1,.7.5,1.4,1.4,0,0,1,.3.9,1.4,1.4,0,0,1-.2.7,2.1,2.1,0,0,1-.4.6l-.6.3H3.4l-.6-.4c-.1-.2-.3-.4-.3-.6a3.1,3.1,0,0,1-.2-.8h.9a1.1,1.1,0,0,0,.3.8,1.2,1.2,0,0,0,.8.4,1.3,1.3,0,0,0,.8-.3,1.1,1.1,0,0,0,.3-.7,1.4,1.4,0,0,0-.2-.6c0-.1-.2-.2-.3-.3h-1Z" style="fill: #fff"/>
  <path d="M6.3,401.1H5.5v1.3H4.7v-1.3H2.3v-.9l2.4-3.4h.8v3.6h.7ZM3,400.4H4.7v-2.5h0Z" style="fill: #fff"/>
  <path d="M3.1,368.5H6v.8H3.7l-.3,1.4h0l.5-.3H5.2l.6.4.3.6a2.2,2.2,0,0,1,.1.8,2,2,0,0,1-.1.7l-.3.6-.6.5-.9.2H3.5l-.6-.4a1,1,0,0,1-.4-.5,1.9,1.9,0,0,1-.2-.7h.9a1.1,1.1,0,0,0,.3.7l.8.2h.4a.5.5,0,0,0,.4-.2.8.8,0,0,0,.1-.4.4.4,0,0,0,0-.5c.1-.2,0-.3,0-.5l-.2-.3-.3-.3H3.6c-.1.1-.3.2-.3.4H2.4Z" style="fill: #fff"/>
  <path d="M5,341.5a.5.5,0,0,0-.3-.5c-.1-.2-.3-.2-.6-.2H3.7l-.3.2c-.1.1-.1.2-.2.4s-.1.2-.1.4-.1.3-.1.4v.4H3l.5-.5.7-.2.8.2a1,1,0,0,1,.5.4l.4.6a1.7,1.7,0,0,1,.1.7,2.2,2.2,0,0,1-.1.8,2.1,2.1,0,0,1-.4.6l-.6.4H4.1a1.2,1.2,0,0,1-1-.2l-.6-.6a1.6,1.6,0,0,1-.3-.9,4.9,4.9,0,0,1-.1-1.2,3.4,3.4,0,0,1,.1-1,3.6,3.6,0,0,1,.4-.9c.1-.3.4-.5.6-.7a1.9,1.9,0,0,1,1-.3h.7l.5.4.3.4a.8.8,0,0,1,.2.7Zm-.9,3.6h.4l.3-.3c.1-.1.2-.2.2-.3a.9.9,0,0,0,.1-.5.6.6,0,0,0-.1-.4.8.8,0,0,0-.2-.4l-.3-.2H3.6l-.3.2c-.1.1-.1.2-.2.4v.4a1.9,1.9,0,0,0,.2.8l.3.3Z" style="fill: #fff"/>
  <path d="M2.4,311.8H6.2v.7l-.8,1a3.4,3.4,0,0,0-.6,1.2,6.1,6.1,0,0,0-.5,1.2,7.7,7.7,0,0,0-.2,1.5h-1a5.9,5.9,0,0,1,.2-1.3,6.9,6.9,0,0,1,.5-1.3l.6-1.2.8-1H2.4Z" style="fill: #fff"/>
  <path d="M4.3,289.2l-.8-.2c-.2,0-.4-.2-.6-.3l-.4-.6a1.9,1.9,0,0,1-.2-.7,1.6,1.6,0,0,1,.3-.9l.7-.5h0a1,1,0,0,1-.5-.4,1,1,0,0,1-.2-.7,1.3,1.3,0,0,1,.4-1.2,2.8,2.8,0,0,1,1.3-.4,2.8,2.8,0,0,1,1.3.4,1.3,1.3,0,0,1,.4,1.2.7.7,0,0,1-.2.7.9.9,0,0,1-.6.4h0l.8.5a1.6,1.6,0,0,1,.3.9,1.9,1.9,0,0,1-.2.7,2.1,2.1,0,0,1-.4.6c-.2.1-.4.3-.6.3Zm0-.8.8-.2a1.1,1.1,0,0,0,.3-.8.8.8,0,0,0-.3-.7,1.3,1.3,0,0,0-.8-.3,1.3,1.3,0,0,0-.8.3.9.9,0,0,0-.3.7,1.1,1.1,0,0,0,.3.8l.8.2Zm0-4.4a.9.9,0,0,0-.6.3.7.7,0,0,0,0,1.2c.1.2.4.2.6.2s.5,0,.6-.2a.7.7,0,0,0,0-1.2.7.7,0,0,0-.6-.3Z" style="fill: #fff"/>
  <path d="M3.4,259.3a.8.8,0,0,0,.2.5c.2.2.4.3.6.2a.7.7,0,0,0,.6-.1l.3-.5a6.4,6.4,0,0,0,.2-.7v-.6h0l-.5.5-.7.2H3.4l-.5-.4a2.1,2.1,0,0,1-.4-.6,3.2,3.2,0,0,1,0-1.6,2.1,2.1,0,0,1,.4-.6l.6-.4h.8a1.8,1.8,0,0,1,1,.2c.2.2.5.4.6.6a1.7,1.7,0,0,1,.3,1,4.1,4.1,0,0,1,.1,1.1,3.1,3.1,0,0,1-.1,1,3,3,0,0,1-.4,1,1.7,1.7,0,0,1-.6.6,1.9,1.9,0,0,1-1,.3H3.6l-.6-.3a2.4,2.4,0,0,1-.6-1.1Zm.8-3.6H3.8l-.3.3c-.1.1-.1.2-.2.4v.8c.1.2.1.3.2.4l.3.3h.9l.3-.3a.5.5,0,0,0,.2-.4c0-.1.1-.3,0-.4s0-.3,0-.4-.1-.3-.2-.4l-.3-.3Z" style="fill: #fff"/>
  <path d="M1.7,227.7h.5l.5-.2.4-.3a.5.5,0,0,0,.2-.4h.8v5.6h-1v-4H1.7Z" style="fill: #fff"/>
  <path d="M7.9,226.6a1.7,1.7,0,0,1,1,.3,1.3,1.3,0,0,1,.6.7,1.7,1.7,0,0,1,.3,1,3.1,3.1,0,0,1,.1,1,3.8,3.8,0,0,1-.1,1,1.6,1.6,0,0,1-.3.9,1.3,1.3,0,0,1-.6.7,1.7,1.7,0,0,1-1,.3,1.9,1.9,0,0,1-1-.3,1.8,1.8,0,0,1-.5-.7,1.6,1.6,0,0,1-.3-.9,3.8,3.8,0,0,1-.1-1,3.1,3.1,0,0,1,.1-1,1.7,1.7,0,0,1,.3-1,1.8,1.8,0,0,1,.5-.7A1.9,1.9,0,0,1,7.9,226.6Zm0,5.1.5-.2.4-.4c0-.3.1-.5.1-.7v-1.7c0-.2-.1-.4-.1-.7l-.4-.4a.7.7,0,0,0-1,0l-.3.4a2,2,0,0,0-.1.7,1.1,1.1,0,0,0,0,.8,1.4,1.4,0,0,0,0,.9,2,2,0,0,0,.1.7l.3.4.5.2Z" style="fill: #fff"/>
  <path d="M1.7,199.3h.5l.5-.2.4-.3a.5.5,0,0,0,.2-.4h.8V204h-1v-4H1.7Z" style="fill: #fff"/>
  <path d="M6.1,199.3h.6l.5-.2c.1-.1.3-.1.4-.3l.2-.4h.7V204h-1v-4H6.1Z" style="fill: #fff"/>
  <path d="M1.7,171h1l.4-.3a.8.8,0,0,0,.2-.4h.8v5.6h-1v-4H1.7Z" style="fill: #fff"/>
  <path d="M9.9,175.7H6a2,2,0,0,1,.4-1.3,2,2,0,0,1,.9-.9l.5-.4.6-.4.4-.5a.4.4,0,0,0,.1-.5c.1-.2.1-.3,0-.4a.4.4,0,0,0-.1-.3l-.3-.2H7.6l-.3.3-.2.4v.6h-1a2.9,2.9,0,0,1,.2-.9,1.5,1.5,0,0,1,.3-.7l.6-.4a1.7,1.7,0,0,1,1.7,0l.6.4.3.5c0,.2.1.4.1.6s-.1.4-.1.6l-.3.5-.4.5-.5.3-.5.3-.4.3-.4.4-.2.3H9.9Z" style="fill: #fff"/>
  <path d="M1.7,142.6h1l.4-.3.2-.4h.8v5.6h-1v-4H1.7Z" style="fill: #fff"/>
  <path d="M7.5,144h.9l.3-.3a.6.6,0,0,0,.1-.4.7.7,0,0,0-.3-.6l-.6-.2H7.5l-.3.2-.2.4v.4H6.1a1.7,1.7,0,0,1,.1-.7c.1-.2.2-.5.4-.6l.6-.4.7-.2h.7l.5.3a1,1,0,0,1,.4.5.7.7,0,0,1,.2.6,2.4,2.4,0,0,1-.2.8c-.1.2-.4.3-.6.4h0a1.3,1.3,0,0,1,.7.5,1.6,1.6,0,0,1,.2,1.6c-.1.3-.3.4-.5.6l-.6.3H7.1c-.2-.1-.5-.2-.6-.4l-.4-.6a2.2,2.2,0,0,1-.1-.8h.9a1.1,1.1,0,0,0,.2.8.9.9,0,0,0,.8.4,1.1,1.1,0,0,0,.8-.3.9.9,0,0,0,.3-.7.7.7,0,0,0-.1-.5c-.1-.2-.2-.3-.4-.3l-.4-.2H7.5Z" style="fill: #fff"/>
  <path d="M1.7,114.3h.5l.5-.2c.2,0,.3-.1.4-.3a.5.5,0,0,0,.2-.4h.8V119h-1v-4H1.7Z" style="fill: #fff"/>
  <path d="M9.9,117.6H9.2V119H8.3v-1.4H5.9v-.9l2.4-3.3h.9V117h.7Zm-3.3-.7H8.3v-2.5h0Z" style="fill: #fff"/>
  <path d="M1.7,85.9h1l.4-.3a.8.8,0,0,0,.2-.4h.8v5.6h-1v-4H1.7Z" style="fill: #fff"/>
  <path d="M6.7,85H9.6v.8H7.4l-.3,1.5h0l.5-.4h.6l.7.2a1,1,0,0,1,.5.4,2.1,2.1,0,0,1,.4.6,1.9,1.9,0,0,1,.1.8c0,.2-.1.4-.1.6a1.6,1.6,0,0,1-.4.7,1,1,0,0,1-.6.5l-.9.2H7.2l-.6-.4a1,1,0,0,1-.4-.5,1.9,1.9,0,0,1-.2-.7h.9a.9.9,0,0,0,.9.9h.6l.3-.3a.5.5,0,0,0,.2-.4v-.9l-.2-.4-.3-.2H7.3c-.1.1-.3.2-.3.4H6.1Z" style="fill: #fff"/>
  <path d="M1.7,57.6h.5l.5-.2c.2,0,.3-.1.4-.3a.5.5,0,0,0,.2-.4h.8v5.6h-1v-4H1.7Z" style="fill: #fff"/>
  <path d="M8.9,58.1a.9.9,0,0,0-.3-.6l-.5-.2H7.6c-.1.1-.2.1-.3.3l-.2.3c0,.1-.1.3-.1.4s-.1.3-.1.4v.4h0c.2-.2.3-.4.6-.5H8.9l.6.4.3.6a1.7,1.7,0,0,1,.1.7,1.9,1.9,0,0,1-.1.8,2.1,2.1,0,0,1-.4.6l-.6.4-.8.2-1-.3a1.7,1.7,0,0,1-.6-.6l-.3-.9A4.9,4.9,0,0,1,6,59.4c0-.3.1-.6.1-1l.3-.9a2.3,2.3,0,0,1,.7-.7,1.2,1.2,0,0,1,1-.2h.6a.5.5,0,0,1,.5.3,1,1,0,0,1,.4.5,1.1,1.1,0,0,1,.2.6ZM8,61.6h.4c.1,0,.3-.1.3-.2a.8.8,0,0,0,.2-.4.6.6,0,0,0,.1-.4.9.9,0,0,0-.1-.5c0-.1-.1-.2-.2-.3a.7.7,0,0,0-.7-.4H7.6c-.2.1-.3.1-.3.2s-.2.3-.2.4a.9.9,0,0,0-.1.5.6.6,0,0,0,.1.4.8.8,0,0,0,.2.4c0,.1.1.2.3.2Z" style="fill: #fff"/>
  <path d="M1.7,29.2a.4.4,0,0,0,.5,0h.5l.4-.3a.8.8,0,0,0,.2-.4h.8V34h-1V30H1.7Z" style="fill: #fff"/>
  <path d="M6,28.3H9.8v.8l-.8,1-.6,1.1L8,32.5a6.8,6.8,0,0,0-.2,1.4h-1A5.9,5.9,0,0,1,7,32.6c.1-.4.3-.8.4-1.2a7.5,7.5,0,0,1,.7-1.2l.8-1H6Z" style="fill: #fff"/>
  <path d="M1.7.9h.5L2.7.7c.2,0,.3-.2.4-.3A.8.8,0,0,0,3.3,0h.8V5.6h-1v-4H1.7Z" style="fill: #fff"/>
  <path d="M7.9,5.7H7.2l-.7-.4-.4-.5A2.2,2.2,0,0,1,6,3.9,2.9,2.9,0,0,1,6.2,3,1.2,1.2,0,0,1,7,2.6H7l-.6-.5a1.9,1.9,0,0,1-.2-.7A1.6,1.6,0,0,1,6.7.3,1.5,1.5,0,0,1,8-.1,1.7,1.7,0,0,1,9.3.3a1.5,1.5,0,0,1,.4,1.1,1.4,1.4,0,0,1-.2.7l-.6.5h0a1.2,1.2,0,0,1,.8.4,2.9,2.9,0,0,1,.2.9,2.2,2.2,0,0,1-.1.8l-.4.5-.7.4Zm0-.7a1.1,1.1,0,0,0,.8-.3A1.1,1.1,0,0,0,9,3.9a.9.9,0,0,0-.3-.7,1.1,1.1,0,0,0-.8-.3,1,1,0,0,0-1,1,1.1,1.1,0,0,0,.3.8A1.1,1.1,0,0,0,7.9,5ZM7.9.6,7.3.8c-.2.2-.3.4-.2.6a.6.6,0,0,0,.2.7,1.5,1.5,0,0,0,1.3,0,1,1,0,0,0,.2-.7A1.1,1.1,0,0,0,8.6.8.8.8,0,0,0,7.9.6Z" style="fill: #fff"/>
  <path d="M5.1,510a1.5,1.5,0,0,1,1,.3,1.3,1.3,0,0,1,.6.7,1.6,1.6,0,0,1,.3.9,3.8,3.8,0,0,1,.1,1,3.1,3.1,0,0,1-.1,1,1.7,1.7,0,0,1-.3,1,1.9,1.9,0,0,1-.6.7,1.1,1.1,0,0,1-1,.2,1.2,1.2,0,0,1-1-.2l-.5-.7a1.7,1.7,0,0,1-.3-1,3.1,3.1,0,0,1-.1-1,3.8,3.8,0,0,1,.1-1,1.6,1.6,0,0,1,.3-.9,1.8,1.8,0,0,1,.5-.7A1.9,1.9,0,0,1,5.1,510Zm0,5.1.5-.2a1,1,0,0,0,.4-.5c0-.2.1-.4.1-.6v-1.7c0-.2-.1-.5-.1-.7l-.4-.5h-1l-.3.5c0,.2-.1.5-.1.7v1.7c0,.2.1.4.1.6l.3.5Z" style="fill: #fff"/>
</svg>
