<?xml version="1.0" encoding="UTF-8"?><svg id="a" xmlns="http://www.w3.org/2000/svg" width="935.43" height="935.43" viewBox="0 0 935.43 935.43"><path d="M111.86,296.25l272.03,254.78,272.96-254.78h-101.89c-11.09,0-16.87,2.67-24.43,9.37s-112.29,104.29-121.94,113.71-30.08,9.42-39.26.76-120.93-112.68-124.94-116.13c-5.44-4.97-12.54-7.72-19.9-7.71h-112.63Z" style="fill:red; fill-rule:evenodd;"/><path d="M297.03,297.74h149.03c4.55,0,6.42,3.35,3.59,5.98s-63.43,60.01-68.58,64.89-12.76,4.89-18.9-.86-66.62-61.8-68.87-64.38-.68-5.63,3.72-5.63h0ZM771.71,296.5h23.98c22.84,0,38.26,33.33,19.5,51.61s-290.88,271.74-302.72,283.01-30.67,9.31-38.57,2.73c-5.27-4.38-15.98-14.3-32.14-29.75l329.95-307.61Z" style="fill:#a0a0a0; fill-rule:evenodd;"/><polygon points="383.89 551.03 441.75 604.11 771.71 296.5 656.85 296.25 383.89 551.03" style="fill:#f9f9f9; fill-rule:evenodd;"/><path d="M6.71,900.39l22.28,20.09,22.35-20.09h-8.35c-.74-.04-1.47.22-2,.74-.62.53-9.2,8.22-9.99,8.97-.94.73-2.25.75-3.22.06-.75-.68-9.9-8.88-10.23-9.16-.45-.39-1.03-.61-1.63-.61H6.71Z" style="fill:red; fill-rule:evenodd;"/><path d="M21.88,900.51h12.2c.37,0,.53.26.29.47s-5.19,4.73-5.62,5.12c-.45.4-1.13.37-1.55-.07-.5-.45-5.46-4.87-5.64-5.08s-.06-.44.3-.44h0ZM60.75,900.41h1.96c1.33.09,2.34,1.23,2.26,2.57-.04.56-.27,1.09-.65,1.5-1.54,1.44-23.82,21.42-24.79,22.31-.89.76-2.17.85-3.16.22-.43-.35-1.31-1.13-2.63-2.34l27.02-24.25Z" style="fill:#a0a0a0; fill-rule:evenodd;"/><polygon points="33.73 924.66 60.75 900.41 51.35 900.39 28.99 920.48 33.73 924.66" style="fill:#f9f9f9; fill-rule:evenodd;"/><path d="M72,893.43h2v40h-2v-40ZM251.75,910.28v7.78c.04,1.3-.06,2.59-.32,3.86-.24.85-.69,1.63-1.31,2.26-.66.7-1.49,1.22-2.4,1.51-1.02.32-2.08.48-3.15.46-1.29.03-2.57-.13-3.81-.48-.93-.27-1.77-.79-2.42-1.51-.57-.62-1-1.36-1.28-2.16-.3-1.17-.43-2.39-.38-3.6v-8.14c-.07-1.63.13-3.26.61-4.81.46-1.13,1.32-2.04,2.42-2.57,1.36-.68,2.87-1.01,4.39-.97,1.29-.02,2.56.21,3.76.67.95.34,1.8.9,2.48,1.64.54.63.92,1.37,1.12,2.18.23,1.28.33,2.57.29,3.87ZM245.35,908.32c.05-.78-.02-1.57-.2-2.33-.13-.31-.44-.47-.93-.47-.39-.05-.76.15-.94.5-.2.75-.28,1.53-.23,2.3v11.38c-.06.82.01,1.65.21,2.45.2.31.56.47.93.42.38.05.76-.15.93-.49.2-.72.27-1.46.22-2.2v-11.57ZM232.02,912.5c.87.23,1.63.74,2.17,1.46.48.68.71,2.26.71,4.76.07,1.47-.17,2.94-.7,4.31-.49,1.05-1.34,1.88-2.4,2.34-1.39.58-2.88.85-4.38.8-1.64.08-3.28-.24-4.77-.93-1-.46-1.81-1.27-2.28-2.27-.45-1.51-.63-3.09-.55-4.67v-1.84h6.39v3.78c-.05.65.02,1.3.2,1.92.18.3.53.46.88.41.4.05.8-.16.98-.52.22-.88.3-1.8.24-2.71v-1.61c.04-.67-.07-1.34-.33-1.96-.2-.4-.56-.69-.98-.81-.83-.17-1.67-.25-2.51-.22v-3.38c.94.04,1.88-.01,2.82-.16.35-.1.64-.35.77-.69.19-.54.27-1.1.24-1.67v-1.29c.05-.55-.04-1.11-.28-1.61-.2-.27-.53-.41-.86-.39-.36-.04-.7.12-.91.41-.21.56-.3,1.15-.25,1.75v1.91h-6.39v-1.99c0-2.23.56-3.73,1.68-4.51,1.12-.78,2.9-1.17,5.33-1.17,3.05,0,5.11.54,6.2,1.63,1.14,1.22,1.73,2.85,1.63,4.52.08.98-.13,1.96-.59,2.83-.54.7-1.24,1.25-2.05,1.59ZM215.17,912.5c.87.23,1.63.74,2.17,1.46.47.68.71,2.26.71,4.76.07,1.47-.17,2.94-.7,4.31-.49,1.05-1.34,1.88-2.4,2.34-1.39.58-2.88.85-4.38.8-1.64.08-3.28-.24-4.77-.93-1-.46-1.81-1.27-2.28-2.27-.45-1.51-.63-3.09-.55-4.67v-1.84h6.39v3.78c-.05.65.02,1.3.2,1.92.13.27.43.41.88.41.4.05.79-.16.98-.52.22-.88.3-1.8.24-2.71v-1.61c.04-.67-.07-1.34-.33-1.96-.2-.39-.55-.69-.98-.81-.83-.17-1.67-.25-2.52-.22v-3.38c.94.04,1.88-.01,2.82-.16.35-.1.64-.35.77-.69.19-.54.27-1.1.24-1.67v-1.29c.05-.55-.04-1.11-.28-1.61-.2-.27-.53-.41-.86-.39-.36-.04-.71.12-.91.41-.21.56-.29,1.16-.24,1.75v1.91h-6.39v-1.99c0-2.23.56-3.73,1.68-4.51,1.12-.78,2.89-1.17,5.33-1.17,3.05,0,5.11.54,6.2,1.63,1.14,1.22,1.73,2.85,1.63,4.52.08.98-.13,1.96-.59,2.83-.54.7-1.24,1.25-2.05,1.59ZM105.54,925.76c0-.13.17-1,.36-1.94l.36-1.7,1.68-1.61c.92-.89,3.25-3.12,5.18-4.97l3.5-3.36h-4.03c-3.1,0-4.02-.07-4.02-.25,0-.13.2-1.17.43-2.32l.43-2.08,8.25-.05,8.25-.05-.4,1.88-.4,1.88-5.1,4.89-5.1,4.89,4.3.05c2.36.03,4.29.08,4.29.12s-.21,1.11-.47,2.39-.47,2.36-.47,2.39-3.83.07-8.52.07c-6.7,0-8.52-.05-8.52-.24h0ZM88.95,925.76c-.05-.13-.31-1.22-.57-2.41s-.77-3.46-1.13-5.02c-.68-3.01-3.44-15.23-3.61-15.96l-.1-.43,3.44.05,3.44.05,1.56,7.1c.86,3.91,1.64,7.4,1.74,7.77l.18.66.49-.76c.71-1.09,7.22-11.46,8.36-13.31l.96-1.56h6.93l-1.26,2.04c-.69,1.12-1.96,3.14-2.82,4.5-2.32,3.66-6.77,10.75-9.01,14.35l-1.97,3.17h-3.27c-2.45,0-3.3-.06-3.36-.24h0ZM125.99,925.74c0-.31,4.48-22.88,4.66-23.46.09-.31.58-.33,6.61-.33,7.04,0,8.85.15,10.48.87,1.19.4,2.17,1.24,2.76,2.34.41.68.6,1.46.55,2.25.09,2.28-1.12,4.42-3.11,5.53-1.04.67-1.07.71-.65.9.92.51,1.68,1.26,2.21,2.16.94,2.26.54,4.87-1.05,6.73-1.4,1.36-3.15,2.3-5.05,2.72-1.46.37-2.21.41-9.5.5-7.12.08-7.91.06-7.91-.21h0ZM141.22,920.87c1.4-.28,2.3-1.64,2.02-3.04-.03-.16-.08-.32-.14-.47-.54-1.08-1.2-1.22-5.26-1.16l-3.41.05-.43,2.08c-.23,1.15-.43,2.23-.43,2.41,0,.3.28.33,3.45.33,1.4.03,2.81-.04,4.21-.21h0ZM142.69,911.01c.89-.42,1.42-1.35,1.32-2.33,0-.46-.18-.91-.51-1.24-.47-.47-.5-.48-3.82-.48h-3.35l-.32,1.48c-.18.82-.38,1.87-.45,2.35l-.13.87,3.22-.1c2.93-.09,3.3-.14,4.04-.55h0ZM158.98,925.82c-1.61-.36-3.08-1.2-4.22-2.41-1.62-1.69-2.41-4.02-2.16-6.35.31-5.99,5.72-10.39,12.21-9.93,6.18.43,9.7,4.58,8.66,10.22-.66,3.85-3.39,7.01-7.1,8.22-2.41.69-4.95.77-7.4.24h0ZM163.93,920.87c1.13-.45,2.06-1.28,2.63-2.34.51-1.32.64-2.76.35-4.14-.68-1.53-2.31-2.4-3.96-2.12-2.28.34-3.82,2.42-3.82,5.15-.12,1.55.81,3,2.27,3.53.84.17,1.7.14,2.52-.07h0ZM177.88,925.86s.81-4.1,1.8-9.04,1.8-9.1,1.8-9.23c0-.19-.81-.24-3.62-.24h-3.62l.11-.71c.06-.39.3-1.58.52-2.65l.41-1.94h10.68c8.62,0,10.68.05,10.68.25,0,.14-.16,1.01-.36,1.94s-.41,2.02-.48,2.41l-.12.71h-3.68c-2.03,0-3.69.02-3.69.05s-.84,4.18-1.86,9.23l-1.85,9.19-3.35.05c-1.84.03-3.35.03-3.35,0h0Z" style="stroke:#000; stroke-miterlimit:3; stroke-width:.19px;"/></svg>