<svg xmlns="http://www.w3.org/2000/svg" width="935.433" height="935.433" viewBox="0 0 935.433 935.433"><path d="M111.862,296.247,383.894,551.029,656.853,296.247H554.959c-11.085,0-16.868,2.665-24.426,9.367S418.245,409.9,408.592,419.323s-30.076,9.422-39.258.761S248.407,307.4,244.39,303.958a29.471,29.471,0,0,0-19.9-7.711Z" style="fill:red;fill-rule:evenodd"/><path d="M297.031,297.745H446.063c4.555,0,6.42,3.348,3.592,5.98s-63.427,60.005-68.579,64.893-12.759,4.889-18.9-.86-66.623-61.795-68.867-64.384-.676-5.629,3.72-5.629Z" style="fill:#a0a0a0;fill-rule:evenodd"/><path d="M771.706,296.5h23.976c22.845,0,38.256,33.327,19.5,51.614S524.3,619.854,512.461,631.125s-30.67,9.306-38.567,2.733q-7.9-6.573-32.14-29.748Z" style="fill:#a0a0a0;fill-rule:evenodd"/><polygon points="383.894 551.029 441.754 604.11 771.706 296.498 656.853 296.247 383.894 551.029" style="fill:#f9f9f9;fill-rule:evenodd"/><path d="M6.714,900.392l22.279,20.087,22.354-20.087H43a2.654,2.654,0,0,0-2,.738c-.619.529-9.2,8.222-9.987,8.965a2.685,2.685,0,0,1-3.215.06c-.752-.683-9.9-8.884-10.232-9.155a2.465,2.465,0,0,0-1.63-.608Z" style="fill:red;fill-rule:evenodd"/><path d="M21.879,900.51H34.084c.373,0,.526.264.294.471s-5.194,4.731-5.616,5.117a1.114,1.114,0,0,1-1.548-.068c-.5-.453-5.456-4.872-5.64-5.076s-.055-.444.3-.444Z" style="fill:#a0a0a0;fill-rule:evenodd"/><path d="M60.752,900.412h1.964a2.415,2.415,0,0,1,1.6,4.069c-1.536,1.442-23.822,21.424-24.791,22.313a2.657,2.657,0,0,1-3.159.215q-.646-.518-2.632-2.345Z" style="fill:#a0a0a0;fill-rule:evenodd"/><polygon points="33.731 924.664 60.752 900.412 51.347 900.392 28.993 920.479 33.731 924.664" style="fill:#f9f9f9;fill-rule:evenodd"/><rect x="72" y="893.433" width="2" height="40" style="stroke:#000;stroke-miterlimit:2.99999992575232;stroke-width:0.189403491995054px"/><path d="M251.746,910.282v7.782a16.814,16.814,0,0,1-.317,3.862,5.19,5.19,0,0,1-1.313,2.262,5.69,5.69,0,0,1-2.4,1.513,10.065,10.065,0,0,1-3.148.462,12.778,12.778,0,0,1-3.813-.483,5.269,5.269,0,0,1-2.42-1.506,6.283,6.283,0,0,1-1.281-2.155,12.259,12.259,0,0,1-.38-3.6v-8.142a14.338,14.338,0,0,1,.609-4.814,4.9,4.9,0,0,1,2.42-2.565,9.235,9.235,0,0,1,4.39-.965,9.984,9.984,0,0,1,3.765.67,6.287,6.287,0,0,1,2.484,1.636,5.2,5.2,0,0,1,1.115,2.176A18.147,18.147,0,0,1,251.746,910.282Zm-6.391-1.96a7.965,7.965,0,0,0-.2-2.328q-.2-.468-.925-.468a.931.931,0,0,0-.942.5,6.948,6.948,0,0,0-.229,2.3v11.384a7.743,7.743,0,0,0,.213,2.45.939.939,0,0,0,.926.418.915.915,0,0,0,.933-.49,6.67,6.67,0,0,0,.222-2.2ZM232.017,912.5a3.943,3.943,0,0,1,2.167,1.461q.713,1.017.712,4.759a10.7,10.7,0,0,1-.7,4.313,4.7,4.7,0,0,1-2.4,2.335,10.391,10.391,0,0,1-4.382.8,10.19,10.19,0,0,1-4.77-.929,4.681,4.681,0,0,1-2.278-2.274,13.839,13.839,0,0,1-.546-4.671v-1.842h6.391v3.785a5.6,5.6,0,0,0,.2,1.922.876.876,0,0,0,.878.41.967.967,0,0,0,.981-.518,8.843,8.843,0,0,0,.237-2.706v-1.612a4.349,4.349,0,0,0-.332-1.958,1.6,1.6,0,0,0-.981-.813,11.039,11.039,0,0,0-2.515-.223v-3.383a14.1,14.1,0,0,0,2.816-.158,1.186,1.186,0,0,0,.775-.691,4.368,4.368,0,0,0,.237-1.67v-1.295a3.1,3.1,0,0,0-.277-1.612.986.986,0,0,0-.862-.389.97.97,0,0,0-.909.41,3.976,3.976,0,0,0-.246,1.749v1.915H219.82v-1.987q0-3.339,1.677-4.512t5.331-1.173q4.572,0,6.2,1.626a6.093,6.093,0,0,1,1.629,4.515,5.208,5.208,0,0,1-.585,2.826A5.128,5.128,0,0,1,232.017,912.5Zm-16.849,0a3.947,3.947,0,0,1,2.167,1.461q.711,1.017.712,4.759a10.7,10.7,0,0,1-.7,4.313,4.7,4.7,0,0,1-2.405,2.335,10.391,10.391,0,0,1-4.382.8,10.182,10.182,0,0,1-4.769-.929,4.677,4.677,0,0,1-2.278-2.274,13.839,13.839,0,0,1-.546-4.671v-1.842h6.391v3.785a5.6,5.6,0,0,0,.2,1.922q.2.409.878.41a.966.966,0,0,0,.98-.518,8.8,8.8,0,0,0,.238-2.706v-1.612a4.333,4.333,0,0,0-.333-1.958,1.6,1.6,0,0,0-.98-.813,11.05,11.05,0,0,0-2.516-.223v-3.383a14.1,14.1,0,0,0,2.816-.158,1.184,1.184,0,0,0,.775-.691,4.345,4.345,0,0,0,.238-1.67v-1.295a3.11,3.11,0,0,0-.277-1.612.987.987,0,0,0-.862-.389.972.972,0,0,0-.91.41,4,4,0,0,0-.245,1.749v1.915h-6.391v-1.987q0-3.339,1.677-4.512t5.331-1.173q4.572,0,6.2,1.626a6.093,6.093,0,0,1,1.629,4.515,5.208,5.208,0,0,1-.585,2.826A5.124,5.124,0,0,1,215.168,912.5Z"/><path d="M105.537,925.764c0-.13.168-1,.363-1.938l.355-1.7,1.675-1.613c.922-.888,3.251-3.125,5.178-4.971l3.5-3.357-4.025-.008c-3.1,0-4.023-.059-4.016-.241,0-.131.2-1.175.434-2.321l.426-2.083,8.255-.05,8.255-.049-.4,1.884-.4,1.884-5.1,4.889-5.1,4.889,4.3.051c2.362.028,4.294.08,4.294.116s-.213,1.112-.473,2.39-.474,2.356-.474,2.394-3.835.068-8.523.068c-6.7,0-8.522-.051-8.516-.237Zm-16.585,0c-.048-.13-.306-1.217-.572-2.415s-.773-3.457-1.126-5.019c-.677-3.006-3.439-15.231-3.606-15.962l-.1-.43,3.441.051,3.442.052,1.562,7.1c.859,3.906,1.641,7.4,1.737,7.765l.175.663.49-.757c.706-1.092,7.217-11.456,8.359-13.306l.965-1.562h6.925l-1.256,2.036c-.69,1.119-1.958,3.144-2.816,4.5-2.321,3.663-6.771,10.747-9.013,14.347L95.586,926H92.313c-2.446,0-3.3-.06-3.361-.237Zm37.033-.022c0-.312,4.482-22.884,4.66-23.464.094-.307.576-.332,6.609-.332,7.036,0,8.85.151,10.481.872a4.862,4.862,0,0,1,2.758,2.345,3.906,3.906,0,0,1,.547,2.248,6.054,6.054,0,0,1-3.114,5.526c-1.044.674-1.069.709-.646.9A5.841,5.841,0,0,1,149.49,916a6.52,6.52,0,0,1-1.052,6.733,10.47,10.47,0,0,1-5.049,2.721c-1.463.373-2.21.412-9.5.5-7.121.082-7.908.061-7.908-.208Zm15.239-4.876a2.579,2.579,0,0,0,1.875-3.509c-.536-1.078-1.2-1.224-5.261-1.162l-3.408.052-.425,2.083c-.234,1.146-.43,2.233-.435,2.415-.008.3.279.331,3.448.33a28.8,28.8,0,0,0,4.205-.209Zm1.462-9.857a2.321,2.321,0,0,0,1.322-2.327,1.7,1.7,0,0,0-.507-1.239c-.474-.474-.5-.477-3.823-.477h-3.345l-.325,1.481c-.178.815-.383,1.872-.454,2.349l-.13.866,3.222-.1c2.933-.092,3.3-.142,4.04-.552Zm16.292,14.81a8.28,8.28,0,0,1-4.216-2.406,7.936,7.936,0,0,1-2.157-6.351c.308-5.989,5.718-10.391,12.208-9.935,6.185.435,9.7,4.581,8.661,10.224a10.529,10.529,0,0,1-7.1,8.224A15.174,15.174,0,0,1,158.978,925.819Zm4.949-4.946a5.159,5.159,0,0,0,2.634-2.341,7.3,7.3,0,0,0,.347-4.144,3.651,3.651,0,0,0-3.957-2.12c-2.277.342-3.82,2.42-3.82,5.145a3.474,3.474,0,0,0,2.273,3.532,5.692,5.692,0,0,0,2.523-.072Zm13.955,4.984c0-.031.81-4.1,1.8-9.042s1.8-9.1,1.8-9.228c0-.189-.806-.243-3.624-.243h-3.623l.114-.71c.063-.391.3-1.584.523-2.652l.409-1.941h10.676c8.621,0,10.677.047,10.677.246,0,.135-.162,1.008-.359,1.941s-.415,2.015-.483,2.406l-.122.71h-3.685c-2.027,0-3.689.021-3.694.048s-.841,4.181-1.858,9.233l-1.85,9.186-3.35.052c-1.843.028-3.35.026-3.35-.008Z" style="stroke:#000;stroke-miterlimit:2.99999992575232;stroke-width:0.18940349199505382px"/></svg>