<?xml version="1.0" encoding="UTF-8"?><svg id="a" xmlns="http://www.w3.org/2000/svg" width="666.14" height="666.14" viewBox="0 0 666.14 666.14"><path d="M93.83,226.74l180.87,163.08,181.49-163.08h-67.75c-7.37,0-11.22,1.71-16.24,6s-74.66,66.75-81.08,72.78-20,6.03-26.1.49-80.4-72.13-83.07-74.33c-3.66-3.2-8.37-4.95-13.23-4.94h-74.89Z" style="fill:red; fill-rule:evenodd;"/><path d="M216.95,227.7h99.09c3.03,0,4.27,2.14,2.39,3.83s-42.17,38.41-45.6,41.54-8.48,3.13-12.57-.55-44.3-39.55-45.79-41.21-.45-3.6,2.47-3.6h0ZM532.56,226.9h15.94c15.19,0,25.44,21.33,12.96,33.04s-193.41,173.94-201.28,181.16-20.39,5.96-25.64,1.75c-3.5-2.81-10.62-9.15-21.37-19.04l219.38-196.91Z" style="fill:#a0a0a0; fill-rule:evenodd;"/><polygon points="313.17 423.8 532.56 226.9 456.19 226.74 274.7 389.83 313.17 423.8" style="fill:#f9f9f9; fill-rule:evenodd;"/><path d="M6.71,631.1l22.28,20.09,22.35-20.09h-8.35c-.74-.04-1.47.22-2,.74-.62.53-9.2,8.22-9.99,8.97-.94.73-2.25.75-3.22.06-.75-.68-9.9-8.88-10.23-9.16-.45-.39-1.03-.61-1.63-.61H6.71Z" style="fill:red; fill-rule:evenodd;"/><path d="M21.88,631.22h12.2c.37,0,.53.26.29.47s-5.19,4.73-5.62,5.12c-.45.4-1.13.37-1.55-.07-.5-.45-5.46-4.87-5.64-5.08s-.06-.44.3-.44h0ZM60.75,631.12h1.96c1.33.09,2.34,1.24,2.25,2.57-.04.56-.27,1.09-.65,1.5-1.54,1.44-23.82,21.42-24.79,22.31-.89.76-2.17.85-3.16.22-.43-.34-1.31-1.13-2.63-2.34l27.02-24.25Z" style="fill:#a0a0a0; fill-rule:evenodd;"/><polygon points="33.73 655.37 60.75 631.12 51.35 631.1 28.99 651.19 33.73 655.37" style="fill:#f9f9f9; fill-rule:evenodd;"/><path d="M72,624.14h2v40h-2v-40ZM108.4,657.65c0-.13.17-1,.36-1.94l.36-1.7,1.68-1.61c.92-.89,3.25-3.12,5.18-4.97l3.5-3.36h-4.03c-3.1,0-4.02-.07-4.02-.25,0-.13.2-1.17.43-2.32l.43-2.08,8.25-.05,8.25-.05-.4,1.88-.4,1.88-5.1,4.89-5.1,4.89,4.3.05c2.36.03,4.29.08,4.29.12s-.21,1.11-.47,2.39-.47,2.36-.47,2.39-3.83.07-8.52.07c-6.7,0-8.52-.05-8.52-.24h-.01ZM91.82,657.65c-.05-.13-.31-1.22-.57-2.41s-.77-3.46-1.13-5.02c-.68-3.01-3.44-15.23-3.61-15.96l-.1-.43,3.44.05,3.44.05,1.56,7.1c.86,3.91,1.64,7.4,1.74,7.77l.18.66.49-.76c.71-1.09,7.22-11.46,8.36-13.3l.96-1.56h6.93l-1.26,2.04c-.69,1.12-1.96,3.14-2.82,4.5-2.32,3.66-6.77,10.75-9.01,14.35l-1.98,3.17h-3.27c-2.45,0-3.3-.06-3.36-.24h0ZM128.85,657.62c0-.31,4.48-22.88,4.66-23.46.09-.31.58-.33,6.61-.33,7.04,0,8.85.15,10.48.87,1.19.4,2.18,1.24,2.76,2.34.4.68.6,1.46.55,2.25.09,2.28-1.12,4.42-3.11,5.53-1.04.67-1.07.71-.65.9.92.51,1.68,1.26,2.21,2.16.94,2.26.54,4.86-1.05,6.73-1.4,1.36-3.15,2.3-5.05,2.72-1.46.37-2.21.41-9.5.5-7.12.08-7.91.06-7.91-.21h0ZM144.09,652.75c1.4-.28,2.3-1.64,2.02-3.04-.03-.16-.08-.32-.14-.47-.54-1.08-1.2-1.22-5.26-1.16l-3.41.05-.43,2.08c-.23,1.15-.43,2.23-.43,2.41,0,.3.28.33,3.45.33,1.41.03,2.81-.04,4.21-.21h0ZM145.55,642.89c.89-.42,1.42-1.35,1.32-2.33,0-.46-.18-.91-.51-1.24-.47-.47-.5-.48-3.82-.48h-3.34l-.32,1.48c-.18.82-.38,1.87-.45,2.35l-.13.87,3.22-.1c2.93-.09,3.3-.14,4.04-.55h0ZM161.84,657.7c-1.61-.36-3.08-1.2-4.22-2.4-1.62-1.69-2.41-4.02-2.16-6.35.31-5.99,5.72-10.39,12.21-9.93,6.18.43,9.7,4.58,8.66,10.22-.66,3.84-3.39,7.01-7.1,8.22-2.41.69-4.95.77-7.39.24h0ZM166.79,652.76c1.13-.45,2.06-1.28,2.63-2.34.51-1.32.64-2.76.35-4.15-.68-1.53-2.31-2.4-3.96-2.12-2.28.34-3.82,2.42-3.82,5.15-.12,1.55.81,3,2.27,3.53.84.17,1.7.14,2.52-.07h0ZM180.75,657.74s.81-4.1,1.8-9.04,1.8-9.09,1.8-9.23c0-.19-.81-.24-3.62-.24h-3.62l.11-.71c.06-.39.3-1.58.52-2.65l.41-1.94h10.68c8.62,0,10.68.05,10.68.24,0,.14-.16,1.01-.36,1.94s-.41,2.02-.48,2.41l-.12.71h-3.68c-2.03,0-3.69.02-3.69.05s-.84,4.18-1.86,9.23l-1.85,9.19-3.35.05c-1.84.03-3.35.03-3.35,0h0ZM221.02,653.78v3.99h-16.01v-3.34c4.74-6.22,7.56-10.07,8.44-11.54.73-1.02,1.2-2.22,1.35-3.47.04-.51-.1-1.01-.41-1.41-.7-.65-1.79-.63-2.47.04-.33.64-.47,1.35-.4,2.07v2.22h-6.52v-.85c-.02-1.04.06-2.07.25-3.09.21-.84.64-1.61,1.24-2.24.71-.76,1.59-1.33,2.57-1.66,1.23-.4,2.51-.59,3.8-.56,2.89,0,5.08.58,6.55,1.73,1.41,1,2.25,2.63,2.23,4.36-.05,1.5-.48,2.96-1.26,4.25-.83,1.49-3.28,4.66-7.37,9.51h7.98ZM237.28,644.58c.95.21,1.81.72,2.44,1.46.53.67.8,2.24.8,4.72.07,1.47-.2,2.94-.78,4.29-.59,1.07-1.55,1.89-2.71,2.31-1.58.57-3.25.84-4.93.79-1.84.08-3.67-.23-5.38-.91-1.09-.43-2-1.23-2.56-2.26-.49-1.5-.7-3.07-.6-4.64v-1.83h7.19v3.76c-.05.65.02,1.3.21,1.91.15.27.49.4,1,.4.44.06.87-.14,1.1-.51.24-.87.34-1.78.27-2.69v-1.6c.05-.67-.08-1.34-.37-1.94-.24-.41-.64-.69-1.1-.8-.93-.18-1.88-.25-2.83-.23v-3.36c1.06.04,2.12-.01,3.17-.16.38-.09.7-.34.87-.69.21-.53.3-1.09.27-1.66v-1.29c.06-.55-.05-1.11-.32-1.6-.24-.27-.6-.42-.96-.39-.39-.05-.78.11-1.03.41-.23.55-.32,1.14-.27,1.73v1.9h-7.19v-1.97c0-2.21.63-3.7,1.89-4.47,1.26-.77,3.26-1.16,6-1.17,3.43,0,5.76.54,6.98,1.61,1.25,1.15,1.93,2.79,1.83,4.49.08.98-.15,1.97-.66,2.82-.63.71-1.43,1.25-2.32,1.57h0ZM258.84,634.55v3.7h-8.92v3.93c1.17-1.08,2.72-1.65,4.31-1.59,1.61-.12,3.21.36,4.49,1.34,1.02.89,1.53,2.6,1.53,5.13v3.3c.04,1.21-.06,2.43-.3,3.61-.22.81-.65,1.54-1.25,2.13-.76.71-1.68,1.23-2.69,1.5-1.36.37-2.77.55-4.18.52-1.67.03-3.32-.23-4.9-.77-1.25-.39-2.32-1.22-3.01-2.33-.69-1.49-1-3.13-.89-4.77v-1.26h7.19v1.44c-.03,1.07.04,2.13.2,3.19.13.63.58.94,1.35.94.31.02.61-.08.85-.27.2-.13.33-.35.36-.59.02-.21.05-1.12.07-2.73v-4.59c.06-.61-.06-1.22-.34-1.77-.27-.34-.69-.51-1.12-.47-.3-.01-.59.08-.84.24-.2.13-.35.31-.45.53-.08.42-.11.86-.09,1.29h-7.13l.3-11.66h15.44Z" style="stroke:#000; stroke-miterlimit:3; stroke-width:.19px;"/></svg>