<svg xmlns="http://www.w3.org/2000/svg" width="666.142" height="666.142" viewBox="0 0 666.142 666.142"><path d="M93.831,226.741,274.7,389.825,456.192,226.741H388.444c-7.371,0-11.216,1.706-16.241,6s-74.66,66.753-81.078,72.784-20,6.031-26.1.487-80.4-72.129-83.075-74.331a20,20,0,0,0-13.233-4.936Z" style="fill:red;fill-rule:evenodd"/><path d="M216.949,227.7h99.09c3.029,0,4.269,2.142,2.389,3.827s-42.173,38.409-45.6,41.538-8.483,3.129-12.565-.55-44.3-39.555-45.789-41.213-.45-3.6,2.473-3.6Z" style="fill:#a0a0a0;fill-rule:evenodd"/><path d="M532.557,226.9H548.5c15.189,0,25.436,21.332,12.964,33.037S368.056,433.88,360.187,441.1s-20.392,5.956-25.643,1.749q-5.25-4.208-21.369-19.042Z" style="fill:#a0a0a0;fill-rule:evenodd"/><polygon points="313.175 423.802 532.557 226.902 456.192 226.741 274.703 389.825 313.175 423.802" style="fill:#f9f9f9;fill-rule:evenodd"/><path d="M6.714,631.1l22.279,20.087L51.347,631.1H43a2.654,2.654,0,0,0-2,.738c-.619.528-9.2,8.222-9.987,8.965a2.685,2.685,0,0,1-3.215.06c-.752-.683-9.9-8.884-10.232-9.155a2.46,2.46,0,0,0-1.63-.608Z" style="fill:red;fill-rule:evenodd"/><path d="M21.879,631.219H34.084c.373,0,.526.264.294.471s-5.194,4.731-5.616,5.116a1.113,1.113,0,0,1-1.548-.067c-.5-.454-5.456-4.872-5.64-5.077s-.055-.443.3-.443Z" style="fill:#a0a0a0;fill-rule:evenodd"/><path d="M60.752,631.12h1.964a2.416,2.416,0,0,1,1.6,4.07c-1.536,1.441-23.822,21.424-24.791,22.313a2.66,2.66,0,0,1-3.159.215q-.646-.517-2.632-2.345Z" style="fill:#a0a0a0;fill-rule:evenodd"/><polygon points="33.731 655.373 60.752 631.12 51.347 631.101 28.993 651.188 33.731 655.373" style="fill:#f9f9f9;fill-rule:evenodd"/><rect x="72" y="624.142" width="2" height="40" style="stroke:#000;stroke-miterlimit:2.99999992575232;stroke-width:0.189403491995054px"/><path d="M108.4,657.647c0-.13.168-1,.363-1.937l.356-1.7L110.8,652.4c.921-.887,3.251-3.124,5.177-4.971l3.5-3.357-4.025-.007c-3.1,0-4.023-.059-4.016-.242,0-.13.2-1.174.435-2.32l.425-2.083,8.255-.05,8.255-.049-.4,1.883-.4,1.884-5.1,4.89-5.1,4.889,4.3.051c2.362.027,4.294.08,4.294.116s-.213,1.111-.473,2.39-.474,2.356-.474,2.393-3.835.069-8.523.069c-6.7,0-8.522-.051-8.516-.237Zm-16.585,0c-.048-.13-.306-1.217-.572-2.415s-.773-3.456-1.126-5.019c-.677-3.006-3.439-15.231-3.606-15.961l-.1-.431,3.441.052,3.442.052,1.562,7.1c.859,3.907,1.641,7.4,1.737,7.766l.175.663.49-.758c.706-1.091,7.217-11.455,8.359-13.3l.965-1.563h6.925l-1.256,2.036c-.69,1.12-1.958,3.144-2.816,4.5-2.321,3.663-6.771,10.747-9.012,14.347l-1.976,3.172H95.18c-2.446,0-3.3-.06-3.361-.236Zm37.033-.022c0-.312,4.483-22.883,4.66-23.464.094-.307.576-.331,6.609-.331,7.036,0,8.85.151,10.481.872a4.857,4.857,0,0,1,2.758,2.344,3.91,3.91,0,0,1,.547,2.248,6.052,6.052,0,0,1-3.114,5.526c-1.044.675-1.069.709-.646.9a5.843,5.843,0,0,1,2.211,2.161,6.52,6.52,0,0,1-1.053,6.732,10.453,10.453,0,0,1-5.049,2.721c-1.463.374-2.21.413-9.5.5-7.121.083-7.908.062-7.908-.208Zm15.239-4.875a2.58,2.58,0,0,0,1.875-3.51c-.536-1.077-1.2-1.223-5.261-1.162l-3.408.052-.425,2.084c-.234,1.146-.43,2.232-.435,2.415-.008.3.279.331,3.448.33a28.978,28.978,0,0,0,4.206-.209Zm1.462-9.858a2.321,2.321,0,0,0,1.322-2.327,1.7,1.7,0,0,0-.507-1.238c-.474-.475-.5-.478-3.823-.478H139.2l-.325,1.482c-.178.815-.383,1.872-.454,2.348l-.13.867,3.222-.1c2.933-.093,3.3-.142,4.04-.553Zm16.292,14.81a8.271,8.271,0,0,1-4.216-2.4,7.937,7.937,0,0,1-2.157-6.352c.308-5.988,5.718-10.39,12.208-9.934,6.185.434,9.7,4.58,8.661,10.224a10.53,10.53,0,0,1-7.1,8.224A15.174,15.174,0,0,1,161.845,657.7Zm4.949-4.945a5.164,5.164,0,0,0,2.634-2.341,7.305,7.305,0,0,0,.347-4.145,3.65,3.65,0,0,0-3.957-2.119c-2.277.341-3.82,2.42-3.82,5.145a3.475,3.475,0,0,0,2.273,3.532,5.692,5.692,0,0,0,2.523-.072Zm13.955,4.984c0-.032.81-4.1,1.8-9.043s1.8-9.094,1.8-9.228c0-.188-.806-.242-3.624-.242H177.1l.114-.71c.063-.391.3-1.584.523-2.652l.409-1.941h10.676c8.621,0,10.677.047,10.677.245,0,.135-.162,1.009-.359,1.942s-.415,2.015-.483,2.406l-.122.71h-3.685c-2.027,0-3.689.021-3.694.047s-.841,4.181-1.858,9.234l-1.85,9.186-3.35.051c-1.842.029-3.35.027-3.35-.007Z" style="stroke:#000;stroke-miterlimit:2.99999992575232;stroke-width:0.18940349199505382px"/><path d="M221.023,653.778v3.988H205.015v-3.338q7.113-9.334,8.445-11.545a7.528,7.528,0,0,0,1.351-3.468A2.067,2.067,0,0,0,214.4,638a1.775,1.775,0,0,0-2.467.044,3.692,3.692,0,0,0-.4,2.066v2.225h-6.518v-.852a14.863,14.863,0,0,1,.252-3.093,4.983,4.983,0,0,1,1.242-2.239,6.189,6.189,0,0,1,2.575-1.662,11.373,11.373,0,0,1,3.8-.563q4.34,0,6.554,1.733a5.287,5.287,0,0,1,2.233,4.364,8.7,8.7,0,0,1-1.26,4.248q-1.244,2.24-7.365,9.508Zm16.258-9.2a4.479,4.479,0,0,1,2.439,1.457q.8,1,.8,4.715a9.551,9.551,0,0,1-.784,4.287,5.084,5.084,0,0,1-2.706,2.314,13.169,13.169,0,0,1-4.932.786,12.957,12.957,0,0,1-5.378-.914,5.078,5.078,0,0,1-2.564-2.258,12.445,12.445,0,0,1-.6-4.643v-1.829h7.193v3.757a5.19,5.19,0,0,0,.214,1.915q.231.4,1,.4a1.124,1.124,0,0,0,1.1-.514,7.781,7.781,0,0,0,.267-2.686v-1.6a3.869,3.869,0,0,0-.374-1.943,1.738,1.738,0,0,0-1.1-.8,13.58,13.58,0,0,0-2.831-.229v-3.357a18.076,18.076,0,0,0,3.169-.157,1.293,1.293,0,0,0,.873-.686,3.87,3.87,0,0,0,.267-1.658v-1.286a2.717,2.717,0,0,0-.32-1.6,1.149,1.149,0,0,0-.962-.386,1.165,1.165,0,0,0-1.033.415,3.589,3.589,0,0,0-.267,1.728v1.9h-7.193v-1.972q0-3.315,1.887-4.472t6-1.172q5.145,0,6.98,1.615a5.666,5.666,0,0,1,1.834,4.486,4.722,4.722,0,0,1-.659,2.815,5.758,5.758,0,0,1-2.315,1.572Zm21.563-10.031v3.7h-8.921v3.929a6.011,6.011,0,0,1,4.309-1.586,6.575,6.575,0,0,1,4.487,1.343q1.531,1.329,1.532,5.13v3.3a15.584,15.584,0,0,1-.3,3.615,4.661,4.661,0,0,1-1.246,2.129,6.3,6.3,0,0,1-2.689,1.5,14.687,14.687,0,0,1-4.185.515,14.258,14.258,0,0,1-4.9-.772,5.5,5.5,0,0,1-3.009-2.329,9.858,9.858,0,0,1-.891-4.772v-1.257h7.194v1.443a17.755,17.755,0,0,0,.2,3.186q.195.943,1.353.943a1.28,1.28,0,0,0,.855-.271.828.828,0,0,0,.356-.586q.036-.315.071-2.729v-4.587a3.261,3.261,0,0,0-.338-1.771,1.286,1.286,0,0,0-1.122-.472,1.4,1.4,0,0,0-.837.243,1.185,1.185,0,0,0-.445.529,5.485,5.485,0,0,0-.089,1.286H243.1l.3-11.66Z"/></svg>