<?xml version="1.0" encoding="utf-8"?>
<!-- Generator: Adobe Illustrator 26.3.1, SVG Export Plug-In . SVG Version: 6.00 Build 0)  -->
<svg version="1.1" id="Layer_1" xmlns="http://www.w3.org/2000/svg" xmlns:xlink="http://www.w3.org/1999/xlink" x="0px" y="0px"
	 viewBox="0 0 128 128" style="enable-background:new 0 0 128 128;" xml:space="preserve">
<style type="text/css">
	.st0{fill:#FFFFFF;}
	.st1{fill:#ED6B21;}
</style>
<g id="ADD">
	<path class="st0" d="M72.3,117.5H10.5v-75h75v23.3c1.6-0.6,3.3-1,5-1.3V41l27-27v58.3c1.9,1.7,3.6,3.7,5,5.8V8c0-0.1,0-0.1,0-0.2
		c0-0.1,0-0.1,0-0.2c0-0.2-0.1-0.4-0.2-0.6v0l0,0c0,0,0-0.1,0-0.1c-0.1-0.1-0.1-0.2-0.2-0.3c0,0-0.1-0.1-0.1-0.1
		c-0.1-0.1-0.1-0.2-0.2-0.2c0,0-0.1-0.1-0.1-0.1c-0.1-0.1-0.2-0.2-0.3-0.2c0,0,0,0,0,0c-0.1-0.1-0.2-0.2-0.4-0.2c0,0-0.1,0-0.1-0.1
		c-0.1,0-0.2-0.1-0.3-0.1c-0.1,0-0.1,0-0.1,0c-0.2,0-0.3-0.1-0.4-0.1H48c-0.6,0-1.1,0.2-1.6,0.6l-40,32c0,0-0.1,0.1-0.1,0.1
		c-0.1,0.1-0.1,0.1-0.2,0.2c-0.1,0.1-0.1,0.1-0.2,0.2c-0.1,0.1-0.1,0.1-0.1,0.2c0,0.1-0.1,0.1-0.1,0.2c0,0.1-0.1,0.2-0.1,0.2
		c0,0.1-0.1,0.2-0.1,0.2s0,0.2-0.1,0.2c0,0.1,0,0.2,0,0.3c0,0,0,0.1,0,0.1v80c0,1.4,1.1,2.5,2.5,2.5h70.1
		C75.9,121.1,74,119.4,72.3,117.5z M48.9,10.5H114l-27,27H15.1L48.9,10.5z"/>
	<g>
		<path class="st1" d="M96,69.5c-14.6,0-26.5,11.9-26.5,26.5s11.9,26.5,26.5,26.5s26.5-11.9,26.5-26.5S110.6,69.5,96,69.5z
			 M96,117.5c-11.9,0-21.5-9.6-21.5-21.5S84.1,74.5,96,74.5s21.5,9.6,21.5,21.5S107.9,117.5,96,117.5z"/>
		<path class="st1" d="M112,93.5H98.5V80c0-1.4-1.1-2.5-2.5-2.5s-2.5,1.1-2.5,2.5v13.5H80c-1.4,0-2.5,1.1-2.5,2.5s1.1,2.5,2.5,2.5
			h13.5V112c0,1.4,1.1,2.5,2.5,2.5s2.5-1.1,2.5-2.5V98.5H112c1.4,0,2.5-1.1,2.5-2.5S113.4,93.5,112,93.5z"/>
	</g>
</g>
</svg>
