<svg xmlns="http://www.w3.org/2000/svg" viewBox="0 0 16 16" width="16px" height="16px">
<path fill="#808080" d="m 4,0 v 4 h 4 v 10 h 4 V 4 h 4 V 0 Z m 1.121094,1 h 1.414062 l 2,2 H 7.115235 Z M 7.242188,1 H 8.65625 L 11,3.34375 v 1.4140625 z m 2.121093,0 h 1.408205 l 1.998045,1.998 H 11.35547 Z m 2.121094,0 h 1.414063 l 1.992186,2 h -1.414061 z m 2.121094,0 H 15 V 2.3964375 Z M 5,1.59175 6.408203,3 H 5 Z m 4,1.8789062 2,1.9941407 V 6.8788594 L 9,4.8847188 Z M 9,5.59175 11,7.5858906 V 9 L 9,7 Z m 0,2.1210938 2,2.0000002 v 1.414063 L 9,9.126906 Z m 0,2.1210942 2,2 V 13 H 10.761152 L 9,11.248 Z M 9,12 10,13 H 9 Z" />
<path fill="#eb4949" d="M 3.5 9 C 1.5741139 9 0 10.574114 0 12.5 C 0 14.425886 1.5741139 16 3.5 16 C 5.4258861 16 7 14.425886 7 12.5 C 7 10.574114 5.4258861 9 3.5 9 z M 3.5 10.199219 C 4.7773592 10.199219 5.8007813 11.222641 5.8007812 12.5 C 5.8007812 12.667974 5.7816922 12.830839 5.7480469 12.988281 L 3.0117188 10.251953 C 3.1691607 10.218308 3.3320257 10.199219 3.5 10.199219 z M 2.4863281 10.433594 L 5.5664062 13.513672 C 5.3371871 13.983352 4.9544913 14.362231 4.4804688 14.583984 L 1.4160156 11.521484 C 1.6376653 11.046724 2.0161177 10.663072 2.4863281 10.433594 z M 1.2421875 12.054688 L 3.9472656 14.757812 C 3.8024888 14.786013 3.6534389 14.800781 3.5 14.800781 C 2.2226408 14.800781 1.1992188 13.777359 1.1992188 12.5 C 1.1992188 12.347226 1.2142247 12.198881 1.2421875 12.054688 z " />
</svg>
