<svg xmlns="http://www.w3.org/2000/svg" viewBox="0 0 16 16" width="16px" height="16px">
<path fill="#808080" d="M 6,11 V 7.5 H 5 V 11 Z M 5,13.5 7.53125,16 H 12 V 7 h 4 V 2.5 L 13.625,0 H 1 V 4.7128906 L 3.419922,7 H 7 v 7.257812 l -1,-1 z M 2.695312,1 h 10.580079 l 1,1 H 3.695312 Z M 2,1.703125 l 1,1 V 5.40625 l -1,-1 z M 4,3 h 11 v 3 h -4 v 9 H 8 V 6 H 4 Z" />
<path fill="#eb4949" d="M 3.5,9 C 3,9 3,9.5 3,10 v 2 H 1 C 0.5,12 0,12 0,12.5 0,13 0.5,13 1,13 h 2 v 2 c 0,0.5 0,1 0.5,1 C 4,16 4,15.5 4,15 V 13 H 6 C 6.5,13 7,13 7,12.5 7,12 6.5,12 6,12 H 4 V 10 C 4,9.5 4,9 3.5,9 Z" />
</svg>
