<svg xmlns="http://www.w3.org/2000/svg" viewBox="0 0 16 16" width="16px" height="16px">
<path fill="#808080" d="m 5,14 v 2 H 10.293 11 V 15.293 6 h 5 V 0 H 0 v 6 h 5 v 5 l 1,0 V 5 L 4,3 H 1.5 V 4 H 3.583984 L 4.587891,5 H 1 V 1 h 14 v 3.293 l -1,-1 V 1.5 H 13 V 3 H 8 V 13 H 7 v 1 h 1.293 l 1,1 H 6 V 14 Z M 9.707,4 h 3.586 l 1,1 H 10.707 Z M 9,4.707 l 1,1 v 8.586 l -1,-1 z" />
<path fill="#eb4949" d="M 1,12 C 0.5,12 0,12 0,12.5 0,13 0.5,13 1,13 H 6 C 6.5,13 7,13 7,12.5 7,12 6.5,12 6,12 Z" />
</svg>
