<svg width="14" height="14" viewBox="0 0 14 14" fill="none" xmlns="http://www.w3.org/2000/svg">
	<g clip-path="url(#clip0_1018_9532)">
	<path d="M5.91568 8.56926C6.89399 8.56926 7.68706 7.78905 7.68706 6.82662C7.68706 5.86419 6.89399 5.08398 5.91568 5.08398C4.93736 5.08398 4.14429 5.86419 4.14429 6.82662C4.14429 7.78905 4.93736 8.56926 5.91568 8.56926Z" fill="#ACACAC" stroke="#262E30" stroke-width="0.5" stroke-miterlimit="10"/>
	<path d="M12.4062 10.1944C12.4062 10.1278 12.4031 10.0619 12.3969 9.99688C12.3846 9.86738 12.4411 9.73764 12.5542 9.67334L12.8254 9.5191C12.9708 9.4364 13.0205 9.25075 12.9359 9.10648L12.5552 8.45774C12.4721 8.31626 12.2909 8.26771 12.1482 8.34873L11.8637 8.51036C11.7533 8.57312 11.6164 8.55773 11.5126 8.48446C11.4004 8.40531 11.2802 8.33658 11.1532 8.27958C11.0354 8.22672 10.9518 8.114 10.9518 7.9849V7.67695C10.9518 7.51127 10.8175 7.37695 10.6518 7.37695H9.8824C9.71671 7.37695 9.5824 7.51127 9.5824 7.67695V7.98451C9.5824 8.1138 9.49862 8.22664 9.38067 8.27958C9.25393 8.33647 9.13373 8.40528 9.02164 8.48444C8.91786 8.55774 8.78097 8.57312 8.67049 8.51036L8.38599 8.34873C8.24336 8.26771 8.06209 8.31626 7.97907 8.45774L7.59837 9.10648C7.51371 9.25075 7.56339 9.4364 7.7088 9.51909L7.98137 9.6741C8.09379 9.73804 8.15034 9.86668 8.13776 9.99539C8.13137 10.0609 8.128 10.1272 8.128 10.1944C8.128 10.261 8.13113 10.327 8.13732 10.392C8.14964 10.5215 8.09309 10.6512 7.98002 10.7155L7.7088 10.8698C7.56339 10.9524 7.51371 11.1381 7.59837 11.2824L7.97907 11.9311C8.06209 12.0726 8.24336 12.1211 8.38599 12.0401L8.67049 11.8785C8.78097 11.8157 8.91785 11.8311 9.02166 11.9044C9.13381 11.9835 9.25405 12.0523 9.38108 12.1093C9.49887 12.1621 9.5824 12.2748 9.5824 12.4039V12.7119C9.5824 12.8776 9.71671 13.0119 9.8824 13.0119H10.6518C10.8175 13.0119 10.9518 12.8776 10.9518 12.7119V12.4043C10.9518 12.275 11.0356 12.1622 11.1536 12.1093C11.2803 12.0524 11.4005 11.9836 11.5126 11.9044C11.6164 11.8311 11.7533 11.8157 11.8637 11.8785L12.1482 12.0401C12.2909 12.1211 12.4721 12.0726 12.5552 11.9311L12.9359 11.2824C13.0205 11.1381 12.9708 10.9524 12.8254 10.8698L12.5542 10.7155C12.4411 10.6512 12.3846 10.5215 12.3969 10.392C12.4031 10.327 12.4062 10.261 12.4062 10.1944Z" stroke="#262E30" stroke-width="0.5" stroke-miterlimit="10"/>
	<path d="M9.56905 6.10587L10.5676 5.53883C10.7132 5.45618 10.763 5.27041 10.6782 5.12607L9.78954 3.61226C9.70652 3.47084 9.52532 3.42229 9.38271 3.50326L8.55924 3.97078C8.4488 4.03348 8.31157 4.01889 8.21097 3.94139C7.93891 3.7318 7.6364 3.55866 7.31102 3.42913C7.191 3.38136 7.10783 3.2678 7.10783 3.13862V2.21797C7.10783 2.05228 6.97352 1.91797 6.80783 1.91797H5.02369C4.85801 1.91797 4.72369 2.05228 4.72369 2.21797V3.13785C4.72369 3.26702 4.64052 3.38058 4.5205 3.42836C4.19512 3.55789 3.89262 3.73103 3.62056 3.94061C3.51995 4.01812 3.38272 4.03271 3.27228 3.97001L2.44889 3.50253C2.30625 3.42154 2.12501 3.47013 2.04201 3.61161L1.15396 5.12533C1.06929 5.26967 1.11907 5.45538 1.26458 5.53801L2.07419 5.99774C2.18698 6.06178 2.24458 6.19091 2.22645 6.31934C2.2031 6.48472 2.19089 6.65362 2.19089 6.82552C2.19089 6.99742 2.2031 7.16632 2.22645 7.3317C2.24458 7.46013 2.18698 7.58926 2.07419 7.6533L1.26466 8.11299C1.11911 8.19564 1.06935 8.3814 1.15408 8.52574L2.04277 10.0395C2.12579 10.181 2.30699 10.2295 2.4496 10.1486L3.27307 9.68103C3.3835 9.61833 3.52074 9.63292 3.62134 9.71043C3.8934 9.92001 4.1959 10.0932 4.52129 10.2227C4.64131 10.2705 4.72448 10.384 4.72448 10.5132V11.4331C4.72448 11.5988 4.85879 11.7331 5.02448 11.7331H6.43294" stroke="#262E30" stroke-width="0.5" stroke-miterlimit="10"/>
	</g>
	<defs>
	<clipPath id="clip0_1018_9532">
	<rect width="14" height="14" fill="white" transform="translate(0 14) rotate(-90)"/>
	</clipPath>
	</defs>
	</svg>
	