<svg width="20" height="18" viewBox="0 0 20 18" fill="none" xmlns="http://www.w3.org/2000/svg">
<path d="M9.08898 10.1857L9.30352 10.6374L9.58898 10.5018V10.1857H9.08898ZM12.3748 10.1857H11.8748V10.5018L12.1602 10.6374L12.3748 10.1857ZM9.58898 2.69759C9.58898 2.06638 10.1007 1.55469 10.7319 1.55469V0.554688C9.54839 0.554688 8.58898 1.5141 8.58898 2.69759H9.58898ZM9.58898 10.1857V2.69759H8.58898V10.1857H9.58898ZM7.39844 13.6503C7.39844 12.3213 8.17616 11.1729 9.30352 10.6374L8.87443 9.73412C7.41154 10.4291 6.39844 11.9209 6.39844 13.6503H7.39844ZM10.7319 16.9837C8.89087 16.9837 7.39844 15.4913 7.39844 13.6503H6.39844C6.39844 16.0436 8.33859 17.9837 10.7319 17.9837V16.9837ZM14.0653 13.6503C14.0653 15.4913 12.5729 16.9837 10.7319 16.9837V17.9837C13.1252 17.9837 15.0653 16.0436 15.0653 13.6503H14.0653ZM12.1602 10.6374C13.2876 11.1729 14.0653 12.3213 14.0653 13.6503H15.0653C15.0653 11.9209 14.0522 10.4291 12.5893 9.73412L12.1602 10.6374ZM11.8748 2.69759V10.1857H12.8748V2.69759H11.8748ZM10.7319 1.55469C11.3631 1.55469 11.8748 2.06638 11.8748 2.69759H12.8748C12.8748 1.5141 11.9154 0.554688 10.7319 0.554688V1.55469Z" fill="#898989"/>
<path d="M1 9.0855C1 7.8533 2.76767 3.91794 3.28007 3.91797C3.79246 3.918 5.48331 8.02917 5.48331 9.0855C5.48331 10.1418 4.81114 11.6037 3.28007 11.6037C1.74899 11.6037 1 10.3177 1 9.0855Z" stroke="#898989"/>
<path d="M2.46231 8.4579C2.3916 8.85061 2.43422 9.73572 3.17033 10.1345" stroke="#898989" stroke-linecap="round"/>
<path fill-rule="evenodd" clip-rule="evenodd" d="M11.2772 11.5284C12.222 11.7716 12.9201 12.6293 12.9201 13.65C12.9201 14.8598 11.9394 15.8405 10.7296 15.8405C9.5198 15.8405 8.53906 14.8598 8.53906 13.65C8.53906 12.6293 9.23717 11.7716 10.182 11.5284L10.182 3.2449C10.182 2.94245 10.4272 2.69727 10.7296 2.69727C11.0321 2.69727 11.2772 2.94245 11.2772 3.2449L11.2772 11.5284Z" fill="#FF6F00"/>
<path d="M19.1211 15.8398H16.4358" stroke="#898989" stroke-linecap="round"/>
<path d="M19.1211 12.5547H16.8833" stroke="#C2C2C2" stroke-linecap="round"/>
<path d="M19.1211 9.26953L15.9882 9.26953" stroke="#C2C2C2" stroke-linecap="round"/>
<path d="M19.1211 5.98242L15.9882 5.98242" stroke="#C2C2C2" stroke-linecap="round"/>
<path d="M19.1211 2.69727H15.9882" stroke="#C2C2C2" stroke-linecap="round"/>
</svg>
