<svg width="23" height="21" viewBox="0 0 23 21" fill="none" xmlns="http://www.w3.org/2000/svg">
<path d="M10.4186 11.4644L10.6331 11.916L10.9186 11.7804V11.4644H10.4186ZM14.2992 11.4643H13.7992V11.7803L14.0846 11.9159L14.2992 11.4643ZM10.9186 2.62061C10.9186 1.82516 11.5634 1.18031 12.3589 1.18031V0.180313C11.0111 0.180313 9.91856 1.27287 9.91856 2.62061H10.9186ZM10.9186 11.4644V2.62061H9.91856V11.4644H10.9186ZM8.33162 15.556C8.33162 13.9502 9.27137 12.563 10.6331 11.916L10.204 11.0128C8.50674 11.8191 7.33162 13.5498 7.33162 15.556H8.33162ZM12.359 19.5834C10.1347 19.5834 8.33162 17.7803 8.33162 15.556H7.33162C7.33162 18.3325 9.58245 20.5834 12.359 20.5834V19.5834ZM16.3864 15.556C16.3864 17.7803 14.5832 19.5834 12.359 19.5834V20.5834C15.1355 20.5834 17.3864 18.3325 17.3864 15.556H16.3864ZM14.0846 11.9159C15.4465 12.5628 16.3864 13.9501 16.3864 15.556H17.3864C17.3864 13.5497 16.2111 11.8189 14.5137 11.0126L14.0846 11.9159ZM13.7992 2.62061V11.4643H14.7992V2.62061H13.7992ZM12.3589 1.18031C13.1543 1.18031 13.7992 1.82516 13.7992 2.62061H14.7992C14.7992 1.27287 13.7066 0.180313 12.3589 0.180313V1.18031Z" fill="#898989"/>
<path d="M0.867188 10.1649C0.867188 8.7096 2.95484 4.06187 3.55999 4.0619C4.16514 4.06194 6.16206 8.91731 6.16206 10.1649C6.16206 11.4124 5.36822 13.1388 3.55999 13.1388C1.75176 13.1388 0.867188 11.6201 0.867188 10.1649Z" stroke="#898989"/>
<path d="M2.5942 9.42411C2.51069 9.88791 2.56102 10.9332 3.43038 11.4042" stroke="#898989" stroke-linecap="round"/>
<path fill-rule="evenodd" clip-rule="evenodd" d="M11.7103 13.0507L11.7103 3.26757C11.7103 2.91037 11.9999 2.6208 12.3571 2.6208C12.7143 2.6208 13.0038 2.91037 13.0038 3.26757L13.0038 13.0508C14.1196 13.338 14.9439 14.3509 14.9439 15.5563C14.9439 16.9851 13.7857 18.1433 12.3569 18.1433C10.9281 18.1433 9.76981 16.9851 9.76981 15.5563C9.76981 14.3507 10.5944 13.3378 11.7103 13.0507Z" fill="#D01B1B"/>
<path d="M22.2685 18.1429H19.0971" stroke="#D01B1B" stroke-linecap="round"/>
<path d="M22.2685 14.2625H19.6257" stroke="#C2C2C2" stroke-linecap="round"/>
<path d="M22.2685 10.3815L18.5686 10.3815" stroke="#C2C2C2" stroke-linecap="round"/>
<path d="M22.2685 6.50107L18.5686 6.50107" stroke="#C2C2C2" stroke-linecap="round"/>
<path d="M22.2685 2.62067H18.5686" stroke="#C2C2C2" stroke-linecap="round"/>
</svg>
