<?xml version="1.0" encoding="UTF-8"?><svg id="a" xmlns="http://www.w3.org/2000/svg" width="44" height="44" viewBox="0 0 44 44"><rect x="19" y="15" width="1" height="14" style="fill:#009688; opacity:.5;"/><rect x="20" y="15" width="1" height="14" style="fill:#009688;"/><rect x="21" y="15" width="1" height="14" style="fill:#009688; opacity:.5;"/><rect x="22" y="15" width="1" height="14" style="fill:#009688;"/><rect x="23" y="15" width="1" height="14" style="fill:#009688; opacity:.5;"/><rect x="24" y="15" width="1" height="14" style="fill:#009688;"/><rect x="25" y="15" width="1" height="14" style="fill:#009688; opacity:.5;"/><line x1="26.5" y1="14" x2="26.5" y2="30" style="fill:none; stroke:#949494;"/><line x1="18.5" y1="14" x2="18.5" y2="30" style="fill:none; stroke:#949494;"/><path d="M28.5,23v-9.5c0-1.66-1.34-3-3-3h-6c-1.66,0-3,1.34-3,3v9.5" style="fill:none; stroke:#949494;"/><path d="M15,23v11h15v-11h-15ZM21,26v-1c0-.55.45-1,1-1h1c.55,0,1,.45,1,1v1c0,.55-.45,1-1,1h-1c-.55,0-1-.45-1-1Z" style="fill:#949494; opacity:.7;"/></svg>