<svg width="26" height="26" xmlns="http://www.w3.org/2000/svg" fill="none">
 <g>
  <title>background</title>
  <rect x="-1" y="-1" width="28" height="28" id="canvas_background" fill="none"/>
 </g>

 <g>
  <title>Layer 1</title>
  <path d="m23.64505,13.00145c0.1433,0 0.2599,-0.1162 0.2565,-0.2596c-0.0492,-2.06562 -0.6845,-4.07681 -1.8345,-5.79779c-1.198,-1.79301 -2.9008,-3.19049 -4.8931,-4.01572c-1.9923,-0.82523 -4.1846,-1.04115 -6.29955,-0.62045c-2.11499,0.4207 -4.05774,1.45912 -5.58257,2.98395c-1.52483,1.52482 -2.56325,3.46757 -2.98394,5.58257c-0.4207,2.11504 -0.20479,4.30724 0.62044,6.29954c0.82524,1.9923 2.22271,3.6951 4.01572,4.8932c1.72099,1.1499 3.73217,1.7852 5.7978,1.8344c0.1434,0.0034 0.2596,-0.1132 0.2596,-0.2565l0,-1.1656c0,-0.1433 -0.1162,-0.2592 -0.2596,-0.2632c-1.73236,-0.0488 -3.4179,-0.5851 -4.86183,-1.5499c-1.51595,-1.013 -2.6975,-2.4527 -3.39522,-4.1371c-0.69772,-1.6845 -0.88027,-3.538 -0.52458,-5.32617c0.35569,-1.7882 1.23366,-3.43076 2.52288,-4.71998c1.28922,-1.28921 2.93178,-2.16718 4.71995,-2.52287c1.7882,-0.3557 3.6417,-0.17314 5.3262,0.52458c1.6844,0.69772 3.1241,1.87926 4.1371,3.39522c0.9648,1.44393 1.5011,3.12947 1.5499,4.86192c0.004,0.1433 0.1199,0.2595 0.2632,0.2595l1.1656,0z" fill="#ACACAC" id="svg_2"/>
  <path d="m22.98357,17.51953c-0.1039,0.127 -0.2981,0.127 -0.4019,0l-3.5682,-4.3626c-0.1387,-0.1695 -0.0181,-0.4239 0.2009,-0.4239l7.1364,0c0.219,0 0.3396,0.2544 0.201,0.4239l-3.5682,4.3626z" fill="#ACACAC" id="svg_3"/>
 </g>
</svg>