<svg width="23" height="21" viewBox="0 0 23 21" fill="none" xmlns="http://www.w3.org/2000/svg">
<path d="M10.457 11.4008L10.6715 11.8524L10.957 11.7168V11.4008H10.457ZM14.3376 11.4006H13.8376V11.7167L14.123 11.8523L14.3376 11.4006ZM10.957 2.557C10.957 1.76154 11.6018 1.1167 12.3973 1.1167V0.116699C11.0495 0.116699 9.95698 1.20926 9.95698 2.557H10.957ZM10.957 11.4008V2.557H9.95698V11.4008H10.957ZM8.37004 15.4924C8.37004 13.8866 9.30979 12.4993 10.6715 11.8524L10.2424 10.9491C8.54516 11.7555 7.37004 13.4862 7.37004 15.4924H8.37004ZM12.3974 19.5198C10.1732 19.5198 8.37004 17.7166 8.37004 15.4924H7.37004C7.37004 18.2689 9.62087 20.5198 12.3974 20.5198V19.5198ZM16.4248 15.4924C16.4248 17.7166 14.6217 19.5198 12.3974 19.5198V20.5198C15.1739 20.5198 17.4248 18.2689 17.4248 15.4924H16.4248ZM14.123 11.8523C15.4849 12.4992 16.4248 13.8865 16.4248 15.4924H17.4248C17.4248 13.4861 16.2495 11.7553 14.5521 10.949L14.123 11.8523ZM13.8376 2.557V11.4006H14.8376V2.557H13.8376ZM12.3973 1.1167C13.1927 1.1167 13.8376 1.76154 13.8376 2.557H14.8376C14.8376 1.20926 13.745 0.116699 12.3973 0.116699V1.1167Z" fill="#898989"/>
<path d="M0.905604 10.1012C0.905604 8.64598 2.99326 3.99825 3.5984 3.99829C4.20355 3.99833 6.20048 8.8537 6.20048 10.1012C6.20048 11.3488 5.40664 13.0752 3.5984 13.0752C1.79017 13.0752 0.905604 11.5565 0.905604 10.1012Z" stroke="#898989"/>
<path d="M2.63246 9.36085C2.54895 9.82465 2.59928 10.87 3.46864 11.341" stroke="#898989" stroke-linecap="round"/>
<path fill-rule="evenodd" clip-rule="evenodd" d="M11.7481 12.987L11.7481 3.20396C11.7481 2.84676 12.0377 2.55719 12.3949 2.55719C12.7521 2.55719 13.0417 2.84676 13.0417 3.20396L13.0417 12.9871C14.1574 13.2744 14.9818 14.2873 14.9818 15.4927C14.9818 16.9215 13.8235 18.0797 12.3947 18.0797C10.9659 18.0797 9.80765 16.9215 9.80765 15.4927C9.80765 14.2871 10.6322 13.2742 11.7481 12.987Z" fill="#C2C2C2"/>
<path fill-rule="evenodd" clip-rule="evenodd" d="M11.7482 12.9868L11.7482 6.65849C11.7482 6.30129 12.0377 6.01172 12.3949 6.01172C12.7521 6.01172 13.0417 6.30129 13.0417 6.65849L13.0417 12.9869C14.1574 13.2741 14.9818 14.287 14.9818 15.4924C14.9818 16.9212 13.8235 18.0795 12.3947 18.0795C10.9659 18.0795 9.80767 16.9212 9.80767 15.4924C9.80767 14.2869 10.6323 13.2739 11.7482 12.9868Z" fill="#FF6F00"/>
<path d="M22.3052 18.0794H19.1338" stroke="#FF6F00" stroke-linecap="round"/>
<path d="M22.3052 14.199H19.6624" stroke="#FF6F00" stroke-linecap="round"/>
<path d="M22.3052 10.318L18.6053 10.318" stroke="#C2C2C2" stroke-linecap="round"/>
<path d="M22.3052 6.43759L18.6053 6.43759" stroke="#C2C2C2" stroke-linecap="round"/>
<path d="M22.3052 2.55719H18.6053" stroke="#C2C2C2" stroke-linecap="round"/>
</svg>
