<svg xmlns="http://www.w3.org/2000/svg" width="16" height="16" viewBox="0 0 16 16"><path d="M4.5,14.5h-3a1,1,0,0,1-1-1v-6a1,1,0,0,1,1-1" style="fill:none;stroke:#949494;stroke-linecap:round;stroke-linejoin:round"/><line x1="3.5" y1="2.5" x2="3.5" y2="6.5" style="fill:none;stroke:#009688;stroke-linecap:round;stroke-linejoin:round"/><line x1="5.5" y1="2.5" x2="5.5" y2="5.5" style="fill:none;stroke:#009688;stroke-linecap:round;stroke-linejoin:round"/><line x1="7.5" y1="2.5" x2="7.5" y2="5" style="fill:none;stroke:#009688;stroke-linecap:round;stroke-linejoin:round"/><line x1="9.5" y1="2.5" x2="9.5" y2="4.5" style="fill:none;stroke:#009688;stroke-linecap:round;stroke-linejoin:round"/><line x1="11.5" y1="2.5" x2="11.5" y2="4.5" style="fill:none;stroke:#009688;stroke-linecap:round;stroke-linejoin:round"/><path d="M4.5,6.5h-3v-5a1,1,0,0,1,1-1h10a1,1,0,0,1,1,1v3" style="fill:none;stroke:#949494;stroke-linecap:round;stroke-linejoin:round"/><circle cx="10.5" cy="10.5" r="4" style="fill:none;stroke:#009688;stroke-linecap:round;stroke-linejoin:round"/><polyline points="11.5 8.5 12.5 9.5 8.5 9.5" style="fill:none;stroke:#009688;stroke-linecap:round;stroke-linejoin:round"/><polyline points="12.5 11.5 8.5 11.5 9.5 12.5" style="fill:none;stroke:#009688;stroke-linecap:square;stroke-linejoin:round"/></svg>