<svg width="23" height="22" viewBox="0 0 23 22" fill="none" xmlns="http://www.w3.org/2000/svg">
<mask id="path-1-outside-1_8121_31754" maskUnits="userSpaceOnUse" x="0" y="0" width="23" height="22" fill="black">
<rect fill="none" width="23" height="22"/>
<path fill-rule="evenodd" clip-rule="evenodd" d="M20.8766 10.676C21.0283 10.4132 21.0283 10.0895 20.8766 9.82668L16.5161 2.27402C16.3644 2.01123 16.084 1.84935 15.7805 1.84935L7.05946 1.84935C6.75601 1.84935 6.47562 2.01123 6.3239 2.27402L1.96337 9.82668C1.81165 10.0895 1.81165 10.4132 1.96337 10.676L6.3239 18.2287C6.47562 18.4915 6.75601 18.6534 7.05946 18.6534H11.42C11.6545 18.6534 11.8447 18.8435 11.8447 19.078C11.8447 19.3126 11.6545 19.5027 11.42 19.5027H7.05946C6.45257 19.5027 5.89178 19.1789 5.58834 18.6534L1.22781 11.1007C0.924369 10.5751 0.924369 9.92759 1.22781 9.40201L5.58834 1.84935C5.89178 1.32377 6.45257 1 7.05946 1H15.7805C16.3874 1 16.9482 1.32377 17.2516 1.84935L21.6122 9.40201C21.9156 9.92759 21.9156 10.5751 21.6122 11.1007L20.7059 12.6704C20.5886 12.8735 20.3289 12.9431 20.1258 12.8258C19.9227 12.7085 19.8531 12.4488 19.9704 12.2457L20.8766 10.676ZM8.87152 10.2516C8.87152 11.6588 10.0123 12.7996 11.4196 12.7996C12.8268 12.7996 13.9676 11.6588 13.9676 10.2516C13.9676 8.84433 12.8268 7.70353 11.4196 7.70353C10.0123 7.70353 8.87152 8.84433 8.87152 10.2516ZM8.02218 10.2516C8.02218 12.1279 9.54324 13.649 11.4196 13.649C13.2959 13.649 14.817 12.1279 14.817 10.2516C14.817 8.37525 13.2959 6.85418 11.4196 6.85418C9.54324 6.85418 8.02218 8.37525 8.02218 10.2516ZM14.5842 15.1475C14.4094 15.769 14.2969 16.6457 14.2969 17.6314C14.2969 18.6178 14.4054 19.4993 14.5766 20.1256C14.6628 20.4407 14.7605 20.6752 14.8576 20.8245C14.9058 20.8986 14.9472 20.9414 14.9774 20.9638C14.9918 20.9744 15.0017 20.979 15.007 20.981C15.0096 20.9819 15.0112 20.9823 15.012 20.9824L15.0135 20.9826H15.0136C15.0161 20.9826 15.0514 20.9829 15.1195 20.9029C15.1888 20.8216 15.2649 20.6866 15.3413 20.4909C15.3973 20.3475 15.5589 20.2766 15.7022 20.3326C15.8456 20.3885 15.9165 20.5501 15.8606 20.6935C15.7738 20.916 15.6705 21.1156 15.5439 21.2642C15.417 21.4133 15.2403 21.54 15.0135 21.54C14.7289 21.54 14.5245 21.3347 14.3903 21.1283C14.2487 20.9106 14.1323 20.614 14.039 20.2726C13.8512 19.5857 13.7395 18.6523 13.7395 17.6314C13.7395 16.6097 13.8554 15.6798 14.0477 14.9965C14.1433 14.6568 14.262 14.3623 14.4056 14.1462C14.5419 13.9411 14.7473 13.7395 15.0298 13.7395C15.2681 13.7395 15.45 13.8874 15.5752 14.0466C15.7038 14.21 15.81 14.4301 15.8968 14.6792C15.9474 14.8246 15.8706 14.9835 15.7253 15.0341C15.5799 15.0847 15.421 15.008 15.3704 14.8626C15.294 14.6434 15.2126 14.4871 15.1371 14.3912C15.0717 14.308 15.0341 14.2979 15.029 14.2969C15.0278 14.297 15.0256 14.2974 15.022 14.2987C15.0163 14.3008 15.006 14.3056 14.9913 14.3163C14.9605 14.3387 14.9186 14.3813 14.8699 14.4547C14.7717 14.6024 14.6722 14.8348 14.5842 15.1475ZM19.5523 17.6481C19.5523 16.6633 19.6621 15.7817 19.8339 15.1551C19.9204 14.8397 20.0183 14.6047 20.1154 14.455C20.1636 14.3806 20.205 14.3377 20.235 14.3153C20.2493 14.3046 20.2591 14.3001 20.264 14.2983C20.2664 14.2974 20.2678 14.297 20.2684 14.2969L20.2689 14.2969L20.2689 14.2969L20.269 14.2969L20.2695 14.2969C20.2701 14.297 20.2715 14.2974 20.2739 14.2983C20.2788 14.3001 20.2886 14.3046 20.3029 14.3153C20.3329 14.3377 20.3743 14.3806 20.4225 14.455C20.5196 14.6047 20.6175 14.8397 20.704 15.1551C20.8758 15.7817 20.9856 16.6633 20.9856 17.6481C20.9856 18.6329 20.8758 19.5145 20.704 20.1411C20.6175 20.4565 20.5196 20.6915 20.4225 20.8412C20.3743 20.9156 20.3329 20.9585 20.3029 20.9809C20.2886 20.9916 20.2788 20.9961 20.2739 20.9979C20.2715 20.9988 20.2701 20.9992 20.2695 20.9993L20.269 20.9993L20.2689 20.9993L20.2689 20.9993L20.2684 20.9993C20.2678 20.9992 20.2664 20.9988 20.264 20.9979C20.2591 20.9961 20.2493 20.9916 20.235 20.9809C20.205 20.9585 20.1636 20.9156 20.1154 20.8412C20.0183 20.6915 19.9204 20.4565 19.8339 20.1411C19.6621 19.5145 19.5523 18.6329 19.5523 17.6481ZM20.2689 13.7395C19.9846 13.7395 19.7809 13.9463 19.6477 14.1518C19.5065 14.3695 19.39 14.6661 19.2964 15.0077C19.108 15.6947 18.9949 16.6282 18.9949 17.6481C18.9949 18.668 19.108 19.6015 19.2964 20.2885C19.39 20.6301 19.5065 20.9267 19.6477 21.1444C19.7809 21.3499 19.9846 21.5567 20.2689 21.5567C20.5532 21.5567 20.757 21.3499 20.8902 21.1444C21.0314 20.9267 21.1479 20.6301 21.2415 20.2885C21.4299 19.6015 21.543 18.668 21.543 17.6481C21.543 16.6282 21.4299 15.6947 21.2415 15.0077C21.1479 14.6661 21.0314 14.3695 20.8902 14.1518C20.757 13.9463 20.5532 13.7395 20.2689 13.7395ZM16.4964 15.4793C16.3519 16.0028 16.2597 16.742 16.2597 17.5692C16.2597 18.3965 16.3519 19.1356 16.4964 19.6592C16.5693 19.923 16.6511 20.1161 16.7303 20.2368C16.7771 20.3081 16.81 20.3358 16.8262 20.3463C16.829 20.3445 16.8322 20.3422 16.8358 20.3393C16.8617 20.3192 16.8968 20.2815 16.9316 20.222C17.0094 20.0892 17.1801 20.0445 17.3129 20.1223C17.4458 20.2 17.4904 20.3707 17.4127 20.5036C17.3496 20.6114 17.2705 20.7074 17.178 20.7793C17.0875 20.8497 16.9677 20.9091 16.8295 20.9091C16.5665 20.9091 16.3814 20.7211 16.2643 20.5426C16.14 20.3533 16.0393 20.0979 15.9592 19.8076C15.7978 19.2229 15.7023 18.4315 15.7023 17.5692C15.7023 16.707 15.7978 15.9156 15.9592 15.3309C16.0393 15.0406 16.14 14.7852 16.2643 14.5959C16.3814 14.4174 16.5665 14.2294 16.8295 14.2294C17.0856 14.2294 17.273 14.4112 17.3895 14.5903C17.4734 14.7194 17.4368 14.892 17.3078 14.9759C17.1787 15.0598 17.0061 15.0232 16.9222 14.8942C16.8864 14.8391 16.8556 14.8091 16.8357 14.7947L16.8292 14.7903C16.8143 14.7992 16.7801 14.8257 16.7303 14.9017C16.6511 15.0224 16.5693 15.2155 16.4964 15.4793ZM18.1071 15.5576C17.9625 16.0812 17.8703 16.8203 17.8703 17.6476C17.8703 18.4749 17.9625 19.214 18.1071 19.7376C18.1799 20.0014 18.2617 20.1945 18.3409 20.3152C18.3877 20.3864 18.4207 20.4142 18.4369 20.4247L18.4419 20.4212L18.4465 20.4177C18.4723 20.3976 18.5075 20.3599 18.5423 20.3004C18.62 20.1676 18.7907 20.1229 18.9236 20.2006C19.0564 20.2784 19.1011 20.4491 19.0233 20.5819C18.9602 20.6897 18.8811 20.7858 18.7887 20.8577C18.6982 20.9281 18.5783 20.9875 18.4401 20.9875C18.1771 20.9875 17.9921 20.7995 17.8749 20.621C17.7507 20.4317 17.65 20.1763 17.5698 19.8859C17.4084 19.3013 17.313 18.5098 17.313 17.6476C17.313 16.7854 17.4084 15.9939 17.5698 15.4093C17.65 15.119 17.7507 14.8636 17.8749 14.6742C17.9921 14.4958 18.1771 14.3078 18.4401 14.3078C18.6962 14.3078 18.8836 14.4896 19.0001 14.6687C19.084 14.7977 19.0474 14.9704 18.9184 15.0543C18.7894 15.1382 18.6168 15.1016 18.5328 14.9726C18.497 14.9175 18.4662 14.8874 18.4464 14.8731L18.4398 14.8687C18.425 14.8776 18.3908 14.9041 18.3409 14.9801C18.2617 15.1008 18.1799 15.2939 18.1071 15.5576Z"/>
</mask>
<path fill-rule="evenodd" clip-rule="evenodd" d="M20.8766 10.676C21.0283 10.4132 21.0283 10.0895 20.8766 9.82668L16.5161 2.27402C16.3644 2.01123 16.084 1.84935 15.7805 1.84935L7.05946 1.84935C6.75601 1.84935 6.47562 2.01123 6.3239 2.27402L1.96337 9.82668C1.81165 10.0895 1.81165 10.4132 1.96337 10.676L6.3239 18.2287C6.47562 18.4915 6.75601 18.6534 7.05946 18.6534H11.42C11.6545 18.6534 11.8447 18.8435 11.8447 19.078C11.8447 19.3126 11.6545 19.5027 11.42 19.5027H7.05946C6.45257 19.5027 5.89178 19.1789 5.58834 18.6534L1.22781 11.1007C0.924369 10.5751 0.924369 9.92759 1.22781 9.40201L5.58834 1.84935C5.89178 1.32377 6.45257 1 7.05946 1H15.7805C16.3874 1 16.9482 1.32377 17.2516 1.84935L21.6122 9.40201C21.9156 9.92759 21.9156 10.5751 21.6122 11.1007L20.7059 12.6704C20.5886 12.8735 20.3289 12.9431 20.1258 12.8258C19.9227 12.7085 19.8531 12.4488 19.9704 12.2457L20.8766 10.676ZM8.87152 10.2516C8.87152 11.6588 10.0123 12.7996 11.4196 12.7996C12.8268 12.7996 13.9676 11.6588 13.9676 10.2516C13.9676 8.84433 12.8268 7.70353 11.4196 7.70353C10.0123 7.70353 8.87152 8.84433 8.87152 10.2516ZM8.02218 10.2516C8.02218 12.1279 9.54324 13.649 11.4196 13.649C13.2959 13.649 14.817 12.1279 14.817 10.2516C14.817 8.37525 13.2959 6.85418 11.4196 6.85418C9.54324 6.85418 8.02218 8.37525 8.02218 10.2516ZM14.5842 15.1475C14.4094 15.769 14.2969 16.6457 14.2969 17.6314C14.2969 18.6178 14.4054 19.4993 14.5766 20.1256C14.6628 20.4407 14.7605 20.6752 14.8576 20.8245C14.9058 20.8986 14.9472 20.9414 14.9774 20.9638C14.9918 20.9744 15.0017 20.979 15.007 20.981C15.0096 20.9819 15.0112 20.9823 15.012 20.9824L15.0135 20.9826H15.0136C15.0161 20.9826 15.0514 20.9829 15.1195 20.9029C15.1888 20.8216 15.2649 20.6866 15.3413 20.4909C15.3973 20.3475 15.5589 20.2766 15.7022 20.3326C15.8456 20.3885 15.9165 20.5501 15.8606 20.6935C15.7738 20.916 15.6705 21.1156 15.5439 21.2642C15.417 21.4133 15.2403 21.54 15.0135 21.54C14.7289 21.54 14.5245 21.3347 14.3903 21.1283C14.2487 20.9106 14.1323 20.614 14.039 20.2726C13.8512 19.5857 13.7395 18.6523 13.7395 17.6314C13.7395 16.6097 13.8554 15.6798 14.0477 14.9965C14.1433 14.6568 14.262 14.3623 14.4056 14.1462C14.5419 13.9411 14.7473 13.7395 15.0298 13.7395C15.2681 13.7395 15.45 13.8874 15.5752 14.0466C15.7038 14.21 15.81 14.4301 15.8968 14.6792C15.9474 14.8246 15.8706 14.9835 15.7253 15.0341C15.5799 15.0847 15.421 15.008 15.3704 14.8626C15.294 14.6434 15.2126 14.4871 15.1371 14.3912C15.0717 14.308 15.0341 14.2979 15.029 14.2969C15.0278 14.297 15.0256 14.2974 15.022 14.2987C15.0163 14.3008 15.006 14.3056 14.9913 14.3163C14.9605 14.3387 14.9186 14.3813 14.8699 14.4547C14.7717 14.6024 14.6722 14.8348 14.5842 15.1475ZM19.5523 17.6481C19.5523 16.6633 19.6621 15.7817 19.8339 15.1551C19.9204 14.8397 20.0183 14.6047 20.1154 14.455C20.1636 14.3806 20.205 14.3377 20.235 14.3153C20.2493 14.3046 20.2591 14.3001 20.264 14.2983C20.2664 14.2974 20.2678 14.297 20.2684 14.2969L20.2689 14.2969L20.2689 14.2969L20.269 14.2969L20.2695 14.2969C20.2701 14.297 20.2715 14.2974 20.2739 14.2983C20.2788 14.3001 20.2886 14.3046 20.3029 14.3153C20.3329 14.3377 20.3743 14.3806 20.4225 14.455C20.5196 14.6047 20.6175 14.8397 20.704 15.1551C20.8758 15.7817 20.9856 16.6633 20.9856 17.6481C20.9856 18.6329 20.8758 19.5145 20.704 20.1411C20.6175 20.4565 20.5196 20.6915 20.4225 20.8412C20.3743 20.9156 20.3329 20.9585 20.3029 20.9809C20.2886 20.9916 20.2788 20.9961 20.2739 20.9979C20.2715 20.9988 20.2701 20.9992 20.2695 20.9993L20.269 20.9993L20.2689 20.9993L20.2689 20.9993L20.2684 20.9993C20.2678 20.9992 20.2664 20.9988 20.264 20.9979C20.2591 20.9961 20.2493 20.9916 20.235 20.9809C20.205 20.9585 20.1636 20.9156 20.1154 20.8412C20.0183 20.6915 19.9204 20.4565 19.8339 20.1411C19.6621 19.5145 19.5523 18.6329 19.5523 17.6481ZM20.2689 13.7395C19.9846 13.7395 19.7809 13.9463 19.6477 14.1518C19.5065 14.3695 19.39 14.6661 19.2964 15.0077C19.108 15.6947 18.9949 16.6282 18.9949 17.6481C18.9949 18.668 19.108 19.6015 19.2964 20.2885C19.39 20.6301 19.5065 20.9267 19.6477 21.1444C19.7809 21.3499 19.9846 21.5567 20.2689 21.5567C20.5532 21.5567 20.757 21.3499 20.8902 21.1444C21.0314 20.9267 21.1479 20.6301 21.2415 20.2885C21.4299 19.6015 21.543 18.668 21.543 17.6481C21.543 16.6282 21.4299 15.6947 21.2415 15.0077C21.1479 14.6661 21.0314 14.3695 20.8902 14.1518C20.757 13.9463 20.5532 13.7395 20.2689 13.7395ZM16.4964 15.4793C16.3519 16.0028 16.2597 16.742 16.2597 17.5692C16.2597 18.3965 16.3519 19.1356 16.4964 19.6592C16.5693 19.923 16.6511 20.1161 16.7303 20.2368C16.7771 20.3081 16.81 20.3358 16.8262 20.3463C16.829 20.3445 16.8322 20.3422 16.8358 20.3393C16.8617 20.3192 16.8968 20.2815 16.9316 20.222C17.0094 20.0892 17.1801 20.0445 17.3129 20.1223C17.4458 20.2 17.4904 20.3707 17.4127 20.5036C17.3496 20.6114 17.2705 20.7074 17.178 20.7793C17.0875 20.8497 16.9677 20.9091 16.8295 20.9091C16.5665 20.9091 16.3814 20.7211 16.2643 20.5426C16.14 20.3533 16.0393 20.0979 15.9592 19.8076C15.7978 19.2229 15.7023 18.4315 15.7023 17.5692C15.7023 16.707 15.7978 15.9156 15.9592 15.3309C16.0393 15.0406 16.14 14.7852 16.2643 14.5959C16.3814 14.4174 16.5665 14.2294 16.8295 14.2294C17.0856 14.2294 17.273 14.4112 17.3895 14.5903C17.4734 14.7194 17.4368 14.892 17.3078 14.9759C17.1787 15.0598 17.0061 15.0232 16.9222 14.8942C16.8864 14.8391 16.8556 14.8091 16.8357 14.7947L16.8292 14.7903C16.8143 14.7992 16.7801 14.8257 16.7303 14.9017C16.6511 15.0224 16.5693 15.2155 16.4964 15.4793ZM18.1071 15.5576C17.9625 16.0812 17.8703 16.8203 17.8703 17.6476C17.8703 18.4749 17.9625 19.214 18.1071 19.7376C18.1799 20.0014 18.2617 20.1945 18.3409 20.3152C18.3877 20.3864 18.4207 20.4142 18.4369 20.4247L18.4419 20.4212L18.4465 20.4177C18.4723 20.3976 18.5075 20.3599 18.5423 20.3004C18.62 20.1676 18.7907 20.1229 18.9236 20.2006C19.0564 20.2784 19.1011 20.4491 19.0233 20.5819C18.9602 20.6897 18.8811 20.7858 18.7887 20.8577C18.6982 20.9281 18.5783 20.9875 18.4401 20.9875C18.1771 20.9875 17.9921 20.7995 17.8749 20.621C17.7507 20.4317 17.65 20.1763 17.5698 19.8859C17.4084 19.3013 17.313 18.5098 17.313 17.6476C17.313 16.7854 17.4084 15.9939 17.5698 15.4093C17.65 15.119 17.7507 14.8636 17.8749 14.6742C17.9921 14.4958 18.1771 14.3078 18.4401 14.3078C18.6962 14.3078 18.8836 14.4896 19.0001 14.6687C19.084 14.7977 19.0474 14.9704 18.9184 15.0543C18.7894 15.1382 18.6168 15.1016 18.5328 14.9726C18.497 14.9175 18.4662 14.8874 18.4464 14.8731L18.4398 14.8687C18.425 14.8776 18.3908 14.9041 18.3409 14.9801C18.2617 15.1008 18.1799 15.2939 18.1071 15.5576Z" fill="#6B6B6B"/>
<path d="M20.8766 9.82668L21.1364 9.67668L20.8766 9.82668ZM20.8766 10.676L21.1364 10.826V10.826L20.8766 10.676ZM16.5161 2.27402L16.7759 2.12402V2.12402L16.5161 2.27402ZM15.7805 1.84935V2.14935V1.84935ZM7.05946 1.84935V1.54935V1.84935ZM6.3239 2.27402L6.58371 2.42402L6.58371 2.42402L6.3239 2.27402ZM1.96337 9.82668L1.70356 9.67668L1.70356 9.67668L1.96337 9.82668ZM1.96337 10.676L1.70356 10.826L1.70356 10.826L1.96337 10.676ZM6.3239 18.2287L6.58371 18.0787H6.58371L6.3239 18.2287ZM5.58834 18.6534L5.84815 18.5034L5.58834 18.6534ZM1.22781 11.1007L0.968004 11.2507H0.968004L1.22781 11.1007ZM1.22781 9.40201L0.968004 9.25201H0.968004L1.22781 9.40201ZM5.58834 1.84935L5.84815 1.99935L5.84815 1.99935L5.58834 1.84935ZM17.2516 1.84935L16.9918 1.99935V1.99935L17.2516 1.84935ZM21.6122 9.40201L21.3524 9.55201V9.55201L21.6122 9.40201ZM21.6122 11.1007L21.3524 10.9507V10.9507L21.6122 11.1007ZM20.7059 12.6704L20.9657 12.8204V12.8204L20.7059 12.6704ZM20.1258 12.8258L19.9758 13.0856H19.9758L20.1258 12.8258ZM19.9704 12.2457L19.7106 12.0957V12.0957L19.9704 12.2457ZM8.87152 10.2516H8.57152H8.87152ZM11.4196 7.70353V7.40353V7.70353ZM14.5842 15.1475L14.2955 15.0663H14.2955L14.5842 15.1475ZM14.5766 20.1256L14.866 20.0465L14.5766 20.1256ZM14.8576 20.8245L14.6061 20.988L14.6061 20.988L14.8576 20.8245ZM14.9774 20.9638L14.7988 21.2048L14.7988 21.2048L14.9774 20.9638ZM15.007 20.981L14.9035 21.2626L14.9036 21.2626L15.007 20.981ZM15.012 20.9824L14.9583 21.2776L14.969 21.2795L14.9797 21.2807L15.012 20.9824ZM15.0135 20.9826L14.9812 21.2809L14.9973 21.2826H15.0135V20.9826ZM15.0136 20.9826L15.0157 20.6826H15.0136V20.9826ZM15.1195 20.9029L15.3479 21.0974L15.3479 21.0974L15.1195 20.9029ZM15.3413 20.4909L15.0618 20.3818L15.0618 20.3818L15.3413 20.4909ZM15.7022 20.3326L15.8113 20.0531L15.8113 20.0531L15.7022 20.3326ZM15.8606 20.6935L16.1401 20.8025L15.8606 20.6935ZM15.5439 21.2642L15.3155 21.0698L15.3155 21.0698L15.5439 21.2642ZM14.3903 21.1283L14.6418 20.9648H14.6418L14.3903 21.1283ZM14.039 20.2726L14.3284 20.1935H14.3284L14.039 20.2726ZM14.0477 14.9965L13.7589 14.9153H13.7589L14.0477 14.9965ZM14.4056 14.1462L14.6555 14.3122L14.4056 14.1462ZM15.5752 14.0466L15.811 13.8611L15.5752 14.0466ZM15.8968 14.6792L16.1801 14.5805V14.5805L15.8968 14.6792ZM15.7253 15.0341L15.6266 14.7508H15.6266L15.7253 15.0341ZM15.3704 14.8626L15.6537 14.7639V14.7639L15.3704 14.8626ZM15.1371 14.3912L14.9014 14.5767L14.9014 14.5767L15.1371 14.3912ZM15.029 14.2969L15.0872 14.0026L15.0438 13.994L14.9998 13.9983L15.029 14.2969ZM15.022 14.2987L15.1241 14.5808L15.1242 14.5808L15.022 14.2987ZM14.9913 14.3163L15.1681 14.5587L15.1681 14.5587L14.9913 14.3163ZM14.8699 14.4547L14.62 14.2887L14.62 14.2887L14.8699 14.4547ZM19.8339 15.1551L20.1232 15.2344L19.8339 15.1551ZM20.1154 14.455L19.8636 14.2918L19.8636 14.2918L20.1154 14.455ZM20.235 14.3153L20.0556 14.0748H20.0556L20.235 14.3153ZM20.264 14.2983L20.1598 14.0169L20.1597 14.0169L20.264 14.2983ZM20.2684 14.2969L20.2241 14.0001L20.2138 14.002L20.2684 14.2969ZM20.2689 14.2969L20.2475 13.9976L20.236 13.9985L20.2246 14.0002L20.2689 14.2969ZM20.2689 14.2969L20.2939 13.9979L20.2707 13.996L20.2476 13.9976L20.2689 14.2969ZM20.269 14.2969L20.3134 14.0002L20.3037 13.9987L20.2939 13.9979L20.269 14.2969ZM20.2695 14.2969L20.324 14.0018L20.3139 14.0003L20.2695 14.2969ZM20.2739 14.2983L20.1697 14.5796L20.1697 14.5796L20.2739 14.2983ZM20.3029 14.3153L20.4823 14.0748L20.4823 14.0748L20.3029 14.3153ZM20.4225 14.455L20.6743 14.2918L20.6743 14.2918L20.4225 14.455ZM20.704 15.1551L20.9933 15.0757V15.0757L20.704 15.1551ZM20.704 20.1411L20.9933 20.2205L20.704 20.1411ZM20.4225 20.8412L20.6743 21.0044L20.6743 21.0044L20.4225 20.8412ZM20.3029 20.9809L20.4823 21.2214L20.4823 21.2214L20.3029 20.9809ZM20.2739 20.9979L20.378 21.2793L20.3781 21.2793L20.2739 20.9979ZM20.2695 20.9993L20.314 21.2961L20.3244 21.2942L20.2695 20.9993ZM20.269 20.9993L20.2896 21.2986L20.3016 21.2978L20.3134 21.296L20.269 20.9993ZM20.2689 20.9993L20.2429 21.2982L20.2662 21.3002L20.2896 21.2986L20.2689 20.9993ZM20.2689 20.9993L20.2246 21.296L20.2337 21.2974L20.2429 21.2982L20.2689 20.9993ZM20.2684 20.9993L20.2132 21.2943L20.2241 21.296L20.2684 20.9993ZM20.264 20.9979L20.1597 21.2793L20.1599 21.2793L20.264 20.9979ZM20.235 20.9809L20.0556 21.2214L20.0556 21.2214L20.235 20.9809ZM20.1154 20.8412L19.8636 21.0044L19.8636 21.0044L20.1154 20.8412ZM19.8339 20.1411L20.1232 20.0618V20.0618L19.8339 20.1411ZM19.6477 14.1518L19.3959 13.9886L19.3959 13.9886L19.6477 14.1518ZM19.2964 15.0077L19.007 14.9283L19.2964 15.0077ZM19.2964 20.2885L19.5857 20.2092V20.2092L19.2964 20.2885ZM19.6477 21.1444L19.3959 21.3076L19.6477 21.1444ZM20.8902 21.1444L21.142 21.3076L20.8902 21.1444ZM21.2415 20.2885L21.5309 20.3679L21.2415 20.2885ZM21.2415 15.0077L21.5309 14.9283V14.9283L21.2415 15.0077ZM20.8902 14.1518L21.142 13.9886L21.142 13.9886L20.8902 14.1518ZM16.4964 15.4793L16.7856 15.5591L16.7856 15.5591L16.4964 15.4793ZM16.4964 19.6592L16.7856 19.5794L16.7856 19.5794L16.4964 19.6592ZM16.7303 20.2368L16.9811 20.0722L16.7303 20.2368ZM16.8262 20.3463L16.663 20.5981L16.8293 20.7059L16.9937 20.5952L16.8262 20.3463ZM16.8358 20.3393L16.6517 20.1025L16.6517 20.1025L16.8358 20.3393ZM16.9316 20.222L16.6727 20.0705V20.0705L16.9316 20.222ZM17.3129 20.1223L17.1614 20.3812H17.1614L17.3129 20.1223ZM17.4127 20.5036L17.1538 20.352L17.1538 20.352L17.4127 20.5036ZM17.178 20.7793L17.3622 21.0161L17.3622 21.0161L17.178 20.7793ZM16.2643 20.5426L16.5151 20.378L16.5151 20.378L16.2643 20.5426ZM15.9592 19.8076L16.2483 19.7277H16.2483L15.9592 19.8076ZM15.9592 15.3309L16.2483 15.4108L16.2483 15.4108L15.9592 15.3309ZM16.2643 14.5959L16.5151 14.7605L16.2643 14.5959ZM17.3895 14.5903L17.138 14.7539L17.138 14.7539L17.3895 14.5903ZM17.3078 14.9759L17.1442 14.7244L17.1442 14.7244L17.3078 14.9759ZM16.9222 14.8942L17.1737 14.7306L17.1737 14.7306L16.9222 14.8942ZM16.8357 14.7947L17.0113 14.5513L17.0039 14.5463L16.8357 14.7947ZM16.8292 14.7903L16.9974 14.5419L16.8394 14.4349L16.6755 14.5327L16.8292 14.7903ZM16.7303 14.9017L16.4795 14.7371L16.4795 14.7371L16.7303 14.9017ZM18.1071 15.5576L18.3963 15.6375V15.6375L18.1071 15.5576ZM18.1071 19.7376L18.3963 19.6578V19.6578L18.1071 19.7376ZM18.3409 20.3152L18.5917 20.1506L18.5917 20.1506L18.3409 20.3152ZM18.4369 20.4247L18.2737 20.6764L18.4436 20.7866L18.6093 20.6702L18.4369 20.4247ZM18.4419 20.4212L18.6145 20.6668L18.6227 20.6606L18.4419 20.4212ZM18.4465 20.4177L18.6273 20.6572L18.6307 20.6545L18.4465 20.4177ZM18.5423 20.3004L18.2834 20.1489L18.2834 20.1489L18.5423 20.3004ZM18.9236 20.2006L19.0751 19.9417H19.0751L18.9236 20.2006ZM19.0233 20.5819L18.7644 20.4304L18.7644 20.4304L19.0233 20.5819ZM18.7887 20.8577L18.9728 21.0945L18.9728 21.0945L18.7887 20.8577ZM17.8749 20.621L18.1257 20.4564L18.1257 20.4564L17.8749 20.621ZM17.5698 19.8859L17.2806 19.9658L17.5698 19.8859ZM17.5698 15.4093L17.2806 15.3295V15.3295L17.5698 15.4093ZM17.8749 14.6742L18.1257 14.8389V14.8389L17.8749 14.6742ZM19.0001 14.6687L18.7486 14.8323L19.0001 14.6687ZM18.9184 15.0543L18.7549 14.8028L18.7549 14.8028L18.9184 15.0543ZM18.5328 14.9726L18.7843 14.809L18.7843 14.809L18.5328 14.9726ZM18.4464 14.8731L18.622 14.6297L18.6146 14.6247L18.4464 14.8731ZM18.4398 14.8687L18.6081 14.6203L18.45 14.5132L18.2861 14.6111L18.4398 14.8687ZM18.3409 14.9801L18.5917 15.1447L18.5917 15.1447L18.3409 14.9801ZM20.6168 9.97668C20.7149 10.1467 20.7149 10.3561 20.6168 10.526L21.1364 10.826C21.3417 10.4704 21.3417 10.0323 21.1364 9.67668L20.6168 9.97668ZM16.2563 2.42402L20.6168 9.97668L21.1364 9.67668L16.7759 2.12402L16.2563 2.42402ZM15.7805 2.14935C15.9768 2.14935 16.1581 2.25405 16.2563 2.42402L16.7759 2.12402C16.5706 1.76841 16.1911 1.54935 15.7805 1.54935V2.14935ZM7.05946 2.14935L15.7805 2.14935V1.54935L7.05946 1.54935V2.14935ZM6.58371 2.42402C6.68184 2.25405 6.86319 2.14935 7.05946 2.14935V1.54935C6.64883 1.54935 6.2694 1.76841 6.06409 2.12402L6.58371 2.42402ZM2.22318 9.97668L6.58371 2.42402L6.06409 2.12402L1.70356 9.67668L2.22318 9.97668ZM2.22318 10.526C2.12504 10.3561 2.12504 10.1467 2.22318 9.97668L1.70356 9.67668C1.49825 10.0323 1.49825 10.4704 1.70356 10.826L2.22318 10.526ZM6.58371 18.0787L2.22317 10.526L1.70356 10.826L6.06409 18.3787L6.58371 18.0787ZM7.05946 18.3534C6.86319 18.3534 6.68184 18.2487 6.58371 18.0787L6.06409 18.3787C6.2694 18.7343 6.64883 18.9534 7.05946 18.9534V18.3534ZM11.42 18.3534H7.05946V18.9534H11.42V18.3534ZM12.1447 19.078C12.1447 18.6778 11.8202 18.3534 11.42 18.3534V18.9534C11.4888 18.9534 11.5447 19.0092 11.5447 19.078H12.1447ZM11.42 19.8027C11.8202 19.8027 12.1447 19.4783 12.1447 19.078H11.5447C11.5447 19.1469 11.4888 19.2027 11.42 19.2027V19.8027ZM7.05946 19.8027H11.42V19.2027H7.05946V19.8027ZM5.32853 18.8034C5.68557 19.4218 6.34539 19.8027 7.05946 19.8027V19.2027C6.55975 19.2027 6.098 18.9361 5.84815 18.5034L5.32853 18.8034ZM0.968004 11.2507L5.32853 18.8034L5.84815 18.5034L1.48762 10.9507L0.968004 11.2507ZM0.968004 9.25201C0.610972 9.87041 0.610972 10.6323 0.968004 11.2507L1.48762 10.9507C1.23777 10.5179 1.23777 9.98477 1.48762 9.55201L0.968004 9.25201ZM5.32853 1.69935L0.968004 9.25201L1.48762 9.55201L5.84815 1.99935L5.32853 1.69935ZM7.05946 0.7C6.34539 0.7 5.68557 1.08095 5.32853 1.69935L5.84815 1.99935C6.098 1.56659 6.55975 1.3 7.05946 1.3V0.7ZM15.7805 0.7H7.05946V1.3H15.7805V0.7ZM17.5114 1.69935C17.1544 1.08095 16.4946 0.7 15.7805 0.7V1.3C16.2802 1.3 16.742 1.56659 16.9918 1.99935L17.5114 1.69935ZM21.872 9.25201L17.5114 1.69935L16.9918 1.99935L21.3524 9.55201L21.872 9.25201ZM21.872 11.2507C22.229 10.6323 22.229 9.87041 21.872 9.25201L21.3524 9.55201C21.6022 9.98477 21.6022 10.5179 21.3524 10.9507L21.872 11.2507ZM20.9657 12.8204L21.872 11.2507L21.3524 10.9507L20.4461 12.5204L20.9657 12.8204ZM19.9758 13.0856C20.3224 13.2857 20.7656 13.167 20.9657 12.8204L20.4461 12.5204C20.4117 12.58 20.3354 12.6004 20.2758 12.566L19.9758 13.0856ZM19.7106 12.0957C19.5104 12.4423 19.6292 12.8855 19.9758 13.0856L20.2758 12.566C20.2162 12.5316 20.1957 12.4553 20.2302 12.3957L19.7106 12.0957ZM20.6168 10.526L19.7106 12.0957L20.2302 12.3957L21.1364 10.826L20.6168 10.526ZM11.4196 12.4996C10.178 12.4996 9.17152 11.4931 9.17152 10.2516H8.57152C8.57152 11.8245 9.84664 13.0996 11.4196 13.0996V12.4996ZM13.6676 10.2516C13.6676 11.4931 12.6611 12.4996 11.4196 12.4996V13.0996C12.9925 13.0996 14.2676 11.8245 14.2676 10.2516H13.6676ZM11.4196 8.00353C12.6611 8.00353 13.6676 9.01001 13.6676 10.2516H14.2676C14.2676 8.67864 12.9925 7.40353 11.4196 7.40353V8.00353ZM9.17152 10.2516C9.17152 9.01001 10.178 8.00353 11.4196 8.00353V7.40353C9.84664 7.40353 8.57152 8.67864 8.57152 10.2516H9.17152ZM11.4196 13.349C9.70893 13.349 8.32218 11.9622 8.32218 10.2516H7.72218C7.72218 12.2936 9.37755 13.949 11.4196 13.949V13.349ZM14.517 10.2516C14.517 11.9622 13.1302 13.349 11.4196 13.349V13.949C13.4616 13.949 15.117 12.2936 15.117 10.2516H14.517ZM11.4196 7.15418C13.1302 7.15418 14.517 8.54093 14.517 10.2516H15.117C15.117 8.20956 13.4616 6.55418 11.4196 6.55418V7.15418ZM8.32218 10.2516C8.32218 8.54093 9.70893 7.15418 11.4196 7.15418V6.55418C9.37755 6.55418 7.72218 8.20956 7.72218 10.2516H8.32218ZM14.5969 17.6314C14.5969 16.6651 14.7075 15.8171 14.873 15.2288L14.2955 15.0663C14.1112 15.721 13.9969 16.6263 13.9969 17.6314H14.5969ZM14.866 20.0465C14.7037 19.4528 14.5969 18.5992 14.5969 17.6314H13.9969C13.9969 18.6364 14.1071 19.5458 14.2873 20.2047L14.866 20.0465ZM15.1091 20.6609C15.036 20.5486 14.9483 20.3475 14.866 20.0465L14.2873 20.2047C14.3773 20.534 14.4851 20.8019 14.6061 20.988L15.1091 20.6609ZM15.1561 20.7228C15.1609 20.7264 15.1581 20.7251 15.1488 20.7146C15.1398 20.7045 15.1263 20.6874 15.1091 20.6609L14.6061 20.988C14.6666 21.0811 14.731 21.1545 14.7988 21.2048L15.1561 20.7228ZM15.1104 20.6994C15.1357 20.7087 15.1508 20.7189 15.1561 20.7228L14.7988 21.2048C14.8328 21.23 14.8678 21.2494 14.9035 21.2626L15.1104 20.6994ZM15.0658 20.6873C15.0827 20.6904 15.0976 20.6947 15.1104 20.6994L14.9036 21.2626C14.9215 21.2692 14.9398 21.2742 14.9583 21.2776L15.0658 20.6873ZM15.0459 20.6844L15.0444 20.6842L14.9797 21.2807L14.9812 21.2809L15.0459 20.6844ZM15.0136 20.6826H15.0135V21.2826H15.0136V20.6826ZM14.8911 20.7084C14.8727 20.7301 14.8732 20.7235 14.8949 20.7113C14.9063 20.7048 14.9236 20.6969 14.9464 20.691C14.9578 20.688 14.97 20.6857 14.9831 20.6843C14.9896 20.6836 14.996 20.6831 15.0022 20.6828C15.0053 20.6827 15.0082 20.6826 15.0108 20.6826C15.0121 20.6826 15.0132 20.6826 15.0141 20.6826C15.015 20.6826 15.0157 20.6826 15.0157 20.6826L15.0115 21.2826C15.136 21.2835 15.2482 21.2145 15.3479 21.0974L14.8911 20.7084ZM15.0618 20.3818C14.991 20.5633 14.9294 20.6634 14.8911 20.7084L15.3479 21.0974C15.4481 20.9798 15.5388 20.81 15.6208 20.5999L15.0618 20.3818ZM15.8113 20.0531C15.5136 19.9369 15.178 20.0841 15.0618 20.3818L15.6208 20.5999C15.6165 20.6109 15.6042 20.6163 15.5932 20.612L15.8113 20.0531ZM16.1401 20.8025C16.2562 20.5048 16.109 20.1693 15.8113 20.0531L15.5932 20.612C15.5822 20.6078 15.5768 20.5954 15.5811 20.5844L16.1401 20.8025ZM15.7724 21.4587C15.9297 21.2738 16.0476 21.0394 16.1401 20.8025L15.5811 20.5844C15.4999 20.7925 15.4112 20.9573 15.3155 21.0698L15.7724 21.4587ZM15.0135 21.84C15.362 21.84 15.6148 21.6438 15.7724 21.4587L15.3155 21.0698C15.2192 21.1829 15.1185 21.24 15.0135 21.24V21.84ZM14.1388 21.2919C14.2882 21.5216 14.5709 21.84 15.0135 21.84V21.24C14.8869 21.24 14.7608 21.1478 14.6418 20.9648L14.1388 21.2919ZM13.7496 20.3517C13.8468 20.7073 13.9732 21.0373 14.1388 21.2919L14.6418 20.9648C14.5242 20.7839 14.4178 20.5207 14.3284 20.1935L13.7496 20.3517ZM13.4395 17.6314C13.4395 18.6708 13.5529 19.6322 13.7496 20.3517L14.3284 20.1935C14.1495 19.5392 14.0395 18.6337 14.0395 17.6314H13.4395ZM13.7589 14.9153C13.5573 15.6318 13.4395 16.5903 13.4395 17.6314H14.0395C14.0395 16.6291 14.1536 15.7278 14.3365 15.0778L13.7589 14.9153ZM14.1557 13.9802C13.9877 14.2331 13.8586 14.561 13.7589 14.9153L14.3365 15.0778C14.428 14.7527 14.5363 14.4916 14.6555 14.3122L14.1557 13.9802ZM15.0298 13.4395C14.5916 13.4395 14.3078 13.7512 14.1557 13.9802L14.6555 14.3122C14.7759 14.1309 14.903 14.0395 15.0298 14.0395V13.4395ZM15.811 13.8611C15.6615 13.6711 15.4023 13.4395 15.0298 13.4395V14.0395C15.1338 14.0395 15.2385 14.1038 15.3394 14.2321L15.811 13.8611ZM16.1801 14.5805C16.0877 14.3153 15.9681 14.0609 15.811 13.8611L15.3394 14.2321C15.4394 14.3592 15.5323 14.5449 15.6135 14.7779L16.1801 14.5805ZM15.824 15.3174C16.1258 15.2123 16.2852 14.8824 16.1801 14.5805L15.6135 14.7779C15.6096 14.7668 15.6155 14.7547 15.6266 14.7508L15.824 15.3174ZM15.0871 14.9613C15.1922 15.2631 15.5221 15.4226 15.824 15.3174L15.6266 14.7508C15.6377 14.7469 15.6498 14.7528 15.6537 14.7639L15.0871 14.9613ZM14.9014 14.5767C14.9482 14.6362 15.0163 14.7581 15.0871 14.9613L15.6537 14.7639C15.5717 14.5286 15.477 14.338 15.3729 14.2057L14.9014 14.5767ZM14.9707 14.5912C14.9248 14.5821 14.8965 14.5648 14.8858 14.5571C14.8758 14.55 14.8817 14.5517 14.9014 14.5767L15.3729 14.2057C15.2839 14.0925 15.1897 14.0229 15.0872 14.0026L14.9707 14.5912ZM15.1242 14.5808C15.1094 14.5861 15.0868 14.5927 15.0582 14.5955L14.9998 13.9983C14.9688 14.0014 14.9419 14.0087 14.9198 14.0167L15.1242 14.5808ZM15.1681 14.5587C15.1632 14.5622 15.1487 14.5719 15.1241 14.5808L14.9198 14.0167C14.8839 14.0297 14.8487 14.0489 14.8145 14.0739L15.1681 14.5587ZM15.1197 14.6207C15.1371 14.5945 15.1508 14.5776 15.16 14.5674C15.1695 14.5569 15.1725 14.5554 15.1681 14.5587L14.8145 14.0739C14.7463 14.1237 14.6813 14.1964 14.62 14.2887L15.1197 14.6207ZM14.873 15.2288C14.9569 14.9306 15.046 14.7317 15.1197 14.6207L14.62 14.2887C14.4974 14.4732 14.3875 14.7391 14.2955 15.0663L14.873 15.2288ZM19.5446 15.0757C19.3638 15.7349 19.2523 16.6444 19.2523 17.6481H19.8523C19.8523 16.6822 19.9603 15.8286 20.1232 15.2344L19.5446 15.0757ZM19.8636 14.2918C19.7428 14.4781 19.6349 14.7463 19.5446 15.0757L20.1232 15.2344C20.2058 14.9331 20.2938 14.7313 20.3671 14.6182L19.8636 14.2918ZM20.0556 14.0748C19.9881 14.1252 19.924 14.1987 19.8636 14.2918L20.3671 14.6182C20.3843 14.5916 20.398 14.5743 20.4071 14.5641C20.4164 14.5534 20.4193 14.5521 20.4144 14.5557L20.0556 14.0748ZM20.1597 14.0169C20.1242 14.0301 20.0894 14.0496 20.0556 14.0748L20.4144 14.5557C20.4092 14.5596 20.3939 14.57 20.3682 14.5796L20.1597 14.0169ZM20.2138 14.002C20.1957 14.0053 20.1777 14.0103 20.1598 14.0169L20.3681 14.5796C20.3551 14.5844 20.34 14.5888 20.323 14.5919L20.2138 14.002ZM20.2246 14.0002L20.2241 14.0002L20.3127 14.5937L20.3132 14.5936L20.2246 14.0002ZM20.2476 13.9976L20.2475 13.9976L20.2903 14.5961L20.2903 14.5961L20.2476 13.9976ZM20.2939 13.9979L20.2939 13.9979L20.244 14.5958L20.2441 14.5958L20.2939 13.9979ZM20.3139 14.0003L20.3134 14.0002L20.2245 14.5936L20.2251 14.5936L20.3139 14.0003ZM20.3781 14.0169C20.3603 14.0103 20.3422 14.0053 20.3239 14.0019L20.2151 14.592C20.1979 14.5888 20.1827 14.5844 20.1697 14.5796L20.3781 14.0169ZM20.4823 14.0748C20.4485 14.0496 20.4137 14.0301 20.3781 14.0169L20.1697 14.5796C20.1439 14.57 20.1286 14.5596 20.1234 14.5557L20.4823 14.0748ZM20.6743 14.2918C20.6139 14.1987 20.5497 14.1252 20.4823 14.0748L20.1234 14.5557C20.1186 14.5521 20.1214 14.5534 20.1308 14.5641C20.1399 14.5743 20.1535 14.5916 20.1708 14.6182L20.6743 14.2918ZM20.9933 15.0757C20.903 14.7463 20.795 14.4781 20.6743 14.2918L20.1708 14.6182C20.2441 14.7313 20.3321 14.9331 20.4147 15.2344L20.9933 15.0757ZM21.2856 17.6481C21.2856 16.6444 21.1741 15.7349 20.9933 15.0757L20.4147 15.2344C20.5776 15.8286 20.6856 16.6822 20.6856 17.6481H21.2856ZM20.9933 20.2205C21.1741 19.5613 21.2856 18.6518 21.2856 17.6481H20.6856C20.6856 18.614 20.5776 19.4676 20.4147 20.0618L20.9933 20.2205ZM20.6743 21.0044C20.795 20.8181 20.903 20.5499 20.9933 20.2205L20.4147 20.0618C20.3321 20.3631 20.2441 20.5649 20.1708 20.678L20.6743 21.0044ZM20.4823 21.2214C20.5497 21.171 20.6139 21.0975 20.6743 21.0044L20.1708 20.678C20.1535 20.7046 20.1399 20.7219 20.1308 20.7321C20.1214 20.7428 20.1186 20.7441 20.1234 20.7405L20.4823 21.2214ZM20.3781 21.2793C20.4137 21.2661 20.4485 21.2466 20.4823 21.2214L20.1234 20.7405C20.1286 20.7366 20.1439 20.7262 20.1697 20.7166L20.3781 21.2793ZM20.3244 21.2942C20.3422 21.2909 20.3601 21.2859 20.378 21.2793L20.1698 20.7166C20.1829 20.7117 20.1979 20.7074 20.2146 20.7043L20.3244 21.2942ZM20.3134 21.296L20.3139 21.2959L20.2251 20.7026L20.2245 20.7026L20.3134 21.296ZM20.2896 21.2986L20.2896 21.2986L20.2484 20.7L20.2483 20.7L20.2896 21.2986ZM20.2429 21.2982L20.2429 21.2982L20.2949 20.7005L20.2949 20.7005L20.2429 21.2982ZM20.2241 21.296L20.2246 21.296L20.3132 20.7026L20.3127 20.7025L20.2241 21.296ZM20.1599 21.2793C20.1779 21.286 20.1956 21.2909 20.2133 21.2942L20.3235 20.7044C20.34 20.7074 20.3549 20.7117 20.368 20.7166L20.1599 21.2793ZM20.0556 21.2214C20.0894 21.2466 20.1242 21.2661 20.1597 21.2793L20.3682 20.7166C20.3939 20.7262 20.4092 20.7366 20.4144 20.7405L20.0556 21.2214ZM19.8636 21.0044C19.924 21.0975 19.9881 21.171 20.0556 21.2214L20.4144 20.7405C20.4193 20.7441 20.4164 20.7428 20.4071 20.7322C20.398 20.7219 20.3843 20.7046 20.3671 20.678L19.8636 21.0044ZM19.5446 20.2205C19.6349 20.5499 19.7428 20.8181 19.8636 21.0044L20.3671 20.678C20.2938 20.5649 20.2058 20.3631 20.1232 20.0618L19.5446 20.2205ZM19.2523 17.6481C19.2523 18.6518 19.3638 19.5613 19.5446 20.2205L20.1232 20.0618C19.9603 19.4676 19.8523 18.614 19.8523 17.6481H19.2523ZM19.8994 14.315C20.0182 14.1317 20.1436 14.0395 20.2689 14.0395V13.4395C19.8257 13.4395 19.5436 13.7608 19.3959 13.9886L19.8994 14.315ZM19.5857 15.087C19.6755 14.7596 19.782 14.4961 19.8994 14.315L19.3959 13.9886C19.2311 14.2429 19.1046 14.5726 19.007 14.9283L19.5857 15.087ZM19.2949 17.6481C19.2949 16.6471 19.4062 15.7416 19.5857 15.087L19.007 14.9283C18.8097 15.6479 18.6949 16.6093 18.6949 17.6481H19.2949ZM19.5857 20.2092C19.4062 19.5546 19.2949 18.6491 19.2949 17.6481H18.6949C18.6949 18.6869 18.8097 19.6483 19.007 20.3679L19.5857 20.2092ZM19.8994 20.9812C19.782 20.8001 19.6755 20.5366 19.5857 20.2092L19.007 20.3679C19.1046 20.7236 19.2311 21.0533 19.3959 21.3076L19.8994 20.9812ZM20.2689 21.2567C20.1436 21.2567 20.0182 21.1645 19.8994 20.9812L19.3959 21.3076C19.5436 21.5354 19.8257 21.8567 20.2689 21.8567V21.2567ZM20.6385 20.9812C20.5197 21.1645 20.3943 21.2567 20.2689 21.2567V21.8567C20.7122 21.8567 20.9943 21.5354 21.142 21.3076L20.6385 20.9812ZM20.9522 20.2092C20.8624 20.5366 20.7559 20.8001 20.6385 20.9812L21.142 21.3076C21.3068 21.0533 21.4333 20.7236 21.5309 20.3679L20.9522 20.2092ZM21.243 17.6481C21.243 18.6491 21.1317 19.5546 20.9522 20.2092L21.5309 20.3679C21.7282 19.6483 21.843 18.6869 21.843 17.6481H21.243ZM20.9522 15.087C21.1317 15.7416 21.243 16.6471 21.243 17.6481H21.843C21.843 16.6093 21.7282 15.6479 21.5309 14.9283L20.9522 15.087ZM20.6385 14.315C20.7559 14.4961 20.8624 14.7596 20.9522 15.087L21.5309 14.9283C21.4333 14.5726 21.3068 14.2429 21.142 13.9886L20.6385 14.315ZM20.2689 14.0395C20.3943 14.0395 20.5197 14.1317 20.6385 14.315L21.142 13.9886C20.9943 13.7608 20.7122 13.4395 20.2689 13.4395V14.0395ZM16.5597 17.5692C16.5597 16.7608 16.6501 16.0498 16.7856 15.5591L16.2073 15.3994C16.0536 15.9559 15.9597 16.7232 15.9597 17.5692H16.5597ZM16.7856 19.5794C16.6501 19.0887 16.5597 18.3777 16.5597 17.5692H15.9597C15.9597 18.4153 16.0536 19.1826 16.2073 19.7391L16.7856 19.5794ZM16.9811 20.0722C16.9261 19.9885 16.8545 19.8289 16.7856 19.5794L16.2073 19.7391C16.284 20.0171 16.376 20.2438 16.4795 20.4014L16.9811 20.0722ZM16.9894 20.0946C17.0047 20.1045 17.0107 20.1114 17.0084 20.109C17.0062 20.1066 16.9967 20.096 16.9811 20.0722L16.4795 20.4014C16.5407 20.4948 16.6011 20.5579 16.663 20.5981L16.9894 20.0946ZM16.6517 20.1025C16.6532 20.1013 16.6556 20.0996 16.6587 20.0974L16.9937 20.5952C17.0024 20.5894 17.0112 20.583 17.02 20.5761L16.6517 20.1025ZM16.6727 20.0705C16.6635 20.0862 16.6558 20.0964 16.6511 20.1019C16.6461 20.1079 16.6456 20.1072 16.6517 20.1025L17.02 20.5762C17.0817 20.5282 17.1405 20.4591 17.1905 20.3735L16.6727 20.0705ZM17.4645 19.8633C17.1886 19.7019 16.8342 19.7946 16.6727 20.0705L17.1905 20.3735C17.1846 20.3837 17.1715 20.3871 17.1614 20.3812L17.4645 19.8633ZM17.6716 20.6551C17.833 20.3793 17.7403 20.0248 17.4645 19.8633L17.1614 20.3812C17.1512 20.3752 17.1478 20.3622 17.1538 20.352L17.6716 20.6551ZM17.3622 21.0161C17.4905 20.9164 17.5933 20.7889 17.6716 20.6551L17.1538 20.352C17.1059 20.4338 17.0504 20.4985 16.9939 20.5425L17.3622 21.0161ZM16.8295 21.2091C17.0552 21.2091 17.2382 21.1125 17.3622 21.0161L16.9939 20.5425C16.9368 20.5869 16.8801 20.6091 16.8295 20.6091V21.2091ZM16.0135 20.7072C16.1463 20.9095 16.4097 21.2091 16.8295 21.2091V20.6091C16.7232 20.6091 16.6166 20.5326 16.5151 20.378L16.0135 20.7072ZM15.67 19.8874C15.7541 20.1921 15.865 20.481 16.0135 20.7072L16.5151 20.378C16.4151 20.2256 16.3245 20.0037 16.2483 19.7277L15.67 19.8874ZM15.4023 17.5692C15.4023 18.4503 15.4995 19.2699 15.67 19.8874L16.2483 19.7277C16.096 19.176 16.0023 18.4127 16.0023 17.5692H15.4023ZM15.67 15.2511C15.4995 15.8686 15.4023 16.6882 15.4023 17.5692H16.0023C16.0023 16.7258 16.096 15.9625 16.2483 15.4108L15.67 15.2511ZM16.0135 14.4313C15.865 14.6575 15.7541 14.9464 15.67 15.2511L16.2483 15.4108C16.3245 15.1348 16.4151 14.9129 16.5151 14.7605L16.0135 14.4313ZM16.8295 13.9294C16.4097 13.9294 16.1463 14.229 16.0135 14.4313L16.5151 14.7605C16.6166 14.6059 16.7232 14.5294 16.8295 14.5294V13.9294ZM17.641 14.4268C17.5055 14.2184 17.2393 13.9294 16.8295 13.9294V14.5294C16.9318 14.5294 17.0405 14.604 17.138 14.7539L17.641 14.4268ZM17.4713 15.2274C17.7393 15.0532 17.8152 14.6947 17.641 14.4268L17.138 14.7539C17.1316 14.744 17.1344 14.7308 17.1442 14.7244L17.4713 15.2274ZM16.6707 15.0577C16.8449 15.3257 17.2034 15.4016 17.4713 15.2274L17.1442 14.7244C17.1541 14.718 17.1673 14.7208 17.1737 14.7306L16.6707 15.0577ZM16.6602 15.038C16.6548 15.0341 16.6516 15.0313 16.6504 15.0302C16.649 15.029 16.6492 15.029 16.6506 15.0305C16.6534 15.0337 16.6605 15.0421 16.6707 15.0577L17.1737 14.7306C17.1237 14.6538 17.069 14.5931 17.0113 14.5514L16.6602 15.038ZM16.661 15.0387L16.6675 15.0431L17.0039 14.5463L16.9974 14.5419L16.661 15.0387ZM16.9811 15.0663C16.9978 15.0409 17.0074 15.0305 17.0088 15.0291C17.01 15.0278 17.0018 15.0366 16.9829 15.0479L16.6755 14.5327C16.6089 14.5724 16.5446 14.6378 16.4795 14.7371L16.9811 15.0663ZM16.7856 15.5591C16.8545 15.3096 16.9261 15.15 16.9811 15.0663L16.4795 14.7371C16.376 14.8947 16.284 15.1214 16.2073 15.3994L16.7856 15.5591ZM18.1703 17.6476C18.1703 16.8391 18.2608 16.1282 18.3963 15.6375L17.8179 15.4778C17.6643 16.0342 17.5703 16.8015 17.5703 17.6476H18.1703ZM18.3963 19.6578C18.2608 19.1671 18.1703 18.4561 18.1703 17.6476H17.5703C17.5703 18.4937 17.6643 19.261 17.8179 19.8175L18.3963 19.6578ZM18.5917 20.1506C18.5368 20.0668 18.4651 19.9073 18.3963 19.6578L17.8179 19.8175C17.8947 20.0955 17.9866 20.3221 18.0901 20.4798L18.5917 20.1506ZM18.6001 20.173C18.6153 20.1829 18.6213 20.1898 18.6191 20.1874C18.6168 20.185 18.6074 20.1744 18.5917 20.1506L18.0901 20.4798C18.1514 20.5731 18.2117 20.6363 18.2737 20.6764L18.6001 20.173ZM18.2695 20.1757L18.2644 20.1792L18.6093 20.6702L18.6144 20.6667L18.2695 20.1757ZM18.2657 20.1783L18.2611 20.1818L18.6227 20.6606L18.6273 20.6571L18.2657 20.1783ZM18.2834 20.1489C18.2741 20.1646 18.2664 20.1748 18.2618 20.1803C18.2567 20.1863 18.2563 20.1856 18.2623 20.1809L18.6307 20.6545C18.6923 20.6066 18.7511 20.5375 18.8012 20.4519L18.2834 20.1489ZM19.0751 19.9417C18.7993 19.7803 18.4448 19.873 18.2834 20.1489L18.8012 20.4519C18.7952 20.4621 18.7822 20.4655 18.772 20.4596L19.0751 19.9417ZM19.2822 20.7335C19.4437 20.4576 19.3509 20.1032 19.0751 19.9417L18.772 20.4596C18.7619 20.4536 18.7585 20.4406 18.7644 20.4304L19.2822 20.7335ZM18.9728 21.0945C19.1012 20.9947 19.2039 20.8673 19.2822 20.7335L18.7644 20.4304C18.7165 20.5122 18.6611 20.5769 18.6045 20.6209L18.9728 21.0945ZM18.4401 21.2875C18.6658 21.2875 18.8489 21.1909 18.9728 21.0945L18.6045 20.6209C18.5475 20.6653 18.4908 20.6875 18.4401 20.6875V21.2875ZM17.6241 20.7856C17.7569 20.9879 18.0203 21.2875 18.4401 21.2875V20.6875C18.3339 20.6875 18.2272 20.611 18.1257 20.4564L17.6241 20.7856ZM17.2806 19.9658C17.3647 20.2705 17.4756 20.5594 17.6241 20.7856L18.1257 20.4564C18.0257 20.304 17.9352 20.0821 17.859 19.8061L17.2806 19.9658ZM17.013 17.6476C17.013 18.5287 17.1101 19.3483 17.2806 19.9658L17.859 19.8061C17.7066 19.2543 17.6129 18.491 17.6129 17.6476H17.013ZM17.2806 15.3295C17.1101 15.947 17.013 16.7666 17.013 17.6476H17.6129C17.6129 16.8042 17.7066 16.0409 17.859 15.4891L17.2806 15.3295ZM17.6241 14.5096C17.4756 14.7359 17.3647 15.0248 17.2806 15.3295L17.859 15.4891C17.9352 15.2131 18.0257 14.9912 18.1257 14.8389L17.6241 14.5096ZM18.4401 14.0078C18.0203 14.0078 17.7569 14.3073 17.6241 14.5096L18.1257 14.8389C18.2272 14.6843 18.3339 14.6078 18.4401 14.6078V14.0078ZM19.2516 14.5052C19.1161 14.2968 18.85 14.0078 18.4401 14.0078V14.6078C18.5424 14.6078 18.6512 14.6824 18.7486 14.8323L19.2516 14.5052ZM19.082 15.3058C19.3499 15.1315 19.4258 14.7731 19.2516 14.5052L18.7486 14.8323C18.7422 14.8224 18.745 14.8092 18.7549 14.8028L19.082 15.3058ZM18.2813 15.1361C18.4556 15.4041 18.814 15.48 19.082 15.3058L18.7549 14.8028C18.7647 14.7964 18.7779 14.7992 18.7843 14.809L18.2813 15.1361ZM18.2709 15.1164C18.2655 15.1125 18.2623 15.1097 18.261 15.1086C18.2597 15.1073 18.2598 15.1073 18.2612 15.1089C18.2641 15.112 18.2712 15.1205 18.2813 15.1361L18.7843 14.809C18.7344 14.7322 18.6796 14.6715 18.6219 14.6298L18.2709 15.1164ZM18.2716 15.1171L18.2781 15.1215L18.6146 14.6247L18.6081 14.6203L18.2716 15.1171ZM18.5917 15.1447C18.6084 15.1193 18.618 15.1089 18.6194 15.1075C18.6207 15.1062 18.6125 15.115 18.5936 15.1263L18.2861 14.6111C18.2196 14.6508 18.1553 14.7162 18.0901 14.8155L18.5917 15.1447ZM18.3963 15.6375C18.4651 15.388 18.5368 15.2284 18.5917 15.1447L18.0901 14.8155C17.9866 14.9731 17.8947 15.1998 17.8179 15.4778L18.3963 15.6375Z" fill="#6B6B6B" mask="url(#path-1-outside-1_8121_31754)"/>
</svg>
