<svg width="20" height="18" viewBox="0 0 20 18" fill="none" xmlns="http://www.w3.org/2000/svg">
<path d="M8.75548 10.1311L8.97003 10.5827L9.25548 10.4471V10.1311H8.75548ZM12.0413 10.1311H11.5413V10.4471L11.8267 10.5827L12.0413 10.1311ZM9.25548 2.64291C9.25548 2.0117 9.76718 1.5 10.3984 1.5V0.5C9.21489 0.5 8.25548 1.45941 8.25548 2.64291H9.25548ZM9.25548 10.1311V2.64291H8.25548V10.1311H9.25548ZM7.06494 13.5956C7.06494 12.2666 7.84266 11.1182 8.97003 10.5827L8.54093 9.67943C7.07804 10.3744 6.06494 11.8662 6.06494 13.5956H7.06494ZM10.3984 16.929C8.55737 16.929 7.06494 15.4366 7.06494 13.5956H6.06494C6.06494 15.9889 8.00509 17.929 10.3984 17.929V16.929ZM13.7318 13.5956C13.7318 15.4366 12.2394 16.929 10.3984 16.929V17.929C12.7917 17.929 14.7318 15.9889 14.7318 13.5956H13.7318ZM11.8267 10.5827C12.9541 11.1182 13.7318 12.2666 13.7318 13.5956H14.7318C14.7318 11.8662 13.7187 10.3744 12.2558 9.67943L11.8267 10.5827ZM11.5413 2.6429V10.1311H12.5413V2.6429H11.5413ZM10.3984 1.5C11.0296 1.5 11.5413 2.0117 11.5413 2.6429H12.5413C12.5413 1.45941 11.5819 0.5 10.3984 0.5V1.5Z" fill="#898989"/>
<path d="M0.667969 9.03081C0.667969 7.79861 2.43564 3.86325 2.94804 3.86328C3.46043 3.86331 5.15128 7.97448 5.15128 9.03081C5.15128 10.0871 4.47911 11.549 2.94804 11.549C1.41696 11.549 0.667969 10.263 0.667969 9.03081Z" stroke="#898989"/>
<path d="M2.13028 8.4037C2.05957 8.79641 2.10218 9.68152 2.8383 10.0803" stroke="#898989" stroke-linecap="round"/>
<path fill-rule="evenodd" clip-rule="evenodd" d="M10.9437 11.4742C11.8885 11.7174 12.5866 12.5751 12.5866 13.5958C12.5866 14.8056 11.6059 15.7863 10.3961 15.7863C9.1863 15.7863 8.20557 14.8056 8.20557 13.5958C8.20557 12.5751 8.90368 11.7174 9.84847 11.4742L9.84847 3.1907C9.84847 2.88825 10.0937 2.64307 10.3961 2.64307C10.6986 2.64307 10.9437 2.88825 10.9437 3.1907L10.9437 11.4742Z" fill="#C2C2C2"/>
<path fill-rule="evenodd" clip-rule="evenodd" d="M10.9437 11.4743C11.8885 11.7174 12.5866 12.5751 12.5866 13.5958C12.5866 14.8056 11.6059 15.7863 10.3961 15.7863C9.1863 15.7863 8.20557 14.8056 8.20557 13.5958C8.20557 12.5751 8.90368 11.7174 9.84847 11.4743L9.84847 6.11599C9.84847 5.81354 10.0937 5.56836 10.3961 5.56836C10.6986 5.56836 10.9437 5.81354 10.9437 6.11599L10.9437 11.4743Z" fill="#00AE42"/>
<path d="M18.7876 15.7861H16.1023" stroke="#898989" stroke-linecap="round"/>
<path d="M18.7876 12.5005H16.5498" stroke="#898989" stroke-linecap="round"/>
<path d="M18.7876 9.21436L15.6547 9.21436" stroke="#898989" stroke-linecap="round"/>
<path d="M18.7876 5.92871L15.6547 5.92871" stroke="#898989" stroke-linecap="round"/>
<path d="M18.7876 2.64307H15.6547" stroke="#C2C2C2" stroke-linecap="round"/>
</svg>
