<svg width="20" height="18" viewBox="0 0 20 18" fill="none" xmlns="http://www.w3.org/2000/svg">
<path d="M9.06407 10.1311L9.27862 10.5827L9.56407 10.4471V10.1311H9.06407ZM12.3499 10.1311H11.8499V10.4471L12.1353 10.5827L12.3499 10.1311ZM9.56407 2.64291C9.56407 2.0117 10.0758 1.5 10.707 1.5V0.5C9.52348 0.5 8.56407 1.45941 8.56407 2.64291H9.56407ZM9.56407 10.1311V2.64291H8.56407V10.1311H9.56407ZM7.37354 13.5956C7.37354 12.2666 8.15126 11.1182 9.27862 10.5827L8.84953 9.67943C7.38664 10.3744 6.37354 11.8662 6.37354 13.5956H7.37354ZM10.707 16.929C8.86597 16.929 7.37354 15.4366 7.37354 13.5956H6.37354C6.37354 15.9889 8.31368 17.929 10.707 17.929V16.929ZM14.0404 13.5956C14.0404 15.4366 12.548 16.929 10.707 16.929V17.929C13.1003 17.929 15.0404 15.9889 15.0404 13.5956H14.0404ZM12.1353 10.5827C13.2627 11.1182 14.0404 12.2666 14.0404 13.5956H15.0404C15.0404 11.8662 14.0273 10.3744 12.5644 9.67943L12.1353 10.5827ZM11.8499 2.64291V10.1311H12.8499V2.64291H11.8499ZM10.707 1.5C11.3382 1.5 11.8499 2.0117 11.8499 2.64291H12.8499C12.8499 1.45941 11.8905 0.5 10.707 0.5V1.5Z" fill="#898989"/>
<path d="M0.976562 9.03081C0.976562 7.79861 2.74423 3.86325 3.25663 3.86328C3.76903 3.86331 5.45988 7.97448 5.45988 9.03081C5.45988 10.0871 4.78771 11.549 3.25663 11.549C1.72555 11.549 0.976562 10.263 0.976562 9.03081Z" stroke="#898989"/>
<path d="M2.43887 8.4037C2.36816 8.79641 2.41078 9.68152 3.14689 10.0803" stroke="#898989" stroke-linecap="round"/>
<path fill-rule="evenodd" clip-rule="evenodd" d="M11.2528 11.4742C12.1976 11.7174 12.8957 12.5751 12.8957 13.5958C12.8957 14.8056 11.915 15.7863 10.7052 15.7863C9.49539 15.7863 8.51465 14.8056 8.51465 13.5958C8.51465 12.5751 9.21276 11.7174 10.1576 11.4742L10.1576 3.1907C10.1576 2.88825 10.4027 2.64307 10.7052 2.64307C11.0076 2.64307 11.2528 2.88825 11.2528 3.1907L11.2528 11.4742Z" fill="#C2C2C2"/>
<path d="M12.8957 13.5958C12.8957 14.8056 11.915 15.7864 10.7052 15.7864C9.49539 15.7864 8.51465 14.8056 8.51465 13.5958C8.51465 12.386 9.49539 11.4053 10.7052 11.4053C11.915 11.4053 12.8957 12.386 12.8957 13.5958Z" fill="#FF6F00"/>
<path d="M19.1001 15.7861H16.4148" stroke="#898989" stroke-linecap="round"/>
<path d="M19.1001 12.5005H16.8623" stroke="#898989" stroke-linecap="round"/>
<path d="M19.1001 9.21436L15.9672 9.21436" stroke="#C2C2C2" stroke-linecap="round"/>
<path d="M19.1001 5.92871L15.9672 5.92871" stroke="#C2C2C2" stroke-linecap="round"/>
<path d="M19.1001 2.64307H15.9672" stroke="#C2C2C2" stroke-linecap="round"/>
</svg>
