<svg width="17" height="17" viewBox="0 0 17 17" fill="none" xmlns="http://www.w3.org/2000/svg">
<g clip-path="url(#clip0_16544_39500)">
<path d="M9.10925 1.25195V3.25195C9.10925 3.66758 8.77488 4.00195 8.35925 4.00195C7.94363 4.00195 7.60925 3.66758 7.60925 3.25195V1.25195C7.60925 0.836328 7.94363 0.501953 8.35925 0.501953C8.77488 0.501953 9.10925 0.836328 9.10925 1.25195ZM14.0155 3.90508L12.5999 5.3207C12.3061 5.61445 11.8311 5.61445 11.5405 5.3207C11.2499 5.02695 11.2468 4.55195 11.5405 4.26133L12.9561 2.8457C13.2499 2.55195 13.7249 2.55195 14.0155 2.8457C14.3061 3.13945 14.3093 3.61445 14.0155 3.90508ZM3.76238 2.8457L5.178 4.26133C5.47175 4.55508 5.47175 5.03008 5.178 5.3207C4.88425 5.61133 4.40925 5.61445 4.11863 5.3207L2.703 3.90508C2.40925 3.61133 2.40925 3.13633 2.703 2.8457C2.99675 2.55508 3.47175 2.55195 3.76238 2.8457ZM1.10925 7.75195H3.10925C3.52488 7.75195 3.85925 8.08633 3.85925 8.50195C3.85925 8.91758 3.52488 9.25195 3.10925 9.25195H1.10925C0.693628 9.25195 0.359253 8.91758 0.359253 8.50195C0.359253 8.08633 0.693628 7.75195 1.10925 7.75195ZM13.6093 7.75195H15.6093C16.0249 7.75195 16.3593 8.08633 16.3593 8.50195C16.3593 8.91758 16.0249 9.25195 15.6093 9.25195H13.6093C13.1936 9.25195 12.8593 8.91758 12.8593 8.50195C12.8593 8.08633 13.1936 7.75195 13.6093 7.75195ZM5.178 12.7457L3.76238 14.1582C3.46863 14.452 2.99363 14.452 2.703 14.1582C2.41238 13.8645 2.40925 13.3895 2.703 13.0988L4.11863 11.6832C4.41238 11.3895 4.88738 11.3895 5.178 11.6832C5.46863 11.977 5.47175 12.452 5.178 12.7426V12.7457ZM12.603 11.6863L14.0155 13.0988C14.3093 13.3926 14.3093 13.8676 14.0155 14.1582C13.7218 14.4488 13.2468 14.452 12.9561 14.1582L11.5405 12.7426C11.2468 12.4488 11.2468 11.9738 11.5405 11.6832C11.8343 11.3926 12.3093 11.3895 12.5999 11.6832L12.603 11.6863ZM9.10925 13.752V15.752C9.10925 16.1676 8.77488 16.502 8.35925 16.502C7.94363 16.502 7.60925 16.1676 7.60925 15.752V13.752C7.60925 13.3363 7.94363 13.002 8.35925 13.002C8.77488 13.002 9.10925 13.3363 9.10925 13.752ZM10.3593 8.50195C10.3593 7.97152 10.1485 7.46281 9.77347 7.08774C9.39839 6.71267 8.88969 6.50195 8.35925 6.50195C7.82882 6.50195 7.32011 6.71267 6.94504 7.08774C6.56997 7.46281 6.35925 7.97152 6.35925 8.50195C6.35925 9.03239 6.56997 9.54109 6.94504 9.91617C7.32011 10.2912 7.82882 10.502 8.35925 10.502C8.88969 10.502 9.39839 10.2912 9.77347 9.91617C10.1485 9.54109 10.3593 9.03239 10.3593 8.50195ZM4.85925 8.50195C4.85925 7.5737 5.228 6.68346 5.88438 6.02708C6.54076 5.3707 7.43099 5.00195 8.35925 5.00195C9.28751 5.00195 10.1777 5.3707 10.8341 6.02708C11.4905 6.68346 11.8593 7.5737 11.8593 8.50195C11.8593 9.43021 11.4905 10.3204 10.8341 10.9768C10.1777 11.6332 9.28751 12.002 8.35925 12.002C7.43099 12.002 6.54076 11.6332 5.88438 10.9768C5.228 10.3204 4.85925 9.43021 4.85925 8.50195Z" fill="#323A3D"/>
</g>
<defs>
<clipPath id="clip0_16544_39500">
<rect width="16" height="16" fill="white" transform="translate(0.359131 0.501953)"/>
</clipPath>
</defs>
</svg>
