<svg width="20" height="18" viewBox="0 0 20 18" fill="none" xmlns="http://www.w3.org/2000/svg">
<path d="M9.42491 10.1311L9.63946 10.5827L9.92491 10.4471V10.1311H9.42491ZM12.7107 10.1311H12.2107V10.4471L12.4962 10.5827L12.7107 10.1311ZM9.92491 2.64291C9.92491 2.0117 10.4366 1.5 11.0678 1.5V0.5C9.88432 0.5 8.92491 1.45941 8.92491 2.64291H9.92491ZM9.92491 10.1311V2.64291H8.92491V10.1311H9.92491ZM7.73438 13.5956C7.73438 12.2666 8.5121 11.1182 9.63946 10.5827L9.21037 9.67943C7.74748 10.3744 6.73438 11.8662 6.73438 13.5956H7.73438ZM11.0678 16.929C9.22681 16.929 7.73438 15.4366 7.73438 13.5956H6.73438C6.73438 15.9889 8.67452 17.929 11.0678 17.929V16.929ZM14.4013 13.5956C14.4013 15.4366 12.9088 16.929 11.0678 16.929V17.929C13.4611 17.929 15.4013 15.9889 15.4013 13.5956H14.4013ZM12.4962 10.5827C13.6235 11.1182 14.4013 12.2666 14.4013 13.5956H15.4013C15.4013 11.8662 14.3882 10.3744 12.9253 9.67943L12.4962 10.5827ZM12.2107 2.6429V10.1311H13.2107V2.6429H12.2107ZM11.0678 1.5C11.699 1.5 12.2107 2.0117 12.2107 2.6429H13.2107C13.2107 1.45941 12.2513 0.5 11.0678 0.5V1.5Z" fill="#898989"/>
<path d="M1.33594 9.03081C1.33594 7.79861 3.10361 3.86325 3.616 3.86328C4.1284 3.86331 5.81925 7.97448 5.81925 9.03081C5.81925 10.0871 5.14708 11.549 3.616 11.549C2.08493 11.549 1.33594 10.263 1.33594 9.03081Z" stroke="#898989"/>
<path d="M2.79824 8.40322C2.72754 8.79592 2.77015 9.68104 3.50627 10.0798" stroke="#898989" stroke-linecap="round"/>
<path fill-rule="evenodd" clip-rule="evenodd" d="M11.6171 11.4737C12.5619 11.7169 13.26 12.5746 13.26 13.5953C13.26 14.8051 12.2792 15.7858 11.0694 15.7858C9.85964 15.7858 8.87891 14.8051 8.87891 13.5953C8.87891 12.5746 9.57702 11.7169 10.5218 11.4737L10.5218 3.19021C10.5218 2.88776 10.767 2.64258 11.0694 2.64258C11.3719 2.64258 11.6171 2.88776 11.6171 3.19021L11.6171 11.4737Z" fill="#C2C2C2"/>
<path fill-rule="evenodd" clip-rule="evenodd" d="M10.5218 11.4743L10.5218 9.31717C10.5218 9.01472 10.767 8.76953 11.0694 8.76953C11.3719 8.76953 11.6171 9.01472 11.6171 9.31717L11.6171 11.4743C12.5619 11.7175 13.26 12.5752 13.26 13.5959C13.26 14.8057 12.2792 15.7864 11.0694 15.7864C9.85964 15.7864 8.87891 14.8057 8.87891 13.5959C8.87891 12.5751 9.57702 11.7175 10.5218 11.4743Z" fill="#009688"/>
<path d="M19.4609 15.7852H16.7756" stroke="#898989" stroke-linecap="round"/>
<path d="M19.4609 12.5H17.2232" stroke="#898989" stroke-linecap="round"/>
<path d="M19.4609 9.21484L16.3281 9.21484" stroke="#898989" stroke-linecap="round"/>
<path d="M19.4609 5.92773L16.3281 5.92773" stroke="#C2C2C2" stroke-linecap="round"/>
<path d="M19.4609 2.64258H16.3281" stroke="#C2C2C2" stroke-linecap="round"/>
</svg>
