<?xml version="1.0" encoding="UTF-8"?><svg id="a" xmlns="http://www.w3.org/2000/svg" width="44" height="44" viewBox="0 0 44 44"><rect x="5" y="15" width="1" height="14" style="fill:#009688; opacity:.5;"/><rect x="6" y="15" width="1" height="14" style="fill:#009688;"/><rect x="7" y="15" width="1" height="14" style="fill:#009688; opacity:.5;"/><rect x="8" y="15" width="1" height="14" style="fill:#009688;"/><rect x="9" y="15" width="1" height="14" style="fill:#009688; opacity:.5;"/><rect x="10" y="15" width="1" height="14" style="fill:#009688;"/><rect x="11" y="15" width="1" height="14" style="fill:#009688; opacity:.5;"/><rect x="14" y="15" width="1" height="14" style="fill:#009688; opacity:.5;"/><rect x="15" y="15" width="1" height="14" style="fill:#009688;"/><rect x="16" y="15" width="1" height="14" style="fill:#009688; opacity:.5;"/><rect x="17" y="15" width="1" height="14" style="fill:#009688;"/><rect x="18" y="15" width="1" height="14" style="fill:#009688; opacity:.5;"/><rect x="19" y="15" width="1" height="14" style="fill:#009688;"/><rect x="20" y="15" width="1" height="14" style="fill:#009688; opacity:.5;"/><rect x="23" y="15" width="1" height="14" style="fill:#009688; opacity:.5;"/><rect x="24" y="15" width="1" height="14" style="fill:#009688;"/><rect x="25" y="15" width="1" height="14" style="fill:#009688; opacity:.5;"/><rect x="26" y="15" width="1" height="14" style="fill:#009688;"/><rect x="27" y="15" width="1" height="14" style="fill:#009688; opacity:.5;"/><rect x="28" y="15" width="1" height="14" style="fill:#009688;"/><rect x="29" y="15" width="1" height="14" style="fill:#009688; opacity:.5;"/><rect x="32" y="15" width="1" height="14" style="fill:#009688; opacity:.5;"/><rect x="33" y="15" width="1" height="14" style="fill:#009688;"/><rect x="34" y="15" width="1" height="14" style="fill:#009688; opacity:.5;"/><rect x="35" y="15" width="1" height="14" style="fill:#009688;"/><rect x="36" y="15" width="1" height="14" style="fill:#009688; opacity:.5;"/><rect x="37" y="15" width="1" height="14" style="fill:#009688;"/><rect x="38" y="15" width="1" height="14" style="fill:#009688; opacity:.5;"/><line x1="39.5" y1="14" x2="39.5" y2="30" style="fill:none; stroke:#949494;"/><line x1="31.5" y1="14" x2="31.5" y2="30" style="fill:none; stroke:#949494;"/><line x1="30.5" y1="14" x2="30.5" y2="30" style="fill:none; stroke:#949494;"/><line x1="22.5" y1="14" x2="22.5" y2="30" style="fill:none; stroke:#949494;"/><line x1="21.5" y1="14" x2="21.5" y2="30" style="fill:none; stroke:#949494;"/><line x1="13.5" y1="14" x2="13.5" y2="30" style="fill:none; stroke:#949494;"/><line x1="12.5" y1="14" x2="12.5" y2="30" style="fill:none; stroke:#949494;"/><line x1="4.5" y1="14" x2="4.5" y2="30" style="fill:none; stroke:#949494;"/><path d="M41.5,23v-9.5c0-1.66-1.34-3-3-3H5.5c-1.66,0-3,1.34-3,3v9.5" style="fill:none; stroke:#949494;"/><path d="M39,23H1v11h42v-11h-4ZM7,26v-1c0-.55.45-1,1-1h1c.55,0,1,.45,1,1v1c0,.55-.45,1-1,1h-1c-.55,0-1-.45-1-1ZM16,26v-1c0-.55.45-1,1-1h1c.55,0,1,.45,1,1v1c0,.55-.45,1-1,1h-1c-.55,0-1-.45-1-1ZM25,26v-1c0-.55.45-1,1-1h1c.55,0,1,.45,1,1v1c0,.55-.45,1-1,1h-1c-.55,0-1-.45-1-1ZM34,26v-1c0-.55.45-1,1-1h1c.55,0,1,.45,1,1v1c0,.55-.45,1-1,1h-1c-.55,0-1-.45-1-1Z" style="fill:#949494; opacity:.7;"/></svg>