<svg width="23" height="21" viewBox="0 0 23 21" fill="none" xmlns="http://www.w3.org/2000/svg">
<path d="M10.2441 11.4008L10.4587 11.8524L10.7441 11.7168V11.4008H10.2441ZM14.1247 11.4006H13.6247V11.7167L13.9102 11.8523L14.1247 11.4006ZM10.7441 2.557C10.7441 1.76154 11.3889 1.1167 12.1844 1.1167V0.116699C10.8367 0.116699 9.7441 1.20926 9.7441 2.557H10.7441ZM10.7441 11.4008V2.557H9.7441V11.4008H10.7441ZM8.15717 15.4924C8.15717 13.8866 9.09692 12.4993 10.4587 11.8524L10.0295 10.9491C8.33229 11.7555 7.15717 13.4862 7.15717 15.4924H8.15717ZM12.1845 19.5198C9.96028 19.5198 8.15717 17.7166 8.15717 15.4924H7.15717C7.15717 18.2689 9.40799 20.5198 12.1845 20.5198V19.5198ZM16.2119 15.4924C16.2119 17.7166 14.4088 19.5198 12.1845 19.5198V20.5198C14.9611 20.5198 17.2119 18.2689 17.2119 15.4924H16.2119ZM13.9102 11.8523C15.272 12.4992 16.2119 13.8865 16.2119 15.4924H17.2119C17.2119 13.4861 16.0366 11.7553 14.3392 10.949L13.9102 11.8523ZM13.6247 2.557V11.4006H14.6247V2.557H13.6247ZM12.1844 1.1167C12.9799 1.1167 13.6247 1.76154 13.6247 2.557H14.6247C14.6247 1.20926 13.5321 0.116699 12.1844 0.116699V1.1167Z" fill="#898989"/>
<path d="M0.693306 10.1012C0.693306 8.64598 2.78096 3.99825 3.38611 3.99829C3.99126 3.99833 5.98818 8.8537 5.98818 10.1012C5.98818 11.3488 5.19434 13.0752 3.38611 13.0752C1.57788 13.0752 0.693306 11.5565 0.693306 10.1012Z" stroke="#898989"/>
<path d="M2.42027 9.36085C2.33676 9.82465 2.38709 10.87 3.25645 11.341" stroke="#898989" stroke-linecap="round"/>
<path fill-rule="evenodd" clip-rule="evenodd" d="M11.5364 12.987L11.5364 3.20396C11.5364 2.84676 11.826 2.55719 12.1832 2.55719C12.5404 2.55719 12.8299 2.84676 12.8299 3.20396L12.8299 12.9871C13.9457 13.2744 14.7701 14.2873 14.7701 15.4927C14.7701 16.9215 13.6118 18.0797 12.183 18.0797C10.7542 18.0797 9.59592 16.9215 9.59592 15.4927C9.59592 14.2871 10.4205 13.2742 11.5364 12.987Z" fill="#C2C2C2"/>
<path d="M14.7701 15.4922C14.7701 16.921 13.6118 18.0793 12.183 18.0793C10.7542 18.0793 9.59592 16.921 9.59592 15.4922C9.59592 14.9864 10.3621 15.8152 11.7909 15.8152C13.2197 15.8152 14.7701 14.0635 14.7701 15.4922Z" fill="#009688"/>
<path d="M22.0947 18.0794H18.9233" stroke="#009688" stroke-linecap="round"/>
<path d="M22.0947 14.199H19.4518" stroke="#009688" stroke-linecap="round"/>
<path d="M22.0947 10.318L18.3947 10.318" stroke="#009688" stroke-linecap="round"/>
<path d="M22.0947 6.43759L18.3947 6.43759" stroke="#009688" stroke-linecap="round"/>
<path d="M22.0947 2.55719H18.3947" stroke="#009688" stroke-linecap="round"/>
</svg>
