<svg width="230" height="78" viewBox="0 0 230 78" fill="none" xmlns="http://www.w3.org/2000/svg">
<g clip-path="url(#clip0_7_8)">
<path fill-rule="evenodd" clip-rule="evenodd" d="M2.80488 0C1.25579 0 0 1.07452 0 2.4V75.6C0 76.9254 1.25579 78 2.80488 78H227.195C228.744 78 230 76.9254 230 75.6V2.4C230 1.07452 228.744 0 227.195 0H2.80488ZM4.20732 1.2C2.65822 1.2 1.40244 2.27452 1.40244 3.6V58.8C1.40244 60.1254 2.65822 61.2 4.20732 61.2H225.793C227.342 61.2 228.598 60.1254 228.598 58.8V3.6C228.598 2.27452 227.342 1.2 225.793 1.2H4.20732Z" fill="#595959"/>
<path d="M115.012 77.0102C118.885 77.0102 122.024 73.8739 122.024 70.0051C122.024 66.1363 118.885 63 115.012 63C111.139 63 108 66.1363 108 70.0051C108 73.8739 111.139 77.0102 115.012 77.0102Z" fill="#D9D9D9"/>
<path fill-rule="evenodd" clip-rule="evenodd" d="M115.257 68.9431V67.2031H117.817L117.818 69.7228L115.257 68.9431ZM117.816 72.8071H115.255V69.3277L117.816 70.1067V72.8071ZM112.207 67.2031V70.6825L114.768 69.9035L114.767 67.2031H112.207ZM114.767 72.8064H112.207V71.0671L114.768 70.2867L114.767 72.8064Z" fill="#545454"/>
</g>
<defs>
<clipPath id="clip0_7_8">
<rect width="230" height="78" fill="white"/>
</clipPath>
</defs>
</svg>
