<svg width="22" height="21" viewBox="0 0 22 21" fill="none" xmlns="http://www.w3.org/2000/svg">
<path fill-rule="evenodd" clip-rule="evenodd" d="M20.5757 9.84986C20.7274 9.58707 20.7274 9.2633 20.5757 9.00051L16.2152 1.44785C16.0635 1.18506 15.7831 1.02318 15.4796 1.02318L6.75857 1.02318C6.45512 1.02318 6.17473 1.18506 6.02301 1.44785L1.66248 9.00051C1.51076 9.2633 1.51076 9.58707 1.66248 9.84986L6.02301 17.4025C6.17473 17.6653 6.45512 17.8272 6.75857 17.8272H11.1191C11.3536 17.8272 11.5438 18.0173 11.5438 18.2519C11.5438 18.4864 11.3536 18.6765 11.1191 18.6765H6.75857C6.15168 18.6765 5.5909 18.3528 5.28745 17.8272L0.926923 10.2745C0.62348 9.74895 0.62348 9.10142 0.926923 8.57584L5.28745 1.02318C5.5909 0.497596 6.15168 0.173828 6.75857 0.173828H15.4796C16.0865 0.173828 16.6473 0.497598 16.9507 1.02318L21.3113 8.57584C21.6147 9.10141 21.6147 9.74895 21.3113 10.2745L20.405 11.8442C20.2878 12.0473 20.028 12.1169 19.8249 11.9996C19.6218 11.8824 19.5522 11.6226 19.6695 11.4195L20.5757 9.84986ZM8.57063 9.4254C8.57063 10.8326 9.71143 11.9734 11.1187 11.9734C12.5259 11.9734 13.6667 10.8326 13.6667 9.4254C13.6667 8.01816 12.5259 6.87736 11.1187 6.87736C9.71143 6.87736 8.57063 8.01816 8.57063 9.4254ZM7.72129 9.4254C7.72129 11.3017 9.24235 12.8228 11.1187 12.8228C12.995 12.8228 14.5161 11.3017 14.5161 9.4254C14.5161 7.54908 12.995 6.02801 11.1187 6.02801C9.24235 6.02801 7.72129 7.54908 7.72129 9.4254ZM14.2833 14.3213C14.1085 14.9429 13.996 15.8196 13.996 16.8052C13.996 17.7916 14.1045 18.6732 14.2757 19.2994C14.3619 19.6145 14.4597 19.8491 14.5567 19.9983C14.6049 20.0724 14.6464 20.1152 14.6765 20.1376C14.6909 20.1483 14.7008 20.1529 14.7061 20.1548C14.7087 20.1558 14.7103 20.1561 14.7112 20.1563L14.7126 20.1564H14.7127C14.7152 20.1565 14.7505 20.1567 14.8186 20.0767C14.8879 19.9954 14.9641 19.8604 15.0404 19.6647C15.0964 19.5213 15.258 19.4504 15.4014 19.5064C15.5447 19.5623 15.6156 19.7239 15.5597 19.8673C15.4729 20.0898 15.3696 20.2894 15.243 20.438C15.1161 20.5871 14.9394 20.7138 14.7126 20.7138C14.428 20.7138 14.2236 20.5085 14.0894 20.3022C13.9478 20.0844 13.8314 19.7878 13.7381 19.4464C13.5503 18.7595 13.4386 17.8261 13.4386 16.8052C13.4386 15.7835 13.5545 14.8536 13.7468 14.1704C13.8424 13.8307 13.9612 13.5361 14.1047 13.3201C14.241 13.1149 14.4464 12.9133 14.729 12.9133C14.9672 12.9133 15.1491 13.0613 15.2743 13.2204C15.4029 13.3838 15.5091 13.6039 15.5959 13.8531C15.6465 13.9984 15.5697 14.1573 15.4244 14.2079C15.279 14.2586 15.1201 14.1818 15.0695 14.0364C14.9931 13.8172 14.9117 13.6609 14.8363 13.565C14.7708 13.4818 14.7332 13.4718 14.7281 13.4707C14.7269 13.4708 14.7247 13.4712 14.7211 13.4726C14.7154 13.4746 14.7051 13.4794 14.6904 13.4901C14.6597 13.5125 14.6177 13.5551 14.569 13.6285C14.4708 13.7763 14.3713 14.0087 14.2833 14.3213ZM19.2514 16.8219C19.2514 15.8371 19.3612 14.9556 19.533 14.3289C19.6195 14.0136 19.7174 13.7785 19.8145 13.6289C19.8627 13.5545 19.9041 13.5115 19.9341 13.4891C19.9484 13.4784 19.9582 13.4739 19.9631 13.4721C19.9655 13.4712 19.9669 13.4709 19.9675 13.4708L19.968 13.4707L19.9681 13.4707L19.9681 13.4707L19.9686 13.4708C19.9692 13.4709 19.9706 13.4712 19.973 13.4721C19.9779 13.4739 19.9877 13.4784 20.002 13.4891C20.032 13.5115 20.0734 13.5545 20.1216 13.6289C20.2187 13.7785 20.3166 14.0136 20.4031 14.3289C20.5749 14.9556 20.6847 15.8371 20.6847 16.8219C20.6847 17.8068 20.5749 18.6883 20.4031 19.315C20.3166 19.6303 20.2187 19.8653 20.1216 20.015C20.0734 20.0894 20.032 20.1323 20.002 20.1548C19.9877 20.1654 19.9779 20.17 19.973 20.1718C19.9706 20.1727 19.9692 20.173 19.9686 20.1731L19.9681 20.1732L19.968 20.1732L19.968 20.1732L19.9675 20.1731C19.9669 20.173 19.9655 20.1727 19.9631 20.1718C19.9582 20.17 19.9484 20.1654 19.9341 20.1548C19.9041 20.1323 19.8627 20.0894 19.8145 20.015C19.7174 19.8653 19.6195 19.6303 19.533 19.315C19.3612 18.6883 19.2514 17.8068 19.2514 16.8219ZM19.9681 12.9133C19.6838 12.9133 19.48 13.1201 19.3468 13.3257C19.2056 13.5434 19.0891 13.8399 18.9955 14.1815C18.8071 14.8686 18.694 15.802 18.694 16.8219C18.694 17.8419 18.8071 18.7753 18.9955 19.4624C19.0891 19.8039 19.2056 20.1005 19.3468 20.3182C19.48 20.5238 19.6838 20.7305 19.9681 20.7305C20.2523 20.7305 20.4561 20.5238 20.5893 20.3182C20.7305 20.1005 20.847 19.8039 20.9406 19.4624C21.129 18.7753 21.2421 17.8419 21.2421 16.8219C21.2421 15.802 21.129 14.8686 20.9406 14.1815C20.847 13.8399 20.7305 13.5434 20.5893 13.3257C20.4561 13.1201 20.2523 12.9133 19.9681 12.9133ZM16.1955 14.6531C16.051 15.1767 15.9588 15.9158 15.9588 16.7431C15.9588 17.5704 16.051 18.3095 16.1955 18.8331C16.2684 19.0968 16.3502 19.2899 16.4294 19.4106C16.4762 19.4819 16.5091 19.5097 16.5253 19.5202C16.5281 19.5183 16.5313 19.516 16.535 19.5132C16.5608 19.4931 16.5959 19.4553 16.6307 19.3958C16.7085 19.263 16.8792 19.2183 17.012 19.2961C17.1449 19.3738 17.1895 19.5445 17.1118 19.6774C17.0487 19.7852 16.9696 19.8813 16.8771 19.9532C16.7866 20.0235 16.6668 20.0829 16.5286 20.0829C16.2656 20.0829 16.0805 19.8949 15.9634 19.7165C15.8392 19.5271 15.7384 19.2717 15.6583 18.9814C15.4969 18.3968 15.4014 17.6053 15.4014 16.7431C15.4014 15.8809 15.4969 15.0894 15.6583 14.5048C15.7384 14.2144 15.8392 13.959 15.9634 13.7697C16.0805 13.5912 16.2656 13.4032 16.5286 13.4032C16.7847 13.4032 16.9721 13.5851 17.0886 13.7641C17.1725 13.8932 17.1359 14.0658 17.0069 14.1497C16.8778 14.2336 16.7052 14.197 16.6213 14.068C16.5855 14.0129 16.5547 13.9829 16.5348 13.9685L16.5283 13.9641C16.5134 13.973 16.4792 13.9996 16.4294 14.0755C16.3502 14.1962 16.2684 14.3893 16.1955 14.6531ZM17.8062 14.7315C17.6616 15.2551 17.5694 15.9942 17.5694 16.8215C17.5694 17.6487 17.6616 18.3879 17.8062 18.9114C17.879 19.1752 17.9608 19.3683 18.04 19.489C18.0868 19.5603 18.1198 19.5881 18.136 19.5986L18.141 19.595L18.1456 19.5916C18.1715 19.5714 18.2066 19.5337 18.2414 19.4742C18.3191 19.3414 18.4898 19.2967 18.6227 19.3745C18.7555 19.4522 18.8002 19.6229 18.7224 19.7558C18.6593 19.8636 18.5802 19.9596 18.4878 20.0315C18.3973 20.1019 18.2774 20.1613 18.1392 20.1613C17.8762 20.1613 17.6912 19.9733 17.574 19.7948C17.4498 19.6055 17.3491 19.3501 17.2689 19.0598C17.1075 18.4751 17.0121 17.6837 17.0121 16.8215C17.0121 15.9592 17.1075 15.1678 17.2689 14.5831C17.3491 14.2928 17.4498 14.0374 17.574 13.8481C17.6912 13.6696 17.8762 13.4816 18.1392 13.4816C18.3953 13.4816 18.5828 13.6634 18.6992 13.8425C18.7831 13.9716 18.7466 14.1442 18.6175 14.2281C18.4885 14.312 18.3159 14.2754 18.232 14.1464C18.1961 14.0913 18.1654 14.0613 18.1455 14.0469L18.139 14.0425C18.1241 14.0514 18.0899 14.078 18.04 14.1539C17.9608 14.2746 17.879 14.4677 17.8062 14.7315Z" fill="#262E30"/>
</svg>
