<svg xmlns="http://www.w3.org/2000/svg" width="22" height="20" viewBox="0 0 22 20"><line x1="11.5" y1="3.5" x2="11.5" y2="14.5" style="fill:none;stroke:#949494;stroke-linecap:round;opacity:0.5"/><path d="M.5,6.5c0-1.443,2.314-6,3-6s3,4.763,3,6a3,3,0,0,1-3,3A2.883,2.883,0,0,1,.5,6.5Z" style="fill:none;stroke:#949494;stroke-linecap:round"/><path d="M2.5,5.5c0,1,0,2,1,2" style="fill:none;stroke:#949494;stroke-linecap:round"/><path d="M21.5,18.5h-3" style="fill:none;stroke:#009688;stroke-linecap:square;stroke-miterlimit:10"/><path d="M21.5,14.5h-3" style="fill:none;stroke:#009688;stroke-linecap:square;stroke-miterlimit:10"/><path d="M21.5,10.5h-3" style="fill:none;stroke:#009688;stroke-linecap:square;stroke-miterlimit:10"/><path d="M21.5,6.5h-3" style="fill:none;stroke:#009688;stroke-linecap:square;stroke-miterlimit:10"/><path d="M21.5,2.5h-3" style="fill:none;stroke:#949494;stroke-linecap:square"/><path d="M13.5,9.922V2.5a2,2,0,0,0-2-2h0a2,2,0,0,0-2,2V9.922a5,5,0,1,0,4,0Z" style="fill:none;stroke:#949494;stroke-linecap:round"/><line x1="11.5" y1="10.5" x2="11.5" y2="14.5" style="fill:none;stroke:#009688;stroke-linecap:round;stroke-miterlimit:10"/><circle cx="11.5" cy="14.5" r="2.5" style="fill:#009688"/></svg>