<svg width="20" height="18" viewBox="0 0 20 18" fill="none" xmlns="http://www.w3.org/2000/svg">
<path d="M8.75695 10.1311L8.97149 10.5827L9.25695 10.4471V10.1311H8.75695ZM12.0428 10.1311H11.5428V10.4471L11.8282 10.5827L12.0428 10.1311ZM9.25695 2.64291C9.25695 2.0117 9.76864 1.5 10.3999 1.5V0.5C9.21636 0.5 8.25695 1.45941 8.25695 2.64291H9.25695ZM9.25695 10.1311V2.64291H8.25695V10.1311H9.25695ZM7.06641 13.5956C7.06641 12.2666 7.84413 11.1182 8.97149 10.5827L8.5424 9.67943C7.07951 10.3744 6.06641 11.8662 6.06641 13.5956H7.06641ZM10.3999 16.929C8.55884 16.929 7.06641 15.4366 7.06641 13.5956H6.06641C6.06641 15.9889 8.00656 17.929 10.3999 17.929V16.929ZM13.7333 13.5956C13.7333 15.4366 12.2409 16.929 10.3999 16.929V17.929C12.7931 17.929 14.7333 15.9889 14.7333 13.5956H13.7333ZM11.8282 10.5827C12.9556 11.1182 13.7333 12.2666 13.7333 13.5956H14.7333C14.7333 11.8662 13.7202 10.3744 12.2573 9.67943L11.8282 10.5827ZM11.5428 2.6429V10.1311H12.5428V2.6429H11.5428ZM10.3999 1.5C11.0311 1.5 11.5428 2.0117 11.5428 2.6429H12.5428C12.5428 1.45941 11.5833 0.5 10.3999 0.5V1.5Z" fill="#898989"/>
<path d="M0.667969 9.03081C0.667969 7.79861 2.43564 3.86325 2.94804 3.86328C3.46043 3.86331 5.15128 7.97448 5.15128 9.03081C5.15128 10.0871 4.47911 11.549 2.94804 11.549C1.41696 11.549 0.667969 10.263 0.667969 9.03081Z" stroke="#898989"/>
<path d="M2.13028 8.40322C2.05957 8.79592 2.10218 9.68104 2.8383 10.0798" stroke="#898989" stroke-linecap="round"/>
<path fill-rule="evenodd" clip-rule="evenodd" d="M10.9452 11.4737C11.89 11.7169 12.5881 12.5746 12.5881 13.5953C12.5881 14.8051 11.6074 15.7858 10.3976 15.7858C9.18777 15.7858 8.20703 14.8051 8.20703 13.5953C8.20703 12.5746 8.90514 11.7169 9.84994 11.4737L9.84994 3.19021C9.84994 2.88776 10.0951 2.64258 10.3976 2.64258C10.7 2.64258 10.9452 2.88776 10.9452 3.19021L10.9452 11.4737Z" fill="#C2C2C2"/>
<path fill-rule="evenodd" clip-rule="evenodd" d="M10.9452 11.4743C11.89 11.7174 12.5881 12.5751 12.5881 13.5958C12.5881 14.8056 11.6074 15.7863 10.3976 15.7863C9.18777 15.7863 8.20703 14.8056 8.20703 13.5958C8.20703 12.5751 8.90514 11.7174 9.84994 11.4743L9.84994 6.11599C9.84994 5.81354 10.0951 5.56836 10.3976 5.56836C10.7 5.56836 10.9452 5.81354 10.9452 6.11599L10.9452 11.4743Z" fill="#FF6F00"/>
<path d="M18.7891 15.7852H16.1038" stroke="#898989" stroke-linecap="round"/>
<path d="M18.7891 12.5H16.5513" stroke="#898989" stroke-linecap="round"/>
<path d="M18.7891 9.21484L15.6562 9.21484" stroke="#C2C2C2" stroke-linecap="round"/>
<path d="M18.7891 5.92773L15.6562 5.92773" stroke="#C2C2C2" stroke-linecap="round"/>
<path d="M18.7891 2.64258H15.6562" stroke="#C2C2C2" stroke-linecap="round"/>
</svg>
