<svg width="20" height="18" viewBox="0 0 20 18" fill="none" xmlns="http://www.w3.org/2000/svg">
<path d="M9.08751 10.1311L9.30206 10.5827L9.58751 10.4471V10.1311H9.08751ZM12.3733 10.1311H11.8733V10.4471L12.1588 10.5827L12.3733 10.1311ZM9.58751 2.64291C9.58751 2.0117 10.0992 1.5 10.7304 1.5V0.5C9.54692 0.5 8.58751 1.45941 8.58751 2.64291H9.58751ZM9.58751 10.1311V2.64291H8.58751V10.1311H9.58751ZM7.39697 13.5956C7.39697 12.2666 8.17469 11.1182 9.30206 10.5827L8.87297 9.67943C7.41008 10.3744 6.39697 11.8662 6.39697 13.5956H7.39697ZM10.7304 16.929C8.88941 16.929 7.39697 15.4366 7.39697 13.5956H6.39697C6.39697 15.9889 8.33712 17.929 10.7304 17.929V16.929ZM14.0639 13.5956C14.0639 15.4366 12.5714 16.929 10.7304 16.929V17.929C13.1237 17.929 15.0639 15.9889 15.0639 13.5956H14.0639ZM12.1588 10.5827C13.2861 11.1182 14.0639 12.2666 14.0639 13.5956H15.0639C15.0639 11.8662 14.0508 10.3744 12.5879 9.67943L12.1588 10.5827ZM11.8733 2.6429V10.1311H12.8733V2.6429H11.8733ZM10.7304 1.5C11.3616 1.5 11.8733 2.0117 11.8733 2.6429H12.8733C12.8733 1.45941 11.9139 0.5 10.7304 0.5V1.5Z" fill="#898989"/>
<path d="M1 9.03081C1 7.79861 2.76767 3.86325 3.28007 3.86328C3.79246 3.86331 5.48331 7.97448 5.48331 9.03081C5.48331 10.0871 4.81114 11.549 3.28007 11.549C1.74899 11.549 1 10.263 1 9.03081Z" stroke="#898989"/>
<path d="M2.46231 8.4037C2.3916 8.79641 2.43422 9.68152 3.17033 10.0803" stroke="#898989" stroke-linecap="round"/>
<path fill-rule="evenodd" clip-rule="evenodd" d="M11.2763 11.4742C12.2211 11.7174 12.9192 12.5751 12.9192 13.5958C12.9192 14.8056 11.9384 15.7863 10.7286 15.7863C9.51882 15.7863 8.53809 14.8056 8.53809 13.5958C8.53809 12.5751 9.2362 11.7174 10.181 11.4742L10.181 3.1907C10.181 2.88825 10.4262 2.64307 10.7286 2.64307C11.0311 2.64307 11.2763 2.88825 11.2763 3.1907L11.2763 11.4742Z" fill="#00AE42"/>
<path d="M19.1211 15.7861H16.4358" stroke="#898989" stroke-linecap="round"/>
<path d="M19.1211 12.5005H16.8833" stroke="#898989" stroke-linecap="round"/>
<path d="M19.1211 9.21436L15.9882 9.21436" stroke="#898989" stroke-linecap="round"/>
<path d="M19.1211 5.92871L15.9882 5.92871" stroke="#898989" stroke-linecap="round"/>
<path d="M19.1211 2.64307H15.9882" stroke="#898989" stroke-linecap="round"/>
</svg>
