<svg width="20" height="18" viewBox="0 0 20 18" fill="none" xmlns="http://www.w3.org/2000/svg">
<path d="M9.06554 10.1311L9.28009 10.5827L9.56554 10.4471V10.1311H9.06554ZM12.3513 10.1311H11.8513V10.4471L12.1368 10.5827L12.3513 10.1311ZM9.56554 2.64291C9.56554 2.0117 10.0772 1.5 10.7084 1.5V0.5C9.52495 0.5 8.56554 1.45941 8.56554 2.64291H9.56554ZM9.56554 10.1311V2.64291H8.56554V10.1311H9.56554ZM7.375 13.5956C7.375 12.2666 8.15272 11.1182 9.28009 10.5827L8.85099 9.67943C7.3881 10.3744 6.375 11.8662 6.375 13.5956H7.375ZM10.7084 16.929C8.86743 16.929 7.375 15.4366 7.375 13.5956H6.375C6.375 15.9889 8.31515 17.929 10.7084 17.929V16.929ZM14.0419 13.5956C14.0419 15.4366 12.5495 16.929 10.7084 16.929V17.929C13.1017 17.929 15.0419 15.9889 15.0419 13.5956H14.0419ZM12.1368 10.5827C13.2642 11.1182 14.0419 12.2666 14.0419 13.5956H15.0419C15.0419 11.8662 14.0288 10.3744 12.5659 9.67943L12.1368 10.5827ZM11.8513 2.64291V10.1311H12.8513V2.64291H11.8513ZM10.7084 1.5C11.3397 1.5 11.8513 2.0117 11.8513 2.64291H12.8513C12.8513 1.45941 11.8919 0.5 10.7084 0.5V1.5Z" fill="#898989"/>
<path d="M0.976562 9.03081C0.976562 7.79861 2.74423 3.86325 3.25663 3.86328C3.76903 3.86331 5.45988 7.97448 5.45988 9.03081C5.45988 10.0871 4.78771 11.549 3.25663 11.549C1.72555 11.549 0.976562 10.263 0.976562 9.03081Z" stroke="#898989"/>
<path d="M2.43887 8.40322C2.36816 8.79592 2.41078 9.68104 3.14689 10.0798" stroke="#898989" stroke-linecap="round"/>
<path fill-rule="evenodd" clip-rule="evenodd" d="M11.2538 11.4737C12.1986 11.7169 12.8967 12.5746 12.8967 13.5953C12.8967 14.8051 11.916 15.7858 10.7062 15.7858C9.49636 15.7858 8.51562 14.8051 8.51562 13.5953C8.51562 12.5746 9.21373 11.7169 10.1585 11.4737L10.1585 3.19021C10.1585 2.88776 10.4037 2.64258 10.7062 2.64258C11.0086 2.64258 11.2538 2.88776 11.2538 3.19021L11.2538 11.4737Z" fill="#C2C2C2"/>
<path d="M12.8967 13.5948C12.8967 14.8046 11.916 15.7854 10.7062 15.7854C9.49636 15.7854 8.51562 14.8046 8.51562 13.5948C8.51562 12.385 9.49636 11.4043 10.7062 11.4043C11.916 11.4043 12.8967 12.385 12.8967 13.5948Z" fill="#00AE42"/>
<path d="M19.1016 15.7852H16.4163" stroke="#898989" stroke-linecap="round"/>
<path d="M19.1016 12.5H16.8638" stroke="#898989" stroke-linecap="round"/>
<path d="M19.1016 9.21484L15.9687 9.21484" stroke="#898989" stroke-linecap="round"/>
<path d="M19.1016 5.92773L15.9687 5.92773" stroke="#898989" stroke-linecap="round"/>
<path d="M19.1016 2.64258H15.9687" stroke="#C2C2C2" stroke-linecap="round"/>
</svg>
