<svg width="21" height="18" viewBox="0 0 21 18" fill="none" xmlns="http://www.w3.org/2000/svg">
<path d="M9.48351 10.1311L9.69805 10.5827L9.98351 10.4471V10.1311H9.48351ZM12.7693 10.1311H12.2693V10.4471L12.5548 10.5827L12.7693 10.1311ZM9.98351 2.64291C9.98351 2.0117 10.4952 1.5 11.1264 1.5V0.5C9.94292 0.5 8.98351 1.45941 8.98351 2.64291H9.98351ZM9.98351 10.1311V2.64291H8.98351V10.1311H9.98351ZM7.79297 13.5956C7.79297 12.2666 8.57069 11.1182 9.69805 10.5827L9.26896 9.67943C7.80607 10.3744 6.79297 11.8662 6.79297 13.5956H7.79297ZM11.1264 16.929C9.2854 16.929 7.79297 15.4366 7.79297 13.5956H6.79297C6.79297 15.9889 8.73312 17.929 11.1264 17.929V16.929ZM14.4599 13.5956C14.4599 15.4366 12.9674 16.929 11.1264 16.929V17.929C13.5197 17.929 15.4599 15.9889 15.4599 13.5956H14.4599ZM12.5548 10.5827C13.6821 11.1182 14.4599 12.2666 14.4599 13.5956H15.4599C15.4599 11.8662 14.4468 10.3744 12.9839 9.67943L12.5548 10.5827ZM12.2693 2.6429V10.1311H13.2693V2.6429H12.2693ZM11.1264 1.5C11.7576 1.5 12.2693 2.0117 12.2693 2.6429H13.2693C13.2693 1.45941 12.3099 0.5 11.1264 0.5V1.5Z" fill="#898989"/>
<path d="M1.39453 9.03081C1.39453 7.79861 3.1622 3.86325 3.6746 3.86328C4.18699 3.86331 5.87785 7.97448 5.87785 9.03081C5.87785 10.0871 5.20568 11.549 3.6746 11.549C2.14352 11.549 1.39453 10.263 1.39453 9.03081Z" stroke="#898989"/>
<path d="M2.85684 8.40322C2.78613 8.79592 2.82875 9.68104 3.56486 10.0798" stroke="#898989" stroke-linecap="round"/>
<path fill-rule="evenodd" clip-rule="evenodd" d="M11.6718 11.4737C12.6166 11.7169 13.3147 12.5746 13.3147 13.5953C13.3147 14.8051 12.3339 15.7858 11.1241 15.7858C9.91433 15.7858 8.93359 14.8051 8.93359 13.5953C8.93359 12.5746 9.6317 11.7169 10.5765 11.4737L10.5765 3.19021C10.5765 2.88776 10.8217 2.64258 11.1241 2.64258C11.4266 2.64258 11.6718 2.88776 11.6718 3.19021L11.6718 11.4737Z" fill="#C2C2C2"/>
<path d="M13.3147 13.596C13.3147 14.8058 12.3339 15.7866 11.1241 15.7866C9.91433 15.7866 8.93359 14.8058 8.93359 13.596C8.93359 13.1677 9.58237 13.8695 10.7922 13.8695C12.002 13.8695 13.3147 12.3862 13.3147 13.596Z" fill="#009688"/>
<path d="M19.5156 15.7871H16.8303" stroke="#898989" stroke-linecap="round"/>
<path d="M19.5156 12.5H17.2779" stroke="#898989" stroke-linecap="round"/>
<path d="M19.5156 9.21484L16.3828 9.21484" stroke="#898989" stroke-linecap="round"/>
<path d="M19.5156 5.92969L16.3828 5.92969" stroke="#898989" stroke-linecap="round"/>
<path d="M19.5156 2.64258H16.3828" stroke="#898989" stroke-linecap="round"/>
</svg>
