<svg width="128" height="149" viewBox="0 0 128 149" fill="none" xmlns="http://www.w3.org/2000/svg">
<path d="M82.7793 43.5141L79.8925 40.6274L82.7793 37.7406L85.666 40.6274L82.7793 43.5141ZM127.994 92.228L125.107 95.1148L122.221 92.228L125.107 89.3413L127.994 92.228ZM82.2793 40.6274V36.1917H83.2793V40.6274H82.2793ZM85.7793 32.6917H112.531V33.6917H85.7793V32.6917ZM116.031 36.1917V89.228H115.031V36.1917H116.031ZM118.531 91.728H125.107V92.728H118.531V91.728ZM116.031 89.228C116.031 90.6087 117.15 91.728 118.531 91.728V92.728C116.598 92.728 115.031 91.161 115.031 89.228H116.031ZM112.531 32.6917C114.464 32.6917 116.031 34.2587 116.031 36.1917H115.031C115.031 34.811 113.912 33.6917 112.531 33.6917V32.6917ZM82.2793 36.1917C82.2793 34.2587 83.8463 32.6917 85.7793 32.6917V33.6917C84.3986 33.6917 83.2793 34.811 83.2793 36.1917H82.2793Z" fill="#828280"/>
<path d="M41.979 43.0337L39.0923 40.147L41.979 37.2602L44.8658 40.147L41.979 43.0337ZM127.994 3.65353L125.108 6.54028L122.221 3.65353L125.108 0.766776L127.994 3.65353ZM41.479 40.147V6.65353H42.479V40.147H41.479ZM44.979 3.15353H125.108V4.15353H44.979V3.15353ZM41.479 6.65353C41.479 4.72053 43.046 3.15353 44.979 3.15353V4.15353C43.5983 4.15353 42.479 5.27282 42.479 6.65353H41.479Z" fill="#828280"/>
<path d="M0.76416 54.0911L0.76416 45.126C0.76416 44.5737 1.21188 44.126 1.76416 44.126L69.2315 44.126C69.7838 44.126 70.2315 44.5737 70.2315 45.126L70.2315 55.3035" stroke="#00AE42" stroke-width="1.5" stroke-linecap="round"/>
<path d="M73.7192 55.3035L73.7192 45.126C73.7192 44.5737 74.167 44.126 74.7192 44.126L96.1852 44.126C96.7374 44.126 97.1852 44.5737 97.1852 45.126L97.1852 55.3035" stroke="#00AE42" stroke-width="1.5" stroke-linecap="round"/>
<path fill-rule="evenodd" clip-rule="evenodd" d="M53.8234 68.1978C50.7459 68.1978 48.2511 70.6926 48.2511 73.7701V111.82L46.8593 112.481C41.3628 115.092 37.571 120.691 37.571 127.17C37.571 136.146 44.8474 143.423 53.8234 143.423C62.7993 143.423 70.0757 136.146 70.0757 127.17C70.0757 120.691 66.2839 115.092 60.7874 112.481L59.3956 111.82V73.7701C59.3956 70.6926 56.9008 68.1978 53.8234 68.1978ZM43.3755 73.7701C43.3755 67.9999 48.0532 63.3223 53.8234 63.3223C59.5935 63.3223 64.2712 67.9999 64.2712 73.7701V108.803C70.6464 112.437 74.9513 119.299 74.9513 127.17C74.9513 138.839 65.492 148.298 53.8234 148.298C42.1547 148.298 32.6954 138.839 32.6954 127.17C32.6954 119.299 37.0003 112.437 43.3755 108.803V73.7701Z" fill="#898989"/>
<path fill-rule="evenodd" clip-rule="evenodd" d="M15.546 77.9488C15.9131 77.6886 16.5964 77.283 17.4922 77.283C18.4249 77.2831 19.1237 77.7247 19.4862 77.9963C19.8951 78.3027 20.2496 78.6782 20.5447 79.0328C21.1408 79.7491 21.7489 80.6916 22.339 81.7202C23.5319 83.7997 24.8404 86.5665 26.0477 89.4434C27.2588 92.3291 28.3955 95.3907 29.2342 98.0802C30.04 100.664 30.6719 103.211 30.6719 104.915C30.6719 107.942 29.7247 111.525 27.6384 114.413C25.4972 117.377 22.1188 119.63 17.4921 119.63C12.995 119.63 9.522 117.707 7.22741 114.825C4.98372 112.008 3.93772 108.377 3.93772 104.915C3.93772 103.001 4.58779 100.359 5.43962 97.7004C6.31841 94.9576 7.50745 91.9128 8.76947 89.0746C10.028 86.2443 11.3881 83.5543 12.6224 81.5392C13.2332 80.5421 13.8603 79.6319 14.4717 78.9412C14.7748 78.5987 15.1352 78.2399 15.546 77.9488ZM10.0827 99.188C9.2405 101.817 8.81327 103.826 8.81327 104.915C8.81327 107.461 9.59314 109.969 11.0415 111.788C12.439 113.543 14.5243 114.755 17.4921 114.755C20.3302 114.755 22.3227 113.445 23.6864 111.558C25.1049 109.594 25.7963 107.039 25.7963 104.915C25.7963 104.045 25.3977 102.155 24.5797 99.5317C23.7947 97.0144 22.7142 94.0994 21.5521 91.3302C20.3862 88.5523 19.1653 85.9861 18.1099 84.1463C17.8706 83.7291 17.6489 83.3655 17.4473 83.0554C17.2441 83.3491 17.021 83.6924 16.78 84.0859C15.6957 85.8561 14.4327 88.3383 13.2244 91.0556C12.0196 93.7652 10.8979 96.6436 10.0827 99.188Z" fill="#898989"/>
<path fill-rule="evenodd" clip-rule="evenodd" d="M13.9403 99.4588C15.2653 99.6973 16.146 100.965 15.9075 102.29C15.7929 102.926 15.7611 104.097 16.0986 105.249C16.4227 106.355 17.0363 107.301 18.1215 107.889C19.3053 108.53 19.745 110.01 19.1037 111.194C18.4624 112.377 16.9829 112.817 15.7991 112.176C13.2953 110.819 12.0105 108.636 11.4197 106.62C10.8423 104.649 10.8789 102.704 11.1091 101.426C11.3477 100.101 12.6152 99.2202 13.9403 99.4588Z" fill="#898989"/>
<path fill-rule="evenodd" clip-rule="evenodd" d="M56.4827 116.827C61.0891 118.012 64.4927 122.194 64.4927 127.17C64.4927 133.069 59.7111 137.851 53.8127 137.851C47.9142 137.851 43.1326 133.069 43.1326 127.17C43.1326 122.194 46.5362 118.012 51.1426 116.827L51.1426 76.4401C51.1426 74.9655 52.338 73.7701 53.8127 73.7701C55.2873 73.7701 56.4827 74.9655 56.4827 76.4401L56.4827 116.827Z" fill="#C2C2C2"/>
<path d="M64.4927 127.17C64.4927 133.069 59.7111 137.85 53.8127 137.85C47.9142 137.85 43.1326 133.069 43.1326 127.17C43.1326 121.272 47.9142 116.49 53.8127 116.49C59.7111 116.49 64.4927 121.272 64.4927 127.17Z" fill="#00AE42"/>
<path fill-rule="evenodd" clip-rule="evenodd" d="M97.1825 137.851C97.1825 136.504 96.0911 135.413 94.7447 135.413H81.6524C80.306 135.413 79.2146 136.504 79.2146 137.851C79.2146 139.197 80.306 140.289 81.6524 140.289H94.7447C96.0911 140.289 97.1825 139.197 97.1825 137.851Z" fill="#00AE42"/>
<path fill-rule="evenodd" clip-rule="evenodd" d="M97.1825 121.831C97.1825 120.485 96.0911 119.393 94.7447 119.393H83.8344C82.4881 119.393 81.3967 120.485 81.3967 121.831C81.3967 123.177 82.4881 124.269 83.8344 124.269H94.7447C96.0911 124.269 97.1825 123.177 97.1825 121.831Z" fill="#00AE42"/>
<path fill-rule="evenodd" clip-rule="evenodd" d="M97.1825 105.81C97.1825 107.157 96.0911 108.248 94.7447 108.248L79.4703 108.248C78.124 108.248 77.0326 107.157 77.0326 105.81C77.0326 104.464 78.124 103.373 79.4703 103.373L94.7447 103.373C96.0911 103.373 97.1825 104.464 97.1825 105.81Z" fill="#00AE42"/>
<path fill-rule="evenodd" clip-rule="evenodd" d="M97.1825 89.7905C97.1825 91.1368 96.0911 92.2283 94.7447 92.2283L79.4703 92.2283C78.124 92.2283 77.0326 91.1368 77.0326 89.7905C77.0326 88.4442 78.124 87.3527 79.4703 87.3527L94.7447 87.3527C96.0911 87.3527 97.1825 88.4442 97.1825 89.7905Z" fill="#00AE42"/>
<path fill-rule="evenodd" clip-rule="evenodd" d="M97.1825 73.7704C97.1825 72.424 96.0911 71.3326 94.7447 71.3326H79.4703C78.124 71.3326 77.0326 72.424 77.0326 73.7704C77.0326 75.1167 78.124 76.2081 79.4703 76.2081H94.7447C96.0911 76.2081 97.1825 75.1167 97.1825 73.7704Z" fill="#C2C2C2"/>
</svg>
