<svg width="30" height="30" xmlns="http://www.w3.org/2000/svg" fill="none">
 <defs>
  <clipPath id="clip0_7112_29471">
   <rect id="svg_1" fill="white" height="30" width="30"/>
  </clipPath>
 </defs>
 <g>
  <title>Layer 1</title>
  <g id="svg_2" clip-path="url(#clip0_7112_29471)">
   <path id="svg_3" stroke="black" d="m31.1539,-1.15234l-32.30771,0l0,32.30764l32.30771,0l0,-32.30764z"/>
   <path id="svg_4" fill="#6B6B6B" d="m7.26862,22.8248l-1.70224,1.7022c-0.15485,0.1549 -0.42002,0.0603 -0.4418,-0.1577l-0.56172,-5.6079c-0.01641,-0.1632 0.12091,-0.3005 0.28418,-0.2842l5.60796,0.5617c0.2178,0.0219 0.3124,0.2871 0.1576,0.4419l-1.753,1.753c1.2165,1.1983 2.7575,2.0148 4.4333,2.3481c1.6973,0.3377 3.4567,0.1644 5.0555,-0.4979c1.5989,-0.6623 2.9655,-1.7838 3.9269,-3.2227c0.9615,-1.439 1.4747,-3.1307 1.4747,-4.8613c0,-1.7306 -0.5132,-3.4223 -1.4747,-4.8613c-0.9614,-1.43891 -2.328,-2.56043 -3.9269,-3.2227c-1.5988,-0.66227 -3.3582,-0.83555 -5.0555,-0.49793c-1.6974,0.33762 -3.2565,1.17099 -4.4802,2.3947l-0.53029,-0.53028l-0.53037,-0.53038l-0.53029,-0.53028c0.35619,-0.35619 0.73499,-0.68608 1.13331,-0.98801c1.32202,-1.0021 2.85914,-1.69629 4.49884,-2.02245c2.1338,-0.42444 4.3456,-0.2066 6.3555,0.62596c2.01,0.83256 3.728,2.24246 4.9367,4.0514c1.2087,1.80897 1.8538,3.93567 1.8538,6.11127c0,2.1756 -0.6451,4.3023 -1.8538,6.1113c-1.2087,1.8089 -2.9267,3.2188 -4.9367,4.0514c-2.0099,0.8325 -4.2217,1.0504 -6.3555,0.6259c-1.6397,-0.3261 -3.17682,-1.0203 -4.49884,-2.0224c-0.3809,-0.2887 -0.74394,-0.603 -1.08644,-0.9414z" clip-rule="evenodd" fill-rule="evenodd"/>
  </g>
 </g>
</svg>