<svg width="289" height="95" viewBox="0 0 289 95" fill="none" xmlns="http://www.w3.org/2000/svg">
<g filter="url(#filter0_d_6_12)">
<path d="M32.9148 3.99902L39.9843 13.6329H25.8452L32.9148 3.99902Z" fill="url(#paint0_linear_6_12)"/>
<rect x="4.87988" y="9.08975" width="280" height="81.4544" rx="4.08163" fill="white"/>
<path d="M4.87988 12.9786C4.87988 10.7244 6.70729 8.89698 8.96151 8.89698H280.798C283.052 8.89698 284.879 10.7244 284.879 12.9786V33.3867H4.87988V12.9786Z" fill="url(#paint1_linear_6_12)"/>
<rect x="22.8363" y="57.0603" width="52.2448" height="16.3265" rx="4.08163" fill="#C041C2"/>
<path d="M42.2168 62.1548C42.7001 62.1548 43.1311 62.2495 43.5099 62.4388C43.8952 62.6282 44.1956 62.8927 44.4111 63.2323C44.6266 63.5654 44.7344 63.9474 44.7344 64.3784C44.7344 64.8095 44.6266 65.1948 44.4111 65.5344C44.2021 65.8674 43.905 66.1286 43.5197 66.318C43.1409 66.5009 42.7066 66.5923 42.2168 66.5923H40.8846V69.3254H40.0128V62.1548H42.2168ZM42.1091 65.8282C42.6577 65.8282 43.0789 65.6944 43.3728 65.4266C43.6666 65.1523 43.8136 64.8029 43.8136 64.3784C43.8136 63.9539 43.6666 63.6046 43.3728 63.3303C43.0789 63.056 42.6577 62.9188 42.1091 62.9188H40.8846V65.8282H42.1091ZM45.8291 62.1548H46.7009V68.5417H50.2372V69.3254H45.8291V62.1548ZM54.0812 62.1548L56.9612 69.3254H55.9914L55.1979 67.2682H52.2298L51.4755 69.3254H50.5939L53.3465 62.1548H54.0812ZM54.8943 66.4846L53.6796 63.3205L52.5237 66.4846H54.8943Z" fill="white"/>
<rect x="86.5146" y="57.0605" width="52.2448" height="16.3265" rx="4.08163" fill="#CECECE"/>
<path d="M108.536 63.2913C108.699 62.8146 108.977 62.4456 109.369 62.1844C109.767 61.9166 110.224 61.7827 110.74 61.7827C111.125 61.7827 111.465 61.8578 111.759 62.008C112.053 62.1517 112.281 62.3542 112.445 62.6154C112.608 62.8701 112.689 63.1574 112.689 63.4774C112.689 63.804 112.611 64.0782 112.454 64.3003C112.304 64.5158 112.076 64.7574 111.769 65.0252C111.553 65.2276 111.38 65.4007 111.249 65.5444C111.119 65.688 111.008 65.8611 110.916 66.0635C110.831 66.2595 110.789 66.488 110.789 66.7493C110.789 66.9321 110.812 67.1182 110.858 67.3076H110.182C110.097 67.0137 110.054 66.7427 110.054 66.4946C110.054 66.2268 110.097 65.9917 110.182 65.7893C110.273 65.5803 110.381 65.4072 110.505 65.2701C110.629 65.1264 110.796 64.9566 111.005 64.7607C111.259 64.5321 111.449 64.3329 111.573 64.1631C111.697 63.9868 111.759 63.7811 111.759 63.546C111.759 63.2521 111.658 63.017 111.455 62.8407C111.253 62.6644 110.988 62.5762 110.662 62.5762C109.996 62.5762 109.512 62.9452 109.212 63.6831L108.536 63.2913ZM110.603 69.4333C110.453 69.4333 110.322 69.3778 110.211 69.2668C110.107 69.1558 110.054 69.0252 110.054 68.875C110.054 68.7182 110.107 68.5844 110.211 68.4733C110.322 68.3623 110.453 68.3068 110.603 68.3068C110.76 68.3068 110.89 68.3623 110.995 68.4733C111.106 68.5844 111.161 68.7182 111.161 68.875C111.161 69.0252 111.106 69.1558 110.995 69.2668C110.89 69.3778 110.76 69.4333 110.603 69.4333Z" fill="#6B6B6B"/>
<rect x="150.187" y="57.0605" width="52.2448" height="16.3265" rx="4.08163" fill="#CECECE"/>
<path d="M174.466 65.9039V65.1986H178.032V65.9039H174.466Z" fill="#6B6B6B"/>
<rect x="213.858" y="57.0605" width="52.2448" height="16.3265" rx="4.08163" fill="#FFE27A"/>
<path d="M233.239 62.155C233.722 62.155 234.153 62.2497 234.532 62.4391C234.917 62.6284 235.218 62.8929 235.433 63.2325C235.649 63.5656 235.756 63.9476 235.756 64.3786C235.756 64.8097 235.649 65.195 235.433 65.5346C235.224 65.8676 234.927 66.1288 234.542 66.3182C234.163 66.5011 233.729 66.5925 233.239 66.5925H231.907V69.3256H231.035V62.155H233.239ZM233.131 65.8284C233.68 65.8284 234.101 65.6946 234.395 65.4268C234.689 65.1525 234.836 64.8031 234.836 64.3786C234.836 63.9542 234.689 63.6048 234.395 63.3305C234.101 63.0562 233.68 62.9191 233.131 62.9191H231.907V65.8284H233.131ZM236.851 62.155H237.723V68.5419H241.259V69.3256H236.851V62.155ZM245.103 62.155L247.983 69.3256H247.013L246.22 67.2684H243.252L242.498 69.3256H241.616L244.369 62.155H245.103ZM245.916 66.4848L244.702 63.3207L243.546 66.4848H245.916Z" fill="#6B6B6B"/>
<path d="M49.2546 47.4611L52.1346 54.6317H51.1648L50.3713 52.5746H47.4032L46.6489 54.6317H45.7672L48.5199 47.4611H49.2546ZM50.0676 51.7909L48.853 48.6269L47.697 51.7909H50.0676ZM53.1736 49.5673V48.666L55.2601 47.4513H55.9262V54.6317H55.0446V48.4995L53.1736 49.5673Z" fill="#6B6B6B"/>
<path d="M108.029 47.4611L110.909 54.6317H109.939L109.146 52.5746H106.178L105.423 54.6317H104.542L107.294 47.4611H108.029ZM108.842 51.7909L107.627 48.6269L106.472 51.7909H108.842ZM112.8 53.8579H116.043V54.6317H111.468V54.0734L113.79 51.4873C114.227 51.004 114.528 50.6252 114.691 50.3509C114.854 50.0701 114.936 49.7664 114.936 49.4399C114.936 49.022 114.822 48.6987 114.593 48.4701C114.364 48.2415 114.077 48.1273 113.731 48.1273C113.378 48.1273 113.068 48.2481 112.8 48.4897C112.533 48.7248 112.34 49.0383 112.222 49.4301L111.517 49.0285C111.661 48.493 111.945 48.0783 112.369 47.7844C112.794 47.484 113.267 47.3338 113.79 47.3338C114.168 47.3338 114.515 47.4154 114.828 47.5787C115.142 47.7354 115.39 47.9705 115.573 48.284C115.762 48.5909 115.857 48.9632 115.857 49.4007C115.857 49.8252 115.752 50.2268 115.543 50.6056C115.334 50.9844 114.968 51.4611 114.446 52.0358L112.8 53.8579Z" fill="#6B6B6B"/>
<path d="M174.152 47.4611L177.032 54.6317H176.062L175.269 52.5746H172.3L171.546 54.6317H170.664L173.417 47.4611H174.152ZM174.965 51.7909L173.75 48.6269L172.594 51.7909H174.965ZM180.882 50.8015C181.313 50.9387 181.633 51.1607 181.842 51.4677C182.058 51.7746 182.165 52.1534 182.165 52.604C182.165 53.0481 182.061 53.4334 181.852 53.7599C181.643 54.0799 181.365 54.3248 181.019 54.4946C180.673 54.6579 180.294 54.7395 179.883 54.7395C179.361 54.7395 178.877 54.6056 178.433 54.3379C177.996 54.0701 177.702 53.6783 177.552 53.1624L178.257 52.7607C178.381 53.1526 178.593 53.4497 178.894 53.6522C179.201 53.8481 179.53 53.946 179.883 53.946C180.268 53.946 180.588 53.8285 180.843 53.5934C181.104 53.3517 181.235 53.0187 181.235 52.5942C181.235 51.7191 180.637 51.2815 179.442 51.2815H179.139L179.148 50.4979H179.491C179.974 50.4979 180.34 50.3803 180.588 50.1452C180.843 49.9101 180.97 49.6097 180.97 49.244C180.97 48.8979 180.863 48.6269 180.647 48.4309C180.432 48.235 180.154 48.1371 179.814 48.1371C179.462 48.1371 179.161 48.2415 178.913 48.4505C178.672 48.6595 178.485 48.9599 178.355 49.3517L177.65 48.9501C177.806 48.4211 178.081 48.0228 178.472 47.755C178.871 47.4807 179.334 47.3436 179.863 47.3436C180.477 47.3436 180.97 47.5166 181.343 47.8628C181.715 48.2089 181.901 48.6628 181.901 49.2244C181.901 49.5836 181.816 49.9003 181.646 50.1746C181.483 50.4489 181.228 50.6579 180.882 50.8015Z" fill="#6B6B6B"/>
<path d="M236.189 47.4611L239.069 54.6317H238.1L237.306 52.5746H234.338L233.584 54.6317H232.702L235.455 47.4611H236.189ZM237.002 51.7909L235.788 48.6269L234.632 51.7909H237.002ZM243.547 50.2824V52.2905H244.575V53.0448H243.547V54.6317H242.675V53.0448H239.501V52.4375L242.195 47.4513H243.145L240.52 52.2905H242.675V50.2824H243.547Z" fill="#6B6B6B"/>
<path d="M117.093 16.6594L120.235 24.4276H118.6L117.921 22.6553H114.897L114.239 24.4276H112.7L115.746 16.6594H117.093ZM117.422 21.3394L116.382 18.6121L115.374 21.3394H117.422ZM127.638 16.6594H128.806V24.4276H127.341V19.4186L125.367 22.3582H124.561L122.576 19.3974V24.4276H121.122V16.6594H122.343L124.996 20.6815L127.638 16.6594ZM135.682 22.1778C135.682 22.7084 135.544 23.1541 135.268 23.5149C134.999 23.8687 134.645 24.1304 134.206 24.3002C133.775 24.47 133.312 24.5549 132.816 24.5549C132.095 24.5549 131.444 24.3887 130.864 24.0562C130.284 23.7166 129.898 23.239 129.707 22.6235L130.959 21.9125C131.129 22.3087 131.377 22.6164 131.702 22.8357C132.027 23.0551 132.417 23.1647 132.869 23.1647C133.237 23.1647 133.527 23.0904 133.74 22.9419C133.959 22.7933 134.069 22.5775 134.069 22.2945C134.069 22.0681 133.994 21.8806 133.846 21.7321C133.704 21.5835 133.524 21.4668 133.304 21.3819C133.092 21.297 132.799 21.1979 132.424 21.0847C131.921 20.9362 131.511 20.7911 131.193 20.6496C130.874 20.5011 130.602 20.2817 130.375 19.9917C130.149 19.7016 130.036 19.3196 130.036 18.8455C130.036 18.3432 130.167 17.9187 130.429 17.5721C130.697 17.2183 131.048 16.9566 131.479 16.7868C131.918 16.6099 132.388 16.5215 132.891 16.5215C133.577 16.5215 134.164 16.6771 134.652 16.9884C135.14 17.2997 135.455 17.7207 135.597 18.2513L134.344 18.9623C134.217 18.6298 134.026 18.3715 133.771 18.1876C133.517 17.9966 133.198 17.9011 132.816 17.9011C132.47 17.9011 132.187 17.9824 131.967 18.1451C131.755 18.3008 131.649 18.5095 131.649 18.7713C131.649 18.9694 131.716 19.1356 131.851 19.27C131.985 19.3974 132.155 19.5035 132.36 19.5884C132.572 19.6662 132.855 19.7582 133.209 19.8643C133.718 20.0129 134.139 20.165 134.472 20.3206C134.804 20.4692 135.087 20.6956 135.321 20.9998C135.561 21.297 135.682 21.6896 135.682 22.1778ZM144.822 22.1778C144.822 22.7084 144.684 23.1541 144.408 23.5149C144.139 23.8687 143.786 24.1304 143.347 24.3002C142.916 24.47 142.452 24.5549 141.957 24.5549C141.235 24.5549 140.584 24.3887 140.004 24.0562C139.424 23.7166 139.039 23.239 138.848 22.6235L140.1 21.9125C140.27 22.3087 140.517 22.6164 140.843 22.8357C141.168 23.0551 141.557 23.1647 142.01 23.1647C142.378 23.1647 142.668 23.0904 142.88 22.9419C143.099 22.7933 143.209 22.5775 143.209 22.2945C143.209 22.0681 143.135 21.8806 142.986 21.7321C142.845 21.5835 142.664 21.4668 142.445 21.3819C142.233 21.297 141.939 21.1979 141.564 21.0847C141.062 20.9362 140.652 20.7911 140.333 20.6496C140.015 20.5011 139.742 20.2817 139.516 19.9917C139.29 19.7016 139.176 19.3196 139.176 18.8455C139.176 18.3432 139.307 17.9187 139.569 17.5721C139.838 17.2183 140.188 16.9566 140.62 16.7868C141.058 16.6099 141.529 16.5215 142.031 16.5215C142.717 16.5215 143.305 16.6771 143.793 16.9884C144.281 17.2997 144.596 17.7207 144.737 18.2513L143.485 18.9623C143.358 18.6298 143.167 18.3715 142.912 18.1876C142.657 17.9966 142.339 17.9011 141.957 17.9011C141.61 17.9011 141.327 17.9824 141.108 18.1451C140.896 18.3008 140.79 18.5095 140.79 18.7713C140.79 18.9694 140.857 19.1356 140.991 19.27C141.126 19.3974 141.295 19.5035 141.501 19.5884C141.713 19.6662 141.996 19.7582 142.35 19.8643C142.859 20.0129 143.28 20.165 143.612 20.3206C143.945 20.4692 144.228 20.6956 144.461 20.9998C144.702 21.297 144.822 21.6896 144.822 22.1778ZM147.208 24.4276H145.733V16.3517H147.208V24.4276ZM148.254 21.679C148.254 21.106 148.381 20.6001 148.636 20.1615C148.898 19.7228 149.244 19.3868 149.676 19.1533C150.108 18.9128 150.574 18.7925 151.077 18.7925C151.572 18.7925 152.032 18.9128 152.456 19.1533C152.888 19.3868 153.231 19.7228 153.486 20.1615C153.748 20.6001 153.878 21.106 153.878 21.679C153.878 22.2521 153.748 22.7579 153.486 23.1966C153.231 23.6352 152.888 23.9713 152.456 24.2047C152.032 24.4382 151.572 24.5549 151.077 24.5549C150.574 24.5549 150.108 24.4382 149.676 24.2047C149.244 23.9713 148.898 23.6352 148.636 23.1966C148.381 22.7579 148.254 22.2521 148.254 21.679ZM149.782 21.679C149.782 22.1672 149.902 22.5563 150.143 22.8464C150.391 23.1294 150.698 23.2708 151.066 23.2708C151.434 23.2708 151.738 23.1294 151.979 22.8464C152.219 22.5563 152.34 22.1672 152.34 21.679C152.34 21.1909 152.219 20.8017 151.979 20.5117C151.738 20.2216 151.434 20.0766 151.066 20.0766C150.698 20.0766 150.391 20.2216 150.143 20.5117C149.902 20.8017 149.782 21.1909 149.782 21.679ZM158.704 24.1092C158.343 24.4064 157.841 24.5549 157.197 24.5549C156.603 24.5549 156.122 24.3993 155.754 24.088C155.393 23.7696 155.213 23.2036 155.213 22.39V20.1721H154.236V18.9304H155.213V17.2431H156.688V18.9304H158.343V20.1721H156.688V22.146C156.688 22.5138 156.751 22.7933 156.879 22.9843C157.006 23.1753 157.211 23.2708 157.494 23.2708C157.742 23.2708 157.975 23.1966 158.195 23.048L158.704 24.1092ZM163.446 22.7933C163.446 23.3381 163.234 23.7696 162.809 24.088C162.392 24.3993 161.847 24.5549 161.175 24.5549C160.595 24.5549 160.093 24.4311 159.668 24.1835C159.251 23.9359 158.968 23.5928 158.819 23.1541L159.891 22.528C159.997 22.7898 160.163 22.9949 160.39 23.1435C160.616 23.285 160.882 23.3557 161.186 23.3557C161.412 23.3557 161.593 23.3133 161.727 23.2284C161.861 23.1435 161.929 23.0232 161.929 22.8676C161.929 22.6907 161.84 22.5563 161.663 22.4643C161.486 22.3653 161.211 22.2627 160.836 22.1566C160.461 22.0434 160.153 21.9337 159.912 21.8276C159.679 21.7215 159.474 21.5694 159.297 21.3713C159.127 21.1661 159.042 20.9008 159.042 20.5753C159.042 20.2075 159.141 19.8891 159.339 19.6202C159.544 19.3514 159.817 19.1462 160.156 19.0047C160.496 18.8632 160.867 18.7925 161.271 18.7925C161.822 18.7925 162.289 18.9128 162.671 19.1533C163.054 19.3868 163.294 19.6981 163.393 20.0872L162.321 20.6921C162.109 20.2322 161.752 20.0023 161.249 20.0023C161.037 20.0023 160.867 20.0447 160.74 20.1296C160.613 20.2075 160.549 20.3206 160.549 20.4692C160.549 20.639 160.634 20.7699 160.804 20.8619C160.974 20.9468 161.239 21.0387 161.6 21.1378C161.982 21.2439 162.296 21.35 162.544 21.4562C162.792 21.5623 163.004 21.725 163.181 21.9443C163.358 22.1566 163.446 22.4396 163.446 22.7933Z" fill="#323A3D"/>
<line x1="5.69655" y1="32.9786" x2="284.88" y2="32.9786" stroke="#CECECE" stroke-width="0.816325"/>
</g>
<defs>
<filter id="filter0_d_6_12" x="0.879883" y="-0.000976562" width="288" height="94.5452" filterUnits="userSpaceOnUse" color-interpolation-filters="sRGB">
<feFlood flood-opacity="0" result="BackgroundImageFix"/>
<feColorMatrix in="SourceAlpha" type="matrix" values="0 0 0 0 0 0 0 0 0 0 0 0 0 0 0 0 0 0 127 0" result="hardAlpha"/>
<feOffset/>
<feGaussianBlur stdDeviation="2"/>
<feComposite in2="hardAlpha" operator="out"/>
<feColorMatrix type="matrix" values="0 0 0 0 0 0 0 0 0 0 0 0 0 0 0 0 0 0 0.1 0"/>
<feBlend mode="normal" in2="BackgroundImageFix" result="effect1_dropShadow_6_12"/>
<feBlend mode="normal" in="SourceGraphic" in2="effect1_dropShadow_6_12" result="shape"/>
</filter>
<linearGradient id="paint0_linear_6_12" x1="32.9148" y1="3.99902" x2="32.9148" y2="16.8441" gradientUnits="userSpaceOnUse">
<stop stop-color="#F8F8F8"/>
<stop offset="1" stop-color="#F1F1F1"/>
</linearGradient>
<linearGradient id="paint1_linear_6_12" x1="144.88" y1="8.89698" x2="144.88" y2="33.3867" gradientUnits="userSpaceOnUse">
<stop stop-color="#F8F8F8"/>
<stop offset="1" stop-color="#F1F1F1"/>
</linearGradient>
</defs>
</svg>
