<svg width="30" height="30" xmlns="http://www.w3.org/2000/svg" fill="none">
 <defs>
  <clipPath id="clip0_7112_29437">
   <rect id="svg_1" fill="white" height="30" width="30"/>
  </clipPath>
 </defs>
 <g>
  <title>Layer 1</title>
  <g id="svg_2" clip-path="url(#clip0_7112_29437)">
   <path id="svg_3" stroke="black" d="m31.1539,-1.15234l-32.30771,0l0,32.30764l32.30771,0l0,-32.30764z"/>
   <path id="svg_4" fill="#6B6B6B" d="m22.7973,22.759l1.6843,1.6843c0.1549,0.1549 0.0602,0.42 -0.1577,0.4418l-5.6079,0.5617c-0.1632,0.0164 -0.3005,-0.1209 -0.2842,-0.2841l0.5617,-5.608c0.0219,-0.2178 0.287,-0.3124 0.4419,-0.1576l1.7709,1.771c1.2133,-1.2209 2.0398,-2.7726 2.3756,-4.461c0.3377,-1.6974 0.1644,-3.4567 -0.4979,-5.0556c-0.6623,-1.5989 -1.7838,-2.96544 -3.2227,-3.92691c-1.439,-0.96147 -3.1307,-1.47465 -4.8613,-1.47465c-1.7306,0 -3.4223,0.51318 -4.8613,1.47465c-1.43891,0.96147 -2.56043,2.32801 -3.2227,3.92691c-0.66227,1.5989 -0.83555,3.3582 -0.49793,5.0556c0.33762,1.6973 1.17099,3.2564 2.3947,4.4801l-0.53028,0.5303l-0.53038,0.5304l-0.53028,0.5303c-0.35619,-0.3562 -0.68608,-0.735 -0.98801,-1.1333c-1.0021,-1.3221 -1.69629,-2.8592 -2.02245,-4.4989c-0.42444,-2.1338 -0.2066,-4.3455 0.62596,-6.3555c0.83256,-2.01001 2.24246,-3.72797 4.0514,-4.93667c1.80897,-1.20869 3.93567,-1.85383 6.11127,-1.85383c2.1756,0 4.3023,0.64514 6.1113,1.85383c1.8089,1.2087 3.2188,2.92666 4.0514,4.93667c0.8325,2.01 1.0504,4.2217 0.6259,6.3555c-0.3261,1.6397 -1.0203,3.1768 -2.0224,4.4989c-0.2965,0.3912 -0.62,0.7635 -0.9689,1.1141z" clip-rule="evenodd" fill-rule="evenodd"/>
  </g>
 </g>
</svg>