<svg width="23" height="21" viewBox="0 0 23 21" fill="none" xmlns="http://www.w3.org/2000/svg">
<path d="M10.3205 11.4008L10.5351 11.8524L10.8205 11.7168V11.4008H10.3205ZM14.2011 11.4006H13.7011V11.7167L13.9866 11.8523L14.2011 11.4006ZM10.8205 2.557C10.8205 1.76154 11.4653 1.1167 12.2608 1.1167V0.116699C10.9131 0.116699 9.8205 1.20926 9.8205 2.557H10.8205ZM10.8205 11.4008V2.557H9.8205V11.4008H10.8205ZM8.23356 15.4924C8.23356 13.8866 9.17331 12.4993 10.5351 11.8524L10.1059 10.9491C8.40868 11.7555 7.23356 13.4862 7.23356 15.4924H8.23356ZM12.2609 19.5198C10.0367 19.5198 8.23356 17.7166 8.23356 15.4924H7.23356C7.23356 18.2689 9.48439 20.5198 12.2609 20.5198V19.5198ZM16.2883 15.4924C16.2883 17.7166 14.4852 19.5198 12.2609 19.5198V20.5198C15.0375 20.5198 17.2883 18.2689 17.2883 15.4924H16.2883ZM13.9866 11.8523C15.3484 12.4992 16.2883 13.8865 16.2883 15.4924H17.2883C17.2883 13.4861 16.113 11.7553 14.4156 10.949L13.9866 11.8523ZM13.7011 2.557V11.4006H14.7011V2.557H13.7011ZM12.2608 1.1167C13.0563 1.1167 13.7011 1.76154 13.7011 2.557H14.7011C14.7011 1.20926 13.6085 0.116699 12.2608 0.116699V1.1167Z" fill="#898989"/>
<path d="M0.769127 10.1012C0.769127 8.64598 2.85678 3.99825 3.46193 3.99829C4.06708 3.99833 6.064 8.8537 6.064 10.1012C6.064 11.3488 5.27016 13.0752 3.46193 13.0752C1.6537 13.0752 0.769127 11.5565 0.769127 10.1012Z" stroke="#898989"/>
<path d="M2.49622 9.36085C2.41272 9.82465 2.46305 10.87 3.33241 11.341" stroke="#898989" stroke-linecap="round"/>
<path fill-rule="evenodd" clip-rule="evenodd" d="M11.6122 12.987L11.6122 3.20396C11.6122 2.84676 11.9018 2.55719 12.259 2.55719C12.6162 2.55719 12.9058 2.84676 12.9058 3.20396L12.9058 12.9871C14.0215 13.2744 14.8459 14.2873 14.8459 15.4927C14.8459 16.9215 13.6876 18.0797 12.2588 18.0797C10.83 18.0797 9.67175 16.9215 9.67175 15.4927C9.67175 14.2871 10.4963 13.2742 11.6122 12.987Z" fill="#C2C2C2"/>
<path d="M14.8459 15.4926C14.8459 16.9214 13.6876 18.0797 12.2588 18.0797C10.83 18.0797 9.67175 16.9214 9.67175 15.4926C9.67175 14.0638 10.83 12.9055 12.2588 12.9055C13.6876 12.9055 14.8459 14.0638 14.8459 15.4926Z" fill="#009688"/>
<path d="M22.1734 18.0794H19.002" stroke="#009688" stroke-linecap="round"/>
<path d="M22.1734 14.199H19.5305" stroke="#009688" stroke-linecap="round"/>
<path d="M22.1734 10.318L18.4734 10.318" stroke="#009688" stroke-linecap="round"/>
<path d="M22.1734 6.43759L18.4734 6.43759" stroke="#009688" stroke-linecap="round"/>
<path d="M22.1734 2.55719H18.4734" stroke="#C2C2C2" stroke-linecap="round"/>
</svg>
