<svg width="20" height="20" viewBox="0 0 20 20" fill="none" xmlns="http://www.w3.org/2000/svg">
<path fill-rule="evenodd" clip-rule="evenodd" d="M3.10031 1.86719C2.27188 1.86719 1.60031 2.53877 1.60031 3.36719V9.01149C0.843171 9.08758 0.252106 9.72671 0.252106 10.5039V15.6221C0.252106 16.4506 0.923676 17.1221 1.7521 17.1221H9.05122C10.1743 18.3923 11.8161 19.1931 13.6449 19.1931C17.0303 19.1931 19.7747 16.4487 19.7747 13.0633C19.7747 10.6147 18.339 8.50146 16.2634 7.51942V3.36719C16.2634 2.53877 15.5918 1.86719 14.7634 1.86719H3.10031ZM15.2634 7.14953V3.36719C15.2634 3.09105 15.0395 2.86719 14.7634 2.86719H3.10031C2.82417 2.86719 2.60031 3.09105 2.60031 3.36719V9.00377H3.15292V3.96484H5.79236H6.79239H8.43182H9.43183H11.0713H12.0713H14.7107V7.02592C14.898 7.05876 15.0824 7.1001 15.2634 7.14953ZM13.7107 6.93394V4.96484H12.0713V7.13745C12.5735 7.00446 13.1009 6.93359 13.6449 6.93359C13.6669 6.93359 13.6888 6.93371 13.7107 6.93394ZM11.0713 7.49841V4.96484H9.43182L9.43183 8.61091C9.91152 8.15685 10.4645 7.77947 11.0713 7.49841ZM8.3317 10.0045H5.79236V10.0045H3.15292V10.0039H1.75211C1.47596 10.0039 1.25211 10.2278 1.25211 10.5039V15.6221C1.25211 15.8983 1.47596 16.1221 1.7521 16.1221H8.33162C7.81228 15.2219 7.51514 14.1773 7.51514 13.0633C7.51514 11.9493 7.81231 10.9047 8.3317 10.0045ZM8.43183 4.96484V9.00377H6.79239V4.96484H8.43183ZM5.79236 4.96484H4.15292V9.00377H5.79236V4.96484ZM18.7747 13.0633C18.7747 15.8964 16.478 18.1931 13.6449 18.1931C10.8118 18.1931 8.51514 15.8964 8.51514 13.0633C8.51514 10.2302 10.8118 7.93359 13.6449 7.93359C16.478 7.93359 18.7747 10.2302 18.7747 13.0633ZM14.455 10.2226C14.6503 10.0273 14.9669 10.0273 15.1621 10.2226L16.6376 11.698C16.7806 11.841 16.8234 12.0561 16.746 12.2429C16.6686 12.4298 16.4863 12.5516 16.284 12.5516H11.0631C10.787 12.5516 10.5631 12.3277 10.5631 12.0516C10.5631 11.7754 10.787 11.5516 11.0631 11.5516H15.0769L14.455 10.9297C14.2598 10.7344 14.2598 10.4178 14.455 10.2226ZM12.1276 15.9053C12.3229 16.1005 12.6395 16.1005 12.8347 15.9053C13.03 15.71 13.03 15.3934 12.8347 15.1982L12.2128 14.5762H16.2266C16.5028 14.5762 16.7266 14.3524 16.7266 14.0762C16.7266 13.8001 16.5028 13.5762 16.2266 13.5762H11.0057C10.8035 13.5762 10.6212 13.6981 10.5438 13.8849C10.4664 14.0717 10.5092 14.2868 10.6522 14.4298L12.1276 15.9053Z" fill="#262E30"/>
</svg>
