<svg width="23" height="21" viewBox="0 0 23 21" fill="none" xmlns="http://www.w3.org/2000/svg">
<path d="M10.4954 11.4008L10.71 11.8524L10.9954 11.7168V11.4008H10.4954ZM14.376 11.4006H13.876V11.7167L14.1615 11.8523L14.376 11.4006ZM10.9954 2.557C10.9954 1.76154 11.6402 1.1167 12.4357 1.1167V0.116699C11.088 0.116699 9.99539 1.20926 9.99539 2.557H10.9954ZM10.9954 11.4008V2.557H9.99539V11.4008H10.9954ZM8.40845 15.4924C8.40845 13.8866 9.34821 12.4993 10.71 11.8524L10.2808 10.9491C8.58358 11.7555 7.40845 13.4862 7.40845 15.4924H8.40845ZM12.4358 19.5198C10.2116 19.5198 8.40845 17.7166 8.40845 15.4924H7.40845C7.40845 18.2689 9.65928 20.5198 12.4358 20.5198V19.5198ZM16.4632 15.4924C16.4632 17.7166 14.6601 19.5198 12.4358 19.5198V20.5198C15.2124 20.5198 17.4632 18.2689 17.4632 15.4924H16.4632ZM14.1615 11.8523C15.5233 12.4992 16.4632 13.8865 16.4632 15.4924H17.4632C17.4632 13.4861 16.2879 11.7553 14.5905 10.949L14.1615 11.8523ZM13.876 2.557V11.4006H14.876V2.557H13.876ZM12.4357 1.1167C13.2311 1.1167 13.876 1.76154 13.876 2.557H14.876C14.876 1.20926 13.7834 0.116699 12.4357 0.116699V1.1167Z" fill="#898989"/>
<path d="M0.944021 10.1012C0.944021 8.64598 3.03167 3.99825 3.63682 3.99829C4.24197 3.99833 6.2389 8.8537 6.2389 10.1012C6.2389 11.3488 5.44505 13.0752 3.63682 13.0752C1.82859 13.0752 0.944021 11.5565 0.944021 10.1012Z" stroke="#898989"/>
<path d="M2.67121 9.36085C2.5877 9.82465 2.63803 10.87 3.50739 11.341" stroke="#898989" stroke-linecap="round"/>
<path fill-rule="evenodd" clip-rule="evenodd" d="M11.7917 12.987L11.7917 3.20396C11.7917 2.84676 12.0813 2.55719 12.4385 2.55719C12.7957 2.55719 13.0853 2.84676 13.0853 3.20396L13.0853 12.9871C14.201 13.2744 15.0254 14.2873 15.0254 15.4927C15.0254 16.9215 13.8671 18.0797 12.4383 18.0797C11.0095 18.0797 9.85125 16.9215 9.85125 15.4927C9.85125 14.2871 10.6758 13.2742 11.7917 12.987Z" fill="#C2C2C2"/>
<path fill-rule="evenodd" clip-rule="evenodd" d="M11.7918 12.9866L11.7917 10.4389C11.7917 10.0817 12.0813 9.79208 12.4385 9.79208C12.7957 9.79208 13.0853 10.0817 13.0853 10.4389L13.0853 12.9867C14.201 13.2739 15.0254 14.2868 15.0254 15.4922C15.0254 16.921 13.8671 18.0793 12.4383 18.0793C11.0095 18.0793 9.85125 16.921 9.85125 15.4922C9.85125 14.2867 10.6758 13.2737 11.7918 12.9866Z" fill="#009688"/>
<path d="M22.35 18.0794H19.1786" stroke="#009688" stroke-linecap="round"/>
<path d="M22.35 14.199H19.7071" stroke="#009688" stroke-linecap="round"/>
<path d="M22.35 10.318L18.65 10.318" stroke="#009688" stroke-linecap="round"/>
<path d="M22.35 6.43759L18.65 6.43759" stroke="#C2C2C2" stroke-linecap="round"/>
<path d="M22.35 2.55719H18.65" stroke="#C2C2C2" stroke-linecap="round"/>
</svg>
