<svg width="20" height="20" viewBox="0 0 20 20" fill="none" xmlns="http://www.w3.org/2000/svg">
<path fill-rule="evenodd" clip-rule="evenodd" d="M1.60031 3.36816C1.60031 2.53974 2.27188 1.86816 3.10031 1.86816H14.7634C15.5918 1.86816 16.2634 2.53974 16.2634 3.36816V10.0047H1.60031V3.36816ZM3.10031 2.86816C2.82417 2.86816 2.60031 3.09202 2.60031 3.36816V9.00474H15.2634V3.36816C15.2634 3.09202 15.0395 2.86816 14.7634 2.86816H3.10031Z" fill="#262E30"/>
<path fill-rule="evenodd" clip-rule="evenodd" d="M0.252106 10.5047C0.252106 9.6763 0.923678 9.00473 1.75211 9.00473H15.9972C16.8256 9.00473 17.4972 9.6763 17.4972 10.5047V15.6229C17.4972 16.4514 16.8256 17.1229 15.9972 17.1229H1.7521C0.923676 17.1229 0.252106 16.4514 0.252106 15.6229V10.5047ZM1.75211 10.0047C1.47596 10.0047 1.25211 10.2286 1.25211 10.5047V15.6229C1.25211 15.8991 1.47596 16.1229 1.7521 16.1229H15.9972C16.2733 16.1229 16.4972 15.8991 16.4972 15.6229V10.5047C16.4972 10.2286 16.2734 10.0047 15.9972 10.0047H1.75211Z" fill="#262E30"/>
<path fill-rule="evenodd" clip-rule="evenodd" d="M3.15292 3.96497H6.79239V10.0046H3.15292V3.96497ZM4.15292 4.96497V9.00458H5.79239V4.96497H4.15292Z" fill="#262E30"/>
<path fill-rule="evenodd" clip-rule="evenodd" d="M5.79236 3.96484H9.43183V10.0045H5.79236V3.96484ZM6.79236 4.96484V9.00446H8.43183V4.96484H6.79236Z" fill="#262E30"/>
<path fill-rule="evenodd" clip-rule="evenodd" d="M8.43182 3.96484H12.0713V10.0045H8.43182V3.96484ZM9.43182 4.96484V9.00446H11.0713V4.96484H9.43182Z" fill="#262E30"/>
<path fill-rule="evenodd" clip-rule="evenodd" d="M11.0713 3.9649H14.7107V10.0045H11.0713V3.9649ZM12.0713 4.9649V9.00452H13.7107V4.9649H12.0713Z" fill="#262E30"/>
<path d="M19.7747 13.0638C19.7747 16.4492 17.0303 19.1936 13.6449 19.1936C10.2595 19.1936 7.51514 16.4492 7.51514 13.0638C7.51514 9.67844 10.2595 6.93405 13.6449 6.93405C17.0303 6.93405 19.7747 9.67844 19.7747 13.0638Z" fill="#F5F5F5"/>
<path fill-rule="evenodd" clip-rule="evenodd" d="M13.6449 18.1936C16.478 18.1936 18.7747 15.8969 18.7747 13.0638C18.7747 10.2307 16.478 7.93405 13.6449 7.93405C10.8118 7.93405 8.51514 10.2307 8.51514 13.0638C8.51514 15.8969 10.8118 18.1936 13.6449 18.1936ZM13.6449 19.1936C17.0303 19.1936 19.7747 16.4492 19.7747 13.0638C19.7747 9.67844 17.0303 6.93405 13.6449 6.93405C10.2595 6.93405 7.51514 9.67844 7.51514 13.0638C7.51514 16.4492 10.2595 19.1936 13.6449 19.1936Z" fill="#262E30"/>
<path fill-rule="evenodd" clip-rule="evenodd" d="M14.455 10.2222C14.6503 10.0269 14.9669 10.0269 15.1621 10.2222L16.6376 11.6976C16.7806 11.8406 16.8234 12.0557 16.746 12.2425C16.6686 12.4294 16.4863 12.5512 16.284 12.5512H11.0631C10.787 12.5512 10.5631 12.3273 10.5631 12.0512C10.5631 11.775 10.787 11.5512 11.0631 11.5512H15.0769L14.455 10.9293C14.2598 10.734 14.2598 10.4174 14.455 10.2222Z" fill="#262E30"/>
<path fill-rule="evenodd" clip-rule="evenodd" d="M12.8347 15.9055C12.6395 16.1007 12.3229 16.1007 12.1276 15.9055L10.6522 14.43C10.5092 14.287 10.4664 14.0719 10.5438 13.8851C10.6212 13.6983 10.8035 13.5764 11.0057 13.5764L16.2266 13.5764C16.5028 13.5764 16.7266 13.8003 16.7266 14.0764C16.7266 14.3526 16.5028 14.5764 16.2266 14.5764L12.2128 14.5764L12.8347 15.1984C13.03 15.3936 13.03 15.7102 12.8347 15.9055Z" fill="#262E30"/>
</svg>
