<svg width="20" height="18" viewBox="0 0 20 18" fill="none" xmlns="http://www.w3.org/2000/svg">
<path d="M8.95446 9.80239L9.169 10.254L9.45446 10.1184V9.80239H8.95446ZM12.2403 9.80239H11.7403V10.1184L12.0257 10.254L12.2403 9.80239ZM9.45446 2.31423C9.45446 1.68302 9.96615 1.17133 10.5974 1.17133V0.171329C9.41387 0.171329 8.45446 1.13074 8.45446 2.31423H9.45446ZM9.45446 9.80239V2.31423H8.45446V9.80239H9.45446ZM7.26392 13.2669C7.26392 11.9379 8.04164 10.7896 9.169 10.254L8.73991 9.35076C7.27702 10.0457 6.26392 11.5375 6.26392 13.2669H7.26392ZM10.5974 16.6004C8.75635 16.6004 7.26392 15.1079 7.26392 13.2669H6.26392C6.26392 15.6602 8.20407 17.6004 10.5974 17.6004V16.6004ZM13.9308 13.2669C13.9308 15.1079 12.4384 16.6004 10.5974 16.6004V17.6004C12.9907 17.6004 14.9308 15.6602 14.9308 13.2669H13.9308ZM12.0257 10.254C13.1531 10.7896 13.9308 11.9379 13.9308 13.2669H14.9308C14.9308 11.5375 13.9177 10.0457 12.4548 9.35076L12.0257 10.254ZM11.7403 2.31423V9.80239H12.7403V2.31423H11.7403ZM10.5974 1.17133C11.2286 1.17133 11.7403 1.68302 11.7403 2.31423H12.7403C12.7403 1.13074 11.7809 0.171329 10.5974 0.171329V1.17133Z" fill="#898989"/>
<path d="M0.867188 8.70227C0.867188 7.47007 2.63486 3.53471 3.14725 3.53474C3.65965 3.53477 5.3505 7.64594 5.3505 8.70227C5.3505 9.7586 4.67833 11.2204 3.14725 11.2204C1.61618 11.2204 0.867188 9.93448 0.867188 8.70227Z" stroke="#898989"/>
<path d="M2.32962 8.0752C2.25892 8.46791 2.30153 9.35302 3.03765 9.75181" stroke="#898989" stroke-linecap="round"/>
<path fill-rule="evenodd" clip-rule="evenodd" d="M11.1434 11.1454C12.0882 11.3886 12.7863 12.2462 12.7863 13.267C12.7863 14.4768 11.8055 15.4575 10.5957 15.4575C9.38593 15.4575 8.4052 14.4768 8.4052 13.267C8.4052 12.2462 9.10331 11.3886 10.0481 11.1454L10.0481 2.86189C10.0481 2.55944 10.2933 2.31425 10.5957 2.31425C10.8982 2.31425 11.1434 2.55944 11.1434 2.86189L11.1434 11.1454Z" fill="#D01B1B"/>
<path d="M18.9883 15.4575H16.303" stroke="#898989" stroke-linecap="round"/>
<path d="M18.9883 12.1717H16.7506" stroke="#C2C2C2" stroke-linecap="round"/>
<path d="M18.9883 8.88588L15.8555 8.88588" stroke="#C2C2C2" stroke-linecap="round"/>
<path d="M18.9883 5.60007L15.8555 5.60007" stroke="#C2C2C2" stroke-linecap="round"/>
<path d="M18.9883 2.31426H15.8555" stroke="#C2C2C2" stroke-linecap="round"/>
</svg>
