<svg width="54" height="33" viewBox="0 0 54 33" fill="none" xmlns="http://www.w3.org/2000/svg">
<rect width="50" height="30" rx="4.63896" fill="#EA4E38"/>
<path d="M0 19H50V25.361C50 27.9231 47.9231 30 45.361 30H4.63896C2.07693 30 0 27.9231 0 25.361V19Z" fill="#C041C2"/>
<path d="M16.0526 4.96415C16.6934 4.96415 17.2649 5.08971 17.7672 5.34084C18.2781 5.59196 18.6764 5.94266 18.9622 6.39295C19.2479 6.83458 19.3908 7.34116 19.3908 7.91268C19.3908 8.4842 19.2479 8.9951 18.9622 9.44539C18.6851 9.88702 18.2911 10.2334 17.7801 10.4845C17.2779 10.727 16.7021 10.8482 16.0526 10.8482H14.2861V14.4722H13.1301V4.96415H16.0526ZM15.9097 9.83506C16.6371 9.83506 17.1956 9.65754 17.5853 9.30251C17.975 8.93881 18.1698 8.47554 18.1698 7.91268C18.1698 7.34982 17.975 6.88654 17.5853 6.52284C17.1956 6.15915 16.6371 5.9773 15.9097 5.9773H14.2861V9.83506H15.9097ZM20.8423 4.96415H21.9984V13.433H26.6874V14.4722H20.8423V4.96415ZM31.7844 4.96415L35.6032 14.4722H34.3173L33.2652 11.7445H29.3295L28.3293 14.4722H27.1603L30.8102 4.96415H31.7844ZM32.8625 10.7053L31.2519 6.50985L29.7192 10.7053H32.8625Z" fill="white"/>
<path d="M21.3664 20.7625L24.0941 27.554H23.0086L22.3128 25.7355H19.5572L18.8892 27.554H17.8872L20.5129 20.7625H21.3664ZM21.9788 24.8634L20.9025 22.0614L19.882 24.8634H21.9788ZM25.0369 22.9057V21.913L27.0502 20.7532H27.8203V27.554H26.809V21.9037L25.0369 22.9057Z" fill="white"/>
</svg>
