<svg width="30" height="30" xmlns="http://www.w3.org/2000/svg" fill="none">
 <defs>
  <clipPath id="clip0_7112_29362">
   <rect id="svg_1" fill="white" height="30" width="30"/>
  </clipPath>
 </defs>
 <g>
  <title>Layer 1</title>
  <g id="svg_2" clip-path="url(#clip0_7112_29362)">
   <path id="svg_3" stroke="black" d="m31.1539,-1.15234l-32.30771,0l0,32.30764l32.30771,0l0,-32.30764z"/>
   <path id="svg_4" fill="#6B6B6B" d="m22.2754,10.1387c0.9615,1.439 1.4747,3.1307 1.4747,4.8613l-2.49,0c-0.219,0 -0.3396,0.2544 -0.201,0.4239l3.5682,4.3626c0.1039,0.127 0.2981,0.127 0.4019,0l3.5682,-4.3626c0.1387,-0.1695 0.0181,-0.4239 -0.2009,-0.4239l-2.3965,0c0,-0.5037 -0.0346,-1.0048 -0.1027,-1.5c-0.2263,-1.6434 -0.8223,-3.2212 -1.7511,-4.61127c-1.2087,-1.80894 -2.9267,-3.21884 -4.9367,-4.0514c-2.01,-0.83256 -4.2217,-1.0504 -6.3555,-0.62596c-2.1338,0.42443 -4.09379,1.47208 -5.63217,3.01046c-1.53838,1.53838 -2.58603,3.49837 -3.01046,5.63217c-0.42444,2.1338 -0.2066,4.3455 0.62596,6.3555c0.83256,2.01 2.24246,3.728 4.0514,4.9367c1.39007,0.9288 2.96787,1.5248 4.61127,1.7511c0.4952,0.0681 0.9963,0.1027 1.5,0.1027l0,-0.7499l0,-0.7501l0,-0.7499c-1.7306,0 -3.4223,-0.5132 -4.8613,-1.4747c-1.43891,-0.9615 -2.56043,-2.328 -3.2227,-3.9269c-0.66227,-1.5989 -0.83555,-3.3582 -0.49793,-5.0555c0.33762,-1.6974 1.17099,-3.2565 2.3947,-4.48023c1.22373,-1.22371 2.78283,-2.05708 4.48023,-2.3947c1.6973,-0.33762 3.4566,-0.16434 5.0555,0.49793c1.5989,0.66227 2.9654,1.78379 3.9269,3.2227z" clip-rule="evenodd" fill-rule="evenodd"/>
  </g>
 </g>
</svg>