<svg width="328" height="130" viewBox="0 0 328 130" fill="none" xmlns="http://www.w3.org/2000/svg">
<path fill-rule="evenodd" clip-rule="evenodd" d="M4 0C1.79086 0 0 1.79086 0 4V126C0 128.209 1.79086 130 4 130H324C326.209 130 328 128.209 328 126V4C328 1.79086 326.209 0 324 0H4ZM6 2C3.79086 2 2 3.79086 2 6V98C2 100.209 3.79086 102 6 102H322C324.209 102 326 100.209 326 98V6C326 3.79086 324.209 2 322 2H6Z" fill="#595959"/>
<circle cx="164" cy="114" r="10" fill="#D9D9D9"/>
<path fill-rule="evenodd" clip-rule="evenodd" d="M164.349 112.484V110H168L168.001 113.597L164.349 112.484ZM167.998 118H164.346V113.033L167.998 114.145L167.998 118ZM160 110V114.967L163.652 113.855L163.651 110H160ZM163.651 117.999H160V115.516L163.652 114.402L163.651 117.999Z" fill="#545454"/>
</svg>
