<svg xmlns="http://www.w3.org/2000/svg" width="24" height="24" viewBox="0 0 24 24"><ellipse cx="20.5" cy="18.5" rx="1" ry="3.5" style="fill:none;stroke:#009688;stroke-linecap:round;stroke-linejoin:round"/><path d="M16.5,21.5c-.552,0-1-1.58-1-3s.448-3,1-3" style="fill:none;stroke:#009688;stroke-linecap:round;stroke-linejoin:round"/><path d="M18.5,21.5c-.552,0-1-1.58-1-3s.448-3,1-3" style="fill:none;stroke:#009688;stroke-linecap:round;stroke-linejoin:round"/><path d="M14.5,22c-.552,0-1-1.843-1-3.5s.448-3.5,1-3.5" style="fill:none;stroke:#009688;stroke-linecap:round;stroke-linejoin:round"/><circle cx="11.5" cy="10.5" r="3" style="fill:none;stroke:#009688;stroke-linecap:round;stroke-linejoin:round"/><path d="M20.914,11.556l.316-.57a1,1,0,0,0,0-.972l-4.444-8a1,1,0,0,0-.874-.514H7.088a1,1,0,0,0-.874.514l-4.444,8a1,1,0,0,0,0,.972l4.444,8a1,1,0,0,0,.874.514H10.5" style="fill:none;stroke:#009688;stroke-linecap:round;stroke-linejoin:round"/></svg>