<svg width="230" height="82" viewBox="0 0 230 82" fill="none" xmlns="http://www.w3.org/2000/svg">
<path fill-rule="evenodd" clip-rule="evenodd" d="M2.80488 0C1.25579 0 0 1.07452 0 2.4V79.6C0 80.9254 1.25579 82 2.80488 82H227.195C228.744 82 230 80.9254 230 79.6V2.4C230 1.07452 228.744 0 227.195 0H2.80488ZM4.20732 1.2C2.65822 1.2 1.40244 2.27452 1.40244 3.6V62.8C1.40244 64.1254 2.65822 65.2 4.20732 65.2H225.793C227.342 65.2 228.598 64.1254 228.598 62.8V3.6C228.598 2.27452 227.342 1.2 225.793 1.2H4.20732Z" fill="#AAAAAA"/>
</svg>
