<svg xmlns="http://www.w3.org/2000/svg" width="18" height="18" viewBox="0 0 18 18"><path d="M5.5,15.5h-3a1,1,0,0,1-1-1v-6a1,1,0,0,1,1-1" style="fill:none;stroke:#949494;stroke-linecap:round;stroke-linejoin:round"/><line x1="4.5" y1="3.5" x2="4.5" y2="7.5" style="fill:none;stroke:#009688;stroke-linecap:round;stroke-linejoin:round"/><line x1="6.5" y1="3.5" x2="6.5" y2="6.5" style="fill:none;stroke:#009688;stroke-linecap:round;stroke-linejoin:round"/><line x1="8.5" y1="3.5" x2="8.5" y2="6" style="fill:none;stroke:#009688;stroke-linecap:round;stroke-linejoin:round"/><line x1="10.5" y1="3.5" x2="10.5" y2="5.5" style="fill:none;stroke:#009688;stroke-linecap:round;stroke-linejoin:round"/><line x1="12.5" y1="3.5" x2="12.5" y2="5.5" style="fill:none;stroke:#009688;stroke-linecap:round;stroke-linejoin:round"/><path d="M5.5,7.5h-3v-5a1,1,0,0,1,1-1h10a1,1,0,0,1,1,1v3" style="fill:none;stroke:#949494;stroke-linecap:round;stroke-linejoin:round"/><circle cx="11.5" cy="11.5" r="4" style="fill:none;stroke:#009688;stroke-linecap:round;stroke-linejoin:round"/><polyline points="12.5 9.5 13.5 10.5 9.5 10.5" style="fill:none;stroke:#009688;stroke-linecap:round;stroke-linejoin:round"/><polyline points="13.5 12.5 9.5 12.5 10.5 13.5" style="fill:none;stroke:#009688;stroke-linecap:square;stroke-linejoin:round"/></svg>