<svg width="20" height="20" viewBox="0 0 20 20" fill="none" xmlns="http://www.w3.org/2000/svg">
<path d="M1.64645 5.64645C1.45118 5.84171 1.45118 6.15829 1.64645 6.35355L4.82843 9.53553C5.02369 9.7308 5.34027 9.7308 5.53553 9.53553C5.7308 9.34027 5.7308 9.02369 5.53553 8.82843L2.70711 6L5.53553 3.17157C5.7308 2.97631 5.7308 2.65973 5.53553 2.46447C5.34027 2.2692 5.02369 2.2692 4.82843 2.46447L1.64645 5.64645ZM10 16.5769C9.72386 16.5769 9.5 16.8008 9.5 17.0769C9.5 17.3531 9.72386 17.5769 10 17.5769V16.5769ZM2 6.5H12.4615V5.5H2V6.5ZM12.4615 16.5769H10V17.5769H12.4615V16.5769ZM17.5 11.5385C17.5 14.3211 15.2442 16.5769 12.4615 16.5769V17.5769C15.7965 17.5769 18.5 14.8734 18.5 11.5385H17.5ZM12.4615 6.5C15.2442 6.5 17.5 8.7558 17.5 11.5385H18.5C18.5 8.20351 15.7965 5.5 12.4615 5.5V6.5Z" fill="white"/>
</svg>
