<svg width="16" height="16" viewBox="0 0 16 16" fill="none" xmlns="http://www.w3.org/2000/svg">
<path d="M3.01408 12.9725C2.51708 12.4755 2.10241 11.9146 1.77795 11.3056C1.54229 10.8633 1.83193 10.3344 2.31189 10.277L2.3985 10.2719L3.88612 10.2719C4.27445 10.2719 4.58925 10.5867 4.58925 10.975C4.58925 11.1406 4.532 11.2928 4.43621 11.413L4.06445 11.9376L4.62695 12.5001C6.83366 14.2175 9.93507 14.0064 11.9634 11.9781C12.8323 11.1091 13.3576 10.0266 13.5391 8.89953L13.5491 8.83172L13.5676 8.67485C13.6064 8.29176 13.929 8.00026 14.3141 8.00026C14.6821 8.00026 14.9805 8.29862 14.9805 8.66667L14.9779 8.72492L14.964 8.86406C14.9615 8.88538 14.959 8.90576 14.9565 8.9252C14.7612 10.4053 14.095 11.8352 12.9578 12.9725C10.2119 15.7183 5.75996 15.7183 3.01408 12.9725Z" fill="#eb4949"/>
<path d="M12.9928 3.02786C13.4898 3.52487 13.9045 4.08571 14.2289 4.69469C14.4646 5.13702 14.175 5.66592 13.695 5.72332L13.6084 5.72844L11.927 5.76616C11.5387 5.76616 11.2239 5.45136 11.2239 5.06303C11.2239 4.89744 11.2812 4.74521 11.377 4.62506L11.9395 4.06256L11.4705 3.55584C9.26381 1.83844 6.07183 1.9939 4.0435 4.02223C3.17082 4.89491 2.64483 5.983 2.46553 7.11534L2.44469 7.27231C2.44144 7.30131 2.4383 7.33173 2.43527 7.36357C2.4009 7.72445 2.09782 8.00006 1.73531 8.00006L1.69285 8.00006C1.32492 8.00006 1.02665 7.70179 1.02665 7.33386L1.02917 7.27584L1.05203 7.06323C1.24928 5.58734 1.91493 4.16206 3.04913 3.02786C5.79501 0.28199 10.2469 0.28199 12.9928 3.02786Z" fill="#eb4949"/>
<path d="M8.49859 4.5L11 10.5H9.69859L9.15775 9.13115H6.7493L6.22535 10.5H5L7.42535 4.5H8.49859ZM8.76056 8.11475L7.93239 6.0082L7.12958 8.11475H8.76056Z" fill="#eb4949"/>
</svg>
