<svg width="16" height="17" xmlns="http://www.w3.org/2000/svg" fill="none">

 <g>
  <title>Layer 1</title>
  <path id="svg_1" fill="#6B6B6B" d="m2.04297,1.22656l11.91403,0c0.5523,0 1,0.44772 1,1l0,2.04802c-3.8286,0.32885 -7.12277,2.52842 -8.96405,5.68038c-0.56041,-0.19867 -1.16342,-0.30672 -1.79095,-0.30672c-1.18116,0 -2.2734,0.38246 -3.15903,1.02976l0,-8.45144c0,-0.55228 0.44771,-1 1,-1zm3.47805,9.62464c-0.41577,-0.1318 -0.85879,-0.203 -1.31902,-0.203c-1.24322,0 -2.36433,0.5199 -3.15903,1.3555l0,2.1369c0,0.5523 0.44771,1 1,1l2.39917,0c0.08124,-1.5276 0.45981,-2.9764 1.07888,-4.2894zm-0.0773,4.2894l8.51328,0c0.5523,0 1,-0.4477 1,-1l0,-8.86195c-5.14325,0.48427 -9.21057,4.6678 -9.51328,9.86195zm-5.40075,-12.91404c0,-1.10457 0.89543,-2 2,-2l11.91403,0c1.1046,0 2,0.89543 2,2l0,11.91404c0,1.1046 -0.8954,2 -2,2l-11.91403,0c-1.10457,0 -2,-0.8954 -2,-2l0,-11.91404zm5.52315,2.50474c0,0.44488 -0.36065,0.80552 -0.80552,0.80552c-0.44488,0 -0.80552,-0.36064 -0.80552,-0.80552c0,-0.44488 0.36064,-0.80552 0.80552,-0.80552c0.44487,0 0.80552,0.36064 0.80552,0.80552zm1,0c0,0.99716 -0.80836,1.80552 -1.80552,1.80552c-0.99716,0 -1.80552,-0.80836 -1.80552,-1.80552c0,-0.99716 0.80836,-1.80552 1.80552,-1.80552c0.99716,0 1.80552,0.80836 1.80552,1.80552z" clip-rule="evenodd" fill-rule="evenodd"/>
 </g>
</svg>