<svg width="95" height="92" xmlns="http://www.w3.org/2000/svg" data-name="图层 1">

 <g>
  <title>Layer 1</title>
  <path fill-rule="evenodd" fill="#20e86a" d="m90.53,44.88c-0.4,-11.48 -5.07,-22.4 -13.09,-30.55c-8.4,-8.54 -19.79,-13.33 -31.66,-13.33s-23.27,4.79 -31.67,13.33c-5.02,5.11 -8.72,11.3 -10.89,18.04l3.9,0.32c2.02,-5.82 5.3,-11.18 9.67,-15.63c7.68,-7.81 18.11,-12.19 28.97,-12.19s21.29,4.39 28.97,12.19c7.31,7.43 11.57,17.37 11.97,27.82l-3.51,0l5.4,7.12l5.4,-7.12l-3.47,0l0.01,0z" class="cls-1" id="path2"/>
  <path fill-rule="evenodd" fill="#20e86a" d="m87.87,59.31c-2.02,5.82 -5.3,11.18 -9.67,15.63c-7.68,7.81 -18.11,12.19 -28.97,12.19s-21.29,-4.39 -28.97,-12.19c-7.31,-7.43 -11.57,-17.37 -11.97,-27.82l3.51,0l-5.4,-7.12l-5.4,7.12l3.47,0c0.4,11.48 5.07,22.4 13.09,30.55c8.4,8.53 19.79,13.33 31.66,13.33s23.26,-4.79 31.66,-13.33c5.02,-5.11 8.72,-11.3 10.89,-18.04l-3.9,-0.32z" class="cls-1" id="path1"/>
 </g>
</svg>