<svg width="162" height="162" viewBox="0 0 162 162" fill="none" xmlns="http://www.w3.org/2000/svg">
<circle cx="81" cy="81" r="81" fill="white"/>
<path fill-rule="evenodd" clip-rule="evenodd" d="M161.375 70.875C161.789 74.1919 162 77.5713 162 81H151.875V70.875H161.375ZM156.113 50.625C157.438 53.8989 158.555 57.2793 159.449 60.75H151.875V50.625H156.113ZM151.875 41.7559V50.625H141.75V40.5H151.164C151.406 40.9165 151.641 41.335 151.875 41.7559ZM101.25 2.55176C104.719 3.44482 108.102 4.56299 111.375 5.88818V10.125H101.25V2.55176ZM60.75 2.55176C64.0469 1.70264 67.4297 1.05615 70.875 0.626465V10.125H60.75V2.55176ZM0.625 70.875C1.05469 67.4282 1.70312 64.0483 2.55078 60.75H10.125V70.875H0.625ZM0.625 91.125C0.210938 87.8081 0 84.4287 0 81H10.125V91.125H0.625ZM5.88672 111.375C4.5625 108.101 3.44531 104.721 2.55078 101.25H10.125V111.375H5.88672ZM10.125 120.244V111.375H20.25V121.5H10.8359C10.5938 121.083 10.3594 120.665 10.125 120.244ZM60.75 159.448C57.2812 158.555 53.8984 157.437 50.625 156.112V151.875H60.75V159.448ZM101.25 159.448C97.9531 160.297 94.5703 160.944 91.125 161.374V151.875H101.25V159.448ZM161.375 91.125C160.945 94.5718 160.297 97.9517 159.449 101.25H151.875V91.125H161.375ZM141.75 91.125V81H151.875V91.125H141.75ZM141.75 101.25V91.125H131.625V81H141.75V70.875H151.875V60.75H141.75V50.625H131.625V40.5H141.75V30.375H144.234C143.43 29.3711 142.602 28.3862 141.75 27.4224V30.375H131.625V20.25H134.578C133.613 19.3989 132.629 18.5708 131.625 17.7661V20.25H121.5V10.8364C121.082 10.5957 120.668 10.3584 120.246 10.125H111.375V20.25H101.25V10.125H91.125V0.626465C87.8086 0.212891 84.4297 0 81 0V10.125H70.875V20.25H60.75V10.125H50.625V5.88818C47.5703 7.12402 44.6094 8.54053 41.7539 10.125H50.625V20.25H40.5V10.8364C36.9453 12.8926 33.5625 15.2114 30.375 17.7661V20.25H27.4219C24.8828 22.4893 22.4883 24.8853 20.25 27.4224V30.375H17.7656C15.2109 33.5615 12.8906 36.9453 10.8359 40.5H20.25V50.625H10.125V41.7559C8.53906 44.6108 7.12109 47.5718 5.88672 50.625H10.125V60.75H20.25V70.875H10.125V81H20.25V91.125H10.125V101.25H20.25V111.375H30.375V121.5H20.25V131.625H17.7656C18.5703 132.629 19.3984 133.614 20.25 134.578V131.625H30.375V141.75H27.4219C28.3867 142.601 29.3711 143.429 30.375 144.234V141.75H40.5V151.164C40.918 151.404 41.332 151.642 41.7539 151.875H50.625V141.75H60.75V151.875H70.875V161.374C74.1914 161.787 77.5703 162 81 162V151.875H91.125V141.75H101.25V151.875H111.375V156.112C114.43 154.876 117.391 153.459 120.246 151.875H111.375V141.75H121.5V151.164C125.055 149.107 128.438 146.789 131.625 144.234V141.75H134.578C137.117 139.511 139.512 137.115 141.75 134.578V131.625H144.234C146.789 128.438 149.109 125.055 151.164 121.5H141.75V111.375H151.875V120.244C153.461 117.389 154.879 114.428 156.113 111.375H151.875V101.25H141.75ZM131.625 101.25H141.75V111.375H131.625V101.25ZM121.5 101.25H131.625V91.125H121.5V81H131.625V70.875H141.75V60.75H131.625V50.625H121.5V40.5H131.625V30.375H121.5V20.25H111.375V30.375H101.25V20.25H91.125V10.125H81V20.25H70.875V30.375H60.75V20.25H50.625V30.375H40.5V20.25H30.375V30.375H20.25V40.5H30.375V50.625H20.25V60.75H30.375V70.875H20.25V81H30.375V91.125H20.25V101.25H30.375V111.375H40.5V121.5H30.375V131.625H40.5V141.75H50.625V131.625H60.75V141.75H70.875V151.875H81V141.75H91.125V131.625H101.25V141.75H111.375V131.625H121.5V141.75H131.625V131.625H141.75V121.5H131.625V111.375H121.5V101.25ZM111.375 101.25H121.5V91.125H111.375V81H121.5V70.875H131.625V60.75H121.5V50.625H111.375V40.5H121.5V30.375H111.375V40.5H101.25V30.375H91.125V20.25H81V30.375H70.875V40.5H60.75V30.375H50.625V40.5H40.5V30.375H30.375V40.5H40.5V50.625H30.375V60.75H40.5V70.875H30.375V81H40.5V91.125H30.375V101.25H40.5V111.375H50.625V121.5H40.5V131.625H50.625V121.5H60.75V131.625H70.875V141.75H81V131.625H91.125V121.5H101.25V131.625H111.375V121.5H121.5V131.625H131.625V121.5H121.5V111.375H111.375V101.25ZM101.25 101.25H111.375V91.125H101.25V81H111.375V70.875H121.5V60.75H111.375V50.625H101.25V40.5H91.125V30.375H81V40.5H70.875V50.625H60.75V40.5H50.625V50.625H40.5V60.75H50.625V70.875H40.5V81H50.625V91.125H40.5V101.25H50.625V111.375H60.75V121.5H70.875V131.625H81V121.5H91.125V111.375H101.25V121.5H111.375V111.375H101.25V101.25ZM91.125 101.25H101.25V91.125H91.125V81H101.25V70.875H111.375V60.75H101.25V50.625H91.125V40.5H81V50.625H70.875V60.75H60.75V50.625H50.625V60.75H60.75V70.875H50.625V81H60.75V91.125H50.625V101.25H60.75V111.375H70.875V121.5H81V111.375H91.125V101.25ZM81 101.25H91.125V91.125H81V81H91.125V70.875H101.25V60.75H91.125V50.625H81V60.75H70.875V70.875H60.75V81H70.875V91.125H60.75V101.25H70.875V111.375H81V101.25ZM81 101.25H70.875V91.125H81V101.25ZM81 70.875H91.125V60.75H81V70.875ZM81 70.875H70.875V81H81V70.875Z" fill="#D9D9D9"/>
</svg>
