<?xml version="1.0" encoding="UTF-8" standalone="no"?>
<svg
   width="562"
   height="238"
   viewBox="0 0 562 238"
   fill="none"
   version="1.1"
   id="svg526"
   sodipodi:docname="BambuStudio_about.svg"
   inkscape:version="1.2.2 (732a01da63, 2022-12-09)"
   xmlns:inkscape="http://www.inkscape.org/namespaces/inkscape"
   xmlns:sodipodi="http://sodipodi.sourceforge.net/DTD/sodipodi-0.dtd"
   xmlns="http://www.w3.org/2000/svg"
   xmlns:svg="http://www.w3.org/2000/svg">
  <defs
     id="defs530">
    <clipPath
       clipPathUnits="userSpaceOnUse"
       id="clipPath16">
      <path
         d="M 0,792 H 612 V 0 H 0 Z"
         id="path14" />
    </clipPath>
  </defs>
  <sodipodi:namedview
     id="namedview528"
     pagecolor="#ffffff"
     bordercolor="#000000"
     borderopacity="0.25"
     inkscape:showpageshadow="2"
     inkscape:pageopacity="0.0"
     inkscape:pagecheckerboard="0"
     inkscape:deskcolor="#d1d1d1"
     showgrid="false"
     inkscape:zoom="12.179348"
     inkscape:cx="278.75055"
     inkscape:cy="104.93173"
     inkscape:window-width="3440"
     inkscape:window-height="1369"
     inkscape:window-x="-8"
     inkscape:window-y="-8"
     inkscape:window-maximized="1"
     inkscape:current-layer="svg526" />
  <rect
     x="1"
     y="1"
     width="560"
     height="237"
     fill="#009688"
     id="rect366"
     style="fill:#4d4d4d;fill-opacity:1" />
  <g
     opacity="0.2"
     id="g408">
    <path
       d="M19.234 8.7434V25.4149L37.159 18.6717V2.00019L19.234 8.7434Z"
       stroke="white"
       stroke-width="1.5"
       stroke-miterlimit="10"
       id="path368" />
    <path
       d="M19.2341 8.7434V25.4149L1 18.6717V2.00019L19.2341 8.7434Z"
       stroke="white"
       stroke-width="1.5"
       stroke-miterlimit="10"
       id="path370" />
    <path
       d="M90.9363 8.7434V25.4149L73.0113 18.6717V2.00019L90.9363 8.7434Z"
       stroke="white"
       stroke-width="1.5"
       stroke-miterlimit="10"
       id="path372" />
    <path
       d="M127.404 8.7434V25.4149L145.329 18.6717V2.00019L127.404 8.7434Z"
       stroke="white"
       stroke-width="1.5"
       stroke-miterlimit="10"
       id="path374" />
    <path
       d="M19.2341 25.538V42.2238L1 35.4806V18.8091L19.2341 25.538Z"
       stroke="white"
       stroke-width="1.5"
       stroke-miterlimit="10"
       id="path376" />
    <path
       d="M19.234 58.7326V75.8463L37.159 68.9302V51.8313L19.234 58.7326Z"
       stroke="white"
       stroke-width="1.5"
       stroke-miterlimit="10"
       id="path378" />
    <path
       d="M55.3944 25.538V42.2238L73.0104 35.4806V18.8091L55.3944 25.538Z"
       stroke="white"
       stroke-width="1.5"
       stroke-miterlimit="10"
       id="path380" />
    <path
       d="M90.9363 42.2787V58.7364L73.0113 52.0939V35.6219L90.9363 42.2787Z"
       stroke="white"
       stroke-width="1.5"
       stroke-miterlimit="10"
       id="path382" />
    <path
       d="M90.9363 96.0424V112.5L73.0113 105.858V89.3856L90.9363 96.0424Z"
       stroke="white"
       stroke-width="1.5"
       stroke-miterlimit="10"
       id="path384" />
    <path
       d="M55.3945 25.6388V42.524L37.1604 35.7089V18.8091L55.3945 25.6388Z"
       stroke="white"
       stroke-width="1.5"
       stroke-miterlimit="10"
       id="path386" />
    <path
       d="M55.3945 42.3652V59.0366L37.1604 52.3078V35.6219L55.3945 42.3652Z"
       stroke="white"
       stroke-width="1.5"
       stroke-miterlimit="10"
       id="path388" />
    <path
       d="M127.404 42.2787V58.7364L145.329 52.0939V35.6219L127.404 42.2787Z"
       stroke="white"
       stroke-width="1.5"
       stroke-miterlimit="10"
       id="path390" />
    <path
       d="M163.251 25.538V42.2238L145.326 35.4806V18.8091L163.251 25.538Z"
       stroke="white"
       stroke-width="1.5"
       stroke-miterlimit="10"
       id="path392" />
    <path
       d="M127.404 75.4718V92.357L145.329 85.5419V68.6422L127.404 75.4718Z"
       stroke="white"
       stroke-width="1.5"
       stroke-miterlimit="10"
       id="path394" />
    <path
       d="M163.251 42.2233V59.337L145.326 52.4209V35.472L163.251 42.2233Z"
       stroke="white"
       stroke-width="1.5"
       stroke-miterlimit="10"
       id="path396" />
    <path
       d="M90.9338 58.7326V75.8463L108.859 68.9302V51.8313L90.9338 58.7326Z"
       stroke="white"
       stroke-width="1.5"
       stroke-miterlimit="10"
       id="path398" />
    <path
       d="M199.413 25.538V42.2238L181.179 35.4806V18.8091L199.413 25.538Z"
       stroke="white"
       stroke-width="1.5"
       stroke-miterlimit="10"
       id="path400" />
    <path
       d="M127.401 25.538V42.2238L108.858 35.4806V18.8091L127.401 25.538Z"
       stroke="white"
       stroke-width="1.5"
       stroke-miterlimit="10"
       id="path402" />
    <path
       d="M199.413 58.7326V75.8463L181.179 68.9302V51.8313L199.413 58.7326Z"
       stroke="white"
       stroke-width="1.5"
       stroke-miterlimit="10"
       id="path404" />
    <path
       d="M163.253 8.65694V25.1147L181.178 18.4721V2.00019L163.253 8.65694Z"
       stroke="white"
       stroke-width="1.5"
       stroke-miterlimit="10"
       id="path406" />
  </g>
  <g
     opacity="0.2"
     id="g458">
    <path
       d="M235.752 8.74321V25.4147L253.677 18.6715V2L235.752 8.74321Z"
       stroke="white"
       stroke-width="1.5"
       stroke-miterlimit="10"
       id="path410" />
    <path
       d="M235.75 8.74321V25.4147L217.516 18.6715V2L235.75 8.74321Z"
       stroke="white"
       stroke-width="1.5"
       stroke-miterlimit="10"
       id="path412" />
    <path
       d="M307.45 8.74321V25.4147L289.525 18.6715V2L307.45 8.74321Z"
       stroke="white"
       stroke-width="1.5"
       stroke-miterlimit="10"
       id="path414" />
    <path
       d="M343.92 8.74321V25.4147L361.845 18.6715V2L343.92 8.74321Z"
       stroke="white"
       stroke-width="1.5"
       stroke-miterlimit="10"
       id="path416" />
    <path
       d="M199.591 42.2785V58.7363L217.516 52.0937V35.6218L199.591 42.2785Z"
       stroke="white"
       stroke-width="1.5"
       stroke-miterlimit="10"
       id="path418" />
    <path
       d="M235.75 25.5378V42.2236L217.516 35.4804V18.8089L235.75 25.5378Z"
       stroke="white"
       stroke-width="1.5"
       stroke-miterlimit="10"
       id="path420" />
    <path
       d="M235.752 58.7325V75.8461L253.677 68.93V51.8311L235.752 58.7325Z"
       stroke="white"
       stroke-width="1.5"
       stroke-miterlimit="10"
       id="path422" />
    <path
       d="M271.91 25.5378V42.2236L289.526 35.4804V18.8089L271.91 25.5378Z"
       stroke="white"
       stroke-width="1.5"
       stroke-miterlimit="10"
       id="path424" />
    <path
       d="M307.45 42.2785V58.7363L289.525 52.0937V35.6218L307.45 42.2785Z"
       stroke="white"
       stroke-width="1.5"
       stroke-miterlimit="10"
       id="path426" />
    <path
       d="M307.45 76.8426V93.3003L289.525 86.6577V70.1858L307.45 76.8426Z"
       stroke="white"
       stroke-width="1.5"
       stroke-miterlimit="10"
       id="path428" />
    <path
       d="M271.908 25.6386V42.5238L253.674 35.7087V18.8089L271.908 25.6386Z"
       stroke="white"
       stroke-width="1.5"
       stroke-miterlimit="10"
       id="path430" />
    <path
       d="M271.908 42.365V59.0365L253.674 52.3076V35.6218L271.908 42.365Z"
       stroke="white"
       stroke-width="1.5"
       stroke-miterlimit="10"
       id="path432" />
    <path
       d="M343.92 42.2785V58.7363L361.845 52.0937V35.6218L343.92 42.2785Z"
       stroke="white"
       stroke-width="1.5"
       stroke-miterlimit="10"
       id="path434" />
    <path
       d="M379.769 25.5378V42.2236L361.844 35.4804V18.8089L379.769 25.5378Z"
       stroke="white"
       stroke-width="1.5"
       stroke-miterlimit="10"
       id="path436" />
    <path
       d="M343.92 75.4716V92.3568L361.845 85.5417V68.642L343.92 75.4716Z"
       stroke="white"
       stroke-width="1.5"
       stroke-miterlimit="10"
       id="path438" />
    <path
       d="M379.769 42.2231V59.3368L361.844 52.4207V35.4719L379.769 42.2231Z"
       stroke="white"
       stroke-width="1.5"
       stroke-miterlimit="10"
       id="path440" />
    <path
       d="M307.452 58.7325V75.8461L325.377 68.93V51.8311L307.452 58.7325Z"
       stroke="white"
       stroke-width="1.5"
       stroke-miterlimit="10"
       id="path442" />
    <path
       d="M415.925 25.5378V42.2236L397.691 35.4804V18.8089L415.925 25.5378Z"
       stroke="white"
       stroke-width="1.5"
       stroke-miterlimit="10"
       id="path444" />
    <path
       d="M379.771 58.7472V75.8461L397.696 68.9447V51.8311L379.771 58.7472Z"
       stroke="white"
       stroke-width="1.5"
       stroke-miterlimit="10"
       id="path446" />
    <path
       d="M379.769 98.3847V115.484L397.694 108.582V91.4686L379.769 98.3847Z"
       stroke="white"
       stroke-width="1.5"
       stroke-miterlimit="10"
       id="path448" />
    <path
       d="M343.917 25.5378V42.2236L325.374 35.4804V18.8089L343.917 25.5378Z"
       stroke="white"
       stroke-width="1.5"
       stroke-miterlimit="10"
       id="path450" />
    <path
       d="M415.925 58.7325V75.8461L397.691 68.93V51.8311L415.925 58.7325Z"
       stroke="white"
       stroke-width="1.5"
       stroke-miterlimit="10"
       id="path452" />
    <path
       d="M455.53 113.522V130.636L437.296 123.72V106.621L455.53 113.522Z"
       stroke="white"
       stroke-width="1.5"
       stroke-miterlimit="10"
       id="path454" />
    <path
       d="M379.771 8.65675V25.1145L397.696 18.4719V2L379.771 8.65675Z"
       stroke="white"
       stroke-width="1.5"
       stroke-miterlimit="10"
       id="path456" />
  </g>
  <g
     opacity="0.5"
     id="g470">
    <g
       opacity="0.2"
       id="g468">
      <path
         d="M452.919 8.74321V25.4147L434.685 18.6715V2L452.919 8.74321Z"
         stroke="white"
         stroke-width="1.5"
         stroke-miterlimit="10"
         id="path460" />
      <path
         d="M416.76 42.2785V58.7363L434.685 52.0937V35.6218L416.76 42.2785Z"
         stroke="white"
         stroke-width="1.5"
         stroke-miterlimit="10"
         id="path462" />
      <path
         d="M416.76 75.2345V91.6922L434.685 85.0496V68.5777L416.76 75.2345Z"
         stroke="white"
         stroke-width="1.5"
         stroke-miterlimit="10"
         id="path464" />
      <path
         d="M452.919 25.5378V42.2236L434.685 35.4804V18.8089L452.919 25.5378Z"
         stroke="white"
         stroke-width="1.5"
         stroke-miterlimit="10"
         id="path466" />
    </g>
  </g>
  <g
     opacity="0.2"
     id="g498">
    <path
       d="M452.832 8.74321V25.4147L470.757 18.6715V2L452.832 8.74321Z"
       stroke="white"
       stroke-width="1.5"
       stroke-miterlimit="10"
       id="path472" />
    <path
       d="M452.832 8.74321V25.4147L434.598 18.6715V2L452.832 8.74321Z"
       stroke="white"
       stroke-width="1.5"
       stroke-miterlimit="10"
       id="path474" />
    <path
       d="M524.534 8.74321V25.4147L506.609 18.6715V2L524.534 8.74321Z"
       stroke="white"
       stroke-width="1.5"
       stroke-miterlimit="10"
       id="path476" />
    <path
       d="M452.832 25.5378V42.2236L434.598 35.4804V18.8089L452.832 25.5378Z"
       stroke="white"
       stroke-width="1.5"
       stroke-miterlimit="10"
       id="path478" />
    <path
       d="M452.832 58.7325V75.8461L470.757 68.93V51.8311L452.832 58.7325Z"
       stroke="white"
       stroke-width="1.5"
       stroke-miterlimit="10"
       id="path480" />
    <path
       d="M488.992 25.5378V42.2236L506.608 35.4804V18.8089L488.992 25.5378Z"
       stroke="white"
       stroke-width="1.5"
       stroke-miterlimit="10"
       id="path482" />
    <path
       d="M524.534 42.2785V58.7363L506.609 52.0937V35.6218L524.534 42.2785Z"
       stroke="white"
       stroke-width="1.5"
       stroke-miterlimit="10"
       id="path484" />
    <path
       d="M524.534 96.0422V112.5L506.609 105.857V89.3854L524.534 96.0422Z"
       stroke="white"
       stroke-width="1.5"
       stroke-miterlimit="10"
       id="path486" />
    <path
       d="M488.992 25.6386V42.5238L470.758 35.7087V18.8089L488.992 25.6386Z"
       stroke="white"
       stroke-width="1.5"
       stroke-miterlimit="10"
       id="path488" />
    <path
       d="M488.992 42.365V59.0365L470.758 52.3076V35.6218L488.992 42.365Z"
       stroke="white"
       stroke-width="1.5"
       stroke-miterlimit="10"
       id="path490" />
    <path
       d="M524.531 58.7325V75.8461L542.457 68.93V51.8311L524.531 58.7325Z"
       stroke="white"
       stroke-width="1.5"
       stroke-miterlimit="10"
       id="path492" />
    <path
       d="M560.999 25.5378V42.2236L542.456 35.4804V18.8089L560.999 25.5378Z"
       stroke="white"
       stroke-width="1.5"
       stroke-miterlimit="10"
       id="path494" />
    <path
       d="M560.999 77.5065V94.1923L542.456 87.4491V70.7776L560.999 77.5065Z"
       stroke="white"
       stroke-width="1.5"
       stroke-miterlimit="10"
       id="path496" />
  </g>
  <g
     id="g10"
     transform="matrix(0.07369611,0,0,-0.07369611,184.95608,133.90321)"
     style="display:inline">
    <g
       id="g12"
       clip-path="url(#clipPath16)">
      <g
         id="g18"
         transform="translate(59.7287,115.3517)">
        <path
           d="m 0,0 c 53.332,-53.285 126.698,-86.317 207.744,-86.646 164.049,-0.664 298.355,134.38 297.699,299.337 -0.324,81.496 -33.176,155.271 -86.17,208.899 z"
           style="fill:#292826;fill-opacity:1;fill-rule:nonzero;stroke:none"
           id="path20" />
      </g>
      <g
         id="g22"
         transform="translate(479.0017,536.9419)">
        <path
           d="m 0,0 -419.273,-421.59 c 0.298,-0.298 0.606,-0.587 0.906,-0.884 146.894,74.925 348.023,206.579 486.003,316.297 C 52.756,-65.97 29.506,-29.859 0,0"
           style="fill:#009789;fill-opacity:1;fill-rule:nonzero;stroke:none"
           id="path24" />
      </g>
      <g
         id="g26"
         transform="translate(397.0372,747)">
        <path
           d="m 0,0 c -163.742,0 -296.482,-133.473 -296.482,-298.121 0,-81.979 32.915,-156.223 86.172,-210.117 l 419.273,421.59 C 155.364,-33.096 81.529,0 0,0"
           style="fill:#292826;fill-opacity:1;fill-rule:nonzero;stroke:none"
           id="path28" />
      </g>
      <g
         id="g30"
         transform="translate(397.0372,747)">
        <path
           d="m 0,0 c -56.714,0 -109.702,-16.022 -154.751,-43.796 -24.127,6.312 -54.061,11.37 -88.437,11.157 -59.938,-0.372 -108.713,-16.603 -141.822,-31.784 -8.218,-3.768 -6.898,-15.967 1.941,-17.829 21.801,-4.593 50.498,-14.324 78.883,-35.28 17.931,-13.238 31.574,-27.883 41.856,-41.597 -21.794,-41.504 -34.152,-88.793 -34.152,-138.992 0,-29.952 4.412,-58.865 12.586,-86.137 12.54,27.79 25.699,46.391 29.916,52.184 27.229,37.41 56.015,56.883 98.542,85.651 31.328,21.193 74.856,46.047 199.916,97.449 0,0 39.121,11.017 91.587,42.212 20.912,12.433 36.823,24.17 41.863,42.526 0.355,1.293 0.677,2.57 0.973,3.83 C 129.175,-22.506 67.208,0 0,0"
           style="fill:#262523;fill-opacity:1;fill-rule:nonzero;stroke:none"
           id="path32" />
      </g>
      <g
         id="g34"
         transform="translate(446.5563,646.8041)">
        <path
           d="m 0,0 c 10.875,-19.229 -10.891,-52.305 -48.616,-73.879 -37.725,-21.573 -77.124,-23.474 -88,-4.245 -10.875,19.229 10.891,52.305 48.617,73.879 C -50.274,17.328 -10.875,19.229 0,0"
           style="fill:#ffffff;fill-opacity:1;fill-rule:nonzero;stroke:none"
           id="path36" />
      </g>
    </g>
  </g>
  <g
     aria-label="Orca"
     id="text835"
     style="font-size:31.8474px;fill:#f9f9f9;fill-opacity:0.8;fill-rule:evenodd;stroke:#1a1a1a;stroke-width:1.19308">
    <path
       d="m 246.33548,105.05624 q -3.12104,0 -5.47775,-0.95542 -2.32486,-0.95542 -3.6943,-2.86626 -1.33759,-1.942695 -1.46498,-4.777114 -0.0319,-1.305744 -0.0319,-2.770724 0,-1.46498 0.0319,-2.834419 0.12739,-2.802571 1.46498,-4.745262 1.33759,-1.942692 3.6943,-2.961809 2.35671,-1.019116 5.47775,-1.019116 3.12105,0 5.47775,1.019116 2.35671,1.019117 3.6943,2.961809 1.36944,1.942691 1.46498,4.745262 0.0637,1.369439 0.0637,2.834419 0,1.46498 -0.0637,2.770724 -0.12739,2.834419 -1.49683,4.777114 -1.33759,1.91084 -3.69429,2.86626 -2.32486,0.95542 -5.44591,0.95542 z m 0,-6.210239 q 1.05096,0 1.68791,-0.605101 0.63695,-0.636948 0.6688,-1.974538 0.0637,-1.369439 0.0637,-2.70703 0,-1.33759 -0.0637,-2.643334 -0.0319,-0.891727 -0.35032,-1.46498 -0.28663,-0.573253 -0.79619,-0.828033 -0.50956,-0.286626 -1.2102,-0.286626 -0.66879,0 -1.2102,0.286626 -0.50956,0.25478 -0.82803,0.828033 -0.28663,0.573253 -0.31848,1.46498 -0.0318,1.305744 -0.0318,2.643334 0,1.337591 0.0318,2.70703 0.0637,1.33759 0.6688,1.974538 0.63695,0.605101 1.68791,0.605101 z"
       style="font-weight:900;font-family:Rubik;-inkscape-font-specification:'Rubik Heavy';text-align:center;text-anchor:middle"
       id="path926" />
    <path
       d="m 260.4439,104.73777 q -0.35032,0 -0.6051,-0.25478 -0.25478,-0.25478 -0.25478,-0.6051 V 89.037002 q 0,-0.350322 0.25478,-0.605101 0.25478,-0.254779 0.6051,-0.254779 h 5.57329 q 0.35032,0 0.6051,0.254779 0.25478,0.254779 0.25478,0.605101 v 1.114659 q 1.01912,-0.891728 2.26117,-1.433133 1.27389,-0.541406 2.70703,-0.541406 h 1.52867 q 0.35032,0 0.6051,0.254779 0.25478,0.254779 0.25478,0.605101 v 4.968194 q 0,0.350321 -0.25478,0.605101 -0.25478,0.254779 -0.6051,0.254779 h -4.10831 q -0.95542,0 -1.43313,0.477711 -0.47772,0.477711 -0.47772,1.433133 v 7.10197 q 0,0.35032 -0.25477,0.6051 -0.25478,0.25478 -0.60511,0.25478 z"
       style="font-weight:900;font-family:Rubik;-inkscape-font-specification:'Rubik Heavy';text-align:center;text-anchor:middle"
       id="path928" />
    <path
       d="m 284.52052,105.05624 q -2.4204,0 -4.39494,-0.82803 -1.97454,-0.85988 -3.18474,-2.4841 -1.2102,-1.62421 -1.33759,-3.980921 -0.0319,-0.509558 -0.0319,-1.273896 0,-0.764337 0.0319,-1.305743 0.12739,-2.356708 1.30574,-3.980925 1.2102,-1.656065 3.18474,-2.484097 2.00639,-0.85988 4.42679,-0.85988 2.51595,0 4.26755,0.73249 1.78346,0.700643 2.86627,1.751607 1.11466,1.019117 1.62422,2.038234 0.5414,1.019116 0.57325,1.656064 0.0319,0.350322 -0.25478,0.605101 -0.25478,0.254779 -0.6051,0.254779 h -6.21024 q -0.35033,0 -0.57326,-0.159237 -0.19108,-0.191084 -0.35032,-0.477711 -0.22293,-0.445863 -0.47771,-0.700643 -0.22293,-0.254779 -0.70064,-0.254779 -0.73249,0 -0.98727,0.541406 -0.25478,0.541406 -0.28663,1.496828 -0.0319,1.369438 0,2.261165 0.0637,1.019117 0.28663,1.528676 0.25478,0.477711 0.98727,0.477711 0.57325,0 0.76434,-0.25478 0.22293,-0.254779 0.41401,-0.700642 0.12739,-0.286627 0.35032,-0.445864 0.22293,-0.191084 0.57326,-0.191084 h 6.21024 q 0.35032,0 0.6051,0.254779 0.28663,0.254779 0.25478,0.6051 -0.0319,0.414017 -0.35032,1.178352 -0.28663,0.73249 -0.95542,1.59237 -0.63695,0.85988 -1.71976,1.65607 -1.08282,0.76433 -2.64334,1.27389 -1.56052,0.47771 -3.66245,0.47771 z"
       style="font-weight:900;font-family:Rubik;-inkscape-font-specification:'Rubik Heavy';text-align:center;text-anchor:middle"
       id="path930" />
    <path
       d="m 301.1767,105.05624 q -1.8153,0 -3.21659,-0.66879 -1.40128,-0.6688 -2.19747,-1.8153 -0.76433,-1.14651 -0.76433,-2.579643 0,-2.32486 1.87899,-3.630603 1.91085,-1.337591 5.09559,-1.878997 l 3.37582,-0.541406 v -0.03185 q 0,-0.828033 -0.15924,-1.210201 -0.12738,-0.382169 -0.79618,-0.382169 -0.44586,0 -0.73249,0.191084 -0.25478,0.159237 -0.57325,0.477711 -0.35033,0.350322 -0.89173,0.350322 h -5.41406 q -0.31847,0 -0.5414,-0.191085 -0.19109,-0.191084 -0.15924,-0.509558 0.0319,-0.605101 0.50956,-1.401286 0.47771,-0.828032 1.46498,-1.59237 1.01911,-0.764337 2.57964,-1.273896 1.59237,-0.509558 3.82168,-0.509558 2.16563,0 3.758,0.477711 1.62422,0.445863 2.67518,1.337591 1.05096,0.859879 1.56052,2.165623 0.54141,1.273896 0.54141,2.898113 v 9.140204 q 0,0.35032 -0.25478,0.6051 -0.25478,0.25478 -0.6051,0.25478 h -5.5733 q -0.35032,0 -0.6051,-0.25478 -0.25478,-0.25478 -0.25478,-0.6051 v -0.89173 q -0.44586,0.63695 -1.1465,1.11466 -0.6688,0.44587 -1.52868,0.70064 -0.85988,0.25478 -1.84715,0.25478 z m 2.19747,-4.71341 q 0.63695,0 1.08281,-0.25478 0.47772,-0.25478 0.73249,-0.796185 0.25478,-0.573254 0.25478,-1.401286 v -0.03185 l -1.87899,0.414016 q -0.82804,0.191084 -1.11466,0.509558 -0.28663,0.318474 -0.28663,0.668796 0,0.222931 0.12739,0.445863 0.15924,0.191085 0.41402,0.318475 0.28662,0.12739 0.66879,0.12739 z"
       style="font-weight:900;font-family:Rubik;-inkscape-font-specification:'Rubik Heavy';text-align:center;text-anchor:middle"
       id="path932" />
  </g>
  <g
     aria-label="Slicer"
     id="text1443"
     style="font-size:22.8809px;text-align:center;text-anchor:middle;fill:#f9f9f9;fill-opacity:0.8;stroke:#1a1a1a;stroke-width:0.857176">
    <path
       d="m 244.8391,127.60037 q -2.53978,0 -4.18721,-0.68643 -1.64742,-0.68643 -2.47113,-1.80759 -0.82372,-1.12116 -0.86948,-2.37961 0,-0.20593 0.13729,-0.34322 0.16016,-0.16016 0.36609,-0.16016 h 4.34737 q 0.3661,0 0.54914,0.1144 0.20593,0.0915 0.43474,0.27457 0.22881,0.16017 0.45762,0.29745 0.25169,0.11441 0.54914,0.18305 0.32033,0.0458 0.68643,0.0458 0.77795,0 1.23557,-0.16016 0.48049,-0.18305 0.48049,-0.4805 0,-0.27457 -0.27457,-0.45762 -0.25169,-0.18305 -0.89235,-0.32033 -0.64067,-0.16017 -1.78471,-0.29745 -1.80759,-0.25169 -3.13468,-0.8466 -1.3271,-0.5949 -2.05929,-1.62454 -0.7093,-1.05252 -0.7093,-2.56266 0,-1.5559 0.86947,-2.74571 0.89236,-1.18981 2.44826,-1.85335 1.57878,-0.66355 3.66094,-0.66355 1.71607,0 3.04316,0.45762 1.32709,0.43474 2.24233,1.16692 0.91523,0.70931 1.39573,1.53302 0.4805,0.82372 0.50338,1.57879 0,0.20592 -0.16016,0.36609 -0.13729,0.13729 -0.32034,0.13729 h -4.57618 q -0.32033,0 -0.52626,-0.0915 -0.18304,-0.0915 -0.38897,-0.27457 -0.11441,-0.1144 -0.43474,-0.25169 -0.29745,-0.16016 -0.77795,-0.16016 -0.57202,0 -0.84659,0.18304 -0.25169,0.16017 -0.25169,0.45762 0,0.20593 0.20593,0.38898 0.20592,0.18304 0.75507,0.32033 0.54914,0.13728 1.57878,0.27457 2.28809,0.27457 3.66094,0.89235 1.39574,0.59491 2.01352,1.60167 0.64067,1.00676 0.64067,2.49402 0,1.6703 -1.00676,2.88299 -0.98388,1.21269 -2.69995,1.87623 -1.71607,0.64067 -3.88975,0.64067 z"
       style="font-weight:900;font-family:Rubik;-inkscape-font-specification:'Rubik Heavy'"
       id="path935" />
    <path
       d="m 254.49485,127.37156 q -0.25169,0 -0.43474,-0.18305 -0.18305,-0.18305 -0.18305,-0.43474 V 111.7439 q 0,-0.25169 0.18305,-0.43473 0.18305,-0.18305 0.43474,-0.18305 h 4.09568 q 0.25169,0 0.43474,0.18305 0.18304,0.18304 0.18304,0.43473 v 15.00987 q 0,0.25169 -0.18304,0.43474 -0.18305,0.18305 -0.43474,0.18305 z"
       style="font-weight:900;font-family:Rubik;-inkscape-font-specification:'Rubik Heavy'"
       id="path937" />
    <path
       d="m 263.12097,127.37156 q -0.25169,0 -0.43474,-0.18305 -0.18305,-0.18305 -0.18305,-0.43474 v -10.66249 q 0,-0.25169 0.18305,-0.43474 0.18305,-0.18305 0.43474,-0.18305 h 4.09568 q 0.25169,0 0.43473,0.18305 0.18305,0.18305 0.18305,0.43474 v 10.66249 q 0,0.25169 -0.18305,0.43474 -0.18304,0.18305 -0.43473,0.18305 z m 0.1144,-13.15652 q -0.25169,0 -0.43474,-0.18305 -0.18304,-0.18304 -0.18304,-0.43473 v -2.76859 q 0,-0.25169 0.18304,-0.43474 0.18305,-0.18305 0.43474,-0.18305 h 3.86687 q 0.25169,0 0.43474,0.18305 0.18305,0.18305 0.18305,0.43474 v 2.76859 q 0,0.25169 -0.18305,0.43473 -0.18305,0.18305 -0.43474,0.18305 z"
       style="font-weight:900;font-family:Rubik;-inkscape-font-specification:'Rubik Heavy'"
       id="path939" />
    <path
       d="m 276.14018,127.60037 q -1.73895,0 -3.15756,-0.59491 -1.41862,-0.61778 -2.28809,-1.78471 -0.86948,-1.16692 -0.961,-2.86011 -0.0229,-0.36609 -0.0229,-0.91523 0,-0.54915 0.0229,-0.93812 0.0915,-1.69319 0.93812,-2.86011 0.86947,-1.18981 2.28809,-1.78471 1.44149,-0.61779 3.18044,-0.61779 1.80759,0 3.06604,0.52626 1.28133,0.50338 2.05928,1.25845 0.80084,0.73219 1.16693,1.46438 0.38897,0.73219 0.41186,1.18981 0.0229,0.25169 -0.18305,0.43473 -0.18305,0.18305 -0.43474,0.18305 h -4.46177 q -0.25169,0 -0.41186,-0.1144 -0.13729,-0.13729 -0.25169,-0.34322 -0.16017,-0.32033 -0.34321,-0.50338 -0.16017,-0.18304 -0.50338,-0.18304 -0.52626,0 -0.70931,0.38897 -0.18305,0.38898 -0.20593,1.0754 -0.0229,0.98388 0,1.62455 0.0458,0.73219 0.20593,1.09828 0.18305,0.34321 0.70931,0.34321 0.41185,0 0.54914,-0.18304 0.16016,-0.18305 0.29745,-0.50338 0.0915,-0.20593 0.25169,-0.32034 0.16017,-0.13728 0.41186,-0.13728 h 4.46177 q 0.25169,0 0.43474,0.18305 0.20593,0.18304 0.18305,0.43473 -0.0229,0.29746 -0.25169,0.8466 -0.20593,0.52626 -0.68643,1.14404 -0.45762,0.61779 -1.23557,1.18981 -0.77795,0.54914 -1.89911,0.91523 -1.12117,0.34322 -2.63131,0.34322 z"
       style="font-weight:900;font-family:Rubik;-inkscape-font-specification:'Rubik Heavy'"
       id="path941" />
    <path
       d="m 290.46362,127.60037 q -2.9974,0 -4.78211,-1.46438 -1.76183,-1.48726 -1.76183,-4.69058 0,-0.0458 0,-0.0915 0,-0.0458 0,-0.0686 0.0458,-1.96776 0.8466,-3.31773 0.82371,-1.34997 2.26521,-2.0364 1.46437,-0.68643 3.40925,-0.68643 2.24233,0 3.68382,0.86948 1.4415,0.84659 2.12793,2.26521 0.70931,1.39573 0.70931,3.08892 v 0.68642 q 0,0.25169 -0.18305,0.43474 -0.18305,0.18305 -0.43474,0.18305 h -6.81851 q 0,0.0229 0,0.0458 0,0.0229 0,0.0686 0,0.45762 0.0686,0.77795 0.0915,0.29746 0.29745,0.45762 0.20593,0.16017 0.52626,0.16017 0.13728,0 0.22881,-0.0458 0.1144,-0.0458 0.20593,-0.13729 0.1144,-0.1144 0.2288,-0.22881 0.20593,-0.20593 0.34322,-0.25169 0.13728,-0.0686 0.41185,-0.0686 h 4.32449 q 0.22881,0 0.3661,0.13728 0.16016,0.13729 0.13728,0.3661 -0.0229,0.43474 -0.41185,1.05252 -0.3661,0.5949 -1.12117,1.16693 -0.75507,0.57202 -1.92199,0.96099 -1.16693,0.3661 -2.74571,0.3661 z m -0.93812,-7.68798 h 1.83048 v -0.0229 q 0,-0.50338 -0.11441,-0.82372 -0.0915,-0.32033 -0.29745,-0.45762 -0.20593,-0.16016 -0.50338,-0.16016 -0.29745,0 -0.50338,0.16016 -0.20593,0.13729 -0.32033,0.45762 -0.0915,0.32034 -0.0915,0.82372 z"
       style="font-weight:900;font-family:Rubik;-inkscape-font-specification:'Rubik Heavy'"
       id="path943" />
    <path
       d="m 299.18123,127.37156 q -0.25169,0 -0.43474,-0.18305 -0.18305,-0.18305 -0.18305,-0.43474 v -10.66249 q 0,-0.25169 0.18305,-0.43474 0.18305,-0.18305 0.43474,-0.18305 h 4.00415 q 0.25169,0 0.43474,0.18305 0.18305,0.18305 0.18305,0.43474 v 0.80083 q 0.73219,-0.64067 1.62454,-1.02964 0.91524,-0.38898 1.94488,-0.38898 h 1.09828 q 0.25169,0 0.43474,0.18305 0.18305,0.18305 0.18305,0.43474 v 3.56942 q 0,0.25169 -0.18305,0.43473 -0.18305,0.18305 -0.43474,0.18305 h -2.95163 q -0.68643,0 -1.02965,0.34321 -0.34321,0.34322 -0.34321,1.02964 v 5.10244 q 0,0.25169 -0.18305,0.43474 -0.18304,0.18305 -0.43473,0.18305 z"
       style="font-weight:900;font-family:Rubik;-inkscape-font-specification:'Rubik Heavy'"
       id="path945" />
  </g>
</svg>
