<svg width="2154" height="1025" viewBox="0 0 2154 1025" fill="none" xmlns="http://www.w3.org/2000/svg">
<rect width="2154" height="1025" fill="#404040"/>
<g filter="url(#filter0_d_0_1)">
<rect x="101" y="100" width="824" height="824" rx="184" fill="#009688"/>
<rect x="101" y="100" width="824" height="824" rx="184" fill="url(#paint0_linear_0_1)"/>
</g>
<g filter="url(#filter1_dddddd_0_1)">
<path d="M526.925 449.266C536.9 453.162 546.473 456.891 556.031 460.65C603.43 479.281 650.813 497.942 698.249 516.49C701.002 517.562 702.008 518.792 702 521.865C701.894 598.728 701.917 675.599 701.917 752.463C701.917 753.807 701.917 755.158 701.917 756.743C700.268 756.819 699.043 756.925 697.811 756.925C642.238 756.932 586.657 756.902 531.084 757C527.674 757 526.638 756.177 526.638 752.644C526.736 652.885 526.714 553.117 526.721 453.358C526.721 452.15 526.827 450.942 526.91 449.266H526.925Z" fill="white"/>
<path d="M324.265 266H499.044C499.12 267.246 499.241 268.34 499.241 269.435C499.264 273.587 499.241 277.739 499.249 281.883C499.309 354.572 499.347 427.261 499.521 499.95C499.528 503.498 498.477 505.136 495.135 506.442C439.63 528.123 384.186 549.954 328.726 571.748C327.365 572.284 325.966 572.722 324.257 573.318V266H324.265Z" fill="white"/>
<path d="M499.143 756.925H494.243C439.176 756.925 384.11 756.925 329.036 756.925C325.724 756.925 324.066 755.322 324.06 752.116C324.06 703.81 324.091 655.504 323.992 607.198C323.992 604.141 324.786 602.631 327.804 601.454C383.891 579.509 439.917 557.428 495.967 535.385C496.874 535.03 497.834 534.789 499.135 534.388V756.925H499.143Z" fill="white"/>
<path d="M526.729 266.008H701.698V488.325C699.905 487.706 698.189 487.185 696.525 486.528C641.194 464.764 585.871 442.955 530.502 421.29C527.485 420.112 526.661 418.648 526.668 415.575C526.759 367.156 526.736 318.745 526.736 270.326C526.736 268.974 526.736 267.615 526.736 266.008H526.729Z" fill="white"/>
</g>
<g filter="url(#filter2_d_0_1)">
<rect x="1164" y="301" width="412" height="412" rx="92" fill="#009688"/>
<rect x="1164" y="301" width="412" height="412" rx="92" fill="url(#paint1_linear_0_1)"/>
</g>
<g filter="url(#filter3_dddddd_0_1)">
<path d="M1376.96 475.633C1381.95 477.581 1386.74 479.445 1391.52 481.325C1415.21 490.641 1438.91 499.971 1462.62 509.245C1464 509.781 1464.5 510.396 1464.5 511.932C1464.45 550.364 1464.46 588.8 1464.46 627.232C1464.46 627.903 1464.46 628.579 1464.46 629.372C1463.63 629.409 1463.02 629.462 1462.41 629.462C1434.62 629.466 1406.83 629.451 1379.04 629.5C1377.34 629.5 1376.82 629.089 1376.82 627.322C1376.87 577.442 1376.86 527.559 1376.86 477.679C1376.86 477.075 1376.91 476.471 1376.96 475.633H1376.96Z" fill="white"/>
<path d="M1275.63 384H1363.02C1363.06 384.623 1363.12 385.17 1363.12 385.717C1363.13 387.793 1363.12 389.869 1363.12 391.942C1363.15 428.286 1363.17 464.631 1363.26 500.975C1363.26 502.749 1362.74 503.568 1361.07 504.221C1333.31 515.061 1305.59 525.977 1277.86 536.874C1277.18 537.142 1276.48 537.361 1275.63 537.659V384H1275.63Z" fill="white"/>
<path d="M1363.07 629.462H1360.62C1333.09 629.462 1305.56 629.462 1278.02 629.462C1276.36 629.462 1275.53 628.661 1275.53 627.058C1275.53 602.905 1275.55 578.752 1275.5 554.599C1275.5 553.07 1275.89 552.316 1277.4 551.727C1305.45 540.754 1333.46 529.714 1361.48 518.692C1361.94 518.515 1362.42 518.394 1363.07 518.194V629.462H1363.07Z" fill="white"/>
<path d="M1376.86 384.004H1464.35V495.162C1463.45 494.853 1462.59 494.592 1461.76 494.264C1434.1 483.382 1406.44 472.478 1378.75 461.645C1377.24 461.056 1376.83 460.324 1376.83 458.788C1376.88 434.578 1376.87 410.372 1376.87 386.163C1376.87 385.487 1376.87 384.808 1376.87 384.004H1376.86Z" fill="white"/>
</g>
<g filter="url(#filter4_d_0_1)">
<rect x="1651" y="404" width="206" height="206" rx="46" fill="#009688"/>
<rect x="1651" y="404" width="206" height="206" rx="46" fill="url(#paint2_linear_0_1)"/>
</g>
<g filter="url(#filter5_dddddd_0_1)">
<path d="M1757.48 491.317C1759.97 492.29 1762.37 493.223 1764.76 494.163C1776.61 498.82 1788.45 503.486 1800.31 508.122C1801 508.39 1801.25 508.698 1801.25 509.466C1801.22 528.682 1801.23 547.9 1801.23 567.116C1801.23 567.452 1801.23 567.79 1801.23 568.186C1800.82 568.205 1800.51 568.231 1800.2 568.231C1786.31 568.233 1772.41 568.225 1758.52 568.25C1757.67 568.25 1757.41 568.044 1757.41 567.161C1757.43 542.221 1757.43 517.279 1757.43 492.339C1757.43 492.038 1757.46 491.736 1757.48 491.317H1757.48Z" fill="white"/>
<path d="M1706.82 445.5H1750.51C1750.53 445.811 1750.56 446.085 1750.56 446.359C1750.57 447.397 1750.56 448.435 1750.56 449.471C1750.58 467.643 1750.59 485.815 1750.63 503.988C1750.63 504.875 1750.37 505.284 1749.53 505.611C1735.66 511.031 1721.8 516.489 1707.93 521.937C1707.59 522.071 1707.24 522.181 1706.81 522.33V445.5H1706.82Z" fill="white"/>
<path d="M1750.54 568.231H1749.31C1735.54 568.231 1721.78 568.231 1708.01 568.231C1707.18 568.231 1706.77 567.83 1706.77 567.029C1706.77 554.952 1706.77 542.876 1706.75 530.8C1706.75 530.035 1706.95 529.658 1707.7 529.363C1721.72 523.877 1735.73 518.357 1749.74 512.846C1749.97 512.758 1750.21 512.697 1750.53 512.597V568.231H1750.54Z" fill="white"/>
<path d="M1757.43 445.502H1801.17V501.081C1800.73 500.926 1800.3 500.796 1799.88 500.632C1786.05 495.191 1772.22 489.739 1758.38 484.322C1757.62 484.028 1757.42 483.662 1757.42 482.894C1757.44 470.789 1757.43 458.686 1757.43 446.581C1757.43 446.244 1757.43 445.904 1757.43 445.502H1757.43Z" fill="white"/>
</g>
<g filter="url(#filter6_d_0_1)">
<rect x="1914.5" y="455.5" width="103" height="103" rx="23" fill="#009688"/>
<rect x="1914.5" y="455.5" width="103" height="103" rx="23" fill="url(#paint3_linear_0_1)"/>
</g>
<g filter="url(#filter7_dddddd_0_1)">
<path d="M1967.74 499.158C1968.99 499.645 1970.18 500.111 1971.38 500.581C1977.3 502.91 1983.23 505.243 1989.16 507.561C1989.5 507.695 1989.63 507.849 1989.63 508.233C1989.61 517.841 1989.61 527.45 1989.61 537.058C1989.61 537.226 1989.61 537.395 1989.61 537.593C1989.41 537.602 1989.26 537.616 1989.1 537.616C1982.15 537.617 1975.21 537.613 1968.26 537.625C1967.83 537.625 1967.7 537.522 1967.7 537.081C1967.72 524.611 1967.71 512.14 1967.72 499.67C1967.72 499.519 1967.73 499.368 1967.74 499.158H1967.74Z" fill="white"/>
<path d="M1942.41 476.25H1964.26C1964.27 476.406 1964.28 476.543 1964.28 476.679C1964.28 477.198 1964.28 477.717 1964.28 478.235C1964.29 487.322 1964.29 496.408 1964.32 505.494C1964.32 505.937 1964.18 506.142 1963.77 506.305C1956.83 509.015 1949.9 511.744 1942.97 514.469C1942.8 514.536 1942.62 514.59 1942.41 514.665V476.25H1942.41Z" fill="white"/>
<path d="M1964.27 537.616H1963.66C1956.77 537.616 1949.89 537.616 1943 537.616C1942.59 537.616 1942.38 537.415 1942.38 537.014C1942.38 530.976 1942.39 524.938 1942.37 518.9C1942.37 518.518 1942.47 518.329 1942.85 518.182C1949.86 515.439 1956.86 512.678 1963.87 509.923C1963.98 509.879 1964.1 509.849 1964.27 509.799V537.616H1964.27Z" fill="white"/>
<path d="M1967.72 476.251H1989.59V504.041C1989.36 503.963 1989.15 503.898 1988.94 503.816C1982.02 501.096 1975.11 498.369 1968.19 495.661C1967.81 495.514 1967.71 495.331 1967.71 494.947C1967.72 488.895 1967.72 482.843 1967.72 476.791C1967.72 476.622 1967.72 476.452 1967.72 476.251H1967.72Z" fill="white"/>
</g>
<g filter="url(#filter8_d_0_1)">
<rect x="2046.25" y="481.25" width="51.5" height="51.5" rx="11.5" fill="#009688"/>
<rect x="2046.25" y="481.25" width="51.5" height="51.5" rx="11.5" fill="url(#paint4_linear_0_1)"/>
</g>
<g filter="url(#filter9_dddddd_0_1)">
<path d="M2072.87 503.079C2073.49 503.323 2074.09 503.556 2074.69 503.791C2077.65 504.955 2080.61 506.121 2083.58 507.281C2083.75 507.348 2083.81 507.425 2083.81 507.617C2083.81 512.421 2083.81 517.225 2083.81 522.029C2083.81 522.113 2083.81 522.197 2083.81 522.296C2083.7 522.301 2083.63 522.308 2083.55 522.308C2080.08 522.308 2076.6 522.306 2073.13 522.312C2072.92 522.312 2072.85 522.261 2072.85 522.04C2072.86 515.805 2072.86 509.57 2072.86 503.335C2072.86 503.259 2072.86 503.184 2072.87 503.079H2072.87Z" fill="white"/>
<path d="M2060.2 491.625H2071.13C2071.13 491.703 2071.14 491.771 2071.14 491.84C2071.14 492.099 2071.14 492.359 2071.14 492.618C2071.14 497.161 2071.15 501.704 2071.16 506.247C2071.16 506.469 2071.09 506.571 2070.88 506.653C2067.41 508.008 2063.95 509.372 2060.48 510.734C2060.4 510.768 2060.31 510.795 2060.2 510.832V491.625H2060.2Z" fill="white"/>
<path d="M2071.13 522.308H2070.83C2067.39 522.308 2063.94 522.308 2060.5 522.308C2060.3 522.308 2060.19 522.208 2060.19 522.007C2060.19 518.988 2060.19 515.969 2060.19 512.95C2060.19 512.759 2060.24 512.664 2060.43 512.591C2063.93 511.219 2067.43 509.839 2070.94 508.462C2070.99 508.439 2071.05 508.424 2071.13 508.399V522.308H2071.13Z" fill="white"/>
<path d="M2072.86 491.625H2083.79V505.52C2083.68 505.482 2083.57 505.449 2083.47 505.408C2080.01 504.048 2076.55 502.685 2073.09 501.331C2072.91 501.257 2072.85 501.165 2072.85 500.973C2072.86 497.947 2072.86 494.922 2072.86 491.895C2072.86 491.811 2072.86 491.726 2072.86 491.625H2072.86Z" fill="white"/>
</g>
<defs>
<filter id="filter0_d_0_1" x="79" y="89" width="868" height="868" filterUnits="userSpaceOnUse" color-interpolation-filters="sRGB">
<feFlood flood-opacity="0" result="BackgroundImageFix"/>
<feColorMatrix in="SourceAlpha" type="matrix" values="0 0 0 0 0 0 0 0 0 0 0 0 0 0 0 0 0 0 127 0" result="hardAlpha"/>
<feOffset dy="11"/>
<feGaussianBlur stdDeviation="11"/>
<feColorMatrix type="matrix" values="0 0 0 0 0 0 0 0 0 0 0 0 0 0 0 0 0 0 0.28 0"/>
<feBlend mode="normal" in2="BackgroundImageFix" result="effect1_dropShadow_0_1"/>
<feBlend mode="normal" in="SourceGraphic" in2="effect1_dropShadow_0_1" result="shape"/>
</filter>
<filter id="filter1_dddddd_0_1" x="296.992" y="266" width="432.008" height="551" filterUnits="userSpaceOnUse" color-interpolation-filters="sRGB">
<feFlood flood-opacity="0" result="BackgroundImageFix"/>
<feColorMatrix in="SourceAlpha" type="matrix" values="0 0 0 0 0 0 0 0 0 0 0 0 0 0 0 0 0 0 127 0" result="hardAlpha"/>
<feOffset dy="0.913195"/>
<feGaussianBlur stdDeviation="0.37358"/>
<feColorMatrix type="matrix" values="0 0 0 0 0 0 0 0 0 0 0 0 0 0 0 0 0 0 0.0253031 0"/>
<feBlend mode="normal" in2="BackgroundImageFix" result="effect1_dropShadow_0_1"/>
<feColorMatrix in="SourceAlpha" type="matrix" values="0 0 0 0 0 0 0 0 0 0 0 0 0 0 0 0 0 0 127 0" result="hardAlpha"/>
<feOffset dy="2.19453"/>
<feGaussianBlur stdDeviation="0.897764"/>
<feColorMatrix type="matrix" values="0 0 0 0 0 0 0 0 0 0 0 0 0 0 0 0 0 0 0.0363503 0"/>
<feBlend mode="normal" in2="effect1_dropShadow_0_1" result="effect2_dropShadow_0_1"/>
<feColorMatrix in="SourceAlpha" type="matrix" values="0 0 0 0 0 0 0 0 0 0 0 0 0 0 0 0 0 0 127 0" result="hardAlpha"/>
<feOffset dy="4.13211"/>
<feGaussianBlur stdDeviation="1.69041"/>
<feColorMatrix type="matrix" values="0 0 0 0 0 0 0 0 0 0 0 0 0 0 0 0 0 0 0.045 0"/>
<feBlend mode="normal" in2="effect2_dropShadow_0_1" result="effect3_dropShadow_0_1"/>
<feColorMatrix in="SourceAlpha" type="matrix" values="0 0 0 0 0 0 0 0 0 0 0 0 0 0 0 0 0 0 127 0" result="hardAlpha"/>
<feOffset dy="7.37098"/>
<feGaussianBlur stdDeviation="3.0154"/>
<feColorMatrix type="matrix" values="0 0 0 0 0 0 0 0 0 0 0 0 0 0 0 0 0 0 0.0536497 0"/>
<feBlend mode="normal" in2="effect3_dropShadow_0_1" result="effect4_dropShadow_0_1"/>
<feColorMatrix in="SourceAlpha" type="matrix" values="0 0 0 0 0 0 0 0 0 0 0 0 0 0 0 0 0 0 127 0" result="hardAlpha"/>
<feOffset dy="13.7866"/>
<feGaussianBlur stdDeviation="5.63998"/>
<feColorMatrix type="matrix" values="0 0 0 0 0 0 0 0 0 0 0 0 0 0 0 0 0 0 0.0646969 0"/>
<feBlend mode="normal" in2="effect4_dropShadow_0_1" result="effect5_dropShadow_0_1"/>
<feColorMatrix in="SourceAlpha" type="matrix" values="0 0 0 0 0 0 0 0 0 0 0 0 0 0 0 0 0 0 127 0" result="hardAlpha"/>
<feOffset dy="33"/>
<feGaussianBlur stdDeviation="13.5"/>
<feColorMatrix type="matrix" values="0 0 0 0 0 0 0 0 0 0 0 0 0 0 0 0 0 0 0.09 0"/>
<feBlend mode="normal" in2="effect5_dropShadow_0_1" result="effect6_dropShadow_0_1"/>
<feBlend mode="normal" in="SourceGraphic" in2="effect6_dropShadow_0_1" result="shape"/>
</filter>
<filter id="filter2_d_0_1" x="1153" y="295.5" width="434" height="434" filterUnits="userSpaceOnUse" color-interpolation-filters="sRGB">
<feFlood flood-opacity="0" result="BackgroundImageFix"/>
<feColorMatrix in="SourceAlpha" type="matrix" values="0 0 0 0 0 0 0 0 0 0 0 0 0 0 0 0 0 0 127 0" result="hardAlpha"/>
<feOffset dy="5.5"/>
<feGaussianBlur stdDeviation="5.5"/>
<feColorMatrix type="matrix" values="0 0 0 0 0 0 0 0 0 0 0 0 0 0 0 0 0 0 0.28 0"/>
<feBlend mode="normal" in2="BackgroundImageFix" result="effect1_dropShadow_0_1"/>
<feBlend mode="normal" in="SourceGraphic" in2="effect1_dropShadow_0_1" result="shape"/>
</filter>
<filter id="filter3_dddddd_0_1" x="1262" y="384" width="216.004" height="275.5" filterUnits="userSpaceOnUse" color-interpolation-filters="sRGB">
<feFlood flood-opacity="0" result="BackgroundImageFix"/>
<feColorMatrix in="SourceAlpha" type="matrix" values="0 0 0 0 0 0 0 0 0 0 0 0 0 0 0 0 0 0 127 0" result="hardAlpha"/>
<feOffset dy="0.456597"/>
<feGaussianBlur stdDeviation="0.18679"/>
<feColorMatrix type="matrix" values="0 0 0 0 0 0 0 0 0 0 0 0 0 0 0 0 0 0 0.0253031 0"/>
<feBlend mode="normal" in2="BackgroundImageFix" result="effect1_dropShadow_0_1"/>
<feColorMatrix in="SourceAlpha" type="matrix" values="0 0 0 0 0 0 0 0 0 0 0 0 0 0 0 0 0 0 127 0" result="hardAlpha"/>
<feOffset dy="1.09727"/>
<feGaussianBlur stdDeviation="0.448882"/>
<feColorMatrix type="matrix" values="0 0 0 0 0 0 0 0 0 0 0 0 0 0 0 0 0 0 0.0363503 0"/>
<feBlend mode="normal" in2="effect1_dropShadow_0_1" result="effect2_dropShadow_0_1"/>
<feColorMatrix in="SourceAlpha" type="matrix" values="0 0 0 0 0 0 0 0 0 0 0 0 0 0 0 0 0 0 127 0" result="hardAlpha"/>
<feOffset dy="2.06606"/>
<feGaussianBlur stdDeviation="0.845205"/>
<feColorMatrix type="matrix" values="0 0 0 0 0 0 0 0 0 0 0 0 0 0 0 0 0 0 0.045 0"/>
<feBlend mode="normal" in2="effect2_dropShadow_0_1" result="effect3_dropShadow_0_1"/>
<feColorMatrix in="SourceAlpha" type="matrix" values="0 0 0 0 0 0 0 0 0 0 0 0 0 0 0 0 0 0 127 0" result="hardAlpha"/>
<feOffset dy="3.68549"/>
<feGaussianBlur stdDeviation="1.5077"/>
<feColorMatrix type="matrix" values="0 0 0 0 0 0 0 0 0 0 0 0 0 0 0 0 0 0 0.0536497 0"/>
<feBlend mode="normal" in2="effect3_dropShadow_0_1" result="effect4_dropShadow_0_1"/>
<feColorMatrix in="SourceAlpha" type="matrix" values="0 0 0 0 0 0 0 0 0 0 0 0 0 0 0 0 0 0 127 0" result="hardAlpha"/>
<feOffset dy="6.89331"/>
<feGaussianBlur stdDeviation="2.81999"/>
<feColorMatrix type="matrix" values="0 0 0 0 0 0 0 0 0 0 0 0 0 0 0 0 0 0 0.0646969 0"/>
<feBlend mode="normal" in2="effect4_dropShadow_0_1" result="effect5_dropShadow_0_1"/>
<feColorMatrix in="SourceAlpha" type="matrix" values="0 0 0 0 0 0 0 0 0 0 0 0 0 0 0 0 0 0 127 0" result="hardAlpha"/>
<feOffset dy="16.5"/>
<feGaussianBlur stdDeviation="6.75"/>
<feColorMatrix type="matrix" values="0 0 0 0 0 0 0 0 0 0 0 0 0 0 0 0 0 0 0.09 0"/>
<feBlend mode="normal" in2="effect5_dropShadow_0_1" result="effect6_dropShadow_0_1"/>
<feBlend mode="normal" in="SourceGraphic" in2="effect6_dropShadow_0_1" result="shape"/>
</filter>
<filter id="filter4_d_0_1" x="1645.5" y="401.25" width="217" height="217" filterUnits="userSpaceOnUse" color-interpolation-filters="sRGB">
<feFlood flood-opacity="0" result="BackgroundImageFix"/>
<feColorMatrix in="SourceAlpha" type="matrix" values="0 0 0 0 0 0 0 0 0 0 0 0 0 0 0 0 0 0 127 0" result="hardAlpha"/>
<feOffset dy="2.75"/>
<feGaussianBlur stdDeviation="2.75"/>
<feColorMatrix type="matrix" values="0 0 0 0 0 0 0 0 0 0 0 0 0 0 0 0 0 0 0.28 0"/>
<feBlend mode="normal" in2="BackgroundImageFix" result="effect1_dropShadow_0_1"/>
<feBlend mode="normal" in="SourceGraphic" in2="effect1_dropShadow_0_1" result="shape"/>
</filter>
<filter id="filter5_dddddd_0_1" x="1700" y="445.5" width="108.002" height="137.75" filterUnits="userSpaceOnUse" color-interpolation-filters="sRGB">
<feFlood flood-opacity="0" result="BackgroundImageFix"/>
<feColorMatrix in="SourceAlpha" type="matrix" values="0 0 0 0 0 0 0 0 0 0 0 0 0 0 0 0 0 0 127 0" result="hardAlpha"/>
<feOffset dy="0.228299"/>
<feGaussianBlur stdDeviation="0.0933949"/>
<feColorMatrix type="matrix" values="0 0 0 0 0 0 0 0 0 0 0 0 0 0 0 0 0 0 0.0253031 0"/>
<feBlend mode="normal" in2="BackgroundImageFix" result="effect1_dropShadow_0_1"/>
<feColorMatrix in="SourceAlpha" type="matrix" values="0 0 0 0 0 0 0 0 0 0 0 0 0 0 0 0 0 0 127 0" result="hardAlpha"/>
<feOffset dy="0.548633"/>
<feGaussianBlur stdDeviation="0.224441"/>
<feColorMatrix type="matrix" values="0 0 0 0 0 0 0 0 0 0 0 0 0 0 0 0 0 0 0.0363503 0"/>
<feBlend mode="normal" in2="effect1_dropShadow_0_1" result="effect2_dropShadow_0_1"/>
<feColorMatrix in="SourceAlpha" type="matrix" values="0 0 0 0 0 0 0 0 0 0 0 0 0 0 0 0 0 0 127 0" result="hardAlpha"/>
<feOffset dy="1.03303"/>
<feGaussianBlur stdDeviation="0.422602"/>
<feColorMatrix type="matrix" values="0 0 0 0 0 0 0 0 0 0 0 0 0 0 0 0 0 0 0.045 0"/>
<feBlend mode="normal" in2="effect2_dropShadow_0_1" result="effect3_dropShadow_0_1"/>
<feColorMatrix in="SourceAlpha" type="matrix" values="0 0 0 0 0 0 0 0 0 0 0 0 0 0 0 0 0 0 127 0" result="hardAlpha"/>
<feOffset dy="1.84275"/>
<feGaussianBlur stdDeviation="0.75385"/>
<feColorMatrix type="matrix" values="0 0 0 0 0 0 0 0 0 0 0 0 0 0 0 0 0 0 0.0536497 0"/>
<feBlend mode="normal" in2="effect3_dropShadow_0_1" result="effect4_dropShadow_0_1"/>
<feColorMatrix in="SourceAlpha" type="matrix" values="0 0 0 0 0 0 0 0 0 0 0 0 0 0 0 0 0 0 127 0" result="hardAlpha"/>
<feOffset dy="3.44665"/>
<feGaussianBlur stdDeviation="1.40999"/>
<feColorMatrix type="matrix" values="0 0 0 0 0 0 0 0 0 0 0 0 0 0 0 0 0 0 0.0646969 0"/>
<feBlend mode="normal" in2="effect4_dropShadow_0_1" result="effect5_dropShadow_0_1"/>
<feColorMatrix in="SourceAlpha" type="matrix" values="0 0 0 0 0 0 0 0 0 0 0 0 0 0 0 0 0 0 127 0" result="hardAlpha"/>
<feOffset dy="8.25"/>
<feGaussianBlur stdDeviation="3.375"/>
<feColorMatrix type="matrix" values="0 0 0 0 0 0 0 0 0 0 0 0 0 0 0 0 0 0 0.09 0"/>
<feBlend mode="normal" in2="effect5_dropShadow_0_1" result="effect6_dropShadow_0_1"/>
<feBlend mode="normal" in="SourceGraphic" in2="effect6_dropShadow_0_1" result="shape"/>
</filter>
<filter id="filter6_d_0_1" x="1911.75" y="454.125" width="108.5" height="108.5" filterUnits="userSpaceOnUse" color-interpolation-filters="sRGB">
<feFlood flood-opacity="0" result="BackgroundImageFix"/>
<feColorMatrix in="SourceAlpha" type="matrix" values="0 0 0 0 0 0 0 0 0 0 0 0 0 0 0 0 0 0 127 0" result="hardAlpha"/>
<feOffset dy="1.375"/>
<feGaussianBlur stdDeviation="1.375"/>
<feColorMatrix type="matrix" values="0 0 0 0 0 0 0 0 0 0 0 0 0 0 0 0 0 0 0.28 0"/>
<feBlend mode="normal" in2="BackgroundImageFix" result="effect1_dropShadow_0_1"/>
<feBlend mode="normal" in="SourceGraphic" in2="effect1_dropShadow_0_1" result="shape"/>
</filter>
<filter id="filter7_dddddd_0_1" x="1939" y="476.25" width="54.0011" height="68.875" filterUnits="userSpaceOnUse" color-interpolation-filters="sRGB">
<feFlood flood-opacity="0" result="BackgroundImageFix"/>
<feColorMatrix in="SourceAlpha" type="matrix" values="0 0 0 0 0 0 0 0 0 0 0 0 0 0 0 0 0 0 127 0" result="hardAlpha"/>
<feOffset dy="0.114149"/>
<feGaussianBlur stdDeviation="0.0466975"/>
<feColorMatrix type="matrix" values="0 0 0 0 0 0 0 0 0 0 0 0 0 0 0 0 0 0 0.0253031 0"/>
<feBlend mode="normal" in2="BackgroundImageFix" result="effect1_dropShadow_0_1"/>
<feColorMatrix in="SourceAlpha" type="matrix" values="0 0 0 0 0 0 0 0 0 0 0 0 0 0 0 0 0 0 127 0" result="hardAlpha"/>
<feOffset dy="0.274317"/>
<feGaussianBlur stdDeviation="0.11222"/>
<feColorMatrix type="matrix" values="0 0 0 0 0 0 0 0 0 0 0 0 0 0 0 0 0 0 0.0363503 0"/>
<feBlend mode="normal" in2="effect1_dropShadow_0_1" result="effect2_dropShadow_0_1"/>
<feColorMatrix in="SourceAlpha" type="matrix" values="0 0 0 0 0 0 0 0 0 0 0 0 0 0 0 0 0 0 127 0" result="hardAlpha"/>
<feOffset dy="0.516514"/>
<feGaussianBlur stdDeviation="0.211301"/>
<feColorMatrix type="matrix" values="0 0 0 0 0 0 0 0 0 0 0 0 0 0 0 0 0 0 0.045 0"/>
<feBlend mode="normal" in2="effect2_dropShadow_0_1" result="effect3_dropShadow_0_1"/>
<feColorMatrix in="SourceAlpha" type="matrix" values="0 0 0 0 0 0 0 0 0 0 0 0 0 0 0 0 0 0 127 0" result="hardAlpha"/>
<feOffset dy="0.921373"/>
<feGaussianBlur stdDeviation="0.376925"/>
<feColorMatrix type="matrix" values="0 0 0 0 0 0 0 0 0 0 0 0 0 0 0 0 0 0 0.0536497 0"/>
<feBlend mode="normal" in2="effect3_dropShadow_0_1" result="effect4_dropShadow_0_1"/>
<feColorMatrix in="SourceAlpha" type="matrix" values="0 0 0 0 0 0 0 0 0 0 0 0 0 0 0 0 0 0 127 0" result="hardAlpha"/>
<feOffset dy="1.72333"/>
<feGaussianBlur stdDeviation="0.704997"/>
<feColorMatrix type="matrix" values="0 0 0 0 0 0 0 0 0 0 0 0 0 0 0 0 0 0 0.0646969 0"/>
<feBlend mode="normal" in2="effect4_dropShadow_0_1" result="effect5_dropShadow_0_1"/>
<feColorMatrix in="SourceAlpha" type="matrix" values="0 0 0 0 0 0 0 0 0 0 0 0 0 0 0 0 0 0 127 0" result="hardAlpha"/>
<feOffset dy="4.125"/>
<feGaussianBlur stdDeviation="1.6875"/>
<feColorMatrix type="matrix" values="0 0 0 0 0 0 0 0 0 0 0 0 0 0 0 0 0 0 0.09 0"/>
<feBlend mode="normal" in2="effect5_dropShadow_0_1" result="effect6_dropShadow_0_1"/>
<feBlend mode="normal" in="SourceGraphic" in2="effect6_dropShadow_0_1" result="shape"/>
</filter>
<filter id="filter8_d_0_1" x="2044.88" y="480.562" width="54.25" height="54.25" filterUnits="userSpaceOnUse" color-interpolation-filters="sRGB">
<feFlood flood-opacity="0" result="BackgroundImageFix"/>
<feColorMatrix in="SourceAlpha" type="matrix" values="0 0 0 0 0 0 0 0 0 0 0 0 0 0 0 0 0 0 127 0" result="hardAlpha"/>
<feOffset dy="0.6875"/>
<feGaussianBlur stdDeviation="0.6875"/>
<feColorMatrix type="matrix" values="0 0 0 0 0 0 0 0 0 0 0 0 0 0 0 0 0 0 0.28 0"/>
<feBlend mode="normal" in2="BackgroundImageFix" result="effect1_dropShadow_0_1"/>
<feBlend mode="normal" in="SourceGraphic" in2="effect1_dropShadow_0_1" result="shape"/>
</filter>
<filter id="filter9_dddddd_0_1" x="2058.5" y="491.625" width="27.0005" height="34.4375" filterUnits="userSpaceOnUse" color-interpolation-filters="sRGB">
<feFlood flood-opacity="0" result="BackgroundImageFix"/>
<feColorMatrix in="SourceAlpha" type="matrix" values="0 0 0 0 0 0 0 0 0 0 0 0 0 0 0 0 0 0 127 0" result="hardAlpha"/>
<feOffset dy="0.0570747"/>
<feGaussianBlur stdDeviation="0.0233487"/>
<feColorMatrix type="matrix" values="0 0 0 0 0 0 0 0 0 0 0 0 0 0 0 0 0 0 0.0253031 0"/>
<feBlend mode="normal" in2="BackgroundImageFix" result="effect1_dropShadow_0_1"/>
<feColorMatrix in="SourceAlpha" type="matrix" values="0 0 0 0 0 0 0 0 0 0 0 0 0 0 0 0 0 0 127 0" result="hardAlpha"/>
<feOffset dy="0.137158"/>
<feGaussianBlur stdDeviation="0.0561102"/>
<feColorMatrix type="matrix" values="0 0 0 0 0 0 0 0 0 0 0 0 0 0 0 0 0 0 0.0363503 0"/>
<feBlend mode="normal" in2="effect1_dropShadow_0_1" result="effect2_dropShadow_0_1"/>
<feColorMatrix in="SourceAlpha" type="matrix" values="0 0 0 0 0 0 0 0 0 0 0 0 0 0 0 0 0 0 127 0" result="hardAlpha"/>
<feOffset dy="0.258257"/>
<feGaussianBlur stdDeviation="0.105651"/>
<feColorMatrix type="matrix" values="0 0 0 0 0 0 0 0 0 0 0 0 0 0 0 0 0 0 0.045 0"/>
<feBlend mode="normal" in2="effect2_dropShadow_0_1" result="effect3_dropShadow_0_1"/>
<feColorMatrix in="SourceAlpha" type="matrix" values="0 0 0 0 0 0 0 0 0 0 0 0 0 0 0 0 0 0 127 0" result="hardAlpha"/>
<feOffset dy="0.460686"/>
<feGaussianBlur stdDeviation="0.188463"/>
<feColorMatrix type="matrix" values="0 0 0 0 0 0 0 0 0 0 0 0 0 0 0 0 0 0 0.0536497 0"/>
<feBlend mode="normal" in2="effect3_dropShadow_0_1" result="effect4_dropShadow_0_1"/>
<feColorMatrix in="SourceAlpha" type="matrix" values="0 0 0 0 0 0 0 0 0 0 0 0 0 0 0 0 0 0 127 0" result="hardAlpha"/>
<feOffset dy="0.861663"/>
<feGaussianBlur stdDeviation="0.352499"/>
<feColorMatrix type="matrix" values="0 0 0 0 0 0 0 0 0 0 0 0 0 0 0 0 0 0 0.0646969 0"/>
<feBlend mode="normal" in2="effect4_dropShadow_0_1" result="effect5_dropShadow_0_1"/>
<feColorMatrix in="SourceAlpha" type="matrix" values="0 0 0 0 0 0 0 0 0 0 0 0 0 0 0 0 0 0 127 0" result="hardAlpha"/>
<feOffset dy="2.0625"/>
<feGaussianBlur stdDeviation="0.84375"/>
<feColorMatrix type="matrix" values="0 0 0 0 0 0 0 0 0 0 0 0 0 0 0 0 0 0 0.09 0"/>
<feBlend mode="normal" in2="effect5_dropShadow_0_1" result="effect6_dropShadow_0_1"/>
<feBlend mode="normal" in="SourceGraphic" in2="effect6_dropShadow_0_1" result="shape"/>
</filter>
<linearGradient id="paint0_linear_0_1" x1="513" y1="100" x2="513" y2="924" gradientUnits="userSpaceOnUse">
<stop stop-opacity="0"/>
<stop offset="1" stop-opacity="0.2"/>
</linearGradient>
<linearGradient id="paint1_linear_0_1" x1="1370" y1="301" x2="1370" y2="713" gradientUnits="userSpaceOnUse">
<stop stop-opacity="0"/>
<stop offset="1" stop-opacity="0.2"/>
</linearGradient>
<linearGradient id="paint2_linear_0_1" x1="1754" y1="404" x2="1754" y2="610" gradientUnits="userSpaceOnUse">
<stop stop-opacity="0"/>
<stop offset="1" stop-opacity="0.2"/>
</linearGradient>
<linearGradient id="paint3_linear_0_1" x1="1966" y1="455.5" x2="1966" y2="558.5" gradientUnits="userSpaceOnUse">
<stop stop-opacity="0"/>
<stop offset="1" stop-opacity="0.2"/>
</linearGradient>
<linearGradient id="paint4_linear_0_1" x1="2072" y1="481.25" x2="2072" y2="532.75" gradientUnits="userSpaceOnUse">
<stop stop-opacity="0"/>
<stop offset="1" stop-opacity="0.2"/>
</linearGradient>
</defs>
</svg>
