<svg width="562" height="238" viewBox="0 0 562 238" fill="none" xmlns="http://www.w3.org/2000/svg">
<rect x="1" y="1" width="560" height="237" fill="#00AE42"/>
<g opacity="0.2">
<path d="M19.234 8.7434V25.4149L37.159 18.6717V2.00019L19.234 8.7434Z" stroke="white" stroke-width="1.5" stroke-miterlimit="10"/>
<path d="M19.2341 8.7434V25.4149L1 18.6717V2.00019L19.2341 8.7434Z" stroke="white" stroke-width="1.5" stroke-miterlimit="10"/>
<path d="M90.9363 8.7434V25.4149L73.0113 18.6717V2.00019L90.9363 8.7434Z" stroke="white" stroke-width="1.5" stroke-miterlimit="10"/>
<path d="M127.404 8.7434V25.4149L145.329 18.6717V2.00019L127.404 8.7434Z" stroke="white" stroke-width="1.5" stroke-miterlimit="10"/>
<path d="M19.2341 25.538V42.2238L1 35.4806V18.8091L19.2341 25.538Z" stroke="white" stroke-width="1.5" stroke-miterlimit="10"/>
<path d="M19.234 58.7326V75.8463L37.159 68.9302V51.8313L19.234 58.7326Z" stroke="white" stroke-width="1.5" stroke-miterlimit="10"/>
<path d="M55.3944 25.538V42.2238L73.0104 35.4806V18.8091L55.3944 25.538Z" stroke="white" stroke-width="1.5" stroke-miterlimit="10"/>
<path d="M90.9363 42.2787V58.7364L73.0113 52.0939V35.6219L90.9363 42.2787Z" stroke="white" stroke-width="1.5" stroke-miterlimit="10"/>
<path d="M90.9363 96.0424V112.5L73.0113 105.858V89.3856L90.9363 96.0424Z" stroke="white" stroke-width="1.5" stroke-miterlimit="10"/>
<path d="M55.3945 25.6388V42.524L37.1604 35.7089V18.8091L55.3945 25.6388Z" stroke="white" stroke-width="1.5" stroke-miterlimit="10"/>
<path d="M55.3945 42.3652V59.0366L37.1604 52.3078V35.6219L55.3945 42.3652Z" stroke="white" stroke-width="1.5" stroke-miterlimit="10"/>
<path d="M127.404 42.2787V58.7364L145.329 52.0939V35.6219L127.404 42.2787Z" stroke="white" stroke-width="1.5" stroke-miterlimit="10"/>
<path d="M163.251 25.538V42.2238L145.326 35.4806V18.8091L163.251 25.538Z" stroke="white" stroke-width="1.5" stroke-miterlimit="10"/>
<path d="M127.404 75.4718V92.357L145.329 85.5419V68.6422L127.404 75.4718Z" stroke="white" stroke-width="1.5" stroke-miterlimit="10"/>
<path d="M163.251 42.2233V59.337L145.326 52.4209V35.472L163.251 42.2233Z" stroke="white" stroke-width="1.5" stroke-miterlimit="10"/>
<path d="M90.9338 58.7326V75.8463L108.859 68.9302V51.8313L90.9338 58.7326Z" stroke="white" stroke-width="1.5" stroke-miterlimit="10"/>
<path d="M199.413 25.538V42.2238L181.179 35.4806V18.8091L199.413 25.538Z" stroke="white" stroke-width="1.5" stroke-miterlimit="10"/>
<path d="M127.401 25.538V42.2238L108.858 35.4806V18.8091L127.401 25.538Z" stroke="white" stroke-width="1.5" stroke-miterlimit="10"/>
<path d="M199.413 58.7326V75.8463L181.179 68.9302V51.8313L199.413 58.7326Z" stroke="white" stroke-width="1.5" stroke-miterlimit="10"/>
<path d="M163.253 8.65694V25.1147L181.178 18.4721V2.00019L163.253 8.65694Z" stroke="white" stroke-width="1.5" stroke-miterlimit="10"/>
</g>
<g opacity="0.2">
<path d="M235.752 8.74321V25.4147L253.677 18.6715V2L235.752 8.74321Z" stroke="white" stroke-width="1.5" stroke-miterlimit="10"/>
<path d="M235.75 8.74321V25.4147L217.516 18.6715V2L235.75 8.74321Z" stroke="white" stroke-width="1.5" stroke-miterlimit="10"/>
<path d="M307.45 8.74321V25.4147L289.525 18.6715V2L307.45 8.74321Z" stroke="white" stroke-width="1.5" stroke-miterlimit="10"/>
<path d="M343.92 8.74321V25.4147L361.845 18.6715V2L343.92 8.74321Z" stroke="white" stroke-width="1.5" stroke-miterlimit="10"/>
<path d="M199.591 42.2785V58.7363L217.516 52.0937V35.6218L199.591 42.2785Z" stroke="white" stroke-width="1.5" stroke-miterlimit="10"/>
<path d="M235.75 25.5378V42.2236L217.516 35.4804V18.8089L235.75 25.5378Z" stroke="white" stroke-width="1.5" stroke-miterlimit="10"/>
<path d="M235.752 58.7325V75.8461L253.677 68.93V51.8311L235.752 58.7325Z" stroke="white" stroke-width="1.5" stroke-miterlimit="10"/>
<path d="M271.91 25.5378V42.2236L289.526 35.4804V18.8089L271.91 25.5378Z" stroke="white" stroke-width="1.5" stroke-miterlimit="10"/>
<path d="M307.45 42.2785V58.7363L289.525 52.0937V35.6218L307.45 42.2785Z" stroke="white" stroke-width="1.5" stroke-miterlimit="10"/>
<path d="M307.45 76.8426V93.3003L289.525 86.6577V70.1858L307.45 76.8426Z" stroke="white" stroke-width="1.5" stroke-miterlimit="10"/>
<path d="M271.908 25.6386V42.5238L253.674 35.7087V18.8089L271.908 25.6386Z" stroke="white" stroke-width="1.5" stroke-miterlimit="10"/>
<path d="M271.908 42.365V59.0365L253.674 52.3076V35.6218L271.908 42.365Z" stroke="white" stroke-width="1.5" stroke-miterlimit="10"/>
<path d="M343.92 42.2785V58.7363L361.845 52.0937V35.6218L343.92 42.2785Z" stroke="white" stroke-width="1.5" stroke-miterlimit="10"/>
<path d="M379.769 25.5378V42.2236L361.844 35.4804V18.8089L379.769 25.5378Z" stroke="white" stroke-width="1.5" stroke-miterlimit="10"/>
<path d="M343.92 75.4716V92.3568L361.845 85.5417V68.642L343.92 75.4716Z" stroke="white" stroke-width="1.5" stroke-miterlimit="10"/>
<path d="M379.769 42.2231V59.3368L361.844 52.4207V35.4719L379.769 42.2231Z" stroke="white" stroke-width="1.5" stroke-miterlimit="10"/>
<path d="M307.452 58.7325V75.8461L325.377 68.93V51.8311L307.452 58.7325Z" stroke="white" stroke-width="1.5" stroke-miterlimit="10"/>
<path d="M415.925 25.5378V42.2236L397.691 35.4804V18.8089L415.925 25.5378Z" stroke="white" stroke-width="1.5" stroke-miterlimit="10"/>
<path d="M379.771 58.7472V75.8461L397.696 68.9447V51.8311L379.771 58.7472Z" stroke="white" stroke-width="1.5" stroke-miterlimit="10"/>
<path d="M379.769 98.3847V115.484L397.694 108.582V91.4686L379.769 98.3847Z" stroke="white" stroke-width="1.5" stroke-miterlimit="10"/>
<path d="M343.917 25.5378V42.2236L325.374 35.4804V18.8089L343.917 25.5378Z" stroke="white" stroke-width="1.5" stroke-miterlimit="10"/>
<path d="M415.925 58.7325V75.8461L397.691 68.93V51.8311L415.925 58.7325Z" stroke="white" stroke-width="1.5" stroke-miterlimit="10"/>
<path d="M455.53 113.522V130.636L437.296 123.72V106.621L455.53 113.522Z" stroke="white" stroke-width="1.5" stroke-miterlimit="10"/>
<path d="M379.771 8.65675V25.1145L397.696 18.4719V2L379.771 8.65675Z" stroke="white" stroke-width="1.5" stroke-miterlimit="10"/>
</g>
<g opacity="0.5">
<g opacity="0.2">
<path d="M452.919 8.74321V25.4147L434.685 18.6715V2L452.919 8.74321Z" stroke="white" stroke-width="1.5" stroke-miterlimit="10"/>
<path d="M416.76 42.2785V58.7363L434.685 52.0937V35.6218L416.76 42.2785Z" stroke="white" stroke-width="1.5" stroke-miterlimit="10"/>
<path d="M416.76 75.2345V91.6922L434.685 85.0496V68.5777L416.76 75.2345Z" stroke="white" stroke-width="1.5" stroke-miterlimit="10"/>
<path d="M452.919 25.5378V42.2236L434.685 35.4804V18.8089L452.919 25.5378Z" stroke="white" stroke-width="1.5" stroke-miterlimit="10"/>
</g>
</g>
<g opacity="0.2">
<path d="M452.832 8.74321V25.4147L470.757 18.6715V2L452.832 8.74321Z" stroke="white" stroke-width="1.5" stroke-miterlimit="10"/>
<path d="M452.832 8.74321V25.4147L434.598 18.6715V2L452.832 8.74321Z" stroke="white" stroke-width="1.5" stroke-miterlimit="10"/>
<path d="M524.534 8.74321V25.4147L506.609 18.6715V2L524.534 8.74321Z" stroke="white" stroke-width="1.5" stroke-miterlimit="10"/>
<path d="M452.832 25.5378V42.2236L434.598 35.4804V18.8089L452.832 25.5378Z" stroke="white" stroke-width="1.5" stroke-miterlimit="10"/>
<path d="M452.832 58.7325V75.8461L470.757 68.93V51.8311L452.832 58.7325Z" stroke="white" stroke-width="1.5" stroke-miterlimit="10"/>
<path d="M488.992 25.5378V42.2236L506.608 35.4804V18.8089L488.992 25.5378Z" stroke="white" stroke-width="1.5" stroke-miterlimit="10"/>
<path d="M524.534 42.2785V58.7363L506.609 52.0937V35.6218L524.534 42.2785Z" stroke="white" stroke-width="1.5" stroke-miterlimit="10"/>
<path d="M524.534 96.0422V112.5L506.609 105.857V89.3854L524.534 96.0422Z" stroke="white" stroke-width="1.5" stroke-miterlimit="10"/>
<path d="M488.992 25.6386V42.5238L470.758 35.7087V18.8089L488.992 25.6386Z" stroke="white" stroke-width="1.5" stroke-miterlimit="10"/>
<path d="M488.992 42.365V59.0365L470.758 52.3076V35.6218L488.992 42.365Z" stroke="white" stroke-width="1.5" stroke-miterlimit="10"/>
<path d="M524.531 58.7325V75.8461L542.457 68.93V51.8311L524.531 58.7325Z" stroke="white" stroke-width="1.5" stroke-miterlimit="10"/>
<path d="M560.999 25.5378V42.2236L542.456 35.4804V18.8089L560.999 25.5378Z" stroke="white" stroke-width="1.5" stroke-miterlimit="10"/>
<path d="M560.999 77.5065V94.1923L542.456 87.4491V70.7776L560.999 77.5065Z" stroke="white" stroke-width="1.5" stroke-miterlimit="10"/>
</g>
<path d="M248.355 127.203V110.613H243.689V131.077H260.806L259.335 127.203H248.355Z" fill="white"/>
<path d="M280.597 114.678H264.164L265.501 118.212H280.434C280.687 118.212 280.895 118.419 280.895 118.67V120.755H267.566C265.055 120.755 263.02 122.781 263.02 125.279V126.551C263.02 129.05 265.055 131.076 267.566 131.076H285.159V119.188C285.159 116.704 283.123 114.678 280.597 114.678ZM280.88 127.512H267.73C267.477 127.512 267.269 127.305 267.269 127.054V124.732C267.269 124.481 267.477 124.274 267.73 124.274H280.88V127.512Z" fill="white"/>
<path d="M304.669 114.678H293.941V110.583H293.852H289.261V131.076H293.941H304.669C307.18 131.076 309.216 129.05 309.216 126.551V119.218C309.231 116.719 307.195 114.678 304.669 114.678ZM304.64 127.069C304.64 127.32 304.432 127.527 304.179 127.527H293.941V118.286H304.179C304.432 118.286 304.64 118.493 304.64 118.744V127.069Z" fill="white"/>
<path d="M319.319 88.403H296.169V104.801H300.716V92.4543C300.716 92.203 300.924 91.996 301.177 91.996H307.328C307.581 91.996 307.789 92.203 307.789 92.4543V104.801H312.351V92.4543C312.351 92.203 312.559 91.996 312.811 91.996H318.874C319.126 91.996 319.334 92.203 319.334 92.4543V104.801H323.911V92.9275C323.866 90.4287 321.83 88.403 319.319 88.403Z" fill="white"/>
<path d="M367.491 100.779C367.491 101.03 367.283 101.237 367.031 101.237H356.095C355.842 101.237 355.634 101.03 355.634 100.779V88.403H351.34V100.276C351.34 102.775 353.375 104.801 355.887 104.801H367.194C369.705 104.801 371.741 102.775 371.741 100.276V88.403H367.476V100.779H367.491Z" fill="white"/>
<path d="M287.492 88.403H271.058L272.395 91.9368H287.328C287.581 91.9368 287.789 92.1438 287.789 92.3952V94.48H274.461C271.95 94.48 269.914 96.5057 269.914 99.0045V100.276C269.914 102.775 271.95 104.801 274.461 104.801H292.039V92.9127C292.053 90.4139 290.003 88.403 287.492 88.403ZM287.774 101.237H274.624C274.372 101.237 274.164 101.03 274.164 100.779V98.4574C274.164 98.2061 274.372 97.9991 274.624 97.9991H287.774V101.237Z" fill="white"/>
<path d="M342.976 88.4034H332.248V84.3077H332.158H327.567V104.801H332.248H342.976C345.487 104.801 347.522 102.775 347.522 100.276V92.9279C347.537 90.429 345.502 88.4034 342.976 88.4034ZM342.946 100.779C342.946 101.031 342.738 101.238 342.485 101.238H332.248V91.9963H342.485C342.738 91.9963 342.946 92.2033 342.946 92.4547V100.779Z" fill="white"/>
<path d="M266.452 98.0871C266.319 96.5198 265.516 95.1151 264.268 94.0801C264.922 93.1782 265.353 92.084 265.427 90.9012C265.427 90.7829 265.457 89.6887 265.442 89.5409C265.175 86.1401 261.802 83.4639 257.701 83.4639C257.641 83.4639 252.426 83.4639 248.369 83.4639V87.116L243.689 88.9051V104.815H260.539C260.539 104.815 260.821 104.8 260.94 104.8C263.897 104.608 266.259 102.212 266.452 99.2108C266.467 99.063 266.452 98.235 266.452 98.0871ZM248.354 87.1012H258.28C258.577 87.1012 258.86 87.1603 259.112 87.2786C260.048 87.6483 260.717 88.565 260.717 89.6296C260.717 89.6296 260.702 89.9844 260.657 90.1619C260.524 90.9751 259.974 91.6257 259.246 91.9214C258.919 92.0693 258.562 92.158 258.176 92.158H248.354V87.1012ZM258.934 101.237H248.354V95.7805H258.934C260.449 95.7805 261.668 96.993 261.668 98.5011C261.668 100.024 260.449 101.237 258.934 101.237Z" fill="white"/>
<path d="M248.354 83.4486V79.0276L243.689 80.8167V85.2377L248.354 83.4486Z" fill="white"/>
<path d="M212.56 98.4442V131.077H231.222V105.748L212.56 98.4442Z" fill="white"/>
<path d="M212.56 79V95.3236L231.222 102.643V79H212.56Z" fill="white"/>
<path d="M191 111.647V79H209.663V104.328L191 111.647Z" fill="white"/>
<path d="M191 131.076V114.767L209.663 107.448V131.076H191Z" fill="white"/>
</svg>
