<svg width="128" height="128" viewBox="0 0 128 128" fill="none" xmlns="http://www.w3.org/2000/svg">
<path d="M99.7586 128H28.2414C12.6464 128 0 115.354 0 99.7586V28.2414C0 12.6464 12.6464 0 28.2414 0H99.7586C115.354 0 128 12.6464 128 28.2414V99.7586C128 115.354 115.354 128 99.7586 128Z" fill="#00AE42"/>
<path d="M65.7826 54.5925V101.264H92.3441V65.0528L65.7826 54.5925Z" fill="white"/>
<path d="M65.7826 26.7924V50.1337L92.3441 60.5939V26.7924H65.7826Z" fill="white"/>
<path d="M35.0999 73.4637V26.7924H61.6615V63.0147L35.0999 73.4637Z" fill="white"/>
<path d="M35.0999 101.264V77.9339L61.6615 67.4736V101.264H35.0999Z" fill="white"/>
</svg>
