<svg width="14" height="14" viewBox="0 0 14 14" fill="none" xmlns="http://www.w3.org/2000/svg">
<path fill-rule="evenodd" clip-rule="evenodd" d="M9.7212 3.81468L7.23212 1.3256C7.10398 1.19746 6.89622 1.19746 6.76808 1.3256L4.27899 3.81468C4.21746 3.87622 4.18289 3.95968 4.18289 4.0467C4.18289 4.22792 4.32979 4.37483 4.51101 4.37483L6.34377 4.37424L6.34385 8.96858L6.34826 9.04511C6.38617 9.37149 6.66355 9.62483 7.0001 9.62483C7.36253 9.62483 7.65635 9.33102 7.65635 8.96858L7.65627 4.37424L9.48918 4.37483C9.57621 4.37483 9.65967 4.34026 9.7212 4.27872C9.84934 4.15058 9.84934 3.94283 9.7212 3.81468ZM12.869 7.61875C12.869 7.27693 12.5919 6.99983 12.2501 6.99983C11.8924 6.99983 11.5914 7.26785 11.5501 7.62317L11.5306 7.76392C11.1667 9.9373 9.27683 11.5936 7.0001 11.5936C4.75084 11.5936 2.87915 9.97704 2.48345 7.84238L2.47787 7.81098L2.45226 7.62633C2.41148 7.26938 2.10937 6.99983 1.7501 6.99983L1.69071 7.00269C1.35085 7.03549 1.10193 7.33758 1.13474 7.67744L1.15 7.81514L1.18603 8.04498C1.67947 10.8084 4.09481 12.9061 7.0001 12.9061C9.97945 12.9061 12.4436 10.7001 12.8481 7.83235L12.8661 7.67925L12.869 7.61875Z" fill="white"/>
</svg>
