<svg width="734" height="762" viewBox="0 0 734 762" fill="none" xmlns="http://www.w3.org/2000/svg">
<g clip-path="url(#clip0_7_291)">
<rect x="16" y="58.6" width="35.7832" height="433.785" fill="#535656"/>
<path d="M27.8735 194.451H34.7735C35.5235 194.451 36.2735 195.051 36.2735 195.951V208.101H38.6735V194.601H44.8235C45.5735 194.601 46.3235 195.201 46.3235 196.101V208.251H48.7235V190.551H25.4735V207.951H27.8735V194.451V194.451Z" fill="#CFD2D3"/>
<path d="M43.0235 226.551V210.801H25.4735V214.701H41.0735V225.351H25.4735V229.251H40.3235C41.8235 229.251 43.0235 228.051 43.0235 226.551Z" fill="#CFD2D3"/>
<path d="M21.1247 251.151H40.1747C41.6747 251.151 42.8747 249.951 42.8747 248.451V234.501C42.8747 233.751 42.5747 233.151 42.1247 232.701C41.6747 232.251 40.9247 231.951 40.3247 231.951H28.0247C26.5247 231.951 25.3247 233.151 25.3247 234.651V247.251H20.3747V232.251H18.4247V248.601C18.4247 249.951 19.6247 251.151 21.1247 251.151ZM27.4247 235.851H40.7747V247.251H27.4247V235.851Z" fill="#CFD2D3"/>
<path d="M48.5759 253.999H46.6259V257.899H48.5759V253.999Z" fill="#CFD2D3"/>
<path d="M42.8735 253.999H25.4735V257.899H42.8735V253.999Z" fill="#CFD2D3"/>
<path d="M25.4735 275.15V279.05H40.3235C41.8235 279.05 43.0235 277.85 43.0235 276.35V260.6H25.4735V264.5H41.0735V275.15H25.4735V275.15Z" fill="#CFD2D3"/>
<path d="M25.4735 300.049H27.4235V285.799H32.6735V300.349H40.3235C41.8235 300.349 43.0235 299.149 43.0235 297.649V284.599C43.0235 283.099 41.8235 281.899 40.3235 281.899H28.1735C26.6735 281.899 25.4735 283.099 25.4735 284.599V300.049ZM34.6235 285.799H41.0735V296.449H34.6235V285.799Z" fill="#CFD2D3"/>
<path d="M25.4735 321.351H27.4235V307.101H32.6735V321.651H40.3235C41.8235 321.651 43.0235 320.451 43.0235 318.951V305.901C43.0235 304.401 41.8235 303.201 40.3235 303.201H28.1735C26.6735 303.201 25.4735 304.401 25.4735 305.901V321.351ZM34.6235 307.101H41.0735V317.751H34.6235V307.101Z" fill="#CFD2D3"/>
<path d="M25.4735 328.249H38.9735V336.199H42.7235V333.199C42.7235 331.699 41.9735 330.349 40.7735 329.449L38.9735 328.249H42.7235V324.499H25.4735V328.249Z" fill="#CFD2D3"/>
<path d="M48.5759 338.6H46.6259V342.5H48.5759V338.6Z" fill="#CFD2D3"/>
<path d="M42.8735 338.6H25.4735V342.5H42.8735V338.6Z" fill="#CFD2D3"/>
<path d="M25.4735 359.751V363.651H40.3235C41.8235 363.651 43.0235 362.451 43.0235 360.951V345.201H25.4735V349.101H41.0735V359.751H25.4735V359.751Z" fill="#CFD2D3"/>
<path d="M42.7247 383.149V369.199C42.7247 368.449 42.4247 367.849 41.9747 367.399C41.5247 366.949 40.7747 366.649 40.1747 366.649H28.0247C26.5247 366.649 25.3247 367.849 25.3247 369.349V381.949H20.3747V366.949H18.4247V383.149C18.4247 384.649 19.6247 385.849 21.1247 385.849H40.1747C41.6747 385.699 42.7247 384.499 42.7247 383.149ZM27.4247 370.399H40.7747V381.799H27.4247V370.399Z" fill="#CFD2D3"/>
<path d="M35.8235 420.951H46.0235C47.5235 420.951 48.5735 419.751 48.5735 418.401V399.201H25.4735V403.101H33.2735V418.551C33.2735 419.751 34.4735 420.951 35.8235 420.951ZM35.6735 402.951H46.1735V415.551C46.1735 416.301 45.5735 417.051 44.6735 417.051H37.0235C36.2735 417.051 35.5235 416.451 35.5235 415.551V402.951H35.6735Z" fill="#CFD2D3"/>
<path d="M25.4735 426.349V432.649H27.4235V427.549H48.7235V423.649H28.1735C26.6735 423.799 25.4735 424.999 25.4735 426.349Z" fill="#CFD2D3"/>
<path d="M33.2735 435.499H28.1735C26.6735 435.499 25.4735 436.699 25.4735 438.199V453.949H40.0235C41.6735 453.949 43.0235 452.149 43.0235 450.049V437.149H41.0735V450.049H35.9735V438.199C35.8235 436.699 34.6235 435.499 33.2735 435.499ZM33.8735 450.049H27.4235V439.399H33.8735V450.049Z" fill="#CFD2D3"/>
<path d="M42.8741 455.749H40.9241V459.649H28.0241C26.5241 459.649 25.3241 460.849 25.3241 462.349V467.449H27.4241V465.349C27.4241 464.449 28.1741 463.549 29.2241 463.549H40.9241V467.449H42.8741V463.549H48.5741V459.649H42.8741V455.749Z" fill="#CFD2D3"/>
<path d="M40.3235 488.001C41.8235 488.001 43.0235 486.801 43.0235 485.301V472.251C43.0235 470.751 41.8235 469.551 40.3235 469.551H28.1735C26.6735 469.551 25.4735 470.751 25.4735 472.251V487.701H27.4235V473.451H32.6735V488.001H40.3235ZM34.6235 473.451H41.0735V484.101H34.6235V473.451Z" fill="#CFD2D3"/>
<path d="M28.4735 84.8H36.4235C37.3235 84.8 38.2235 84.35 38.8235 83.75L38.9735 83.6H45.8735C47.5235 83.6 48.8735 82.25 48.8735 80.6V62.6H25.4735V81.8C25.4735 83.45 26.8235 84.8 28.4735 84.8ZM38.8235 67.4H45.4235V77.75C45.4235 78.2 44.9735 78.65 44.5235 78.65H39.7235C39.2735 78.65 38.8235 78.2 38.8235 77.75V67.4ZM28.9235 67.4H35.5235V79.1C35.5235 79.55 35.0735 80 34.6235 80H29.8235C29.2235 80 28.9235 79.55 28.9235 79.1V67.4Z" fill="#CFD2D3"/>
<path d="M43.6235 102.199V88.9994H40.6235V101.599H36.7235V90.6494C36.7235 88.9994 35.3735 87.4994 33.5735 87.4994H28.6235C26.9735 87.4994 25.4735 88.8494 25.4735 90.6494V106.549H40.1735C42.1235 106.549 43.6235 104.599 43.6235 102.199ZM33.7235 101.599H28.4735V92.4494H33.5735V101.599H33.7235Z" fill="#CFD2D3"/>
<path d="M43.6235 132.049V109.399H25.4735V114.349H40.6235V119.899H25.4735V124.699H40.6235V130.249H25.4735V135.199H40.4735C42.2735 135.199 43.6235 133.699 43.6235 132.049Z" fill="#CFD2D3"/>
<path d="M25.4735 153.5C25.4735 155.3 26.8235 156.65 28.6235 156.65H40.4735C42.1235 156.65 43.6235 155.3 43.6235 153.5V142.55H49.1735V137.6H25.4735V153.5ZM28.4735 142.55H40.6235V151.7H28.4735V142.55Z" fill="#CFD2D3"/>
<path d="M43.6235 172.699H28.3235V163.699H43.6235V158.899H28.4735C26.8235 158.899 25.4735 160.249 25.4735 161.899V177.199H43.6235V172.699Z" fill="#CFD2D3"/>
<path d="M537 756.4H535.2C534.9 756.4 534.6 756.7 534.6 757C534.6 757.3 534.9 757.6 535.2 757.6H537C537.3 757.6 537.6 757.3 537.6 757C537.6 756.6 537.3 756.4 537 756.4Z" fill="#CFD2D3"/>
<path d="M587.7 757.101H588.3V756.901H591.8V757.101H592.4V755.301H587.6V757.101H587.7ZM588.3 755.801H591.8V756.301H588.3V755.801Z" fill="#CFD2D3"/>
<path d="M627.501 732.801H211.901V733.801H627.501V732.801Z" fill="#CFD2D3"/>
<path d="M439.801 737.9L419.901 757.8H425.601L445.401 737.9H439.801Z" fill="#CFD2D3"/>
<path d="M451.101 737.9L431.301 757.8H436.901L456.801 737.9H451.101Z" fill="#CFD2D3"/>
<path d="M462.4 737.9L442.6 757.8H448.3L468.1 737.9H462.4Z" fill="#CFD2D3"/>
<path d="M473.801 737.9L453.901 757.8H459.601L479.401 737.9H473.801Z" fill="#CFD2D3"/>
<path d="M485.101 737.9L465.301 757.8H470.901L490.801 737.9H485.101Z" fill="#CFD2D3"/>
<path d="M496.5 737.9L476.6 757.8H482.3L502.1 737.9H496.5Z" fill="#CFD2D3"/>
<path d="M493.601 757.801L505.001 746.401V740.801L488.001 757.801H493.601Z" fill="#CFD2D3"/>
<path d="M505.001 757.802V752.102L499.301 757.802H505.001Z" fill="#CFD2D3"/>
<path d="M428.601 737.9L417.501 749V743.6L423.201 737.9H242.301C241.601 737.9 241.001 738.5 241.001 739.2V756.4C241.001 757.1 241.601 757.7 242.301 757.7H262.001H417.501V754.9V754.7L434.301 737.9H428.601ZM251.001 748C251.001 748.5 250.601 748.8 250.201 748.8H246.201V750.9H244.901V744.4H250.201C250.701 744.4 251.001 744.8 251.001 745.2V748ZM256.801 745.4H253.401C253.301 745.4 253.201 745.5 253.201 745.7V747.2H256.901V748.1H253.501C253.401 748.1 253.301 748.2 253.301 748.3V750H257.001V750.9H252.001V744.4H257.001V745.4H256.801ZM263.301 745.4H261.101V751H259.701V745.4H257.501V744.5H263.301V745.4ZM269.601 750.1C269.601 750.6 269.201 750.9 268.801 750.9H264.801C264.301 750.9 264.001 750.5 264.001 750.1V745.1C264.001 744.6 264.401 744.3 264.801 744.3H269.401V745.2H265.501C265.401 745.2 265.301 745.3 265.301 745.4V749.7C265.301 749.8 265.401 749.9 265.501 749.9H268.001C268.101 749.9 268.201 749.8 268.201 749.7V748H266.801V747H269.501V750.1H269.601ZM271.601 751H270.901L272.801 744.5H273.601L271.601 751ZM281.001 751H279.701V748.4H276.201V751H274.901V745.3C274.901 744.8 275.301 744.5 275.701 744.5H280.201C280.701 744.5 281.001 744.9 281.001 745.3V751ZM287.801 750.1C287.801 750.6 287.401 750.9 287.001 750.9H281.701V744.5H286.601C287.101 744.5 287.401 744.9 287.401 745.3V747.2C287.601 747.4 287.701 747.6 287.701 747.8V750.1H287.801ZM294.801 750.1C294.801 750.6 294.401 750.9 294.001 750.9H288.901V750H293.301C293.401 750 293.601 749.9 293.601 749.7V748.5C293.601 748.4 293.501 748.3 293.301 748.3H289.501C289.001 748.3 288.701 747.9 288.701 747.5V745.3C288.701 744.8 289.101 744.5 289.601 744.5H294.701V745.4H290.301C290.201 745.4 290.101 745.5 290.101 745.7V747.2C290.101 747.3 290.201 747.4 290.301 747.4H294.001C294.501 747.4 294.801 747.8 294.801 748.2V750.1ZM296.901 751H296.101L298.001 744.5H298.801L296.901 751ZM305.801 745.4H303.601V751H302.201V745.4H300.001V744.5H305.801V745.4ZM312.501 748C312.501 748.5 312.101 748.8 311.701 748.8H307.701V750.9H306.401V744.4H311.701C312.201 744.4 312.501 744.8 312.501 745.2V748ZM319.501 750.2C319.501 750.7 319.101 751.1 318.601 751.1H314.101C313.601 751.1 313.201 750.7 313.201 750.2V744.5H314.601V749.8C314.601 749.9 314.701 750 314.801 750H317.801C317.901 750 318.001 749.9 318.001 749.8V744.5H319.401V750.2H319.501ZM321.601 751H320.801L322.701 744.5H323.501L321.601 751ZM330.901 748C330.901 748.5 330.501 748.8 330.101 748.8H326.101V750.9H324.801V744.4H330.101C330.601 744.4 330.901 744.8 330.901 745.2V748ZM337.701 751H336.401V748.4H332.901V751H331.601V745.3C331.601 744.8 332.001 744.5 332.401 744.5H336.901C337.401 744.5 337.701 744.9 337.701 745.3V751ZM339.701 751H338.901L340.801 744.5H341.601L339.701 751ZM349.001 748C349.001 748.5 348.601 748.8 348.201 748.8H344.201V750.9H342.901V744.4H348.201C348.701 744.4 349.001 744.8 349.001 745.2V748ZM354.801 745.4H351.401C351.301 745.4 351.201 745.5 351.201 745.6V749.7C351.201 749.8 351.301 749.9 351.401 749.9H354.801V750.9H350.701C350.201 750.9 349.901 750.5 349.901 750.1V745.3C349.901 744.8 350.301 744.5 350.701 744.5H354.801V745.4ZM385.601 755.6H380.001V750.7L385.601 748.5V755.6ZM380.101 749.8V740H385.701V747.6L380.101 749.8ZM392.001 755.6H386.401V745.8L392.001 748V755.6ZM386.501 744.9V740H392.101V747.1L386.501 744.9ZM413.301 747.8V755.6H405.501H397.701V747.8V740H405.501H413.301V747.8Z" fill="#CFD2D3"/>
<path d="M544.3 743.901H547.2V743.201H543.7C543.3 743.201 543.1 743.501 543.1 743.801V747.601C543.1 748.001 543.4 748.201 543.7 748.201H546.7C547.1 748.201 547.3 747.901 547.3 747.601V745.201H545.2V745.901H546.3V747.301C546.3 747.401 546.2 747.501 546.1 747.501H544.2C544.1 747.501 544 747.401 544 747.301V744.001C544.1 744.001 544.2 743.901 544.3 743.901Z" fill="#CFD2D3"/>
<path d="M548.401 743.301V747.601C548.401 748.001 548.701 748.201 549.001 748.201H551.501V747.501H549.501C549.401 747.501 549.301 747.401 549.301 747.301V743.201H548.401V743.301Z" fill="#CFD2D3"/>
<path d="M556.201 747.401C556.201 747.501 556.101 747.601 556.001 747.601H553.701C553.601 747.601 553.501 747.501 553.501 747.401V743.301H552.501V747.601C552.501 748.001 552.801 748.201 553.101 748.201H556.501C556.901 748.201 557.101 747.901 557.101 747.601V743.301H556.101V747.401H556.201Z" fill="#CFD2D3"/>
<path d="M558.202 748.3H562.002V747.6H559.202V746.3C559.202 746.2 559.302 746.1 559.402 746.1H562.002V745.4H559.202V744.3C559.202 744.2 559.302 744.1 559.402 744.1H562.002V743.4H558.202V748.3Z" fill="#CFD2D3"/>
<path d="M566.701 744.001H570.001V743.301H566.101C565.701 743.301 565.401 743.601 565.401 743.901V745.501C565.401 745.801 565.701 746.101 566.001 746.101H568.901C569.001 746.101 569.101 746.201 569.101 746.301V747.201C569.101 747.301 569.001 747.401 568.901 747.401H565.601V748.101H569.501C569.901 748.101 570.101 747.801 570.101 747.501V746.001C570.101 745.601 569.801 745.401 569.501 745.401H566.601C566.501 745.401 566.401 745.301 566.401 745.201V744.101C566.601 744.101 566.601 744.001 566.701 744.001Z" fill="#CFD2D3"/>
<path d="M573.902 748.301V744.001H575.602V743.301H571.202V744.001H572.902V748.301H573.902Z" fill="#CFD2D3"/>
<path d="M577.6 743.301H576.6V748.301H577.6V743.301Z" fill="#CFD2D3"/>
<path d="M582.3 747.601H579.7C579.6 747.601 579.5 747.501 579.5 747.401V744.201C579.5 744.101 579.6 744.001 579.7 744.001H582.3V743.301H579.2C578.8 743.301 578.6 743.601 578.6 743.901V747.601C578.6 748.001 578.9 748.201 579.2 748.201H582.3V747.601Z" fill="#CFD2D3"/>
<path d="M586.701 745.701L587.601 743.301H586.601L585.801 745.301H584.301V743.301H583.301V748.301H584.301V746.001H585.801L586.701 748.301H587.701L586.701 745.701Z" fill="#CFD2D3"/>
<path d="M591.301 743.901V747.601C591.301 748.001 591.601 748.201 591.901 748.201H595.001V747.501H592.401C592.301 747.501 592.201 747.401 592.201 747.301V744.101C592.201 744.001 592.301 743.901 592.401 743.901H595.001V743.201H591.901C591.601 743.301 591.301 743.601 591.301 743.901Z" fill="#CFD2D3"/>
<path d="M600.1 743.301H596.7C596.3 743.301 596.1 743.601 596.1 743.901V748.201H597.1V746.201H599.8V748.201H600.8V743.901C600.7 743.601 600.4 743.301 600.1 743.301ZM599.7 745.601H597V744.201C597 744.101 597.1 744.001 597.2 744.001H599.5C599.6 744.001 599.7 744.101 599.7 744.201V745.601Z" fill="#CFD2D3"/>
<path d="M602.702 744.501L605.302 748.301H606.402V743.301H605.402V747.101L602.802 743.301H601.702V748.301H602.702V744.501Z" fill="#CFD2D3"/>
<path d="M609.901 743.301V748.301H610.901V746.101H613.201V748.301H614.201V743.301H613.201V745.401H610.901V743.301H609.901Z" fill="#CFD2D3"/>
<path d="M616.402 744.001H619.002V743.301H615.202V748.301H619.002V747.601H616.202V746.301C616.202 746.201 616.302 746.101 616.402 746.101H619.002V745.401H616.202V744.301C616.202 744.101 616.302 744.001 616.402 744.001Z" fill="#CFD2D3"/>
<path d="M620.901 747.401V743.301H619.901V747.601C619.901 748.001 620.201 748.201 620.501 748.201H623.001V747.501H621.001C621.001 747.601 620.901 747.501 620.901 747.401Z" fill="#CFD2D3"/>
<path d="M628.101 743.301H624.001V748.301H625.001V746.701H628.001C628.401 746.701 628.601 746.401 628.601 746.101V744.001C628.801 743.601 628.501 743.301 628.101 743.301ZM627.701 745.801C627.701 745.901 627.601 746.001 627.501 746.001H625.001V744.001H627.501C627.601 744.001 627.701 744.101 627.701 744.201V745.801Z" fill="#CFD2D3"/>
<path d="M601.901 747.501H600.901V748.301H601.901V747.501Z" fill="#CFD2D3"/>
<path d="M533.001 756.402H526.201L536.001 746.602C536.701 745.902 536.701 744.702 536.001 744.002L531.001 739.002C530.301 738.302 529.101 738.302 528.401 739.002L516.501 750.902C516.201 751.202 516.001 751.702 516.001 752.202C516.001 752.702 516.201 753.102 516.501 753.502L520.501 757.502H521.401H522.801H525.101H533.101C533.401 757.502 533.701 757.202 533.701 756.902C533.701 756.602 533.301 756.402 533.001 756.402ZM529.101 739.702C529.401 739.402 529.801 739.402 530.101 739.702L535.101 744.702C535.401 745.002 535.401 745.402 535.101 745.702L527.501 753.302L521.501 747.302L529.101 739.702ZM524.501 756.402H521.201H520.901L517.201 752.702C517.101 752.602 517.001 752.402 517.001 752.202C517.001 752.002 517.101 751.802 517.201 751.702L520.701 748.202L526.701 754.202L524.501 756.402Z" fill="#CFD2D3"/>
<path d="M545.501 752.701V752.601C545.601 752.401 545.601 752.301 545.701 752.101H548.801V751.501H545.901C545.901 751.401 546.001 751.101 546.101 750.801L545.401 750.701C545.401 750.801 545.301 751.101 545.201 751.501H543.301V752.101H545.001C544.901 752.301 544.901 752.501 544.701 752.901H542.901V753.501H544.501C544.401 753.801 544.201 754.101 544.101 754.301V754.801H547.501C547.101 755.201 546.701 755.601 546.301 755.901C545.301 755.501 544.501 755.301 544.001 755.101L543.801 755.701C544.401 755.901 545.101 756.101 545.901 756.401C546.701 756.701 547.401 757.001 548.001 757.201L548.301 756.601C548.001 756.501 547.601 756.301 547.001 756.101C547.601 755.601 548.001 755.201 548.401 754.701V754.101H544.901C545.001 753.901 545.101 753.701 545.201 753.401H549.101V752.801H545.401C545.401 752.801 545.401 752.701 545.501 752.701Z" fill="#CFD2D3"/>
<path d="M550.802 753.9C550.802 754.4 550.802 754.9 550.802 755.1C550.802 755.4 550.702 755.7 550.602 755.9C550.502 756.1 550.402 756.4 550.202 756.8L550.802 757.1C551.002 756.7 551.202 756.4 551.302 756C551.402 755.7 551.502 755.3 551.502 754.9H553.202V756.8H553.802V755H555.502V755.9C555.502 756.1 555.502 756.2 555.402 756.2C555.402 756.3 555.302 756.3 555.102 756.3C554.902 756.3 554.702 756.3 554.402 756.2L554.502 756.9C554.802 756.9 555.002 756.9 555.202 756.9C555.402 756.9 555.602 756.9 555.802 756.8C555.902 756.8 556.002 756.7 556.102 756.5C556.202 756.4 556.202 756.2 556.202 756V751H551.002V753.9H550.802ZM553.802 751.6H555.502V752.7H553.802V751.6ZM553.802 753.4H555.502V754.4H553.802V753.4ZM551.502 751.6H553.102V752.7H551.502V751.6ZM551.502 754.1V753.3H553.102V754.3H551.502V754.1Z" fill="#CFD2D3"/>
<path d="M563.201 753.802L562.601 753.602C562.401 754.102 562.201 754.602 562.001 754.902C561.801 754.602 561.601 754.102 561.401 753.602L560.801 753.802C561.001 754.402 561.301 755.002 561.601 755.402C561.201 755.802 560.701 756.202 560.001 756.502L560.401 757.102C561.101 756.802 561.601 756.402 562.001 755.902C562.401 756.302 563.001 756.702 563.601 757.002L564.001 756.402C563.301 756.102 562.801 755.802 562.401 755.402C562.701 755.002 562.901 754.502 563.201 753.802Z" fill="#CFD2D3"/>
<path d="M560.401 754.201C560.801 753.701 561.201 753.201 561.601 752.601L561.101 752.301C560.701 752.901 560.301 753.401 560.001 753.901L560.401 754.201Z" fill="#CFD2D3"/>
<path d="M557.901 753.7C557.901 754.3 557.901 754.8 557.901 755.2C557.901 755.6 557.801 755.9 557.701 756.1C557.601 756.3 557.501 756.6 557.401 756.9L558.001 757.2C558.201 756.9 558.301 756.6 558.401 756.2C558.501 755.8 558.501 755.4 558.601 754.9H559.401V756.1C559.401 756.2 559.401 756.3 559.401 756.4C559.401 756.5 559.301 756.5 559.201 756.5C559.001 756.5 558.901 756.5 558.701 756.5L558.801 757.1C559.001 757.1 559.201 757.1 559.301 757.1C559.601 757.1 559.701 757 559.801 756.9C559.901 756.8 560.001 756.6 560.001 756.3V751H558.001V753.7H557.901ZM558.501 751.7H559.301V752.7H558.501V751.7ZM558.501 754V753.3H559.301V754.3H558.501V754Z" fill="#CFD2D3"/>
<path d="M562.301 752.601C562.601 753.001 563.001 753.501 563.501 754.101L564.001 753.701C563.601 753.201 563.201 752.701 562.801 752.201L562.301 752.601Z" fill="#CFD2D3"/>
<path d="M563.702 751.502H562.302C562.202 751.102 562.002 750.802 562.002 750.602L561.402 750.802C561.502 751.102 561.602 751.302 561.702 751.602H560.202V752.202H563.702V751.502Z" fill="#CFD2D3"/>
<path d="M570.101 753.801H571.201V753.301H568.801C568.801 753.201 568.901 753.101 569.001 752.901H570.901V752.401H569.101C569.101 752.301 569.201 752.201 569.201 751.901H571.001V751.401H569.201L569.301 750.801H568.701C568.701 751.001 568.701 751.201 568.601 751.401H567.101V751.901H568.501L568.401 752.401H567.201V752.901H568.201C568.201 753.001 568.101 753.201 568.001 753.301H566.901V753.801H567.701C567.401 754.301 567.001 754.701 566.401 755.101L566.701 755.601C567.001 755.301 567.301 755.101 567.601 754.801V755.201H568.501V755.701H567.001V756.201H568.501V757.101H569.101V756.201H570.601V755.701H569.101V755.201H570.001V754.801C570.301 755.101 570.601 755.401 570.901 755.601L571.201 755.101C570.901 754.901 570.701 754.801 570.501 754.601C570.501 754.301 570.301 754.001 570.101 753.801ZM569.301 754.601V754.001H568.701V754.601H567.901C568.101 754.301 568.301 754.001 568.501 753.701H569.501C569.701 754.001 569.901 754.301 570.101 754.601H569.301Z" fill="#CFD2D3"/>
<path d="M566.802 754.501L567.102 754.001C566.802 753.601 566.502 753.301 566.302 753.001V752.601H567.002V752.001H566.302V750.701H565.702V752.001H564.902V752.601H565.602C565.502 753.001 565.302 753.401 565.202 753.801C565.002 754.201 564.902 754.601 564.702 754.901L565.002 755.601C565.202 755.201 565.502 754.701 565.702 754.201V757.101H566.302V753.901C566.502 754.101 566.602 754.301 566.702 754.401L566.802 754.501Z" fill="#CFD2D3"/>
<path d="M575.901 752.602H573.001V755.402H575.901V752.602ZM575.301 754.902H573.601V753.302H575.301V754.902Z" fill="#CFD2D3"/>
<path d="M572.301 751.7H577.101V755.8C577.101 756 577.101 756.2 577.001 756.3C576.901 756.4 576.801 756.4 576.601 756.4C576.301 756.4 576.001 756.4 575.601 756.3L575.701 756.9C576.001 756.9 576.301 756.9 576.601 756.9C576.901 756.9 577.101 756.9 577.301 756.8C577.501 756.7 577.601 756.6 577.601 756.5C577.601 756.4 577.701 756.1 577.701 755.9V751.6H578.601V751H572.301V751.7Z" fill="#CFD2D3"/>
<path d="M582.102 755.101L580.502 755.901V754.001H582.002V751.201H579.702V751.901H581.402V753.401H579.902V756.001C579.902 756.101 579.802 756.301 579.702 756.401L580.002 757.001C580.102 756.901 580.402 756.801 580.702 756.601C581.202 756.401 581.702 756.101 582.302 755.901L582.102 755.101Z" fill="#CFD2D3"/>
<path d="M585 754.002C585.2 753.502 585.3 753.002 585.3 752.402H585.8V751.702H583.6C583.7 751.402 583.8 751.102 583.9 750.702L583.2 750.602C583.1 751.002 583 751.502 582.7 752.002C582.5 752.502 582.2 752.902 582 753.302L582.4 753.802C582.5 753.602 582.6 753.502 582.7 753.402C582.9 754.002 583.1 754.602 583.5 755.202C583.1 755.702 582.4 756.102 581.6 756.602L582 757.202C582.8 756.702 583.4 756.302 583.9 755.802C584.3 756.302 584.9 756.802 585.5 757.202L585.9 756.602C585.2 756.202 584.7 755.802 584.3 755.302C584.7 754.802 584.9 754.402 585 754.002ZM583.3 752.602L583.4 752.302H584.7C584.6 752.802 584.6 753.202 584.4 753.602C584.3 754.002 584.1 754.302 583.9 754.602C583.6 754.102 583.4 753.402 583.3 752.602Z" fill="#CFD2D3"/>
<path d="M592.2 753.701H593.1V753.201H590.4V752.801H592.7V752.301H590.4V751.901H593V751.401H591.5C591.6 751.201 591.7 751.101 591.8 751.001L591.9 750.901L591.3 750.701C591.2 750.901 591 751.201 590.8 751.501H589.5C589.4 751.401 589.3 751.101 589.1 750.801L588.5 751.001C588.5 751.101 588.6 751.201 588.7 751.401C588.7 751.401 588.7 751.401 588.7 751.501C588.7 751.501 588.7 751.601 588.8 751.601H587.3V752.101H589.9V752.501H587.6V753.001H589.9V753.401H587.2V753.901H588.1C588.2 754.101 588.3 754.301 588.4 754.501H587.1V755.001H593.4V754.501H591.9C592 754.201 592.1 754.001 592.2 753.701ZM589.8 754.401H588.9L588.6 753.801H589.8V754.401ZM591.3 754.401H590.4V753.801H591.6C591.5 753.901 591.4 754.101 591.3 754.401Z" fill="#CFD2D3"/>
<path d="M598.9 750.701H598.2V753.701H597.1V757.101H597.7V756.701H599.6V757.101H600.2V753.701H598.9V752.401H600.6V751.801H598.9V750.701ZM599.6 754.301V756.001H597.7V754.301H599.6Z" fill="#CFD2D3"/>
<path d="M597.2 751.401L596.7 751.201C596.6 751.401 596.6 751.701 596.4 751.901C596.2 752.101 596.2 752.401 596.1 752.601L596.6 752.801C596.7 752.601 596.8 752.401 596.9 752.101C597 751.801 597.1 751.601 597.2 751.401Z" fill="#CFD2D3"/>
<path d="M594.801 751.201L594.301 751.401C594.401 751.601 594.501 751.801 594.601 752.101C594.701 752.401 594.801 752.601 594.801 752.801L595.301 752.601C595.201 752.401 595.201 752.101 595.101 751.801C594.901 751.601 594.901 751.301 594.801 751.201Z" fill="#CFD2D3"/>
<path d="M596 750.701H595.4V753.101H594.2V753.701H595.3C595.2 754.001 595 754.301 594.8 754.701C594.6 755.001 594.4 755.301 594.1 755.601L594.5 756.201C594.9 755.701 595.2 755.201 595.4 754.701V757.101H596V754.901C596.2 755.101 596.4 755.301 596.6 755.601L597 755.101C596.7 754.801 596.4 754.401 596 754.101V753.701H597V753.101H596V750.701Z" fill="#CFD2D3"/>
<path d="M603.6 753.401C603.4 753.501 603.2 753.501 603.1 753.601V752.501H603.7V751.901H603.1V750.701H602.5V751.901H601.7V752.501H602.5V753.801C602.2 753.901 601.9 754.001 601.6 754.101L601.7 754.701L602.5 754.401V756.001C602.5 756.101 602.5 756.201 602.4 756.201C602.4 756.201 602.3 756.301 602.2 756.301C602 756.301 601.8 756.301 601.7 756.301L601.8 756.901C602 756.901 602.2 756.901 602.4 756.901C602.6 756.901 602.7 756.901 602.8 756.801C602.9 756.801 603 756.701 603 756.601C603 756.501 603.1 756.301 603.1 756.101V754.101L603.6 753.901V753.401Z" fill="#CFD2D3"/>
<path d="M607.102 751.902H607.802V751.302H606.302C606.302 751.202 606.202 751.102 606.202 751.102C606.202 751.002 606.102 751.002 606.102 750.902C606.102 750.802 606.002 750.702 606.002 750.602L605.302 750.802C605.402 750.902 605.402 751.102 605.502 751.402H603.902V752.002H604.502L604.702 752.902H603.702V753.502H607.902V752.902H606.902L607.102 751.902ZM606.202 752.802H605.302L605.102 751.902H606.402C606.402 752.202 606.302 752.502 606.202 752.802Z" fill="#CFD2D3"/>
<path d="M605.701 753.6L605.101 753.5C605.101 753.6 605.001 753.9 604.801 754.1H603.601V754.7H604.501C604.301 755 604.201 755.2 604.001 755.4C604.501 755.6 604.901 755.8 605.301 755.9C604.901 756.1 604.301 756.3 603.501 756.4L603.701 757C604.201 756.9 604.701 756.8 605.001 756.6C605.401 756.5 605.701 756.3 605.901 756.1C606.401 756.3 606.901 756.6 607.501 756.9L607.801 756.3C607.401 756.1 607.001 755.9 606.401 755.6C606.701 755.3 606.901 754.9 607.101 754.5H607.801V753.9H605.301C605.601 753.9 605.601 753.8 605.701 753.6ZM606.601 754.7C606.401 755.1 606.201 755.4 606.001 755.6C605.601 755.4 605.201 755.3 605.001 755.2C605.101 755.1 605.201 754.9 605.301 754.7H606.601Z" fill="#CFD2D3"/>
<path d="M612.401 756.901H613.001V756.301H614.401V756.801H615.001V751.201H612.301V756.901H612.401ZM613.001 751.901H614.401V755.701H613.001V751.901Z" fill="#CFD2D3"/>
<path d="M610.901 753.501V753.201H612.001V752.601H610.901V751.601C611.401 751.501 611.701 751.401 611.901 751.401L611.701 750.801C611.301 750.901 610.901 751.001 610.401 751.101C609.901 751.201 609.401 751.301 609.001 751.301L609.101 751.901C609.401 751.901 609.701 751.801 610.101 751.801V752.601H608.901V753.201H610.001C609.901 753.501 609.701 753.901 609.501 754.301C609.301 754.701 609.101 755.001 608.801 755.301L609.201 755.901C609.601 755.401 609.901 754.801 610.201 754.201V757.101H610.801V754.301C611.101 754.601 611.301 754.901 611.601 755.201L612.001 754.701C611.701 754.301 611.301 753.901 610.901 753.501Z" fill="#CFD2D3"/>
<path d="M620.401 751.702C620.301 751.502 620.201 751.302 620.101 751.102C620.001 750.902 619.901 750.802 619.801 750.602L619.301 750.902C619.401 751.002 619.401 751.102 619.601 751.302C619.701 751.502 619.801 751.702 619.901 751.902L620.401 751.702Z" fill="#CFD2D3"/>
<path d="M616.701 753.601C616.701 754.201 616.701 754.701 616.701 755.101C616.701 755.501 616.601 755.701 616.601 756.001C616.501 756.201 616.401 756.501 616.301 756.801L616.801 757.101C617.001 756.801 617.101 756.401 617.201 756.101C617.301 755.801 617.301 755.401 617.401 754.901H618.101V756.101C618.101 756.201 618.101 756.301 618.001 756.401C618.001 756.401 617.901 756.501 617.801 756.501C617.701 756.501 617.601 756.501 617.401 756.501L617.501 757.101C617.701 757.101 617.901 757.101 618.001 757.101C618.201 757.101 618.401 757.001 618.501 756.901C618.601 756.801 618.601 756.601 618.601 756.401V751.201H616.701V753.601ZM617.301 751.701H618.001V752.701H617.301V751.701ZM617.301 753.301H618.001V754.301H617.301V753.301Z" fill="#CFD2D3"/>
<path d="M622.201 755.602C622.201 755.802 622.201 756.002 622.201 756.002C622.201 756.102 622.201 756.202 622.201 756.302C622.201 756.402 622.101 756.402 622.001 756.402H621.901H621.801C621.701 756.402 621.701 756.402 621.601 756.302C621.601 756.202 621.601 756.202 621.601 756.002V754.402H622.401V752.002H621.601C621.801 751.702 621.901 751.402 622.001 751.202L622.201 750.902L621.601 750.602C621.501 750.802 621.401 751.002 621.301 751.202C621.201 751.502 621.001 751.702 620.901 751.902H619.201V754.402H619.801C619.801 754.802 619.801 755.102 619.701 755.302C619.601 755.502 619.501 755.802 619.401 755.902C619.201 756.102 619.001 756.302 618.801 756.402L619.201 756.902C619.501 756.702 619.701 756.402 619.901 756.202C620.101 756.002 620.201 755.702 620.301 755.402C620.401 755.102 620.401 754.702 620.401 754.302H621.001V756.002C621.001 756.302 621.001 756.402 621.101 756.602C621.201 756.702 621.301 756.802 621.501 756.802C621.601 756.802 621.701 756.802 621.801 756.802C621.901 756.802 622.001 756.802 622.101 756.802C622.301 756.802 622.501 756.702 622.601 756.602C622.701 756.502 622.801 756.302 622.801 756.102C622.801 756.002 622.801 755.802 622.801 755.602C622.801 755.402 622.801 755.302 622.801 755.202V755.002L622.201 754.902C622.201 755.302 622.201 755.402 622.201 755.602ZM619.701 753.902V752.602H621.601V753.902H619.701Z" fill="#CFD2D3"/>
<path d="M628.402 755.6H630.002V755H628.202V754.7H629.602V752.5H626.202V754.7H627.602C627.602 754.9 627.602 755 627.602 755V755.1H625.802V755.6H627.402C627.302 755.8 627.102 756 626.802 756.1C626.502 756.3 626.102 756.4 625.702 756.5L625.902 757.1C626.902 756.8 627.602 756.4 627.902 755.9C628.302 756.5 629.002 756.9 629.902 757.1L630.102 756.5C629.702 756.4 629.302 756.3 629.002 756.1C628.802 756 628.502 755.8 628.402 755.6ZM626.802 752.9H629.102V753.3H626.802V752.9ZM626.802 754.1V753.7H629.102V754.1H626.802Z" fill="#CFD2D3"/>
<path d="M628.401 750.701V751.301H627.401V750.701H626.801V751.301H625.901V751.801H626.801V752.201H627.401V751.801H628.401V752.201H629.001V751.801H630.001V751.301H629.001V750.701H628.401Z" fill="#CFD2D3"/>
<path d="M625.4 753.201L625.2 752.901V752.501H625.9V752.001H625.2V750.701H624.6V752.001H623.8V752.601H624.6C624.5 753.001 624.3 753.401 624.2 753.801C624 754.201 623.8 754.601 623.6 754.901L624 755.501C624.3 755.101 624.5 754.601 624.7 753.901V757.101H625.3V753.801C625.6 754.201 625.7 754.401 625.8 754.501L626.1 753.901L625.4 753.201Z" fill="#CFD2D3"/>
<path d="M329.3 745.4H326.1V747.9H329.4C329.5 747.9 329.6 747.8 329.6 747.7V745.6C329.5 745.5 329.4 745.4 329.3 745.4Z" fill="#CFD2D3"/>
<path d="M336.101 745.4H333.101C333.001 745.4 332.901 745.5 332.901 745.7V747.5H336.401V745.7C336.301 745.5 336.201 745.4 336.101 745.4Z" fill="#CFD2D3"/>
<path d="M286.2 747.102V745.802C286.2 745.702 286.1 745.602 286 745.602H283.1V747.402H286C286.1 747.302 286.2 747.202 286.2 747.102Z" fill="#CFD2D3"/>
<path d="M347.402 745.4H344.202V747.9H347.502C347.602 747.9 347.702 747.8 347.702 747.7V745.6C347.702 745.5 347.602 745.4 347.402 745.4Z" fill="#CFD2D3"/>
<path d="M286.3 748.201H283.1V750.001H286.3C286.4 750.001 286.5 749.901 286.5 749.801V748.501C286.5 748.301 286.4 748.201 286.3 748.201Z" fill="#CFD2D3"/>
<path d="M311.001 745.4H307.801V747.9H311.101C311.201 747.9 311.301 747.8 311.301 747.7V745.6C311.201 745.5 311.101 745.4 311.001 745.4Z" fill="#CFD2D3"/>
<path d="M279.402 745.4H276.402C276.302 745.4 276.202 745.5 276.202 745.7V747.5H279.702V745.7C279.602 745.5 279.502 745.4 279.402 745.4Z" fill="#CFD2D3"/>
<path d="M249.402 745.4H246.202V747.9H249.502C249.602 747.9 249.702 747.8 249.702 747.7V745.6C249.702 745.5 249.602 745.4 249.402 745.4Z" fill="#CFD2D3"/>
<path d="M400.301 745.201V749.101V753.001H401.601H402.901V750.401V747.801H405.501H408.101V749.101V750.401H409.401H410.701V747.801V745.201H405.501H400.301Z" fill="#CFD2D3"/>
<path d="M405.501 750.4V751.7V753H406.801H408.101V751.7V750.4H406.801H405.501Z" fill="#CFD2D3"/>
</g>
<defs>
<clipPath id="clip0_7_291">
<rect width="733.3" height="761.7" fill="white"/>
</clipPath>
</defs>
</svg>
