<svg width="734" height="763" viewBox="0 0 734 763" fill="none" xmlns="http://www.w3.org/2000/svg">
<g clip-path="url(#clip0_8328_31992)">
<rect x="14.3945" y="50.543" width="21.2129" height="546.016" fill="#535656"/>
<path d="M24.2992 142.024H17.1992V139.424H32.5992V142.024H25.8992V149.924H32.5992V152.524H17.1992V149.924H24.2992V142.024Z" fill="#CFD2D3"/>
<path d="M28.8992 154.424V157.024H17.1992V154.424H28.8992ZM32.5992 154.424V157.024H31.2992V154.424H32.5992Z" fill="#CFD2D3"/>
<path d="M27 158.924C27.5 158.924 27.9 159.124 28.2 159.424C28.5 159.724 28.7 160.224 28.7 160.624V169.924C28.7 170.924 27.9 171.724 26.9 171.724H14.3C13.3 171.724 12.5 170.924 12.5 169.924V159.124H13.8V169.124H17.1V160.724C17.1 159.724 17.9 158.924 18.9 158.924H27ZM27.4 169.124V161.524H18.5V169.124H27.4Z" fill="#CFD2D3"/>
<path d="M32.5992 173.623V176.223H28.7992V184.023C28.7992 185.023 27.9992 185.823 26.9992 185.823H17.1992V183.223H27.4992V176.223H17.1992V173.623H32.5992Z" fill="#CFD2D3"/>
<path d="M17.1992 200.123H30.9992V194.623H32.5992V208.223H30.9992V202.723H17.1992V200.123Z" fill="#CFD2D3"/>
<path d="M27.1992 209.623C28.1992 209.623 28.9992 210.423 28.9992 211.423V220.123C28.9992 221.123 28.1992 221.923 27.1992 221.923H21.9992V212.223H18.4992V221.723H17.1992V211.423C17.1992 210.423 17.9992 209.623 18.9992 209.623H27.1992ZM27.5992 212.223H23.2992V219.323H27.5992V212.223Z" fill="#CFD2D3"/>
<path d="M28.8992 223.825V238.925C28.8992 239.925 28.0992 240.725 27.0992 240.725H17.1992V238.125H27.2992H27.4992V233.625H17.1992V230.925H27.5992V226.325H17.1992V223.725H28.8992V223.825Z" fill="#CFD2D3"/>
<path d="M28.8 242.623V253.023C28.8 254.023 28 254.823 27 254.823H18.9C17.9 254.823 17.1 254.023 17.1 253.023V245.223H12.5V242.623H28.8ZM27.5 245.223H18.5V252.223H27.5V245.223Z" fill="#CFD2D3"/>
<path d="M27.1992 256.424C28.1992 256.424 28.9992 257.224 28.9992 258.224V266.924C28.9992 267.924 28.1992 268.724 27.1992 268.724H21.9992V259.024H18.4992V268.524H17.1992V258.224C17.1992 257.224 17.9992 256.424 18.9992 256.424H27.1992ZM27.5992 259.024H23.2992V266.124H27.5992V259.024Z" fill="#CFD2D3"/>
<path d="M28.6992 276.423V278.423H26.1992V273.123H17.1992V270.623H28.6992V273.123H26.1992L27.3992 273.923C28.1992 274.523 28.6992 275.423 28.6992 276.423Z" fill="#CFD2D3"/>
<path d="M22.3992 280.023C23.3992 280.023 24.1992 280.823 24.1992 281.823V289.723H27.5992V281.123H28.8992V289.723C28.8992 291.123 27.9992 292.323 26.8992 292.323H17.1992V281.823C17.1992 280.823 17.9992 280.023 18.9992 280.023H22.3992ZM22.7992 282.623H18.4992V289.723H22.7992V282.623Z" fill="#CFD2D3"/>
<path d="M18.4992 300.324V301.724H17.1992V298.324C17.1992 297.324 17.9992 296.524 18.9992 296.524H27.4992V293.924H28.7992V296.524H32.5992V299.124H28.7992V301.724H27.4992V299.124H19.6992C19.0992 299.124 18.4992 299.724 18.4992 300.324Z" fill="#CFD2D3"/>
<path d="M17.1992 315.224V305.124C17.1992 304.224 17.9992 303.424 18.8992 303.424H28.8992V305.924H18.4992V312.724H28.8992V315.224H17.1992Z" fill="#CFD2D3"/>
<path d="M28.6992 322.724V324.724H26.1992V319.424H17.1992V316.924H28.6992V319.424H26.1992L27.3992 320.224C28.1992 320.724 28.6992 321.724 28.6992 322.724Z" fill="#CFD2D3"/>
<path d="M27.1992 326.324C28.1992 326.324 28.9992 327.124 28.9992 328.124V336.824C28.9992 337.824 28.1992 338.624 27.1992 338.624H21.9992V328.924H18.4992V338.424H17.1992V328.124C17.1992 327.124 17.9992 326.324 18.9992 326.324H27.1992ZM27.5992 328.924H23.2992V336.024H27.5992V328.924Z" fill="#CFD2D3"/>
<path d="M32.5992 347.524V360.324C32.5992 361.324 31.7992 362.024 30.8992 362.024H24.0992C23.0992 362.024 22.3992 361.224 22.3992 360.324V350.024H17.1992V347.424H32.5992V347.524ZM24.9992 359.424H30.0992C30.5992 359.424 31.0992 359.024 31.0992 358.424V350.024H24.0992V358.424C23.9992 359.024 24.4992 359.424 24.9992 359.424Z" fill="#CFD2D3"/>
<path d="M18.9992 363.924H32.7992V366.524H18.5992V369.924H17.1992V365.724C17.1992 364.724 17.9992 363.924 18.9992 363.924Z" fill="#CFD2D3"/>
<path d="M22.3992 371.824C23.3992 371.824 24.1992 372.624 24.1992 373.624V381.524H27.5992V372.924H28.8992V381.524C28.8992 382.924 27.9992 384.124 26.8992 384.124H17.1992V373.624C17.1992 372.624 17.9992 371.824 18.9992 371.824H22.3992ZM22.7992 374.424H18.4992V381.524H22.7992V374.424Z" fill="#CFD2D3"/>
<path d="M18.4992 391.625V393.025H17.1992V389.625C17.1992 388.625 17.9992 387.825 18.9992 387.825H27.4992V385.225H28.7992V387.825H32.5992V390.425H28.7992V393.025H27.4992V390.425H19.6992C19.0992 390.425 18.4992 391.025 18.4992 391.625Z" fill="#CFD2D3"/>
<path d="M27.1992 394.424C28.1992 394.424 28.9992 395.224 28.9992 396.224V404.924C28.9992 405.924 28.1992 406.724 27.1992 406.724H21.9992V397.024H18.4992V406.524H17.1992V396.224C17.1992 395.224 17.9992 394.424 18.9992 394.424H27.1992ZM27.5992 397.024H23.2992V404.124H27.5992V397.024Z" fill="#CFD2D3"/>
<path d="M32.7 54.0234V65.9234C32.7 67.0234 31.8 67.9234 30.7 67.9234H26L25.9 68.0234C25.5 68.5234 24.9 68.7234 24.3 68.7234H19C17.9 68.7234 17 67.8234 17 66.7234V54.0234H32.7ZM23.7 65.0234V57.2234H19.3V65.0234C19.3 65.3234 19.6 65.6234 19.9 65.6234H23.1C23.5 65.6234 23.7 65.3234 23.7 65.0234ZM26 64.2234C26 64.5234 26.3 64.8234 26.6 64.8234H29.8C30.1 64.8234 30.4 64.5234 30.4 64.2234V57.3234H26V64.2234Z" fill="#CFD2D3"/>
<path d="M22.4996 70.7231C23.5996 70.7231 24.5996 71.6231 24.5996 72.8231V80.123H27.1996V71.7231H29.1996V80.523C29.1996 82.123 28.1996 83.423 26.8996 83.423H17.0996V72.7231C17.0996 71.6231 17.9996 70.623 19.1996 70.623H22.4996V70.7231ZM22.4996 80.123V73.923H19.0996V80.023H22.4996V80.123Z" fill="#CFD2D3"/>
<path d="M27.0996 102.423H17.0996V99.1227H27.1996V95.4227H17.0996V92.2227H27.1996V88.5227H17.0996V85.2227H29.1996V100.323C29.1996 101.423 28.2996 102.423 27.0996 102.423Z" fill="#CFD2D3"/>
<path d="M32.8996 104.023V107.323H29.1996V114.623C29.1996 115.823 28.2996 116.723 27.0996 116.723H19.1996C18.0996 116.723 17.0996 115.823 17.0996 114.623V104.023H32.8996ZM27.1996 113.423V107.323H19.0996V113.423H27.1996Z" fill="#CFD2D3"/>
<path d="M29.1996 130.624H17.0996V120.424C17.0996 119.324 17.9996 118.424 19.0996 118.424H29.1996V121.624H18.9996V127.624H29.1996V130.624Z" fill="#CFD2D3"/>
<path d="M27.0988 433.325H31.1988V434.325H26.8988C26.4988 434.325 26.2988 434.025 26.2988 433.725V430.325C26.2988 429.925 26.5988 429.725 26.8988 429.725H31.1988V430.725H27.0988C26.9988 430.725 26.8988 430.825 26.8988 430.925V433.225C26.9988 433.225 26.9988 433.325 27.0988 433.325Z" fill="#CFD2D3"/>
<path d="M28.3988 440.024H26.8988C26.4988 440.024 26.2988 439.724 26.2988 439.424V435.524H26.9988V438.824C26.9988 438.924 27.0988 439.024 27.1988 439.024H28.0988C28.1988 439.024 28.2988 438.924 28.2988 438.824V435.924C28.2988 435.624 28.5988 435.324 28.8988 435.324H30.4988C30.8988 435.324 31.0988 435.624 31.0988 436.024V439.924H30.3988V436.624C30.3988 436.524 30.2988 436.424 30.1988 436.424H29.0988C28.9988 436.424 28.8988 436.524 28.8988 436.624V439.524C28.9988 439.724 28.6988 440.024 28.3988 440.024Z" fill="#CFD2D3"/>
<path d="M26.2988 441.025H31.2988V444.825H30.5988V442.225C30.5988 442.125 30.4988 442.025 30.3988 442.025H29.2988V444.825H28.5988V442.225C28.5988 442.125 28.4988 442.025 28.3988 442.025H26.9988V444.825H26.2988V441.025Z" fill="#CFD2D3"/>
<path d="M31.1988 448.324V452.424C31.1988 452.824 30.8988 453.024 30.5988 453.024H26.8988C26.4988 453.024 26.2988 452.724 26.2988 452.424V448.324H31.1988ZM30.4988 451.824V449.324H26.9988V451.824C26.9988 451.924 27.0988 452.024 27.1988 452.024H30.3988C30.3988 452.024 30.4988 451.924 30.4988 451.824Z" fill="#CFD2D3"/>
<path d="M26.2988 454.025H31.2988V457.825H30.5988V455.225C30.5988 455.125 30.4988 455.025 30.3988 455.025H29.2988V457.825H28.5988V455.225C28.5988 455.125 28.4988 455.025 28.3988 455.025H26.9988V457.825H26.2988V454.025Z" fill="#CFD2D3"/>
<path d="M26.2988 461.524V460.524H30.5988V458.824H31.2988V463.224H30.5988V461.524H26.2988Z" fill="#CFD2D3"/>
<path d="M26.2988 464.025H31.2988V467.825H30.5988V465.225C30.5988 465.125 30.4988 465.025 30.3988 465.025H29.2988V467.825H28.5988V465.225C28.5988 465.125 28.4988 465.025 28.3988 465.025H26.9988V467.825H26.2988V464.025Z" fill="#CFD2D3"/>
<path d="M31.3992 468.725V472.925C31.3992 473.325 31.0992 473.625 30.6992 473.625H28.5992C28.1992 473.625 27.8992 473.325 27.8992 472.925V472.725L26.1992 473.325V472.225L27.8992 471.625V469.825H26.1992V468.725H31.3992ZM28.7992 472.525H30.3992C30.4992 472.525 30.5992 472.425 30.5992 472.325V469.725H28.5992V472.325C28.5992 472.425 28.6992 472.525 28.7992 472.525Z" fill="#CFD2D3"/>
<path d="M26.8992 474.525H30.6992C30.9992 474.525 31.2992 474.825 31.2992 475.125V478.625H30.5992V475.725C30.5992 475.625 30.4992 475.525 30.3992 475.525H27.0992C26.9992 475.525 26.8992 475.625 26.8992 475.725V477.625C26.8992 477.725 26.9992 477.825 27.0992 477.825H28.4992V476.725H29.1992V478.825H26.7992C26.3992 478.825 26.1992 478.525 26.1992 478.225V475.225C26.2992 474.825 26.4992 474.525 26.8992 474.525Z" fill="#CFD2D3"/>
<path d="M26.2988 479.824H31.2988V483.624H30.5988V481.024C30.5988 480.924 30.4988 480.824 30.3988 480.824H29.2988V483.624H28.5988V481.024C28.5988 480.924 28.4988 480.824 28.3988 480.824H26.9988V483.624H26.2988V479.824Z" fill="#CFD2D3"/>
<path d="M26.2988 485.625V484.625H31.2988V485.725L27.4988 488.325H31.2988V489.325H26.2988V488.225L30.0988 485.625H26.2988Z" fill="#CFD2D3"/>
<path d="M26.2988 492.925V491.925H30.5988V490.225H31.2988V494.625H30.5988V492.925H26.2988Z" fill="#CFD2D3"/>
<path d="M26.2988 500.725V499.725H30.5988V498.025H31.2988V502.425H30.5988V500.725H26.2988Z" fill="#CFD2D3"/>
<path d="M30.6988 503.225C31.0988 503.225 31.2988 503.525 31.2988 503.825V507.225C31.2988 507.625 30.9988 507.825 30.6988 507.825H26.8988C26.4988 507.825 26.2988 507.525 26.2988 507.225V503.925C26.2988 503.525 26.5988 503.325 26.8988 503.325H30.6988V503.225ZM30.5988 506.725V504.425C30.5988 504.325 30.4988 504.225 30.3988 504.225H27.0988C26.9988 504.225 26.8988 504.325 26.8988 504.425V506.725C26.8988 506.825 26.9988 506.925 27.0988 506.925H30.3988C30.5988 506.925 30.5988 506.825 30.5988 506.725Z" fill="#CFD2D3"/>
<path d="M26.8992 511.525H30.5992C30.9992 511.525 31.1992 511.825 31.1992 512.125V515.225H30.4992V512.625C30.4992 512.525 30.3992 512.425 30.2992 512.425H27.0992C26.9992 512.425 26.8992 512.525 26.8992 512.625V515.225H26.1992V512.125C26.2992 511.825 26.5992 511.525 26.8992 511.525Z" fill="#CFD2D3"/>
<path d="M26.8992 516.225H31.1992V517.225H27.0992C26.9992 517.225 26.8992 517.325 26.8992 517.425V519.425H26.1992V516.925C26.2992 516.525 26.5992 516.225 26.8992 516.225Z" fill="#CFD2D3"/>
<path d="M26.2988 520.424H31.2988V524.224H30.5988V521.624C30.5988 521.524 30.4988 521.424 30.3988 521.424H29.2988V524.224H28.5988V521.624C28.5988 521.524 28.4988 521.424 28.3988 521.424H26.9988V524.224H26.2988V520.424Z" fill="#CFD2D3"/>
<path d="M30.5988 525.125C30.9988 525.125 31.1988 525.425 31.1988 525.725V529.125C31.1988 529.525 30.8988 529.725 30.5988 529.725H26.2988V528.725H28.2988V526.025H26.2988V525.025H30.5988V525.125ZM30.4988 528.625V526.325C30.4988 526.225 30.3988 526.125 30.2988 526.125H28.8988V528.825H30.2988C30.3988 528.825 30.4988 528.725 30.4988 528.625Z" fill="#CFD2D3"/>
<path d="M26.2988 531.824V530.824H31.2988V531.924L27.4988 534.524H31.2988V535.524H26.2988V534.424L30.0988 531.824H26.2988Z" fill="#CFD2D3"/>
<path d="M26.2988 541.725V540.725H30.5988V539.025H31.2988V543.425H30.5988V541.725H26.2988Z" fill="#CFD2D3"/>
<path d="M28.4988 547.524V545.324H26.2988V544.324H31.2988V545.324H29.1988V547.524H31.2988V548.524H26.2988V547.524H28.4988Z" fill="#CFD2D3"/>
<path d="M26.2988 549.525H31.2988V553.325H30.5988V550.725C30.5988 550.625 30.4988 550.525 30.3988 550.525H29.2988V553.325H28.5988V550.725C28.5988 550.625 28.4988 550.525 28.3988 550.525H26.9988V553.325H26.2988V549.525Z" fill="#CFD2D3"/>
<path d="M28.3988 561.524H26.8988C26.4988 561.524 26.2988 561.224 26.2988 560.924V557.024H26.9988V560.324C26.9988 560.424 27.0988 560.524 27.1988 560.524H28.0988C28.1988 560.524 28.2988 560.424 28.2988 560.324V557.424C28.2988 557.124 28.5988 556.824 28.8988 556.824H30.4988C30.8988 556.824 31.0988 557.124 31.0988 557.524V561.424H30.3988V558.124C30.3988 558.024 30.2988 557.924 30.1988 557.924H29.0988C28.9988 557.924 28.8988 558.024 28.8988 558.124V561.024C28.9988 561.224 28.6988 561.524 28.3988 561.524Z" fill="#CFD2D3"/>
<path d="M27.0988 566.225H31.1988V567.225H26.8988C26.4988 567.225 26.2988 566.925 26.2988 566.625V563.225C26.2988 562.825 26.5988 562.625 26.8988 562.625H31.1988V563.625H27.0988C26.9988 563.625 26.8988 563.725 26.8988 563.825V566.125C26.9988 566.125 26.9988 566.225 27.0988 566.225Z" fill="#CFD2D3"/>
<path d="M31.3992 568.225V572.425C31.3992 572.825 31.0992 573.125 30.6992 573.125H28.5992C28.1992 573.125 27.8992 572.825 27.8992 572.425V572.225L26.1992 572.825V571.725L27.8992 571.125V569.325H26.1992V568.225H31.3992ZM28.7992 571.925H30.3992C30.4992 571.925 30.5992 571.825 30.5992 571.725V569.125H28.5992V571.725C28.5992 571.925 28.6992 571.925 28.7992 571.925Z" fill="#CFD2D3"/>
<path d="M28.2988 575.025H26.2988V574.025H31.2988V578.025H30.5988V575.225C30.5988 575.125 30.4988 575.025 30.3988 575.025H29.2988V578.025H28.5988V575.225C28.4988 575.125 28.3988 575.025 28.2988 575.025Z" fill="#CFD2D3"/>
<path d="M30.5988 578.924C30.9988 578.924 31.1988 579.224 31.1988 579.524V582.924C31.1988 583.324 30.8988 583.524 30.5988 583.524H26.2988V582.524H28.2988V579.924H26.2988V578.924H30.5988ZM30.4988 582.424V580.124C30.4988 580.024 30.3988 579.924 30.2988 579.924H28.8988V582.624H30.2988C30.3988 582.624 30.4988 582.524 30.4988 582.424Z" fill="#CFD2D3"/>
<path d="M26.8992 584.625H30.5992C30.9992 584.625 31.1992 584.925 31.1992 585.225V588.325H30.4992V585.725C30.4992 585.625 30.3992 585.525 30.2992 585.525H27.0992C26.9992 585.525 26.8992 585.625 26.8992 585.725V588.325H26.1992V585.225C26.2992 584.925 26.5992 584.625 26.8992 584.625Z" fill="#CFD2D3"/>
<path d="M26.2988 589.324H31.2988V593.124H30.5988V590.524C30.5988 590.424 30.4988 590.324 30.3988 590.324H29.2988V593.124H28.5988V590.524C28.5988 590.424 28.4988 590.324 28.3988 590.324H26.9988V593.124H26.2988V589.324Z" fill="#CFD2D3"/>
<path d="M31.5992 417.725H17.1992V418.525H31.5992V417.725Z" fill="#CFD2D3"/>
<path d="M23.1012 435.923H22.5012V434.723H18.1012C17.8012 434.723 17.5012 434.623 17.4012 434.523C17.3012 434.423 17.2012 434.123 17.2012 433.823C17.2012 433.623 17.2012 433.323 17.2012 432.923L17.9012 432.823C17.9012 433.123 17.8012 433.423 17.8012 433.623C17.8012 433.823 17.8012 433.923 17.9012 433.923C18.0012 433.923 18.1012 434.023 18.2012 434.023H22.4012V432.323H23.0012V435.923H23.1012ZM20.2012 432.223C20.2012 432.223 20.2012 432.123 20.1012 432.023L19.9012 431.323H18.1012C17.9012 431.323 17.7012 431.323 17.6012 431.223C17.5012 431.123 17.4012 431.123 17.4012 430.923C17.4012 430.823 17.3012 430.623 17.3012 430.323C17.3012 430.123 17.3012 429.923 17.3012 429.823L18.0012 429.723C18.0012 429.723 18.0012 429.823 18.0012 429.923C18.0012 430.023 18.0012 430.123 18.0012 430.223C18.0012 430.423 18.0012 430.523 18.1012 430.523C18.1012 430.523 18.3012 430.623 18.4012 430.623H19.8012C19.7012 430.123 19.5012 429.823 19.5012 429.623L20.2012 429.523C20.3012 429.723 20.4012 430.123 20.5012 430.723H21.9012V429.723H22.5012V430.723H23.8012V431.423H22.5012V432.223H21.9012V431.423H20.7012V431.523C20.9012 432.023 20.9012 432.223 20.9012 432.223H20.2012Z" fill="#CFD2D3"/>
<path d="M23.1012 440.223V443.023H19.0012C18.7012 443.023 18.4012 442.923 18.3012 442.823C18.2012 442.723 18.1012 442.523 18.1012 442.323C18.1012 442.123 18.1012 441.823 18.1012 441.523L18.8012 441.423C18.8012 441.623 18.7012 441.923 18.7012 442.123C18.7012 442.223 18.7012 442.323 18.8012 442.423C18.9012 442.423 19.0012 442.523 19.2012 442.523H22.4012V440.923H17.2012V440.223H23.1012ZM22.9012 439.923C22.8012 439.623 22.7012 439.323 22.6012 438.923C22.5012 438.623 22.4012 438.323 22.4012 438.023H21.2012V439.823H20.5012V438.023H18.7012L18.9012 438.623C19.0012 439.023 19.1012 439.423 19.3012 439.823H18.6012C18.4012 439.123 18.2012 438.523 18.0012 437.923C17.9012 437.623 17.8012 437.423 17.8012 437.423L18.4012 437.123C18.5012 437.223 18.5012 437.223 18.6012 437.223C18.7012 437.223 18.7012 437.223 18.8012 437.223H22.9012C23.0012 437.523 23.1012 437.923 23.2012 438.323C23.3012 438.823 23.5012 439.123 23.6012 439.523L22.9012 439.923Z" fill="#CFD2D3"/>
<path d="M17.2012 444.723H21.6012V447.323H18.0012C17.7012 447.323 17.5012 447.223 17.4012 447.123C17.3012 447.023 17.2012 446.823 17.2012 446.523C17.2012 446.323 17.2012 446.123 17.2012 445.923L17.8012 445.823C17.8012 446.023 17.8012 446.123 17.8012 446.323C17.8012 446.423 17.8012 446.523 17.9012 446.623C17.9012 446.623 18.0012 446.723 18.2012 446.723H18.7012V445.323H17.2012V444.723ZM21.7012 449.423V450.023H18.1012C17.9012 450.023 17.7012 450.023 17.6012 449.923C17.5012 449.823 17.4012 449.823 17.3012 449.623C17.2012 449.523 17.2012 449.323 17.2012 449.123C17.2012 448.823 17.2012 448.523 17.2012 448.223L17.8012 448.123C17.8012 448.423 17.7012 448.623 17.7012 448.923C17.7012 449.123 17.7012 449.223 17.8012 449.323C17.9012 449.423 18.0012 449.423 18.2012 449.423H21.7012ZM21.4012 448.023V448.623H18.4012V448.023H21.4012ZM19.8012 445.323H19.2012V446.723H19.8012V445.323ZM20.4012 446.723H21.0012V445.323H20.4012V446.723ZM22.7012 450.523H22.1012V444.223H22.7012V446.023C23.0012 445.823 23.3012 445.723 23.4012 445.623L23.6012 446.223C23.5012 446.223 23.4012 446.323 23.3012 446.423C23.1012 446.523 23.0012 446.523 23.0012 446.623L22.8012 446.723V448.023C23.1012 448.223 23.4012 448.323 23.7012 448.523L23.5012 449.123C23.2012 448.923 22.9012 448.823 22.8012 448.723V450.523H22.7012Z" fill="#CFD2D3"/>
<path d="M17.2016 453.924H20.5016V457.424H18.0016C17.7016 457.424 17.6016 457.324 17.4016 457.224C17.3016 457.124 17.2016 456.924 17.2016 456.724C17.2016 456.524 17.2016 456.224 17.2016 455.924L17.7016 455.824C17.7016 456.124 17.6016 456.324 17.6016 456.524C17.6016 456.624 17.6016 456.724 17.7016 456.724C17.8016 456.724 17.8016 456.824 17.9016 456.824H18.1016V454.524H17.1016V453.924H17.2016ZM18.5016 453.024L19.0016 453.524L18.4016 453.724L18.2016 453.524C17.9016 453.224 17.7016 453.024 17.7016 452.924C17.6016 452.724 17.4016 452.624 17.3016 452.524L17.8016 452.124C17.9016 452.224 17.9016 452.224 18.0016 452.224C18.1016 452.224 18.1016 452.224 18.2016 452.224H20.7016V451.424H21.3016V452.824H18.5016V453.024ZM19.1016 454.624H18.7016V456.924H19.1016V454.624ZM19.6016 456.924H20.0016V454.624H19.6016V456.924ZM21.7016 456.024H21.3016V458.024H20.8016V453.524H21.3016V455.424H21.7016V453.924H22.2016V455.424H22.6016V453.724H23.0016V455.424H23.5016V456.024H23.0016V457.824H22.5016V456.024H22.1016V457.624H21.6016V456.024H21.7016ZM21.8016 452.824C22.3016 452.524 22.7016 452.224 23.1016 451.924L23.4016 452.424C22.8016 452.824 22.4016 453.124 22.1016 453.324L21.8016 452.824Z" fill="#CFD2D3"/>
<path d="M23.4016 460.824C22.8016 460.724 22.3016 460.524 21.8016 460.324H17.1016V459.724H20.6016C20.3016 459.524 20.0016 459.324 19.8016 459.224L20.5016 458.924C20.9016 459.224 21.3016 459.424 21.9016 459.624C22.5016 459.824 23.0016 460.024 23.7016 460.224L23.4016 460.824ZM17.2016 465.224C17.3016 464.624 17.4016 464.124 17.5016 463.724C17.6016 463.324 17.7016 462.924 17.9016 462.624C17.8016 462.424 17.6016 462.224 17.5016 461.924C17.4016 461.624 17.3016 461.324 17.1016 460.924L17.7016 460.624C17.9016 461.224 18.0016 461.724 18.2016 462.024C18.5016 461.624 18.8016 461.324 19.2016 461.124L19.6016 461.524C19.2016 461.824 18.9016 462.124 18.7016 462.424C18.8016 462.524 19.0016 462.624 19.1016 462.624C19.3016 462.624 19.4016 462.724 19.7016 462.724V461.024H21.7016V462.724H22.3016V460.824H22.9016V462.724H23.7016V463.324H22.9016V465.224H22.3016V463.324H21.7016V465.024H19.7016V463.324C19.1016 463.324 18.7016 463.224 18.4016 463.024C18.2016 463.624 18.0016 464.424 17.9016 465.424L17.2016 465.224ZM21.1016 462.724V461.624H20.3016V462.724H21.1016ZM20.3016 464.424H21.1016V463.324H20.3016V464.424Z" fill="#CFD2D3"/>
<path d="M23.2008 466.924V472.124H18.0008C17.8008 472.124 17.6008 472.124 17.5008 472.024C17.4008 471.924 17.3008 471.824 17.2008 471.724C17.2008 471.624 17.1008 471.424 17.1008 471.124C17.1008 470.924 17.1008 470.724 17.1008 470.424L17.8008 470.324C17.8008 470.624 17.7008 470.824 17.7008 471.024C17.7008 471.124 17.7008 471.224 17.8008 471.324C17.9008 471.324 18.0008 471.424 18.1008 471.424H19.0008V469.924H17.1008V469.324H19.0008V467.624C18.6008 467.624 18.3008 467.524 17.9008 467.424C17.6008 467.324 17.2008 467.124 16.8008 466.924L17.1008 466.324C17.5008 466.524 17.8008 466.624 18.0008 466.724C18.2008 466.824 18.5008 466.824 18.8008 466.924C19.1008 466.924 19.5008 466.924 20.0008 466.924H23.2008ZM19.8008 467.624V469.224H20.8008V467.624H20.0008H19.8008ZM20.9008 469.924H19.9008V471.624H20.9008V469.924ZM21.5008 469.224H22.6008V467.624H21.5008V469.224ZM21.5008 469.924V471.624H22.6008V469.924H21.5008Z" fill="#CFD2D3"/>
<path d="M17.2016 475.823H20.4016V479.423H17.9016C17.6016 479.423 17.5016 479.323 17.3016 479.223C17.2016 479.123 17.1016 478.923 17.1016 478.723C17.1016 478.423 17.1016 478.223 17.1016 477.923L17.6016 477.823C17.6016 478.023 17.5016 478.323 17.5016 478.523C17.5016 478.623 17.5016 478.723 17.6016 478.723C17.7016 478.723 17.7016 478.823 17.9016 478.823H18.1016V476.423H17.1016V475.823H17.2016ZM17.4016 473.823C17.6016 473.923 18.0016 474.023 18.6016 474.223C19.1016 474.423 19.6016 474.523 19.9016 474.623L19.7016 475.223C19.4016 475.123 19.0016 475.023 18.5016 474.823C18.0016 474.623 17.6016 474.523 17.3016 474.423L17.4016 473.823ZM19.1016 476.423H18.7016V478.823H19.1016V476.423ZM19.6016 478.923H20.0016V476.523H19.6016V478.923ZM20.3016 474.823C20.6016 474.523 20.9016 474.123 21.3016 473.523L21.8016 473.923L21.6016 474.223C21.1016 474.823 20.9016 475.223 20.8016 475.223L20.3016 474.823ZM21.7016 477.923H21.3016V480.023H20.8016V475.323H21.3016V477.323H21.7016V475.823H22.2016V477.323H22.6016V475.623H23.0016V477.323H23.5016V477.923H23.0016V479.823H22.5016V477.923H22.1016V479.623H21.6016V477.923H21.7016ZM21.9016 475.023C22.0016 474.923 22.2016 474.723 22.4016 474.423C22.6016 474.223 22.8016 474.023 22.9016 473.823L23.4016 474.223C23.2016 474.423 22.9016 474.823 22.4016 475.423L21.9016 475.023Z" fill="#CFD2D3"/>
<path d="M17.1016 483.923V483.223H19.8016V486.823H17.1016V486.123H17.4016V483.923H17.1016ZM17.4016 481.123C17.5016 481.223 17.9016 481.323 18.6016 481.623C19.3016 481.923 19.7016 482.023 19.8016 482.023L19.6016 482.623C19.5016 482.523 19.1016 482.423 18.5016 482.223C17.9016 482.023 17.5016 481.823 17.2016 481.723L17.4016 481.123ZM18.1016 486.223H19.3016V483.923H18.1016V486.223ZM21.8016 481.323C21.3016 481.923 21.0016 482.423 20.8016 482.723L20.2016 482.323C20.4016 482.123 20.6016 481.923 20.8016 481.623C21.0016 481.323 21.2016 481.123 21.3016 481.023L21.8016 481.323ZM22.6016 487.323H22.0016V485.423H21.1016V487.123H20.5016V483.123H21.1016V484.823H22.0016V483.123H22.6016V484.823H23.5016V485.523H22.6016V487.323ZM23.5016 481.623C23.2016 482.123 22.9016 482.523 22.7016 482.723L22.1016 482.323C22.5016 481.823 22.8016 481.423 23.0016 481.223L23.5016 481.623Z" fill="#CFD2D3"/>
<path d="M19.9016 489.224V489.824H19.6016C19.2016 489.824 18.8016 489.724 18.5016 489.724C18.2016 489.624 18.0016 489.524 17.8016 489.424C17.6016 489.324 17.4016 489.024 17.1016 488.824L17.5016 488.324C17.7016 488.624 17.9016 488.824 18.1016 488.924C18.3016 489.024 18.5016 489.124 18.7016 489.224C18.9016 489.324 19.2016 489.324 19.6016 489.324C19.7016 489.224 19.8016 489.224 19.9016 489.224ZM23.5016 493.724V494.324H18.2016C17.9016 494.324 17.6016 494.224 17.5016 494.124C17.4016 494.024 17.3016 493.724 17.3016 493.424C17.3016 493.124 17.3016 492.824 17.3016 492.624L17.9016 492.524C17.9016 492.824 17.9016 493.024 17.9016 493.224C17.9016 493.424 17.9016 493.524 18.0016 493.624C18.1016 493.724 18.2016 493.724 18.4016 493.724H23.5016ZM17.3016 491.324V490.724H19.9016V491.324H17.3016ZM22.9016 492.524V493.124H18.7016V492.524H22.9016ZM22.2016 491.624C21.8016 491.424 21.4016 491.224 21.1016 490.924C20.8016 491.524 20.5016 492.024 20.3016 492.324L19.8016 492.024C20.2016 491.524 20.5016 491.024 20.7016 490.524C20.3016 490.024 20.0016 489.424 19.7016 488.624L20.3016 488.324C20.5016 489.024 20.8016 489.524 21.1016 489.924C21.2016 489.724 21.4016 489.324 21.6016 489.024C21.6016 489.024 21.6016 488.924 21.7016 488.824L22.2016 489.124C22.0016 489.424 21.8016 489.924 21.5016 490.424C21.7016 490.624 22.0016 490.924 22.3016 491.024V488.524H22.9016V490.124C23.1016 490.024 23.3016 489.924 23.6016 489.824L23.7016 490.524C23.5016 490.624 23.2016 490.724 22.9016 490.824V492.224H22.3016V491.624H22.2016Z" fill="#CFD2D3"/>
<path d="M20.7012 497.623C20.4012 498.023 20.0012 498.423 19.6012 498.823L19.1012 498.423C19.4012 498.123 19.7012 497.923 20.0012 497.623H17.2012V497.023H20.1012C19.5012 496.723 18.9012 496.423 18.4012 496.023L19.0012 495.623C19.3012 495.923 19.6012 496.123 20.0012 496.323C20.4012 496.523 20.7012 496.723 21.1012 496.823V495.723H21.7012V496.923H22.5012C22.4012 496.523 22.4012 496.223 22.4012 495.923H23.0012C23.0012 496.323 23.1012 496.823 23.2012 497.323C23.3012 497.823 23.4012 498.223 23.5012 498.623L22.9012 498.823C22.8012 498.623 22.8012 498.223 22.7012 497.823H21.7012V498.923H21.0012V497.823H20.7012V497.623ZM17.4012 499.123H23.0012V501.823H17.4012V501.223H17.9012V499.823H17.3012V499.123H17.4012ZM22.4012 499.723H18.6012V501.123H22.4012V499.723Z" fill="#CFD2D3"/>
<path d="M18.4012 509.524L17.8012 509.024C18.3012 508.424 18.8012 507.924 19.3012 507.524C19.8012 507.124 20.4012 506.824 21.0012 506.524H18.1012C17.8012 506.524 17.5012 506.424 17.4012 506.324C17.3012 506.224 17.2012 505.924 17.2012 505.624C17.2012 505.324 17.2012 505.024 17.2012 504.724L17.9012 504.624C17.9012 504.924 17.8012 505.224 17.8012 505.424C17.8012 505.624 17.8012 505.724 17.9012 505.724C18.0012 505.724 18.1012 505.824 18.3012 505.824H23.5012V506.524H22.6012C22.1012 506.724 21.6012 506.824 21.2012 507.024C21.4012 507.324 21.7012 507.524 21.9012 507.824C22.1012 508.124 22.4012 508.324 22.6012 508.524L22.1012 509.024C21.5012 508.424 21.0012 507.924 20.6012 507.324C19.7012 507.924 19.0012 508.624 18.4012 509.524ZM22.0012 505.424H21.3012C20.7012 505.324 20.0012 505.024 19.5012 504.724C18.9012 504.424 18.3012 503.924 17.8012 503.424L18.3012 502.924C18.8012 503.424 19.3012 503.824 19.8012 504.124C20.3012 504.424 20.8012 504.624 21.4012 504.824V503.224H22.0012V505.424Z" fill="#CFD2D3"/>
<path d="M17.2016 512.623H20.4016V516.223H17.9016C17.6016 516.223 17.5016 516.123 17.3016 516.023C17.2016 515.923 17.1016 515.723 17.1016 515.523C17.1016 515.223 17.1016 515.023 17.1016 514.723L17.6016 514.623C17.6016 514.823 17.5016 515.123 17.5016 515.323C17.5016 515.423 17.5016 515.523 17.6016 515.523C17.7016 515.523 17.7016 515.623 17.9016 515.623H18.1016V513.223H17.1016V512.623H17.2016ZM17.4016 510.623C17.6016 510.723 18.0016 510.823 18.6016 511.023C19.1016 511.223 19.6016 511.323 19.9016 511.423L19.7016 512.023C19.4016 511.923 19.0016 511.823 18.5016 511.623C18.0016 511.423 17.6016 511.323 17.3016 511.223L17.4016 510.623ZM19.1016 513.223H18.7016V515.623H19.1016V513.223ZM19.6016 515.623H20.0016V513.223H19.6016V515.623ZM20.3016 511.523C20.6016 511.223 20.9016 510.823 21.3016 510.223L21.8016 510.623L21.6016 510.923C21.1016 511.523 20.9016 511.923 20.8016 511.923L20.3016 511.523ZM21.7016 514.723H21.3016V516.823H20.8016V512.123H21.3016V514.123H21.7016V512.623H22.2016V514.123H22.6016V512.423H23.0016V514.123H23.5016V514.723H23.0016V516.623H22.5016V514.723H22.1016V516.423H21.6016V514.723H21.7016ZM21.9016 511.823C22.0016 511.723 22.2016 511.523 22.4016 511.223C22.6016 511.023 22.8016 510.823 22.9016 510.623L23.4016 511.023C23.2016 511.223 22.9016 511.623 22.4016 512.223L21.9016 511.823Z" fill="#CFD2D3"/>
<path d="M18.9008 524.123C18.5008 524.123 18.3008 524.123 18.1008 524.123C17.8008 524.123 17.7008 524.023 17.6008 523.923C17.5008 523.823 17.4008 523.623 17.4008 523.423C17.4008 523.223 17.4008 523.123 17.4008 523.123C17.4008 523.023 17.4008 522.923 17.4008 522.723C17.4008 522.523 17.5008 522.323 17.6008 522.223C17.7008 522.123 17.9008 522.023 18.2008 522.023H20.2008V521.323C19.7008 521.323 19.3008 521.223 19.0008 521.123C18.7008 521.023 18.4008 520.823 18.1008 520.623C17.8008 520.423 17.6008 520.123 17.3008 519.723L17.8008 519.223C18.0008 519.623 18.2008 519.923 18.5008 520.123C18.7008 520.323 18.9008 520.423 19.2008 520.523C19.5008 520.623 19.8008 520.623 20.2008 520.623V519.523H20.8008V521.523H21.9008V520.523C21.6008 520.423 21.3008 520.323 21.1008 520.223L21.3008 519.623C21.6008 519.823 22.0008 519.923 22.3008 520.023C22.6008 520.123 23.0008 520.223 23.4008 520.323L23.3008 520.923C23.0008 520.823 22.8008 520.823 22.5008 520.723V521.523H23.7008V522.223H22.5008V523.823H21.9008V522.223H20.8008V524.123H20.0008V522.723H18.2008C18.1008 522.723 18.0008 522.723 18.0008 522.823C18.0008 522.923 17.9008 522.923 17.9008 523.023C17.9008 523.023 17.9008 523.123 17.9008 523.223C17.9008 523.323 17.9008 523.423 17.9008 523.423C17.9008 523.523 17.9008 523.523 18.0008 523.623C18.0008 523.623 18.1008 523.623 18.3008 523.623C18.5008 523.623 18.7008 523.623 19.0008 523.623L18.9008 524.123ZM19.6008 519.323C18.8008 519.123 18.0008 518.823 17.3008 518.523L17.5008 517.923C18.3008 518.223 19.1008 518.523 19.8008 518.723L19.6008 519.323ZM20.3008 519.023C20.4008 518.823 20.6008 518.623 20.8008 518.423C21.0008 518.123 21.2008 517.923 21.3008 517.723L21.8008 518.123C21.7008 518.323 21.5008 518.523 21.3008 518.723C21.1008 519.023 20.9008 519.223 20.8008 519.423L20.3008 519.023ZM22.0008 519.223C22.5008 518.623 22.8008 518.223 22.9008 518.023L23.4008 518.423C23.3008 518.523 23.2008 518.723 23.0008 519.023C22.8008 519.223 22.7008 519.523 22.5008 519.623L22.0008 519.223Z" fill="#CFD2D3"/>
<path d="M18.4016 530.523C18.3016 530.823 18.2016 531.123 18.0016 531.523L17.4016 531.223C17.6016 530.623 17.8016 530.223 18.1016 529.823C18.3016 529.423 18.6016 529.123 18.9016 528.923C19.2016 528.723 19.6016 528.423 20.1016 528.223C19.8016 527.923 19.5016 527.723 19.3016 527.423H18.0016L18.4016 528.723L17.8016 528.823C17.6016 528.123 17.4016 527.523 17.2016 527.023C17.2016 526.923 17.1016 526.823 17.1016 526.723L17.6016 526.523C17.7016 526.723 17.8016 526.823 18.0016 526.823H18.8016C18.6016 526.423 18.3016 525.923 18.1016 525.423L18.7016 525.123C18.9016 525.723 19.1016 526.123 19.4016 526.523C19.6016 526.923 19.9016 527.223 20.2016 527.523V525.223H20.7016V528.023H21.3016V525.823H21.8016V528.023H22.4016V525.523H23.0016V528.023H23.6016V528.723H23.0016V531.223H22.4016V528.723H21.8016V530.923H21.3016V528.723H20.7016V531.523H20.2016V528.923C19.8016 529.123 19.6016 529.323 19.3016 529.523C19.6016 530.023 19.8016 530.423 20.1016 530.723L19.6016 531.123C19.4016 530.723 19.1016 530.423 18.9016 530.023C18.6016 530.023 18.5016 530.223 18.4016 530.523Z" fill="#CFD2D3"/>
<path d="M22.7012 538.723V535.923C22.4012 535.823 22.2012 535.723 22.0012 535.623V538.323H17.2012V537.723H17.6012V533.523H17.2012V532.923H22.0012V534.923C22.2012 535.023 22.4012 535.123 22.7012 535.223V532.523H23.3012V538.723H22.7012ZM21.4012 534.323V533.523H18.2012V534.323H21.4012ZM18.9012 536.223V534.923H18.2012V536.223H18.9012ZM18.2012 536.923V537.723H21.4012V536.923H18.2012ZM19.4012 534.923V536.223H20.1012V534.923H19.4012ZM20.7012 534.923V536.223H21.4012V534.923H20.7012Z" fill="#CFD2D3"/>
<path d="M629.1 733.523H213.5V734.523H629.1V733.523Z" fill="#CFD2D3"/>
<path d="M542.7 748.924C543.1 748.924 543.3 748.624 543.3 748.324V745.924H541.2V746.624H542.3V748.024C542.3 748.124 542.2 748.224 542.1 748.224H540.2C540.1 748.224 540 748.124 540 748.024V744.724C540 744.624 540.1 744.524 540.2 744.524H543.1V743.924H539.6C539.2 743.924 539 744.224 539 744.524V748.324C539 748.724 539.3 748.924 539.6 748.924H542.7Z" fill="#CFD2D3"/>
<path d="M544.301 743.924V748.224C544.301 748.624 544.601 748.824 544.901 748.824H547.401V748.124H545.401C545.301 748.124 545.201 748.024 545.201 747.924V743.924H544.301Z" fill="#CFD2D3"/>
<path d="M552.1 748.024C552.1 748.124 552 748.224 551.9 748.224H549.6C549.5 748.224 549.4 748.124 549.4 748.024V743.924H548.4V748.224C548.4 748.624 548.7 748.824 549 748.824H552.4C552.8 748.824 553 748.524 553 748.224V743.924H552V748.024H552.1Z" fill="#CFD2D3"/>
<path d="M554.1 748.924H557.9V748.224H555.1V746.924C555.1 746.824 555.2 746.724 555.3 746.724H557.9V746.024H555.1V744.924C555.1 744.824 555.2 744.724 555.3 744.724H557.9V743.924H554.1V748.924Z" fill="#CFD2D3"/>
<path d="M562.7 744.724H566V743.924H562.1C561.7 743.924 561.4 744.224 561.4 744.524V746.124C561.4 746.424 561.7 746.724 562 746.724H564.9C565 746.724 565.1 746.824 565.1 746.924V747.824C565.1 747.924 565 748.024 564.9 748.024H561.6V748.724H565.5C565.9 748.724 566.1 748.424 566.1 748.124V746.624C566.1 746.224 565.8 746.024 565.5 746.024H562.6C562.5 746.024 562.4 745.924 562.4 745.824V744.924C562.5 744.824 562.6 744.724 562.7 744.724Z" fill="#CFD2D3"/>
<path d="M569.9 748.924V744.724H571.5V743.924H567.1V744.724H568.8V748.924H569.9Z" fill="#CFD2D3"/>
<path d="M573.5 743.924H572.5V748.924H573.5V743.924Z" fill="#CFD2D3"/>
<path d="M575.7 744.724H578.3V743.924H575.2C574.8 743.924 574.6 744.224 574.6 744.524V748.224C574.6 748.624 574.9 748.824 575.2 748.824H578.3V748.124H575.7C575.6 748.124 575.5 748.024 575.5 747.924V744.924C575.5 744.824 575.6 744.724 575.7 744.724Z" fill="#CFD2D3"/>
<path d="M582.599 746.324L583.599 743.924H582.499L581.699 746.024H580.299V743.924H579.199V748.924H580.299V746.724H581.799L582.599 748.924H583.699L582.599 746.324Z" fill="#CFD2D3"/>
<path d="M587.199 744.624V748.324C587.199 748.724 587.499 748.924 587.799 748.924H590.899V748.224H588.299C588.199 748.224 588.099 748.124 588.099 748.024V744.924C588.099 744.824 588.199 744.724 588.299 744.724H590.899V743.924H587.799C587.499 743.924 587.199 744.224 587.199 744.624Z" fill="#CFD2D3"/>
<path d="M596.7 748.923V744.623C596.7 744.223 596.4 744.023 596.1 744.023H592.7C592.3 744.023 592.1 744.323 592.1 744.623V748.923H593.1V746.923H595.8V748.923H596.7ZM593 746.223V744.923C593 744.823 593.1 744.723 593.2 744.723H595.5C595.6 744.723 595.7 744.823 595.7 744.923V746.323H593V746.223Z" fill="#CFD2D3"/>
<path d="M598.6 745.124L601.2 748.924H602.3V743.924H601.3V747.724L598.7 743.924H597.6V748.924H598.6V745.124Z" fill="#CFD2D3"/>
<path d="M605.9 743.924V748.924H606.9V746.724H609.1V748.924H610.1V743.924H609.1V746.024H606.9V743.924H605.9Z" fill="#CFD2D3"/>
<path d="M612.3 744.724H614.9V743.924H611.1V748.924H614.9V748.224H612.1V746.924C612.1 746.824 612.2 746.724 612.3 746.724H614.9V746.024H612.1V744.924C612.1 744.824 612.2 744.724 612.3 744.724Z" fill="#CFD2D3"/>
<path d="M615.9 743.924V748.224C615.9 748.624 616.2 748.824 616.5 748.824H619V748.124H617C616.9 748.124 616.8 748.024 616.8 747.924V743.924H615.9Z" fill="#CFD2D3"/>
<path d="M624.1 743.924H620V748.924H621V747.324H624C624.4 747.324 624.6 747.024 624.6 746.724V744.624C624.7 744.224 624.4 743.924 624.1 743.924ZM623.7 746.424C623.7 746.524 623.6 746.624 623.5 746.624H621V744.724H623.5C623.6 744.724 623.7 744.824 623.7 744.924V746.424Z" fill="#CFD2D3"/>
<path d="M626.801 748.123H625.801V748.923H626.801V748.123Z" fill="#CFD2D3"/>
<path d="M528.9 757.023H522.1L531.9 747.223C532.6 746.523 532.6 745.323 531.9 744.623L526.9 739.623C526.2 738.923 525 738.923 524.3 739.623L512.4 751.523C511.7 752.223 511.7 753.423 512.4 754.123L516.4 758.123H521H529C529.3 758.123 529.6 757.823 529.6 757.523C529.6 757.223 529.2 757.023 528.9 757.023ZM525 740.423C525.3 740.123 525.7 740.123 526 740.423L531 745.423C531.3 745.723 531.3 746.123 531 746.423L523.4 754.023L517.4 748.023L525 740.423ZM520.5 757.023H517.2H516.8L513.1 753.323C512.8 753.023 512.8 752.623 513.1 752.323L516.6 748.823L522.6 754.823L520.5 757.023Z" fill="#CFD2D3"/>
<path d="M532.9 757.023H531.1C530.8 757.023 530.5 757.323 530.5 757.623C530.5 757.923 530.8 758.223 531.1 758.223H532.9C533.2 758.223 533.5 757.923 533.5 757.623C533.5 757.323 533.3 757.023 532.9 757.023Z" fill="#CFD2D3"/>
<path d="M542 753.324V753.224C542.1 753.024 542.1 752.924 542.2 752.724H545.3V752.124H542.4C542.4 752.024 542.5 751.724 542.6 751.424L541.9 751.324C541.9 751.424 541.8 751.724 541.7 752.124H539.8V752.724H541.5C541.4 752.924 541.4 753.124 541.2 753.524H539.4V754.124H541C540.9 754.424 540.7 754.724 540.6 754.924V755.424H544C543.6 755.824 543.2 756.224 542.8 756.524C541.8 756.124 541 755.924 540.5 755.724L540.3 756.324C540.9 756.524 541.6 756.724 542.4 757.024C543.2 757.324 543.9 757.624 544.5 757.824L544.8 757.224C544.5 757.124 544.1 756.924 543.5 756.724C544.1 756.224 544.5 755.824 544.9 755.324V754.724H541.4C541.5 754.524 541.6 754.324 541.7 754.024H545.6V753.424H542C542 753.324 542 753.324 542 753.324Z" fill="#CFD2D3"/>
<path d="M547.401 754.524C547.401 755.024 547.401 755.524 547.401 755.724C547.401 756.024 547.301 756.324 547.201 756.524C547.101 756.724 547.001 757.024 546.801 757.424L547.401 757.724C547.601 757.324 547.801 757.024 547.901 756.624C548.001 756.324 548.101 755.924 548.101 755.524H549.801V757.424H550.401V755.524H552.101V756.424C552.101 756.624 552.101 756.724 552.001 756.724C552.001 756.824 551.901 756.824 551.701 756.824C551.501 756.824 551.301 756.824 551.001 756.724L551.101 757.424C551.401 757.424 551.601 757.424 551.801 757.424C552.001 757.424 552.201 757.424 552.401 757.324C552.501 757.324 552.601 757.224 552.701 757.024C552.801 756.924 552.801 756.724 552.801 756.524V751.324H547.601V754.524H547.401ZM550.301 752.224H552.001V753.324H550.301V752.224ZM550.301 754.024H552.001V755.024H550.301V754.024ZM548.001 752.224H549.601V753.324H548.001V752.224ZM548.001 754.724V753.924H549.601V754.924H548.001V754.724Z" fill="#CFD2D3"/>
<path d="M554.5 754.323C554.5 754.923 554.5 755.423 554.5 755.823C554.5 756.223 554.4 756.523 554.3 756.723C554.2 756.923 554.1 757.223 554 757.523L554.6 757.823C554.8 757.523 554.9 757.223 555 756.823C555.1 756.523 555.1 756.023 555.2 755.523H556V756.723C556 756.823 556 756.923 556 757.023C556 757.123 555.9 757.123 555.8 757.123C555.6 757.123 555.5 757.123 555.3 757.123L555.4 757.723C555.6 757.723 555.8 757.723 555.9 757.723C556.2 757.723 556.3 757.623 556.4 757.523C556.5 757.423 556.6 757.223 556.6 756.923V751.623H554.6V754.323H554.5ZM555.1 752.323H555.9V753.323H555.1V752.323ZM555.1 754.623V753.923H555.9V754.923H555.1V754.623Z" fill="#CFD2D3"/>
<path d="M558.801 753.123C559.101 753.523 559.501 754.023 560.001 754.623L560.501 754.223C560.101 753.723 559.701 753.223 559.301 752.723L558.801 753.123Z" fill="#CFD2D3"/>
<path d="M559.7 754.423L559.1 754.223C558.9 754.723 558.7 755.223 558.5 755.523C558.3 755.223 558.1 754.723 557.9 754.223L557.3 754.423C557.5 755.023 557.8 755.623 558.1 756.023C557.7 756.423 557.2 756.823 556.5 757.123L556.9 757.723C557.6 757.423 558.1 757.023 558.5 756.523C558.9 756.923 559.5 757.323 560.1 757.623L560.5 757.023C559.8 756.723 559.3 756.423 558.9 756.023C559.2 755.623 559.5 755.123 559.7 754.423Z" fill="#CFD2D3"/>
<path d="M557 754.724C557.4 754.224 557.8 753.724 558.2 753.124L557.7 752.824C557.3 753.424 556.9 753.924 556.6 754.424L557 754.724Z" fill="#CFD2D3"/>
<path d="M556.801 752.723H560.301V752.123H558.901C558.801 751.723 558.601 751.423 558.601 751.223L558.001 751.423C558.101 751.723 558.201 751.923 558.301 752.223H556.801V752.723Z" fill="#CFD2D3"/>
<path d="M563.401 755.124L563.701 754.624C563.401 754.224 563.101 753.924 562.901 753.624V753.224H563.601V752.624H562.901V751.324H562.301V752.624H561.501V753.224H562.201C562.101 753.624 561.901 754.024 561.801 754.424C561.601 754.824 561.501 755.224 561.301 755.524L561.601 756.224C561.801 755.824 562.101 755.324 562.301 754.824V757.724H562.901V754.524C563.101 754.724 563.201 754.924 563.301 755.024L563.401 755.124Z" fill="#CFD2D3"/>
<path d="M566.7 754.324H567.8V753.824H565.4C565.4 753.724 565.5 753.624 565.6 753.424H567.5V752.924H565.7C565.7 752.824 565.8 752.724 565.8 752.424H567.6V751.924H565.8L565.9 751.324H565.3C565.3 751.524 565.3 751.724 565.2 751.924H563.7V752.424H565.1L565 752.924H563.8V753.424H564.8C564.8 753.524 564.7 753.724 564.6 753.824H563.5V754.324H564.3C564 754.824 563.6 755.224 563 755.624L563.3 756.124C563.6 755.824 563.9 755.624 564.2 755.324V755.724H565.1V756.224H563.6V756.724H565.1V757.624H565.7V756.724H567.2V756.224H565.7V755.724H566.6V755.324C566.9 755.624 567.2 755.924 567.5 756.124L567.8 755.624C567.5 755.424 567.3 755.324 567.1 755.124C567 754.924 566.8 754.624 566.7 754.324ZM565.9 755.224V754.624H565.3V755.224H564.5C564.7 754.924 564.9 754.624 565.1 754.324H566.1C566.3 754.624 566.5 754.924 566.7 755.224H565.9Z" fill="#CFD2D3"/>
<path d="M572.5 753.223H569.6V756.023H572.5V753.223ZM571.8 755.423H570.1V753.823H571.8V755.423Z" fill="#CFD2D3"/>
<path d="M568.801 752.323H573.601V756.423C573.601 756.623 573.601 756.823 573.501 756.923C573.401 757.023 573.301 757.023 573.101 757.023C572.801 757.023 572.501 757.023 572.101 756.923L572.201 757.523C572.501 757.523 572.801 757.523 573.101 757.523C573.401 757.523 573.601 757.523 573.801 757.423C574.001 757.323 574.101 757.223 574.101 757.123C574.201 757.023 574.201 756.723 574.201 756.523V752.223H575.101V751.623H568.801V752.323Z" fill="#CFD2D3"/>
<path d="M581.601 754.523C581.801 754.023 581.901 753.523 582.001 752.923H582.501V752.223H580.301C580.401 751.923 580.501 751.623 580.601 751.223L579.901 751.123C579.801 751.523 579.701 752.023 579.401 752.523C579.201 753.023 578.901 753.423 578.701 753.823L579.101 754.323C579.201 754.123 579.301 754.023 579.401 753.923C579.601 754.523 579.801 755.123 580.201 755.723C579.801 756.223 579.101 756.623 578.301 757.123L578.701 757.723C579.501 757.223 580.101 756.823 580.601 756.323C581.001 756.823 581.601 757.323 582.201 757.723L582.601 757.123C581.901 756.723 581.401 756.323 581.001 755.823C581.201 755.423 581.401 755.023 581.601 754.523ZM579.801 753.223L579.901 752.923H581.201C581.101 753.423 581.101 753.823 580.901 754.223C580.801 754.623 580.601 754.923 580.401 755.223C580.201 754.723 580.001 754.023 579.801 753.223Z" fill="#CFD2D3"/>
<path d="M578.701 755.724L577.101 756.524V754.624H578.601V751.824H576.301V752.524H578.001V754.024H576.501V756.624C576.501 756.724 576.401 756.924 576.301 757.024L576.601 757.624C576.701 757.524 577.001 757.424 577.301 757.224C577.801 757.024 578.301 756.724 578.901 756.524L578.701 755.724Z" fill="#CFD2D3"/>
<path d="M588.8 754.323H589.7V753.823H587V753.423H589.3V752.923H587V752.523H589.6V751.923H588C588.1 751.723 588.2 751.623 588.3 751.523L588.4 751.423L587.8 751.223C587.7 751.423 587.5 751.723 587.3 752.023H586C585.9 751.923 585.8 751.623 585.6 751.323L585 751.523C585 751.623 585.1 751.723 585.2 751.923C585.2 751.923 585.2 751.923 585.2 752.023C585.2 752.023 585.2 752.123 585.3 752.123H583.8V752.623H586.4V753.023H584V753.523H586.3V753.923H583.6V754.423H584.5C584.6 754.623 584.7 754.823 584.8 755.023H583.5V755.523H589.8V754.923H588.5C588.6 754.823 588.7 754.623 588.8 754.323ZM586.3 754.923H585.4L585.1 754.323H586.3V754.923ZM587.9 754.923H587V754.323H588.2C588.1 754.523 588 754.723 587.9 754.923Z" fill="#CFD2D3"/>
<path d="M584.2 757.624H584.8V757.424H588.3V757.624H588.9V755.924H584.1V757.624H584.2ZM584.9 756.424H588.4V756.924H584.9V756.424Z" fill="#CFD2D3"/>
<path d="M591.101 752.623C591.201 752.923 591.301 753.123 591.301 753.323L591.801 753.123C591.701 752.923 591.701 752.623 591.601 752.323C591.501 752.023 591.401 751.823 591.301 751.623L590.801 751.823C590.901 752.123 591.001 752.423 591.101 752.623Z" fill="#CFD2D3"/>
<path d="M592.6 751.324H592V753.724H590.8V754.324H591.8C591.7 754.624 591.5 754.924 591.3 755.324C591.1 755.624 590.9 755.924 590.6 756.224L591 756.824C591.4 756.324 591.7 755.824 591.9 755.324V757.724H592.5V755.524C592.7 755.724 592.9 755.924 593.1 756.224L593.5 755.724C593.2 755.424 592.9 755.024 592.5 754.724V754.324H593.5V753.724H592.5V751.324H592.6Z" fill="#CFD2D3"/>
<path d="M595.499 751.324H594.799V754.324H593.699V757.724H594.299V757.324H596.199V757.724H596.799V754.324H595.399V753.024H597.099V752.424H595.399V751.324H595.499ZM596.199 754.924V756.624H594.299V754.924H596.199Z" fill="#CFD2D3"/>
<path d="M592.699 753.224L593.199 753.424C593.299 753.224 593.399 753.024 593.499 752.724C593.599 752.424 593.699 752.224 593.799 752.024L593.299 751.824C593.199 752.024 593.199 752.324 592.999 752.524C592.899 752.824 592.799 753.024 592.699 753.224Z" fill="#CFD2D3"/>
<path d="M602.3 754.223L601.7 754.123C601.7 754.223 601.6 754.523 601.4 754.723H600.2V755.323H601.1C600.9 755.623 600.8 755.823 600.6 756.023C601.1 756.223 601.5 756.423 601.9 756.523C601.5 756.723 600.9 756.923 600.1 757.023L600.3 757.623C600.8 757.523 601.3 757.423 601.6 757.223C602 757.123 602.3 756.923 602.5 756.723C603 756.923 603.5 757.223 604.1 757.523L604.4 756.923C604 756.723 603.6 756.523 603 756.223C603.3 755.923 603.5 755.523 603.7 755.123H604.4V754.523H602C602.1 754.523 602.2 754.323 602.3 754.223ZM603.1 755.323C602.9 755.723 602.7 756.023 602.5 756.223C602.1 756.023 601.7 755.923 601.5 755.823C601.6 755.723 601.7 755.523 601.8 755.323H603.1Z" fill="#CFD2D3"/>
<path d="M603.599 752.523H604.299V751.923H602.799C602.799 751.823 602.699 751.723 602.699 751.723C602.699 751.623 602.599 751.623 602.599 751.523C602.599 751.423 602.499 751.323 602.499 751.223L601.799 751.423C601.899 751.523 601.899 751.723 601.999 752.023H600.399V752.623H600.999L601.199 753.523H600.199V754.123H604.399V753.523H603.299L603.599 752.523ZM602.799 753.423H601.899L601.699 752.523H602.999C602.999 752.823 602.899 753.123 602.799 753.423Z" fill="#CFD2D3"/>
<path d="M600.1 754.024C599.9 754.124 599.7 754.124 599.6 754.224V753.124H600.2V752.524H599.6V751.324H599V752.524H598.2V753.124H599V754.424C598.7 754.524 598.4 754.624 598.1 754.724L598.2 755.324L599 755.024V756.624C599 756.724 599 756.824 598.9 756.824C598.9 756.824 598.8 756.924 598.7 756.924C598.5 756.924 598.3 756.924 598.2 756.924L598.3 757.524C598.5 757.524 598.7 757.524 598.9 757.524C599.1 757.524 599.2 757.524 599.3 757.424C599.4 757.424 599.5 757.324 599.5 757.224C599.5 757.124 599.6 756.924 599.6 756.724V754.724L600.1 754.524V754.024Z" fill="#CFD2D3"/>
<path d="M607.5 754.124V753.824H608.6V753.224H607.5V752.224C608 752.124 608.3 752.024 608.5 752.024L608.3 751.424C608 751.524 607.5 751.624 607 751.724C606.5 751.824 606 751.924 605.6 751.924L605.7 752.524C606 752.524 606.3 752.424 606.7 752.424V753.224H605.5V753.824H606.6C606.5 754.124 606.3 754.524 606.1 754.924C605.9 755.324 605.7 755.624 605.4 755.924L605.8 756.524C606.2 756.024 606.5 755.424 606.8 754.824V757.724H607.4V754.924C607.7 755.224 607.9 755.524 608.2 755.824L608.6 755.324C608.3 754.824 607.9 754.524 607.5 754.124Z" fill="#CFD2D3"/>
<path d="M608.901 757.524H609.501V756.924H610.901V757.424H611.501V751.824H608.801V757.524H608.901ZM609.501 752.524H610.901V756.324H609.501V752.524Z" fill="#CFD2D3"/>
<path d="M613.3 754.224C613.3 754.824 613.3 755.324 613.3 755.724C613.3 756.124 613.2 756.324 613.2 756.624C613.1 756.824 613 757.124 612.9 757.424L613.4 757.724C613.6 757.424 613.7 757.024 613.8 756.724C613.9 756.424 613.9 756.024 614 755.524H614.7V756.724C614.7 756.824 614.7 756.924 614.6 757.024C614.6 757.024 614.5 757.124 614.4 757.124C614.3 757.124 614.2 757.124 614 757.124L614.1 757.724C614.3 757.724 614.5 757.724 614.6 757.724C614.8 757.724 615 757.624 615.1 757.524C615.2 757.424 615.2 757.224 615.2 757.024V751.824H613.3V754.224ZM613.8 752.224H614.5V753.224H613.8V752.224ZM613.8 753.824H614.5V754.824H613.8V753.824Z" fill="#CFD2D3"/>
<path d="M618.701 756.223C618.701 756.423 618.701 756.623 618.701 756.623C618.701 756.723 618.701 756.823 618.701 756.923C618.701 757.023 618.601 757.023 618.501 757.023H618.401H618.301C618.201 757.023 618.201 757.023 618.101 756.923C618.101 756.823 618.101 756.823 618.101 756.623V755.023H618.901V752.523H618.101C618.301 752.223 618.401 751.923 618.501 751.723L618.701 751.423L618.101 751.123C618.001 751.323 617.901 751.523 617.801 751.723C617.701 752.023 617.501 752.223 617.401 752.423H615.701V754.923H616.301C616.301 755.323 616.301 755.623 616.201 755.823C616.101 756.023 616.001 756.323 615.901 756.423C615.701 756.623 615.501 756.823 615.301 756.923L615.701 757.423C616.001 757.223 616.201 756.923 616.401 756.723C616.601 756.523 616.701 756.223 616.801 755.923C616.901 755.623 616.901 755.223 616.901 754.823H617.501V756.523C617.501 756.823 617.501 756.923 617.601 757.123C617.701 757.223 617.801 757.323 618.001 757.323C618.101 757.323 618.201 757.323 618.301 757.323C618.401 757.323 618.501 757.323 618.601 757.323C618.801 757.323 619.001 757.223 619.101 757.123C619.201 757.023 619.301 756.823 619.301 756.623C619.301 756.523 619.301 756.323 619.301 756.123C619.301 755.923 619.301 755.823 619.301 755.723V755.523L618.701 755.423C618.701 755.823 618.701 756.023 618.701 756.223ZM616.301 754.523V753.223H618.201V754.523H616.301Z" fill="#CFD2D3"/>
<path d="M616.101 752.023C616.201 752.223 616.301 752.423 616.401 752.623L616.901 752.323C616.801 752.123 616.701 751.923 616.601 751.723C616.501 751.523 616.401 751.423 616.301 751.223L615.801 751.523C615.801 751.623 615.901 751.823 616.101 752.023Z" fill="#CFD2D3"/>
<path d="M625 751.223V751.923H623.9V751.223H623.4V751.923H622.4V752.423H623.4V752.823H623.9V752.423H625V752.823H625.5V752.423H626.6V751.923H625.5V751.223H625Z" fill="#CFD2D3"/>
<path d="M624.899 756.223H626.499V755.723H624.699V755.623V755.323H626.099V753.123H622.699V755.323H624.099C624.099 755.523 624.099 755.623 624.099 755.623V755.723H622.299V756.223H623.899C623.799 756.423 623.599 756.623 623.299 756.723C622.999 756.923 622.599 757.023 622.199 757.123L622.399 757.723C623.399 757.423 624.099 757.023 624.399 756.523C624.799 757.123 625.499 757.523 626.399 757.723L626.599 757.123C626.199 757.023 625.799 756.923 625.499 756.723C625.299 756.623 625.099 756.423 624.899 756.223ZM623.299 753.423H625.599V753.823H623.299V753.423ZM623.299 754.723V754.323H625.599V754.723H623.299Z" fill="#CFD2D3"/>
<path d="M621.9 753.823L621.7 753.523V753.123H622.4V752.523H621.7V751.223H621.1V752.523H620.3V753.123H621.1C621 753.523 620.8 753.923 620.7 754.323C620.5 754.723 620.3 755.123 620.1 755.423L620.5 756.023C620.8 755.623 621 755.123 621.2 754.423V757.623H621.8V754.323C622.1 754.723 622.2 754.923 622.3 755.023L622.6 754.423L621.9 753.823Z" fill="#CFD2D3"/>
<path d="M470.8 738.623L459.6 749.823V744.123L465.2 738.523H459.6H462H243H240H238.6C238.5 738.523 238.4 738.523 238.3 738.623C237.8 738.823 237.4 739.323 237.4 739.923V741.423V755.623V757.123C237.4 757.823 238 758.423 238.7 758.423H243H428.3H434H439.7H445.4H451.1H456.8H459.7V755.523L476.6 738.623H470.8ZM247.1 756.423H241.5V751.523L247.1 749.323V756.423ZM241.6 750.523V740.723H247.2V748.323L241.6 750.523ZM253.5 756.423H248V746.623L253.6 748.823L253.5 756.423ZM248 745.723V740.823H253.6V747.923L248 745.723ZM274.8 748.623V756.423H267H259.2V748.623V740.823H267H274.8V748.623ZM294.3 748.923C294.3 749.523 293.8 750.023 293.2 750.023H287.8V752.823H287H286V744.023H289.6H290.7H292.6H293.2C293.8 744.023 294.3 744.523 294.3 745.123V748.923ZM301.2 752.923H296.7C296.1 752.923 295.6 752.423 295.6 751.823V744.223H297.4V751.423C297.4 751.623 297.5 751.723 297.7 751.723H301.2V752.923ZM310.9 752.923H309V749.423H304.3V752.923H302.5V745.223C302.5 744.623 303 744.123 303.6 744.123H308.8H309.6C310.2 744.123 310.7 744.623 310.7 745.223V752.923H310.9ZM313.8 752.923H313.1H312.7L315.2 744.123H316.3L313.8 752.923ZM326.6 748.923C326.6 749.523 326.1 750.023 325.5 750.023H320.1V752.823H318.3V744.023H325.5C326.1 744.023 326.6 744.523 326.6 745.123V748.923ZM334.7 745.423H330.1C329.9 745.423 329.8 745.623 329.8 745.723V747.723H334.7V749.023H330.1C329.9 749.023 329.8 749.123 329.8 749.323V751.623H334.7V752.923H334.1H329.6H328.5H327.9V744.123H331.1H332.2H334.7V745.423ZM343.7 745.423H340.7V752.923H340.6H338.9V745.423H336.2H336V744.123H341.4H343.8V745.423H343.7ZM352.4 751.823C352.4 752.423 351.9 752.923 351.3 752.923H350.9H346C345.4 752.923 344.9 752.423 344.9 751.823V745.123C344.9 744.523 345.4 744.023 346 744.023H352.2V745.223H347C346.8 745.223 346.7 745.323 346.7 745.523V751.323C346.7 751.523 346.8 751.623 347 751.623H349.9H350.3C350.5 751.623 350.6 751.523 350.6 751.323V748.923H348.7V747.723H352.4V751.823ZM355.4 752.923H354.3L356.8 744.123H357.9L355.4 752.923ZM368.2 752.923H366.4V749.423H361.7V752.923H360.5H359.9V745.223C359.9 744.623 360.4 744.123 361 744.123H361.3H366.1H367.1C367.7 744.123 368.2 744.623 368.2 745.223V752.923ZM377.7 751.823C377.7 752.423 377.2 752.923 376.6 752.923H373.9H372H369.5V744.223H376.1C376.7 744.223 377.2 744.723 377.2 745.323V747.923L377.3 748.023C377.6 748.223 377.7 748.523 377.7 748.923V751.823ZM387.4 751.823C387.4 752.423 386.9 752.923 386.3 752.923H379.8H379.4V751.623H385.3C385.5 751.623 385.6 751.423 385.6 751.223V749.623C385.6 749.423 385.4 749.323 385.2 749.323H380.1C379.5 749.323 379 748.823 379 748.223V745.323C379 744.723 379.5 744.223 380.2 744.223H385.1H387.1V745.523H384.1H381.2C381 745.523 380.9 745.723 380.9 745.823V747.823C380.9 748.023 381 748.123 381.2 748.123H386.2C386.8 748.123 387.3 748.623 387.3 749.223V751.823H387.4ZM390.4 752.923H389.3L391.8 744.123H392.9L390.4 752.923ZM402.6 745.423H399.6V752.923H398.8H397.8V745.423H394.8V744.123H400.3H401.4H402.6V745.423ZM412 748.923C412 749.523 411.5 750.023 410.9 750.023H410.6H405.5V752.823H405.2H403.7V744.023H410.6H410.9C411.5 744.023 412 744.523 412 745.123V748.923ZM421.6 751.823C421.6 752.423 421.1 752.923 420.5 752.923H414.4C413.8 752.923 413.3 752.423 413.3 751.823V744.223H415.1V751.423C415.1 751.623 415.2 751.723 415.4 751.723H419.5C419.7 751.723 419.8 751.623 419.8 751.423V744.223H421.6V751.823ZM424.6 752.923H423.5L426 744.123H427.1L424.6 752.923ZM437.4 748.923C437.4 749.523 436.9 750.023 436.3 750.023H430.9V752.823H429.1V744.023H436.3C436.9 744.023 437.4 744.523 437.4 745.123V748.923ZM445.4 745.423H440.8C440.6 745.423 440.5 745.523 440.5 745.723V751.323C440.5 751.523 440.6 751.623 440.8 751.623H445.4V752.923H439.8C439.2 752.923 438.7 752.423 438.7 751.823V745.323C438.7 744.723 439.2 744.223 439.8 744.223H445.4V745.423Z" fill="#CFD2D3"/>
<path d="M482.101 738.623L462.301 758.423H467.901L487.801 738.623H482.101Z" fill="#CFD2D3"/>
<path d="M493.4 738.623L473.6 758.423H479.3L499.1 738.623H493.4Z" fill="#CFD2D3"/>
<path d="M490.6 758.424L501.9 747.124V741.424L484.9 758.424H490.6Z" fill="#CFD2D3"/>
<path d="M501.901 758.423V752.723L496.301 758.423H501.901Z" fill="#CFD2D3"/>
<path d="M292.099 745.424H287.699V748.824H292.099C292.299 748.824 292.399 748.724 292.399 748.524V745.724C292.499 745.524 292.299 745.424 292.099 745.424Z" fill="#CFD2D3"/>
<path d="M366.099 745.424H361.999C361.799 745.424 361.699 745.624 361.699 745.724V748.124H366.399V745.724C366.399 745.524 366.299 745.424 366.099 745.424Z" fill="#CFD2D3"/>
<path d="M409.8 745.424H409.5H405.4V748.824H409.5H409.8C410 748.824 410.1 748.724 410.1 748.524V745.724C410.2 745.524 410 745.424 409.8 745.424Z" fill="#CFD2D3"/>
<path d="M375.601 749.223H371.301V751.623H375.601C375.801 751.623 375.901 751.523 375.901 751.323V749.523C375.901 749.423 375.801 749.223 375.601 749.223Z" fill="#CFD2D3"/>
<path d="M375.5 747.623V745.823C375.5 745.623 375.3 745.523 375.2 745.523H371.4V748.023H375.2C375.3 748.023 375.5 747.823 375.5 747.623Z" fill="#CFD2D3"/>
<path d="M435.3 745.424H430.9V748.824H435.3C435.5 748.824 435.6 748.724 435.6 748.524V745.724C435.6 745.524 435.5 745.424 435.3 745.424Z" fill="#CFD2D3"/>
<path d="M308.701 745.424H304.601C304.401 745.424 304.301 745.624 304.301 745.724V748.124H309.001V745.724C309.001 745.524 308.901 745.424 308.701 745.424Z" fill="#CFD2D3"/>
<path d="M324.5 745.424H320.1V748.824H324.5C324.7 748.824 324.8 748.724 324.8 748.524V745.724C324.8 745.524 324.7 745.424 324.5 745.424Z" fill="#CFD2D3"/>
<path d="M267 743.424V747.324V751.224H268.3H269.6V749.924V748.624H270.9H272.2V746.024V743.424H269.6H267Z" fill="#CFD2D3"/>
<path d="M269.6 753.823H270.9H272.2V752.523V751.223H270.9H269.6V752.523V753.823Z" fill="#CFD2D3"/>
<path d="M261.699 751.223V752.523V753.823H264.399H266.999V752.523V751.223H264.399H261.699Z" fill="#CFD2D3"/>
</g>
<defs>
<clipPath id="clip0_8328_31992">
<rect width="733.3" height="761.7" fill="white" transform="translate(0 0.923828)"/>
</clipPath>
</defs>
</svg>
