<svg width="732" height="760" viewBox="0 0 732 760" fill="none" xmlns="http://www.w3.org/2000/svg">
<g clip-path="url(#clip0_8327_31858)">
<rect x="14.4922" y="50.7402" width="21.2129" height="392.16" fill="#535656"/>
<path d="M18.6008 139.4H30.6008C31.6008 139.4 32.3008 140.2 32.3008 141.1V151H30.7008V143C30.7008 142.5 30.3008 142 29.7008 142H19.4008C18.9008 142 18.4008 142.4 18.4008 143V151H16.8008V141.1C16.9008 140.2 17.6008 139.4 18.6008 139.4Z" fill="#CFD2D3"/>
<path d="M26.9004 152.9C27.8004 152.9 28.6004 153.7 28.6004 154.6V163C28.6004 164 27.8004 164.7 26.9004 164.7H18.6004C17.7004 164.7 16.9004 163.9 16.9004 163V154.6C16.9004 153.7 17.7004 152.9 18.6004 152.9H26.9004ZM27.3004 155.4H18.2004V162.2H27.3004V155.4Z" fill="#CFD2D3"/>
<path d="M26.9004 166.6C27.8004 166.6 28.6004 167.4 28.6004 168.3V176.7C28.6004 177.7 27.8004 178.4 26.9004 178.4H18.6004C17.7004 178.4 16.9004 177.6 16.9004 176.7V168.3C16.9004 167.4 17.7004 166.6 18.6004 166.6H26.9004ZM27.3004 169.1H18.2004V175.9H27.3004V169.1Z" fill="#CFD2D3"/>
<path d="M18.7008 180.4H32.5008V183H18.2008V186.4H16.8008V182.2C16.9008 181.2 17.7008 180.4 18.7008 180.4Z" fill="#CFD2D3"/>
<path d="M32.3004 195.2V208C32.3004 209 31.5004 209.7 30.6004 209.7H23.8004C22.8004 209.7 22.1004 208.9 22.1004 208V197.7H16.9004V195.1H32.3004V195.2ZM24.6004 207.2H29.7004C30.2004 207.2 30.7004 206.8 30.7004 206.2V197.8H23.7004V206.2C23.7004 206.8 24.1004 207.2 24.6004 207.2Z" fill="#CFD2D3"/>
<path d="M18.7008 211.701H32.5008V214.301H18.2008V217.701H16.8008V213.501C16.9008 212.501 17.7008 211.701 18.7008 211.701Z" fill="#CFD2D3"/>
<path d="M22.1004 219.5C23.1004 219.5 23.9004 220.3 23.9004 221.3V229.2H27.3004V220.6H28.6004V229.2C28.6004 230.6 27.7004 231.8 26.6004 231.8H16.9004V221.3C16.9004 220.3 17.7004 219.5 18.7004 219.5H22.1004ZM22.5004 222.1H18.2004V229.2H22.5004V222.1Z" fill="#CFD2D3"/>
<path d="M18.2004 239.4V240.8H16.9004V237.4C16.9004 236.4 17.7004 235.6 18.7004 235.6H27.2004V233H28.5004V235.6H32.3004V238.2H28.5004V240.8H27.2004V238.2H19.4004C18.7004 238.2 18.2004 238.7 18.2004 239.4Z" fill="#CFD2D3"/>
<path d="M26.8004 242.201C27.8004 242.201 28.6004 243.001 28.6004 244.001V252.701C28.6004 253.701 27.8004 254.501 26.8004 254.501H21.7004V244.801H18.2004V254.301H16.9004V244.001C16.9004 243.001 17.7004 242.201 18.7004 242.201H26.8004ZM27.3004 244.801H23.0004V251.901H27.3004V244.801Z" fill="#CFD2D3"/>
<path d="M26.8996 281H30.9996V282H26.6996C26.2996 282 26.0996 281.7 26.0996 281.4V278C26.0996 277.6 26.3996 277.4 26.6996 277.4H30.9996V278.4H26.8996C26.7996 278.4 26.6996 278.5 26.6996 278.6V280.9C26.6996 281 26.7996 281 26.8996 281Z" fill="#CFD2D3"/>
<path d="M28.1 287.7H26.6C26.2 287.7 26 287.4 26 287.1V283.2H26.7V286.5C26.7 286.6 26.8 286.7 26.9 286.7H27.8C27.9 286.7 28 286.6 28 286.5V283.6C28 283.3 28.3 283 28.6 283H30.2C30.6 283 30.8 283.3 30.8 283.7V287.6H30.1V284.3C30.1 284.2 30 284.1 29.9 284.1H28.8C28.7 284.1 28.6 284.2 28.6 284.3V287.2C28.7 287.5 28.4 287.7 28.1 287.7Z" fill="#CFD2D3"/>
<path d="M26 288.701H31V292.501H30.3V289.901C30.3 289.801 30.2 289.701 30.1 289.701H29V292.501H28.3V289.901C28.3 289.801 28.2 289.701 28.1 289.701H26.8V292.501H26V288.701Z" fill="#CFD2D3"/>
<path d="M30.9 296V300.1C30.9 300.5 30.6 300.7 30.3 300.7H26.6C26.2 300.7 26 300.4 26 300.1V296H30.9ZM30.2 299.6V297.1H26.7V299.6C26.7 299.7 26.8 299.8 26.9 299.8H30C30.1 299.7 30.2 299.7 30.2 299.6Z" fill="#CFD2D3"/>
<path d="M26 301.701H31V305.501H30.3V302.901C30.3 302.801 30.2 302.701 30.1 302.701H29V305.501H28.3V302.901C28.3 302.801 28.2 302.701 28.1 302.701H26.8V305.501H26V301.701Z" fill="#CFD2D3"/>
<path d="M26 309.2V308.2H30.3V306.5H31V310.9H30.3V309.2H26Z" fill="#CFD2D3"/>
<path d="M26 311.701H31V315.501H30.3V312.901C30.3 312.801 30.2 312.701 30.1 312.701H29V315.501H28.3V312.901C28.3 312.801 28.2 312.701 28.1 312.701H26.8V315.501H26V311.701Z" fill="#CFD2D3"/>
<path d="M31.1 316.5V320.7C31.1 321.1 30.8 321.4 30.4 321.4H28.3C27.9 321.4 27.6 321.1 27.6 320.7V320.5L26 321V319.9L27.7 319.3V317.5H26V316.4H31.1V316.5ZM28.5 320.3H30.1C30.2 320.3 30.3 320.2 30.3 320.1V317.5H28.3V320.1C28.4 320.2 28.4 320.3 28.5 320.3Z" fill="#CFD2D3"/>
<path d="M26.6 322.301H30.4C30.7 322.301 31 322.601 31 322.901V326.401H30.3V323.501C30.3 323.401 30.2 323.301 30.1 323.301H26.8C26.7 323.301 26.6 323.401 26.6 323.501V325.401C26.6 325.501 26.7 325.601 26.8 325.601H28.2V324.501H29V326.601H26.6C26.2 326.601 26 326.301 26 326.001V323.001C26 322.601 26.3 322.301 26.6 322.301Z" fill="#CFD2D3"/>
<path d="M26 327.5H31V331.3H30.3V328.7C30.3 328.6 30.2 328.5 30.1 328.5H29V331.3H28.3V328.7C28.3 328.6 28.2 328.5 28.1 328.5H26.8V331.3H26V327.5Z" fill="#CFD2D3"/>
<path d="M26 333.301V332.301H31V333.401L27.2 336.001H31V337.001H26V335.901L29.8 333.301H26Z" fill="#CFD2D3"/>
<path d="M26 340.7V339.7H30.3V338H31V342.4H30.3V340.7H26Z" fill="#CFD2D3"/>
<path d="M26 348.501V347.501H30.3V345.801H31V350.201H30.3V348.501H26Z" fill="#CFD2D3"/>
<path d="M30.4 351C30.8 351 31 351.3 31 351.6V355C31 355.4 30.7 355.6 30.4 355.6H26.6C26.2 355.6 26 355.3 26 355V351.6C26 351.2 26.3 351 26.6 351H30.4ZM30.3 354.5V352.2C30.3 352.1 30.2 352 30.1 352H26.8C26.7 352 26.6 352.1 26.6 352.2V354.5C26.6 354.6 26.7 354.7 26.8 354.7H30.1C30.3 354.6 30.3 354.6 30.3 354.5Z" fill="#CFD2D3"/>
<path d="M26.6 359.201H30.3C30.7 359.201 30.9 359.501 30.9 359.801V362.901H30.2V360.301C30.2 360.201 30.1 360.101 30 360.101H26.8C26.7 360.101 26.6 360.201 26.6 360.301V362.901H26V359.801C26 359.501 26.3 359.201 26.6 359.201Z" fill="#CFD2D3"/>
<path d="M26.6 363.9H30.9V364.9H26.8C26.7 364.9 26.6 365 26.6 365.1V367.1H26V364.6C26 364.2 26.3 363.9 26.6 363.9Z" fill="#CFD2D3"/>
<path d="M26 368.1H31V371.9H30.3V369.3C30.3 369.2 30.2 369.1 30.1 369.1H29V371.9H28.3V369.3C28.3 369.2 28.2 369.1 28.1 369.1H26.8V371.9H26V368.1Z" fill="#CFD2D3"/>
<path d="M30.3 372.901C30.7 372.901 30.9 373.201 30.9 373.501V376.901C30.9 377.301 30.6 377.501 30.3 377.501H26V376.501H28V373.801H26V372.801H30.3V372.901ZM30.2 376.401V374.101C30.2 374.001 30.1 373.901 30 373.901H28.6V376.601H30C30.1 376.501 30.2 376.501 30.2 376.401Z" fill="#CFD2D3"/>
<path d="M26 379.5V378.5H31V379.6L27.2 382.2H31V383.2H26V382.1L29.8 379.5H26Z" fill="#CFD2D3"/>
<path d="M26 389.501V388.501H30.3V386.801H31V391.201H30.3V389.501H26Z" fill="#CFD2D3"/>
<path d="M28.2 395.2V393H26V392H31V393H28.9V395.2H31V396.2H26V395.2H28.2Z" fill="#CFD2D3"/>
<path d="M26 397.201H31V401.001H30.3V398.401C30.3 398.301 30.2 398.201 30.1 398.201H29V401.001H28.3V398.401C28.3 398.301 28.2 398.201 28.1 398.201H26.8V401.001H26V397.201Z" fill="#CFD2D3"/>
<path d="M28.1 409.2H26.6C26.2 409.2 26 408.9 26 408.6V404.7H26.7V408C26.7 408.1 26.8 408.2 26.9 408.2H27.8C27.9 408.2 28 408.1 28 408V405.1C28 404.8 28.3 404.5 28.6 404.5H30.2C30.6 404.5 30.8 404.8 30.8 405.2V409.1H30.1V405.8C30.1 405.7 30 405.6 29.9 405.6H28.8C28.7 405.6 28.6 405.7 28.6 405.8V408.7C28.7 409 28.4 409.2 28.1 409.2Z" fill="#CFD2D3"/>
<path d="M26.8996 413.901H30.9996V414.901H26.6996C26.2996 414.901 26.0996 414.601 26.0996 414.301V410.901C26.0996 410.501 26.3996 410.301 26.6996 410.301H30.9996V411.301H26.8996C26.7996 411.301 26.6996 411.401 26.6996 411.501V413.801C26.6996 413.801 26.7996 413.901 26.8996 413.901Z" fill="#CFD2D3"/>
<path d="M31.1004 415.9V420.1C31.1004 420.5 30.8004 420.8 30.4004 420.8H28.3004C27.9004 420.8 27.6004 420.5 27.6004 420.1V419.9L25.9004 420.5V419.4L27.6004 418.8V417H26.0004V415.9H31.1004ZM28.5004 419.7H30.1004C30.2004 419.7 30.3004 419.6 30.3004 419.5V416.9H28.3004V419.5C28.4004 419.6 28.4004 419.7 28.5004 419.7Z" fill="#CFD2D3"/>
<path d="M28 422.701H26V421.701H31V425.701H30.3V422.901C30.3 422.801 30.2 422.701 30.1 422.701H29V425.701H28.3V422.901C28.2 422.801 28.1 422.701 28 422.701Z" fill="#CFD2D3"/>
<path d="M30.3 426.6C30.7 426.6 30.9 426.9 30.9 427.2V430.6C30.9 431 30.6 431.2 30.3 431.2H26V430.2H28V427.5H26V426.5H30.3V426.6ZM30.2 430.1V427.8C30.2 427.7 30.1 427.6 30 427.6H28.6V430.3H30C30.1 430.3 30.2 430.2 30.2 430.1Z" fill="#CFD2D3"/>
<path d="M26.6 432.301H30.3C30.7 432.301 30.9 432.601 30.9 432.901V436.001H30.2V433.401C30.2 433.301 30.1 433.201 30 433.201H26.8C26.7 433.201 26.6 433.301 26.6 433.401V436.001H26V432.901C26 432.601 26.3 432.301 26.6 432.301Z" fill="#CFD2D3"/>
<path d="M26 437.1H31V440.9H30.3V438.3C30.3 438.2 30.2 438.1 30.1 438.1H29V440.9H28.3V438.3C28.3 438.2 28.2 438.1 28.1 438.1H26.8V440.9H26V437.1Z" fill="#CFD2D3"/>
<path d="M31.3004 265.4H16.9004V266.2H31.3004V265.4Z" fill="#CFD2D3"/>
<path d="M32.6 54.1992V66.0992C32.6 67.1992 31.7 68.0992 30.6 68.0992H26L25.9 68.1992C25.5 68.6992 24.9 68.8992 24.3 68.8992H19C17.9 68.8992 17 67.9992 17 66.8992V54.1992H32.6ZM23.7 65.0992V57.2992H19.3V65.0992C19.3 65.3992 19.6 65.6992 19.9 65.6992H23.1C23.4 65.6992 23.7 65.4992 23.7 65.0992ZM25.9 64.2992C25.9 64.5992 26.2 64.8992 26.5 64.8992H29.7C30 64.8992 30.3 64.5992 30.3 64.2992V57.3992H25.9V64.2992Z" fill="#CFD2D3"/>
<path d="M22.4 70.7988C23.5 70.7988 24.5 71.6988 24.5 72.8988V80.1988H27.1V71.7988H29.1V80.5988C29.1 82.1988 28.1 83.4988 26.8 83.4988H17V72.8988C17 71.7988 17.9 70.7988 19.1 70.7988H22.4ZM22.5 80.1988V73.9988H19V80.0988H22.5V80.1988Z" fill="#CFD2D3"/>
<path d="M27 102.499H17V99.1988H27.1V95.4988H17V92.2988H27.1V88.5988H17V85.2988H29.1V100.399C29.1 101.599 28.2 102.499 27 102.499Z" fill="#CFD2D3"/>
<path d="M32.8 104.1V107.4H29.1V114.7C29.1 115.9 28.2 116.8 27 116.8H19.1C18 116.8 17 115.9 17 114.7V104.1H32.8ZM27.1 113.5V107.4H19V113.5H27.1Z" fill="#CFD2D3"/>
<path d="M29.1 130.7H17V120.5C17 119.4 17.9 118.5 19 118.5H29.1V121.7H19V127.7H29.2V130.7H29.1Z" fill="#CFD2D3"/>
<path d="M22.7984 283.699H22.1984V282.499H17.7984C17.4984 282.499 17.1984 282.399 17.0984 282.299C16.9984 282.199 16.8984 281.899 16.8984 281.599C16.8984 281.399 16.8984 281.099 16.8984 280.699L17.5984 280.599C17.5984 280.899 17.4984 281.199 17.4984 281.399C17.4984 281.599 17.4984 281.699 17.5984 281.699C17.6984 281.799 17.7984 281.799 17.8984 281.799H22.0984V280.099H22.6984V283.699H22.7984ZM19.8984 279.899C19.8984 279.899 19.8984 279.799 19.7984 279.699L19.5984 278.999H17.7984C17.5984 278.999 17.3984 278.999 17.2984 278.899C17.1984 278.799 17.0984 278.799 17.0984 278.599C17.0984 278.499 16.9984 278.299 16.9984 277.999C16.9984 277.799 16.9984 277.599 16.9984 277.499L17.6984 277.399C17.6984 277.399 17.6984 277.499 17.6984 277.599C17.6984 277.699 17.6984 277.799 17.6984 277.899C17.6984 278.099 17.6984 278.199 17.7984 278.199C17.7984 278.199 17.9984 278.299 18.0984 278.299H19.4984C19.3984 277.799 19.1984 277.499 19.1984 277.299L19.8984 277.199C19.9984 277.399 20.0984 277.799 20.1984 278.399H21.5984V277.399H21.9984V278.399H23.2984V279.099H21.9984V279.899H21.3984V278.999H20.1984V279.099C20.3984 279.599 20.3984 279.799 20.3984 279.799L19.8984 279.899Z" fill="#CFD2D3"/>
<path d="M22.7984 287.999V290.799H18.6984C18.3984 290.799 18.0984 290.699 17.9984 290.599C17.8984 290.499 17.7984 290.299 17.7984 290.099C17.7984 289.899 17.7984 289.599 17.7984 289.299L18.4984 289.199C18.4984 289.399 18.3984 289.699 18.3984 289.899C18.3984 289.999 18.3984 290.099 18.4984 290.199C18.5984 290.199 18.6984 290.299 18.8984 290.299H22.0984V288.799H16.8984V287.999H22.7984ZM22.5984 287.599C22.4984 287.299 22.3984 286.999 22.2984 286.599C22.1984 286.299 22.0984 285.999 22.0984 285.699H20.8984V287.499H20.1984V285.699H18.3984L18.5984 286.299C18.6984 286.699 18.7984 287.099 18.9984 287.499H18.2984C18.0984 286.799 17.8984 286.199 17.6984 285.599C17.5984 285.299 17.4984 285.099 17.4984 285.099L18.0984 284.799C18.1984 284.899 18.1984 284.899 18.2984 284.899C18.3984 284.899 18.3984 284.899 18.4984 284.899H22.5984C22.6984 285.199 22.7984 285.599 22.8984 285.999C22.9984 286.399 23.1984 286.799 23.2984 287.199L22.5984 287.599Z" fill="#CFD2D3"/>
<path d="M16.8984 292.4H21.2984V295H17.6984C17.3984 295 17.1984 294.9 17.0984 294.8C16.9984 294.7 16.8984 294.5 16.8984 294.2C16.8984 294 16.8984 293.8 16.8984 293.6L17.4984 293.5C17.4984 293.7 17.4984 293.8 17.4984 294C17.4984 294.1 17.4984 294.2 17.5984 294.3C17.5984 294.3 17.6984 294.4 17.8984 294.4H18.3984V293H16.8984V292.4ZM21.3984 297.1V297.7H17.7984C17.5984 297.7 17.3984 297.7 17.2984 297.6C17.1984 297.6 17.0984 297.5 16.9984 297.3C16.8984 297.2 16.8984 297 16.8984 296.8C16.8984 296.5 16.8984 296.2 16.8984 295.9L17.4984 295.8C17.4984 296.1 17.3984 296.3 17.3984 296.6C17.3984 296.8 17.3984 296.9 17.4984 297C17.5984 297.1 17.6984 297.1 17.8984 297.1H21.3984ZM21.1984 295.7V296.3H18.1984V295.7H21.1984ZM19.4984 293.1H18.8984V294.5H19.4984V293.1ZM20.0984 294.4H20.6984V293H20.0984V294.4ZM22.3984 298.2H21.7984V292H22.3984V293.8C22.6984 293.6 22.9984 293.5 23.0984 293.4L23.2984 294C23.1984 294 23.0984 294.1 22.9984 294.2C22.7984 294.3 22.6984 294.3 22.6984 294.4L22.4984 294.5V295.8C22.7984 296 23.0984 296.1 23.3984 296.3L23.1984 296.9C22.8984 296.7 22.5984 296.6 22.4984 296.5V298.2H22.3984Z" fill="#CFD2D3"/>
<path d="M16.8988 301.7H20.1988V305.2H17.6988C17.3988 305.2 17.2988 305.1 17.0988 305C16.9988 304.9 16.8988 304.7 16.8988 304.5C16.8988 304.3 16.8988 304 16.8988 303.7L17.3988 303.6C17.3988 303.9 17.2988 304.1 17.2988 304.3C17.2988 304.4 17.2988 304.5 17.3988 304.5C17.4988 304.5 17.4988 304.6 17.5988 304.6H17.7988V302.3H16.7988V301.7H16.8988ZM18.1988 300.7L18.6988 301.2L18.0988 301.4L17.8988 301.2C17.5988 300.9 17.3988 300.7 17.3988 300.6C17.2988 300.4 17.0988 300.3 16.9988 300.2L17.4988 299.8C17.5988 299.9 17.5988 299.9 17.6988 299.9C17.7988 299.9 17.7988 299.9 17.8988 299.9H20.3988V299.1H20.9988V300.5H18.1988V300.7ZM18.7988 302.3H18.3988V304.6H18.7988V302.3ZM19.2988 304.6H19.6988V302.3H19.2988V304.6ZM21.3988 303.7H20.9988V305.7H20.4988V301.2H20.9988V303.1H21.3988V301.6H21.8988V303.1H22.2988V301.4H22.7988V303.1H23.2988V303.7H22.7988V305.5H22.2988V303.7H21.8988V305.3H21.3988V303.7ZM21.4988 300.5C21.9988 300.2 22.3988 299.9 22.7988 299.6L23.0988 300.1C22.4988 300.5 22.0988 300.8 21.7988 301L21.4988 300.5Z" fill="#CFD2D3"/>
<path d="M23.0988 308.5C22.4988 308.4 21.9988 308.2 21.4988 308H16.7988V307.4H20.2988C19.9988 307.2 19.6988 307 19.4988 306.9L20.1988 306.6C20.5988 306.9 20.9988 307.1 21.5988 307.3C22.1988 307.5 22.6988 307.7 23.3988 307.9L23.0988 308.5ZM16.8988 312.9C16.9988 312.3 17.0988 311.8 17.1988 311.4C17.2988 311 17.3988 310.6 17.5988 310.3C17.4988 310.1 17.2988 309.9 17.1988 309.6C17.0988 309.3 16.9988 309 16.7988 308.6L17.3988 308.3C17.5988 308.9 17.6988 309.4 17.8988 309.7C18.1988 309.3 18.4988 309 18.8988 308.8L19.2988 309.2C18.8988 309.5 18.5988 309.8 18.3988 310.1C18.4988 310.2 18.6988 310.3 18.7988 310.3C18.9988 310.3 19.0988 310.4 19.3988 310.4V308.7H21.3988V310.4H21.9988V308.5H22.5988V310.4H23.3988V311H22.5988V312.9H21.9988V311H21.3988V312.7H19.3988V311C18.7988 311 18.3988 310.9 18.0988 310.7C17.8988 311.3 17.6988 312.1 17.5988 313.1L16.8988 312.9ZM20.7988 310.4V309.3H19.9988V310.4H20.7988ZM19.9988 312.1H20.7988V311H19.9988V312.1Z" fill="#CFD2D3"/>
<path d="M22.9992 314.599V319.799H17.7992C17.5992 319.799 17.3992 319.799 17.2992 319.699C17.1992 319.599 17.0992 319.499 16.9992 319.399C16.9992 319.299 16.8992 319.099 16.8992 318.799C16.8992 318.599 16.8992 318.399 16.8992 318.099L17.5992 317.999C17.5992 318.299 17.4992 318.499 17.4992 318.699C17.4992 318.799 17.4992 318.899 17.5992 318.999C17.6992 318.999 17.7992 319.099 17.8992 319.099H18.7992V317.399H16.9992V316.799H18.8992V315.099C18.4992 315.099 18.1992 314.999 17.7992 314.899C17.4992 314.799 17.0992 314.599 16.6992 314.399L16.9992 313.799C17.3992 313.999 17.6992 314.099 17.8992 314.199C18.0992 314.299 18.3992 314.299 18.6992 314.399C18.9992 314.399 19.3992 314.399 19.8992 314.399H22.9992V314.599ZM19.5992 315.299V316.899H20.5992V315.299H19.7992H19.5992ZM20.5992 317.599H19.5992V319.299H20.5992V317.599ZM21.1992 316.899H22.2992V315.299H21.1992V316.899ZM21.1992 317.599V319.299H22.2992V317.599H21.1992Z" fill="#CFD2D3"/>
<path d="M16.8988 323.599H20.0988V327.199H17.5988C17.2988 327.199 17.1988 327.099 16.9988 326.999C16.8988 326.899 16.7988 326.699 16.7988 326.499C16.7988 326.199 16.7988 325.999 16.7988 325.699L17.2988 325.599C17.2988 325.799 17.1988 326.099 17.1988 326.299C17.1988 326.399 17.1988 326.499 17.2988 326.499C17.3988 326.499 17.3988 326.599 17.5988 326.599H17.7988V324.199H16.7988V323.599H16.8988ZM17.0988 321.599C17.2988 321.699 17.6988 321.799 18.2988 321.999C18.7988 322.199 19.2988 322.299 19.5988 322.399L19.3988 322.999C19.0988 322.899 18.6988 322.799 18.1988 322.599C17.6988 322.399 17.2988 322.299 16.9988 322.199L17.0988 321.599ZM18.7988 324.199H18.3988V326.599H18.7988V324.199ZM19.2988 326.599H19.6988V324.199H19.2988V326.599ZM19.9988 322.499C20.2988 322.199 20.5988 321.799 20.9988 321.199L21.4988 321.599L21.2988 321.899C20.7988 322.499 20.5988 322.899 20.4988 322.899L19.9988 322.499ZM21.3988 325.699H20.9988V327.799H20.4988V323.099H20.9988V325.099H21.3988V323.599H21.8988V325.099H22.2988V323.399H22.7988V325.099H23.2988V325.699H22.7988V327.599H22.2988V325.699H21.8988V327.399H21.3988V325.699ZM21.6988 322.799C21.7988 322.699 21.9988 322.499 22.1988 322.199C22.3988 321.999 22.5988 321.799 22.6988 321.599L23.1988 321.999C22.9988 322.199 22.6988 322.599 22.1988 323.199L21.6988 322.799Z" fill="#CFD2D3"/>
<path d="M16.8984 331.599V330.899H19.5984V334.499H16.8984V333.799H17.1984V331.499H16.8984V331.599ZM17.0984 328.899C17.1984 328.999 17.5984 329.099 18.2984 329.399C18.9984 329.699 19.3984 329.799 19.4984 329.799L19.2984 330.399C19.1984 330.299 18.7984 330.199 18.1984 329.999C17.5984 329.799 17.1984 329.599 16.8984 329.499L17.0984 328.899ZM17.7984 333.899H18.9984V331.599H17.7984V333.899ZM21.4984 328.999C20.9984 329.599 20.6984 330.099 20.4984 330.399L19.9984 329.999C20.1984 329.799 20.3984 329.599 20.5984 329.299C20.7984 328.999 20.9984 328.799 21.0984 328.699L21.4984 328.999ZM22.2984 334.999H21.6984V333.099H20.7984V334.799H20.1984V330.799H20.7984V332.499H21.6984V330.799H22.2984V332.499H23.1984V333.199H22.2984V334.999ZM23.1984 329.299C22.8984 329.799 22.5984 330.199 22.3984 330.399L21.7984 329.999C22.1984 329.499 22.4984 329.099 22.6984 328.899L23.1984 329.299Z" fill="#CFD2D3"/>
<path d="M19.5988 336.9V337.5H19.2988C18.8988 337.5 18.4988 337.4 18.1988 337.4C17.8988 337.3 17.6988 337.2 17.4988 337.1C17.2988 337 17.0988 336.7 16.7988 336.5L17.1988 336C17.3988 336.3 17.5988 336.5 17.7988 336.6C17.9988 336.7 18.1988 336.8 18.3988 336.9C18.5988 337 18.8988 337 19.2988 337C19.3988 336.9 19.4988 336.9 19.5988 336.9ZM23.1988 341.5V342.1H17.8988C17.5988 342.1 17.2988 342 17.1988 341.9C17.0988 341.8 16.9988 341.5 16.9988 341.2C16.9988 340.9 16.9988 340.6 16.9988 340.4L17.5988 340.3C17.5988 340.6 17.5988 340.8 17.5988 341C17.5988 341.2 17.5988 341.3 17.6988 341.4C17.7988 341.5 17.8988 341.5 18.0988 341.5H23.1988ZM16.9988 339.1V338.5H19.5988V339.1H16.9988ZM22.5988 340.2V340.8H18.3988V340.2H22.5988ZM21.8988 339.3C21.4988 339.1 21.0988 338.9 20.7988 338.6C20.4988 339.2 20.1988 339.7 19.9988 340L19.4988 339.7C19.8988 339.2 20.1988 338.7 20.3988 338.2C19.9988 337.7 19.6988 337.1 19.3988 336.3L19.9988 336C20.1988 336.7 20.4988 337.2 20.7988 337.6C20.8988 337.4 21.0988 337 21.2988 336.7C21.2988 336.7 21.2988 336.6 21.3988 336.5L21.8988 336.8C21.6988 337.1 21.4988 337.6 21.1988 338.1C21.3988 338.3 21.6988 338.6 21.9988 338.7V336.2H22.5988V337.8C22.7988 337.7 22.9988 337.6 23.2988 337.5L23.3988 338.2C23.1988 338.3 22.8988 338.4 22.5988 338.5V339.9H21.9988V339.3H21.8988Z" fill="#CFD2D3"/>
<path d="M20.3984 345.398C20.0984 345.798 19.6984 346.198 19.2984 346.598L18.7984 346.198C19.0984 345.898 19.3984 345.698 19.6984 345.398H16.8984V344.798H19.7984C19.1984 344.498 18.5984 344.198 18.0984 343.798L18.6984 343.398C18.9984 343.698 19.2984 343.898 19.6984 344.098C20.0984 344.298 20.3984 344.498 20.7984 344.598V343.498H21.3984V344.698H22.1984C22.0984 344.298 22.0984 343.998 22.0984 343.698L22.6984 343.598C22.6984 343.998 22.7984 344.498 22.8984 344.998C22.9984 345.498 23.0984 345.898 23.1984 346.298L22.5984 346.498C22.4984 346.298 22.4984 345.898 22.3984 345.498H21.3984V346.598H20.7984V345.498H20.3984V345.398ZM17.0984 346.798H22.6984V349.498H17.0984V348.898H17.5984V347.498H16.9984V346.798H17.0984ZM22.0984 347.398H18.2984V348.798H22.0984V347.398Z" fill="#CFD2D3"/>
<path d="M18.0984 357.2L17.4984 356.7C17.9984 356.1 18.4984 355.6 18.9984 355.2C19.4984 354.8 20.0984 354.5 20.6984 354.2H17.7984C17.4984 354.2 17.1984 354.1 17.0984 354C16.9984 353.9 16.8984 353.6 16.8984 353.3C16.8984 353 16.8984 352.7 16.8984 352.4L17.5984 352.3C17.5984 352.6 17.4984 352.9 17.4984 353.1C17.4984 353.3 17.4984 353.4 17.5984 353.4C17.6984 353.4 17.7984 353.5 17.9984 353.5H23.1984V354.2H22.2984C21.7984 354.4 21.2984 354.5 20.8984 354.7C21.0984 355 21.3984 355.2 21.5984 355.5C21.7984 355.8 22.0984 356 22.2984 356.2L21.7984 356.7C21.1984 356.1 20.6984 355.6 20.2984 355C19.3984 355.6 18.6984 356.3 18.0984 357.2ZM21.6984 353.1H20.9984C20.3984 353 19.6984 352.7 19.1984 352.4C18.5984 352.1 17.9984 351.6 17.4984 351.1L17.9984 350.6C18.4984 351.1 18.9984 351.5 19.4984 351.8C19.9984 352.1 20.4984 352.3 21.0984 352.5V350.9H21.7984V353.1H21.6984Z" fill="#CFD2D3"/>
<path d="M16.8988 360.3H20.0988V363.9H17.5988C17.2988 363.9 17.1988 363.8 16.9988 363.7C16.8988 363.6 16.7988 363.4 16.7988 363.2C16.7988 362.9 16.7988 362.7 16.7988 362.4L17.2988 362.3C17.2988 362.5 17.1988 362.8 17.1988 363C17.1988 363.1 17.1988 363.2 17.2988 363.2C17.3988 363.2 17.3988 363.3 17.5988 363.3H17.7988V360.9H16.7988V360.3H16.8988ZM17.0988 358.3C17.2988 358.4 17.6988 358.5 18.2988 358.7C18.7988 358.9 19.2988 359 19.5988 359.1L19.3988 359.7C19.0988 359.6 18.6988 359.5 18.1988 359.3C17.6988 359.1 17.2988 359 16.9988 358.9L17.0988 358.3ZM18.7988 360.9H18.3988V363.3H18.7988V360.9ZM19.2988 363.3H19.6988V360.9H19.2988V363.3ZM19.9988 359.3C20.2988 359 20.5988 358.6 20.9988 358L21.4988 358.4L21.2988 358.7C20.7988 359.3 20.5988 359.7 20.4988 359.7L19.9988 359.3ZM21.3988 362.4H20.9988V364.5H20.4988V359.8H20.9988V361.8H21.3988V360.3H21.8988V361.8H22.2988V360.1H22.7988V361.8H23.2988V362.4H22.7988V364.3H22.2988V362.4H21.8988V364.1H21.3988V362.4ZM21.6988 359.5C21.7988 359.4 21.9988 359.2 22.1988 358.9C22.3988 358.7 22.5988 358.5 22.6988 358.3L23.1988 358.7C22.9988 358.9 22.6988 359.3 22.1988 359.9L21.6988 359.5Z" fill="#CFD2D3"/>
<path d="M18.6 371.798C18.2 371.798 18 371.798 17.8 371.798C17.5 371.798 17.4 371.698 17.3 371.598C17.2 371.498 17.1 371.298 17.1 371.098C17.1 370.898 17.1 370.798 17.1 370.698C17.1 370.598 17.1 370.498 17.1 370.298C17.1 370.098 17.2 369.898 17.3 369.798C17.4 369.698 17.6 369.598 17.9 369.598H19.9V368.998C19.4 368.998 19 368.898 18.7 368.798C18.4 368.698 18.1 368.498 17.8 368.298C17.5 368.098 17.3 367.798 17 367.398L17.5 366.898C17.7 367.298 17.9 367.598 18.2 367.798C18.4 367.998 18.6 368.098 18.9 368.198C19.2 368.298 19.5 368.298 19.9 368.298V367.198H20.5V369.198H21.6V368.198C21.3 368.098 21 367.998 20.8 367.898L21 367.298C21.3 367.498 21.7 367.598 22 367.698C22.3 367.798 22.7 367.898 23.1 367.998L23 368.598C22.7 368.498 22.5 368.498 22.2 368.398V369.198H23.4V369.898H22.2V371.498H21.6V369.898H20.5V371.798H19.9V370.398H18.1C18 370.398 17.9 370.398 17.9 370.498C17.9 370.598 17.8 370.598 17.8 370.698C17.8 370.698 17.8 370.798 17.8 370.898C17.8 370.998 17.8 371.098 17.8 371.098C17.8 371.198 17.8 371.198 17.9 371.298C17.9 371.298 18 371.298 18.2 371.298C18.4 371.298 18.6 371.298 18.9 371.298L18.6 371.798ZM19.3 366.998C18.5 366.798 17.7 366.498 17 366.198L17.2 365.598C18 365.898 18.8 366.198 19.5 366.398L19.3 366.998ZM20 366.698C20.1 366.498 20.3 366.298 20.5 366.098C20.7 365.798 20.9 365.598 21 365.398L21.5 365.798C21.4 365.998 21.2 366.198 21 366.398C20.8 366.698 20.6 366.898 20.5 367.098L20 366.698ZM21.7 366.898C22.2 366.298 22.5 365.898 22.6 365.698L23.1 366.098C23 366.198 22.9 366.398 22.7 366.698C22.5 366.898 22.4 367.198 22.2 367.298L21.7 366.898Z" fill="#CFD2D3"/>
<path d="M18.0988 378.199C17.9988 378.499 17.8988 378.799 17.6988 379.199L17.0988 378.899C17.2988 378.299 17.4988 377.899 17.7988 377.499C17.9988 377.099 18.2988 376.799 18.5988 376.599C18.8988 376.399 19.2988 376.099 19.7988 375.899C19.4988 375.599 19.1988 375.399 18.9988 375.099H17.6988L18.0988 376.399L17.4988 376.499C17.2988 375.799 17.0988 375.199 16.8988 374.699C16.8988 374.599 16.7988 374.499 16.7988 374.399L17.2988 374.199C17.3988 374.399 17.4988 374.499 17.6988 374.499H18.4988C18.2988 374.099 17.9988 373.599 17.7988 373.099L18.3988 372.799C18.5988 373.399 18.7988 373.799 19.0988 374.199C19.2988 374.599 19.5988 374.899 19.8988 375.199V372.899H20.3988V375.699H20.9988V373.499H21.4988V375.699H22.0988V373.199H22.6988V375.699H23.2988V376.399H22.6988V378.899H22.0988V376.399H21.4988V378.599H20.9988V376.399H20.3988V379.199H19.8988V376.599C19.4988 376.799 19.2988 376.999 18.9988 377.199C19.2988 377.699 19.4988 378.099 19.7988 378.399L19.2988 378.799C19.0988 378.399 18.7988 378.099 18.5988 377.699C18.2988 377.699 18.1988 377.999 18.0988 378.199Z" fill="#CFD2D3"/>
<path d="M22.3984 386.399V383.599C22.0984 383.499 21.8984 383.399 21.6984 383.299V385.999H16.8984V385.399H17.2984V381.199H16.8984V380.599H21.5984V382.599C21.7984 382.699 21.9984 382.799 22.2984 382.899V380.199H22.9984V386.399H22.3984ZM21.0984 381.999V381.199H17.8984V381.999H21.0984ZM18.5984 383.999V382.699H17.8984V383.999H18.5984ZM17.8984 384.599V385.399H21.0984V384.599H17.8984ZM19.0984 382.699V383.999H19.7984V382.699H19.0984ZM20.3984 382.699V383.999H21.0984V382.699H20.3984Z" fill="#CFD2D3"/>
<path d="M628.299 728.4H212.699V729.4H628.299V728.4Z" fill="#CFD2D3"/>
<path d="M538.999 739.7H541.899V739H538.399C537.999 739 537.799 739.3 537.799 739.6V743.4C537.799 743.8 538.099 744 538.399 744H541.399C541.799 744 541.999 743.7 541.999 743.4V741H539.899V741.7H540.999V743.1C540.999 743.2 540.899 743.3 540.799 743.3H538.999C538.899 743.3 538.799 743.2 538.799 743.1V739.8C538.899 739.8 538.899 739.7 538.999 739.7Z" fill="#CFD2D3"/>
<path d="M546.3 743.3H544.3C544.2 743.3 544.1 743.2 544.1 743.1V739H543.1V743.3C543.1 743.7 543.4 743.9 543.7 743.9H546.2V743.3H546.3Z" fill="#CFD2D3"/>
<path d="M550.999 743.2C550.999 743.3 550.899 743.4 550.799 743.4H548.499C548.399 743.4 548.299 743.3 548.299 743.2V739.1H547.299V743.4C547.299 743.8 547.599 744 547.899 744H551.299C551.699 744 551.899 743.7 551.899 743.4V739.1H550.899V743.2H550.999Z" fill="#CFD2D3"/>
<path d="M552.898 744H556.698V743.3H553.998V742C553.998 741.9 554.098 741.8 554.198 741.8H556.798V741.1H553.998V740C553.998 739.9 554.098 739.8 554.198 739.8H556.798V739.1H552.998V744H552.898Z" fill="#CFD2D3"/>
<path d="M561.499 739.8H564.799V739.1H560.899C560.499 739.1 560.199 739.4 560.199 739.7V741.3C560.199 741.6 560.499 741.9 560.799 741.9H563.699C563.799 741.9 563.899 742 563.899 742.1V743C563.899 743.1 563.799 743.2 563.699 743.2H560.399V743.9H564.299C564.699 743.9 564.899 743.6 564.899 743.3V741.8C564.899 741.4 564.599 741.2 564.299 741.2H561.399C561.299 741.2 561.199 741.1 561.199 741V740C561.299 739.9 561.399 739.8 561.499 739.8Z" fill="#CFD2D3"/>
<path d="M568.7 744V739.8H570.4V739.1H566V739.8H567.6V744H568.7Z" fill="#CFD2D3"/>
<path d="M572.299 739.1H571.299V744.1H572.299V739.1Z" fill="#CFD2D3"/>
<path d="M577.098 743.3H574.498C574.398 743.3 574.298 743.2 574.298 743.1V740C574.298 739.9 574.398 739.8 574.498 739.8H577.098V739.1H573.998C573.598 739.1 573.398 739.4 573.398 739.7V743.4C573.398 743.8 573.698 744 573.998 744H577.098V743.3Z" fill="#CFD2D3"/>
<path d="M581.4 741.4L582.4 739.1H581.3L580.6 741.1H579.1V739.1H578V744H579.1V741.8H580.6L581.4 744H582.5L581.4 741.4Z" fill="#CFD2D3"/>
<path d="M586 739.7V743.4C586 743.8 586.3 744 586.6 744H589.7V743.3H587.1C587 743.3 586.9 743.2 586.9 743.1V740C586.9 739.9 587 739.8 587.1 739.8H589.7V739.1H586.6C586.3 739.1 586 739.4 586 739.7Z" fill="#CFD2D3"/>
<path d="M594.799 739.1H591.399C590.999 739.1 590.799 739.4 590.799 739.7V744H591.799V742H594.499V744H595.499V739.7C595.499 739.4 595.199 739.1 594.799 739.1ZM594.499 741.4H591.799V740C591.799 739.9 591.899 739.8 591.999 739.8H594.299C594.399 739.8 594.499 739.9 594.499 740V741.4Z" fill="#CFD2D3"/>
<path d="M597.398 740.3L599.998 744H601.098V739.1H600.098V742.9L597.598 739.1H596.398V744H597.398V740.3Z" fill="#CFD2D3"/>
<path d="M604.699 739.1V744H605.699V741.8H607.899V744H608.899V739.1H607.899V741.1H605.699V739.1H604.699Z" fill="#CFD2D3"/>
<path d="M611.098 739.8H613.698V739.1H609.898V744.1H613.698V743.4H610.898V742C610.898 741.9 610.998 741.8 611.098 741.8H613.698V741.1H610.898V740C610.898 739.9 610.998 739.8 611.098 739.8Z" fill="#CFD2D3"/>
<path d="M615.699 743.1V739H614.699V743.3C614.699 743.7 614.999 743.9 615.299 743.9H617.799V743.2H615.799C615.799 743.3 615.699 743.2 615.699 743.1Z" fill="#CFD2D3"/>
<path d="M622.899 739.1H618.799V744.1H619.799V742.5H622.799C623.199 742.5 623.399 742.2 623.399 741.9V739.8C623.499 739.4 623.199 739.1 622.899 739.1ZM622.499 741.5C622.499 741.6 622.399 741.7 622.299 741.7H619.799V739.8H622.299C622.399 739.8 622.499 739.9 622.499 740V741.5Z" fill="#CFD2D3"/>
<path d="M625.6 743.301H624.6V744.101H625.6V743.301Z" fill="#CFD2D3"/>
<path d="M527.699 752.101H520.899L530.699 742.301C531.399 741.601 531.399 740.401 530.699 739.701L525.699 734.701C524.999 734.001 523.799 734.001 523.099 734.701L511.199 746.601C510.899 746.901 510.699 747.401 510.699 747.901C510.699 748.401 510.899 748.801 511.199 749.201L515.199 753.201H516.099H517.499H519.799H527.799C528.099 753.201 528.399 752.901 528.399 752.601C528.399 752.301 527.999 752.101 527.699 752.101ZM523.899 735.501C524.199 735.201 524.599 735.201 524.899 735.501L529.899 740.501C530.199 740.801 530.199 741.201 529.899 741.501L522.299 749.101L516.299 743.101L523.899 735.501ZM519.299 752.101H515.999H515.599L511.899 748.401C511.799 748.301 511.699 748.101 511.699 747.901C511.699 747.701 511.799 747.501 511.899 747.401L515.399 743.901L521.399 749.901L519.299 752.101Z" fill="#CFD2D3"/>
<path d="M531.798 752.1H529.998C529.698 752.1 529.398 752.4 529.398 752.7C529.398 753 529.698 753.3 529.998 753.3H531.798C532.098 753.3 532.398 753 532.398 752.7C532.298 752.4 532.098 752.1 531.798 752.1Z" fill="#CFD2D3"/>
<path d="M540.1 748.4V748.3C540.2 748.1 540.2 748 540.3 747.8H543.4V747.2H540.5C540.5 747.1 540.6 746.8 540.7 746.5L540 746.4C540 746.5 539.9 746.8 539.8 747.2H537.9V747.8H539.6C539.5 748 539.5 748.2 539.3 748.6H537.5V749.2H539.1C539 749.5 538.8 749.8 538.7 750V750.5H542.1C541.7 750.9 541.3 751.3 540.9 751.6C539.9 751.2 539.1 751 538.6 750.8L538.4 751.4C539 751.6 539.7 751.8 540.5 752.1C541.3 752.4 542 752.7 542.6 752.9L542.9 752.3C542.6 752.2 542.2 752 541.6 751.8C542.2 751.3 542.6 750.9 543 750.4V749.8H539.5C539.6 749.6 539.7 749.4 539.8 749.1H543.7V748.5H540C540.1 748.5 540.1 748.5 540.1 748.4Z" fill="#CFD2D3"/>
<path d="M545.498 749.6C545.498 750.1 545.498 750.6 545.498 750.8C545.498 751.1 545.398 751.4 545.298 751.6C545.198 751.8 545.098 752.1 544.898 752.5L545.498 752.8C545.698 752.4 545.898 752.1 545.998 751.7C546.098 751.4 546.198 751 546.198 750.6H547.898V752.5H548.498V750.6H550.198V751.5C550.198 751.7 550.198 751.8 550.098 751.8C550.098 751.9 549.998 751.9 549.798 751.9C549.598 751.9 549.398 751.9 549.098 751.8L549.198 752.5C549.498 752.5 549.698 752.5 549.898 752.5C550.098 752.5 550.298 752.5 550.498 752.4C550.598 752.4 550.698 752.3 550.798 752.1C550.898 752 550.898 751.8 550.898 751.6V746.4H545.698V749.6H545.498ZM548.398 747.4H550.098V748.5H548.398V747.4ZM548.398 749.1H550.098V750.1H548.398V749.1ZM546.098 747.4H547.698V748.5H546.098V747.4ZM546.098 749.9V749.1H547.698V750.1H546.098V749.9Z" fill="#CFD2D3"/>
<path d="M557.8 749.6L557.2 749.4C557 749.9 556.8 750.4 556.6 750.7C556.4 750.4 556.2 749.9 556 749.4L555.4 749.6C555.6 750.2 555.9 750.8 556.2 751.2C555.8 751.6 555.3 752 554.6 752.3L555 752.9C555.7 752.6 556.2 752.2 556.6 751.7C557 752.1 557.6 752.5 558.2 752.8L558.6 752.2C557.9 751.9 557.4 751.6 557 751.2C557.3 750.8 557.6 750.2 557.8 749.6Z" fill="#CFD2D3"/>
<path d="M555.099 749.9C555.499 749.4 555.899 748.9 556.299 748.3L555.799 748C555.399 748.6 554.999 749.1 554.699 749.6L555.099 749.9Z" fill="#CFD2D3"/>
<path d="M552.6 749.501C552.6 750.101 552.6 750.601 552.6 751.001C552.6 751.401 552.5 751.701 552.4 751.901C552.3 752.101 552.2 752.401 552.1 752.701L552.7 753.001C552.9 752.701 553 752.401 553.1 752.001C553.2 751.601 553.2 751.201 553.3 750.701H554.1V751.901C554.1 752.001 554.1 752.101 554.1 752.201C554.1 752.301 554 752.301 553.9 752.301C553.7 752.301 553.6 752.301 553.4 752.301L553.5 752.901C553.7 752.901 553.9 752.901 554 752.901C554.3 752.901 554.4 752.801 554.5 752.701C554.6 752.601 554.7 752.401 554.7 752.101V746.801H552.7V749.501H552.6ZM553.1 747.401H553.9V748.401H553.1V747.401ZM553.1 749.701V749.001H553.9V750.001H553.1V749.701Z" fill="#CFD2D3"/>
<path d="M556.898 748.3C557.198 748.7 557.598 749.2 558.098 749.8L558.598 749.4C558.198 748.9 557.798 748.4 557.398 747.9L556.898 748.3Z" fill="#CFD2D3"/>
<path d="M558.398 747.3H556.998C556.898 746.9 556.698 746.6 556.698 746.4L556.098 746.6C556.198 746.9 556.298 747.1 556.398 747.4H554.898V748H558.398V747.3Z" fill="#CFD2D3"/>
<path d="M564.8 749.5H565.9V749H563.5C563.5 748.9 563.6 748.8 563.7 748.6H565.6V748H563.8C563.8 747.9 563.9 747.8 563.9 747.5H565.7V747H563.9L564 746.4H563.4C563.4 746.6 563.4 746.8 563.3 747H561.8V747.5H563.2L563.1 748H561.9V748.5H562.9C562.9 748.6 562.8 748.8 562.7 748.9H561.6V749.4H562.4C562.1 749.9 561.7 750.3 561.1 750.7L561.4 751.2C561.7 750.9 562 750.7 562.3 750.4V750.8H563.2V751.3H561.7V751.8H563.2V752.7H563.8V751.8H565.3V751.3H563.8V750.8H564.7V750.4C565 750.7 565.3 751 565.6 751.2L565.9 750.7C565.6 750.5 565.4 750.4 565.2 750.2C565.1 750 564.9 749.8 564.8 749.5ZM563.9 750.4V749.8H563.3V750.4H562.5C562.7 750.1 562.9 749.8 563.1 749.5H564.1C564.3 749.8 564.5 750.1 564.7 750.4H563.9Z" fill="#CFD2D3"/>
<path d="M561.498 750.3L561.798 749.8C561.498 749.4 561.198 749.1 560.998 748.8V748.4H561.698V747.8H560.998V746.5H560.398V747.8H559.598V748.4H560.298C560.198 748.8 559.998 749.2 559.898 749.6C559.698 750 559.598 750.4 559.398 750.7L559.698 751.4C559.898 751 560.198 750.5 560.398 750V752.9H560.998V749.7C561.198 749.9 561.298 750.1 561.398 750.2L561.498 750.3Z" fill="#CFD2D3"/>
<path d="M570.599 748.4H567.699V751.2H570.599V748.4ZM569.899 750.6H568.199V749H569.899V750.6Z" fill="#CFD2D3"/>
<path d="M566.898 747.401H571.698V751.501C571.698 751.701 571.698 751.901 571.598 752.001C571.498 752.101 571.398 752.101 571.198 752.101C570.898 752.101 570.598 752.101 570.198 752.001L570.298 752.601C570.598 752.601 570.898 752.601 571.198 752.601C571.498 752.601 571.698 752.601 571.898 752.501C572.098 752.401 572.198 752.301 572.198 752.201C572.198 752.101 572.298 751.801 572.298 751.601V747.301H573.198V746.701H566.898V747.401Z" fill="#CFD2D3"/>
<path d="M576.798 750.9L575.198 751.7V749.8H576.698V747H574.398V747.7H576.098V749.2H574.598V751.8C574.598 751.9 574.498 752.1 574.398 752.2L574.698 752.8C574.798 752.7 575.098 752.6 575.398 752.4C575.898 752.2 576.398 751.9 576.998 751.7L576.798 750.9Z" fill="#CFD2D3"/>
<path d="M579.699 749.701C579.899 749.201 579.999 748.701 579.999 748.101H580.499V747.401H578.299C578.399 747.101 578.499 746.801 578.599 746.401L577.899 746.301C577.799 746.701 577.699 747.201 577.399 747.701C577.199 748.201 576.899 748.601 576.699 749.001L577.099 749.501C577.199 749.301 577.299 749.201 577.399 749.101C577.599 749.701 577.799 750.301 578.199 750.901C577.799 751.401 577.099 751.801 576.299 752.301L576.699 752.901C577.499 752.401 578.099 752.001 578.599 751.501C578.999 752.001 579.599 752.501 580.199 752.901L580.599 752.301C579.899 751.901 579.399 751.501 578.999 751.001C579.299 750.601 579.499 750.201 579.699 749.701ZM577.899 748.401L577.999 748.101H579.299C579.199 748.601 579.199 749.001 578.999 749.401C578.899 749.801 578.699 750.101 578.499 750.401C578.299 749.901 578.099 749.201 577.899 748.401Z" fill="#CFD2D3"/>
<path d="M582.299 752.8H582.899V752.6H586.399V752.8H586.999V751H582.199V752.8H582.299ZM582.999 751.5H586.499V752H582.999V751.5Z" fill="#CFD2D3"/>
<path d="M586.899 749.5H587.799V749H585.099V748.6H587.399V748.1H585.099V747.7H587.699V747.2H586.199C586.299 747 586.399 746.9 586.499 746.8L586.599 746.7L585.999 746.5C585.899 746.7 585.699 747 585.499 747.3H584.199C584.099 747.2 583.999 746.9 583.799 746.6L583.199 746.8C583.199 746.9 583.299 747 583.399 747.2C583.399 747.2 583.399 747.2 583.399 747.3C583.399 747.3 583.399 747.4 583.499 747.4H581.999V747.9H584.599V748.3H582.299V748.8H584.599V749.2H581.899V749.7H582.799C582.899 749.9 582.999 750.1 583.099 750.3H581.799V750.8H588.099V750.3H586.799C586.699 750 586.699 749.7 586.899 749.5ZM584.399 750.1H583.499L583.199 749.5H584.399V750.1ZM585.999 750.1H585.099V749.5H586.299C586.199 749.7 586.099 749.9 585.999 750.1Z" fill="#CFD2D3"/>
<path d="M593.599 746.5H592.899V749.5H591.799V752.9H592.399V752.5H594.299V752.9H594.899V749.5H593.499V748.2H595.199V747.6H593.499V746.5H593.599ZM594.299 750.1V751.8H592.399V750.1H594.299Z" fill="#CFD2D3"/>
<path d="M591.799 747.1L591.299 746.9C591.199 747.1 591.199 747.4 590.999 747.6C590.799 747.8 590.799 748.1 590.699 748.3L591.199 748.5C591.299 748.3 591.399 748.1 591.499 747.8C591.699 747.6 591.799 747.3 591.799 747.1Z" fill="#CFD2D3"/>
<path d="M589.398 746.9L588.898 747.1C588.998 747.3 589.098 747.5 589.198 747.8C589.298 748.1 589.398 748.3 589.398 748.5L589.898 748.3C589.798 748.1 589.798 747.8 589.698 747.5C589.598 747.3 589.498 747.1 589.398 746.9Z" fill="#CFD2D3"/>
<path d="M590.599 746.5H589.999V748.9H588.799V749.5H589.899C589.799 749.8 589.599 750.1 589.399 750.5C589.199 750.8 588.999 751.1 588.699 751.4L589.099 752C589.499 751.5 589.799 751 589.999 750.5V752.9H590.599V750.7C590.799 750.9 590.999 751.1 591.199 751.4L591.599 750.9C591.299 750.6 590.999 750.2 590.599 749.9V749.5H591.599V748.9H590.599V746.5Z" fill="#CFD2D3"/>
<path d="M598.199 749.2C597.999 749.3 597.799 749.3 597.699 749.4V748.3H598.299V747.7H597.699V746.5H597.099V747.7H596.299V748.3H597.099V749.6C596.799 749.7 596.499 749.8 596.199 749.9L596.299 750.5L597.099 750.2V751.8C597.099 751.9 597.099 752 596.999 752C596.999 752 596.899 752.1 596.799 752.1C596.599 752.1 596.399 752.1 596.299 752.1L596.399 752.7C596.599 752.7 596.799 752.7 596.999 752.7C597.199 752.7 597.299 752.7 597.399 752.6C597.499 752.6 597.599 752.5 597.599 752.4C597.599 752.3 597.699 752.1 597.699 751.9V749.9L598.199 749.7V749.2Z" fill="#CFD2D3"/>
<path d="M601.699 747.601H602.399V747.001H600.899C600.899 746.901 600.799 746.801 600.799 746.801C600.799 746.701 600.699 746.701 600.699 746.601C600.699 746.501 600.599 746.401 600.599 746.301L599.899 746.501C599.999 746.601 599.999 746.801 600.099 747.101H598.499V747.701H599.099L599.299 748.601H598.299V749.201H602.499V748.601H601.399L601.699 747.601ZM600.899 748.601H599.999L599.799 747.701H601.099C600.999 748.001 600.999 748.301 600.899 748.601Z" fill="#CFD2D3"/>
<path d="M600.3 749.401L599.7 749.301C599.7 749.401 599.6 749.701 599.4 749.901H598.2V750.501H599.1C598.9 750.801 598.8 751.001 598.6 751.201C599.1 751.401 599.5 751.601 599.9 751.701C599.5 751.901 598.9 752.101 598.1 752.201L598.3 752.801C598.8 752.701 599.3 752.601 599.6 752.401C600 752.301 600.3 752.101 600.5 751.901C601 752.101 601.5 752.401 602.1 752.701L602.4 752.101C602 751.901 601.6 751.701 601 751.401C601.3 751.101 601.5 750.701 601.7 750.301H602.4V749.701H599.9C600.2 749.701 600.3 749.501 600.3 749.401ZM601.2 750.501C601 750.901 600.8 751.201 600.6 751.401C600.2 751.201 599.8 751.101 599.6 751.001C599.7 750.901 599.8 750.701 599.9 750.501H601.2Z" fill="#CFD2D3"/>
<path d="M607 752.6H607.6V752H609V752.5H609.6V747H607V752.6ZM607.6 747.6H609V751.4H607.6V747.6Z" fill="#CFD2D3"/>
<path d="M605.6 749.3V749H606.7V748.4H605.6V747.4C606.1 747.3 606.4 747.2 606.6 747.2L606.4 746.6C606 746.7 605.6 746.8 605.1 746.9C604.6 747 604.1 747.1 603.7 747.1L603.8 747.7C604.1 747.7 604.4 747.6 604.8 747.6V748.4H603.6V749H604.7C604.6 749.3 604.4 749.7 604.2 750.1C604 750.5 603.8 750.8 603.5 751.1L603.9 751.7C604.3 751.2 604.6 750.6 604.9 750V752.9H605.5V750C605.8 750.3 606 750.6 606.3 750.9L606.7 750.4C606.4 750 606 749.6 605.6 749.3Z" fill="#CFD2D3"/>
<path d="M614.998 747.401C614.898 747.201 614.798 747.001 614.698 746.801C614.598 746.601 614.498 746.501 614.398 746.301L613.898 746.601C613.998 746.701 613.998 746.801 614.198 747.001C614.298 747.201 614.398 747.401 614.498 747.601L614.998 747.401Z" fill="#CFD2D3"/>
<path d="M611.4 749.4C611.4 750 611.4 750.5 611.4 750.9C611.4 751.3 611.3 751.5 611.3 751.8C611.2 752 611.1 752.3 611 752.6L611.5 752.9C611.7 752.6 611.8 752.2 611.9 751.9C612 751.6 612 751.2 612.1 750.7H612.8V751.9C612.8 752 612.8 752.1 612.7 752.2C612.7 752.2 612.6 752.3 612.5 752.3C612.4 752.3 612.3 752.3 612.1 752.3L612.2 752.9C612.4 752.9 612.6 752.9 612.7 752.9C612.9 752.9 613.1 752.8 613.2 752.7C613.3 752.6 613.3 752.4 613.3 752.2V747H611.4V749.4ZM611.9 747.4H612.6V748.4H611.9V747.4ZM611.9 749H612.6V750H611.9V749Z" fill="#CFD2D3"/>
<path d="M616.798 751.401C616.798 751.601 616.798 751.801 616.798 751.801C616.798 751.901 616.798 752.001 616.798 752.101C616.798 752.201 616.698 752.201 616.598 752.201H616.498H616.398C616.298 752.201 616.298 752.201 616.198 752.101C616.198 752.001 616.198 752.001 616.198 751.801V750.201H616.998V747.701H616.198C616.398 747.401 616.498 747.101 616.598 746.901L616.798 746.601L616.198 746.301C616.098 746.501 615.998 746.701 615.898 746.901C615.798 747.201 615.598 747.401 615.498 747.601H613.798V750.101H614.398C614.398 750.501 614.398 750.801 614.298 751.001C614.198 751.201 614.098 751.501 613.998 751.601C613.798 751.801 613.598 752.001 613.398 752.101L613.798 752.601C614.098 752.401 614.298 752.101 614.498 751.901C614.698 751.701 614.798 751.401 614.898 751.101C614.998 750.801 614.998 750.401 614.998 750.001H615.598V751.701C615.598 752.001 615.598 752.101 615.698 752.301C615.798 752.401 615.898 752.501 616.098 752.501C616.198 752.501 616.298 752.501 616.398 752.501C616.498 752.501 616.598 752.501 616.698 752.501C616.898 752.501 617.098 752.401 617.198 752.301C617.298 752.201 617.398 752.001 617.398 751.801C617.398 751.701 617.398 751.501 617.398 751.301C617.398 751.101 617.398 751.001 617.398 750.901V750.701L616.798 750.601C616.798 751.001 616.798 751.201 616.798 751.401ZM614.398 749.701V748.401H616.298V749.701H614.398Z" fill="#CFD2D3"/>
<path d="M622.999 751.301H624.599V750.801H622.799V750.701V750.401H624.199V748.201H620.799V750.401H622.199C622.199 750.601 622.199 750.701 622.199 750.701V750.801H620.399V751.301H621.999C621.899 751.501 621.699 751.701 621.399 751.801C621.099 752.001 620.699 752.101 620.299 752.201L620.499 752.801C621.499 752.501 622.199 752.101 622.499 751.601C622.899 752.201 623.599 752.601 624.499 752.801L624.699 752.201C624.299 752.101 623.899 752.001 623.599 751.801C623.399 751.801 623.199 751.601 622.999 751.301ZM621.399 748.601H623.699V749.001H621.399V748.601ZM621.399 749.901V749.501H623.699V749.901H621.399Z" fill="#CFD2D3"/>
<path d="M623 746.4V747H622V746.4H621.5V747H620.5V747.6H621.5V747.9H622V747.6H623V747.9H623.6V747.6H624.6V747H623.6V746.4H623Z" fill="#CFD2D3"/>
<path d="M619.999 749L619.799 748.7V748.3H620.499V747.7H619.799V746.4H619.199V747.7H618.399V748.3H619.199C619.099 748.7 618.899 749.1 618.799 749.5C618.599 749.9 618.399 750.3 618.199 750.6L618.599 751.2C618.899 750.8 619.099 750.3 619.299 749.6V752.8H619.899V749.5C620.199 749.9 620.299 750.1 620.399 750.2L620.699 749.6L619.999 749Z" fill="#CFD2D3"/>
<path d="M414.798 733.5L403.598 744.7V739L409.098 733.5H403.598H403.498H397.898H392.198H386.498H380.798H375.398H369.498H240.498H237.598C236.898 733.6 236.398 734.1 236.398 734.8V752C236.398 752.7 236.898 753.2 237.598 753.3H237.798H369.798H372.398H378.098H383.698H389.398H395.098H400.798H403.798V750.3L420.698 733.4H414.798V733.5ZM247.498 751.2H241.898V746.3L247.498 744.1V751.2ZM241.898 745.4V743.4V735.6H247.498V743.2L241.898 745.4ZM253.898 751.2H248.298V741.4L253.898 743.6V751.2ZM253.898 742.7L248.298 740.5V735.6H249.698H253.898V742.7ZM275.098 743.4V751.2H267.298H259.498V743.4V735.6H267.298H275.098V743.4ZM293.898 743.7C293.898 744.3 293.398 744.8 292.798 744.8H287.398V747.6H285.798H285.598V738.8H290.298H291.398H292.798C293.398 738.8 293.898 739.3 293.898 739.9V743.7ZM300.798 747.6H296.298C295.698 747.6 295.198 747.1 295.198 746.5V738.9H296.998V746.1C296.998 746.3 297.098 746.4 297.298 746.4H300.798V747.6ZM310.398 747.6H309.598H308.598V744.1H303.898V747.6H302.898H302.098V740C302.098 739.4 302.598 738.9 303.198 738.9H309.298C309.898 738.9 310.398 739.4 310.398 740V747.6Z" fill="#CFD2D3"/>
<path d="M426.199 733.5L406.299 753.3H411.999L431.799 733.5H426.199Z" fill="#CFD2D3"/>
<path d="M437.499 733.5L417.699 753.3H423.299L443.199 733.5H437.499Z" fill="#CFD2D3"/>
<path d="M448.9 733.5L429 753.3H434.7L454.5 733.5H448.9Z" fill="#CFD2D3"/>
<path d="M460.199 733.5L440.299 753.3H445.999L465.899 733.5H460.199Z" fill="#CFD2D3"/>
<path d="M471.499 733.5L451.699 753.3H457.299L477.199 733.5H471.499Z" fill="#CFD2D3"/>
<path d="M482.8 733.5L463 753.3H468.7L488.5 733.5H482.8Z" fill="#CFD2D3"/>
<path d="M494.199 733.5L474.299 753.3H479.999L499.899 733.5H494.199Z" fill="#CFD2D3"/>
<path d="M491.399 753.301L502.699 742.001V736.301L485.699 753.301H491.399Z" fill="#CFD2D3"/>
<path d="M502.7 753.301V747.701L497 753.301H502.7Z" fill="#CFD2D3"/>
<path d="M308.298 740.1H304.998H304.198C303.998 740.1 303.898 740.3 303.898 740.4V742.8H308.598V740.4C308.598 740.3 308.498 740.1 308.298 740.1Z" fill="#CFD2D3"/>
<path d="M291.699 740.1H287.299V743.5H291.699C291.899 743.5 291.999 743.4 291.999 743.2V740.4C292.099 740.3 291.899 740.1 291.699 740.1Z" fill="#CFD2D3"/>
<path d="M267.299 739.501V740.801H268.599H269.899V742.101V743.401H268.599H267.299V746.001V748.601H268.599H269.899V747.301V746.001H271.199H272.499V742.101V738.201H269.899H267.299V739.501Z" fill="#CFD2D3"/>
<path d="M267.299 740.801H265.999H264.699V742.101V743.401H265.999H267.299V742.101V740.801Z" fill="#CFD2D3"/>
<path d="M264.7 738.201H263.4H262.1V739.501V740.801H263.4H264.7V739.501V738.201Z" fill="#CFD2D3"/>
</g>
<defs>
<clipPath id="clip0_8327_31858">
<rect width="731.3" height="759.7" fill="white"/>
</clipPath>
</defs>
</svg>
