<svg width="734" height="763" viewBox="0 0 734 763" fill="none" xmlns="http://www.w3.org/2000/svg">
<g clip-path="url(#clip0_8328_31992)">
<rect x="9" y="50.543" width="37.1152" height="539.814" fill="#535656"/>
<path d="M30.1988 186.023H19.5488V182.123H42.6488V186.023H32.5988V197.873H42.6488V201.773H19.5488V197.873H30.1988V186.023Z" fill="#CFD2D3"/>
<path d="M37.0988 204.623V208.523H19.5488V204.623H37.0988ZM42.6488 204.623V208.523H40.6988V204.623H42.6488Z" fill="#CFD2D3"/>
<path d="M34.25 211.373C35 211.373 35.6 211.673 36.05 212.123C36.5 212.573 36.8 213.323 36.8 213.923V227.873C36.8 229.373 35.6 230.573 34.1 230.573H15.2C13.7 230.573 12.5 229.373 12.5 227.873V211.673H14.45V226.673H19.4V214.073C19.4 212.573 20.6 211.373 22.1 211.373H34.25ZM34.85 226.673V215.273H21.5V226.673H34.85Z" fill="#CFD2D3"/>
<path d="M42.6488 233.422V237.322H36.9488V249.022C36.9488 250.522 35.7488 251.722 34.2488 251.722H19.5488V247.822H34.9988V237.322H19.5488V233.422H42.6488Z" fill="#CFD2D3"/>
<path d="M19.5488 273.172H40.2488V264.922H42.6488V285.322H40.2488V277.072H19.5488V273.172Z" fill="#CFD2D3"/>
<path d="M34.5488 287.422C36.0488 287.422 37.2488 288.622 37.2488 290.122V303.172C37.2488 304.672 36.0488 305.872 34.5488 305.872H26.7488V291.322H21.4988V305.572H19.5488V290.122C19.5488 288.622 20.7488 287.422 22.2488 287.422H34.5488ZM35.1488 291.322H28.6988V301.972H35.1488V291.322Z" fill="#CFD2D3"/>
<path d="M37.0988 308.724V331.374C37.0988 332.874 35.8988 334.074 34.3988 334.074H19.5488V330.174H34.6988H34.9988V323.424H19.5488V319.374H35.1488V312.474H19.5488V308.574H37.0988V308.724Z" fill="#CFD2D3"/>
<path d="M36.95 336.922V352.522C36.95 354.022 35.75 355.222 34.25 355.222H22.1C20.6 355.222 19.4 354.022 19.4 352.522V340.822H12.5V336.922H36.95ZM35 340.822H21.5V351.322H35V340.822Z" fill="#CFD2D3"/>
<path d="M34.5488 357.623C36.0488 357.623 37.2488 358.823 37.2488 360.323V373.373C37.2488 374.873 36.0488 376.073 34.5488 376.073H26.7488V361.523H21.4988V375.773H19.5488V360.323C19.5488 358.823 20.7488 357.623 22.2488 357.623H34.5488ZM35.1488 361.523H28.6988V372.173H35.1488V361.523Z" fill="#CFD2D3"/>
<path d="M36.7988 387.622V390.622H33.0488V382.672H19.5488V378.922H36.7988V382.672H33.0488L34.8488 383.872C36.0488 384.772 36.7988 386.122 36.7988 387.622Z" fill="#CFD2D3"/>
<path d="M27.3488 393.023C28.8488 393.023 30.0488 394.223 30.0488 395.723V407.573H35.1488V394.673H37.0988V407.573C37.0988 409.673 35.7488 411.473 34.0988 411.473H19.5488V395.723C19.5488 394.223 20.7488 393.023 22.2488 393.023H27.3488ZM27.9488 396.923H21.4988V407.573H27.9488V396.923Z" fill="#CFD2D3"/>
<path d="M21.4988 423.473V425.573H19.5488V420.473C19.5488 418.973 20.7488 417.773 22.2488 417.773H34.9988V413.873H36.9488V417.773H42.6488V421.673H36.9488V425.573H34.9988V421.673H23.2988C22.3988 421.673 21.4988 422.573 21.4988 423.473Z" fill="#CFD2D3"/>
<path d="M19.5488 445.823V430.673C19.5488 429.323 20.7488 428.123 22.0988 428.123H37.0988V431.873H21.4988V442.073H37.0988V445.823H19.5488Z" fill="#CFD2D3"/>
<path d="M36.7988 457.073V460.073H33.0488V452.123H19.5488V448.373H36.7988V452.123H33.0488L34.8488 453.323C36.0488 454.073 36.7988 455.573 36.7988 457.073Z" fill="#CFD2D3"/>
<path d="M34.5488 462.473C36.0488 462.473 37.2488 463.673 37.2488 465.173V478.223C37.2488 479.723 36.0488 480.923 34.5488 480.923H26.7488V466.373H21.4988V480.623H19.5488V465.173C19.5488 463.673 20.7488 462.473 22.2488 462.473H34.5488ZM35.1488 466.373H28.6988V477.023H35.1488V466.373Z" fill="#CFD2D3"/>
<path d="M42.6488 494.273V513.473C42.6488 514.973 41.4488 516.023 40.0988 516.023H29.8988C28.3988 516.023 27.3488 514.823 27.3488 513.473V498.023H19.5488V494.123H42.6488V494.273ZM31.2488 512.123H38.8988C39.6488 512.123 40.3988 511.523 40.3988 510.623V498.023H29.8988V510.623C29.7488 511.523 30.4988 512.123 31.2488 512.123Z" fill="#CFD2D3"/>
<path d="M22.2488 518.873H42.9488V522.773H21.6488V527.873H19.5488V521.573C19.5488 520.073 20.7488 518.873 22.2488 518.873Z" fill="#CFD2D3"/>
<path d="M27.3488 530.723C28.8488 530.723 30.0488 531.923 30.0488 533.423V545.273H35.1488V532.373H37.0988V545.273C37.0988 547.373 35.7488 549.173 34.0988 549.173H19.5488V533.423C19.5488 531.923 20.7488 530.723 22.2488 530.723H27.3488ZM27.9488 534.623H21.4988V545.273H27.9488V534.623Z" fill="#CFD2D3"/>
<path d="M21.4988 560.424V562.524H19.5488V557.424C19.5488 555.924 20.7488 554.724 22.2488 554.724H34.9988V550.824H36.9488V554.724H42.6488V558.624H36.9488V562.524H34.9988V558.624H23.2988C22.3988 558.624 21.4988 559.524 21.4988 560.424Z" fill="#CFD2D3"/>
<path d="M34.5488 564.623C36.0488 564.623 37.2488 565.823 37.2488 567.323V580.373C37.2488 581.873 36.0488 583.073 34.5488 583.073H26.7488V568.523H21.4988V582.773H19.5488V567.323C19.5488 565.823 20.7488 564.623 22.2488 564.623H34.5488ZM35.1488 568.523H28.6988V579.173H35.1488V568.523Z" fill="#CFD2D3"/>
<path d="M42.8 54.0234V71.8734C42.8 73.5234 41.45 74.8734 39.8 74.8734H32.75L32.6 75.0234C32 75.7734 31.1 76.0734 30.2 76.0734H22.25C20.6 76.0734 19.25 74.7234 19.25 73.0734V54.0234H42.8ZM29.3 70.5234V58.8234H22.7V70.5234C22.7 70.9734 23.15 71.4234 23.6 71.4234H28.4C29 71.4234 29.3 70.9734 29.3 70.5234ZM32.75 69.3234C32.75 69.7734 33.2 70.2234 33.65 70.2234H38.45C38.9 70.2234 39.35 69.7734 39.35 69.3234V58.9734H32.75V69.3234Z" fill="#CFD2D3"/>
<path d="M27.4984 79.0719C29.1484 79.0719 30.6484 80.4219 30.6484 82.2219V93.1719H34.5484V80.5719H37.5484V93.7719C37.5484 96.1719 36.0484 98.1219 34.0984 98.1219H19.3984V82.0719C19.3984 80.4219 20.7484 78.9219 22.5484 78.9219H27.4984V79.0719ZM27.4984 93.1719V83.8719H22.3984V93.0219H27.4984V93.1719Z" fill="#CFD2D3"/>
<path d="M34.3984 126.622H19.3984V121.672H34.5484V116.122H19.3984V111.322H34.5484V105.772H19.3984V100.822H37.5484V123.472C37.5484 125.122 36.1984 126.622 34.3984 126.622Z" fill="#CFD2D3"/>
<path d="M43.0984 129.023V133.973H37.5484V144.923C37.5484 146.723 36.1984 148.073 34.3984 148.073H22.5484C20.8984 148.073 19.3984 146.723 19.3984 144.923V129.023H43.0984ZM34.5484 143.123V133.973H22.3984V143.123H34.5484Z" fill="#CFD2D3"/>
<path d="M37.5484 168.925H19.3984V153.625C19.3984 151.975 20.7484 150.625 22.3984 150.625H37.5484V155.425H22.2484V164.425H37.5484V168.925Z" fill="#CFD2D3"/>
<path d="M629.1 733.523H213.5V734.523H629.1V733.523Z" fill="#CFD2D3"/>
<path d="M542.7 748.924C543.1 748.924 543.3 748.624 543.3 748.324V745.924H541.2V746.624H542.3V748.024C542.3 748.124 542.2 748.224 542.1 748.224H540.2C540.1 748.224 540 748.124 540 748.024V744.724C540 744.624 540.1 744.524 540.2 744.524H543.1V743.924H539.6C539.2 743.924 539 744.224 539 744.524V748.324C539 748.724 539.3 748.924 539.6 748.924H542.7Z" fill="#CFD2D3"/>
<path d="M544.301 743.924V748.224C544.301 748.624 544.601 748.824 544.901 748.824H547.401V748.124H545.401C545.301 748.124 545.201 748.024 545.201 747.924V743.924H544.301Z" fill="#CFD2D3"/>
<path d="M552.1 748.024C552.1 748.124 552 748.224 551.9 748.224H549.6C549.5 748.224 549.4 748.124 549.4 748.024V743.924H548.4V748.224C548.4 748.624 548.7 748.824 549 748.824H552.4C552.8 748.824 553 748.524 553 748.224V743.924H552V748.024H552.1Z" fill="#CFD2D3"/>
<path d="M554.1 748.924H557.9V748.224H555.1V746.924C555.1 746.824 555.2 746.724 555.3 746.724H557.9V746.024H555.1V744.924C555.1 744.824 555.2 744.724 555.3 744.724H557.9V743.924H554.1V748.924Z" fill="#CFD2D3"/>
<path d="M562.7 744.724H566V743.924H562.1C561.7 743.924 561.4 744.224 561.4 744.524V746.124C561.4 746.424 561.7 746.724 562 746.724H564.9C565 746.724 565.1 746.824 565.1 746.924V747.824C565.1 747.924 565 748.024 564.9 748.024H561.6V748.724H565.5C565.9 748.724 566.1 748.424 566.1 748.124V746.624C566.1 746.224 565.8 746.024 565.5 746.024H562.6C562.5 746.024 562.4 745.924 562.4 745.824V744.924C562.5 744.824 562.6 744.724 562.7 744.724Z" fill="#CFD2D3"/>
<path d="M569.9 748.924V744.724H571.5V743.924H567.1V744.724H568.8V748.924H569.9Z" fill="#CFD2D3"/>
<path d="M573.5 743.924H572.5V748.924H573.5V743.924Z" fill="#CFD2D3"/>
<path d="M575.7 744.724H578.3V743.924H575.2C574.8 743.924 574.6 744.224 574.6 744.524V748.224C574.6 748.624 574.9 748.824 575.2 748.824H578.3V748.124H575.7C575.6 748.124 575.5 748.024 575.5 747.924V744.924C575.5 744.824 575.6 744.724 575.7 744.724Z" fill="#CFD2D3"/>
<path d="M582.599 746.324L583.599 743.924H582.499L581.699 746.024H580.299V743.924H579.199V748.924H580.299V746.724H581.799L582.599 748.924H583.699L582.599 746.324Z" fill="#CFD2D3"/>
<path d="M587.199 744.624V748.324C587.199 748.724 587.499 748.924 587.799 748.924H590.899V748.224H588.299C588.199 748.224 588.099 748.124 588.099 748.024V744.924C588.099 744.824 588.199 744.724 588.299 744.724H590.899V743.924H587.799C587.499 743.924 587.199 744.224 587.199 744.624Z" fill="#CFD2D3"/>
<path d="M596.7 748.923V744.623C596.7 744.223 596.4 744.023 596.1 744.023H592.7C592.3 744.023 592.1 744.323 592.1 744.623V748.923H593.1V746.923H595.8V748.923H596.7ZM593 746.223V744.923C593 744.823 593.1 744.723 593.2 744.723H595.5C595.6 744.723 595.7 744.823 595.7 744.923V746.323H593V746.223Z" fill="#CFD2D3"/>
<path d="M598.6 745.124L601.2 748.924H602.3V743.924H601.3V747.724L598.7 743.924H597.6V748.924H598.6V745.124Z" fill="#CFD2D3"/>
<path d="M605.9 743.924V748.924H606.9V746.724H609.1V748.924H610.1V743.924H609.1V746.024H606.9V743.924H605.9Z" fill="#CFD2D3"/>
<path d="M612.3 744.724H614.9V743.924H611.1V748.924H614.9V748.224H612.1V746.924C612.1 746.824 612.2 746.724 612.3 746.724H614.9V746.024H612.1V744.924C612.1 744.824 612.2 744.724 612.3 744.724Z" fill="#CFD2D3"/>
<path d="M615.9 743.924V748.224C615.9 748.624 616.2 748.824 616.5 748.824H619V748.124H617C616.9 748.124 616.8 748.024 616.8 747.924V743.924H615.9Z" fill="#CFD2D3"/>
<path d="M624.1 743.924H620V748.924H621V747.324H624C624.4 747.324 624.6 747.024 624.6 746.724V744.624C624.7 744.224 624.4 743.924 624.1 743.924ZM623.7 746.424C623.7 746.524 623.6 746.624 623.5 746.624H621V744.724H623.5C623.6 744.724 623.7 744.824 623.7 744.924V746.424Z" fill="#CFD2D3"/>
<path d="M626.801 748.123H625.801V748.923H626.801V748.123Z" fill="#CFD2D3"/>
<path d="M528.9 757.023H522.1L531.9 747.223C532.6 746.523 532.6 745.323 531.9 744.623L526.9 739.623C526.2 738.923 525 738.923 524.3 739.623L512.4 751.523C511.7 752.223 511.7 753.423 512.4 754.123L516.4 758.123H521H529C529.3 758.123 529.6 757.823 529.6 757.523C529.6 757.223 529.2 757.023 528.9 757.023ZM525 740.423C525.3 740.123 525.7 740.123 526 740.423L531 745.423C531.3 745.723 531.3 746.123 531 746.423L523.4 754.023L517.4 748.023L525 740.423ZM520.5 757.023H517.2H516.8L513.1 753.323C512.8 753.023 512.8 752.623 513.1 752.323L516.6 748.823L522.6 754.823L520.5 757.023Z" fill="#CFD2D3"/>
<path d="M532.9 757.023H531.1C530.8 757.023 530.5 757.323 530.5 757.623C530.5 757.923 530.8 758.223 531.1 758.223H532.9C533.2 758.223 533.5 757.923 533.5 757.623C533.5 757.323 533.3 757.023 532.9 757.023Z" fill="#CFD2D3"/>
<path d="M542 753.324V753.224C542.1 753.024 542.1 752.924 542.2 752.724H545.3V752.124H542.4C542.4 752.024 542.5 751.724 542.6 751.424L541.9 751.324C541.9 751.424 541.8 751.724 541.7 752.124H539.8V752.724H541.5C541.4 752.924 541.4 753.124 541.2 753.524H539.4V754.124H541C540.9 754.424 540.7 754.724 540.6 754.924V755.424H544C543.6 755.824 543.2 756.224 542.8 756.524C541.8 756.124 541 755.924 540.5 755.724L540.3 756.324C540.9 756.524 541.6 756.724 542.4 757.024C543.2 757.324 543.9 757.624 544.5 757.824L544.8 757.224C544.5 757.124 544.1 756.924 543.5 756.724C544.1 756.224 544.5 755.824 544.9 755.324V754.724H541.4C541.5 754.524 541.6 754.324 541.7 754.024H545.6V753.424H542C542 753.324 542 753.324 542 753.324Z" fill="#CFD2D3"/>
<path d="M547.401 754.524C547.401 755.024 547.401 755.524 547.401 755.724C547.401 756.024 547.301 756.324 547.201 756.524C547.101 756.724 547.001 757.024 546.801 757.424L547.401 757.724C547.601 757.324 547.801 757.024 547.901 756.624C548.001 756.324 548.101 755.924 548.101 755.524H549.801V757.424H550.401V755.524H552.101V756.424C552.101 756.624 552.101 756.724 552.001 756.724C552.001 756.824 551.901 756.824 551.701 756.824C551.501 756.824 551.301 756.824 551.001 756.724L551.101 757.424C551.401 757.424 551.601 757.424 551.801 757.424C552.001 757.424 552.201 757.424 552.401 757.324C552.501 757.324 552.601 757.224 552.701 757.024C552.801 756.924 552.801 756.724 552.801 756.524V751.324H547.601V754.524H547.401ZM550.301 752.224H552.001V753.324H550.301V752.224ZM550.301 754.024H552.001V755.024H550.301V754.024ZM548.001 752.224H549.601V753.324H548.001V752.224ZM548.001 754.724V753.924H549.601V754.924H548.001V754.724Z" fill="#CFD2D3"/>
<path d="M554.5 754.323C554.5 754.923 554.5 755.423 554.5 755.823C554.5 756.223 554.4 756.523 554.3 756.723C554.2 756.923 554.1 757.223 554 757.523L554.6 757.823C554.8 757.523 554.9 757.223 555 756.823C555.1 756.523 555.1 756.023 555.2 755.523H556V756.723C556 756.823 556 756.923 556 757.023C556 757.123 555.9 757.123 555.8 757.123C555.6 757.123 555.5 757.123 555.3 757.123L555.4 757.723C555.6 757.723 555.8 757.723 555.9 757.723C556.2 757.723 556.3 757.623 556.4 757.523C556.5 757.423 556.6 757.223 556.6 756.923V751.623H554.6V754.323H554.5ZM555.1 752.323H555.9V753.323H555.1V752.323ZM555.1 754.623V753.923H555.9V754.923H555.1V754.623Z" fill="#CFD2D3"/>
<path d="M558.801 753.123C559.101 753.523 559.501 754.023 560.001 754.623L560.501 754.223C560.101 753.723 559.701 753.223 559.301 752.723L558.801 753.123Z" fill="#CFD2D3"/>
<path d="M559.7 754.423L559.1 754.223C558.9 754.723 558.7 755.223 558.5 755.523C558.3 755.223 558.1 754.723 557.9 754.223L557.3 754.423C557.5 755.023 557.8 755.623 558.1 756.023C557.7 756.423 557.2 756.823 556.5 757.123L556.9 757.723C557.6 757.423 558.1 757.023 558.5 756.523C558.9 756.923 559.5 757.323 560.1 757.623L560.5 757.023C559.8 756.723 559.3 756.423 558.9 756.023C559.2 755.623 559.5 755.123 559.7 754.423Z" fill="#CFD2D3"/>
<path d="M557 754.724C557.4 754.224 557.8 753.724 558.2 753.124L557.7 752.824C557.3 753.424 556.9 753.924 556.6 754.424L557 754.724Z" fill="#CFD2D3"/>
<path d="M556.801 752.723H560.301V752.123H558.901C558.801 751.723 558.601 751.423 558.601 751.223L558.001 751.423C558.101 751.723 558.201 751.923 558.301 752.223H556.801V752.723Z" fill="#CFD2D3"/>
<path d="M563.401 755.124L563.701 754.624C563.401 754.224 563.101 753.924 562.901 753.624V753.224H563.601V752.624H562.901V751.324H562.301V752.624H561.501V753.224H562.201C562.101 753.624 561.901 754.024 561.801 754.424C561.601 754.824 561.501 755.224 561.301 755.524L561.601 756.224C561.801 755.824 562.101 755.324 562.301 754.824V757.724H562.901V754.524C563.101 754.724 563.201 754.924 563.301 755.024L563.401 755.124Z" fill="#CFD2D3"/>
<path d="M566.7 754.324H567.8V753.824H565.4C565.4 753.724 565.5 753.624 565.6 753.424H567.5V752.924H565.7C565.7 752.824 565.8 752.724 565.8 752.424H567.6V751.924H565.8L565.9 751.324H565.3C565.3 751.524 565.3 751.724 565.2 751.924H563.7V752.424H565.1L565 752.924H563.8V753.424H564.8C564.8 753.524 564.7 753.724 564.6 753.824H563.5V754.324H564.3C564 754.824 563.6 755.224 563 755.624L563.3 756.124C563.6 755.824 563.9 755.624 564.2 755.324V755.724H565.1V756.224H563.6V756.724H565.1V757.624H565.7V756.724H567.2V756.224H565.7V755.724H566.6V755.324C566.9 755.624 567.2 755.924 567.5 756.124L567.8 755.624C567.5 755.424 567.3 755.324 567.1 755.124C567 754.924 566.8 754.624 566.7 754.324ZM565.9 755.224V754.624H565.3V755.224H564.5C564.7 754.924 564.9 754.624 565.1 754.324H566.1C566.3 754.624 566.5 754.924 566.7 755.224H565.9Z" fill="#CFD2D3"/>
<path d="M572.5 753.223H569.6V756.023H572.5V753.223ZM571.8 755.423H570.1V753.823H571.8V755.423Z" fill="#CFD2D3"/>
<path d="M568.801 752.323H573.601V756.423C573.601 756.623 573.601 756.823 573.501 756.923C573.401 757.023 573.301 757.023 573.101 757.023C572.801 757.023 572.501 757.023 572.101 756.923L572.201 757.523C572.501 757.523 572.801 757.523 573.101 757.523C573.401 757.523 573.601 757.523 573.801 757.423C574.001 757.323 574.101 757.223 574.101 757.123C574.201 757.023 574.201 756.723 574.201 756.523V752.223H575.101V751.623H568.801V752.323Z" fill="#CFD2D3"/>
<path d="M581.601 754.523C581.801 754.023 581.901 753.523 582.001 752.923H582.501V752.223H580.301C580.401 751.923 580.501 751.623 580.601 751.223L579.901 751.123C579.801 751.523 579.701 752.023 579.401 752.523C579.201 753.023 578.901 753.423 578.701 753.823L579.101 754.323C579.201 754.123 579.301 754.023 579.401 753.923C579.601 754.523 579.801 755.123 580.201 755.723C579.801 756.223 579.101 756.623 578.301 757.123L578.701 757.723C579.501 757.223 580.101 756.823 580.601 756.323C581.001 756.823 581.601 757.323 582.201 757.723L582.601 757.123C581.901 756.723 581.401 756.323 581.001 755.823C581.201 755.423 581.401 755.023 581.601 754.523ZM579.801 753.223L579.901 752.923H581.201C581.101 753.423 581.101 753.823 580.901 754.223C580.801 754.623 580.601 754.923 580.401 755.223C580.201 754.723 580.001 754.023 579.801 753.223Z" fill="#CFD2D3"/>
<path d="M578.701 755.724L577.101 756.524V754.624H578.601V751.824H576.301V752.524H578.001V754.024H576.501V756.624C576.501 756.724 576.401 756.924 576.301 757.024L576.601 757.624C576.701 757.524 577.001 757.424 577.301 757.224C577.801 757.024 578.301 756.724 578.901 756.524L578.701 755.724Z" fill="#CFD2D3"/>
<path d="M588.8 754.323H589.7V753.823H587V753.423H589.3V752.923H587V752.523H589.6V751.923H588C588.1 751.723 588.2 751.623 588.3 751.523L588.4 751.423L587.8 751.223C587.7 751.423 587.5 751.723 587.3 752.023H586C585.9 751.923 585.8 751.623 585.6 751.323L585 751.523C585 751.623 585.1 751.723 585.2 751.923C585.2 751.923 585.2 751.923 585.2 752.023C585.2 752.023 585.2 752.123 585.3 752.123H583.8V752.623H586.4V753.023H584V753.523H586.3V753.923H583.6V754.423H584.5C584.6 754.623 584.7 754.823 584.8 755.023H583.5V755.523H589.8V754.923H588.5C588.6 754.823 588.7 754.623 588.8 754.323ZM586.3 754.923H585.4L585.1 754.323H586.3V754.923ZM587.9 754.923H587V754.323H588.2C588.1 754.523 588 754.723 587.9 754.923Z" fill="#CFD2D3"/>
<path d="M584.2 757.624H584.8V757.424H588.3V757.624H588.9V755.924H584.1V757.624H584.2ZM584.9 756.424H588.4V756.924H584.9V756.424Z" fill="#CFD2D3"/>
<path d="M591.101 752.623C591.201 752.923 591.301 753.123 591.301 753.323L591.801 753.123C591.701 752.923 591.701 752.623 591.601 752.323C591.501 752.023 591.401 751.823 591.301 751.623L590.801 751.823C590.901 752.123 591.001 752.423 591.101 752.623Z" fill="#CFD2D3"/>
<path d="M592.6 751.324H592V753.724H590.8V754.324H591.8C591.7 754.624 591.5 754.924 591.3 755.324C591.1 755.624 590.9 755.924 590.6 756.224L591 756.824C591.4 756.324 591.7 755.824 591.9 755.324V757.724H592.5V755.524C592.7 755.724 592.9 755.924 593.1 756.224L593.5 755.724C593.2 755.424 592.9 755.024 592.5 754.724V754.324H593.5V753.724H592.5V751.324H592.6Z" fill="#CFD2D3"/>
<path d="M595.499 751.324H594.799V754.324H593.699V757.724H594.299V757.324H596.199V757.724H596.799V754.324H595.399V753.024H597.099V752.424H595.399V751.324H595.499ZM596.199 754.924V756.624H594.299V754.924H596.199Z" fill="#CFD2D3"/>
<path d="M592.699 753.224L593.199 753.424C593.299 753.224 593.399 753.024 593.499 752.724C593.599 752.424 593.699 752.224 593.799 752.024L593.299 751.824C593.199 752.024 593.199 752.324 592.999 752.524C592.899 752.824 592.799 753.024 592.699 753.224Z" fill="#CFD2D3"/>
<path d="M602.3 754.223L601.7 754.123C601.7 754.223 601.6 754.523 601.4 754.723H600.2V755.323H601.1C600.9 755.623 600.8 755.823 600.6 756.023C601.1 756.223 601.5 756.423 601.9 756.523C601.5 756.723 600.9 756.923 600.1 757.023L600.3 757.623C600.8 757.523 601.3 757.423 601.6 757.223C602 757.123 602.3 756.923 602.5 756.723C603 756.923 603.5 757.223 604.1 757.523L604.4 756.923C604 756.723 603.6 756.523 603 756.223C603.3 755.923 603.5 755.523 603.7 755.123H604.4V754.523H602C602.1 754.523 602.2 754.323 602.3 754.223ZM603.1 755.323C602.9 755.723 602.7 756.023 602.5 756.223C602.1 756.023 601.7 755.923 601.5 755.823C601.6 755.723 601.7 755.523 601.8 755.323H603.1Z" fill="#CFD2D3"/>
<path d="M603.599 752.523H604.299V751.923H602.799C602.799 751.823 602.699 751.723 602.699 751.723C602.699 751.623 602.599 751.623 602.599 751.523C602.599 751.423 602.499 751.323 602.499 751.223L601.799 751.423C601.899 751.523 601.899 751.723 601.999 752.023H600.399V752.623H600.999L601.199 753.523H600.199V754.123H604.399V753.523H603.299L603.599 752.523ZM602.799 753.423H601.899L601.699 752.523H602.999C602.999 752.823 602.899 753.123 602.799 753.423Z" fill="#CFD2D3"/>
<path d="M600.1 754.024C599.9 754.124 599.7 754.124 599.6 754.224V753.124H600.2V752.524H599.6V751.324H599V752.524H598.2V753.124H599V754.424C598.7 754.524 598.4 754.624 598.1 754.724L598.2 755.324L599 755.024V756.624C599 756.724 599 756.824 598.9 756.824C598.9 756.824 598.8 756.924 598.7 756.924C598.5 756.924 598.3 756.924 598.2 756.924L598.3 757.524C598.5 757.524 598.7 757.524 598.9 757.524C599.1 757.524 599.2 757.524 599.3 757.424C599.4 757.424 599.5 757.324 599.5 757.224C599.5 757.124 599.6 756.924 599.6 756.724V754.724L600.1 754.524V754.024Z" fill="#CFD2D3"/>
<path d="M607.5 754.124V753.824H608.6V753.224H607.5V752.224C608 752.124 608.3 752.024 608.5 752.024L608.3 751.424C608 751.524 607.5 751.624 607 751.724C606.5 751.824 606 751.924 605.6 751.924L605.7 752.524C606 752.524 606.3 752.424 606.7 752.424V753.224H605.5V753.824H606.6C606.5 754.124 606.3 754.524 606.1 754.924C605.9 755.324 605.7 755.624 605.4 755.924L605.8 756.524C606.2 756.024 606.5 755.424 606.8 754.824V757.724H607.4V754.924C607.7 755.224 607.9 755.524 608.2 755.824L608.6 755.324C608.3 754.824 607.9 754.524 607.5 754.124Z" fill="#CFD2D3"/>
<path d="M608.901 757.524H609.501V756.924H610.901V757.424H611.501V751.824H608.801V757.524H608.901ZM609.501 752.524H610.901V756.324H609.501V752.524Z" fill="#CFD2D3"/>
<path d="M613.3 754.224C613.3 754.824 613.3 755.324 613.3 755.724C613.3 756.124 613.2 756.324 613.2 756.624C613.1 756.824 613 757.124 612.9 757.424L613.4 757.724C613.6 757.424 613.7 757.024 613.8 756.724C613.9 756.424 613.9 756.024 614 755.524H614.7V756.724C614.7 756.824 614.7 756.924 614.6 757.024C614.6 757.024 614.5 757.124 614.4 757.124C614.3 757.124 614.2 757.124 614 757.124L614.1 757.724C614.3 757.724 614.5 757.724 614.6 757.724C614.8 757.724 615 757.624 615.1 757.524C615.2 757.424 615.2 757.224 615.2 757.024V751.824H613.3V754.224ZM613.8 752.224H614.5V753.224H613.8V752.224ZM613.8 753.824H614.5V754.824H613.8V753.824Z" fill="#CFD2D3"/>
<path d="M618.701 756.223C618.701 756.423 618.701 756.623 618.701 756.623C618.701 756.723 618.701 756.823 618.701 756.923C618.701 757.023 618.601 757.023 618.501 757.023H618.401H618.301C618.201 757.023 618.201 757.023 618.101 756.923C618.101 756.823 618.101 756.823 618.101 756.623V755.023H618.901V752.523H618.101C618.301 752.223 618.401 751.923 618.501 751.723L618.701 751.423L618.101 751.123C618.001 751.323 617.901 751.523 617.801 751.723C617.701 752.023 617.501 752.223 617.401 752.423H615.701V754.923H616.301C616.301 755.323 616.301 755.623 616.201 755.823C616.101 756.023 616.001 756.323 615.901 756.423C615.701 756.623 615.501 756.823 615.301 756.923L615.701 757.423C616.001 757.223 616.201 756.923 616.401 756.723C616.601 756.523 616.701 756.223 616.801 755.923C616.901 755.623 616.901 755.223 616.901 754.823H617.501V756.523C617.501 756.823 617.501 756.923 617.601 757.123C617.701 757.223 617.801 757.323 618.001 757.323C618.101 757.323 618.201 757.323 618.301 757.323C618.401 757.323 618.501 757.323 618.601 757.323C618.801 757.323 619.001 757.223 619.101 757.123C619.201 757.023 619.301 756.823 619.301 756.623C619.301 756.523 619.301 756.323 619.301 756.123C619.301 755.923 619.301 755.823 619.301 755.723V755.523L618.701 755.423C618.701 755.823 618.701 756.023 618.701 756.223ZM616.301 754.523V753.223H618.201V754.523H616.301Z" fill="#CFD2D3"/>
<path d="M616.101 752.023C616.201 752.223 616.301 752.423 616.401 752.623L616.901 752.323C616.801 752.123 616.701 751.923 616.601 751.723C616.501 751.523 616.401 751.423 616.301 751.223L615.801 751.523C615.801 751.623 615.901 751.823 616.101 752.023Z" fill="#CFD2D3"/>
<path d="M625 751.223V751.923H623.9V751.223H623.4V751.923H622.4V752.423H623.4V752.823H623.9V752.423H625V752.823H625.5V752.423H626.6V751.923H625.5V751.223H625Z" fill="#CFD2D3"/>
<path d="M624.899 756.223H626.499V755.723H624.699V755.623V755.323H626.099V753.123H622.699V755.323H624.099C624.099 755.523 624.099 755.623 624.099 755.623V755.723H622.299V756.223H623.899C623.799 756.423 623.599 756.623 623.299 756.723C622.999 756.923 622.599 757.023 622.199 757.123L622.399 757.723C623.399 757.423 624.099 757.023 624.399 756.523C624.799 757.123 625.499 757.523 626.399 757.723L626.599 757.123C626.199 757.023 625.799 756.923 625.499 756.723C625.299 756.623 625.099 756.423 624.899 756.223ZM623.299 753.423H625.599V753.823H623.299V753.423ZM623.299 754.723V754.323H625.599V754.723H623.299Z" fill="#CFD2D3"/>
<path d="M621.9 753.823L621.7 753.523V753.123H622.4V752.523H621.7V751.223H621.1V752.523H620.3V753.123H621.1C621 753.523 620.8 753.923 620.7 754.323C620.5 754.723 620.3 755.123 620.1 755.423L620.5 756.023C620.8 755.623 621 755.123 621.2 754.423V757.623H621.8V754.323C622.1 754.723 622.2 754.923 622.3 755.023L622.6 754.423L621.9 753.823Z" fill="#CFD2D3"/>
<path d="M470.8 738.623L459.6 749.823V744.123L465.2 738.523H459.6H462H243H240H238.6C238.5 738.523 238.4 738.523 238.3 738.623C237.8 738.823 237.4 739.323 237.4 739.923V741.423V755.623V757.123C237.4 757.823 238 758.423 238.7 758.423H243H428.3H434H439.7H445.4H451.1H456.8H459.7V755.523L476.6 738.623H470.8ZM247.1 756.423H241.5V751.523L247.1 749.323V756.423ZM241.6 750.523V740.723H247.2V748.323L241.6 750.523ZM253.5 756.423H248V746.623L253.6 748.823L253.5 756.423ZM248 745.723V740.823H253.6V747.923L248 745.723ZM274.8 748.623V756.423H267H259.2V748.623V740.823H267H274.8V748.623ZM294.3 748.923C294.3 749.523 293.8 750.023 293.2 750.023H287.8V752.823H287H286V744.023H289.6H290.7H292.6H293.2C293.8 744.023 294.3 744.523 294.3 745.123V748.923ZM301.2 752.923H296.7C296.1 752.923 295.6 752.423 295.6 751.823V744.223H297.4V751.423C297.4 751.623 297.5 751.723 297.7 751.723H301.2V752.923ZM310.9 752.923H309V749.423H304.3V752.923H302.5V745.223C302.5 744.623 303 744.123 303.6 744.123H308.8H309.6C310.2 744.123 310.7 744.623 310.7 745.223V752.923H310.9ZM313.8 752.923H313.1H312.7L315.2 744.123H316.3L313.8 752.923ZM326.6 748.923C326.6 749.523 326.1 750.023 325.5 750.023H320.1V752.823H318.3V744.023H325.5C326.1 744.023 326.6 744.523 326.6 745.123V748.923ZM334.7 745.423H330.1C329.9 745.423 329.8 745.623 329.8 745.723V747.723H334.7V749.023H330.1C329.9 749.023 329.8 749.123 329.8 749.323V751.623H334.7V752.923H334.1H329.6H328.5H327.9V744.123H331.1H332.2H334.7V745.423ZM343.7 745.423H340.7V752.923H340.6H338.9V745.423H336.2H336V744.123H341.4H343.8V745.423H343.7ZM352.4 751.823C352.4 752.423 351.9 752.923 351.3 752.923H350.9H346C345.4 752.923 344.9 752.423 344.9 751.823V745.123C344.9 744.523 345.4 744.023 346 744.023H352.2V745.223H347C346.8 745.223 346.7 745.323 346.7 745.523V751.323C346.7 751.523 346.8 751.623 347 751.623H349.9H350.3C350.5 751.623 350.6 751.523 350.6 751.323V748.923H348.7V747.723H352.4V751.823ZM355.4 752.923H354.3L356.8 744.123H357.9L355.4 752.923ZM368.2 752.923H366.4V749.423H361.7V752.923H360.5H359.9V745.223C359.9 744.623 360.4 744.123 361 744.123H361.3H366.1H367.1C367.7 744.123 368.2 744.623 368.2 745.223V752.923ZM377.7 751.823C377.7 752.423 377.2 752.923 376.6 752.923H373.9H372H369.5V744.223H376.1C376.7 744.223 377.2 744.723 377.2 745.323V747.923L377.3 748.023C377.6 748.223 377.7 748.523 377.7 748.923V751.823ZM387.4 751.823C387.4 752.423 386.9 752.923 386.3 752.923H379.8H379.4V751.623H385.3C385.5 751.623 385.6 751.423 385.6 751.223V749.623C385.6 749.423 385.4 749.323 385.2 749.323H380.1C379.5 749.323 379 748.823 379 748.223V745.323C379 744.723 379.5 744.223 380.2 744.223H385.1H387.1V745.523H384.1H381.2C381 745.523 380.9 745.723 380.9 745.823V747.823C380.9 748.023 381 748.123 381.2 748.123H386.2C386.8 748.123 387.3 748.623 387.3 749.223V751.823H387.4ZM390.4 752.923H389.3L391.8 744.123H392.9L390.4 752.923ZM402.6 745.423H399.6V752.923H398.8H397.8V745.423H394.8V744.123H400.3H401.4H402.6V745.423ZM412 748.923C412 749.523 411.5 750.023 410.9 750.023H410.6H405.5V752.823H405.2H403.7V744.023H410.6H410.9C411.5 744.023 412 744.523 412 745.123V748.923ZM421.6 751.823C421.6 752.423 421.1 752.923 420.5 752.923H414.4C413.8 752.923 413.3 752.423 413.3 751.823V744.223H415.1V751.423C415.1 751.623 415.2 751.723 415.4 751.723H419.5C419.7 751.723 419.8 751.623 419.8 751.423V744.223H421.6V751.823ZM424.6 752.923H423.5L426 744.123H427.1L424.6 752.923ZM437.4 748.923C437.4 749.523 436.9 750.023 436.3 750.023H430.9V752.823H429.1V744.023H436.3C436.9 744.023 437.4 744.523 437.4 745.123V748.923ZM445.4 745.423H440.8C440.6 745.423 440.5 745.523 440.5 745.723V751.323C440.5 751.523 440.6 751.623 440.8 751.623H445.4V752.923H439.8C439.2 752.923 438.7 752.423 438.7 751.823V745.323C438.7 744.723 439.2 744.223 439.8 744.223H445.4V745.423Z" fill="#CFD2D3"/>
<path d="M482.101 738.623L462.301 758.423H467.901L487.801 738.623H482.101Z" fill="#CFD2D3"/>
<path d="M493.4 738.623L473.6 758.423H479.3L499.1 738.623H493.4Z" fill="#CFD2D3"/>
<path d="M490.6 758.424L501.9 747.124V741.424L484.9 758.424H490.6Z" fill="#CFD2D3"/>
<path d="M501.901 758.423V752.723L496.301 758.423H501.901Z" fill="#CFD2D3"/>
<path d="M292.099 745.424H287.699V748.824H292.099C292.299 748.824 292.399 748.724 292.399 748.524V745.724C292.499 745.524 292.299 745.424 292.099 745.424Z" fill="#CFD2D3"/>
<path d="M366.099 745.424H361.999C361.799 745.424 361.699 745.624 361.699 745.724V748.124H366.399V745.724C366.399 745.524 366.299 745.424 366.099 745.424Z" fill="#CFD2D3"/>
<path d="M409.8 745.424H409.5H405.4V748.824H409.5H409.8C410 748.824 410.1 748.724 410.1 748.524V745.724C410.2 745.524 410 745.424 409.8 745.424Z" fill="#CFD2D3"/>
<path d="M375.601 749.223H371.301V751.623H375.601C375.801 751.623 375.901 751.523 375.901 751.323V749.523C375.901 749.423 375.801 749.223 375.601 749.223Z" fill="#CFD2D3"/>
<path d="M375.5 747.623V745.823C375.5 745.623 375.3 745.523 375.2 745.523H371.4V748.023H375.2C375.3 748.023 375.5 747.823 375.5 747.623Z" fill="#CFD2D3"/>
<path d="M435.3 745.424H430.9V748.824H435.3C435.5 748.824 435.6 748.724 435.6 748.524V745.724C435.6 745.524 435.5 745.424 435.3 745.424Z" fill="#CFD2D3"/>
<path d="M308.701 745.424H304.601C304.401 745.424 304.301 745.624 304.301 745.724V748.124H309.001V745.724C309.001 745.524 308.901 745.424 308.701 745.424Z" fill="#CFD2D3"/>
<path d="M324.5 745.424H320.1V748.824H324.5C324.7 748.824 324.8 748.724 324.8 748.524V745.724C324.8 745.524 324.7 745.424 324.5 745.424Z" fill="#CFD2D3"/>
<path d="M267 743.424V747.324V751.224H268.3H269.6V749.924V748.624H270.9H272.2V746.024V743.424H269.6H267Z" fill="#CFD2D3"/>
<path d="M269.6 753.823H270.9H272.2V752.523V751.223H270.9H269.6V752.523V753.823Z" fill="#CFD2D3"/>
<path d="M261.699 751.223V752.523V753.823H264.399H266.999V752.523V751.223H264.399H261.699Z" fill="#CFD2D3"/>
</g>
<defs>
<clipPath id="clip0_8328_31992">
<rect width="733.3" height="761.7" fill="white" transform="translate(0 0.923828)"/>
</clipPath>
</defs>
</svg>
