<svg width="732" height="760" viewBox="0 0 732 760" fill="none" xmlns="http://www.w3.org/2000/svg">
<g clip-path="url(#clip0_8331_33191)">
<rect x="14" y="48" width="21" height="554" fill="#535656"/>
<path d="M32.8004 136.699V149.599C32.8004 150.599 32.0004 151.299 31.1004 151.299H19.1004C18.1004 151.299 17.4004 150.499 17.4004 149.599V136.699H32.8004ZM31.2004 147.699V139.299H19.0004V147.699C19.0004 148.199 19.4004 148.699 20.0004 148.699H30.3004C30.8004 148.699 31.2004 148.299 31.2004 147.699Z" fill="#CFD2D3"/>
<path d="M17.4004 164.999V154.899C17.4004 153.999 18.2004 153.199 19.1004 153.199H29.1004V155.699H18.7004V162.499H29.1004V164.999H17.4004Z" fill="#CFD2D3"/>
<path d="M22.6004 166.699C23.6004 166.699 24.4004 167.499 24.4004 168.499V176.399H27.8004V167.799H29.1004V176.399C29.1004 177.799 28.2004 178.999 27.1004 178.999H17.4004V168.499C17.4004 167.499 18.2004 166.699 19.2004 166.699H22.6004ZM23.0004 169.299H18.7004V176.399H23.0004V169.299Z" fill="#CFD2D3"/>
<path d="M19.2008 180.799H33.0008V183.399H18.7008V186.799H17.3008V182.599C17.4008 181.599 18.2008 180.799 19.2008 180.799Z" fill="#CFD2D3"/>
<path d="M26.4008 189.799V194.799H25.3008V189.799H26.4008Z" fill="#CFD2D3"/>
<path d="M23.9 212H19.2C18.2 212 17.5 211.2 17.5 210.3V198H19V208.5C19 209 19.5 209.5 20.1 209.5H23.1C23.6 209.5 24.1 209.1 24.1 208.5V199.2C24.1 198.3 24.9 197.5 25.8 197.5H31.2C32.1 197.5 32.9 198.3 32.9 199.3V211.6H31.3V201C31.3 200.5 30.9 200 30.3 200H26.6C26.1 200 25.6 200.4 25.6 201V210.3C25.6 211.2 24.8 212 23.9 212Z" fill="#CFD2D3"/>
<path d="M29.0004 213.898V216.498H17.4004V213.898H29.0004ZM32.8004 213.898V216.498H31.5004V213.898H32.8004Z" fill="#CFD2D3"/>
<path d="M27.2004 218.299C28.2004 218.299 29.0004 219.099 29.0004 220.099V227.999H32.8004V230.599H17.4004V220.199C17.4004 219.199 18.2004 218.399 19.2004 218.399H27.2004V218.299ZM27.7004 227.899V220.899H18.7004V227.899H27.7004Z" fill="#CFD2D3"/>
<path d="M27.3004 232.398C28.3004 232.398 29.1004 233.198 29.1004 234.198V242.898C29.1004 243.898 28.3004 244.698 27.3004 244.698H22.2004V234.998H18.7004V244.498H17.4004V234.198C17.4004 233.198 18.2004 232.398 19.2004 232.398H27.3004ZM27.8004 234.998H23.5004V242.098H27.8004V234.998Z" fill="#CFD2D3"/>
<path d="M27.2004 246.6C28.2004 246.6 29.0004 247.4 29.0004 248.4V256.3H32.8004V258.9H17.4004V248.5C17.4004 247.5 18.2004 246.7 19.2004 246.7H27.2004V246.6ZM27.7004 256.2V249.2H18.7004V256.2H27.7004Z" fill="#CFD2D3"/>
<path d="M17.4004 273.1H31.2004V267.6H32.8004V281.2H31.2004V275.7H17.4004V273.1Z" fill="#CFD2D3"/>
<path d="M27.3004 282.6C28.3004 282.6 29.1004 283.4 29.1004 284.4V293.1C29.1004 294.1 28.3004 294.9 27.3004 294.9H22.2004V285.2H18.7004V294.7H17.4004V284.4C17.4004 283.4 18.2004 282.6 19.2004 282.6H27.3004ZM27.8004 285.3H23.5004V292.4H27.8004V285.3Z" fill="#CFD2D3"/>
<path d="M17.4004 305.699L21.4004 302.599L17.4004 299.499V296.799L23.1004 301.199L23.2004 301.299L29.1004 296.799V299.499L25.0004 302.599L29.1004 305.699V308.399L23.4004 303.999L23.3004 303.899L17.5004 308.399V305.699H17.4004Z" fill="#CFD2D3"/>
<path d="M18.7004 316.199V317.599H17.4004V314.199C17.4004 313.199 18.2004 312.399 19.2004 312.399H27.7004V309.799H29.0004V312.399H32.8004V314.999H29.0004V317.599H27.7004V314.999H19.9004C19.2004 315.099 18.7004 315.599 18.7004 316.199Z" fill="#CFD2D3"/>
<path d="M17.4004 331.199V320.999C17.4004 320.099 18.2004 319.299 19.1004 319.299H29.1004V321.799H18.7004V328.599H29.1004V331.099H17.4004V331.199Z" fill="#CFD2D3"/>
<path d="M28.9004 338.599V340.599H26.4004V335.299H17.4004V332.799H28.9004V335.299H26.4004L27.6004 336.099C28.4004 336.699 28.9004 337.599 28.9004 338.599Z" fill="#CFD2D3"/>
<path d="M27.3004 342.199C28.3004 342.199 29.1004 342.999 29.1004 343.999V352.699C29.1004 353.699 28.3004 354.499 27.3004 354.499H22.2004V344.799H18.7004V354.299H17.4004V343.999C17.4004 342.999 18.2004 342.199 19.2004 342.199H27.3004ZM27.8004 344.899H23.5004V351.999H27.8004V344.899Z" fill="#CFD2D3"/>
<path d="M27.2004 356.398C28.2004 356.398 29.0004 357.198 29.0004 358.198V366.098H32.8004V368.698H17.4004V358.198C17.4004 357.198 18.2004 356.398 19.2004 356.398H27.2004ZM27.7004 365.998V358.998H18.7004V365.998H27.7004Z" fill="#CFD2D3"/>
<path d="M32.8004 377.498V390.298C32.8004 391.298 32.0004 391.998 31.1004 391.998H24.3004C23.3004 391.998 22.6004 391.198 22.6004 390.298V379.998H17.4004V377.398H32.8004V377.498ZM25.2004 389.498H30.3004C30.8004 389.498 31.3004 389.098 31.3004 388.498V380.098H24.3004V388.498C24.2004 388.998 24.6004 389.498 25.2004 389.498Z" fill="#CFD2D3"/>
<path d="M32.8004 393.899V405.499H31.2004V397.399C31.2004 396.899 30.8004 396.399 30.2004 396.399H26.1004V405.399H24.5004V397.299C24.5004 396.799 24.1004 396.299 23.5004 396.299H19.0004V405.299H17.4004V393.699H32.8004V393.899Z" fill="#CFD2D3"/>
<path d="M32.8004 407.898V410.498H17.4004V407.898H32.8004Z" fill="#CFD2D3"/>
<path d="M32.8004 419.398V432.198C32.8004 433.198 32.0004 433.898 31.1004 433.898H24.3004C23.3004 433.898 22.6004 433.098 22.6004 432.198V421.998H17.4004V419.398H32.8004ZM25.2004 431.398H30.3004C30.8004 431.398 31.3004 430.998 31.3004 430.398V421.998H24.3004V430.398C24.2004 430.898 24.6004 431.398 25.2004 431.398Z" fill="#CFD2D3"/>
<path d="M19.2008 435.799H33.0008V438.399H18.7008V441.799H17.3008V437.599C17.4008 436.599 18.2008 435.799 19.2008 435.799Z" fill="#CFD2D3"/>
<path d="M22.6004 443.699C23.6004 443.699 24.4004 444.499 24.4004 445.499V453.399H27.8004V444.799H29.1004V453.399C29.1004 454.799 28.2004 455.999 27.1004 455.999H17.4004V445.499C17.4004 444.499 18.2004 443.699 19.2004 443.699H22.6004ZM23.0004 446.299H18.7004V453.399H23.0004V446.299Z" fill="#CFD2D3"/>
<path d="M18.7004 464V465.4H17.4004V462C17.4004 461 18.2004 460.2 19.2004 460.2H27.7004V457.6H29.0004V460.2H32.8004V462.8H29.0004V465.4H27.7004V462.8H19.9004C19.2004 462.8 18.7004 463.3 18.7004 464Z" fill="#CFD2D3"/>
<path d="M27.3004 467C28.3004 467 29.1004 467.8 29.1004 468.8V477.5C29.1004 478.5 28.3004 479.3 27.3004 479.3H22.2004V469.6H18.7004V479.1H17.4004V468.8C17.4004 467.8 18.2004 467 19.2004 467H27.3004ZM27.8004 469.7H23.5004V476.8H27.8004V469.7Z" fill="#CFD2D3"/>
<path d="M32.7992 51.3008V63.2008C32.7992 64.3008 31.8992 65.2008 30.7992 65.2008H26.1992L26.0992 65.3008C25.6992 65.8008 25.0992 66.0008 24.4992 66.0008H19.1992C18.0992 66.0008 17.1992 65.1008 17.1992 64.0008V51.3008H32.7992ZM23.8992 62.3008V54.5008H19.4992V62.3008C19.4992 62.6008 19.7992 62.9008 20.0992 62.9008H23.2992C23.6992 62.9008 23.8992 62.6008 23.8992 62.3008ZM26.1992 61.4008C26.1992 61.7008 26.4992 62.0008 26.7992 62.0008H29.9992C30.2992 62.0008 30.5992 61.7008 30.5992 61.4008V54.5008H26.1992V61.4008Z" fill="#CFD2D3"/>
<path d="M22.6988 67.9004C23.7988 67.9004 24.7988 68.8004 24.7988 70.0004V77.3004H27.3988V68.9004H29.3988V77.7004C29.3988 79.3004 28.3988 80.6004 27.0988 80.6004H17.2988V70.0004C17.2988 68.9004 18.1988 67.9004 19.3988 67.9004H22.6988ZM22.6988 77.3004V71.2004H19.2988V77.3004H22.6988Z" fill="#CFD2D3"/>
<path d="M27.2988 99.6004H17.2988V96.3004H27.3988V92.6004H17.2988V89.4004H27.3988V85.7004H17.2988V82.4004H29.3988V97.5004C29.3988 98.7004 28.3988 99.6004 27.2988 99.6004Z" fill="#CFD2D3"/>
<path d="M33.0988 101.301V104.601H29.3988V111.901C29.3988 113.101 28.4988 114.001 27.2988 114.001H19.3988C18.2988 114.001 17.2988 113.101 17.2988 111.901V101.301H33.0988ZM27.3988 110.701V104.601H19.2988V110.701H27.3988Z" fill="#CFD2D3"/>
<path d="M29.3988 127.802H17.2988V117.602C17.2988 116.502 18.1988 115.602 19.2988 115.602H29.3988V118.802H19.1988V124.802H29.3988V127.802Z" fill="#CFD2D3"/>
<path d="M26.4004 503.301V502.301H31.1004V503.401L27.5004 505.901H31.1004V506.901H26.4004V505.801L30.0004 503.301H26.4004Z" fill="#CFD2D3"/>
<path d="M30.7004 507.801C31.0004 507.801 31.3004 508.101 31.3004 508.401V511.701C31.3004 512.001 31.0004 512.301 30.7004 512.301H27.0004C26.7004 512.301 26.4004 512.001 26.4004 511.701V508.401C26.4004 508.101 26.7004 507.801 27.0004 507.801H30.7004ZM30.6004 511.101V508.901C30.6004 508.801 30.5004 508.701 30.4004 508.701H27.3004C27.2004 508.701 27.1004 508.801 27.1004 508.901V511.101C27.1004 511.201 27.2004 511.301 27.3004 511.301H30.4004C30.5004 511.301 30.6004 511.201 30.6004 511.101Z" fill="#CFD2D3"/>
<path d="M26.4004 515.801V514.801H30.5004V513.201H31.2004V517.401H30.5004V515.801H26.4004Z" fill="#CFD2D3"/>
<path d="M30.6 520.602C30.9 520.602 31.2 520.902 31.2 521.202V524.502C31.2 524.802 30.9 525.102 30.6 525.102H26.5V524.102H28.4V521.602H26.5V520.602H30.6ZM30.5 523.902V521.702C30.5 521.602 30.4 521.502 30.3 521.502H29V524.002H30.3C30.4 524.102 30.5 524.002 30.5 523.902Z" fill="#CFD2D3"/>
<path d="M31.2004 526V529.9C31.2004 530.2 30.9004 530.5 30.6004 530.5H27.0004C26.7004 530.5 26.4004 530.2 26.4004 529.9V526H31.2004ZM30.5004 529.3V526.9H27.1004V529.3C27.1004 529.4 27.2004 529.5 27.3004 529.5H30.3004C30.4004 529.5 30.5004 529.4 30.5004 529.3Z" fill="#CFD2D3"/>
<path d="M31.2 531.4V532.3L27.7 533.6L31.2 534.9V535.8L26.5 534.1V533.1L31.2 531.4Z" fill="#CFD2D3"/>
<path d="M26.4004 536.701H31.1004V537.701H26.4004V536.701Z" fill="#CFD2D3"/>
<path d="M28.4004 543.101H27.0004C26.7004 543.101 26.4004 542.801 26.4004 542.501V538.801H27.1004V542.001C27.1004 542.101 27.2004 542.201 27.3004 542.201H28.2004C28.3004 542.201 28.4004 542.101 28.4004 542.001V539.301C28.4004 539.001 28.7004 538.701 29.0004 538.701H30.6004C30.9004 538.701 31.2004 539.001 31.2004 539.301V543.001H30.5004V539.801C30.5004 539.701 30.4004 539.601 30.3004 539.601H29.2004C29.1004 539.601 29.0004 539.701 29.0004 539.801V542.501C29.1004 542.801 28.8004 543.101 28.4004 543.101Z" fill="#CFD2D3"/>
<path d="M26.4008 544H31.1008V547.6H30.4008V545.1C30.4008 545 30.3008 544.9 30.2008 544.9H29.1008V547.5H28.4008V545C28.4008 544.9 28.3008 544.8 28.2008 544.8H27.0008V547.4H26.3008V544H26.4008Z" fill="#CFD2D3"/>
<path d="M31.2004 548.5V552.4C31.2004 552.7 30.9004 553 30.6004 553H27.0004C26.7004 553 26.4004 552.7 26.4004 552.4V548.5H31.2004ZM30.5004 551.9V549.5H27.1004V551.9C27.1004 552 27.2004 552.1 27.3004 552.1H30.3004C30.4004 552.1 30.5004 552 30.5004 551.9Z" fill="#CFD2D3"/>
<path d="M28.4 557.4H26.5V556.4H31.2V560.2H30.5V557.6C30.5 557.5 30.4 557.4 30.3 557.4H29.2V560.2H28.5V557.6C28.5 557.5 28.4 557.4 28.4 557.4Z" fill="#CFD2D3"/>
<path d="M30.7004 561.102C31.0004 561.102 31.3004 561.402 31.3004 561.702V565.002C31.3004 565.302 31.0004 565.602 30.7004 565.602H27.0004C26.7004 565.602 26.4004 565.302 26.4004 565.002V561.702C26.4004 561.402 26.7004 561.102 27.0004 561.102H30.7004ZM30.6004 564.402V562.202C30.6004 562.102 30.5004 562.002 30.4004 562.002H27.3004C27.2004 562.002 27.1004 562.102 27.1004 562.202V564.402C27.1004 564.502 27.2004 564.602 27.3004 564.602H30.4004C30.5004 564.602 30.6004 564.502 30.6004 564.402Z" fill="#CFD2D3"/>
<path d="M31.3 566.5V570.5C31.3 570.8 31 571.1 30.7 571.1H28.7C28.3 571.1 28.1 570.8 28.1 570.5V570.3L26.5 570.8V569.8L28.1 569.3V567.6H26.5V566.6H31.3V566.5ZM28.9 570.1H30.4C30.5 570.1 30.6 570 30.6 569.9V567.5H28.7V569.9C28.7 570 28.8 570.1 28.9 570.1Z" fill="#CFD2D3"/>
<path d="M27.0008 574.5H31.1008V575.5H27.2008C27.1008 575.5 27.0008 575.6 27.0008 575.7V577.6H26.3008V575.2C26.4008 574.7 26.7008 574.5 27.0008 574.5Z" fill="#CFD2D3"/>
<path d="M26.4004 578.602H31.1004V579.602H26.4004V578.602Z" fill="#CFD2D3"/>
<path d="M31.2004 580.4V584.3C31.2004 584.6 30.9004 584.9 30.6004 584.9H27.0004C26.7004 584.9 26.4004 584.6 26.4004 584.3V580.4H31.2004ZM30.5004 583.8V581.4H27.1004V583.8C27.1004 583.9 27.2004 584 27.3004 584H30.3004C30.4004 584 30.5004 583.9 30.5004 583.8Z" fill="#CFD2D3"/>
<path d="M30.6 585.801C30.9 585.801 31.2 586.101 31.2 586.401V589.701C31.2 590.001 30.9 590.301 30.6 590.301H26.5V589.301H28.4V586.801H26.5V585.801H30.6ZM30.5 589.201V587.001C30.5 586.901 30.4 586.801 30.3 586.801H29V589.301H30.3C30.4 589.401 30.5 589.301 30.5 589.201Z" fill="#CFD2D3"/>
<path d="M31.3004 591.201V595.201C31.3004 595.501 31.0004 595.801 30.7004 595.801H28.7004C28.3004 595.801 28.1004 595.501 28.1004 595.201V595.001L26.5004 595.501V594.501L28.0004 594.001V592.301H26.4004V591.301H31.3004V591.201ZM28.9004 594.901H30.4004C30.5004 594.901 30.6004 594.801 30.6004 594.701V592.301H28.7004V594.701C28.7004 594.801 28.8004 594.901 28.9004 594.901Z" fill="#CFD2D3"/>
<path d="M26.4004 596.9H27.2004V597.9H26.4004V596.9Z" fill="#CFD2D3"/>
<path d="M31.8004 490.5H17.4004V491.3H31.8004V490.5Z" fill="#CFD2D3"/>
<path d="M22.6008 506.3C22.3008 506.1 22.1008 506 21.9008 505.9H17.3008V505.2H21.0008C20.2008 504.6 19.5008 503.7 18.7008 502.8L19.3008 502.4C19.8008 503.1 20.3008 503.7 20.8008 504.2C21.4008 504.7 21.9008 505.2 22.5008 505.5V502.6H23.2008V508.5H22.5008V506.3H22.6008ZM21.4008 506.4C21.1008 506.7 20.8008 507.1 20.4008 507.6C20.0008 508.1 19.7008 508.4 19.4008 508.7L18.8008 508.2C19.1008 507.9 19.4008 507.6 19.8008 507.2C20.2008 506.8 20.5008 506.4 20.8008 506L21.4008 506.4Z" fill="#CFD2D3"/>
<path d="M18.1 514.2C18.1 514.9 18.1 515.5 18.2 516.1L17.6 516C17.5 515.4 17.5 514.8 17.5 514.2C17.5 513.8 17.5 513.3 17.5 512.8C17.5 512.3 17.6 511.9 17.8 511.6C18 511.3 18.2 511 18.5 510.8L17.5 510L18 509.6L19 510.5H20.6V509.7H21.2V511.2H19C18.7 511.4 18.5 511.7 18.3 511.9C18.2 512.2 18.1 512.5 18 512.9C18.1 513.3 18.1 513.7 18.1 514.2ZM20.7 513.4H21.4V511.5H22V513.4H22.7C22.7 512.8 22.6 512.2 22.6 511.8L23.2 511.7C23.2 512.2 23.3 512.9 23.3 513.6C23.4 514.3 23.4 515 23.5 515.5L23 515.6C22.9 515.1 22.9 514.6 22.8 514H22V515.9H21.4V514H20.7V515.4H18.7V512H20.7V513.4ZM19.3 512.6V514.8H20.2V512.6H19.3ZM21.9 511C22.1 510.9 22.3 510.7 22.6 510.5C22.9 510.3 23.1 510.1 23.2 510L23.6 510.5C23.5 510.6 23.2 510.8 23 511.1C22.7 511.3 22.5 511.5 22.3 511.6L21.9 511Z" fill="#CFD2D3"/>
<path d="M23.4 517.7V522.9H18.2C18 522.9 17.8 522.9 17.7 522.8C17.6 522.7 17.5 522.6 17.4 522.5C17.4 522.4 17.3 522.2 17.3 521.9C17.3 521.7 17.3 521.5 17.3 521.2L18 521.1C18 521.4 17.9 521.6 17.9 521.8C17.9 521.9 17.9 522 18 522.1C18.1 522.1 18.2 522.2 18.3 522.2H19.2V520.5H17.3V520H19.2V518.3C18.8 518.3 18.5 518.2 18.1 518.1C17.8 518 17.4 517.8 17 517.6L17.3 517C17.7 517.2 18 517.3 18.2 517.4C18.4 517.5 18.7 517.5 19 517.6C19.3 517.6 19.7 517.6 20.2 517.6H23.4V517.7ZM20 518.3V519.9H21V518.3H20.2H20ZM21 520.6H20V522.3H21V520.6ZM21.7 520H22.8V518.4H21.7V520ZM21.7 520.6V522.3H22.8V520.6H21.7Z" fill="#CFD2D3"/>
<path d="M21.1004 530.7H20.4004V528H18.3004C18.0004 528 17.7004 527.9 17.6004 527.8C17.5004 527.6 17.4004 527.4 17.4004 527C17.4004 526.7 17.4004 526.4 17.4004 526L18.1004 525.9C18.1004 526.2 18.0004 526.5 18.0004 526.7C18.0004 526.9 18.0004 527 18.0004 527.1C18.0004 527.2 18.1004 527.2 18.2004 527.3C18.3004 527.4 18.4004 527.3 18.5004 527.3H20.4004V524.4H21.1004V527.3H22.6004V524.9H23.3004V530.2H22.6004V528H21.1004V530.7Z" fill="#CFD2D3"/>
<path d="M17.4004 537.7C17.8004 537.3 18.2004 537 18.7004 536.8C18.3004 536.6 17.9004 536.3 17.4004 535.9L17.9004 535.5C18.4004 535.9 18.9004 536.3 19.3004 536.5C19.8004 536.3 20.3004 536.2 20.9004 536.1L20.6004 536L21.0004 535.6V534.8L20.5004 534.9V535.8H20.0004V534.3H19.8004H19.6004V535.6C19.2004 535.6 18.8004 535.6 18.5004 535.5C18.3004 535.5 18.1004 535.4 18.0004 535.4C17.9004 535.4 17.8004 535.3 17.8004 535.2C17.8004 535.1 17.7004 535 17.7004 534.8C17.7004 534.6 17.7004 534.4 17.7004 534.2L18.2004 534.1C18.2004 534.3 18.2004 534.4 18.2004 534.6C18.2004 534.7 18.2004 534.8 18.3004 534.9C18.4004 534.9 18.5004 535 18.6004 535C18.8004 535 19.0004 535 19.1004 535V534.2C18.8004 534.1 18.5004 534.1 18.3004 533.9C18.1004 533.7 17.8004 533.6 17.5004 533.4L17.9004 533C18.1004 533.2 18.3004 533.3 18.5004 533.4C18.7004 533.5 18.9004 533.6 19.1004 533.6C19.3004 533.7 19.6004 533.7 19.9004 533.7H20.1004V533.1H20.6004V534.3C20.8004 534.2 21.0004 534.2 21.1004 534.2V533.5H23.4004V534.1C23.6004 534.2 23.8004 534.2 24.0004 534.3L23.9004 534.9L23.5004 534.8H23.4004H23.3004V535.6H21.1004C21.5004 535.8 21.9004 535.9 22.4004 536.1C22.9004 536.2 23.4004 536.3 23.9004 536.4L23.8004 537C23.4004 536.9 23.1004 536.9 22.8004 536.8V538.1H22.0004V537.8C21.4004 537.8 20.9004 537.7 20.5004 537.6C20.1004 537.5 19.6004 537.4 19.2004 537.2C18.7004 537.4 18.3004 537.8 17.8004 538.3L17.4004 537.7ZM20.0004 533C19.4004 532.9 18.6004 532.7 17.5004 532.4L17.7004 531.8C18.0004 531.9 18.4004 532 18.9004 532.1C19.4004 532.2 19.9004 532.3 20.2004 532.4L20.0004 533ZM19.9004 536.8C20.2004 536.9 20.5004 537 20.8004 537C21.1004 537.1 21.5004 537.1 22.0004 537.1V536.4L21.6004 536.3C21.0004 536.5 20.4004 536.6 19.9004 536.8ZM20.6004 532.7C20.7004 532.6 20.9004 532.4 21.1004 532.2C21.3004 532 21.5004 531.8 21.6004 531.6L22.0004 532C21.9004 532.2 21.7004 532.4 21.5004 532.6C21.3004 532.8 21.2004 533 21.0004 533.2L20.6004 532.7ZM21.8004 534H21.4004V535.1H21.8004V534ZM22.1004 533C22.2004 532.9 22.4004 532.7 22.6004 532.4C22.8004 532.2 22.9004 532 23.0004 531.9L23.5004 532.3C23.4004 532.4 23.3004 532.6 23.1004 532.8C22.9004 533 22.8004 533.2 22.6004 533.3L22.1004 533ZM22.2004 535H22.6004V534H22.2004V535Z" fill="#CFD2D3"/>
<path d="M19.3004 545.3C19.2004 545.3 19.0004 545.3 18.9004 545.3C18.8004 545.3 18.6004 545.3 18.5004 545.3C18.3004 545.3 18.1004 545.2 18.0004 545.2C17.9004 545.2 17.8004 545 17.7004 544.9C17.7004 544.8 17.6004 544.6 17.6004 544.4C17.6004 544.2 17.6004 544.1 17.6004 543.9C17.6004 543.7 17.6004 543.6 17.6004 543.4C17.6004 543.2 17.7004 543 17.7004 542.9C17.8004 542.8 17.8004 542.7 18.0004 542.6C18.1004 542.5 18.3004 542.5 18.5004 542.5H20.6004V541.5H20.5004C20.0004 541.5 19.6004 541.4 19.2004 541.3C18.8004 541.2 18.5004 541 18.2004 540.7C17.9004 540.4 17.6004 540 17.4004 539.5L18.0004 539C18.2004 539.5 18.4004 539.8 18.7004 540.1C18.9004 540.4 19.2004 540.6 19.5004 540.7C19.8004 540.8 20.1004 540.9 20.6004 540.9H20.7004V539.2H21.3004V541.9H23.9004V542.6H21.3004V545.3H20.7004V543.3H18.8004C18.6004 543.3 18.5004 543.3 18.5004 543.4C18.4004 543.5 18.4004 543.6 18.4004 543.7C18.4004 543.8 18.4004 543.9 18.4004 544C18.4004 544.1 18.4004 544.2 18.4004 544.3C18.4004 544.4 18.5004 544.5 18.5004 544.6C18.6004 544.7 18.7004 544.7 18.8004 544.7C19.1004 544.7 19.4004 544.7 19.5004 544.7L19.3004 545.3ZM22.9004 544.9C22.7004 544.7 22.4004 544.5 22.1004 544.3C21.8004 544.1 21.5004 543.8 21.3004 543.6L21.7004 543.1C21.9004 543.3 22.2004 543.5 22.5004 543.8C22.8004 544 23.1004 544.2 23.3004 544.4L22.9004 544.9ZM21.4004 540.8C21.6004 540.6 21.9004 540.4 22.2004 540.2C22.5004 540 22.8004 539.7 22.9004 539.6L23.3004 540.1C23.1004 540.3 22.9004 540.5 22.6004 540.7C22.3004 541 22.0004 541.2 21.8004 541.3L21.4004 540.8Z" fill="#CFD2D3"/>
<path d="M17.3008 547.701V547.101H20.2008V552.101H17.3008V551.501H17.6008V547.801H17.3008V547.701ZM18.7008 547.701H18.1008V549.301H18.7008V547.701ZM18.7008 549.901H18.1008V551.501H18.7008V549.901ZM19.2008 549.301H19.8008V547.701H19.2008V549.301ZM19.2008 549.901V551.501H19.8008V549.901H19.2008ZM23.0008 549.901H22.5008V552.501H21.0008V551.901H22.0008V549.901H20.5008V549.301H22.0008V547.301H21.0008V546.701H22.5008V549.301H23.0008V547.001H23.5008V552.301H23.0008V549.901ZM20.7008 548.901V547.501H21.0008V548.901H20.7008ZM20.7008 551.601V550.201H21.0008V551.601H20.7008ZM21.7008 547.601V549.001H21.3008V547.601H21.7008ZM21.7008 550.301V551.701H21.3008V550.301H21.7008Z" fill="#CFD2D3"/>
<path d="M18.0996 558.301C18.0996 558.901 18.0996 559.501 18.1996 560.201L17.5996 560.101C17.5996 559.401 17.5996 558.901 17.5996 558.401C17.5996 557.901 17.5996 557.401 17.5996 557.101C17.5996 556.701 17.6996 556.401 17.6996 556.201C17.6996 556.001 17.7996 555.801 17.9996 555.601C18.1996 555.401 18.2996 555.201 18.5996 555.101C18.4996 555.001 18.3996 554.901 18.1996 554.701C17.7996 554.401 17.5996 554.201 17.5996 554.101L18.2996 553.801L19.2996 554.801H20.9996V553.901H21.5996V555.401H19.2996C19.0996 555.501 18.8996 555.701 18.6996 555.801C18.5996 556.001 18.4996 556.201 18.3996 556.401C18.2996 556.601 18.2996 556.901 18.2996 557.201C18.0996 557.501 18.0996 557.901 18.0996 558.301ZM19.1996 555.701C19.4996 556.101 19.7996 556.401 19.9996 556.701C20.1996 556.901 20.4996 557.101 20.7996 557.201C21.0996 557.301 21.3996 557.401 21.7996 557.401V555.901H22.3996V557.501H23.7996V558.201H22.3996V560.001H21.7996V558.201C21.5996 558.201 21.2996 558.201 21.0996 558.101L19.1996 560.001L18.6996 559.501C18.9996 559.201 19.5996 558.701 20.3996 557.901C20.0996 557.801 19.7996 557.601 19.4996 557.301C19.1996 557.001 18.8996 556.701 18.5996 556.301L19.1996 555.701ZM21.9996 555.101C22.0996 555.001 22.4996 554.701 23.0996 554.201L23.2996 554.001L23.6996 554.501C23.5996 554.601 23.4996 554.701 23.4996 554.601C23.0996 554.901 22.7996 555.201 22.3996 555.601L21.9996 555.101Z" fill="#CFD2D3"/>
<path d="M629.2 729.6H213.6V730.6H629.2V729.6Z" fill="#CFD2D3"/>
<path d="M439.599 734.699L419.799 754.599H425.499L445.299 734.699H439.599Z" fill="#CFD2D3"/>
<path d="M451 734.699L431.1 754.599H436.8L456.6 734.699H451Z" fill="#CFD2D3"/>
<path d="M462.3 734.699L442.5 754.599H448.2L468 734.699H462.3Z" fill="#CFD2D3"/>
<path d="M473.699 734.699L453.799 754.599H459.499L479.299 734.699H473.699Z" fill="#CFD2D3"/>
<path d="M484.999 734.699L465.199 754.599H470.799L490.699 734.699H484.999Z" fill="#CFD2D3"/>
<path d="M496.3 734.699L476.5 754.599H482.2L502 734.699H496.3Z" fill="#CFD2D3"/>
<path d="M507.699 734.699L487.799 754.599H493.499L513.399 734.699H507.699Z" fill="#CFD2D3"/>
<path d="M518.999 734.699L499.199 754.599H504.899L524.699 734.699H518.999Z" fill="#CFD2D3"/>
<path d="M530.4 734.699L510.5 754.599H516.2L536 734.699H530.4Z" fill="#CFD2D3"/>
<path d="M541.7 734.699L521.9 754.599H527.5L547.4 734.699H541.7Z" fill="#CFD2D3"/>
<path d="M552.999 734.699L533.199 754.599H538.899L558.699 734.699H552.999Z" fill="#CFD2D3"/>
<path d="M564.4 734.699L544.5 754.599H550.2L570.1 734.699H564.4Z" fill="#CFD2D3"/>
<path d="M575.7 734.699L555.9 754.599H561.6L581.4 734.799L575.7 734.699Z" fill="#CFD2D3"/>
<path d="M587.099 734.799L567.199 754.599H572.899L592.699 734.799H587.099Z" fill="#CFD2D3"/>
<path d="M598.4 734.799L578.6 754.599H584.2L604.1 734.799H598.4Z" fill="#CFD2D3"/>
<path d="M609.7 734.799L589.9 754.599H595.6L615.4 734.799H609.7Z" fill="#CFD2D3"/>
<path d="M621.099 734.799L601.299 754.599H606.899L626.799 734.799H621.099Z" fill="#CFD2D3"/>
<path d="M618.3 754.6L629.2 743.7V738L612.6 754.6H618.3Z" fill="#CFD2D3"/>
<path d="M629.1 754.6L629.2 754.5V748.9L623.4 754.6H629.1Z" fill="#CFD2D3"/>
<path d="M337.9 745.199H333.6V747.599H337.9C338.1 747.599 338.2 747.499 338.2 747.299V745.499C338.3 745.299 338.1 745.199 337.9 745.199Z" fill="#CFD2D3"/>
<path d="M266.2 739.5H264.9H263.6V742.1V744.7H264.9H266.2V742.1V739.5Z" fill="#CFD2D3"/>
<path d="M268.799 745.999V744.699H267.499H266.199V747.299V749.899H268.799H271.399V748.599V747.299H270.099H268.799V745.999Z" fill="#CFD2D3"/>
<path d="M428.299 734.699L417.199 745.799V740.399L422.899 734.699H239.499C238.799 734.699 238.199 735.299 238.199 735.999V753.199C238.199 753.899 238.799 754.499 239.499 754.499H269.399H397.199H402.899H408.599H414.299H417.399V751.699V751.499L434.199 734.699H428.299ZM248.899 752.499H243.299V747.599L248.899 745.399V752.499ZM243.399 746.599V736.799H248.999V744.399L243.399 746.599ZM255.399 752.499H249.799V742.699L255.399 744.899V752.499ZM249.799 741.799V736.899H255.399V743.999L249.799 741.799ZM276.599 744.699V752.499H268.799H260.999V744.699V736.899H268.799H276.599V744.699ZM298.699 744.899C298.699 745.499 298.199 745.999 297.599 745.999H292.199V748.799H290.399V739.999H297.599C298.199 739.999 298.699 740.499 298.699 741.099V744.899ZM305.299 748.899H300.799C300.199 748.899 299.699 748.399 299.699 747.799V740.199H301.499V747.399C301.499 747.599 301.599 747.699 301.799 747.699H305.299V748.899ZM314.699 748.899H312.899V745.399H308.199V748.899H306.399V741.199C306.399 740.599 306.899 740.099 307.499 740.099H313.599C314.199 740.099 314.699 740.599 314.699 741.199V748.899ZM317.699 748.899H316.599L319.099 740.099H320.199L317.699 748.899ZM330.499 748.899H328.699V745.399H323.999V748.899H322.199V741.199C322.199 740.599 322.699 740.099 323.299 740.099H329.399C329.999 740.099 330.499 740.599 330.499 741.199V748.899ZM339.999 747.699C339.999 748.299 339.499 748.799 338.899 748.799H331.799V740.099H338.399C338.999 740.099 339.499 740.599 339.499 741.199V743.799L339.599 743.899C339.899 744.099 339.999 744.399 339.999 744.799V747.699ZM349.699 747.699C349.699 748.299 349.199 748.799 348.599 748.799H341.699V747.499H347.599C347.799 747.499 347.899 747.299 347.899 747.099V745.499C347.899 745.299 347.699 745.199 347.499 745.199H342.399C341.799 745.199 341.299 744.699 341.299 744.099V741.199C341.299 740.599 341.799 740.099 342.499 740.099H349.399V741.399H343.499C343.299 741.399 343.199 741.599 343.199 741.699V743.699C343.199 743.899 343.299 743.999 343.499 743.999H348.499C349.099 743.999 349.599 744.499 349.599 745.099V747.699H349.699ZM352.699 748.899H351.599L354.099 740.099H355.199L352.699 748.899ZM364.899 741.399H361.899V748.899H360.099V741.399H357.099V740.099H364.899V741.399ZM374.299 744.899C374.299 745.499 373.799 745.999 373.199 745.999H367.799V748.799H365.999V739.999H373.199C373.799 739.999 374.299 740.499 374.299 741.099V744.899ZM383.899 747.799C383.899 748.399 383.399 748.899 382.799 748.899H376.699C376.099 748.899 375.599 748.399 375.599 747.799V740.199H377.399V747.399C377.399 747.599 377.499 747.699 377.699 747.699H381.799C381.999 747.699 382.099 747.599 382.099 747.399V740.199H383.899V747.799ZM386.899 748.899H385.799L388.299 740.099H389.399L386.899 748.899ZM399.799 744.899C399.799 745.499 399.299 745.999 398.699 745.999H393.299V748.799H391.499V739.999H398.699C399.299 739.999 399.799 740.499 399.799 741.099V744.899ZM407.699 741.399H403.099C402.899 741.399 402.799 741.499 402.799 741.699V747.299C402.799 747.499 402.899 747.599 403.099 747.599H407.699V748.899H402.099C401.499 748.899 400.999 748.399 400.999 747.799V741.299C400.999 740.699 401.499 740.199 402.099 740.199H407.699V741.399Z" fill="#CFD2D3"/>
<path d="M274 744.7V742.1V739.5H272.7H271.4V742.1V744.7H272.7H274Z" fill="#CFD2D3"/>
<path d="M337.799 743.6V741.8C337.799 741.6 337.599 741.5 337.499 741.5H333.699V744H337.499C337.599 743.9 337.799 743.8 337.799 743.6Z" fill="#CFD2D3"/>
<path d="M312.599 741.4H308.499C308.299 741.4 308.199 741.6 308.199 741.7V744.1H312.899V741.7C312.899 741.5 312.799 741.4 312.599 741.4Z" fill="#CFD2D3"/>
<path d="M328.4 741.4H324.3C324.1 741.4 324 741.6 324 741.7V744.1H328.7V741.7C328.7 741.5 328.6 741.4 328.4 741.4Z" fill="#CFD2D3"/>
<path d="M397.599 741.4H393.199V744.8H397.599C397.799 744.8 397.899 744.7 397.899 744.5V741.7C397.899 741.5 397.799 741.4 397.599 741.4Z" fill="#CFD2D3"/>
<path d="M372.199 741.4H367.799V744.8H372.199C372.399 744.8 372.499 744.7 372.499 744.5V741.7C372.499 741.5 372.299 741.4 372.199 741.4Z" fill="#CFD2D3"/>
<path d="M296.5 741.4H292.1V744.8H296.5C296.7 744.8 296.8 744.7 296.8 744.5V741.7C296.9 741.5 296.7 741.4 296.5 741.4Z" fill="#CFD2D3"/>
</g>
<defs>
<clipPath id="clip0_8331_33191">
<rect width="731.3" height="759.7" fill="white"/>
</clipPath>
</defs>
</svg>
