<svg width="734" height="762" viewBox="0 0 734 762" fill="none" xmlns="http://www.w3.org/2000/svg">
<rect x="13.7892" y="49.82" width="21" height="481" fill="#535656"/>
<path d="M19.0892 141.721H23.6892C24.1892 141.721 24.6892 142.121 24.6892 142.721V150.821H26.2892V141.821H30.3892C30.8892 141.821 31.3892 142.221 31.3892 142.821V150.921H32.9892V139.121H17.4892V150.721H19.0892V141.721V141.721Z" fill="#CFD2D3"/>
<path d="M29.1892 163.121V152.621H17.4892V155.221H27.8892V162.321H17.4892V164.921H27.3892C28.3892 164.921 29.1892 164.121 29.1892 163.121Z" fill="#CFD2D3"/>
<path d="M14.59 179.52H27.29C28.29 179.52 29.09 178.72 29.09 177.72V168.42C29.09 167.92 28.89 167.52 28.59 167.22C28.29 166.92 27.79 166.72 27.39 166.72H19.19C18.19 166.72 17.39 167.52 17.39 168.52V176.92H14.09V166.92H12.79V177.82C12.79 178.72 13.59 179.52 14.59 179.52ZM18.79 169.32H27.69V176.92H18.79V169.32Z" fill="#CFD2D3"/>
<path d="M32.8908 181.42H31.5908V184.02H32.8908V181.42Z" fill="#CFD2D3"/>
<path d="M29.0892 181.42H17.4892V184.02H29.0892V181.42Z" fill="#CFD2D3"/>
<path d="M17.4892 195.52V198.12H27.3892C28.3892 198.12 29.1892 197.32 29.1892 196.32V185.82H17.4892V188.42H27.8892V195.52H17.4892V195.52Z" fill="#CFD2D3"/>
<path d="M17.4892 212.119H18.7892V202.619H22.2892V212.319H27.3892C28.3892 212.319 29.1892 211.519 29.1892 210.519V201.819C29.1892 200.819 28.3892 200.019 27.3892 200.019H19.2892C18.2892 200.019 17.4892 200.819 17.4892 201.819V212.119ZM23.5892 202.619H27.8892V209.719H23.5892V202.619Z" fill="#CFD2D3"/>
<path d="M17.4892 226.32H18.7892V216.82H22.2892V226.52H27.3892C28.3892 226.52 29.1892 225.72 29.1892 224.72V216.02C29.1892 215.02 28.3892 214.22 27.3892 214.22H19.2892C18.2892 214.22 17.4892 215.02 17.4892 216.02V226.32ZM23.5892 216.82H27.8892V223.92H23.5892V216.82Z" fill="#CFD2D3"/>
<path d="M17.4892 230.92H26.4892V236.22H28.9892V234.22C28.9892 233.22 28.4892 232.32 27.6892 231.72L26.4892 230.92H28.9892V228.42H17.4892V230.92Z" fill="#CFD2D3"/>
<path d="M32.8908 237.82H31.5908V240.42H32.8908V237.82Z" fill="#CFD2D3"/>
<path d="M29.0892 237.82H17.4892V240.42H29.0892V237.82Z" fill="#CFD2D3"/>
<path d="M17.4892 251.92V254.52H27.3892C28.3892 254.52 29.1892 253.72 29.1892 252.72V242.22H17.4892V244.82H27.8892V251.92H17.4892V251.92Z" fill="#CFD2D3"/>
<path d="M28.99 267.519V258.219C28.99 257.719 28.79 257.319 28.49 257.019C28.19 256.719 27.69 256.519 27.29 256.519H19.19C18.19 256.519 17.39 257.319 17.39 258.319V266.719H14.09V256.719H12.79V267.519C12.79 268.519 13.59 269.319 14.59 269.319H27.29C28.29 269.219 28.99 268.419 28.99 267.519ZM18.79 259.019H27.69V266.619H18.79V259.019Z" fill="#CFD2D3"/>
<path d="M24.3892 292.72H31.1892C32.1892 292.72 32.8892 291.92 32.8892 291.02V278.22H17.4892V280.82H22.6892V291.12C22.6892 291.92 23.4892 292.72 24.3892 292.72ZM24.2892 280.72H31.2892V289.12C31.2892 289.62 30.8892 290.12 30.2892 290.12H25.1892C24.6892 290.12 24.1892 289.72 24.1892 289.12V280.72H24.2892Z" fill="#CFD2D3"/>
<path d="M17.4892 296.319V300.519H18.7892V297.119H32.9892V294.519H19.2892C18.2892 294.619 17.4892 295.419 17.4892 296.319Z" fill="#CFD2D3"/>
<path d="M22.6892 302.42H19.2892C18.2892 302.42 17.4892 303.22 17.4892 304.22V314.72H27.1892C28.2892 314.72 29.1892 313.52 29.1892 312.12V303.52H27.8892V312.12H24.4892V304.22C24.3892 303.22 23.5892 302.42 22.6892 302.42ZM23.0892 312.12H18.7892V305.02H23.0892V312.12Z" fill="#CFD2D3"/>
<path d="M29.0896 315.92H27.7896V318.52H19.1896C18.1896 318.52 17.3896 319.32 17.3896 320.32V323.72H18.7896V322.32C18.7896 321.72 19.2896 321.12 19.9896 321.12H27.7896V323.72H29.0896V321.12H32.8896V318.52H29.0896V315.92Z" fill="#CFD2D3"/>
<path d="M27.3892 337.421C28.3892 337.421 29.1892 336.621 29.1892 335.621V326.921C29.1892 325.921 28.3892 325.121 27.3892 325.121H19.2892C18.2892 325.121 17.4892 325.921 17.4892 326.921V337.221H18.7892V327.721H22.2892V337.421H27.3892ZM23.5892 327.721H27.8892V334.821H23.5892V327.721Z" fill="#CFD2D3"/>
<path d="M19.4892 68.62H24.7892C25.3892 68.62 25.9892 68.32 26.3892 67.92L26.4892 67.82H31.0892C32.1892 67.82 33.0892 66.92 33.0892 65.82V53.82H17.4892V66.62C17.4892 67.72 18.3892 68.62 19.4892 68.62ZM26.3892 57.02H30.7892V63.92C30.7892 64.22 30.4892 64.52 30.1892 64.52H26.9892C26.6892 64.52 26.3892 64.22 26.3892 63.92V57.02ZM19.7892 57.02H24.1892V64.82C24.1892 65.12 23.8892 65.42 23.5892 65.42H20.3892C19.9892 65.42 19.7892 65.12 19.7892 64.82V57.02Z" fill="#CFD2D3"/>
<path d="M29.5892 80.2196V71.4196H27.5892V79.8196H24.9892V72.5196C24.9892 71.4196 24.0892 70.4196 22.8892 70.4196H19.5892C18.4892 70.4196 17.4892 71.3196 17.4892 72.5196V83.1196H27.2892C28.5892 83.1196 29.5892 81.8196 29.5892 80.2196ZM22.9892 79.8196H19.4892V73.7196H22.8892V79.8196H22.9892Z" fill="#CFD2D3"/>
<path d="M29.5892 100.119V85.0192H17.4892V88.3192H27.5892V92.0192H17.4892V95.2192H27.5892V98.9192H17.4892V102.219H27.4892C28.6892 102.219 29.5892 101.219 29.5892 100.119Z" fill="#CFD2D3"/>
<path d="M17.4892 114.42C17.4892 115.62 18.3892 116.52 19.5892 116.52H27.4892C28.5892 116.52 29.5892 115.62 29.5892 114.42V107.12H33.2892V103.82H17.4892V114.42ZM19.4892 107.12H27.5892V113.22H19.4892V107.12Z" fill="#CFD2D3"/>
<path d="M29.5892 127.219H19.3892V121.219H29.5892V118.019H19.4892C18.3892 118.019 17.4892 118.919 17.4892 120.019V130.219H29.5892V127.219Z" fill="#CFD2D3"/>
<path d="M25.9892 360.92V364.32C25.9892 364.72 26.2892 364.92 26.5892 364.92H30.8892V363.92H26.7892C26.6892 363.92 26.5892 363.82 26.5892 363.72V361.42C26.5892 361.32 26.6892 361.22 26.7892 361.22H30.8892V360.22H26.5892C26.2892 360.32 25.9892 360.62 25.9892 360.92Z" fill="#CFD2D3"/>
<path d="M30.3904 366.019H28.7904C28.4904 366.019 28.1904 366.319 28.1904 366.619V369.519C28.1904 369.619 28.0904 369.719 27.9904 369.719H27.0904C26.9904 369.719 26.8904 369.619 26.8904 369.519V366.219H26.1904V370.119C26.1904 370.519 26.4904 370.719 26.7904 370.719H28.2904C28.6904 370.719 28.8904 370.419 28.8904 370.119V367.219C28.8904 367.119 28.9904 367.019 29.0904 367.019H30.1904C30.2904 367.019 30.3904 367.119 30.3904 367.219V370.519H31.0904V366.619C30.9904 366.319 30.6904 366.019 30.3904 366.019Z" fill="#CFD2D3"/>
<path d="M30.9892 375.421V371.621H25.9892V375.421H26.7892V372.621H28.0892C28.1892 372.621 28.2892 372.721 28.2892 372.821V375.421H28.9892V372.621H30.0892C30.1892 372.621 30.2892 372.721 30.2892 372.821V375.421H30.9892Z" fill="#CFD2D3"/>
<path d="M30.9892 379.019H25.9892V383.119C25.9892 383.519 26.2892 383.719 26.5892 383.719H30.2892C30.6892 383.719 30.8892 383.419 30.8892 383.119V379.019H30.9892ZM30.2892 382.519C30.2892 382.619 30.1892 382.719 30.0892 382.719H26.8892C26.7892 382.719 26.6892 382.619 26.6892 382.519V380.019H30.1892V382.519H30.2892Z" fill="#CFD2D3"/>
<path d="M30.9892 384.72H25.9892V388.52H26.7892V385.72H28.0892C28.1892 385.72 28.2892 385.82 28.2892 385.92V388.52H28.9892V385.72H30.0892C30.1892 385.72 30.2892 385.82 30.2892 385.92V388.52H30.9892V384.72Z" fill="#CFD2D3"/>
<path d="M30.9908 389.42H30.2908V391.12H26.0908V392.12H30.2908V393.82H30.9908V389.42Z" fill="#CFD2D3"/>
<path d="M30.9892 398.421V394.621H25.9892V398.421H26.7892V395.621H28.0892C28.1892 395.621 28.2892 395.721 28.2892 395.821V398.421H28.9892V395.621H30.0892C30.1892 395.621 30.2892 395.721 30.2892 395.821V398.421H30.9892Z" fill="#CFD2D3"/>
<path d="M26.0908 400.42H27.7908V402.22L26.0908 402.82V403.92L27.7908 403.32V403.52C27.7908 403.92 28.0908 404.22 28.4908 404.22H30.5908C30.9908 404.22 31.2908 403.92 31.2908 403.52V399.32H26.1908V400.42H26.0908ZM28.4908 400.42H30.4908V403.02C30.4908 403.12 30.3908 403.22 30.2908 403.22H28.6908C28.5908 403.22 28.4908 403.12 28.4908 403.02V400.42V400.42Z" fill="#CFD2D3"/>
<path d="M31.0908 405.82C31.0908 405.42 30.7908 405.22 30.4908 405.22H26.6908C26.2908 405.22 26.0908 405.52 26.0908 405.82V408.82C26.0908 409.22 26.3908 409.42 26.6908 409.42H29.0908V407.32H28.3908V408.42H26.9908C26.8908 408.42 26.7908 408.32 26.7908 408.22V406.32C26.7908 406.22 26.8908 406.12 26.9908 406.12H30.2908C30.3908 406.12 30.4908 406.22 30.4908 406.32V409.22H31.1908V405.82H31.0908Z" fill="#CFD2D3"/>
<path d="M30.9892 410.519H25.9892V414.319H26.7892V411.519H28.0892C28.1892 411.519 28.2892 411.619 28.2892 411.719V414.319H28.9892V411.519H30.0892C30.1892 411.519 30.2892 411.619 30.2892 411.719V414.319H30.9892V410.519Z" fill="#CFD2D3"/>
<path d="M30.9908 415.22H26.0908V416.22H29.8908L26.0908 418.82V419.92H30.9908V418.92H27.1908L30.9908 416.32V415.22Z" fill="#CFD2D3"/>
<path d="M30.9908 420.92H30.2908V422.62H26.0908V423.62H30.2908V425.32H30.9908V420.92Z" fill="#CFD2D3"/>
<path d="M30.9908 433.12V428.72H30.2908V430.42H26.0908V431.42H30.2908V433.12H30.9908Z" fill="#CFD2D3"/>
<path d="M30.4908 433.92H26.6908C26.2908 433.92 26.0908 434.22 26.0908 434.52V437.92C26.0908 438.32 26.3908 438.52 26.6908 438.52H30.4908C30.8908 438.52 31.0908 438.22 31.0908 437.92V434.52C31.1908 434.22 30.8908 433.92 30.4908 433.92ZM30.3908 437.42C30.3908 437.52 30.2908 437.62 30.1908 437.62H26.8908C26.7908 437.62 26.6908 437.52 26.6908 437.42V435.12C26.6908 435.02 26.7908 434.92 26.8908 434.92H30.1908C30.2908 434.92 30.3908 435.02 30.3908 435.12V437.42Z" fill="#CFD2D3"/>
<path d="M30.9908 442.82C30.9908 442.42 30.6908 442.22 30.3908 442.22H26.6908C26.2908 442.22 26.0908 442.52 26.0908 442.82V445.92H26.7908V443.32C26.7908 443.22 26.8908 443.12 26.9908 443.12H30.1908C30.2908 443.12 30.3908 443.22 30.3908 443.32V445.92H31.0908V442.82H30.9908Z" fill="#CFD2D3"/>
<path d="M30.9908 446.92H26.6908C26.2908 446.92 26.0908 447.22 26.0908 447.52V450.02H26.7908V448.02C26.7908 447.92 26.8908 447.82 26.9908 447.82H31.0908V446.92H30.9908Z" fill="#CFD2D3"/>
<path d="M30.9892 451.019H25.9892V454.819H26.7892V452.019H28.0892C28.1892 452.019 28.2892 452.119 28.2892 452.219V454.819H28.9892V452.019H30.0892C30.1892 452.019 30.2892 452.119 30.2892 452.219V454.819H30.9892V451.019Z" fill="#CFD2D3"/>
<path d="M30.9908 456.42C30.9908 456.02 30.6908 455.82 30.3908 455.82H26.0908V456.82H28.0908V459.52H26.0908V460.52H30.3908C30.7908 460.52 30.9908 460.22 30.9908 459.92V456.42ZM30.2908 459.32C30.2908 459.42 30.1908 459.52 30.0908 459.52H28.6908V456.82H30.0908C30.1908 456.82 30.2908 456.92 30.2908 457.02V459.32Z" fill="#CFD2D3"/>
<path d="M30.9908 461.519H26.0908V462.519H29.8908L26.0908 465.019V466.219H30.9908V465.219H27.1908L30.9908 462.619V461.519Z" fill="#CFD2D3"/>
<path d="M30.9908 469.72H30.2908V471.42H26.0908V472.42H30.2908V474.12H30.9908V469.72Z" fill="#CFD2D3"/>
<path d="M30.9908 475.92V474.92H26.0908V475.92H28.2908V478.12H26.0908V479.22H30.9908V478.12H28.9908V475.92H30.9908Z" fill="#CFD2D3"/>
<path d="M30.9892 480.121H25.9892V483.921H26.7892V481.121H28.0892C28.1892 481.121 28.2892 481.221 28.2892 481.321V483.921H28.9892V481.121H30.0892C30.1892 481.121 30.2892 481.221 30.2892 481.321V483.921H30.9892V480.121Z" fill="#CFD2D3"/>
<path d="M30.9904 492.02V488.12C30.9904 487.72 30.6904 487.42 30.3904 487.42H28.7904C28.4904 487.42 28.1904 487.72 28.1904 488.02V490.92C28.1904 491.02 28.0904 491.12 27.9904 491.12H27.0904C26.9904 491.12 26.8904 491.02 26.8904 490.92V487.62H26.1904V491.52C26.1904 491.92 26.4904 492.12 26.7904 492.12H28.2904C28.6904 492.12 28.8904 491.82 28.8904 491.52V488.62C28.8904 488.52 28.9904 488.42 29.0904 488.42H30.1904C30.2904 488.42 30.3904 488.52 30.3904 488.62V491.92H30.9904V492.02Z" fill="#CFD2D3"/>
<path d="M25.9892 497.221C25.9892 497.621 26.2892 497.821 26.5892 497.821H30.8892V496.821H26.7892C26.6892 496.821 26.5892 496.721 26.5892 496.621V494.321C26.5892 494.221 26.6892 494.121 26.7892 494.121H30.8892V493.121H26.5892C26.1892 493.121 25.9892 493.421 25.9892 493.721V497.221V497.221Z" fill="#CFD2D3"/>
<path d="M26.0908 499.92H27.7908V501.72L26.0908 502.32V503.42L27.7908 502.82V503.02C27.7908 503.42 28.0908 503.72 28.4908 503.72H30.5908C30.9908 503.72 31.2908 503.42 31.2908 503.02V498.82H26.1908V499.92H26.0908ZM28.4908 499.92H30.4908V502.52C30.4908 502.62 30.3908 502.72 30.2908 502.72H28.6908C28.5908 502.72 28.4908 502.62 28.4908 502.52V499.92V499.92Z" fill="#CFD2D3"/>
<path d="M26.0892 505.72H28.0892C28.1892 505.72 28.2892 505.82 28.2892 505.92V508.72H28.9892V505.72H30.0892C30.1892 505.72 30.2892 505.82 30.2892 505.92V508.72H30.9892V504.72H25.9892V505.72H26.0892Z" fill="#CFD2D3"/>
<path d="M30.3908 509.621H26.0908V510.621H28.0908V513.321H26.0908V514.321H30.3908C30.7908 514.321 30.9908 514.021 30.9908 513.721V510.321C30.9908 509.921 30.6908 509.621 30.3908 509.621ZM30.2908 513.121C30.2908 513.221 30.1908 513.321 30.0908 513.321H28.6908V510.621H30.0908C30.1908 510.621 30.2908 510.721 30.2908 510.821V513.121Z" fill="#CFD2D3"/>
<path d="M30.3908 515.22H26.6908C26.2908 515.22 26.0908 515.52 26.0908 515.82V518.92H26.7908V516.32C26.7908 516.22 26.8908 516.12 26.9908 516.12H30.1908C30.2908 516.12 30.3908 516.22 30.3908 516.32V518.92H31.0908V515.82C30.9908 515.52 30.6908 515.22 30.3908 515.22Z" fill="#CFD2D3"/>
<path d="M26.0892 523.819H26.7892V521.019H28.0892C28.1892 521.019 28.2892 521.119 28.2892 521.219V523.819H28.9892V521.019H30.0892C30.1892 521.019 30.2892 521.119 30.2892 521.219V523.819H30.9892V520.019H25.9892V523.819H26.0892Z" fill="#CFD2D3"/>
<path d="M31.3892 348.32H16.9892V349.12H31.3892V348.32Z" fill="#CFD2D3"/>
<path d="M17.7908 360.319L17.0908 360.419C17.0908 360.619 17.0908 360.819 17.0908 360.919C17.0908 361.219 17.0908 361.319 17.1908 361.519C17.2908 361.719 17.2908 361.719 17.3908 361.819C17.4908 361.919 17.6908 361.919 17.8908 361.919H19.6908L19.8908 362.619C19.8908 362.719 19.9908 362.819 19.9908 362.819L20.5908 362.719C20.5908 362.719 20.4908 362.519 20.3908 362.019V361.919H21.5908V362.719H22.1908V361.919H23.4908V361.219H22.0908V360.219H21.4908V361.219H20.0908C19.8908 360.619 19.7908 360.319 19.7908 360.019L19.0908 360.119C19.1908 360.319 19.2908 360.719 19.3908 361.119H18.0908C17.8908 361.119 17.7908 361.119 17.7908 361.019C17.7908 361.019 17.6908 360.819 17.6908 360.719C17.6908 360.619 17.6908 360.519 17.6908 360.419C17.6908 360.319 17.7908 360.419 17.7908 360.319Z" fill="#CFD2D3"/>
<path d="M16.9892 364.519C16.9892 364.819 17.0892 365.119 17.1892 365.219C17.2892 365.319 17.5892 365.419 17.8892 365.419H22.2892V366.619H22.8892V363.019H22.2892V364.719H18.0892C17.8892 364.719 17.7892 364.719 17.7892 364.619C17.6892 364.519 17.6892 364.419 17.6892 364.319C17.6892 364.119 17.6892 363.819 17.7892 363.519L17.0892 363.619C16.9892 364.019 16.9892 364.319 16.9892 364.519Z" fill="#CFD2D3"/>
<path d="M20.8892 370.42V368.62H22.0892C22.1892 368.92 22.1892 369.22 22.2892 369.52C22.3892 369.82 22.4892 370.22 22.5892 370.52L23.1892 370.32C23.0892 370.02 22.8892 369.62 22.7892 369.12C22.6892 368.62 22.5892 368.32 22.4892 368.02H18.4892C18.3892 368.02 18.3892 368.02 18.2892 368.02C18.1892 368.02 18.1892 367.92 18.0892 367.92L17.4892 368.22C17.4892 368.32 17.5892 368.52 17.6892 368.72C17.8892 369.22 18.0892 369.92 18.2892 370.62H18.9892C18.8892 370.22 18.6892 369.82 18.5892 369.42L18.3892 368.82H20.1892V370.62H20.8892V370.42Z" fill="#CFD2D3"/>
<path d="M16.9892 371.52H22.1892V373.02H18.9892C18.7892 373.02 18.6892 373.02 18.5892 372.92C18.4892 372.92 18.4892 372.82 18.4892 372.62C18.4892 372.42 18.4892 372.22 18.5892 371.92L17.8892 372.02C17.8892 372.32 17.8892 372.62 17.8892 372.82C17.8892 373.02 17.9892 373.22 18.0892 373.32C18.1892 373.42 18.4892 373.52 18.7892 373.52H22.8892V370.72H16.9892V371.52Z" fill="#CFD2D3"/>
<path d="M16.9892 378.92C16.9892 379.22 16.9892 379.52 16.9892 379.82C16.9892 380.02 16.9892 380.22 17.0892 380.32C17.1892 380.42 17.2892 380.52 17.3892 380.62C17.4892 380.72 17.6892 380.72 17.8892 380.72H21.4892V380.12H18.0892C17.8892 380.12 17.7892 380.12 17.6892 380.02C17.5892 379.92 17.5892 379.82 17.5892 379.62C17.5892 379.42 17.5892 379.12 17.6892 378.82L16.9892 378.92Z" fill="#CFD2D3"/>
<path d="M21.29 378.72H18.29V379.32H21.29V378.72Z" fill="#CFD2D3"/>
<path d="M22.7896 377.32C22.8896 377.32 22.9896 377.22 23.0896 377.12C23.2896 377.02 23.3896 377.02 23.3896 376.92L23.1896 376.32C23.0896 376.42 22.7896 376.52 22.4896 376.72V374.92H21.8896V381.22H22.4896V379.42C22.5896 379.52 22.8896 379.62 23.1896 379.82L23.3896 379.22C23.0896 379.02 22.7896 378.82 22.4896 378.72V377.42L22.7896 377.32Z" fill="#CFD2D3"/>
<path d="M16.9892 376.719C16.9892 376.919 16.9892 377.119 16.9892 377.319C16.9892 377.619 17.0892 377.819 17.1892 377.919C17.2892 378.019 17.4892 378.119 17.7892 378.119H21.3892V375.519H16.9892V376.119H18.4892V377.519H17.8892C17.7892 377.519 17.6892 377.519 17.5892 377.419C17.5892 377.419 17.4892 377.319 17.4892 377.119C17.4892 376.919 17.4892 376.719 17.4892 376.619L16.9892 376.719ZM20.1892 376.019H20.7892V377.419H20.1892V376.019ZM18.9892 376.019H19.5892V377.419H18.9892V376.019Z" fill="#CFD2D3"/>
<path d="M21.5908 383.421L21.9908 384.021C22.2908 383.821 22.6908 383.521 23.2908 383.121L22.9908 382.621C22.4908 382.821 22.0908 383.121 21.5908 383.421Z" fill="#CFD2D3"/>
<path d="M22.7908 388.421V386.621H23.3908V386.021H22.7908V384.321H22.2908V386.021H21.9908V384.521H21.4908V386.021H21.0908V384.121H20.5908V388.721H21.0908V386.621H21.4908V388.321H21.9908V386.621H22.2908V388.421H22.7908Z" fill="#CFD2D3"/>
<path d="M17.0892 386.72C17.0892 387.02 17.0892 387.22 17.0892 387.52C17.0892 387.72 17.1892 387.92 17.2892 388.02C17.3892 388.12 17.5892 388.22 17.8892 388.22H20.3892V384.72H16.9892V385.32H17.9892V387.62H17.7892C17.6892 387.62 17.5892 387.62 17.5892 387.52C17.4892 387.52 17.4892 387.42 17.4892 387.32C17.4892 387.12 17.4892 386.92 17.5892 386.62L17.0892 386.72ZM19.3892 385.22H19.7892V387.52H19.3892V385.22ZM18.4892 385.22H18.8892V387.52H18.4892V385.22Z" fill="#CFD2D3"/>
<path d="M21.1904 382.22H20.5904V383.02H18.0904C17.9904 383.02 17.8904 383.02 17.8904 383.02C17.7904 383.02 17.7904 382.92 17.6904 382.92L17.1904 383.32C17.2904 383.42 17.3904 383.52 17.5904 383.72C17.5904 383.72 17.7904 383.92 18.0904 384.32L18.2904 384.52L18.8904 384.32L18.3904 383.82H21.2904V382.22H21.1904Z" fill="#CFD2D3"/>
<path d="M23.39 393.32H22.59V391.42H21.99V393.32H21.39V391.62H19.39V393.32C19.19 393.32 18.99 393.32 18.79 393.22C18.59 393.12 18.49 393.12 18.39 393.02C18.59 392.62 18.89 392.32 19.29 392.12L18.89 391.72C18.49 392.02 18.19 392.32 17.89 392.62C17.69 392.32 17.49 391.82 17.39 391.22L16.79 391.52C16.89 391.92 16.99 392.22 17.19 392.52C17.29 392.82 17.49 393.02 17.59 393.22C17.39 393.52 17.29 393.92 17.19 394.32C17.09 394.72 16.99 395.22 16.89 395.82L17.59 396.02C17.69 395.02 17.89 394.22 18.09 393.62C18.39 393.82 18.79 393.92 19.39 393.92V395.62H21.39V393.92H21.99V395.82H22.59V393.92H23.39V393.32ZM20.89 395.02H20.09V393.92H20.89V395.02ZM20.89 393.32H20.09V392.22H20.89V393.32Z" fill="#CFD2D3"/>
<path d="M21.5896 390.219C20.9896 390.019 20.5896 389.719 20.1896 389.519L19.4896 389.819C19.6896 390.019 19.9896 390.219 20.2896 390.319H16.8896V390.919H21.5896C22.0896 391.119 22.5896 391.319 23.1896 391.419L23.3896 390.819C22.7896 390.619 22.1896 390.419 21.5896 390.219Z" fill="#CFD2D3"/>
<path d="M18.8896 397.52C18.5896 397.52 18.2896 397.42 18.0896 397.32C17.8896 397.22 17.5896 397.12 17.1896 396.92L16.8896 397.52C17.2896 397.72 17.5896 397.92 17.9896 398.02C18.2896 398.12 18.6896 398.22 19.0896 398.22V399.92H17.0896V400.52H18.9896V402.22H18.0896C17.8896 402.22 17.7896 402.22 17.7896 402.12C17.6896 402.12 17.6896 402.02 17.6896 401.82C17.6896 401.62 17.6896 401.42 17.7896 401.12L17.0896 401.22C17.0896 401.52 17.0896 401.72 17.0896 401.92C17.0896 402.12 17.0896 402.32 17.1896 402.52C17.1896 402.62 17.2896 402.72 17.4896 402.82C17.5896 402.92 17.7896 402.92 17.9896 402.92H23.1896V397.72H20.1896C19.5896 397.62 19.1896 397.62 18.8896 397.52ZM20.6896 402.22H19.6896V400.52H20.6896V402.22ZM21.2896 398.22H22.3896V399.82H21.2896V398.22ZM21.2896 400.52H22.3896V402.22H21.2896V400.52ZM20.6896 399.92H19.6896V398.32H19.9896H20.7896V399.92H20.6896Z" fill="#CFD2D3"/>
<path d="M21.3908 404.821L21.5908 404.521L21.0908 404.121C20.6908 404.621 20.3908 405.121 20.0908 405.421L20.6908 405.821C20.6908 405.821 20.9908 405.521 21.3908 404.821Z" fill="#CFD2D3"/>
<path d="M23.2908 408.019H22.7908V406.319H22.2908V408.019H21.8908V406.519H21.4908V408.019H21.0908V406.019H20.5908V410.719H21.0908V408.619H21.4908V410.319H21.8908V408.619H22.2908V410.419H22.7908V408.619H23.2908V408.019Z" fill="#CFD2D3"/>
<path d="M22.1904 405.119C21.9904 405.319 21.8904 405.519 21.6904 405.719L22.1904 406.119C22.5904 405.619 22.9904 405.219 23.1904 404.919L22.6904 404.519C22.5904 404.719 22.3904 404.919 22.1904 405.119Z" fill="#CFD2D3"/>
<path d="M16.9892 405.119C17.3892 405.219 17.7892 405.319 18.1892 405.519C18.5892 405.719 19.0892 405.819 19.3892 405.919L19.5892 405.319C19.2892 405.219 18.8892 405.119 18.2892 404.919C17.7892 404.719 17.3892 404.619 17.0892 404.519L16.9892 405.119Z" fill="#CFD2D3"/>
<path d="M20.1892 406.519H16.9892V407.119H17.9892V409.519H17.7892C17.6892 409.519 17.5892 409.519 17.4892 409.419C17.3892 409.319 17.3892 409.319 17.3892 409.219C17.3892 409.019 17.3892 408.719 17.4892 408.519L16.9892 408.619C16.9892 408.919 16.9892 409.119 16.9892 409.419C16.9892 409.619 17.0892 409.819 17.1892 409.919C17.2892 410.019 17.4892 410.119 17.7892 410.119H20.2892V406.519H20.1892ZM18.8892 409.519H18.4892V407.119H18.8892V409.519V409.519ZM19.6892 409.519H19.3892V407.119H19.7892V409.519H19.6892Z" fill="#CFD2D3"/>
<path d="M22.39 418.021V416.021H23.39V415.421H22.39V413.621H21.79V415.421H20.89V413.721H20.29V417.721H20.89V416.021H21.79V418.021H22.39Z" fill="#CFD2D3"/>
<path d="M19.6896 413.92H16.8896V414.62H17.1896V416.92H16.8896V417.62H19.5896V413.92H19.6896ZM19.0896 416.82H17.8896V414.52H19.0896V416.82Z" fill="#CFD2D3"/>
<path d="M19.5892 412.72C19.4892 412.72 19.0892 412.52 18.3892 412.32C17.7892 412.02 17.3892 411.82 17.1892 411.82L16.9892 412.52C17.2892 412.62 17.6892 412.82 18.2892 413.02C18.8892 413.22 19.1892 413.42 19.3892 413.42L19.5892 412.72Z" fill="#CFD2D3"/>
<path d="M21.5892 412.021L21.0892 411.621C20.9892 411.821 20.7892 412.021 20.5892 412.221C20.3892 412.421 20.1892 412.721 19.9892 412.921L20.5892 413.321C20.7892 413.121 21.1892 412.621 21.5892 412.021Z" fill="#CFD2D3"/>
<path d="M21.8896 413.02L22.4896 413.42C22.6896 413.12 22.9896 412.72 23.2896 412.32L22.6896 411.82C22.4896 412.12 22.2896 412.52 21.8896 413.02Z" fill="#CFD2D3"/>
<path d="M19.6908 421.42H17.0908V422.02H19.6908V421.42Z" fill="#CFD2D3"/>
<path d="M22.6892 423.22H18.4892V423.82H22.6892V423.22Z" fill="#CFD2D3"/>
<path d="M18.4896 419.72C18.2896 419.62 18.0896 419.62 17.8896 419.42C17.6896 419.22 17.4896 419.12 17.2896 418.82L16.8896 419.32C17.0896 419.62 17.3896 419.82 17.5896 419.92C17.7896 420.02 17.9896 420.12 18.2896 420.22C18.5896 420.32 18.8896 420.32 19.3896 420.32H19.6896V419.82C19.5896 419.82 19.4896 419.82 19.3896 419.82C18.9896 419.82 18.6896 419.82 18.4896 419.72Z" fill="#CFD2D3"/>
<path d="M17.7908 424.32C17.6908 424.22 17.6908 424.12 17.6908 423.92C17.6908 423.72 17.6908 423.42 17.6908 423.22L17.0908 423.32C17.0908 423.52 17.0908 423.82 17.0908 424.12C17.0908 424.42 17.1908 424.72 17.2908 424.82C17.3908 424.92 17.6908 425.02 17.9908 425.02H23.2908V424.42H18.0908C17.8908 424.42 17.7908 424.42 17.7908 424.32Z" fill="#CFD2D3"/>
<path d="M22.5896 420.62V419.02H21.9896V421.52C21.6896 421.32 21.3896 421.12 21.1896 420.92C21.4896 420.42 21.6896 420.02 21.8896 419.62L21.3896 419.32C21.2896 419.42 21.2896 419.42 21.2896 419.52C21.0896 419.92 20.8896 420.22 20.7896 420.42C20.4896 420.02 20.1896 419.42 19.9896 418.82L19.3896 419.12C19.6896 419.92 20.0896 420.52 20.3896 421.02C20.0896 421.52 19.7896 422.02 19.4896 422.52L19.9896 422.82C20.1896 422.52 20.4896 422.02 20.7896 421.42C21.0896 421.72 21.4896 421.92 21.8896 422.12V422.62H22.4896V421.22C22.8896 421.12 23.0896 421.02 23.2896 420.92L23.1896 420.22C23.0896 420.52 22.7896 420.62 22.5896 420.62Z" fill="#CFD2D3"/>
<path d="M22.7892 426.52L22.1892 426.62C22.1892 426.92 22.2892 427.22 22.2892 427.62H21.4892V426.42H20.7892V427.52C20.4892 427.42 20.0892 427.22 19.6892 427.02C19.2892 426.82 18.9892 426.62 18.6892 426.32L18.0892 426.72C18.5892 427.12 19.1892 427.42 19.7892 427.72H16.9892V428.32H19.7892C19.4892 428.62 19.1892 428.82 18.8892 429.12L19.3892 429.52C19.7892 429.12 20.1892 428.72 20.4892 428.32H20.7892V429.42H21.3892V428.32H22.3892C22.4892 428.82 22.5892 429.12 22.5892 429.32L23.1892 429.12C23.0892 428.72 22.9892 428.32 22.8892 427.82C22.8892 427.42 22.7892 426.92 22.7892 426.52Z" fill="#CFD2D3"/>
<path d="M22.7904 429.72H17.1904V430.32H17.7904V431.72H17.1904V432.32H22.7904V429.72ZM22.1904 431.82H18.3904V430.42H22.1904V431.82V431.82Z" fill="#CFD2D3"/>
<path d="M23.3908 436.52H18.1908C17.9908 436.52 17.8908 436.52 17.7908 436.42C17.6908 436.32 17.6908 436.22 17.6908 436.12C17.6908 435.92 17.6908 435.62 17.7908 435.32L17.0908 435.42C17.0908 435.72 17.0908 436.02 17.0908 436.32C17.0908 436.62 17.1908 436.82 17.2908 437.02C17.3908 437.12 17.6908 437.22 17.9908 437.22H20.7908C20.1908 437.52 19.5908 437.82 19.0908 438.22C18.5908 438.62 18.0908 439.12 17.5908 439.72L18.1908 440.22C18.7908 439.32 19.4908 438.62 20.3908 438.12C20.7908 438.62 21.2908 439.22 21.8908 439.82L22.3908 439.32C22.1908 439.12 21.8908 438.92 21.6908 438.62C21.4908 438.32 21.1908 438.12 20.9908 437.82C21.3908 437.62 21.8908 437.42 22.3908 437.32H23.2908V436.52H23.3908Z" fill="#CFD2D3"/>
<path d="M19.4892 434.821C18.9892 434.521 18.4892 434.121 17.9892 433.621L17.4892 434.121C18.0892 434.721 18.6892 435.121 19.1892 435.421C19.7892 435.721 20.3892 435.921 20.9892 436.121H21.7892V433.821H21.0892V435.421C20.4892 435.321 19.9892 435.121 19.4892 434.821Z" fill="#CFD2D3"/>
<path d="M19.6892 442.02C19.3892 441.92 18.9892 441.82 18.3892 441.62C17.8892 441.42 17.4892 441.32 17.1892 441.22L16.9892 441.82C17.3892 441.92 17.7892 442.02 18.1892 442.22C18.5892 442.42 19.0892 442.52 19.3892 442.62L19.6892 442.02Z" fill="#CFD2D3"/>
<path d="M21.3908 441.62L21.5908 441.32L21.0908 440.92C20.6908 441.42 20.3908 441.92 20.0908 442.22L20.6908 442.62C20.6908 442.62 20.9908 442.22 21.3908 441.62Z" fill="#CFD2D3"/>
<path d="M23.2908 444.72H22.7908V443.02H22.2908V444.72H21.8908V443.22H21.4908V444.72H21.0908V442.82H20.5908V447.42H21.0908V445.32H21.4908V447.02H21.8908V445.32H22.2908V447.22H22.7908V445.32H23.2908V444.72Z" fill="#CFD2D3"/>
<path d="M23.1904 441.72L22.6904 441.32C22.5904 441.52 22.3904 441.72 22.1904 441.92C21.9904 442.12 21.8904 442.32 21.6904 442.52L22.1904 442.92C22.6904 442.32 22.9904 441.92 23.1904 441.72Z" fill="#CFD2D3"/>
<path d="M20.1892 443.32H16.9892V443.92H17.9892V446.32H17.7892C17.6892 446.32 17.5892 446.32 17.4892 446.22C17.3892 446.12 17.3892 446.12 17.3892 446.02C17.3892 445.82 17.3892 445.52 17.4892 445.32L16.9892 445.42C16.9892 445.72 16.9892 445.92 16.9892 446.22C16.9892 446.42 17.0892 446.62 17.1892 446.72C17.2892 446.82 17.4892 446.92 17.7892 446.92H20.2892V443.32H20.1892ZM18.8892 446.32H18.4892V443.82H18.8892V446.32V446.32ZM19.6892 446.32H19.3892V443.82H19.7892V446.32H19.6892Z" fill="#CFD2D3"/>
<path d="M16.9892 449.119C17.6892 449.419 18.4892 449.719 19.2892 449.919L19.4892 449.319C18.7892 449.119 17.9892 448.819 17.1892 448.519L16.9892 449.119Z" fill="#CFD2D3"/>
<path d="M22.1896 451.42C22.4896 451.52 22.6896 451.52 22.9896 451.62L23.0896 451.02C22.6896 450.92 22.2896 450.82 21.9896 450.72C21.6896 450.62 21.3896 450.52 20.9896 450.32L20.7896 450.82C20.9896 450.92 21.2896 451.02 21.5896 451.12V452.12H20.3896V450.12H19.7896V451.22C19.3896 451.22 18.9896 451.22 18.7896 451.12C18.4896 451.02 18.2896 450.92 18.0896 450.72C17.8896 450.52 17.6896 450.22 17.3896 449.82L16.8896 450.32C17.1896 450.72 17.3896 451.02 17.6896 451.22C17.9896 451.42 18.1896 451.62 18.5896 451.72C18.8896 451.82 19.3896 451.92 19.7896 451.92V452.62H17.7896C17.4896 452.62 17.2896 452.72 17.1896 452.82C17.0896 452.92 16.9896 453.12 16.9896 453.32C16.9896 453.52 16.9896 453.62 16.9896 453.72C16.9896 453.82 16.9896 453.92 16.9896 454.02C16.9896 454.22 17.0896 454.42 17.1896 454.52C17.2896 454.62 17.4896 454.62 17.6896 454.72C17.8896 454.72 18.1896 454.72 18.4896 454.72L18.5896 454.12C18.2896 454.12 18.0896 454.12 17.8896 454.12C17.7896 454.12 17.6896 454.12 17.5896 454.12C17.5896 454.12 17.4896 454.02 17.4896 453.92C17.4896 453.92 17.4896 453.82 17.4896 453.72C17.4896 453.62 17.4896 453.52 17.4896 453.52C17.4896 453.42 17.4896 453.32 17.5896 453.32C17.6896 453.32 17.6896 453.22 17.7896 453.22H19.7896V454.62H20.3896V452.82H21.4896V454.42H22.0896V452.82H23.2896V452.12H22.1896V451.42Z" fill="#CFD2D3"/>
<path d="M21.79 449.92L22.39 450.32C22.49 450.12 22.69 449.92 22.89 449.72C23.09 449.52 23.19 449.32 23.29 449.12L22.79 448.72C22.59 448.92 22.29 449.32 21.79 449.92Z" fill="#CFD2D3"/>
<path d="M21.0908 449.32C21.2908 449.02 21.3908 448.82 21.5908 448.72L21.0908 448.32C20.9908 448.52 20.7908 448.72 20.5908 449.02C20.3908 449.32 20.1908 449.52 20.0908 449.62L20.5908 450.02C20.7908 449.82 20.8908 449.62 21.0908 449.32Z" fill="#CFD2D3"/>
<path d="M22.6896 456.12H22.1896V458.62H21.5896V456.42H20.9896V458.62H20.4896V455.82H19.8896V458.12C19.5896 457.82 19.2896 457.52 19.0896 457.12C18.8896 456.72 18.5896 456.22 18.3896 455.72L17.7896 456.02C18.0896 456.62 18.2896 457.12 18.4896 457.42H17.7896C17.5896 457.42 17.4896 457.32 17.3896 457.12L16.8896 457.32C16.9896 457.42 16.9896 457.52 16.9896 457.62C17.1896 458.02 17.3896 458.62 17.5896 459.42L18.1896 459.32L17.7896 458.12H19.0896C19.2896 458.42 19.5896 458.72 19.8896 458.92C19.3896 459.12 18.9896 459.42 18.6896 459.62C18.3896 459.82 18.0896 460.12 17.8896 460.52C17.6896 460.92 17.3896 461.32 17.1896 461.92L17.7896 462.22C17.8896 461.82 17.9896 461.52 18.1896 461.22C18.3896 460.92 18.4896 460.72 18.5896 460.52C18.7896 460.92 19.0896 461.32 19.2896 461.62L19.7896 461.22C19.4896 460.92 19.2896 460.52 18.9896 460.02C19.1896 459.82 19.4896 459.62 19.8896 459.42V462.02H20.3896V459.22H20.9896V461.42H21.4896V459.22H22.0896V461.72H22.6896V459.22H23.2896V458.52H22.6896V456.12Z" fill="#CFD2D3"/>
<path d="M22.4892 465.821C22.1892 465.721 21.9892 465.621 21.7892 465.521V463.521H16.9892V464.121H17.3892V468.321H16.9892V468.921H21.7892V466.221C21.9892 466.321 22.2892 466.421 22.4892 466.521V469.321H23.0892V463.121H22.4892V465.821ZM17.9892 465.621H18.6892V466.921H17.9892V465.621ZM21.1892 468.421H17.9892V467.621H21.1892V468.421ZM19.1892 466.921V465.621H19.8892V466.921H19.1892ZM21.1892 466.921H20.4892V465.621H21.1892V466.921ZM21.1892 465.021H17.9892V464.221H21.1892V465.021Z" fill="#CFD2D3"/>
<path d="M537 756.4H535.2C534.9 756.4 534.6 756.7 534.6 757C534.6 757.3 534.9 757.6 535.2 757.6H537C537.3 757.6 537.6 757.3 537.6 757C537.6 756.6 537.3 756.4 537 756.4Z" fill="#CFD2D3"/>
<path d="M587.7 757.101H588.3V756.901H591.8V757.101H592.4V755.301H587.6V757.101H587.7ZM588.3 755.801H591.8V756.301H588.3V755.801Z" fill="#CFD2D3"/>
<path d="M627.501 732.801H211.901V733.801H627.501V732.801Z" fill="#CFD2D3"/>
<path d="M439.801 737.9L419.901 757.8H425.601L445.401 737.9H439.801Z" fill="#CFD2D3"/>
<path d="M451.102 737.9L431.302 757.8H436.902L456.802 737.9H451.102Z" fill="#CFD2D3"/>
<path d="M462.4 737.9L442.6 757.8H448.3L468.1 737.9H462.4Z" fill="#CFD2D3"/>
<path d="M473.801 737.9L453.901 757.8H459.601L479.401 737.9H473.801Z" fill="#CFD2D3"/>
<path d="M485.102 737.9L465.302 757.8H470.902L490.802 737.9H485.102Z" fill="#CFD2D3"/>
<path d="M496.5 737.9L476.6 757.8H482.3L502.1 737.9H496.5Z" fill="#CFD2D3"/>
<path d="M493.601 757.801L505.001 746.401V740.801L488.001 757.801H493.601Z" fill="#CFD2D3"/>
<path d="M505.002 757.802V752.102L499.302 757.802H505.002Z" fill="#CFD2D3"/>
<path d="M428.601 737.9L417.501 749V743.6L423.201 737.9H242.301C241.601 737.9 241.001 738.5 241.001 739.2V756.4C241.001 757.1 241.601 757.7 242.301 757.7H262.001H417.501V754.9V754.7L434.301 737.9H428.601ZM251.001 748C251.001 748.5 250.601 748.8 250.201 748.8H246.201V750.9H244.901V744.4H250.201C250.701 744.4 251.001 744.8 251.001 745.2V748ZM256.801 745.4H253.401C253.301 745.4 253.201 745.5 253.201 745.7V747.2H256.901V748.1H253.501C253.401 748.1 253.301 748.2 253.301 748.3V750H257.001V750.9H252.001V744.4H257.001V745.4H256.801ZM263.301 745.4H261.101V751H259.701V745.4H257.501V744.5H263.301V745.4ZM269.601 750.1C269.601 750.6 269.201 750.9 268.801 750.9H264.801C264.301 750.9 264.001 750.5 264.001 750.1V745.1C264.001 744.6 264.401 744.3 264.801 744.3H269.401V745.2H265.501C265.401 745.2 265.301 745.3 265.301 745.4V749.7C265.301 749.8 265.401 749.9 265.501 749.9H268.001C268.101 749.9 268.201 749.8 268.201 749.7V748H266.801V747H269.501V750.1H269.601ZM271.601 751H270.901L272.801 744.5H273.601L271.601 751ZM281.001 751H279.701V748.4H276.201V751H274.901V745.3C274.901 744.8 275.301 744.5 275.701 744.5H280.201C280.701 744.5 281.001 744.9 281.001 745.3V751ZM287.801 750.1C287.801 750.6 287.401 750.9 287.001 750.9H281.701V744.5H286.601C287.101 744.5 287.401 744.9 287.401 745.3V747.2C287.601 747.4 287.701 747.6 287.701 747.8V750.1H287.801ZM294.801 750.1C294.801 750.6 294.401 750.9 294.001 750.9H288.901V750H293.301C293.401 750 293.601 749.9 293.601 749.7V748.5C293.601 748.4 293.501 748.3 293.301 748.3H289.501C289.001 748.3 288.701 747.9 288.701 747.5V745.3C288.701 744.8 289.101 744.5 289.601 744.5H294.701V745.4H290.301C290.201 745.4 290.101 745.5 290.101 745.7V747.2C290.101 747.3 290.201 747.4 290.301 747.4H294.001C294.501 747.4 294.801 747.8 294.801 748.2V750.1ZM296.901 751H296.101L298.001 744.5H298.801L296.901 751ZM305.801 745.4H303.601V751H302.201V745.4H300.001V744.5H305.801V745.4ZM312.501 748C312.501 748.5 312.101 748.8 311.701 748.8H307.701V750.9H306.401V744.4H311.701C312.201 744.4 312.501 744.8 312.501 745.2V748ZM319.501 750.2C319.501 750.7 319.101 751.1 318.601 751.1H314.101C313.601 751.1 313.201 750.7 313.201 750.2V744.5H314.601V749.8C314.601 749.9 314.701 750 314.801 750H317.801C317.901 750 318.001 749.9 318.001 749.8V744.5H319.401V750.2H319.501ZM321.601 751H320.801L322.701 744.5H323.501L321.601 751ZM330.901 748C330.901 748.5 330.501 748.8 330.101 748.8H326.101V750.9H324.801V744.4H330.101C330.601 744.4 330.901 744.8 330.901 745.2V748ZM337.701 751H336.401V748.4H332.901V751H331.601V745.3C331.601 744.8 332.001 744.5 332.401 744.5H336.901C337.401 744.5 337.701 744.9 337.701 745.3V751ZM339.701 751H338.901L340.801 744.5H341.601L339.701 751ZM349.001 748C349.001 748.5 348.601 748.8 348.201 748.8H344.201V750.9H342.901V744.4H348.201C348.701 744.4 349.001 744.8 349.001 745.2V748ZM354.801 745.4H351.401C351.301 745.4 351.201 745.5 351.201 745.6V749.7C351.201 749.8 351.301 749.9 351.401 749.9H354.801V750.9H350.701C350.201 750.9 349.901 750.5 349.901 750.1V745.3C349.901 744.8 350.301 744.5 350.701 744.5H354.801V745.4ZM385.601 755.6H380.001V750.7L385.601 748.5V755.6ZM380.101 749.8V740H385.701V747.6L380.101 749.8ZM392.001 755.6H386.401V745.8L392.001 748V755.6ZM386.501 744.9V740H392.101V747.1L386.501 744.9ZM413.301 747.8V755.6H405.501H397.701V747.8V740H405.501H413.301V747.8Z" fill="#CFD2D3"/>
<path d="M544.3 743.901H547.2V743.201H543.7C543.3 743.201 543.1 743.501 543.1 743.801V747.601C543.1 748.001 543.4 748.201 543.7 748.201H546.7C547.1 748.201 547.3 747.901 547.3 747.601V745.201H545.2V745.901H546.3V747.301C546.3 747.401 546.2 747.501 546.1 747.501H544.2C544.1 747.501 544 747.401 544 747.301V744.001C544.1 744.001 544.2 743.901 544.3 743.901Z" fill="#CFD2D3"/>
<path d="M548.401 743.301V747.601C548.401 748.001 548.701 748.201 549.001 748.201H551.501V747.501H549.501C549.401 747.501 549.301 747.401 549.301 747.301V743.201H548.401V743.301Z" fill="#CFD2D3"/>
<path d="M556.201 747.401C556.201 747.501 556.101 747.601 556.001 747.601H553.701C553.601 747.601 553.501 747.501 553.501 747.401V743.301H552.501V747.601C552.501 748.001 552.801 748.201 553.101 748.201H556.501C556.901 748.201 557.101 747.901 557.101 747.601V743.301H556.101V747.401H556.201Z" fill="#CFD2D3"/>
<path d="M558.202 748.3H562.002V747.6H559.202V746.3C559.202 746.2 559.302 746.1 559.402 746.1H562.002V745.4H559.202V744.3C559.202 744.2 559.302 744.1 559.402 744.1H562.002V743.4H558.202V748.3Z" fill="#CFD2D3"/>
<path d="M566.701 744.001H570.001V743.301H566.101C565.701 743.301 565.401 743.601 565.401 743.901V745.501C565.401 745.801 565.701 746.101 566.001 746.101H568.901C569.001 746.101 569.101 746.201 569.101 746.301V747.201C569.101 747.301 569.001 747.401 568.901 747.401H565.601V748.101H569.501C569.901 748.101 570.101 747.801 570.101 747.501V746.001C570.101 745.601 569.801 745.401 569.501 745.401H566.601C566.501 745.401 566.401 745.301 566.401 745.201V744.101C566.601 744.101 566.601 744.001 566.701 744.001Z" fill="#CFD2D3"/>
<path d="M573.902 748.301V744.001H575.602V743.301H571.202V744.001H572.902V748.301H573.902Z" fill="#CFD2D3"/>
<path d="M577.6 743.301H576.6V748.301H577.6V743.301Z" fill="#CFD2D3"/>
<path d="M582.3 747.601H579.7C579.6 747.601 579.5 747.501 579.5 747.401V744.201C579.5 744.101 579.6 744.001 579.7 744.001H582.3V743.301H579.2C578.8 743.301 578.6 743.601 578.6 743.901V747.601C578.6 748.001 578.9 748.201 579.2 748.201H582.3V747.601Z" fill="#CFD2D3"/>
<path d="M586.702 745.701L587.602 743.301H586.602L585.802 745.301H584.302V743.301H583.302V748.301H584.302V746.001H585.802L586.702 748.301H587.702L586.702 745.701Z" fill="#CFD2D3"/>
<path d="M591.302 743.901V747.601C591.302 748.001 591.602 748.201 591.902 748.201H595.002V747.501H592.402C592.302 747.501 592.202 747.401 592.202 747.301V744.101C592.202 744.001 592.302 743.901 592.402 743.901H595.002V743.201H591.902C591.602 743.301 591.302 743.601 591.302 743.901Z" fill="#CFD2D3"/>
<path d="M600.1 743.301H596.7C596.3 743.301 596.1 743.601 596.1 743.901V748.201H597.1V746.201H599.8V748.201H600.8V743.901C600.7 743.601 600.4 743.301 600.1 743.301ZM599.7 745.601H597V744.201C597 744.101 597.1 744.001 597.2 744.001H599.5C599.6 744.001 599.7 744.101 599.7 744.201V745.601Z" fill="#CFD2D3"/>
<path d="M602.702 744.501L605.302 748.301H606.402V743.301H605.402V747.101L602.802 743.301H601.702V748.301H602.702V744.501Z" fill="#CFD2D3"/>
<path d="M609.901 743.301V748.301H610.901V746.101H613.201V748.301H614.201V743.301H613.201V745.401H610.901V743.301H609.901Z" fill="#CFD2D3"/>
<path d="M616.402 744.001H619.002V743.301H615.202V748.301H619.002V747.601H616.202V746.301C616.202 746.201 616.302 746.101 616.402 746.101H619.002V745.401H616.202V744.301C616.202 744.101 616.302 744.001 616.402 744.001Z" fill="#CFD2D3"/>
<path d="M620.901 747.401V743.301H619.901V747.601C619.901 748.001 620.201 748.201 620.501 748.201H623.001V747.501H621.001C621.001 747.601 620.901 747.501 620.901 747.401Z" fill="#CFD2D3"/>
<path d="M628.101 743.301H624.001V748.301H625.001V746.701H628.001C628.401 746.701 628.601 746.401 628.601 746.101V744.001C628.801 743.601 628.501 743.301 628.101 743.301ZM627.701 745.801C627.701 745.901 627.601 746.001 627.501 746.001H625.001V744.001H627.501C627.601 744.001 627.701 744.101 627.701 744.201V745.801Z" fill="#CFD2D3"/>
<path d="M601.901 747.501H600.901V748.301H601.901V747.501Z" fill="#CFD2D3"/>
<path d="M533.001 756.402H526.201L536.001 746.602C536.701 745.902 536.701 744.702 536.001 744.002L531.001 739.002C530.301 738.302 529.101 738.302 528.401 739.002L516.501 750.902C516.201 751.202 516.001 751.702 516.001 752.202C516.001 752.702 516.201 753.102 516.501 753.502L520.501 757.502H521.401H522.801H525.101H533.101C533.401 757.502 533.701 757.202 533.701 756.902C533.701 756.602 533.301 756.402 533.001 756.402ZM529.101 739.702C529.401 739.402 529.801 739.402 530.101 739.702L535.101 744.702C535.401 745.002 535.401 745.402 535.101 745.702L527.501 753.302L521.501 747.302L529.101 739.702ZM524.501 756.402H521.201H520.901L517.201 752.702C517.101 752.602 517.001 752.402 517.001 752.202C517.001 752.002 517.101 751.802 517.201 751.702L520.701 748.202L526.701 754.202L524.501 756.402Z" fill="#CFD2D3"/>
<path d="M545.501 752.701V752.601C545.601 752.401 545.601 752.301 545.701 752.101H548.801V751.501H545.901C545.901 751.401 546.001 751.101 546.101 750.801L545.401 750.701C545.401 750.801 545.301 751.101 545.201 751.501H543.301V752.101H545.001C544.901 752.301 544.901 752.501 544.701 752.901H542.901V753.501H544.501C544.401 753.801 544.201 754.101 544.101 754.301V754.801H547.501C547.101 755.201 546.701 755.601 546.301 755.901C545.301 755.501 544.501 755.301 544.001 755.101L543.801 755.701C544.401 755.901 545.101 756.101 545.901 756.401C546.701 756.701 547.401 757.001 548.001 757.201L548.301 756.601C548.001 756.501 547.601 756.301 547.001 756.101C547.601 755.601 548.001 755.201 548.401 754.701V754.101H544.901C545.001 753.901 545.101 753.701 545.201 753.401H549.101V752.801H545.401C545.401 752.801 545.401 752.701 545.501 752.701Z" fill="#CFD2D3"/>
<path d="M550.802 753.9C550.802 754.4 550.802 754.9 550.802 755.1C550.802 755.4 550.702 755.7 550.602 755.9C550.502 756.1 550.402 756.4 550.202 756.8L550.802 757.1C551.002 756.7 551.202 756.4 551.302 756C551.402 755.7 551.502 755.3 551.502 754.9H553.202V756.8H553.802V755H555.502V755.9C555.502 756.1 555.502 756.2 555.402 756.2C555.402 756.3 555.302 756.3 555.102 756.3C554.902 756.3 554.702 756.3 554.402 756.2L554.502 756.9C554.802 756.9 555.002 756.9 555.202 756.9C555.402 756.9 555.602 756.9 555.802 756.8C555.902 756.8 556.002 756.7 556.102 756.5C556.202 756.4 556.202 756.2 556.202 756V751H551.002V753.9H550.802ZM553.802 751.6H555.502V752.7H553.802V751.6ZM553.802 753.4H555.502V754.4H553.802V753.4ZM551.502 751.6H553.102V752.7H551.502V751.6ZM551.502 754.1V753.3H553.102V754.3H551.502V754.1Z" fill="#CFD2D3"/>
<path d="M563.201 753.802L562.601 753.602C562.401 754.102 562.201 754.602 562.001 754.902C561.801 754.602 561.601 754.102 561.401 753.602L560.801 753.802C561.001 754.402 561.301 755.002 561.601 755.402C561.201 755.802 560.701 756.202 560.001 756.502L560.401 757.102C561.101 756.802 561.601 756.402 562.001 755.902C562.401 756.302 563.001 756.702 563.601 757.002L564.001 756.402C563.301 756.102 562.801 755.802 562.401 755.402C562.701 755.002 562.901 754.502 563.201 753.802Z" fill="#CFD2D3"/>
<path d="M560.401 754.201C560.801 753.701 561.201 753.201 561.601 752.601L561.101 752.301C560.701 752.901 560.301 753.401 560.001 753.901L560.401 754.201Z" fill="#CFD2D3"/>
<path d="M557.901 753.7C557.901 754.3 557.901 754.8 557.901 755.2C557.901 755.6 557.801 755.9 557.701 756.1C557.601 756.3 557.501 756.6 557.401 756.9L558.001 757.2C558.201 756.9 558.301 756.6 558.401 756.2C558.501 755.8 558.501 755.4 558.601 754.9H559.401V756.1C559.401 756.2 559.401 756.3 559.401 756.4C559.401 756.5 559.301 756.5 559.201 756.5C559.001 756.5 558.901 756.5 558.701 756.5L558.801 757.1C559.001 757.1 559.201 757.1 559.301 757.1C559.601 757.1 559.701 757 559.801 756.9C559.901 756.8 560.001 756.6 560.001 756.3V751H558.001V753.7H557.901ZM558.501 751.7H559.301V752.7H558.501V751.7ZM558.501 754V753.3H559.301V754.3H558.501V754Z" fill="#CFD2D3"/>
<path d="M562.302 752.601C562.602 753.001 563.002 753.501 563.502 754.101L564.002 753.701C563.602 753.201 563.202 752.701 562.802 752.201L562.302 752.601Z" fill="#CFD2D3"/>
<path d="M563.702 751.502H562.302C562.202 751.102 562.002 750.802 562.002 750.602L561.402 750.802C561.502 751.102 561.602 751.302 561.702 751.602H560.202V752.202H563.702V751.502Z" fill="#CFD2D3"/>
<path d="M570.101 753.801H571.201V753.301H568.801C568.801 753.201 568.901 753.101 569.001 752.901H570.901V752.401H569.101C569.101 752.301 569.201 752.201 569.201 751.901H571.001V751.401H569.201L569.301 750.801H568.701C568.701 751.001 568.701 751.201 568.601 751.401H567.101V751.901H568.501L568.401 752.401H567.201V752.901H568.201C568.201 753.001 568.101 753.201 568.001 753.301H566.901V753.801H567.701C567.401 754.301 567.001 754.701 566.401 755.101L566.701 755.601C567.001 755.301 567.301 755.101 567.601 754.801V755.201H568.501V755.701H567.001V756.201H568.501V757.101H569.101V756.201H570.601V755.701H569.101V755.201H570.001V754.801C570.301 755.101 570.601 755.401 570.901 755.601L571.201 755.101C570.901 754.901 570.701 754.801 570.501 754.601C570.501 754.301 570.301 754.001 570.101 753.801ZM569.301 754.601V754.001H568.701V754.601H567.901C568.101 754.301 568.301 754.001 568.501 753.701H569.501C569.701 754.001 569.901 754.301 570.101 754.601H569.301Z" fill="#CFD2D3"/>
<path d="M566.802 754.501L567.102 754.001C566.802 753.601 566.502 753.301 566.302 753.001V752.601H567.002V752.001H566.302V750.701H565.702V752.001H564.902V752.601H565.602C565.502 753.001 565.302 753.401 565.202 753.801C565.002 754.201 564.902 754.601 564.702 754.901L565.002 755.601C565.202 755.201 565.502 754.701 565.702 754.201V757.101H566.302V753.901C566.502 754.101 566.602 754.301 566.702 754.401L566.802 754.501Z" fill="#CFD2D3"/>
<path d="M575.901 752.602H573.001V755.402H575.901V752.602ZM575.301 754.902H573.601V753.302H575.301V754.902Z" fill="#CFD2D3"/>
<path d="M572.302 751.7H577.102V755.8C577.102 756 577.102 756.2 577.002 756.3C576.902 756.4 576.802 756.4 576.602 756.4C576.302 756.4 576.002 756.4 575.602 756.3L575.702 756.9C576.002 756.9 576.302 756.9 576.602 756.9C576.902 756.9 577.102 756.9 577.302 756.8C577.502 756.7 577.602 756.6 577.602 756.5C577.602 756.4 577.702 756.1 577.702 755.9V751.6H578.602V751H572.302V751.7Z" fill="#CFD2D3"/>
<path d="M582.102 755.101L580.502 755.901V754.001H582.002V751.201H579.702V751.901H581.402V753.401H579.902V756.001C579.902 756.101 579.802 756.301 579.702 756.401L580.002 757.001C580.102 756.901 580.402 756.801 580.702 756.601C581.202 756.401 581.702 756.101 582.302 755.901L582.102 755.101Z" fill="#CFD2D3"/>
<path d="M585 754.002C585.2 753.502 585.3 753.002 585.3 752.402H585.8V751.702H583.6C583.7 751.402 583.8 751.102 583.9 750.702L583.2 750.602C583.1 751.002 583 751.502 582.7 752.002C582.5 752.502 582.2 752.902 582 753.302L582.4 753.802C582.5 753.602 582.6 753.502 582.7 753.402C582.9 754.002 583.1 754.602 583.5 755.202C583.1 755.702 582.4 756.102 581.6 756.602L582 757.202C582.8 756.702 583.4 756.302 583.9 755.802C584.3 756.302 584.9 756.802 585.5 757.202L585.9 756.602C585.2 756.202 584.7 755.802 584.3 755.302C584.7 754.802 584.9 754.402 585 754.002ZM583.3 752.602L583.4 752.302H584.7C584.6 752.802 584.6 753.202 584.4 753.602C584.3 754.002 584.1 754.302 583.9 754.602C583.6 754.102 583.4 753.402 583.3 752.602Z" fill="#CFD2D3"/>
<path d="M592.2 753.701H593.1V753.201H590.4V752.801H592.7V752.301H590.4V751.901H593V751.401H591.5C591.6 751.201 591.7 751.101 591.8 751.001L591.9 750.901L591.3 750.701C591.2 750.901 591 751.201 590.8 751.501H589.5C589.4 751.401 589.3 751.101 589.1 750.801L588.5 751.001C588.5 751.101 588.6 751.201 588.7 751.401C588.7 751.401 588.7 751.401 588.7 751.501C588.7 751.501 588.7 751.601 588.8 751.601H587.3V752.101H589.9V752.501H587.6V753.001H589.9V753.401H587.2V753.901H588.1C588.2 754.101 588.3 754.301 588.4 754.501H587.1V755.001H593.4V754.501H591.9C592 754.201 592.1 754.001 592.2 753.701ZM589.8 754.401H588.9L588.6 753.801H589.8V754.401ZM591.3 754.401H590.4V753.801H591.6C591.5 753.901 591.4 754.101 591.3 754.401Z" fill="#CFD2D3"/>
<path d="M598.9 750.701H598.2V753.701H597.1V757.101H597.7V756.701H599.6V757.101H600.2V753.701H598.9V752.401H600.6V751.801H598.9V750.701ZM599.6 754.301V756.001H597.7V754.301H599.6Z" fill="#CFD2D3"/>
<path d="M597.2 751.401L596.7 751.201C596.6 751.401 596.6 751.701 596.4 751.901C596.2 752.101 596.2 752.401 596.1 752.601L596.6 752.801C596.7 752.601 596.8 752.401 596.9 752.101C597 751.801 597.1 751.601 597.2 751.401Z" fill="#CFD2D3"/>
<path d="M594.802 751.201L594.302 751.401C594.402 751.601 594.502 751.801 594.602 752.101C594.702 752.401 594.802 752.601 594.802 752.801L595.302 752.601C595.202 752.401 595.202 752.101 595.102 751.801C594.902 751.601 594.902 751.301 594.802 751.201Z" fill="#CFD2D3"/>
<path d="M596 750.701H595.4V753.101H594.2V753.701H595.3C595.2 754.001 595 754.301 594.8 754.701C594.6 755.001 594.4 755.301 594.1 755.601L594.5 756.201C594.9 755.701 595.2 755.201 595.4 754.701V757.101H596V754.901C596.2 755.101 596.4 755.301 596.6 755.601L597 755.101C596.7 754.801 596.4 754.401 596 754.101V753.701H597V753.101H596V750.701Z" fill="#CFD2D3"/>
<path d="M603.6 753.401C603.4 753.501 603.2 753.501 603.1 753.601V752.501H603.7V751.901H603.1V750.701H602.5V751.901H601.7V752.501H602.5V753.801C602.2 753.901 601.9 754.001 601.6 754.101L601.7 754.701L602.5 754.401V756.001C602.5 756.101 602.5 756.201 602.4 756.201C602.4 756.201 602.3 756.301 602.2 756.301C602 756.301 601.8 756.301 601.7 756.301L601.8 756.901C602 756.901 602.2 756.901 602.4 756.901C602.6 756.901 602.7 756.901 602.8 756.801C602.9 756.801 603 756.701 603 756.601C603 756.501 603.1 756.301 603.1 756.101V754.101L603.6 753.901V753.401Z" fill="#CFD2D3"/>
<path d="M607.102 751.902H607.802V751.302H606.302C606.302 751.202 606.202 751.102 606.202 751.102C606.202 751.002 606.102 751.002 606.102 750.902C606.102 750.802 606.002 750.702 606.002 750.602L605.302 750.802C605.402 750.902 605.402 751.102 605.502 751.402H603.902V752.002H604.502L604.702 752.902H603.702V753.502H607.902V752.902H606.902L607.102 751.902ZM606.202 752.802H605.302L605.102 751.902H606.402C606.402 752.202 606.302 752.502 606.202 752.802Z" fill="#CFD2D3"/>
<path d="M605.701 753.6L605.101 753.5C605.101 753.6 605.001 753.9 604.801 754.1H603.601V754.7H604.501C604.301 755 604.201 755.2 604.001 755.4C604.501 755.6 604.901 755.8 605.301 755.9C604.901 756.1 604.301 756.3 603.501 756.4L603.701 757C604.201 756.9 604.701 756.8 605.001 756.6C605.401 756.5 605.701 756.3 605.901 756.1C606.401 756.3 606.901 756.6 607.501 756.9L607.801 756.3C607.401 756.1 607.001 755.9 606.401 755.6C606.701 755.3 606.901 754.9 607.101 754.5H607.801V753.9H605.301C605.601 753.9 605.601 753.8 605.701 753.6ZM606.601 754.7C606.401 755.1 606.201 755.4 606.001 755.6C605.601 755.4 605.201 755.3 605.001 755.2C605.101 755.1 605.201 754.9 605.301 754.7H606.601Z" fill="#CFD2D3"/>
<path d="M612.402 756.901H613.002V756.301H614.402V756.801H615.002V751.201H612.302V756.901H612.402ZM613.002 751.901H614.402V755.701H613.002V751.901Z" fill="#CFD2D3"/>
<path d="M610.902 753.501V753.201H612.002V752.601H610.902V751.601C611.402 751.501 611.702 751.401 611.902 751.401L611.702 750.801C611.302 750.901 610.902 751.001 610.402 751.101C609.902 751.201 609.402 751.301 609.002 751.301L609.102 751.901C609.402 751.901 609.702 751.801 610.102 751.801V752.601H608.902V753.201H610.002C609.902 753.501 609.702 753.901 609.502 754.301C609.302 754.701 609.102 755.001 608.802 755.301L609.202 755.901C609.602 755.401 609.902 754.801 610.202 754.201V757.101H610.802V754.301C611.102 754.601 611.302 754.901 611.602 755.201L612.002 754.701C611.702 754.301 611.302 753.901 610.902 753.501Z" fill="#CFD2D3"/>
<path d="M620.402 751.702C620.302 751.502 620.202 751.302 620.102 751.102C620.002 750.902 619.902 750.802 619.802 750.602L619.302 750.902C619.402 751.002 619.402 751.102 619.602 751.302C619.702 751.502 619.802 751.702 619.902 751.902L620.402 751.702Z" fill="#CFD2D3"/>
<path d="M616.702 753.601C616.702 754.201 616.702 754.701 616.702 755.101C616.702 755.501 616.602 755.701 616.602 756.001C616.502 756.201 616.402 756.501 616.302 756.801L616.802 757.101C617.002 756.801 617.102 756.401 617.202 756.101C617.302 755.801 617.302 755.401 617.402 754.901H618.102V756.101C618.102 756.201 618.102 756.301 618.002 756.401C618.002 756.401 617.902 756.501 617.802 756.501C617.702 756.501 617.602 756.501 617.402 756.501L617.502 757.101C617.702 757.101 617.902 757.101 618.002 757.101C618.202 757.101 618.402 757.001 618.502 756.901C618.602 756.801 618.602 756.601 618.602 756.401V751.201H616.702V753.601ZM617.302 751.701H618.002V752.701H617.302V751.701ZM617.302 753.301H618.002V754.301H617.302V753.301Z" fill="#CFD2D3"/>
<path d="M622.202 755.602C622.202 755.802 622.202 756.002 622.202 756.002C622.202 756.102 622.202 756.202 622.202 756.302C622.202 756.402 622.102 756.402 622.002 756.402H621.902H621.802C621.702 756.402 621.702 756.402 621.602 756.302C621.602 756.202 621.602 756.202 621.602 756.002V754.402H622.402V752.002H621.602C621.802 751.702 621.902 751.402 622.002 751.202L622.202 750.902L621.602 750.602C621.502 750.802 621.402 751.002 621.302 751.202C621.202 751.502 621.002 751.702 620.902 751.902H619.202V754.402H619.802C619.802 754.802 619.802 755.102 619.702 755.302C619.602 755.502 619.502 755.802 619.402 755.902C619.202 756.102 619.002 756.302 618.802 756.402L619.202 756.902C619.502 756.702 619.702 756.402 619.902 756.202C620.102 756.002 620.202 755.702 620.302 755.402C620.402 755.102 620.402 754.702 620.402 754.302H621.002V756.002C621.002 756.302 621.002 756.402 621.102 756.602C621.202 756.702 621.302 756.802 621.502 756.802C621.602 756.802 621.702 756.802 621.802 756.802C621.902 756.802 622.002 756.802 622.102 756.802C622.302 756.802 622.502 756.702 622.602 756.602C622.702 756.502 622.802 756.302 622.802 756.102C622.802 756.002 622.802 755.802 622.802 755.602C622.802 755.402 622.802 755.302 622.802 755.202V755.002L622.202 754.902C622.202 755.302 622.202 755.402 622.202 755.602ZM619.702 753.902V752.602H621.602V753.902H619.702Z" fill="#CFD2D3"/>
<path d="M628.402 755.6H630.002V755H628.202V754.7H629.602V752.5H626.202V754.7H627.602C627.602 754.9 627.602 755 627.602 755V755.1H625.802V755.6H627.402C627.302 755.8 627.102 756 626.802 756.1C626.502 756.3 626.102 756.4 625.702 756.5L625.902 757.1C626.902 756.8 627.602 756.4 627.902 755.9C628.302 756.5 629.002 756.9 629.902 757.1L630.102 756.5C629.702 756.4 629.302 756.3 629.002 756.1C628.802 756 628.502 755.8 628.402 755.6ZM626.802 752.9H629.102V753.3H626.802V752.9ZM626.802 754.1V753.7H629.102V754.1H626.802Z" fill="#CFD2D3"/>
<path d="M628.401 750.701V751.301H627.401V750.701H626.801V751.301H625.901V751.801H626.801V752.201H627.401V751.801H628.401V752.201H629.001V751.801H630.001V751.301H629.001V750.701H628.401Z" fill="#CFD2D3"/>
<path d="M625.4 753.201L625.2 752.901V752.501H625.9V752.001H625.2V750.701H624.6V752.001H623.8V752.601H624.6C624.5 753.001 624.3 753.401 624.2 753.801C624 754.201 623.8 754.601 623.6 754.901L624 755.501C624.3 755.101 624.5 754.601 624.7 753.901V757.101H625.3V753.801C625.6 754.201 625.7 754.401 625.8 754.501L626.1 753.901L625.4 753.201Z" fill="#CFD2D3"/>
<path d="M329.3 745.4H326.1V747.9H329.4C329.5 747.9 329.6 747.8 329.6 747.7V745.6C329.5 745.5 329.4 745.4 329.3 745.4Z" fill="#CFD2D3"/>
<path d="M336.101 745.4H333.101C333.001 745.4 332.901 745.5 332.901 745.7V747.5H336.401V745.7C336.301 745.5 336.201 745.4 336.101 745.4Z" fill="#CFD2D3"/>
<path d="M286.2 747.102V745.802C286.2 745.702 286.1 745.602 286 745.602H283.1V747.402H286C286.1 747.302 286.2 747.202 286.2 747.102Z" fill="#CFD2D3"/>
<path d="M347.402 745.4H344.202V747.9H347.502C347.602 747.9 347.702 747.8 347.702 747.7V745.6C347.702 745.5 347.602 745.4 347.402 745.4Z" fill="#CFD2D3"/>
<path d="M286.3 748.201H283.1V750.001H286.3C286.4 750.001 286.5 749.901 286.5 749.801V748.501C286.5 748.301 286.4 748.201 286.3 748.201Z" fill="#CFD2D3"/>
<path d="M311.002 745.4H307.802V747.9H311.102C311.202 747.9 311.302 747.8 311.302 747.7V745.6C311.202 745.5 311.102 745.4 311.002 745.4Z" fill="#CFD2D3"/>
<path d="M279.402 745.4H276.402C276.302 745.4 276.202 745.5 276.202 745.7V747.5H279.702V745.7C279.602 745.5 279.502 745.4 279.402 745.4Z" fill="#CFD2D3"/>
<path d="M249.402 745.4H246.202V747.9H249.502C249.602 747.9 249.702 747.8 249.702 747.7V745.6C249.702 745.5 249.602 745.4 249.402 745.4Z" fill="#CFD2D3"/>
<path d="M400.302 745.201V749.101V753.001H401.602H402.902V750.401V747.801H405.502H408.102V749.101V750.401H409.402H410.702V747.801V745.201H405.502H400.302Z" fill="#CFD2D3"/>
<path d="M405.501 750.4V751.7V753H406.801H408.101V751.7V750.4H406.801H405.501Z" fill="#CFD2D3"/>
</svg>
