<svg width="732" height="760" viewBox="0 0 732 760" fill="none" xmlns="http://www.w3.org/2000/svg">
<g clip-path="url(#clip0_8331_33191)">
<rect x="14" y="48" width="25.0312" height="562.145" fill="#535656"/>
<path d="M37.479 162.318V179.088C37.479 180.388 36.439 181.298 35.269 181.298H19.669C18.369 181.298 17.459 180.258 17.459 179.088V162.318H37.479ZM35.399 176.618V165.698H19.539V176.618C19.539 177.268 20.059 177.918 20.839 177.918H34.229C34.879 177.918 35.399 177.398 35.399 176.618Z" fill="#CFD2D3"/>
<path d="M17.459 199.108V185.978C17.459 184.808 18.499 183.768 19.669 183.768H32.669V187.018H19.149V195.858H32.669V199.108H17.459Z" fill="#CFD2D3"/>
<path d="M24.219 201.318C25.519 201.318 26.559 202.358 26.559 203.658V213.928H30.979V202.748H32.669V213.928C32.669 215.748 31.499 217.308 30.069 217.308H17.459V203.658C17.459 202.358 18.499 201.318 19.799 201.318H24.219ZM24.739 204.698H19.149V213.928H24.739V204.698Z" fill="#CFD2D3"/>
<path d="M19.8001 219.648H37.7401V223.028H19.1501V227.448H17.3301V221.988C17.4601 220.688 18.5001 219.648 19.8001 219.648Z" fill="#CFD2D3"/>
<path d="M29.1605 231.348V237.848H27.7305V231.348H29.1605Z" fill="#CFD2D3"/>
<path d="M25.9098 260.209H19.7998C18.4998 260.209 17.5898 259.169 17.5898 257.999V242.009H19.5398V255.659C19.5398 256.309 20.1898 256.959 20.9698 256.959H24.8698C25.5198 256.959 26.1698 256.439 26.1698 255.659V243.569C26.1698 242.399 27.2098 241.359 28.3798 241.359H35.3998C36.5698 241.359 37.6098 242.399 37.6098 243.699V259.689H35.5298V245.909C35.5298 245.259 35.0098 244.609 34.2298 244.609H29.4198C28.7698 244.609 28.1198 245.129 28.1198 245.909V257.999C28.1198 259.169 27.0798 260.209 25.9098 260.209Z" fill="#CFD2D3"/>
<path d="M32.539 262.678V266.058H17.459V262.678H32.539ZM37.479 262.678V266.058H35.789V262.678H37.479Z" fill="#CFD2D3"/>
<path d="M30.199 268.398C31.499 268.398 32.539 269.438 32.539 270.738V281.008H37.479V284.388H17.459V270.868C17.459 269.568 18.499 268.528 19.799 268.528H30.199V268.398ZM30.849 280.878V271.778H19.149V280.878H30.849Z" fill="#CFD2D3"/>
<path d="M30.329 286.727C31.629 286.727 32.669 287.767 32.669 289.067V300.377C32.669 301.677 31.629 302.717 30.329 302.717H23.699V290.107H19.149V302.457H17.459V289.067C17.459 287.767 18.499 286.727 19.799 286.727H30.329ZM30.979 290.107H25.389V299.337H30.979V290.107Z" fill="#CFD2D3"/>
<path d="M30.199 305.189C31.499 305.189 32.539 306.229 32.539 307.529V317.799H37.479V321.179H17.459V307.659C17.459 306.359 18.499 305.319 19.799 305.319H30.199V305.189ZM30.849 317.669V308.569H19.149V317.669H30.849Z" fill="#CFD2D3"/>
<path d="M17.459 339.638H35.399V332.488H37.479V350.168H35.399V343.018H17.459V339.638Z" fill="#CFD2D3"/>
<path d="M30.329 351.988C31.629 351.988 32.669 353.028 32.669 354.328V365.638C32.669 366.938 31.629 367.978 30.329 367.978H23.699V355.368H19.149V367.718H17.459V354.328C17.459 353.028 18.499 351.988 19.799 351.988H30.329ZM30.979 355.498H25.389V364.728H30.979V355.498Z" fill="#CFD2D3"/>
<path d="M17.459 382.017L22.659 377.987L17.459 373.957V370.447L24.869 376.167L24.999 376.297L32.669 370.447V373.957L27.339 377.987L32.669 382.017V385.527L25.259 379.807L25.129 379.677L17.589 385.527V382.017H17.459Z" fill="#CFD2D3"/>
<path d="M19.149 395.668V397.488H17.459V393.068C17.459 391.768 18.499 390.728 19.799 390.728H30.849V387.348H32.539V390.728H37.479V394.108H32.539V397.488H30.849V394.108H20.709C19.799 394.238 19.149 394.888 19.149 395.668Z" fill="#CFD2D3"/>
<path d="M17.459 415.167V401.907C17.459 400.737 18.499 399.697 19.669 399.697H32.669V402.947H19.149V411.787H32.669V415.037H17.459V415.167Z" fill="#CFD2D3"/>
<path d="M32.409 424.788V427.388H29.159V420.498H17.459V417.248H32.409V420.498H29.159L30.719 421.538C31.759 422.318 32.409 423.488 32.409 424.788Z" fill="#CFD2D3"/>
<path d="M30.329 429.469C31.629 429.469 32.669 430.509 32.669 431.809V443.119C32.669 444.419 31.629 445.459 30.329 445.459H23.699V432.849H19.149V445.199H17.459V431.809C17.459 430.509 18.499 429.469 19.799 429.469H30.329ZM30.979 432.979H25.389V442.209H30.979V432.979Z" fill="#CFD2D3"/>
<path d="M30.199 447.928C31.499 447.928 32.539 448.968 32.539 450.268V460.538H37.479V463.918H17.459V450.268C17.459 448.968 18.499 447.928 19.799 447.928H30.199ZM30.849 460.408V451.308H19.149V460.408H30.849Z" fill="#CFD2D3"/>
<path d="M37.479 475.357V491.997C37.479 493.297 36.439 494.207 35.269 494.207H26.429C25.129 494.207 24.219 493.167 24.219 491.997V478.607H17.459V475.227H37.479V475.357ZM27.599 490.957H34.229C34.879 490.957 35.529 490.437 35.529 489.657V478.737H26.429V489.657C26.299 490.307 26.819 490.957 27.599 490.957Z" fill="#CFD2D3"/>
<path d="M37.479 496.678V511.758H35.399V501.228C35.399 500.578 34.879 499.928 34.099 499.928H28.769V511.628H26.689V501.098C26.689 500.448 26.169 499.798 25.389 499.798H19.539V511.498H17.459V496.418H37.479V496.678Z" fill="#CFD2D3"/>
<path d="M37.479 514.877V518.257H17.459V514.877H37.479Z" fill="#CFD2D3"/>
<path d="M37.479 529.828V546.468C37.479 547.768 36.439 548.678 35.269 548.678H26.429C25.129 548.678 24.219 547.638 24.219 546.468V533.208H17.459V529.828H37.479ZM27.599 545.428H34.229C34.879 545.428 35.529 544.908 35.529 544.128V533.208H26.429V544.128C26.299 544.778 26.819 545.428 27.599 545.428Z" fill="#CFD2D3"/>
<path d="M19.8001 551.148H37.7401V554.528H19.1501V558.948H17.3301V553.488C17.4601 552.188 18.5001 551.148 19.8001 551.148Z" fill="#CFD2D3"/>
<path d="M24.219 561.418C25.519 561.418 26.559 562.458 26.559 563.758V574.028H30.979V562.848H32.669V574.028C32.669 575.848 31.499 577.408 30.069 577.408H17.459V563.758C17.459 562.458 18.499 561.418 19.799 561.418H24.219ZM24.739 564.798H19.149V574.028H24.739V564.798Z" fill="#CFD2D3"/>
<path d="M19.149 587.808V589.628H17.459V585.208C17.459 583.908 18.499 582.868 19.799 582.868H30.849V579.488H32.539V582.868H37.479V586.248H32.539V589.628H30.849V586.248H20.709C19.799 586.248 19.149 586.898 19.149 587.808Z" fill="#CFD2D3"/>
<path d="M30.329 591.709C31.629 591.709 32.669 592.749 32.669 594.049V605.359C32.669 606.659 31.629 607.699 30.329 607.699H23.699V595.089H19.149V607.439H17.459V594.049C17.459 592.749 18.499 591.709 19.799 591.709H30.329ZM30.979 595.219H25.389V604.449H30.979V595.219Z" fill="#CFD2D3"/>
<path d="M37.4792 51.3008V66.7708C37.4792 68.2008 36.3092 69.3708 34.8792 69.3708H28.8992L28.7692 69.5008C28.2492 70.1508 27.4692 70.4108 26.6892 70.4108H19.7992C18.3692 70.4108 17.1992 69.2408 17.1992 67.8108V51.3008H37.4792ZM25.9092 65.6008V55.4608H20.1892V65.6008C20.1892 65.9908 20.5792 66.3808 20.9692 66.3808H25.1292C25.6492 66.3808 25.9092 65.9908 25.9092 65.6008ZM28.8992 64.4308C28.8992 64.8208 29.2892 65.2108 29.6792 65.2108H33.8392C34.2292 65.2108 34.6192 64.8208 34.6192 64.4308V55.4608H28.8992V64.4308Z" fill="#CFD2D3"/>
<path d="M24.3481 72.8809C25.7781 72.8809 27.0781 74.0509 27.0781 75.6109V85.1009H30.4581V74.1809H33.0581V85.6209C33.0581 87.7009 31.7581 89.3909 30.0681 89.3909H17.3281V75.6109C17.3281 74.1809 18.4981 72.8809 20.0581 72.8809H24.3481ZM24.3481 85.1009V77.1709H19.9281V85.1009H24.3481Z" fill="#CFD2D3"/>
<path d="M30.3281 114.09H17.3281V109.8H30.4581V104.99H17.3281V100.83H30.4581V96.0205H17.3281V91.7305H33.0581V111.36C33.0581 112.92 31.7581 114.09 30.3281 114.09Z" fill="#CFD2D3"/>
<path d="M37.8681 116.301V120.591H33.0581V130.081C33.0581 131.641 31.8881 132.811 30.3281 132.811H20.0581C18.6281 132.811 17.3281 131.641 17.3281 130.081V116.301H37.8681ZM30.4581 128.521V120.591H19.9281V128.521H30.4581Z" fill="#CFD2D3"/>
<path d="M33.0581 150.753H17.3281V137.493C17.3281 136.063 18.4981 134.893 19.9281 134.893H33.0581V139.053H19.7981V146.853H33.0581V150.753Z" fill="#CFD2D3"/>
<path d="M629.2 729.6H213.6V730.6H629.2V729.6Z" fill="#CFD2D3"/>
<path d="M439.599 734.699L419.799 754.599H425.499L445.299 734.699H439.599Z" fill="#CFD2D3"/>
<path d="M451 734.699L431.1 754.599H436.8L456.6 734.699H451Z" fill="#CFD2D3"/>
<path d="M462.3 734.699L442.5 754.599H448.2L468 734.699H462.3Z" fill="#CFD2D3"/>
<path d="M473.699 734.699L453.799 754.599H459.499L479.299 734.699H473.699Z" fill="#CFD2D3"/>
<path d="M484.999 734.699L465.199 754.599H470.799L490.699 734.699H484.999Z" fill="#CFD2D3"/>
<path d="M496.3 734.699L476.5 754.599H482.2L502 734.699H496.3Z" fill="#CFD2D3"/>
<path d="M507.699 734.699L487.799 754.599H493.499L513.399 734.699H507.699Z" fill="#CFD2D3"/>
<path d="M518.999 734.699L499.199 754.599H504.899L524.699 734.699H518.999Z" fill="#CFD2D3"/>
<path d="M530.4 734.699L510.5 754.599H516.2L536 734.699H530.4Z" fill="#CFD2D3"/>
<path d="M541.7 734.699L521.9 754.599H527.5L547.4 734.699H541.7Z" fill="#CFD2D3"/>
<path d="M552.999 734.699L533.199 754.599H538.899L558.699 734.699H552.999Z" fill="#CFD2D3"/>
<path d="M564.4 734.699L544.5 754.599H550.2L570.1 734.699H564.4Z" fill="#CFD2D3"/>
<path d="M575.7 734.699L555.9 754.599H561.6L581.4 734.799L575.7 734.699Z" fill="#CFD2D3"/>
<path d="M587.099 734.799L567.199 754.599H572.899L592.699 734.799H587.099Z" fill="#CFD2D3"/>
<path d="M598.4 734.799L578.6 754.599H584.2L604.1 734.799H598.4Z" fill="#CFD2D3"/>
<path d="M609.7 734.799L589.9 754.599H595.6L615.4 734.799H609.7Z" fill="#CFD2D3"/>
<path d="M621.099 734.799L601.299 754.599H606.899L626.799 734.799H621.099Z" fill="#CFD2D3"/>
<path d="M618.3 754.6L629.2 743.7V738L612.6 754.6H618.3Z" fill="#CFD2D3"/>
<path d="M629.1 754.6L629.2 754.5V748.9L623.4 754.6H629.1Z" fill="#CFD2D3"/>
<path d="M337.9 745.199H333.6V747.599H337.9C338.1 747.599 338.2 747.499 338.2 747.299V745.499C338.3 745.299 338.1 745.199 337.9 745.199Z" fill="#CFD2D3"/>
<path d="M266.2 739.5H264.9H263.6V742.1V744.7H264.9H266.2V742.1V739.5Z" fill="#CFD2D3"/>
<path d="M268.799 745.999V744.699H267.499H266.199V747.299V749.899H268.799H271.399V748.599V747.299H270.099H268.799V745.999Z" fill="#CFD2D3"/>
<path d="M428.299 734.699L417.199 745.799V740.399L422.899 734.699H239.499C238.799 734.699 238.199 735.299 238.199 735.999V753.199C238.199 753.899 238.799 754.499 239.499 754.499H269.399H397.199H402.899H408.599H414.299H417.399V751.699V751.499L434.199 734.699H428.299ZM248.899 752.499H243.299V747.599L248.899 745.399V752.499ZM243.399 746.599V736.799H248.999V744.399L243.399 746.599ZM255.399 752.499H249.799V742.699L255.399 744.899V752.499ZM249.799 741.799V736.899H255.399V743.999L249.799 741.799ZM276.599 744.699V752.499H268.799H260.999V744.699V736.899H268.799H276.599V744.699ZM298.699 744.899C298.699 745.499 298.199 745.999 297.599 745.999H292.199V748.799H290.399V739.999H297.599C298.199 739.999 298.699 740.499 298.699 741.099V744.899ZM305.299 748.899H300.799C300.199 748.899 299.699 748.399 299.699 747.799V740.199H301.499V747.399C301.499 747.599 301.599 747.699 301.799 747.699H305.299V748.899ZM314.699 748.899H312.899V745.399H308.199V748.899H306.399V741.199C306.399 740.599 306.899 740.099 307.499 740.099H313.599C314.199 740.099 314.699 740.599 314.699 741.199V748.899ZM317.699 748.899H316.599L319.099 740.099H320.199L317.699 748.899ZM330.499 748.899H328.699V745.399H323.999V748.899H322.199V741.199C322.199 740.599 322.699 740.099 323.299 740.099H329.399C329.999 740.099 330.499 740.599 330.499 741.199V748.899ZM339.999 747.699C339.999 748.299 339.499 748.799 338.899 748.799H331.799V740.099H338.399C338.999 740.099 339.499 740.599 339.499 741.199V743.799L339.599 743.899C339.899 744.099 339.999 744.399 339.999 744.799V747.699ZM349.699 747.699C349.699 748.299 349.199 748.799 348.599 748.799H341.699V747.499H347.599C347.799 747.499 347.899 747.299 347.899 747.099V745.499C347.899 745.299 347.699 745.199 347.499 745.199H342.399C341.799 745.199 341.299 744.699 341.299 744.099V741.199C341.299 740.599 341.799 740.099 342.499 740.099H349.399V741.399H343.499C343.299 741.399 343.199 741.599 343.199 741.699V743.699C343.199 743.899 343.299 743.999 343.499 743.999H348.499C349.099 743.999 349.599 744.499 349.599 745.099V747.699H349.699ZM352.699 748.899H351.599L354.099 740.099H355.199L352.699 748.899ZM364.899 741.399H361.899V748.899H360.099V741.399H357.099V740.099H364.899V741.399ZM374.299 744.899C374.299 745.499 373.799 745.999 373.199 745.999H367.799V748.799H365.999V739.999H373.199C373.799 739.999 374.299 740.499 374.299 741.099V744.899ZM383.899 747.799C383.899 748.399 383.399 748.899 382.799 748.899H376.699C376.099 748.899 375.599 748.399 375.599 747.799V740.199H377.399V747.399C377.399 747.599 377.499 747.699 377.699 747.699H381.799C381.999 747.699 382.099 747.599 382.099 747.399V740.199H383.899V747.799ZM386.899 748.899H385.799L388.299 740.099H389.399L386.899 748.899ZM399.799 744.899C399.799 745.499 399.299 745.999 398.699 745.999H393.299V748.799H391.499V739.999H398.699C399.299 739.999 399.799 740.499 399.799 741.099V744.899ZM407.699 741.399H403.099C402.899 741.399 402.799 741.499 402.799 741.699V747.299C402.799 747.499 402.899 747.599 403.099 747.599H407.699V748.899H402.099C401.499 748.899 400.999 748.399 400.999 747.799V741.299C400.999 740.699 401.499 740.199 402.099 740.199H407.699V741.399Z" fill="#CFD2D3"/>
<path d="M274 744.7V742.1V739.5H272.7H271.4V742.1V744.7H272.7H274Z" fill="#CFD2D3"/>
<path d="M337.799 743.6V741.8C337.799 741.6 337.599 741.5 337.499 741.5H333.699V744H337.499C337.599 743.9 337.799 743.8 337.799 743.6Z" fill="#CFD2D3"/>
<path d="M312.599 741.4H308.499C308.299 741.4 308.199 741.6 308.199 741.7V744.1H312.899V741.7C312.899 741.5 312.799 741.4 312.599 741.4Z" fill="#CFD2D3"/>
<path d="M328.4 741.4H324.3C324.1 741.4 324 741.6 324 741.7V744.1H328.7V741.7C328.7 741.5 328.6 741.4 328.4 741.4Z" fill="#CFD2D3"/>
<path d="M397.599 741.4H393.199V744.8H397.599C397.799 744.8 397.899 744.7 397.899 744.5V741.7C397.899 741.5 397.799 741.4 397.599 741.4Z" fill="#CFD2D3"/>
<path d="M372.199 741.4H367.799V744.8H372.199C372.399 744.8 372.499 744.7 372.499 744.5V741.7C372.499 741.5 372.299 741.4 372.199 741.4Z" fill="#CFD2D3"/>
<path d="M296.5 741.4H292.1V744.8H296.5C296.7 744.8 296.8 744.7 296.8 744.5V741.7C296.9 741.5 296.7 741.4 296.5 741.4Z" fill="#CFD2D3"/>
</g>
<defs>
<clipPath id="clip0_8331_33191">
<rect width="731.3" height="759.7" fill="white"/>
</clipPath>
</defs>
</svg>
