<svg width="732" height="760" viewBox="0 0 732 760" fill="none" xmlns="http://www.w3.org/2000/svg">
<g clip-path="url(#clip0_4523_22675)">
<path d="M391.699 733.699L371.799 753.499H377.499L397.299 733.699H391.699Z" fill="#CFD2D3"/>
<path d="M402.898 733.699L383.098 753.499H388.698L408.598 733.699H402.898Z" fill="#CFD2D3"/>
<path d="M414.198 733.699L394.398 753.499H400.098L419.898 733.699H414.198Z" fill="#CFD2D3"/>
<path d="M425.599 733.699L405.699 753.499H411.399L431.199 733.699H425.599Z" fill="#CFD2D3"/>
<path d="M436.898 733.699L417.098 753.499H422.698L442.598 733.699H436.898Z" fill="#CFD2D3"/>
<path d="M448.298 733.699L428.398 753.499H434.098L453.898 733.699H448.298Z" fill="#CFD2D3"/>
<path d="M459.599 733.699L439.799 753.499H445.399L465.299 733.699H459.599Z" fill="#CFD2D3"/>
<path d="M470.898 733.699L451.098 753.499H456.698L476.598 733.699H470.898Z" fill="#CFD2D3"/>
<path d="M482.298 733.699L462.398 753.499H468.098L487.898 733.699H482.298Z" fill="#CFD2D3"/>
<path d="M493.599 733.699L473.699 753.499H479.399L499.299 733.699H493.599Z" fill="#CFD2D3"/>
<path d="M277.998 733.699L258.098 753.499H263.798L283.698 733.699H277.998Z" fill="#CFD2D3"/>
<path d="M289.198 733.699L269.398 753.499H274.998L294.898 733.699H289.198Z" fill="#CFD2D3"/>
<path d="M300.599 733.699L280.699 753.499H286.399L306.199 733.699H300.599Z" fill="#CFD2D3"/>
<path d="M311.898 733.699L292.098 753.499H297.698L317.598 733.699H311.898Z" fill="#CFD2D3"/>
<path d="M323.198 733.699L303.398 753.499H309.098L328.898 733.699H323.198Z" fill="#CFD2D3"/>
<path d="M334.599 733.699L314.699 753.499H320.399L340.199 733.699H334.599Z" fill="#CFD2D3"/>
<path d="M345.898 733.699L326.098 753.499H331.698L351.598 733.699H345.898Z" fill="#CFD2D3"/>
<path d="M357.198 733.699L337.398 753.499H343.098L362.898 733.699H357.198Z" fill="#CFD2D3"/>
<path d="M368.599 733.699L348.699 753.499H354.399L374.199 733.699H368.599Z" fill="#CFD2D3"/>
<path d="M379.898 733.699L360.098 753.499H365.698L385.598 733.699H379.898Z" fill="#CFD2D3"/>
<path d="M490.798 753.5L502.098 742.2V736.5L485.098 753.5H490.798Z" fill="#CFD2D3"/>
<path d="M502.098 753.5V747.9L496.398 753.5H502.098Z" fill="#CFD2D3"/>
<path d="M265.198 733.699L253.898 744.999V750.699L270.898 733.699H265.198Z" fill="#CFD2D3"/>
<path d="M45.6992 41H17.6992V219.8H45.6992V41Z" fill="#535656"/>
<path d="M35.5988 105.399V87.1992H22.2988V90.7992H32.2988C32.4988 90.7992 32.6988 90.9992 32.6988 91.1992V95.9992C32.6988 96.1992 32.4988 96.3992 32.2988 96.3992H22.2988V99.9992H32.2988C32.4988 99.9992 32.6988 100.199 32.6988 100.399V105.199C32.6988 105.399 32.4988 105.599 32.2988 105.599H22.2988V109.199H31.8988C33.9988 108.899 35.5988 107.399 35.5988 105.399Z" fill="#CFD2D3"/>
<path d="M25.5988 143.2C25.3988 143.2 25.1988 143 25.1988 142.8V134.2C25.1988 134 25.3988 133.8 25.5988 133.8H35.5988V130.5H25.9988C23.9988 130.5 22.2988 132.1 22.2988 134.1V143C22.2988 145 23.8988 146.6 25.9988 146.6H35.5988V143.3H25.5988V143.2Z" fill="#CFD2D3"/>
<path d="M35.5992 80.3996V67.4996L32.6992 68.5996V80.2996C32.6992 80.4996 32.4992 80.6996 32.2992 80.6996H30.5992V70.1996C30.5992 68.1996 28.9992 66.5996 26.8992 66.5996H25.8992C23.8992 66.5996 22.1992 68.1996 22.1992 70.1996V83.9996H31.7992C33.9992 83.9996 35.5992 82.3996 35.5992 80.3996ZM25.1992 80.5996V70.2996C25.1992 70.0996 25.3992 69.8996 25.5992 69.8996H27.4992C27.6992 69.8996 27.8992 70.0996 27.8992 70.2996V80.5996H25.1992Z" fill="#CFD2D3"/>
<path d="M35.5988 123.9V115.5H38.8988V111.9H22.2988V115.6V124C22.2988 126 23.8988 127.6 25.9988 127.6H31.8988C33.9988 127.5 35.5988 125.9 35.5988 123.9ZM25.5988 123.9C25.3988 123.9 25.1988 123.7 25.1988 123.5V115.5H32.6988V123.5C32.6988 123.7 32.4988 123.9 32.2988 123.9H25.5988Z" fill="#CFD2D3"/>
<path d="M27.7988 63.9C29.0988 63.8 30.1988 63.2 30.9988 62.2C31.6988 62.7 32.5988 63 33.5988 63.1C33.6988 63.1 34.5988 63.1 34.6988 63.1C37.4988 62.9 39.5988 60.2 39.5988 57C39.5988 57 39.5988 52.9 39.5988 49.7H36.5988L35.1988 46H22.2988V59.2C22.2988 59.2 22.2988 59.4 22.2988 59.5C22.4988 61.8 24.3988 63.7 26.7988 63.8C26.9988 63.9 27.5988 63.9 27.7988 63.9ZM36.5988 49.7V57.5C36.5988 57.7 36.4988 57.9 36.4988 58.2C36.1988 58.9 35.4988 59.5 34.5988 59.5C34.5988 59.5 34.2988 59.5 34.1988 59.5C33.4988 59.4 32.9988 59 32.7988 58.4C32.6988 58.1 32.5988 57.9 32.5988 57.6V49.9H36.5988V49.7ZM25.1988 58V49.7H29.5988V58C29.5988 59.2 28.5988 60.1 27.3988 60.1C26.1988 60.2 25.1988 59.2 25.1988 58Z" fill="#CFD2D3"/>
<path d="M39.5992 49.6996H43.1992L41.6992 46.0996H38.1992L39.5992 49.6996Z" fill="#CFD2D3"/>
<path d="M25.4988 161.5H38.8988V157.9H22.2988V171.3L25.4988 170.1V161.5Z" fill="#CFD2D3"/>
<path d="M35.5992 186.8V173.9L32.6992 175V186.7C32.6992 186.9 32.4992 187.1 32.2992 187.1H30.5992V176.6C30.5992 174.6 28.9992 173 26.8992 173H25.8992C23.8992 173 22.1992 174.6 22.1992 176.6V190.4H31.7992C33.9992 190.4 35.5992 188.8 35.5992 186.8ZM25.1992 187.1V176.8C25.1992 176.6 25.3992 176.4 25.5992 176.4H27.4992C27.6992 176.4 27.8992 176.6 27.8992 176.8V187.1H25.1992Z" fill="#CFD2D3"/>
<path d="M35.5988 205.7V197.3H38.8988V197.2V193.6H22.2988V197.3V205.7C22.2988 207.7 23.8988 209.3 25.9988 209.3H31.8988C33.9988 209.3 35.5988 207.7 35.5988 205.7ZM25.5988 205.7C25.3988 205.7 25.1988 205.5 25.1988 205.3V197.3H32.6988V205.3C32.6988 205.5 32.4988 205.7 32.2988 205.7H25.5988Z" fill="#CFD2D3"/>
<path d="M253.898 733.699V739.399L259.598 733.699H253.898Z" fill="#CFD2D3"/>
</g>
<defs>
<clipPath id="clip0_4523_22675">
<rect width="732" height="760" fill="white"/>
</clipPath>
</defs>
</svg>
