<svg width="732" height="760" viewBox="0 0 732 760" fill="none" xmlns="http://www.w3.org/2000/svg">
<g clip-path="url(#clip0_8327_31858)">
<rect x="14.4922" y="50.7402" width="28.3965" height="306.877" fill="#535656"/>
<path d="M31.3004 265.4H16.9004V266.2H31.3004V265.4Z" fill="#CFD2D3"/>
<path d="M19.5008 182.002H37.5008C39.0008 182.002 40.0508 183.202 40.0508 184.552V199.402H37.6508V187.402C37.6508 186.652 37.0508 185.902 36.1508 185.902H20.7008C19.9508 185.902 19.2008 186.502 19.2008 187.402V199.402H16.8008V184.552C16.9508 183.202 18.0008 182.002 19.5008 182.002Z" fill="#CFD2D3"/>
<path d="M31.9492 202.252C33.2992 202.252 34.4992 203.452 34.4992 204.802V217.402C34.4992 218.902 33.2992 219.952 31.9492 219.952H19.4992C18.1492 219.952 16.9492 218.752 16.9492 217.402V204.802C16.9492 203.452 18.1492 202.252 19.4992 202.252H31.9492ZM32.5492 206.002H18.8992V216.202H32.5492V206.002Z" fill="#CFD2D3"/>
<path d="M31.9492 222.801C33.2992 222.801 34.4992 224.001 34.4992 225.351V237.951C34.4992 239.451 33.2992 240.501 31.9492 240.501H19.4992C18.1492 240.501 16.9492 239.301 16.9492 237.951V225.351C16.9492 224.001 18.1492 222.801 19.4992 222.801H31.9492ZM32.5492 226.551H18.8992V236.751H32.5492V226.551Z" fill="#CFD2D3"/>
<path d="M19.6508 243.502H40.3508V247.402H18.9008V252.502H16.8008V246.202C16.9508 244.702 18.1508 243.502 19.6508 243.502Z" fill="#CFD2D3"/>
<path d="M40.0492 265.701V284.901C40.0492 286.401 38.8492 287.451 37.4992 287.451H27.2992C25.7992 287.451 24.7492 286.251 24.7492 284.901V269.451H16.9492V265.551H40.0492V265.701ZM28.4992 283.701H36.1492C36.8992 283.701 37.6492 283.101 37.6492 282.201V269.601H27.1492V282.201C27.1492 283.101 27.7492 283.701 28.4992 283.701Z" fill="#CFD2D3"/>
<path d="M19.6508 290.453H40.3508V294.353H18.9008V299.453H16.8008V293.153C16.9508 291.653 18.1508 290.453 19.6508 290.453Z" fill="#CFD2D3"/>
<path d="M24.7492 302.152C26.2492 302.152 27.4492 303.352 27.4492 304.852V316.702H32.5492V303.802H34.4992V316.702C34.4992 318.802 33.1492 320.602 31.4992 320.602H16.9492V304.852C16.9492 303.352 18.1492 302.152 19.6492 302.152H24.7492ZM25.3492 306.052H18.8992V316.702H25.3492V306.052Z" fill="#CFD2D3"/>
<path d="M18.8992 332.002V334.102H16.9492V329.002C16.9492 327.502 18.1492 326.302 19.6492 326.302H32.3992V322.402H34.3492V326.302H40.0492V330.202H34.3492V334.102H32.3992V330.202H20.6992C19.6492 330.202 18.8992 330.952 18.8992 332.002Z" fill="#CFD2D3"/>
<path d="M31.7992 336.203C33.2992 336.203 34.4992 337.403 34.4992 338.903V351.953C34.4992 353.453 33.2992 354.653 31.7992 354.653H24.1492V340.103H18.8992V354.353H16.9492V338.903C16.9492 337.403 18.1492 336.203 19.6492 336.203H31.7992ZM32.5492 340.103H26.0992V350.753H32.5492V340.103Z" fill="#CFD2D3"/>
<path d="M40.4996 54.1992V72.0492C40.4996 73.6992 39.1496 75.0492 37.4996 75.0492H30.5996L30.4496 75.1992C29.8496 75.9492 28.9496 76.2492 28.0496 76.2492H20.0996C18.4496 76.2492 17.0996 74.8992 17.0996 73.2492V54.1992H40.4996ZM27.1496 70.5492V58.8492H20.5496V70.5492C20.5496 70.9992 20.9996 71.4492 21.4496 71.4492H26.2496C26.6996 71.4492 27.1496 71.1492 27.1496 70.5492ZM30.4496 69.3492C30.4496 69.7992 30.8996 70.2492 31.3496 70.2492H36.1496C36.5996 70.2492 37.0496 69.7992 37.0496 69.3492V58.9992H30.4496V69.3492Z" fill="#CFD2D3"/>
<path d="M25.1996 79.0977C26.8496 79.0977 28.3496 80.4477 28.3496 82.2477V93.1976H32.2496V80.5977H35.2496V93.7976C35.2496 96.1976 33.7496 98.1477 31.7996 98.1477H17.0996V82.2477C17.0996 80.5977 18.4496 79.0977 20.2496 79.0977H25.1996ZM25.3496 93.1976V83.8977H20.0996V93.0476H25.3496V93.1976Z" fill="#CFD2D3"/>
<path d="M32.0996 126.648H17.0996V121.698H32.2496V116.148H17.0996V111.348H32.2496V105.798H17.0996V100.848H35.2496V123.498C35.2496 125.298 33.8996 126.648 32.0996 126.648Z" fill="#CFD2D3"/>
<path d="M40.7996 129.051V134.001H35.2496V144.951C35.2496 146.751 33.8996 148.101 32.0996 148.101H20.2496C18.5996 148.101 17.0996 146.751 17.0996 144.951V129.051H40.7996ZM32.2496 143.151V134.001H20.0996V143.151H32.2496Z" fill="#CFD2D3"/>
<path d="M35.2496 168.95H17.0996V153.65C17.0996 152 18.4496 150.65 20.0996 150.65H35.2496V155.45H20.0996V164.45H35.3996V168.95H35.2496Z" fill="#CFD2D3"/>
<path d="M628.299 728.4H212.699V729.4H628.299V728.4Z" fill="#CFD2D3"/>
<path d="M538.999 739.7H541.899V739H538.399C537.999 739 537.799 739.3 537.799 739.6V743.4C537.799 743.8 538.099 744 538.399 744H541.399C541.799 744 541.999 743.7 541.999 743.4V741H539.899V741.7H540.999V743.1C540.999 743.2 540.899 743.3 540.799 743.3H538.999C538.899 743.3 538.799 743.2 538.799 743.1V739.8C538.899 739.8 538.899 739.7 538.999 739.7Z" fill="#CFD2D3"/>
<path d="M546.3 743.3H544.3C544.2 743.3 544.1 743.2 544.1 743.1V739H543.1V743.3C543.1 743.7 543.4 743.9 543.7 743.9H546.2V743.3H546.3Z" fill="#CFD2D3"/>
<path d="M550.999 743.2C550.999 743.3 550.899 743.4 550.799 743.4H548.499C548.399 743.4 548.299 743.3 548.299 743.2V739.1H547.299V743.4C547.299 743.8 547.599 744 547.899 744H551.299C551.699 744 551.899 743.7 551.899 743.4V739.1H550.899V743.2H550.999Z" fill="#CFD2D3"/>
<path d="M552.898 744H556.698V743.3H553.998V742C553.998 741.9 554.098 741.8 554.198 741.8H556.798V741.1H553.998V740C553.998 739.9 554.098 739.8 554.198 739.8H556.798V739.1H552.998V744H552.898Z" fill="#CFD2D3"/>
<path d="M561.499 739.8H564.799V739.1H560.899C560.499 739.1 560.199 739.4 560.199 739.7V741.3C560.199 741.6 560.499 741.9 560.799 741.9H563.699C563.799 741.9 563.899 742 563.899 742.1V743C563.899 743.1 563.799 743.2 563.699 743.2H560.399V743.9H564.299C564.699 743.9 564.899 743.6 564.899 743.3V741.8C564.899 741.4 564.599 741.2 564.299 741.2H561.399C561.299 741.2 561.199 741.1 561.199 741V740C561.299 739.9 561.399 739.8 561.499 739.8Z" fill="#CFD2D3"/>
<path d="M568.7 744V739.8H570.4V739.1H566V739.8H567.6V744H568.7Z" fill="#CFD2D3"/>
<path d="M572.299 739.1H571.299V744.1H572.299V739.1Z" fill="#CFD2D3"/>
<path d="M577.098 743.3H574.498C574.398 743.3 574.298 743.2 574.298 743.1V740C574.298 739.9 574.398 739.8 574.498 739.8H577.098V739.1H573.998C573.598 739.1 573.398 739.4 573.398 739.7V743.4C573.398 743.8 573.698 744 573.998 744H577.098V743.3Z" fill="#CFD2D3"/>
<path d="M581.4 741.4L582.4 739.1H581.3L580.6 741.1H579.1V739.1H578V744H579.1V741.8H580.6L581.4 744H582.5L581.4 741.4Z" fill="#CFD2D3"/>
<path d="M586 739.7V743.4C586 743.8 586.3 744 586.6 744H589.7V743.3H587.1C587 743.3 586.9 743.2 586.9 743.1V740C586.9 739.9 587 739.8 587.1 739.8H589.7V739.1H586.6C586.3 739.1 586 739.4 586 739.7Z" fill="#CFD2D3"/>
<path d="M594.799 739.1H591.399C590.999 739.1 590.799 739.4 590.799 739.7V744H591.799V742H594.499V744H595.499V739.7C595.499 739.4 595.199 739.1 594.799 739.1ZM594.499 741.4H591.799V740C591.799 739.9 591.899 739.8 591.999 739.8H594.299C594.399 739.8 594.499 739.9 594.499 740V741.4Z" fill="#CFD2D3"/>
<path d="M597.398 740.3L599.998 744H601.098V739.1H600.098V742.9L597.598 739.1H596.398V744H597.398V740.3Z" fill="#CFD2D3"/>
<path d="M604.699 739.1V744H605.699V741.8H607.899V744H608.899V739.1H607.899V741.1H605.699V739.1H604.699Z" fill="#CFD2D3"/>
<path d="M611.098 739.8H613.698V739.1H609.898V744.1H613.698V743.4H610.898V742C610.898 741.9 610.998 741.8 611.098 741.8H613.698V741.1H610.898V740C610.898 739.9 610.998 739.8 611.098 739.8Z" fill="#CFD2D3"/>
<path d="M615.699 743.1V739H614.699V743.3C614.699 743.7 614.999 743.9 615.299 743.9H617.799V743.2H615.799C615.799 743.3 615.699 743.2 615.699 743.1Z" fill="#CFD2D3"/>
<path d="M622.899 739.1H618.799V744.1H619.799V742.5H622.799C623.199 742.5 623.399 742.2 623.399 741.9V739.8C623.499 739.4 623.199 739.1 622.899 739.1ZM622.499 741.5C622.499 741.6 622.399 741.7 622.299 741.7H619.799V739.8H622.299C622.399 739.8 622.499 739.9 622.499 740V741.5Z" fill="#CFD2D3"/>
<path d="M625.6 743.301H624.6V744.101H625.6V743.301Z" fill="#CFD2D3"/>
<path d="M527.699 752.101H520.899L530.699 742.301C531.399 741.601 531.399 740.401 530.699 739.701L525.699 734.701C524.999 734.001 523.799 734.001 523.099 734.701L511.199 746.601C510.899 746.901 510.699 747.401 510.699 747.901C510.699 748.401 510.899 748.801 511.199 749.201L515.199 753.201H516.099H517.499H519.799H527.799C528.099 753.201 528.399 752.901 528.399 752.601C528.399 752.301 527.999 752.101 527.699 752.101ZM523.899 735.501C524.199 735.201 524.599 735.201 524.899 735.501L529.899 740.501C530.199 740.801 530.199 741.201 529.899 741.501L522.299 749.101L516.299 743.101L523.899 735.501ZM519.299 752.101H515.999H515.599L511.899 748.401C511.799 748.301 511.699 748.101 511.699 747.901C511.699 747.701 511.799 747.501 511.899 747.401L515.399 743.901L521.399 749.901L519.299 752.101Z" fill="#CFD2D3"/>
<path d="M531.798 752.1H529.998C529.698 752.1 529.398 752.4 529.398 752.7C529.398 753 529.698 753.3 529.998 753.3H531.798C532.098 753.3 532.398 753 532.398 752.7C532.298 752.4 532.098 752.1 531.798 752.1Z" fill="#CFD2D3"/>
<path d="M540.1 748.4V748.3C540.2 748.1 540.2 748 540.3 747.8H543.4V747.2H540.5C540.5 747.1 540.6 746.8 540.7 746.5L540 746.4C540 746.5 539.9 746.8 539.8 747.2H537.9V747.8H539.6C539.5 748 539.5 748.2 539.3 748.6H537.5V749.2H539.1C539 749.5 538.8 749.8 538.7 750V750.5H542.1C541.7 750.9 541.3 751.3 540.9 751.6C539.9 751.2 539.1 751 538.6 750.8L538.4 751.4C539 751.6 539.7 751.8 540.5 752.1C541.3 752.4 542 752.7 542.6 752.9L542.9 752.3C542.6 752.2 542.2 752 541.6 751.8C542.2 751.3 542.6 750.9 543 750.4V749.8H539.5C539.6 749.6 539.7 749.4 539.8 749.1H543.7V748.5H540C540.1 748.5 540.1 748.5 540.1 748.4Z" fill="#CFD2D3"/>
<path d="M545.498 749.6C545.498 750.1 545.498 750.6 545.498 750.8C545.498 751.1 545.398 751.4 545.298 751.6C545.198 751.8 545.098 752.1 544.898 752.5L545.498 752.8C545.698 752.4 545.898 752.1 545.998 751.7C546.098 751.4 546.198 751 546.198 750.6H547.898V752.5H548.498V750.6H550.198V751.5C550.198 751.7 550.198 751.8 550.098 751.8C550.098 751.9 549.998 751.9 549.798 751.9C549.598 751.9 549.398 751.9 549.098 751.8L549.198 752.5C549.498 752.5 549.698 752.5 549.898 752.5C550.098 752.5 550.298 752.5 550.498 752.4C550.598 752.4 550.698 752.3 550.798 752.1C550.898 752 550.898 751.8 550.898 751.6V746.4H545.698V749.6H545.498ZM548.398 747.4H550.098V748.5H548.398V747.4ZM548.398 749.1H550.098V750.1H548.398V749.1ZM546.098 747.4H547.698V748.5H546.098V747.4ZM546.098 749.9V749.1H547.698V750.1H546.098V749.9Z" fill="#CFD2D3"/>
<path d="M557.8 749.6L557.2 749.4C557 749.9 556.8 750.4 556.6 750.7C556.4 750.4 556.2 749.9 556 749.4L555.4 749.6C555.6 750.2 555.9 750.8 556.2 751.2C555.8 751.6 555.3 752 554.6 752.3L555 752.9C555.7 752.6 556.2 752.2 556.6 751.7C557 752.1 557.6 752.5 558.2 752.8L558.6 752.2C557.9 751.9 557.4 751.6 557 751.2C557.3 750.8 557.6 750.2 557.8 749.6Z" fill="#CFD2D3"/>
<path d="M555.099 749.9C555.499 749.4 555.899 748.9 556.299 748.3L555.799 748C555.399 748.6 554.999 749.1 554.699 749.6L555.099 749.9Z" fill="#CFD2D3"/>
<path d="M552.6 749.501C552.6 750.101 552.6 750.601 552.6 751.001C552.6 751.401 552.5 751.701 552.4 751.901C552.3 752.101 552.2 752.401 552.1 752.701L552.7 753.001C552.9 752.701 553 752.401 553.1 752.001C553.2 751.601 553.2 751.201 553.3 750.701H554.1V751.901C554.1 752.001 554.1 752.101 554.1 752.201C554.1 752.301 554 752.301 553.9 752.301C553.7 752.301 553.6 752.301 553.4 752.301L553.5 752.901C553.7 752.901 553.9 752.901 554 752.901C554.3 752.901 554.4 752.801 554.5 752.701C554.6 752.601 554.7 752.401 554.7 752.101V746.801H552.7V749.501H552.6ZM553.1 747.401H553.9V748.401H553.1V747.401ZM553.1 749.701V749.001H553.9V750.001H553.1V749.701Z" fill="#CFD2D3"/>
<path d="M556.898 748.3C557.198 748.7 557.598 749.2 558.098 749.8L558.598 749.4C558.198 748.9 557.798 748.4 557.398 747.9L556.898 748.3Z" fill="#CFD2D3"/>
<path d="M558.398 747.3H556.998C556.898 746.9 556.698 746.6 556.698 746.4L556.098 746.6C556.198 746.9 556.298 747.1 556.398 747.4H554.898V748H558.398V747.3Z" fill="#CFD2D3"/>
<path d="M564.8 749.5H565.9V749H563.5C563.5 748.9 563.6 748.8 563.7 748.6H565.6V748H563.8C563.8 747.9 563.9 747.8 563.9 747.5H565.7V747H563.9L564 746.4H563.4C563.4 746.6 563.4 746.8 563.3 747H561.8V747.5H563.2L563.1 748H561.9V748.5H562.9C562.9 748.6 562.8 748.8 562.7 748.9H561.6V749.4H562.4C562.1 749.9 561.7 750.3 561.1 750.7L561.4 751.2C561.7 750.9 562 750.7 562.3 750.4V750.8H563.2V751.3H561.7V751.8H563.2V752.7H563.8V751.8H565.3V751.3H563.8V750.8H564.7V750.4C565 750.7 565.3 751 565.6 751.2L565.9 750.7C565.6 750.5 565.4 750.4 565.2 750.2C565.1 750 564.9 749.8 564.8 749.5ZM563.9 750.4V749.8H563.3V750.4H562.5C562.7 750.1 562.9 749.8 563.1 749.5H564.1C564.3 749.8 564.5 750.1 564.7 750.4H563.9Z" fill="#CFD2D3"/>
<path d="M561.498 750.3L561.798 749.8C561.498 749.4 561.198 749.1 560.998 748.8V748.4H561.698V747.8H560.998V746.5H560.398V747.8H559.598V748.4H560.298C560.198 748.8 559.998 749.2 559.898 749.6C559.698 750 559.598 750.4 559.398 750.7L559.698 751.4C559.898 751 560.198 750.5 560.398 750V752.9H560.998V749.7C561.198 749.9 561.298 750.1 561.398 750.2L561.498 750.3Z" fill="#CFD2D3"/>
<path d="M570.599 748.4H567.699V751.2H570.599V748.4ZM569.899 750.6H568.199V749H569.899V750.6Z" fill="#CFD2D3"/>
<path d="M566.898 747.401H571.698V751.501C571.698 751.701 571.698 751.901 571.598 752.001C571.498 752.101 571.398 752.101 571.198 752.101C570.898 752.101 570.598 752.101 570.198 752.001L570.298 752.601C570.598 752.601 570.898 752.601 571.198 752.601C571.498 752.601 571.698 752.601 571.898 752.501C572.098 752.401 572.198 752.301 572.198 752.201C572.198 752.101 572.298 751.801 572.298 751.601V747.301H573.198V746.701H566.898V747.401Z" fill="#CFD2D3"/>
<path d="M576.798 750.9L575.198 751.7V749.8H576.698V747H574.398V747.7H576.098V749.2H574.598V751.8C574.598 751.9 574.498 752.1 574.398 752.2L574.698 752.8C574.798 752.7 575.098 752.6 575.398 752.4C575.898 752.2 576.398 751.9 576.998 751.7L576.798 750.9Z" fill="#CFD2D3"/>
<path d="M579.699 749.701C579.899 749.201 579.999 748.701 579.999 748.101H580.499V747.401H578.299C578.399 747.101 578.499 746.801 578.599 746.401L577.899 746.301C577.799 746.701 577.699 747.201 577.399 747.701C577.199 748.201 576.899 748.601 576.699 749.001L577.099 749.501C577.199 749.301 577.299 749.201 577.399 749.101C577.599 749.701 577.799 750.301 578.199 750.901C577.799 751.401 577.099 751.801 576.299 752.301L576.699 752.901C577.499 752.401 578.099 752.001 578.599 751.501C578.999 752.001 579.599 752.501 580.199 752.901L580.599 752.301C579.899 751.901 579.399 751.501 578.999 751.001C579.299 750.601 579.499 750.201 579.699 749.701ZM577.899 748.401L577.999 748.101H579.299C579.199 748.601 579.199 749.001 578.999 749.401C578.899 749.801 578.699 750.101 578.499 750.401C578.299 749.901 578.099 749.201 577.899 748.401Z" fill="#CFD2D3"/>
<path d="M582.299 752.8H582.899V752.6H586.399V752.8H586.999V751H582.199V752.8H582.299ZM582.999 751.5H586.499V752H582.999V751.5Z" fill="#CFD2D3"/>
<path d="M586.899 749.5H587.799V749H585.099V748.6H587.399V748.1H585.099V747.7H587.699V747.2H586.199C586.299 747 586.399 746.9 586.499 746.8L586.599 746.7L585.999 746.5C585.899 746.7 585.699 747 585.499 747.3H584.199C584.099 747.2 583.999 746.9 583.799 746.6L583.199 746.8C583.199 746.9 583.299 747 583.399 747.2C583.399 747.2 583.399 747.2 583.399 747.3C583.399 747.3 583.399 747.4 583.499 747.4H581.999V747.9H584.599V748.3H582.299V748.8H584.599V749.2H581.899V749.7H582.799C582.899 749.9 582.999 750.1 583.099 750.3H581.799V750.8H588.099V750.3H586.799C586.699 750 586.699 749.7 586.899 749.5ZM584.399 750.1H583.499L583.199 749.5H584.399V750.1ZM585.999 750.1H585.099V749.5H586.299C586.199 749.7 586.099 749.9 585.999 750.1Z" fill="#CFD2D3"/>
<path d="M593.599 746.5H592.899V749.5H591.799V752.9H592.399V752.5H594.299V752.9H594.899V749.5H593.499V748.2H595.199V747.6H593.499V746.5H593.599ZM594.299 750.1V751.8H592.399V750.1H594.299Z" fill="#CFD2D3"/>
<path d="M591.799 747.1L591.299 746.9C591.199 747.1 591.199 747.4 590.999 747.6C590.799 747.8 590.799 748.1 590.699 748.3L591.199 748.5C591.299 748.3 591.399 748.1 591.499 747.8C591.699 747.6 591.799 747.3 591.799 747.1Z" fill="#CFD2D3"/>
<path d="M589.398 746.9L588.898 747.1C588.998 747.3 589.098 747.5 589.198 747.8C589.298 748.1 589.398 748.3 589.398 748.5L589.898 748.3C589.798 748.1 589.798 747.8 589.698 747.5C589.598 747.3 589.498 747.1 589.398 746.9Z" fill="#CFD2D3"/>
<path d="M590.599 746.5H589.999V748.9H588.799V749.5H589.899C589.799 749.8 589.599 750.1 589.399 750.5C589.199 750.8 588.999 751.1 588.699 751.4L589.099 752C589.499 751.5 589.799 751 589.999 750.5V752.9H590.599V750.7C590.799 750.9 590.999 751.1 591.199 751.4L591.599 750.9C591.299 750.6 590.999 750.2 590.599 749.9V749.5H591.599V748.9H590.599V746.5Z" fill="#CFD2D3"/>
<path d="M598.199 749.2C597.999 749.3 597.799 749.3 597.699 749.4V748.3H598.299V747.7H597.699V746.5H597.099V747.7H596.299V748.3H597.099V749.6C596.799 749.7 596.499 749.8 596.199 749.9L596.299 750.5L597.099 750.2V751.8C597.099 751.9 597.099 752 596.999 752C596.999 752 596.899 752.1 596.799 752.1C596.599 752.1 596.399 752.1 596.299 752.1L596.399 752.7C596.599 752.7 596.799 752.7 596.999 752.7C597.199 752.7 597.299 752.7 597.399 752.6C597.499 752.6 597.599 752.5 597.599 752.4C597.599 752.3 597.699 752.1 597.699 751.9V749.9L598.199 749.7V749.2Z" fill="#CFD2D3"/>
<path d="M601.699 747.601H602.399V747.001H600.899C600.899 746.901 600.799 746.801 600.799 746.801C600.799 746.701 600.699 746.701 600.699 746.601C600.699 746.501 600.599 746.401 600.599 746.301L599.899 746.501C599.999 746.601 599.999 746.801 600.099 747.101H598.499V747.701H599.099L599.299 748.601H598.299V749.201H602.499V748.601H601.399L601.699 747.601ZM600.899 748.601H599.999L599.799 747.701H601.099C600.999 748.001 600.999 748.301 600.899 748.601Z" fill="#CFD2D3"/>
<path d="M600.3 749.401L599.7 749.301C599.7 749.401 599.6 749.701 599.4 749.901H598.2V750.501H599.1C598.9 750.801 598.8 751.001 598.6 751.201C599.1 751.401 599.5 751.601 599.9 751.701C599.5 751.901 598.9 752.101 598.1 752.201L598.3 752.801C598.8 752.701 599.3 752.601 599.6 752.401C600 752.301 600.3 752.101 600.5 751.901C601 752.101 601.5 752.401 602.1 752.701L602.4 752.101C602 751.901 601.6 751.701 601 751.401C601.3 751.101 601.5 750.701 601.7 750.301H602.4V749.701H599.9C600.2 749.701 600.3 749.501 600.3 749.401ZM601.2 750.501C601 750.901 600.8 751.201 600.6 751.401C600.2 751.201 599.8 751.101 599.6 751.001C599.7 750.901 599.8 750.701 599.9 750.501H601.2Z" fill="#CFD2D3"/>
<path d="M607 752.6H607.6V752H609V752.5H609.6V747H607V752.6ZM607.6 747.6H609V751.4H607.6V747.6Z" fill="#CFD2D3"/>
<path d="M605.6 749.3V749H606.7V748.4H605.6V747.4C606.1 747.3 606.4 747.2 606.6 747.2L606.4 746.6C606 746.7 605.6 746.8 605.1 746.9C604.6 747 604.1 747.1 603.7 747.1L603.8 747.7C604.1 747.7 604.4 747.6 604.8 747.6V748.4H603.6V749H604.7C604.6 749.3 604.4 749.7 604.2 750.1C604 750.5 603.8 750.8 603.5 751.1L603.9 751.7C604.3 751.2 604.6 750.6 604.9 750V752.9H605.5V750C605.8 750.3 606 750.6 606.3 750.9L606.7 750.4C606.4 750 606 749.6 605.6 749.3Z" fill="#CFD2D3"/>
<path d="M614.998 747.401C614.898 747.201 614.798 747.001 614.698 746.801C614.598 746.601 614.498 746.501 614.398 746.301L613.898 746.601C613.998 746.701 613.998 746.801 614.198 747.001C614.298 747.201 614.398 747.401 614.498 747.601L614.998 747.401Z" fill="#CFD2D3"/>
<path d="M611.4 749.4C611.4 750 611.4 750.5 611.4 750.9C611.4 751.3 611.3 751.5 611.3 751.8C611.2 752 611.1 752.3 611 752.6L611.5 752.9C611.7 752.6 611.8 752.2 611.9 751.9C612 751.6 612 751.2 612.1 750.7H612.8V751.9C612.8 752 612.8 752.1 612.7 752.2C612.7 752.2 612.6 752.3 612.5 752.3C612.4 752.3 612.3 752.3 612.1 752.3L612.2 752.9C612.4 752.9 612.6 752.9 612.7 752.9C612.9 752.9 613.1 752.8 613.2 752.7C613.3 752.6 613.3 752.4 613.3 752.2V747H611.4V749.4ZM611.9 747.4H612.6V748.4H611.9V747.4ZM611.9 749H612.6V750H611.9V749Z" fill="#CFD2D3"/>
<path d="M616.798 751.401C616.798 751.601 616.798 751.801 616.798 751.801C616.798 751.901 616.798 752.001 616.798 752.101C616.798 752.201 616.698 752.201 616.598 752.201H616.498H616.398C616.298 752.201 616.298 752.201 616.198 752.101C616.198 752.001 616.198 752.001 616.198 751.801V750.201H616.998V747.701H616.198C616.398 747.401 616.498 747.101 616.598 746.901L616.798 746.601L616.198 746.301C616.098 746.501 615.998 746.701 615.898 746.901C615.798 747.201 615.598 747.401 615.498 747.601H613.798V750.101H614.398C614.398 750.501 614.398 750.801 614.298 751.001C614.198 751.201 614.098 751.501 613.998 751.601C613.798 751.801 613.598 752.001 613.398 752.101L613.798 752.601C614.098 752.401 614.298 752.101 614.498 751.901C614.698 751.701 614.798 751.401 614.898 751.101C614.998 750.801 614.998 750.401 614.998 750.001H615.598V751.701C615.598 752.001 615.598 752.101 615.698 752.301C615.798 752.401 615.898 752.501 616.098 752.501C616.198 752.501 616.298 752.501 616.398 752.501C616.498 752.501 616.598 752.501 616.698 752.501C616.898 752.501 617.098 752.401 617.198 752.301C617.298 752.201 617.398 752.001 617.398 751.801C617.398 751.701 617.398 751.501 617.398 751.301C617.398 751.101 617.398 751.001 617.398 750.901V750.701L616.798 750.601C616.798 751.001 616.798 751.201 616.798 751.401ZM614.398 749.701V748.401H616.298V749.701H614.398Z" fill="#CFD2D3"/>
<path d="M622.999 751.301H624.599V750.801H622.799V750.701V750.401H624.199V748.201H620.799V750.401H622.199C622.199 750.601 622.199 750.701 622.199 750.701V750.801H620.399V751.301H621.999C621.899 751.501 621.699 751.701 621.399 751.801C621.099 752.001 620.699 752.101 620.299 752.201L620.499 752.801C621.499 752.501 622.199 752.101 622.499 751.601C622.899 752.201 623.599 752.601 624.499 752.801L624.699 752.201C624.299 752.101 623.899 752.001 623.599 751.801C623.399 751.801 623.199 751.601 622.999 751.301ZM621.399 748.601H623.699V749.001H621.399V748.601ZM621.399 749.901V749.501H623.699V749.901H621.399Z" fill="#CFD2D3"/>
<path d="M623 746.4V747H622V746.4H621.5V747H620.5V747.6H621.5V747.9H622V747.6H623V747.9H623.6V747.6H624.6V747H623.6V746.4H623Z" fill="#CFD2D3"/>
<path d="M619.999 749L619.799 748.7V748.3H620.499V747.7H619.799V746.4H619.199V747.7H618.399V748.3H619.199C619.099 748.7 618.899 749.1 618.799 749.5C618.599 749.9 618.399 750.3 618.199 750.6L618.599 751.2C618.899 750.8 619.099 750.3 619.299 749.6V752.8H619.899V749.5C620.199 749.9 620.299 750.1 620.399 750.2L620.699 749.6L619.999 749Z" fill="#CFD2D3"/>
<path d="M414.798 733.5L403.598 744.7V739L409.098 733.5H403.598H403.498H397.898H392.198H386.498H380.798H375.398H369.498H240.498H237.598C236.898 733.6 236.398 734.1 236.398 734.8V752C236.398 752.7 236.898 753.2 237.598 753.3H237.798H369.798H372.398H378.098H383.698H389.398H395.098H400.798H403.798V750.3L420.698 733.4H414.798V733.5ZM247.498 751.2H241.898V746.3L247.498 744.1V751.2ZM241.898 745.4V743.4V735.6H247.498V743.2L241.898 745.4ZM253.898 751.2H248.298V741.4L253.898 743.6V751.2ZM253.898 742.7L248.298 740.5V735.6H249.698H253.898V742.7ZM275.098 743.4V751.2H267.298H259.498V743.4V735.6H267.298H275.098V743.4ZM293.898 743.7C293.898 744.3 293.398 744.8 292.798 744.8H287.398V747.6H285.798H285.598V738.8H290.298H291.398H292.798C293.398 738.8 293.898 739.3 293.898 739.9V743.7ZM300.798 747.6H296.298C295.698 747.6 295.198 747.1 295.198 746.5V738.9H296.998V746.1C296.998 746.3 297.098 746.4 297.298 746.4H300.798V747.6ZM310.398 747.6H309.598H308.598V744.1H303.898V747.6H302.898H302.098V740C302.098 739.4 302.598 738.9 303.198 738.9H309.298C309.898 738.9 310.398 739.4 310.398 740V747.6Z" fill="#CFD2D3"/>
<path d="M426.199 733.5L406.299 753.3H411.999L431.799 733.5H426.199Z" fill="#CFD2D3"/>
<path d="M437.499 733.5L417.699 753.3H423.299L443.199 733.5H437.499Z" fill="#CFD2D3"/>
<path d="M448.9 733.5L429 753.3H434.7L454.5 733.5H448.9Z" fill="#CFD2D3"/>
<path d="M460.199 733.5L440.299 753.3H445.999L465.899 733.5H460.199Z" fill="#CFD2D3"/>
<path d="M471.499 733.5L451.699 753.3H457.299L477.199 733.5H471.499Z" fill="#CFD2D3"/>
<path d="M482.8 733.5L463 753.3H468.7L488.5 733.5H482.8Z" fill="#CFD2D3"/>
<path d="M494.199 733.5L474.299 753.3H479.999L499.899 733.5H494.199Z" fill="#CFD2D3"/>
<path d="M491.399 753.301L502.699 742.001V736.301L485.699 753.301H491.399Z" fill="#CFD2D3"/>
<path d="M502.7 753.301V747.701L497 753.301H502.7Z" fill="#CFD2D3"/>
<path d="M308.298 740.1H304.998H304.198C303.998 740.1 303.898 740.3 303.898 740.4V742.8H308.598V740.4C308.598 740.3 308.498 740.1 308.298 740.1Z" fill="#CFD2D3"/>
<path d="M291.699 740.1H287.299V743.5H291.699C291.899 743.5 291.999 743.4 291.999 743.2V740.4C292.099 740.3 291.899 740.1 291.699 740.1Z" fill="#CFD2D3"/>
<path d="M267.299 739.501V740.801H268.599H269.899V742.101V743.401H268.599H267.299V746.001V748.601H268.599H269.899V747.301V746.001H271.199H272.499V742.101V738.201H269.899H267.299V739.501Z" fill="#CFD2D3"/>
<path d="M267.299 740.801H265.999H264.699V742.101V743.401H265.999H267.299V742.101V740.801Z" fill="#CFD2D3"/>
<path d="M264.7 738.201H263.4H262.1V739.501V740.801H263.4H264.7V739.501V738.201Z" fill="#CFD2D3"/>
</g>
<defs>
<clipPath id="clip0_8327_31858">
<rect width="731.3" height="759.7" fill="white"/>
</clipPath>
</defs>
</svg>
