<svg width="200" height="24" viewBox="0 0 200 24" fill="none" xmlns="http://www.w3.org/2000/svg">
<path d="M177.2 20.7999V1.29991C177.2 1.19991 177.2 1.09991 177.5 0.899913H196.7C196.837 0.899913 196.963 0.888138 197.085 0.87671C197.318 0.854834 197.537 0.834228 197.8 0.899913C198.7 1.09991 199.3 1.99991 198.9 2.89991C198.7 3.19991 198.5 3.39991 198.2 3.69991L180.4 21.4999C180.296 21.6039 180.204 21.7079 180.116 21.8078C179.949 21.9959 179.796 22.1693 179.6 22.2999C178.9 22.8999 177.8 22.6999 177.4 21.8999C177.2 21.4999 177.2 21.1999 177.2 20.7999Z" fill="#A9ABAA"/>
<path fill-rule="evenodd" clip-rule="evenodd" d="M171.5 12.3455V23.3999C171.5 23.5999 171.4 23.6999 171.3 23.6999H171.039C170.865 23.7823 170.627 23.7999 170.3 23.7999H149.3C149 23.7999 148.9 23.5999 148.8 23.2999C148.7 22.9999 148.7 22.6999 148.7 22.2999V3.39991C148.7 1.19991 148.8 0.999913 149.9 0.999913H160.377C160.427 0.964606 160.482 0.973622 160.554 0.98523C160.596 0.992116 160.644 0.999913 160.7 0.999913H171.2C171.4 0.999913 171.5 0.999913 171.6 1.19991V11.6999C171.6 11.7493 171.603 11.8019 171.605 11.8545C171.616 12.0497 171.626 12.2515 171.5 12.3455Z" fill="#A9ABAA"/>
<path d="M101.7 8.79991V12.5999H106.6C106.8 12.5999 107 12.3999 107 12.1999V9.09991C107 8.89991 106.8 8.69991 106.6 8.69991C105 8.79991 103.4 8.79991 101.7 8.79991Z" fill="#A9ABAA"/>
<path d="M77 11.5999H72.7V8.79991H77C77.2 8.79991 77.4 8.99991 77.4 9.19991V11.1999C77.4 11.3999 77.2 11.5999 77 11.5999Z" fill="#A9ABAA"/>
<path d="M72.7 15.6999H77.6C77.8 15.6999 78 15.4999 78 15.2999V13.2999C78 13.0999 77.8 12.8999 77.6 12.8999H72.7V15.6999Z" fill="#A9ABAA"/>
<path d="M67.2 8.99991V11.7999H61.8V8.99991C61.8 8.79991 62 8.59991 62.2 8.59991H66.8C67 8.59991 67.2 8.79991 67.2 8.99991Z" fill="#A9ABAA"/>
<path d="M48.8 11.7999V8.99991C48.8 8.79991 48.6 8.59991 48.4 8.59991H43.8C43.6 8.59991 43.4 8.79991 43.4 8.99991V11.7999H48.8Z" fill="#A9ABAA"/>
<path d="M25.4 12.5999V8.69991H30.3C30.5 8.69991 30.7 8.89991 30.7 9.09991V12.1999C30.7 12.3999 30.5 12.5999 30.3 12.5999H25.4Z" fill="#A9ABAA"/>
<path fill-rule="evenodd" clip-rule="evenodd" d="M1.1 1.59991C0.4 2.09991 0 2.99991 0 3.79991V20.4999C0 20.9999 0 21.3999 0.2 21.7999C0.5 22.6999 1.1 23.2999 2 23.5999C2.4 23.6999 2.8 23.6999 3.2 23.6999H142.9C143 23.6999 143.1 23.5999 143.1 23.4999V1.59991C143.1 1.5614 143.104 1.51918 143.108 1.47539C143.124 1.29179 143.142 1.08066 142.9 0.999913H3.5C2.6 0.999913 1.9 0.999913 1.1 1.59991ZM128.3 15.8999C128.3 16.5999 128.9 17.1999 129.6 17.1999H135.6C136.3 17.1999 136.9 16.5999 136.9 15.8999V11.2999H132.8V12.6999H134.9V15.3999C134.9 15.5999 134.7 15.7999 134.6 15.7999H130.8C130.6 15.7999 130.4 15.5999 130.4 15.3999V8.99991C130.4 8.79991 130.6 8.59991 130.8 8.59991H136.6V7.19991H129.7C128.9 7.29991 128.3 7.79991 128.3 8.49991V15.8999ZM110.1 17.1999H117.6V15.7999H112.1V13.1999C112.1 12.9999 112.3 12.7999 112.5 12.7999H117.6V11.3999H112.1V9.19991C112.1 8.99991 112.3 8.79991 112.5 8.79991H117.6V7.39991H110.1V17.1999ZM99.7 17.1999V7.39991C102.4 7.39991 105.1 7.39991 107.7 7.29991C108.4 7.29991 109 7.89991 109 8.59991V12.6999C109 13.3999 108.4 13.9999 107.7 13.9999H101.7V17.1999H99.7ZM81.4 11.7999C81.4 12.4999 82 13.0999 82.7 13.0999H88.4C88.6 13.0999 88.8 13.2999 88.8 13.4999V15.2999C88.8 15.4999 88.6 15.6999 88.4 15.6999H81.7V17.0999H89.5C90.2 17.0999 90.8 16.4999 90.8 15.7999V12.8999C90.8 12.1999 90.2 11.5999 89.5 11.5999H83.8C83.6 11.5999 83.4 11.3999 83.4 11.1999V8.99991C83.4 8.79991 83.6 8.59991 83.8 8.59991H90.4V7.19991H82.6C82 7.19991 81.4 7.79991 81.4 8.49991V11.7999ZM70.7 17.1999V7.39991C73.2 7.39991 75.7 7.39991 78.1 7.29991C78.8 7.29991 79.4 7.89991 79.4 8.59991V11.4999L79.5 11.5999C79.8 11.7999 80 12.1999 80 12.5999V15.8999C80 16.5999 79.4 17.1999 78.7 17.1999H70.7ZM59.8 17.0999V8.49991C59.8 7.79991 60.4 7.19991 60.9 7.19991H67.8C68.5 7.19991 69.1 7.79991 69.1 8.49991V17.0999H67.1V13.1999H61.8V17.0999H59.8ZM41.5 17.0999V8.49991C41.5 7.79991 42.1 7.19991 42.6 7.19991H49.5C50.2 7.19991 50.8 7.79991 50.8 8.49991V17.0999H48.8V13.1999H43.5V17.0999H41.5ZM34 15.7999V7.19991H36.1V15.2999C36.1 15.4999 36.3 15.6999 36.5 15.6999H40.4V17.0999H35.3C34.6 17.0999 34 16.4999 34 15.7999ZM23.4 17.0999V7.19991C26.1 7.19991 28.8 7.19991 31.5 7.09991C32.2 7.09991 32.8 7.69991 32.8 8.39991V12.5999C32.8 13.2999 32.2 13.8999 31.5 13.8999H25.4V17.0999H23.4ZM10.3 12.0999L4.3 14.3999V3.79991H10.3V12.0999ZM118.8 8.79991V7.39991H127.4V8.79991H124.1V17.1999H122.1V8.79991H118.8ZM93.2 17.0999L96.1 7.19991H97.3L94.4 17.0999H93.2ZM53.3 17.0999L56.2 7.19991H57.4L54.5 17.0999H53.3ZM11.4 9.09991V3.79991H17.4V11.4999L11.4 9.09991ZM11.4 20.7999V10.2999L17.4 12.5999V20.7999H11.4ZM4.3 20.7999V15.5999L10.3 13.1999V20.7999H4.3Z" fill="#A9ABAA"/>
</svg>
