<?xml version="1.0" encoding="UTF-8" standalone="no"?>
<svg
   width="20.2222in"
   height="4.88889in"
   viewBox="0 0 1456 352"
   version="1.1"
   id="svg1"
   xmlns="http://www.w3.org/2000/svg"
   xmlns:svg="http://www.w3.org/2000/svg">
  <defs
     id="defs1" />
  <path
     id="Selection"
     fill="none"
     stroke="black"
     stroke-width="1"
     d="M 35.00,26.00            C 46.29,28.02 43.94,27.62 54.00,24.00              57.59,29.37 66.29,25.87 72.00,27.00              72.00,27.00 71.00,24.00 71.00,24.00              71.00,24.00 77.09,26.41 77.09,26.41              77.09,26.41 95.96,26.41 95.96,26.41              95.96,26.41 102.00,24.00 102.00,24.00              104.31,27.35 105.28,26.45 108.00,24.00              115.98,29.31 119.86,26.51 128.00,26.35              128.00,26.35 136.00,27.10 136.00,27.10              136.00,27.10 154.00,27.63 154.00,27.63              159.92,28.45 168.56,24.38 170.11,33.02              170.11,33.02 170.11,38.00 170.11,38.00              170.11,38.00 170.11,50.00 170.11,50.00              170.11,50.00 170.11,75.00 170.11,75.00              170.08,81.67 169.13,87.15 175.00,91.00              173.27,93.90 173.37,93.82 170.03,94.00              171.84,107.96 169.34,106.95 170.03,118.00              170.03,118.00 170.03,135.01 170.03,135.01              169.57,143.20 170.00,144.07 172.00,152.00              168.63,155.53 168.90,157.21 166.69,158.77              161.40,162.53 154.91,158.73 148.00,159.65              148.00,159.65 135.00,162.09 135.00,162.09              135.00,162.09 130.00,161.20 130.00,161.20              130.00,161.20 119.00,160.40 119.00,160.40              115.55,160.25 113.75,161.61 111.17,161.56              111.17,161.56 105.91,160.25 105.91,160.25              105.91,160.25 95.00,160.25 95.00,160.25              95.00,160.25 77.42,160.25 77.42,160.25              77.42,160.25 70.00,160.25 70.00,160.25              63.71,160.22 58.83,158.74 53.00,162.00              47.65,158.88 39.88,161.35 36.57,158.40              31.54,153.92 38.04,151.96 31.00,145.00              36.68,139.82 33.59,139.39 33.85,133.00              33.85,133.00 35.00,110.00 35.00,110.00              35.00,110.00 32.00,109.00 32.00,109.00              32.00,109.00 36.00,109.00 36.00,109.00              36.00,109.00 34.63,102.00 34.63,102.00              34.07,95.18 37.10,90.64 34.00,80.00              36.45,74.49 34.71,72.43 33.00,67.00              33.00,67.00 34.00,66.00 34.00,66.00              34.00,66.00 35.84,67.00 35.84,67.00              35.84,67.00 35.84,50.00 35.84,50.00              35.84,50.00 35.00,26.00 35.00,26.00 Z            M 1179.00,87.00            C 1183.17,88.42 1183.62,89.74 1183.00,94.00              1183.00,94.00 1189.27,100.11 1189.27,100.11              1189.27,100.11 1196.00,104.00 1196.00,104.00              1196.00,104.00 1190.00,104.00 1190.00,104.00              1190.00,104.00 1193.00,107.00 1193.00,107.00              1193.00,107.00 1192.00,111.00 1192.00,111.00              1201.26,117.73 1192.64,127.44 1196.00,139.00              1196.00,139.00 1193.00,142.00 1193.00,142.00              1193.00,142.00 1197.00,142.00 1197.00,142.00              1197.00,142.00 1198.59,138.34 1198.59,138.34              1198.59,138.34 1214.09,127.82 1214.09,127.82              1214.09,127.82 1221.00,126.00 1221.00,126.00              1221.00,126.00 1217.11,133.28 1217.11,133.28              1217.11,133.28 1215.44,151.70 1215.44,151.70              1215.44,151.70 1199.00,170.00 1199.00,170.00              1199.00,170.00 1220.51,151.15 1220.51,151.15              1220.51,151.15 1227.96,145.50 1227.96,145.50              1227.96,145.50 1232.42,141.96 1232.42,141.96              1232.42,141.96 1253.00,137.00 1253.00,137.00              1250.28,135.87 1250.73,135.42 1253.00,134.00              1257.19,141.09 1258.92,135.20 1267.00,138.00              1267.00,138.00 1264.00,147.00 1264.00,147.00              1256.07,151.02 1256.45,159.66 1249.98,161.29              1243.47,162.94 1246.18,156.81 1248.00,154.00              1240.31,155.66 1240.04,159.60 1234.00,164.00              1234.00,164.00 1234.00,160.00 1234.00,160.00              1234.00,160.00 1224.00,163.00 1224.00,163.00              1224.00,163.00 1224.00,159.00 1224.00,159.00              1224.00,159.00 1214.00,170.00 1214.00,170.00              1215.04,178.10 1206.40,178.90 1201.00,182.00              1201.00,182.00 1206.00,182.00 1206.00,182.00              1209.18,185.50 1210.30,186.28 1214.91,187.00              1214.64,185.06 1214.26,184.03 1214.91,182.00              1215.29,180.24 1221.13,168.99 1222.47,167.98              1225.55,165.62 1232.16,163.52 1234.00,167.98              1234.00,167.98 1242.00,167.00 1242.00,167.00              1242.00,167.00 1243.00,164.00 1243.00,164.00              1247.48,165.87 1253.36,168.17 1255.00,173.00              1255.00,173.00 1252.00,172.00 1252.00,172.00              1251.30,174.60 1250.89,176.78 1247.88,177.69              1244.91,178.26 1237.69,175.51 1233.01,177.69              1225.38,181.72 1226.73,189.39 1239.00,190.00              1239.00,190.00 1235.00,182.00 1235.00,182.00              1240.23,179.48 1247.33,178.84 1253.00,180.00              1253.00,180.00 1251.00,201.00 1251.00,201.00              1243.74,199.70 1237.16,197.69 1233.00,205.00              1239.73,205.31 1249.41,205.47 1253.00,212.00              1253.00,212.00 1250.00,212.00 1250.00,212.00              1254.30,217.74 1254.69,216.50 1261.00,218.00              1261.00,218.00 1257.00,223.00 1257.00,223.00              1257.00,223.00 1266.00,230.00 1266.00,230.00              1266.10,234.20 1267.05,235.15 1270.00,238.00              1270.00,238.00 1269.00,241.00 1269.00,241.00              1262.85,235.00 1250.27,235.74 1242.00,235.08              1236.56,234.66 1231.04,234.98 1229.00,229.00              1229.00,229.00 1220.00,226.00 1220.00,226.00              1220.00,226.00 1218.00,228.00 1218.00,228.00              1218.00,228.00 1216.00,226.00 1216.00,226.00              1216.00,226.00 1216.00,233.00 1216.00,233.00              1216.00,233.00 1220.00,233.00 1220.00,233.00              1217.14,239.16 1216.03,238.66 1217.00,246.00              1217.00,246.00 1216.00,247.00 1216.00,247.00              1216.00,247.00 1207.00,246.00 1207.00,246.00              1205.84,238.96 1203.13,238.64 1197.00,240.00              1197.00,240.00 1194.00,224.00 1194.00,224.00              1194.00,224.00 1191.00,223.00 1191.00,223.00              1191.13,218.67 1190.60,218.40 1188.00,215.00              1188.00,215.00 1192.00,236.00 1192.00,236.00              1192.00,236.00 1195.00,239.00 1195.00,239.00              1192.54,240.17 1193.60,243.29 1193.79,245.72              1193.79,245.72 1194.97,253.00 1194.97,253.00              1195.08,258.04 1193.26,255.27 1194.97,265.00              1194.97,265.00 1185.00,274.00 1185.00,274.00              1187.00,279.84 1185.78,279.38 1185.00,285.00              1175.99,283.67 1178.03,279.57 1174.34,272.00              1171.95,267.12 1167.39,258.23 1167.32,252.83              1167.14,240.17 1175.24,228.70 1173.00,216.00              1173.00,216.00 1178.31,208.04 1178.31,208.04              1178.31,208.04 1187.00,207.00 1187.00,207.00              1187.00,207.00 1189.00,214.00 1189.00,214.00              1189.00,214.00 1190.00,198.00 1190.00,198.00              1190.00,198.00 1185.00,203.00 1185.00,203.00              1185.00,203.00 1182.00,202.00 1182.00,202.00              1182.00,202.00 1182.00,206.00 1182.00,206.00              1182.00,206.00 1180.00,201.00 1180.00,201.00              1180.00,201.00 1171.00,202.00 1171.00,202.00              1171.00,202.00 1167.23,187.00 1167.23,187.00              1167.23,187.00 1173.00,173.00 1173.00,173.00              1166.45,171.28 1166.87,169.68 1162.00,165.59              1158.73,162.85 1150.04,154.52 1148.59,150.83              1147.52,148.10 1148.45,144.04 1148.01,140.83              1147.04,133.49 1144.78,134.85 1148.01,126.00              1157.11,130.15 1156.21,133.31 1164.00,133.00              1165.41,137.54 1167.46,139.59 1172.00,141.00              1171.12,136.08 1170.53,133.65 1167.00,130.00              1169.04,123.13 1167.39,121.75 1169.24,116.00              1169.24,116.00 1177.61,96.00 1177.61,96.00              1179.00,92.22 1180.41,90.90 1179.00,87.00 Z            M 1191.00,108.00            C 1191.00,108.00 1190.00,108.00 1190.00,108.00              1190.00,108.00 1191.00,109.00 1191.00,109.00              1191.00,109.00 1191.00,108.00 1191.00,108.00 Z            M 1179.00,115.00            C 1179.00,115.00 1177.00,115.00 1177.00,115.00              1177.00,115.00 1176.00,123.00 1176.00,123.00              1179.31,120.69 1178.90,118.80 1179.00,115.00 Z            M 1187.00,115.00            C 1183.15,120.69 1184.93,122.21 1184.74,128.00              1184.74,128.00 1184.00,136.00 1184.00,136.00              1191.15,131.97 1189.20,121.49 1187.00,115.00 Z            M 1179.00,125.00            C 1179.00,125.00 1176.00,125.00 1176.00,125.00              1176.21,128.57 1175.94,129.87 1179.00,132.00              1179.00,132.00 1179.00,125.00 1179.00,125.00 Z            M 1093.00,140.00            C 1104.44,134.25 1101.59,138.55 1111.00,138.56              1111.00,138.56 1116.00,138.56 1116.00,138.56              1122.33,138.09 1128.73,139.22 1133.96,142.91              1139.03,146.48 1147.73,156.67 1153.00,158.00              1157.10,166.31 1169.00,169.95 1166.00,181.00              1160.29,179.97 1158.90,180.47 1154.00,177.00              1154.00,177.00 1154.00,179.00 1154.00,179.00              1154.00,179.00 1149.00,177.00 1149.00,177.00              1153.11,181.12 1159.27,182.81 1165.00,182.00              1165.00,182.00 1163.00,190.00 1163.00,190.00              1163.00,190.00 1147.00,195.00 1147.00,195.00              1147.00,195.00 1147.00,188.00 1147.00,188.00              1150.61,185.66 1150.70,185.22 1150.00,181.00              1150.00,181.00 1148.00,181.00 1148.00,181.00              1148.00,181.00 1145.48,188.00 1145.48,188.00              1145.48,188.00 1143.80,195.00 1143.80,195.00              1143.80,195.00 1138.00,212.00 1138.00,212.00              1132.33,212.26 1129.02,214.32 1127.00,208.00              1127.00,208.00 1122.00,208.00 1122.00,208.00              1122.00,208.00 1116.00,221.00 1116.00,221.00              1121.45,217.71 1124.66,216.26 1131.00,218.00              1131.00,218.00 1131.00,220.00 1131.00,220.00              1131.00,220.00 1121.00,227.00 1121.00,227.00              1128.30,226.43 1131.17,223.10 1136.16,218.27              1137.99,216.51 1139.62,215.32 1140.75,212.96              1141.91,210.53 1141.99,204.93 1147.07,200.21              1153.59,194.14 1161.73,191.51 1168.00,199.00              1168.00,199.00 1156.00,212.00 1156.00,212.00              1165.05,207.51 1163.01,201.16 1175.00,205.00              1175.00,205.00 1170.45,220.00 1170.45,220.00              1170.45,220.00 1168.28,230.00 1168.28,230.00              1168.28,230.00 1164.00,239.00 1164.00,239.00              1160.87,239.35 1153.62,242.83 1152.75,246.04              1152.07,247.29 1152.63,247.96 1152.75,249.00              1152.75,249.00 1144.00,246.00 1144.00,246.00              1144.00,246.00 1148.38,224.00 1148.38,224.00              1148.38,224.00 1156.00,213.00 1156.00,213.00              1156.00,213.00 1134.00,231.00 1134.00,231.00              1138.83,231.68 1140.25,232.34 1142.00,237.00              1138.40,236.38 1137.38,236.54 1136.00,233.00              1136.00,233.00 1131.00,237.00 1131.00,237.00              1125.56,235.72 1124.65,233.79 1119.00,236.00              1119.00,236.00 1122.00,238.00 1122.00,238.00              1122.00,238.00 1114.00,239.00 1114.00,239.00              1114.00,239.00 1118.00,236.21 1118.00,236.21              1113.94,236.04 1101.26,237.92 1098.45,236.21              1094.68,234.42 1099.48,226.56 1104.00,225.00              1104.00,225.00 1102.00,221.00 1102.00,221.00              1102.00,221.00 1107.00,221.00 1107.00,221.00              1107.00,221.00 1104.00,217.00 1104.00,217.00              1104.00,217.00 1108.00,218.00 1108.00,218.00              1109.46,215.27 1115.32,207.43 1118.04,206.38              1121.08,205.21 1127.18,208.55 1129.12,202.00              1130.09,198.71 1127.30,197.22 1125.74,194.85              1125.74,194.85 1120.00,182.00 1120.00,182.00              1120.00,182.00 1119.00,185.00 1119.00,185.00              1119.00,185.00 1115.00,182.00 1115.00,182.00              1115.00,182.00 1120.00,172.00 1120.00,172.00              1120.00,172.00 1120.00,176.00 1120.00,176.00              1127.30,174.25 1128.15,175.78 1134.00,180.00              1134.00,180.00 1133.00,186.00 1133.00,186.00              1133.00,186.00 1136.00,185.00 1136.00,185.00              1136.00,185.00 1135.00,173.00 1135.00,173.00              1135.00,173.00 1142.42,174.78 1142.42,174.78              1142.42,174.78 1156.00,174.00 1156.00,174.00              1152.23,170.69 1146.81,171.29 1142.00,171.30              1134.96,171.31 1127.82,170.73 1121.01,168.81              1113.93,166.82 1110.50,159.48 1106.46,154.00              1101.98,147.93 1102.14,150.77 1098.00,142.00              1098.00,142.00 1094.00,144.00 1094.00,144.00              1094.00,144.00 1093.00,140.00 1093.00,140.00 Z            M 1156.00,140.00            C 1156.00,140.00 1154.00,144.00 1154.00,144.00              1154.00,144.00 1164.00,155.00 1164.00,155.00              1161.17,143.80 1163.91,148.36 1156.00,140.00 Z            M 1210.00,143.00            C 1205.41,142.39 1205.35,143.79 1205.00,148.00              1205.00,148.00 1201.00,148.00 1201.00,148.00              1201.00,148.00 1200.00,155.00 1200.00,155.00              1206.23,152.79 1208.32,149.13 1210.00,143.00 Z            M 1196.00,143.00            C 1196.00,143.00 1191.00,144.00 1191.00,144.00              1191.00,144.00 1195.00,147.00 1195.00,147.00              1195.00,147.00 1196.00,143.00 1196.00,143.00 Z            M 1173.00,144.00            C 1173.00,144.00 1169.00,145.00 1169.00,145.00              1169.00,145.00 1176.00,170.00 1176.00,170.00              1176.00,170.00 1173.00,171.00 1173.00,171.00              1173.00,171.00 1174.00,175.00 1174.00,175.00              1174.00,175.00 1183.00,173.69 1183.00,173.69              1190.24,174.27 1185.24,177.36 1197.00,175.00              1197.00,175.00 1196.00,171.00 1196.00,171.00              1190.55,170.62 1188.91,169.47 1188.00,164.00              1186.12,165.38 1183.54,167.83 1181.07,167.54              1178.33,167.22 1177.06,164.30 1176.33,162.00              1176.33,162.00 1173.00,144.00 1173.00,144.00 Z            M 1242.00,147.00            C 1236.72,148.13 1233.73,149.06 1231.00,154.00              1235.77,152.98 1240.15,151.93 1242.00,147.00 Z            M 1135.00,152.00            C 1130.47,150.37 1126.80,147.42 1122.00,149.00              1122.00,149.00 1135.00,156.00 1135.00,156.00              1135.00,156.00 1135.00,152.00 1135.00,152.00 Z            M 1194.00,149.00            C 1194.00,149.00 1190.00,149.00 1190.00,149.00              1189.66,153.23 1188.42,155.34 1191.00,159.00              1191.00,159.00 1194.00,149.00 1194.00,149.00 Z            M 1230.00,155.00            C 1226.24,155.63 1225.89,155.65 1224.00,159.00              1224.00,159.00 1230.00,155.00 1230.00,155.00 Z            M 1140.00,156.00            C 1140.00,156.00 1135.00,157.00 1135.00,157.00              1135.00,157.00 1140.00,158.00 1140.00,158.00              1140.00,158.00 1140.00,156.00 1140.00,156.00 Z            M 1129.00,162.00            C 1125.60,157.92 1124.19,157.49 1119.00,157.00              1121.39,161.29 1124.20,162.32 1129.00,162.00 Z            M 1319.00,161.00            C 1320.56,161.51 1322.52,162.03 1323.89,162.93              1334.98,170.17 1315.90,177.39 1317.31,166.00              1317.53,164.22 1318.31,162.63 1319.00,161.00 Z            M 1020.00,189.00            C 1020.01,181.38 1022.00,170.94 1030.04,167.56              1033.04,166.30 1039.51,166.47 1043.00,166.30              1045.98,166.15 1054.16,165.71 1056.26,167.75              1058.60,170.01 1057.37,174.38 1059.00,180.00              1047.00,183.30 1044.72,173.60 1038.00,180.00              1038.00,180.00 1033.00,179.00 1033.00,179.00              1032.83,187.08 1037.16,190.12 1045.00,191.00              1047.50,182.87 1055.70,184.96 1057.49,188.28              1060.26,193.43 1057.73,198.89 1052.15,200.30              1043.47,202.51 1033.84,199.23 1025.00,201.00              1025.00,201.00 1027.00,196.00 1027.00,196.00              1027.00,196.00 1023.00,194.00 1023.00,194.00              1023.00,194.00 1026.00,195.00 1026.00,195.00              1026.00,195.00 1024.00,188.00 1024.00,188.00              1024.00,188.00 1020.00,189.00 1020.00,189.00 Z            M 1086.00,171.00            C 1086.00,171.00 1090.00,171.00 1090.00,171.00              1090.00,171.00 1090.00,176.00 1090.00,176.00              1090.00,176.00 1104.00,175.00 1104.00,175.00              1104.00,175.00 1100.00,184.00 1100.00,184.00              1100.00,184.00 1090.00,184.00 1090.00,184.00              1091.24,187.24 1091.21,187.56 1091.27,191.00              1091.41,198.50 1088.57,198.46 1082.00,200.00              1082.00,200.00 1079.65,195.71 1079.65,195.71              1079.65,195.71 1081.58,177.09 1081.58,177.09              1081.58,177.09 1086.00,171.00 1086.00,171.00 Z            M 1356.00,173.00            C 1356.00,173.00 1360.09,175.16 1360.09,175.16              1360.09,175.16 1378.00,176.00 1378.00,176.00              1378.08,182.78 1381.80,189.10 1376.61,194.79              1370.88,201.07 1364.85,197.59 1362.02,199.84              1360.02,201.42 1359.50,204.66 1359.00,207.00              1356.52,207.14 1352.72,207.83 1350.70,206.14              1347.79,203.69 1348.77,199.25 1348.91,196.00              1348.91,196.00 1348.14,186.00 1348.14,186.00              1348.13,181.64 1349.62,181.34 1349.00,176.00              1349.00,176.00 1356.00,173.00 1356.00,173.00 Z            M 1197.00,176.00            C 1192.89,180.23 1194.84,180.98 1195.78,186.00              1195.78,186.00 1195.78,192.00 1195.78,192.00              1195.78,192.00 1201.00,190.00 1201.00,190.00              1201.00,190.00 1202.00,184.00 1202.00,184.00              1202.00,184.00 1198.00,185.00 1198.00,185.00              1199.74,180.50 1199.21,180.18 1197.00,176.00 Z            M 1277.00,176.00            C 1277.00,176.00 1295.00,177.00 1295.00,177.00              1292.64,185.74 1288.87,180.73 1286.02,184.52              1283.86,187.39 1286.35,194.26 1283.26,197.17              1281.05,199.25 1276.25,199.02 1275.53,194.89              1275.53,194.89 1275.53,189.00 1275.53,189.00              1275.66,181.53 1274.19,184.68 1277.00,176.00 Z            M 1313.00,186.00            C 1316.80,182.20 1316.87,179.67 1319.27,178.17              1320.53,177.39 1322.43,177.03 1323.89,177.18              1329.93,177.77 1327.93,190.81 1327.00,195.00              1327.00,195.00 1330.00,195.00 1330.00,195.00              1327.40,201.60 1322.70,198.80 1317.00,198.00              1316.60,192.21 1316.60,190.69 1313.00,186.00 Z            M 1181.00,184.00            C 1172.99,185.34 1173.65,192.34 1180.01,192.88              1190.10,193.72 1189.20,182.77 1180.01,180.00              1180.01,180.00 1181.00,184.00 1181.00,184.00 Z            M 1371.00,189.00            C 1367.99,180.68 1361.57,183.28 1360.74,186.17              1360.04,188.63 1363.54,193.93 1371.00,189.00 Z            M 1233.00,200.00            C 1229.45,200.07 1225.24,201.01 1222.34,198.53              1219.10,195.76 1219.43,191.72 1216.70,190.65              1214.02,189.61 1211.68,192.21 1208.91,192.66              1206.15,193.11 1203.52,191.94 1201.00,191.00              1201.00,191.00 1200.00,194.00 1200.00,194.00              1191.32,191.61 1194.03,195.26 1191.00,203.00              1191.00,203.00 1195.00,201.00 1195.00,201.00              1196.52,205.95 1198.86,207.05 1202.39,210.73              1207.30,215.86 1212.56,222.91 1219.00,226.00              1219.22,218.87 1215.21,218.06 1210.29,214.29              1208.33,212.79 1199.29,202.73 1198.24,200.91              1197.59,198.91 1197.87,197.09 1198.24,195.00              1198.24,195.00 1217.00,197.00 1217.00,197.00              1217.00,197.00 1217.00,203.00 1217.00,203.00              1217.00,203.00 1221.00,207.00 1221.00,207.00              1226.24,205.08 1229.96,204.87 1233.00,200.00 Z            M 1191.00,203.00            C 1191.00,203.00 1190.00,203.00 1190.00,203.00              1190.00,203.00 1191.00,204.00 1191.00,204.00              1191.00,204.00 1191.00,203.00 1191.00,203.00 Z            M 45.00,204.00            C 45.00,204.00 45.00,207.00 45.00,207.00              46.64,206.13 48.12,205.16 50.00,204.87              52.92,204.42 64.05,206.25 66.55,207.98              68.84,209.57 70.07,212.79 73.02,213.44              75.08,213.89 77.79,212.25 80.00,211.75              80.00,211.75 86.96,211.10 86.96,211.10              89.90,210.24 90.40,208.42 95.00,207.00              95.00,207.00 94.00,210.00 94.00,210.00              94.00,210.00 95.00,211.00 95.00,211.00              95.00,211.00 102.00,206.00 102.00,206.00              102.32,211.82 105.24,211.22 110.00,211.35              110.00,211.35 120.72,213.44 120.72,213.44              127.55,214.42 126.87,209.85 134.96,207.09              143.47,204.19 152.26,206.13 160.00,210.00              160.00,210.00 160.00,213.00 160.00,213.00              160.00,213.00 163.00,212.00 163.00,212.00              163.46,218.55 166.49,223.91 164.70,232.00              163.68,236.61 159.90,239.39 159.88,243.00              159.88,243.00 164.12,261.00 164.12,261.00              165.73,269.36 164.36,274.05 164.12,282.00              164.12,282.00 169.00,282.00 169.00,282.00              169.00,282.00 168.00,285.00 168.00,285.00              168.00,285.00 163.00,283.00 163.00,283.00              163.00,283.00 161.00,293.00 161.00,293.00              161.00,293.00 152.00,302.00 152.00,302.00              152.00,302.00 154.00,304.00 154.00,304.00              154.00,304.00 137.00,311.00 137.00,311.00              137.00,311.00 137.00,315.00 137.00,315.00              137.00,315.00 120.00,316.00 120.00,316.00              120.00,316.00 119.00,319.00 119.00,319.00              119.00,319.00 115.00,318.00 115.00,318.00              115.00,318.00 114.00,322.00 114.00,322.00              114.00,322.00 112.00,322.00 112.00,322.00              112.00,322.00 111.00,319.00 111.00,319.00              100.17,320.91 96.97,315.93 93.00,323.00              79.58,314.97 83.25,320.90 71.04,316.28              71.04,316.28 64.83,313.39 64.83,313.39              57.24,310.62 51.71,308.86 45.32,303.25              38.29,297.06 32.33,281.29 32.06,272.00              31.85,264.44 32.82,260.19 34.85,253.00              35.57,250.46 37.88,246.12 37.81,244.00              37.69,240.95 35.06,238.83 33.68,235.00              30.57,226.36 32.32,214.59 41.00,210.00              41.00,210.00 39.00,206.00 39.00,206.00              39.00,206.00 45.00,204.00 45.00,204.00 Z            M 1230.00,210.00            C 1230.08,215.24 1237.09,215.42 1241.00,215.00              1241.00,215.00 1240.00,219.00 1240.00,219.00              1240.00,219.00 1248.00,222.00 1248.00,222.00              1243.64,211.65 1238.79,213.74 1230.00,210.00 Z            M 64.00,211.80            C 59.45,211.79 53.27,210.39 48.91,211.80              41.67,213.59 36.74,221.67 38.56,229.00              39.20,231.59 40.62,233.76 42.00,236.00              49.44,232.45 52.25,224.28 65.00,219.00              65.00,219.00 64.00,211.80 64.00,211.80 Z            M 144.17,211.56            C 141.09,212.02 131.91,213.59 134.17,218.64              134.94,220.38 140.99,223.79 143.27,226.00              145.74,228.39 152.00,235.34 155.65,233.92              158.77,232.71 160.21,225.86 159.25,223.00              156.93,216.08 151.31,211.74 144.17,211.56 Z            M 1227.00,217.00            C 1226.54,221.33 1233.33,225.89 1237.09,227.28              1239.00,227.99 1241.00,227.95 1243.00,228.00              1239.63,221.88 1232.95,220.05 1227.00,217.00 Z            M 1163.00,219.00            C 1163.00,219.00 1155.00,225.00 1155.00,225.00              1155.00,225.00 1158.00,228.00 1158.00,228.00              1158.00,228.00 1154.00,228.00 1154.00,228.00              1154.00,228.00 1155.00,234.00 1155.00,234.00              1155.00,234.00 1156.00,231.00 1156.00,231.00              1156.00,231.00 1160.00,232.00 1160.00,232.00              1160.00,232.00 1163.00,219.00 1163.00,219.00 Z            M 1203.00,223.00            C 1201.80,219.67 1201.39,219.78 1198.00,219.00              1198.00,219.00 1203.00,223.00 1203.00,223.00 Z            M 1205.00,223.00            C 1205.00,223.00 1200.00,224.00 1200.00,224.00              1200.00,224.00 1205.00,233.00 1205.00,233.00              1208.01,231.92 1207.81,231.96 1209.00,229.00              1209.00,229.00 1205.00,223.00 1205.00,223.00 Z            M 1221.00,224.00            C 1221.00,224.00 1220.00,224.00 1220.00,224.00              1220.00,224.00 1221.00,225.00 1221.00,225.00              1221.00,225.00 1221.00,224.00 1221.00,224.00 Z            M 1179.00,233.00            C 1177.48,236.61 1177.52,239.28 1176.75,242.91              1175.24,250.10 1171.78,254.68 1178.00,261.00              1179.22,256.49 1179.87,237.55 1179.00,233.00 Z            M 87.00,251.00            C 86.85,248.75 87.07,245.26 85.98,243.38              79.93,232.94 63.09,241.23 59.75,251.00              59.05,253.04 57.51,258.00 57.92,260.00              59.58,267.95 69.44,266.95 75.00,264.65              85.97,260.11 84.86,255.23 87.00,251.00 Z            M 134.00,248.00            C 133.39,238.22 110.51,233.17 110.20,249.00              110.17,250.67 110.57,252.43 111.22,253.96              112.28,256.41 114.57,259.03 116.46,260.91              119.66,264.06 121.99,265.21 126.00,267.00              126.00,267.00 127.00,263.00 127.00,263.00              134.92,267.15 138.17,262.79 139.00,255.00              139.00,255.00 136.00,254.00 136.00,254.00              139.44,250.85 137.47,249.76 134.00,248.00 Z            M 1185.00,241.00            C 1185.00,241.00 1184.00,241.00 1184.00,241.00              1184.00,241.00 1185.00,242.00 1185.00,242.00              1185.00,242.00 1185.00,241.00 1185.00,241.00 Z            M 1185.00,243.00            C 1185.00,243.00 1183.00,251.00 1183.00,251.00              1183.00,251.00 1189.00,247.00 1189.00,247.00              1189.00,247.00 1185.00,243.00 1185.00,243.00 Z            M 1188.00,256.00            C 1188.00,256.00 1185.00,253.00 1185.00,253.00              1185.00,253.00 1188.00,256.00 1188.00,256.00 Z            M 1186.00,257.00            C 1184.04,259.79 1184.04,260.21 1186.00,263.00              1186.00,263.00 1186.00,257.00 1186.00,257.00 Z            M 109.00,270.23            C 109.00,270.23 100.00,270.23 100.00,270.23              100.00,270.23 91.00,269.00 91.00,269.00              92.08,273.31 95.91,279.89 100.00,274.00              100.00,274.00 106.00,276.00 106.00,276.00              106.00,276.00 109.00,272.00 109.00,272.00              109.00,272.00 109.00,270.23 109.00,270.23 Z"
     style="fill:#ced1d2;stroke:#ffffff;stroke-width:0;stroke-dasharray:none" />
  <path
     style="fill:#ced1d2;stroke:#ffffff;stroke-width:0;stroke-opacity:1;stroke-dasharray:none"
     d="m 175.17575,214.32959 c -4.15924,-0.6676 -12.2641,-0.90466 -25.79643,-0.75453 -1.97973,0.022 -18.98737,-0.21508 -37.79477,-0.52677 -32.777451,-0.5432 -34.336306,-0.51965 -37.596958,0.5679 -3.063119,1.02168 -3.641883,1.04986 -5.814886,0.28318 -1.327256,-0.46829 -5.060765,-1.02646 -8.296687,-1.2404 -10.617879,-0.70197 -12.274296,-1.90904 -12.820513,-9.34264 -0.298031,-4.05599 -0.630344,-5.16854 -2.215566,-7.41751 -1.549521,-2.19833 -1.724667,-2.76224 -1.035552,-3.33416 0.456166,-0.37858 1.393261,-1.85313 2.082432,-3.27677 1.108562,-2.28997 1.184069,-3.01669 0.654867,-6.30273 -0.774987,-4.81224 0.76642,-35.99653 1.811188,-36.64224 0.514539,-0.318 0.414261,-1.90716 -0.38969,-6.17565 -0.980908,-5.20801 -1.009703,-6.52354 -0.306786,-14.01597 0.633932,-6.75713 0.634144,-9.09087 0.0012,-12.76745 -0.834825,-4.84894 -0.860895,-6.13877 -0.23783,-11.76655 0.376018,-3.396348 -0.228169,-6.949482 -1.940484,-11.411703 -0.302304,-0.787791 -0.160506,-0.932368 0.610208,-0.622165 0.552214,0.222261 1.453512,0.585066 2.002883,0.806235 0.924823,0.372321 0.96958,-1.128373 0.603857,-20.247196 -0.217249,-11.357128 -0.575431,-23.728883 -0.795959,-27.49279 l -0.400961,-6.843468 1.997778,0.399555 c 6.883668,1.376734 10.114936,1.219618 16.112332,-0.783441 l 5.84362,-1.951699 2.301961,1.562153 c 2.662972,1.807141 2.563554,1.794581 14.509527,1.832957 l 9.075455,0.02915 -0.526638,-1.388867 c -0.289652,-0.763877 -0.526639,-1.496681 -0.526639,-1.628452 0,-0.131772 1.237213,0.290746 2.749362,0.938929 2.470929,1.059164 4.126509,1.175683 16.347739,1.150557 12.66738,-0.02604 13.82113,-0.119727 16.85209,-1.368371 l 3.25371,-1.340412 1.36838,1.36837 c 1.70428,1.704283 3.19752,1.732761 5.27253,0.100554 l 1.61177,-1.267817 3.63335,1.630551 c 4.53753,2.036325 8.84758,2.446409 16.45505,1.565635 4.30741,-0.498701 7.59897,-0.514432 11.94502,-0.05709 3.29954,0.347219 14.73769,0.768161 25.4181,0.935426 15.82172,0.247783 19.74782,0.47419 21.19434,1.222211 3.48104,1.800117 3.48062,1.795441 3.48062,38.804972 0,37.783536 0.021,38.007076 3.95563,42.058406 2.08915,2.15113 2.12945,2.27419 1.11274,3.39764 -0.62814,0.69409 -1.83566,1.16567 -2.98479,1.16567 h -1.92988 l 0.0731,10.04861 c 0.0402,5.52673 -0.014,20.98209 -0.12059,34.34524 -0.17964,22.53034 -0.10803,24.64004 0.98506,29.02035 l 1.17879,4.72371 -1.88494,2.68805 c -5.32274,7.59055 -7.5074,8.54434 -17.12208,7.47524 -8.83134,-0.98199 -10.5222,-0.9015 -20.45792,0.97394 -8.16983,1.54212 -8.99064,1.59512 -13.49813,0.87164 z"
     id="path1"
     transform="matrix(0.75000079,0,0,0.75000079,0,-2.2259411e-4)" />
  <path
     style="fill:#ced1d2;stroke:#ffffff;stroke-width:0;stroke-dasharray:none"
     d="m 118.33562,426.60335 c -4.56801,-2.30987 -5.90647,-2.69736 -10.78258,-3.12158 -6.06081,-0.52728 -10.663832,-1.71533 -14.865872,-3.8369 -1.484794,-0.74966 -6.590658,-2.90306 -11.346364,-4.78534 C 68.183667,409.65203 61.37,405.07159 56.43851,398.11915 49.958851,388.98407 44.782533,374.85231 43.763602,363.51564 c -0.725984,-8.07733 1.665535,-21.23105 5.712184,-31.41791 2.446768,-6.15937 2.348189,-7.68414 -0.894252,-13.83187 -3.282622,-6.22392 -4.489958,-10.58485 -4.480518,-16.18374 0.01478,-8.76382 3.423793,-16.10983 9.274352,-19.98508 l 2.568871,-1.70154 -1.10069,-2.06688 c -1.551858,-2.91406 -1.444315,-3.28886 1.168309,-4.07162 3.115059,-0.93329 3.079961,-0.94588 3.079961,1.10488 0,0.98986 0.108175,1.79975 0.240389,1.79975 0.132214,0 1.684499,-0.67227 3.449522,-1.49393 4.677104,-2.17731 11.661111,-1.86968 21.069125,0.92804 3.376857,1.0042 4.540387,1.71854 6.899045,4.23564 4.716082,5.03289 6.904379,5.63875 12.9071,3.57351 1.8473,-0.63557 5.54265,-1.34608 8.21189,-1.57892 4.16489,-0.36331 5.3988,-0.75244 8.70065,-2.74389 2.11613,-1.27629 3.95984,-2.32053 4.09713,-2.32053 0.1373,0 0.13207,0.61495 -0.0116,1.36656 -0.16071,0.84073 0.17577,1.76206 0.87447,2.39437 1.08432,0.9813 1.32569,0.89393 5.33588,-1.93141 l 4.2002,-2.95919 0.74866,2.07037 c 0.93547,2.587 3.2886,3.85863 7.14031,3.85863 1.61345,0 6.40719,0.7037 10.65274,1.56377 10.4716,2.12135 12.95979,1.88284 17.50174,-1.67765 4.33392,-3.39741 7.33192,-4.93272 11.98818,-6.13928 7.29826,-1.89117 16.53474,-0.89272 25.67386,2.7753 3.41741,1.3716 3.60898,1.55782 3.78689,3.68127 0.18429,2.19942 0.22167,2.23016 2.24969,1.8497 1.89426,-0.35536 2.0623,-0.26703 2.0623,1.08411 0,0.80904 0.56622,4.14613 1.25827,7.41574 1.79215,8.46703 1.40279,14.96355 -1.18721,19.80872 -1.0389,1.9435 -2.59752,4.9902 -3.46359,6.77046 l -1.57467,3.23682 3.18316,13.55959 c 1.75073,7.45778 3.30719,15.49229 3.45879,17.85448 0.43763,6.81918 -0.46878,21.80402 -1.31888,21.80402 -0.44152,0 -1.2483,2.74595 -2.08945,7.11167 l -1.37023,7.11168 -6.22964,6.20844 c -5.86791,5.84794 -6.17281,6.27124 -5.25083,7.29001 0.53834,0.59486 0.86797,1.17589 0.73252,1.29119 -0.18601,0.1583 -15.32467,6.42736 -20.79345,8.61075 -0.43589,0.17403 -0.74989,1.37072 -0.74989,2.85794 v 2.55853 l -8.54882,0.40191 c -12.76872,0.6003 -13.64833,0.77331 -14.36364,2.82526 -0.51773,1.48515 -0.81687,1.66426 -2.1917,1.31221 -3.41726,-0.87503 -3.93213,-0.63964 -4.51366,2.06353 -0.6532,3.03631 -1.78844,3.30199 -2.56339,0.59992 -0.30755,-1.07235 -0.88652,-1.92273 -1.28662,-1.88974 -0.40009,0.033 -5.0786,0.10049 -10.39669,0.14998 l -9.66925,0.09 -2.19504,2.24969 -2.19503,2.24968 z m 14.26051,-58.86787 c 1.27034,-1.19342 1.2766,-1.19341 4.77211,0.009 1.92507,0.66231 3.71545,1.20421 3.97864,1.20421 0.26319,0 1.43575,-1.25365 2.6057,-2.78589 1.46039,-1.91261 2.1272,-3.41705 2.1272,-4.79934 v -2.01344 l -6.74907,-0.0108 c -3.71199,-0.006 -9.31371,-0.40602 -12.44828,-0.88911 -3.13456,-0.4831 -5.92313,-0.8832 -6.19681,-0.88912 -0.81836,-0.0177 0.21645,3.68433 1.91145,6.83816 2.68816,5.00177 6.7747,6.36519 9.99906,3.33606 z m 36.69334,-13.03459 c 0.29262,-1.23732 0.72851,-2.20063 0.96864,-2.14068 6.0601,1.51305 6.80901,1.53909 9.53843,0.33174 2.25622,-0.99804 2.98993,-1.75666 4.27698,-4.42222 0.85445,-1.76964 1.72906,-4.59806 1.94357,-6.28538 0.37856,-2.97775 0.34147,-3.08004 -1.263,-3.48273 -1.24127,-0.31154 -1.48196,-0.58593 -0.96632,-1.10157 0.37768,-0.37768 0.68669,-1.57374 0.68669,-2.65791 0,-1.63155 -0.40903,-2.24189 -2.3738,-3.54212 -1.46001,-0.96619 -2.62412,-2.32937 -3.02405,-3.54118 -2.63048,-7.97042 -17.44196,-12.99246 -25.73488,-8.72576 -6.51978,3.35442 -9.02247,11.47008 -6.01551,19.50691 1.85862,4.96761 9.28834,12.6009 15.4003,15.82226 2.55767,1.34804 4.96094,2.45939 5.34061,2.46966 0.37966,0.0103 0.92972,-0.99369 1.22234,-2.23102 z m -68.37621,-1.18572 c 8.29849,-3.50654 11.67714,-6.92363 14.59051,-14.75653 1.04401,-2.80694 1.25831,-4.47787 1.08983,-8.49766 -0.18487,-4.41089 -0.42293,-5.30635 -2.00946,-7.55843 -0.98987,-1.40511 -3.01459,-3.20541 -4.49938,-4.00066 -2.39119,-1.28072 -3.29323,-1.41939 -7.89522,-1.21368 -7.170807,0.32053 -12.512582,2.92468 -18.058483,8.80363 -4.234197,4.48847 -5.744947,7.59944 -7.213029,14.85321 -1.361665,6.72797 0.227128,10.88408 5.114762,13.37967 2.244057,1.14581 3.286627,1.2752 8.554669,1.06175 4.99926,-0.20256 6.720308,-0.54779 10.325801,-2.0713 z M 59.163326,314.01138 c 1.346033,-0.84971 5.187636,-4.16316 8.536895,-7.36321 7.031237,-6.71799 10.542474,-9.37249 15.988193,-12.08709 2.144703,-1.0691 3.936891,-1.97931 3.982641,-2.02269 0.1655,-0.15694 -1.51014,-10.70456 -1.736538,-10.93096 -0.12782,-0.12782 -4.197338,-0.41256 -9.043374,-0.63276 -7.520181,-0.3417 -9.329081,-0.24348 -12.347568,0.67044 -4.645525,1.40655 -8.884358,4.6783 -11.317588,8.73549 -4.085973,6.81299 -4.236772,13.22163 -0.485038,20.61313 1.273716,2.50942 2.689167,4.56258 3.145446,4.56258 0.45628,0 1.930899,-0.69522 3.276931,-1.54493 z m 150.419284,-2.37224 c 2.20474,-1.85516 3.86562,-6.54169 3.9273,-11.08174 0.12672,-9.32663 -9.24911,-18.47648 -19.56104,-19.0896 -7.27915,-0.4328 -15.36071,2.97079 -16.34255,6.88276 -0.7003,2.79019 0.75287,4.84404 6.19793,8.75988 2.84327,2.04476 7.47687,5.89635 10.29689,8.5591 7.77637,7.3427 11.94112,8.94861 15.48147,5.9696 z"
     id="path2"
     transform="matrix(0.75000079,0,0,0.75000079,0,-2.2259411e-4)" />
  <path
     style="fill:#ced1d2;stroke:#ffffff;stroke-width:0;stroke-dasharray:none"
     d="m 1376.0595,266.5149 c -4.0419,-0.10379 -7.349,-0.41739 -7.349,-0.69689 0,-0.27951 0.4271,-1.53039 0.9491,-2.77974 0.8169,-1.95498 0.8295,-2.33848 0.091,-2.75181 -0.472,-0.26415 -1.4824,-2.80283 -2.2452,-5.64152 -1.5136,-5.63228 -1.2015,-5.40473 -5.61,-4.08974 -1.0346,0.30861 -1.0856,0.0553 -0.6998,-3.47801 1.3734,-12.5794 6.2958,-20.80904 13.7752,-23.03019 3.5295,-1.04814 22.2459,-1.87888 27.5046,-1.2208 5.4914,0.6872 6.2749,1.72088 7.2992,9.63009 0.4692,3.62315 0.7298,6.71091 0.5791,6.86167 -0.1508,0.15077 -1.8358,0.38708 -3.7445,0.52515 -2.7738,0.20063 -4.5428,-0.12299 -8.8135,-1.61241 -6.2687,-2.18621 -9.3943,-2.34269 -12.2325,-0.6124 -2.0172,1.22978 -3.0928,1.24971 -7.704,0.14277 -1.2556,-0.30142 -1.3498,-0.12547 -1.3498,2.52101 0,8.47624 5.2232,13.71121 15.005,15.03903 2.6715,0.36264 2.7167,0.33972 3.4776,-1.76456 1.1666,-3.22598 3.8503,-5.19093 7.0897,-5.19093 4.6243,0 7.1229,2.04937 8.2559,6.77154 0.6792,2.83062 -0.6225,6.15316 -3.3127,8.45588 -3.9785,3.40548 -5.7226,3.57005 -30.9654,2.92186 z"
     id="path3"
     transform="matrix(0.75000079,0,0,0.75000079,0,-2.2259411e-4)" />
  <path
     style="fill:#ced1d2;stroke:#ffffff;stroke-width:0;stroke-dasharray:none"
     d="m 1441.8579,263.10707 -1.3358,-2.51786 1.0039,-9.86128 c 1.445,-14.19376 1.3946,-13.9847 4.3266,-17.96747 2.2119,-3.00468 2.9389,-3.59219 4.4454,-3.59219 1.7875,0 1.801,0.0251 1.801,3.36867 v 3.36867 l 3.1495,-0.34746 c 1.7323,-0.1911 5.8242,-0.52745 9.0931,-0.74745 5.0098,-0.33716 5.8919,-0.26569 5.6153,0.45503 -0.1804,0.47026 -1.1002,2.66225 -2.044,4.87109 l -1.7159,4.01607 -7.049,0.007 c -3.877,0.004 -7.045,0.20913 -7.04,0.45659 0.01,0.24747 0.3981,1.52979 0.8735,2.84961 1.1723,3.25382 1.1788,11.25205 0.011,13.51014 -1.0822,2.09274 -1.9397,2.59669 -6.4009,3.76166 l -3.3981,0.88738 z"
     id="path4"
     transform="matrix(0.75000079,0,0,0.75000079,0,-2.2259411e-4)" />
  <path
     style="fill:#ced1d2;stroke:#ffffff;stroke-width:0;stroke-dasharray:none"
     d="m 1465.7987,314.31938 c -2.0374,-0.80109 -2.3769,-1.7386 -1.621,-4.47607 0.5877,-2.12871 5.4413,-7.62769 7.95,-9.00715 1.0704,-0.58857 1.0785,-0.72437 0.15,-2.51985 -0.5398,-1.04377 -0.9814,-2.04614 -0.9814,-2.22751 0,-0.18136 1.3498,-0.32975 2.9996,-0.32975 3.3225,0 3.5553,-0.33153 1.7997,-2.56336 -1.5326,-1.94844 -1.5087,-2.12864 0.2382,-1.7947 1.2151,0.23229 1.8377,-0.31512 4.0176,-3.53272 1.4189,-2.09417 4.3591,-5.62984 6.5338,-7.85704 l 3.9541,-4.04943 h 4.6858 c 3.0974,0 5.3877,-0.33303 6.7562,-0.98243 2.3024,-1.09259 4.4115,-4.55792 4.4079,-7.24253 0,-1.70643 -1.645,-4.91401 -3.6223,-7.07293 -0.6044,-0.65991 -2.9067,-5.24927 -5.1162,-10.19858 -2.2094,-4.94932 -4.2221,-9.22609 -4.4725,-9.50393 -0.2505,-0.27784 -0.7754,0.46456 -1.1666,1.64977 -0.8138,2.46587 -1.0154,2.53419 -2.8828,0.97685 l -1.3647,-1.13817 1.9371,-3.9284 c 1.0655,-2.16061 2.1136,-3.64301 2.3292,-3.29423 0.2737,0.44294 1.4713,0.42181 3.9715,-0.0701 4.4795,-0.88129 6.8929,-0.28017 11.1454,2.77605 1.729,1.24259 3.2245,2.31186 3.3233,2.37617 0.099,0.0643 -0.1338,1.91799 -0.5172,4.11929 -0.3833,2.2013 -0.5394,4.15988 -0.3469,4.3524 0.1925,0.19252 1.5995,2.1e-4 3.1266,-0.42736 l 2.7766,-0.77739 -0.3597,-3.80477 c -0.1979,-2.09262 -0.5262,-5.55952 -0.7296,-7.70422 -0.4224,-4.45324 -0.6035,-4.33999 4.7307,-2.95775 3.0952,0.80204 5.0972,0.85197 13.4981,0.33666 5.4251,-0.33279 9.988,-0.72929 10.1399,-0.88113 0.1518,-0.15184 -0.6296,-0.96684 -1.7365,-1.8111 -3.301,-2.51784 -8.0029,-3.38408 -18.4395,-3.39719 -5.1274,-0.006 -12.1779,-0.39185 -15.6676,-0.85647 -16.0487,-2.13668 -18.9109,-3.95514 -28.7577,-18.2704 -1.9514,-2.83693 -5.0541,-6.87561 -6.8949,-8.97483 -1.8407,-2.09923 -4.1492,-5.40628 -5.1299,-7.34899 -0.9807,-1.94271 -2.0625,-3.5322 -2.4041,-3.5322 -0.3416,0 -1.4534,0.4304 -2.4707,0.95645 -1.5283,0.79033 -1.9383,0.81638 -2.3607,0.14998 -1.0235,-1.61501 -0.4668,-2.39998 2.6931,-3.79743 4.7777,-2.11297 6.9274,-2.35468 10.6357,-1.19591 2.425,0.75775 5.9543,1.05307 14.0379,1.17463 17.459,0.26254 20.7168,1.57114 33.5953,13.49464 6.5395,6.05452 14.2596,12.01449 15.5626,12.01449 0.3721,0 1.182,0.85581 1.7999,1.90182 0.6179,1.046 4.074,4.98323 7.6803,8.74941 7.2447,7.56589 8.8197,10.25005 8.8394,15.06434 l 0.013,3.21869 -3.4495,-0.42014 c -3.671,-0.44711 -7.5107,-1.8968 -10.3176,-3.89547 -2.1353,-1.52053 -2.4306,-1.52321 -2.4306,-0.0221 0,1.44608 -0.3907,1.47668 -3.3052,0.25892 -1.5657,-0.65416 -2.443,-0.74989 -2.8787,-0.31413 -1,0.99997 1.123,2.85998 6.0354,5.28784 3.745,1.85086 5.1862,2.22546 9.416,2.44747 l 4.9942,0.26213 -0.4934,1.87807 c -0.2713,1.03295 -0.7878,3.01347 -1.1476,4.40117 l -0.6543,2.52311 -8.8328,2.76424 c -4.8581,1.52033 -9.3053,2.90029 -9.8827,3.06656 -0.9168,0.264 -1.0498,-0.15384 -1.0498,-3.29676 0,-3.33234 0.1364,-3.69626 1.8414,-4.91028 2.3392,-1.66564 3.1469,-3.79308 2.6652,-7.01936 -0.3695,-2.47425 -0.4467,-2.54964 -2.6117,-2.54964 h -2.2309 l -1.9105,5.84919 c -1.0508,3.21705 -2.2057,7.06402 -2.5665,8.54881 -0.3608,1.4848 -2.4463,8.13237 -4.6345,14.77239 l -3.9786,12.07276 -4.0544,0.37682 c -5.0266,0.46717 -6.7761,-0.25166 -8.1408,-3.34481 l -1.0269,-2.32763 -4.1692,0.17372 -4.1691,0.17372 -4.407,9.54542 c -2.4238,5.24998 -4.3104,9.64205 -4.1923,9.76015 0.1181,0.1181 2.6263,-1.03301 5.5737,-2.55803 4.5671,-2.36304 5.8877,-2.77723 8.9373,-2.80299 3.7421,-0.0316 6.2779,0.49914 6.2779,1.31392 0,0.26381 -3.442,2.87776 -7.6489,5.80877 l -7.649,5.32911 2.2679,0.18727 c 3.1787,0.2625 8.5807,-1.40816 12.1791,-3.76652 1.6766,-1.09891 5.7653,-4.65758 9.0858,-7.90817 l 6.0375,-5.91018 1.6123,-5.39925 c 2.0417,-6.83687 3.64,-9.58073 7.7907,-13.37422 8.1156,-7.41723 18.0141,-8.80528 23.268,-3.26282 l 1.5538,1.63912 -7.4509,8.09627 c -4.098,4.45295 -7.4509,8.40676 -7.4509,8.78624 0,0.37949 -6.8841,6.31478 -15.2979,13.18953 -8.4138,6.87474 -15.2979,12.70708 -15.2979,12.96073 0,0.25367 0.8099,0.46121 1.7998,0.46121 0.9898,0 1.7997,0.23713 1.7997,0.52696 0,0.28983 -1.4423,1.63971 -3.2052,2.99974 l -3.2051,2.47277 -3.5439,-1.2409 c -3.7176,-1.30171 -6.5662,-1.3046 -14.3424,-0.0145 -5.5669,0.92354 -21.9369,1.34878 -23.7951,0.61812 z m 40.8927,-97.72849 c 0,-0.93195 -3.5163,-4.67095 -5.6093,-5.96446 -1.794,-1.1088 -9.8126,-2.83119 -10.4081,-2.23567 -0.4954,0.49537 2.7391,5.04089 4.4578,6.2647 0.9376,0.66768 2.6398,1.48223 3.7826,1.81012 2.7243,0.78162 7.777,0.86304 7.777,0.12531 z m 14.398,-7.28664 v -2.46643 l -2.2497,0.39871 c -1.2373,0.21929 -2.7075,0.53286 -3.2671,0.69682 -0.8496,0.24892 -1.0476,-0.21574 -1.1999,-2.81567 l -0.1823,-3.11378 -4.7994,-2.1172 c -2.6739,-1.17958 -6.1818,-2.23695 -7.9211,-2.3876 -3.3019,-0.28599 -7.3842,0.24086 -7.3658,0.95061 0.01,0.23252 3.8405,2.44748 8.521,4.92213 4.6806,2.47466 9.0558,5.03931 9.7227,5.69922 1.0193,1.00858 5.1835,2.38019 7.9917,2.6323 0.4893,0.0439 0.7499,-0.79 0.7499,-2.39911 z"
     id="path5"
     transform="matrix(0.75000079,0,0,0.75000079,0,-2.2259411e-4)" />
  <path
     style="fill:#ced1d2;stroke:#ffffff;stroke-width:0;stroke-dasharray:none"
     d="m 1576.9446,268.71188 c -0.7903,-0.31613 -1.5735,-0.4382 -1.7405,-0.27126 -0.1669,0.16694 -0.6001,-0.0993 -0.9627,-0.59167 -0.5524,-0.75009 -1.3885,-0.8002 -5.1586,-0.30915 -7.6627,0.99804 -6.7585,1.78833 -9.2243,-8.06189 -1.1958,-4.77673 -2.1741,-9.1601 -2.1741,-9.74083 0,-1.54294 6.1836,-16.43919 6.5708,-15.82921 0.1805,0.28427 2.7579,0.14987 5.7274,-0.29866 7.4021,-1.11803 9.5457,-1.0459 12.4146,0.41773 2.0285,1.03485 3.2992,1.22142 7.1329,1.04732 l 4.6648,-0.21184 -1.1576,1.87309 c -1.3923,2.25267 -1.4545,4.43275 -0.2578,9.02725 0.4949,1.90017 0.8999,5.1347 0.8999,7.18785 0,3.20677 -0.1693,3.7867 -1.2005,4.114 -1.5277,0.48487 -2.3462,2.03294 -3.6475,6.89885 l -1.0429,3.89946 -0.054,-2.84961 c -0.03,-1.56728 -0.2651,-2.8496 -0.5229,-2.8496 -0.2578,0 -2.0716,1.61977 -4.0307,3.5995 -3.7379,3.77738 -3.9334,3.86981 -6.2362,2.94867 z m 3.3575,-11.92314 c 2.119,-1.29203 3.7858,-4.01156 3.7654,-6.14364 -0.033,-3.49274 -4.3938,-9.28961 -8.0023,-10.6384 -3.5528,-1.32796 -4.1733,-1.40154 -3.8088,-0.45171 0.1955,0.50957 0.5249,1.82958 0.732,2.93334 0.3521,1.87661 0.2395,2.05639 -1.7349,2.77033 -4.936,1.78488 -6.8159,7.34835 -3.5205,10.41883 2.1369,1.99109 2.7422,2.18321 7.049,2.23719 2.5753,0.0323 4.146,-0.2881 5.5201,-1.12594 z"
     id="path6"
     transform="matrix(0.75000079,0,0,0.75000079,0,-2.2259411e-4)" />
  <path
     style="fill:#ced1d2;stroke:#ffffff;stroke-width:0;stroke-dasharray:none"
     d="m 1599.6785,240.9309 c 0,-0.72069 -0.5579,-2.37979 -1.2399,-3.68688 -0.6819,-1.30709 -1.3502,-2.91646 -1.4851,-3.57637 -1.3649,-6.67681 -1.4826,-6.89904 -3.6532,-6.89904 -4.4186,0 -7.9969,-3.11515 -8.029,-6.98971 -0.021,-2.57676 -0.9002,-2.69896 -3.7518,-0.52162 -3.8252,2.9208 -5.6395,3.53956 -7.7793,2.6532 -2.7657,-1.1456 -3.9989,-4.55796 -6.5732,-18.18948 -1.3137,-6.95609 -2.445,-12.705 -2.514,-12.77534 -0.1915,-0.19526 -6.4511,1.51004 -6.7912,1.85012 -0.164,0.16407 1.6555,7.26766 4.0433,15.78576 2.3879,8.51809 4.4623,15.92561 4.6099,16.46116 0.1837,0.66702 -0.3144,1.17682 -1.5816,1.61856 -1.0174,0.35467 -1.8498,1.06384 -1.8498,1.57593 0,2.71579 -4.916,-0.50633 -14.6066,-9.57368 -8.0693,-7.55032 -14.2974,-14.40242 -15.9081,-17.50192 -0.3746,-0.7207 -0.681,-3.90952 -0.681,-7.08624 0,-3.78033 -0.4484,-7.72805 -1.2979,-11.42618 -1.1469,-4.99286 -1.212,-6.03437 -0.5592,-8.95129 0.4063,-1.81556 0.9985,-3.46151 1.3159,-3.65769 0.6001,-0.37088 4.9094,1.93169 8.0572,4.30522 2.8222,2.12797 6.9583,3.80226 9.4286,3.81675 2.0693,0.0121 2.3465,0.22565 3.5123,2.70575 0.6961,1.48092 2.1539,3.47247 3.2395,4.42567 2.0528,1.8024 7.2633,4.11628 7.8801,3.49944 0.1947,-0.19472 -0.094,-2.36633 -0.6408,-4.82581 -0.7002,-3.14702 -1.6765,-5.44474 -3.2956,-7.75612 -2.1849,-3.11901 -2.2758,-3.43162 -1.8058,-6.20929 0.2722,-1.60871 0.7595,-5.35459 1.0829,-8.32418 0.5335,-4.89973 1.2278,-6.92765 7.505,-21.91935 3.8044,-9.08605 7.1006,-17.66781 7.3249,-19.07056 0.2346,-1.46709 0.6923,-2.45678 1.0774,-2.32992 1.2347,0.40675 2.1866,3.09209 1.8521,5.2251 -0.3094,1.97331 -0.066,2.35713 4.0434,6.37593 2.405,2.35192 5.7225,5.05155 7.3723,5.99917 l 2.9995,1.72295 -3.2377,0.18439 -3.2377,0.18438 2.3096,2.36526 2.3096,2.36526 h -2.2214 c -2.6913,0 -2.7627,0.45686 -0.4217,2.69963 0.9898,0.94835 1.7997,1.94372 1.7997,2.21195 0,0.26822 1.0189,1.50652 2.2641,2.75176 2.41,2.40996 3.7351,5.75259 3.7351,9.42177 0,1.23636 -0.4477,5.60476 -0.9948,9.70755 -0.7823,5.86639 -0.8612,8.31842 -0.3693,11.48056 l 0.6254,4.02093 -2.399,2.49242 c -2.0786,2.15945 -2.2496,2.53084 -1.2805,2.78001 0.8477,0.21793 0.7553,0.30668 -0.3812,0.36637 -1.5444,0.0811 -3.4837,1.0119 -2.9822,1.43127 1.448,1.21067 7.0608,5.22823 7.3042,5.22823 0.1724,0 0.6538,-1.60374 1.0697,-3.56388 0.416,-1.96013 1.1006,-3.69598 1.5214,-3.85746 0.4208,-0.16147 1.0813,-1.25183 1.4679,-2.42301 0.6038,-1.82962 2.1488,-3.11436 10.9735,-9.1253 6.9806,-4.75476 11.2341,-7.25 13.2778,-7.78912 1.6539,-0.43627 3.1047,-0.6955 3.2242,-0.57607 0.1194,0.11944 -0.6095,1.85463 -1.6197,3.85598 -1.6894,3.34662 -1.926,4.59893 -2.9458,15.59558 -0.9033,9.73956 -1.3209,12.22424 -2.2519,13.39916 -0.6286,0.79333 -5.4623,6.24086 -10.7416,12.10563 -5.2793,5.86477 -9.5987,10.95823 -9.5987,11.3188 0,0.36058 0.2742,0.74697 0.6093,0.85866 0.335,0.11169 6.9491,-5.34835 14.6979,-12.13341 7.7488,-6.78507 17.658,-15.08781 22.0204,-18.45055 l 7.9316,-6.11406 14.554,-3.63152 c 13.6427,-3.40411 14.6981,-3.58187 16.8548,-2.83882 1.2655,0.43597 2.5379,0.64618 2.8276,0.46712 0.8795,-0.54357 9.085,-0.44309 9.6462,0.11813 0.2989,0.29892 -0.1768,2.6624 -1.1072,5.50035 -1.4762,4.50282 -1.898,5.16778 -4.4348,6.99022 -1.7927,1.28794 -3.8501,3.68114 -5.7067,6.63819 -1.5969,2.54328 -4.0145,5.84893 -5.3725,7.34587 -2.2676,2.49975 -2.708,2.72521 -5.3992,2.76447 -2.5196,0.0368 -2.955,-0.13069 -3.1072,-1.19479 -0.097,-0.68065 0.6511,-2.8118 1.6632,-4.73588 1.0121,-1.92408 1.7594,-3.5792 1.6605,-3.67804 -0.3868,-0.38679 -5.4742,1.04448 -7.6401,2.14941 -1.2578,0.64172 -4.1252,3.06463 -6.372,5.38426 -2.2467,2.31963 -4.2982,4.2175 -4.5587,4.2175 -0.2606,0 -0.4737,-0.80989 -0.4737,-1.79975 0,-1.0435 -0.3151,-1.79688 -0.7499,-1.79291 -0.4125,0.004 -3.426,0.81365 -6.6968,1.79975 -3.2708,0.9861 -6.0379,1.79291 -6.1491,1.79291 -0.1113,0 -0.2,-0.7424 -0.1971,-1.64977 0,-1.35676 0.6456,-2.06236 3.6107,-3.97276 1.983,-1.27765 3.8029,-2.66483 4.0442,-3.08264 0.2413,-0.4178 2.1256,-1.18901 4.1874,-1.71381 4.9198,-1.25231 8.0259,-2.8834 10.033,-5.26872 1.6993,-2.01956 2.9603,-4.66523 2.4613,-5.16422 -0.1586,-0.15859 -2.2161,0.18409 -4.5723,0.76149 -4.8753,1.19476 -8.386,3.54314 -10.9059,7.2952 -1.2621,1.87926 -2.2406,2.60439 -4.2044,3.11592 -3.1186,0.81227 -3.4355,1.03315 -5.2814,3.68014 -0.8053,1.15484 -4.3693,5.27203 -7.92,9.1493 -5.6706,6.19222 -6.4558,7.30852 -6.4558,9.17853 0,4.73258 -2.4547,7.05678 -11.8483,11.21832 -5.8905,2.60959 -6.1492,2.66906 -6.1492,1.41382 z m -9.0427,-34.10953 c 1.0983,-3.71199 2.1289,-7.2215 2.2903,-7.79892 0.2561,-0.9168 -0.1683,-1.04986 -3.349,-1.04986 h -3.6423 l -0.3522,2.24969 c -0.1938,1.23733 -0.4765,3.02864 -0.6284,3.9807 -0.4536,2.84378 1.8268,9.36745 3.2744,9.36745 0.2257,0 1.309,-3.03708 2.4072,-6.74906 z m 15.1965,-1.98773 c 3.6641,-2.41356 6.2768,-6.68516 8.5081,-13.91007 0.3909,-1.26557 0.2434,-1.34982 -2.3626,-1.34982 -3.8299,0 -4.9771,0.77947 -5.7676,3.91852 -0.666,2.64527 -0.7083,2.68057 -3.2124,2.68057 h -2.5375 l -0.6916,4.94932 c -1.0469,7.49166 -1.1109,7.2399 1.5596,6.13077 1.2373,-0.51389 3.2641,-1.60257 4.504,-2.41929 z m -52.9431,1.62358 c 0,-0.21216 -0.5828,-2.93426 -1.3002,-6.04911 -1.2794,-5.55507 -1.3844,-5.75009 -5.4928,-10.19859 -2.3037,-2.49437 -4.4046,-4.62067 -4.6687,-4.72509 -0.5083,-0.201 -3.5404,5.3805 -3.5404,6.5173 0,1.22966 13.3414,15.47692 14.1885,15.15186 0.4452,-0.17084 0.8113,-0.4842 0.8136,-0.69637 z m 30.0558,-27.68197 c 2.3832,-2.95906 3.7581,-8.76179 3.2567,-13.74501 -0.5439,-5.40609 -2.6983,-13.35822 -3.5435,-13.0793 -0.3725,0.12291 -1.4117,1.6868 -2.3093,3.47529 -1.5395,3.06715 -1.6479,3.83091 -1.9087,13.45039 -0.1521,5.60922 -0.4739,11.12642 -0.715,12.26043 l -0.4384,2.06185 1.9835,-1.16197 c 1.091,-0.63908 2.7446,-2.10684 3.6747,-3.26168 z m -10.2627,-7.199 v -5.99917 l -2.5497,-0.019 -2.5496,-0.019 1.6665,-1.2431 c 2.4517,-1.8287 3.4328,-4.19735 3.4328,-8.28777 v -3.6293 h -2.0997 c -1.1549,0 -2.1051,0.20248 -2.1116,0.44994 -0.01,0.24747 -0.2981,2.33968 -0.648,4.64936 -0.9105,6.01167 -0.7473,13.75677 0.334,15.8478 0.702,1.3575 3.5674,4.12804 4.3753,4.23041 0.082,0.0104 0.15,-2.68062 0.15,-5.98016 z"
     id="path7"
     transform="matrix(0.75000079,0,0,0.75000079,0,-2.2259411e-4)" />
  <path
     style="fill:#ced1d2;stroke:#ffffff;stroke-width:0;stroke-dasharray:none"
     d="m 1687.6431,317.28055 c -4.9936,-2.57644 -9.5835,-3.38134 -25.2626,-4.43022 -7.5831,-0.50727 -14.7694,-1.18672 -15.9695,-1.50987 -2.8406,-0.7649 -4.9575,-2.46891 -6.1259,-4.93113 -0.8279,-1.74469 -1.5515,-2.17982 -6.0752,-3.65302 -4.9025,-1.59656 -5.1354,-1.75237 -5.1354,-3.43496 0,-1.43957 -0.253,-1.76254 -1.3808,-1.76254 -1.0849,0 -1.6478,-0.63221 -2.6274,-2.95095 -1.0059,-2.38082 -2.0405,-3.51089 -5.3553,-5.84919 -5.3984,-3.80816 -9.4729,-7.63963 -15.5782,-14.6491 -5.5374,-6.35747 -6.4649,-8.11213 -5.8946,-11.15171 0.3434,-1.83046 0.5599,-2.02484 1.963,-1.7623 0.8674,0.16229 6.0989,0.76007 11.6257,1.32839 l 10.0486,1.03332 v 3.97512 c 0,3.95516 0.014,3.98941 2.8846,6.8164 l 2.8846,2.84126 5.6642,-1.96135 c 4.713,-1.632 6.1931,-2.4712 8.8138,-4.99748 1.7322,-1.66987 3.1495,-3.3583 3.1495,-3.75207 0,-0.5062 -1.7315,-0.71594 -5.9104,-0.71594 -7.4502,0 -8.9294,-0.84962 -12.377,-7.10882 -1.3253,-2.40622 -2.9037,-4.65117 -3.5074,-4.98879 -1.5241,-0.85224 -5.4537,-0.3102 -9.5967,1.32374 -3.2238,1.27144 -3.7365,1.31795 -6.5991,0.5988 -5.3039,-1.33249 -5.1549,-1.10681 -4.2325,-6.41112 0.4432,-2.54867 0.7013,-4.73843 0.5736,-4.86612 -0.1277,-0.12769 -1.2023,0.0357 -2.3881,0.36312 -1.7417,0.4809 -2.156,0.43166 -2.156,-0.25622 0,-0.64936 0.9396,-0.85152 3.9574,-0.85152 3.75,0 4.0976,0.12338 6.6324,2.35461 2.6647,2.34564 6.9659,4.24448 9.6143,4.24448 1.3043,0 1.3929,-0.23164 1.3929,-3.64238 0,-3.30146 0.37,-4.3699 3.9526,-11.41552 2.1739,-4.27523 4.6148,-8.56014 5.4242,-9.52201 1.9021,-2.26057 7.5852,-4.4346 10.4205,-3.98628 1.2476,0.19728 2.6017,0.9558 3.3366,1.86904 l 1.2368,1.53701 5.8798,-0.72258 c 5.6489,-0.69421 5.903,-0.78916 6.4708,-2.41786 0.325,-0.9324 0.7052,-1.69527 0.8449,-1.69527 0.1396,0 2.0332,0.86759 4.208,1.92798 4.3133,2.10308 9.9716,6.77859 7.5962,6.27686 -1.1339,-0.2395 -1.4629,0.14291 -2.3054,2.67964 -1.5073,4.53807 -2.4845,4.92738 -10.9063,4.34522 -8.7656,-0.60591 -10.5923,-0.46212 -13.8657,1.09144 -7.4803,3.55022 -8.08,12.0451 -1.0893,15.42924 2.908,1.40775 10.3378,2.89901 11.0241,2.21268 0.227,-0.22703 -0.7222,-2.70129 -2.1094,-5.49836 -1.3872,-2.79706 -2.5222,-5.19489 -2.5222,-5.3285 0,-0.13361 1.3713,-0.69841 3.0474,-1.2551 4.2192,-1.4014 10.3668,-2.11193 14.6689,-1.69543 l 3.6182,0.3503 -1.1128,12.37888 c -0.612,6.80838 -1.2031,12.67398 -1.3136,13.03465 -0.1424,0.46524 -1.6548,0.41466 -5.205,-0.17407 -8.5647,-1.42026 -13.9181,0.0406 -17.3106,4.7239 -0.9855,1.36036 -1.7917,2.67474 -1.7917,2.92085 0,0.2461 2.2271,0.62797 4.9493,0.84858 10.5619,0.85599 15.8926,2.40871 19.2431,5.60512 l 1.6956,1.61761 -1.8538,0.29995 -1.8538,0.29996 2.2579,2.7879 c 2.7951,3.45109 4.8919,4.74462 9.0369,5.57495 l 3.2256,0.64616 -2.4714,3.10391 -2.4714,3.10392 4.0682,3.22011 c 2.2375,1.77106 5.0806,3.98104 6.3179,4.91106 1.7003,1.27801 2.2497,2.11891 2.2497,3.4434 0,2.07874 1.7644,5.74492 3.5357,7.34686 1.2256,1.10839 1.7261,2.78629 0.8137,2.72777 -0.2475,-0.0159 -2.0352,-0.84675 -3.9727,-1.84641 z m -29.1727,-12.90187 c 0,-1.01256 -2.7541,-4.63024 -5.0909,-6.68715 -2.0609,-1.8141 -16.7132,-9.7314 -18.0095,-9.7314 -0.163,0 -0.2964,0.82065 -0.2964,1.82366 0,4.48751 4.4788,9.45076 11.6815,12.94497 3.3926,1.64586 4.8938,2.02905 7.9489,2.02905 2.0715,0 3.7664,-0.17061 3.7664,-0.37913 z m 6.6069,-8.29923 c -1.3584,-3.57265 -3.2726,-6.61632 -5.6672,-9.01089 -2.2978,-2.29785 -3.5037,-2.87667 -11.1298,-5.34213 -4.704,-1.52077 -8.655,-2.76505 -8.78,-2.76505 -0.125,0 -0.2272,0.66221 -0.2272,1.47157 0,4.08385 3.4194,6.62955 9.7803,7.28124 l 4.0208,0.41195 -0.1515,2.36426 -0.1515,2.36425 5.9992,2.30931 c 3.2995,1.27012 6.1949,2.32855 6.4342,2.35208 0.2393,0.0235 0.182,-0.62294 -0.1273,-1.43659 z"
     id="path8"
     transform="matrix(0.75000079,0,0,0.75000079,0,-2.2259411e-4)" />
  <path
     style="fill:#ced1d2;stroke:#ffffff;stroke-width:0;stroke-dasharray:none"
     d="m 1574.782,377.43141 c -2.7544,-1.70139 -3.6269,-2.99991 -5.2964,-7.88257 -0.8462,-2.47466 -3.0124,-7.62145 -4.814,-11.43732 -5.431,-11.50381 -6.9872,-16.57094 -6.9872,-22.75103 0,-5.33705 0.2421,-6.48628 5.8152,-27.6031 1.0998,-4.16721 1.5531,-7.60144 1.6863,-12.77574 l 0.1822,-7.07654 3.0935,-4.71186 c 3.3445,-5.0943 3.0298,-4.91755 10.2404,-5.7529 l 3.3202,-0.38464 1.1029,4.25238 c 0.8736,3.36801 1.3371,4.25238 2.2291,4.25238 0.9291,0 1.1262,-0.4569 1.1262,-2.61163 0,-5.53469 0.7209,-9.90253 1.58,-9.57285 0.5177,0.19863 0.8196,-0.11025 0.8196,-0.8384 0,-0.71072 0.7478,-1.50826 1.9498,-2.07941 l 1.9497,-0.92651 1.1557,2.46517 c 0.6356,1.35584 2.7953,4.09344 4.7993,6.08356 2.004,1.99012 6.3433,6.54688 9.6428,10.12614 3.2996,3.57925 7.349,7.62019 8.9988,8.97985 l 2.9996,2.47212 -0.1717,5.84919 -0.1717,5.8492 h 2.4214 c 1.3317,0 2.4213,0.11074 2.4213,0.24609 0,0.13535 -0.8184,1.9576 -1.8187,4.04944 -1.5468,3.23471 -1.8027,4.43119 -1.7113,8.00276 l 0.1075,4.19942 -3.838,-0.13361 c -6.9028,-0.24031 -7.4027,-0.4453 -8.1809,-3.35512 -0.8047,-3.00843 -3.0965,-5.54225 -5.4203,-5.99258 -0.8993,-0.17427 -2.8912,-0.17 -4.4263,0.01 l -2.7912,0.32637 -0.6374,-3.2262 c -0.3506,-1.77442 -1.2543,-6.45664 -2.0082,-10.40495 -1.3564,-7.10391 -1.3903,-7.18433 -3.2505,-7.71567 -1.6998,-0.4855 -1.9055,-0.80441 -2.1481,-3.32916 -0.3148,-3.2759 -3.1509,-8.02598 -4.6175,-7.73345 -1.1642,0.23223 -1.2162,-0.21659 1.8605,16.05839 2.0362,10.77118 2.6742,13.15217 3.8688,14.43821 1.2576,1.35396 1.3514,1.76674 0.776,3.41714 -0.5039,1.44558 -0.4056,3.50526 0.4275,8.95856 0.5951,3.89477 1.0157,8.16125 0.9348,9.48107 -0.081,1.31981 -0.1647,5.16714 -0.1861,8.54962 l -0.039,6.14994 -6.4348,5.75093 -6.4347,5.75092 0.8727,3.39701 c 0.7187,2.79736 0.7442,4.00593 0.1446,6.84653 -0.617,2.9226 -0.9279,3.44918 -2.0355,3.44728 -0.719,-10e-4 -2.1172,-0.5025 -3.107,-1.11394 z m 7.4989,-30.36063 c 0,-4.6202 0.1567,-5.62028 0.8392,-5.35835 1.8802,0.72148 1.6141,-1.18594 -0.4538,-3.25393 -1.6874,-1.68735 -2.3244,-2.00577 -2.8871,-1.4431 -0.5626,0.56266 -0.4329,1.02955 0.5878,2.11607 l 1.3097,1.39412 -1.4976,2.02992 c -1.8756,2.54218 -1.9269,5.35046 -0.1478,8.09693 0.7424,1.14613 1.5522,2.08721 1.7997,2.0913 0.2475,0.004 0.4499,-2.54875 0.4499,-5.67296 z m -9.6387,-6.76614 c 0.6944,-6.89952 0.8719,-27.03842 0.265,-30.07259 -0.2062,-1.03111 -0.5578,-1.87474 -0.7813,-1.87474 -0.6947,0 -2.355,5.45258 -3.3795,11.09846 -0.5389,2.96959 -1.6279,7.82892 -2.4199,10.79851 -0.7921,2.96959 -1.4349,6.4791 -1.4285,7.79892 0.015,3.02025 1.8835,7.2095 4.3593,9.7723 l 1.9064,1.97337 0.4192,-1.56747 c 0.2306,-0.86211 0.7073,-4.42915 1.0593,-7.92676 z m 13.8382,-10.91538 c 0,-0.21173 -1.2149,-1.57723 -2.6997,-3.03444 -1.9222,-1.88651 -2.6996,-3.13179 -2.6996,-4.32433 0,-1.51416 -0.2014,-1.67484 -2.0997,-1.67484 -2.3636,0 -2.6216,0.54153 -0.9703,2.03597 1.1043,0.9994 1.0979,1.1447 -0.2879,6.54209 -2.117,8.24464 -2.2089,8.13826 3.6579,4.23402 2.8046,-1.86643 5.0993,-3.56674 5.0993,-3.77847 z m 24.6132,-20.2895 c 2.2153,-2.8163 2.0944,-3.88818 -0.956,-8.47559 -1.9922,-2.99601 -3.2116,-4.27207 -4.098,-4.28831 -0.7535,-0.0138 -1.7499,-0.79924 -2.4735,-1.94973 -1.3885,-2.20785 -5.4301,-3.93628 -6.5392,-2.79661 -0.4684,0.48127 0.183,1.39686 2.3517,3.30514 2.8073,2.4703 2.9002,2.64026 1.4498,2.65181 -0.8524,0.007 -1.7048,0.16729 -1.8942,0.35669 -0.3063,0.30637 1.2966,3.41598 5.9129,11.47077 1.3777,2.40398 1.5225,2.48842 3.2397,1.88979 0.9887,-0.34465 2.3417,-1.31843 3.0068,-2.16396 z"
     id="path9"
     transform="matrix(0.75000079,0,0,0.75000079,0,-2.2259411e-4)" />
  <path
     style="fill:#ced1d2;stroke:#ffffff;stroke-width:0;stroke-dasharray:none"
     d="m 1530.7904,328.84724 c -3.7731,-1.32354 -4.3315,-1.70166 -4.0802,-2.76281 0.1601,-0.67617 1.4408,-7.02102 2.8459,-14.09965 l 2.5548,-12.87025 4.9878,-7.18534 c 2.7433,-3.95194 4.9927,-7.47403 4.9986,-7.82689 0.01,-0.35285 1.2882,-1.51811 2.8496,-2.58946 1.5613,-1.07136 4.5677,-3.46636 6.6808,-5.32224 l 3.8419,-3.37431 4.4388,0.28487 c 2.4414,0.15668 4.6595,0.52696 4.9292,0.82286 0.2696,0.29589 -0.5614,3.91252 -1.8467,8.03694 -1.2853,4.12443 -3.2714,11.479 -4.4135,16.34349 -1.5158,6.45629 -2.7905,10.26309 -4.7204,14.09804 -2.5942,5.15489 -2.7042,5.2747 -5.8573,6.38113 -3.5403,1.24225 -8.5967,4.30169 -10.3196,6.24395 -0.6088,0.6863 -1.4245,2.17151 -1.8126,3.30045 l -0.7056,2.05263 z m 10.4613,-17.83607 c 0.3686,-1.46834 0.5322,-1.52573 3.2741,-1.14862 l 2.8861,0.39695 0.5919,-2.30091 c 1.8152,-7.05662 3.8513,-17.02895 3.5404,-17.33985 -0.1979,-0.19788 -3.1997,1.77831 -6.6706,4.39153 l -6.3108,4.75131 1.5982,1.59824 1.5983,1.59824 h -2.0187 -2.0187 l 0.4025,3.42446 c 0.572,4.86709 0.9776,6.17421 1.916,6.17421 0.4529,0 0.998,-0.6955 1.2113,-1.54556 z"
     id="path10"
     transform="matrix(0.75000079,0,0,0.75000079,0,-2.2259411e-4)" />
  <path
     style="fill:#ced1d2;stroke:#ffffff;stroke-width:0;stroke-dasharray:none"
     d="m 1703.1072,262.10342 c -1.6493,-1.81863 -2.225,-17.13497 -0.8433,-22.4366 l 0.9382,-3.5995 7.18,0.14475 c 3.9491,0.0796 8.8784,0.30475 10.954,0.50031 3.5251,0.3321 3.748,0.44125 3.3806,1.65499 -0.7135,2.35697 -2.7112,3.93397 -5.5165,4.35465 -1.6628,0.24936 -3.3972,1.02912 -4.5196,2.0319 -1.7537,1.56694 -1.8374,1.87251 -2.2577,8.24296 -0.4545,6.88636 -1.0065,8.7215 -2.9339,9.75299 -1.9631,1.05064 -5.134,0.72945 -6.3818,-0.64645 z"
     id="path11"
     transform="matrix(0.75000079,0,0,0.75000079,0,-2.2259411e-4)" />
  <path
     style="fill:#ced1d2;stroke:#ffffff;stroke-width:0;stroke-dasharray:none"
     d="m 1759.7828,263.79458 -2.7731,-0.60357 -0.3654,-3.66322 c -0.2387,-2.39384 -1.0521,-5.01665 -2.3473,-7.56903 l -1.982,-3.90582 3.3442,-4.79298 c 2.7174,-3.89473 3.783,-4.93769 5.6858,-5.56519 2.9167,-0.96186 5.4761,-0.44303 6.6496,1.34803 2.0155,3.07597 2.2373,11.67375 0.5153,19.97134 -0.3928,1.89229 -0.345,1.95025 1.62,1.96732 l 2.0248,0.0176 -1.9592,1.78217 c -1.6374,1.48941 -2.4258,1.76859 -4.7994,1.69956 -1.562,-0.0454 -4.088,-0.35422 -5.6133,-0.68619 z"
     id="path12"
     transform="matrix(0.75000079,0,0,0.75000079,0,-2.2259411e-4)" />
  <path
     style="fill:#ced1d2;stroke:#ffffff;stroke-width:0;stroke-dasharray:none"
     d="m 1760.4843,227.86138 c -0.7804,-0.28869 -1.7723,-0.99012 -2.2042,-1.55873 -1.0586,-1.39379 -1.0253,-5.68839 0.064,-8.29638 1.0079,-2.41245 1.7119,-2.40072 6.0761,0.10125 2.6538,1.52141 4.4345,3.74436 4.4345,5.53582 0,2.64649 -5.3422,5.33841 -8.3708,4.21804 z"
     id="path13"
     transform="matrix(0.75000079,0,0,0.75000079,0,-2.2259411e-4)" />
  <path
     style="fill:#ced1d2;stroke:#ffffff;stroke-width:0;stroke-dasharray:none"
     d="m 1802.5165,274.52469 c -2.4262,-1.34471 -3.0199,-3.21593 -3.0658,-9.66136 -0.023,-3.29954 -0.2816,-8.67501 -0.5736,-11.94548 -0.406,-4.54542 -0.3249,-7.01879 0.3443,-10.49855 0.4814,-2.50373 0.7345,-5.12108 0.5625,-5.81633 -0.2668,-1.07784 0.2381,-1.49797 3.4265,-2.85133 4.4606,-1.89332 4.658,-1.9047 7.5401,-0.43434 1.8063,0.92147 4.092,1.22357 11.5245,1.52315 5.0993,0.20553 10.3685,0.50717 11.7093,0.67031 l 2.438,0.29661 0.8545,6.4291 c 1.0374,7.80519 0.9055,10.92191 -0.5848,13.81892 -2.581,5.01742 -7.1952,7.55694 -14.9257,8.21466 -4.0007,0.34039 -5.3182,0.70769 -6.6955,1.86658 -1.6412,1.38102 -3.6216,5.82789 -3.6216,8.13228 0,0.94303 -0.5144,1.09005 -3.7495,1.07171 -2.0622,-0.0117 -4.3946,-0.37886 -5.1832,-0.81593 z m 23.1899,-20.14784 c 1.4073,-0.63878 2.715,-1.56847 2.9059,-2.06597 0.5238,-1.36503 -2.1964,-5.81754 -4.5036,-7.37157 -3.4759,-2.34126 -8.4925,-1.37572 -10.2885,1.98021 -1.4223,2.65743 0.534,7.09034 3.6282,8.22142 1.9263,0.70419 5.8161,0.34428 8.258,-0.76409 z"
     id="path14"
     transform="matrix(0.75000079,0,0,0.75000079,0,-2.2259411e-4)" />
</svg>
