<?xml version="1.0" encoding="UTF-8" standalone="no"?>
<!-- Created with Inkscape (http://www.inkscape.org/) -->

<svg
   width="9.2587233mm"
   height="82.642509mm"
   viewBox="0 0 9.2587232 82.64251"
   version="1.1"
   id="svg1"
   xmlns="http://www.w3.org/2000/svg"
   xmlns:svg="http://www.w3.org/2000/svg">
  <defs
     id="defs1" />
  <g
     id="layer1"
     transform="translate(-100.13938,-61.007853)">
    <path
       style="font-stretch:condensed;font-size:10px;font-family:Impact;-inkscape-font-specification:'Impact Condensed';fill:#ced1d2;stroke:#ffffff;stroke-width:0"
       d="m 65.998543,-105.65253 h -2.055664 v -1.37695 q 0,-0.60059 -0.06836,-0.74707 -0.06348,-0.15137 -0.288086,-0.15137 -0.253906,0 -0.322265,0.18067 -0.06836,0.18066 -0.06836,0.78125 v 3.67187 q 0,0.57617 0.06836,0.75195 0.06836,0.17579 0.307617,0.17579 0.229492,0 0.297852,-0.17579 0.07324,-0.17578 0.07324,-0.82519 v -0.99121 h 2.055664 v 0.30762 q 0,1.22558 -0.175781,1.73828 -0.170899,0.51269 -0.766602,0.89843 -0.59082,0.38575 -1.459961,0.38575 -0.90332,0 -1.489258,-0.32715 -0.585937,-0.32715 -0.776367,-0.90332 -0.19043,-0.58106 -0.19043,-1.74317 v -2.30957 q 0,-0.85449 0.05859,-1.27929 0.05859,-0.42969 0.34668,-0.8252 0.292969,-0.39551 0.805664,-0.62012 0.517578,-0.22949 1.186523,-0.22949 0.908203,0 1.499024,0.35156 0.59082,0.35157 0.776367,0.87891 0.185547,0.52246 0.185547,1.63086 z m 2.651367,-2.02148 -0.07813,0.84961 q 0.429687,-0.91309 1.245117,-0.9668 v 2.28027 q -0.541992,0 -0.795898,0.14649 -0.253907,0.14648 -0.3125,0.41016 -0.05859,0.25878 -0.05859,1.20117 v 2.55859 h -1.972656 v -6.47949 z m 5.917969,0 -0.566407,4.6875 q -0.131835,1.11328 -0.224609,1.51855 -0.08789,0.40528 -0.297851,0.66895 -0.209961,0.26367 -0.585938,0.38574 -0.371094,0.12695 -1.191406,0.12695 h -1.196289 v -1.03515 q 0.458984,0 0.59082,-0.0439 0.131836,-0.0488 0.131836,-0.20996 0,-0.0781 -0.12207,-0.67871 l -1.079102,-5.41992 h 1.791992 l 0.644532,4.37012 0.3125,-4.37012 z m 4.814453,2.27539 v 1.58691 q 0,0.87403 -0.08789,1.28418 -0.08789,0.40528 -0.375976,0.76172 -0.288086,0.35156 -0.742188,0.52246 -0.449219,0.16602 -1.035156,0.16602 -0.654297,0 -1.108399,-0.1416 -0.454101,-0.14649 -0.708007,-0.43457 -0.249024,-0.29297 -0.356446,-0.70313 -0.107422,-0.41504 -0.107422,-1.24023 v -1.66016 q 0,-0.90332 0.195313,-1.41113 0.195312,-0.50781 0.703125,-0.81543 0.507812,-0.30762 1.298828,-0.30762 0.664063,0 1.137695,0.2002 0.478516,0.19531 0.737305,0.51269 0.258789,0.31738 0.351563,0.6543 0.09766,0.33691 0.09766,1.02539 z m -1.972656,-0.48828 q 0,-0.49805 -0.05371,-0.625 -0.05371,-0.13184 -0.229493,-0.13184 -0.175781,0 -0.234375,0.13184 -0.05859,0.12695 -0.05859,0.625 v 2.9248 q 0,0.45899 0.05859,0.60059 0.05859,0.13672 0.229493,0.13672 0.175781,0 0.229492,-0.12696 0.05859,-0.12695 0.05859,-0.54687 z m 7.397461,-0.30274 h -2.055665 v -0.71777 q 0,-0.67871 -0.05859,-0.84961 -0.05859,-0.1709 -0.278321,-0.1709 -0.190429,0 -0.258789,0.14649 -0.06836,0.14648 -0.06836,0.75195 v 3.79395 q 0,0.53222 0.06836,0.70312 0.06836,0.16602 0.273438,0.16602 0.224609,0 0.302734,-0.19043 0.08301,-0.19043 0.08301,-0.74219 v -0.9375 H 82.39991 v -1.20117 h 2.407227 v 4.24316 h -1.293946 l -0.190429,-0.56641 q -0.209961,0.36622 -0.532227,0.55176 -0.317383,0.18067 -0.751953,0.18067 -0.517578,0 -0.97168,-0.24903 -0.449219,-0.2539 -0.683594,-0.625 -0.234375,-0.37109 -0.292968,-0.77636 -0.05859,-0.41016 -0.05859,-1.22559 v -2.34863 q 0,-1.13282 0.12207,-1.64551 0.122071,-0.5127 0.698242,-0.9375 0.581055,-0.42969 1.499024,-0.42969 0.90332,0 1.499023,0.3711 0.595703,0.37109 0.776367,0.88378 0.180665,0.50782 0.180665,1.4795 z m 2.70996,-1.48437 -0.07813,0.84961 q 0.429688,-0.91309 1.245118,-0.9668 v 2.28027 q -0.541993,0 -0.795899,0.14649 -0.253906,0.14648 -0.3125,0.41016 -0.05859,0.25878 -0.05859,1.20117 v 2.55859 h -1.972656 v -6.47949 z m 3.637696,-1.42578 v 1.03027 h -2.03125 v -1.03027 z m 0,1.42578 v 6.47949 h -2.03125 v -6.47949 z m 2.714844,0 -0.03418,0.57129 q 0.263672,-0.34668 0.581055,-0.51758 0.317382,-0.1709 0.693359,-0.1709 0.458984,0 0.791016,0.24902 0.336914,0.24415 0.419921,0.56641 0.08301,0.32227 0.08301,1.09375 v 2.72949 q 0,0.88379 -0.107422,1.25977 -0.102539,0.37109 -0.429687,0.5957 -0.322266,0.21973 -0.78125,0.21973 -0.366211,0 -0.678711,-0.1709 -0.3125,-0.1709 -0.571289,-0.50781 v 1.48437 h -1.972656 v -7.40234 z m 0.561523,1.88476 q 0,-0.60058 -0.04395,-0.72753 -0.04395,-0.12696 -0.244141,-0.12696 -0.195312,0 -0.253906,0.14649 -0.05371,0.14648 -0.05371,0.708 v 2.68555 q 0,0.58594 0.05859,0.73242 0.05859,0.14649 0.253906,0.14649 0.19043,0 0.234375,-0.13184 0.04883,-0.13672 0.04883,-0.6543 z m 4.443359,-3.31054 h 2.070311 q 0.83985,0 1.28906,0.13183 0.45411,0.13184 0.67872,0.38086 0.22949,0.24903 0.30761,0.60547 0.083,0.35156 0.083,1.09375 v 0.68848 q 0,0.75683 -0.15625,1.10351 -0.15625,0.34668 -0.57617,0.53223 -0.41504,0.18555 -1.08887,0.18555 h -0.55176 v 3.18359 h -2.055661 z m 2.055661,1.35254 v 2.01172 q 0.0879,0.005 0.15137,0.005 0.2832,0 0.39063,-0.13672 0.1123,-0.1416 0.1123,-0.58106 v -0.64941 q 0,-0.40527 -0.12695,-0.52734 -0.12696,-0.12207 -0.52735,-0.12207 z m 4.87793,0.0732 -0.0781,0.84961 q 0.42969,-0.91309 1.24512,-0.9668 v 2.28027 q -0.542,0 -0.7959,0.14649 -0.25391,0.14648 -0.3125,0.41016 -0.0586,0.25878 -0.0586,1.20117 v 2.55859 h -1.97265 v -6.47949 z m 6.06934,2.27539 v 1.58691 q 0,0.87403 -0.0879,1.28418 -0.0879,0.40528 -0.37598,0.76172 -0.28808,0.35156 -0.74219,0.52246 -0.44921,0.16602 -1.03515,0.16602 -0.6543,0 -1.1084,-0.1416 -0.4541,-0.14649 -0.70801,-0.43457 -0.24902,-0.29297 -0.35644,-0.70313 -0.10743,-0.41504 -0.10743,-1.24023 v -1.66016 q 0,-0.90332 0.19532,-1.41113 0.19531,-0.50781 0.70312,-0.81543 0.50781,-0.30762 1.29883,-0.30762 0.66406,0 1.1377,0.2002 0.47851,0.19531 0.7373,0.51269 0.25879,0.31738 0.35156,0.6543 0.0977,0.33691 0.0977,1.02539 z m -1.97266,-0.48828 q 0,-0.49805 -0.0537,-0.625 -0.0537,-0.13184 -0.22949,-0.13184 -0.17578,0 -0.23438,0.13184 -0.0586,0.12695 -0.0586,0.625 v 2.9248 q 0,0.45899 0.0586,0.60059 0.0586,0.13672 0.2295,0.13672 0.17578,0 0.22949,-0.12696 0.0586,-0.12695 0.0586,-0.54687 z m 9.16016,-0.30274 h -2.05567 v -0.71777 q 0,-0.67871 -0.0586,-0.84961 -0.0586,-0.1709 -0.27832,-0.1709 -0.19043,0 -0.25879,0.14649 -0.0684,0.14648 -0.0684,0.75195 v 3.79395 q 0,0.53222 0.0684,0.70312 0.0684,0.16602 0.27344,0.16602 0.22461,0 0.30273,-0.19043 0.083,-0.19043 0.083,-0.74219 v -0.9375 h -0.41504 v -1.20117 h 2.40723 v 4.24316 H 117.771 l -0.19043,-0.56641 q -0.20996,0.36622 -0.53222,0.55176 -0.31739,0.18067 -0.75196,0.18067 -0.51757,0 -0.97168,-0.24903 -0.44921,-0.2539 -0.68359,-0.625 -0.23437,-0.37109 -0.29297,-0.77636 -0.0586,-0.41016 -0.0586,-1.22559 v -2.34863 q 0,-1.13282 0.12207,-1.64551 0.12207,-0.5127 0.69824,-0.9375 0.58106,-0.42969 1.49902,-0.42969 0.90332,0 1.49903,0.3711 0.5957,0.37109 0.77636,0.88378 0.18067,0.50782 0.18067,1.4795 z m 2.76855,-2.91015 v 7.90527 h -2.03125 v -7.90527 z m 2.47071,3.93554 h -1.85059 v -0.43457 q 0,-0.75195 0.1709,-1.15722 0.17578,-0.41016 0.69824,-0.72266 0.52246,-0.3125 1.35742,-0.3125 1.00098,0 1.50879,0.35645 0.50781,0.35156 0.61035,0.86914 0.10254,0.51269 0.10254,2.11914 v 3.25195 h -1.91894 v -0.57617 q -0.18067,0.34668 -0.46875,0.52246 -0.28321,0.1709 -0.67871,0.1709 -0.51758,0 -0.95215,-0.28809 -0.42969,-0.29297 -0.42969,-1.27441 v -0.53223 q 0,-0.72754 0.22949,-0.99121 0.2295,-0.26367 1.1377,-0.61523 0.97168,-0.38086 1.04004,-0.5127 0.0684,-0.13183 0.0684,-0.53711 0,-0.50781 -0.0781,-0.65918 -0.0732,-0.15625 -0.24902,-0.15625 -0.2002,0 -0.24903,0.13184 -0.0488,0.12695 -0.0488,0.66894 z m 0.625,0.88868 q -0.47364,0.34668 -0.55176,0.58105 -0.0732,0.23438 -0.0732,0.67383 0,0.50293 0.0635,0.64941 0.0684,0.14649 0.26368,0.14649 0.18554,0 0.23925,-0.11231 0.0586,-0.11718 0.0586,-0.60547 z m 7.01172,-0.95215 h -1.86036 v -0.74707 q 0,-0.39063 -0.0635,-0.52735 -0.0635,-0.1416 -0.23438,-0.1416 -0.1709,0 -0.22949,0.12207 -0.0586,0.12207 -0.0586,0.54688 v 3.05664 q 0,0.34668 0.0879,0.52246 0.0879,0.1709 0.25879,0.1709 0.20019,0 0.26855,-0.18067 0.0732,-0.18066 0.0732,-0.68359 v -0.77148 h 1.75782 q -0.005,0.77636 -0.0586,1.16699 -0.0488,0.38574 -0.32715,0.7959 -0.27343,0.40527 -0.71777,0.61523 -0.44434,0.20508 -1.09863,0.20508 -0.83496,0 -1.32325,-0.2832 -0.48828,-0.28809 -0.69335,-0.80079 -0.2002,-0.51757 -0.2002,-1.46484 v -1.84082 q 0,-0.8252 0.16602,-1.24512 0.16601,-0.41992 0.708,-0.74707 0.542,-0.33203 1.31836,-0.33203 0.77149,0 1.31836,0.32715 0.54688,0.32715 0.72754,0.8252 0.18067,0.49804 0.18067,1.41113 z m 2.61718,-3.87207 v 1.03027 h -2.03125 v -1.03027 z m 0,1.42578 v 6.47949 h -2.03125 v -6.47949 z m 5.17578,3.35449 h -2.55371 v 1.40137 q 0,0.43945 0.0635,0.5664 0.0635,0.12696 0.24414,0.12696 0.22461,0 0.29785,-0.16602 0.0781,-0.1709 0.0781,-0.65429 v -0.8545 h 1.87011 v 0.47852 q 0,0.60058 -0.0781,0.92285 -0.0732,0.32227 -0.35156,0.68848 -0.27832,0.36621 -0.70801,0.55175 -0.42481,0.18067 -1.06934,0.18067 -0.625,0 -1.10351,-0.18067 -0.47852,-0.18066 -0.74707,-0.49316 -0.26367,-0.31738 -0.36621,-0.69336 -0.10254,-0.38086 -0.10254,-1.10351 v -1.88965 q 0,-0.84961 0.22949,-1.33789 0.22949,-0.49317 0.75195,-0.75196 0.52246,-0.26367 1.20117,-0.26367 0.83008,0 1.36719,0.31738 0.54199,0.3125 0.75684,0.83497 0.21972,0.51757 0.21972,1.45996 z m -1.97753,-1.05469 v -0.47363 q 0,-0.50293 -0.0537,-0.64941 -0.0537,-0.14649 -0.21972,-0.14649 -0.20508,0 -0.25391,0.12696 -0.0488,0.12207 -0.0488,0.66894 v 0.47363 z m 4.59472,-2.2998 -0.0781,0.84961 q 0.42968,-0.91309 1.24511,-0.9668 v 2.28027 q -0.54199,0 -0.79589,0.14649 -0.25391,0.14648 -0.3125,0.41016 -0.0586,0.25878 -0.0586,1.20117 v 2.55859 h -1.97265 v -6.47949 z"
       id="text1"
       transform="rotate(90)"
       aria-label="CryoGrip Pro Glacier" />
  </g>
</svg>
