<svg width="732" height="32" viewBox="0 0 732 32" fill="none" xmlns="http://www.w3.org/2000/svg">
<path d="M182.472 19.4159C182.472 17.8019 183.817 16.4568 185.431 16.4568C188.928 16.4568 192.425 16.4568 196.056 16.4568C196.056 15.2463 196.056 13.9013 196.056 12.6907C192.021 12.6907 187.986 12.6907 183.951 12.6907C183.951 11.7492 183.951 10.8077 183.951 9.73168C188.121 9.73168 192.425 9.73168 196.594 9.73168C198.881 9.73168 200.764 11.2112 200.764 13.0943C200.764 17.8019 200.764 22.5095 200.764 27.3516C195.653 27.3516 190.542 27.3516 185.431 27.3516C183.817 27.3516 182.472 26.0065 182.472 24.3925C182.472 22.644 182.472 21.0299 182.472 19.4159ZM187.179 19.2814L187.179 24.258L196.056 24.258L196.056 19.2814L187.179 19.2814Z" fill="#B3B3B3"/>
<path d="M228.336 12.6885C228.336 17.5306 228.336 22.3727 228.336 27.2148C226.722 27.2148 225.243 27.2148 223.629 27.2148C223.629 22.3727 223.629 17.5306 223.629 12.554C221.88 12.554 219.997 12.554 218.248 12.554C218.248 17.3961 218.248 22.2382 218.248 27.2148C216.634 27.2148 215.155 27.2148 213.541 27.2148C213.541 22.3727 213.541 17.5306 213.541 12.6885C211.792 12.6885 209.909 12.6885 208.161 12.6885C208.161 17.5306 208.161 22.3727 208.161 27.2148C206.547 27.2148 205.067 27.2148 203.453 27.2148C203.453 21.4312 203.453 15.5131 203.453 9.72946C210.716 9.72946 217.979 9.72946 225.377 9.72946C226.991 9.72946 228.336 11.0745 228.336 12.6885Z" fill="#B3B3B3"/>
<path d="M269.495 9.72946C269.495 15.5131 269.495 21.4312 269.495 27.2148C264.518 27.2148 259.676 27.2148 254.699 27.2148C253.085 27.2148 251.74 25.8698 251.74 24.2558C251.74 19.4137 251.74 14.5716 251.74 9.72946C253.22 9.72946 254.834 9.72946 256.313 9.72946C256.313 14.5716 256.313 19.5482 256.313 24.3903C259.138 24.3903 262.097 24.3903 264.922 24.3903C264.922 19.5482 264.922 14.5716 264.922 9.72946C266.401 9.72946 267.881 9.72946 269.495 9.72946Z" fill="#B3B3B3"/>
<path d="M159.337 4.62057C165.121 4.62057 170.904 4.62057 176.553 4.62057C178.167 4.62057 179.512 5.9656 179.512 7.57963C179.512 9.86618 179.512 12.0182 179.512 14.3048L179.647 14.4393C180.319 14.9773 180.723 15.7843 180.723 16.7258C180.723 19.2814 180.723 21.8369 180.723 24.3925C180.723 26.0065 179.378 27.3516 177.764 27.3516C171.711 27.2171 165.524 27.2171 159.337 27.2171C159.337 19.6849 159.337 12.1527 159.337 4.62057ZM175.208 17.5328C171.442 17.5328 167.676 17.5328 163.91 17.5328C163.91 19.6849 163.91 21.8369 163.91 23.8545C167.676 23.8545 171.442 23.8545 175.208 23.8545C175.746 23.8545 176.015 23.451 176.015 23.0475C176.015 21.4334 176.015 19.9539 176.015 18.3399C176.15 17.9364 175.746 17.5328 175.208 17.5328ZM173.998 14.3048C174.401 14.3048 174.805 13.9013 174.805 13.4978C174.805 11.8837 174.805 10.4042 174.805 8.79016C174.805 8.25215 174.401 7.98314 173.998 7.98314C170.635 7.98314 167.273 7.98314 164.045 7.98314C164.045 10.1352 164.045 12.2872 164.045 14.4393C167.407 14.3048 170.635 14.3048 173.998 14.3048Z" fill="#B3B3B3"/>
<path d="M230.624 4.34935C232.238 4.34935 233.717 4.34935 235.331 4.34935C235.331 6.09789 235.331 7.84642 235.331 9.72947C238.828 9.72946 242.326 9.72946 245.823 9.72946C247.571 9.72946 248.916 11.0745 248.916 12.6885C248.916 16.5891 248.916 20.3552 248.916 24.2558C248.916 25.8698 247.571 27.2148 245.823 27.2148C240.711 27.2148 235.6 27.2148 230.489 27.2148C230.624 19.5482 230.624 12.016 230.624 4.34935ZM235.466 12.554L235.466 24.2558L244.343 24.2558L244.343 12.554L235.466 12.554Z" fill="#B3B3B3"/>
<path d="M520.074 19.4159C520.074 17.8019 521.419 16.4568 523.033 16.4568C526.53 16.4568 530.027 16.4568 533.659 16.4568C533.659 15.2463 533.659 13.9013 533.659 12.6907C529.624 12.6907 525.589 12.6907 521.554 12.6907C521.554 11.7492 521.554 10.8077 521.554 9.73168C525.723 9.73168 530.027 9.73168 534.197 9.73168C536.484 9.73168 538.367 11.2112 538.367 13.0943C538.367 17.8019 538.367 22.5095 538.367 27.3516C533.255 27.3516 528.144 27.3516 523.033 27.3516C521.419 27.3516 520.074 26.0065 520.074 24.3925C520.074 22.644 520.074 21.0299 520.074 19.4159ZM524.782 19.2814L524.782 24.258L533.659 24.258L533.659 19.2814L524.782 19.2814Z" fill="#B3B3B3"/>
<path d="M548.857 12.6885C548.857 16.1856 548.857 19.6827 548.857 23.1798C548.857 23.8523 549.395 24.2558 550.068 24.2558C550.875 24.2558 551.682 24.2558 552.623 24.2558C552.623 25.1973 552.623 26.2733 552.623 27.2148C550.875 27.2148 548.992 27.2148 547.243 27.2148C545.629 27.2148 544.284 25.8698 544.284 24.2558C544.284 20.3552 544.284 16.5891 544.284 12.6885C543.073 12.6885 541.863 12.6885 540.652 12.6885C540.652 11.747 540.652 10.8055 540.652 9.72947C541.863 9.72947 543.073 9.72947 544.284 9.72947C544.284 7.98093 544.284 6.09789 544.284 4.34935C545.898 4.34935 547.378 4.34935 548.992 4.34935C548.992 6.09789 548.992 7.98093 548.992 9.72946C550.202 9.72946 551.413 9.72946 552.623 9.72946C552.623 10.671 552.623 11.6125 552.623 12.6885C551.278 12.6885 550.068 12.6885 548.857 12.6885Z" fill="#B3B3B3"/>
<path d="M466.272 4.34935L466.272 27.2148L470.98 27.2148L470.98 4.34935L466.272 4.34935Z" fill="#B3B3B3"/>
<path d="M420.272 4.34935C426.46 4.34935 432.781 4.34935 438.968 4.34935C440.582 4.34935 441.927 5.69438 441.927 7.30841C441.927 10.5365 441.927 13.63 441.927 16.8581C441.927 18.4722 440.582 19.8172 438.968 19.8172C434.261 19.8172 429.688 19.8172 424.98 19.8172C424.98 22.2382 424.98 24.7938 424.98 27.2148C423.366 27.2148 421.886 27.2148 420.272 27.2148C420.272 19.5482 420.272 12.016 420.272 4.34935ZM437.22 15.6476C437.22 13.2265 437.22 10.8055 437.22 8.38444C437.22 7.84642 436.816 7.57742 436.278 7.57742C432.512 7.57742 428.746 7.57742 424.846 7.57742C424.846 10.5365 424.846 13.4955 424.846 16.4546C428.612 16.4546 432.512 16.4546 436.278 16.4546C436.816 16.4546 437.22 16.1856 437.22 15.6476Z" fill="#B3B3B3"/>
<path d="M508.642 24.1213C508.642 17.5306 508.642 10.94 508.642 4.34935C510.256 4.34935 511.735 4.34935 513.349 4.34935C513.349 10.94 513.349 17.6651 513.349 24.2558C514.963 24.2558 516.443 24.2558 518.057 24.2558C518.057 25.1973 518.057 26.2733 518.057 27.2148C515.905 27.2148 513.753 27.2148 511.601 27.2148C509.987 27.2148 508.642 25.8698 508.642 24.1213Z" fill="#B3B3B3"/>
<path d="M484.296 4.34935C490.483 4.34935 496.805 4.34935 502.992 4.34935C504.606 4.34935 505.951 5.69438 505.951 7.30841C505.951 10.5365 505.951 13.63 505.951 16.8581C505.951 18.4722 504.606 19.8172 502.992 19.8172C498.284 19.8172 493.711 19.8172 489.004 19.8172C489.004 22.2382 489.004 24.7938 489.004 27.2148C487.389 27.2148 485.91 27.2148 484.296 27.2148C484.296 19.5482 484.296 12.016 484.296 4.34935ZM501.243 15.6476C501.243 13.2265 501.243 10.8055 501.243 8.38444C501.243 7.84642 500.84 7.57742 500.302 7.57742C496.536 7.57742 492.77 7.57742 488.869 7.57742C488.869 10.5365 488.869 13.4955 488.869 16.4546C492.635 16.4546 496.536 16.4546 500.302 16.4546C500.84 16.4546 501.243 16.1856 501.243 15.6476Z" fill="#B3B3B3"/>
<path d="M554.507 12.823C554.507 11.209 555.852 9.86397 557.466 9.86397C561.501 9.86397 565.67 9.86397 569.705 9.86397C571.319 9.86397 572.664 11.209 572.664 12.823C572.664 15.3786 572.664 17.9341 572.664 20.4897C568.091 20.4897 563.653 20.4897 559.08 20.4897C559.08 21.8347 559.08 23.0453 559.08 24.3903C563.518 24.3903 567.957 24.3903 572.261 24.3903C572.261 25.3318 572.261 26.2733 572.261 27.2148C567.284 27.2148 562.308 27.2148 557.331 27.2148C555.717 27.2148 554.372 25.8698 554.372 24.2558C554.507 20.3552 554.507 16.5891 554.507 12.823ZM559.214 12.6885L559.214 17.5306L568.091 17.5306L568.091 12.6885L559.214 12.6885Z" fill="#B3B3B3"/>
<path d="M444.617 27.2171C444.617 19.5504 444.617 12.0182 444.617 4.35156C450.401 4.35156 456.319 4.35156 462.103 4.35156C462.103 5.42758 462.103 6.50361 462.103 7.57963C458.067 7.57963 454.167 7.57963 450.132 7.57963C449.728 7.57963 449.325 7.98314 449.325 8.52115C449.325 10.2697 449.325 12.0182 449.325 13.7668C453.629 13.7668 457.798 13.7668 462.103 13.7668C462.103 14.8428 462.103 15.9188 462.103 17.1293C458.067 17.1293 454.167 17.1293 450.132 17.1293C449.728 17.1293 449.325 17.5328 449.325 17.9364C449.325 19.9539 449.325 21.9714 449.325 23.989C453.629 23.989 457.798 23.989 462.103 23.989C462.103 25.065 462.103 26.141 462.103 27.3516C456.319 27.2171 450.535 27.2171 444.617 27.2171Z" fill="#B3B3B3"/>
<path d="M303.659 17.5306L303.659 24.2558C303.659 25.8698 302.314 27.2148 300.7 27.2148L282.811 27.2148L282.811 23.8523L298.144 23.8523C298.548 23.8523 299.086 23.3143 299.086 22.9107L299.086 18.7412C299.086 18.2031 298.682 17.9341 298.144 17.9341L284.963 17.9341C283.349 17.9341 282.004 16.5891 282.004 14.9751L282.004 7.44291C282.004 5.82888 283.349 4.48385 284.963 4.48385L302.852 4.48385L302.852 7.71192L287.519 7.71192C286.981 7.71192 286.712 8.11543 286.712 8.65344L286.712 13.7646C286.712 14.3026 287.115 14.5716 287.519 14.5716L300.7 14.5716C302.314 14.5716 303.659 15.9166 303.659 17.5306Z" fill="#B3B3B3"/>
<path d="M331.232 12.6885L331.232 27.2148L326.524 27.2148L326.524 12.554L321.144 12.554L321.144 27.2148L316.436 27.2148L316.436 12.6885L311.056 12.6885L311.056 27.2148L306.349 27.2148L306.349 9.72946L328.273 9.72946C329.887 9.72946 331.232 11.0745 331.232 12.6885Z" fill="#B3B3B3"/>
<path d="M333.653 12.554C333.653 10.94 334.998 9.59496 336.612 9.59496L348.583 9.59496C350.197 9.59496 351.542 10.94 351.542 12.554L351.542 24.2558C351.542 25.8698 350.197 27.2148 348.583 27.2148L336.612 27.2148C334.998 27.2148 333.653 25.8698 333.653 24.2558L333.653 12.554ZM346.7 12.554L338.092 12.554L338.092 24.3903L346.7 24.3903L346.7 12.554Z" fill="#B3B3B3"/>
<path d="M353.693 12.554C353.693 10.94 355.038 9.59496 356.652 9.59496L368.623 9.59496C370.237 9.59496 371.582 10.94 371.582 12.554L371.582 24.2558C371.582 25.8698 370.237 27.2148 368.623 27.2148L356.652 27.2148C355.038 27.2148 353.693 25.8698 353.693 24.2558L353.693 12.554ZM366.875 12.554L358.266 12.554L358.266 24.3903L366.875 24.3903L366.875 12.554Z" fill="#B3B3B3"/>
<path d="M381.537 12.6885L381.537 23.1798C381.537 23.8523 382.075 24.2558 382.747 24.2558L385.303 24.2558L385.303 27.2148L379.923 27.2148C378.309 27.2148 376.964 25.8698 376.964 24.2558L376.964 12.6885L373.332 12.6885L373.332 9.72947L376.964 9.72947L376.964 4.34935L381.671 4.34935L381.671 9.72946L385.303 9.72946L385.303 12.6885L381.537 12.6885Z" fill="#B3B3B3"/>
<path d="M387.589 27.2148L387.589 4.34935L392.296 4.34935L392.296 9.72947L402.922 9.72946C404.536 9.72946 405.881 11.0745 405.881 12.6885L405.881 27.2148L401.174 27.2148L401.174 12.554L392.296 12.554L392.296 27.2148L387.589 27.2148Z" fill="#B3B3B3"/>
</svg>
