<svg width="419" height="37" viewBox="0 0 419 37" fill="none" xmlns="http://www.w3.org/2000/svg">
<path d="M86.0081 16.0552V21.1052H84.9482V20.0352H79.9482V17.5652C79.9482 17.3252 80.1482 17.1252 80.3882 17.1252H84.9482V16.0552H86.0081Z" fill="#B3B3B3"/>
<path d="M377.278 24.5552V27.2152H370.808V24.5552H377.278Z" fill="#B3B3B3"/>
<path d="M305.988 11.3252H306.588V12.8252H305.988C305.038 12.8152 304.078 12.8152 303.128 12.8152V11.5852C303.128 11.4352 303.248 11.3252 303.378 11.3252H305.988Z" fill="#B3B3B3"/>
<path d="M391.658 27.215H377.278V12.625H380.108L374.048 9.20502V7.375H383.238V24.595C383.238 24.905 383.488 25.155 383.798 25.155H391.658V27.215Z" fill="#B3B3B3"/>
<path d="M86.0081 14.4648V16.0548H84.9482C83.2782 16.0548 81.6182 16.0548 79.9482 16.0548V13.8948C79.9482 13.6448 80.1482 13.4448 80.3882 13.4448H84.9482L86.0081 14.4749V14.4648Z" fill="#B3B3B3"/>
<path d="M404.598 23.625V27.215H391.658V25.155C391.888 25.155 392.098 25.035 392.218 24.835C392.318 24.665 392.428 24.495 392.528 24.325H398.098V9.46503H392.498C392.398 9.23503 392.308 8.99501 392.218 8.76501H389.378C389.298 8.99501 389.208 9.23503 389.128 9.46503H383.238V7.375H407.828V9.20502L401.768 12.625H404.598V18.375H411.068V19.885H404.598V21.755H411.068V23.625H404.598Z" fill="#B3B3B3"/>
<path d="M242.318 15.0948H240.338C240.198 15.0948 240.088 14.9748 240.088 14.8448V10.7148H242.918L244.978 14.0748V15.7048H242.318V15.0948Z" fill="#B3B3B3"/>
<path d="M363.088 11.305V10.715H359.588C359.278 10.715 359.008 10.965 359.008 11.295V15.115C359.008 15.445 359.278 15.705 359.588 15.705H362.668C362.998 15.705 363.258 15.445 363.258 15.115V12.785H361.268V13.385H362.358V14.855C362.358 14.995 362.238 15.105 362.108 15.105H360.158C360.028 15.105 359.918 14.995 359.918 14.855V11.555C359.918 11.415 360.028 11.305 360.158 11.305H363.088ZM341.228 15.705V10.715H340.298V15.705H341.228ZM346.548 15.705V10.715H345.638V14.755L342.888 10.715H341.838V15.705H342.738V11.655L345.498 15.705H346.548ZM351.558 11.325V10.715H347.148V11.325H348.888V15.705H349.818V11.325H351.558ZM353.088 15.705V10.715H352.158V15.705H353.088ZM358.408 15.705V10.715H357.498V14.755L354.748 10.715H353.698V15.705H354.598V11.655L357.358 15.705H358.408ZM334.208 13.445V11.305C334.208 10.975 333.948 10.715 333.608 10.715H329.488V15.705H330.418V14.045H333.608C333.948 14.045 334.208 13.785 334.208 13.445ZM339.548 11.315C339.548 10.985 339.268 10.715 338.948 10.715H334.818V15.705H335.748V14.045H337.678C337.868 14.605 338.058 15.155 338.238 15.705H339.198C339.008 15.155 338.818 14.605 338.638 14.045H338.948C339.268 14.045 339.548 13.775 339.548 13.445V11.315ZM323.008 11.325H325.618V10.715H321.828V15.705H325.618V15.095H322.758V13.685C322.758 13.545 322.878 13.435 323.008 13.435H325.618V12.825C324.668 12.815 323.718 12.815 322.758 12.815V11.585C322.758 11.435 322.878 11.325 323.008 11.325ZM320.628 14.045C320.958 14.045 321.228 13.775 321.228 13.445V11.315C321.228 10.985 320.958 10.715 320.628 10.715H316.498V15.705H317.428V14.045H319.368C319.548 14.605 319.738 15.155 319.928 15.705H320.878C320.688 15.155 320.508 14.605 320.318 14.045H320.628ZM305.988 15.705V15.095H303.128V13.685C303.128 13.545 303.248 13.435 303.378 13.435H305.988V12.825H306.588V15.705H307.518V13.685C307.518 13.545 307.638 13.435 307.778 13.435H310.558V12.825H311.158V15.095C311.158 15.435 311.428 15.705 311.758 15.705H315.298C315.628 15.705 315.888 15.435 315.888 15.095V11.175C315.888 10.835 315.628 10.575 315.298 10.575H311.758C311.428 10.575 311.158 10.835 311.158 11.175H310.558V10.715H306.588V11.325H305.988V10.715H302.198V15.705H305.988ZM301.318 11.315C301.318 10.985 301.048 10.715 300.718 10.715H296.868V15.705H300.998C301.318 15.705 301.598 15.435 301.598 15.105V13.365C301.598 13.185 301.508 13.015 301.378 12.905C301.358 12.885 301.338 12.875 301.318 12.855V11.315ZM282.048 11.325V10.715H277.638V11.325H279.368V15.705H280.298V11.325H282.048ZM283.578 15.705V10.715H282.648V15.705H283.578ZM287.958 11.335V10.715H284.788C284.448 10.715 284.188 10.985 284.188 11.305V15.105C284.188 15.435 284.448 15.705 284.788 15.705H289.498V13.405H291.138L292.048 15.705H292.998L291.908 13.095L292.898 10.715H291.958L291.138 12.795H289.498V10.715H288.568V11.335H287.958ZM273.498 11.325H276.858V10.715H272.918C272.578 10.715 272.308 10.985 272.308 11.315V13.005C272.308 13.325 272.568 13.605 272.898 13.605H275.848C275.988 13.605 276.108 13.725 276.108 13.855V14.815C276.108 14.955 275.988 15.095 275.858 15.095H272.478V15.705H276.438C276.768 15.705 277.038 15.435 277.038 15.105V13.595C277.038 13.265 276.768 12.995 276.438 12.995H273.498C273.358 12.995 273.238 12.885 273.238 12.735V11.585C273.238 11.435 273.358 11.325 273.498 11.325ZM270.958 20.235C271.248 20.575 271.588 21.005 271.988 21.525C272.128 21.405 272.258 21.285 272.398 21.165C272.078 20.755 271.728 20.335 271.338 19.915C271.208 20.025 271.088 20.135 270.958 20.235ZM269.218 19.895H272.208V19.365H271.028C270.908 19.005 270.808 18.745 270.738 18.575C270.568 18.615 270.388 18.655 270.208 18.705C270.308 18.915 270.408 19.135 270.498 19.365H269.218V19.895ZM267.268 24.145C267.418 23.885 267.518 23.605 267.588 23.315C267.658 23.025 267.708 22.665 267.728 22.245H268.408V23.225C268.408 23.335 268.388 23.415 268.368 23.455C268.338 23.505 268.288 23.525 268.228 23.525C268.068 23.525 267.938 23.515 267.818 23.495C267.858 23.675 267.888 23.855 267.928 24.025C268.108 24.045 268.238 24.055 268.328 24.055C268.548 24.055 268.698 24.005 268.778 23.925C268.838 23.865 268.878 23.755 268.898 23.625L269.008 23.645C269.118 23.815 269.218 23.975 269.328 24.145C269.888 23.845 270.348 23.505 270.698 23.125C271.058 23.505 271.518 23.825 272.078 24.095C272.178 23.925 272.278 23.755 272.388 23.585C271.808 23.335 271.368 23.045 271.038 22.715C271.308 22.335 271.528 21.875 271.708 21.335C271.548 21.275 271.378 21.215 271.218 21.155C271.058 21.625 270.888 21.995 270.688 22.285C270.498 22.015 270.318 21.645 270.148 21.165C269.988 21.225 269.818 21.285 269.658 21.345L269.638 21.325C269.918 20.995 270.178 20.625 270.438 20.235L269.988 19.935C269.658 20.455 269.338 20.905 269.008 21.255H268.908V18.955H267.238V21.225C267.238 21.765 267.238 22.185 267.208 22.495C267.178 22.795 267.138 23.045 267.078 23.255C267.018 23.455 266.918 23.675 266.788 23.915C266.948 23.995 267.108 24.065 267.268 24.145ZM265.648 10.715V15.705H269.428V15.095H266.578V13.685C266.578 13.545 266.688 13.435 266.828 13.435H269.428V12.825C268.478 12.815 267.528 12.815 266.578 12.815V11.585C266.578 11.435 266.688 11.325 266.828 11.325H269.428V10.715H265.648ZM263.148 21.835C263.378 21.385 263.568 20.925 263.698 20.425V22.585H262.808V23.085H263.698V24.085H264.258V23.085H265.168V22.585H264.258V20.425C264.388 20.935 264.578 21.435 264.828 21.905C265.078 22.385 265.378 22.815 265.718 23.185C265.848 23.025 265.968 22.855 266.098 22.685C265.748 22.315 265.458 21.915 265.208 21.485C264.958 21.055 264.758 20.605 264.618 20.145H265.878V19.615H264.258V18.625H263.698V19.615H262.218V20.145H263.328C263.178 20.625 262.988 21.085 262.748 21.495C262.508 21.915 262.218 22.315 261.868 22.705C261.988 22.865 262.098 23.035 262.218 23.205C262.598 22.725 262.908 22.275 263.148 21.835ZM261.238 14.835V10.715H260.308V15.105C260.308 15.435 260.578 15.705 260.908 15.705H264.438C264.778 15.705 265.038 15.435 265.038 15.105V10.715H264.108V14.835C264.108 14.975 263.998 15.095 263.858 15.095H261.488C261.348 15.095 261.238 14.975 261.238 14.835ZM261.288 24.055H261.828V20.115C262.038 19.635 262.198 19.175 262.328 18.735L261.788 18.645C261.648 19.115 261.468 19.585 261.238 20.065C261.008 20.545 260.778 20.945 260.558 21.255C260.638 21.475 260.718 21.685 260.788 21.895C260.978 21.645 261.148 21.405 261.288 21.155V24.055ZM256.548 10.715V15.105C256.548 15.445 256.818 15.705 257.148 15.705H259.698V15.095H257.728C257.588 15.095 257.478 14.975 257.478 14.845V10.715H256.548ZM254.648 18.885V24.105H255.178V23.825H258.948V24.115H259.488V18.885H254.648ZM253.158 23.835C253.308 23.725 253.458 23.615 253.608 23.515C253.478 23.335 253.308 23.115 253.108 22.845C252.898 22.585 252.738 22.375 252.598 22.215C252.458 22.325 252.308 22.425 252.168 22.525C252.308 22.695 252.478 22.915 252.688 23.195C252.888 23.465 253.048 23.675 253.158 23.835ZM255.778 10.715H252.278C251.958 10.715 251.698 10.965 251.698 11.295V15.115C251.698 15.445 251.958 15.705 252.278 15.705H255.358C255.688 15.705 255.938 15.445 255.938 15.115V12.785H253.948V13.385H255.038V14.855C255.038 14.995 254.928 15.105 254.788 15.105H252.848C252.708 15.105 252.608 14.995 252.608 14.855V11.555C252.608 11.415 252.708 11.305 252.848 11.305H255.778V10.715ZM250.238 22.215C250.088 22.455 249.928 22.695 249.738 22.935C249.558 23.175 249.378 23.385 249.198 23.575C249.328 23.695 249.468 23.805 249.608 23.925C249.808 23.715 250.008 23.485 250.208 23.225C250.398 22.965 250.568 22.715 250.718 22.475C250.558 22.395 250.398 22.305 250.238 22.215ZM249.638 22.055H251.218V23.145C251.218 23.285 251.198 23.375 251.158 23.435C251.118 23.495 251.038 23.525 250.918 23.515C250.728 23.505 250.558 23.475 250.428 23.455C250.468 23.635 250.498 23.825 250.538 24.005C250.788 24.045 250.998 24.055 251.168 24.055C251.388 24.055 251.548 24.005 251.638 23.905C251.738 23.805 251.788 23.635 251.788 23.395V22.055H253.378V21.525H251.788V20.905H252.728V20.505C252.918 20.655 253.118 20.805 253.328 20.945C253.428 20.775 253.518 20.605 253.618 20.425C253.228 20.195 252.868 19.925 252.538 19.615C252.208 19.295 251.938 18.975 251.758 18.655H251.248C251.048 18.985 250.788 19.315 250.468 19.625C250.148 19.935 249.798 20.205 249.418 20.435C249.528 20.595 249.638 20.765 249.748 20.925C249.968 20.765 250.148 20.635 250.278 20.525V20.905H251.218V21.525H249.638V22.055ZM249.458 20.875C249.308 20.755 249.118 20.605 248.898 20.445C248.678 20.275 248.478 20.145 248.328 20.035C248.218 20.185 248.118 20.335 248.018 20.475C248.188 20.595 248.388 20.735 248.598 20.895C248.808 21.045 248.988 21.195 249.138 21.325C249.238 21.175 249.348 21.025 249.458 20.875ZM248.918 19.585C249.148 19.765 249.328 19.915 249.458 20.035C249.568 19.875 249.678 19.725 249.788 19.575C249.628 19.445 249.438 19.295 249.208 19.135C248.988 18.965 248.808 18.845 248.678 18.765C248.578 18.915 248.468 19.055 248.368 19.205C248.508 19.285 248.688 19.415 248.918 19.585ZM248.718 24.035C248.958 23.315 249.188 22.585 249.428 21.865L248.888 21.685C248.858 21.815 248.748 22.165 248.558 22.745C248.368 23.325 248.238 23.695 248.178 23.845C248.358 23.905 248.538 23.975 248.718 24.035ZM244.348 24.055V23.185H246.308V23.335C246.308 23.425 246.298 23.495 246.268 23.545C246.238 23.595 246.178 23.615 246.088 23.615C245.928 23.615 245.738 23.595 245.518 23.565C245.548 23.715 245.568 23.865 245.598 24.015C245.848 24.035 246.058 24.055 246.238 24.055C246.448 24.055 246.598 24.005 246.688 23.905C246.778 23.805 246.828 23.645 246.828 23.425V21.285H243.838V24.055H244.348ZM243.778 19.835V20.235H245.058V20.565H243.418V20.985H247.278V20.565H245.578V20.235H246.948V19.835H245.578V19.525H247.088V19.105H245.578V18.645H245.058V19.105H243.598V19.525H245.058V19.835H243.778ZM243.328 19.825C243.168 19.575 242.918 19.215 242.568 18.745C242.408 18.835 242.258 18.935 242.108 19.025C242.338 19.345 242.578 19.705 242.848 20.125L243.328 19.825ZM242.988 22.945V20.475H241.798V20.995H242.468V23.145C242.468 23.225 242.468 23.295 242.438 23.345C242.418 23.405 242.378 23.455 242.328 23.515C242.438 23.645 242.548 23.785 242.658 23.925C242.718 23.845 242.818 23.745 242.958 23.625C242.988 23.595 243.158 23.455 243.438 23.215C243.508 23.155 243.578 23.095 243.638 23.035C243.578 22.865 243.518 22.695 243.448 22.525C243.298 22.665 243.148 22.805 242.988 22.945ZM239.158 15.105C239.158 15.445 239.428 15.705 239.758 15.705H245.908V14.075H245.928L247.978 10.715H246.938L245.448 13.165L243.948 10.715H239.158V15.105ZM238.978 24.015C239.228 24.045 239.468 24.055 239.708 24.055C239.908 24.055 240.068 24.025 240.168 23.975C240.278 23.925 240.348 23.855 240.398 23.745C240.438 23.635 240.458 23.485 240.458 23.295V20.205H239.918V23.155C239.918 23.305 239.898 23.405 239.848 23.465C239.798 23.515 239.698 23.545 239.538 23.545C239.338 23.545 239.118 23.525 238.878 23.495C238.908 23.665 238.948 23.845 238.978 24.015ZM238.768 22.995H239.268V20.445H238.768V22.995ZM233.828 10.715V15.705H234.758V14.045H237.958C238.288 14.045 238.558 13.785 238.558 13.445V11.305C238.558 10.975 238.288 10.715 237.958 10.715H233.828ZM235.568 19.855H240.908V19.345H239.398C239.478 19.225 239.598 19.035 239.758 18.765C239.578 18.705 239.398 18.645 239.208 18.585C239.048 18.875 238.908 19.135 238.778 19.345H237.668C237.638 19.275 237.608 19.205 237.568 19.145C237.548 19.095 237.508 19.005 237.448 18.875C237.378 18.735 237.328 18.635 237.288 18.575C237.108 18.635 236.928 18.685 236.758 18.745C236.818 18.855 236.918 19.055 237.058 19.345H235.568V19.855ZM235.968 24.055H236.498V22.815H237.658V23.265C237.658 23.385 237.648 23.455 237.608 23.505C237.578 23.545 237.508 23.565 237.398 23.565C237.238 23.565 237.088 23.555 236.938 23.525C236.978 23.695 237.008 23.875 237.048 24.045C237.218 24.065 237.398 24.065 237.568 24.045C237.798 24.045 237.958 23.985 238.048 23.885C238.148 23.785 238.188 23.615 238.188 23.365V20.305H235.968V24.045V24.055ZM233.188 23.295C233.438 23.315 233.668 23.325 233.858 23.325C234.078 23.325 234.228 23.265 234.328 23.155C234.428 23.035 234.478 22.835 234.478 22.545V19.065H232.118V24.075H232.688V22.735H233.078C233.118 22.925 233.158 23.105 233.188 23.295ZM231.838 19.185C231.778 19.005 231.718 18.835 231.658 18.655C231.368 18.765 231.028 18.875 230.648 18.985C230.258 19.095 229.938 19.175 229.668 19.225V22.755C229.668 22.755 229.658 22.855 229.628 22.895C229.608 22.945 229.568 22.995 229.508 23.035C229.588 23.215 229.668 23.385 229.748 23.555C229.818 23.525 229.968 23.475 230.208 23.395C230.678 23.245 231.198 23.075 231.798 22.905C231.778 22.695 231.768 22.495 231.758 22.285C231.378 22.415 231.038 22.525 230.738 22.625C230.568 22.675 230.388 22.735 230.218 22.785V21.295H231.758V20.725H230.218V19.685C230.458 19.635 230.718 19.565 231.008 19.475C231.298 19.385 231.578 19.285 231.838 19.185ZM228.508 10.715V15.705H229.438V14.045H232.628C232.958 14.045 233.228 13.785 233.228 13.445V11.305C233.228 10.975 232.958 10.715 232.628 10.715H228.508ZM226.868 23.145C226.868 23.275 226.848 23.375 226.788 23.425C226.738 23.475 226.648 23.505 226.518 23.505C226.308 23.505 226.078 23.485 225.808 23.455L225.928 24.025C226.218 24.045 226.468 24.055 226.668 24.045C226.958 24.045 227.158 23.985 227.268 23.875C227.388 23.765 227.438 23.575 227.438 23.295V19.575H228.458V19.025H225.398V19.575H226.868V23.145ZM224.098 15.705V13.685H226.968V15.705H227.898V11.305C227.898 10.975 227.638 10.715 227.298 10.715H223.768C223.438 10.715 223.168 10.975 223.168 11.305V15.705H224.098ZM223.868 23.395C223.868 23.395 223.738 23.455 223.598 23.455C223.518 23.455 223.418 23.455 223.318 23.435C223.218 23.425 223.158 23.415 223.128 23.415L223.248 23.985C223.408 24.005 223.568 24.015 223.708 24.015C223.928 24.015 224.088 23.995 224.198 23.965C224.308 23.925 224.388 23.865 224.428 23.765C224.478 23.675 224.498 23.525 224.498 23.335V21.755C224.698 21.695 224.898 21.625 225.108 21.565C225.208 21.525 225.258 21.515 225.268 21.515L225.208 20.975C225.208 20.975 224.998 21.045 224.618 21.185L224.498 21.215V20.225H225.208V19.695H224.498V18.625H223.928V19.695H223.078V20.225H223.928V21.385C223.458 21.525 223.138 21.615 222.948 21.665C222.988 21.845 223.028 22.035 223.068 22.225C223.258 22.155 223.538 22.065 223.928 21.935V23.125C223.928 23.265 223.908 23.355 223.868 23.395ZM170.558 21.105V20.175H168.718V12.355H167.088V20.035C167.088 20.625 167.568 21.105 168.158 21.105H170.558ZM178.578 21.105V15.665C178.578 15.005 177.888 14.465 177.058 14.465H172.198V15.395H176.948V17.085H172.698C172.108 17.085 171.618 17.565 171.618 18.165V20.035C171.618 20.625 172.108 21.105 172.698 21.105H178.578ZM184.008 14.465H182.578V12.355H180.948V14.465H179.498V15.395H180.948V20.035C180.948 20.625 181.438 21.105 182.018 21.105H184.008V20.175L185.068 20.075C185.088 20.635 185.548 21.105 186.138 21.105H191.958V20.175H186.698V18.425H192.068V15.505C192.068 14.905 191.588 14.415 190.988 14.415H186.138C185.538 14.415 185.078 14.895 185.068 15.495L184.008 15.395V14.465ZM145.448 19.975C145.448 20.555 145.918 21.055 146.498 21.055H151.098V22.705H145.548V23.615H151.658C152.248 23.615 152.728 23.145 152.728 22.545V15.485C152.728 14.905 152.248 14.415 151.658 14.415H146.498C146.228 14.415 145.948 14.535 145.748 14.735C145.548 14.935 145.428 15.205 145.428 15.485C145.438 16.985 145.438 18.475 145.448 19.975ZM166.028 13.405C166.028 12.825 165.568 12.355 164.988 12.355H157.768V21.105H159.388V18.205H164.988C165.568 18.205 166.028 17.735 166.028 17.155V13.405ZM128.158 18.425V15.505C128.158 14.905 127.668 14.415 127.068 14.415H122.218C121.628 14.415 121.148 14.905 121.148 15.505V20.035C121.148 20.615 121.628 21.105 122.218 21.105H128.038V20.175H122.778V18.425H128.158ZM133.798 16.085V14.465H132.808C132.208 14.465 131.668 14.755 131.338 15.245C131.178 15.485 131.008 15.725 130.848 15.965V14.465H129.218V21.105H130.848V16.085H133.798ZM136.358 21.105V14.455H134.728V21.105H136.358ZM136.358 13.275V12.355H134.728V13.275H136.358ZM137.418 14.465V21.105H139.048V15.395H142.738V21.105H144.368V15.535C144.368 14.945 143.878 14.465 143.298 14.465H137.418ZM104.008 21.105V14.455H102.378V21.105H104.008ZM104.008 13.275V12.355H102.378V13.275H104.008ZM112.018 21.105V15.535C112.018 14.945 111.528 14.465 110.948 14.465H105.068V21.105H106.698V15.395H110.388V21.105H112.018ZM120.088 15.505C120.088 14.905 119.598 14.415 118.998 14.415H114.148C113.558 14.415 113.078 14.905 113.078 15.505V20.035C113.078 20.615 113.558 21.105 114.148 21.105H119.968V20.175H114.708V18.425H120.088V15.505ZM92.9582 21.105V15.535C92.9582 14.945 92.4682 14.465 91.8882 14.465H86.0081L84.9482 13.435V12.355H78.3181V21.105H87.6382V15.395H91.3282V21.105H92.9582ZM100.248 14.415H95.0882C94.8082 14.415 94.5382 14.535 94.3382 14.735C94.1382 14.935 94.0182 15.205 94.0182 15.485C94.0182 16.985 94.0281 18.475 94.0281 19.975C94.0281 20.555 94.5082 21.055 95.0882 21.055H99.6881V22.705H94.1382V23.615H100.248C100.838 23.615 101.318 23.145 101.318 22.545V15.485C101.318 14.905 100.838 14.415 100.248 14.415ZM72.6581 16.585V7.375H374.048V9.20502C372.018 10.345 369.998 11.485 367.978 12.625H370.808V18.375H377.278V19.885H370.808V21.755H377.278V23.625H370.808V27.215H67.6082V25.095H72.6581V17.515C70.8081 16.785 68.9581 16.055 67.0981 15.325V17.085H66.2382V14.395H67.0981C68.9581 15.125 70.8081 15.855 72.6581 16.585Z" fill="#B3B3B3"/>
<path d="M270.348 22.7149C270.028 23.0649 269.578 23.3749 269.008 23.6449L268.898 23.6249C268.898 23.6249 268.908 23.5149 268.908 23.4549V21.2549H269.008C269.138 21.3749 269.268 21.4849 269.398 21.6049C269.478 21.5149 269.568 21.4249 269.638 21.3249L269.658 21.3449C269.858 21.8949 270.088 22.3549 270.348 22.7149Z" fill="#B3B3B3"/>
<path d="M311.158 11.1748V12.8248H310.558C309.548 12.8148 308.528 12.8148 307.518 12.8148V11.5848C307.518 11.4348 307.638 11.3248 307.778 11.3248H310.558V11.1748H311.158Z" fill="#B3B3B3"/>
<path d="M183.128 20.175C182.828 20.175 182.578 19.925 182.578 19.615V15.395H184.008L185.068 15.495V20.075L184.008 20.175H183.128Z" fill="#B3B3B3"/>
<path d="M411.068 24.5552V27.2152H404.598V24.5552H411.068Z" fill="#B3B3B3"/>
<path d="M287.958 11.335H288.568V15.705H287.958V15.085H285.368C285.218 15.085 285.108 14.975 285.108 14.835V11.585C285.108 11.445 285.218 11.335 285.368 11.335H287.958Z" fill="#B3B3B3"/>
<path d="M233.078 22.735H232.688V19.625H233.928V22.325C233.928 22.495 233.908 22.615 233.868 22.685C233.838 22.745 233.758 22.785 233.648 22.785C233.478 22.785 233.288 22.765 233.078 22.735Z" fill="#B3B3B3"/>
<path d="M418.378 10.215V24.385C418.378 25.945 417.108 27.215 415.538 27.215H411.068V12.625H413.898C411.878 11.485 409.858 10.345 407.828 9.20502V7.375H415.538C417.108 7.375 418.378 8.64503 418.378 10.215Z" fill="#B3B3B3"/>
<path d="M396.598 10.9648H384.738V22.8248H396.598V10.9648Z" fill="#B3B3B3"/>
<path d="M338.618 11.5852V13.1752C338.618 13.3252 338.508 13.4352 338.368 13.4352H335.748V11.3252H338.368C338.498 11.3252 338.618 11.4352 338.618 11.5852Z" fill="#B3B3B3"/>
<path d="M333.278 11.5752C333.278 12.1152 333.288 12.6452 333.288 13.1852C333.288 13.3252 333.168 13.4352 333.028 13.4352H330.418V11.3252H333.028C333.168 11.3252 333.278 11.4352 333.278 11.5752Z" fill="#B3B3B3"/>
<path d="M320.298 11.5852C320.298 12.1152 320.298 12.6452 320.308 13.1752C320.308 13.3252 320.188 13.4352 320.048 13.4352H317.428V11.3252H320.048C320.178 11.3252 320.298 11.4352 320.298 11.5852Z" fill="#B3B3B3"/>
<path d="M314.958 11.4351V14.8351C314.958 14.9751 314.848 15.0851 314.708 15.0851H312.338C312.208 15.0851 312.088 14.9751 312.088 14.8351V11.4351C312.088 11.3051 312.208 11.1851 312.338 11.1851H314.708C314.848 11.1851 314.958 11.3051 314.958 11.4351Z" fill="#B3B3B3"/>
<path d="M300.668 13.7651V14.8351C300.668 14.9751 300.548 15.0952 300.418 15.0952H297.798V13.5151H300.418C300.548 13.5151 300.668 13.6351 300.668 13.7651Z" fill="#B3B3B3"/>
<path d="M300.388 11.5852V12.6452C300.388 12.7952 300.268 12.9052 300.138 12.9052H297.798V11.3252H300.138C300.268 11.3252 300.388 11.4352 300.388 11.5852Z" fill="#B3B3B3"/>
<path d="M268.408 20.895V21.715H267.738V21.455V20.895H268.408Z" fill="#B3B3B3"/>
<path d="M268.408 19.4849H267.738V20.3748H268.408V19.4849Z" fill="#B3B3B3"/>
<path d="M258.948 19.375V23.335H255.178V19.375H258.948ZM258.658 20.595V20.105H257.328V19.575H256.798V20.105H255.478V20.595H256.798V21.185H255.858V22.825H258.268V21.185H257.328V20.595H258.658Z" fill="#B3B3B3"/>
<path d="M257.788 21.625H256.338V22.395H257.788V21.625Z" fill="#B3B3B3"/>
<path d="M252.588 20.3851H250.448C250.898 20.0051 251.248 19.6151 251.508 19.2251C251.788 19.6251 252.148 20.0151 252.588 20.3851Z" fill="#B3B3B3"/>
<path d="M246.308 22.4448H244.348V22.7849H246.308V22.4448Z" fill="#B3B3B3"/>
<path d="M246.308 21.7148H244.348V22.0449H246.308V21.7148Z" fill="#B3B3B3"/>
<path d="M237.658 21.8149H236.498V22.345H237.658V21.8149Z" fill="#B3B3B3"/>
<path d="M237.658 20.8252H236.498V21.3452H237.658V20.8252Z" fill="#B3B3B3"/>
<path d="M237.628 11.5752V13.1852C237.628 13.3252 237.518 13.4352 237.378 13.4352H234.758V11.3252H237.378C237.508 11.3252 237.628 11.4352 237.628 11.5752Z" fill="#B3B3B3"/>
<path d="M232.298 11.5752V13.1852C232.298 13.3252 232.188 13.4352 232.048 13.4352H229.438V11.3252H232.048C232.178 11.3252 232.298 11.4352 232.298 11.5752Z" fill="#B3B3B3"/>
<path d="M226.968 11.5852V13.0652H224.098V11.5852C224.098 11.4352 224.208 11.3252 224.348 11.3252H226.718C226.858 11.3252 226.968 11.4352 226.968 11.5852Z" fill="#B3B3B3"/>
<path d="M190.428 15.3149H186.698V17.485H190.428V15.3149Z" fill="#B3B3B3"/>
<path d="M176.948 18.0151H173.248V20.1851H176.948V18.0151Z" fill="#B3B3B3"/>
<path d="M164.398 13.8651C164.408 14.8051 164.408 15.7551 164.418 16.6951C164.418 16.9251 164.218 17.1251 163.958 17.1251H159.388V13.4351H163.958C164.198 13.4351 164.398 13.6351 164.398 13.8651Z" fill="#B3B3B3"/>
<path d="M151.108 15.355L151.098 20.1249H147.058L147.068 15.355H151.108Z" fill="#B3B3B3"/>
<path d="M126.518 15.3149H122.778V17.485H126.518V15.3149Z" fill="#B3B3B3"/>
<path d="M118.448 15.3149H114.708V17.485H118.448V15.3149Z" fill="#B3B3B3"/>
<path d="M99.6982 15.355L99.6881 20.1249H95.6482L95.6581 15.355H99.6982Z" fill="#B3B3B3"/>
<path d="M72.6581 7.375V9.505H67.0981V14.395H66.2382V9.505H60.6782V19.275C62.5382 18.545 64.3882 17.815 66.2382 17.085H67.0981V25.095H67.6082V27.215H56.3382C55.5482 27.215 54.9182 26.585 54.9182 25.795V8.79504C54.9182 8.00504 55.5482 7.375 56.3382 7.375H72.6581ZM66.2382 25.095V18.015C64.3882 18.745 62.5382 19.475 60.6782 20.205V25.095H66.2382Z" fill="#B3B3B3"/>
<path d="M23.7682 8.79504V25.165C23.7682 25.925 22.8581 26.305 22.3181 25.765C16.6681 20.125 11.0281 14.475 5.37815 8.82501C4.83815 8.29501 5.21815 7.375 5.97815 7.375H22.3481C23.1381 7.375 23.7682 8.01504 23.7682 8.79504Z" fill="#B3B3B3"/>
<rect x="29.4181" y="7.375" width="19.8401" height="19.8398" rx="1" fill="#B3B3B3"/>
</svg>
