<svg width="40" height="540" viewBox="0 0 40 540" fill="none" xmlns="http://www.w3.org/2000/svg">
<path d="M38.1152 0H1V539.814H38.1152V0Z" fill="#535656"/>
<path d="M22.1988 135.48H11.5488V131.58H34.6488V135.48H24.5988V147.33H34.6488V151.23H11.5488V147.33H22.1988V135.48Z" fill="#CFD2D3"/>
<path d="M29.0988 154.08V157.98H11.5488V154.08H29.0988ZM34.6488 154.08V157.98H32.6988V154.08H34.6488Z" fill="#CFD2D3"/>
<path d="M26.25 160.83C27 160.83 27.6 161.13 28.05 161.58C28.5 162.03 28.8 162.78 28.8 163.38V177.33C28.8 178.83 27.6 180.03 26.1 180.03H7.2C5.7 180.03 4.5 178.83 4.5 177.33V161.13H6.45V176.13H11.4V163.53C11.4 162.03 12.6 160.83 14.1 160.83H26.25ZM26.85 176.13V164.73H13.5V176.13H26.85Z" fill="#CFD2D3"/>
<path d="M34.6488 182.879V186.779H28.9488V198.479C28.9488 199.979 27.7488 201.179 26.2488 201.179H11.5488V197.279H26.9988V186.779H11.5488V182.879H34.6488Z" fill="#CFD2D3"/>
<path d="M11.5488 222.629H32.2488V214.379H34.6488V234.779H32.2488V226.529H11.5488V222.629Z" fill="#CFD2D3"/>
<path d="M26.5488 236.879C28.0488 236.879 29.2488 238.079 29.2488 239.579V252.629C29.2488 254.129 28.0488 255.329 26.5488 255.329H18.7488V240.779H13.4988V255.029H11.5488V239.579C11.5488 238.079 12.7488 236.879 14.2488 236.879H26.5488ZM27.1488 240.779H20.6988V251.429H27.1488V240.779Z" fill="#CFD2D3"/>
<path d="M29.0988 258.181V280.831C29.0988 282.331 27.8988 283.531 26.3988 283.531H11.5488V279.631H26.6988H26.9988V272.881H11.5488V268.831H27.1488V261.931H11.5488V258.031H29.0988V258.181Z" fill="#CFD2D3"/>
<path d="M28.95 286.379V301.979C28.95 303.479 27.75 304.679 26.25 304.679H14.1C12.6 304.679 11.4 303.479 11.4 301.979V290.279H4.5V286.379H28.95ZM27 290.279H13.5V300.779H27V290.279Z" fill="#CFD2D3"/>
<path d="M26.5488 307.08C28.0488 307.08 29.2488 308.28 29.2488 309.78V322.83C29.2488 324.33 28.0488 325.53 26.5488 325.53H18.7488V310.98H13.4988V325.23H11.5488V309.78C11.5488 308.28 12.7488 307.08 14.2488 307.08H26.5488ZM27.1488 310.98H20.6988V321.63H27.1488V310.98Z" fill="#CFD2D3"/>
<path d="M28.7988 337.079V340.079H25.0488V332.129H11.5488V328.379H28.7988V332.129H25.0488L26.8488 333.329C28.0488 334.229 28.7988 335.579 28.7988 337.079Z" fill="#CFD2D3"/>
<path d="M19.3488 342.48C20.8488 342.48 22.0488 343.68 22.0488 345.18V357.03H27.1488V344.13H29.0988V357.03C29.0988 359.13 27.7488 360.93 26.0988 360.93H11.5488V345.18C11.5488 343.68 12.7488 342.48 14.2488 342.48H19.3488ZM19.9488 346.38H13.4988V357.03H19.9488V346.38Z" fill="#CFD2D3"/>
<path d="M13.4988 372.93V375.03H11.5488V369.93C11.5488 368.43 12.7488 367.23 14.2488 367.23H26.9988V363.33H28.9488V367.23H34.6488V371.13H28.9488V375.03H26.9988V371.13H15.2988C14.3988 371.13 13.4988 372.03 13.4988 372.93Z" fill="#CFD2D3"/>
<path d="M11.5488 395.28V380.13C11.5488 378.78 12.7488 377.58 14.0988 377.58H29.0988V381.33H13.4988V391.53H29.0988V395.28H11.5488Z" fill="#CFD2D3"/>
<path d="M28.7988 406.53V409.53H25.0488V401.58H11.5488V397.83H28.7988V401.58H25.0488L26.8488 402.78C28.0488 403.53 28.7988 405.03 28.7988 406.53Z" fill="#CFD2D3"/>
<path d="M26.5488 411.93C28.0488 411.93 29.2488 413.13 29.2488 414.63V427.68C29.2488 429.18 28.0488 430.38 26.5488 430.38H18.7488V415.83H13.4988V430.08H11.5488V414.63C11.5488 413.13 12.7488 411.93 14.2488 411.93H26.5488ZM27.1488 415.83H20.6988V426.48H27.1488V415.83Z" fill="#CFD2D3"/>
<path d="M34.6488 443.73V462.93C34.6488 464.43 33.4488 465.48 32.0988 465.48H21.8988C20.3988 465.48 19.3488 464.28 19.3488 462.93V447.48H11.5488V443.58H34.6488V443.73ZM23.2488 461.58H30.8988C31.6488 461.58 32.3988 460.98 32.3988 460.08V447.48H21.8988V460.08C21.7488 460.98 22.4988 461.58 23.2488 461.58Z" fill="#CFD2D3"/>
<path d="M14.2488 468.33H34.9488V472.23H13.6488V477.33H11.5488V471.03C11.5488 469.53 12.7488 468.33 14.2488 468.33Z" fill="#CFD2D3"/>
<path d="M19.3488 480.18C20.8488 480.18 22.0488 481.38 22.0488 482.88V494.73H27.1488V481.83H29.0988V494.73C29.0988 496.83 27.7488 498.63 26.0988 498.63H11.5488V482.88C11.5488 481.38 12.7488 480.18 14.2488 480.18H19.3488ZM19.9488 484.08H13.4988V494.73H19.9488V484.08Z" fill="#CFD2D3"/>
<path d="M13.4988 509.881V511.981H11.5488V506.881C11.5488 505.381 12.7488 504.181 14.2488 504.181H26.9988V500.281H28.9488V504.181H34.6488V508.081H28.9488V511.981H26.9988V508.081H15.2988C14.3988 508.081 13.4988 508.981 13.4988 509.881Z" fill="#CFD2D3"/>
<path d="M26.5488 514.08C28.0488 514.08 29.2488 515.28 29.2488 516.78V529.83C29.2488 531.33 28.0488 532.53 26.5488 532.53H18.7488V517.98H13.4988V532.23H11.5488V516.78C11.5488 515.28 12.7488 514.08 14.2488 514.08H26.5488ZM27.1488 517.98H20.6988V528.63H27.1488V517.98Z" fill="#CFD2D3"/>
<path d="M34.8 3.48041V21.3304C34.8 22.9804 33.45 24.3304 31.8 24.3304H24.75L24.6 24.4804C24 25.2304 23.1 25.5304 22.2 25.5304H14.25C12.6 25.5304 11.25 24.1804 11.25 22.5304V3.48041H34.8ZM21.3 19.9804V8.28041H14.7V19.9804C14.7 20.4304 15.15 20.8804 15.6 20.8804H20.4C21 20.8804 21.3 20.4304 21.3 19.9804ZM24.75 18.7804C24.75 19.2304 25.2 19.6804 25.65 19.6804H30.45C30.9 19.6804 31.35 19.2304 31.35 18.7804V8.43041H24.75V18.7804Z" fill="#CFD2D3"/>
<path d="M19.4984 28.5289C21.1484 28.5289 22.6484 29.8789 22.6484 31.6789V42.6289H26.5484V30.0289H29.5484V43.2289C29.5484 45.6289 28.0484 47.5789 26.0984 47.5789H11.3984V31.5289C11.3984 29.8789 12.7484 28.3789 14.5484 28.3789H19.4984V28.5289ZM19.4984 42.6289V33.3289H14.3984V42.4789H19.4984V42.6289Z" fill="#CFD2D3"/>
<path d="M26.3984 76.079H11.3984V71.129H26.5484V65.579H11.3984V60.779H26.5484V55.229H11.3984V50.279H29.5484V72.929C29.5484 74.579 28.1984 76.079 26.3984 76.079Z" fill="#CFD2D3"/>
<path d="M35.0984 78.48V83.43H29.5484V94.38C29.5484 96.18 28.1984 97.53 26.3984 97.53H14.5484C12.8984 97.53 11.3984 96.18 11.3984 94.38V78.48H35.0984ZM26.5484 92.58V83.43H14.3984V92.58H26.5484Z" fill="#CFD2D3"/>
<path d="M29.5484 118.382H11.3984V103.082C11.3984 101.432 12.7484 100.082 14.3984 100.082H29.5484V104.882H14.2484V113.882H29.5484V118.382Z" fill="#CFD2D3"/>
</svg>
