<svg width="31" height="738" viewBox="0 0 31 738" fill="none" xmlns="http://www.w3.org/2000/svg">
<path d="M16.77 150.39H9.63C8.19 150.39 7.03 149.23 7.03 147.79V129.27H9.42V145.05C9.42 145.82 10.19 146.49 11 146.49H15.53C16.3 146.49 16.97 145.82 16.97 145.01V130.98C17 129.57 18.16 128.41 19.57 128.41H27.62C29.03 128.41 30.22 129.61 30.22 131.08V149.53H27.79V133.82C27.79 133.05 27.12 132.38 26.35 132.38H20.83C20.02 132.38 19.35 133.05 19.35 133.82V147.77C19.35 149.21 18.19 150.37 16.75 150.37L16.77 150.39Z" fill="#B3B3B3"/>
<path d="M24.64 153.21V175.99C24.64 177.43 23.44 178.66 21.97 178.66H7.03V174.72L22.29 174.68H22.64V167.86H7.03V163.96H22.6V157.11H7.03V153.21H24.64Z" fill="#B3B3B3"/>
<path d="M22.07 181.48C23.48 181.48 24.64 182.64 24.64 184.05V196.74C24.64 198.18 23.48 199.34 22.07 199.34H9.58999C8.17999 199.34 7.01999 198.18 7.01999 196.74V184.05C7.01999 182.64 8.17999 181.48 9.58999 181.48H22.07ZM22.7 185.24H8.95999V195.54H22.7V185.24Z" fill="#B3B3B3"/>
<path d="M22.07 202.15C23.48 202.15 24.64 203.31 24.64 204.72V217.41C24.64 218.85 23.48 220.01 22.07 220.01H9.58999C8.17999 220.01 7.01999 218.85 7.01999 217.41V204.72C7.01999 203.31 8.17999 202.15 9.58999 202.15H22.07ZM22.7 205.91H8.95999V216.21H22.7V205.91Z" fill="#B3B3B3"/>
<path d="M9 232.04V234.18H7.03V229.05C7.03 227.57 8.19 226.38 9.67 226.38H22.5V222.48H24.5V226.38H30.23V230.28H24.5V234.18H22.5V230.28H10.79C9.81 230.28 9 231.09 9 232.04Z" fill="#B3B3B3"/>
<path d="M30.12 236.65V240.55H24.46V252.33C24.46 253.81 23.26 254.97 21.82 254.97H7.03V251.1H22.46V240.55H7.03V236.65H30.12Z" fill="#B3B3B3"/>
<path d="M30.23 268.33V287.63C30.23 289.07 29.07 290.23 27.63 290.23H17.47C16.03 290.23 14.87 289.07 14.87 287.63V272.2H7.03V268.33H30.23ZM18.73 286.33L26.36 286.29C27.17 286.29 27.8 285.66 27.8 284.85V272.19H17.25V284.85C17.25 285.66 17.92 286.33 18.73 286.33Z" fill="#B3B3B3"/>
<path d="M30.23 293.04V310.55H27.8V298.42C27.8 297.61 27.13 296.98 26.36 296.98H20.21V310.55H17.82V298.42C17.82 297.61 17.15 296.98 16.34 296.98H9.42V310.55H7.03V293.04H30.23Z" fill="#B3B3B3"/>
<path d="M30.23 314.07V317.97H7.03V314.07H30.23Z" fill="#B3B3B3"/>
<path d="M30.23 331.33V350.63C30.23 352.07 29.07 353.23 27.63 353.23H17.47C16.03 353.23 14.87 352.07 14.87 350.63V335.2H7.03V331.33H30.23ZM18.73 349.33L26.36 349.29C27.17 349.29 27.8 348.66 27.8 347.85V335.19H17.25V347.85C17.25 348.66 17.92 349.33 18.73 349.33Z" fill="#B3B3B3"/>
<path d="M9.74 356.05H30.48V359.99H9.07V365.05H7.03V358.72C7.03 357.24 8.26 356.05 9.74 356.05Z" fill="#B3B3B3"/>
<path d="M14.83 367.87C16.31 367.87 17.5 369.07 17.5 370.51V382.39H22.63V369.42H24.63V382.43C24.63 384.57 23.29 386.33 21.64 386.33H7.03V370.51C7.03 369.07 8.23 367.87 9.7 367.87H14.83ZM15.46 371.77H9.03V382.39H15.46V371.77Z" fill="#B3B3B3"/>
<path d="M9 398.35V400.49H7.03V395.36C7.03 393.88 8.19 392.69 9.67 392.69H22.5V388.79H24.5V392.69H30.23V396.59H24.5V400.49H22.5V396.59H10.79C9.81 396.59 9 397.4 9 398.35Z" fill="#B3B3B3"/>
<path d="M21.97 402.96C23.45 402.96 24.64 404.16 24.64 405.63V418.78C24.64 420.26 23.44 421.45 21.97 421.45H14.27V406.9H9V421.14H7.03V405.64C7.03 404.16 8.23 402.97 9.7 402.97H21.97V402.96ZM22.71 406.9H16.31V417.52H22.71V406.9Z" fill="#B3B3B3"/>
<path d="M30.23 445.5L7.03 438.79V436.58L30.23 443.26V445.51V445.5Z" fill="#B3B3B3"/>
<path d="M17.75 464.49H7.03V460.62H30.23V464.49H20.14V476.44H30.23V480.34H7.03V476.44H17.75V464.49Z" fill="#B3B3B3"/>
<path d="M24.54 483.16V487.06H7.03V483.16H24.54ZM30.23 483.16V487.06H28.23V483.16H30.23Z" fill="#B3B3B3"/>
<path d="M21.79 489.87C22.49 489.87 23.16 490.15 23.65 490.64C24.14 491.13 24.42 491.8 24.42 492.5V506.49C24.42 507.93 23.22 509.13 21.78 509.13H2.64C1.2 509.13 0 507.93 0 506.49V490.18H2V505.22H6.99V492.53C6.99 491.05 8.15 489.86 9.63 489.86H21.79V489.87ZM22.39 505.23V493.81L8.96 493.77V505.23H22.39Z" fill="#B3B3B3"/>
<path d="M30.12 511.95V515.85H24.46V527.63C24.46 529.11 23.26 530.27 21.82 530.27H7.03V526.4H22.46V515.85H7.03V511.95H30.12Z" fill="#B3B3B3"/>
<path d="M7.03 551.89H27.8V543.63H30.23V564.05H27.8V555.79H7.03V551.89Z" fill="#B3B3B3"/>
<path d="M21.97 566.17C23.45 566.17 24.64 567.37 24.64 568.84V581.99C24.64 583.47 23.44 584.66 21.97 584.66H14.27V570.11H9V584.35H7.03V568.85C7.03 567.37 8.23 566.18 9.7 566.18H21.97V566.17ZM22.71 570.11H16.31V580.73H22.71V570.11Z" fill="#B3B3B3"/>
<path d="M24.64 587.48V610.26C24.64 611.7 23.44 612.93 21.97 612.93H7.03V608.99L22.29 608.95H22.64V602.13H7.03V598.23H22.6V591.38H7.03V587.48H24.64Z" fill="#B3B3B3"/>
<path d="M24.43 615.75V631.43C24.43 632.91 23.23 634.07 21.76 634.07H9.6C8.16 634.07 6.96 632.91 6.96 631.43V619.65H0V615.75H24.43ZM22.43 619.65H8.93V630.2H22.43V619.65Z" fill="#B3B3B3"/>
<path d="M30.23 647.08V666.38C30.23 667.82 29.07 668.98 27.63 668.98H17.47C16.03 668.98 14.87 667.82 14.87 666.38V650.95H7.03V647.08H30.23ZM18.73 665.08L26.36 665.04C27.17 665.04 27.8 664.41 27.8 663.6V650.94H17.25V663.6C17.25 664.41 17.92 665.08 18.73 665.08Z" fill="#B3B3B3"/>
<path d="M9.74 671.79H30.48V675.73H9.07V680.79H7.03V674.46C7.03 672.98 8.26 671.79 9.74 671.79Z" fill="#B3B3B3"/>
<path d="M14.83 683.61C16.31 683.61 17.5 684.81 17.5 686.25V698.13H22.63V685.16H24.63V698.17C24.63 700.31 23.29 702.07 21.64 702.07H7.03V686.25C7.03 684.81 8.23 683.61 9.7 683.61H14.83ZM15.46 687.51H9.03V698.13H15.46V687.51Z" fill="#B3B3B3"/>
<path d="M9 714.09V716.23H7.03V711.1C7.03 709.62 8.19 708.43 9.67 708.43H22.5V704.53H24.5V708.43H30.23V712.33H24.5V716.23H22.5V712.33H10.79C9.81 712.33 9 713.14 9 714.09Z" fill="#B3B3B3"/>
<path d="M21.97 718.7C23.45 718.7 24.64 719.9 24.64 721.37V734.52C24.64 736 23.44 737.19 21.97 737.19H14.27V722.64H9V736.88H7.03V721.38C7.03 719.9 8.23 718.71 9.7 718.71H21.97V718.7ZM22.71 722.64H16.31V733.26H22.71V722.64Z" fill="#B3B3B3"/>
<path d="M30.24 0V17.93C30.24 19.58 28.91 20.95 27.22 20.95H20.29L20.15 21.09C19.59 21.83 18.71 22.21 17.79 22.21H9.88001C8.19001 22.21 6.82001 20.84 6.82001 19.19V0H30.23H30.24ZM16.85 16.52V4.85H10.24V16.52C10.24 17.01 10.63 17.4 11.12 17.4H16.01C16.47 17.4 16.85 17.01 16.85 16.52ZM20.22 15.25C20.22 15.71 20.61 16.13 21.1 16.13H25.99C26.48 16.13 26.87 15.71 26.87 15.25V4.85H20.23V15.25H20.22Z" fill="#B3B3B3"/>
<path d="M14.95 25.03C16.67 25.03 18.08 26.44 18.08 28.16V39.16H22.02V26.54H25.04V39.72C25.04 42.11 23.49 44.04 21.59 44.04H6.83002V28.15C6.83002 26.43 8.24002 25.02 9.96002 25.02H14.95V25.03ZM15.02 39.16V29.92H9.85002V39.16H15.02Z" fill="#B3B3B3"/>
<path d="M21.91 72.71H6.83002V67.79H22.02V62.24H6.83002V57.35H21.98V51.8H6.83002V46.88H25.04V69.59C25.04 71.31 23.63 72.72 21.91 72.72V72.71Z" fill="#B3B3B3"/>
<path d="M30.6 75.17V80.09H25.05V91.06C25.05 92.82 23.64 94.22 21.92 94.22H9.97C8.25 94.22 6.84 92.81 6.84 91.06V75.17H30.6ZM22.02 89.3V80.09H9.89V89.3H22.02Z" fill="#B3B3B3"/>
<path d="M25.04 115.11H6.83002V99.75C6.83002 98.06 8.20002 96.69 9.89002 96.69H25.04V101.44H9.75002V110.4H25.04V115.11Z" fill="#B3B3B3"/>
</svg>
