<svg width="732" height="32" viewBox="0 0 732 32" fill="none" xmlns="http://www.w3.org/2000/svg">
<path d="M239.531 5.023L239.531 22.5092C239.531 24.1986 240.894 25.5916 242.554 25.5916L257.491 25.5916L257.491 22.1239L245.251 22.1239C244.747 22.1239 244.392 21.7387 244.392 21.2645L244.392 6.29742C244.392 5.82322 244.777 5.43793 245.251 5.43793L257.491 5.43793L257.491 1.99996L242.554 1.99996C240.865 1.99996 239.531 3.36329 239.531 5.023Z" fill="#B3B3B3"/>
<path d="M275.6 7.51266L263.3 7.51266C261.611 7.51266 260.307 8.84636 260.307 10.5061L260.307 22.539C260.307 24.2283 261.641 25.562 263.3 25.562L275.6 25.562C277.23 25.562 278.593 24.1987 278.593 22.539L278.593 10.5061C278.593 8.81672 277.23 7.51266 275.6 7.51266ZM273.881 22.6575L264.99 22.6575L264.99 10.4172L273.881 10.4172L273.881 22.6575Z" fill="#B3B3B3"/>
<path d="M296.317 7.51266L284.017 7.51266C282.328 7.51266 281.024 8.84636 281.024 10.5061L281.024 22.539C281.024 24.2283 282.357 25.562 284.017 25.562L296.317 25.562C297.947 25.562 299.31 24.1987 299.31 22.539L299.31 10.5061C299.31 8.81672 297.947 7.51266 296.317 7.51266ZM294.627 22.6575L285.736 22.6575L285.736 10.4172L294.627 10.4172L294.627 22.6575Z" fill="#B3B3B3"/>
<path d="M306.631 1.99996L301.77 1.99996L301.77 22.45C301.77 24.1986 303.163 25.5916 304.882 25.5916L311.521 25.5916L311.521 22.5685L306.631 22.5685L306.631 1.99996Z" fill="#B3B3B3"/>
<path d="M343.381 1.99996L324.087 1.99996L324.087 25.5916L328.948 25.5916L328.948 17.945L343.411 17.945C345.1 17.945 346.464 16.5817 346.464 14.922L346.464 5.023C346.464 3.33365 345.1 1.99996 343.411 1.99996L343.381 1.99996ZM341.574 13.7068C341.574 14.2107 341.188 14.5663 340.714 14.5663L328.948 14.5663L328.948 5.37865L340.684 5.37865C341.159 5.37865 341.603 5.76394 341.603 6.23815L341.603 13.7068L341.574 13.7068Z" fill="#B3B3B3"/>
<path d="M354.081 1.99996L349.22 1.99996L349.22 22.45C349.22 24.1986 350.613 25.5916 352.332 25.5916L358.971 25.5916L358.971 22.5685L354.081 22.5685L354.081 1.99996Z" fill="#B3B3B3"/>
<path d="M375.657 7.51256L362.557 7.51257L362.557 10.506L375.094 10.506L375.094 14.4181L364.157 14.4181C362.438 14.4181 361.045 15.8111 361.045 17.5301L361.045 22.4796C361.045 24.1986 362.438 25.5916 364.157 25.5916L379.954 25.5916L379.954 10.9505C379.954 9.05372 378.028 7.5422 375.657 7.5422L375.657 7.51256ZM375.094 22.5981L365.906 22.5981L365.906 17.4708L375.094 17.4708L375.094 22.5981Z" fill="#B3B3B3"/>
<path d="M391.394 1.99996L386.534 1.99996L386.534 7.5422L382.74 7.54221L382.74 10.5356L386.534 10.5356L386.534 22.4796C386.534 24.1986 387.927 25.5916 389.646 25.5916L395.158 25.5916L395.158 22.5685L392.58 22.5685C391.958 22.5685 391.394 22.035 391.394 21.4126L391.394 10.5652L395.158 10.5652L395.158 7.57184L391.394 7.57184L391.394 1.99996Z" fill="#B3B3B3"/>
<path d="M413.297 7.63126L400.701 7.63126C398.982 7.63126 397.618 9.02424 397.618 10.7432L397.618 22.5094C397.618 24.2284 398.982 25.6213 400.701 25.6213L416.112 25.6213L416.112 22.6576L402.449 22.6576L402.449 18.6565L416.409 18.6565L416.409 10.7729C416.409 9.05387 415.016 7.6609 413.297 7.6609L413.297 7.63126ZM411.548 15.6038L402.42 15.6038L402.42 10.5358L411.548 10.5358L411.548 15.6038Z" fill="#B3B3B3"/>
<path d="M132.806 12.4028L132.806 5.5269C132.806 3.83755 131.442 2.53349 129.812 2.53349L112 2.53349L112 25.7991L131.057 25.7991C132.687 25.7991 134.05 24.4357 134.05 22.776L134.05 14.922C134.05 14.0033 133.665 13.1438 132.924 12.5807L132.776 12.4325L132.806 12.4028ZM116.831 5.88255L127.174 5.88255C127.619 5.88255 128.034 6.26784 128.034 6.74204L128.034 11.6026C128.034 12.0768 127.619 12.4621 127.174 12.4621L116.831 12.4621L116.831 5.88255ZM129.279 21.5312C129.279 22.0351 128.893 22.3907 128.419 22.3907L116.831 22.3907L116.831 15.8408L128.419 15.8408C128.923 15.8408 129.279 16.2261 129.279 16.6707L129.279 21.5312Z" fill="#B3B3B3"/>
<path d="M151.448 7.69054L138.348 7.69054L138.348 10.684L150.885 10.684L150.885 14.5961L139.948 14.5961C138.229 14.5961 136.836 15.9891 136.836 17.7081L136.836 22.6576C136.836 24.3766 138.229 25.7695 139.948 25.7695L155.745 25.7695L155.745 11.1285C155.745 9.2317 153.819 7.72018 151.448 7.72018L151.448 7.69054ZM150.885 22.7761L141.697 22.7761L141.697 17.6488L150.885 17.6488L150.885 22.7761Z" fill="#B3B3B3"/>
<path d="M181.085 7.69045L158.531 7.69045L158.531 25.7694L163.421 25.7694L163.421 10.7431L168.934 10.7431L168.934 25.7991L173.795 25.7991L173.795 10.7135L179.307 10.7135L179.307 25.7991L184.197 25.7991L184.197 10.8024C184.197 9.08342 182.804 7.69045 181.085 7.69045Z" fill="#B3B3B3"/>
<path d="M202.425 7.69054L191.548 7.69054L191.548 2.17793L186.657 2.17793L186.657 25.7695L202.425 25.7695C204.173 25.7695 205.566 24.3766 205.566 22.6576L205.566 10.8025C205.566 9.08351 204.173 7.69054 202.425 7.69054ZM200.676 22.7465L191.518 22.7465L191.518 10.7136L200.676 10.7136L200.676 22.7465Z" fill="#B3B3B3"/>
<path d="M221.63 22.8947L212.739 22.8947L212.739 7.69054L208.026 7.69054L208.026 22.7465C208.026 24.4358 209.389 25.7695 211.049 25.7695L226.313 25.7695L226.313 7.69054L221.63 7.69054L221.63 22.8947Z" fill="#B3B3B3"/>
<path d="M434.162 2.53349L425.745 14.0922L434.162 25.6509L437.066 25.6509L428.619 14.0922L437.066 2.53349L434.162 2.53349Z" fill="#B3B3B3"/>
<path d="M610.654 2.53349L607.779 2.53349L616.196 14.0922L607.779 25.6509L610.654 25.6509L619.071 14.0922L610.654 2.53349Z" fill="#B3B3B3"/>
<path d="M463.651 12.8178L452.626 12.8178C452.241 12.8178 451.915 12.4918 451.915 12.1065L451.915 7.74979C451.915 7.3645 452.241 7.00885 452.626 7.00885L465.489 7.00885L465.489 4.25254L450.433 4.25254C449.04 4.25254 447.913 5.34914 447.913 6.71247L447.913 13.0846C447.913 14.4183 449.01 15.5445 450.373 15.5445L461.458 15.5445C461.843 15.5445 462.228 15.9002 462.228 16.2854L462.228 19.842C462.228 20.2569 461.873 20.6718 461.488 20.6718L448.565 20.6718L448.565 23.4578L463.681 23.4578C465.044 23.4578 466.141 22.3315 466.141 20.9682L466.141 15.3074C466.141 13.9441 465.014 12.8178 463.681 12.8178L463.651 12.8178Z" fill="#B3B3B3"/>
<path d="M479.478 21.1462L472.216 21.1462L472.216 8.75762L468.364 8.75762L468.364 21.0276C468.364 22.391 469.46 23.4875 470.823 23.4875L483.242 23.4875L483.242 8.75762L479.418 8.75762L479.418 21.1165L479.478 21.1165L479.478 21.1462Z" fill="#B3B3B3"/>
<path d="M498.149 8.75746L485.287 8.75746L485.287 29L489.228 29L489.228 23.4874L498.12 23.4874C499.542 23.4874 500.669 22.3612 500.669 20.9682L500.669 11.3063C500.669 9.91333 499.542 8.7871 498.12 8.7871L498.149 8.75746ZM496.727 21.0571L489.258 21.0571L489.258 11.247L496.727 11.247L496.727 21.0571Z" fill="#B3B3B3"/>
<path d="M515.458 8.84638L505.203 8.84638C503.81 8.84638 502.714 9.97262 502.714 11.3656L502.714 20.9386C502.714 22.3315 503.81 23.4578 505.203 23.4578L517.74 23.4578L517.74 21.0275L506.626 21.0275L506.626 17.7673L518.007 17.7673L518.007 11.3359C518.007 9.94298 516.88 8.81675 515.487 8.81675L515.458 8.84638ZM514.035 15.3667L506.626 15.3667L506.626 11.247L514.035 11.247L514.035 15.3667Z" fill="#B3B3B3"/>
<path d="M524.556 10.5359L523.934 11.4546L523.934 8.78726L519.992 8.78726L519.992 23.4875L523.934 23.4875L523.934 12.6994L530.277 12.6994L530.277 8.75762L527.906 8.75762C526.572 8.75762 525.297 9.43929 524.556 10.5359Z" fill="#B3B3B3"/>
<path d="M532.262 7.03863L538.783 7.03863L538.783 23.4875L542.784 23.4875L542.784 7.03863L549.274 7.03863L549.274 4.25269L532.262 4.25269L532.262 7.03863Z" fill="#B3B3B3"/>
<path d="M562.878 8.75762L552.208 8.75762L552.208 11.2175L562.433 11.2175L562.433 14.4184L553.542 14.4184C552.149 14.4184 551.023 15.5446 551.023 16.9376L551.023 20.9683C551.023 22.3613 552.149 23.4875 553.542 23.4875L566.405 23.4875L566.405 11.5436C566.405 10.0024 564.834 8.75762 562.908 8.75762L562.878 8.75762ZM562.433 21.0573L554.965 21.0573L554.965 16.8783L562.433 16.8783L562.433 21.0573Z" fill="#B3B3B3"/>
<path d="M568.657 11.2767L568.657 20.9386C568.657 22.3315 569.784 23.4578 571.177 23.4578L583.625 23.4578L583.625 20.9978L572.599 20.9978L572.599 11.1581L583.625 11.1581L583.625 8.6982L571.177 8.6982C569.784 8.6982 568.657 9.82443 568.657 11.2174L568.657 11.2767Z" fill="#B3B3B3"/>
<path d="M597.702 14.6259L600.251 8.75762L596.458 8.75762L594.235 13.796L589.582 13.796L589.582 4.25269L585.64 4.25269L585.64 23.4875L589.582 23.4875L589.582 15.9892L594.413 15.9892L596.991 23.4579L600.666 23.4579L597.643 14.7444L597.702 14.6259Z" fill="#B3B3B3"/>
</svg>
