<svg width="732" height="32" viewBox="0 0 732 32" fill="none" xmlns="http://www.w3.org/2000/svg">
<g clip-path="url(#clip0_2093_1250)">
<g clip-path="url(#clip1_2093_1250)">
<path d="M280.42 0.769972L297.93 0.769971L297.93 3.19997L285.8 3.19997C284.99 3.19997 284.36 3.86997 284.36 4.63997L284.36 10.79L297.93 10.79L297.93 13.18L285.8 13.18C284.99 13.18 284.36 13.85 284.36 14.66L284.36 21.58L297.93 21.58L297.93 23.97L280.42 23.97L280.42 0.769972Z" fill="#B3B3B3"/>
<path d="M319.2 9.02997L319.2 23.97L315.26 23.97L315.26 8.35997L304.64 8.35997L304.64 23.97L300.74 23.97L300.74 6.35997L316.52 6.35997C318 6.35997 319.19 7.55997 319.19 9.02997L319.2 9.02997Z" fill="#B3B3B3"/>
<path d="M322.02 9.21C322.02 8.51 322.3 7.84 322.79 7.35C323.28 6.86 323.95 6.58 324.65 6.58L338.64 6.58C340.08 6.58 341.28 7.78 341.28 9.22L341.28 28.36C341.28 29.8 340.08 31 338.64 31L322.33 31L322.33 29L337.38 29L337.38 24.01L324.69 24.01C323.21 24.01 322.02 22.85 322.02 21.37L322.02 9.21ZM337.38 8.61L325.96 8.61L325.92 22.04L337.38 22.04L337.38 8.61Z" fill="#B3B3B3"/>
<path d="M344.1 6.45997L348 6.45997L348 23.97L344.1 23.97L344.1 6.45997ZM344.1 0.769972L348 0.769972L348 2.76997L344.1 2.76997L344.1 0.769972Z" fill="#B3B3B3"/>
<path d="M369.27 9.02997L369.27 23.97L365.33 23.97L365.33 8.35997L354.71 8.35997L354.71 23.97L350.81 23.97L350.81 6.35997L366.59 6.35997C368.07 6.35997 369.26 7.55997 369.26 9.02997L369.27 9.02997Z" fill="#B3B3B3"/>
<path d="M372.09 9.02997C372.09 7.54997 373.29 6.35997 374.76 6.35997L387.91 6.35997C389.39 6.35997 390.58 7.55997 390.58 9.02997L390.58 16.73L376.03 16.73L376.03 22L390.27 22L390.27 23.97L374.77 23.97C373.29 23.97 372.1 22.77 372.1 21.3L372.1 9.02997L372.09 9.02997ZM376.03 8.28997L376.03 14.69L386.65 14.69L386.65 8.28997L376.03 8.28997Z" fill="#B3B3B3"/>
<path d="M393.39 9.02997C393.39 7.54997 394.59 6.35997 396.06 6.35997L409.21 6.35997C410.69 6.35997 411.88 7.55997 411.88 9.02997L411.88 16.73L397.33 16.73L397.33 22L411.57 22L411.57 23.97L396.07 23.97C394.59 23.97 393.4 22.77 393.4 21.3L393.4 9.02997L393.39 9.02997ZM397.33 8.28997L397.33 14.69L407.95 14.69L407.95 8.28997L397.33 8.28997Z" fill="#B3B3B3"/>
<path d="M423.45 6.67997L426.44 6.67997L426.44 10.51L418.53 10.51L418.53 23.97L414.7 23.97L414.7 6.70997L418.53 6.70997L418.53 10.47L419.69 8.67997C420.53 7.40997 421.94 6.67997 423.45 6.67997Z" fill="#B3B3B3"/>
<path d="M428.9 6.45997L432.8 6.45997L432.8 23.97L428.9 23.97L428.9 6.45997ZM428.9 0.769972L432.8 0.769972L432.8 2.76997L428.9 2.76997L428.9 0.769972Z" fill="#B3B3B3"/>
<path d="M454.08 9.02997L454.08 23.97L450.14 23.97L450.14 8.35997L439.52 8.35997L439.52 23.97L435.62 23.97L435.62 6.35997L451.4 6.35997C452.88 6.35997 454.07 7.55997 454.07 9.02997L454.08 9.02997Z" fill="#B3B3B3"/>
<path d="M456.89 9.21C456.89 8.51 457.17 7.84 457.66 7.35C458.15 6.86 458.82 6.58 459.52 6.58L473.51 6.58C474.95 6.58 476.15 7.78 476.15 9.22L476.15 28.36C476.15 29.8 474.95 31 473.51 31L457.2 31L457.2 29L472.25 29L472.25 24.01L459.56 24.01C458.08 24.01 456.89 22.85 456.89 21.37L456.89 9.21ZM472.25 8.61L460.83 8.61L460.79 22.04L472.25 22.04L472.25 8.61Z" fill="#B3B3B3"/>
<path d="M489.52 0.769972L508.82 0.769971C510.26 0.769971 511.42 1.92997 511.42 3.36997L511.42 13.53C511.42 14.97 510.26 16.13 508.82 16.13L493.39 16.13L493.39 23.97L489.52 23.97L489.52 0.769972ZM507.52 12.27L507.48 4.63997C507.48 3.82997 506.85 3.19997 506.04 3.19997L493.38 3.19997L493.38 13.75L506.04 13.75C506.85 13.75 507.52 13.08 507.52 12.27Z" fill="#B3B3B3"/>
<path d="M514.24 21.26L514.24 0.519972L518.18 0.519972L518.18 21.93L523.24 21.93L523.24 23.97L516.91 23.97C515.43 23.97 514.24 22.74 514.24 21.26Z" fill="#B3B3B3"/>
<path d="M526.05 16.17C526.05 14.69 527.25 13.5 528.69 13.5L540.57 13.5L540.57 8.36997L527.6 8.36997L527.6 6.36997L540.61 6.36997C542.75 6.36997 544.51 7.70997 544.51 9.35997L544.51 23.97L528.69 23.97C527.25 23.97 526.05 22.77 526.05 21.3L526.05 16.17ZM529.95 15.54L529.95 21.97L540.57 21.97L540.57 15.54L529.95 15.54Z" fill="#B3B3B3"/>
<path d="M555.87 22L558.01 22L558.01 23.97L552.88 23.97C551.4 23.97 550.21 22.81 550.21 21.33L550.21 8.49997L546.31 8.49997L546.31 6.49997L550.21 6.49997L550.21 0.769972L554.11 0.769972L554.11 6.49997L558.01 6.49997L558.01 8.49997L554.11 8.49997L554.11 20.21C554.11 21.19 554.92 22 555.87 22Z" fill="#B3B3B3"/>
<path d="M560.12 9.02997C560.12 7.54997 561.32 6.35997 562.79 6.35997L575.94 6.35997C577.42 6.35997 578.61 7.55997 578.61 9.02997L578.61 16.73L564.06 16.73L564.06 22L578.3 22L578.3 23.97L562.8 23.97C561.32 23.97 560.13 22.77 560.13 21.3L560.13 9.02997L560.12 9.02997ZM564.06 8.28997L564.06 14.69L574.68 14.69L574.68 8.28997L564.06 8.28997Z" fill="#B3B3B3"/>
<path d="M152 0.759941L169.93 0.75994C171.58 0.75994 172.95 2.08994 172.95 3.77994L172.95 10.7099L173.09 10.8499C173.83 11.4099 174.21 12.2899 174.21 13.2099L174.21 21.1199C174.21 22.8099 172.84 24.1799 171.19 24.1799L152 24.1799L152 0.769943L152 0.759941ZM168.52 14.1499L156.85 14.1499L156.85 20.7599L168.52 20.7599C169.01 20.7599 169.4 20.3699 169.4 19.8799L169.4 14.9899C169.4 14.5299 169.01 14.1499 168.52 14.1499ZM167.25 10.7799C167.71 10.7799 168.13 10.3899 168.13 9.89994L168.13 5.00994C168.13 4.51994 167.71 4.12994 167.25 4.12994L156.85 4.12994L156.85 10.7699L167.25 10.7699L167.25 10.7799Z" fill="#B3B3B3"/>
<path d="M177.03 16.0499C177.03 14.3299 178.44 12.9199 180.16 12.9199L191.16 12.9199L191.16 8.97994L178.54 8.97994L178.54 5.95994L191.72 5.95994C194.11 5.95994 196.04 7.50994 196.04 9.40994L196.04 24.1699L180.15 24.1699C178.43 24.1699 177.02 22.7599 177.02 21.0399L177.02 16.0499L177.03 16.0499ZM191.16 15.9799L181.92 15.9799L181.92 21.1499L191.16 21.1499L191.16 15.9799Z" fill="#B3B3B3"/>
<path d="M224.71 9.08994L224.71 24.1699L219.79 24.1699L219.79 8.97994L214.24 8.97994L214.24 24.1699L209.35 24.1699L209.35 9.01994L203.8 9.01994L203.8 24.1699L198.88 24.1699L198.88 5.95994L221.59 5.95994C223.31 5.95994 224.72 7.36994 224.72 9.08994L224.71 9.08994Z" fill="#B3B3B3"/>
<path d="M227.17 0.399912L232.09 0.399912L232.09 5.94991L243.06 5.94991C244.82 5.94991 246.22 7.35991 246.22 9.07991L246.22 21.0299C246.22 22.7499 244.81 24.1599 243.06 24.1599L227.17 24.1599L227.17 0.399912ZM241.3 8.97991L232.09 8.97991L232.09 21.1099L241.3 21.1099L241.3 8.97991Z" fill="#B3B3B3"/>
<path d="M267.11 5.95994L267.11 24.1699L251.75 24.1699C250.06 24.1699 248.69 22.7999 248.69 21.1099L248.69 5.95994L253.44 5.95994L253.44 21.2499L262.4 21.2499L262.4 5.95994L267.11 5.95994Z" fill="#B3B3B3"/>
</g>
</g>
<defs>
<clipPath id="clip0_2093_1250">
<rect width="732" height="32" fill="white"/>
</clipPath>
<clipPath id="clip1_2093_1250">
<rect width="31" height="427" fill="white" transform="translate(152 31) rotate(-90)"/>
</clipPath>
</defs>
</svg>
