<svg width="732" height="32" viewBox="0 0 732 32" fill="none" xmlns="http://www.w3.org/2000/svg">
<g clip-path="url(#clip0_20783_56703)">
<path d="M282.566 27.625L282.566 7.72041L274.621 7.72041L274.621 5.39166L294.263 5.39166L294.263 7.72041L286.318 7.72041L286.318 27.625L282.566 27.625Z" fill="#B3B3B3"/>
<path d="M296.292 13.3075C296.292 11.8892 297.446 10.7487 298.86 10.7487L311.509 10.7487C312.933 10.7487 314.077 11.8892 314.077 13.3075L314.077 20.6867L300.082 20.6867L300.082 25.7467L313.779 25.7467L313.779 27.625L298.87 27.625C297.446 27.625 296.302 26.475 296.302 25.0663L296.302 13.3075L296.292 13.3075ZM300.082 12.5983L300.082 18.7317L310.297 18.7317L310.297 12.5983L300.082 12.5983Z" fill="#B3B3B3"/>
<path d="M329.67 27.625L325.207 21.7983L320.743 27.625L316.79 27.625L323.11 19.4025L323.244 19.2012L316.79 10.7487L320.715 10.7487L325.216 16.6042L329.708 10.7487L333.661 10.7487L327.303 19L327.169 19.2012L333.623 27.625L329.67 27.625Z" fill="#B3B3B3"/>
<path d="M344.896 25.7467L346.954 25.7467L346.954 27.625L342.02 27.625C340.596 27.625 339.452 26.5133 339.452 25.095L339.452 12.7996L335.7 12.7996L335.7 10.8829L339.452 10.8829L339.452 5.39166L343.203 5.39166L343.203 10.8829L346.954 10.8829L346.954 12.7996L343.203 12.7996L343.203 24.0217C343.203 24.9704 343.982 25.7371 344.896 25.7371L344.896 25.7467Z" fill="#B3B3B3"/>
<path d="M366.472 27.625L351.803 27.625C350.447 27.625 349.331 26.5133 349.331 25.1621L349.331 10.7487L352.986 10.7487L352.986 25.7754L362.826 25.7754L362.826 10.7487L366.481 10.7487L366.481 27.625L366.472 27.625Z" fill="#B3B3B3"/>
<path d="M377.264 11.0554L380.14 11.0554L380.14 14.7258L372.532 14.7258L372.532 27.625L368.848 27.625L368.848 11.0842L372.532 11.0842L372.532 14.6875L373.647 12.9721C374.455 11.7646 375.812 11.0554 377.264 11.0554Z" fill="#B3B3B3"/>
<path d="M382.506 13.3075C382.506 11.8892 383.66 10.7487 385.074 10.7487L397.723 10.7487C399.146 10.7487 400.291 11.8892 400.291 13.3075L400.291 20.6867L386.296 20.6867L386.296 25.7467L399.993 25.7467L399.993 27.625L385.084 27.625C383.66 27.625 382.515 26.475 382.515 25.0663L382.515 13.3075L382.506 13.3075ZM386.296 12.5983L386.296 18.7317L396.511 18.7317L396.511 12.5983L386.296 12.5983Z" fill="#B3B3B3"/>
<path d="M403.004 13.4129C403.004 11.9946 404.158 10.8542 405.543 10.8542L416.903 10.8542L416.903 5.40124L420.654 5.40124L420.654 27.625L405.543 27.625C404.158 27.625 403.004 26.5133 403.004 25.095L403.004 13.4033L403.004 13.4129ZM416.903 12.7708L406.755 12.7708L406.755 25.7467L416.903 25.7467L416.903 12.7804L416.903 12.7708Z" fill="#B3B3B3"/>
<path d="M433.505 5.39166L452.069 5.39166C453.454 5.39166 454.57 6.50333 454.57 7.88333L454.57 17.62C454.57 19 453.454 20.1117 452.069 20.1117L437.227 20.1117L437.227 27.625L433.505 27.625L433.505 5.39166ZM450.819 16.4125L450.78 9.10041C450.78 8.32416 450.174 7.72041 449.395 7.72041L437.218 7.72041L437.218 17.8308L449.395 17.8308C450.174 17.8308 450.819 17.1888 450.819 16.4125Z" fill="#B3B3B3"/>
<path d="M457.283 5.39166L474.126 5.39166L474.126 7.72041L462.458 7.72041C461.679 7.72041 461.073 8.3625 461.073 9.10041L461.073 14.9942L474.126 14.9942L474.126 17.2846L462.458 17.2846C461.679 17.2846 461.073 17.9267 461.073 18.7029L461.073 25.3346L474.126 25.3346L474.126 27.625L457.283 27.625L457.283 5.39166Z" fill="#B3B3B3"/>
<path d="M477.502 5.39166L481.253 5.39166L481.253 27.625L477.502 27.625L477.502 5.39166Z" fill="#B3B3B3"/>
<path d="M494.113 5.39166L512.678 5.39166C514.063 5.39166 515.179 6.50333 515.179 7.88333L515.179 17.62C515.179 19 514.063 20.1117 512.678 20.1117L497.836 20.1117L497.836 27.625L494.113 27.625L494.113 5.39166ZM511.427 16.4125L511.389 9.10041C511.389 8.32416 510.783 7.72041 510.004 7.72041L497.826 7.72041L497.826 17.8308L510.004 17.8308C510.783 17.8308 511.427 17.1888 511.427 16.4125Z" fill="#B3B3B3"/>
<path d="M517.891 25.0375L517.891 5.16166L521.68 5.16166L521.68 25.6796L526.548 25.6796L526.548 27.625L520.459 27.625C519.035 27.625 517.891 26.4463 517.891 25.0279L517.891 25.0375Z" fill="#B3B3B3"/>
<path d="M529.251 20.15C529.251 18.7317 530.405 17.5913 531.79 17.5913L543.218 17.5913L543.218 12.675L530.742 12.675L530.742 10.7583L543.256 10.7583C545.314 10.7583 547.007 12.0329 547.007 13.6237L547.007 27.625L531.79 27.625C530.405 27.625 529.251 26.475 529.251 25.0662L529.251 20.15ZM533.002 19.5462L533.002 25.7083L543.208 25.7083L543.208 19.5462L533.002 19.5462Z" fill="#B3B3B3"/>
<path d="M557.925 25.7467L559.984 25.7467L559.984 27.625L555.049 27.625C553.625 27.625 552.481 26.5133 552.481 25.095L552.481 12.7996L548.729 12.7996L548.729 10.8829L552.481 10.8829L552.481 5.39166L556.232 5.39166L556.232 10.8829L559.984 10.8829L559.984 12.7996L556.232 12.7996L556.232 24.0217C556.232 24.9704 557.011 25.7371 557.925 25.7371L557.925 25.7467Z" fill="#B3B3B3"/>
<path d="M562.022 13.3075C562.022 11.8892 563.177 10.7487 564.591 10.7487L577.239 10.7487C578.663 10.7487 579.808 11.8892 579.808 13.3075L579.808 20.6867L565.812 20.6867L565.812 25.7467L579.509 25.7467L579.509 27.625L564.6 27.625C563.177 27.625 562.032 26.475 562.032 25.0663L562.032 13.3075L562.022 13.3075ZM565.812 12.5983L565.812 18.7317L576.027 18.7317L576.027 12.5983L565.812 12.5983Z" fill="#B3B3B3"/>
<path d="M151.5 5.3818L168.747 5.3818C170.334 5.3818 171.651 6.66597 171.651 8.27597L171.651 14.9172L171.786 15.0514C172.498 15.5881 172.863 16.4314 172.863 17.3131L172.863 24.8839C172.863 26.5035 171.546 27.8164 169.959 27.8164L151.5 27.8164L151.5 5.3818ZM167.39 18.2139L156.165 18.2139L156.165 24.5485L167.39 24.5485C167.862 24.5485 168.237 24.1747 168.237 23.7052L168.237 19.0285C168.237 18.5876 167.862 18.2235 167.39 18.2235L167.39 18.2139ZM166.169 14.9843C166.611 14.9843 167.015 14.6106 167.015 14.141L167.015 9.45472C167.015 8.98514 166.611 8.61139 166.169 8.61139L156.165 8.61139L156.165 14.9747L166.169 14.9747L166.169 14.9843Z" fill="#B3B3B3"/>
<path d="M175.576 20.0347C175.576 18.3864 176.932 17.0351 178.587 17.0351L189.167 17.0351L189.167 13.2593L177.028 13.2593L177.028 10.3651L189.706 10.3651C192.005 10.3651 193.861 11.841 193.861 13.6618L193.861 27.8164L178.577 27.8164C176.923 27.8164 175.566 26.4652 175.566 24.8168L175.566 20.0347L175.576 20.0347ZM189.167 19.9677L180.28 19.9676L180.28 24.9222L189.167 24.9222L189.167 19.9677Z" fill="#B3B3B3"/>
<path d="M221.438 13.3647L221.438 27.8164L216.706 27.8164L216.706 13.2593L211.367 13.2593L211.367 27.8164L206.664 27.8164L206.664 13.2976L201.325 13.2976L201.325 27.8164L196.593 27.8164L196.593 10.3651L218.437 10.3651C220.092 10.3651 221.448 11.7164 221.448 13.3647L221.438 13.3647Z" fill="#B3B3B3"/>
<path d="M223.805 5.04639L228.537 5.04639L228.537 10.3747L239.089 10.3747C240.782 10.3747 242.129 11.726 242.129 13.3743L242.129 24.8168C242.129 26.4652 240.772 27.8164 239.089 27.8164L223.805 27.8164L223.805 5.04639ZM237.396 13.2689L228.537 13.2689L228.537 24.8839L237.396 24.8839L237.396 13.2593L237.396 13.2689Z" fill="#B3B3B3"/>
<path d="M262.223 10.3651L262.223 27.8164L247.448 27.8164C245.823 27.8164 244.505 26.5035 244.505 24.8839L244.505 10.3651L249.074 10.3651L249.074 25.0181L257.692 25.0181L257.692 10.3651L262.223 10.3651Z" fill="#B3B3B3"/>
</g>
<defs>
<clipPath id="clip0_20783_56703">
<rect width="23" height="429" fill="white" transform="translate(151.5 27.8164) rotate(-90)"/>
</clipPath>
</defs>
</svg>
