<svg width="729" height="24" viewBox="0 0 729 24" fill="none" xmlns="http://www.w3.org/2000/svg">
<path d="M177.4 0.784144V20.2741C177.4 20.6441 177.37 20.9942 177.55 21.3542C177.97 22.1842 179.04 22.3841 179.74 21.7741C180.02 21.5341 180.26 21.2642 180.52 21.0042C180.78 20.7442 181.04 20.4842 181.3 20.2242C181.82 19.7042 182.34 19.1841 182.86 18.6641C185.03 16.4941 187.19 14.3341 189.36 12.1641C191.53 9.99415 193.69 7.83415 195.86 5.66415L197.42 4.10421C197.68 3.84421 197.94 3.58418 198.2 3.32418C198.46 3.06418 198.74 2.84422 198.89 2.48422C199.26 1.62422 198.71 0.654134 197.79 0.524134C197.43 0.474134 197.07 0.514247 196.71 0.514247H177.77C177.68 0.514247 177.59 0.504173 177.5 0.564173C177.41 0.624173 177.38 0.694154 177.38 0.794154L177.4 0.784144Z" fill="#B3B3B3"/>
<path d="M0.22998 3.31427C0.22998 2.43427 0.640017 1.60428 1.33002 1.07428C2.15002 0.434279 2.81 0.484313 3.75 0.484313H142.54C142.59 0.484313 143.12 0.484323 143.18 0.494323C143.45 0.574323 143.38 0.854259 143.38 1.05426V21.6143C143.38 22.0443 143.41 22.4642 143.38 22.8942C143.38 23.0242 143.32 23.0942 143.2 23.1442C143.09 23.1842 142.99 23.1642 142.89 23.1642H3.46002C3.04002 23.1642 2.63998 23.1642 2.22998 23.0342C1.36998 22.7642 0.680015 22.1043 0.390015 21.2443C0.250015 20.8443 0.23999 20.4342 0.23999 20.0242V3.31427H0.22998Z" fill="#B3B3B3"/>
<path d="M68.02 6.89355H60.02V16.6736H62.03V13.5037H68.02C68.71 13.5037 69.28 12.9337 69.28 12.2437V8.15356C69.28 7.46356 68.71 6.89355 68.02 6.89355ZM67.27 11.7336C67.27 11.9336 67.11 12.0936 66.91 12.0936H62.03V8.29358H66.89C67.09 8.29358 67.27 8.45356 67.27 8.65356V11.7336Z" fill="white"/>
<path d="M49.84 6.72363H42.9899C42.2899 6.72363 41.71 7.29366 41.71 8.00366V16.6536H43.7499V12.7336H49.08V16.6536H51.1199V8.00366C51.1199 7.29366 50.55 6.72363 49.84 6.72363ZM49.08 11.2836H43.7499V8.52356C43.7499 8.31356 43.9099 8.14355 44.1199 8.14355H48.71C48.92 8.14355 49.08 8.32356 49.08 8.52356V11.2836Z" fill="white"/>
<path d="M31.73 6.72363H23.62V16.6436H25.66V13.4336H31.74C32.44 13.4336 33.02 12.8636 33.02 12.1536V8.00366C33.02 7.29366 32.45 6.72363 31.74 6.72363H31.73ZM30.97 11.6337C30.97 11.8437 30.81 12.0037 30.6 12.0037H25.65V8.14355H30.58C30.79 8.14355 30.96 8.30367 30.96 8.51367V11.6337H30.97Z" fill="white"/>
<path d="M88.6 7.98413V15.4041C88.6 16.0941 89.16 16.6641 89.86 16.6641H95.8201C96.5101 16.6641 97.0801 16.0941 97.0801 15.4041V10.7642H92.9701V12.1541H95.0801V14.9041C95.0801 15.1041 94.92 15.2642 94.73 15.2642H90.9601C90.7601 15.2642 90.6 15.1041 90.6 14.9041V8.49414C90.6 8.29414 90.7601 8.13416 90.9601 8.13416H96.7401V6.74414H89.85C89.16 6.74414 88.5901 7.30413 88.5901 7.98413H88.6Z" fill="white"/>
<path d="M70.4399 6.89355V16.6736H77.9199V15.2537H72.45V12.6936C72.45 12.4936 72.6199 12.3336 72.8099 12.3336H77.9099V10.9136H72.4399V8.67358C72.4399 8.47358 72.6099 8.29358 72.7999 8.29358H77.9V6.89355H70.4199H70.4399Z" fill="white"/>
<path d="M34.1799 6.72363V15.3536C34.1799 16.0536 34.75 16.6436 35.46 16.6436H40.5399V15.2036H36.59C36.39 15.2036 36.22 15.0436 36.22 14.8436V6.72363H34.1799Z" fill="white"/>
<path d="M4.47998 13.8735L10.45 11.5234V3.31348H4.47998V13.8735Z" fill="white"/>
<path d="M79.0801 6.89355V8.29358H82.4001V16.6636H84.42V8.29358H87.73V6.89355H79.0801Z" fill="white"/>
<path d="M56.41 6.72363L53.55 16.6436H54.7401L57.6 6.72363H56.41Z" fill="white"/>
<path d="M11.5801 3.31348V8.5835L17.55 10.9335V3.31348H11.5801Z" fill="white"/>
<path d="M11.5801 9.80371V20.3237H17.55V12.1537L11.5801 9.80371Z" fill="white"/>
<path d="M4.47998 15.0941V20.3241H10.45V12.7441L4.47998 15.0941Z" fill="white"/>
<path d="M725.495 0.483899C726.775 0.483899 727.885 1.33386 728.225 2.56386C728.395 3.16386 728.325 3.86388 728.325 4.46388V19.1638C728.325 19.7538 728.385 20.4438 728.235 21.0338C727.925 22.2338 726.815 23.1538 725.555 23.1538C724.535 23.1538 723.515 23.1538 722.485 23.1538C714.315 23.1538 706.135 23.1538 697.965 23.1538C680.155 23.1538 662.335 23.1538 644.525 23.1538H552.675C551.645 23.1538 550.745 22.9639 549.825 22.4639C549.355 22.2139 548.945 21.9038 548.565 21.5338C547.745 20.7338 546.945 19.9139 546.135 19.1039L541.145 14.1139C538.105 11.0739 535.055 8.0239 532.015 4.9839L530.875 3.84388C530.575 3.54388 530.125 3.14386 529.855 2.81386C529.535 2.43386 529.435 1.91386 529.595 1.44386C529.755 0.97386 530.145 0.623928 530.625 0.513928C530.885 0.453928 531.145 0.473889 531.405 0.473889H536.225C539.445 0.473889 542.655 0.473889 545.875 0.473889C552.305 0.473889 558.745 0.473889 565.175 0.473889C582.985 0.473889 600.805 0.473889 618.615 0.473889C654.245 0.473889 689.865 0.473889 725.495 0.473889V0.483899Z" fill="#B3B3B3"/>
<path d="M556.315 15.4644V8.20435C556.315 7.50435 556.885 6.94434 557.575 6.94434H563.785V8.36438H558.695C558.495 8.36438 558.335 8.52437 558.335 8.72437V14.9443C558.335 15.1443 558.495 15.3043 558.695 15.3043H563.785V16.7444H557.575C556.875 16.7444 556.315 16.1644 556.315 15.4644Z" fill="white"/>
<path d="M564.945 10.4746C564.945 9.77461 565.495 9.22461 566.195 9.22461H571.295C571.975 9.22461 572.545 9.77461 572.545 10.4746V15.4746C572.545 16.1746 571.975 16.7346 571.295 16.7346H566.195C565.495 16.7346 564.945 16.1646 564.945 15.4746V10.4746ZM570.575 10.4346H566.875V15.5245H570.575V10.4346Z" fill="white"/>
<path d="M573.555 10.4746C573.555 9.77461 574.105 9.22461 574.805 9.22461H579.905C580.585 9.22461 581.155 9.77461 581.155 10.4746V15.4746C581.155 16.1746 580.585 16.7346 579.905 16.7346H574.805C574.105 16.7346 573.555 16.1646 573.555 15.4746V10.4746ZM579.195 10.4346H575.495V15.5245H579.195V10.4346Z" fill="white"/>
<path d="M582.165 15.4343V6.94434H584.175V15.4844H586.205V16.7444H583.455C582.745 16.7444 582.165 16.1643 582.165 15.4443V15.4343Z" fill="white"/>
<path d="M593.985 6.94458H602.005C602.705 6.94458 603.265 7.51459 603.265 8.20459V12.3046C603.265 13.0046 602.695 13.5646 602.005 13.5646H596.005V16.7346H593.995V6.93457L593.985 6.94458ZM601.245 11.7946V8.70459C601.245 8.50459 601.075 8.3446 600.865 8.3446H595.995V12.1545H600.885C601.085 12.1545 601.245 11.9946 601.245 11.7946Z" fill="white"/>
<path d="M604.425 15.4343V6.94434H606.435V15.4844H608.465V16.7444H605.715C605.005 16.7444 604.425 16.1643 604.425 15.4443V15.4343Z" fill="white"/>
<path d="M609.345 13.3943C609.345 12.6843 609.925 12.1044 610.635 12.1044H615.175V10.4844H609.975V9.23438H615.415C616.405 9.23438 617.195 9.8743 617.195 10.6543V16.7444H610.645C609.935 16.7444 609.355 16.1643 609.355 15.4543V13.3943H609.345ZM615.165 13.3644H611.355V15.4944H615.165V13.3644Z" fill="white"/>
<path d="M621.655 10.4944V15.0044C621.655 15.2644 621.885 15.4844 622.145 15.4844H623.215V16.7444H620.925C620.215 16.7444 619.635 16.1643 619.635 15.4543V10.4944H618.055V9.24438H619.635V6.94434H621.645V9.24438H623.215V10.4944H621.645H621.655Z" fill="white"/>
<path d="M624.095 10.5645C624.095 9.85445 624.665 9.27441 625.375 9.27441H630.605C631.315 9.27441 631.895 9.85445 631.895 10.5645V13.8445H626.095V15.5145H631.765V16.7445H625.375C624.665 16.7445 624.095 16.1645 624.095 15.4545V10.5745V10.5645ZM629.875 10.4945H626.095V12.5945H629.875V10.4945Z" fill="white"/>
<path d="M649.105 12.5844V15.4644C649.105 16.1644 648.535 16.7444 647.845 16.7444H640.145V15.3243H646.725C646.915 15.3243 647.105 15.1243 647.105 14.9043V13.0944C647.105 12.8944 646.915 12.7344 646.715 12.7344H641.065C640.385 12.7044 639.815 12.1443 639.815 11.4543V8.20435C639.815 7.50435 640.395 6.94434 641.105 6.94434H648.775V8.35437H642.225C642.025 8.35437 641.865 8.52438 641.865 8.73438V10.9543C641.865 11.1543 642.025 11.3143 642.225 11.3143H647.845C648.545 11.3143 649.105 11.8944 649.105 12.5944V12.5844Z" fill="white"/>
<path d="M657.865 9.23438V16.7444H651.535C650.835 16.7444 650.275 16.1744 650.275 15.4844V9.23438H652.235V15.5443H655.935V9.23438H657.875H657.865Z" fill="white"/>
<path d="M658.875 9.23438H665.425C666.155 9.23438 666.725 9.81429 666.725 10.5243V15.4543C666.725 16.1643 666.145 16.7444 665.425 16.7444H660.885V19.5543H658.875V9.23438ZM664.705 10.4944H660.895V15.4944H664.705V10.4944Z" fill="white"/>
<path d="M667.755 10.5645C667.755 9.85445 668.325 9.27441 669.035 9.27441H674.265C674.975 9.27441 675.555 9.85445 675.555 10.5645V13.8445H669.755V15.5145H675.425V16.7445H669.035C668.325 16.7445 667.755 16.1645 667.755 15.4545V10.5745V10.5645ZM673.535 10.4945H669.755V12.5945H673.535V10.4945Z" fill="white"/>
<path d="M680.615 9.23438H681.815V11.2444H678.585V16.7344H676.575V9.24438H678.585V10.6044L678.905 10.1443C679.285 9.57429 679.935 9.23438 680.615 9.23438Z" fill="white"/>
<path d="M692.245 16.7444H690.215V8.35437H686.895V6.94434H695.565V8.35437H692.245V16.7444Z" fill="white"/>
<path d="M695.715 13.3943C695.715 12.6843 696.295 12.1044 697.005 12.1044H701.545V10.4844H696.345V9.23438H701.785C702.775 9.23438 703.565 9.8743 703.565 10.6543V16.7444H697.015C696.305 16.7444 695.725 16.1643 695.725 15.4543V13.3943H695.715ZM701.545 13.3644H697.735V15.4944H701.545V13.3644Z" fill="white"/>
<path d="M706.015 9.23438H712.365V10.4844H706.745V15.5044H712.365V16.7544H706.015C705.305 16.7544 704.725 16.1744 704.725 15.4644V10.5343C704.725 9.8243 705.305 9.24438 706.015 9.24438V9.23438Z" fill="white"/>
<path d="M718.905 9.23511H720.835L719.535 12.2251L719.505 12.285L721.045 16.7351H719.175L717.875 12.925H715.415V16.7551H713.405V6.95508H715.415V11.795H717.775L718.925 9.24512L718.905 9.23511Z" fill="white"/>
<path d="M128.68 4.80438H129.85C130.28 4.80438 130.44 5.00437 130.44 5.42437V18.0344C130.44 18.3244 130.52 18.6044 130.19 18.7944C130.03 18.8844 129.43 18.8644 129.28 18.8644H127.14C127.14 18.8644 126.95 18.8644 126.92 18.8444L126.61 18.5344L125.98 17.9044C125.76 17.6844 125.59 17.4844 125.24 17.4844H122.54C122.22 17.4844 121.89 17.4644 121.57 17.4844C121.24 17.5044 121.08 17.7144 120.87 17.9144L120.27 18.5145C120.17 18.6145 120.07 18.7144 119.97 18.8144C119.94 18.8444 119.92 18.8644 119.88 18.8644H117.54C117.21 18.8644 116.8 18.9444 116.67 18.5044C116.64 18.4144 116.65 17.7144 116.65 17.6144V5.83441C116.65 5.69441 116.63 5.2144 116.71 5.0744C116.79 4.9244 116.89 4.85439 117.05 4.81439C117.2 4.78439 117.35 4.80438 117.5 4.80438H118.45C118.53 4.80438 118.65 4.80438 118.65 4.80438C118.65 4.80438 118.82 4.97437 118.89 5.04437C119.03 5.18437 119.17 5.32441 119.31 5.46441C119.56 5.71441 119.82 5.68438 120.12 5.68438H127.05C127.34 5.68438 127.61 5.74439 127.9 5.56439C128.06 5.46439 128.56 4.92438 128.69 4.80438H128.68Z" fill="white"/>
<path d="M109.34 9.88423H108.04C107.98 9.88423 107.69 9.89421 107.63 9.86421C107.57 9.83421 107.54 9.78418 107.54 9.71418C107.54 9.63418 107.58 9.59413 107.62 9.53413C107.7 9.40413 107.79 9.28412 107.87 9.15412C108.04 8.90412 108.21 8.64411 108.38 8.39411C109.02 7.43411 109.66 6.46422 110.31 5.50422C110.47 5.25422 110.62 5.00423 110.8 4.76423C110.88 4.65423 111.03 4.68413 111.1 4.78413C111.18 4.90413 111.26 5.03412 111.35 5.15412C111.68 5.64412 112.01 6.14423 112.34 6.63423C112.98 7.59423 113.62 8.56412 114.27 9.52412C114.32 9.60412 114.38 9.65423 114.34 9.76423C114.3 9.86423 114.24 9.88423 114.14 9.88423H112.98C112.91 9.88423 112.5 9.86414 112.44 9.92414C112.35 9.99414 112.37 10.1742 112.37 10.2642V18.5942C112.37 18.8942 112.25 18.8642 112 18.8642H110.16C110.01 18.8642 109.85 18.8642 109.7 18.8642C109.6 18.8642 109.53 18.7741 109.53 18.6741V10.0942C109.53 10.0942 109.53 10.0042 109.5 9.95417C109.46 9.89417 109.42 9.87422 109.35 9.87422L109.34 9.88423Z" fill="white"/>
<path d="M118.4 16.3542H128.57C128.95 16.3542 128.94 16.2142 128.94 15.8942V7.07422C128.94 6.93422 128.83 6.82422 128.69 6.82422H118.52C118.14 6.82422 118.15 6.96418 118.15 7.28418V16.1042C118.15 16.2442 118.26 16.3542 118.4 16.3542Z" fill="#B3B3B3"/>
<path d="M137.75 9.88445C137.68 9.88445 137.64 9.90441 137.6 9.96441C137.57 10.0044 137.57 10.0544 137.57 10.1044V18.6844C137.57 18.7844 137.5 18.8644 137.4 18.8744C137.25 18.8744 137.09 18.8744 136.94 18.8744H135.1C134.85 18.8744 134.73 18.9044 134.73 18.6044V10.2743C134.73 10.1843 134.76 10.0144 134.66 9.93438C134.59 9.88438 134.18 9.89434 134.11 9.89434H132.95C132.85 9.89434 132.79 9.87434 132.75 9.77434C132.71 9.66434 132.77 9.61435 132.82 9.53435C133.46 8.57435 134.1 7.60434 134.75 6.64434C135.08 6.15434 135.41 5.65436 135.74 5.16436C135.82 5.04436 135.9 4.91436 135.99 4.79436C136.06 4.68436 136.2 4.66434 136.29 4.77434C136.47 5.01434 136.62 5.26445 136.78 5.51445C137.42 6.47445 138.06 7.44435 138.71 8.40435C138.88 8.65435 139.05 8.91436 139.22 9.16436C139.31 9.29436 139.39 9.42436 139.48 9.54436C139.52 9.60436 139.56 9.64441 139.56 9.72441C139.56 9.79441 139.53 9.83444 139.47 9.87444C139.41 9.90444 139.12 9.89434 139.06 9.89434H137.76L137.75 9.88445Z" fill="white"/>
<rect x="149.06" y="0.499023" width="22.6799" height="22.6799" rx="1" fill="#B3B3B3"/>
</svg>
