<svg width="416" height="36" viewBox="0 0 416 36" fill="none" xmlns="http://www.w3.org/2000/svg">
<path d="M415.6 5H0V6H415.6V5Z" fill="#CFD2D3"/>
<path d="M225.999 10.099L206.199 29.999H211.899L231.699 10.099H225.999Z" fill="#CFD2D3"/>
<path d="M237.4 10.099L217.5 29.999H223.2L243 10.099H237.4Z" fill="#CFD2D3"/>
<path d="M248.7 10.099L228.9 29.999H234.6L254.4 10.099H248.7Z" fill="#CFD2D3"/>
<path d="M260.099 10.099L240.199 29.999H245.899L265.699 10.099H260.099Z" fill="#CFD2D3"/>
<path d="M271.399 10.099L251.599 29.999H257.199L277.099 10.099H271.399Z" fill="#CFD2D3"/>
<path d="M282.7 10.099L262.9 29.999H268.6L288.4 10.099H282.7Z" fill="#CFD2D3"/>
<path d="M294.099 10.099L274.199 29.999H279.899L299.799 10.099H294.099Z" fill="#CFD2D3"/>
<path d="M305.399 10.099L285.599 29.999H291.299L311.099 10.099H305.399Z" fill="#CFD2D3"/>
<path d="M316.8 10.099L296.9 29.999H302.6L322.4 10.099H316.8Z" fill="#CFD2D3"/>
<path d="M328.1 10.099L308.3 29.999H313.9L333.8 10.099H328.1Z" fill="#CFD2D3"/>
<path d="M339.399 10.099L319.599 29.999H325.299L345.099 10.099H339.399Z" fill="#CFD2D3"/>
<path d="M350.8 10.099L330.9 29.999H336.6L356.5 10.099H350.8Z" fill="#CFD2D3"/>
<path d="M362.1 10.099L342.3 29.999H348L367.8 10.199L362.1 10.099Z" fill="#CFD2D3"/>
<path d="M373.499 10.199L353.599 29.999H359.299L379.099 10.199H373.499Z" fill="#CFD2D3"/>
<path d="M384.8 10.199L365 29.999H370.6L390.5 10.199H384.8Z" fill="#CFD2D3"/>
<path d="M396.1 10.199L376.3 29.999H382L401.8 10.199H396.1Z" fill="#CFD2D3"/>
<path d="M407.499 10.199L387.699 29.999H393.299L413.199 10.199H407.499Z" fill="#CFD2D3"/>
<path d="M404.7 30L415.6 19.1V13.4L399 30H404.7Z" fill="#CFD2D3"/>
<path d="M415.5 30L415.6 29.9V24.3L409.8 30H415.5Z" fill="#CFD2D3"/>
<path d="M124.3 20.599H120V22.999H124.3C124.5 22.999 124.6 22.899 124.6 22.699V20.899C124.7 20.699 124.5 20.599 124.3 20.599Z" fill="#CFD2D3"/>
<path d="M52.6 14.9H51.3H50V17.5V20.1H51.3H52.6V17.5V14.9Z" fill="#CFD2D3"/>
<path d="M55.1991 21.399V20.099H53.8991H52.5991V22.699V25.299H55.1991H57.7991V23.999V22.699H56.4991H55.1991V21.399Z" fill="#CFD2D3"/>
<path d="M214.699 10.099L203.599 21.199V15.799L209.299 10.099H25.8991C25.1991 10.099 24.5991 10.699 24.5991 11.399V28.599C24.5991 29.299 25.1991 29.899 25.8991 29.899H55.7991H183.599H189.299H194.999H200.699H203.799V27.099V26.899L220.599 10.099H214.699ZM35.2991 27.899H29.6991V22.999L35.2991 20.799V27.899ZM29.7991 21.999V12.199H35.3991V19.799L29.7991 21.999ZM41.7991 27.899H36.1991V18.099L41.7991 20.299V27.899ZM36.1991 17.199V12.299H41.7991V19.399L36.1991 17.199ZM62.9991 20.099V27.899H55.1991H47.3991V20.099V12.299H55.1991H62.9991V20.099ZM85.0991 20.299C85.0991 20.899 84.5991 21.399 83.9991 21.399H78.5991V24.199H76.7991V15.399H83.9991C84.5991 15.399 85.0991 15.899 85.0991 16.499V20.299ZM91.6991 24.299H87.1991C86.5991 24.299 86.0991 23.799 86.0991 23.199V15.599H87.8991V22.799C87.8991 22.999 87.9991 23.099 88.1991 23.099H91.6991V24.299ZM101.099 24.299H99.2991V20.799H94.5991V24.299H92.7991V16.599C92.7991 15.999 93.2991 15.499 93.8991 15.499H99.9991C100.599 15.499 101.099 15.999 101.099 16.599V24.299ZM104.099 24.299H102.999L105.499 15.499H106.599L104.099 24.299ZM116.899 24.299H115.099V20.799H110.399V24.299H108.599V16.599C108.599 15.999 109.099 15.499 109.699 15.499H115.799C116.399 15.499 116.899 15.999 116.899 16.599V24.299ZM126.399 23.099C126.399 23.699 125.899 24.199 125.299 24.199H118.199V15.499H124.799C125.399 15.499 125.899 15.999 125.899 16.599V19.199L125.999 19.299C126.299 19.499 126.399 19.799 126.399 20.199V23.099ZM136.099 23.099C136.099 23.699 135.599 24.199 134.999 24.199H128.099V22.899H133.999C134.199 22.899 134.299 22.699 134.299 22.499V20.899C134.299 20.699 134.099 20.599 133.899 20.599H128.799C128.199 20.599 127.699 20.099 127.699 19.499V16.599C127.699 15.999 128.199 15.499 128.899 15.499H135.799V16.799H129.899C129.699 16.799 129.599 16.999 129.599 17.099V19.099C129.599 19.299 129.699 19.399 129.899 19.399H134.899C135.499 19.399 135.999 19.899 135.999 20.499V23.099H136.099ZM139.099 24.299H137.999L140.499 15.499H141.599L139.099 24.299ZM151.299 16.799H148.299V24.299H146.499V16.799H143.499V15.499H151.299V16.799ZM160.699 20.299C160.699 20.899 160.199 21.399 159.599 21.399H154.199V24.199H152.399V15.399H159.599C160.199 15.399 160.699 15.899 160.699 16.499V20.299ZM170.299 23.199C170.299 23.799 169.799 24.299 169.199 24.299H163.099C162.499 24.299 161.999 23.799 161.999 23.199V15.599H163.799V22.799C163.799 22.999 163.899 23.099 164.099 23.099H168.199C168.399 23.099 168.499 22.999 168.499 22.799V15.599H170.299V23.199ZM173.299 24.299H172.199L174.699 15.499H175.799L173.299 24.299ZM186.199 20.299C186.199 20.899 185.699 21.399 185.099 21.399H179.699V24.199H177.899V15.399H185.099C185.699 15.399 186.199 15.899 186.199 16.499V20.299ZM194.099 16.799H189.499C189.299 16.799 189.199 16.899 189.199 17.099V22.699C189.199 22.899 189.299 22.999 189.499 22.999H194.099V24.299H188.499C187.899 24.299 187.399 23.799 187.399 23.199V16.699C187.399 16.099 187.899 15.599 188.499 15.599H194.099V16.799Z" fill="#CFD2D3"/>
<path d="M60.3998 20.1V17.5V14.9H59.0998H57.7998V17.5V20.1H59.0998H60.3998Z" fill="#CFD2D3"/>
<path d="M124.199 19V17.2C124.199 17 123.999 16.9 123.899 16.9H120.099V19.4H123.899C123.999 19.3 124.199 19.2 124.199 19Z" fill="#CFD2D3"/>
<path d="M98.9991 16.8H94.8991C94.6991 16.8 94.5991 17 94.5991 17.1V19.5H99.2991V17.1C99.2991 16.9 99.1991 16.8 98.9991 16.8Z" fill="#CFD2D3"/>
<path d="M114.8 16.8H110.7C110.5 16.8 110.4 17 110.4 17.1V19.5H115.1V17.1C115.1 16.9 115 16.8 114.8 16.8Z" fill="#CFD2D3"/>
<path d="M183.999 16.8H179.599V20.2H183.999C184.199 20.2 184.299 20.1 184.299 19.9V17.1C184.299 16.9 184.199 16.8 183.999 16.8Z" fill="#CFD2D3"/>
<path d="M158.599 16.8H154.199V20.2H158.599C158.799 20.2 158.899 20.1 158.899 19.9V17.1C158.899 16.9 158.699 16.8 158.599 16.8Z" fill="#CFD2D3"/>
<path d="M82.9 16.8H78.5V20.2H82.9C83.1 20.2 83.2 20.1 83.2 19.9V17.1C83.3 16.9 83.1 16.8 82.9 16.8Z" fill="#CFD2D3"/>
</svg>
