<svg width="416" height="36" viewBox="0 0 416 36" fill="none" xmlns="http://www.w3.org/2000/svg">
<g clip-path="url(#clip0_3_331)">
<path d="M415.56 6H0V6.99H415.56V6Z" fill="#CFD2D3"/>
<path d="M93.26 18.05C93.26 17.87 93.12 17.71 92.93 17.71H88.86C88.68 17.71 88.54 17.87 88.54 18.05V20.5H93.26V18.05Z" fill="#CFD2D3"/>
<path d="M77.22 20.81V18.04C77.22 17.86 77.06 17.71 76.88 17.71H72.51V21.13H76.89C77.07 21.13 77.22 20.99 77.22 20.8V20.81Z" fill="#CFD2D3"/>
<path d="M118.3 21.54H113.98V23.99H118.3C118.48 23.99 118.62 23.85 118.62 23.66V21.85C118.62 21.68 118.48 21.54 118.3 21.54Z" fill="#CFD2D3"/>
<path d="M109.08 18.05C109.08 17.87 108.94 17.71 108.75 17.71H104.68C104.5 17.71 104.35 17.87 104.35 18.05V20.5H109.07V18.05H109.08Z" fill="#CFD2D3"/>
<path d="M118.16 19.96V18.15C118.16 17.97 118 17.82 117.83 17.82H113.98V20.28H117.83C118 20.28 118.16 20.14 118.16 19.96Z" fill="#CFD2D3"/>
<path d="M57.79 18.42V19.72V21.02H59.09H60.39V18.42V15.82H56.49H52.59V17.12V18.42H55.19H57.79Z" fill="#CFD2D3"/>
<path d="M55.19 23.62V21.02H53.89H52.59V19.72V18.42H51.29H49.99V22.32V26.22H52.59H55.19V23.62Z" fill="#CFD2D3"/>
<path d="M57.79 23.62V24.92V26.22H59.09H60.39V24.92V23.62H59.09H57.79Z" fill="#CFD2D3"/>
<path d="M24.56 12.45V29.6C24.56 30.34 25.16 30.94 25.9 30.94H55.77H355.23V11.11H25.9C25.16 11.11 24.56 11.71 24.56 12.45ZM339.74 21.74H344.84V22.89H341.4C341.33 22.89 341.28 22.95 341.28 23.01V24.36H344.84V25.51H341.4C341.33 25.51 341.28 25.57 341.28 25.63V27.19H344.84V28.33H339.74V21.73V21.74ZM333.21 22.75C333.21 22.24 333.62 21.83 334.13 21.83H338.23V22.96H334.85C334.78 22.96 334.73 23.02 334.73 23.08V27.08C334.73 27.15 334.79 27.2 334.85 27.2H338.23V28.34H334.13C333.62 28.34 333.21 27.93 333.21 27.42V22.76V22.75ZM325.43 22.68C325.43 22.16 325.84 21.74 326.36 21.74H330.76C331.28 21.74 331.69 22.16 331.69 22.68V28.33H330.15V25.81H326.96V28.33H325.42V22.68H325.43ZM318.59 21.74H323.91V22.89H320.25C320.17 22.89 320.12 22.95 320.12 23.01V24.37H323.91V25.51H320.25C320.17 25.51 320.12 25.57 320.12 25.63V28.33H318.58V21.73L318.59 21.74ZM317.08 22.68V25.34C317.08 25.86 316.66 26.27 316.15 26.27H316.03L316.73 28.33H315.15L314.44 26.27H312.36V28.33H310.82V21.73H316.15C316.66 21.73 317.08 22.15 317.08 22.67V22.68ZM310.02 13.72H315.88V14.87H313.72V20.32H312.17V14.87H310.01V13.72H310.02ZM309.3 27.44C309.3 27.96 308.88 28.38 308.36 28.38H303.93C303.4 28.38 302.98 27.96 302.98 27.44V21.73H304.53V27.1C304.53 27.17 304.59 27.23 304.65 27.23H307.62C307.69 27.23 307.75 27.17 307.75 27.1V21.73H309.29V27.44H309.3ZM302.38 14.54C302.38 14.02 302.8 13.61 303.31 13.61H307.66C308.18 13.61 308.59 14.02 308.59 14.54V19.38C308.59 19.9 308.17 20.31 307.66 20.31H303.31C302.8 20.31 302.38 19.9 302.38 19.38V14.54ZM295.19 13.72H296.72V16.37H299.35V13.72H300.88V20.32H299.35V17.5H296.72V20.32H295.19V13.72ZM295.19 22.68C295.19 22.16 295.61 21.74 296.14 21.74H301.24V22.89H296.87C296.8 22.89 296.75 22.95 296.75 23.01V24.46C296.75 24.53 296.81 24.58 296.87 24.58H300.53C301.05 24.58 301.47 25 301.47 25.51V27.39C301.47 27.91 301.05 28.32 300.53 28.32H295.41V27.18H299.8C299.87 27.18 299.93 27.1 299.93 27.02V25.83C299.93 25.76 299.86 25.71 299.79 25.71H296.12C295.61 25.71 295.2 25.28 295.2 24.77V22.67L295.19 22.68ZM273.31 26.59L280.7 13.78C281.19 12.94 282.54 12.94 283.03 13.78L290.42 26.59C290.66 27.01 290.66 27.52 290.42 27.94C290.18 28.36 289.74 28.61 289.26 28.61H274.47C273.98 28.61 273.55 28.36 273.3 27.94C273.06 27.52 273.06 27.02 273.3 26.59H273.31ZM162.84 17.58C162.84 16.98 163.34 16.48 163.95 16.48H170.05V17.71H164.93C164.75 17.71 164.61 17.85 164.61 18.03V23.71C164.61 23.89 164.75 24.03 164.93 24.03H168.27C168.44 24.03 168.58 23.89 168.58 23.71V21.28H166.71V20.05H170.35V24.16C170.35 24.77 169.85 25.27 169.24 25.27H163.96C163.34 25.27 162.85 24.77 162.85 24.16V17.59L162.84 17.58ZM154.41 16.61H162.07V17.85H159.14V25.27H157.35V17.85H154.42V16.61H154.41ZM146.76 16.61H153.38V17.85H148.86C148.69 17.85 148.54 18 148.54 18.18V20.17H153.38V21.43H148.86C148.69 21.43 148.54 21.57 148.54 21.75V24.02H153.38V25.28H146.76V16.62V16.61ZM137.53 16.61H144.61C145.22 16.61 145.72 17.11 145.72 17.72V21.35C145.72 21.96 145.22 22.46 144.61 22.46H139.31V25.27H137.53V16.61ZM134.53 16.46H135.58L133.04 25.25H131.99L134.53 16.46ZM121.71 17.59C121.71 16.97 122.23 16.46 122.87 16.46H129.75V17.72H123.87C123.69 17.72 123.54 17.88 123.54 18.06V20.05C123.54 20.23 123.68 20.37 123.87 20.37H128.91C129.53 20.37 130.04 20.89 130.04 21.51V24.1C130.04 24.72 129.53 25.24 128.91 25.24H122.01V23.97H127.91C128.08 23.97 128.25 23.79 128.25 23.59V21.97C128.25 21.79 128.08 21.64 127.9 21.64H122.83C122.22 21.61 121.71 21.11 121.71 20.5V17.59ZM112.19 16.59H118.82C119.43 16.59 119.94 17.08 119.94 17.71V20.27L119.99 20.32C120.26 20.53 120.41 20.85 120.41 21.19V24.11C120.41 24.73 119.9 25.24 119.29 25.24H112.19V16.58V16.59ZM102.56 17.59C102.56 16.97 103.07 16.46 103.69 16.46H109.76C110.38 16.46 110.89 16.97 110.89 17.59V25.25H109.08V21.78H104.36V25.25H102.55V17.59H102.56ZM99.56 16.46H100.61L98.07 25.25H97.02L99.56 16.46ZM86.74 17.59C86.74 16.97 87.25 16.46 87.87 16.46H93.94C94.56 16.46 95.07 16.97 95.07 17.59V25.25H93.26V21.78H88.54V25.25H86.73V17.59H86.74ZM80.07 16.46H81.88V23.65C81.88 23.83 82.02 23.97 82.2 23.97H85.7V25.24H81.2C80.58 25.24 80.07 24.72 80.07 24.1V16.46ZM70.71 16.46H77.9C78.52 16.46 79.03 16.97 79.03 17.59V21.27C79.03 21.89 78.52 22.4 77.9 22.4H72.52V25.25H70.71V16.46ZM47.4 21.03V13.23H62.99V28.82H47.4V21.02V21.03ZM36.21 13.23H41.77V20.31L36.21 18.12V13.23ZM36.21 19.05L41.77 21.24V28.82H36.21V19.05ZM29.79 13.23H35.35V20.81L29.79 23V13.23ZM29.79 23.94L35.35 21.75V28.83H29.79V23.94Z" fill="#CFD2D3"/>
<path d="M274.47 27.71H289.26C289.49 27.71 289.61 27.55 289.65 27.48C289.69 27.41 289.77 27.23 289.65 27.03L282.26 14.22C282.14 14.02 281.95 13.99 281.87 13.99C281.79 13.99 281.6 14.01 281.48 14.22L274.09 27.03C273.97 27.23 274.05 27.41 274.09 27.48C274.13 27.55 274.25 27.71 274.48 27.71H274.47ZM283.01 19.79C283.07 19.59 283.15 19.39 283.25 19.2C283.29 19.12 283.33 19.04 283.38 18.96H284.16C283.07 20.51 283.7 21.22 284.24 22.11C284.74 22.93 285.15 23.9 284.16 25.2H283.29C283.29 25.2 283.33 25.15 283.36 25.13C283.51 24.97 283.65 24.8 283.78 24.61C283.87 24.47 283.95 24.33 284.01 24.17C284.06 24.05 284.09 23.93 284.1 23.8C284.11 23.69 284.11 23.58 284.1 23.47C284.09 23.36 284.06 23.26 284.03 23.15C283.99 23.04 283.95 22.93 283.89 22.82C283.83 22.7 283.77 22.59 283.7 22.48C283.55 22.24 283.4 22 283.26 21.75C283.19 21.62 283.13 21.49 283.07 21.35C283.01 21.2 282.97 21.04 282.94 20.88C282.88 20.52 282.91 20.14 283.01 19.78V19.79ZM281.04 19.79C281.1 19.59 281.18 19.39 281.28 19.2C281.32 19.12 281.36 19.04 281.41 18.96H282.19C281.1 20.51 281.73 21.22 282.27 22.11C282.77 22.93 283.18 23.9 282.19 25.2H281.32C281.32 25.2 281.36 25.15 281.39 25.13C281.54 24.97 281.68 24.8 281.81 24.61C281.9 24.47 281.98 24.33 282.04 24.17C282.09 24.05 282.12 23.93 282.13 23.8C282.14 23.69 282.14 23.58 282.13 23.47C282.12 23.36 282.09 23.26 282.06 23.15C282.02 23.04 281.98 22.93 281.92 22.82C281.86 22.7 281.8 22.59 281.73 22.48C281.58 22.24 281.43 22 281.29 21.75C281.22 21.62 281.16 21.49 281.1 21.35C281.04 21.2 281 21.04 280.97 20.88C280.91 20.52 280.94 20.14 281.04 19.78V19.79ZM279.07 19.79C279.13 19.59 279.21 19.39 279.31 19.2C279.35 19.12 279.39 19.04 279.44 18.96H280.22C279.13 20.51 279.76 21.22 280.3 22.11C280.8 22.93 281.21 23.9 280.22 25.2H279.35C279.35 25.2 279.39 25.15 279.42 25.13C279.57 24.97 279.71 24.8 279.84 24.61C279.93 24.47 280.01 24.33 280.07 24.17C280.12 24.05 280.15 23.93 280.16 23.8C280.17 23.69 280.17 23.58 280.16 23.47C280.15 23.36 280.12 23.26 280.09 23.15C280.05 23.04 280.01 22.93 279.95 22.82C279.89 22.7 279.83 22.59 279.76 22.48C279.61 22.24 279.46 22 279.32 21.75C279.25 21.62 279.19 21.49 279.13 21.35C279.07 21.2 279.03 21.04 279 20.88C278.94 20.52 278.97 20.14 279.07 19.78V19.79ZM277.81 25.91H285.92V26.56H277.81V25.91Z" fill="#CFD2D3"/>
<path d="M143.94 20.9V18.17C143.94 17.99 143.79 17.85 143.61 17.85H139.31V21.22H143.63C143.81 21.22 143.95 21.08 143.95 20.9H143.94Z" fill="#CFD2D3"/>
<path d="M369.7 16.69H372.53V22.44H379V16.69H381.83L375.77 13.27L369.7 16.69Z" fill="#CFD2D3"/>
<path d="M379 23.95H372.53V25.82H379V23.95Z" fill="#CFD2D3"/>
<path d="M379 27.69H372.53V28.62H379V27.69Z" fill="#CFD2D3"/>
<path d="M409.55 13.27L403.49 16.69H406.32V22.44H412.79V16.69H415.62L409.55 13.27Z" fill="#CFD2D3"/>
<path d="M412.79 23.95H406.32V25.82H412.79V23.95Z" fill="#CFD2D3"/>
<path d="M412.79 27.69H406.32V28.62H412.79V27.69Z" fill="#CFD2D3"/>
<path d="M393.94 12.83H391.1L390.85 13.53H384.97V27.16V28.65C384.97 28.96 385.22 29.21 385.53 29.21H393.39C393.62 29.21 393.83 29.09 393.95 28.89L394.26 28.38H399.83V13.53H394.23L393.95 12.83H393.94ZM398.32 26.88H386.46V15.02H398.32V26.88Z" fill="#CFD2D3"/>
<path d="M315.55 25V23.01C315.55 22.94 315.48 22.89 315.42 22.89H312.35V25.13H315.42C315.5 25.13 315.55 25.07 315.55 25Z" fill="#CFD2D3"/>
<path d="M304.03 19.18H306.95C307.03 19.18 307.08 19.13 307.08 19.06V14.88C307.08 14.8 307.02 14.75 306.95 14.75H304.03C303.96 14.75 303.91 14.81 303.91 14.88V19.06C303.91 19.13 303.97 19.18 304.03 19.18Z" fill="#CFD2D3"/>
<path d="M330.15 23.01C330.15 22.94 330.09 22.89 330.03 22.89H327.08C327.01 22.89 326.96 22.95 326.96 23.01V24.68H330.15V23.01Z" fill="#CFD2D3"/>
</g>
<defs>
<clipPath id="clip0_3_331">
<rect width="415.62" height="24.94" fill="white" transform="translate(0 6)"/>
</clipPath>
</defs>
</svg>
