<svg width="24" height="446" viewBox="0 0 24 446" fill="none" xmlns="http://www.w3.org/2000/svg">
<path d="M0.200012 136.26H20.97V128H23.4V148.42H20.97V140.16H0.200012V136.26Z" fill="#B3B3B3"/>
<path d="M15.14 150.53C16.62 150.53 17.81 151.73 17.81 153.2V166.35C17.81 167.83 16.62 169.02 15.14 169.02H7.44001V154.47H2.16001V168.71H0.200012V153.21C0.200012 151.73 1.40001 150.54 2.87001 150.54H15.14V150.53ZM15.88 154.47H9.48001V165.09H15.88V154.47Z" fill="#B3B3B3"/>
<path d="M0.200012 185.23L6.28001 180.59L0.200012 175.95V171.84L8.78001 178.41L8.99001 178.55L17.81 171.84V175.92L11.7 180.6L17.81 185.27V189.38L9.20001 182.77L8.99001 182.63L0.200012 189.34V185.23Z" fill="#B3B3B3"/>
<path d="M2.16001 201.06V203.2H0.200012V198.07C0.200012 196.59 1.36001 195.4 2.84001 195.4H15.67V191.5H17.67V195.4H23.4V199.3H17.67V203.2H15.67V199.3H3.96001C2.97001 199.3 2.17001 200.11 2.17001 201.06H2.16001Z" fill="#B3B3B3"/>
<path d="M0.200012 223.49V208.24C0.200012 206.83 1.36001 205.67 2.77001 205.67H17.81V209.47H2.13001V219.7H17.81V223.5H0.200012V223.49Z" fill="#B3B3B3"/>
<path d="M17.49 234.71V237.7H13.66V229.79H0.200012V225.96H17.46V229.79H13.7L15.49 230.95C16.75 231.79 17.49 233.2 17.49 234.71Z" fill="#B3B3B3"/>
<path d="M15.14 240.16C16.62 240.16 17.81 241.36 17.81 242.83V255.98C17.81 257.46 16.62 258.65 15.14 258.65H7.44001V244.1H2.16001V258.34H0.200012V242.84C0.200012 241.36 1.40001 240.17 2.87001 240.17H15.14V240.16ZM15.88 244.1H9.48001V254.72H15.88V244.1Z" fill="#B3B3B3"/>
<path d="M15.03 261.47C16.51 261.47 17.7 262.67 17.7 264.11V275.92H23.39V279.82H0.200012V264.11C0.200012 262.67 1.36001 261.47 2.84001 261.47H15.04H15.03ZM15.7 275.92V265.37H2.16001V275.92H15.69H15.7Z" fill="#B3B3B3"/>
<path d="M23.4 293.18V312.48C23.4 313.92 22.24 315.08 20.8 315.08H10.64C9.20001 315.08 8.04001 313.92 8.04001 312.48V297.05H0.200012V293.18H23.4ZM11.9 311.18L19.53 311.14C20.34 311.14 20.97 310.51 20.97 309.7V297.04H10.42V309.7C10.42 310.51 11.09 311.18 11.9 311.18Z" fill="#B3B3B3"/>
<path d="M23.4 317.9V335.41H20.97V323.28C20.97 322.47 20.3 321.84 19.53 321.84H13.38V335.41H10.99V323.28C10.99 322.47 10.32 321.84 9.51001 321.84H2.59001V335.41H0.200012V317.9H23.4Z" fill="#B3B3B3"/>
<path d="M23.4 338.92V342.82H0.200012V338.92H23.4Z" fill="#B3B3B3"/>
<path d="M23.4 356.19V375.49C23.4 376.93 22.24 378.09 20.8 378.09H10.64C9.20001 378.09 8.04001 376.93 8.04001 375.49V360.06H0.200012V356.19H23.4ZM11.9 374.19L19.53 374.15C20.34 374.15 20.97 373.52 20.97 372.71V360.05H10.42V372.71C10.42 373.52 11.09 374.19 11.9 374.19Z" fill="#B3B3B3"/>
<path d="M2.90001 380.91H23.64V384.85H2.23001V389.91H0.200012V383.58C0.200012 382.1 1.43001 380.91 2.91001 380.91H2.90001Z" fill="#B3B3B3"/>
<path d="M8.00001 392.72C9.48001 392.72 10.67 393.92 10.67 395.36V407.24H15.8V394.27H17.8V407.28C17.8 409.42 16.47 411.18 14.81 411.18H0.200012V395.36C0.200012 393.92 1.40001 392.72 2.87001 392.72H8.00001ZM8.63001 396.62H2.20001V407.23H8.63001V396.62Z" fill="#B3B3B3"/>
<path d="M2.16001 422.53V424.67H0.200012V419.54C0.200012 418.06 1.36001 416.87 2.84001 416.87H15.67V412.97H17.67V416.87H23.4V420.77H17.67V424.67H15.67V420.77H3.96001C2.97001 420.77 2.17001 421.58 2.17001 422.53H2.16001Z" fill="#B3B3B3"/>
<path d="M15.14 426.79C16.62 426.79 17.81 427.99 17.81 429.46V442.61C17.81 444.09 16.62 445.28 15.14 445.28H7.44001V430.73H2.16001V444.97H0.200012V429.47C0.200012 427.99 1.40001 426.8 2.87001 426.8H15.14V426.79ZM15.88 430.73H9.48001V441.35H15.88V430.73Z" fill="#B3B3B3"/>
<path d="M23.41 0V17.93C23.41 19.58 22.07 20.95 20.39 20.95H13.46L13.32 21.09C12.76 21.83 11.88 22.21 10.96 22.21H3.06C1.37 22.21 0 20.84 0 19.19V0H23.41ZM10.02 16.52V4.85H3.41V16.52C3.41 17.01 3.8 17.4 4.29 17.4H9.17C9.63 17.4 10.01 17.01 10.01 16.52H10.02ZM13.39 15.25C13.39 15.71 13.78 16.13 14.27 16.13H19.16C19.65 16.13 20.04 15.71 20.04 15.25V4.85H13.4V15.25H13.39Z" fill="#B3B3B3"/>
<path d="M8.12 25.03C9.84 25.03 11.25 26.44 11.25 28.16V39.16H15.19V26.54H18.21V39.72C18.21 42.11 16.67 44.04 14.77 44.04H0V28.15C0 26.43 1.41 25.02 3.13 25.02H8.12V25.03ZM8.19 39.16V29.92H3.02V39.16H8.19Z" fill="#B3B3B3"/>
<path d="M15.08 72.71H0V67.79H15.19V62.24H0V57.35H15.15V51.8H0V46.88H18.21V69.59C18.21 71.31 16.8 72.72 15.08 72.72V72.71Z" fill="#B3B3B3"/>
<path d="M23.76 75.17V80.09H18.2V91.06C18.2 92.82 16.79 94.22 15.07 94.22H3.13C1.41 94.22 0 92.81 0 91.06V75.17H23.76ZM15.18 89.3V80.09H3.06V89.3H15.19H15.18Z" fill="#B3B3B3"/>
<path d="M18.21 115.11H0V99.75C0 98.06 1.37 96.69 3.06 96.69H18.21V101.44H2.92V110.4H18.21V115.11Z" fill="#B3B3B3"/>
</svg>
