<svg width="440" height="36" viewBox="0 0 440 36" fill="none" xmlns="http://www.w3.org/2000/svg">
<path d="M428.299 2.40002H12.699V3.40002H428.299V2.40002Z" fill="#CFD2D3"/>
<path d="M338.999 13.7H341.899V13H338.399C337.999 13 337.799 13.3 337.799 13.6V17.4C337.799 17.8 338.099 18 338.399 18H341.399C341.799 18 341.999 17.7 341.999 17.4V15H339.899V15.7H340.999V17.1C340.999 17.2 340.899 17.3 340.799 17.3H338.999C338.899 17.3 338.799 17.2 338.799 17.1V13.8C338.899 13.8 338.899 13.7 338.999 13.7Z" fill="#CFD2D3"/>
<path d="M346.3 17.3H344.3C344.2 17.3 344.1 17.2 344.1 17.1V13H343.1V17.3C343.1 17.7 343.4 17.9 343.7 17.9H346.2V17.3H346.3Z" fill="#CFD2D3"/>
<path d="M350.999 17.2C350.999 17.3 350.899 17.4 350.799 17.4H348.499C348.399 17.4 348.299 17.3 348.299 17.2V13.1H347.299V17.4C347.299 17.8 347.599 18 347.899 18H351.299C351.699 18 351.899 17.7 351.899 17.4V13.1H350.899V17.2H350.999Z" fill="#CFD2D3"/>
<path d="M352.898 18H356.698V17.3H353.998V16C353.998 15.9 354.098 15.8 354.198 15.8H356.798V15.1H353.998V14C353.998 13.9 354.098 13.8 354.198 13.8H356.798V13.1H352.998V18H352.898Z" fill="#CFD2D3"/>
<path d="M361.499 13.8H364.799V13.1H360.899C360.499 13.1 360.199 13.4 360.199 13.7V15.3C360.199 15.6 360.499 15.9 360.799 15.9H363.699C363.799 15.9 363.899 16 363.899 16.1V17C363.899 17.1 363.799 17.2 363.699 17.2H360.399V17.9H364.299C364.699 17.9 364.899 17.6 364.899 17.3V15.8C364.899 15.4 364.599 15.2 364.299 15.2H361.399C361.299 15.2 361.199 15.1 361.199 15V14C361.299 13.9 361.399 13.8 361.499 13.8Z" fill="#CFD2D3"/>
<path d="M368.7 18V13.8H370.4V13.1H366V13.8H367.6V18H368.7Z" fill="#CFD2D3"/>
<path d="M372.299 13.1H371.299V18.1H372.299V13.1Z" fill="#CFD2D3"/>
<path d="M377.098 17.3H374.498C374.398 17.3 374.298 17.2 374.298 17.1V14C374.298 13.9 374.398 13.8 374.498 13.8H377.098V13.1H373.998C373.598 13.1 373.398 13.4 373.398 13.7V17.4C373.398 17.8 373.698 18 373.998 18H377.098V17.3Z" fill="#CFD2D3"/>
<path d="M381.4 15.4L382.4 13.1H381.3L380.6 15.1H379.1V13.1H378V18H379.1V15.8H380.6L381.4 18H382.5L381.4 15.4Z" fill="#CFD2D3"/>
<path d="M386 13.7V17.4C386 17.8 386.3 18 386.6 18H389.7V17.3H387.1C387 17.3 386.9 17.2 386.9 17.1V14C386.9 13.9 387 13.8 387.1 13.8H389.7V13.1H386.6C386.3 13.1 386 13.4 386 13.7Z" fill="#CFD2D3"/>
<path d="M394.799 13.1H391.399C390.999 13.1 390.799 13.4 390.799 13.7V18H391.799V16H394.499V18H395.499V13.7C395.499 13.4 395.199 13.1 394.799 13.1ZM394.499 15.4H391.799V14C391.799 13.9 391.899 13.8 391.999 13.8H394.299C394.399 13.8 394.499 13.9 394.499 14V15.4Z" fill="#CFD2D3"/>
<path d="M397.398 14.3L399.998 18H401.098V13.1H400.098V16.9L397.598 13.1H396.398V18H397.398V14.3Z" fill="#CFD2D3"/>
<path d="M404.699 13.1V18H405.699V15.8H407.899V18H408.899V13.1H407.899V15.1H405.699V13.1H404.699Z" fill="#CFD2D3"/>
<path d="M411.098 13.8H413.698V13.1H409.898V18.1H413.698V17.4H410.898V16C410.898 15.9 410.998 15.8 411.098 15.8H413.698V15.1H410.898V14C410.898 13.9 410.998 13.8 411.098 13.8Z" fill="#CFD2D3"/>
<path d="M415.699 17.1V13H414.699V17.3C414.699 17.7 414.999 17.9 415.299 17.9H417.799V17.2H415.799C415.799 17.3 415.699 17.2 415.699 17.1Z" fill="#CFD2D3"/>
<path d="M422.899 13.1H418.799V18.1H419.799V16.5H422.799C423.199 16.5 423.399 16.2 423.399 15.9V13.8C423.499 13.4 423.199 13.1 422.899 13.1ZM422.499 15.5C422.499 15.6 422.399 15.7 422.299 15.7H419.799V13.8H422.299C422.399 13.8 422.499 13.9 422.499 14V15.5Z" fill="#CFD2D3"/>
<path d="M425.6 17.301H424.6V18.101H425.6V17.301Z" fill="#CFD2D3"/>
<path d="M327.699 26.101H320.899L330.699 16.301C331.399 15.601 331.399 14.401 330.699 13.701L325.699 8.70096C324.999 8.00096 323.799 8.00096 323.099 8.70096L311.199 20.601C310.899 20.901 310.699 21.401 310.699 21.901C310.699 22.401 310.899 22.801 311.199 23.201L315.199 27.201H316.099H317.499H319.799H327.799C328.099 27.201 328.399 26.901 328.399 26.601C328.399 26.301 327.999 26.101 327.699 26.101ZM323.899 9.50095C324.199 9.20095 324.599 9.20095 324.899 9.50095L329.899 14.501C330.199 14.801 330.199 15.201 329.899 15.501L322.299 23.101L316.299 17.101L323.899 9.50095ZM319.299 26.101H315.999H315.599L311.899 22.401C311.799 22.301 311.699 22.101 311.699 21.901C311.699 21.701 311.799 21.501 311.899 21.401L315.399 17.901L321.399 23.901L319.299 26.101Z" fill="#CFD2D3"/>
<path d="M331.798 26.1H329.998C329.698 26.1 329.398 26.4 329.398 26.7C329.398 27 329.698 27.3 329.998 27.3H331.798C332.098 27.3 332.398 27 332.398 26.7C332.298 26.4 332.098 26.1 331.798 26.1Z" fill="#CFD2D3"/>
<path d="M340.1 22.4V22.3C340.2 22.1 340.2 22 340.3 21.8H343.4V21.2H340.5C340.5 21.1 340.6 20.8 340.7 20.5L340 20.4C340 20.5 339.9 20.8 339.8 21.2H337.9V21.8H339.6C339.5 22 339.5 22.2 339.3 22.6H337.5V23.2H339.1C339 23.5 338.8 23.8 338.7 24V24.5H342.1C341.7 24.9 341.3 25.3 340.9 25.6C339.9 25.2 339.1 25 338.6 24.8L338.4 25.4C339 25.6 339.7 25.8 340.5 26.1C341.3 26.4 342 26.7 342.6 26.9L342.9 26.3C342.6 26.2 342.2 26 341.6 25.8C342.2 25.3 342.6 24.9 343 24.4V23.8H339.5C339.6 23.6 339.7 23.4 339.8 23.1H343.7V22.5H340C340.1 22.5 340.1 22.5 340.1 22.4Z" fill="#CFD2D3"/>
<path d="M345.498 23.6C345.498 24.1 345.498 24.6 345.498 24.8C345.498 25.1 345.398 25.4 345.298 25.6C345.198 25.8 345.098 26.1 344.898 26.5L345.498 26.8C345.698 26.4 345.898 26.1 345.998 25.7C346.098 25.4 346.198 25 346.198 24.6H347.898V26.5H348.498V24.6H350.198V25.5C350.198 25.7 350.198 25.8 350.098 25.8C350.098 25.9 349.998 25.9 349.798 25.9C349.598 25.9 349.398 25.9 349.098 25.8L349.198 26.5C349.498 26.5 349.698 26.5 349.898 26.5C350.098 26.5 350.298 26.5 350.498 26.4C350.598 26.4 350.698 26.3 350.798 26.1C350.898 26 350.898 25.8 350.898 25.6V20.4H345.698V23.6H345.498ZM348.398 21.4H350.098V22.5H348.398V21.4ZM348.398 23.1H350.098V24.1H348.398V23.1ZM346.098 21.4H347.698V22.5H346.098V21.4ZM346.098 23.9V23.1H347.698V24.1H346.098V23.9Z" fill="#CFD2D3"/>
<path d="M357.8 23.6L357.2 23.4C357 23.9 356.8 24.4 356.6 24.7C356.4 24.4 356.2 23.9 356 23.4L355.4 23.6C355.6 24.2 355.9 24.8 356.2 25.2C355.8 25.6 355.3 26 354.6 26.3L355 26.9C355.7 26.6 356.2 26.2 356.6 25.7C357 26.1 357.6 26.5 358.2 26.8L358.6 26.2C357.9 25.9 357.4 25.6 357 25.2C357.3 24.8 357.6 24.2 357.8 23.6Z" fill="#CFD2D3"/>
<path d="M355.099 23.9C355.499 23.4 355.899 22.9 356.299 22.3L355.799 22C355.399 22.6 354.999 23.1 354.699 23.6L355.099 23.9Z" fill="#CFD2D3"/>
<path d="M352.6 23.501C352.6 24.101 352.6 24.601 352.6 25.001C352.6 25.401 352.5 25.701 352.4 25.901C352.3 26.101 352.2 26.401 352.1 26.701L352.7 27.001C352.9 26.701 353 26.401 353.1 26.001C353.2 25.601 353.2 25.201 353.3 24.701H354.1V25.901C354.1 26.001 354.1 26.101 354.1 26.201C354.1 26.301 354 26.301 353.9 26.301C353.7 26.301 353.6 26.301 353.4 26.301L353.5 26.901C353.7 26.901 353.9 26.901 354 26.901C354.3 26.901 354.4 26.801 354.5 26.701C354.6 26.601 354.7 26.401 354.7 26.101V20.801H352.7V23.501H352.6ZM353.1 21.401H353.9V22.401H353.1V21.401ZM353.1 23.701V23.001H353.9V24.001H353.1V23.701Z" fill="#CFD2D3"/>
<path d="M356.898 22.3C357.198 22.7 357.598 23.2 358.098 23.8L358.598 23.4C358.198 22.9 357.798 22.4 357.398 21.9L356.898 22.3Z" fill="#CFD2D3"/>
<path d="M358.398 21.3H356.998C356.898 20.9 356.698 20.6 356.698 20.4L356.098 20.6C356.198 20.9 356.298 21.1 356.398 21.4H354.898V22H358.398V21.3Z" fill="#CFD2D3"/>
<path d="M364.8 23.5H365.9V23H363.5C363.5 22.9 363.6 22.8 363.7 22.6H365.6V22H363.8C363.8 21.9 363.9 21.8 363.9 21.5H365.7V21H363.9L364 20.4H363.4C363.4 20.6 363.4 20.8 363.3 21H361.8V21.5H363.2L363.1 22H361.9V22.5H362.9C362.9 22.6 362.8 22.8 362.7 22.9H361.6V23.4H362.4C362.1 23.9 361.7 24.3 361.1 24.7L361.4 25.2C361.7 24.9 362 24.7 362.3 24.4V24.8H363.2V25.3H361.7V25.8H363.2V26.7H363.8V25.8H365.3V25.3H363.8V24.8H364.7V24.4C365 24.7 365.3 25 365.6 25.2L365.9 24.7C365.6 24.5 365.4 24.4 365.2 24.2C365.1 24 364.9 23.8 364.8 23.5ZM363.9 24.4V23.8H363.3V24.4H362.5C362.7 24.1 362.9 23.8 363.1 23.5H364.1C364.3 23.8 364.5 24.1 364.7 24.4H363.9Z" fill="#CFD2D3"/>
<path d="M361.498 24.3L361.798 23.8C361.498 23.4 361.198 23.1 360.998 22.8V22.4H361.698V21.8H360.998V20.5H360.398V21.8H359.598V22.4H360.298C360.198 22.8 359.998 23.2 359.898 23.6C359.698 24 359.598 24.4 359.398 24.7L359.698 25.4C359.898 25 360.198 24.5 360.398 24V26.9H360.998V23.7C361.198 23.9 361.298 24.1 361.398 24.2L361.498 24.3Z" fill="#CFD2D3"/>
<path d="M370.599 22.4H367.699V25.2H370.599V22.4ZM369.899 24.6H368.199V23H369.899V24.6Z" fill="#CFD2D3"/>
<path d="M366.898 21.401H371.698V25.501C371.698 25.701 371.698 25.901 371.598 26.001C371.498 26.101 371.398 26.101 371.198 26.101C370.898 26.101 370.598 26.101 370.198 26.001L370.298 26.601C370.598 26.601 370.898 26.601 371.198 26.601C371.498 26.601 371.698 26.601 371.898 26.501C372.098 26.401 372.198 26.301 372.198 26.201C372.198 26.101 372.298 25.801 372.298 25.601V21.301H373.198V20.701H366.898V21.401Z" fill="#CFD2D3"/>
<path d="M376.798 24.9L375.198 25.7V23.8H376.698V21H374.398V21.7H376.098V23.2H374.598V25.8C374.598 25.9 374.498 26.1 374.398 26.2L374.698 26.8C374.798 26.7 375.098 26.6 375.398 26.4C375.898 26.2 376.398 25.9 376.998 25.7L376.798 24.9Z" fill="#CFD2D3"/>
<path d="M379.699 23.701C379.899 23.201 379.999 22.701 379.999 22.101H380.499V21.401H378.299C378.399 21.101 378.499 20.801 378.599 20.401L377.899 20.301C377.799 20.701 377.699 21.201 377.399 21.701C377.199 22.201 376.899 22.601 376.699 23.001L377.099 23.501C377.199 23.301 377.299 23.201 377.399 23.101C377.599 23.701 377.799 24.301 378.199 24.901C377.799 25.401 377.099 25.801 376.299 26.301L376.699 26.901C377.499 26.401 378.099 26.001 378.599 25.501C378.999 26.001 379.599 26.501 380.199 26.901L380.599 26.301C379.899 25.901 379.399 25.501 378.999 25.001C379.299 24.601 379.499 24.201 379.699 23.701ZM377.899 22.401L377.999 22.101H379.299C379.199 22.601 379.199 23.001 378.999 23.401C378.899 23.801 378.699 24.101 378.499 24.401C378.299 23.901 378.099 23.201 377.899 22.401Z" fill="#CFD2D3"/>
<path d="M382.299 26.8H382.899V26.6H386.399V26.8H386.999V25H382.199V26.8H382.299ZM382.999 25.5H386.499V26H382.999V25.5Z" fill="#CFD2D3"/>
<path d="M386.899 23.5H387.799V23H385.099V22.6H387.399V22.1H385.099V21.7H387.699V21.2H386.199C386.299 21 386.399 20.9 386.499 20.8L386.599 20.7L385.999 20.5C385.899 20.7 385.699 21 385.499 21.3H384.199C384.099 21.2 383.999 20.9 383.799 20.6L383.199 20.8C383.199 20.9 383.299 21 383.399 21.2C383.399 21.2 383.399 21.2 383.399 21.3C383.399 21.3 383.399 21.4 383.499 21.4H381.999V21.9H384.599V22.3H382.299V22.8H384.599V23.2H381.899V23.7H382.799C382.899 23.9 382.999 24.1 383.099 24.3H381.799V24.8H388.099V24.3H386.799C386.699 24 386.699 23.7 386.899 23.5ZM384.399 24.1H383.499L383.199 23.5H384.399V24.1ZM385.999 24.1H385.099V23.5H386.299C386.199 23.7 386.099 23.9 385.999 24.1Z" fill="#CFD2D3"/>
<path d="M393.599 20.5H392.899V23.5H391.799V26.9H392.399V26.5H394.299V26.9H394.899V23.5H393.499V22.2H395.199V21.6H393.499V20.5H393.599ZM394.299 24.1V25.8H392.399V24.1H394.299Z" fill="#CFD2D3"/>
<path d="M391.799 21.1L391.299 20.9C391.199 21.1 391.199 21.4 390.999 21.6C390.799 21.8 390.799 22.1 390.699 22.3L391.199 22.5C391.299 22.3 391.399 22.1 391.499 21.8C391.699 21.6 391.799 21.3 391.799 21.1Z" fill="#CFD2D3"/>
<path d="M389.398 20.9L388.898 21.1C388.998 21.3 389.098 21.5 389.198 21.8C389.298 22.1 389.398 22.3 389.398 22.5L389.898 22.3C389.798 22.1 389.798 21.8 389.698 21.5C389.598 21.3 389.498 21.1 389.398 20.9Z" fill="#CFD2D3"/>
<path d="M390.599 20.5H389.999V22.9H388.799V23.5H389.899C389.799 23.8 389.599 24.1 389.399 24.5C389.199 24.8 388.999 25.1 388.699 25.4L389.099 26C389.499 25.5 389.799 25 389.999 24.5V26.9H390.599V24.7C390.799 24.9 390.999 25.1 391.199 25.4L391.599 24.9C391.299 24.6 390.999 24.2 390.599 23.9V23.5H391.599V22.9H390.599V20.5Z" fill="#CFD2D3"/>
<path d="M398.199 23.2C397.999 23.3 397.799 23.3 397.699 23.4V22.3H398.299V21.7H397.699V20.5H397.099V21.7H396.299V22.3H397.099V23.6C396.799 23.7 396.499 23.8 396.199 23.9L396.299 24.5L397.099 24.2V25.8C397.099 25.9 397.099 26 396.999 26C396.999 26 396.899 26.1 396.799 26.1C396.599 26.1 396.399 26.1 396.299 26.1L396.399 26.7C396.599 26.7 396.799 26.7 396.999 26.7C397.199 26.7 397.299 26.7 397.399 26.6C397.499 26.6 397.599 26.5 397.599 26.4C397.599 26.3 397.699 26.1 397.699 25.9V23.9L398.199 23.7V23.2Z" fill="#CFD2D3"/>
<path d="M401.699 21.601H402.399V21.001H400.899C400.899 20.901 400.799 20.801 400.799 20.801C400.799 20.701 400.699 20.701 400.699 20.601C400.699 20.501 400.599 20.401 400.599 20.301L399.899 20.501C399.999 20.601 399.999 20.801 400.099 21.101H398.499V21.701H399.099L399.299 22.601H398.299V23.201H402.499V22.601H401.399L401.699 21.601ZM400.899 22.601H399.999L399.799 21.701H401.099C400.999 22.001 400.999 22.301 400.899 22.601Z" fill="#CFD2D3"/>
<path d="M400.3 23.401L399.7 23.301C399.7 23.401 399.6 23.701 399.4 23.901H398.2V24.501H399.1C398.9 24.801 398.8 25.001 398.6 25.201C399.1 25.401 399.5 25.601 399.9 25.701C399.5 25.901 398.9 26.101 398.1 26.201L398.3 26.801C398.8 26.701 399.3 26.601 399.6 26.401C400 26.301 400.3 26.101 400.5 25.901C401 26.101 401.5 26.401 402.1 26.701L402.4 26.101C402 25.901 401.6 25.701 401 25.401C401.3 25.101 401.5 24.701 401.7 24.301H402.4V23.701H399.9C400.2 23.701 400.3 23.501 400.3 23.401ZM401.2 24.501C401 24.901 400.8 25.201 400.6 25.401C400.2 25.201 399.8 25.101 399.6 25.001C399.7 24.901 399.8 24.701 399.9 24.501H401.2Z" fill="#CFD2D3"/>
<path d="M407 26.6H407.6V26H409V26.5H409.6V21H407V26.6ZM407.6 21.6H409V25.4H407.6V21.6Z" fill="#CFD2D3"/>
<path d="M405.6 23.3V23H406.7V22.4H405.6V21.4C406.1 21.3 406.4 21.2 406.6 21.2L406.4 20.6C406 20.7 405.6 20.8 405.1 20.9C404.6 21 404.1 21.1 403.7 21.1L403.8 21.7C404.1 21.7 404.4 21.6 404.8 21.6V22.4H403.6V23H404.7C404.6 23.3 404.4 23.7 404.2 24.1C404 24.5 403.8 24.8 403.5 25.1L403.9 25.7C404.3 25.2 404.6 24.6 404.9 24V26.9H405.5V24C405.8 24.3 406 24.6 406.3 24.9L406.7 24.4C406.4 24 406 23.6 405.6 23.3Z" fill="#CFD2D3"/>
<path d="M414.998 21.401C414.898 21.201 414.798 21.001 414.698 20.801C414.598 20.601 414.498 20.501 414.398 20.301L413.898 20.601C413.998 20.701 413.998 20.801 414.198 21.001C414.298 21.201 414.398 21.401 414.498 21.601L414.998 21.401Z" fill="#CFD2D3"/>
<path d="M411.4 23.4C411.4 24 411.4 24.5 411.4 24.9C411.4 25.3 411.3 25.5 411.3 25.8C411.2 26 411.1 26.3 411 26.6L411.5 26.9C411.7 26.6 411.8 26.2 411.9 25.9C412 25.6 412 25.2 412.1 24.7H412.8V25.9C412.8 26 412.8 26.1 412.7 26.2C412.7 26.2 412.6 26.3 412.5 26.3C412.4 26.3 412.3 26.3 412.1 26.3L412.2 26.9C412.4 26.9 412.6 26.9 412.7 26.9C412.9 26.9 413.1 26.8 413.2 26.7C413.3 26.6 413.3 26.4 413.3 26.2V21H411.4V23.4ZM411.9 21.4H412.6V22.4H411.9V21.4ZM411.9 23H412.6V24H411.9V23Z" fill="#CFD2D3"/>
<path d="M416.798 25.401C416.798 25.601 416.798 25.801 416.798 25.801C416.798 25.901 416.798 26.001 416.798 26.101C416.798 26.201 416.698 26.201 416.598 26.201H416.498H416.398C416.298 26.201 416.298 26.201 416.198 26.101C416.198 26.001 416.198 26.001 416.198 25.801V24.201H416.998V21.701H416.198C416.398 21.401 416.498 21.101 416.598 20.901L416.798 20.601L416.198 20.301C416.098 20.501 415.998 20.701 415.898 20.901C415.798 21.201 415.598 21.401 415.498 21.601H413.798V24.101H414.398C414.398 24.501 414.398 24.801 414.298 25.001C414.198 25.201 414.098 25.501 413.998 25.601C413.798 25.801 413.598 26.001 413.398 26.101L413.798 26.601C414.098 26.401 414.298 26.101 414.498 25.901C414.698 25.701 414.798 25.401 414.898 25.101C414.998 24.801 414.998 24.401 414.998 24.001H415.598V25.701C415.598 26.001 415.598 26.101 415.698 26.301C415.798 26.401 415.898 26.501 416.098 26.501C416.198 26.501 416.298 26.501 416.398 26.501C416.498 26.501 416.598 26.501 416.698 26.501C416.898 26.501 417.098 26.401 417.198 26.301C417.298 26.201 417.398 26.001 417.398 25.801C417.398 25.701 417.398 25.501 417.398 25.301C417.398 25.101 417.398 25.001 417.398 24.901V24.701L416.798 24.601C416.798 25.001 416.798 25.201 416.798 25.401ZM414.398 23.701V22.401H416.298V23.701H414.398Z" fill="#CFD2D3"/>
<path d="M422.999 25.301H424.599V24.801H422.799V24.701V24.401H424.199V22.201H420.799V24.401H422.199C422.199 24.601 422.199 24.701 422.199 24.701V24.801H420.399V25.301H421.999C421.899 25.501 421.699 25.701 421.399 25.801C421.099 26.001 420.699 26.101 420.299 26.201L420.499 26.801C421.499 26.501 422.199 26.101 422.499 25.601C422.899 26.201 423.599 26.601 424.499 26.801L424.699 26.201C424.299 26.101 423.899 26.001 423.599 25.801C423.399 25.801 423.199 25.601 422.999 25.301ZM421.399 22.601H423.699V23.001H421.399V22.601ZM421.399 23.901V23.501H423.699V23.901H421.399Z" fill="#CFD2D3"/>
<path d="M423 20.4V21H422V20.4H421.5V21H420.5V21.6H421.5V21.9H422V21.6H423V21.9H423.6V21.6H424.6V21H423.6V20.4H423Z" fill="#CFD2D3"/>
<path d="M419.999 23L419.799 22.7V22.3H420.499V21.7H419.799V20.4H419.199V21.7H418.399V22.3H419.199C419.099 22.7 418.899 23.1 418.799 23.5C418.599 23.9 418.399 24.3 418.199 24.6L418.599 25.2C418.899 24.8 419.099 24.3 419.299 23.6V26.8H419.899V23.5C420.199 23.9 420.299 24.1 420.399 24.2L420.699 23.6L419.999 23Z" fill="#CFD2D3"/>
<path d="M214.798 7.5L203.598 18.7V13L209.098 7.5H203.598H203.498H197.898H192.198H186.498H180.798H175.398H169.498H40.498H37.598C36.898 7.6 36.3979 8.09999 36.3979 8.79999V26C36.3979 26.7 36.898 27.2 37.598 27.3H37.798H169.798H172.398H178.098H183.698H189.398H195.098H200.798H203.798V24.3L220.698 7.40002H214.798V7.5ZM47.498 25.2H41.8979V20.3L47.498 18.1V25.2ZM41.8979 19.4V17.4V9.59998H47.498V17.2L41.8979 19.4ZM53.8979 25.2H48.298V15.4L53.8979 17.6V25.2ZM53.8979 16.7L48.298 14.5V9.59998H49.698H53.8979V16.7ZM75.0979 17.4V25.2H67.298H59.4979V17.4V9.59998H67.298H75.0979V17.4ZM93.898 17.7C93.898 18.3 93.398 18.8 92.798 18.8H87.398V21.6H85.798H85.5979V12.8H90.298H91.398H92.798C93.398 12.8 93.898 13.3 93.898 13.9V17.7ZM100.798 21.6H96.298C95.698 21.6 95.198 21.1 95.198 20.5V12.9H96.9979V20.1C96.9979 20.3 97.098 20.4 97.298 20.4H100.798V21.6ZM110.398 21.6H109.598H108.598V18.1H103.898V21.6H102.898H102.098V14C102.098 13.4 102.598 12.9 103.198 12.9H109.298C109.898 12.9 110.398 13.4 110.398 14V21.6Z" fill="#CFD2D3"/>
<path d="M226.199 7.5L206.299 27.3H211.999L231.799 7.5H226.199Z" fill="#CFD2D3"/>
<path d="M237.499 7.5L217.699 27.3H223.299L243.199 7.5H237.499Z" fill="#CFD2D3"/>
<path d="M248.9 7.5L229 27.3H234.7L254.5 7.5H248.9Z" fill="#CFD2D3"/>
<path d="M260.199 7.5L240.299 27.3H245.999L265.899 7.5H260.199Z" fill="#CFD2D3"/>
<path d="M271.499 7.5L251.699 27.3H257.299L277.199 7.5H271.499Z" fill="#CFD2D3"/>
<path d="M282.8 7.5L263 27.3H268.7L288.5 7.5H282.8Z" fill="#CFD2D3"/>
<path d="M294.199 7.5L274.299 27.3H279.999L299.899 7.5H294.199Z" fill="#CFD2D3"/>
<path d="M291.399 27.301L302.699 16.001V10.301L285.699 27.301H291.399Z" fill="#CFD2D3"/>
<path d="M302.7 27.301V21.701L297 27.301H302.7Z" fill="#CFD2D3"/>
<path d="M108.298 14.1H104.998H104.198C103.998 14.1 103.898 14.3 103.898 14.4V16.8H108.598V14.4C108.598 14.3 108.498 14.1 108.298 14.1Z" fill="#CFD2D3"/>
<path d="M91.6991 14.1H87.2991V17.5H91.6991C91.8991 17.5 91.9991 17.4 91.9991 17.2V14.4C92.0991 14.3 91.8991 14.1 91.6991 14.1Z" fill="#CFD2D3"/>
<path d="M67.2991 13.501V14.801H68.5991H69.899V16.101V17.401H68.5991H67.2991V20.001V22.601H68.5991H69.899V21.301V20.001H71.1991H72.4991V16.101V12.201H69.899H67.2991V13.501Z" fill="#CFD2D3"/>
<path d="M67.299 14.801H65.999H64.699V16.101V17.401H65.999H67.299V16.101V14.801Z" fill="#CFD2D3"/>
<path d="M64.7001 12.201H63.4001H62.1001V13.501V14.801H63.4001H64.7001V13.501V12.201Z" fill="#CFD2D3"/>
</svg>
