<svg width="30" height="320" viewBox="0 0 30 320" fill="none" xmlns="http://www.w3.org/2000/svg">
<path d="M27.0312 0H2V320H27.0312V0Z" fill="#535656"/>
<path d="M25.479 65.0754V74.6217C25.479 75.3617 24.439 75.8797 23.269 75.8797H7.66899C6.36899 75.8797 5.45898 75.2877 5.45898 74.6217V65.0754H25.479ZM23.399 73.2156V66.9994H7.53898V73.2156C7.53898 73.5856 8.05899 73.9557 8.83899 73.9557H22.229C22.879 73.9557 23.399 73.6596 23.399 73.2156Z" fill="#CFD2D3"/>
<path d="M5.45898 86.018V78.5437C5.45898 77.8777 6.49899 77.2857 7.66899 77.2857H20.669V79.1358H7.14898V84.1679H20.669V86.018H5.45898Z" fill="#CFD2D3"/>
<path d="M12.219 87.276C13.519 87.276 14.559 87.868 14.559 88.608V94.4542H18.979V88.09H20.669V94.4542C20.669 95.4903 19.499 96.3783 18.069 96.3783H5.45898V88.608C5.45898 87.868 6.49898 87.276 7.79898 87.276H12.219ZM12.739 89.2001H7.14898V94.4542H12.739V89.2001Z" fill="#CFD2D3"/>
<path d="M7.80008 97.7103H25.7401V99.6343H7.15008V102.15H5.33008V99.0423C5.46008 98.3023 6.50008 97.7103 7.80008 97.7103Z" fill="#CFD2D3"/>
<path d="M17.1605 104.371V108.071H15.7305V104.371H17.1605Z" fill="#CFD2D3"/>
<path d="M13.9098 120.8H7.79984C6.49984 120.8 5.58984 120.208 5.58984 119.542V110.439H7.53984V118.21C7.53984 118.58 8.18984 118.95 8.96984 118.95H12.8698C13.5198 118.95 14.1698 118.654 14.1698 118.21V111.327C14.1698 110.661 15.2098 110.069 16.3798 110.069H23.3998C24.5698 110.069 25.6098 110.661 25.6098 111.401V120.504H23.5298V112.659C23.5298 112.289 23.0098 111.919 22.2298 111.919H17.4198C16.7698 111.919 16.1198 112.215 16.1198 112.659V119.542C16.1198 120.208 15.0798 120.8 13.9098 120.8Z" fill="#CFD2D3"/>
<path d="M20.539 122.205V124.129H5.45898V122.205H20.539ZM25.479 122.205V124.129H23.789V122.205H25.479Z" fill="#CFD2D3"/>
<path d="M18.199 125.461C19.499 125.461 20.539 126.053 20.539 126.793V132.639H25.479V134.563H5.45898V126.867C5.45898 126.127 6.49898 125.535 7.79898 125.535H18.199V125.461ZM18.849 132.565V127.385H7.14898V132.565H18.849Z" fill="#CFD2D3"/>
<path d="M18.329 135.895C19.629 135.895 20.669 136.487 20.669 137.227V143.665C20.669 144.405 19.629 144.997 18.329 144.997H11.699V137.819H7.14898V144.849H5.45898V137.227C5.45898 136.487 6.49898 135.895 7.79898 135.895H18.329ZM18.979 137.819H13.389V143.073H18.979V137.819Z" fill="#CFD2D3"/>
<path d="M18.199 146.404C19.499 146.404 20.539 146.996 20.539 147.736V153.583H25.479V155.507H5.45898V147.81C5.45898 147.07 6.49898 146.478 7.79898 146.478H18.199V146.404ZM18.849 153.509V148.328H7.14898V153.509H18.849Z" fill="#CFD2D3"/>
<path d="M5.45898 166.014H23.399V161.944H25.479V172.009H23.399V167.938H5.45898V166.014Z" fill="#CFD2D3"/>
<path d="M18.329 173.045C19.629 173.045 20.669 173.637 20.669 174.377V180.815C20.669 181.555 19.629 182.147 18.329 182.147H11.699V174.969H7.14898V181.999H5.45898V174.377C5.45898 173.637 6.49898 173.045 7.79898 173.045H18.329ZM18.979 175.043H13.389V180.297H18.979V175.043Z" fill="#CFD2D3"/>
<path d="M5.45898 190.139L10.659 187.845L5.45898 185.55V183.552L12.869 186.808L12.999 186.882L20.669 183.552V185.55L15.339 187.845L20.669 190.139V192.137L13.259 188.881L13.129 188.807L5.58899 192.137V190.139H5.45898Z" fill="#CFD2D3"/>
<path d="M7.14898 197.909V198.945H5.45898V196.429C5.45898 195.689 6.49898 195.097 7.79898 195.097H18.849V193.173H20.539V195.097H25.479V197.021H20.539V198.945H18.849V197.021H8.70898C7.79898 197.095 7.14898 197.465 7.14898 197.909Z" fill="#CFD2D3"/>
<path d="M5.45898 209.009V201.461C5.45898 200.795 6.49899 200.203 7.66899 200.203H20.669V202.053H7.14898V207.085H20.669V208.935H5.45898V209.009Z" fill="#CFD2D3"/>
<path d="M20.409 214.486V215.966H17.159V212.044H5.45898V210.194H20.409V212.044H17.159L18.719 212.636C19.759 213.08 20.409 213.746 20.409 214.486Z" fill="#CFD2D3"/>
<path d="M18.329 217.151C19.629 217.151 20.669 217.743 20.669 218.483V224.921C20.669 225.661 19.629 226.253 18.329 226.253H11.699V219.075H7.14898V226.105H5.45898V218.483C5.45898 217.743 6.49898 217.151 7.79898 217.151H18.329ZM18.979 219.149H13.389V224.403H18.979V219.149Z" fill="#CFD2D3"/>
<path d="M18.199 227.658C19.499 227.658 20.539 228.25 20.539 228.99V234.837H25.479V236.761H5.45898V228.99C5.45898 228.25 6.49898 227.658 7.79898 227.658H18.199ZM18.849 234.763V229.582H7.14898V234.763H18.849Z" fill="#CFD2D3"/>
<path d="M25.479 243.272V252.744C25.479 253.484 24.439 254.002 23.269 254.002H14.429C13.129 254.002 12.219 253.41 12.219 252.744V245.122H5.45898V243.198H25.479V243.272ZM15.599 252.152H22.229C22.879 252.152 23.529 251.856 23.529 251.412V245.196H14.429V251.412C14.299 251.782 14.819 252.152 15.599 252.152Z" fill="#CFD2D3"/>
<path d="M25.479 255.409V263.993H23.399V257.999C23.399 257.629 22.879 257.259 22.099 257.259H16.769V263.919H14.689V257.925C14.689 257.555 14.169 257.185 13.389 257.185H7.53898V263.845H5.45898V255.261H25.479V255.409Z" fill="#CFD2D3"/>
<path d="M25.479 265.769V267.693H5.45898V265.769H25.479Z" fill="#CFD2D3"/>
<path d="M25.479 274.28V283.752C25.479 284.492 24.439 285.01 23.269 285.01H14.429C13.129 285.01 12.219 284.418 12.219 283.752V276.204H5.45898V274.28H25.479ZM15.599 283.16H22.229C22.879 283.16 23.529 282.864 23.529 282.42V276.204H14.429V282.42C14.299 282.79 14.819 283.16 15.599 283.16Z" fill="#CFD2D3"/>
<path d="M7.80008 286.416H25.7401V288.34H7.15008V290.856H5.33008V287.748C5.46008 287.008 6.50008 286.416 7.80008 286.416Z" fill="#CFD2D3"/>
<path d="M12.219 292.262C13.519 292.262 14.559 292.854 14.559 293.594V299.441H18.979V293.076H20.669V299.441C20.669 300.477 19.499 301.365 18.069 301.365H5.45898V293.594C5.45898 292.854 6.49898 292.262 7.79898 292.262H12.219ZM12.739 294.186H7.14898V299.441H12.739V294.186Z" fill="#CFD2D3"/>
<path d="M7.14898 307.285V308.321H5.45898V305.805C5.45898 305.065 6.49898 304.473 7.79898 304.473H18.849V302.548H20.539V304.473H25.479V306.397H20.539V308.321H18.849V306.397H8.70898C7.79898 306.397 7.14898 306.767 7.14898 307.285Z" fill="#CFD2D3"/>
<path d="M18.329 309.505C19.629 309.505 20.669 310.097 20.669 310.837V317.276C20.669 318.016 19.629 318.608 18.329 318.608H11.699V311.429H7.14898V318.46H5.45898V310.837C5.45898 310.097 6.49898 309.505 7.79898 309.505H18.329ZM18.979 311.503H13.389V316.758H18.979V311.503Z" fill="#CFD2D3"/>
<path d="M25.4792 1.87903V10.6853C25.4792 11.4993 24.3092 12.1653 22.8792 12.1653H16.8992L16.7692 12.2393C16.2492 12.6094 15.4692 12.7574 14.6892 12.7574H7.79922C6.36922 12.7574 5.19922 12.0913 5.19922 11.2773V1.87903H25.4792ZM13.9092 10.0193V4.2471H8.18922V10.0193C8.18922 10.2413 8.57922 10.4633 8.96922 10.4633H13.1292C13.6492 10.4633 13.9092 10.2413 13.9092 10.0193ZM16.8992 9.35326C16.8992 9.57526 17.2892 9.79727 17.6792 9.79727H21.8392C22.2292 9.79727 22.6192 9.57526 22.6192 9.35326V4.2471H16.8992V9.35326Z" fill="#CFD2D3"/>
<path d="M12.3481 14.1635C13.7781 14.1635 15.0781 14.8295 15.0781 15.7175V21.1197H18.4581V14.9035H21.0581V21.4157C21.0581 22.5997 19.7581 23.5617 18.0681 23.5617H5.32812V15.7175C5.32812 14.9035 6.49812 14.1635 8.05812 14.1635H12.3481ZM12.3481 21.1197V16.6055H7.92813V21.1197H12.3481Z" fill="#CFD2D3"/>
<path d="M18.3281 37.6216H5.32812V35.1795H18.4581V32.4414H5.32812V30.0734H18.4581V27.3356H5.32812V24.8935H21.0581V36.0676C21.0581 36.9556 19.7581 37.6216 18.3281 37.6216Z" fill="#CFD2D3"/>
<path d="M25.8681 38.8802V41.3223H21.0581V46.7244C21.0581 47.6124 19.8881 48.2785 18.3281 48.2785H8.05812C6.62812 48.2785 5.32812 47.6124 5.32812 46.7244V38.8802H25.8681ZM18.4581 45.8364V41.3223H7.92813V45.8364H18.4581Z" fill="#CFD2D3"/>
<path d="M21.0581 58.4919H5.32812V50.9437C5.32812 50.1296 6.49813 49.4636 7.92813 49.4636H21.0581V51.8317H7.79812V56.2718H21.0581V58.4919Z" fill="#CFD2D3"/>
</svg>
