<svg width="30" height="320" viewBox="0 0 30 320" fill="none" xmlns="http://www.w3.org/2000/svg">
<path d="M29.3965 7H1V313.877H29.3965V7Z" fill="#535656"/>
<path d="M17.8082 221.66H3.4082V222.46H17.8082V221.66Z" fill="#CFD2D3"/>
<path d="M6.00859 138.262H24.0086C25.5086 138.262 26.5586 139.462 26.5586 140.812V155.662H24.1586V143.662C24.1586 142.912 23.5586 142.162 22.6586 142.162H7.20859C6.45859 142.162 5.70859 142.762 5.70859 143.662V155.662H3.30859V140.812C3.45859 139.462 4.50859 138.262 6.00859 138.262Z" fill="#CFD2D3"/>
<path d="M18.457 158.512C19.807 158.512 21.007 159.712 21.007 161.062V173.662C21.007 175.162 19.807 176.212 18.457 176.212H6.00703C4.65703 176.212 3.45703 175.012 3.45703 173.662V161.062C3.45703 159.712 4.65703 158.512 6.00703 158.512H18.457ZM19.057 162.262H5.40703V172.462H19.057V162.262Z" fill="#CFD2D3"/>
<path d="M18.457 179.061C19.807 179.061 21.007 180.261 21.007 181.611V194.211C21.007 195.711 19.807 196.761 18.457 196.761H6.00703C4.65703 196.761 3.45703 195.561 3.45703 194.211V181.611C3.45703 180.261 4.65703 179.061 6.00703 179.061H18.457ZM19.057 182.811H5.40703V193.011H19.057V182.811Z" fill="#CFD2D3"/>
<path d="M6.15859 199.762H26.8586V203.662H5.40859V208.762H3.30859V202.462C3.45859 200.962 4.65859 199.762 6.15859 199.762Z" fill="#CFD2D3"/>
<path d="M26.557 221.961V241.161C26.557 242.661 25.357 243.711 24.007 243.711H13.807C12.307 243.711 11.257 242.511 11.257 241.161V225.711H3.45703V221.811H26.557V221.961ZM15.007 239.961H22.657C23.407 239.961 24.157 239.361 24.157 238.461V225.861H13.657V238.461C13.657 239.361 14.257 239.961 15.007 239.961Z" fill="#CFD2D3"/>
<path d="M6.15859 246.713H26.8586V250.613H5.40859V255.713H3.30859V249.413C3.45859 247.913 4.65859 246.713 6.15859 246.713Z" fill="#CFD2D3"/>
<path d="M11.257 258.412C12.757 258.412 13.957 259.612 13.957 261.112V272.962H19.057V260.062H21.007V272.962C21.007 275.062 19.657 276.862 18.007 276.862H3.45703V261.112C3.45703 259.612 4.65703 258.412 6.15703 258.412H11.257ZM11.857 262.312H5.40703V272.962H11.857V262.312Z" fill="#CFD2D3"/>
<path d="M5.40703 288.262V290.362H3.45703V285.262C3.45703 283.762 4.65703 282.562 6.15703 282.562H18.907V278.662H20.857V282.562H26.557V286.462H20.857V290.362H18.907V286.462H7.20703C6.15703 286.462 5.40703 287.212 5.40703 288.262Z" fill="#CFD2D3"/>
<path d="M18.307 292.463C19.807 292.463 21.007 293.663 21.007 295.163V308.213C21.007 309.713 19.807 310.913 18.307 310.913H10.657V296.363H5.40703V310.613H3.45703V295.163C3.45703 293.663 4.65703 292.463 6.15703 292.463H18.307ZM19.057 296.363H12.607V307.013H19.057V296.363Z" fill="#CFD2D3"/>
<path d="M27.0074 10.459V28.309C27.0074 29.959 25.6574 31.309 24.0074 31.309H17.1074L16.9574 31.459C16.3574 32.209 15.4574 32.509 14.5574 32.509H6.60742C4.95742 32.509 3.60742 31.159 3.60742 29.509V10.459H27.0074ZM13.6574 26.809V15.109H7.05742V26.809C7.05742 27.259 7.50742 27.709 7.95742 27.709H12.7574C13.2074 27.709 13.6574 27.409 13.6574 26.809ZM16.9574 25.609C16.9574 26.059 17.4074 26.509 17.8574 26.509H22.6574C23.1074 26.509 23.5574 26.059 23.5574 25.609V15.259H16.9574V25.609Z" fill="#CFD2D3"/>
<path d="M11.7074 35.3575C13.3574 35.3575 14.8574 36.7075 14.8574 38.5075V49.4574H18.7574V36.8575H21.7574V50.0574C21.7574 52.4574 20.2574 54.4075 18.3074 54.4075H3.60742V38.5075C3.60742 36.8575 4.95742 35.3575 6.75742 35.3575H11.7074ZM11.8574 49.4574V40.1575H6.60742V49.3074H11.8574V49.4574Z" fill="#CFD2D3"/>
<path d="M18.6074 82.9078H3.60742V77.9578H18.7574V72.4078H3.60742V67.6078H18.7574V62.0578H3.60742V57.1078H21.7574V79.7578C21.7574 81.5578 20.4074 82.9078 18.6074 82.9078Z" fill="#CFD2D3"/>
<path d="M27.3074 85.3108V90.2608H21.7574V101.211C21.7574 103.011 20.4074 104.361 18.6074 104.361H6.75742C5.10742 104.361 3.60742 103.011 3.60742 101.211V85.3108H27.3074ZM18.7574 99.4108V90.2608H6.60742V99.4108H18.7574Z" fill="#CFD2D3"/>
<path d="M21.7574 125.21H3.60742V109.91C3.60742 108.26 4.95742 106.91 6.60742 106.91H21.7574V111.71H6.60742V120.71H21.9074V125.21H21.7574Z" fill="#CFD2D3"/>
</svg>
