<svg width="31" height="427" viewBox="0 0 31 427" fill="none" xmlns="http://www.w3.org/2000/svg">
<path d="M30.23 128.42V145.93H27.8V133.8C27.8 132.99 27.13 132.36 26.36 132.36H20.21V145.93H17.82V133.8C17.82 132.99 17.15 132.36 16.34 132.36H9.42V145.93H7.03V128.42H30.23Z" fill="#B3B3B3"/>
<path d="M21.97 167.2H7.03V163.26H22.64V152.64H7.03V148.74H24.64V164.52C24.64 166 23.44 167.19 21.97 167.19V167.2Z" fill="#B3B3B3"/>
<path d="M21.79 170.02C22.49 170.02 23.16 170.3 23.65 170.79C24.14 171.28 24.42 171.95 24.42 172.65V186.64C24.42 188.08 23.22 189.28 21.78 189.28H2.64C1.2 189.28 0 188.08 0 186.64V170.33H2V185.38H6.99V172.69C6.99 171.21 8.15 170.02 9.63 170.02H21.79ZM22.39 185.38V173.96L8.96 173.92V185.38H22.39Z" fill="#B3B3B3"/>
<path d="M24.54 192.1V196H7.03V192.1H24.54ZM30.23 192.1V196H28.23V192.1H30.23Z" fill="#B3B3B3"/>
<path d="M21.97 217.27H7.03V213.33H22.64V202.71H7.03V198.81H24.64V214.59C24.64 216.07 23.44 217.26 21.97 217.26V217.27Z" fill="#B3B3B3"/>
<path d="M21.97 220.09C23.45 220.09 24.64 221.29 24.64 222.76V235.91C24.64 237.39 23.44 238.58 21.97 238.58H14.27V224.03H9V238.27H7.03V222.77C7.03 221.29 8.23 220.1 9.7 220.1H21.97V220.09ZM22.71 224.03H16.31V234.65H22.71V224.03Z" fill="#B3B3B3"/>
<path d="M21.97 241.39C23.45 241.39 24.64 242.59 24.64 244.06V257.21C24.64 258.69 23.44 259.88 21.97 259.88H14.27V245.33H9V259.57H7.03V244.07C7.03 242.59 8.23 241.4 9.7 241.4H21.97V241.39ZM22.71 245.33H16.31V255.95H22.71V245.33Z" fill="#B3B3B3"/>
<path d="M24.32 271.45V274.44H20.49V266.53H7.03V262.7H24.29V266.53H20.53L22.32 267.69C23.59 268.53 24.32 269.94 24.32 271.45Z" fill="#B3B3B3"/>
<path d="M24.54 276.9V280.8H7.03V276.9H24.54ZM30.23 276.9V280.8H28.23V276.9H30.23Z" fill="#B3B3B3"/>
<path d="M21.97 302.08H7.03V298.14H22.64V287.52H7.03V283.62H24.64V299.4C24.64 300.88 23.44 302.07 21.97 302.07V302.08Z" fill="#B3B3B3"/>
<path d="M21.79 304.89C22.49 304.89 23.16 305.17 23.65 305.66C24.14 306.15 24.42 306.82 24.42 307.52V321.51C24.42 322.95 23.22 324.15 21.78 324.15H2.64C1.2 324.15 0 322.95 0 321.51V305.2H2V320.25H6.99V307.56C6.99 306.08 8.15 304.89 9.63 304.89H21.79ZM22.39 320.25V308.83L8.96 308.79V320.25H22.39Z" fill="#B3B3B3"/>
<path d="M30.23 337.52V356.82C30.23 358.26 29.07 359.42 27.63 359.42H17.47C16.03 359.42 14.87 358.26 14.87 356.82V341.39H7.03V337.52H30.23ZM18.73 355.52L26.36 355.48C27.17 355.48 27.8 354.85 27.8 354.04V341.38H17.25V354.04C17.25 354.85 17.92 355.52 18.73 355.52Z" fill="#B3B3B3"/>
<path d="M9.74 362.24H30.48V366.18H9.07V371.24H7.03V364.91C7.03 363.43 8.26 362.24 9.74 362.24Z" fill="#B3B3B3"/>
<path d="M14.83 374.05C16.31 374.05 17.5 375.25 17.5 376.69V388.57H22.63V375.6H24.63V388.61C24.63 390.75 23.29 392.51 21.64 392.51H7.03V376.69C7.03 375.25 8.23 374.05 9.7 374.05H14.83ZM15.46 377.95H9.03V388.57H15.46V377.95Z" fill="#B3B3B3"/>
<path d="M9 403.87V406.01H7.03V400.88C7.03 399.4 8.19 398.21 9.67 398.21H22.5V394.31H24.5V398.21H30.23V402.11H24.5V406.01H22.5V402.11H10.79C9.81 402.11 9 402.92 9 403.87Z" fill="#B3B3B3"/>
<path d="M21.97 408.12C23.45 408.12 24.64 409.32 24.64 410.79V423.94C24.64 425.42 23.44 426.61 21.97 426.61H14.27V412.06H9V426.3H7.03V410.8C7.03 409.32 8.23 408.13 9.7 408.13H21.97V408.12ZM22.71 412.06H16.31V422.68H22.71V412.06Z" fill="#B3B3B3"/>
<path d="M30.24 0V17.93C30.24 19.58 28.91 20.95 27.22 20.95H20.29L20.15 21.09C19.59 21.83 18.71 22.21 17.79 22.21H9.88001C8.19001 22.21 6.82001 20.84 6.82001 19.19V0H30.23H30.24ZM16.85 16.52V4.85H10.24V16.52C10.24 17.01 10.63 17.4 11.12 17.4H16.01C16.47 17.4 16.85 17.01 16.85 16.52ZM20.22 15.25C20.22 15.71 20.61 16.13 21.1 16.13H25.99C26.48 16.13 26.87 15.71 26.87 15.25V4.85H20.23V15.25H20.22Z" fill="#B3B3B3"/>
<path d="M14.95 25.03C16.67 25.03 18.08 26.44 18.08 28.16V39.16H22.02V26.54H25.04V39.72C25.04 42.11 23.49 44.04 21.59 44.04H6.83002V28.15C6.83002 26.43 8.24002 25.02 9.96002 25.02H14.95V25.03ZM15.02 39.16V29.92H9.85002V39.16H15.02Z" fill="#B3B3B3"/>
<path d="M21.91 72.71H6.83002V67.79H22.02V62.24H6.83002V57.35H21.98V51.8H6.83002V46.88H25.04V69.59C25.04 71.31 23.63 72.72 21.91 72.72V72.71Z" fill="#B3B3B3"/>
<path d="M30.6 75.17V80.09H25.05V91.06C25.05 92.82 23.64 94.22 21.92 94.22H9.97C8.25 94.22 6.84 92.81 6.84 91.06V75.17H30.6ZM22.02 89.3V80.09H9.89V89.3H22.02Z" fill="#B3B3B3"/>
<path d="M25.04 115.11H6.83002V99.75C6.83002 98.06 8.20002 96.69 9.89002 96.69H25.04V101.44H9.75002V110.4H25.04V115.11Z" fill="#B3B3B3"/>
</svg>
