<svg width="70" height="8" viewBox="0 0 70 8" fill="none" xmlns="http://www.w3.org/2000/svg">
<path d="M51 5H55V8H51V5Z" fill="#A9ABAA"/>
<path d="M55 0H57V5H55V0Z" fill="#A9ABAA"/>
<path d="M57 0H59V3H57V0Z" fill="#A9ABAA"/>
<path d="M57 5H59V8H57V5Z" fill="#A9ABAA"/>
<path d="M60 0H69L60 8V0Z" fill="#A9ABAA"/>
<path d="M35.4178 2.71301C35.4178 3.16518 35.4178 3.58257 35.4178 4.03474C35.9751 4.03474 36.5671 4.03474 37.1243 4.03474C37.194 4.03474 37.2636 3.96518 37.2636 3.89561C37.2636 3.54779 37.2636 3.16518 37.2636 2.81735C37.2636 2.74779 37.194 2.67822 37.1243 2.67822C36.5671 2.71301 36.0099 2.71301 35.4178 2.71301Z" fill="#A9ABAA"/>
<path d="M25.3184 3.6868C25.8059 3.6868 26.3283 3.6868 26.8159 3.6868C26.8855 3.6868 26.9552 3.61724 26.9552 3.54767C26.9552 3.30419 26.9552 3.06072 26.9552 2.85202C26.9552 2.78246 26.8855 2.71289 26.8159 2.71289C26.3283 2.71289 25.8059 2.71289 25.3184 2.71289C25.3184 3.02593 25.3184 3.33898 25.3184 3.6868Z" fill="#A9ABAA"/>
<path d="M25.3184 5.11307C25.8756 5.11307 26.4328 5.11307 27.0248 5.11307C27.0945 5.11307 27.1641 5.04351 27.1641 4.97394C27.1641 4.73046 27.1641 4.48699 27.1641 4.27829C27.1641 4.20873 27.0945 4.13916 27.0248 4.13916C26.4676 4.13916 25.9104 4.13916 25.3184 4.13916C25.3184 4.48699 25.3184 4.80003 25.3184 5.11307Z" fill="#A9ABAA"/>
<path d="M23.4031 3.7566C23.4031 3.44355 23.4031 3.13051 23.4031 2.78269C23.4031 2.71312 23.3334 2.64355 23.2638 2.64355C22.7414 2.64355 22.1842 2.64355 21.6618 2.64355C21.5921 2.64355 21.5225 2.71312 21.5225 2.78269C21.5225 3.09573 21.5225 3.40877 21.5225 3.7566C22.1493 3.7566 22.7762 3.7566 23.4031 3.7566Z" fill="#A9ABAA"/>
<path d="M16.995 3.7566C16.995 3.44355 16.995 3.13051 16.995 2.78269C16.995 2.71312 16.9253 2.64355 16.8557 2.64355C16.3333 2.64355 15.7761 2.64355 15.2537 2.64355C15.184 2.64355 15.1144 2.71312 15.1144 2.78269C15.1144 3.09573 15.1144 3.40877 15.1144 3.7566C15.7761 3.7566 16.4029 3.7566 16.995 3.7566Z" fill="#A9ABAA"/>
<path d="M8.84583 2.67822C8.84583 3.1304 8.84583 3.58257 8.84583 4.03474C9.40304 4.03474 9.99508 4.03474 10.5523 4.03474C10.6219 4.03474 10.6916 3.96518 10.6916 3.89561C10.6916 3.54779 10.6916 3.16518 10.6916 2.81735C10.6916 2.74779 10.6219 2.67822 10.5523 2.67822C9.99508 2.67822 9.43787 2.67822 8.84583 2.67822Z" fill="#A9ABAA"/>
<path d="M0 0.973913C0 0.695652 0.139304 0.382609 0.383085 0.208696C0.661692 0 0.905473 0 1.21891 0C1.81095 0 2.40299 0 2.99502 0C4.1791 0 5.39801 0 6.58209 0C8.98507 0 11.3532 0 13.7562 0C18.5274 0 23.2985 0 28.0697 0C32.8408 0 37.6119 0 42.3831 0C44.7861 0 47.1542 0 49.5572 0C49.592 0 49.7662 0 49.7662 0C49.8706 0.0347826 49.8358 0.13913 49.8358 0.208696C49.8358 0.347826 49.8358 0.521739 49.8358 0.66087C49.8358 0.973913 49.8358 1.25217 49.8358 1.56522C49.8358 2.15652 49.8358 2.74783 49.8358 3.33913C49.8358 4.52174 49.8358 5.73913 49.8358 6.92174C49.8358 7.06087 49.8358 7.23478 49.8358 7.37391C49.8358 7.51304 49.8358 7.68696 49.8358 7.82609C49.8358 7.86087 49.801 7.89565 49.7662 7.89565C49.7313 7.89565 49.6965 7.89565 49.6617 7.89565C49.592 7.89565 49.5224 7.89565 49.4527 7.89565C49.3134 7.89565 49.1393 7.89565 49 7.89565C48.408 7.89565 47.8159 7.89565 47.2239 7.89565C46.0398 7.89565 44.8209 7.89565 43.6368 7.89565C41.2338 7.89565 38.8657 7.89565 36.4627 7.89565C31.6915 7.89565 26.9204 7.89565 22.1493 7.89565C17.3781 7.89565 12.607 7.89565 7.83582 7.89565C6.65174 7.89565 5.43284 7.89565 4.24876 7.89565C3.65672 7.89565 3.06468 7.89565 2.47264 7.89565C2.1592 7.89565 1.8806 7.89565 1.56716 7.89565C1.42786 7.89565 1.25373 7.89565 1.11443 7.89565C0.975124 7.89565 0.835821 7.89565 0.696517 7.86087C0.383085 7.75652 0.174129 7.54783 0.0696517 7.23478C0 7.09565 0 6.95652 0 6.78261C0 6.64348 0 6.46957 0 6.33043C0 5.73913 0 5.14783 0 4.55652C0 3.37391 0 2.1913 0 0.973913ZM44.6816 2.6087C44.6816 3.47826 44.6816 4.31304 44.6816 5.18261C44.6816 5.42609 44.8905 5.63478 45.1343 5.63478C45.8308 5.63478 46.5274 5.63478 47.2239 5.63478C47.4677 5.63478 47.6766 5.42609 47.6766 5.18261C47.6766 4.66087 47.6766 4.10435 47.6766 3.58261C47.1891 3.58261 46.7363 3.58261 46.2488 3.58261C46.2488 3.75652 46.2488 3.89565 46.2488 4.06956C46.4925 4.06956 46.7363 4.06956 46.9801 4.06956C46.9801 4.38261 46.9801 4.69565 46.9801 5.0087C46.9801 5.07826 46.9104 5.14783 46.8756 5.14783C46.4229 5.14783 46.005 5.14783 45.5522 5.14783C45.4826 5.14783 45.4129 5.07826 45.4129 5.0087C45.4129 4.27826 45.4129 3.51304 45.4129 2.78261C45.4129 2.71304 45.4826 2.64348 45.5522 2.64348C46.2139 2.64348 46.9104 2.64348 47.5721 2.64348C47.5721 2.46957 47.5721 2.33043 47.5721 2.15652C46.7711 2.15652 45.9701 2.15652 45.1692 2.15652C44.8905 2.1913 44.6816 2.36522 44.6816 2.6087ZM38.3433 2.22609C38.3433 3.37391 38.3433 4.48696 38.3433 5.63478C39.2139 5.63478 40.0846 5.63478 40.9552 5.63478C40.9552 5.46087 40.9552 5.32174 40.9552 5.14783C40.3284 5.14783 39.7015 5.14783 39.0398 5.14783C39.0398 4.83478 39.0398 4.55652 39.0398 4.24348C39.0398 4.17391 39.1095 4.10435 39.1791 4.10435C39.7711 4.10435 40.3632 4.10435 40.9552 4.10435C40.9552 3.93043 40.9552 3.7913 40.9552 3.61739C40.3284 3.61739 39.7015 3.61739 39.0398 3.61739C39.0398 3.37391 39.0398 3.09565 39.0398 2.85217C39.0398 2.78261 39.1095 2.71304 39.1791 2.71304C39.7711 2.71304 40.3632 2.71304 40.9552 2.71304C40.9552 2.53913 40.9552 2.4 40.9552 2.22609C40.0846 2.22609 39.2139 2.22609 38.3433 2.22609ZM34.7214 2.22609C34.7214 3.37391 34.7214 4.48696 34.7214 5.63478C34.9652 5.63478 35.1741 5.63478 35.4179 5.63478C35.4179 5.25217 35.4179 4.90435 35.4179 4.52174C36.1144 4.52174 36.8109 4.52174 37.5075 4.52174C37.7512 4.52174 37.9602 4.31304 37.9602 4.06956C37.9602 3.58261 37.9602 3.13043 37.9602 2.64348C37.9602 2.4 37.7512 2.1913 37.5075 2.1913C36.602 2.22609 35.6617 2.22609 34.7214 2.22609ZM28.3483 2.6087C28.3483 2.9913 28.3483 3.37391 28.3483 3.75652C28.3483 4 28.5572 4.2087 28.801 4.2087C29.4627 4.2087 30.1244 4.2087 30.7861 4.2087C30.8557 4.2087 30.9254 4.27826 30.9254 4.34783C30.9254 4.55652 30.9254 4.76522 30.9254 4.97391C30.9254 5.04348 30.8557 5.11304 30.7861 5.11304C30.0199 5.11304 29.2537 5.11304 28.4527 5.11304C28.4527 5.28696 28.4527 5.46087 28.4527 5.6C29.3582 5.6 30.2637 5.6 31.1692 5.6C31.4129 5.6 31.6219 5.3913 31.6219 5.14783C31.6219 4.8 31.6219 4.48696 31.6219 4.13913C31.6219 3.89565 31.4129 3.68696 31.1692 3.68696C30.5075 3.68696 29.8458 3.68696 29.1841 3.68696C29.1144 3.68696 29.0448 3.61739 29.0448 3.54783C29.0448 3.30435 29.0448 3.02609 29.0448 2.78261C29.0448 2.71304 29.1144 2.64348 29.1841 2.64348C29.9502 2.64348 30.7164 2.64348 31.4826 2.64348C31.4826 2.46957 31.4826 2.33043 31.4826 2.15652C30.5771 2.15652 29.6716 2.15652 28.7662 2.15652C28.5572 2.15652 28.3483 2.36522 28.3483 2.6087ZM24.6219 2.22609C24.6219 3.37391 24.6219 4.48696 24.6219 5.63478C25.5622 5.63478 26.4677 5.63478 27.408 5.63478C27.6517 5.63478 27.8607 5.42609 27.8607 5.18261C27.8607 4.8 27.8607 4.41739 27.8607 4.03478C27.8607 3.89565 27.791 3.75652 27.6866 3.68696C27.6866 3.68696 27.6866 3.68696 27.6517 3.65217C27.6517 3.30435 27.6517 2.9913 27.6517 2.64348C27.6517 2.4 27.4428 2.1913 27.199 2.1913C26.3632 2.22609 25.4925 2.22609 24.6219 2.22609ZM20.8259 2.6087C20.8259 3.61739 20.8259 4.62609 20.8259 5.6C21.0697 5.6 21.3134 5.6 21.5224 5.6C21.5224 5.14783 21.5224 4.69565 21.5224 4.24348C22.1493 4.24348 22.7761 4.24348 23.3682 4.24348C23.3682 4.69565 23.3682 5.14783 23.3682 5.6C23.6119 5.6 23.8557 5.6 24.0647 5.6C24.0647 4.5913 24.0647 3.58261 24.0647 2.6087C24.0647 2.36522 23.8557 2.15652 23.6119 2.15652C22.8109 2.15652 22.01 2.15652 21.209 2.15652C21.0348 2.15652 20.8259 2.36522 20.8259 2.6087ZM14.4527 2.6087C14.4527 3.61739 14.4527 4.62609 14.4527 5.6C14.6965 5.6 14.9403 5.6 15.1493 5.6C15.1493 5.14783 15.1493 4.69565 15.1493 4.24348C15.7761 4.24348 16.403 4.24348 16.995 4.24348C16.995 4.69565 16.995 5.14783 16.995 5.6C17.2388 5.6 17.4826 5.6 17.6915 5.6C17.6915 4.5913 17.6915 3.58261 17.6915 2.6087C17.6915 2.36522 17.4826 2.15652 17.2388 2.15652C16.4378 2.15652 15.6368 2.15652 14.8358 2.15652C14.6617 2.15652 14.4527 2.36522 14.4527 2.6087ZM11.8408 2.15652C11.8408 3.16522 11.8408 4.17391 11.8408 5.14783C11.8408 5.3913 12.0498 5.6 12.2935 5.6C12.8856 5.6 13.4776 5.6 14.0697 5.6C14.0697 5.42609 14.0697 5.25217 14.0697 5.11304C13.6169 5.11304 13.1642 5.11304 12.7114 5.11304C12.6418 5.11304 12.5721 5.04348 12.5721 4.97391C12.5721 4.03478 12.5721 3.09565 12.5721 2.15652C12.2935 2.15652 12.0498 2.15652 11.8408 2.15652ZM8.14925 2.15652C8.14925 3.30435 8.14925 4.45217 8.14925 5.6C8.39303 5.6 8.63682 5.6 8.84577 5.6C8.84577 5.21739 8.84577 4.86956 8.84577 4.48696C9.54229 4.48696 10.2736 4.48696 10.9701 4.48696C11.2139 4.48696 11.4229 4.27826 11.4229 4.03478C11.4229 3.54783 11.4229 3.06087 11.4229 2.57391C11.4229 2.33043 11.2139 2.12174 10.9701 2.12174C10.0299 2.15652 9.08955 2.15652 8.14925 2.15652ZM1.49751 4.66087L3.58706 3.86087V0.973913H1.49751V4.66087ZM41.3731 2.22609V2.71304H42.5224V5.63478H43.2189V2.71304H44.3682V2.22609H41.3731ZM33.4677 2.15652L32.4577 5.6H32.8756L33.8856 2.15652H33.4677ZM19.5721 2.15652L18.5622 5.6H18.9801L19.99 2.15652H19.5721ZM3.97015 0.973913V2.81739L6.0597 3.65217V0.973913H3.97015ZM3.97015 3.23478V6.88696H6.0597V4.03478L3.97015 3.23478ZM1.49751 5.07826V6.88696H3.58706V4.24348L1.49751 5.07826Z" fill="#A9ABAA"/>
</svg>
