<svg width="256" height="70" viewBox="0 0 256 70" fill="none" xmlns="http://www.w3.org/2000/svg">
<path d="M178.576 40.0344H43.8497V41.3404H178.576V40.0344Z" fill="#B3B3B3"/>
<path d="M178.562 42.022H43.933V43.328H178.562V42.022Z" fill="#B3B3B3"/>
<path d="M178.416 44.1306H43.8799V45.4366H178.416V44.1306Z" fill="#B3B3B3"/>
<path d="M223.542 47.9301H43.9619V49.2361H223.542V47.9301Z" fill="#B3B3B3"/>
<path d="M183.565 45.9712H33.9326V47.2771H183.565V45.9712Z" fill="#B3B3B3"/>
<path d="M238.999 62.5596H17V63.8747H238.999V62.5596Z" fill="#B3B3B3"/>
<path d="M239 53.4697H237.468V63.5133H239V53.4697Z" fill="#B3B3B3"/>
<path d="M27.6041 20.2649H26.6425V45.5898H27.6041V20.2649Z" fill="#B3B3B3"/>
<path d="M47.0404 15.8464H46.6343V44.5883H47.0404V15.8464Z" fill="#B3B3B3"/>
<path d="M30.0787 44.9425H27.5988V45.3311H30.0787V44.9425Z" fill="#F9F9F9"/>
<path d="M28.9687 24.0892H28.6613V44.5313H28.9687V24.0892Z" fill="#B3B3B3"/>
<path d="M49.095 23.7244H28.661V24.1004H49.095V23.7244Z" fill="#B3B3B3"/>
<path d="M48.6729 30.6637H28.6616V31.0397H48.6729V30.6637Z" fill="#B3B3B3"/>
<path d="M29.9891 45.2491H26.8853V45.681H29.9891V45.2491Z" fill="#B3B3B3"/>
<path d="M47.0394 44.4747H28.6613V44.9073H47.0394V44.4747Z" fill="#B3B3B3"/>
<path d="M49.0951 23.9406H48.673V31.0389H49.0951V23.9406Z" fill="#B3B3B3"/>
<path d="M36.56 15.7522H29.7357V16.0479H36.56V15.7522Z" fill="#B3B3B3"/>
<path d="M46.8804 15.8461H41.167V16.1635H46.8804V15.8461Z" fill="#B3B3B3"/>
<path d="M41.5974 5.16251H41.1652V16.1644H41.5974V5.16251Z" fill="#B3B3B3"/>
<path d="M36.56 5.22787H36.1172V16.0273H36.56V5.22787Z" fill="#B3B3B3"/>
<path d="M41.5948 5H36.1172V5.25065H41.5948V5Z" fill="#B3B3B3"/>
<path d="M30.0794 16.0375H29.7361V45.7827H30.0794V16.0375Z" fill="#B3B3B3"/>
</svg>
