<svg width="31" height="507" viewBox="0 0 31 507" fill="none" xmlns="http://www.w3.org/2000/svg">
<g clip-path="url(#clip0_1_421)">
<path d="M23.9769 127.531H6.49071C4.80136 127.531 3.40839 128.894 3.40839 130.554V145.491H6.87599V133.251C6.87599 132.747 7.26128 132.392 7.73549 132.392H22.7025C23.1767 132.392 23.562 132.777 23.562 133.251V145.491H27V130.554C27 128.865 25.6366 127.531 23.9769 127.531Z" fill="#B3B3B3"/>
<path d="M21.4872 163.6V151.3C21.4872 149.611 20.1535 148.307 18.4938 148.307H6.46091C4.77156 148.307 3.43787 149.641 3.43787 151.3V163.6C3.43787 165.23 4.8012 166.593 6.46091 166.593H18.4938C20.1832 166.593 21.4872 165.23 21.4872 163.6ZM6.34236 161.881V152.99H18.5827V161.881H6.34236Z" fill="#B3B3B3"/>
<path d="M21.4872 184.317V172.017C21.4872 170.328 20.1535 169.024 18.4938 169.024H6.46091C4.77156 169.024 3.43787 170.357 3.43787 172.017V184.317C3.43787 185.947 4.8012 187.31 6.46091 187.31H18.4938C20.1832 187.31 21.4872 185.947 21.4872 184.317ZM6.34236 182.627V173.736H18.5827V182.627H6.34236Z" fill="#B3B3B3"/>
<path d="M27 194.631V189.77H6.54998C4.80136 189.77 3.40839 191.163 3.40839 192.882V199.521H6.43143V194.631H27Z" fill="#B3B3B3"/>
<path d="M27 231.381V212.087H3.40839V216.948H11.0549V231.411C11.0549 233.1 12.4182 234.464 14.078 234.464H23.9769C25.6663 234.464 27 233.1 27 231.411V231.381ZM15.2931 229.574C14.7893 229.574 14.4336 229.188 14.4336 228.714V216.948H23.6213V228.684C23.6213 229.159 23.236 229.603 22.7618 229.603H15.2931V229.574Z" fill="#B3B3B3"/>
<path d="M27 242.081V237.22H6.54998C4.80136 237.22 3.40839 238.613 3.40839 240.332V246.971H6.43143V242.081H27Z" fill="#B3B3B3"/>
<path d="M21.4874 263.657V250.557H18.494V263.094H14.5818V252.157C14.5818 250.438 13.1888 249.045 11.4698 249.045H6.52034C4.80136 249.045 3.40839 250.438 3.40839 252.157V267.954H18.0494C19.9462 267.954 21.4577 266.028 21.4577 263.657H21.4874ZM6.40179 263.094V253.906H11.5291V263.094H6.40179Z" fill="#B3B3B3"/>
<path d="M27 279.394V274.534H21.4577V270.74H18.4643V274.534H6.52034C4.80136 274.534 3.40839 275.927 3.40839 277.646V283.158H6.43143V280.58C6.43143 279.958 6.96491 279.394 7.5873 279.394H18.4347V283.158H21.4281V279.394H27Z" fill="#B3B3B3"/>
<path d="M21.3688 301.297V288.701C21.3688 286.982 19.9758 285.618 18.2568 285.618H6.49065C4.77166 285.618 3.37869 286.982 3.37869 288.701V304.112H6.34246V290.449H10.3435V304.409H18.2272C19.9462 304.409 21.3391 303.016 21.3391 301.297H21.3688ZM13.3962 299.548V290.42H18.4643V299.548H13.3962Z" fill="#B3B3B3"/>
<path d="M16.5971 20.8057H23.4731C25.1624 20.8057 26.4665 19.4423 26.4665 17.8122V0H3.2009V19.057C3.2009 20.6871 4.56423 22.0504 6.22394 22.0504H14.0779C14.9967 22.0504 15.8562 21.6651 16.4193 20.9242L16.5675 20.776L16.5971 20.8057ZM23.1174 4.83094V15.1745C23.1174 15.6191 22.7321 16.034 22.2579 16.034H17.3973C16.9231 16.034 16.5379 15.6191 16.5379 15.1745V4.83094H23.1174ZM7.46872 17.2788C6.96488 17.2788 6.60923 16.8935 6.60923 16.4193V4.83094H13.1592V16.4193C13.1592 16.9231 12.7739 17.2788 12.3293 17.2788H7.46872Z" fill="#B3B3B3"/>
<path d="M21.3096 39.4478V26.3479H18.3162V38.8846H14.404V27.9483C14.404 26.2294 13.011 24.8364 11.292 24.8364H6.34255C4.62356 24.8364 3.23059 26.2294 3.23059 27.9483V43.7452H17.8716C19.7684 43.7452 21.2799 41.8188 21.2799 39.4478H21.3096ZM6.224 38.8846V29.697H11.3513V38.8846H6.224Z" fill="#B3B3B3"/>
<path d="M21.3095 69.0854V46.5311H3.23053V51.4214H18.2568V56.934H3.2009V61.7946H18.2865V67.3072H3.2009V72.1974H18.1976C19.9166 72.1974 21.3095 70.8044 21.3095 69.0854Z" fill="#B3B3B3"/>
<path d="M21.3096 90.4246V79.5476H26.8222V74.6573H3.23059V90.4246C3.23059 92.1732 4.62356 93.5662 6.34255 93.5662H18.1976C19.9166 93.5662 21.3096 92.1732 21.3096 90.4246ZM6.25363 88.676V79.5179H18.2865V88.676H6.25363Z" fill="#B3B3B3"/>
<path d="M6.10545 109.63V100.738H21.3096V96.0261H6.25363C4.56429 96.0261 3.23059 97.3894 3.23059 99.0491V114.313H21.3096V109.63H6.10545Z" fill="#B3B3B3"/>
<path d="M26.4665 322.162L14.9078 313.745L3.34906 322.162V325.066L14.9078 316.619L26.4665 325.066V322.162Z" fill="#B3B3B3"/>
<path d="M26.4665 498.654V495.779L14.9078 504.196L3.34906 495.779V498.654L14.9078 507.071L26.4665 498.654Z" fill="#B3B3B3"/>
<path d="M16.1821 351.651V340.626C16.1821 340.241 16.5081 339.915 16.8934 339.915H21.2502C21.6355 339.915 21.9911 340.241 21.9911 340.626V353.489H24.7474V338.433C24.7474 337.04 23.6508 335.914 22.2875 335.914H15.9154C14.5817 335.914 13.4555 337.01 13.4555 338.373V349.458C13.4555 349.843 13.0998 350.229 12.7145 350.229H9.158C8.74308 350.229 8.32815 349.873 8.32815 349.488V336.566H5.54221V351.681C5.54221 353.044 6.66844 354.141 8.03177 354.141H13.6926C15.0559 354.141 16.1821 353.014 16.1821 351.681V351.651Z" fill="#B3B3B3"/>
<path d="M7.85389 367.478V360.216H20.2424V356.363H7.97244C6.60911 356.363 5.51251 357.46 5.51251 358.823V371.242H20.2424V367.418H7.88353V367.478H7.85389Z" fill="#B3B3B3"/>
<path d="M20.2425 386.149V373.287H-3.05176e-05V377.228H5.51258V386.12C5.51258 387.542 6.63881 388.669 8.03178 388.669H17.6937C19.0866 388.669 20.2129 387.542 20.2129 386.12L20.2425 386.149ZM7.94287 384.727V377.258H17.7529V384.727H7.94287Z" fill="#B3B3B3"/>
<path d="M20.1536 403.458V393.203C20.1536 391.81 19.0274 390.714 17.6344 390.714H8.06141C6.66844 390.714 5.54221 391.81 5.54221 393.203V405.74H7.9725V394.626H11.2326V406.007H17.664C19.057 406.007 20.1832 404.88 20.1832 403.487L20.1536 403.458ZM13.6333 402.035V394.626H17.7529V402.035H13.6333Z" fill="#B3B3B3"/>
<path d="M18.4642 412.557L17.5454 411.934H20.2128V407.992H5.51251V411.934H16.3006V418.277H20.2424V415.906C20.2424 414.572 19.5608 413.297 18.4642 412.557Z" fill="#B3B3B3"/>
<path d="M21.9614 420.262V426.783H5.51251V430.784H21.9614V437.274H24.7474V420.262H21.9614Z" fill="#B3B3B3"/>
<path d="M20.2424 450.878V440.209H17.7825V450.434H14.5816V441.542C14.5816 440.149 13.4554 439.023 12.0624 439.023H8.03172C6.63874 439.023 5.51251 440.149 5.51251 441.542V454.405H17.4565C18.9977 454.405 20.2424 452.834 20.2424 450.908V450.878ZM7.9428 450.434V442.965H12.1217V450.434H7.9428Z" fill="#B3B3B3"/>
<path d="M17.7233 456.657H8.06141C6.66844 456.657 5.54221 457.784 5.54221 459.177V471.625H8.00213V460.599H17.8418V471.625H20.3018V459.177C20.3018 457.784 19.1755 456.657 17.7826 456.657H17.7233Z" fill="#B3B3B3"/>
<path d="M14.3742 485.702L20.2424 488.251V484.458L15.204 482.235V477.582H24.7474V473.64H5.51251V477.582H13.0108V482.413L5.54215 484.991V488.666L14.2556 485.643L14.3742 485.702Z" fill="#B3B3B3"/>
</g>
<defs>
<clipPath id="clip0_1_421">
<rect width="31" height="507" fill="white"/>
</clipPath>
</defs>
</svg>
