<svg width="36" height="436" viewBox="0 0 36 436" fill="none" xmlns="http://www.w3.org/2000/svg">
<path d="M35.7832 0H0V433.785H35.7832V0Z" fill="#535656"/>
<path d="M11.8736 135.851H18.7736C19.5236 135.851 20.2736 136.451 20.2736 137.351V149.501H22.6736V136.001H28.8236C29.5736 136.001 30.3236 136.601 30.3236 137.501V149.651H32.7236V131.951H9.47363V149.351H11.8736V135.851Z" fill="#CFD2D3"/>
<path d="M27.0236 167.951V152.201H9.47363V156.101H25.0736V166.751H9.47363V170.651H24.3236C25.8236 170.651 27.0236 169.451 27.0236 167.951Z" fill="#CFD2D3"/>
<path d="M5.12481 192.551H24.1748C25.6748 192.551 26.8748 191.351 26.8748 189.851V175.901C26.8748 175.151 26.5748 174.551 26.1248 174.101C25.6748 173.651 24.9248 173.351 24.3248 173.351H12.0248C10.5248 173.351 9.3248 174.551 9.3248 176.051V188.651H4.37481V173.651H2.4248V190.001C2.4248 191.351 3.62481 192.551 5.12481 192.551ZM11.4248 177.251H24.7748V188.651H11.4248V177.251Z" fill="#CFD2D3"/>
<path d="M32.576 195.399H30.626V199.299H32.576V195.399Z" fill="#CFD2D3"/>
<path d="M26.8736 195.399H9.47363V199.299H26.8736V195.399Z" fill="#CFD2D3"/>
<path d="M9.47363 216.55V220.45H24.3236C25.8236 220.45 27.0236 219.25 27.0236 217.75V202H9.47363V205.9H25.0736V216.55H9.47363Z" fill="#CFD2D3"/>
<path d="M9.47363 241.449H11.4236V227.199H16.6736V241.749H24.3236C25.8236 241.749 27.0236 240.549 27.0236 239.049V225.999C27.0236 224.499 25.8236 223.299 24.3236 223.299H12.1736C10.6736 223.299 9.47363 224.499 9.47363 225.999V241.449ZM18.6236 227.199H25.0736V237.849H18.6236V227.199Z" fill="#CFD2D3"/>
<path d="M9.47363 262.751H11.4236V248.501H16.6736V263.051H24.3236C25.8236 263.051 27.0236 261.851 27.0236 260.351V247.301C27.0236 245.801 25.8236 244.601 24.3236 244.601H12.1736C10.6736 244.601 9.47363 245.801 9.47363 247.301V262.751ZM18.6236 248.501H25.0736V259.151H18.6236V248.501Z" fill="#CFD2D3"/>
<path d="M9.47363 269.649H22.9736V277.599H26.7236V274.599C26.7236 273.099 25.9736 271.749 24.7736 270.849L22.9736 269.649H26.7236V265.899H9.47363V269.649Z" fill="#CFD2D3"/>
<path d="M32.576 280H30.626V283.9H32.576V280Z" fill="#CFD2D3"/>
<path d="M26.8736 280H9.47363V283.9H26.8736V280Z" fill="#CFD2D3"/>
<path d="M9.47363 301.151V305.051H24.3236C25.8236 305.051 27.0236 303.851 27.0236 302.351V286.601H9.47363V290.501H25.0736V301.151H9.47363Z" fill="#CFD2D3"/>
<path d="M26.7248 324.549V310.599C26.7248 309.849 26.4248 309.249 25.9748 308.799C25.5248 308.349 24.7748 308.049 24.1748 308.049H12.0248C10.5248 308.049 9.3248 309.249 9.3248 310.749V323.349H4.37481V308.349H2.4248V324.549C2.4248 326.049 3.62481 327.249 5.12481 327.249H24.1748C25.6748 327.099 26.7248 325.899 26.7248 324.549ZM11.4248 311.799H24.7748V323.199H11.4248V311.799Z" fill="#CFD2D3"/>
<path d="M19.8236 362.351H30.0236C31.5236 362.351 32.5736 361.151 32.5736 359.801V340.601H9.47363V344.501H17.2736V359.951C17.2736 361.151 18.4736 362.351 19.8236 362.351ZM19.6736 344.351H30.1736V356.951C30.1736 357.701 29.5736 358.451 28.6736 358.451H21.0236C20.2736 358.451 19.5236 357.851 19.5236 356.951V344.351H19.6736Z" fill="#CFD2D3"/>
<path d="M9.47363 367.749V374.049H11.4236V368.949H32.7236V365.049H12.1736C10.6736 365.199 9.47363 366.399 9.47363 367.749Z" fill="#CFD2D3"/>
<path d="M17.2736 376.899H12.1736C10.6736 376.899 9.47363 378.099 9.47363 379.599V395.349H24.0236C25.6736 395.349 27.0236 393.549 27.0236 391.449V378.549H25.0736V391.449H19.9736V379.599C19.8236 378.099 18.6236 376.899 17.2736 376.899ZM17.8736 391.449H11.4236V380.799H17.8736V391.449Z" fill="#CFD2D3"/>
<path d="M26.8742 397.149H24.9242V401.049H12.0242C10.5242 401.049 9.32422 402.249 9.32422 403.749V408.849H11.4242V406.749C11.4242 405.849 12.1742 404.949 13.2242 404.949H24.9242V408.849H26.8742V404.949H32.5742V401.049H26.8742V397.149Z" fill="#CFD2D3"/>
<path d="M24.3236 429.401C25.8236 429.401 27.0236 428.201 27.0236 426.701V413.651C27.0236 412.151 25.8236 410.951 24.3236 410.951H12.1736C10.6736 410.951 9.47363 412.151 9.47363 413.651V429.101H11.4236V414.851H16.6736V429.401H24.3236ZM18.6236 414.851H25.0736V425.501H18.6236V414.851Z" fill="#CFD2D3"/>
<path d="M12.4736 26.2H20.4236C21.3236 26.2 22.2236 25.75 22.8236 25.15L22.9736 25H29.8736C31.5236 25 32.8736 23.65 32.8736 22V4H9.47363V23.2C9.47363 24.85 10.8236 26.2 12.4736 26.2ZM22.8236 8.8H29.4236V19.15C29.4236 19.6 28.9736 20.05 28.5236 20.05H23.7236C23.2736 20.05 22.8236 19.6 22.8236 19.15V8.8ZM12.9236 8.8H19.5236V20.5C19.5236 20.95 19.0736 21.4 18.6236 21.4H13.8236C13.2236 21.4 12.9236 20.95 12.9236 20.5V8.8Z" fill="#CFD2D3"/>
<path d="M27.6236 43.599V30.3994H24.6236V42.999H20.7236V32.0494C20.7236 30.3994 19.3736 28.8994 17.5736 28.8994H12.6236C10.9736 28.8994 9.47363 30.2494 9.47363 32.0494V47.949H24.1736C26.1236 47.949 27.6236 45.999 27.6236 43.599ZM17.7236 42.999H12.4736V33.8494H17.5736V42.999H17.7236Z" fill="#CFD2D3"/>
<path d="M27.6236 73.449V50.799H9.47363V55.749H24.6236V61.299H9.47363V66.099H24.6236V71.649H9.47363V76.599H24.4736C26.2736 76.599 27.6236 75.099 27.6236 73.449Z" fill="#CFD2D3"/>
<path d="M9.47363 94.9C9.47363 96.7 10.8236 98.05 12.6236 98.05H24.4736C26.1236 98.05 27.6236 96.7 27.6236 94.9V83.95H33.1736V79H9.47363V94.9ZM12.4736 83.95H24.6236V93.1H12.4736V83.95Z" fill="#CFD2D3"/>
<path d="M27.6236 114.099H12.3236V105.099H27.6236V100.299H12.4736C10.8236 100.299 9.47363 101.649 9.47363 103.299V118.599H27.6236V114.099Z" fill="#CFD2D3"/>
</svg>
