<svg width="729" height="24" viewBox="0 0 729 24" fill="none" xmlns="http://www.w3.org/2000/svg">
<path d="M728.328 19.2693V4.56936C728.328 3.96936 728.388 3.27934 728.228 2.66934C727.888 1.43934 726.768 0.589381 725.498 0.589381C689.868 0.589381 654.248 0.589381 618.618 0.589381C600.808 0.589381 582.988 0.589381 565.178 0.589381H545.878C542.658 0.589381 539.448 0.589381 536.228 0.589381H531.398C531.138 0.589381 530.878 0.55942 530.618 0.62942C530.138 0.73942 529.748 1.08935 529.588 1.55935C529.428 2.02935 529.528 2.54934 529.848 2.91934C530.118 3.24934 530.568 3.64937 530.868 3.94937C531.248 4.32937 531.628 4.70938 532.008 5.08938L541.148 14.2294L546.138 19.2194C546.948 20.0294 547.748 20.8493 548.568 21.6493C548.948 22.0193 549.358 22.3194 549.828 22.5794C550.738 23.0794 551.648 23.2693 552.678 23.2693H644.528C662.338 23.2693 680.158 23.2693 697.968 23.2693H722.488C723.508 23.2693 724.528 23.2693 725.558 23.2693C726.818 23.2693 727.928 22.3493 728.238 21.1493C728.388 20.5593 728.328 19.8693 728.328 19.2793V19.2693Z" fill="#B3B3B3"/>
<path d="M713.328 4.95965H714.498C714.928 4.95965 715.088 5.15964 715.088 5.57964V18.1896C715.088 18.4796 715.168 18.7596 714.838 18.9496C714.678 19.0396 714.078 19.0196 713.928 19.0196H711.788C711.788 19.0196 711.598 19.0197 711.568 18.9997L711.258 18.6896L710.628 18.0596C710.408 17.8396 710.238 17.6396 709.888 17.6396H707.188C706.868 17.6396 706.538 17.6196 706.218 17.6396C705.888 17.6596 705.728 17.8696 705.518 18.0696L704.918 18.6696C704.818 18.7696 704.718 18.8697 704.618 18.9697C704.588 18.9997 704.568 19.0196 704.528 19.0196H702.188C701.858 19.0196 701.448 19.0996 701.318 18.6596C701.288 18.5696 701.298 17.8696 701.298 17.7696V5.98968C701.298 5.84968 701.278 5.36967 701.358 5.22967C701.438 5.07967 701.538 5.00966 701.698 4.96966C701.848 4.93966 701.998 4.95965 702.148 4.95965H703.098C703.178 4.95965 703.298 4.95965 703.298 4.95965C703.298 4.95965 703.468 5.12964 703.538 5.19964C703.678 5.33964 703.818 5.47968 703.958 5.61968C704.208 5.86968 704.468 5.83965 704.768 5.83965H711.698C711.988 5.83965 712.258 5.89966 712.548 5.71966C712.708 5.61966 713.208 5.07965 713.338 4.95965H713.328Z" fill="white"/>
<path d="M693.978 10.0394H692.678C692.618 10.0394 692.328 10.0494 692.268 10.0194C692.208 9.98943 692.178 9.93953 692.178 9.86953C692.178 9.78953 692.218 9.74947 692.258 9.68947C692.338 9.55947 692.428 9.43947 692.508 9.30947C692.678 9.05947 692.848 8.79946 693.018 8.54946C693.658 7.58946 694.298 6.61944 694.948 5.65944C695.108 5.40944 695.258 5.15945 695.438 4.91945C695.518 4.80945 695.668 4.83947 695.738 4.93947C695.818 5.05947 695.898 5.18947 695.988 5.30947C696.318 5.79947 696.648 6.29945 696.978 6.78945C697.618 7.74945 698.258 8.71946 698.908 9.67946C698.958 9.75946 699.018 9.80945 698.978 9.91945C698.938 10.0195 698.878 10.0394 698.778 10.0394H697.618C697.548 10.0394 697.138 10.0195 697.078 10.0795C696.988 10.1495 697.008 10.3295 697.008 10.4195V18.7495C697.008 19.0495 696.888 19.0194 696.638 19.0194H694.798C694.648 19.0194 694.488 19.0194 694.338 19.0194C694.238 19.0194 694.168 18.9295 694.168 18.8295V10.2495C694.168 10.2495 694.168 10.1595 694.138 10.1095C694.098 10.0495 694.058 10.0294 693.988 10.0294L693.978 10.0394Z" fill="white"/>
<path d="M703.038 16.4998H713.208C713.588 16.4998 713.578 16.3597 713.578 16.0397V7.21973C713.578 7.07973 713.468 6.96973 713.328 6.96973H703.158C702.778 6.96973 702.788 7.10969 702.788 7.42969V16.2498C702.788 16.3898 702.898 16.4998 703.038 16.4998Z" fill="#B3B3B3"/>
<path d="M722.388 10.0396C722.318 10.0396 722.278 10.0597 722.238 10.1197C722.208 10.1597 722.208 10.2096 722.208 10.2596V18.8396C722.208 18.9396 722.138 19.0196 722.038 19.0296C721.888 19.0296 721.728 19.0296 721.578 19.0296H719.738C719.488 19.0296 719.368 19.0596 719.368 18.7596V10.4296C719.368 10.3396 719.398 10.1696 719.298 10.0896C719.228 10.0396 718.818 10.0496 718.748 10.0496H717.588C717.488 10.0496 717.428 10.0296 717.388 9.92962C717.348 9.81962 717.408 9.76962 717.458 9.68962C718.098 8.72962 718.738 7.75961 719.388 6.79961C719.718 6.30961 720.048 5.80963 720.378 5.31963C720.458 5.19963 720.538 5.06963 720.628 4.94963C720.698 4.83963 720.838 4.81961 720.928 4.92961C721.108 5.16961 721.258 5.41961 721.418 5.66961C722.058 6.62961 722.698 7.59962 723.348 8.55962C723.518 8.80962 723.688 9.06963 723.858 9.31963C723.948 9.44963 724.028 9.57963 724.118 9.69963C724.158 9.75963 724.198 9.79969 724.198 9.87969C724.198 9.94969 724.168 9.98959 724.108 10.0296C724.048 10.0596 723.758 10.0496 723.698 10.0496H722.398L722.388 10.0396Z" fill="white"/>
<path d="M561.788 7.47937H556.628C556.348 7.47937 556.128 7.70938 556.128 7.98938V10.4393C558.008 10.4393 559.898 10.4393 561.778 10.4493V11.6693H556.618C556.338 11.6693 556.118 11.8993 556.118 12.1693V14.9594H561.768V16.1793H554.268V6.2793H561.768V7.49939L561.788 7.47937Z" fill="white"/>
<path d="M570.868 16.1694H569.028V9.69946H564.838V16.1694H562.998V8.64941H569.658C570.318 8.64941 570.878 9.18951 570.878 9.86951V16.1694H570.868Z" fill="white"/>
<path d="M583.388 8.62988H581.538V16.1598H583.388V8.62988Z" fill="white"/>
<path d="M583.388 6.25977H581.538V7.28979H583.388V6.25977Z" fill="white"/>
<path d="M592.458 16.1694H590.618V9.69946H586.428V16.1694H584.578V8.64941H591.238C591.898 8.64941 592.458 9.18951 592.458 9.86951V16.1694Z" fill="white"/>
<path d="M617.138 10.4795H613.788V16.1694H611.948V8.64941H613.788V10.3395C613.978 10.0695 614.158 9.79942 614.348 9.52942C614.718 8.96942 615.338 8.64941 616.008 8.64941H617.138V10.4795Z" fill="white"/>
<path d="M620.028 8.62988H618.178V16.1598H620.028V8.62988Z" fill="white"/>
<path d="M620.028 6.25977H618.178V7.28979H620.028V6.25977Z" fill="white"/>
<path d="M629.108 16.1694H627.268V9.69946H623.078V16.1694H621.228V8.64941H627.888C628.548 8.64941 629.108 9.18951 629.108 9.86951V16.1694Z" fill="white"/>
<path d="M659.048 16.1698H656.338C655.658 16.1698 655.118 15.6298 655.118 14.9498V6.25977H656.958V15.1199H659.048V16.1698Z" fill="white"/>
<path d="M674.278 9.69983H672.658V14.4899C672.658 14.8299 672.948 15.1199 673.288 15.1199H674.278V16.1698H672.028C671.368 16.1698 670.808 15.6298 670.808 14.9498V9.69983H669.168V8.64978H670.808V6.25977H672.648V8.64978H674.268V9.69983H674.278Z" fill="white"/>
<path d="M637.358 8.59033H631.518C631.198 8.59033 630.888 8.73032 630.658 8.95032C630.428 9.18032 630.298 9.49029 630.298 9.80029C630.298 11.5003 630.298 13.1903 630.308 14.8903C630.308 15.5503 630.848 16.1104 631.508 16.1104H636.708V17.9803H630.418V19.0103H637.338C638.018 19.0103 638.558 18.4703 638.558 17.7903V9.79028C638.558 9.13028 638.018 8.57031 637.338 8.57031L637.358 8.59033ZM636.728 15.0603H632.148L632.168 9.66028H636.748L636.728 15.0603Z" fill="white"/>
<path d="M610.738 13.1398V9.81982C610.738 9.13982 610.178 8.58984 609.508 8.58984H604.018C603.338 8.58984 602.798 9.14982 602.798 9.81982V14.9498C602.798 15.6098 603.338 16.1698 604.018 16.1698H610.608V15.1199H604.648V13.1398H610.738ZM604.648 9.60986H608.878V12.0698H604.648V9.60986Z" fill="white"/>
<path d="M579.118 8.59033H573.278C572.968 8.59033 572.648 8.73032 572.418 8.95032C572.188 9.17032 572.058 9.49029 572.058 9.80029C572.058 11.5003 572.058 13.1903 572.068 14.8903C572.068 15.5503 572.608 16.1104 573.268 16.1104H578.468V17.9803H572.178V19.0103H579.098C579.778 19.0103 580.318 18.4703 580.318 17.7903V9.79028C580.318 9.13028 579.778 8.57031 579.098 8.57031L579.118 8.59033ZM578.488 15.0603H573.908L573.928 9.66028H578.508L578.488 15.0603Z" fill="white"/>
<path d="M601.598 13.1398V9.81982C601.598 9.13982 601.048 8.58984 600.368 8.58984H594.878C594.198 8.58984 593.658 9.14982 593.658 9.81982V14.9498C593.658 15.6098 594.198 16.1698 594.878 16.1698H601.468V15.1199H595.508V13.1398H601.598ZM595.508 9.60986H599.738V12.0698H595.508V9.60986Z" fill="white"/>
<path d="M652.728 6.25977H644.558V16.1598H646.398V12.8799H652.728C653.388 12.8799 653.908 12.3498 653.908 11.6998V7.44983C653.908 6.78983 653.388 6.26978 652.728 6.26978V6.25977ZM651.578 11.6698H646.398V7.47986H651.578C651.848 7.47986 652.078 7.70986 652.078 7.97986C652.078 9.04986 652.078 10.1098 652.088 11.1798C652.088 11.4498 651.858 11.6798 651.578 11.6798V11.6698Z" fill="white"/>
<path d="M666.398 8.64941H660.908V9.69946H666.278V11.6195H661.458C660.798 11.6195 660.248 12.1595 660.248 12.8395V14.9495C660.248 15.6295 660.798 16.1694 661.458 16.1694H668.118V9.99951C668.118 9.26951 667.338 8.64941 666.398 8.64941ZM666.278 15.1295H662.088V12.6694H666.278V15.1295Z" fill="white"/>
<path d="M683.418 13.1398V9.81982C683.418 9.13982 682.858 8.58984 682.188 8.58984H676.688C676.018 8.58984 675.468 9.14982 675.468 9.81982V14.9498C675.468 14.9498 675.468 15.0298 675.468 15.0798C675.528 15.6898 676.048 16.1698 676.678 16.1698H683.268V15.1199H677.318V13.1398H683.408H683.418ZM677.328 9.60986H681.558V12.0698H677.328V9.60986Z" fill="white"/>
<path d="M177.4 0.899379V20.3894C177.4 20.7594 177.37 21.1094 177.55 21.4694C177.97 22.2994 179.04 22.4994 179.74 21.8894C180.02 21.6494 180.26 21.3795 180.52 21.1195C180.78 20.8595 181.04 20.5994 181.3 20.3394C181.82 19.8194 182.34 19.2994 182.86 18.7794C185.03 16.6094 187.19 14.4494 189.36 12.2794C191.53 10.1094 193.69 7.94938 195.86 5.77938L197.42 4.21945C197.68 3.95945 197.94 3.69942 198.2 3.43942C198.46 3.17942 198.74 2.95945 198.89 2.59945C199.26 1.73945 198.71 0.769369 197.79 0.639369C197.43 0.589369 197.07 0.629481 196.71 0.629481H177.77C177.68 0.629481 177.59 0.619408 177.5 0.679408C177.41 0.739408 177.38 0.809388 177.38 0.909388L177.4 0.899379Z" fill="#B3B3B3"/>
<path d="M143.38 21.7192V1.15911C143.38 0.969111 143.45 0.679185 143.18 0.609185C143.12 0.589185 142.6 0.599175 142.54 0.599175H3.75C2.81 0.599175 2.15002 0.559141 1.33002 1.18914C0.630017 1.72914 0.22998 2.54913 0.22998 3.42913V20.1391C0.22998 20.5591 0.240005 20.9592 0.380005 21.3592C0.670005 22.2092 1.36003 22.8791 2.22003 23.1491C2.63003 23.2791 3.03001 23.2791 3.45001 23.2791H142.88C142.99 23.2791 143.09 23.2991 143.19 23.2591C143.32 23.2091 143.37 23.1491 143.37 23.0091C143.4 22.5791 143.37 22.1492 143.37 21.7292L143.38 21.7192ZM10.45 20.4391H4.47998V15.2092L10.45 12.8592V20.4391ZM10.45 11.6391L4.47998 13.9892V3.42913H10.45V11.6391ZM17.55 20.4391H11.58V9.91912L17.55 12.2691V20.4391ZM17.55 11.0491L11.58 8.69915V3.42913H17.55V11.0491Z" fill="#B3B3B3"/>
<path d="M72.09 3.45898H71.2899V7.90894H72.09V3.45898Z" fill="white"/>
<path d="M121.75 3.45898H120.95V7.90894H121.75V3.45898Z" fill="white"/>
<path d="M47.2899 7.37903C47.4099 7.37903 47.4999 7.26893 47.4999 7.14893V5.83899H46.5599V5.29895H48.2799V7.37903C48.2799 7.66903 48.0599 7.90894 47.7799 7.90894H45.1299C44.8599 7.90894 44.6299 7.66903 44.6299 7.37903V3.96899C44.6299 3.67899 44.8599 3.45898 45.1299 3.45898H48.1499V3.98901H45.6199C45.4999 3.98901 45.4199 4.08898 45.4199 4.20898V7.14893C45.4199 7.26893 45.5099 7.37903 45.6199 7.37903H47.2999H47.2899Z" fill="white"/>
<path d="M131.96 3.45898H131.16V7.90894H131.96V3.45898Z" fill="white"/>
<path d="M35.7299 7.35901H37.4299V7.90894H35.22C34.94 7.90894 34.71 7.66903 34.71 7.37903V3.45898H35.5099V7.14893C35.5099 7.25893 35.5999 7.36902 35.7299 7.36902V7.35901Z" fill="white"/>
<path d="M99.83 3.94946V7.28943C99.83 7.57943 99.61 7.79944 99.33 7.79944H96.4299C96.1499 7.79944 95.9299 7.56943 95.9299 7.28943V3.94946C95.9299 3.65946 96.1499 3.43945 96.4299 3.43945H99.33C99.61 3.43945 99.83 3.65946 99.83 3.94946ZM96.7 4.17944V7.06946C96.7 7.18946 96.79 7.27942 96.9 7.27942H98.8499C98.9599 7.27942 99.0499 7.18946 99.0499 7.06946V4.17944C99.0499 4.05944 98.9599 3.96948 98.8499 3.96948H96.9C96.79 3.96948 96.7 4.05944 96.7 4.17944Z" fill="white"/>
<path d="M114.68 5.88892C114.81 5.88892 114.9 5.77894 114.9 5.65894V4.229C114.9 4.109 114.8 4.00891 114.68 4.00891H112.43V5.88892H114.68ZM115.18 6.42896H112.43V7.90894H111.63V3.45898H115.18C115.46 3.45898 115.69 3.69901 115.69 3.98901V5.89893C115.69 6.19893 115.46 6.43896 115.18 6.43896V6.42896Z" fill="white"/>
<path d="M33.1699 5.88965C33.2999 5.88965 33.3899 5.77967 33.3899 5.65967V4.22974C33.3899 4.10974 33.2899 4.00964 33.1699 4.00964H30.9199V5.88965H33.1699ZM34.1899 5.89966C34.1899 6.19966 33.9599 6.4397 33.6799 6.4397H30.9299V7.91968H30.1299V3.46973H33.6799C33.9599 3.46973 34.1899 3.70976 34.1899 3.99976V5.90967V5.89966Z" fill="white"/>
<path d="M88.9299 7.35901H91.3899V7.90894H88.1399V3.45898H91.3899V4.00891H89.1499C89.0299 4.00891 88.9299 4.10901 88.9299 4.23901V5.33899C89.7499 5.33899 90.5699 5.33899 91.3899 5.33899V5.88892H89.1499C89.0299 5.88892 88.9299 5.98901 88.9299 6.10901V7.36902V7.35901Z" fill="white"/>
<path d="M73.6299 7.34924H75.8699V7.89917H73.1299C72.8499 7.89917 72.6199 7.65926 72.6199 7.36926V3.97925C72.6199 3.68925 72.8499 3.44922 73.1299 3.44922H75.8699V3.99927H73.6299C73.4999 3.99927 73.4099 4.09924 73.4099 4.21924V7.11926C73.4099 7.23926 73.4999 7.33923 73.6299 7.33923V7.34924Z" fill="white"/>
<path d="M78.5999 5.849H77.1899V7.90894H76.3799V7.349V3.45898H77.1899V5.30896H78.5999L79.3099 3.45898H80.1099L79.2599 5.57898L80.1999 7.90894H79.3899L78.5999 5.849Z" fill="white"/>
<path d="M68.47 3.99902H66.97V3.45898H70.77V3.99902H69.2599V7.90894H68.47V3.99902Z" fill="white"/>
<path d="M105.84 7.35901H108.3V7.90894H105.04V3.45898H108.3V4.00891H106.05C105.93 4.00891 105.84 4.10901 105.84 4.23901V5.33899C106.66 5.33899 107.48 5.33899 108.3 5.33899V5.88892H106.05C105.93 5.88892 105.84 5.98901 105.84 6.10901V7.36902V7.35901Z" fill="white"/>
<path d="M49.8199 7.35901H51.52V7.90894H49.3099C49.0299 7.90894 48.7999 7.66903 48.7999 7.37903V3.45898H49.5999V7.14893C49.5999 7.25893 49.6899 7.36902 49.8099 7.36902L49.8199 7.35901Z" fill="white"/>
<path d="M125.43 7.90894L123.05 4.29895V7.90894H122.27V3.45898H123.18L125.54 7.05896V3.45898H126.32V7.90894H125.43Z" fill="white"/>
<path d="M57.4399 7.35901H59.8999V7.90894H56.6499V3.45898H59.8999V4.00891H57.6599C57.5399 4.00891 57.4399 4.10901 57.4399 4.23901V5.33899C58.2599 5.33899 59.0799 5.33899 59.8999 5.33899V5.88892H57.6599C57.5399 5.88892 57.4399 5.98901 57.4399 6.10901V7.36902V7.35901Z" fill="white"/>
<path d="M86.35 5.40894C86.47 5.40894 86.56 5.29896 86.56 5.17896V4.229C86.56 4.099 86.47 3.99902 86.35 3.99902H84.33V5.40894H86.35ZM86.81 7.11902V6.16895C86.81 6.04895 86.71 5.94897 86.59 5.94897H84.34V7.349H86.59C86.71 7.349 86.81 7.23902 86.81 7.11902ZM87.6 5.81897V7.37903C87.6 7.66903 87.37 7.90894 87.09 7.90894H83.53V3.45898H86.85C87.14 3.45898 87.37 3.69902 87.37 3.99902V5.37903C87.37 5.37903 87.4 5.39895 87.42 5.41895C87.54 5.51895 87.61 5.65898 87.61 5.82898L87.6 5.81897Z" fill="white"/>
<path d="M119.28 5.88892C119.4 5.88892 119.5 5.77894 119.5 5.65894C119.5 5.17894 119.5 4.709 119.5 4.229C119.5 4.099 119.41 3.99902 119.29 3.99902H117.03V5.87903H119.29L119.28 5.88892ZM118.69 6.42896H117.02V7.90894H116.22V3.45898H119.77C120.05 3.45898 120.29 3.69902 120.29 3.99902V5.89893C120.29 6.18893 120.05 6.43896 119.77 6.43896H119.5C119.67 6.92896 119.82 7.41895 119.99 7.91895H119.16C119 7.41895 118.84 6.92896 118.68 6.43896L118.69 6.42896Z" fill="white"/>
<path d="M135.64 7.90894L133.26 4.29895V7.90894H132.48V3.45898H133.39L135.76 7.05896V3.45898H136.54V7.90894H135.64Z" fill="white"/>
<path d="M24.22 5.54895V4.229C24.22 4.099 24.1199 3.99902 23.9999 3.99902H21.96C21.84 3.99902 21.7499 4.099 21.7499 4.229V5.54895H24.22ZM25.0099 7.90894H24.21V6.10901H21.7399V7.90894H20.9399V3.98901C20.9399 3.69901 21.17 3.45898 21.46 3.45898H24.4999C24.7799 3.45898 25.0099 3.69901 25.0099 3.98901V7.90894Z" fill="white"/>
<path d="M55.0999 7.35925C55.2199 7.35925 55.3199 7.24927 55.3199 7.12927V3.44922H56.1199V7.36926C56.1199 7.65926 55.8899 7.89917 55.6099 7.89917H52.5699C52.2899 7.89917 52.0499 7.65926 52.0499 7.36926V3.44922H52.8499V7.12927C52.8499 7.24927 52.9399 7.35925 53.0599 7.35925H55.0999Z" fill="white"/>
<path d="M103.5 5.88892C103.63 5.88892 103.72 5.77894 103.72 5.65894C103.72 5.17894 103.72 4.709 103.72 4.229C103.72 4.099 103.63 3.99902 103.51 3.99902H101.26V5.87903H103.51L103.5 5.88892ZM102.91 6.42896H101.25V7.90894H100.45V3.45898H104.01C104.29 3.45898 104.52 3.69902 104.52 3.99902V5.89893C104.52 6.18893 104.28 6.43896 104.01 6.43896H103.74C103.9 6.92896 104.06 7.41895 104.22 7.91895H103.4C103.23 7.41895 103.08 6.92896 102.91 6.43896V6.42896Z" fill="white"/>
<path d="M92.9399 5.88892C92.8099 5.88892 92.71 5.98901 92.71 6.10901V7.90894H91.9099V3.45898H95.3199V4.00891H92.9299C92.7999 4.00891 92.7 4.10901 92.7 4.23901V5.33899C93.57 5.33899 94.4499 5.33899 95.3199 5.33899V5.88892H92.9299H92.9399Z" fill="white"/>
<path d="M28.59 5.88965C28.71 5.88965 28.81 5.77967 28.81 5.65967C28.81 5.18967 28.81 4.70974 28.81 4.22974C28.81 4.10974 28.72 4.00964 28.6 4.00964H26.35V5.88965H28.6H28.59ZM29.6 5.89966C29.6 6.19966 29.37 6.4397 29.08 6.4397H26.33V7.91968H25.53V3.46973H29.08C29.37 3.46973 29.6 3.70976 29.6 3.99976V5.90967V5.89966Z" fill="white"/>
<path d="M65.4399 7.35901C65.5499 7.35901 65.6499 7.23901 65.6499 7.10901V6.25891C65.6499 6.13891 65.5499 6.03894 65.4199 6.03894C64.5699 6.03894 63.7299 6.03894 62.8799 6.03894C62.5999 6.03894 62.3799 5.79902 62.3799 5.49902V3.99902C62.3799 3.70902 62.6199 3.45898 62.9099 3.45898H66.3099V4.00891H63.4199C63.2899 4.00891 63.1899 4.10901 63.1899 4.23901V5.27893C63.1899 5.39893 63.2899 5.50891 63.4199 5.50891H65.9499C66.2299 5.50891 66.4599 5.74894 66.4599 6.03894V7.38892C66.4599 7.67892 66.2299 7.91895 65.9499 7.91895H62.5399V7.36902H65.4499L65.4399 7.35901Z" fill="white"/>
<path d="M137.84 7.14893C137.84 7.26893 137.93 7.37903 138.05 7.37903H139.72C139.84 7.37903 139.94 7.26893 139.94 7.14893V5.83899H139V5.29895H140.71V7.37903C140.71 7.66903 140.49 7.90894 140.21 7.90894H137.56C137.28 7.90894 137.06 7.66903 137.06 7.37903V3.96899C137.06 3.67899 137.29 3.45898 137.56 3.45898H140.57V3.98901H138.05C137.93 3.98901 137.84 4.08898 137.84 4.20898V7.14893Z" fill="white"/>
<path d="M128.34 3.99902H126.84V3.45898H130.64V3.99902H129.14V7.90894H128.34V3.99902Z" fill="white"/>
<path d="M38.84 6.45898L37.0599 3.45898H37.95L39.2499 5.63892L40.53 3.45898H41.4199L39.6599 6.43896L39.64 6.45898V7.90894H38.84V7.35901V6.45898Z" fill="white"/>
<path d="M24.9399 15.8502L23.5599 16.2802V18.9802C23.5599 19.3002 23.52 19.5402 23.45 19.7002C23.38 19.8602 23.2499 19.9601 23.0699 20.0101C22.8899 20.0601 22.6199 20.0902 22.2499 20.0902C22.0099 20.0902 21.75 20.0702 21.46 20.0402L21.28 19.2002C21.64 19.2502 21.9099 19.2802 22.0999 19.2802C22.3599 19.2802 22.5199 19.2402 22.5999 19.1602C22.6799 19.0802 22.71 18.9202 22.71 18.6702V16.5402L21.1199 17.0402L20.9399 16.2202C21.3899 16.1102 21.98 15.9402 22.71 15.7202V13.6302H21.14V12.8802H22.71V10.9902H23.5599V12.8802H24.8599V13.6302H23.5599V15.4702C23.8899 15.3702 24.3199 15.2302 24.8499 15.0502L24.9399 15.8402V15.8502ZM30.52 11.7701V12.5602H28.7V18.9302C28.7 19.2602 28.6499 19.5102 28.5499 19.6902C28.4499 19.8702 28.3 19.9902 28.08 20.0602C27.87 20.1302 27.5699 20.1602 27.1899 20.1602C26.9599 20.1602 26.5999 20.1502 26.1199 20.1202L25.9399 19.2902C26.3899 19.3502 26.8099 19.3802 27.1899 19.3802C27.4299 19.3802 27.5999 19.3302 27.6899 19.2302C27.7799 19.1302 27.83 18.9602 27.83 18.7102V12.5502H25.1699V11.7601H30.5099L30.52 11.7701Z" fill="white"/>
<path d="M39.28 11.8998C38.82 12.0698 38.33 12.2398 37.8 12.3998C37.27 12.5598 36.8 12.6798 36.38 12.7598V14.6299H39.16V15.4598H36.38V18.1498L39.16 17.3098L39.21 18.2098C38.3 18.4598 37.36 18.7298 36.37 19.0398L35.6 19.2798L35.25 18.5298C35.36 18.4598 35.44 18.3798 35.48 18.3098C35.52 18.2398 35.55 18.1598 35.55 18.0598V12.0798C36.03 11.9898 36.6 11.8598 37.28 11.6698C37.96 11.4798 38.53 11.3099 39.01 11.1299L39.28 11.8998ZM39.82 11.8298H43.81V17.6398C43.81 18.1198 43.72 18.4498 43.55 18.6398C43.38 18.8298 43.11 18.9298 42.76 18.9298C42.39 18.9298 42.01 18.9099 41.62 18.8699L41.45 18.0598C41.8 18.1098 42.14 18.1398 42.46 18.1398C42.67 18.1398 42.81 18.0798 42.88 17.9598C42.95 17.8398 42.98 17.6298 42.98 17.3098V12.6299H40.66V20.2098H39.82V11.8198V11.8298Z" fill="white"/>
<path d="M57.9199 12.3099V13.0499H48.5999V12.3099H51.3399C51.0699 11.7899 50.8799 11.42 50.7599 11.22L51.5599 11C51.6999 11.22 51.9299 11.6599 52.2599 12.3099H54.2599C54.4599 11.9899 54.7199 11.5499 55.0299 11.0099L55.8399 11.24C55.5199 11.76 55.2999 12.1199 55.1699 12.3099H57.9199ZM49.3499 20.1799V13.9299H53.1099V19.0599C53.1099 19.3599 53.0699 19.59 52.9899 19.75C52.9099 19.91 52.7799 20.02 52.5999 20.08C52.4199 20.14 52.1699 20.1699 51.8399 20.1699C51.6199 20.1699 51.3999 20.1599 51.1699 20.1399L50.9999 19.3899C51.2499 19.4299 51.5199 19.45 51.7999 19.45C52.0099 19.45 52.1399 19.41 52.2099 19.34C52.2699 19.27 52.2999 19.1299 52.2999 18.9199V18.0599H50.1399V20.1699H49.3399L49.3499 20.1799ZM52.3199 15.6599V14.6799H50.1599V15.6599H52.3199ZM50.1499 16.38V17.36H52.3099V16.38H50.1499ZM54.2199 14.11H54.9699V18.4299H54.2199V14.11ZM56.2399 13.7H57.0399V18.9299C57.0399 19.2399 56.9999 19.4799 56.9299 19.6599C56.8599 19.8399 56.7299 19.9599 56.5299 20.0399C56.3399 20.1199 56.0699 20.1599 55.7099 20.1599C55.3299 20.1599 54.9299 20.14 54.5099 20.1L54.3599 19.33C54.7799 19.38 55.1599 19.4099 55.4899 19.4099C55.7899 19.4099 55.9799 19.3599 56.0799 19.2599C56.1699 19.1599 56.2199 18.98 56.2199 18.71V13.6899L56.2399 13.7Z" fill="white"/>
<path d="M64.3499 18.4899L65.2399 17.6998L65.5499 18.4398L65.1199 18.7898C64.7999 19.0498 64.5299 19.2699 64.2999 19.4799C64.0899 19.6499 63.92 19.8198 63.78 19.9598L63.28 19.3499C63.38 19.2599 63.4499 19.1598 63.4899 19.0698C63.5299 18.9798 63.5499 18.8699 63.5499 18.7499V14.9398H62.3199V14.1698H64.34V18.4698L64.3499 18.4899ZM64.2499 13.5398C63.7799 12.8298 63.35 12.2098 62.96 11.6798L63.64 11.2698C64.26 12.0898 64.7099 12.6999 64.9799 13.0999L64.2499 13.5398ZM68.8499 13.7598V14.3599H71.83V14.9999H65.1699V14.3599H68.08V13.7598H65.8099V13.1199H68.08V12.5498H65.4999V11.8898H68.08V11.0498H68.8499V11.8898H71.5099V12.5498H68.8499V13.1199H71.2599V13.7598H68.8499ZM65.9399 20.1798V15.5498H71.0099V19.1598C71.0099 19.5198 70.93 19.7698 70.78 19.9298C70.63 20.0898 70.38 20.1698 70.03 20.1698C69.72 20.1698 69.3599 20.1499 68.9399 20.0999L68.8199 19.4298C69.2199 19.4898 69.5499 19.5198 69.8199 19.5198C69.9899 19.5198 70.1099 19.4798 70.1599 19.3898C70.2199 19.3098 70.2399 19.1798 70.2399 19.0098V18.7098H66.72V20.1698H65.9399V20.1798ZM70.2399 16.8398V16.2098H66.72V16.8398H70.2399ZM66.72 17.4598V18.1099H70.2399V17.4598H66.72Z" fill="white"/>
<path d="M77.97 15.52C77.51 15.12 76.85 14.6501 76.02 14.1001L76.49 13.4501C76.79 13.6501 77.14 13.89 77.52 14.16C77.9 14.43 78.22 14.6601 78.47 14.8701L77.98 15.53L77.97 15.52ZM78.36 16.5001L77.75 18.3401L77.13 20.1801L76.32 19.9C76.42 19.64 76.65 19.01 76.99 18.03C77.33 17.05 77.52 16.4501 77.57 16.2401L78.37 16.5001H78.36ZM78.57 13.3601C78.34 13.1601 78.03 12.9101 77.62 12.6101C77.22 12.3101 76.9 12.0901 76.66 11.9501L77.13 11.3101C77.37 11.4401 77.68 11.6601 78.08 11.9401C78.48 12.2301 78.81 12.4801 79.06 12.6901L78.56 13.3501L78.57 13.3601ZM80.67 17.4701C80.42 17.8701 80.12 18.2901 79.76 18.7501C79.4 19.2101 79.05 19.6101 78.7 19.9601L78.07 19.4601C78.4 19.1401 78.73 18.7701 79.06 18.3401C79.4 17.9101 79.69 17.4901 79.95 17.0801L80.67 17.4601V17.4701ZM85.34 16.76H82.49V19.1001C82.49 19.4801 82.41 19.75 82.25 19.92C82.09 20.09 81.82 20.1801 81.45 20.1801C81.17 20.1801 80.81 20.1501 80.37 20.0901L80.19 19.28C80.43 19.33 80.73 19.36 81.07 19.39C81.28 19.4 81.43 19.3601 81.51 19.2501C81.59 19.1501 81.63 18.9701 81.63 18.7301V16.7501H78.8V15.9801H81.63V14.79H79.92V14.14C79.64 14.37 79.32 14.6001 78.96 14.8401L78.46 14.14C79.13 13.74 79.73 13.2701 80.29 12.7501C80.84 12.2201 81.3 11.6801 81.65 11.1201H82.46C82.79 11.6601 83.25 12.2001 83.83 12.7401C84.41 13.2801 85.03 13.75 85.71 14.16L85.28 14.8801C84.94 14.6601 84.58 14.4001 84.2 14.1101V14.79H82.49V15.9801H85.34V16.7501V16.76ZM80.04 14.05H84.11C83.26 13.37 82.57 12.66 82.06 11.91C81.54 12.66 80.87 13.38 80.03 14.05H80.04ZM83.88 17.0901C84.11 17.3501 84.41 17.7201 84.79 18.1901C85.17 18.6601 85.46 19.0401 85.68 19.3401L85 19.8C84.8 19.52 84.51 19.15 84.14 18.67C83.77 18.19 83.46 17.82 83.23 17.53L83.88 17.0801V17.0901Z" fill="white"/>
<path d="M92.95 15.6899L91.95 16.0699V19.08C91.95 19.38 91.92 19.6 91.86 19.75C91.8 19.9 91.7 19.9999 91.55 20.0499C91.41 20.0999 91.2 20.13 90.93 20.13C90.76 20.13 90.5 20.12 90.14 20.09L90.01 19.2999C90.28 19.3399 90.55 19.36 90.82 19.36C90.94 19.36 91.03 19.31 91.09 19.22C91.14 19.13 91.17 18.9799 91.17 18.7799V16.38L89.93 16.85L89.76 16.0499C90.2 15.8999 90.66 15.7199 91.16 15.5299V13.6599H89.93V12.87H91.16V11H91.95V12.87H92.96V13.6599H91.95V15.23C92.21 15.13 92.51 15.01 92.84 14.88L92.94 15.6799L92.95 15.6899ZM96.94 15.7799C97.23 16.3799 97.58 16.9299 97.99 17.4299C98.4 17.9299 98.91 18.41 99.53 18.87L99.02 19.5499C98.44 19.0799 97.94 18.5699 97.54 18.0299C97.13 17.4899 96.78 16.89 96.48 16.23V20.25H95.69V16.1899C95.39 16.8699 95.03 17.47 94.61 18C94.2 18.53 93.67 19.0399 93.01 19.5499L92.47 18.8899C93.11 18.4299 93.64 17.9499 94.08 17.4399C94.52 16.9299 94.88 16.3699 95.19 15.7699H93.5V14.98H95.69V13.35H93.32V12.5499H95.69V11H96.48V12.5499H98.94V13.35H96.48V14.98H98.79V15.7699H96.94V15.7799Z" fill="white"/>
<path d="M104.2 20.2998V11.5098H112.52V20.3098H111.71V19.7698H105V20.2898H104.2V20.2998ZM105 12.2198V19.0698H111.71V12.2198H105ZM111.14 13.5898V14.3098H108.76V15.4198H110.41V18.1099H106.31V15.4198H107.96V14.3098H105.58V13.5898H107.96V12.5798H108.76V13.5898H111.14ZM107.04 17.4698H109.69V16.0498H107.04V17.4698Z" fill="white"/>
<path d="M120.29 11.2196C120.04 12.0396 119.75 12.8095 119.43 13.5295V20.1996H118.63V15.0896C118.32 15.6096 118.02 16.0696 117.72 16.4396L117.32 15.5295C117.72 14.9795 118.12 14.3096 118.53 13.4996C118.93 12.6896 119.25 11.8796 119.5 11.0796L120.3 11.2196H120.29ZM126.33 18.7296C125.69 18.0196 125.13 17.2296 124.67 16.3396C124.21 15.4496 123.88 14.5496 123.68 13.6296V17.7795H125.33V18.4996H123.68V20.2695H122.84V18.4996H121.25V17.7795H122.84V13.6296C122.62 14.5596 122.29 15.4296 121.86 16.2396C121.43 17.0496 120.86 17.8895 120.13 18.7595L119.6 18.0295C120.81 16.6995 121.66 15.1895 122.17 13.5195H120.17V12.7496H122.83V11.0195H123.67V12.7496H126.55V13.5195H124.32C124.55 14.3295 124.88 15.1195 125.33 15.8895C125.77 16.6595 126.3 17.3695 126.9 18.0295L126.33 18.7396V18.7296Z" fill="white"/>
<path d="M131.84 11.6396H134.63V19.1797C134.63 19.5497 134.56 19.8097 134.42 19.9497C134.28 20.0897 134.02 20.1597 133.66 20.1597C133.51 20.1597 133.28 20.1498 132.97 20.1198L132.8 19.3397C133.05 19.3797 133.3 19.3997 133.55 19.3997C133.67 19.3997 133.76 19.3597 133.8 19.2797C133.84 19.1997 133.87 19.0497 133.87 18.8497V17.0897H132.56C132.53 17.8197 132.46 18.4397 132.33 18.9297C132.21 19.4297 132.01 19.8997 131.75 20.3497L131.02 20.0497C131.26 19.6397 131.43 19.2597 131.54 18.8997C131.65 18.5397 131.73 18.1097 131.77 17.5897C131.82 17.0697 131.84 16.3697 131.84 15.4597V11.6298V11.6396ZM133.87 14.0497V12.4097H132.59V14.0497H133.87ZM132.59 16.3297H133.87V14.8097H132.59V16.3297ZM140.72 19.4897L140.25 20.2498C139.27 19.8098 138.46 19.2497 137.82 18.5797C137.22 19.2197 136.42 19.8097 135.4 20.3497L134.91 19.6298C135.91 19.1398 136.71 18.5897 137.3 17.9697C136.81 17.3197 136.39 16.5297 136.04 15.5997L136.78 15.3397C137.11 16.1997 137.46 16.8797 137.81 17.3597C138.2 16.8097 138.53 16.1397 138.8 15.3397L139.55 15.5997C139.22 16.5397 138.81 17.3297 138.33 17.9697C138.9 18.5497 139.7 19.0497 140.72 19.4897ZM137.29 13.6897C136.75 14.4897 136.16 15.2297 135.52 15.9197L134.92 15.4597C135.5 14.8197 136.07 14.0797 136.62 13.2397L137.29 13.6897ZM140.4 12.3297V13.1198H135.21V12.3297H137.55C137.34 11.8397 137.15 11.4397 137 11.1497L137.8 10.9297C137.96 11.2897 138.15 11.7497 138.36 12.3297H140.4ZM138.91 13.2297C139.56 13.9197 140.16 14.6097 140.71 15.2897L140.12 15.7997C139.41 14.9197 138.81 14.2097 138.34 13.6897L138.91 13.2297Z" fill="white"/>
<rect x="149.05" y="0.59668" width="22.66" height="22.6846" rx="1" fill="#B3B3B3"/>
</svg>
