<svg width="419" height="37" viewBox="0 0 419 37" fill="none" xmlns="http://www.w3.org/2000/svg">
<path d="M418.115 10.5358V24.7058C418.115 26.2658 416.845 27.5358 415.275 27.5358H404.445V24.9458H410.915V13.0158H413.745C411.725 11.8758 409.705 10.7358 407.675 9.59583V7.6958H415.275C416.845 7.6958 418.115 8.96583 418.115 10.5358Z" fill="#B3B3B3"/>
<path d="M404.445 24.0158V27.5358H391.505V25.5458C391.735 25.5458 391.945 25.4258 392.065 25.2258C392.165 25.0558 392.275 24.8858 392.375 24.7158H397.945V9.85583H392.345C392.245 9.62583 392.155 9.38582 392.065 9.15582V7.6958H407.675V9.59583L401.615 13.0158H404.445V18.7658H410.915V20.2758H404.445V22.1458H410.915V24.0158H404.445Z" fill="#B3B3B3"/>
<path d="M396.445 11.3555H384.585V23.2155H396.445V11.3555Z" fill="#B3B3B3"/>
<path d="M373.895 7.6958H392.065V9.15582H389.225C389.145 9.38582 389.055 9.62583 388.975 9.85583H383.085V24.9858C383.085 25.2958 383.335 25.5458 383.645 25.5458H391.505V27.5358H370.655V24.9458H377.125V13.0158H379.955L373.895 9.59583V7.6958Z" fill="#B3B3B3"/>
<path d="M333.545 15.0656V17.7957C333.545 17.9757 333.405 18.1156 333.225 18.1156H328.915V14.7456H333.215C333.395 14.7456 333.545 14.8856 333.545 15.0656Z" fill="#B3B3B3"/>
<path d="M301.795 14.9357V17.7057C301.795 17.8957 301.655 18.0358 301.465 18.0358H297.085V14.6157H301.455C301.635 14.6157 301.795 14.7557 301.795 14.9357Z" fill="#B3B3B3"/>
<path d="M317.835 14.9557V17.3958H313.115V14.9557C313.115 14.7657 313.265 14.6157 313.445 14.6157H317.515C317.695 14.6157 317.835 14.7657 317.835 14.9557Z" fill="#B3B3B3"/>
<path d="M351.675 14.7458V13.5058H344.015V14.7458H346.945V22.1658H348.735V14.7458H351.675ZM359.655 14.6058V13.3758H353.555C352.945 13.3758 352.445 13.8758 352.445 14.4758V21.0558C352.445 21.6658 352.945 22.1658 353.555 22.1658H358.835C359.455 22.1658 359.945 21.6658 359.945 21.0558V16.9358H356.315V18.1658H358.185V20.6058C358.185 20.7858 358.045 20.9258 357.875 20.9258H354.535C354.355 20.9258 354.215 20.7858 354.215 20.6058V14.9258C354.215 14.7458 354.355 14.6058 354.535 14.6058H359.655ZM319.645 22.1458V14.4858C319.645 13.8558 319.135 13.3558 318.515 13.3558H312.445C311.815 13.3558 311.315 13.8558 311.315 14.4858V22.1458H313.115V18.6758H317.835V22.1458H319.645ZM325.185 13.3558H324.125C323.285 16.2858 322.435 19.2158 321.595 22.1458H322.645C323.495 19.2158 324.335 16.2858 325.185 13.3558ZM335.325 18.2458V14.6158C335.325 14.0058 334.825 13.5058 334.215 13.5058H327.135V22.1658H328.915V19.3558H334.215C334.825 19.3558 335.325 18.8558 335.325 18.2458ZM342.985 13.5058H336.355V22.1658H342.985V20.9058H338.145V18.6458C338.145 18.4658 338.295 18.3258 338.465 18.3258H342.985V17.0658H338.145V15.0858C338.145 14.9058 338.295 14.7458 338.465 14.7458H342.985V13.5058ZM290.035 16.8958V7.6958H373.895V9.59583C371.865 10.7358 369.845 11.8758 367.825 13.0158H370.655V18.7658H377.125V20.2758H370.655V22.1458H377.125V24.0158H370.655V27.5358H285.015V25.4058H290.035V17.8258L284.475 15.6358V17.3958H283.615V14.7058H284.475L290.035 16.8958ZM303.605 18.1658V14.4858C303.605 13.8558 303.095 13.3558 302.475 13.3558H295.285V22.1458H297.085V19.2958H302.475C303.095 19.2958 303.605 18.7858 303.605 18.1658ZM310.275 22.1458V20.8658H306.775C306.595 20.8658 306.445 20.7258 306.445 20.5458V13.3558H304.645V20.9958C304.645 21.6258 305.145 22.1458 305.775 22.1458H310.275Z" fill="#B3B3B3"/>
<path d="M175.375 18.9258V20.6658H172.295V18.9258H175.375Z" fill="#B3B3B3"/>
<path d="M152.325 18.3154H149.255V16.6055H152.325V18.3154Z" fill="#B3B3B3"/>
<path d="M145.175 16.6055V20.6655H142.105V16.6055H145.175Z" fill="#B3B3B3"/>
<path d="M118.985 16.6055V18.3154H115.905V16.6055H118.985Z" fill="#B3B3B3"/>
<path d="M106.685 18.9458V20.6758H103.585V18.9458H106.685Z" fill="#B3B3B3"/>
<path d="M95.3752 15.1558V17.6658C95.3752 17.8358 95.2452 17.9658 95.0752 17.9658H91.1052V14.8657H95.0652C95.2252 14.8657 95.3752 14.9958 95.3752 15.1558Z" fill="#B3B3B3"/>
<path d="M72.5251 16.5654V20.6954H69.5251V16.5654H72.5251Z" fill="#B3B3B3"/>
<path d="M79.5251 16.5654V20.6954H76.5251V16.5654H79.5251Z" fill="#B3B3B3"/>
<path d="M23.9153 8.26569V24.6357C23.9153 25.3957 23.0052 25.7757 22.4652 25.2357C16.8152 19.5957 11.1752 13.9457 5.52525 8.29572C4.98525 7.76572 5.36522 6.8457 6.12522 6.8457H22.4952C23.2852 6.8457 23.9153 7.48569 23.9153 8.26569Z" fill="#B3B3B3"/>
<path d="M184.125 21.6656V20.6456H179.575V16.5956H184.125V15.5956H178.995C178.415 15.5956 177.955 16.0556 177.955 16.6356V20.6255C177.955 21.1955 178.415 21.6656 178.995 21.6656H184.125ZM184.945 13.7356V21.6656H186.575V18.5756H188.565C188.915 19.5956 189.265 20.6256 189.615 21.6556H191.135C190.715 20.4556 190.305 19.2456 189.885 18.0456L189.915 18.0156C190.265 17.2056 190.615 16.3956 190.975 15.5956H189.415L188.485 17.6656C187.845 17.6656 187.215 17.6656 186.575 17.6556V13.7356H184.945ZM283.615 18.3356C281.765 19.0656 279.905 19.7956 278.055 20.5256V25.4056H283.615V18.3356ZM158.045 15.5956C157.495 15.5956 156.965 15.8756 156.665 16.3256C156.575 16.4656 156.485 16.5856 156.405 16.7056V15.6056H154.765V21.6656H156.405V17.2156H159.015V15.5956H158.045ZM169.965 14.8755V13.7356H162.955V14.8755H165.645V21.6656H167.275V14.8755H169.965ZM175.375 17.9156H171.715C171.135 17.9156 170.675 18.3756 170.675 18.9556V20.6255C170.675 21.1955 171.135 21.6656 171.715 21.6656H177.015V16.7455C177.015 16.1055 176.365 15.5956 175.575 15.5956H171.175V16.5956H175.375V17.9156ZM139.645 21.6656V15.5956H138.085V20.6855H135.095V15.5956H133.515V20.6456C133.515 21.2156 133.965 21.6656 134.525 21.6656H139.645ZM146.825 20.6255V16.6356C146.825 16.0556 146.355 15.5956 145.765 15.5956H140.475V23.9355H142.105V21.6656H145.765C146.355 21.6656 146.825 21.1955 146.825 20.6255ZM153.855 20.6656H149.255V19.3156H153.945V16.6656C153.945 16.0956 153.485 15.6255 152.915 15.6255H148.675C148.095 15.6255 147.645 16.0956 147.645 16.6656V20.6255C147.645 21.1955 148.095 21.6656 148.675 21.6656H153.855V20.6656ZM132.305 14.8755V13.7356H126.105C125.525 13.7356 125.065 14.2056 125.065 14.7656V17.3856C125.065 17.9356 125.515 18.3956 126.065 18.4056C127.595 18.4156 129.115 18.4156 130.635 18.4156C130.805 18.4156 130.945 18.5456 130.945 18.7056V20.1756C130.945 20.3556 130.805 20.5156 130.645 20.5156H125.335V21.6656H131.545C132.105 21.6656 132.575 21.1956 132.575 20.6356V18.3055C132.575 17.7455 132.105 17.2656 131.545 17.2656H127.005C126.835 17.2656 126.715 17.1456 126.715 16.9756V15.1756C126.715 15.0156 126.835 14.8755 127.005 14.8755H132.305ZM113.455 21.6855V20.6656H112.585C112.375 20.6656 112.185 20.4856 112.185 20.2756V16.6056H113.455V15.5956H112.185V13.7256H110.545V15.5956H109.265V16.6056H110.545V20.6356C110.545 21.2156 111.015 21.6855 111.595 21.6855H113.455ZM115.315 21.6855H120.515V20.6855H115.905V19.3356H120.615V16.6656C120.615 16.0956 120.145 15.6155 119.565 15.6155H115.315C114.735 15.6155 114.285 16.0956 114.285 16.6656V20.6356C114.285 21.2156 114.735 21.6855 115.315 21.6855ZM82.9952 21.6855H85.2252V20.6656H83.5852V13.7256H81.9452V20.6255C81.9452 21.2155 82.4152 21.6855 82.9952 21.6855ZM97.0052 18.0856V14.7455C97.0052 14.1855 96.5452 13.7256 95.9852 13.7256H89.4652V21.6855H91.1052V19.1056H95.9852C96.5452 19.1056 97.0052 18.6456 97.0052 18.0856ZM101.235 21.6855V20.6656H99.5852V13.7256H97.9552V20.6255C97.9552 21.2155 98.4252 21.6855 98.9952 21.6855H101.235ZM102.455 15.5856V16.5956H106.685V17.9156H102.995C102.415 17.9156 101.945 18.3856 101.945 18.9656V20.6356C101.945 21.2156 102.415 21.6855 102.995 21.6855H108.315V16.7356C108.315 16.1056 107.665 15.5856 106.865 15.5856H102.455ZM285.015 27.5356H56.9952C56.1052 27.5356 55.3953 26.8056 55.3953 25.9156V9.30554C55.3953 8.41554 56.1052 7.68555 57.0052 7.68555H70.3552C108.505 7.68555 207.605 7.68555 290.035 7.68555V9.80554H284.475V14.6956H283.615V9.80554H278.055V19.5756L283.615 17.3856H284.475V25.3956H285.015V27.5256V27.5356ZM74.1152 20.6656V16.5956C74.1152 16.0356 73.6552 15.5856 73.1052 15.5856H68.9552C68.3952 15.5856 67.9452 16.0356 67.9452 16.5956V20.6656C67.9452 21.2256 68.3952 21.6855 68.9552 21.6855H73.1052C73.6552 21.6855 74.1152 21.2256 74.1152 20.6656ZM81.1152 16.5956C81.1152 16.0356 80.6552 15.5856 80.1052 15.5856H75.9552C75.3952 15.5856 74.9452 16.0356 74.9452 16.5956V20.6656C74.9452 21.2256 75.3952 21.6855 75.9552 21.6855H80.1052C80.6552 21.6855 81.1152 21.2256 81.1152 20.6656V16.5956ZM67.0052 20.5256H62.8652C62.7052 20.5256 62.5752 20.3956 62.5752 20.2256V15.1756C62.5752 15.0056 62.7052 14.8755 62.8652 14.8755H67.0052V13.7256H61.9652C61.3952 13.7256 60.9352 14.1855 60.9352 14.7455V20.6456C60.9352 21.2156 61.3952 21.6855 61.9652 21.6855H67.0052V20.5256Z" fill="#B3B3B3"/>
<rect x="29.8052" y="7.68555" width="19.8501" height="19.8501" rx="1" fill="#B3B3B3"/>
</svg>
