<svg width="416" height="36" viewBox="0 0 416 36" fill="none" xmlns="http://www.w3.org/2000/svg">
<path d="M415.6 5H0V6H415.6V5Z" fill="#CFD2D3"/>
<path d="M329.2 20.401C329.6 20.401 329.8 20.101 329.8 19.801V17.401H327.7V18.101H328.8V19.501C328.8 19.601 328.7 19.701 328.6 19.701H326.7C326.6 19.701 326.5 19.601 326.5 19.501V16.201C326.5 16.101 326.6 16.001 326.7 16.001H329.6V15.401H326.1C325.7 15.401 325.5 15.701 325.5 16.001V19.801C325.5 20.201 325.8 20.401 326.1 20.401H329.2Z" fill="#CFD2D3"/>
<path d="M330.801 15.401V19.701C330.801 20.101 331.101 20.301 331.401 20.301H333.901V19.601H331.901C331.801 19.601 331.701 19.501 331.701 19.401V15.401H330.801Z" fill="#CFD2D3"/>
<path d="M338.6 19.501C338.6 19.601 338.5 19.701 338.4 19.701H336.1C336 19.701 335.9 19.601 335.9 19.501V15.401H334.9V19.701C334.9 20.101 335.2 20.301 335.5 20.301H338.9C339.3 20.301 339.5 20.001 339.5 19.701V15.401H338.5V19.501H338.6Z" fill="#CFD2D3"/>
<path d="M340.6 20.401H344.4V19.701H341.6V18.401C341.6 18.301 341.7 18.201 341.8 18.201H344.4V17.501H341.6V16.401C341.6 16.301 341.7 16.201 341.8 16.201H344.4V15.401H340.6V20.401Z" fill="#CFD2D3"/>
<path d="M349.2 16.201H352.5V15.401H348.6C348.2 15.401 347.9 15.701 347.9 16.001V17.601C347.9 17.901 348.2 18.201 348.5 18.201H351.4C351.5 18.201 351.6 18.301 351.6 18.401V19.301C351.6 19.401 351.5 19.501 351.4 19.501H348.1V20.201H352C352.4 20.201 352.6 19.901 352.6 19.601V18.101C352.6 17.701 352.3 17.501 352 17.501H349.1C349 17.501 348.9 17.401 348.9 17.301V16.401C349 16.301 349.1 16.201 349.2 16.201Z" fill="#CFD2D3"/>
<path d="M356.4 20.401V16.201H358V15.401H353.6V16.201H355.3V20.401H356.4Z" fill="#CFD2D3"/>
<path d="M360 15.401H359V20.401H360V15.401Z" fill="#CFD2D3"/>
<path d="M362.2 16.201H364.8V15.401H361.7C361.3 15.401 361.1 15.701 361.1 16.001V19.701C361.1 20.101 361.4 20.301 361.7 20.301H364.8V19.601H362.2C362.1 19.601 362 19.501 362 19.401V16.401C362 16.301 362.1 16.201 362.2 16.201Z" fill="#CFD2D3"/>
<path d="M369.099 17.801L370.099 15.401H368.999L368.199 17.501H366.799V15.401H365.699V20.401H366.799V18.201H368.299L369.099 20.401H370.199L369.099 17.801Z" fill="#CFD2D3"/>
<path d="M373.699 16.101V19.801C373.699 20.201 373.999 20.401 374.299 20.401H377.399V19.701H374.799C374.699 19.701 374.599 19.601 374.599 19.501V16.401C374.599 16.301 374.699 16.201 374.799 16.201H377.399V15.401H374.299C373.999 15.401 373.699 15.701 373.699 16.101Z" fill="#CFD2D3"/>
<path d="M383.2 20.4V16.1C383.2 15.7 382.9 15.5 382.6 15.5H379.2C378.8 15.5 378.6 15.8 378.6 16.1V20.4H379.6V18.4H382.3V20.4H383.2ZM379.5 17.7V16.4C379.5 16.3 379.6 16.2 379.7 16.2H382C382.1 16.2 382.2 16.3 382.2 16.4V17.8H379.5V17.7Z" fill="#CFD2D3"/>
<path d="M385.1 16.601L387.7 20.401H388.8V15.401H387.8V19.201L385.2 15.401H384.1V20.401H385.1V16.601Z" fill="#CFD2D3"/>
<path d="M392.4 15.401V20.401H393.4V18.201H395.6V20.401H396.6V15.401H395.6V17.501H393.4V15.401H392.4Z" fill="#CFD2D3"/>
<path d="M398.8 16.201H401.4V15.401H397.6V20.401H401.4V19.701H398.6V18.401C398.6 18.301 398.7 18.201 398.8 18.201H401.4V17.501H398.6V16.401C398.6 16.301 398.7 16.201 398.8 16.201Z" fill="#CFD2D3"/>
<path d="M402.4 15.401V19.701C402.4 20.101 402.7 20.301 403 20.301H405.5V19.601H403.5C403.4 19.601 403.3 19.501 403.3 19.401V15.401H402.4Z" fill="#CFD2D3"/>
<path d="M410.6 15.401H406.5V20.401H407.5V18.801H410.5C410.9 18.801 411.1 18.501 411.1 18.201V16.101C411.2 15.701 410.9 15.401 410.6 15.401ZM410.2 17.901C410.2 18.001 410.1 18.101 410 18.101H407.5V16.201H410C410.1 16.201 410.2 16.301 410.2 16.401V17.901Z" fill="#CFD2D3"/>
<path d="M413.301 19.6H412.301V20.4H413.301V19.6Z" fill="#CFD2D3"/>
<path d="M315.4 28.5H308.6L318.4 18.7C319.1 18 319.1 16.8 318.4 16.1L313.4 11.1C312.7 10.4 311.5 10.4 310.8 11.1L298.9 23C298.2 23.7 298.2 24.9 298.9 25.6L302.9 29.6H307.5H315.5C315.8 29.6 316.1 29.3 316.1 29C316.1 28.7 315.7 28.5 315.4 28.5ZM311.5 11.8999C311.8 11.5999 312.2 11.5999 312.5 11.8999L317.5 16.8999C317.8 17.1999 317.8 17.5999 317.5 17.8999L309.9 25.5L303.9 19.5L311.5 11.8999ZM307 28.5H303.7H303.3L299.6 24.8C299.3 24.5 299.3 24.1 299.6 23.8L303.1 20.3L309.1 26.3L307 28.5Z" fill="#CFD2D3"/>
<path d="M319.4 28.5H317.6C317.3 28.5 317 28.8 317 29.1C317 29.4 317.3 29.7 317.6 29.7H319.4C319.7 29.7 320 29.4 320 29.1C320 28.8 319.8 28.5 319.4 28.5Z" fill="#CFD2D3"/>
<path d="M328.5 24.801V24.701C328.6 24.501 328.6 24.401 328.7 24.201H331.8V23.6011H328.9C328.9 23.5011 329 23.2011 329.1 22.9011L328.4 22.801C328.4 22.901 328.3 23.2011 328.2 23.6011H326.3V24.201H328C327.9 24.401 327.9 24.601 327.7 25.001H325.9V25.6011H327.5C327.4 25.9011 327.2 26.2011 327.1 26.4011V26.9011H330.5C330.1 27.3011 329.7 27.701 329.3 28.001C328.3 27.601 327.5 27.401 327 27.201L326.8 27.801C327.4 28.001 328.1 28.201 328.9 28.501C329.7 28.801 330.4 29.101 331 29.301L331.3 28.701C331 28.601 330.6 28.401 330 28.201C330.6 27.701 331 27.301 331.4 26.801V26.201H327.9C328 26.001 328.1 25.801 328.2 25.501H332.1V24.9011H328.5C328.5 24.8011 328.5 24.801 328.5 24.801Z" fill="#CFD2D3"/>
<path d="M333.901 26.001C333.901 26.501 333.901 27.001 333.901 27.201C333.901 27.501 333.801 27.801 333.701 28.001C333.601 28.201 333.501 28.5011 333.301 28.9011L333.901 29.201C334.101 28.801 334.301 28.5011 334.401 28.1011C334.501 27.8011 334.601 27.401 334.601 27.001H336.301V28.9011H336.901V27.001H338.601V27.9011C338.601 28.1011 338.601 28.201 338.501 28.201C338.501 28.301 338.401 28.301 338.201 28.301C338.001 28.301 337.801 28.301 337.501 28.201L337.601 28.9011C337.901 28.9011 338.101 28.9011 338.301 28.9011C338.501 28.9011 338.701 28.901 338.901 28.801C339.001 28.801 339.101 28.701 339.201 28.501C339.301 28.401 339.301 28.201 339.301 28.001V22.801H334.101V26.001H333.901ZM336.801 23.701H338.501V24.801H336.801V23.701ZM336.801 25.501H338.501V26.501H336.801V25.501ZM334.501 23.701H336.101V24.801H334.501V23.701ZM334.501 26.201V25.4011H336.101V26.4011H334.501V26.201Z" fill="#CFD2D3"/>
<path d="M341 25.8C341 26.4 341 26.9 341 27.3C341 27.7 340.9 28 340.8 28.2C340.7 28.4 340.6 28.7 340.5 29L341.1 29.3C341.3 29 341.4 28.7 341.5 28.3C341.6 28 341.6 27.5 341.7 27H342.5V28.2C342.5 28.3 342.5 28.4 342.5 28.5C342.5 28.6 342.4 28.6 342.3 28.6C342.1 28.6 342 28.6 341.8 28.6L341.9 29.2C342.1 29.2 342.3 29.2 342.4 29.2C342.7 29.2 342.8 29.1 342.9 29C343 28.9 343.1 28.7 343.1 28.4V23.1H341.1V25.8H341ZM341.6 23.8H342.4V24.8H341.6V23.8ZM341.6 26.1V25.4H342.4V26.4H341.6V26.1Z" fill="#CFD2D3"/>
<path d="M345.301 24.6C345.601 25 346.001 25.5 346.501 26.1L347.001 25.7001C346.601 25.2001 346.201 24.7001 345.801 24.2001L345.301 24.6Z" fill="#CFD2D3"/>
<path d="M346.2 25.9L345.6 25.7001C345.4 26.2001 345.2 26.7001 345 27.0001C344.8 26.7001 344.6 26.2001 344.4 25.7001L343.8 25.9C344 26.5 344.3 27.1001 344.6 27.5001C344.2 27.9001 343.7 28.3 343 28.6L343.4 29.2001C344.1 28.9001 344.6 28.5001 345 28.0001C345.4 28.4001 346 28.8 346.6 29.1L347 28.5001C346.3 28.2001 345.8 27.9001 345.4 27.5001C345.7 27.1001 346 26.6 346.2 25.9Z" fill="#CFD2D3"/>
<path d="M343.5 26.201C343.9 25.701 344.3 25.2011 344.7 24.6011L344.2 24.301C343.8 24.901 343.4 25.4011 343.1 25.9011L343.5 26.201Z" fill="#CFD2D3"/>
<path d="M343.301 24.2001H346.801V23.6H345.401C345.301 23.2 345.101 22.9001 345.101 22.7001L344.501 22.9C344.601 23.2 344.701 23.4001 344.801 23.7001H343.301V24.2001Z" fill="#CFD2D3"/>
<path d="M349.901 26.6011L350.201 26.1011C349.901 25.7011 349.601 25.4011 349.401 25.1011V24.701H350.101V24.1011H349.401V22.801H348.801V24.1011H348.001V24.701H348.701C348.601 25.101 348.401 25.5011 348.301 25.9011C348.101 26.3011 348.001 26.701 347.801 27.001L348.101 27.701C348.301 27.301 348.601 26.801 348.801 26.301V29.201H349.401V26.001C349.601 26.201 349.701 26.401 349.801 26.501L349.901 26.6011Z" fill="#CFD2D3"/>
<path d="M353.2 25.801H354.3V25.301H351.9C351.9 25.201 352 25.1011 352.1 24.9011H354V24.4011H352.2C352.2 24.3011 352.3 24.2011 352.3 23.9011H354.1V23.4011H352.3L352.4 22.801H351.8C351.8 23.001 351.8 23.2011 351.7 23.4011H350.2V23.9011H351.6L351.5 24.4011H350.3V24.9011H351.3C351.3 25.0011 351.2 25.201 351.1 25.301H350V25.801H350.8C350.5 26.301 350.1 26.7011 349.5 27.1011L349.8 27.6011C350.1 27.3011 350.4 27.101 350.7 26.801V27.201H351.6V27.701H350.1V28.201H351.6V29.1011H352.2V28.201H353.7V27.701H352.2V27.201H353.1V26.801C353.4 27.101 353.7 27.4011 354 27.6011L354.3 27.1011C354 26.9011 353.8 26.8011 353.6 26.6011C353.5 26.4011 353.3 26.101 353.2 25.801ZM352.4 26.701V26.1011H351.8V26.701H351C351.2 26.401 351.4 26.101 351.6 25.801H352.6C352.8 26.101 353 26.401 353.2 26.701H352.4Z" fill="#CFD2D3"/>
<path d="M359 24.7001H356.1V27.5001H359V24.7001ZM358.3 26.9H356.6V25.3H358.3V26.9Z" fill="#CFD2D3"/>
<path d="M355.301 23.8H360.101V27.9C360.101 28.1 360.101 28.3 360.001 28.4C359.901 28.5 359.801 28.5 359.601 28.5C359.301 28.5 359.001 28.5 358.601 28.4L358.701 29C359.001 29 359.301 29 359.601 29C359.901 29 360.101 29 360.301 28.9C360.501 28.8 360.601 28.7 360.601 28.6C360.701 28.5 360.701 28.2 360.701 28V23.7H361.601V23.1H355.301V23.8Z" fill="#CFD2D3"/>
<path d="M368.101 26C368.301 25.5 368.401 25 368.501 24.4H369.001V23.7H366.801C366.901 23.4 367.001 23.1 367.101 22.7L366.401 22.6C366.301 23 366.201 23.5 365.901 24C365.701 24.5 365.401 24.9 365.201 25.3L365.601 25.8C365.701 25.6 365.801 25.5 365.901 25.4C366.101 26 366.301 26.6 366.701 27.2C366.301 27.7 365.601 28.1 364.801 28.6L365.201 29.2C366.001 28.7 366.601 28.3 367.101 27.8C367.501 28.3 368.101 28.8 368.701 29.2L369.101 28.6C368.401 28.2 367.901 27.8 367.501 27.3C367.701 26.9 367.901 26.5 368.101 26ZM366.301 24.7L366.401 24.4H367.701C367.601 24.9 367.601 25.3 367.401 25.7C367.301 26.1 367.101 26.4 366.901 26.7C366.701 26.2 366.501 25.5 366.301 24.7Z" fill="#CFD2D3"/>
<path d="M365.201 27.201L363.601 28.001V26.1011H365.101V23.301H362.801V24.001H364.501V25.501H363.001V28.1011C363.001 28.2011 362.901 28.401 362.801 28.501L363.101 29.1011C363.201 29.0011 363.501 28.901 363.801 28.701C364.301 28.501 364.801 28.201 365.401 28.001L365.201 27.201Z" fill="#CFD2D3"/>
<path d="M375.3 25.8H376.2V25.3H373.5V24.9H375.8V24.4H373.5V24.0001H376.1V23.4H374.5C374.6 23.2 374.7 23.1001 374.8 23.0001L374.9 22.9L374.3 22.7001C374.2 22.9001 374 23.2001 373.8 23.5001H372.5C372.4 23.4001 372.3 23.1 372.1 22.8L371.5 23.0001C371.5 23.1001 371.6 23.2 371.7 23.4C371.7 23.4 371.7 23.4001 371.7 23.5001C371.7 23.5001 371.7 23.6 371.8 23.6H370.3V24.1H372.9V24.5001H370.5V25.0001H372.8V25.4H370.1V25.9H371C371.1 26.1 371.2 26.3001 371.3 26.5001H370V27.0001H376.3V26.4H375C375.1 26.3 375.2 26.1 375.3 25.8ZM372.8 26.4H371.9L371.6 25.8H372.8V26.4ZM374.4 26.4H373.5V25.8H374.7C374.6 26 374.5 26.2 374.4 26.4Z" fill="#CFD2D3"/>
<path d="M370.7 29.101H371.3V28.901H374.8V29.101H375.4V27.401H370.6V29.101H370.7ZM371.4 27.901H374.9V28.401H371.4V27.901Z" fill="#CFD2D3"/>
<path d="M377.601 24.1C377.701 24.4 377.801 24.6 377.801 24.8L378.301 24.6C378.201 24.4 378.201 24.1 378.101 23.8C378.001 23.5 377.901 23.3 377.801 23.1L377.301 23.3C377.401 23.6 377.501 23.9 377.601 24.1Z" fill="#CFD2D3"/>
<path d="M379.1 22.801H378.5V25.201H377.3V25.801H378.3C378.2 26.101 378 26.401 377.8 26.801C377.6 27.101 377.4 27.401 377.1 27.701L377.5 28.301C377.9 27.801 378.2 27.301 378.4 26.801V29.201H379V27.001C379.2 27.201 379.4 27.401 379.6 27.701L380 27.201C379.7 26.901 379.4 26.501 379 26.201V25.801H380V25.201H379V22.801H379.1Z" fill="#CFD2D3"/>
<path d="M381.999 22.801H381.299V25.801H380.199V29.201H380.799V28.801H382.699V29.201H383.299V25.801H381.899V24.501H383.599V23.9011H381.899V22.801H381.999ZM382.699 26.4011V28.1011H380.799V26.4011H382.699Z" fill="#CFD2D3"/>
<path d="M379.199 24.701L379.699 24.9011C379.799 24.7011 379.899 24.501 379.999 24.201C380.099 23.901 380.199 23.701 380.299 23.501L379.799 23.301C379.699 23.501 379.699 23.801 379.499 24.001C379.399 24.301 379.299 24.501 379.199 24.701Z" fill="#CFD2D3"/>
<path d="M388.8 25.7L388.2 25.6C388.2 25.7 388.1 26 387.9 26.2H386.7V26.8H387.6C387.4 27.1 387.3 27.3 387.1 27.5C387.6 27.7 388 27.9 388.4 28C388 28.2 387.4 28.4 386.6 28.5L386.8 29.1C387.3 29 387.8 28.9 388.1 28.7C388.5 28.6 388.8 28.4 389 28.2C389.5 28.4 390 28.7 390.6 29L390.9 28.4C390.5 28.2 390.1 28 389.5 27.7C389.8 27.4 390 27 390.2 26.6H390.9V26H388.5C388.6 26 388.7 25.8 388.8 25.7ZM389.6 26.8C389.4 27.2 389.2 27.5 389 27.7C388.6 27.5 388.2 27.4 388 27.3C388.1 27.2 388.2 27 388.3 26.8H389.6Z" fill="#CFD2D3"/>
<path d="M390.099 24.0001H390.799V23.4H389.299C389.299 23.3 389.199 23.2001 389.199 23.2001C389.199 23.1001 389.099 23.1001 389.099 23.0001C389.099 22.9001 388.999 22.8001 388.999 22.7001L388.299 22.9C388.399 23 388.399 23.2001 388.499 23.5001H386.899V24.1H387.499L387.699 25.0001H386.699V25.6H390.899V25.0001H389.799L390.099 24.0001ZM389.299 24.9H388.399L388.199 24.0001H389.499C389.499 24.3001 389.399 24.6 389.299 24.9Z" fill="#CFD2D3"/>
<path d="M386.6 25.501C386.4 25.601 386.2 25.601 386.1 25.701V24.6011H386.7V24.001H386.1V22.801H385.5V24.001H384.7V24.6011H385.5V25.9011C385.2 26.0011 384.9 26.101 384.6 26.201L384.7 26.801L385.5 26.501V28.1011C385.5 28.2011 385.5 28.301 385.4 28.301C385.4 28.301 385.3 28.4011 385.2 28.4011C385 28.4011 384.8 28.4011 384.7 28.4011L384.8 29.001C385 29.001 385.2 29.001 385.4 29.001C385.6 29.001 385.7 29.0011 385.8 28.9011C385.9 28.9011 386 28.801 386 28.701C386 28.601 386.1 28.401 386.1 28.201V26.201L386.6 26.001V25.501Z" fill="#CFD2D3"/>
<path d="M394 25.601V25.301H395.1V24.701H394V23.701C394.5 23.601 394.8 23.501 395 23.501L394.8 22.901C394.5 23.001 394 23.101 393.5 23.201C393 23.301 392.5 23.401 392.1 23.401L392.2 24.001C392.5 24.001 392.8 23.901 393.2 23.901V24.701H392V25.301H393.1C393 25.601 392.8 26.001 392.6 26.401C392.4 26.801 392.2 27.101 391.9 27.401L392.3 28.001C392.7 27.501 393 26.901 393.3 26.301V29.201H393.9V26.401C394.2 26.701 394.4 27.001 394.7 27.301L395.1 26.801C394.8 26.301 394.4 26.001 394 25.601Z" fill="#CFD2D3"/>
<path d="M395.401 29.001H396.001V28.4011H397.401V28.9011H398.001V23.301H395.301V29.001H395.401ZM396.001 24.001H397.401V27.801H396.001V24.001Z" fill="#CFD2D3"/>
<path d="M399.8 25.701C399.8 26.301 399.8 26.801 399.8 27.201C399.8 27.601 399.7 27.8011 399.7 28.1011C399.6 28.3011 399.5 28.6011 399.4 28.9011L399.9 29.201C400.1 28.901 400.2 28.501 400.3 28.201C400.4 27.901 400.4 27.501 400.5 27.001H401.2V28.201C401.2 28.301 401.2 28.401 401.1 28.501C401.1 28.501 401 28.6011 400.9 28.6011C400.8 28.6011 400.7 28.6011 400.5 28.6011L400.6 29.201C400.8 29.201 401 29.201 401.1 29.201C401.3 29.201 401.5 29.101 401.6 29.001C401.7 28.901 401.7 28.701 401.7 28.501V23.301H399.8V25.701ZM400.3 23.701H401V24.701H400.3V23.701ZM400.3 25.301H401V26.301H400.3V25.301Z" fill="#CFD2D3"/>
<path d="M405.201 27.7C405.201 27.9 405.201 28.1 405.201 28.1C405.201 28.2 405.201 28.3 405.201 28.4C405.201 28.5 405.101 28.5 405.001 28.5H404.901H404.801C404.701 28.5 404.701 28.5 404.601 28.4C404.601 28.3 404.601 28.3 404.601 28.1V26.5H405.401V24H404.601C404.801 23.7 404.901 23.4 405.001 23.2L405.201 22.9L404.601 22.6C404.501 22.8 404.401 23 404.301 23.2C404.201 23.5 404.001 23.7 403.901 23.9H402.201V26.4H402.801C402.801 26.8 402.801 27.1 402.701 27.3C402.601 27.5 402.501 27.8 402.401 27.9C402.201 28.1 402.001 28.3 401.801 28.4L402.201 28.9C402.501 28.7 402.701 28.4 402.901 28.2C403.101 28 403.201 27.7 403.301 27.4C403.401 27.1 403.401 26.7 403.401 26.3H404.001V28C404.001 28.3 404.001 28.4 404.101 28.6C404.201 28.7 404.301 28.8 404.501 28.8C404.601 28.8 404.701 28.8 404.801 28.8C404.901 28.8 405.001 28.8 405.101 28.8C405.301 28.8 405.501 28.7 405.601 28.6C405.701 28.5 405.801 28.3 405.801 28.1C405.801 28 405.801 27.8 405.801 27.6C405.801 27.4 405.801 27.3 405.801 27.2V27L405.201 26.9C405.201 27.3 405.201 27.5 405.201 27.7ZM402.801 26V24.7H404.701V26H402.801Z" fill="#CFD2D3"/>
<path d="M402.601 23.5001C402.701 23.7001 402.801 23.9 402.901 24.1L403.401 23.8C403.301 23.6 403.201 23.4001 403.101 23.2001C403.001 23.0001 402.901 22.9001 402.801 22.7001L402.301 23.0001C402.301 23.1001 402.401 23.3001 402.601 23.5001Z" fill="#CFD2D3"/>
<path d="M411.5 22.7001V23.4H410.4V22.7001H409.9V23.4H408.9V23.9H409.9V24.3H410.4V23.9H411.5V24.3H412V23.9H413.1V23.4H412V22.7001H411.5Z" fill="#CFD2D3"/>
<path d="M411.399 27.7H412.999V27.2H411.199V27.1V26.8H412.599V24.6H409.199V26.8H410.599C410.599 27 410.599 27.1 410.599 27.1V27.2H408.799V27.7H410.399C410.299 27.9 410.099 28.1 409.799 28.2C409.499 28.4 409.099 28.5 408.699 28.6L408.899 29.2C409.899 28.9 410.599 28.5 410.899 28C411.299 28.6 411.999 29 412.899 29.2L413.099 28.6C412.699 28.5 412.299 28.4 411.999 28.2C411.799 28.1 411.599 27.9 411.399 27.7ZM409.799 24.9H412.099V25.3H409.799V24.9ZM409.799 26.2V25.8H412.099V26.2H409.799Z" fill="#CFD2D3"/>
<path d="M408.4 25.3L408.2 25.0001V24.6H408.9V24.0001H408.2V22.7001H407.6V24.0001H406.8V24.6H407.6C407.5 25 407.3 25.4 407.2 25.8C407 26.2 406.8 26.6 406.6 26.9L407 27.5001C407.3 27.1001 407.5 26.6 407.7 25.9V29.1H408.3V25.8C408.6 26.2 408.7 26.4001 408.8 26.5001L409.1 25.9L408.4 25.3Z" fill="#CFD2D3"/>
<path d="M257.3 10.1L246.1 21.3V15.6L251.7 10H246.1H248.5H29.4999H26.4999H25.0999C24.9999 10 24.8999 9.99998 24.7999 10.1C24.2999 10.3 23.8999 10.8 23.8999 11.4V12.9V27.1V28.6C23.8999 29.3 24.4999 29.9 25.1999 29.9H29.4999H214.8H220.5H226.2H231.9H237.6H243.3H246.2V27L263.1 10.1H257.3ZM33.5999 27.9H27.9999V23L33.5999 20.8V27.9ZM28.0999 22V12.2H33.6999V19.8L28.0999 22ZM39.9999 27.9H34.4999V18.1L40.0999 20.3L39.9999 27.9ZM34.4999 17.2V12.3H40.0999V19.4L34.4999 17.2ZM61.2999 20.1V27.9H53.4999H45.6999V20.1V12.3H53.4999H61.2999V20.1ZM80.7999 20.4C80.7999 21 80.2999 21.5 79.6999 21.5H74.2999V24.3H73.4999H72.4999V15.5H76.0999H77.1999H79.0999H79.6999C80.2999 15.5 80.7999 16 80.7999 16.6V20.4ZM87.6999 24.4H83.1999C82.5999 24.4 82.0999 23.9 82.0999 23.3V15.7H83.8999V22.9C83.8999 23.1 83.9999 23.2 84.1999 23.2H87.6999V24.4ZM97.3999 24.4H95.4999V20.9H90.7999V24.4H88.9999V16.7C88.9999 16.1 89.4999 15.6 90.0999 15.6H95.2999H96.0999C96.6999 15.6 97.1999 16.1 97.1999 16.7V24.4H97.3999ZM100.3 24.4H99.5999H99.1999L101.7 15.6H102.8L100.3 24.4ZM113.1 20.4C113.1 21 112.6 21.5 112 21.5H106.6V24.3H104.8V15.5H112C112.6 15.5 113.1 16 113.1 16.6V20.4ZM121.2 16.9H116.6C116.4 16.9 116.3 17.1 116.3 17.2V19.2H121.2V20.5H116.6C116.4 20.5 116.3 20.6 116.3 20.8V23.1H121.2V24.4H120.6H116.1H115H114.4V15.6H117.6H118.7H121.2V16.9ZM130.2 16.9H127.2V24.4H127.1H125.4V16.9H122.7H122.5V15.6H127.9H130.3V16.9H130.2ZM138.9 23.3C138.9 23.9 138.4 24.4 137.8 24.4H137.4H132.5C131.9 24.4 131.4 23.9 131.4 23.3V16.6C131.4 16 131.9 15.5 132.5 15.5H138.7V16.7H133.5C133.3 16.7 133.2 16.8 133.2 17V22.8C133.2 23 133.3 23.1 133.5 23.1H136.4H136.8C137 23.1 137.1 23 137.1 22.8V20.4H135.2V19.2H138.9V23.3ZM141.9 24.4H140.8L143.3 15.6H144.4L141.9 24.4ZM154.7 24.4H152.9V20.9H148.2V24.4H147H146.4V16.7C146.4 16.1 146.9 15.6 147.5 15.6H147.8H152.6H153.6C154.2 15.6 154.7 16.1 154.7 16.7V24.4ZM164.2 23.3C164.2 23.9 163.7 24.4 163.1 24.4H160.4H158.5H156V15.7H162.6C163.2 15.7 163.7 16.2 163.7 16.8V19.4L163.8 19.5C164.1 19.7 164.2 20 164.2 20.4V23.3ZM173.9 23.3C173.9 23.9 173.4 24.4 172.8 24.4H166.3H165.9V23.1H171.8C172 23.1 172.1 22.9 172.1 22.7V21.1C172.1 20.9 171.9 20.8 171.7 20.8H166.6C166 20.8 165.5 20.3 165.5 19.7V16.8C165.5 16.2 166 15.7 166.7 15.7H171.6H173.6V17H170.6H167.7C167.5 17 167.4 17.2 167.4 17.3V19.3C167.4 19.5 167.5 19.6 167.7 19.6H172.7C173.3 19.6 173.8 20.1 173.8 20.7V23.3H173.9ZM176.9 24.4H175.8L178.3 15.6H179.4L176.9 24.4ZM189.1 16.9H186.1V24.4H185.3H184.3V16.9H181.3V15.6H186.8H187.9H189.1V16.9ZM198.5 20.4C198.5 21 198 21.5 197.4 21.5H197.1H192V24.3H191.7H190.2V15.5H197.1H197.4C198 15.5 198.5 16 198.5 16.6V20.4ZM208.1 23.3C208.1 23.9 207.6 24.4 207 24.4H200.9C200.3 24.4 199.8 23.9 199.8 23.3V15.7H201.6V22.9C201.6 23.1 201.7 23.2 201.9 23.2H206C206.2 23.2 206.3 23.1 206.3 22.9V15.7H208.1V23.3ZM211.1 24.4H210L212.5 15.6H213.6L211.1 24.4ZM223.9 20.4C223.9 21 223.4 21.5 222.8 21.5H217.4V24.3H215.6V15.5H222.8C223.4 15.5 223.9 16 223.9 16.6V20.4ZM231.9 16.9H227.3C227.1 16.9 227 17 227 17.2V22.8C227 23 227.1 23.1 227.3 23.1H231.9V24.4H226.3C225.7 24.4 225.2 23.9 225.2 23.3V16.8C225.2 16.2 225.7 15.7 226.3 15.7H231.9V16.9Z" fill="#CFD2D3"/>
<path d="M268.601 10.1L248.801 29.9H254.401L274.301 10.1H268.601Z" fill="#CFD2D3"/>
<path d="M279.9 10.1L260.1 29.9H265.8L285.6 10.1H279.9Z" fill="#CFD2D3"/>
<path d="M277.1 29.901L288.4 18.601V12.901L271.4 29.901H277.1Z" fill="#CFD2D3"/>
<path d="M288.401 29.9V24.2001L282.801 29.9H288.401Z" fill="#CFD2D3"/>
<path d="M78.5992 16.901H74.1992V20.301H78.5992C78.7992 20.301 78.8992 20.201 78.8992 20.001V17.201C78.9992 17.001 78.7992 16.901 78.5992 16.901Z" fill="#CFD2D3"/>
<path d="M152.599 16.901H148.499C148.299 16.901 148.199 17.101 148.199 17.201V19.601H152.899V17.201C152.899 17.001 152.799 16.901 152.599 16.901Z" fill="#CFD2D3"/>
<path d="M196.3 16.901H196H191.9V20.301H196H196.3C196.5 20.301 196.6 20.201 196.6 20.001V17.201C196.7 17.001 196.5 16.901 196.3 16.901Z" fill="#CFD2D3"/>
<path d="M162.101 20.7001H157.801V23.1H162.101C162.301 23.1 162.401 23 162.401 22.8V21.0001C162.401 20.9001 162.301 20.7001 162.101 20.7001Z" fill="#CFD2D3"/>
<path d="M162 19.1V17.3C162 17.1 161.8 17 161.7 17H157.9V19.5H161.7C161.8 19.5 162 19.3 162 19.1Z" fill="#CFD2D3"/>
<path d="M221.8 16.901H217.4V20.301H221.8C222 20.301 222.1 20.201 222.1 20.001V17.201C222.1 17.001 222 16.901 221.8 16.901Z" fill="#CFD2D3"/>
<path d="M95.2008 16.901H91.1008C90.9008 16.901 90.8008 17.101 90.8008 17.201V19.601H95.5008V17.201C95.5008 17.001 95.4008 16.901 95.2008 16.901Z" fill="#CFD2D3"/>
<path d="M111 16.901H106.6V20.301H111C111.2 20.301 111.3 20.201 111.3 20.001V17.201C111.3 17.001 111.2 16.901 111 16.901Z" fill="#CFD2D3"/>
<path d="M53.5 14.901V18.801V22.701H54.8H56.1V21.401V20.101H57.4H58.7V17.501V14.901H56.1H53.5Z" fill="#CFD2D3"/>
<path d="M56.1001 25.3H57.4001H58.7001V24.0001V22.7001H57.4001H56.1001V24.0001V25.3Z" fill="#CFD2D3"/>
<path d="M48.1992 22.7001V24.0001V25.3H50.8992H53.4992V24.0001V22.7001H50.8992H48.1992Z" fill="#CFD2D3"/>
</svg>
