<svg width="420" height="36" viewBox="0 0 420 36" fill="none" xmlns="http://www.w3.org/2000/svg">
<path d="M326.098 28.599H324.298C323.998 28.599 323.698 28.899 323.698 29.199C323.698 29.499 323.998 29.799 324.298 29.799H326.098C326.398 29.799 326.698 29.499 326.698 29.199C326.698 28.799 326.398 28.599 326.098 28.599Z" fill="#CFD2D3"/>
<path d="M376.798 29.3H377.398V29.1H380.898V29.3H381.498V27.5H376.698V29.3H376.798ZM377.398 28H380.898V28.5H377.398V28Z" fill="#CFD2D3"/>
<path d="M416.6 5H1V6H416.6V5Z" fill="#CFD2D3"/>
<path d="M228.9 10.099L209 29.999H214.7L234.5 10.099H228.9Z" fill="#CFD2D3"/>
<path d="M240.199 10.099L220.399 29.999H225.999L245.899 10.099H240.199Z" fill="#CFD2D3"/>
<path d="M251.498 10.099L231.698 29.999H237.398L257.198 10.099H251.498Z" fill="#CFD2D3"/>
<path d="M262.9 10.099L243 29.999H248.7L268.5 10.099H262.9Z" fill="#CFD2D3"/>
<path d="M274.199 10.099L254.399 29.999H259.999L279.899 10.099H274.199Z" fill="#CFD2D3"/>
<path d="M285.598 10.099L265.698 29.999H271.398L291.198 10.099H285.598Z" fill="#CFD2D3"/>
<path d="M282.7 30L294.1 18.6V13L277.1 30H282.7Z" fill="#CFD2D3"/>
<path d="M294.099 30.001V24.301L288.399 30.001H294.099Z" fill="#CFD2D3"/>
<path d="M217.7 10.099L206.6 21.199V15.799L212.3 10.099H31.3996C30.6996 10.099 30.0996 10.699 30.0996 11.399V28.599C30.0996 29.299 30.6996 29.899 31.3996 29.899H51.0996H206.6V27.099V26.899L223.4 10.099H217.7ZM40.0996 20.199C40.0996 20.699 39.6996 20.999 39.2996 20.999H35.2996V23.099H33.9996V16.599H39.2996C39.7996 16.599 40.0996 16.999 40.0996 17.399V20.199ZM45.8996 17.599H42.4996C42.3996 17.599 42.2996 17.699 42.2996 17.899V19.399H45.9996V20.299H42.5996C42.4996 20.299 42.3996 20.399 42.3996 20.499V22.199H46.0996V23.099H41.0996V16.599H46.0996V17.599H45.8996ZM52.3996 17.599H50.1996V23.199H48.7996V17.599H46.5996V16.699H52.3996V17.599ZM58.6996 22.299C58.6996 22.799 58.2996 23.099 57.8996 23.099H53.8996C53.3996 23.099 53.0996 22.699 53.0996 22.299V17.299C53.0996 16.799 53.4996 16.499 53.8996 16.499H58.4996V17.399H54.5996C54.4996 17.399 54.3996 17.499 54.3996 17.599V21.899C54.3996 21.999 54.4996 22.099 54.5996 22.099H57.0996C57.1996 22.099 57.2996 21.999 57.2996 21.899V20.199H55.8996V19.199H58.5996V22.299H58.6996ZM60.6996 23.199H59.9996L61.8996 16.699H62.6996L60.6996 23.199ZM70.0996 23.199H68.7996V20.599H65.2996V23.199H63.9996V17.499C63.9996 16.999 64.3996 16.699 64.7996 16.699H69.2996C69.7996 16.699 70.0996 17.099 70.0996 17.499V23.199ZM76.8996 22.299C76.8996 22.799 76.4996 23.099 76.0996 23.099H70.7996V16.699H75.6996C76.1996 16.699 76.4996 17.099 76.4996 17.499V19.399C76.6996 19.599 76.7996 19.799 76.7996 19.999V22.299H76.8996ZM83.8996 22.299C83.8996 22.799 83.4996 23.099 83.0996 23.099H77.9996V22.199H82.3996C82.4996 22.199 82.6996 22.099 82.6996 21.899V20.699C82.6996 20.599 82.5996 20.499 82.3996 20.499H78.5996C78.0996 20.499 77.7996 20.099 77.7996 19.699V17.499C77.7996 16.999 78.1996 16.699 78.6996 16.699H83.7996V17.599H79.3996C79.2996 17.599 79.1996 17.699 79.1996 17.899V19.399C79.1996 19.499 79.2996 19.599 79.3996 19.599H83.0996C83.5996 19.599 83.8996 19.999 83.8996 20.399V22.299ZM85.9996 23.199H85.1996L87.0996 16.699H87.8996L85.9996 23.199ZM94.8996 17.599H92.6996V23.199H91.2996V17.599H89.0996V16.699H94.8996V17.599ZM101.6 20.199C101.6 20.699 101.2 20.999 100.8 20.999H96.7996V23.099H95.4996V16.599H100.8C101.3 16.599 101.6 16.999 101.6 17.399V20.199ZM108.6 22.399C108.6 22.899 108.2 23.299 107.7 23.299H103.2C102.7 23.299 102.3 22.899 102.3 22.399V16.699H103.7V21.999C103.7 22.099 103.8 22.199 103.9 22.199H106.9C107 22.199 107.1 22.099 107.1 21.999V16.699H108.5V22.399H108.6ZM110.7 23.199H109.9L111.8 16.699H112.6L110.7 23.199ZM120 20.199C120 20.699 119.6 20.999 119.2 20.999H115.2V23.099H113.9V16.599H119.2C119.7 16.599 120 16.999 120 17.399V20.199ZM126.8 23.199H125.5V20.599H122V23.199H120.7V17.499C120.7 16.999 121.1 16.699 121.5 16.699H126C126.5 16.699 126.8 17.099 126.8 17.499V23.199ZM128.8 23.199H128L129.9 16.699H130.7L128.8 23.199ZM138.1 20.199C138.1 20.699 137.7 20.999 137.3 20.999H133.3V23.099H132V16.599H137.3C137.8 16.599 138.1 16.999 138.1 17.399V20.199ZM143.9 17.599H140.5C140.4 17.599 140.3 17.699 140.3 17.799V21.899C140.3 21.999 140.4 22.099 140.5 22.099H143.9V23.099H139.8C139.3 23.099 139 22.699 139 22.299V17.499C139 16.999 139.4 16.699 139.8 16.699H143.9V17.599ZM174.7 27.799H169.1V22.899L174.7 20.699V27.799ZM169.2 21.999V12.199H174.8V19.799L169.2 21.999ZM181.1 27.799H175.5V17.999L181.1 20.199V27.799ZM175.6 17.099V12.199H181.2V19.299L175.6 17.099ZM202.4 19.999V27.799H194.6H186.8V19.999V12.199H194.6H202.4V19.999Z" fill="#CFD2D3"/>
<path d="M333.398 16.1H336.298V15.4H332.798C332.398 15.4 332.198 15.7 332.198 16V19.8C332.198 20.2 332.498 20.4 332.798 20.4H335.798C336.198 20.4 336.398 20.1 336.398 19.8V17.4H334.298V18.1H335.398V19.5C335.398 19.6 335.298 19.7 335.198 19.7H333.298C333.198 19.7 333.098 19.6 333.098 19.5V16.2C333.198 16.2 333.298 16.1 333.398 16.1Z" fill="#CFD2D3"/>
<path d="M337.5 15.5V19.8C337.5 20.2 337.8 20.4 338.1 20.4H340.6V19.7H338.6C338.5 19.7 338.4 19.6 338.4 19.5V15.4H337.5V15.5Z" fill="#CFD2D3"/>
<path d="M345.3 19.6C345.3 19.7 345.2 19.8 345.1 19.8H342.8C342.7 19.8 342.6 19.7 342.6 19.6V15.5H341.6V19.8C341.6 20.2 341.9 20.4 342.2 20.4H345.6C346 20.4 346.2 20.1 346.2 19.8V15.5H345.2V19.6H345.3Z" fill="#CFD2D3"/>
<path d="M347.301 20.499H351.101V19.799H348.301V18.499C348.301 18.399 348.401 18.299 348.501 18.299H351.101V17.599H348.301V16.499C348.301 16.399 348.401 16.299 348.501 16.299H351.101V15.599H347.301V20.499Z" fill="#CFD2D3"/>
<path d="M355.8 16.2H359.1V15.5H355.2C354.8 15.5 354.5 15.8 354.5 16.1V17.7C354.5 18 354.8 18.3 355.1 18.3H358C358.1 18.3 358.2 18.4 358.2 18.5V19.4C358.2 19.5 358.1 19.6 358 19.6H354.7V20.3H358.6C359 20.3 359.2 20 359.2 19.7V18.2C359.2 17.8 358.9 17.6 358.6 17.6H355.7C355.6 17.6 355.5 17.5 355.5 17.4V16.3C355.7 16.3 355.7 16.2 355.8 16.2Z" fill="#CFD2D3"/>
<path d="M363.001 20.5V16.2H364.701V15.5H360.301V16.2H362.001V20.5H363.001Z" fill="#CFD2D3"/>
<path d="M366.698 15.5H365.698V20.5H366.698V15.5Z" fill="#CFD2D3"/>
<path d="M371.398 19.8H368.798C368.698 19.8 368.598 19.7 368.598 19.6V16.4C368.598 16.3 368.698 16.2 368.798 16.2H371.398V15.5H368.298C367.898 15.5 367.698 15.8 367.698 16.1V19.8C367.698 20.2 367.998 20.4 368.298 20.4H371.398V19.8Z" fill="#CFD2D3"/>
<path d="M375.799 17.9L376.699 15.5H375.699L374.899 17.5H373.399V15.5H372.399V20.5H373.399V18.2H374.899L375.799 20.5H376.799L375.799 17.9Z" fill="#CFD2D3"/>
<path d="M380.399 16.1V19.8C380.399 20.2 380.699 20.4 380.999 20.4H384.099V19.7H381.499C381.399 19.7 381.299 19.6 381.299 19.5V16.3C381.299 16.2 381.399 16.1 381.499 16.1H384.099V15.4H380.999C380.699 15.5 380.399 15.8 380.399 16.1Z" fill="#CFD2D3"/>
<path d="M389.198 15.5H385.798C385.398 15.5 385.198 15.8 385.198 16.1V20.4H386.198V18.4H388.898V20.4H389.898V16.1C389.798 15.8 389.498 15.5 389.198 15.5ZM388.798 17.8H386.098V16.4C386.098 16.3 386.198 16.2 386.298 16.2H388.598C388.698 16.2 388.798 16.3 388.798 16.4V17.8Z" fill="#CFD2D3"/>
<path d="M391.801 16.7L394.401 20.5H395.501V15.5H394.501V19.3L391.901 15.5H390.801V20.5H391.801V16.7Z" fill="#CFD2D3"/>
<path d="M399 15.5V20.5H400V18.3H402.3V20.5H403.3V15.5H402.3V17.6H400V15.5H399Z" fill="#CFD2D3"/>
<path d="M405.501 16.2H408.101V15.5H404.301V20.5H408.101V19.8H405.301V18.5C405.301 18.4 405.401 18.3 405.501 18.3H408.101V17.6H405.301V16.5C405.301 16.3 405.401 16.2 405.501 16.2Z" fill="#CFD2D3"/>
<path d="M410 19.6V15.5H409V19.8C409 20.2 409.3 20.4 409.6 20.4H412.1V19.7H410.1C410.1 19.8 410 19.7 410 19.6Z" fill="#CFD2D3"/>
<path d="M417.2 15.5H413.1V20.5H414.1V18.9H417.1C417.5 18.9 417.7 18.6 417.7 18.3V16.2C417.9 15.8 417.6 15.5 417.2 15.5ZM416.8 18C416.8 18.1 416.7 18.2 416.6 18.2H414.1V16.2H416.6C416.7 16.2 416.8 16.3 416.8 16.4V18Z" fill="#CFD2D3"/>
<path d="M391 19.7H390V20.5H391V19.7Z" fill="#CFD2D3"/>
<path d="M322.1 28.6009H315.3L325.1 18.8009C325.8 18.1009 325.8 16.901 325.1 16.201L320.1 11.201C319.4 10.501 318.2 10.501 317.5 11.201L305.6 23.1009C305.3 23.4009 305.1 23.901 305.1 24.401C305.1 24.901 305.3 25.301 305.6 25.701L309.6 29.701H310.5H311.9H314.2H322.2C322.5 29.701 322.8 29.4009 322.8 29.1009C322.8 28.8009 322.4 28.6009 322.1 28.6009ZM318.2 11.901C318.5 11.601 318.9 11.601 319.2 11.901L324.2 16.901C324.5 17.201 324.5 17.601 324.2 17.901L316.6 25.501L310.6 19.501L318.2 11.901ZM313.6 28.6009H310.3H310L306.3 24.901C306.2 24.801 306.1 24.601 306.1 24.401C306.1 24.201 306.2 24.001 306.3 23.901L309.8 20.401L315.8 26.401L313.6 28.6009Z" fill="#CFD2D3"/>
<path d="M334.6 24.9V24.8C334.7 24.6 334.7 24.5 334.8 24.3H337.9V23.7H335C335 23.6 335.1 23.3 335.2 23L334.5 22.9C334.5 23 334.4 23.3 334.3 23.7H332.4V24.3H334.1C334 24.5 334 24.7 333.8 25.1H332V25.7H333.6C333.5 26 333.3 26.3 333.2 26.5V27H336.6C336.2 27.4 335.8 27.8 335.4 28.1C334.4 27.7 333.6 27.5 333.1 27.3L332.9 27.9C333.5 28.1 334.2 28.3 335 28.6C335.8 28.9 336.5 29.2 337.1 29.4L337.4 28.8C337.1 28.7 336.7 28.5 336.1 28.3C336.7 27.8 337.1 27.4 337.5 26.9V26.3H334C334.1 26.1 334.2 25.9 334.3 25.6H338.2V25H334.5C334.5 25 334.5 24.9 334.6 24.9Z" fill="#CFD2D3"/>
<path d="M339.901 26.099C339.901 26.599 339.901 27.099 339.901 27.299C339.901 27.599 339.801 27.899 339.701 28.099C339.601 28.299 339.501 28.599 339.301 28.999L339.901 29.299C340.101 28.899 340.301 28.599 340.401 28.199C340.501 27.899 340.601 27.499 340.601 27.099H342.301V28.999H342.901V27.199H344.601V28.099C344.601 28.299 344.601 28.399 344.501 28.399C344.501 28.499 344.401 28.499 344.201 28.499C344.001 28.499 343.801 28.499 343.501 28.399L343.601 29.099C343.901 29.099 344.101 29.099 344.301 29.099C344.501 29.099 344.701 29.099 344.901 28.999C345.001 28.999 345.101 28.899 345.201 28.699C345.301 28.599 345.301 28.399 345.301 28.199V23.199H340.101V26.099H339.901ZM342.901 23.799H344.601V24.899H342.901V23.799ZM342.901 25.599H344.601V26.599H342.901V25.599ZM340.601 23.799H342.201V24.899H340.601V23.799ZM340.601 26.299V25.499H342.201V26.499H340.601V26.299Z" fill="#CFD2D3"/>
<path d="M352.3 26.001L351.7 25.801C351.5 26.301 351.3 26.801 351.1 27.101C350.9 26.801 350.7 26.301 350.5 25.801L349.9 26.001C350.1 26.601 350.4 27.201 350.7 27.601C350.3 28.001 349.8 28.401 349.1 28.701L349.5 29.301C350.2 29.001 350.7 28.601 351.1 28.101C351.5 28.501 352.1 28.901 352.7 29.201L353.1 28.601C352.4 28.301 351.9 28.001 351.5 27.601C351.8 27.201 352 26.701 352.3 26.001Z" fill="#CFD2D3"/>
<path d="M349.5 26.4C349.9 25.9 350.3 25.4 350.7 24.8L350.2 24.5C349.8 25.1 349.4 25.6 349.1 26.1L349.5 26.4Z" fill="#CFD2D3"/>
<path d="M347 25.899C347 26.499 347 26.999 347 27.399C347 27.799 346.9 28.099 346.8 28.299C346.7 28.499 346.6 28.799 346.5 29.099L347.1 29.399C347.3 29.099 347.4 28.799 347.5 28.399C347.6 27.999 347.6 27.599 347.7 27.099H348.5V28.299C348.5 28.399 348.5 28.499 348.5 28.599C348.5 28.699 348.4 28.699 348.3 28.699C348.1 28.699 348 28.699 347.8 28.699L347.9 29.299C348.1 29.299 348.3 29.299 348.4 29.299C348.7 29.299 348.8 29.199 348.9 29.099C349 28.999 349.1 28.799 349.1 28.499V23.199H347.1V25.899H347ZM347.6 23.899H348.4V24.899H347.6V23.899ZM347.6 26.199V25.499H348.4V26.499H347.6V26.199Z" fill="#CFD2D3"/>
<path d="M351.399 24.8C351.699 25.2 352.099 25.7 352.599 26.3L353.099 25.9C352.699 25.4 352.299 24.9 351.899 24.4L351.399 24.8Z" fill="#CFD2D3"/>
<path d="M352.801 23.701H351.401C351.301 23.301 351.101 23.001 351.101 22.801L350.501 23.001C350.601 23.301 350.701 23.501 350.801 23.801H349.301V24.401H352.801V23.701Z" fill="#CFD2D3"/>
<path d="M359.2 26H360.3V25.5H357.9C357.9 25.4 358 25.3 358.1 25.1H360V24.6H358.2C358.2 24.5 358.3 24.4 358.3 24.1H360.1V23.6H358.3L358.4 23H357.8C357.8 23.2 357.8 23.4 357.7 23.6H356.2V24.1H357.6L357.5 24.6H356.3V25.1H357.3C357.3 25.2 357.2 25.4 357.1 25.5H356V26H356.8C356.5 26.5 356.1 26.9 355.5 27.3L355.8 27.8C356.1 27.5 356.4 27.3 356.7 27V27.4H357.6V27.9H356.1V28.4H357.6V29.3H358.2V28.4H359.7V27.9H358.2V27.4H359.1V27C359.4 27.3 359.7 27.6 360 27.8L360.3 27.3C360 27.1 359.8 27 359.6 26.8C359.6 26.5 359.4 26.2 359.2 26ZM358.4 26.8V26.2H357.8V26.8H357C357.2 26.5 357.4 26.2 357.6 25.9H358.6C358.8 26.2 359 26.5 359.2 26.8H358.4Z" fill="#CFD2D3"/>
<path d="M355.901 26.7L356.201 26.2C355.901 25.8 355.601 25.5 355.401 25.2V24.8H356.101V24.2H355.401V22.9H354.801V24.2H354.001V24.8H354.701C354.601 25.2 354.401 25.6 354.301 26C354.101 26.4 354.001 26.8 353.801 27.1L354.101 27.8C354.301 27.4 354.601 26.9 354.801 26.4V29.3H355.401V26.1C355.601 26.3 355.701 26.5 355.801 26.6L355.901 26.7Z" fill="#CFD2D3"/>
<path d="M365 24.801H362.1V27.601H365V24.801ZM364.4 27.101H362.7V25.501H364.4V27.101Z" fill="#CFD2D3"/>
<path d="M361.399 23.899H366.199V27.999C366.199 28.199 366.199 28.399 366.099 28.499C365.999 28.599 365.899 28.599 365.699 28.599C365.399 28.599 365.099 28.599 364.699 28.499L364.799 29.099C365.099 29.099 365.399 29.099 365.699 29.099C365.999 29.099 366.199 29.099 366.399 28.999C366.599 28.899 366.699 28.799 366.699 28.699C366.699 28.599 366.799 28.299 366.799 28.099V23.799H367.699V23.199H361.399V23.899Z" fill="#CFD2D3"/>
<path d="M371.201 27.3L369.601 28.1V26.2H371.101V23.4H368.801V24.1H370.501V25.6H369.001V28.2C369.001 28.3 368.901 28.5 368.801 28.6L369.101 29.2C369.201 29.1 369.501 29 369.801 28.8C370.301 28.6 370.801 28.3 371.401 28.1L371.201 27.3Z" fill="#CFD2D3"/>
<path d="M374.098 26.201C374.298 25.701 374.398 25.201 374.398 24.601H374.898V23.901H372.698C372.798 23.601 372.898 23.301 372.998 22.901L372.298 22.801C372.198 23.201 372.098 23.701 371.798 24.201C371.598 24.701 371.298 25.101 371.098 25.501L371.498 26.001C371.598 25.801 371.698 25.701 371.798 25.601C371.998 26.201 372.198 26.801 372.598 27.401C372.198 27.901 371.498 28.301 370.698 28.801L371.098 29.401C371.898 28.901 372.498 28.501 372.998 28.001C373.398 28.501 373.998 29.001 374.598 29.401L374.998 28.801C374.298 28.401 373.798 28.001 373.398 27.501C373.798 27.001 373.998 26.601 374.098 26.201ZM372.398 24.801L372.498 24.501H373.798C373.698 25.001 373.698 25.401 373.498 25.801C373.398 26.201 373.198 26.501 372.998 26.801C372.698 26.301 372.498 25.601 372.398 24.801Z" fill="#CFD2D3"/>
<path d="M381.298 25.9H382.198V25.4H379.498V25H381.798V24.5H379.498V24.1H382.098V23.6H380.598C380.698 23.4 380.798 23.3 380.898 23.2L380.998 23.1L380.398 22.9C380.298 23.1 380.098 23.4 379.898 23.7H378.598C378.498 23.6 378.398 23.3 378.198 23L377.598 23.2C377.598 23.3 377.698 23.4 377.798 23.6C377.798 23.6 377.798 23.6 377.798 23.7C377.798 23.7 377.798 23.8 377.898 23.8H376.398V24.3H378.998V24.7H376.698V25.2H378.998V25.6H376.298V26.1H377.198C377.298 26.3 377.398 26.5 377.498 26.7H376.198V27.2H382.498V26.7H380.998C381.098 26.4 381.198 26.2 381.298 25.9ZM378.898 26.6H377.998L377.698 26H378.898V26.6ZM380.398 26.6H379.498V26H380.698C380.598 26.1 380.498 26.3 380.398 26.6Z" fill="#CFD2D3"/>
<path d="M387.998 22.9H387.298V25.9H386.198V29.3H386.798V28.9H388.698V29.3H389.298V25.9H387.998V24.6H389.698V24H387.998V22.9ZM388.698 26.5V28.2H386.798V26.5H388.698Z" fill="#CFD2D3"/>
<path d="M386.298 23.6L385.798 23.4C385.698 23.6 385.698 23.9 385.498 24.1C385.298 24.3 385.298 24.6 385.198 24.8L385.698 25C385.798 24.8 385.898 24.6 385.998 24.3C386.098 24 386.198 23.8 386.298 23.6Z" fill="#CFD2D3"/>
<path d="M383.899 23.4L383.399 23.6C383.499 23.8 383.599 24 383.699 24.3C383.799 24.6 383.899 24.8 383.899 25L384.399 24.8C384.299 24.6 384.299 24.3 384.199 24C383.999 23.8 383.999 23.5 383.899 23.4Z" fill="#CFD2D3"/>
<path d="M385.098 22.9H384.498V25.3H383.298V25.9H384.398C384.298 26.2 384.098 26.5 383.898 26.9C383.698 27.2 383.498 27.5 383.198 27.8L383.598 28.4C383.998 27.9 384.298 27.4 384.498 26.9V29.3H385.098V27.1C385.298 27.3 385.498 27.5 385.698 27.8L386.098 27.3C385.798 27 385.498 26.6 385.098 26.3V25.9H386.098V25.3H385.098V22.9Z" fill="#CFD2D3"/>
<path d="M392.698 25.6C392.498 25.7 392.298 25.7 392.198 25.8V24.7H392.798V24.1H392.198V22.9H391.598V24.1H390.798V24.7H391.598V26C391.298 26.1 390.998 26.2 390.698 26.3L390.798 26.9L391.598 26.6V28.2C391.598 28.3 391.598 28.4 391.498 28.4C391.498 28.4 391.398 28.5 391.298 28.5C391.098 28.5 390.898 28.5 390.798 28.5L390.898 29.1C391.098 29.1 391.298 29.1 391.498 29.1C391.698 29.1 391.798 29.1 391.898 29C391.998 29 392.098 28.9 392.098 28.8C392.098 28.7 392.198 28.5 392.198 28.3V26.3L392.698 26.1V25.6Z" fill="#CFD2D3"/>
<path d="M396.201 24.101H396.901V23.501H395.401C395.401 23.401 395.301 23.301 395.301 23.301C395.301 23.201 395.201 23.201 395.201 23.101C395.201 23.001 395.101 22.901 395.101 22.801L394.401 23.001C394.501 23.101 394.501 23.301 394.601 23.601H393.001V24.201H393.601L393.801 25.101H392.801V25.701H397.001V25.101H396.001L396.201 24.101ZM395.301 25.001H394.401L394.201 24.101H395.501C395.501 24.401 395.401 24.701 395.301 25.001Z" fill="#CFD2D3"/>
<path d="M394.8 25.799L394.2 25.699C394.2 25.799 394.1 26.099 393.9 26.299H392.7V26.899H393.6C393.4 27.199 393.3 27.399 393.1 27.599C393.6 27.799 394 27.999 394.4 28.099C394 28.299 393.4 28.499 392.6 28.599L392.8 29.199C393.3 29.099 393.8 28.999 394.1 28.799C394.5 28.699 394.8 28.499 395 28.299C395.5 28.499 396 28.799 396.6 29.099L396.9 28.499C396.5 28.299 396.1 28.099 395.5 27.799C395.8 27.499 396 27.099 396.2 26.699H396.9V26.099H394.4C394.7 26.099 394.7 25.999 394.8 25.799ZM395.7 26.899C395.5 27.299 395.3 27.599 395.1 27.799C394.7 27.599 394.3 27.499 394.1 27.399C394.2 27.299 394.3 27.099 394.4 26.899H395.7Z" fill="#CFD2D3"/>
<path d="M401.499 29.1H402.099V28.5H403.499V29H404.099V23.4H401.399V29.1H401.499ZM402.099 24.1H403.499V27.9H402.099V24.1Z" fill="#CFD2D3"/>
<path d="M399.999 25.7V25.4H401.099V24.8H399.999V23.8C400.499 23.7 400.799 23.6 400.999 23.6L400.799 23C400.399 23.1 399.999 23.2 399.499 23.3C398.999 23.4 398.499 23.5 398.099 23.5L398.199 24.1C398.499 24.1 398.799 24 399.199 24V24.8H397.999V25.4H399.099C398.999 25.7 398.799 26.1 398.599 26.5C398.399 26.9 398.199 27.2 397.899 27.5L398.299 28.1C398.699 27.6 398.999 27 399.299 26.4V29.3H399.899V26.5C400.199 26.8 400.399 27.1 400.699 27.4L401.099 26.9C400.799 26.5 400.399 26.1 399.999 25.7Z" fill="#CFD2D3"/>
<path d="M409.499 23.901C409.399 23.701 409.299 23.501 409.199 23.301C409.099 23.101 408.999 23.001 408.899 22.801L408.399 23.101C408.499 23.201 408.499 23.301 408.699 23.501C408.799 23.701 408.899 23.901 408.999 24.101L409.499 23.901Z" fill="#CFD2D3"/>
<path d="M405.799 25.8C405.799 26.4 405.799 26.9 405.799 27.3C405.799 27.7 405.699 27.9 405.699 28.2C405.599 28.4 405.499 28.7 405.399 29L405.899 29.3C406.099 29 406.199 28.6 406.299 28.3C406.399 28 406.399 27.6 406.499 27.1H407.199V28.3C407.199 28.4 407.199 28.5 407.099 28.6C407.099 28.6 406.999 28.7 406.899 28.7C406.799 28.7 406.699 28.7 406.499 28.7L406.599 29.3C406.799 29.3 406.999 29.3 407.099 29.3C407.299 29.3 407.499 29.2 407.599 29.1C407.699 29 407.699 28.8 407.699 28.6V23.4H405.799V25.8ZM406.399 23.9H407.099V24.9H406.399V23.9ZM406.399 25.5H407.099V26.5H406.399V25.5Z" fill="#CFD2D3"/>
<path d="M411.299 27.801C411.299 28.001 411.299 28.201 411.299 28.201C411.299 28.301 411.299 28.401 411.299 28.501C411.299 28.601 411.199 28.601 411.099 28.601H410.999H410.899C410.799 28.601 410.799 28.601 410.699 28.501C410.699 28.401 410.699 28.401 410.699 28.201V26.601H411.499V24.201H410.699C410.899 23.901 410.999 23.601 411.099 23.401L411.299 23.101L410.699 22.801C410.599 23.001 410.499 23.201 410.399 23.401C410.299 23.701 410.099 23.901 409.999 24.101H408.299V26.601H408.899C408.899 27.001 408.899 27.301 408.799 27.501C408.699 27.701 408.599 28.001 408.499 28.101C408.299 28.301 408.099 28.501 407.899 28.601L408.299 29.101C408.599 28.901 408.799 28.601 408.999 28.401C409.199 28.201 409.299 27.901 409.399 27.601C409.499 27.301 409.499 26.901 409.499 26.501H410.099V28.201C410.099 28.501 410.099 28.601 410.199 28.801C410.299 28.901 410.399 29.001 410.599 29.001C410.699 29.001 410.799 29.001 410.899 29.001C410.999 29.001 411.099 29.001 411.199 29.001C411.399 29.001 411.599 28.901 411.699 28.801C411.799 28.701 411.899 28.501 411.899 28.301C411.899 28.201 411.899 28.001 411.899 27.801C411.899 27.601 411.899 27.501 411.899 27.401V27.201L411.299 27.101C411.299 27.501 411.299 27.601 411.299 27.801ZM408.799 26.101V24.801H410.699V26.101H408.799Z" fill="#CFD2D3"/>
<path d="M417.501 27.799H419.101V27.199H417.301V26.899H418.701V24.699H415.301V26.899H416.701C416.701 27.099 416.701 27.199 416.701 27.199V27.299H414.901V27.799H416.501C416.401 27.999 416.201 28.199 415.901 28.299C415.601 28.499 415.201 28.599 414.801 28.699L415.001 29.299C416.001 28.999 416.701 28.599 417.001 28.099C417.401 28.699 418.101 29.099 419.001 29.299L419.201 28.699C418.801 28.599 418.401 28.499 418.101 28.299C417.901 28.199 417.601 27.999 417.501 27.799ZM415.901 25.099H418.201V25.499H415.901V25.099ZM415.901 26.299V25.899H418.201V26.299H415.901Z" fill="#CFD2D3"/>
<path d="M417.5 22.9V23.5H416.5V22.9H415.9V23.5H415V24H415.9V24.4H416.5V24H417.5V24.4H418.1V24H419.1V23.5H418.1V22.9H417.5Z" fill="#CFD2D3"/>
<path d="M414.498 25.4L414.298 25.1V24.7H414.998V24.2H414.298V22.9H413.698V24.2H412.898V24.8H413.698C413.598 25.2 413.398 25.6 413.298 26C413.098 26.4 412.898 26.8 412.698 27.1L413.098 27.7C413.398 27.3 413.598 26.8 413.798 26.1V29.3H414.398V26C414.698 26.4 414.798 26.6 414.898 26.7L415.198 26.1L414.498 25.4Z" fill="#CFD2D3"/>
<path d="M118.398 17.599H115.198V20.099H118.498C118.598 20.099 118.698 19.999 118.698 19.899V17.799C118.598 17.699 118.498 17.599 118.398 17.599Z" fill="#CFD2D3"/>
<path d="M125.2 17.599H122.2C122.1 17.599 122 17.699 122 17.899V19.699H125.5V17.899C125.4 17.699 125.3 17.599 125.2 17.599Z" fill="#CFD2D3"/>
<path d="M75.2982 19.301V18.001C75.2982 17.901 75.1982 17.801 75.0982 17.801H72.1982V19.601H75.0982C75.1982 19.501 75.2982 19.401 75.2982 19.301Z" fill="#CFD2D3"/>
<path d="M136.501 17.599H133.301V20.099H136.601C136.701 20.099 136.801 19.999 136.801 19.899V17.799C136.801 17.699 136.701 17.599 136.501 17.599Z" fill="#CFD2D3"/>
<path d="M75.3982 20.4H72.1982V22.2H75.3982C75.4982 22.2 75.5982 22.1 75.5982 22V20.7C75.5982 20.5 75.4982 20.4 75.3982 20.4Z" fill="#CFD2D3"/>
<path d="M100.099 17.599H96.8994V20.099H100.199C100.299 20.099 100.399 19.999 100.399 19.899V17.799C100.299 17.699 100.199 17.599 100.099 17.599Z" fill="#CFD2D3"/>
<path d="M68.5008 17.599H65.5008C65.4008 17.599 65.3008 17.699 65.3008 17.899V19.699H68.8008V17.899C68.7008 17.699 68.6008 17.599 68.5008 17.599Z" fill="#CFD2D3"/>
<path d="M38.5008 17.599H35.3008V20.099H38.6008C38.7008 20.099 38.8008 19.999 38.8008 19.899V17.799C38.8008 17.699 38.7008 17.599 38.5008 17.599Z" fill="#CFD2D3"/>
<path d="M189.399 17.4V21.3V25.2H190.699H191.999V22.6V20H194.599H197.199V21.3V22.6H198.499H199.799V20V17.4H194.599H189.399Z" fill="#CFD2D3"/>
<path d="M194.6 22.599V23.899V25.199H195.9H197.2V23.899V22.599H195.9H194.6Z" fill="#CFD2D3"/>
</svg>
