<svg width="732" height="32" viewBox="0 0 732 32" fill="none" xmlns="http://www.w3.org/2000/svg">
<g clip-path="url(#clip0_2093_1182)">
<g clip-path="url(#clip1_2093_1182)">
<path d="M215 3.9661L232.925 3.9661C234.579 3.9661 235.947 5.30445 235.947 6.98866L235.947 13.921L236.083 14.0563C236.82 14.6127 237.211 15.4999 237.211 16.4172L237.211 24.327C237.211 26.0112 235.842 27.3796 234.188 27.3796L215 27.3796L215 3.9661ZM231.526 17.3646L219.857 17.3646L219.857 23.9661L231.526 23.9661C232.023 23.9661 232.398 23.5751 232.398 23.0939L232.398 18.2067C232.398 17.7556 232.008 17.3646 231.526 17.3646ZM230.263 13.9962C230.714 13.9962 231.135 13.6052 231.135 13.124L231.135 8.23678C231.135 7.74054 230.714 7.3646 230.263 7.3646L219.857 7.3646L219.857 14.0112L230.263 14.0112L230.263 13.9962Z" fill="#B3B3B3"/>
<path d="M240.038 19.2593C240.038 17.53 241.451 16.1315 243.165 16.1315L254.173 16.1315L254.173 12.1917L241.556 12.1917L241.556 9.16911L254.744 9.16911C257.135 9.16911 259.075 10.718 259.075 12.6127L259.075 27.3796L243.18 27.3796C241.451 27.3796 240.053 25.9661 240.053 24.2518L240.053 19.2593L240.038 19.2593ZM254.173 19.1992L244.925 19.1992L244.925 24.3721L254.173 24.3721L254.173 19.1992Z" fill="#B3B3B3"/>
<path d="M287.707 12.2969L287.707 27.3796L282.789 27.3796L282.789 12.1917L277.241 12.1917L277.241 27.3796L272.353 27.3796L272.353 12.2217L266.805 12.2217L266.805 27.3796L261.887 27.3796L261.887 9.16911L284.594 9.16911C286.323 9.16911 287.722 10.5826 287.722 12.2969L287.707 12.2969Z" fill="#B3B3B3"/>
<path d="M290.173 3.62024L295.09 3.62024L295.09 9.16911L306.053 9.16911C307.812 9.16911 309.211 10.5826 309.211 12.2969L309.211 24.2518C309.211 25.9811 307.812 27.3796 306.053 27.3796L290.158 27.3796L290.158 3.62024L290.173 3.62024ZM304.308 12.1917L295.105 12.1917L295.105 24.327L304.308 24.327L304.308 12.2067L304.308 12.1917Z" fill="#B3B3B3"/>
<path d="M330.113 9.16911L330.113 27.3796L314.744 27.3796C313.06 27.3796 311.692 26.0112 311.692 24.327L311.692 9.16911L316.444 9.16911L316.444 24.4623L325.406 24.4623L325.406 9.16911L330.113 9.16911Z" fill="#B3B3B3"/>
<path d="M343.113 24.6202L343.113 6.62018C343.113 5.17657 344.271 4.01867 345.714 4.01867L360.556 4.01867L360.556 6.43972L348.496 6.43973C347.684 6.43973 347.023 7.10138 347.023 7.91341L347.023 23.357C347.023 24.169 347.684 24.8006 348.496 24.8006L360.556 24.8006L360.556 27.2217L345.714 27.2217C344.271 27.2217 343.113 26.0638 343.113 24.6202Z" fill="#B3B3B3"/>
<path d="M363.368 12.1841C363.368 10.7706 364.526 9.61266 365.94 9.61266L378.632 9.61266C380.075 9.61266 381.233 10.7706 381.233 12.1841L381.233 24.6503C381.233 26.0638 380.075 27.2217 378.632 27.2217L365.94 27.2217C364.526 27.2217 363.368 26.0638 363.368 24.6503L363.368 12.169L363.368 12.1841ZM367.128 11.5375L367.128 25.2818L377.429 25.2818L377.429 11.5375L367.128 11.5375Z" fill="#B3B3B3"/>
<path d="M384.03 12.1841C384.03 10.7706 385.188 9.61266 386.601 9.61266L399.293 9.61266C400.737 9.61266 401.895 10.7706 401.895 12.1841L401.895 24.6503C401.895 26.0638 400.737 27.2217 399.293 27.2217L386.601 27.2217C385.188 27.2217 384.03 26.0638 384.03 24.6503L384.03 12.169L384.03 12.1841ZM387.804 11.5375L387.804 25.2818L398.105 25.2818L398.105 11.5375L387.804 11.5375Z" fill="#B3B3B3"/>
<path d="M404.707 24.5149L404.707 3.77807L408.647 3.77807L408.647 25.1766L413.714 25.1766L413.714 27.2217L407.383 27.2217C405.91 27.2217 404.707 25.9886 404.707 24.5149Z" fill="#B3B3B3"/>
<path d="M427.068 4.01867L446.361 4.01867C447.804 4.01867 448.962 5.17657 448.962 6.62018L448.962 16.7856C448.962 18.2292 447.804 19.3871 446.361 19.3871L430.932 19.3871L430.932 27.2217L427.068 27.2217L427.068 4.01867ZM445.068 15.5224L445.038 7.89837C445.038 7.08634 444.406 6.45476 443.594 6.45476L430.932 6.45476L430.932 16.9961L443.594 16.9961C444.406 16.9961 445.068 16.3345 445.068 15.5224Z" fill="#B3B3B3"/>
<path d="M451.789 24.5149L451.789 3.77807L455.729 3.77807L455.729 25.1766L460.797 25.1766L460.797 27.2217L454.466 27.2217C452.992 27.2217 451.789 25.9886 451.789 24.5149Z" fill="#B3B3B3"/>
<path d="M463.609 19.4172C463.609 17.9435 464.797 16.7405 466.241 16.7405L478.12 16.7405L478.12 11.6127L465.143 11.6127L465.143 9.61266L478.15 9.61266C480.301 9.61266 482.045 10.951 482.045 12.6051L482.045 27.2217L466.226 27.2217C464.782 27.2217 463.594 26.0337 463.594 24.545L463.594 19.4172L463.609 19.4172ZM467.504 18.7856L467.504 25.2217L478.12 25.2217L478.12 18.7856L467.504 18.7856Z" fill="#B3B3B3"/>
<path d="M493.429 25.2518L495.579 25.2518L495.579 27.2217L490.451 27.2217C488.977 27.2217 487.774 26.0638 487.774 24.5901L487.774 11.763L483.88 11.763L483.88 9.76303L487.774 9.76303L487.774 4.03371L491.669 4.03371L491.669 9.76303L495.564 9.76303L495.564 11.763L491.669 11.763L491.669 23.4623C491.669 24.4397 492.481 25.2518 493.429 25.2518Z" fill="#B3B3B3"/>
<path d="M497.684 12.2743C497.684 10.8006 498.872 9.59762 500.361 9.59762L513.504 9.59762C514.977 9.59762 516.18 10.7856 516.18 12.2743L516.18 19.9736L501.624 19.9736L501.624 25.2518L515.865 25.2518L515.865 27.2217L500.361 27.2217C498.887 27.2217 497.684 26.0337 497.684 24.545L497.684 12.2743ZM501.609 11.5375L501.609 17.9284L512.226 17.9284L512.226 11.5375L501.609 11.5375Z" fill="#B3B3B3"/>
</g>
</g>
<defs>
<clipPath id="clip0_2093_1182">
<rect width="732" height="32" fill="white"/>
</clipPath>
<clipPath id="clip1_2093_1182">
<rect width="31" height="301.18" fill="white" transform="translate(215 31) rotate(-90)"/>
</clipPath>
</defs>
</svg>
