<svg width="34" height="14" xmlns="http://www.w3.org/2000/svg" fill="none">

 <g>
  <title>Layer 1</title>
  <path id="svg_1" fill="#00AE42" d="m14.4493,12l-7.44846,0c-2.76142,0 -5,-2.23858 -5,-5c0,-2.76142 2.23858,-5 5,-5l7.44846,0l0,-2l-7.44846,0c-3.86599,0 -7,3.13401 -7,7c0,3.866 3.13401,7 7,7l7.44846,0l0,-2zm5.0253,0l0,2l7.4473,0c3.866,0 7,-3.134 7,-7c0,-3.86599 -3.134,-7 -7,-7l-7.4473,0l0,2l7.4473,0c2.7614,0 5,2.23858 5,5c0,2.76142 -2.2386,5 -5,5l-7.4473,0z" clip-rule="evenodd" fill-rule="evenodd"/>
  <line id="svg_2" stroke-linecap="round" stroke-width="2" stroke="#00AE42" y2="7.125" x2="7.2832" y1="7.125" x1="28.5254"/>
 </g>
</svg>