<svg xmlns="http://www.w3.org/2000/svg" viewBox="0 0 32 32"><path d="M12.5,25A12.5,12.5,0,1,0,0,12.5,12.5,12.5,0,0,0,12.5,25Zm0-5A1.5,1.5,0,1,1,14,18.5,1.5,1.5,0,0,1,12.5,20ZM14,14.5a1.5,1.5,0,0,1-3,0v-8a1.5,1.5,0,0,1,3,0Z" style="fill:#d9d9d9"/><path d="M19.77,28a6.64,6.64,0,0,1,3.76,1.08,5.71,5.71,0,0,0,5.95.14c0-.13,0-.26,0-.38h0a4.82,4.82,0,0,0-3.77-4,5.81,5.81,0,0,0-3-2.37.15.15,0,0,0-.19.22A3.16,3.16,0,0,1,23,24,3,3,0,0,1,23,25a5,5,0,0,0-2.93,2.3h0A4.8,4.8,0,0,0,19.77,28Z"/><path d="M26.36,28.44c.55.13,1.05,0,1.13-.2s-.3-.55-.85-.68-1.05,0-1.13.2S25.81,28.31,26.36,28.44Z" style="fill:#d9d9d9;stroke:#d9d9d9;stroke-miterlimit:10"/><path d="M1.5,30.5l1.5-1a6.21,6.21,0,0,1,6.75,0h0a6.21,6.21,0,0,0,6.75,0h0a6.21,6.21,0,0,1,6.75,0h0a6.21,6.21,0,0,0,6.75,0l1.5-1" style="fill:none;stroke:#009688;stroke-linecap:round;stroke-linejoin:round"/></svg>