<svg width="20" height="20" viewBox="0 0 20 20" fill="none" xmlns="http://www.w3.org/2000/svg">
<path fill-rule="evenodd" clip-rule="evenodd" d="M10.0002 0.833252C15.0628 0.833252 19.1668 4.93731 19.1668 9.99992C19.1668 15.0625 15.0628 19.1666 10.0002 19.1666C4.93755 19.1666 0.833496 15.0625 0.833496 9.99992C0.833496 4.93731 4.93755 0.833252 10.0002 0.833252ZM10.0002 12.7083C9.42487 12.7083 8.9585 13.1746 8.9585 13.7499C8.9585 14.3252 9.42487 14.7916 10.0002 14.7916C10.5755 14.7916 11.0418 14.3252 11.0418 13.7499C11.0418 13.1746 10.5755 12.7083 10.0002 12.7083ZM9.17244 5.73607C9.22057 5.32162 9.5728 4.99992 10.0002 4.99992C10.4275 4.99992 10.7798 5.32162 10.8279 5.73607L10.8335 5.83325V10.8333L10.8279 10.9304C10.7798 11.3449 10.4275 11.6666 10.0002 11.6666C9.5728 11.6666 9.22057 11.3449 9.17244 10.9304L9.16683 10.8333V5.83325L9.17244 5.73607Z" fill="white"/>
</svg>
