<svg xmlns="http://www.w3.org/2000/svg" width="32" height="32" viewBox="0 0 32 32"><path d="M12.5,25A12.5,12.5,0,1,0,0,12.5,12.5,12.5,0,0,0,12.5,25Zm0-5A1.5,1.5,0,1,1,14,18.5,1.5,1.5,0,0,1,12.5,20ZM14,14.5a1.5,1.5,0,0,1-3,0v-8a1.5,1.5,0,0,1,3,0Z" style="fill:#d9d9d9"/><path d="M19.774,28a6.585,6.585,0,0,1,3.753,1.086,5.72,5.72,0,0,0,5.955.134c-.008-.127-.01-.254-.028-.38h0a4.84,4.84,0,0,0-3.771-3.958A5.8,5.8,0,0,0,22.7,22.51a.153.153,0,0,0-.188.223,3.165,3.165,0,0,1,.518,1.29,3.076,3.076,0,0,1,0,.944,5.022,5.022,0,0,0-2.934,2.3h0A4.611,4.611,0,0,0,19.774,28Z"/><path d="M26.361,28.441c.546.13,1.052.039,1.129-.2s-.3-.546-.851-.677-1.052-.039-1.129.2S25.814,28.31,26.361,28.441Z" style="fill:#d9d9d9;stroke:#d9d9d9;stroke-miterlimit:10"/><path d="M1.5,30.5l1.5-1a6.2,6.2,0,0,1,6.75,0h0a6.2,6.2,0,0,0,6.75,0h0a6.2,6.2,0,0,1,6.75,0h0a6.2,6.2,0,0,0,6.75,0l1.5-1" style="fill:none;stroke:#009688;stroke-linecap:round;stroke-linejoin:round"/></svg>