<svg xmlns="http://www.w3.org/2000/svg" viewBox="0 0 16 16" width="16px" height="16px">
<path fill="#808080" d="M 10.324265,12.637091 C 9.7126185,11.801826 9.4455652,11.319769 9.3860031,10.943437 9.3387131,10.644653 9.2775165,10.67725 9.032793,11.131535 8.8565876,11.45863 8.806364,11.904627 8.9008009,12.303679 8.330577,11.894019 7.6015175,10.031363 7.7096999,9.1284851 5.381808,10.598103 4.7271155,13.939753 5,16 2.9751051,14.608227 1.2851951,13.046842 1.3078808,10.57598 1.3305665,8.1051179 3.8432395,6.4490194 3.8697024,4.1713523 3.8727624,3.3745518 3.8421277,3.3793755 4.5118024,4.0701844 5.3014406,5.073513 5.8791344,5.964439 5.6521467,7.0731381 6.1486239,6.623741 6.3341015,5.940722 6.5401623,5.4070849 6.8689362,3.4222537 6.7021829,1.5642078 6,0 c 2.5998224,0.67409817 4.550997,3.5888298 4.623306,5.6887828 l 9.3e-4,0.4921817 C 11.260843,5.1624272 11.966175,4.3725405 13,4 12.774748,6.4272659 14.752236,8.539235 14.683585,10.819702 14.614934,13.100169 13.178608,15.41894 11,16 11.750123,14.792953 10.874074,13.393198 10.324265,12.637091 Z" />
<path fill="#eb4949" d="M 9.032793,11.131535 C 8.8565876,11.45863 8.806364,11.904627 8.9008009,12.303679 8.2684185,12.02479 7.7175594,10.368983 7.6751289,9.4545414 7.7066738,9.2878597 7.7222018,9.1411316 7.7097002,9.1284851 8.5239771,6.6708553 5.893441,7.0819045 6.5401623,5.4070849 6.8689362,3.4222537 6.7021829,1.5642078 6,0 c 2.5998224,0.67409817 4.550997,3.5888298 4.623306,5.6887828 l 9.3e-4,0.4921817 c -0.04706,1.5271028 -0.04706,2.5643146 -1.591443,4.9505705 z" />
</svg>
