<svg width="48" height="48" viewBox="0 0 48 48" fill="none" xmlns="http://www.w3.org/2000/svg">
<rect width="48" height="48" rx="24" fill="#D9D9D9"/>
<path d="M18.96 19.68C19.2933 18.7067 19.86 17.9533 20.66 17.42C21.4733 16.8733 22.4067 16.6 23.46 16.6C24.2467 16.6 24.94 16.7533 25.54 17.06C26.14 17.3533 26.6067 17.7667 26.94 18.3C27.2733 18.82 27.44 19.4067 27.44 20.06C27.44 20.7267 27.28 21.2867 26.96 21.74C26.6533 22.18 26.1867 22.6733 25.56 23.22C25.12 23.6333 24.7667 23.9867 24.5 24.28C24.2333 24.5733 24.0067 24.9267 23.82 25.34C23.6467 25.74 23.56 26.2067 23.56 26.74C23.56 27.1133 23.6067 27.4933 23.7 27.88H22.32C22.1467 27.28 22.06 26.7267 22.06 26.22C22.06 25.6733 22.1467 25.1933 22.32 24.78C22.5067 24.3533 22.7267 24 22.98 23.72C23.2333 23.4267 23.5733 23.08 24 22.68C24.52 22.2133 24.9067 21.8067 25.16 21.46C25.4133 21.1 25.54 20.68 25.54 20.2C25.54 19.6 25.3333 19.12 24.92 18.76C24.5067 18.4 23.9667 18.22 23.3 18.22C21.94 18.22 20.9533 18.9733 20.34 20.48L18.96 19.68ZM23.18 32.22C22.8733 32.22 22.6067 32.1067 22.38 31.88C22.1667 31.6533 22.06 31.3867 22.06 31.08C22.06 30.76 22.1667 30.4867 22.38 30.26C22.6067 30.0333 22.8733 29.92 23.18 29.92C23.5 29.92 23.7667 30.0333 23.98 30.26C24.2067 30.4867 24.32 30.76 24.32 31.08C24.32 31.3867 24.2067 31.6533 23.98 31.88C23.7667 32.1067 23.5 32.22 23.18 32.22Z" fill="black"/>
</svg>
