<svg xmlns="http://www.w3.org/2000/svg" width="18" height="18" viewBox="0 0 18 18"><path d="M7.5,15.5h-3a1,1,0,0,1-1-1v-3" style="fill:none;stroke:#999;stroke-linecap:square;stroke-linejoin:round"/><path d="M15.5,11.5v3a1,1,0,0,1-1,1h-3" style="fill:none;stroke:#999;stroke-linecap:square;stroke-linejoin:round"/><path d="M11.5,3.5h3a1,1,0,0,1,1,1v3" style="fill:none;stroke:#999;stroke-linecap:square;stroke-linejoin:round"/><path d="M3.5,7.5v-3a1,1,0,0,1,1-1h3" style="fill:none;stroke:#999;stroke-linecap:square;stroke-linejoin:round"/><line x1="9.5" y1="3.5" x2="9.5" y2="5.5" style="fill:none;stroke:#999;stroke-linecap:square;stroke-linejoin:round"/><line x1="9.5" y1="8.5" x2="9.5" y2="10.5" style="fill:none;stroke:#999;stroke-linecap:square;stroke-linejoin:round"/><line x1="9.5" y1="13.5" x2="9.5" y2="15.5" style="fill:none;stroke:#999;stroke-linecap:square;stroke-linejoin:round"/><line x1="15.5" y1="9.5" x2="13.5" y2="9.5" style="fill:none;stroke:#999;stroke-linecap:square;stroke-linejoin:round"/><line x1="5.5" y1="9.5" x2="3.5" y2="9.5" style="fill:none;stroke:#999;stroke-linecap:square;stroke-linejoin:round"/><line x1="10.5" y1="9.5" x2="8.5" y2="9.5" style="fill:none;stroke:#999;stroke-linecap:square;stroke-linejoin:round"/></svg>