<svg xmlns="http://www.w3.org/2000/svg" viewBox="0 0 18 18"><path d="M8,15.5a.5.5,0,0,1-.5.5h-3A1.5,1.5,0,0,1,3,14.5v-3a.5.5,0,0,1,1,0v3a.5.5,0,0,0,.5.5h3A.5.5,0,0,1,8,15.5ZM15.5,11a.5.5,0,0,0-.5.5v3a.5.5,0,0,1-.5.5h-3a.5.5,0,0,0,0,1h3A1.5,1.5,0,0,0,16,14.5v-3A.5.5,0,0,0,15.5,11Zm-1-8h-3a.5.5,0,0,0,0,1h3a.5.5,0,0,1,.5.5v3a.5.5,0,0,0,1,0v-3A1.5,1.5,0,0,0,14.5,3ZM3.5,8A.5.5,0,0,0,4,7.5v-3A.5.5,0,0,1,4.5,4h3a.5.5,0,0,0,0-1h-3A1.5,1.5,0,0,0,3,4.5v3A.5.5,0,0,0,3.5,8Zm6-2a.5.5,0,0,0,.5-.5v-2a.5.5,0,0,0-1,0v2A.5.5,0,0,0,9.5,6Zm0,7a.5.5,0,0,0-.5.5v2a.5.5,0,0,0,1,0v-2A.5.5,0,0,0,9.5,13Zm6-4h-2a.5.5,0,0,0,0,1h2a.5.5,0,0,0,0-1Zm-12,1h2a.5.5,0,0,0,0-1h-2a.5.5,0,0,0,0,1Zm7-1H10V8.5a.5.5,0,0,0-1,0V9H8.5a.5.5,0,0,0,0,1H9v.5a.5.5,0,0,0,1,0V10h.5a.5.5,0,0,0,0-1Z" style="fill:#999"/></svg>