<svg width="22" height="20" viewBox="0 0 22 20" fill="none" xmlns="http://www.w3.org/2000/svg">
<path d="M13.5699 18.8136C13.2001 18.8136 12.8521 18.6677 12.6159 18.4154C12.2586 18.0323 11.3947 17.3057 10.6987 17.3057C10.3786 17.3057 9.94978 17.4821 9.4961 17.8013C9.12011 18.0658 8.84666 18.3394 8.79383 18.3941C8.567 18.6343 8.19722 18.7832 7.83055 18.7832C7.67518 18.7832 7.52292 18.7559 7.39241 18.7042L7.36444 18.692L7.29608 18.6586L4.95 17.3635L4.89407 17.3179C4.50254 16.9835 4.36892 16.412 4.5709 15.9559C4.67345 15.7188 4.7791 15.3631 4.7791 15.0682C4.7791 13.7944 3.72259 12.7577 2.4206 12.7577H2.24969L2.17511 12.7425C1.81466 12.6665 1.52878 12.3169 1.42934 11.8275L1.42623 11.8184C1.40759 11.7119 1.23047 10.7513 1.23047 9.98821C1.23047 9.28594 1.37962 8.41647 1.42623 8.16718V8.1611C1.50392 7.75373 1.71833 7.42843 1.99488 7.29163L2.14404 7.21867H2.35845C3.01721 7.21867 3.63247 6.9785 4.08304 6.54376C4.53051 6.11207 4.77599 5.53141 4.77599 4.90211C4.77599 4.55857 4.63305 4.16336 4.57712 4.03871C4.35339 3.54318 4.50254 2.94732 4.93447 2.61898L4.96865 2.59466L5.04012 2.5521L7.51981 1.22053L7.58506 1.19925C7.70004 1.16277 7.82744 1.14453 7.95795 1.14453C8.32462 1.14453 8.68197 1.28742 8.91502 1.52758C9.19779 1.8164 10.0834 2.5673 10.7888 2.5673C11.4879 2.5673 12.386 1.81336 12.6439 1.54887L12.6501 1.54279C12.88 1.31174 13.2467 1.16885 13.6072 1.16885C13.7656 1.16885 13.9148 1.19621 14.0484 1.24789L14.0764 1.25702L14.1354 1.28742L16.525 2.59466L16.5809 2.6433C16.9818 2.98988 17.1185 3.5523 16.9134 4.01439C16.8171 4.23632 16.7052 4.59809 16.7052 4.89906C16.7052 6.17287 17.7617 7.20955 19.0637 7.20955C19.4118 7.20955 19.7163 7.39195 19.8965 7.70812C19.968 7.83277 20.0208 7.97565 20.0519 8.14286L20.055 8.15198C20.1513 8.66272 20.2539 9.41059 20.2539 9.97909C20.2601 10.5537 20.1575 11.2985 20.0612 11.8092C19.9524 12.3838 19.5827 12.7547 19.1134 12.7547C17.7648 12.7547 16.7114 13.7701 16.7114 15.0652C16.7114 15.354 16.814 15.7006 16.9103 15.9347C17.1403 16.4515 16.9662 17.0717 16.5064 17.3818L16.4691 17.4061L16.4318 17.4243L14.0049 18.7346L13.9397 18.7559C13.8247 18.7954 13.7004 18.8136 13.5699 18.8136Z" fill="#00AE42" fill-opacity="0.1" stroke="#00AE42" stroke-width="1.5" stroke-miterlimit="10"/>
<path d="M10.7446 12.9742C9.05725 12.9742 7.68378 11.6335 7.68378 9.98272C7.68378 8.33194 9.05725 6.99125 10.7446 6.99125C12.4319 6.99125 13.8022 8.33194 13.8022 9.98272C13.8022 11.6305 12.4319 12.9742 10.7446 12.9742Z" fill="#00AE42" fill-opacity="0.1" stroke="#00AE42" stroke-width="1.5" stroke-miterlimit="10"/>
</svg>
