<?xml version="1.0" encoding="UTF-8" standalone="no"?>
<svg
   width="39"
   height="22"
   viewBox="0 0 39 22"
   fill="none"
   version="1.1"
   id="svg5"
   sodipodi:docname="camera_switch.svg"
   inkscape:version="1.3.2 (091e20e, 2023-11-25, custom)"
   xmlns:inkscape="http://www.inkscape.org/namespaces/inkscape"
   xmlns:sodipodi="http://sodipodi.sourceforge.net/DTD/sodipodi-0.dtd"
   xmlns="http://www.w3.org/2000/svg"
   xmlns:svg="http://www.w3.org/2000/svg">
  <defs
     id="defs5">
    <clipPath
       id="clip0_7112_29362">
      <rect
         id="svg_1"
         fill="#ffffff"
         height="30"
         width="30"
         x="0"
         y="0" />
    </clipPath>
  </defs>
  <sodipodi:namedview
     id="namedview5"
     pagecolor="#ffffff"
     bordercolor="#666666"
     borderopacity="1.0"
     inkscape:showpageshadow="2"
     inkscape:pageopacity="0.0"
     inkscape:pagecheckerboard="0"
     inkscape:deskcolor="#d1d1d1"
     inkscape:zoom="16"
     inkscape:cx="6.84375"
     inkscape:cy="11.21875"
     inkscape:window-width="2560"
     inkscape:window-height="1369"
     inkscape:window-x="-8"
     inkscape:window-y="-8"
     inkscape:window-maximized="1"
     inkscape:current-layer="svg5"
     showguides="false" />
  <path
     fill-rule="evenodd"
     clip-rule="evenodd"
     d="m 21.066182,15.123836 h 1.463398 1.463399 1.463398 1.463399 m 0,0 h 1.463398 c 1.167463,0 2.113821,-0.946358 2.113821,-2.113821 V 2.600884 c 0,-1.1674317 -0.946358,-2.11382107 -2.113821,-2.11382107 H 16.675987 c -1.167411,0 -2.1138,0.94637877 -2.1138,2.11381047 v 1.3011427 1.3011428 1.3011427 1.3011427 h 1.268271 V 6.5043016 5.2031589 3.9020161 2.6008734 c 0,-0.4669642 0.378586,-0.8455179 0.845529,-0.8455179 h 11.707187 c 0.467048,0 0.845528,0.3785537 0.845528,0.8455285 v 10.409131 c 0,0.467049 -0.37848,0.845529 -0.845528,0.845529 h -1.463398 m 0,0 H 25.456377 23.992979 22.52958 21.066182 m 0,0 v 1.268292"
     fill="#b3b3b5"
     id="path1"
     style="fill:#262e30;fill-opacity:1;stroke:none;stroke-width:0;stroke-dasharray:none"
     sodipodi:nodetypes="ccccccssssssccccccccsssssscccccccc" />
  <path
     fill-rule="evenodd"
     clip-rule="evenodd"
     d="m 31.074174,7.804414 4.093731,3.449544 V 4.3548482 Z M 30.065035,6.9961839 c -0.501081,0.4222886 -0.501081,1.1942138 0,1.6164496 l 4.633179,3.9041215 c 0.687309,0.579187 1.737984,0.09058 1.737984,-0.80822 V 3.9003132 c 0,-0.8987967 -1.050675,-1.3873959 -1.737984,-0.80823 z"
     fill="#b3b3b5"
     id="path4"
     style="fill:#262e30;fill-opacity:1;stroke-width:1.05691" />
  <path
     fill-rule="evenodd"
     clip-rule="evenodd"
     d="M 19.153511,8.3696736 H 7.4463245 c -0.4669431,0 -0.8455285,0.3785536 -0.8455285,0.8455179 V 19.624333 c 0,0.467049 0.3785854,0.845528 0.8455285,0.845528 H 19.153511 c 0.467048,0 0.845528,-0.378479 0.845528,-0.845528 V 9.215202 c 0,-0.4669748 -0.37848,-0.8455284 -0.845528,-0.8455284 z M 7.4463245,7.1013809 c -1.1674106,0 -2.1138,0.9463789 -2.1138,2.1138106 V 19.624333 c 0,1.167463 0.9463894,2.113821 2.1138,2.113821 H 19.153511 c 1.167463,0 2.113821,-0.946358 2.113821,-2.113821 V 9.215202 c 0,-1.1674317 -0.946358,-2.1138211 -2.113821,-2.1138211 z"
     fill="#b3b3b5"
     id="path1-5"
     style="stroke:none;stroke-width:0;stroke-dasharray:none;fill:#262e30;fill-opacity:1" />
  <path
     fill-rule="evenodd"
     clip-rule="evenodd"
     d="m 21.844511,14.418731 4.093731,3.449545 v -6.89911 z m -1.009139,-0.80823 c -0.501081,0.422289 -0.501081,1.194214 0,1.61645 l 4.633179,3.904122 c 0.687309,0.579187 1.737984,0.09058 1.737984,-0.80822 v -7.808222 c 0,-0.8987971 -1.050675,-1.3873956 -1.737984,-0.8082304 z"
     fill="#b3b3b5"
     id="path4-1"
     style="stroke-width:1.05691;fill:#262e30;fill-opacity:1" />
</svg>
