<svg xmlns="http://www.w3.org/2000/svg" width="38" height="22" viewBox="0 0 38 22"><rect x="7.5" y="7.5" width="11" height="11" rx="1" style="fill:none;stroke:#949494;stroke-linecap:round;stroke-linejoin:round"/><polyline points="18.5 13.5 22.5 16.5 22.5 9.5 18.5 12.5" style="fill:none;stroke:#949494;stroke-linecap:round;stroke-linejoin:round"/><polyline points="26.5 8.5 30.5 11.5 30.5 4.5 26.5 7.5" style="fill:none;stroke:#949494;stroke-linecap:round;stroke-linejoin:round"/><line x1="9.5" y1="10.5" x2="12.5" y2="10.5" style="fill:none;stroke:#949494;stroke-linecap:round;stroke-linejoin:round"/><circle cx="11" cy="15" r="1.5" style="fill:none;stroke:#949494;stroke-linecap:round;stroke-linejoin:round"/><path d="M15.5,5.5v-2a1,1,0,0,1,1-1h9a1,1,0,0,1,1,1v9a1,1,0,0,1-1,1h-1" style="fill:none;stroke:#949494;stroke-linecap:round;stroke-linejoin:round;fill-rule:evenodd"/><line x1="8.5" y1="4.5" x2="8.5" y2="3.5" style="fill:none;stroke:#949494;stroke-linecap:round;stroke-linejoin:round"/><line x1="12.5" y1="3.5" x2="8.5" y2="3.5" style="fill:none;stroke:#949494;stroke-linecap:round;stroke-linejoin:round"/><line x1="11.5" y1="2.5" x2="12.5" y2="3.5" style="fill:none;stroke:#949494;stroke-linecap:round;stroke-linejoin:round"/><line x1="11.5" y1="4.5" x2="12.5" y2="3.5" style="fill:none;stroke:#949494;stroke-linecap:round;stroke-linejoin:round"/><line x1="29.5" y1="16.5" x2="29.5" y2="17.5" style="fill:none;stroke:#949494;stroke-linecap:round;stroke-linejoin:round"/><line x1="25.5" y1="17.5" x2="29.5" y2="17.5" style="fill:none;stroke:#949494;stroke-linecap:round;stroke-linejoin:round"/><line x1="26.5" y1="18.5" x2="25.5" y2="17.5" style="fill:none;stroke:#949494;stroke-linecap:round;stroke-linejoin:round"/><line x1="26.5" y1="16.5" x2="25.5" y2="17.5" style="fill:none;stroke:#949494;stroke-linecap:round;stroke-linejoin:round"/></svg>