<svg width="20" height="20" viewBox="0 0 20 20" fill="none" xmlns="http://www.w3.org/2000/svg">
<path d="M9.20618 1.91333C13.2338 1.91338 16.4991 5.17868 16.4991 9.2063C16.4991 10.9499 15.8852 12.5492 14.8644 13.804L17.8673 16.8059C18.1602 17.0988 18.1602 17.5745 17.8673 17.8674C17.5744 18.1603 17.0987 18.1603 16.8058 17.8674L13.8038 14.8645C12.5491 15.8853 10.9498 16.4992 9.20618 16.4993C5.17855 16.4993 1.91326 13.2339 1.91321 9.2063C1.91321 5.17865 5.17852 1.91333 9.20618 1.91333ZM9.20618 3.41333C6.00695 3.41333 3.41321 6.00707 3.41321 9.2063C3.41326 12.4055 6.00698 14.9993 9.20618 14.9993C12.4053 14.9992 14.9991 12.4055 14.9991 9.2063C14.9991 6.0071 12.4054 3.41338 9.20618 3.41333ZM9.20618 5.29517C9.62017 5.29531 9.95602 5.63118 9.95618 6.04517V8.4563H12.3663C12.7805 8.4563 13.1163 8.79209 13.1163 9.2063C13.1163 9.62047 12.7805 9.9563 12.3663 9.9563H9.95618V12.3674C9.95592 12.7813 9.62011 13.1173 9.20618 13.1174C8.79212 13.1174 8.45644 12.7814 8.45618 12.3674V9.9563H6.04504C5.63089 9.95627 5.29509 9.62045 5.29504 9.2063C5.29504 8.7921 5.63086 8.45633 6.04504 8.4563H8.45618V6.04517C8.45634 5.63109 8.79206 5.29517 9.20618 5.29517Z" fill="#CECECE"/>
</svg>
