<svg width="20" height="20" viewBox="0 0 20 20" fill="none" xmlns="http://www.w3.org/2000/svg">
<path d="M9.99839 1.66675C9.17483 1.66675 8.46193 2.14526 8.12339 2.83862C7.89553 2.75399 7.65139 2.70841 7.39423 2.70841C6.24514 2.70841 5.31089 3.64266 5.31089 4.79175V10.1791L5.223 10.0912C4.4092 9.27742 3.09084 9.27742 2.27704 10.0912C1.46324 10.905 1.46324 12.2234 2.27704 13.0372L5.13186 15.892C6.69436 17.4545 8.8135 18.3334 11.0238 18.3334H11.3005H11.5609C11.6097 18.3334 11.6586 18.3302 11.7074 18.3204C14.6924 18.1186 17.0785 15.7358 17.277 12.7507C17.2868 12.7019 17.2901 12.6531 17.2901 12.6042V6.87508C17.2901 5.72599 16.3558 4.79175 15.2067 4.79175C15.0277 4.79175 14.8519 4.81453 14.6859 4.85685V4.79175C14.6859 3.64266 13.7516 2.70841 12.6026 2.70841C12.3454 2.70841 12.1013 2.75399 11.8734 2.83862C11.5349 2.14526 10.822 1.66675 9.99839 1.66675ZM9.47756 4.795V4.79175V3.75008C9.47756 3.46362 9.71194 3.22925 9.99839 3.22925C10.2849 3.22925 10.5192 3.46362 10.5192 3.75008V4.78849V4.79175V9.21883C10.5192 9.65177 10.8675 10.0001 11.3005 10.0001C11.7334 10.0001 12.0817 9.65177 12.0817 9.21883V4.79175C12.0817 4.79175 12.0817 4.79175 12.0817 4.78849C12.0817 4.50203 12.3161 4.26766 12.6026 4.26766C12.889 4.26766 13.1234 4.50203 13.1234 4.78849V6.60815V6.61141V9.21558C13.1234 9.64852 13.4717 9.99683 13.9046 9.99683C14.3376 9.99683 14.6859 9.64852 14.6859 9.21558V6.87834V6.87508C14.6859 6.58862 14.9203 6.35425 15.2067 6.35425C15.4932 6.35425 15.7276 6.58862 15.7276 6.87508V12.5033C15.7243 12.5229 15.7243 12.5457 15.7211 12.5652C15.6104 14.8341 13.7907 16.6537 11.5218 16.7644C11.5023 16.7644 11.4795 16.7677 11.46 16.7709H11.3005H11.0238C9.22691 16.7709 7.5049 16.058 6.23537 14.7885L3.38055 11.9304C3.17873 11.7286 3.17873 11.3966 3.38055 11.1947C3.58238 10.9929 3.91441 10.9929 4.11623 11.1947L5.53876 12.6173C5.76337 12.8419 6.09865 12.907 6.39162 12.7865C6.68459 12.6661 6.87339 12.3796 6.87339 12.0639V4.79175C6.87339 4.50529 7.10777 4.27091 7.39423 4.27091C7.68068 4.27091 7.91506 4.50203 7.91506 4.78849V9.21883C7.91506 9.65177 8.26337 10.0001 8.69631 10.0001C9.12925 10.0001 9.47756 9.65177 9.47756 9.21883V4.795Z" fill="white"/>
</svg>
