<svg width="14" height="14" viewBox="0 0 14 14" fill="none" xmlns="http://www.w3.org/2000/svg">
	<g clip-path="url(#clip0_1159_10366)">
	<path d="M11.547 7C11.547 6.77376 11.5301 6.55123 11.4969 6.3345C11.4773 6.20605 11.5349 6.07647 11.6478 6.01213L12.7362 5.392C12.8814 5.30928 12.931 5.12389 12.8465 4.97971L11.6951 3.01396C11.6121 2.87226 11.4306 2.82363 11.2879 2.90486L10.1866 3.5316C10.0761 3.59454 9.93839 3.58009 9.83849 3.50128C9.48476 3.22225 9.08805 2.99452 8.65871 2.82827C8.53838 2.78168 8.45548 2.66801 8.45548 2.53897V1.3C8.45548 1.13431 8.32117 1 8.15548 1H5.84452C5.67883 1 5.54452 1.13431 5.54452 1.3V2.53858C5.54452 2.66781 5.46138 2.78159 5.34084 2.82817C4.91254 2.99369 4.51525 3.22217 4.1615 3.50127C4.06161 3.58009 3.92394 3.59454 3.81335 3.5316L2.71215 2.90486C2.56942 2.82363 2.3879 2.87226 2.3049 3.01396L1.15346 4.97971C1.069 5.12389 1.11862 5.30928 1.26381 5.392L2.35358 6.0129C2.46584 6.07686 2.52355 6.20538 2.50411 6.33312C2.47097 6.55074 2.45297 6.77304 2.45297 7C2.45297 7.22624 2.46991 7.44877 2.50308 7.6655C2.52274 7.79396 2.46515 7.92353 2.35223 7.98787L1.26381 8.608C1.11862 8.69072 1.069 8.87611 1.15346 9.02029L2.3049 10.986C2.3879 11.1277 2.56942 11.1764 2.71215 11.0951L3.81335 10.4684C3.92394 10.4055 4.06161 10.4199 4.16151 10.4987C4.51524 10.7777 4.91194 11.0055 5.34129 11.1717C5.46162 11.2183 5.54452 11.332 5.54452 11.461V12.7C5.54452 12.8657 5.67883 13 5.84452 13H8.15548C8.32117 13 8.45548 12.8657 8.45548 12.7V11.4614C8.45548 11.3322 8.53862 11.2184 8.65916 11.1718C9.08746 11.0063 9.48475 10.7778 9.83849 10.4987C9.93839 10.4199 10.0761 10.4055 10.1866 10.4684L11.2879 11.0951C11.4306 11.1764 11.6121 11.1277 11.6951 10.986L12.8465 9.02029C12.931 8.87611 12.8814 8.69072 12.7362 8.608L11.6478 7.98787C11.5349 7.92353 11.4773 7.79396 11.4969 7.6655C11.5301 7.44877 11.547 7.22624 11.547 7Z" stroke="#262E30" stroke-width="0.5" stroke-miterlimit="10"/>
	<path d="M5.89738 9.46237L5.89736 9.4624L5.90053 9.46423C6.26562 9.67608 6.67351 9.78 7.118 9.78C7.48526 9.78 7.82382 9.71208 8.12898 9.57089C8.3862 9.45188 8.59949 9.29976 8.75615 9.1083C8.83775 9.00858 8.868 8.88955 8.868 8.78357V7.466C8.868 7.16224 8.62176 6.916 8.318 6.916H7.394C7.12338 6.916 6.904 7.13538 6.904 7.406C6.904 7.67662 7.12338 7.896 7.394 7.896H7.784C7.81161 7.896 7.834 7.91839 7.834 7.946V8.58254C7.834 8.58806 7.83331 8.59207 7.83269 8.59454C7.68373 8.71446 7.46664 8.788 7.154 8.788C6.87859 8.788 6.64715 8.72403 6.45122 8.60321C6.25385 8.4815 6.09908 8.31031 5.98659 8.08219C5.87381 7.84951 5.814 7.57608 5.814 7.256C5.814 6.93808 5.87051 6.6698 5.97594 6.44501C6.08631 6.21422 6.23336 6.04337 6.41497 5.92314C6.59921 5.80378 6.81094 5.742 7.058 5.742C7.27655 5.742 7.45575 5.78945 7.60403 5.87594L7.60402 5.87597L7.60743 5.87789C7.69471 5.92699 7.76652 5.98341 7.82503 6.04631C7.9761 6.20871 8.2601 6.3242 8.51769 6.17394C8.73178 6.04905 8.85894 5.74575 8.68079 5.4935C8.53735 5.2904 8.34863 5.12721 8.12019 5.00278C7.81096 4.83218 7.46268 4.75 7.082 4.75C6.65073 4.75 6.25211 4.85728 5.89178 5.07339C5.53443 5.28608 5.25359 5.58664 5.04955 5.96809L5.04955 5.96809L5.04905 5.96903C4.84739 6.34995 4.75 6.78113 4.75 7.256C4.75 7.73459 4.84726 8.17087 5.04795 8.55886L5.04792 8.55887L5.04955 8.56191C5.25387 8.94389 5.53681 9.24604 5.89738 9.46237Z" fill="#ACACAC" stroke="#262E30" stroke-width="0.5"/>
	</g>
	<defs>
	<clipPath id="clip0_1159_10366">
	<rect width="14" height="14" fill="white" transform="translate(0 14) rotate(-90)"/>
	</clipPath>
	</defs>
	</svg>
	