<svg xmlns="http://www.w3.org/2000/svg" viewBox="0 0 16 16"><path d="M8.5,12.5h-3a2,2,0,0,1-2-2v-1" style="fill:none;stroke:#009688;stroke-linecap:round;stroke-linejoin:round"/><path d="M8.5,2.5h3a2,2,0,0,1,2,2v1" style="fill:none;stroke:#009688;stroke-linecap:round;stroke-linejoin:round"/><line x1="1.5" y1="4.5" x2="5.5" y2="4.5" style="fill:none;stroke:#949494;stroke-linecap:round;stroke-linejoin:round"/><polyline points="1.5 6.5 1.5 1.5 2.5 0.5 4.5 0.5 5.5 1.5 5.5 6.5" style="fill:none;stroke:#949494;stroke-linecap:square;stroke-linejoin:round"/><line x1="11.5" y1="11.5" x2="14.5" y2="11.5" style="fill:none;stroke:#949494;stroke-linejoin:round"/><polygon points="14.5 11.5 15.5 10.5 15.5 9.5 14.5 8.5 11.5 8.5 11.5 14.5 14.5 14.5 15.5 13.5 15.5 12.5 14.5 11.5" style="fill:none;stroke:#949494;stroke-linecap:square;stroke-linejoin:round"/><polyline points="10.5 4.5 8.5 2.5 10.5 0.5" style="fill:none;stroke:#009688;stroke-linecap:round;stroke-linejoin:round"/><polyline points="6.5 14.5 8.5 12.5 6.5 10.5" style="fill:none;stroke:#009688;stroke-linecap:round;stroke-linejoin:round"/></svg>