<svg xmlns="http://www.w3.org/2000/svg" width="16" height="16" viewBox="0 0 16 16"><path d="M8.5,12.5h-3a2,2,0,0,1-2-2v-1" style="fill:none;stroke:#009688;stroke-linecap:round;stroke-linejoin:round"/><path d="M8.5,2.5h3a2,2,0,0,1,2,2v1" style="fill:none;stroke:#009688;stroke-linecap:round;stroke-linejoin:round"/><polyline points="10.5 4.5 8.5 2.5 10.5 0.5" style="fill:none;stroke:#009688;stroke-linecap:round;stroke-linejoin:round"/><polyline points="6.5 14.5 8.5 12.5 6.5 10.5" style="fill:none;stroke:#009688;stroke-linecap:round;stroke-linejoin:round"/><rect x="1" y="1" width="1" height="6" style="fill:#949494"/><rect x="11" y="8" width="1" height="7" style="fill:#949494"/><rect x="15" y="9" width="1" height="2" style="fill:#949494"/><rect x="15" y="12" width="1" height="2" style="fill:#949494"/><rect x="2" y="4" width="3" height="1" style="fill:#949494"/><rect x="12" y="11" width="3" height="1" style="fill:#949494"/><rect x="12" y="14" width="3" height="1" style="fill:#949494"/><rect x="12" y="8" width="3" height="1" style="fill:#949494"/><rect x="2" width="3" height="1" style="fill:#949494"/><rect x="5" y="1" width="1" height="6" style="fill:#949494"/></svg>