<svg xmlns="http://www.w3.org/2000/svg" viewBox="0 0 16 16"><path d="M14,11.5a1.5,1.5,0,0,1,0,3" style="fill:none;stroke:gray;stroke-linecap:round;stroke-linejoin:round"/><path d="M14,8.5a1.5,1.5,0,0,1,0,3" style="fill:none;stroke:gray;stroke-linecap:round;stroke-linejoin:round"/><line x1="1.5" y1="5.5" x2="1.5" y2="2.5" style="fill:none;stroke:gray;stroke-linecap:round;stroke-linejoin:round"/><line x1="5.5" y1="5.5" x2="5.5" y2="2.5" style="fill:none;stroke:gray;stroke-linecap:round;stroke-linejoin:round"/><line x1="1.5" y1="3.5" x2="5.5" y2="3.5" style="fill:none;stroke:gray;stroke-linecap:round;stroke-linejoin:round"/><line x1="11.5" y1="8.5" x2="11.5" y2="14.5" style="fill:none;stroke:gray;stroke-linecap:round;stroke-linejoin:round"/><line x1="11.5" y1="8.5" x2="14" y2="8.5" style="fill:none;stroke:gray;stroke-linejoin:round"/><line x1="11.5" y1="11.5" x2="14" y2="11.5" style="fill:none;stroke:gray;stroke-linejoin:round"/><line x1="11.5" y1="14.5" x2="14" y2="14.5" style="fill:none;stroke:gray;stroke-linejoin:round"/><path d="M8.5,12.5h-3a2,2,0,0,1-2-2v-2" style="fill:none;stroke:#009688;stroke-linecap:round;stroke-linejoin:round"/><path d="M8.5,2.5h3a2,2,0,0,1,2,2v1" style="fill:none;stroke:#009688;stroke-linecap:round;stroke-linejoin:round"/><path d="M1.5,2.5a2,2,0,0,1,4,0" style="fill:none;stroke:gray;stroke-miterlimit:10"/></svg>