<svg width="24" height="25" viewBox="0 0 24 25" fill="none" xmlns="http://www.w3.org/2000/svg">
<g clip-path="url(#clip0_13578_18912)">
<path d="M12 1.86133C14.7848 1.86133 17.4555 2.96757 19.4246 4.93671C21.3938 6.90584 22.5 9.57656 22.5 12.3613C22.5 15.1461 21.3938 17.8168 19.4246 19.7859C17.4555 21.7551 14.7848 22.8613 12 22.8613C9.21523 22.8613 6.54451 21.7551 4.57538 19.7859C2.60625 17.8168 1.5 15.1461 1.5 12.3613C1.5 9.57656 2.60625 6.90584 4.57538 4.93671C6.54451 2.96757 9.21523 1.86133 12 1.86133ZM12 24.3613C15.1826 24.3613 18.2348 23.097 20.4853 20.8466C22.7357 18.5962 24 15.5439 24 12.3613C24 9.17873 22.7357 6.12648 20.4853 3.87605C18.2348 1.62561 15.1826 0.361328 12 0.361328C8.8174 0.361328 5.76516 1.62561 3.51472 3.87605C1.26428 6.12648 0 9.17873 0 12.3613C0 15.5439 1.26428 18.5962 3.51472 20.8466C5.76516 23.097 8.8174 24.3613 12 24.3613ZM17.0297 9.89102C17.3203 9.60039 17.3203 9.12227 17.0297 8.83164C16.7391 8.54102 16.2609 8.54102 15.9703 8.83164L10.5 14.302L8.02969 11.8316C7.73906 11.541 7.26094 11.541 6.97031 11.8316C6.67969 12.1223 6.67969 12.6004 6.97031 12.891L9.97031 15.891C10.2609 16.1816 10.7391 16.1816 11.0297 15.891L17.0297 9.89102Z" fill="#eb4949"/>
</g>
<defs>
<clipPath id="clip0_13578_18912">
<rect width="24" height="24" fill="white" transform="translate(0 0.361328)"/>
</clipPath>
</defs>
</svg>
