<svg xmlns="http://www.w3.org/2000/svg" viewBox="0 0 16 16"><circle cx="7.5" cy="7.5" r="5" style="fill:none;stroke:#009688;stroke-linecap:square;stroke-linejoin:round"/><polyline points="9.5 6.5 6.5 8.5 5.5 7.5" style="fill:none;stroke:#009688;stroke-linecap:square;stroke-linejoin:round"/><polyline points="8.5 1.5 7.5 0.5 6.5 1.5" style="fill:none;stroke:#949494;stroke-linecap:round;stroke-linejoin:round"/><polyline points="6.5 13.5 7.5 14.5 8.5 13.5" style="fill:none;stroke:#949494;stroke-linecap:round;stroke-linejoin:round"/><polyline points="6.13 1.57 4.82 1.03 4.28 2.34" style="fill:none;stroke:#949494;stroke-linecap:round;stroke-linejoin:round"/><polyline points="8.87 13.43 10.18 13.97 10.72 12.66" style="fill:none;stroke:#949494;stroke-linecap:round;stroke-linejoin:round"/><polyline points="3.96 2.55 2.55 2.55 2.55 3.96" style="fill:none;stroke:#949494;stroke-linecap:round;stroke-linejoin:round"/><polyline points="11.04 12.45 12.45 12.45 12.45 11.04" style="fill:none;stroke:#949494;stroke-linecap:round;stroke-linejoin:round"/><polyline points="2.34 4.28 1.03 4.82 1.57 6.13" style="fill:none;stroke:#949494;stroke-linecap:round;stroke-linejoin:round"/><polyline points="12.66 10.72 13.97 10.18 13.43 8.87" style="fill:none;stroke:#949494;stroke-linecap:round;stroke-linejoin:round"/><polyline points="1.5 6.5 0.5 7.5 1.5 8.5" style="fill:none;stroke:#949494;stroke-linecap:round;stroke-linejoin:round"/><polyline points="13.5 8.5 14.5 7.5 13.5 6.5" style="fill:none;stroke:#949494;stroke-linecap:round;stroke-linejoin:round"/><polyline points="1.57 8.87 1.03 10.18 2.34 10.72" style="fill:none;stroke:#949494;stroke-linecap:round;stroke-linejoin:round"/><polyline points="13.43 6.13 13.97 4.82 12.66 4.28" style="fill:none;stroke:#949494;stroke-linecap:round;stroke-linejoin:round"/><polyline points="2.55 11.04 2.55 12.45 3.96 12.45" style="fill:none;stroke:#949494;stroke-linecap:round;stroke-linejoin:round"/><polyline points="12.45 3.96 12.45 2.55 11.04 2.55" style="fill:none;stroke:#949494;stroke-linecap:round;stroke-linejoin:round"/><polyline points="4.28 12.66 4.82 13.97 6.13 13.43" style="fill:none;stroke:#949494;stroke-linecap:round;stroke-linejoin:round"/><polyline points="10.72 2.34 10.18 1.03 8.87 1.57" style="fill:none;stroke:#949494;stroke-linecap:round;stroke-linejoin:round"/></svg>