<?xml version="1.0" encoding="UTF-8"?><svg id="a" xmlns="http://www.w3.org/2000/svg" viewBox="0 0 16 16"><path id="b" d="m8.54,4.31c-.53-.19-.81-.69-.73-1.32.08-.62.55-1.01,1.21-1.01.46,0,.82.21,1,.58.1.2.1.22.1.55,0,.43-.07.61-.31.87-.24.26-.46.35-.84.36-.21,0-.33,0-.43-.04Z" style="fill:#009688; isolation:isolate; opacity:1;"/><path id="c" d="m6.82,13.97c-.51-.14-.74-.4-.77-.86-.02-.28-.04-.15.57-3.12.22-1.07.44-2.13.48-2.34.13-.71.07-.77-.77-.81-.21-.01-.38-.03-.39-.04s0-.09.02-.18c.04-.18,0-.16.69-.31.62-.14,1.09-.19,1.63-.2.67,0,.9.07,1.13.36.09.11.09.13.09.41,0,.25-.06.57-.39,2.17-.78,3.74-.79,3.82-.68,3.99.03.04.08.1.12.13.12.08.47.14.8.14h.3s-.02.18-.02.18c-.01.1-.04.19-.05.2-.05.03-.88.2-1.24.26-.45.07-1.31.09-1.51.03h0Z" style="fill:#009688; isolation:isolate; opacity:1;"/><polyline points="14.5 3.5 14.5 1.5 12.5 1.5" style="fill:none; stroke:808080; stroke-linecap:round; stroke-miterlimit:10;"/><polyline points="3.5 1.5 1.5 1.5 1.5 3.5" style="fill:none; stroke:#808080; stroke-linecap:round; stroke-miterlimit:10;"/><polyline points="1.5 12.5 1.5 14.5 3.5 14.5" style="fill:none; stroke:#808080; stroke-linecap:round; stroke-miterlimit:10;"/><polyline points="12.5 14.5 14.5 14.5 14.5 12.5" style="fill:none; stroke:#808080; stroke-linecap:round; stroke-miterlimit:10;"/></svg>