<svg xmlns="http://www.w3.org/2000/svg" width="16" height="16" viewBox="0 0 16 16"><circle cx="7.5" cy="7.5" r="1.5" style="fill:#009688"/><path d="M6.5,2.5c2-1,4.5,1.5,2,4" style="fill:none;stroke:#009688;stroke-linecap:round;stroke-linejoin:round"/><path d="M8.5,12.5c-2,1-4.5-1.5-2-4" style="fill:none;stroke:#009688;stroke-linecap:round;stroke-linejoin:round"/><path d="M2.67,5.866c.134-2.232,3.549-3.147,4.464.268" style="fill:none;stroke:#009688;stroke-linecap:round;stroke-linejoin:round"/><path d="M12.33,9.134c-.134,2.232-3.549,3.147-4.464-.268" style="fill:none;stroke:#009688;stroke-linecap:round;stroke-linejoin:round"/><path d="M3.67,10.866C1.8,9.634,2.719,6.219,6.134,7.134" style="fill:none;stroke:#009688;stroke-linecap:round;stroke-linejoin:round"/><path d="M11.33,4.134c1.866,1.232.951,4.647-2.464,3.732" style="fill:none;stroke:#009688;stroke-linecap:round;stroke-linejoin:round"/><rect x="0.5" y="0.5" width="14" height="14" rx="1" style="fill:none;stroke:#949494;stroke-linecap:round;stroke-linejoin:round"/><circle cx="7.5" cy="7.5" r="7" style="fill:none;stroke:#949494;stroke-linecap:round;stroke-linejoin:round"/></svg>