<svg xmlns="http://www.w3.org/2000/svg" viewBox="0 0 16 16"><path d="M6.84,2.5c.27-1.16.69-2,1.16-2s.89.84,1.16,2" style="fill:none;stroke:#949494;stroke-linecap:round;stroke-linejoin:round"/><path d="M2.5,10.17a.67.67,0,0,1-.5.33c-.83,0-1.5-2.63-1.5-5S1.17.5,2,.5c.21,0,.4.16.58.45" style="fill:none;stroke:#949494;stroke-linecap:round;stroke-linejoin:round"/><path d="M4,10.5c-.83,0-1.5-2.63-1.5-5S3.17.5,4,.5" style="fill:none;stroke:#009688;stroke-linecap:round;stroke-linejoin:round"/><path d="M5.52,10.2a9.39,9.39,0,0,1-1-4.7c0-2.37.67-5,1.5-5" style="fill:none;stroke:#009688;stroke-linecap:round;stroke-linejoin:round"/><ellipse cx="13" cy="9.5" rx="1.5" ry="5" style="fill:none;stroke:#949494;stroke-linecap:round;stroke-linejoin:round"/><path d="M7.5,14.17a.67.67,0,0,1-.5.33c-.83,0-1.5-2.63-1.5-5s.67-5,1.5-5c.21,0,.4.16.58.45" style="fill:none;stroke:#949494;stroke-linecap:round;stroke-linejoin:round"/><path d="M11,14.5c-.83,0-1.5-2.63-1.5-5s.67-5,1.5-5" style="fill:none;stroke:#009688;stroke-linecap:round;stroke-linejoin:round"/><path d="M9,14.5c-.83,0-1.5-2.63-1.5-5s.67-5,1.5-5" style="fill:none;stroke:#009688;stroke-linecap:round;stroke-linejoin:round"/><path d="M3.5,11.5a3.19,3.19,0,0,1-3,3h5" style="fill:none;stroke:#009688;stroke-linecap:round;stroke-linejoin:round"/></svg>