<svg xmlns="http://www.w3.org/2000/svg" width="16" height="16" viewBox="0 0 16 16"><path d="M5.5,14.531c-1.105,0-2-3.686-2-7s.895-7,2-7" style="fill:none;stroke:#009688;stroke-linecap:round;stroke-linejoin:round"/><path d="M9.5,14.531c-1.105,0-2-3.686-2-7s.895-7,2-7" style="fill:none;stroke:#009688;stroke-linecap:round;stroke-linejoin:round"/><path d="M7.5,14.531c-1.105,0-2-3.686-2-7s.895-7,2-7" style="fill:none;stroke:#009688;stroke-linecap:round;stroke-linejoin:round"/><path d="M3.5,13.728c-.294.511-.636.8-1,.8-1.1,0-2-3.686-2-7s.9-7,2-7c.365,0,.707.293,1,.805" style="fill:none;stroke:#949494;stroke-linecap:round;stroke-linejoin:round"/><ellipse cx="12.5" cy="7.531" rx="2" ry="7" style="fill:none;stroke:#949494;stroke-linecap:round;stroke-linejoin:round"/></svg>