<?xml version="1.0" encoding="UTF-8"?><svg id="a" xmlns="http://www.w3.org/2000/svg" width="16" height="16" viewBox="0 0 16 16"><path d="M2.21,8.77c1.38.44,3.46.73,5.79.73,4.14,0,7.5-.9,7.5-2s-3.36-2-7.5-2S.5,6.4.5,7.5c0,.48.64.93,1.71,1.27" style="fill:none; stroke:#949494; stroke-linecap:round; stroke-linejoin:round; stroke-width:.8px;"/><circle cx="1.5" cy="7.5" r="1" style="fill:#009688; stroke:#009688; stroke-linecap:round; stroke-linejoin:round;"/><path d="M12,11.88c-.3-1.41-1.1-3.36-2.26-5.38C7.66,2.91,5.21.45,4.25,1c-.96.55-.05,3.91,2.02,7.5s4.53,6.05,5.48,5.5c.42-.24.48-1.02.25-2.12" style="fill:none; stroke:#949494; stroke-linecap:round; stroke-linejoin:round; stroke-width:.8px;"/><circle cx="11.25" cy="13.13" r="1" style="fill:#009688; stroke:#009688; stroke-linecap:round; stroke-linejoin:round;"/><path d="M9.79,1.85c-1.07.97-2.36,2.63-3.52,4.65-2.07,3.59-2.97,6.94-2.02,7.5.95.56,3.41-1.91,5.48-5.5s2.97-6.94,2.02-7.5c-.42-.24-1.12.09-1.96.85" style="fill:none; stroke:#949494; stroke-linecap:round; stroke-linejoin:round; stroke-width:.8px;"/><circle cx="11.25" cy="1.87" r="1" style="fill:#009688; stroke:#009688; stroke-linecap:round; stroke-linejoin:round;"/></svg>