<svg xmlns="http://www.w3.org/2000/svg" width="16" height="16" viewBox="0 0 16 16"><path d="M6.839,2.5C7.114,1.341,7.532.5,8,.5s.886.841,1.161,2" style="fill:none;stroke:#949494;stroke-linecap:round;stroke-linejoin:round"/><path d="M2.5,10.173A.67.67,0,0,1,2,10.5c-.828,0-1.5-2.633-1.5-5S1.172.5,2,.5c.207,0,.4.165.584.448" style="fill:none;stroke:#949494;stroke-linecap:round;stroke-linejoin:round"/><path d="M4,10.5c-.828,0-1.5-2.633-1.5-5S3.172.5,4,.5" style="fill:none;stroke:#009688;stroke-linecap:round;stroke-linejoin:round"/><path d="M4.649,3.5C4.891,1.858,5.405.5,6,.5" style="fill:none;stroke:#009688;stroke-linecap:round;stroke-linejoin:round"/><ellipse cx="13" cy="9.5" rx="1.5" ry="5" style="fill:none;stroke:#949494;stroke-linecap:round;stroke-linejoin:round"/><path d="M7.5,14.173A.67.67,0,0,1,7,14.5c-.828,0-1.5-2.633-1.5-5s.672-5,1.5-5c.207,0,.4.165.584.448" style="fill:none;stroke:#949494;stroke-linecap:round;stroke-linejoin:round"/><path d="M11,14.5c-.828,0-1.5-2.633-1.5-5s.672-5,1.5-5" style="fill:none;stroke:#009688;stroke-linecap:round;stroke-linejoin:round"/><path d="M9,14.5c-.828,0-1.5-2.633-1.5-5s.672-5,1.5-5" style="fill:none;stroke:#009688;stroke-linecap:round;stroke-linejoin:round"/><path d="M3.5,11.5a3.193,3.193,0,0,1-3,3h5" style="fill:none;stroke:#009688;stroke-linecap:round;stroke-linejoin:round"/></svg>