<svg xmlns="http://www.w3.org/2000/svg" width="16" height="16" viewBox="0 0 16 16"><path d="M10.2,13.8A20.875,20.875,0,0,1,6.376,8.5C4.305,4.673,3.353,1.124,4.25.572" style="fill:none;stroke:#949494;stroke-linecap:round;stroke-linejoin:round"/><path d="M1.781,6.381A18.541,18.541,0,0,1,8,5.5c4.142,0,7.5.9,7.5,2" style="fill:none;stroke:#949494;stroke-linecap:round;stroke-linejoin:round"/><path d="M12.017,2.314A21.814,21.814,0,0,1,9.624,8.5c-2.071,3.826-4.477,6.48-5.374,5.927" style="fill:none;stroke:#949494;stroke-linecap:round;stroke-linejoin:round"/><path d="M15.5,7.5c0,1.1-3.358,2-7.5,2S.5,8.6.5,7.5c0-.414.472-.8,1.281-1.118" style="fill:none;stroke:#009688;stroke-linecap:round;stroke-linejoin:round"/><path d="M4.25,14.426c-.9-.552.055-4.1,2.126-7.927S10.853.02,11.75.572c.336.207.413.835.267,1.742" style="fill:none;stroke:#009688;stroke-linecap:round;stroke-linejoin:round"/><path d="M4.25.572c.9-.552,3.3,2.1,5.374,5.927s3.023,7.375,2.126,7.927c-.336.207-.885-.036-1.548-.624" style="fill:none;stroke:#009688;stroke-linecap:round;stroke-linejoin:round"/><circle cx="12" cy="2.804" r="1" style="fill:#009688;stroke:#009688;stroke-linecap:round;stroke-linejoin:round"/><circle cx="9.6" cy="13.196" r="1" style="fill:#009688;stroke:#009688;stroke-linecap:round;stroke-linejoin:round"/><circle cx="2.5" cy="6.499" r="1" style="fill:#009688;stroke:#009688;stroke-linecap:round;stroke-linejoin:round"/></svg>