<?xml version="1.0" encoding="UTF-8"?><svg id="a" xmlns="http://www.w3.org/2000/svg" viewBox="0 0 16 16"><g id="b">
  <path d="m13.77,6.39c-.13-.47-.32-.92-.55-1.33l.43-1.3-1.41-1.41-1.3.43c-.42-.23-.86-.42-1.33-.55l-.61-1.23h-2l-.61,1.23c-.47.13-.92.31-1.33.55l-1.3-.43-1.42,1.41.43,1.3c-.23.41-.41.86-.54,1.33l-1.23.61v2l1.23.61c.13.47.32.92.55,1.33l-.43,1.3,1.41,1.41,1.3-.43c.42.23.86.42,1.33.55l.61,1.23h2l.61-1.23c.47-.13.92-.32,1.33-.55l1.3.43,1.41-1.41-.43-1.3c.23-.42.42-.86.55-1.33l1.23-.61v-2l-1.23-.61Zm-5.77,6.61c-2.76,0-5-2.24-5-5s2.24-5,5-5,5,2.24,5,5-2.24,5-5,5Z" style="fill:#808080"/>
</g><circle cx="8" cy="8" r="2" style="fill:#009688; isolation:isolate; opacity:1;"/></svg>