<svg xmlns="http://www.w3.org/2000/svg" viewBox="0 0 16 16"><line x1="6.5" y1="2.5" x2="12.5" y2="2.5" style="fill:none;stroke:#009688;stroke-linecap:square;stroke-linejoin:round"/><rect x="0.5" y="0.5" width="14" height="14" rx="1" style="fill:none;stroke:gray;stroke-linecap:round;stroke-linejoin:round"/><path d="M4,3V4H3V3H4M4,2H3A1,1,0,0,0,2,3V4A1,1,0,0,0,3,5H4A1,1,0,0,0,5,4V3A1,1,0,0,0,4,2Z" style="fill:#009688"/><line x1="6.5" y1="6.5" x2="12.5" y2="6.5" style="fill:none;stroke:#009688;stroke-linecap:square;stroke-linejoin:round"/><line x1="6.5" y1="8.5" x2="8.5" y2="8.5" style="fill:none;stroke:#009688;stroke-linecap:square;stroke-linejoin:round"/><line x1="6.5" y1="12.5" x2="8.5" y2="12.5" style="fill:none;stroke:#009688;stroke-linecap:square;stroke-linejoin:round"/><line x1="6.5" y1="4.5" x2="8.5" y2="4.5" style="fill:none;stroke:#009688;stroke-linecap:square;stroke-linejoin:round"/><path d="M4,7V8H3V7H4M4,6H3A1,1,0,0,0,2,7V8A1,1,0,0,0,3,9H4A1,1,0,0,0,5,8V7A1,1,0,0,0,4,6Z" style="fill:#009688"/><line x1="6.5" y1="10.5" x2="12.5" y2="10.5" style="fill:none;stroke:#009688;stroke-linecap:square;stroke-linejoin:round"/><path d="M4,11v1H3V11H4m0-1H3a1,1,0,0,0-1,1v1a1,1,0,0,0,1,1H4a1,1,0,0,0,1-1V11a1,1,0,0,0-1-1Z" style="fill:#009688"/></svg>