<svg xmlns="http://www.w3.org/2000/svg" width="16" height="16" viewBox="0 0 16 16"><rect x="4.5" y="4.5" width="6" height="6" rx="1" style="fill:none;stroke:#949494;stroke-linecap:round;stroke-linejoin:round"/><path d="M2.5,5.5v-2a1,1,0,0,1,1-1h2" style="fill:none;stroke:#009688;stroke-linecap:square;stroke-linejoin:round"/><path d="M.5,3.5v-2a1,1,0,0,1,1-1h2" style="fill:none;stroke:#009688;stroke-linecap:square;stroke-linejoin:round"/><path d="M14.5,11.5v2a1,1,0,0,1-1,1h-2" style="fill:none;stroke:#009688;stroke-linecap:square;stroke-linejoin:round"/><path d="M12.5,9.5v2a1,1,0,0,1-1,1h-2" style="fill:none;stroke:#009688;stroke-linecap:square;stroke-linejoin:round"/><line x1="4.5" y1="7.5" x2="0.5" y2="7.5" style="fill:none;stroke:#949494;stroke-linecap:square;stroke-linejoin:round"/><line x1="10.5" y1="7.5" x2="14.5" y2="7.5" style="fill:none;stroke:#949494;stroke-linecap:square;stroke-linejoin:round"/><path d="M.5,10.5v2a2,2,0,0,0,2,2h5" style="fill:none;stroke:#949494;stroke-linecap:square;stroke-linejoin:round"/><path d="M14.5,4.5v-2a2,2,0,0,0-2-2h-5" style="fill:none;stroke:#949494;stroke-linecap:square;stroke-linejoin:round"/></svg>