<svg xmlns="http://www.w3.org/2000/svg" viewBox="0 0 16 16"><circle cx="7.5" cy="7.5" r="4" style="fill:none;stroke:#009688;stroke-linecap:square;stroke-linejoin:round"/><line x1="5.5" y1="7.5" x2="6.5" y2="8.5" style="fill:none;stroke:#009688;stroke-linecap:square;stroke-linejoin:round"/><line x1="9.5" y1="6.5" x2="6.5" y2="8.5" style="fill:none;stroke:#009688;stroke-linecap:square;stroke-linejoin:round"/><line x1="7.5" y1="0.5" x2="6.5" y2="1.5" style="fill:none;stroke:#949494;stroke-linecap:round;stroke-linejoin:round"/><line x1="8.5" y1="1.5" x2="7.5" y2="0.5" style="fill:none;stroke:#949494;stroke-linecap:round;stroke-linejoin:round"/><line x1="7.5" y1="14.5" x2="8.5" y2="13.5" style="fill:none;stroke:#949494;stroke-linecap:round;stroke-linejoin:round"/><line x1="6.5" y1="13.5" x2="7.5" y2="14.5" style="fill:none;stroke:#949494;stroke-linecap:round;stroke-linejoin:round"/><line x1="4.82" y1="1.03" x2="4.28" y2="2.34" style="fill:none;stroke:#949494;stroke-linecap:round;stroke-linejoin:round"/><line x1="6.13" y1="1.57" x2="4.82" y2="1.03" style="fill:none;stroke:#949494;stroke-linecap:round;stroke-linejoin:round"/><line x1="10.18" y1="13.97" x2="10.72" y2="12.66" style="fill:none;stroke:#949494;stroke-linecap:round;stroke-linejoin:round"/><line x1="8.87" y1="13.43" x2="10.18" y2="13.97" style="fill:none;stroke:#949494;stroke-linecap:round;stroke-linejoin:round"/><line x1="2.55" y1="2.55" x2="2.55" y2="3.96" style="fill:none;stroke:#949494;stroke-linecap:round;stroke-linejoin:round"/><line x1="3.96" y1="2.55" x2="2.55" y2="2.55" style="fill:none;stroke:#949494;stroke-linecap:round;stroke-linejoin:round"/><line x1="12.45" y1="12.45" x2="12.45" y2="11.04" style="fill:none;stroke:#949494;stroke-linecap:round;stroke-linejoin:round"/><line x1="11.04" y1="12.45" x2="12.45" y2="12.45" style="fill:none;stroke:#949494;stroke-linecap:round;stroke-linejoin:round"/><line x1="1.03" y1="4.82" x2="1.57" y2="6.13" style="fill:none;stroke:#949494;stroke-linecap:round;stroke-linejoin:round"/><line x1="2.34" y1="4.28" x2="1.03" y2="4.82" style="fill:none;stroke:#949494;stroke-linecap:round;stroke-linejoin:round"/><line x1="13.97" y1="10.18" x2="13.43" y2="8.87" style="fill:none;stroke:#949494;stroke-linecap:round;stroke-linejoin:round"/><line x1="12.66" y1="10.72" x2="13.97" y2="10.18" style="fill:none;stroke:#949494;stroke-linecap:round;stroke-linejoin:round"/><line x1="0.5" y1="7.5" x2="1.5" y2="8.5" style="fill:none;stroke:#949494;stroke-linecap:round;stroke-linejoin:round"/><line x1="1.5" y1="6.5" x2="0.5" y2="7.5" style="fill:none;stroke:#949494;stroke-linecap:round;stroke-linejoin:round"/><line x1="14.5" y1="7.5" x2="13.5" y2="6.5" style="fill:none;stroke:#949494;stroke-linecap:round;stroke-linejoin:round"/><line x1="13.5" y1="8.5" x2="14.5" y2="7.5" style="fill:none;stroke:#949494;stroke-linecap:round;stroke-linejoin:round"/><line x1="1.03" y1="10.18" x2="2.34" y2="10.72" style="fill:none;stroke:#949494;stroke-linecap:round;stroke-linejoin:round"/><line x1="1.57" y1="8.87" x2="1.03" y2="10.18" style="fill:none;stroke:#949494;stroke-linecap:round;stroke-linejoin:round"/><line x1="13.97" y1="4.82" x2="12.66" y2="4.28" style="fill:none;stroke:#949494;stroke-linecap:round;stroke-linejoin:round"/><line x1="13.43" y1="6.13" x2="13.97" y2="4.82" style="fill:none;stroke:#949494;stroke-linecap:round;stroke-linejoin:round"/><line x1="2.55" y1="12.45" x2="3.96" y2="12.45" style="fill:none;stroke:#949494;stroke-linecap:round;stroke-linejoin:round"/><line x1="2.55" y1="11.04" x2="2.55" y2="12.45" style="fill:none;stroke:#949494;stroke-linecap:round;stroke-linejoin:round"/><line x1="12.45" y1="2.55" x2="11.04" y2="2.55" style="fill:none;stroke:#949494;stroke-linecap:round;stroke-linejoin:round"/><line x1="12.45" y1="3.96" x2="12.45" y2="2.55" style="fill:none;stroke:#949494;stroke-linecap:round;stroke-linejoin:round"/><line x1="4.82" y1="13.97" x2="6.13" y2="13.43" style="fill:none;stroke:#949494;stroke-linecap:round;stroke-linejoin:round"/><line x1="4.28" y1="12.66" x2="4.82" y2="13.97" style="fill:none;stroke:#949494;stroke-linecap:round;stroke-linejoin:round"/><line x1="10.18" y1="1.03" x2="8.87" y2="1.57" style="fill:none;stroke:#949494;stroke-linecap:round;stroke-linejoin:round"/><line x1="10.72" y1="2.34" x2="10.18" y2="1.03" style="fill:none;stroke:#949494;stroke-linecap:round;stroke-linejoin:round"/></svg>