<svg width="14" height="14" viewBox="0 0 14 14" fill="none" xmlns="http://www.w3.org/2000/svg">
<g clip-path="url(#clip0_8076_36010)">
<path fill-rule="evenodd" clip-rule="evenodd" d="M4.69269 2.49023C4.69269 1.29516 5.66149 0.326355 6.85657 0.326355C8.05165 0.326355 9.02044 1.29516 9.02044 2.49023V6.92898C9.96736 7.60117 10.5871 8.70725 10.5871 9.95952C10.5871 12.0108 8.92419 13.6737 6.87289 13.6737C4.8216 13.6737 3.15869 12.0108 3.15869 9.95952C3.15869 8.72168 3.76428 7.62665 4.69269 6.95241V2.49023ZM5.69269 7.51465V2.49023C5.69269 1.84744 6.21378 1.32635 6.85657 1.32635C7.49936 1.32635 8.02044 1.84744 8.02044 2.49023V7.49913C8.94588 7.9315 9.58709 8.87063 9.58709 9.95952C9.58709 11.4585 8.3719 12.6737 6.87289 12.6737C5.37388 12.6737 4.15869 11.4585 4.15869 9.95952C4.15869 8.88348 4.78486 7.95369 5.69269 7.51465Z" fill="#009688"/>
<path fill-rule="evenodd" clip-rule="evenodd" d="M10.186 2.49249C10.186 2.21635 10.4099 1.99249 10.686 1.99249H11.8258C12.1019 1.99249 12.3258 2.21635 12.3258 2.49249C12.3258 2.76863 12.1019 2.99249 11.8258 2.99249H10.686C10.4099 2.99249 10.186 2.76863 10.186 2.49249Z" fill="#009688"/>
<path fill-rule="evenodd" clip-rule="evenodd" d="M10.186 4.83203C10.186 4.55589 10.4099 4.33203 10.686 4.33203H11.8258C12.1019 4.33203 12.3258 4.55589 12.3258 4.83203C12.3258 5.10817 12.1019 5.33203 11.8258 5.33203H10.686C10.4099 5.33203 10.186 5.10817 10.186 4.83203Z" fill="#009688"/>
<path fill-rule="evenodd" clip-rule="evenodd" d="M6.87305 2.49249C7.14919 2.49249 7.37305 2.71635 7.37305 2.99249V9.22844C7.37305 9.50458 7.14919 9.72844 6.87305 9.72844C6.5969 9.72844 6.37305 9.50458 6.37305 9.22844L6.37305 2.99249C6.37305 2.71635 6.5969 2.49249 6.87305 2.49249Z" fill="#009688"/>
<path d="M8.24858 9.90249C8.24858 10.6622 7.63274 11.278 6.87307 11.278C6.1134 11.278 5.49756 10.6622 5.49756 9.90249C5.49756 9.14281 6.1134 8.52698 6.87307 8.52698C7.63274 8.52698 8.24858 9.14281 8.24858 9.90249Z" fill="#009688"/>
</g>
<defs>
<clipPath id="clip0_8076_36010">
<rect width="14" height="14" fill="white" transform="translate(0 14) rotate(-90)"/>
</clipPath>
</defs>
</svg>
