<svg xmlns="http://www.w3.org/2000/svg" width="16" height="16" viewBox="0 0 16 16"><circle cx="7.5" cy="7.5" r="5" style="fill:none;stroke:#009688;stroke-linecap:square;stroke-linejoin:round"/><polyline points="9.5 6.5 6.5 8.5 5.5 7.5" style="fill:none;stroke:#009688;stroke-linecap:square;stroke-linejoin:round"/><polyline points="8.5 1.5 7.5 0.5 6.5 1.5" style="fill:none;stroke:#949494;stroke-linecap:round;stroke-linejoin:round"/><polyline points="6.5 13.5 7.5 14.5 8.5 13.5" style="fill:none;stroke:#949494;stroke-linecap:round;stroke-linejoin:round"/><polyline points="6.128 1.574 4.821 1.033 4.28 2.339" style="fill:none;stroke:#949494;stroke-linecap:round;stroke-linejoin:round"/><polyline points="8.872 13.426 10.179 13.967 10.72 12.661" style="fill:none;stroke:#949494;stroke-linecap:round;stroke-linejoin:round"/><polyline points="3.964 2.55 2.55 2.55 2.55 3.964" style="fill:none;stroke:#949494;stroke-linecap:round;stroke-linejoin:round"/><polyline points="11.036 12.45 12.45 12.45 12.45 11.036" style="fill:none;stroke:#949494;stroke-linecap:round;stroke-linejoin:round"/><polyline points="2.339 4.28 1.033 4.821 1.574 6.128" style="fill:none;stroke:#949494;stroke-linecap:round;stroke-linejoin:round"/><polyline points="12.661 10.72 13.967 10.179 13.426 8.872" style="fill:none;stroke:#949494;stroke-linecap:round;stroke-linejoin:round"/><polyline points="1.5 6.5 0.5 7.5 1.5 8.5" style="fill:none;stroke:#949494;stroke-linecap:round;stroke-linejoin:round"/><polyline points="13.5 8.5 14.5 7.5 13.5 6.5" style="fill:none;stroke:#949494;stroke-linecap:round;stroke-linejoin:round"/><polyline points="1.574 8.872 1.033 10.179 2.339 10.72" style="fill:none;stroke:#949494;stroke-linecap:round;stroke-linejoin:round"/><polyline points="13.426 6.128 13.967 4.821 12.661 4.28" style="fill:none;stroke:#949494;stroke-linecap:round;stroke-linejoin:round"/><polyline points="2.55 11.036 2.55 12.45 3.964 12.45" style="fill:none;stroke:#949494;stroke-linecap:round;stroke-linejoin:round"/><polyline points="12.45 3.964 12.45 2.55 11.036 2.55" style="fill:none;stroke:#949494;stroke-linecap:round;stroke-linejoin:round"/><polyline points="4.28 12.661 4.821 13.967 6.128 13.426" style="fill:none;stroke:#949494;stroke-linecap:round;stroke-linejoin:round"/><polyline points="10.72 2.339 10.179 1.033 8.872 1.574" style="fill:none;stroke:#949494;stroke-linecap:round;stroke-linejoin:round"/></svg>