<svg xmlns="http://www.w3.org/2000/svg" width="16" height="16" viewBox="0 0 16 16"><line x1="6.5" y1="3.5" x2="6.5" y2="8.5" style="fill:none;stroke:#949494;stroke-linecap:round;stroke-linejoin:round"/><line x1="10.5" y1="3.5" x2="10.5" y2="8.5" style="fill:none;stroke:#949494;stroke-linecap:round;stroke-linejoin:round"/><line x1="6.5" y1="11.5" x2="6.5" y2="14.5" style="fill:none;stroke:#949494;stroke-linecap:square;stroke-linejoin:round"/><line x1="7.5" y1="14.5" x2="8.5" y2="14.5" style="fill:none;stroke:#009688;stroke-linecap:square;stroke-linejoin:round"/><line x1="7.5" y1="12.5" x2="8.5" y2="12.5" style="fill:none;stroke:#009688;stroke-linecap:square;stroke-linejoin:round"/><line x1="7.5" y1="7.5" x2="8.5" y2="7.5" style="fill:none;stroke:#009688;stroke-linecap:square;stroke-linejoin:round"/><line x1="7.5" y1="5.5" x2="8.5" y2="5.5" style="fill:none;stroke:#009688;stroke-linecap:square;stroke-linejoin:round"/><circle cx="3" cy="6" r="1.5" style="fill:none;stroke:#009688;stroke-linecap:round;stroke-linejoin:round"/><polyline points="9.5 14.5 10.5 14.5 10.5 11.5" style="fill:none;stroke:#949494;stroke-linecap:square;stroke-linejoin:round"/><polygon points="0.5 8.5 0.5 9.5 5.5 11.5 11.5 11.5 11.5 9.5 14.5 9.5 11.5 8.5 0.5 8.5" style="fill:none;stroke:#949494;stroke-linecap:round;stroke-linejoin:round"/><polygon points="0.5 3.5 0.5 2.5 5.5 0.5 11.5 0.5 11.5 2.5 14.5 2.5 11.5 3.5 0.5 3.5" style="fill:none;stroke:#949494;stroke-linecap:round;stroke-linejoin:round"/></svg>