<svg xmlns="http://www.w3.org/2000/svg" viewBox="0 0 16 16"><path d="M10.2,13.8A20.92,20.92,0,0,1,6.38,8.5C4.31,4.67,3.35,1.12,4.25.57" style="fill:none;stroke:#949494;stroke-linecap:round;stroke-linejoin:round"/><path d="M1.78,6.38A18.61,18.61,0,0,1,8,5.5c4.14,0,7.5.89,7.5,2" style="fill:none;stroke:#949494;stroke-linecap:round;stroke-linejoin:round"/><path d="M12,2.31A21.65,21.65,0,0,1,9.62,8.5C7.55,12.32,5.15,15,4.25,14.43" style="fill:none;stroke:#949494;stroke-linecap:round;stroke-linejoin:round"/><path d="M15.5,7.5c0,1.1-3.36,2-7.5,2S.5,8.6.5,7.5c0-.42.47-.8,1.28-1.12" style="fill:none;stroke:#009688;stroke-linecap:round;stroke-linejoin:round"/><path d="M4.25,14.43c-.9-.56.06-4.1,2.13-7.93S10.85,0,11.75.57c.34.21.41.84.27,1.74" style="fill:none;stroke:#009688;stroke-linecap:round;stroke-linejoin:round"/><path d="M4.25.57c.9-.55,3.3,2.1,5.37,5.93s3,7.37,2.13,7.93c-.34.2-.88,0-1.55-.63" style="fill:none;stroke:#009688;stroke-linecap:round;stroke-linejoin:round"/><circle cx="12" cy="2.8" r="1" style="fill:#009688;stroke:#009688;stroke-linecap:round;stroke-linejoin:round"/><circle cx="9.6" cy="13.2" r="1" style="fill:#009688;stroke:#009688;stroke-linecap:round;stroke-linejoin:round"/><circle cx="2.5" cy="6.5" r="1" style="fill:#009688;stroke:#009688;stroke-linecap:round;stroke-linejoin:round"/></svg>