<svg width="98" height="203" viewBox="0 0 98 203" fill="none" xmlns="http://www.w3.org/2000/svg">
<g clip-path="url(#clip0_14518_105201)">
<path d="M30.8984 25.6998C30.9984 25.6998 31.1984 25.7998 31.6984 25.8998C32.2984 25.9998 32.7984 25.9998 34.1984 26.0998C34.5984 26.0998 35.3984 26.0998 36.2984 25.7998C36.1984 25.6998 36.0984 25.5998 36.0984 25.4998C36.0984 25.3998 35.9984 25.2998 35.9984 25.1998C36.1984 21.5998 36.1984 19.0998 36.2984 16.6998C36.3984 14.4998 36.3984 12.0998 36.4984 8.7998C36.2984 8.7998 36.0984 8.8998 35.8984 8.8998C35.4984 8.9998 34.9984 8.9998 34.4984 8.9998C34.1984 8.9998 33.3984 8.9998 32.5984 8.8998L31.6984 25.1998C31.6984 25.3998 31.4984 25.5998 31.2984 25.5998C31.1984 25.5998 31.1984 25.5998 31.0984 25.5998C30.9984 25.6998 30.9984 25.6998 30.8984 25.6998Z" fill="#FBFBFB"/>
<path d="M60.5 202.9C60.2 202.9 59.9 202.9 59.5 202.9C58.2 202.8 57.3 202.6 56.9 202.3L53 199.2C52.6 198.9 52.5 198.5 52.5 198.2V194.1L51.5 194C51.2 194 51.1 193.9 50.7 193.8L45.7 191.6C45.7 191.6 45.5 191.5 45.4 191.5C45.3 191.5 45.3 191.4 45.2 191.3L44.7 190.8C44.3 190.4 44.1 190 44.1 189.5V170V169.8C40.1 169.6 36.5 169.9 31.8 170.4H31.5C30.3 170.5 29 170.6 27.7 170.2C27.6 170.2 27.5 170.1 27.5 170.1L26.1 169.6C26 169.6 25.9 169.5 25.8 169.5L19.9 166.9C17.7 165.9 16.3 163.9 15.9 161.2C15.8 160.3 15.8 159.3 15.8 158.4V157.8L15.7 110.4L14.8 110C14.4 109.8 14.2 109.5 14.3 109.1V93.1997C14.2 92.8997 14.3 92.6997 14.4 92.5997C14.4 92.4997 14.5 92.3997 14.6 92.3997C14.7 92.2997 14.8 92.1997 14.9 92.1997C14.9 92.1997 15 92.1997 15 92.0997V91.7997L14 92.0997V94.0997L14.1 131.2C14.1 132.4 14 136.1 12.2 138.2C11.7 138.8 11.1 139.2 10.4 139.2L5.4 139.7C5.2 139.7 5.1 139.7 4.9 139.7C4.8 139.7 4.7 139.6 4.6 139.6L4.5 139.5C4.1 139.3 3.7 139.1 3.3 138.7L3.1 138.5C1.8 137.2 1.1 135.3 0.8 133.8C0.4 132.2 0.2 130.6 0.2 128.8L0 77.0997C0.1 76.1997 0.2 75.3997 0.5 74.5997C0.7 73.9997 1.1 72.9997 1.6 72.2997C2 71.5997 2.7 70.8997 3.3 70.3997C4 69.7997 4.7 69.3997 5.6 69.0997H5.8C6 68.9997 6.4 68.8997 6.5 68.8997L7.3 68.7997L11.2 68.3997C11.3 68.3997 11.5 68.2997 11.7 68.3997C11.8 68.3997 11.9 68.3997 12.8 68.7997L13.4 68.9997L14.1 68.8997L14.8 68.7997V58.3997C14.8 58.2997 14.8 58.1997 14.8 58.0997C14.2 57.7997 14.1 57.4997 14.1 57.1997V37.7997C14.1 36.9997 14.1 36.0997 14.2 35.1997C14.5 32.6997 15.7 30.5997 17.6 29.2997C18.6 28.5997 19.6 28.1997 20.9 27.9997C21.5 27.8997 22.8 27.7997 23.6 27.6997H24.1C24.6 27.6997 25 27.5997 25.4 27.5997C26.2 27.4997 27.1 27.3997 28.6 27.2997L38.8 26.3997C40.1 26.2997 40.8 26.1997 41.4 26.1997C42 26.0997 42.7 26.0997 44 25.9997L80.3 22.6997C81.8 22.5997 83.3 22.3997 85 23.0997L92.2 25.8997C92.8 26.0997 93.8 26.5997 94 26.6997C95.4 27.3997 96.5 28.6997 97.1 30.1997C97.7 31.6997 97.7 33.1997 97.7 34.6997C97.7 49.7997 97.7 64.7997 97.7 79.8997V155.2C97.7 156.4 97.6 157.5 97.3 158.7C97 159.9 96.4 161 95.6 161.9C94.8 162.9 93.8 163.6 92.7 164.1C92.1 164.4 91.5 164.5 91 164.6L90.8 164.7C90.4 164.8 90.1 164.8 89.7 164.8L89 164.9C86.7 165.1 83 165.5 80.9 166.2C80.9 166.2 80.9 166.2 80.9 166.3L80.7 166.5C80.6 166.6 80.5 166.8 80.3 166.9C80.2 167 80.1 167.2 79.9 167.3C79.9 167.3 79.8 167.5 79.7 167.6C79.5 168.6 78.1 168.9 77.9 169C77.7 169 77.4 169.1 77.2 169.1L79.1 169.9L79 170.3C79 170.3 79 170.3 79.1 170.3L79.2 170C79.5 170.1 79.7 170.4 79.7 170.7V170.9V190.5C79.7 190.6 79.7 191 79.4 191.2L79 191.6C78.4 192.2 77 192.6 74.8 192.8L68.6 193.4V198.4V198.5C68.6 198.7 68.4 199 68.2 199.1L68.1 199.2L64.1 202.4C64 202.5 63.9 202.5 63.8 202.6C63.6 202.7 63.4 202.8 63 202.8L62.1 202.9C61.5 202.9 61 202.9 60.5 202.9Z" fill="#FBFBFB"/>
<path d="M37 8.09961L36.9 8.19961C36.8 8.19961 36.7 8.29961 36.6 8.29961C36.4 8.29961 36.2 8.39961 35.9 8.39961C35.5 8.39961 35 8.49961 34.5 8.49961C33.7 8.49961 32.5 8.49961 31.7 8.29961C31.5 8.29961 31.4 8.19961 31.3 8.19961C31.1 8.19961 31 8.09961 31 7.99961C31 7.99961 31.1 7.89961 31.2 7.89961C31.3 7.89961 31.5 7.79961 31.6 7.79961C31.9 7.79961 32.1 7.69961 32.4 7.69961C32.9 7.69961 33.5 7.59961 34.1 7.59961C34.6 7.59961 35.2 7.59961 35.8 7.69961C36.1 7.69961 36.3 7.79961 36.6 7.79961C36.7 7.79961 36.9 7.89961 37 7.89961C36.9 7.99961 37 7.99961 37 8.09961ZM37 8.09961C36.7 15.3996 36.8 17.7996 36.5 25.0996" stroke="#595757" stroke-width="1.5" stroke-linecap="round" stroke-linejoin="round"/>
<path d="M31.2031 25.1L32.2031 8" stroke="#595757" stroke-width="1.5" stroke-linecap="round" stroke-linejoin="round"/>
<path d="M38.8031 26.8998C41.4031 26.6998 41.4031 26.6998 44.0031 26.4998C54.7031 25.4998 65.3031 24.5998 76.0031 23.5998C77.5031 23.4998 78.9031 23.2998 80.4031 23.1998C81.9031 23.0998 83.3031 22.9998 84.7031 23.4998C87.1031 24.3998 89.5031 25.3998 91.9031 26.2998C92.4031 26.4998 93.2031 26.8998 93.6031 27.0998C94.9031 27.7998 95.9031 28.8998 96.4031 30.1998C97.0031 31.5998 97.0031 32.9998 97.0031 34.4998C97.0031 57.3998 97.0031 80.2998 97.0031 103.2C97.0031 119.3 97.0031 135.5 97.0031 151.6C97.0031 152.6 97.0031 153.6 97.0031 154.6C97.0031 154.7 97.0031 154.8 97.0031 154.9C97.0031 156 97.0031 157.1 96.6031 158.2C96.3031 159.3 95.8031 160.3 95.1031 161.1C94.4031 162 93.5031 162.6 92.4031 163.1C91.9031 163.3 91.3031 163.5 90.8031 163.6C90.7031 163.6 90.6031 163.6 90.6031 163.6C90.1031 163.7 89.7031 163.7 89.2031 163.8C86.9031 164 82.7031 164.4 80.5031 165.2C80.4031 165.3 80.4031 165.3 80.3031 165.4C80.2031 165.5 80.2031 165.5 80.1031 165.6C80.0031 165.7 79.8031 165.9 79.7031 166C79.6031 166.1 79.4031 166.3 79.3031 166.4C79.3031 166.4 79.0031 166.8 79.0031 166.9C78.9031 167.5 78.1031 167.8 77.7031 167.8C76.7031 168 75.6031 168.1 74.6031 168.2C74.6031 168.3 74.6031 168.3 74.6031 168.4C75.8031 168.9 77.0031 169.4 78.2031 169.9C78.4031 170 78.6031 170.1 78.7031 170.1C78.7031 170.1 78.8031 170.1 78.8031 170.2H78.9031C78.9031 170.3 78.9031 170.4 78.9031 170.5C78.9031 177 78.9031 183.5 78.9031 190V190.2L78.8031 190.3C78.7031 190.4 78.6031 190.5 78.5031 190.6C77.8031 191.3 75.5031 191.5 74.7031 191.6C72.4031 191.8 70.1031 192.1 67.8031 192.3C67.8031 194.1 67.8031 196 67.8031 197.8V197.9C67.8031 197.9 67.8031 197.9 67.8031 198C67.7031 198.1 67.7031 198.1 67.6031 198.2C66.3031 199.2 65.0031 200.3 63.7031 201.3C63.6031 201.4 63.5031 201.5 63.3031 201.6L62.9031 201.7C62.6031 201.7 62.3031 201.8 62.0031 201.8C61.2031 201.9 60.5031 201.9 59.7031 201.8C59.2031 201.8 57.9031 201.7 57.5031 201.3C56.2031 200.3 54.9031 199.2 53.6031 198.2C53.5031 198.1 53.4031 198 53.4031 197.8C53.4031 196.2 53.4031 194.6 53.4031 193.1C52.9031 193 52.4031 193 51.8031 192.9C51.5031 192.9 51.4031 192.9 51.1031 192.7C50.9031 192.6 50.6031 192.5 50.4031 192.4C49.2031 191.9 48.0031 191.3 46.8031 190.8C46.6031 190.7 46.4031 190.6 46.2031 190.5C46.2031 190.5 46.1031 190.5 46.1031 190.4L46.0031 190.3C45.9031 190.2 45.8031 190.1 45.7031 190.1C45.6031 190 45.5031 189.9 45.4031 189.8C45.2031 189.6 45.0031 189.4 45.0031 189.1C45.0031 182.6 45.0031 176.1 45.0031 169.6C45.0031 169.5 45.0031 169.4 45.0031 169.3V169.2C45.1031 169.1 45.3031 169 45.4031 168.9C40.6031 168.6 36.5031 168.9 31.7031 169.4C31.6031 169.4 31.5031 169.4 31.4031 169.4C30.2031 169.5 29.1031 169.6 27.9031 169.2C27.4031 169 26.8031 168.8 26.3031 168.6C26.2031 168.6 26.2031 168.5 26.1031 168.5C24.1031 167.6 22.2031 166.8 20.2031 165.9C18.1031 165 16.9031 163 16.7031 160.8C16.6031 159.7 16.6031 158.6 16.6031 157.5C16.6031 141.5 16.5031 125.6 16.5031 109.6C16.1031 109.4 15.7031 109.3 15.3031 109.1C15.2031 109.1 15.2031 109 15.1031 109C15.0031 109 15.0031 108.9 15.0031 108.8C15.0031 103.4 15.0031 97.9998 15.0031 92.6998M15.0031 92.6998V92.5998L15.1031 92.4998C15.2031 92.4998 15.3031 92.3998 15.4031 92.3998C15.6031 92.2998 14.8031 92.6998 15.0031 92.6998ZM15.0031 92.6998C14.9031 92.6998 15.3031 92.7998 15.3031 92.7998C15.2031 92.7998 15.7031 92.0998 15.7031 91.9998C15.7031 91.4998 15.7031 91.0998 15.7031 90.5998C15.3031 90.6998 14.9031 90.7998 14.5031 90.8998C14.3031 90.8998 14.1031 90.9998 13.9031 90.9998C13.7031 90.9998 13.6031 91.0998 13.5031 91.0998C13.5031 91.1998 13.5031 91.5998 13.5031 91.6998C13.5031 91.8998 13.5031 92.0998 13.5031 92.2998C13.5031 92.6998 13.5031 93.0998 13.5031 93.4998C13.5031 105.9 13.6031 118.3 13.6031 130.7C13.6031 132.8 13.1031 135.6 11.9031 137.1C11.6031 137.5 11.2031 137.8 10.6031 137.9C9.00313 138.1 7.40312 138.2 5.90312 138.4C5.80312 138.4 5.80313 138.4 5.70312 138.4H5.50313C5.40313 138.3 5.20312 138.3 5.10312 138.2C4.70312 138 4.50312 137.8 4.20312 137.5C4.10312 137.4 4.00312 137.3 4.00312 137.3C2.90312 136.2 2.20312 134.4 1.90312 133C1.50312 131.4 1.30312 129.8 1.30312 128.2C1.30312 111.1 1.20312 93.8998 1.20312 76.7998V76.6998C1.30313 75.8998 1.40312 75.1998 1.70312 74.3998C1.90313 73.6998 2.30312 72.8998 2.70312 72.2998C3.10313 71.6998 3.70312 70.9998 4.20312 70.4998C4.80312 69.9998 5.50313 69.5998 6.20312 69.2998C6.30313 69.2998 6.80313 69.0998 7.00313 69.0998C7.30313 69.0998 7.50313 68.9998 7.80313 68.9998C8.80313 68.8998 9.80313 68.7998 10.8031 68.6998C11.0031 68.6998 11.2031 68.6998 11.4031 68.5998C11.5031 68.5998 11.6031 68.5998 11.7031 68.5998C11.8031 68.5998 11.9031 68.5998 12.0031 68.5998C12.1031 68.5998 13.0031 68.9998 13.0031 68.9998C13.2031 69.0998 13.4031 69.1998 13.7031 69.2998C14.5031 69.1998 15.3031 69.0998 16.0031 68.9998C16.0031 65.2998 16.0031 61.5998 16.0031 57.8998V57.7998C16.0031 57.7998 16.0031 57.7998 16.1031 57.6998C16.2031 57.5998 16.4031 57.3998 16.5031 57.2998C16.2031 57.1998 15.9031 57.0998 15.6031 56.8998C15.5031 56.8998 15.3031 56.7998 15.3031 56.6998C15.3031 52.9998 15.3031 49.3998 15.3031 45.6998C15.3031 43.8998 15.3031 41.9998 15.3031 40.1998C15.3031 39.2998 15.3031 38.3998 15.3031 37.4998C15.3031 36.5998 15.3031 35.6998 15.4031 34.7998C15.6031 32.5998 16.7031 30.6998 18.5031 29.3998C19.4031 28.7998 20.4031 28.3998 21.5031 28.1998C22.3031 28.0998 23.9031 27.8998 24.7031 27.8998C25.9031 27.7998 26.8031 27.6998 29.2031 27.4998" stroke="#595757" stroke-width="1.5" stroke-linecap="round" stroke-linejoin="round"/>
<path d="M75.5094 157.499V157.199L74.9094 157.299V157.599L75.5094 157.499ZM75.6094 156.899C75.7094 156.899 75.8094 156.999 75.8094 157.099C75.8094 157.299 75.8094 157.399 75.8094 157.599C75.5094 157.599 75.2094 157.699 74.9094 157.699C74.9094 157.799 74.9094 157.899 74.9094 157.999C75.2094 157.999 75.5094 157.899 75.7094 157.899C75.7094 157.999 75.7094 157.999 75.7094 158.099C75.4094 158.099 75.1094 158.199 74.8094 158.199C74.7094 158.199 74.6094 158.099 74.6094 157.999C74.6094 157.699 74.6094 157.499 74.6094 157.199C74.6094 157.099 74.7094 156.999 74.8094 156.999C75.1094 156.999 75.4094 156.999 75.6094 156.899Z" fill="#595757"/>
<path d="M74.1047 157.2C74.2047 157.1 74.2047 157 74.4047 157C74.5047 157 74.5047 157 74.6047 157C74.6047 157.1 74.6047 157.2 74.6047 157.3C74.4047 157.3 74.3047 157.3 74.1047 157.4C74.1047 157.7 74.1047 158 74.1047 158.3C74.0047 158.3 73.9047 158.3 73.8047 158.3C73.8047 157.9 73.8047 157.5 73.8047 157.1C73.9047 157.1 74.0047 157.1 74.1047 157.1C74.0047 157.2 74.0047 157.2 74.1047 157.2C74.1047 157.3 74.1047 157.3 74.1047 157.2Z" fill="#595757"/>
<path d="M73.3063 157.8L72.7062 157.9V158.2L73.3063 158.1V157.8ZM72.6062 158.4C72.5062 158.4 72.4062 158.3 72.4062 158.2C72.4062 158.1 72.4062 158 72.4062 157.9C72.4062 157.8 72.5062 157.7 72.6062 157.7C72.8062 157.7 73.0063 157.7 73.3063 157.6C73.3063 157.5 73.3063 157.4 73.3063 157.3C73.0063 157.3 72.8062 157.4 72.5062 157.4C72.5062 157.3 72.5062 157.3 72.5062 157.2C72.8062 157.2 73.0063 157.1 73.3063 157.1C73.4063 157.1 73.6062 157.2 73.6062 157.3C73.6062 157.6 73.6062 158 73.6062 158.3C73.2062 158.4 72.9062 158.4 72.6062 158.4Z" fill="#595757"/>
<path d="M72.5109 155.2L73.1109 155.1V154.8L72.5109 154.9V155.2ZM72.5109 155.6C72.8109 155.6 73.1109 155.5 73.3109 155.5C73.3109 155.6 73.3109 155.6 73.3109 155.7C73.0109 155.7 72.7109 155.8 72.4109 155.8C72.3109 155.8 72.2109 155.7 72.2109 155.6C72.2109 155.3 72.2109 155.1 72.2109 154.8C72.2109 154.7 72.3109 154.6 72.4109 154.6C72.7109 154.6 72.9109 154.5 73.2109 154.5C73.3109 154.5 73.4109 154.6 73.4109 154.7C73.4109 154.9 73.4109 155.1 73.4109 155.2C73.1109 155.2 72.8109 155.3 72.5109 155.3C72.5109 155.5 72.5109 155.6 72.5109 155.6Z" fill="#595757"/>
<path d="M71.4094 158.4C71.7094 158.4 72.0094 158.3 72.2094 158.3C72.2094 158.4 72.2094 158.4 72.2094 158.5C71.9094 158.5 71.6094 158.6 71.3094 158.6C71.2094 158.6 71.1094 158.5 71.1094 158.4C71.1094 158.1 71.1094 157.9 71.1094 157.6C71.1094 157.5 71.2094 157.4 71.3094 157.4C71.6094 157.4 71.9094 157.3 72.2094 157.3C72.2094 157.4 72.2094 157.4 72.2094 157.5C71.9094 157.5 71.6094 157.6 71.4094 157.6C71.4094 157.8 71.4094 158.1 71.4094 158.4Z" fill="#595757"/>
<path d="M71.8063 154.7C71.8063 154.6 71.8063 154.5 71.8063 154.3C71.9063 154.3 72.0062 154.3 72.1062 154.3C72.1062 154.8 72.1062 155.3 72.1062 155.9C71.8062 155.9 71.5062 156 71.1062 156C71.0062 156 70.9062 155.9 70.9062 155.8C70.9062 155.5 70.9062 155.3 70.9062 155C70.9062 154.9 71.0062 154.8 71.1062 154.8C71.3062 154.8 71.6063 154.7 71.8063 154.7ZM71.8063 155.7V154.9L71.2062 155V155.8L71.8063 155.7Z" fill="#595757"/>
<path d="M70.4094 155.5L69.8094 155.6V155.9L70.4094 155.8V155.5ZM70.5094 154.8C70.6094 154.8 70.8094 154.9 70.8094 155C70.8094 155.3 70.8094 155.7 70.8094 156C70.5094 156 70.2094 156.1 69.8094 156.1C69.7094 156.1 69.6094 156 69.6094 155.9C69.6094 155.8 69.6094 155.7 69.6094 155.6C69.6094 155.5 69.7094 155.4 69.8094 155.4C70.0094 155.4 70.2094 155.4 70.5094 155.3C70.5094 155.2 70.5094 155.1 70.5094 155C70.2094 155 70.0094 155.1 69.7094 155.1C69.7094 155 69.7094 155 69.7094 154.9C69.9094 154.9 70.2094 154.9 70.5094 154.8Z" fill="#595757"/>
<path d="M70.3094 158.7C70.2094 158.7 70.1094 158.7 70.0094 158.7C70.0094 158.4 70.0094 158 70.0094 157.7C69.8094 157.7 69.6094 157.7 69.4094 157.8C69.4094 158.1 69.4094 158.5 69.4094 158.8C69.3094 158.8 69.2094 158.8 69.1094 158.8C69.1094 158.3 69.1094 157.8 69.1094 157.2C69.2094 157.2 69.3094 157.2 69.4094 157.2C69.4094 157.3 69.4094 157.4 69.4094 157.6C69.6094 157.6 69.8094 157.6 70.1094 157.5C70.2094 157.5 70.3094 157.6 70.3094 157.7C70.3094 158 70.3094 158.3 70.3094 158.7Z" fill="#595757"/>
<path d="M69.5062 155.9C69.5062 156 69.5062 156 69.5062 156.1C69.4062 156.1 69.2062 156.1 69.1062 156.1C69.0062 156.1 68.9062 156 68.9062 155.9C68.9062 155.4 68.9062 155 68.9062 154.5C69.0063 154.5 69.1062 154.5 69.2062 154.5C69.2062 155 69.2062 155.4 69.2062 155.9C69.3062 156 69.4062 156 69.5062 155.9Z" fill="#595757"/>
<path d="M69.0047 158.6C69.0047 158.7 69.0047 158.7 69.0047 158.8C68.9047 158.8 68.8047 158.8 68.7047 158.8C68.6047 158.8 68.5047 158.7 68.5047 158.6C68.5047 158.3 68.5047 158.1 68.5047 157.8C68.4047 157.8 68.3047 157.8 68.3047 157.8C68.3047 157.7 68.3047 157.7 68.3047 157.6C68.4047 157.6 68.5047 157.6 68.5047 157.6C68.5047 157.5 68.5047 157.3 68.5047 157.2C68.6047 157.2 68.7047 157.2 68.8047 157.2C68.8047 157.3 68.8047 157.4 68.8047 157.6C68.9047 157.6 69.0047 157.6 69.0047 157.6C69.0047 157.7 69.0047 157.7 69.0047 157.8C68.9047 157.8 68.8047 157.8 68.8047 157.8C68.8047 158 68.8047 158.3 68.8047 158.5C68.8047 158.6 68.8047 158.6 68.9047 158.6H69.0047Z" fill="#595757"/>
<path d="M68.4062 160.899L66.7062 162.799L64.9062 161.299L68.4062 160.899Z" fill="#595757"/>
<path d="M68.1047 157.7V158.9H67.8047V157.7H68.1047Z" fill="#595757"/>
<path d="M68.1047 157.5H67.8047V157.3H68.1047V157.5Z" fill="#595757"/>
<path d="M68.4078 156.1V155.3L67.8078 155.4V156.2L68.4078 156.1ZM68.7078 155.2C68.7078 155.5 68.7078 155.7 68.7078 156C68.7078 156.1 68.6078 156.2 68.5078 156.2C68.2078 156.2 67.9078 156.3 67.5078 156.3C67.5078 155.8 67.5078 155.2 67.5078 154.7C67.6078 154.7 67.7078 154.7 67.8078 154.7C67.8078 154.8 67.8078 154.9 67.8078 155.1C68.0078 155.1 68.2078 155.1 68.5078 155C68.6078 155 68.7078 155.1 68.7078 155.2Z" fill="#595757"/>
<path d="M67.7094 157.7C67.7094 158.1 67.7094 158.5 67.7094 158.9C67.2094 158.9 66.8094 159 66.3094 159C66.2094 159 66.1094 158.9 66.1094 158.8C66.1094 158.5 66.1094 158.1 66.1094 157.8C66.2094 157.8 66.3094 157.8 66.4094 157.8C66.4094 158.1 66.4094 158.5 66.4094 158.8C66.5094 158.8 66.6094 158.8 66.7094 158.8C66.7094 158.5 66.7094 158.1 66.7094 157.8C66.8094 157.8 66.9094 157.8 67.0094 157.8C67.0094 158.1 67.0094 158.5 67.0094 158.8C67.1094 158.8 67.2094 158.8 67.3094 158.8C67.3094 158.5 67.3094 158.1 67.3094 157.8C67.5094 157.7 67.6094 157.7 67.7094 157.7Z" fill="#595757"/>
<path d="M66.5094 155.4L65.9094 155.5V156.3L66.5094 156.2V155.4ZM66.8094 155.4C66.8094 155.7 66.8094 155.9 66.8094 156.2C66.8094 156.3 66.7094 156.4 66.6094 156.4C66.4094 156.4 66.2094 156.4 65.9094 156.5C65.9094 156.6 65.9094 156.8 65.9094 156.9C65.8094 156.9 65.7094 156.9 65.6094 156.9C65.6094 156.3 65.6094 155.8 65.6094 155.2C65.9094 155.2 66.2094 155.1 66.6094 155.1C66.7094 155.2 66.8094 155.3 66.8094 155.4Z" fill="#595757"/>
<path d="M65.4094 155.3C65.4094 155.4 65.4094 155.5 65.4094 155.6C65.2094 155.6 65.1094 155.6 64.9094 155.6C64.9094 155.9 64.9094 156.2 64.9094 156.5C64.8094 156.5 64.7094 156.5 64.6094 156.5C64.6094 156.1 64.6094 155.7 64.6094 155.3C64.7094 155.3 64.8094 155.3 64.9094 155.3C64.9094 155.4 64.9094 155.4 64.9094 155.5V155.4C65.0094 155.3 65.0094 155.2 65.2094 155.2C65.3094 155.4 65.4094 155.4 65.4094 155.3Z" fill="#595757"/>
<path d="M65.0094 158.2L64.4094 158.3V158.6L65.0094 158.5V158.2ZM64.1094 158.3C64.1094 158.2 64.2094 158.1 64.3094 158.1C64.5094 158.1 64.8094 158.1 65.0094 158C65.0094 158 65.1094 158 65.2094 158C65.3094 158 65.3094 158.1 65.3094 158.2C65.3094 158.4 65.3094 158.5 65.3094 158.7C65.0094 158.7 64.7094 158.8 64.4094 158.8C64.4094 158.9 64.4094 159 64.4094 159.1C64.7094 159.1 65.0094 159 65.2094 159C65.2094 159.1 65.2094 159.1 65.2094 159.2C64.9094 159.2 64.6094 159.3 64.3094 159.3C64.2094 159.3 64.1094 159.2 64.1094 159.1C64.1094 158.8 64.1094 158.6 64.1094 158.3Z" fill="#595757"/>
<path d="M64.0062 159.1C64.0062 159.2 64.0062 159.2 64.0062 159.3C63.9062 159.3 63.7062 159.3 63.6062 159.3C63.5062 159.3 63.4062 159.2 63.4062 159.1C63.4062 158.6 63.4062 158.2 63.4062 157.7C63.5063 157.7 63.6062 157.7 63.7062 157.7C63.7062 158.2 63.7062 158.6 63.7062 159.1C63.8062 159.1 63.9062 159.1 64.0062 159.1Z" fill="#595757"/>
<path d="M63.5047 155.999C63.7047 155.999 63.9047 155.999 64.2047 155.899C64.2047 155.799 64.2047 155.699 64.2047 155.599C63.9047 155.599 63.7047 155.699 63.4047 155.699C63.4047 155.599 63.4047 155.599 63.4047 155.499C63.7047 155.499 63.9047 155.399 64.2047 155.399C64.3047 155.399 64.5047 155.499 64.5047 155.599C64.5047 155.899 64.5047 156.199 64.5047 156.599C64.2047 156.599 63.9047 156.699 63.5047 156.699C63.4047 156.699 63.3047 156.599 63.3047 156.499C63.3047 156.399 63.3047 156.299 63.3047 156.199C63.3047 156.099 63.4047 155.999 63.5047 155.999ZM64.2047 156.499V156.199L63.6047 156.299V156.599L64.2047 156.499Z" fill="#595757"/>
<path d="M62.4094 159.3L63.0094 159.2V158.4L62.4094 158.5V159.3ZM63.3094 157.8C63.3094 158.3 63.3094 158.9 63.3094 159.4C63.0094 159.4 62.7094 159.5 62.3094 159.5C62.2094 159.5 62.1094 159.4 62.1094 159.3C62.1094 159 62.1094 158.8 62.1094 158.5C62.1094 158.4 62.2094 158.3 62.3094 158.3C62.5094 158.3 62.7094 158.3 63.0094 158.2C63.0094 158.1 63.0094 158 63.0094 157.8C63.1094 157.8 63.2094 157.8 63.3094 157.8Z" fill="#595757"/>
<path d="M63.0078 155.6C63.1078 155.6 63.2078 155.7 63.2078 155.8C63.2078 156.1 63.2078 156.5 63.2078 156.8C63.1078 156.8 63.0078 156.8 62.9078 156.8C62.9078 156.5 62.9078 156.1 62.9078 155.8C62.7078 155.8 62.5078 155.8 62.3078 155.9C62.3078 156.2 62.3078 156.6 62.3078 156.9C62.2078 156.9 62.1078 156.9 62.0078 156.9C62.0078 156.4 62.0078 155.9 62.0078 155.3C62.1078 155.3 62.2078 155.3 62.3078 155.3C62.3078 155.4 62.3078 155.5 62.3078 155.7C62.5078 155.6 62.8078 155.6 63.0078 155.6Z" fill="#595757"/>
<path d="M62.0047 158.5C62.0047 158.8 62.0047 159.2 62.0047 159.5C61.9047 159.5 61.8047 159.5 61.7047 159.5C61.7047 159.2 61.7047 158.8 61.7047 158.5C61.5047 158.5 61.3047 158.5 61.1047 158.6C61.1047 158.9 61.1047 159.3 61.1047 159.6C61.0047 159.6 60.9047 159.6 60.8047 159.6C60.8047 159.2 60.8047 158.8 60.8047 158.4C61.1047 158.4 61.4047 158.3 61.8047 158.3C61.9047 158.3 62.0047 158.4 62.0047 158.5Z" fill="#595757"/>
<path d="M61.7094 156.099C61.8094 156.099 61.9094 156.199 61.9094 156.299C61.9094 156.499 61.9094 156.599 61.9094 156.799C61.9094 156.899 61.8094 156.999 61.7094 156.999C61.3094 156.999 60.9094 157.099 60.6094 157.099C60.6094 156.999 60.6094 156.899 60.6094 156.899C60.9094 156.899 61.2094 156.799 61.6094 156.799C61.6094 156.799 61.7094 156.799 61.7094 156.699C61.7094 156.599 61.7094 156.499 61.7094 156.399C61.7094 156.399 61.7094 156.299 61.6094 156.299C61.3094 156.299 61.0094 156.399 60.8094 156.399C60.7094 156.399 60.6094 156.299 60.6094 156.199C60.6094 155.999 60.6094 155.899 60.6094 155.699C60.6094 155.599 60.7094 155.499 60.8094 155.499C61.2094 155.499 61.6094 155.399 61.9094 155.399C61.9094 155.499 61.9094 155.599 61.9094 155.599C61.6094 155.599 61.3094 155.699 60.9094 155.699C60.9094 155.699 60.8094 155.699 60.8094 155.799C60.8094 155.899 60.8094 155.999 60.8094 156.199C60.8094 156.199 60.8094 156.299 60.9094 156.299C61.1094 156.099 61.4094 156.099 61.7094 156.099Z" fill="#595757"/>
<path d="M59.8062 159.2V159.5L60.4062 159.4V159.1L59.8062 159.2ZM60.6062 158.7C60.6062 159 60.6062 159.4 60.6062 159.7C60.3062 159.7 60.0062 159.8 59.6062 159.8C59.5062 159.8 59.4062 159.7 59.4062 159.6C59.4062 159.5 59.4062 159.4 59.4062 159.3C59.4062 159.2 59.5062 159.1 59.6062 159.1C59.8062 159.1 60.0062 159.1 60.3062 159C60.3062 158.9 60.3062 158.8 60.3062 158.7C60.0062 158.7 59.8062 158.8 59.5062 158.8C59.5062 158.7 59.5062 158.7 59.5062 158.6C59.8062 158.6 60.0062 158.5 60.3062 158.5C60.5062 158.4 60.6062 158.5 60.6062 158.7Z" fill="#595757"/>
<path d="M59.0078 159.8V159.1L58.3078 159.2V159.9H58.0078V158.3H58.3078V158.9H59.0078V158.2H59.3078V159.8H59.0078Z" fill="#595757"/>
<path d="M84.7031 60.3C84.5031 60.5 84.3031 60.6 84.0031 60.7C83.9031 60.7 83.8031 60.7 83.8031 60.7C83.5031 60.7 83.1031 60.8 82.8031 60.8C82.1031 60.9 81.4031 60.9 80.7031 61C80.7031 59.4 80.7031 57.8 80.7031 56.1C81.0031 56.1 81.4031 56 81.7031 56C81.7031 56.3 81.7031 56.6 81.7031 57C82.5031 56.9 83.2031 56.9 84.0031 56.8C84.4031 56.8 84.7031 57 84.9031 57.3C85.1031 57.6 85.0031 58 85.0031 58.3C85.0031 58.6 85.0031 59 85.0031 59.3C85.0031 59.7 85.0031 59.9 84.7031 60.3ZM84.0031 58.6C84.0031 58.4 84.0031 58.2 84.0031 58.1C84.0031 58 84.0031 57.9 84.0031 57.9C84.0031 57.8 84.0031 57.8 84.0031 57.7C84.0031 57.6 83.9031 57.6 83.9031 57.6C83.2031 57.7 82.5031 57.7 81.7031 57.8C81.7031 58.5 81.7031 59.3 81.7031 60C82.1031 60 82.5031 59.9 82.9031 59.9C83.1031 59.9 83.3031 59.9 83.5031 59.8C83.6031 59.8 83.7031 59.8 83.8031 59.8C83.9031 59.8 84.0031 59.8 84.0031 59.7C84.0031 59.3 84.0031 59 84.0031 58.6Z" fill="#595757"/>
<path d="M80.6078 66.9998C79.8078 67.0998 79.1078 67.0998 78.3078 67.1998C78.3078 67.2998 78.3078 67.3998 78.3078 67.4998C78.3078 67.6998 78.3078 67.6998 78.5078 67.6998C78.7078 67.6998 78.9078 67.6998 79.2078 67.5998C79.6078 67.5998 80.1078 67.4998 80.5078 67.4998C80.5078 67.5998 80.5078 67.6998 80.5078 67.7998C80.0078 67.8998 79.4078 67.8998 78.9078 67.9998C78.8078 67.9998 78.6078 67.9998 78.5078 67.9998C78.3078 67.9998 78.2078 67.9998 78.1078 67.8998C78.0078 67.7998 78.0078 67.6998 78.0078 67.5998C78.0078 67.4998 78.0078 67.2998 78.0078 67.1998C78.0078 67.0998 78.0078 66.8998 78.0078 66.7998C78.0078 66.6998 78.0078 66.4998 78.0078 66.3998C78.0078 66.2998 78.1078 66.1998 78.2078 66.0998C78.3078 66.0998 78.3078 65.9998 78.4078 65.9998C78.5078 65.9998 78.6078 65.9998 78.7078 65.9998C79.0078 65.9998 79.2078 65.8998 79.5078 65.8998C79.8078 65.8998 80.0078 65.7998 80.3078 65.7998C80.4078 65.7998 80.5078 65.8998 80.6078 65.9998C80.7078 66.0998 80.6078 66.1998 80.6078 66.2998C80.6078 66.4998 80.6078 66.7998 80.6078 66.9998ZM80.3078 66.6998V66.0998L78.4078 66.2998V66.8998L80.3078 66.6998Z" fill="#595757"/>
<path d="M77.7078 67.7996C77.7078 67.8996 77.7078 67.9996 77.7078 68.0996C77.4078 68.0996 77.1078 68.1996 76.8078 68.1996C76.6078 68.1996 76.5078 68.0996 76.5078 67.8996C76.5078 67.7996 76.5078 67.6996 76.5078 67.6996C76.5078 67.5996 76.5078 67.4996 76.5078 67.4996C76.5078 66.8996 76.5078 66.2996 76.5078 65.5996C76.6078 65.5996 76.7078 65.5996 76.8078 65.5996C76.8078 65.9996 76.8078 66.3996 76.8078 66.6996C76.8078 66.8996 76.8078 67.0996 76.8078 67.2996C76.8078 67.3996 76.8078 67.4996 76.8078 67.5996C76.8078 67.6996 76.8078 67.7996 76.8078 67.7996H77.0078C77.1078 67.7996 77.2078 67.7996 77.2078 67.7996C77.4078 67.7996 77.6078 67.7996 77.7078 67.7996Z" fill="#595757"/>
<path d="M78.9016 60.2998C78.9016 59.9998 78.9016 59.7998 78.9016 59.4998C78.4016 59.5998 77.8016 59.5998 77.3016 59.6998C77.0016 59.6998 76.8016 59.7998 76.5016 59.7998C76.4016 59.7998 76.3016 59.7998 76.2016 59.7998C76.1016 59.7998 76.1016 59.7998 76.0016 59.7998C76.0016 59.7998 76.0016 59.7998 76.0016 59.8998C76.0016 59.9998 76.0016 60.0998 76.0016 60.1998C76.0016 60.2998 76.0016 60.3998 76.0016 60.4998V60.5998C76.1016 60.5998 76.1016 60.5998 76.2016 60.5998C76.3016 60.5998 76.4016 60.5998 76.5016 60.5998C76.8016 60.5998 77.0016 60.4998 77.3016 60.4998C77.8016 60.3998 78.3016 60.2998 78.9016 60.2998ZM78.9016 58.1998C78.9016 58.0998 78.9016 58.0998 78.8016 58.0998C78.7016 58.0998 78.5016 58.0998 78.5016 58.0998C78.2016 58.0998 77.9016 58.1998 77.5016 58.1998C76.9016 58.2998 76.2016 58.2998 75.6016 58.3998C75.5016 58.0998 75.4016 57.8998 75.3016 57.5998C76.5016 57.4998 77.7016 57.3998 78.9016 57.2998C79.3016 57.2998 79.6016 57.4998 79.8016 57.7998C79.9016 57.9998 79.9016 58.0998 79.9016 58.2998C79.9016 58.4998 79.9016 58.6998 79.9016 58.8998C79.9016 59.5998 79.9016 60.3998 79.9016 61.0998C79.0016 61.1998 78.2016 61.2998 77.3016 61.2998C76.9016 61.2998 76.4016 61.3998 76.0016 61.3998C75.5016 61.3998 75.2016 61.0998 75.1016 60.6998C75.1016 60.4998 75.1016 60.3998 75.1016 60.1998C75.1016 59.8998 75.1016 59.6998 75.3016 59.3998C75.5016 59.0998 75.8016 58.8998 76.1016 58.8998C76.2016 58.8998 76.3016 58.8998 76.4016 58.8998C77.3016 58.7998 78.1016 58.6998 79.0016 58.6998C78.9016 58.4998 78.9016 58.2998 78.9016 58.1998Z" fill="#595757"/>
<path d="M73.5062 68.3998C73.4062 68.2998 73.4062 68.1998 73.4062 68.0998C73.4062 67.5998 73.4062 66.9998 73.4062 66.4998C73.5063 66.4998 73.6062 66.4998 73.7062 66.4998C73.7062 66.9998 73.7062 67.3998 73.7062 67.8998C73.7062 67.9998 73.7062 68.0998 73.7062 68.1998V68.2998C73.7062 68.2998 73.7063 68.2998 73.8063 68.2998C73.9063 68.2998 74.0062 68.2998 74.0062 68.2998C74.2062 68.2998 74.5062 68.2998 74.7062 68.1998C74.9062 68.1998 75.2062 68.1998 75.4062 68.0998C75.5063 68.0998 75.5062 68.0998 75.6062 68.0998C75.6062 68.0998 75.6062 68.0998 75.7062 68.0998V67.9998C75.7062 67.8998 75.7062 67.7998 75.7062 67.6998C75.7062 67.1998 75.7062 66.7998 75.7062 66.2998C75.8062 66.2998 75.9062 66.2998 76.0062 66.2998C76.0062 66.7998 76.0062 67.3998 76.0062 67.8998C76.0062 67.9998 76.0063 68.1998 75.9062 68.2998C75.8062 68.3998 75.7062 68.3998 75.5062 68.3998C75.2062 68.3998 75.0062 68.4998 74.7062 68.4998C74.4062 68.4998 74.2063 68.5998 73.9062 68.5998C73.8062 68.4998 73.7062 68.4998 73.5062 68.3998C73.6062 68.3998 73.6062 68.3998 73.5062 68.3998Z" fill="#595757"/>
<path d="M71.9047 60.8004L74.2047 60.6004L74.5047 61.5004L70.8047 61.9004V57.0004L71.9047 56.9004V60.8004Z" fill="#595757"/>
<path d="M72.7078 68.3C72.8078 68.3 72.8078 68.2 72.8078 68.1C72.8078 67.9 72.8078 67.7 72.8078 67.5C72.8078 67.4 72.8078 67.3 72.8078 67.2C72.8078 67.1 72.8078 67 72.8078 66.9C72.8078 66.8 72.7078 66.8 72.6078 66.8C72.0078 66.9 71.5078 66.9 70.9078 67C70.8078 67 70.8078 67.1 70.8078 67.2C70.8078 67.4 70.8078 67.6 70.8078 67.8C70.8078 67.9 70.8078 68 70.8078 68.1C70.8078 68.2 70.8078 68.3 70.8078 68.4C70.8078 68.5 70.9078 68.5 71.0078 68.5C71.5078 68.4 72.1078 68.3 72.7078 68.3ZM73.0078 67.7C73.0078 67.9 73.0078 68.1 73.0078 68.3C73.0078 68.6 72.8078 68.7 72.6078 68.7C72.4078 68.7 72.3078 68.7 72.1078 68.8C71.7078 68.8 71.3078 68.9 71.0078 68.9C70.8078 68.9 70.6078 69 70.5078 68.7C70.5078 68.6 70.5078 68.2 70.5078 68.1C70.5078 67.9 70.5078 67.7 70.5078 67.5C70.5078 67.4 70.5078 67.3 70.5078 67.2C70.5078 67.1 70.5078 67 70.5078 66.9C70.6078 66.7 70.8078 66.7 71.0078 66.7C71.2078 66.7 71.4078 66.7 71.5078 66.6C71.8078 66.6 72.0078 66.6 72.3078 66.5C72.4078 66.5 72.5078 66.5 72.7078 66.5C72.7078 66.3 72.7078 66.2 72.7078 66C72.8078 66 72.9078 66 73.0078 66C73.0078 66.4 73.0078 66.8 73.0078 67.1C73.0078 67.3 73.0078 67.5 73.0078 67.7Z" fill="#595757"/>
<path d="M69.7062 67.4998C69.7062 67.3998 69.7062 67.2998 69.7062 67.1998C69.7062 67.0998 69.6062 67.0998 69.5062 67.0998C68.9062 67.1998 68.4063 67.1998 67.8063 67.2998C67.7063 67.2998 67.7062 67.3998 67.7062 67.4998C67.7062 67.6998 67.7062 67.8998 67.7062 68.0998C67.7062 68.1998 67.7062 68.2998 67.7062 68.3998C67.7062 68.4998 67.7062 68.5998 67.7062 68.6998C67.7062 68.7998 67.8062 68.7998 67.9062 68.7998C68.5063 68.6998 69.0062 68.6998 69.6062 68.5998C69.7062 68.5998 69.7062 68.4998 69.7062 68.3998C69.7062 68.1998 69.7062 67.9998 69.7062 67.7998C69.7062 67.6998 69.7062 67.5998 69.7062 67.4998ZM69.7062 66.7998C69.9062 66.7998 70.0062 66.9998 70.0062 67.1998C70.0062 67.3998 70.0062 67.5998 70.0062 67.6998C70.0062 67.8998 70.0062 68.0998 70.0062 68.1998C70.0062 68.3998 70.0063 68.5998 69.9062 68.7998C69.8062 68.8998 69.8062 68.8998 69.6062 68.9998C69.5062 68.9998 69.4063 68.9998 69.3063 68.9998C69.1063 68.9998 68.9063 68.9998 68.8063 68.9998C68.4063 68.9998 68.1062 69.0998 67.7062 69.0998C67.5062 69.0998 67.4062 68.8998 67.4062 68.6998C67.4062 68.4998 67.4062 68.2998 67.4062 68.1998C67.4062 67.9998 67.4062 67.7998 67.4062 67.6998C67.4062 67.4998 67.4062 67.2998 67.5062 67.0998C67.6062 66.9998 67.6063 66.9998 67.8063 66.8998C67.9063 66.8998 68.0062 66.8998 68.1062 66.8998C68.3062 66.8998 68.4062 66.8998 68.6062 66.8998C69.0062 66.7998 69.3062 66.7998 69.7062 66.7998Z" fill="#595757"/>
<path d="M67.6031 61.0998C67.6031 61.5998 67.3031 61.9998 66.8031 62.1998C66.6031 62.2998 66.5031 62.2998 66.3031 62.2998C66.2031 62.2998 66.1031 62.2998 66.0031 62.2998C65.8031 62.2998 65.6031 62.2998 65.4031 62.3998C65.2031 62.3998 65.0031 62.3998 64.7031 62.4998C64.6031 62.4998 64.5031 62.4998 64.4031 62.4998C64.3031 62.4998 64.1031 62.4998 64.0031 62.4998C63.5031 62.4998 63.2031 61.9998 63.2031 61.4998C63.2031 60.5998 63.2031 59.5998 63.2031 58.6998C63.5031 58.6998 63.8031 58.5998 64.1031 58.5998C64.1031 59.2998 64.1031 59.9998 64.1031 60.6998C64.1031 60.8998 64.1031 61.1998 64.1031 61.3998C64.1031 61.5998 64.1031 61.5998 64.3031 61.5998C64.7031 61.5998 65.0031 61.4998 65.4031 61.4998C65.8031 61.4998 66.1031 61.3998 66.5031 61.3998C66.7031 61.3998 66.7031 61.3998 66.7031 61.1998C66.7031 60.9998 66.7031 60.6998 66.7031 60.4998C66.7031 59.7998 66.7031 59.0998 66.7031 58.3998C67.0031 58.3998 67.3031 58.2998 67.6031 58.2998C67.6031 59.1998 67.6031 60.0998 67.6031 61.0998Z" fill="#595757"/>
<path d="M67.0047 66.5V69.2H66.7047V67L65.6047 68.6L65.4047 68.9L64.1047 67.3V69.5H63.8047V66.8H64.2047L65.4047 68.3L66.6047 66.6C66.6047 66.6 66.6047 66.6 66.7047 66.6L67.0047 66.5Z" fill="#595757"/>
<path d="M62.1078 62.3C61.9078 62.5 61.7078 62.7 61.4078 62.7C61.3078 62.7 61.2078 62.7 61.2078 62.7C60.9078 62.7 60.5078 62.8 60.2078 62.8C59.4078 62.9 58.7078 63 58.0078 63C58.0078 61.4 58.0078 59.8 58.0078 58.1C58.3078 58.1 58.7078 58 59.0078 58C59.0078 58.3 59.0078 58.6 59.0078 59C59.8078 58.9 60.5078 58.9 61.3078 58.8C61.7078 58.8 62.0078 59 62.2078 59.3C62.4078 59.6 62.3078 60 62.3078 60.3C62.3078 60.7 62.3078 61 62.3078 61.3C62.3078 61.7 62.3078 62 62.1078 62.3ZM61.4078 60.1C61.4078 60 61.4078 60 61.4078 59.9C61.4078 59.8 61.4078 59.8 61.4078 59.8C61.4078 59.7 61.3078 59.7 61.3078 59.7C60.6078 59.8 59.9078 59.8 59.1078 59.9C59.1078 60.6 59.1078 61.4 59.1078 62.1C59.5078 62.1 59.9078 62 60.3078 62C60.5078 62 60.7078 62 60.9078 61.9C61.0078 61.9 61.1078 61.9 61.2078 61.9C61.3078 61.9 61.4078 61.9 61.4078 61.8C61.4078 61.4 61.4078 61.1 61.4078 60.7C61.4078 60.5 61.4078 60.3 61.4078 60.1Z" fill="#595757"/>
<path d="M60.7062 67.5996C60.8062 67.5996 60.9062 67.5996 61.0062 67.6996C61.1062 67.7996 61.1062 67.8996 61.1062 67.9996C61.1062 68.1996 61.1062 68.4996 61.1062 68.6996C61.1062 69.1996 61.1062 69.5996 61.1062 70.0996C61.1062 70.1996 61.1063 70.2996 60.9062 70.3996C60.8062 70.4996 60.7062 70.4996 60.6062 70.4996C60.4062 70.4996 60.1063 70.4996 59.9062 70.5996C59.4062 70.5996 59.0062 70.6996 58.5062 70.6996C58.5062 70.5996 58.5062 70.4996 58.5062 70.3996C58.9062 70.3996 59.4062 70.2996 59.8062 70.2996C60.0062 70.2996 60.2062 70.2996 60.5062 70.1996C60.6062 70.1996 60.7062 70.1996 60.7062 69.9996C60.7062 69.8996 60.7062 69.7996 60.7062 69.6996C60.4062 69.7996 60.2063 69.7996 59.9062 69.7996C59.6062 69.7996 59.4062 69.7996 59.1062 69.8996C58.9062 69.8996 58.5063 69.9996 58.4062 69.6996C58.4062 69.5996 58.4062 68.9996 58.4062 68.8996C58.4062 68.7996 58.4062 68.1996 58.4062 68.0996C58.4062 67.9996 58.5062 67.7996 58.7062 67.7996C58.8062 67.7996 58.9062 67.7996 59.1062 67.7996C59.6062 67.6996 60.2062 67.5996 60.7062 67.5996ZM60.7062 69.2996C60.7062 68.9996 60.7062 68.6996 60.7062 68.4996C60.7062 68.3996 60.7062 68.2996 60.7062 68.1996C60.7062 68.0996 60.7062 68.0996 60.7062 68.0996C60.7062 68.0996 60.7062 68.0996 60.6062 68.0996C60.5062 68.0996 60.4062 68.0996 60.3062 68.0996C60.0062 68.0996 59.7062 68.1996 59.5062 68.1996C59.3062 68.1996 59.1063 68.1996 58.9062 68.2996C58.8062 68.2996 58.7062 68.2996 58.7062 68.3996C58.7062 68.6996 58.7062 68.9996 58.7062 69.1996C58.7062 69.2996 58.7062 69.3996 58.7062 69.4996V69.5996C58.7062 69.5996 58.7062 69.5996 58.8062 69.5996C58.9062 69.5996 59.0062 69.5996 59.1062 69.5996C59.4062 69.5996 59.7062 69.4996 59.9062 69.4996C60.1063 69.4996 60.3062 69.4996 60.5062 69.3996C60.6062 69.3996 60.7062 69.3996 60.7062 69.2996Z" fill="#595757"/>
<path d="M56.6062 68.0004C57.0062 68.0004 57.3062 67.9004 57.7062 67.9004C57.9062 67.9004 58.0062 68.1004 58.0062 68.3004C58.0062 68.5004 58.0062 68.7004 58.0062 68.9004C58.0062 69.3004 58.0062 69.7004 58.0062 70.1004C57.9062 70.1004 57.8062 70.1004 57.7062 70.1004C57.7062 69.6004 57.7062 69.2004 57.7062 68.7004C57.7062 68.6004 57.7062 68.5004 57.7062 68.4004V68.3004C57.7062 68.3004 57.7062 68.3004 57.6062 68.3004C57.5062 68.3004 57.4062 68.3004 57.4062 68.3004C57.2062 68.3004 56.9062 68.3004 56.7062 68.4004C56.5062 68.4004 56.2062 68.4004 56.0062 68.5004C55.9062 68.5004 55.8062 68.5004 55.8062 68.5004C55.8062 68.5004 55.8062 68.5004 55.7062 68.5004V68.6004C55.7062 68.7004 55.7062 68.8004 55.7062 68.9004C55.7062 69.4004 55.7062 69.8004 55.7062 70.3004C55.6062 70.3004 55.5063 70.3004 55.4062 70.3004C55.4062 69.9004 55.4062 69.6004 55.4062 69.2004C55.4062 69.0004 55.4062 68.8004 55.4062 68.7004C55.4062 68.5004 55.4062 68.4004 55.5062 68.2004C55.6062 68.1004 55.7062 68.1004 55.8062 68.1004C55.9062 68.1004 56.0062 68.1004 56.0062 68.1004C56.3062 68.0004 56.5062 68.0004 56.6062 68.0004Z" fill="#595757"/>
<path d="M54.7031 68.1996L55.0031 68.0996V70.2996H54.7031V69.9996V68.4996V68.1996Z" fill="#595757"/>
<path d="M55.0031 67.5996V67.9996H54.7031V67.5996H55.0031Z" fill="#595757"/>
<path d="M54.3078 69.9996C54.3078 70.0996 54.3078 70.1996 54.3078 70.2996C54.1078 70.2996 53.8078 70.2996 53.6078 70.3996C53.5078 70.3996 53.4078 70.4996 53.2078 70.3996C53.1078 70.2996 53.0078 70.1996 53.0078 70.0996C53.0078 69.5996 53.0078 69.0996 53.0078 68.6996C52.8078 68.6996 52.7078 68.6996 52.5078 68.6996C52.5078 68.5996 52.5078 68.4996 52.5078 68.3996C52.7078 68.3996 52.8078 68.3996 53.0078 68.3996C53.0078 68.2996 53.0078 68.1996 53.0078 68.0996C53.1078 68.0996 53.2078 68.0996 53.3078 68.0996C53.3078 68.1996 53.3078 68.2996 53.3078 68.3996C53.6078 68.3996 53.9078 68.2996 54.2078 68.2996C54.2078 68.3996 54.2078 68.4996 54.2078 68.5996C53.9078 68.5996 53.6078 68.6996 53.3078 68.6996C53.3078 69.0996 53.3078 69.4996 53.3078 69.8996C53.3078 69.9996 53.3078 70.0996 53.3078 70.0996H53.4078C53.5078 70.0996 53.5078 70.0996 53.6078 70.0996C53.9078 69.9996 54.1078 69.9996 54.3078 69.9996Z" fill="#595757"/>
<path d="M57.1047 59.8C57.2047 60 57.2047 60.1 57.2047 60.3C57.2047 60.5 57.2047 60.7 57.2047 60.9C57.2047 61.6 57.2047 62.4 57.2047 63.1C56.9047 63.1 56.5047 63.2 56.2047 63.2C56.2047 62.6 56.2047 61.9 56.2047 61.3C56.2047 61 56.2047 60.7 56.2047 60.4C56.2047 60.3 56.2047 60.2 56.1047 60.2C55.9047 60.2 55.7047 60.2 55.5047 60.3C55.3047 60.3 55.1047 60.3 54.9047 60.4C54.7047 60.4 54.8047 60.5 54.8047 60.6C54.8047 60.9 54.8047 61.2 54.8047 61.5C54.8047 62.1 54.8047 62.8 54.8047 63.4C54.5047 63.4 54.1047 63.5 53.8047 63.5C53.8047 62.9 53.8047 62.2 53.8047 61.6C53.8047 61.3 53.8047 61 53.8047 60.7C53.8047 60.6 53.8047 60.5 53.6047 60.5C53.4047 60.5 53.2047 60.5 53.0047 60.6C52.8047 60.6 52.6047 60.6 52.4047 60.7C52.2047 60.7 52.3047 60.8 52.3047 60.9C52.3047 61.2 52.3047 61.5 52.3047 61.8C52.3047 62.4 52.3047 63.1 52.3047 63.7C52.0047 63.7 51.6047 63.8 51.3047 63.8C51.3047 62.5 51.3047 61.2 51.3047 59.9C53.0047 59.7 54.7047 59.6 56.3047 59.4C56.6047 59.3 56.9047 59.5 57.1047 59.8Z" fill="#595757"/>
<path d="M52.1047 70.4998C51.9047 70.4998 51.6047 70.4998 51.4047 70.5998C51.3047 70.5998 51.2047 70.6998 51.0047 70.5998C50.9047 70.4998 50.8047 70.3998 50.8047 70.2998C50.8047 69.7998 50.8047 69.2998 50.8047 68.8998C50.6047 68.8998 50.5047 68.8998 50.3047 68.8998C50.3047 68.7998 50.3047 68.6998 50.3047 68.5998C50.5047 68.5998 50.6047 68.5998 50.8047 68.5998C50.8047 68.4998 50.8047 68.3998 50.8047 68.2998C50.9047 68.2998 51.0047 68.2998 51.1047 68.2998C51.1047 68.3998 51.1047 68.4998 51.1047 68.5998C51.4047 68.5998 51.7047 68.4998 52.0047 68.4998C52.0047 68.5998 52.0047 68.6998 52.0047 68.7998C51.7047 68.7998 51.4047 68.8998 51.1047 68.8998C51.1047 69.2998 51.1047 69.6998 51.1047 70.0998C51.1047 70.1998 51.1047 70.2998 51.1047 70.2998H51.2047C51.3047 70.2998 51.3047 70.2998 51.4047 70.2998C51.6047 70.2998 51.8047 70.2998 52.0047 70.1998C52.1047 70.2998 52.1047 70.3998 52.1047 70.4998Z" fill="#595757"/>
<path d="M49.2062 70.5002C49.3062 70.5002 49.5062 70.5002 49.6062 70.5002C49.6062 70.5002 49.7062 70.5002 49.7062 70.4002C49.7062 69.8002 49.7062 69.3002 49.7062 68.7002C49.8062 68.7002 49.9062 68.7002 50.0062 68.7002C50.0062 69.2002 50.0062 69.8002 50.0062 70.3002C50.0062 70.4002 50.0063 70.6002 49.9062 70.7002C49.8062 70.8002 49.7062 70.8002 49.5062 70.8002C49.2062 70.8002 49.0062 70.9002 48.7062 70.9002C48.4062 70.9002 48.2063 71.0002 47.9062 71.0002C47.8062 71.0002 47.6062 71.0002 47.5062 70.9002C47.4062 70.8002 47.4062 70.8002 47.4062 70.7002C47.4062 70.6002 47.4062 70.6002 47.4062 70.5002C47.4062 70.0002 47.4062 69.4002 47.4062 68.9002C47.5063 68.9002 47.6062 68.9002 47.7062 68.9002C47.7062 69.2002 47.7062 69.5002 47.7062 69.8002C47.7062 70.0002 47.7062 70.1002 47.7062 70.3002C47.7062 70.4002 47.7062 70.4002 47.7062 70.5002V70.6002C47.7062 70.7002 47.8062 70.6002 47.8062 70.6002C48.1062 70.6002 48.4062 70.5002 48.7062 70.5002C48.8062 70.5002 49.0062 70.5002 49.2062 70.5002Z" fill="#595757"/>
<path d="M49.4078 62.9995C49.4078 62.6995 49.4078 62.4995 49.4078 62.1995C48.9078 62.1995 48.4078 62.2995 47.9078 62.2995C47.6078 62.2995 47.4078 62.2995 47.1078 62.3995C47.0078 62.3995 46.8078 62.3995 46.7078 62.3995C46.6078 62.3995 46.5078 62.3995 46.4078 62.3995L46.3078 62.4995C46.3078 62.5995 46.3078 62.7995 46.3078 62.8995V62.9995C46.3078 62.9995 46.3078 62.9995 46.3078 63.0995C46.3078 63.0995 46.3078 63.0995 46.4078 63.0995C46.5078 63.0995 46.5078 63.0995 46.6078 63.0995C46.9078 63.0995 47.2078 62.9995 47.5078 62.9995C48.2078 63.0995 48.8078 62.9995 49.4078 62.9995ZM49.3078 60.7995C49.2078 60.7995 49.0078 60.7995 48.9078 60.7995C48.6078 60.7995 48.3078 60.8995 47.9078 60.8995C47.3078 60.9995 46.7078 60.9995 46.0078 61.0995C45.9078 60.7995 45.8078 60.5995 45.7078 60.2995C46.4078 60.1995 47.0078 60.1995 47.7078 60.0995C48.0078 60.0995 48.4078 59.9995 48.7078 59.9995C48.8078 59.9995 48.9078 59.9995 49.1078 59.9995C49.3078 59.9995 49.5078 59.8995 49.7078 59.9995C50.0078 60.0995 50.2078 60.3995 50.3078 60.7995C50.3078 60.9995 50.3078 61.1995 50.3078 61.3995C50.3078 61.4995 50.3078 61.6995 50.3078 61.7995C50.3078 62.4995 50.3078 63.0995 50.3078 63.7995C49.0078 63.8995 47.8078 63.9995 46.5078 64.1995C45.9078 64.2995 45.5078 63.6995 45.5078 63.1995C45.5078 62.8995 45.5078 62.6995 45.6078 62.3995C45.7078 62.0995 45.9078 61.9995 46.2078 61.7995C46.4078 61.6995 46.7078 61.6995 47.0078 61.6995C47.3078 61.6995 47.5078 61.6995 47.8078 61.5995C48.3078 61.4995 48.9078 61.4995 49.4078 61.4995C49.4078 61.2995 49.4078 61.1995 49.4078 60.9995C49.4078 60.7995 49.4078 60.7995 49.3078 60.7995Z" fill="#595757"/>
<path d="M44.6047 70.7002C44.6047 70.8002 44.6047 70.9002 44.7047 70.9002C44.9047 70.9002 45.1047 70.9002 45.3047 70.8002C45.8047 70.7002 46.4047 70.7002 46.9047 70.6002C46.9047 70.7002 46.9047 70.8002 46.9047 70.9002C46.5047 70.9002 46.1047 71.0002 45.7047 71.0002C45.5047 71.0002 45.3047 71.0002 45.1047 71.1002C45.0047 71.1002 44.6047 71.2002 44.5047 71.1002C44.3047 71.0002 44.3047 70.8002 44.3047 70.6002C44.3047 70.4002 44.3047 70.2002 44.3047 70.0002C44.3047 69.6002 44.3047 69.2002 44.3047 68.8002C44.3047 68.7002 44.3047 68.6002 44.4047 68.5002C44.5047 68.4002 44.6047 68.4002 44.7047 68.4002C44.9047 68.4002 45.2047 68.4002 45.4047 68.3002C45.9047 68.3002 46.3047 68.2002 46.8047 68.2002C46.8047 68.3002 46.8047 68.4002 46.8047 68.5002C46.3047 68.5002 45.7047 68.6002 45.2047 68.6002C45.0047 68.6002 44.9047 68.6002 44.7047 68.6002C44.6047 68.6002 44.5047 68.7002 44.5047 68.8002C44.5047 69.1002 44.5047 69.3002 44.5047 69.6002C44.6047 70.2002 44.6047 70.5002 44.6047 70.7002Z" fill="#595757"/>
<path d="M43.7062 62.8002C43.7062 62.6002 43.6063 62.5002 43.4062 62.4002C43.2062 62.3002 43.1063 62.3002 42.9062 62.3002C42.2063 62.4002 41.5062 62.4002 40.8062 62.5002C40.8062 62.9002 40.8062 63.4002 40.8062 63.8002C41.6062 63.7002 42.3062 63.7002 43.1062 63.6002C43.5062 63.5002 43.7062 63.2002 43.7062 62.8002ZM42.6062 61.5002C42.8062 61.5002 43.0062 61.5002 43.2062 61.4002C43.4062 61.3002 43.5062 61.1002 43.5062 61.0002V60.9002C43.5062 60.7002 43.4062 60.5002 43.2062 60.4002C43.1062 60.4002 43.1062 60.4002 43.0062 60.4002C42.3062 60.5002 41.6062 60.5002 40.9062 60.6002C40.9062 61.0002 40.9062 61.4002 40.9062 61.8002C41.3063 61.8002 41.7062 61.7002 42.1062 61.7002C42.2062 61.5002 42.4062 61.5002 42.6062 61.5002ZM44.5062 60.4002C44.6062 60.8002 44.5062 61.3002 44.3062 61.7002C45.3062 62.5002 44.7062 64.2002 43.5062 64.3002C42.3062 64.4002 41.1063 64.5002 39.9062 64.6002C39.9062 63.3002 39.9062 62.1002 39.9062 60.8002C40.2063 60.6002 40.6062 60.5002 40.9062 60.3002C40.9062 60.0002 40.9062 59.7002 40.9062 59.4002C41.6062 59.3002 42.2063 59.3002 42.9062 59.2002C42.9062 59.2002 42.9062 59.2002 43.0062 59.2002C43.3062 59.2002 43.5062 59.2002 43.8062 59.3002C44.1062 59.6002 44.4062 60.0002 44.5062 60.4002Z" fill="#595757"/>
<path d="M40.8047 58.5V59.6L39.8047 60.1V59L40.8047 58.5Z" fill="#595757"/>
<path d="M67.9078 137.7C67.9078 137.5 67.8078 137.2 67.5078 137.1C67.0078 136.9 66.5078 137.3 66.5078 137.8V143.5C66.5078 143.8 66.6078 144 66.9078 144.1C67.4078 144.3 67.8078 143.8 67.8078 143.4L67.9078 137.7Z" fill="#595757"/>
<path d="M14.2031 69.7002L19.2031 72.1002" stroke="#595757" stroke-width="0.8504" stroke-linecap="round" stroke-linejoin="round"/>
<path d="M68.8031 172.3C67.6031 172.5 65.4031 172.7 64.2031 172.8" stroke="#595757" stroke-width="0.8504" stroke-linecap="round" stroke-linejoin="round"/>
<path d="M49.6016 171.899C50.9016 172.199 53.3016 172.599 54.6016 172.699" stroke="#595757" stroke-width="0.8504" stroke-linecap="round" stroke-linejoin="round"/>
<path d="M74.2031 170.699C74.3031 170.599 74.4031 170.499 74.5031 170.399" stroke="#595757" stroke-width="0.8504" stroke-linecap="round" stroke-linejoin="round"/>
<path d="M22.2031 60.2998L22.6031 60.3998" stroke="#595757" stroke-width="0.8504" stroke-linecap="round" stroke-linejoin="round"/>
<path d="M55.1016 135.3V169C55.1016 169.6 54.6016 170 54.0016 170H53.1016" stroke="#595757" stroke-width="0.8504" stroke-linecap="round" stroke-linejoin="round"/>
<path d="M55.1016 135.499C55.1016 132.399 57.5016 129.799 60.6016 129.399" stroke="#595757" stroke-width="0.8504" stroke-linecap="round" stroke-linejoin="round"/>
<path d="M60.5 129.4L72.3 128.2" stroke="#595757" stroke-width="0.8504" stroke-linecap="round" stroke-linejoin="round"/>
<path d="M77.6031 133.3V166.8C77.6031 167.3 77.3031 167.8 76.8031 168L76.2031 168.2" stroke="#595757" stroke-width="0.8504" stroke-linecap="round" stroke-linejoin="round"/>
<path d="M72.3047 128.199C73.7047 128.099 75.1047 128.499 76.2047 129.499C77.1047 130.499 77.6047 131.899 77.6047 133.299" stroke="#595757" stroke-width="0.8504" stroke-linecap="round" stroke-linejoin="round"/>
<path d="M80.4 147.7C80.4 137.2 80.4 132.4 80.4 121.9C80.4 118.5 77.4 115.8 74 116.1" stroke="#595757" stroke-width="0.8504" stroke-linecap="round" stroke-linejoin="round"/>
<path d="M80.7 157.199C81.3 156.599 82 156.399 82 156.399C82.7 156.299 83.4 156.299 84 156.199C85.2 156.099 86.4 155.999 87.6 155.899C89.3 155.699 90.6 154.299 90.6 152.599C90.6 115.199 90.6 77.6993 90.7 40.2993C90.7 38.2993 89 36.7993 87.1 36.9993C86 37.0993 84.9 37.1993 83.9 37.2993C68.1 38.6993 52.3 40.1993 36.6 41.5993C34.6 41.7993 33 43.4993 33 45.4993C33.1 82.5993 33.1 119.799 33.2 156.899C33.2 158.999 35 160.699 37.1 160.499C39.2 160.299 41.3 160.099 44.5 159.799C44.5 159.799 45.9 159.699 47.3 160.499" stroke="#595757" stroke-width="0.8504" stroke-linecap="round" stroke-linejoin="round"/>
<path d="M15.9016 90.8994C15.8016 90.8994 15.7016 90.8994 15.6016 90.8994" stroke="#595757" stroke-width="0.8504" stroke-linecap="round" stroke-linejoin="round"/>
<path d="M3.60156 137.8C3.90156 138.1 4.10156 138.3 4.50156 138.4C5.30156 138.7 5.90156 138.5 6.50156 137.9C7.00156 137.4 7.30156 136.6 7.50156 136C7.90156 134.7 8.10156 133.1 8.10156 131.7C8.00156 114.6 8.00156 97.4002 8.00156 80.2002" stroke="#595757" stroke-width="0.8504" stroke-linecap="round" stroke-linejoin="round"/>
<circle cx="79.5033" cy="166.2" r="0.4252" fill="#595757"/>
<path d="M22.2 60.2998L16 57.7998" stroke="#595757" stroke-width="0.8504" stroke-linecap="round" stroke-linejoin="round"/>
<path d="M74.4062 168.399H74.5062" stroke="#595757" stroke-width="0.8504" stroke-linecap="round" stroke-linejoin="round"/>
<path d="M31.5 31.7996C41.1 30.8996 50.8 30.0996 60.4 29.1996C70 28.2996 79.6 27.4996 89.2 26.5996" stroke="#595757" stroke-width="0.8504" stroke-linecap="round" stroke-linejoin="round"/>
<path d="M15.2031 93.2998L22.6031 96.3998" stroke="#595757" stroke-width="0.8504" stroke-linecap="round" stroke-linejoin="round"/>
<path d="M74.5 168.6V170.4" stroke="#595757" stroke-width="0.8504" stroke-linecap="round" stroke-linejoin="round"/>
<path d="M67.7 192.3L59.5 193.1" stroke="#595757" stroke-width="0.8504" stroke-linecap="round" stroke-linejoin="round"/>
<path d="M59.5031 193.1C57.5031 193.3 55.1031 193.3 53.2031 193.1" stroke="#595757" stroke-width="0.8504" stroke-linecap="round" stroke-linejoin="round"/>
<path d="M50.2062 169.6C48.6062 169.4 47.0063 169.2 45.4062 169.1" stroke="#595757" stroke-width="0.8504" stroke-linecap="round" stroke-linejoin="round"/>
<path d="M49.6047 171.9C48.9047 171.7 46.7047 171.2 46.3047 170.3" stroke="#595757" stroke-width="0.8504" stroke-linecap="round" stroke-linejoin="round"/>
<path d="M5.90625 79.2994C5.90625 78.3994 5.70625 77.3994 5.40625 76.4994C5.20625 76.0994 5.00625 75.5994 4.60625 75.2994C4.10625 74.8994 3.70625 75.0994 3.40625 75.5994C3.50625 75.4994 3.60625 75.2994 3.70625 75.1994C3.80625 74.9994 4.00625 74.6994 4.40625 74.6994C5.10625 74.5994 5.60625 75.5994 5.80625 76.0994C6.10625 76.7994 6.30625 77.3994 6.30625 78.0994" stroke="#595757" stroke-width="0.8504" stroke-linecap="round" stroke-linejoin="round"/>
<path d="M27.9047 169.499C26.4047 168.999 25.2047 167.899 24.5047 166.499C23.8047 164.999 23.8047 163.499 23.8047 161.899" stroke="#595757" stroke-width="0.8504" stroke-linecap="round" stroke-linejoin="round"/>
<path d="M22.6016 60.3994C23.3016 60.5994 23.7016 61.5994 23.9016 62.1994C24.1016 62.8994 24.2016 63.5994 24.2016 64.3994" stroke="#595757" stroke-width="0.8504" stroke-linecap="round" stroke-linejoin="round"/>
<path d="M24.3016 93.7002C24.3016 94.3002 24.2016 94.8002 24.1016 95.3002C24.0016 95.7002 23.7016 96.4002 23.1016 96.5002" stroke="#595757" stroke-width="0.8504" stroke-linecap="round" stroke-linejoin="round"/>
<path d="M23.7031 104.1C23.7031 103.2 23.7031 102.4 23.9031 101.5C24.1031 100.6 24.4031 99.9996 24.9031 99.0996C25.4031 98.2996 25.7031 97.6996 25.9031 96.6996C26.1031 95.7996 26.1031 94.9996 26.1031 94.0996" stroke="#595757" stroke-width="0.8504" stroke-linecap="round" stroke-linejoin="round"/>
<path d="M26.0063 94.2L25.9062 65" stroke="#595757" stroke-width="0.8504" stroke-linecap="round" stroke-linejoin="round"/>
<path d="M23.6016 53.2998C23.6016 55.8998 23.9016 56.7998 24.8016 59.0998C25.7016 61.3998 25.9016 62.3998 26.0016 64.8998" stroke="#595757" stroke-width="0.8504" stroke-linecap="round" stroke-linejoin="round"/>
<path d="M23.5 40.8002C23.5 39.7002 23.5 38.6002 23.9 37.4002C24.2 36.3002 24.7 35.3002 25.5 34.4002C26.3 33.5002 27.1 32.9002 28.2 32.4002C29.3 31.9002 30.4 31.8002 31.5 31.7002" stroke="#595757" stroke-width="0.8504" stroke-linecap="round" stroke-linejoin="round"/>
<path d="M89.5 26.6C91 26.5 92.3 26.4 93.7 27.1" stroke="#595757" stroke-width="0.8504" stroke-linecap="round" stroke-linejoin="round"/>
<path d="M19.8047 72.5C21.0047 73 21.9047 74 22.4047 75.2" stroke="#595757" stroke-width="0.8504" stroke-linecap="round" stroke-linejoin="round"/>
<path d="M14.7031 74.6996C15.9031 74.5996 17.1031 74.9996 18.0031 75.8996C18.9031 76.7996 19.3031 77.9996 19.3031 79.1996" stroke="#595757" stroke-width="0.8504" stroke-linecap="round" stroke-linejoin="round"/>
<path d="M6.3 86.7002C6.3 87.1002 6.2 87.6002 6 87.9002" stroke="#595757" stroke-width="0.8504" stroke-linecap="round" stroke-linejoin="round"/>
<path d="M17.6016 72.1C18.4016 72 19.1016 72.1 19.8016 72.4" stroke="#595757" stroke-width="0.8504" stroke-linecap="round" stroke-linejoin="round"/>
<path d="M6.30313 86.7L6.20312 79.5" stroke="#595757" stroke-width="0.8504" stroke-linecap="round" stroke-linejoin="round"/>
<path d="M12.8031 71.7002C10.9031 71.9002 9.20313 72.9002 8.00313 74.3002C6.80313 75.7002 6.20312 77.6002 6.20312 79.4002" stroke="#595757" stroke-width="0.8504" stroke-linecap="round" stroke-linejoin="round"/>
<path d="M23.2016 87.3998L23.1016 78.7998" stroke="#595757" stroke-width="0.8504" stroke-linecap="round" stroke-linejoin="round"/>
<path d="M20.5 90.4994C22 90.3994 23.1 88.8994 23.1 87.3994" stroke="#595757" stroke-width="0.8504" stroke-linecap="round" stroke-linejoin="round"/>
<path d="M20.3062 90.5L15.9062 90.9" stroke="#595757" stroke-width="0.8504" stroke-linecap="round" stroke-linejoin="round"/>
<path d="M46.3047 170.3V169.2" stroke="#595757" stroke-width="0.8504" stroke-linecap="round" stroke-linejoin="round"/>
<path d="M4.00625 81.9C3.10625 81 2.90625 79.1 2.90625 78" stroke="#595757" stroke-width="0.8504" stroke-linecap="round" stroke-linejoin="round"/>
<path d="M4.40625 74.6994L7.90625 74.3994" stroke="#595757" stroke-width="0.8504" stroke-linecap="round" stroke-linejoin="round"/>
<path d="M2.80469 78.0996C2.80469 77.3996 2.90469 76.2996 3.30469 75.5996" stroke="#595757" stroke-width="0.8504" stroke-linecap="round" stroke-linejoin="round"/>
<circle cx="23.1049" cy="96.4994" r="0.4252" fill="#595757"/>
<path d="M23.1047 96.4994C23.0047 96.4994 22.9047 96.4994 22.8047 96.3994" stroke="#595757" stroke-width="0.8504" stroke-linecap="round" stroke-linejoin="round"/>
<path d="M60 169.899L74.4 168.399" stroke="#595757" stroke-width="0.8504" stroke-linecap="round" stroke-linejoin="round"/>
<path d="M51.5 169.8C54.8 170.2 56.7 170.2 60 169.9" stroke="#595757" stroke-width="0.8504" stroke-linecap="round" stroke-linejoin="round"/>
<path d="M51.5031 169.8L50.2031 169.6" stroke="#595757" stroke-width="0.8504" stroke-linecap="round" stroke-linejoin="round"/>
<path d="M24.2031 64.3994L24.3031 93.6994" stroke="#595757" stroke-width="0.8504" stroke-linecap="round" stroke-linejoin="round"/>
<path d="M22.7016 96.4994L22.6016 96.3994" stroke="#595757" stroke-width="0.8504" stroke-linecap="round" stroke-linejoin="round"/>
<path d="M23.8031 161.9C23.8031 144.7 23.7031 127.5 23.7031 110.2" stroke="#595757" stroke-width="0.8504" stroke-linecap="round" stroke-linejoin="round"/>
<path d="M23.7031 110.2V104.1" stroke="#595757" stroke-width="0.8504" stroke-linecap="round" stroke-linejoin="round"/>
<path d="M23.6016 53.2996C23.6016 49.1996 23.6016 45.1996 23.6016 41.0996" stroke="#595757" stroke-width="0.8504" stroke-linecap="round" stroke-linejoin="round"/>
<path d="M89.2031 26.5996C89.3031 26.5996 89.4031 26.5996 89.5031 26.5996" stroke="#595757" stroke-width="0.8504" stroke-linecap="round" stroke-linejoin="round"/>
<path d="M23.5 41.0998C23.5 40.9998 23.5 40.8998 23.5 40.7998" stroke="#595757" stroke-width="0.8504" stroke-linecap="round" stroke-linejoin="round"/>
<path d="M14.7016 84.5996C13.5016 84.6996 12.3016 84.2996 11.4016 83.3996C10.5016 82.4996 10.1016 81.2996 10.1016 80.0996" stroke="#595757" stroke-width="0.8504" stroke-linecap="round" stroke-linejoin="round"/>
<path d="M19.2016 79.2002C19.2016 80.5002 18.7016 81.8002 17.9016 82.8002C17.1016 83.8002 15.9016 84.5002 14.6016 84.6002" stroke="#595757" stroke-width="0.8504" stroke-linecap="round" stroke-linejoin="round"/>
<path d="M8 80.1994C8 78.2994 8.7 76.4994 9.8 74.9994C11 73.5994 12.7 72.4994 14.6 72.3994" stroke="#595757" stroke-width="0.8504" stroke-linecap="round" stroke-linejoin="round"/>
<path d="M22.4062 75.0996C22.9062 76.2996 23.1063 77.4996 23.1063 78.7996" stroke="#595757" stroke-width="0.8504" stroke-linecap="round" stroke-linejoin="round"/>
<path d="M5.9 79.2998C5.9 79.9998 5.8 80.6998 5.6 81.3998C5.3 82.1998 4.7 82.5998 4 81.8998" stroke="#595757" stroke-width="0.8504" stroke-linecap="round" stroke-linejoin="round"/>
<path d="M6.20156 82.5996L5.10156 82.6996" stroke="#595757" stroke-width="0.8504" stroke-linecap="round" stroke-linejoin="round"/>
<path d="M15.9047 71.3994L12.8047 71.6994" stroke="#595757" stroke-width="0.8504" stroke-linecap="round" stroke-linejoin="round"/>
<circle cx="23.2064" cy="82.3998" r="0.4252" fill="#595757"/>
<path d="M12.6016 69.8994C12.4016 69.8994 12.2016 69.8994 12.1016 69.8994" stroke="#595757" stroke-width="0.8504" stroke-linecap="round" stroke-linejoin="round"/>
<path d="M16.0016 58.6998C15.9016 58.6998 15.6016 58.4998 15.6016 58.2998" stroke="#595757" stroke-width="0.8504" stroke-linecap="round" stroke-linejoin="round"/>
<path d="M10.1016 80.1002C10.1016 78.8002 10.6016 77.5002 11.4016 76.5002C12.2016 75.5002 13.4016 74.8002 14.7016 74.7002" stroke="#595757" stroke-width="0.8504" stroke-linecap="round" stroke-linejoin="round"/>
<path d="M14.5 72.3996L17.6 72.0996" stroke="#595757" stroke-width="0.8504" stroke-linecap="round" stroke-linejoin="round"/>
<path d="M6.1 87.7998C6.1 87.7998 6.1 87.8998 6 87.8998" stroke="#595757" stroke-width="0.8504" stroke-linecap="round" stroke-linejoin="round"/>
<path d="M6 87.8994C5.9 88.0994 5.7 88.1994 5.5 88.0994" stroke="#595757" stroke-width="0.8504" stroke-linecap="round" stroke-linejoin="round"/>
<path d="M18.2063 71.7994C17.4063 71.4994 16.7063 71.3994 15.9062 71.3994" stroke="#595757" stroke-width="0.8504" stroke-linecap="round" stroke-linejoin="round"/>
<path d="M18.2031 71.7998L19.8031 72.4998" stroke="#595757" stroke-width="0.8504" stroke-linecap="round" stroke-linejoin="round"/>
<path d="M3.20625 87.0996C2.90625 86.9996 2.70625 86.4996 2.60625 86.1996C2.50625 85.7996 2.40625 85.4996 2.40625 85.0996" stroke="#595757" stroke-width="0.8504" stroke-linecap="round" stroke-linejoin="round"/>
<path d="M5.50312 88.0996L3.20312 87.0996" stroke="#595757" stroke-width="0.8504" stroke-linecap="round" stroke-linejoin="round"/>
<path d="M12.1 69.8994L9 70.1994" stroke="#595757" stroke-width="0.8504" stroke-linecap="round" stroke-linejoin="round"/>
<path d="M9 70.2002C7.1 70.4002 5.4 71.4002 4.3 72.8002C3.1 74.2002 2.5 76.1002 2.5 77.9002" stroke="#595757" stroke-width="0.8504" stroke-linecap="round" stroke-linejoin="round"/>
<path d="M2.5 85.0994V77.8994" stroke="#595757" stroke-width="0.8504" stroke-linecap="round" stroke-linejoin="round"/>
<path d="M20.3047 90.5H20.5047" stroke="#595757" stroke-width="0.8504" stroke-linecap="round" stroke-linejoin="round"/>
<path d="M7.90625 74.3994H8.00625" stroke="#595757" stroke-width="0.8504" stroke-linecap="round" stroke-linejoin="round"/>
<path d="M14.9062 93.0996C14.9062 93.1996 15.1063 93.2996 15.2063 93.2996" stroke="#595757" stroke-width="0.8504" stroke-linecap="round" stroke-linejoin="round"/>
<path d="M46.4062 171.4C45.9062 171.2 44.9062 170.7 44.9062 170" stroke="#595757" stroke-width="0.8504" stroke-linecap="round" stroke-linejoin="round"/>
<path d="M74.7031 172.1L59.7031 173.6" stroke="#595757" stroke-width="0.8504" stroke-linecap="round" stroke-linejoin="round"/>
<path d="M5.10156 82.7002C5.80156 82.6002 6.10156 81.7002 6.20156 81.2002" stroke="#595757" stroke-width="0.8504" stroke-linecap="round" stroke-linejoin="round"/>
<path d="M78.9047 170.8C78.9047 171.2 78.3047 171.4 78.1047 171.5C77.7047 171.6 77.4047 171.7 77.0047 171.8C76.3047 172 75.5047 172.1 74.8047 172.1" stroke="#595757" stroke-width="0.8504" stroke-linecap="round" stroke-linejoin="round"/>
<path d="M59.7 173.599C58.1 173.799 56.4 173.799 54.8 173.699C53.5 173.599 51.2 173.399 50 172.899" stroke="#595757" stroke-width="0.8504" stroke-linecap="round" stroke-linejoin="round"/>
<path d="M50.0062 172.899L46.4062 171.399" stroke="#595757" stroke-width="0.8504" stroke-linecap="round" stroke-linejoin="round"/>
<path d="M64.2016 172.8C61.0016 173 57.8016 172.9 54.6016 172.7" stroke="#595757" stroke-width="0.8504" stroke-linecap="round" stroke-linejoin="round"/>
<path d="M74.2047 170.7C73.0047 171.6 70.1047 172.2 68.8047 172.4" stroke="#595757" stroke-width="0.8504" stroke-linecap="round" stroke-linejoin="round"/>
<path d="M53.5 198.5C54.5 199.3 57.4 199.5 58.5 199.6C60.2 199.7 61.9 199.7 63.7 199.5" stroke="#595757" stroke-width="0.8504" stroke-linecap="round" stroke-linejoin="round"/>
<path d="M63.6016 199.5C64.5016 199.4 66.7016 199.1 67.5016 198.5" stroke="#595757" stroke-width="0.8504" stroke-linecap="round" stroke-linejoin="round"/>
<path d="M4.30469 82.2998C4.50469 82.4998 4.80469 82.6998 5.10469 82.6998" stroke="#595757" stroke-width="0.8504" stroke-linecap="round" stroke-linejoin="round"/>
<path d="M4.3 82.2994C4.2 82.1994 4.1 82.0994 4 81.8994" stroke="#595757" stroke-width="0.8504" stroke-linecap="round" stroke-linejoin="round"/>
<path d="M5.8 118.1C5.7 118.1 5.6 118.1 5.5 118C5.1 117.7 5 117.1 5 116.7C5 116.5 5 116.2 5.2 116C5.3 115.9 5.4 115.9 5.5 115.9C5.6 115.9 5.7 115.9 5.8 116C6.2 116.3 6.3 116.9 6.3 117.3C6.3 117.5 6.3 117.8 6.1 118C6 118.1 5.9 118.1 5.8 118.1Z" fill="#595757"/>
<path d="M5.8 124.9C5.7 124.9 5.6 124.9 5.5 124.8C5.1 124.5 5 123.9 5 123.5C5 123.3 5 123 5.2 122.8C5.3 122.7 5.4 122.7 5.5 122.7C5.6 122.7 5.7 122.7 5.8 122.8C6.2 123.1 6.3 123.7 6.3 124.1C6.3 124.3 6.3 124.6 6.1 124.8C6 124.8 5.9 124.9 5.8 124.9Z" fill="#595757"/>
<path d="M5.8 121.5C5.7 121.5 5.6 121.5 5.5 121.4C5.2 121.1 5 120.5 5 120C5 119.8 5 119.5 5.2 119.3C5.3 119.2 5.4 119.2 5.5 119.2C5.6 119.2 5.7 119.2 5.8 119.3C6.2 119.6 6.3 120.2 6.3 120.6C6.3 120.8 6.3 121.1 6.1 121.3C6 121.5 5.9 121.5 5.8 121.5Z" fill="#595757"/>
<path d="M5.8 128.3C5.7 128.3 5.6 128.3 5.5 128.2C5.1 127.9 5 127.3 5 126.9C5 126.7 5 126.4 5.2 126.2C5.3 126.1 5.4 126.1 5.5 126.1C5.6 126.1 5.7 126.1 5.8 126.2C6.2 126.5 6.3 127.1 6.3 127.5C6.3 127.7 6.3 128 6.1 128.2C6 128.2 5.9 128.3 5.8 128.3Z" fill="#595757"/>
<path d="M3.69844 120.4C3.59844 120.4 3.49844 120.4 3.39844 120.3C2.99844 120 2.89844 119.4 2.89844 119C2.89844 118.8 2.89844 118.5 3.09844 118.3C3.19844 118.2 3.29844 118.2 3.39844 118.2C3.49844 118.2 3.59844 118.2 3.69844 118.3C4.09844 118.6 4.19844 119.2 4.19844 119.6C4.19844 119.8 4.19844 120.1 3.99844 120.3C3.89844 120.4 3.79844 120.4 3.69844 120.4Z" fill="#595757"/>
<path d="M3.69844 113.7C3.59844 113.7 3.49844 113.7 3.39844 113.6C2.99844 113.3 2.89844 112.7 2.89844 112.3C2.89844 112.1 2.89844 111.8 3.09844 111.6C3.19844 111.5 3.29844 111.5 3.39844 111.5C3.49844 111.5 3.59844 111.5 3.69844 111.6C4.09844 111.9 4.19844 112.5 4.19844 112.9C4.19844 113.1 4.19844 113.4 3.99844 113.6C3.89844 113.6 3.79844 113.7 3.69844 113.7Z" fill="#595757"/>
<path d="M3.29688 111.7C3.39688 111.6 3.39688 111.6 3.39688 111.6Z" fill="#595757"/>
<path d="M5.8 131.7C5.7 131.7 5.6 131.7 5.5 131.6C5.1 131.3 5 130.7 5 130.3C5 130.1 5 129.8 5.2 129.6C5.3 129.5 5.4 129.5 5.5 129.5C5.6 129.5 5.7 129.5 5.8 129.6C6.2 129.9 6.3 130.5 6.3 130.9C6.3 131.1 6.3 131.4 6.1 131.6C5.9 131.6 5.9 131.7 5.8 131.7Z" fill="#595757"/>
<path d="M3.69844 123.8C3.59844 123.8 3.49844 123.8 3.39844 123.7C2.99844 123.4 2.89844 122.8 2.89844 122.4C2.89844 122.2 2.89844 121.9 3.09844 121.7C3.19844 121.6 3.29844 121.6 3.39844 121.6C3.49844 121.6 3.59844 121.6 3.69844 121.7C4.09844 122 4.19844 122.6 4.19844 123C4.19844 123.2 4.19844 123.5 3.99844 123.7C3.79844 123.8 3.79844 123.8 3.69844 123.8Z" fill="#595757"/>
<path d="M3.69844 123.8C3.59844 123.8 3.49844 123.8 3.39844 123.7C2.99844 123.4 2.89844 122.8 2.89844 122.4C2.89844 122.2 2.89844 121.9 3.09844 121.7C3.19844 121.6 3.29844 121.6 3.39844 121.6C3.49844 121.6 3.59844 121.6 3.69844 121.7C4.09844 122 4.19844 122.6 4.19844 123C4.19844 123.2 4.19844 123.5 3.99844 123.7C3.79844 123.8 3.79844 123.8 3.69844 123.8Z" fill="#595757"/>
<path d="M3.7 123.7C3.6 123.7 3.5 123.7 3.5 123.6C3.2 123.3 3 122.8 3 122.4C3 122.3 3 121.9 3.2 121.8C3.2 121.8 3.3 121.7 3.4 121.7C3.5 121.7 3.6 121.7 3.6 121.8C3.9 122 4 122.6 4 123C4 123.2 4 123.5 3.8 123.6C3.8 123.7 3.7 123.7 3.7 123.7Z" fill="#595757"/>
<path d="M5.89375 114.7C5.79375 114.7 5.69375 114.7 5.59375 114.6C5.19375 114.3 5.09375 113.7 5.09375 113.3C5.09375 113.1 5.09375 112.8 5.29375 112.6C5.39375 112.5 5.49375 112.5 5.59375 112.5C5.69375 112.5 5.79375 112.5 5.89375 112.6C6.29375 112.9 6.39375 113.5 6.39375 113.9C6.39375 114.1 6.39375 114.4 6.19375 114.6C6.09375 114.7 5.99375 114.7 5.89375 114.7Z" fill="#595757"/>
<path d="M3.59687 127.2C3.49687 127.2 3.39688 127.2 3.29688 127.1C2.89687 126.8 2.79688 126.2 2.79688 125.8C2.79688 125.6 2.79688 125.3 2.99688 125.1C3.09688 125 3.19687 125 3.29688 125C3.39688 125 3.49687 125 3.59687 125.1C3.99687 125.4 4.09687 126 4.09687 126.4C4.09687 126.6 4.09688 126.9 3.89688 127.1C3.79688 127.2 3.69687 127.2 3.59687 127.2Z" fill="#595757"/>
<path d="M3.69844 117.1C3.59844 117.1 3.49844 117.1 3.39844 117C3.09844 116.7 2.89844 116.1 2.89844 115.7C2.89844 115.5 2.89844 115.2 3.09844 115C3.19844 114.9 3.29844 114.9 3.39844 114.9C3.49844 114.9 3.59844 114.9 3.69844 115C4.09844 115.3 4.19844 115.9 4.19844 116.3C4.19844 116.4 4.19844 116.8 3.99844 117C3.89844 117 3.79844 117.1 3.69844 117.1Z" fill="#595757"/>
<path d="M3.59687 130.6C3.49687 130.6 3.39688 130.6 3.29688 130.5C2.89687 130.2 2.79688 129.6 2.79688 129.2C2.79688 129 2.79688 128.7 2.99688 128.5C3.09688 128.4 3.19687 128.4 3.29688 128.4C3.39688 128.4 3.49687 128.4 3.59687 128.5C3.99687 128.8 4.09687 129.4 4.09687 129.8C4.09687 130 4.09688 130.3 3.89688 130.5C3.79688 130.6 3.69687 130.6 3.59687 130.6Z" fill="#595757"/>
<path d="M28.7031 27.6002C28.7031 26.4002 28.7031 27.0002 28.7031 25.8002C28.7031 25.2002 30.0031 24.9002 30.4031 24.7002" stroke="#595757" stroke-width="1.5" stroke-linecap="round" stroke-linejoin="round"/>
<path d="M38.6969 26.9002V26.6002C38.6969 25.5002 38.6969 26.2002 38.6969 25.6002C38.6969 25.3002 38.4969 25.1002 38.1969 25.0002C37.8969 24.9002 37.5969 24.8002 37.2969 24.7002" stroke="#595757" stroke-width="1.5" stroke-linecap="round" stroke-linejoin="round"/>
<path d="M29 27.6998C29 27.7998 29 29.5998 29.1 29.6998C29.3 29.7998 29.6 29.8998 29.8 29.9998C30.1 30.0998 30.4 30.0998 30.7 30.1998C31.3 30.2998 31.9 30.2998 32.5 30.3998C33.7 30.4998 34.9 30.4998 36 30.3998C36.5 30.3998 36.9 30.2998 37.4 30.1998C37.6 30.1998 37.8 30.0998 38.1 29.9998C38.2 29.9998 38.6 29.7998 38.6 29.5998L38.5 26.7998" stroke="#595757" stroke-width="0.8504" stroke-linecap="round" stroke-linejoin="round"/>
<path d="M30.6969 25.2002C30.6969 25.2002 30.2969 25.4002 30.2969 25.6002C30.3969 25.9002 30.6969 26.0002 31.4969 26.2002C32.0969 26.3002 32.6969 26.4002 34.0969 26.4002C34.6969 26.4002 35.5969 26.3002 36.3969 26.1002C36.9969 25.9002 36.8969 25.5002 36.4969 25.4002" stroke="#595757" stroke-width="0.8504" stroke-linecap="round" stroke-linejoin="round"/>
</g>
<defs>
<clipPath id="clip0_14518_105201">
<rect width="97.8" height="202.9" fill="white"/>
</clipPath>
</defs>
</svg>
