<?xml version="1.0" encoding="utf-8"?>
<!-- Generator: Adobe Illustrator 27.0.1, SVG Export Plug-In . SVG Version: 6.00 Build 0)  -->
<svg version="1.1" id="Layer_1" xmlns="http://www.w3.org/2000/svg" xmlns:xlink="http://www.w3.org/1999/xlink" x="0px" y="0px"
	 width="16px" height="16px" viewBox="0 0 16 16" enable-background="new 0 0 16 16" xml:space="preserve">
<path fill="#ED6B21" d="M3.0597045,10.3634434H0.5884437C0.2628375,10.3634434,0,10.100606,0,9.7750006
	c0-0.3256063,0.2628375-0.5884438,0.5884437-0.5884438h2.4712608c0.3256061,0,0.5884435,0.2628374,0.5884435,0.5884438
	C3.6481481,10.100606,3.3853078,10.3634434,3.0597045,10.3634434z"/>
<path fill="#ED6B21" d="M12.0967369,10.3634434h-2.471261c-0.3256063,0-0.5884438-0.2628374-0.5884438-0.5884428
	c0-0.3256063,0.2628374-0.5884438,0.5884438-0.5884438h2.471261c0.3256063,0,0.5884438,0.2628374,0.5884438,0.5884438
	C12.6851807,10.100606,12.4223404,10.3634434,12.0967369,10.3634434z"/>
<path fill="#ED6B21" d="M7.5782208,10.3634434h-2.471261c-0.3256059,0-0.5884438-0.2628374-0.5884438-0.5884428
	c0-0.3256063,0.2628379-0.5884438,0.5884438-0.5884438h2.471261c0.3256059,0,0.5884433,0.2628374,0.5884433,0.5884438
	C8.1666641,10.100606,7.9038239,10.3634434,7.5782208,10.3634434z"/>
<g>
	<path fill="#808080" d="M10.98001,11.9849854c-0.289978,0-0.5199585,0.2299805-0.5199585,0.5199585v0.5922852v0.3327637
		c0,0.289978-0.2300415,0.5200195-0.5200195,0.5200195H2.7452075c-0.289978,0-0.5200195-0.2300415-0.5200195-0.5200195V13.097229
		v-0.5922852c0-0.289978-0.2299803-0.5199585-0.5199584-0.5199585c-0.2900391,0-0.5200195,0.2299805-0.5200195,0.5199585v0.5922852
		v0.3327637C1.1852101,14.2999878,1.8952321,15,2.7552173,15h7.1748047c0.8599854,0,1.5700073-0.7000122,1.5700073-1.5700073
		V13.097229v-0.5922852C11.5000296,12.2149658,11.2700491,11.9849854,10.98001,11.9849854z"/>
	<path fill="#808080" d="M9.9300222,4.5499878H2.7552173c-0.8599852,0-1.5700072,0.7000122-1.5700072,1.5700073v0.3327637v0.5922852
		c0,0.289978,0.2299805,0.5199585,0.5200195,0.5199585c0.289978,0,0.5199584-0.2299805,0.5199584-0.5199585V6.4527588V6.1199951
		c0-0.289978,0.2300415-0.5200195,0.5200195-0.5200195H9.940032c0.289978,0,0.5200195,0.2300415,0.5200195,0.5200195v0.3327637
		v0.5922852c0,0.289978,0.2299805,0.5199585,0.5199585,0.5199585c0.2900391,0,0.5200195-0.2299805,0.5200195-0.5199585V6.4527588
		V6.1199951C11.5000296,5.25,10.7900076,4.5499878,9.9300222,4.5499878z"/>
</g>
</svg>
