<svg width="16" height="16" viewBox="0 0 16 16" fill="none" xmlns="http://www.w3.org/2000/svg">
<path fill-rule="evenodd" clip-rule="evenodd" d="M1.5 8C1.5 7.72386 1.72386 7.5 2 7.5H3V8.5H2C1.72386 8.5 1.5 8.27614 1.5 8ZM7 8.5H5V7.5H7V8.5ZM11 8.5H9V7.5H11V8.5ZM14 8.5H13V7.5H14C14.2761 7.5 14.5 7.72386 14.5 8C14.5 8.27614 14.2761 8.5 14 8.5Z" fill="#009688"/>
<path fill-rule="evenodd" clip-rule="evenodd" d="M2 1.5C2.27614 1.5 2.5 1.72386 2.5 2V3.5C2.5 4.32843 3.17157 5 4 5H12C12.8284 5 13.5 4.32843 13.5 3.5V2C13.5 1.72386 13.7239 1.5 14 1.5C14.2761 1.5 14.5 1.72386 14.5 2V3.5C14.5 4.88071 13.3807 6 12 6H4C2.61929 6 1.5 4.88071 1.5 3.5V2C1.5 1.72386 1.72386 1.5 2 1.5ZM1.5 12.5C1.5 11.1193 2.61929 10 4 10H12C13.3807 10 14.5 11.1193 14.5 12.5V14C14.5 14.2761 14.2761 14.5 14 14.5C13.7239 14.5 13.5 14.2761 13.5 14V12.5C13.5 11.6716 12.8284 11 12 11H4C3.17157 11 2.5 11.6716 2.5 12.5V14C2.5 14.2761 2.27614 14.5 2 14.5C1.72386 14.5 1.5 14.2761 1.5 14V12.5Z" fill="#323A3D"/>
</svg>
