<svg width="16" height="16" viewBox="0 0 16 16" fill="none" xmlns="http://www.w3.org/2000/svg">
<path fill-rule="evenodd" clip-rule="evenodd" d="M1.5 4C1.5 2.61929 2.61929 1.5 4 1.5H12C13.3807 1.5 14.5 2.61929 14.5 4V5.5C14.5 5.77614 14.2761 6 14 6C13.7239 6 13.5 5.77614 13.5 5.5V4C13.5 3.17157 12.8284 2.5 12 2.5H4C3.17157 2.5 2.5 3.17157 2.5 4V5.5C2.5 5.77614 2.27614 6 2 6C1.72386 6 1.5 5.77614 1.5 5.5V4ZM2 10C2.27614 10 2.5 10.2239 2.5 10.5V12C2.5 12.8284 3.17157 13.5 4 13.5H12C12.8284 13.5 13.5 12.8284 13.5 12V10.5C13.5 10.2239 13.7239 10 14 10C14.2761 10 14.5 10.2239 14.5 10.5V12C14.5 13.3807 13.3807 14.5 12 14.5H4C2.61929 14.5 1.5 13.3807 1.5 12V10.5C1.5 10.2239 1.72386 10 2 10Z" fill="#323A3D"/>
<path fill-rule="evenodd" clip-rule="evenodd" d="M1.5 8C1.5 7.72386 1.72386 7.5 2 7.5H3V8.5H2C1.72386 8.5 1.5 8.27614 1.5 8ZM7 8.5H5V7.5H7V8.5ZM11 8.5H9V7.5H11V8.5ZM14 8.5H13V7.5H14C14.2761 7.5 14.5 7.72386 14.5 8C14.5 8.27614 14.2761 8.5 14 8.5Z" fill="#eb4949"/>
</svg>
