<?xml version="1.0" standalone="no"?><!DOCTYPE svg PUBLIC "-//W3C//DTD SVG 1.1//EN" "http://www.w3.org/Graphics/SVG/1.1/DTD/svg11.dtd"><svg t="1634302375772" class="icon" viewBox="0 0 1170 1024" version="1.1" xmlns="http://www.w3.org/2000/svg" p-id="2705" xmlns:xlink="http://www.w3.org/1999/xlink" width="73.125" height="64"><defs><style type="text/css"></style></defs><path d="M1024 0H146.285714C65.828571 0 0 65.828571 0 146.285714v585.142857c0 80.457143 65.828571 146.285714 146.285714 146.285715h402.285715v73.142857h-292.571429c-21.942857 0-36.571429 14.628571-36.571429 36.571428s14.628571 36.571429 36.571429 36.571429h658.285714c21.942857 0 36.571429-14.628571 36.571429-36.571429s-14.628571-36.571429-36.571429-36.571428h-292.571428v-73.142857H1024c80.457143 0 146.285714-65.828571 146.285714-146.285715V146.285714c0-80.457143-65.828571-146.285714-146.285714-146.285714z m73.142857 731.428571c0 43.885714-29.257143 73.142857-73.142857 73.142858H146.285714c-43.885714 0-73.142857-29.257143-73.142857-73.142858V146.285714c0-43.885714 29.257143-73.142857 73.142857-73.142857h877.714286c43.885714 0 73.142857 29.257143 73.142857 73.142857v585.142857z" p-id="2706" fill="#e96d2a"></path><path d="M958.171429 336.457143l-117.028572 117.028571-190.171428-256c-7.314286-7.314286-21.942857-14.628571-36.571429-14.628571-7.314286 0-21.942857 7.314286-29.257143 21.942857L468.114286 504.685714 358.4 343.771429c-7.314286-7.314286-14.628571-14.628571-29.257143-14.628572s-21.942857 0-29.257143 7.314286l-146.285714 146.285714c-7.314286 14.628571-7.314286 43.885714 0 58.514286 7.314286 14.628571 36.571429 14.628571 51.2 0l117.028571-117.028572 124.342858 182.857143c7.314286 7.314286 14.628571 14.628571 29.257142 14.628572h7.314286c14.628571 0 21.942857-7.314286 29.257143-21.942857L629.028571 292.571429l182.857143 241.371428c7.314286 7.314286 14.628571 14.628571 29.257143 14.628572 7.314286 0 21.942857 0 29.257143-7.314286l146.285714-146.285714c14.628571-14.628571 14.628571-36.571429 0-51.2-14.628571-14.628571-43.885714-14.628571-58.514285-7.314286z" p-id="2707" fill="#e96d2a"></path></svg>