<svg width="14" height="13" xmlns="http://www.w3.org/2000/svg" fill="none">

 <g>
  <title>Layer 1</title>
  <path id="svg_1" fill="#6B6B6B" d="m0.91117,2.312c0,-0.37333 0.08867,-0.714 0.266,-1.022c0.17733,-0.31733 0.41533,-0.56467 0.714,-0.742c0.308,-0.17733 0.644,-0.266 1.008,-0.266c0.57867,0 1.05467,0.196 1.428,0.588c0.38267,0.38267 0.574,0.86333 0.574,1.442c0,0.56933 -0.19133,1.04533 -0.574,1.428c-0.37333,0.38267 -0.84933,0.574 -1.428,0.574c-0.364,0 -0.7,-0.08867 -1.008,-0.266c-0.29867,-0.17733 -0.53667,-0.41533 -0.714,-0.714c-0.17733,-0.308 -0.266,-0.64867 -0.266,-1.022zm0.924,0c0,0.336 0.098,0.61133 0.294,0.826c0.196,0.20533 0.45267,0.308 0.77,0.308c0.32667,0 0.588,-0.10267 0.784,-0.308c0.20533,-0.21467 0.308,-0.49 0.308,-0.826c0,-0.34533 -0.10267,-0.62533 -0.308,-0.84c-0.196,-0.21467 -0.45733,-0.322 -0.784,-0.322c-0.31733,0 -0.574,0.10733 -0.77,0.322c-0.196,0.21467 -0.294,0.49467 -0.294,0.84zm7.812,8.694c1.12003,0 1.94133,-0.518 2.46403,-1.554l1.008,0.588c-0.2894,0.6627 -0.7374,1.1807 -1.344,1.554c-0.6067,0.3733 -1.3067,0.56 -2.10003,0.56c-0.868,0 -1.65667,-0.224 -2.366,-0.672c-0.70933,-0.448 -1.26933,-1.0733 -1.68,-1.876c-0.41067,-0.80267 -0.616,-1.71733 -0.616,-2.744c0,-1.02667 0.20533,-1.94133 0.616,-2.744c0.41067,-0.80267 0.97067,-1.42333 1.68,-1.862c0.70933,-0.448 1.498,-0.672 2.366,-0.672c0.79333,0 1.49333,0.18667 2.10003,0.56c0.6066,0.37333 1.0546,0.89133 1.344,1.554l-1.008,0.588c-0.5227,-1.036 -1.344,-1.554 -2.46403,-1.554c-0.65333,0 -1.232,0.17267 -1.736,0.518c-0.504,0.34533 -0.896,0.83067 -1.176,1.456c-0.27067,0.62533 -0.406,1.344 -0.406,2.156c0,0.812 0.13533,1.53533 0.406,2.17c0.28,0.62533 0.672,1.1107 1.176,1.456c0.504,0.3453 1.08267,0.518 1.736,0.518z"/>
 </g>
</svg>