<svg xmlns="http://www.w3.org/2000/svg" viewBox="0 0 16 16"><path d="M5.5,14.5c-1.1,0-2-3.69-2-7s.9-7,2-7" style="fill:none;stroke:#009688;stroke-linecap:round;stroke-linejoin:round"/><line x1="7.5" y1="7.5" x2="15.5" y2="7.5" style="fill:none;stroke:#949494;stroke-linecap:square;stroke-linejoin:round"/><path d="M3.5,13.7c-.29.51-.64.8-1,.8-1.1,0-2-3.69-2-7s.9-7,2-7c.36,0,.71.29,1,.81" style="fill:none;stroke:#949494;stroke-linecap:round;stroke-linejoin:round"/><path d="M6.73,4.5c.33-2.21,1-4,1.77-4,.35,0,.69.38,1,1" style="fill:none;stroke:#949494;stroke-linecap:round;stroke-linejoin:round"/><path d="M9.47,13.5c-.28.62-.62,1-1,1-.77,0-1.44-1.79-1.77-4" style="fill:none;stroke:#949494;stroke-linecap:round;stroke-linejoin:round"/></svg>