<svg xmlns="http://www.w3.org/2000/svg" width="16" height="16" viewBox="0 0 16 16"><path d="M5.5,14.5c-1.105,0-2-3.686-2-7s.895-7,2-7" style="fill:none;stroke:#009688;stroke-linecap:round;stroke-linejoin:round"/><line x1="7.5" y1="7.5" x2="15.5" y2="7.5" style="fill:none;stroke:#949494;stroke-linecap:square;stroke-linejoin:round"/><path d="M3.5,13.7c-.294.511-.636.8-1,.8-1.1,0-2-3.686-2-7s.9-7,2-7c.365,0,.707.293,1,.805" style="fill:none;stroke:#949494;stroke-linecap:round;stroke-linejoin:round"/><path d="M6.727,4.5c.334-2.208,1-4,1.773-4,.354,0,.686.378.974,1" style="fill:none;stroke:#949494;stroke-linecap:round;stroke-linejoin:round"/><path d="M9.474,13.5c-.288.622-.62,1-.974,1-.77,0-1.439-1.792-1.773-4" style="fill:none;stroke:#949494;stroke-linecap:round;stroke-linejoin:round"/></svg>