<svg width="96" height="110" fill="none" xmlns="http://www.w3.org/2000/svg"><g clip-path="url(#a)"><path d="M32.164 80.422c-.058-.057-.116-.057-.173-.057h-.116l-.173.172c0 .057-.058.114-.058.172 0 .114.058.286.116.4l.173.172c.058.057.115.057.173.057h.116l.173-.171c0-.058.058-.115.058-.172 0-.115-.058-.286-.116-.4l-.173-.172Zm0 .516c0 .057 0 .057 0 0h-.058c-.058-.058-.058-.115-.058-.172v-.057s.058 0 .058.057c.058.057.058.114.058.172Zm-8.199 12.309-.116-.114h-.173c-.057 0-.115.057-.173.172 0 .057-.058.114-.058.171 0 .115.058.23.116.344.058.057.115.114.173.114.058.058.115.058.173.058h.116c.057 0 .115-.058.173-.172v-.172a3.273 3.273 0 0 1-.231-.4ZM9.136 33.136h.115s.058 0 .058-.057l.057-.057v-.115l-.057-5.266c0-.058 0-.115-.058-.172 0-.058-.058-.115-.173-.115L5.095 25.81h-.173c-.057 0-.115.057-.115.114v.115a.435.435 0 0 0-.116.286l.058 4.866c0 .114.058.229.173.229 0 .114.058.172.173.229l4.04 1.488s-.057 0 0 0ZM9.02 31.82h.058-.058Zm0-.516h.058v.058l-.058-.058Zm-.058-.343.116-.057v.057h-.116Zm-.288-.23-.231-.056v-.23h.577l.058.058v.114l-.404.115Zm.288-1.831v-.458h.058v.458h-.058Zm0-.801v-.172h.058v.172h-.058Zm.058 4.58.116.057v.057l-.116-.115Zm-.866-5.44s0 .058 0 0a.435.435 0 0 0-.115.287l.058 4.809-.924-.344h.058c.058 0 .058-.057.058-.057h.057s0-.057.058-.057l.058-.057c.057-.058.057-.172.057-.287 0-.171-.057-.4-.173-.572a.449.449 0 0 0-.23-.23c-.058-.056-.116-.056-.174-.056h-.115a.449.449 0 0 0-.231.229c-.058.057-.058.171-.058.286 0 .172.058.4.173.572 0 .058.058.058.058.115l-1.674-.63-.057-4.866s0-.057.057-.057l.174-.115 2.885 1.03Zm2.133 53.986c-.058-.115-.058-.172-.115-.23a1.156 1.156 0 0 0-.462-.458l-2.713-1.145a.37.37 0 0 0-.346 0c-.115.058-.23.115-.289.287-.057.114-.057.229-.057.343l.057 6.584c0 .172.058.4.174.572.057.115.23.344.461.458l2.713 1.145c.058.057.115.057.23.057h.175c.115-.057.173-.114.23-.286.059-.114.059-.229.059-.343l-.058-6.641c0-.114 0-.229-.058-.343Zm-.23.343.057 6.64c0 .058 0 .172-.058.23 0 .057-.058.057-.058.114h-.115L7.17 87.407c-.057 0-.057-.057-.115-.057h.058l.173-.057.058-.058v-.457s.057.057.115.057.115.057.173.057c.058 0 .173 0 .231-.057h.058c.057-.057.057-.115.057-.172v-.057l.462.229h.116l.404-.172h.057l.058-.057v-.115l-.173-.916.288-.114c.058-.057.116-.057.174-.115.115-.114.115-.171.115-.229l-.173-3.148.692-.286c.058-.172.058-.172.058-.115Zm-1.04-.229c.058-.057.058-.057 0 0l.231 3.55v.057s-.058.057-.115.057l-.231.057-.52-2.92c0-.057-.057-.114-.115-.171l-.52-.23 1.27-.4Zm-.288 4.923-.347-2.519.404 2.462-.057.057Zm-1.5-4.236.75.286.519 3.893-1.097-.458v-.572c0-.058 0-.058-.057-.115 0 0-.058-.057-.116-.057l-.346-.172-.058-2.69.404-.115Zm-.347 4.752v-1.489 1.546h-.058c.058 0 .058-.057.058-.057Zm.577-.459c-.058 0-.058.058-.115.058v-.286l.346.171c-.058 0-.116 0-.231.058Zm1.5-5.38c.058 0 .058 0 .058.057 0 0-.057.057-.115.057l-1.5.572c-.058 0-.116.058-.116.115h-.173l-.289.114v-.114l1.616-.63c.058 0 .058-.057.058-.057v-.115l-.058-.057v-.172l.52.23Zm-.75 0-1.385.572v-1.832h.116l1.27.515v.744Zm1.79.228-.635.23v-.459c0-.057 0-.114-.116-.229-.058-.057-.115-.057-.173-.114l-.346-.172v-.115l.923.401a.69.69 0 0 1 .289.287c0 .114 0 .171.057.171Zm13.448-23.53a2.177 2.177 0 0 0-.866-.687l-3.29-1.26a.973.973 0 0 0-.692-.057.897.897 0 0 0-.462.344 2.01 2.01 0 0 0-.23.515c-.116.4-.058.802 0 1.088.057.343.23.687.461.973.231.343.52.572.866.687l3.29 1.317c.115.057.288.057.404.057.115 0 .288 0 .404-.057h.058a.518.518 0 0 0 .346-.344.918.918 0 0 0 .173-.515c.058-.4 0-.802-.058-1.088-.057-.4-.173-.744-.404-.973Zm.231 1.946c-.058.172-.058.287-.173.401a.693.693 0 0 1-.289.286c-.23.115-.404.058-.577 0l-3.29-1.316a1.786 1.786 0 0 1-.692-.63c-.173-.286-.346-.572-.404-.916a1.824 1.824 0 0 1 0-.973c.058-.172.115-.287.173-.401.115-.114.23-.229.346-.229.173-.057.347 0 .462.057l3.29 1.26c.23.114.52.286.692.572.174.23.347.573.404.859.058.343.116.687.058 1.03Zm12.35 4.353c0-1.717-.462-3.55-1.27-5.21-.404-.858-.923-1.602-1.443-2.29a5.609 5.609 0 0 0-.98-1.03 12.654 12.654 0 0 0-1.04-.801 4.375 4.375 0 0 0-1.27-.63c-.461-.172-.865-.229-1.27-.286-.98-.057-1.904.229-2.596.801-.347.286-.635.63-.866.974-.231.4-.462.801-.635 1.259-.289.801-.404 1.717-.404 2.69 0 1.718.462 3.55 1.27 5.21.404.859.923 1.603 1.442 2.29.29.4.635.744.982 1.03.346.287.692.573 1.039.802.404.286.865.515 1.27.63.461.171.865.229 1.27.286h.288a3.64 3.64 0 0 0 2.308-.802c.347-.286.635-.572.866-.973.23-.4.462-.801.635-1.26.23-.8.404-1.717.404-2.69Zm-.693 2.576c-.173.458-.346.86-.577 1.203-.23.343-.52.686-.808.915-.692.516-1.5.802-2.424.745-.404 0-.808-.115-1.212-.287-.404-.171-.808-.343-1.212-.63a11.095 11.095 0 0 1-.981-.743c-.346-.287-.635-.63-.981-1.03a12.41 12.41 0 0 1-1.443-2.234c-.808-1.602-1.212-3.434-1.27-5.095 0-.916.116-1.832.404-2.576.173-.458.346-.858.577-1.202.231-.344.52-.687.808-.916.693-.572 1.5-.801 2.424-.744.404 0 .808.114 1.212.286.404.172.808.343 1.212.63.347.229.635.458.981.744.347.286.635.63.982 1.03.52.688 1.039 1.432 1.443 2.233a11.585 11.585 0 0 1 1.212 5.095 6.348 6.348 0 0 1-.347 2.576Z" fill="#323A3D"/><path d="M33.431 59.87c0-.057 0-.057-.057-.057-.058-.114-.116-.286-.174-.4 0-.058-.057-.058-.057-.115-.116-.229-.289-.458-.462-.687-.23-.286-.404-.572-.693-.801a6.124 6.124 0 0 0-.634-.516c-.116-.057-.231-.171-.347-.229a1.733 1.733 0 0 0-.461-.229c-.058 0-.058-.057-.116-.057s-.058 0-.115-.057h-.058c-.116-.057-.23-.057-.346-.115a2.822 2.822 0 0 0-.982 0h-.115c-.058 0-.173 0-.23.058a2.02 2.02 0 0 0-.52.229l-.577.229c-.116.057-.231.114-.289.229l-.808-.287a.806.806 0 0 0-.52 0l-.173.058c-.115.057-.23.114-.346.286l-.173.343c-.058.287 0 .573 0 .745.058.229.173.458.289.687.115.171.288.4.577.458l.462.171v.344c0 .744.173 1.603.404 2.347.288.744.634 1.488 1.096 2.118.346.515.981 1.145 1.847 1.603.404.229.808.344 1.154.344h.231c.346 0 .693-.058.981-.23l.289-.171c.058 0 .058-.058.058-.058a2.77 2.77 0 0 0 .98-1.259c0-.057.059-.114.059-.172a5.358 5.358 0 0 0 .288-1.717c.23-1.03 0-2.118-.462-3.092Zm-1.5-.63c0-.056.057-.114.115-.171.058-.057.116-.057.116-.114l.288-.115c.116.172.173.286.289.458l-.866.343v-.057c0-.114 0-.229.058-.343Zm1.904 3.722c0 .4-.057.744-.115 1.088l-.173-.172h-.116a4.994 4.994 0 0 1-.923-.973c-.346-.458-.635-1.03-.924-1.603a.768.768 0 0 0 .347-.286l.173-.344V60.5l1.096-.4c.404.916.635 1.889.635 2.862Zm-1.789-2.748c0-.057 0-.172-.058-.229h.116l.808-.286c.058.057.058.114.058.172l-.924.343Zm-.75 1.202c.23.573.577 1.145.923 1.66.231.287.462.573.693.802-.231-.23-.52-.515-.75-.802-.347-.458-.693-1.03-.866-1.66 0 0-.058 0 0 0Zm-.866-4.122-.288-.114.346-.115c.058 0 .058.058.115.058 0 .057-.057.114-.057.229-.058-.058-.058-.058-.116-.058Zm-4.617 1.66c-.116-.171-.231-.343-.289-.572a1.162 1.162 0 0 1 0-.63c0-.114.058-.171.116-.286l.173-.172c.115-.057.23 0 .346 0l1.212.458h.058c.058 0 .058 0 .115-.057v-.114c0-.058 0-.115-.057-.172l.115-.115 1.328-.515c.115 0 .23-.057.346-.057-.058.057-.058.114-.058.172v.114l.058.057s0 .058.058.058c0 0 .057 0 .057.057h.116l.865.343c.058.058.174.058.231.058h.347c.057 0 .173-.058.23-.058h.058c.173.115.346.287.52.458.173.172.346.401.519.573l-.23.114a.795.795 0 0 0-.232.172c-.057.057-.115.172-.173.229v.114c-.115-.171-.288-.286-.52-.4l-.288-.115a.921.921 0 0 0-.23-.4c-.116-.115-.232-.287-.462-.344l-.289.115c-.116.057-.173.171-.23.229-.059.057-.059.171-.059.286v.057h.058l1.212.458a.77.77 0 0 1 .462.4c.115.172.23.344.288.573.058.172.058.401 0 .63 0 .114-.057.172-.115.286l-.173.172c-.116.057-.231 0-.346 0l-4.618-1.832c-.23-.057-.346-.172-.52-.343Zm5.425 7.328c-.346-.057-.692-.114-1.096-.343-.808-.4-1.386-1.03-1.732-1.489-.462-.572-.808-1.316-1.096-2.06-.29-.745-.404-1.546-.404-2.29v-.23l.23.115c0 1.202.347 2.404.924 3.492.346.573.692 1.088 1.096 1.546a5.15 5.15 0 0 0 1.559 1.088c.173.057.404.114.577.171h-.058Zm1.27-.343a2.488 2.488 0 0 1-1.558-.115c-.52-.171-1.04-.572-1.501-1.03-.404-.4-.75-.916-1.097-1.431a7.531 7.531 0 0 1-.923-3.264l3.29 1.317h.057a9.94 9.94 0 0 0 1.04 1.89c.461.572.98 1.087 1.558 1.373 0 .058 0 .058-.058.115 0 .343-.289.859-.808 1.145ZM53.287 2.623c-.058-.114-.173-.171-.289-.229-.173-.114-.462-.114-.577-.171a4.294 4.294 0 0 0-1.212 0c-.173 0-.404.057-.635.171-.058.058-.115.058-.173.115-.058.057-.115.057-.115.114-.116.115-.058.287.057.401l.058.057h.058a.443.443 0 0 0 .288.115c.116.057.231.057.347.114.23.058.519.058.75.058h.346c.173 0 .404-.058.52-.058.173-.057.346-.114.461-.171h.116c.057-.23.115-.344 0-.516Zm-.462.287c-.058 0-.115.057-.173.057-.116.057-.173.057-.289.057-.115 0-.23.057-.346.057h-.693c-.115 0-.288-.057-.346-.057a1.262 1.262 0 0 1-.288-.172s-.058-.057 0-.057c0 0 0-.057.057-.057.058 0 .116-.057.173-.057.116-.058.174-.058.289-.058.115 0 .23-.057.346-.057h.173c.174 0 .347 0 .462.057.116 0 .289.058.346.058.116.057.174.057.231.114l.058.057c.058 0 .058 0 0 .058Zm5.365 1.43a.432.432 0 0 0-.115-.229.805.805 0 0 0-.23-.172c-.116-.057-.231-.114-.404-.114-.231-.057-.52-.057-.809-.057-.23 0-.519 0-.807.057-.174.057-.29.057-.405.114-.057 0-.115.058-.115.058-.058 0-.058.057-.115.114a.432.432 0 0 0-.116.23c0 .056 0 .17.116.228l.057.057h.058l.058.058c.057.057.115.057.23.114.116.057.231.057.347.115.23.057.462.057.75.057.231 0 .462 0 .693-.057.115 0 .23-.058.346-.115.058 0 .116-.057.231-.057.058 0 .058-.057.058-.057h.057v-.058l.058-.057c.058-.114.058-.172.058-.229Zm-1.962.172c0-.057 0-.057 0 0 0-.057 0-.057 0 0 .116-.057.116-.172.116-.23 0-.056-.058-.056-.116-.114-.057-.057-.115-.057-.115-.057-.115.057-.23.115-.23.172a.173.173 0 0 0 0 .229c-.116-.057-.174-.057-.232-.115l-.057-.057s0-.057.057-.057c.058-.057.116-.057.173-.057.058 0 .174-.058.29-.058.114 0 .23-.057.403-.057h.173c.173 0 .347 0 .52.057.115 0 .288.058.346.058.115.057.173.057.23.114l.059.057s0 .058-.058.058-.116.057-.173.057c-.116.057-.173.057-.289.057-.23.057-.346.057-.52.057h-.634c.057-.057.057-.057.057-.114ZM23.216 27.297c.058.058.174.058.231.058h.174c.057 0 .057-.058.057-.058l.116-.114c0-.057.057-.115.057-.172v-.114c0-.172-.057-.401-.173-.516l-.058-.057c-.057-.057-.115-.114-.173-.114-.057-.058-.115-.058-.173-.058h-.173a.449.449 0 0 0-.23.23c-.058.057-.058.171-.058.286 0 .171.057.4.173.515.057 0 .173.114.23.114ZM11.73 22.603c0 .115.058.23.116.344.058.057.115.114.173.114.058.058.115.058.173.058h.116c.057 0 .115-.058.173-.172v-.172c0-.114-.058-.229-.116-.343l-.057-.058-.058-.057c-.058 0-.058 0-.116-.057h-.115c-.058 0-.115.114-.173.171-.116.058-.116.115-.116.172Zm30.705 11.505c.058.058.116.058.231.058h.174s.058 0 .058-.057c.058-.058.115-.115.115-.172.058-.057.058-.172.058-.286a.919.919 0 0 0-.173-.516c-.058-.057-.115-.171-.23-.171-.059-.058-.116-.058-.232-.058h-.115a.449.449 0 0 0-.231.23c-.058.114-.058.171-.058.285 0 .172.058.344.173.516.058.057.116.172.231.172ZM31.586 46.189c0 .114.058.228.115.343.058.057.116.115.174.115.057.057.115.057.173.057h.115c.058 0 .116-.057.173-.172 0-.057.058-.114.058-.172 0-.114-.058-.229-.115-.343l-.116-.115c-.115-.057-.173-.057-.288 0l-.174.172c-.057-.057-.115 0-.115.115 0-.058 0-.058 0 0 0 0 0-.058 0 0Zm.289-.058v-.057l.057.057c0 .058.058.172.058.23v.056l-.058-.057c0-.057-.057-.114-.057-.229Zm-3.29 30.799c0-.057 0-.171-.057-.228v-.058s0-.057-.058-.057c-.058-.057-.115-.114-.173-.114-.116-.058-.173-.058-.289 0-.057.057-.115.057-.173.171 0 .058-.058.115-.058.172 0 .115.058.23.116.344.058.057.115.114.173.114.058.057.115.057.173.057h.116c.057 0 .115-.057.173-.171 0-.115.057-.172.057-.23Zm-.346.058-.058-.057c-.057-.058-.057-.115-.057-.172v-.057s.057 0 .057.057.058.114.058.172c.058 0 .058 0 0 .057Zm4.098 1.203c0-.057-.058-.057-.058-.057-.057-.057-.057-.115-.115-.115-.116-.057-.173-.057-.289 0l-.173.172c0 .058-.058.115-.058.172 0 .115.058.229.116.344.058.057.115.114.173.114.058.057.115.057.173.057h.116c.057 0 .115-.057.173-.171 0-.058.058-.115.058-.172 0-.115-.058-.23-.116-.344Zm-.346.058c.057 0 .057 0 .057.057s.058.114.058.172v.057l-.058-.057c-.057-.058-.057-.115-.057-.172v-.057ZM27.719 44.7c0 .115.057.23.115.344.058.057.116.114.173.114.058.057.116.057.173.057h.116c.058 0 .115-.057.173-.171 0-.057.058-.115.058-.172 0-.114-.058-.229-.116-.343-.057-.058-.115-.115-.173-.115-.115-.057-.173-.057-.288 0l-.174.172c-.057 0-.057.057-.057.114Zm.404.172v.057l-.058-.057c-.058-.057-.058-.114-.058-.172v-.057l.058.057c.058.057.058.115.058.172Zm-1.038.858h.057c.058-.057.116-.115.058-.23-.058-.056-.115-.114-.173-.056-.058.057-.116.114-.058.171 0 .115.058.115.116.115ZM6.363 27.64c0 .172.058.401.173.573a.449.449 0 0 0 .231.229c.058.057.173.057.231.057h.116c.057 0 .057-.057.115-.057l.058-.058.057-.057v-.057c.058-.057.058-.172.058-.286 0-.172-.058-.401-.173-.573a.449.449 0 0 0-.23-.229H6.94c-.057-.057-.115-.057-.173-.057h-.173a.449.449 0 0 0-.23.229c.057.057 0 .172 0 .286Zm-.98.915v.973c0 .115.058.23.058.287.057.057.115.171.23.229l1.559.572h.231s.057 0 .057-.057c.058 0 .058-.058.058-.115s.058-.114.058-.229v-.973c0-.114-.058-.229-.058-.286 0-.058-.058-.115-.115-.115l-.058-.057-.058-.057-1.558-.573h-.231c-.058 0-.173.115-.173.172v.229Zm1.847.859c-.116.114-.116.171-.116.229v.114c0 .057.058.23.173.344.058.057.116.057.174.114l-.347-.114c-.057 0-.057 0-.115-.057l-.462-.172c-.058 0-.058 0-.115-.058l-.173-.057v-1.145l.923.344.058.458Z" fill="#323A3D"/><path d="M30.838 60.73c.057 0 .115.057.173.057h.115c.058 0 .058-.057.116-.057h.057c.058-.058.116-.115.116-.23v-.343a.436.436 0 0 0-.116-.286c-.057-.057-.115-.172-.288-.23l-4.675-1.774c-.116-.057-.173-.057-.289 0-.115.057-.23.172-.23.286v.344c0 .114.057.229.115.286.058.057.115.172.288.23l4.618 1.717Zm-.404-1.03v.4l-1.963-.744.52-.23 1.443.573Zm-3.29-.86c0-.057 0-.057 0 0Zm.923.344-.461-.172v-.4l1.038.4-.577.172Zm-1.212-.458-.346-.115c-.058 0-.115-.057-.115-.114-.058-.057-.058-.115-.116-.172-.058-.057-.058-.114 0-.172v-.057l.693.286c-.058.058-.116.23-.116.344Zm4.213 1.603-.173-.057v-.401l.058.057c.058.057.058.115.116.172v.229Z" fill="#323A3D"/><path opacity=".2" d="M9.537 84.888c0 .057 0 .172-.115.229-.058.057-.116.057-.173.114l-.289.115.173.916v.114l-.057.058h-.058l-.404.171h-.116l-.461-.229v.058c0 .057 0 .114-.058.171h-.058c-.057.058-.173.058-.23.058-.058 0-.116 0-.174-.058-.057 0-.057 0-.115-.057v.458l-.058.057-.173.058h-.058c.058 0 .058.057.116.057l2.712 1.145h.116c.057 0 .057-.057.057-.115 0-.057.058-.114.058-.229l-.058-6.64v-.058l-.692.286.115 3.32Z" fill="#323A3D"/><path opacity=".2" d="M7.402 86.376s.058-.057.116-.057c.057-.057.173-.057.23-.057l-.346-.172v.286Zm.923-4.351c.058.057.115.114.115.172l.52 2.92.23-.058c.058 0 .058-.057.116-.057v-.057l-.173-3.607h-.058l-1.212.515.462.172ZM6.883 85.29v1.488h.058l-.058-1.489Zm1.558-1.49.289 2.462h.115l-.404-2.461Zm-1.558 1.087.346.172c.058 0 .058.057.116.057 0 .057 0 .057.057.115v.572l1.097.458-.52-3.893-.75-.286-.346.172v2.633Zm2.771-4.121-.924-.4v.114l.347.171c.057 0 .115.058.173.115.115.057.115.172.115.229v.458l.635-.229s0-.057-.057-.057c-.058-.23-.174-.344-.29-.401Zm-2.71-1.088h-.116v1.832l1.385-.573v-.744l-1.27-.515Z" fill="#323A3D"/><path opacity=".2" d="m8.499 80.882.058.057v.115c0 .057-.058.057-.058.057l-1.616.63v.114l.288-.114h.174c0-.058.057-.115.115-.115l1.5-.572c.058 0 .058-.057.116-.057-.058 0-.058-.058-.058-.058l-.461-.171-.058.114ZM6.305 29.758l.173.057c.058 0 .058.057.115.057l.462.172c.058 0 .058 0 .115.057l.347.115c-.058-.058-.116-.058-.173-.115-.174-.114-.174-.229-.174-.343v-.115c0-.057 0-.172.116-.229v-.458l-.981-.286v1.088Zm26.781 15.744c.058 0 .115.058.115.058s-.057 0-.115-.058Zm11.195 25.419c.058-.057.058-.115.116-.172 0-.057.057-.114.057-.114-.057.114-.115.171-.173.286Zm.234-.001s0 .058-.058.058l.058-.058s0 .058 0 0Zm-2.54-13.625c0-.058-.058-.115-.058-.172 0-.057-.058-.115-.058-.172 0 .115.058.23.116.344ZM35.74 45.16c-.057 0-.057-.058-.115-.058 0 0 .058 0 .115.057Zm7.674 26.104c.115-.228.173-.4.289-.63-.116.23-.174.401-.289.63Zm-9.867-26.106c.058 0 .115.058.115.058s-.057 0-.115-.058ZM43.703 71.38c.058-.058.058-.172.116-.23 0-.057.057-.114.057-.172 0 .115-.115.287-.173.401Zm1.328-.803c.058-.058.058-.172.116-.23-.058.058-.058.172-.116.23ZM42.9 52.084c-.058-.057-.116-.171-.173-.229a.79.79 0 0 1 .173.23Zm-10.1 7.214c-.116-.172-.174-.286-.29-.458l-.288.114c-.058 0-.115.058-.115.115-.058.057-.058.114-.116.172-.057.114-.057.286-.057.343v.057l.865-.343Zm-.639.688h-.173c0 .057 0 .115.058.23l.981-.402c0-.057-.058-.114-.058-.171l-.808.343Zm-.056 18.548c.057 0 .057-.057.057-.057-.057-.057-.057-.115-.057-.172l-.058-.057v.057c0 .057 0 .115.058.172-.058.057 0 .057 0 .057Zm-.058-17.804c-.058.115-.058.287-.173.344-.116.115-.173.23-.347.286.231.573.52 1.088.924 1.603a5 5 0 0 0 .923.974h.116l.173.171c.058-.343.115-.744.115-1.087 0-.916-.23-1.947-.635-2.863l-1.096.4v.173Zm-1.56-3.664-.346.115.288.114h.058c0-.057.058-.171.058-.229 0 .058 0 0-.058 0Zm2.427 6.813c.06.06.06.06 0 0 .06.06.06.06 0 0Zm-.002-.001a10.44 10.44 0 0 1-.693-.802c-.404-.515-.692-1.087-.923-1.66h-.058c.231.63.577 1.202.981 1.66.231.344.462.573.693.802Zm-4.904-19.235v.057c0 .057 0 .114.058.172l.057.057v-.057c0-.058 0-.115-.058-.172 0-.057 0-.057-.057-.057ZM30.431 60.1v-.4l-1.385-.573-.577.229 1.962.744Zm-2.136 16.83s0-.057 0 0c-.058-.057-.058-.114-.058-.172l-.057-.057v.057c0 .058 0 .115.057.172l.058.057v-.057Zm-5.081-19.177c-.231-.286-.462-.516-.693-.573l-3.29-1.26c-.115-.056-.288-.114-.461-.056a1.179 1.179 0 0 0-.346.229c-.058.114-.174.228-.174.4-.057.344-.057.744 0 .974.058.343.231.63.404.916.231.286.462.515.693.63l3.29 1.316c.173.057.346.114.577 0a.693.693 0 0 0 .288-.286c.058-.115.116-.287.174-.401a2.3 2.3 0 0 0-.058-.916c-.058-.4-.231-.687-.404-.973ZM43.59 33.65h.058l.115.058c0-.058-.058-.058-.115-.058h-.058Zm-9.581 45.8h-.462l1.327.515c0-.057 0-.057.058-.114v-.458c-.288 0-.635.057-.923.057Zm.577.974s.058 0 0 0h.058c.115 0 .23 0 .288-.115.058-.057.116-.114.116-.228v.057c-.058.114-.116.171-.173.171h-.116c-.057.115-.057.115-.173.115 0 0-.057-.057-.115-.057l-3.348-1.374c-.058 0-.058 0-.115-.057l3.578 1.488Z" fill="#323A3D"/><path opacity=".3" d="M40.818 75.327c.404-.63.808-1.374 1.154-2.176.289-.801.577-1.66.75-2.576.347-1.603.462-3.32.347-5.095-.058-.859-.116-1.717-.289-2.576a19.53 19.53 0 0 0-.52-2.519c-.865-3.377-2.366-6.583-4.386-9.274a22.135 22.135 0 0 0-3.52-3.778c-.693-.63-1.443-1.145-2.194-1.603-.692-.401-1.442-.802-2.193-1.03-1.039-.402-2.077-.63-3.116-.63a8.08 8.08 0 0 0-3.117.457c-.75.287-1.443.687-2.136 1.145-.692.516-1.27 1.203-1.846 1.947a9.419 9.419 0 0 0-1.155 2.118c-.346.801-.577 1.66-.808 2.519-.346 1.546-.461 3.263-.404 5.095.058 1.66.347 3.378.75 5.038.809 3.32 2.31 6.583 4.271 9.274 1.04 1.431 2.194 2.748 3.406 3.836.692.63 1.443 1.145 2.193 1.603.693.457 1.443.8 2.135 1.087 1.155.458 2.31.744 3.406.802 1.212.057 2.366-.115 3.405-.573a6.515 6.515 0 0 0 2.078-1.26c.692-.4 1.27-1.03 1.789-1.831ZM31.583 46.13c0-.057 0-.114.058-.171l.173-.172c.058-.057.173-.057.289 0 .057 0 .057.057.115.114.058.115.116.23.116.344 0 .057 0 .114-.058.172l-.173.171h-.116c-.057 0-.115 0-.173-.057-.058-.057-.115-.057-.173-.114 0 0-.058-.115-.058-.287Zm-3.867-1.43c0-.058 0-.115.058-.173l.173-.171c.058-.058.173 0 .289 0 .058.057.115.057.173.114.058.115.115.23.115.344 0 .057 0 .114-.057.171l-.173.172h-.116c-.058 0-.115 0-.173-.057-.058-.057-.115-.057-.173-.115-.116-.057-.116-.171-.116-.286Zm-.692.8c.057-.057.173 0 .173.058.058.057 0 .172-.058.229h-.115c-.058 0-.116-.057-.116-.115 0-.057.058-.171.116-.171Zm-3.06 14.14-.172.516c-.116.172-.231.286-.347.344h-.057c-.116.057-.231.057-.404.057-.116 0-.289 0-.404-.057l-3.29-1.317c-.289-.115-.635-.4-.866-.687-.23-.286-.346-.63-.462-.973-.057-.287-.115-.687 0-1.088.058-.229.116-.4.231-.515a.896.896 0 0 1 .462-.344.972.972 0 0 1 .693.057l3.29 1.26c.403.172.692.458.865.687.231.286.346.63.462.973 0 .286.058.687 0 1.088Zm4.618 17.29c0 .057 0 .114-.058.171l-.173.172h-.115c-.058 0-.116 0-.173-.057-.058-.057-.116-.057-.173-.114-.058-.115-.116-.23-.116-.344 0-.057 0-.114.058-.172.058-.057.058-.114.173-.171.058-.058.173-.058.289 0 .057.057.115.057.173.114 0 0 0 .057.057.057v.058c0 .114.058.171.058.286Zm3.81 1.717-.174.172h-.115c-.058 0-.116 0-.173-.057-.058-.058-.116-.058-.174-.115-.057-.114-.115-.229-.115-.343 0-.058 0-.115.058-.172.057-.057.057-.115.173-.172.058-.057.173-.057.288 0 .058 0 .116.057.116.115 0 0 0 .057.058.057.057.057.057.172.057.286.058.115 0 .172 0 .23Zm3.635-14.713c0 .974-.115 1.89-.404 2.691-.173.458-.346.916-.634 1.26-.231.4-.578.744-.866.973a3.644 3.644 0 0 1-2.309.801h-.288c-.404-.057-.866-.114-1.27-.286s-.866-.344-1.27-.63a12.654 12.654 0 0 1-1.039-.801 5.605 5.605 0 0 1-.98-1.03 10.298 10.298 0 0 1-1.444-2.29c-.808-1.66-1.27-3.493-1.27-5.21 0-.973.116-1.89.404-2.69.174-.459.347-.917.635-1.26.231-.401.577-.745.866-.973a3.802 3.802 0 0 1 2.597-.802c.404.057.866.115 1.27.286.404.172.866.401 1.27.63.346.229.692.515 1.039.801.346.344.692.63.98 1.031a10.303 10.303 0 0 1 1.444 2.29c.808 1.66 1.27 3.492 1.27 5.21Z" fill="#AEAEAE"/><path opacity=".2" d="M30.89 59.928v.4l.174.058v-.23c0-.056-.058-.114-.173-.228.057 0 .057 0 0 0Zm-4.671-1.832v.171c0 .058.057.115.115.172.058.057.058.115.116.115l.346.114c.058-.114.058-.229.115-.4l-.692-.172s.057 0 0 0Zm1.383.916.461.172.577-.172-1.038-.4v.4Zm3.231 7.099a4.057 4.057 0 0 1-1.559-1.088c-.404-.458-.808-.916-1.096-1.545-.635-1.088-.924-2.348-.924-3.492l-.23-.115v.23c0 .743.115 1.488.403 2.289.231.744.635 1.431 1.097 2.06.346.459.924 1.089 1.732 1.49.346.171.75.286 1.096.343h.231c-.346-.057-.52-.115-.75-.172Z" fill="#323A3D"/><path opacity=".2" d="M31.988 63.306a6.064 6.064 0 0 1-1.039-1.89h-.058l-3.29-1.316a7.532 7.532 0 0 0 .924 3.263c.289.572.693 1.03 1.097 1.43.461.459.98.802 1.5 1.031.52.23 1.097.23 1.559.115.519-.344.808-.802.98-1.202 0-.058 0-.058.058-.115-.75-.286-1.27-.744-1.731-1.316Zm-5.713-3.951 4.617 1.832c.058.058.231.058.347 0 .057-.057.115-.057.173-.171.058-.058.058-.172.115-.287.058-.229 0-.458 0-.63-.058-.228-.115-.4-.288-.572-.116-.172-.289-.343-.462-.4l-1.212-.459h-.058v-.057c0-.114 0-.171.058-.286.058-.057.115-.172.23-.229l.29-.114c.172.057.346.229.461.343.116.114.173.286.23.4l.29.115c.23.115.404.23.519.401v-.114a.79.79 0 0 1 .173-.23c.058-.057.173-.171.23-.171l.232-.115a5.17 5.17 0 0 0-.52-.572c-.173-.172-.346-.287-.52-.458h-.057c-.058 0-.173.057-.23.057h-.348c-.115 0-.173-.057-.23-.057l-.867-.344h-.115s-.058 0-.058-.057l-.057-.057-.058-.057v-.115c0-.057.058-.114.058-.172-.116 0-.231 0-.347.057l-1.327.516c-.058 0-.058.057-.116.114.058.057.116.115.058.172v.114s-.058.058-.115.058h-.058l-1.212-.458c-.058-.057-.23-.057-.346 0-.058 0-.116.057-.174.172-.057.057-.057.171-.115.286-.058.229 0 .458 0 .63.058.229.116.4.289.572.23.114.346.229.52.343Zm-.346-.686a.436.436 0 0 1-.116-.287c0-.057-.057-.229 0-.343.058-.172.116-.287.231-.287.058-.057.173-.057.289 0l4.675 1.775c.115.057.23.172.288.23.058.114.116.17.116.285 0 .058.058.23 0 .344a.432.432 0 0 1-.116.229h-.057c-.058.057-.058.057-.116.057h-.115c-.058 0-.116 0-.173-.057l-4.618-1.832c-.173.057-.23 0-.288-.114Zm17.2 12.708c0 .06 0 .06 0 0 0 .06.06 0 0 0 .06 0 .06 0 0 0ZM94.956 15.79c0-.057 0-.057-.058-.114 0 .057.058.057.058.114Zm-1.675 72.418c0-.057.058-.057.058-.114-.058.057-.058.114-.058.114Zm-90.844-.399c0 .114.058.286.173.4.058.115.231.23.347.344.057.057.115.057.173.115.173.114.346.228.635.343l1.385.63v-.63c0-.057 0-.114.058-.172l-.058-.057-.058-2.977c0 .057-.057.057-.057.115-.058 0-.058.057-.116.057h-.115c-.058 0-.173 0-.231-.057-.058-.058-.173-.115-.231-.23a.918.918 0 0 1-.173-.515c0-.114 0-.171.058-.229a.449.449 0 0 1 .23-.229h.174c.057 0 .115 0 .23.058.058.057.174.114.231.229 0 0 0 .057.058.057 0 .057.058.057.058.114l-.289-20.609c0 .057-.058.115-.115.115-.058 0-.058.057-.116.057h-.115c-.058 0-.173 0-.231-.057-.058-.058-.173-.115-.23-.23a.918.918 0 0 1-.174-.515c0-.114 0-.171.058-.229a.449.449 0 0 1 .23-.229H4.4c.057 0 .115 0 .23.058.058.057.174.114.231.229v.057s.058.057.058.114l-.346-20.895a.449.449 0 0 1-.231.229h-.115c-.058 0-.174 0-.231-.057a.449.449 0 0 1-.231-.23.919.919 0 0 1-.173-.514c0-.115 0-.172.057-.287a.449.449 0 0 1 .231-.229h.29s.058 0 .058.057c.057.058.173.115.23.23 0 .057.058.114.058.228l-.23-18.262c0-.057 0-.057.057-.114H4.4v-3.034L4.342 21c0-.057-.058-.057-.058-.114v-.63c-.057.058-.115.172-.173.172h-.115c-.058 0-.174 0-.231-.057a.449.449 0 0 1-.231-.23.919.919 0 0 1-.173-.514c0-.115 0-.172.057-.287a.449.449 0 0 1 .231-.229h.289s.058 0 .058.058c.057.057.173.114.23.229 0 .057.058.114.058.114v-1.717l-.057-.058-1.617-.515c-.23-.057-.577-.229-.865-.4-.116-.115-.231-.172-.347-.287l1.04 71.274Zm92.174-72.477ZM75.046 4.857l.923-.744a.443.443 0 0 1 .289-.115h.289-.289a.443.443 0 0 0-.289.115l-.923.744-.058.057c.058 0 .058-.057.058-.057ZM91.38 8.635c-.173-.058-.289-.115-.462-.172.173.057.346.114.462.172Zm-21.357-.401a1.432 1.432 0 0 1-.52.229c-.403.114-.865.229-1.212.229H67.08c-.461-.058-.865-.115-1.211-.23-.116-.057-.231-.057-.29-.114-.115-.057-.172-.057-.288-.114-.057-.058-.115-.058-.173-.115v.973c0 .058 0 .115.058.115 0 .057.058.057.115.114.058.058.116.058.116.115.057.057.173.057.23.114.116.058.174.058.29.115.346.114.75.172 1.153.172.405.057.809 0 1.155 0 .288 0 .692-.058 1.039-.172v-.973l.057-.058a2.77 2.77 0 0 0 .404-.171c.174-.058.289-.115.289-.23Zm7.563 1.259c-.116-.057-.231-.057-.346-.057h-.174l13.91 4.465a4.2 4.2 0 0 0-.52-.286c-.115-.058-.288-.115-.404-.172-.115-.057-.23-.057-.346-.115h-.058L78.336 9.722l-.346-.115c-.173-.057-.289-.114-.404-.114Z" fill="#323A3D"/><path opacity=".2" d="M91.266 11.268c-.058-.172-.116-.401-.174-.573a1.245 1.245 0 0 0-.288-.458l-.173-.172c-.058-.057-.174-.114-.231-.171-.173-.115-.347-.172-.52-.23l-13.794-4.35c-.115-.058-.288-.058-.404-.115h-.173c-.058 0-.115 0-.115.057-.058 0-.058.058-.058.115V5.6c0 .172.058.343.115.458l.808 3.091.462.172.058-.057.058-.057c.173-.115.346-.115.461-.115.116 0 .231.057.404.057.116.058.231.058.347.115l.346.114 11.312 3.607h.058c.115.057.23.057.346.114.173.058.289.115.404.172.347.115.577.286.808.515l.231.23.404.114-.692-2.863Zm3.403 4.865v.115c0 .057 0 .057-.058.114 0 .058-.057.058-.057.115-.116.114-.231.229-.347.286-.288.172-.577.286-.808.4L52.017 32.049a4.835 4.835 0 0 1-.866.23l-.865.171c-.289.057-.578.057-.866.115-.289 0-.577.057-.866.057-.577 0-1.154-.057-1.731-.115l-.866-.171c-.289-.058-.577-.172-.866-.23l-1.674-.572h-.057v1.947c.057-.058.115-.115.173-.115h.404a.449.449 0 0 1 .23.229.962.962 0 0 1 .174.572c0 .115 0 .172-.058.287 0 0 0 .057-.058.057v.057l-.057.057c-.058 0-.058.058-.116.058h-.115c-.058 0-.173 0-.23-.058-.059-.057-.174-.114-.232-.229 0 0 0-.057-.058-.057v6.412c.116.286.231.63.347.973.115.344.23.687.346 1.088.115.343.23.744.346 1.088.116.4.231.744.347 1.087.057.172.057.287.115.458l.058.058c.057.057.057.114.115.114l.173.172a26.123 26.123 0 0 1 4.444 6.698c.578 1.317 1.097 2.633 1.443 4.007.116.344.173.687.289 1.03.058.344.173.688.23 1.031l.347 2.061c.173 1.431.173 2.862.116 4.236a18.53 18.53 0 0 1-.809 4.18c-.23.744-.519 1.43-.865 2.06-.347.63-.693 1.203-1.155 1.718-.461.572-1.038 1.088-1.616 1.546-.577.4-1.154.744-1.789 1.03l-.462.172a6.178 6.178 0 0 1-2.02.515v3.435c.058-.057.058-.057.116-.057h.173c.058 0 .173 0 .23.057.059.057.174.114.232.229a.962.962 0 0 1 .173.572c0 .115 0 .172-.058.287 0 .057-.058.114-.115.114-.058.057-.058.057-.116.057h-.172c-.057 0-.173 0-.23-.057a.448.448 0 0 1-.232-.229s-.057-.057-.057-.114l-.173 21.067c.057-.057.057-.057.115-.057h.172c.058 0 .173 0 .231.057a.446.446 0 0 1 .23.229.96.96 0 0 1 .174.572c0 .115 0 .172-.058.229 0 .057-.057.115-.115.115-.058.057-.058.057-.115.057h-.174c-.057 0-.173 0-.23-.057-.058-.057-.174-.115-.231-.229 0 0-.058-.057-.058-.115v3.779l1.616.687c.288.114.52.229.808.286.289.057.577.172.866.229.288.057.577.114.865.114.289 0 .578.058.866.058.289 0 .577 0 .866-.058.288 0 .577-.057.866-.114.288-.057.577-.115.865-.229.116-.057.231-.057.347-.115.057 0 .115-.057.173-.057.115-.057.23-.057.288-.114l40.17-17.69c.29-.115.52-.286.693-.4.115-.115.289-.23.346-.344a.616.616 0 0 0 .174-.401l1.731-71.789v.057ZM92.362 9.55c0-.057-.057-.114-.057-.114s0 .057.057.114Zm.172.514c0-.057-.057-.114-.057-.171.057.057.057.114.057.171ZM44.86 107.787 3.823 90.041a.932.932 0 0 1-.404-.23c-.174-.057-.289-.171-.404-.286.115.115.23.172.404.287.115.057.288.171.404.229l41.035 17.746c.116.058.174.058.29.115-.116-.057-.232-.057-.29-.115ZM2.612 89.239a.433.433 0 0 1-.116-.23c0 .058.058.115.116.23.057.057.115.114.115.171 0-.057-.058-.114-.115-.171Zm.173.171.058.058-.058-.058Zm44.558 19.008c-.289 0-.577-.058-.866-.115l-.865-.172c-.058 0-.116-.057-.116-.057.058 0 .115.057.115.057.29.058.52.115.866.172.289.057.577.057.866.115Zm44.555-18.436ZM45.09.848c.231-.058.52-.115.808-.172h.231-.23c-.29.057-.52.114-.809.172-.058 0-.115.057-.23.057.115 0 .172-.057.23-.057Zm24.183 6.07L59.52 3.826l9.753 3.092Zm.177.057 6.29 2.06-6.29-2.06Zm-67.299 7.9a4.05 4.05 0 0 1 .462-.172 3.911 3.911 0 0 1-.462.172s-.057 0-.057.057l.057-.057Zm.286 73.849v-.286s0-.057-.058-.057c-.115-.172-.23-.401-.23-.573l-1.04-71.846v-.114.114l1.04 71.846c0 .172.057.401.23.573 0 0 0 .057.058.057v.286c0 .057 0 .115.058.172-.058-.057-.058-.115-.058-.172Zm72.434-83.24c0 .172.058.287.058.458 0-.171-.058-.286-.058-.458ZM32.046 46.418c.058 0 .058-.057.058-.057-.058-.058-.058-.115-.058-.23 0 0 0-.057-.058-.057v.058c0 .057 0 .114.058.171-.058.058-.058.115 0 .115Z" fill="#323A3D"/><path opacity=".2" d="m43.995 34.11-.057.114.115-.057c-.058.057-.058 0-.058-.058Zm6.751 31.544v.115c0 .057.058.114.058.114 0 .058.057.058.057.058v-.058c-.057-.057-.057-.114-.115-.229.058-.057.058-.057 0 0 .058-.057.058-.057 0 0 .058-.057.058-.057 0 0 0-.057 0-.057 0 0Zm-1.269 6.18c.057-.114.173-.229.23-.4-.057.171-.173.286-.23.4Zm-13.738-7.899c0-1.66-.462-3.492-1.212-5.095a11.385 11.385 0 0 0-1.443-2.233c-.289-.4-.635-.687-.981-1.03-.346-.286-.635-.573-.981-.744-.404-.286-.808-.458-1.212-.63-.404-.172-.808-.229-1.212-.286-.924-.058-1.732.172-2.424.744-.289.229-.578.572-.809.916-.23.343-.461.744-.577 1.202-.288.802-.404 1.66-.404 2.576 0 1.66.462 3.492 1.27 5.095a11.39 11.39 0 0 0 1.443 2.233c.289.343.635.687.981 1.03.346.287.635.516.981.745.404.286.808.458 1.212.63.404.171.808.228 1.212.286.924.057 1.732-.172 2.425-.745.288-.229.577-.572.807-.916.231-.343.462-.744.578-1.202.23-.801.346-1.66.346-2.576Zm-1.616-.973c0 .63-.115 1.202-.289 1.717 0 .058-.057.115-.057.172-.231.515-.578.973-.982 1.26 0 .057-.057.057-.057.057l-.289.171c-.288.172-.635.23-.981.23h-.23a3.85 3.85 0 0 1-1.155-.344c-.808-.4-1.443-1.088-1.847-1.603-.462-.63-.866-1.374-1.097-2.118a6.927 6.927 0 0 1-.404-2.347v-.344l-.461-.172c-.289-.114-.462-.343-.578-.457a1.919 1.919 0 0 1-.288-.687c-.058-.172-.116-.458 0-.745.057-.114.057-.286.173-.343a.59.59 0 0 1 .346-.286l.173-.058a.806.806 0 0 1 .52 0l.808.287c.058-.115.173-.23.288-.23l.578-.228c.173-.115.346-.172.52-.23.057 0 .172-.057.23-.057h.115c.289-.057.635-.057.982 0 .115 0 .23.058.346.115h.058c.057 0 .057 0 .115.057.058 0 .058.057.115.057.174.058.289.115.462.23.116.057.231.171.346.228.231.172.404.344.635.516.231.229.462.515.693.801.173.23.288.458.462.687 0 .057.057.057.057.114.058.115.116.23.173.401l.058.057v.058c.231.916.462 2.003.462 3.034ZM56.808 4.627c.115 0 .23 0 .404-.058.115 0 .173-.057.288-.057.058 0 .116-.057.174-.057l.057-.057s0-.058-.057-.058c-.058-.057-.116-.057-.231-.114-.116-.057-.231-.057-.346-.057-.174 0-.347-.058-.52-.058h-.173c-.116 0-.23 0-.404.058-.115 0-.173.057-.289.057-.057 0-.115.057-.173.057l-.057.057s0 .058.057.058c.058.057.116.057.231.114a.173.173 0 0 1 0-.229c.058-.057.116-.114.23-.172.059 0 .116 0 .116.058.058 0 .116 0 .116.114 0 .057 0 .172-.116.172v.114c.289.058.52.058.693.058ZM52.88 2.739c-.057-.057-.115-.057-.23-.115-.116-.057-.231-.057-.346-.057-.174 0-.347-.057-.462-.057h-.173c-.116 0-.231 0-.347.057-.115 0-.173.057-.288.057-.058 0-.116.058-.173.058-.173.057-.173.114-.173.114s0 .057.057.057c.058.057.116.057.231.115a.74.74 0 0 0 .346.057c.231.057.462.057.693 0 .115 0 .23 0 .346-.057.116 0 .173-.058.289-.058.058 0 .115-.057.173-.057l.058-.057c.057 0 0 0 0-.057Z" fill="#323A3D"/><path opacity=".3" d="M69.504 9.894c-.404.115-.865.172-1.154.23h-1.212c-.462-.058-.866-.115-1.212-.23-.115-.057-.23-.057-.289-.114-.115-.058-.173-.058-.288-.115-.058-.057-.116-.057-.173-.114l-.116-.115c-.058-.114-.115-.229-.115-.286v-.687L43.936 1.65h-.057L3.882 14.76c-.231.057-.462.115-.635.23a10.15 10.15 0 0 1-.635.228c-.231.115-.404.23-.577.344-.173.171-.289.286-.289.458v.171s0 .058.058.058c.058.114.173.171.288.286.231.172.578.286.808.343l1.559.573c.057 0 .057.057.115.114l38.727 13.683h.173l1.674.572c.289.114.52.172.808.229.289.057.52.114.866.172.577.114 1.154.114 1.731.114.29 0 .578 0 .866-.057.289 0 .577-.057.866-.114l.866-.172c.288-.058.52-.172.808-.23l40.228-14.54-22.683-7.328Z" fill="#AEAEAE"/><path opacity=".2" d="M94.324 16.247c.058-.057.058-.057.058-.114v-.057c0-.115-.058-.23-.173-.344-.116-.114-.231-.171-.404-.286-.289-.172-.693-.286-.924-.4L70.372 7.831v.515c0 .115-.057.287-.346.515l-.346.172v.802l22.855 7.385c.058 0 .058.057.058.057l.692-.23c.231-.056.52-.17.75-.342.058-.287.174-.401.29-.459ZM67.253 6.745 50.631 1.42c-.116-.057-.231-.057-.346-.115-.116-.057-.231-.057-.404-.114a2.945 2.945 0 0 0-.75-.115c-.116 0-.232-.057-.405-.057-.115 0-.23 0-.404-.057h-1.558c-.116 0-.231 0-.404.057-.115 0-.231 0-.404.057-.289.058-.52.058-.75.115-.116 0-.231.057-.404.114-.116.058-.231.058-.347.115l-.115.057 20.604 6.64V7.66c0-.115.058-.286.231-.4l.058-.058c.115-.115.346-.23.577-.286.404-.115.808-.172 1.097-.23.057.058.173.058.346.058ZM53.228 3.08l-.058.057h-.057a1.928 1.928 0 0 1-.462.172c-.173.057-.346.057-.52.057h-.346c-.288 0-.52 0-.75-.057-.116 0-.231-.057-.346-.114-.116-.058-.174-.058-.289-.115h-.058l-.057-.057a.35.35 0 0 1-.058-.4c.058-.058.058-.115.115-.115.058-.058.116-.058.173-.115.174-.114.462-.114.635-.172a4.293 4.293 0 0 1 1.212 0c.173 0 .404.058.578.172.115.057.23.115.288.23.173.17.115.285 0 .457Zm4.848 1.546-.057.057h-.058l-.058.057c-.058.058-.115.058-.23.058-.116.057-.232.057-.347.114-.231.057-.462.057-.693.057-.23 0-.52 0-.75-.057-.116 0-.23-.057-.346-.115-.058 0-.116-.057-.231-.114-.058 0-.058-.057-.058-.057h-.058c-.115-.115-.115-.172-.115-.23 0-.056.058-.171.115-.228 0-.115 0-.115.058-.115s.116-.057.116-.057a.838.838 0 0 1 .404-.114c.288-.058.634-.058.808-.058.288 0 .577.058.808.058.173.057.288.057.404.114.115.057.173.115.23.172.058.057.116.114.116.229.058 0 .058.057-.058.229 0 0 .058-.057 0 0ZM32.047 80.709c0 .114 0 .172.058.229l.057.057v-.057c0-.057 0-.115-.115-.229 0 0 .058 0 0 0Z" fill="#323A3D"/><path opacity=".2" d="M67.948 7.031h-1.039c-.289 0-.693.058-1.039.23-.23.056-.346.171-.462.228-.057.057-.115.115-.115.172 0 .057 0 .114.058.172l.173.171a.443.443 0 0 0 .288.115 3.23 3.23 0 0 0 1.212.229c.404.057.808.057 1.213 0a3.23 3.23 0 0 0 1.212-.229 1.12 1.12 0 0 0 .519-.286c.058-.058.058-.115.058-.172 0-.057-.058-.115-.116-.172-.057-.057-.115-.057-.173-.114-.058-.058-.173-.058-.23-.115-.059 0-.059 0-.116-.057l-.173-.057c-.058 0-.174-.058-.231-.058-.289 0-.693-.057-1.04-.057Zm24.7 82.036c.058-.114.116-.171.116-.286l-.058.057c-.173.172-.462.287-.75.459l-40.17 17.689c-.289.115-.577.229-.866.286-.288.058-.577.172-.866.229a4.468 4.468 0 0 1-.923.115c-.289 0-.577.057-.866.057h-.462c-.173 0-.288 0-.461-.057-.289 0-.578-.057-.924-.115-.346-.057-.635-.114-.865-.229-.29-.057-.578-.171-.866-.286l-1.616-.687-.058-.057L5.267 89.984h-.058l-1.5-.63c-.231-.115-.578-.23-.866-.458l-.058-.058c0 .115.058.23.116.287a.693.693 0 0 0 .288.286c.116.114.231.172.346.229.116.057.289.114.404.172l41.036 17.747c.289.114.52.229.808.286.231.057.52.114.808.172.289.057.578.114.808.114.289 0 .578.057.808.057.289 0 .52 0 .808-.057.289 0 .578-.057.808-.114.289-.058.578-.115.809-.172.288-.057.519-.172.808-.286l40.17-17.747c.23-.115.519-.23.75-.401.115-.115.23-.229.288-.344ZM76.141 4.856l13.737 4.351c.23.058.462.115.692.286.116.058.231.115.289.23.115.057.173.171.288.228.174.172.29.401.404.63.116.23.174.458.231.687l.808 3.149.635.229c.116.057.173.057.289.114l-1.04-4.179a9.435 9.435 0 0 0-.172-.63c-.116-.229-.173-.4-.347-.515-.173-.171-.288-.286-.519-.4-.173-.115-.346-.172-.577-.23H90.8L77.065 4.514a1.095 1.095 0 0 0-.462-.115h-.23c-.058 0-.116 0-.174.058l-.52.458c.116-.115.29-.115.462-.058Z" fill="#323A3D"/><path d="M94.957 14.93a4.646 4.646 0 0 0-.808-.514l-1.039-4.122c-.058-.287-.115-.516-.23-.745-.116-.286-.29-.515-.462-.744-.231-.229-.462-.458-.75-.572-.29-.172-.52-.23-.751-.287L77.181 3.653c-.174-.057-.347-.115-.578-.172h-.461c-.231 0-.404.115-.577.23l-.924.743c-.173.172-.346.401-.404.63a.788.788 0 0 0 0 .515c0 .23.116.458.116.687l.52 1.89-5.31-1.718c-.059 0-.116-.057-.174-.057L51.73.79h-.118l-.578-.172c-.288-.115-.577-.172-.865-.23-.289-.056-.577-.114-.866-.171-.289-.057-.577-.057-.866-.114h-.923c-.289 0-.577 0-.866.057-.288 0-.577.057-.866.114l-.865.172c-.289.057-.578.114-.866.229L2.67 14.072c-.347.115-.577.172-.808.286-.231.115-.52.287-.808.515l-.058.058c-.346.286-.52.687-.52 1.087l1.04 71.847c0 .286.115.572.288.801v.115c0 .286.115.515.289.801.115.172.288.344.461.458.173.114.289.229.52.343.115.058.288.172.461.23l41.036 17.746.866.344c.289.057.577.172.924.229.288.057.577.114.923.114.289.058.635.058.923.058.289 0 .635 0 .924-.058.288-.057.635-.057.923-.114.347-.057.635-.115.924-.229.288-.115.577-.172.865-.344l40.17-17.747c.29-.114.635-.286.924-.572.173-.172.346-.286.462-.458.173-.229.288-.515.288-.744v-.115c.174-.286.289-.515.289-.801l1.616-71.846c-.058-.458-.289-.802-.635-1.145ZM91.61 89.812l-40.17 17.747c-.29.114-.52.229-.808.286-.231.057-.52.115-.808.172-.29.057-.578.114-.809.114-.288 0-.519.058-.808.058-.288 0-.577 0-.808-.058-.288 0-.577-.057-.808-.114a18.855 18.855 0 0 1-.808-.172c-.288-.057-.52-.172-.808-.286L3.94 89.811c-.116-.057-.29-.115-.405-.172a1.793 1.793 0 0 1-.346-.229l-.288-.286c-.058-.114-.116-.229-.116-.286l.058.057c.288.229.635.4.866.458l1.5.63h.058l37.688 16.258.058.057 1.616.687c.289.115.577.229.866.287.288.057.577.171.866.229.288.057.577.114.923.114.173 0 .289 0 .462.057h.461c.289 0 .578 0 .866-.057.289 0 .577-.057.924-.114.346-.058.635-.115.865-.229.289-.115.578-.172.866-.287l40.17-17.69c.347-.171.577-.285.75-.457l.058-.057c0 .114-.058.171-.115.286-.058.114-.173.172-.289.286-.23.229-.52.4-.692.458ZM69.33 7.317c.058 0 .058 0 .116.057.115.057.173.057.23.114.058.058.116.058.174.115.058.057.115.114.115.172 0 .057 0 .114-.057.171-.116.115-.29.172-.52.287-.404.114-.866.171-1.212.229-.404.057-.808 0-1.212 0-.346-.058-.808-.115-1.212-.23-.115-.057-.23-.114-.289-.114l-.173-.172c-.057-.057-.057-.114-.057-.171 0-.058.057-.115.115-.172.115-.114.289-.172.462-.229.346-.114.75-.172 1.039-.229a3.164 3.164 0 0 1 1.038 0c.404 0 .75.057 1.04.115.057 0 .172.057.23.057h.173Zm6.81-2.977c.058-.057.116-.057.174-.057h.23c.116 0 .29.057.463.114l13.736 4.294h.058c.173.057.404.114.577.229.173.114.346.229.52.4l.346.516c.057.229.115.4.173.63l1.038 4.179c-.115-.058-.173-.058-.288-.115l-.635-.229-.808-3.149c-.058-.229-.115-.458-.23-.687-.116-.229-.232-.458-.405-.63-.058-.114-.173-.171-.288-.228-.116-.058-.174-.172-.289-.23-.23-.114-.462-.171-.693-.286L76.084 4.912c-.173-.057-.288-.114-.462-.114l.52-.458ZM5.383 89.754v-.63s.058 0 .058-.057v-.286l-.058-.058-.057-2.519v.058a.449.449 0 0 0 .23.229h.405l.057-.058c0-.057.058-.057.058-.114v-.286a.918.918 0 0 0-.173-.516c0-.057-.058-.057-.058-.114l-.115-.115c-.058-.057-.116-.057-.173-.057h-.175c-.057 0-.057.057-.115.057l-.289-20.323v.058a.449.449 0 0 0 .231.229c.058.057.173.057.231.057h.173l.058-.057c.058-.058.058-.058.058-.115v-.286c0-.115-.058-.286-.116-.4v-.058l-.057-.057-.058-.058H5.44l-.058-.057c-.057-.057-.115-.057-.173-.057h-.173c-.058 0-.115.057-.115.057l-.173-20.838v.057c.057.057.115.172.23.23.058.056.174.056.231.056h.173c.058 0 .058-.057.058-.057.058-.057.058-.057.058-.114.058-.058.058-.172.058-.287v-.057a.647.647 0 0 0-.174-.458.449.449 0 0 0-.23-.229s-.058 0-.116-.057h-.058l.116-.057H4.92c-.058 0-.116.057-.116.114l-.288-18.147h.057V23.06s0-.057-.057-.057v-1.66h.057v-.23l-.057-.057v-.4c-.058-.115 0-.058.057 0 0 0 0 .057.058.057h.058l.288.114h.116s.058 0 .058-.057l.173-.172a.721.721 0 0 0 .057-.343v-.057c0-.058 0-.115-.057-.172 0-.058-.058-.115-.058-.115v-.171l-.173-.057c-.289-.171-.346-.171-.404-.171h-.058c-.058 0-.115.114-.173.171v-1.889L43.07 31.418v8.531c-.058-.173-.173-.344-.231-.516l-.52-1.03a15.022 15.022 0 0 0-.519-.974 24.136 24.136 0 0 0-1.328-2.004c-.115-.171-.23-.286-.346-.457a2.484 2.484 0 0 0-.346-.401c-.23-.286-.52-.573-.75-.802l-.404-.4c-.174-.115-.289-.287-.462-.401-.289-.23-.635-.515-.923-.687-.174-.115-.347-.23-.462-.286-.173-.115-.347-.172-.52-.287-.173-.114-.346-.171-.577-.286-.058 0-.058 0-.115-.057v-.115c0-.114 0-.229-.058-.286-.058-.114-.173-.229-.23-.229h-.059l-.23-.114v-.115c0-.114-.058-.286-.116-.4 0-.058-.058-.115-.115-.172-.116-.172-.289-.344-.52-.401l-4.04-1.431-1.327-.458h-.347c-.115 0-.23.057-.346.114-.173.172-.288.401-.288.744 0 .058-.058.802.692 1.317h.058l2.308.802 1.559.572c.173.172.75.458 2.193 1.088h.347a.44.44 0 0 0 .289-.115c.115-.057.173-.171.23-.229.058 0 .116.058.116.058.173.057.346.171.52.229.346.171.634.343.98.572.174.115.29.23.462.344.174.114.289.228.462.343.289.229.577.515.866.744.115.115.23.23.346.401.116.114.231.286.346.4l.693.86c.116.171.231.286.346.457.116.172.231.344.347.458l.346.516c.115.171.23.343.289.515.346.63.692 1.26.98 1.946.174.344.29.687.462 1.088.058.114.116.229.116.344v2.518c-.404-.286-.75-.572-1.154-.858a14.228 14.228 0 0 0-3.06-1.603c-1.096-.401-2.135-.63-3.174-.63-1.154-.057-2.193.114-3.232.458l-.462.172c-1.327.515-2.539 1.316-3.52 2.519a7.12 7.12 0 0 0-1.097-.115c-1.154-.057-2.193.115-3.232.458l-.462.172c-.808.286-1.5.687-2.193 1.202a10.592 10.592 0 0 0-1.904 2.004c-.462.63-.866 1.374-1.212 2.175-.347.802-.635 1.66-.808 2.576a18.693 18.693 0 0 0-.405 5.153c.058 1.66.347 3.377.75 5.095.867 3.377 2.31 6.64 4.272 9.388 1.039 1.489 2.193 2.806 3.463 3.893.692.63 1.443 1.202 2.193 1.66.346.23.692.401.981.573.058.114.173.286.231.4.115.172.288.23.404.287l4.906 2.004c.115.057.173.057.288.057.058 0 .116 0 .173-.057h.116l.058-.058c.115-.057.173-.171.23-.286.058-.114.058-.286.058-.458v-.572c.577-.115 1.097-.23 1.616-.458l.231-.115c0 .057.058.115.058.115v.057s-.058 0-.058.057v.115c0 .114.058.171.116.286l-.058.057v.115c0 .114.058.171.115.286v.057s-.057 0-.057.057v.115c0 .114.057.172.115.286l-.058.057v.115c0 .114.058.172.116.286v.057s-.058 0-.058.058v.114c0 .114.058.172.115.286v.058s-.057 0-.057.057v.114c0 .115.057.172.115.287l.116.114c.057 0 .057.057.115.057h.116v.057l.115.115c.058 0 .058.057.115.057h.116v.057l.115.115c.058 0 .058.057.116.057h.115v.057l.116.115c.057 0 .057.057.115.057h.115v.057l.116.115c.057 0 .057.057.115.057h.116V83l.115.114c.058 0 .058.057.116.057h.115v.058l.115.114c.058 0 .058.057.116.057h.115v.058l.116.114c.057 0 .057.057.115.057h.058v.058l.115.114c.058 0 .058.057.116.057h.115v.057l.115.115c.058 0 .058.057.116.057h.115v.057l.116.115c.058 0 .058.057.115.057h.116l.057-.057s.058 0 .058-.057c.058-.058.058-.115.058-.172 0-.115-.058-.172-.116-.286v-.057c.058-.058.058-.115.058-.172 0-.115-.058-.172-.115-.286v-.058c.057-.057.057-.114.057-.171 0-.115-.057-.172-.115-.287v-.057c.058-.057.058-.115.058-.172 0-.114-.058-.172-.116-.286v-.057c.058-.058.058-.115.058-.172 0-.115-.058-.172-.115-.286v-.058c.057-.057.057-.114.057-.171 0-.115-.057-.172-.115-.287 0 0 0-.057.058-.057l.057-.057v-.114c0-.115-.057-.172-.115-.287 0 0 0-.057.058-.057l.057-.057c0-.057 0-.115.058-.115 0-.114-.058-.171-.115-.286l.057-.057v-.115c0-.114-.057-.171-.115-.286l.058-.057v-.115c0-.114-.058-.171-.116-.286l.058-.057v-.115c0-.114-.058-.171-.116-.286 0 0 0-.057.058-.057l.058-.057v-.115c0-.114-.058-.172-.116-.286l.058-.057v-.115c0-.114-.058-.172-.115-.286l.057-.057v-.115c0-.114-.057-.172-.115-.286l.058-.057c0-.058.057-.115.057-.115 0-.057 0-.172-.057-.229h.52c.288 0 .519 0 .807-.057v3.492c0-.114-.058-.172-.115-.286l-.058-.057c-.058-.058-.115-.115-.173-.115-.058-.057-.116-.057-.173-.057h-.173a.449.449 0 0 0-.231.229c-.058.057-.058.172-.058.286 0 .172.058.4.173.573.058.114.173.171.231.228.058.058.173.058.23.058h.232l.057-.058c0-.057.058-.057.058-.114v-.114l-.058 21.582c0-.114-.057-.172-.115-.286 0 0-.058-.057-.058-.115-.057-.057-.115-.057-.173-.114-.058-.057-.115-.057-.173-.057h-.173a.446.446 0 0 0-.231.229c-.058.057-.058.171-.058.229 0 .171.058.4.173.572.058.114.174.172.231.229.058.057.173.057.231.057h.231l.058-.057c0-.057.057-.057.057-.115v-.057 2.977h-.057l-.058.057v.286h.058v.629L5.383 89.754Zm-.288-47c0-.058 0-.058 0 0Zm60.601-35.78c-.23.057-.461.171-.577.285l-.058.058c-.115.114-.23.286-.23.4v.458l-20.605-6.64.289-.058c.115-.057.23-.057.346-.114.115-.057.23-.057.404-.115.23-.057.462-.114.75-.171.116 0 .231-.058.404-.058.116 0 .231 0 .404-.057h1.558c.115 0 .23 0 .404.057.115 0 .23 0 .404.058.288.057.519.057.75.114.115 0 .23.057.404.115.115.057.23.057.346.114l16.622 5.324h-.404c-.404.058-.865.115-1.212.23Zm27.473 9.903-.693.23-.057-.058-22.856-7.385v-.802c.116-.057.289-.114.347-.171.288-.172.346-.344.346-.516V7.66l22.509 7.213c.288.115.635.23.923.401.174.115.289.172.404.286.116.115.174.23.174.344v.057c0 .057-.058.057-.058.115-.058.114-.173.171-.289.229-.23.343-.52.458-.75.572ZM51.843 31.82a4.275 4.275 0 0 1-.808.229c-.288.057-.519.114-.865.172-.289.057-.577.057-.866.114-.289 0-.577.057-.866.057-.577 0-1.096-.057-1.731-.114l-.866-.172c-.288-.057-.52-.172-.808-.229l-1.674-.572h-.173L4.516 17.507c0-.057-.057-.057-.115-.115l-1.558-.572a3.094 3.094 0 0 1-.808-.344.692.692 0 0 1-.289-.286l-.057-.057v-.172c0-.172.115-.343.288-.458.116-.114.346-.229.577-.343.173-.058.347-.172.635-.23.231-.056.462-.171.635-.228l39.94-12.996h.057l20.95 6.756v.687c0 .114.058.229.116.286.058.057.058.114.116.114.057.058.115.058.173.115a.443.443 0 0 0 .288.114c.116.058.231.058.289.115.346.114.75.172 1.212.229h1.212c.289 0 .75-.115 1.154-.23l22.683 7.329-40.17 14.598Zm-10.33 44.023c-.174 0-.347 0-.462-.057l.346-.515c.115-.172.173-.343.289-.458h.115c.462 0 .923-.057 1.385-.114.462-.115.981-.23 1.443-.401a6.836 6.836 0 0 0 2.482-1.603c.692-.63 1.27-1.431 1.789-2.29.462-.801.808-1.718 1.097-2.69a7.706 7.706 0 0 0 .346-1.66c0 .056 0 .056.058.114a.692.692 0 0 0 .288.286c.058 0 .116.057.173.057.116 0 .173-.057.231-.114-.173 1.087-.404 2.118-.75 3.034-.23.687-.52 1.316-.866 1.946-.346.573-.692 1.145-1.096 1.603a7.334 7.334 0 0 1-1.559 1.431c-.52.401-1.096.687-1.674.916a9.66 9.66 0 0 1-3.636.516Zm-8.023 3.32c-1.097-.056-2.251-.343-3.405-.8-.693-.287-1.443-.688-2.136-1.088-.75-.458-1.443-1.03-2.193-1.603a22.228 22.228 0 0 1-3.405-3.836c-1.962-2.748-3.405-5.954-4.271-9.274-.404-1.718-.693-3.378-.75-5.038-.058-1.832.057-3.492.404-5.095a10.76 10.76 0 0 1 .808-2.519c.346-.801.75-1.488 1.154-2.118.52-.744 1.154-1.431 1.847-1.946.635-.516 1.327-.916 2.135-1.145a8.08 8.08 0 0 1 3.117-.458c.981.057 2.02.286 3.117.63.75.286 1.443.63 2.193 1.03.75.458 1.5.973 2.193 1.603 1.27 1.03 2.424 2.347 3.52 3.778a27.54 27.54 0 0 1 4.387 9.274c.23.859.404 1.66.52 2.52.115.858.23 1.717.288 2.575.115 1.775 0 3.492-.346 5.095-.173.916-.462 1.775-.75 2.577a8.7 8.7 0 0 1-1.155 2.175 8.589 8.589 0 0 1-1.79 2.004c-.634.515-1.327.916-2.077 1.26a10.903 10.903 0 0 1-3.405.4Zm1.385.23v.458c0 .057 0 .057-.058.114l-1.327-.515h.462c.288 0 .577 0 .923-.057Zm-3.81-.4 3.348 1.373c.058 0 .116.057.174.057h.23l.173-.171v-.058c0 .115-.057.172-.115.23-.115.114-.23.114-.288.114h-.058l-3.579-1.489c.058-.057.058-.057.116-.057Zm.924-37.441a8.081 8.081 0 0 1 3.117-.458c1.039.057 2.078.229 3.117.63 1.154.4 2.308 1.03 3.405 1.832a23.858 23.858 0 0 1 2.886 2.576l.057.057v.057c.116.458.231.859.289 1.317l-.058-.057-.057-.058c-.982-1.144-2.02-2.118-3.117-2.92-1.212-.915-2.482-1.602-3.81-2.003-.692-.229-1.442-.343-2.135-.458a3.525 3.525 0 0 0-1.096 0c-.347 0-.693.057-1.04.115-1.384.229-2.654.916-3.75 1.889-.405-.115-.751-.23-1.098-.286.924-.974 2.02-1.775 3.29-2.233Zm6.695 0c.982.343 2.02.916 3.002 1.546.923.63 1.789 1.316 2.597 2.118l.057.057c0 .115.058.23.058.286a19.067 19.067 0 0 0-2.597-2.29c-1.154-.801-2.309-1.43-3.463-1.889-.23-.057-.404-.114-.635-.171.289.171.635.229.981.343Zm4.964-7.9c.058 0 .058.057.115.057l-.115-.057c-.058 0-.116.057-.116.057l.116-.057Zm6.002 34.005a15.682 15.682 0 0 1-1.039 2.633 8.301 8.301 0 0 1-1.731 2.233c-.693.687-1.5 1.202-2.366 1.489a9.77 9.77 0 0 1-1.386.4c-.346.058-.634.058-.98.115.288-.172.576-.344.807-.573l.116-.114h.115l.116-.057c.057 0 .173-.058.23-.058.058 0 .174-.057.231-.057h.058c.116-.057.289-.114.404-.172.058 0 .058-.057.058-.114.462-.172.923-.458 1.327-.744.231-.172.462-.344.635-.516.231-.171.404-.4.577-.572.346-.4.693-.802.981-1.26a3.07 3.07 0 0 0 .404-.744c.116-.229.231-.515.347-.801.404-.974.692-2.004.865-3.149.174-1.03.231-2.118.231-3.263-.057-2.118-.461-4.294-1.154-6.412a25.056 25.056 0 0 0-2.77-5.725c0-.057-.058-.057-.058-.114l-.173-1.03a24.85 24.85 0 0 1 3.232 6.125c.866 2.347 1.385 4.866 1.443 7.213 0 .802 0 1.603-.058 2.347a9.66 9.66 0 0 1-.462 2.92Zm-8.773 8.13c-.057 0-.057 0 0 0 0-.058.058-.172.174-.287.461-.687.808-1.431 1.154-2.233.346-.801.577-1.66.75-2.633.347-1.603.462-3.378.347-5.152-.058-.86-.116-1.718-.289-2.576a17.715 17.715 0 0 0-.52-2.52c-.923-3.377-2.481-6.64-4.501-9.388-1.097-1.489-2.251-2.748-3.52-3.836a18.265 18.265 0 0 0-2.252-1.603c-.75-.458-1.5-.801-2.25-1.087-.232-.115-.462-.172-.693-.23.346.115.692.172 1.039.344h.115c.693.286 1.385.63 2.078 1.03.75.459 1.5.974 2.25 1.603 1.27 1.031 2.425 2.348 3.521 3.779a27.537 27.537 0 0 1 4.387 9.274c.23.859.404 1.66.52 2.519.115.859.23 1.717.288 2.576.115 1.832 0 3.55-.347 5.095-.173.916-.461 1.775-.75 2.576-.23.573-.462 1.088-.75 1.546-.116.229-.231.4-.346.63-.174.172-.289.4-.404.572Zm2.367-33.834.346 1.03c.116.4.231.744.346 1.088.058.229.116.458.231.687-.288-.286-.577-.573-.923-.802v-2.003Zm.404 23.357c0-.172 0-.286-.058-.458-.058-2.519-.635-5.21-1.616-7.786-.981-2.519-2.366-4.923-4.04-6.812-.23-.287-.462-.516-.635-.802.75.802 1.5 1.603 2.136 2.576.52.745 1.038 1.603 1.5 2.462a25.89 25.89 0 0 1 1.212 2.576c.347.916.635 1.832.866 2.69l.346 1.375c.116.458.173.916.231 1.374.173 1.145.173 2.29.173 3.32-.115-.114-.115-.286-.115-.515Zm-1.732-8.015c-.057-.114-.115-.229-.115-.343 0 .057.058.114.058.171 0 .058 0 .115.057.172Zm1.732 10.992c.115-.687.173-1.374.23-2.118v-.058c.059-1.145 0-2.347-.172-3.606-.058-.458-.116-.973-.231-1.431-.116-.458-.173-.916-.347-1.432a25.022 25.022 0 0 0-.865-2.748 21.79 21.79 0 0 0-1.212-2.633c-.462-.859-.982-1.66-1.5-2.462-1.155-1.66-2.483-3.091-3.926-4.236-.115-.114-.23-.172-.346-.286 1.328.973 2.597 2.232 3.752 3.72.692.86 1.27 1.833 1.846 2.806.29.458.52.973.75 1.489l.693 1.545c.404 1.03.75 2.118.982 3.206.115.573.23 1.088.346 1.66.115.573.173 1.088.23 1.66a17.656 17.656 0 0 1-.288 5.267c0-.057 0-.172.058-.343Zm-3.983-23.758a15.39 15.39 0 0 1 3.06 2.233 17.446 17.446 0 0 1 2.481 2.862v.172c-.346-.458-.635-.916-1.039-1.317-.115-.114-.23-.286-.346-.4a2.5 2.5 0 0 1-.346-.402c-.231-.229-.462-.515-.693-.744a14.494 14.494 0 0 0-3.29-2.461c-.23-.115-.52-.287-.75-.401.346.172.635.286.924.458Zm4.675 19.865a23.93 23.93 0 0 0-1.442-7.042c-.404-1.145-.924-2.232-1.443-3.263-.578-1.087-1.212-2.118-1.963-3.034a21.822 21.822 0 0 0-2.424-2.69 14.676 14.676 0 0 0-2.943-2.119c-.289-.171-.577-.286-.924-.458l1.04.516c1.038.572 2.02 1.316 3 2.175.462.4.866.859 1.27 1.317.231.229.404.458.635.687.23.229.404.515.577.744.693.973 1.385 2.004 1.963 3.148.288.516.519 1.088.808 1.66.23.573.461 1.146.634 1.718.174.573.404 1.202.52 1.775.058.286.173.572.23.916.059.286.116.572.174.916l.173 1.03c.115.916.173 1.775.173 2.634 0 .63-.058 1.26-.115 1.889-.058.63-.173 1.202-.289 1.774a10.764 10.764 0 0 1-.808 2.52c.462-.974.75-2.119.924-3.321a8.82 8.82 0 0 0 .173-1.775c.057-.515.057-1.145.057-1.717ZM35.914 45.73c1.154.63 2.25 1.489 3.347 2.519.982.916 1.847 2.004 2.655 3.206.404.572.75 1.145 1.097 1.775.346.63.635 1.259.924 1.889a22.891 22.891 0 0 1 1.385 3.95c.115.343.173.687.23 1.03l.174 1.03c.115.688.173 1.375.23 2.062.058.744.058 1.43 0 2.118 0 .343-.057.687-.057 1.03-.058.344-.058.687-.116.974a10.781 10.781 0 0 1-.52 2.06 4.834 4.834 0 0 1-.518 1.26c.173-.458.404-.916.519-1.431.173-.687.346-1.374.462-2.118a19.52 19.52 0 0 0 .115-4.122c-.058-.687-.115-1.374-.23-2.061l-.174-1.03c-.058-.344-.173-.688-.23-1.031a24.086 24.086 0 0 0-1.386-3.893c-.288-.63-.635-1.26-.923-1.89-.347-.572-.693-1.201-1.097-1.774-.808-1.202-1.732-2.233-2.655-3.206-1.039-1.03-2.193-1.889-3.347-2.461-.231-.115-.404-.23-.635-.344.23.172.461.286.75.458Zm8.484 16.717c-.058-.344-.115-.745-.173-1.088-.058-.287-.115-.63-.173-.916-.058-.286-.115-.63-.231-.916a67.11 67.11 0 0 0-.52-1.775 10.698 10.698 0 0 0-.692-1.717c-.23-.573-.52-1.145-.808-1.66-.577-1.145-1.27-2.176-1.962-3.15-.173-.228-.404-.514-.578-.743-.173-.23-.404-.458-.634-.745a27.681 27.681 0 0 0-1.27-1.316c-.981-.916-1.962-1.66-3.059-2.176a5.87 5.87 0 0 0-.866-.4c.346.171.693.286.981.458a15.396 15.396 0 0 1 3.06 2.232c.461.401.865.859 1.327 1.317.404.458.808.973 1.212 1.546a23.338 23.338 0 0 1 1.962 3.263c.577 1.145 1.039 2.347 1.443 3.55.808 2.518 1.212 5.094 1.097 7.499-.058 1.316-.231 2.576-.578 3.72-.115.459-.288.86-.461 1.26.23-.572.404-1.202.52-1.832.115-.572.23-1.145.288-1.774.057-.63.115-1.26.115-1.89.173-.973.116-1.889 0-2.748Zm-.173 6.927c.346-1.145.52-2.462.577-3.779a23.275 23.275 0 0 0-1.096-7.557c-.404-1.202-.866-2.404-1.443-3.549a25.807 25.807 0 0 0-1.963-3.263l-1.212-1.546a29.322 29.322 0 0 0-1.327-1.374c-.981-.916-2.02-1.717-3.117-2.29a5.294 5.294 0 0 0-.808-.4c.289.114.635.286.924.458 1.096.572 2.135 1.373 3.116 2.29l.693.687c.23.228.462.457.635.686.404.516.865 1.03 1.212 1.546 1.443 2.061 2.655 4.465 3.405 6.984.808 2.576 1.154 5.267.981 7.672 0 .343-.057.687-.115 1.03-.058.344-.116.63-.173.973a17.14 17.14 0 0 1-.462 1.832c-.115.4-.289.802-.462 1.202.289-.458.462-1.03.635-1.602ZM33.201 45.616c-.057 0-.115-.058-.115-.058s.058 0 .115.058Zm2.482.171a14.496 14.496 0 0 1 3.29 2.462c.981.916 1.847 2.004 2.655 3.149.404.572.75 1.145 1.096 1.717.347.63.635 1.202.924 1.832a24.096 24.096 0 0 1 1.385 3.893c.115.343.173.687.23 1.03l.174 1.03c.116.688.173 1.375.23 2.005a19.47 19.47 0 0 1-.114 4.121c-.116.745-.231 1.431-.462 2.061-.173.516-.346.974-.52 1.431.462-1.087.808-2.347.982-3.663.057-.344.057-.63.115-.974 0-.343.058-.687.058-1.03 0-.687 0-1.374-.058-2.118-.115-1.317-.346-2.69-.75-4.008a21.704 21.704 0 0 0-1.386-3.835c-.288-.63-.634-1.26-.923-1.832-.346-.573-.693-1.202-1.097-1.718-.808-1.145-1.673-2.232-2.654-3.148a14.49 14.49 0 0 0-3.29-2.462 2.7 2.7 0 0 0-.578-.286c.174.114.404.229.693.343Zm8.657 12.71c-.346-1.26-.865-2.52-1.442-3.722-.289-.63-.635-1.202-.924-1.774-.346-.573-.692-1.145-1.096-1.66-.809-1.146-1.674-2.176-2.598-3.035a17.486 17.486 0 0 0-3.232-2.404c-.346-.172-.635-.344-.98-.458.345.172.75.343 1.096.515a17.49 17.49 0 0 1 3.232 2.404 23.13 23.13 0 0 1 2.597 3.092c.404.515.75 1.088 1.039 1.66.346.572.635 1.202.923 1.775a21.117 21.117 0 0 1 1.386 3.778c.75 2.69 1.038 5.439.75 7.958-.173 1.43-.462 2.69-.924 3.892l-.173.344c.058-.172.173-.4.231-.573.462-1.202.693-2.519.866-3.892.288-2.52 0-5.267-.75-7.9Zm-8.888-12.595a16.083 16.083 0 0 1 3.29 2.404c.924.916 1.847 1.947 2.655 3.092.346.515.75 1.145 1.097 1.717.346.572.634 1.202.923 1.832a23.474 23.474 0 0 1 1.385 3.836c.346 1.316.635 2.69.75 4.007.058.687.116 1.374.058 2.06 0 .344 0 .688-.057 1.031 0 .344-.058.687-.116.974-.173 1.316-.52 2.519-.923 3.606.461-1.145.75-2.462.923-3.835.289-2.52 0-5.267-.75-8.015-.346-1.317-.866-2.576-1.443-3.778-.289-.63-.635-1.26-.924-1.832a28.315 28.315 0 0 0-1.096-1.718c-.808-1.145-1.674-2.175-2.655-3.091-1.039-.974-2.136-1.832-3.29-2.405a2.706 2.706 0 0 0-.577-.286c.23.115.462.23.75.4Zm8.773 25.074.173-.343c0 .057-.058.114-.058.114-.057.115-.057.172-.115.23Zm.23 0c0 .058 0 .058-.057.058 0-.058 0-.058.058-.058Zm-.692.172c-.057.057-.057.172-.115.23.058-.115.115-.23.173-.402 0 .058 0 .115-.058.172ZM33.605 45.272c-.057 0-.115-.057-.115-.057.058 0 .058 0 .115.057Zm1.386.802a13.357 13.357 0 0 1 3.174 2.347c.923.858 1.79 1.889 2.597 3.034.346.515.75 1.088 1.039 1.66.346.572.635 1.145.923 1.775.578 1.202 1.04 2.461 1.443 3.72.75 2.634 1.097 5.382.866 7.844a15.584 15.584 0 0 1-.808 3.835c-.058.172-.115.287-.173.458.115-.286.23-.515.288-.801.174-.572.347-1.202.462-1.832.058-.344.116-.63.173-.973.058-.344.058-.687.116-1.03.173-2.462-.173-5.153-.981-7.73a23.298 23.298 0 0 0-3.463-6.983 18.19 18.19 0 0 0-1.212-1.546 7.257 7.257 0 0 1-.635-.744c-.173-.23-.462-.458-.693-.687-.981-.974-2.078-1.718-3.174-2.347a5.842 5.842 0 0 0-.866-.401c.231.057.577.172.923.4Zm8.657 24.559c-.116.229-.173.458-.289.63a5.5 5.5 0 0 1 .289-.63Zm1.79-1.26c.23-.687.403-1.374.518-2.118.058-.343.116-.687.116-1.03.058-.344.058-.687.058-1.03.057-.688 0-1.432 0-2.119-.058-.687-.116-1.374-.231-2.06l-.173-1.031c-.058-.344-.173-.687-.231-1.03a22.879 22.879 0 0 0-1.385-3.95c-.289-.63-.578-1.26-.924-1.89a18.33 18.33 0 0 0-1.096-1.775 18.597 18.597 0 0 0-2.713-3.206c-1.097-1.03-2.193-1.889-3.348-2.518l-.692-.344a5.3 5.3 0 0 1 .808.4 15.08 15.08 0 0 1 3.347 2.52c.982.916 1.847 2.06 2.713 3.263a28.23 28.23 0 0 1 2.02 3.664c.577 1.26 1.039 2.633 1.385 3.95.173.687.289 1.374.404 2.06.116.688.173 1.375.231 2.062.058.744.058 1.43 0 2.118 0 .343-.058.687-.115 1.03l-.174 1.03a12.636 12.636 0 0 1-.519 2.119c-.115.286-.173.515-.288.801.115-.343.173-.63.288-.915Zm-.347.974c-.058.057-.058.171-.116.229 0-.058.058-.115.116-.23Zm-1.905-17.69c.116.172.173.286.289.458.808 1.488 1.5 3.091 1.962 4.752.173.572.346 1.202.462 1.774l-.173-.687a25.345 25.345 0 0 0-1.386-4.007 42.55 42.55 0 0 0-1.154-2.29Zm2.424 5.152c-.52-1.66-1.154-3.263-2.02-4.808a25.458 25.458 0 0 0-3.001-4.237 17.435 17.435 0 0 0-4.04-3.263c-.231-.114-.462-.229-.75-.343.288.114.577.286.865.4 1.27.687 2.482 1.603 3.636 2.806 1.04 1.03 1.963 2.29 2.828 3.606.809 1.26 1.443 2.633 2.02 4.122.29.687.52 1.431.693 2.175.115.344.173.745.289 1.088.057.344.173.744.23 1.088v.573a27.868 27.868 0 0 0-.75-3.207ZM35.51 45.1c.058 0 .058.058.115.058 0 0-.057 0-.115-.058Zm10.735 14.312c-.058-.4-.173-.744-.288-1.145-.174-.744-.462-1.488-.693-2.175a21.046 21.046 0 0 0-2.02-4.122 22.943 22.943 0 0 0-2.828-3.664c-1.154-1.202-2.366-2.118-3.636-2.805-.231-.114-.404-.229-.635-.343.288.114.52.229.75.4a15.077 15.077 0 0 1 3.348 2.52c.98.972 1.847 2.06 2.655 3.262a25.557 25.557 0 0 1 2.02 3.721c.577 1.26.98 2.634 1.327 3.95v.401Zm-1.154-4.465a25.573 25.573 0 0 0-2.02-3.721c-.808-1.202-1.732-2.347-2.713-3.263-1.096-1.03-2.193-1.89-3.405-2.576-.404-.23-.808-.401-1.212-.573.462.172.923.4 1.385.63 1.097.572 2.136 1.374 3.117 2.29a16.15 16.15 0 0 1 2.54 2.977c.346.515.75 1.087 1.038 1.66.346.572.635 1.145.924 1.717.577 1.145 1.038 2.405 1.385 3.607v.4a16.758 16.758 0 0 0-1.04-3.148Zm-.173-.916c-.289-.572-.578-1.202-.924-1.717a40.422 40.422 0 0 0-1.039-1.66c-.808-1.088-1.616-2.119-2.54-2.978-.98-.973-2.077-1.717-3.173-2.347l-.693-.343c.288.114.577.229.808.4a14.68 14.68 0 0 1 2.943 2.119 21.822 21.822 0 0 1 2.424 2.69 27.79 27.79 0 0 1 1.905 3.092c.289.515.52 1.087.75 1.66.231.572.462 1.145.635 1.66v.286c-.23-.916-.635-1.889-1.096-2.862Zm.692.916a14.77 14.77 0 0 0-.808-1.66c-.577-1.088-1.212-2.176-1.962-3.092a18.846 18.846 0 0 0-2.424-2.748c-.981-.858-1.962-1.602-3.001-2.175l-.693-.343c.289.114.52.229.808.4.981.516 1.905 1.203 2.77 2.004.404.343.808.802 1.212 1.202.174.23.404.401.578.63l.519.687a16.256 16.256 0 0 1 1.847 2.862c.288.516.52 1.03.75 1.546.231.515.462 1.03.635 1.546v.286c.058-.458-.058-.801-.23-1.145Zm-.057-.802c-.231-.515-.52-1.03-.75-1.545a20.629 20.629 0 0 0-1.905-2.863l-.52-.687c-.173-.228-.404-.457-.577-.63a11.96 11.96 0 0 0-1.212-1.202c-.923-.8-1.847-1.488-2.828-2.003-.231-.115-.52-.23-.75-.344.288.115.577.287.923.458 1.732.916 3.405 2.347 4.848 4.18.635.8 1.27 1.717 1.847 2.633.289.458.52.916.75 1.431.231.458.462.973.635 1.431 0 .115 0 .172.058.287-.23-.458-.404-.802-.52-1.145Zm-.116-.8c-.23-.459-.52-.974-.75-1.432a22.227 22.227 0 0 0-1.847-2.69c-1.443-1.833-3.175-3.264-4.906-4.237a8.049 8.049 0 0 0-1.616-.687c.577.172 1.154.458 1.79.744 1.615.859 3.174 2.175 4.559 3.836.635.744 1.212 1.545 1.789 2.404.288.4.52.859.75 1.317.231.458.462.859.693 1.316 0 .115 0 .23.057.344-.23-.229-.346-.572-.519-.916Zm-.115-.745c-.231-.458-.52-.859-.75-1.317a19.242 19.242 0 0 0-1.79-2.462c-1.443-1.66-3.001-2.976-4.617-3.892-.231-.115-.52-.287-.75-.401a6.9 6.9 0 0 1 .923.458c1.558.859 3.001 2.004 4.329 3.55a20.835 20.835 0 0 1 3.116 4.694v.229c-.115-.23-.288-.573-.461-.86Zm-2.54-4.122c-1.327-1.546-2.828-2.748-4.386-3.607a9.45 9.45 0 0 0-.75-.343c.288.114.577.286.865.4.75.401 1.5.917 2.193 1.49.347.285.693.572.982.858l.461.458c.173.172.289.343.462.515 1.154 1.26 2.136 2.69 3.001 4.294v.229a19.808 19.808 0 0 0-2.828-4.294Zm0-.343c-.173-.172-.288-.344-.462-.516l-.461-.458c-.347-.286-.693-.63-.982-.858-.75-.573-1.442-1.088-2.25-1.489-.231-.114-.52-.286-.75-.4.288.114.634.286.923.457 1.385.745 2.655 1.775 3.867 3.092a12.373 12.373 0 0 1 1.558 1.889c.462.63.923 1.374 1.328 2.06v.23a17.756 17.756 0 0 0-2.77-4.008Zm1.616 1.602a26.355 26.355 0 0 0-1.616-1.946c-.23-.229-.404-.458-.635-.63l-.057-.057a17.494 17.494 0 0 0-3.233-2.404c-.288-.115-.519-.287-.807-.401.288.114.634.286.923.458 1.27.687 2.54 1.66 3.694 2.862a22.937 22.937 0 0 1 2.828 3.664c0 .057 0 .115.058.172-.404-.573-.75-1.145-1.155-1.718Zm-1.616-2.232c-1.154-1.202-2.424-2.176-3.694-2.863-.23-.114-.52-.286-.75-.4.289.114.635.286.923.458 1.212.63 2.367 1.545 3.463 2.633a19.954 19.954 0 0 1 2.713 3.378v.171c-.808-1.259-1.674-2.404-2.655-3.377Zm.058-.287c-1.097-1.087-2.309-2.003-3.52-2.633a9.417 9.417 0 0 0-.751-.343c.288.114.577.286.866.4a16.076 16.076 0 0 1 3.29 2.405c.23.229.461.458.692.744.115.115.23.229.346.4.116.115.231.287.347.401.404.516.808 1.03 1.212 1.603v.172c-.75-1.202-1.559-2.232-2.482-3.148Zm.52 22.957c.634-2.004.865-4.294.634-6.698a16.367 16.367 0 0 0-.23-1.66 87.988 87.988 0 0 0-.347-1.66 20.577 20.577 0 0 0-.981-3.206l-.693-1.546c-.23-.515-.52-1.03-.75-1.489-.577-1.03-1.212-1.946-1.847-2.862-1.5-1.946-3.232-3.492-5.021-4.522-.058 0-.058-.058-.116-.058.981.516 1.963 1.26 2.886 2.061.866.745 1.674 1.66 2.424 2.634.693.916 1.385 1.946 1.905 3.034.577 1.03 1.039 2.118 1.443 3.263.808 2.29 1.327 4.694 1.385 6.984v1.832c-.058.573-.115 1.202-.173 1.718-.116.858-.346 1.603-.577 2.347.057-.058.057-.115.057-.172Zm1.154-22.498.461.572c0 .057.058.172.058.229.058.229.115.515.115.744l-.173-.172c-.692-.858-1.385-1.66-2.135-2.347a14.201 14.201 0 0 0-3.117-2.232c-1.154-.63-2.308-1.03-3.463-1.203-.288-.057-.635-.057-.923-.057-.289 0-.635 0-.924.057-.634.058-1.212.172-1.789.401-.058 0-.115.057-.115.057h-.116c-.057 0-.115.058-.115.058h-.115c-.058 0-.116.057-.174.057h-.057c-.058 0-.116.057-.173.057H31.7c-.058 0-.058.057-.116.057-.057 0-.057 0-.115.058-.058 0-.115.057-.115.057h-.058c-.058 0-.058 0-.116.057h-.173c-.058 0-.058.057-.115.057-.231 0-.404.058-.635.058-.058 0-.058 0-.116-.058 1.04-.916 2.194-1.488 3.463-1.717.347-.057.693-.114 1.04-.114h1.038a8.879 8.879 0 0 1 2.078.4c1.27.4 2.482 1.03 3.694 1.947 1.096.916 2.135 1.832 3.059 2.976Zm1.5 4.007c.173.343.346.63.52.973.23.458.461.916.692 1.431.404.974.75 1.947 1.04 2.92.576 2.06.923 4.122.865 6.125 0 2.061-.404 4.008-1.039 5.61.635-1.545.923-3.32.981-5.209.058-1.946-.23-3.95-.75-6.01-.52-1.947-1.328-3.836-2.309-5.611v-.23Zm-.115-.573c.173.344.404.63.577.974.23.458.52.916.693 1.43.461.974.808 1.947 1.154 2.978.173.515.288 1.03.404 1.545.058.23.115.516.173.802.058.286.115.515.115.801.174 1.088.289 2.119.289 3.149 0 .515 0 1.088-.058 1.603 0 .286-.057.515-.057.801-.058.287-.058.516-.116.745a16.821 16.821 0 0 1-.692 2.576c.577-1.546.923-3.378.923-5.324 0-2.004-.288-4.065-.866-6.183-.288-.973-.635-2.004-1.039-2.92-.23-.458-.461-.973-.692-1.43-.231-.459-.52-.917-.75-1.375-.058-.114-.058-.172-.058-.172Zm.865 9.618v-.572c.058.229.058.458.116.63.058.572.173 1.144.173 1.717.058.572.058 1.202.058 1.717 0 .286 0 .573-.058.859 0 .286-.058.572-.058.859a15.258 15.258 0 0 1-.865 3.377c-.116.23-.174.458-.289.687.058-.171.173-.343.23-.515a9.6 9.6 0 0 0 .405-1.202c.115-.401.23-.802.288-1.26.058-.4.116-.858.174-1.26.173-1.602.115-3.32-.174-5.037Zm-1.096 9.618c0-.058.058-.115.058-.172 0 .057 0 .114-.058.172Zm.52-.802c0 .058-.058.115-.058.23 0 .056-.058.114-.058.171.058-.172.115-.286.115-.4Zm1.73-.458c0 .057 0 .057 0 0s.059-.114.059-.172c0 .058 0 .115-.058.172Zm.29-.172s0-.057.057-.057c-.058 0-.058 0-.058.057Zm-.058-11.392c.52 2.004.808 4.065.75 5.954-.058 2.004-.404 3.893-1.097 5.496.635-1.489.982-3.206 1.04-5.038.057-1.89-.116-3.893-.636-5.897a22.524 22.524 0 0 0-.865-2.805 22.57 22.57 0 0 0-1.212-2.69v-.172a22.29 22.29 0 0 1 2.02 5.152Zm-.981-2.233c.346.916.634 1.89.865 2.806.462 2.003.693 3.95.635 5.839-.058 2.118-.52 4.064-1.327 5.668 0 0 0 .057-.058.057.75-1.546 1.154-3.32 1.27-5.324.115-1.832-.058-3.721-.52-5.668a23.032 23.032 0 0 0-1.904-5.381v-.172c.404.687.75 1.431 1.038 2.175Zm.75 3.378c.404 1.947.577 3.836.52 5.61-.116 1.603-.405 3.092-.866 4.351.461-1.202.75-2.576.808-4.064a19.7 19.7 0 0 0-.404-5.439c-.347-1.775-.924-3.492-1.674-5.21v-.171c.692 1.603 1.27 3.263 1.616 4.923Zm-.116.515c.347 1.832.52 3.664.404 5.382-.115 1.545-.404 2.977-.923 4.236.462-1.145.693-2.462.808-3.893.115-1.66.058-3.377-.289-5.152-.288-1.66-.808-3.378-1.442-4.98v-.23c.634 1.546 1.154 3.092 1.442 4.637Zm-.115.63c.289 1.775.404 3.492.289 5.152-.174 1.832-.578 3.55-1.328 4.924-.058.057-.058.114-.115.229 0-.057.057-.057.057-.115.693-1.374 1.097-2.92 1.27-4.694.173-1.546.116-3.206-.173-4.866a17.886 17.886 0 0 0-.52-2.405 26.609 26.609 0 0 0-.75-2.29v-.286c.577 1.374.981 2.863 1.27 4.351Zm-.635-1.717c.231.801.346 1.603.462 2.347.23 1.66.288 3.263.173 4.809-.173 1.545-.52 2.977-1.039 4.179.462-1.145.808-2.462.981-3.893.173-1.431.116-2.92-.057-4.523-.116-.744-.231-1.488-.404-2.232a30.232 30.232 0 0 0-.578-2.176v-.286c.116.687.289 1.26.462 1.775Zm-.058.858c.174.745.289 1.489.404 2.176.174 1.545.231 3.034.058 4.465-.173 1.374-.462 2.576-.923 3.664a15.26 15.26 0 0 0 .865-3.378c.058-.343.058-.687.116-1.03 0-.344.058-.687.058-1.03 0-.688 0-1.374-.116-2.061-.058-.344-.058-.688-.115-1.031l-.173-1.03c-.116-.687-.289-1.317-.462-2.004v-.286c.057.572.173 1.03.288 1.545Zm-.057.86.173 1.03c.058.343.115.687.115.973.058.687.116 1.374.116 2.003 0 .344 0 .687-.058 1.03 0 .344-.058.688-.115.974-.174 1.26-.462 2.462-.866 3.492.404-1.03.692-2.118.808-3.32.058-.286.058-.573.115-.859 0-.286.058-.572.058-.916 0-.572 0-1.145-.058-1.775-.057-.572-.115-1.145-.173-1.774l-.173-.859-.173-.859v-.343c.057.458.173.801.23 1.202Zm-.116 4.464v-1.66c.058.859.058 1.66 0 2.462v-.802Zm2.482 1.603c.058-.229.058-.515.115-.744.058-.229.058-.515.058-.801.058-.516.058-1.088.058-1.603 0-1.03-.115-2.118-.289-3.206a3.353 3.353 0 0 1-.115-.802c-.058-.286-.116-.515-.173-.801-.116-.515-.289-1.03-.404-1.546-.289-1.03-.693-2.004-1.155-2.977-.23-.515-.461-.973-.75-1.43-.23-.459-.52-.917-.808-1.375v-.114a22.523 22.523 0 0 1 2.597 5.438c.693 2.118 1.097 4.294 1.155 6.355 0 1.145-.058 2.175-.231 3.206-.173 1.145-.462 2.175-.866 3.091 0 .057-.058.057-.058.114.404-.801.693-1.774.866-2.805Zm1.5-5.038c0-.057-.057-.057-.057-.114v-.172s.058 0 .058.058a.435.435 0 0 1 .115.286v.057l-.115-.114Zm-.115 4.752c.058 0 .058 0 .058.057a.44.44 0 0 0 .115.23v.057l-.057-.058c0-.057-.058-.057-.058-.114-.058 0-.058-.057-.058-.172Zm.462-.172c0 .115 0 .172-.058.287 0-.058-.058-.115-.115-.172v-.057l-.058-.058a.797.797 0 0 0-.23-.171c-.116-.058-.232-.058-.347.057 0-.172.058-.344.058-.573.057-.801.115-1.603.057-2.404v-.172c0-.171 0-.4-.057-.572 0-.115 0-.287-.058-.401a.795.795 0 0 0 .23.172h.116a.445.445 0 0 0 .289-.115s0-.057.057-.057v.172c.231 1.374.231 2.748.116 4.064Zm-.116-5.095c-.057-.057-.173-.114-.23-.171-.173-.058-.289 0-.404.114-.231-1.775-.635-3.55-1.27-5.267a24.248 24.248 0 0 0-3.578-6.583l-.058-.057v-.058c-.116-.458-.173-.973-.289-1.43 1.616 1.888 2.944 4.12 3.983 6.583a27.621 27.621 0 0 1 1.846 6.87Zm-6.233-14.197c.173.687.346 1.431.462 2.233.115.744.288 1.488.404 2.232.115.744.23 1.489.346 2.29.058.4.116.744.116 1.145.057.4.057.744.115 1.145.058.4.058.744.116 1.145.057.4.057.744.057 1.145.058.744.116 1.546.116 2.29.057.858.057 1.603.057 2.29v2.29c0 2.175-.404 4.236-1.096 5.896a9.62 9.62 0 0 1-1.558 2.576c-.174.172-.347.401-.52.573l-.23.229-.116.057c-.058 0-.058.057-.058.115-.058.057-.115.057-.115.114-.289.23-.578.4-.866.63l.692-.515c.116-.115.289-.23.404-.344a2.49 2.49 0 0 0 .347-.4c.115-.115.23-.287.346-.401.116-.115.23-.287.346-.458.231-.287.404-.63.578-.974.057-.057.057-.171.115-.229.058-.114.115-.171.173-.286.058-.114.115-.172.173-.286.173-.343.289-.687.404-1.03.058-.115.116-.287.116-.401.057-.115.115-.287.115-.458.058-.287.173-.573.23-.859.232-1.088.347-2.29.347-3.55 0-.343 0-.744.058-1.144V60.9c0-.4 0-.744-.058-1.145 0-.286 0-.515-.057-.744a72.112 72.112 0 0 0-.29-3.779c-.114-1.488-.345-3.034-.576-4.522-.116-.802-.231-1.546-.404-2.233-.173-.802-.289-1.489-.462-2.233-.115-.4-.173-.744-.288-1.087a7.566 7.566 0 0 1-.29-1.088c-.114-.344-.23-.687-.345-1.088a25.008 25.008 0 0 1-.347-1.087c-.115-.401-.288-.745-.404-1.088-.173-.401-.288-.744-.461-1.088-.347-.687-.635-1.374-.982-2.004a925.581 925.581 0 0 0-.692-1.03c-.116-.172-.231-.344-.346-.458-.116-.172-.231-.286-.347-.458l-.692-.859c-.116-.114-.231-.286-.347-.4-.115-.115-.23-.287-.346-.401-.288-.287-.577-.516-.866-.802-.173-.114-.288-.229-.461-.343-.173-.115-.289-.23-.462-.344-.289-.229-.635-.4-.981-.572a2.06 2.06 0 0 0-.52-.23c-.057 0-.115-.056-.173-.056 0-.058-.058-.058-.058-.115h-.173v-.057h.058s.058 0 .058.057l.057.057h.058c.058 0 .058.058.115.058.174.114.347.171.52.229.173.057.346.171.52.286.173.114.346.172.461.286.289.23.635.458.924.687.173.114.288.229.461.4l.404.401c.231.23.52.516.75.802.116.114.232.286.347.4.115.172.23.287.346.459.462.63.924 1.26 1.328 1.946.173.286.346.63.52.973.172.344.345.687.519 1.03.173.344.288.688.461 1.088.116.344.289.688.404 1.088.116.344.231.687.347 1.088.115.343.23.744.346 1.088.115.4.23.744.346 1.087.231.23.289.63.404 1.03Zm-.981-11.793c0-.057 0-.057 0 0 .058-.057 0-.057 0 0l.058-.057.058-.115c0 .057 0 .115-.058.172h-.058Zm-9.234-3.779c-.116-.057-.231-.114-.347-.114a4.134 4.134 0 0 1-.866-.458l-.057-.057a1.075 1.075 0 0 1-.346-.401c-.058-.057-.116-.115-.174-.057-.057.057-.115.114-.057.171.057.172.23.344.404.516h.115c.289.171.577.343.923.458.174.057.29.114.462.171 0 0 .058 0 .058.058l-.115.114c-.116.172-.174.4-.174.573v.114c-.115-.057-.173-.057-.288-.114-.231-.115-.462-.172-.693-.287a6.397 6.397 0 0 1-.635-.343.796.796 0 0 1-.23-.172c0-.057-.058-.057-.058-.057h-.058c-.058-.057-.115-.057-.173-.115l-.058-.057-.115-.114c-.058-.058-.116-.058-.116-.115-.057 0-.115-.057-.173-.057-.173-.057-.461-.115-.866-.23-.057 0-.115 0-.173.115l-.23-.057-1.79-.63c-.115-.057-.23-.171-.346-.286-.116-.114-.173-.286-.23-.458-.059-.114-.059-.286-.059-.4v-.23c0-.058.058-.172.116-.172.115-.058.23-.115.288-.115h.058l5.368 1.89c.057 0 .115.057.115.057h.058c.057 0 .057.057.115.057l.058.057.058.057.115.115c.058.343.058.458.116.572ZM49.65 71.492c-.057.114-.173.286-.23.4.057-.171.173-.286.23-.4Zm.924-2.004c.462-1.202.75-2.576.866-4.007a24.57 24.57 0 0 0 0-4.122c-.231-2.634-.924-5.382-2.02-7.958-1.04-2.461-2.482-4.809-4.098-6.698l-.116-.114c-.058-.057-.058-.115-.115-.115l-.058-.057c0-.057-.058-.172-.058-.229v-.114c1.732 1.832 3.232 4.121 4.387 6.64.577 1.26 1.096 2.577 1.443 3.95.115.344.173.687.288 1.03.058.344.173.688.231 1.031l.346 2.061c.173 1.431.173 2.863.116 4.18a18.014 18.014 0 0 1-.808 4.121c-.231.687-.52 1.374-.866 2.004-.115.172-.173.286-.288.458.23-.744.519-1.374.75-2.061ZM3.709 19.453c-.058 0-.058 0 0 0Zm65.68-10.762-.058.057v.974c-.346.114-.75.17-1.038.17a3.896 3.896 0 0 1-1.155 0 53.39 53.39 0 0 1-1.154-.17c-.116 0-.173-.058-.289-.115-.057-.058-.173-.058-.23-.115-.058 0-.116-.057-.116-.114l-.115-.115c-.058-.057-.058-.114-.058-.114v-.974c.058.058.115.058.173.115a.443.443 0 0 0 .289.114c.115.058.23.058.288.115.346.114.75.172 1.212.229h1.212c.347 0 .808-.115 1.212-.229.173-.057.347-.115.462-.229h.058c0 .114-.116.172-.173.229-.231.057-.347.114-.52.172Zm8.83 1.03 11.313 3.607h.058c.115.057.23.057.346.114.115.057.288.115.404.172.23.057.346.172.52.286L76.95 9.435h.173c.115 0 .173 0 .346.057.116.057.231.057.347.115l.404.114Zm13.333 4.351c-.058-.114-.173-.172-.231-.229-.23-.229-.462-.344-.808-.515-.115-.057-.289-.115-.404-.172-.115-.057-.23-.057-.346-.115h-.058L78.393 9.435l-.347-.115c-.115-.057-.23-.057-.346-.114-.173-.057-.288-.057-.404-.057-.115 0-.288 0-.462.114l-.057.057-.058.058-.462-.172-.808-3.091c-.058-.172-.058-.344-.115-.458v-.23c0-.057.057-.114.057-.114s.058-.057.116-.057h.173c.115 0 .289.057.404.114L89.82 9.721c.174.057.347.115.52.23.115.056.173.114.23.17l.174.173c.115.114.23.286.288.458.058.171.116.4.174.572l.75 2.977-.404-.229Zm1.443 73.793a.616.616 0 0 1-.173.4l-.347.344c-.173.114-.404.286-.692.4l-40.17 17.69c-.116.057-.231.115-.289.115-.058 0-.115.057-.173.057-.116.057-.23.057-.346.114-.289.058-.578.172-.866.229-.289.058-.577.115-.866.115-.288 0-.577.057-.866.057-.288 0-.577 0-.865-.057-.289 0-.578-.057-.866-.115a4.778 4.778 0 0 1-.866-.229 3.323 3.323 0 0 1-.808-.286l-1.616-.687v-3.778c0 .057 0 .057.058.114.058.115.173.172.23.229.059.058.174.058.232.058h.173c.058 0 .058-.058.115-.058l.116-.114c.057-.057.057-.172.057-.229a1.1 1.1 0 0 0-.173-.573c-.057-.114-.173-.171-.23-.229-.058-.057-.174-.057-.232-.057h-.172c-.057 0-.057.057-.115.057l.058-21.067c0 .057 0 .057.057.115.058.114.173.171.231.229.058.057.173.057.231.057h.172c.058 0 .058-.057.116-.057l.115-.115c.058-.057.058-.172.058-.286 0-.172-.058-.4-.173-.573-.058-.114-.173-.171-.231-.229-.058-.057-.173-.057-.231-.057h-.173c-.058 0-.116.057-.116.057v-3.434c.693-.115 1.386-.23 2.02-.516l.462-.171c.635-.23 1.212-.573 1.79-1.031.576-.458 1.154-.973 1.615-1.546.404-.515.808-1.087 1.155-1.717.346-.63.634-1.317.865-2.061.404-1.26.693-2.69.808-4.18.116-1.373.058-2.804-.115-4.235a12.813 12.813 0 0 0-.346-2.061 6.662 6.662 0 0 0-.231-1.03c-.058-.344-.173-.688-.289-1.031a33.199 33.199 0 0 0-1.443-4.008c-1.154-2.519-2.655-4.866-4.444-6.698l-.173-.171c-.058-.058-.058-.115-.115-.115l-.058-.057c-.058-.172-.058-.286-.115-.458-.116-.344-.174-.744-.347-1.088-.115-.343-.23-.744-.346-1.088-.115-.343-.231-.744-.346-1.087-.116-.344-.231-.63-.347-.974v-6.411s0 .057.058.057c.058.114.173.172.23.229.059.057.174.057.232.057h.115c.058 0 .058-.057.116-.057l.057-.057v-.057s0-.058.058-.058c.058-.057.058-.171.058-.286a1.1 1.1 0 0 0-.173-.572c-.058-.115-.173-.172-.231-.23h-.404c-.058 0-.116.058-.173.115v-1.946h.057l1.674.572c.289.115.577.172.866.23l.865.17c.578.115 1.155.115 1.732.115.289 0 .577 0 .866-.057.288 0 .577-.057.865-.114l.866-.172c.289-.057.577-.172.866-.23l41.324-14.94c.231-.058.52-.23.808-.402.116-.114.289-.171.347-.286.057-.057.057-.057.057-.114.058 0 .058-.058.058-.115v-.114l-1.558 71.789ZM92.418 9.95c0 .057.057.115.057.172 0-.057 0-.115-.057-.172Zm-.231-.515c0 .057.058.114.058.114s0-.057-.058-.114ZM1.689 16.82c.288.172.634.343.865.4l1.5.573s0 .057.059.057v1.718c0-.057-.058-.115-.058-.115-.058-.057-.115-.171-.23-.229 0 0-.059 0-.059-.057h-.288a.449.449 0 0 0-.231.23c-.058.056-.058.17-.058.285 0 .172.058.344.173.516l.231.229c.058.057.173.057.231.057h.115c.058 0 .174-.115.174-.172v.63c0 .057 0 .114.057.114l.058.057v3.035H4.17c0 .057-.057.057-.057.114l.23 18.262a.433.433 0 0 0-.115-.229.449.449 0 0 0-.23-.229s-.059 0-.059-.057h-.288a.449.449 0 0 0-.23.229c-.059.057-.059.172-.059.286 0 .172.058.344.173.515.058.058.116.172.231.23.058.057.173.057.231.057h.116a.449.449 0 0 0 .23-.23l.29 21.01c0-.057 0-.057-.059-.114v-.057a.449.449 0 0 0-.23-.23c0-.114-.058-.114-.116-.114h-.173a.449.449 0 0 0-.23.23c-.059.057-.059.171-.059.228 0 .172.058.344.173.516a.448.448 0 0 0 .231.229c.058.057.174.057.231.057h.116c.057 0 .057-.057.115-.057l.116-.115.288 20.61c0-.058-.058-.115-.058-.115s0-.057-.057-.057a.449.449 0 0 0-.231-.23c-.058-.114-.116-.114-.173-.114h-.173a.449.449 0 0 0-.231.23c-.058.056-.058.17-.058.228 0 .172.058.344.173.515a.449.449 0 0 0 .23.23c.059.057.174.057.232.057h.115c.058 0 .058-.058.116-.058.057-.057.057-.057.057-.114l.116 2.92s0 .057.058.057c-.058.057-.058.057-.058.172v.63l-1.385-.63c-.231-.115-.462-.23-.635-.344-.058-.057-.116-.057-.173-.114l-.347-.344a.616.616 0 0 1-.173-.4L1.342 16.59c.116.057.231.172.347.229Zm91.537 71.33c0 .058-.058.058-.058.115.058-.057.058-.057.058-.114Zm1.616-72.475c0 .057.057.057.057.114 0 0-.057-.057-.057-.114Zm-.289-.344c-.23-.171-.462-.343-.635-.4.173.114.404.229.635.4Zm-3.232-6.698c-.173-.057-.288-.114-.462-.171.174.057.347.114.462.171ZM76.257 3.996h.289-.289ZM47.515.62h.462-.462Zm-2.482.229c.23-.058.52-.115.808-.172h.23-.23a2.06 2.06 0 0 1-.808.172c-.058 0-.115.057-.23.057.115 0 .172 0 .23-.057ZM2.15 14.874s-.057 0-.057.057c0 0 .057 0 .057-.057Zm.231 73.907v-.287s0-.057-.058-.057c-.115-.172-.23-.4-.23-.572L1.053 15.96l1.04 71.846c0 .172.057.401.23.573 0 0 0 .057.058.057v.344Zm.058.228c.058.058.058.172.115.23.058.057.116.114.116.171-.058-.057-.116-.114-.116-.171a.433.433 0 0 1-.115-.23Zm.288.401.058.058s-.058 0-.058-.058Zm42.075 18.377L3.766 90.04a.933.933 0 0 1-.404-.229c-.173-.057-.288-.172-.404-.286.116.114.231.171.404.286.116.057.289.172.404.229l41.036 17.747c.116.057.173.057.289.114a.444.444 0 0 1-.289-.114Zm.75.343c-.057 0-.115-.057-.115-.057.058 0 .116.057.116.057Zm46.289-18.09c.173-.057.404-.172.577-.344-.231.115-.404.23-.578.344Z" fill="#323A3D"/><path d="M28.552 43.113a11.37 11.37 0 0 0-.091.066l-.036-.002c-.14-.004-.343-.006-.594 0-.5.013-1.2.061-2.001.206-1.594.287-3.626.96-5.264 2.52-3.265 3.114-5.094 9.746-2.405 18.593a25.22 25.22 0 0 0 6.647 10.83c2.79 2.664 5.922 4.34 8.574 4.688 4.218.552 6.679-1.539 7.415-2.772l.413-.657c1.573.26 4.562.06 7.407-2.353 1.972-1.67 3.27-4.7 3.756-8.143.488-3.459.169-7.419-1.184-11.032-2.668-7.124-6.702-12.416-12.72-14.305-2.49-.781-5.053-.115-6.942.7a17.204 17.204 0 0 0-2.975 1.661Z" fill="#009688" fill-opacity=".25" stroke="#009688" stroke-linecap="round" stroke-linejoin="round"/></g><defs><clipPath id="a"><path fill="#fff" transform="translate(.477 .047)" d="M0 0h95v109H0z"/></clipPath></defs></svg>