<svg width="40" height="40" viewBox="0 0 40 40" fill="none" xmlns="http://www.w3.org/2000/svg">
<path d="M38.2923 1.34808L38.2441 1.30417C37.3235 0.463194 36.1301 0 34.8837 0C33.4864 0 32.1449 0.591489 31.2029 1.62267L13.3916 21.1224C13.2293 21.3002 13.1061 21.5099 13.03 21.7381L10.9357 28.0167C10.6935 28.7426 10.815 29.5453 11.2607 30.164C11.7099 30.7875 12.4336 31.1598 13.1967 31.1598H13.1968C13.5269 31.1598 13.8495 31.0919 14.1555 30.958L20.2195 28.3052C20.44 28.2087 20.6377 28.0671 20.8 27.8894L38.6114 8.38977C40.4648 6.36078 40.3219 3.20211 38.2923 1.34808ZM14.9484 26.8569L16.1773 23.1726L16.281 23.0591L18.6102 25.1866L18.5066 25.3001L14.9484 26.8569ZM36.0718 6.07002L20.93 22.6472L18.6007 20.5197L33.7426 3.94242C34.0387 3.61819 34.444 3.43956 34.8838 3.43956C35.2696 3.43956 35.6391 3.5831 35.9251 3.84428L35.9731 3.88819C36.6019 4.46248 36.6461 5.44127 36.0718 6.07002V6.07002Z" fill="#fc5d5d"/>
<path d="M34.8369 15.8664C33.8871 15.8664 33.1171 16.6364 33.1171 17.5862V32.1868C33.1171 34.5984 31.155 36.5604 28.7435 36.5604H7.89985C5.48815 36.5604 3.52623 34.5984 3.52623 32.1868V11.5125C3.52623 9.10094 5.48826 7.1389 7.89985 7.1389H22.9865C23.9363 7.1389 24.7063 6.3689 24.7063 5.41912C24.7063 4.46934 23.9363 3.69934 22.9865 3.69934H7.89985C3.59158 3.69934 0.0866699 7.20437 0.0866699 11.5125V32.1867C0.0866699 36.4949 3.59169 39.9999 7.89985 39.9999H28.7433C33.0515 39.9999 36.5565 36.4949 36.5565 32.1867V17.5862C36.5566 16.6364 35.7866 15.8664 34.8369 15.8664V15.8664Z" fill="#808080"/>
</svg>
