<svg width="16" height="17" viewBox="0 0 16 17" fill="none" xmlns="http://www.w3.org/2000/svg">
<circle cx="8" cy="8.5" r="7.5" stroke="#CECECE"/>
<path d="M8.43066 10.5674H6.90625C6.91081 10.1436 6.94727 9.78809 7.01562 9.50098C7.08398 9.20931 7.19792 8.94499 7.35742 8.70801C7.52148 8.47103 7.73796 8.22038 8.00684 7.95605C8.21647 7.75553 8.4056 7.56641 8.57422 7.38867C8.74284 7.20638 8.87728 7.01497 8.97754 6.81445C9.0778 6.60938 9.12793 6.37467 9.12793 6.11035C9.12793 5.82324 9.08008 5.57943 8.98438 5.37891C8.88867 5.17839 8.7474 5.02572 8.56055 4.9209C8.37826 4.81608 8.15039 4.76367 7.87695 4.76367C7.64909 4.76367 7.4349 4.80924 7.23438 4.90039C7.03385 4.98698 6.87207 5.1237 6.74902 5.31055C6.62598 5.49284 6.5599 5.73438 6.55078 6.03516H4.90332C4.91243 5.46094 5.04915 4.97786 5.31348 4.58594C5.5778 4.19401 5.93327 3.90007 6.37988 3.7041C6.8265 3.50814 7.32552 3.41016 7.87695 3.41016C8.48763 3.41016 9.00944 3.51497 9.44238 3.72461C9.87533 3.92969 10.2057 4.23047 10.4336 4.62695C10.666 5.01888 10.7822 5.49284 10.7822 6.04883C10.7822 6.44987 10.7025 6.81445 10.543 7.14258C10.3835 7.46615 10.1761 7.76921 9.9209 8.05176C9.66569 8.32975 9.38997 8.60775 9.09375 8.88574C8.83854 9.11816 8.66536 9.37109 8.57422 9.64453C8.48307 9.91341 8.43522 10.221 8.43066 10.5674ZM6.76953 12.7002C6.76953 12.4541 6.85384 12.2467 7.02246 12.0781C7.19108 11.9049 7.42122 11.8184 7.71289 11.8184C8.00456 11.8184 8.2347 11.9049 8.40332 12.0781C8.57194 12.2467 8.65625 12.4541 8.65625 12.7002C8.65625 12.9463 8.57194 13.1559 8.40332 13.3291C8.2347 13.4977 8.00456 13.582 7.71289 13.582C7.42122 13.582 7.19108 13.4977 7.02246 13.3291C6.85384 13.1559 6.76953 12.9463 6.76953 12.7002Z" fill="#009688"/>
</svg>
