<svg width="84" height="90" viewBox="0 0 84 90" fill="none" xmlns="http://www.w3.org/2000/svg">
<path fill-rule="evenodd" clip-rule="evenodd" d="M5.34691 24.4327C4.56949 25.2782 4.11325 26.0524 3.97663 26.7188C3.30644 29.9879 3.12508 36.3735 3.11871 42.8154C3.11554 46.02 3.15531 49.2145 3.19593 52.0074C3.2036 52.5347 3.2113 53.048 3.21876 53.5445C3.25072 55.6736 3.27805 57.4942 3.27802 58.7876C3.27795 62.0517 4.35376 64.0068 5.37217 65.1401C5.88745 65.7135 6.3998 66.0894 6.77687 66.3194C6.96526 66.4344 7.11909 66.5125 7.22134 66.5602C7.27242 66.584 7.31048 66.6002 7.33336 66.6096C7.34479 66.6142 7.35242 66.6172 7.35596 66.6186L7.35569 66.6185L7.35492 66.6182C7.35449 66.6181 7.35405 66.6179 7.10071 67.3238C6.84738 68.0297 6.8469 68.0296 6.8464 68.0294L6.84532 68.029L6.84284 68.0281L6.83662 68.0258L6.81923 68.0192C6.80547 68.014 6.78741 68.0069 6.76535 67.9979C6.72125 67.9798 6.66106 67.954 6.58711 67.9195C6.43928 67.8505 6.23586 67.7465 5.99555 67.5999C5.51522 67.3068 4.88437 66.8414 4.25646 66.1427C2.98848 64.7317 1.77795 62.4186 1.77802 58.7875C1.77805 57.5066 1.75095 55.7013 1.71901 53.5731C1.71154 53.0753 1.7038 52.5598 1.69609 52.0292C1.65544 49.2348 1.61553 46.0307 1.61871 42.8139C1.62504 36.4129 1.80057 29.8644 2.50719 26.4175C2.72248 25.3674 3.38337 24.3521 4.24268 23.4174C5.11114 22.4728 6.23709 21.5517 7.48 20.6927C9.96616 18.9745 12.9981 17.4519 15.587 16.4492L16.1288 17.848C13.6312 18.8152 10.7071 20.2858 8.33281 21.9267C7.14551 22.7472 6.11516 23.5971 5.34691 24.4327Z" fill="#00AE42"/>
<path fill-rule="evenodd" clip-rule="evenodd" d="M16.179 22.9883V25.2201L15.9738 25.2884C15.3287 25.5033 14.28 25.8607 13.1328 26.5466C12.5559 26.8916 12.0269 27.2577 11.6142 27.6193C11.184 27.9963 10.9634 28.2968 10.8851 28.4927C10.615 29.168 10.4434 30.3391 10.3585 31.769C10.2757 33.1621 10.2805 34.6759 10.3039 35.9622L10.3094 36.2622L8.20973 36.3003L8.20428 36.0004C8.1806 34.6981 8.17455 33.1199 8.26217 31.6445C8.34762 30.2056 8.52761 28.732 8.93524 27.7129C9.19573 27.0616 9.70777 26.4977 10.2303 26.0399C10.7702 25.5668 11.4136 25.1278 12.0551 24.7443C13.3454 23.9727 15.0191 23.3747 15.7842 23.1198L16.179 22.9883ZM15.579 23.8242C14.7376 24.1197 13.4093 24.6336 12.363 25.2592C11.74 25.6318 11.1293 26.0499 10.6257 26.4911C10.1297 26.9257 9.70083 27.4144 9.49234 27.9357C9.12396 28.8567 8.94639 30.2441 8.86111 31.6801C8.78144 33.0217 8.78025 34.4555 8.79915 35.6895L9.699 35.6732C9.68029 34.4488 9.68183 33.0418 9.75953 31.7334C9.84458 30.3013 10.0185 29.0435 10.328 28.2699C10.4584 27.9437 10.7624 27.568 11.2188 27.168C11.6679 26.7746 12.2296 26.3877 12.8249 26.0317C13.9121 25.3816 14.9133 25.0137 15.579 24.788V23.8242Z" fill="#909090"/>
<path fill-rule="evenodd" clip-rule="evenodd" d="M51.6806 3.93324C50.2245 3.44786 48.8134 3.46509 47.9096 3.91696C47.7936 3.97496 47.3774 4.14158 46.7474 4.3868C46.1073 4.6359 45.2264 4.97371 44.1619 5.379C42.0327 6.18965 39.1666 7.27107 36.0185 8.45445C29.7224 10.8212 22.2971 13.5963 17.3803 15.4297L17.3645 15.4356L17.3482 15.4397C17.0317 15.5188 16.6426 15.678 16.4325 15.8783C16.3319 15.9742 16.3018 16.0507 16.3004 16.1078C16.299 16.1625 16.3222 16.271 16.4875 16.4364C16.4875 16.4364 16.4898 16.4386 16.4952 16.4431C16.5011 16.4479 16.5093 16.4544 16.5204 16.4625C16.5426 16.4789 16.5726 16.4993 16.6113 16.5241C16.6887 16.5736 16.793 16.6353 16.9244 16.709C17.1867 16.8561 17.5461 17.0448 17.9909 17.2696C18.8798 17.7189 20.0995 18.3073 21.5438 18.9865C24.4318 20.3447 28.2109 22.0625 32.0219 23.7493C35.8331 25.4362 39.674 27.0912 42.686 28.3241C44.1924 28.9407 45.4888 29.4507 46.4695 29.806C46.9602 29.9838 47.3684 30.1217 47.6826 30.2147C48.011 30.3119 48.2007 30.3486 48.2755 30.3486C49.8402 30.3486 51.2082 30.0215 51.6806 29.864L51.8703 30.4332C51.3427 30.6091 49.9107 30.9486 48.2755 30.9486C48.1003 30.9486 47.829 30.8838 47.5124 30.7901C47.1816 30.6922 46.7607 30.5498 46.2651 30.3701C45.2731 30.0107 43.9679 29.4972 42.4587 28.8794C39.4395 27.6435 35.5929 25.9861 31.7791 24.298C27.9651 22.6098 24.1816 20.8901 21.2884 19.5295C19.8421 18.8493 18.6165 18.2581 17.7202 17.805C17.2724 17.5787 16.9043 17.3855 16.631 17.2323C16.4945 17.1558 16.379 17.0878 16.2879 17.0295C16.203 16.9751 16.1197 16.9172 16.0633 16.8608C15.8288 16.6262 15.6936 16.3681 15.7006 16.0926C15.7075 15.8195 15.8524 15.6023 16.0185 15.444C16.3366 15.1408 16.8365 14.9512 17.186 14.8618C22.1026 13.0285 29.5185 10.2569 35.8074 7.89282C38.9552 6.70953 41.8204 5.62845 43.9484 4.81826C45.0125 4.41314 45.8918 4.07595 46.5297 3.82765C47.1777 3.57547 47.5573 3.4223 47.6413 3.3803C48.7376 2.83217 50.3265 2.8494 51.8703 3.36403C52.2604 3.49404 54.2152 4.31426 56.9241 5.46631C59.6433 6.62276 63.1438 8.12295 66.6436 9.62289C70.1438 11.1229 73.6433 12.6228 76.3616 13.7788C79.0902 14.9393 81.0104 15.744 81.3703 15.864C82.1718 16.1312 82.6444 16.5569 82.8101 17.0538C82.976 17.5515 82.8062 18.0422 82.4876 18.3608C82.3698 18.4786 82.2498 18.5734 82.1499 18.6524C82.1311 18.6673 82.1129 18.6816 82.0957 18.6954C81.9821 18.7862 81.8978 18.8605 81.828 18.9536C81.6966 19.1288 81.5755 19.4275 81.5755 20.1486V75.6486H80.9755V20.1486C80.9755 19.3698 81.1044 18.9185 81.348 18.5936C81.4656 18.4367 81.6 18.3235 81.7209 18.2269C81.7425 18.2096 81.7635 18.1929 81.7841 18.1766C81.8833 18.098 81.9723 18.0275 82.0633 17.9365C82.2448 17.7551 82.325 17.4958 82.2409 17.2435C82.1565 16.9904 81.8792 16.6661 81.1806 16.4332C80.7906 16.3032 78.8357 15.483 76.1268 14.331C73.4077 13.1745 69.9074 11.6744 66.4076 10.1745L66.4062 10.1739C62.9065 8.67402 59.4073 7.17439 56.6893 6.01845C53.9607 4.85801 52.0406 4.05323 51.6806 3.93324Z" fill="#909090"/>
<path fill-rule="evenodd" clip-rule="evenodd" d="M15.4755 35.1455L15.7003 15.9219L16.3003 15.9289L16.0754 35.1525L15.4755 35.1455Z" fill="#909090"/>
<path fill-rule="evenodd" clip-rule="evenodd" d="M82.4754 74.9373V17.1484H83.0754V75.3596L82.8767 75.4308C74.0382 78.5993 55.8802 85.1297 53.8868 85.927C51.3294 86.9499 48.2514 87.4598 44.1701 85.9293C42.1586 85.175 40.5249 84.4209 39.3345 83.8571C39.1762 83.7821 39.0262 83.7107 38.8846 83.6433C38.4914 83.4561 38.1622 83.2994 37.8952 83.1802C37.714 83.0992 37.5682 83.0385 37.4555 82.9986C37.3993 82.9787 37.3552 82.9653 37.3217 82.9572C37.2861 82.9485 37.273 82.9484 37.2754 82.9484C37.0717 82.9484 36.9392 82.8174 36.8661 82.7195C36.7909 82.6188 36.7305 82.4901 36.6785 82.366C36.6379 82.2694 36.5959 82.1588 36.5527 82.0453C36.5392 82.0099 36.5256 81.9742 36.5119 81.9385C36.453 81.7849 36.3892 81.6236 36.3148 81.4601C36.0161 80.8029 35.5697 80.1562 34.7027 79.9395C33.6652 79.6801 32.0107 78.914 30.5163 78.1668C29.7635 77.7904 29.0426 77.4142 28.4482 77.1014C28.2871 77.0166 28.1357 76.9367 27.9957 76.8628C27.6167 76.6627 27.3211 76.5067 27.1413 76.4168C26.9943 76.3433 26.8782 76.3555 26.7338 76.4304C26.5859 76.5071 26.4403 76.6328 26.2515 76.7958C26.2215 76.8217 26.1905 76.8485 26.1582 76.8762C25.9386 77.0644 25.6715 77.2819 25.3478 77.4114C25.0114 77.5459 24.6258 77.5815 24.1806 77.433C23.8562 77.3249 23.3336 77.0779 22.7268 76.7702C22.1136 76.4593 21.3948 76.0762 20.6694 75.6862C20.4686 75.5782 20.2675 75.4699 20.0682 75.3625C18.8185 74.6892 17.6358 74.0519 17.0006 73.7696L17.2443 73.2213C17.9024 73.5138 19.1106 74.1649 20.3551 74.8355C20.5543 74.9428 20.7545 75.0507 20.9535 75.1577C21.6788 75.5476 22.392 75.9277 22.9981 76.2351C23.6107 76.5457 24.0947 76.772 24.3703 76.8638C24.675 76.9654 24.9144 76.9385 25.125 76.8543C25.3481 76.765 25.5497 76.6075 25.7677 76.4207C25.7951 76.3972 25.8232 76.3728 25.8519 76.3479C26.0342 76.1897 26.2413 76.0099 26.4577 75.8977C26.7352 75.7538 27.0566 75.7036 27.4096 75.8801C27.5958 75.9732 27.9007 76.1342 28.283 76.336C28.4217 76.4092 28.5706 76.4878 28.7277 76.5705C29.3208 76.8826 30.0374 77.2565 30.7846 77.6301C32.2902 78.3829 33.8857 79.1168 34.8482 79.3574C35.9812 79.6406 36.5348 80.494 36.861 81.2118C36.9429 81.392 37.0119 81.5666 37.0721 81.7236C37.0875 81.7637 37.1022 81.8023 37.1163 81.8392C37.1585 81.9502 37.1955 82.0474 37.2318 82.134C37.2778 82.2438 37.3133 82.3125 37.3408 82.3521C37.4428 82.363 37.5532 82.3967 37.6559 82.433C37.7912 82.481 37.9541 82.5493 38.14 82.6323C38.4143 82.7549 38.7537 82.9164 39.1501 83.1051C39.2902 83.1718 39.4374 83.2419 39.5914 83.3148C40.776 83.8759 42.3923 84.6218 44.3808 85.3675C48.2995 86.8371 51.2214 86.3469 53.664 85.3699C55.6558 84.5732 73.5762 78.1279 82.4754 74.9373Z" fill="#909090"/>
<path fill-rule="evenodd" clip-rule="evenodd" d="M51.4753 30.149C51.4753 30.1486 51.4753 30.1484 51.7753 30.1484C52.0753 30.1484 52.0753 30.1486 52.0753 30.149V83.6484C52.0753 84.4872 51.6619 85.4362 50.9875 86.1106C50.3055 86.7926 49.3268 87.2205 48.2026 86.9395L48.3482 86.3574C49.224 86.5764 49.9953 86.2543 50.5632 85.6863C51.1388 85.1107 51.4753 84.3097 51.4753 83.6485V30.149Z" fill="#909090"/>
<path fill-rule="evenodd" clip-rule="evenodd" d="M82.3837 18.4287L51.3837 30.4287L51.1671 29.8691L82.1671 17.8691L82.3837 18.4287ZM81.4271 26.8401L52.0359 38.5792L51.8133 38.022L81.2046 26.2829L81.4271 26.8401Z" fill="#909090"/>
<path fill-rule="evenodd" clip-rule="evenodd" d="M80.7726 16.2037L45.8005 29.9976L45.5803 29.4395L80.5525 15.6455L80.7726 16.2037Z" fill="#909090"/>
<path d="M81.5549 17.3604C81.5549 17.6365 81.1072 17.8604 80.5549 17.8604C80.0026 17.8604 79.5549 17.6365 79.5549 17.3604C79.5549 17.0842 80.0026 16.8604 80.5549 16.8604C81.1072 16.8604 81.5549 17.0842 81.5549 17.3604Z" fill="#909090"/>
<path d="M53.337 29.9603C53.337 29.7547 53.4629 29.57 53.6543 29.4949L63.1549 25.7636C63.4829 25.6348 63.8376 25.8766 63.8376 26.229V33.7897C63.8376 33.9953 63.7118 34.1799 63.5204 34.2551L54.0198 37.9864C53.6918 38.1152 53.337 37.8734 53.337 37.521V29.9603Z" fill="#D9D9D9"/>
<path fill-rule="evenodd" clip-rule="evenodd" d="M63.5377 26.2285C63.5377 26.0875 63.3958 25.9908 63.2646 26.0423L53.764 29.7736C53.6875 29.8037 53.6371 29.8775 53.6371 29.9598V37.5205C53.6371 37.6614 53.779 37.7582 53.9102 37.7066L63.4108 33.9754C63.4874 33.9453 63.5377 33.8714 63.5377 33.7892V26.2285ZM63.0453 25.4839C63.5701 25.2778 64.1377 25.6647 64.1377 26.2285V33.7892C64.1377 34.1182 63.9364 34.4136 63.6302 34.5338L54.1296 38.2651C53.6047 38.4712 53.0371 38.0843 53.0371 37.5205V29.9598C53.0371 29.6308 53.2385 29.3354 53.5447 29.2152L63.0453 25.4839Z" fill="#909090"/>
<path fill-rule="evenodd" clip-rule="evenodd" d="M17.9755 27.3415C17.9755 25.691 19.6625 24.5778 21.18 25.2269L42.9941 34.5576C43.8406 34.9197 44.3896 35.7516 44.3896 36.6723V45.2788C44.3896 46.9293 42.7026 48.0425 41.1851 47.3934L19.3709 38.0627C18.5245 37.7006 17.9755 36.8687 17.9755 35.948V27.3415ZM20.944 25.7785C19.8224 25.2987 18.5755 26.1216 18.5755 27.3415V35.948C18.5755 36.6285 18.9813 37.2434 19.6069 37.511L41.4211 46.8418C42.5427 47.3216 43.7896 46.4987 43.7896 45.2788V36.6723C43.7896 35.9918 43.3838 35.3769 42.7582 35.1093L20.944 25.7785Z" fill="#909090"/>
<path fill-rule="evenodd" clip-rule="evenodd" d="M81.0662 73.6082L52.2328 84.0398L52.0287 83.4756L80.8621 73.0439L81.0662 73.6082Z" fill="#909090"/>
<path fill-rule="evenodd" clip-rule="evenodd" d="M4.19181 40.6769C3.73294 42.662 3.88186 45.1482 4.76557 47.6576C5.64927 50.167 7.09107 52.1979 8.69257 53.4574C10.2975 54.7196 12.0242 55.1824 13.5159 54.6571C15.0076 54.1318 16.0633 52.6891 16.5232 50.6998C16.982 48.7147 16.8331 46.2285 15.9494 43.7191C15.0657 41.2097 13.6239 39.1788 12.0224 37.9193C10.4175 36.6571 8.69079 36.1943 7.19907 36.7197C5.70736 37.245 4.65165 38.6876 4.19181 40.6769ZM3.60722 40.5418C4.09449 38.4339 5.24688 36.771 6.99978 36.1537C8.75267 35.5364 10.6927 36.1102 12.3933 37.4477C14.0973 38.7878 15.5997 40.9196 16.5153 43.5198C17.431 46.12 17.596 48.7228 17.1078 50.8349C16.6205 52.9429 15.4681 54.6057 13.7152 55.223C11.9623 55.8403 10.0223 55.2665 8.32166 53.929C6.61768 52.5889 5.11531 50.4571 4.19963 47.8569C3.28396 45.2567 3.11899 42.6539 3.60722 40.5418Z" fill="#909090"/>
<path fill-rule="evenodd" clip-rule="evenodd" d="M9.18163 44.756C9.07514 45.2167 9.10728 45.8094 9.3215 46.4177C9.53572 47.026 9.8821 47.5081 10.2537 47.8004C10.6288 48.0954 10.9912 48.1725 11.2758 48.0723C11.5603 47.9721 11.7944 47.6849 11.9019 47.22C12.0084 46.7593 11.9762 46.1666 11.762 45.5583C11.5478 44.95 11.2014 44.4679 10.8298 44.1756C10.4547 43.8806 10.0923 43.8035 9.80775 43.9037C9.52324 44.0039 9.28908 44.2911 9.18163 44.756ZM8.59704 44.6208C8.73192 44.0373 9.06276 43.5299 9.60845 43.3378C10.1542 43.1456 10.7299 43.3337 11.2007 43.704C11.6748 44.0768 12.0818 44.6599 12.3279 45.359C12.5741 46.0581 12.6223 46.7674 12.4865 47.3551C12.3516 47.9386 12.0207 48.446 11.4751 48.6382C10.9294 48.8304 10.3536 48.6422 9.88284 48.272C9.4087 47.8991 9.00175 47.3161 8.75556 46.617C8.50937 45.9179 8.46119 45.2086 8.59704 44.6208Z" fill="#909090"/>
<path fill-rule="evenodd" clip-rule="evenodd" d="M11.7015 34.6373L11.7047 34.6362C13.4576 34.0189 15.3976 34.5927 17.0982 35.9302C18.8022 37.2703 20.3046 39.4021 21.2203 42.0023C22.1359 44.6025 22.3009 47.2053 21.8127 49.3174C21.3254 51.4253 20.173 53.0882 18.4201 53.7055L18.3205 53.4225C18.4198 53.7056 18.4202 53.7054 18.4201 53.7055L18.4174 53.7064L18.4119 53.7083L18.3923 53.715C18.3754 53.7207 18.3511 53.7287 18.3202 53.7385C18.2586 53.7582 18.1705 53.7851 18.0631 53.815C17.849 53.8745 17.5543 53.9467 17.2361 53.995C16.9203 54.043 16.5675 54.0698 16.2418 54.0308C15.9209 53.9923 15.582 53.8844 15.3496 53.621L15.7994 53.224C15.8917 53.3285 16.0583 53.4045 16.3132 53.435C16.5633 53.465 16.8564 53.4458 17.1459 53.4018C17.433 53.3582 17.703 53.2924 17.9024 53.2369C18.0016 53.2093 18.0825 53.1846 18.138 53.1669C18.1657 53.158 18.1871 53.1509 18.2013 53.1462L18.217 53.1409L18.2205 53.1396C19.712 52.6142 20.7683 51.1714 21.2281 49.1823C21.687 47.1972 21.538 44.711 20.6543 42.2016C19.7706 39.6922 18.3288 37.6613 16.7273 36.4018C15.1232 35.1402 13.3973 34.6772 11.906 35.2014L11.9044 35.202L11.8929 35.2063C11.8824 35.2103 11.8665 35.2165 11.8458 35.2247C11.8044 35.2411 11.7439 35.2659 11.67 35.2984C11.5217 35.3635 11.3213 35.4587 11.1117 35.5789C10.9011 35.6997 10.6877 35.8421 10.5098 36.0002C10.3297 36.1603 10.2018 36.3224 10.1392 36.479L9.5821 36.2561C9.69266 35.9798 9.89437 35.7444 10.1112 35.5518C10.3302 35.3572 10.5811 35.1916 10.8131 35.0585C11.0462 34.9248 11.2667 34.8202 11.4287 34.749C11.5099 34.7134 11.577 34.6859 11.6243 34.6671C11.6479 34.6577 11.6666 34.6505 11.6797 34.6455L11.6951 34.6397L11.6995 34.6381L11.7015 34.6373C11.7016 34.6373 11.7015 34.6373 11.8043 34.9192L11.7015 34.6373Z" fill="#909090"/>
<path fill-rule="evenodd" clip-rule="evenodd" d="M17.4096 43.6915C16.9907 41.8224 15.3419 40.8026 14.573 40.533L14.7715 39.9668C15.6476 40.274 17.5136 41.4121 17.995 43.5603C18.4631 45.6489 17.8679 47.2194 17.4712 47.7814L16.981 47.4354C17.2769 47.0162 17.8418 45.6201 17.4096 43.6915Z" fill="#909090"/>
<path fill-rule="evenodd" clip-rule="evenodd" d="M6.36002 60.8185C5.90115 62.8036 6.05007 65.2898 6.93378 67.7992C7.81748 70.3086 9.25928 72.3395 10.8608 73.599C12.4657 74.8612 14.1924 75.324 15.6841 74.7987C17.1758 74.2734 18.2315 72.8307 18.6914 70.8414C19.1503 68.8563 19.0013 66.3701 18.1176 63.8607C17.2339 61.3513 15.7921 59.3204 14.1906 58.0609C12.5857 56.7987 10.859 56.3359 9.36729 56.8613C7.87557 57.3866 6.81986 58.8292 6.36002 60.8185ZM5.77544 60.6834C6.2627 58.5755 7.41509 56.9126 9.16799 56.2953C10.9209 55.678 12.8609 56.2518 14.5615 57.5893C16.2655 58.9294 17.7679 61.0612 18.6836 63.6614C19.5992 66.2616 19.7642 68.8644 19.276 70.9765C18.7887 73.0845 17.6363 74.7473 15.8834 75.3646C14.1305 75.9819 12.1905 75.4081 10.4899 74.0706C8.78589 72.7305 7.28352 70.5987 6.36785 67.9985C5.45217 65.3983 5.2872 62.7955 5.77544 60.6834Z" fill="#909090"/>
<path fill-rule="evenodd" clip-rule="evenodd" d="M15.7838 75.0816C19.0284 73.9389 20.2 68.8705 18.4006 63.761C16.6012 58.6514 12.5123 55.4356 9.26764 56.5782C6.02303 57.7208 4.85144 62.7892 6.65081 67.8988C8.45019 73.0083 12.5392 76.2242 15.7838 75.0816ZM13.5436 68.4968C14.3738 68.2044 14.6736 66.9075 14.2132 65.6001C13.7528 64.2927 12.7065 63.4699 11.8763 63.7623C11.0461 64.0546 10.7463 65.3515 11.2067 66.6589C11.6672 67.9663 12.7134 68.7891 13.5436 68.4968Z" fill="#00AE42"/>
<path fill-rule="evenodd" clip-rule="evenodd" d="M13.8698 54.7789L13.8729 54.7778C15.6258 54.1605 17.5659 54.7343 19.2665 56.0718C20.9704 57.4119 22.4728 59.5437 23.3885 62.1439C24.3042 64.7441 24.4691 67.3469 23.9809 69.459C23.4936 71.5669 22.3412 73.2298 20.5883 73.8471L20.4887 73.5641C20.588 73.8472 20.5884 73.8471 20.5883 73.8471L20.5856 73.848L20.5801 73.8499L20.5605 73.8566C20.5436 73.8623 20.5193 73.8703 20.4885 73.8801C20.4268 73.8998 20.3387 73.9267 20.2313 73.9566C20.0172 74.0161 19.7225 74.0883 19.4043 74.1366C19.0885 74.1846 18.7357 74.2114 18.41 74.1724C18.0891 74.1339 17.7502 74.026 17.5178 73.7626L17.9676 73.3656C18.0599 73.4701 18.2266 73.5461 18.4814 73.5766C18.7315 73.6066 19.0246 73.5874 19.3141 73.5434C19.6012 73.4998 19.8713 73.434 20.0706 73.3785C20.1698 73.3509 20.2507 73.3262 20.3062 73.3085C20.334 73.2996 20.3553 73.2925 20.3695 73.2878L20.3852 73.2825L20.3887 73.2812C21.8802 72.7558 22.9365 71.313 23.3963 69.3239C23.8552 67.3388 23.7063 64.8526 22.8225 62.3432C21.9388 59.8338 20.497 57.8029 18.8955 56.5434C17.2914 55.2818 15.5655 54.8188 14.0742 55.343L14.0726 55.3436L14.0611 55.3479C14.0507 55.3519 14.0347 55.3581 14.014 55.3663C13.9726 55.3827 13.9121 55.4075 13.8382 55.44C13.6899 55.5051 13.4895 55.6003 13.2799 55.7205C13.0693 55.8413 12.8559 55.9837 12.678 56.1418C12.4979 56.3019 12.37 56.464 12.3074 56.6206L11.7503 56.3977C11.8609 56.1214 12.0626 55.886 12.2794 55.6934C12.4984 55.4988 12.7493 55.3332 12.9813 55.2001C13.2144 55.0664 13.4349 54.9618 13.5969 54.8906C13.6781 54.855 13.7452 54.8275 13.7925 54.8087C13.8161 54.7993 13.8348 54.7921 13.8479 54.7871L13.8633 54.7813L13.8677 54.7797L13.8698 54.7789C13.8698 54.7789 13.8698 54.7789 13.9726 55.0608L13.8698 54.7789Z" fill="#00AE42"/>
<path fill-rule="evenodd" clip-rule="evenodd" d="M19.5778 63.8331C19.1589 61.964 17.5101 60.9442 16.7412 60.6746L16.9398 60.1084C17.8158 60.4156 19.6818 61.5537 20.1633 63.7019C20.6313 65.7905 20.0361 67.361 19.6394 67.923L19.1492 67.577C19.4451 67.1578 20.01 65.7617 19.5778 63.8331Z" fill="#00AE42"/>
<path fill-rule="evenodd" clip-rule="evenodd" d="M6.36002 60.8185C5.90115 62.8036 6.05007 65.2898 6.93378 67.7992C7.81748 70.3086 9.25928 72.3395 10.8608 73.599C12.4657 74.8612 14.1924 75.324 15.6841 74.7987C17.1758 74.2734 18.2315 72.8307 18.6914 70.8414C19.1503 68.8563 19.0013 66.3701 18.1176 63.8607C17.2339 61.3513 15.7921 59.3204 14.1906 58.0609C12.5857 56.7987 10.859 56.3359 9.36729 56.8613C7.87557 57.3866 6.81986 58.8292 6.36002 60.8185ZM5.77544 60.6834C6.2627 58.5755 7.41509 56.9126 9.16799 56.2953C10.9209 55.678 12.8609 56.2518 14.5615 57.5893C16.2655 58.9294 17.7679 61.0612 18.6836 63.6614C19.5992 66.2616 19.7642 68.8644 19.276 70.9765C18.7887 73.0845 17.6363 74.7473 15.8834 75.3646C14.1305 75.9819 12.1905 75.4081 10.4899 74.0706C8.78589 72.7305 7.28352 70.5987 6.36785 67.9985C5.45217 65.3983 5.2872 62.7955 5.77544 60.6834Z" fill="#00AE42"/>
<path fill-rule="evenodd" clip-rule="evenodd" d="M11.3498 64.8976C11.2434 65.3583 11.2755 65.951 11.4897 66.5593C11.7039 67.1676 12.0503 67.6497 12.422 67.942C12.797 68.237 13.1595 68.3141 13.444 68.2139C13.7285 68.1137 13.9626 67.8265 14.0701 67.3616C14.1766 66.9009 14.1444 66.3082 13.9302 65.6999C13.716 65.0916 13.3696 64.6095 12.998 64.3172C12.6229 64.0222 12.2605 63.9451 11.976 64.0453C11.6915 64.1455 11.4573 64.4327 11.3498 64.8976ZM10.7653 64.7625C10.9001 64.1789 11.231 63.6715 11.7767 63.4794C12.3224 63.2872 12.8981 63.4753 13.3689 63.8456C13.843 64.2185 14.25 64.8015 14.4962 65.5006C14.7423 66.1997 14.7905 66.909 14.6547 67.4967C14.5198 68.0802 14.189 68.5876 13.6433 68.7798C13.0976 68.972 12.5218 68.7838 12.051 68.4136C11.5769 68.0407 11.17 67.4577 10.9238 66.7586C10.6776 66.0595 10.6294 65.3502 10.7653 64.7625Z" fill="#00AE42"/>
</svg>
