<svg width="84" height="90" viewBox="0 0 84 90" fill="none" xmlns="http://www.w3.org/2000/svg">
<path fill-rule="evenodd" clip-rule="evenodd" d="M12.5382 23.3552C13.7986 22.6015 15.4457 22.0118 16.2082 21.7578V23.3572C15.5587 23.5736 14.4844 23.9392 13.308 24.6426C12.7219 24.9931 12.1766 25.3696 11.7457 25.7471C11.3023 26.1356 11.0401 26.4738 10.9357 26.7348C10.6459 27.4592 10.4731 28.6737 10.3882 30.1048C10.3047 31.5097 10.3097 33.0327 10.3331 34.3213L8.83338 34.3485C8.80974 33.0485 8.80387 31.4795 8.89079 30.0158C8.97616 28.5784 9.15493 27.1479 9.54294 26.1777C9.77743 25.5914 10.2479 25.0652 10.7571 24.6189C11.2789 24.1618 11.906 23.7332 12.5382 23.3552Z" fill="#00AE42"/>
<path fill-rule="evenodd" clip-rule="evenodd" d="M52.0097 2.28675C50.5536 1.80138 49.1425 1.81861 48.2387 2.27048C48.1227 2.32848 47.7065 2.4951 47.0765 2.74031C46.4364 2.98942 45.5555 3.32723 44.491 3.73252C42.3618 4.54316 39.4957 5.62459 36.3476 6.80796C30.0515 9.17476 22.6262 11.9499 17.7094 13.7832L17.6936 13.7891L17.6773 13.7932C17.3608 13.8723 16.9717 14.0315 16.7616 14.2318C16.661 14.3277 16.6309 14.4042 16.6295 14.4613C16.6281 14.516 16.6513 14.6246 16.8166 14.7899C16.8166 14.7899 16.8189 14.7921 16.8243 14.7966C16.8302 14.8015 16.8384 14.8079 16.8495 14.816C16.8717 14.8324 16.9017 14.8529 16.9404 14.8776C17.0178 14.9271 17.1221 14.9888 17.2535 15.0625C17.5158 15.2096 17.8752 15.3983 18.32 15.6231C19.2089 16.0724 20.4286 16.6608 21.8729 17.34C24.7609 18.6982 28.54 20.416 32.351 22.1028C36.1622 23.7897 40.0031 25.4447 43.0151 26.6776C44.5215 27.2942 45.8179 27.8042 46.7986 28.1595C47.2893 28.3374 47.6975 28.4752 48.0117 28.5682C48.3401 28.6654 48.5298 28.7021 48.6046 28.7021C50.1693 28.7021 51.5373 28.375 52.0097 28.2175L52.1994 28.7868C51.6718 28.9626 50.2398 29.3021 48.6046 29.3021C48.4294 29.3021 48.1581 29.2373 47.8415 29.1436C47.5107 29.0457 47.0898 28.9033 46.5942 28.7237C45.6022 28.3642 44.297 27.8507 42.7878 27.2329C39.7686 25.9971 35.922 24.3396 32.1082 22.6515C28.2942 20.9633 24.5107 19.2436 21.6175 17.883C20.1712 17.2028 18.9456 16.6116 18.0493 16.1586C17.6015 15.9322 17.2334 15.7391 16.9601 15.5859C16.8236 15.5093 16.7081 15.4413 16.617 15.383C16.5321 15.3287 16.4488 15.2707 16.3924 15.2143C16.1579 14.9797 16.0227 14.7216 16.0297 14.4461C16.0366 14.173 16.1815 13.9558 16.3476 13.7975C16.6657 13.4943 17.1656 13.3047 17.5151 13.2153C22.4317 11.382 29.8476 8.61041 36.1365 6.24633C39.2843 5.06304 42.1495 3.98197 44.2775 3.17178C45.3416 2.76666 46.2209 2.42946 46.8588 2.18117C47.5068 1.92899 47.8864 1.77582 47.9704 1.73382C49.0667 1.18569 50.6556 1.20292 52.1994 1.71754C52.5895 1.84755 54.5443 2.66777 57.2532 3.81983C59.9724 4.97628 63.4729 6.47646 66.9727 7.97641C70.4729 9.47646 73.9724 10.9763 76.6907 12.1323C79.4193 13.2928 81.3395 14.0976 81.6994 14.2175C82.5009 14.4847 82.9735 14.9104 83.1392 15.4073C83.3051 15.905 83.1353 16.3957 82.8167 16.7143C82.6989 16.8321 82.5789 16.9269 82.479 17.0059C82.4602 17.0208 82.442 17.0351 82.4248 17.0489C82.3112 17.1397 82.2269 17.214 82.1571 17.3071C82.0257 17.4823 81.9046 17.781 81.9046 18.5021V74.0022H81.3046V18.5021C81.3046 17.7233 81.4335 17.272 81.6771 16.9471C81.7947 16.7903 81.9291 16.6771 82.05 16.5804C82.0716 16.5631 82.0926 16.5464 82.1133 16.5301C82.2124 16.4515 82.3014 16.381 82.3924 16.29C82.5739 16.1086 82.6541 15.8493 82.57 15.597C82.4856 15.3439 82.2083 15.0196 81.5097 14.7868C81.1197 14.6567 79.1648 13.8365 76.4559 12.6845C73.7368 11.5281 70.2365 10.0279 66.7367 8.52803L66.7354 8.52745C63.2356 7.02754 59.7364 5.52791 57.0184 4.37197C54.2898 3.21152 52.3697 2.40675 52.0097 2.28675Z" fill="#909090"/>
<path fill-rule="evenodd" clip-rule="evenodd" d="M15.8046 33.499L16.0294 14.2754L16.6294 14.2824L16.4045 33.506L15.8046 33.499Z" fill="#909090"/>
<path fill-rule="evenodd" clip-rule="evenodd" d="M82.8045 73.2908V15.502H83.4045V73.7131L83.2058 73.7844C74.3673 76.9529 56.2093 83.4832 54.2159 84.2805C51.6585 85.3035 48.5805 85.8133 44.4992 84.2829C42.4877 83.5285 40.854 82.7745 39.6636 82.2106C39.5053 82.1356 39.3554 82.0642 39.2137 81.9968C38.8205 81.8097 38.4913 81.6529 38.2243 81.5337C38.0431 81.4527 37.8973 81.392 37.7846 81.3521C37.7284 81.3322 37.6843 81.3188 37.6508 81.3107C37.6152 81.302 37.6021 81.302 37.6045 81.302C37.4008 81.302 37.2683 81.1709 37.1952 81.073C37.12 80.9723 37.0596 80.8436 37.0076 80.7195C36.967 80.6229 36.925 80.5124 36.8818 80.3988C36.8683 80.3634 36.8547 80.3277 36.841 80.292C36.7821 80.1385 36.7183 79.9772 36.6439 79.8136C36.3452 79.1564 35.8988 78.5098 35.0318 78.293C33.9943 78.0336 32.3398 77.2675 30.8454 76.5203C30.0926 76.1439 29.3717 75.7678 28.7773 75.4549C28.6162 75.3701 28.4648 75.2902 28.3248 75.2163C27.9458 75.0162 27.6502 74.8602 27.4704 74.7703C27.3234 74.6968 27.2073 74.7091 27.0629 74.7839C26.915 74.8606 26.7694 74.9863 26.5806 75.1494C26.5506 75.1752 26.5196 75.202 26.4873 75.2297C26.2677 75.4179 26.0006 75.6354 25.6769 75.7649C25.3405 75.8994 24.9549 75.935 24.5097 75.7866C24.1853 75.6784 23.6627 75.4314 23.0559 75.1237C22.4427 74.8128 21.7239 74.4297 20.9985 74.0397C20.7977 73.9317 20.5966 73.8234 20.3973 73.716C19.1476 73.0427 17.9649 72.4054 17.3297 72.1231L17.5734 71.5748C18.2315 71.8673 19.4397 72.5184 20.6842 73.189C20.8834 73.2964 21.0836 73.4042 21.2826 73.5112C22.0079 73.9012 22.7211 74.2813 23.3272 74.5886C23.9398 74.8992 24.4238 75.1255 24.6994 75.2174C25.0041 75.3189 25.2435 75.292 25.4541 75.2078C25.6772 75.1185 25.8788 74.961 26.0968 74.7742C26.1242 74.7507 26.1523 74.7263 26.181 74.7014C26.3633 74.5432 26.5704 74.3634 26.7868 74.2513C27.0643 74.1073 27.3857 74.0571 27.7387 74.2336C27.9249 74.3267 28.2298 74.4877 28.6121 74.6895C28.7508 74.7627 28.8997 74.8413 29.0568 74.924C29.6499 75.2361 30.3665 75.61 31.1137 75.9836C32.6193 76.7364 34.2148 77.4703 35.1773 77.7109C36.3103 77.9942 36.8639 78.8475 37.1901 79.5653C37.2721 79.7455 37.341 79.9201 37.4012 80.0771C37.4166 80.1173 37.4313 80.1558 37.4454 80.1928C37.4876 80.3037 37.5246 80.4009 37.5609 80.4875C37.6069 80.5973 37.6424 80.666 37.6699 80.7056C37.7719 80.7165 37.8823 80.7502 37.985 80.7866C38.1203 80.8345 38.2832 80.9028 38.4691 80.9859C38.7434 81.1084 39.0828 81.27 39.4792 81.4586C39.6193 81.5253 39.7665 81.5954 39.9205 81.6683C41.1051 82.2295 42.7214 82.9754 44.7099 83.7211C48.6286 85.1906 51.5505 84.7004 53.9931 83.7234C55.9849 82.9267 73.9053 76.4814 82.8045 73.2908Z" fill="#909090"/>
<path fill-rule="evenodd" clip-rule="evenodd" d="M51.8045 28.5025C51.8045 28.5022 51.8045 28.502 52.1045 28.502C52.4045 28.502 52.4045 28.5022 52.4045 28.5025V82.0019C52.4046 82.8407 51.9911 83.7897 51.3167 84.4641C50.6347 85.1461 49.656 85.574 48.5319 85.293L48.6774 84.7109C49.5532 84.9299 50.3245 84.6078 50.8925 84.0398C51.468 83.4642 51.8046 82.6632 51.8045 82.002V28.5025Z" fill="#909090"/>
<path fill-rule="evenodd" clip-rule="evenodd" d="M82.7128 16.7822L51.7128 28.7822L51.4962 28.2227L82.4962 16.2227L82.7128 16.7822ZM81.7562 25.1936L52.365 36.9327L52.1424 36.3755L81.5337 24.6364L81.7562 25.1936Z" fill="#909090"/>
<path fill-rule="evenodd" clip-rule="evenodd" d="M81.1019 14.5572L46.1297 28.3512L45.9095 27.793L80.8817 13.999L81.1019 14.5572Z" fill="#909090"/>
<path d="M81.8842 15.7139C81.8842 15.99 81.4364 16.2139 80.8842 16.2139C80.3319 16.2139 79.8842 15.99 79.8842 15.7139C79.8842 15.4377 80.3319 15.2139 80.8842 15.2139C81.4364 15.2139 81.8842 15.4377 81.8842 15.7139Z" fill="#909090"/>
<path d="M53.6663 28.3138C53.6663 28.1082 53.7921 27.9236 53.9835 27.8484L63.4841 24.1171C63.8121 23.9883 64.1669 24.2301 64.1669 24.5825V32.1432C64.1669 32.3488 64.041 32.5334 63.8496 32.6086L54.349 36.3399C54.021 36.4687 53.6663 36.2269 53.6663 35.8745V28.3138Z" fill="#D9D9D9"/>
<path fill-rule="evenodd" clip-rule="evenodd" d="M63.8668 24.582C63.8668 24.4411 63.7249 24.3443 63.5937 24.3959L54.0931 28.1271C54.0166 28.1572 53.9662 28.2311 53.9662 28.3133V35.874C53.9662 36.015 54.1081 36.1117 54.2393 36.0602L63.7399 32.3289C63.8165 32.2988 63.8668 32.225 63.8668 32.1427V24.582ZM63.3744 23.8374C63.8992 23.6313 64.4668 24.0182 64.4668 24.582V32.1427C64.4668 32.4717 64.2655 32.7671 63.9593 32.8874L54.4587 36.6186C53.9339 36.8247 53.3662 36.4378 53.3662 35.874V28.3133C53.3662 27.9843 53.5676 27.6889 53.8738 27.5687L63.3744 23.8374Z" fill="#909090"/>
<path fill-rule="evenodd" clip-rule="evenodd" d="M18.3046 25.695C18.3046 24.0445 19.9916 22.9313 21.5091 23.5804L43.3232 32.9111C44.1697 33.2732 44.7187 34.1052 44.7187 35.0258V43.6323C44.7187 45.2828 43.0317 46.3961 41.5142 45.747L19.7 36.4162C18.8536 36.0541 18.3046 35.2222 18.3046 34.3015V25.695ZM21.2731 24.132C20.1515 23.6523 18.9046 24.4751 18.9046 25.695V34.3015C18.9046 34.982 19.3104 35.5969 19.936 35.8645L41.7502 45.1953C42.8718 45.6751 44.1187 44.8522 44.1187 43.6323V35.0258C44.1187 34.3453 43.7129 33.7304 43.0873 33.4628L21.2731 24.132Z" fill="#909090"/>
<path fill-rule="evenodd" clip-rule="evenodd" d="M81.3954 71.9617L52.562 82.3933L52.3579 81.8291L81.1913 71.3975L81.3954 71.9617Z" fill="#909090"/>
<path fill-rule="evenodd" clip-rule="evenodd" d="M6.52042 58.5334C6.06155 60.5185 6.21047 63.0047 7.09418 65.5141C7.97788 68.0234 9.41968 70.0543 11.0212 71.3139C12.6261 72.576 14.3528 73.0388 15.8445 72.5135C17.3362 71.9882 18.3919 70.5455 18.8518 68.5562C19.3107 66.5711 19.1617 64.085 18.278 61.5756C17.3943 59.0662 15.9525 57.0353 14.351 55.7758C12.7461 54.5136 11.0194 54.0508 9.52769 54.5761C8.03597 55.1014 6.98026 56.5441 6.52042 58.5334ZM5.93584 58.3983C6.4231 56.2903 7.57549 54.6275 9.32839 54.0102C11.0813 53.3929 13.0213 53.9667 14.7219 55.3041C16.4259 56.6443 17.9283 58.7761 18.844 61.3763C19.7596 63.9764 19.9246 66.5792 19.4364 68.6914C18.9491 70.7993 17.7967 72.4622 16.0438 73.0795C14.2909 73.6968 12.3509 73.1229 10.6503 71.7855C8.94629 70.4453 7.44392 68.3135 6.52825 65.7134C5.61257 63.1132 5.4476 60.5104 5.93584 58.3983Z" fill="#909090"/>
<path fill-rule="evenodd" clip-rule="evenodd" d="M11.5102 62.6124C11.4038 63.0731 11.4359 63.6659 11.6501 64.2742C11.8643 64.8825 12.2107 65.3646 12.5824 65.6568C12.9574 65.9518 13.3199 66.0289 13.6044 65.9287C13.8889 65.8285 14.123 65.5413 14.2305 65.0764C14.337 64.6158 14.3048 64.023 14.0906 63.4147C13.8764 62.8064 13.53 62.3243 13.1584 62.032C12.7833 61.7371 12.4209 61.66 12.1364 61.7602C11.8519 61.8603 11.6177 62.1476 11.5102 62.6124ZM10.9257 62.4773C11.0605 61.8938 11.3914 61.3864 11.9371 61.1942C12.4828 61.002 13.0585 61.1902 13.5293 61.5604C14.0034 61.9333 14.4104 62.5163 14.6566 63.2154C14.9027 63.9145 14.9509 64.6239 14.8151 65.2116C14.6802 65.7951 14.3494 66.3025 13.8037 66.4947C13.258 66.6868 12.6822 66.4987 12.2114 66.1285C11.7373 65.7556 11.3304 65.1725 11.0842 64.4735C10.838 63.7744 10.7898 63.065 10.9257 62.4773Z" fill="#909090"/>
<path fill-rule="evenodd" clip-rule="evenodd" d="M14.0302 52.4938L14.0333 52.4926C15.7862 51.8753 17.7263 52.4491 19.4269 53.7866C21.1308 55.1267 22.6332 57.2586 23.5489 59.8587C24.4646 62.4589 24.6295 65.0617 24.1413 67.1738C23.654 69.2818 22.5016 70.9446 20.7487 71.5619L20.6491 71.279C20.7484 71.562 20.7488 71.5619 20.7487 71.5619L20.746 71.5629L20.7405 71.5648L20.7209 71.5714C20.704 71.5771 20.6797 71.5851 20.6489 71.595C20.5872 71.6146 20.4991 71.6416 20.3917 71.6715C20.1776 71.731 19.8829 71.8031 19.5647 71.8515C19.2489 71.8994 18.8961 71.9262 18.5704 71.8872C18.2495 71.8488 17.9106 71.7408 17.6782 71.4775L18.128 71.0804C18.2203 71.1849 18.387 71.2609 18.6418 71.2915C18.8919 71.3214 19.185 71.3023 19.4745 71.2583C19.7616 71.2146 20.0317 71.1488 20.231 71.0934C20.3302 71.0658 20.4111 71.041 20.4666 71.0233C20.4944 71.0145 20.5157 71.0074 20.5299 71.0026L20.5456 70.9973L20.5491 70.9961C22.0406 70.4706 23.0969 69.0278 23.5567 67.0387C24.0156 65.0536 23.8667 62.5674 22.9829 60.058C22.0992 57.5486 20.6574 55.5178 19.0559 54.2582C17.4518 52.9966 15.7259 52.5337 14.2346 53.0579L14.233 53.0585L14.2215 53.0628C14.2111 53.0668 14.1951 53.0729 14.1744 53.0811C14.133 53.0976 14.0725 53.1224 13.9986 53.1548C13.8503 53.22 13.6499 53.3151 13.4403 53.4354C13.2297 53.5561 13.0163 53.6985 12.8384 53.8567C12.6583 54.0167 12.5304 54.1789 12.4678 54.3354L11.9107 54.1125C12.0213 53.8362 12.223 53.6009 12.4398 53.4082C12.6588 53.2136 12.9097 53.048 13.1417 52.9149C13.3748 52.7812 13.5953 52.6766 13.7573 52.6055C13.8385 52.5698 13.9056 52.5423 13.9529 52.5235C13.9765 52.5141 13.9952 52.5069 14.0084 52.5019L14.0237 52.4961L14.0281 52.4945L14.0302 52.4938C14.0302 52.4937 14.0302 52.4938 14.133 52.7756L14.0302 52.4938Z" fill="#909090"/>
<path fill-rule="evenodd" clip-rule="evenodd" d="M19.7382 61.5479C19.3193 59.6788 17.6705 58.6591 16.9016 58.3894L17.1002 57.8232C17.9762 58.1304 19.8422 59.2686 20.3237 61.4167C20.7917 63.5054 20.1965 65.0758 19.7998 65.6378L19.3096 65.2918C19.6055 64.8727 20.1704 63.4765 19.7382 61.5479Z" fill="#909090"/>
<path fill-rule="evenodd" clip-rule="evenodd" d="M4.168 38.9181C3.70913 40.9033 3.85806 43.3894 4.74176 45.8988C5.62547 48.4082 7.06727 50.4391 8.66877 51.6986C10.2736 52.9608 12.0004 53.4236 13.4921 52.8983C14.9838 52.373 16.0395 50.9303 16.4994 48.941C16.9582 46.9559 16.8093 44.4697 15.9256 41.9603C15.0419 39.4509 13.6001 37.4201 11.9986 36.1605C10.3937 34.8983 8.66698 34.4355 7.17527 34.9609C5.68356 35.4862 4.62784 36.9288 4.168 38.9181ZM3.58342 38.783C4.07068 36.6751 5.22307 35.0122 6.97597 34.3949C8.72887 33.7776 10.6689 34.3514 12.3695 35.6889C14.0735 37.029 15.5759 39.1609 16.4915 41.761C17.4072 44.3612 17.5722 46.964 17.084 49.0761C16.5967 51.1841 15.4443 52.8469 13.6914 53.4642C11.9385 54.0815 9.99845 53.5077 8.29785 52.1702C6.59387 50.8301 5.0915 48.6983 4.17583 46.0981C3.26015 43.498 3.09518 40.8952 3.58342 38.783Z" fill="#909090"/>
<path fill-rule="evenodd" clip-rule="evenodd" d="M13.5918 53.1812C16.8364 52.0385 18.008 46.9702 16.2086 41.8606C14.4092 36.751 10.3202 33.5352 7.07562 34.6778C3.83101 35.8204 2.65942 40.8888 4.4588 45.9984C6.25818 51.1079 10.3471 54.3238 13.5918 53.1812ZM11.3516 46.5964C12.1818 46.304 12.4816 45.0071 12.0212 43.6997C11.5608 42.3923 10.5145 41.5695 9.6843 41.8619C8.8541 42.1542 8.55432 43.4511 9.01473 44.7585C9.47514 46.0659 10.5214 46.8887 11.3516 46.5964Z" fill="#00AE42"/>
<path fill-rule="evenodd" clip-rule="evenodd" d="M11.6777 32.8785L11.6809 32.8774C13.4338 32.2601 15.3738 32.8339 17.0744 34.1714C18.7784 35.5115 20.2808 37.6433 21.1965 40.2435C22.1121 42.8437 22.2771 45.4465 21.7889 47.5586C21.3016 49.6665 20.1492 51.3294 18.3963 51.9467L18.2967 51.6637C18.396 51.9468 18.3964 51.9467 18.3963 51.9467L18.3936 51.9476L18.3881 51.9495L18.3685 51.9562C18.3516 51.9619 18.3273 51.9699 18.2964 51.9797C18.2348 51.9994 18.1467 52.0263 18.0393 52.0562C17.8252 52.1158 17.5305 52.1879 17.2123 52.2362C16.8965 52.2842 16.5437 52.311 16.218 52.272C15.8971 52.2335 15.5582 52.1256 15.3258 51.8622L15.7756 51.4652C15.8679 51.5697 16.0345 51.6457 16.2894 51.6762C16.5395 51.7062 16.8326 51.687 17.1221 51.643C17.4092 51.5994 17.6792 51.5336 17.8786 51.4782C17.9778 51.4505 18.0587 51.4258 18.1142 51.4081C18.1419 51.3992 18.1633 51.3922 18.1775 51.3874L18.1932 51.3821L18.1967 51.3809C19.6882 50.8554 20.7445 49.4126 21.2043 47.4235C21.6632 45.4384 21.5142 42.9522 20.6305 40.4428C19.7468 37.9334 18.305 35.9025 16.7035 34.643C15.0994 33.3814 13.3735 32.9184 11.8822 33.4426L11.8806 33.4432L11.8691 33.4475C11.8586 33.4515 11.8427 33.4577 11.822 33.4659C11.7806 33.4824 11.7201 33.5071 11.6462 33.5396C11.4979 33.6048 11.2975 33.6999 11.0879 33.8201C10.8773 33.9409 10.6639 34.0833 10.486 34.2415C10.3059 34.4015 10.178 34.5636 10.1154 34.7202L9.5583 34.4973C9.66885 34.221 9.87057 33.9857 10.0874 33.793C10.3064 33.5984 10.5572 33.4328 10.7893 33.2997C11.0224 33.166 11.2429 33.0614 11.4049 32.9903C11.4861 32.9546 11.5532 32.9271 11.6005 32.9083C11.6241 32.8989 11.6428 32.8917 11.6559 32.8867L11.6713 32.8809L11.6757 32.8793L11.6777 32.8785C11.6778 32.8785 11.6777 32.8785 11.7805 33.1604L11.6777 32.8785Z" fill="#00AE42"/>
<path fill-rule="evenodd" clip-rule="evenodd" d="M17.3858 41.9327C16.9669 40.0636 15.3181 39.0438 14.5492 38.7742L14.7477 38.208C15.6237 38.5152 17.4898 39.6534 17.9712 41.8015C18.4393 43.8901 17.8441 45.4606 17.4474 46.0226L16.9572 45.6766C17.2531 45.2575 17.818 43.8613 17.3858 41.9327Z" fill="#00AE42"/>
<path fill-rule="evenodd" clip-rule="evenodd" d="M4.168 38.9181C3.70913 40.9033 3.85806 43.3894 4.74176 45.8988C5.62547 48.4082 7.06727 50.4391 8.66877 51.6986C10.2736 52.9608 12.0004 53.4236 13.4921 52.8983C14.9838 52.373 16.0395 50.9303 16.4994 48.941C16.9582 46.9559 16.8093 44.4697 15.9256 41.9603C15.0419 39.4509 13.6001 37.4201 11.9986 36.1605C10.3937 34.8983 8.66698 34.4355 7.17527 34.9609C5.68356 35.4862 4.62784 36.9288 4.168 38.9181ZM3.58342 38.783C4.07068 36.6751 5.22307 35.0122 6.97597 34.3949C8.72887 33.7776 10.6689 34.3514 12.3695 35.6889C14.0735 37.029 15.5759 39.1609 16.4915 41.761C17.4072 44.3612 17.5722 46.964 17.084 49.0761C16.5967 51.1841 15.4443 52.8469 13.6914 53.4642C11.9385 54.0815 9.99845 53.5077 8.29785 52.1702C6.59387 50.8301 5.0915 48.6983 4.17583 46.0981C3.26015 43.498 3.09518 40.8952 3.58342 38.783Z" fill="#00AE42"/>
<path fill-rule="evenodd" clip-rule="evenodd" d="M9.15782 42.9972C9.05134 43.4579 9.08347 44.0506 9.29769 44.6589C9.51191 45.2672 9.8583 45.7493 10.2299 46.0416C10.605 46.3366 10.9674 46.4137 11.2519 46.3135C11.5365 46.2133 11.7706 45.9261 11.8781 45.4612C11.9846 45.0005 11.9524 44.4078 11.7382 43.7995C11.524 43.1912 11.1776 42.7091 10.806 42.4168C10.4309 42.1218 10.0685 42.0447 9.78395 42.1449C9.49944 42.2451 9.26528 42.5323 9.15782 42.9972ZM8.57324 42.8621C8.70812 42.2786 9.03895 41.7712 9.58465 41.579C10.1303 41.3868 10.7061 41.5749 11.1769 41.9452C11.651 42.3181 12.0579 42.9011 12.3041 43.6002C12.5503 44.2993 12.5985 45.0086 12.4627 45.5963C12.3278 46.1798 11.9969 46.6872 11.4512 46.8794C10.9056 47.0716 10.3298 46.8835 9.85903 46.5132C9.3849 46.1403 8.97795 45.5573 8.73176 44.8582C8.48557 44.1591 8.43739 43.4498 8.57324 42.8621Z" fill="#00AE42"/>
<path fill-rule="evenodd" clip-rule="evenodd" d="M16.739 14.3721V16.5519L16.5375 16.6219C13.7669 17.5843 11.0104 18.921 8.37291 20.5559C7.0558 21.3723 5.9224 22.2122 5.08368 23.0304C4.22638 23.8667 3.77239 24.5885 3.64271 25.1559C2.90662 28.3763 2.70265 34.7164 2.69553 41.1695C2.692 44.3707 2.7363 47.5626 2.78158 50.355C2.79012 50.8817 2.7987 51.3945 2.80701 51.8907L2.80707 51.8946C2.84267 54.0213 2.87319 55.8447 2.87316 57.1413C2.87309 60.2965 4.02694 62.167 5.11399 63.252C5.66793 63.8049 6.22051 64.1688 6.62889 64.3923L6.34083 64.9187C5.89268 64.6734 5.2917 64.2771 4.69012 63.6766C3.49589 62.4847 2.27308 60.4636 2.27316 57.1413C2.27319 55.8503 2.24276 54.0319 2.20711 51.9016C2.1988 51.4052 2.19021 50.8919 2.18166 50.3647C2.13637 47.5716 2.092 44.3755 2.09554 41.1689C2.10263 34.7339 2.30373 28.3212 3.05779 25.0222C3.22548 24.2885 3.77594 23.4679 4.6647 22.6009C5.54554 21.7416 6.71818 20.8757 8.0568 20.0459C10.6646 18.4295 13.3912 17.0982 16.139 16.1258V15.2179C13.369 16.2106 10.1988 17.6593 7.58263 19.281C6.21173 20.1307 4.98023 21.0358 4.03623 21.9567C3.1002 22.8698 2.40509 23.8387 2.18042 24.8216C1.39941 28.2386 1.20261 34.76 1.19554 41.1679C1.19199 44.3827 1.23647 47.5852 1.28178 50.3793C1.29038 50.91 1.29901 51.4256 1.30734 51.9235L1.30739 51.9265C1.34296 54.0522 1.37319 55.8585 1.37316 57.1413C1.37308 60.7142 2.69937 62.9612 4.05433 64.3136C4.72734 64.9854 5.40095 65.4302 5.90875 65.7081C5.9462 65.7286 6.02567 65.7596 6.14707 65.7973C6.26257 65.8332 6.39725 65.8697 6.53299 65.9048C6.60056 65.9223 6.66748 65.9393 6.73179 65.9556C6.79576 65.9717 6.85757 65.9874 6.91341 66.0018C7.01485 66.0281 7.12456 66.0575 7.18913 66.0845L6.9575 66.638C6.95694 66.6378 6.9522 66.6359 6.94158 66.6324C6.93523 66.6304 6.92777 66.628 6.91914 66.6254C6.91284 66.6235 6.90592 66.6215 6.89834 66.6193C6.86232 66.6088 6.81677 66.5966 6.76281 66.5826C6.71163 66.5694 6.65489 66.555 6.59383 66.5396L6.58464 66.5372C6.52042 66.521 6.45195 66.5037 6.38251 66.4857C6.24425 66.4498 6.09847 66.4105 5.96898 66.3703C5.8454 66.3318 5.71536 66.2863 5.6207 66.2345C5.07313 65.9348 4.35111 65.4576 3.63047 64.7383C2.16838 63.279 0.773074 60.8813 0.77316 57.1413C0.773189 55.8641 0.743056 54.0628 0.707426 51.9335C0.699094 51.4356 0.690465 50.9199 0.681856 50.389C0.636536 47.5943 0.591984 44.3874 0.595536 41.1672C0.602586 34.7773 0.796531 28.1835 1.5955 24.6879C1.85815 23.5388 2.64967 22.4711 3.61725 21.5272C4.60336 20.5652 5.87409 19.6341 7.26652 18.771C10.0531 17.0437 13.4459 15.516 16.3406 14.5105L16.739 14.3721Z" fill="#909090"/>
</svg>
