<svg width="87" height="95" viewBox="0 0 87 95" fill="none" xmlns="http://www.w3.org/2000/svg">
<path d="M83.7423 7.56014L83.8404 7.53345" stroke="#C2C2C2" stroke-width="0.447559" stroke-linecap="round" stroke-linejoin="round"/>
<path d="M83.1017 7.43945C83.132 7.44506 83.1624 7.4507 83.1928 7.45634C83.2316 7.46353 83.2705 7.47076 83.3094 7.47803C83.3468 7.485 83.3842 7.49202 83.4217 7.49907C83.4581 7.50595 83.4946 7.51286 83.5311 7.51984C83.5671 7.52672 83.6031 7.53364 83.6391 7.54066C83.6735 7.54734 83.708 7.55409 83.7424 7.56094" stroke="#C2C2C2" stroke-width="0.447559" stroke-linecap="round" stroke-linejoin="round"/>
<path d="M74.4943 84.6443C77.5461 83.6165 80.6386 82.5114 83.6904 81.4836C83.93 81.4029 84.1877 81.3162 84.4223 81.222C84.6663 81.1337 84.8947 81.0092 85.0994 80.8529C85.1467 80.8176 85.186 80.7733 85.215 80.7228C85.244 80.6723 85.2621 80.6165 85.2682 80.5589C85.5045 56.2504 85.7409 32.6965 85.9773 8.38794" stroke="#C2C2C2" stroke-width="0.447559" stroke-linecap="round" stroke-linejoin="round"/>
<path d="M74.4944 84.6443C77.5463 83.585 80.6388 82.4461 83.6906 81.3868C83.9302 81.3037 84.1879 81.2144 84.4225 81.1172C84.6665 81.0263 84.8949 80.8979 85.0996 80.7368C85.1469 80.7005 85.1862 80.6549 85.2152 80.6028" stroke="#C2C2C2" stroke-width="0.642857" stroke-linecap="round" stroke-linejoin="round"/>
<path d="M58.7763 45.239C58.237 45.2255 57.6996 45.3075 57.1888 45.4814C56.6204 45.6758 56.0829 45.9511 55.5929 46.2988C55.1483 46.6119 54.734 46.9659 54.3554 47.3564C54.1512 47.5652 53.9569 47.7819 53.7704 48.0067C53.5758 48.2411 53.3913 48.4824 53.215 48.7309C52.5601 49.6652 52.0129 50.6706 51.5837 51.7281C51.4766 51.9882 51.3761 52.2505 51.2818 52.5154C51.1863 52.7834 51.0974 53.0533 51.0146 53.3255C50.8476 53.875 50.7062 54.4319 50.5908 54.9945C50.5328 55.2765 50.4815 55.5595 50.4366 55.8439C50.3919 56.1272 50.3537 56.4112 50.3222 56.6963C50.2597 57.2589 50.2241 57.8242 50.2155 58.3902C50.1933 59.5303 50.2996 60.6693 50.5326 61.7856C50.6562 62.3691 50.8252 62.9419 51.0382 63.499C51.089 63.6305 51.1424 63.7608 51.1989 63.89C51.254 64.0161 51.3118 64.1409 51.3726 64.2644C51.49 64.5025 51.6174 64.734 51.7575 64.9596C51.9203 65.2232 52.1008 65.4753 52.2977 65.7143C52.4827 65.939 52.6845 66.1492 52.9015 66.343C53.3021 66.7052 53.7636 66.9934 54.2645 67.1946" stroke="#009688" stroke-width="0.447559" stroke-linecap="round" stroke-linejoin="round"/>
<path d="M48.647 51.1953C48.9996 50.3171 49.4299 49.4723 49.9328 48.6709C50.4335 47.8675 51.028 47.1267 51.7035 46.4639C52.3759 45.7958 53.1663 45.2585 54.0345 44.8792C54.9061 44.4965 55.8722 44.3843 56.8081 44.5569" stroke="#009688" stroke-width="0.447559" stroke-linecap="round" stroke-linejoin="round"/>
<path d="M83.8404 7.53364C83.9257 7.51053 84.0153 7.50768 84.1019 7.52533C84.3825 7.5825 84.688 7.65048 84.9635 7.7297C85.102 7.76953 85.2492 7.81686 85.383 7.87108C85.522 7.92155 85.6512 7.99598 85.7647 8.09101C85.7965 8.12193 85.826 8.15883 85.8412 8.20192C85.8543 8.23905 85.8551 8.2764 85.8432 8.31397C85.8324 8.34815 85.8126 8.37858 85.7896 8.4053C85.7588 8.44138 85.7209 8.47254 85.6824 8.49971C85.5423 8.59002 85.3919 8.66331 85.2345 8.71804C85.0783 8.77649 84.9197 8.82625 84.76 8.87338C84.6002 8.92051 84.4396 8.96448 84.2789 9.00847C73.0466 12.0855 61.8142 15.1625 50.5819 18.2395C50.4176 18.2846 50.2532 18.3295 50.0881 18.372C49.9411 18.4099 49.7937 18.4458 49.6456 18.4791C49.3308 18.5499 49.0144 18.6082 48.695 18.6543C48.5341 18.6775 48.373 18.6976 48.2114 18.7149C48.0526 18.7318 47.8937 18.746 47.7344 18.7575C47.5748 18.7691 47.4152 18.7781 47.2553 18.7847C47.0932 18.7914 46.9311 18.7956 46.7689 18.7974C46.4465 18.801 46.1247 18.7952 45.8027 18.7807C45.6471 18.7737 45.4916 18.7647 45.3362 18.7537C45.1701 18.7419 45.0043 18.7279 44.8386 18.7117C44.5178 18.6803 44.1983 18.6408 43.8793 18.5947" stroke="#C2C2C2" stroke-width="0.447559" stroke-linecap="round" stroke-linejoin="round"/>
<path d="M42.793 29.41L42.793 18.3889" stroke="#C2C2C2" stroke-width="0.447559" stroke-linecap="round" stroke-linejoin="round"/>
<path d="M58.5923 58.8799C58.8689 58.4895 59.0886 58.0617 59.2448 57.6093C59.3947 57.1832 59.4963 56.7416 59.5476 56.2927" stroke="#009688" stroke-width="0.447559" stroke-linecap="round" stroke-linejoin="round"/>
<path d="M61.2415 57.1641C61.241 57.164 61.2405 57.1639 61.24 57.1638C61.079 57.1318 60.932 57.05 60.8198 56.9301C60.708 56.8108 60.6196 56.6716 60.5591 56.5197C60.437 56.2039 60.3827 55.8658 60.3997 55.5275C60.4055 55.3579 60.4252 55.1916 60.4578 55.0251C60.4903 54.8587 60.5346 54.6971 60.5928 54.5378C60.704 54.2179 60.8796 53.9244 61.1087 53.6752C61.224 53.5515 61.3613 53.4504 61.5135 53.3769C61.5808 53.3459 61.649 53.3228 61.7217 53.3087C61.7668 53.2999 61.8118 53.295 61.8577 53.2943C61.9078 53.2935 61.9568 53.2976 62.006 53.3068C62.0099 53.3076 62.0138 53.3083 62.0176 53.3091C62.1759 53.3439 62.3197 53.4266 62.4294 53.546C62.5388 53.6646 62.6254 53.8025 62.6847 53.9527C62.7476 54.109 62.7913 54.2724 62.8147 54.4393C62.8388 54.606 62.8476 54.7745 62.841 54.9428C62.838 55.0266 62.8316 55.1099 62.822 55.1931C62.8123 55.2773 62.7991 55.3608 62.7827 55.4439C62.7499 55.6099 62.7055 55.7711 62.6477 55.9301C62.5369 56.2491 62.3624 56.5422 62.1348 56.7915C62.0199 56.9152 61.8834 57.0168 61.7321 57.0913C61.6523 57.1286 61.5717 57.1545 61.4841 57.1672C61.4021 57.1792 61.3233 57.179 61.2415 57.1641Z" stroke="#009688" stroke-width="0.447559" stroke-linecap="round" stroke-linejoin="round"/>
<path d="M61.2351 57.1625C61.2113 57.1582 61.1875 57.154 61.1637 57.15C60.9397 57.1042 60.7427 56.9718 60.6154 56.7815C60.4856 56.5956 60.3927 56.3863 60.3418 56.1653C60.2888 55.945 60.2631 55.7192 60.2651 55.4927C60.2663 55.2663 60.2909 55.0406 60.3386 54.8193C60.366 54.7251 60.3974 54.6326 60.4333 54.5413C60.4691 54.45 60.509 54.3608 60.5534 54.2734C60.6414 54.0981 60.7492 53.9336 60.8748 53.7831C60.9995 53.6314 61.15 53.5031 61.3194 53.404C61.4886 53.3023 61.6866 53.2593 61.8827 53.2817C61.9004 53.2842 61.9179 53.2874 61.9354 53.2913C61.959 53.2965 61.9826 53.3015 62.0063 53.3064" stroke="#009688" stroke-width="0.447559" stroke-linecap="round" stroke-linejoin="round"/>
<path d="M43.5476 0.603584C43.4463 0.527087 43.3278 0.476651 43.2024 0.456684C42.6582 0.375922 42.111 0.317159 41.5621 0.280556C41.0131 0.244407 40.4628 0.234633 39.9129 0.251268C39.6379 0.259843 39.3636 0.275445 39.0894 0.298974C38.9543 0.31055 38.8194 0.324079 38.6847 0.339667C38.5462 0.355683 38.408 0.373882 38.2701 0.394386C37.9978 0.434821 37.7277 0.484314 37.4586 0.542447C37.3326 0.569672 37.2069 0.598684 37.0816 0.62897C36.9396 0.663294 36.7979 0.699239 36.6563 0.735222C25.26 3.63153 13.8638 6.52783 2.46756 9.42412C2.17995 9.49722 1.86286 9.57764 1.57919 9.66581C1.43635 9.71019 1.28361 9.76223 1.14551 9.82027C1.00177 9.87473 0.868161 9.95292 0.750244 10.0516" stroke="#C2C2C2" stroke-width="0.447559" stroke-linecap="round" stroke-linejoin="round"/>
<path d="M44.0841 50.8909L44.2426 50.9445" stroke="#C2C2C2" stroke-width="0.447559" stroke-linecap="round" stroke-linejoin="round"/>
<path d="M44.0008 50.8638L40.2667 50.0998C40.1598 50.0748 40.0661 50.0108 40.0038 49.9203C39.9409 49.8313 39.8962 49.7307 39.8721 49.6243C39.8247 49.4112 39.8261 49.1902 39.8762 48.9777C39.8794 48.9637 39.8825 48.9496 39.8857 48.9356C39.8896 48.9218 39.8935 48.908 39.8974 48.8942C39.9472 48.7082 40.0366 48.5351 40.1595 48.3869C40.2214 48.3133 40.2969 48.2523 40.3819 48.2074C40.4671 48.1616 40.5653 48.1461 40.6605 48.1634C41.8408 48.4034 43.0211 48.6434 44.2015 48.8834" stroke="#C2C2C2" stroke-width="0.447559" stroke-linecap="round" stroke-linejoin="round"/>
<path d="M44.2381 50.9358C44.6518 51.0758 45.6008 51.4049 46.0145 51.5449C46.107 51.5762 46.1943 51.6157 46.2792 51.6639C46.4254 51.7477 46.5588 51.8522 46.6751 51.9742C46.7334 52.0346 46.7916 52.095 46.8498 52.1553" stroke="#C2C2C2" stroke-width="0.447559" stroke-linecap="round" stroke-linejoin="round"/>
<path d="M46.7697 50.8681C46.7404 50.9003 46.7091 50.9298 46.6752 50.9572C46.6728 50.9591 46.6704 50.961 46.668 50.9629C46.5679 51.0422 46.4514 51.098 46.327 51.1265C46.3236 51.1272 46.3202 51.128 46.3168 51.1287C46.201 51.1537 46.0814 51.1544 45.9653 51.1309L45.9643 51.1306C45.5652 51.049 44.6026 50.8616 44.2036 50.78" stroke="#C2C2C2" stroke-width="0.447559" stroke-linecap="round" stroke-linejoin="round"/>
<path d="M44.7312 49.1257C45.2563 49.2325 45.7815 49.3394 46.3066 49.4462C46.4156 49.4683 46.5192 49.5115 46.6117 49.5732C46.7042 49.6349 46.7839 49.7141 46.8462 49.8062C46.8855 49.8641 47.1027 50.2568 46.8262 50.7793" stroke="#C2C2C2" stroke-width="0.447559" stroke-linecap="round" stroke-linejoin="round"/>
<path d="M44.3011 49.0286L45.4283 49.2672" stroke="#C2C2C2" stroke-width="0.447559" stroke-linecap="round" stroke-linejoin="round"/>
<path d="M44.2386 50.7772L44.0557 50.7397" stroke="#C2C2C2" stroke-width="0.447559" stroke-linecap="round" stroke-linejoin="round"/>
<path d="M44.2882 52.4342C44.2636 52.4284 44.239 52.4226 44.2144 52.4168C43.7367 52.3046 43.3642 52.2202 42.8851 52.114C42.8164 52.0987 42.7475 52.0841 42.6788 52.0689C42.61 52.0537 42.5413 52.0386 42.4725 52.0235C42.1494 51.9528 41.826 51.884 41.5025 51.8155C41.179 51.747 40.8554 51.679 40.5317 51.6116" stroke="#C2C2C2" stroke-width="0.447559" stroke-linecap="round" stroke-linejoin="round"/>
<path d="M46.6058 53.0151C46.5963 53.0126 46.5867 53.01 46.5772 53.0075C46.2851 52.9295 45.9925 52.8534 45.6995 52.779C45.4064 52.7046 44.5467 52.5016 44.2529 52.4304" stroke="#C2C2C2" stroke-width="0.447559" stroke-linecap="round" stroke-linejoin="round"/>
<path d="M44.0008 50.8625C43.9951 50.8606 43.9895 50.8587 43.9838 50.8568C43.8854 50.8203 43.8026 50.751 43.7495 50.6604C43.6955 50.5711 43.6587 50.4725 43.6409 50.3697C43.6217 50.2679 43.6167 50.162 43.6225 50.0588C43.6285 49.9541 43.6449 49.8525 43.6714 49.7511C43.6751 49.7371 43.6788 49.7231 43.6824 49.7091C43.6858 49.6952 43.6892 49.6813 43.6926 49.6674C43.7254 49.5298 43.7786 49.398 43.8505 49.2762L43.8776 49.2312" stroke="#C2C2C2" stroke-width="0.447559" stroke-linecap="round" stroke-linejoin="round"/>
<path d="M43.9895 50.7184C43.9343 50.689 43.8854 50.649 43.8457 50.6006C43.8059 50.5523 43.7761 50.4965 43.758 50.4366C43.7178 50.3179 43.7003 50.1927 43.7064 50.0676C43.7098 49.9669 43.7246 49.8698 43.75 49.7724C43.7532 49.7603 43.7564 49.7482 43.7595 49.7361C43.7625 49.7241 43.7654 49.712 43.7684 49.7C43.7911 49.6075 43.8221 49.5199 43.8647 49.4346C43.8728 49.4185 43.8808 49.4024 43.8889 49.3862" stroke="#C2C2C2" stroke-width="0.447559" stroke-linecap="round" stroke-linejoin="round"/>
<path d="M43.2457 0.556013C43.1811 0.526507 43.1158 0.506662 43.0455 0.496514C42.8679 0.470863 42.6901 0.446982 42.5119 0.425417C42.3337 0.403839 42.1553 0.384656 41.9766 0.368092C41.6186 0.334939 41.2606 0.312538 40.9012 0.301938C40.1834 0.27849 39.4647 0.308277 38.7513 0.391037C38.6931 0.398026 38.6349 0.405394 38.5768 0.413237C38.2847 0.452574 37.9949 0.502692 37.7064 0.563338C37.4064 0.626436 37.144 0.692552 36.847 0.768054C25.4514 3.66505 14.0557 6.56208 2.66002 9.4591C2.35784 9.53593 2.00652 9.6249 1.70943 9.7212C1.55979 9.7697 1.39179 9.83017 1.24995 9.89964C1.17765 9.93503 1.10303 9.97664 1.03965 10.0274C1.00425 10.0558 0.969411 10.0894 0.945019 10.1285C0.926003 10.1591 0.913517 10.193 0.914081 10.2299C0.914739 10.2716 0.931896 10.3089 0.955689 10.3413C0.987708 10.385 1.0322 10.4212 1.07604 10.4512C1.11196 10.4758 1.14935 10.4974 1.18788 10.5174C1.23364 10.5412 1.28038 10.5626 1.32791 10.5825C1.49588 10.6529 1.69271 10.7127 1.86793 10.7601C2.23524 10.8546 2.60549 10.9372 2.97812 11.0077C3.01804 11.0179 3.05261 11.0429 3.07491 11.0776C3.09816 11.1108 3.11299 11.1508 3.11855 11.1907" stroke="#C2C2C2" stroke-width="0.447559" stroke-linecap="round" stroke-linejoin="round"/>
<path d="M43.7826 0.641357L83.1014 7.43914" stroke="#C2C2C2" stroke-width="0.447559" stroke-linecap="round" stroke-linejoin="round"/>
<path d="M83.1017 7.43945C83.1021 7.43956 83.1025 7.43966 83.1028 7.43971" stroke="#C2C2C2" stroke-width="0.447559" stroke-linecap="round" stroke-linejoin="round"/>
<path d="M43.7822 0.641357C43.7825 0.641458 43.7829 0.641491 43.7832 0.641542" stroke="#C2C2C2" stroke-width="0.447559" stroke-linecap="round" stroke-linejoin="round"/>
<path d="M83.0911 7.43962C83.0947 7.43866 83.0981 7.43845 83.1018 7.43907L83.0911 7.43962Z" stroke="#C2C2C2" stroke-width="0.447559" stroke-linecap="round" stroke-linejoin="round"/>
<path d="M43.7727 0.641556C43.7764 0.640594 43.7798 0.640351 43.7836 0.640952L43.7727 0.641556Z" stroke="#C2C2C2" stroke-width="0.447559" stroke-linecap="round" stroke-linejoin="round"/>
<path d="M36.7888 50.834C36.8102 50.8412 36.8317 50.8484 36.853 50.8556C36.8802 50.8647 36.9076 50.8725 36.9354 50.8791C36.9441 50.8811 36.9528 50.883 36.9615 50.8848" stroke="#C2C2C2" stroke-width="0.447559" stroke-linecap="round" stroke-linejoin="round"/>
<path d="M48.3291 48.586C48.9752 47.3628 49.791 46.2373 50.7523 45.2432C51.2358 44.7496 51.7693 44.3077 52.3442 43.9248C52.9187 43.5403 53.5461 43.2418 54.2066 43.0385C55.0121 42.7885 55.8665 42.74 56.6951 42.8973C56.7546 42.9091 56.8139 42.922 56.8729 42.9361" stroke="#009688" stroke-width="0.447559" stroke-linecap="round" stroke-linejoin="round"/>
<path d="M42.749 28.8784L42.7236 48.5831" stroke="#C2C2C2" stroke-width="0.447559" stroke-linecap="round" stroke-linejoin="round"/>
<path d="M47.294 51.9534C47.0516 52.7084 46.8514 53.4763 46.6943 54.2536C46.5366 55.0307 46.4223 55.816 46.352 56.6058C46.2039 58.1866 46.2565 59.7798 46.5085 61.3473C46.6371 62.1301 46.8313 62.9007 47.0891 63.6508C47.3452 64.402 47.6862 65.1214 48.1055 65.795C48.3254 66.145 48.5726 66.4771 48.8447 66.7881C49.0948 67.0738 49.3695 67.3369 49.6658 67.5742C49.9872 67.8318 50.3368 68.052 50.7079 68.2303C51.0513 68.3948 51.4128 68.5184 51.7849 68.5986C52.6804 68.7825 53.6086 68.7255 54.475 68.4335C54.6705 68.3705 54.8617 68.2981 55.0503 68.2168" stroke="#009688" stroke-width="0.447559" stroke-linecap="round" stroke-linejoin="round"/>
<path d="M51.7848 68.5986C51.6661 68.5731 51.5475 68.5476 51.4288 68.5221C51.0455 68.4395 50.6735 68.3108 50.3209 68.1391C49.9388 67.9522 49.5799 67.7212 49.2513 67.4509C48.9494 67.2028 48.6703 66.9281 48.4173 66.63C48.1416 66.3051 47.8921 65.9587 47.6713 65.5941C47.2506 64.8925 46.9118 64.1448 46.6614 63.3658C46.4091 62.5879 46.223 61.7899 46.1051 60.9805C45.8741 59.3592 45.8518 57.7149 46.0386 56.0878C46.2181 54.4609 46.5831 52.86 47.1263 51.3162" stroke="#009688" stroke-width="0.447559" stroke-linecap="round" stroke-linejoin="round"/>
<path d="M59.9004 44.6116C59.1462 43.7788 58.1499 43.2042 57.0521 42.9688C56.2236 42.8115 55.3693 42.86 54.5639 43.1102C53.8561 43.3291 53.1862 43.6561 52.5781 44.0797C51.9696 44.5011 51.4084 44.987 50.9042 45.529C49.9012 46.6211 49.0621 47.8534 48.4133 49.1872" stroke="#009688" stroke-width="0.447559" stroke-linecap="round" stroke-linejoin="round"/>
<path d="M40.5305 51.6121C40.526 51.6114 40.5215 51.6102 40.517 51.6093C40.5043 51.6066 40.4916 51.604 40.4789 51.6013C40.3448 51.5734 40.2107 51.5456 40.0765 51.5179C39.9252 51.4866 39.7739 51.4553 39.6225 51.4241C39.3196 51.3617 39.0166 51.2994 38.7137 51.2373C38.1079 51.113 37.5022 50.9882 36.8965 50.8634C36.8595 50.8558 36.8233 50.846 36.7875 50.834C36.6342 50.7814 36.4959 50.6925 36.3845 50.5748C36.2734 50.4572 36.1856 50.3194 36.1259 50.169C36.0659 50.0188 36.0288 49.8605 36.016 49.6993C36.0027 49.5381 36.0107 49.376 36.0397 49.2169C36.0436 49.1954 36.0475 49.1738 36.0514 49.1523C36.0568 49.1311 36.0622 49.1098 36.0675 49.0886C36.1097 48.9214 36.1748 48.7609 36.2612 48.6117C36.3472 48.4621 36.4564 48.3273 36.5848 48.2122C36.713 48.0966 36.8633 48.0084 37.0267 47.9529C37.1905 47.8974 37.366 47.8859 37.5356 47.9194C37.9521 48.0043 38.3687 48.0894 38.7852 48.1742C39.0066 48.2193 39.228 48.2642 39.4494 48.3092C39.6708 48.3542 39.8921 48.3993 40.1135 48.4446" stroke="#C2C2C2" stroke-width="0.447559" stroke-linecap="round" stroke-linejoin="round"/>
<path d="M27.6638 42.5196C27.6429 42.5263 27.6235 42.537 27.6069 42.5513C27.5902 42.5655 27.5765 42.5829 27.5667 42.6026C27.5459 42.6411 27.5372 42.6859 27.5372 42.7291C27.5453 47.7764 27.5533 52.8237 27.5613 57.871C27.5617 57.9346 27.5798 57.9969 27.6135 58.0509C27.6455 58.1064 27.6982 58.1469 27.76 58.1634C29.7106 58.5758 31.6613 58.9881 33.612 59.4004C33.6373 59.4058 33.6633 59.4052 33.6882 59.3976C33.7086 59.3908 33.7274 59.38 33.7437 59.3659C33.7599 59.3518 33.7732 59.3346 33.7828 59.3154C33.8031 59.2774 33.8117 59.2336 33.8117 59.1912C33.8097 54.125 33.8076 49.0587 33.8056 43.9925C33.8053 43.9284 33.7871 43.8657 33.7532 43.8114C33.7371 43.7838 33.7158 43.7596 33.6904 43.7404C33.665 43.7211 33.636 43.7071 33.6051 43.6991C31.6486 43.3051 29.6922 42.9111 27.7357 42.5171C27.7118 42.5123 27.6873 42.5128 27.6638 42.5196Z" stroke="#C2C2C2" stroke-width="0.447559" stroke-linecap="round" stroke-linejoin="round"/>
<path d="M42.9608 18.4197C42.9114 18.4106 42.862 18.4015 42.8125 18.3924C29.6469 15.967 16.4814 13.5416 3.31578 11.1163C3.23369 11.1012 3.15162 11.0861 3.06958 11.0708" stroke="#C2C2C2" stroke-width="0.447559" stroke-linecap="round" stroke-linejoin="round"/>
<path d="M62.8268 55.1477C62.9311 55.5502 62.9815 55.9649 62.9765 56.3808C62.9698 57.2248 62.7821 58.0576 62.4259 58.8226C62.2493 59.2048 62.0182 59.5592 61.74 59.875C61.4661 60.1965 61.1127 60.4404 60.7152 60.5825C60.4741 60.6624 60.216 60.6755 59.9682 60.6205C59.6887 60.5514 59.4355 60.4017 59.2402 60.1899C59.0452 59.9797 58.8897 59.736 58.7811 59.4705C58.5689 58.9367 58.4656 58.3658 58.4771 57.7914C58.4831 56.9449 58.6713 56.1096 59.0289 55.3425C59.2062 54.9593 59.4383 54.604 59.7179 54.2878C59.9932 53.9658 60.3486 53.7224 60.7481 53.5821C60.8796 53.5407 61.0163 53.5176 61.1541 53.5137" stroke="#009688" stroke-width="0.447559" stroke-linecap="round" stroke-linejoin="round"/>
<path d="M75.1179 84.4252L54.9116 92.4279C53.514 92.9144 52.1163 93.4009 50.7187 93.8874C50.3766 94.0065 50.0609 94.1146 49.7119 94.2127C49.3718 94.3083 49.0272 94.3869 48.6793 94.4482C47.9833 94.5679 47.2786 94.6301 46.5724 94.6342C46.3958 94.6359 46.2194 94.6343 46.0429 94.6297C45.8664 94.6251 45.6901 94.6174 45.5138 94.6066C45.3362 94.5958 45.1588 94.5819 44.9816 94.565C44.8074 94.5484 44.6336 94.529 44.46 94.5067C44.1096 94.4617 43.7615 94.4053 43.4144 94.3398C43.0675 94.2743 42.7227 94.1998 42.3779 94.1246C41.8777 94.0156 41.3777 93.9057 40.8784 93.7927C40.3791 93.6797 39.8805 93.5637 39.382 93.447C28.2266 90.8349 17.0712 88.2228 5.91583 85.6107C5.45182 85.5021 4.98795 85.3928 4.52478 85.2807C4.40898 85.2526 4.29323 85.2244 4.17751 85.196C4.0618 85.1677 3.94613 85.1391 3.8305 85.1104C3.59923 85.053 3.36813 84.995 3.13705 84.9368C2.69889 84.8327 2.26496 84.7114 1.83626 84.5732C1.62214 84.5032 1.41378 84.4166 1.21308 84.3142C1.17791 84.2746 1.09297 84.1309 1.07831 83.9939" stroke="#C2C2C2" stroke-width="0.642857" stroke-linecap="round" stroke-linejoin="round"/>
<path d="M0.53105 10.3525L1.03576 83.9974C1.04106 84.0535 1.05809 84.1078 1.08579 84.1572C1.1135 84.2065 1.1513 84.2498 1.19685 84.2844C1.39905 84.4391 1.62669 84.5594 1.87011 84.64C2.10417 84.727 2.36214 84.8031 2.60314 84.8683C2.69125 84.8932 2.78517 84.8904 2.87155 84.8603C2.95719 84.8286 3.03174 84.7737 3.08641 84.7021C3.19174 84.5556 3.24507 84.3795 3.23829 84.2007C3.08213 59.88 2.92597 35.5593 2.7698 11.2385C2.76971 11.2237 2.76545 11.2084 2.75763 11.1956C2.75012 11.1833 2.7379 11.1714 2.72246 11.1684C2.32531 11.0953 1.93084 11.0091 1.53972 10.9098C1.34421 10.8598 1.15234 10.797 0.965373 10.7221C0.915062 10.7011 0.865645 10.6785 0.817345 10.6533C0.77642 10.6319 0.736771 10.609 0.698812 10.5828C0.652886 10.5511 0.606626 10.513 0.573662 10.4673C0.548701 10.4326 0.531366 10.3934 0.531006 10.3497C0.533648 10.315 0.543462 10.281 0.559862 10.25C0.576262 10.219 0.598904 10.1916 0.626445 10.1693C0.649213 10.1479 0.673562 10.1287 0.699117 10.1106" stroke="#C2C2C2" stroke-width="0.447559" stroke-linecap="round" stroke-linejoin="round"/>
<path d="M57.324 58.278C57.3332 57.0279 57.587 55.7918 58.0712 54.6396C58.3114 54.064 58.6209 53.5199 58.993 53.0195C59.193 52.7522 59.4168 52.5035 59.6616 52.2765C59.8736 52.0795 60.1059 51.9056 60.3546 51.7576C60.6286 51.593 60.9278 51.4748 61.2402 51.4076C61.5375 51.3447 61.8446 51.3436 62.1423 51.4046C62.4298 51.4659 62.7022 51.584 62.9436 51.7518C63.2138 51.9415 63.45 52.1758 63.6418 52.4447C63.817 52.6882 63.9653 52.95 64.0841 53.2255C64.2125 53.5223 64.315 53.8296 64.3905 54.1441C64.5338 54.7512 64.6027 55.3735 64.5958 55.9972C64.585 57.2452 64.3304 58.479 63.8462 59.6291C63.606 60.2036 63.2967 60.7466 62.9251 61.246C62.7252 61.5127 62.5018 61.7608 62.2574 61.9873C62.0456 62.184 61.8136 62.3576 61.5653 62.5054C61.2923 62.6693 60.9944 62.7873 60.6833 62.8546C60.3859 62.9181 60.0786 62.9196 59.7805 62.859C59.4935 62.7983 59.2214 62.6809 58.9801 62.5138C58.7099 62.325 58.4737 62.0915 58.2816 61.8233C58.1064 61.5806 57.958 61.3196 57.839 61.0448C57.7102 60.7486 57.6073 60.4418 57.5315 60.1278C57.3876 59.5219 57.3179 58.9007 57.324 58.278Z" stroke="#009688" stroke-width="0.447559" stroke-linecap="round" stroke-linejoin="round"/>
<path d="M58.2285 69.9829C58.1089 69.9573 57.9893 69.9316 57.8697 69.9059C57.282 69.7778 56.7226 69.5434 56.2189 69.2143C55.6426 68.8343 55.1325 68.3622 54.709 67.8168C54.3317 67.3346 54.006 66.814 53.7374 66.2637C53.4393 65.6543 53.1947 65.02 53.0063 64.3681C52.6524 63.1247 52.4487 61.8433 52.3995 60.5514C52.346 59.2621 52.414 57.9707 52.6026 56.6943C52.7887 55.4168 53.0884 54.1584 53.4981 52.9342C53.905 51.7089 54.4337 50.5275 55.0762 49.4079C55.4117 48.8259 55.7843 48.2663 56.1918 47.7324C56.5668 47.2404 56.9775 46.7766 57.4204 46.3449C57.9179 45.8573 58.4672 45.4258 59.0586 45.0581C59.5629 44.7444 60.1054 44.4971 60.6728 44.3221C61.4759 44.0701 62.3286 44.0203 63.1554 44.1772C63.2154 44.1891 63.2752 44.2021 63.3347 44.2163" stroke="#009688" stroke-width="0.447559" stroke-linecap="round" stroke-linejoin="round"/>
<path d="M58.2285 69.9829C57.6408 69.8548 57.0814 69.6204 56.5778 69.2911C56.0014 68.911 55.4913 68.4387 55.0679 67.893C54.6907 67.4106 54.3652 66.8899 54.0967 66.3395C53.7987 65.7299 53.5542 65.0955 53.366 64.4434C53.0122 63.1998 52.8087 61.9182 52.7597 60.6261C52.7064 59.3367 52.7745 58.0452 52.9631 56.7685C53.1493 55.4909 53.449 54.2324 53.8587 53.008C54.2657 51.7825 54.7943 50.601 55.4367 49.4811C55.7722 48.899 56.1448 48.3392 56.5522 47.8052C56.9272 47.313 57.3378 46.8492 57.7807 46.4173C58.2781 45.9295 58.8275 45.4978 59.4189 45.1299C59.9232 44.8161 60.4657 44.5686 61.0331 44.3936C61.836 44.1415 62.6886 44.0916 63.5153 44.2484C64.1056 44.367 64.6691 44.5931 65.1778 44.9156C65.757 45.2861 66.2709 45.7501 66.6986 46.2887C67.0807 46.7664 67.411 47.2835 67.6838 47.8311C67.9861 48.4366 68.2348 49.0676 68.4269 49.7167C68.7879 50.9548 68.9985 52.2321 69.0542 53.5208C69.0857 54.1684 69.0851 54.8173 69.0525 55.4649C69.0367 55.7839 69.0135 56.1021 68.9831 56.42C68.9528 56.7382 68.9152 57.0554 68.8706 57.3719C68.6909 58.649 68.3979 59.9076 67.9951 61.1327C67.5952 62.3581 67.0746 63.5405 66.441 64.6627C66.1105 65.2452 65.7434 65.8061 65.3419 66.3421C64.9714 66.8372 64.5656 67.3048 64.1277 67.7414C63.6372 68.233 63.0955 68.6706 62.5119 69.0467C62.0129 69.3685 61.4755 69.6261 60.9122 69.8135C60.0486 70.1077 59.1222 70.1662 58.2285 69.9829Z" stroke="#009688" stroke-width="0.447559" stroke-linecap="round" stroke-linejoin="round"/>
<path d="M0.626587 10.1711L0.750488 10.0515" stroke="#C2C2C2" stroke-width="0.447559" stroke-linecap="round" stroke-linejoin="round"/>
<path d="M48.0682 52.8566C48.1587 52.5499 48.257 52.2459 48.3635 51.9443" stroke="#009688" stroke-width="0.447559" stroke-linecap="round" stroke-linejoin="round"/>
<path d="M52.1865 67.0411C51.8752 66.9743 51.5721 66.8734 51.2828 66.7402C51.1353 66.6724 50.9923 66.5971 50.8527 66.5142C50.7102 66.4295 50.5729 66.338 50.4397 66.2393C49.923 65.8489 49.4728 65.3775 49.1065 64.8432C48.3875 63.7642 47.8869 62.5545 47.6331 61.2825C47.3675 60.0155 47.261 58.7201 47.3161 57.4267C47.3404 56.7805 47.399 56.1361 47.4917 55.4961C47.5379 55.1761 47.5922 54.8578 47.6548 54.5405C47.7174 54.2231 47.788 53.9078 47.8669 53.594" stroke="#009688" stroke-width="0.447559" stroke-linecap="round" stroke-linejoin="round"/>
<path d="M54.0072 66.7712C53.6087 66.4742 53.2511 66.1258 52.9439 65.7349C52.6056 65.3047 52.3149 64.8391 52.0768 64.3461C51.9683 64.1244 51.8695 63.8989 51.7788 63.6693C51.6845 63.4305 51.5998 63.1889 51.5232 62.9439C51.3629 62.4271 51.2366 61.9002 51.1453 61.3669C51.1021 61.1177 51.0658 60.8677 51.036 60.6166C51.0055 60.3595 50.9819 60.1021 50.9646 59.8438C50.947 59.5803 50.936 59.3167 50.9314 59.0527C50.9266 58.7843 50.9284 58.5161 50.9365 58.2477C50.9693 57.2036 51.0919 56.1642 51.3029 55.1411C51.4085 54.6264 51.536 54.1165 51.6851 53.6127C51.7591 53.3628 51.8384 53.1147 51.9231 52.8682C52.0071 52.624 52.0962 52.3819 52.1908 52.1417C52.5701 51.1685 53.0463 50.236 53.6122 49.3584C53.9063 48.9042 54.2301 48.47 54.5814 48.0586C54.9078 47.6756 55.2628 47.318 55.6434 46.989C56.0564 46.6304 56.5071 46.3177 56.9875 46.0564C57.2108 45.9361 57.4416 45.8301 57.6784 45.739C57.7929 45.6951 57.9085 45.655 58.0257 45.619C58.1405 45.5837 58.2561 45.5525 58.3731 45.5254" stroke="#009688" stroke-width="0.447559" stroke-linecap="round" stroke-linejoin="round"/>
<path d="M54.2484 67.1707C53.377 66.7988 52.624 66.195 52.0712 65.4248" stroke="#009688" stroke-width="0.447559" stroke-linecap="round" stroke-linejoin="round"/>
<path d="M54.1608 67.0298C53.7046 66.7766 53.2901 66.4544 52.9319 66.0746C52.5373 65.6558 52.1967 65.189 51.9184 64.6851C51.6626 64.2252 51.4465 63.7443 51.2725 63.2476C51.2262 63.117 51.1825 62.9855 51.1413 62.8532C51.0992 62.7183 51.0597 62.5827 51.0227 62.4463C50.9464 62.1658 50.8807 61.8833 50.8243 61.5981C50.6168 60.5206 50.5261 59.4238 50.5535 58.3269C50.565 57.7824 50.6017 57.2387 50.6633 56.6976C50.6944 56.4238 50.7316 56.1509 50.775 55.8787C50.8185 55.6056 50.868 55.3338 50.9237 55.0629C51.0347 54.5219 51.1699 53.9862 51.329 53.4574C51.4856 52.9359 51.6662 52.4218 51.8702 51.917C52.0799 51.3975 52.3162 50.8891 52.5784 50.3941C52.7057 50.1542 52.8391 49.9182 52.9794 49.6858C53.1162 49.4592 53.2589 49.2369 53.4085 49.0186C53.7297 48.5474 54.0847 48.1002 54.4706 47.6804C54.6532 47.4829 54.8425 47.2932 55.0406 47.1114C55.2304 46.9371 55.4264 46.7716 55.631 46.615C55.8649 46.4352 56.1094 46.2695 56.3631 46.1188C56.6035 45.9759 56.8531 45.8492 57.1103 45.7395C57.5892 45.5323 58.0972 45.4004 58.6163 45.3484" stroke="#009688" stroke-width="0.447559" stroke-linecap="round" stroke-linejoin="round"/>
<path d="M51.6193 65.1716C51.3528 64.7521 51.1228 64.3103 50.9321 63.8513C50.7249 63.3539 50.5544 62.8421 50.4219 62.3198C50.17 61.3139 50.0266 60.2838 49.9941 59.2472C49.9849 58.9928 49.9816 58.7386 49.9839 58.4841C49.9863 58.226 49.9944 57.9684 50.008 57.7107C50.0359 57.188 50.086 56.6667 50.1584 56.1482C50.2298 55.6345 50.3224 55.1239 50.4359 54.6177C50.5488 54.1129 50.6826 53.613 50.8369 53.1193C50.9157 52.8674 50.9997 52.6175 51.0893 52.3693C51.1779 52.1236 51.2718 51.8802 51.3712 51.6388C51.5653 51.1662 51.7812 50.7028 52.0181 50.2502C52.4942 49.3293 53.0744 48.4663 53.7472 47.678C53.9279 47.4692 54.1155 47.2678 54.3119 47.0738C54.5002 46.8877 54.6952 46.7098 54.8986 46.5402C55.2781 46.2214 55.6875 45.94 56.1211 45.7002C56.3619 45.5678 56.6113 45.4517 56.8677 45.3525C57.1121 45.2578 57.3631 45.1813 57.6188 45.1236C57.8647 45.0679 58.1146 45.032 58.3662 45.0161C58.6115 45.0005 58.8576 45.0057 59.102 45.0316" stroke="#009688" stroke-width="0.447559" stroke-linecap="round" stroke-linejoin="round"/>
<path d="M53.3787 65.4549C53.1447 65.1045 52.9384 64.7363 52.7617 64.3538C52.5713 63.9425 52.4089 63.5187 52.2757 63.0855C52.0208 62.2485 51.8503 61.3881 51.7666 60.5172C51.7237 60.0879 51.6984 59.657 51.6908 59.2256C51.6829 58.7823 51.6922 58.3388 51.7188 57.8962C51.7447 57.4616 51.7863 57.028 51.8435 56.5964C51.9012 56.1611 51.9743 55.728 52.0627 55.2978C52.2385 54.4401 52.4755 53.5962 52.7717 52.7724C52.9217 52.3557 53.0879 51.9449 53.2698 51.5411C53.3591 51.3431 53.4522 51.147 53.5494 50.9528C53.6451 50.7616 53.7445 50.5726 53.8481 50.3855C54.0647 49.9933 54.3 49.6116 54.553 49.2419C54.6753 49.0636 54.8018 48.8886 54.9332 48.7168C55.061 48.5495 55.1929 48.3859 55.3296 48.2258C55.6228 47.8806 55.939 47.5558 56.276 47.2534C56.5892 46.972 56.9239 46.7156 57.277 46.4863" stroke="#009688" stroke-width="0.447559" stroke-linecap="round" stroke-linejoin="round"/>
<path d="M49.927 62.4716C49.8967 62.3642 49.868 62.2564 49.8407 62.1481C49.813 62.0384 49.7868 61.9283 49.7621 61.8179C49.7117 61.5926 49.6673 61.3663 49.6285 61.1387C49.5888 60.9056 49.5551 60.6718 49.5268 60.437C49.498 60.1972 49.4751 59.957 49.4575 59.716C49.4409 59.4875 49.4293 59.2588 49.4224 59.0297C49.4153 58.7972 49.4132 58.5648 49.4157 58.3322C49.421 57.859 49.4452 57.3862 49.488 56.9149C49.5301 56.4508 49.5895 55.9885 49.6662 55.5289C49.7432 55.0671 49.8372 54.6083 49.9482 54.1534C50.0596 53.6963 50.1882 53.2435 50.3339 52.7961C50.406 52.5744 50.4823 52.3544 50.563 52.1358C50.6428 51.9193 50.7268 51.7045 50.8151 51.4913C51.1701 50.627 51.6011 49.7961 52.1031 49.0083C52.603 48.2182 53.1947 47.4904 53.8659 46.8401C54.2168 46.5032 54.5956 46.1967 54.9983 45.9239C55.3688 45.6728 55.7635 45.4596 56.1767 45.2878C56.6197 45.1028 57.0861 44.9802 57.5627 44.9236C57.7899 44.8975 58.0188 44.8888 58.2473 44.8976C58.4723 44.9064 58.6964 44.9328 58.9173 44.9768" stroke="#009688" stroke-width="0.447559" stroke-linecap="round" stroke-linejoin="round"/>
<path d="M54.29 67.4911C53.414 67.2925 52.6132 66.847 51.9822 66.2071C51.3531 65.5703 50.8455 64.8238 50.4843 64.0044" stroke="#009688" stroke-width="0.447559" stroke-linecap="round" stroke-linejoin="round"/>
<path d="M48.4759 57.8067C48.4869 57.4357 48.5095 57.0661 48.5433 56.6966C48.5776 56.3229 48.6232 55.9511 48.6799 55.5802C48.7364 55.2111 48.8037 54.8445 48.8819 54.4795C48.96 54.1148 49.0487 53.7532 49.1483 53.3937C49.5411 51.9526 50.1205 50.569 50.8717 49.2782C51.6097 47.9774 52.5993 46.837 53.7827 45.9236C54.3797 45.4746 55.0494 45.132 55.7626 44.9108C56.4779 44.69 57.2364 44.6481 57.9716 44.7888" stroke="#009688" stroke-width="0.447559" stroke-linecap="round" stroke-linejoin="round"/>
<path d="M53.3469 67.2899C52.5002 67.0988 51.7231 66.6759 51.1026 66.0682C50.7905 65.7696 50.5096 65.44 50.264 65.0845C50.1428 64.9105 50.0297 64.732 49.9234 64.5486C49.8687 64.4544 49.816 64.3591 49.765 64.2628C49.7131 64.1646 49.6632 64.0656 49.615 63.9655C49.4285 63.5761 49.2673 63.1749 49.1324 62.7646C49.0655 62.5624 49.0044 62.3586 48.9487 62.153C48.8914 61.9416 48.8399 61.729 48.7938 61.515C48.7031 61.0927 48.6321 60.6665 48.5809 60.2377C48.5295 59.8089 48.4959 59.3781 48.4801 58.9465" stroke="#009688" stroke-width="0.447559" stroke-linecap="round" stroke-linejoin="round"/>
<path d="M53.7606 66.3097C53.4345 65.9771 53.1449 65.6105 52.8968 65.2161C52.6253 64.7854 52.3929 64.3314 52.2021 63.8593C51.8403 62.9523 51.5911 62.0043 51.4599 61.0365C51.4264 60.8016 51.3988 60.5663 51.3767 60.3301C51.3542 60.0891 51.3375 59.8479 51.3262 59.6061C51.3147 59.3601 51.3088 59.1142 51.3084 58.868C51.308 58.6182 51.3132 58.3687 51.3237 58.1191C51.3442 57.6345 51.3844 57.151 51.4442 56.6697C51.5045 56.1832 51.5841 55.6993 51.6828 55.2191C52.0654 53.3023 52.7717 51.4649 53.7713 49.7858C53.904 49.5681 54.0423 49.3543 54.1869 49.1443C54.2577 49.0415 54.3299 48.9398 54.4037 48.8392C54.4763 48.74 54.5504 48.642 54.6261 48.545C54.9157 48.172 55.2295 47.8184 55.5654 47.4866C55.6591 47.3944 55.7546 47.3042 55.8521 47.216C55.9474 47.1297 56.0445 47.0456 56.1436 46.9635C56.3355 46.8046 56.5333 46.6548 56.7392 46.5144C57.1229 46.2501 57.5339 46.0278 57.9649 45.8513" stroke="#009688" stroke-width="0.447559" stroke-linecap="round" stroke-linejoin="round"/>
<path d="M48.3314 56.9097C48.3588 56.5568 48.3964 56.2053 48.444 55.8545C48.492 55.5014 48.5499 55.1504 48.6177 54.8007C48.7527 54.1034 48.9271 53.4144 49.1403 52.737C49.2478 52.3956 49.365 52.0579 49.4926 51.7234C49.6181 51.3941 49.7532 51.0694 49.8986 50.7485C50.0474 50.4204 50.2062 50.0979 50.3765 49.7804C50.4598 49.625 50.5458 49.4712 50.6345 49.3188C50.7218 49.1688 50.8117 49.0204 50.9044 48.8736C51.0976 48.567 51.3033 48.2683 51.5208 47.9784C51.6264 47.838 51.7348 47.7 51.8463 47.5643C51.9554 47.4317 52.0672 47.3016 52.1822 47.1741C52.6544 46.6434 53.1862 46.1691 53.767 45.7605C54.3472 45.3492 54.9925 45.0391 55.6758 44.843C56.0235 44.7465 56.381 44.6893 56.7414 44.6724C57.0899 44.6566 57.4391 44.6829 57.7813 44.7507" stroke="#009688" stroke-width="0.447559" stroke-linecap="round" stroke-linejoin="round"/>
<path d="M53.1567 67.2491C52.2366 67.0389 51.3999 66.5591 50.7534 65.8709C50.1086 65.187 49.5958 64.3896 49.2407 63.519C48.8806 62.6516 48.6246 61.7444 48.4781 60.8166C48.4404 60.5875 48.4084 60.3578 48.3817 60.1271C48.3545 59.8916 48.3329 59.6558 48.3165 59.4194C48.3004 59.187 48.2894 58.9546 48.2833 58.7219C48.2771 58.4856 48.2759 58.2495 48.2796 58.0132" stroke="#009688" stroke-width="0.447559" stroke-linecap="round" stroke-linejoin="round"/>
<path d="M48.2241 55.9913C48.3924 54.6543 48.7041 53.3394 49.1537 52.0692C49.5983 50.7968 50.2016 49.5857 50.9491 48.4645C51.6866 47.3338 52.6397 46.3597 53.7536 45.5982C54.3152 45.2251 54.9344 44.9472 55.5863 44.7759C55.9173 44.6917 56.2564 44.6433 56.5977 44.6315C56.9287 44.6205 57.2599 44.6475 57.5848 44.7119" stroke="#009688" stroke-width="0.447559" stroke-linecap="round" stroke-linejoin="round"/>
<path d="M52.961 67.2068C52.7156 67.1543 52.4753 67.0804 52.2428 66.9859C52.0061 66.8897 51.7778 66.7738 51.5605 66.6392C51.1305 66.3703 50.7407 66.042 50.4026 65.6638C49.735 64.8982 49.2174 64.0134 48.877 63.0559C48.7009 62.5807 48.5563 62.0944 48.444 61.6001C48.388 61.3562 48.3392 61.1111 48.2969 60.8644C48.2754 60.7386 48.2555 60.6126 48.2374 60.4864C48.219 60.3585 48.2024 60.2305 48.1874 60.1022C48.0729 59.0945 48.0505 58.0784 48.1204 57.0667" stroke="#009688" stroke-width="0.447559" stroke-linecap="round" stroke-linejoin="round"/>
<path d="M36.8207 50.8438C36.8309 50.8476 36.8412 50.8513 36.8515 50.8548" stroke="#C2C2C2" stroke-width="0.447559" stroke-linecap="round" stroke-linejoin="round"/>
<path d="M51.4835 65.3651C51.175 65.0155 50.8932 64.6431 50.6406 64.2512C50.5151 64.0584 50.3958 63.8622 50.2816 63.6625C50.164 63.457 50.0522 63.2487 49.9453 63.0374C49.5279 62.2031 49.1774 61.3369 48.897 60.447C48.6143 59.5574 48.3907 58.65 48.2278 57.7308C48.1873 57.5029 48.1505 57.2745 48.1174 57.0454C48.0837 56.8127 48.0539 56.5796 48.0281 56.3459C48.0026 56.1155 47.981 55.8848 47.9634 55.6536C47.9455 55.4195 47.9317 55.1853 47.9221 54.9507" stroke="#009688" stroke-width="0.447559" stroke-linecap="round" stroke-linejoin="round"/>
<path d="M48.1531 54.9417C48.1626 55.173 48.1762 55.404 48.1938 55.6349C48.2112 55.8629 48.2324 56.0903 48.2575 56.3175C48.2829 56.548 48.3122 56.7778 48.3453 57.0073C48.3779 57.2332 48.4141 57.4583 48.4539 57.683C48.6141 58.5888 48.8337 59.483 49.1114 60.3598C49.387 61.2376 49.7315 62.0921 50.1418 62.9155C50.1947 63.0205 50.249 63.1249 50.3045 63.2286C50.3593 63.3307 50.4153 63.4322 50.4727 63.5329C50.585 63.7298 50.7022 63.9233 50.8256 64.1134C51.0739 64.5001 51.3512 64.8674 51.6551 65.2121" stroke="#009688" stroke-width="0.447559" stroke-linecap="round" stroke-linejoin="round"/>
<path d="M49.5143 61.5017C49.3407 60.624 49.2453 59.7326 49.2292 58.838C49.2245 58.6177 49.2242 58.3976 49.228 58.1773C49.232 57.9545 49.2401 57.732 49.2524 57.5095C49.2774 57.059 49.3191 56.6097 49.3772 56.1623C49.4924 55.2751 49.6704 54.3973 49.9097 53.5354C50.0304 53.1008 50.1669 52.6709 50.3191 52.2463C50.4686 51.8292 50.6339 51.4179 50.8147 51.0134C50.9085 50.8038 51.0064 50.5963 51.1088 50.3908C51.2096 50.1886 51.3145 49.9888 51.4239 49.7911C51.6359 49.4071 51.8654 49.0331 52.1116 48.6701C52.3699 48.2887 52.6492 47.9221 52.9484 47.572C53.0917 47.4047 53.2396 47.2419 53.3928 47.0836C53.5412 46.9304 53.6938 46.7821 53.8519 46.6388C54.1953 46.3254 54.5645 46.0414 54.9555 45.7899C55.3163 45.5576 55.6992 45.3619 56.0987 45.2054C56.9317 44.8666 57.8442 44.7741 58.7281 44.939" stroke="#009688" stroke-width="0.447559" stroke-linecap="round" stroke-linejoin="round"/>
<path d="M54.1011 67.4516C53.8374 67.3952 53.5795 67.3141 53.331 67.2092C53.0825 67.1044 52.8437 66.9778 52.6174 66.831C52.1659 66.5346 51.7603 66.1735 51.4136 65.7592C50.73 64.9205 50.2125 63.9589 49.8887 62.926" stroke="#009688" stroke-width="0.447559" stroke-linecap="round" stroke-linejoin="round"/>
<path d="M50.4238 63.4462C50.0843 62.5318 49.8526 61.5809 49.7334 60.6127C49.7182 60.4955 49.7044 60.3781 49.692 60.2605C49.6795 60.1417 49.6683 60.0228 49.6586 59.9038C49.6388 59.6623 49.6245 59.4207 49.6156 59.1785C49.6066 58.9325 49.603 58.6865 49.6047 58.4403C49.6065 58.1908 49.6136 57.9415 49.626 57.6923C49.6501 57.2074 49.6935 56.7237 49.7561 56.2422C49.8192 55.7561 49.9011 55.2726 50.0018 54.7928C50.1024 54.3129 50.2217 53.8371 50.3594 53.3665C50.4278 53.1328 50.5007 52.9007 50.5783 52.6699C50.6552 52.441 50.7366 52.2138 50.8227 51.9882C51.1681 51.0755 51.5948 50.1958 52.0977 49.3598C52.2297 49.142 52.3671 48.9281 52.5107 48.7179C52.5811 48.615 52.6528 48.5131 52.7261 48.4122C52.7983 48.3127 52.8718 48.2143 52.9469 48.117C53.2349 47.7421 53.5464 47.3859 53.8796 47.0506C53.9722 46.9577 54.0665 46.8668 54.1628 46.7777C54.257 46.6905 54.353 46.6053 54.4508 46.5221C54.6406 46.3608 54.8362 46.2081 55.0396 46.0643C55.4195 45.7934 55.826 45.562 56.2528 45.3738C56.712 45.1704 57.1979 45.0339 57.6957 44.9682C57.9322 44.9381 58.1707 44.9268 58.4089 44.9345C58.6433 44.942 58.8767 44.9688 59.1067 45.0146" stroke="#009688" stroke-width="0.447559" stroke-linecap="round" stroke-linejoin="round"/>
<path d="M54.4787 67.5316C53.7883 67.3792 53.1429 67.0678 52.5937 66.6219C52.0466 66.176 51.5783 65.6412 51.2083 65.0398" stroke="#009688" stroke-width="0.447559" stroke-linecap="round" stroke-linejoin="round"/>
<path d="M48.4337 48.8408C48.4343 48.8564 48.4189 48.8694 48.4084 48.8766C48.3958 48.8854 48.3823 48.8919 48.3682 48.8979C48.3401 48.9099 48.3112 48.9187 48.2817 48.9265" stroke="#009688" stroke-width="0.447559" stroke-linecap="round" stroke-linejoin="round"/>
<path d="M52.4922 61.7503C52.3079 60.7031 52.2315 59.6397 52.2645 58.5768C52.2949 57.5138 52.4184 56.4555 52.6333 55.414C52.7401 54.8935 52.8694 54.3778 53.0206 53.8684C53.0967 53.6123 53.1783 53.3582 53.2655 53.1057C53.352 52.8557 53.4439 52.608 53.5416 52.3622C53.9304 51.3726 54.4199 50.4258 55.0024 49.5366" stroke="#009688" stroke-width="0.447559" stroke-linecap="round" stroke-linejoin="round"/>
<path d="M54.0937 66.92C53.6647 66.6441 53.2775 66.3081 52.9439 65.922C52.5763 65.4964 52.2598 65.0291 52.0008 64.5297C51.7625 64.0728 51.5615 63.5973 51.3996 63.1079C51.2245 62.5796 51.0861 62.0398 50.9855 61.4923C50.938 61.2376 50.8981 60.9819 50.8649 60.7249C50.848 60.594 50.8329 60.4629 50.8195 60.3316C50.806 60.1988 50.7943 60.0658 50.7843 59.9327C50.7436 59.387 50.7304 58.8397 50.7447 58.2927C50.7583 57.7603 50.7958 57.2289 50.8572 56.6999C50.9192 56.164 51.0047 55.6311 51.1133 55.1027C51.2218 54.5741 51.3533 54.0506 51.5077 53.5336C51.5843 53.2772 51.6664 53.0228 51.7543 52.77C51.8413 52.5197 51.9338 52.2718 52.0321 52.0258C52.426 51.0285 52.9229 50.0751 53.5146 49.1812C53.594 49.0625 53.6752 48.9451 53.7585 48.8291C53.8404 48.715 53.9241 48.6024 54.0098 48.4911C54.1768 48.2743 54.3507 48.0639 54.5328 47.8597C54.8748 47.4738 55.2473 47.1163 55.6469 46.7906C56.0815 46.4345 56.5563 46.1308 57.0617 45.8856C57.5202 45.6631 58.0083 45.5077 58.5109 45.4243" stroke="#009688" stroke-width="0.447559" stroke-linecap="round" stroke-linejoin="round"/>
<path d="M53.8979 66.5735C53.7193 66.4198 53.5505 66.2551 53.3925 66.0802C53.3107 65.9899 53.2318 65.8974 53.1554 65.8024C53.0772 65.7053 53.002 65.606 52.9294 65.5046C52.6231 65.0724 52.3603 64.611 52.1448 64.1269C51.9451 63.6803 51.7773 63.2201 51.6425 62.7498C51.498 62.2465 51.3848 61.7348 51.3036 61.2175C51.1485 60.2166 51.0902 59.2031 51.1296 58.1909C51.1668 57.1788 51.2884 56.1716 51.4929 55.1798C51.5953 54.681 51.7182 54.1867 51.8614 53.6981C51.9325 53.4555 52.0085 53.2147 52.0897 52.9754C52.1701 52.7382 52.2555 52.5029 52.346 52.2693C52.7089 51.3238 53.162 50.4156 53.6991 49.5572C53.841 49.3325 53.989 49.1123 54.1441 48.8965C54.2945 48.6872 54.4508 48.4831 54.6143 48.2838C54.9234 47.9051 55.259 47.5487 55.6185 47.2174C56.0074 46.8578 56.431 46.5377 56.883 46.2617C57.2948 46.0102 57.7354 45.8091 58.1951 45.6628" stroke="#009688" stroke-width="0.447559" stroke-linecap="round" stroke-linejoin="round"/>
<path d="M53.5898 65.9516C53.4504 65.783 53.3205 65.6084 53.198 65.4271C53.0705 65.2382 52.9524 65.0443 52.8421 64.8448C52.6091 64.4202 52.4099 63.9779 52.2463 63.522C51.9351 62.6445 51.723 61.7349 51.6141 60.8102C51.5863 60.585 51.5637 60.3595 51.5461 60.1333C51.5282 59.9029 51.5155 59.6724 51.5076 59.4415C51.4996 59.2069 51.4967 58.9725 51.4987 58.7378C51.5007 58.5 51.5077 58.2626 51.5195 58.0252C51.5427 57.5626 51.5837 57.1011 51.6424 56.6417C51.7017 56.1778 51.7785 55.7163 51.8726 55.2582C51.9666 54.8 52.078 54.3457 52.2065 53.896C52.3335 53.4508 52.4777 53.0106 52.6388 52.5766C52.7215 52.3537 52.8088 52.1326 52.9007 51.9133C52.9914 51.6968 53.0865 51.4825 53.1863 51.27C53.2846 51.0609 53.3872 50.8541 53.4946 50.6494C53.6 50.4485 53.7097 50.2501 53.8241 50.0542C54.2886 49.2478 54.842 48.496 55.4739 47.8131C55.804 47.4589 56.1615 47.1314 56.5431 46.8335C56.7231 46.6938 56.9081 46.5623 57.0999 46.4393C57.1927 46.3797 57.2867 46.3224 57.3823 46.2673C57.4758 46.2134 57.5706 46.1618 57.6668 46.1125" stroke="#009688" stroke-width="0.447559" stroke-linecap="round" stroke-linejoin="round"/>
<path d="M51.0031 64.3787C50.7865 63.9431 50.602 63.4921 50.4511 63.0295C50.289 62.5333 50.1586 62.0273 50.061 61.5145C50.0147 61.2747 49.975 61.0341 49.9413 60.7922C49.9069 60.5446 49.8788 60.2965 49.8567 60.0476C49.8116 59.535 49.7906 59.0206 49.7939 58.5061C49.7969 58.0058 49.8209 57.5059 49.8659 57.0076C49.8885 56.7551 49.9164 56.5034 49.9494 56.2521C49.9826 55.9995 50.0208 55.7479 50.0642 55.4968C50.1503 54.9982 50.2564 54.5032 50.3821 54.0131C50.5069 53.5263 50.6514 53.0448 50.8152 52.5698C50.8992 52.3263 50.9883 52.0849 51.0828 51.8452C51.1761 51.6085 51.2745 51.3741 51.3782 51.1417C51.4803 50.9129 51.5874 50.6866 51.6998 50.4626C51.8102 50.2427 51.9255 50.0255 52.0462 49.8111C52.5356 48.9287 53.1265 48.1067 53.8068 47.3619C53.9896 47.1647 54.179 46.9751 54.377 46.7932C54.5669 46.6188 54.7629 46.4529 54.9672 46.2957C55.3483 45.9999 55.758 45.7429 56.1901 45.5286C56.6567 45.2961 57.1539 45.1312 57.6669 45.0389C58.1469 44.9536 58.6376 44.9477 59.1195 45.0213" stroke="#009688" stroke-width="0.447559" stroke-linecap="round" stroke-linejoin="round"/>
<path d="M48.1243 54.2394C48.2529 53.6509 48.4099 53.0689 48.5948 52.4956C48.7792 51.9221 48.993 51.3585 49.235 50.807C49.4768 50.2548 49.7498 49.7169 50.0527 49.1959C50.2068 48.9316 50.3687 48.6727 50.5395 48.4188C50.6229 48.2949 50.7082 48.1725 50.7958 48.0515C50.8818 47.9326 50.9698 47.8152 51.0599 47.6994C51.7857 46.734 52.6921 45.9191 53.7287 45.3001C54.2505 44.9978 54.8164 44.7789 55.4057 44.6515C55.9959 44.5253 56.6054 44.5197 57.1978 44.6351" stroke="#009688" stroke-width="0.447559" stroke-linecap="round" stroke-linejoin="round"/>
<path d="M52.5749 67.1248C52.2946 67.0649 52.021 66.9771 51.7582 66.8626C51.4891 66.7456 51.2317 66.6032 50.9895 66.4374C50.8738 66.3586 50.762 66.2752 50.6532 66.1872C50.5419 66.0971 50.4347 66.0029 50.3308 65.9043C50.2242 65.8033 50.1219 65.6985 50.0232 65.5898C49.9217 65.4781 49.8246 65.3631 49.7313 65.2446C49.0304 64.3153 48.5155 63.2591 48.2149 62.1342C48.1761 61.9981 48.1398 61.8614 48.1058 61.724C48.0712 61.5842 48.0391 61.4439 48.0092 61.303C47.948 61.0142 47.8966 60.7242 47.8541 60.432C47.8335 60.291 47.8151 60.1497 47.7986 60.0081C47.782 59.8647 47.7674 59.7212 47.7549 59.5774C47.7293 59.2847 47.712 58.9919 47.7025 58.6982C47.6932 58.4101 47.6914 58.1222 47.6968 57.8341C47.7022 57.5416 47.715 57.2497 47.7349 56.9579C47.7745 56.3787 47.8414 55.8017 47.9353 55.2288" stroke="#009688" stroke-width="0.447559" stroke-linecap="round" stroke-linejoin="round"/>
<path d="M53.1207 64.7382C52.7565 64.0241 52.477 63.2698 52.288 62.4906C52.1933 62.1095 52.1158 61.7243 52.0558 61.3361C52.0246 61.1359 51.9978 60.9352 51.9751 60.7338C51.952 60.5286 51.9333 60.3233 51.9185 60.1174C51.8627 59.3177 51.8642 58.515 51.9229 57.7156C51.9515 57.3171 51.9934 56.9206 52.0482 56.5249C52.1035 56.1263 52.1716 55.7305 52.2525 55.3363C52.4136 54.5511 52.6257 53.7773 52.8877 53.0198C52.9543 52.8274 53.0242 52.6363 53.0975 52.4463C53.1701 52.2582 53.2459 52.0714 53.3251 51.886C53.4804 51.5217 53.649 51.1632 53.8306 50.8113C54.1962 50.0979 54.6228 49.4174 55.1054 48.7776C55.3546 48.4487 55.6218 48.1339 55.9058 47.8346C56.1729 47.5527 56.4574 47.2878 56.7576 47.0415" stroke="#009688" stroke-width="0.447559" stroke-linecap="round" stroke-linejoin="round"/>
<path d="M54.2115 67.1115C53.9758 67.0003 53.7499 66.8691 53.5365 66.7194C53.3144 66.5637 53.1048 66.3907 52.9098 66.2021C52.49 65.7918 52.1269 65.327 51.8302 64.8203C51.558 64.3585 51.3277 63.8733 51.1422 63.3703C50.9399 62.8233 50.7792 62.2618 50.6616 61.6906C50.4389 60.5932 50.3386 59.4744 50.3625 58.3549C50.3721 57.7994 50.4079 57.2447 50.4697 56.6927C50.5009 56.4131 50.5385 56.1346 50.5825 55.8567C50.6266 55.5779 50.6771 55.3004 50.7339 55.0239C50.8472 54.4717 50.9857 53.925 51.1491 53.3856C51.2301 53.1183 51.3171 52.8532 51.4105 52.5899C51.5028 52.3295 51.6012 52.0717 51.7058 51.816C51.922 51.2861 52.1662 50.7682 52.4374 50.2644C52.5689 50.0206 52.7068 49.781 52.8519 49.5451C52.9932 49.3155 53.1407 49.0904 53.2955 48.8696C53.3815 48.7468 53.4696 48.6257 53.56 48.5061C53.6487 48.3887 53.7395 48.2729 53.8325 48.1589C54.0133 47.9373 54.2015 47.7232 54.3992 47.5164C54.768 47.1277 55.171 46.7729 55.6032 46.4563C56.0757 46.1081 56.5926 45.8247 57.1402 45.6139C57.2686 45.5655 57.3984 45.5221 57.5301 45.4837C57.6589 45.4462 57.7887 45.4138 57.9201 45.3868C58.0489 45.3602 58.1782 45.339 58.3088 45.3234C58.4372 45.3079 58.5657 45.298 58.695 45.2937" stroke="#009688" stroke-width="0.447559" stroke-linecap="round" stroke-linejoin="round"/>
<path d="M48.6701 51.6778C48.8423 51.2161 49.0343 50.7621 49.2457 50.317C49.3526 50.0922 49.4644 49.8701 49.5816 49.6506C49.6966 49.4353 49.8165 49.223 49.9418 49.0135C50.1939 48.5904 50.469 48.1815 50.7658 47.7885C50.8421 47.6879 50.9198 47.5885 50.9991 47.4903C51.0771 47.3936 51.1566 47.2983 51.2377 47.2042C51.396 47.0207 51.5596 46.8427 51.7299 46.6703C52.0749 46.3186 52.4481 45.9958 52.8458 45.7051C52.9489 45.6303 53.0535 45.5581 53.1602 45.4885C53.2644 45.4205 53.3702 45.3552 53.4778 45.2927C53.6864 45.1715 53.8997 45.0621 54.1204 44.9649C54.3501 44.8634 54.5863 44.7773 54.8275 44.7072C55.0591 44.6398 55.2953 44.5894 55.5343 44.5562C55.7802 44.5219 56.0286 44.508 56.2768 44.5145C56.5208 44.5208 56.7638 44.548 57.0032 44.5956" stroke="#009688" stroke-width="0.447559" stroke-linecap="round" stroke-linejoin="round"/>
<path d="M48.0944 53.5062C48.2365 52.9558 48.4041 52.4123 48.5966 51.8774" stroke="#009688" stroke-width="0.447559" stroke-linecap="round" stroke-linejoin="round"/>
<path d="M48.1681 52.6818C48.3103 52.1314 48.477 51.4525 48.7699 50.9622" stroke="#009688" stroke-width="0.447559" stroke-linecap="round" stroke-linejoin="round"/>
<path d="M47.7602 54.0226C47.8846 53.4787 48.0288 52.7735 48.3217 52.2832" stroke="#009688" stroke-width="0.447559" stroke-linecap="round" stroke-linejoin="round"/>
<path d="M52.3806 67.0832C52.0835 67.0195 51.7939 66.9247 51.5166 66.8003C51.3754 66.737 51.2384 66.667 51.1043 66.5898C50.9675 66.5112 50.8356 66.4262 50.7072 66.3346C50.2086 65.9723 49.7701 65.5335 49.4081 65.0343C48.696 64.0247 48.1874 62.8858 47.9107 61.6812C47.764 61.0825 47.6575 60.4745 47.5919 59.8615C47.5588 59.5583 47.535 59.2547 47.5197 58.9501C47.5041 58.6389 47.4973 58.3278 47.4991 58.0162C47.5029 57.4004 47.5386 56.7852 47.606 56.173C47.6394 55.867 47.6804 55.5624 47.7289 55.2584C47.7777 54.9534 47.8338 54.6499 47.8973 54.3477" stroke="#009688" stroke-width="0.447559" stroke-linecap="round" stroke-linejoin="round"/>
<path d="M48.1603 55.1068C48.2146 54.7922 48.2767 54.4796 48.3468 54.1682C48.4168 53.8573 48.4945 53.5487 48.5802 53.2418C48.6664 52.933 48.7604 52.6268 48.8626 52.3229C48.9637 52.0222 49.0724 51.7246 49.1893 51.4297C49.4236 50.8364 49.6921 50.2572 49.9934 49.695C50.0704 49.5515 50.1497 49.4093 50.2314 49.2684C50.3119 49.1295 50.3946 48.9919 50.4796 48.8558C50.6458 48.5896 50.8203 48.3297 51.0045 48.0758C51.7376 47.0284 52.6685 46.135 53.7447 45.446C54.2869 45.109 54.8797 44.8614 55.5004 44.7128C55.815 44.6399 56.1363 44.5994 56.4592 44.5921C56.7733 44.5853 57.0871 44.6127 57.3953 44.6738" stroke="#009688" stroke-width="0.447559" stroke-linecap="round" stroke-linejoin="round"/>
<path d="M52.772 67.1663C52.5095 67.1102 52.2528 67.0296 52.0053 66.9255C51.7526 66.8193 51.5099 66.6906 51.2801 66.541C50.8263 66.2423 50.4189 65.8782 50.0711 65.4606C49.3854 64.6155 48.8673 63.647 48.5447 62.6072C48.3766 62.0909 48.2428 61.564 48.1443 61.03C48.095 60.7664 48.0535 60.5018 48.0192 60.2358C48.0017 60.1003 47.9862 59.9646 47.9724 59.8287C47.9585 59.6912 47.9465 59.5535 47.9362 59.4157C47.8964 58.8744 47.8831 58.3314 47.8964 57.7888C47.9094 57.2459 47.9469 56.7038 48.0088 56.1643" stroke="#009688" stroke-width="0.447559" stroke-linecap="round" stroke-linejoin="round"/>
<path d="M52.2256 65.8518C52.5148 66.1511 52.8333 66.4207 53.1762 66.6564C53.5205 66.8904 53.8923 67.0807 54.2833 67.2231" stroke="#009688" stroke-width="0.447559" stroke-linecap="round" stroke-linejoin="round"/>
<path d="M54.4974 67.5363C54.2654 67.467 54.0384 67.3817 53.8182 67.281C53.708 67.2307 53.6 67.1767 53.4936 67.1189C53.3871 67.061 53.2829 66.9996 53.1806 66.9346C53.0783 66.8697 52.9786 66.8015 52.8808 66.7299C52.783 66.6583 52.6878 66.5838 52.5945 66.5064C52.5013 66.429 52.4105 66.3491 52.3216 66.2668C52.2328 66.1844 52.1462 66.0999 52.0613 66.0134" stroke="#009688" stroke-width="0.447559" stroke-linecap="round" stroke-linejoin="round"/>
<path d="M52.8148 63.6418C52.3568 62.3205 52.1077 60.9357 52.0764 59.5374C52.0652 59.1913 52.065 58.8457 52.0752 58.4996C52.0855 58.1475 52.1066 57.7966 52.1379 57.4458C52.2002 56.7505 52.3019 56.0593 52.4427 55.3756C52.5829 54.6917 52.762 54.0163 52.9789 53.3528C53.0885 53.0181 53.2075 52.6873 53.3368 52.3597C53.4639 52.0377 53.6004 51.7203 53.7471 51.4068C54.3272 50.1344 55.1023 48.9607 56.0443 47.928" stroke="#009688" stroke-width="0.447559" stroke-linecap="round" stroke-linejoin="round"/>
<path d="M48.8915 59.6195C48.8617 59.2162 48.8468 58.8119 48.8469 58.4074C48.8468 58.2015 48.8504 57.9957 48.8576 57.7899C48.8649 57.582 48.8758 57.3746 48.8903 57.1671C48.9188 56.7602 48.9609 56.3553 49.0162 55.9512C49.072 55.5441 49.1409 55.1399 49.2231 54.7373C49.3865 53.9353 49.6023 53.1449 49.8692 52.3713C49.9371 52.1748 50.0083 51.9796 50.0829 51.7857C50.1569 51.5935 50.2342 51.4028 50.315 51.2134C50.4733 50.8413 50.6453 50.4751 50.8306 50.1157C51.2037 49.387 51.6392 48.692 52.132 48.0384C52.2614 47.8683 52.3948 47.7018 52.5331 47.5389C52.6675 47.3805 52.8059 47.2261 52.949 47.0756C53.2218 46.7876 53.5122 46.517 53.8187 46.2654C53.9861 46.1285 54.158 45.9984 54.3356 45.8751C54.5067 45.7565 54.6817 45.6452 54.8624 45.5417C55.2032 45.3446 55.5622 45.1808 55.9343 45.0523C56.7086 44.7763 57.5423 44.7114 58.3499 44.8641" stroke="#009688" stroke-width="0.447559" stroke-linecap="round" stroke-linejoin="round"/>
<path d="M53.724 67.37C53.0281 67.2163 52.378 66.9014 51.8258 66.4504C51.2754 65.9991 50.8049 65.458 50.4343 64.85C49.7084 63.6236 49.2324 62.2654 49.0338 60.8538" stroke="#009688" stroke-width="0.447559" stroke-linecap="round" stroke-linejoin="round"/>
<path d="M48.6749 51.7834C48.6759 51.8068 48.6647 51.8267 48.649 51.8424C48.6336 51.8576 48.6132 51.8696 48.594 51.8789C48.5561 51.8974 48.5096 51.9118 48.4691 51.9224" stroke="#009688" stroke-width="0.447559" stroke-linecap="round" stroke-linejoin="round"/>
<path d="M83.156 7.44962C83.0887 7.34141 83.0027 7.24603 82.902 7.16793C82.8015 7.0892 82.6835 7.03587 82.5581 7.01245" stroke="#C2C2C2" stroke-width="0.447559" stroke-linecap="round" stroke-linejoin="round"/>
<path d="M70.6022 5.27773L71.226 5.11133" stroke="#C2C2C2" stroke-width="0.447559" stroke-linecap="round" stroke-linejoin="round"/>
<path d="M42.7266 52.2542V94.2873" stroke="#C2C2C2" stroke-width="0.447559" stroke-linecap="round" stroke-linejoin="round"/>
<path d="M71.4908 5.10106C71.4028 5.08542 71.3125 5.08911 71.2261 5.11188" stroke="#C2C2C2" stroke-width="0.447559" stroke-linecap="round" stroke-linejoin="round"/>
<path d="M82.5581 7.01269L71.4908 5.10156" stroke="#C2C2C2" stroke-width="0.447559" stroke-linecap="round" stroke-linejoin="round"/>
<path d="M61.9762 53.3011C61.9641 53.2977 61.9519 53.2946 61.9396 53.2917" stroke="#009688" stroke-width="0.447559" stroke-linecap="round" stroke-linejoin="round"/>
<path d="M61.1821 57.1529C61.1765 57.1521 61.171 57.1513 61.1654 57.1504" stroke="#009688" stroke-width="0.447559" stroke-linecap="round" stroke-linejoin="round"/>
<path d="M48.4258 48.6465L48.4338 48.8414" stroke="#009688" stroke-width="0.447559" stroke-linecap="round" stroke-linejoin="round"/>
<path d="M59.7928 54.2078C59.793 54.2084 59.7932 54.2091 59.7934 54.2097L59.7928 54.2078Z" stroke="#009688" stroke-width="0.447559" stroke-linecap="round" stroke-linejoin="round"/>
<path d="M47.1444 51.846C47.1387 51.6808 47.1331 51.5155 47.1275 51.3503" stroke="#009688" stroke-width="0.447559" stroke-linecap="round" stroke-linejoin="round"/>
<path d="M48.8465 55.7786C48.8453 55.7903 48.8434 55.8019 48.8408 55.8135" stroke="#009688" stroke-width="0.447559" stroke-linecap="round" stroke-linejoin="round"/>
<path d="M48.7489 54.1887C48.7483 54.1889 48.7477 54.1891 48.7471 54.1893L48.7489 54.1887Z" stroke="#009688" stroke-width="0.447559" stroke-linecap="round" stroke-linejoin="round"/>
<path d="M53.9125 67.4107C53.606 67.345 53.3076 67.2461 53.0225 67.1157C52.8811 67.0513 52.744 66.98 52.6099 66.9015C52.4731 66.8216 52.3411 66.7352 52.2128 66.6422C51.7077 66.2692 51.2651 65.818 50.9018 65.3056C50.1881 64.2702 49.6832 63.1053 49.4154 61.8762" stroke="#009688" stroke-width="0.447559" stroke-linecap="round" stroke-linejoin="round"/>
<path d="M53.5356 67.3295C52.7634 67.1573 52.0483 66.7892 51.459 66.2606C50.872 65.733 50.382 65.1062 50.0114 64.4089C49.823 64.063 49.6569 63.7053 49.5141 63.338C49.4433 63.157 49.3777 62.9744 49.3169 62.7898C49.2543 62.6 49.197 62.4089 49.1443 62.2162C48.9396 61.4549 48.8006 60.6774 48.7289 59.8923" stroke="#009688" stroke-width="0.447559" stroke-linecap="round" stroke-linejoin="round"/>
<path d="M48.6611 58.7062C48.6572 58.5134 48.6566 58.3208 48.6592 58.128C48.6618 57.9333 48.6677 57.7388 48.6768 57.5443C48.6952 57.1504 48.7265 56.7581 48.7704 56.3663C48.8578 55.5884 48.9934 54.8168 49.1766 54.0558C49.3589 53.2961 49.5893 52.5488 49.8663 51.8183C50.007 51.4482 50.1596 51.0838 50.3254 50.7243C50.4068 50.5478 50.4913 50.3728 50.5789 50.1993C50.6653 50.0283 50.7547 49.859 50.8474 49.6912C51.2233 49.0052 51.6575 48.3528 52.1451 47.7413C52.6309 47.1288 53.1864 46.5751 53.8003 46.0915C53.9631 45.9651 54.1301 45.8453 54.3023 45.732C54.4684 45.6228 54.6381 45.5208 54.8129 45.426C55.1436 45.2453 55.4905 45.0961 55.8491 44.9804C56.2285 44.858 56.6214 44.7819 57.0191 44.7541C57.4012 44.7279 57.7851 44.7523 58.1608 44.8267" stroke="#009688" stroke-width="0.447559" stroke-linecap="round" stroke-linejoin="round"/>
<path d="M49.1729 60.5502C49.1452 60.3432 49.122 60.1358 49.103 59.9277C49.0836 59.7161 49.0686 59.5043 49.0577 59.292C49.0467 59.0766 49.04 58.8611 49.0374 58.6454C49.0347 58.4269 49.0363 58.2086 49.042 57.9901C49.0531 57.565 49.0793 57.1405 49.1205 56.7172C49.1621 56.2887 49.2186 55.8618 49.2897 55.4372C49.4309 54.593 49.6293 53.7594 49.8837 52.9422C49.9483 52.7351 50.0164 52.5292 50.0883 52.3245C50.1596 52.1214 50.2344 51.9198 50.313 51.7194C50.4675 51.3252 50.6366 50.9369 50.82 50.5553C50.9154 50.3571 51.0146 50.161 51.1181 49.9668C51.2198 49.7761 51.3254 49.5876 51.4352 49.4014C51.6477 49.0399 51.8766 48.6882 52.1211 48.3475C52.6165 47.6487 53.1923 47.0108 53.8368 46.4469C54.1723 46.1561 54.5315 45.8936 54.9105 45.6624C55.2613 45.4483 55.6322 45.269 56.0178 45.1271C56.8214 44.8207 57.6939 44.7427 58.539 44.9015" stroke="#009688" stroke-width="0.447559" stroke-linecap="round" stroke-linejoin="round"/>
<path d="M43.8791 18.5945C43.6323 18.5588 43.2066 18.4646 42.961 18.4194" stroke="#C2C2C2" stroke-width="0.447559" stroke-linecap="round" stroke-linejoin="round"/>
<path d="M60.4452 56.4775L58.7296 56.1233" stroke="#009688" stroke-width="0.447559" stroke-linecap="round" stroke-linejoin="round"/>
<path d="M43.2458 0.556396L43.7725 0.641862" stroke="#C2C2C2" stroke-width="0.447559" stroke-linecap="round" stroke-linejoin="round"/>
<path d="M51.6551 65.2122C51.8076 65.3832 52.0654 65.6888 52.2256 65.8522" stroke="#009688" stroke-width="0.447559" stroke-linecap="round" stroke-linejoin="round"/>
<path d="M85.7646 8.09106C85.8693 8.16069 85.945 8.2662 85.9774 8.38778" stroke="#C2C2C2" stroke-width="0.447559" stroke-linecap="round" stroke-linejoin="round"/>
<path d="M51.4833 65.3657C51.6377 65.5389 51.8991 65.8482 52.0613 66.0136" stroke="#009688" stroke-width="0.447559" stroke-linecap="round" stroke-linejoin="round"/>
<path d="M44.0558 50.7405C44.0289 50.7337 44.0069 50.7263 43.9897 50.7185" stroke="#C2C2C2" stroke-width="0.447559" stroke-linecap="round" stroke-linejoin="round"/>
<path d="M44.001 50.8635C44.0341 50.8743 44.0619 50.8834 44.0843 50.891" stroke="#C2C2C2" stroke-width="0.447559" stroke-linecap="round" stroke-linejoin="round"/>
<path d="M43.8777 49.2318C43.9533 49.1043 44.0669 49.0036 44.2025 48.9441" stroke="#C2C2C2" stroke-width="0.447559" stroke-linecap="round" stroke-linejoin="round"/>
<path d="M43.8888 49.3861C43.9473 49.2391 44.0603 49.1204 44.2042 49.0549" stroke="#C2C2C2" stroke-width="0.447559" stroke-linecap="round" stroke-linejoin="round"/>
<path d="M48.3131 49C48.0278 49.4832 47.1035 51.782 47 52.1902" stroke="#009688" stroke-width="0.745714" stroke-linecap="square"/>
</svg>
