<svg width="87" height="99" viewBox="0 0 87 99" fill="none" xmlns="http://www.w3.org/2000/svg">
<path d="M83.7761 8.09085L83.8737 8.06396" stroke="#C2C2C2" stroke-width="0.455696" stroke-linecap="round" stroke-linejoin="round"/>
<path d="M83.1396 7.96924C83.1698 7.97485 83.2 7.98049 83.2302 7.98613C83.2689 7.99333 83.3076 8.00056 83.3463 8.00783C83.3835 8.0148 83.4207 8.02183 83.4579 8.02888C83.4942 8.03576 83.5305 8.04268 83.5668 8.04966C83.6026 8.05654 83.6385 8.06346 83.6743 8.07048C83.7085 8.07717 83.7428 8.08392 83.777 8.09077" stroke="#C2C2C2" stroke-width="0.455696" stroke-linecap="round" stroke-linejoin="round"/>
<path d="M63.7039 6.18018C70.2411 7.32324 76.7782 8.46635 83.3154 9.60943L83.7683 9.68862" stroke="#C2C2C2" stroke-width="0.455696" stroke-linecap="round" stroke-linejoin="round"/>
<path d="M36.5752 1.43652L36.8124 1.47799C42.5768 2.48595 48.3411 3.49391 54.1055 4.50187" stroke="#C2C2C2" stroke-width="0.455696" stroke-linecap="round" stroke-linejoin="round"/>
<path d="M47.5098 49.8489C47.5104 49.8658 47.5336 49.8774 47.545 49.8826C47.5607 49.8897 47.5768 49.8945 47.5933 49.8987C47.6264 49.9071 47.6598 49.9123 47.6936 49.9165" stroke="#00AE42" stroke-width="0.455696" stroke-linecap="round" stroke-linejoin="round"/>
<path d="M86 8.91919C85.7649 33.9808 85.5298 59.0425 85.2947 84.1042C85.2886 84.1635 85.2706 84.221 85.2418 84.2731C85.2129 84.3252 85.1738 84.3709 85.1268 84.4072C84.9232 84.5684 84.6959 84.6968 84.4532 84.7878C84.2198 84.8849 83.9635 84.9743 83.7252 85.0575C80.6893 86.1171 77.6534 87.1768 74.6176 88.2365C74.515 88.2835 74.4014 88.3003 74.2897 88.2852C74.1819 88.2533 74.0817 88.1997 73.9951 88.1278C73.7041 87.9189 73.4132 87.71 73.1222 87.501C72.9048 87.3116 72.6373 87.19 72.3524 87.1509C72.2094 87.1437 72.0662 87.1589 71.928 87.1961C71.7887 87.2305 71.6541 87.2774 71.5189 87.3243C70.3433 87.7324 57.0716 92.4875 55.8959 92.8956L55.3057 95.8674" stroke="#C2C2C2" stroke-width="0.455696" stroke-linecap="round" stroke-linejoin="round"/>
<path d="M58.9408 45.7824C58.4043 45.7689 57.8697 45.851 57.3616 46.0249C56.7962 46.2194 56.2615 46.4948 55.774 46.8427C55.3318 47.1558 54.9196 47.51 54.543 47.9006C54.3399 48.1095 54.1466 48.3263 53.961 48.5512C53.7675 48.7857 53.5839 49.0271 53.4085 49.2756C52.7571 50.2103 52.2127 51.2161 51.7858 52.2739C51.6793 52.5341 51.5793 52.7965 51.4854 53.0616C51.3904 53.3297 51.302 53.5997 51.2197 53.872C51.0535 54.4216 50.9128 54.9788 50.798 55.5416C50.7404 55.8237 50.6893 56.1068 50.6447 56.3912C50.6002 56.6747 50.5622 56.9587 50.5309 57.244C50.4687 57.8068 50.4333 58.3723 50.4248 58.9385C50.4026 60.079 50.5084 61.2185 50.7402 62.3351C50.8631 62.9188 51.0313 63.4919 51.2431 64.0492C51.2936 64.1807 51.3468 64.3111 51.403 64.4404C51.4578 64.5665 51.5153 64.6913 51.5758 64.8148C51.6925 65.0531 51.8193 65.2847 51.9586 65.5103C52.1206 65.774 52.3001 66.0262 52.4961 66.2653C52.68 66.4901 52.8808 66.7004 53.0967 66.8943C53.4952 67.2565 53.9543 67.5449 54.4526 67.7461" stroke="#00AE42" stroke-width="0.455696" stroke-linecap="round" stroke-linejoin="round"/>
<path d="M48.865 51.7407C49.2157 50.8623 49.6438 50.0171 50.1441 49.2154C50.6422 48.4118 51.2336 47.6706 51.9056 47.0076C52.5745 46.3393 53.3607 45.8017 54.2244 45.4223C55.0914 45.0395 56.0525 44.9272 56.9835 45.0999" stroke="#00AE42" stroke-width="0.455696" stroke-linecap="round" stroke-linejoin="round"/>
<path d="M83.8744 8.0627C83.9593 8.03958 84.0484 8.03674 84.1346 8.05439C84.4136 8.11158 84.7176 8.17958 84.9917 8.25884C85.1294 8.29868 85.2758 8.34603 85.4089 8.40026C85.5473 8.45076 85.6758 8.52522 85.7886 8.62028C85.8203 8.65121 85.8496 8.68812 85.8648 8.73123C85.8778 8.76837 85.8786 8.80573 85.8667 8.84332C85.856 8.87751 85.8363 8.90795 85.8135 8.93468C85.7828 8.97077 85.7451 9.00194 85.7068 9.02913C85.5674 9.11947 85.4178 9.19279 85.2612 9.24754C85.1059 9.30601 84.9481 9.35579 84.7892 9.40294C84.6302 9.45008 84.4704 9.49407 84.3106 9.53808C73.137 12.6162 61.9633 15.6944 50.7897 18.7725C50.6262 18.8176 50.4627 18.8625 50.2985 18.905C50.1523 18.9429 50.0056 18.9789 49.8583 19.0122C49.5451 19.083 49.2304 19.1414 48.9126 19.1875C48.7526 19.2107 48.5923 19.2308 48.4316 19.248C48.2736 19.265 48.1155 19.2791 47.9571 19.2907C47.7983 19.3023 47.6395 19.3113 47.4805 19.3179C47.3192 19.3246 47.1579 19.3288 46.9966 19.3306C46.6759 19.3342 46.3558 19.3284 46.0355 19.3139C45.8806 19.3069 45.726 19.2979 45.5713 19.2869C45.4062 19.2751 45.2412 19.2611 45.0764 19.2449C44.7572 19.2135 44.4394 19.1739 44.1221 19.1278" stroke="#C2C2C2" stroke-width="0.455696" stroke-linecap="round" stroke-linejoin="round"/>
<path d="M43.0291 28.2547L43.0411 18.9224" stroke="#C2C2C2" stroke-width="0.455696" stroke-linecap="round" stroke-linejoin="round"/>
<path d="M58.7578 59.4289C59.0329 59.0384 59.2514 58.6104 59.4069 58.1579C59.556 57.7316 59.657 57.2898 59.7081 56.8408" stroke="#00AE42" stroke-width="0.455696" stroke-linecap="round" stroke-linejoin="round"/>
<path d="M61.3932 57.7126C61.3927 57.7125 61.3922 57.7124 61.3917 57.7123C61.2315 57.6803 61.0854 57.5985 60.9737 57.4785C60.8625 57.3593 60.7745 57.22 60.7144 57.068C60.5929 56.752 60.5389 56.4138 60.5558 56.0755C60.5616 55.9058 60.5812 55.7394 60.6136 55.5729C60.646 55.4064 60.69 55.2448 60.7479 55.0853C60.8586 54.7654 61.0332 54.4717 61.2611 54.2224C61.3758 54.0987 61.5124 53.9975 61.6638 53.924C61.7307 53.8931 61.7986 53.87 61.8709 53.8558C61.9158 53.8471 61.9605 53.8422 62.0062 53.8414C62.0561 53.8406 62.1047 53.8447 62.1537 53.854C62.1576 53.8547 62.1614 53.8555 62.1653 53.8562C62.3228 53.891 62.4658 53.9738 62.5749 54.0932C62.6838 54.2119 62.7699 54.3498 62.8288 54.5001C62.8915 54.6564 62.9349 54.8199 62.9582 54.9868C62.9822 55.1536 62.991 55.3222 62.9843 55.4906C62.9814 55.5743 62.975 55.6576 62.9654 55.7409C62.9558 55.8251 62.9427 55.9087 62.9264 55.9919C62.8937 56.1579 62.8496 56.3191 62.7921 56.4782C62.6818 56.7973 62.5082 57.0905 62.2818 57.3399C62.1676 57.4636 62.0318 57.5653 61.8813 57.6398C61.8018 57.6772 61.7216 57.7031 61.6346 57.7158C61.553 57.7277 61.4746 57.7276 61.3932 57.7126Z" stroke="#00AE42" stroke-width="0.455696" stroke-linecap="round" stroke-linejoin="round"/>
<path d="M61.3871 57.7108C61.3635 57.7065 61.3398 57.7023 61.3161 57.6983C61.0932 57.6525 60.8973 57.52 60.7707 57.3297C60.6416 57.1437 60.5492 56.9344 60.4985 56.7132C60.4458 56.4929 60.4202 56.2669 60.4222 56.0403C60.4234 55.8139 60.4479 55.5882 60.4953 55.3668C60.5226 55.2725 60.5538 55.18 60.5895 55.0887C60.6252 54.9973 60.6648 54.9081 60.709 54.8206C60.7965 54.6453 60.9038 54.4807 61.0287 54.3302C61.1527 54.1784 61.3025 54.05 61.471 53.951C61.6393 53.8492 61.8363 53.8062 62.0314 53.8285C62.0489 53.8311 62.0664 53.8343 62.0838 53.8381C62.1072 53.8433 62.1307 53.8484 62.1543 53.8533" stroke="#00AE42" stroke-width="0.455696" stroke-linecap="round" stroke-linejoin="round"/>
<path d="M43.7923 1.13106C43.6915 1.05453 43.5736 1.00408 43.4489 0.984106C42.9075 0.903315 42.3631 0.84453 41.8171 0.807913C41.271 0.771752 40.7236 0.761973 40.1766 0.778615C39.903 0.787193 39.6301 0.802801 39.3574 0.826338C39.223 0.837918 39.0888 0.851452 38.9548 0.867046C38.817 0.883068 38.6795 0.901274 38.5423 0.921786C38.2715 0.962235 38.0027 1.01175 37.7351 1.0699C37.6097 1.09714 37.4847 1.12616 37.36 1.15646C37.2187 1.19079 37.0779 1.22675 36.937 1.26275C25.6002 4.16012 14.2635 7.05749 2.92685 9.95485C2.64075 10.028 2.32531 10.1084 2.04312 10.1966C1.90103 10.241 1.74908 10.2931 1.61171 10.3511C1.46872 10.4056 1.33581 10.4838 1.21851 10.5826" stroke="#C2C2C2" stroke-width="0.455696" stroke-linecap="round" stroke-linejoin="round"/>
<path d="M54.1047 4.95239L54.1087 3.78296" stroke="#C2C2C2" stroke-width="0.455696" stroke-linecap="round" stroke-linejoin="round"/>
<path d="M53.5491 3.68335L62.3576 5.21959" stroke="#C2C2C2" stroke-width="0.455696" stroke-linecap="round" stroke-linejoin="round"/>
<path d="M55.422 96.4233C53.8892 96.9604 52.3565 97.4976 50.8237 98.0348C50.4911 98.1514 50.1836 98.2575 49.8443 98.3538C49.6838 98.3994 49.5224 98.4412 49.3598 98.479C49.1874 98.5191 49.0142 98.5546 48.84 98.5857C48.163 98.7038 47.4773 98.7651 46.7902 98.7691C46.6184 98.7706 46.4468 98.7691 46.2751 98.7645C46.1033 98.7598 45.9317 98.7522 45.7602 98.7415C45.5874 98.7308 45.4149 98.717 45.2426 98.7003C45.0731 98.6839 44.9039 98.6647 44.735 98.6427C44.3941 98.5983 44.0555 98.5427 43.7178 98.4784C43.3803 98.4142 43.0448 98.3411 42.7093 98.2675C42.4605 98.2128 42.2118 98.1582 41.9632 98.1028C41.7146 98.0475 41.4661 97.9916 41.2178 97.935C40.9695 97.8784 40.7213 97.8212 40.4733 97.7634C40.2252 97.7056 39.9773 97.6472 39.7294 97.5888C28.6336 94.9729 17.5378 92.3569 6.44199 89.741C6.21122 89.6866 5.98045 89.6322 5.74981 89.5772C5.51918 89.5222 5.28867 89.4667 5.05831 89.4105C4.82796 89.3543 4.59778 89.2974 4.36776 89.24C4.13772 89.1825 3.90786 89.1244 3.67803 89.0661C3.25048 88.9637 2.82703 88.8447 2.40861 88.7094C2.19961 88.6408 1.99618 88.5561 1.80012 88.456C1.5956 88.3707 1.42923 88.2129 1.33252 88.0124L1.20288 87.5295C1.19139 87.484 1.18953 87.4366 1.19743 87.3904C1.20534 87.3442 1.22282 87.3002 1.24875 87.2612C1.35343 87.0888 1.45809 86.9165 1.56275 86.7441" stroke="#C2C2C2" stroke-width="0.455696" stroke-linecap="round" stroke-linejoin="round"/>
<path d="M5.46802 40.814L5.47381 41.809" stroke="#C2C2C2" stroke-width="0.455696" stroke-linecap="round" stroke-linejoin="round"/>
<path d="M44.3254 51.437L44.4831 51.4898" stroke="#C2C2C2" stroke-width="0.455696" stroke-linecap="round" stroke-linejoin="round"/>
<path d="M44.2426 51.4095L40.5279 50.6452C40.4216 50.6202 40.3284 50.5562 40.2664 50.4656C40.2039 50.3766 40.1593 50.2759 40.1354 50.1695C40.0883 49.9564 40.0897 49.7352 40.1395 49.5227C40.1427 49.5086 40.1458 49.4946 40.1489 49.4805C40.1528 49.4668 40.1567 49.453 40.1605 49.4392C40.2101 49.2531 40.2991 49.08 40.4213 48.9317C40.4829 48.858 40.558 48.7971 40.6425 48.7521C40.7273 48.7063 40.825 48.6907 40.9196 48.7081C42.0938 48.9482 43.268 49.1882 44.4422 49.4283" stroke="#C2C2C2" stroke-width="0.455696" stroke-linecap="round" stroke-linejoin="round"/>
<path d="M45.0107 51.6702C45.4223 51.8102 45.8338 51.9503 46.2454 52.0904C46.3374 52.1217 46.4243 52.1612 46.5087 52.2095C46.6542 52.2933 46.7869 52.3978 46.9026 52.5199C46.9605 52.5803 47.0184 52.6407 47.0763 52.7011" stroke="#C2C2C2" stroke-width="0.455696" stroke-linecap="round" stroke-linejoin="round"/>
<path d="M46.9973 51.4138C46.9681 51.446 46.9369 51.4756 46.9032 51.5029C46.9008 51.5049 46.8985 51.5068 46.8961 51.5087C46.7965 51.5879 46.6806 51.6438 46.5568 51.6723C46.5535 51.673 46.5501 51.6738 46.5467 51.6745C46.4315 51.6995 46.3125 51.7002 46.1971 51.6767C46.1967 51.6766 46.1964 51.6765 46.196 51.6764C45.799 51.5948 45.4021 51.5132 45.0051 51.4315" stroke="#C2C2C2" stroke-width="0.455696" stroke-linecap="round" stroke-linejoin="round"/>
<path d="M44.9695 49.6711C45.4919 49.778 46.0143 49.8849 46.5367 49.9917C46.645 50.0139 46.7481 50.057 46.8401 50.1188C46.9322 50.1805 47.0114 50.2597 47.0735 50.3519C47.1125 50.4098 47.1434 50.4704 47.1675 50.5361" stroke="#C2C2C2" stroke-width="0.455696" stroke-linecap="round" stroke-linejoin="round"/>
<path d="M44.9683 49.574L45.6633 49.8121" stroke="#C2C2C2" stroke-width="0.455696" stroke-linecap="round" stroke-linejoin="round"/>
<path d="M44.4791 51.324L44.2971 51.2854" stroke="#C2C2C2" stroke-width="0.455696" stroke-linecap="round" stroke-linejoin="round"/>
<path d="M44.5289 52.9801C44.5045 52.9744 44.48 52.9686 44.4555 52.9628C43.9803 52.8505 43.6097 52.7661 43.1332 52.6598C43.0648 52.6445 42.9963 52.6299 42.9279 52.6147C42.8595 52.5995 42.7911 52.5844 42.7226 52.5693C42.4013 52.4986 42.0795 52.4298 41.7577 52.3613C41.4359 52.2927 41.114 52.2247 40.792 52.1572" stroke="#C2C2C2" stroke-width="0.455696" stroke-linecap="round" stroke-linejoin="round"/>
<path d="M46.8342 53.5622C46.8247 53.5596 46.8152 53.5571 46.8057 53.5545C46.5152 53.4765 46.2241 53.4004 45.9326 53.326C45.6411 53.2516 45.3492 53.1788 45.0569 53.1077" stroke="#C2C2C2" stroke-width="0.455696" stroke-linecap="round" stroke-linejoin="round"/>
<path d="M47.6794 49.3343C47.59 46.8846 47.4759 44.436 47.3372 41.9887C47.1895 39.5419 46.9726 37.0997 46.6865 34.6653C46.4377 32.2251 45.9853 29.8103 45.3342 27.4464C44.6346 25.0494 43.5998 22.6531 41.103 21.8247" stroke="#00AE42" stroke-width="0.455696" stroke-linecap="round" stroke-linejoin="round"/>
<path d="M40.9748 21.7267C40.9556 21.6733 40.9473 21.6165 40.9503 21.5597C40.9533 21.503 40.9676 21.4474 40.9923 21.3963C41.0169 21.3452 41.0516 21.2996 41.094 21.2622C41.1365 21.2247 41.1861 21.1963 41.2397 21.1785C41.2904 21.1915 41.3388 21.2091 41.3862 21.2315C41.3959 21.2361 41.4057 21.2407 41.4155 21.2454C41.4577 21.2654 41.4999 21.2854 41.5421 21.3053C41.6313 21.3475 41.7204 21.3896 41.8092 21.4323C41.9352 21.4928 42.0605 21.5545 42.1843 21.6192C42.3127 21.6863 42.4392 21.7565 42.5635 21.8311C42.6929 21.9089 42.8192 21.9911 42.9422 22.0788C43.0713 22.1707 43.1956 22.2679 43.316 22.371C43.4298 22.4685 43.539 22.5704 43.6443 22.6772C43.6566 22.6896 43.6688 22.7021 43.681 22.7147C43.805 22.8427 43.9222 22.976 44.0341 23.1148C44.154 23.2634 44.2665 23.4168 44.3735 23.5751C44.4885 23.7454 44.5961 23.9198 44.698 24.0984C44.8079 24.2911 44.9104 24.4873 45.0073 24.687C45.1119 24.9025 45.2094 25.1209 45.3013 25.3422C45.4005 25.5806 45.4929 25.8214 45.58 26.0646C45.6686 26.3116 45.7516 26.5604 45.83 26.8108C45.9137 27.078 45.9922 27.3465 46.0665 27.6164C46.1499 27.9196 46.2279 28.224 46.3016 28.5297C46.3796 28.8537 46.4528 29.1787 46.5218 29.5048C46.5947 29.8487 46.663 30.1934 46.7276 30.5389C46.7953 30.9012 46.8589 31.2643 46.9191 31.628C46.9818 32.0074 47.0408 32.3874 47.0966 32.7679C47.1545 33.1627 47.2089 33.5579 47.2605 33.9536C47.3137 34.3621 47.3637 34.771 47.4111 35.1802C47.4598 35.6005 47.5056 36.021 47.5489 36.4418C47.5932 36.872 47.6349 37.3024 47.6743 37.733C47.7144 38.1711 47.7521 38.6093 47.7877 39.0477C47.8237 39.4917 47.8576 39.9358 47.8895 40.38C47.954 41.2774 48.0104 42.1752 48.06 43.0735C48.0719 43.289 48.0835 43.5046 48.0946 43.7202C48.0957 43.7416 48.0968 43.763 48.0979 43.7844C48.1001 43.8276 48.1023 43.8708 48.1045 43.914C48.1143 44.1095 48.1238 44.305 48.1329 44.5005C48.1439 44.7339 48.1545 44.9674 48.1649 45.2009C48.1765 45.4602 48.1878 45.7195 48.1989 45.9789C48.21 46.2352 48.2209 46.4915 48.2317 46.7478C48.2414 46.9794 48.2511 47.2111 48.2606 47.4428C48.2688 47.6418 48.2769 47.8408 48.285 48.0399C48.3022 48.4626 48.3193 48.8852 48.3364 49.3079" stroke="#00AE42" stroke-width="0.455696" stroke-linecap="round" stroke-linejoin="round"/>
<path d="M40.6268 27.4908C40.505 27.4328 40.383 27.3751 40.2611 27.3173C40.2423 27.3082 40.2238 27.2985 40.2059 27.2876C40.188 27.2768 40.1708 27.265 40.1541 27.2523C40.1206 27.2267 40.0907 27.1981 40.0633 27.166C39.9518 27.0312 39.8919 26.8606 39.8947 26.6852C39.8958 26.4991 39.955 26.3182 40.064 26.1679C40.122 26.0873 40.194 26.018 40.2767 25.9634C40.3594 25.909 40.4503 25.8685 40.5459 25.8433C40.568 25.8375 40.6157 25.8244 40.6353 25.8101C40.639 25.8074 40.6422 25.8047 40.6442 25.8004C40.6488 25.7908 40.6401 25.7833 40.6332 25.7788C40.6256 25.7739 40.6175 25.7707 40.6091 25.7678C40.5922 25.762 40.5749 25.7585 40.5574 25.7555C40.0498 25.6704 39.5423 25.5852 39.0348 25.5001C38.9949 25.4934 38.9616 25.4884 38.9208 25.4891C38.8819 25.4898 38.8449 25.4957 38.8078 25.5069C38.7309 25.5298 38.6616 25.5733 38.6073 25.6327C38.4874 25.7748 38.4243 25.9566 38.43 26.1429C38.4305 26.3485 38.4921 26.5492 38.6068 26.7192C38.6568 26.7929 38.7193 26.8572 38.7915 26.909C38.8279 26.9351 38.8656 26.9571 38.9068 26.9745C38.9515 26.9935 38.9868 27.0018 39.034 27.0115C39.2179 27.0494 39.4018 27.0873 39.5857 27.1252C39.7696 27.1632 39.9535 27.2011 40.1374 27.239" stroke="#C2C2C2" stroke-width="0.455696" stroke-linecap="round" stroke-linejoin="round"/>
<path d="M3.9248 86.21L42.858 95.3142C42.8729 95.3176 42.8976 95.3178 42.9125 95.3127C42.9153 95.3117 42.9181 95.3108 42.9209 95.3098" stroke="#C2C2C2" stroke-width="0.455696" stroke-linecap="round" stroke-linejoin="round"/>
<path d="M44.2428 51.4097C44.2372 51.4078 44.2316 51.4059 44.2259 51.404C44.1281 51.3675 44.0457 51.2982 43.9928 51.2076C43.9392 51.1182 43.9026 51.0196 43.8848 50.9167C43.8657 50.8149 43.8607 50.709 43.8665 50.6058C43.8724 50.501 43.8888 50.3994 43.9152 50.2979C43.9188 50.2839 43.9225 50.2699 43.9261 50.2559C43.9295 50.242 43.9329 50.2281 43.9363 50.2142C43.9689 50.0766 44.0218 49.9446 44.0933 49.8228L44.1203 49.7778" stroke="#C2C2C2" stroke-width="0.455696" stroke-linecap="round" stroke-linejoin="round"/>
<path d="M44.2313 51.2631C44.1764 51.2337 44.1277 51.1936 44.0882 51.1453C44.0487 51.0969 44.0191 51.0411 44.001 50.9812C43.9611 50.8624 43.9436 50.7372 43.9496 50.612C43.953 50.5113 43.9678 50.4142 43.9931 50.3168C43.9962 50.3047 43.9994 50.2926 44.0025 50.2804C44.0055 50.2684 44.0084 50.2563 44.0113 50.2443C44.0339 50.1518 44.0647 50.0641 44.1071 49.9788C44.1152 49.9627 44.1232 49.9466 44.1312 49.9304" stroke="#C2C2C2" stroke-width="0.455696" stroke-linecap="round" stroke-linejoin="round"/>
<path d="M18.3532 56.7413C18.3755 56.734 18.396 56.7223 18.4136 56.7069C18.4313 56.6914 18.4457 56.6726 18.456 56.6514C18.4778 56.6099 18.4869 56.5618 18.4867 56.5155C18.4695 51.4085 18.4523 46.3015 18.4351 41.1944C18.4346 41.1248 18.4151 41.0568 18.3786 40.9976C18.3615 40.9676 18.3386 40.9413 18.3113 40.9202C18.2839 40.8992 18.2526 40.8839 18.2193 40.8752C14.0346 40.0281 9.84983 39.1811 5.66509 38.3341C5.64053 38.3292 5.61546 38.3296 5.59122 38.3365C5.56854 38.3435 5.54753 38.3552 5.52949 38.3707C5.51146 38.3863 5.49678 38.4054 5.48637 38.4269C5.46419 38.4691 5.45506 38.518 5.45533 38.5649C5.45762 38.9591 5.45992 39.3533 5.46222 39.7474" stroke="#C2C2C2" stroke-width="0.455696" stroke-linecap="round" stroke-linejoin="round"/>
<path d="M5.48071 42.9121L5.48628 43.8697" stroke="#C2C2C2" stroke-width="0.455696" stroke-linecap="round" stroke-linejoin="round"/>
<path d="M5.49268 45.0093L5.49804 45.9295" stroke="#C2C2C2" stroke-width="0.455696" stroke-linecap="round" stroke-linejoin="round"/>
<path d="M5.52905 51.3052L5.53376 52.1131" stroke="#C2C2C2" stroke-width="0.455696" stroke-linecap="round" stroke-linejoin="round"/>
<path d="M5.5415 53.4016C5.54226 53.53 5.54301 53.6583 5.54376 53.7867C5.54393 53.8167 5.55429 53.8458 5.57312 53.869C5.60396 53.9072 5.63478 53.9453 5.66561 53.9834C5.69852 54.0267 5.74501 54.0575 5.79752 54.0709C9.96988 54.9581 14.1422 55.8452 18.3146 56.7324C18.3343 56.7366 18.3533 56.7375 18.3733 56.7344" stroke="#C2C2C2" stroke-width="0.455696" stroke-linecap="round" stroke-linejoin="round"/>
<path d="M5.896 51.4069C9.96107 52.2309 14.0261 53.0549 18.0912 53.8789C18.1067 53.882 18.1192 53.8937 18.1272 53.9063C18.1354 53.9194 18.14 53.935 18.1402 53.9505C18.1404 53.9648 18.1406 53.9792 18.1408 53.9935C18.1323 54.0192 18.1238 54.045 18.1153 54.0708C17.918 54.648 17.7208 55.2252 17.5235 55.8025C17.5166 55.8128 17.5087 55.8207 17.4978 55.8268C17.4873 55.8328 17.476 55.8358 17.4637 55.8333C13.3643 54.9969 9.26505 54.1604 5.16574 53.324C5.16189 53.3232 5.15834 53.322 5.15488 53.3201C5.13863 53.311 5.13317 53.2917 5.13414 53.2748C5.3383 52.6809 5.54245 52.0869 5.7466 51.4929C5.75695 51.4628 5.77779 51.4375 5.80526 51.4217C5.83274 51.4059 5.86498 51.4006 5.896 51.4069Z" stroke="#C2C2C2" stroke-width="0.455696" stroke-linecap="round" stroke-linejoin="round"/>
<path d="M41.5331 21.9897C41.5222 21.998 41.5113 22.0063 41.5004 22.0146C41.4145 22.0811 41.3123 22.123 41.2046 22.1357" stroke="#C2C2C2" stroke-width="0.455696" stroke-linecap="round" stroke-linejoin="round"/>
<path d="M5.89625 47.216C9.96131 48.04 14.0264 48.8639 18.0915 49.6879C18.1069 49.6911 18.1195 49.7028 18.1274 49.7154C18.1357 49.7285 18.1403 49.7441 18.1405 49.7596C18.1407 49.7739 18.1409 49.7882 18.1411 49.8025C18.1326 49.8283 18.1241 49.8541 18.1156 49.8798C17.9183 50.4571 17.721 51.0343 17.5237 51.6115C17.5168 51.6218 17.509 51.6298 17.4981 51.6359C17.4875 51.6418 17.4762 51.6449 17.4639 51.6424C13.3646 50.806 9.26529 49.9695 5.16598 49.1331C5.16214 49.1323 5.15858 49.1311 5.15513 49.1291C5.13888 49.1201 5.13341 49.1008 5.13439 49.0839C5.33854 48.4899 5.54269 47.896 5.74685 47.302C5.7572 47.2719 5.77804 47.2466 5.80551 47.2307C5.83299 47.2149 5.86522 47.2097 5.89625 47.216Z" stroke="#C2C2C2" stroke-width="0.455696" stroke-linecap="round" stroke-linejoin="round"/>
<path d="M5.89625 45.1227C9.96131 45.9467 14.0264 46.7707 18.0915 47.5947C18.1069 47.5978 18.1195 47.6095 18.1274 47.6221C18.1357 47.6353 18.1403 47.6508 18.1405 47.6664C18.1407 47.6807 18.1409 47.695 18.1411 47.7093L18.1156 47.7866C17.9183 48.3638 17.721 48.9411 17.5237 49.5183C17.5168 49.5286 17.509 49.5366 17.4981 49.5427C17.4875 49.5486 17.4762 49.5517 17.4639 49.5492C13.3646 48.7127 9.26529 47.8763 5.16598 47.0398C5.16214 47.039 5.15858 47.0378 5.15513 47.0359C5.13888 47.0268 5.13341 47.0075 5.13439 46.9907C5.33854 46.3967 5.54269 45.8027 5.74685 45.2087C5.7572 45.1786 5.77803 45.1533 5.80551 45.1375C5.83298 45.1217 5.86522 45.1164 5.89625 45.1227Z" stroke="#C2C2C2" stroke-width="0.455696" stroke-linecap="round" stroke-linejoin="round"/>
<path d="M5.896 43.0258C9.96107 43.8498 14.0261 44.6738 18.0912 45.4977C18.1067 45.5009 18.1192 45.5126 18.1272 45.5252C18.1354 45.5383 18.14 45.5539 18.1402 45.5694C18.1404 45.5837 18.1406 45.598 18.1408 45.6123C18.1323 45.6381 18.1238 45.6639 18.1153 45.6897C17.918 46.2669 17.7208 46.8441 17.5235 47.4214C17.5166 47.4317 17.5087 47.4396 17.4978 47.4457C17.4873 47.4517 17.476 47.4547 17.4637 47.4522C13.3643 46.6158 9.26505 45.7793 5.16574 44.9429C5.16189 44.9421 5.15834 44.9409 5.15488 44.939C5.13863 44.9299 5.13317 44.9106 5.13414 44.8937C5.3383 44.2998 5.54245 43.7058 5.7466 43.1118C5.75695 43.0817 5.77779 43.0564 5.80526 43.0406C5.83274 43.0248 5.86498 43.0195 5.896 43.0258Z" stroke="#C2C2C2" stroke-width="0.455696" stroke-linecap="round" stroke-linejoin="round"/>
<path d="M5.89625 40.9303C9.96131 41.7543 14.0264 42.5783 18.0915 43.4023C18.1069 43.4054 18.1195 43.4171 18.1274 43.4298C18.1357 43.4429 18.1403 43.4585 18.1405 43.474C18.1407 43.4883 18.1409 43.5026 18.1411 43.5169L18.1156 43.5942C17.9183 44.1714 17.721 44.7487 17.5237 45.3259C17.5168 45.3362 17.509 45.3441 17.4981 45.3502C17.4875 45.3562 17.4762 45.3593 17.4639 45.3568C13.3646 44.5203 9.26529 43.6839 5.16598 42.8474C5.16214 42.8467 5.15858 42.8454 5.15513 42.8435C5.13888 42.8344 5.13341 42.8152 5.13439 42.7982C5.33854 42.2043 5.54269 41.6103 5.74685 41.0163C5.7572 40.9862 5.77804 40.9609 5.80551 40.9451C5.83299 40.9293 5.86522 40.924 5.89625 40.9303Z" stroke="#C2C2C2" stroke-width="0.455696" stroke-linecap="round" stroke-linejoin="round"/>
<path d="M5.89625 38.8341C9.96131 39.6581 14.0264 40.4821 18.0915 41.3061C18.1069 41.3092 18.1195 41.3209 18.1274 41.3336C18.1357 41.3467 18.1403 41.3623 18.1405 41.3778C18.1407 41.3921 18.1409 41.4064 18.1411 41.4207C18.1326 41.4465 18.1241 41.4723 18.1156 41.498C17.9183 42.0753 17.721 42.6525 17.5237 43.2297C17.5168 43.24 17.509 43.248 17.4981 43.2541C17.4875 43.26 17.4762 43.2631 17.4639 43.2606C13.3646 42.4241 9.26529 41.5877 5.16598 40.7513C5.16214 40.7505 5.15858 40.7492 5.15513 40.7473C5.13888 40.7383 5.13341 40.719 5.13439 40.7021C5.33854 40.1081 5.54269 39.5141 5.74685 38.9202C5.75719 38.8901 5.77803 38.8647 5.80551 38.8489C5.83298 38.8331 5.86522 38.8278 5.89625 38.8341Z" stroke="#C2C2C2" stroke-width="0.455696" stroke-linecap="round" stroke-linejoin="round"/>
<path d="M43.4915 1.08345C43.4273 1.05394 43.3623 1.03408 43.2924 1.02393C43.1157 0.998272 42.9388 0.974382 42.7617 0.952809C42.5844 0.931224 42.4069 0.912033 42.2291 0.895463C41.873 0.862298 41.5168 0.839888 41.1594 0.829285C40.4452 0.805828 39.7304 0.835626 39.0206 0.918416C38.9627 0.925408 38.9049 0.932779 38.8471 0.940625C38.5565 0.979976 38.2683 1.03011 37.9812 1.09078C37.6827 1.1539 37.4218 1.22004 37.1263 1.29557C25.7902 4.19364 14.4541 7.09173 3.11794 9.98982C2.81733 10.0667 2.46785 10.1557 2.17232 10.252C2.02346 10.3005 1.85633 10.361 1.71524 10.4305C1.64331 10.4659 1.56908 10.5076 1.50604 10.5584C1.47082 10.5867 1.43616 10.6203 1.4119 10.6595C1.39298 10.6901 1.38056 10.724 1.38112 10.7609C1.38178 10.8027 1.39884 10.8399 1.42251 10.8724C1.45436 10.916 1.49862 10.9523 1.54224 10.9823C1.57796 11.0069 1.61516 11.0285 1.65349 11.0485C1.69901 11.0724 1.74551 11.0937 1.79279 11.1136C1.95988 11.1841 2.15569 11.2439 2.32999 11.2913C2.69537 11.3858 3.0637 11.4684 3.43437 11.539C3.47409 11.5492 3.50848 11.5742 3.53066 11.6089C3.55379 11.6421 3.56854 11.6821 3.57408 11.7221" stroke="#C2C2C2" stroke-width="0.455696" stroke-linecap="round" stroke-linejoin="round"/>
<path d="M41.6489 22.1401C41.658 22.1395 41.6632 22.1291 41.6657 22.1223C41.6687 22.114 41.67 22.1057 41.6706 22.097C41.6716 22.0821 41.6727 22.0673 41.6737 22.0525" stroke="#C2C2C2" stroke-width="0.455696" stroke-linecap="round" stroke-linejoin="round"/>
<path d="M41.5315 27.3633C41.5213 27.3712 41.5112 27.3791 41.501 27.387C41.414 27.456 41.3099 27.4995 41.2 27.5127" stroke="#C2C2C2" stroke-width="0.455696" stroke-linecap="round" stroke-linejoin="round"/>
<path d="M44.0254 1.16895L83.1388 7.96924" stroke="#C2C2C2" stroke-width="0.455696" stroke-linecap="round" stroke-linejoin="round"/>
<path d="M83.1396 7.96924C83.14 7.96934 83.1404 7.96944 83.1408 7.9695" stroke="#C2C2C2" stroke-width="0.455696" stroke-linecap="round" stroke-linejoin="round"/>
<path d="M44.0254 1.16895C44.0257 1.16905 44.0261 1.16908 44.0264 1.16913" stroke="#C2C2C2" stroke-width="0.455696" stroke-linecap="round" stroke-linejoin="round"/>
<path d="M83.1287 7.97022C83.1326 7.96917 83.1363 7.96895 83.1403 7.96962L83.1287 7.97022Z" stroke="#C2C2C2" stroke-width="0.455696" stroke-linecap="round" stroke-linejoin="round"/>
<path d="M44.0156 1.16874C44.0196 1.16769 44.0234 1.16743 44.0275 1.16808L44.0156 1.16874Z" stroke="#C2C2C2" stroke-width="0.455696" stroke-linecap="round" stroke-linejoin="round"/>
<path d="M40.2293 21.9158C39.8324 21.834 39.4356 21.7521 39.0388 21.6702C38.8715 21.6287 38.7246 21.5281 38.6248 21.3867C38.5224 21.2483 38.4548 21.087 38.4279 20.9165C38.3981 20.7463 38.415 20.5712 38.4766 20.4099C38.5056 20.3288 38.5529 20.2556 38.6147 20.196C38.6766 20.1364 38.7513 20.092 38.833 20.0664" stroke="#C2C2C2" stroke-width="0.455696" stroke-linecap="round" stroke-linejoin="round"/>
<path d="M41.6489 22.1396C41.4448 22.1539 41.2407 22.1682 41.0367 22.1825C40.8996 22.1924 40.7623 22.1675 40.6372 22.1104" stroke="#C2C2C2" stroke-width="0.455696" stroke-linecap="round" stroke-linejoin="round"/>
<path d="M40.6371 22.1111C40.5153 22.0531 40.3933 21.9955 40.2714 21.9377C40.2526 21.9285 40.2341 21.9189 40.2162 21.908C40.1983 21.8971 40.1811 21.8854 40.1644 21.8727C40.1308 21.847 40.101 21.8185 40.0735 21.7863C39.962 21.6515 39.9022 21.481 39.9049 21.3055C39.9061 21.1195 39.9653 20.9385 40.0742 20.7882C40.1322 20.7076 40.2043 20.6383 40.2869 20.5837C40.3697 20.5294 40.4606 20.4888 40.5562 20.4637C40.5783 20.4578 40.6259 20.4447 40.6456 20.4304C40.6492 20.4278 40.6524 20.4251 40.6544 20.4208C40.6591 20.4111 40.6504 20.4037 40.6435 20.3992C40.6359 20.3942 40.6278 20.391 40.6193 20.3881C40.6024 20.3823 40.5852 20.3788 40.5676 20.3759C40.0601 20.2907 39.5526 20.2056 39.0451 20.1205C39.0052 20.1138 38.9718 20.1087 38.931 20.1094C38.8922 20.1101 38.8552 20.1161 38.818 20.1273C38.7411 20.1501 38.6718 20.1936 38.6175 20.253C38.4977 20.3951 38.4346 20.5769 38.4403 20.7633C38.4408 20.9688 38.5023 21.1695 38.617 21.3396C38.667 21.4133 38.7296 21.4776 38.8017 21.5294C38.8381 21.5554 38.8758 21.5774 38.9171 21.5949C38.9618 21.6138 38.9971 21.6221 39.0443 21.6319C39.2282 21.6698 39.4121 21.7077 39.596 21.7456C39.7799 21.7835 39.9637 21.8214 40.1476 21.8594" stroke="#C2C2C2" stroke-width="0.455696" stroke-linecap="round" stroke-linejoin="round"/>
<path d="M40.296 27.1912C40.2287 27.1586 40.1615 27.1261 40.0942 27.0935C40.0825 27.0879 40.0684 27.0707 40.0613 27.0609C40.052 27.0482 40.0443 27.035 40.0383 27.0204C39.9993 26.925 39.98 26.8227 39.9815 26.7196C39.9824 26.6165 40.0018 26.5145 40.0387 26.4184C40.0433 26.4064 40.0491 26.3957 40.0572 26.3857C40.0637 26.3776 40.0756 26.3658 40.0876 26.3653C40.0902 26.3651 40.0924 26.3655 40.0948 26.3666C40.1621 26.3991 40.2293 26.4316 40.2966 26.464C40.3093 26.4702 40.3084 26.4921 40.3074 26.5024C40.306 26.5167 40.3025 26.53 40.2976 26.5433C40.2615 26.6397 40.2426 26.7417 40.2417 26.8447C40.2401 26.9477 40.2589 27.05 40.2971 27.1456C40.3007 27.1545 40.3039 27.1635 40.306 27.173C40.307 27.1777 40.308 27.1823 40.3071 27.1873C40.3058 27.1938 40.3011 27.1936 40.296 27.1912Z" stroke="#C2C2C2" stroke-width="0.455696" stroke-linecap="round" stroke-linejoin="round"/>
<path d="M40.0427 21.0364C40.0472 21.0243 40.0531 21.0135 40.0612 21.0035C40.0677 20.9954 40.0797 20.9835 40.0917 20.9829C40.0942 20.9828 40.0965 20.9832 40.0988 20.9843C40.1661 21.0162 40.2334 21.0481 40.3008 21.08C40.3136 21.0861 40.3126 21.1081 40.3116 21.1183C40.3102 21.1325 40.3067 21.1458 40.3018 21.1591C40.2657 21.2557 40.2468 21.3579 40.2459 21.4611C40.2443 21.5643 40.2631 21.6668 40.3013 21.7627C40.305 21.7716 40.3082 21.7806 40.3103 21.7902C40.3113 21.795 40.3123 21.7995 40.3113 21.8046C40.3101 21.8111 40.3054 21.811 40.3003 21.8086L40.0983 21.7126C40.0865 21.707 40.0724 21.6899 40.0653 21.6801C40.056 21.6674 40.0483 21.6541 40.0423 21.6395C40.0033 21.544 39.9839 21.4414 39.9854 21.3381C39.9862 21.2349 40.0056 21.1326 40.0427 21.0364Z" stroke="#C2C2C2" stroke-width="0.455696" stroke-linecap="round" stroke-linejoin="round"/>
<path d="M40.6274 27.4915C40.6526 27.5037 40.6784 27.5142 40.7048 27.5234C40.8101 27.5586 40.9212 27.5728 41.0318 27.5652L41.6435 27.521C41.6437 27.521 41.644 27.521 41.6443 27.5209C41.6446 27.5209 41.6449 27.5209 41.6452 27.5208C41.6713 27.5149 41.6974 27.509 41.7235 27.5031" stroke="#C2C2C2" stroke-width="0.455696" stroke-linecap="round" stroke-linejoin="round"/>
<path d="M37.0686 51.3806C37.0899 51.3877 37.1112 51.3948 37.1325 51.4018C37.1595 51.4108 37.1868 51.4185 37.2145 51.4249C37.2231 51.4269 37.2317 51.4288 37.2404 51.4305" stroke="#C2C2C2" stroke-width="0.455696" stroke-linecap="round" stroke-linejoin="round"/>
<path d="M41.4749 26.3118C41.5797 26.3631 41.6641 26.4489 41.7141 26.555C41.7638 26.6608 41.7835 26.7784 41.7709 26.8947" stroke="#C2C2C2" stroke-width="0.455696" stroke-linecap="round" stroke-linejoin="round"/>
<path d="M48.5479 49.1324C49.1905 47.9087 50.0021 46.7828 50.9584 45.7883C51.4394 45.2945 51.9701 44.8525 52.542 44.4694C53.1135 44.0848 53.7376 43.7861 54.3946 43.5828C55.1959 43.3326 56.0459 43.2842 56.8701 43.4416C56.9293 43.4534 56.9883 43.4663 57.047 43.4803" stroke="#00AE42" stroke-width="0.455696" stroke-linecap="round" stroke-linejoin="round"/>
<path d="M5.896 49.3119C9.96107 50.1359 14.0261 50.9599 18.0912 51.7839C18.1067 51.787 18.1192 51.7987 18.1272 51.8114C18.1354 51.8245 18.14 51.84 18.1402 51.8556C18.1404 51.8699 18.1406 51.8842 18.1408 51.8985L18.1153 51.9758C17.918 52.553 17.7208 53.1302 17.5235 53.7075C17.5166 53.7178 17.5087 53.7258 17.4978 53.7319C17.4873 53.7378 17.476 53.7409 17.4637 53.7383C13.3643 52.9019 9.26505 52.0655 5.16574 51.229C5.16189 51.2283 5.15834 51.227 5.15488 51.2251C5.13863 51.216 5.13317 51.1968 5.13414 51.1799C5.3383 50.5859 5.54245 49.9919 5.7466 49.3979C5.75695 49.3678 5.7778 49.3425 5.80527 49.3267C5.83274 49.3109 5.86498 49.3056 5.896 49.3119Z" stroke="#C2C2C2" stroke-width="0.455696" stroke-linecap="round" stroke-linejoin="round"/>
<path d="M42.9973 29.416L42.9719 49.128" stroke="#C2C2C2" stroke-width="0.455696" stroke-linecap="round" stroke-linejoin="round"/>
<path d="M47.5185 52.4993C47.2773 53.2545 47.0781 54.0228 46.9219 54.8004C46.765 55.5777 46.6513 56.3633 46.5814 57.1534C46.434 58.7348 46.4863 60.3286 46.7371 61.8967C46.865 62.6798 47.0582 63.4506 47.3146 64.201C47.5694 64.9524 47.9086 65.6721 48.3257 66.346C48.5445 66.6961 48.7904 67.0283 49.0611 67.3395C49.3098 67.6253 49.5831 67.8885 49.8779 68.1259C50.1976 68.3836 50.5453 68.6038 50.9145 68.7822C51.2561 68.9467 51.6157 69.0704 51.9859 69.1507C52.8767 69.3346 53.8 69.2776 54.6619 68.9855C54.8564 68.9224 55.0466 68.85 55.2342 68.7687" stroke="#00AE42" stroke-width="0.455696" stroke-linecap="round" stroke-linejoin="round"/>
<path d="M51.986 69.1501C51.8679 69.1246 51.7499 69.0992 51.6319 69.0736C51.2506 68.9909 50.8805 68.8623 50.5298 68.6904C50.1497 68.5035 49.7926 68.2724 49.4657 68.002C49.1654 67.7538 48.8877 67.479 48.6361 67.1809C48.3618 66.8558 48.1136 66.5093 47.894 66.1445C47.4755 65.4426 47.1384 64.6947 46.8893 63.9155C46.6384 63.1372 46.4533 62.3389 46.336 61.5292C46.1062 59.9073 46.084 58.2624 46.2698 56.6348C46.4484 55.0073 46.8115 53.4057 47.3519 51.8613" stroke="#00AE42" stroke-width="0.455696" stroke-linecap="round" stroke-linejoin="round"/>
<path d="M40.2563 50.4516C39.8415 50.4292 39.4268 50.4069 39.012 50.3845C38.9641 50.3819 38.9165 50.3777 38.8689 50.3717C38.8213 50.3657 38.7741 50.3583 38.7271 50.3486" stroke="#C2C2C2" stroke-width="0.455696" stroke-linecap="round" stroke-linejoin="round"/>
<path d="M40.2978 49.108L39.4999 49.0677C39.4681 49.0661 39.4365 49.0646 39.4051 49.0582C39.3648 49.0499 39.3294 49.0341 39.3001 49.0035C39.2713 48.9735 39.2112 48.8827 39.1879 48.8492C39.1697 48.823 39.1513 48.7971 39.1303 48.7731C39.1115 48.7517 39.0846 48.7251 39.054 48.7188" stroke="#C2C2C2" stroke-width="0.455696" stroke-linecap="round" stroke-linejoin="round"/>
<path d="M40.7911 52.1577C40.7865 52.157 40.7821 52.1558 40.7776 52.1548C40.765 52.1522 40.7524 52.1496 40.7398 52.1469C40.6063 52.119 40.4729 52.0911 40.3394 52.0634C40.1889 52.0321 40.0384 52.0008 39.8878 51.9696C39.5865 51.9072 39.2851 51.8449 38.9837 51.7827C38.3811 51.6583 37.7786 51.5335 37.1761 51.4087C37.1393 51.4011 37.1032 51.3913 37.0676 51.3793C36.9151 51.3267 36.7776 51.2377 36.6667 51.1199C36.5562 51.0023 36.4688 50.8645 36.4095 50.714C36.3498 50.5638 36.3129 50.4054 36.3001 50.2441C36.2869 50.0829 36.2949 49.9207 36.3237 49.7616C36.3276 49.74 36.3315 49.7185 36.3354 49.697C36.3407 49.6757 36.3461 49.6545 36.3514 49.6332C36.3933 49.4659 36.4581 49.3054 36.544 49.1561C36.6296 49.0065 36.7382 48.8717 36.866 48.7565C36.9935 48.6409 37.1431 48.5526 37.3056 48.4971C37.4685 48.4416 37.6431 48.4301 37.8118 48.4636C38.2262 48.5486 38.6405 48.6337 39.0549 48.7185C39.2751 48.7636 39.4954 48.8085 39.7156 48.8535C39.9358 48.8986 40.156 48.9437 40.3762 48.989" stroke="#C2C2C2" stroke-width="0.455696" stroke-linecap="round" stroke-linejoin="round"/>
<path d="M27.9911 43.0612C27.9703 43.0678 27.9511 43.0785 27.9345 43.0928C27.9179 43.107 27.9043 43.1245 27.8946 43.1441C27.8739 43.1827 27.8652 43.2275 27.8652 43.2706C27.8732 48.3198 27.8812 53.369 27.8892 58.4181C27.8896 58.4818 27.9076 58.5442 27.9411 58.5982C27.9729 58.6537 28.0253 58.6941 28.0868 58.7107C30.0273 59.1232 31.9678 59.5357 33.9083 59.9482C33.9335 59.9535 33.9593 59.9529 33.984 59.9453C34.0043 59.9385 34.0231 59.9277 34.0393 59.9136C34.0554 59.8995 34.0687 59.8823 34.0782 59.8631C34.0984 59.8251 34.1069 59.7812 34.1069 59.7388C34.1049 54.6707 34.1029 49.6026 34.1009 44.5345C34.1005 44.4704 34.0825 44.4077 34.0487 44.3534C34.0328 44.3258 34.0115 44.3016 33.9863 44.2823C33.961 44.2631 33.9321 44.249 33.9014 44.2411C31.9552 43.8469 30.0089 43.4528 28.0626 43.0586C28.0389 43.0538 28.0145 43.0543 27.9911 43.0612Z" stroke="#C2C2C2" stroke-width="0.455696" stroke-linecap="round" stroke-linejoin="round"/>
<path d="M38.833 20.0649C38.9004 20.0467 38.9709 20.0435 39.0396 20.0554C39.8929 20.1984 40.7462 20.3413 41.5995 20.4843C41.6152 20.4879 41.6301 20.4946 41.6431 20.5041C41.6562 20.5137 41.6671 20.5258 41.6753 20.5398C41.6926 20.5668 41.702 20.5997 41.702 20.6318L41.7015 21.1387" stroke="#C2C2C2" stroke-width="0.455696" stroke-linecap="round" stroke-linejoin="round"/>
<path d="M40.2156 27.2902C39.8223 27.2077 39.429 27.1252 39.0357 27.0427C38.8691 27.0008 38.7228 26.9004 38.6232 26.7597C38.521 26.6218 38.4533 26.4612 38.4259 26.2915C38.3958 26.122 38.4119 25.9474 38.4727 25.7864C38.5013 25.7054 38.5481 25.6322 38.6095 25.5726C38.6708 25.5129 38.7451 25.4683 38.8265 25.4424C38.8949 25.4236 38.9667 25.4202 39.0365 25.4326C39.889 25.5784 40.7414 25.7242 41.5938 25.87C41.6095 25.8735 41.6244 25.8803 41.6374 25.8899C41.6504 25.8994 41.6613 25.9116 41.6695 25.9256C41.6868 25.9526 41.6962 25.9854 41.6962 26.0175C41.696 26.1847 41.6958 26.352 41.6957 26.5193" stroke="#C2C2C2" stroke-width="0.455696" stroke-linecap="round" stroke-linejoin="round"/>
<path d="M43.2082 18.9546C43.159 18.9456 43.1099 18.9364 43.0607 18.9273C29.9639 16.501 16.8671 14.0748 3.7703 11.6485C3.68864 11.6334 3.607 11.6183 3.52539 11.603" stroke="#C2C2C2" stroke-width="0.455696" stroke-linecap="round" stroke-linejoin="round"/>
<path d="M58.6098 44.0171C65.6804 41.8847 72.751 39.7523 79.8216 37.6198C79.9692 37.5753 80.1163 37.5305 80.2606 37.4755C80.4052 37.4204 80.5442 37.3565 80.6783 37.2786C80.9454 37.1225 81.1822 36.9191 81.3772 36.6781C81.3876 36.6654 81.398 36.6527 81.4085 36.64C81.8051 36.1242 82.0722 35.5196 82.1871 34.8776C82.2507 34.5592 82.2923 34.2369 82.3115 33.9127C82.3331 33.5802 82.3362 33.2719 82.3391 32.939L82.4323 22.276C82.4403 21.8998 82.4335 21.5234 82.4119 21.1477C82.3917 20.7715 82.3254 20.3992 82.2146 20.0394L82.2129 20.0342L82.2114 20.0297L82.2099 20.0251L82.2084 20.0206L82.2069 20.016L82.2054 20.0115L82.2039 20.0069L82.2024 20.0023L82.2009 19.9978L82.1994 19.9932C82.1166 19.7233 81.9811 19.472 81.8011 19.2553C81.7091 19.1488 81.6007 19.0579 81.48 18.9862C81.3587 18.9153 81.226 18.8665 81.0879 18.8422C80.9013 18.812 80.7111 18.8138 80.5252 18.8475C80.3381 18.8779 80.1573 18.9289 79.9757 18.9804C71.7293 21.3183 63.4829 23.6562 55.2365 25.9941C54.9949 26.0562 54.7585 26.1374 54.5294 26.2369C54.3015 26.3398 54.0895 26.4755 53.9002 26.6397C53.8078 26.7198 53.7219 26.8054 53.6409 26.8971C53.5555 26.9938 53.4773 27.0952 53.4046 27.2018C53.3353 27.3034 53.2721 27.408 53.2138 27.5163C53.1529 27.6292 53.0981 27.7446 53.0483 27.8629C53.0002 27.977 52.9572 28.0927 52.9186 28.2103C52.8789 28.3313 52.8441 28.4534 52.8134 28.577C52.7536 28.8209 52.7086 29.0684 52.6789 29.3178C52.6483 29.5676 52.631 29.8177 52.6217 30.0691C52.6125 30.3202 52.6114 30.5712 52.6106 30.8224C52.5993 34.4736 52.5879 38.1249 52.5766 41.7762C52.5759 41.9856 52.5754 42.1949 52.58 42.4043C52.5845 42.6138 52.5941 42.8226 52.6133 43.0314C52.6429 43.4499 52.736 43.8613 52.8893 44.2514" stroke="#C2C2C2" stroke-width="0.455696" stroke-linecap="round" stroke-linejoin="round"/>
<path d="M62.9704 55.6947C63.0742 56.0974 63.1243 56.5122 63.1193 56.9283C63.1127 57.7726 62.9259 58.6057 62.5716 59.371C62.3959 59.7532 62.1661 60.1079 61.8893 60.4238C61.6168 60.7453 61.2652 60.9894 60.8698 61.1315C60.63 61.2114 60.3732 61.2246 60.1267 61.1695C59.8486 61.1004 59.5969 60.9506 59.4025 60.7388C59.2086 60.5285 59.0539 60.2847 58.9459 60.0191C58.7348 59.4851 58.632 58.914 58.6434 58.3394C58.6494 57.4925 58.8366 56.6569 59.1924 55.8896C59.3687 55.5062 59.5996 55.1508 59.8777 54.8345C60.1516 54.5124 60.5051 54.2688 60.9026 54.1285C61.0334 54.087 61.1693 54.064 61.3064 54.0601" stroke="#00AE42" stroke-width="0.455696" stroke-linecap="round" stroke-linejoin="round"/>
<path d="M85.5892 85.0703C85.5458 85.2299 85.5024 85.3896 85.459 85.5492C85.3988 85.6964 85.2917 85.8193 85.1546 85.8985C85.0228 85.9845 84.8841 86.0594 84.7401 86.1224C84.5966 86.1872 84.4505 86.2446 84.3032 86.2995C84.1559 86.3544 84.0077 86.4065 83.8594 86.4585L74.9364 89.5856C74.8017 89.6328 74.6934 89.6697 74.5529 89.6981C74.4214 89.7248 74.2897 89.7375 74.156 89.7426C73.8894 89.7488 73.6227 89.7376 73.3575 89.709C71.5052 89.5265 69.6528 89.344 67.8005 89.1615" stroke="#C2C2C2" stroke-width="0.455696" stroke-linecap="round" stroke-linejoin="round"/>
<path d="M85.2326 84.2871C85.3373 84.4612 85.442 84.6353 85.5467 84.8095C85.5717 84.8476 85.5883 84.8906 85.5956 84.9356C85.6029 84.9807 85.6007 85.0267 85.5891 85.0709C85.5281 85.2207 85.4194 85.346 85.2801 85.4269C85.1462 85.5146 85.0052 85.591 84.8587 85.6551C84.7128 85.7211 84.5642 85.7795 84.4143 85.8354C84.2645 85.8911 84.1137 85.9441 83.9629 85.9969L75.0394 89.1204C74.9573 89.1492 74.8758 89.178 74.7902 89.1956C74.7052 89.215 74.6171 89.2161 74.5317 89.1988C74.4471 89.1785 74.3668 89.143 74.2946 89.0941C74.2211 89.047 74.153 88.9931 74.0845 88.9394C73.7314 88.6623 73.3784 88.3852 73.0252 88.108C72.9297 88.033 72.8143 87.942 72.7145 87.8726C72.6099 87.795 72.4939 87.7345 72.3706 87.6931C72.2454 87.6572 72.1132 87.6528 71.9858 87.6806C71.8607 87.7043 71.7323 87.7492 71.6129 87.7907C70.3436 88.2319 57.7553 92.4545 56.486 92.8957L55.3054 96.4618" stroke="#C2C2C2" stroke-width="0.455696" stroke-linecap="round" stroke-linejoin="round"/>
<path d="M55.0967 96.1003C53.7063 96.5871 52.316 97.0737 50.9256 97.5604C50.5853 97.6795 50.2713 97.7877 49.9241 97.8858C49.5858 97.9815 49.243 98.0601 48.8969 98.1214C48.2045 98.2412 47.5035 98.3034 46.801 98.3075C46.6254 98.3092 46.4499 98.3076 46.2743 98.303C46.0987 98.2984 45.9233 98.2907 45.748 98.2799C45.5712 98.2691 45.3948 98.2551 45.2185 98.2383C45.0452 98.2217 44.8723 98.2022 44.6997 98.18C44.3511 98.1349 44.0048 98.0785 43.6595 98.013C43.3145 97.9475 42.9714 97.8729 42.6284 97.7977C42.1308 97.6887 41.6335 97.5787 41.1368 97.4657C40.6401 97.3526 40.144 97.2366 39.6482 97.1198C28.5511 94.5068 17.454 91.8937 6.35686 89.2807C5.89527 89.172 5.43383 89.0627 4.97307 88.9505C4.85788 88.9224 4.74273 88.8942 4.62762 88.8658C4.51251 88.8375 4.39745 88.8089 4.28242 88.7802C4.05237 88.7228 3.82247 88.6647 3.5926 88.6066C3.15672 88.5024 2.72506 88.381 2.29861 88.2428C2.0856 88.1728 1.87833 88.0861 1.67868 87.9837C1.47041 87.8962 1.30121 87.7349 1.20312 87.5303" stroke="#C2C2C2" stroke-width="0.455696" stroke-linecap="round" stroke-linejoin="round"/>
<path d="M1.00004 10.8906L1.50212 86.5633C1.50739 86.6209 1.52433 86.6768 1.55189 86.7275C1.57945 86.7782 1.61705 86.8227 1.66236 86.8582C1.86351 87.0172 2.08996 87.1408 2.33211 87.2236C2.56495 87.3129 2.82157 87.3912 3.06131 87.4582C3.14896 87.4838 3.24239 87.4809 3.32832 87.4499C3.41351 87.4174 3.48767 87.361 3.54206 87.2874C3.64684 87.1369 3.69989 86.9559 3.69314 86.7722C3.53779 61.7818 3.38245 36.7915 3.2271 11.8011C3.22701 11.7858 3.22277 11.7701 3.21499 11.7569C3.20752 11.7443 3.19537 11.7321 3.18 11.729C2.78493 11.6539 2.39252 11.5653 2.00344 11.4633C1.80896 11.4119 1.61809 11.3474 1.4321 11.2705C1.38205 11.2488 1.33289 11.2256 1.28484 11.1997C1.24413 11.1778 1.20469 11.1542 1.16693 11.1273C1.12124 11.0948 1.07523 11.0555 1.04243 11.0086C1.0176 10.973 1.00036 10.9327 1 10.8878C1.00263 10.8521 1.01239 10.8172 1.02871 10.7854C1.04502 10.7535 1.06754 10.7253 1.09494 10.7024C1.11759 10.6804 1.14181 10.6607 1.16723 10.6421" stroke="#C2C2C2" stroke-width="0.455696" stroke-linecap="round" stroke-linejoin="round"/>
<path d="M57.4965 58.8262C57.5056 57.5757 57.7582 56.3391 58.2398 55.1864C58.4787 54.6106 58.7867 54.0663 59.1567 53.5657C59.3558 53.2983 59.5784 53.0496 59.8218 52.8225C60.0328 52.6254 60.2639 52.4514 60.5112 52.3034C60.7838 52.1388 61.0814 52.0205 61.3922 51.9533C61.688 51.8903 61.9934 51.8893 62.2896 51.9503C62.5756 52.0116 62.8465 52.1297 63.0867 52.2976C63.3556 52.4874 63.5904 52.7217 63.7813 52.9907C63.9555 53.2343 64.1031 53.4962 64.2212 53.7718C64.349 54.0687 64.451 54.3762 64.5261 54.6908C64.6686 55.2981 64.7372 55.9206 64.7303 56.5446C64.7196 57.793 64.4662 59.0273 63.9846 60.1778C63.7457 60.7525 63.438 61.2957 63.0683 61.7953C62.8695 62.0621 62.6472 62.3103 62.4041 62.5369C62.1934 62.7336 61.9626 62.9073 61.7156 63.0552C61.4441 63.2191 61.1477 63.3371 60.8382 63.4045C60.5423 63.468 60.2366 63.4695 59.9402 63.4089C59.6546 63.3481 59.384 63.2308 59.144 63.0636C58.8751 62.8747 58.6402 62.6411 58.4491 62.3728C58.2748 62.13 58.1271 61.8689 58.0088 61.5941C57.8807 61.2977 57.7784 60.9908 57.7029 60.6767C57.5597 60.0706 57.4904 59.4492 57.4965 58.8262Z" stroke="#00AE42" stroke-width="0.455696" stroke-linecap="round" stroke-linejoin="round"/>
<path d="M58.3962 70.5359C58.2772 70.5103 58.1582 70.4846 58.0393 70.4589C57.4547 70.3307 56.8982 70.0962 56.3971 69.767C55.8238 69.3869 55.3164 68.9146 54.895 68.369C54.5197 67.8866 54.1958 67.3658 53.9286 66.8153C53.632 66.2057 53.3887 65.5712 53.2013 64.9191C52.8492 63.6752 52.6466 62.3933 52.5977 61.1009C52.5444 59.8112 52.6121 58.5193 52.7997 57.2424C52.9848 55.9644 53.283 54.7056 53.6905 53.481C54.0953 52.2552 54.6212 51.0734 55.2604 49.9533C55.5941 49.3712 55.9648 48.8113 56.3701 48.2772C56.7432 47.785 57.1517 47.3211 57.5923 46.8892C58.0872 46.4014 58.6337 45.9697 59.222 45.6019C59.7236 45.2881 60.2633 45.0407 60.8278 44.8657C61.6266 44.6136 62.4748 44.5638 63.2973 44.7207C63.3571 44.7326 63.4165 44.7456 63.4757 44.7598" stroke="#00AE42" stroke-width="0.455696" stroke-linecap="round" stroke-linejoin="round"/>
<path d="M58.3957 70.5366C57.8111 70.4085 57.2546 70.1739 56.7536 69.8446C56.1802 69.4643 55.6728 68.9918 55.2516 68.4459C54.8764 67.9634 54.5526 67.4425 54.2854 66.8918C53.989 66.282 53.7458 65.6474 53.5586 64.9951C53.2067 63.751 53.0042 62.469 52.9555 61.1764C52.9024 59.8865 52.9702 58.5945 53.1578 57.3174C53.3431 56.0392 53.6412 54.7803 54.0487 53.5555C54.4536 52.3295 54.9794 51.1475 55.6185 50.0272C55.9522 49.4449 56.3229 48.8849 56.7282 48.3507C57.1012 47.8584 57.5096 47.3943 57.9502 46.9623C58.4451 46.4743 58.9915 46.0425 59.5799 45.6745C60.0815 45.3606 60.6212 45.113 61.1856 44.9378C61.9843 44.6856 62.8325 44.6358 63.6549 44.7927C64.2421 44.9113 64.8027 45.1375 65.3087 45.46C65.8849 45.8307 66.3961 46.2949 66.8216 46.8337C67.2017 47.3116 67.5302 47.8288 67.8016 48.3767C68.1024 48.9824 68.3497 49.6136 68.5408 50.2629C68.9 51.5015 69.1095 52.7793 69.1648 54.0684C69.1961 54.7163 69.1956 55.3654 69.1631 56.0133C69.1474 56.3324 69.1244 56.6507 69.0942 56.9687C69.0639 57.2871 69.0266 57.6043 68.9822 57.9209C68.8034 59.1986 68.512 60.4576 68.1113 61.6832C67.7135 62.909 67.1956 64.0919 66.5653 65.2144C66.2365 65.7972 65.8714 66.3583 65.472 66.8944C65.1034 67.3897 64.6997 67.8576 64.2641 68.2943C63.7762 68.7861 63.2373 69.2238 62.6568 69.6001C62.1604 69.9219 61.6257 70.1797 61.0654 70.3671C60.2063 70.6614 59.2848 70.7199 58.3957 70.5366Z" stroke="#00AE42" stroke-width="0.455696" stroke-linecap="round" stroke-linejoin="round"/>
<path d="M1.09521 10.7021L1.21847 10.5825" stroke="#C2C2C2" stroke-width="0.455696" stroke-linecap="round" stroke-linejoin="round"/>
<path d="M1.78342 86.9689C1.74305 86.932 1.70271 86.895 1.66235 86.8582" stroke="#C2C2C2" stroke-width="0.455696" stroke-linecap="round" stroke-linejoin="round"/>
<path d="M48.2888 53.4036C48.3789 53.0967 48.4767 52.7927 48.5826 52.491" stroke="#00AE42" stroke-width="0.455696" stroke-linecap="round" stroke-linejoin="round"/>
<path d="M52.3854 67.5937C52.0756 67.5269 51.7742 67.4259 51.4864 67.2926C51.3396 67.2248 51.1974 67.1495 51.0585 67.0666C50.9167 66.9819 50.7802 66.8903 50.6477 66.7915C50.1337 66.401 49.6858 65.9294 49.3215 65.3949C48.6062 64.3156 48.1082 63.1054 47.8558 61.833C47.5915 60.5654 47.4856 59.2696 47.5404 57.9757C47.5645 57.3293 47.6228 56.6846 47.7151 56.0445C47.761 55.7243 47.8151 55.4059 47.8773 55.0885C47.9396 54.7709 48.0098 54.4555 48.0883 54.1416" stroke="#00AE42" stroke-width="0.455696" stroke-linecap="round" stroke-linejoin="round"/>
<path d="M47.1438 51.5715C47.0357 51.4878 46.9561 51.3724 46.916 51.2412C46.8759 51.11 46.8774 50.9695 46.9201 50.8391" stroke="#00AE42" stroke-width="0.455696" stroke-linecap="round" stroke-linejoin="round"/>
<path d="M47.0803 51.5154C47.1002 51.5354 47.1214 51.5539 47.1438 51.571" stroke="#00AE42" stroke-width="0.455696" stroke-linecap="round" stroke-linejoin="round"/>
<path d="M54.1969 67.3232C53.8004 67.0261 53.4448 66.6776 53.1391 66.2866C52.8026 65.8562 52.5134 65.3904 52.2766 64.8973C52.1686 64.6754 52.0703 64.4499 51.9801 64.2202C51.8863 63.9813 51.802 63.7396 51.7258 63.4945C51.5663 62.9775 51.4408 62.4505 51.3499 61.9169C51.3069 61.6676 51.2708 61.4176 51.2412 61.1663C51.2109 60.9092 51.1873 60.6516 51.1702 60.3932C51.1526 60.1296 51.1417 59.866 51.1371 59.6019C51.1324 59.3333 51.1342 59.0651 51.1422 58.7966C51.1748 57.7521 51.2968 56.7123 51.5067 55.6889C51.6117 55.174 51.7386 54.6639 51.8869 54.1599C51.9605 53.9099 52.0394 53.6617 52.1237 53.4151C52.2072 53.1708 52.2958 52.9286 52.39 52.6883C52.7673 51.7148 53.241 50.7819 53.8039 49.904C54.0965 49.4496 54.4186 49.0153 54.768 48.6037C55.0927 48.2206 55.4459 47.8629 55.8245 47.5337C56.2353 47.175 56.6837 46.8622 57.1615 46.6008C57.3838 46.4805 57.6133 46.3744 57.8489 46.2832C57.9627 46.2393 58.0777 46.1993 58.1943 46.1632C58.3085 46.1279 58.4236 46.0967 58.54 46.0696" stroke="#00AE42" stroke-width="0.455696" stroke-linecap="round" stroke-linejoin="round"/>
<path d="M53.6011 3.4314C53.601 3.43166 53.6014 3.43161 53.6014 3.43161C53.6018 3.43174 53.6021 3.43183 53.6025 3.43193C53.6039 3.43234 53.6054 3.43265 53.6068 3.43298C53.6126 3.43425 53.6184 3.43541 53.6242 3.43656C53.6319 3.43808 53.6397 3.43958 53.6475 3.44106C53.663 3.444 53.6786 3.44688 53.6941 3.44975C53.7252 3.45547 53.7563 3.46111 53.7874 3.46669" stroke="#C2C2C2" stroke-width="0.455696" stroke-linecap="round" stroke-linejoin="round"/>
<path d="M63.7088 5.17847L63.7021 6.46191" stroke="#C2C2C2" stroke-width="0.455696" stroke-linecap="round" stroke-linejoin="round"/>
<path d="M54.4371 67.7209C53.5703 67.3489 52.8212 66.7448 52.2712 65.9744" stroke="#00AE42" stroke-width="0.455696" stroke-linecap="round" stroke-linejoin="round"/>
<path d="M54.35 67.5823C53.8962 67.3289 53.4839 67.0066 53.1276 66.6267C52.735 66.2077 52.3962 65.7407 52.1193 65.2367C51.8649 64.7766 51.65 64.2955 51.4769 63.7986C51.4308 63.6679 51.3873 63.5365 51.3463 63.4041C51.3045 63.2692 51.2652 63.1335 51.2283 62.9971C51.1525 62.7164 51.0871 62.4338 51.031 62.1485C50.8246 61.0706 50.7343 59.9735 50.7616 58.8761C50.7731 58.3314 50.8095 57.7876 50.8709 57.2463C50.9018 56.9723 50.9388 56.6994 50.9819 56.4271C51.0252 56.1538 51.0745 55.8819 51.1299 55.6109C51.2403 55.0697 51.3748 54.5338 51.533 54.0048C51.6888 53.4831 51.8685 52.9689 52.0715 52.4639C52.28 51.9441 52.5151 51.4356 52.7759 50.9404C52.9026 50.7004 53.0353 50.4644 53.1748 50.2318C53.3109 50.0052 53.4529 49.7828 53.6017 49.5644C53.9212 49.093 54.2744 48.6456 54.6583 48.2257C54.8399 48.0282 55.0282 47.8384 55.2253 47.6564C55.414 47.4821 55.6091 47.3166 55.8125 47.1599C56.0453 46.98 56.2885 46.8143 56.5408 46.6635C56.78 46.5206 57.0283 46.3938 57.2842 46.2841C57.7606 46.0768 58.2659 45.9449 58.7823 45.8928" stroke="#00AE42" stroke-width="0.455696" stroke-linecap="round" stroke-linejoin="round"/>
<path d="M51.8212 65.7237C51.556 65.304 51.3273 64.8621 51.1375 64.4029C50.9315 63.9054 50.7618 63.3933 50.63 62.8709C50.3794 61.8646 50.2367 60.8341 50.2044 59.7971C50.1953 59.5427 50.192 59.2883 50.1943 59.0337C50.1966 58.7756 50.2047 58.5178 50.2183 58.2601C50.246 57.7371 50.2959 57.2156 50.3678 56.697C50.4389 56.183 50.531 55.6723 50.6439 55.1659C50.7563 54.661 50.8894 54.1609 51.0429 53.667C51.1212 53.415 51.2048 53.165 51.2939 52.9167C51.382 52.6709 51.4754 52.4274 51.5743 52.1859C51.7674 51.7131 51.9822 51.2496 52.2179 50.7968C52.6915 49.8756 53.2686 49.0122 53.9379 48.2236C54.1176 48.0148 54.3043 47.8134 54.4996 47.6192C54.687 47.433 54.8809 47.2551 55.0833 47.0855C55.4608 46.7665 55.868 46.4851 56.2994 46.2451C56.539 46.1127 56.7871 45.9965 57.0421 45.8973C57.2852 45.8026 57.535 45.7261 57.7893 45.6683C58.0339 45.6126 58.2825 45.5766 58.5328 45.5607C58.7768 45.5452 59.0216 45.5504 59.2647 45.5762" stroke="#00AE42" stroke-width="0.455696" stroke-linecap="round" stroke-linejoin="round"/>
<path d="M53.5714 66.0058C53.3387 65.6553 53.1334 65.287 52.9576 64.9043C52.7682 64.4928 52.6067 64.0689 52.4741 63.6355C52.2206 62.7983 52.051 61.9376 51.9678 61.0663C51.9251 60.6369 51.8999 60.2058 51.8924 59.7743C51.8845 59.3308 51.8937 58.8871 51.9201 58.4444C51.9459 58.0096 51.9873 57.5759 52.0443 57.1441C52.1016 56.7086 52.1744 56.2753 52.2623 55.845C52.4372 54.987 52.6729 54.1427 52.9676 53.3187C53.1168 52.9018 53.2821 52.4909 53.4631 52.0869C53.5519 51.8888 53.6445 51.6927 53.7412 51.4984C53.8364 51.3071 53.9353 51.118 54.0383 50.9309C54.2538 50.5385 54.4878 50.1567 54.7396 49.7869C54.8613 49.6085 54.9871 49.4334 55.1177 49.2615C55.2449 49.0942 55.3762 48.9305 55.5121 48.7704C55.8038 48.4251 56.1183 48.1001 56.4535 47.7976C56.7651 47.5162 57.0981 47.2596 57.4493 47.0303" stroke="#00AE42" stroke-width="0.455696" stroke-linecap="round" stroke-linejoin="round"/>
<path d="M50.1378 63.0218C50.1077 62.9143 50.0791 62.8065 50.0519 62.6982C50.0244 62.5884 49.9984 62.4783 49.9738 62.3678C49.9236 62.1424 49.8795 61.9161 49.8409 61.6884C49.8014 61.4552 49.7678 61.2213 49.7398 60.9865C49.7111 60.7465 49.6882 60.5062 49.6708 60.2652C49.6543 60.0365 49.6427 59.8078 49.6358 59.5786C49.6288 59.346 49.6267 59.1135 49.6292 58.8809C49.6345 58.4075 49.6585 57.9345 49.7011 57.4631C49.743 56.9988 49.8021 56.5363 49.8784 56.0765C49.955 55.6145 50.0485 55.1555 50.1589 54.7005C50.2697 54.2432 50.3977 53.7903 50.5426 53.3427C50.6144 53.121 50.6903 52.9009 50.7705 52.6822C50.8499 52.4656 50.9334 52.2507 51.0213 52.0374C51.3744 51.1728 51.8032 50.3416 52.3026 49.5535C52.7998 48.7632 53.3885 48.0351 54.0562 47.3845C54.4052 47.0475 54.7821 46.7409 55.1826 46.468C55.5511 46.2168 55.9439 46.0036 56.3549 45.8316C56.7955 45.6466 57.2596 45.524 57.7337 45.4673C57.9597 45.4412 58.1873 45.4325 58.4146 45.4414C58.6385 45.4501 58.8614 45.4765 59.0811 45.5205" stroke="#00AE42" stroke-width="0.455696" stroke-linecap="round" stroke-linejoin="round"/>
<path d="M54.4782 68.0427C53.6069 67.844 52.8102 67.3983 52.1825 66.7582C51.5567 66.1212 51.0517 65.3744 50.6924 64.5547" stroke="#00AE42" stroke-width="0.455696" stroke-linecap="round" stroke-linejoin="round"/>
<path d="M48.6943 58.3552C48.7053 57.9841 48.7278 57.6144 48.7614 57.2447C48.7955 56.8709 48.8408 56.499 48.8973 56.1279C48.9535 55.7587 49.0204 55.392 49.0982 55.0268C49.1759 54.6619 49.2641 54.3002 49.3632 53.9406C49.754 52.4989 50.3304 51.1149 51.0776 49.8236C51.8117 48.5223 52.7962 47.3815 53.9734 46.4678C54.5673 46.0186 55.2335 45.6759 55.943 45.4546C56.6546 45.2337 57.4091 45.1918 58.1405 45.3325" stroke="#00AE42" stroke-width="0.455696" stroke-linecap="round" stroke-linejoin="round"/>
<path d="M53.5404 67.842C52.698 67.6509 51.925 67.2278 51.3077 66.6199C50.9973 66.3212 50.7178 65.9915 50.4736 65.6359C50.353 65.4618 50.2405 65.2832 50.1347 65.0998C50.0803 65.0055 50.0279 64.9102 49.9772 64.8138C49.9256 64.7156 49.8759 64.6165 49.8279 64.5165C49.6424 64.1268 49.482 63.7256 49.3479 63.3151C49.2813 63.1128 49.2205 62.9089 49.1651 62.7032C49.1081 62.4918 49.0569 62.2791 49.011 62.065C48.9208 61.6426 48.8501 61.2162 48.7992 60.7872C48.7481 60.3583 48.7147 59.9273 48.699 59.4956" stroke="#00AE42" stroke-width="0.455696" stroke-linecap="round" stroke-linejoin="round"/>
<path d="M53.9514 66.8614C53.627 66.5287 53.3389 66.1619 53.092 65.7674C52.822 65.3366 52.5908 64.8824 52.401 64.4101C52.0411 63.5028 51.7932 62.5544 51.6627 61.5862C51.6293 61.3513 51.6019 61.1159 51.5799 60.8796C51.5575 60.6385 51.5409 60.3972 51.5296 60.1554C51.5182 59.9093 51.5124 59.6633 51.512 59.417C51.5116 59.1671 51.5167 58.9175 51.5271 58.6678C51.5476 58.1831 51.5876 57.6994 51.647 57.2179C51.707 56.7312 51.7862 56.2471 51.8844 55.7668C52.265 53.8492 52.9676 52.0111 53.962 50.3315C54.094 50.1136 54.2315 49.8998 54.3754 49.6897C54.4458 49.5869 54.5177 49.4851 54.5911 49.3845C54.6633 49.2853 54.7371 49.1872 54.8123 49.0902C55.1004 48.7171 55.4126 48.3633 55.7468 48.0314C55.84 47.9392 55.9349 47.8489 56.0319 47.7607C56.1268 47.6744 56.2233 47.5902 56.3219 47.5081C56.5128 47.3491 56.7096 47.1992 56.9144 47.0588C57.2961 46.7945 57.7049 46.5721 58.1337 46.3955" stroke="#00AE42" stroke-width="0.455696" stroke-linecap="round" stroke-linejoin="round"/>
<path d="M48.5508 57.4584C48.578 57.1053 48.6154 56.7538 48.6628 56.4028C48.7105 56.0496 48.7681 55.6985 48.8356 55.3486C48.9698 54.6511 49.1434 53.9618 49.3555 53.2842C49.4624 52.9426 49.579 52.6048 49.7059 52.2702C49.8308 51.9408 49.9651 51.616 50.1098 51.2949C50.2578 50.9667 50.4157 50.6441 50.5851 50.3265C50.6681 50.171 50.7536 50.0171 50.8418 49.8647C50.9287 49.7146 51.0181 49.5662 51.1103 49.4194C51.3025 49.1126 51.5071 48.8138 51.7235 48.5238C51.8285 48.3834 51.9364 48.2453 52.0473 48.1096C52.1558 47.9769 52.267 47.8468 52.3814 47.7192C52.8512 47.1883 53.3802 46.7138 53.958 46.3051C54.5351 45.8937 55.177 45.5834 55.8568 45.3873C56.2027 45.2907 56.5583 45.2335 56.9168 45.2166C57.2635 45.2008 57.6109 45.2271 57.9513 45.295" stroke="#00AE42" stroke-width="0.455696" stroke-linecap="round" stroke-linejoin="round"/>
<path d="M53.3507 67.8003C52.4355 67.5901 51.6032 67.1101 50.96 66.4216C50.3186 65.7375 49.8084 64.9398 49.4552 64.0688C49.097 63.2011 48.8423 62.2936 48.6966 61.3655C48.6591 61.1363 48.6273 60.9065 48.6007 60.6758C48.5736 60.4402 48.5521 60.2043 48.5359 59.9677C48.5199 59.7353 48.5089 59.5028 48.5029 59.27C48.4967 59.0337 48.4955 58.7974 48.4991 58.561" stroke="#00AE42" stroke-width="0.455696" stroke-linecap="round" stroke-linejoin="round"/>
<path d="M48.4441 56.5399C48.6116 55.2025 48.9216 53.887 49.3688 52.6164C49.8112 51.3435 50.4113 50.1319 51.1549 49.0104C51.8886 47.8792 52.8366 46.9048 53.9447 46.143C54.5034 45.7697 55.1194 45.4918 55.7679 45.3204C56.0972 45.2362 56.4345 45.1878 56.774 45.176C57.1033 45.165 57.4327 45.192 57.7559 45.2564" stroke="#00AE42" stroke-width="0.455696" stroke-linecap="round" stroke-linejoin="round"/>
<path d="M53.156 67.7596C52.912 67.7071 52.6729 67.6332 52.4417 67.5386C52.2061 67.4424 51.9791 67.3264 51.7629 67.1918C51.3352 66.9228 50.9474 66.5943 50.611 66.216C49.9469 65.4501 49.4321 64.5651 49.0934 63.6072C48.9183 63.1318 48.7744 62.6453 48.6627 62.1509C48.607 61.9068 48.5584 61.6617 48.5164 61.4149C48.4949 61.2891 48.4752 61.163 48.4572 61.0367C48.4389 60.9088 48.4223 60.7807 48.4074 60.6524C48.2935 59.6443 48.2712 58.6279 48.3408 57.6157" stroke="#00AE42" stroke-width="0.455696" stroke-linecap="round" stroke-linejoin="round"/>
<path d="M37.1003 51.3899C37.1104 51.3941 37.1205 51.3982 37.1307 51.402" stroke="#C2C2C2" stroke-width="0.455696" stroke-linecap="round" stroke-linejoin="round"/>
<path d="M51.6864 65.9158C51.3795 65.5661 51.0992 65.1936 50.8478 64.8015C50.723 64.6086 50.6043 64.4123 50.4907 64.2126C50.3737 64.007 50.2625 63.7986 50.1561 63.5873C49.741 62.7526 49.3923 61.8861 49.1133 60.9959C48.8321 60.106 48.6097 59.1982 48.4476 58.2787C48.4073 58.0508 48.3707 57.8223 48.3378 57.5931C48.3043 57.3603 48.2747 57.1271 48.249 56.8933C48.2237 56.6628 48.2022 56.432 48.1846 56.2008C48.1668 55.9666 48.1531 55.7323 48.1436 55.4976" stroke="#00AE42" stroke-width="0.455696" stroke-linecap="round" stroke-linejoin="round"/>
<path d="M48.3733 55.4885C48.3827 55.72 48.3962 55.9511 48.4137 56.1821C48.431 56.4101 48.4522 56.6376 48.4771 56.8649C48.5024 57.0954 48.5315 57.3254 48.5645 57.555C48.5969 57.7809 48.6329 58.0061 48.6725 58.2309C48.8318 59.137 49.0503 60.0315 49.3265 60.9087C49.6007 61.7868 49.9434 62.6416 50.3515 63.4653C50.4042 63.5704 50.4582 63.6748 50.5134 63.7785C50.5679 63.8807 50.6237 63.9822 50.6808 64.083C50.7924 64.2799 50.9091 64.4735 51.0318 64.6637C51.2788 65.0505 51.5547 65.4179 51.857 65.7627" stroke="#00AE42" stroke-width="0.455696" stroke-linecap="round" stroke-linejoin="round"/>
<path d="M48.1433 55.498C48.1034 54.5127 48.0634 53.5275 48.0234 52.5422" stroke="#00AE42" stroke-width="0.455696" stroke-linecap="round" stroke-linejoin="round"/>
<path d="M48.2532 52.5327C48.2931 53.518 48.333 54.5032 48.373 55.4885" stroke="#00AE42" stroke-width="0.455696" stroke-linecap="round" stroke-linejoin="round"/>
<path d="M49.7275 62.052C49.5549 61.174 49.46 60.2823 49.444 59.3874C49.4393 59.167 49.439 58.9468 49.4428 58.7264C49.4467 58.5035 49.4548 58.2809 49.4671 58.0584C49.492 57.6077 49.5333 57.1582 49.5912 56.7106C49.7058 55.8232 49.8828 54.945 50.1209 54.0828C50.2409 53.6481 50.3768 53.2179 50.5282 52.7933C50.6769 52.376 50.8413 51.9645 51.0212 51.5598C51.1145 51.3501 51.2119 51.1426 51.3138 50.937C51.414 50.7348 51.5183 50.5349 51.6272 50.3371C51.8381 49.953 52.0664 49.5788 52.3114 49.2157C52.5683 48.8342 52.8461 48.4674 53.1437 48.1172C53.2863 47.9498 53.4334 47.787 53.5858 47.6286C53.7334 47.4753 53.8853 47.327 54.0425 47.1837C54.3841 46.8701 54.7514 46.586 55.1404 46.3344C55.4993 46.1021 55.8802 45.9062 56.2775 45.7497C57.1062 45.4107 58.014 45.3182 58.8933 45.4832" stroke="#00AE42" stroke-width="0.455696" stroke-linecap="round" stroke-linejoin="round"/>
<path d="M54.29 68.0031C54.0276 67.9467 53.7711 67.8655 53.5239 67.7606C53.2767 67.6557 53.0392 67.5291 52.814 67.3822C52.3649 67.0858 51.9614 66.7245 51.6165 66.31C50.9365 65.471 50.4217 64.5091 50.0996 63.4758" stroke="#00AE42" stroke-width="0.455696" stroke-linecap="round" stroke-linejoin="round"/>
<path d="M50.6319 63.9965C50.2941 63.0818 50.0636 62.1305 49.945 61.162C49.9299 61.0447 49.9162 60.9272 49.9039 60.8096C49.8914 60.6908 49.8803 60.5718 49.8706 60.4528C49.8509 60.2112 49.8368 59.9695 49.8279 59.7272C49.8189 59.4811 49.8154 59.235 49.8171 58.9887C49.8188 58.7391 49.8259 58.4898 49.8382 58.2405C49.8622 57.7554 49.9054 57.2715 49.9677 56.7899C50.0304 56.3035 50.1119 55.8198 50.2121 55.3399C50.3121 54.8598 50.4308 54.3838 50.5678 53.9131C50.6359 53.6793 50.7084 53.4471 50.7855 53.2162C50.8621 52.9872 50.9431 52.76 51.0287 52.5342C51.3723 51.6213 51.7968 50.7412 52.297 49.9049C52.4283 49.687 52.565 49.4731 52.7079 49.2628C52.7779 49.1598 52.8492 49.0579 52.9221 48.9569C52.9939 48.8574 53.0671 48.759 53.1418 48.6617C53.4283 48.2866 53.7382 47.9303 54.0696 47.5948C54.1617 47.5019 54.2555 47.4109 54.3513 47.3219C54.4451 47.2346 54.5405 47.1494 54.6379 47.0661C54.8267 46.9047 55.0212 46.752 55.2235 46.6082C55.6014 46.3371 56.0058 46.1057 56.4304 45.9174C56.8872 45.714 57.3706 45.5774 57.8658 45.5117C58.101 45.4815 58.3383 45.4702 58.5753 45.4779C58.8085 45.4855 59.0406 45.5123 59.2694 45.5581" stroke="#00AE42" stroke-width="0.455696" stroke-linecap="round" stroke-linejoin="round"/>
<path d="M54.6656 68.0835C53.9788 67.9311 53.3368 67.6195 52.7905 67.1735C52.2463 66.7275 51.7804 66.1925 51.4124 65.5908" stroke="#00AE42" stroke-width="0.455696" stroke-linecap="round" stroke-linejoin="round"/>
<path d="M44.5498 1.54443L81.2443 7.93081" stroke="#C2C2C2" stroke-width="0.455696" stroke-linecap="round" stroke-linejoin="round"/>
<path d="M41.2241 2.19965L43.7081 1.56006" stroke="#C2C2C2" stroke-width="0.455696" stroke-linecap="round" stroke-linejoin="round"/>
<path d="M81.3701 8.16444C81.3962 8.15731 81.4216 8.14918 81.4461 8.13749C81.4589 8.13347 81.4706 8.12642 81.4802 8.11694C81.4897 8.10747 81.4969 8.09584 81.5011 8.08301" stroke="#C2C2C2" stroke-width="0.455696" stroke-linecap="round" stroke-linejoin="round"/>
<path d="M40.8483 22.0506C40.7264 21.9912 40.6322 21.8864 40.5857 21.7583C40.5391 21.631 40.5325 21.4923 40.5667 21.3611C40.5997 21.2296 40.6687 21.1101 40.7658 21.0161C40.8622 20.921 40.9871 20.8606 41.121 20.8442" stroke="#C2C2C2" stroke-width="0.455696" stroke-linecap="round" stroke-linejoin="round"/>
<path d="M41.4761 20.9287C41.5675 20.9724 41.6438 21.0425 41.6955 21.1301C41.7469 21.2176 41.7757 21.3167 41.7793 21.4183" stroke="#C2C2C2" stroke-width="0.455696" stroke-linecap="round" stroke-linejoin="round"/>
<path d="M41.2058 20.8835C41.0718 20.9 40.9469 20.9604 40.8505 21.0554C40.7534 21.1494 40.6844 21.2689 40.6515 21.4004C40.6172 21.5317 40.6238 21.6704 40.6704 21.7978C40.7169 21.9259 40.8111 22.0307 40.933 22.0901" stroke="#C2C2C2" stroke-width="0.455696" stroke-linecap="round" stroke-linejoin="round"/>
<path d="M41.1204 20.8438C41.2129 20.8332 41.3065 20.8487 41.3909 20.8886" stroke="#C2C2C2" stroke-width="0.455696" stroke-linecap="round" stroke-linejoin="round"/>
<path d="M41.2058 20.8848C41.2983 20.8743 41.3919 20.8898 41.4763 20.9296" stroke="#C2C2C2" stroke-width="0.455696" stroke-linecap="round" stroke-linejoin="round"/>
<path d="M40.8393 27.4267C40.7183 27.3667 40.6252 27.2617 40.5796 27.1339C40.5341 27.0069 40.5282 26.8688 40.5628 26.7383C40.5961 26.6075 40.6651 26.4887 40.762 26.3953C40.8582 26.3008 40.9824 26.2407 41.1158 26.2241" stroke="#C2C2C2" stroke-width="0.455696" stroke-linecap="round" stroke-linejoin="round"/>
<path d="M41.1157 26.2235C41.2096 26.2128 41.3046 26.2284 41.39 26.2684" stroke="#C2C2C2" stroke-width="0.455696" stroke-linecap="round" stroke-linejoin="round"/>
<path d="M47.363 49.2446C47.3634 49.252 47.3663 49.2571 47.3708 49.2624C47.3773 49.27 47.3851 49.275 47.3936 49.2797C47.4059 49.2865 47.4187 49.2915 47.4319 49.296C47.4493 49.3019 47.467 49.3065 47.485 49.3105C47.5324 49.321 47.5801 49.3273 47.6283 49.332C47.7248 49.3415 47.8211 49.344 47.918 49.3426C48.1115 49.3421 48.3044 49.3204 48.4932 49.2777" stroke="#00AE42" stroke-width="0.455696" stroke-linecap="round" stroke-linejoin="round"/>
<path d="M48.6524 49.386C48.6531 49.4016 48.6377 49.4145 48.6273 49.4218C48.6147 49.4306 48.6013 49.4371 48.5873 49.4431C48.5593 49.4551 48.5305 49.4639 48.5012 49.4716" stroke="#00AE42" stroke-width="0.455696" stroke-linecap="round" stroke-linejoin="round"/>
<path d="M48.3445 49.5039L48.3487 49.6072" stroke="#00AE42" stroke-width="0.455696" stroke-linecap="round" stroke-linejoin="round"/>
<path d="M48.5399 49.5991C48.5401 49.6048 48.5382 49.609 48.5351 49.6135C48.5307 49.6198 48.5252 49.6242 48.519 49.6285C48.5103 49.6345 48.501 49.6393 48.4914 49.6436C48.4787 49.6493 48.4657 49.654 48.4525 49.6583C48.4173 49.6697 48.3816 49.6779 48.3454 49.6848C48.2729 49.6988 48.2 49.7073 48.1265 49.7131C47.9797 49.7256 47.8321 49.7242 47.6855 49.7092" stroke="#00AE42" stroke-width="0.455696" stroke-linecap="round" stroke-linejoin="round"/>
<path d="M48.5393 49.5991L48.5477 49.807" stroke="#00AE42" stroke-width="0.455696" stroke-linecap="round" stroke-linejoin="round"/>
<path d="M47.5094 49.8498L47.501 49.6418" stroke="#00AE42" stroke-width="0.455696" stroke-linecap="round" stroke-linejoin="round"/>
<path d="M48.2712 49.6528C48.29 49.6476 48.3083 49.6419 48.3257 49.6326" stroke="#00AE42" stroke-width="0.455696" stroke-linecap="round" stroke-linejoin="round"/>
<path d="M47.6936 49.9173C47.8402 49.9323 47.9878 49.9336 48.1346 49.9212C48.2081 49.9154 48.281 49.9068 48.3535 49.8929C48.3897 49.8859 48.4254 49.8778 48.4606 49.8663C48.4738 49.862 48.4868 49.8573 48.4995 49.8516C48.5091 49.8473 48.5184 49.8426 48.5271 49.8365C48.5332 49.8323 48.5388 49.8278 48.5431 49.8215C48.5463 49.817 48.5481 49.8128 48.5479 49.8071" stroke="#00AE42" stroke-width="0.455696" stroke-linecap="round" stroke-linejoin="round"/>
<path d="M48.3555 49.531C48.3893 49.5351 48.4227 49.5403 48.4559 49.5488C48.4724 49.553 48.4886 49.5578 48.5043 49.5649C48.5157 49.57 48.5389 49.5817 48.5396 49.5986" stroke="#00AE42" stroke-width="0.455696" stroke-linecap="round" stroke-linejoin="round"/>
<path d="M52.6895 62.3003C52.5061 61.2526 52.4302 60.1888 52.463 59.1255C52.4933 58.0621 52.6161 57.0034 52.8299 55.9616C52.9362 55.4409 53.0647 54.925 53.2152 54.4154C53.2908 54.1592 53.372 53.905 53.4588 53.6525C53.5448 53.4024 53.6362 53.1545 53.7334 52.9086C54.1202 51.9187 54.6072 50.9715 55.1866 50.082" stroke="#00AE42" stroke-width="0.455696" stroke-linecap="round" stroke-linejoin="round"/>
<path d="M54.2831 67.4718C53.8563 67.1959 53.4711 66.8597 53.1393 66.4735C52.7736 66.0478 52.4587 65.5803 52.2011 65.0807C51.9641 64.6236 51.7641 64.1479 51.6031 63.6583C51.4289 63.1298 51.2912 62.5898 51.1911 62.0422C51.1439 61.7873 51.1041 61.5316 51.0711 61.2745C51.0543 61.1435 51.0393 61.0124 51.026 60.881C51.0126 60.7481 51.0009 60.6151 50.9909 60.482C50.9505 59.9361 50.9374 59.3885 50.9516 58.8413C50.9651 58.3088 51.0025 57.7772 51.0635 57.248C51.1252 56.7119 51.2102 56.1788 51.3183 55.6502C51.4261 55.1215 51.557 54.5977 51.7106 54.0805C51.7868 53.824 51.8684 53.5695 51.9559 53.3166C52.0424 53.0663 52.1344 52.8182 52.2322 52.5721C52.6241 51.5745 53.1184 50.6208 53.707 49.7265C53.786 49.6078 53.8668 49.4904 53.9497 49.3743C54.0311 49.2602 54.1144 49.1475 54.1996 49.0362C54.3658 48.8193 54.5387 48.6089 54.7199 48.4046C55.0601 48.0185 55.4307 47.6608 55.8282 47.335C56.2605 46.9788 56.7328 46.675 57.2355 46.4297C57.6917 46.2071 58.1772 46.0517 58.6773 45.9683" stroke="#00AE42" stroke-width="0.455696" stroke-linecap="round" stroke-linejoin="round"/>
<path d="M54.0879 67.1259C53.9103 66.9722 53.7423 66.8074 53.5852 66.6324C53.5038 66.5421 53.4253 66.4495 53.3493 66.3545C53.2716 66.2573 53.1968 66.158 53.1245 66.0566C52.8198 65.6243 52.5584 65.1626 52.344 64.6784C52.1454 64.2316 51.9784 63.7713 51.8444 63.3008C51.7006 62.7973 51.588 62.2854 51.5072 61.7679C51.353 60.7667 51.295 59.7527 51.3341 58.7402C51.3712 57.7278 51.4921 56.7202 51.6955 55.7279C51.7974 55.229 51.9196 54.7345 52.0621 54.2457C52.1328 54.0031 52.2085 53.7622 52.2892 53.5228C52.3692 53.2855 52.4541 53.0501 52.5442 52.8165C52.9051 51.8706 53.3559 50.962 53.8902 50.1033C54.0314 49.8785 54.1786 49.6583 54.3329 49.4424C54.4825 49.233 54.638 49.0288 54.8006 48.8295C55.1081 48.4506 55.442 48.0941 55.7996 47.7627C56.1865 47.4029 56.6079 47.0827 57.0575 46.8066C57.4672 46.555 57.9054 46.3538 58.3627 46.2075" stroke="#00AE42" stroke-width="0.455696" stroke-linecap="round" stroke-linejoin="round"/>
<path d="M53.7816 66.5043C53.643 66.3357 53.5138 66.161 53.392 65.9797C53.2651 65.7907 53.1476 65.5966 53.0379 65.3971C52.8061 64.9724 52.6079 64.5299 52.4452 64.0738C52.1356 63.196 51.9247 62.2861 51.8163 61.3611C51.7886 61.1358 51.7662 60.9101 51.7487 60.6838C51.7309 60.4534 51.7182 60.2228 51.7104 59.9918C51.7024 59.7572 51.6996 59.5226 51.7015 59.2879C51.7035 59.05 51.7105 58.8125 51.7222 58.575C51.7452 58.1122 51.786 57.6505 51.8445 57.191C51.9034 56.7269 51.9798 56.2652 52.0735 55.8069C52.167 55.3486 52.2778 54.8941 52.4056 54.4443C52.532 53.9989 52.6754 53.5586 52.8356 53.1244C52.9179 52.9014 53.0047 52.6803 53.0962 52.4609C53.1864 52.2443 53.281 52.0299 53.3803 51.8173C53.4781 51.6081 53.5802 51.4012 53.687 51.1965C53.7918 50.9955 53.9009 50.7971 54.0147 50.601C54.4769 49.7943 55.0274 49.0423 55.6559 48.3591C55.9843 48.0048 56.34 47.6771 56.7195 47.3791C56.8986 47.2395 57.0826 47.1079 57.2734 46.9848C57.3657 46.9252 57.4593 46.8679 57.5543 46.8128C57.6474 46.7588 57.7417 46.7072 57.8373 46.658" stroke="#00AE42" stroke-width="0.455696" stroke-linecap="round" stroke-linejoin="round"/>
<path d="M51.2083 64.9286C50.9928 64.4928 50.8093 64.0417 50.6592 63.5789C50.4979 63.0825 50.3683 62.5763 50.2711 62.0634C50.2251 61.8235 50.1856 61.5828 50.1521 61.3408C50.1178 61.0931 50.0899 60.8449 50.0679 60.5959C50.023 60.0831 50.0022 59.5685 50.0055 59.0538C50.0084 58.5533 50.0323 58.0532 50.077 57.5548C50.0996 57.3022 50.1273 57.0504 50.1601 56.7989C50.1931 56.5463 50.2312 56.2946 50.2743 56.0434C50.36 55.5446 50.4655 55.0495 50.5906 54.5592C50.7147 54.0722 50.8584 53.5905 51.0214 53.1153C51.105 52.8717 51.1936 52.6302 51.2876 52.3905C51.3805 52.1537 51.4783 51.9192 51.5814 51.6867C51.683 51.4578 51.7895 51.2314 51.9014 51.0074C52.0112 50.7873 52.126 50.5701 52.246 50.3556C52.7328 49.4728 53.3206 48.6506 53.9973 47.9055C54.1792 47.7082 54.3677 47.5186 54.5646 47.3366C54.7535 47.1621 54.9485 46.9962 55.1518 46.839C55.5309 46.543 55.9384 46.2859 56.3682 46.0715C56.8324 45.8389 57.327 45.674 57.8373 45.5817C58.3148 45.4964 58.8029 45.4904 59.2823 45.5641" stroke="#00AE42" stroke-width="0.455696" stroke-linecap="round" stroke-linejoin="round"/>
<path d="M48.3445 54.7857C48.4724 54.1969 48.6286 53.6148 48.8125 53.0412C48.996 52.4676 49.2086 51.9037 49.4494 51.352C49.6899 50.7997 49.9615 50.2616 50.2628 49.7404C50.4161 49.4759 50.5771 49.2169 50.7471 48.9629C50.83 48.839 50.9149 48.7166 51.002 48.5955C51.0875 48.4765 51.1751 48.3591 51.2647 48.2433C51.9868 47.2775 52.8884 46.4623 53.9195 45.8431C54.4387 45.5407 55.0016 45.3217 55.5878 45.1943C56.1749 45.068 56.7812 45.0624 57.3705 45.1779" stroke="#00AE42" stroke-width="0.455696" stroke-linecap="round" stroke-linejoin="round"/>
<path d="M52.7716 67.6773C52.4928 67.6174 52.2207 67.5295 51.9592 67.415C51.6915 67.2979 51.4354 67.1555 51.1945 66.9896C51.0794 66.9108 50.9682 66.8274 50.86 66.7393C50.7493 66.6492 50.6426 66.5549 50.5392 66.4564C50.4332 66.3553 50.3314 66.2504 50.2332 66.1417C50.1323 66.03 50.0357 65.9149 49.9429 65.7964C49.2457 64.8667 48.7335 63.8102 48.4344 62.6848C48.3959 62.5487 48.3597 62.4119 48.3259 62.2745C48.2915 62.1346 48.2595 61.9943 48.2298 61.8534C48.1689 61.5644 48.1178 61.2743 48.0754 60.9821C48.055 60.841 48.0366 60.6996 48.0203 60.558C48.0037 60.4145 47.9893 60.2709 47.9768 60.1271C47.9513 59.8343 47.9342 59.5413 47.9247 59.2476C47.9154 58.9594 47.9137 58.6714 47.919 58.3831C47.9244 58.0905 47.9371 57.7986 47.9569 57.5066C47.9963 56.9272 48.0628 56.35 48.1563 55.7769" stroke="#00AE42" stroke-width="0.455696" stroke-linecap="round" stroke-linejoin="round"/>
<path d="M53.3151 65.2899C52.9527 64.5756 52.6747 63.821 52.4867 63.0415C52.3925 62.6602 52.3154 62.2748 52.2557 61.8866C52.2247 61.6862 52.198 61.4855 52.1755 61.284C52.1525 61.0788 52.1338 60.8733 52.1192 60.6674C52.0637 59.8674 52.0651 59.0644 52.1235 58.2647C52.152 57.866 52.1937 57.4694 52.2482 57.0735C52.3032 56.6748 52.3709 56.2789 52.4514 55.8846C52.6116 55.099 52.8227 54.3249 53.0832 53.5671C53.1495 53.3747 53.2191 53.1835 53.292 52.9935C53.3642 52.8053 53.4396 52.6185 53.5184 52.4329C53.6729 52.0685 53.8406 51.7099 54.0212 51.3578C54.385 50.6442 54.8093 49.9635 55.2894 49.3234C55.5373 48.9944 55.8031 48.6795 56.0856 48.3801C56.3513 48.098 56.6343 47.8331 56.9329 47.5867" stroke="#00AE42" stroke-width="0.455696" stroke-linecap="round" stroke-linejoin="round"/>
<path d="M54.3999 67.6633C54.1654 67.552 53.9408 67.4208 53.7285 67.271C53.5075 67.1152 53.299 66.9422 53.105 66.7535C52.6874 66.343 52.3262 65.8781 52.0311 65.3712C51.7603 64.9093 51.5312 64.4238 51.3467 63.9207C51.1454 63.3735 50.9856 62.8118 50.8686 62.2403C50.6471 61.1425 50.5473 60.0234 50.5711 58.9034C50.5806 58.3477 50.6162 57.7929 50.6777 57.2406C50.7087 56.9609 50.7461 56.6823 50.7899 56.4043C50.8338 56.1254 50.884 55.8478 50.9405 55.5711C51.0532 55.0188 51.191 54.4719 51.3535 53.9323C51.4341 53.6649 51.5207 53.3997 51.6136 53.1363C51.7054 52.8758 51.8032 52.6179 51.9073 52.3621C52.1224 51.832 52.3653 51.3139 52.6351 50.8099C52.7659 50.5661 52.9031 50.3263 53.0475 50.0904C53.188 49.8606 53.3348 49.6355 53.4887 49.4146C53.5743 49.2918 53.6619 49.1706 53.7518 49.051C53.8401 48.9335 53.9304 48.8177 54.0229 48.7037C54.2027 48.482 54.39 48.2678 54.5867 48.0609C54.9535 47.672 55.3544 47.3171 55.7843 47.0005C56.2543 46.6521 56.7686 46.3686 57.3133 46.1577C57.4411 46.1093 57.5701 46.0659 57.7012 46.0275C57.8294 45.99 57.9584 45.9576 58.0891 45.9305C58.2173 45.904 58.3459 45.8828 58.4758 45.8671C58.6036 45.8516 58.7314 45.8417 58.86 45.8374" stroke="#00AE42" stroke-width="0.455696" stroke-linecap="round" stroke-linejoin="round"/>
<path d="M48.8875 52.2249C49.0587 51.763 49.2498 51.3088 49.46 50.8636C49.5663 50.6387 49.6776 50.4165 49.7942 50.1969C49.9086 49.9815 50.0278 49.7692 50.1525 49.5596C50.4033 49.1364 50.677 48.7273 50.9722 48.3342C51.0481 48.2335 51.1254 48.134 51.2043 48.0358C51.2819 47.9391 51.361 47.8438 51.4417 47.7497C51.5991 47.566 51.7619 47.388 51.9312 47.2155C52.2745 46.8637 52.6457 46.5407 53.0413 46.25C53.1438 46.1751 53.248 46.1029 53.3541 46.0333C53.4578 45.9652 53.563 45.8999 53.67 45.8374C53.8775 45.7162 54.0897 45.6068 54.3093 45.5095C54.5378 45.4079 54.7728 45.3218 55.0126 45.2517C55.2431 45.1843 55.4781 45.1338 55.7157 45.1007C55.9604 45.0664 56.2075 45.0524 56.4544 45.0589C56.6971 45.0653 56.9389 45.0924 57.177 45.1401" stroke="#00AE42" stroke-width="0.455696" stroke-linecap="round" stroke-linejoin="round"/>
<path d="M48.3149 54.0545C48.4564 53.5038 48.6231 52.9601 48.8145 52.425" stroke="#00AE42" stroke-width="0.455696" stroke-linecap="round" stroke-linejoin="round"/>
<path d="M52.5787 67.6358C52.2831 67.5721 51.995 67.4772 51.7192 67.3527C51.5787 67.2895 51.4424 67.2193 51.309 67.1422C51.173 67.0635 51.0417 66.9785 50.914 66.8869C50.418 66.5244 49.9818 66.0854 49.6217 65.5861C48.9133 64.5762 48.4073 63.4368 48.1321 62.2318C47.9862 61.6328 47.8802 61.0246 47.8149 60.4114C47.7821 60.1081 47.7584 59.8044 47.7432 59.4996C47.7276 59.1883 47.7209 58.8771 47.7227 58.5654C47.7265 57.9494 47.762 57.3339 47.829 56.7215C47.8622 56.4154 47.903 56.1107 47.9513 55.8066C47.9998 55.5014 48.0556 55.1979 48.1188 54.8955" stroke="#00AE42" stroke-width="0.455696" stroke-linecap="round" stroke-linejoin="round"/>
<path d="M48.3806 55.6544C48.4346 55.3397 48.4964 55.0269 48.5661 54.7154C48.6357 54.4044 48.713 54.0957 48.7983 53.7887C48.884 53.4797 48.9776 53.1735 49.0792 52.8694C49.1798 52.5686 49.2879 52.2709 49.4042 51.9759C49.6373 51.3824 49.9044 50.803 50.2041 50.2406C50.2807 50.097 50.3596 49.9548 50.4409 49.8138C50.521 49.6748 50.6032 49.5373 50.6878 49.401C50.8531 49.1348 51.0267 48.8748 51.2099 48.6208C51.9392 47.573 52.8652 46.6793 53.9358 45.9901C54.4751 45.6529 55.0648 45.4052 55.6823 45.2566C55.9953 45.1836 56.3149 45.1431 56.6361 45.1358C56.9485 45.129 57.2608 45.1564 57.5673 45.2176" stroke="#00AE42" stroke-width="0.455696" stroke-linecap="round" stroke-linejoin="round"/>
<path d="M52.9679 67.7175C52.7068 67.6614 52.4514 67.5807 52.2052 67.4765C51.9538 67.3703 51.7124 67.2416 51.4838 67.092C51.0323 66.7931 50.6271 66.4289 50.281 66.0112C49.599 65.1657 49.0836 64.1968 48.7626 63.1567C48.5954 62.6402 48.4623 62.1131 48.3643 61.5789C48.3153 61.3152 48.274 61.0505 48.2399 60.7844C48.2225 60.6489 48.207 60.5131 48.1934 60.3771C48.1795 60.2396 48.1675 60.1019 48.1574 59.964C48.1178 59.4225 48.1045 58.8794 48.1177 58.3365C48.1307 57.7934 48.168 57.2512 48.2296 56.7114" stroke="#00AE42" stroke-width="0.455696" stroke-linecap="round" stroke-linejoin="round"/>
<path d="M52.4243 66.4038C52.7121 66.7032 53.0289 66.9729 53.37 67.2087C53.7124 67.4427 54.0823 67.6332 54.4712 67.7756" stroke="#00AE42" stroke-width="0.455696" stroke-linecap="round" stroke-linejoin="round"/>
<path d="M54.6848 68.0886C54.454 68.0193 54.2282 67.934 54.0092 67.8333C53.8996 67.7829 53.7921 67.7289 53.6862 67.671C53.5803 67.6131 53.4766 67.5517 53.3749 67.4867C53.2732 67.4217 53.1739 67.3535 53.0767 67.2819C52.9794 67.2103 52.8846 67.1357 52.7919 67.0583C52.6992 66.9809 52.6088 66.901 52.5204 66.8186C52.432 66.7363 52.3459 66.6517 52.2615 66.5652" stroke="#00AE42" stroke-width="0.455696" stroke-linecap="round" stroke-linejoin="round"/>
<path d="M53.0107 64.1916C52.5552 62.8697 52.3073 61.4844 52.2762 60.0856C52.265 59.7394 52.2648 59.3937 52.275 59.0474C52.2853 58.6952 52.3062 58.3442 52.3374 57.9932C52.3993 57.2977 52.5005 56.6062 52.6406 55.9223C52.7801 55.2381 52.9582 54.5625 53.174 53.8988C53.283 53.5639 53.4013 53.233 53.53 52.9053C53.6564 52.5832 53.7922 52.2656 53.9382 51.952C54.5152 50.6792 55.2863 49.505 56.2234 48.4719" stroke="#00AE42" stroke-width="0.455696" stroke-linecap="round" stroke-linejoin="round"/>
<path d="M49.1076 60.1687C49.078 59.7652 49.0632 59.3607 49.0632 58.9562C49.0631 58.7501 49.0667 58.5443 49.0739 58.3384C49.0812 58.1305 49.0921 57.9229 49.1065 57.7154C49.1348 57.3083 49.1767 56.9033 49.2317 56.499C49.2872 56.0918 49.3558 55.6874 49.4375 55.2847C49.6001 54.4824 49.8147 53.6917 50.0802 52.9178C50.1477 52.7212 50.2186 52.526 50.2929 52.3319C50.3665 52.1397 50.4433 51.9489 50.5237 51.7595C50.6812 51.3872 50.8523 51.0209 51.0366 50.6614C51.4078 49.9324 51.841 49.2371 52.3312 48.5833C52.4599 48.4131 52.5927 48.2466 52.7302 48.0836C52.8639 47.9252 53.0016 47.7707 53.144 47.6202C53.4153 47.3321 53.7042 47.0614 54.0091 46.8097C54.1756 46.6727 54.3466 46.5425 54.5233 46.4192C54.6935 46.3005 54.8676 46.1892 55.0473 46.0856C55.3864 45.8885 55.7435 45.7246 56.1137 45.5961C56.8839 45.32 57.7132 45.255 58.5166 45.4079" stroke="#00AE42" stroke-width="0.455696" stroke-linecap="round" stroke-linejoin="round"/>
<path d="M53.9152 67.9212C53.223 67.7675 52.5762 67.4524 52.027 67.0013C51.4794 66.5498 51.0114 66.0085 50.6427 65.4003C49.9206 64.1735 49.447 62.8147 49.2495 61.4026" stroke="#00AE42" stroke-width="0.455696" stroke-linecap="round" stroke-linejoin="round"/>
<path d="M48.5439 49.7141C48.5872 49.721 48.6373 49.7311 48.6789 49.746C48.6998 49.7535 48.7227 49.7636 48.7406 49.7775C48.7589 49.7917 48.7733 49.8111 48.7745 49.8358" stroke="#00AE42" stroke-width="0.455696" stroke-linecap="round" stroke-linejoin="round"/>
<path d="M47.3535 51.8965C47.3523 51.8598 47.3512 51.8322 47.3392 51.7967C47.3281 51.764 47.312 51.7353 47.2919 51.7077C47.2718 51.6801 47.2491 51.6559 47.2236 51.6335C47.1928 51.6066 47.176 51.5967 47.1438 51.5718" stroke="#00AE42" stroke-width="0.455696" stroke-linecap="round" stroke-linejoin="round"/>
<path d="M48.8923 52.3298C48.8932 52.3532 48.8821 52.3732 48.8665 52.3888C48.8512 52.404 48.8308 52.4161 48.8118 52.4254C48.7741 52.4438 48.7278 52.4582 48.6875 52.4688" stroke="#00AE42" stroke-width="0.455696" stroke-linecap="round" stroke-linejoin="round"/>
<path d="M48.6877 52.4692C48.4642 52.5194 48.2358 52.5442 48.0068 52.5432C47.896 52.5438 47.7743 52.5393 47.6641 52.5259C47.6084 52.5192 47.5497 52.5098 47.4956 52.4939C47.4672 52.4909 47.4403 52.4798 47.418 52.4618C47.3958 52.4439 47.3792 52.4198 47.3701 52.3926" stroke="#00AE42" stroke-width="0.455696" stroke-linecap="round" stroke-linejoin="round"/>
<path d="M47.3028 50.3916C47.2973 50.227 47.2917 50.0625 47.2861 49.8979" stroke="#00AE42" stroke-width="0.455696" stroke-linecap="round" stroke-linejoin="round"/>
<path d="M48.7749 49.8362L48.8928 52.3295" stroke="#00AE42" stroke-width="0.455696" stroke-linecap="round" stroke-linejoin="round"/>
<path d="M47.1472 50.5536C47.2009 50.507 47.2222 50.4817 47.2733 50.4324" stroke="#00AE42" stroke-width="0.455696" stroke-linecap="round" stroke-linejoin="round"/>
<path d="M47.0144 50.6729C46.9701 50.7208 46.9396 50.7766 46.9194 50.8383" stroke="#00AE42" stroke-width="0.455696" stroke-linecap="round" stroke-linejoin="round"/>
<path d="M83.1932 7.97957C83.1262 7.87131 83.0406 7.77591 82.9405 7.69777C82.8405 7.61901 82.7232 7.56566 82.5984 7.54224" stroke="#C2C2C2" stroke-width="0.455696" stroke-linecap="round" stroke-linejoin="round"/>
<path d="M47.302 50.3754L47.0168 50.2764" stroke="#00AE42" stroke-width="0.455696" stroke-linecap="round" stroke-linejoin="round"/>
<path d="M70.7053 5.80685L71.3259 5.64038" stroke="#C2C2C2" stroke-width="0.455696" stroke-linecap="round" stroke-linejoin="round"/>
<path d="M41.2006 26.2637C41.0672 26.2803 40.9429 26.3404 40.8467 26.4349C40.7499 26.5283 40.6809 26.6471 40.6475 26.7778C40.6129 26.9084 40.6188 27.0465 40.6644 27.1736C40.71 27.3014 40.8031 27.4064 40.924 27.4664" stroke="#C2C2C2" stroke-width="0.455696" stroke-linecap="round" stroke-linejoin="round"/>
<path d="M48.3247 49.632C48.3325 49.628 48.3496 49.6185 48.3491 49.6064" stroke="#00AE42" stroke-width="0.455696" stroke-linecap="round" stroke-linejoin="round"/>
<path d="M42.9753 52.8013L42.976 95.273" stroke="#C2C2C2" stroke-width="0.455696" stroke-linecap="round" stroke-linejoin="round"/>
<path d="M41.2009 26.2652C41.2948 26.2546 41.3898 26.2701 41.4752 26.3102" stroke="#C2C2C2" stroke-width="0.455696" stroke-linecap="round" stroke-linejoin="round"/>
<path d="M53.5693 3.6834C53.5798 3.59939 53.5902 3.51538 53.6007 3.4314" stroke="#C2C2C2" stroke-width="0.455696" stroke-linecap="round" stroke-linejoin="round"/>
<path d="M71.5891 5.63053C71.5015 5.61421 71.4117 5.61806 71.3257 5.64182" stroke="#C2C2C2" stroke-width="0.455696" stroke-linecap="round" stroke-linejoin="round"/>
<path d="M82.5983 7.54074L71.5889 5.62891" stroke="#C2C2C2" stroke-width="0.455696" stroke-linecap="round" stroke-linejoin="round"/>
<path d="M63.3516 5.44189C63.3524 5.44205 63.3533 5.44219 63.3542 5.44234L63.3516 5.44189Z" stroke="#C2C2C2" stroke-width="0.455696" stroke-linecap="round" stroke-linejoin="round"/>
<path d="M63.7086 5.17804C63.7082 5.17825 63.7079 5.17808 63.7075 5.17807C63.7066 5.17801 63.7057 5.17794 63.7049 5.17782C63.7016 5.17746 63.6983 5.177 63.695 5.17652C63.6905 5.17589 63.686 5.17523 63.6815 5.17455C63.6725 5.17317 63.6635 5.17177 63.6545 5.17034C63.6365 5.16749 63.6186 5.16458 63.6006 5.16162" stroke="#C2C2C2" stroke-width="0.455696" stroke-linecap="round" stroke-linejoin="round"/>
<path d="M54.1047 4.95264C54.1047 4.9707 54.126 4.98447 54.1382 4.99128C54.1539 5.00001 54.1704 5.00626 54.1874 5.0118C54.2213 5.02291 54.2558 5.03033 54.2909 5.03646" stroke="#C2C2C2" stroke-width="0.455696" stroke-linecap="round" stroke-linejoin="round"/>
<path d="M63.5933 6.52734C63.4779 6.55362 63.36 6.56678 63.2418 6.56656C63.1296 6.56808 62.9996 6.56138 62.8887 6.54181" stroke="#C2C2C2" stroke-width="0.455696" stroke-linecap="round" stroke-linejoin="round"/>
<path d="M63.7022 6.4624C63.6987 6.47299 63.6928 6.48258 63.6849 6.49035C63.6769 6.49812 63.6673 6.50383 63.6566 6.50698C63.6363 6.51645 63.6153 6.52304 63.5938 6.52878" stroke="#C2C2C2" stroke-width="0.455696" stroke-linecap="round" stroke-linejoin="round"/>
<path d="M63.3499 5.37939C63.433 5.39269 63.5162 5.40598 63.5994 5.41927" stroke="#C2C2C2" stroke-width="0.455696" stroke-linecap="round" stroke-linejoin="round"/>
<path d="M63.35 5.37917L63.0627 5.33325" stroke="#C2C2C2" stroke-width="0.455696" stroke-linecap="round" stroke-linejoin="round"/>
<path d="M62.3582 5.21924C62.5458 5.252 62.8746 5.3056 63.0632 5.33299" stroke="#C2C2C2" stroke-width="0.455696" stroke-linecap="round" stroke-linejoin="round"/>
<path d="M54.2905 5.03613C54.4113 5.05743 54.5557 5.06344 54.6776 5.05984" stroke="#C2C2C2" stroke-width="0.455696" stroke-linecap="round" stroke-linejoin="round"/>
<path d="M54.9194 3.64502L63.5182 5.14317" stroke="#C2C2C2" stroke-width="0.455696" stroke-linecap="round" stroke-linejoin="round"/>
<path d="M62.3896 4.96403L53.7869 3.46509" stroke="#C2C2C2" stroke-width="0.455696" stroke-linecap="round" stroke-linejoin="round"/>
<path d="M62.7007 6.4646C62.7224 6.49218 62.7531 6.51115 62.7874 6.51818C62.8208 6.52879 62.8547 6.53608 62.8892 6.54209" stroke="#C2C2C2" stroke-width="0.455696" stroke-linecap="round" stroke-linejoin="round"/>
<path d="M63.6012 5.1626L63.6005 5.1625L63.0945 5.08203" stroke="#C2C2C2" stroke-width="0.455696" stroke-linecap="round" stroke-linejoin="round"/>
<path d="M53.7111 3.44821C53.6928 3.44521 53.6744 3.44223 53.6561 3.43931C53.647 3.43787 53.6378 3.43643 53.6286 3.43504C53.624 3.43433 53.6195 3.43364 53.6148 3.433C53.6114 3.43251 53.608 3.43204 53.6046 3.43165C53.6037 3.43156 53.6028 3.43146 53.602 3.43141H53.6013L53.6011 3.43148" stroke="#C2C2C2" stroke-width="0.455696" stroke-linecap="round" stroke-linejoin="round"/>
<path d="M54.9196 3.6452C54.8029 3.62489 54.6862 3.60505 54.5694 3.58548C54.4527 3.56589 54.3359 3.54645 54.219 3.52783" stroke="#C2C2C2" stroke-width="0.455696" stroke-linecap="round" stroke-linejoin="round"/>
<path d="M62.3894 4.96411C62.5806 4.99743 62.9022 5.05166 63.0939 5.08212" stroke="#C2C2C2" stroke-width="0.455696" stroke-linecap="round" stroke-linejoin="round"/>
<path d="M54.2191 3.52699L54.2184 3.52689L53.7104 3.44604" stroke="#C2C2C2" stroke-width="0.455696" stroke-linecap="round" stroke-linejoin="round"/>
<path d="M62.3792 6.33276C62.4406 6.34354 62.5021 6.35376 62.5631 6.36765C62.5908 6.37399 62.6263 6.38299 62.6527 6.39421C62.6661 6.39987 62.6819 6.40746 62.6914 6.41987C62.6966 6.42671 62.6985 6.43369 62.699 6.44209C62.6994 6.4498 62.6984 6.45741 62.701 6.46515" stroke="#C2C2C2" stroke-width="0.455696" stroke-linecap="round" stroke-linejoin="round"/>
<path d="M54.6777 5.05942C54.7331 5.05777 54.7885 5.05433 54.8439 5.05283C54.8993 5.05132 54.9547 5.05175 55.0101 5.05508C55.1257 5.06201 55.2258 5.07987 55.3394 5.09991" stroke="#C2C2C2" stroke-width="0.455696" stroke-linecap="round" stroke-linejoin="round"/>
<path d="M55.3389 5.1001L62.3783 6.33269" stroke="#C2C2C2" stroke-width="0.455696" stroke-linecap="round" stroke-linejoin="round"/>
<path d="M63.5188 5.14282C63.5506 5.14853 63.5823 5.15428 63.6141 5.16013C63.63 5.16305 63.6459 5.166 63.6617 5.16902C63.6697 5.17053 63.6776 5.17205 63.6855 5.17361C63.6914 5.17477 63.6973 5.17593 63.7032 5.17725C63.7047 5.17759 63.7062 5.17791 63.7076 5.17831C63.708 5.17841 63.7084 5.17851 63.7088 5.17865C63.7088 5.17865 63.7091 5.1786 63.7091 5.17887" stroke="#C2C2C2" stroke-width="0.455696" stroke-linecap="round" stroke-linejoin="round"/>
<path d="M62.1239 53.8477C62.112 53.8442 62.1 53.8412 62.0879 53.8384" stroke="#00AE42" stroke-width="0.455696" stroke-linecap="round" stroke-linejoin="round"/>
<path d="M61.3358 57.7012C61.3298 57.7004 61.3238 57.6995 61.3179 57.6985" stroke="#00AE42" stroke-width="0.455696" stroke-linecap="round" stroke-linejoin="round"/>
<path d="M43.708 1.56053C43.8459 1.52986 43.9866 1.51441 44.1278 1.51444C44.2617 1.51253 44.4168 1.52014 44.5493 1.54337" stroke="#C2C2C2" stroke-width="0.455696" stroke-linecap="round" stroke-linejoin="round"/>
<path d="M44.5515 1.54463C44.5495 1.54429 44.5476 1.54439 44.5457 1.54492L44.5515 1.54463Z" stroke="#C2C2C2" stroke-width="0.455696" stroke-linecap="round" stroke-linejoin="round"/>
<path d="M81.246 7.9294C81.244 7.92904 81.2422 7.92917 81.2402 7.92971L81.246 7.9294Z" stroke="#C2C2C2" stroke-width="0.455696" stroke-linecap="round" stroke-linejoin="round"/>
<path d="M81.2437 7.9292C81.2916 7.93753 81.3451 7.94924 81.3912 7.96551C81.4139 7.97352 81.4395 7.98431 81.4598 7.998C81.4709 8.00409 81.4805 8.01284 81.4876 8.02348C81.4946 8.03413 81.499 8.04635 81.5003 8.05908" stroke="#C2C2C2" stroke-width="0.455696" stroke-linecap="round" stroke-linejoin="round"/>
<path d="M78.917 8.835L81.3706 8.16431" stroke="#C2C2C2" stroke-width="0.455696" stroke-linecap="round" stroke-linejoin="round"/>
<path d="M78.9179 8.83545C78.9131 8.83675 78.9082 8.83766 78.9033 8.83837" stroke="#C2C2C2" stroke-width="0.455696" stroke-linecap="round" stroke-linejoin="round"/>
<path d="M43.7148 1.56033C43.7125 1.5599 43.7103 1.55998 43.708 1.56057L43.7148 1.56033Z" stroke="#C2C2C2" stroke-width="0.455696" stroke-linecap="round" stroke-linejoin="round"/>
<path d="M48.3457 49.5298C48.3495 49.5302 48.3533 49.5306 48.3571 49.5311L48.3457 49.5298Z" stroke="#00AE42" stroke-width="0.455696" stroke-linecap="round" stroke-linejoin="round"/>
<path d="M40.8923 22.0703C40.8773 22.0647 40.8627 22.0584 40.8484 22.0513" stroke="#C2C2C2" stroke-width="0.455696" stroke-linecap="round" stroke-linejoin="round"/>
<path d="M40.9331 22.0913C41.0178 22.1315 41.1118 22.1471 41.2047 22.1364" stroke="#C2C2C2" stroke-width="0.455696" stroke-linecap="round" stroke-linejoin="round"/>
<path d="M40.9332 22.0918L40.8484 22.0513" stroke="#C2C2C2" stroke-width="0.455696" stroke-linecap="round" stroke-linejoin="round"/>
<path d="M41.3914 20.8889L41.4762 20.9293" stroke="#C2C2C2" stroke-width="0.455696" stroke-linecap="round" stroke-linejoin="round"/>
<path d="M40.9238 27.4673C41.0095 27.5076 41.1049 27.5233 41.1992 27.5126" stroke="#C2C2C2" stroke-width="0.455696" stroke-linecap="round" stroke-linejoin="round"/>
<path d="M40.9238 27.4675L40.8391 27.4263" stroke="#C2C2C2" stroke-width="0.455696" stroke-linecap="round" stroke-linejoin="round"/>
<path d="M41.3896 26.27L41.4745 26.3111" stroke="#C2C2C2" stroke-width="0.455696" stroke-linecap="round" stroke-linejoin="round"/>
<path d="M47.371 49.4396L47.363 49.2446" stroke="#00AE42" stroke-width="0.455696" stroke-linecap="round" stroke-linejoin="round"/>
<path d="M48.6444 49.1902C48.645 49.2058 48.6296 49.2187 48.6193 49.226C48.6067 49.2347 48.5932 49.2413 48.5793 49.2473C48.5513 49.2593 48.5225 49.268 48.4932 49.2758" stroke="#00AE42" stroke-width="0.455696" stroke-linecap="round" stroke-linejoin="round"/>
<path d="M48.6448 49.1902L48.6527 49.3851" stroke="#00AE42" stroke-width="0.455696" stroke-linecap="round" stroke-linejoin="round"/>
<path d="M47.5149 49.1567C47.4855 49.1645 47.4567 49.1732 47.4286 49.1853C47.4146 49.1912 47.4011 49.1978 47.3885 49.2066C47.3781 49.2139 47.3627 49.2268 47.3633 49.2424" stroke="#00AE42" stroke-width="0.455696" stroke-linecap="round" stroke-linejoin="round"/>
<path d="M47.5144 49.1577C47.566 49.1438 47.6181 49.1338 47.6708 49.1255" stroke="#00AE42" stroke-width="0.455696" stroke-linecap="round" stroke-linejoin="round"/>
<path d="M47.501 49.6414C47.5003 49.6238 47.5242 49.6099 47.5356 49.6038C47.5514 49.5953 47.568 49.589 47.5849 49.5834C47.6189 49.5721 47.6534 49.5641 47.6884 49.5571" stroke="#00AE42" stroke-width="0.455696" stroke-linecap="round" stroke-linejoin="round"/>
<path d="M47.6849 49.7094C47.6511 49.7053 47.6177 49.7 47.5846 49.6916C47.568 49.6874 47.5519 49.6826 47.5363 49.6755C47.5248 49.6704 47.5017 49.6587 47.501 49.6418" stroke="#00AE42" stroke-width="0.455696" stroke-linecap="round" stroke-linejoin="round"/>
<path d="M47.4873 49.762C47.4941 49.7602 47.501 49.7585 47.5078 49.7568" stroke="#00AE42" stroke-width="0.455696" stroke-linecap="round" stroke-linejoin="round"/>
<path d="M59.9521 54.7534C59.9525 54.7544 59.9528 54.7554 59.9531 54.7564L59.9521 54.7534Z" stroke="#00AE42" stroke-width="0.455696" stroke-linecap="round" stroke-linejoin="round"/>
<path d="M47.37 52.3928C47.3645 52.2275 47.3588 52.0622 47.3533 51.897" stroke="#00AE42" stroke-width="0.455696" stroke-linecap="round" stroke-linejoin="round"/>
<path d="M47.2734 50.4335C47.2847 50.4224 47.2946 50.4106 47.3027 50.3967" stroke="#00AE42" stroke-width="0.455696" stroke-linecap="round" stroke-linejoin="round"/>
<path d="M47.2862 49.8962C47.2854 49.8733 47.2964 49.8539 47.3117 49.8386C47.3268 49.8237 47.3468 49.812 47.3654 49.803C47.4026 49.7849 47.4478 49.771 47.4874 49.7607" stroke="#00AE42" stroke-width="0.455696" stroke-linecap="round" stroke-linejoin="round"/>
<path d="M47.179 51.5973C47.1678 51.5893 47.1567 51.5812 47.1458 51.5728" stroke="#00AE42" stroke-width="0.455696" stroke-linecap="round" stroke-linejoin="round"/>
<path d="M49.0627 56.3269C49.0615 56.3388 49.0597 56.3505 49.0571 56.3622" stroke="#00AE42" stroke-width="0.455696" stroke-linecap="round" stroke-linejoin="round"/>
<path d="M48.967 54.7354C48.966 54.7356 48.9651 54.7359 48.9641 54.7362L48.967 54.7354Z" stroke="#00AE42" stroke-width="0.455696" stroke-linecap="round" stroke-linejoin="round"/>
<path d="M54.1023 67.9625C53.7974 67.8968 53.5005 67.7978 53.2169 67.6675C53.0763 67.603 52.9398 67.5317 52.8064 67.4532C52.6704 67.3732 52.5391 67.2868 52.4115 67.1938C51.909 66.8206 51.4687 66.3693 51.1073 65.8566C50.3974 64.8209 49.8951 63.6556 49.6287 62.426" stroke="#00AE42" stroke-width="0.455696" stroke-linecap="round" stroke-linejoin="round"/>
<path d="M53.7279 67.8818C52.9597 67.7095 52.2484 67.3413 51.6621 66.8126C51.0782 66.2847 50.5908 65.6577 50.2221 64.9602C50.0347 64.6141 49.8695 64.2562 49.7274 63.8889C49.657 63.7078 49.5917 63.5251 49.5312 63.3404C49.469 63.1506 49.4119 62.9594 49.3596 62.7666C49.1559 62.0051 49.0176 61.2273 48.9463 60.4419" stroke="#00AE42" stroke-width="0.455696" stroke-linecap="round" stroke-linejoin="round"/>
<path d="M47.6914 49.6345C47.6918 49.6432 47.7009 49.6488 47.7071 49.6522C47.7212 49.6599 47.7385 49.6644 47.7539 49.6678C47.7782 49.6731 47.8027 49.6762 47.8274 49.6786C47.8769 49.6834 47.9263 49.6847 47.9759 49.684C48.0642 49.6828 48.1846 49.6738 48.2709 49.6513" stroke="#00AE42" stroke-width="0.455696" stroke-linecap="round" stroke-linejoin="round"/>
<path d="M47.6914 49.633L47.6873 49.5298" stroke="#00AE42" stroke-width="0.455696" stroke-linecap="round" stroke-linejoin="round"/>
<path d="M48.8788 59.256C48.8748 59.0632 48.8742 58.8705 48.8768 58.6776C48.8794 58.4829 48.8853 58.2883 48.8943 58.0937C48.9126 57.6996 48.9438 57.3072 48.9874 56.9152C49.0744 56.1371 49.2093 55.3652 49.3915 54.6039C49.5729 53.8439 49.8021 53.0964 50.0776 52.3656C50.2176 51.9954 50.3694 51.6308 50.5344 51.2711C50.6153 51.0946 50.6993 50.9196 50.7865 50.746C50.8725 50.5749 50.9614 50.4055 51.0536 50.2377C51.4276 49.5514 51.8595 48.8988 52.3446 48.2871C52.8278 47.6744 53.3804 47.1205 53.991 46.6367C54.1531 46.5103 54.3191 46.3903 54.4905 46.2771C54.6557 46.1678 54.8245 46.0657 54.9984 45.9709C55.3273 45.7901 55.6724 45.6409 56.0292 45.5252C56.4066 45.4027 56.7974 45.3266 57.193 45.2987C57.5731 45.2726 57.955 45.297 58.3288 45.3714" stroke="#00AE42" stroke-width="0.455696" stroke-linecap="round" stroke-linejoin="round"/>
<path d="M48.5015 49.4711C48.3127 49.5138 48.1198 49.5356 47.9263 49.5361C47.8294 49.5374 47.7331 49.535 47.6366 49.5255C47.5883 49.5207 47.5406 49.5144 47.4932 49.5039C47.4752 49.4998 47.4575 49.4952 47.4401 49.4893C47.4269 49.4849 47.4141 49.4799 47.4019 49.4731C47.3934 49.4684 47.3856 49.4633 47.3791 49.4557C47.3746 49.4504 47.3716 49.4453 47.3713 49.438" stroke="#00AE42" stroke-width="0.455696" stroke-linecap="round" stroke-linejoin="round"/>
<path d="M49.3878 61.0995C49.3602 60.8924 49.3371 60.6849 49.3182 60.4767C49.2989 60.265 49.284 60.0531 49.2732 59.8408C49.2622 59.6253 49.2556 59.4098 49.2529 59.194C49.2503 58.9754 49.2519 58.757 49.2575 58.5385C49.2686 58.1132 49.2947 57.6885 49.3356 57.2651C49.377 56.8364 49.4332 56.4093 49.504 55.9846C49.6444 55.1401 49.8418 54.3062 50.0949 53.4887C50.1591 53.2814 50.2268 53.0755 50.2983 52.8707C50.3693 52.6676 50.4437 52.4659 50.5219 52.2654C50.6756 51.8711 50.8438 51.4826 51.0263 51.1009C51.1212 50.9026 51.2199 50.7064 51.3228 50.5122C51.424 50.3214 51.529 50.1329 51.6382 49.9465C51.8497 49.5849 52.0773 49.2331 52.3205 48.8922C52.8133 48.1932 53.3862 47.5551 54.0273 46.991C54.3611 46.7 54.7183 46.4375 55.0954 46.2062C55.4444 45.992 55.8133 45.8127 56.1969 45.6707C56.9963 45.3642 57.8642 45.2861 58.705 45.445" stroke="#00AE42" stroke-width="0.455696" stroke-linecap="round" stroke-linejoin="round"/>
<path d="M48.3286 49.0994C48.3854 49.1035 48.4418 49.1094 48.4979 49.1201C48.5259 49.1254 48.5535 49.1317 48.5805 49.1413C48.594 49.146 48.607 49.1513 48.6193 49.1589C48.6265 49.1633 48.633 49.168 48.6384 49.1748C48.6423 49.1798 48.6447 49.1846 48.645 49.1911" stroke="#00AE42" stroke-width="0.455696" stroke-linecap="round" stroke-linejoin="round"/>
<path d="M44.1218 19.128C43.8763 19.0923 43.4529 18.998 43.2085 18.9529" stroke="#C2C2C2" stroke-width="0.455696" stroke-linecap="round" stroke-linejoin="round"/>
<path d="M60.6011 57.025L58.8945 56.6707" stroke="#00AE42" stroke-width="0.455696" stroke-linecap="round" stroke-linejoin="round"/>
<path d="M43.4917 1.08423L44.0156 1.1697" stroke="#C2C2C2" stroke-width="0.455696" stroke-linecap="round" stroke-linejoin="round"/>
<path d="M51.8572 65.7644C52.0089 65.9355 52.2654 66.2412 52.4247 66.4046" stroke="#00AE42" stroke-width="0.455696" stroke-linecap="round" stroke-linejoin="round"/>
<path d="M81.5012 8.05981C81.5013 8.06653 81.5015 8.07824 81.5014 8.08495" stroke="#C2C2C2" stroke-width="0.455696" stroke-linecap="round" stroke-linejoin="round"/>
<path d="M85.7878 8.62036C85.892 8.69001 85.9673 8.79557 85.9995 8.91719" stroke="#C2C2C2" stroke-width="0.455696" stroke-linecap="round" stroke-linejoin="round"/>
<path d="M51.686 65.9148C51.8397 66.088 52.0997 66.3974 52.261 66.5629" stroke="#00AE42" stroke-width="0.455696" stroke-linecap="round" stroke-linejoin="round"/>
<path d="M40.9749 21.7275C41.0062 21.7731 41.0511 21.8076 41.103 21.8261" stroke="#C2C2C2" stroke-width="0.455696" stroke-linecap="round" stroke-linejoin="round"/>
<path d="M44.298 51.2881C44.271 51.2808 44.2488 51.273 44.2314 51.2646" stroke="#C2C2C2" stroke-width="0.455696" stroke-linecap="round" stroke-linejoin="round"/>
<path d="M44.2424 51.4109C44.2757 51.4218 44.3037 51.4312 44.3263 51.4389" stroke="#C2C2C2" stroke-width="0.455696" stroke-linecap="round" stroke-linejoin="round"/>
<path d="M44.1204 49.7771C44.1955 49.6495 44.3085 49.5488 44.4435 49.4893" stroke="#C2C2C2" stroke-width="0.455696" stroke-linecap="round" stroke-linejoin="round"/>
<path d="M44.1311 49.9313C44.1893 49.7843 44.3018 49.6656 44.4449 49.6001" stroke="#C2C2C2" stroke-width="0.455696" stroke-linecap="round" stroke-linejoin="round"/>
<path d="M60.0594 45.1552C59.3091 44.3221 58.318 43.7473 57.2259 43.5118C56.4018 43.3544 55.5519 43.403 54.7508 43.6533C54.0466 43.8723 53.3803 44.1994 52.7753 44.6231C52.17 45.0446 51.6117 45.5307 51.1101 46.073C50.1124 47.1654 49.2777 48.3982 48.6323 49.7325" stroke="#00AE42" stroke-width="0.455696" stroke-linecap="round" stroke-linejoin="round"/>
</svg>
