<svg width="78" height="80" viewBox="0 0 78 80" fill="none" xmlns="http://www.w3.org/2000/svg">
<path d="M31.1316 33.0121C31.2017 32.9967 31.2716 32.9929 31.338 32.9981" stroke="#00AE42" stroke-width="0.45" stroke-linecap="round" stroke-linejoin="round"/>
<path d="M36.1134 35.2986C36.0427 35.3141 35.9724 35.318 35.9054 35.3128" stroke="#00AE42" stroke-width="0.45" stroke-linecap="round" stroke-linejoin="round"/>
<path d="M31.3413 33.5911C31.3151 33.5891 31.2875 33.5906 31.2599 33.5966" stroke="#00AE42" stroke-width="0.45" stroke-linecap="round" stroke-linejoin="round"/>
<path d="M35.8985 33.9473L31.3409 33.5911" stroke="#00AE42" stroke-width="0.45" stroke-linecap="round" stroke-linejoin="round"/>
<path d="M36.0139 33.3274C36.4502 33.3217 36.8531 33.8711 36.8615 34.3794C36.8684 34.8019 36.6028 35.196 36.2313 35.2721" stroke="#00AE42" stroke-width="0.45" stroke-linecap="round" stroke-linejoin="round"/>
<path d="M31.4563 32.9723L32.534 33.0564" stroke="#00AE42" stroke-width="0.45" stroke-linecap="round" stroke-linejoin="round"/>
<path d="M31.3199 33.5903C31.2511 33.6344 31.1971 33.6981 31.1648 33.7733C31.1325 33.8484 31.1235 33.9314 31.1389 34.0117C31.1543 34.092 31.1933 34.1659 31.2511 34.2238C31.3088 34.2817 31.3826 34.3209 31.4628 34.3365" stroke="#00AE42" stroke-width="0.45" stroke-linecap="round" stroke-linejoin="round"/>
<path d="M35.905 35.3125L31.3477 34.9553" stroke="#00AE42" stroke-width="0.45" stroke-linecap="round" stroke-linejoin="round"/>
<path d="M35.9846 34.7139C36.0646 34.6802 36.1315 34.6216 36.1754 34.5468C36.2193 34.472 36.2378 34.385 36.2282 34.2988C36.2185 34.2126 36.1813 34.1318 36.122 34.0685C36.0626 34.0053 35.9844 33.9629 35.899 33.9477" stroke="#00AE42" stroke-width="0.45" stroke-linecap="round" stroke-linejoin="round"/>
<path d="M34.8167 33.2336L36.0139 33.3271" stroke="#00AE42" stroke-width="0.45" stroke-linecap="round" stroke-linejoin="round"/>
<path d="M32.5341 33.0471L32.5343 33.0915" stroke="#00AE42" stroke-width="0.45" stroke-linecap="round" stroke-linejoin="round"/>
<path d="M31.345 34.3618L35.9024 34.7185" stroke="#00AE42" stroke-width="0.45" stroke-linecap="round" stroke-linejoin="round"/>
<path d="M31.463 34.3365L36.0203 34.6933" stroke="#00AE42" stroke-width="0.45" stroke-linecap="round" stroke-linejoin="round"/>
<path d="M37.0042 33.5682L36.6056 33.6555" stroke="#00AE42" stroke-width="0.45" stroke-linecap="round" stroke-linejoin="round"/>
<path d="M37.7918 34.7318L36.6737 34.9772" stroke="#00AE42" stroke-width="0.45" stroke-linecap="round" stroke-linejoin="round"/>
<path d="M37.271 33.8807L36.7914 33.9858" stroke="#00AE42" stroke-width="0.45" stroke-linecap="round" stroke-linejoin="round"/>
<path d="M32.6541 32.7739L33.8875 32.5047" stroke="#00AE42" stroke-width="0.45" stroke-linecap="round" stroke-linejoin="round"/>
<path d="M35.9022 34.7192C35.9286 34.7213 35.9563 34.7197 35.9841 34.7136" stroke="#00AE42" stroke-width="0.45" stroke-linecap="round" stroke-linejoin="round"/>
<path d="M31.3383 32.9983L35.4623 33.2776" stroke="#00AE42" stroke-width="0.45" stroke-linecap="round" stroke-linejoin="round"/>
<path d="M36.854 34.4925L37.5792 34.3334" stroke="#00AE42" stroke-width="0.45" stroke-linecap="round" stroke-linejoin="round"/>
<path d="M32.6509 32.7985L32.8105 32.7637" stroke="#00AE42" stroke-width="0.45" stroke-linecap="round" stroke-linejoin="round"/>
<path d="M32.8105 32.7638C32.7601 32.7598 32.7072 32.7627 32.6541 32.7743" stroke="#00AE42" stroke-width="0.45" stroke-linecap="round" stroke-linejoin="round"/>
<path d="M36.0203 34.6932C36.0276 34.6938 36.0351 34.6941 36.0426 34.6941" stroke="#00AE42" stroke-width="0.45" stroke-linecap="round" stroke-linejoin="round"/>
<path d="M31.1914 33.0019C31.2109 32.9959 31.2304 32.9907 31.25 32.9865" stroke="#00AE42" stroke-width="0.45" stroke-linecap="round" stroke-linejoin="round"/>
<path d="M36.8583 34.4344L37.5487 34.283" stroke="#00AE42" stroke-width="0.45" stroke-linecap="round" stroke-linejoin="round"/>
<path d="M36.2313 35.2726L36.1132 35.2985" stroke="#00AE42" stroke-width="0.45" stroke-linecap="round" stroke-linejoin="round"/>
<path d="M31.25 32.9861C31.3201 32.9708 31.39 32.9669 31.4564 32.9721" stroke="#00AE42" stroke-width="0.45" stroke-linecap="round" stroke-linejoin="round"/>
<path d="M31.1316 33.0123L31.2499 32.9865" stroke="#00AE42" stroke-width="0.45" stroke-linecap="round" stroke-linejoin="round"/>
<path d="M36.1892 34.1689C36.186 34.2558 36.1989 34.3425 36.2273 34.4247" stroke="#00AE42" stroke-width="0.45" stroke-linecap="round" stroke-linejoin="round"/>
<path d="M33.2638 13.2207C33.2658 13.221 33.2793 13.2228 33.3067 13.2243" stroke="#ACACAC" stroke-width="0.45" stroke-linecap="round" stroke-linejoin="round"/>
<path d="M34.8101 13.4034C34.744 13.4694 34.6645 13.5205 34.5769 13.5531C34.4893 13.5857 34.3957 13.599 34.3025 13.5922" stroke="#ACACAC" stroke-width="0.45" stroke-linecap="round" stroke-linejoin="round"/>
<path d="M35.8959 33.3542C36.3322 33.3485 36.7351 33.8979 36.7435 34.4063C36.7503 34.8287 36.4848 35.2229 36.1133 35.299" stroke="#00AE42" stroke-width="0.45" stroke-linecap="round" stroke-linejoin="round"/>
<path d="M34.3235 11.8709L29.3765 11.499" stroke="#ACACAC" stroke-width="0.45" stroke-linecap="round" stroke-linejoin="round"/>
<path d="M17.829 31.8904L19.4057 31.549" stroke="#ACACAC" stroke-width="0.45" stroke-linecap="round" stroke-linejoin="round"/>
<path d="M18.3218 32.5012C18.3263 32.4403 18.3176 32.379 18.296 32.3217C18.2745 32.2645 18.2408 32.2126 18.1972 32.1697C18.1536 32.1268 18.1012 32.094 18.0436 32.0734C17.986 32.0528 17.9246 32.0451 17.8636 32.0506" stroke="#ACACAC" stroke-width="0.45" stroke-linecap="round" stroke-linejoin="round"/>
<path d="M18.047 32.894C18.1309 32.8699 18.204 32.8177 18.2539 32.7461C18.3039 32.6745 18.3277 32.5878 18.3214 32.5007" stroke="#ACACAC" stroke-width="0.45" stroke-linecap="round" stroke-linejoin="round"/>
<path d="M18.971 33.4373C18.9295 33.434 18.8876 33.4368 18.8473 33.4456" stroke="#ACACAC" stroke-width="0.45" stroke-linecap="round" stroke-linejoin="round"/>
<path d="M21.9433 33.6694L18.9713 33.4368" stroke="#ACACAC" stroke-width="0.45" stroke-linecap="round" stroke-linejoin="round"/>
<path d="M17.4794 37.6701L17.4503 32.433" stroke="#ACACAC" stroke-width="0.45" stroke-linecap="round" stroke-linejoin="round"/>
<path d="M22.1368 38.6282L17.988 38.3003" stroke="#ACACAC" stroke-width="0.45" stroke-linecap="round" stroke-linejoin="round"/>
<path d="M18.8472 33.4446C18.6115 33.4797 18.4416 33.7767 18.4731 34.0602C18.5046 34.3437 18.7375 34.6137 18.9775 34.6169" stroke="#ACACAC" stroke-width="0.45" stroke-linecap="round" stroke-linejoin="round"/>
<path d="M17.4505 32.4332C17.4417 32.313 17.4746 32.1935 17.5435 32.0947C17.6125 31.9959 17.7133 31.9239 17.8291 31.8906" stroke="#ACACAC" stroke-width="0.45" stroke-linecap="round" stroke-linejoin="round"/>
<path d="M18.9775 34.6176L21.8596 34.8438" stroke="#ACACAC" stroke-width="0.45" stroke-linecap="round" stroke-linejoin="round"/>
<path d="M17.9521 31.882L22.1643 32.2108" stroke="#ACACAC" stroke-width="0.45" stroke-linecap="round" stroke-linejoin="round"/>
<path d="M17.864 32.0505C17.7801 32.0746 17.707 32.1268 17.657 32.1984C17.607 32.2701 17.5832 32.3567 17.5895 32.4438" stroke="#ACACAC" stroke-width="0.45" stroke-linecap="round" stroke-linejoin="round"/>
<path d="M17.5893 32.4441C17.5847 32.5051 17.5935 32.5664 17.6151 32.6236C17.6366 32.6809 17.6703 32.7327 17.7139 32.7756C17.7576 32.8185 17.81 32.8514 17.8676 32.8719C17.9252 32.8925 17.9866 32.9002 18.0475 32.8947" stroke="#ACACAC" stroke-width="0.45" stroke-linecap="round" stroke-linejoin="round"/>
<path d="M19.4058 31.5491C19.4459 31.5404 19.4876 31.5376 19.529 31.5409" stroke="#ACACAC" stroke-width="0.45" stroke-linecap="round" stroke-linejoin="round"/>
<path d="M17.829 31.8908C17.8691 31.8821 17.9108 31.8793 17.9523 31.8826" stroke="#ACACAC" stroke-width="0.45" stroke-linecap="round" stroke-linejoin="round"/>
<path d="M17.9876 38.2995C17.8407 38.2744 17.708 38.1966 17.6144 38.0806C17.5209 37.9647 17.4728 37.8186 17.4792 37.6697" stroke="#ACACAC" stroke-width="0.45" stroke-linecap="round" stroke-linejoin="round"/>
<path d="M19.5286 31.5411L22.2615 31.7543" stroke="#ACACAC" stroke-width="0.45" stroke-linecap="round" stroke-linejoin="round"/>
<path d="M36.3773 20.864C35.5886 21.0327 34.8215 21.2902 34.0908 21.6317" stroke="#00AE42" stroke-width="0.45" stroke-linecap="round" stroke-linejoin="round"/>
<path d="M36.3773 20.8636L36.6521 20.8049" stroke="#00AE42" stroke-width="0.45" stroke-linecap="round" stroke-linejoin="round"/>
<path d="M38.1392 51.0872L37.864 51.1495" stroke="#ACACAC" stroke-width="0.45" stroke-linecap="round" stroke-linejoin="round"/>
<path d="M31.348 34.9554C30.9123 34.9609 30.51 34.4122 30.5016 33.9042C30.4946 33.4816 30.7603 33.0871 31.1317 33.0117" stroke="#00AE42" stroke-width="0.45" stroke-linecap="round" stroke-linejoin="round"/>
<path d="M43.6898 49.8119L43.8145 77.5167" stroke="#ACACAC" stroke-width="0.45" stroke-linecap="round" stroke-linejoin="round"/>
<path d="M76.5933 5.8415C76.6496 5.82963 76.7058 5.81699 76.7542 5.80529C76.8027 5.79359 76.8434 5.78286 76.8806 5.77224C76.9177 5.76164 76.9514 5.75118 76.982 5.74063C77.0127 5.73012 77.0405 5.71951 77.066 5.70864C77.0915 5.69774 77.1147 5.68653 77.1352 5.67505C77.1558 5.66355 77.1738 5.65186 77.1886 5.64016C77.2034 5.62842 77.2152 5.61677 77.2238 5.60529C77.2323 5.59383 77.2378 5.58253 77.2403 5.57166C77.2428 5.56075 77.2424 5.55024 77.2393 5.54002C77.2362 5.52983 77.2304 5.51989 77.2221 5.51013C77.2196 5.50712 77.2167 5.50415 77.2137 5.50116" stroke="#ACACAC" stroke-width="0.45" stroke-linecap="round" stroke-linejoin="round"/>
<path d="M50.8174 11.2769L76.5933 5.84125" stroke="#ACACAC" stroke-width="0.45" stroke-linecap="round" stroke-linejoin="round"/>
<path d="M45.2041 11.4664C47.076 11.6298 48.9608 11.5659 50.8173 11.2762" stroke="#ACACAC" stroke-width="0.45" stroke-linecap="round" stroke-linejoin="round"/>
<path d="M8.68875 68.802L7.22498 68.6794" stroke="#ACACAC" stroke-width="0.45" stroke-linecap="round" stroke-linejoin="round"/>
<path d="M77.2935 71.2206L77.262 71.8527" stroke="#ACACAC" stroke-width="0.45" stroke-linecap="round" stroke-linejoin="round"/>
<path d="M1.63239 74.5094L1.59399 73.861" stroke="#ACACAC" stroke-width="0.45" stroke-linecap="round" stroke-linejoin="round"/>
<path d="M74.5961 5.1022C74.5909 5.10181 74.5857 5.10218 74.5807 5.10322L74.5961 5.1022Z" stroke="#ACACAC" stroke-width="0.45" stroke-linecap="round" stroke-linejoin="round"/>
<path d="M45.498 77.7325L43.8788 77.5956" stroke="#ACACAC" stroke-width="0.45" stroke-linecap="round" stroke-linejoin="round"/>
<path d="M75.2276 5.14843L74.5961 5.10205" stroke="#ACACAC" stroke-width="0.45" stroke-linecap="round" stroke-linejoin="round"/>
<path d="M43.9466 73.625C43.9405 73.5362 43.9646 73.448 44.0151 73.3748C44.0656 73.3015 44.1394 73.2476 44.2246 73.2217" stroke="#ACACAC" stroke-width="0.45" stroke-linecap="round" stroke-linejoin="round"/>
<path d="M43.6759 13.4317C43.6695 13.3405 43.6947 13.2499 43.7474 13.1752C43.8 13.1005 43.8769 13.0462 43.9649 13.0215" stroke="#ACACAC" stroke-width="0.45" stroke-linecap="round" stroke-linejoin="round"/>
<path d="M77.2136 5.50042C77.2067 5.49367 77.1986 5.487 77.1892 5.48036C77.1757 5.47079 77.1596 5.46133 77.141 5.45194C77.1223 5.44254 77.1011 5.43327 77.0773 5.42404C77.0534 5.41482 77.027 5.40567 76.9977 5.39657C76.9685 5.3875 76.9366 5.37844 76.9012 5.36932C76.8657 5.36018 76.8269 5.35095 76.784 5.34155C76.7412 5.33215 76.6943 5.32263 76.644 5.31313C76.5936 5.30365 76.5398 5.29417 76.4833 5.28488C76.4268 5.27558 76.3676 5.26649 76.307 5.25782C76.2464 5.24911 76.1845 5.24077 76.1219 5.23291C76.0593 5.22502 75.996 5.21759 75.9301 5.21035C75.8642 5.20308 75.7957 5.19605 75.7238 5.18915C75.6518 5.18227 75.5765 5.17547 75.4929 5.16848C75.4093 5.16149 75.3175 5.15433 75.2274 5.14771" stroke="#ACACAC" stroke-width="0.45" stroke-linecap="round" stroke-linejoin="round"/>
<path d="M77.2432 5.52948C77.2544 5.54049 77.2623 5.55161 77.2669 5.5628C77.27 5.57059 77.2716 5.57844 77.2716 5.5863" stroke="#ACACAC" stroke-width="0.45" stroke-linecap="round" stroke-linejoin="round"/>
<path d="M77.4328 71.1167L77.4037 71.1453" stroke="#ACACAC" stroke-width="0.45" stroke-linecap="round" stroke-linejoin="round"/>
<path d="M77.4332 71.1174C77.4616 71.0894 77.4771 71.0608 77.477 71.0325" stroke="#ACACAC" stroke-width="0.45" stroke-linecap="round" stroke-linejoin="round"/>
<path d="M44.4307 74.0928C44.3669 74.0998 44.3023 74.0927 44.2415 74.072C44.1807 74.0513 44.1252 74.0174 44.079 73.9728C44.0328 73.9282 43.9969 73.874 43.974 73.814C43.9511 73.754 43.9418 73.6896 43.9465 73.6256" stroke="#ACACAC" stroke-width="0.45" stroke-linecap="round" stroke-linejoin="round"/>
<path d="M44.1511 13.8991C44.088 13.9048 44.0243 13.8967 43.9646 13.8754C43.9049 13.854 43.8506 13.8199 43.8054 13.7754C43.7602 13.7309 43.7252 13.6772 43.7029 13.6178C43.6806 13.5584 43.6714 13.4949 43.6761 13.4317" stroke="#ACACAC" stroke-width="0.45" stroke-linecap="round" stroke-linejoin="round"/>
<path d="M43.5654 11.3467C43.5705 11.3456 43.5758 11.3453 43.581 11.3457L43.5654 11.3467Z" stroke="#ACACAC" stroke-width="0.45" stroke-linecap="round" stroke-linejoin="round"/>
<path d="M77.2715 5.58618L77.4766 71.0321" stroke="#ACACAC" stroke-width="0.45" stroke-linecap="round" stroke-linejoin="round"/>
<path d="M43.5808 11.3455L45.2043 11.4668" stroke="#ACACAC" stroke-width="0.45" stroke-linecap="round" stroke-linejoin="round"/>
<path d="M5.44031 70.7302C5.44307 70.7304 5.44575 70.7306 5.44835 70.7307L5.44031 70.7302Z" stroke="#ACACAC" stroke-width="0.45" stroke-linecap="round" stroke-linejoin="round"/>
<path d="M77.2622 71.8535C77.2619 71.8606 77.2605 71.8679 77.258 71.8752C77.2546 71.8854 77.249 71.8958 77.2414 71.9064C77.2337 71.917 77.2238 71.9278 77.2118 71.9386C77.1998 71.9494 77.1856 71.9602 77.1697 71.9708C77.1538 71.9814 77.1361 71.9917 77.1165 72.002C77.097 72.0122 77.0757 72.0222 77.0525 72.0321C77.0294 72.042 77.0045 72.0518 76.9771 72.0616C76.9497 72.0714 76.9197 72.0814 76.8868 72.0915C76.8537 72.1016 76.8176 72.1121 76.7771 72.1229C76.7365 72.1338 76.6916 72.1452 76.6425 72.1569" stroke="#ACACAC" stroke-width="0.45" stroke-linecap="round" stroke-linejoin="round"/>
<path d="M5.92725 17.8181L5.93257 18.7023" stroke="#ACACAC" stroke-width="0.45" stroke-linecap="round" stroke-linejoin="round"/>
<path d="M8.77588 20.6624L9.04318 20.8021" stroke="#ACACAC" stroke-width="0.45" stroke-linecap="round" stroke-linejoin="round"/>
<path d="M33.8909 32.504L34.3492 32.4039" stroke="#00AE42" stroke-width="0.45" stroke-linecap="round" stroke-linejoin="round"/>
<path d="M2.55546 75.0069L2.55438 74.8316" stroke="#ACACAC" stroke-width="0.45" stroke-linecap="round" stroke-linejoin="round"/>
<path d="M7.3396 64.8913L7.34004 64.9652" stroke="#ACACAC" stroke-width="0.45" stroke-linecap="round" stroke-linejoin="round"/>
<path d="M9.61314 66.9701L7.2002 66.7688" stroke="#ACACAC" stroke-width="0.45" stroke-linecap="round" stroke-linejoin="round"/>
<path d="M7.19995 66.7695C7.1707 66.7643 7.14432 66.7487 7.1257 66.7256C7.10708 66.7024 7.0975 66.6733 7.09874 66.6436" stroke="#ACACAC" stroke-width="0.45" stroke-linecap="round" stroke-linejoin="round"/>
<path d="M9.91772 70.6379C9.92051 70.6349 9.92322 70.6317 9.92583 70.6284C9.95504 70.5916 9.97153 70.5413 9.97122 70.4869" stroke="#ACACAC" stroke-width="0.45" stroke-linecap="round" stroke-linejoin="round"/>
<path d="M9.3316 71.2387C9.31567 71.2424 9.299 71.2436 9.28247 71.2422" stroke="#ACACAC" stroke-width="0.45" stroke-linecap="round" stroke-linejoin="round"/>
<path d="M7.16125 64.5982C7.16992 64.5963 7.17895 64.5956 7.18793 64.5964" stroke="#ACACAC" stroke-width="0.45" stroke-linecap="round" stroke-linejoin="round"/>
<path d="M9.63948 66.968C9.63079 66.97 9.62169 66.9706 9.61267 66.9699" stroke="#ACACAC" stroke-width="0.45" stroke-linecap="round" stroke-linejoin="round"/>
<path d="M7.18726 64.5969L9.6004 64.7974" stroke="#ACACAC" stroke-width="0.45" stroke-linecap="round" stroke-linejoin="round"/>
<path d="M9.7129 66.8617C9.71461 66.8853 9.70824 66.9088 9.69481 66.9283C9.68138 66.9478 9.66171 66.9622 9.63904 66.969" stroke="#ACACAC" stroke-width="0.45" stroke-linecap="round" stroke-linejoin="round"/>
<path d="M35.916 12.5083C35.9886 12.5373 36.0495 12.5895 36.0893 12.6567C36.1292 12.7239 36.1456 12.8024 36.1362 12.88" stroke="#ACACAC" stroke-width="0.45" stroke-linecap="round" stroke-linejoin="round"/>
<path d="M29.1788 11.5152L29.2035 11.5101" stroke="#ACACAC" stroke-width="0.45" stroke-linecap="round" stroke-linejoin="round"/>
<path d="M29.2029 11.5105C29.2595 11.4987 29.3181 11.4949 29.3764 11.4993" stroke="#ACACAC" stroke-width="0.45" stroke-linecap="round" stroke-linejoin="round"/>
<path d="M35.7329 13.2969C35.7339 13.2986 35.7349 13.3004 35.736 13.3021C35.7455 13.318 35.756 13.332 35.7671 13.3437C35.7783 13.3555 35.7902 13.365 35.8026 13.3721C35.815 13.3793 35.8279 13.384 35.8411 13.3862C35.8542 13.3884 35.8676 13.3882 35.881 13.3854C35.8944 13.3826 35.9077 13.3773 35.9209 13.3697C35.934 13.3621 35.9468 13.352 35.9591 13.3398C35.9715 13.3276 35.9833 13.3131 35.9943 13.2968C36.0054 13.2804 36.0157 13.2622 36.0251 13.2424C36.0345 13.2226 36.0429 13.2012 36.0503 13.1786C36.0541 13.167 36.0576 13.155 36.0608 13.1428" stroke="#ACACAC" stroke-width="0.45" stroke-linecap="round" stroke-linejoin="round"/>
<path d="M36.1173 13.1491C36.1159 13.2285 36.0883 13.3052 36.0387 13.3672C35.9891 13.4292 35.9203 13.4729 35.8431 13.4916" stroke="#ACACAC" stroke-width="0.45" stroke-linecap="round" stroke-linejoin="round"/>
<path d="M4.08948 10.3095C4.09069 10.3064 4.09197 10.3032 4.09329 10.3001L4.08948 10.3095Z" stroke="#ACACAC" stroke-width="0.45" stroke-linecap="round" stroke-linejoin="round"/>
<path d="M6.18628 19.0163L7.8227 19.1411" stroke="#ACACAC" stroke-width="0.45" stroke-linecap="round" stroke-linejoin="round"/>
<path d="M5.93267 18.7022C5.92938 18.7764 5.95332 18.8493 6 18.9071C6.04668 18.9649 6.11287 19.0037 6.18613 19.0161" stroke="#ACACAC" stroke-width="0.45" stroke-linecap="round" stroke-linejoin="round"/>
<path d="M33.6283 12.2792C33.6283 12.2792 33.6322 12.2797 33.638 12.2804C33.6403 12.2807 33.6428 12.281 33.6456 12.2813C33.6564 12.2826 33.6694 12.2841 33.6829 12.2857C33.6979 12.2876 33.7133 12.2895 33.7277 12.2913C33.7307 12.2917 33.7337 12.2921 33.7367 12.2925" stroke="#ACACAC" stroke-width="0.45" stroke-linecap="round" stroke-linejoin="round"/>
<path d="M6.118 17.5466C6.05979 17.5629 6.00903 17.5989 5.97433 17.6485C5.93963 17.698 5.92312 17.758 5.9276 17.8183" stroke="#ACACAC" stroke-width="0.45" stroke-linecap="round" stroke-linejoin="round"/>
<path d="M9.82605 64.3536C9.98156 64.3809 10.1219 64.4637 10.2208 64.5867C10.3198 64.7097 10.3708 64.8645 10.3641 65.0223" stroke="#ACACAC" stroke-width="0.45" stroke-linecap="round" stroke-linejoin="round"/>
<path d="M29.5288 55.6009L29.4989 49.7103" stroke="#ACACAC" stroke-width="0.45" stroke-linecap="round" stroke-linejoin="round"/>
<path d="M30.3308 56.595C30.0992 56.5551 29.89 56.4322 29.7424 56.2493C29.5949 56.0664 29.5189 55.836 29.5288 55.6012" stroke="#ACACAC" stroke-width="0.45" stroke-linecap="round" stroke-linejoin="round"/>
<path d="M35.2701 56.9978L30.3306 56.5947" stroke="#ACACAC" stroke-width="0.45" stroke-linecap="round" stroke-linejoin="round"/>
<path d="M43.8044 77.5812C43.8122 77.5795 43.821 77.5728 43.8283 77.5609" stroke="#ACACAC" stroke-width="0.45" stroke-linecap="round" stroke-linejoin="round"/>
<path d="M4.72675 8.4341C4.72894 8.43364 4.73112 8.4335 4.7333 8.43365L4.72675 8.4341Z" stroke="#ACACAC" stroke-width="0.45" stroke-linecap="round" stroke-linejoin="round"/>
<path d="M42.5496 13.3471C42.5437 13.2635 42.5668 13.1805 42.6151 13.112C42.6634 13.0435 42.7338 12.9938 42.8145 12.9712" stroke="#ACACAC" stroke-width="0.45" stroke-linecap="round" stroke-linejoin="round"/>
<path d="M9.53552 16.0083C9.57218 16.0145 9.60531 16.0339 9.62867 16.0628C9.65204 16.0917 9.66402 16.1282 9.66237 16.1653" stroke="#ACACAC" stroke-width="0.45" stroke-linecap="round" stroke-linejoin="round"/>
<path d="M9.56506 20.9911L9.60459 20.9828" stroke="#ACACAC" stroke-width="0.45" stroke-linecap="round" stroke-linejoin="round"/>
<path d="M31.2595 33.5966C31.1796 33.6302 31.1127 33.6887 31.0688 33.7635C31.025 33.8382 31.0064 33.9251 31.016 34.0113C31.0256 34.0974 31.0628 34.1782 31.1221 34.2414C31.1813 34.3047 31.2595 34.3471 31.3448 34.3623" stroke="#00AE42" stroke-width="0.45" stroke-linecap="round" stroke-linejoin="round"/>
<path d="M43.7937 77.5822L5.1156 74.3113" stroke="#ACACAC" stroke-width="0.45" stroke-linecap="round" stroke-linejoin="round"/>
<path d="M43.7942 77.582C43.7966 77.5822 43.7991 77.582 43.8015 77.5814L43.7942 77.582Z" stroke="#ACACAC" stroke-width="0.45" stroke-linecap="round" stroke-linejoin="round"/>
<path d="M43.5124 11.3322C43.5103 11.3321 43.5081 11.3322 43.506 11.3327L43.5124 11.3322Z" stroke="#ACACAC" stroke-width="0.45" stroke-linecap="round" stroke-linejoin="round"/>
<path d="M43.3145 73.9861L43.2754 73.9954" stroke="#ACACAC" stroke-width="0.45" stroke-linecap="round" stroke-linejoin="round"/>
<path d="M42.9851 13.7759C42.9272 13.7811 42.8689 13.7737 42.8141 13.7541C42.7594 13.7345 42.7096 13.7032 42.6682 13.6625C42.6268 13.6217 42.5947 13.5724 42.5743 13.518C42.5539 13.4636 42.5455 13.4054 42.5498 13.3475" stroke="#ACACAC" stroke-width="0.45" stroke-linecap="round" stroke-linejoin="round"/>
<path d="M10.0484 71.7197C10.0354 71.7227 10.0224 71.7257 10.0094 71.7287" stroke="#ACACAC" stroke-width="0.45" stroke-linecap="round" stroke-linejoin="round"/>
<path d="M10.0092 71.7292C9.96397 71.7397 9.91668 71.7431 9.86975 71.7391" stroke="#ACACAC" stroke-width="0.45" stroke-linecap="round" stroke-linejoin="round"/>
<path d="M35.4756 56.9836C35.409 56.9989 35.3395 57.0038 35.2704 56.9981" stroke="#ACACAC" stroke-width="0.45" stroke-linecap="round" stroke-linejoin="round"/>
<path d="M9.61527 20.9831C9.61176 20.9832 9.60827 20.983 9.60486 20.9828L9.61527 20.9831Z" stroke="#ACACAC" stroke-width="0.45" stroke-linecap="round" stroke-linejoin="round"/>
<path d="M42.791 73.5281C42.7848 73.4394 42.809 73.3512 42.8595 73.2779C42.9099 73.2047 42.9838 73.1507 43.0689 73.1249" stroke="#ACACAC" stroke-width="0.45" stroke-linecap="round" stroke-linejoin="round"/>
<path d="M5.12813 50.7306C5.12156 50.6415 5.14573 50.5528 5.19661 50.4793C5.2475 50.4058 5.32202 50.352 5.40777 50.3268" stroke="#ACACAC" stroke-width="0.45" stroke-linecap="round" stroke-linejoin="round"/>
<path d="M5.00889 31.0544C5.00222 30.9645 5.02674 30.875 5.07831 30.8011C5.12988 30.7271 5.20536 30.6732 5.29204 30.6484" stroke="#ACACAC" stroke-width="0.45" stroke-linecap="round" stroke-linejoin="round"/>
<path d="M43.2752 73.9951C43.2114 74.0021 43.1468 73.995 43.086 73.9743C43.0253 73.9535 42.9698 73.9197 42.9236 73.8751C42.8775 73.8305 42.8416 73.7762 42.8187 73.7163C42.7959 73.6563 42.7865 73.592 42.7912 73.528" stroke="#ACACAC" stroke-width="0.45" stroke-linecap="round" stroke-linejoin="round"/>
<path d="M5.60266 51.1955C5.53968 51.2015 5.47616 51.1937 5.41652 51.1726C5.35688 51.1515 5.30258 51.1176 5.2574 51.0733C5.21222 51.0291 5.17725 50.9754 5.15495 50.9162C5.13265 50.857 5.12356 50.7937 5.1283 50.7306" stroke="#ACACAC" stroke-width="0.45" stroke-linecap="round" stroke-linejoin="round"/>
<path d="M5.48047 31.5196C5.41772 31.5252 5.3545 31.517 5.29521 31.4957C5.23592 31.4744 5.18196 31.4405 5.13711 31.3963C5.09225 31.352 5.05755 31.2985 5.03544 31.2395C5.01332 31.1806 5.00431 31.1175 5.00903 31.0546" stroke="#ACACAC" stroke-width="0.45" stroke-linecap="round" stroke-linejoin="round"/>
<path d="M9.0377 15.9705C9.03072 15.9835 9.02282 15.994 9.01477 16.0016" stroke="#ACACAC" stroke-width="0.45" stroke-linecap="round" stroke-linejoin="round"/>
<path d="M5.25651 15.8974L5.2561 15.8304" stroke="#ACACAC" stroke-width="0.45" stroke-linecap="round" stroke-linejoin="round"/>
<path d="M43.5395 11.3604C43.5333 11.3427 43.5221 11.3326 43.512 11.3322" stroke="#ACACAC" stroke-width="0.45" stroke-linecap="round" stroke-linejoin="round"/>
<path d="M7.01755 71.4994C6.8622 71.472 6.72209 71.3891 6.62324 71.2661C6.52439 71.1432 6.47351 70.9886 6.48005 70.8309" stroke="#ACACAC" stroke-width="0.45" stroke-linecap="round" stroke-linejoin="round"/>
<path d="M5.24738 70.3752C5.2409 70.2869 5.26473 70.199 5.31493 70.1259C5.36512 70.0529 5.4387 69.9992 5.52353 69.9736" stroke="#ACACAC" stroke-width="0.45" stroke-linecap="round" stroke-linejoin="round"/>
<path d="M5.2561 15.8309C5.25385 15.8008 5.26211 15.7707 5.27948 15.746C5.29685 15.7212 5.32225 15.7032 5.35138 15.695" stroke="#ACACAC" stroke-width="0.45" stroke-linecap="round" stroke-linejoin="round"/>
<path d="M5.72445 70.8399C5.66127 70.8464 5.59743 70.8389 5.53746 70.818C5.47748 70.7971 5.42282 70.7633 5.37732 70.719C5.33182 70.6746 5.29658 70.6209 5.2741 70.5615C5.25162 70.5021 5.24243 70.4385 5.24719 70.3751" stroke="#ACACAC" stroke-width="0.45" stroke-linecap="round" stroke-linejoin="round"/>
<path d="M3.86503 30.9646C3.85835 30.8747 3.88286 30.7853 3.93442 30.7113C3.98599 30.6374 4.06145 30.5835 4.14812 30.5587" stroke="#ACACAC" stroke-width="0.45" stroke-linecap="round" stroke-linejoin="round"/>
<path d="M3.86474 30.9648C3.86003 31.0276 3.86903 31.0907 3.89114 31.1497C3.91324 31.2087 3.94792 31.2621 3.99276 31.3064C4.03759 31.3506 4.09152 31.3845 4.15079 31.4058C4.21005 31.4271 4.27324 31.4353 4.33598 31.4297" stroke="#ACACAC" stroke-width="0.45" stroke-linecap="round" stroke-linejoin="round"/>
<path d="M3.98523 50.6377C3.98049 50.7008 3.98958 50.7641 4.01187 50.8233C4.03415 50.8824 4.0691 50.9361 4.11426 50.9803C4.15942 51.0246 4.21371 51.0585 4.27332 51.0796C4.33293 51.1007 4.39644 51.1085 4.45939 51.1025" stroke="#ACACAC" stroke-width="0.45" stroke-linecap="round" stroke-linejoin="round"/>
<path d="M4.99848 74.308L3.39868 74.1727" stroke="#ACACAC" stroke-width="0.45" stroke-linecap="round" stroke-linejoin="round"/>
<path d="M2.99408 8.31311L4.59806 8.43295" stroke="#ACACAC" stroke-width="0.45" stroke-linecap="round" stroke-linejoin="round"/>
<path d="M1.72504 7.61251L27.8423 2.25543" stroke="#ACACAC" stroke-width="0.45" stroke-linecap="round" stroke-linejoin="round"/>
<path d="M27.8422 2.25545C29.6674 1.97698 31.5192 1.91548 33.359 2.07222" stroke="#ACACAC" stroke-width="0.45" stroke-linecap="round" stroke-linejoin="round"/>
<path d="M33.359 2.07275L33.9829 2.11861" stroke="#ACACAC" stroke-width="0.45" stroke-linecap="round" stroke-linejoin="round"/>
<path d="M4.26464 50.2339C4.1789 50.2591 4.10439 50.3129 4.05352 50.3864C4.00265 50.4599 3.97849 50.5485 3.98507 50.6377" stroke="#ACACAC" stroke-width="0.45" stroke-linecap="round" stroke-linejoin="round"/>
<path d="M4.38121 69.8776C4.29639 69.9032 4.22282 69.9569 4.17264 70.0299C4.12245 70.1029 4.09862 70.1908 4.10511 70.2791" stroke="#ACACAC" stroke-width="0.45" stroke-linecap="round" stroke-linejoin="round"/>
<path d="M5.01628 74.3065C5.01058 74.3079 5.00463 74.3083 4.99872 74.3078L5.01628 74.3065Z" stroke="#ACACAC" stroke-width="0.45" stroke-linecap="round" stroke-linejoin="round"/>
<path d="M1.03345 7.87228L1.06273 7.84314" stroke="#ACACAC" stroke-width="0.45" stroke-linecap="round" stroke-linejoin="round"/>
<path d="M1.03338 7.87231C1.01159 7.89396 0.999864 7.91592 1 7.9376" stroke="#ACACAC" stroke-width="0.45" stroke-linecap="round" stroke-linejoin="round"/>
<path d="M1.06256 7.84341C1.26206 7.71539 1.48896 7.63627 1.7248 7.61249" stroke="#ACACAC" stroke-width="0.45" stroke-linecap="round" stroke-linejoin="round"/>
<path d="M1.40889 73.6871L1 7.93842" stroke="#ACACAC" stroke-width="0.45" stroke-linecap="round" stroke-linejoin="round"/>
<path d="M1.40894 73.687C1.40897 73.6924 1.40956 73.6978 1.41078 73.7031C1.41503 73.7221 1.42673 73.7408 1.44584 73.7593" stroke="#ACACAC" stroke-width="0.45" stroke-linecap="round" stroke-linejoin="round"/>
<path d="M7.38208 66.5696C7.3933 66.5789 7.47524 66.5866 7.54103 66.5846" stroke="#ACACAC" stroke-width="0.45" stroke-linecap="round" stroke-linejoin="round"/>
<path d="M7.38232 66.5693C7.35822 66.5559 7.34588 66.5419 7.34583 66.5279" stroke="#ACACAC" stroke-width="0.45" stroke-linecap="round" stroke-linejoin="round"/>
<path d="M7.34531 66.5277L7.33606 64.9787" stroke="#ACACAC" stroke-width="0.45" stroke-linecap="round" stroke-linejoin="round"/>
<path d="M7.53162 65.0349C8.11933 65.0221 8.70732 65.0381 9.29347 65.0828" stroke="#ACACAC" stroke-width="0.45" stroke-linecap="round" stroke-linejoin="round"/>
<path d="M53.5439 3.39344C53.6049 3.39563 53.6655 3.38381 53.7211 3.35888C53.7767 3.33396 53.8259 3.29661 53.8648 3.24969" stroke="#ACACAC" stroke-width="0.45" stroke-linecap="round" stroke-linejoin="round"/>
<path d="M49.8468 2.68324C50.2761 2.58714 51.2684 2.53295 52.1332 2.55334C52.998 2.57375 53.7355 2.6688 53.8159 2.77695" stroke="#ACACAC" stroke-width="0.45" stroke-linecap="round" stroke-linejoin="round"/>
<path d="M49.8469 2.68286C49.7398 2.69527 49.637 2.7322 49.5464 2.79079" stroke="#ACACAC" stroke-width="0.45" stroke-linecap="round" stroke-linejoin="round"/>
<path d="M49.5 2.85509C49.4999 2.84359 49.5057 2.83204 49.5172 2.82062" stroke="#ACACAC" stroke-width="0.45" stroke-linecap="round" stroke-linejoin="round"/>
<path d="M53.8632 2.84033L53.8648 3.2497" stroke="#ACACAC" stroke-width="0.45" stroke-linecap="round" stroke-linejoin="round"/>
<path d="M53.8159 2.77734L53.8453 2.80602" stroke="#ACACAC" stroke-width="0.45" stroke-linecap="round" stroke-linejoin="round"/>
<path d="M53.8455 2.80566C53.8571 2.817 53.863 2.8285 53.863 2.84001" stroke="#ACACAC" stroke-width="0.45" stroke-linecap="round" stroke-linejoin="round"/>
<path d="M49.5173 2.82037L49.5464 2.7915" stroke="#ACACAC" stroke-width="0.45" stroke-linecap="round" stroke-linejoin="round"/>
<path d="M53.8164 2.77734C53.8807 2.83616 53.7695 2.90147 53.5172 2.95287" stroke="#ACACAC" stroke-width="0.45" stroke-linecap="round" stroke-linejoin="round"/>
<path d="M49.5462 2.7915C49.3817 2.91029 50.0502 3.0373 50.9682 3.0746C51.8863 3.11191 53.054 3.05957 53.5167 2.95281" stroke="#ACACAC" stroke-width="0.45" stroke-linecap="round" stroke-linejoin="round"/>
<path d="M74.5044 5.091L74.5045 5.11909" stroke="#ACACAC" stroke-width="0.45" stroke-linecap="round" stroke-linejoin="round"/>
<path d="M34.1038 2.12238L49.5018 3.25345" stroke="#ACACAC" stroke-width="0.45" stroke-linecap="round" stroke-linejoin="round"/>
<path d="M49.6743 78.8484C49.5371 78.8812 49.3615 78.91 49.1551 78.9334C48.9272 78.9592 48.6618 78.9784 48.3875 78.9894C47.8498 79.0108 47.278 79.0005 46.8037 78.9609C46.5618 78.9407 46.3453 78.913 46.1776 78.8797C46.1076 78.8658 46.0461 78.8509 45.9929 78.8352C45.971 78.8287 45.9505 78.822 45.9316 78.8152C45.8948 78.802 45.8639 78.7884 45.8377 78.7732C45.8128 78.7587 45.7921 78.7428 45.777 78.7234C45.7708 78.7153 45.7655 78.7066 45.7616 78.697C45.7599 78.6928 45.7584 78.6885 45.7574 78.684C45.7557 78.6772 45.7548 78.6702 45.7548 78.6631" stroke="#ACACAC" stroke-width="0.45" stroke-linecap="round" stroke-linejoin="round"/>
<path d="M50.0165 78.6458C49.9837 78.7078 49.9343 78.7595 49.8739 78.7952C49.8136 78.8309 49.7445 78.8492 49.6743 78.8481" stroke="#ACACAC" stroke-width="0.45" stroke-linecap="round" stroke-linejoin="round"/>
<path d="M45.755 78.663L45.7544 78.5182" stroke="#ACACAC" stroke-width="0.45" stroke-linecap="round" stroke-linejoin="round"/>
<path d="M76.0475 72.5416C75.5092 72.6434 74.9624 72.6928 74.4146 72.689" stroke="#ACACAC" stroke-width="0.45" stroke-linecap="round" stroke-linejoin="round"/>
<path d="M76.3789 72.3456C76.3472 72.4057 76.2995 72.4558 76.241 72.4905C76.1826 72.5252 76.1157 72.543 76.0477 72.5419" stroke="#ACACAC" stroke-width="0.45" stroke-linecap="round" stroke-linejoin="round"/>
<path d="M43.0884 49.9662L42.8145 50.0282" stroke="#00AE42" stroke-width="0.45" stroke-linecap="round" stroke-linejoin="round"/>
<path d="M43.0882 49.9662C43.0426 49.9765 42.9969 49.9866 42.951 49.9963" stroke="#00AE42" stroke-width="0.45" stroke-linecap="round" stroke-linejoin="round"/>
<path d="M34.1109 32.4236C33.8545 32.4556 33.6034 32.5211 33.3641 32.6186" stroke="#00AE42" stroke-width="0.45" stroke-linecap="round" stroke-linejoin="round"/>
<path d="M31.4122 21.925L31.6881 21.8661" stroke="#00AE42" stroke-width="0.45" stroke-linecap="round" stroke-linejoin="round"/>
<path d="M31.5504 21.8965C31.5964 21.886 31.6423 21.8759 31.6882 21.8661" stroke="#00AE42" stroke-width="0.45" stroke-linecap="round" stroke-linejoin="round"/>
<path d="M35.8921 40.493C34.8563 40.8446 33.6149 40.5255 32.701 39.6951C31.7873 38.8648 31.2011 37.5232 31.2116 36.2408" stroke="#00AE42" stroke-width="0.45" stroke-linecap="round" stroke-linejoin="round"/>
<path d="M31.3853 34.9585C31.2669 35.3755 31.2084 35.8072 31.2115 36.2407" stroke="#00AE42" stroke-width="0.45" stroke-linecap="round" stroke-linejoin="round"/>
<path d="M4.78931 21.2906C4.78917 21.2906 4.78941 21.2906 4.78931 21.2906Z" stroke="#ACACAC" stroke-width="0.45" stroke-linecap="round" stroke-linejoin="round"/>
<path d="M8.39087 66.5862L9.46065 66.6754" stroke="#ACACAC" stroke-width="0.45" stroke-linecap="round" stroke-linejoin="round"/>
<path d="M5.32295 30.9176C5.32219 30.9192 5.32143 30.9208 5.32068 30.9225L5.32295 30.9176Z" stroke="#ACACAC" stroke-width="0.45" stroke-linecap="round" stroke-linejoin="round"/>
<path d="M38.824 49.2114C38.8237 49.2114 38.8243 49.2114 38.824 49.2114Z" stroke="#00AE42" stroke-width="0.45" stroke-linecap="round" stroke-linejoin="round"/>
<path d="M36.0419 51.399L36.0647 56.1338" stroke="#ACACAC" stroke-width="0.45" stroke-linecap="round" stroke-linejoin="round"/>
<path d="M9.451 65.0826C9.40474 65.0873 9.33515 65.0873 9.29346 65.0835" stroke="#ACACAC" stroke-width="0.45" stroke-linecap="round" stroke-linejoin="round"/>
<path d="M9.46046 66.6318C9.4142 66.6365 9.34457 66.6365 9.30286 66.6328" stroke="#ACACAC" stroke-width="0.45" stroke-linecap="round" stroke-linejoin="round"/>
<path d="M50.0156 78.46L50.0164 78.6461" stroke="#ACACAC" stroke-width="0.45" stroke-linecap="round" stroke-linejoin="round"/>
<path d="M76.3784 72.2196L76.3788 72.3452" stroke="#ACACAC" stroke-width="0.45" stroke-linecap="round" stroke-linejoin="round"/>
<path d="M74.4166 72.6885C74.9603 72.6929 75.5031 72.6439 76.0373 72.5424" stroke="#ACACAC" stroke-width="0.45" stroke-linecap="round" stroke-linejoin="round"/>
<path d="M1.05092 7.85809C1.04454 7.86332 1.03873 7.86854 1.03345 7.8738" stroke="#ACACAC" stroke-width="0.45" stroke-linecap="round" stroke-linejoin="round"/>
<path d="M51.0957 77.5176C49.2482 77.8442 47.3647 77.9164 45.4977 77.7323" stroke="#ACACAC" stroke-width="0.45" stroke-linecap="round" stroke-linejoin="round"/>
<path d="M76.8007 71.382L51.0961 77.5179" stroke="#ACACAC" stroke-width="0.45" stroke-linecap="round" stroke-linejoin="round"/>
<path d="M43.8146 77.5168C43.8139 77.5355 43.8199 77.5538 43.8317 77.5684C43.8434 77.5829 43.86 77.5927 43.8784 77.596" stroke="#ACACAC" stroke-width="0.45" stroke-linecap="round" stroke-linejoin="round"/>
<path d="M43.5529 17.153L43.5728 21.5916" stroke="#00AE42" stroke-width="0.45" stroke-linecap="round" stroke-linejoin="round"/>
<path d="M44.7085 73.6894C44.7146 73.7781 44.6905 73.8663 44.64 73.9395C44.5896 74.0127 44.5158 74.0667 44.4307 74.0926" stroke="#ACACAC" stroke-width="0.45" stroke-linecap="round" stroke-linejoin="round"/>
<path d="M44.44 13.4892C44.4464 13.5804 44.4212 13.6709 44.3685 13.7457C44.3159 13.8204 44.2391 13.8747 44.1511 13.8993" stroke="#ACACAC" stroke-width="0.45" stroke-linecap="round" stroke-linejoin="round"/>
<path d="M43.5175 11.4148L43.5416 16.7689" stroke="#ACACAC" stroke-width="0.45" stroke-linecap="round" stroke-linejoin="round"/>
<path d="M43.5173 11.4147C43.5162 11.3995 43.5204 11.3844 43.5292 11.3719C43.538 11.3595 43.5508 11.3504 43.5655 11.3463" stroke="#ACACAC" stroke-width="0.45" stroke-linecap="round" stroke-linejoin="round"/>
<path d="M77.2136 5.50116L77.243 5.52992" stroke="#ACACAC" stroke-width="0.45" stroke-linecap="round" stroke-linejoin="round"/>
<path d="M44.2247 73.222C44.2886 73.215 44.3532 73.2221 44.4139 73.2428C44.4747 73.2636 44.5302 73.2974 44.5764 73.342C44.6226 73.3866 44.6584 73.4409 44.6813 73.5009C44.7042 73.5609 44.7136 73.6252 44.7088 73.6893" stroke="#ACACAC" stroke-width="0.45" stroke-linecap="round" stroke-linejoin="round"/>
<path d="M43.965 13.0217C44.0281 13.016 44.0918 13.0241 44.1515 13.0455C44.2112 13.0669 44.2655 13.101 44.3107 13.1455C44.3559 13.19 44.3908 13.2437 44.4131 13.3031C44.4354 13.3625 44.4446 13.426 44.4399 13.4892" stroke="#ACACAC" stroke-width="0.45" stroke-linecap="round" stroke-linejoin="round"/>
<path d="M46.5919 31.7757C47.07 33.085 47.3718 34.4521 47.4893 35.841" stroke="#00AE42" stroke-width="0.45" stroke-linecap="round" stroke-linejoin="round"/>
<path d="M35.9301 13.129C35.9102 13.1126 35.8946 13.0916 35.8847 13.0677C35.8749 13.0439 35.871 13.018 35.8734 12.9924C35.8758 12.9667 35.8845 12.942 35.8987 12.9205C35.9129 12.8989 35.9321 12.8812 35.9548 12.8688" stroke="#ACACAC" stroke-width="0.45" stroke-linecap="round" stroke-linejoin="round"/>
<path d="M8.74988 16.2531L8.77594 20.6625" stroke="#ACACAC" stroke-width="0.45" stroke-linecap="round" stroke-linejoin="round"/>
<path d="M5.55394 20.6489L5.30225 20.5176" stroke="#ACACAC" stroke-width="0.45" stroke-linecap="round" stroke-linejoin="round"/>
<path d="M5.25148 20.3908C5.24887 20.4145 5.25215 20.4384 5.26104 20.4604C5.26992 20.4825 5.28413 20.502 5.30239 20.5173" stroke="#ACACAC" stroke-width="0.45" stroke-linecap="round" stroke-linejoin="round"/>
<path d="M5.25102 20.3912L5.22461 16.024" stroke="#ACACAC" stroke-width="0.45" stroke-linecap="round" stroke-linejoin="round"/>
<path d="M5.27429 15.876L5.46105 15.6989" stroke="#ACACAC" stroke-width="0.45" stroke-linecap="round" stroke-linejoin="round"/>
<path d="M5.22491 16.0236C5.22206 15.9699 5.23966 15.9172 5.27417 15.876" stroke="#ACACAC" stroke-width="0.45" stroke-linecap="round" stroke-linejoin="round"/>
<path d="M8.073 18.8655L8.06775 17.9811" stroke="#ACACAC" stroke-width="0.45" stroke-linecap="round" stroke-linejoin="round"/>
<path d="M7.81414 17.6671L6.17761 17.5426" stroke="#ACACAC" stroke-width="0.45" stroke-linecap="round" stroke-linejoin="round"/>
<path d="M7.82251 19.1415C7.8576 19.1417 7.89234 19.1345 7.92446 19.1203C7.95658 19.1062 7.98537 19.0855 8.00895 19.0595C8.03253 19.0335 8.05039 19.0028 8.06135 18.9695C8.07231 18.9361 8.07615 18.9009 8.07259 18.866" stroke="#ACACAC" stroke-width="0.45" stroke-linecap="round" stroke-linejoin="round"/>
<path d="M8.06706 17.981C8.07036 17.9067 8.04641 17.8338 7.99971 17.776C7.953 17.7182 7.88677 17.6794 7.81348 17.667" stroke="#ACACAC" stroke-width="0.45" stroke-linecap="round" stroke-linejoin="round"/>
<path d="M6.17733 17.5424C6.15733 17.5409 6.13719 17.5422 6.1178 17.5463" stroke="#ACACAC" stroke-width="0.45" stroke-linecap="round" stroke-linejoin="round"/>
<path d="M6.99057 16.7578C6.98548 16.8256 6.9952 16.8938 7.01904 16.9576C7.04288 17.0214 7.08027 17.0792 7.12865 17.1271C7.17703 17.1751 7.23523 17.2119 7.29924 17.2351C7.36325 17.2583 7.43153 17.2674 7.49938 17.2616" stroke="#ACACAC" stroke-width="0.45" stroke-linecap="round" stroke-linejoin="round"/>
<path d="M7.82792 19.9888C7.83301 19.9208 7.82329 19.8526 7.79942 19.7888C7.77556 19.725 7.73813 19.6671 7.68971 19.6192C7.64128 19.5713 7.58303 19.5345 7.51898 19.5113C7.45493 19.4881 7.3866 19.4791 7.31873 19.4849" stroke="#ACACAC" stroke-width="0.45" stroke-linecap="round" stroke-linejoin="round"/>
<path d="M7.0095 19.9255C7.0044 19.9935 7.01412 20.0617 7.03799 20.1255C7.06186 20.1894 7.0993 20.2472 7.14774 20.2951C7.19617 20.3431 7.25445 20.3799 7.31852 20.4031C7.38259 20.4263 7.45093 20.4353 7.51881 20.4294" stroke="#ACACAC" stroke-width="0.45" stroke-linecap="round" stroke-linejoin="round"/>
<path d="M9.04309 20.8026C9.06133 20.8178 9.07551 20.8373 9.08438 20.8594C9.09325 20.8815 9.09652 20.9054 9.09392 20.9291" stroke="#ACACAC" stroke-width="0.45" stroke-linecap="round" stroke-linejoin="round"/>
<path d="M9.01493 16.002L8.74988 16.2536" stroke="#ACACAC" stroke-width="0.45" stroke-linecap="round" stroke-linejoin="round"/>
<path d="M7.30014 16.3161C7.20547 16.3427 7.12292 16.4012 7.06647 16.4817C7.01002 16.5623 6.98315 16.6598 6.99043 16.7579" stroke="#ACACAC" stroke-width="0.45" stroke-linecap="round" stroke-linejoin="round"/>
<path d="M7.49939 17.2609C7.59403 17.2343 7.67655 17.1757 7.73298 17.0952C7.7894 17.0147 7.81625 16.9172 7.80898 16.8192" stroke="#ACACAC" stroke-width="0.45" stroke-linecap="round" stroke-linejoin="round"/>
<path d="M7.31844 19.4847C7.22393 19.5113 7.14154 19.5698 7.08522 19.6503C7.02889 19.7307 7.00209 19.8281 7.00934 19.9261" stroke="#ACACAC" stroke-width="0.45" stroke-linecap="round" stroke-linejoin="round"/>
<path d="M7.51868 20.4299C7.61316 20.4032 7.69551 20.3447 7.75181 20.2643C7.80812 20.1838 7.8349 20.0864 7.82765 19.9885" stroke="#ACACAC" stroke-width="0.45" stroke-linecap="round" stroke-linejoin="round"/>
<path d="M40.8665 22.7722C43.6985 23.4876 46.1712 25.2137 47.8192 27.6255" stroke="#00AE42" stroke-width="0.45" stroke-linecap="round" stroke-linejoin="round"/>
<path d="M47.8475 27.6246C47.8925 27.6931 48.2213 28.2204 48.2647 28.2891C50.0743 31.1515 50.882 34.6554 50.5082 38.0116C50.3321 39.5926 49.8938 41.1408 49.2215 42.5109C48.4926 43.9964 47.4884 45.2726 46.289 46.2511C45.5502 46.8538 44.7373 47.3436 43.8827 47.6993" stroke="#00AE42" stroke-width="0.45" stroke-linecap="round" stroke-linejoin="round"/>
<path d="M6.43227 75.1887C6.14334 75.2563 5.67017 75.3059 5.15093 75.3262C4.62285 75.3469 4.04709 75.3372 3.57774 75.2981C3.34225 75.2786 3.13354 75.2516 2.97034 75.2193C2.8986 75.2051 2.83564 75.1898 2.78227 75.1739C2.7196 75.1551 2.67015 75.1353 2.63189 75.1122C2.6098 75.0989 2.59143 75.0844 2.57761 75.0666C2.57144 75.0586 2.56617 75.05 2.56235 75.0407C2.55807 75.0302 2.55559 75.0188 2.55554 75.0072" stroke="#ACACAC" stroke-width="0.45" stroke-linecap="round" stroke-linejoin="round"/>
<path d="M9.46041 66.6749L9.45093 65.0668" stroke="#ACACAC" stroke-width="0.45" stroke-linecap="round" stroke-linejoin="round"/>
<path d="M9.45108 65.0668L7.3396 64.8913" stroke="#ACACAC" stroke-width="0.45" stroke-linecap="round" stroke-linejoin="round"/>
<path d="M9.70129 64.9228L9.71269 66.8613" stroke="#ACACAC" stroke-width="0.45" stroke-linecap="round" stroke-linejoin="round"/>
<path d="M7.09889 66.6433L7.08728 64.7055" stroke="#ACACAC" stroke-width="0.45" stroke-linecap="round" stroke-linejoin="round"/>
<path d="M7.08719 64.7057C7.08546 64.6821 7.09185 64.6586 7.10529 64.6391C7.11873 64.6196 7.13842 64.6052 7.16111 64.5984" stroke="#ACACAC" stroke-width="0.45" stroke-linecap="round" stroke-linejoin="round"/>
<path d="M9.60046 64.7968C9.62974 64.8019 9.65614 64.8175 9.67477 64.8407C9.69341 64.8638 9.70299 64.893 9.70175 64.9227" stroke="#ACACAC" stroke-width="0.45" stroke-linecap="round" stroke-linejoin="round"/>
<path d="M9.65038 68.8819L8.68884 68.8015" stroke="#ACACAC" stroke-width="0.45" stroke-linecap="round" stroke-linejoin="round"/>
<path d="M9.96362 69.2782C9.96791 69.1854 9.93854 69.0942 9.88092 69.0214C9.8233 68.9485 9.7413 68.8989 9.65002 68.8817" stroke="#ACACAC" stroke-width="0.45" stroke-linecap="round" stroke-linejoin="round"/>
<path d="M9.97083 70.4866L9.96375 69.2785" stroke="#ACACAC" stroke-width="0.45" stroke-linecap="round" stroke-linejoin="round"/>
<path d="M9.40918 71.1919L9.91742 70.6373" stroke="#ACACAC" stroke-width="0.45" stroke-linecap="round" stroke-linejoin="round"/>
<path d="M9.33167 71.2387C9.36073 71.232 9.38753 71.2162 9.40946 71.1923" stroke="#ACACAC" stroke-width="0.45" stroke-linecap="round" stroke-linejoin="round"/>
<path d="M35.6754 13.043C35.671 12.9156 35.7071 12.7902 35.7785 12.6846" stroke="#ACACAC" stroke-width="0.45" stroke-linecap="round" stroke-linejoin="round"/>
<path d="M35.6205 13.0543C35.5974 12.943 35.6144 12.8272 35.6685 12.7273C35.7226 12.6273 35.8103 12.5498 35.9161 12.5083" stroke="#ACACAC" stroke-width="0.45" stroke-linecap="round" stroke-linejoin="round"/>
<path d="M35.6754 13.0428C35.6756 13.0674 35.6769 13.0916 35.6795 13.1155C35.6822 13.1394 35.6861 13.1631 35.6913 13.1855C35.6965 13.2079 35.703 13.2291 35.7105 13.2486C35.7172 13.2659 35.7248 13.282 35.733 13.2966" stroke="#ACACAC" stroke-width="0.45" stroke-linecap="round" stroke-linejoin="round"/>
<path d="M35.7786 12.6851C35.7855 12.6762 35.7928 12.6681 35.8002 12.6607C35.8125 12.6485 35.8253 12.6385 35.8384 12.6309C35.8515 12.6233 35.8649 12.618 35.8783 12.6152C35.8917 12.6125 35.9051 12.6122 35.9182 12.6145C35.9314 12.6167 35.9442 12.6214 35.9567 12.6285C35.969 12.6357 35.9809 12.6452 35.9921 12.657C36.0033 12.6687 36.0137 12.6827 36.0232 12.6986C36.0327 12.7145 36.0413 12.7323 36.0488 12.7518C36.0563 12.7713 36.0628 12.7925 36.068 12.8149C36.0726 12.8348 36.0762 12.8556 36.0788 12.8767" stroke="#ACACAC" stroke-width="0.45" stroke-linecap="round" stroke-linejoin="round"/>
<path d="M35.843 13.4911C35.7224 13.482 35.6051 13.4731 35.489 13.4638C35.3513 13.4527 35.2153 13.441 35.0819 13.4289C34.9232 13.4145 34.7682 13.3994 34.6162 13.384C34.4475 13.3668 34.2825 13.3491 34.1209 13.3308C33.9564 13.3121 33.7955 13.2929 33.64 13.273C33.5645 13.2634 33.4902 13.2536 33.4165 13.2435" stroke="#ACACAC" stroke-width="0.45" stroke-linecap="round" stroke-linejoin="round"/>
<path d="M35.8432 13.4916C35.7622 13.4547 35.696 13.3914 35.6555 13.312C35.6151 13.2327 35.6027 13.1419 35.6204 13.0546" stroke="#ACACAC" stroke-width="0.45" stroke-linecap="round" stroke-linejoin="round"/>
<path d="M33.2804 13.2233C33.2774 13.2228 33.2745 13.2224 33.2721 13.222C33.2666 13.2212 33.2634 13.2207 33.2634 13.2207L33.2804 13.2233Z" stroke="#ACACAC" stroke-width="0.45" stroke-linecap="round" stroke-linejoin="round"/>
<path d="M34.3026 13.5925L29.3556 13.2207" stroke="#ACACAC" stroke-width="0.45" stroke-linecap="round" stroke-linejoin="round"/>
<path d="M29.3556 13.2209C29.2605 13.2138 29.1659 13.1855 29.0784 13.1386C28.9841 13.088 28.8981 13.0158 28.827 12.9281C28.7563 12.8408 28.7003 12.738 28.6634 12.6279C28.6293 12.5265 28.6114 12.4189 28.6109 12.3123C28.6103 12.2056 28.6272 12.1 28.6606 12.0027C28.697 11.8966 28.7529 11.8005 28.8242 11.7221C28.8958 11.6433 28.983 11.5826 29.0792 11.5452C29.1117 11.5326 29.1452 11.5227 29.1793 11.5156" stroke="#ACACAC" stroke-width="0.45" stroke-linecap="round" stroke-linejoin="round"/>
<path d="M6.97266 64.1166L9.82577 64.3535" stroke="#ACACAC" stroke-width="0.45" stroke-linecap="round" stroke-linejoin="round"/>
<path d="M6.44325 64.6961C6.43405 64.5705 6.46797 64.4456 6.5394 64.342C6.61082 64.2383 6.71547 64.1622 6.83604 64.1261" stroke="#ACACAC" stroke-width="0.45" stroke-linecap="round" stroke-linejoin="round"/>
<path d="M6.47976 70.8307L6.44287 64.696" stroke="#ACACAC" stroke-width="0.45" stroke-linecap="round" stroke-linejoin="round"/>
<path d="M9.86947 71.7392L7.01721 71.4993" stroke="#ACACAC" stroke-width="0.45" stroke-linecap="round" stroke-linejoin="round"/>
<path d="M10.4002 71.16C10.4093 71.2852 10.3756 71.4097 10.3045 71.5131C10.2334 71.6166 10.1292 71.6927 10.009 71.729" stroke="#ACACAC" stroke-width="0.45" stroke-linecap="round" stroke-linejoin="round"/>
<path d="M10.3645 65.022L10.4004 71.1602" stroke="#ACACAC" stroke-width="0.45" stroke-linecap="round" stroke-linejoin="round"/>
<path d="M5.38098 15.6934L9.5358 16.0083" stroke="#ACACAC" stroke-width="0.45" stroke-linecap="round" stroke-linejoin="round"/>
<path d="M9.56525 20.9914L5.41125 20.6734" stroke="#ACACAC" stroke-width="0.45" stroke-linecap="round" stroke-linejoin="round"/>
<path d="M9.66272 16.165L9.69024 20.8532" stroke="#ACACAC" stroke-width="0.45" stroke-linecap="round" stroke-linejoin="round"/>
<path d="M36.0648 56.1334C36.078 56.3209 36.0269 56.5073 35.9198 56.6619C35.8127 56.8164 35.6562 56.9298 35.476 56.9833" stroke="#ACACAC" stroke-width="0.45" stroke-linecap="round" stroke-linejoin="round"/>
<path d="M4.68353 8.51704C4.6812 8.50105 4.68368 8.48473 4.69065 8.47016C4.69762 8.45558 4.70876 8.44341 4.72266 8.43518" stroke="#ACACAC" stroke-width="0.45" stroke-linecap="round" stroke-linejoin="round"/>
<path d="M43.5532 73.5917C43.5593 73.6805 43.5352 73.7686 43.4847 73.8419C43.4343 73.9151 43.3605 73.9691 43.2754 73.9949" stroke="#ACACAC" stroke-width="0.45" stroke-linecap="round" stroke-linejoin="round"/>
<path d="M43.2496 13.4002C43.2555 13.4838 43.2324 13.5668 43.1841 13.6353C43.1359 13.7037 43.0655 13.7535 42.9849 13.7761" stroke="#ACACAC" stroke-width="0.45" stroke-linecap="round" stroke-linejoin="round"/>
<path d="M6.00102 70.4381C6.00748 70.5264 5.98367 70.6144 5.93349 70.6873C5.88332 70.7603 5.80977 70.8141 5.72498 70.8397" stroke="#ACACAC" stroke-width="0.45" stroke-linecap="round" stroke-linejoin="round"/>
<path d="M5.88206 50.792C5.88862 50.8811 5.86446 50.9698 5.8136 51.0433C5.76274 51.1167 5.68826 51.1706 5.60254 51.1958" stroke="#ACACAC" stroke-width="0.45" stroke-linecap="round" stroke-linejoin="round"/>
<path d="M5.76314 31.1136C5.7698 31.2035 5.74529 31.293 5.69375 31.3669C5.6422 31.4409 5.56675 31.4948 5.4801 31.5197" stroke="#ACACAC" stroke-width="0.45" stroke-linecap="round" stroke-linejoin="round"/>
<path d="M9.69017 20.8537C9.69194 20.8712 9.69003 20.8888 9.68455 20.9055C9.67906 20.9221 9.67013 20.9375 9.65833 20.9505C9.64653 20.9635 9.63212 20.9738 9.61606 20.9809C9.59999 20.988 9.58261 20.9915 9.56506 20.9915" stroke="#ACACAC" stroke-width="0.45" stroke-linecap="round" stroke-linejoin="round"/>
<path d="M5.41138 20.6729C5.37476 20.6667 5.34168 20.6473 5.31835 20.6184C5.29502 20.5895 5.28305 20.5531 5.2847 20.516" stroke="#ACACAC" stroke-width="0.45" stroke-linecap="round" stroke-linejoin="round"/>
<path d="M5.11581 74.3113C5.10377 74.3059 5.09393 74.2966 5.08789 74.2848C5.08185 74.2731 5.07997 74.2597 5.08255 74.2467" stroke="#ACACAC" stroke-width="0.45" stroke-linecap="round" stroke-linejoin="round"/>
<path d="M4.73267 8.43439L43.5121 11.332" stroke="#ACACAC" stroke-width="0.45" stroke-linecap="round" stroke-linejoin="round"/>
<path d="M43.0691 73.1244C43.1329 73.1174 43.1975 73.1245 43.2582 73.1452C43.319 73.166 43.3744 73.1999 43.4206 73.2445C43.4668 73.2891 43.5026 73.3433 43.5255 73.4033C43.5483 73.4632 43.5577 73.5275 43.553 73.5916" stroke="#ACACAC" stroke-width="0.45" stroke-linecap="round" stroke-linejoin="round"/>
<path d="M42.8145 12.972C42.8723 12.9668 42.9306 12.9743 42.9853 12.9939C43.04 13.0134 43.0898 13.0447 43.1312 13.0855C43.1726 13.1262 43.2047 13.1755 43.2251 13.2299C43.2455 13.2843 43.2539 13.3425 43.2496 13.4004" stroke="#ACACAC" stroke-width="0.45" stroke-linecap="round" stroke-linejoin="round"/>
<path d="M5.52344 69.9735C5.58662 69.9671 5.65045 69.9746 5.71041 69.9955C5.77038 70.0164 5.82503 70.0502 5.87052 70.0945C5.91601 70.1389 5.95123 70.1926 5.97371 70.252C5.99618 70.3114 6.00536 70.375 6.00059 70.4383" stroke="#ACACAC" stroke-width="0.45" stroke-linecap="round" stroke-linejoin="round"/>
<path d="M5.40808 50.3264C5.47105 50.3204 5.53456 50.3282 5.59419 50.3493C5.65381 50.3704 5.70811 50.4043 5.75328 50.4486C5.79844 50.4929 5.83339 50.5465 5.85568 50.6057C5.87797 50.6649 5.88707 50.7282 5.88233 50.7913" stroke="#ACACAC" stroke-width="0.45" stroke-linecap="round" stroke-linejoin="round"/>
<path d="M5.29199 30.6486C5.35474 30.643 5.41795 30.6511 5.47722 30.6724C5.5365 30.6937 5.59043 30.7277 5.63528 30.7719C5.68012 30.8162 5.7148 30.8696 5.73691 30.9286C5.75902 30.9876 5.76803 31.0507 5.76332 31.1135" stroke="#ACACAC" stroke-width="0.45" stroke-linecap="round" stroke-linejoin="round"/>
<path d="M6.83618 64.1262C6.88063 64.116 6.92706 64.1128 6.97313 64.1167" stroke="#ACACAC" stroke-width="0.45" stroke-linecap="round" stroke-linejoin="round"/>
<path d="M5.35144 15.6956C5.36109 15.6936 5.37112 15.693 5.38108 15.6937" stroke="#ACACAC" stroke-width="0.45" stroke-linecap="round" stroke-linejoin="round"/>
<path d="M4.73871 50.6991C4.74344 50.636 4.73436 50.5727 4.71208 50.5135C4.6898 50.4544 4.65486 50.4008 4.60972 50.3565C4.56457 50.3122 4.51029 50.2783 4.45069 50.2572C4.39109 50.2361 4.3276 50.2283 4.26465 50.2342" stroke="#ACACAC" stroke-width="0.45" stroke-linecap="round" stroke-linejoin="round"/>
<path d="M4.85811 70.3423C4.86287 70.2789 4.85369 70.2154 4.83123 70.156C4.80877 70.0966 4.77357 70.0429 4.7281 69.9986C4.68263 69.9542 4.62801 69.9204 4.56807 69.8995C4.50813 69.8786 4.44433 69.8711 4.38116 69.8775" stroke="#ACACAC" stroke-width="0.45" stroke-linecap="round" stroke-linejoin="round"/>
<path d="M4.10486 70.2791C4.1001 70.3424 4.10927 70.406 4.13174 70.4654C4.15421 70.5248 4.18942 70.5785 4.2349 70.6228C4.28038 70.6671 4.33502 70.7009 4.39498 70.7218C4.45493 70.7427 4.51874 70.7503 4.58191 70.7438" stroke="#ACACAC" stroke-width="0.45" stroke-linecap="round" stroke-linejoin="round"/>
<path d="M4.59802 8.4328C4.61634 8.43588 4.6329 8.44556 4.64457 8.46C4.65624 8.47445 4.66222 8.49266 4.66139 8.51122" stroke="#ACACAC" stroke-width="0.45" stroke-linecap="round" stroke-linejoin="round"/>
<path d="M4.6618 8.51074L5.06085 74.2393" stroke="#ACACAC" stroke-width="0.45" stroke-linecap="round" stroke-linejoin="round"/>
<path d="M5.06079 74.2396C5.06186 74.2543 5.0579 74.2689 5.04956 74.2811C5.04122 74.2932 5.02899 74.3022 5.01489 74.3065" stroke="#ACACAC" stroke-width="0.45" stroke-linecap="round" stroke-linejoin="round"/>
<path d="M2.99434 8.31221C2.9016 8.30526 2.80629 8.29764 2.72127 8.29038C2.63624 8.2831 2.56149 8.27621 2.49039 8.26919C2.41929 8.26217 2.35186 8.25504 2.28681 8.24768C2.22176 8.24031 2.15909 8.23272 2.09731 8.2247C2.03556 8.21666 1.9747 8.20824 1.91527 8.19936C1.85584 8.19055 1.79784 8.1813 1.74267 8.17189C1.6875 8.16249 1.63515 8.1529 1.58636 8.1433C1.53756 8.13368 1.49229 8.12405 1.45103 8.11458C1.40976 8.10508 1.37246 8.09576 1.33861 8.08652C1.30475 8.07729 1.27434 8.06817 1.24666 8.05898C1.21899 8.04977 1.19404 8.0405 1.17175 8.03121C1.14945 8.02185 1.12981 8.01248 1.11277 8.003C1.09573 7.9935 1.08131 7.98393 1.06947 7.97426C1.05764 7.96459 1.04841 7.95479 1.04181 7.94489C1.03521 7.935 1.03123 7.92498 1.02997 7.91462C1.02872 7.90428 1.03019 7.89363 1.03469 7.88263C1.0392 7.8716 1.04672 7.86018 1.05744 7.84858C1.05912 7.84677 1.06087 7.84495 1.0627 7.84314" stroke="#ACACAC" stroke-width="0.45" stroke-linecap="round" stroke-linejoin="round"/>
<path d="M34.0233 2.1386C34.0114 2.12588 33.9961 2.1192 33.9829 2.11841" stroke="#ACACAC" stroke-width="0.45" stroke-linecap="round" stroke-linejoin="round"/>
<path d="M4.14771 30.5588C4.21043 30.5532 4.27361 30.5614 4.33286 30.5827C4.39212 30.604 4.44603 30.6379 4.49085 30.6822C4.53567 30.7264 4.57034 30.7799 4.59244 30.8388C4.61454 30.8978 4.62355 30.9608 4.61883 31.0236" stroke="#ACACAC" stroke-width="0.45" stroke-linecap="round" stroke-linejoin="round"/>
<path d="M4.3363 31.4299C4.42294 31.4051 4.49838 31.3511 4.54992 31.2772C4.60145 31.2033 4.62596 31.1138 4.61929 31.0239" stroke="#ACACAC" stroke-width="0.45" stroke-linecap="round" stroke-linejoin="round"/>
<path d="M4.45947 51.1028C4.54518 51.0776 4.61966 51.0238 4.67051 50.9503C4.72136 50.8769 4.74551 50.7882 4.73894 50.6991" stroke="#ACACAC" stroke-width="0.45" stroke-linecap="round" stroke-linejoin="round"/>
<path d="M4.58228 70.7436C4.66706 70.718 4.7406 70.6642 4.79077 70.5913C4.84094 70.5183 4.86475 70.4304 4.85827 70.342" stroke="#ACACAC" stroke-width="0.45" stroke-linecap="round" stroke-linejoin="round"/>
<path d="M1.47548 73.7879L1.44598 73.7594" stroke="#ACACAC" stroke-width="0.45" stroke-linecap="round" stroke-linejoin="round"/>
<path d="M9.30287 66.6322C8.71677 66.5873 8.12881 66.5713 7.54114 66.5842" stroke="#ACACAC" stroke-width="0.45" stroke-linecap="round" stroke-linejoin="round"/>
<path d="M7.53151 65.0352C7.46572 65.0373 7.38376 65.0296 7.37256 65.0204" stroke="#ACACAC" stroke-width="0.45" stroke-linecap="round" stroke-linejoin="round"/>
<path d="M7.37256 65.02C7.34845 65.0066 7.33609 64.9926 7.33606 64.9787" stroke="#ACACAC" stroke-width="0.45" stroke-linecap="round" stroke-linejoin="round"/>
<path d="M7.33606 64.9787C7.34892 64.9559 7.36743 64.9369 7.38978 64.9234C7.41214 64.9099 7.4376 64.9023 7.4637 64.9015" stroke="#ACACAC" stroke-width="0.45" stroke-linecap="round" stroke-linejoin="round"/>
<path d="M53.5475 4.27102C53.0955 4.37408 52.0024 4.42861 51.0958 4.39956C50.1891 4.37053 49.4689 4.25791 49.5056 4.1416" stroke="#ACACAC" stroke-width="0.45" stroke-linecap="round" stroke-linejoin="round"/>
<path d="M40.417 50.2911C41.2235 50.2944 42.0278 50.2062 42.8145 50.0284" stroke="#00AE42" stroke-width="0.45" stroke-linecap="round" stroke-linejoin="round"/>
<path d="M36.652 20.8056C37.6577 20.5915 38.6889 20.523 39.7141 20.6022" stroke="#00AE42" stroke-width="0.45" stroke-linecap="round" stroke-linejoin="round"/>
<path d="M34.714 32.4107C34.513 32.395 34.3109 32.3995 34.1108 32.4244" stroke="#00AE42" stroke-width="0.45" stroke-linecap="round" stroke-linejoin="round"/>
<path d="M38.2604 36.7942C38.2632 35.729 37.872 34.6222 37.2134 33.8081C36.5547 32.9939 35.6286 32.4723 34.7142 32.4102" stroke="#00AE42" stroke-width="0.45" stroke-linecap="round" stroke-linejoin="round"/>
<path d="M31.6881 21.8653C32.6951 21.6509 33.7277 21.5824 34.7542 21.662" stroke="#00AE42" stroke-width="0.45" stroke-linecap="round" stroke-linejoin="round"/>
<path d="M74.4819 5.12295L74.5812 5.10205" stroke="#ACACAC" stroke-width="0.45" stroke-linecap="round" stroke-linejoin="round"/>
<path d="M77.404 71.1458C77.2242 71.2709 77.0175 71.3518 76.8007 71.3822" stroke="#ACACAC" stroke-width="0.45" stroke-linecap="round" stroke-linejoin="round"/>
<path d="M50.9376 78.3002C49.1765 78.6129 47.3807 78.6818 45.6008 78.5051" stroke="#ACACAC" stroke-width="0.45" stroke-linecap="round" stroke-linejoin="round"/>
<path d="M76.6424 72.1566L50.9375 78.3006" stroke="#ACACAC" stroke-width="0.45" stroke-linecap="round" stroke-linejoin="round"/>
<path d="M3.5043 74.9406C3.42342 74.9338 3.34752 74.927 3.27705 74.9203C3.20658 74.9136 3.14156 74.907 3.08009 74.9004C3.01861 74.8938 2.96067 74.8872 2.90516 74.8804C2.84966 74.8737 2.79657 74.8669 2.74466 74.8598C2.69274 74.8527 2.642 74.8453 2.5923 74.8377C2.5426 74.8301 2.49393 74.8221 2.44625 74.8139C2.39859 74.8057 2.3519 74.7972 2.30707 74.7885C2.26224 74.7798 2.21926 74.771 2.17883 74.7621C2.13842 74.7533 2.10059 74.7445 2.0654 74.7358C2.03022 74.727 1.99768 74.7183 1.96775 74.7098C1.93784 74.7012 1.91056 74.6928 1.88545 74.6844C1.86034 74.676 1.83741 74.6677 1.81636 74.6593C1.79532 74.6509 1.77616 74.6425 1.75881 74.634C1.74145 74.6255 1.72591 74.617 1.71214 74.6083C1.69837 74.5997 1.68638 74.591 1.67615 74.5823C1.66592 74.5735 1.65745 74.5647 1.65081 74.5558C1.64415 74.5468 1.63931 74.5378 1.63624 74.5286C1.6342 74.5224 1.63295 74.5161 1.63257 74.5096" stroke="#ACACAC" stroke-width="0.45" stroke-linecap="round" stroke-linejoin="round"/>
<path d="M45.6009 78.5059L3.50415 74.941" stroke="#ACACAC" stroke-width="0.45" stroke-linecap="round" stroke-linejoin="round"/>
<path d="M35.955 12.8688C36.0982 12.8766 36.2424 12.8871 36.3973 12.9053C36.5344 12.9215 36.6799 12.9439 36.8209 12.9678C37.1155 13.0178 37.3908 13.0746 37.6634 13.1424C37.9386 13.2108 38.2112 13.2904 38.4778 13.3787C38.7442 13.467 39.0047 13.5641 39.261 13.67C39.5141 13.7746 39.763 13.8877 40.0078 14.0093C40.2467 14.1278 40.4816 14.2544 40.713 14.3895C40.9356 14.5195 41.1549 14.6573 41.3711 14.8038C41.5759 14.9427 41.7779 15.0894 41.9768 15.2454C42.1629 15.3914 42.3464 15.5454 42.5262 15.7081C42.6952 15.8609 42.8609 16.0212 43.0228 16.1892C43.1765 16.3486 43.3267 16.5148 43.4729 16.6875C43.6133 16.8532 43.75 17.0249 43.8829 17.2017C44.0118 17.3734 44.1372 17.5501 44.2591 17.7308C44.3788 17.9081 44.4951 18.0893 44.6084 18.2735C44.7207 18.456 44.8302 18.6415 44.9373 18.829C45.0444 19.0165 45.1493 19.206 45.2525 19.3966C45.3568 19.5894 45.4594 19.7833 45.5598 19.9792C45.6625 20.1798 45.763 20.3824 45.8607 20.5872C45.9619 20.7994 46.0602 21.0141 46.1553 21.2312C46.2549 21.4587 46.3511 21.6889 46.4437 21.9217C46.5417 22.1682 46.6358 22.4175 46.7261 22.6695C46.8225 22.9386 46.9146 23.2106 47.0027 23.4852C47.2002 24.1005 47.3776 24.7281 47.5396 25.3633C47.7299 26.1092 47.899 26.8656 48.0471 27.63" stroke="#00AE42" stroke-width="0.45" stroke-linecap="round" stroke-linejoin="round"/>
<path d="M47.8031 27.5429C47.6533 26.7853 47.4833 26.0348 47.2918 25.2956C47.1291 24.6671 46.9509 24.0469 46.7525 23.4392C46.6642 23.1687 46.5719 22.9007 46.4754 22.6359C46.385 22.388 46.2909 22.1429 46.193 21.9007C46.1004 21.672 46.0044 21.446 45.9051 21.2227C45.8102 21.0095 45.7121 20.7987 45.6113 20.5904C45.5139 20.389 45.4138 20.1898 45.3115 19.9924C45.2113 19.7992 45.1091 19.6077 45.0051 19.4175C44.9023 19.2295 44.7979 19.0427 44.6912 18.8581C44.5849 18.6743 44.4762 18.4929 44.3647 18.3145C44.2527 18.1354 44.1377 17.9593 44.0196 17.7874C43.8996 17.6128 43.7762 17.4425 43.6495 17.2772C43.5193 17.1073 43.3855 16.9428 43.2483 16.7842C43.1057 16.6192 42.9593 16.4606 42.8098 16.3087C42.6523 16.1487 42.4912 15.9961 42.3273 15.8507C42.1526 15.6959 41.9747 15.5493 41.7942 15.4104C41.6009 15.2615 41.4046 15.1214 41.2055 14.9887C40.995 14.8484 40.7813 14.7163 40.5643 14.5917C40.3385 14.462 40.1092 14.3405 39.876 14.2266C39.6369 14.1099 39.3938 14.0014 39.1463 13.9009C38.8958 13.7993 38.6407 13.706 38.3808 13.6218C38.1208 13.5375 37.8559 13.4624 37.5847 13.3962C37.3164 13.3308 37.0418 13.2742 36.765 13.2316C36.6278 13.2105 36.4899 13.1928 36.3476 13.1756C36.2789 13.1673 36.2092 13.1592 36.136 13.1508C36.0695 13.1432 36.0002 13.1354 35.9305 13.1286" stroke="#00AE42" stroke-width="0.45" stroke-linecap="round" stroke-linejoin="round"/>
<path d="M7.80885 16.8193C7.81393 16.7514 7.80424 16.6832 7.7804 16.6195C7.75657 16.5557 7.71918 16.4979 7.67081 16.45C7.62245 16.402 7.56427 16.3652 7.50028 16.342C7.43628 16.3187 7.36801 16.3097 7.30017 16.3154" stroke="#ACACAC" stroke-width="0.45" stroke-linecap="round" stroke-linejoin="round"/>
<path d="M38.328 22.5306C39.1812 22.4995 40.0348 22.581 40.8666 22.7731" stroke="#00AE42" stroke-width="0.45" stroke-linecap="round" stroke-linejoin="round"/>
<path d="M33.4166 13.244C33.4043 13.2424 33.39 13.2403 33.377 13.2384C33.3764 13.2384 33.3757 13.2383 33.3751 13.2382C33.3729 13.2379 33.3705 13.2375 33.3682 13.2372C33.365 13.2367 33.3618 13.2362 33.3587 13.2358C33.3382 13.2327 33.319 13.2296 33.302 13.2268C33.2935 13.2254 33.2855 13.224 33.2795 13.2231" stroke="#ACACAC" stroke-width="0.45" stroke-linecap="round" stroke-linejoin="round"/>
<path d="M33.7366 12.2926C33.7464 12.2939 33.7562 12.2951 33.7661 12.2964C33.916 12.3155 34.0724 12.3341 34.2324 12.3522C34.3899 12.37 34.5509 12.3873 34.7156 12.404C34.8641 12.4191 35.0154 12.4337 35.1704 12.4478C35.3006 12.4596 35.4333 12.471 35.568 12.4818C35.6819 12.4909 35.7972 12.4997 35.9158 12.5085" stroke="#ACACAC" stroke-width="0.45" stroke-linecap="round" stroke-linejoin="round"/>
<path d="M1.4751 73.7878C1.47675 73.7894 1.47846 73.791 1.48022 73.7926C1.4923 73.8035 1.50698 73.8143 1.52425 73.825C1.54152 73.8357 1.56139 73.8463 1.58391 73.8568C1.60642 73.8673 1.63157 73.8777 1.65948 73.8881C1.68737 73.8985 1.71805 73.9088 1.75217 73.9192C1.78631 73.9297 1.8239 73.9402 1.86547 73.9509C1.90704 73.9616 1.95259 73.9725 2.00164 73.9833C2.05069 73.9942 2.10323 74.005 2.15853 74.0156C2.21384 74.0262 2.2719 74.0366 2.33137 74.0465C2.39084 74.0565 2.45175 74.066 2.51339 74.075C2.57503 74.084 2.63743 74.0925 2.70248 74.1008C2.76754 74.109 2.83527 74.1171 2.90643 74.125C2.9776 74.1329 3.05222 74.1406 3.13506 74.1486C3.21793 74.1566 3.30902 74.1648 3.39839 74.1723" stroke="#ACACAC" stroke-width="0.45" stroke-linecap="round" stroke-linejoin="round"/>
<path d="M53.5439 3.39374L53.5475 4.27117" stroke="#ACACAC" stroke-width="0.45" stroke-linecap="round" stroke-linejoin="round"/>
<path d="M49.5055 4.14185L49.5 2.85529" stroke="#ACACAC" stroke-width="0.45" stroke-linecap="round" stroke-linejoin="round"/>
<path d="M53.5444 3.55121L74.5045 5.09084" stroke="#ACACAC" stroke-width="0.45" stroke-linecap="round" stroke-linejoin="round"/>
<path d="M34.1038 2.12238L33.9916 2.1442" stroke="#ACACAC" stroke-width="0.45" stroke-linecap="round" stroke-linejoin="round"/>
<path d="M39.7144 20.6018C42.3496 20.8388 44.8404 21.9109 46.824 23.662" stroke="#00AE42" stroke-width="0.45" stroke-linecap="round" stroke-linejoin="round"/>
<path d="M47.1462 23.9459C48.6235 25.283 49.8746 26.987 50.7661 28.8405C51.2119 29.7672 51.5677 30.7312 51.8417 31.6653C52.1157 32.5994 52.3078 33.5034 52.4161 34.4457C52.7991 37.7783 52.1343 41.5895 50.3796 44.502C48.6249 47.4144 45.7803 49.4282 43.0884 49.9664" stroke="#00AE42" stroke-width="0.45" stroke-linecap="round" stroke-linejoin="round"/>
<path d="M38.2601 36.7943C38.3397 38.4202 37.2285 40.1546 35.892 40.4926" stroke="#00AE42" stroke-width="0.45" stroke-linecap="round" stroke-linejoin="round"/>
<path d="M34.754 21.6622C36.1559 21.7725 37.6452 22.1478 39.1078 22.8866C40.5704 23.6253 42.0062 24.7275 43.2058 26.034C45.605 28.6468 47.0592 32.0767 47.4614 35.5817C47.8637 39.0868 47.2141 42.6671 45.4503 45.579C44.5684 47.0349 43.408 48.3238 42.1387 49.2595C40.8694 50.1951 39.4912 50.7775 38.1387 51.0871" stroke="#00AE42" stroke-width="0.45" stroke-linecap="round" stroke-linejoin="round"/>
<path d="M31.4124 21.9251C30.0503 22.2195 28.6603 22.7884 27.3781 23.7141C26.096 24.6397 24.9217 25.9223 24.0273 27.3737C22.2384 30.2766 21.5685 33.855 21.9522 37.365C22.3357 40.875 23.7727 44.3165 26.1651 46.949C27.3613 48.2653 28.7964 49.3793 30.2603 50.1281C31.7243 50.8769 33.2171 51.2604 34.6231 51.3774" stroke="#00AE42" stroke-width="0.45" stroke-linecap="round" stroke-linejoin="round"/>
<path d="M34.3234 11.8706C34.4829 11.8797 34.6356 11.939 34.7595 12.0399C34.8835 12.1409 34.9724 12.2784 35.0137 12.4328" stroke="#ACACAC" stroke-width="0.45" stroke-linecap="round" stroke-linejoin="round"/>
<path d="M6.93408 70.2917C6.93408 70.319 6.93752 70.3379 6.94153 70.3528C6.94554 70.3678 6.95013 70.3787 7.02798 70.4985C7.10583 70.6184 7.25695 70.8471 7.34672 70.9649C7.43648 71.0827 7.46489 71.0896 7.49581 71.0942C7.52673 71.0988 7.56018 71.1011 9.28214 71.2424" stroke="#ACACAC" stroke-width="0.45" stroke-linecap="round" stroke-linejoin="round"/>
<path d="M7.22495 68.6792C7.0963 68.6741 7.03662 68.7059 6.99829 68.7444C6.95996 68.7828 6.94299 68.8279 6.93455 68.8731C6.92613 68.9182 6.92622 68.9635 6.9342 70.2917" stroke="#ACACAC" stroke-width="0.45" stroke-linecap="round" stroke-linejoin="round"/>
<path d="M34.6229 51.3768C35.7085 51.4658 36.8013 51.3891 37.8638 51.1494" stroke="#00AE42" stroke-width="0.45" stroke-linecap="round" stroke-linejoin="round"/>
<path d="M44.9849 28.2803C44.2647 26.8976 40.6028 23.9581 38.8619 22.6612C38.786 22.5822 38.8628 22.4412 39.7763 22.5089C40.9182 22.5935 44.5765 24.3063 45.655 25.2791C46.7335 26.2518 48.3829 28.7048 49.271 30.1427C50.1592 31.5807 50.5586 35.8657 50.5968 37.0119C50.635 38.1581 49.718 41.3483 49.4506 42.1507C49.1831 42.953 47.1391 45.3218 46.7952 45.8185C46.4514 46.3152 43.6881 47.9452 44.4444 47.1528C45.2008 46.3604 46.9656 42.3985 47.5779 39.0489C48.1902 35.6994 45.8851 30.0087 44.9849 28.2803Z" fill="#00AE42"/>
</svg>
