<svg width="53" height="76" viewBox="0 0 53 76" fill="none" xmlns="http://www.w3.org/2000/svg">
<ellipse cx="9.67253" cy="38.1605" rx="7.85417" ry="36.3636" fill="#F8F8F8" stroke="#ACACAC" stroke-width="2"/>
<ellipse cx="9.06844" cy="38.767" rx="1.20833" ry="5.45455" fill="#ACACAC"/>
<path fill-rule="evenodd" clip-rule="evenodd" d="M43.5058 74.5241C47.8436 74.5241 51.36 58.2436 51.36 38.1605C51.36 18.0774 47.8436 1.79688 43.5058 1.79688C41.7373 1.79688 40.1052 4.50326 38.7924 9.07031H41.1907C41.2357 9.07031 41.2749 9.09921 41.2867 9.1426C43.0924 15.7359 44.11 26.5477 44.11 38.7673C44.11 50.2633 42.9144 60.5134 41.2853 67.177C41.2744 67.2217 41.2345 67.2521 41.1885 67.2521H38.7928C40.1055 71.8183 41.7374 74.5241 43.5058 74.5241Z" fill="#F8F8F8"/>
<path d="M38.7924 9.07031L37.8313 8.79404L37.4644 10.0703H38.7924V9.07031ZM41.2867 9.1426L40.3222 9.40673L40.3223 9.40673L41.2867 9.1426ZM41.2853 67.177L40.3139 66.9395L40.3139 66.9396L41.2853 67.177ZM38.7928 67.2521V66.2521H37.4648L37.8317 67.5284L38.7928 67.2521ZM50.36 38.1605C50.36 48.153 49.4844 57.1698 48.0821 63.6624C47.3792 66.9168 46.5551 69.4832 45.6724 71.2117C45.2304 72.0774 44.7986 72.6827 44.401 73.0594C44.0079 73.4319 43.7122 73.5241 43.5058 73.5241V75.5241C44.3839 75.5241 45.147 75.1077 45.7765 74.5113C46.4014 73.9193 46.956 73.0957 47.4536 72.1213C48.4503 70.1696 49.3186 67.4107 50.037 64.0846C51.4773 57.4161 52.36 48.2511 52.36 38.1605H50.36ZM43.5058 2.79688C43.7122 2.79688 44.0079 2.88917 44.401 3.26159C44.7986 3.63834 45.2304 4.24363 45.6724 5.1093C46.5551 6.83777 47.3792 9.4042 48.0821 12.6587C49.4844 19.1512 50.36 28.168 50.36 38.1605H52.36C52.36 28.0699 51.4773 18.9049 50.037 12.2364C49.3186 8.91035 48.4503 6.15145 47.4536 4.19972C46.956 3.22529 46.4014 2.40176 45.7765 1.80972C45.147 1.21335 44.3839 0.796875 43.5058 0.796875V2.79688ZM39.7534 9.34659C40.3985 7.10251 41.103 5.38844 41.8221 4.25751C42.5744 3.07423 43.164 2.79688 43.5058 2.79688V0.796875C42.079 0.796875 40.9683 1.87271 40.1343 3.18439C39.267 4.54842 38.499 6.47106 37.8313 8.79404L39.7534 9.34659ZM38.7924 10.0703H41.1907V8.07031H38.7924V10.0703ZM41.1907 10.0703C40.8005 10.0703 40.4334 9.81256 40.3222 9.40673L42.2512 8.87847C42.1163 8.38586 41.6709 8.07031 41.1907 8.07031V10.0703ZM40.3223 9.40673C42.0925 15.8708 43.11 26.577 43.11 38.7673H45.11C45.11 26.5185 44.0923 15.6011 42.2512 8.87846L40.3223 9.40673ZM43.11 38.7673C43.11 50.2066 41.9192 60.3734 40.3139 66.9395L42.2567 67.4145C43.9097 60.6533 45.11 50.32 45.11 38.7673H43.11ZM40.3139 66.9396C40.4156 66.5236 40.7872 66.2521 41.1885 66.2521V68.2521C41.6818 68.2521 42.1331 67.9199 42.2567 67.4145L40.3139 66.9396ZM41.1885 66.2521H38.7928V68.2521H41.1885V66.2521ZM43.5058 73.5241C43.1641 73.5241 42.5746 73.2469 41.8223 72.0639C41.1033 70.9332 40.3989 69.2195 39.7538 66.9758L37.8317 67.5284C38.4994 69.851 39.2674 71.7733 40.1346 73.1371C40.9686 74.4485 42.0792 75.5241 43.5058 75.5241V73.5241Z" fill="#ACACAC"/>
<path d="M14.3856 67.2521L13.4246 66.9758L13.0576 68.2521H14.3856V67.2521ZM14.386 9.07031V8.07031H13.0581L13.425 9.34659L14.386 9.07031ZM41.2868 9.1426L40.3223 9.40673L40.3223 9.40673L41.2868 9.1426ZM41.2854 67.177L40.314 66.9395L40.314 66.9395L41.2854 67.177ZM16.5267 38.1605C16.5267 50.0076 15.2961 60.4661 13.4246 66.9758L15.3467 67.5284C17.2899 60.7695 18.5267 50.1048 18.5267 38.1605H16.5267ZM13.425 9.34659C15.2963 15.8564 16.5267 26.3143 16.5267 38.1605H18.5267C18.5267 26.217 17.2901 15.5531 15.3471 8.79404L13.425 9.34659ZM41.1908 8.07031H14.386V10.0703H41.1908V8.07031ZM42.2513 8.87847C42.1164 8.38586 41.671 8.07031 41.1908 8.07031V10.0703C40.8006 10.0703 40.4335 9.81256 40.3223 9.40673L42.2513 8.87847ZM45.11 38.7673C45.11 26.5185 44.0924 15.6011 42.2513 8.87846L40.3223 9.40673C42.0926 15.8708 43.11 26.577 43.11 38.7673H45.11ZM42.2567 67.4145C43.9097 60.6533 45.11 50.32 45.11 38.7673H43.11C43.11 50.2066 41.9193 60.3734 40.314 66.9395L42.2567 67.4145ZM41.1886 68.2521C41.6818 68.2521 42.1332 67.9199 42.2567 67.4145L40.314 66.9395C40.4157 66.5235 40.7874 66.2521 41.1886 66.2521V68.2521ZM14.3856 68.2521H41.1886V66.2521H14.3856V68.2521Z" fill="#ACACAC"/>
</svg>
