<svg width="16" height="16" viewBox="0 0 16 16" fill="none" xmlns="http://www.w3.org/2000/svg">
<path fill-rule="evenodd" clip-rule="evenodd" d="M1.30078 2.00078C1.30078 1.61418 1.61418 1.30078 2.00078 1.30078H6.00078C6.38738 1.30078 6.70078 1.61418 6.70078 2.00078C6.70078 2.38738 6.38738 2.70078 6.00078 2.70078H2.70078V6.00078C2.70078 6.38738 2.38738 6.70078 2.00078 6.70078C1.61418 6.70078 1.30078 6.38738 1.30078 6.00078V2.00078Z" fill="white" fill-opacity="0.88"/>
<path fill-rule="evenodd" clip-rule="evenodd" d="M14.0008 9.30078C14.3874 9.30078 14.7008 9.61418 14.7008 10.0008V14.0008C14.7008 14.3874 14.3874 14.7008 14.0008 14.7008H10.0008C9.61418 14.7008 9.30078 14.3874 9.30078 14.0008C9.30078 13.6142 9.61418 13.3008 10.0008 13.3008H13.3008V10.0008C13.3008 9.61418 13.6142 9.30078 14.0008 9.30078Z" fill="white" fill-opacity="0.88"/>
<path fill-rule="evenodd" clip-rule="evenodd" d="M13.9982 1.30078H14.0008C14.3874 1.30078 14.7008 1.61418 14.7008 2.00078V6.00078C14.7008 6.38738 14.3874 6.70078 14.0008 6.70078C13.6142 6.70078 13.3008 6.38738 13.3008 6.00078V3.68813L10.1598 6.82909C9.88645 7.10246 9.44324 7.10246 9.16987 6.82909C8.8965 6.55572 8.8965 6.11251 9.16987 5.83914L12.3082 2.70078H10.0008C9.61418 2.70078 9.30078 2.38738 9.30078 2.00078C9.30078 1.61418 9.61418 1.30078 10.0008 1.30078H13.9982Z" fill="white" fill-opacity="0.88"/>
<path fill-rule="evenodd" clip-rule="evenodd" d="M6.82909 10.1618C7.10246 9.8884 7.10246 9.44519 6.82909 9.17182C6.55572 8.89846 6.11251 8.89846 5.83914 9.17182L2.70078 12.3102V10.0008C2.70078 9.61418 2.38738 9.30078 2.00078 9.30078C1.61418 9.30078 1.30078 9.61418 1.30078 10.0008V14.0001V14.0008C1.30078 14.3874 1.61418 14.7008 2.00078 14.7008H6.00078C6.38738 14.7008 6.70078 14.3874 6.70078 14.0008C6.70078 13.6142 6.38738 13.3008 6.00078 13.3008H3.69008L6.82909 10.1618Z" fill="white" fill-opacity="0.88"/>
</svg>
