<svg width="58" height="80" viewBox="0 0 58 80" fill="none" xmlns="http://www.w3.org/2000/svg">
<path d="M58 45V35L51 35.7812V44.2187L58 45Z" fill="#ACACAC"/>
<path fill-rule="evenodd" clip-rule="evenodd" d="M44.9704 3.63623C43.208 3.63623 41.2116 6.70995 39.875 10.909L43.0738 10.9092C45 14 47 28.2357 47 40.5C47 52.0393 45.5 65 43.0738 69.091H40.0518C41.4218 73.6574 43.1249 76.3635 44.9704 76.3635C49.4971 76.3635 53.1667 60.083 53.1667 39.9999C53.1667 19.9168 49.4971 3.63623 44.9704 3.63623Z" fill="#EEEEEE"/>
<path d="M15.7085 10.9092H43.0738C45 14 47 28.2357 47 40.5C47 52.0393 45.5 65 43.0738 69.091H15.7085" stroke="#262F30"/>
<path fill-rule="evenodd" clip-rule="evenodd" d="M40.9265 10.9092C41.5573 9.00098 42.3148 7.39151 43.0881 6.26334C43.4956 5.6689 43.8846 5.24175 44.232 4.97214C44.5822 4.70037 44.8266 4.63623 44.9707 4.63623C45.2153 4.63623 45.5388 4.74176 45.9503 5.1154C46.3676 5.49423 46.8181 6.10021 47.2785 6.96415C48.1984 8.69037 49.0576 11.2541 49.7908 14.5068C51.2534 20.9959 52.167 30.0096 52.167 39.9999C52.167 49.9901 51.2534 59.0038 49.7908 65.4929C49.0576 68.7456 48.1984 71.3093 47.2785 73.0355C46.8181 73.8995 46.3676 74.5055 45.9503 74.8843C45.5388 75.2579 45.2153 75.3635 44.9707 75.3635C44.5504 75.3635 43.8868 75.0261 43.0699 73.7381C42.3835 72.656 41.715 71.0918 41.0974 69.091H39.0092C39.698 71.4483 40.49 73.4045 41.3809 74.8093C42.2805 76.2276 43.4651 77.3635 44.9707 77.3635C45.8577 77.3635 46.6391 76.9602 47.2947 76.3651C47.9445 75.7751 48.5233 74.9523 49.0435 73.9761C50.0848 72.0221 50.9917 69.2606 51.7418 65.9327C53.2457 59.2608 54.167 50.0927 54.167 39.9999C54.167 29.907 53.2457 20.7389 51.7418 14.067C50.9917 10.7391 50.0848 7.97755 49.0435 6.02357C48.5233 5.04741 47.9445 4.22458 47.2947 3.63461C46.6391 3.03946 45.8577 2.63623 44.9707 2.63623C44.2335 2.63623 43.5674 2.95631 43.0059 3.39208C42.4415 3.83001 41.9175 4.43373 41.4384 5.1326C40.4794 6.53179 39.6093 8.44755 38.9224 10.6056L39.8759 10.9092H40.9265Z" fill="#262F30"/>
<path d="M11.4792 76.3634C15.8169 76.3634 19.3333 60.0829 19.3333 39.9998C19.3333 19.9168 15.8169 3.63623 11.4792 3.63623C7.14143 3.63623 3.625 19.9168 3.625 39.9998C3.625 60.0829 7.14143 76.3634 11.4792 76.3634Z" fill="#EEEEEE" stroke="#262F30" stroke-width="2"/>
<path d="M10.8748 46.0605C11.5422 46.0605 12.0832 43.6184 12.0832 40.6059C12.0832 37.5935 11.5422 35.1514 10.8748 35.1514C10.2075 35.1514 9.6665 37.5935 9.6665 40.6059C9.6665 43.6184 10.2075 46.0605 10.8748 46.0605Z" fill="#262F30"/>
</svg>
