<svg width="53" height="76" viewBox="0 0 53 76" fill="none" xmlns="http://www.w3.org/2000/svg">
<ellipse cx="9.80827" cy="38.1605" rx="7.85417" ry="36.3636" fill="#F8F8F8" stroke="#909090" stroke-width="2"/>
<ellipse cx="9.20418" cy="38.767" rx="1.20833" ry="5.45455" fill="#909090"/>
<path fill-rule="evenodd" clip-rule="evenodd" d="M43.6416 74.5241C47.9793 74.5241 51.4957 58.2436 51.4957 38.1605C51.4957 18.0774 47.9793 1.79688 43.6416 1.79688C41.873 1.79688 40.2409 4.50326 38.9281 9.07031H41.3265C41.3715 9.07031 41.4106 9.09921 41.4225 9.1426C43.2281 15.7359 44.2457 26.5477 44.2457 38.7673C44.2457 50.2633 43.0502 60.5134 41.421 67.177C41.4101 67.2217 41.3702 67.2521 41.3242 67.2521H38.9285C40.2413 71.8183 41.8732 74.5241 43.6416 74.5241Z" fill="#F8F8F8"/>
<path d="M38.9281 9.07031L37.967 8.79404L37.6001 10.0703H38.9281V9.07031ZM41.4225 9.1426L40.458 9.40673L40.458 9.40673L41.4225 9.1426ZM41.421 67.177L40.4496 66.9395L40.4496 66.9396L41.421 67.177ZM38.9285 67.2521V66.2521H37.6005L37.9674 67.5284L38.9285 67.2521ZM50.4957 38.1605C50.4957 48.153 49.6202 57.1698 48.2178 63.6624C47.5149 66.9168 46.6908 69.4832 45.8082 71.2117C45.3661 72.0774 44.9344 72.6827 44.5367 73.0594C44.1436 73.4319 43.8479 73.5241 43.6416 73.5241V75.5241C44.5196 75.5241 45.2827 75.1077 45.9122 74.5113C46.5371 73.9193 47.0918 73.0957 47.5894 72.1213C48.586 70.1696 49.4544 67.4107 50.1728 64.0846C51.6131 57.4161 52.4957 48.2511 52.4957 38.1605H50.4957ZM43.6416 2.79688C43.8479 2.79688 44.1436 2.88917 44.5367 3.26159C44.9344 3.63834 45.3661 4.24363 45.8082 5.1093C46.6908 6.83777 47.5149 9.4042 48.2178 12.6587C49.6202 19.1512 50.4957 28.168 50.4957 38.1605H52.4957C52.4957 28.0699 51.6131 18.9049 50.1728 12.2364C49.4544 8.91035 48.586 6.15145 47.5894 4.19972C47.0918 3.22529 46.5371 2.40176 45.9122 1.80972C45.2827 1.21335 44.5196 0.796875 43.6416 0.796875V2.79688ZM39.8892 9.34659C40.5343 7.10251 41.2387 5.38844 41.9578 4.25751C42.7102 3.07423 43.2998 2.79688 43.6416 2.79688V0.796875C42.2148 0.796875 41.1041 1.87271 40.2701 3.18439C39.4028 4.54842 38.6348 6.47106 37.967 8.79404L39.8892 9.34659ZM38.9281 10.0703H41.3265V8.07031H38.9281V10.0703ZM41.3265 10.0703C40.9363 10.0703 40.5691 9.81256 40.458 9.40673L42.387 8.87847C42.2521 8.38586 41.8066 8.07031 41.3265 8.07031V10.0703ZM40.458 9.40673C42.2283 15.8708 43.2457 26.577 43.2457 38.7673H45.2457C45.2457 26.5185 44.228 15.6011 42.387 8.87846L40.458 9.40673ZM43.2457 38.7673C43.2457 50.2066 42.0549 60.3734 40.4496 66.9395L42.3924 67.4145C44.0454 60.6533 45.2457 50.32 45.2457 38.7673H43.2457ZM40.4496 66.9396C40.5513 66.5236 40.923 66.2521 41.3242 66.2521V68.2521C41.8175 68.2521 42.2689 67.9199 42.3924 67.4145L40.4496 66.9396ZM41.3242 66.2521H38.9285V68.2521H41.3242V66.2521ZM43.6416 73.5241C43.2998 73.5241 42.7103 73.2469 41.958 72.0639C41.239 70.9332 40.5346 69.2195 39.8896 66.9758L37.9674 67.5284C38.6352 69.851 39.4031 71.7733 40.2703 73.1371C41.1043 74.4485 42.2149 75.5241 43.6416 75.5241V73.5241Z" fill="#909090"/>
<path d="M14.5214 67.2521L13.5603 66.9758L13.1934 68.2521H14.5214V67.2521ZM14.5218 9.07031V8.07031H13.1938L13.5607 9.34659L14.5218 9.07031ZM41.4226 9.1426L40.4581 9.40673L40.4581 9.40673L41.4226 9.1426ZM41.4211 67.177L40.4497 66.9395L40.4497 66.9395L41.4211 67.177ZM16.6625 38.1605C16.6625 50.0076 15.4318 60.4661 13.5603 66.9758L15.4824 67.5284C17.4256 60.7695 18.6625 50.1048 18.6625 38.1605H16.6625ZM13.5607 9.34659C15.432 15.8564 16.6625 26.3143 16.6625 38.1605H18.6625C18.6625 26.217 17.4258 15.5531 15.4829 8.79404L13.5607 9.34659ZM41.3265 8.07031H14.5218V10.0703H41.3265V8.07031ZM42.387 8.87847C42.2521 8.38586 41.8067 8.07031 41.3265 8.07031V10.0703C40.9363 10.0703 40.5692 9.81256 40.4581 9.40673L42.387 8.87847ZM45.2458 38.7673C45.2458 26.5185 44.2281 15.6011 42.387 8.87846L40.4581 9.40673C42.2283 15.8708 43.2458 26.577 43.2458 38.7673H45.2458ZM42.3925 67.4145C44.0455 60.6533 45.2458 50.32 45.2458 38.7673H43.2458C43.2458 50.2066 42.055 60.3734 40.4497 66.9395L42.3925 67.4145ZM41.3243 68.2521C41.8175 68.2521 42.2689 67.9199 42.3925 67.4145L40.4497 66.9395C40.5514 66.5235 40.9231 66.2521 41.3243 66.2521V68.2521ZM14.5214 68.2521H41.3243V66.2521H14.5214V68.2521Z" fill="#909090"/>
</svg>
