<svg width="52" height="76" viewBox="0 0 52 76" fill="none" xmlns="http://www.w3.org/2000/svg">
<ellipse cx="8.86503" cy="38.1605" rx="7.85417" ry="36.3636" fill="#F8F8F8" stroke="#6B6B6B" stroke-width="2"/>
<ellipse cx="8.26082" cy="38.767" rx="1.20833" ry="5.45455" fill="#6B6B6B"/>
<path fill-rule="evenodd" clip-rule="evenodd" d="M42.6983 74.5241C47.0361 74.5241 50.5525 58.2436 50.5525 38.1605C50.5525 18.0774 47.0361 1.79688 42.6983 1.79688C40.9298 1.79688 39.2977 4.50326 37.9849 9.07031H40.3832C40.4282 9.07031 40.4674 9.09921 40.4792 9.1426C42.2849 15.7359 43.3025 26.5477 43.3025 38.7673C43.3025 50.2633 42.1069 60.5134 40.4778 67.177C40.4669 67.2217 40.427 67.2521 40.381 67.2521H37.9853C39.2981 71.8183 40.9299 74.5241 42.6983 74.5241Z" fill="#F8F8F8"/>
<path d="M37.9849 9.07031L37.0238 8.79404L36.6569 10.0703H37.9849V9.07031ZM40.4792 9.1426L39.5148 9.40673L39.5148 9.40673L40.4792 9.1426ZM40.4778 67.177L39.5064 66.9395L39.5064 66.9396L40.4778 67.177ZM37.9853 67.2521V66.2521H36.6573L37.0242 67.5284L37.9853 67.2521ZM49.5525 38.1605C49.5525 48.153 48.6769 57.1698 47.2746 63.6624C46.5717 66.9168 45.7476 69.4832 44.8649 71.2117C44.4229 72.0774 43.9911 72.6827 43.5935 73.0594C43.2004 73.4319 42.9047 73.5241 42.6983 73.5241V75.5241C43.5764 75.5241 44.3395 75.1077 44.969 74.5113C45.5939 73.9193 46.1485 73.0957 46.6461 72.1213C47.6428 70.1696 48.5111 67.4107 49.2295 64.0846C50.6698 57.4161 51.5525 48.2511 51.5525 38.1605H49.5525ZM42.6983 2.79688C42.9047 2.79688 43.2004 2.88917 43.5935 3.26159C43.9911 3.63834 44.4229 4.24363 44.8649 5.1093C45.7476 6.83777 46.5717 9.4042 47.2746 12.6587C48.6769 19.1512 49.5525 28.168 49.5525 38.1605H51.5525C51.5525 28.0699 50.6698 18.9049 49.2295 12.2364C48.5111 8.91035 47.6428 6.15145 46.6461 4.19972C46.1485 3.22529 45.5939 2.40176 44.969 1.80972C44.3395 1.21335 43.5764 0.796875 42.6983 0.796875V2.79688ZM38.9459 9.34659C39.591 7.10251 40.2955 5.38844 41.0146 4.25751C41.7669 3.07423 42.3565 2.79688 42.6983 2.79688V0.796875C41.2715 0.796875 40.1608 1.87271 39.3268 3.18439C38.4595 4.54842 37.6915 6.47106 37.0238 8.79404L38.9459 9.34659ZM37.9849 10.0703H40.3832V8.07031H37.9849V10.0703ZM40.3832 10.0703C39.993 10.0703 39.6259 9.81256 39.5148 9.40673L41.4437 8.87847C41.3088 8.38586 40.8634 8.07031 40.3832 8.07031V10.0703ZM39.5148 9.40673C41.285 15.8708 42.3025 26.577 42.3025 38.7673H44.3025C44.3025 26.5185 43.2848 15.6011 41.4437 8.87846L39.5148 9.40673ZM42.3025 38.7673C42.3025 50.2066 41.1117 60.3734 39.5064 66.9395L41.4492 67.4145C43.1022 60.6533 44.3025 50.32 44.3025 38.7673H42.3025ZM39.5064 66.9396C39.6081 66.5236 39.9797 66.2521 40.381 66.2521V68.2521C40.8743 68.2521 41.3256 67.9199 41.4492 67.4145L39.5064 66.9396ZM40.381 66.2521H37.9853V68.2521H40.381V66.2521ZM42.6983 73.5241C42.3566 73.5241 41.7671 73.2469 41.0148 72.0639C40.2958 70.9332 39.5914 69.2195 38.9463 66.9758L37.0242 67.5284C37.6919 69.851 38.4599 71.7733 39.3271 73.1371C40.1611 74.4485 41.2717 75.5241 42.6983 75.5241V73.5241Z" fill="#6B6B6B"/>
<path d="M13.5781 67.2521L12.6171 66.9758L12.2501 68.2521H13.5781V67.2521ZM13.5785 9.07031V8.07031H12.2506L12.6175 9.34659L13.5785 9.07031ZM40.4793 9.1426L39.5148 9.40673L39.5148 9.40673L40.4793 9.1426ZM40.4779 67.177L39.5065 66.9395L39.5065 66.9395L40.4779 67.177ZM15.7192 38.1605C15.7192 50.0076 14.4886 60.4661 12.6171 66.9758L14.5392 67.5284C16.4824 60.7695 17.7192 50.1048 17.7192 38.1605H15.7192ZM12.6175 9.34659C14.4888 15.8564 15.7192 26.3143 15.7192 38.1605H17.7192C17.7192 26.217 16.4826 15.5531 14.5396 8.79404L12.6175 9.34659ZM40.3833 8.07031H13.5785V10.0703H40.3833V8.07031ZM41.4438 8.87847C41.3089 8.38586 40.8635 8.07031 40.3833 8.07031V10.0703C39.9931 10.0703 39.626 9.81256 39.5148 9.40673L41.4438 8.87847ZM44.3025 38.7673C44.3025 26.5185 43.2849 15.6011 41.4438 8.87846L39.5148 9.40673C41.2851 15.8708 42.3025 26.577 42.3025 38.7673H44.3025ZM41.4492 67.4145C43.1022 60.6533 44.3025 50.32 44.3025 38.7673H42.3025C42.3025 50.2066 41.1118 60.3734 39.5065 66.9395L41.4492 67.4145ZM40.3811 68.2521C40.8743 68.2521 41.3257 67.9199 41.4493 67.4145L39.5065 66.9395C39.6082 66.5235 39.9799 66.2521 40.3811 66.2521V68.2521ZM13.5781 68.2521H40.3811V66.2521H13.5781V68.2521Z" fill="#6B6B6B"/>
</svg>
