<?xml version="1.0" standalone="no"?><!DOCTYPE svg PUBLIC "-//W3C//DTD SVG 1.1//EN" "http://www.w3.org/Graphics/SVG/1.1/DTD/svg11.dtd"><svg t="1638946359959" class="icon" viewBox="0 0 1024 1024" version="1.1" xmlns="http://www.w3.org/2000/svg" p-id="2341" xmlns:xlink="http://www.w3.org/1999/xlink" width="64" height="64"><defs><style type="text/css"></style></defs><path d="M64 490.666667m8.533333 0l878.933334 0q8.533333 0 8.533333 8.533333l0 46.933333q0 8.533333-8.533333 8.533334l-878.933334 0q-8.533333 0-8.533333-8.533334l0-46.933333q0-8.533333 8.533333-8.533333Z" fill="#1296db" p-id="2342"></path><path d="M128 669.866667v154.133333a72 72 0 0 0 67.776 71.893333l4.224 0.106667H354.133333c4.693333 0 8.533333 3.84 8.533334 8.533333v46.933334a8.533333 8.533333 0 0 1-8.533334 8.533333H205.482667A141.482667 141.482667 0 0 1 64 818.517333V669.866667c0-4.693333 3.84-8.533333 8.533333-8.533334h46.933334c4.693333 0 8.533333 3.84 8.533333 8.533334z m832 0v148.650666A141.482667 141.482667 0 0 1 818.517333 960H669.866667a8.533333 8.533333 0 0 1-8.533334-8.533333v-46.933334c0-4.693333 3.84-8.533333 8.533334-8.533333h154.133333a72 72 0 0 0 71.893333-67.776l0.106667-4.224V669.866667c0-4.693333 3.84-8.533333 8.533333-8.533334h46.933334c4.693333 0 8.533333 3.84 8.533333 8.533334z m-597.333333-597.333334v46.933334a8.533333 8.533333 0 0 1-8.533334 8.533333H200a72 72 0 0 0-71.893333 67.776L128 200V354.133333a8.533333 8.533333 0 0 1-8.533333 8.533334H72.533333a8.533333 8.533333 0 0 1-8.533333-8.533334V205.482667A141.482667 141.482667 0 0 1 205.482667 64H354.133333c4.693333 0 8.533333 3.84 8.533334 8.533333zM818.517333 64A141.482667 141.482667 0 0 1 960 205.482667V354.133333a8.533333 8.533333 0 0 1-8.533333 8.533334h-46.933334a8.533333 8.533333 0 0 1-8.533333-8.533334V200a72 72 0 0 0-67.776-71.893333L824 128H669.866667a8.533333 8.533333 0 0 1-8.533334-8.533333V72.533333c0-4.693333 3.84-8.533333 8.533334-8.533333h148.650666zM694.058667 618.688L748.074667 618.666667a4.970667 4.970667 0 0 1 4.906666 5.781333 243.669333 243.669333 0 0 1-234.666666 207.466667L512 832a243.669333 243.669333 0 0 1-240.618667-205.226667 7.082667 7.082667 0 0 1 7.04-8.106666h1.152a543233.92 543233.92 0 0 0 48.298667 0 8.533333 8.533333 0 0 1 8.341333 6.826666l0.362667 1.706667c17.621333 79.765333 87.317333 138.176 169.045333 140.714667l5.546667 0.085333 5.504-0.064a179.669333 179.669333 0 0 0 171.52-144.405333 5.973333 5.973333 0 0 1 5.866667-4.842667zM512 192c144.426667 0 261.482667 117.077333 261.482667 261.482667 0 11.562667-0.768 23.104-2.282667 34.56L762.304 554.666667h-64.576l10.026667-75.093334a197.482667 197.482667 0 1 0-392.192-5.674666l0.682666 5.696 9.984 75.072h-64.554666l-8.874667-66.624c-19.072-143.146667 81.493333-274.666667 224.64-293.76A261.482667 261.482667 0 0 1 512 192z" fill="#1296db" p-id="2343"></path></svg>