<svg width="19" height="19" viewBox="0 0 19 19" fill="none" xmlns="http://www.w3.org/2000/svg">
<path d="M8.74075 11.2603C8.73545 10.9437 8.33311 10.5663 7.82345 10.0884C7.26132 9.56146 6.56204 8.90549 6.07884 8.00648C5.30352 6.5646 3.59261 5.55827 2.45248 5.45239C2.39039 5.44661 2.33024 5.44373 2.27345 5.44373C1.99239 5.44373 1.78063 5.51495 1.67619 5.64393C1.07653 6.38846 0.664082 7.56083 0.600554 8.70384C0.528845 9.99171 0.899422 11.0423 1.64298 11.6622C2.42986 12.3182 3.79185 12.6912 5.28812 12.6594C6.70594 12.6295 7.94473 12.2532 8.52129 11.6766C8.67096 11.527 8.74267 11.3908 8.74075 11.2603ZM7.70361 11.3975C7.15544 11.7123 6.22419 11.9206 5.2732 11.9409C5.22122 11.9418 5.16876 11.9423 5.11727 11.9423C3.85586 11.9423 2.72921 11.6309 2.10404 11.1097C1.53903 10.639 1.26037 9.79873 1.31909 8.74378C1.36866 7.84574 1.67523 6.89619 2.11896 6.26621L2.195 6.15793L2.32735 6.16467C2.5959 6.17814 2.9607 6.2821 3.32743 6.45006C4.23943 6.8678 5.03112 7.57671 5.44549 8.34722C5.74436 8.90309 6.13371 9.419 6.66984 9.97102C6.84214 10.1486 7.24015 10.5269 7.50292 10.7771C7.62901 10.8975 7.70794 10.9721 7.73297 10.9971L7.97216 11.243L7.70361 11.3975Z" fill="#828280"/>
<path d="M10.627 10.8205C10.1 11.3826 9.44404 12.0819 8.54502 12.5651C7.10314 13.3404 6.09681 15.0508 5.99093 16.1914C5.95676 16.5591 6.02654 16.8421 6.18247 16.9677C6.927 17.5679 8.09937 17.9803 9.24238 18.0439C10.5303 18.1156 11.5809 17.745 12.2007 17.0014C12.8567 16.2145 13.2297 14.8521 13.1979 13.3563C13.1681 11.9385 12.7917 10.6997 12.2152 10.1231C12.0674 9.97537 11.9332 9.90367 11.8042 9.90367L11.797 9.80741L11.7984 9.90367C11.4822 9.90848 11.1049 10.3113 10.627 10.8205ZM11.936 10.9403C12.2513 11.4885 12.4592 12.4197 12.4794 13.3707C12.5068 14.6783 12.1882 15.8926 11.6487 16.5404C11.2228 17.0515 10.4792 17.333 9.55521 17.333C9.46569 17.333 9.37425 17.3306 9.28233 17.3253C8.3838 17.2753 7.43473 16.9687 6.80475 16.5254L6.69647 16.4494L6.70321 16.3171C6.71668 16.0485 6.82063 15.6837 6.9886 15.317C7.40634 14.405 8.11525 13.6133 8.88576 13.1989C9.44115 12.9 9.95755 12.5112 10.5096 11.9746C10.6872 11.8018 11.0659 11.4043 11.3162 11.141L11.3292 11.1275C11.4384 11.0125 11.5106 10.9369 11.5356 10.9119C11.5443 10.9033 11.5534 10.8941 11.5626 10.8859L11.7844 10.6761L11.936 10.9403Z" fill="#828280"/>
<path d="M12.9997 1.13739C12.2547 0.537251 11.0823 0.124803 9.9398 0.0612752C9.83536 0.0554999 9.73092 0.0526123 9.62986 0.0526123C8.48684 0.0526123 7.54645 0.426077 6.98144 1.1037C6.32547 1.89058 5.95296 3.25353 5.98425 4.74884C6.01409 6.16666 6.39044 7.40545 6.967 7.98201C7.11619 8.1312 7.25191 8.20195 7.38426 8.20147C7.70045 8.19617 8.07777 7.79383 8.55567 7.28417C9.08266 6.72252 9.73862 6.02324 10.6376 5.53956C12.0795 4.76424 13.0858 3.05381 13.1917 1.9132C13.2254 1.54599 13.1556 1.263 12.9997 1.13739ZM12.4795 1.78807C12.466 2.05662 12.362 2.42142 12.1941 2.78815C11.7763 3.70015 11.0674 4.49184 10.2969 4.90621C9.74103 5.20508 9.22511 5.59443 8.6731 6.13056C8.49647 6.30189 8.11819 6.69942 7.86841 6.9622C7.80056 7.03391 7.74713 7.08973 7.70863 7.12968L7.7096 7.13064L7.6581 7.18214L7.63837 7.22112H7.61815L7.39821 7.42758L7.24661 7.16385C6.93138 6.61568 6.72348 5.68443 6.70326 4.73344C6.67583 3.42631 6.99443 2.21159 7.53393 1.5638C8.00509 0.998307 8.84539 0.719652 9.89985 0.778848C10.7979 0.828419 11.7474 1.13499 12.3774 1.57872L12.4857 1.65524L12.4795 1.78807Z" fill="#828280"/>
<path d="M17.5412 6.44297C16.7601 5.79181 15.3875 5.4145 13.896 5.44578C12.4782 5.47562 11.2394 5.85197 10.6629 6.42853C10.5132 6.57821 10.4415 6.71441 10.4434 6.84531C10.4487 7.16199 10.851 7.53931 11.3607 8.01721C11.9228 8.5442 12.6221 9.20017 13.1053 10.0992C13.8806 11.5411 15.5911 12.5474 16.7317 12.6533C17.0993 12.6874 17.3823 12.6177 17.5079 12.4617C18.1081 11.7172 18.5205 10.5448 18.5841 9.40182C18.6553 8.11346 18.2852 7.06285 17.5412 6.44297ZM17.866 9.36139C17.8164 10.2599 17.5099 11.209 17.0661 11.839L16.9901 11.9473L16.8578 11.941C16.5892 11.928 16.2244 11.824 15.8577 11.6556C14.9457 11.2379 14.154 10.5285 13.7396 9.75844C13.4407 9.20257 13.0514 8.68665 12.5153 8.13464C12.3434 7.95753 11.9459 7.57925 11.6827 7.32851L11.7486 7.25824L11.6822 7.32803C11.5556 7.20771 11.4772 7.13263 11.4526 7.10809C11.4415 7.09702 11.4338 7.08932 11.4266 7.08162L11.2178 6.85975L11.482 6.70767C12.0301 6.39244 12.9614 6.18453 13.9124 6.16432C15.22 6.13737 16.4347 6.45597 17.082 6.99499C17.6456 7.46615 17.9247 8.30645 17.866 9.36139Z" fill="#828280"/>
</svg>
