<svg width="25" height="25" viewBox="0 0 25 25" fill="none" xmlns="http://www.w3.org/2000/svg">
<path d="M13.5941 5.15355C13.5941 4.64201 13.1826 4.23047 12.6711 4.23047C12.1595 4.23047 11.748 4.64201 11.748 5.15355V11.3074H5.59413C5.08259 11.3074 4.67105 11.7189 4.67105 12.2305C4.67105 12.742 5.08259 13.1535 5.59413 13.1535H11.748V19.3074C11.748 19.8189 12.1595 20.2305 12.6711 20.2305C13.1826 20.2305 13.5941 19.8189 13.5941 19.3074V13.1535H19.748C20.2595 13.1535 20.6711 12.742 20.6711 12.2305C20.6711 11.7189 20.2595 11.3074 19.748 11.3074H13.5941V5.15355Z" fill="black"/>
</svg>
