<svg width="25" height="25" viewBox="0 0 25 25" fill="none" xmlns="http://www.w3.org/2000/svg">
<path d="M20.6121 10.8975C21.128 10.8975 21.5431 10.4824 21.5431 9.96646V4.38025C21.5431 3.86431 21.128 3.44922 20.6121 3.44922C20.0961 3.44922 19.681 3.86431 19.681 4.38025V7.48758L18.9052 6.57594C17.3146 4.66732 14.9133 3.44922 12.2327 3.44922C7.43404 3.44922 3.54309 7.34017 3.54309 12.1389C3.54309 16.9376 7.43404 20.8285 12.2327 20.8285C14.1879 20.8285 15.9957 20.1807 17.4465 19.0906C17.8577 18.7803 17.9392 18.1984 17.6327 17.7872C17.3263 17.3759 16.7405 17.2945 16.3293 17.6009C15.1888 18.4583 13.7728 18.9665 12.2327 18.9665C8.46206 18.9665 5.40516 15.9096 5.40516 12.1389C5.40516 8.36818 8.46206 5.31129 12.2327 5.31129C14.3392 5.31129 16.2246 6.2656 17.4776 7.77077L17.4815 7.77853L18.5521 9.03543H15.0258C14.5099 9.03543 14.0948 9.45051 14.0948 9.96646C14.0948 10.4824 14.5099 10.8975 15.0258 10.8975H20.6121Z" fill="#00AE42"/>
</svg>
