<svg width="16" height="16" viewBox="0 0 16 16" fill="none" xmlns="http://www.w3.org/2000/svg">
<path fill-rule="evenodd" clip-rule="evenodd" d="M9.33588 3.76194C9.07655 4.7013 8.91113 6.02735 8.91113 7.51158C8.91113 8.9958 9.07655 10.3219 9.33588 11.2612C9.46652 11.7344 9.61331 12.0809 9.75541 12.2974C9.83934 12.4253 9.8985 12.4751 9.92755 12.494C9.93252 12.4906 9.93828 12.4865 9.94482 12.4814C9.9912 12.4453 10.0542 12.3776 10.1167 12.2709C10.2561 12.0326 10.5624 11.9524 10.8007 12.0919C11.0391 12.2314 11.1192 12.5377 10.9797 12.776C10.8665 12.9694 10.7246 13.1418 10.5587 13.2708C10.3964 13.397 10.1813 13.5036 9.93341 13.5036C9.46152 13.5036 9.12952 13.1663 8.91939 12.8461C8.69647 12.5065 8.51575 12.0482 8.37194 11.5273C8.08237 10.4785 7.91113 9.05848 7.91113 7.51158C7.91113 5.96467 8.08237 4.5447 8.37194 3.49582C8.51575 2.97492 8.69647 2.5167 8.91939 2.17706C9.12952 1.8569 9.46152 1.51953 9.93341 1.51953C10.3928 1.51953 10.7291 1.84579 10.9381 2.1671C11.0886 2.3986 11.023 2.70831 10.7915 2.85885C10.56 3.0094 10.2503 2.94377 10.0997 2.71227C10.0355 2.61343 9.98026 2.55954 9.9446 2.53382C9.94015 2.5306 9.93625 2.52799 9.93288 2.52588C9.90617 2.54182 9.84486 2.58947 9.75541 2.72576C9.61331 2.94227 9.46652 3.28872 9.33588 3.76194Z" fill="#009688"/>
<path fill-rule="evenodd" clip-rule="evenodd" d="M6.44623 3.62131C6.1869 4.56068 6.02148 5.88673 6.02148 7.37095C6.02148 8.85518 6.1869 10.1812 6.44623 11.1206C6.57688 11.5938 6.72366 11.9403 6.86576 12.1568C6.94969 12.2847 7.00886 12.3345 7.0379 12.3533C7.04287 12.35 7.04863 12.3458 7.05517 12.3408C7.10155 12.3047 7.16455 12.237 7.227 12.1303C7.36649 11.8919 7.67276 11.8118 7.91109 11.9513C8.14941 12.0908 8.22954 12.3971 8.09005 12.6354C7.97686 12.8288 7.83494 13.0012 7.66908 13.1301C7.50671 13.2564 7.29164 13.363 7.04376 13.363C6.57187 13.363 6.23987 13.0256 6.02974 12.7055C5.80682 12.3658 5.6261 11.9076 5.48229 11.3867C5.19273 10.3378 5.02148 8.91786 5.02148 7.37095C5.02148 5.82405 5.19273 4.40407 5.48229 3.3552C5.6261 2.8343 5.80682 2.37608 6.02974 2.03643C6.23987 1.71628 6.57187 1.37891 7.04376 1.37891C7.50318 1.37891 7.83947 1.70517 8.04842 2.02648C8.19896 2.25798 8.13334 2.56768 7.90184 2.71823C7.67034 2.86877 7.36063 2.80314 7.21009 2.57165C7.14582 2.47281 7.09061 2.41891 7.05496 2.39319C7.0505 2.38998 7.0466 2.38737 7.04324 2.38525C7.01653 2.40119 6.95521 2.44885 6.86576 2.58514C6.72366 2.80164 6.57688 3.14809 6.44623 3.62131Z" fill="#009688"/>
<path fill-rule="evenodd" clip-rule="evenodd" d="M12.4339 3.03967C12.1256 4.16401 11.9287 5.74556 11.9287 7.51243C11.9287 9.2793 12.1256 10.8608 12.4339 11.9852C12.5891 12.5509 12.7648 12.9726 12.9389 13.2411C13.0254 13.3745 13.0997 13.4516 13.1536 13.4918C13.1793 13.511 13.1967 13.5191 13.2055 13.5224C13.2099 13.524 13.2125 13.5245 13.2135 13.5247L13.2144 13.5248L13.2145 13.5249L13.2145 13.5249L13.2145 13.5249L13.2145 13.5248L13.2155 13.5247C13.2165 13.5245 13.219 13.524 13.2234 13.5224C13.2322 13.5191 13.2496 13.511 13.2753 13.4918C13.3292 13.4516 13.4035 13.3745 13.49 13.2411C13.6641 12.9726 13.8398 12.5509 13.995 11.9852C14.3033 10.8608 14.5002 9.2793 14.5002 7.51243C14.5002 5.74556 14.3033 4.16401 13.995 3.03967C13.8398 2.47393 13.6641 2.05228 13.49 1.78377C13.4035 1.65031 13.3292 1.57326 13.2753 1.53303C13.2496 1.51388 13.2322 1.50576 13.2234 1.5025C13.219 1.50089 13.2165 1.50033 13.2155 1.50014L13.2145 1.50001L13.2145 1.5L13.2145 1.5L13.2145 1.5L13.2144 1.50001L13.2135 1.50014C13.2125 1.50033 13.2099 1.50089 13.2055 1.5025C13.1967 1.50576 13.1793 1.51388 13.1536 1.53303C13.0997 1.57326 13.0254 1.65031 12.9389 1.78377C12.7648 2.05228 12.5891 2.47393 12.4339 3.03967ZM12.0998 1.23979C12.3389 0.870982 12.7044 0.5 13.2145 0.5C13.7245 0.5 14.09 0.870981 14.3291 1.23979C14.5823 1.63037 14.7913 2.16244 14.9594 2.77522C15.2974 4.00791 15.5002 5.68258 15.5002 7.51243C15.5002 9.34227 15.2974 11.0169 14.9594 12.2496C14.7913 12.8624 14.5823 13.3945 14.3291 13.7851C14.09 14.1539 13.7245 14.5249 13.2145 14.5249C12.7044 14.5249 12.3389 14.1539 12.0998 13.7851C11.8466 13.3945 11.6376 12.8624 11.4695 12.2496C11.1315 11.0169 10.9287 9.34227 10.9287 7.51243C10.9287 5.68258 11.1315 4.00791 11.4695 2.77522C11.6376 2.16244 11.8466 1.63037 12.0998 1.23979Z" fill="#6B6B6B"/>
<path fill-rule="evenodd" clip-rule="evenodd" d="M3.01557 3.02614C2.70181 4.1412 2.5 5.71408 2.5 7.48242C2.5 9.25215 2.69477 10.8337 3.00193 11.9573C3.15648 12.5226 3.33188 12.9434 3.50598 13.2111C3.59246 13.3441 3.66683 13.4209 3.721 13.461C3.74681 13.4802 3.7646 13.4885 3.774 13.4919C3.77866 13.4936 3.78163 13.4943 3.7831 13.4946C3.78452 13.4948 3.78529 13.4948 3.78575 13.4948H3.78588C3.7903 13.4949 3.85376 13.4953 3.97588 13.3519C4.10013 13.2059 4.23682 12.9638 4.37383 12.6126C4.47421 12.3554 4.76413 12.2282 5.02138 12.3286C5.27863 12.429 5.40581 12.7189 5.30543 12.9761C5.1497 13.3753 4.96437 13.7334 4.73733 14.0001C4.50962 14.2676 4.19256 14.4948 3.78575 14.4948C3.27511 14.4948 2.9084 14.1265 2.66765 13.7563C2.41362 13.3657 2.20478 12.8336 2.03732 12.221C1.70044 10.9887 1.5 9.31402 1.5 7.48242C1.5 5.64941 1.70803 3.98109 2.05295 2.75527C2.22444 2.14583 2.43753 1.61741 2.69504 1.22977C2.93958 0.861668 3.30814 0.5 3.81502 0.5C4.24247 0.5 4.56888 0.76546 4.79349 1.05099C5.02411 1.34416 5.21464 1.73907 5.37035 2.18601C5.4612 2.44678 5.32345 2.73182 5.06267 2.82267C4.8019 2.91352 4.51686 2.77577 4.42601 2.515C4.28897 2.12163 4.14285 1.84128 4.00754 1.66927C3.89009 1.51998 3.82273 1.50192 3.81343 1.50008C3.81142 1.50027 3.80748 1.50096 3.80091 1.50334C3.79069 1.50704 3.77223 1.51559 3.74588 1.53481C3.6907 1.57505 3.61546 1.65145 3.52799 1.78311C3.35188 2.04821 3.17342 2.46514 3.01557 3.02614Z" fill="#6B6B6B"/>
</svg>
