<svg width="30" height="40" viewBox="0 0 30 40" fill="none" xmlns="http://www.w3.org/2000/svg">
<path d="M23.2596 37.5131C25.5229 37.5131 27.3577 29.5764 27.3577 19.7859C27.3577 9.99536 25.5229 2.05859 23.2596 2.05859C22.3784 2.05859 21.3802 3.55703 20.7119 5.60405H22.2969C22.7771 6.93611 23.7442 11.4734 23.7442 20.5097C23.7442 29.546 22.4689 33.0115 22.2969 34.0043H20.8278C21.5273 36.4088 22.2967 37.5131 23.2596 37.5131Z" fill="#F2F2F2"/>
<path d="M20.7119 5.60405C21.3802 3.55703 22.3784 2.05859 23.2596 2.05859C25.5229 2.05859 27.3577 9.99536 27.3577 19.7859C27.3577 29.5764 25.5229 37.5131 23.2596 37.5131C22.2967 37.5131 21.4114 36.0767 20.7119 33.6722" stroke="#5C5C5C" stroke-width="2"/>
<path d="M22.3311 5.60352L8.93066 5.60352L9.23275 6.78533L10.139 12.399L10.4411 24.5126L9.83691 30.4217L8.93066 33.9672H22.3311C23.1389 30.7196 23.7327 25.7062 23.7327 20.0808C23.7327 14.1019 23.2274 8.8144 22.3311 5.60352Z" fill="#00AE42"/>
<path d="M8.62891 5.60352L22.3115 5.60352C23.2206 8.8144 23.7331 14.1019 23.7331 20.0808C23.7331 25.7062 23.1308 30.7196 22.3115 33.9672H8.62891" stroke="#5C5C5C"/>
<ellipse cx="6.514" cy="19.7859" rx="3.92708" ry="17.7273" fill="#F2F2F2" stroke="#5C5C5C" stroke-width="2"/>
<ellipse cx="6.21159" cy="20.081" rx="0.604167" ry="2.65909" fill="#5C5C5C"/>
</svg>
