<svg id="图层_1" data-name="图层 1" xmlns="http://www.w3.org/2000/svg" viewBox="0 0 22 23"><title>12312</title><path d="M16.59,11.47c0-6.44-1.27-7.81-1.57-8H7.07A21.4,21.4,0,0,1,8.38,11.5a21.4,21.4,0,0,1-1.31,8.07h8C15.33,19.32,16.59,17.9,16.59,11.47Z" fill="#fff" stroke="#6b6b6b"/><polygon points="6.64 19.18 6.64 19.18 6.95 19.18 6.95 19.18 6.64 19.18" fill="#c9c9c9"/><path d="M13.38,19.18V16H16a27.74,27.74,0,0,0,.26-3.23H13.38V9.66H10.05V6.51h3.41V9.66h2.77a23.33,23.33,0,0,0-.33-3.15H13.38V3.82H10.05V6.51H7.62A25.41,25.41,0,0,1,8,9.66h2.05V12.8H8A26,26,0,0,1,7.73,16h2.32v3.15h3.33Zm-3.33-6.3h3.41V16H10.05Z" fill="#c9c9c9"/><path d="M8,12.8h2V9.66H8c0,.63.06,1.27.06,1.94C8.06,12,8.05,12.41,8,12.8Z" fill="#fff"/><path d="M10.05,19.18V16H7.73A16.45,16.45,0,0,1,7,19.18Z" fill="#fff"/><path d="M13.38,19.18H15.1A8.83,8.83,0,0,0,16,16H13.38Z" fill="#fff"/><path d="M13.38,6.51H15.9A6.77,6.77,0,0,0,15,3.82H13.38Z" fill="#fff"/><path d="M10.05,6.51V3.82H6.87a14.66,14.66,0,0,1,.75,2.69Z" fill="#fff"/><rect x="10.05" y="12.88" width="3.41" height="3.15" fill="#fff"/><path d="M13.46,9.66h-.08V12.8h2.88c0-.38,0-.79,0-1.22,0-.7,0-1.34,0-1.92Z" fill="#fff"/><polygon points="13.46 9.66 13.46 6.51 10.05 6.51 10.05 9.66 13.38 9.66 13.38 9.66 13.46 9.66" fill="#fff"/><rect x="13.38" y="9.66" width="0.08" fill="#c9c9c9"/><path d="M5.35,21.31c1.68,0,3-4.39,3-9.81S7,1.69,5.35,1.69s-3,4.39-3,9.81S3.68,21.31,5.35,21.31Z" fill="#fff" stroke="#6b6b6b"/><path d="M4.89,13c.26,0,.46-.66.46-1.47S5.15,10,4.89,10s-.47.66-.47,1.47S4.63,13,4.89,13Z" fill="#6b6b6b"/><path d="M16.65,21.31c1.67,0,3-4.39,3-9.81s-1.35-9.81-3-9.81c-.63,0-1.22.62-1.7,1.69h0s1.63.84,1.63,8.09S15,19.61,15,19.62h0C15.43,20.69,16,21.31,16.65,21.31Z" fill="none" stroke="#6b6b6b" stroke-miterlimit="10" fill-rule="evenodd"/></svg>