<svg width="35" height="25" viewBox="0 0 35 25" fill="none" xmlns="http://www.w3.org/2000/svg">
<path d="M26.7876 10.739L29.899 13.8505C30.0943 14.0458 30.4109 14.0458 30.6061 13.8505L33.7177 10.739" stroke="#ACACAC" stroke-linecap="round"/>
<path d="M12 4.34668C14.1549 4.34668 16.2215 5.2027 17.7452 6.72644C19.269 8.25017 20.125 10.3168 20.125 12.4717C20.125 14.6266 19.269 16.6932 17.7452 18.2169C16.2215 19.7407 14.1549 20.5967 12 20.5967C9.84512 20.5967 7.77849 19.7407 6.25476 18.2169C4.73102 16.6932 3.875 14.6266 3.875 12.4717C3.875 10.3168 4.73102 8.25017 6.25476 6.72644C7.77849 5.2027 9.84512 4.34668 12 4.34668ZM12 22.4717C14.6522 22.4717 17.1957 21.4181 19.0711 19.5427C20.9464 17.6674 22 15.1238 22 12.4717C22 9.81951 20.9464 7.27598 19.0711 5.40061C17.1957 3.52525 14.6522 2.47168 12 2.47168C9.34784 2.47168 6.8043 3.52525 4.92893 5.40061C3.05357 7.27598 2 9.81951 2 12.4717C2 15.1238 3.05357 17.6674 4.92893 19.5427C6.8043 21.4181 9.34784 22.4717 12 22.4717ZM12 7.47168C11.4805 7.47168 11.0625 7.88965 11.0625 8.40918V12.7842C11.0625 13.3037 11.4805 13.7217 12 13.7217C12.5195 13.7217 12.9375 13.3037 12.9375 12.7842V8.40918C12.9375 7.88965 12.5195 7.47168 12 7.47168ZM13.25 16.2217C13.25 15.8902 13.1183 15.5722 12.8839 15.3378C12.6495 15.1034 12.3315 14.9717 12 14.9717C11.6685 14.9717 11.3505 15.1034 11.1161 15.3378C10.8817 15.5722 10.75 15.8902 10.75 16.2217C10.75 16.5532 10.8817 16.8711 11.1161 17.1056C11.3505 17.34 11.6685 17.4717 12 17.4717C12.3315 17.4717 12.6495 17.34 12.8839 17.1056C13.1183 16.8711 13.25 16.5532 13.25 16.2217Z" fill="#D01B1B"/>
</svg>
