<svg width="24" height="25" viewBox="0 0 24 25" fill="none" xmlns="http://www.w3.org/2000/svg">
<path d="M12 4.37012C14.1549 4.37012 16.2215 5.22614 17.7452 6.74987C19.269 8.27361 20.125 10.3402 20.125 12.4951C20.125 14.65 19.269 16.7166 17.7452 18.2404C16.2215 19.7641 14.1549 20.6201 12 20.6201C9.84512 20.6201 7.77849 19.7641 6.25476 18.2404C4.73102 16.7166 3.875 14.65 3.875 12.4951C3.875 10.3402 4.73102 8.27361 6.25476 6.74987C7.77849 5.22614 9.84512 4.37012 12 4.37012ZM12 22.4951C14.6522 22.4951 17.1957 21.4415 19.0711 19.5662C20.9464 17.6908 22 15.1473 22 12.4951C22 9.84295 20.9464 7.29941 19.0711 5.42405C17.1957 3.54869 14.6522 2.49512 12 2.49512C9.34784 2.49512 6.8043 3.54869 4.92893 5.42405C3.05357 7.29941 2 9.84295 2 12.4951C2 15.1473 3.05357 17.6908 4.92893 19.5662C6.8043 21.4415 9.34784 22.4951 12 22.4951ZM12 7.49512C11.4805 7.49512 11.0625 7.91309 11.0625 8.43262V12.8076C11.0625 13.3271 11.4805 13.7451 12 13.7451C12.5195 13.7451 12.9375 13.3271 12.9375 12.8076V8.43262C12.9375 7.91309 12.5195 7.49512 12 7.49512ZM13.25 16.2451C13.25 15.9136 13.1183 15.5957 12.8839 15.3612C12.6495 15.1268 12.3315 14.9951 12 14.9951C11.6685 14.9951 11.3505 15.1268 11.1161 15.3612C10.8817 15.5957 10.75 15.9136 10.75 16.2451C10.75 16.5766 10.8817 16.8946 11.1161 17.129C11.3505 17.3634 11.6685 17.4951 12 17.4951C12.3315 17.4951 12.6495 17.3634 12.8839 17.129C13.1183 16.8946 13.25 16.5766 13.25 16.2451Z" fill="#D01B1B"/>
</svg>
