<svg width="20" height="20" viewBox="0 0 20 20" fill="none" xmlns="http://www.w3.org/2000/svg">
<path fill-rule="evenodd" clip-rule="evenodd" d="M17.1895 9.86816L8.73591 18.3217C8.54065 18.517 8.22406 18.517 8.0288 18.3217L0.346886 10.6398C0.151624 10.4446 0.151624 10.128 0.346886 9.93272L0.411443 9.86816H17.1895Z" fill="#54545A"/>
<path fill-rule="evenodd" clip-rule="evenodd" d="M18.0623 11.3705L17.6241 11.6113L17.1862 11.3701C17.2742 11.2104 17.4421 11.1112 17.6244 11.1113C17.8067 11.1114 17.9745 11.2107 18.0623 11.3705ZM19.8145 15.5488C19.8145 15.5488 19.8145 15.5487 19.8145 15.5488V15.5488ZM19.8145 15.5488C19.9034 16.6116 19.6888 17.3534 19.1836 17.8066C18.6985 18.2419 18.0669 18.2932 17.6241 18.2932C17.1809 18.2932 16.536 18.2389 16.0436 17.8063C15.5228 17.3487 15.3094 16.599 15.4355 15.5317C15.4774 15.1768 15.6202 14.7344 15.7876 14.3012C15.959 13.8575 16.1721 13.3835 16.378 12.9523C16.5844 12.52 16.786 12.1253 16.9359 11.8388C17.0109 11.6954 17.0732 11.5788 17.1168 11.4978C17.1386 11.4573 17.1558 11.4257 17.1676 11.404L17.1812 11.3792L17.1862 11.3701C17.1862 11.37 17.1862 11.3701 17.6241 11.6113C18.0623 11.3705 18.0623 11.3704 18.0623 11.3705L18.0674 11.3798L18.0814 11.4054C18.0935 11.4277 18.1112 11.4602 18.1336 11.5019C18.1784 11.5852 18.2423 11.7051 18.3191 11.852C18.4727 12.1456 18.6788 12.5491 18.8881 12.9871C19.0969 13.424 19.3118 13.9012 19.4811 14.341C19.6449 14.7665 19.7859 15.206 19.8145 15.5488ZM17.6242 12.686C17.5175 12.8961 17.3996 13.1334 17.2804 13.3831C17.0804 13.8022 16.879 14.2508 16.7204 14.6615C16.5577 15.0826 16.4549 15.4264 16.4286 15.6489C16.3218 16.5522 16.5317 16.904 16.7037 17.0551C16.9042 17.2313 17.2218 17.2932 17.6241 17.2932C18.0279 17.2932 18.3252 17.2333 18.5158 17.0623C18.6864 16.9092 18.8947 16.5497 18.818 15.632C18.8023 15.4438 18.7096 15.1204 18.5479 14.7003C18.3917 14.2946 18.189 13.8434 17.9859 13.4183C17.8606 13.1562 17.7363 12.9063 17.6242 12.686Z" fill="#B6B6B6"/>
<path fill-rule="evenodd" clip-rule="evenodd" d="M9.22827 2.47085L1.41437 10.2848L8.38918 17.2596L16.2031 9.44566L9.22827 2.47085ZM9.58182 1.41019C9.38656 1.21493 9.06998 1.21493 8.87472 1.41019L0.353714 9.9312C0.158452 10.1265 0.158452 10.443 0.353714 10.6383L8.03563 18.3202C8.23089 18.5155 8.54747 18.5155 8.74273 18.3202L17.2637 9.79921C17.459 9.60395 17.459 9.28737 17.2637 9.09211L9.58182 1.41019Z" fill="#B6B6B6"/>
<path d="M3.92889 1.63263C4.007 1.55453 4.13363 1.55453 4.21173 1.63263L8.48013 5.90103C8.55824 5.97913 8.55824 6.10577 8.48013 6.18387L8.07582 6.58818C7.99771 6.66629 7.87108 6.66629 7.79298 6.58818L3.52458 2.31979C3.44647 2.24168 3.44647 2.11505 3.52458 2.03695L3.92889 1.63263Z" fill="#54545A"/>
<path fill-rule="evenodd" clip-rule="evenodd" d="M7.79298 6.58834C7.87108 6.66644 7.99771 6.66644 8.07582 6.58834L8.48013 6.18402C8.55824 6.10592 8.55824 5.97929 8.48013 5.90118L4.21173 1.63278C4.21173 1.63278 4.21173 1.63278 4.21173 1.63278C4.13363 1.55468 4.007 1.55468 3.92889 1.63278L3.52458 2.0371C3.44647 2.1152 3.44647 2.24183 3.52458 2.31994L7.79298 6.58834ZM4.91884 0.925677L9.18724 5.19407C9.65587 5.6627 9.65587 6.4225 9.18724 6.89113L8.78293 7.29544C8.3143 7.76407 7.5545 7.76407 7.08587 7.29544L2.81747 3.02705C2.34884 2.55841 2.34884 1.79862 2.81747 1.32999L3.22178 0.925677C3.69041 0.457047 4.45021 0.457048 4.91884 0.925677Z" fill="#B6B6B6"/>
</svg>
