<svg xmlns="http://www.w3.org/2000/svg" width="14" height="14" viewBox="0 0 14 14"><line x1="3.5" y1="13.5" x2="0.5" y2="13.5" style="fill:none;stroke:#949494;stroke-linecap:square;stroke-linejoin:round"/><line x1="6.5" y1="1.5" x2="8.5" y2="1.5" style="fill:none;stroke:#009688;stroke-linecap:round;stroke-linejoin:round"/><line x1="7.5" y1="0.5" x2="7.5" y2="2.5" style="fill:none;stroke:#009688;stroke-linecap:round;stroke-linejoin:round"/><line x1="0.5" y1="5.5" x2="4.5" y2="5.5" style="fill:none;stroke:#009688;stroke-linecap:round;stroke-linejoin:round"/><line x1="2.5" y1="3.5" x2="2.5" y2="7.5" style="fill:none;stroke:#009688;stroke-linecap:round;stroke-linejoin:round"/><circle cx="0.5" cy="2.5" r="0.5" style="fill:#009688"/><circle cx="5.5" cy="3.5" r="0.5" style="fill:#009688"/><circle cx="4.5" cy="7.5" r="0.5" style="fill:#009688"/><circle cx="3.5" cy="10.5" r="0.5" style="fill:#009688"/><circle cx="0.5" cy="9.5" r="0.5" style="fill:#009688"/><circle cx="3.5" cy="1.5" r="0.5" style="fill:#009688"/><circle cx="1.5" cy="0.5" r="0.5" style="fill:#009688"/><path d="M13.5,10.667c0,1.833-1,2.833-2,2.833" style="fill:none;stroke:#009688;stroke-linecap:round;stroke-linejoin:round"/><path d="M11.5,10.667c0,1.833-1,2.833-2,2.833" style="fill:none;stroke:#009688;stroke-linecap:round;stroke-linejoin:round"/><path d="M9.5,10.667c0,1.833-1,2.833-2,2.833" style="fill:none;stroke:#009688;stroke-linecap:round;stroke-linejoin:round"/><path d="M7.5,10.667c0,1.833-1,2.833-2,2.833" style="fill:none;stroke:#009688;stroke-linecap:round;stroke-linejoin:round"/><path d="M13.5,7.5h-2l1.636-5.725A1,1,0,0,0,12.174.5H11.5a1,1,0,0,0-1,1v6h-2l-1,2h6Z" style="fill:none;stroke:#949494;stroke-linecap:round;stroke-linejoin:round"/></svg>