<svg width="21" height="20" viewBox="0 0 21 20" fill="none" xmlns="http://www.w3.org/2000/svg">
<path fill-rule="evenodd" clip-rule="evenodd" d="M4.07262 4.61082C3.35049 5.95191 2.88086 7.8561 2.88086 10.0005C2.88086 12.1449 3.35049 14.0491 4.07262 15.3902C4.8112 16.7618 5.70585 17.3755 6.50586 17.3755C7.30587 17.3755 8.20052 16.7618 8.9391 15.3902C9.66123 14.0491 10.1309 12.1449 10.1309 10.0005C10.1309 7.8561 9.66123 5.95191 8.9391 4.61082C8.20052 3.23918 7.30587 2.62549 6.50586 2.62549C5.70585 2.62549 4.8112 3.23918 4.07262 4.61082ZM2.75191 3.89967C3.59678 2.33064 4.88962 1.12549 6.50586 1.12549C8.1221 1.12549 9.41494 2.33064 10.2598 3.89967C11.1211 5.49925 11.6309 7.65756 11.6309 10.0005C11.6309 12.3434 11.1211 14.5017 10.2598 16.1013C9.41494 17.6703 8.1221 18.8755 6.50586 18.8755C4.88962 18.8755 3.59678 17.6703 2.75191 16.1013C1.8906 14.5017 1.38086 12.3434 1.38086 10.0005C1.38086 7.65756 1.8906 5.49925 2.75191 3.89967Z" fill="#262E30"/>
<path fill-rule="evenodd" clip-rule="evenodd" d="M11.8071 5H7.13086C6.09533 5 5.25586 6.84409 5.25586 10C5.25586 13.1559 6.09533 15 7.13086 15H11.8071C11.2267 13.6213 10.8809 11.8857 10.8809 10C10.8809 8.11434 11.2267 6.37871 11.8071 5Z" fill="#D9D9D9"/>
<path fill-rule="evenodd" clip-rule="evenodd" d="M12.0988 4.375H7.13086C6.19757 4.375 5.58064 5.18705 5.22406 6.08611C4.84543 7.04076 4.63086 8.37669 4.63086 10C4.63086 11.6233 4.84543 12.9592 5.22406 13.9139C5.58064 14.813 6.19757 15.625 7.13086 15.625H12.0988C11.9011 15.2423 11.7233 14.8237 11.5686 14.375H7.13086C7.02862 14.375 6.70804 14.265 6.38601 13.453C6.08602 12.6967 5.88086 11.5326 5.88086 10C5.88086 8.46739 6.08602 7.30333 6.38601 6.54696C6.70804 5.73499 7.02862 5.625 7.13086 5.625H11.5686C11.7233 5.1763 11.9011 4.75771 12.0988 4.375Z" fill="#262E30"/>
<path fill-rule="evenodd" clip-rule="evenodd" d="M12.8226 4.61082C12.1005 5.95191 11.6309 7.8561 11.6309 10.0005C11.6309 12.1449 12.1005 14.0491 12.8226 15.3902C13.5612 16.7618 14.4558 17.3755 15.2559 17.3755C16.0559 17.3755 16.9505 16.7618 17.6891 15.3902C18.4112 14.0491 18.8809 12.1449 18.8809 10.0005C18.8809 7.8561 18.4112 5.95191 17.6891 4.61082C16.9505 3.23918 16.0559 2.62549 15.2559 2.62549C14.4558 2.62549 13.5612 3.23918 12.8226 4.61082ZM11.5019 3.89967C12.3468 2.33064 13.6396 1.12549 15.2559 1.12549C16.8721 1.12549 18.1649 2.33064 19.0098 3.89967C19.8711 5.49925 20.3809 7.65756 20.3809 10.0005C20.3809 12.3434 19.8711 14.5017 19.0098 16.1013C18.1649 17.6703 16.8721 18.8755 15.2559 18.8755C13.6396 18.8755 12.3468 17.6703 11.5019 16.1013C10.6406 14.5017 10.1309 12.3434 10.1309 10.0005C10.1309 7.65756 10.6406 5.49925 11.5019 3.89967Z" fill="#262E30"/>
<ellipse cx="15.2559" cy="10" rx="1.25" ry="2.5" fill="#D9D9D9" stroke="#262E30" stroke-width="0.6" stroke-linejoin="round"/>
</svg>
