<svg width="14" height="14" viewBox="0 0 14 14" fill="none" xmlns="http://www.w3.org/2000/svg">
<g clip-path="url(#clip0_6859_29267)">
<path fill-rule="evenodd" clip-rule="evenodd" d="M6.4935 0.318359C5.7203 0.318359 5.0935 0.945161 5.0935 1.71836V3.24784C5.0935 3.57921 4.82487 3.84784 4.4935 3.84784H2.10361C1.33042 3.84784 0.703613 4.47464 0.703613 5.24784V6.43262C0.703613 7.12336 1.20385 7.69726 1.8618 7.81181C1.81196 7.9125 1.77367 8.02049 1.7488 8.13426L0.907354 11.984C0.716532 12.8571 1.38142 13.683 2.27506 13.683H11.7505C12.6322 13.683 13.2944 12.8778 13.1242 12.0127L12.3669 8.16298C12.3409 8.03066 12.2967 7.90577 12.2373 7.79071C12.8455 7.63831 13.2959 7.08807 13.2959 6.43262V5.24784C13.2959 4.47464 12.6691 3.84784 11.8959 3.84784H9.50613C9.17476 3.84784 8.90613 3.57921 8.90613 3.24784V1.71836C8.90613 0.94516 8.27933 0.318359 7.50613 0.318359H6.4935ZM5.8935 1.71836C5.8935 1.38699 6.16213 1.11836 6.4935 1.11836H7.50613C7.8375 1.11836 8.10613 1.38699 8.10613 1.71836V3.24784C8.10613 4.02104 8.73293 4.64784 9.50613 4.64784H11.8959C12.2273 4.64784 12.4959 4.91647 12.4959 5.24784V6.43262C12.4959 6.76399 12.2273 7.03262 11.8959 7.03262H2.10361C1.77224 7.03262 1.50361 6.76399 1.50361 6.43262V5.24784C1.50361 4.91647 1.77224 4.64784 2.10361 4.64784H4.4935C5.2667 4.64784 5.8935 4.02104 5.8935 3.24784V1.71836ZM2.53035 8.30508C2.59057 8.02959 2.83451 7.8332 3.11651 7.8332H10.9932C11.2799 7.8332 11.5266 8.03606 11.5819 8.31739L12.3392 12.1672C12.4122 12.5379 12.1284 12.883 11.7505 12.883H9.26336L9.26338 12.8793V10.2107C9.26338 9.98975 9.08429 9.81066 8.86338 9.81066C8.64247 9.81066 8.46338 9.98975 8.46338 10.2107V12.8793L8.4634 12.883H5.24432L5.24434 12.8793L5.24434 10.2107C5.24434 9.98975 5.06525 9.81066 4.84434 9.81066C4.62342 9.81066 4.44434 9.98975 4.44434 10.2107V12.8793L4.44435 12.883H2.27506C1.89207 12.883 1.60712 12.529 1.6889 12.1549L2.53035 8.30508Z" fill="#262E30"/>
</g>
<defs>
<clipPath id="clip0_6859_29267">
<rect width="14" height="14" fill="white" transform="translate(0 14) rotate(-90)"/>
</clipPath>
</defs>
</svg>
