<?xml version="1.0" encoding="UTF-8"?><svg id="a" xmlns="http://www.w3.org/2000/svg" width="20" height="20" viewBox="0 0 20 20"><path d="M6.3,17.19c-.38.83-.82,1.31-1.3,1.31-1.38,0-2.5-4.03-2.5-9S3.62.5,5,.5c.49,0,.95.51,1.33,1.38M14,.5c1.38,0,2.5,4.03,2.5,9s-1.12,9-2.5,9-2.5-4.03-2.5-9S12.62.5,14,.5Z" style="fill:none; stroke:#949494; stroke-linecap:round; stroke-linejoin:round;"/><path d="M11,17.44c-.51-.54-1.5-3.19-1.5-7.94s.99-7.4,1.5-7.94M9,1.56c-.51.54-1.5,3.19-1.5,7.94s.99,7.4,1.5,7.94M7,1.56c-.51.54-1.5,3.19-1.5,7.94s.99,7.4,1.5,7.94" style="fill:none; stroke:#009688; stroke-linecap:round; stroke-linejoin:round;"/></svg>