<svg width="52" height="32" viewBox="0 0 52 32" fill="none" xmlns="http://www.w3.org/2000/svg">
<path fill-rule="evenodd" clip-rule="evenodd" d="M4 0C1.79086 0 0 1.79086 0 4V28C0 30.2091 1.79086 32 4 32H48C50.2091 32 52 30.2091 52 28V4C52 1.79086 50.2091 0 48 0H4ZM44 8H8V24H44V8Z" fill="white"/>
<path fill-rule="evenodd" clip-rule="evenodd" d="M36.5 16H33.5V18.2617C33.5 19.9186 32.1569 21.2617 30.5 21.2617C28.8431 21.2617 27.5 19.9186 27.5 18.2617V16H24.5V18.2617C24.5 19.9186 23.1569 21.2617 21.5 21.2617C19.8431 21.2617 18.5 19.9186 18.5 18.2617V16H15.5V18.2617C15.5 19.9186 14.1569 21.2617 12.5 21.2617C10.8432 21.2617 9.5 19.9186 9.5 18.2617V16H4V28H48V16H42.5V18.2617C42.5 19.9186 41.1569 21.2617 39.5 21.2617C37.8431 21.2617 36.5 19.9186 36.5 18.2617V16Z" fill="#CECECE"/>
<path fill-rule="evenodd" clip-rule="evenodd" d="M6 9.18382C6 6.32088 8.32088 4 11.1838 4H40.8162C43.6791 4 46 6.32088 46 9.18382V16H42.5V12.2617C42.5 10.6049 41.1569 9.26172 39.5 9.26172C37.8431 9.26172 36.5 10.6049 36.5 12.2617V16H33.5V12.2617C33.5 10.6049 32.1569 9.26172 30.5 9.26172C28.8431 9.26172 27.5 10.6049 27.5 12.2617V16H24.5V12.2617C24.5 10.6049 23.1569 9.26172 21.5 9.26172C19.8431 9.26172 18.5 10.6049 18.5 12.2617V16H15.5V12.2617C15.5 10.6049 14.1569 9.26172 12.5 9.26172C10.8432 9.26172 9.5 10.6049 9.5 12.2617V16H6V9.18382Z" fill="#EEEEEE"/>
</svg>
