<?xml version="1.0" encoding="UTF-8"?><svg id="a" xmlns="http://www.w3.org/2000/svg" width="52" height="32" viewBox="0 0 52 32"><line x1="43.5" y1="8" x2="43.5" y2="24" style="fill:none; stroke:#949494;"/><line x1="35.5" y1="8" x2="35.5" y2="24" style="fill:none; stroke:#949494;"/><line x1="34.5" y1="8" x2="34.5" y2="24" style="fill:none; stroke:#949494;"/><line x1="26.5" y1="8" x2="26.5" y2="24" style="fill:none; stroke:#949494;"/><line x1="25.5" y1="8" x2="25.5" y2="24" style="fill:none; stroke:#949494;"/><line x1="17.5" y1="8" x2="17.5" y2="24" style="fill:none; stroke:#949494;"/><line x1="16.5" y1="8" x2="16.5" y2="24" style="fill:none; stroke:#949494;"/><line x1="8.5" y1="8" x2="8.5" y2="24" style="fill:none; stroke:#949494;"/><path d="M45.5,17V7.5c0-1.66-1.34-3-3-3H9.5c-1.66,0-3,1.34-3,3v9.5" style="fill:none; stroke:#949494;"/><path d="M43,17H5v11h42v-11h-4ZM11,20v-1c0-.55.45-1,1-1h1c.55,0,1,.45,1,1v1c0,.55-.45,1-1,1h-1c-.55,0-1-.45-1-1ZM20,20v-1c0-.55.45-1,1-1h1c.55,0,1,.45,1,1v1c0,.55-.45,1-1,1h-1c-.55,0-1-.45-1-1ZM29,20v-1c0-.55.45-1,1-1h1c.55,0,1,.45,1,1v1c0,.55-.45,1-1,1h-1c-.55,0-1-.45-1-1ZM38,20v-1c0-.55.45-1,1-1h1c.55,0,1,.45,1,1v1c0,.55-.45,1-1,1h-1c-.55,0-1-.45-1-1Z" style="fill:#949494; opacity:.7;"/></svg>