<svg width="35" height="36" viewBox="0 0 35 36" fill="none" xmlns="http://www.w3.org/2000/svg">
<path d="M4.52458 9.58637C0.307453 12.2711 7.28167 15.5558 12.1803 17.5783C14.8309 16.3003 13.1476 11.5558 12.1803 10.5685C10.2307 8.57854 9.79598 6.23048 4.52458 9.58637Z" fill="#262E30"/>
<path d="M25.1696 15.1938C24.5835 14.0214 22.1104 13.3011 21.1837 14.4904C20.257 15.6797 21.1837 19.0099 23.2939 19.0099C25.4041 19.0099 25.7558 16.3661 25.1696 15.1938Z" fill="#262E30"/>
<path d="M15.6738 24.4552C13.798 22.4857 9.10872 24.1035 6.99852 25.1586C6.99852 25.9011 7.25644 27.5736 8.28809 28.3239C9.57765 29.2617 13.9491 30.0824 15.6738 29.379C17.3985 28.6756 18.0184 26.9171 15.6738 24.4552Z" fill="#262E30"/>
<path d="M26.8109 23.7518C25.873 22.8139 23.9587 23.2376 23.2939 24.4552C22.6292 25.6728 22.8953 30.5513 25.5213 30.5513C28.8039 30.5513 27.9832 24.9241 26.8109 23.7518Z" fill="#262E30"/>
<path d="M20.4438 19.8966C20.4438 18.6796 18.8417 19.3895 18.0407 19.8966C17.1989 21.1791 17.2399 21.458 18.8824 21.458C20.5249 21.458 20.4438 21.4178 20.4438 19.8966Z" fill="#262E30"/>
<path d="M28.2473 8.52567C27.8808 6.80121 24.6528 6.68424 24.6528 6.68424C24.6528 6.68424 23.3897 6.62284 22.1571 7.60549C20.6163 8.83381 23.5145 10.2828 26.3801 11.4008C29.2456 12.5187 28.7054 10.6813 28.2473 8.52567Z" fill="#262E30"/>
<path d="M18.1166 11.3432C17.9348 10.4876 16.3332 10.4295 16.3332 10.4295C16.3332 10.4295 15.7066 10.3991 15.095 10.8866C14.3305 11.496 15.7685 12.215 17.1902 12.7696C18.6119 13.3243 18.3439 12.4126 18.1166 11.3432Z" fill="#262E30"/>
</svg>
