<svg width="35" height="35" viewBox="0 0 35 35" fill="none" xmlns="http://www.w3.org/2000/svg">
<path d="M3 6C3 4.89543 3.89543 4 5 4H30C31.1046 4 32 4.89543 32 6V7.46948C32 7.97329 31.8099 8.45853 31.4676 8.82822L21.3081 19.8015C21.137 19.9863 21.0419 20.229 21.0419 20.4809V33.08C21.0419 33.6323 20.5942 34.08 20.0419 34.08C19.4896 34.08 19.0419 33.6323 19.0419 33.08V20.4809C19.0419 19.7252 19.3271 18.9973 19.8405 18.4427L30 7.46948L30 6L5 6V7.31802L15.2426 18.379C15.7561 18.9336 16.0414 19.6615 16.0414 20.4173V31.0349C16.0414 31.5872 15.5937 32.0349 15.0414 32.0349C14.4891 32.0349 14.0414 31.5872 14.0414 31.0349V20.4173C14.0414 20.1654 13.9463 19.9228 13.7751 19.7379L3.53254 8.6769C3.19019 8.3072 3 7.82189 3 7.31802V6Z" fill="#262E30"/>
<path d="M24 23.0801C24 22.5278 24.4477 22.0801 25 22.0801H29C29.5523 22.0801 30 22.5278 30 23.0801C30 23.6324 29.5523 24.0801 29 24.0801H25C24.4477 24.0801 24 23.6324 24 23.0801Z" fill="#262E30"/>
<path d="M25 27.0801C24.4477 27.0801 24 27.5278 24 28.0801C24 28.6324 24.4477 29.0801 25 29.0801H29C29.5523 29.0801 30 28.6324 30 28.0801C30 27.5278 29.5523 27.0801 29 27.0801H25Z" fill="#262E30"/>
</svg>
