<?xml version="1.0" encoding="utf-8"?>
<svg version="1.0" id="Layer_1" xmlns="http://www.w3.org/2000/svg" xmlns:xlink="http://www.w3.org/1999/xlink" x="0px" y="0px"
	 width="128px" height="128px" viewBox="0 0 128 128" enable-background="new 0 0 128 128" xml:space="preserve">
<path fill="#ED6B21" d="m 88,38.93 c -0.83,0 -1.5,0.67 -1.5,1.5 V 70.5 h -5 V 45.14 c 0,-0.83 -0.67,-1.5 -1.5,-1.5 -0.83,0 -1.5,0.67 -1.5,1.5 V 70.5 h -5 V 49.8 c 0,-0.83 -0.67,-1.5 -1.5,-1.5 -0.83,0 -1.5,0.67 -1.5,1.5 v 20.7 h -5 V 53.84 c 0,-0.83 -0.67,-1.5 -1.5,-1.5 -0.83,0 -1.5,0.67 -1.5,1.5 V 70.5 h -5 V 49.8 c 0,-0.83 -0.67,-1.5 -1.5,-1.5 -0.83,0 -1.5,0.67 -1.5,1.5 v 20.7 h -5 V 45.14 c 0,-0.83 -0.67,-1.5 -1.5,-1.5 -0.83,0 -1.5,0.67 -1.5,1.5 V 70.5 h -5 V 40.43 c 0,-0.83 -0.67,-1.5 -1.5,-1.5 -0.83,0 -1.5,0.67 -1.5,1.5 V 72 82.99 c 0,3.59 2.92,6.51 6.51,6.51 h 2.98 c 0.67,0.01 6.51,0.24 6.51,6.5 v 16 c 0,3.29 1.99,9.5 9.5,9.5 7.51,0 9.5,-6.21 9.5,-9.5 V 96 c 0,-6.26 5.84,-6.49 6.5,-6.5 h 3 c 3.59,0 6.5,-2.92 6.5,-6.5 V 72 40.43 c 0,-0.83 -0.67,-1.5 -1.5,-1.5 z M 86.5,83 c 0,1.93 -1.57,3.5 -3.5,3.5 h -3 c -3.29,0 -9.5,1.99 -9.5,9.5 v 15.99 c -0.01,0.67 -0.24,6.51 -6.5,6.51 -6.26,0 -6.49,-5.84 -6.5,-6.5 V 96 c 0,-7.51 -6.21,-9.5 -9.5,-9.5 h -2.99 c -1.94,0 -3.51,-1.57 -3.51,-3.51 V 73.5 h 45 z"/>
<path fill="#808080" d="m 109.62313,6.5793356 c -4.05489,0 -7.35886,2.5891328 -7.50904,5.8406014 -9.836863,0.301062 -15.018101,6.442725 -15.018101,12.223115 l -7.509041,0.06022 c -9.461393,0 -14.64263,5.840601 -15.018083,11.500567 -0.07509,0 -0.07509,0 -0.15018,0 h -0.675814 c 0,0 -0.07509,0 -0.150181,0 C 63.217238,30.423447 57.960909,24.70327 48.574608,24.70327 h -7.509042 c 0.225272,0 -0.150181,-0.120425 -0.300361,-0.180637 0.375451,-5.720177 -4.805787,-11.922053 -14.56754,-12.10269 -0.375453,-3.0708319 -3.604341,-5.6599647 -7.509042,-5.6599647 -4.129973,0 -7.509041,2.5289204 -7.509041,5.8406017 0,4.455716 2.327803,7.165274 4.280154,8.670584 4.280153,3.251469 9.686663,3.251469 10.737929,3.191257 0,8.670583 8.785578,12.042478 14.64263,12.283327 h 7.809403 c 0,4.154655 2.252712,6.743788 4.129972,8.188885 4.355245,3.371894 10.137207,3.371894 11.263562,3.311682 h 0.525633 c 0.825994,0 6.607956,0.06022 10.963201,-3.311682 1.87726,-1.445097 4.129972,-4.094442 4.129972,-8.249098 h 7.509041 c 6.232505,-0.180636 15.018101,-3.612743 15.018101,-12.10269 0.97617,-0.120424 6.45777,-0.120424 10.66284,-3.371892 1.95235,-1.505311 4.28015,-4.214868 4.28015,-8.670585 0,-3.2514693 -3.37907,-5.9610268 -7.50904,-5.9610268 z"/>
</svg>
