<svg xmlns="http://www.w3.org/2000/svg" viewBox="0 0 16 16"><path d="M15.5,10H15V6h.5a.5.5,0,0,0,0-1H15V2.5A1.5,1.5,0,0,0,13.5,1H11V.5a.5.5,0,0,0-1,0V1H6V.5a.5.5,0,0,0-1,0V1H2.5A1.5,1.5,0,0,0,1,2.5V5H.5a.5.5,0,0,0,0,1H1v4H.5a.5.5,0,0,0,0,1H1v2.5A1.5,1.5,0,0,0,2.5,15H5v.5a.5.5,0,0,0,1,0V15h4v.5a.5.5,0,0,0,1,0V15h2.5A1.5,1.5,0,0,0,15,13.5V11h.5a.5.5,0,0,0,0-1ZM14,13.5a.5.5,0,0,1-.5.5H11V12.5a.5.5,0,0,0-1,0V14H6V12.5a.5.5,0,0,0-1,0V14H2.5a.5.5,0,0,1-.5-.5V11H3.5a.5.5,0,0,0,0-1H2V6H3.5a.5.5,0,0,0,0-1H2V2.5A.5.5,0,0,1,2.5,2H5V3.5a.5.5,0,0,0,1,0V2h4V3.5a.5.5,0,0,0,1,0V2h2.5a.5.5,0,0,1,.5.5V5H12.5a.5.5,0,0,0,0,1H14v4H12.5a.5.5,0,0,0,0,1H14Z"/></svg>