<?xml version="1.0" encoding="UTF-8" standalone="no"?>
<svg
   id="a"
   width="560"
   height="125"
   viewBox="0 0 560 125"
   version="1.1"
   sodipodi:docname="GingerSlicer_about_dark.svg"
   inkscape:version="1.4 (86a8ad7, 2024-10-11)"
   xmlns:inkscape="http://www.inkscape.org/namespaces/inkscape"
   xmlns:sodipodi="http://sodipodi.sourceforge.net/DTD/sodipodi-0.dtd"
   xmlns="http://www.w3.org/2000/svg"
   xmlns:svg="http://www.w3.org/2000/svg">
  <defs
     id="defs11">
    <rect
       x="105.75537"
       y="22.046722"
       width="182.22993"
       height="93.009607"
       id="rect1" />
  </defs>
  <sodipodi:namedview
     id="namedview11"
     pagecolor="#ffffff"
     bordercolor="#000000"
     borderopacity="0.25"
     inkscape:showpageshadow="2"
     inkscape:pageopacity="0.0"
     inkscape:pagecheckerboard="0"
     inkscape:deskcolor="#d1d1d1"
     inkscape:zoom="1.451463"
     inkscape:cx="217.3669"
     inkscape:cy="78.885926"
     inkscape:window-width="1920"
     inkscape:window-height="1111"
     inkscape:window-x="-9"
     inkscape:window-y="-9"
     inkscape:window-maximized="1"
     inkscape:current-layer="a" />
  <rect
     id="b"
     x="20"
     y="123"
     width="520"
     height="2"
     style="fill:#d72828;fill-opacity:1" />
  <g
     id="g2"
     transform="matrix(2.2991855,0,0,2.2991855,19.562079,21.695291)">
    <path
       d="M 22.0854,21.2199 C 19.1306,24.2184 15.6151,25.4353 11.5866,25.1768 8.26205,24.9641 5.49818,23.5483 3.22544,21.1126 -1.1192,16.4518 -1.00785,8.89387 3.15585,4.41203 5.69503,1.67997 8.77903,0.117095 12.5431,0.00574523 16.3111,-0.105605 19.3951,1.40558 22.0893,4.19529 c 0,-1.05583 0.0279,-1.94266 -0.0099,-2.82551 -0.0239,-0.566688 0.1631,-0.7874 0.7417,-0.761551 0.853,0.035791 1.708,0.019884 2.563,0.005965 0.4335,-0.007953 0.5926,0.171002 0.5926,0.606456 -0.014,6.89974 0.0139,13.79945 -0.0418,20.69725 -0.0159,1.9645 -0.2565,3.935 -1.0558,5.7723 -1.376,3.1635 -3.7959,5.1638 -7.0767,6.0725 C 13.6784,34.9041 9.61615,34.737 5.75071,32.7626 3.16182,31.4403 1.47367,29.269 0.346249,26.6264 0.191154,26.2645 0.27069,26.1134 0.674334,26.1154 c 1.053846,0.0079 2.105706,0.0099 3.159556,0 0.32014,-0.004 0.51301,0.1392 0.67407,0.3957 1.83728,2.9448 4.5753,4.2034 7.96354,4.2989 2.0619,0.0576 4.0265,-0.2486 5.8777,-1.211 2.0262,-1.0538 3.1675,-2.7141 3.4956,-4.9511 0.159,-1.0936 0.2167,-2.1952 0.2465,-3.426 z M 3.89752,12.6937 c -0.0517,3.0939 1.18906,5.3707 3.46577,7.0886 2.07589,1.5669 4.47391,1.9606 6.99911,1.6723 3.2869,-0.3758 5.8141,-1.9646 7.1066,-5.0525 1.2725,-3.0403 1.0856,-6.1044 -0.8411,-8.85238 C 18.5938,4.64666 15.6947,3.51526 12.1871,3.84733 7.51839,4.28875 3.89752,8.22378 3.89752,12.6957 Z"
       fill="#d72828"
       id="path1-0" />
    <path
       d="m 31.558,19.311 c 1.9566,0 3.4419,1.4635 3.4419,3.3962 0,1.9128 -1.5271,3.4618 -3.42,3.4698 -1.887,0.0079 -3.438,-1.545 -3.442,-3.4479 C 28.134,20.7904 29.6133,19.311 31.56,19.311 Z"
       fill="#d72828"
       id="path2-9" />
  </g>
  <path
     d="m 121.47318,56.733004 q -3.06133,0 -5.63733,-0.970666 -2.53866,-1.007999 -4.44266,-2.799998 -1.904,-1.829332 -2.94933,-4.29333 -1.04534,-2.463998 -1.04534,-5.375995 0,-2.911998 1.04534,-5.375995 1.04533,-2.463998 2.94933,-4.255997 1.94133,-1.829332 4.51733,-2.799997 2.576,-1.008 5.63733,-1.008 3.32266,0 5.97332,1.082666 2.688,1.082666 4.51733,3.173331 l -3.06133,2.986664 q -1.53066,-1.530665 -3.32266,-2.239998 -1.75467,-0.746666 -3.88266,-0.746666 -2.05334,0 -3.808,0.671999 -1.75467,0.672 -3.024,1.903999 -1.26933,1.231999 -1.97866,2.911997 -0.672,1.679999 -0.672,3.695997 0,1.978665 0.672,3.658664 0.70933,1.679998 1.97866,2.94933 1.26933,1.231999 2.98667,1.903999 1.71733,0.671999 3.80799,0.671999 1.94133,0 3.73333,-0.597333 1.82933,-0.634666 3.472,-2.090665 l 2.76266,3.621331 q -2.05333,1.642665 -4.77866,2.501331 -2.688,0.821333 -5.45066,0.821333 z m 10.22932,-3.322664 -4.59199,-0.634666 v -9.781325 h 4.59199 z m 5.93598,2.949331 V 36.423687 h 4.66666 v 19.935984 z m 2.35199,-23.221314 q -1.30666,0 -2.16533,-0.821333 -0.82133,-0.821332 -0.82133,-1.978665 0,-1.194665 0.82133,-1.978665 0.85867,-0.821332 2.16533,-0.821332 1.30667,0 2.128,0.783999 0.85867,0.746666 0.85867,1.903998 0,1.231999 -0.82134,2.090665 -0.82133,0.821333 -2.16533,0.821333 z m 8.43731,23.221314 V 36.423687 h 4.44266 v 5.375996 l -0.78399,-1.642665 q 1.04533,-1.903999 3.02399,-2.911998 2.016,-1.045332 4.62933,-1.045332 2.38933,0 4.256,0.933332 1.904,0.933333 2.98666,2.874664 1.08267,1.903999 1.08267,4.927996 v 11.423991 h -4.66666 V 45.533013 q 0,-2.650664 -1.26934,-3.95733 -1.232,-1.306665 -3.47199,-1.306665 -1.64267,0 -2.912,0.671999 -1.26933,0.671999 -1.97867,2.015998 -0.672,1.306666 -0.672,3.322664 v 10.079992 z m 34.64527,7.503993 q -2.76267,0 -5.41333,-0.746666 -2.61333,-0.709333 -4.29333,-2.090665 l 2.09066,-3.50933 q 1.30667,1.082666 3.28534,1.717332 2.01599,0.671999 4.06933,0.671999 3.28533,0 4.81599,-1.530665 1.53067,-1.493332 1.53067,-4.51733 v -3.546663 l 0.37333,-4.51733 -0.14933,-4.517329 v -4.85333 h 4.44266 v 16.911986 q 0,5.413329 -2.76267,7.951993 -2.76266,2.575998 -7.98932,2.575998 z m -0.59733,-8.399993 q -2.83734,0 -5.152,-1.194665 -2.27733,-1.231999 -3.62133,-3.397331 -1.30667,-2.165331 -1.30667,-5.077329 0,-2.874664 1.30667,-5.039996 1.344,-2.165331 3.62133,-3.359997 2.31466,-1.194665 5.152,-1.194665 2.53866,0 4.55466,1.007999 2.016,1.007999 3.21066,3.135997 1.232,2.127998 1.232,5.450662 0,3.322664 -1.232,5.487995 -1.19466,2.127999 -3.21066,3.173331 -2.016,1.007999 -4.55466,1.007999 z m 0.70933,-3.95733 q 1.75466,0 3.136,-0.709332 1.38133,-0.746666 2.12799,-2.015999 0.784,-1.306665 0.784,-2.986664 0,-1.679998 -0.784,-2.949331 -0.74666,-1.306665 -2.12799,-1.978665 -1.38134,-0.709332 -3.136,-0.709332 -1.75467,0 -3.17333,0.709332 -1.38133,0.672 -2.16533,1.978665 -0.74667,1.269333 -0.74667,2.949331 0,1.679999 0.74667,2.986664 0.784,1.269333 2.16533,2.015999 1.41866,0.709332 3.17333,0.709332 z m 26.13331,5.114663 q -3.32266,0 -5.82399,-1.306666 -2.464,-1.343999 -3.84533,-3.658663 -1.344,-2.314665 -1.344,-5.263996 0,-2.986664 1.30667,-5.263996 1.344,-2.314664 3.65866,-3.62133 2.352,-1.306665 5.33866,-1.306665 2.912,0 5.18933,1.269332 2.27733,1.269332 3.584,3.583997 1.30666,2.314665 1.30666,5.450662 0,0.298666 -0.0373,0.671999 0,0.373333 -0.0373,0.709333 h -16.61332 v -3.098664 h 14.14932 l -1.82933,0.970666 q 0.0373,-1.717332 -0.70934,-3.023998 -0.74666,-1.306665 -2.05333,-2.053331 -1.26933,-0.746666 -2.94933,-0.746666 -1.71733,0 -3.024,0.746666 -1.26933,0.746666 -2.01599,2.090665 -0.70934,1.306665 -0.70934,3.098664 v 0.746666 q 0,1.791998 0.82134,3.17333 0.82133,1.381333 2.31466,2.127999 1.49333,0.746666 3.43466,0.746666 1.68,0 3.024,-0.522667 1.344,-0.522666 2.38933,-1.642665 l 2.50133,2.874664 q -1.34399,1.567999 -3.39733,2.426665 -2.01599,0.821333 -4.62933,0.821333 z m 13.85065,-0.261333 V 36.423687 h 4.44266 v 5.487996 l -0.52266,-1.605332 q 0.896,-2.015998 2.8,-3.061331 1.94133,-1.045332 4.81599,-1.045332 v 4.442663 q -0.29866,-0.07467 -0.56,-0.07467 -0.26133,-0.03733 -0.52266,-0.03733 -2.65067,0 -4.21867,1.567998 -1.568,1.530666 -1.568,4.591996 v 9.669326 z M 117.36652,103.39963 q -3.06133,0 -5.86133,-0.85867 -2.8,-0.896 -4.44267,-2.27733 l 1.68,-3.770661 q 1.568,1.231999 3.88267,2.053331 2.31466,0.821333 4.74133,0.821333 2.05333,0 3.32266,-0.448 1.26933,-0.447999 1.86667,-1.194665 0.59733,-0.784 0.59733,-1.754666 0,-1.194665 -0.85867,-1.903998 -0.85866,-0.746666 -2.24,-1.157332 -1.34399,-0.448 -3.02399,-0.821333 -1.64267,-0.373333 -3.32267,-0.858666 -1.64266,-0.522666 -3.02399,-1.306665 -1.344,-0.821333 -2.20267,-2.165332 -0.85867,-1.343999 -0.85867,-3.434664 0,-2.127998 1.12,-3.882663 1.15734,-1.791998 3.472,-2.837331 2.352,-1.082666 5.936,-1.082666 2.35199,0 4.66666,0.597333 2.31466,0.597333 4.03199,1.717332 l -1.53066,3.770664 q -1.75467,-1.045333 -3.62133,-1.530666 -1.86667,-0.522666 -3.584,-0.522666 -2.016,0 -3.28533,0.485333 -1.232,0.485333 -1.82933,1.269332 -0.56,0.783999 -0.56,1.791999 0,1.194665 0.82133,1.941331 0.85867,0.709333 2.20267,1.119999 1.38133,0.410667 3.06133,0.821333 1.68,0.373333 3.32266,0.858666 1.68,0.485333 3.024,1.269332 1.38133,0.783999 2.20266,2.127998 0.85867,1.343999 0.85867,3.397331 0,2.090665 -1.15733,3.882663 -1.12,1.754664 -3.472,2.837334 -2.352,1.04533 -5.93599,1.04533 z m 14.93331,-0.37333 V 75.324987 h 4.66666 V 103.0263 Z m 10.7893,0 V 83.090313 h 4.66666 V 103.0263 Z m 2.352,-23.221317 q -1.30667,0 -2.16533,-0.821333 -0.82133,-0.821332 -0.82133,-1.978665 0,-1.194665 0.82133,-1.978665 0.85866,-0.821332 2.16533,-0.821332 1.30667,0 2.128,0.783999 0.85866,0.746666 0.85866,1.903998 0,1.231999 -0.82133,2.090665 -0.82133,0.821333 -2.16533,0.821333 z m 17.58397,23.482647 q -3.136,0 -5.6,-1.30667 -2.42666,-1.34399 -3.80799,-3.65866 -1.38134,-2.314664 -1.38134,-5.263995 0,-2.986664 1.38134,-5.263996 1.38133,-2.314664 3.80799,-3.62133 2.464,-1.306665 5.6,-1.306665 2.912,0 5.11466,1.194665 2.24,1.157333 3.39733,3.434664 l -3.584,2.090665 q -0.896,-1.418666 -2.20266,-2.090665 -1.26933,-0.671999 -2.76267,-0.671999 -1.71733,0 -3.09866,0.746666 -1.38133,0.746666 -2.16533,2.165331 -0.784,1.381332 -0.784,3.322664 0,1.941332 0.784,3.359997 0.784,1.381332 2.16533,2.127998 1.38133,0.746666 3.09866,0.746666 1.49334,0 2.76267,-0.671999 1.30666,-0.672 2.20266,-2.090665 l 3.584,2.090665 q -1.15733,2.239993 -3.39733,3.471993 -2.20266,1.19467 -5.11466,1.19467 z m 21.61598,0 q -3.32266,0 -5.82399,-1.30667 -2.464,-1.34399 -3.84533,-3.65866 -1.344,-2.314664 -1.344,-5.263995 0,-2.986664 1.30666,-5.263996 1.344,-2.314664 3.65867,-3.62133 2.35199,-1.306665 5.33866,-1.306665 2.912,0 5.18933,1.269332 2.27733,1.269332 3.58399,3.583997 1.30667,2.314665 1.30667,5.450662 0,0.298666 -0.0373,0.671999 0,0.373333 -0.0373,0.709333 h -16.61332 v -3.098664 h 14.14932 l -1.82933,0.970666 q 0.0373,-1.717332 -0.70933,-3.023998 -0.74667,-1.306665 -2.05333,-2.053331 -1.26933,-0.746666 -2.94933,-0.746666 -1.71733,0 -3.024,0.746666 -1.26933,0.746666 -2.016,2.090665 -0.70933,1.306665 -0.70933,3.098664 v 0.746666 q 0,1.791998 0.82133,3.17333 0.82133,1.381333 2.31467,2.127999 1.49333,0.746666 3.43466,0.746666 1.68,0 3.024,-0.522667 1.344,-0.522666 2.38933,-1.642665 l 2.50133,2.874662 q -1.344,1.568 -3.39733,2.42667 -2.016,0.82133 -4.62933,0.82133 z m 13.85064,-0.26133 V 83.090313 h 4.44266 v 5.487996 l -0.52266,-1.605332 q 0.896,-2.015998 2.79999,-3.061331 1.94134,-1.045332 4.816,-1.045332 v 4.442663 q -0.29867,-0.07467 -0.56,-0.07467 -0.26133,-0.03733 -0.52267,-0.03733 -2.65066,0 -4.21866,1.567998 -1.568,1.530666 -1.568,4.591996 v 9.669329 z"
     id="text1"
     style="font-weight:600;font-size:37.3333px;font-family:Montserrat;-inkscape-font-specification:'Montserrat Semi-Bold';white-space:pre;stroke-width:5;paint-order:stroke markers fill"
     transform="translate(8,-4)"
     aria-label="Ginger&#10;Slicer" />
</svg>
