<?xml version="1.0" encoding="UTF-8" standalone="no"?>
<!-- Created with Inkscape (http://www.inkscape.org/) -->

<svg
   version="1.1"
   id="svg2"
   width="1024"
   height="1024"
   viewBox="0 0 1280 1280"
   sodipodi:docname="GingerSlicer_gradient_circle.svg"
   inkscape:version="1.4 (86a8ad7, 2024-10-11)"
   inkscape:export-filename="GingerSlicer_gradient1024.png"
   inkscape:export-xdpi="96.000008"
   inkscape:export-ydpi="96.000008"
   xmlns:inkscape="http://www.inkscape.org/namespaces/inkscape"
   xmlns:sodipodi="http://sodipodi.sourceforge.net/DTD/sodipodi-0.dtd"
   xmlns="http://www.w3.org/2000/svg"
   xmlns:svg="http://www.w3.org/2000/svg">
  <defs
     id="defs6">
    <linearGradient
       id="linearGradient3247"
       inkscape:swatch="solid">
      <stop
         style="stop-color:#9c1a1a;stop-opacity:1;"
         offset="0"
         id="stop3245" />
    </linearGradient>
    <linearGradient
       id="linearGradient3241"
       inkscape:swatch="solid">
      <stop
         style="stop-color:#f9f9f9;stop-opacity:0.69999999;"
         offset="0"
         id="stop3239" />
    </linearGradient>
    <clipPath
       clipPathUnits="userSpaceOnUse"
       id="clipPath16">
      <path
         d="M 0,792 H 612 V 0 H 0 Z"
         id="path14" />
    </clipPath>
    <filter
       style="color-interpolation-filters:sRGB;"
       inkscape:label="Drop Shadow"
       id="filter5943"
       x="-0.24125646"
       y="-0.1967501"
       width="1.4825129"
       height="1.3935002">
      <feFlood
         flood-opacity="0.498039"
         flood-color="rgb(0,0,0)"
         result="flood"
         id="feFlood5933" />
      <feComposite
         in="flood"
         in2="SourceGraphic"
         operator="in"
         result="composite1"
         id="feComposite5935" />
      <feGaussianBlur
         in="composite1"
         stdDeviation="30.5296"
         result="blur"
         id="feGaussianBlur5937" />
      <feOffset
         dx="0"
         dy="0"
         result="offset"
         id="feOffset5939" />
      <feComposite
         in="SourceGraphic"
         in2="offset"
         operator="over"
         result="fbSourceGraphic"
         id="feComposite5941" />
      <feColorMatrix
         result="fbSourceGraphicAlpha"
         in="fbSourceGraphic"
         values="0 0 0 -1 0 0 0 0 -1 0 0 0 0 -1 0 0 0 0 1 0"
         id="feColorMatrix5945" />
      <feFlood
         id="feFlood5947"
         flood-opacity="0.498039"
         flood-color="rgb(0,0,0)"
         result="flood"
         in="fbSourceGraphic" />
      <feComposite
         in2="fbSourceGraphic"
         id="feComposite5949"
         in="flood"
         operator="in"
         result="composite1" />
      <feGaussianBlur
         id="feGaussianBlur5951"
         in="composite1"
         stdDeviation="30.5296"
         result="blur" />
      <feOffset
         id="feOffset5953"
         dx="0"
         dy="0"
         result="offset" />
      <feComposite
         in2="offset"
         id="feComposite5955"
         in="fbSourceGraphic"
         operator="over"
         result="composite2" />
    </filter>
  </defs>
  <sodipodi:namedview
     id="namedview4"
     pagecolor="#ffffff"
     bordercolor="#000000"
     borderopacity="0.25"
     inkscape:showpageshadow="2"
     inkscape:pageopacity="0.0"
     inkscape:pagecheckerboard="0"
     inkscape:deskcolor="#d1d1d1"
     showgrid="false"
     inkscape:zoom="0.5"
     inkscape:cx="340"
     inkscape:cy="463"
     inkscape:window-width="1920"
     inkscape:window-height="1111"
     inkscape:window-x="-9"
     inkscape:window-y="-9"
     inkscape:window-maximized="1"
     inkscape:current-layer="svg2" />
  <g
     inkscape:groupmode="layer"
     id="layer1"
     inkscape:label="background"
     transform="matrix(0.99895749,0,0,0.99799215,-0.93372196,0.06231743)"
     style="display:inline;fill:none">
    <ellipse
       style="fill:#fafafa;fill-opacity:1;fill-rule:evenodd;stroke:#d7d4c3;stroke-width:1.65725;stroke-opacity:0.717514"
       id="path713"
       cx="641.53418"
       cy="646.4707"
       rx="624.27289"
       ry="624.87671" />
  </g>
  <g
     id="g2"
     transform="matrix(26.062923,0,0,26.850127,183.90017,177.20469)">
    <path
       d="M 22.0854,21.2199 C 19.1306,24.2184 15.6151,25.4353 11.5866,25.1768 8.26205,24.9641 5.49818,23.5483 3.22544,21.1126 -1.1192,16.4518 -1.00785,8.89387 3.15585,4.41203 5.69503,1.67997 8.77903,0.117095 12.5431,0.00574523 16.3111,-0.105605 19.3951,1.40558 22.0893,4.19529 c 0,-1.05583 0.0279,-1.94266 -0.0099,-2.82551 -0.0239,-0.566688 0.1631,-0.7874 0.7417,-0.761551 0.853,0.035791 1.708,0.019884 2.563,0.005965 0.4335,-0.007953 0.5926,0.171002 0.5926,0.606456 -0.014,6.89974 0.0139,13.79945 -0.0418,20.69725 -0.0159,1.9645 -0.2565,3.935 -1.0558,5.7723 -1.376,3.1635 -3.7959,5.1638 -7.0767,6.0725 C 13.6784,34.9041 9.61615,34.737 5.75071,32.7626 3.16182,31.4403 1.47367,29.269 0.346249,26.6264 0.191154,26.2645 0.27069,26.1134 0.674334,26.1154 c 1.053846,0.0079 2.105706,0.0099 3.159556,0 0.32014,-0.004 0.51301,0.1392 0.67407,0.3957 1.83728,2.9448 4.5753,4.2034 7.96354,4.2989 2.0619,0.0576 4.0265,-0.2486 5.8777,-1.211 2.0262,-1.0538 3.1675,-2.7141 3.4956,-4.9511 0.159,-1.0936 0.2167,-2.1952 0.2465,-3.426 z M 3.89752,12.6937 c -0.0517,3.0939 1.18906,5.3707 3.46577,7.0886 2.07589,1.5669 4.47391,1.9606 6.99911,1.6723 3.2869,-0.3758 5.8141,-1.9646 7.1066,-5.0525 1.2725,-3.0403 1.0856,-6.1044 -0.8411,-8.85238 C 18.5938,4.64666 15.6947,3.51526 12.1871,3.84733 7.51839,4.28875 3.89752,8.22378 3.89752,12.6957 Z"
       fill="#d72828"
       id="path1" />
    <path
       d="m 31.558,19.311 c 1.9566,0 3.4419,1.4635 3.4419,3.3962 0,1.9128 -1.5271,3.4618 -3.42,3.4698 -1.887,0.0079 -3.438,-1.545 -3.442,-3.4479 C 28.134,20.7904 29.6133,19.311 31.56,19.311 Z"
       fill="#d72828"
       id="path2" />
  </g>
</svg>
