<?xml version="1.0" encoding="UTF-8" standalone="no"?>
<svg
   width="64"
   height="64"
   viewBox="0 0 64 64"
   version="1.1"
   id="svg5"
   sodipodi:docname="GingerSlicer.svg"
   inkscape:version="1.4 (86a8ad7, 2024-10-11)"
   xmlns:inkscape="http://www.inkscape.org/namespaces/inkscape"
   xmlns:sodipodi="http://sodipodi.sourceforge.net/DTD/sodipodi-0.dtd"
   xmlns="http://www.w3.org/2000/svg"
   xmlns:svg="http://www.w3.org/2000/svg">
  <defs
     id="defs5" />
  <sodipodi:namedview
     id="namedview5"
     pagecolor="#ffffff"
     bordercolor="#000000"
     borderopacity="0.25"
     inkscape:showpageshadow="2"
     inkscape:pageopacity="0.0"
     inkscape:pagecheckerboard="0"
     inkscape:deskcolor="#d1d1d1"
     inkscape:zoom="5.529796"
     inkscape:cx="9.4940211"
     inkscape:cy="31.013802"
     inkscape:window-width="1920"
     inkscape:window-height="1111"
     inkscape:window-x="-9"
     inkscape:window-y="-9"
     inkscape:window-maximized="1"
     inkscape:current-layer="svg5" />
  <rect
     width="64"
     height="64"
     rx="14"
     style="fill:#e9e9e9"
     id="rect1" />
  <g
     id="g2"
     transform="matrix(1.5718008,0,0,1.5718008,4.4935659,4.9080598)">
    <path
       d="M 22.0854,21.2199 C 19.1306,24.2184 15.6151,25.4353 11.5866,25.1768 8.26205,24.9641 5.49818,23.5483 3.22544,21.1126 -1.1192,16.4518 -1.00785,8.89387 3.15585,4.41203 5.69503,1.67997 8.77903,0.117095 12.5431,0.00574523 16.3111,-0.105605 19.3951,1.40558 22.0893,4.19529 c 0,-1.05583 0.0279,-1.94266 -0.0099,-2.82551 -0.0239,-0.566688 0.1631,-0.7874 0.7417,-0.761551 0.853,0.035791 1.708,0.019884 2.563,0.005965 0.4335,-0.007953 0.5926,0.171002 0.5926,0.606456 -0.014,6.89974 0.0139,13.79945 -0.0418,20.69725 -0.0159,1.9645 -0.2565,3.935 -1.0558,5.7723 -1.376,3.1635 -3.7959,5.1638 -7.0767,6.0725 C 13.6784,34.9041 9.61615,34.737 5.75071,32.7626 3.16182,31.4403 1.47367,29.269 0.346249,26.6264 0.191154,26.2645 0.27069,26.1134 0.674334,26.1154 c 1.053846,0.0079 2.105706,0.0099 3.159556,0 0.32014,-0.004 0.51301,0.1392 0.67407,0.3957 1.83728,2.9448 4.5753,4.2034 7.96354,4.2989 2.0619,0.0576 4.0265,-0.2486 5.8777,-1.211 2.0262,-1.0538 3.1675,-2.7141 3.4956,-4.9511 0.159,-1.0936 0.2167,-2.1952 0.2465,-3.426 z M 3.89752,12.6937 c -0.0517,3.0939 1.18906,5.3707 3.46577,7.0886 2.07589,1.5669 4.47391,1.9606 6.99911,1.6723 3.2869,-0.3758 5.8141,-1.9646 7.1066,-5.0525 1.2725,-3.0403 1.0856,-6.1044 -0.8411,-8.85238 C 18.5938,4.64666 15.6947,3.51526 12.1871,3.84733 7.51839,4.28875 3.89752,8.22378 3.89752,12.6957 Z"
       fill="#d72828"
       id="path1" />
    <path
       d="m 31.558,19.311 c 1.9566,0 3.4419,1.4635 3.4419,3.3962 0,1.9128 -1.5271,3.4618 -3.42,3.4698 -1.887,0.0079 -3.438,-1.545 -3.442,-3.4479 C 28.134,20.7904 29.6133,19.311 31.56,19.311 Z"
       fill="#d72828"
       id="path2" />
  </g>
</svg>
