<svg width="16" height="16" viewBox="0 0 16 16" fill="none" xmlns="http://www.w3.org/2000/svg">
<path d="M1.80954 5.50422L7.72079 8.46156C7.80268 8.50279 7.89272 8.52526 7.98438 8.52734C8.08282 8.52734 8.1486 8.49453 8.24704 8.46156L14.1575 5.50422C14.3545 5.40625 14.4531 5.20844 14.4531 5.01125C14.4531 4.81406 14.3217 4.61703 14.1575 4.51844L8.24626 1.56094C8.16823 1.52845 8.08454 1.51172 8.00001 1.51172C7.91548 1.51172 7.83179 1.52845 7.75376 1.56094L1.84251 4.51844C1.64548 4.61703 1.54688 4.81422 1.54688 5.01125C1.54688 5.20828 1.64548 5.40625 1.80954 5.50422ZM7.98438 2.67828L12.6469 5.01125L7.98438 7.34375L3.32032 5.01125L7.98438 2.67828ZM13.6127 10.4516L7.97001 13.2741L2.3272 10.4516C2.0647 10.3203 1.73673 10.4188 1.57266 10.7141C1.44141 10.9767 1.53985 11.3048 1.83516 11.4689L7.74032 14.422C7.8219 14.463 7.91155 14.4854 8.00282 14.4877C8.10126 14.4877 8.16688 14.4548 8.26516 14.422L14.1705 11.4688C14.433 11.3375 14.5641 11.0094 14.433 10.7139C14.2361 10.4188 13.908 10.3203 13.6127 10.4516Z" fill="#6B6B6B"/>
<path d="M1.83516 8.49998L7.74032 11.4531C7.8219 11.4941 7.91155 11.5165 8.00282 11.5187C8.10126 11.5187 8.16688 11.4859 8.26516 11.4531L14.1705 8.49998C14.433 8.36873 14.5641 8.04061 14.433 7.74514C14.2361 7.44983 13.908 7.35139 13.6127 7.48264L7.97001 10.3053L2.3272 7.48279C2.0647 7.35154 1.73673 7.44998 1.57266 7.74529C1.44141 8.00795 1.53985 8.33608 1.83516 8.49998Z" fill="#6B6B6B"/>
</svg>
