<svg width="20" height="20" viewBox="0 0 20 20" fill="none" xmlns="http://www.w3.org/2000/svg">
<path fill-rule="evenodd" clip-rule="evenodd" d="M5.92009 10.2489C6.0542 10.4903 5.96725 10.7947 5.72586 10.9289L2.12609 12.929C2.05004 12.9747 2.01444 13.0139 2.00025 13.0342C2.01465 13.0548 2.05111 13.0949 2.1295 13.1415L9.34396 17.3224C9.50336 17.4167 9.74663 17.479 10.0183 17.479C10.29 17.479 10.5333 17.4167 10.6927 17.3224L10.6975 17.3195L17.8712 13.1843C17.9492 13.1378 17.9856 13.0979 18 13.0773C17.9857 13.0569 17.9498 13.0174 17.8729 12.9713L14.2896 10.9488C14.0492 10.813 13.9642 10.508 14.1 10.2676C14.2357 10.0271 14.5407 9.94217 14.7812 10.0779L18.3782 12.1082C18.7214 12.3112 19.0061 12.6432 19.0061 13.0773C19.0061 13.5114 18.7213 13.8433 18.3781 14.0463L18.3733 14.0492L11.1992 18.1847C10.849 18.3909 10.4195 18.479 10.0183 18.479C9.6169 18.479 9.18718 18.3908 8.83698 18.1844L1.62208 14.0032C1.27887 13.8002 0.994141 13.4683 0.994141 13.0342C0.994141 12.6001 1.27888 12.2682 1.62209 12.0652L1.63371 12.0583L5.24018 10.0547C5.48156 9.92061 5.78597 10.0076 5.92009 10.2489Z" fill="#B6B6B6"/>
<path fill-rule="evenodd" clip-rule="evenodd" d="M9.98189 2.521C9.7102 2.521 9.46692 2.58331 9.30752 2.67759L9.2988 2.68274L2.12736 6.73048C2.05044 6.77656 2.01452 6.81608 2.00025 6.8365C2.01465 6.8571 2.0511 6.89716 2.12947 6.94378L9.34396 11.1247C9.50336 11.219 9.74663 11.2813 10.0183 11.2813C10.29 11.2813 10.5333 11.219 10.6927 11.1247L10.6946 11.1236L17.8326 6.94479C17.8329 6.94462 17.8323 6.94495 17.8326 6.94479C17.9116 6.89794 17.9491 6.85718 17.9635 6.8365C17.9493 6.81608 17.9133 6.77656 17.8364 6.73047L10.6562 2.67768C10.4968 2.58339 10.2536 2.521 9.98189 2.521ZM11.1606 1.81407C10.8109 1.60871 10.3823 1.521 9.98189 1.521C9.58147 1.521 9.15289 1.60872 8.80316 1.81409L1.63086 5.86243L1.62209 5.86749C1.27888 6.07049 0.994141 6.40241 0.994141 6.8365C0.994141 7.27058 1.27888 7.60251 1.62209 7.8055L8.83693 11.9866C9.18715 12.1931 9.61688 12.2813 10.0183 12.2813C10.4202 12.2813 10.8504 12.1929 11.2008 11.986C11.2011 11.9858 11.2014 11.9856 11.2018 11.9854L18.3398 7.80664L18.3417 7.8055C18.6849 7.60251 18.9696 7.27058 18.9696 6.8365C18.9696 6.40241 18.6849 6.07049 18.3417 5.86749L11.1606 1.81407Z" fill="#B6B6B6"/>
</svg>
