<svg xmlns="http://www.w3.org/2000/svg" width="16" height="16" viewBox="0 0 16 16"><polyline points="2.5 5.5 3.5 4.5 2.5 3.5" style="fill:none;stroke:#009688;stroke-linecap:round;stroke-linejoin:round"/><polyline points="2.5 11.5 3.5 10.5 2.5 9.5" style="fill:none;stroke:#009688;stroke-linecap:round;stroke-linejoin:round"/><polyline points="3.5 4.5 0.5 4.5 0.5 10.5 3.5 10.5" style="fill:none;stroke:#009688;stroke-linecap:round;stroke-linejoin:round"/><line x1="0.5" y1="0.5" x2="0.5" y2="2.5" style="fill:none;stroke:#949494;stroke-linecap:square;stroke-linejoin:round"/><line x1="0.5" y1="12.5" x2="0.5" y2="14.5" style="fill:none;stroke:#949494;stroke-linecap:square;stroke-linejoin:round"/><line x1="5.5" y1="0.5" x2="14.5" y2="0.5" style="fill:none;stroke:#949494;stroke-linecap:square;stroke-linejoin:round"/><line x1="5.5" y1="2.5" x2="14.5" y2="2.5" style="fill:none;stroke:#949494;stroke-linecap:square;stroke-linejoin:round"/><line x1="5.5" y1="4.5" x2="14.5" y2="4.5" style="fill:none;stroke:#009688;stroke-linecap:square;stroke-linejoin:round"/><line x1="5.5" y1="6.5" x2="14.5" y2="6.5" style="fill:none;stroke:#009688;stroke-linecap:square;stroke-linejoin:round"/><line x1="5.5" y1="8.5" x2="14.5" y2="8.5" style="fill:none;stroke:#009688;stroke-linecap:square;stroke-linejoin:round"/><line x1="5.5" y1="10.5" x2="14.5" y2="10.5" style="fill:none;stroke:#009688;stroke-linecap:square;stroke-linejoin:round"/><line x1="5.5" y1="12.5" x2="14.5" y2="12.5" style="fill:none;stroke:#949494;stroke-linecap:square;stroke-linejoin:round"/><line x1="5.5" y1="14.5" x2="14.5" y2="14.5" style="fill:none;stroke:#949494;stroke-linecap:square;stroke-linejoin:round"/></svg>