<svg width="13" height="13" viewBox="0 0 13 13" fill="none" xmlns="http://www.w3.org/2000/svg">
<path d="M6.48975 2.84082C7.56719 2.84082 8.6005 3.26883 9.36237 4.0307C10.1242 4.79257 10.5522 5.82588 10.5522 6.90332C10.5522 7.98076 10.1242 9.01408 9.36237 9.77594C8.6005 10.5378 7.56719 10.9658 6.48975 10.9658C5.4123 10.9658 4.37899 10.5378 3.61712 9.77594C2.85526 9.01408 2.42725 7.98076 2.42725 6.90332C2.42725 5.82588 2.85526 4.79257 3.61712 4.0307C4.37899 3.26883 5.4123 2.84082 6.48975 2.84082ZM6.48975 11.9033C7.81583 11.9033 9.0876 11.3765 10.0253 10.4389C10.963 9.50117 11.4897 8.2294 11.4897 6.90332C11.4897 5.57724 10.963 4.30547 10.0253 3.36779C9.0876 2.4301 7.81583 1.90332 6.48975 1.90332C5.16366 1.90332 3.89189 2.4301 2.95421 3.36779C2.01653 4.30547 1.48975 5.57724 1.48975 6.90332C1.48975 8.2294 2.01653 9.50117 2.95421 10.4389C3.89189 11.3765 5.16366 11.9033 6.48975 11.9033ZM5.7085 8.46582C5.44873 8.46582 5.23975 8.6748 5.23975 8.93457C5.23975 9.19434 5.44873 9.40332 5.7085 9.40332H7.271C7.53076 9.40332 7.73975 9.19434 7.73975 8.93457C7.73975 8.6748 7.53076 8.46582 7.271 8.46582H7.11475V6.74707C7.11475 6.4873 6.90576 6.27832 6.646 6.27832H5.7085C5.44873 6.27832 5.23975 6.4873 5.23975 6.74707C5.23975 7.00684 5.44873 7.21582 5.7085 7.21582H6.17725V8.46582H5.7085ZM6.48975 5.65332C6.65551 5.65332 6.81448 5.58747 6.93169 5.47026C7.0489 5.35305 7.11475 5.19408 7.11475 5.02832C7.11475 4.86256 7.0489 4.70359 6.93169 4.58638C6.81448 4.46917 6.65551 4.40332 6.48975 4.40332C6.32399 4.40332 6.16501 4.46917 6.0478 4.58638C5.93059 4.70359 5.86475 4.86256 5.86475 5.02832C5.86475 5.19408 5.93059 5.35305 6.0478 5.47026C6.16501 5.58747 6.32399 5.65332 6.48975 5.65332Z" fill="#6B6B6B"/>
</svg>
