<svg width="18" height="18" viewBox="0 0 18 18" fill="none" xmlns="http://www.w3.org/2000/svg">
<path d="M8.94694 4L16.0264 16.2619H1.86752L8.94694 4ZM9.81297 2.5C9.42807 1.83333 8.46581 1.83333 8.08091 2.5L0.135466 16.2619C-0.249434 16.9286 0.231692 17.7619 1.00149 17.7619H16.8924C17.6622 17.7619 18.1433 16.9286 17.7584 16.2619L9.81297 2.5Z" fill="#FF6F00"/>
<path d="M8.54394 13.1747L8.36194 5.43271H9.60794L9.42594 13.1747H8.54394ZM8.99194 16.2127C8.77727 16.2127 8.5906 16.1334 8.43194 15.9747C8.2826 15.816 8.20794 15.6294 8.20794 15.4147C8.20794 15.1907 8.2826 14.9994 8.43194 14.8407C8.5906 14.682 8.77727 14.6027 8.99194 14.6027C9.21594 14.6027 9.4026 14.682 9.55194 14.8407C9.7106 14.9994 9.78994 15.1907 9.78994 15.4147C9.78994 15.6294 9.7106 15.816 9.55194 15.9747C9.4026 16.1334 9.21594 16.2127 8.99194 16.2127Z" fill="#352F2D"/>
</svg>
