<svg width="18" height="18" viewBox="0 0 18 18" fill="none" xmlns="http://www.w3.org/2000/svg">
<path d="M8.422 11.116L8.24 3.374H9.486L9.304 11.116H8.422ZM8.87 14.154C8.65533 14.154 8.46867 14.0747 8.31 13.916C8.16067 13.7573 8.086 13.5707 8.086 13.356C8.086 13.132 8.16067 12.9407 8.31 12.782C8.46867 12.6233 8.65533 12.544 8.87 12.544C9.094 12.544 9.28067 12.6233 9.43 12.782C9.58867 12.9407 9.668 13.132 9.668 13.356C9.668 13.5707 9.58867 13.7573 9.43 13.916C9.28067 14.0747 9.094 14.154 8.87 14.154Z" fill="#352F2D"/>
<path d="M9 15.5C5.41015 15.5 2.5 12.5899 2.5 9C2.5 5.41015 5.41015 2.5 9 2.5C12.5899 2.5 15.5 5.41015 15.5 9C15.5 12.5899 12.5899 15.5 9 15.5ZM9 17C13.4183 17 17 13.4183 17 9C17 4.58172 13.4183 1 9 1C4.58172 1 1 4.58172 1 9C1 13.4183 4.58172 17 9 17Z" fill="#D01B1B"/>
</svg>
