<svg width="18" height="17" viewBox="0 0 18 17" fill="none" xmlns="http://www.w3.org/2000/svg">
<path fill-rule="evenodd" clip-rule="evenodd" d="M9.44686 0.760658C9.44688 0.760632 9.44705 0.761358 9.44734 0.762916L9.44686 0.760658ZM9.45702 1.30902V16.0838L4.34788 12.5881C4.34553 12.5865 4.34262 12.5844 4.33918 12.582C4.30441 12.5576 4.21551 12.4952 4.10842 12.4621C4.00133 12.429 3.89274 12.4303 3.85027 12.4308C3.84606 12.4308 3.84251 12.4308 3.83966 12.4308H1.00002V5.46331H3.82577C3.8289 5.46331 3.83283 5.46336 3.83747 5.46342C3.88445 5.46403 4.00502 5.46559 4.12235 5.42522C4.23969 5.38484 4.33377 5.30941 4.37042 5.28003C4.37405 5.27712 4.37711 5.27466 4.37958 5.27274L9.45702 1.30902ZM9.44803 16.588C9.44801 16.588 9.44814 16.5873 9.44846 16.5859L9.44803 16.588ZM9.39368 0.114326C9.51273 0.0465355 9.77431 -0.0762185 10.064 0.0651441C10.3537 0.206507 10.4179 0.488235 10.4377 0.623795C10.4572 0.756805 10.4571 0.923 10.457 1.07685C10.457 1.08598 10.457 1.09506 10.457 1.1041V16.2734C10.457 16.2821 10.457 16.2908 10.457 16.2996C10.4571 16.4426 10.4572 16.6005 10.4383 16.7283C10.4183 16.8637 10.355 17.1285 10.0836 17.2717C9.81219 17.4149 9.55782 17.3175 9.4348 17.2576C9.31872 17.201 9.18841 17.1118 9.07049 17.031C9.06321 17.026 9.05598 17.0211 9.0488 17.0161L3.80873 13.4308H0.900021C0.894467 13.4308 0.888767 13.4308 0.882937 13.4309C0.804643 13.4309 0.702846 13.431 0.613943 13.4191C0.504036 13.4043 0.342721 13.3635 0.205047 13.2258C0.0673729 13.0881 0.026579 12.9268 0.0118024 12.8169C-0.000150123 12.728 -5.89874e-05 12.6262 1.10481e-05 12.5479C1.62933e-05 12.5421 2.14193e-05 12.5364 2.14193e-05 12.5308V5.36331C2.14193e-05 5.35775 1.62933e-05 5.35205 1.10481e-05 5.34622C-5.89874e-05 5.26793 -0.000150123 5.16613 0.0118023 5.07723C0.0265789 4.96732 0.0673727 4.80601 0.205047 4.66833C0.34272 4.53066 0.504036 4.48987 0.613943 4.47509C0.702844 4.46314 0.804638 4.46323 0.882931 4.4633C0.888763 4.4633 0.894465 4.46331 0.900021 4.46331H3.79136L9.0032 0.394668C9.01032 0.389111 9.01748 0.383519 9.02467 0.3779C9.1459 0.283171 9.27686 0.180843 9.39368 0.114326Z" fill="#eb4949"/>
<path d="M15.2496 13.7943C15.4847 14.0294 15.868 14.0308 16.0833 13.7776C16.586 13.1865 16.9941 12.5196 17.2919 11.8004C17.6667 10.8956 17.8596 9.92583 17.8596 8.94645C17.8596 7.96707 17.6667 6.99728 17.2919 6.09245C16.9941 5.37334 16.586 4.70645 16.0833 4.11535C15.868 3.86206 15.4847 3.86353 15.2496 4.09863C15.0145 4.33373 15.0171 4.71321 15.2285 4.96982C15.6214 5.44677 15.9422 5.98022 16.1796 6.55321C16.4939 7.31196 16.6556 8.12518 16.6556 8.94645C16.6556 9.76772 16.4939 10.5809 16.1796 11.3397C15.9422 11.9127 15.6214 12.4461 15.2285 12.9231C15.0171 13.1797 15.0145 13.5592 15.2496 13.7943Z" fill="#eb4949"/>
<path d="M13.0987 11.6438C13.3356 11.8807 13.7235 11.8828 13.9258 11.6158C14.1529 11.3159 14.3413 10.9876 14.4859 10.6386C14.708 10.1022 14.8224 9.5274 14.8224 8.94688C14.8224 8.36637 14.708 7.79153 14.4859 7.25521C14.3413 6.90616 14.1529 6.57787 13.9258 6.27801C13.7235 6.01096 13.3356 6.0131 13.0987 6.24998C12.8618 6.48685 12.8676 6.86849 13.0557 7.14567C13.1778 7.3255 13.2815 7.51769 13.3651 7.71945C13.5263 8.10859 13.6092 8.52568 13.6092 8.94688C13.6092 9.36809 13.5263 9.78517 13.3651 10.1743C13.2815 10.3761 13.1778 10.5683 13.0557 10.7481C12.8676 11.0253 12.8618 11.4069 13.0987 11.6438Z" fill="#eb4949"/>
</svg>
