<svg width="54" height="54" viewBox="0 0 54 54" fill="none" xmlns="http://www.w3.org/2000/svg">
<path fill-rule="evenodd" clip-rule="evenodd" d="M23.3142 49.5303C18.1414 48.867 14.2358 46.8574 11.5742 44.1787C13.8735 43.9569 17.1377 43.7527 21.0554 43.7527C25.2299 43.7527 27.2367 44.4203 29.1662 45.0623C30.9526 45.6566 32.6727 46.2288 35.9854 46.2288C37.3008 46.2288 38.6423 46.1035 39.9539 45.8977C37.5855 47.6741 34.5244 49.0114 30.718 49.5303H23.3142Z" fill="#23A4DC"/>
<path d="M7.27344 34.0042C7.27344 26.2914 22.669 1.65849 27.1317 1.65869C31.5945 1.6589 46.321 27.3923 46.321 34.0042C46.321 40.6162 40.4667 49.7662 27.1317 49.7662C13.7968 49.7662 7.27344 41.717 7.27344 34.0042Z" stroke="#E1E1E1" stroke-width="1.65888"/>
</svg>
