<svg width="54" height="54" viewBox="0 0 54 54" fill="none" xmlns="http://www.w3.org/2000/svg">
<path d="M7.61029 34.1636C7.61029 26.4128 23.0058 1.65861 27.4686 1.65881C31.9313 1.65902 46.6578 27.5191 46.6578 34.1636C46.6578 40.8082 40.8035 50.0033 27.4686 50.0033C14.1336 50.0033 7.61029 41.9145 7.61029 34.1636Z" fill="#94DFFF"/>
<path d="M7.61029 34.1636C7.61029 26.4128 23.0058 1.65861 27.4686 1.65881C31.9313 1.65902 46.6578 27.5191 46.6578 34.1636C46.6578 40.8082 40.8035 50.0033 27.4686 50.0033C14.1336 50.0033 7.61029 41.9145 7.61029 34.1636Z" stroke="#858585" stroke-width="1.65888"/>
<path d="M28.1695 23.7633C29.4236 23.7633 30.5682 24.0619 31.6034 24.6591C32.6385 25.2364 33.4547 26.0725 34.0519 27.1674C34.6491 28.2423 34.9477 29.4865 34.9477 30.8998C34.9477 32.4326 34.6093 33.7664 33.9324 34.9011C33.2755 36.0158 32.3698 36.8718 31.2152 37.469C30.0606 38.0463 28.7866 38.3349 27.3931 38.3349C25.7409 38.3349 24.3076 37.9567 23.0933 37.2003C21.8989 36.4438 21.0529 35.2992 20.5552 33.7664L24.0488 31.7658C24.3076 32.6616 24.7257 33.3384 25.303 33.7962C25.8802 34.2541 26.5571 34.483 27.3334 34.483C28.3088 34.483 29.0553 34.1645 29.5729 33.5275C30.1104 32.8706 30.3791 32.0445 30.3791 31.0491C30.3791 30.0538 30.1004 29.2277 29.5431 28.5708C29.0056 27.8939 28.2292 27.5555 27.214 27.5555C25.9002 27.5555 24.8551 28.2025 24.0787 29.4964L20.9733 27.9736L22.4663 16.0894H33.9324V19.792H26.1092L25.512 24.3008C26.368 23.9425 27.2538 23.7633 28.1695 23.7633Z" fill="#858585"/>
</svg>
