<svg width="54" height="54" viewBox="0 0 54 54" fill="none" xmlns="http://www.w3.org/2000/svg">
<path fill-rule="evenodd" clip-rule="evenodd" d="M9.80207 26.4449C8.4485 29.5938 7.60199 32.3462 7.60199 34.1636C7.60199 41.1348 12.879 48.3795 23.6428 49.7664H31.0454C41.8505 48.2863 46.6495 40.1796 46.6495 34.1636C46.6495 32.6462 45.8815 30.1266 44.643 27.1418C42.1225 27.9536 39.1568 28.6157 36.3134 28.6157C33.0007 28.6157 30.8235 27.753 28.5624 26.8572C26.1201 25.8896 23.58 24.8832 19.4055 24.8832C14.4789 24.8832 11.7462 25.7958 10.0489 26.3626C9.96409 26.391 9.88186 26.4184 9.80207 26.4449Z" fill="#94DFFF"/>
<path d="M7.60193 34.1636C7.60193 26.4128 22.9975 1.65861 27.4602 1.65881C31.9229 1.65902 46.6494 27.5191 46.6494 34.1636C46.6494 40.8082 40.7952 50.0033 27.4602 50.0033C14.1253 50.0033 7.60193 41.9145 7.60193 34.1636Z" stroke="#858585" stroke-width="1.65888"/>
<path d="M28.3907 33.612C29.38 33.612 30.2294 33.3507 30.9387 32.828C31.6667 32.3053 32.2454 31.5773 32.6747 30.644L36.0627 32.604C35.5587 33.9853 34.6347 35.124 33.2907 36.02C31.9467 36.8973 30.3414 37.336 28.4747 37.336C26.664 37.336 25.012 36.8973 23.5187 36.02C22.0254 35.1427 20.84 33.9013 19.9627 32.296C19.0854 30.672 18.6467 28.8147 18.6467 26.724C18.6467 24.6333 19.076 22.7853 19.9347 21.18C20.812 19.5747 21.9974 18.3333 23.4907 17.456C25.0027 16.5787 26.664 16.14 28.4747 16.14C30.3414 16.14 31.9467 16.588 33.2907 17.484C34.6347 18.3613 35.5587 19.4907 36.0627 20.872L32.6747 22.832C32.2454 21.8987 31.6667 21.1707 30.9387 20.648C30.2294 20.1253 29.38 19.864 28.3907 19.864C27.3454 19.864 26.412 20.144 25.5907 20.704C24.7694 21.264 24.116 22.0667 23.6307 23.112C23.164 24.1387 22.9307 25.3427 22.9307 26.724C22.9307 28.1053 23.164 29.3187 23.6307 30.364C24.116 31.4093 24.7694 32.212 25.5907 32.772C26.412 33.332 27.3454 33.612 28.3907 33.612Z" fill="#858585"/>
</svg>
