<svg width="54" height="54" viewBox="0 0 54 54" fill="none" xmlns="http://www.w3.org/2000/svg">
<path fill-rule="evenodd" clip-rule="evenodd" d="M9.80164 26.445C8.44807 29.5939 7.60156 32.3463 7.60156 34.1637C7.60156 41.1349 12.8786 48.3796 23.6424 49.7665H31.045C41.8501 48.2864 46.6491 40.1797 46.6491 34.1637C46.6491 32.6463 45.8811 30.1267 44.6426 27.1419C42.1221 27.9537 39.1564 28.6158 36.313 28.6158C33.0003 28.6158 30.8231 27.7531 28.562 26.8573C26.1197 25.8897 23.5796 24.8833 19.4051 24.8833C14.4785 24.8833 11.7458 25.7959 10.0485 26.3627C9.96366 26.3911 9.88143 26.4185 9.80164 26.445Z" fill="#94DFFF"/>
<path d="M7.60156 34.1635C7.60156 26.4127 22.9971 1.65849 27.4598 1.65869C31.9225 1.6589 46.649 27.519 46.649 34.1635C46.649 40.8081 40.7948 50.0032 27.4598 50.0032C14.1249 50.0032 7.60156 41.9144 7.60156 34.1635Z" stroke="#858585" stroke-width="1.65888"/>
</svg>
