<svg width="54" height="54" viewBox="0 0 54 54" fill="none" xmlns="http://www.w3.org/2000/svg">
<path d="M7.61029 34.1636C7.61029 26.4128 23.0058 1.65861 27.4686 1.65881C31.9313 1.65902 46.6578 27.5191 46.6578 34.1636C46.6578 40.8082 40.8035 50.0033 27.4686 50.0033C14.1336 50.0033 7.61029 41.9145 7.61029 34.1636Z" fill="#94DFFF"/>
<path d="M7.61029 34.1636C7.61029 26.4128 23.0058 1.65861 27.4686 1.65881C31.9313 1.65902 46.6578 27.5191 46.6578 34.1636C46.6578 40.8082 40.8035 50.0033 27.4686 50.0033C14.1336 50.0033 7.61029 41.9145 7.61029 34.1636Z" stroke="#858585" stroke-width="1.65888"/>
<path d="M33.0144 27.348H24.6984V32.444H34.3024V36H20.6384V15.504H33.9944V19.032H24.6984V23.848H33.0144V27.348Z" fill="#858585"/>
</svg>
