<svg width="54" height="54" viewBox="0 0 54 54" fill="none" xmlns="http://www.w3.org/2000/svg">
<path fill-rule="evenodd" clip-rule="evenodd" d="M45.7086 38.3054C43.803 44.0794 37.9191 50.0032 27.216 50.0032C16.4343 50.0032 10.1055 44.7154 8.07715 38.5937L8.50611 38.3614C8.86437 38.2886 9.28619 38.1477 9.80459 37.9746C11.5019 37.4078 14.2346 36.4951 19.1612 36.4951C23.3357 36.4951 25.8758 37.5015 28.3181 38.4692C30.5792 39.365 32.7564 40.2276 36.0691 40.2276C39.4225 40.2276 42.9459 39.3068 45.7086 38.3054Z" fill="#23A4DC"/>
<path d="M7.35742 34.1635C7.35742 26.4127 22.753 1.65849 27.2157 1.65869C31.6784 1.6589 46.4049 27.519 46.4049 34.1635C46.4049 40.8081 40.5507 50.0032 27.2157 50.0032C13.8808 50.0032 7.35742 41.9144 7.35742 34.1635Z" stroke="#E1E1E1" stroke-width="1.65888"/>
</svg>
