<svg width="54" height="54" viewBox="0 0 54 54" fill="none" xmlns="http://www.w3.org/2000/svg">
<path fill-rule="evenodd" clip-rule="evenodd" d="M9.64246 26.445C8.28889 29.5939 7.44238 32.3463 7.44238 34.1637C7.44238 41.1349 12.7194 48.3796 23.4831 49.7665H30.8858C41.6909 48.2864 46.4899 40.1797 46.4899 34.1637C46.4899 32.6463 45.7218 30.1267 44.4834 27.1419C41.9629 27.9537 38.9972 28.6158 36.1537 28.6158C32.8411 28.6158 30.6638 27.7531 28.4027 26.8573C25.9604 25.8897 23.4203 24.8833 19.2459 24.8833C14.3193 24.8833 11.5866 25.7959 9.88929 26.3627C9.80448 26.3911 9.72225 26.4185 9.64246 26.445Z" fill="#23A4DC"/>
<path d="M7.44141 34.1635C7.44141 26.4127 22.8369 1.65849 27.2997 1.65869C31.7624 1.6589 46.4889 27.519 46.4889 34.1635C46.4889 40.8081 40.6346 50.0032 27.2997 50.0032C13.9647 50.0032 7.44141 41.9144 7.44141 34.1635Z" stroke="#E1E1E1" stroke-width="1.65888"/>
</svg>
