<svg width="54" height="54" viewBox="0 0 54 54" fill="none" xmlns="http://www.w3.org/2000/svg">
<path fill-rule="evenodd" clip-rule="evenodd" d="M17.058 13.3564C12.2368 20.8737 7.7666 29.9872 7.7666 34.1637C7.7666 41.1347 13.0433 48.3791 23.8063 49.7663H31.2111C42.0155 48.2859 46.8141 40.1795 46.8141 34.1637C46.8141 31.0433 43.5662 23.6848 39.6587 16.7571C38.6009 16.9126 37.5311 17.0035 36.478 17.0035C33.1654 17.0035 30.9881 16.1408 28.727 15.245C26.2847 14.2774 23.7446 13.271 19.5702 13.271C18.6604 13.271 17.8254 13.3021 17.058 13.3564Z" fill="#94DFFF"/>
<path d="M7.7666 34.1635C7.7666 26.4127 23.1621 1.65849 27.6249 1.65869C32.0876 1.6589 46.8141 27.519 46.8141 34.1635C46.8141 40.8081 40.9598 50.0032 27.6249 50.0032C14.2899 50.0032 7.7666 41.9144 7.7666 34.1635Z" stroke="#858585" stroke-width="1.65888"/>
</svg>
