<svg width="54" height="54" viewBox="0 0 54 54" fill="none" xmlns="http://www.w3.org/2000/svg">
<path fill-rule="evenodd" clip-rule="evenodd" d="M45.7887 38.3054C43.8831 44.0794 37.9992 50.0032 27.296 50.0032C16.5143 50.0032 10.1855 44.7154 8.15723 38.5937L8.58618 38.3614C8.94444 38.2886 9.36627 38.1477 9.88467 37.9746C11.582 37.4078 14.3146 36.4951 19.2413 36.4951C23.4157 36.4951 25.9558 37.5015 28.3981 38.4692C30.6592 39.365 32.8365 40.2276 36.1491 40.2276C39.5025 40.2276 43.026 39.3068 45.7887 38.3054Z" fill="#94DFFF"/>
<path d="M7.4375 34.1635C7.4375 26.4127 22.8331 1.65849 27.2958 1.65869C31.7585 1.6589 46.485 27.519 46.485 34.1635C46.485 40.8081 40.6308 50.0032 27.2958 50.0032C13.9609 50.0032 7.4375 41.9144 7.4375 34.1635Z" stroke="#858585" stroke-width="1.65888"/>
</svg>
