<svg width="54" height="54" viewBox="0 0 54 54" fill="none" xmlns="http://www.w3.org/2000/svg">
<path fill-rule="evenodd" clip-rule="evenodd" d="M16.8175 13.3563C11.9964 20.8736 7.52618 29.9871 7.52618 34.1636C7.52618 41.1346 12.8028 48.379 23.5658 49.7662H30.9707C41.775 48.2858 46.5737 40.1794 46.5737 34.1636C46.5737 31.0432 43.3257 23.6847 39.4182 16.757C38.3605 16.9125 37.2906 17.0034 36.2376 17.0034C32.9249 17.0034 30.7477 16.1407 28.4866 15.2449C26.0443 14.2773 23.5042 13.2709 19.3297 13.2709C18.4199 13.2709 17.585 13.302 16.8175 13.3563Z" fill="#23A4DC"/>
<path d="M7.52612 34.1636C7.52612 26.4128 22.9217 1.65861 27.3844 1.65881C31.8471 1.65902 46.5736 27.5191 46.5736 34.1636C46.5736 40.8082 40.7193 50.0033 27.3844 50.0033C14.0495 50.0033 7.52612 41.9145 7.52612 34.1636Z" stroke="#E1E1E1" stroke-width="1.65888"/>
<path d="M26.0837 15.504C28.081 15.504 29.8824 15.9053 31.4877 16.708C33.1117 17.5107 34.3904 18.6867 35.3237 20.236C36.257 21.7667 36.7237 23.596 36.7237 25.724C36.7237 27.852 36.257 29.6907 35.3237 31.24C34.3904 32.7893 33.121 33.9747 31.5157 34.796C29.9104 35.5987 28.0997 36 26.0837 36H19.2517V15.504H26.0837ZM25.6077 32.528C27.8104 32.528 29.4997 31.94 30.6757 30.764C31.8517 29.588 32.4397 27.908 32.4397 25.724C32.4397 23.5773 31.8424 21.916 30.6477 20.74C29.4717 19.5453 27.7917 18.948 25.6077 18.948H23.3117V32.528H25.6077Z" fill="white"/>
</svg>
