<svg width="54" height="54" viewBox="0 0 54 54" fill="none" xmlns="http://www.w3.org/2000/svg">
<path fill-rule="evenodd" clip-rule="evenodd" d="M23.3138 49.5304C18.141 48.8671 14.2354 46.8575 11.5738 44.1788C13.8731 43.957 17.1373 43.7528 21.055 43.7528C25.2295 43.7528 27.2363 44.4204 29.1658 45.0624C30.9522 45.6567 32.6723 46.2289 35.985 46.2289C37.3004 46.2289 38.6419 46.1036 39.9535 45.8978C37.5851 47.6742 34.524 49.0115 30.7176 49.5304H23.3138Z" fill="#94DFFF"/>
<path d="M7.27356 34.0043C7.27356 26.2915 22.6691 1.65861 27.1318 1.65881C31.5946 1.65902 46.3211 27.3924 46.3211 34.0043C46.3211 40.6163 40.4668 49.7663 27.1318 49.7663C13.7969 49.7663 7.27356 41.7171 7.27356 34.0043Z" stroke="#858585" stroke-width="1.65888"/>
<path d="M19.2165 22.3651V18.2146L25.9051 14.4224H29.2793V36.3096H24.8899V19.1999L19.2165 22.3651Z" fill="#858585"/>
</svg>
