<svg width="54" height="54" viewBox="0 0 54 54" fill="none" xmlns="http://www.w3.org/2000/svg">
<path d="M7.27356 34.1636C7.27356 26.4128 22.6691 1.65861 27.1318 1.65881C31.5946 1.65902 46.3211 27.5191 46.3211 34.1636C46.3211 40.8082 40.4668 50.0033 27.1318 50.0033C13.7969 50.0033 7.27356 41.9145 7.27356 34.1636Z" fill="#23A4DC"/>
<path d="M7.27356 34.1636C7.27356 26.4128 22.6691 1.65861 27.1318 1.65881C31.5946 1.65902 46.3211 27.5191 46.3211 34.1636C46.3211 40.8082 40.4668 50.0033 27.1318 50.0033C13.7969 50.0033 7.27356 41.9145 7.27356 34.1636Z" stroke="#E1E1E1" stroke-width="1.65888"/>
<path d="M33.944 27.73H25.034V33.19H35.324V37H20.684V15.04H34.994V18.82H25.034V23.98H33.944V27.73Z" fill="white"/>
</svg>
