<svg width="54" height="54" viewBox="0 0 54 54" fill="none" xmlns="http://www.w3.org/2000/svg">
<path fill-rule="evenodd" clip-rule="evenodd" d="M16.8177 13.3564C11.9966 20.8737 7.52637 29.9872 7.52637 34.1637C7.52637 41.1347 12.803 48.3791 23.566 49.7663H30.9709C41.7752 48.2859 46.5739 40.1795 46.5739 34.1637C46.5739 31.0433 43.3259 23.6848 39.4184 16.7571C38.3607 16.9126 37.2908 17.0035 36.2378 17.0035C32.9251 17.0035 30.7479 16.1408 28.4868 15.245C26.0445 14.2774 23.5044 13.271 19.3299 13.271C18.4201 13.271 17.5852 13.3021 16.8177 13.3564Z" fill="#23A4DC"/>
<path d="M7.52637 34.1635C7.52637 26.4127 22.9219 1.65849 27.3846 1.65869C31.8473 1.6589 46.5738 27.519 46.5738 34.1635C46.5738 40.8081 40.7195 50.0032 27.3846 50.0032C14.0497 50.0032 7.52637 41.9144 7.52637 34.1635Z" stroke="#E1E1E1" stroke-width="1.65888"/>
</svg>
