<svg width="54" height="54" viewBox="0 0 54 54" fill="none" xmlns="http://www.w3.org/2000/svg">
<path fill-rule="evenodd" clip-rule="evenodd" d="M45.7887 38.3055C43.8831 44.0795 37.9992 50.0033 27.296 50.0033C16.5143 50.0033 10.1855 44.7155 8.15723 38.5938L8.58618 38.3615C8.94444 38.2887 9.36627 38.1478 9.88467 37.9747C11.582 37.4079 14.3146 36.4952 19.2413 36.4952C23.4157 36.4952 25.9558 37.5016 28.3981 38.4693C30.6592 39.3651 32.8365 40.2277 36.1491 40.2277C39.5025 40.2277 43.026 39.3069 45.7887 38.3055Z" fill="#94DFFF"/>
<path d="M7.43774 34.1636C7.43774 26.4128 22.8333 1.65861 27.296 1.65881C31.7587 1.65902 46.4852 27.5191 46.4852 34.1636C46.4852 40.8082 40.631 50.0033 27.296 50.0033C13.9611 50.0033 7.43774 41.9145 7.43774 34.1636Z" stroke="#858585" stroke-width="1.65888"/>
<path d="M26.2053 34.1844H34.9542V37.9766H19.875V35.1698L26.474 27.7646C27.6087 26.4905 28.395 25.4952 28.8329 24.7786C29.2908 24.042 29.5197 23.2856 29.5197 22.5092C29.5197 21.6532 29.2808 20.9665 28.8031 20.4489C28.3253 19.9313 27.6784 19.6725 26.8622 19.6725C26.0261 19.6725 25.2896 19.9811 24.6526 20.5982C24.0155 21.1954 23.5278 22.0514 23.1894 23.1661L19.7854 21.1954C20.303 19.4237 21.2386 18.0701 22.5922 17.1344C23.9459 16.1789 25.5085 15.7012 27.2802 15.7012C28.6737 15.7012 29.878 15.9898 30.8933 16.5671C31.9284 17.1245 32.7147 17.9008 33.2522 18.8962C33.8096 19.8915 34.0883 21.0262 34.0883 22.3002C34.0883 23.5543 33.7797 24.7288 33.1626 25.8237C32.5654 26.8986 31.4905 28.302 29.9377 30.0339L26.2053 34.1844Z" fill="#858585"/>
</svg>
