<svg width="54" height="54" viewBox="0 0 54 54" fill="none" xmlns="http://www.w3.org/2000/svg">
<path fill-rule="evenodd" clip-rule="evenodd" d="M45.7087 38.3055C43.8031 44.0795 37.9192 50.0033 27.2161 50.0033C16.4344 50.0033 10.1056 44.7155 8.07727 38.5938L8.50623 38.3615C8.86449 38.2887 9.28631 38.1478 9.80471 37.9747C11.502 37.4079 14.2347 36.4952 19.1613 36.4952C23.3358 36.4952 25.8759 37.5016 28.3182 38.4693C30.5793 39.3651 32.7565 40.2277 36.0692 40.2277C39.4226 40.2277 42.946 39.3069 45.7087 38.3055Z" fill="#23A4DC"/>
<path d="M7.35773 34.1636C7.35773 26.4128 22.7533 1.65861 27.216 1.65881C31.6787 1.65902 46.4052 27.5191 46.4052 34.1636C46.4052 40.8082 40.551 50.0033 27.216 50.0033C13.8811 50.0033 7.35773 41.9145 7.35773 34.1636Z" stroke="#E1E1E1" stroke-width="1.65888"/>
<path d="M33.1564 25.36C35.415 26.1627 36.5444 27.74 36.5444 30.092C36.5444 31.94 35.863 33.3867 34.5004 34.432C33.1564 35.4773 31.2617 36 28.8164 36H20.6404V15.504H28.0604C30.2444 15.504 32.0177 16.008 33.3804 17.016C34.7617 18.0053 35.4524 19.4053 35.4524 21.216C35.4524 23.1013 34.687 24.4827 33.1564 25.36ZM24.6164 19.032V23.876H27.6684C28.7697 23.876 29.6377 23.652 30.2724 23.204C30.9257 22.7373 31.2524 22.1213 31.2524 21.356C31.2524 20.6093 30.935 20.04 30.3004 19.648C29.6657 19.2373 28.7884 19.032 27.6684 19.032H24.6164ZM28.4804 32.472C29.7124 32.472 30.655 32.248 31.3084 31.8C31.9804 31.352 32.3164 30.7173 32.3164 29.896C32.3164 29.0747 31.9804 28.4307 31.3084 27.964C30.655 27.4973 29.703 27.264 28.4524 27.264H24.6164V32.472H28.4804Z" fill="white"/>
</svg>
