<svg width="54" height="54" viewBox="0 0 54 54" fill="none" xmlns="http://www.w3.org/2000/svg">
<path fill-rule="evenodd" clip-rule="evenodd" d="M9.64204 26.4449C8.28847 29.5938 7.44196 32.3462 7.44196 34.1636C7.44196 41.1348 12.719 48.3795 23.4827 49.7664H30.8854C41.6905 48.2863 46.4895 40.1796 46.4895 34.1636C46.4895 32.6462 45.7214 30.1266 44.483 27.1418C41.9625 27.9536 38.9968 28.6157 36.1533 28.6157C32.8407 28.6157 30.6634 27.753 28.4023 26.8572C25.96 25.8896 23.4199 24.8832 19.2455 24.8832C14.3189 24.8832 11.5862 25.7958 9.88887 26.3626C9.80406 26.391 9.72183 26.4184 9.64204 26.4449Z" fill="#23A4DC"/>
<path d="M7.44189 34.1636C7.44189 26.4128 22.8374 1.65861 27.3002 1.65881C31.7629 1.65902 46.4894 27.5191 46.4894 34.1636C46.4894 40.8082 40.6351 50.0033 27.3002 50.0033C13.9652 50.0033 7.44189 41.9145 7.44189 34.1636Z" stroke="#E1E1E1" stroke-width="1.65888"/>
<path d="M28.3907 33.612C29.38 33.612 30.2294 33.3507 30.9387 32.828C31.6667 32.3053 32.2454 31.5773 32.6747 30.644L36.0627 32.604C35.5587 33.9853 34.6347 35.124 33.2907 36.02C31.9467 36.8973 30.3414 37.336 28.4747 37.336C26.664 37.336 25.012 36.8973 23.5187 36.02C22.0254 35.1427 20.84 33.9013 19.9627 32.296C19.0854 30.672 18.6467 28.8147 18.6467 26.724C18.6467 24.6333 19.076 22.7853 19.9347 21.18C20.812 19.5747 21.9974 18.3333 23.4907 17.456C25.0027 16.5787 26.664 16.14 28.4747 16.14C30.3414 16.14 31.9467 16.588 33.2907 17.484C34.6347 18.3613 35.5587 19.4907 36.0627 20.872L32.6747 22.832C32.2454 21.8987 31.6667 21.1707 30.9387 20.648C30.2294 20.1253 29.38 19.864 28.3907 19.864C27.3454 19.864 26.412 20.144 25.5907 20.704C24.7694 21.264 24.116 22.0667 23.6307 23.112C23.164 24.1387 22.9307 25.3427 22.9307 26.724C22.9307 28.1053 23.164 29.3187 23.6307 30.364C24.116 31.4093 24.7694 32.212 25.5907 32.772C26.412 33.332 27.3454 33.612 28.3907 33.612Z" fill="white"/>
</svg>
