<svg width="54" height="54" viewBox="0 0 54 54" fill="none" xmlns="http://www.w3.org/2000/svg">
<path fill-rule="evenodd" clip-rule="evenodd" d="M17.0576 13.3563C12.2364 20.8736 7.76624 29.9871 7.76624 34.1636C7.76624 41.1346 13.0429 48.379 23.8059 49.7662H31.2107C42.0151 48.2858 46.8137 40.1794 46.8137 34.1636C46.8137 31.0432 43.5658 23.6847 39.6583 16.757C38.6005 16.9125 37.5307 17.0034 36.4776 17.0034C33.165 17.0034 30.9877 16.1407 28.7266 15.2449C26.2843 14.2773 23.7442 13.2709 19.5698 13.2709C18.66 13.2709 17.825 13.302 17.0576 13.3563Z" fill="#94DFFF"/>
<path d="M7.76617 34.1636C7.76617 26.4128 23.1617 1.65861 27.6245 1.65881C32.0872 1.65902 46.8137 27.5191 46.8137 34.1636C46.8137 40.8082 40.9594 50.0033 27.6245 50.0033C14.2895 50.0033 7.76617 41.9145 7.76617 34.1636Z" stroke="#858585" stroke-width="1.65888"/>
<path d="M26.0837 15.504C28.081 15.504 29.8824 15.9053 31.4877 16.708C33.1117 17.5107 34.3904 18.6867 35.3237 20.236C36.257 21.7667 36.7237 23.596 36.7237 25.724C36.7237 27.852 36.257 29.6907 35.3237 31.24C34.3904 32.7893 33.121 33.9747 31.5157 34.796C29.9104 35.5987 28.0997 36 26.0837 36H19.2517V15.504H26.0837ZM25.6077 32.528C27.8104 32.528 29.4997 31.94 30.6757 30.764C31.8517 29.588 32.4397 27.908 32.4397 25.724C32.4397 23.5773 31.8424 21.916 30.6477 20.74C29.4717 19.5453 27.7917 18.948 25.6077 18.948H23.3117V32.528H25.6077Z" fill="#858585"/>
</svg>
