<svg width="19" height="18" viewBox="0 0 19 18" fill="none" xmlns="http://www.w3.org/2000/svg">
<path d="M17.2722 9C17.2722 7.0606 16.5018 5.20064 15.1304 3.82928C13.7591 2.45792 11.8991 1.6875 9.95972 1.6875C8.02032 1.6875 6.16036 2.45792 4.789 3.82928C3.41764 5.20064 2.64722 7.0606 2.64722 9C2.64722 10.9394 3.41764 12.7994 4.789 14.1707C6.16036 15.5421 8.02032 16.3125 9.95972 16.3125C11.8991 16.3125 13.7591 15.5421 15.1304 14.1707C16.5018 12.7994 17.2722 10.9394 17.2722 9ZM0.959717 9C0.959717 6.61305 1.90793 4.32387 3.59576 2.63604C5.28358 0.948212 7.57277 0 9.95972 0C12.3467 0 14.6359 0.948212 16.3237 2.63604C18.0115 4.32387 18.9597 6.61305 18.9597 9C18.9597 11.3869 18.0115 13.6761 16.3237 15.364C14.6359 17.0518 12.3467 18 9.95972 18C7.57277 18 5.28358 17.0518 3.59576 15.364C1.90793 13.6761 0.959717 11.3869 0.959717 9ZM6.92925 5.81133C7.20698 5.02734 7.95229 4.5 8.7855 4.5H10.8351C12.0621 4.5 13.0535 5.49492 13.0535 6.71836C13.0535 7.51289 12.6281 8.24766 11.939 8.64492L10.8035 9.29531C10.7964 9.75234 10.4203 10.125 9.95972 10.125C9.49214 10.125 9.11597 9.74883 9.11597 9.28125V8.80664C9.11597 8.5043 9.27769 8.22656 9.54136 8.07539L11.0988 7.18242C11.264 7.0875 11.366 6.91172 11.366 6.72187C11.366 6.42656 11.1269 6.19102 10.8351 6.19102H8.7855C8.66597 6.19102 8.5605 6.26484 8.52183 6.37734L8.50776 6.41953C8.35308 6.85898 7.86792 7.0875 7.43198 6.93281C6.99604 6.77812 6.76401 6.29297 6.9187 5.85703L6.93276 5.81484L6.92925 5.81133ZM8.83472 12.375C8.83472 12.0766 8.95324 11.7905 9.16422 11.5795C9.3752 11.3685 9.66135 11.25 9.95972 11.25C10.2581 11.25 10.5442 11.3685 10.7552 11.5795C10.9662 11.7905 11.0847 12.0766 11.0847 12.375C11.0847 12.6734 10.9662 12.9595 10.7552 13.1705C10.5442 13.3815 10.2581 13.5 9.95972 13.5C9.66135 13.5 9.3752 13.3815 9.16422 13.1705C8.95324 12.9595 8.83472 12.6734 8.83472 12.375Z" fill="#909090"/>
</svg>
