<svg width="60" height="60" viewBox="0 0 60 60" fill="none" xmlns="http://www.w3.org/2000/svg">
<rect width="60" height="60" fill="#E7E7E7"/>
<path d="M27.1429 8H19.5238C18.6822 8 18 8.68223 18 9.52381V17.1429C18 17.9845 18.6822 18.6667 19.5238 18.6667H27.1429C27.9845 18.6667 28.6667 17.9845 28.6667 17.1429V9.52381C28.6667 8.68223 27.9845 8 27.1429 8Z" fill="#00AE42"/>
<path d="M27.1429 21.3333H19.5238C18.6822 21.3333 18 22.0155 18 22.8571V30.4762C18 31.3178 18.6822 32 19.5238 32H27.1429C27.9845 32 28.6667 31.3178 28.6667 30.4762V22.8571C28.6667 22.0155 27.9845 21.3333 27.1429 21.3333Z" fill="#00AE42"/>
<path d="M40.4762 8H32.8571C32.0155 8 31.3333 8.68223 31.3333 9.52381V17.1429C31.3333 17.9845 32.0155 18.6667 32.8571 18.6667H40.4762C41.3178 18.6667 42 17.9845 42 17.1429V9.52381C42 8.68223 41.3178 8 40.4762 8Z" fill="#00AE42"/>
<path d="M40.4762 21.3333H32.8571C32.0155 21.3333 31.3333 22.0155 31.3333 22.8571V30.4762C31.3333 31.3178 32.0155 32 32.8571 32H40.4762C41.3178 32 42 31.3178 42 30.4762V22.8571C42 22.0155 41.3178 21.3333 40.4762 21.3333Z" fill="#00AE42"/>
</svg>
