<svg width="60" height="60" viewBox="0 0 60 60" fill="none" xmlns="http://www.w3.org/2000/svg">
<rect width="60" height="60" fill="#E7E7E7"/>
<path fill-rule="evenodd" clip-rule="evenodd" d="M20 11.4C19.6686 11.4 19.4 11.6686 19.4 12V19.4H16.6V12C16.6 10.1222 18.1222 8.6 20 8.6H40C41.8778 8.6 43.4 10.1222 43.4 12V19.4H40.6V12C40.6 11.6686 40.3314 11.4 40 11.4H20Z" fill="#C8EBD5"/>
<path fill-rule="evenodd" clip-rule="evenodd" d="M36.732 20.6V28.0667H33.932V20.6H36.732Z" fill="#C8EBD5"/>
<path fill-rule="evenodd" clip-rule="evenodd" d="M31.4 14.6V28.0667H28.6V14.6H31.4Z" fill="#C8EBD5"/>
<path fill-rule="evenodd" clip-rule="evenodd" d="M26.068 17.266V28.066H23.268V17.266H26.068Z" fill="#C8EBD5"/>
<path fill-rule="evenodd" clip-rule="evenodd" d="M19.4 24.6V32C19.4 32.3314 19.6686 32.6 20 32.6H40C40.3314 32.6 40.6 32.3314 40.6 32V24.6H43.4V32C43.4 33.8778 41.8778 35.4 40 35.4H20C18.1223 35.4 16.6 33.8778 16.6 32V24.6H19.4Z" fill="#C8EBD5"/>
</svg>
