<svg xmlns="http://www.w3.org/2000/svg" width="50" height="50" viewBox="0 0 50 50"><rect width="50" height="50" style="fill:#e9e9e9"/><path d="M18.5,7.5v-1a1,1,0,0,1,1-1h17a1,1,0,0,1,1,1v17a1,1,0,0,1-1,1h-1" style="fill:none;stroke:gray;stroke-linecap:round;stroke-linejoin:round"/><path d="M16.5,9.5v-1a1,1,0,0,1,1-1h17a1,1,0,0,1,1,1v17a1,1,0,0,1-1,1h-1" style="fill:none;stroke:gray;stroke-linecap:round;stroke-linejoin:round"/><rect x="14.5" y="9.5" width="19" height="19" rx="1" style="fill:none;stroke:gray;stroke-linecap:round;stroke-linejoin:round"/><line x1="16.5" y1="11.5" x2="16.5" y2="26.5" style="fill:none;stroke:gray;stroke-linecap:round;stroke-linejoin:round"/><line x1="31.5" y1="26.5" x2="16.5" y2="26.5" style="fill:none;stroke:gray;stroke-linecap:round;stroke-linejoin:round"/><rect x="18.406" y="17.281" width="2" height="7" rx="1" style="fill:none;stroke:#009688;stroke-linecap:round;stroke-linejoin:round"/><rect x="23.406" y="13.281" width="2" height="11" rx="1" style="fill:none;stroke:#009688;stroke-linecap:round;stroke-linejoin:round"/><rect x="28.406" y="15.281" width="2" height="9" rx="1" style="fill:none;stroke:#009688;stroke-linecap:round;stroke-linejoin:round"/></svg>