<svg xmlns="http://www.w3.org/2000/svg" width="50" height="50" viewBox="0 0 50 50"><path d="M18.5,7.5v-1a1,1,0,0,1,1-1h17a1,1,0,0,1,1,1v17a1,1,0,0,1-1,1h-1" style="fill:none;stroke:gray;stroke-linecap:round;stroke-linejoin:round"/><path d="M16.5,9.5v-1a1,1,0,0,1,1-1h17a1,1,0,0,1,1,1v17a1,1,0,0,1-1,1h-1" style="fill:none;stroke:gray;stroke-linecap:round;stroke-linejoin:round"/><rect x="14.5" y="9.5" width="19" height="19" rx="1" style="fill:none;stroke:gray;stroke-linecap:round;stroke-linejoin:round"/><circle cx="18" cy="19" r="1" style="fill:#009688"/><circle cx="24" cy="19" r="1" style="fill:#009688"/><circle cx="30" cy="19" r="1" style="fill:#009688"/></svg>