<?xml version="1.0" encoding="UTF-8"?><svg id="a" xmlns="http://www.w3.org/2000/svg" width="50" height="50" viewBox="0 0 50 50"><path d="M18.5,7.5v-1c0-.55.45-1,1-1h17c.55,0,1,.45,1,1v17c0,.55-.45,1-1,1h-1" style="fill:none; stroke:#c4c4c4; stroke-linecap:round; stroke-linejoin:round;"/><path d="M16.5,9.5v-1c0-.55.45-1,1-1h17c.55,0,1,.45,1,1v17c0,.55-.45,1-1,1h-1" style="fill:none; stroke:#c4c4c4; stroke-linecap:round; stroke-linejoin:round;"/><rect x="14.5" y="9.5" width="19" height="19" rx="1" ry="1" style="fill:none; stroke:#c4c4c4; stroke-linecap:round; stroke-linejoin:round;"/><path d="M31,19c0,3.87-3.13,7-7,7s-7-3.13-7-7,3.13-7,7-7,7,3.13,7,7ZM23,23c0,.55.45,1,1,1s1-.45,1-1-.45-1-1-1-1,.45-1,1ZM24,14c-.55,0-1,.45-1,1v5c0,.55.45,1,1,1s1-.45,1-1v-5c0-.55-.45-1-1-1Z" style="fill:#e14747;"/></svg>