<svg width="14" height="14" viewBox="0 0 14 14" fill="none" xmlns="http://www.w3.org/2000/svg">
<path d="M13.5 7C13.5 10.5899 10.5899 13.5 7 13.5C3.41015 13.5 0.5 10.5899 0.5 7C0.5 3.41015 3.41015 0.5 7 0.5C10.5899 0.5 13.5 3.41015 13.5 7Z" fill="#909090" stroke="#909090"/>
<path d="M7 11.5C6.44684 11.5 5.96085 11.396 5.54203 11.188C5.13111 10.972 4.81106 10.672 4.5819 10.288C4.36063 9.896 4.25 9.436 4.25 8.908V5.092C4.25 4.556 4.36063 4.096 4.5819 3.712C4.81106 3.328 5.13111 3.032 5.54203 2.824C5.96085 2.608 6.44684 2.5 7 2.5C7.56106 2.5 8.0431 2.608 8.44612 2.824C8.85704 3.032 9.17708 3.328 9.40625 3.712C9.63542 4.096 9.75 4.556 9.75 5.092H8.25647C8.25647 4.676 8.14583 4.36 7.92457 4.144C7.71121 3.928 7.40302 3.82 7 3.82C6.59698 3.82 6.28484 3.928 6.06358 4.144C5.84231 4.36 5.73168 4.672 5.73168 5.08V8.908C5.73168 9.316 5.84231 9.632 6.06358 9.856C6.28484 10.08 6.59698 10.192 7 10.192C7.40302 10.192 7.71121 10.08 7.92457 9.856C8.14583 9.632 8.25647 9.316 8.25647 8.908V8.02H6.78664V6.724H9.75V8.908C9.75 9.436 9.63542 9.896 9.40625 10.288C9.17708 10.672 8.85704 10.972 8.44612 11.188C8.0431 11.396 7.56106 11.5 7 11.5Z" fill="white"/>
</svg>
