<svg width="16" height="16" viewBox="0 0 16 16" fill="none" xmlns="http://www.w3.org/2000/svg">
<path d="M6.90032 11.7091C7.96458 11.7091 8.946 11.3682 9.74897 10.8001L12.7697 13.7922C12.9099 13.9311 13.0947 14.0005 13.2923 14.0005C13.7065 14.0005 13.9996 13.6849 13.9996 13.2809C13.9996 13.0915 13.9359 12.9084 13.7957 12.7759L10.7941 9.79639C11.425 8.97576 11.801 7.95946 11.801 6.85478C11.801 4.1846 9.59602 2.00049 6.90032 2.00049C4.211 2.00049 1.99963 4.17829 1.99963 6.85478C1.99963 9.52495 4.20463 11.7091 6.90032 11.7091ZM6.90032 10.6612C4.7973 10.6612 3.05752 8.93789 3.05752 6.85478C3.05752 4.77166 4.7973 3.04836 6.90032 3.04836C9.00335 3.04836 10.7431 4.77166 10.7431 6.85478C10.7431 8.93789 9.00335 10.6612 6.90032 10.6612Z" fill="#898989"/>
</svg>
