<?xml version="1.0" encoding="UTF-8" standalone="no"?>
<!-- Generator: Adobe Illustrator 24.3.0, SVG Export Plug-In . SVG Version: 6.00 Build 0)  -->

<svg
   version="1.0"
   id="Layer_1"
   x="0px"
   y="0px"
   viewBox="0 0 40 40"
   enable-background="new 0 0 128 128"
   xml:space="preserve"
   sodipodi:docname="instance_remove.svg"
   inkscape:version="1.3.2 (091e20e, 2023-11-25, custom)"
   width="40"
   height="40"
   xmlns:inkscape="http://www.inkscape.org/namespaces/inkscape"
   xmlns:sodipodi="http://sodipodi.sourceforge.net/DTD/sodipodi-0.dtd"
   xmlns="http://www.w3.org/2000/svg"
   xmlns:svg="http://www.w3.org/2000/svg"><defs
   id="defs2" /><sodipodi:namedview
   id="namedview2"
   pagecolor="#ffffff"
   bordercolor="#000000"
   borderopacity="0.25"
   inkscape:showpageshadow="2"
   inkscape:pageopacity="0.0"
   inkscape:pagecheckerboard="0"
   inkscape:deskcolor="#d1d1d1"
   inkscape:zoom="19.865281"
   inkscape:cx="14.925537"
   inkscape:cy="22.526739"
   inkscape:window-width="1920"
   inkscape:window-height="1137"
   inkscape:window-x="-6"
   inkscape:window-y="1072"
   inkscape:window-maximized="1"
   inkscape:current-layer="instance_x5F_remove" />
<g
   id="instance_x5F_remove">
	<g
   id="g1">
		<path
   fill="#FFFFFF"
   d="m 20.270256,35.5 c -0.360341,0 -0.654444,-0.28885 -0.662393,-0.649251 -0.0079,-0.3657 0.283505,-0.6678 0.649146,-0.67575 0.982991,-0.01855 1.960683,-0.1378 2.90923,-0.35245 0.355043,-0.08215 0.712735,0.1431 0.792223,0.4982 0.08214,0.35775 -0.143077,0.712851 -0.49812,0.792351 -1.035983,0.23585 -2.10641,0.3657 -3.179487,0.3869 -0.0026,0 -0.0053,0 -0.0106,0 z M 16.71453,35.13695 c -0.04769,0 -0.09803,-0.0053 -0.145727,-0.0159 -1.041282,-0.235851 -2.064017,-0.580351 -3.03641,-1.028201 -0.331196,-0.1537 -0.476923,-0.545901 -0.325897,-0.879801 0.153675,-0.33125 0.545812,-0.477 0.879658,-0.32595 0.887607,0.4081 1.822906,0.72345 2.774102,0.940751 0.357693,0.0795 0.580257,0.4346 0.50077,0.79235 -0.06889,0.3074 -0.344445,0.516751 -0.646496,0.516751 z m 9.965043,-1.219001 c -0.241111,0 -0.474274,-0.1325 -0.590855,-0.363051 -0.164274,-0.32595 -0.03444,-0.7261 0.291453,-0.8904 0.871709,-0.439901 1.701026,-0.972551 2.464103,-1.584701 0.286153,-0.2279 0.702136,-0.18285 0.93,0.10335 0.227863,0.2862 0.18282,0.70225 -0.103334,0.93015 -0.834615,0.667801 -1.743419,1.250801 -2.694615,1.730452 -0.09539,0.053 -0.198718,0.0742 -0.296752,0.0742 z M 10.76359,32.277598 c -0.145727,0 -0.291453,-0.0477 -0.413334,-0.143101 -0.834615,-0.66515 -1.6056406,-1.420401 -2.2865808,-2.241901 -0.2331624,-0.2809 -0.1934188,-0.699601 0.087436,-0.932801 0.2808547,-0.2332 0.6994872,-0.1961 0.9326498,0.08745 0.622649,0.752601 1.327436,1.441601 2.093162,2.051102 0.286154,0.2279 0.333846,0.64395 0.105983,0.93015 -0.129829,0.1643 -0.323248,0.249101 -0.519316,0.249101 z m 20.997863,-2.567852 c -0.140427,0 -0.283504,-0.04505 -0.402735,-0.1378 -0.288803,-0.222601 -0.344444,-0.638651 -0.12188,-0.930151 0.596153,-0.776451 1.11547,-1.613851 1.539401,-2.493652 0.158975,-0.3286 0.556411,-0.46905 0.884958,-0.31005 0.328547,0.159 0.468974,0.55385 0.31,0.885101 -0.463676,0.96195 -1.030684,1.878851 -1.682479,2.726852 -0.132479,0.17225 -0.328547,0.2597 -0.527265,0.2597 z M 6.6408547,27.125994 c -0.2464103,0 -0.4822222,-0.1378 -0.5961538,-0.37365 -0.4663248,-0.961951 -0.8319659,-1.976902 -1.0889744,-3.013053 -0.087436,-0.3551 0.1298291,-0.7155 0.4848718,-0.80295 0.3550427,-0.08745 0.7153846,0.12985 0.8028205,0.48495 0.235812,0.948701 0.5696581,1.873552 0.9962393,2.753352 0.1589744,0.3286 0.021197,0.726101 -0.3073504,0.885101 -0.095385,0.04505 -0.1960684,0.06625 -0.291453,0.06625 z M 34.524957,23.712791 c -0.04504,0 -0.09009,-0.0053 -0.135128,-0.01325 -0.357692,-0.0742 -0.588205,-0.42665 -0.514017,-0.7844 0.198718,-0.951351 0.299402,-1.931852 0.299402,-2.915002 v -0.06095 c 0,-0.365701 0.296752,-0.662501 0.662393,-0.662501 0.365641,0 0.662393,0.2968 0.662393,0.662501 v 0.053 c 0,1.0812 -0.111282,2.151801 -0.328547,3.193252 -0.06359,0.3127 -0.339145,0.52735 -0.646496,0.52735 z M 5.1623932,20.694439 C 4.7967521,20.694439 4.5,20.397639 4.5,20.031939 v -0.0318 c 0,-1.062651 0.1086325,-2.122652 0.3205983,-3.153503 0.074188,-0.35775 0.4239316,-0.5883 0.7816239,-0.5141 0.3576923,0.0742 0.5882052,0.424 0.5140171,0.781751 -0.1934188,0.9434 -0.291453,1.913301 -0.291453,2.885852 v 0.0318 c 0,0.3657 -0.2967521,0.6625 -0.6623931,0.6625 z M 34.395128,17.053337 c -0.296752,0 -0.567008,-0.201401 -0.641196,-0.500851 -0.235812,-0.94605 -0.574958,-1.873551 -1.001539,-2.753352 -0.161624,-0.3286 -0.02385,-0.7261 0.304701,-0.8851 0.328547,-0.159 0.725983,-0.02385 0.884957,0.30475 0.468975,0.961951 0.837265,1.974251 1.096923,3.010402 0.08744,0.3551 -0.127179,0.715501 -0.482222,0.802951 -0.05299,0.01325 -0.108632,0.0212 -0.161624,0.0212 z M 6.614359,14.254935 c -0.095385,0 -0.1934188,-0.0212 -0.2861539,-0.06625 -0.3311966,-0.159001 -0.4689743,-0.553851 -0.31,-0.885101 0.4610257,-0.961951 1.0253846,-1.881501 1.6771795,-2.729502 0.2225641,-0.28885 0.638547,-0.3445 0.93,-0.1219 0.291453,0.2226 0.3444445,0.63865 0.1218804,0.930151 -0.5961539,0.77645 -1.1128206,1.616501 -1.5341026,2.496301 -0.1165812,0.235851 -0.3523932,0.376301 -0.5988034,0.376301 z M 31.40641,11.170332 c -0.190769,0 -0.378889,-0.08215 -0.508718,-0.2385 -0.625299,-0.7526 -1.332735,-1.4416008 -2.098461,-2.048451 -0.286154,-0.2279002 -0.333846,-0.6439505 -0.108633,-0.9301507 0.227864,-0.2862002 0.643846,-0.3339003 0.93,-0.1086501 0.837265,0.6625005 1.608291,1.415101 2.291881,2.2366018 0.233162,0.2809 0.196068,0.6996 -0.08479,0.9328 -0.12188,0.106 -0.272906,0.15635 -0.421282,0.15635 z M 10.718547,9.0847812 c -0.193419,0 -0.386838,-0.0848 -0.516667,-0.2491003 C 9.974017,8.5494807 10.01906,8.1334304 10.302564,7.9055302 11.137179,7.2350798 12.040684,6.6520794 12.99453,6.169779 13.320427,6.0028289 13.720513,6.135329 13.884786,6.4612792 14.04906,6.7872294 13.919226,7.1873797 13.593333,7.3516799 12.724274,7.7942302 11.894957,8.3295306 11.13188,8.941681 11.01,9.0370812 10.864274,9.0847812 10.718547,9.0847812 Z M 26.160256,7.1582297 c -0.09274,0 -0.18547,-0.01855 -0.275555,-0.06095 -0.890257,-0.4054503 -1.822906,-0.7208005 -2.776752,-0.9328007 -0.357693,-0.0795 -0.582906,-0.4346003 -0.50077,-0.7923506 0.07949,-0.3577502 0.43453,-0.5830004 0.792223,-0.5008503 1.043931,0.2332001 2.064017,0.5777004 3.03641,1.0229007 0.333846,0.1510501 0.479573,0.5459004 0.325897,0.8771506 -0.108632,0.2438002 -0.349743,0.3869003 -0.601453,0.3869003 z M 16.65359,6.201579 c -0.302052,0 -0.574958,-0.2067001 -0.643846,-0.5141003 -0.08214,-0.3577503 0.140427,-0.7128506 0.498119,-0.7950006 1.035983,-0.2385002 2.106411,-0.3710003 3.179487,-0.3922003 0.365641,-0.0106 0.667693,0.2835502 0.675641,0.6492505 0.0079,0.3657002 -0.283504,0.6678005 -0.649145,0.6757505 -0.980342,0.01855 -1.958034,0.1404501 -2.906581,0.3577502 -0.05299,0.01325 -0.103333,0.01855 -0.153675,0.01855 z"
   id="path1"
   style="fill:#2b3436;fill-opacity:1;stroke-width:0.264979" />
	</g>
	<g
   id="g2"
   transform="matrix(0.26521739,0,0,0.26,3.076087,3.41)">
		<path
   fill="#ED6B21"
   d="M 96,66.5 H 32 c -1.38,0 -2.5,-1.12 -2.5,-2.5 0,-1.38 1.12,-2.5 2.5,-2.5 h 64 c 1.38,0 2.5,1.12 2.5,2.5 0,1.38 -1.12,2.5 -2.5,2.5 z"
   id="path2"
   style="fill:#009688;fill-opacity:1" />
	</g>
</g>
</svg>
