<svg width="24" height="301" viewBox="0 0 24 301" fill="none" xmlns="http://www.w3.org/2000/svg">
<g clip-path="url(#clip0_20097_67555)">
<path d="M0.967551 261.957L0.967551 259.432L15.9764 259.432L15.9764 251.125L18.2419 251.125L18.2419 261.957L0.967551 261.957Z" fill="#C0C0C0"/>
<path d="M5.71091 243.98C5.71091 242.911 5.96264 241.975 6.46608 241.172C6.95379 240.37 7.63029 239.748 8.49558 239.308C9.34513 238.867 10.3048 238.647 11.3746 238.647C11.7365 238.647 12.1691 238.686 12.6726 238.765L12.6726 247.355C13.8997 247.261 14.8279 246.883 15.4572 246.222C16.0708 245.562 16.3776 244.736 16.3776 243.744C16.3776 242.454 15.8427 241.518 14.7729 240.936L15.8348 239.119C16.6844 239.434 17.3451 240.032 17.8171 240.913C18.2734 241.794 18.5015 242.777 18.5015 243.862C18.5015 244.979 18.2576 245.994 17.7699 246.907C17.2665 247.819 16.527 248.551 15.5516 249.101C14.5762 249.636 13.412 249.904 12.059 249.904C10.7375 249.904 9.59685 249.636 8.63717 249.101C7.67748 248.551 6.95379 247.827 6.46608 246.93C5.96264 246.018 5.71091 245.035 5.71091 243.98ZM7.83481 244.075C7.83481 244.877 8.0944 245.577 8.61357 246.175C9.11701 246.757 9.85644 247.127 10.8319 247.284L10.8319 241.196C9.88791 241.259 9.15634 241.55 8.63717 242.069C8.10226 242.588 7.83481 243.257 7.83481 244.075Z" fill="#C0C0C0"/>
<path d="M2.21829 231.1C2.21829 231.729 2.43068 232.209 2.85546 232.54C3.28024 232.854 4.0118 233.012 5.05015 233.012L5.9941 233.012L5.9941 229.826L8.0472 229.826L8.0472 233.012L18.2419 233.012L18.2419 235.442L8.0472 235.442L8.0472 237.566L5.9941 237.566L5.9941 235.442L4.97935 235.442C3.28024 235.442 2.0295 235.049 1.22714 234.262C0.409049 233.476 2.66813e-06 232.469 2.82904e-06 231.242C2.90332e-06 230.675 0.0786665 230.164 0.235993 229.708C0.393318 229.252 0.597842 228.89 0.849562 228.622L2.69027 229.566C2.37562 230.022 2.21829 230.534 2.21829 231.1Z" fill="#C0C0C0"/>
<path d="M17.7463 220.195C18.2498 220.887 18.5015 221.808 18.5015 222.956C18.5015 224.121 18.179 225.072 17.5339 225.812C16.8889 226.535 15.7404 226.897 14.0885 226.897L8.0708 226.897L8.0708 228.974L5.9941 228.974L5.9941 226.897L2.45428 226.897L2.45428 224.49L5.9941 224.49L5.9941 220.88L8.0708 220.88L8.0708 224.49L13.7581 224.49C15.4572 224.49 16.3068 223.861 16.3068 222.602C16.3068 222.036 16.1573 221.509 15.8584 221.021L17.7463 220.195Z" fill="#C0C0C0"/>
<path d="M5.71092 205.723C5.71092 204.401 6.14357 203.347 7.00886 202.56C7.87415 201.774 9.12488 201.381 10.7611 201.381L18.2419 201.381L18.2419 203.811L11.4926 203.811C10.3599 203.811 9.48673 204.024 8.87316 204.448C8.25959 204.873 7.95281 205.518 7.95281 206.383C7.95281 207.265 8.26746 208.02 8.89676 208.649C9.51033 209.263 10.3914 209.569 11.5398 209.569L18.2419 209.569L18.2419 212L5.99411 212L5.99411 209.853C6.765 209.821 7.43363 209.774 8.00001 209.711C7.24484 209.302 6.67847 208.759 6.30089 208.083C5.90758 207.39 5.71092 206.604 5.71092 205.723Z" fill="#C0C0C0"/>
<path d="M12.1062 198.834C10.8633 198.834 9.75418 198.559 8.77877 198.008C7.80335 197.458 7.04819 196.726 6.51328 195.814C5.97838 194.886 5.71092 193.887 5.71092 192.817C5.71092 191.763 5.97838 190.779 6.51328 189.867C7.04819 188.954 7.80335 188.223 8.77877 187.672C9.75419 187.122 10.8633 186.846 12.1062 186.846C13.3491 186.846 14.4582 187.122 15.4336 187.672C16.4091 188.223 17.1642 188.954 17.6991 189.867C18.234 190.779 18.5015 191.763 18.5015 192.817C18.5015 193.887 18.234 194.886 17.6991 195.814C17.1642 196.726 16.409 197.458 15.4336 198.008C14.4582 198.559 13.3491 198.834 12.1062 198.834ZM12.1062 196.286C13.3963 196.286 14.4189 195.963 15.174 195.318C15.9292 194.657 16.3068 193.832 16.3068 192.84C16.3068 191.833 15.9292 191.008 15.174 190.362C14.4189 189.717 13.3963 189.395 12.1062 189.395C10.8161 189.395 9.79352 189.725 9.03836 190.386C8.28319 191.031 7.90561 191.849 7.90561 192.84C7.90561 193.832 8.28319 194.657 9.03835 195.318C9.79352 195.963 10.8161 196.286 12.1062 196.286Z" fill="#C0C0C0"/>
<path d="M6.01771 176.149L7.33924 176.149L16.236 182.402L16.236 175.865L18.2419 175.865L18.2419 185.659L16.8732 185.659L8.00001 179.382L8.00001 185.258L6.01771 185.258L6.01771 176.149Z" fill="#C0C0C0"/>
<path d="M6.01771 164.902L7.33924 164.902L16.236 171.156L16.236 164.619L18.2419 164.619L18.2419 174.413L16.8732 174.413L8.00001 168.135L8.00001 174.011L6.01771 174.011L6.01771 164.902Z" fill="#C0C0C0"/>
<path d="M18.2419 159.744L18.2419 162.175L0.283198 162.175L0.283199 159.744L18.2419 159.744Z" fill="#C0C0C0"/>
<path d="M5.71093 151.083C5.71093 150.013 5.96265 149.077 6.46609 148.275C6.9538 147.473 7.6303 146.851 8.49559 146.411C9.34515 145.97 10.3048 145.75 11.3746 145.75C11.7365 145.75 12.1691 145.789 12.6726 145.868L12.6726 154.458C13.8997 154.363 14.8279 153.986 15.4572 153.325C16.0708 152.664 16.3776 151.838 16.3776 150.847C16.3776 149.557 15.8427 148.621 14.7729 148.039L15.8348 146.222C16.6844 146.536 17.3451 147.134 17.8171 148.015C18.2734 148.896 18.5015 149.88 18.5015 150.965C18.5015 152.082 18.2576 153.097 17.7699 154.009C17.2665 154.922 16.527 155.653 15.5516 156.204C14.5762 156.739 13.412 157.006 12.059 157.006C10.7375 157.006 9.59686 156.739 8.63718 156.204C7.67749 155.653 6.9538 154.93 6.46609 154.033C5.96265 153.121 5.71093 152.137 5.71093 151.083ZM7.83482 151.178C7.83482 151.98 8.09441 152.68 8.61358 153.278C9.11702 153.86 9.85645 154.23 10.8319 154.387L10.8319 148.299C9.88792 148.361 9.15635 148.652 8.63718 149.172C8.10227 149.691 7.83482 150.359 7.83482 151.178Z" fill="#C0C0C0"/>
<path d="M12.1062 137.671C10.8633 137.671 9.75419 137.396 8.77878 136.845C7.80336 136.295 7.0482 135.563 6.51329 134.65C5.97838 133.722 5.71093 132.723 5.71093 131.653C5.71093 130.599 5.97838 129.616 6.51329 128.704C7.0482 127.791 7.80336 127.06 8.77878 126.509C9.75419 125.958 10.8633 125.683 12.1062 125.683C13.3491 125.683 14.4582 125.958 15.4336 126.509C16.4091 127.06 17.1642 127.791 17.6991 128.704C18.234 129.616 18.5015 130.599 18.5015 131.653C18.5015 132.723 18.234 133.722 17.6991 134.65C17.1642 135.563 16.4091 136.295 15.4336 136.845C14.4582 137.396 13.3491 137.671 12.1062 137.671ZM12.1062 135.122C13.3963 135.122 14.4189 134.8 15.1741 134.155C15.9292 133.494 16.3068 132.668 16.3068 131.677C16.3068 130.67 15.9292 129.844 15.1741 129.199C14.4189 128.554 13.3963 128.232 12.1062 128.232C10.8161 128.232 9.79353 128.562 9.03836 129.223C8.2832 129.868 7.90562 130.686 7.90562 131.677C7.90562 132.668 8.2832 133.494 9.03836 134.155C9.79352 134.8 10.8161 135.122 12.1062 135.122Z" fill="#C0C0C0"/>
<path d="M5.71093 116.674C5.71093 115.353 6.14358 114.298 7.00887 113.512C7.87416 112.725 9.12489 112.332 10.7611 112.332L18.2419 112.332L18.2419 114.763L11.4926 114.763C10.3599 114.763 9.48674 114.975 8.87317 115.4C8.2596 115.825 7.95282 116.47 7.95282 117.335C7.95282 118.216 8.26747 118.971 8.89677 119.6C9.51034 120.214 10.3914 120.521 11.5398 120.521L18.2419 120.521L18.2419 122.951L5.99412 122.951L5.99412 120.804C6.76501 120.772 7.43365 120.725 8.00002 120.662C7.24485 120.253 6.67848 119.71 6.3009 119.034C5.90759 118.342 5.71093 117.555 5.71093 116.674Z" fill="#C0C0C0"/>
<path d="M18.2419 106.647L18.2419 109.078L0.283207 109.078L0.283207 106.647L18.2419 106.647Z" fill="#C0C0C0"/>
<path d="M5.99412 94.9888L5.99412 92.4637L20.2714 98.1274C21.6087 98.6466 22.5605 99.2287 23.1269 99.8738C23.709 100.503 24 101.353 24 102.422C24 103.445 23.7326 104.271 23.1977 104.9L21.2862 103.956C21.6165 103.516 21.7817 103.005 21.7817 102.422C21.7817 101.919 21.6087 101.502 21.2626 101.172C20.9322 100.826 20.2793 100.448 19.3039 100.039L18.3835 99.6378L5.99412 104.806L5.99412 102.045L15.3864 98.4106L5.99412 94.9888Z" fill="#C0C0C0"/>
<path d="M5.71094 79.3271C5.71094 77.864 6.14358 76.6841 7.00887 75.7873C7.87416 74.8748 9.11703 74.4186 10.7375 74.4186L18.2419 74.4186L18.2419 76.5189C17.5339 76.5503 17.0305 76.5897 16.7316 76.6369C17.9115 77.392 18.5015 78.6034 18.5015 80.2711C18.5015 81.0892 18.352 81.8443 18.0531 82.5366C17.7542 83.2131 17.3216 83.7558 16.7552 84.1649C16.1888 84.5739 15.5044 84.7784 14.7021 84.7784C13.4907 84.7784 12.531 84.2829 11.823 83.2917C11.1151 82.3006 10.7611 81.0341 10.7611 79.4923C10.7611 78.627 10.8791 77.7381 11.1151 76.8256L11.0679 76.8256C9.95086 76.8256 9.13276 77.0459 8.61359 77.4864C8.07868 77.9269 7.81123 78.5877 7.81123 79.4687C7.81123 80.1767 7.96856 80.7745 8.28321 81.2622C8.58213 81.7342 9.02264 82.1354 9.60474 82.4658L8.56639 84.2593C7.7011 83.866 7.00887 83.2288 6.4897 82.3478C5.97052 81.4667 5.71094 80.4599 5.71094 79.3271ZM12.9558 76.8256C12.7198 77.7696 12.6018 78.5956 12.6018 79.3035C12.6018 80.2475 12.7827 80.979 13.1446 81.4982C13.5064 82.0174 14.0099 82.277 14.6549 82.277C15.237 82.277 15.7011 82.0646 16.0472 81.6398C16.3776 81.215 16.5428 80.6565 16.5428 79.9643C16.5428 79.099 16.2989 78.3596 15.8112 77.746C15.3078 77.1324 14.6156 76.8256 13.7345 76.8256L12.9558 76.8256Z" fill="#C0C0C0"/>
<path d="M5.71094 65.5747C5.71094 65.1657 5.766 64.7881 5.87613 64.442C5.98626 64.0801 6.13572 63.7969 6.32451 63.5924L8.23601 64.5128C8.01576 64.8746 7.90563 65.2758 7.90563 65.7163C7.90563 66.6131 8.27534 67.3446 9.01477 67.911C9.7542 68.4616 10.8083 68.737 12.177 68.737L18.2419 68.737L18.2419 71.1677L5.99412 71.1676L5.99412 69.0202C6.74929 68.9887 7.41005 68.9415 7.97642 68.8786C7.22126 68.5167 6.65489 68.0605 6.27731 67.5098C5.89973 66.9435 5.71094 66.2984 5.71094 65.5747Z" fill="#C0C0C0"/>
<path d="M5.71094 57.4945C5.71094 56.4247 5.96266 55.4886 6.4661 54.6863C6.95381 53.8839 7.63031 53.2625 8.4956 52.822C9.34516 52.3814 10.3048 52.1612 11.3747 52.1612C11.7365 52.1612 12.1691 52.2005 12.6726 52.2792L12.6726 60.8692C13.8997 60.7748 14.8279 60.3972 15.4572 59.7364C16.0708 59.0757 16.3776 58.2497 16.3776 57.2585C16.3776 55.9685 15.8427 55.0324 14.7729 54.4503L15.8348 52.6332C16.6844 52.9478 17.3452 53.5457 17.8171 54.4267C18.2734 55.3077 18.5015 56.291 18.5015 57.3765C18.5015 58.4935 18.2576 59.5083 17.7699 60.4208C17.2665 61.3333 16.5271 62.0648 15.5516 62.6155C14.5762 63.1504 13.412 63.4178 12.059 63.4178C10.7375 63.4178 9.59688 63.1504 8.63719 62.6155C7.67751 62.0648 6.95381 61.3411 6.4661 60.4444C5.96266 59.5319 5.71094 58.5486 5.71094 57.4945ZM7.83483 57.5889C7.83483 58.3913 8.09442 59.0914 8.61359 59.6892C9.11704 60.2713 9.85646 60.641 10.8319 60.7984L10.8319 54.7099C9.88793 54.7728 9.15637 55.0639 8.63719 55.583C8.10229 56.1022 7.83483 56.7708 7.83483 57.5889Z" fill="#C0C0C0"/>
<path d="M5.71094 44.8738C5.71094 43.4106 6.14359 42.2307 7.00888 41.334C7.87417 40.4215 9.11704 39.9652 10.7375 39.9652L18.2419 39.9652L18.2419 42.0655C17.5339 42.097 17.0305 42.1363 16.7316 42.1835C17.9115 42.9387 18.5015 44.1501 18.5015 45.8177C18.5015 46.6358 18.352 47.391 18.0531 48.0832C17.7542 48.7597 17.3216 49.3025 16.7552 49.7115C16.1888 50.1206 15.5044 50.3251 14.7021 50.3251C13.4907 50.3251 12.531 49.8295 11.823 48.8384C11.1151 47.8472 10.7611 46.5808 10.7611 45.039C10.7611 44.1737 10.8791 43.2848 11.1151 42.3723L11.0679 42.3723C9.95086 42.3723 9.13277 42.5926 8.6136 43.0331C8.07869 43.4736 7.81124 44.1343 7.81124 45.0154C7.81124 45.7233 7.96856 46.3212 8.28321 46.8089C8.58213 47.2808 9.02264 47.682 9.60475 48.0124L8.5664 49.8059C7.70111 49.4126 7.00888 48.7754 6.4897 47.8944C5.97053 47.0134 5.71094 46.0065 5.71094 44.8738ZM12.9558 42.3723C12.7198 43.3163 12.6018 44.1422 12.6018 44.8502C12.6018 45.7941 12.7827 46.5257 13.1446 47.0449C13.5064 47.564 14.0099 47.8236 14.6549 47.8236C15.237 47.8236 15.7011 47.6112 16.0472 47.1865C16.3776 46.7617 16.5428 46.2032 16.5428 45.5109C16.5428 44.6457 16.2989 43.9062 15.8112 43.2927C15.3078 42.6791 14.6156 42.3723 13.7345 42.3723L12.9558 42.3723Z" fill="#C0C0C0"/>
</g>
<defs>
<clipPath id="clip0_20097_67555">
<rect width="24" height="300" fill="white" transform="translate(0 0.960938)"/>
</clipPath>
</defs>
</svg>
