<svg width="25" height="248" viewBox="0 0 25 248" fill="none" xmlns="http://www.w3.org/2000/svg">
<path d="M6.02344 5.02516C6.02344 3.56202 6.45609 2.38206 7.32139 1.48529C8.18669 0.572793 9.42957 0.116545 11.05 0.116545L18.5546 0.116544L18.5546 2.21687C17.8466 2.24833 17.3431 2.28766 17.0442 2.33486C18.2242 3.09003 18.8142 4.30145 18.8142 5.96912C18.8142 6.78722 18.6647 7.54239 18.3658 8.23463C18.0668 8.91114 17.6342 9.45393 17.0678 9.86298C16.5014 10.272 15.8171 10.4766 15.0147 10.4766C13.8033 10.4766 12.8436 9.98097 12.1356 8.98981C11.4276 7.99865 11.0736 6.73216 11.0736 5.19036C11.0736 4.32506 11.1916 3.43615 11.4276 2.52365L11.3804 2.52365C10.2634 2.52365 9.44531 2.74392 8.92613 3.18444C8.39121 3.62496 8.12376 4.28572 8.12376 5.16675C8.12376 5.87473 8.28109 6.47258 8.59574 6.96029C8.89466 7.43227 9.33518 7.83346 9.91729 8.16385L8.87893 9.95738C8.01363 9.56406 7.32139 8.92689 6.80221 8.04585C6.28303 7.16482 6.02344 6.15792 6.02344 5.02516ZM13.2684 2.52365C13.0324 3.46762 12.9144 4.29359 12.9144 5.00156C12.9144 5.94553 13.0953 6.67709 13.4572 7.19627C13.819 7.71545 14.3225 7.97505 14.9675 7.97505C15.5496 7.97505 16.0137 7.76266 16.3598 7.33788C16.6902 6.9131 16.8554 6.35457 16.8554 5.66233C16.8554 4.79703 16.6116 4.0576 16.1239 3.44402C15.6204 2.83044 14.9282 2.52365 14.0471 2.52365L13.2684 2.52365Z" fill="#C0C0C0"/>
<path d="M6.02344 17.6469C6.02344 16.5771 6.27516 15.641 6.77861 14.8386C7.26632 14.0363 7.94283 13.4148 8.80813 12.9743C9.6577 12.5338 10.6174 12.3135 11.6872 12.3135C12.0491 12.3135 12.4817 12.3529 12.9852 12.4315L12.9852 21.0216C14.2123 20.9272 15.1406 20.5496 15.7699 19.8888C16.3834 19.2281 16.6902 18.4021 16.6902 17.4109C16.6902 16.1209 16.1553 15.1848 15.0855 14.6027L16.1475 12.7855C16.997 13.1002 17.6578 13.698 18.1298 14.5791C18.586 15.4601 18.8142 16.4434 18.8142 17.5289C18.8142 18.646 18.5703 19.6607 18.0826 20.5732C17.5791 21.4857 16.8397 22.2173 15.8643 22.7679C14.8888 23.3028 13.7246 23.5703 12.3716 23.5703C11.05 23.5703 9.90942 23.3028 8.94973 22.7679C7.99003 22.2173 7.26632 21.4936 6.77861 20.5968C6.27516 19.6843 6.02344 18.701 6.02344 17.6469ZM8.14736 17.7413C8.14736 18.5437 8.40695 19.2438 8.92613 19.8416C9.42957 20.4238 10.169 20.7935 11.1444 20.9508L11.1444 14.8622C10.2005 14.9252 9.46891 15.2162 8.94973 15.7354C8.41481 16.2546 8.14736 16.9232 8.14736 17.7413Z" fill="#C0C0C0"/>
<path d="M6.02344 25.7273C6.02344 25.3183 6.0785 24.9407 6.18863 24.5946C6.29876 24.2327 6.44822 23.9495 6.63701 23.745L8.54854 24.6654C8.32828 25.0272 8.21815 25.4284 8.21815 25.8689C8.21815 26.7657 8.58787 27.4973 9.32731 28.0636C10.0668 28.6143 11.1208 28.8896 12.4896 28.8896L18.5546 28.8896L18.5546 31.3203L6.30663 31.3203L6.30663 29.1728C7.0618 29.1413 7.72257 29.0941 8.28895 29.0312C7.53378 28.6693 6.9674 28.2131 6.58982 27.6625C6.21223 27.0961 6.02344 26.451 6.02344 25.7273Z" fill="#C0C0C0"/>
<path d="M6.02344 39.4783C6.02344 38.0151 6.45609 36.8352 7.32139 35.9384C8.18669 35.0259 9.42957 34.5697 11.05 34.5697L18.5546 34.5697L18.5546 36.67C17.8466 36.7015 17.3431 36.7408 17.0442 36.788C18.2242 37.5432 18.8142 38.7546 18.8142 40.4222C18.8142 41.2403 18.6647 41.9955 18.3658 42.6878C18.0668 43.3643 17.6342 43.9071 17.0678 44.3161C16.5014 44.7252 15.8171 44.9297 15.0147 44.9297C13.8033 44.9297 12.8436 44.4341 12.1356 43.4429C11.4276 42.4518 11.0736 41.1853 11.0736 39.6435C11.0736 38.7782 11.1916 37.8893 11.4276 36.9768L11.3804 36.9768C10.2634 36.9768 9.44531 37.197 8.92613 37.6376C8.39121 38.0781 8.12376 38.7388 8.12376 39.6199C8.12376 40.3279 8.28109 40.9257 8.59574 41.4134C8.89466 41.8854 9.33518 42.2866 9.91729 42.617L8.87893 44.4105C8.01363 44.0172 7.32139 43.38 6.80221 42.499C6.28303 41.6179 6.02344 40.611 6.02344 39.4783ZM13.2684 36.9768C13.0324 37.9207 12.9144 38.7467 12.9144 39.4547C12.9144 40.3987 13.0953 41.1302 13.4572 41.6494C13.819 42.1686 14.3225 42.4282 14.9675 42.4282C15.5496 42.4282 16.0137 42.2158 16.3598 41.791C16.6902 41.3662 16.8554 40.8077 16.8554 40.1155C16.8554 39.2502 16.6116 38.5107 16.1239 37.8971C15.6204 37.2836 14.9282 36.9768 14.0471 36.9768L13.2684 36.9768Z" fill="#C0C0C0"/>
<path d="M6.30664 55.1431L6.30664 52.618L20.5841 58.2817C21.9214 58.8009 22.8732 59.383 23.4396 60.0281C24.0217 60.6574 24.3128 61.507 24.3128 62.5768C24.3128 63.5994 24.0453 64.4254 23.5104 65.0547L21.5989 64.1107C21.9292 63.6702 22.0944 63.1589 22.0944 62.5768C22.0944 62.0733 21.9214 61.6564 21.5753 61.326C21.2449 60.9799 20.592 60.6023 19.6165 60.1933L18.6962 59.7921L6.30664 64.9603L6.30664 62.1992L15.6991 58.5649L6.30664 55.1431Z" fill="#C0C0C0"/>
<path d="M18.5546 66.7998L18.5546 69.2305L0.595703 69.2305L0.595703 66.7998L18.5546 66.7998Z" fill="#C0C0C0"/>
<path d="M6.02344 76.8242C6.02344 75.5026 6.45609 74.4486 7.32139 73.6619C8.18669 72.8753 9.43744 72.482 11.0736 72.482L18.5546 72.482L18.5546 74.9127L11.8052 74.9127C10.6725 74.9127 9.79929 75.1251 9.18572 75.5498C8.57214 75.9746 8.26535 76.6197 8.26535 77.485C8.26535 78.366 8.58001 79.1212 9.20932 79.7505C9.82289 80.3641 10.7039 80.6709 11.8524 80.6709L18.5546 80.6709L18.5546 83.1016L6.30663 83.1016L6.30663 80.954C7.07753 80.9226 7.74617 80.8754 8.31255 80.8124C7.55738 80.4034 6.991 79.8606 6.61341 79.1841C6.2201 78.4919 6.02344 77.7052 6.02344 76.8242Z" fill="#C0C0C0"/>
<path d="M12.4188 97.8242C11.1759 97.8242 10.0668 97.5489 9.09132 96.9983C8.11589 96.4476 7.36072 95.716 6.82581 94.8035C6.29089 93.8753 6.02344 92.8763 6.02344 91.8065C6.02344 90.7524 6.29089 89.7691 6.82581 88.8566C7.36072 87.9441 8.11589 87.2125 9.09132 86.6618C10.0668 86.1112 11.1759 85.8359 12.4188 85.8359C13.6617 85.8359 14.7708 86.1112 15.7463 86.6618C16.7217 87.2125 17.4769 87.9441 18.0118 88.8566C18.5467 89.7691 18.8142 90.7524 18.8142 91.8065C18.8142 92.8763 18.5467 93.8753 18.0118 94.8035C17.4769 95.716 16.7217 96.4476 15.7463 96.9983C14.7708 97.5489 13.6617 97.8242 12.4188 97.8242ZM12.4188 95.2755C13.7089 95.2755 14.7315 94.953 15.4867 94.3079C16.2419 93.6472 16.6194 92.8212 16.6194 91.83C16.6194 90.8231 16.2419 89.9972 15.4867 89.3521C14.7315 88.7071 13.7089 88.3846 12.4188 88.3846C11.1287 88.3846 10.1061 88.715 9.35091 89.3757C8.59574 90.0208 8.21815 90.8389 8.21815 91.83C8.21815 92.8212 8.59574 93.6472 9.35091 94.3079C10.1061 94.953 11.1287 95.2755 12.4188 95.2755Z" fill="#C0C0C0"/>
<path d="M6.02344 107.126C6.02344 106.717 6.0785 106.339 6.18863 105.993C6.29876 105.631 6.44822 105.348 6.63701 105.143L8.54854 106.064C8.32828 106.426 8.21815 106.827 8.21815 107.267C8.21815 108.164 8.58787 108.896 9.32731 109.462C10.0668 110.013 11.1208 110.288 12.4896 110.288L18.5546 110.288L18.5546 112.719L6.30663 112.719L6.30663 110.571C7.0618 110.54 7.72257 110.493 8.28895 110.43C7.53378 110.068 6.9674 109.612 6.58982 109.061C6.21223 108.495 6.02344 107.849 6.02344 107.126Z" fill="#C0C0C0"/>
<path d="M6.02344 120.479C6.02344 119.409 6.27516 118.473 6.77861 117.671C7.26632 116.868 7.94283 116.247 8.80813 115.806C9.6577 115.366 10.6174 115.146 11.6872 115.146C12.0491 115.146 12.4817 115.185 12.9852 115.264L12.9852 123.854C14.2123 123.759 15.1406 123.382 15.7699 122.721C16.3834 122.06 16.6902 121.234 16.6902 120.243C16.6902 118.953 16.1553 118.017 15.0855 117.435L16.1475 115.618C16.997 115.932 17.6578 116.53 18.1298 117.411C18.586 118.292 18.8142 119.275 18.8142 120.361C18.8142 121.478 18.5703 122.493 18.0826 123.405C17.5791 124.318 16.8397 125.049 15.8643 125.6C14.8888 126.135 13.7246 126.402 12.3716 126.402C11.05 126.402 9.90942 126.135 8.94973 125.6C7.99003 125.049 7.26632 124.326 6.77861 123.429C6.27516 122.516 6.02344 121.533 6.02344 120.479ZM8.14736 120.573C8.14736 121.376 8.40695 122.076 8.92613 122.674C9.42957 123.256 10.169 123.626 11.1444 123.783L11.1444 117.694C10.2005 117.757 9.46891 118.048 8.94973 118.567C8.41481 119.087 8.14736 119.755 8.14736 120.573Z" fill="#C0C0C0"/>
<path d="M0.595703 131.553L0.595703 129.146L18.5546 129.146L18.5546 131.27C17.4848 131.349 16.8162 131.404 16.5487 131.435C17.3039 131.876 17.8702 132.458 18.2478 133.182C18.6254 133.89 18.8142 134.645 18.8142 135.447C18.8142 136.407 18.5625 137.304 18.059 138.137C17.5556 138.971 16.824 139.64 15.8643 140.143C14.8889 140.647 13.7404 140.898 12.4189 140.898C11.113 140.898 9.98028 140.647 9.02058 140.143C8.04515 139.64 7.30572 138.971 6.80227 138.137C6.28309 137.304 6.0235 136.407 6.0235 135.447C6.0235 134.676 6.19656 133.952 6.54268 133.276C6.8888 132.584 7.40011 132.009 8.07662 131.553L0.595703 131.553ZM16.6431 135.046C16.6431 134.086 16.297 133.268 15.6047 132.592C14.9125 131.899 13.8505 131.553 12.4189 131.553C11.0029 131.553 9.95668 131.899 9.28017 132.592C8.60367 133.268 8.26541 134.086 8.26541 135.046C8.26541 136.053 8.62727 136.863 9.35097 137.477C10.0747 138.074 11.0973 138.373 12.4189 138.373C13.7561 138.373 14.7945 138.074 15.5339 137.477C16.2734 136.863 16.6431 136.053 16.6431 135.046Z" fill="#C0C0C0"/>
<path d="M6.30664 146.085L6.30664 143.654L18.5546 143.654L18.5546 145.802C17.7679 145.833 17.1072 145.888 16.5723 145.967C17.3274 146.36 17.8938 146.903 18.2714 147.595C18.6332 148.287 18.8142 149.058 18.8142 149.908C18.8142 151.229 18.3815 152.283 17.5162 153.07C16.6509 153.857 15.4002 154.25 13.764 154.25L6.30664 154.25L6.30664 151.843L13.056 151.843C14.173 151.843 15.0462 151.63 15.6755 151.206C16.2891 150.781 16.5959 150.136 16.5959 149.271C16.5959 148.39 16.2812 147.642 15.6519 147.029C15.0226 146.399 14.1337 146.085 12.9852 146.085L6.30664 146.085Z" fill="#C0C0C0"/>
<path d="M6.02344 157.731C6.02344 157.322 6.0785 156.945 6.18863 156.598C6.29876 156.237 6.44822 155.953 6.63701 155.749L8.54854 156.669C8.32828 157.031 8.21815 157.432 8.21815 157.873C8.21815 158.77 8.58787 159.501 9.32731 160.068C10.0668 160.618 11.1208 160.894 12.4896 160.894L18.5546 160.894L18.5546 163.324L6.30663 163.324L6.30663 161.177C7.0618 161.145 7.72257 161.098 8.28895 161.035C7.53378 160.673 6.9674 160.217 6.58982 159.666C6.21223 159.1 6.02344 158.455 6.02344 157.731Z" fill="#C0C0C0"/>
<path d="M18.0588 165.163C18.5623 165.855 18.814 166.775 18.814 167.924C18.814 169.088 18.4915 170.04 17.8464 170.779C17.2014 171.503 16.0529 171.865 14.401 171.865L8.38319 171.865L8.38319 173.941L6.30647 173.941L6.30647 171.865L2.7666 171.865L2.7666 169.458L6.30647 169.458L6.30647 165.847L8.38319 165.847L8.38319 169.458L14.0706 169.458C15.7697 169.458 16.6193 168.828 16.6193 167.57C16.6193 167.003 16.4698 166.476 16.1709 165.989L18.0588 165.163Z" fill="#C0C0C0"/>
<path d="M10.5545 180.397L6.30664 177.376L6.30664 174.663L12.3952 179.123L18.5546 174.663L18.5546 177.542L14.3067 180.515L18.5546 183.536L18.5546 186.297L12.4896 181.813L6.30664 186.297L6.30664 183.371L10.5545 180.397Z" fill="#C0C0C0"/>
<path d="M6.02344 192.381C6.02344 191.311 6.27516 190.375 6.77861 189.573C7.26632 188.771 7.94283 188.149 8.80813 187.709C9.6577 187.268 10.6174 187.048 11.6872 187.048C12.0491 187.048 12.4817 187.087 12.9852 187.166L12.9852 195.756C14.2123 195.662 15.1406 195.284 15.7699 194.623C16.3834 193.962 16.6902 193.136 16.6902 192.145C16.6902 190.855 16.1553 189.919 15.0855 189.337L16.1475 187.52C16.997 187.835 17.6578 188.432 18.1298 189.313C18.586 190.194 18.8142 191.178 18.8142 192.263C18.8142 193.38 18.5703 194.395 18.0826 195.308C17.5791 196.22 16.8397 196.952 15.8643 197.502C14.8888 198.037 13.7246 198.305 12.3716 198.305C11.05 198.305 9.90942 198.037 8.94973 197.502C7.99003 196.952 7.26632 196.228 6.77861 195.331C6.27516 194.419 6.02344 193.435 6.02344 192.381ZM8.14736 192.476C8.14736 193.278 8.40695 193.978 8.92613 194.576C9.42957 195.158 10.169 195.528 11.1444 195.685L11.1444 189.597C10.2005 189.66 9.46891 189.951 8.94973 190.47C8.41481 190.989 8.14736 191.658 8.14736 192.476Z" fill="#C0C0C0"/>
<path d="M18.0588 205.795C18.5623 206.488 18.814 207.408 18.814 208.556C18.814 209.721 18.4915 210.672 17.8464 211.412C17.2014 212.136 16.0529 212.497 14.401 212.497L8.38319 212.497L8.38319 214.574L6.30647 214.574L6.30647 212.497L2.7666 212.497L2.7666 210.09L6.30647 210.09L6.30647 206.48L8.38319 206.48L8.38319 210.09L14.0706 210.09C15.7697 210.09 16.6193 209.461 16.6193 208.202C16.6193 207.636 16.4698 207.109 16.1709 206.621L18.0588 205.795Z" fill="#C0C0C0"/>
<path d="M2.53082 216.698C2.53082 217.327 2.74321 217.807 3.16799 218.137C3.59278 218.452 4.32435 218.609 5.36271 218.609L6.30667 218.609L6.30667 215.424L8.3598 215.424L8.3598 218.609L18.5546 218.609L18.5546 221.04L8.3598 221.04L8.3598 223.164L6.30667 223.164L6.30667 221.04L5.29191 221.04C3.59278 221.04 2.34202 220.647 1.53965 219.86C0.721551 219.074 0.3125 218.067 0.3125 216.84C0.3125 216.273 0.391164 215.762 0.548492 215.306C0.705819 214.849 0.910344 214.487 1.16207 214.22L3.0028 215.164C2.68814 215.62 2.53082 216.132 2.53082 216.698Z" fill="#C0C0C0"/>
<path d="M6.02344 229.581C6.02344 228.511 6.27516 227.575 6.77861 226.772C7.26632 225.97 7.94283 225.348 8.80813 224.908C9.6577 224.467 10.6174 224.247 11.6872 224.247C12.0491 224.247 12.4817 224.286 12.9852 224.365L12.9852 232.955C14.2123 232.861 15.1406 232.483 15.7699 231.822C16.3834 231.162 16.6902 230.336 16.6902 229.345C16.6902 228.054 16.1553 227.118 15.0855 226.536L16.1475 224.719C16.997 225.034 17.6578 225.632 18.1298 226.513C18.586 227.394 18.8142 228.377 18.8142 229.463C18.8142 230.58 18.5703 231.594 18.0826 232.507C17.5791 233.419 16.8397 234.151 15.8643 234.702C14.8888 235.236 13.7246 235.504 12.3716 235.504C11.05 235.504 9.90942 235.236 8.94973 234.702C7.99003 234.151 7.26632 233.427 6.77861 232.53C6.27516 231.618 6.02344 230.635 6.02344 229.581ZM8.14736 229.675C8.14736 230.477 8.40695 231.177 8.92613 231.775C9.42957 232.357 10.169 232.727 11.1444 232.884L11.1444 226.796C10.2005 226.859 9.46891 227.15 8.94973 227.669C8.41481 228.188 8.14736 228.857 8.14736 229.675Z" fill="#C0C0C0"/>
<path d="M1.2793 247.555L1.2793 245.03L16.2883 245.03L16.2883 236.723L18.5538 236.723L18.5538 247.555L1.2793 247.555Z" fill="#C0C0C0"/>
</svg>
