<svg width="24" height="301" viewBox="0 0 24 301" fill="none" xmlns="http://www.w3.org/2000/svg">
<path d="M2.17136e-07 49.2601C1.0454 48.1367 1.86455 47.3019 2.45747 46.7558L3.76811 47.9963C2.72272 48.9948 1.88796 49.8218 1.26384 50.4771L2.17136e-07 49.2601ZM15.8916 45.843C16.8746 45.9523 17.7796 46.0771 18.6065 46.2175C19.7455 46.4204 20.5257 46.7012 20.947 47.0601C21.3683 47.4189 21.5789 47.9026 21.5789 48.5112C21.5789 49.0417 21.3839 49.5253 20.9938 49.9622C20.6037 50.3991 19.9718 50.797 19.098 51.1558C18.9732 51.2027 18.8562 51.2495 18.747 51.2963C18.6221 51.3431 18.5129 51.3821 18.4193 51.4133C19.5583 52.3027 20.6661 53.3559 21.7427 54.5729L20.1746 56.141C18.7704 54.4091 17.3895 53.0438 16.032 52.0452C13.3483 52.6225 9.92348 53.0048 5.75749 53.192L5.75749 60.424L3.76811 60.424L3.76811 53.2388C2.78513 53.27 1.6071 53.2857 0.234044 53.2857L0.210639 51.2729L2.6213 51.2495L3.76811 51.2261L3.76811 46.0537L5.75749 46.0537L5.75749 51.2027C8.92489 51.109 11.5306 50.8906 13.5746 50.5473C12.0143 49.7828 9.94689 49.0651 7.3724 48.3941L7.9341 46.5452C11.2575 47.4345 14.0583 48.5814 16.3363 49.9856C16.9604 49.7984 17.4597 49.6346 17.8342 49.4941C18.2867 49.3225 18.6065 49.1665 18.7938 49.0261C18.9654 48.87 19.0512 48.7062 19.0512 48.5346C19.0512 48.3785 18.9264 48.2537 18.6767 48.1601C18.4271 48.0509 17.998 47.9495 17.3895 47.8558L15.3299 47.5984L15.8916 45.843ZM16.5937 60.4942C16.6562 60.6659 16.9292 61.5162 17.4129 63.0453C18.0214 65.0425 18.4427 66.3609 18.6767 67.0007L16.5235 67.4688C16.4455 67.0475 16.1803 66.1191 15.7278 64.6836L8.12134 64.6836L8.12134 66.9773L6.03834 66.9773L6.03834 64.6836L0.608515 64.6836L0.608515 62.624L6.03834 62.624L6.03834 60.6815L8.12134 60.6815L8.12134 62.624L15.1193 62.624L14.4405 60.4942L16.5937 60.4942ZM14.7682 59.9325L7.8873 59.9325L7.8873 54.292L14.7682 54.292L14.7682 59.9325ZM12.8724 58.2006L12.8724 56.024L9.75965 56.024L9.75965 58.2006L12.8724 58.2006ZM18.0214 53.9176C18.0838 54.0892 18.5363 55.7977 19.3789 59.0432L19.964 61.2198L17.8576 61.6644C17.6235 60.6815 17.3193 59.3942 16.9448 57.8027C16.5547 56.1956 16.2349 54.9006 15.9852 53.9176L18.0214 53.9176Z" fill="#C0C0C0"/>
<path d="M3.37007 86.7844L18.7234 86.7844L18.7234 69.6055L20.8766 69.6055L20.8766 88.9844L1.26367 88.9844L1.26367 70.0502L3.37007 70.0502L3.37007 86.7844ZM15.751 85.6843C14.4872 83.7808 12.8801 81.8226 10.9297 79.8098C8.7921 82.0255 7.16939 83.7808 6.06158 85.0758L4.51689 83.6014C5.81193 82.1191 7.43464 80.3559 9.38501 78.312C7.7467 76.7673 6.03038 75.363 4.23604 74.0991L5.54668 72.297C7.32542 73.6233 9.10416 75.1055 10.8829 76.7439C12.5524 75.0119 14.2063 73.3268 15.8446 71.6885L17.5298 73.3502C16.1879 74.536 14.495 76.1665 12.451 78.2417C14.5418 80.3325 16.2659 82.3453 17.6234 84.2801L15.751 85.6843Z" fill="#C0C0C0"/>
<path d="M2.45702 103.982C2.8627 105.011 3.24497 106.096 3.60384 107.235C3.9627 108.374 4.23576 109.404 4.42299 110.324L8.51877 110.324L8.51877 104.309L10.7422 104.309L10.7422 110.324L16.6167 110.324L15.9614 108.311C15.5869 107.126 15.15 105.784 14.6507 104.286L17.0614 104.146C17.7479 106.47 18.3876 108.546 18.9806 110.371C19.2926 111.307 19.5033 111.916 19.6125 112.197L17.5997 113.133C17.4125 112.899 17.233 112.735 17.0614 112.641C16.8742 112.548 16.6791 112.501 16.4763 112.501L2.62085 112.501C2.43361 111.455 2.12155 110.176 1.68467 108.663C1.23219 107.149 0.795304 105.823 0.374024 104.684L2.45702 103.982ZM1.98893 102.858L1.98893 93.5901L15.6571 93.5901C16.7961 93.5901 17.5919 93.7929 18.0444 94.1986C18.4969 94.5887 18.7231 95.1972 18.7231 96.0242C18.7231 96.8043 18.6841 97.6859 18.6061 98.6689L16.4061 99.0902C16.5309 98.2944 16.5933 97.5533 16.5933 96.8667C16.5933 96.4299 16.4607 96.1412 16.1954 96.0008C15.9302 95.8447 15.4621 95.7667 14.7912 95.7667L4.18895 95.7667L4.18895 100.635L21.6721 100.635L21.6721 102.858L1.98893 102.858Z" fill="#C0C0C0"/>
<path d="M11.608 128.56C11.5924 128.544 11.6548 128.755 11.7952 129.192L12.5676 131.579L18.7463 131.579C19.5109 131.579 20.0804 131.673 20.4549 131.86C20.8293 132.031 21.079 132.328 21.2038 132.749C21.3442 133.17 21.4144 133.81 21.4144 134.668C21.4144 135.23 21.3754 135.839 21.2974 136.494L19.074 136.962C19.0896 136.853 19.1208 136.603 19.1676 136.213C19.2144 135.807 19.2378 135.441 19.2378 135.113C19.2378 134.567 19.1598 134.216 19.0038 134.06C18.8322 133.888 18.4733 133.802 17.9272 133.802L13.2697 133.802C13.769 135.331 14.1435 136.463 14.3931 137.196L12.1931 137.664C12.0059 136.931 11.647 135.643 11.1165 133.802L6.52923 133.802L6.52923 137.173L4.46963 137.173L4.46963 133.802L0.256836 133.802L0.256836 131.579L4.46964 131.579L4.46964 128.77L6.52923 128.77L6.52923 131.579L10.4378 131.579L10.2973 131.111C9.78244 129.597 9.51719 128.825 9.50159 128.794L11.608 128.56ZM1.84834 116.038L4.00155 116.038L4.00155 120.017L18.5825 120.017C19.6903 120.017 20.4549 120.243 20.8761 120.696C21.313 121.148 21.5393 121.928 21.5549 123.036C21.5705 123.848 21.5393 124.823 21.4613 125.962L19.2378 126.43C19.3627 125.385 19.4251 124.456 19.4251 123.645C19.4251 123.13 19.3237 122.771 19.1208 122.568C18.9024 122.365 18.5357 122.264 18.0208 122.264L4.00155 122.264L4.00155 128.045L1.84834 128.045L1.84834 116.038Z" fill="#C0C0C0"/>
<path d="M1.54492 139.561L3.65132 139.561L3.65132 142.51L18.0216 142.51C18.9422 142.51 19.6366 142.612 20.1046 142.814C20.5883 143.002 20.9316 143.353 21.1344 143.868C21.3373 144.367 21.4387 145.116 21.4387 146.114C21.4387 147.3 21.3997 148.322 21.3217 149.18L19.1919 149.602C19.3167 148.447 19.3791 147.363 19.3791 146.348C19.3791 145.678 19.2465 145.233 18.9812 145.014C18.716 144.78 18.1933 144.663 17.4131 144.663L3.65132 144.663L3.65132 160.742L1.54492 160.742L1.54492 139.561ZM6.81092 158.285L6.81092 148.502L16.3365 148.502L16.3365 158.285L6.81092 158.285ZM14.2769 156.202L14.2769 150.608L8.89392 150.608L8.89392 156.202L14.2769 156.202Z" fill="#C0C0C0"/>
<path d="M4.68021 162.916C5.00787 162.932 5.50717 162.978 6.17809 163.056C6.64618 163.119 7.00505 163.22 7.2547 163.361C7.48874 163.486 7.66818 163.688 7.793 163.969C7.90222 164.25 7.98804 164.656 8.05045 165.186C8.08166 165.686 8.09726 166.068 8.09726 166.333C8.09726 166.583 8.08166 166.973 8.05045 167.503C7.97243 168.19 7.793 168.689 7.51215 169.001C7.21569 169.313 6.67739 169.469 5.89724 169.469L0.209961 169.469L0.209961 167.691L2.87807 167.691C2.06671 165.896 1.43479 164.656 0.982309 163.969L2.5036 163.267C2.78445 163.72 3.11211 164.375 3.48658 165.233C3.86105 166.091 4.19652 166.91 4.49297 167.691L5.35894 167.691C5.73341 167.691 5.99086 167.628 6.13128 167.503C6.25611 167.378 6.33412 167.16 6.36533 166.848C6.38093 166.676 6.38873 166.434 6.38873 166.122C6.38873 165.795 6.38093 165.553 6.36533 165.397C6.33412 165.1 6.26391 164.89 6.15469 164.765C6.02987 164.625 5.81923 164.547 5.52277 164.531C5.30433 164.5 4.89865 164.469 4.30574 164.437L4.68021 162.916ZM9.78238 165.842C9.78238 165.842 10.0398 166.083 10.5547 166.567C11.0228 167.035 11.2569 167.269 11.2569 167.269L11.2569 163.969L19.5186 163.969C20.3144 163.969 20.8605 164.133 21.1569 164.461C21.469 164.788 21.625 165.397 21.625 166.286C21.625 166.645 21.5938 167.152 21.5314 167.808L19.8229 168.159C19.9165 167.706 19.9633 167.261 19.9633 166.825C19.9633 166.216 19.6512 165.912 19.0271 165.912L18.325 165.912L18.325 169.165L21.4144 169.165L21.4144 171.061L18.325 171.061L18.325 174.571C18.9647 174.727 19.5732 174.962 20.1505 175.274C20.7435 175.586 21.3598 175.991 21.9995 176.491L20.8995 178.293C19.9321 177.435 19.0193 176.865 18.1612 176.584C17.303 176.288 16.1952 176.14 14.8377 176.14L12.6611 176.14L13.1526 176.888L11.5611 177.988C10.4221 176.163 9.15826 174.751 7.76959 173.752L8.35471 177.427L6.62278 177.661L6.48235 176.631L1.59082 176.631L1.59082 174.969L6.2249 174.969L6.03767 173.869L0.303579 173.869L0.303579 172.114L2.36317 172.114L2.36317 170.382L3.97808 170.382L3.97808 172.114L5.75681 172.114L5.45256 170.359L7.18448 170.101L7.65257 173.097L8.09726 171.833L8.72918 172.231L8.72918 165.842L9.78238 165.842ZM2.17593 183.652L2.17593 178.246L18.2782 178.246L18.2782 183.652L2.17593 183.652ZM3.97808 181.757L16.476 181.757L16.476 180.025L3.97808 180.048L3.97808 181.757ZM10.0632 173.214C10.5157 173.588 10.9136 173.971 11.2569 174.361L11.2569 169.75L10.0632 168.416L10.0632 173.214ZM14.1356 171.061L12.8015 171.061L12.8015 174.244L14.1356 174.244L14.1356 171.061ZM14.1356 169.165L14.1356 165.912L12.8015 165.912L12.8015 169.165L14.1356 169.165ZM16.8739 171.061L15.5399 171.061L15.5399 174.244C16.008 174.244 16.4526 174.267 16.8739 174.314L16.8739 171.061ZM15.5399 169.165L16.8739 169.165L16.8739 165.912L15.5399 165.912L15.5399 169.165Z" fill="#C0C0C0"/>
<path d="M6.3664 192.664L6.3664 194.63L4.18979 194.63L4.18979 199.475L2.41105 199.475L2.41105 194.63L0.28125 194.63L0.28125 192.664L2.41105 192.664L2.41105 187.515L4.18979 187.515L4.18979 192.664L6.3664 192.664ZM2.69191 206.754L2.69191 201.043L18.7005 201.043L18.7005 206.754L2.69191 206.754ZM16.6878 204.905L16.6878 202.869L4.70469 202.869L4.70469 204.905L16.6878 204.905ZM5.38342 189.154L7.04513 189.154L7.04513 186.509L8.84727 186.509L8.84727 189.154L10.3452 189.154L10.3452 191.05L8.84727 191.05L8.84727 196.292L10.3686 196.292L10.3686 198.211L8.84727 198.211L8.84727 200.364L7.04513 200.364L7.04513 198.211L5.38342 198.211L5.38342 196.292L7.04513 196.292L7.04513 191.05L5.38342 191.05L5.38342 189.154ZM11.0941 188.077L17.4133 188.077L17.4133 190.02L12.8728 190.02L12.8728 197.299L17.4133 197.299L17.4133 199.218L11.0941 199.218L11.0941 188.077ZM15.0026 192.758C15.5019 192.82 15.9778 192.914 16.4303 193.039L19.1686 187.867L19.8708 186.556L21.7197 187.445C21.158 188.381 19.941 190.496 18.0686 193.788C18.88 194.334 19.5665 195.13 20.1282 196.175C20.7055 197.205 21.2594 198.633 21.7899 200.458L19.7771 201.254C19.3559 199.569 18.919 198.289 18.4665 197.416C17.9984 196.526 17.4991 195.894 16.9686 195.52C16.4225 195.145 15.7126 194.864 14.8388 194.677C14.6984 194.646 14.4799 194.623 14.1835 194.607C13.887 194.576 13.6998 194.56 13.6218 194.56L13.6218 192.641C13.9182 192.641 14.3785 192.68 15.0026 192.758Z" fill="#C0C0C0"/>
<path d="M5.68582 209.909L5.68582 221.799C7.10569 222.205 8.55677 222.735 10.039 223.39L10.039 211.431L12.2157 211.431L12.2157 217.399L18.6987 217.399L18.6987 210.097L20.8285 210.097L20.8285 227.697L18.6987 227.697L18.6987 219.692L12.2157 219.692L12.2157 224.49C14.6497 225.832 17.1696 227.736 19.7753 230.201L17.6923 231.512C15.8043 229.733 13.9086 228.266 12.005 227.112C10.1015 225.941 7.99506 224.997 5.68582 224.28L5.68582 230.341L3.4858 230.341L3.4858 223.671C2.44041 223.422 1.39501 223.211 0.349609 223.039L0.56025 220.652C1.63685 220.824 2.61204 221.019 3.4858 221.237L3.4858 209.909L5.68582 209.909Z" fill="#C0C0C0"/>
<path d="M0.912227 247.499C2.67536 248.06 4.29807 248.685 5.78035 249.371L21.7188 249.371L21.7188 251.548L9.85272 251.548C11.0698 252.312 12.1464 253.085 13.0825 253.865L10.6719 254.895C9.39244 253.912 7.81654 252.944 5.94418 251.992C4.05622 251.025 2.17607 250.245 0.303711 249.652L0.912227 247.499ZM14.6974 239.073C16.4606 237.528 18.1847 235.469 19.8698 232.894L21.8826 234.252C20.0883 236.842 18.2861 238.948 16.4762 240.571C18.2861 242.241 20.0805 244.409 21.8592 247.077L19.823 248.529C18.1379 245.86 16.4138 243.699 14.6506 242.045C13.1527 243.138 11.53 244.027 9.78251 244.714C8.03498 245.385 6.0612 245.907 3.86119 246.282L3.86119 247.031L1.70798 247.031L1.70798 234.533L3.81438 234.533C6.0612 235.001 8.05838 235.601 9.80591 236.335C11.5534 237.053 13.184 237.965 14.6974 239.073ZM3.86119 244.058C5.68673 243.699 7.32504 243.239 8.77612 242.677C10.2272 242.116 11.5768 241.406 12.8251 240.548C11.5612 239.627 10.2038 238.87 8.75271 238.277C7.28604 237.684 5.65553 237.216 3.86119 236.873L3.86119 244.058Z" fill="#C0C0C0"/>
</svg>
