<svg width="40" height="391" viewBox="0 0 40 391" fill="none" xmlns="http://www.w3.org/2000/svg">
<g clip-path="url(#clip0_18942_38963)">
<path d="M25.4129 75.7664C26.3089 75.8624 27.3009 75.9984 28.3889 76.1744C29.6529 76.3824 30.5089 76.6944 30.9569 77.1104C31.4209 77.5104 31.6529 78.0624 31.6529 78.7664C31.6529 79.3584 31.4289 79.8944 30.9809 80.3744C30.5329 80.8544 29.8289 81.2944 28.8689 81.6944L28.7009 81.7664C29.6769 82.5344 30.6449 83.4464 31.6049 84.5024L29.5409 86.5424C29.1249 86.0304 28.7009 85.5344 28.2689 85.0544L30.0209 91.7504L27.2849 92.3504C27.0609 91.3104 26.7249 89.8064 26.2769 87.8384C25.8129 85.8544 25.5249 84.6464 25.4129 84.2144L27.4289 84.2144C26.9009 83.6864 26.2929 83.1584 25.6049 82.6304C23.0129 83.1904 19.5969 83.5824 15.3569 83.8064L15.3569 91.0544L12.7409 91.0544L12.7409 83.9024C11.8129 83.9184 10.7169 83.9264 9.45289 83.9264L9.42889 81.2384L12.7409 81.1904L12.7409 78.6224C12.1009 79.2464 11.4689 79.8784 10.8449 80.5184L9.21289 78.9584L11.4929 76.5584L12.7409 77.7584L12.7409 76.0544L15.3569 76.0544L15.3569 81.1424C17.9009 81.0944 20.1969 80.9424 22.2449 80.6864C20.8849 80.0784 19.0449 79.4304 16.7249 78.7424L17.4929 76.3664C19.2529 76.9104 20.8289 77.4704 22.2209 78.0464C23.5969 78.6064 24.8689 79.2304 26.0369 79.9184C26.4689 79.8064 26.8049 79.7024 27.0449 79.6064C27.4929 79.4464 27.8049 79.3104 27.9809 79.1984C28.1569 79.0704 28.2449 78.9344 28.2449 78.7904C28.2449 78.6784 28.1409 78.5824 27.9329 78.5024C27.7089 78.4224 27.3249 78.3504 26.7809 78.2864L24.6689 78.0224L25.4129 75.7664ZM26.1329 91.3664C26.2129 91.5584 26.5329 92.5504 27.0929 94.3424C27.2689 94.8704 27.4769 95.5184 27.7169 96.2864C27.9569 97.0544 28.1249 97.5584 28.2209 97.7984L25.4369 98.3984C25.3249 97.9024 25.0849 97.0304 24.7169 95.7824L17.8049 95.7824L17.8049 97.8464L15.0689 97.8464L15.0689 95.7824L9.78889 95.7824L9.78889 93.0944L15.0689 93.0944L15.0689 91.4624L17.8049 91.4624L17.8049 93.0944L23.9249 93.0944C23.7649 92.5664 23.5809 91.9904 23.3729 91.3664L26.1329 91.3664ZM24.5489 90.6704L17.0609 90.6704L17.0609 84.5504L24.5489 84.5504L24.5489 90.6704ZM22.0769 88.4624L22.0769 86.7584L19.5329 86.7584L19.5329 88.4624L22.0769 88.4624Z" fill="#B3B3B3"/>
<path d="M13.1007 117.499L27.9087 117.499L27.9087 100.387L30.8127 100.387L30.8127 120.523L10.2207 120.523L10.2207 100.843L13.1007 100.843L13.1007 117.499ZM24.7407 116.683C23.6527 115.083 22.1967 113.331 20.3727 111.427C18.5327 113.315 17.0527 114.875 15.9327 116.107L13.8447 114.115C14.9007 112.899 16.3647 111.307 18.2367 109.339C16.7327 107.931 15.1887 106.635 13.6047 105.451L15.3807 103.003C17.1727 104.395 18.8127 105.787 20.3007 107.179C22.6367 104.779 24.1647 103.227 24.8847 102.523L27.1407 104.755C26.1487 105.651 24.5967 107.155 22.4847 109.267C24.4367 111.251 26.0207 113.083 27.2367 114.763L24.7407 116.683Z" fill="#B3B3B3"/>
<path d="M12.0438 135.743C12.9398 137.935 13.5878 139.967 13.9878 141.839L17.6598 141.839L17.6598 136.127L20.6118 136.127L20.6118 141.839L25.8918 141.839C25.4278 140.559 24.7478 138.639 23.8518 136.079L27.0198 135.911C27.6278 137.959 28.2678 139.967 28.9398 141.935L29.7078 144.023L27.0678 145.223C26.8598 145.031 26.6598 144.903 26.4678 144.839C26.2758 144.775 26.0678 144.743 25.8438 144.743L11.6118 144.743C11.4198 143.687 11.0998 142.399 10.6518 140.879C10.2038 139.359 9.73976 137.943 9.25977 136.631L12.0438 135.743ZM10.8918 134.735L10.8918 124.655L25.3398 124.655C26.5718 124.655 27.4278 124.863 27.9078 125.279C28.3878 125.695 28.6358 126.367 28.6518 127.295C28.6678 128.175 28.6278 129.127 28.5318 130.151L25.6518 130.703C25.7318 130.063 25.7878 129.391 25.8198 128.687C25.8198 128.223 25.7078 127.919 25.4838 127.775C25.2438 127.615 24.8118 127.535 24.1878 127.535L13.8198 127.535L13.8198 131.831L31.5558 131.831L31.5558 134.735L10.8918 134.735Z" fill="#B3B3B3"/>
<path d="M21.3792 160.676L21.6912 161.636L22.2912 163.556L28.4592 163.556C29.2752 163.556 29.8832 163.652 30.2832 163.844C30.6992 164.02 30.9872 164.324 31.1472 164.756C31.3072 165.172 31.3952 165.788 31.4112 166.604C31.4112 167.42 31.3712 168.212 31.2912 168.98L28.3632 169.58C28.4752 168.844 28.5312 168.22 28.5312 167.708C28.5312 167.34 28.4992 167.076 28.4352 166.916C28.3712 166.756 28.2672 166.652 28.1232 166.604C27.9792 166.54 27.7392 166.508 27.4032 166.508L23.2512 166.508C23.3632 166.876 23.6432 167.708 24.0912 169.004L24.2832 169.556L21.3552 170.18C21.0672 168.948 20.7392 167.724 20.3712 166.508L16.2192 166.508L16.2192 169.604L13.4352 169.604L13.4352 166.508L9.45117 166.508L9.45117 163.556L13.4352 163.556L13.4352 160.964L16.2192 160.964L16.2192 163.556L19.4592 163.556C19.1392 162.532 18.8592 161.676 18.6192 160.988L21.3792 160.676ZM10.7472 147.932L13.6272 147.932L13.6272 151.748L28.2192 151.748C29.4352 151.748 30.2832 152.004 30.7632 152.516C31.2432 153.028 31.4912 153.916 31.5072 155.18C31.5072 156.06 31.4672 157.06 31.3872 158.18L28.4592 158.804C28.5872 157.748 28.6512 156.804 28.6512 155.972C28.6512 155.476 28.5632 155.14 28.3872 154.964C28.2112 154.788 27.8992 154.7 27.4512 154.7L13.6272 154.7L13.6272 160.196L10.7472 160.196L10.7472 147.932Z" fill="#B3B3B3"/>
<path d="M10.459 172.124L13.243 172.124L13.243 174.812L27.691 174.812C28.747 174.812 29.531 174.932 30.043 175.172C30.555 175.412 30.907 175.836 31.099 176.444C31.291 177.052 31.387 177.972 31.387 179.204C31.387 180.116 31.339 181.012 31.243 181.892L28.435 182.468C28.579 181.332 28.651 180.236 28.651 179.18C28.651 178.572 28.531 178.172 28.291 177.98C28.051 177.772 27.579 177.668 26.875 177.668L13.243 177.668L13.243 193.844L10.459 193.844L10.459 172.124ZM15.859 191.564L15.859 180.884L26.275 180.884L26.275 191.564L15.859 191.564ZM23.587 188.828L23.587 183.644L18.571 183.644L18.571 188.828L23.587 188.828Z" fill="#B3B3B3"/>
<path d="M31.5066 197.612C29.8426 200.492 28.2906 203.3 26.8506 206.036C27.8746 206.996 28.7706 208.324 29.5386 210.02C30.3066 211.7 31.0746 213.948 31.8426 216.764L28.8906 217.82C28.3626 215.724 27.8666 214.028 27.4026 212.732C26.9226 211.436 26.4026 210.372 25.8426 209.54C25.2666 208.692 24.5866 208.028 23.8026 207.548L23.8026 217.676L21.0666 217.676L21.0666 206.564C19.9786 206.34 18.4266 206.188 16.4106 206.108C15.7386 206.076 13.4826 206.028 9.64258 205.964L9.64258 203.012L10.2906 203.012C11.1706 203.028 12.2346 203.052 13.4826 203.084C14.7146 203.1 15.8266 203.124 16.8186 203.156C18.4026 203.204 19.8186 203.324 21.0666 203.516L21.0666 196.34L23.8026 196.34L23.8026 204.188C24.0426 204.268 24.2826 204.364 24.5226 204.476C25.9306 201.612 27.3306 198.852 28.7226 196.196L31.5066 197.612ZM16.1946 208.796C15.6346 209.58 14.4986 211.284 12.7866 213.908L12.2106 214.796L9.85858 213.332C10.4186 212.388 11.0666 211.34 11.8026 210.188C12.5226 209.02 13.1626 208.036 13.7226 207.236L16.1946 208.796ZM20.8026 210.524C20.3066 211.244 19.6506 212.252 18.8346 213.548C18.0026 214.844 17.3466 215.9 16.8666 216.716L14.4426 215.252C15.9946 212.596 17.2986 210.492 18.3546 208.94L20.8026 210.524Z" fill="#B3B3B3"/>
<path d="M27.7637 224.277L21.7637 224.277L21.7637 221.325L31.5557 221.325L31.5557 224.277L30.6197 224.277L30.6197 240.645L21.8117 240.645L21.8117 237.693L27.7637 237.693L27.7637 232.437L20.2277 232.437L20.2277 239.973L11.4197 239.973L11.4197 237.069L17.3717 237.069L17.3717 232.437L9.42773 232.437L9.42773 229.557L17.3717 229.557L17.3717 224.949L11.4197 224.949L11.4197 222.045L20.2277 222.045L20.2277 229.557L27.7637 229.557L27.7637 224.277Z" fill="#B3B3B3"/>
<path d="M23.3009 244.796L23.1569 245.276C23.0769 245.516 22.9889 245.812 22.8929 246.164C22.7969 246.5 22.6769 246.876 22.5329 247.292L31.4609 247.292L31.4609 250.076L22.2929 250.076L22.2929 247.94C21.7489 249.412 21.1169 250.7 20.3969 251.804C21.0529 252.812 21.6609 253.972 22.2209 255.284L22.2209 253.268L23.3009 253.292C25.1569 253.292 26.7649 253.604 28.1249 254.228C29.4849 254.836 30.7409 255.948 31.8929 257.564L29.8049 259.796C29.1329 258.788 28.4769 258.02 27.8369 257.492C27.1969 256.964 26.5329 256.604 25.8449 256.412C25.1569 256.22 24.3329 256.124 23.3729 256.124L22.5569 256.124C22.8129 256.764 23.0929 257.588 23.3969 258.596L20.9009 259.628L21.3329 260.708L28.4609 260.708C29.2129 260.708 29.7809 260.788 30.1649 260.948C30.5489 261.108 30.8209 261.396 30.9809 261.812C31.1569 262.212 31.2609 262.804 31.2929 263.588C31.3089 264.1 31.2769 264.724 31.1969 265.46L28.5089 265.988C28.6049 265.476 28.6529 264.964 28.6529 264.452C28.6529 264.068 28.5809 263.812 28.4369 263.684C28.2929 263.54 28.0049 263.468 27.5729 263.468L22.4369 263.468C22.8849 264.636 23.1729 265.396 23.3009 265.748L20.3969 266.492C20.1409 265.644 19.8049 264.636 19.3889 263.468L16.0529 263.468L16.0529 265.868L13.2689 265.868L13.2689 263.468L9.47692 263.468L9.47692 260.708L13.2689 260.708L13.2689 258.692L16.0529 258.692L16.0529 260.708L18.3569 260.708C17.9889 259.748 17.7409 259.116 17.6129 258.812L20.4209 258.524L20.4449 258.596C19.9169 256.772 19.3009 255.228 18.5969 253.964C17.5249 255.02 16.0849 256.028 14.2769 256.988L14.2769 258.236L11.6369 258.236L11.6369 253.028C11.3009 253.172 10.6369 253.468 9.64492 253.916L9.04492 251.06C9.76492 250.692 10.6289 250.316 11.6369 249.932L11.6369 244.724L14.2769 244.724L14.2769 246.308C15.9409 247.156 17.3809 248.228 18.5969 249.524C19.3489 248.1 20.0129 246.196 20.5889 243.812L23.3009 244.796ZM14.2769 254.036C15.4609 253.3 16.3889 252.532 17.0609 251.732C16.2449 250.772 15.3169 249.98 14.2769 249.356L14.2769 254.036Z" fill="#B3B3B3"/>
<path d="M15.3574 268.267L15.3574 280.171C16.8294 280.635 18.0854 281.091 19.1254 281.539L19.1254 269.731L22.0054 269.731L22.0054 275.611L27.8134 275.611L27.8134 268.459L30.6694 268.459L30.6694 286.579L27.8134 286.579L27.8134 278.611L22.0054 278.611L22.0054 282.955C24.5814 284.411 27.1494 286.363 29.7094 288.811L26.9734 290.539C25.1494 288.811 23.3094 287.379 21.4534 286.243C19.5974 285.091 17.5654 284.155 15.3574 283.435L15.3574 289.171L12.4294 289.171L12.4294 282.619C11.4694 282.395 10.5014 282.203 9.52539 282.043L9.78939 278.923C10.7334 279.067 11.6134 279.235 12.4294 279.427L12.4294 268.267L15.3574 268.267Z" fill="#B3B3B3"/>
<path d="M10.27 306.694C11.79 307.158 13.318 307.71 14.854 308.35L31.486 308.35L31.486 311.254L20.278 311.254C21.094 311.782 21.982 312.43 22.942 313.198L19.75 314.59C18.518 313.598 16.982 312.646 15.142 311.734C13.286 310.806 11.406 310.062 9.50195 309.502L10.27 306.694ZM24.19 297.526C25.838 295.99 27.462 294.014 29.062 291.598L31.774 293.398C30.03 295.91 28.294 297.95 26.566 299.518C28.278 301.15 30.006 303.278 31.75 305.902L28.966 307.822C27.334 305.23 25.702 303.126 24.07 301.51C22.598 302.502 21.014 303.318 19.318 303.958C17.606 304.582 15.67 305.086 13.51 305.47L13.51 306.214L10.606 306.214L10.606 293.062L13.462 293.062C15.67 293.542 17.638 294.142 19.366 294.862C21.094 295.566 22.702 296.454 24.19 297.526ZM13.51 302.542C15.142 302.206 16.622 301.798 17.95 301.318C19.278 300.822 20.51 300.206 21.646 299.47C20.478 298.638 19.238 297.966 17.926 297.454C16.598 296.926 15.126 296.502 13.51 296.182L13.51 302.542Z" fill="#B3B3B3"/>
</g>
<defs>
<clipPath id="clip0_18942_38963">
<rect width="390" height="39" fill="white" transform="matrix(-4.37114e-08 -1 -1 4.37114e-08 39.9668 390.176)"/>
</clipPath>
</defs>
</svg>
