<svg width="24" height="62" viewBox="0 0 24 62" fill="none" xmlns="http://www.w3.org/2000/svg">
<path d="M23.319 7.74414H8.03388C4.87765 7.74414 2.31903 10.3028 2.31903 13.459V44.0802H23.319V7.74414Z" fill="#626262"/>
<ellipse cx="6.3" cy="0.89351" rx="6.3" ry="0.89351" transform="matrix(-1 0 0 1 20.519 7.14844)" fill="#383938"/>
<path fill-rule="evenodd" clip-rule="evenodd" d="M9.50363 0H18.419V7.80938H18.4188C18.4132 8.06259 16.4196 8.26768 13.9611 8.26768C11.4992 8.26768 9.50342 8.06201 9.50342 7.80831C9.50342 7.8068 9.50349 7.80529 9.50363 7.80378V0Z" fill="#9C9C9C"/>
<rect width="6.3" height="6.5524" rx="3.15" transform="matrix(-1 0 0 1 17.019 1.19141)" fill="#848484"/>
<rect width="6.3" height="15.4875" transform="matrix(-1 0 0 1 11.419 44.0801)" fill="#404040"/>
<path d="M12.294 12.6476C13.6551 11.9613 17.7657 10.5887 23.319 10.5887V42.0609H10.6607V42.9433H7.39403C7.53014 42.7472 7.7207 42.2373 7.39403 41.7667C7.06736 41.2961 4.80792 41.1785 3.71903 41.1785V39.4137V37.0606L4.12737 25.0012L7.39403 22.6481V14.4124L4.5357 11.177C4.39959 10.7848 4.2907 9.8828 4.94403 9.41219C5.59736 8.94158 6.84959 9.2161 7.39403 9.41219L12.294 12.6476Z" fill="#8B8B8B"/>
<path d="M20.519 17.5711V13.1035L13.519 14.8905L17.2249 18.4646L20.519 17.5711Z" fill="#454545"/>
<path d="M15.619 18.9056L11.839 16.084H11.419V21.445H12.259L15.619 18.9056Z" fill="#454545"/>
<rect width="9.8" height="5.95673" transform="matrix(-1 0 0 1 20.519 43.4844)" fill="#8B8B8B"/>
<rect width="12.6" height="7.74375" rx="2.28594" transform="matrix(-1 0 0 1 21.919 49.4395)" fill="#292929"/>
<path d="M20.519 60.162V57.1836H11.419V60.162L13.0736 61.3533H18.8645L20.519 60.162Z" fill="#333333"/>
<path d="M16.494 61.9492L17.019 61.3535H14.919L15.444 61.9492H16.494Z" fill="#CFCFCF"/>
<rect width="6.3" height="16.6788" rx="2.28594" transform="matrix(-1 0 0 1 7.21902 44.0801)" fill="#515151"/>
<ellipse cx="7" cy="7.03977" rx="7" ry="7.03977" transform="matrix(-1 0 0 1 21.2191 23.2324)" fill="#EEEEEE"/>
</svg>
