<svg width="25" height="254" viewBox="0 0 25 254" fill="none" xmlns="http://www.w3.org/2000/svg">
<path d="M0.133789 4.47425C1.26938 3.25391 2.15921 2.34712 2.80328 1.7539L4.22701 3.10136C3.09142 4.18611 2.18464 5.0844 1.50667 5.79627L0.133789 4.47425ZM17.3965 0.762368C18.4643 0.881013 19.4473 1.01661 20.3457 1.16915C21.5829 1.38949 22.4304 1.69457 22.888 2.0844C23.3457 2.47423 23.5745 2.99966 23.5745 3.66068C23.5745 4.23695 23.3626 4.76237 22.9389 5.23694C22.5151 5.71152 21.8287 6.14372 20.8796 6.53355C20.744 6.5844 20.6168 6.63526 20.4982 6.68611C20.3626 6.73696 20.244 6.77932 20.1423 6.81322C21.3796 7.77932 22.5829 8.9234 23.7524 10.2454L22.049 11.9488C20.5236 10.0675 19.0236 8.5844 17.549 7.49966C14.6338 8.12678 10.9134 8.54204 6.38803 8.74543L6.38803 16.6014L4.22701 16.6014L4.22701 8.79627C3.15921 8.83016 1.87955 8.84712 0.388026 8.84712L0.362601 6.66068L2.98125 6.63526L4.22701 6.60983L4.22701 0.991185L6.38803 0.991185L6.38803 6.5844C9.8287 6.48271 12.6592 6.24542 14.8796 5.87254C13.1846 5.04203 10.9389 4.26238 8.14226 3.53357L8.75243 1.52508C12.3626 2.49118 15.405 3.73695 17.8796 5.26237C18.5575 5.05898 19.0999 4.88102 19.5067 4.72847C19.9982 4.54203 20.3457 4.37255 20.549 4.22C20.7355 4.05051 20.8287 3.87255 20.8287 3.68611C20.8287 3.51662 20.6931 3.38102 20.4219 3.27933C20.1507 3.16068 19.6846 3.05052 19.0236 2.94882L16.7863 2.66915L17.3965 0.762368ZM18.1592 16.6776C18.227 16.8641 18.5236 17.7878 19.049 19.4488C19.7101 21.6183 20.1677 23.0505 20.4219 23.7454L18.0829 24.2539C17.9982 23.7963 17.7101 22.7878 17.2185 21.2285L8.95582 21.2285L8.95582 23.72L6.69311 23.72L6.69311 21.2285L0.794805 21.2285L0.794805 18.9912L6.69311 18.9912L6.69311 16.881L8.95582 16.881L8.95582 18.9912L16.5575 18.9912L15.8202 16.6776L18.1592 16.6776ZM16.1762 16.0675L8.70159 16.0675L8.70159 9.94034L16.1762 9.94034L16.1762 16.0675ZM14.1168 14.1861L14.1168 11.8217L10.7355 11.8217L10.7355 14.1861L14.1168 14.1861ZM19.7101 9.53355C19.7779 9.71999 20.2694 11.5759 21.1846 15.1014L21.8202 17.4658L19.5321 17.9488C19.2779 16.881 18.9473 15.4827 18.5406 13.7539C18.1168 12.0081 17.7694 10.6014 17.4982 9.53355L19.7101 9.53355Z" fill="#C0C0C0"/>
<path d="M3.79497 45.2274L20.4729 45.2274L20.4729 26.5663L22.8119 26.5663L22.8119 47.6172L1.50684 47.6172L1.50684 27.0494L3.79497 27.0494L3.79497 45.2274ZM17.2441 44.0324C15.8712 41.9646 14.1255 39.8375 12.0068 37.6511C9.6848 40.0579 7.92209 41.9646 6.7187 43.3714L5.04073 41.7697C6.44751 40.1596 8.21023 38.2443 10.3289 36.024C8.54921 34.346 6.6848 32.8206 4.73565 31.4477L6.15938 29.4901C8.09158 30.9307 10.0238 32.5409 11.956 34.3206C13.7695 32.4392 15.5662 30.6087 17.3458 28.829L19.1763 30.6341C17.7187 31.9223 15.8797 33.6935 13.6594 35.9477C15.9306 38.2189 17.8034 40.4053 19.278 42.507L17.2441 44.0324Z" fill="#C0C0C0"/>
<path d="M2.80373 63.9148C3.24441 65.0334 3.65966 66.2114 4.04949 67.4487C4.43932 68.686 4.73593 69.8046 4.93932 70.8046L9.38847 70.8046L9.38847 64.2707L11.8037 64.2707L11.8037 70.8046L18.1851 70.8046L17.4732 68.6182C17.0664 67.33 16.5919 65.8724 16.0495 64.2453L18.6681 64.0928C19.4139 66.6182 20.1088 68.8724 20.7529 70.8555C21.0919 71.8724 21.3207 72.5334 21.4393 72.8385L19.2529 73.8555C19.0495 73.6012 18.8546 73.4233 18.6681 73.3216C18.4647 73.2199 18.2529 73.169 18.0325 73.169L2.98169 73.169C2.7783 72.0334 2.43932 70.6436 1.96474 68.9995C1.47322 67.3555 0.998643 65.9148 0.541016 64.6775L2.80373 63.9148ZM2.29525 62.6945L2.29525 52.6267L17.1427 52.6267C18.38 52.6267 19.2444 52.847 19.7359 53.2877C20.2275 53.7114 20.4732 54.3724 20.4732 55.2707C20.4732 56.1182 20.4308 57.0758 20.3461 58.1436L17.9563 58.6012C18.0919 57.7368 18.1597 56.9317 18.1597 56.186C18.1597 55.7114 18.0156 55.3978 17.7275 55.2453C17.4393 55.0758 16.9308 54.9911 16.202 54.9911L4.68508 54.9911L4.68508 60.2792L23.6766 60.2792L23.6766 62.6945L2.29525 62.6945Z" fill="#C0C0C0"/>
<path d="M12.7436 90.6102C12.7266 90.5932 12.7944 90.822 12.947 91.2966L13.786 93.8898L20.4978 93.8898C21.3283 93.8898 21.947 93.9915 22.3538 94.1949C22.7605 94.3814 23.0317 94.7034 23.1673 95.161C23.3199 95.6186 23.3961 96.3136 23.3961 97.2458C23.3961 97.8559 23.3538 98.517 23.269 99.2288L20.8538 99.7373C20.8707 99.6186 20.9046 99.3475 20.9555 98.9237C21.0063 98.483 21.0317 98.0847 21.0317 97.7288C21.0317 97.1356 20.947 96.7542 20.7775 96.5847C20.5911 96.3983 20.2012 96.3051 19.608 96.3051L14.5487 96.3051C15.0911 97.9661 15.4978 99.1949 15.769 99.9915L13.3792 100.5C13.1758 99.7034 12.786 98.3051 12.2097 96.3051L7.22665 96.3051L7.22665 99.9661L4.98936 99.9661L4.98936 96.3051L0.413086 96.3051L0.413086 93.8898L4.98936 93.8898L4.98936 90.839L7.22665 90.839L7.22665 93.8898L11.4724 93.8898L11.3199 93.3814C10.7605 91.7373 10.4724 90.8983 10.4555 90.8644L12.7436 90.6102ZM2.1419 77.0085L4.48088 77.0085L4.48088 81.3305L20.3199 81.3305C21.5233 81.3305 22.3538 81.5763 22.8114 82.0678C23.286 82.5593 23.5317 83.4068 23.5487 84.6102C23.5656 85.4915 23.5317 86.5508 23.447 87.7881L21.0317 88.2966C21.1673 87.161 21.2351 86.1525 21.2351 85.2712C21.2351 84.7119 21.125 84.322 20.9046 84.1017C20.6673 83.8814 20.269 83.7712 19.7097 83.7712L4.48088 83.7712L4.48088 90.0508L2.1419 90.0508L2.1419 77.0085Z" fill="#C0C0C0"/>
<path d="M1.8125 102.558L4.10064 102.558L4.10064 105.761L19.7108 105.761C20.7108 105.761 21.465 105.871 21.9735 106.092C22.4989 106.295 22.8718 106.677 23.0922 107.236C23.3125 107.778 23.4227 108.592 23.4227 109.677C23.4227 110.965 23.3803 112.075 23.2956 113.007L20.982 113.465C21.1176 112.21 21.1854 111.032 21.1854 109.931C21.1854 109.202 21.0413 108.719 20.7532 108.482C20.465 108.227 19.8972 108.1 19.0498 108.1L4.10064 108.1L4.10063 125.566L1.8125 125.566L1.8125 102.558ZM7.53284 122.897L7.53284 112.27L17.8803 112.27L17.8803 122.897L7.53284 122.897ZM15.643 120.634L15.643 114.558L9.79555 114.558L9.79555 120.634L15.643 120.634Z" fill="#C0C0C0"/>
<path d="M23.5239 129.378C22.8629 130.514 22.0324 132.005 21.0324 133.853C20.0324 135.683 19.1765 137.277 18.4646 138.632C19.5833 139.616 20.5494 140.997 21.3629 142.777C22.1765 144.539 22.9985 146.955 23.829 150.022L21.4138 150.887C20.7866 148.497 20.2019 146.582 19.6595 145.141C19.1172 143.683 18.507 142.514 17.829 141.632C17.1341 140.734 16.2951 140.048 15.3121 139.573L15.3121 150.76L13.0494 150.76L13.0494 138.836C11.7782 138.565 10.0494 138.387 7.86292 138.302C6.86292 138.268 5.7358 138.243 4.48156 138.226C3.22732 138.192 2.14258 138.166 1.22732 138.149L0.642578 138.149L0.642578 135.709L1.25275 135.709C2.2019 135.726 3.33749 135.751 4.65953 135.785C5.96461 135.802 7.14258 135.827 8.19343 135.861C10.2104 135.946 11.829 136.099 13.0494 136.319L13.0494 128.31L15.3121 128.31L15.3121 136.878C15.6511 136.98 16.0578 137.141 16.5324 137.361L17.5748 135.302C18.9646 132.539 20.1765 130.175 21.2104 128.209L23.5239 129.378ZM7.58326 141.2C7.07478 141.844 6.39682 142.827 5.54936 144.149C4.68495 145.471 3.93919 146.641 3.31207 147.658L1.32902 146.438C1.88834 145.455 2.57478 144.327 3.38834 143.056C4.2019 141.785 4.91376 140.726 5.52393 139.878L7.58326 141.2ZM12.2104 143.056C11.6341 143.853 10.9222 144.921 10.0748 146.26C9.21037 147.599 8.53241 148.709 8.04088 149.59L6.00699 148.395C6.6341 147.293 7.33749 146.116 8.11715 144.861C8.89682 143.607 9.58326 142.565 10.1765 141.734L12.2104 143.056Z" fill="#C0C0C0"/>
<path d="M20.2446 157.423L13.4311 157.423L13.4311 155.033L23.6514 155.033L23.6514 157.423L22.5328 157.423L22.5328 174.863L13.4819 174.863L13.4819 172.448L20.2446 172.448L20.2446 166.168L11.6006 166.168L11.6006 174.126L2.62599 174.126L2.62599 171.762L9.26159 171.762L9.26159 166.168L0.363281 166.168L0.363281 163.779L9.26159 163.779L9.26159 158.16L2.62599 158.16L2.62599 155.795L11.6006 155.795L11.6006 163.779L20.2446 163.779L20.2446 157.423Z" fill="#C0C0C0"/>
<path d="M10.2017 185.061C11.1169 183.502 11.9051 181.358 12.5661 178.629L14.778 179.443C14.3373 181.053 13.8627 182.468 13.3542 183.688C12.8458 184.892 12.2695 185.976 11.6254 186.943C12.9305 188.892 14.0237 191.349 14.9051 194.315L12.7441 195.205C12.0322 192.578 11.1847 190.417 10.2017 188.722C8.9644 190.044 7.31185 191.265 5.24406 192.383L5.24406 193.934L3.05762 193.934L3.05762 187.858C2.15931 188.265 1.3627 188.663 0.667787 189.053L0.0576174 186.765C0.413549 186.561 0.905074 186.315 1.53219 186.027C2.14236 185.722 2.65084 185.485 3.05762 185.315L3.05762 179.519L5.24406 179.519L5.24406 181.324C7.17626 182.256 8.8288 183.502 10.2017 185.061ZM11.7525 194.239C12.1763 195.256 12.5068 196.061 12.7441 196.654L20.5237 196.654C21.3034 196.654 21.8881 196.748 22.278 196.934C22.6678 197.121 22.939 197.451 23.0915 197.926C23.2441 198.4 23.3203 199.095 23.3203 200.01C23.3203 200.451 23.2949 200.917 23.2441 201.409L21.0068 201.841C21.0915 201.4 21.1339 200.866 21.1339 200.239C21.1339 199.714 21.0491 199.366 20.8797 199.197C20.7102 199.027 20.3458 198.943 19.7864 198.943L13.6593 198.943C14.1 200.027 14.4813 201.019 14.8034 201.917L12.4135 202.527C12.2271 201.917 11.8119 200.722 11.1678 198.943L7.09999 198.943L7.09999 201.917L4.81185 201.917L4.81185 198.943L0.464396 198.943L0.464396 196.654L4.81185 196.654L4.81185 194.315L7.09999 194.315L7.09999 196.654L10.278 196.654L9.41355 194.443L11.7525 194.239ZM5.24406 189.892C6.75253 189.01 7.98135 188.01 8.9305 186.892C7.87965 185.621 6.65084 184.587 5.24406 183.79L5.24406 189.892ZM13.9135 191.214L13.9135 188.849L15.1847 188.875C17.083 188.875 18.7356 189.222 20.1424 189.917C21.5322 190.595 22.8373 191.841 24.0576 193.654L22.3542 195.383C21.6254 194.265 20.9051 193.409 20.1932 192.815C19.4644 192.205 18.7102 191.79 17.9305 191.57C17.1508 191.332 16.2525 191.214 15.2356 191.214L13.9135 191.214ZM23.6 182.519L23.6 184.832L13.9898 184.832L13.9898 182.519L23.6 182.519Z" fill="#C0C0C0"/>
<path d="M6.31126 204.405L6.31126 217.32C7.85363 217.761 9.4299 218.337 11.0401 219.049L11.0401 206.058L13.4045 206.058L13.4045 212.541L20.4469 212.541L20.4469 204.608L22.7604 204.608L22.7604 223.727L20.4469 223.727L20.4469 215.032L13.4045 215.032L13.4045 220.244C16.0485 221.702 18.7858 223.769 21.6163 226.447L19.3536 227.871C17.3028 225.939 15.2435 224.346 13.1757 223.091C11.1079 221.82 8.81973 220.795 6.31126 220.015L6.31126 226.6L3.92143 226.6L3.92143 219.354C2.78583 219.083 1.65024 218.854 0.514649 218.668L0.743462 216.074C1.91295 216.261 2.97228 216.473 3.92143 216.71L3.92143 204.405L6.31126 204.405Z" fill="#C0C0C0"/>
<path d="M1.12488 245.236C3.04014 245.846 4.80285 246.524 6.41302 247.27L23.7266 247.27L23.7266 249.634L10.8368 249.634C12.1588 250.464 13.3283 251.303 14.3452 252.151L11.7266 253.27C10.3367 252.202 8.62488 251.151 6.59099 250.117C4.54014 249.066 2.49777 248.219 0.463867 247.575L1.12488 245.236ZM16.0995 236.083C18.0147 234.405 19.8876 232.168 21.7181 229.371L23.9045 230.846C21.9554 233.659 19.9978 235.947 18.0317 237.71C19.9978 239.524 21.9469 241.88 23.8791 244.778L21.6673 246.354C19.8368 243.456 17.9639 241.109 16.0486 239.312C14.4215 240.498 12.6588 241.464 10.7605 242.21C8.86217 242.939 6.71811 243.507 4.32827 243.914L4.32827 244.727L1.98929 244.727L1.98929 231.151L4.27743 231.151C6.71811 231.659 8.8876 232.312 10.7859 233.109C12.6842 233.888 14.4554 234.88 16.0995 236.083ZM4.32827 241.498C6.31133 241.109 8.09099 240.609 9.66726 239.998C11.2435 239.388 12.7096 238.617 14.0656 237.685C12.6927 236.685 11.2181 235.863 9.64183 235.219C8.04861 234.575 6.27743 234.066 4.32827 233.693L4.32827 241.498Z" fill="#C0C0C0"/>
</svg>
