<svg width="25" height="248" viewBox="0 0 25 248" fill="none" xmlns="http://www.w3.org/2000/svg">
<path d="M5.90137 4.95094C5.90137 3.4878 6.33402 2.30784 7.19932 1.41107C8.06462 0.498574 9.3075 0.042326 10.928 0.0423259L18.4325 0.0423256L18.4325 2.14265C17.7245 2.17411 17.2211 2.21344 16.9221 2.26064C18.1021 3.01581 18.6921 4.22723 18.6921 5.8949C18.6921 6.713 18.5426 7.46817 18.2437 8.16041C17.9448 8.83692 17.5121 9.37971 16.9457 9.78876C16.3794 10.1978 15.695 10.4023 14.8926 10.4023C13.6812 10.4023 12.7215 9.90675 12.0135 8.91559C11.3056 7.92443 10.9516 6.65795 10.9516 5.11614C10.9516 4.25084 11.0696 3.36193 11.3056 2.44943L11.2584 2.44943C10.1413 2.44943 9.32324 2.6697 8.80406 3.11022C8.26914 3.55074 8.00169 4.2115 8.00169 5.09254C8.00169 5.80051 8.15901 6.39836 8.47367 6.88607C8.77259 7.35806 9.21311 7.75924 9.79522 8.08963L8.75686 9.88316C7.89156 9.48984 7.19932 8.85267 6.68014 7.97164C6.16096 7.0906 5.90137 6.0837 5.90137 4.95094ZM13.1463 2.44943C12.9103 3.3934 12.7923 4.21937 12.7923 4.92734C12.7923 5.87131 12.9732 6.60287 13.3351 7.12205C13.6969 7.64123 14.2004 7.90083 14.8454 7.90083C15.4275 7.90083 15.8917 7.68844 16.2378 7.26366C16.5682 6.83888 16.7334 6.28036 16.7334 5.58811C16.7334 4.72281 16.4895 3.98338 16.0018 3.3698C15.4983 2.75623 14.8061 2.44943 13.9251 2.44943L13.1463 2.44943Z" fill="#A3A3A3"/>
<path d="M5.90137 17.5727C5.90137 16.5029 6.15309 15.5668 6.65654 14.7644C7.14425 13.9621 7.82076 13.3406 8.68606 12.9001C9.53563 12.4596 10.4953 12.2393 11.5652 12.2393C11.927 12.2393 12.3597 12.2786 12.8631 12.3573L12.8631 20.9474C14.0903 20.853 15.0185 20.4754 15.6478 19.8146C16.2614 19.1539 16.5682 18.3279 16.5682 17.3367C16.5682 16.0466 16.0332 15.1105 14.9634 14.5284L16.0254 12.7113C16.875 13.026 17.5357 13.6238 18.0077 14.5048C18.464 15.3859 18.6921 16.3692 18.6921 17.4547C18.6921 18.5717 18.4482 19.5865 17.9605 20.499C17.4571 21.4115 16.7176 22.1431 15.7422 22.6937C14.7668 23.2286 13.6025 23.4961 12.2495 23.4961C10.928 23.4961 9.78735 23.2286 8.82766 22.6937C7.86796 22.1431 7.14425 21.4194 6.65654 20.5226C6.15309 19.6101 5.90137 18.6268 5.90137 17.5727ZM8.02529 17.6671C8.02529 18.4695 8.28488 19.1696 8.80406 19.7674C9.3075 20.3495 10.0469 20.7193 11.0224 20.8766L11.0224 14.788C10.0784 14.851 9.34684 15.142 8.82766 15.6612C8.29274 16.1804 8.02529 16.849 8.02529 17.6671Z" fill="#A3A3A3"/>
<path d="M5.90137 25.6531C5.90137 25.2441 5.95643 24.8665 6.06656 24.5204C6.17669 24.1585 6.32615 23.8753 6.51494 23.6708L8.42647 24.5911C8.20621 24.953 8.09608 25.3542 8.09608 25.7947C8.09608 26.6915 8.4658 27.423 9.20524 27.9894C9.94468 28.5401 10.9988 28.8154 12.3675 28.8154L18.4325 28.8154L18.4325 31.2461L6.18456 31.2461L6.18456 29.0986C6.93973 29.0671 7.6005 29.0199 8.16688 28.957C7.41171 28.5951 6.84533 28.1389 6.46775 27.5882C6.09016 27.0219 5.90137 26.3768 5.90137 25.6531Z" fill="#A3A3A3"/>
<path d="M5.90137 39.4041C5.90137 37.9409 6.33402 36.761 7.19932 35.8642C8.06462 34.9517 9.3075 34.4955 10.928 34.4955L18.4325 34.4955L18.4325 36.5958C17.7245 36.6272 17.2211 36.6666 16.9221 36.7138C18.1021 37.4689 18.6921 38.6804 18.6921 40.348C18.6921 41.1661 18.5426 41.9213 18.2437 42.6135C17.9448 43.29 17.5121 43.8328 16.9457 44.2419C16.3794 44.6509 15.695 44.8555 14.8926 44.8555C13.6812 44.8555 12.7215 44.3599 12.0135 43.3687C11.3056 42.3776 10.9516 41.1111 10.9516 39.5693C10.9516 38.704 11.0696 37.8151 11.3056 36.9026L11.2584 36.9026C10.1413 36.9026 9.32324 37.1228 8.80406 37.5633C8.26914 38.0039 8.00169 38.6646 8.00169 39.5457C8.00169 40.2536 8.15901 40.8515 8.47367 41.3392C8.77259 41.8112 9.21311 42.2124 9.79522 42.5428L8.75686 44.3363C7.89156 43.943 7.19932 43.3058 6.68014 42.4248C6.16096 41.5437 5.90137 40.5368 5.90137 39.4041ZM13.1463 36.9026C12.9103 37.8465 12.7923 38.6725 12.7923 39.3805C12.7923 40.3244 12.9732 41.056 13.3351 41.5752C13.6969 42.0944 14.2004 42.354 14.8454 42.354C15.4275 42.354 15.8917 42.1416 16.2378 41.7168C16.5682 41.292 16.7334 40.7335 16.7334 40.0412C16.7334 39.1759 16.4895 38.4365 16.0018 37.8229C15.4983 37.2094 14.8061 36.9026 13.9251 36.9026L13.1463 36.9026Z" fill="#A3A3A3"/>
<path d="M6.18457 55.0688L6.18457 52.5437L20.462 58.2075C21.7993 58.7267 22.7511 59.3088 23.3175 59.9539C23.8996 60.5832 24.1907 61.4327 24.1907 62.5026C24.1907 63.5252 23.9232 64.3512 23.3883 64.9805L21.4768 64.0365C21.8072 63.596 21.9724 63.0847 21.9724 62.5026C21.9724 61.9991 21.7993 61.5822 21.4532 61.2518C21.1228 60.9057 20.4699 60.5281 19.4945 60.1191L18.5741 59.7179L6.18457 64.8861L6.18457 62.125L15.577 58.4907L6.18457 55.0688Z" fill="#A3A3A3"/>
<path d="M18.4326 66.7255L18.4326 69.1562L0.473633 69.1562L0.473633 66.7255L18.4326 66.7255Z" fill="#A3A3A3"/>
<path d="M5.90137 76.75C5.90137 75.4284 6.33402 74.3743 7.19932 73.5877C8.06462 72.8011 9.31537 72.4077 10.9516 72.4077L18.4325 72.4077L18.4325 74.8385L11.6831 74.8385C10.5504 74.8385 9.67722 75.0508 9.06365 75.4756C8.45007 75.9004 8.14328 76.5455 8.14328 77.4108C8.14328 78.2918 8.45794 79.047 9.08725 79.6763C9.70082 80.2898 10.5819 80.5966 11.7303 80.5966L18.4325 80.5966L18.4325 83.0273L6.18456 83.0273L6.18456 80.8798C6.95546 80.8484 7.6241 80.8012 8.19048 80.7382C7.43531 80.3292 6.86893 79.7864 6.49134 79.1099C6.09803 78.4176 5.90137 77.631 5.90137 76.75Z" fill="#A3A3A3"/>
<path d="M12.2967 97.75C11.0538 97.75 9.94468 97.4747 8.96925 96.924C7.99382 96.3734 7.23865 95.6418 6.70374 94.7293C6.16882 93.8011 5.90137 92.8021 5.90137 91.7322C5.90137 90.6781 6.16882 89.6948 6.70374 88.7823C7.23865 87.8698 7.99382 87.1383 8.96925 86.5876C9.94468 86.037 11.0538 85.7617 12.2967 85.7617C13.5396 85.7617 14.6488 86.037 15.6242 86.5876C16.5996 87.1383 17.3548 87.8698 17.8897 88.7823C18.4246 89.6948 18.6921 90.6781 18.6921 91.7322C18.6921 92.8021 18.4246 93.8011 17.8897 94.7293C17.3548 95.6418 16.5996 96.3734 15.6242 96.924C14.6488 97.4747 13.5396 97.75 12.2967 97.75ZM12.2967 95.2013C13.5868 95.2013 14.6094 94.8788 15.3646 94.2337C16.1198 93.573 16.4974 92.747 16.4974 91.7558C16.4974 90.7489 16.1198 89.923 15.3646 89.2779C14.6094 88.6329 13.5868 88.3104 12.2967 88.3104C11.0066 88.3104 9.98401 88.6408 9.22884 89.3015C8.47367 89.9466 8.09608 90.7647 8.09608 91.7558C8.09608 92.747 8.47367 93.573 9.22884 94.2337C9.98401 94.8788 11.0066 95.2013 12.2967 95.2013Z" fill="#A3A3A3"/>
<path d="M5.90137 107.052C5.90137 106.642 5.95643 106.265 6.06656 105.919C6.17669 105.557 6.32615 105.274 6.51494 105.069L8.42647 105.99C8.20621 106.351 8.09608 106.753 8.09608 107.193C8.09608 108.09 8.4658 108.821 9.20524 109.388C9.94468 109.939 10.9988 110.214 12.3675 110.214L18.4325 110.214L18.4325 112.645L6.18456 112.645L6.18456 110.497C6.93973 110.466 7.6005 110.418 8.16688 110.355C7.41171 109.994 6.84533 109.537 6.46775 108.987C6.09016 108.42 5.90137 107.775 5.90137 107.052Z" fill="#A3A3A3"/>
<path d="M5.90137 120.405C5.90137 119.335 6.15309 118.399 6.65654 117.596C7.14425 116.794 7.82076 116.173 8.68606 115.732C9.53563 115.292 10.4953 115.071 11.5652 115.071C11.927 115.071 12.3597 115.111 12.8631 115.189L12.8631 123.779C14.0903 123.685 15.0185 123.307 15.6478 122.647C16.2614 121.986 16.5682 121.16 16.5682 120.169C16.5682 118.879 16.0332 117.943 14.9634 117.36L16.0254 115.543C16.875 115.858 17.5357 116.456 18.0077 117.337C18.464 118.218 18.6921 119.201 18.6921 120.287C18.6921 121.404 18.4482 122.419 17.9605 123.331C17.4571 124.244 16.7176 124.975 15.7422 125.526C14.7668 126.061 13.6025 126.328 12.2495 126.328C10.928 126.328 9.78735 126.061 8.82766 125.526C7.86796 124.975 7.14425 124.251 6.65654 123.355C6.15309 122.442 5.90137 121.459 5.90137 120.405ZM8.02529 120.499C8.02529 121.302 8.28488 122.002 8.80406 122.599C9.3075 123.182 10.0469 123.551 11.0224 123.709L11.0224 117.62C10.0784 117.683 9.34684 117.974 8.82766 118.493C8.29274 119.012 8.02529 119.681 8.02529 120.499Z" fill="#A3A3A3"/>
<path d="M0.473632 131.479L0.473632 129.072L18.4326 129.072L18.4326 131.196C17.3627 131.274 16.6941 131.33 16.4266 131.361C17.1818 131.801 17.7482 132.384 18.1258 133.107C18.5033 133.815 18.6921 134.57 18.6921 135.373C18.6921 136.333 18.4404 137.229 17.937 138.063C17.4335 138.897 16.702 139.566 15.7423 140.069C14.7668 140.572 13.6183 140.824 12.2968 140.824C10.991 140.824 9.85821 140.572 8.89851 140.069C7.92308 139.566 7.18365 138.897 6.6802 138.063C6.16102 137.229 5.90143 136.333 5.90143 135.373C5.90143 134.602 6.07449 133.878 6.42061 133.202C6.76673 132.509 7.27804 131.935 7.95455 131.479L0.473632 131.479ZM16.521 134.972C16.521 134.012 16.1749 133.194 15.4827 132.517C14.7904 131.825 13.7285 131.479 12.2968 131.479C10.8808 131.479 9.83461 131.825 9.1581 132.517C8.4816 133.194 8.14334 134.012 8.14334 134.972C8.14334 135.979 8.5052 136.789 9.2289 137.402C9.95261 138 10.9752 138.299 12.2968 138.299C13.6341 138.299 14.6724 138 15.4119 137.402C16.1513 136.789 16.521 135.979 16.521 134.972Z" fill="#A3A3A3"/>
<path d="M6.18457 146.01L6.18457 143.58L18.4325 143.58L18.4325 145.727C17.6459 145.759 16.9851 145.814 16.4502 145.892C17.2054 146.286 17.7717 146.829 18.1493 147.521C18.5112 148.213 18.6921 148.984 18.6921 149.834C18.6921 151.155 18.2594 152.209 17.3941 152.996C16.5288 153.782 15.2781 154.176 13.6419 154.176L6.18457 154.176L6.18457 151.769L12.9339 151.769C14.0509 151.769 14.9241 151.556 15.5534 151.131C16.167 150.707 16.4738 150.062 16.4738 149.196C16.4738 148.315 16.1591 147.568 15.5298 146.954C14.9005 146.325 14.0116 146.01 12.8631 146.01L6.18457 146.01Z" fill="#A3A3A3"/>
<path d="M5.90137 157.657C5.90137 157.248 5.95643 156.87 6.06656 156.524C6.17669 156.162 6.32615 155.879 6.51494 155.675L8.42647 156.595C8.20621 156.957 8.09608 157.358 8.09608 157.799C8.09608 158.695 8.4658 159.427 9.20524 159.993C9.94468 160.544 10.9988 160.819 12.3675 160.819L18.4325 160.819L18.4325 163.25L6.18456 163.25L6.18456 161.102C6.93973 161.071 7.6005 161.024 8.16688 160.961C7.41171 160.599 6.84533 160.143 6.46775 159.592C6.09016 159.026 5.90137 158.381 5.90137 157.657Z" fill="#A3A3A3"/>
<path d="M17.9368 165.088C18.4402 165.781 18.6919 166.701 18.6919 167.849C18.6919 169.014 18.3694 169.965 17.7244 170.705C17.0793 171.429 15.9308 171.79 14.2789 171.79L8.26112 171.79L8.26112 173.867L6.1844 173.867L6.1844 171.79L2.64453 171.79L2.64453 169.383L6.1844 169.383L6.1844 165.773L8.26112 165.773L8.26112 169.383L13.9485 169.383C15.6476 169.383 16.4972 168.754 16.4972 167.495C16.4972 166.929 16.3477 166.402 16.0488 165.914L17.9368 165.088Z" fill="#A3A3A3"/>
<path d="M10.4324 180.323L6.18457 177.302L6.18457 174.588L12.2731 179.049L18.4325 174.588L18.4325 177.467L14.1847 180.441L18.4325 183.462L18.4325 186.223L12.3675 181.739L6.18457 186.223L6.18457 183.296L10.4324 180.323Z" fill="#A3A3A3"/>
<path d="M5.90137 192.307C5.90137 191.237 6.15309 190.301 6.65654 189.499C7.14425 188.696 7.82076 188.075 8.68606 187.634C9.53563 187.194 10.4953 186.974 11.5652 186.974C11.927 186.974 12.3597 187.013 12.8631 187.092L12.8631 195.682C14.0903 195.587 15.0185 195.21 15.6478 194.549C16.2614 193.888 16.5682 193.062 16.5682 192.071C16.5682 190.781 16.0332 189.845 14.9634 189.263L16.0254 187.446C16.875 187.76 17.5357 188.358 18.0077 189.239C18.464 190.12 18.6921 191.104 18.6921 192.189C18.6921 193.306 18.4482 194.321 17.9605 195.233C17.4571 196.146 16.7176 196.877 15.7422 197.428C14.7668 197.963 13.6025 198.23 12.2495 198.23C10.928 198.23 9.78735 197.963 8.82766 197.428C7.86796 196.877 7.14425 196.154 6.65654 195.257C6.15309 194.344 5.90137 193.361 5.90137 192.307ZM8.02529 192.401C8.02529 193.204 8.28488 193.904 8.80406 194.502C9.3075 195.084 10.0469 195.454 11.0224 195.611L11.0224 189.522C10.0784 189.585 9.34684 189.876 8.82766 190.396C8.29274 190.915 8.02529 191.583 8.02529 192.401Z" fill="#A3A3A3"/>
<path d="M17.9368 205.721C18.4402 206.413 18.6919 207.334 18.6919 208.482C18.6919 209.646 18.3694 210.598 17.7244 211.338C17.0793 212.061 15.9308 212.423 14.2789 212.423L8.26112 212.423L8.26112 214.5L6.1844 214.5L6.1844 212.423L2.64453 212.423L2.64453 210.016L6.1844 210.016L6.1844 206.406L8.26112 206.406L8.26112 210.016L13.9485 210.016C15.6476 210.016 16.4972 209.387 16.4972 208.128C16.4972 207.562 16.3477 207.035 16.0488 206.547L17.9368 205.721Z" fill="#A3A3A3"/>
<path d="M2.40875 216.624C2.40875 217.253 2.62114 217.733 3.04592 218.063C3.47071 218.378 4.20228 218.535 5.24064 218.535L6.1846 218.535L6.1846 215.349L8.23773 215.349L8.23773 218.535L18.4325 218.535L18.4325 220.966L8.23773 220.966L8.23773 223.09L6.1846 223.09L6.1846 220.966L5.16984 220.966C3.47071 220.966 2.21995 220.573 1.41758 219.786C0.599481 218.999 0.190429 217.992 0.190429 216.765C0.190429 216.199 0.269093 215.688 0.426422 215.231C0.583749 214.775 0.788274 214.413 1.04 214.146L2.88073 215.09C2.56607 215.546 2.40875 216.057 2.40875 216.624Z" fill="#A3A3A3"/>
<path d="M5.90137 229.506C5.90137 228.436 6.15309 227.5 6.65654 226.698C7.14425 225.896 7.82076 225.274 8.68606 224.834C9.53563 224.393 10.4953 224.173 11.5652 224.173C11.927 224.173 12.3597 224.212 12.8631 224.291L12.8631 232.881C14.0903 232.787 15.0185 232.409 15.6478 231.748C16.2614 231.087 16.5682 230.261 16.5682 229.27C16.5682 227.98 16.0332 227.044 14.9634 226.462L16.0254 224.645C16.875 224.96 17.5357 225.557 18.0077 226.438C18.464 227.319 18.6921 228.303 18.6921 229.388C18.6921 230.505 18.4482 231.52 17.9605 232.433C17.4571 233.345 16.7176 234.077 15.7422 234.627C14.7668 235.162 13.6025 235.43 12.2495 235.43C10.928 235.43 9.78735 235.162 8.82766 234.627C7.86796 234.077 7.14425 233.353 6.65654 232.456C6.15309 231.544 5.90137 230.56 5.90137 229.506ZM8.02529 229.601C8.02529 230.403 8.28488 231.103 8.80406 231.701C9.3075 232.283 10.0469 232.653 11.0224 232.81L11.0224 226.722C10.0784 226.785 9.34684 227.076 8.82766 227.595C8.29274 228.114 8.02529 228.783 8.02529 229.601Z" fill="#A3A3A3"/>
<path d="M1.15723 247.48L1.15723 244.955L16.1663 244.955L16.1663 236.648L18.4318 236.648L18.4318 247.48L1.15723 247.48Z" fill="#A3A3A3"/>
</svg>
