<svg width="24" height="301" viewBox="0 0 24 301" fill="none" xmlns="http://www.w3.org/2000/svg">
<path d="M5.71094 31.5603C5.71094 30.0972 6.14359 28.9172 7.00889 28.0204C7.87419 27.1079 9.11707 26.6517 10.7375 26.6517L18.2421 26.6517L18.2421 28.752C17.5341 28.7835 17.0306 28.8228 16.7317 28.87C17.9117 29.6252 18.5017 30.8366 18.5017 32.5043C18.5017 33.3224 18.3522 34.0775 18.0533 34.7698C17.7543 35.4463 17.3217 35.9891 16.7553 36.3981C16.1889 36.8072 15.5046 37.0117 14.7022 37.0117C13.4908 37.0117 12.5311 36.5161 11.8231 35.525C11.1151 34.5338 10.7611 33.2673 10.7611 31.7255C10.7611 30.8602 10.8791 29.9713 11.1151 29.0588L11.0679 29.0588C9.95091 29.0588 9.13281 29.2791 8.61363 29.7196C8.07871 30.1601 7.81126 30.8209 7.81126 31.7019C7.81126 32.4099 7.96859 33.0077 8.28324 33.4954C8.58216 33.9674 9.02268 34.3686 9.60479 34.699L8.56643 36.4925C7.70113 36.0992 7.00889 35.462 6.48971 34.581C5.97053 33.7 5.71094 32.6931 5.71094 31.5603ZM12.9559 29.0588C12.7199 30.0028 12.6019 30.8287 12.6019 31.5367C12.6019 32.4807 12.7828 33.2122 13.1447 33.7314C13.5065 34.2506 14.01 34.5102 14.655 34.5102C15.2371 34.5102 15.7012 34.2978 16.0473 33.873C16.3777 33.4483 16.5429 32.8897 16.5429 32.1975C16.5429 31.3322 16.2991 30.5928 15.8114 29.9792C15.3079 29.3656 14.6157 29.0588 13.7346 29.0588L12.9559 29.0588Z" fill="#C0C0C0"/>
<path d="M5.71094 44.1821C5.71094 43.1123 5.96266 42.1762 6.46611 41.3738C6.95382 40.5714 7.63033 39.95 8.49563 39.5095C9.3452 39.069 10.3049 38.8487 11.3747 38.8487C11.7366 38.8487 12.1692 38.888 12.6727 38.9667L12.6727 47.5568C13.8998 47.4624 14.8281 47.0848 15.4574 46.424C16.0709 45.7632 16.3777 44.9373 16.3777 43.9461C16.3777 42.656 15.8428 41.7199 14.773 41.1378L15.835 39.3207C16.6845 39.6353 17.3453 40.2332 17.8173 41.1142C18.2735 41.9952 18.5017 42.9785 18.5017 44.0641C18.5017 45.1811 18.2578 46.1959 17.7701 47.1084C17.2666 48.0209 16.5272 48.7524 15.5518 49.3031C14.5763 49.838 13.4121 50.1055 12.0591 50.1055C10.7375 50.1055 9.59692 49.838 8.63723 49.3031C7.67753 48.7524 6.95382 48.0287 6.46611 47.132C5.96266 46.2195 5.71094 45.2362 5.71094 44.1821ZM7.83486 44.2765C7.83486 45.0789 8.09445 45.779 8.61363 46.3768C9.11707 46.9589 9.85651 47.3286 10.8319 47.486L10.8319 41.3974C9.88798 41.4603 9.15641 41.7514 8.63723 42.2706C8.10231 42.7897 7.83486 43.4584 7.83486 44.2765Z" fill="#C0C0C0"/>
<path d="M5.71094 52.2625C5.71094 51.8534 5.766 51.4758 5.87613 51.1297C5.98626 50.7679 6.13572 50.4847 6.32451 50.2802L8.23604 51.2005C8.01578 51.5624 7.90565 51.9636 7.90565 52.4041C7.90565 53.3008 8.27537 54.0324 9.01481 54.5988C9.75425 55.1494 10.8083 55.4248 12.1771 55.4248L18.2421 55.4248L18.2421 57.8555L5.99413 57.8555L5.99413 55.7079C6.7493 55.6765 7.41007 55.6293 7.97645 55.5664C7.22128 55.2045 6.6549 54.7483 6.27732 54.1976C5.89973 53.6312 5.71094 52.9862 5.71094 52.2625Z" fill="#C0C0C0"/>
<path d="M5.71094 66.0134C5.71094 64.5503 6.14359 63.3703 7.00889 62.4736C7.87419 61.5611 9.11707 61.1048 10.7375 61.1048L18.2421 61.1048L18.2421 63.2051C17.5341 63.2366 17.0306 63.2759 16.7317 63.3231C17.9117 64.0783 18.5017 65.2897 18.5017 66.9574C18.5017 67.7755 18.3522 68.5307 18.0533 69.2229C17.7543 69.8994 17.3217 70.4422 16.7553 70.8513C16.1889 71.2603 15.5046 71.4648 14.7022 71.4648C13.4908 71.4648 12.5311 70.9693 11.8231 69.9781C11.1151 68.9869 10.7611 67.7204 10.7611 66.1786C10.7611 65.3133 10.8791 64.4244 11.1151 63.5119L11.0679 63.5119C9.95091 63.5119 9.13281 63.7322 8.61363 64.1727C8.07871 64.6132 7.81126 65.274 7.81126 66.155C7.81126 66.863 7.96859 67.4609 8.28324 67.9486C8.58216 68.4206 9.02268 68.8217 9.60479 69.1521L8.56643 70.9457C7.70113 70.5523 7.00889 69.9152 6.48971 69.0341C5.97053 68.1531 5.71094 67.1462 5.71094 66.0134ZM12.9559 63.5119C12.7199 64.4559 12.6019 65.2819 12.6019 65.9898C12.6019 66.9338 12.7828 67.6654 13.1447 68.1846C13.5065 68.7037 14.01 68.9633 14.655 68.9633C15.2371 68.9633 15.7012 68.7509 16.0473 68.3262C16.3777 67.9014 16.5429 67.3429 16.5429 66.6506C16.5429 65.7853 16.2991 65.0459 15.8114 64.4323C15.3079 63.8187 14.6157 63.5119 13.7346 63.5119L12.9559 63.5119Z" fill="#C0C0C0"/>
<path d="M5.99414 81.6782L5.99414 79.1531L20.2716 84.8169C21.6089 85.3361 22.5607 85.9182 23.1271 86.5632C23.7092 87.1925 24.0003 88.0421 24.0003 89.1119C24.0003 90.1346 23.7328 90.9605 23.1979 91.5898L21.2864 90.6459C21.6167 90.2054 21.7819 89.694 21.7819 89.1119C21.7819 88.6085 21.6089 88.1916 21.2628 87.8612C20.9324 87.5151 20.2795 87.1375 19.304 86.7284L18.3837 86.3272L5.99414 91.4955L5.99414 88.7344L15.3866 85.1001L5.99414 81.6782Z" fill="#C0C0C0"/>
<path d="M18.2421 93.3349L18.2421 95.7656L0.283203 95.7656L0.283203 93.3349L18.2421 93.3349Z" fill="#C0C0C0"/>
<path d="M5.71094 103.359C5.71094 102.038 6.14359 100.984 7.00889 100.197C7.87419 99.4104 9.12494 99.0171 10.7611 99.0171L18.2421 99.0171L18.2421 101.448L11.4927 101.448C10.36 101.448 9.48679 101.66 8.87322 102.085C8.25964 102.51 7.95285 103.155 7.95285 104.02C7.95285 104.901 8.26751 105.656 8.89682 106.286C9.51039 106.899 10.3914 107.206 11.5399 107.206L18.2421 107.206L18.2421 109.637L5.99413 109.637L5.99413 107.489C6.76503 107.458 7.43367 107.411 8.00005 107.348C7.24488 106.939 6.6785 106.396 6.30091 105.719C5.9076 105.027 5.71094 104.24 5.71094 103.359Z" fill="#C0C0C0"/>
<path d="M12.1063 124.359C10.8634 124.359 9.75425 124.084 8.77882 123.533C7.80339 122.983 7.04822 122.251 6.51331 121.339C5.97839 120.41 5.71094 119.411 5.71094 118.342C5.71094 117.288 5.97839 116.304 6.51331 115.392C7.04822 114.479 7.80339 113.748 8.77882 113.197C9.75425 112.646 10.8634 112.371 12.1063 112.371C13.3492 112.371 14.4583 112.646 15.4338 113.197C16.4092 113.748 17.1644 114.479 17.6993 115.392C18.2342 116.304 18.5017 117.288 18.5017 118.342C18.5017 119.411 18.2342 120.41 17.6993 121.339C17.1644 122.251 16.4092 122.983 15.4338 123.533C14.4583 124.084 13.3492 124.359 12.1063 124.359ZM12.1063 121.811C13.3964 121.811 14.419 121.488 15.1742 120.843C15.9294 120.182 16.3069 119.356 16.3069 118.365C16.3069 117.358 15.9294 116.532 15.1742 115.887C14.419 115.242 13.3964 114.92 12.1063 114.92C10.8162 114.92 9.79358 115.25 9.03841 115.911C8.28324 116.556 7.90565 117.374 7.90565 118.365C7.90565 119.356 8.28324 120.182 9.03841 120.843C9.79358 121.488 10.8162 121.811 12.1063 121.811Z" fill="#C0C0C0"/>
<path d="M5.71094 133.661C5.71094 133.252 5.766 132.874 5.87613 132.528C5.98626 132.166 6.13572 131.883 6.32451 131.679L8.23604 132.599C8.01578 132.961 7.90565 133.362 7.90565 133.803C7.90565 134.699 8.27537 135.431 9.01481 135.997C9.75425 136.548 10.8083 136.823 12.1771 136.823L18.2421 136.823L18.2421 139.254L5.99413 139.254L5.99413 137.106C6.7493 137.075 7.41007 137.028 7.97645 136.965C7.22128 136.603 6.6549 136.147 6.27732 135.596C5.89973 135.03 5.71094 134.385 5.71094 133.661Z" fill="#C0C0C0"/>
<path d="M5.71094 147.014C5.71094 145.944 5.96266 145.008 6.46611 144.206C6.95382 143.403 7.63033 142.782 8.49563 142.342C9.3452 141.901 10.3049 141.681 11.3747 141.681C11.7366 141.681 12.1692 141.72 12.6727 141.799L12.6727 150.389C13.8998 150.294 14.8281 149.917 15.4574 149.256C16.0709 148.595 16.3777 147.769 16.3777 146.778C16.3777 145.488 15.8428 144.552 14.773 143.97L15.835 142.153C16.6845 142.467 17.3453 143.065 17.8173 143.946C18.2735 144.827 18.5017 145.811 18.5017 146.896C18.5017 148.013 18.2578 149.028 17.7701 149.94C17.2666 150.853 16.5272 151.584 15.5518 152.135C14.5763 152.67 13.4121 152.937 12.0591 152.937C10.7375 152.937 9.59692 152.67 8.63723 152.135C7.67753 151.584 6.95382 150.861 6.46611 149.964C5.96266 149.052 5.71094 148.068 5.71094 147.014ZM7.83486 147.109C7.83486 147.911 8.09445 148.611 8.61363 149.209C9.11707 149.791 9.85651 150.161 10.8319 150.318L10.8319 144.229C9.88798 144.292 9.15641 144.583 8.63723 145.103C8.10231 145.622 7.83486 146.29 7.83486 147.109Z" fill="#C0C0C0"/>
<path d="M0.283203 158.088L0.283203 155.681L18.2421 155.681L18.2421 157.805C17.1723 157.884 16.5037 157.939 16.2362 157.97C16.9914 158.411 17.5577 158.993 17.9353 159.717C18.3129 160.425 18.5017 161.18 18.5017 161.982C18.5017 162.942 18.25 163.839 17.7465 164.672C17.2431 165.506 16.5115 166.175 15.5518 166.678C14.5764 167.182 13.4279 167.434 12.1064 167.434C10.8005 167.434 9.66778 167.182 8.70808 166.678C7.73265 166.175 6.99322 165.506 6.48977 164.672C5.97059 163.839 5.711 162.942 5.711 161.982C5.711 161.211 5.88406 160.488 6.23018 159.811C6.5763 159.119 7.08761 158.545 7.76412 158.088L0.283203 158.088ZM16.3306 161.581C16.3306 160.621 15.9845 159.803 15.2922 159.127C14.6 158.434 13.538 158.088 12.1064 158.088C10.6904 158.088 9.64418 158.434 8.96767 159.127C8.29117 159.803 7.95291 160.621 7.95291 161.581C7.95291 162.588 8.31477 163.398 9.03847 164.012C9.76218 164.61 10.7848 164.908 12.1064 164.908C13.4436 164.908 14.482 164.61 15.2214 164.012C15.9609 163.398 16.3306 162.588 16.3306 161.581Z" fill="#C0C0C0"/>
<path d="M5.99414 172.62L5.99414 170.189L18.2421 170.189L18.2421 172.337C17.4554 172.368 16.7947 172.423 16.2598 172.502C17.0149 172.895 17.5813 173.438 17.9589 174.13C18.3207 174.822 18.5017 175.593 18.5017 176.443C18.5017 177.764 18.069 178.819 17.2037 179.605C16.3384 180.392 15.0877 180.785 13.4515 180.785L5.99414 180.785L5.99414 178.378L12.7435 178.378C13.8605 178.378 14.7337 178.166 15.363 177.741C15.9766 177.316 16.2834 176.671 16.2834 175.806C16.2834 174.925 15.9687 174.177 15.3394 173.564C14.7101 172.935 13.8212 172.62 12.6727 172.62L5.99414 172.62Z" fill="#C0C0C0"/>
<path d="M5.71094 184.266C5.71094 183.857 5.766 183.48 5.87613 183.134C5.98626 182.772 6.13572 182.489 6.32451 182.284L8.23604 183.204C8.01578 183.566 7.90565 183.967 7.90565 184.408C7.90565 185.305 8.27537 186.036 9.01481 186.603C9.75425 187.153 10.8083 187.429 12.1771 187.429L18.2421 187.429L18.2421 189.859L5.99413 189.859L5.99413 187.712C6.7493 187.68 7.41007 187.633 7.97645 187.57C7.22128 187.208 6.6549 186.752 6.27732 186.202C5.89973 185.635 5.71094 184.99 5.71094 184.266Z" fill="#C0C0C0"/>
<path d="M17.7463 191.698C18.2498 192.39 18.5015 193.31 18.5015 194.459C18.5015 195.623 18.179 196.575 17.5339 197.314C16.8889 198.038 15.7404 198.4 14.0885 198.4L8.07069 198.4L8.07069 200.477L5.99397 200.477L5.99397 198.4L2.4541 198.4L2.4541 195.993L5.99397 195.993L5.99397 192.382L8.07069 192.382L8.07069 195.993L13.7581 195.993C15.4572 195.993 16.3068 195.363 16.3068 194.105C16.3068 193.538 16.1573 193.011 15.8584 192.524L17.7463 191.698Z" fill="#C0C0C0"/>
<path d="M10.242 206.932L5.99414 203.912L5.99414 201.198L12.0827 205.658L18.2421 201.198L18.2421 204.077L13.9942 207.05L18.2421 210.071L18.2421 212.832L12.1771 208.348L5.99414 212.832L5.99414 209.906L10.242 206.932Z" fill="#C0C0C0"/>
<path d="M5.71094 218.916C5.71094 217.847 5.96266 216.911 6.46611 216.108C6.95382 215.306 7.63033 214.684 8.49563 214.244C9.3452 213.803 10.3049 213.583 11.3747 213.583C11.7366 213.583 12.1692 213.622 12.6727 213.701L12.6727 222.291C13.8998 222.197 14.8281 221.819 15.4574 221.158C16.0709 220.498 16.3777 219.672 16.3777 218.68C16.3777 217.39 15.8428 216.454 14.773 215.872L15.835 214.055C16.6845 214.37 17.3453 214.968 17.8173 215.849C18.2735 216.73 18.5017 217.713 18.5017 218.798C18.5017 219.915 18.2578 220.93 17.7701 221.843C17.2666 222.755 16.5272 223.487 15.5518 224.037C14.5763 224.572 13.4121 224.84 12.0591 224.84C10.7375 224.84 9.59692 224.572 8.63723 224.037C7.67753 223.487 6.95382 222.763 6.46611 221.866C5.96266 220.954 5.71094 219.971 5.71094 218.916ZM7.83486 219.011C7.83486 219.813 8.09445 220.513 8.61363 221.111C9.11707 221.693 9.85651 222.063 10.8319 222.22L10.8319 216.132C9.88798 216.195 9.15641 216.486 8.63723 217.005C8.10231 217.524 7.83486 218.193 7.83486 219.011Z" fill="#C0C0C0"/>
<path d="M17.7463 232.331C18.2498 233.023 18.5015 233.943 18.5015 235.092C18.5015 236.256 18.179 237.208 17.5339 237.947C16.8889 238.671 15.7404 239.033 14.0885 239.033L8.07069 239.033L8.07069 241.109L5.99397 241.109L5.99397 239.033L2.4541 239.033L2.4541 236.626L5.99397 236.626L5.99397 233.015L8.07069 233.015L8.07069 236.626L13.7581 236.626C15.4572 236.626 16.3068 235.996 16.3068 234.738C16.3068 234.171 16.1573 233.644 15.8584 233.156L17.7463 232.331Z" fill="#C0C0C0"/>
<path d="M2.21832 243.233C2.21832 243.862 2.43071 244.342 2.85549 244.673C3.28028 244.987 4.01185 245.145 5.05021 245.145L5.99417 245.145L5.99417 241.959L8.0473 241.959L8.0473 245.145L18.2421 245.145L18.2421 247.575L8.0473 247.575L8.0473 249.699L5.99417 249.699L5.99417 247.575L4.97941 247.575C3.28028 247.575 2.02952 247.182 1.22715 246.395C0.409051 245.609 -2.22815e-07 244.602 -2.76455e-07 243.375C-3.01213e-07 242.808 0.0786637 242.297 0.235992 241.841C0.393319 241.384 0.597844 241.023 0.849568 240.755L2.6903 241.699C2.37564 242.155 2.21832 242.667 2.21832 243.233Z" fill="#C0C0C0"/>
<path d="M5.71094 256.116C5.71094 255.046 5.96266 254.11 6.46611 253.307C6.95382 252.505 7.63033 251.884 8.49563 251.443C9.3452 251.003 10.3049 250.782 11.3747 250.782C11.7366 250.782 12.1692 250.822 12.6727 250.9L12.6727 259.49C13.8998 259.396 14.8281 259.018 15.4574 258.358C16.0709 257.697 16.3777 256.871 16.3777 255.88C16.3777 254.59 15.8428 253.654 14.773 253.071L15.835 251.254C16.6845 251.569 17.3453 252.167 17.8173 253.048C18.2735 253.929 18.5017 254.912 18.5017 255.998C18.5017 257.115 18.2578 258.129 17.7701 259.042C17.2666 259.954 16.5272 260.686 15.5518 261.237C14.5763 261.772 13.4121 262.039 12.0591 262.039C10.7375 262.039 9.59692 261.772 8.63723 261.237C7.67753 260.686 6.95382 259.962 6.46611 259.066C5.96266 258.153 5.71094 257.17 5.71094 256.116ZM7.83486 256.21C7.83486 257.012 8.09445 257.713 8.61363 258.31C9.11707 258.893 9.85651 259.262 10.8319 259.42L10.8319 253.331C9.88798 253.394 9.15641 253.685 8.63723 254.204C8.10231 254.723 7.83486 255.392 7.83486 256.21Z" fill="#C0C0C0"/>
<path d="M0.966797 274.09L0.966797 271.565L15.9758 271.565L15.9758 263.258L18.2413 263.258L18.2413 274.09L0.966797 274.09Z" fill="#C0C0C0"/>
</svg>
