<svg width="24" height="62" viewBox="0 0 24 62" fill="none" xmlns="http://www.w3.org/2000/svg">
<path d="M23.3303 7.74414H8.04517C4.88895 7.74414 2.33032 10.3028 2.33032 13.459V44.0802H23.3303V7.74414Z" fill="#626262"/>
<ellipse cx="6.3" cy="0.89351" rx="6.3" ry="0.89351" transform="matrix(-1 0 0 1 20.5303 7.14844)" fill="#383938"/>
<path fill-rule="evenodd" clip-rule="evenodd" d="M9.51493 0H18.4303V7.80938H18.4301C18.4245 8.06259 16.4309 8.26768 13.9724 8.26768C11.5105 8.26768 9.51471 8.06201 9.51471 7.80831C9.51471 7.8068 9.51478 7.80529 9.51493 7.80378V0Z" fill="#9C9C9C"/>
<rect width="6.3" height="6.5524" rx="3.15" transform="matrix(-1 0 0 1 17.0303 1.19141)" fill="#848484"/>
<rect width="6.3" height="15.4875" transform="matrix(-1 0 0 1 11.4303 44.0801)" fill="#404040"/>
<path d="M12.3053 12.6476C13.6664 11.9613 17.777 10.5887 23.3303 10.5887V42.0609H10.672V42.9433H7.40532C7.54143 42.7472 7.73199 42.2373 7.40532 41.7667C7.07866 41.2961 4.81921 41.1785 3.73032 41.1785V39.4137V37.0606L4.13866 25.0012L7.40532 22.6481V14.4124L4.54699 11.177C4.41088 10.7848 4.30199 9.8828 4.95532 9.41219C5.60866 8.94158 6.86088 9.2161 7.40532 9.41219L12.3053 12.6476Z" fill="#8B8B8B"/>
<path d="M20.5303 17.5711V13.1035L13.5303 14.8905L17.2362 18.4646L20.5303 17.5711Z" fill="#454545"/>
<path d="M15.6303 18.9056L11.8503 16.084H11.4303V21.445H12.2703L15.6303 18.9056Z" fill="#454545"/>
<rect width="9.8" height="5.95673" transform="matrix(-1 0 0 1 20.5303 43.4844)" fill="#8B8B8B"/>
<rect width="12.6" height="7.74375" rx="2.28594" transform="matrix(-1 0 0 1 21.9303 49.4395)" fill="#292929"/>
<path d="M20.5303 60.162V57.1836H11.4303V60.162L13.0849 61.3533H18.8758L20.5303 60.162Z" fill="#333333"/>
<path d="M16.5053 61.9492L17.0303 61.3535H14.9303L15.4553 61.9492H16.5053Z" fill="#CFCFCF"/>
<rect width="6.3" height="16.6788" rx="2.28594" transform="matrix(-1 0 0 1 7.23032 44.0801)" fill="#515151"/>
<ellipse cx="7" cy="7.03977" rx="7" ry="7.03977" transform="matrix(-1 0 0 1 21.2303 23.2324)" fill="#00AE42"/>
</svg>
