<svg width="39" height="391" viewBox="0 0 39 391" fill="none" xmlns="http://www.w3.org/2000/svg">
<g clip-path="url(#clip0_18942_38897)">
<path d="M13.1182 69.5893C13.1182 67.9093 13.5982 66.5973 14.5582 65.6533C15.5022 64.7093 16.8542 64.2373 18.6142 64.2373L25.8622 64.2373L25.8622 67.0453C25.7342 67.0613 25.5262 67.0853 25.2382 67.1173C24.9342 67.1333 24.6702 67.1653 24.4462 67.2133C25.0222 67.5813 25.4542 68.0613 25.7422 68.6533C26.0142 69.2293 26.1502 69.9333 26.1502 70.7653C26.1502 71.6293 25.9982 72.4213 25.6942 73.1413C25.3902 73.8453 24.9502 74.4053 24.3742 74.8213C23.7822 75.2373 23.0862 75.4453 22.2862 75.4453C21.4542 75.4453 20.7342 75.2133 20.1262 74.7493C19.5022 74.2693 19.0222 73.6293 18.6862 72.8293C18.3502 72.0293 18.1822 71.1493 18.1822 70.1893C18.1822 69.3253 18.3262 68.4373 18.6142 67.5253C16.7742 67.5733 15.8542 68.3573 15.8542 69.8773C15.8542 71.0933 16.3982 71.9813 17.4862 72.5413L16.1182 74.9173C15.1902 74.4693 14.4622 73.7813 13.9342 72.8533C13.3902 71.9253 13.1182 70.8373 13.1182 69.5893ZM20.8222 67.5253C20.6302 68.3253 20.5342 69.0213 20.5342 69.6133C20.5342 70.3973 20.6782 71.0053 20.9662 71.4373C21.2382 71.8693 21.6302 72.0853 22.1422 72.0853C22.6062 72.0853 22.9662 71.9173 23.2222 71.5813C23.4782 71.2293 23.6062 70.7813 23.6062 70.2373C23.6062 69.5173 23.4062 68.8853 23.0062 68.3413C22.5902 67.7973 22.0222 67.5253 21.3022 67.5253L20.8222 67.5253Z" fill="#B3B3B3"/>
<path d="M13.1182 82.6858C13.1182 81.5818 13.3662 80.6058 13.8622 79.7578C14.3422 78.8938 15.0302 78.2298 15.9262 77.7658C16.8062 77.2858 17.8222 77.0458 18.9742 77.0458C19.4862 77.0458 20.0062 77.0938 20.5342 77.1898L20.5342 85.4458C21.4622 85.3018 22.1662 84.9658 22.6462 84.4378C23.1102 83.9098 23.3422 83.2538 23.3422 82.4698C23.3422 81.9098 23.2222 81.4138 22.9822 80.9818C22.7262 80.5338 22.3502 80.1898 21.8542 79.9498L23.2942 77.5018C24.2062 77.8378 24.9102 78.4858 25.4062 79.4458C25.9022 80.3898 26.1502 81.4458 26.1502 82.6138C26.1502 83.7338 25.9022 84.7738 25.4062 85.7338C24.9102 86.6938 24.1662 87.4698 23.1742 88.0618C22.1822 88.6378 20.9902 88.9258 19.5982 88.9258C18.2222 88.9258 17.0462 88.6378 16.0702 88.0618C15.0942 87.4698 14.3582 86.7018 13.8622 85.7578C13.3662 84.8138 13.1182 83.7898 13.1182 82.6858ZM15.8302 82.7818C15.8302 83.4378 16.0382 83.9978 16.4542 84.4618C16.8702 84.9258 17.4542 85.2378 18.2062 85.3978L18.2062 80.4538C17.4382 80.5178 16.8542 80.7658 16.4542 81.1978C16.0382 81.6138 15.8302 82.1418 15.8302 82.7818Z" fill="#B3B3B3"/>
<path d="M13.1182 91.0992C13.1182 90.6192 13.1902 90.1712 13.3342 89.7552C13.4782 89.3392 13.6622 89.0192 13.8862 88.7952L16.4542 90.0912C16.1662 90.5072 16.0222 90.9792 16.0222 91.5072C16.0222 92.3712 16.3822 93.0672 17.1022 93.5952C17.8222 94.1072 18.8142 94.3632 20.0782 94.3632L25.8622 94.3632L25.8622 97.6992L13.4302 97.6992L13.4302 94.7712C14.3902 94.6912 15.0462 94.6192 15.3982 94.5552C14.6462 94.1872 14.0782 93.7072 13.6942 93.1152C13.3102 92.5232 13.1182 91.8512 13.1182 91.0992Z" fill="#B3B3B3"/>
<path d="M13.1182 105.988C13.1182 104.308 13.5982 102.996 14.5582 102.052C15.5022 101.108 16.8542 100.636 18.6142 100.636L25.8622 100.636L25.8622 103.444C25.7342 103.46 25.5262 103.484 25.2382 103.516C24.9342 103.532 24.6702 103.564 24.4462 103.612C25.0222 103.98 25.4542 104.46 25.7422 105.052C26.0142 105.628 26.1502 106.332 26.1502 107.164C26.1502 108.028 25.9982 108.82 25.6942 109.54C25.3902 110.244 24.9502 110.804 24.3742 111.22C23.7822 111.636 23.0862 111.844 22.2862 111.844C21.4542 111.844 20.7342 111.612 20.1262 111.148C19.5022 110.668 19.0222 110.028 18.6862 109.228C18.3502 108.428 18.1822 107.548 18.1822 106.588C18.1822 105.724 18.3262 104.836 18.6142 103.924C16.7742 103.972 15.8542 104.756 15.8542 106.276C15.8542 107.492 16.3982 108.38 17.4862 108.94L16.1182 111.316C15.1902 110.868 14.4622 110.18 13.9342 109.252C13.3902 108.324 13.1182 107.236 13.1182 105.988ZM20.8222 103.924C20.6302 104.724 20.5342 105.42 20.5342 106.012C20.5342 106.796 20.6782 107.404 20.9662 107.836C21.2382 108.268 21.6302 108.484 22.1422 108.484C22.6062 108.484 22.9662 108.316 23.2222 107.98C23.4782 107.628 23.6062 107.18 23.6062 106.636C23.6062 105.916 23.4062 105.284 23.0062 104.74C22.5902 104.196 22.0222 103.924 21.3022 103.924L20.8222 103.924Z" fill="#B3B3B3"/>
<path d="M13.4268 122.857L13.4268 119.378L27.4908 124.969C28.9788 125.561 30.0508 126.257 30.7068 127.057C31.3788 127.841 31.7148 128.826 31.7148 130.01C31.7148 130.586 31.6268 131.129 31.4508 131.641C31.2908 132.137 31.0668 132.569 30.7788 132.937L28.2348 131.617C28.5868 131.137 28.7628 130.609 28.7628 130.033C28.7628 129.665 28.6828 129.354 28.5228 129.098C28.3788 128.826 28.1148 128.569 27.7308 128.329C27.3628 128.089 26.8108 127.81 26.0748 127.49L13.4268 132.889L13.4268 129.145L21.9948 125.857L13.4268 122.857Z" fill="#B3B3B3"/>
<path d="M25.8587 134.465L25.8587 137.801L7.59473 137.801L7.59473 134.465L25.8587 134.465Z" fill="#B3B3B3"/>
<path d="M13.1182 145.157C13.1182 143.781 13.5742 142.693 14.4862 141.893C15.3822 141.093 16.6942 140.693 18.4222 140.693L25.8622 140.693L25.8622 144.029L19.5022 144.029C17.2302 144.029 16.0942 144.781 16.0942 146.285C16.0942 147.085 16.4062 147.733 17.0302 148.229C17.6382 148.709 18.5022 148.949 19.6222 148.949L25.8622 148.949L25.8622 152.285L13.4302 152.285L13.4302 149.357C14.4062 149.277 15.0702 149.205 15.4222 149.141C13.8862 148.341 13.1182 147.013 13.1182 145.157Z" fill="#B3B3B3"/>
<path d="M19.6462 167.418C18.3502 167.418 17.2062 167.13 16.2142 166.554C15.2222 165.962 14.4622 165.178 13.9342 164.202C13.3902 163.226 13.1182 162.17 13.1182 161.034C13.1182 159.914 13.3902 158.874 13.9342 157.914C14.4622 156.938 15.2222 156.162 16.2142 155.586C17.2062 154.994 18.3502 154.698 19.6462 154.698C20.9422 154.698 22.0862 154.994 23.0782 155.586C24.0702 156.162 24.8302 156.938 25.3582 157.914C25.8862 158.874 26.1502 159.914 26.1502 161.034C26.1502 162.17 25.8862 163.226 25.3582 164.202C24.8302 165.178 24.0702 165.962 23.0782 166.554C22.0862 167.13 20.9422 167.418 19.6462 167.418ZM19.6462 163.962C20.7502 163.962 21.6302 163.69 22.2862 163.146C22.9262 162.586 23.2462 161.89 23.2462 161.058C23.2462 160.226 22.9262 159.538 22.2862 158.994C21.6302 158.45 20.7502 158.178 19.6462 158.178C18.5422 158.178 17.6622 158.45 17.0062 158.994C16.3502 159.538 16.0222 160.226 16.0222 161.058C16.0222 161.89 16.3502 162.586 17.0062 163.146C17.6622 163.69 18.5422 163.962 19.6462 163.962Z" fill="#B3B3B3"/>
<path d="M13.1182 176.88C13.1182 176.4 13.1902 175.952 13.3342 175.536C13.4782 175.12 13.6622 174.8 13.8862 174.576L16.4542 175.872C16.1662 176.288 16.0222 176.76 16.0222 177.288C16.0222 178.152 16.3822 178.848 17.1022 179.376C17.8222 179.888 18.8142 180.144 20.0782 180.144L25.8622 180.144L25.8622 183.48L13.4302 183.48L13.4302 180.552C14.3902 180.472 15.0462 180.4 15.3982 180.336C14.6462 179.968 14.0782 179.488 13.6942 178.896C13.3102 178.304 13.1182 177.632 13.1182 176.88Z" fill="#B3B3B3"/>
<path d="M13.1182 191.319C13.1182 190.215 13.3662 189.239 13.8622 188.391C14.3422 187.527 15.0302 186.863 15.9262 186.399C16.8062 185.919 17.8222 185.679 18.9742 185.679C19.4862 185.679 20.0062 185.727 20.5342 185.823L20.5342 194.079C21.4622 193.935 22.1662 193.599 22.6462 193.071C23.1102 192.543 23.3422 191.887 23.3422 191.103C23.3422 190.543 23.2222 190.047 22.9822 189.615C22.7262 189.167 22.3502 188.823 21.8542 188.583L23.2942 186.135C24.2062 186.471 24.9102 187.119 25.4062 188.079C25.9022 189.023 26.1502 190.079 26.1502 191.247C26.1502 192.367 25.9022 193.407 25.4062 194.367C24.9102 195.327 24.1662 196.103 23.1742 196.695C22.1822 197.271 20.9902 197.559 19.5982 197.559C18.2222 197.559 17.0462 197.271 16.0702 196.695C15.0942 196.103 14.3582 195.335 13.8622 194.391C13.3662 193.447 13.1182 192.423 13.1182 191.319ZM15.8302 191.415C15.8302 192.071 16.0382 192.631 16.4542 193.095C16.8702 193.559 17.4542 193.871 18.2062 194.031L18.2062 189.087C17.4382 189.151 16.8542 189.399 16.4542 189.831C16.0382 190.247 15.8302 190.775 15.8302 191.415Z" fill="#B3B3B3"/>
<path d="M7.59473 203.292L7.59473 199.956L25.8587 199.956L25.8587 202.884C24.9307 202.964 24.3067 203.028 23.9867 203.076C24.7067 203.508 25.2507 204.076 25.6187 204.78C25.9707 205.468 26.1467 206.22 26.1467 207.036C26.1467 208.06 25.8907 208.996 25.3787 209.844C24.8667 210.692 24.1227 211.372 23.1467 211.884C22.1547 212.396 20.9867 212.652 19.6427 212.652C18.2827 212.652 17.1147 212.396 16.1387 211.884C15.1467 211.372 14.3947 210.692 13.8827 209.844C13.3707 208.996 13.1147 208.06 13.1147 207.036C13.1147 206.284 13.2667 205.588 13.5707 204.948C13.8747 204.292 14.3387 203.74 14.9627 203.292L7.59473 203.292ZM23.2907 206.268C23.2907 205.436 22.9867 204.732 22.3787 204.156C21.7707 203.58 20.8587 203.292 19.6427 203.292C18.4427 203.292 17.5547 203.58 16.9787 204.156C16.3867 204.732 16.0907 205.436 16.0907 206.268C16.0907 207.148 16.4027 207.86 17.0267 208.404C17.6507 208.932 18.5227 209.196 19.6427 209.196C20.7627 209.196 21.6507 208.932 22.3067 208.404C22.9627 207.86 23.2907 207.148 23.2907 206.268Z" fill="#B3B3B3"/>
<path d="M13.4268 218.377L13.4268 215.041L25.8588 215.041L25.8588 217.993C24.8988 218.057 24.2508 218.121 23.9148 218.185C24.6668 218.601 25.2268 219.145 25.5948 219.817C25.9628 220.489 26.1468 221.257 26.1468 222.121C26.1468 223.513 25.6988 224.609 24.8028 225.409C23.9068 226.209 22.5948 226.609 20.8668 226.609L13.4268 226.609L13.4268 223.273L19.7628 223.273C22.0508 223.273 23.1948 222.537 23.1948 221.065C23.1948 220.265 22.8828 219.617 22.2588 219.121C21.6348 218.625 20.7628 218.377 19.6428 218.377L13.4268 218.377Z" fill="#B3B3B3"/>
<path d="M13.1182 230.13C13.1182 229.65 13.1902 229.202 13.3342 228.786C13.4782 228.37 13.6622 228.05 13.8862 227.826L16.4542 229.122C16.1662 229.538 16.0222 230.01 16.0222 230.538C16.0222 231.402 16.3822 232.098 17.1022 232.626C17.8222 233.138 18.8142 233.394 20.0782 233.394L25.8622 233.394L25.8622 236.73L13.4302 236.73L13.4302 233.802C14.3902 233.722 15.0462 233.65 15.3982 233.586C14.6462 233.218 14.0782 232.738 13.6942 232.146C13.3102 231.554 13.1182 230.882 13.1182 230.13Z" fill="#B3B3B3"/>
<path d="M25.1423 238.236C25.8143 239.052 26.1503 240.188 26.1503 241.644C26.1503 242.988 25.7983 244.076 25.0943 244.908C24.3743 245.724 23.0943 246.132 21.2543 246.132L16.2383 246.132L16.2383 248.34L13.4303 248.34L13.4303 246.132L9.61426 246.132L9.61426 242.796L13.4303 242.796L13.4303 239.052L16.2383 239.052L16.2383 242.796L20.7023 242.796C21.5343 242.796 22.1663 242.652 22.5983 242.364C23.0303 242.076 23.2463 241.612 23.2463 240.972C23.2463 240.412 23.0783 239.884 22.7423 239.388L25.1423 238.236Z" fill="#B3B3B3"/>
<path d="M17.1228 255.22L13.4268 252.58L13.4268 248.932L19.5708 253.492L25.8588 248.932L25.8588 252.748L22.1388 255.364L25.8588 257.956L25.8588 261.652L19.7148 257.092L13.4268 261.652L13.4268 257.788L17.1228 255.22Z" fill="#B3B3B3"/>
<path d="M13.1182 267.701C13.1182 266.597 13.3662 265.621 13.8622 264.773C14.3422 263.909 15.0302 263.245 15.9262 262.781C16.8062 262.301 17.8222 262.061 18.9742 262.061C19.4862 262.061 20.0062 262.109 20.5342 262.205L20.5342 270.461C21.4622 270.317 22.1662 269.981 22.6462 269.453C23.1102 268.925 23.3422 268.269 23.3422 267.485C23.3422 266.925 23.2222 266.429 22.9822 265.997C22.7262 265.549 22.3502 265.205 21.8542 264.965L23.2942 262.517C24.2062 262.853 24.9102 263.501 25.4062 264.461C25.9022 265.405 26.1502 266.461 26.1502 267.629C26.1502 268.749 25.9022 269.789 25.4062 270.749C24.9102 271.709 24.1662 272.485 23.1742 273.077C22.1822 273.653 20.9902 273.941 19.5982 273.941C18.2222 273.941 17.0462 273.653 16.0702 273.077C15.0942 272.485 14.3582 271.717 13.8622 270.773C13.3662 269.829 13.1182 268.805 13.1182 267.701ZM15.8302 267.797C15.8302 268.453 16.0382 269.013 16.4542 269.477C16.8702 269.941 17.4542 270.253 18.2062 270.413L18.2062 265.469C17.4382 265.533 16.8542 265.781 16.4542 266.213C16.0382 266.629 15.8302 267.157 15.8302 267.797Z" fill="#B3B3B3"/>
<path d="M25.1423 281.197C25.8143 282.013 26.1503 283.149 26.1503 284.605C26.1503 285.949 25.7983 287.037 25.0943 287.869C24.3743 288.685 23.0943 289.093 21.2543 289.093L16.2383 289.093L16.2383 291.301L13.4303 291.301L13.4303 289.093L9.61426 289.093L9.61426 285.757L13.4303 285.757L13.4303 282.013L16.2383 282.013L16.2383 285.757L20.7023 285.757C21.5343 285.757 22.1663 285.613 22.5983 285.325C23.0303 285.037 23.2463 284.573 23.2463 283.933C23.2463 283.373 23.0783 282.845 22.7423 282.349L25.1423 281.197Z" fill="#B3B3B3"/>
<path d="M10.1901 293.544C10.1901 294.136 10.4061 294.584 10.8381 294.888C11.2701 295.192 11.9741 295.344 12.9501 295.344L13.4301 295.344L13.4301 292.104L16.2141 292.104L16.2141 295.344L25.8621 295.344L25.8621 298.68L16.2141 298.68L16.2141 300.816L13.4301 300.816L13.4301 298.68L12.8301 298.68C10.9581 298.68 9.56613 298.232 8.65413 297.336C7.74213 296.44 7.28613 295.272 7.28613 293.832C7.28613 293.128 7.39013 292.504 7.59813 291.96C7.80613 291.416 8.07813 290.984 8.41413 290.664L10.8141 291.936C10.3981 292.432 10.1901 292.968 10.1901 293.544Z" fill="#B3B3B3"/>
<path d="M13.1182 307.311C13.1182 306.207 13.3662 305.231 13.8622 304.383C14.3422 303.519 15.0302 302.855 15.9262 302.391C16.8062 301.911 17.8222 301.671 18.9742 301.671C19.4862 301.671 20.0062 301.719 20.5342 301.815L20.5342 310.071C21.4622 309.927 22.1662 309.591 22.6462 309.063C23.1102 308.535 23.3422 307.879 23.3422 307.095C23.3422 306.535 23.2222 306.039 22.9822 305.607C22.7262 305.159 22.3502 304.815 21.8542 304.575L23.2942 302.127C24.2062 302.463 24.9102 303.111 25.4062 304.071C25.9022 305.015 26.1502 306.071 26.1502 307.239C26.1502 308.359 25.9022 309.399 25.4062 310.359C24.9102 311.319 24.1662 312.095 23.1742 312.687C22.1822 313.263 20.9902 313.551 19.5982 313.551C18.2222 313.551 17.0462 313.263 16.0702 312.687C15.0942 312.095 14.3582 311.327 13.8622 310.383C13.3662 309.439 13.1182 308.415 13.1182 307.311ZM15.8302 307.407C15.8302 308.063 16.0382 308.623 16.4542 309.087C16.8702 309.551 17.4542 309.863 18.2062 310.023L18.2062 305.079C17.4382 305.143 16.8542 305.391 16.4542 305.823C16.0382 306.239 15.8302 306.767 15.8302 307.407Z" fill="#B3B3B3"/>
<path d="M8.29395 326.113L8.29395 322.633L22.7419 322.633L22.7419 314.641L25.8619 314.641L25.8619 326.113L8.29395 326.113Z" fill="#B3B3B3"/>
</g>
<defs>
<clipPath id="clip0_18942_38897">
<rect width="390" height="39" fill="white" transform="matrix(-4.37114e-08 -1 -1 4.37114e-08 39 390.176)"/>
</clipPath>
</defs>
</svg>
