<svg width="24" height="62" viewBox="0 0 24 62" fill="none" xmlns="http://www.w3.org/2000/svg">
<g opacity="0.4">
<path d="M23.6355 7.74414H8.02221C4.86599 7.74414 2.30737 10.3028 2.30737 13.459V44.0802H23.6355V7.74414Z" fill="#626262"/>
<ellipse cx="6.39844" cy="0.89351" rx="6.39844" ry="0.89351" transform="matrix(-1 0 0 1 20.7917 7.14844)" fill="#383938"/>
<path fill-rule="evenodd" clip-rule="evenodd" d="M9.60423 0H18.6589V7.80938H18.6587C18.653 8.06259 16.6283 8.26768 14.1314 8.26768C11.631 8.26768 9.60402 8.06201 9.60402 7.80831C9.60402 7.80683 9.60409 7.80535 9.60423 7.80387V0Z" fill="#9C9C9C"/>
<rect width="6.39844" height="6.5524" rx="3.19922" transform="matrix(-1 0 0 1 17.2371 1.19141)" fill="#848484"/>
<rect width="6.39844" height="15.4875" transform="matrix(-1 0 0 1 11.5496 44.0801)" fill="#404040"/>
<path d="M12.4382 12.6476C13.8206 11.9613 17.9954 10.5887 23.6355 10.5887V42.0609H10.7794V42.9433H7.46167C7.59991 42.7472 7.79344 42.2373 7.46167 41.7667C7.1299 41.2961 4.83515 41.1785 3.72925 41.1785V39.4137V37.0606L4.14396 25.0012L7.46167 22.6481V14.4124L4.55868 11.177C4.42044 10.7848 4.30985 9.8828 4.97339 9.41219C5.63693 8.94158 6.90872 9.2161 7.46167 9.41219L12.4382 12.6476Z" fill="#8B8B8B"/>
<path d="M20.7917 17.5711V13.1035L13.6824 14.8905L17.4462 18.4646L20.7917 17.5711Z" fill="#454545"/>
<path d="M15.8152 18.9056L11.9761 16.084H11.5496V21.445H12.4027L15.8152 18.9056Z" fill="#454545"/>
<rect width="9.95313" height="5.95673" transform="matrix(-1 0 0 1 20.7917 43.4844)" fill="#8B8B8B"/>
<rect width="12.7969" height="7.74375" rx="2.28594" transform="matrix(-1 0 0 1 22.2136 49.4395)" fill="#292929"/>
<path d="M20.7917 60.162V57.1836H11.5496V60.162L13.23 61.3533H19.1114L20.7917 60.162Z" fill="#333333"/>
<path d="M16.7039 61.9492L17.2371 61.3535H15.1042L15.6375 61.9492H16.7039Z" fill="#CFCFCF"/>
<rect width="6.39844" height="16.6788" rx="2.28594" transform="matrix(-1 0 0 1 7.28394 44.0801)" fill="#515151"/>
<ellipse cx="7.10938" cy="7.03977" rx="7.10938" ry="7.03977" transform="matrix(-1 0 0 1 21.5027 23.2324)" fill="#CECECE"/>
</g>
</svg>
