<svg width="25" height="254" viewBox="0 0 25 254" fill="none" xmlns="http://www.w3.org/2000/svg">
<path d="M1.01172 4.40003C2.14731 3.17969 3.03714 2.2729 3.68121 1.67968L5.10494 3.02714C3.96935 4.11189 3.06257 5.01018 2.3846 5.72205L1.01172 4.40003ZM18.2744 0.68815C19.3422 0.806794 20.3253 0.94239 21.2236 1.09493C22.4609 1.31527 23.3083 1.62035 23.766 2.01018C24.2236 2.40002 24.4524 2.92545 24.4524 3.58646C24.4524 4.16273 24.2405 4.68815 23.8168 5.16273C23.3931 5.6373 22.7066 6.0695 21.7575 6.45933C21.6219 6.51018 21.4948 6.56104 21.3761 6.61189C21.2405 6.66274 21.1219 6.7051 21.0202 6.739C22.2575 7.70511 23.4609 8.84918 24.6304 10.1712L22.927 11.8746C21.4015 9.99325 19.9015 8.51018 18.427 7.42544C15.5117 8.05256 11.7914 8.46782 7.26596 8.67121L7.26596 16.5271L5.10494 16.5271L5.10494 8.72205C4.03714 8.75595 2.75748 8.7729 1.26596 8.7729L1.24053 6.58646L3.85918 6.56104L5.10494 6.53561L5.10494 0.916967L7.26596 0.916967L7.26596 6.51019C10.7066 6.40849 13.5371 6.17121 15.7575 5.79832C14.0626 4.96782 11.8168 4.18816 9.02019 3.45935L9.63036 1.45086C13.2405 2.41696 16.2829 3.66273 18.7575 5.18815C19.4354 4.98476 19.9778 4.8068 20.3846 4.65426C20.8761 4.46781 21.2236 4.29833 21.427 4.14579C21.6134 3.97629 21.7066 3.79833 21.7066 3.61189C21.7066 3.4424 21.571 3.3068 21.2999 3.20511C21.0287 3.08646 20.5626 2.9763 19.9015 2.8746L17.6643 2.59493L18.2744 0.68815ZM19.0371 16.6034C19.1049 16.7898 19.4015 17.7136 19.927 19.3746C20.588 21.5441 21.0456 22.9763 21.2999 23.6712L18.9609 24.1797C18.8761 23.7221 18.588 22.7136 18.0965 21.1543L9.83375 21.1543L9.83375 23.6458L7.57104 23.6458L7.57104 21.1543L1.67273 21.1543L1.67273 18.917L7.57104 18.917L7.57104 16.8068L9.83375 16.8068L9.83375 18.917L17.4354 18.917L16.6982 16.6034L19.0371 16.6034ZM17.0541 15.9932L9.57952 15.9932L9.57952 9.86612L17.0541 9.86612L17.0541 15.9932ZM14.9948 14.1119L14.9948 11.7475L11.6134 11.7475L11.6134 14.1119L14.9948 14.1119ZM20.588 9.45934C20.6558 9.64578 21.1473 11.5017 22.0626 15.0271L22.6982 17.3915L20.41 17.8746C20.1558 16.8068 19.8253 15.4085 19.4185 13.6797C18.9948 11.9339 18.6473 10.5271 18.3761 9.45934L20.588 9.45934Z" fill="#A3A3A3"/>
<path d="M4.6729 45.1531L21.3509 45.1531L21.3509 26.4921L23.6899 26.4921L23.6899 47.543L2.38477 47.543L2.38477 26.9752L4.6729 26.9752L4.6729 45.1531ZM18.1221 43.9582C16.7492 41.8904 15.0034 39.7633 12.8848 37.5769C10.5627 39.9836 8.80002 41.8904 7.59663 43.2972L5.91866 41.6955C7.32544 40.0853 9.08816 38.1701 11.2068 35.9497C9.42714 34.2718 7.56273 32.7464 5.61358 31.3735L7.03731 29.4159C8.96951 30.8565 10.9017 32.4667 12.8339 34.2464C14.6475 32.365 16.4441 30.5345 18.2237 28.7548L20.0543 30.5599C18.5966 31.8481 16.7576 33.6192 14.5373 35.8735C16.8085 38.1447 18.6814 40.3311 20.156 42.4328L18.1221 43.9582Z" fill="#A3A3A3"/>
<path d="M3.68166 63.8406C4.12234 64.9592 4.53759 66.1372 4.92742 67.3745C5.31725 68.6118 5.61386 69.7304 5.81725 70.7304L10.2664 70.7304L10.2664 64.1965L12.6817 64.1965L12.6817 70.7304L19.063 70.7304L18.3511 68.544C17.9444 67.2558 17.4698 65.7982 16.9274 64.1711L19.5461 64.0186C20.2918 66.544 20.9867 68.7982 21.6308 70.7812C21.9698 71.7982 22.1986 72.4592 22.3173 72.7643L20.1308 73.7813C19.9274 73.527 19.7325 73.349 19.5461 73.2474C19.3427 73.1457 19.1308 73.0948 18.9105 73.0948L3.85962 73.0948C3.65623 71.9592 3.31725 70.5694 2.84267 68.9253C2.35115 67.2812 1.87657 65.8406 1.41895 64.6033L3.68166 63.8406ZM3.17318 62.6202L3.17318 52.5524L18.0206 52.5524C19.2579 52.5524 20.1223 52.7728 20.6139 53.2135C21.1054 53.6372 21.3512 54.2982 21.3512 55.1965C21.3512 56.044 21.3088 57.0016 21.224 58.0694L18.8342 58.527C18.9698 57.6626 19.0376 56.8575 19.0376 56.1118C19.0376 55.6372 18.8935 55.3236 18.6054 55.1711C18.3173 55.0016 17.8088 54.9168 17.08 54.9168L5.56301 54.9168L5.56301 60.205L24.5545 60.205L24.5545 62.6202L3.17318 62.6202Z" fill="#A3A3A3"/>
<path d="M13.6215 90.536C13.6046 90.519 13.6724 90.7478 13.8249 91.2224L14.6639 93.8156L21.3758 93.8156C22.2063 93.8156 22.8249 93.9173 23.2317 94.1207C23.6385 94.3071 23.9097 94.6292 24.0453 95.0868C24.1978 95.5444 24.2741 96.2393 24.2741 97.1715C24.2741 97.7817 24.2317 98.4427 24.1469 99.1546L21.7317 99.6631C21.7486 99.5444 21.7825 99.2732 21.8334 98.8495C21.8842 98.4088 21.9097 98.0105 21.9097 97.6546C21.9097 97.0614 21.8249 96.68 21.6554 96.5105C21.469 96.3241 21.0792 96.2309 20.4859 96.2309L15.4266 96.2309C15.969 97.8919 16.3758 99.1207 16.6469 99.9173L14.2571 100.426C14.0537 99.6292 13.6639 98.2309 13.0876 96.2309L8.10457 96.2309L8.10457 99.8919L5.86729 99.8919L5.86729 96.2309L1.29102 96.2309L1.29102 93.8156L5.86729 93.8156L5.86729 90.7648L8.10458 90.7648L8.10457 93.8156L12.3503 93.8156L12.1978 93.3071C11.6385 91.6631 11.3503 90.8241 11.3334 90.7902L13.6215 90.536ZM3.01983 76.9342L5.35881 76.9342L5.35881 81.2563L21.1978 81.2563C22.4012 81.2563 23.2317 81.502 23.6893 81.9936C24.1639 82.4851 24.4097 83.3326 24.4266 84.5359C24.4436 85.4173 24.4097 86.4766 24.3249 87.7139L21.9097 88.2224C22.0453 87.0868 22.1131 86.0783 22.1131 85.197C22.1131 84.6376 22.0029 84.2478 21.7825 84.0275C21.5453 83.8071 21.1469 83.697 20.5876 83.697L5.35881 83.697L5.35881 89.9766L3.01983 89.9766L3.01983 76.9342Z" fill="#A3A3A3"/>
<path d="M2.69043 102.484L4.97856 102.484L4.97856 105.687L20.5887 105.687C21.5887 105.687 22.343 105.797 22.8514 106.018C23.3769 106.221 23.7498 106.602 23.9701 107.162C24.1904 107.704 24.3006 108.518 24.3006 109.602C24.3006 110.89 24.2582 112.001 24.1735 112.933L21.8599 113.39C21.9955 112.136 22.0633 110.958 22.0633 109.857C22.0633 109.128 21.9192 108.645 21.6311 108.407C21.343 108.153 20.7752 108.026 19.9277 108.026L4.97856 108.026L4.97856 125.492L2.69043 125.492L2.69043 102.484ZM8.41077 122.823L8.41077 112.196L18.7582 112.196L18.7582 122.823L8.41077 122.823ZM16.5209 120.56L16.5209 114.484L10.6735 114.484L10.6735 120.56L16.5209 120.56Z" fill="#A3A3A3"/>
<path d="M24.4019 129.304C23.7408 130.44 22.9103 131.931 21.9103 133.779C20.9103 135.609 20.0544 137.202 19.3425 138.558C20.4612 139.541 21.4273 140.923 22.2408 142.702C23.0544 144.465 23.8764 146.88 24.7069 149.948L22.2917 150.813C21.6646 148.423 21.0798 146.507 20.5375 145.067C19.9951 143.609 19.3849 142.44 18.7069 141.558C18.012 140.66 17.173 139.974 16.19 139.499L16.19 150.685L13.9273 150.685L13.9273 138.762C12.6561 138.49 10.9273 138.312 8.74085 138.228C7.74085 138.194 6.61373 138.168 5.35949 138.151C4.10525 138.118 3.02051 138.092 2.10525 138.075L1.52051 138.075L1.52051 135.635L2.13068 135.635C3.07983 135.651 4.21542 135.677 5.53746 135.711C6.84254 135.728 8.02051 135.753 9.07135 135.787C11.0883 135.872 12.7069 136.024 13.9273 136.245L13.9273 128.236L16.19 128.236L16.19 136.804C16.529 136.906 16.9358 137.067 17.4103 137.287L18.4527 135.228C19.8425 132.465 21.0544 130.101 22.0883 128.135L24.4019 129.304ZM8.46119 141.126C7.95271 141.77 7.27475 142.753 6.42729 144.075C5.56288 145.397 4.81712 146.567 4.19 147.584L2.20695 146.363C2.76627 145.38 3.45271 144.253 4.26627 142.982C5.07983 141.711 5.79169 140.651 6.40186 139.804L8.46119 141.126ZM13.0883 142.982C12.512 143.779 11.8002 144.846 10.9527 146.185C10.0883 147.524 9.41034 148.635 8.91881 149.516L6.88492 148.321C7.51203 147.219 8.21542 146.041 8.99508 144.787C9.77475 143.533 10.4612 142.49 11.0544 141.66L13.0883 142.982Z" fill="#A3A3A3"/>
<path d="M21.1216 157.348L14.308 157.348L14.308 154.959L24.5284 154.959L24.5284 157.348L23.4097 157.348L23.4097 174.789L14.3589 174.789L14.3589 172.374L21.1216 172.374L21.1216 166.094L12.4775 166.094L12.4775 174.052L3.50295 174.052L3.50295 171.687L10.1385 171.687L10.1385 166.094L1.24023 166.094L1.24023 163.704L10.1385 163.704L10.1385 158.086L3.50295 158.086L3.50295 155.721L12.4775 155.721L12.4775 163.704L21.1216 163.704L21.1216 157.348Z" fill="#A3A3A3"/>
<path d="M11.0796 184.987C11.9949 183.428 12.783 181.284 13.444 178.555L15.6559 179.368C15.2152 180.979 14.7406 182.394 14.2322 183.614C13.7237 184.818 13.1474 185.902 12.5033 186.868C13.8084 188.818 14.9016 191.275 15.783 194.241L13.622 195.131C12.9101 192.504 12.0627 190.343 11.0796 188.648C9.84233 189.97 8.18978 191.19 6.12199 192.309L6.12199 193.86L3.93555 193.86L3.93555 187.784C3.03724 188.19 2.24063 188.589 1.54572 188.979L0.935547 186.69C1.29148 186.487 1.783 186.241 2.41012 185.953C3.02029 185.648 3.52877 185.411 3.93555 185.241L3.93555 179.445L6.12199 179.445L6.12199 181.25C8.05419 182.182 9.70673 183.428 11.0796 184.987ZM12.6305 194.165C13.0542 195.182 13.3847 195.987 13.622 196.58L21.4016 196.58C22.1813 196.58 22.7661 196.673 23.1559 196.86C23.5457 197.046 23.8169 197.377 23.9694 197.851C24.122 198.326 24.1983 199.021 24.1983 199.936C24.1983 200.377 24.1728 200.843 24.122 201.334L21.8847 201.767C21.9694 201.326 22.0118 200.792 22.0118 200.165C22.0118 199.64 21.9271 199.292 21.7576 199.123C21.5881 198.953 21.2237 198.868 20.6644 198.868L14.5372 198.868C14.9779 199.953 15.3593 200.945 15.6813 201.843L13.2915 202.453C13.105 201.843 12.6898 200.648 12.0457 198.868L7.97792 198.868L7.97792 201.843L5.68978 201.843L5.68978 198.868L1.34233 198.868L1.34233 196.58L5.68978 196.58L5.68978 194.241L7.97792 194.241L7.97792 196.58L11.1559 196.58L10.2915 194.368L12.6305 194.165ZM6.12199 189.818C7.63046 188.936 8.85928 187.936 9.80843 186.818C8.75758 185.546 7.52877 184.512 6.12199 183.716L6.12199 189.818ZM14.7915 191.14L14.7915 188.775L16.0627 188.801C17.961 188.801 19.6135 189.148 21.0203 189.843C22.4101 190.521 23.7152 191.767 24.9355 193.58L23.2322 195.309C22.5033 194.19 21.783 193.334 21.0711 192.741C20.3423 192.131 19.5881 191.716 18.8084 191.496C18.0288 191.258 17.1305 191.14 16.1135 191.14L14.7915 191.14ZM24.4779 182.445L24.4779 184.758L14.8678 184.758L14.8678 182.445L24.4779 182.445Z" fill="#A3A3A3"/>
<path d="M7.18919 204.331L7.18919 217.246C8.73156 217.687 10.3078 218.263 11.918 218.975L11.918 205.983L14.2824 205.983L14.2824 212.466L21.3248 212.466L21.3248 204.534L23.6383 204.534L23.6383 223.653L21.3248 223.653L21.3248 214.958L14.2824 214.958L14.2824 220.17C16.9265 221.627 19.6638 223.695 22.4943 226.373L20.2316 227.797C18.1807 225.865 16.1214 224.271 14.0536 223.017C11.9858 221.746 9.69766 220.721 7.18919 219.941L7.18919 226.526L4.79936 226.526L4.79936 219.28C3.66376 219.009 2.52817 218.78 1.39258 218.593L1.62139 216C2.79088 216.187 3.85021 216.399 4.79936 216.636L4.79936 204.331L7.18919 204.331Z" fill="#A3A3A3"/>
<path d="M2.00281 245.161C3.91807 245.772 5.68078 246.45 7.29095 247.195L24.6045 247.195L24.6045 249.56L11.7147 249.56C13.0367 250.39 14.2062 251.229 15.2232 252.077L12.6045 253.195C11.2147 252.128 9.50281 251.077 7.46892 250.043C5.41807 248.992 3.3757 248.144 1.3418 247.5L2.00281 245.161ZM16.9774 236.009C18.8926 234.331 20.7655 232.094 22.596 229.297L24.7825 230.772C22.8333 233.585 20.8757 235.873 18.9096 237.636C20.8757 239.45 22.8248 241.805 24.7571 244.704L22.5452 246.28C20.7147 243.382 18.8418 241.034 16.9265 239.238C15.2994 240.424 13.5367 241.39 11.6384 242.136C9.7401 242.865 7.59603 243.433 5.2062 243.839L5.2062 244.653L2.86722 244.653L2.86722 231.077L5.15536 231.077C7.59604 231.585 9.76553 232.238 11.6638 233.034C13.5621 233.814 15.3333 234.805 16.9774 236.009ZM5.2062 241.424C7.18926 241.034 8.96892 240.534 10.5452 239.924C12.1215 239.314 13.5876 238.543 14.9435 237.611C13.5706 236.611 12.096 235.789 10.5198 235.144C8.92654 234.5 7.15536 233.992 5.2062 233.619L5.2062 241.424Z" fill="#A3A3A3"/>
</svg>
