<svg width="24" height="301" viewBox="0 0 24 301" fill="none" xmlns="http://www.w3.org/2000/svg">
<path d="M5.60449 44.2791C5.60449 42.8159 6.03714 41.636 6.90244 40.7392C7.76774 39.8267 9.01063 39.3705 10.6311 39.3705L18.1356 39.3705L18.1356 41.4708C17.4276 41.5022 16.9242 41.5416 16.6253 41.5888C17.8052 42.3439 18.3952 43.5554 18.3952 45.223C18.3952 46.0411 18.2457 46.7963 17.9468 47.4885C17.6479 48.165 17.2153 48.7078 16.6489 49.1169C16.0825 49.5259 15.3981 49.7305 14.5958 49.7305C13.3843 49.7305 12.4246 49.2349 11.7167 48.2437C11.0087 47.2526 10.6547 45.9861 10.6547 44.4443C10.6547 43.579 10.7727 42.6901 11.0087 41.7776L10.9615 41.7776C9.84446 41.7776 9.02636 41.9978 8.50718 42.4383C7.97227 42.8789 7.70481 43.5396 7.70481 44.4207C7.70481 45.1286 7.86214 45.7265 8.17679 46.2142C8.47572 46.6862 8.91623 47.0874 9.49834 47.4178L8.45998 49.2113C7.59468 48.818 6.90244 48.1808 6.38326 47.2998C5.86408 46.4187 5.60449 45.4118 5.60449 44.2791ZM12.8494 41.7776C12.6134 42.7215 12.4954 43.5475 12.4954 44.2555C12.4954 45.1994 12.6764 45.931 13.0382 46.4502C13.4001 46.9694 13.9035 47.229 14.5486 47.229C15.1307 47.229 15.5948 47.0166 15.9409 46.5918C16.2713 46.167 16.4365 45.6085 16.4365 44.9162C16.4365 44.0509 16.1926 43.3115 15.7049 42.6979C15.2015 42.0844 14.5092 41.7776 13.6282 41.7776L12.8494 41.7776Z" fill="#C0C0C0"/>
<path d="M5.60449 56.9008C5.60449 55.831 5.85622 54.8949 6.35966 54.0925C6.84738 53.2902 7.52389 52.6687 8.38919 52.2282C9.23875 51.7877 10.1985 51.5674 11.2683 51.5674C11.6301 51.5674 12.0628 51.6068 12.5662 51.6854L12.5662 60.2755C13.7934 60.1811 14.7216 59.8035 15.3509 59.1428C15.9645 58.482 16.2713 57.656 16.2713 56.6648C16.2713 55.3748 15.7364 54.4387 14.6665 53.8566L15.7285 52.0394C16.5781 52.3541 17.2389 52.9519 17.7108 53.833C18.1671 54.714 18.3952 55.6973 18.3952 56.7829C18.3952 57.8999 18.1513 58.9146 17.6636 59.8271C17.1602 60.7396 16.4207 61.4712 15.4453 62.0218C14.4699 62.5568 13.3057 62.8242 11.9527 62.8242C10.6311 62.8242 9.49048 62.5568 8.53078 62.0218C7.57108 61.4712 6.84738 60.7475 6.35966 59.8507C5.85622 58.9382 5.60449 57.9549 5.60449 56.9008ZM7.72841 56.9952C7.72841 57.7976 7.988 58.4977 8.50718 59.0956C9.01063 59.6777 9.75007 60.0474 10.7255 60.2047L10.7255 54.1161C9.78153 54.1791 9.04996 54.4701 8.53078 54.9893C7.99587 55.5085 7.72841 56.1771 7.72841 56.9952Z" fill="#C0C0C0"/>
<path d="M5.73437 64.9812C5.73437 64.5722 5.78944 64.1946 5.89957 63.8485C6.0097 63.4866 6.15916 63.2034 6.34795 62.9989L8.25948 63.9193C8.03922 64.2811 7.92909 64.6823 7.92909 65.1228C7.92909 66.0196 8.29881 66.7512 9.03825 67.3175C9.77769 67.8682 10.8318 68.1435 12.2005 68.1435L18.2655 68.1435L18.2655 70.5742L6.01756 70.5742L6.01756 68.4267C6.77274 68.3952 7.43351 68.348 7.99989 68.2851C7.24472 67.9232 6.67834 67.467 6.30075 66.9164C5.92317 66.35 5.73437 65.7049 5.73437 64.9812Z" fill="#C0C0C0"/>
<path d="M5.60449 78.7322C5.60449 77.269 6.03714 76.0891 6.90244 75.1923C7.76774 74.2798 9.01063 73.8236 10.6311 73.8236L18.1356 73.8236L18.1356 75.9239C17.4276 75.9554 16.9242 75.9947 16.6253 76.0419C17.8052 76.7971 18.3952 78.0085 18.3952 79.6761C18.3952 80.4943 18.2457 81.2494 17.9468 81.9417C17.6479 82.6182 17.2153 83.161 16.6489 83.57C16.0825 83.9791 15.3981 84.1836 14.5958 84.1836C13.3843 84.1836 12.4246 83.688 11.7167 82.6968C11.0087 81.7057 10.6547 80.4392 10.6547 78.8974C10.6547 78.0321 10.7727 77.1432 11.0087 76.2307L10.9615 76.2307C9.84446 76.2307 9.02636 76.451 8.50718 76.8915C7.97227 77.332 7.70481 77.9928 7.70481 78.8738C7.70481 79.5818 7.86214 80.1796 8.17679 80.6673C8.47572 81.1393 8.91623 81.5405 9.49834 81.8709L8.45998 83.6644C7.59468 83.2711 6.90244 82.6339 6.38326 81.7529C5.86408 80.8719 5.60449 79.865 5.60449 78.7322ZM12.8494 76.2307C12.6134 77.1746 12.4954 78.0006 12.4954 78.7086C12.4954 79.6526 12.6764 80.3841 13.0382 80.9033C13.4001 81.4225 13.9035 81.6821 14.5486 81.6821C15.1307 81.6821 15.5948 81.4697 15.9409 81.0449C16.2713 80.6201 16.4365 80.0616 16.4365 79.3694C16.4365 78.5041 16.1926 77.7646 15.7049 77.1511C15.2015 76.5375 14.5092 76.2307 13.6282 76.2307L12.8494 76.2307Z" fill="#C0C0C0"/>
<path d="M2.99707 94.397L2.99707 91.8719L17.2745 97.5356C18.6118 98.0548 19.5636 98.6369 20.13 99.282C20.7121 99.9113 21.0032 100.761 21.0032 101.831C21.0032 102.853 20.7357 103.679 20.2008 104.309L18.2893 103.365C18.6197 102.924 18.7849 102.413 18.7849 101.831C18.7849 101.327 18.6118 100.91 18.2657 100.58C17.9353 100.234 17.2824 99.8562 16.307 99.4472L15.3866 99.046L2.99707 104.214L2.99707 101.453L12.3895 97.8188L2.99707 94.397Z" fill="#C0C0C0"/>
<path d="M20.9794 106.054L20.9794 108.484L3.02051 108.484L3.02051 106.054L20.9794 106.054Z" fill="#C0C0C0"/>
<path d="M5.73437 116.078C5.73437 114.757 6.16702 113.702 7.03233 112.916C7.89763 112.129 9.14838 111.736 10.7846 111.736L18.2655 111.736L18.2655 114.167L11.5162 114.167C10.3834 114.167 9.51023 114.379 8.89665 114.804C8.28308 115.229 7.97629 115.874 7.97629 116.739C7.97629 117.62 8.29094 118.375 8.92025 119.004C9.53383 119.618 10.4149 119.925 11.5634 119.925L18.2655 119.925L18.2655 122.355L6.01756 122.355L6.01756 120.208C6.78847 120.176 7.45711 120.129 8.02349 120.066C7.26832 119.657 6.70194 119.115 6.32435 118.438C5.93103 117.746 5.73437 116.959 5.73437 116.078Z" fill="#C0C0C0"/>
<path d="M11.9998 137.078C10.757 137.078 9.64781 136.803 8.67238 136.252C7.69695 135.702 6.94177 134.97 6.40686 134.057C5.87195 133.129 5.60449 132.13 5.60449 131.06C5.60449 130.006 5.87195 129.023 6.40686 128.11C6.94177 127.198 7.69695 126.466 8.67238 125.916C9.6478 125.365 10.757 125.09 11.9998 125.09C13.2427 125.09 14.3519 125.365 15.3273 125.916C16.3028 126.466 17.0579 127.198 17.5928 128.11C18.1278 129.023 18.3952 130.006 18.3952 131.06C18.3952 132.13 18.1278 133.129 17.5928 134.057C17.0579 134.97 16.3028 135.702 15.3273 136.252C14.3519 136.803 13.2427 137.078 11.9998 137.078ZM11.9998 134.529C13.2899 134.529 14.3126 134.207 15.0677 133.562C15.8229 132.901 16.2005 132.075 16.2005 131.084C16.2005 130.077 15.8229 129.251 15.0677 128.606C14.3126 127.961 13.2899 127.638 11.9998 127.638C10.7098 127.638 9.68714 127.969 8.93197 128.63C8.17679 129.275 7.79921 130.093 7.79921 131.084C7.79921 132.075 8.17679 132.901 8.93197 133.562C9.68714 134.207 10.7098 134.529 11.9998 134.529Z" fill="#C0C0C0"/>
<path d="M5.60449 150.491C5.60449 149.421 5.85622 148.485 6.35966 147.682C6.84738 146.88 7.52389 146.259 8.38919 145.818C9.23875 145.378 10.1985 145.157 11.2683 145.157C11.6301 145.157 12.0628 145.197 12.5662 145.275L12.5662 153.865C13.7934 153.771 14.7216 153.393 15.3509 152.733C15.9645 152.072 16.2713 151.246 16.2713 150.255C16.2713 148.965 15.7364 148.029 14.6665 147.446L15.7285 145.629C16.5781 145.944 17.2389 146.542 17.7108 147.423C18.1671 148.304 18.3952 149.287 18.3952 150.373C18.3952 151.49 18.1513 152.504 17.6636 153.417C17.1602 154.329 16.4207 155.061 15.4453 155.612C14.4699 156.147 13.3057 156.414 11.9527 156.414C10.6311 156.414 9.49048 156.147 8.53078 155.612C7.57108 155.061 6.84738 154.337 6.35966 153.441C5.85622 152.528 5.60449 151.545 5.60449 150.491ZM7.72841 150.585C7.72841 151.387 7.988 152.088 8.50718 152.685C9.01063 153.268 9.75007 153.637 10.7255 153.795L10.7255 147.706C9.78153 147.769 9.04996 148.06 8.53078 148.579C7.99587 149.098 7.72841 149.767 7.72841 150.585Z" fill="#C0C0C0"/>
<path d="M20.9794 159.151L20.9794 161.582L3.02051 161.582L3.02051 159.151L20.9794 159.151Z" fill="#C0C0C0"/>
<path d="M5.88769 164.314L7.20924 164.314L16.1061 170.568L16.1061 164.031L18.112 164.031L18.112 173.824L16.7433 173.824L7.87002 167.547L7.87002 173.423L5.8877 173.423L5.88769 164.314Z" fill="#C0C0C0"/>
<path d="M5.88769 175.56L7.20924 175.56L16.1061 181.814L16.1061 175.277L18.112 175.277L18.112 185.07L16.7433 185.07L7.87002 178.793L7.87002 184.669L5.8877 184.669L5.88769 175.56Z" fill="#C0C0C0"/>
<path d="M11.9998 198.242C10.757 198.242 9.64781 197.967 8.67238 197.416C7.69695 196.866 6.94177 196.134 6.40686 195.221C5.87195 194.293 5.60449 193.294 5.60449 192.224C5.60449 191.17 5.87195 190.187 6.40686 189.275C6.94177 188.362 7.69695 187.63 8.67238 187.08C9.6478 186.529 10.757 186.254 11.9998 186.254C13.2427 186.254 14.3519 186.529 15.3273 187.08C16.3028 187.63 17.0579 188.362 17.5928 189.275C18.1278 190.187 18.3952 191.17 18.3952 192.224C18.3952 193.294 18.1278 194.293 17.5928 195.221C17.0579 196.134 16.3028 196.866 15.3273 197.416C14.3519 197.967 13.2427 198.242 11.9998 198.242ZM11.9998 195.693C13.2899 195.693 14.3126 195.371 15.0677 194.726C15.8229 194.065 16.2005 193.239 16.2005 192.248C16.2005 191.241 15.8229 190.415 15.0677 189.77C14.3126 189.125 13.2899 188.803 11.9998 188.803C10.7098 188.803 9.68714 189.133 8.93197 189.794C8.17679 190.439 7.79921 191.257 7.79921 192.248C7.79921 193.239 8.17679 194.065 8.93197 194.726C9.68714 195.371 10.7098 195.693 11.9998 195.693Z" fill="#C0C0C0"/>
<path d="M5.73437 205.129C5.73437 203.807 6.16702 202.753 7.03233 201.967C7.89763 201.18 9.14838 200.787 10.7846 200.787L18.2655 200.787L18.2655 203.217L11.5162 203.217C10.3834 203.217 9.51023 203.43 8.89665 203.855C8.28308 204.279 7.97629 204.924 7.97629 205.79C7.97629 206.671 8.29094 207.426 8.92025 208.055C9.53383 208.669 10.4149 208.976 11.5634 208.976L18.2655 208.976L18.2655 211.406L6.01756 211.406L6.01756 209.259C6.78847 209.227 7.45711 209.18 8.02349 209.117C7.26832 208.708 6.70194 208.165 6.32435 207.489C5.93103 206.797 5.73437 206.01 5.73437 205.129Z" fill="#C0C0C0"/>
<path d="M19.2688 219.604C19.7722 220.296 20.024 221.217 20.024 222.365C20.024 223.529 19.7014 224.481 19.0564 225.221C18.4113 225.944 17.2629 226.306 15.6109 226.306L9.59315 226.306L9.59315 228.383L7.51643 228.383L7.51643 226.306L3.97656 226.306L3.97656 223.899L7.51643 223.899L7.51643 220.288L9.59315 220.288L9.59315 223.899L15.2805 223.899C16.9797 223.899 17.8292 223.27 17.8292 222.011C17.8292 221.445 17.6798 220.918 17.3809 220.43L19.2688 219.604Z" fill="#C0C0C0"/>
<path d="M5.09722 230.51C5.09722 231.14 5.30961 231.62 5.7344 231.95C6.15918 232.265 6.89075 232.422 7.92912 232.422L8.87308 232.422L8.87308 229.236L10.9262 229.236L10.9262 232.422L21.121 232.422L21.121 234.853L10.9262 234.853L10.9262 236.977L8.87308 236.977L8.87308 234.853L7.85832 234.853C6.15918 234.853 4.90843 234.459 4.10606 233.673C3.28796 232.886 2.87891 231.879 2.87891 230.652C2.87891 230.086 2.95757 229.574 3.1149 229.118C3.27223 228.662 3.47675 228.3 3.72847 228.033L5.5692 228.976C5.25455 229.433 5.09722 229.944 5.09722 230.51Z" fill="#C0C0C0"/>
<path d="M5.60449 243.389C5.60449 242.319 5.85622 241.383 6.35966 240.581C6.84738 239.778 7.52389 239.157 8.38919 238.717C9.23875 238.276 10.1985 238.056 11.2683 238.056C11.6301 238.056 12.0628 238.095 12.5662 238.174L12.5662 246.764C13.7934 246.669 14.7216 246.292 15.3509 245.631C15.9645 244.97 16.2713 244.144 16.2713 243.153C16.2713 241.863 15.7364 240.927 14.6665 240.345L15.7285 238.528C16.5781 238.842 17.2389 239.44 17.7108 240.321C18.1671 241.202 18.3952 242.186 18.3952 243.271C18.3952 244.388 18.1513 245.403 17.6636 246.315C17.1602 247.228 16.4207 247.959 15.4453 248.51C14.4699 249.045 13.3057 249.312 11.9527 249.312C10.6311 249.312 9.49048 249.045 8.53078 248.51C7.57108 247.959 6.84738 247.236 6.35966 246.339C5.85622 245.427 5.60449 244.443 5.60449 243.389ZM7.72841 243.484C7.72841 244.286 7.988 244.986 8.50718 245.584C9.01063 246.166 9.75007 246.536 10.7255 246.693L10.7255 240.604C9.78153 240.667 9.04996 240.958 8.53078 241.478C7.99587 241.997 7.72841 242.665 7.72841 243.484Z" fill="#C0C0C0"/>
<path d="M3.36328 261.367L3.36328 258.842L18.3723 258.842L18.3723 250.535L20.6378 250.535L20.6378 261.367L3.36328 261.367Z" fill="#C0C0C0"/>
</svg>
