<svg width="7" height="7" viewBox="0 0 7 7" fill="none" xmlns="http://www.w3.org/2000/svg">
<path fill-rule="evenodd" clip-rule="evenodd" d="M5.84691 3.72084C6.04317 3.87625 6.32909 3.8633 6.51041 3.68198C6.70567 3.48672 6.70567 3.17014 6.51041 2.97488L3.68198 0.146449L3.63837 0.107596C3.44211 -0.0478172 3.15619 -0.0348658 2.97487 0.146449L0.146447 2.97488L0.107593 3.01849C-0.0478193 3.21475 -0.0348682 3.50067 0.146447 3.68198L0.190057 3.72084C0.386316 3.87625 0.672239 3.8633 0.853553 3.68198L3.32847 1.20711L5.8033 3.68198L5.84691 3.72084ZM5.84691 6.72084C6.04317 6.87625 6.32909 6.8633 6.51041 6.68198C6.70567 6.48672 6.70567 6.17014 6.51041 5.97488L3.68198 3.14645L3.63837 3.1076C3.44211 2.95218 3.15619 2.96513 2.97487 3.14645L0.146447 5.97488L0.107594 6.01849C-0.0478191 6.21475 -0.0348681 6.50067 0.146447 6.68198L0.190057 6.72084C0.386316 6.87625 0.672239 6.8633 0.853554 6.68198L3.32848 4.20711L5.8033 6.68198L5.84691 6.72084Z" fill="#6B6B6B"/>
</svg>
