<svg width="15" height="15" viewBox="0 0 15 15" fill="none" xmlns="http://www.w3.org/2000/svg">
<path d="M5.0166 4.74366C5.22248 4.14249 5.57248 3.67719 6.0666 3.34778C6.56895 3.01013 7.14543 2.84131 7.79601 2.84131C8.2819 2.84131 8.71013 2.93601 9.08072 3.12543C9.45131 3.3066 9.73954 3.5619 9.94543 3.89131C10.1513 4.21248 10.2542 4.57484 10.2542 4.97837C10.2542 5.39013 10.1554 5.73601 9.95778 6.01602C9.76837 6.28778 9.48013 6.59249 9.09307 6.93013C8.82131 7.18543 8.60307 7.40366 8.43837 7.58484C8.27366 7.76602 8.13366 7.98425 8.01837 8.23954C7.91131 8.4866 7.85778 8.77484 7.85778 9.10425C7.85778 9.33484 7.8866 9.56954 7.94425 9.80837H7.0919C6.98484 9.43778 6.93131 9.09602 6.93131 8.78307C6.93131 8.44543 6.98484 8.14896 7.0919 7.89366C7.20719 7.63013 7.34307 7.4119 7.49954 7.23896C7.65601 7.05778 7.86601 6.84366 8.12954 6.5966C8.45072 6.30837 8.68954 6.05719 8.84601 5.84307C9.00248 5.62072 9.08072 5.36131 9.08072 5.06484C9.08072 4.69425 8.95307 4.39778 8.69778 4.17543C8.44248 3.95307 8.10895 3.8419 7.69719 3.8419C6.85719 3.8419 6.24778 4.30719 5.86895 5.23778L5.0166 4.74366ZM7.62307 12.489C7.43366 12.489 7.26895 12.419 7.12895 12.279C6.99719 12.139 6.93131 11.9742 6.93131 11.7848C6.93131 11.5872 6.99719 11.4184 7.12895 11.2784C7.26895 11.1384 7.43366 11.0684 7.62307 11.0684C7.82072 11.0684 7.98543 11.1384 8.11719 11.2784C8.25719 11.4184 8.32719 11.5872 8.32719 11.7848C8.32719 11.9742 8.25719 12.139 8.11719 12.279C7.98543 12.419 7.82072 12.489 7.62307 12.489Z" fill="#FF6F00"/>
<circle cx="7.5" cy="7.5" r="7" stroke="#FF6F00"/>
</svg>
