<svg width="16" height="16" viewBox="0 0 16 16" fill="none" xmlns="http://www.w3.org/2000/svg">
<path fill-rule="evenodd" clip-rule="evenodd" d="M4.74854 4.55113C4.74854 2.71071 6.2405 1.21875 8.08092 1.21875C9.92134 1.21875 11.4133 2.71071 11.4133 4.55113V5.09345C11.4133 5.3696 11.1894 5.59345 10.9133 5.59345C10.6372 5.59345 10.4133 5.3696 10.4133 5.09345V4.55113C10.4133 3.26299 9.36906 2.21875 8.08092 2.21875C6.79278 2.21875 5.74854 3.26299 5.74854 4.55113V7.20312H12.2007C12.4768 7.20312 12.7007 7.42698 12.7007 7.70312V13.7798C12.7007 14.0559 12.4768 14.2798 12.2007 14.2798H3.79883C3.52269 14.2798 3.29883 14.0559 3.29883 13.7798V7.70312C3.29883 7.42698 3.52269 7.20312 3.79883 7.20312H4.74854V4.55113Z" fill="#FF6F00"/>
</svg>
