<svg width="21" height="21" viewBox="0 0 21 21" fill="none" xmlns="http://www.w3.org/2000/svg">
<path d="M19.6009 3.88836H17.1127V1.86981C17.1127 0.951433 16.6479 0 15.7347 0H5.78873C4.87559 0 3.8662 0.951433 3.8662 1.86981V3.886H1.92019C1.00704 3.886 0 4.8398 0 5.76054V11.8729C0 12.7912 1.00469 13.3248 1.92019 13.3248H3.86385V19.5551C3.86385 20.4759 4.87324 21 5.78639 21H15.7324C16.6455 21 17.1103 20.4759 17.1103 19.5551V13.3224H19.6009C20.5164 13.3224 21 12.7912 21 11.8705V5.76054C21 4.84216 20.5164 3.88836 19.6009 3.88836ZM5.02347 1.87454C5.02347 1.57234 5.53286 1.10017 5.83568 1.10017H15.6808C15.9836 1.10017 15.9531 1.57234 15.9531 1.87454V3.87184H5.02347V1.87454ZM15.9531 19.3025C15.9531 19.6071 15.716 19.8668 15.4131 19.8668H5.56808C5.26526 19.8668 5.02347 19.6047 5.02347 19.3025V11.1457C5.02347 10.8411 5.26526 10.5956 5.56808 10.5956H15.4155C15.7183 10.5956 15.9554 10.8411 15.9554 11.1457V19.3025H15.9531ZM19.7793 11.8422C19.7793 12.1444 19.8122 12.1798 19.5117 12.1798H17.0469V11.2921C17.0469 10.3808 16.5869 9.4317 15.6808 9.4317H5.83568C4.92958 9.4317 3.93193 10.3808 3.93193 11.2921V12.1798H2.00704C1.70423 12.1798 1.19953 12.1444 1.19953 11.8422V5.78887C1.19953 5.48668 1.70423 5.03339 2.00704 5.03339H19.5117C19.8122 5.03339 19.7793 5.48432 19.7793 5.78887V11.8422ZM14.4131 13.0108H6.6784C6.53286 13.0084 6.39202 13.0627 6.28873 13.1666C6.18545 13.2681 6.12676 13.4074 6.12676 13.5538C6.12676 13.8631 6.37324 14.0968 6.6784 14.0968H14.4155C14.7207 14.0968 14.9671 13.8607 14.9671 13.5538C14.9671 13.4074 14.9085 13.2681 14.8052 13.1666C14.6995 13.0651 14.5587 13.0084 14.4131 13.0108ZM14.4131 16.2239H6.6784C6.48122 16.2239 6.30047 16.3302 6.20188 16.5002C6.10329 16.6725 6.10329 16.8826 6.20188 17.055C6.30047 17.2273 6.48122 17.3312 6.6784 17.3312H14.4155C14.6127 17.3312 14.7934 17.225 14.892 17.055C14.9906 16.8826 14.9906 16.6725 14.892 16.5002C14.7934 16.3278 14.6103 16.2239 14.4131 16.2239ZM16.9507 6.37673C16.9507 6.82766 17.3146 7.19359 17.7629 7.19359C18.2113 7.19359 18.5751 6.82766 18.5751 6.37673C18.5751 5.9258 18.2113 5.55986 17.7629 5.55986C17.3146 5.55986 16.9507 5.9258 16.9507 6.37673Z" fill="#323A3D"/>
</svg>
