<svg xmlns="http://www.w3.org/2000/svg" width="21" height="21" viewBox="0 0 21 21"><path d="M3.5,13.5h-1a2,2,0,0,1-2-2v-5a2,2,0,0,1,2-2h16a2,2,0,0,1,2,2v5a2,2,0,0,1-2,2h-1" style="fill:none;stroke:#262e30;stroke-miterlimit:10"/><line x1="14.5" y1="16.5" x2="6.5" y2="16.5" style="fill:none;stroke:#262e30;stroke-linecap:square;stroke-linejoin:round"/><line x1="14.5" y1="13.5" x2="6.5" y2="13.5" style="fill:none;stroke:#262e30;stroke-linecap:square;stroke-linejoin:round"/><path d="M3.5,4.5v-2a2,2,0,0,1,2-2h10a2,2,0,0,1,2,2v2" style="fill:none;stroke:#262e30;stroke-linecap:round;stroke-miterlimit:10"/><path d="M3.5,9.5h14a0,0,0,0,1,0,0v9a2,2,0,0,1-2,2H5.5a2,2,0,0,1-2-2v-9a0,0,0,0,1,0,0Z" style="fill:none;stroke:#262e30;stroke-miterlimit:10"/><rect x="18" y="6" width="1" height="1" style="fill:#262e30"/></svg>