<svg width="9" height="8" viewBox="0 0 9 8" fill="none" xmlns="http://www.w3.org/2000/svg">
<path d="M3.4626 4.82857C3.37677 4.82857 3.31955 4.8 3.26233 4.74286C2.91902 4.4 2.71875 3.94286 2.71875 3.45714C2.71875 2.97143 2.91902 2.51429 3.26233 2.17143L4.89309 0.542857C5.2364 0.2 5.69416 0 6.18052 0C6.66689 0 7.12464 0.2 7.46796 0.542857C8.1832 1.25714 8.1832 2.4 7.46796 3.11428L6.72411 3.85714C6.60967 3.97143 6.43801 3.97143 6.32357 3.85714C6.20913 3.74286 6.20913 3.57143 6.32357 3.45714L7.06742 2.71429C7.55379 2.22857 7.55379 1.42857 7.06742 0.942857C6.83854 0.714285 6.52384 0.571428 6.18052 0.571428C5.83721 0.571428 5.5225 0.714285 5.29362 0.942857L3.66287 2.57143C3.43399 2.8 3.29094 3.11429 3.29094 3.45714C3.29094 3.8 3.43399 4.11428 3.66287 4.34286C3.77731 4.45714 3.77731 4.62857 3.66287 4.74286C3.60565 4.8 3.54843 4.82857 3.4626 4.82857Z" fill="#323A3D"/>
<path d="M1.83102 7.99994C1.37326 7.99994 0.8869 7.82851 0.543584 7.45708C0.200268 7.11423 0 6.65709 0 6.17138C0 5.68566 0.200268 5.22852 0.543584 4.88567L1.28744 4.14281C1.40187 4.02853 1.57353 4.02853 1.68797 4.14281C1.80241 4.2571 1.80241 4.42852 1.68797 4.54281L0.94412 5.28566C0.715242 5.51423 0.572194 5.82852 0.572194 6.17138C0.572194 6.51423 0.715242 6.82852 0.94412 7.05709C1.43048 7.5428 2.23156 7.5428 2.71792 7.05709L4.34867 5.42852C4.57755 5.19995 4.7206 4.88567 4.7206 4.54281C4.7206 4.19995 4.57755 3.88567 4.34867 3.6571C4.23423 3.54281 4.23423 3.37139 4.34867 3.2571C4.46311 3.14282 4.63477 3.14282 4.74921 3.2571C5.09252 3.59996 5.29279 4.0571 5.29279 4.54281C5.29279 5.02852 5.09252 5.48566 4.74921 5.82852L3.11846 7.45708C2.77514 7.79994 2.28877 7.99994 1.83102 7.99994Z" fill="#323A3D"/>
</svg>
