<svg width="10" height="10" viewBox="0 0 10 10" fill="none" xmlns="http://www.w3.org/2000/svg">
<path d="M4.37002 8.98066C4.11699 8.98066 3.84908 8.87706 3.65559 8.68465L1.30329 6.37534C0.90142 5.99031 0.90142 5.33909 1.2884 4.93947L4.89117 1.29769C5.06978 1.11987 5.30792 1.01648 5.56117 1.00146H5.59093L8.22604 1.10507C8.5386 1.11987 8.80651 1.37148 8.82161 1.68229L9.00022 4.34702V4.36183C9.00022 4.62823 8.89603 4.86504 8.70232 5.05745L5.09955 8.69945C4.89117 8.87706 4.62305 8.98066 4.37002 8.98066ZM5.57583 1.44569C5.44188 1.4605 5.30792 1.5197 5.20374 1.6085L1.60118 5.25007C1.37771 5.47208 1.37771 5.82751 1.60118 6.04951L3.95327 8.35882C4.17653 8.58083 4.53374 8.58083 4.75722 8.35882L8.35999 4.71725C8.46418 4.61365 8.52371 4.48044 8.52371 4.33244L8.35999 1.69752C8.35999 1.60871 8.28557 1.53471 8.19627 1.53471L5.57583 1.44569Z" fill="#323A3D" stroke="#323A3D" stroke-width="0.1"/>
<path d="M6.29008 4.71572C6.00728 4.71572 5.75404 4.61212 5.56054 4.41971C5.14379 4.0201 5.14379 3.35386 5.54566 2.93944C5.73915 2.74704 6.00706 2.62842 6.29008 2.62842H6.30496C6.58776 2.62842 6.841 2.73202 7.03449 2.92443C7.45124 3.32404 7.45124 3.99028 7.04938 4.40491C6.841 4.59732 6.58776 4.70092 6.29008 4.71572C6.30496 4.71572 6.30496 4.71572 6.29008 4.71572ZM6.29008 3.07243C6.12635 3.07243 5.97751 3.13164 5.85822 3.25004C5.62008 3.48685 5.63496 3.87188 5.85822 4.09389C5.9773 4.21229 6.12614 4.27149 6.29008 4.27149C6.4538 4.27149 6.60264 4.21229 6.70683 4.09389C6.94497 3.85708 6.93009 3.47226 6.70683 3.25004C6.60264 3.13164 6.4538 3.07243 6.29008 3.07243Z" fill="#323A3D"/>
<path d="M6.29008 4.71572C6.00728 4.71572 5.75404 4.61212 5.56054 4.41971C5.14379 4.0201 5.14379 3.35386 5.54566 2.93944C5.73915 2.74704 6.00706 2.62842 6.29008 2.62842H6.30496C6.58776 2.62842 6.841 2.73202 7.03449 2.92443C7.45124 3.32404 7.45124 3.99028 7.04938 4.40491C6.841 4.59732 6.58776 4.70092 6.29008 4.71572ZM6.29008 4.71572C6.30496 4.71572 6.30496 4.71572 6.29008 4.71572ZM6.29008 3.07243C6.12635 3.07243 5.97751 3.13164 5.85822 3.25004C5.62008 3.48685 5.63496 3.87188 5.85822 4.09389C5.9773 4.21229 6.12614 4.27149 6.29008 4.27149C6.4538 4.27149 6.60264 4.21229 6.70683 4.09389C6.94497 3.85708 6.93009 3.47226 6.70683 3.25004C6.60264 3.13164 6.4538 3.07243 6.29008 3.07243Z" stroke="#323A3D" stroke-width="0.1"/>
</svg>
