<svg xmlns="http://www.w3.org/2000/svg" viewBox="0 0 16 16" width="16px" height="16px">
<path fill="#808080" d="M 3 0 L 3 16 L 6.3613281 16 C 10.584392 16.000011 13.000613 14.99955 13.066406 11.099609 C 13.000613 8.4746378 11.421875 7.5967 10.5625 7.296875 C 11 7.0001348 12 6.4851964 12 4 C 11.998007 1.2820714 9.9990238 2.4680048e-07 6.359375 0 L 3 0 z M 3.5 0.5 L 6.359375 0.5 C 7.9033731 0.5 9.1632916 0.80839367 10.072266 1.4414062 C 10.981239 2.0744189 11.5 3.0625 11.5 4.203125 C 11.5 5.397618 11.202666 6.2262446 10.654297 6.7792969 C 10.380321 7.0556129 9.9925213 7.1486579 9.6542969 7.3125 C 10.122334 7.4649494 10.58062 7.4742236 11.017578 7.828125 C 11.825156 8.4821989 12.463719 9.5408321 12.5 10.988281 L 12.5 10.998047 L 12.5 11.007812 C 12.465345 13.062131 11.72635 14.311861 10.564453 14.904297 C 9.4025567 15.4967 7.9616779 15.4949 6.4238281 15.5 L 3.5 15.5 L 3.5 0.5 z M 6.6914062 2.5117188 C 6.2771596 2.5022917 5.8703114 2.5182618 5.5 2.5253906 L 5.5 6.4511719 C 6.3843057 6.4419785 7.3560744 6.4413087 8.0976562 6.203125 C 8.5398322 6.0611055 8.8878766 5.8595959 9.1210938 5.5898438 C 9.3543108 5.3200916 9.498271 4.976613 9.4980469 4.4316406 C 9.4978035 3.8400832 9.33166 3.4925368 9.0664062 3.2246094 C 8.8011525 2.956682 8.4018312 2.7685186 7.9238281 2.6523438 C 7.5272979 2.5559702 7.1056529 2.5211458 6.6914062 2.5117188 z M 6 3.0058594 C 7.4476617 2.9994748 8.9991037 3.0007673 8.9824219 4.4472656 C 8.9653933 5.9238329 7.5802442 6.000795 6 6.0097656 L 6 3.0058594 z M 5.5 8.5 L 5.5 13.5 C 6.184944 13.502 7.0345824 13.5041 7.4355469 13.5 L 7.4375 13.5 L 7.4414062 13.5 C 8.6211924 13.5 9.3462736 13.159029 9.7988281 12.699219 C 10.251383 12.239408 10.449866 11.626375 10.447266 11.005859 C 10.44471 10.389517 10.253823 9.7888382 9.7558594 9.3242188 C 9.2578953 8.8595992 8.4135287 8.5 7 8.5 L 6.9960938 8.5 L 6.9921875 8.5 C 6.3845564 8.489648 6.0006946 8.49674 5.5 8.5 z M 6 9 C 6.9332322 9 6.5973834 8.9977721 7.4160156 9.0117188 C 8.9999302 9.0009732 9.9881376 9.5560542 9.9941406 11.003906 C 10.000194 12.463982 9.0009597 13 7.3632812 13 C 6.8496494 13.0053 6.6931417 13.0034 6 13 L 6 9 z M 4.5 14.498047 L 4.5 14.5 L 4.9980469 14.5 L 4.5 14.498047 z " />
<path fill="#009688" d="m 12,11 c -0.06579,3.899941 -2.5100604,3.989816 -5.5768737,4 H 4 V 1 H 6.3603512 C 9.3125,1 11,2.203125 11,4.203125 11,6.4383214 9.96875,6.84375 8.484375,7.3748652 9.78125,7.4090652 11.934207,8.3750284 12,11 Z M 9.9989432,4.4308733 C 9.9977954,1.640529 6.4476617,1.9936154 5,2 V 7 C 7,7 10,7 9.9989432,4.4308733 Z M 10.947071,11.004336 C 10.941068,9.556484 10,8 7,8 6.1813678,7.9860533 5.9332322,8 5,8 v 6 c 0.6931417,0.0034 1.9268147,0.0053 2.4404466,0 C 10,14 10.953125,12.464412 10.947071,11.004336 Z" />
</svg>
