<svg xmlns="http://www.w3.org/2000/svg" viewBox="0 0 16 16"><path d="M3,2V2M4,1H3A1,1,0,0,0,2,2V14a1,1,0,0,0,1,1H4V1Z" style="fill:#009688"/><polygon points="8 1 4 1 4 3 8 3 8 1 8 1" style="fill:#009688"/><polygon points="9 7 4 7 4 9 9 9 9 7 9 7" style="fill:#009688"/><polygon points="9 13 4 13 4 15 9 15 9 13 9 13" style="fill:#009688"/><path d="M9,8a3,3,0,0,1,0,6" style="fill:none;stroke:#009688;stroke-miterlimit:10;stroke-width:2px"/><path d="M8,2A3,3,0,0,1,8,8" style="fill:none;stroke:#009688;stroke-miterlimit:10;stroke-width:2px"/></svg>