<svg xmlns="http://www.w3.org/2000/svg" viewBox="0 0 16 16" width="16px" height="16px">
<path fill="#808080" d="m 4.25,1.25 v 13.5 H 6.4238281 C 7.9550132,14.7449 9.3017782,14.70695 10.224609,14.236328 11.146154,13.766363 11.714577,12.89426 11.748047,11.001953 11.715611,9.759759 11.205071,8.9432111 10.546875,8.4101562 9.1029625,7.398789 8.344894,7.5382005 7.2507941,7.4731562 8.4769831,7.2602927 9.6564272,6.8632046 10.164063,6.1347656 10.274222,5.9766906 10.75,5.2822758 10.75,4.203125 10.75,3.2734782 10.376638,2.5663256 9.6445312,2.0566406 8.9124241,1.5469557 7.8014876,1.25 6.359375,1.25 Z M 6.3964844,1.734375 C 7.2161251,1.749043 8.1487931,1.833985 8.9101562,2.2109375 9.6715196,2.5878899 10.247584,3.3058125 10.248047,4.4316406 10.248331,5.1225624 10.039341,5.6730907 9.6875,6.0800781 9.3356593,6.4870656 8.8548801,6.7482198 8.3261719,6.9179688 7.2687554,7.25747 5.999968,7.25 5,7.25 H 4.75 V 1.7519531 L 4.9980469,1.75 C 5.3500853,1.7484474 5.8499795,1.7245951 6.3964844,1.734375 Z M 4.75,7.75 H 5 c 0.9307414,0 1.1815757,-0.01401 2.0039062,0 1.5407673,7.868e-4 2.5967243,0.4032699 3.2636718,1.0253906 0.6676,0.6227287 0.926463,1.4487864 0.929688,2.2265624 0.0033,0.784756 -0.253554,1.602823 -0.863282,2.222656 C 9.7242569,13.844443 8.7711925,14.25 7.4414062,14.25 c -0.5191067,0.0053 -1.7497727,0.0034 -2.4433593,0 L 4.75,14.248047 V 8 Z" />
<path fill="#eb4949" d="M 3 0 L 3 16 L 6.3613281 16 C 10.584392 16.000011 13.000613 14.99955 13.066406 11.099609 C 13.000613 8.4746378 11.421875 7.5967 10.5625 7.296875 C 11 7.0001348 12 6.4851964 12 4 C 11.998007 1.2820714 9.9990238 2.4680048e-07 6.359375 0 L 3 0 z M 4 1 L 6.359375 1 C 9.3115238 1 11 2.203125 11 4.203125 C 11 6.4383214 9.96875 6.8438848 8.484375 7.375 C 9.78125 7.4092 11.934207 8.3750284 12 11 C 11.93421 14.899941 9.4906414 14.989816 6.4238281 15 L 4 15 L 4 1 z M 6.3925781 1.984375 C 5.8561577 1.9747756 5.3619154 1.9984038 5 2 L 5 7 C 7 7 9.9991037 7.0007673 9.9980469 4.4316406 C 9.997186 2.3388824 8.0018393 2.0131733 6.3925781 1.984375 z M 6 3.0058594 C 7.4476617 2.9994748 8.9991037 3.0007673 8.9824219 4.4472656 C 8.9653933 5.9238329 7.5802442 6.000795 6 6.0097656 L 6 3.0058594 z M 5 8 L 5 14 C 5.6931417 14.0034 6.9277744 14.0053 7.4414062 14 C 10.00096 14 10.95332 12.463982 10.947266 11.003906 C 10.941263 9.5560542 10 8 7 8 C 6.1813678 7.9860533 5.9332322 8 5 8 z M 6 9 C 6.9332322 9 6.5973834 8.9977721 7.4160156 9.0117188 C 8.9999302 9.0009732 9.9881376 9.5560542 9.9941406 11.003906 C 10.000194 12.463982 9.0009597 13 7.3632812 13 C 6.8496494 13.0053 6.6931417 13.0034 6 13 L 6 9 z " />
</svg>
