<svg width="21" height="20" viewBox="0 0 21 20" fill="none" xmlns="http://www.w3.org/2000/svg">
<path fill-rule="evenodd" clip-rule="evenodd" d="M18.8223 0.670677C18.5805 0.604357 18.3102 0.624806 18.0559 0.763978L1.22745 9.97419C0.29897 10.4823 0.417205 11.8517 1.41905 12.1932L5.9217 13.728C6.32217 13.8645 6.75749 13.6505 6.89399 13.25C7.0305 12.8495 6.81651 12.4142 6.41603 12.2777L2.59174 10.9742L15.6966 3.80188L8.1136 12.895C7.72855 13.3567 7.51766 13.9389 7.51766 14.5401V18.5996C7.51766 19.0227 7.86065 19.3657 8.28376 19.3657C8.70686 19.3657 9.04985 19.0227 9.04985 18.5996V14.5401C9.04985 14.2975 9.13495 14.0626 9.29032 13.8763L17.6718 3.82563L15.5515 15.8879L11.0451 14.228C10.6481 14.0818 10.2077 14.2851 10.0615 14.6821C9.91523 15.0791 10.1185 15.5195 10.5156 15.6658L15.3763 17.4562C16.0882 17.7184 16.8638 17.2723 16.9952 16.5251L19.5743 1.85264C19.6457 1.44649 19.4792 1.08673 19.2029 0.865349C19.1918 0.854897 19.1803 0.844711 19.1684 0.834808C19.0651 0.748615 18.9457 0.694265 18.8223 0.670677Z" fill="#262E30"/>
</svg>
