<svg width="20" height="20" viewBox="0 0 20 20" fill="none" xmlns="http://www.w3.org/2000/svg">
<path fill-rule="evenodd" clip-rule="evenodd" d="M19.1255 0.670677C18.8837 0.604357 18.6134 0.624806 18.3591 0.763978L1.53067 9.97419C0.602193 10.4823 0.720428 11.8517 1.72227 12.1932L6.22492 13.728C6.6254 13.8645 7.06071 13.6505 7.19722 13.25C7.33372 12.8495 7.11973 12.4142 6.71925 12.2777L2.89496 10.9742L15.9998 3.80188L8.41683 12.895C8.03177 13.3567 7.82088 13.9389 7.82088 14.5401V18.5996C7.82088 19.0227 8.16388 19.3657 8.58698 19.3657C9.01008 19.3657 9.35307 19.0227 9.35307 18.5996V14.5401C9.35307 14.2975 9.43817 14.0626 9.59354 13.8763L17.9751 3.82563L15.8547 15.8879L11.3484 14.228C10.9513 14.0818 10.5109 14.2851 10.3647 14.6821C10.2185 15.0791 10.4218 15.5195 10.8188 15.6658L15.6795 17.4562C16.3914 17.7184 17.1671 17.2723 17.2984 16.5251L19.8776 1.85264C19.949 1.44649 19.7824 1.08673 19.5062 0.865349C19.495 0.854897 19.4835 0.844711 19.4717 0.834808C19.3683 0.748615 19.249 0.694265 19.1255 0.670677Z" fill="#CECECE"/>
</svg>
