<?xml version="1.0" encoding="UTF-8" standalone="no"?>
<!-- Generator: Adobe Illustrator 23.0.2, SVG Export Plug-In . SVG Version: 6.00 Build 0)  -->

<svg
   version="1.0"
   id="Layer_1"
   x="0px"
   y="0px"
   viewBox="0 0 128 128"
   enable-background="new 0 0 128 128"
   xml:space="preserve"
   sodipodi:docname="measure2.svg"
   inkscape:version="1.1 (c68e22c387, 2021-05-23)"
   xmlns:inkscape="http://www.inkscape.org/namespaces/inkscape"
   xmlns:sodipodi="http://sodipodi.sourceforge.net/DTD/sodipodi-0.dtd"
   xmlns="http://www.w3.org/2000/svg"
   xmlns:svg="http://www.w3.org/2000/svg"><defs
   id="defs976">
	
	

		
		
	
		
	</defs><sodipodi:namedview
   id="namedview974"
   pagecolor="#505050"
   bordercolor="#eeeeee"
   borderopacity="1"
   inkscape:pageshadow="0"
   inkscape:pageopacity="0"
   inkscape:pagecheckerboard="0"
   showgrid="false"
   inkscape:zoom="6.34375"
   inkscape:cx="63.921182"
   inkscape:cy="64.078818"
   inkscape:window-width="1920"
   inkscape:window-height="1001"
   inkscape:window-x="3191"
   inkscape:window-y="-9"
   inkscape:window-maximized="1"
   inkscape:current-layer="Layer_1" />
<g
   id="g1872"><path
     fill="#ed6b21"
     d="m 26.966044,54.457929 0.07558,-9.999714 c 0.0063,-0.829976 0.681318,-1.494893 1.511294,-1.48862 0.829976,0.0063 1.494893,0.681318 1.48862,1.511294 l -0.07558,9.999714 c -0.0063,0.829977 -0.681318,1.494894 -1.511294,1.48862 -0.829976,-0.0063 -1.494893,-0.681317 -1.48862,-1.511294 z"
     id="path958-8"
     style="fill:#ed6b21;fill-opacity:1;paint-order:stroke fill markers"
     sodipodi:nodetypes="sccsccs" /><path
     fill="#ed6b21"
     d="m 36.966044,54.458378 0.07558,-9.999714 c 0.0063,-0.829976 0.681318,-1.494893 1.511294,-1.48862 0.829976,0.0063 1.494893,0.681318 1.48862,1.511294 l -0.07558,9.999714 c -0.0063,0.829977 -0.681318,1.494894 -1.511294,1.48862 -0.829976,-0.0063 -1.494893,-0.681317 -1.48862,-1.511294 z"
     id="path958-8-1"
     style="fill:#ed6b21;fill-opacity:1;paint-order:stroke fill markers"
     sodipodi:nodetypes="sccsccs" /><path
     fill="#ed6b21"
     d="m 46.966202,60.202938 0.07558,-14.999888 c 0.0063,-1.244993 0.681318,-2.242399 1.511294,-2.232988 0.829976,0.0087 1.494893,1.021998 1.48862,2.266999 l -0.07558,14.999887 c -0.0063,1.244995 -0.681318,2.242401 -1.511294,2.232988 -0.829976,-0.0087 -1.494893,-1.021997 -1.48862,-2.266998 z"
     id="path958-8-9"
     style="fill:#ed6b21;fill-opacity:1;stroke-width:1.22476;paint-order:stroke fill markers"
     sodipodi:nodetypes="sccsccs" /><path
     fill="#ed6b21"
     d="m 56.966044,54.458378 0.07558,-9.999714 c 0.0063,-0.829976 0.681318,-1.494893 1.511294,-1.48862 0.829976,0.0063 1.494893,0.681318 1.48862,1.511294 l -0.07558,9.999714 c -0.0063,0.829977 -0.681318,1.494894 -1.511294,1.48862 -0.829976,-0.0063 -1.494893,-0.681317 -1.48862,-1.511294 z"
     id="path958-8-9-3"
     style="fill:#ed6b21;fill-opacity:1;paint-order:stroke fill markers"
     sodipodi:nodetypes="sccsccs" /><path
     fill="#ed6b21"
     d="m 66.966044,54.458378 0.07558,-9.999714 c 0.0063,-0.829976 0.681318,-1.494893 1.511294,-1.48862 0.829976,0.0063 1.494893,0.681318 1.48862,1.511294 l -0.07558,9.999714 c -0.0063,0.829977 -0.681318,1.494894 -1.511294,1.48862 -0.829976,-0.0063 -1.494893,-0.681317 -1.48862,-1.511294 z"
     id="path958-8-9-3-0"
     style="fill:#ed6b21;fill-opacity:1;paint-order:stroke fill markers"
     sodipodi:nodetypes="sccsccs" /><path
     fill="#ed6b21"
     d="m 76.966202,60.202932 0.07558,-14.999881 c 0.0063,-1.244994 0.681318,-2.2424 1.511294,-2.23299 0.829976,0.0085 1.494893,1.021998 1.48862,2.266999 l -0.07558,14.999882 c -0.0063,1.244995 -0.681318,2.2424 -1.511294,2.232987 -0.829976,-0.0085 -1.494893,-1.021996 -1.48862,-2.266997 z"
     id="path958-8-9-3-1"
     style="fill:#ed6b21;fill-opacity:1;stroke-width:1.22474;paint-order:stroke fill markers"
     sodipodi:nodetypes="sccsccs" /><path
     fill="#ed6b21"
     d="m 86.966044,54.458378 0.07558,-9.999714 c 0.0063,-0.829976 0.681318,-1.494893 1.511294,-1.48862 0.829976,0.0063 1.494893,0.681318 1.48862,1.511294 l -0.07558,9.999714 c -0.0063,0.829977 -0.681318,1.494894 -1.511294,1.48862 -0.829976,-0.0063 -1.494893,-0.681317 -1.48862,-1.511294 z"
     id="path958-8-9-3-1-4"
     style="fill:#ed6b21;fill-opacity:1;paint-order:stroke fill markers"
     sodipodi:nodetypes="sccsccs" /><path
     fill="#ed6b21"
     d="m 96.966044,54.458378 0.07558,-9.999714 c 0.0063,-0.829976 0.681318,-1.494893 1.511294,-1.48862 0.829976,0.0063 1.494892,0.681318 1.488622,1.511294 l -0.07558,9.999714 c -0.0063,0.829977 -0.681318,1.494894 -1.511294,1.48862 -0.829976,-0.0063 -1.494893,-0.681317 -1.48862,-1.511294 z"
     id="path958-8-9-3-1-4-2"
     style="fill:#ed6b21;fill-opacity:1;paint-order:stroke fill markers"
     sodipodi:nodetypes="sccsccs" /></g><g
   id="g964"
   transform="translate(0,34.9)">
			<path
   fill="#ffffff"
   d="M 108.79,51.6 H 19.21 c -1.93,0 -3.5,-1.57 -3.5,-3.5 V 10.12 c 0,-1.93 1.57,-3.5 3.5,-3.5 h 89.57 c 1.93,0 3.5,1.57 3.5,3.5 V 48.1 c 0.01,1.93 -1.57,3.5 -3.49,3.5 z M 19.21,9.62 c -0.27,0 -0.5,0.23 -0.5,0.5 V 48.1 c 0,0.27 0.23,0.5 0.5,0.5 h 89.57 c 0.27,0 0.5,-0.23 0.5,-0.5 V 10.12 c 0,-0.27 -0.23,-0.5 -0.5,-0.5 z"
   id="path962" />
		</g>
</svg>
