<svg width="240" height="160" viewBox="0 0 240 160" fill="none" xmlns="http://www.w3.org/2000/svg">
<g clip-path="url(#clip0_6645_29335)">
<ellipse cx="131.03" cy="150.882" rx="48.0882" ry="8.82353" fill="#DEDEDE"/>
<path d="M104.117 54.7059L173.382 30V98.8235L104.117 123.529V54.7059Z" fill="#C3C3C3"/>
<rect x="37.0586" y="55.1484" width="67.0588" height="67.9412" fill="#AEACAC"/>
<path d="M102.352 32.2063L36.1758 55.5887H107.205L173.382 30.8828L102.352 32.2063Z" fill="#E4E4E4"/>
<path d="M74.493 69.2261L29.2756 65.7179C26.7198 65.5196 24.8118 68.0261 25.6834 70.4368L50.3617 138.688C51.1902 140.979 54.036 141.761 55.9195 140.216L86.4118 115.197C86.4514 115.164 86.4876 115.136 86.5273 115.103C87.1914 114.562 93.5301 108.976 93.5301 93.089C93.5301 77.9158 78.3516 70.6931 75.4699 69.4586C75.1595 69.3256 74.8297 69.2522 74.493 69.2261Z" fill="#8D8B8B"/>
<path d="M72.5174 91.4895C80.1378 112.209 73.0361 133.267 57.5027 138.98C41.9693 144.693 22.9158 133.255 15.2954 112.535C7.67491 91.8149 14.7766 70.7569 30.3101 65.0439C45.8435 59.331 64.897 70.7696 72.5174 91.4895Z" fill="#C4C4C4" stroke="#D8D8D8" stroke-width="2.64706"/>
<ellipse cx="58.0016" cy="95.8333" rx="12.6155" ry="16.1471" transform="rotate(-20.1927 58.0016 95.8333)" fill="#AEACAC"/>
<path d="M195.968 13.0157H195.748V13.2363V15.5176V15.7382H195.968H208.915L194.826 33.8895L194.779 33.9492V34.0248V36.1775V36.3981H195H213.529H213.75V36.1775V33.8962V33.6756H213.529H198.872L212.929 15.5564L212.975 15.4967V15.4212V13.2363V13.0157H212.755H195.968Z" fill="#B8B8B8" stroke="#B8B8B8" stroke-width="0.441176"/>
<path d="M229.083 0.662224H228.862V0.882812V2.19893V2.41952H229.083H236.29L228.354 12.7417L228.309 12.8011V12.8761V14.1181V14.3387H228.529H239.118H239.338V14.1181V12.802V12.5814H239.118H230.932L238.85 2.27772L238.895 2.21828V2.14332V0.882812V0.662224H238.675H229.083Z" fill="#B8B8B8" stroke="#B8B8B8" stroke-width="0.441176"/>
</g>
<defs>
<clipPath id="clip0_6645_29335">
<rect width="240" height="159.706" fill="white"/>
</clipPath>
</defs>
</svg>
