<svg width="240" height="160" viewBox="0 0 240 160" fill="none" xmlns="http://www.w3.org/2000/svg">
<rect x="109" y="80.1484" width="22.6316" height="22.6316" fill="url(#paint0_linear_8097_31792)"/>
<path d="M120 46.1484C128.505 46.1484 136.818 48.6703 143.89 53.3952C150.961 58.1201 156.472 64.8358 159.727 72.6931C162.981 80.5503 163.833 89.1961 162.174 97.5373C160.515 105.879 156.419 113.54 150.406 119.554C144.392 125.568 136.73 129.663 128.389 131.322C120.048 132.981 111.402 132.13 103.545 128.875C95.6874 125.621 88.9717 120.109 84.2468 113.038C79.5219 105.967 77 97.653 77 89.1484H83.5006C83.5006 96.3673 85.6413 103.424 89.6519 109.426C93.6625 115.429 99.3629 120.107 106.032 122.869C112.702 125.632 120.04 126.355 127.121 124.947C134.201 123.538 140.704 120.062 145.809 114.957C150.913 109.853 154.39 103.349 155.798 96.2691C157.206 89.1889 156.484 81.8501 153.721 75.1807C150.958 68.5113 146.28 62.8109 140.278 58.8003C134.276 54.7897 127.219 52.649 120 52.649V46.1484Z" fill="#CCCCCC"/>
<path d="M100.059 51.7332C99.0187 50.9326 99.0187 49.3642 100.059 48.5636L119.53 33.5746C120.845 32.5622 122.75 33.4998 122.75 35.1594L122.75 65.1374C122.75 66.7971 120.845 67.7346 119.53 66.7222L100.059 51.7332Z" fill="#CCCCCC"/>
<defs>
<linearGradient id="paint0_linear_8097_31792" x1="120.316" y1="80.1484" x2="120.316" y2="102.78" gradientUnits="userSpaceOnUse">
<stop stop-color="#CDCDCD"/>
<stop offset="1" stop-color="#BCBCBC"/>
</linearGradient>
</defs>
</svg>
