<svg xmlns="http://www.w3.org/2000/svg" width="240" height="160" viewBox="0 0 240 160"><path d="M134.867,68.2a1.984,1.984,0,0,0-2.117.239L116,81.834V66a6.007,6.007,0,0,0-6-6H70a6.006,6.006,0,0,0-6,6v44a6.006,6.006,0,0,0,6,6h40a6.007,6.007,0,0,0,6-6V94.163l16.75,13.4A2,2,0,0,0,136,106V70A2,2,0,0,0,134.867,68.2ZM112,110a2,2,0,0,1-2,2H70a2,2,0,0,1-2-2V66a2,2,0,0,1,2-2h40a2,2,0,0,1,2,2Zm20-8.16-16-12.8V86.959l16-12.8ZM92,76H76a2,2,0,0,1-2-2h0a2,2,0,0,1,2-2H92a2,2,0,0,1,2,2h0A2,2,0,0,1,92,76Zm-8,8A12,12,0,1,0,96,96,12.013,12.013,0,0,0,84,84Zm0,20a8,8,0,1,1,8-8A8.01,8.01,0,0,1,84,104Zm72-10a2,2,0,0,1-2,2H142a2,2,0,0,1-1.6-3.2L150,80h-8a2,2,0,0,1,0-4h12a2,2,0,0,1,1.6,3.2L146,92h8A2,2,0,0,1,156,94Zm20-24a2,2,0,0,1-2,2H154a2,2,0,0,1-1.536-3.281L169.73,48H154a2,2,0,0,1,0-4h20a2,2,0,0,1,1.535,3.281L158.269,68H174A2,2,0,0,1,176,70Z" style="fill:#ccc;opacity:0.5"/></svg>