<svg width="272" height="181" viewBox="0 0 272 181" fill="none" xmlns="http://www.w3.org/2000/svg">
<ellipse cx="148.5" cy="171" rx="54.5" ry="10" fill="#DEDEDE"/>
<path d="M118 62L196.5 34V112L118 140V62Z" fill="#C3C3C3"/>
<rect x="42" y="62.5" width="76" height="77" fill="#AEACAC"/>
<path d="M116 36.5L41 63H121.5L196.5 35L116 36.5Z" fill="#E4E4E4"/>
<path d="M84.4247 78.4554L33.1782 74.4793C30.2816 74.2546 28.1192 77.0953 29.1071 79.8275L57.0758 157.178C58.0147 159.775 61.24 160.662 63.3747 158.91L97.9325 130.555C97.9775 130.518 98.0185 130.486 98.0635 130.45C98.8161 129.836 106 123.505 106 105.5C106 88.3036 88.7977 80.118 85.5318 78.7188C85.18 78.5681 84.8063 78.485 84.4247 78.4554Z" fill="#8D8B8B"/>
<path d="M82.1864 103.688C90.8229 127.171 82.7743 151.036 65.1697 157.511C47.5652 163.986 25.9713 151.022 17.3347 127.539C8.69823 104.057 16.7468 80.191 34.3514 73.7163C51.9559 67.2416 73.5499 80.2054 82.1864 103.688Z" fill="#C4C4C4" stroke="#D8D8D8" stroke-width="3"/>
<ellipse cx="65.7356" cy="108.611" rx="14.2976" ry="18.3001" transform="rotate(-20.1927 65.7356 108.611)" fill="#AEACAC"/>
<path d="M222.098 14.75H221.848V15V17.5854V17.8354H222.098H236.77L220.803 38.4069L220.75 38.4746V38.5602V41V41.25H221H242H242.25V41V38.4146V38.1646H242H225.388L241.319 17.6294L241.372 17.5618V17.4762V15V14.75H241.122H222.098Z" fill="#B8B8B8" stroke="#B8B8B8" stroke-width="0.5"/>
<path d="M259.627 0.75H259.377V1V2.4916V2.7416H259.627H267.796L258.802 14.4401L258.75 14.5074V14.5924V16V16.25H259H271H271.25V16V14.5084V14.2584H271H261.723L270.696 2.5809L270.748 2.51353V2.42857V1V0.75H270.498H259.627Z" fill="#B8B8B8" stroke="#B8B8B8" stroke-width="0.5"/>
</svg>
