<svg width="86" height="104" viewBox="0 0 86 104" fill="none" xmlns="http://www.w3.org/2000/svg">
<rect x="32" y="52" width="22.6316" height="22.6316" fill="url(#paint0_linear_6645_29777)"/>
<path d="M43 18C51.5046 18 59.8182 20.5219 66.8895 25.2468C73.9608 29.9717 79.4723 36.6874 82.7268 44.5446C85.9814 52.4018 86.8329 61.0477 85.1738 69.3889C83.5146 77.7301 79.4193 85.3919 73.4056 91.4056C67.3919 97.4193 59.7301 101.515 51.3889 103.174C43.0477 104.833 34.4018 103.981 26.5446 100.727C18.6874 97.4723 11.9717 91.9608 7.24681 84.8895C2.52191 77.8182 -2.02833e-07 69.5046 0 61H6.50061C6.50061 68.2189 8.64126 75.2757 12.6519 81.278C16.6625 87.2803 22.3629 91.9585 29.0323 94.721C35.7017 97.4836 43.0405 98.2064 50.1207 96.7981C57.2009 95.3897 63.7044 91.9135 68.809 86.809C73.9135 81.7044 77.3897 75.2009 78.7981 68.1207C80.2064 61.0405 79.4836 53.7017 76.721 47.0323C73.9585 40.3629 69.2803 34.6625 63.278 30.6519C57.2757 26.6413 50.2189 24.5006 43 24.5006V18Z" fill="#D9D9D9"/>
<path d="M23.0587 23.5848C22.0187 22.7842 22.0187 21.2158 23.0587 20.4152L42.53 5.42619C43.8452 4.41379 45.75 5.35132 45.75 7.011L45.75 36.989C45.75 38.6487 43.8452 39.5862 42.53 38.5738L23.0587 23.5848Z" fill="#D9D9D9"/>
<defs>
<linearGradient id="paint0_linear_6645_29777" x1="43.3158" y1="52" x2="43.3158" y2="74.6316" gradientUnits="userSpaceOnUse">
<stop stop-color="#D9D9D9"/>
<stop offset="1" stop-color="#E8E8E8"/>
</linearGradient>
</defs>
</svg>
