<svg width="14" height="14" viewBox="0 0 14 14" fill="none" xmlns="http://www.w3.org/2000/svg">
<path d="M13 3.75019H7C6.7 3.75019 6.5 3.49305 6.5 3.10734C6.5 2.72162 6.7 2.46448 7 2.46448H13C13.3 2.46448 13.5 2.72162 13.5 3.10734C13.5 3.49305 13.3 3.75019 13 3.75019Z" fill="#00AE42"/>
<path d="M10 8.01686C9.7 8.01686 9.5 8.22639 9.5 8.54067V10.7406V11.7883C9.5 12.1026 9.3 12.3121 9 12.3121H1.6C1.3 12.3121 1.1 12.1026 1.1 11.7883V4.14067C1.1 4.03591 1.1 3.82639 1.3 3.72163C1.4 3.61686 1.5 3.5121 1.7 3.5121H4.9C5.2 3.5121 5.4 3.30257 5.4 2.98829C5.4 2.674 5 2.46448 4.8 2.46448H2.7H1.6C1.1 2.46448 0.8 2.674 0.4 2.98829C0.2 3.30257 0 3.72163 0 4.14067V11.7883C0 12.7312 0.8 13.4645 1.6 13.4645H8.9C9.8 13.4645 10.5 12.7312 10.5 11.7883V10.7406V8.54067C10.5 8.22639 10.3 8.01686 10 8.01686Z" fill="#808080"/>
</svg>
