<svg width="14" height="14" viewBox="0 0 14 14" fill="none" xmlns="http://www.w3.org/2000/svg">
<path d="M7 7.51163C6.6 7.51163 6.2 7.40698 5.9 7.19767L1.5 4.16279C0.9 3.74419 0.5 2.90698 0.5 2.06977V1.02326C0.5 0.709302 0.7 0.5 1 0.5C1.3 0.5 1.5 0.709302 1.5 1.02326V2.06977C1.5 2.48837 1.8 3.01163 2.1 3.22093L6.5 6.25581C6.8 6.46512 7.3 6.46512 7.6 6.25581L11.9 3.22093C12.2 3.01163 12.5 2.38372 12.5 2.06977V1.02326C12.5 0.709302 12.7 0.5 13 0.5C13.3 0.5 13.5 0.709302 13.5 1.02326V2.06977C13.5 2.80233 13.1 3.74419 12.4 4.16279L8.1 7.19767C7.8 7.40698 7.4 7.51163 7 7.51163Z" fill="#808080"/>
<path d="M10 7.72093C9.90002 7.72093 9.80002 7.61628 9.70002 7.51163C9.60002 7.30233 9.60002 7.09303 9.80002 6.98838L12.8 4.89535C12.9 4.7907 13.1 4.7907 13.2 4.89535C13.3 5 13.4 5.10465 13.4 5.20931V7.30233C13.4 7.51163 13.2 7.72093 13 7.72093C12.8 7.72093 12.6 7.51163 12.6 7.30233V5.94186L10.2 7.61628C10.1 7.61628 10.1 7.72093 10 7.72093Z" fill="#00AE42"/>
<path d="M13 14H9.99998C9.79998 14 9.59998 13.7907 9.59998 13.5814C9.59998 13.3721 9.79998 13.1628 9.99998 13.1628H12.6V12.5349C12.6 12.3256 12.8 12.1163 13 12.1163C13.2 12.1163 13.4 12.3256 13.4 12.5349V13.5814C13.4 13.7907 13.2 14 13 14Z" fill="#00AE42"/>
<path d="M7.99998 14H5.99998C5.79998 14 5.59998 13.7907 5.59998 13.5814C5.59998 13.3721 5.79998 13.1628 5.99998 13.1628H7.99998C8.19998 13.1628 8.39998 13.3721 8.39998 13.5814C8.39998 13.7907 8.19998 14 7.99998 14Z" fill="#00AE42"/>
<path d="M13 10.8605C12.8 10.8605 12.6 10.6512 12.6 10.4419V9.39535C12.6 9.18605 12.8 8.97675 13 8.97675C13.2 8.97675 13.4 9.18605 13.4 9.39535V10.4419C13.4 10.6512 13.2 10.8605 13 10.8605Z" fill="#00AE42"/>
<path d="M6.99999 9.81394C6.89999 9.81394 6.79999 9.70928 6.69999 9.60463C6.59999 9.39533 6.69999 9.18603 6.79999 9.08138L8.39999 8.03487C8.59999 7.93021 8.79999 7.93022 8.89999 8.13952C8.99999 8.34882 8.99999 8.55812 8.79999 8.66277L7.19999 9.70928C7.09999 9.81394 7.09999 9.81394 6.99999 9.81394Z" fill="#00AE42"/>
<path d="M3.99998 7.72093C3.89998 7.72093 3.89998 7.72093 3.79998 7.61628L1.39998 5.94186V7.30233C1.39998 7.51163 1.19998 7.72093 0.999976 7.72093C0.799976 7.72093 0.599976 7.51163 0.599976 7.30233V5.20931C0.599976 5.10465 0.699976 4.89535 0.799976 4.89535C0.899976 4.7907 1.09998 4.7907 1.19998 4.89535L4.19998 6.98838C4.39998 7.09303 4.39998 7.30233 4.29998 7.51163C4.19998 7.61628 4.09998 7.72093 3.99998 7.72093Z" fill="#00AE42"/>
<path d="M3.99998 14H0.999976C0.799976 14 0.599976 13.7907 0.599976 13.5814V12.5349C0.599976 12.3256 0.799976 12.1163 0.999976 12.1163C1.19998 12.1163 1.39998 12.3256 1.39998 12.5349V13.1628H3.99998C4.19998 13.1628 4.39998 13.3721 4.39998 13.5814C4.39998 13.7907 4.19998 14 3.99998 14Z" fill="#00AE42"/>
<path d="M0.999976 10.8605C0.799976 10.8605 0.599976 10.6512 0.599976 10.4419V9.39535C0.599976 9.18605 0.799976 8.97675 0.999976 8.97675C1.19998 8.97675 1.39998 9.18605 1.39998 9.39535V10.4419C1.39998 10.6512 1.19998 10.8605 0.999976 10.8605Z" fill="#00AE42"/>
<path d="M6.99999 9.81394C6.89999 9.81394 6.89999 9.81394 6.79999 9.70928L5.19999 8.66277C4.99999 8.55812 4.99999 8.34882 5.09999 8.13952C5.19999 7.93022 5.39999 7.93021 5.59999 8.03487L7.19999 9.08138C7.39999 9.18603 7.39999 9.39533 7.29999 9.60463C7.19999 9.70928 7.09999 9.81394 6.99999 9.81394Z" fill="#00AE42"/>
</svg>
