<svg width="14" height="14" viewBox="0 0 14 14" fill="none" xmlns="http://www.w3.org/2000/svg">
<path d="M13 1.78571H7C6.7 1.78571 6.5 1.52857 6.5 1.14286C6.5 0.757143 6.7 0.5 7 0.5H13C13.3 0.5 13.5 0.757143 13.5 1.14286C13.5 1.52857 13.3 1.78571 13 1.78571Z" fill="#00AE42"/>
<path d="M10 6.05238C9.7 6.05238 9.5 6.26191 9.5 6.57619V8.77616V9.82384C9.5 10.1381 9.3 10.3476 9 10.3476H1.6C1.3 10.3476 1.1 10.1381 1.1 9.82384V2.17619C1.1 2.07143 1.1 1.86191 1.3 1.75715C1.4 1.65238 1.5 1.54762 1.7 1.54762H4.9C5.2 1.54762 5.4 1.33809 5.4 1.02381C5.4 0.709524 5 0.5 4.8 0.5H2.7H1.6C1.1 0.5 0.8 0.709524 0.4 1.02381C0.2 1.33809 0 1.75715 0 2.17619V9.82384C0 10.7667 0.8 11.5 1.6 11.5H8.9C9.8 11.5 10.5 10.7667 10.5 9.82384V8.77616V6.57619C10.5 6.26191 10.3 6.05238 10 6.05238Z" fill="#808080"/>
</svg>
