<svg width="14" height="14" viewBox="0 0 14 14" fill="none" xmlns="http://www.w3.org/2000/svg">
<path d="M10 8.3C9.7 8.3 9.5 8.5 9.5 8.8V10.9V11.9C9.5 12.2 9.3 12.4 9 12.4H1.6C1.3 12.4 1.1 12.2 1.1 11.9V4.6C1.1 4.5 1.1 4.3 1.3 4.2C1.4 4.1 1.5 4 1.7 4H4.9C5.2 4 5.4 3.8 5.4 3.5C5.4 3.2 5 3 4.8 3H2.7H1.6C1.1 3 0.8 3.2 0.4 3.5C0.2 3.8 0 4.2 0 4.6V11.9C0 12.8 0.8 13.5 1.6 13.5H8.9C9.8 13.5 10.5 12.8 10.5 11.9V10.9V8.8C10.5 8.5 10.3 8.3 10 8.3Z" fill="#808080"/>
<path d="M10 7C11.933 7 13.5 5.433 13.5 3.5C13.5 1.567 11.933 0 10 0C8.067 0 6.5 1.567 6.5 3.5C6.5 5.433 8.067 7 10 7Z" fill="#00AE42"/>
</svg>
