<svg width="14" height="14" viewBox="0 0 14 14" fill="none" xmlns="http://www.w3.org/2000/svg">
<path fill-rule="evenodd" clip-rule="evenodd" d="M10.425 3.04002C10.425 3.28482 10.1803 3.77443 9.93551 3.93763L6.42666 6.30404C6.18186 6.46724 5.77386 6.46724 5.52906 6.30404L1.93864 3.93763C1.7044 3.78147 1.47017 3.40119 1.45038 3.08272C1.47 3.40127 1.70433 3.7818 1.93866 3.93802L5.52908 6.30443C5.77388 6.46763 6.18188 6.46763 6.42669 6.30443L9.93553 3.93802C10.1803 3.77482 10.4251 3.28521 10.4251 3.04041V2.22441C10.4251 1.97961 10.5883 1.81641 10.8331 1.81641C11.0664 1.81641 11.2256 1.96466 11.24 2.19051C11.2258 1.96444 11.0665 1.81602 10.8331 1.81602C10.5883 1.81602 10.425 1.97922 10.425 2.22402V3.04002ZM1.44803 2.19117C1.43404 1.96473 1.27472 1.81602 1.04103 1.81602C0.796233 1.81602 0.633032 1.97922 0.633032 2.22402V3.04002C0.633032 3.08216 0.634392 3.1243 0.637069 3.16635C0.634409 3.12443 0.633057 3.08242 0.633057 3.04041V2.22441C0.633057 1.97961 0.796257 1.81641 1.04106 1.81641C1.27461 1.81641 1.43388 1.96495 1.44803 2.19117ZM9.85229 3.81282L6.34313 6.17945C6.25087 6.24083 6.11864 6.27644 5.97786 6.27644C5.83691 6.27644 5.70454 6.24075 5.61226 6.17923L2.02184 3.81282C1.92462 3.7479 1.8166 3.62551 1.73277 3.47649C1.64885 3.32728 1.59904 3.16925 1.59904 3.04002V2.22402C1.59904 2.06753 1.54622 1.92547 1.4429 1.82215C1.33958 1.71883 1.19752 1.66602 1.04103 1.66602C0.884546 1.66602 0.742484 1.71883 0.639167 1.82215C0.535849 1.92547 0.483032 2.06753 0.483032 2.22402V3.04002C0.483032 3.73652 0.829398 4.43921 1.36583 4.79684L4.95624 7.16324C5.23112 7.34636 5.58857 7.43324 5.93706 7.43324C6.28571 7.43324 6.64294 7.34654 6.91787 7.16325L10.4229 4.79943C11.047 4.43967 11.3911 3.65177 11.3911 3.04002V2.22402C11.3911 2.06753 11.3383 1.92547 11.235 1.82215C11.1316 1.71884 10.9896 1.66602 10.8331 1.66602C10.6766 1.66602 10.5345 1.71883 10.4312 1.82214C10.3279 1.92546 10.275 2.06753 10.275 2.22402V3.04002C10.275 3.12572 10.2274 3.28316 10.1395 3.44925C10.0521 3.61435 9.94403 3.75166 9.85229 3.81282Z" fill="#808080"/>
<path fill-rule="evenodd" clip-rule="evenodd" d="M6.42671 8.37145C6.18191 8.53465 5.77391 8.53465 5.52911 8.37145L1.93869 6.00503C1.61228 5.84184 1.28588 5.76023 1.04108 5.92344C0.800203 6.08402 0.638331 6.40262 0.633206 6.72376C0.638798 6.40311 0.800544 6.08524 1.04106 5.9249C1.28586 5.76169 1.61226 5.8433 1.93866 6.00649L5.52908 8.37291C5.77388 8.53611 6.18188 8.53611 6.42669 8.37291L9.93553 6.00649C10.2619 5.8433 10.5883 5.76169 10.8331 5.9249C11.0779 6.0881 11.2411 6.3329 11.2411 6.7409V11.6369C11.2411 11.643 11.2411 11.6492 11.241 11.6553C11.2411 11.6487 11.2411 11.6421 11.2411 11.6354V6.73944C11.2411 6.33144 11.0779 6.08664 10.8332 5.92344C10.5883 5.76023 10.2619 5.84184 9.93556 6.00503L6.42671 8.37145ZM9.89083 5.91559L6.37103 8.28838C6.26873 8.3565 6.12617 8.39385 5.97791 8.39385C5.82954 8.39385 5.68689 8.35645 5.58458 8.28824L1.99372 5.92154L1.98341 5.91559C1.65608 5.75193 1.28092 5.64336 0.985613 5.84023C0.709591 6.02425 0.533081 6.38391 0.533081 6.73944V11.6354C0.533081 12.3435 1.14905 12.9595 1.85709 12.9595H10.0171C10.7252 12.9595 11.3411 12.3435 11.3411 11.6354V6.73944C11.3411 6.52178 11.2975 6.34175 11.217 6.19223C11.1364 6.04266 11.022 5.92917 10.8886 5.84024C10.5933 5.64337 10.2181 5.75193 9.89083 5.91559ZM1.44908 6.65932V11.6354C1.44908 11.8803 1.61228 12.0434 1.85709 12.0434H10.0171C10.2588 12.0434 10.4209 11.8844 10.425 11.6448C10.4216 11.8852 10.2592 12.0449 10.0171 12.0449H1.85706C1.61226 12.0449 1.44906 11.8818 1.44906 11.6369V6.6593L1.44908 6.65932ZM6.8902 9.18907L10.3251 6.79263V11.6354C10.3251 11.7352 10.2923 11.8104 10.2422 11.8605C10.1921 11.9107 10.1168 11.9434 10.0171 11.9434H1.85709C1.7574 11.9434 1.6821 11.9106 1.63199 11.8605C1.58187 11.8104 1.54908 11.7352 1.54908 11.6354V6.84705L4.98316 9.18847L4.98403 9.18905C5.24892 9.36564 5.59587 9.45065 5.93711 9.45065C6.27834 9.45065 6.62531 9.36566 6.8902 9.18907Z" fill="#eb4949"/>
</svg>
