<svg xmlns="http://www.w3.org/2000/svg" width="16" height="16" viewBox="0 0 16 16"><line x1="8.5" y1="11.5" x2="14.5" y2="11.5" style="fill:none;stroke:gray;stroke-linecap:round;stroke-linejoin:round"/><polyline points="11.5 14.5 14.5 11.5 11.5 8.5" style="fill:none;stroke:gray;stroke-linecap:round;stroke-linejoin:round"/><path d="M3.5,3.5h3v3a1,1,0,0,1-1,1h-4a1,1,0,0,1-1-1v-5a1,1,0,0,1,1-1h4" style="fill:none;stroke:gray;stroke-linecap:round;stroke-linejoin:round"/><path d="M8.5.5h5a1,1,0,0,1,1,1v5" style="fill:none;stroke:gray;stroke-linecap:round;stroke-linejoin:round"/><path d="M6.5,14.5h-5a1,1,0,0,1-1-1v-4" style="fill:none;stroke:gray;stroke-linecap:round;stroke-linejoin:round"/></svg>