<svg xmlns="http://www.w3.org/2000/svg" viewBox="0 0 16 16"><line x1="1.5" y1="3.5" x2="1.5" y2="6.5" style="fill:none;stroke:gray;stroke-linecap:round;stroke-linejoin:round"/><line x1="4.5" y1="8.5" x2="1.5" y2="6.5" style="fill:none;stroke:gray;stroke-linecap:round;stroke-linejoin:round"/><line x1="7.5" y1="6.5" x2="4.5" y2="8.5" style="fill:none;stroke:gray;stroke-linecap:round;stroke-linejoin:round"/><line x1="4.5" y1="5.5" x2="1.5" y2="3.5" style="fill:none;stroke:gray;stroke-linecap:round;stroke-linejoin:round"/><line x1="7.5" y1="3.5" x2="4.5" y2="5.5" style="fill:none;stroke:gray;stroke-linecap:round;stroke-linejoin:round"/><line x1="4.5" y1="1.5" x2="7.5" y2="3.5" style="fill:none;stroke:gray;stroke-linecap:round;stroke-linejoin:round"/><line x1="1.5" y1="3.5" x2="4.5" y2="1.5" style="fill:none;stroke:gray;stroke-linecap:round;stroke-linejoin:round"/><line x1="7.5" y1="3.5" x2="7.5" y2="6.5" style="fill:none;stroke:gray;stroke-linecap:round;stroke-linejoin:round"/><line x1="4.5" y1="5.5" x2="4.5" y2="8.5" style="fill:none;stroke:gray;stroke-linecap:round;stroke-linejoin:round"/><line x1="7.5" y1="10.5" x2="13.5" y2="10.5" style="fill:none;stroke:gray;stroke-linecap:round;stroke-linejoin:round"/><line x1="10.5" y1="7.5" x2="13.5" y2="10.5" style="fill:none;stroke:gray;stroke-linecap:round;stroke-linejoin:round"/><line x1="10.5" y1="13.5" x2="13.5" y2="10.5" style="fill:none;stroke:gray;stroke-linecap:round;stroke-linejoin:round"/><path d="M9.5,1.5h3a1,1,0,0,1,1,1v4" style="fill:none;stroke:gray;stroke-linecap:round;stroke-linejoin:round"/><path d="M8.5,13.5h-6a1,1,0,0,1-1-1v-2" style="fill:none;stroke:gray;stroke-linecap:round;stroke-linejoin:round"/></svg>