<svg width="15" height="15" viewBox="0 0 15 15" fill="none" xmlns="http://www.w3.org/2000/svg">
    <g clip-path="url(#clip0_16585_40433)">
    <path d="M7.21631 13.8672C8.84076 13.8672 10.3987 13.2219 11.5473 12.0732C12.696 10.9246 13.3413 9.36664 13.3413 7.74219C13.3413 6.11774 12.696 4.55982 11.5473 3.41116C10.3987 2.2625 8.84076 1.61719 7.21631 1.61719C5.59186 1.61719 4.03394 2.2625 2.88528 3.41116C1.73662 4.55982 1.09131 6.11774 1.09131 7.74219C1.09131 9.36664 1.73662 10.9246 2.88528 12.0732C4.03394 13.2219 5.59186 13.8672 7.21631 13.8672ZM7.21631 0.742188C9.07282 0.742188 10.8533 1.47969 12.1661 2.79244C13.4788 4.10519 14.2163 5.88567 14.2163 7.74219C14.2163 9.5987 13.4788 11.3792 12.1661 12.6919C10.8533 14.0047 9.07282 14.7422 7.21631 14.7422C5.35979 14.7422 3.57932 14.0047 2.26656 12.6919C0.953807 11.3792 0.216309 9.5987 0.216309 7.74219C0.216309 5.88567 0.953807 4.10519 2.26656 2.79244C3.57932 1.47969 5.35979 0.742188 7.21631 0.742188ZM7.87256 7.74219C7.87256 7.91624 7.80342 8.08316 7.68035 8.20623C7.55728 8.3293 7.39036 8.39844 7.21631 8.39844C7.04226 8.39844 6.87534 8.3293 6.75227 8.20623C6.6292 8.08316 6.56006 7.91624 6.56006 7.74219C6.56006 7.56814 6.6292 7.40122 6.75227 7.27815C6.87534 7.15508 7.04226 7.08594 7.21631 7.08594C7.39036 7.08594 7.55728 7.15508 7.68035 7.27815C7.80342 7.40122 7.87256 7.56814 7.87256 7.74219ZM9.84131 7.08594C10.0154 7.08594 10.1823 7.15508 10.3053 7.27815C10.4284 7.40122 10.4976 7.56814 10.4976 7.74219C10.4976 7.91624 10.4284 8.08316 10.3053 8.20623C10.1823 8.3293 10.0154 8.39844 9.84131 8.39844C9.66726 8.39844 9.50034 8.3293 9.37727 8.20623C9.2542 8.08316 9.18506 7.91624 9.18506 7.74219C9.18506 7.56814 9.2542 7.40122 9.37727 7.27815C9.50034 7.15508 9.66726 7.08594 9.84131 7.08594ZM5.24756 7.74219C5.24756 7.91624 5.17842 8.08316 5.05535 8.20623C4.93228 8.3293 4.76536 8.39844 4.59131 8.39844C4.41726 8.39844 4.25034 8.3293 4.12727 8.20623C4.0042 8.08316 3.93506 7.91624 3.93506 7.74219C3.93506 7.56814 4.0042 7.40122 4.12727 7.27815C4.25034 7.15508 4.41726 7.08594 4.59131 7.08594C4.76536 7.08594 4.93228 7.15508 5.05535 7.27815C5.17842 7.40122 5.24756 7.56814 5.24756 7.74219Z" fill="#6B6B6B"/>
    </g>
    <defs>
    <clipPath id="clip0_16585_40433">
    <rect width="14" height="14" fill="white" transform="translate(0.216309 0.742188)"/>
    </clipPath>
    </defs>
</svg>
