<svg xmlns="http://www.w3.org/2000/svg" viewBox="0 0 16 16"><rect x="5" y="6" width="1" height="1" style="fill:#009688"/><rect x="7" y="6" width="1" height="1" style="fill:#009688"/><rect x="5" y="8" width="1" height="1" style="fill:#009688"/><rect x="7" y="8" width="1" height="1" style="fill:#009688"/><rect x="6" y="7" width="1" height="1" style="fill:#009688"/><rect x="5" y="10" width="1" height="1" style="fill:#009688"/><rect x="7" y="10" width="1" height="1" style="fill:#009688"/><rect x="6" y="9" width="1" height="1" style="fill:#009688"/><rect x="5" y="12" width="1" height="1" style="fill:#009688"/><rect x="7" y="12" width="1" height="1" style="fill:#009688"/><rect x="6" y="11" width="1" height="1" style="fill:#009688"/><rect x="5" y="14" width="1" height="1" style="fill:#009688"/><rect x="7" y="14" width="1" height="1" style="fill:#009688"/><rect x="9" y="6" width="1" height="1" style="fill:#009688"/><rect x="9" y="8" width="1" height="1" style="fill:#009688"/><rect x="8" y="7" width="1" height="1" style="fill:#009688"/><rect x="6" y="5" width="1" height="1" style="fill:#009688"/><rect x="8" y="5" width="1" height="1" style="fill:#009688"/><rect x="9" y="10" width="1" height="1" style="fill:#009688"/><rect x="8" y="9" width="1" height="1" style="fill:#009688"/><rect x="9" y="12" width="1" height="1" style="fill:#009688"/><rect x="8" y="11" width="1" height="1" style="fill:#009688"/><rect x="9" y="14" width="1" height="1" style="fill:#009688"/><rect x="5" y="4" width="1" height="1" style="fill:#009688"/><rect x="7" y="4" width="1" height="1" style="fill:#009688"/><rect x="9" y="4" width="1" height="1" style="fill:#009688"/><polygon points="0.5 0.5 0.5 4.5 0.5 12.5 3.5 12.5 3.5 3.5 11.5 3.5 11.5 10.5 11.5 11.5 11.5 12.5 14.5 12.5 14.5 0.5 0.5 0.5" style="fill:none;stroke:#949494;stroke-linecap:round;stroke-linejoin:round"/><line x1="0.5" y1="14.5" x2="14.5" y2="14.5" style="fill:none;stroke:#949494;stroke-linecap:square;stroke-linejoin:round"/></svg>