<svg width="14" height="14" viewBox="0 0 14 14" fill="none" xmlns="http://www.w3.org/2000/svg">
<path d="M7.25 7.45769C6.83462 7.45769 6.41923 7.35385 6.10769 7.14615L1.53846 4.13462C0.915385 3.71923 0.5 2.88846 0.5 2.05769V1.01923C0.5 0.707692 0.707692 0.5 1.01923 0.5C1.33077 0.5 1.53846 0.707692 1.53846 1.01923V2.05769C1.53846 2.47308 1.85 2.99231 2.16154 3.2L6.73077 6.21154C7.04231 6.41923 7.56154 6.41923 7.87308 6.21154L12.3385 3.2C12.65 2.99231 12.9615 2.36923 12.9615 2.05769V1.01923C12.9615 0.707692 13.1692 0.5 13.4808 0.5C13.7923 0.5 14 0.707692 14 1.01923V2.05769C14 2.78462 13.5846 3.71923 12.8577 4.13462L8.39231 7.14615C8.08077 7.35385 7.66538 7.45769 7.25 7.45769Z" fill="#808080"/>
<path d="M12.4423 14H2.05769C1.22692 14 0.5 13.2731 0.5 12.4423V6.21155C0.5 5.79616 0.707692 5.38078 1.01923 5.17309C1.33077 4.96539 1.74615 5.06924 2.16154 5.27693L6.73077 8.28847C7.04231 8.49616 7.56154 8.49616 7.87308 8.28847L12.3385 5.27693C12.7538 5.06924 13.1692 4.96539 13.4808 5.17309C13.7923 5.38078 14 5.69232 14 6.21155V12.4423C14 13.2731 13.2731 14 12.4423 14ZM1.53846 6.1077C1.53846 6.21155 1.53846 6.21155 1.53846 6.1077V12.4423C1.53846 12.7539 1.74615 12.9615 2.05769 12.9615H12.4423C12.7538 12.9615 12.9615 12.7539 12.9615 12.4423V6.21155C12.9615 6.21155 12.9615 6.21155 12.9615 6.1077C12.9615 6.1077 12.9615 6.1077 12.8577 6.1077L8.39231 9.22308C7.76923 9.63847 6.73077 9.63847 6.10769 9.22308L1.53846 6.1077C1.53846 6.1077 1.53846 6.21155 1.53846 6.1077Z" fill="#00AE42"/>
</svg>
