<svg xmlns="http://www.w3.org/2000/svg" viewBox="0 0 16 16"><circle cx="4" cy="12" r="1.5" style="fill:none;stroke:gray;stroke-linecap:round;stroke-linejoin:round"/><circle cx="11" cy="12" r="1.5" style="fill:none;stroke:gray;stroke-linecap:round;stroke-linejoin:round"/><line x1="4.5" y1="13.5" x2="10.5" y2="13.5" style="fill:none;stroke:gray;stroke-linecap:round;stroke-linejoin:round"/><path d="M4.5,6.5c-2-.06-3,2-3,5" style="fill:none;stroke:gray;stroke-linecap:round;stroke-linejoin:round"/><path d="M10.5,6.5c2-.06,3,2,3,5" style="fill:none;stroke:gray;stroke-linecap:round;stroke-linejoin:round"/><path d="M11,4.5a1.5,1.5,0,0,0,0-3,1.48,1.48,0,0,0-1.31.79" style="fill:none;stroke:gray;stroke-linecap:round;stroke-linejoin:round"/><path d="M5.31,2.29A1.48,1.48,0,0,0,4,1.5a1.5,1.5,0,0,0,0,3" style="fill:none;stroke:gray;stroke-linecap:round;stroke-linejoin:round"/><circle cx="7.5" cy="5" r="3.5" style="fill:none;stroke:gray;stroke-linecap:round;stroke-linejoin:round"/><line x1="6.5" y1="5.5" x2="8.5" y2="5.5" style="fill:none;stroke:gray;stroke-linecap:round;stroke-linejoin:round"/><line x1="7.5" y1="7.5" x2="7.5" y2="5.5" style="fill:none;stroke:gray;stroke-linecap:round;stroke-linejoin:round"/><rect x="6" y="3" width="1" height="1" style="fill:gray"/><rect x="8" y="3" width="1" height="1" style="fill:gray"/><line x1="3.5" y1="9.5" x2="3.5" y2="10.5" style="fill:none;stroke:gray;stroke-linecap:round;stroke-linejoin:round"/><line x1="11.5" y1="9.5" x2="11.5" y2="10.5" style="fill:none;stroke:gray;stroke-linecap:round;stroke-linejoin:round"/></svg>