<svg width="14" height="14" viewBox="0 0 14 14" fill="none" xmlns="http://www.w3.org/2000/svg">
<g clip-path="url(#clip0_21527_27811)">
<path d="M6.99988 12.2021C8.37959 12.2021 9.70279 11.654 10.6784 10.6784C11.654 9.70279 12.2021 8.37959 12.2021 6.99988C12.2021 5.62017 11.654 4.29697 10.6784 3.32137C9.70279 2.34576 8.37959 1.79768 6.99988 1.79768C5.62017 1.79768 4.29697 2.34576 3.32137 3.32137C2.34576 4.29697 1.79768 5.62017 1.79768 6.99988C1.79768 8.37959 2.34576 9.70279 3.32137 10.6784C4.29697 11.654 5.62017 12.2021 6.99988 12.2021ZM6.99988 0.597168C8.69798 0.597168 10.3265 1.27174 11.5273 2.47248C12.728 3.67322 13.4026 5.30177 13.4026 6.99988C13.4026 8.69798 12.728 10.3265 11.5273 11.5273C10.3265 12.728 8.69798 13.4026 6.99988 13.4026C5.30177 13.4026 3.67322 12.728 2.47248 11.5273C1.27174 10.3265 0.597168 8.69798 0.597168 6.99988C0.597168 5.30177 1.27174 3.67322 2.47248 2.47248C3.67322 1.27174 5.30177 0.597168 6.99988 0.597168ZM7.80022 6.99988C7.80022 7.21214 7.7159 7.41571 7.5658 7.5658C7.41571 7.7159 7.21214 7.80022 6.99988 7.80022C6.78761 7.80022 6.58405 7.7159 6.43395 7.5658C6.28386 7.41571 6.19954 7.21214 6.19954 6.99988C6.19954 6.78761 6.28386 6.58405 6.43395 6.43395C6.58405 6.28386 6.78761 6.19954 6.99988 6.19954C7.21214 6.19954 7.41571 6.28386 7.5658 6.43395C7.7159 6.58405 7.80022 6.78761 7.80022 6.99988ZM9.40089 6.19954C9.61316 6.19954 9.81673 6.28386 9.96682 6.43395C10.1169 6.58405 10.2012 6.78761 10.2012 6.99988C10.2012 7.21214 10.1169 7.41571 9.96682 7.5658C9.81673 7.7159 9.61316 7.80022 9.40089 7.80022C9.18863 7.80022 8.98506 7.7159 8.83497 7.5658C8.68488 7.41571 8.60056 7.21214 8.60056 6.99988C8.60056 6.78761 8.68488 6.58405 8.83497 6.43395C8.98506 6.28386 9.18863 6.19954 9.40089 6.19954ZM5.3992 6.99988C5.3992 7.21214 5.31488 7.41571 5.16479 7.5658C5.01469 7.7159 4.81112 7.80022 4.59886 7.80022C4.3866 7.80022 4.18303 7.7159 4.03294 7.5658C3.88284 7.41571 3.79852 7.21214 3.79852 6.99988C3.79852 6.78761 3.88284 6.58405 4.03294 6.43395C4.18303 6.28386 4.3866 6.19954 4.59886 6.19954C4.81112 6.19954 5.01469 6.28386 5.16479 6.43395C5.31488 6.58405 5.3992 6.78761 5.3992 6.99988Z" fill="#262E30"/>
</g>
<defs>
<clipPath id="clip0_21527_27811">
<rect width="14" height="14" fill="white"/>
</clipPath>
</defs>
</svg>
