<svg xmlns="http://www.w3.org/2000/svg" viewBox="0 0 16 16"><line x1="2.5" y1="4.5" x2="2.5" y2="6.5" style="fill:none;stroke:#009688;stroke-linecap:square;stroke-linejoin:round"/><line x1="4.5" y1="4.5" x2="4.5" y2="7.5" style="fill:none;stroke:#009688;stroke-linecap:square;stroke-linejoin:round"/><line x1="6.5" y1="4.5" x2="6.5" y2="6.5" style="fill:none;stroke:#009688;stroke-linecap:square;stroke-linejoin:round"/><line x1="2.5" y1="12.5" x2="2.5" y2="14.5" style="fill:none;stroke:#009688;stroke-linecap:square;stroke-linejoin:round"/><line x1="6.5" y1="12.5" x2="6.5" y2="14.5" style="fill:none;stroke:#009688;stroke-linecap:square;stroke-linejoin:round"/><line x1="4.5" y1="11.5" x2="4.5" y2="14.5" style="fill:none;stroke:#009688;stroke-linecap:square;stroke-linejoin:round"/><line x1="8.5" y1="7.5" x2="8.5" y2="11.5" style="fill:none;stroke:#009688;stroke-linecap:square;stroke-linejoin:round"/><line x1="0.5" y1="7.5" x2="0.5" y2="11.5" style="fill:none;stroke:#009688;stroke-linecap:square;stroke-linejoin:round"/><polygon points="0.5 3.5 11.5 3.5 11.5 12.5 11.5 13.5 11.5 14.5 14.5 14.5 14.5 0.5 0.5 0.5 0.5 3.5" style="fill:none;stroke:#949494;stroke-linecap:round;stroke-linejoin:round"/><rect y="4" width="1" height="1" style="fill:#009688"/><rect x="2" y="9" width="1" height="1" style="fill:#009688"/><rect x="6" y="9" width="1" height="1" style="fill:#009688"/><rect x="8" y="14" width="1" height="1" style="fill:#009688"/><rect y="14" width="1" height="1" style="fill:#009688"/><rect x="8" y="4" width="1" height="1" style="fill:#009688"/></svg>