<svg width="14" height="14" viewBox="0 0 14 14" fill="none" xmlns="http://www.w3.org/2000/svg">
<path d="M6.0007 7.46736C5.661 7.46736 5.3213 7.37849 5.06653 7.20073L1.32987 4.62339C0.820326 4.26789 0.48063 3.5569 0.48063 2.84591V1.95717C0.48063 1.69054 0.650478 1.5128 0.905251 1.5128C1.16002 1.5128 1.32987 1.69054 1.32987 1.95717V2.84591C1.32987 3.2014 1.58464 3.64577 1.83942 3.82352L5.57608 6.40086C5.83085 6.57862 6.25547 6.57862 6.51024 6.40086L10.162 3.82352C10.4167 3.64577 10.6715 3.11253 10.6715 2.84591V1.95717C10.6715 1.69054 10.8414 1.5128 11.0961 1.5128C11.3509 1.5128 11.5208 1.69054 11.5208 1.95717V2.84591C11.5208 3.46803 11.1811 4.26789 10.5866 4.62339L6.93486 7.20073C6.68009 7.37849 6.34039 7.46736 6.0007 7.46736Z" fill="#808080"/>
<path fill-rule="evenodd" clip-rule="evenodd" d="M6.93486 7.20073C6.68009 7.37849 6.34039 7.46736 6.0007 7.46736C5.661 7.46736 5.3213 7.37849 5.06653 7.20073L1.32987 4.62339C0.820326 4.26789 0.48063 3.5569 0.48063 2.84591V1.95717C0.48063 1.69054 0.650478 1.5128 0.905251 1.5128C1.16002 1.5128 1.32987 1.69054 1.32987 1.95717V2.84591C1.32987 3.2014 1.58464 3.64577 1.83942 3.82352L5.57608 6.40086C5.83085 6.57862 6.25547 6.57862 6.51024 6.40086L10.162 3.82352C10.4167 3.64577 10.6715 3.11253 10.6715 2.84591V1.95717C10.6715 1.69054 10.8414 1.5128 11.0961 1.5128C11.3509 1.5128 11.5208 1.69054 11.5208 1.95717V2.84591C11.5208 3.46803 11.1811 4.26789 10.5866 4.62339L6.93486 7.20073ZM10.6736 4.7568L7.02664 7.33076C6.73954 7.53107 6.36538 7.62652 6.0007 7.62652C5.63614 7.62652 5.26282 7.53163 4.97576 7.33147C4.97566 7.3314 4.97586 7.33154 4.97576 7.33147L1.2395 4.7544C0.680636 4.3645 0.321472 3.60024 0.321472 2.84591V1.95717C0.321472 1.7898 0.37529 1.63706 0.482331 1.52504C0.589994 1.41237 0.73946 1.35364 0.905251 1.35364C1.07104 1.35364 1.22051 1.41237 1.32817 1.52504C1.43521 1.63706 1.48903 1.7898 1.48903 1.95717V2.84591C1.48903 2.98923 1.54169 3.16303 1.62929 3.32602C1.71697 3.48914 1.82935 3.62231 1.93015 3.69276C1.93026 3.69284 1.93004 3.69268 1.93015 3.69276L5.66644 6.26985C5.7615 6.33618 5.89829 6.37502 6.04316 6.37502C6.18786 6.37502 6.3238 6.33675 6.41885 6.27056C6.41896 6.27049 6.41874 6.27064 6.41885 6.27056L10.0702 3.69349C10.1654 3.62709 10.2789 3.47681 10.3703 3.2962C10.4618 3.11518 10.5124 2.94198 10.5124 2.84591V1.95717C10.5124 1.7898 10.5662 1.63706 10.6732 1.52504C10.7809 1.41237 10.9303 1.35364 11.0961 1.35364C11.2619 1.35364 11.4114 1.41237 11.5191 1.52504C11.6261 1.63706 11.6799 1.7898 11.6799 1.95717V2.84591C11.6799 3.18368 11.5883 3.56317 11.4193 3.90515C11.2512 4.24515 11.001 4.55922 10.6736 4.7568Z" fill="#808080"/>
<path d="M8.54843 8.0363C8.46352 8.0363 8.3786 7.94743 8.29367 7.85855C8.20875 7.68081 8.20875 7.50306 8.3786 7.41419L10.9263 5.6367C11.0112 5.54783 11.1811 5.54783 11.266 5.6367C11.3509 5.72557 11.4358 5.81445 11.4358 5.90333V7.68081C11.4358 7.85855 11.266 8.0363 11.0962 8.0363C10.9263 8.0363 10.7565 7.85855 10.7565 7.68081V6.52544L8.71828 7.94743C8.63335 7.94743 8.63335 8.0363 8.54843 8.0363Z" fill="#eb4949"/>
<path fill-rule="evenodd" clip-rule="evenodd" d="M8.16103 7.95012L8.15007 7.92717C8.10023 7.82285 8.06653 7.70146 8.0829 7.58152C8.10013 7.45532 8.17108 7.34682 8.29505 7.27842L10.8242 5.51388C10.9016 5.44094 11.004 5.41089 11.0962 5.41089C11.1935 5.41089 11.3024 5.44446 11.3811 5.52675L11.3847 5.53056C11.4246 5.57226 11.4737 5.62362 11.5121 5.6773C11.5509 5.73134 11.595 5.8092 11.595 5.90333V7.68081C11.595 7.81894 11.5304 7.9455 11.4448 8.03516C11.3595 8.12437 11.2355 8.19546 11.0962 8.19546C10.9569 8.19546 10.8328 8.12437 10.7475 8.03516C10.6619 7.9455 10.5973 7.81894 10.5973 7.68081V6.83055L8.76831 8.10658H8.74389C8.73302 8.11796 8.71156 8.13957 8.68349 8.1572C8.64575 8.1809 8.60063 8.19546 8.54843 8.19546C8.45171 8.19546 8.37385 8.14603 8.32279 8.10595C8.27127 8.06551 8.22211 8.01405 8.18237 7.97245L8.16103 7.95012ZM10.7565 6.52544V7.68081C10.7565 7.85855 10.9263 8.0363 11.0962 8.0363C11.266 8.0363 11.4358 7.85855 11.4358 7.68081V5.90333C11.4358 5.81445 11.3509 5.72557 11.266 5.6367C11.1811 5.54783 11.0112 5.54783 10.9263 5.6367L8.3786 7.41419C8.20875 7.50306 8.20875 7.68081 8.29367 7.85855C8.3786 7.94743 8.46352 8.0363 8.54843 8.0363C8.59089 8.0363 8.61212 8.01408 8.63335 7.99186C8.65459 7.96964 8.67582 7.94743 8.71828 7.94743L10.7565 6.52544Z" fill="#eb4949"/>
<path d="M11.0962 13.3703H8.54845C8.3786 13.3703 8.20875 13.1925 8.20875 13.0148C8.20875 12.8371 8.3786 12.6593 8.54845 12.6593H10.7565V12.1261C10.7565 11.9483 10.9263 11.7706 11.0962 11.7706C11.266 11.7706 11.4359 11.9483 11.4359 12.1261V13.0148C11.4359 13.1925 11.266 13.3703 11.0962 13.3703Z" fill="#eb4949"/>
<path fill-rule="evenodd" clip-rule="evenodd" d="M11.0962 13.5294H8.54845C8.40915 13.5294 8.28508 13.4584 8.19984 13.3692C8.11415 13.2795 8.04959 13.1529 8.04959 13.0148C8.04959 12.8767 8.11415 12.7501 8.19984 12.6604C8.28508 12.5712 8.40915 12.5001 8.54845 12.5001H10.5973V12.1261C10.5973 11.9879 10.6619 11.8614 10.7476 11.7717C10.8328 11.6825 10.9569 11.6114 11.0962 11.6114C11.2355 11.6114 11.3596 11.6825 11.4448 11.7717C11.5305 11.8614 11.595 11.9879 11.595 12.1261V13.0148C11.595 13.1529 11.5305 13.2795 11.4448 13.3692C11.3596 13.4584 11.2355 13.5294 11.0962 13.5294ZM10.7565 12.1261C10.7565 11.9483 10.9263 11.7706 11.0962 11.7706C11.266 11.7706 11.4359 11.9483 11.4359 12.1261V13.0148C11.4359 13.1925 11.266 13.3703 11.0962 13.3703H8.54845C8.3786 13.3703 8.20875 13.1925 8.20875 13.0148C8.20875 12.8371 8.3786 12.6593 8.54845 12.6593H10.7565V12.1261Z" fill="#eb4949"/>
<path d="M6.84993 13.3706H5.15145C4.9816 13.3706 4.81175 13.1929 4.81175 13.0151C4.81175 12.8374 4.9816 12.6596 5.15145 12.6596H6.84993C7.01977 12.6596 7.18962 12.8374 7.18962 13.0151C7.18962 13.1929 7.01977 13.3706 6.84993 13.3706Z" fill="#eb4949"/>
<path fill-rule="evenodd" clip-rule="evenodd" d="M6.84993 13.5298H5.15144C5.01215 13.5298 4.88808 13.4587 4.80283 13.3695C4.71715 13.2798 4.65259 13.1532 4.65259 13.0151C4.65259 12.877 4.71715 12.7504 4.80283 12.6608C4.88808 12.5715 5.01215 12.5005 5.15144 12.5005H6.84993C6.98923 12.5005 7.11329 12.5715 7.19854 12.6608C7.28422 12.7504 7.34878 12.877 7.34878 13.0151C7.34878 13.1532 7.28422 13.2798 7.19854 13.3695C7.11329 13.4587 6.98923 13.5298 6.84993 13.5298ZM5.15145 13.3706H6.84993C7.01977 13.3706 7.18962 13.1929 7.18962 13.0151C7.18962 12.8374 7.01977 12.6596 6.84993 12.6596H5.15145C4.9816 12.6596 4.81175 12.8374 4.81175 13.0151C4.81175 13.1929 4.9816 13.3706 5.15145 13.3706Z" fill="#eb4949"/>
<path d="M11.0961 10.7032C10.9263 10.7032 10.7564 10.5254 10.7564 10.3477V9.45893C10.7564 9.28118 10.9263 9.10344 11.0961 9.10344C11.2659 9.10344 11.4358 9.28118 11.4358 9.45893V10.3477C11.4358 10.5254 11.2659 10.7032 11.0961 10.7032Z" fill="#eb4949"/>
<path fill-rule="evenodd" clip-rule="evenodd" d="M10.7475 10.7021C10.6618 10.6124 10.5972 10.4858 10.5972 10.3477V9.45893C10.5972 9.3208 10.6618 9.19424 10.7475 9.10457C10.8327 9.01536 10.9568 8.94428 11.0961 8.94428C11.2354 8.94428 11.3595 9.01536 11.4447 9.10457C11.5304 9.19424 11.595 9.3208 11.595 9.45893V10.3477C11.595 10.4858 11.5304 10.6124 11.4447 10.7021C11.3595 10.7913 11.2354 10.8624 11.0961 10.8624C10.9568 10.8624 10.8327 10.7913 10.7475 10.7021ZM10.7564 10.3477C10.7564 10.5254 10.9263 10.7032 11.0961 10.7032C11.2659 10.7032 11.4358 10.5254 11.4358 10.3477V9.45893C11.4358 9.28118 11.2659 9.10344 11.0961 9.10344C10.9263 9.10344 10.7564 9.28118 10.7564 9.45893V10.3477Z" fill="#eb4949"/>
<path d="M6.00072 9.81679C5.91579 9.81679 5.83087 9.7279 5.74595 9.63903C5.66102 9.46129 5.74595 9.28354 5.83087 9.19467L7.18965 8.30593C7.3595 8.21705 7.52935 8.21705 7.61427 8.3948C7.6992 8.57255 7.6992 8.75029 7.52935 8.83917L6.17057 9.7279C6.08564 9.81679 6.08564 9.81679 6.00072 9.81679Z" fill="#eb4949"/>
<path fill-rule="evenodd" clip-rule="evenodd" d="M5.6133 9.7306L5.60234 9.70765C5.47785 9.4471 5.6059 9.19972 5.7158 9.08471L5.72844 9.07148L7.10901 8.1685L7.11586 8.16491C7.21649 8.11225 7.33673 8.07494 7.45735 8.09297C7.58898 8.11265 7.69492 8.1944 7.75788 8.32619C7.80772 8.4305 7.84142 8.5519 7.82505 8.67184C7.80771 8.79881 7.736 8.90787 7.61061 8.9762L6.27298 9.8511C6.2575 9.86726 6.24269 9.88251 6.22927 9.89514C6.21199 9.91142 6.18901 9.93122 6.15944 9.94669C6.10173 9.97689 6.04189 9.97631 6.00911 9.976C6.00607 9.97597 6.00327 9.97594 6.00072 9.97594C5.90399 9.97594 5.82613 9.92652 5.77506 9.88643C5.72354 9.84599 5.67439 9.79454 5.63465 9.75294C5.63338 9.75161 5.63213 9.7503 5.63088 9.74899L5.6133 9.7306ZM6.17057 9.7279L7.52935 8.83917C7.6992 8.75029 7.6992 8.57255 7.61427 8.3948C7.52935 8.21705 7.3595 8.21705 7.18965 8.30593L5.83087 9.19467C5.74595 9.28354 5.66102 9.46129 5.74595 9.63903C5.83087 9.7279 5.91579 9.81679 6.00072 9.81679C6.03643 9.81679 6.05713 9.81679 6.07543 9.81018C6.10066 9.80107 6.12135 9.77941 6.17057 9.7279Z" fill="#eb4949"/>
<path d="M3.45295 8.0363C3.36803 8.0363 3.36803 8.0363 3.2831 7.94743L1.24493 6.52544V7.68081C1.24493 7.85855 1.07508 8.0363 0.905226 8.0363C0.735378 8.0363 0.56553 7.85855 0.56553 7.68081V5.90333C0.56553 5.81445 0.650454 5.6367 0.735378 5.6367C0.820302 5.54783 0.990154 5.54783 1.07508 5.6367L3.6228 7.41419C3.79265 7.50306 3.79265 7.68081 3.70772 7.85855C3.6228 7.94743 3.53788 8.0363 3.45295 8.0363Z" fill="#eb4949"/>
<path fill-rule="evenodd" clip-rule="evenodd" d="M3.84037 7.95012L3.81903 7.97245C3.77929 8.01405 3.73014 8.06551 3.6786 8.10595C3.62754 8.14604 3.54968 8.19546 3.45295 8.19546C3.4504 8.19546 3.4476 8.19548 3.44456 8.19551C3.41178 8.19583 3.35194 8.1964 3.29424 8.16621C3.26466 8.15073 3.24169 8.13094 3.2244 8.11467C3.2105 8.10157 3.19511 8.08568 3.17902 8.06888L1.40408 6.83055V7.68081C1.40408 7.81894 1.33952 7.9455 1.25384 8.03516C1.16859 8.12437 1.04453 8.19546 0.905226 8.19546C0.765927 8.19546 0.64186 8.12437 0.556616 8.03516C0.470932 7.9455 0.406372 7.81894 0.406372 7.68081V5.90333C0.406372 5.82151 0.440593 5.72719 0.480533 5.65752C0.501687 5.62062 0.529982 5.58072 0.566088 5.54797C0.588262 5.52786 0.620409 5.50422 0.661304 5.49009C0.734391 5.43434 0.82383 5.41089 0.905228 5.41089C0.997376 5.41089 1.09983 5.44094 1.1772 5.51388L3.70635 7.27842C3.83032 7.34682 3.90127 7.45532 3.9185 7.58152C3.93487 7.70146 3.90117 7.82285 3.85133 7.92717L3.84037 7.95012ZM3.6228 7.41419L1.07508 5.6367C0.990154 5.54783 0.820302 5.54783 0.735378 5.6367C0.650454 5.6367 0.56553 5.81445 0.56553 5.90333V7.68081C0.56553 7.85855 0.735378 8.0363 0.905226 8.0363C1.07508 8.0363 1.24493 7.85855 1.24493 7.68081V6.52544L3.2831 7.94743C3.33231 7.99892 3.35301 8.02058 3.37823 8.02969C3.39654 8.0363 3.41724 8.0363 3.45295 8.0363C3.53788 8.0363 3.6228 7.94743 3.70772 7.85855C3.79265 7.68081 3.79265 7.50306 3.6228 7.41419Z" fill="#eb4949"/>
<path d="M3.45295 13.3703H0.905226C0.735378 13.3703 0.56553 13.1925 0.56553 13.0148V12.1261C0.56553 11.9483 0.735378 11.7706 0.905226 11.7706C1.07508 11.7706 1.24493 11.9483 1.24493 12.1261V12.6593H3.45295C3.6228 12.6593 3.79265 12.8371 3.79265 13.0148C3.79265 13.1925 3.6228 13.3703 3.45295 13.3703Z" fill="#eb4949"/>
<path fill-rule="evenodd" clip-rule="evenodd" d="M3.45295 13.5294H0.905226C0.765927 13.5294 0.64186 13.4584 0.556616 13.3692C0.470932 13.2795 0.406372 13.1529 0.406372 13.0148V12.1261C0.406372 11.9879 0.470932 11.8614 0.556616 11.7717C0.64186 11.6825 0.765927 11.6114 0.905226 11.6114C1.04453 11.6114 1.16859 11.6825 1.25384 11.7717C1.33952 11.8614 1.40408 11.9879 1.40408 12.1261V12.5001H3.45295C3.59225 12.5001 3.71632 12.5712 3.80156 12.6604C3.88725 12.7501 3.95181 12.8767 3.95181 13.0148C3.95181 13.1529 3.88725 13.2795 3.80156 13.3692C3.71632 13.4584 3.59225 13.5294 3.45295 13.5294ZM3.45295 12.6593C3.6228 12.6593 3.79265 12.8371 3.79265 13.0148C3.79265 13.1925 3.6228 13.3703 3.45295 13.3703H0.905226C0.735378 13.3703 0.56553 13.1925 0.56553 13.0148V12.1261C0.56553 11.9483 0.735378 11.7706 0.905226 11.7706C1.07508 11.7706 1.24493 11.9483 1.24493 12.1261V12.6593H3.45295Z" fill="#eb4949"/>
<path d="M0.905226 10.7032C0.735378 10.7032 0.56553 10.5254 0.56553 10.3477V9.45893C0.56553 9.28118 0.735378 9.10344 0.905226 9.10344C1.07508 9.10344 1.24493 9.28118 1.24493 9.45893V10.3477C1.24493 10.5254 1.07508 10.7032 0.905226 10.7032Z" fill="#eb4949"/>
<path fill-rule="evenodd" clip-rule="evenodd" d="M0.556616 10.7021C0.470932 10.6124 0.406372 10.4858 0.406372 10.3477V9.45893C0.406372 9.3208 0.470932 9.19424 0.556616 9.10457C0.64186 9.01536 0.765927 8.94428 0.905226 8.94428C1.04453 8.94428 1.16859 9.01536 1.25384 9.10457C1.33952 9.19424 1.40408 9.3208 1.40408 9.45893V10.3477C1.40408 10.4858 1.33952 10.6124 1.25384 10.7021C1.16859 10.7913 1.04453 10.8624 0.905226 10.8624C0.765927 10.8624 0.64186 10.7913 0.556616 10.7021ZM0.56553 10.3477C0.56553 10.5254 0.735378 10.7032 0.905226 10.7032C1.07508 10.7032 1.24493 10.5254 1.24493 10.3477V9.45893C1.24493 9.28118 1.07508 9.10344 0.905226 9.10344C0.735378 9.10344 0.56553 9.28118 0.56553 9.45893V10.3477Z" fill="#eb4949"/>
<path d="M6.00072 9.81679C5.91579 9.81679 5.91576 9.81679 5.83084 9.7279L4.47205 8.83917C4.30221 8.75029 4.30221 8.57255 4.38713 8.3948C4.47205 8.21705 4.6419 8.21705 4.81175 8.30593L6.17054 9.19467C6.34038 9.28354 6.34038 9.46129 6.25546 9.63903C6.17054 9.7279 6.08564 9.81679 6.00072 9.81679Z" fill="#eb4949"/>
<path fill-rule="evenodd" clip-rule="evenodd" d="M4.8924 8.1685L6.25179 9.05764C6.37718 9.12596 6.4489 9.23502 6.46623 9.362C6.48261 9.48194 6.44891 9.60333 6.39907 9.70765L6.3881 9.7306L6.36675 9.75294C6.32701 9.79454 6.27787 9.84599 6.22634 9.88643C6.17528 9.92652 6.09745 9.97594 6.00072 9.97594C5.99817 9.97594 5.99533 9.97597 5.9923 9.976C5.95952 9.97631 5.89967 9.97689 5.84197 9.94669C5.81239 9.93122 5.78942 9.91142 5.77214 9.89514C5.75872 9.88251 5.74391 9.86726 5.72843 9.8511L4.3908 8.9762C4.26541 8.90787 4.19369 8.79881 4.17636 8.67184C4.15998 8.5519 4.19368 8.4305 4.24352 8.32619C4.30649 8.1944 4.41243 8.11265 4.54406 8.09297C4.66468 8.07494 4.78491 8.11225 4.88555 8.16491L4.8924 8.1685ZM4.47205 8.83917L5.83084 9.7279C5.88005 9.77941 5.90074 9.80107 5.92597 9.81018C5.94428 9.81679 5.965 9.81679 6.00072 9.81679C6.08564 9.81679 6.17054 9.7279 6.25546 9.63903C6.34038 9.46129 6.34038 9.28354 6.17054 9.19467L4.81175 8.30593C4.6419 8.21705 4.47205 8.21705 4.38713 8.3948C4.30221 8.57255 4.30221 8.75029 4.47205 8.83917Z" fill="#eb4949"/>
</svg>
