<svg xmlns="http://www.w3.org/2000/svg" width="16" height="16" viewBox="0 0 16 16"><circle cx="3.5" cy="12.5" r="2" style="fill:none;stroke:gray;stroke-linecap:round;stroke-linejoin:round"/><circle cx="11.5" cy="12.5" r="2" style="fill:none;stroke:gray;stroke-linecap:round;stroke-linejoin:round"/><line x1="3" y1="14.5" x2="10" y2="14.5" style="fill:none;stroke:gray;stroke-linecap:round;stroke-linejoin:round"/><path d="M3.337,6.5C1.5,7.337.5,8.5.5,11.5" style="fill:none;stroke:gray;stroke-linecap:round;stroke-linejoin:round"/><path d="M11.663,6.5c1.837.837,2.837,2,2.837,5" style="fill:none;stroke:gray;stroke-linecap:round;stroke-linejoin:round"/><path d="M12,3.5a1.5,1.5,0,1,0-1.3-2.226" style="fill:none;stroke:gray;stroke-linecap:round;stroke-linejoin:round"/><path d="M4.305,1.274A1.5,1.5,0,1,0,3,3.5" style="fill:none;stroke:gray;stroke-linecap:round;stroke-linejoin:round"/><circle cx="7.5" cy="4.5" r="4" style="fill:none;stroke:gray;stroke-linecap:round;stroke-linejoin:round"/><line x1="6.5" y1="5.5" x2="8.5" y2="5.5" style="fill:none;stroke:gray;stroke-linecap:round;stroke-linejoin:round"/><line x1="7.5" y1="7.5" x2="7.5" y2="5.5" style="fill:none;stroke:gray;stroke-linecap:round;stroke-linejoin:round"/><line x1="3.5" y1="8.5" x2="2.5" y2="10.5" style="fill:none;stroke:gray;stroke-linecap:round;stroke-linejoin:round"/><line x1="11.5" y1="8.5" x2="12.5" y2="10.5" style="fill:none;stroke:gray;stroke-linecap:round;stroke-linejoin:round"/><circle cx="6.5" cy="3.5" r="0.5" style="fill:gray"/><circle cx="8.5" cy="3.5" r="0.5" style="fill:gray"/></svg>