<svg xmlns="http://www.w3.org/2000/svg" viewBox="0 0 16 16"><line x1="2.5" y1="4.5" x2="2.5" y2="14.5" style="fill:none;stroke:#009688;stroke-linecap:round;stroke-linejoin:round"/><rect x="0.5" y="4.5" width="4" height="10" style="fill:none;stroke:#009688;stroke-linecap:round;stroke-linejoin:round"/><path d="M14.5,6.5v-5a1,1,0,0,0-1-1H1.5a1,1,0,0,0-1,1v3h5a1,1,0,0,1,1,1v9" style="fill:none;stroke:gray;stroke-linecap:round;stroke-linejoin:round"/><path d="M15,11.5A3.5,3.5,0,1,1,11.5,8,3.5,3.5,0,0,1,15,11.5ZM14,11H12V9H11v2H9v1h2v2h1V12h2Z" style="fill:#009688"/></svg>