<svg xmlns="http://www.w3.org/2000/svg" width="16" height="16" viewBox="0 0 16 16"><path d="M2.5,4.5v2m2-2v3m2-3v2m-4,6v2m4-2v2m-2-3v3m4-7v4m-8-4v4" style="fill:none;stroke:#009688;stroke-linecap:square;stroke-linejoin:round"/><polygon points="0.5 3.5 11.5 3.5 11.5 12.5 11.5 13.5 11.5 14.5 14.5 14.5 14.5 0.5 0.5 0.5 0.5 3.5" style="fill:none;stroke:#949494;stroke-linecap:round;stroke-linejoin:round"/><path d="M1,5H0V4H1ZM3,9H2v1H3ZM7,9H6v1H7Zm2,5H8v1H9ZM1,14H0v1H1ZM9,4H8V5H9Z" style="fill:#009688"/></svg>