<svg xmlns="http://www.w3.org/2000/svg" width="16" height="16" viewBox="0 0 16 16"><path d="M15,5V15H5V5H15m0-1H5A1,1,0,0,0,4,5V15a1,1,0,0,0,1,1H15a1,1,0,0,0,1-1V5a1,1,0,0,0-1-1Z" style="fill:#949494"/><g style="opacity:0.4"><path d="M5,4A1,1,0,0,0,4,5v7H1a1,1,0,0,1-1-1V1A1,1,0,0,1,1,0H11a1,1,0,0,1,1,1V4Z" style="fill:#949494"/></g><line x1="7.5" y1="7.5" x2="12.5" y2="12.5" style="fill:none;stroke:#949494;stroke-miterlimit:10"/><line x1="12.5" y1="7.5" x2="7.5" y2="12.5" style="fill:none;stroke:#949494;stroke-miterlimit:10"/></svg>