<svg xmlns="http://www.w3.org/2000/svg" width="16" height="16" viewBox="0 0 16 16"><path d="M12,1a3,3,0,0,1,3,3v8a3,3,0,0,1-3,3H4a3,3,0,0,1-3-3V4A3,3,0,0,1,4,1h8m0-1H4A4,4,0,0,0,0,4v8a4,4,0,0,0,4,4h8a4,4,0,0,0,4-4V4a4,4,0,0,0-4-4Z" style="fill:#949494"/><line x1="5.5" y1="11.5" x2="5.5" y2="5.5" style="fill:none;stroke:#949494;stroke-linecap:square;stroke-miterlimit:10"/><line x1="5.5" y1="4.5" x2="8.5" y2="4.5" style="fill:none;stroke:#949494;stroke-linecap:square;stroke-miterlimit:10"/><line x1="5.5" y1="7.5" x2="9.5" y2="7.5" style="fill:none;stroke:#949494;stroke-linecap:square;stroke-miterlimit:10"/><line x1="6.5" y1="11.5" x2="9.5" y2="11.5" style="fill:none;stroke:#949494;stroke-linecap:square;stroke-miterlimit:10"/><line x1="9.5" y1="5.5" x2="9.5" y2="6.5" style="fill:none;stroke:#949494;stroke-linecap:square;stroke-miterlimit:10"/><line x1="10.5" y1="8.5" x2="10.5" y2="10.5" style="fill:none;stroke:#949494;stroke-linecap:square;stroke-miterlimit:10"/></svg>