<svg xmlns="http://www.w3.org/2000/svg" viewBox="0 0 40 40"><path d="M35,10.5v12a.5.5,0,0,1-1,0V12.82C31.81,15.28,26.23,17,19.5,17a32.46,32.46,0,0,1-9-1.18.49.49,0,0,1-.34-.62.5.5,0,0,1,.62-.34A31.3,31.3,0,0,0,19.5,16C27.36,16,34,13.48,34,10.5S27.36,5,19.5,5c-1.13,0-2.26,0-3.34.15a.52.52,0,0,1-.55-.45.5.5,0,0,1,.46-.54C17.18,4.05,18.34,4,19.5,4,28.19,4,35,6.86,35,10.5ZM26.4,33.32a34.35,34.35,0,0,1-6.9.68C11.64,34,5,31.48,5,28.5a.5.5,0,0,0-1,0C4,32.14,10.81,35,19.5,35a34.89,34.89,0,0,0,7.1-.7.5.5,0,1,0-.2-1Z" style="fill:#b6b6b6"/><path d="M35,27.31a.36.36,0,0,0-.11-.16L33,25.29V24.5a.5.5,0,0,0-.5-.5h-1a.5.5,0,0,0-.5.5v.79l-1.85,1.86a.36.36,0,0,0-.11.16.41.41,0,0,0,0,.19v6A1.5,1.5,0,0,0,30.5,35h3A1.5,1.5,0,0,0,35,33.5v-6A.41.41,0,0,0,35,27.31ZM31.71,26h.58l1,1H30.71Zm1.79,8h-3a.5.5,0,0,1-.5-.5V28h4v5.5A.5.5,0,0,1,33.5,34ZM29,25H28V24h1Zm-3-2h1v1H26Zm0,2h1v1H26Zm-2-1h1v1H24Zm0,2h1v1H24Zm0-4h1v1H24Zm-2,1h1v1H22Zm0,2h1v1H22Zm0,2h1v1H22Zm0-6h1v1H22ZM17.17,4.74l-.79-.51-.06,0-.09,0h-.16C9,4.81,4,7.42,4,10.5v18a.5.5,0,0,0,1,0v-1c0-.23.32-.62.63-1A5.21,5.21,0,0,0,7,24.05c.31.35.71.87,1.06,1.32,1.44,1.84,2.91,3.73,4.15,3.73a1.19,1.19,0,0,0,.6-.17,4.12,4.12,0,0,0,1.93-2.72c.87-3.94-2.76-9.81-3.5-11,.64-2.18,3.5-2.44,6.53-2.72a26.37,26.37,0,0,0,3.9-.54c.41-.11,1.66-.42,1.83-1.42C23.7,9.07,21.24,7.37,17.17,4.74ZM13.71,26a3,3,0,0,1-1.47,2.08c-.59.35-2.66-2.31-3.44-3.31-1.24-1.6-1.75-2.25-2.35-2.05-.21.07-.45.27-.45.79a3.47,3.47,0,0,1-1,2.19V12.85a11.68,11.68,0,0,0,5.32,2.91C10.93,16.69,14.51,22.43,13.71,26Zm7.67-15a25.09,25.09,0,0,1-3.75.53c-3.14.28-6.37.58-7.32,3.17C7,13.65,5,12.09,5,10.5,5,8.06,9.71,5.78,16,5.17l.64.41c2.38,1.54,6,3.87,5.83,4.83C22.42,10.63,22,10.85,21.38,11Z" style="fill:#009688"/></svg>