<svg xmlns="http://www.w3.org/2000/svg" width="40" height="40" viewBox="0 0 40 40"><rect x="31" y="23" width="2" height="2" rx="0.5" style="fill:#009688"/><path d="M29.5,27a.5.5,0,0,1-.354-.854l2-2a.5.5,0,0,1,.708.708l-2,2A.5.5,0,0,1,29.5,27Z" style="fill:#009688"/><path d="M34.5,27a.5.5,0,0,1-.354-.146l-2-2a.5.5,0,0,1,.708-.708l2,2A.5.5,0,0,1,34.5,27Z" style="fill:#009688"/><path d="M33.5,35h-3A1.5,1.5,0,0,1,29,33.5v-7a.5.5,0,0,1,1,0v7a.5.5,0,0,0,.5.5h3a.5.5,0,0,0,.5-.5v-7a.5.5,0,0,1,1,0v7A1.5,1.5,0,0,1,33.5,35Z" style="fill:#009688"/><path d="M34.5,27h-5a.5.5,0,0,1,0-1h5a.5.5,0,0,1,0,1Z" style="fill:#009688"/><rect x="28" y="23" width="1" height="1" style="fill:#009688"/><rect x="26" y="22" width="1" height="1" style="fill:#009688"/><rect x="26" y="24" width="1" height="1" style="fill:#009688"/><rect x="24" y="23" width="1" height="1" style="fill:#009688"/><rect x="24" y="25" width="1" height="1" style="fill:#009688"/><rect x="24" y="21" width="1" height="1" style="fill:#009688"/><rect x="22" y="22" width="1" height="1" style="fill:#009688"/><rect x="22" y="24" width="1" height="1" style="fill:#009688"/><rect x="22" y="26" width="1" height="1" style="fill:#009688"/><rect x="22" y="20" width="1" height="1" style="fill:#009688"/><path d="M34.5,22a.5.5,0,0,1-.5-.5v-9a.5.5,0,0,1,1,0v9A.5.5,0,0,1,34.5,22Z" style="fill:#009688"/><path d="M34.5,13a.5.5,0,0,1-.5-.5v-7a.5.5,0,0,0-.5-.5H5.5a.5.5,0,0,0-.5.5v6a.5.5,0,0,1-1,0v-6A1.5,1.5,0,0,1,5.5,4h28A1.5,1.5,0,0,1,35,5.5v7A.5.5,0,0,1,34.5,13Z" style="fill:#b6b6b6"/><path d="M26.5,35H5.5A1.5,1.5,0,0,1,4,33.5v-22a.5.5,0,0,1,1,0v22a.5.5,0,0,0,.5.5h21a.5.5,0,0,1,0,1Z" style="fill:#009688"/><path d="M12.5,31A1.5,1.5,0,1,1,14,29.5,1.5,1.5,0,0,1,12.5,31Zm0-2a.5.5,0,1,0,.5.5A.5.5,0,0,0,12.5,29Z" style="fill:#009688"/><path d="M10.5,26A2.5,2.5,0,1,1,13,23.5,2.5,2.5,0,0,1,10.5,26Zm0-4A1.5,1.5,0,1,0,12,23.5,1.5,1.5,0,0,0,10.5,22Z" style="fill:#009688"/><path d="M28.919,15c-2.773,0-5.51-1.29-7.667-2.521C17.885,10.56,11.269,8,4.783,12.458a.5.5,0,1,1-.566-.824c7.194-4.944,14.656-1.662,17.531-.022,3.739,2.133,8.524,4.07,12.394.086a.5.5,0,1,1,.716.7A8,8,0,0,1,28.919,15Z" style="fill:#009688"/></svg>