<svg xmlns="http://www.w3.org/2000/svg" viewBox="0 0 40 40"><path d="M34.92,10.25l0-.05a.45.45,0,0,0-.2-.16h0L22.94,5.34,19.69,4a.5.5,0,0,0-.38,0l-15,6s0,0,0,0l0,0,0,0-.1.12,0,0a.54.54,0,0,0,0,.22H4v18a.49.49,0,0,0,.31.46l15,6a.43.43,0,0,0,.19,0,.46.46,0,0,0,.19,0l5.71-2.28a.5.5,0,1,0-.37-.93l-5,2V16.84l14-5.6V21.5a.5.5,0,0,0,1,0v-11A.44.44,0,0,0,34.92,10.25ZM19,33.76,5,28.16V11.24l6.05,2.42,8,3.18ZM19.5,16l-8.08-3.23L5.85,10.5,19.5,5l3.07,1.23L33.15,10.5Z" style="fill:#2b3436"/><path d="M35,27.31a.36.36,0,0,0-.11-.16L33,25.29V24.5a.5.5,0,0,0-.5-.5h-1a.5.5,0,0,0-.5.5v.79l-1.85,1.86a.36.36,0,0,0-.11.16.41.41,0,0,0,0,.19v6A1.5,1.5,0,0,0,30.5,35h3A1.5,1.5,0,0,0,35,33.5v-6A.41.41,0,0,0,35,27.31ZM31.71,26h.58l1,1H30.71Zm1.79,8h-3a.5.5,0,0,1-.5-.5V28h4v5.5A.5.5,0,0,1,33.5,34ZM29,25H28V24h1Zm-3-2h1v1H26Zm0,2h1v1H26Zm-2-1h1v1H24Zm0,2h1v1H24Zm0-4h1v1H24Zm-2,1h1v1H22Zm0,2h1v1H22Zm0,2h1v1H22Zm0-6h1v1H22Zm-9.8-4.46a2.55,2.55,0,0,0-2.46.16C8.63,17.43,8,19,8,21c0,3.27,1.67,6.55,3.8,7.46a2.9,2.9,0,0,0,1.12.24,2.38,2.38,0,0,0,1.34-.41C15.37,27.57,16,26,16,24,16,20.73,14.33,17.45,12.2,16.54Zm1.59,3-4,5.19a9,9,0,0,1-.55-1.64l3.66-4.76A6,6,0,0,1,13.79,19.5Zm-3.5-2a1.39,1.39,0,0,1,.79-.24,1.78,1.78,0,0,1,.72.16,2.23,2.23,0,0,1,.33.2L9,21.67c0-.22,0-.45,0-.67C9,19.36,9.48,18.07,10.29,17.54Zm0,8.13,4-5.17a9.73,9.73,0,0,1,.52,1.69l-3.58,4.65A5.51,5.51,0,0,1,10.31,25.67Zm3.4,1.79a1.52,1.52,0,0,1-1.51.08l-.17-.1,3-3.84c0,.14,0,.27,0,.4C15,25.64,14.52,26.93,13.71,27.46Z" style="fill:#009688"/></svg>