<svg width="40" height="40" viewBox="0 0 40 40" fill="none" xmlns="http://www.w3.org/2000/svg">
<path fill-rule="evenodd" clip-rule="evenodd" d="M34.5547 22.3375L34.1266 22.5957L33.6986 22.3371C33.7892 22.1872 33.9517 22.0956 34.1268 22.0957C34.302 22.0958 34.4643 22.1875 34.5547 22.3375ZM39.3649 32.7116C39.6048 35.3276 39.0027 36.933 37.8765 37.8539C36.785 38.7466 35.3259 38.8829 34.1266 38.8829C32.9273 38.8829 31.4247 38.7398 30.3108 37.8476C29.1536 36.9208 28.5514 35.307 28.8903 32.6931C28.9951 31.8837 29.3628 30.8268 29.8276 29.7301C30.2973 28.6218 30.8847 27.4305 31.4567 26.3384C32.0292 25.2453 32.5892 24.2457 33.006 23.5197C33.2144 23.1566 33.3872 22.8615 33.5081 22.657C33.5685 22.5547 33.6159 22.4751 33.6484 22.4208L33.6855 22.3588L33.6986 22.3371C33.6987 22.337 33.6986 22.3371 34.1266 22.5957C34.5547 22.3375 34.5547 22.3374 34.5547 22.3375L34.5682 22.3599L34.6064 22.4238C34.6398 22.4797 34.6886 22.5618 34.7507 22.667C34.8749 22.8776 35.0524 23.1809 35.2661 23.5533C35.6932 24.2978 36.2657 25.3196 36.8466 26.4276C37.4268 27.5343 38.0186 28.7334 38.4822 29.8311C38.9391 30.9129 39.2951 31.9496 39.3649 32.7116ZM34.1264 23.5796C34.05 23.7108 33.9651 23.8575 33.8732 24.0176C33.4608 24.736 32.9074 25.7238 32.3425 26.8024C31.7771 27.8819 31.2033 29.0467 30.7484 30.1203C30.2885 31.2053 29.9682 32.1561 29.882 32.8215C29.5685 35.2402 30.152 36.4393 30.9359 37.0671C31.7631 37.7296 32.9568 37.8829 34.1266 37.8829C35.2986 37.8829 36.4417 37.7355 37.2435 37.0798C38.0107 36.4524 38.593 35.245 38.3691 32.803C38.3148 32.2093 38.0162 31.2979 37.561 30.2202C37.1126 29.1584 36.5348 27.9866 35.9609 26.8919C35.3877 25.7984 34.8216 24.7882 34.3987 24.051C34.2994 23.8779 34.208 23.72 34.1264 23.5796Z" fill="#eb4949"/>
<path fill-rule="evenodd" clip-rule="evenodd" d="M3.88645 18.4452C3.98051 18.3491 4.1093 18.2949 4.24376 18.2949H33.6462C33.7807 18.2949 33.9095 18.3491 34.0035 18.4452L34.0978 18.5414C34.2881 18.7358 34.2881 19.0466 34.0978 19.241L17.3488 36.3485C17.2548 36.4446 17.126 36.4987 16.9915 36.4987C16.8571 36.4987 16.7283 36.4445 16.6342 36.3485L1.83996 21.2353C1.6497 21.0409 1.6497 20.7301 1.83996 20.5358L3.88645 18.4452ZM4.45399 19.2949L2.89695 20.8855L16.9916 35.284L32.6455 19.2949H4.45399Z" fill="#eb4949"/>
<path fill-rule="evenodd" clip-rule="evenodd" d="M12.9643 10.5995L5.43266 18.2948H32.457L18.9437 4.49019L14.3656 9.16775L13.6659 8.45298L18.5863 3.42566C18.6804 3.32956 18.8092 3.2754 18.9436 3.27539C19.0781 3.27538 19.2069 3.32954 19.301 3.42563L34.0035 18.445C34.1442 18.5889 34.1851 18.8031 34.1071 18.9886C34.0291 19.1741 33.8474 19.2948 33.6462 19.2948H4.24367C4.04241 19.2948 3.86078 19.1741 3.78276 18.9886C3.70475 18.8031 3.74556 18.5889 3.88633 18.4451L12.2646 9.88478L12.9643 10.5995Z" fill="#B6B6B6"/>
<path fill-rule="evenodd" clip-rule="evenodd" d="M6.99936 1.64246C7.19253 1.44512 7.50571 1.44512 7.69888 1.64246L19.2948 13.4883C19.4879 13.6856 19.4879 14.0056 19.2948 14.2029L17.8933 15.6346C17.7001 15.8319 17.3869 15.8319 17.1938 15.6346L5.59789 3.78873C5.40472 3.5914 5.40472 3.27147 5.59789 3.07414L6.99936 1.64246ZM7.34912 2.71435L6.64717 3.43143L17.5435 14.5627L18.2455 13.8456L7.34912 2.71435Z" fill="#B6B6B6"/>
</svg>
