<svg width="43" height="43" viewBox="0 0 43 43" fill="none" xmlns="http://www.w3.org/2000/svg">
<path fill-rule="evenodd" clip-rule="evenodd" d="M35.5551 23.8375L35.1269 24.0957L34.699 23.8371C34.7896 23.6872 34.952 23.5956 35.1272 23.5957C35.3023 23.5958 35.4647 23.6875 35.5551 23.8375ZM40.3653 34.2116C40.6052 36.8276 40.003 38.433 38.8769 39.3539C37.7853 40.2466 36.3263 40.3829 35.1269 40.3829C33.9277 40.3829 32.425 40.2398 31.3111 39.3476C30.1539 38.4208 29.5518 36.807 29.8907 34.1931C29.9955 33.3837 30.3632 32.3268 30.828 31.2301C31.2977 30.1218 31.8851 28.9305 32.457 27.8384C33.0295 26.7453 33.5896 25.7457 34.0063 25.0197C34.2148 24.6566 34.3876 24.3615 34.5084 24.157C34.5689 24.0547 34.6163 23.9751 34.6488 23.9208L34.6859 23.8588L34.699 23.8371C34.6991 23.837 34.699 23.8371 35.1269 24.0957C35.5551 23.8375 35.5551 23.8374 35.5551 23.8375L35.5686 23.8599L35.6068 23.9238C35.6402 23.9797 35.689 24.0618 35.7511 24.167C35.8753 24.3776 36.0528 24.6809 36.2664 25.0533C36.6935 25.7978 37.2661 26.8196 37.847 27.9276C38.4272 29.0343 39.019 30.2334 39.4826 31.3311C39.9395 32.4129 40.2955 33.4496 40.3653 34.2116ZM35.1267 25.0796C35.0503 25.2108 34.9655 25.3575 34.8736 25.5176C34.4612 26.236 33.9078 27.2238 33.3429 28.3024C32.7775 29.3819 32.2037 30.5467 31.7487 31.6203C31.2889 32.7053 30.9686 33.6561 30.8824 34.3215C30.5688 36.7402 31.1524 37.9393 31.9363 38.5671C32.7635 39.2296 33.9572 39.3829 35.1269 39.3829C36.299 39.3829 37.4421 39.2355 38.2439 38.5798C39.0111 37.9524 39.5934 36.745 39.3694 34.303C39.3151 33.7093 39.0166 32.7979 38.5614 31.7202C38.1129 30.6584 37.5352 29.4866 36.9613 28.3919C36.388 27.2984 35.822 26.2882 35.399 25.551C35.2997 25.3779 35.2084 25.22 35.1267 25.0796Z" fill="#eb4949"/>
<path fill-rule="evenodd" clip-rule="evenodd" d="M19.9441 4.77539C20.0786 4.77538 20.2074 4.82954 20.3015 4.92563L35.0039 19.945C35.1447 20.0889 35.1856 20.3031 35.1076 20.4886C35.0295 20.6741 34.8479 20.7948 34.6466 20.7948H5.24415C5.0429 20.7948 4.86126 20.6741 4.78325 20.4886C4.70523 20.3031 4.74605 20.0889 4.88682 19.9451L19.5868 4.92566C19.6809 4.82956 19.8097 4.7754 19.9441 4.77539ZM19.9442 5.99019L6.43315 19.7948H33.4575L19.9442 5.99019Z" fill="#262E30"/>
<path fill-rule="evenodd" clip-rule="evenodd" d="M4.88694 19.9452C4.981 19.8491 5.10979 19.7949 5.24424 19.7949H34.6467C34.7812 19.7949 34.91 19.8491 35.004 19.9452L35.0983 20.0414C35.2886 20.2358 35.2886 20.5466 35.0983 20.741L18.3493 37.8485C18.2552 37.9446 18.1265 37.9987 17.992 37.9987C17.8576 37.9987 17.7288 37.9445 17.6347 37.8485L2.84045 22.7353C2.65019 22.5409 2.65019 22.2301 2.84045 22.0358L4.88694 19.9452ZM5.45448 20.7949L3.89744 22.3855L17.992 36.784L33.646 20.7949H5.45448Z" fill="#eb4949"/>
<path d="M19.9454 15.3458L8.34949 3.5L6.94802 4.93168L18.5439 16.7775L19.9454 15.3458Z" fill="white"/>
<path fill-rule="evenodd" clip-rule="evenodd" d="M7.99977 3.14246C8.19294 2.94512 8.50612 2.94512 8.69929 3.14246L20.2952 14.9883C20.4883 15.1856 20.4883 15.5056 20.2952 15.7029L18.8937 17.1346C18.7005 17.3319 18.3873 17.3319 18.1942 17.1346L6.5983 5.28873C6.40513 5.0914 6.40513 4.77147 6.5983 4.57414L7.99977 3.14246ZM8.34953 4.21435L7.64758 4.93143L18.5439 16.0627L19.2459 15.3456L8.34953 4.21435Z" fill="#262E30"/>
</svg>
