<svg xmlns="http://www.w3.org/2000/svg" width="40" height="40" viewBox="0 0 40 40"><path d="M34.923,10.25a.392.392,0,0,0-.033-.05.484.484,0,0,0-.2-.162l0,0-15-6a.489.489,0,0,0-.372,0l-15,6a.58.58,0,0,0-.052.034c-.013.008-.03.007-.042.016s-.016.021-.027.029a.48.48,0,0,0-.1.114.378.378,0,0,0-.037.055A.5.5,0,0,0,4,10.5v5.161a.5.5,0,0,0,1,0V11.238l14,5.6v3.5a.5.5,0,0,0,1,0v-3.5l14-5.6v1.426a.5.5,0,1,0,1,0V10.5A.481.481,0,0,0,34.923,10.25ZM19.5,15.962l-8.083-3.233L5.845,10.5,19.5,5.038,33.153,10.5Z" style="fill:#2b3436"/><path d="M34.972,12.525a.493.493,0,0,0-.472-.361.5.5,0,0,0-.5.5v.2l-.617,1.2c-.529,1.024-1.2,1.691-1.783,1.785a.91.91,0,0,1-.812-.3,1.882,1.882,0,0,0-1.67-.574A3.877,3.877,0,0,0,26.6,17.285c-.529,1.025-1.2,1.693-1.783,1.786a.908.908,0,0,1-.811-.3,1.893,1.893,0,0,0-1.67-.574,3.656,3.656,0,0,0-2.347,2.018.484.484,0,0,0-.13-.237.491.491,0,0,0-.359-.138h0a.49.49,0,0,0-.395.208l-.7.731a.972.972,0,0,1-.86.355c-.575-.079-1.2-.683-1.719-1.655A3.677,3.677,0,0,0,13.36,17.3a1.962,1.962,0,0,0-1.719.654.981.981,0,0,1-.861.355c-.575-.08-1.2-.683-1.718-1.657A3.687,3.687,0,0,0,6.6,14.476a1.96,1.96,0,0,0-1.721.654l-.109.114a.489.489,0,0,0-.267-.088.5.5,0,0,0-.5.5v.538a.5.5,0,0,0,0,.139V28.5a.5.5,0,0,0,.314.464l15,6A.5.5,0,0,0,19.5,35a.508.508,0,0,0,.186-.036L25.4,32.678a.5.5,0,1,0-.371-.928L20,33.762V22.354l.715-1.384c.529-1.025,1.2-1.692,1.782-1.785a.907.907,0,0,1,.812.3,1.886,1.886,0,0,0,1.67.575,3.88,3.88,0,0,0,2.514-2.315c.529-1.024,1.2-1.692,1.783-1.786a.9.9,0,0,1,.811.3,1.912,1.912,0,0,0,1.67.575A3.516,3.516,0,0,0,34,15v6.5a.5.5,0,0,0,1,0V13.108l.024-.047A.5.5,0,0,0,34.972,12.525ZM5,28.161V16.447l.6-.626a.961.961,0,0,1,.861-.354c.574.079,1.2.682,1.719,1.655A3.68,3.68,0,0,0,10.644,19.3a1.973,1.973,0,0,0,1.719-.654.967.967,0,0,1,.861-.355c.575.079,1.2.683,1.718,1.655a3.681,3.681,0,0,0,2.465,2.178A1.853,1.853,0,0,0,19,21.582v12.18ZM29,25H28V24h1Zm-3-2h1v1H26Zm0,2h1v1H26Zm-1,0H24V24h1Zm-1,1h1v1H24Zm1-3H24V22h1Zm-2,1H22V23h1Zm0,2H22V25h1Zm-1,1h1v1H22Zm1-5H22V21h1Zm11.853,5.146L33,25.293V24.5a.5.5,0,0,0-.5-.5h-1a.5.5,0,0,0-.5.5v.793l-1.853,1.853a.518.518,0,0,0-.109.163A.5.5,0,0,0,29,27.5v6A1.5,1.5,0,0,0,30.5,35h3A1.5,1.5,0,0,0,35,33.5v-6a.5.5,0,0,0-.038-.191A.518.518,0,0,0,34.853,27.146ZM31.707,26h.586l1,1H30.707ZM33.5,34h-3a.5.5,0,0,1-.5-.5V28h4v5.5A.5.5,0,0,1,33.5,34ZM10.653,27.36a.861.861,0,0,1-.4.762.846.846,0,0,1-.439.119,1.144,1.144,0,0,1-.523-.137,1.715,1.715,0,0,1-.9-1.4.861.861,0,0,1,.4-.762.967.967,0,0,1,.962.019A1.712,1.712,0,0,1,10.653,27.36ZM8.921,23.819A2.33,2.33,0,0,0,7.7,21.92a1.22,1.22,0,0,0-1.206-.036,1.056,1.056,0,0,0-.481.936,2.333,2.333,0,0,0,1.224,1.9,1.472,1.472,0,0,0,.675.178,1.008,1.008,0,0,0,.532-.143A1.055,1.055,0,0,0,8.921,23.819ZM7.7,23.833A1.394,1.394,0,0,1,7,22.743a.049.049,0,0,1,.02,0,.477.477,0,0,1,.211.067,1.363,1.363,0,0,1,.689,1.012l.007.077A.365.365,0,0,1,7.7,23.833Z" style="fill:#009688"/></svg>