<svg xmlns="http://www.w3.org/2000/svg" width="40" height="40" viewBox="0 0 40 40"><rect x="19" y="20" width="1" height="1" style="fill:#009688"/><rect x="19" y="22" width="1" height="1" style="fill:#009688"/><rect x="19" y="24" width="1" height="1" style="fill:#009688"/><rect x="19" y="26" width="1" height="1" style="fill:#009688"/><rect x="19" y="18" width="1" height="1" style="fill:#009688"/><rect x="30" y="21" width="2" height="3" rx="0.5" style="fill:#009688"/><path d="M27.5,27a.5.5,0,0,1-.354-.854l3-3a.5.5,0,0,1,.708.708l-3,3A.5.5,0,0,1,27.5,27Z" style="fill:#009688"/><path d="M34.5,27a.5.5,0,0,1-.354-.146l-3-3a.5.5,0,0,1,.708-.708l3,3A.5.5,0,0,1,34.5,27Z" style="fill:#009688"/><path d="M33.5,35h-5A1.5,1.5,0,0,1,27,33.5v-7a.5.5,0,0,1,1,0v7a.5.5,0,0,0,.5.5h5a.5.5,0,0,0,.5-.5v-7a.5.5,0,0,1,1,0v7A1.5,1.5,0,0,1,33.5,35Z" style="fill:#009688"/><path d="M34.5,27h-7a.5.5,0,0,1,0-1h7a.5.5,0,0,1,0,1Z" style="fill:#009688"/><rect x="27" y="22" width="1" height="1" style="fill:#009688"/><rect x="25" y="21" width="1" height="1" style="fill:#009688"/><rect x="25" y="23" width="1" height="1" style="fill:#009688"/><rect x="23" y="22" width="1" height="1" style="fill:#009688"/><rect x="23" y="24" width="1" height="1" style="fill:#009688"/><rect x="23" y="20" width="1" height="1" style="fill:#009688"/><rect x="21" y="21" width="1" height="1" style="fill:#009688"/><rect x="21" y="23" width="1" height="1" style="fill:#009688"/><rect x="21" y="25" width="1" height="1" style="fill:#009688"/><rect x="21" y="19" width="1" height="1" style="fill:#009688"/><path d="M34.5,19a.5.5,0,0,1-.5-.5v-6a.5.5,0,0,1,1,0v6A.5.5,0,0,1,34.5,19Z" style="fill:#009688"/><path d="M34.5,13a.5.5,0,0,1-.5-.5v-7a.5.5,0,0,0-.5-.5H5.5a.5.5,0,0,0-.5.5v7a.5.5,0,0,1-1,0v-7A1.5,1.5,0,0,1,5.5,4h28A1.5,1.5,0,0,1,35,5.5v7A.5.5,0,0,1,34.5,13Z" style="fill:#2b3436"/><path d="M23.5,35H5.5A1.5,1.5,0,0,1,4,33.5v-21a.5.5,0,0,1,1,0v21a.5.5,0,0,0,.5.5h18a.5.5,0,0,1,0,1Z" style="fill:#009688"/><path d="M13.5,31A1.5,1.5,0,1,1,15,29.5,1.5,1.5,0,0,1,13.5,31Zm0-2a.5.5,0,1,0,.5.5A.5.5,0,0,0,13.5,29Z" style="fill:#009688"/><path d="M10.5,24A2.5,2.5,0,1,1,13,21.5,2.5,2.5,0,0,1,10.5,24Zm0-4A1.5,1.5,0,1,0,12,21.5,1.5,1.5,0,0,0,10.5,20Z" style="fill:#009688"/><path d="M28.919,15c-2.773,0-5.51-1.29-7.667-2.521C17.885,10.559,11.266,8,4.783,12.458l-.412.283-.566-.824.412-.283c7.192-4.943,14.656-1.66,17.531-.023,3.739,2.134,8.525,4.071,12.393.087l.348-.359.718.7-.348.359A8,8,0,0,1,28.919,15Z" style="fill:#009688"/></svg>