<svg xmlns="http://www.w3.org/2000/svg" viewBox="0 0 40 40"><path d="M34.92,10.25l0-.05a.45.45,0,0,0-.2-.16h0l-15-6a.5.5,0,0,0-.38,0l-15,6s0,0,0,0l0,0,0,0a.52.52,0,0,0-.1.11l0,0a.54.54,0,0,0,0,.22H4v5.16a.5.5,0,0,0,1,0V11.24l14,5.6v3.5a.5.5,0,1,0,1,0v-3.5l14-5.6v1.42a.5.5,0,0,0,1,0V10.5A.44.44,0,0,0,34.92,10.25ZM19.5,16l-8.08-3.23L5.85,10.5,19.5,5,33.15,10.5Z" style="fill:#b6b6b6"/><path d="M34.81,12.06a.51.51,0,0,0-.68.22l-.75,1.47c-.53,1.05-1.21,1.74-1.8,1.84a.94.94,0,0,1-.8-.28,1.87,1.87,0,0,0-1.65-.55,4,4,0,0,0-2.53,2.37c-.53,1-1.21,1.73-1.8,1.83a.86.86,0,0,1-.79-.28,1.88,1.88,0,0,0-1.65-.55A3.73,3.73,0,0,0,20,20.2a.42.42,0,0,0-.13-.22.5.5,0,0,0-.36-.14h0a.5.5,0,0,0-.4.21l-.7.73a1,1,0,0,1-.86.35c-.57-.08-1.2-.68-1.71-1.65a3.7,3.7,0,0,0-2.47-2.18,2,2,0,0,0-1.72.65,1,1,0,0,1-.86.36c-.57-.08-1.2-.68-1.72-1.66A3.66,3.66,0,0,0,6.6,14.48a1.9,1.9,0,0,0-1.72.65l-.11.11a.5.5,0,0,0-.27-.08.5.5,0,0,0-.5.5v.53a.33.33,0,0,0,0,.14V28.5a.49.49,0,0,0,.31.46l15,6a.43.43,0,0,0,.19,0,.46.46,0,0,0,.19,0l5.71-2.28a.5.5,0,1,0-.37-.93l-5,2V22.35l.72-1.4c.53-1.05,1.21-1.73,1.8-1.83a.86.86,0,0,1,.79.28A1.88,1.88,0,0,0,25,20a4,4,0,0,0,2.53-2.37c.54-1,1.22-1.73,1.81-1.83a.88.88,0,0,1,.79.28,1.84,1.84,0,0,0,1.65.54A3.53,3.53,0,0,0,34,14.7v6.8a.5.5,0,0,0,1,0V12.79l0,0A.52.52,0,0,0,34.81,12.06ZM5,28.16V16.45l.6-.63a1,1,0,0,1,.86-.35c.57.08,1.2.68,1.72,1.65a3.69,3.69,0,0,0,2.46,2.18,2,2,0,0,0,1.72-.65,1,1,0,0,1,.86-.36c.58.08,1.2.68,1.72,1.66a3.68,3.68,0,0,0,2.47,2.17,1.14,1.14,0,0,0,.26,0A2,2,0,0,0,19,21.58V33.76ZM29,25H28V24h1Zm-3-2h1v1H26Zm0,2h1v1H26Zm-1,0H24V24h1Zm-1,1h1v1H24Zm1-3H24V22h1Zm-2,1H22V23h1Zm0,2H22V25h1Zm-1,1h1v1H22Zm1-5H22V21h1Zm11.85,5.15L33,25.29V24.5a.5.5,0,0,0-.5-.5h-1a.5.5,0,0,0-.5.5v.79l-1.85,1.86a.36.36,0,0,0-.11.16.41.41,0,0,0,0,.19v6A1.5,1.5,0,0,0,30.5,35h3A1.5,1.5,0,0,0,35,33.5v-6a.41.41,0,0,0,0-.19A.36.36,0,0,0,34.85,27.15ZM31.71,26h.58l1,1H30.71Zm1.79,8h-3a.5.5,0,0,1-.5-.5V28h4v5.5A.5.5,0,0,1,33.5,34ZM10.65,27.36a.84.84,0,0,1-.4.76.82.82,0,0,1-.43.12,1.08,1.08,0,0,1-.53-.14,1.7,1.7,0,0,1-.89-1.4.85.85,0,0,1,.39-.76,1,1,0,0,1,1,0A1.72,1.72,0,0,1,10.65,27.36ZM8.92,23.82a2.34,2.34,0,0,0-1.22-1.9,1.22,1.22,0,0,0-1.21,0,1.06,1.06,0,0,0-.48.94,2.31,2.31,0,0,0,1.22,1.9,1.47,1.47,0,0,0,.68.18,1,1,0,0,0,.53-.15A1,1,0,0,0,8.92,23.82Zm-1.22,0A1.38,1.38,0,0,1,7,22.74H7a.41.41,0,0,1,.21.07,1.34,1.34,0,0,1,.69,1v.08S7.83,23.91,7.7,23.83Z" style="fill:#009688"/></svg>