<svg xmlns="http://www.w3.org/2000/svg" viewBox="0 0 40 40"><path d="M34.92,10.25l0-.05a.45.45,0,0,0-.2-.16h0l-15-6a.5.5,0,0,0-.38,0l-15,6s0,0,0,0l0,0,0,0a.52.52,0,0,0-.1.11l0,0a.54.54,0,0,0,0,.22H4v5.16a.5.5,0,0,0,1,0V11.24l14,5.6v3.5a.5.5,0,1,0,1,0v-3.5l14-5.6v1.42a.5.5,0,0,0,1,0V10.5A.44.44,0,0,0,34.92,10.25ZM19.5,16l-8.08-3.23L5.85,10.5,19.5,5,33.15,10.5Z" style="fill:#2b3436"/><path d="M35,12.52a.49.49,0,0,0-.47-.36.5.5,0,0,0-.5.5v.2l-.62,1.2c-.53,1-1.19,1.69-1.78,1.78a.9.9,0,0,1-.81-.3A1.89,1.89,0,0,0,29.12,15a3.89,3.89,0,0,0-2.52,2.32c-.52,1-1.19,1.69-1.78,1.78a.9.9,0,0,1-.81-.3,1.9,1.9,0,0,0-1.67-.57,3.64,3.64,0,0,0-2.35,2,.45.45,0,0,0-.13-.23.5.5,0,0,0-.36-.14h0a.5.5,0,0,0-.4.21l-.7.73a1,1,0,0,1-.86.35c-.57-.08-1.2-.68-1.71-1.65a3.7,3.7,0,0,0-2.47-2.18,2,2,0,0,0-1.72.65,1,1,0,0,1-.86.36c-.57-.08-1.2-.68-1.72-1.66A3.67,3.67,0,0,0,6.6,14.48a1.92,1.92,0,0,0-1.72.65l-.11.11a.5.5,0,0,0-.27-.08.5.5,0,0,0-.5.5v.53a.33.33,0,0,0,0,.14V28.5a.49.49,0,0,0,.31.46l15,6a.43.43,0,0,0,.19,0,.46.46,0,0,0,.19,0l5.71-2.28a.5.5,0,1,0-.37-.93l-5,2V22.35L20.71,21c.53-1,1.2-1.69,1.79-1.79a1,1,0,0,1,.81.3,1.87,1.87,0,0,0,1.67.58,3.86,3.86,0,0,0,2.51-2.32c.53-1,1.2-1.69,1.79-1.78a.9.9,0,0,1,.81.3,1.89,1.89,0,0,0,1.67.57A3.5,3.5,0,0,0,34,15v6.5a.5.5,0,0,0,1,0V13.11l0,0A.48.48,0,0,0,35,12.52ZM5,28.16V16.45l.6-.63a.94.94,0,0,1,.86-.35c.57.08,1.2.68,1.72,1.65a3.69,3.69,0,0,0,2.46,2.18,2,2,0,0,0,1.72-.65,1,1,0,0,1,.86-.36c.58.08,1.2.68,1.72,1.66a3.68,3.68,0,0,0,2.47,2.17,1.14,1.14,0,0,0,.26,0A1.93,1.93,0,0,0,19,21.58V33.76ZM29,25H28V24h1Zm-3-2h1v1H26Zm0,2h1v1H26Zm-1,0H24V24h1Zm-1,1h1v1H24Zm1-3H24V22h1Zm-2,1H22V23h1Zm0,2H22V25h1Zm-1,1h1v1H22Zm1-5H22V21h1Zm11.85,5.15L33,25.29V24.5a.5.5,0,0,0-.5-.5h-1a.5.5,0,0,0-.5.5v.79l-1.85,1.86a.36.36,0,0,0-.11.16.41.41,0,0,0,0,.19v6A1.5,1.5,0,0,0,30.5,35h3A1.5,1.5,0,0,0,35,33.5v-6a.41.41,0,0,0,0-.19A.36.36,0,0,0,34.85,27.15ZM31.71,26h.58l1,1H30.71Zm1.79,8h-3a.5.5,0,0,1-.5-.5V28h4v5.5A.5.5,0,0,1,33.5,34ZM10.65,27.36a.84.84,0,0,1-.4.76.82.82,0,0,1-.43.12,1.08,1.08,0,0,1-.53-.14,1.7,1.7,0,0,1-.89-1.4.85.85,0,0,1,.39-.76,1,1,0,0,1,1,0A1.72,1.72,0,0,1,10.65,27.36ZM8.92,23.82a2.34,2.34,0,0,0-1.22-1.9,1.22,1.22,0,0,0-1.21,0,1.06,1.06,0,0,0-.48.94,2.31,2.31,0,0,0,1.22,1.9,1.47,1.47,0,0,0,.68.18,1,1,0,0,0,.53-.15A1,1,0,0,0,8.92,23.82Zm-1.22,0A1.38,1.38,0,0,1,7,22.74H7a.41.41,0,0,1,.21.07,1.34,1.34,0,0,1,.69,1v.08A.48.48,0,0,1,7.7,23.83Z" style="fill:#009688"/></svg>