<svg width="14" height="14" viewBox="0 0 14 14" fill="none" xmlns="http://www.w3.org/2000/svg">
<path fill-rule="evenodd" clip-rule="evenodd" d="M7.54156 4.72495C7.32505 5.50922 7.18694 6.61633 7.18694 7.8555C7.18694 9.09467 7.32505 10.2018 7.54156 10.986C7.65064 11.3811 7.77318 11.6704 7.89182 11.8511C7.9619 11.9579 8.01129 11.9995 8.03554 12.0152C8.03969 12.0125 8.0445 12.009 8.04996 12.0048C8.08868 11.9746 8.14128 11.9181 8.19342 11.829C8.30988 11.63 8.56558 11.5631 8.76456 11.6796C8.96353 11.796 9.03043 12.0518 8.91398 12.2507C8.81947 12.4122 8.70098 12.5561 8.56251 12.6638C8.42695 12.7692 8.24739 12.8582 8.04044 12.8582C7.64645 12.8582 7.36927 12.5765 7.19384 12.3092C7.00772 12.0257 6.85684 11.6431 6.73678 11.2082C6.49502 10.3325 6.35205 9.147 6.35205 7.8555C6.35205 6.564 6.49502 5.37847 6.73678 4.50277C6.85684 4.06788 7.00772 3.68531 7.19384 3.40175C7.36927 3.13445 7.64645 2.85278 8.04044 2.85278C8.424 2.85278 8.70476 3.12518 8.87921 3.39344C9.0049 3.58671 8.95011 3.84528 8.75684 3.97097C8.56356 4.09666 8.30499 4.04187 8.1793 3.84859C8.12564 3.76608 8.07955 3.72108 8.04978 3.6996C8.04606 3.69692 8.0428 3.69474 8.04 3.69298C8.0177 3.70628 7.9665 3.74607 7.89182 3.85986C7.77318 4.04061 7.65064 4.32987 7.54156 4.72495Z" fill="#C4C4C4"/>
<path fill-rule="evenodd" clip-rule="evenodd" d="M5.12945 4.60703C4.91294 5.3913 4.77483 6.49841 4.77483 7.73758C4.77483 8.97675 4.91294 10.0839 5.12945 10.8681C5.23853 11.2632 5.36108 11.5525 5.47971 11.7332C5.54979 11.84 5.59918 11.8816 5.62343 11.8973C5.62758 11.8945 5.63239 11.8911 5.63785 11.8868C5.67657 11.8567 5.72917 11.8002 5.78131 11.7111C5.89777 11.5121 6.15348 11.4452 6.35245 11.5617C6.55143 11.6781 6.61832 11.9338 6.50187 12.1328C6.40736 12.2943 6.28887 12.4382 6.1504 12.5459C6.01484 12.6513 5.83528 12.7403 5.62833 12.7403C5.23435 12.7403 4.95716 12.4586 4.78173 12.1913C4.59561 11.9078 4.44473 11.5252 4.32467 11.0903C4.08291 10.2146 3.93994 9.02908 3.93994 7.73758C3.93994 6.44608 4.08291 5.26055 4.32467 4.38485C4.44473 3.94996 4.59561 3.56739 4.78173 3.28383C4.95716 3.01653 5.23435 2.73486 5.62833 2.73486C6.01189 2.73486 6.29265 3.00726 6.46711 3.27552C6.59279 3.46879 6.538 3.72736 6.34473 3.85305C6.15145 3.97874 5.89288 3.92395 5.76719 3.73067C5.71353 3.64816 5.66744 3.60316 5.63767 3.58168C5.63395 3.579 5.63069 3.57682 5.62789 3.57506C5.60559 3.58836 5.5544 3.62815 5.47971 3.74194C5.36108 3.92269 5.23853 4.21195 5.12945 4.60703Z" fill="#C4C4C4"/>
<path fill-rule="evenodd" clip-rule="evenodd" d="M10.1283 4.12035C9.87089 5.05906 9.70647 6.37948 9.70647 7.85462C9.70647 9.32977 9.87089 10.6502 10.1283 11.5889C10.2578 12.0612 10.4045 12.4133 10.5499 12.6374C10.6221 12.7489 10.6841 12.8132 10.7291 12.8468C10.7506 12.8628 10.7651 12.8695 10.7725 12.8723C10.7761 12.8736 10.7783 12.8741 10.7791 12.8742L10.7799 12.8744L10.7799 12.8744L10.7799 12.8744L10.7799 12.8744L10.78 12.8744L10.7808 12.8742C10.7816 12.8741 10.7838 12.8736 10.7874 12.8723C10.7947 12.8695 10.8093 12.8628 10.8307 12.8468C10.8757 12.8132 10.9378 12.7489 11.01 12.6374C11.1553 12.4133 11.3021 12.0612 11.4316 11.5889C11.689 10.6502 11.8534 9.32977 11.8534 7.85462C11.8534 6.37948 11.689 5.05906 11.4316 4.12035C11.3021 3.64802 11.1553 3.29599 11.01 3.07181C10.9378 2.96039 10.8757 2.89605 10.8307 2.86247C10.8093 2.84648 10.7947 2.8397 10.7874 2.83698C10.7838 2.83563 10.7816 2.83517 10.7808 2.83501L10.78 2.8349L10.7799 2.83489L10.7799 2.83489L10.7799 2.83489L10.7799 2.8349L10.7791 2.83501C10.7783 2.83517 10.7761 2.83563 10.7725 2.83698C10.7651 2.8397 10.7506 2.84648 10.7291 2.86247C10.6841 2.89605 10.6221 2.96039 10.5499 3.07181C10.4045 3.29599 10.2578 3.64802 10.1283 4.12035ZM9.84933 2.61764C10.0489 2.30973 10.3541 2 10.7799 2C11.2058 2 11.5109 2.30973 11.7105 2.61764C11.9219 2.94374 12.0965 3.38796 12.2368 3.89957C12.519 4.92873 12.6883 6.3269 12.6883 7.85462C12.6883 9.38235 12.519 10.7805 12.2368 11.8097C12.0965 12.3213 11.9219 12.7655 11.7105 13.0916C11.5109 13.3995 11.2058 13.7092 10.7799 13.7092C10.3541 13.7092 10.0489 13.3995 9.84933 13.0916C9.63793 12.7655 9.46341 12.3213 9.32312 11.8097C9.04092 10.7805 8.87158 9.38235 8.87158 7.85462C8.87158 6.3269 9.04092 4.92873 9.32312 3.89957C9.46341 3.38796 9.63793 2.94374 9.84933 2.61764Z" fill="#C4C4C4"/>
<path fill-rule="evenodd" clip-rule="evenodd" d="M2.26534 4.10905C2.00338 5.04001 1.83489 6.3532 1.83489 7.82957C1.83489 9.3071 1.9975 10.6275 2.25395 11.5656C2.38298 12.0376 2.52942 12.3889 2.67478 12.6124C2.74698 12.7235 2.80907 12.7876 2.8543 12.8211C2.87585 12.8371 2.8907 12.844 2.89855 12.8468C2.90244 12.8483 2.90492 12.8488 2.90614 12.8491C2.90733 12.8493 2.90797 12.8493 2.90835 12.8493H2.90847C2.91216 12.8493 2.96513 12.8497 3.06709 12.7299C3.17083 12.6081 3.28495 12.4059 3.39934 12.1128C3.48315 11.898 3.72519 11.7918 3.93997 11.8756C4.15475 11.9594 4.26093 12.2015 4.17713 12.4162C4.04711 12.7495 3.89238 13.0485 3.70282 13.2711C3.51271 13.4944 3.248 13.6842 2.90835 13.6842C2.48203 13.6842 2.17586 13.3767 1.97487 13.0676C1.76277 12.7414 1.58842 12.2972 1.44861 11.7858C1.16735 10.7569 1 9.35876 1 7.82957C1 6.2992 1.17368 4.90633 1.46166 3.88291C1.60483 3.37409 1.78273 2.93292 1.99773 2.60928C2.20189 2.30195 2.5096 2 2.9328 2C3.28967 2 3.56218 2.22163 3.74971 2.46002C3.94226 2.70478 4.10133 3.03449 4.23133 3.40764C4.30717 3.62535 4.19217 3.86333 3.97445 3.93918C3.75673 4.01503 3.51875 3.90002 3.44291 3.6823C3.32849 3.35389 3.20649 3.11983 3.09352 2.97622C2.99547 2.85157 2.93923 2.83649 2.93147 2.83496C2.92979 2.83512 2.9265 2.83569 2.92101 2.83768C2.91248 2.84077 2.89707 2.84791 2.87507 2.86396C2.829 2.89755 2.76618 2.96134 2.69316 3.07126C2.54612 3.29259 2.39713 3.64068 2.26534 4.10905Z" fill="#C4C4C4"/>
</svg>
