<svg xmlns="http://www.w3.org/2000/svg" width="14" height="14" viewBox="0 0 14 14"><path d="M11.32,12.5H1.68a1,1,0,0,1-.986-1.164l.667-4A1,1,0,0,1,2.347,6.5h8.306a1,1,0,0,1,.986.836l.667,4A1,1,0,0,1,11.32,12.5Z" style="fill:none;stroke:#949494;stroke-linecap:round;stroke-linejoin:round"/><circle cx="6.5" cy="9.5" r="3" style="fill:none;stroke:#949494;stroke-linecap:round;stroke-linejoin:round"/><line x1="5.5" y1="4.5" x2="5.5" y2="6.5" style="fill:none;stroke:#949494;stroke-linecap:round;stroke-linejoin:round"/><line x1="7.5" y1="4.5" x2="7.5" y2="6.5" style="fill:none;stroke:#949494;stroke-linecap:round;stroke-linejoin:round"/><line x1="6.5" y1="9.5" x2="7.5" y2="8.5" style="fill:none;stroke:#949494;stroke-linecap:round;stroke-linejoin:round"/><path d="M12.5,2.5v1a1,1,0,0,1-1,1H1.5a1,1,0,0,1-1-1v-1" style="fill:none;stroke:#949494;stroke-linecap:round;stroke-linejoin:round"/><path d="M10.562,2C9.5,1.25,9.5.5,6.438.5A5.134,5.134,0,0,0,3.751,1.813L2.5.5v3L3.751,2.187A5.134,5.134,0,0,0,6.438,3.5C9.5,3.5,9.5,2.75,10.562,2Z" style="fill:none;stroke:#009688;stroke-linecap:round;stroke-linejoin:round"/><line x1="8.5" y1="2.5" x2="7.5" y2="3.5" style="fill:none;stroke:#009688;stroke-linecap:round;stroke-linejoin:round"/><circle cx="8.5" cy="1.5" r="0.5" style="fill:#009688"/><line x1="10.5" y1="2.5" x2="10.5" y2="2.5" style="fill:none;stroke:#009688;stroke-linecap:round;stroke-miterlimit:10"/></svg>