<svg width="24" height="24" viewBox="0 0 24 24" fill="none" xmlns="http://www.w3.org/2000/svg">
<path d="M23.2663 3.91593C23.3639 4.05627 23.3242 4.24849 23.1815 4.34262C23.0388 4.43674 22.8472 4.39713 22.7494 4.25691C21.9148 3.05981 20.8695 2.02435 19.6646 1.20105C19.5234 1.10462 19.482 0.913359 19.5748 0.769791C19.6675 0.626223 19.8594 0.584732 20.0006 0.680989C21.2774 1.55103 22.3842 2.64742 23.2663 3.91593Z" fill="#eb4949"/>
<path d="M22.2591 6.29213C22.3385 6.45943 22.2609 6.6575 22.0914 6.73194C21.9218 6.80637 21.7244 6.72897 21.6447 6.56182C20.9669 5.14095 19.9823 3.88802 18.762 2.89347C18.6185 2.77647 18.5899 2.56643 18.7024 2.41926C18.8148 2.27208 19.0256 2.24352 19.1694 2.36026C20.4796 3.42403 21.5353 4.76751 22.2591 6.29213Z" fill="#eb4949"/>
<path fill-rule="evenodd" clip-rule="evenodd" d="M11.1296 14.4004C11.124 14.0634 10.6958 13.6619 10.1535 13.1533C9.55529 12.5925 8.81114 11.8945 8.29694 10.9378C7.47187 9.40337 5.65118 8.33247 4.4379 8.2198C4.37183 8.21365 4.30781 8.21058 4.24738 8.21058C3.94829 8.21058 3.72294 8.28638 3.6118 8.42363C2.97367 9.21593 2.53475 10.4635 2.46715 11.6799C2.39084 13.0504 2.7852 14.1684 3.57647 14.828C4.41383 15.5261 5.86321 15.923 7.45548 15.8892C8.96427 15.8575 10.2825 15.457 10.8961 14.8434C11.0554 14.6841 11.1317 14.5392 11.1296 14.4004ZM10.026 14.5464C9.44262 14.8813 8.45161 15.1031 7.4396 15.1246C7.38429 15.1256 7.32847 15.1261 7.27367 15.1261C5.93132 15.1261 4.73238 14.7948 4.0671 14.2401C3.46584 13.7392 3.16931 12.845 3.23179 11.7224C3.28454 10.7667 3.61078 9.75624 4.08298 9.08584L4.1639 8.97061L4.30474 8.97778C4.59052 8.99212 4.97873 9.10274 5.36899 9.28148C6.33951 9.72602 7.18199 10.4804 7.62295 11.3004C7.941 11.8919 8.35532 12.4409 8.92586 13.0284C9.09989 13.2077 9.49035 13.5795 9.76871 13.8446L9.92453 13.9931C9.99401 14.0592 10.039 14.1021 10.0572 14.1203L10.3117 14.382L10.026 14.5464Z" fill="#eb4949"/>
<path fill-rule="evenodd" clip-rule="evenodd" d="M10.9231 15.7892C11.8798 15.275 12.5779 14.5308 13.1387 13.9326L13.1424 13.9287C13.6492 13.3887 14.0496 12.9621 14.3853 12.957L14.3837 12.8546L14.3914 12.957C14.5287 12.957 14.6716 13.0333 14.8288 13.1905C15.4423 13.8041 15.8428 15.1224 15.8746 16.6311C15.9084 18.2229 15.5115 19.6728 14.8134 20.5102C14.1538 21.3014 13.0357 21.6958 11.6652 21.6195C10.4489 21.5519 9.20129 21.113 8.409 20.4743C8.24306 20.3406 8.1688 20.0395 8.20516 19.6482C8.31784 18.4344 9.38874 16.6142 10.9231 15.7892ZM15.11 16.6465C15.0884 15.6345 14.8672 14.6435 14.5317 14.0602L14.3704 13.779L14.1343 14.0023C14.1246 14.011 14.1149 14.0207 14.1057 14.0299C14.079 14.0565 14.0022 14.137 13.8859 14.2594L13.8721 14.2737C13.6058 14.5539 13.2027 14.9769 13.0137 15.1608C12.4263 15.7318 11.8768 16.1456 11.2857 16.4637C10.4658 16.9046 9.71139 17.7471 9.26685 18.7176C9.08811 19.1079 8.97748 19.4961 8.96314 19.7819L8.95597 19.9227L9.07121 20.0036C9.74161 20.4753 10.7516 20.8016 11.7077 20.8548C11.8056 20.8605 11.9029 20.863 11.9981 20.863C12.9815 20.863 13.7727 20.5634 14.226 20.0195C14.8001 19.3302 15.1391 18.038 15.11 16.6465Z" fill="#eb4949"/>
<path fill-rule="evenodd" clip-rule="evenodd" d="M15.6636 3.62735C14.8708 2.9887 13.6232 2.54979 12.4074 2.48219C12.2963 2.47604 12.1851 2.47297 12.0776 2.47297C10.8612 2.47297 9.86049 2.8704 9.25923 3.5915C8.56117 4.42887 8.16477 5.87927 8.19805 7.47052C8.22981 8.97931 8.63031 10.2976 9.24386 10.9111C9.40263 11.0699 9.54705 11.1452 9.68789 11.1447C10.0244 11.139 10.4259 10.7109 10.9345 10.1685C11.4952 9.57096 12.1937 8.82648 13.15 8.31198C14.6844 7.48691 15.7553 5.66673 15.868 4.45294C15.9038 4.06217 15.8296 3.76102 15.6636 3.62735ZM15.11 4.31978C15.0957 4.60556 14.985 4.99377 14.8063 5.38402C14.3618 6.35455 13.6074 7.19703 12.7874 7.63799C12.1959 7.95603 11.6469 8.37036 11.0594 8.9409C10.8715 9.12322 10.4689 9.54626 10.2031 9.82589C10.1309 9.9022 10.0741 9.96161 10.0331 10.0041L10.0341 10.0051L9.97931 10.0599L9.95831 10.1014H9.9368L9.70275 10.3211L9.54142 10.0405C9.20596 9.45714 8.98471 8.46613 8.9632 7.45413C8.93401 6.06313 9.27305 4.77047 9.84717 4.08112C10.3486 3.47934 11.2428 3.18281 12.3649 3.2458C13.3206 3.29855 14.331 3.62479 15.0014 4.09699L15.1167 4.17843L15.11 4.31978Z" fill="#eb4949"/>
<path fill-rule="evenodd" clip-rule="evenodd" d="M16.6145 8.2125C18.2016 8.17921 19.6623 8.58073 20.4935 9.27367C21.2852 9.93332 21.6791 11.0513 21.6033 12.4224C21.5357 13.6387 21.0968 14.8863 20.4581 15.6786C20.3245 15.8445 20.0233 15.9188 19.632 15.8824C18.4182 15.7698 16.5981 14.6989 15.773 13.1645C15.2588 12.2078 14.5146 11.5097 13.9165 10.9489C13.3741 10.4403 12.9459 10.0388 12.9403 9.70183C12.9383 9.56252 13.0146 9.41759 13.1738 9.25831C13.7874 8.64475 15.1057 8.24425 16.6145 8.2125ZM19.988 15.0159C20.4602 14.3455 20.7864 13.3355 20.8392 12.3793C20.9017 11.2567 20.6046 10.3625 20.0049 9.86111C19.316 9.2875 18.0234 8.94846 16.6319 8.97714C15.6199 8.99865 14.6289 9.2199 14.0455 9.55535L13.7644 9.71719L13.9866 9.95329C13.9943 9.96148 14.0025 9.96966 14.0142 9.98142C14.0404 10.0075 14.1244 10.088 14.2591 10.216L14.2802 10.2362C14.5601 10.5027 14.9668 10.8901 15.1451 11.0739C15.7156 11.6613 16.13 12.2103 16.448 12.8019C16.889 13.6213 17.7315 14.3762 18.702 14.8208C19.0922 15 19.4804 15.1106 19.7662 15.1245L19.9071 15.1311L19.988 15.0159Z" fill="#eb4949"/>
<path d="M1.90829 17.2677C1.73871 17.3421 1.66111 17.5402 1.74054 17.7075C2.46432 19.2321 3.52006 20.5756 4.83028 21.6394C4.97406 21.7561 5.18486 21.7276 5.29728 21.5804C5.40971 21.4332 5.38117 21.2232 5.23761 21.1062C4.01731 20.1116 3.03273 18.8587 2.35495 17.4378C2.27521 17.2707 2.07788 17.1933 1.90829 17.2677Z" fill="#eb4949"/>
<path d="M0.733373 20.0835C0.635785 19.9431 0.675464 19.7509 0.818149 19.6568C0.960834 19.5627 1.15248 19.6023 1.25024 19.7425C2.08488 20.9396 3.13017 21.9751 4.3351 22.7984C4.47623 22.8948 4.51765 23.086 4.42488 23.2296C4.3321 23.3732 4.14027 23.4147 3.99901 23.3184C2.72223 22.4484 1.61543 21.352 0.733373 20.0835Z" fill="#eb4949"/>
</svg>
