<svg width="200" height="200" fill="none" xmlns="http://www.w3.org/2000/svg"><path d="M104.3 56.492 43.18 93.95m41.895 38.411.53-.317m27.223-65.249.317.158M35.5 100.291c-.212-8.823 3.496-12.839 7.892-14.001 4.396-1.162 9.48.634 13.718 3.011 4.184 2.43 7.52 5.548 11.387 11.413 3.866 5.917 8.368 14.634 10.275 29.111M97.68 76.78c-.106-.106-.265-.159-.424-.212a.737.737 0 0 0-.477 0 .477.477 0 0 0-.318.317c-.053.159-.105.317-.105.423m-11.281 48.765 2.171-1.374m-2.224 1.48c0-.053 0-.053.053-.053m50.527-26.681 4.131-2.642m12.182-7.661c-.052 0-.052-.053-.105-.053h-.106m-.318.529h-.053m.052 0s-.053 0 0 0m-.052.001v-.053m-.213-.106.53-.37m.742.37-.477-.317m-.53.528v-.053m-.052-.052.106.053m-.054.053.107-.106m-.637-.317c.159.105.265.21.424.317.159.105.265.21.37.37m-23.516 14.688c.318.211.636.475.848.845.212.317.37.74.37 1.109m-23.304 11.729c0-.158.106-.264.265-.211m-6.302 4.385c.053 0 .053 0 0 0m-2.913 1.743.476-.317m53.918-34.342c.106-.053.212-.053.318-.053.105 0 .211.053.317.106M85.022 126.18l.105 2.958m78.334-45.384-49.839-32.017m44.225 31.013-45.073-28.952m.848-2.061c-.212-.159-.53-.212-.794-.212a1.5 1.5 0 0 0-.795.212m.053 0-7.786 4.755M36.877 97.544l-1.695-1.163" stroke="#262E31" stroke-width=".283" stroke-linecap="round" stroke-linejoin="round"/><path d="M41.537 92.63c.159-.106.318-.053.424 0 .159.053.265.159.37.264.212.212.371.476.477.74m-1.642-.793c.106-.105.318-.052.424 0 .106.053.265.159.371.265.212.211.37.475.477.74m-1.272-1.004.371-.212m-1.112.686c.106-.105.318-.053.424 0 .106.053.265.159.37.264.213.212.371.476.477.74m-6.302 2.062c.158-.106.317-.053.423.052.16.053.265.159.371.265.212.21.37.475.53.74m5.297-3.33a2.215 2.215 0 0 0-.477-.74c-.106-.106-.212-.211-.37-.264-.107-.053-.265-.106-.424 0m1.324 1.056-.424.212m-.318.265s-.053 0 0 0m-.106-.054a2.216 2.216 0 0 0-.477-.74c-.106-.105-.212-.211-.37-.264-.106-.053-.265-.106-.424 0m-3.231 3.858 4.608-2.8m1.482-.952.159.106m.213.158-.212-.158m-.9.37c-.053-.053-.053-.053 0 0m-.795.475c0-.053 0-.053 0 0m1.535-.951-.37.212m-2.013-.581.318-.211m-5.349 3.274 4.555-2.8m2.489.266c.053 0 .053 0 0 0v.106m-2.118-.582c0-.053.053-.053.053-.053m1.323 1.003v.107m-1.429-1.005.053-.053" stroke="#262E31" stroke-width=".283" stroke-linecap="round" stroke-linejoin="round"/><path d="M35.341 96.487c0-.053.053-.053.107-.106m68.799-40.365c-.106-.264-.318-.528-.53-.74-.106-.105-.265-.21-.37-.21-.159-.053-.318-.053-.424.105M85.074 132.36 37.565 99.973m56.989 36.508.742 22.454m68.642-44.591-68.641 44.592M72.522 88.35l-.106-.159m2.596-1.32-.053-.106m-1.378 2.484h-.106m1.8-1.058v.107m-2.595.105c-.053 0-.106-.052-.212-.052m2.542-1.374v-.106m28.602 32.862c0 .053 0 .053.054.053m-.16-5.442 2.172-1.374m4.024-2.535 1.324-.845m1.219 2.588c.264.158.476.422.476.687m-3.019-2.377s-.053 0 0 0m-3.919 2.482h-.106m5.35-3.38s.053 0 0 0m-7.574 4.86c0-.054 0-.054.053-.054m6.197-3.38-.053-.528m0 0c0-.053.053-.053 0 0m-4.502 8.611h.054m4.5-8.611 2.542 1.69m9.481-9.351 2.119-1.374m3.972-2.535 1.325-.793m1.218 2.536c.212.158.424.37.477.634m-3.019-2.325s-.053 0 0 0m-3.867 2.483h-.107m5.298-3.329c0-.053 0-.053 0 0m-7.468 4.755c0-.053 0-.053.053-.053m6.09-3.276-.053-.58m0 0s.053 0 0 0m.053 0 2.543 1.69m-38.611 25.308v.053m.158-.053c.053 0 .053.053.107.053m-.265-.053c.053 0 .053 0 0 0m-2.278-2.747a1.036 1.036 0 0 0-.477.475c-.106.212-.212.423-.212.634m3.019 1.638c.053-.053.107 0 .107 0m2.436-.371-.16.317m-5.402-.897v-.687m2.279 1.321c-.266 0-.583 0-.848-.106m1.218-.317c-.053.053-.053.159-.053.211m8.103-2.958s-.053 0 0 0m.265-.106s0 .053 0 0m.318.106c.053.053.053.105.106.211m-.689-.211c.053 0 .053 0 0 0m.477-.054s0 .053 0 0m-.053.107c0-.053 0-.053 0 0m-.264.316.317-.317m-1.006.423c0 .053-.053.106-.053.106m.794-.687s-.052 0 0 0m.318.052s0 .053 0 0m-.265 0 .106.106m.106.001s.054 0 0 0l.054-.053m-.901.317s-.053 0-.053.053m.318-.107h-.106m-.211.265c-.054 0-.054 0-.107-.053" stroke="#262E31" stroke-width=".283" stroke-linecap="round" stroke-linejoin="round"/><path d="M99.216 122.851c-.053 0-.053-.053-.107-.053m.531-.318c.052-.053.052-.053 0 0 .052-.053.052-.053 0 0Zm0 0 .052-.053m-.264.424c0-.054-.053-.054-.106-.107m.158-.264 4.184-2.694m-4.713 3.171.053-.053m.953-.476 3.92-2.483m15.201-44.064-1.325.793m0 0c-.053.053-.106 0-.159-.053m-14.829 9.405-2.702 1.69m-15.201 9.51-.212.106m29.766-16.326c.9-.581 2.013-.687 3.019-.528a8.68 8.68 0 0 1 2.966 1.056c.212.106.477.265.689.423l.635.476c.424.317.795.634 1.218 1.003.742.74 1.43 1.585 1.854 2.536m-15.095-7.238c.159.264.265.581.265.951m-1.694-.052a1.972 1.972 0 0 1-.265-.95m7.626-6.5c0-.053 0-.106.053-.159m.001.952v-.106m-.053 0c0-.21-.053-.422-.053-.686m1.483 3.962c-.053-.053-.053-.053-.053-.106m.582.634-.53-.528m-17.212 5.706c.053-.053.106 0 .159 0m-2.014 2.114v-.106m-.052 0c0-.211-.053-.423-.053-.687m.053-.001c0-.052 0-.105.053-.158m1.377 4.122c-.053-.053-.053-.053-.053-.106" stroke="#262E31" stroke-width=".283" stroke-linecap="round" stroke-linejoin="round"/><path d="M99.904 87.664c-.212-.159-.371-.37-.53-.529M81.949 93c.053-.053.106 0 .159 0m1.272 5.125-1.218.74m-.001-.001c-.053.053-.106 0-.159-.053m-18.007 11.412c-.053.053-.106 0-.16-.053m-1.96-4.702-8.474 5.283m19.332-3.75c.371-.212.795-.423 1.219-.476.423-.106.9-.106 1.324-.106.423 0 .9.106 1.324.212l.635.158c.212.053.424.159.636.264.424.159.794.37 1.218.582.37.211.742.475 1.112.739.16.159.371.264.53.423.159.158.318.264.477.423.317.317.635.634.9.951m-21.821 2.641 4.343-2.747m17.373-11.201c-.212-.159-.37-.37-.583-.529m0 .001c-.053-.053-.053-.053-.053-.106m-1.325-3.117v-.106m.001 0c0-.21-.053-.475-.053-.686m0-.001c0-.053 0-.106.053-.159m-16.261 10.145c.053-.053.106 0 .16 0m2.594 3.275c.053.264.159.476.212.74m-4.926-2.007c0-.211-.053-.475-.053-.687m.107.793v-.106m1.377 3.328c-.053-.053-.053-.053-.053-.106m.635.634c-.212-.158-.37-.37-.583-.528m2.278 1.849v.159m13.983-21.661-.053.053m35.062-21.609.106.053m1.007-.582-3.072-1.955M79.62 86.236l-.742.476m-4.82 2.959-.742.476m5.562.369.053.053m17.901-11.147.053.053m-36.174 22.348.054.053m-.213-2.114.053.053m-.053.052v.053m1.748 1.057c.159.105.318.317.318.528m16.471-7.871-.053-.053m0-.053-.053-1.11m-.211-3.803s0-.053-.053-.053m.053.052v.053m1.694 1.057c.16.105.318.317.318.528m.264 2.008s0 .053.054.053m15.89-9.827-.053-.053m.053-.053-.053-1.11m1.747-2.165c0-.212-.16-.423-.318-.529m-1.748-1.109.053.053m2.278 3.645s0 .053.053.053m15.677-9.721-.054-.053m.001-2.959s-.053 0 0 0m19.121 31.118-.848-.528m0 0-1.165.74m2.436-.475-.423.264m.846.581.053.053m-19.014-32.334c.159.106.265.317.318.528m-.053.001.106 2.166m.001-.001s0 .053.053.053m-.001 0 27.806 18.07m-27.222 22.876.053.053m-1.749-1.162.848.528m.423-.265-.424.264m-.847-.527-1.271.792m-16.102 11.359-.847-.581m.001 0-1.43.898m2.701-.581-.424.264m.847.582.054.053m-.001-.001v.106m-10.223-14.635c.212-.053.424.053.583.106l.477.317c.265.264.53.581.741.898m-.052.053 6.727 11.941M82.956 94.743l-.53-.37m-.212.159.477.37m36.334-20.922c0-.317-.159-.687-.318-.951-.159-.264-.424-.581-.688-.74M101.281 82.75l-1.271-.846M83.38 93.845 82.107 93m6.674 9.986c1.642 1.109 3.337 2.219 4.979 3.328m-33.102-4.491c.053 0 .053 0 0 0m28.335 8.875a3.973 3.973 0 0 0-.689-.951c-.159-.105-.317-.264-.476-.317a1.934 1.934 0 0 0-.583-.105m11.442 13.896a.982.982 0 0 0-.371-.106m18.483-11.466a.4.4 0 0 0-.264-.106m-18.59-32.809-.37.212M80.043 89.83l-.424.264m3.336 4.649c.159.106.318.317.424.529m4.926 7.237.477.476m-.265.159c-.16-.106-.371-.264-.477-.476m21.927-22.983c0 .211-.053.423-.159.581a.6.6 0 0 1-.582.159 1.1 1.1 0 0 1-.53-.317 2.905 2.905 0 0 1-.371-.476m-.317-.95c0-.212 0-.423.159-.634.159-.212.37-.212.582-.159.212.053.371.212.53.37.159.159.265.317.371.528M94.29 96.751c-.053-.845.053-1.69.371-2.483a4.1 4.1 0 0 1 1.589-1.955m5.985-8.507c0 .053.053.106.053.212m-.583-.951c.212.159.424.476.477.74M84.915 97.068c0 .053 0 .106-.053.158m12.764 2.167c.054 0 .107-.053.107-.053m-30.985 9.035c0 .052 0 .105-.053.158m-1.271-3.223c.053.053.16.106.212.159m-.052-.001c.211.211.476.528.582.845m13.294 4.491c.053 0 .106-.053.106-.053m18.75 11.624c.106-.106.265-.106.424-.053.159.053.264.106.423.212m-1.007-.053.16-.106m18.113-11.518c.106-.106.265-.106.423-.053.159.053.265.106.424.212m-6.832-11.676-1.324.793m-34.691 21.925-2.384 1.479m62.445-23.458v-.529m-17.955 11.994v-.581m-22.828-4.333c-1.748-1.162-3.443-2.324-5.19-3.487m27.859 7.714h.054m17.901-11.412c.105-.053.264-.053.423 0 .106.053.265.106.371.159M97.997 78.788h.053m18.909-2.748a30.835 30.835 0 0 1-1.271-3.064M66.75 108.532l-2.755 1.691m1.535 1.268L72.733 107m-9.533 2.537c-.477-1.004-.9-2.061-1.325-3.118m18.538-16.748-.317.212m18.273-11.307-.318.212m-35.804 22.137-.318.211m52.751-29.692-.053-1.11m19.438 29.48.424-.264m-17.953 11.413-.424.264m-18.22 11.624.423-.265m19.704-50.296L143.6 88.931M119.025 73.98l.053 1.901m-20.392 47.34h.054m-34.799-18.915 1.272.846m0-.001.159.158m38.187 12.206c-2.065-.529-4.078-1.48-5.932-2.589-1.853-1.11-3.601-2.431-5.243-3.804m7.096 11.676c.053 0 .106.053.159.053m.106.105.423-.264m-.528.158c0 .053.052.053.052.106m-.318-.211c.106-.106.212-.211.318-.264m17.584-11.465.159.106m17.69-11.518.159.158m-74.627 4.174a26.21 26.21 0 0 0-.158.158m.371-.791v.053m-8.156 5.705a.402.402 0 0 1-.212.106m-2.596-4.174a.401.401 0 0 1 .212-.106m2.382 4.332-.74.423m45.073-28.107-.16.159m-18.219 5.811.159-.158m2.647 3.803-.158.159m7.945-4.808c-.053.053-.106.106-.212.106m-2.542-4.068c.052-.053.105-.106.211-.106m8.581-4.65c-.265-.105-.583-.21-.848 0m.901.001c.106.053.212.106.264.159m-14.3 13.367c-.053.052-.106.052-.16.052M96.99 80.847v.053m-15.835 9.458v.053m54.712 8.981s.053 0 0 0m.37.054c.053.053.053.106.106.158m-.529-.212c.054 0 .054 0 0 0m-.212.054s0 .053 0 0m.529-.054c0 .053 0 .053 0 0m-.105.107c.053-.053.053-.053 0 0m-.212.316.318-.317m-.265.422.476-.264m-.529.159c0 .053.054.053.054.106m-.001-.001c.053 0 .053 0 0 0m-.741.053c0 .053-.053.053-.053.106" stroke="#262E31" stroke-width=".283" stroke-linecap="round" stroke-linejoin="round"/><path d="M135.125 99.974c.054 0 .054-.053.107-.053m.423-.106s-.053 0 0 0m.159-.475s0 .053 0 0m-.583.475s-.053 0 0 0m.9-.423c0 .053.054.053 0 0m-.211 0 .106.107m.105 0 .054-.053m-.53.316c.053 0 .106.053.159.053m-.53-.053-.053.053" stroke="#262E31" stroke-width=".283" stroke-linecap="round" stroke-linejoin="round"/><path d="M135.232 99.974c-.053 0-.053 0-.107-.053m.266-.106c-.053 0-.053-.053-.106-.053m.264-.052.265-.264m-.211.37c0-.053-.054-.053-.107-.106m-25.581 15.004s0 .052 0 0m.265-.423v.053m.157-.105c.054 0 .054.053.107.053m-.264 0c0-.054 0-.054 0 0m-2.279-2.749c-.158.106-.37.265-.476.423-.106.159-.212.37-.212.634m3.019 1.639c.053-.053.106 0 .106 0m2.384-.318-.159.317m-5.35-.951v-.686m2.224 1.373c-.265 0-.582 0-.847-.053m1.272-.422c-.053.052-.053.158-.053.211M78.294 89.248l.054-.053m-.054-1.003v-.053m31.144 25.836c.053 0 .159 0 .212.053m-.847-.635c.053.053.106.053.106.053.053 0 .106.052.159.052.105 0 .211.053.264.053.159 0 .371-.053.583-.105m-2.702-.845c0 .369.212.634.477.845.264.211.582.37.9.423M96.25 81.958l.741.528m-36.174 21.979v-.793m59.848 2.218c-1.906-.581-3.76-1.479-5.455-2.483-1.695-1.056-3.337-2.272-4.873-3.54m-.528 11.254-.107-.053m1.272 3.54-.106.053M80.89 90.992c.213-.159.265-.423.265-.634m-2.913-2.113v-.054m-.105.899c.053-.053.053-.106.106-.159m12.817 36.72c.052 0 .158 0 .21.053m-.847-.582c.053.053.106.053.106.053.053 0 .106 0 .16.053h.264c.159 0 .37-.053.53-.106m-2.702-.792c0 .37.212.634.477.845.265.212.583.37.9.423M78.93 90.57l-.158.105m-17.585 10.566c-.106-.264-.318-.581-.582-.739m18.75-10.514a1.462 1.462 0 0 0-.583-.687m50.581 17.276v.634m-26.695-17.434c.053 0 .053-.053.107-.053m-.372-.475a.4.4 0 0 0-.106.21m6.834-4.384c-.054 0-.054.053-.107.053m.476.263a.403.403 0 0 0-.106-.264c-.053-.053-.158-.105-.264-.053m-2.808 33.021a.93.93 0 0 1 .265.212c.053.053.106.158.159.264m18.591-30.749a3.925 3.925 0 0 0-.688-.951c-.159-.106-.318-.264-.477-.317-.159-.053-.371-.106-.582-.053m-10.858 24.145-5.455-11.465m-4.503-9.457a.402.402 0 0 1 .212-.105.397.397 0 0 1 .211-.106c.159-.106.265-.159.424-.264.265-.159.53-.37.848-.529.529-.37 1.112-.686 1.641-1.056a175.076 175.076 0 0 0 3.284-2.06m-.37-.477a.402.402 0 0 1-.212.106.402.402 0 0 1-.212.105c-.159.106-.265.159-.424.265-.265.158-.529.37-.847.528-.53.37-1.113.687-1.642 1.056-1.112.687-2.225 1.374-3.284 2.061m-17.266 69.688-47.562-32.968M75.647 84.07c0-.369-.106-.792-.371-1.109-.265-.317-.583-.528-1.006-.528-.371 0-.795.106-1.166.264-.37.159-.688.423-1.006.634-.583.529-1.112 1.163-1.43 1.85-.318.686-.636 1.479-.583 2.271M35.023 98.917a.637.637 0 0 0-.265.264c-.053.106-.106.212-.106.37m71.343-46.968L36.718 94.954M163.886 83.49l-48.145-30.907m-11.653 3.751.212.158m11.441-3.91c-.371-.211-.742-.475-1.112-.687-.212-.105-.371-.21-.583-.317-.212-.105-.424-.21-.635-.264a11.546 11.546 0 0 0-1.272-.37 10.332 10.332 0 0 0-1.324-.105c-.423 0-.847.053-1.324.105a11.53 11.53 0 0 0-1.271.37c-.847.317-1.536.74-2.33 1.215m-68.325 73.439c-.53-.37-1.112-.793-1.589-1.215-.212-.212-.476-.476-.635-.793a3.353 3.353 0 0 1-.318-.951m1.695-28.054c-.688.422-1.43.845-2.012 1.426a3.464 3.464 0 0 0-.795.951c-.212.37-.318.74-.265 1.163m38.611-10.304-.318-.528" stroke="#262E31" stroke-width=".283" stroke-linecap="round" stroke-linejoin="round"/><path d="M71.94 87.663a1.063 1.063 0 0 1-.16-.581V86.5c.053-.423.16-.793.318-1.163.159-.317.424-.687.794-.898.16-.106.371-.158.583-.106.106 0 .159.053.265.106.106.053.159.159.212.264m-1.536 3.541-.16-.053m2.755-1.638-.052.159m91.733-.052.053 24.461m-.053-24.462c0-.211 0-.37-.053-.528a3.64 3.64 0 0 0-.212-.529c-.159-.317-.423-.58-.688-.845-.53-.476-1.165-.898-1.801-1.268m2.806 27.633c0 .211 0 .37-.053.528-.053.159-.106.37-.211.528-.159.317-.424.582-.689.846-.53.475-1.218.898-1.801 1.321m-128.967 8.611-1.43-24.515m129.869-14.687c.265.211.583.37.847.581.265.211.583.423.795.634.265.211.476.476.688.793.159.317.265.634.265.95m-48.145 24.093s.053 0 0 0m.318.052s0 .053 0 0m.053.053c.053.053.053.106.106.159m-.689-.212c0 .053.053.053 0 0m.371.053c.053 0 .053 0 0 0m.105.053c0-.053 0-.053 0 0l.053-.053m-.37.317.318-.317m-.265.423.476-.265m-.529.16c0 .053.054.053.054.106m-.001-.001c.053.053.053.053 0 0m-.741.052c0 .054-.053.107-.053.107" stroke="#262E31" stroke-width=".283" stroke-linecap="round" stroke-linejoin="round"/><path d="M117.17 111.386c.053 0 .053-.053.106-.053" stroke="#262E31" stroke-width=".283" stroke-linecap="round" stroke-linejoin="round"/><path d="M117.276 111.439c-.053 0-.053 0-.106-.054m.53-.104c0-.054-.053-.054 0 0m-.424-.053c0 .053-.053.053 0 0m.9-.371c.053 0 .053 0 0 0m-.211-.052.106.106m-.371.263c.053 0 .106.053.159.053m-.53.001-.053.053m.16 0c-.053 0-.053-.053-.106-.053m.529-.37s.054 0 0 0c.054-.053.054-.053 0 0Zm0 0 .054-.053m-.319.37c.106-.106.212-.212.318-.265" stroke="#262E31" stroke-width=".283" stroke-linecap="round" stroke-linejoin="round"/><path d="M117.647 111.228c0-.053-.053-.053-.106-.106M68.708 82.644l.636 9.986m9.534 0-.16.159m-18.431 5.97.159-.159m2.702 3.803-.16.159m7.998-4.86a.402.402 0 0 1-.212.106m-2.543-4.122a.402.402 0 0 1 .212-.105m8.687-4.703.318.158M60.446 98.6l7.786-4.914m-8.104 5.654c0-.212.053-.423.159-.582m2.437 3.488.159-.158M60.446 98.6c.16-.105.424-.105.583-.053.212.053.37.159.582.265m17.425-6.816v.053m-18.96 7.344v-.053m17.001-10.462h.053m14.194 33.232 1.377-.898m1.165 2.642c.265.158.477.422.477.792m-3.019-1.901c0-.053 0-.053 0 0m-3.972 1.954h-.107m4.079-2.007v-.581m0 .053 2.542 1.69m52.382-32.544v.053m.053-.053c.053-.053.106 0 .159 0m2.278-.318-.159.317m-2.649-.739c-.053.052-.053.158-.053.21m-2.596-.422v-.687m2.225 1.321c.053 0 .159 0 .212.053m-32.255-23.88c.106-.053.212-.053.318-.053.106 0 .212.053.318.106m.424 3.328-.159.158m-18.008 5.759.158-.159m2.701 3.751a.73.73 0 0 1-.212.158m15.732-10.407v.053m-7.892 5.599c-.053.053-.106.106-.212.106m-2.543-4.067c.053-.053.106-.106.212-.106m-7.732 4.859c2.542-1.584 5.031-3.17 7.574-4.754m2.488 4.068-7.627 4.65m0 0c-.053.053-.106.053-.159.053m-2.648-3.17v-.053m0 0c0-.212.053-.423.212-.634m2.702 2.8v.054m-2.542-3.012a.77.77 0 0 1 .582-.053c.212.053.424.159.583.264m30.613 26.257-.053.054m.212-.054c.054 0 .054.054.107.054m-.266-.053s0-.053 0 0m-2.33-2.694c-.159.105-.371.264-.477.422-.105.159-.211.37-.211.581m3.07 1.638c.053-.053.106 0 .159 0m2.331-.317-.212.317m-5.297-.951v-.687m2.226 1.373c.053 0 .159 0 .212.053m.212-.528c-.053.053-.053.159-.053.212M113.41 67.217l.053-.053m-9.428-12.733c0-.053.053-.053.107-.053m1.27.898c0 .053 0 .053 0 0v.106m-1.429-.898.053-.053m.634 1.321s0 .052 0 0v.106m-1.429-.951.053-.053m-.001.001c0-.053.054-.053.107-.053m-.636.685c.053-.053.159-.053.264-.053.106 0 .159.053.265.106m.106-.739.318-.211m-1.059.686.318-.211m-.317.211-.107.106m1.643-.846c-.054 0-.054 0 0 0m.846 1.058s-.053 0 0 0m-.953-1.004.107-.054M139.68 96.75s0 .054.053.054m-.053-5.389 2.119-1.32m3.867-2.485 1.324-.845m1.217 2.535c.212.106.371.318.477.53m-3.018-1.586c0-.053 0-.053 0 0m-3.813 1.85h-.106m-2.12 1.374c0-.053 0-.053.053-.053m5.986-3.223v-.581m1.323-.846 3.867 2.483m-9.587 6.869s.053 0 0 0m4.397-8.454 2.542 1.638m-2.436-1.003-.106-.053m1.324 3.434-.053.053m-5.668 4.385c.053 0 .053 0 0 0m5.138-4.807c.053 0 .053.053.107.053m-36.812-38.728.265.158m18.431 50.193c.053 0 .106.052.159.105m13.878-7.291c-.053-.053-.106-.159-.159-.212-.053-.105-.053-.158-.053-.264m3.706-4.754s-.053 0 0 0m-4.925 6.128c-.053-.106-.106-.212-.106-.37m4.609-5.336c-.265 0-.583 0-.847-.053m.157-.475c.053.052.106.052.159.052.053 0 .106.053.159.053.106 0 .212.053.265.053.159 0 .424 0 .583-.106m-2.702-.845c0 .37.212.634.477.846.265.211.583.317.9.422m-16.788 11.518.424.317m-.001-.001c-.159-.158-.317-.37-.317-.581m.317.582-.211.37M109.756 52.74l-4.396 2.642m-1.695 1.638c-.159.053-.318 0-.477-.105" stroke="#262E31" stroke-width=".283" stroke-linecap="round" stroke-linejoin="round"/><path d="M103.241 56.967c-.053-.053-.107-.053-.107-.106m.425-.158a.161.161 0 0 1-.212 0m.795-2.377c.106-.106.265-.053.424 0 .106.053.265.158.371.264.211.211.37.423.476.687m-2.014-.476c.106-.106.318-.053.424 0 .106.053.265.158.371.264.212.212.371.423.477.687m-12.394 70.744c-.053-.053-.159-.106-.212-.159m-.052 0a.93.93 0 0 1 .265.212M67.65 111.543c0 .053 0 .159-.054.212m-.424-.528a.337.337 0 0 1 .318 0 .29.29 0 0 1 .159.264m50.21-.687 2.702-1.691m-2.385 1.744 2.437-1.585m21.928-14.159c-.053 0-.053 0 0 0M96.674 77.572v-.053m-18.38 15.587.795.528m15.466 28.847-5.56-11.782m24.945-39.73.741.528m24.947 22.4c-.265-.053-.53-.158-.795-.264-.265-.105-.53-.211-.794-.264-.53-.211-1.113-.423-1.642-.687-1.06-.475-2.066-1.056-3.072-1.69-1.96-1.216-3.814-2.695-5.509-4.28a47.972 47.972 0 0 1-4.713-5.125 52.509 52.509 0 0 1-3.973-5.706m-34.003 53.098c-2.012-.582-3.972-1.533-5.773-2.642a35.452 35.452 0 0 1-5.085-3.804m-26.958-15.902c.847-.529 1.695-1.057 2.542-1.638m96.448-13.42c.053 0 .106.053.159.106m-41.524 28.055a.978.978 0 0 1-.106-.37m-44.702-18.861.053-.054m46.131 18.386a1.149 1.149 0 0 1-.159-.264c-.053-.106-.053-.211-.106-.264m21.876-18.704-.107-.053m1.271 3.541-.053.053m-18.749 11.358c.053.053.106.053.159.106m-30.56-28.53-.37-10.091" stroke="#262E31" stroke-width=".283" stroke-linecap="round" stroke-linejoin="round"/><path d="m157.053 84.018-44.755-28.742" stroke="#262E31" stroke-width=".282" stroke-linecap="round" stroke-linejoin="round"/><path d="m83.485 83.86-.582-9.933m13.347 4.226.053-.053m-.213-.105c.053-.053.053-.106.106-.159M73.104 88.562c-.159.106-.318.211-.477.264m26.165-8.929c.212-.159.265-.423.265-.634m13.453-13.367-.212-10.62M60.076 99.499v-.107m42.795-43.429a.4.4 0 0 1 .106-.212m-.318.37c0-.105-.053-.211-.053-.317a.29.29 0 0 1 .159-.264m7.892 59.226c-.053-.052-.159-.105-.212-.158M74.217 89.565l-.265-.476m1.007-.581.264.423m16.26 33.919-.16-.106m1.22 3.593-.107.053m-.53-.158c.053.053.106.053.16.105m-17.637-4.331-2.384 1.532m13.03 10.671 1.906-1.215m2.647-1.69 33.474-21.345m6.145-3.963 30.825-19.654m2.541-1.638 1.113-.686M93.92 134.051c-.37.211-.742.476-1.112.687-.371.211-.742.423-1.165.581m72.242-43.217.053 22.243M74.853 88.562c-.212.106-.424.264-.636.37l-.318.158c-.053.053-.106.053-.159.106-.052 0-.052.053-.105.053h-.053m.899-1.48a2.856 2.856 0 0 1-.688.37 1.109 1.109 0 0 0-.318.21c-.053.054-.106.054-.159.106-.053 0-.106.053-.106.053h-.053m2.119-.263-.106.053c-.053 0-.053.052-.106.052a.402.402 0 0 1-.211.106m0-.951.423.687m-1.748 1.003-.424-.686m.001-.001c-.159-.052-.265-.052-.424-.105m2.33-1.427c-.052.159-.105.317-.158.529m-.001 0s-.106.053-.106.106c-.052 0-.052.052-.105.052-.053.053-.16.106-.212.159m21.98-9.616c.317.21.635.634.741 1.003M95.773 78.1c.106-.052.212-.052.318-.052.106 0 .212.052.318.105m7.044 36.297.159 5.284m.052.052.053.053m4.609-5.178-2.542-1.691" stroke="#262E31" stroke-width=".283" stroke-linecap="round" stroke-linejoin="round"/><path d="M110.867 114.662c-.37.211-.847.317-1.271.369-.423 0-.9-.105-1.271-.369m-4.607 5.177c.159.106.318.211.423.37m.689-.846c0-.053 0-.158.053-.211.053-.053.158-.053.211-.053.159.053.265.159.371.264m5.615-9.773 3.814 2.536m-.001-.001c.158.106.264.212.423.317.159.106.265.265.371.37m5.986-9.932.053 1.849m4.767-1.585-2.542-1.691m5.083 1.69c-.371.212-.847.317-1.271.317-.424 0-.901-.105-1.271-.317m2.649-5.071 3.867 2.536m-.001-.001c.159.106.265.212.424.317.158.106.264.212.37.37M91.06 126.337c-.266 0-.583 0-.848-.105m1.058-.529.477.317m.001 0c-.16-.159-.318-.37-.318-.634m.317.634-.212.423m-1.323-.158a2.024 2.024 0 0 1-.9-.423c-.265-.211-.477-.476-.477-.845m4.237-1.268c-.159-.317-.423-.529-.741-.687-.318-.159-.636-.212-.954-.264-.317-.053-.688 0-1.006.052-.318.053-.635.159-.9.37m4.713 2.695a1.604 1.604 0 0 1-.424.422c-.159.106-.37.106-.582.159-.424 0-.795-.159-1.113-.423m2.066-1.743c.16.159.265.37.318.634.053.211 0 .476-.106.687" stroke="#262E31" stroke-width=".283" stroke-linecap="round" stroke-linejoin="round"/><path d="M91.96 124.276c.105-.211.264-.317.476-.422.212-.106.424-.106.636-.106.423 0 .847.211 1.112.528m-2.754.952.53-.951m.106 1.797-.583.423m8.421-3.964c-.106.106-.265.158-.37.264m-.477.053c0 .053 0 .053.053.106m.106-.212v.107m.264-.053v.053m-.264-.107c.106-.105.212-.211.371-.317m.106-.052s-.053.053 0 0c-.053.053-.106.053-.106.053m.37.053s.054-.053.054 0m-.954.37.424-.37m16.207-50.457-15.836 9.827m.211 5.865c-.053.053-.106 0-.159-.053m-1.907-4.649-16.048 9.985m25.529-7.66 6.938-4.332M95.72 100.608c-.211-.264-.37-.581-.582-.898-.159-.317-.318-.634-.424-.951a7.032 7.032 0 0 1-.265-1.004c-.052-.317-.105-.687-.159-1.056m1.96-4.386 6.991-4.385m0 0a21.161 21.161 0 0 1-.9-1.427m0 .052 4.237-2.641m0 0c.317.475.582.95.9 1.426m-8.209 1.692c-.477-1.004-.9-2.06-1.324-3.065m-5.138 25.678c-3.654-3.329-6.832-7.344-9.428-11.518m-3.337-3.964-16.26 10.144m.848 5.76c.319.475.584.951.901 1.426m-5.774 3.593 1.43-.845m.001 0c-.318-.476-.636-.951-.9-1.427M81.366 98.23c-.477-1.004-.9-2.06-1.324-3.117m-.422-8.876 32.837-20.288M74.058 89.671l4.82-2.958m-31.885 19.706 26.323-16.272m24.099-11.253.159.105M60.552 99.763l-1.165-.74m20.233-8.928-.106-.106m-.054.051-.795-.528m-.422-.316-.106-.053m.581-.635-1.165-.74m19.332-8.294-.159.106m.689-.688-.795-.475m0-.95-1.165-.792m19.491-8.507-.424.264m-1.959-2.483h-.106m-51.693 35.927-.212.106m.9-.635-.158-.053m-.001 0-.9-.581m20.073-10.988-.053-.054m-18.484 11.465-.053-.053m36.175-22.296-.106-.053m-17.85 11.148-.053-.053m-17.425 11.624.265 2.113m16.42-13.262-.424.212m1.907-.317.264 2.06m16.206-13.102-.423.264m1.854-.316.265 2.06m35.644 19.02-.53-.37m.425-.264-.318-.21m-18.431-11.254 8.792-2.167m0 0c.212-.052.37 0 .582.106l.477.317c.265.264.53.581.741.898m-.053 0 6.621 11.835m-2.277-.053-5.296-11.201m-1.749-1.321-9.639 2.695m-.425.434-3.23 10.238m5.827 11.36.529.369M97.786 99.34l8.739-2.06m0 0a.738.738 0 0 1 .583.105l.477.317c.264.264.529.581.741.898m-.053 0 6.673 11.888m1.589.475-.318-.212m-8.95-11.571a3.957 3.957 0 0 0-.689-.95c-.159-.106-.317-.265-.476-.317-.159-.053-.371-.106-.583-.053m.053 0-9.64 2.589m-.37.476-2.278 7.026m5.137 15.269-.53-.37m.424-.264-.318-.211m-18.431-11.623 8.686-2.008m10.064 14.424v-.582M83.38 98.125l-.16-1.85m9.216 14.847.847-3.17m-11.069-13.42c.265.211.53.475.688.74.16.264.318.634.318.95m-22.139 5.337-.423.264m1.165-.74-.424.264m25.847 8.031-9.534 2.536m0 0c-.053 0-.106.053-.159.053m-.213.37-2.224 7.08m.001-.001-.848 3.17m9.164-27.367a56.431 56.431 0 0 0 4.873 7.291m-.266.159a56.43 56.43 0 0 1-4.872-7.291m-.001-.001c-.106-.21-.264-.37-.423-.528m31.672-26.259.159-.105m-.794 20.764 1.801-1.11m-1.802 1.11c-.158.105-.211.21-.264.37m-13.506-7.715 1.271.846m1.06 1.532.424 1.638M82.108 93l1.271.845m1.06 1.585.477 1.638m10.91 3.487 1.8-1.163m-1.799 1.163c-.16.106-.212.212-.265.37m-11.758-6.71c.212.211.423.475.53.792m-18.009 11.73.423 1.637m10.858 3.593 1.854-1.162m-1.853 1.161c-.16.106-.212.212-.265.37m21.821 10.197.159.106m47.349-30.801c-.053-.053-.159-.106-.212-.159" stroke="#262E31" stroke-width=".283" stroke-linecap="round" stroke-linejoin="round"/><path d="M146.459 91.679c.106.053.159.106.265.159m-87.549 8.452c.477.317.9.846 1.166 1.374.158.264.264.528.37.845.106.264.16.581.106.898m-1.642-3.117a1.982 1.982 0 0 0-.583-.264c-.212-.053-.423-.053-.582.053m2.86 3.329c0 .212-.053.423-.159.582m-.213.105c-2.595 1.638-5.19 3.328-7.838 4.966m-2.543-4.174 7.892-4.808m2.172.37c.053-.053.159-.053.265 0 .053 0 .159.053.212.105m.847-.739c.212.106.37.317.477.529l.317.634m-1.429-1.269c.105-.053.211-.053.317-.053.106 0 .212.053.318.158m-1.429.424.794-.528m17.478-10.514c.053-.053.159-.053.265 0 .053 0 .159.053.212.105m.846-.739c.212.106.371.317.477.475l.318.634m-1.43-1.215c.106-.053.212-.053.317-.053.106 0 .212.053.318.158m-1.429.424.795-.529m.741-.899c.265.212.53.476.742.74.212.264.424.581.582.898.16.317.265.634.318 1.004.053.317.053.74-.159 1.004m14.141-13.261c.477.317.848.792 1.113 1.268.159.264.264.528.37.792.106.265.16.582.106.846m-17.213 7.027c-.106-.106-.265-.159-.424-.212a.737.737 0 0 0-.477 0 .477.477 0 0 0-.317.317c-.053.159-.106.317-.106.423M96.991 80.9c0 .212-.053.423-.212.635m-.106.158c-2.542 1.585-5.084 3.223-7.627 4.808m-2.542-4.121 7.68-4.65m-15.571 9.616c2.542-1.638 5.084-3.223 7.68-4.86" stroke="#262E31" stroke-width=".283" stroke-linecap="round" stroke-linejoin="round"/><path d="M78.613 87.346c.159-.106.424-.106.582-.053.212.053.371.158.583.264m9.057-.95-7.733 4.702m-2.808-3.171c0-.211.053-.422.16-.58m2.701 2.852c0-.264-.053-.528-.106-.74a2 2 0 0 0-.318-.686 2.887 2.887 0 0 0-1.006-1.11m37.287 23.67c.106-.053.212-.053.318-.053.106 0 .212.053.318.106m-1.431.475.795-.529m4.713-2.218v1.373m.001-2.007c-.318-.211-.636-.475-.848-.845-.212-.317-.371-.687-.371-1.109m1.219 3.962c-.318-.212-.636-.476-.848-.846-.212-.317-.371-.686-.371-1.109m1.218.581c.636.423 1.43.687 2.172.793.741.105 1.536.105 2.277-.053.742-.159 1.483-.423 2.119-.898.317-.212.582-.529.794-.846.212-.317.318-.687.318-1.109m-8.898 1.532-.053-2.007m0-.001c0-.581.265-1.109.636-1.532.37-.423.9-.74 1.43-.951" stroke="#262E31" stroke-width=".283" stroke-linecap="round" stroke-linejoin="round"/><path d="M129.353 106.577c0 .37-.106.74-.318 1.11-.212.317-.477.634-.795.845-.635.476-1.377.74-2.118.898-.742.159-1.536.159-2.278.053-.741-.105-1.536-.37-2.171-.792m5.509-4.544c-1.43-.528-3.178-.475-4.608.106" stroke="#262E31" stroke-width=".283" stroke-linecap="round" stroke-linejoin="round"/><path d="M127.181 104.147c.317.106.635.264.9.475M78.454 89.3c.317.212.635.635.741 1.005m-1.377-1.057c.106-.053.212-.053.318-.053.106 0 .212.053.317.159m57.573 10.144c-.106.106-.265.158-.371.264m-.476.105c0 .053 0 .053.053.107m.158-.264v.106m.16-.106h-.106m.211.052v.053m-.265-.105c.106-.106.212-.211.371-.264m.053-.054a.164.164 0 0 1-.106.053m.106 0s0-.053 0 0c.054-.053.054-.053 0 0Zm0 0 .054-.053m.263 0 3.814-2.43m-3.865 2.483.053-.053m-.902.424.371-.37m-25.9 14.581.477.317m0 0c-.159-.159-.318-.37-.318-.634m.318.634-.264.37m-1.271-.159a2.015 2.015 0 0 1-.901-.423c-.265-.211-.476-.475-.476-.845m4.183-1.215a1.254 1.254 0 0 0-.741-.634c-.318-.159-.636-.211-.954-.264-.317-.053-.688 0-1.006.053-.318.052-.636.158-.9.369m4.714 2.643a1.602 1.602 0 0 1-.423.422c-.159.106-.371.106-.583.106-.371 0-.794-.159-1.112-.423m2.064-1.743c.159.158.265.369.318.634.053.211 0 .475-.106.686m-2.33-1.321c.106-.211.265-.317.477-.422.212-.106.423-.106.635-.106.424 0 .848.211 1.113.528m-2.755.899.53-.898m.106 1.795-.582.37m-.795-14.634 1.324-.845m-1.059-13.684a.4.4 0 0 0 .106-.211m-7.204 4.068c0 .106.053.211.106.264.053.053.159.106.265.053m7.787 24.831c.106.053.159.106.265.211M82.902 73.927l-14.194 8.718m43.59-27.368.477-1.48m0 .001-75.21 46.176m121.13-14.53-30.349 19.337m-7.627 4.861-32.468 20.711M43.18 93.951l-8.157 4.967m-.106 1.055 49.734 34.025m-.001.001c.689.475 1.377.951 2.172 1.268.794.37 1.589.528 2.436.528.424 0 .848-.053 1.271-.106.424-.105.795-.211 1.219-.369.794-.317 1.483-.74 2.224-1.216M36.188 101.4l48.039 32.862m10.275.001 69.33-44.38m-.265-.371-69.595 44.539m69.861-44.169c.582-.37 1.271-.793 1.8-1.32.265-.265.53-.53.689-.846a1.58 1.58 0 0 0 .212-.528c.053-.159.053-.37.053-.529" stroke="#262E31" stroke-width=".283" stroke-linecap="round" stroke-linejoin="round"/><path d="M84.227 134.262c.37.265.741.529 1.165.74.212.106.37.211.582.317l.636.317c.424.159.847.317 1.324.423.212.053.477.053.689.105.211 0 .476.053.688 0a6.1 6.1 0 0 0 1.377-.158c.477-.106.9-.211 1.324-.423.9-.37 1.642-.845 2.437-1.321M75.646 84.123c-.053.793-.37 1.585-.741 2.272m-2.225 2.431c-.265.105-.53.211-.847.264-.318.053-.583 0-.9-.106a1.824 1.824 0 0 1-.636-.634c-.106-.264-.212-.581-.212-.845m3.813-2.905 1.113 1.954m-2.595 1.69h.106c.053 0 .106-.052.159-.105.106-.053.159-.106.265-.106.159-.106.317-.158.476-.264a9.37 9.37 0 0 0 .954-.581m.582-.475s-.106.105-.159.105c-.053.053-.106.053-.159.106-.105.053-.211.158-.317.211M34.652 99.55c0 .212.16.317.265.423" stroke="#262E31" stroke-width=".283" stroke-linecap="round" stroke-linejoin="round"/><path d="M33.593 98.44c0 .37.106.635.318.952.158.264.423.528.635.792.477.476 1.06.846 1.59 1.216m129.973-14.74c0 .316-.106.633-.265.95-.159.264-.424.528-.635.74-.477.422-1.06.792-1.589 1.162M97.309 78.84a1.716 1.716 0 0 0-.53-.687m-.476-.053c.053-.052.16-.052.265-.052.106 0 .159.052.212.105m.794-.686c.212.106.371.317.477.475.106.212.212.423.265.634M96.99 77.36c.107-.052.213-.052.319-.052.105 0 .211.052.317.105m-1.43.424.795-.476m21.08 33.549c-.106.106-.265.159-.371.265m-.476.105c0 .053 0 .053.053.106m.158-.212v.106m.16-.106h-.106m.211 0v.053m-.265-.052c.106-.106.212-.212.371-.265m.106-.105c-.053 0-.053 0 0 0-.053.053-.106.053-.106.053m.318-.001h.053m-.901.37.371-.317m11.176-7.66c-.053-.053-.159-.106-.212-.159" stroke="#262E31" stroke-width=".283" stroke-linecap="round" stroke-linejoin="round"/><path d="M128.558 103.038c.106.052.159.105.264.211M61.61 98.811c.265.212.53.476.742.74.212.264.424.581.583.898.158.317.264.634.317 1.004a.9.9 0 0 1 0 .529c0 .158-.053.369-.159.475" stroke="#262E31" stroke-width=".283" stroke-linecap="round" stroke-linejoin="round"/><path d="M62.83 102.087c.105-.106.105-.317.159-.476m14.458-12.574c.477.317.9.793 1.165 1.268.16.264.265.528.371.793.106.264.16.58.106.845m-17.478 7.185c-.106-.106-.265-.159-.423-.211a.736.736 0 0 0-.477 0 .477.477 0 0 0-.318.317c-.053.158-.106.317-.106.422m18.75-7.608c0 .211-.053.423-.16.581m-.159.211c-2.595 1.638-5.137 3.276-7.733 4.914M68.39 93.58l7.84-4.754m.847.053c-.265-.106-.583-.159-.847 0m-5.456 8.981-7.839 4.755m.054-1.004v.053" stroke="#262E31" stroke-width=".283" stroke-linecap="round" stroke-linejoin="round"/><path d="M62.988 101.665a3.11 3.11 0 0 0-.106-.74 1.641 1.641 0 0 0-.318-.687 2.888 2.888 0 0 0-1.006-1.11m37.234 24.04c.106-.053.212-.053.318-.053.106 0 .212.053.318.106m-1.431.475.794-.529m36.175-23.035c.106-.053.212-.053.318-.053.106 0 .211.053.317.106m-1.429.423.795-.476M89.895 126.39l-2.542-1.691m5.083 1.691c-.37.264-.848.369-1.271.369-.424 0-.9-.105-1.271-.369m2.806-5.178 3.867 2.589m.001.001c.159.105.265.211.424.317.158.105.264.264.37.369m48.409-33.444.477.317m0 .001c-.158-.158-.317-.37-.317-.581m.317.581-.265.422m-1.271-.158a2.01 2.01 0 0 1-.9-.423c-.265-.211-.477-.475-.477-.845m4.078-1.215c-.159-.264-.423-.476-.741-.634-.265-.159-.636-.212-.954-.264-.317-.053-.635 0-.953.052a2.609 2.609 0 0 0-.9.317m.053.054a3.428 3.428 0 0 0-.477.422c-.106.159-.212.37-.212.582m5.349 1.638c-.106.158-.265.317-.423.37-.159.105-.371.105-.583.105-.371 0-.794-.158-1.059-.423m2.012-1.691c.159.159.265.37.318.634.053.212 0 .476-.106.687" stroke="#262E31" stroke-width=".283" stroke-linecap="round" stroke-linejoin="round"/><path d="M146.459 89.618a1.25 1.25 0 0 1 .477-.423c.212-.106.371-.106.583-.106.423.053.794.212 1.059.529m-2.647.951.529-.951m.106 1.797-.583.37M114.099 67.27c.318.21.636.633.742 1.003m-17.109 8.19c.265.212.53.423.742.687.212.264.424.581.53.898.158.317.264.634.317 1.004.053.317.053.74-.159 1.004m13.983-13.104c.477.317.847.793 1.112 1.268.159.265.265.529.318.793a1.5 1.5 0 0 1 .106.845m.053.002c0 .21-.053.475-.212.633m-.159.211a914.57 914.57 0 0 1-7.521 4.755m-2.542-4.068 7.627-4.596m.9 0c-.159-.053-.318-.106-.477-.106-.159 0-.318 0-.476.106" stroke="#262E31" stroke-width=".283" stroke-linecap="round" stroke-linejoin="round"/><path d="M99.11 79.263c0-.264-.053-.476-.106-.74a2 2 0 0 0-.318-.687 3.229 3.229 0 0 0-.954-1.11m29.872 26.364c-.265 0-.583 0-.848-.052m.848-.634c-.265 0-.583 0-.848-.053m0 .634a2.027 2.027 0 0 1-.9-.423c-.265-.211-.477-.475-.477-.845m4.185-1.215c-.159-.265-.424-.476-.742-.634-.318-.159-.635-.212-.953-.265-.318-.052-.636 0-.953.053-.318.053-.636.159-.901.37m4.662 2.642c-.106.159-.265.317-.424.37-.159.106-.371.106-.582.106-.371 0-.795-.159-1.06-.423m2.065-1.638c.159.158.265.369.318.634.053.211 0 .475-.106.686m-2.383-1.373c.106-.158.265-.317.477-.423.212-.105.424-.105.583-.105.423.053.794.211 1.059.528m-2.596.898.477-.898m-1.589.793c.053.052.053.052 0 0a.166.166 0 0 0 .106.052c.053 0 .106.053.159.053.106 0 .212.053.265.053.159 0 .37-.053.582-.106m.636.951-.582.37m-2.703-2.166c0 .37.212.634.477.846.265.211.583.317.9.422m-22.668-45.965-.159-.053m-.688-.74c.265.159.424.423.53.687a.992.992 0 0 1 .106.423c0 .052 0 .158-.053.21-.053.054-.053.107-.159.16m6.091-4.28a2.215 2.215 0 0 0-.477-.74c-.106-.105-.212-.21-.371-.264-.159-.052-.318-.105-.424 0m-4.184 4.333-.371.21m1.113-.685-.424.264m.371-.318c-.106-.264-.265-.528-.477-.686-.106-.106-.212-.212-.371-.264-.105-.053-.264-.106-.423 0" stroke="#262E31" stroke-width=".283" stroke-linecap="round" stroke-linejoin="round"/><path d="M103.929 56.28a2.212 2.212 0 0 0-.476-.74c-.106-.105-.212-.211-.371-.264-.106-.053-.318-.106-.424 0m.901 1.427s.053-.053 0 0a.163.163 0 0 0 .053-.106v-.106c0-.105-.053-.158-.106-.264a.744.744 0 0 0-.318-.37m.954-1.532 4.29-2.642m31.195 39.785.053 5.283m.054.052.053.053m4.607-5.124-2.542-1.638m5.085 1.637a2.67 2.67 0 0 1-1.271.317c-.424 0-.901-.106-1.271-.317m-4.609 5.125c.159.106.318.212.424.37m1.959-1.955c0-.158.106-.264.265-.211m-1.536 1.32c0-.052 0-.158.053-.21.053-.053.159-.053.212-.053.159.052.265.158.371.264m.954-1.268a.413.413 0 0 1 .212.211c.053.053.106.159.159.264m-82.626 5.019c.318.212.636.634.742 1.004m-1.324-1.109c.106-.053.212-.053.318-.053.106 0 .212.053.318.159m37.287 23.299c.106-.053.212-.053.318-.053.106 0 .212.053.318.105m-30.613-12.204c-.053.053-.053.053-.107.053m0 0a.402.402 0 0 1-.211.106.402.402 0 0 1-.212.106c-.16.105-.265.158-.424.264-.265.158-.53.317-.794.528-.53.317-1.113.687-1.642 1.004-1.113.687-2.172 1.374-3.284 2.061m-.583-.37c.054-.053.16-.106.213-.158.053-.053.159-.106.212-.159.158-.106.264-.158.423-.264.265-.159.583-.37.848-.528.582-.37 1.112-.687 1.694-1.057 1.113-.687 2.278-1.427 3.39-2.113m11.705 18.597h-.106m35.592-81.787c.053-.37.105-.74.211-1.11.053-.37.159-.74.265-1.11a8.36 8.36 0 0 1 .371-1.056 8.11 8.11 0 0 1 .424-1.004c.159-.317.317-.634.476-.898a8.07 8.07 0 0 1 .583-.845c.212-.264.424-.529.636-.74.211-.211.476-.423.688-.634.53-.423 1.059-.792 1.642-1.057a6.52 6.52 0 0 1 .9-.37l.954-.316c.317-.106.688-.159 1.006-.212.371-.053.742-.053 1.059-.105.742-.053 1.536 0 2.278.105.318.053.635.106.9.159.318.053.636.158.954.211.317.106.635.159.953.264l.953.317a28.048 28.048 0 0 1 4.026 1.902c.264.159.582.317.847.529.265.158.583.37.847.528.265.211.583.37.848.581.265.211.582.423.847.634.265.211.583.423.848.634.264.211.582.423.847.687.265.211.583.475.848.687.264.264.529.475.847.74 1.006.95 2.013 1.901 2.966 2.905l1.43 1.585c.477.529.9 1.11 1.377 1.638.847 1.11 1.695 2.22 2.489 3.381.371.582.795 1.163 1.166 1.744.37.581.741 1.162 1.059 1.796.371.634.688 1.215 1.059 1.85l.953 1.901c.318.634.583 1.268.901 1.902l.794 1.902c.159.37.265.687.371 1.057.106.317.265.687.371 1.004.106.317.212.687.318 1.004.106.317.211.687.317 1.004.106.317.212.686.265 1.003.106.317.159.634.265 1.004.159.634.265 1.321.424 1.955m.477 4.756s0 .052 0 0M40.425 87.77l78.493-47.815m38.452 40.048-78.546 49.822" stroke="#262E31" stroke-width=".283" stroke-linecap="round" stroke-linejoin="round"/><path d="M118.918 39.955c.477-.317 1.006-.528 1.536-.74a6.136 6.136 0 0 1 1.695-.422 11.224 11.224 0 0 1 3.76 0 17.45 17.45 0 0 1 3.284.792c.265.106.583.212.847.317.265.106.583.212.848.37.582.264 1.165.528 1.748.845.265.106.476.265.741.423.265.159.477.264.742.423.265.158.476.317.741.475.265.159.477.317.742.476.265.158.476.317.741.528.265.159.477.37.742.529.529.37 1.006.792 1.483 1.162.423.37.9.74 1.324 1.11.424.37.9.792 1.324 1.215l1.271 1.267c.424.423.847.899 1.271 1.374.212.212.371.423.583.687.212.211.371.423.582.687.371.475.742.898 1.166 1.373.741.952 1.483 1.903 2.171 2.906.689 1.004 1.324 2.008 1.96 3.012.318.528.635 1.004.9 1.532.318.528.583 1.057.848 1.585.264.528.582 1.11.847 1.638.265.528.53 1.11.742 1.638.476 1.056.953 2.166 1.324 3.275a39.408 39.408 0 0 1 1.906 6.921m.107.001c.265 1.532.424 3.064.53 4.596M35.712 96.063a15.082 15.082 0 0 1 1.43-4.702 8.94 8.94 0 0 1 1.377-2.007 6.933 6.933 0 0 1 1.907-1.585" stroke="#262E31" stroke-width=".283" stroke-linecap="round" stroke-linejoin="round"/><path d="M124.003 38.528c.635 0 1.271.053 1.906.159 1.06.158 2.172.422 3.337.792.265.106.583.212.848.317.264.106.582.212.847.37.583.264 1.165.529 1.748.846.265.105.476.264.741.422.265.159.477.264.742.423.265.158.476.317.741.475.265.159.477.317.742.476.265.158.476.317.741.528.265.159.477.37.742.529l.794.633c.212.159.477.37.689.529.423.37.9.74 1.324 1.11.424.37.9.792 1.324 1.215l1.271 1.268c.424.422.848.898 1.271 1.373.212.212.371.423.583.687.212.211.371.423.582.687.371.475.795.898 1.166 1.373.741.951 1.483 1.902 2.171 2.906.689 1.004 1.377 2.008 1.96 3.012.318.528.635 1.056.9 1.532.318.528.583 1.057.848 1.585s.582 1.11.847 1.638c.265.528.53 1.11.795 1.638.476 1.11.953 2.219 1.324 3.275a46.878 46.878 0 0 1 1.906 6.922c.212 1.268.371 2.536.477 3.91l6.515 4.173.053.053c.582.37 1.218.792 1.747 1.268.318.264.53.581.742.845.106.159.159.317.212.529.053.21.106.37.106.58l.053 24.463c0 .211 0 .369-.053.581-.053.158-.106.37-.212.528-.159.264-.424.581-.742.898-.529.476-1.165.898-1.747 1.268l-.053.053-68.642 44.591c-.689.476-1.377.899-2.172 1.216l-.741.475c-.053.053-.159.053-.212.106l-.053.053a4.34 4.34 0 0 1-1.854.422h-.053c-.423 0-.794-.053-1.165-.158-.424-.106-.741-.317-1.06-.529-.158-.052-.37-.105-.529-.211l-.635-.317c-.212-.106-.371-.211-.583-.317-.37-.264-.794-.528-1.165-.74L37.512 126.02l-.053-.052c-.53-.37-1.112-.74-1.589-1.216a4.168 4.168 0 0 1-.635-.792 1.737 1.737 0 0 1-.318-1.004L33.54 98.441c0-.422.106-.845.318-1.215.159-.317.476-.634.794-.95a5.04 5.04 0 0 1 1.06-.793c.105-.529.211-1.057.37-1.532 0-.053 0-.106.053-.106.053-.159.106-.317.159-.423l.318-.95c1.377-3.488 3.76-5.126 5.72-5.865l76.533-46.758c.477-.317 1.006-.528 1.536-.74a6.14 6.14 0 0 1 1.695-.422 10.711 10.711 0 0 1 1.907-.159Zm0-.528c-.689 0-1.324.053-1.96.158-.636.106-1.218.265-1.801.476-.529.211-1.006.423-1.483.687l-.053.053-.053.052-.159.106-76.427 46.546c-1.907.74-4.502 2.43-5.985 6.13-.106.316-.265.633-.37 1.003l-.16.475v.159c-.105.423-.211.898-.317 1.374-.371.264-.689.475-.954.74-.37.37-.688.739-.9 1.109-.265.475-.424 1.004-.37 1.532l1.376 24.515c0 .422.16.845.371 1.215.159.317.424.634.741.898.477.475 1.113.898 1.642 1.268l.053.053 47.562 33.021.106.052c.318.212.689.476 1.06.74.211.106.423.264.635.37.212.106.477.211.689.317l.476.158c.318.265.689.423 1.165.582.424.105.848.211 1.325.211h.105a4.73 4.73 0 0 0 2.066-.476.4.4 0 0 0 .212-.105c.053-.053.106-.053.212-.106l.741-.475c.795-.37 1.43-.793 2.172-1.268l68.641-44.592.053-.053c.583-.369 1.271-.845 1.854-1.373.371-.317.636-.687.795-1.004.105-.211.211-.423.264-.634a3.11 3.11 0 0 0 .106-.74l-.053-24.462c0-.264-.053-.475-.106-.686-.053-.212-.159-.423-.264-.634a10.843 10.843 0 0 0-.795-1.004c-.53-.529-1.218-.951-1.801-1.321l-.053-.053L158.059 79a36.953 36.953 0 0 0-.477-3.699 46.365 46.365 0 0 0-1.907-7.026c-.423-1.11-.847-2.22-1.377-3.329a47.929 47.929 0 0 0-.794-1.638c-.265-.528-.53-1.11-.848-1.638-.265-.528-.582-1.056-.847-1.585-.318-.528-.636-1.056-.901-1.585a101.114 101.114 0 0 0-2.012-3.064 60.718 60.718 0 0 0-2.172-2.959c-.37-.475-.741-.95-1.165-1.426-.212-.211-.371-.476-.583-.687-.211-.211-.37-.423-.582-.687-.424-.475-.848-.898-1.271-1.373-.424-.423-.848-.899-1.324-1.321a27.638 27.638 0 0 0-1.325-1.215c-.423-.37-.9-.793-1.324-1.163-.159-.105-.264-.211-.423-.37a.929.929 0 0 1-.265-.211l-.053-.053-.265-.211c-.159-.159-.371-.264-.53-.423-.264-.211-.529-.37-.741-.528-.265-.159-.53-.37-.742-.529a9.195 9.195 0 0 1-.741-.475c-.265-.159-.53-.317-.742-.476a12.027 12.027 0 0 0-.741-.422c-.265-.159-.477-.264-.742-.423-.582-.317-1.218-.634-1.8-.845-.318-.106-.583-.264-.901-.37-.318-.106-.582-.211-.9-.317a17.21 17.21 0 0 0-3.443-.845c-.847-.053-1.483-.106-2.118-.106Z" fill="#262E31"/><path opacity=".2" d="m113.41 107.952-1.483.951.848 1.69.9.634 1.165-.792-1.43-2.483Zm11.917-6.235v-.687c0-.211.053-.423.212-.634a.408.408 0 0 1 .212-.211l-7.468 4.755c.795.369 1.589.634 2.384.898.106-.264.317-.476.476-.634.159-.159.371-.317.583-.476l-.053-1.796c0-.053.053-.106.053-.159l2.171-1.373c.053-.053.106-.053.159 0l1.642 1.056a.92.92 0 0 1-.371-.739Z" fill="#F8F8F8"/><path opacity=".2" d="M127.764 103.407c.317 0 .635-.052.9-.158l-.106-.106c-.053 0-.053-.053-.106-.053l-.318.212h-.053s-.053 0-.053-.053v-.106l.212-.317-.424-.264c-.052-.053-.105-.053-.158-.053h-.159c-.265 0-.477-.053-.742-.105-.371-.106-.688-.212-.953-.423-.159-.106-.265-.264-.371-.37v.159a.95.95 0 0 0 .477.792c.212.159.529.317.9.423.265.053.53.105.848.053.053 0 .053.052.053.052 0 .053-.053.053-.053.053h-.159c-.265 0-.477-.053-.742-.105-.159-.053-.265-.106-.424-.159l.212.106c.318.264.742.422 1.219.422Zm2.065-5.864-3.549 2.272a2.99 2.99 0 0 1 .636-.212c.265-.052.529-.052.794-.052v-.582c0-.052 0-.052.053-.105l1.324-.846h.106l1.218.793-.582-1.268Zm.794 3.593c-.265-.317-.636-.476-1.006-.529-.212 0-.424 0-.583.106-.159.106-.318.211-.424.37l-.529.898c-.053.053-.053.106 0 .159 0 .211.159.369.265.475l.053-.053c.052 0 .105-.053.211 0 .053 0 .053.053.106.053.265.264.636.37 1.007.37.211 0 .37-.053.529-.106.159-.105.318-.211.424-.37l.159-.317a.861.861 0 0 0 .106-.634c-.106-.052-.159-.264-.318-.422Zm-17.955 12.733c.106-.211.159-.423.106-.634a1.947 1.947 0 0 0-.265-.581c-.265-.317-.636-.476-1.059-.529-.212 0-.424 0-.583.106-.159.106-.318.211-.424.37l-.529.898c-.053.053-.053.106 0 .159 0 .211.159.369.265.475l.053-.053c.052 0 .105-.053.211 0 .053 0 .053.053.106.053.265.264.689.37 1.06.37.211 0 .37-.053.529-.106.159-.105.318-.211.424-.37l.106-.158Zm-3.071 1.056c.317 0 .635-.052.953-.158-.053-.053-.106-.053-.106-.106-.053 0-.053-.053-.106-.053l-.318.212h-.053s-.053 0-.053-.053v-.053s0-.053.053-.053l.212-.317-.424-.264c-.053-.053-.105-.053-.158-.053h-.159c-.265 0-.477-.053-.742-.105-.371-.106-.688-.212-.953-.423-.159-.106-.265-.264-.371-.37v.159c0 .317.159.581.477.792.212.159.529.317.9.423.053 0 .053.053.053.105 0 .053-.053.053-.053.053l-.477-.158.212.158c.212.159.636.264 1.113.264Zm21.821-18.385-1.483.95.741 1.48 1.059.74 1.06-.688-1.377-2.483Zm-19.597 12.468-3.707 2.324c.212-.105.423-.158.635-.211.265-.053.583-.053.848-.053v-.581c0-.053 0-.053.053-.106l1.324-.845h.106l1.43.951-.689-1.479Z" fill="#F8F8F8"/><path opacity=".3" d="M107.16 113.287v-.687c0-.211.053-.475.212-.687a.941.941 0 0 1 .212-.264l-7.204 4.597c1.06.475 2.119.845 3.125 1.109l-.106-2.958c0-.053.053-.106.053-.159l2.172-1.374c.053-.052.106-.052.159 0l1.695 1.11c-.212-.159-.318-.423-.318-.687Z" fill="#ACACAC"/><path opacity=".2" d="M72.468 88.139c.053 0 .106-.053.159-.106.106-.053.159-.106.265-.106.159-.105.318-.158.477-.264.37-.211.688-.37.953-.58.106-.054.212-.107.318-.212.053-.053.106-.053.159-.106.105-.053.105-.106.105-.106l.053-.105-1.112-1.902a.413.413 0 0 0-.212-.212.402.402 0 0 0-.212-.105c-.211-.053-.423.053-.53.105-.37.212-.635.634-.74.898a4.38 4.38 0 0 0-.319 1.11v.581c.053.212.106.423.16.529l.317.528.16.053c-.054 0-.054 0 0 0Zm62.286 11.254c.106.052.265.105.371.158l.159.106.212-.212v-.052h.053l4.025-2.59v-.052l-.053-2.747c-.265-.053-.529-.159-.794-.212-.265-.105-.53-.158-.848-.264a8.21 8.21 0 0 1-1.006-.422l-5.402 3.434 1.43 2.536.794.528.371-.264h.106l.159.105c.159-.105.265-.105.423-.052ZM73.9 89.037l.317-.158c.212-.106.424-.265.636-.37a.402.402 0 0 1 .212-.106c.053 0 .053-.053.106-.053l.053-.053v-.052l-.371-.634-.053.052c-.053 0-.053.053-.106.053-.053.053-.159.106-.212.159-.212.105-.424.264-.689.37a1.108 1.108 0 0 0-.317.21c-.053.054-.106.054-.16.107-.052 0-.052.052-.105.052l.37.582h.054c.053 0 .053-.053.106-.053.052-.053.106-.106.159-.106Zm.846-1.532c.053 0 .053-.053.053-.053l.106-.476v-.105s-.053 0-.053.052c-.053.053-.106.053-.159.106-.106.053-.212.159-.318.211-.318.212-.635.37-.953.582-.159.105-.318.158-.477.264-.106.053-.159.105-.265.105-.053 0-.106.053-.159.053v.053c.053 0 .106.053.16.053l.37.106c.053 0 .106-.053.106-.053.053-.053.106-.053.159-.106.106-.053.212-.106.318-.211.212-.106.476-.264.688-.37.053-.053.16-.106.212-.159.159 0 .159-.052.212-.052Zm.159 1.109c-.212.159-.424.264-.636.37a.405.405 0 0 1-.265.106l.212.37.848-.529-.16-.317Z" fill="#F8F8F8"/><path opacity=".2" d="M72.681 88.456c-.053 0-.159-.053-.212-.053h-.053l-.053-.106-.159-.053s-.053 0-.053-.053l-.317-.528c-.106-.159-.16-.37-.212-.581 0-.211-.053-.423 0-.634a3 3 0 0 1 .37-1.162 2.11 2.11 0 0 1 .795-.951 1.41 1.41 0 0 1 .635-.159c.106 0 .212.053.265.106.106.053.16.158.212.264l.954 1.638c.37-.74.635-1.48.635-2.114v-.052c0-.423-.106-.793-.318-1.057-.212-.317-.582-.476-.953-.476-.318 0-.689.053-1.112.264a4.97 4.97 0 0 0-.954.635c-.582.475-1.059 1.109-1.43 1.849-.212.422-.582 1.32-.582 2.219 0 .317.053.58.212.845.158.264.317.475.582.581.265.106.53.159.848.106.264-.053.53-.106.847-.264a1.11 1.11 0 0 0 .318-.212l-.265-.052Zm72.984 3.54c.318 0 .636-.053.901-.159l-.106-.106c-.053 0-.053-.052-.106-.052l-.318.211h-.053s-.053 0-.053-.053v-.106l.212-.316-.424-.265c-.053-.053-.106-.053-.159-.053h-.158c-.265 0-.477-.052-.742-.105-.371-.106-.688-.212-.953-.423-.159-.106-.265-.264-.371-.422v.158c0 .37.265.687.477.792.211.159.529.318.9.423.053 0 .053.053.053.106s-.053.053-.053.053c-.159-.053-.265-.106-.371-.106l.159.106c.265.211.689.317 1.165.317Z" fill="#F8F8F8"/><path opacity=".3" d="M98.262 122.322a.515.515 0 0 1 .477-.053c.159.053.265.106.424.211l.106.053.106-.053v-.052h.053l4.131-2.642v-.053l-.053-2.166c-1.059-.264-2.172-.687-3.284-1.215l-4.82 3.064 1.43 2.589.795.528.37-.264h.054l.105.106.106-.053Z" fill="#ACACAC"/><path opacity=".2" d="M143.229 90.358v-.687c0-.211.053-.423.211-.634l.106-.106h-.053l-6.355 4.016c.317.158.635.264.953.37.265.105.53.21.795.264.264.053.476.158.741.211l-.053-2.325c0-.052.053-.105.053-.158l2.119-1.32c.053-.054.106-.054.158 0l1.589 1.056a.948.948 0 0 1-.264-.687Zm5.243-.635c-.265-.317-.636-.475-1.007-.528-.212 0-.37 0-.582.106-.159.053-.318.211-.424.37l-.53.898c0 .053-.053.105 0 .158 0 .212.159.37.265.476 0 0 0-.053.053-.053s.106-.053.212 0c.053 0 .053.053.106.053.265.264.635.37 1.006.37.212 0 .371-.053.53-.106.159-.106.318-.211.371-.37l.158-.317a.817.817 0 0 0 .106-.634c0-.053-.106-.211-.264-.423Zm-48.463 32.863-.264.265.264-.159c.053-.053.053-.106 0-.106Zm-.316-.053-.106.106.106-.106c.053-.053.053 0 0 0Zm-1.431.476v-.317l-.265.159.265.158Zm.636-.053s0-.053 0 0l.053-.053v-.053s0-.053.053-.053l.16-.158-.054-.053c-.159-.106-.264-.158-.37-.158-.106 0-.265-.053-.371.052h-.053l.053.053v.476c.106 0 .212 0 .318.105h.053c.053 0 .053-.052.106-.052.052-.053.052-.053.052-.106Zm-6.143-13.473.423-1.532.424-1.321-5.138-3.434a2.14 2.14 0 0 1-.53-.475 53.02 53.02 0 0 1-4.872-7.291c-.053-.106-.159-.212-.265-.317.053.053.053.106.106.158.106.212.318.582.371 1.004l.159 1.85c2.701 4.279 5.932 8.241 9.322 11.358Z" fill="#F8F8F8"/><path opacity=".3" d="M97.68 114.872c.847.529 1.695.951 2.489 1.321l11.599-7.344-4.555-9.615a2.394 2.394 0 0 0-.688-.899 1.253 1.253 0 0 0-.477-.317c-.159-.052-.318-.105-.53-.052l-9.586 2.588c-.053 0-.106.053-.106.053-.106.053-.159.159-.212.317l-2.277 7.08-.848 3.117c1.695 1.479 3.443 2.747 5.19 3.751Z" fill="#ACACAC"/><path opacity=".2" d="m103.665 119.891-3.867 2.484.053.052 3.814-2.43c.053-.053.053-.106 0-.106Zm-8.475-.369-1.483.951.9 1.955.689.475 1.324-.845-1.43-2.536Zm3.284 3.645c.053.053.053.053 0 0h.053c0 .053 0 0-.053 0Zm-6.567 2.853h-.053l-.053.053-.106.159.212-.159v-.053Zm-3.072-1.691c0 .317.159.581.477.793.212.158.53.317.9.422.265.053.53.106.847.053.106 0 .212 0 .265.053l.106.053c-.053-.106-.053-.212-.053-.264v-.212c-.106.053-.265.053-.423.053-.106 0-.212 0-.318-.053-.053 0-.106 0-.16-.053-.052 0-.052 0-.105-.052h-.106v-.106h.106c.053 0 .053 0 .106.053.053 0 .106 0 .106.053h.265c.159 0 .37-.053.476-.106l.424-.793a1.04 1.04 0 0 1 .477-.475c.159-.106.37-.106.582-.106-.159-.264-.423-.422-.635-.528-.265-.159-.583-.211-.954-.264-.317-.053-.635 0-.953.053-.318.052-.636.211-.9.369a1.257 1.257 0 0 0-.477.423c.053.211-.053.423-.053.634Z" fill="#F8F8F8"/><path opacity=".2" d="m93.602 120.579-3.867 2.43c.212-.105.424-.158.689-.211.265-.053.582-.053.847-.053v-.634c0-.053 0-.053.053-.105l1.377-.846h.106l1.642 1.11-.847-1.691Zm.741 4.384a1.958 1.958 0 0 0-.265-.581c-.265-.317-.636-.528-1.06-.528-.211 0-.423.053-.582.105a.986.986 0 0 0-.424.37l-.476.898c-.053.053-.053.106 0 .159 0 .211.106.37.265.475l.053-.052c.053 0 .106-.053.212 0 .052 0 .052.052.105.052.265.265.689.423 1.06.423.212 0 .37-.053.53-.106.158-.105.317-.211.423-.369l.159-.317c.053-.106.053-.317 0-.529Zm-2.225 1.534c-.053-.053-.106-.053-.159-.106-.053 0-.053-.053-.106-.053l-.37.212h-.053s-.054 0-.054-.053v-.106l.16-.317-.424-.264c-.053-.053-.106-.053-.16-.053h-.158c-.265 0-.53-.053-.742-.106-.37-.105-.688-.211-.953-.422a.991.991 0 0 1-.318-.37v.158c0 .317.16.582.477.793.212.158.53.317.9.423.265.052.53.105.848.052.053 0 .053.053.053.053 0 .053-.053.053-.053.053h-.16c-.264 0-.476-.053-.74-.106a88.567 88.567 0 0 1-.477-.158l.264.158c.318.212.795.317 1.219.317.423.053.741 0 1.006-.105Zm3.019-7.081-5.244-9.246c-.212-.317-.423-.634-.688-.898a1.259 1.259 0 0 0-.477-.317c-.159-.053-.318-.158-.53-.105l-8.686 2.007c-.053 0-.053 0-.106.053l-1.377.845 9.11-2.43a.866.866 0 0 1 .636.106c.159.053.317.211.476.37.265.264.53.581.689.951l4.608 9.668 1.589-1.004Zm-3.071 6.764-.053.053s.053 0 .053.052c.053.053.106.106.212.159.053 0 .053-.053.106-.053-.106-.053-.212-.158-.318-.211ZM69.397 92.472l3.867-2.378.741-.475.106-.053-.212-.37c-.053 0-.053.053-.106.053s-.106.053-.106.053h-.211l-.371-.582c-.106.106-.265.159-.371.212-.318.158-.583.264-.9.264h-.265c-.265 0-.477-.053-.689-.159a1.607 1.607 0 0 1-.635-.687c-.106-.264-.212-.528-.212-.898-.053-.95.37-1.849.582-2.324.371-.687.9-1.374 1.484-1.85.317-.264.635-.528 1.006-.686a2.475 2.475 0 0 1 1.165-.264c.424 0 .794.21 1.06.528.211.317.317.687.37 1.162v.053c-.053.687-.318 1.532-.742 2.272l.053.105v.053l-.052.159.052.106v.158l-.105.475.37.687v.159c0 .053-.053.053-.106.105-.053 0-.053.053-.106.053 0 0-.052 0-.052.053l.211.317 3.602-2.219.741-.475.212-.159-.37-9.88-10.646 6.657.635 9.775Z" fill="#F8F8F8"/><path opacity=".2" d="m91.377 122.692.16.106c.317.053.582.105.847.264.265.106.582.317.741.687.265.053.53.158.795.317-.053 0-.053-.053-.106-.053l-2.437-1.638v.317Zm5.35-45.226.212-.158c.106-.053.212-.106.37-.053.106 0 .212.053.318.159.212.158.424.37.53.528.159.211.212.423.265.634.159.106.317.37.37.528l.106.634a.851.851 0 0 0 .16-.475c0-.212-.054-.476-.107-.687-.053-.211-.159-.423-.265-.634-.264-.423-.582-.845-.953-1.057a3.039 3.039 0 0 0-.37-.211.586.586 0 0 0-.424 0c-.106.053-.212.106-.265.264-.053.106-.053.211-.106.37l.159.106c-.053 0 0 0 0 .052ZM78.771 89.301c-.053 0-.106-.052-.212-.052H78.4h.053c.053.052.16.105.212.158l.477.317c-.106-.159-.212-.317-.37-.423Zm0-.844.053.052.212-.158c.106-.053.212-.106.371-.053.106 0 .212.053.318.159.212.158.424.37.53.528.158.211.211.422.317.634.16.106.318.37.371.528l.106.634a.851.851 0 0 0 .159-.475c0-.212 0-.476-.106-.687-.053-.212-.159-.423-.318-.687-.265-.475-.583-.845-.953-1.11a3.055 3.055 0 0 0-.371-.21.586.586 0 0 0-.424 0c-.106.052-.212.105-.265.263-.159.212-.211.317-.211.476l.211.106Zm18.114-6.13v-.74c-.053.053-.106.106-.212.159l-.317.211.53.37Zm-1.059-4.121c.318.264.582.634.794 1.004l.159.317v-.053s0-.053.053-.053l.265-.158c-.16-.37-.424-.74-.689-.898-.106-.053-.212-.106-.264-.106-.16-.106-.212-.106-.318-.053Zm.901 0c-.053-.053-.16-.053-.212-.106h-.106.053a.928.928 0 0 1 .264.211l.424.264c-.159-.105-.265-.264-.424-.37ZM77.872 89.301c.264.264.53.634.794 1.004.053.106.106.211.159.264h.053v-.053s0-.052.053-.052l.159-.159c-.16-.37-.424-.74-.689-.95-.106-.054-.159-.106-.265-.106-.053 0-.158 0-.264.052Zm30.877-9.245c.106.106.265.264.477.264.106.053.318.053.477-.105.159-.159.159-.37.159-.529 0-.264-.106-.581-.265-.898a1.898 1.898 0 0 0-.371-.528 1.285 1.285 0 0 0-.53-.317c-.159-.053-.37-.053-.529.158-.159.159-.159.423-.159.581 0 .317.106.634.265.898.211.159.317.37.476.476Zm-45.497 22.242 4.397-2.642a63.125 63.125 0 0 0-2.808-3.751l-3.972 2.483c.053 0 .159 0 .212.053.212.053.37.159.583.264.264.159.53.423.794.74.212.264.424.581.583.898.159.37.265.687.318 1.004.052.211.052.37 0 .528a.806.806 0 0 1-.107.423Zm15.731-8.876v-.74c-.053.053-.106.16-.212.16l-.317.21.53.37Zm1.007-7.502 3.443-2.113-.583-9.774-3.23 2.008.37 9.88Z" fill="#F8F8F8"/><path opacity=".3" d="m68.814 101.083 11.229-6.974h.053s.053 0 .053.053v.053s0 .052-.053.052c0 0-.053.053-.053.106 0 .212 0 .476.053.687v.053c.423 1.056.847 2.113 1.324 3.117 0 .053.053.053.053.106.159.158.37.37.582.528l.053.053 1.165-.74-.158-1.796a3.322 3.322 0 0 0-.318-.951c-.212-.317-.424-.581-.689-.74l-.053-.053v-.052c0-.053.053-.053.106 0l.53.37c.159.105.37.316.477.528a53.02 53.02 0 0 0 4.872 7.291c.16.158.318.317.477.422l5.085 3.434.052-.105-4.978-3.329a2.141 2.141 0 0 1-.53-.475 50.701 50.701 0 0 1-3.654-5.178c-.424-.687-.848-1.374-1.219-2.113a1.249 1.249 0 0 0-.423-.476l-.53-.37c-.053 0-.053-.052 0-.105 0-.053.053-.053.106 0l.53.37c.159.105.37.317.476.528.371.687.795 1.374 1.219 2.008l.159-.106v-.053l-.424-1.585c0-.053 0-.106.053-.106s.106 0 .106.053l.423 1.585c.053.106 0 .212-.053.212l-.159.105c1.113 1.797 2.331 3.487 3.602 5.125.159.159.318.317.477.423l4.925 3.276 1.695-5.337c.053-.105.053-.158.16-.264a4.54 4.54 0 0 1-.53-.845 7.335 7.335 0 0 1-.424-.951 7.032 7.032 0 0 1-.265-1.004c-.053-.37-.106-.687-.159-1.057-.053-.898.106-1.743.37-2.536a3.92 3.92 0 0 1 1.59-1.954l6.938-4.333c-.318-.422-.582-.898-.847-1.32v-.106l4.237-2.642h.106c.265.475.582.898.847 1.32l6.886-4.279c.847-.528 1.906-.686 3.071-.528.954.159 1.96.528 2.966 1.057.212.105.477.264.689.422l.636.476c.423.317.847.634 1.218 1.004.794.792 1.43 1.638 1.853 2.536.106 0 .265.052.318.105.159.053.318.212.477.317.265.264.53.582.741.898l5.138 9.14 5.349-3.38c-.159-.053-.317-.106-.423-.212-1.007-.475-2.013-1.057-3.072-1.69-1.854-1.163-3.708-2.642-5.509-4.28-1.641-1.532-3.23-3.276-4.713-5.125a60.211 60.211 0 0 1-3.973-5.653l-1.271.792h-.106c-.053 0-.106 0-.159-.053l-.529-.528-.106-.106c-.477-1.003-.901-2.06-1.324-3.064v-.106c0-.21-.053-.422-.053-.634l-15.519 9.458 1.271.845c.053 0 .053.053 0 .106l-.053.053h-.053l-1.27-.846h-.107s-.053 0-.053-.053v-.105l15.837-9.88h.106v.105s-.053.053 0 .106c0 .211 0 .423.053.687v.053c.37 1.004.847 2.06 1.271 3.064 0 .053.053.053.053.106l.529.528.053.053 1.271-.793-.106-1.796c0-.37-.211-.74-.317-.95a1.868 1.868 0 0 0-.689-.74c-.053 0-.053-.053 0-.106 0-.053.053-.053.106 0l25.423 16.484.159-.106-27.595-17.91c-.053-.053-.053-.053-.053-.106l-.105-2.166a.63.63 0 0 0-.265-.476l-3.072-1.955-32.838 20.288-.742.476-4.82 2.959-.74.475-8.634 5.336.159.159 3.337-2.114a.402.402 0 0 1 .212-.105l7.838-4.702c.318-.159.636-.106.9 0h.054l.317.158c.106.053.212.159.265.212 0 0 0-.053.053-.053.053-.053.16-.053.265-.053v-.053l.159-.159.477-.264-1.219-.792c-.052 0-.052-.053 0-.106 0-.053.053-.053.106 0l.583.423c0-.264.053-.476.212-.634.053-.053.106-.159.212-.212l7.68-4.86c.052-.053.105-.106.211-.106l7.733-4.65c.318-.21.689-.105.954 0h.052l.318.16c.106.052.16.158.265.21v-.052c.053-.053.159-.053.265-.053v-.053l.159-.158.424-.264-1.166-.74c-.053 0-.053-.053 0-.106 0-.053.053-.053.106 0l.583.423c0-.264.106-.476.212-.634.053-.053.106-.159.212-.212l7.573-4.754c.053-.053.106-.106.212-.106l7.627-4.597c.159-.105.318-.105.477-.105.159 0 .318.052.476.158l.318.159c.106.052.159.105.265.21.106-.052.212-.105.371-.052.106 0 .212.053.318.159.317.21.582.58.741.95h.159v.106l-.318.212v.052l-.053.053-.053.053c.053.106.106.264.159.37.106.317.159.581.159.845v.053c0 .106 0 .264-.053.423v1.11l.053.052v.053l-.053.053h-.053l-.741-.476-7.309 4.333c-.053.052-.106.105-.212.105l-7.627 4.65c-.053 0-.053.053-.106.053l.106.845c.053 0 .053.053 0 .105l-.053.053h-.053c-.053 0-.053-.052-.053-.105l-.265-2.06c0-.16-.159-.37-.265-.476l-.264.158h-.159l-.318.212-.053.052h-.053l-.106-.052h-.106l-.37-.265c.105.106.158.264.211.37h.106v.106l-.318.211v.106l-.106.106c.053.105.106.264.16.37.105.316.158.58.158.845v.053c0 .158-.053.264-.053.37l.053 1.109.053.053v.052l-.053.053h-.053l-.741-.475-7.15 4.543c-.053.053-.106.106-.212.106l-7.733 4.702c-.053 0-.053.053-.106.053l.106.846c.053 0 .053.052 0 .105l-.053.053h-.053c-.053 0-.053-.053-.053-.106l-.265-2.06c0-.159-.159-.37-.318-.476l-.37.053h-.159l-.318.212-.053.052h-.053l-.106-.052h-.106l-.424-.265c.106.106.16.264.212.423h.159v.106l-.318.211v.106l-.159.105c.053.106.106.264.16.37.105.317.158.634.105.898v.053c0 .106 0 .212-.053.317l.053 1.11.053.052v.053l-.053.053h-.053l-.741-.475-7.256 4.596a.402.402 0 0 1-.212.106l-2.966 1.796c.212.317.424.634.688 1.004.053.053.16.211.265.317Zm39.3-23.088c.159-.212.37-.264.688-.212.265.053.424.265.583.37.159.159.265.317.424.529.158.317.264.686.264.95 0 .16-.053.423-.211.635a.673.673 0 0 1-.477.211h-.212c-.265-.053-.424-.211-.583-.317a1.915 1.915 0 0 1-.37-.528 3.674 3.674 0 0 1-.318-1.004c.053-.159.053-.423.212-.634ZM84.333 95.06c-.053 0-.106 0-.106-.053a1.752 1.752 0 0 0-.53-.74c-.053-.052-.053-.052 0-.105s.053-.053.106 0c.265.211.477.528.583.792 0 .053 0 .106-.053.106Zm17.319-11.993c.053-.053.053-.053.106 0 .212.211.424.475.53.74 0 .052.053.105.053.21 0 .054 0 .107-.053.107s-.053 0-.053-.053-.053-.106-.053-.212c-.053-.211-.265-.475-.477-.686-.053-.053-.053-.106-.053-.106Zm-19.755 9.88 16.048-9.986h.106v.053s0 .053-.053.053c0 0-.053.053 0 .106 0 .21 0 .422.053.686v.053c.37 1.057.847 2.06 1.324 3.064 0 .053.053.053.053.106l.53.529.052.052 2.648-1.638v-.052l-.423-1.585c0-.053 0-.106.053-.106s.106 0 .106.053l.423 1.585c.053.105 0 .211-.053.211l-2.648 1.638h-.106c-.053 0-.106 0-.159-.053-.212-.158-.37-.37-.53-.528l-.105-.106c-.477-1.004-.9-2.06-1.324-3.117v-.106c0-.211-.053-.422-.053-.634L82.16 92.947l1.271.845c.053 0 .053.053 0 .106l-.053.053h-.053l-1.27-.846h-.107s-.052 0-.052-.053v-.105s0 .052 0 0Z" fill="#ACACAC"/><path opacity=".2" d="M78.296 89.142c.105-.052.211-.105.317-.052.106 0 .16.052.265.105.212.159.424.423.583.74h.053l.053.053.37-.212h.106l.265-.158a2.464 2.464 0 0 0-.265-.528 2.023 2.023 0 0 0-.476-.476c-.106-.053-.16-.106-.265-.106-.053 0-.159 0-.265.053l-.794.476c-.053 0-.053.053-.106.105h.159Z" fill="#F8F8F8"/><path opacity=".2" d="M78.4 88.244c0-.106.053-.264.106-.37.106-.158.212-.264.371-.317a.735.735 0 0 1 .477 0c.159.053.265.106.424.212.37.264.741.686 1.006 1.109.106.211.212.475.318.687.052.264.105.475.105.687v.053c0 .21-.052.475-.264.633l.053.265h.053l.158-.159c.212-.264.16-.74.16-.95a3.353 3.353 0 0 0-.318-.952c-.16-.317-.318-.634-.53-.898-.212-.264-.477-.528-.742-.687-.211-.106-.37-.211-.53-.264a.628.628 0 0 0-.529.053l-.159.158a.891.891 0 0 0-.159.529v.211Zm-7.625 9.51c.052-.053.105-.105.211-.105l7.733-4.914.16-.158a.891.891 0 0 0 .158-.529v-.053c0-.264-.053-.528-.106-.845l-.318-.792c-.317-.529-.688-1.004-1.112-1.268l-.318-.159h-.053c-.212-.106-.53-.158-.794 0l-7.839 4.702a.402.402 0 0 1-.212.106l-3.284 2.113c.954 1.11 1.854 2.325 2.808 3.751l2.966-1.849Z" fill="#F8F8F8"/><path opacity=".2" d="M79.248 87.188c.212.053.371.159.583.264.265.159.53.423.794.74.212.264.424.581.583.898.159.37.265.687.318 1.004.053.264.053.634-.106.898l7.362-4.49c.053-.053.106-.106.212-.106l7.627-4.808.158-.159c.106-.158.16-.422.16-.58v-.054c0-.264-.054-.528-.107-.845l-.317-.792c-.318-.529-.689-.951-1.113-1.268-.106-.053-.212-.106-.264-.159h-.053c-.16-.106-.53-.211-.795-.053l-7.786 4.755c-.053.053-.106.106-.212.106l-7.309 4.596a.576.576 0 0 0 .265.053Zm34.321-19.971c.371.317.636.74.742.95.053.106.106.212.159.265v-.106l.265-.158c-.159-.37-.371-.74-.689-.899-.106-.052-.212-.105-.265-.105-.053 0-.159 0-.212.053Zm1.007 4.121v-.74l-.159.158-.318.212.477.37Zm-17.373 4.808c.211.053.37.159.582.264.265.159.53.423.795.74.212.264.423.581.582.898.16.37.265.687.318 1.004.053.264.053.634-.106.898l7.256-4.438c.053-.053.106-.106.212-.106l7.521-4.755.159-.158c.159-.211.159-.423.159-.634v-.053c0-.264-.053-.528-.106-.792-.106-.264-.212-.529-.318-.74-.318-.528-.688-.951-1.112-1.215l-.318-.159c-.159-.053-.318-.105-.424-.105-.159 0-.317 0-.423.105l-7.627 4.597c-.053.053-.106.053-.212.106l-7.15 4.543c.053-.053.106-.053.212 0Z" fill="#F8F8F8"/><path opacity=".2" d="M96.356 77.15c0-.106.052-.264.105-.37.106-.158.212-.264.371-.317a.737.737 0 0 1 .477 0c.159.053.265.106.424.212.37.264.741.634 1.006 1.11.106.21.212.475.318.686.053.264.106.475.106.687v.053a.946.946 0 0 1-.265.686l.053.265h.053l.159-.159c.211-.264.159-.74.159-.95a3.353 3.353 0 0 0-.318-.952 4.561 4.561 0 0 0-.53-.845c-.212-.264-.477-.529-.742-.687-.211-.106-.37-.211-.53-.264a.628.628 0 0 0-.529.053l-.159.158c-.106.159-.158.423-.158.581v.053Z" fill="#F8F8F8"/><path opacity=".2" d="M96.25 77.995c.106-.053.212-.053.318-.053.106 0 .159.053.265.106.211.158.423.423.582.74h.106l.053.052.37-.21h.107l.265-.16a2.468 2.468 0 0 0-.265-.528 2.02 2.02 0 0 0-.477-.475c-.106-.053-.159-.106-.265-.106-.053 0-.159 0-.265.053l-.794.475c-.053 0-.053.053-.106.106.053.053.053.053.106 0 0 .053 0 .053 0 0ZM41.22 93.528c.211.211.37.475.476.74l.212-.106c-.106-.265-.265-.529-.477-.687-.105-.106-.211-.212-.317-.264-.106-.053-.212-.106-.371 0l-.053.052c.053 0 .106.053.159.053.159 0 .265.106.37.212Z" fill="#F8F8F8"/><path opacity=".2" d="m55.944 88.561 56.831-34.87 42.583 27.42 1.907-1.215v-.052l-43.748-28.055c-.212-.106-.477-.211-.742-.211s-.53.052-.741.211l-7.733 4.755-.424.264v.106a.413.413 0 0 1-.212.211h-.318L53.773 87.557c.741.317 1.483.687 2.171 1.004ZM43.02 93.95l-.105-.052h-.053l-.106-.053-.318.211h-.053s-.053 0-.053-.052v-.053c-.106-.264-.265-.529-.477-.687-.105-.106-.211-.211-.317-.264-.106-.053-.212-.106-.371 0h-.053s-.053 0-.053-.053v-.106l.318-.211c.159-.106.318-.053.53 0 .105.053.264.158.37.264.212.211.37.476.477.74l.106.053.159.105 10.222-6.287c-.9-.37-1.907-.74-2.913-1.004l-13.77 8.4.158.106c-.265.159-.53.317-.848.529-.052.158-.052.317-.105.528l4.13-2.536c.054-.053.16-.053.266-.053v-.105l.053-.053.105-.106.318-.211c.16-.106.371-.053.477 0 .159.053.265.211.37.264.213.211.371.475.53.74 0 0 .053 0 .053.052v.106l-.423.264h-.053s-.053 0-.053-.053v-.052c-.106-.265-.265-.529-.477-.687-.106-.106-.212-.212-.318-.264-.106-.053-.212-.106-.37 0l-.053.052-.053.053c.052 0 .052 0 .105.053.106.053.265.159.371.264.212.212.371.476.53.74h.053v.106l-4.502 2.747.053.053c.053 0 .053.053 0 .105l-.053.053h-.053l-1.112-.74a15.949 15.949 0 0 0-.106 1.638l7.468-4.543Zm-6.832 8.084c-.106-.106-.212-.212-.318-.264 0 0-.053 0-.053-.053 0 .053 0 .158-.053.211l.795.581a3.707 3.707 0 0 0-.371-.475Zm67.9-45.594c-.053 0-.053 0 0 0l-.159-.106c.053.105.053.211.053.317l.212-.159-.106-.053Z" fill="#F8F8F8"/><path opacity=".2" d="M42.28 93c-.107-.106-.212-.212-.371-.265-.106-.053-.265-.106-.371-.053l-.053.053c.053 0 .106.053.159.053.106.053.265.159.37.264.212.211.371.476.477.74l.212-.106c-.106-.264-.265-.528-.424-.687Zm62.285-38.728a1.79 1.79 0 0 1 .848 1.004l4.184-2.59c-.106-.263-.265-.475-.424-.686-.106-.106-.212-.211-.37-.264a.454.454 0 0 0-.371 0l-4.078 2.483c.105.053.158.053.211.053Zm-.371.741c.212.21.37.422.476.74l.212-.106c-.106-.265-.265-.529-.476-.687-.106-.106-.212-.159-.318-.212a.453.453 0 0 0-.371 0h-.053c.053 0 .106 0 .106.053.212 0 .318.053.424.212Zm-.688.474c.212.212.371.423.477.687l.212-.105c-.106-.265-.318-.529-.53-.74-.106-.053-.212-.159-.371-.212-.106 0-.212-.052-.317.053.053 0 .105 0 .158.053.106 0 .265.106.371.264Zm-67.901 46.23c-.053 0-.105 0-.158.053l-.053.052.158.106c.053-.106.053-.158.053-.211Z" fill="#F8F8F8"/><path opacity=".2" d="m50.489 86.396 55.453-33.92c.742-.475 1.483-.898 2.331-1.215.423-.158.847-.264 1.271-.37.423-.105.847-.105 1.324-.105.477 0 .9.053 1.324.106.424.052.847.211 1.271.37.212.052.424.158.636.264.212.105.37.211.582.317.371.211.742.475 1.113.686l41.471 26.628a40.234 40.234 0 0 0-.477-3.75v-.053a25.758 25.758 0 0 0-.424-1.955c-.053-.317-.159-.634-.265-1.004-.106-.317-.159-.634-.265-1.004-.105-.317-.211-.687-.317-1.004-.106-.317-.212-.687-.318-1.004-.106-.317-.212-.686-.371-1.004-.106-.37-.265-.686-.371-1.056l-.794-1.902c-.265-.634-.583-1.268-.9-1.902l-.954-1.902c-.318-.634-.688-1.215-1.059-1.85-.371-.58-.689-1.215-1.059-1.796-.371-.58-.742-1.162-1.166-1.743-.794-1.163-1.641-2.272-2.489-3.382a37.61 37.61 0 0 0-1.377-1.637l-1.43-1.585a75.48 75.48 0 0 0-2.913-2.906c-.265-.264-.53-.476-.847-.74a5.35 5.35 0 0 0-.848-.687c-.265-.211-.53-.475-.794-.686a11.74 11.74 0 0 0-.848-.634c-.265-.212-.582-.423-.847-.634-.265-.212-.583-.37-.848-.582-.264-.211-.582-.37-.847-.528-.265-.158-.583-.37-.847-.528-1.378-.793-2.702-1.427-4.026-1.902l-.953-.317c-.318-.106-.636-.212-.953-.264-.318-.106-.636-.159-.954-.212a29.909 29.909 0 0 1-.9-.158c-.795-.106-1.536-.159-2.278-.106-.37 0-.741.053-1.059.106-.371.053-.689.105-1.006.211-.318.106-.636.158-.954.317-.317.106-.635.264-.9.37-.583.317-1.112.634-1.642 1.056-.212.212-.477.423-.688.635-.212.21-.424.475-.636.74-.212.263-.371.528-.583.845-.159.264-.37.58-.476.898-.159.317-.318.634-.424 1.004-.106.317-.265.686-.371 1.056-.106.37-.212.687-.265 1.057-.053.37-.158.74-.211 1.11 0 .052-.053.052-.106.052s-.053-.053-.053-.105c.053-.37.106-.74.212-1.11.105-.37.158-.74.264-1.11.106-.37.212-.74.371-1.056.159-.317.265-.687.424-1.004.159-.317.318-.634.529-.898.159-.317.371-.581.583-.846.212-.264.424-.528.636-.74.211-.21.476-.475.688-.633 0 0 .053 0 .053-.053L42.968 86.29c.159-.053.265-.106.423-.106 2.33-.58 4.82-.37 7.098.212Zm115.25 1.161c.159-.317.265-.58.265-.898 0-.317-.106-.634-.265-.95a2.797 2.797 0 0 0-.635-.74c-.212-.212-.477-.37-.795-.634l-.477-.317v.052l-1.059.687h.106l.106.106h.106l.106.106h.053l.106.105h.053l.106.106h.106c0 .053.053.053.053.106l.053.052s.052 0 .052.053v.053c0 .053 0 .106.053.106v.792c0 .212-.105.37-.211.529-.106.105-.265.264-.477.317l-.053.052c-.212.106-.53.159-.795.159-.264 0-.529-.053-.741-.159l-.053-.052c-.106-.053-.159-.106-.265-.159l-1.695-1.11-30.719 19.602c.053.158.106.37.106.528v.634c0 .37-.106.793-.318 1.11-.212.317-.476.581-.794.845a5.414 5.414 0 0 1-2.119.898c-.423.106-.9.159-1.377.159h-.477c-.158 0-.317-.053-.476-.053-.212-.053-.477-.106-.742-.159l-33.367 21.292h.053l.106.106h.053l.106.105h.053l.106.106s.052 0 .052.053h.053l.106.106h.106c0 .052.053.052.053.105h.053s0 .053.053.053c0 0 .053 0 .053.053v.053c0 .053 0 .105.053.158v.74c0 .264-.159.475-.265.634a1.921 1.921 0 0 1-.53.37h-.052c-.265.105-.53.158-.795.158-.212 0-.424-.053-.635-.105h-.053c-.16-.053-.318-.106-.424-.212l-1.695-1.162-1.8 1.162c.529.37 1.059.687 1.694.951.795.37 1.59.529 2.437.529.423 0 .847-.053 1.218-.106.37-.053.741-.211 1.165-.37.37-.158.689-.317 1.112-.528.371-.212.742-.423 1.06-.687h.105l69.595-44.539c.477-.317 1.113-.74 1.589-1.162 1.324.74 1.536.476 1.695.211ZM35.764 96.275c.053 0 .106.053.106.053.106.053.265.159.37.264.213.212.372.423.477.687l4.45-2.694c-.106-.264-.265-.529-.477-.687-.106-.106-.212-.211-.318-.264-.106-.053-.212-.106-.37 0l-4.238 2.641Z" fill="#F8F8F8"/><path opacity=".2" d="m142.222 99.657-5.985-3.804c0 .053 0 .053-.053.053l-1.853 1.162 2.277 1.48h.159s.053 0 .053-.053c.053 0 .053 0 .106-.053 0 0 .053 0 .053.053.053 0 .053-.053.106-.053s.053.053.106.053.053-.053.106-.053.053.053.105.053h.053c.053 0 .053 0 .106.052l.053.053h.106l.053.053h.053l.106.106h.053l.106.105h.053l.106.106h.053l.106.106h.053l.106.105h.053l.106.106h.053l.105.106h.053l.106.105h.053l.106.106h.053l.106.106h.053l.053.105h.053l1.059-.686c1.801.633 1.748.58 1.642.528Zm-57.201 34.499 1.8-1.162-1.27-.845-.477.317h-.106l-4.873-3.329-1.27.793 5.878 4.015c.106.053.212.106.318.211Zm-49.573-30.114-.371.211a1.154 1.154 0 0 0-.265.211c-.053.106-.106.212-.106.317 0 .212.159.317.265.37l.477.317a6.414 6.414 0 0 1 0-1.426Zm1.164-9.14 13.717-8.4c-2.277-.582-4.66-.793-6.938-.16a26.28 26.28 0 0 1-1.06.318l-1.906 1.162a7.564 7.564 0 0 0-1.854 1.585 8.993 8.993 0 0 0-1.377 2.008c-.159.317-.318.686-.477 1.003 0 0 0 .053-.052.053a17.12 17.12 0 0 0-.318.898 10.572 10.572 0 0 0-.477 1.955 3.38 3.38 0 0 0 .742-.422Zm41.735 33.02-40.835-27.896v-.105l18.272-11.254c-.688-.37-1.43-.687-2.171-1.056l-10.381 6.34-7.627 4.702v1.638l28.76 19.654 14.3 9.774c-.106-.581-.212-1.215-.318-1.797Zm-13.453-8.823s0 .053 0 0h-.106v-.105h.106c.053.052.053.105 0 .105Zm78.176-16.432v-.158.158h-.053l-.053.053h-.106l-.053.053h-.106l-.053.053h-.212c-.053 0-.053.053-.106.053h-.212l-.052.053h-.742c-.053 0-.053-.053-.106-.106-.053 0-.053 0-.106.053h-.053l-.053-.053h-.159l-.106-.106h-.158l-.106-.105h-.106l-.106-.106h-.159l-.106-.106h-.106l-.106-.105h-.106l-.106-.106h-.159l-.106-.106h-.106l-.105-.105h-.159l-.106-.106h-.159l-.106-.106h-.159l-.106-.105h-.106l-.106-.106h-.159l-.106-.106h-.159l-.105-.105h-.106l-.106-.106h-.106l-.106-.106h-.106s-.053 0-.053-.053l-.106-.105h-.053v-.053s0-.053-.053-.053v.106c0 .105.053.211.106.317.053.105.159.158.265.264l4.184 2.694a.402.402 0 0 0 .212.106 1.943 1.943 0 0 0 1.536 0c.159-.053.318-.158.424-.264-.53-1.057-.424-1.215-.424-1.427Zm-16.895 7.346c.582-.106 1.377-.37 2.065-.899.318-.264.583-.528.742-.845.159-.317.265-.581.318-.898-.053.106-.106.264-.159.37-.212.317-.477.581-.795.845a5.396 5.396 0 0 1-2.118.898 5.658 5.658 0 0 1-1.324.159c-.318 0-.636 0-.954-.053-.582-.106-1.43-.317-2.171-.793-.371-.264-.689-.528-.901-.845a1.534 1.534 0 0 1-.211-.423l.052 1.268c0 .37.106.74.371 1.057.159.264.424.476.742.687v-1.215h.053c.741.475 1.536.687 2.118.792.636.053 1.43 0 2.172-.105Z" fill="#F8F8F8"/><path opacity=".2" d="m158.695 85.55-30.19 19.231c.212.211.424.37.583.634.106.159.212.317.265.476l30.613-19.549-1.271-.792Zm-22.298 14.74h-.106v-.105c.053-.053.053-.053.106 0 .053 0 .053.052 0 .105.053 0 .053-.053 0 0Zm9.375-5.97c-.053 0-.053 0 0 0l-.053-.053v-.052c0-.053.053-.053.106 0v.105h-.053ZM78.56 128.028c.105.581.159 1.162.264 1.743l1.219-.739-1.483-1.004Zm.742-1.637a14.49 14.49 0 0 1-1.165-.74c.106.687.264 1.427.37 2.166l1.59 1.11 1.747-1.11c-.794-.422-1.642-.845-2.542-1.426Zm5.19 5.019c-.265-.211-.424-.423-.424-.687v-.898l.053-.053v-.053s0-.053.053-.053c0-.052.053-.105.053-.105.053 0 .106 0 .106-.053.053-.053.106-.106.16-.106h.211v-.053c-.953-.264-1.96-.686-3.019-1.162l-1.8 1.11 4.766 3.275.794-.528-.953-.634Zm36.333-21.503c-.053-.053-.053-.106-.105-.212L88.358 130.3l.053.053h.053l.106.106h.053l.106.106h.053l.106.105h.053l.106.106s.053 0 .053.053h.053l10.434-6.657.053-.053 21.556-13.737c.106.159-.159-.158-.371-.475Zm23.357-21.452c.211-.105.423-.158.635-.21.265-.054.53-.054.795-.054v-.687l1.324-.845h.106l3.866 2.483a.733.733 0 0 1 .212.159l.477-.317c.053-.053.106-.053.159-.053.052 0 .105.053.158.053l.477.317 6.144-3.91-.953-.581c-.159-.106-.265-.211-.318-.317-.053-.106-.106-.211-.106-.317l-3.178-2.008-9.798 6.287Zm-3.018 7.715c-.053 0-.106 0-.159.053-.053.053-.053.105-.053.158 0 .053 0 .159.053.264l.423-.264c-.053-.105-.159-.211-.264-.211Zm1.482-.845c-.053-.053-.159-.159-.212-.159-.053 0-.106-.052-.106 0-.053 0-.053.053-.053.106s0 .158.053.264c.053.053.053.106.106.159l.265-.159c0-.053 0-.158-.053-.211Zm-36.121 23.035c-.053-.053-.106-.106-.212-.159-.053 0-.106-.053-.106 0-.053 0-.053.053-.053.106s.053.158.053.264c.053.053.053.106.106.159l.265-.159c0-.106 0-.158-.053-.211Zm21.556-13.684a13.942 13.942 0 0 0-.9-.475c-1.43-.529-3.125-.476-4.555.105-.583.264-1.059.581-1.377.951-.318.317-.636.846-.636 1.48 0 .369.106.739.371 1.056.212.317.477.581.847.793.742.475 1.536.687 2.119.792.742.106 1.536.106 2.277-.053.583-.105 1.378-.369 2.066-.898.318-.264.583-.528.742-.845.211-.317.317-.687.317-1.057 0-.37-.106-.739-.37-1.109-.265-.212-.53-.476-.901-.74Z" fill="#F8F8F8"/><path opacity=".2" d="M124.639 106.419v-.053h-.106l.106.053Zm26.588-16.801c-.159-.105-.265-.21-.424-.316l-3.813-2.484-1.219.793 2.49 1.638c.159.105.37.317.476.58.106.16.159.265.212.424.053.264 0 .528-.106.74l-.159.316a1.247 1.247 0 0 1-.476.423 1.912 1.912 0 0 1-.583.106c-.212 0-.371-.053-.53-.106l-.053.053c-.37.211-.794.37-1.271.37-.476 0-.953-.106-1.271-.37l-2.542-1.638-2.119 1.32.053 5.231.053.053c.159.106.265.211.424.317l.689-.423c-.053-.105-.053-.211-.053-.317 0-.053 0-.211.106-.264.052-.053.158-.105.264-.053 0 0 .053 0 .053.053h.053a.413.413 0 0 1 .212.212l.742-.476c-.053-.053-.106-.106-.106-.159-.053-.052-.106-.21-.106-.317 0-.105.053-.21.106-.264a.161.161 0 0 1 .212 0h.052c.053.053.159.106.159.159.053.053.106.106.106.211l8.686-5.547c-.105-.053-.211-.159-.317-.264Zm-81.512 32.228c0-.052-.053-.052-.053-.105a.405.405 0 0 0-.265-.106l.318.211Zm-9.217-6.339.424.317 6.409-4.015c.053-.053.106-.053.159-.106.053 0 .053-.053.053-.053.053-.053.053-.105.053-.158 0-.106-.053-.159-.106-.212-.053-.052-.16-.052-.265 0l-6.726 4.227Z" fill="#F8F8F8"/><path opacity=".3" d="m59.757 115.031 1.325-.846c-.318-.422-.583-.898-.9-1.373v-.106l4.342-2.694h.053s.053 0 .053.052c.265.476.583.899.9 1.374l6.568-4.121a57.329 57.329 0 0 0-3.39-5.97l-4.766 2.959 1.27.845c.054.053.107.106.213.158l.211.159c.212.211.53.528.583.898 0 .053 0 .106-.053.106s-.053 0-.053-.053a1.833 1.833 0 0 0-.582-.793l-.212-.158-.16-.159-1.27-.845h-.106s-.053 0-.053-.053v-.053s0-.052.053-.052l4.925-3.065c-.106-.105-.159-.264-.264-.37-.212-.317-.424-.686-.689-1.003l-4.767 2.905h-.053s-.053 0-.053-.052v-.106l.16-.159c.105-.105.158-.264.158-.475v-.528a4.352 4.352 0 0 0-.318-1.004c-.159-.317-.317-.634-.53-.898-.211-.264-.476-.529-.74-.687-.213-.106-.372-.212-.53-.264a.628.628 0 0 0-.53.053l-.159.158c-.106.106-.159.317-.159.528v.106l.106.053c0-.106.053-.264.106-.37.053-.159.212-.264.37-.317a.736.736 0 0 1 .477 0c.16.053.265.106.424.211.37.264.742.687 1.006 1.163.106.211.212.475.318.686.053.265.106.476.106.687v.053a.6.6 0 0 1-.159.423l-.106.105.16 1.321c0 .053 0 .053-.054.106-.053 0-.053-.053-.053-.053l-.318-2.06c0-.159-.158-.37-.317-.476l-.265.159h-.159l-.318.211-.053.053h-.053l-.106-.053h-.106l-.423-.264c.106.158.159.264.212.422h.158v.106l-.317.211v.106l-.16.106c.054.158.107.317.16.422.106.317.159.582.106.846v.053c0 .105 0 .211-.053.264l.053.792c0 .053-.053.053-.053.053-.053 0-.053-.053-.053-.053v-.475c-.053.053-.106.158-.212.158l-7.839 4.967a.407.407 0 0 1-.212.105l-.635.37 1.483 1.004 8.421-5.231h.106v.106l-.053.053s0 .053.053.053c0 .211 0 .475.053.687v.052c.424 1.057.847 2.114 1.324 3.118 0 .052.053.052.053.105.212.159.37.37.583.529l.053.052 2.754-1.69v-.053l-.212-.74-.265-.845c0-.053 0-.106.053-.106s.106 0 .106.053l.424 1.585v.053c.052.106 0 .211-.053.264l-2.755 1.691h-.105c-.053 0-.106 0-.16-.053-.211-.159-.37-.37-.582-.528l-.106-.106c-.477-1.004-.9-2.061-1.324-3.117v-.106c0-.211 0-.423-.053-.687l-8.21 5.125 6.197 4.227Z" fill="#ACACAC"/><path opacity=".2" d="M115.264 112.495c-.159-.106-.265-.211-.424-.317l-3.813-2.536-1.272.792 2.49 1.638c.318.212.476.476.529.74.053.106.106.211.106.317.053.264 0 .528-.106.74l-.159.317a1.237 1.237 0 0 1-.476.422c-.159.106-.371.159-.636.159-.212 0-.371-.053-.582-.106l-.053.053c-.053.053-.106.053-.159.106a2.658 2.658 0 0 1-1.112.264c-.318 0-.848-.053-1.325-.37l-2.542-1.691-2.171 1.374.158 5.283.053.053c.159.106.265.211.424.317l.689-.423c-.053-.105-.106-.211-.106-.317 0-.105 0-.211.106-.264.053-.053.159-.105.317-.053h.106c.106.053.159.159.265.212l.742-.476c-.053-.053-.106-.105-.106-.211-.053-.053-.106-.211-.106-.317 0-.106.053-.211.106-.264.053-.053.159-.053.265 0 .106.053.211.158.264.211a.403.403 0 0 1 .106.211l8.845-5.653c-.158 0-.264-.105-.423-.211Z" fill="#F8F8F8"/><path opacity=".3" d="m75.964 116.986-.742 2.43-.847 3.118c1.165 1.056 2.383 1.954 3.602 2.8a84.376 84.376 0 0 0-2.013-8.348Z" fill="#ACACAC"/><path opacity=".2" d="M105.095 119.153h-.159c-.053.052-.053.105-.053.158 0 .053.053.159.053.264l.424-.264a1.125 1.125 0 0 0-.265-.158ZM75.7 115.771c.052-.053.052-.106.052-.159 0-.053-.053-.105-.105-.211-.053-.053-.053-.053-.107-.053.106.159.16.264.16.423Zm49.362-29.693c-.159-.053-.318-.158-.529-.105l-8.792 2.166c-.053 0-.053 0-.106.053l-1.324.792 9.215-2.536c.212-.053.477 0 .636.053.159.053.318.211.477.317.264.264.529.581.688.951l4.502 9.51 1.43-.898-5.032-9.088c-.211-.317-.423-.634-.688-.898l-.477-.317ZM97.256 99.499c0-.053 0-.106-.053-.159a.405.405 0 0 0-.265-.106c-.053 0-.159.053-.159.159 0 .053 0 .106.053.158.053.053.106.106.212.106l.212-.158c0 .052 0 .052 0 0Zm36.122 1.478c-.159-.105-.265-.211-.424-.317l-3.813-2.483-1.271.793 2.489 1.638c.212.105.424.369.53.686.053.106.106.265.159.37.053.264 0 .529-.106.74l-.159.317a1.257 1.257 0 0 1-.477.423c-.159.105-.371.105-.583.105-.211 0-.37-.053-.582-.105l-.053.052c-.371.212-.795.37-1.324.37-.265 0-.848-.053-1.324-.37l-2.543-1.69-2.118 1.373.053 1.691c.212-.158.476-.264.741-.37 1.43-.581 3.231-.634 4.661-.105.318.105.636.264.953.475a.732.732 0 0 0 .212.159l5.35-3.435a2.254 2.254 0 0 1-.371-.317Zm-12.818 8.453-2.225 1.427c.053.053.053.106.106.158l2.225-1.426c-.053-.053-.106-.106-.106-.159Z" fill="#F8F8F8"/><path opacity=".3" d="m118.071 105.045-4.502 2.853 1.43 2.536.795.529.371-.265h.106l.158.106a.515.515 0 0 1 .477-.053c.159.053.265.106.424.212l.106.105.212-.158h.106s.052 0 .052-.053v-.053l2.596-1.691c0-.105 0-.211-.053-.264l-.053-2.007c0-.317.053-.582.159-.793-.742-.317-1.536-.634-2.384-1.004Z" fill="#ACACAC"/><path opacity=".2" d="M117.807 111.28h-.053c0 .053-.053.053-.053.053h-.106l-.053-.053h-.106s-.053 0-.053-.052v.158c.106 0 .159.053.265.106l.264-.159c-.053 0-.053 0-.105-.053Zm-1.378.106v-.264l-.212.105.212.159Zm35.38-21.768c-.053 0-.159 0-.265.053l-.053.053.159.158.317-.211c-.053-.053-.106-.053-.158-.053Zm.054-.422c-.053 0-.053-.053-.106-.053h-.053l-.477.317c.053 0 .053.053.106.053h.106l.053-.053c.106-.053.212-.106.371-.053.106 0 .211.053.264.106l.159-.106-.423-.211Zm-39.247-23.353 3.072 2.007c.159.106.318.37.318.581l.106 2.166 27.647 17.964 10.116-6.393-41.523-26.734.264 10.409Zm22.615 34.289c-.053 0-.159 0-.265.053l-.794.475h-.053s-.053 0-.053-.053v-.105l.476-.264-.582-.37v-.106l.318-.211-.159-.106-.371.264h-.106l-.794-.528-1.007.634 1.166.74c.158.105.264.211.423.317.106.105.212.211.371.317l1.589-1.004c-.053 0-.106-.053-.159-.053Zm4.714-3.064-3.708 2.325c.053.052.053.105.106.158l3.708-2.377-.106-.106Zm-40.359 25.835h-.053v.053h-.159l-.052-.053h-.106s-.053 0-.053-.053v.159c.106 0 .159.052.264.105l.265-.158c-.053 0-.053 0-.106-.053Z" fill="#F8F8F8"/><path opacity=".2" d="M117.277 111.597c-.053 0-.159 0-.265.052l-.794.529h-.053s-.053 0-.053-.053v-.106l.477-.317-.583-.37v-.105l.318-.212-.159-.105-.371.264h-.106l-.794-.528-1.165.739 1.165.793c.159.105.265.211.423.317.106.105.212.211.371.317l1.695-1.11c0-.105-.053-.105-.106-.105Zm-13.401 8.454-3.76 2.377c.053.053.053.106.106.159l3.813-2.431c-.053 0-.106-.053-.159-.105Zm-4.819 3.116c-.053 0-.159 0-.265.053l-.794.528h-.053s-.053 0-.053-.053v-.106l.476-.317-.582-.369v-.106l.317-.211-.158-.106-.371.264h-.106l-.794-.528-1.272.845 1.166.793c.158.105.264.211.423.317l.053.052.424-.264c.106-.053.212-.105.37-.053.107 0 .16.053.266.106l1.059-.687c0-.105-.053-.105-.106-.158Z" fill="#F8F8F8"/><path opacity=".2" d="M116.535 110.91c.053 0 .053 0 0 0 .053 0 .053 0 0 0l.053.053v.528c.053 0 .159.053.211.106l.106-.106c.053 0 .053-.053.106-.053 0-.053 0-.053.053-.106l.053-.052v-.106s0-.053.053-.053l.106-.053-.106-.053c-.159-.105-.265-.158-.371-.158-.052 0-.158 0-.264.053Zm-18.644 13.049c-.053 0-.159 0-.265.053l-.423.264.159.159.635-.423c0-.053-.053-.053-.106-.053Zm20.021-13.049-.106.107c.053-.054.106-.054.106-.107 0 0 .053 0 0 0Zm.159-.053c0-.053 0-.053 0 0 .053-.053.053-.053 0 0 .053-.053.053-.053 0 0l.053-.053 2.383-1.532v-.053l-2.436 1.638c0-.053-.053-.053 0 0Zm.159.159-.211.211.264-.158c0-.053-.053-.053-.053-.053Zm17.531-11.149h-.212l-.053-.052h-.106s-.053 0-.053-.053v.158c.106 0 .159.053.265.106l.265-.159c-.053.053-.053 0-.106 0Z" fill="#F8F8F8"/><path opacity=".2" d="M33.699 98.442c0 .317.105.634.317.898.16.264.371.528.636.792.477.423 1.06.846 1.536 1.215l.053.053 48.038 32.863c.371.264.742.528 1.166.739.211.106.423.212.582.317l.636.317c.424.159.9.317 1.324.37.212.053.424.053.688.106.212 0 .477.053.689 0 .477 0 .9-.053 1.377-.159.424-.105.847-.211 1.324-.422.9-.37 1.642-.846 2.436-1.321l69.384-44.38.053-.053c.582-.37 1.218-.793 1.747-1.268.318-.264.53-.581.689-.846.106-.158.159-.316.212-.475.053-.159.053-.37.053-.528 0-.159 0-.37-.053-.529-.053-.158-.106-.317-.212-.475a4.389 4.389 0 0 0-.689-.846c-.529-.475-1.165-.898-1.747-1.267l-.053-.053-6.409-4.121v.37l6.038 3.91c.265.158.582.369.847.58.318.212.583.423.795.634.317.264.529.529.688.793.212.317.318.687.265 1.004 0 .317-.106.634-.318.95-.159.265-.37.529-.635.74-.477.423-1.113.846-1.642 1.163L93.919 134.05c-.742.476-1.43.898-2.225 1.215h-.106a4.35 4.35 0 0 1-1.112.317c-.424.106-.847.106-1.271.106a6.028 6.028 0 0 1-2.49-.528c-.105-.053-.158-.106-.264-.106-.689-.317-1.271-.74-1.854-1.162l-49.733-33.866a.566.566 0 0 1-.318-.476c0-.159.053-.264.106-.423a.542.542 0 0 1 .318-.264l.476-.264c0-.634.053-1.268.106-1.85l-.423-.316c-.053 0-.053-.053 0-.106 0-.053.053-.053.105 0l.106.053c0-.053.053-.053.053-.106l.265-.158v-.106c0-.105.053-.264.053-.37-.318.212-.635.476-.953.74-.318.317-.583.634-.795.898-.212.37-.317.793-.264 1.163Z" fill="#F8F8F8"/><path opacity=".2" d="M115.741 52.635c-.371-.212-.742-.476-1.113-.687-.211-.106-.37-.212-.582-.317-.212-.106-.424-.212-.636-.264a11.445 11.445 0 0 0-1.271-.37c-.424-.053-.847-.106-1.271-.106-.424 0-.847.053-1.271.106-.424.105-.848.211-1.271.37-.848.317-1.589.74-2.331 1.215L50.701 86.395c1.006.264 1.96.634 2.86 1.004l49.68-30.38s-.053 0-.053-.052c-.053-.053-.106-.053-.159-.106-.053-.052-.053-.052 0-.105s.053-.053.106 0l.106.105c.053 0 .106.053.159.053l.371-.211v-.053a.993.993 0 0 0-.106-.423c-.106-.264-.318-.528-.53-.634-.053-.053-.159-.053-.212-.105-.053 0-.159 0-.159.053a.405.405 0 0 0-.105.21c0 .107 0 .212.053.318 0 .053 0 .105-.053.105s-.053 0-.053-.052c-.053-.106-.053-.264-.053-.37 0-.159.053-.264.159-.317.105-.053.211-.106.317-.053.106 0 .159.053.265.106.053.053.106.053.159.105-.106-.105-.212-.211-.371-.264-.106-.053-.265-.105-.37 0-.053 0-.053.053-.106.106l-.053.053h-.053c-.053 0-.053-.053 0-.106s.053-.106.106-.106l.317-.211c.053-.053.159-.053.265-.053 0-.053 0-.053.053-.053l.053-.053.106-.105.318-.212c.053-.052.159-.052.265-.052 0-.053 0-.053.053-.053l.053-.053.106-.106 4.343-2.641c.158-.106.37-.053.529 0 .106.052.265.158.371.264.212.158.318.422.424.687l.212.158c.053 0 .053.053 0 .106l-.053.053h-.053l-.159-.159-4.343 2.695h-.053s-.053 0-.053-.053v-.106a2.01 2.01 0 0 0-.477-.687 1.125 1.125 0 0 0-.318-.211.451.451 0 0 0-.37 0l-.053.053s-.053 0-.053.053l.053-.053h.105v.106a1.1 1.1 0 0 1 .318.21c.212.212.371.476.53.74v.106l-.424.264h-.053s-.053 0-.053-.052v-.053a2.021 2.021 0 0 0-.476-.687c-.106-.106-.212-.159-.318-.212a.453.453 0 0 0-.371 0l-.053.053s-.053 0-.053.053c.159.053.318.159.424.264.212.212.424.476.529.793h.053v.105l-.264.159h.053l.158.106 7.733-4.703c.212-.158.53-.21.795-.21.159 0 .529.052.794.21l43.643 28.002v-.37l-41.471-26.733Zm-12.606 3.117c0-.053.053-.053.106 0 .159.105.265.264.371.422.053.106.053.159.106.265v.264s0 .053-.053.053h-.053c-.053 0-.053.053-.106.053s-.106 0-.159-.053c-.053 0-.053-.053-.053-.106s.053-.053.106-.053.106.053.159 0v-.158c0-.053-.053-.159-.053-.212-.053-.158-.212-.264-.318-.37-.053 0-.053-.052-.053-.105Zm-.159-.053c.053 0 .106 0 .106.053s0 .105-.053.105-.053.106-.053.159c0 .053-.053.053-.053.053-.053 0-.053-.053-.053-.053-.053-.211 0-.264.106-.317Z" fill="#F8F8F8"/><path opacity=".2" d="M56.102 88.668c.371.211.69.37 1.06.581 2.807 1.638 5.19 3.593 7.468 6.182l4.66-2.853-.635-9.88 14.247-8.718h.053l.583 9.774 28.918-17.91-.211-10.567.423-1.268-56.566 34.659Z" fill="#F8F8F8"/><path opacity=".3" d="M166.427 87.716a3.53 3.53 0 0 1-.741.846c-.53.475-1.165.898-1.748 1.267l-.053.053-69.383 44.38c-.795.529-1.536 1.004-2.436 1.374-.477.211-.9.317-1.325.423-.476.105-.9.158-1.377.158h-.741a3.16 3.16 0 0 1-.689-.105c-.476-.106-.9-.212-1.324-.423l-.635-.317c-.212-.106-.371-.211-.583-.317-.424-.264-.794-.528-1.165-.74l-48.092-32.862-.053-.053c-.53-.37-1.112-.74-1.589-1.215a4.173 4.173 0 0 1-.635-.793.4.4 0 0 1-.106-.211l1.324 23.775c0 .317.106.634.318.898.159.264.37.529.635.793.477.422 1.06.845 1.536 1.215l.053.053 47.562 33.021c.37.264.742.528 1.165.739.212.106.371.212.583.317l.636.317c.423.159.847.317 1.324.423.212.053.423.053.688.106.212 0 .477.052.689 0 .476 0 .9-.053 1.377-.159.424-.106.847-.211 1.324-.423.9-.369 1.589-.845 2.33-1.32l-.741-22.402c0-.053.053-.053.053-.053.053 0 .053.053.053.053l.741 22.296 68.483-44.539-.053-22.242c0-.053.053-.053.053-.053.053 0 .053.053.053.053l.053 22.137c.583-.37 1.165-.793 1.695-1.215.318-.265.529-.582.688-.846.106-.158.159-.317.212-.475.053-.159.053-.37.053-.529l-.053-23.722c0 .106-.053.212-.159.317Z" fill="#ACACAC"/><path opacity=".2" d="m41.22 87.188-.795.475.795-.475ZM60.764 98.97c-.106.052-.212.105-.265.264-.053.105-.053.21-.053.37l.16.105.052.053.212-.159c.106-.052.212-.105.37-.052.107 0 .213.052.319.158.211.159.423.37.53.528.158.212.264.423.317.634.159.106.318.37.318.529l.106.581.053-.053c.053-.106.106-.211.106-.37 0-.211 0-.422-.106-.687a1.997 1.997 0 0 0-.318-.686c-.265-.476-.636-.846-.953-1.11-.16-.106-.265-.158-.371-.211-.265.053-.371.053-.477.105Z" fill="#F8F8F8"/><path opacity=".2" d="M49.853 104.94a.401.401 0 0 1 .212-.106l7.944-4.807c.16-.106.424-.106.636-.053.159.053.37.158.582.264.424.317.9.792 1.219 1.374.053.105.105.158.159.264l.053-.053v-.053s0-.053.052-.053l.265-.158c-.159-.37-.424-.74-.688-.951-.106-.053-.16-.106-.265-.106-.053 0-.159 0-.265.053h-.106v-.106c.106-.053.212-.053.37-.053.054 0 .107 0 .107.053 0 0 0-.053.053-.053.106-.052.212-.052.318-.052.052 0 .158.052.264.105.212.159.424.423.583.74h.106l.053.053.37-.212h.107l.159-.158a2.44 2.44 0 0 0-.265-.528 2.011 2.011 0 0 0-.477-.476c-.106-.053-.159-.106-.265-.106-.053 0-.159 0-.265.053l-.794.476h-.053s-.053 0-.053-.053v-.106l.477-.264-1.166-.792c-.053 0-.053-.053 0-.106 0-.053.053-.053.106 0l.636.422v-.052c0-.264.053-.423.159-.582.053-.052.106-.158.212-.21l4.29-2.748-.16-.159L47.1 106.42l.212.159 2.542-1.638Zm62.551-49.716 41.577 26.84 1.324-.846-42.477-27.315-.424 1.321Zm-65.411 51.09 17.478-10.778c-2.277-2.589-4.608-4.544-7.415-6.129l-1.112-.634-18.273 11.201 9.322 6.34Z" fill="#F8F8F8"/><path opacity=".2" d="M60.604 100.607c-.053-.052-.159-.052-.212-.105h-.159.053l.16.158.529.37c-.106-.211-.265-.37-.37-.423Zm61.175 8.877v1.215l1.112-.687a10.557 10.557 0 0 1-1.112-.528Zm32.36-27.368 3.019 1.955v-.792h.053v-.053l.053-.053s0-.053.053-.053h.053c0-.053.053-.053.053-.106.053 0 .053 0 .106-.052.053-.053.053-.053.106-.053l-2.278-1.48-1.218.687Z" fill="#F8F8F8"/><path opacity=".3" d="M77.977 125.544c-1.271-.845-2.49-1.849-3.76-2.906v-.052l.105-.37-2.065 1.321 6.144 4.173a38.622 38.622 0 0 1-.424-2.166Z" fill="#ACACAC"/><path opacity=".2" d="M52.448 109.114a.402.402 0 0 1 .212-.106l7.839-4.966.159-.159c.105-.106.158-.317.158-.528 0-.264-.053-.529-.105-.846-.106-.264-.212-.528-.371-.792-.318-.528-.742-1.057-1.165-1.321-.212-.106-.371-.211-.53-.264a.626.626 0 0 0-.53.053l-7.944 4.808a.407.407 0 0 1-.212.105l-2.437 1.532 4.29 2.906.636-.422Zm56.354 2.166a2.595 2.595 0 0 0-.9.317 1.247 1.247 0 0 0-.477.422c-.106.159-.212.37-.159.582 0 .317.159.581.477.792.212.159.529.317.9.423.265.053.53.105.848.053.105 0 .211 0 .264.052l.106.053c-.053-.105-.053-.211-.053-.264v-.211c-.106.053-.264.053-.423.053-.106 0-.212 0-.318-.053-.053 0-.106 0-.159-.053-.053 0-.053 0-.106-.053h-.053v-.053c0-.053.053-.053.106-.053h.053c.053 0 .053 0 .106.053.053 0 .106 0 .106.053h.265c.159 0 .37-.053.529-.106l.424-.792c.106-.211.265-.37.477-.423.159-.053.317-.105.529-.105-.159-.265-.423-.423-.635-.529-.265-.158-.583-.211-.901-.264-.37 0-.688 0-1.006.106Zm19.068-24.62a36.17 36.17 0 0 0 5.508 4.28c1.007.634 2.013 1.215 3.072 1.69.159.106.371.159.53.212l6.409-4.069-24.735-16.06c.053.052.106.158.159.21.106.212.318.582.318 1.004l.106 1.85a54.712 54.712 0 0 0 3.972 5.706 40.015 40.015 0 0 0 4.661 5.177Zm.583 16.114h-.053l-.053.053-.106.159.212-.159c.053-.053.053-.053 0-.053Zm7.731-3.224-.212.212.265-.159c-.053 0-.053 0-.053-.053Zm-7.52 3.33-.106.053h.053c.053.053.158.105.211.158.053 0 .106-.053.159-.053-.159 0-.212-.052-.317-.158Zm-.795-3.381.053.052c.318.053.636.106.901.264.212.106.529.317.741.634.159 0 .265.053.424.106l-2.172-1.426.053.37Zm11.864-2.59-3.813 2.43.053.053h.053s0-.053.053-.053l3.707-2.377s0-.053-.053-.053Zm-4.82 3.17c.053 0 .053-.053.106-.053 0-.052 0-.052.053-.105l.053-.053v-.106s0-.053.053-.053l-.106-.052c-.106-.053-.212-.159-.37-.159-.053 0-.159-.053-.212 0v.528l.106.053c.053 0 .053.053.053.053l.264-.053Zm.955-.581-.054.053.054-.053Zm-1.484.475v-.317l-.212.158.212.159Zm-23.886 14.477-.053.053s.053 0 .053.053c.053.053.159.106.212.158.053 0 .053-.052.106-.052-.106-.053-.212-.106-.318-.212Z" fill="#F8F8F8"/><path opacity=".2" d="M126.968 99.762a2.61 2.61 0 0 0-.9.317c-.212.105-.318.264-.424.422a1.02 1.02 0 0 0-.159.529c0 .37.265.687.477.792.212.159.53.317.9.423.265.053.53.106.848.053.106 0 .212 0 .265.053l.106.052c-.053-.105-.053-.158-.053-.264v-.211c-.106.053-.265.053-.424.053-.106 0-.212 0-.318-.053-.053 0-.106 0-.159-.053-.053 0-.053 0-.106-.053h-.053c-.053 0-.053-.053 0-.105 0-.053.053-.053.106 0h.053c.053 0 .053 0 .106.052.053 0 .106 0 .106.053.106 0 .159.053.265.053.159 0 .371-.053.53-.106l.476-.792c.106-.211.265-.317.477-.423.159-.053.318-.105.477-.105-.159-.265-.424-.423-.636-.529a4.493 4.493 0 0 0-.9-.264c-.424 0-.795.053-1.06.106Zm-17.213 11.254.106.053c.318.053.636.105.901.264.212.106.529.317.741.634.159 0 .371.053.53.158l-2.278-1.532v.423Z" fill="#F8F8F8"/><path opacity=".3" d="M125.221 87.875a2.405 2.405 0 0 0-.688-.899 1.253 1.253 0 0 0-.477-.317c-.159-.052-.318-.105-.53-.052l-9.586 2.641c-.053 0-.106.053-.106.053-.106.053-.212.159-.212.317l-2.33 7.08-.53 1.902-.212.687-.159.475c1.589 1.374 3.231 2.536 4.82 3.54.953.581 1.907 1.057 2.86 1.532l11.705-7.45-4.555-9.51Z" fill="#ACACAC"/><path opacity=".3" d="M115.105 103.461c-1.642-1.004-3.284-2.167-4.873-3.593v-.053l.106-.317-1.112.687 4.237 7.555 4.396-2.8a28.422 28.422 0 0 1-2.754-1.479Z" fill="#ACACAC"/><path opacity=".2" d="M107.478 97.754a1.251 1.251 0 0 0-.477-.317c-.159-.053-.318-.158-.529-.105l-1.96.475-6.727 1.585c-.052 0-.052 0-.105.053l-1.325.845 9.163-2.483c.212-.053.477 0 .636.053.159.053.318.211.477.317.264.264.529.581.688.95l4.555 9.617 1.483-.951-5.191-9.194a2.673 2.673 0 0 0-.688-.845Zm2.808 16.59h-.053l-.053.053-.106.159.212-.159c.053-.053.053-.053 0-.053Zm36.597-25.783-1.165-.792v.37l.053.052c.318.053.688.106.953.264.053.053.106.053.159.106Zm-2.065-.158c-.318.053-.635.159-.847.317a1.611 1.611 0 0 0-.424.423c-.106.159-.159.37-.159.528 0 .37.265.687.477.793.212.158.53.317.9.422.265.053.53.106.848.053.106 0 .212 0 .265.053l.105.053c-.053-.106-.053-.159-.053-.264v-.159c-.105.053-.264.053-.423.053-.106 0-.212 0-.318-.053-.053 0-.106 0-.159-.052-.053 0-.053-.053-.106-.053h-.053c-.053 0-.053-.053 0-.106 0-.053.053-.053.106 0h.053c.053 0 .053 0 .106.053.053 0 .106.053.106.053.106 0 .159.053.265.053.212 0 .371-.053.529-.106l.477-.846c.106-.21.265-.316.477-.422a1 1 0 0 1 .423-.106c-.158-.211-.423-.37-.635-.475a4.493 4.493 0 0 0-.9-.264c-.424-.053-.742 0-1.06.052Zm-59.902 37.776c0-.052.053-.105.053-.158l2.224-1.427c.053-.052.106-.052.16 0l1.694 1.163c-.212-.212-.37-.529-.37-.793v-.687c0-.211.052-.475.211-.686.053-.106.159-.159.212-.265l-6.938 4.491c.953.423 1.906.793 2.86 1.057l-.106-2.695Z" fill="#F8F8F8"/><path opacity=".3" d="m82.003 127.711 11.493-7.291-4.608-9.668a2.403 2.403 0 0 0-.688-.899 1.259 1.259 0 0 0-.477-.317c-.159-.052-.318-.105-.53-.052l-9.533 2.536c-.053 0-.106.052-.106.052-.106.053-.16.159-.212.317l-1.377 4.386c.794 2.588 1.483 5.494 2.118 8.717.424.264.848.581 1.272.845.9.476 1.8.951 2.648 1.374Z" fill="#ACACAC"/><path opacity=".3" d="M72.68 106.947c.371-.211.795-.423 1.272-.528.424-.106.847-.159 1.324-.106.424 0 .9.106 1.324.211l.636.159c.211.053.423.158.635.264.424.159.795.37 1.218.581.371.212.742.476 1.112.74.16.158.371.264.53.423.16.158.318.317.477.422.318.317.635.634.9.951l6.091-1.426c.212-.053.477.053.636.105.159.053.318.212.476.317.265.265.53.582.742.899l5.243 9.246 4.767-3.012a36.161 36.161 0 0 1-2.436-1.268c-1.748-1.057-3.496-2.325-5.244-3.804v-.053l.371-1.426c-3.443-3.17-6.673-7.08-9.375-11.412l-1.165.74h-.106c-.053 0-.106 0-.159-.053-.212-.159-.37-.37-.582-.529l-.106-.106c-.477-1.003-.9-2.06-1.324-3.117v-.105c0-.212 0-.423-.053-.687l-11.017 6.868a57.31 57.31 0 0 1 3.39 5.97l.424-.264Z" fill="#ACACAC"/><path opacity=".2" d="M96.938 124.224c-.159-.106-.265-.212-.424-.317l-3.813-2.589-1.271.845 2.489 1.691c.212.106.53.423.53.845.053.106.053.159.106.264.052.265 0 .529-.106.74l-.16.317c-.105.211-.264.317-.476.423-.159.105-.424.158-.636.158-.211 0-.37-.053-.582-.105l-.053.052c-.053.053-.106.053-.159.106a2.694 2.694 0 0 1-1.165.264c-.318 0-.848-.053-1.324-.37l-2.543-1.743-2.224 1.374.106 2.853c.053 0 .053 0 .106-.053.053 0 .053 0 .053.053.053 0 .053-.053.106-.053s.053.053.106.053.053-.053.106-.053.053.053.106.053h.052c.053 0 .106.052.106.052l.053.053h.212l.053.053h.053l.106.106h.053l.106.105s.053 0 .053.053h.053l.106.106h.053l.106.106h.053l.106.105h.053l.106.106h.105l9.004-5.759c.742.264.636.159.53.106Zm50.528-35.134c.106 0 .212 0 .318.053l-.795-.529c.159.106.371.264.477.476Zm-.901 2.43-.106.052h.053a.733.733 0 0 0 .212.159c.053 0 .106-.053.159-.106-.106 0-.212-.053-.318-.106Zm-.211-.158h-.053l-.053.053-.106.158.265-.158s0-.053-.053-.053Z" fill="#F8F8F8"/><path d="m124.215 107.423.529-.792-1.165-.846-.9.582 1.536 1.056Zm.106.105.794.528.901-.581-1.113-.739-.582.792Zm.317-1.214 1.483 1.056.9-.528-1.165-.845-1.218.317Zm-.9-.582.742.529 1.218-.37-1.059-.74-.901.581Zm38.134-18.649-4.501-3.17c-.424-.317-.318-.845.264-1.215.583-.37 1.377-.423 1.801-.106l4.502 3.17c.424.317.318.846-.265 1.215-.529.37-1.324.423-1.801.106Z" fill="#262E31"/><path d="m161.872 87.612-4.501-3.17c-.424-.317-.318-.846.264-1.216.583-.37 1.377-.422 1.801-.105l4.502 3.17c.424.317.318.845-.265 1.215-.529.37-1.324.423-1.801.106Z" stroke="#262E31" stroke-width=".192" stroke-linecap="round" stroke-linejoin="round"/><path d="m88.781 133.574-4.502-3.17c-.423-.317-.318-.845.265-1.215.583-.37 1.377-.423 1.8-.106l4.503 3.17c.424.317.318.846-.265 1.216-.53.369-1.324.422-1.8.105Z" fill="#262E31"/><path d="m88.781 134.103-4.502-3.17c-.423-.317-.318-.846.265-1.215.583-.37 1.377-.423 1.8-.106l4.503 3.17c.424.317.318.845-.265 1.215-.53.37-1.324.423-1.8.106Z" stroke="#262E31" stroke-width=".192" stroke-linecap="round" stroke-linejoin="round"/></svg>