<svg xmlns="http://www.w3.org/2000/svg" width="24" height="24" viewBox="0 0 24 24"><path d="M18.5,9.5a7,7,0,0,1-14,0" style="fill:none;stroke:#949494;stroke-linecap:square;stroke-linejoin:round"/><line x1="2.5" y1="9.5" x2="0.5" y2="9.5" style="fill:none;stroke:#949494;stroke-linecap:square;stroke-linejoin:round"/><line x1="20.5" y1="9.5" x2="22.5" y2="9.5" style="fill:none;stroke:#949494;stroke-linecap:square;stroke-linejoin:round"/><line x1="11.5" y1="20.5" x2="11.5" y2="18.5" style="fill:none;stroke:#949494;stroke-linecap:square;stroke-linejoin:round"/><line x1="19.294" y1="14" x2="21.026" y2="15" style="fill:none;stroke:#949494;stroke-linecap:square;stroke-linejoin:round"/><line x1="3.706" y1="14" x2="1.974" y2="15" style="fill:none;stroke:#949494;stroke-linecap:square;stroke-linejoin:round"/><line x1="7" y1="17.294" x2="6" y2="19.026" style="fill:none;stroke:#949494;stroke-linecap:square;stroke-linejoin:round"/><line x1="16" y1="17.294" x2="17" y2="19.026" style="fill:none;stroke:#949494;stroke-linecap:square;stroke-linejoin:round"/><path d="M16.5,9.5a5,5,0,0,1-7.954,4.034" style="fill:none;stroke:#949494;stroke-linecap:round;stroke-linejoin:round"/><path d="M21.5,3.5H1.5a1,1,0,0,1-1-1V.5" style="fill:none;stroke:#949494;stroke-linecap:square;stroke-linejoin:round"/><path d="M22.5.5v2a1,1,0,0,1-1,1" style="fill:none;stroke:#949494;stroke-linecap:square;stroke-linejoin:round"/><line x1="0.5" y1="0.5" x2="22.5" y2="0.5" style="fill:none;stroke:#949494;stroke-linecap:square;stroke-linejoin:round"/><line x1="4.5" y1="9.5" x2="4.5" y2="3.5" style="fill:none;stroke:#949494;stroke-linecap:square;stroke-linejoin:round"/><line x1="18.5" y1="9.5" x2="18.5" y2="3.5" style="fill:none;stroke:#949494;stroke-linecap:square;stroke-linejoin:round"/><line x1="6.5" y1="5.5" x2="6.5" y2="9.5" style="fill:none;stroke:#949494;stroke-linecap:square;stroke-linejoin:round"/></svg>