<svg width="39" height="22" viewBox="0 0 39 22" fill="none" xmlns="http://www.w3.org/2000/svg">
<path fill-rule="evenodd" clip-rule="evenodd" d="M22.026 3.98516H10.9492C10.5074 3.98516 10.1492 4.34333 10.1492 4.78515V14.6338C10.1492 15.0757 10.5074 15.4338 10.9492 15.4338H22.026C22.4679 15.4338 22.826 15.0757 22.826 14.6338V4.78516C22.826 4.34333 22.4679 3.98516 22.026 3.98516ZM10.9492 2.78516C9.84465 2.78516 8.94922 3.68058 8.94922 4.78515V14.6338C8.94922 15.7384 9.84465 16.6338 10.9492 16.6338H22.026C23.1306 16.6338 24.026 15.7384 24.026 14.6338V4.78516C24.026 3.68059 23.1306 2.78516 22.026 2.78516H10.9492Z" fill="#323A3E"/>
<path fill-rule="evenodd" clip-rule="evenodd" d="M13.2924 15.7085C13.5778 15.877 13.6725 16.2449 13.504 16.5302L11.7378 19.5209C11.5693 19.8063 11.2014 19.901 10.9161 19.7325C10.6308 19.564 10.536 19.1961 10.7045 18.9107L12.4707 15.92C12.6392 15.6347 13.0071 15.54 13.2924 15.7085Z" fill="#323A3E"/>
<path fill-rule="evenodd" clip-rule="evenodd" d="M20.0591 15.7085C19.7738 15.877 19.6791 16.2449 19.8476 16.5302L21.6137 19.5209C21.7822 19.8063 22.1501 19.901 22.4355 19.7325C22.7208 19.564 22.8155 19.1961 22.647 18.9107L20.8809 15.92C20.7124 15.6347 20.3445 15.54 20.0591 15.7085Z" fill="#323A3E"/>
<path fill-rule="evenodd" clip-rule="evenodd" d="M24.5721 9.7085L28.4454 12.9723L28.4454 6.44468L24.5721 9.7085ZM23.6173 8.94379C23.1432 9.34334 23.1432 10.0737 23.6173 10.4732L28.001 14.1671C28.6513 14.7151 29.6454 14.2528 29.6454 13.4024L29.6454 6.01462C29.6454 5.16422 28.6513 4.70193 28.001 5.24991L23.6173 8.94379Z" fill="#323A3E"/>
<path fill-rule="evenodd" clip-rule="evenodd" d="M12.1016 13.1469C12.1016 12.8155 12.3702 12.5469 12.7016 12.5469H16.9326C17.264 12.5469 17.5326 12.8155 17.5326 13.1469C17.5326 13.4782 17.264 13.7469 16.9326 13.7469H12.7016C12.3702 13.7469 12.1016 13.4782 12.1016 13.1469Z" fill="#323A3E"/>
</svg>
