<svg width="16" height="16" viewBox="0 0 16 16" fill="none" xmlns="http://www.w3.org/2000/svg">
<path d="M14 1.80039C14 2.13176 13.7314 2.40039 13.4 2.40039H2.6C2.26863 2.40039 2 2.13176 2 1.80039C2 1.46902 2.26863 1.20039 2.6 1.20039H13.4C13.7314 1.20039 14 1.46902 14 1.80039Z" fill="#ACACAC"/>
<path fill-rule="evenodd" clip-rule="evenodd" d="M12.2422 11.0067L8.42386 14.825C8.18954 15.0594 7.80965 15.0594 7.57534 14.825L3.75696 11.0067C3.52265 10.7724 3.52265 10.3925 3.75696 10.1581C3.99128 9.92383 4.37117 9.92383 4.60549 10.1581L7.3996 12.9523V5.40078C7.3996 5.06941 7.66823 4.80078 7.9996 4.80078C8.33097 4.80078 8.5996 5.06941 8.5996 5.40078V12.9523L11.3937 10.1581C11.628 9.92383 12.0079 9.92383 12.2422 10.1581C12.4765 10.3925 12.4765 10.7724 12.2422 11.0067Z" fill="#ACACAC"/>
</svg>
