<svg width="24" height="24" viewBox="0 0 24 24" fill="none" xmlns="http://www.w3.org/2000/svg">
<path fill-rule="evenodd" clip-rule="evenodd" d="M17.109 17.2385C19.4597 15.6147 21 12.9013 21 9.82812C21 4.85756 16.9706 0.828125 12 0.828125C7.02944 0.828125 3 4.85756 3 9.82812C3 12.6847 4.33081 15.2304 6.40625 16.8791V18.2876C6.40625 19.3922 7.30168 20.2876 8.40625 20.2876H15.109C16.2135 20.2876 17.109 19.3922 17.109 18.2876V17.2385ZM9.20703 22.2418C9.20703 21.7276 9.62387 21.3108 10.1381 21.3108H13.2415C13.7557 21.3108 14.1725 21.7276 14.1725 22.2418C14.1725 22.756 13.7557 23.1729 13.2415 23.1729H10.1381C9.62387 23.1729 9.20703 22.756 9.20703 22.2418ZM18.0961 7.13591C18.2704 7.61809 17.9288 8.10572 17.4244 8.19765C16.92 8.28959 16.4466 7.94696 16.2328 7.48095C16.0953 7.18132 15.918 6.90007 15.7045 6.64521C15.2913 6.15178 14.757 5.77418 14.154 5.5494C13.5509 5.32463 12.8998 5.26039 12.2644 5.36298C11.9362 5.41598 11.6181 5.51254 11.318 5.64909C10.8513 5.86145 10.2692 5.81067 9.94802 5.41102C9.62684 5.01136 9.68772 4.41909 10.1351 4.16864C10.7021 3.85127 11.3223 3.63432 11.9684 3.52999C12.9214 3.37611 13.8979 3.47246 14.8024 3.80958C15.7069 4.14671 16.5083 4.71306 17.1281 5.45312C17.5483 5.95491 17.8752 6.52488 18.0961 7.13591Z" fill="#00AE42"/>
<path d="M18.2818 11.6261C18.7862 11.5342 19.1279 11.0466 18.9535 10.5644C18.8719 10.3387 18.7759 10.1186 18.6659 9.90529C18.4309 9.44958 17.8411 9.36845 17.4307 9.67576L17.375 9.71741C16.9953 10.0017 16.9289 10.5381 17.1186 10.9728C17.3083 11.4076 17.7468 11.7236 18.2135 11.6386L18.2818 11.6261Z" fill="white"/>
</svg>
