<svg width="39" height="22" viewBox="0 0 39 22" fill="none" xmlns="http://www.w3.org/2000/svg">
<path fill-rule="evenodd" clip-rule="evenodd" d="M19.1378 2.58008C15.4675 2.58008 12.4922 5.55543 12.4922 9.2257C12.4922 12.896 15.4675 15.8713 19.1378 15.8713C22.8081 15.8713 25.7834 12.896 25.7834 9.2257C25.7834 5.55543 22.8081 2.58008 19.1378 2.58008ZM10.9922 9.2257C10.9922 4.727 14.6391 1.08008 19.1378 1.08008C23.6365 1.08008 27.2834 4.727 27.2834 9.2257C27.2834 13.7244 23.6365 17.3713 19.1378 17.3713C14.6391 17.3713 10.9922 13.7244 10.9922 9.2257Z" fill="#B3B3B5"/>
<path d="M22.6857 10.7042C22.6857 12.6648 21.0964 14.2541 19.1358 14.2541C17.1753 14.2541 15.5859 12.6648 15.5859 10.7042C15.5859 8.74364 17.1753 7.1543 19.1358 7.1543C21.0964 7.1543 22.6857 8.74364 22.6857 10.7042Z" fill="#F94035"/>
<path fill-rule="evenodd" clip-rule="evenodd" d="M19.1358 7.9043C17.5895 7.9043 16.3359 9.15786 16.3359 10.7042C16.3359 12.2505 17.5895 13.5041 19.1358 13.5041C20.6822 13.5041 21.9357 12.2505 21.9357 10.7042C21.9357 9.15786 20.6822 7.9043 19.1358 7.9043ZM14.8359 10.7042C14.8359 8.32943 16.7611 6.4043 19.1358 6.4043C21.5106 6.4043 23.4357 8.32943 23.4357 10.7042C23.4357 13.079 21.5106 15.0041 19.1358 15.0041C16.7611 15.0041 14.8359 13.079 14.8359 10.7042Z" fill="#B3B3B5"/>
<path fill-rule="evenodd" clip-rule="evenodd" d="M22.449 15.0801L25.4408 20.262H12.832L15.8187 15.0889L16.4351 15.3623C17.2567 15.7266 18.1667 15.9294 19.126 15.9294C20.0911 15.9294 21.0062 15.7241 21.8318 15.3556L22.449 15.0801ZM21.8116 16.976C20.97 17.2699 20.066 17.4294 19.126 17.4294C18.1924 17.4294 17.2944 17.2721 16.4577 16.9821L15.4301 18.762H22.8427L21.8116 16.976Z" fill="#B3B3B5"/>
<path fill-rule="evenodd" clip-rule="evenodd" d="M12.5195 19.4199C12.5195 19.0057 12.8553 18.6699 13.2695 18.6699H24.7325C25.1468 18.6699 25.4825 19.0057 25.4825 19.4199C25.4825 19.8341 25.1468 20.1699 24.7325 20.1699H13.2695C12.8553 20.1699 12.5195 19.8341 12.5195 19.4199Z" fill="#B3B3B5"/>
</svg>
