<svg width="37" height="20" viewBox="0 0 37 20" fill="none" xmlns="http://www.w3.org/2000/svg">
<path fill-rule="evenodd" clip-rule="evenodd" d="M30.6849 9.81265L28.0135 13.1775L30.6849 16.5429L30.6849 9.81265ZM32.1669 8.3969C32.1669 7.44177 30.9933 7.00212 30.4088 7.73831L26.6068 12.5273C26.3137 12.8966 26.3165 13.4294 26.6136 13.8037L30.4156 18.5936C31.0045 19.3355 32.1669 18.9255 32.1669 17.9758L32.1669 8.3969Z" fill="#323A3D"/>
<path fill-rule="evenodd" clip-rule="evenodd" d="M13.4961 7.37213V18.1573H24.9643V7.37213H13.4961ZM12.9961 5.87213C12.4438 5.87213 11.9961 6.31985 11.9961 6.87213V18.6573C11.9961 19.2095 12.4438 19.6573 12.9961 19.6573H25.4643C26.0166 19.6573 26.4643 19.2095 26.4643 18.6573V6.87213C26.4643 6.31985 26.0166 5.87213 25.4643 5.87213H12.9961Z" fill="#323A3D"/>
<path d="M20.2641 14.5496C20.2641 16.261 18.8767 17.6484 17.1653 17.6484C15.4538 17.6484 14.0664 16.261 14.0664 14.5496C14.0664 12.8381 15.4538 11.4507 17.1653 11.4507C18.8767 11.4507 20.2641 12.8381 20.2641 14.5496Z" fill="#FF6F00"/>
<path fill-rule="evenodd" clip-rule="evenodd" d="M17.1653 16.1484C18.0483 16.1484 18.7641 15.4326 18.7641 14.5496C18.7641 13.6666 18.0483 12.9507 17.1653 12.9507C16.2822 12.9507 15.5664 13.6666 15.5664 14.5496C15.5664 15.4326 16.2822 16.1484 17.1653 16.1484ZM17.1653 17.6484C18.8767 17.6484 20.2641 16.261 20.2641 14.5496C20.2641 12.8381 18.8767 11.4507 17.1653 11.4507C15.4538 11.4507 14.0664 12.8381 14.0664 14.5496C14.0664 16.261 15.4538 17.6484 17.1653 17.6484Z" fill="#323A3D"/>
<path fill-rule="evenodd" clip-rule="evenodd" d="M10.2877 2.5C6.53919 2.5 3.5 5.53919 3.5 9.28767C3.5 13.0361 6.53919 16.0753 10.2877 16.0753C10.7019 16.0753 11.0377 16.4111 11.0377 16.8253C11.0377 17.2395 10.7019 17.5753 10.2877 17.5753C5.71076 17.5753 2 13.8646 2 9.28767C2 4.71076 5.71076 1 10.2877 1C12.6305 1 14.7474 1.97328 16.2539 3.5355C16.5414 3.83367 16.5328 4.30846 16.2346 4.59599C15.9365 4.88351 15.4617 4.87489 15.1742 4.57673C13.9386 3.2955 12.2066 2.5 10.2877 2.5Z" fill="#323A3D"/>
<path fill-rule="evenodd" clip-rule="evenodd" d="M9.69824 3.97412C10.1125 3.97412 10.4482 4.30991 10.4482 4.72412V9.08574H10.8679C11.2821 9.08574 11.6179 9.42153 11.6179 9.83574C11.6179 10.25 11.2821 10.5857 10.8679 10.5857H10.0812C9.45552 10.5857 8.94824 10.0785 8.94824 9.45274V4.72412C8.94824 4.30991 9.28403 3.97412 9.69824 3.97412Z" fill="#323A3D"/>
<path fill-rule="evenodd" clip-rule="evenodd" d="M15.964 1.58698C16.3782 1.58698 16.714 1.92276 16.714 2.33698V3.78976C16.714 4.41832 16.2472 4.94912 15.6239 5.0295L13.9593 5.24413C13.5485 5.2971 13.1725 5.00701 13.1195 4.5962C13.0666 4.18538 13.3566 3.80941 13.7675 3.75644L15.214 3.56992V2.33698C15.214 1.92276 15.5498 1.58698 15.964 1.58698Z" fill="#323A3D"/>
</svg>
