<svg width="120" height="120" viewBox="0 0 120 120" fill="none" xmlns="http://www.w3.org/2000/svg">
<rect x="0.25" y="0.25" width="119.5" height="119.5" fill="#EEEEEE" stroke="#BEBEBE" stroke-width="0.5"/>
<path d="M40.5164 44.1298H31.8016C30.6815 44.1298 28.4414 43.5922 28.4414 41.4417C28.4414 39.377 30.5063 38.8816 31.6623 38.885C31.7387 38.8852 31.8015 38.8246 31.8034 38.7483C31.8437 37.1414 32.5812 34.1836 35.2962 34.1836C38.023 34.1836 39.3518 35.9737 39.7067 36.9349C39.723 36.9792 39.7591 37.0121 39.805 37.0231C41.0363 37.318 43.3608 38.3929 43.3608 40.5008C43.3608 42.6361 41.5056 43.7997 40.5583 44.123C40.5446 44.1277 40.5308 44.1298 40.5164 44.1298Z" stroke="#AEAEAE" stroke-width="0.672043" stroke-linecap="round"/>
<path d="M76.3708 34.1828H70.8827C70.1764 34.1828 68.7637 33.8486 68.7637 32.5118C68.7637 31.2583 70.0058 30.9353 70.7429 30.9228C70.8192 30.9216 70.8825 30.8614 70.8856 30.7851C70.9257 29.7758 71.4039 28 73.0865 28C74.7809 28 75.6193 29.0803 75.8576 29.6836C75.875 29.7275 75.9119 29.7605 75.9577 29.7718C76.7408 29.9643 78.1723 30.632 78.1723 31.9269C78.1723 33.2489 77.0118 33.9717 76.4122 34.1761C76.3987 34.1807 76.385 34.1828 76.3708 34.1828Z" stroke="#AEAEAE" stroke-width="0.672043" stroke-linecap="round"/>
<line x1="15.672" y1="77.5975" x2="87.9839" y2="77.5975" stroke="#AEAEAE" stroke-width="1.34409" stroke-linecap="round"/>
<line x1="42.0158" y1="85.1248" x2="114.328" y2="85.1248" stroke="#AEAEAE" stroke-width="1.34409" stroke-linecap="round"/>
<line x1="93.8986" y1="77.5975" x2="101.157" y2="77.5975" stroke="#AEAEAE" stroke-width="1.34409" stroke-linecap="round"/>
<line x1="24.8127" y1="85.1248" x2="32.0707" y2="85.1248" stroke="#AEAEAE" stroke-width="1.34409" stroke-linecap="round"/>
<path d="M81.1296 77.731C81.1296 65.2601 69.3349 55.1504 54.7855 55.1504C40.2361 55.1504 28.4414 65.2601 28.4414 77.731" stroke="#AEAEAE" stroke-width="1.34409" stroke-linecap="round"/>
<line x1="40.5376" y1="30.271" x2="44.3011" y2="30.271" stroke="#AEAEAE" stroke-width="1.07527" stroke-linecap="round"/>
<line x1="42.271" y1="32.3022" x2="42.271" y2="28.5388" stroke="#AEAEAE" stroke-width="1.07527" stroke-linecap="round"/>
<line x1="58.8189" y1="45.6206" x2="61.2382" y2="45.6206" stroke="#AEAEAE" stroke-width="1.07527" stroke-linecap="round"/>
<line x1="59.7729" y1="47.0854" x2="59.7729" y2="44.6661" stroke="#AEAEAE" stroke-width="1.07527" stroke-linecap="round"/>
<circle cx="91.4783" cy="60.3924" r="2.28495" fill="#C4C4C4"/>
</svg>
