<svg width="200" height="200" fill="none" xmlns="http://www.w3.org/2000/svg"><g clip-path="url(#a)"><path opacity=".2" d="M167.235 76.748c-.363-.735-1.109-1.282-2.016-1.504a.992.992 0 0 1-.322-.103v-3.573s0-.017-.02-.017l-.02-.017-.021-.018-.02-.017h-.06l-1.028.017h-.867v-2.36a.864.864 0 0 0-.342-.598l-2.862-2.308-5.825-4.838h-.02l-.02-.017h-3.87l-117.16.102h-1.169l-.02.017s0 .017-.02.017v9.985h-.967c-.041 0-.061.017-.081.035l-.02.017v61.192c.02.256.14.512.362.718l5.22 4.856h.02c.02.017.04.017.06.034h.021l1.512.085.987.051.484.035c.423.017 1.008.034 1.612.034.605 0 1.25-.017 1.693-.017l18.744-.547c0 .017.02.034.04.051a.17.17 0 0 0 .101.034c.04 0 .081-.017.121-.051l.04-.034 101.863-2.958c.02 0 .04 0 .061-.017h.02c.02 0 .02-.018.04-.035l1.048-1.384c.242-.325.383-.684.403-1.061v-6.343a.72.72 0 0 0-.201-.325l-.121-.136-.081-.103a4.05 4.05 0 0 1-.665-1.06v-.12c0-.051-.04-.102-.101-.12v-.034a3.078 3.078 0 0 1-.484-1.641l.021-15.696c0-.581.161-1.145.483-1.675a4.54 4.54 0 0 1 .766-1.231l.161-.189.021-.034c.04-.034.06-.068.1-.119.061-.052.101-.12.101-.188l.02-22.347c.101-.052.202-.086.323-.12a3.115 3.115 0 0 0 1.451-.786c.383-.377.645-.821.786-1.3a2.83 2.83 0 0 0-.282-2.24Z" fill="#D7D7D8"/><path d="M150.284 61.342h3.507c.02 0 .02.017.02.017h.02l5.825 4.822 2.862 2.36a.869.869 0 0 1 .343.597v2.36h.866l1.028-.017h.061l.02.017.02.017.02.017s0 .017.02.017v3.574a1 1 0 0 0 .323.102c.907.223 1.652.77 2.015 1.505.383.718.464 1.522.242 2.274a3.003 3.003 0 0 1-.786 1.3 2.971 2.971 0 0 1-1.451.786 1.724 1.724 0 0 0-.323.12l-.04 22.38c-.02.069-.04.137-.101.189-.04.034-.06.085-.101.119l-.02.034-.161.189a3.703 3.703 0 0 0-.766 1.231v.017a3.148 3.148 0 0 0-.484 1.675l-.02 15.696c0 .581.162 1.146.484 1.641v.035c.06.017.101.068.101.119v.103c.161.376.383.735.665 1.06l.081.102.12.137a.713.713 0 0 1 .202.325v6.343c-.02.377-.161.753-.403 1.06l-1.048 1.385-.04.035h-.021c-.02 0-.04.017-.06.017L61.421 138.06l-.04.034c-.02.034-.06.051-.12.051-.041 0-.061-.017-.102-.034-.02-.017-.04-.034-.04-.051l-18.744.547c-.443.017-1.068.017-1.693.017s-1.21 0-1.612-.034l-.484-.035-.988-.051-1.511-.085h-.02c-.02 0-.04-.017-.06-.035h-.021l-5.24-4.838a1.27 1.27 0 0 1-.363-.718V71.635c0-.017.02-.017.02-.017a.165.165 0 0 1 .08-.034h.988v-9.986s0-.017.02-.017l.02-.017h1.19l117.14-.102h.362m0-.377h-.362l-117.14.103h-1.169l-.02.017c-.04 0-.06 0-.101.017l-.06.017h-.02l-.02.018v-.069l-.041.017-.02.017-.04.052c-.02.017-.02.034-.041.05-.02.018-.02.035-.04.052v.034c0 .035-.02.069-.02.086 0 .034-.02.051-.02.085v9.558h-.585a.808.808 0 0 0-.343.12l-.06.034-.02.034-.02.017-.02.017-.02.017-.021.017v.052c.02.017 0 .051 0 .085v61.279c.02.342.161.649.423.906l.04.034.04.034h.021l5.14 4.856.04.034.04.017c.04.017.06.034.1.051.021.018.061.018.102.035.04.017.08.017.12.017l1.512.085.988.052.483.034c.484.034 1.17.034 1.653.034.585 0 1.23 0 1.713-.017l18.563-.53c.1.051.201.068.302.068a.776.776 0 0 0 .343-.085l101.701-2.941a.619.619 0 0 0 .242-.051l.04-.017.041-.017c.02-.018.06-.035.08-.052l.04-.017.041-.051 1.008-1.334.04-.051.04-.034a2.52 2.52 0 0 0 .444-1.214v-6.412a1.176 1.176 0 0 0-.262-.479l-.101-.119-.02-.035-.081-.102a4.087 4.087 0 0 1-.584-.906v-.035a.438.438 0 0 0-.182-.359 2.834 2.834 0 0 1-.403-1.436l.02-15.696c0-.53.161-1.043.444-1.504v-.017l.02-.017v-.017c.161-.411.403-.787.705-1.129.061-.068.101-.12.161-.171l.021-.034.12-.12a.596.596 0 0 0 .182-.325v-.136l.02-22.04.06-.016h.021a3.57 3.57 0 0 0 1.612-.89c.423-.427.726-.923.887-1.453.262-.838.161-1.727-.262-2.513-.423-.838-1.27-1.47-2.298-1.71l.04-3.3v-.068l-.02-.034v-.018c0-.034-.02-.05-.04-.085-.02-.034-.04-.051-.06-.086a.262.262 0 0 0-.061-.068c-.02-.017-.06-.034-.081-.051a.457.457 0 0 0-.1-.051.431.431 0 0 0-.141-.035h-.081l-1.028.017h-.423v-2.051a1.165 1.165 0 0 0-.423-.821l-.041-.017-.04-.034-.02-.017-2.822-2.274-5.905-4.84c-.02-.016-.061-.033-.081-.05-.04-.017-.06-.035-.101-.052-.04-.017-.08-.017-.121-.034-.04 0-.06-.017-.1-.017h-2.419l-1.149.086Z" fill="#535354"/><path d="M151.514 100.188c-.141-.206-.403-.36-.705-.394-.061 0-.101-.017-.162-.017-.1 0-.201 0-.302.034a.997.997 0 0 0-.564.411 1.369 1.369 0 0 0-.222.53c-.101.308-.04.633.121.906.101.137.242.24.403.325.161.068.343.103.524.12a1.01 1.01 0 0 0 .706-.223c.241-.222.403-.513.403-.82a1.13 1.13 0 0 0-.202-.872Zm-2.217.411a.79.79 0 0 0 .181-.411.777.777 0 0 0-.02-.427.591.591 0 0 0-.262-.308 4.195 4.195 0 0 0-.504-.188c-.242-.068-.464-.154-.685-.222l-.847 2.274c.161.051.323.12.484.171l.302-.872.303.102a2.3 2.3 0 0 0 .503.103.83.83 0 0 0 .283-.051.546.546 0 0 0 .262-.171Zm8.041 1.077-.524-2.154c.283-.069.565-.154.847-.24a2.43 2.43 0 0 1 .484-.102.45.45 0 0 1 .322.136.852.852 0 0 1 .182.274c.06.137.06.29 0 .445a.658.658 0 0 1-.363.341c.101.018.201.052.282.086.121.068.262.154.363.256l.423.308-.544.205c-.161-.119-.323-.222-.484-.342a4.85 4.85 0 0 0-.343-.239.252.252 0 0 0-.161-.051.856.856 0 0 0-.222.034l-.08.034c.08.291.161.599.242.889-.121.034-.282.069-.424.12Zm-92.612-4.241a1.051 1.051 0 0 0-.806-.29c-.443-.018-.867.239-1.008.598-.08.188-.1.376-.1.564-.02.257.06.53.242.752.18.223.483.36.785.36.343.017.666-.086.887-.308.222-.24.323-.53.303-.838a1.101 1.101 0 0 0-.303-.838Zm.847 5.42a1.053 1.053 0 0 0-.806-.291 1.51 1.51 0 0 0-.484.086c-.241.12-.423.291-.503.513a1.387 1.387 0 0 0-.101.564c-.02.257.06.53.242.752a1 1 0 0 0 .786.359c.342.035.665-.085.887-.307.201-.24.322-.53.302-.838 0-.308-.1-.599-.323-.838Zm0-24.961c.222-.24.322-.53.302-.838.02-.29-.08-.598-.302-.838a1.052 1.052 0 0 0-.806-.29c-.161 0-.343.034-.484.085a.928.928 0 0 0-.504.496c-.08.188-.1.376-.1.564-.02.274.08.53.241.77.182.222.504.341.806.341.323.035.645-.068.847-.29Z" fill="#040000"/><path d="m38.766 66.643-7.094-5.061m127.883 4.736 2.862 2.309M30.545 71.652l11.73.513m122.481 4.394v2.906m-94.949-7.419 63.245-.308M80.97 90.186l15.862-.069m-11.629.053.04 7.3m79.088 36.145L163.283 135m-38.959-22.005v-7.198m-.504 0v7.215m-33.153-22.86h-.524v7.216h.524v-7.216Zm-26.505 44.83-2.902 3.044m71.791-66.289 14.451-.034m16.246-.067 1.028-.017m-17.415 5.145a12.181 12.181 0 0 1 5.261-1.23c1.854.016 3.648.46 5.22 1.299m-2.641-2.89.302 1.984m-5.058-2.137-.746 2.136m-2.197-4.222 2.499-.034m-31.622 41.512v-7.284m3.83-.067 1.189-.034m-.384 7.232.463-.017m7.418-45.84c.12 0 .241 0 .362.017l.363.051c.242.052.484.12.706.188" stroke="#040000" stroke-width=".5" stroke-linecap="round" stroke-linejoin="round"/><path d="M67.79 99.317h-.464v-2.189l1.552-.017v.376H67.79v.53l.947-.017v.377h-.947v.94Z" fill="#040000"/><path d="M65.23 103.113a.561.561 0 0 0-.402-.171.645.645 0 0 0-.504.188.994.994 0 0 0-.181.564c-.02.205.04.393.18.564a.662.662 0 0 0 .404.188.541.541 0 0 0 .484-.205.956.956 0 0 0 .181-.564.673.673 0 0 0-.161-.564Z" fill="#fff"/><path d="m67.609 104.019-.927-1.453-.444.017v2.188l.424-.017v-1.419l.927 1.419.443-.017.02-2.188h-.443v1.47Zm-.664-6.875-1.552.018v2.188l.463-.017v-.923l.947-.017v-.36h-.947v-.512l1.089-.017v-.36Z" fill="#040000"/><path d="M64.384 97.693a.611.611 0 0 0-.423-.171.645.645 0 0 0-.504.188.994.994 0 0 0-.182.564c-.02.205.04.393.182.564.1.12.262.188.423.188a.541.541 0 0 0 .484-.205.955.955 0 0 0 .181-.564.843.843 0 0 0-.161-.564Z" fill="#fff"/><path d="M64.728 124.091a1.052 1.052 0 0 0-.806-.29c-.162 0-.343.034-.484.085-.242.12-.424.291-.504.513-.08.188-.1.376-.1.564-.021.257.06.53.241.753.181.222.484.359.786.359.343.017.665-.086.887-.308.221-.24.322-.53.302-.838 0-.308-.1-.598-.322-.838Zm3.062 1.88h-.464v-2.188l1.552-.017v.376l-1.088.017v.513l.947-.017v.376l-.947.017v.923Zm-.845-2.17-1.552.017v2.188h.463v-.94l.947-.017v-.359l-.947.017v-.53l1.089-.017v-.359Z" fill="#040000"/><path d="M64.384 124.365a.544.544 0 0 0-.423-.171.64.64 0 0 0-.504.188.955.955 0 0 0-.182.564c-.02.205.04.393.182.564.1.12.262.188.423.188a.54.54 0 0 0 .484-.205.955.955 0 0 0 .181-.564.793.793 0 0 0-.161-.564Z" fill="#fff"/><path d="M69.341 105.693a9.438 9.438 0 0 0-2.197-.341m2.278.358c-.02 0-.06 0-.08-.017m.443-.324c0 .086-.04.171-.101.24a.352.352 0 0 1-.262.102m79.41-5.949c.06.034.121.085.141.154" stroke="#040000" stroke-width=".5" stroke-linecap="round" stroke-linejoin="round"/><path d="M148.995 99.914c.04.069.04.154.02.222-.02.12-.141.223-.282.24h-.04a2.315 2.315 0 0 1-.343-.069l-.262-.085c.081-.222.141-.427.222-.65.08.017.141.052.221.069.101.034.222.068.323.102M64.325 77.637c.181.205.544.256.806.085.04-.034.08-.051.1-.085a.968.968 0 0 0 0-1.129.572.572 0 0 0-.443-.188.698.698 0 0 0-.484.188.956.956 0 0 0-.181.565c0 .205.08.41.202.564Zm86.262 24.055a.565.565 0 0 1-.504-.273.776.776 0 0 1-.061-.599.797.797 0 0 1 .282-.53.566.566 0 0 1 .464-.119.547.547 0 0 1 .403.239.883.883 0 0 1 .081.599.933.933 0 0 1-.242.547.544.544 0 0 1-.423.136Zm7.658-1.76a.335.335 0 0 1-.08.137 1.499 1.499 0 0 1-.383.154l-.323.102c-.04-.188-.1-.359-.141-.547l.323-.103c.04-.017.262-.085.302-.085h.061c.1 0 .161.051.201.137.04.05.04.136.04.205Z" fill="#fff"/><path d="m154.898 99.882.242 2.205c.625-.068 1.25-.188 1.875-.325l-.081-.359c-.443.103-.887.188-1.33.257a6.19 6.19 0 0 1-.081-.599c.383-.051.786-.12 1.169-.205-.02-.12-.06-.239-.08-.359-.383.086-.746.154-1.129.205-.02-.171-.04-.325-.061-.496.404-.051.787-.136 1.19-.222-.021-.12-.061-.24-.081-.359-.564.103-1.109.188-1.633.257Z" fill="#040000"/><path d="m122.207 105.83-8.223.137m26.887-20.174c-.06 1.214.081 2.445.423 3.625.343 1.18.927 2.308 1.693 3.334.383.513.827.991 1.331 1.436.483.444 1.027.838 1.612 1.197.584.359 1.209.65 1.874.889.665.24 1.351.41 2.056.513m7.842-2.121-1.472 2.958m-5.402-2.001a9.459 9.459 0 0 0 5.16-.223m-5.684 2.31-1.37-2.735m5.402-23.306 9.412-.034m-93.276 43.43c.544.273.725.871.383 1.333 0 .017-.02.034-.02.034-.363.462-1.089.582-1.653.291m-1.875-3.028c.504.257 1.028.479 1.592.667a15.6 15.6 0 0 1 1.572.684m-1.29 1.677a14.353 14.353 0 0 1-1.41-.889 14.312 14.312 0 0 0-1.412-.906m-3.989 2.838c.241.239.503.444.785.649m1.371-2.667-2.157 2.018m8.465-2.395 1.31-1.248m-8.202.77-2.217 2.086m-.525-.907c.14.308.301.616.503.906m2.036-3.283-2.54 2.377m3.791-4.941-4.133 3.864m7.598-2.94 2.136-2m-2.659 1.093 1.874-1.744m-.624 4.736 2.56-2.394m-2.722 1.164 2.217-2.086m-1.29 3.984 2.117-1.984m-3.628 6.19 3.305-3.112m-3.809-6.138.947-.889m-2.52 6.052c-.283-.154-.444-.445-.383-.718m-.019-.018c.04-.239.242-.444.504-.547a1 1 0 0 1 .826.051m-2.682-4.992-3.466 3.249m6.793 4.752.463-.444m-3.407 1.812-.886.838m.888-2.222-1.814 1.709m8.564-2.495c-.563 1.351-1.712 2.514-3.304 3.095m-.504-.907 1.39-1.299m2.741-3.967c.08.428.12.872.08 1.3m-8.201.768a2.814 2.814 0 0 1-.202-1.214m6.067-4.274c.282.205.544.411.786.65m.643.77c.202.291.363.599.504.923m-6.752-2.018-4.232 3.983m7.176-5.146c.322.086.624.189.927.325m-.927 7.181.1-.068m.847-7.129c.322.137.645.325.927.513m-1.874 2.273v-3.095m2.66 1.489c.242.239.463.495.645.786m.503.905c.141.342.262.718.323 1.077" stroke="#040000" stroke-width=".5" stroke-linecap="round" stroke-linejoin="round"/><path d="M69.12 114.466c.121-.513.1-1.06-.1-1.556a2.621 2.621 0 0 0-1.069-1.248m4.193 2.461a5.5 5.5 0 0 1-.423 1.778m-3.285 3.113a2.477 2.477 0 0 1-.504.154m0-.001v-3.095m-4.756 2.326a6.18 6.18 0 0 0 1.814.804m-.867-3.95c-.08-.12-.141-.24-.182-.359m1.047 4.309v-3.095m.002 0a2.524 2.524 0 0 1-.867-.855m-2.398 1.727c.201.273.403.53.665.769m-1.634-4.035c-.04.803.121 1.607.444 2.376m-.061-4.138a5.242 5.242 0 0 0-.383 1.744m2.982.001c.06-.787.504-1.522 1.25-2.001m0-3.111a6.04 6.04 0 0 0-2.398 1.299 5.466 5.466 0 0 0-1.451 2.069m3.849-.273v-3.095" stroke="#040000" stroke-width=".5" stroke-linecap="round" stroke-linejoin="round"/><path d="M66.903 106.873a7.668 7.668 0 0 0-5.502 2.052c-1.39 1.334-2.197 3.009-2.318 4.787-.06.872.04 1.761.323 2.616.262.855.725 1.659 1.33 2.377a7.242 7.242 0 0 0 5.22 2.513" stroke="#040000" stroke-width=".5" stroke-linecap="round" stroke-linejoin="round"/><path d="M71.137 119.236a7.737 7.737 0 0 1-5.362 1.967" stroke="#040000" stroke-width=".5" stroke-linecap="round" stroke-linejoin="round"/><path d="M66.742 106.873c1.572.103 3.064.667 4.192 1.59a7.618 7.618 0 0 1 1.451 1.556c.383.581.686 1.197.887 1.829.403 1.283.403 2.633.04 3.933-.362 1.299-1.108 2.496-2.176 3.471m-4.676-6.668c-.483 0-.947.171-1.25.479a1.62 1.62 0 0 0-.503 1.111c-.02.41.12.804.423 1.128.282.325.746.531 1.21.548" stroke="#040000" stroke-width=".5" stroke-linecap="round" stroke-linejoin="round"/><path d="M68.052 113.866c-.06-.342-.262-.649-.544-.889a1.673 1.673 0 0 0-1.069-.393m-.099 3.266c.463 0 .927-.154 1.23-.461m-1.23-25.801a1.73 1.73 0 0 0 .967-.256m.745-1.745c-.06-.342-.262-.65-.544-.89a1.671 1.671 0 0 0-1.069-.392" stroke="#040000" stroke-width=".5" stroke-linecap="round" stroke-linejoin="round"/><path d="M66.46 86.305c-.483 0-.947.17-1.25.478a1.621 1.621 0 0 0-.503 1.112c-.02.41.12.803.423 1.128.282.325.746.53 1.21.547m.402-8.976c1.572.102 3.064.667 4.192 1.59a7.602 7.602 0 0 1 1.451 1.556c.383.581.686 1.197.887 1.83.403 1.282.403 2.632.04 3.932-.362 1.3-1.108 2.496-2.176 3.47m.001.001a7.734 7.734 0 0 1-5.362 1.966" stroke="#040000" stroke-width=".5" stroke-linecap="round" stroke-linejoin="round"/><path d="M66.903 80.594a7.664 7.664 0 0 0-5.502 2.052c-1.39 1.333-2.197 3.009-2.318 4.787a6.83 6.83 0 0 0 .323 2.616c.262.855.725 1.658 1.33 2.376a7.244 7.244 0 0 0 5.22 2.514m-.968-9.522v-3.095" stroke="#040000" stroke-width=".5" stroke-linecap="round" stroke-linejoin="round"/><path d="M64.988 82.322a6.23 6.23 0 0 0-2.398 1.283 5.458 5.458 0 0 0-1.451 2.068m2.599 1.743c.06-.786.504-1.521 1.25-2m-3.849.274a5.24 5.24 0 0 0-.383 1.743m0 .001c-.04.803.121 1.607.444 2.376m.525.907c.201.273.403.53.665.77m2.6-1.642a2.525 2.525 0 0 1-.867-.855m.865 3.948v-3.094m-.865-.854c-.08-.12-.141-.24-.182-.36m-.765 3.505a6.209 6.209 0 0 0 1.814.803m2.942-.05V89.81m.504 2.924a2.38 2.38 0 0 1-.504.154m4.212-5.027a5.5 5.5 0 0 1-.423 1.778m-2.601-1.452c.121-.513.1-1.06-.1-1.556a2.621 2.621 0 0 0-1.069-1.248m3.789.084c.141.342.262.7.323 1.077m-1.471-2.769c.242.24.463.496.645.787m-3.305.82v-3.095m.947.324c.322.137.645.325.927.513m-1.874 6.686.1-.068" stroke="#040000" stroke-width=".5" stroke-linecap="round" stroke-linejoin="round"/><path d="M68.052 78.15v-2.19h-.423v1.454l-.927-1.453h-.464v2.189h.444v-1.42l.907 1.42h.463Z" fill="#040000"/><path d="m163.284 135-24.005.684-96.904 2.804m-.101-66.322-.202 63.381M84.84 110.43l-1.35.034m77.677-17.747a10.74 10.74 0 0 1-.806 1.111c-.303.36-.605.701-.947 1.026a11.856 11.856 0 0 1-2.318 1.693m-5.219-.735a9.5 9.5 0 0 0 3.809-.325c1.371-.41 2.62-1.077 3.648-1.966a9.635 9.635 0 0 0 3.326-6.241c.282-2.342-.323-4.685-1.774-6.702-.766-1.06-1.794-1.966-3.023-2.668a9.615 9.615 0 0 0-7.377-.82c-1.39.41-2.64 1.077-3.648 1.966a9.633 9.633 0 0 0-3.325 6.24c-.282 2.343.322 4.685 1.773 6.703a9.308 9.308 0 0 0 3.024 2.667 9.86 9.86 0 0 0 3.567 1.146Z" stroke="#040000" stroke-width=".5" stroke-linecap="round" stroke-linejoin="round"/><path d="M153.126 85.946a.267.267 0 0 1-.161-.068.177.177 0 0 1-.061-.137v-1.624c0-.052.02-.103.061-.154a.267.267 0 0 1 .161-.069c.06 0 .121.035.161.069a.177.177 0 0 1 .061.137v1.624c0 .051-.02.103-.061.154-.02.051-.08.068-.161.068Z" fill="#040000"/><path d="M153.791 84.68v-.461c.565.17 1.048.53 1.31.991.262.462.383.975.303 1.488-.061.513-.323.992-.746 1.368-.746.718-2.056.803-2.902.17a1.666 1.666 0 0 1-.363-.358 2.214 2.214 0 0 1-.524-1.573 2.38 2.38 0 0 1 .443-1.249 2.338 2.338 0 0 1 1.169-.82v.462a1.92 1.92 0 0 0-.967.82 1.77 1.77 0 0 0-.222 1.146c.04.393.242.77.544 1.06.585.598 1.633.667 2.318.17a.577.577 0 0 0 .161-.136c.323-.29.544-.667.605-1.077.081-.393 0-.804-.181-1.18-.162-.342-.504-.65-.948-.82Z" fill="#040000"/><path d="M147.362 76.764a10.92 10.92 0 0 0-1.854 1.077" stroke="#040000" stroke-width=".5" stroke-linecap="round" stroke-linejoin="round"/><path d="M152.42 102.206h.423c.161-.547.323-1.111.464-1.675.141.564.302 1.111.483 1.658.162 0 .343-.017.504-.034.141-.752.282-1.505.363-2.274-.141.017-.282.034-.423.034-.081.53-.161 1.06-.242 1.573-.161-.513-.302-1.026-.443-1.539l-.504.017c-.141.513-.282 1.026-.444 1.522-.101-.513-.181-1.026-.262-1.539-.141 0-.282-.017-.423-.017.101.752.222 1.505.363 2.257" fill="#040000"/><path d="M39.896 67.173a5.049 5.049 0 0 1-1.128-.53M157.842 76.85a10.551 10.551 0 0 1 3.628 3.18c.907 1.282 1.511 2.701 1.773 4.172.282 1.47.242 2.975-.1 4.428a10.987 10.987 0 0 1-1.955 4.103M37.598 136.23v2.155m109.904-66.682c0-.564.02-1.111.02-1.676M30.705 71.652h.484l.483-.017m-.684 0h.484m9.956-4.19a5.121 5.121 0 0 1-1.531-.273m90.998 0-75.52.24-13.887.033m122.158 57.211v-.136M96.35 86.75c0-.086-.1-.154-.202-.154m-.222.172v.307m.424-.017v-.308m-.203-.137c-.06 0-.1.017-.14.034a.269.269 0 0 0-.081.12m2.016.581c0 .05-.02.085-.06.12-.041.033-.102.033-.142.033m-.2-.137v-.307m.401-.016v.308m-.201.152a.205.205 0 0 1-.2-.153m-2.803-.581a.205.205 0 0 0-.202-.154m-.201.17v.308m.402-.016v-.307m-.2-.138c-.06 0-.1.018-.14.035a.268.268 0 0 0-.082.12m2.036.58c0 .052-.02.086-.08.12-.04.034-.1.034-.141.034m-.203-.137v-.308m.424-.017v.307m-.223.156a.205.205 0 0 1-.201-.155m-6.006-.547a.205.205 0 0 0-.201-.154m-.223.172v.308m.424-.018v-.308m-.202-.136a.332.332 0 0 0-.141.034.269.269 0 0 0-.08.12m.423.598c0 .05-.02.085-.08.12-.04.034-.1.034-.14.034m-.204-.138v-.307m.424-.018v.308m-.222.155c-.101 0-.202-.069-.202-.154m-2.821.035c0 .051-.02.085-.08.12-.041.034-.102.034-.142.034m-.181-.137v-.308m.404-.018v.308" stroke="#040000" stroke-width=".5" stroke-linecap="round" stroke-linejoin="round"/><path d="M86.473 87.623a.205.205 0 0 1-.201-.154m.404-.616a.205.205 0 0 0-.201-.154m-.203.171v.307m.404-.017v-.308" stroke="#040000" stroke-width=".5" stroke-linecap="round" stroke-linejoin="round"/><path d="M86.493 86.7c-.06 0-.1.016-.14.033a.269.269 0 0 0-.081.12m1.613.615v-.308m.424-.017v.307m-.223.155c-.1 0-.201-.068-.201-.154m.422-.616c0-.085-.1-.153-.201-.153m-.221.17v.307m.221-.459c-.06 0-.1.016-.14.033a.269.269 0 0 0-.081.12m36.863-2.599c.706 0 1.391.256 1.854.718.464.462.706 1.043.706 1.641 0 .599-.242 1.18-.706 1.642-.463.461-1.128.735-1.834.752M30.545 71.652h.322m108.493-1.966c-.322 0-.665-.052-.967-.137M30.988 71.635h-.424m89.65 15.49c-.02.085-.101.154-.222.154m-.181-.153v-.308m.402 0v.308m-.222.154c-.101 0-.202-.052-.202-.137m35.413-13.25c-.02-.086-.02-.188-.04-.274m-7.316-3.967 4.313-.017m-4.636.393.323-.376m9.25 26.895c-.141.085-.303.154-.444.24m-47.523-10.739c0-.051-.021-.103-.041-.154-.04-.051-.08-.068-.141-.085m.181 1.744a.25.25 0 0 1-.06.154c-.041.05-.101.068-.162.085m-.201-.222v-.77m.422 0v.753m-.2-1.727a.215.215 0 0 0-.162.086.25.25 0 0 0-.06.153" stroke="#040000" stroke-width=".5" stroke-linecap="round" stroke-linejoin="round"/><path d="M108.907 87.792a.215.215 0 0 1-.162-.085c-.04-.052-.04-.103-.04-.154m-73.949-7.745a2.563 2.563 0 0 1 .12-1.812c.263-.582.767-1.06 1.432-1.334m.022 4.788c-.787-.325-1.351-.923-1.553-1.641" stroke="#040000" stroke-width=".5" stroke-linecap="round" stroke-linejoin="round"/><path d="M36.792 81.706a2.364 2.364 0 0 0-.464-.257m45.832 46.387c.122-.444.041-.906-.2-1.316-.243-.41-.686-.718-1.21-.821m2.923 2.256c.16-.598 0-1.231-.424-1.744-.423-.513-1.148-.786-1.874-.684m44.984 1.197a1.794 1.794 0 0 0-.181-1.282c-.222-.411-.645-.701-1.149-.821m2.844 2.205c.141-.598 0-1.214-.383-1.71-.403-.513-1.109-.769-1.814-.684m-40.834-15.181 28.821-.53m11.044-14.807-27.47.36m65.502-25.118-.02 2.445M37.598 138.385l.987.068m114.017-40.436a11.361 11.361 0 0 1-2.297-.308M38.586 138.453l.484.017m-1.45-63.689c0 .616-.283 1.197-.827 1.607m0 5.317c.524.41.826.992.826 1.607M156.23 97.623c-.947.274-1.955.393-2.962.393M42.376 138.488c-.847.017-2.46.034-3.306-.017m54.055-51.498v.752m74.211-8.737a2.861 2.861 0 0 0-.222-2.189c-.343-.7-1.048-1.23-1.915-1.436M37.62 74.782v-1.094m127.558 7.316c.544-.136 1.028-.393 1.39-.752.363-.359.625-.786.766-1.248m-2.135-3.641a1.747 1.747 0 0 1-.424-.154M83.49 109.284l1.35-.034m41.178-16.516h.06m-.061 1.163-1.31.017m-35.452 28.365a.844.844 0 0 1-.282.445.782.782 0 0 1-.565.171m8.849-.805a.838.838 0 0 1-.282.444.773.773 0 0 1-.565.171m16.709-.973a.842.842 0 0 1-.282.445.757.757 0 0 1-.544.171m-7.096-.446a.842.842 0 0 1-.282.445c-.141.12-.342.171-.544.171m16.588-.975a.836.836 0 0 1-.282.444c-.141.12-.343.172-.544.172m-81.385-43.94c-.262 0-.504.085-.665.256-.343.342-.363.838-.04 1.18.16.17.402.273.644.29m87.391 12.789c.222 0 .423.052.605.154a.471.471 0 0 1 .302.445.587.587 0 0 1-.363.427 1.472 1.472 0 0 1-.604.137M88.53 121.338c.261.017.483.137.604.325.12.188.161.41.12.615" stroke="#040000" stroke-width=".5" stroke-linecap="round" stroke-linejoin="round"/><path d="M96.531 121.15c.262.017.484.137.605.325.12.188.161.411.12.616m15.137-1.3c.262.017.483.137.604.325a.827.827 0 0 1 .121.615m-8.645-.752c.262.017.483.136.604.324s.161.394.121.616m15.056-1.315c.262.017.484.136.605.324s.161.394.121.599m-40.533 7.728a1.81 1.81 0 0 0 1.109-.479 1.79 1.79 0 0 0 .584-.94m42.628.274c.403-.052.786-.223 1.048-.479.282-.257.463-.564.544-.906M67.932 82.287c.322.086.624.188.927.325m-3.871.855-4.232 3.966m10.48-2.873a5.3 5.3 0 0 1 .504.924m-1.933-2.359c.282.205.544.41.786.65m-6.651 4.855a2.811 2.811 0 0 1-.202-1.214m6.025 41.412a.68.68 0 0 1-.181.462m.201-50.423a.3.3 0 0 1-.101.222.351.351 0 0 1-.262.103m-.08 16.653c.04-.017.08-.017.12-.017m.323.326v9.216m-.443 16.977c.04-.017.08-.017.12-.017M50.416 83.673c.383 0 1.834-.034 2.237-.034m-2.237-1.249-4.676.035m4.657 4.665c.382 0 1.834-.033 2.237-.033m-2.237 3.438c.382 0 1.834-.035 2.237-.052m-2.237 3.472c.382 0 1.834-.035 2.237-.052m-2.237 17.097c.382 0 1.834-.068 2.237-.085m-2.237 3.488c.382 0 1.834-.069 2.237-.086m-2.237 3.506c.382-.017 1.834-.069 2.237-.086m-2.237 3.488 1.108-.052 1.108-.051m-6.893.206 4.677-.103m0 8.942-4.676.12m-.001 1.281 4.677-.12m0-4.701-4.676.12m4.676-3.522-4.676.102m-.001 1.301 4.677-.12m.019-44.318c.544 0 1.109-.017 1.653-.017l1.652-.017m.565-.668c0-.137-.04-.29-.121-.41a.572.572 0 0 0-.403-.222m-3.346.052-4.676.017m24.045-4.189v4.053m-.342.341c-.04 0-.06 0-.101-.017m.121 16.635c.1 0 .181.051.242.103.06.068.08.136.08.222m-.322 26.177c.1 0 .181.051.222.103.06.068.08.136.08.222M52.655 89.16h-.02m.02 3.403h-.02m.04 17.029h-.04m.04 3.402h-.04m.04 3.402h-.04m.04 3.403h-.04m1.108-23.849h-.02m.019 10.206h-.04m1.774-3.455h-.04m.02-3.402h-.02m.04 30.605h-.04m-1.673-3.334h-.04m.04-3.402h-.04m15.62-43.975a9.029 9.029 0 0 0-2.439-.377M54.266 96.582c0-.137-.04-.29-.12-.41a.572.572 0 0 0-.404-.223m.524 10.84a.804.804 0 0 0-.12-.411.574.574 0 0 0-.404-.222m.524 21.03a.7.7 0 0 0-.121-.393.53.53 0 0 0-.383-.223m.504-2.786a.705.705 0 0 0-.121-.394.531.531 0 0 0-.383-.222m12.476-26.895a9.493 9.493 0 0 0 3.104-.427m-3.365 26.946a9.563 9.563 0 0 0 3.345-.444m15.741-36.06c0-.051-.02-.102-.04-.154-.04-.051-.081-.068-.162-.085m.203 1.761c0 .052-.02.103-.061.154-.04.052-.1.069-.161.086m.02-1.984c-.06 0-.12.035-.16.086a.249.249 0 0 0-.061.154m.199 1.744a.213.213 0 0 1-.16-.086c-.041-.05-.061-.102-.041-.153m-12.576-1.266c.08.427.12.872.08 1.3m-4.211 3.966 1.39-1.3m2.418-.872a5.587 5.587 0 0 1-3.304 3.094m-3.446-2.325-1.814 1.727m1.812-.325-.886.821m33.859-5.899c0-.085-.1-.154-.201-.154m-.22.172v.308m.401-.018.02-.308m-.201-.136a.33.33 0 0 0-.14.034.269.269 0 0 0-.08.12m2.015.58c0 .051-.02.086-.06.12-.04.034-.101.034-.142.034m-.223-.135v-.308m.425-.018v.308m-.223.153a.205.205 0 0 1-.201-.154m62.863 19.816v15.73m2.358-18.858c.06-.069.141-.137.201-.205.04-.035.061-.069.101-.103.04-.034.06-.068.081-.103m-1.673 19.116c0 .598.162 1.179.484 1.709m-.484-17.405v15.696m.504-17.422a3.557 3.557 0 0 0-.504 1.727m1.652 19.235a.855.855 0 0 0-.161-.256l-.201-.239m.363 6.837c-.02.359-.161.701-.383 1.009m-.644-7.762c.161.119.322.205.483.29.081.051.182.086.262.12a.433.433 0 0 0 .141.034c.041 0 .121.017.121-.051m.04-22.654c0-.017-.02-.017-.04-.017-.041 0-.061.017-.101.017-.04.017-.101.034-.141.052a1.177 1.177 0 0 0-.262.136 3.138 3.138 0 0 0-.484.325M67.932 90.425l.463-.427m96.361-8.84a2.06 2.06 0 0 1 .423-.154" stroke="#040000" stroke-width=".5" stroke-linecap="round" stroke-linejoin="round"/><path d="M164.756 81.175c.141-.069.282-.137.423-.171M45.72 104.19l.162.017m7.296-21.219c0-.137-.04-.29-.12-.41a.45.45 0 0 0-.404-.222m.524 4.034a.802.802 0 0 0-.12-.41.45.45 0 0 0-.404-.222m.524 4.035a.802.802 0 0 0-.12-.41.45.45 0 0 0-.404-.223m.524 4.035a.802.802 0 0 0-.12-.41.45.45 0 0 0-.404-.222m.524 17.662a.7.7 0 0 0-.121-.393.532.532 0 0 0-.383-.223m.504 4.018a.702.702 0 0 0-.121-.393.528.528 0 0 0-.383-.222m.484 4.018a.705.705 0 0 0-.12-.394.531.531 0 0 0-.384-.222m.504 4.018a.7.7 0 0 0-.12-.393.532.532 0 0 0-.384-.223m-2.257-22.5c.382 0 1.29-.034 1.652-.034l1.653-.051m-3.305 10.309c.382 0 1.29-.034 1.652-.051l1.653-.051m-3.305-3.3c.382 0 2.136-.068 2.519-.085.846-.017 1.673-.051 2.52-.069m-.001 0a.763.763 0 0 0 .464-.223.671.671 0 0 0 .161-.427m-.02 0a.631.631 0 0 0-.162-.411.665.665 0 0 0-.423-.222m-5.058-1.965c.382 0 2.136-.068 2.519-.068.846-.017 1.673-.051 2.52-.068m-.001-.001c.182-.017.343-.086.444-.222a.68.68 0 0 0 .161-.428m0-.018a.663.663 0 0 0-.584-.633m-5.059 32.111 1.25-.051 1.249-.068c.846-.035 1.672-.086 2.519-.12m.001.017a.717.717 0 0 0 .464-.222c.1-.12.16-.274.16-.428m-5.643-2.53c.382-.017 1.29-.051 1.652-.068.544-.034 1.109-.051 1.653-.085m-3.305-3.266c.382-.017 1.29-.051 1.652-.068l1.653-.069m108.292-1.574c0 .564.161 1.128.464 1.641a4.4 4.4 0 0 0 1.249 1.334m0-21.748c-1.028.769-1.713 1.846-1.713 3.06M37.62 72.08v1.607m92.327 38.948.02-6.445m-11.649 6.994h.101m11.044-.223c-1.008 0-1.995 0-3.003.017s-1.995.034-3.003.034m6.107-.052.403-.325m-.502.326h.101m-11.247.222c-.867-.017-1.734-.017-2.6-.035m.019 0c-.322 0-.624-.017-.947-.017m13.787-7.368-.807-.034m1.35.05c.141.017.282.034.423.069m.423.342-.403-.325m-.986-.103c.141 0 .403.017.544.034m-15.138 7.284.807.034m12.979-7.385-4.374.068m-9.734 6.976.323.308m0-7.114-.323.325m8.122-19.182c-.02.085-.101.153-.222.153m-.179-.154V86.8m.402 0v.309" stroke="#040000" stroke-width=".5" stroke-linecap="round" stroke-linejoin="round"/><path d="M121.563 87.263c-.101 0-.202-.068-.202-.154m1.995-.017c-.02.085-.1.154-.221.154m-.182-.155v-.308m.404 0v.308m-.222.155c-.101 0-.201-.051-.201-.137m.424-.633c0-.085-.101-.154-.202-.154m-.203.155v.307m.404 0v-.307m-.202-.137c-.101 0-.201.068-.221.154m-15.398.768c-.02.085-.101.154-.222.154m-.181-.153v-.308m.402 0v.308" stroke="#040000" stroke-width=".5" stroke-linecap="round" stroke-linejoin="round"/><path d="M107.315 87.416a.205.205 0 0 1-.202-.154m3.606-.649c0-.086-.101-.154-.201-.154m-.221.154v.308m.424 0v-.308" stroke="#040000" stroke-width=".5" stroke-linecap="round" stroke-linejoin="round"/><path d="M110.519 86.459c-.101 0-.202.068-.222.154m2.016-.018a.205.205 0 0 0-.202-.154m-.222.155v.307m.423 0v-.307m-.202-.155c-.1 0-.201.069-.221.154m1.996-.015c0-.086-.101-.154-.201-.154m-.204.152v.308m.405 0v-.308m-.202-.152c-.101 0-.202.068-.222.154m.423.613c-.02.086-.101.154-.222.154m-.182-.152v-.308m.405 0v.308" stroke="#040000" stroke-width=".5" stroke-linecap="round" stroke-linejoin="round"/><path d="M113.663 87.347c-.101 0-.202-.051-.202-.154m5.181-.05c-.02.085-.101.153-.222.153m-.203-.152v-.308m.424 0v.308m-.223.152c-.1 0-.201-.05-.201-.153m-2.741.035c-.02.085-.101.154-.222.154m-.201-.155v-.308m.424.001v.307m-.223.155a.205.205 0 0 1-.201-.154m.424-.616a.205.205 0 0 0-.202-.154m-.222.155v.307m.424 0v-.308m-.203-.154c-.1 0-.201.069-.221.154M90.143 97.35c-1.492.017-3.245.05-4.737.102m11.83-.462v-6.53M69.805 72.045l-.02 2.77M45.74 87.125h.202m-.202.001 4.233-.052M153.73 61.496l5.825 4.822M45.943 87.126l4.314-.034m41.275.324c0 .051-.02.085-.08.12-.04.034-.101.034-.141.034m-.201-.137v-.308m.423-.015v.307m-.223.153a.205.205 0 0 1-.2-.154m.424-.616a.205.205 0 0 0-.202-.153m-.222.171v.308m.423-.017V86.8m-.202-.136c-.06 0-.1.017-.141.034a.268.268 0 0 0-.08.12m30.675-.324c0-.086-.1-.154-.201-.154m-.201.154v.308m.402 0v-.308m-.202-.137c-.101 0-.201.069-.222.154M43.725 72.182h1.027m.002.017.988-.017m-.002.001 4.676-.017m0-.001 1.33-.017m-.019.001 5.542-.051m-14.996.068 1.452.017m13.545-.07 12.536-.068m54.923 27.665c.705-.017 1.39.24 1.854.701.463.461.705 1.043.705 1.641 0 .599-.242 1.18-.685 1.642-.443.461-1.129.735-1.834.752M85.324 97.47h.101m11.308-.171-3.064.017c-1.028 0-2.036.017-3.063.034m6.228-.05.403-.325m-.505.324h.101m-11.508.171c-.867 0-1.733-.017-2.62-.034m0-.001c-.322 0-.625-.017-.947-.017m15.479-6.958-.403-.325M80.97 97.402l.787.017m-1.128-6.892v6.549m0 0 .343.325m0-7.215-.343.341m36.42-4.563a.44.44 0 0 0-.04-.154c-.04-.051-.081-.068-.161-.085m-.202.238v.77m.403-.018v-.752m-.001 1.521c0 .052-.02.103-.061.154-.04.051-.1.069-.161.086m-.18-.239v-.753m.403-.017v.77m-.202-1.745a.211.211 0 0 0-.161.086.246.246 0 0 0-.061.154" stroke="#040000" stroke-width=".5" stroke-linecap="round" stroke-linejoin="round"/><path d="M116.847 87.708c-.06 0-.12-.034-.141-.085-.04-.052-.06-.103-.04-.154m1.975-.942c0-.086-.101-.154-.202-.154m-.222.154v.308m.424 0v-.308m-.203-.154c-.1 0-.201.068-.221.154m-12.273.137a.205.205 0 0 0-.202-.154m-.201.154v.308m.402 0v-.308m-.202-.154c-.1 0-.201.068-.221.154m2.015-.016c0-.085-.1-.154-.201-.154m-.201.153v.307m.402 0v-.307" stroke="#040000" stroke-width=".5" stroke-linecap="round" stroke-linejoin="round"/><path d="M107.335 86.494c-.101 0-.202.069-.222.154m3.607.58c-.02.086-.101.154-.222.154m-.201-.154v-.308m.424 0v.308m-.223.154c-.1 0-.201-.05-.201-.154m2.015-.018c-.021.086-.101.155-.222.155m-.201-.153v-.308m.423 0v.308m-.222.153c-.101 0-.201-.051-.201-.154m-9.131.086c0 .051-.02.085-.06.12-.041.034-.101.034-.141.034m-.221-.137v-.308m.424 0v.29m-.222.154c-.101 0-.202-.068-.202-.153m2.016 0c0 .051-.02.085-.061.12-.04.034-.1.034-.141.034m-.222-.155v-.308m.424 0v.308m-.223.137c-.1 0-.201-.068-.201-.154m.424-.598c0-.085-.101-.154-.202-.154m-.222.155v.307m.424.001v-.308m-.203-.155c-.1 0-.201.069-.221.154m2.014.599c-.02.085-.1.153-.221.153m-.18-.153v-.307m.402 0v.307m-.222.136c-.101 0-.201-.052-.201-.154m-10.783.121c0 .051-.02.085-.08.12-.04.034-.101.034-.141.034m-.182-.137v-.308m.402-.018v.308m-.22.155a.205.205 0 0 1-.202-.154m5.241-.651c0-.085-.1-.154-.202-.154m-.223.154v.308m.425-.017v-.29m-.203-.155c-.06 0-.1.017-.141.034-.04.035-.06.069-.06.12m3.607-.033a.205.205 0 0 0-.201-.154m-.221.155v.307m.424 0v-.308" stroke="#040000" stroke-width=".5" stroke-linecap="round" stroke-linejoin="round"/><path d="M102.558 86.545a.327.327 0 0 0-.141.034.263.263 0 0 0-.081.12m-66.25 51.6 1.511.085m-6.73-4.941a.994.994 0 0 1-.322-.633m.322.633 5.22 4.856m-5.542-5.488V72.969m34.06 9.472L61.14 85.69m31.985.512c0-.051-.02-.102-.04-.154-.04-.05-.08-.068-.161-.085m-.201.24v.77m.402-.001v-.769m-.001 1.522c0 .05-.02.102-.06.154-.04.05-.101.068-.162.085m-.179-.222v-.77m.2-.992a.213.213 0 0 0-.161.086.249.249 0 0 0-.06.154" stroke="#040000" stroke-width=".5" stroke-linecap="round" stroke-linejoin="round"/><path d="M92.924 87.964a.213.213 0 0 1-.16-.085c-.041-.052-.061-.103-.041-.154m8.424-1.609c0-.051-.02-.102-.04-.154-.041-.05-.081-.068-.162-.085m-.201.258v.752m.402 0v-.77m0 1.522a.252.252 0 0 1-.061.154c-.04.05-.101.068-.161.085m-.18-.222v-.77m.402.001v.752m-.202-1.745a.213.213 0 0 0-.161.086.25.25 0 0 0-.06.154" stroke="#040000" stroke-width=".5" stroke-linecap="round" stroke-linejoin="round"/><path d="M100.946 87.878a.211.211 0 0 1-.161-.085c-.041-.052-.061-.103-.041-.154m52.523 10.379h-.665m-32.389-11.507c0-.085-.1-.154-.201-.154m-.201.153v.307m.402 0v-.307m-.202-.153c-.101 0-.202.069-.222.154M41.488 67.447h-.04m120.97 1.18a.822.822 0 0 1 .302.53m-23.299.529h-.04m23.338-.53c0 .171-.141.308-.323.36a2.023 2.023 0 0 1-.564.085m-23.48-.068c.02.017.02.017.04.017m-.403-.12-5.643-1.983" stroke="#040000" stroke-width=".5" stroke-linecap="round" stroke-linejoin="round"/><path d="M138.392 69.55c-.141-.035-.282-.069-.423-.12m-72.012 18.5c.04-.24.242-.445.504-.548a.997.997 0 0 1 .826.052m-.928 1.214c-.283-.154-.444-.445-.383-.718m95.877-18.328-9.695.034M97.236 93.094l27.471-.342M45.72 124.69h.142m-9.534-48.029.1-.034m111.417-6.975-8.425.034m6.087 8.174a11.357 11.357 0 0 0-1.895 1.624 9.85 9.85 0 0 0-1.431 1.932 9.736 9.736 0 0 0-.927 2.137 9.469 9.469 0 0 0-.383 2.257m-14.773.957a.862.862 0 0 0-.121-.7c-.121-.223-.363-.394-.625-.462a1.02 1.02 0 0 0-.806.153 1.06 1.06 0 0 0-.423.616.862.862 0 0 0 .121.701c.121.222.363.393.645.462.282.068.584 0 .806-.154a.943.943 0 0 0 .403-.616Zm-37.79.684c0 .052-.02.086-.081.12-.04.034-.1.034-.141.034m.223-.461v-.308M30.545 72.969v-1.317m1.127-.017V61.582m-.201 10.053h-.765m119.739 2.155c.141-.359.161-.735.101-1.111a1.867 1.867 0 0 0-.525-1.01m4.315-.017c.06.052.121.103.161.171m.04.103a.9.9 0 0 1 .141.154m-2.52-2.445 2.177 2.017m-6.489-2 2.176 2.018m4.474.17.202.24m-.02 0c.322.427.443 1.06.483 1.539m-46.456 12.43v.752m.422 0v-.752m-72.799-9.386c.161-.069.323-.154.464-.257m3.468 4.446a2.18 2.18 0 0 1-.988.222m.363-1.984a.842.842 0 0 0-.242-.582.868.868 0 0 0-.645-.274m74.915 31.649-28.821.547M37.618 83.297l-.02 52.935m45.892-25.769a1.66 1.66 0 0 1-.645-.119c-.201-.086-.342-.257-.363-.445.02-.188.162-.359.363-.444.202-.103.424-.137.645-.154m41.217-16.55 1.31-.017" stroke="#040000" stroke-width=".5" stroke-linecap="round" stroke-linejoin="round"/><path d="M39.27 81.074c-.584-.017-1.128-.256-1.47-.65-.726-.803-.686-1.932.08-2.701a2.071 2.071 0 0 1 1.511-.582m.002-.001c.483.018.967.189 1.31.48.342.29.584.683.665 1.094.08.41.02.837-.162 1.214a1.934 1.934 0 0 1-.927.923" stroke="#040000" stroke-width=".5" stroke-linecap="round" stroke-linejoin="round"/><path d="M38.707 79.962a.997.997 0 0 0 .685-.274.877.877 0 0 0 .262-.598m41.722 46.42c-.525.085-.988.325-1.31.684a2.116 2.116 0 0 0-.545 1.231c-.04.444.08.889.343 1.282.262.393.685.684 1.189.821" stroke="#040000" stroke-width=".5" stroke-linecap="round" stroke-linejoin="round"/><path d="M81.053 129.511a2.17 2.17 0 0 0 1.693-.291c.484-.324.806-.769.907-1.265m42.021-3.521c-.504.085-.967.324-1.27.683-.645.719-.705 1.676-.201 2.463.262.376.665.666 1.169.803" stroke="#040000" stroke-width=".5" stroke-linecap="round" stroke-linejoin="round"/><path d="M125.373 128.365a2.083 2.083 0 0 0 1.633-.291 1.97 1.97 0 0 0 .866-1.248m-39.463-3.915c-.222-.017-.443-.12-.564-.274-.121-.154-.202-.359-.182-.547a.849.849 0 0 1 .262-.53.867.867 0 0 1 .605-.222m7.88 1.386c-.222-.017-.444-.12-.564-.274-.262-.325-.222-.769.08-1.06a.867.867 0 0 1 .605-.222m15.74 1.179c-.221-.017-.443-.12-.564-.274-.262-.324-.222-.752.081-1.06.141-.154.383-.222.604-.222m-8.02 1.743c-.222-.017-.443-.119-.564-.273a.767.767 0 0 1-.182-.547.771.771 0 0 1 .262-.513.867.867 0 0 1 .605-.222m15.64 1.181a.768.768 0 0 1-.544-.274.733.733 0 0 1-.161-.53c.02-.188.1-.376.242-.513.141-.154.362-.222.604-.222m-78.221 17.662v-2.736m25.879-52.064.947-.872m-.443 10.122 3.305-3.094m-1.794-1.111 2.117-1.983m-3.044.102 2.217-2.087m-2.055 3.318 2.56-2.411m-3.81-.598 1.874-1.744m-1.351 2.668 2.136-2.018m-5.601 1.077-4.133 3.88m2.882-1.316-2.54 2.394m.001 0c.14.308.301.616.503.907m2.239-2.087-2.217 2.087m8.061 31.922-.02 6.189m-.182.443-5.422 5.711M52.634 82.356c-.383 0-1.834.034-2.237.034m2.238 1.248a.503.503 0 0 0 .403-.24c.08-.12.12-.273.12-.427m-7.418.752 4.676-.051m2.218 2.086c-.383 0-1.834.034-2.237.034m2.238 1.248a.503.503 0 0 0 .403-.24c.08-.12.12-.273.12-.427m-2.762-.58-4.656.051m0 1.299 4.656-.051m2.238 2.068c-.383 0-1.834.034-2.237.051m2.238 1.231a.503.503 0 0 0 .403-.24.774.774 0 0 0 .12-.427m-2.762-.565-4.656.052m0 1.283 4.656-.05m2.238 2.068c-.383 0-1.834.05-2.237.05m2.238 1.249a.503.503 0 0 0 .403-.24.774.774 0 0 0 .12-.427m-2.762-.582-4.656.069m0 1.283 4.656-.05m2.238 15.677c-.383.017-1.834.068-2.237.068m2.238 1.214a.503.503 0 0 0 .403-.24.812.812 0 0 0 .12-.427m-2.761-.547-4.676.086m-.001 1.3 4.677-.085m2.237 2.033c-.383.017-1.834.069-2.237.086m2.238 1.196a.502.502 0 0 0 .403-.239.818.818 0 0 0 .12-.428m-2.761-.529-4.676.086m-.001 1.3 4.677-.103m2.237 2.033c-.383.018-1.834.069-2.237.086m2.238 1.214a.504.504 0 0 0 .403-.239.818.818 0 0 0 .12-.428m-2.761-.547-4.676.103m-.001 1.282 4.677-.086m2.236 2.018-1.108.051a24.13 24.13 0 0 1-1.109.034m2.219 1.215a.505.505 0 0 0 .403-.24.814.814 0 0 0 .12-.427m-2.761-.53-4.676.103m8-24.055-1.652.033a54.98 54.98 0 0 1-1.653.035m3.307 1.213c.181-.017.342-.102.423-.24a.79.79 0 0 0 .141-.427m-3.89-.531-4.676.052m-.001 1.3 4.677-.069m3.324 8.84-1.652.051a52.5 52.5 0 0 1-1.653.052m3.307 1.179c.181-.017.342-.102.423-.239a.66.66 0 0 0 .141-.428m-3.89-.513-4.676.085m-.001 1.284 4.677-.086m5.038-4.84c-.846.017-1.673.034-2.52.069-.382.017-2.136.068-2.518.068m0 .017-4.676.069m-.001 1.3 4.677-.085m5.038-4.84c-.846.017-1.673.034-2.52.068-.382.017-2.136.069-2.518.069m0 0-4.676.068m-.001 1.301 4.677-.069m5.018 29.168-2.52.103-1.249.068-1.25.052m5.644.393a.643.643 0 0 0-.14-.411.544.544 0 0 0-.423-.205m-1.775-3.334c-.544.017-1.109.052-1.653.086-.383.017-1.29.068-1.652.068m3.304 1.128c.182-.017.343-.102.423-.239a.688.688 0 0 0 .142-.428m-8.546.94 4.677-.119m3.305-4.838-1.653.068c-.383.018-1.29.052-1.652.069m3.304 1.145c.182-.017.343-.103.423-.239.081-.137.142-.274.142-.428m-.545-44.847-1.652.017c-.544 0-1.109.017-1.653.017m3.307 1.248a.58.58 0 0 0 .423-.222.66.66 0 0 0 .141-.428m-8.547.736 4.676-.035m-4.533 6.857 4.313-.034m-4.476 43.154v1.282m0-4.702v1.3m0-4.718v1.3m0-4.704v1.282m0-4.7v1.282m0-4.702v1.299m0-4.719v1.299m0-4.701v1.282m0-4.702v1.299m0-4.719v1.299m0-4.717v1.3m.02-4.702v1.282m0-4.702v1.282m0-4.702v1.3m0-4.72v1.3m0-4.72v1.3" stroke="#040000" stroke-width=".5" stroke-linecap="round" stroke-linejoin="round"/><path d="M66.903 78.817a9.498 9.498 0 0 0-3.668.667 9.505 9.505 0 0 0-3.003 1.932c-3.386 3.403-3.567 8.327-.463 11.9 1.551 1.71 3.849 2.856 6.47 2.941m.907 9.096a9.566 9.566 0 0 0-3.688.598c-1.15.445-2.197 1.078-3.044 1.881-1.693 1.607-2.7 3.676-2.842 5.831-.181 2.154.544 4.308 2.016 6.069 1.511 1.744 3.789 2.924 6.389 3.061M84.64 86.287v.77m.423-.001v-.769m-.423 1.539v-.77m.423.001v.752M96.35 102.24a.205.205 0 0 0-.202-.154m-.222.172v.308m.424-.018v-.308m-.203-.136c-.06 0-.1.017-.14.034a.267.267 0 0 0-.081.119m2.016.581c0 .051-.02.085-.06.12-.041.034-.102.034-.142.034m-.2-.135v-.308m.401-.018v.308m-.201.153c-.1 0-.2-.069-.2-.154m-2.803-.581c0-.085-.101-.153-.202-.153m-.201.171v.308m.402-.017v-.308m-.2-.137c-.06 0-.1.017-.14.034a.27.27 0 0 0-.082.12m2.036.58c0 .052-.02.086-.08.12-.04.034-.1.034-.141.034m-.203-.137v-.307m.424-.016v.308m-.223.152c-.1 0-.201-.068-.201-.154m-6.006-.547c0-.085-.1-.154-.201-.154m-.223.155v.307m.424 0v-.307m-.202-.155a.332.332 0 0 0-.141.034.276.276 0 0 0-.08.12m.423.616c0 .051-.02.085-.08.119-.04.035-.1.035-.14.035m-.204-.153v-.308m.424 0v.308m-.222.153c-.101 0-.202-.069-.202-.154m-2.821.035c0 .051-.02.085-.08.12-.041.034-.102.034-.142.034m-.181-.155v-.308m.404 0v.308" stroke="#040000" stroke-width=".5" stroke-linecap="round" stroke-linejoin="round"/><path d="M86.473 103.113a.206.206 0 0 1-.201-.154m.404-.616a.205.205 0 0 0-.201-.153m-.203.154v.308m.404 0v-.308" stroke="#040000" stroke-width=".5" stroke-linecap="round" stroke-linejoin="round"/><path d="M86.493 102.19c-.06 0-.1.017-.14.034a.267.267 0 0 0-.081.119m1.613.598v-.308m.424 0v.308m-.223.154a.205.205 0 0 1-.201-.154m.422-.615a.205.205 0 0 0-.201-.154m-.221.154v.308m.221-.462c-.06 0-.1.017-.14.034a.27.27 0 0 0-.081.12m32.329.291c-.02.086-.101.154-.222.154m-.181-.155v-.307m.402 0v.307m-.222.154c-.101 0-.202-.052-.202-.137m-10.66-1.093c0-.051-.021-.102-.041-.154-.04-.051-.08-.068-.141-.085m.181 1.742a.25.25 0 0 1-.06.154c-.041.051-.101.068-.162.085m-.201-.222v-.769m.422 0v.752m-.2-1.742a.215.215 0 0 0-.162.085.252.252 0 0 0-.06.154" stroke="#040000" stroke-width=".5" stroke-linecap="round" stroke-linejoin="round"/><path d="M108.907 103.282a.215.215 0 0 1-.162-.085c-.04-.051-.04-.103-.04-.154m-15.58-.58v.752m-8.062-1.437c0-.051-.02-.102-.04-.153-.04-.052-.081-.069-.162-.086m.203 1.762c0 .051-.02.102-.061.154-.04.051-.1.068-.161.085" stroke="#040000" stroke-width=".5" stroke-linecap="round" stroke-linejoin="round"/><path d="M84.862 101.539a.21.21 0 0 0-.16.086.247.247 0 0 0-.061.153m.199 1.762a.213.213 0 0 1-.16-.085c-.041-.052-.061-.103-.041-.154m13.322-1.079c0-.085-.1-.154-.201-.154m-.22.172v.308m.401-.018.02-.307m-.201-.137c-.06 0-.1.017-.14.034a.27.27 0 0 0-.08.12m2.015.582c0 .052-.02.086-.06.12-.04.034-.101.034-.142.034m-.223-.137v-.308m.425-.017v.307m-.223.155a.205.205 0 0 1-.201-.154m22.653-.222c-.02.085-.101.154-.222.154m-.179-.155v-.308m.402 0v.308" stroke="#040000" stroke-width=".5" stroke-linecap="round" stroke-linejoin="round"/><path d="M121.563 102.754c-.101 0-.202-.051-.202-.137m1.995-.035c-.02.086-.1.154-.221.154m-.182-.153v-.308m.404 0v.308m-.222.153c-.101 0-.201-.068-.201-.154m.424-.616c0-.085-.101-.154-.202-.154m-.203.155v.308m.404 0v-.308m-.202-.155c-.101 0-.201.069-.221.154m-15.398.77c-.02.086-.101.154-.222.154m-.181-.137v-.308m.402 0v.291" stroke="#040000" stroke-width=".5" stroke-linecap="round" stroke-linejoin="round"/><path d="M107.315 102.89c-.101 0-.202-.051-.202-.154m3.606-.633a.206.206 0 0 0-.201-.154m-.221.155v.307m.424 0v-.307" stroke="#040000" stroke-width=".5" stroke-linecap="round" stroke-linejoin="round"/><path d="M110.519 101.949c-.101 0-.202.069-.222.154m2.016-.017c0-.086-.101-.154-.202-.154m-.222.154v.308m.423 0v-.308m-.202-.154c-.1 0-.201.068-.221.154m1.996-.016c0-.086-.101-.154-.201-.154m-.204.152v.308m.405 0v-.308m-.202-.152c-.101 0-.202.068-.222.154m.423.615c-.02.086-.101.154-.222.154m-.182-.154v-.308m.405 0v.308m-.222.137c-.101 0-.202-.051-.202-.154m5.181-.035c-.02.085-.101.154-.222.154m-.203-.153v-.308m.424 0v.308m-.223.153c-.1 0-.201-.069-.201-.154m-2.741.035c-.02.085-.101.154-.222.154m-.201-.155v-.308m.424 0v.308m-.223.137c-.1 0-.201-.051-.201-.154m.424-.598c0-.085-.101-.154-.202-.154m-.222.155v.308m.424 0v-.308m-.203-.155c-.1 0-.201.069-.221.154m-23.521.854c0 .051-.02.086-.08.12-.04.034-.101.034-.141.034m-.201-.153v-.307m.423 0v.307m-.223.153a.205.205 0 0 1-.2-.154m.424-.613a.205.205 0 0 0-.202-.154m-.222.152v.308m.423 0v-.308m-.202-.152c-.06 0-.1.017-.141.034a.265.265 0 0 0-.08.12m30.675-.309c0-.085-.1-.154-.201-.154m-.201.154v.308m.402 0v-.308m-.202-.154c-.101 0-.201.069-.222.154m-4.312-.53c0-.051-.02-.102-.04-.154-.04-.051-.081-.068-.161-.085m-.202.238v.752m.403 0v-.752m-.001 1.506c0 .051-.02.103-.061.154-.04.051-.1.068-.161.085m-.18-.222v-.769m.403 0v.752m-.202-1.727a.213.213 0 0 0-.161.086.244.244 0 0 0-.061.154" stroke="#040000" stroke-width=".5" stroke-linecap="round" stroke-linejoin="round"/><path d="M116.847 103.198c-.06 0-.12-.034-.141-.085-.04-.051-.06-.103-.04-.154m1.975-.942c0-.085-.101-.154-.202-.154m-.222.155v.307m.424 0v-.307m-.203-.155c-.1 0-.201.069-.221.154m-12.273.137c0-.086-.101-.154-.202-.154m-.201.154v.308m.402-.017v-.291m-.202-.154c-.1 0-.201.068-.221.154m2.015-.016a.205.205 0 0 0-.201-.154m-.201.155v.307m.402 0v-.307" stroke="#040000" stroke-width=".5" stroke-linecap="round" stroke-linejoin="round"/><path d="M107.335 101.984c-.101 0-.202.069-.222.154m3.607.563c-.02.086-.101.154-.222.154m-.201-.135v-.308m.424 0v.291m-.223.152a.205.205 0 0 1-.201-.154m2.015-.016c-.021.086-.101.154-.222.154m-.201-.137v-.307m.423 0v.29m-.222.154c-.101 0-.201-.051-.201-.154m-9.131.102c0 .051-.02.086-.06.12-.041.034-.101.034-.141.034m-.221-.137v-.308m.424-.016v.308m-.222.153a.205.205 0 0 1-.202-.154m2.016-.017c0 .051-.02.085-.061.119-.04.034-.1.034-.141.034m-.222-.135v-.308m.424-.017v.308m-.223.152c-.1 0-.201-.068-.201-.153m.424-.598c0-.086-.101-.154-.202-.154m-.222.154v.308m.424-.017v-.291m-.203-.154c-.1 0-.201.051-.221.154m2.014.582c-.02.085-.1.154-.221.154m-.18-.137v-.308m.402-.018v.308m-.222.155c-.101 0-.201-.051-.201-.154m-10.783.119c0 .051-.02.085-.08.12-.04.034-.101.034-.141.034m-.182-.137v-.308m.402-.017v.307m-.22.155c-.1 0-.202-.069-.202-.154m5.241-.666c0-.086-.1-.154-.202-.154m-.223.17v.307m.425-.015v-.308m-.203-.139c-.06 0-.1.017-.141.035-.04.034-.06.068-.06.119m3.607-.05c0-.086-.101-.154-.201-.154m-.221.172v.307m.424-.017v-.308m-.202-.137a.329.329 0 0 0-.141.034.265.265 0 0 0-.081.12m-9.211-.497c0-.051-.02-.102-.04-.153-.04-.052-.08-.069-.161-.086m-.201.24v.77m.402 0v-.77m-.001 1.522c0 .051-.02.102-.06.154-.04.051-.101.068-.162.085m-.179-.222v-.769m.2-.992a.213.213 0 0 0-.161.085.251.251 0 0 0-.06.154" stroke="#040000" stroke-width=".5" stroke-linecap="round" stroke-linejoin="round"/><path d="M92.924 103.454a.213.213 0 0 1-.16-.085c-.041-.052-.061-.103-.041-.154m8.424-1.606c0-.052-.02-.103-.04-.154-.041-.052-.081-.069-.162-.086m-.201.256v.752m.402 0v-.77m0 1.522a.252.252 0 0 1-.061.154c-.04.051-.101.068-.161.085m-.18-.222v-.769m.402 0v.752m-.202-1.744a.213.213 0 0 0-.161.085.25.25 0 0 0-.06.154" stroke="#040000" stroke-width=".5" stroke-linecap="round" stroke-linejoin="round"/><path d="M100.946 103.368a.211.211 0 0 1-.161-.085c-.041-.051-.061-.103-.041-.154m19.469-1.128c0-.085-.1-.153-.201-.153m-.201.152v.308m.402 0V102m-.202-.152c-.101 0-.202.068-.222.153m-31.481.94c0 .052-.02.086-.081.12-.04.034-.1.034-.141.034m.223-.461v-.308m20.396-.787v.752m.422 0v-.752m-24.487.24v.77m.423 0v-.77m-.423 1.539v-.769m.423 0v.752M70.834 89.092l1.31-1.23m-7.618 1.607-2.157 2.017m.001 0c.241.24.503.445.785.65m101.196 11.882c-.343.376-.625.82-.806 1.282m-24.366 30.179-6.167-6.309m0 0 .04-57.432m30.493 52.678c.181.479.443.923.786 1.334m-38.172-23.424a.862.862 0 0 0-.121-.701c-.121-.222-.363-.393-.645-.462-.282-.068-.584 0-.806.154a1.055 1.055 0 0 0-.423.616.863.863 0 0 0 .121.701c.121.222.363.393.645.461.282.069.584 0 .806-.154.222-.153.383-.376.423-.615Zm38.617-30.706-.02 4.94m-.001 2.907-.021 24.125M70.472 88.785c.544.274.725.872.383 1.334 0 .017-.02.034-.02.034-.363.462-1.089.581-1.653.29m95.533 35.819v6.343m-41.7-19.576c-1.451.034-3.144.069-4.595.154m-4.758-6.89v6.48M69.181 90.46a14.28 14.28 0 0 1-1.41-.89 14.442 14.442 0 0 0-1.412-.906m.948-1.23c.504.256 1.028.478 1.592.666.544.206 1.068.428 1.572.684m94.305-17.164-.02 4.94" stroke="#040000" stroke-width=".5" stroke-linecap="round" stroke-linejoin="round"/><path d="M163.545 124.416c.181.479.443.923.786 1.334m.02-21.732c-.343.376-.625.82-.806 1.282M31.672 71.635V61.582m-.201 10.053h-.765m-.161 1.334v-1.317m131.873-3.025a.822.822 0 0 1 .302.53M30.545 132.811V72.969m.322 60.474 5.22 4.856m-5.22-4.856a.994.994 0 0 1-.322-.633m5.541 5.489 1.511.085M153.73 61.496l5.825 4.822m-6.055-4.736L32.762 61.6m131.994 19.575c.141-.069.282-.137.423-.171m-.464 51.601c-.02.359-.161.701-.383 1.009m.382-7.351a.855.855 0 0 0-.161-.256l-.201-.239m0-21.75c.06-.069.141-.137.201-.205.04-.035.061-.069.101-.103.04-.034.06-.068.081-.103m.464-28.244a1.747 1.747 0 0 1-.424-.154m.403 5.795c.544-.136 1.028-.393 1.39-.752.363-.359.625-.786.766-1.248m.002-.016a2.861 2.861 0 0 0-.222-2.189c-.343-.7-1.048-1.23-1.915-1.436M42.376 138.488c-.847.017-2.46.034-3.306-.017m-.484-.018.484.017m123.669-69.314-.02 2.445M37.598 138.385l.987.068m-7.597-66.818h-.424m.424 0h.484m-.767.017h.484l.483-.017" stroke="#040000" stroke-width=".5" stroke-linecap="round" stroke-linejoin="round"/><path d="m163.284 135-24.005.684-96.904 2.804m122.34-12.226v6.343" stroke="#040000" stroke-width=".5" stroke-linecap="round" stroke-linejoin="round"/><path d="M112.05 127.802v-2.308l-.786.017v2.856l2.801-.069-.222-.547-1.793.051Zm5.26-1.898-2.701.086.222.478 2.439-.068c.04 0 .08.017.08.051v.291l-2.176.069c-.424.017-.746.307-.746.649v.171c0 .342.322.616.705.616h.041l2.882-.086v-1.658c0-.342-.323-.599-.726-.599h-.02Zm.06 1.796-2.156.068c-.04 0-.081-.017-.081-.051v-.325c0-.034.041-.069.081-.069l2.156-.068v.445Zm3.891-1.916-1.753.052v-.565h-.02l-.746.018v2.855l.766-.017 1.753-.052c.424-.017.746-.307.746-.649V126.4c0-.342-.322-.616-.705-.616h-.041Zm0 1.727c0 .034-.04.069-.08.069l-1.673.051v-1.282l1.673-.052c.04 0 .08.017.08.052v1.162ZM100.24 126.4l-3.789.12v2.291l.746-.017v-1.727c0-.034.04-.068.08-.068l1.008-.034c.04 0 .08.017.08.051v1.727l.747-.017v-1.727c0-.034.04-.069.08-.069l.988-.034c.04 0 .08.017.08.051v1.727l.746-.017v-1.641c0-.342-.322-.616-.705-.616h-.061Zm7.879-.223v1.727c0 .034-.04.069-.08.069l-1.794.051c-.04 0-.081-.017-.081-.051v-1.727l-.705.017v1.658c0 .342.322.616.705.616h.041l1.854-.051c.423-.018.746-.308.746-.65v-1.676l-.686.017Zm-15.235 2.735 2.882-.085v-1.659c0-.342-.323-.615-.706-.615h-.04l-2.7.085.221.479 2.459-.068c.04 0 .08.034.08.051v.291l-2.176.068c-.423.017-.746.308-.746.65v.171c0 .342.302.615.706.615 0 .017.02.017.02.017Zm-.04-.889c0-.034.04-.068.08-.068l2.157-.069v.445l-2.157.068c-.04 0-.08-.034-.08-.051v-.325Zm11.265-1.727-1.753.051v-.564h-.02l-.746.017v2.856l.766-.018 1.753-.051c.423-.017.746-.307.746-.649v-1.026c0-.342-.323-.616-.705-.616h-.041Zm0 1.727c0 .034-.04.068-.08.068l-1.673.052v-1.3l1.673-.051c.04 0 .08.034.08.051v1.18Zm-16.265-2.308v.616l.766-.274v-.616l-.766.274Zm2.257.291-1.491.051v.513l-.766.274v2.222l2.72-.085h.04c.545-.034.988-.411.988-.872 0-.257-.12-.479-.362-.65l.02-.017a.783.783 0 0 0 .201-.547c0-.359-.262-.684-.685-.804a1.859 1.859 0 0 0-.605-.085h-.06Zm-1.491.564.866-.034.766-.017c.04 0 .1 0 .141.017.162.051.262.171.262.325v.068c-.02.12-.1.205-.221.257-.061.017-.122.034-.182.034l-.806.017-.806.017-.02-.684Zm1.733 1.915-.685.017-1.048.034v-.769l1.088-.034h.222l.423-.017c.1 0 .181.017.262.068.12.068.181.188.181.291 0 .239-.201.41-.443.41Z" fill="#040000"/><g opacity=".3"><path d="M50.396 83.552c.323 0 1.31-.017 1.895-.034h.322a.42.42 0 0 0 .282-.171.58.58 0 0 0 .101-.36c0-.12-.04-.239-.1-.341a.42.42 0 0 0-.283-.171h-.363l-1.854.034-4.535.034v1.043l4.535-.034Zm-.382 3.402h.382l1.956-.034h.282a.42.42 0 0 0 .282-.171c.08-.103.1-.24.1-.36a.687.687 0 0 0-.1-.341.42.42 0 0 0-.282-.171h-.282a100.5 100.5 0 0 1-1.975.034l-4.535.051v1.026l4.091-.034h.08Zm.383 3.42c.322 0 1.35-.034 1.915-.034h.302a.42.42 0 0 0 .282-.171.58.58 0 0 0 .1-.36.687.687 0 0 0-.1-.341.42.42 0 0 0-.282-.171h-.302l-1.935.034-4.535.051v1.043l4.555-.051Zm-.002-10.224c.404 0 .827-.018 1.23-.018h.423l1.653-.017a.466.466 0 0 0 .302-.17.564.564 0 0 0 .121-.36c0-.12-.04-.24-.1-.342a.42.42 0 0 0-.283-.17l-1.652.016h-.444l-1.21.017-4.554.035v1.043l4.514-.035Z" fill="#231815"/><path opacity=".2" d="m41.912 135.511.221-63.227-4.373-.188v2.701c0 .65-.302 1.265-.867 1.71a1.34 1.34 0 0 1-.343.205c-.02.017-.04.034-.06.034l-.1.035c-.626.256-1.11.718-1.351 1.265a2.336 2.336 0 0 0-.121 1.727c.202.684.746 1.248 1.471 1.556.182.068.343.17.504.273.565.427.887 1.043.867 1.693l-.02 52.934v2.052l.846.051.484.035c.705.034 1.995.034 2.882.017-.04-.017-.06-.052-.06-.103v-2.735c.02-.018.02-.018.02-.035Zm-.585-55.533a2.29 2.29 0 0 1-.987.991 2.3 2.3 0 0 1-1.028.24h-.04c-.625-.017-1.21-.274-1.593-.701-.766-.855-.725-2.035.08-2.855.404-.41 1.008-.633 1.633-.633.524.017 1.028.188 1.411.513.363.308.605.718.706 1.145.08.445.04.89-.182 1.3Z" fill="#D7D7D8"/><path d="M50.396 97.195c.323 0 1.008-.017 1.451-.034h.202l1.653-.052a.466.466 0 0 0 .302-.17.6.6 0 0 0 .12-.36.69.69 0 0 0-.1-.342.42.42 0 0 0-.282-.17h-.02l-1.653.034h-.202a50.57 50.57 0 0 1-1.47.034l-4.536.068v1.06l4.535-.068Zm0 17.046c.323 0 1.39-.051 1.955-.068l.262-.017c.121-.017.242-.086.282-.188a.58.58 0 0 0 .101-.359.53.53 0 0 0-.1-.342.376.376 0 0 0-.263-.171h-.02l-.342.017c-.585.017-1.572.068-1.895.068l-4.515.086v1.043l4.535-.069Zm.001-3.402c.322 0 1.31-.051 1.894-.068l.323-.017a.422.422 0 0 0 .282-.171.58.58 0 0 0 .1-.359.69.69 0 0 0-.1-.342.424.424 0 0 0-.262-.171h-.02l-.383.017c-.585.017-1.532.051-1.854.068l-4.535.086v1.043l4.555-.086ZM40.6 77.704a1.965 1.965 0 0 0-1.209-.444c-.544 0-1.068.188-1.41.547-.726.718-.746 1.778-.081 2.53.322.36.826.582 1.37.599a2 2 0 0 0 .907-.205c.403-.206.706-.496.867-.855.181-.36.222-.77.141-1.146-.06-.393-.262-.735-.584-1.026Zm-.826 1.368c0 .257-.1.496-.282.684a1.074 1.074 0 0 1-.766.308h-.02c-.302-.017-.585-.137-.766-.325-.363-.393-.343-.958.04-1.35a1.16 1.16 0 0 1 .787-.308c.302 0 .564.12.745.324.182.206.282.428.262.667Zm10.621 14.721c.303 0 1.25-.034 1.834-.05h.383a.42.42 0 0 0 .283-.172.58.58 0 0 0 .1-.359c0-.12-.04-.24-.1-.342a.42.42 0 0 0-.283-.17h-.342a97.41 97.41 0 0 1-1.915.033l-4.535.052v1.043l4.575-.035Zm0 13.628c.323 0 1.049-.034 1.492-.051h.181l1.653-.052c.121-.017.242-.068.302-.171a.598.598 0 0 0 .121-.359.69.69 0 0 0-.1-.342.422.422 0 0 0-.283-.171h-.02l-1.652.052h-.222c-.444.017-1.129.034-1.451.051l-4.535.085v1.043l4.514-.085Zm99.607-10.619.403.804c.725.17 1.451.273 2.196.29h.666c.967 0 1.914-.12 2.821-.376l1.27-2.547a11.03 11.03 0 0 1-1.33.547h-.02a9.515 9.515 0 0 1-2.6.479h-.424c-.665 0-1.33-.069-1.995-.223l-.181-.034-.061-.017c-.524-.12-1.048-.29-1.552-.496l.746 1.488c.06.034.061.05.061.085Z" fill="#231815"/><path d="M39.29 78.576a.715.715 0 0 0-.523-.222.81.81 0 0 0-.565.222.73.73 0 0 0-.02 1.026c.12.136.322.222.544.239a.811.811 0 0 0 .565-.222.762.762 0 0 0 .221-.53 1 1 0 0 0-.221-.513Zm.667-11.506c.463.153.967.256 1.491.273h.04l89.407-.274c.121 0 .262 0 .383.017.121.018.242.035.383.052.242.051.484.12.726.205l5.643 1.983c.101.035.222.069.322.103.021 0 .041 0 .061.017.302.085.625.12.927.137h.04l8.425-.034 4.313-.018 9.695-.034c.181 0 .342-.017.504-.068a.308.308 0 0 0 .241-.257.676.676 0 0 0-.241-.444l-2.862-2.308-5.785-4.805h-3.749l-117.16.086h-.685l6.792 4.838c.323.223.686.394 1.089.53Zm-3.266 14.72a2.142 2.142 0 0 0-.443-.239c-.827-.342-1.431-.974-1.633-1.727-.201-.615-.141-1.282.141-1.88.282-.616.806-1.112 1.492-1.402a3.53 3.53 0 0 0 .443-.24c.504-.393.786-.94.766-1.521v-2.702l-6.752-.307v61.038c.02.206.121.394.282.548l5.18 4.821 1.29.069v-2.035l.02-52.935c0-.547-.282-1.094-.786-1.487Zm13.705 35.856c.303 0 1.27-.052 1.854-.069l.383-.017c.121-.017.242-.085.282-.188a.58.58 0 0 0 .101-.359.69.69 0 0 0-.1-.342c-.04-.085-.142-.154-.262-.171h-.02l-.323.017c-.605.017-1.592.068-1.915.068l-4.535.103v1.043l4.535-.085Zm108.896-22.878c.343-.325.645-.65.947-1.009.303-.359.565-.718.807-1.094.947-1.23 1.612-2.616 1.934-4.07.343-1.453.383-2.94.101-4.393-.262-1.454-.866-2.856-1.753-4.12-.887-1.266-2.117-2.343-3.588-3.13-1.532-.837-3.325-1.282-5.139-1.282a12.126 12.126 0 0 0-5.18 1.214c-.645.308-1.25.667-1.834 1.06a12.067 12.067 0 0 0-1.875 1.607 10.372 10.372 0 0 0-1.41 1.898c-.383.684-.706 1.385-.907 2.12a9.476 9.476 0 0 0-.383 2.24c-.061 1.214.08 2.41.423 3.59a10.293 10.293 0 0 0 1.673 3.3c.383.513.826.975 1.31 1.42.484.444 1.028.837 1.592 1.18.585.341 1.189.649 1.854.871.565.205 1.149.36 1.754.462l-.806-1.573c-.202-.086-.383-.188-.585-.29a9.547 9.547 0 0 1-3.063-2.702c-1.452-2.035-2.076-4.411-1.794-6.771a9.719 9.719 0 0 1 3.366-6.31c1.028-.905 2.297-1.59 3.708-2a9.867 9.867 0 0 1 3.87-.324 9.653 9.653 0 0 1 6.671 3.864c1.451 2.034 2.076 4.41 1.794 6.77a9.812 9.812 0 0 1-3.366 6.31c-.504.427-1.048.803-1.633 1.128l-.846 1.727.06-.034a10.467 10.467 0 0 0 2.298-1.659ZM55.475 130.023h-.04c-.726.035-1.512.069-2.52.103l-1.47.068-1.049.052-4.535.119v1.043l4.515-.119 1.028-.052 1.471-.068c.685-.034 1.592-.085 2.52-.12a.49.49 0 0 0 .342-.171.623.623 0 0 0 .141-.359.554.554 0 0 0-.12-.342c-.041-.085-.162-.154-.283-.154Zm-5.079-8.959c.323 0 .645-.017.968-.034l1.27-.052c.12-.017.241-.085.282-.188a.58.58 0 0 0 .1-.359.629.629 0 0 0-.1-.325c-.04-.085-.142-.153-.262-.171h-.02l-1.29.052c-.323.017-.625.034-.948.034l-4.535.103v1.043l4.535-.103Zm5.059-21.628h-.02c-.847.017-1.673.034-2.52.068h-.342c-.645.017-1.874.051-2.177.068l-4.535.069v1.043l4.515-.069c.282 0 1.41-.034 2.096-.051l.423-.017c.847-.017 1.673-.051 2.52-.069a.49.49 0 0 0 .342-.171.622.622 0 0 0 .141-.359.55.55 0 0 0-.12-.341c-.061-.12-.182-.171-.323-.171Zm-.001 3.402h-.02c-.846.017-1.673.051-2.52.068l-.422.017c-.665.017-1.794.052-2.076.069l-4.535.068v1.026h.04l4.474-.068c.303 0 1.431-.035 2.097-.069l.403-.017a124.46 124.46 0 0 1 2.52-.068.493.493 0 0 0 .342-.171.628.628 0 0 0 .14-.359.55.55 0 0 0-.12-.342.38.38 0 0 0-.323-.154Zm-9.513 21.731 4.454-.103c.323 0 1.028-.034 1.452-.068h.201c.544-.034 1.109-.051 1.653-.068a.423.423 0 0 0 .302-.189.596.596 0 0 0 .121-.358.69.69 0 0 0-.1-.343.42.42 0 0 0-.283-.17h-.02l-1.653.068-.201.017c-.423.017-1.129.051-1.451.051l-4.535.103v1.026c.02.017.04.034.06.034Zm4.455 3.317c.323-.017 1.028-.051 1.471-.069l.182-.017 1.653-.085a.425.425 0 0 0 .302-.188c.08-.103.12-.24.12-.359 0-.12-.04-.223-.1-.325a.418.418 0 0 0-.282-.171h-.02l-1.653.068h-.202c-.423.017-1.148.052-1.47.069l-4.536.119v1.043l4.535-.085Zm75.822-1.196c.101-.41.041-.821-.161-1.197-.201-.359-.564-.615-.987-.735a2.038 2.038 0 0 0-.545.427c-.604.684-.665 1.59-.181 2.326.121.188.282.342.484.478.342-.051.665-.205.907-.427.221-.257.403-.547.483-.872Zm38.94-51.192a1.284 1.284 0 0 1-.242-.068v5.522a1.29 1.29 0 0 1 .242-.068c.504-.12.967-.376 1.31-.718.343-.342.605-.752.726-1.197a2.835 2.835 0 0 0-.222-2.103c-.323-.667-1.008-1.18-1.814-1.368ZM82 127.818c.1-.411.04-.855-.182-1.231a1.68 1.68 0 0 0-1.048-.735 2.264 2.264 0 0 0-.585.427c-.302.342-.483.735-.504 1.163-.04.427.081.837.323 1.196.141.189.302.359.504.496.363-.051.705-.205.967-.427.262-.257.464-.564.524-.889Zm81.808-23.629c-1.069.821-1.653 1.864-1.653 2.958l-.02 15.73c0 .547.161 1.094.443 1.59.302.496.706.941 1.209 1.282.142.103.303.206.464.291l.242.103-.061-.069-.121-.154-.08-.102a5.171 5.171 0 0 1-.706-1.112c0-.017-.02-.017-.02-.034-.04-.068-.06-.154-.1-.222-.323-.547-.504-1.146-.504-1.744l.02-15.696c0-.615.181-1.231.504-1.778.181-.461.463-.906.806-1.299.04-.034.06-.069.101-.103l-.061.034c-.161.103-.322.205-.463.325Z" fill="#231815"/></g></g><defs><clipPath id="a"><path fill="#fff" transform="translate(30 61)" d="M0 0h139v78H0z"/></clipPath></defs></svg>