<svg width="200" height="200" viewBox="0 0 200 200" fill="none" xmlns="http://www.w3.org/2000/svg">
<path d="M86.047 42.5404C85.996 42.5404 85.996 42.5404 85.945 42.5404H85.894C85.8429 42.5404 85.7919 42.5404 85.7919 42.5404H85.5368V42.3865C85.4858 42.3865 85.4348 42.3865 85.3838 42.3865V43.3097C85.5368 43.3097 85.7409 43.3097 85.894 43.2584C85.945 43.2584 85.945 43.2584 85.996 43.2584H86.047C86.047 43.2584 86.047 43.2584 86.098 43.2584C86.149 43.2584 86.149 43.2584 86.149 43.2071C86.2001 43.1559 86.2001 43.1046 86.2001 43.002V42.9507V42.7455C86.2001 42.6942 86.2001 42.6429 86.149 42.5916C86.149 42.5916 86.098 42.5404 86.047 42.5404ZM85.996 43.1046L85.5368 43.1559V42.7968L85.996 42.7455V43.1046Z" fill="#545454"/>
<path d="M84.6697 42.0274V41.8735C84.6697 41.8222 84.6697 41.7709 84.6187 41.7709V41.617V41.5657C84.6187 41.5144 84.6187 41.5144 84.5677 41.4632L84.5167 41.4119C84.5167 41.4119 84.5167 41.4119 84.4657 41.4119C84.4657 41.4119 83.8024 41.4632 83.5474 41.4632C83.5474 41.7709 83.5474 42.0787 83.5474 42.3864C83.9045 42.3864 84.2616 42.3351 84.6187 42.3351V42.0274H84.6697ZM83.7514 41.617C83.9045 41.617 84.0575 41.617 84.2106 41.5657C84.2616 41.5657 84.2616 41.5657 84.3126 41.5657H84.3636H84.4146C84.4146 41.5657 84.4146 41.5657 84.4146 41.617C84.4146 41.617 84.4146 41.617 84.4146 41.6683V41.7196V41.8222C84.2106 41.8222 83.9555 41.8735 83.7514 41.8735V41.617ZM84.4657 42.0274V42.13C84.2106 42.13 84.0065 42.1812 83.7514 42.1812V41.9761C83.9045 41.9761 84.0575 41.9761 84.2106 41.9248C84.3126 41.9248 84.3636 41.9248 84.4146 41.9248C84.4657 41.9761 84.4657 41.9761 84.4657 42.0274Z" fill="#545454"/>
<path d="M87.2714 42.13C87.3224 42.13 87.3224 42.13 87.3734 42.13C87.4244 42.13 87.4244 42.13 87.4244 42.0788C87.4754 42.0275 87.4754 41.9762 87.4754 41.8736V41.8223C87.4754 41.7197 87.4754 41.6684 87.4754 41.5658C87.4754 41.5145 87.4754 41.4632 87.4244 41.412C87.4244 41.3607 87.3734 41.3607 87.3224 41.3607H87.2714C87.2714 41.3607 87.2714 41.3607 87.2204 41.3607H87.1693C87.1183 41.3607 87.0673 41.3607 87.0673 41.3607C86.9653 41.3607 86.9143 41.3607 86.8122 41.3607V41.2068C86.7612 41.2068 86.7102 41.2068 86.6592 41.2068V42.13C86.8122 42.13 87.0163 42.13 87.1693 42.0788C87.2204 42.13 87.2204 42.13 87.2714 42.13ZM86.8122 41.5658L87.2714 41.5145V41.8736L86.8122 41.9249V41.5658Z" fill="#545454"/>
<path d="M44.9274 45.3102L44.9784 45.3615H45.0295L47.3252 43.2072C47.3762 43.1559 47.3762 43.1046 47.3252 43.1046C47.2742 43.0533 47.2232 43.0533 47.2232 43.1046L44.9274 45.2589C44.8764 45.2589 44.8764 45.3102 44.9274 45.3102Z" fill="#545454"/>
<path d="M41.6625 45.6177H41.7135L46.4581 40.8989C46.5091 40.8476 46.5091 40.7963 46.4581 40.7963C46.4071 40.745 46.3561 40.745 46.3561 40.7963L41.6115 45.5151C41.5605 45.5664 41.5605 45.6177 41.6115 45.6177C41.6115 45.5664 41.6625 45.6177 41.6625 45.6177Z" fill="#545454"/>
<path d="M33.6527 53.1065C33.7037 53.1065 33.7037 53.1065 33.6527 53.1065C33.7037 53.1065 33.7037 53.1065 33.6527 53.1065L34.469 53.0553L51.0494 52.0294L52.2228 51.9781C52.4779 51.9781 52.7329 51.773 52.784 51.5165L53.2431 49.7213L56.5592 37.0009L56.9163 35.5647C56.9673 35.3595 56.9163 35.1544 56.8143 35.0005C56.7122 34.8466 56.5082 34.744 56.3041 34.7953L55.4878 34.8466L38.8564 36.3341L37.7341 36.4367C37.479 36.4367 37.2749 36.6418 37.1729 36.8983L36.7137 38.6422L33.4487 50.9523L33.0405 52.3372C32.9895 52.5423 33.0405 52.7475 33.1426 52.9014C33.2956 53.004 33.4487 53.1065 33.6527 53.1065ZM33.2446 52.3885L33.6017 51.0036L36.9178 38.6422L37.3769 36.8983C37.428 36.7444 37.581 36.5905 37.7851 36.5905L38.9074 36.488L55.4878 35.1031L56.3041 35.0518C56.4572 35.0518 56.6102 35.1031 56.6612 35.2057C56.7633 35.3082 56.7633 35.4621 56.7633 35.616L56.4061 37.0522L53.0901 49.7726L52.5799 51.4652C52.5289 51.6704 52.3758 51.773 52.1718 51.773L50.9984 51.8243L34.418 52.8501L33.6527 52.9014C33.4997 52.9014 33.3976 52.8501 33.2956 52.7475C33.1936 52.6449 33.1936 52.491 33.2446 52.3885Z" fill="#545454"/>
<path d="M168.439 42.9507C168.439 42.8994 168.388 42.8994 168.388 42.8481L168.337 42.7968C168.286 42.7455 168.184 42.6429 167.367 42.5403C167.061 42.489 166.806 42.489 166.5 42.4377L107.933 37.4111C107.474 37.3598 107.015 37.3598 106.607 37.3085C106.402 37.3085 106.198 37.3085 105.943 37.2572C105.688 37.2572 105.484 37.2572 105.229 37.206C104.362 37.1547 103.443 37.1547 102.525 37.1547C102.321 37.1547 102.066 37.1547 101.862 37.1547C101.658 37.1547 101.403 37.1547 101.199 37.1547C100.74 37.1547 100.28 37.1547 99.8723 37.206C99.6172 37.206 99.4132 37.206 99.1581 37.206C98.954 37.206 98.7499 37.206 98.4949 37.2572C98.0357 37.2572 97.5766 37.3085 97.1684 37.3598L96.1481 37.4111C96.0971 37.4111 96.0971 37.4111 96.0461 37.4624C95.9951 37.4624 95.9951 37.4111 95.944 37.4624L75.6394 39.0012V38.1805C75.6394 38.1805 75.6394 38.1292 75.5884 38.0779L75.5374 38.0266C75.4864 37.9753 75.3843 37.924 74.9252 37.8728C74.7721 37.8728 74.5681 37.8215 74.313 37.8215C73.0886 37.7189 71.6091 37.7189 70.9969 37.7189C70.3847 37.7189 69.8235 37.7189 69.3644 37.7702C69.0583 37.7702 68.8032 37.8215 68.5481 37.8215C68.4461 37.8215 68.344 37.8215 68.242 37.8728C68.14 37.8728 68.089 37.8728 67.9869 37.924C67.9359 37.924 67.8849 37.924 67.8339 37.9753C67.8339 37.9753 67.7829 37.9753 67.7829 38.0266C67.7829 38.0266 67.7318 38.0266 67.7318 38.0779L67.6808 38.1292C67.6298 38.1805 67.6298 38.1805 67.6298 38.2318V39.0012C67.6298 39.0012 67.6298 39.0525 67.6808 39.0525L67.7318 39.1038C67.7829 39.1038 67.8339 39.1551 67.8339 39.1551C67.8849 39.1551 67.9359 39.2063 67.9869 39.2063C68.089 39.2063 68.191 39.2576 68.293 39.2576C68.4461 39.2576 68.6501 39.3089 68.8542 39.3089V39.6167L59.008 40.3861L59.8753 37.1034C59.9263 36.5392 60.0793 36.1288 60.0793 35.7185C60.0793 35.462 60.0793 35.2569 60.0283 35.0517C59.9263 34.7952 59.8243 34.6414 59.6202 34.5388L58.0897 33.6668C57.8856 33.5642 57.7326 33.5129 57.4775 33.5129C57.2734 33.5129 57.1204 33.5129 56.9163 33.5129L38.0912 35.1543C37.734 35.2056 37.4279 35.2056 37.0708 35.3594C36.9178 35.4107 36.7647 35.5133 36.6117 35.6672C36.5096 35.7698 36.3566 35.9237 36.2546 36.0262C36.0505 36.2827 35.8974 36.5392 35.7444 36.8982C35.6934 37.2572 35.6424 37.565 35.5403 37.8728L34.367 42.2326C33.8568 42.3351 33.7037 42.3864 33.6527 42.4377C33.6527 42.4377 33.6017 42.489 33.6017 42.5403C33.6017 42.5916 33.6017 42.5916 33.6017 42.6429V45.2588L31.8161 51.9267C31.7141 52.2858 31.561 52.7987 31.561 53.209C31.561 53.4655 31.561 53.6707 31.6121 53.8758C31.6631 53.9784 31.7141 54.081 31.7651 54.1836C31.8161 54.2862 31.9182 54.3375 32.0202 54.3888L33.5507 55.2094L33.4997 157.793C33.4997 157.896 33.6017 157.998 33.7037 157.998C33.7548 157.998 33.7548 157.998 33.8058 157.998L33.8568 159.229C33.8568 159.281 33.8568 159.332 33.9078 159.383C33.9078 159.383 33.9588 159.435 34.0098 159.435C34.0609 159.435 34.0609 159.486 34.1119 159.486C34.1629 159.486 34.1629 159.486 34.2139 159.537C34.3159 159.537 34.367 159.588 34.469 159.588C34.622 159.64 34.7751 159.64 34.9281 159.64C35.1322 159.64 35.3363 159.691 35.5403 159.691V160.05V160.101C35.5403 160.153 35.5403 160.153 35.5913 160.204C35.6424 160.255 35.6424 160.255 35.6424 160.255C35.6934 160.255 35.7444 160.307 35.7954 160.307C35.8464 160.307 35.9485 160.358 35.9995 160.358C36.1015 160.358 36.2035 160.358 36.2546 160.409C36.4586 160.409 36.7137 160.46 37.0198 160.46C37.479 160.46 37.9891 160.512 38.5503 160.512C38.6523 160.512 38.7544 160.512 38.8564 160.512C38.9584 160.512 39.0095 160.512 39.1115 160.512C39.2135 160.512 39.3666 160.512 39.5196 160.512C39.6217 160.512 39.6727 160.512 39.7747 160.512C39.9278 160.512 40.1318 160.512 40.2849 160.512C40.3359 160.512 40.3869 160.512 40.4889 160.512C40.642 160.512 40.8461 160.512 40.9991 160.512C41.0501 160.512 41.1011 160.512 41.1522 160.512C41.3052 160.512 41.4583 160.512 41.6113 160.46H41.6623C41.8154 160.46 42.0705 160.409 42.3255 160.409C42.4276 160.409 42.5296 160.358 42.6316 160.358C42.6316 160.358 42.6316 160.358 42.6827 160.358L97.3725 164.615C97.7296 164.666 98.0357 164.666 98.3928 164.666V165.077C98.3928 165.128 98.3928 165.179 98.4438 165.179C98.4438 165.179 98.4949 165.231 98.5459 165.231C98.5969 165.282 98.6479 165.282 98.6989 165.282C98.801 165.282 98.852 165.333 98.954 165.333C99.056 165.333 99.1581 165.384 99.2601 165.384C99.5152 165.436 99.7703 165.436 100.127 165.436C100.638 165.487 101.25 165.487 101.862 165.487C102.015 165.487 102.219 165.487 102.372 165.487C103.443 165.487 104.515 165.436 105.28 165.384C105.484 165.384 105.688 165.333 105.892 165.333C105.994 165.333 106.096 165.282 106.198 165.282C106.249 165.282 106.3 165.231 106.351 165.231L106.402 165.179C106.453 165.128 106.453 165.077 106.453 165.025V164.615C106.607 164.615 106.811 164.615 106.964 164.564C107.168 164.564 107.423 164.512 107.627 164.512L159.46 159.948C159.511 159.948 159.562 159.948 159.562 159.948C159.664 159.948 159.766 159.948 159.817 159.999C160.072 159.999 160.276 160.05 160.633 160.05C161.092 160.101 161.653 160.101 162.215 160.101C162.317 160.101 162.572 160.101 162.827 160.101C163.541 160.101 164.561 160.101 165.429 159.999C165.582 159.999 165.735 159.948 165.888 159.948C165.99 159.948 166.041 159.896 166.143 159.896C166.194 159.896 166.245 159.845 166.296 159.845C166.347 159.794 166.398 159.742 166.398 159.691V159.332C166.653 159.332 166.908 159.281 167.112 159.229C167.265 159.229 167.418 159.178 167.52 159.178C167.571 159.178 167.673 159.127 167.724 159.127C167.775 159.127 167.775 159.127 167.826 159.076C167.878 159.076 167.877 159.076 167.929 159.024C167.929 159.024 167.98 158.973 168.031 158.973L168.082 158.922V158.87L168.133 157.639C168.184 157.639 168.184 157.639 168.235 157.639C168.337 157.639 168.439 157.537 168.439 157.434L168.388 43.1045C168.49 43.0019 168.49 42.9507 168.439 42.9507ZM96.0971 99.0127C96.1481 99.0127 96.1991 99.0127 96.1991 98.9614C96.1991 98.9614 96.1991 98.9614 96.2501 98.9614C96.4032 99.064 96.5562 99.2179 96.6583 99.4231C96.8623 99.7821 96.9644 100.192 96.9644 100.654C96.9644 101.116 96.8623 101.526 96.6583 101.885C96.5562 102.09 96.4032 102.244 96.2501 102.347C96.2501 102.347 96.2501 102.347 96.1991 102.347C96.1481 102.295 96.0971 102.295 96.0971 102.295C95.9951 102.295 95.893 102.398 95.893 102.501C95.842 102.501 95.791 102.552 95.689 102.552C95.74 102.552 95.74 102.501 95.791 102.501C95.9951 102.398 96.1481 102.193 96.2501 101.988C96.4542 101.629 96.6073 101.167 96.6073 100.654C96.6073 100.192 96.5052 99.6795 96.2501 99.3205C96.0971 99.1153 95.944 98.9101 95.791 98.8076C95.791 98.8076 95.74 98.8076 95.689 98.7563C95.74 98.7563 95.791 98.7563 95.842 98.7563C95.893 98.9101 95.9951 99.0127 96.0971 99.0127ZM95.689 98.6024H94.9237H89.0058C88.8017 98.6024 88.5466 98.6537 88.3426 98.8076C88.1895 98.9101 87.9854 99.1153 87.8834 99.3205C87.6793 99.6795 87.5263 100.141 87.5263 100.603C87.5263 101.064 87.6283 101.526 87.8834 101.885C87.9854 102.09 88.1895 102.295 88.3426 102.398C88.5466 102.552 88.7507 102.603 89.0058 102.603H94.9747H95.689C95.74 102.603 95.842 102.603 95.893 102.552V154.357H95.842C95.791 154.357 95.74 154.408 95.74 154.459C95.74 154.511 95.791 154.562 95.842 154.562C95.842 154.562 95.842 154.562 95.893 154.562H95.944V154.716L36.8157 150.766L36.8668 58.5947L95.944 55.3633V98.5511C95.791 98.6537 95.74 98.6024 95.689 98.6024ZM95.74 98.9614C95.893 99.064 96.0461 99.2179 96.1481 99.4231C96.3522 99.7821 96.4542 100.192 96.4542 100.654C96.4542 101.116 96.3522 101.526 96.1481 101.885C96.0461 102.09 95.893 102.244 95.74 102.347C95.5359 102.449 95.3829 102.552 95.1788 102.552H95.0257H89.1078C88.9037 102.552 88.6997 102.501 88.5466 102.347C88.3936 102.244 88.2405 102.09 88.1385 101.885C87.9344 101.526 87.8324 101.116 87.8324 100.654C87.8324 100.192 87.9344 99.7821 88.1385 99.4231C88.2405 99.2179 88.3936 99.064 88.5466 98.9614C88.6997 98.8588 88.9037 98.7563 89.1078 98.7563H95.0768H95.2298C95.3318 98.8076 95.5359 98.8588 95.74 98.9614ZM95.893 155.229V162.615C95.893 162.666 95.893 162.666 95.893 162.717L36.7137 158.204C36.7137 158.152 36.7647 158.152 36.7647 158.101V151.33L95.893 155.229ZM67.7829 38.7447V38.1805L67.8339 38.1292H67.8849C67.9359 38.1292 67.9869 38.0779 68.0379 38.0779C68.14 38.0779 68.191 38.0266 68.293 38.0266C68.395 38.0266 68.4971 38.0266 68.5991 37.9753C68.8542 37.9753 69.1093 37.924 69.4154 37.924C69.9256 37.924 70.4357 37.8728 71.0479 37.8728C71.6091 37.8728 73.0886 37.8728 74.313 37.9753C74.5681 37.9753 74.7211 38.0266 74.9252 38.0266C75.3843 38.0779 75.4353 38.1292 75.4353 38.1292L75.4864 38.1805V39.0012L74.466 39.1038V38.6934C74.466 38.6934 74.466 38.6934 74.415 38.6934C73.5477 38.6421 72.2723 38.5908 71.0479 38.5908C70.4357 38.5908 69.8745 38.5908 69.3644 38.6421C69.0583 38.6421 68.7522 38.6934 68.5481 38.6934C68.4461 38.6934 68.293 38.6934 68.191 38.7447C68.089 38.7447 68.0379 38.796 67.9359 38.796C67.8849 38.7447 67.8339 38.7447 67.7829 38.7447ZM68.293 38.9499C68.191 38.9499 68.089 38.8986 67.9869 38.8986C67.9359 38.8986 67.8849 38.8986 67.8339 38.8473H67.8849C67.9869 38.8473 68.0379 38.796 68.14 38.796C68.242 38.796 68.3951 38.7447 68.4971 38.7447C68.7522 38.7447 69.0072 38.6934 69.3133 38.6934C69.8235 38.6421 70.3847 38.6421 70.9969 38.6421C71.7111 38.6421 72.3743 38.6421 73.0376 38.6934L68.9052 39.0012C68.7012 39.0012 68.4971 39.0012 68.293 38.9499ZM74.313 38.796V39.1038L69.0583 39.5141V39.2063L74.313 38.796ZM95.893 37.8728V55.0043L36.8157 58.2356V55.1581L53.3962 54.1836C53.5492 54.1836 53.7533 54.1836 53.9063 54.1323C54.1104 54.081 54.2634 54.0297 54.4165 53.9784C54.5695 53.9271 54.7226 53.8245 54.8756 53.6707C55.0287 53.5681 55.1307 53.4142 55.2328 53.2603C55.4368 53.0039 55.5899 52.6961 55.7429 52.3371C55.896 51.978 55.947 51.619 56.049 51.3112L56.8143 48.3363L59.3651 48.1824C59.6712 48.1824 59.9773 48.0286 60.2834 47.8234C60.5385 47.6182 60.7426 47.413 60.8956 47.1053C61.2017 46.5924 61.3548 45.9256 61.3037 45.2588C61.2527 44.592 61.0487 43.9252 60.7426 43.4636C60.5385 43.1558 60.3344 42.9507 60.0793 42.7455C59.7732 42.5403 59.4671 42.4377 59.161 42.3864C59.059 42.3864 59.008 42.3864 58.906 42.3864L58.2938 42.4377L58.7529 40.6425L95.893 37.8728ZM59.2631 42.7968C59.7222 42.8481 60.0793 43.1045 60.2834 43.3097C60.5385 43.5662 60.7426 43.9252 60.8956 44.3355C61.0487 44.6946 61.0997 45.1049 61.0997 45.5152C61.0997 46.0795 60.9466 46.5924 60.7426 47.0027C60.5895 47.2592 60.4365 47.4643 60.2324 47.5669C60.0283 47.7208 59.7732 47.8234 59.5692 47.8747C59.3141 47.926 59.059 47.8747 58.8549 47.7721C58.6509 47.6695 58.4468 47.5156 58.2427 47.3105C57.9366 46.9514 57.6816 46.4898 57.5795 45.9256L58.2938 43.1558C58.5488 42.8994 58.906 42.7968 59.2631 42.7968ZM58.2938 42.8994L58.3448 42.6429L59.008 42.5916C59.059 42.5916 59.161 42.5916 59.2121 42.5916C59.3141 42.5916 59.4671 42.6429 59.5692 42.6942C59.4671 42.6429 59.3651 42.6429 59.2631 42.6429C58.906 42.5916 58.5999 42.6942 58.2938 42.8994ZM60.1814 47.7721C60.1304 47.8234 60.0283 47.8747 59.9773 47.926C60.0793 47.8747 60.1304 47.8234 60.1814 47.7721ZM58.0387 47.413C58.2427 47.6182 58.4468 47.7721 58.7019 47.926C58.906 48.0286 59.11 48.0798 59.3141 48.0798C59.3651 48.0798 59.4671 48.0798 59.5182 48.0798C59.6712 48.0798 59.7732 48.0286 59.8753 47.9773C59.7222 48.0286 59.5182 48.0798 59.3651 48.1311L56.8653 48.285L57.3755 46.3359C57.5285 46.7463 57.7836 47.1566 58.0387 47.413ZM34.0098 42.7455C34.0609 42.7455 34.1629 42.6942 34.2649 42.6942L34.0098 43.6687V42.7455ZM31.8671 53.6194C31.8161 53.4655 31.8161 53.3116 31.8161 53.0552C31.8161 52.6961 31.9182 52.2858 32.0202 51.978L35.7954 37.924C35.8974 37.6163 35.9485 37.3085 36.1015 37.0008C36.1525 36.8469 36.2035 36.693 36.3056 36.5905C36.3566 36.4366 36.4586 36.334 36.5607 36.2314C36.6117 36.0775 36.7137 35.975 36.8157 35.8724C36.9178 35.7698 37.0708 35.7185 37.1729 35.6159C37.4279 35.5133 37.734 35.462 38.0401 35.4107L56.8653 33.8207C57.0183 33.8207 57.1714 33.7694 57.3755 33.8207C57.5795 33.8207 57.7326 33.872 57.8346 33.9233C57.8856 33.9746 57.9877 34.0259 58.0387 34.1284C58.0897 34.1797 58.1407 34.2823 58.1407 34.3849C58.1917 34.5388 58.1917 34.6927 58.1917 34.9491C58.1407 35.3082 58.0387 35.7185 57.9366 36.0775L54.1614 50.4906C54.0594 50.7983 54.0084 51.1061 53.9063 51.4138C53.8043 51.7729 53.6512 52.0293 53.4472 52.2345C53.3451 52.3371 53.2431 52.4909 53.1411 52.5935C53.039 52.6961 52.886 52.7987 52.7329 52.85C52.4779 52.9526 52.1718 53.0039 51.9167 53.0039H51.8657L33.0405 54.081H32.9895C32.8365 54.081 32.6834 54.081 32.5304 54.081C32.3773 54.081 32.2243 54.0297 32.1222 53.9784C32.0202 53.9271 31.9692 53.8758 31.9182 53.8245C31.9182 53.7732 31.8671 53.722 31.8671 53.6194ZM33.7548 54.953C33.7037 54.953 33.6527 54.953 33.6017 55.0043L32.0712 54.2349C32.0202 54.1836 31.9692 54.1323 31.8671 54.0297C31.9182 54.081 31.9692 54.1323 32.0712 54.1836C32.1732 54.2349 32.3263 54.2862 32.5304 54.2862C32.5814 54.2862 32.6324 54.2862 32.6324 54.2862C32.7344 54.2862 32.8365 54.2862 32.9895 54.2862L51.8146 53.1577C51.8146 53.1577 51.8146 53.1577 51.8657 53.1577H51.9167H52.0187C52.2738 53.1577 52.5289 53.1065 52.784 53.0039C52.937 52.9526 53.0901 52.85 53.1921 52.7474C53.2941 52.6448 53.4472 52.5422 53.5492 52.3884C53.7533 52.1319 53.9063 51.8754 54.0084 51.5164C54.1104 51.2087 54.2124 50.9009 54.2634 50.5931L58.0897 36.0775C58.1917 35.7185 58.2938 35.3082 58.3448 34.9491C58.3448 34.6927 58.3448 34.4875 58.2938 34.3336C58.2427 34.231 58.1917 34.1284 58.1407 34.0259C58.0897 33.9233 57.9877 33.872 57.8856 33.8207C57.7836 33.7694 57.5795 33.7181 57.4265 33.7181C57.4265 33.7181 57.4265 33.7181 57.4775 33.7181C57.6816 33.7181 57.8346 33.7694 57.9366 33.8207L59.4671 34.6927C59.6712 34.7952 59.7732 35.0004 59.8243 35.1543C59.8753 35.3082 59.8753 35.5133 59.8753 35.7698C59.8753 36.1801 59.7222 36.5905 59.6202 37.0008L58.7529 40.3861L58.6509 40.7451L55.845 51.4138C55.7429 51.7216 55.6919 52.0806 55.5389 52.3884C55.3858 52.7474 55.2328 53.0039 55.0797 53.2603C54.9777 53.4142 54.8756 53.5168 54.7226 53.6194C54.5695 53.722 54.4675 53.8245 54.3145 53.8758C54.1614 53.9271 54.0084 53.9784 53.8553 54.0297C53.7023 54.081 53.4982 54.081 53.3451 54.081L36.7137 55.0555C36.6627 55.0043 36.6117 54.953 36.5096 54.953C36.4076 54.953 36.3566 55.0043 36.3056 55.1068H34.571C34.418 55.1068 34.2139 55.1068 34.0098 55.1068C33.9588 55.0043 33.8568 54.953 33.7548 54.953ZM34.2139 157.896C34.2139 157.793 34.1119 157.691 34.0098 157.691C33.9588 157.691 33.9588 157.691 33.9078 157.742L34.0098 55.312C34.1119 55.312 34.1629 55.312 34.2649 55.312C34.367 55.312 34.469 55.312 34.571 55.312L36.3566 55.2094L36.3056 158.101L35.6424 158.05C35.3363 158.05 35.0302 157.998 34.6731 157.947C34.52 157.947 34.367 157.896 34.2139 157.896C34.2649 157.896 34.2649 157.896 34.2139 157.896ZM41.7133 160.204H41.6623C41.5093 160.204 41.3052 160.204 41.1011 160.255C41.0501 160.255 41.0501 160.255 40.9991 160.255C40.795 160.255 40.54 160.255 40.3359 160.307C40.2849 160.307 40.2339 160.307 40.1828 160.307C39.9788 160.307 39.7237 160.307 39.5196 160.307C39.4686 160.307 39.4686 160.307 39.4176 160.307C39.1625 160.307 38.9074 160.307 38.6013 160.307C38.0401 160.307 37.53 160.307 37.0708 160.255C36.7647 160.255 36.5096 160.204 36.3056 160.204C36.2035 160.204 36.1015 160.204 36.0505 160.153C35.9995 160.153 35.8974 160.153 35.8464 160.101C35.7954 160.101 35.7444 160.101 35.7444 160.05C35.7444 160.05 35.7444 160.05 35.6934 159.999V159.64C35.7444 159.64 35.7954 159.64 35.8974 159.64L41.9174 160.101C41.8154 160.204 41.7644 160.204 41.7133 160.204ZM106.351 164.974C106.351 164.974 106.3 165.025 106.351 164.974C106.249 165.025 106.249 165.077 106.198 165.077C106.147 165.077 105.994 165.128 105.892 165.128C105.688 165.179 105.484 165.179 105.28 165.179C104.413 165.282 103.137 165.282 101.862 165.282C101.25 165.282 100.638 165.231 100.127 165.231C99.7703 165.231 99.5152 165.179 99.2601 165.179C99.1581 165.179 99.056 165.179 98.954 165.128C98.903 165.128 98.801 165.077 98.7499 165.077C98.6989 165.077 98.6479 165.025 98.5969 165.025C98.5969 165.025 98.5969 165.025 98.5459 165.025V164.615C98.5969 164.615 98.5969 164.615 98.6479 164.615C99.0561 164.615 99.5152 164.666 99.9233 164.666C100.331 164.666 100.791 164.666 101.199 164.718C101.556 164.718 101.913 164.718 102.27 164.718C102.321 164.718 102.423 164.718 102.474 164.718C103.29 164.718 104.158 164.718 105.025 164.666C105.433 164.666 105.841 164.615 106.249 164.615V164.974H106.351ZM166.245 159.691C166.194 159.691 166.194 159.742 166.143 159.742C166.092 159.742 165.99 159.794 165.939 159.794C165.786 159.845 165.582 159.845 165.48 159.845C164.357 159.948 162.776 159.948 162.317 159.948C161.755 159.948 161.194 159.948 160.735 159.896C160.633 159.896 160.531 159.896 160.429 159.896L166.245 159.383V159.691C166.245 159.64 166.245 159.64 166.245 159.691ZM167.724 158.665C167.724 158.665 167.673 158.665 167.724 158.665C167.622 158.717 167.571 158.717 167.52 158.717C167.367 158.768 167.265 158.768 167.112 158.768C166.857 158.819 166.551 158.819 166.296 158.87L107.678 164.051C107.474 164.051 107.219 164.102 107.015 164.102C106.811 164.102 106.607 164.153 106.402 164.153C105.994 164.153 105.535 164.205 105.127 164.205C104.26 164.256 103.392 164.256 102.576 164.256C102.168 164.256 101.709 164.256 101.301 164.256C100.893 164.256 100.433 164.256 100.025 164.205C99.6172 164.205 99.1581 164.153 98.7499 164.153C98.3418 164.153 97.8827 164.102 97.4745 164.051L35.9485 159.281C35.6424 159.281 35.3363 159.229 35.0302 159.178C34.8771 159.178 34.7241 159.127 34.571 159.127C34.52 159.127 34.418 159.076 34.367 159.076H34.3159L34.2649 158.05C34.418 158.05 34.52 158.101 34.7241 158.101C35.0302 158.152 35.3873 158.152 35.6934 158.204L36.5096 158.255C36.5096 158.255 36.5096 158.255 36.5607 158.255C36.5607 158.306 36.6117 158.306 36.6117 158.306L95.944 162.82C95.9951 162.82 95.9951 162.769 96.0461 162.769H96.0971H96.1481H96.1991L97.2195 162.82C97.6786 162.871 98.0867 162.871 98.5459 162.922C99.005 162.922 99.4642 162.974 99.8723 162.974C100.331 162.974 100.791 162.974 101.199 163.025C101.403 163.025 101.658 163.025 101.862 163.025C102.015 163.025 102.168 163.025 102.321 163.025C102.372 163.025 102.474 163.025 102.525 163.025C103.392 163.025 104.311 163.025 105.229 162.974C106.249 162.922 107.066 162.871 107.933 162.82L166.551 157.742C166.806 157.742 167.112 157.691 167.418 157.639C167.571 157.639 167.673 157.588 167.775 157.588L167.724 158.665ZM167.98 157.28C167.877 157.28 167.775 157.383 167.775 157.486C167.673 157.486 167.52 157.537 167.367 157.537C167.061 157.588 166.755 157.588 166.5 157.639L107.882 162.717C107.066 162.769 106.249 162.82 105.229 162.871C104.311 162.922 103.443 162.922 102.525 162.922C102.321 162.922 102.066 162.922 101.862 162.922C101.658 162.922 101.403 162.922 101.199 162.922C101.046 162.922 100.893 162.922 100.74 162.922C100.689 162.871 100.638 162.871 100.638 162.922C100.382 162.922 100.127 162.922 99.8723 162.922C99.4132 162.922 98.954 162.871 98.5459 162.871C98.0867 162.871 97.6276 162.82 97.2195 162.769L96.3012 162.717V162.666V102.603H96.3522C96.5562 102.501 96.7093 102.295 96.8113 102.09C97.0154 101.731 97.1684 101.27 97.1684 100.757C97.1684 100.295 97.0664 99.7821 96.8113 99.4231C96.6583 99.2179 96.5052 99.0127 96.3522 98.9101H96.3012V55.3633V38.0266L97.2195 37.9753C97.6786 37.924 98.0867 37.924 98.5459 37.8728C98.7499 37.8728 98.954 37.8728 99.1581 37.8215C99.4132 37.8215 99.6172 37.8215 99.8723 37.8215C100.331 37.8215 100.74 37.8215 101.199 37.7702C101.403 37.7702 101.658 37.7702 101.862 37.7702C102.066 37.7702 102.321 37.7702 102.525 37.7702C103.392 37.7702 104.311 37.7702 105.178 37.8215C105.433 37.8215 105.637 37.8215 105.892 37.8728C106.096 37.8728 106.3 37.8728 106.504 37.924C106.964 37.9753 107.372 37.9753 107.831 38.0266L166.398 43.0532C166.704 43.0532 166.959 43.1045 167.265 43.1558C167.724 43.2071 167.929 43.2584 167.98 43.3097L168.031 157.486C168.082 157.28 168.031 157.28 167.98 157.28Z" fill="#545454"/>
<path d="M44.8766 148.715C44.7745 148.663 44.6725 148.612 44.5705 148.612C44.3664 148.612 44.2133 148.766 44.1113 148.971C44.0093 149.176 44.0093 149.381 44.0093 149.484C44.0093 149.689 44.0603 149.894 44.1623 150.1C44.2133 150.202 44.3154 150.305 44.3664 150.356C44.4684 150.407 44.5705 150.459 44.6725 150.459C44.8766 150.459 45.0296 150.305 45.1316 150.1C45.2337 149.894 45.2337 149.689 45.2337 149.587C45.2337 149.381 45.1827 149.176 45.0806 148.971C45.0296 148.869 44.9786 148.766 44.8766 148.715ZM44.9786 149.997C44.9276 150.048 44.8255 150.253 44.6725 150.253C44.5705 150.253 44.5194 150.202 44.4684 150.202C44.4174 150.151 44.3664 150.1 44.3154 149.997C44.2133 149.843 44.2133 149.689 44.2133 149.484C44.2133 149.33 44.2644 149.176 44.3154 149.022C44.3664 148.971 44.4684 148.766 44.6215 148.766C44.7235 148.766 44.7745 148.817 44.8255 148.817C44.8766 148.869 44.9276 148.92 44.9786 149.022C45.0806 149.176 45.0806 149.33 45.0806 149.535C45.0806 149.74 45.0296 149.894 44.9786 149.997Z" fill="#545454"/>
<path d="M40.7442 148.663C40.6932 148.561 40.6422 148.458 40.5401 148.407C40.4381 148.355 40.3361 148.304 40.234 148.304C40.03 148.304 39.8769 148.458 39.7749 148.663C39.6729 148.817 39.6729 149.022 39.6729 149.176C39.6729 149.381 39.7239 149.586 39.8259 149.74C39.8769 149.843 39.9279 149.946 40.03 149.997C40.132 150.048 40.234 150.099 40.3361 150.099C40.5401 150.099 40.6932 149.946 40.7952 149.74C40.8973 149.535 40.8973 149.33 40.8973 149.227C40.8973 149.074 40.8462 148.868 40.7442 148.663ZM40.6932 149.279C40.6932 149.433 40.6422 149.586 40.5912 149.74C40.5401 149.792 40.4381 149.997 40.2851 149.997C40.183 149.997 40.132 149.946 40.081 149.946C40.03 149.894 39.979 149.843 39.9279 149.74C39.8259 149.586 39.8259 149.433 39.8259 149.227C39.8259 149.074 39.8769 148.92 39.9279 148.766C39.979 148.715 40.081 148.509 40.234 148.509C40.3361 148.509 40.3871 148.561 40.4381 148.561C40.4891 148.612 40.5401 148.663 40.5912 148.766C40.6932 148.92 40.6932 149.074 40.6932 149.279Z" fill="#545454"/>
<path d="M85.843 41.617C85.894 41.617 85.945 41.617 86.0471 41.617V42.1812H86.2511C86.2511 41.9761 86.2511 41.7709 86.2511 41.617C86.3021 41.617 86.3532 41.617 86.4552 41.617C86.4552 41.8222 86.4552 42.0274 86.4552 42.1812C86.5062 42.1812 86.5572 42.1812 86.6593 42.1812C86.6593 42.0274 86.6593 41.9248 86.6593 41.7709V41.6683V41.617V41.5657C86.6593 41.5144 86.6593 41.5144 86.6083 41.4632C86.6083 41.4632 86.5572 41.4119 86.5062 41.4119C86.2511 41.4119 85.996 41.4632 85.6899 41.4632V42.2325C85.741 42.2325 85.792 42.2325 85.894 42.2325C85.843 42.0274 85.843 41.8222 85.843 41.617Z" fill="#545454"/>
<path d="M83.6494 43.4636C83.7004 43.4636 83.7004 43.4636 83.6494 43.4636C83.7004 43.4636 83.7514 43.4636 83.7514 43.4636C83.8024 43.4636 83.9045 43.4636 83.9555 43.4636C84.1085 43.4636 84.2106 43.4636 84.3636 43.4123V43.2584C84.2616 43.2584 84.1596 43.2584 84.0065 43.2584C83.9555 43.2584 83.9045 43.2584 83.8535 43.2584H83.7514C83.7514 43.2584 83.7514 43.2584 83.7514 43.2071V42.489H83.5474V42.8993C83.5474 42.9506 83.5474 43.0532 83.5474 43.1045V43.2584V43.3097C83.5474 43.361 83.5474 43.361 83.5474 43.4123C83.5984 43.4123 83.6494 43.4636 83.6494 43.4636Z" fill="#545454"/>
<path d="M45.0806 58.7999C44.9275 58.6973 44.7745 58.646 44.6214 58.5947H44.3664H44.3153C44.1113 58.5947 43.9582 58.6973 43.8052 58.8512C43.7031 58.9538 43.6011 59.1589 43.4991 59.3128C43.346 59.6719 43.346 60.0822 43.4481 60.4925V60.5438C43.4991 60.749 43.6011 60.9542 43.7542 61.108C43.9072 61.2619 44.1113 61.3645 44.3153 61.3645C44.3153 61.3645 44.3153 61.3645 44.3664 61.3645H44.4684C44.4684 61.3645 44.5194 61.3645 44.5704 61.3645C44.5704 61.3645 44.5704 61.3645 44.6214 61.3645C44.7745 61.3645 44.9275 61.3132 45.0806 61.2106C45.1826 61.108 45.2847 61.0054 45.3867 60.8516C45.5397 60.5951 45.5908 60.2874 45.5908 59.9796C45.5908 59.6719 45.5397 59.3641 45.4377 59.1076C45.2336 59.0051 45.1826 58.9025 45.0806 58.7999ZM44.6725 61.0567C44.5704 61.1593 44.4684 61.2106 44.3153 61.2106C44.1113 61.2106 43.9582 61.108 43.8562 61.0054C43.7031 60.8516 43.6521 60.6464 43.6011 60.5438V60.4925C43.4991 60.1335 43.4991 59.7744 43.6521 59.4154V59.3641C43.7031 59.2102 43.8052 59.0564 43.9072 58.9538C44.0092 58.8512 44.1623 58.7486 44.3153 58.7486H44.3664C44.4684 58.7486 44.6214 58.7999 44.7235 58.9025C44.8255 58.9538 44.8765 59.1076 44.9786 59.2102C45.0806 59.4154 45.1316 59.7231 45.1316 59.9796C45.1316 60.2874 45.0296 60.5438 44.9275 60.749C44.8255 60.9029 44.7745 61.0054 44.6725 61.0567ZM45.1316 60.8003C45.0806 60.9029 44.9786 61.0054 44.8765 61.108C44.9275 61.0567 44.9786 60.9542 45.0296 60.8516C45.1826 60.5951 45.2336 60.2874 45.2336 59.9796C45.2336 59.6719 45.1826 59.3641 45.0296 59.1076C44.9786 59.0564 44.9786 59.0051 44.9275 58.9538C44.9786 59.0051 45.0806 59.1076 45.1316 59.2102C45.2336 59.4154 45.2847 59.7231 45.2847 59.9796C45.3357 60.2874 45.2847 60.5951 45.1316 60.8003Z" fill="#545454"/>
<path d="M40.6932 59.0049C40.5401 58.9024 40.4381 58.8511 40.285 58.8511H40.0299H39.9789C39.7749 58.8511 39.6218 58.9537 39.4688 59.1075C39.3667 59.2101 39.2647 59.364 39.1627 59.5692C39.0096 59.9282 39.0096 60.3898 39.1116 60.8002C39.1627 61.0053 39.2647 61.2105 39.4177 61.3131C39.5708 61.467 39.7749 61.5696 39.9789 61.5696C39.9789 61.5696 39.9789 61.5696 40.0299 61.5696H40.132C40.183 61.5696 40.183 61.5696 40.234 61.5696C40.234 61.5696 40.234 61.5696 40.285 61.5696C40.4381 61.5696 40.5911 61.5183 40.6932 61.4157C40.7952 61.3131 40.8972 61.2105 40.9993 61.0566C41.1523 60.8002 41.2033 60.4924 41.2033 60.1847C41.2033 59.8769 41.1523 59.5692 41.0503 59.3127C40.8972 59.2101 40.7952 59.1075 40.6932 59.0049ZM40.336 61.3131C40.234 61.4157 40.132 61.467 39.9789 61.467C39.7749 61.467 39.6218 61.3644 39.5198 61.2618C39.4177 61.1592 39.3157 61.0053 39.2647 60.8002V60.7489C39.1627 60.3898 39.1627 59.9795 39.3157 59.6717C39.3667 59.5179 39.4688 59.364 39.5708 59.2614C39.6728 59.1588 39.7749 59.0562 39.9789 59.0562C39.9789 59.0562 39.9789 59.0562 40.0299 59.0562C40.0299 59.0562 40.0299 59.0562 40.081 59.0562C40.183 59.0562 40.285 59.1075 40.3871 59.2101C40.4891 59.3127 40.5401 59.4153 40.6421 59.5179C40.7442 59.723 40.7952 60.0308 40.7952 60.2873C40.7952 60.5437 40.6932 60.8515 40.5911 61.0566C40.4891 61.1079 40.3871 61.2105 40.336 61.3131ZM40.7952 61.0053C40.7442 61.1079 40.6421 61.2105 40.5401 61.3131C40.5911 61.2618 40.6421 61.1592 40.6932 61.0566C40.8462 60.8002 40.8972 60.4924 40.8972 60.1847C40.8972 59.8769 40.8462 59.5692 40.7442 59.3127C40.6932 59.2614 40.6932 59.2101 40.6421 59.1588C40.6932 59.2101 40.7952 59.3127 40.8462 59.4153C40.9482 59.6205 40.9993 59.9282 40.9993 60.1847C40.9993 60.5437 40.8972 60.8002 40.7952 61.0053Z" fill="#545454"/>
<path d="M55.5388 49.7725C55.5898 49.7725 55.5898 49.7725 55.6408 49.7725C55.7428 49.7212 55.7939 49.6699 55.7939 49.5673L56.5081 46.8489C56.5591 46.695 56.5081 46.5924 56.4571 46.4898C56.355 46.3359 56.304 46.3359 56.253 46.3359C56.202 46.3359 56.1 46.3872 56.0489 46.4385C55.9979 46.4898 55.9979 46.4898 55.9979 46.5411L55.2837 49.2596C55.2327 49.4135 55.2837 49.5673 55.3857 49.6699C55.3857 49.7212 55.4878 49.7725 55.5388 49.7725ZM55.4367 49.3109L56.151 46.5924C56.151 46.5411 56.151 46.5411 56.202 46.5411L56.253 46.4898C56.253 46.4898 56.304 46.4898 56.304 46.5411C56.355 46.5924 56.355 46.695 56.355 46.7463L55.6408 49.4647C55.6408 49.516 55.5898 49.5673 55.5898 49.5673C55.5388 49.5673 55.5388 49.5673 55.4878 49.5673C55.4367 49.516 55.3857 49.4135 55.4367 49.3109Z" fill="#545454"/>
<path d="M87.6287 42.0787C87.6287 42.0787 87.6797 42.0787 87.6287 42.0787C87.6797 42.0787 87.6797 42.0787 87.6797 42.0787H87.7307C87.7817 42.0787 87.7817 42.0787 87.8327 42.0787C87.8837 42.0787 87.9348 42.0787 88.0368 42.0787C88.1898 42.0787 88.2919 42.0787 88.4449 42.0274C88.4449 41.771 88.4449 41.5145 88.4449 41.2581C88.3939 41.2581 88.3429 41.2581 88.2409 41.2581C88.2409 41.4632 88.2409 41.6684 88.2409 41.8736C88.0878 41.8736 87.9348 41.8736 87.7817 41.9249V41.3093C87.7307 41.3093 87.6797 41.3093 87.5776 41.3093C87.5776 41.4632 87.5776 41.5658 87.5776 41.7197V41.9249V41.9761V42.0274C87.5776 42.0274 87.6287 42.0274 87.6287 42.0787Z" fill="#545454"/>
<path d="M92.6789 42.8481L93.036 42.7968V40.7964H92.7809L92.2197 41.1554V41.4119L92.6789 41.1554V42.8481Z" fill="#545454"/>
<path d="M85.2306 42.6428C85.1796 42.6428 85.1796 42.5916 85.1285 42.5916C85.1285 42.5916 85.1285 42.5916 85.0775 42.5916H85.0265C84.9755 42.5916 84.9245 42.5916 84.8224 42.5916C84.7204 42.5916 84.5674 42.5916 84.4653 42.5916V42.7454C84.6694 42.7454 84.8735 42.6941 85.0775 42.6941V42.7967C84.9245 42.7967 84.7714 42.7967 84.6184 42.848H84.5674H84.5163C84.4653 42.848 84.4653 42.8993 84.4653 42.9506C84.4653 43.0019 84.4653 43.0019 84.4653 43.0532V43.1045V43.1558V43.2071C84.4653 43.2583 84.4653 43.3096 84.5163 43.3096H84.5674C84.6184 43.3096 84.7204 43.3096 84.7714 43.3096C84.9245 43.3096 85.0775 43.3096 85.2306 43.2583V42.8993V42.6941V42.6428C85.2816 42.6941 85.2306 42.6428 85.2306 42.6428ZM85.1285 43.2071L84.6694 43.2583V43.1045L85.1285 43.0532V43.2071Z" fill="#545454"/>
<path d="M89.8734 41.7709C89.9245 41.8222 89.9244 41.8735 89.9755 41.8735C89.9755 41.9248 90.0265 41.9248 90.0265 41.9761C89.7714 42.3351 89.5163 42.6942 89.2612 43.0532C89.4143 43.0532 89.5673 43.0532 89.7204 43.0019C89.9755 42.6429 90.2305 42.3351 90.4856 41.9761C90.4856 42.0274 90.5366 42.0274 90.5366 42.0787C90.5877 42.13 90.5877 42.1813 90.6387 42.1813C90.6897 42.2326 90.7407 42.3351 90.8428 42.4377C90.9448 42.5916 91.0978 42.7455 91.1999 42.8994C91.3529 42.8994 91.506 42.8994 91.659 42.8481C91.4039 42.5403 91.1489 42.2326 90.8938 41.8735L91.659 40.7964C91.506 40.7964 91.3529 40.7964 91.1999 40.8477C90.9448 41.2067 90.6897 41.5145 90.4856 41.8735C90.2305 41.5658 89.9755 41.258 89.7204 40.9503C89.5673 40.9503 89.4143 40.9503 89.2612 41.0016C89.4143 41.1554 89.5163 41.3093 89.6694 41.4632L89.8734 41.7709Z" fill="#545454"/>
<path d="M84.8227 42.2838H84.8738C84.9248 42.2838 85.0268 42.2838 85.0778 42.2838C85.2309 42.2838 85.3839 42.2838 85.537 42.2325V41.8735V41.6683V41.617C85.537 41.5657 85.486 41.5657 85.486 41.5144C85.4349 41.5144 85.4349 41.4631 85.3839 41.4631C85.3839 41.4631 85.3839 41.4631 85.3329 41.4631H85.2819C85.2309 41.4631 85.1799 41.4631 85.0778 41.4631C84.9758 41.4631 84.8227 41.4631 84.7207 41.5144V41.7196C84.9248 41.7196 85.1288 41.6683 85.3329 41.6683V41.7709C85.1799 41.7709 84.8227 41.8222 84.8227 41.8222H84.7717C84.7207 41.8222 84.7207 41.8735 84.7207 41.9248C84.7207 41.9761 84.7207 41.9761 84.7207 42.0273V42.0786V42.1299V42.1812C84.7207 42.1812 84.7717 42.2325 84.8227 42.2838ZM84.9248 41.9761L85.3839 41.9248V42.0786L84.9248 42.1299V41.9761Z" fill="#545454"/>
<path d="M143.339 92.2422L138.951 89.5237V101.372L143.339 101.321V92.2422Z" fill="#545454"/>
<path d="M143.39 82.4966L138.951 82.4453V88.3952L143.339 91.1136L143.39 82.4966Z" fill="#545454"/>
<path d="M138.288 91.6779V82.3941L133.798 82.2915V94.2938L138.288 91.6779Z" fill="#545454"/>
<path d="M138.237 101.372L138.288 92.8064L133.798 95.4223V101.372H138.237Z" fill="#545454"/>
<path d="M142.982 105.988V103.424H142.522V106.553H144.206L144.053 105.988H142.982Z" fill="#545454"/>
<path d="M146.195 104.039H144.563L144.716 104.604H146.195L146.247 104.655V104.963H144.92C144.665 104.963 144.461 105.27 144.461 105.681V105.886C144.461 106.245 144.665 106.553 144.92 106.553H146.655V104.757C146.655 104.347 146.451 104.039 146.195 104.039ZM146.195 105.988H144.869L144.818 105.937V105.578C144.818 105.527 144.818 105.527 144.869 105.527H146.195V105.988Z" fill="#545454"/>
<path d="M148.593 104.039H147.522V103.424H147.063V106.553H147.522H148.593C148.849 106.553 149.053 106.245 149.053 105.886V104.757C149.002 104.347 148.798 104.039 148.593 104.039ZM148.542 105.886C148.542 105.937 148.542 105.937 148.491 105.937H147.471V104.552H148.491L148.542 104.604V105.886Z" fill="#545454"/>
<path d="M135.737 104.091H133.391V106.655H133.85V104.757C133.85 104.706 133.85 104.706 133.901 104.706H134.513L134.564 104.757V106.655H135.023V104.757C135.023 104.706 135.023 104.706 135.074 104.706H135.686C135.737 104.706 135.737 104.757 135.737 104.757V106.655H136.197V104.809C136.197 104.398 135.992 104.091 135.737 104.091Z" fill="#545454"/>
<path d="M140.584 105.988C140.584 106.04 140.584 106.04 140.533 106.04H139.411L139.36 105.988V104.091H138.9V105.937C138.9 106.347 139.104 106.655 139.36 106.604H140.482C140.737 106.604 140.941 106.296 140.941 105.886V104.039H140.533L140.584 105.988Z" fill="#545454"/>
<path d="M132.472 104.091H130.789L130.942 104.655H132.472C132.523 104.655 132.523 104.706 132.523 104.706V105.014H131.146C130.891 105.014 130.687 105.322 130.687 105.732V105.937C130.687 106.347 130.891 106.655 131.146 106.655H132.931V104.809C132.931 104.398 132.727 104.091 132.472 104.091ZM131.146 106.091C131.095 106.091 131.095 106.04 131.095 106.04V105.681C131.095 105.629 131.095 105.629 131.146 105.629H132.472V106.142L131.146 106.091Z" fill="#545454"/>
<path d="M138.135 104.091H137.064V103.475H136.604V106.655H137.064H138.135C138.39 106.655 138.594 106.347 138.594 105.937V104.809C138.594 104.398 138.39 104.091 138.135 104.091ZM138.135 105.988C138.135 106.04 138.135 106.04 138.084 106.04H137.064V104.604H138.084L138.135 104.655V105.988Z" fill="#545454"/>
<path d="M127.932 102.962V103.629L128.442 103.373V102.655L127.932 102.962Z" fill="#545454"/>
<path d="M130.074 105.014C130.176 104.86 130.227 104.655 130.227 104.398C130.227 103.988 130.023 103.629 129.819 103.475C129.717 103.424 129.564 103.373 129.462 103.373H129.411C129.309 103.373 128.85 103.373 128.442 103.373V103.937L127.982 104.193V106.655H129.717C130.074 106.655 130.329 106.245 130.329 105.732C130.329 105.424 130.227 105.168 130.074 105.014ZM128.442 103.937H129.003H129.462C129.513 103.937 129.513 103.937 129.564 103.988C129.666 104.039 129.717 104.193 129.717 104.347C129.717 104.347 129.717 104.398 129.717 104.45C129.717 104.552 129.666 104.655 129.564 104.706C129.513 104.706 129.513 104.757 129.462 104.757H128.952H128.442V103.937ZM129.513 106.142H129.105H128.442V105.27H129.156H129.309H129.564C129.615 105.27 129.666 105.322 129.717 105.373C129.768 105.424 129.819 105.578 129.819 105.732C129.819 105.937 129.666 106.142 129.513 106.142Z" fill="#545454"/>
<path d="M93.4446 101.013V100.244H93.2915V101.218H93.8527L93.8017 101.013H93.4446Z" fill="#545454"/>
<path d="M94.4645 100.449H93.9543L94.0054 100.603H94.4645V100.705H94.0564C93.9543 100.705 93.9033 100.808 93.9033 100.911V100.962C93.9033 101.064 93.9543 101.167 94.0564 101.167H94.6176V100.603C94.6176 100.5 94.5665 100.449 94.4645 100.449ZM94.4645 101.013H94.0564V100.911H94.4645V101.013Z" fill="#545454"/>
<path d="M94.8728 100.244H94.7197V101.218H94.8728H95.1789C95.2809 101.218 95.3319 101.116 95.3319 101.013V100.654C95.3319 100.551 95.2809 100.449 95.1789 100.449H94.8728V100.244ZM95.1789 100.603C95.2299 100.603 95.2299 100.603 95.1789 100.603V101.013H94.8728V100.603H95.1789Z" fill="#545454"/>
<path d="M91.1485 100.398H90.3833V101.167H90.5363V100.552H90.7404V101.167H90.8935V100.552H91.0975V101.116H91.2506V100.552C91.3016 100.5 91.2506 100.398 91.1485 100.398Z" fill="#545454"/>
<path d="M92.6791 101.013H92.322V100.449H92.1689V101.013C92.1689 101.116 92.22 101.218 92.322 101.218H92.6791C92.7811 101.218 92.8322 101.116 92.8322 101.013V100.449H92.6791V101.013Z" fill="#545454"/>
<path d="M90.1283 100.398H89.5671L89.6181 100.552H90.1283V100.654H89.6692C89.5671 100.654 89.5161 100.757 89.5161 100.859V100.911C89.5161 101.013 89.5671 101.116 89.6692 101.116H90.2303V100.552C90.2814 100.5 90.1793 100.398 90.1283 100.398ZM89.6692 101.013V100.859H90.0773V101.013H89.6692Z" fill="#545454"/>
<path d="M91.914 100.398H91.5569V100.192H91.4038V101.167H91.5569H91.914C92.016 101.167 92.067 101.064 92.067 100.962V100.603C92.067 100.5 92.016 100.398 91.914 100.398ZM91.914 101.013H91.5569V100.551H91.863L91.914 101.013Z" fill="#545454"/>
<path d="M88.6489 100.039V100.244L88.802 100.141V99.936L88.6489 100.039Z" fill="#545454"/>
<path d="M89.3629 100.654C89.4139 100.603 89.4139 100.551 89.4139 100.449C89.4139 100.295 89.3629 100.192 89.2609 100.141C89.2099 100.141 89.1589 100.09 89.1589 100.09C89.1078 100.09 88.9548 100.09 88.8528 100.09V100.244L88.6997 100.346V101.116H89.2609C89.3629 101.116 89.465 100.962 89.465 100.808C89.4139 100.808 89.3629 100.705 89.3629 100.654ZM88.8017 100.346H88.9548H89.1078C89.1078 100.346 89.1078 100.346 89.1589 100.346C89.2099 100.346 89.2099 100.398 89.2099 100.449C89.2099 100.5 89.2099 100.5 89.1589 100.551C89.1589 100.551 89.1589 100.551 89.1078 100.551H88.9548H88.8017V100.346ZM89.1589 101.013H89.0058H88.8017V100.757H89.0058H89.0568H89.1589C89.1589 100.757 89.2099 100.757 89.2099 100.808C89.2099 100.808 89.2609 100.859 89.2609 100.911C89.2609 100.962 89.2099 101.013 89.1589 101.013Z" fill="#545454"/>
<path d="M57.3756 33.5129C57.4266 33.5129 57.4266 33.5129 57.4776 33.5129C57.6817 33.5129 57.8858 33.5642 58.0388 33.6668L59.5693 34.5388C59.7734 34.6413 59.9264 34.8465 59.9774 35.0517C60.0795 35.2568 60.0795 35.462 60.0795 35.7185C60.0795 36.1288 59.9264 36.5904 59.8244 36.9495L58.9571 40.2322L68.8543 39.4628V39.155C68.6503 39.155 68.4462 39.1037 68.2932 39.1037C68.1911 39.1037 68.0891 39.0524 67.9871 39.0524C67.936 39.0524 67.885 39.0524 67.834 39.0012C67.783 39.0012 67.732 39.0012 67.732 38.9499C67.732 38.9499 67.681 38.9499 67.681 38.8986L67.6299 38.8473V38.1292C67.6299 38.1292 67.6299 38.0779 67.681 38.0266H67.732L67.783 37.9753H67.834C67.885 37.9753 67.936 37.924 67.9871 37.924C68.0891 37.924 68.1401 37.8727 68.2421 37.8727C68.3442 37.8727 68.4462 37.8214 68.5482 37.8214C68.8033 37.8214 69.0584 37.7702 69.3645 37.7702C69.8747 37.7702 70.3848 37.7189 70.997 37.7189C71.0991 37.7189 71.2011 37.7189 71.3542 37.7189C72.0684 37.7189 73.2418 37.7189 74.3131 37.8214C74.5682 37.8214 74.7213 37.8727 74.9253 37.8727C75.3845 37.924 75.4865 37.9753 75.5375 38.0266L75.5885 38.0779C75.6396 38.1292 75.6396 38.1292 75.6396 38.1805V39.0012L95.9442 37.4624C95.9952 37.4624 95.9952 37.4624 96.0462 37.5137C96.0972 37.5137 96.0972 37.4624 96.1482 37.4624L97.1686 37.4111C97.6277 37.3598 98.0869 37.3598 98.495 37.3085C98.6991 37.3085 98.9031 37.3085 99.1582 37.2572C99.4133 37.2572 99.6174 37.2572 99.8725 37.2572C100.332 37.2572 100.791 37.2572 101.199 37.2059C101.403 37.2059 101.658 37.2059 101.862 37.2059C102.015 37.2059 102.168 37.2059 102.321 37.2059H102.525C103.444 37.2059 104.311 37.2059 105.229 37.2572C105.484 37.2572 105.688 37.2572 105.943 37.3085C106.147 37.3085 106.352 37.3085 106.607 37.3598C107.066 37.3598 107.525 37.4111 107.933 37.4624L166.5 42.489C166.806 42.489 167.061 42.5403 167.367 42.5916C168.184 42.6942 168.286 42.7968 168.337 42.8481L168.388 42.8993L168.439 42.9506C168.439 43.0019 168.439 43.0019 168.439 43.0532L168.49 157.383C168.49 157.486 168.388 157.588 168.286 157.588C168.235 157.588 168.235 157.588 168.184 157.588L168.133 158.819V158.87C168.133 158.87 168.133 158.922 168.082 158.922C168.082 158.922 168.031 158.973 167.98 158.973C167.929 158.973 167.929 159.024 167.878 159.024C167.827 159.024 167.827 159.024 167.776 159.076C167.725 159.076 167.623 159.127 167.572 159.127C167.418 159.178 167.265 159.178 167.163 159.178C166.908 159.229 166.653 159.229 166.449 159.281V159.64C166.449 159.691 166.398 159.742 166.347 159.794C166.296 159.845 166.245 159.845 166.194 159.845C166.143 159.845 166.041 159.896 165.939 159.896C165.786 159.948 165.582 159.948 165.48 159.948C164.664 159.999 163.592 160.05 162.878 160.05C162.623 160.05 162.419 160.05 162.266 160.05C161.654 160.05 161.143 160.05 160.684 159.999C160.378 159.999 160.123 159.948 159.868 159.948C159.766 159.948 159.664 159.948 159.613 159.896C159.562 159.896 159.511 159.896 159.511 159.896L107.678 164.461C107.474 164.461 107.219 164.513 107.015 164.513C106.862 164.513 106.658 164.513 106.505 164.564V164.974C106.505 165.025 106.505 165.077 106.454 165.128C106.454 165.179 106.403 165.179 106.403 165.179C106.352 165.231 106.301 165.231 106.25 165.231C106.148 165.282 106.045 165.282 105.943 165.282C105.739 165.333 105.484 165.333 105.331 165.333C104.566 165.385 103.495 165.436 102.423 165.436C102.27 165.436 102.066 165.436 101.913 165.436C101.301 165.436 100.689 165.385 100.179 165.385C99.8214 165.385 99.5664 165.333 99.3113 165.333C99.2092 165.333 99.1072 165.333 99.0052 165.282C98.9031 165.282 98.8521 165.231 98.7501 165.231C98.6991 165.231 98.6481 165.179 98.597 165.179C98.546 165.179 98.546 165.128 98.495 165.128C98.444 165.077 98.444 165.025 98.444 165.025V164.615C98.0869 164.615 97.7808 164.564 97.4237 164.564L42.7338 160.255C42.7338 160.255 42.7338 160.255 42.6828 160.255C42.5808 160.255 42.4787 160.307 42.3767 160.307C42.1216 160.358 41.9176 160.358 41.7135 160.358H41.6625C41.5094 160.358 41.3564 160.358 41.2033 160.409C41.1523 160.409 41.1013 160.409 41.0503 160.409C40.8972 160.409 40.6932 160.409 40.5401 160.409C40.4891 160.409 40.4381 160.409 40.336 160.409C40.132 160.409 39.9789 160.409 39.8259 160.409C39.7238 160.409 39.6728 160.409 39.5708 160.409C39.4177 160.409 39.2647 160.409 39.1627 160.409C39.0606 160.409 39.0096 160.409 38.9076 160.409C38.8055 160.409 38.7035 160.409 38.6015 160.409C38.0403 160.409 37.5301 160.409 37.071 160.358C36.7649 160.358 36.5098 160.307 36.3057 160.307C36.2037 160.307 36.1017 160.307 36.0506 160.255C35.9996 160.255 35.8976 160.255 35.8466 160.204C35.7956 160.204 35.7445 160.153 35.6935 160.153L35.6425 160.101C35.6425 160.101 35.5915 160.05 35.5915 159.999V159.948V159.589C35.3874 159.589 35.1834 159.537 34.9793 159.537C34.8262 159.537 34.6732 159.486 34.5201 159.486C34.4181 159.486 34.3671 159.435 34.2651 159.435C34.214 159.435 34.214 159.435 34.163 159.383C34.112 159.383 34.112 159.383 34.061 159.332C34.061 159.332 34.01 159.281 33.959 159.281C33.9079 159.229 33.9079 159.178 33.9079 159.127L33.8569 157.896C33.8059 157.896 33.8059 157.896 33.7549 157.896C33.6529 157.896 33.5508 157.793 33.5508 157.691V55.1581L32.0203 54.3374C31.9183 54.2862 31.8163 54.2349 31.7652 54.1323C31.7142 54.0297 31.6632 53.9271 31.6122 53.8245C31.5102 53.6194 31.5102 53.4142 31.5102 53.1577C31.5102 52.7474 31.6632 52.2858 31.7652 51.8754L33.5508 45.2075V42.5916C33.5508 42.5403 33.5508 42.5403 33.5508 42.489C33.5508 42.489 33.6018 42.4377 33.6018 42.3864C33.7039 42.2838 33.8569 42.2325 34.3161 42.1813L35.4895 37.8214C35.5915 37.5137 35.6425 37.2059 35.7956 36.8469C35.9486 36.4879 36.1017 36.1801 36.3057 35.9749C36.4078 35.8211 36.5098 35.7185 36.6628 35.6159C36.8159 35.5133 36.9179 35.4107 37.122 35.3081C37.4281 35.1543 37.7852 35.103 38.1423 35.103L56.9165 33.5129C57.0695 33.5129 57.2226 33.5129 57.3756 33.5129ZM57.3756 33C57.1715 33 57.0185 33 56.8654 33.0513L38.0913 34.6413C37.6832 34.6926 37.3261 34.6926 36.9179 34.8978C36.7139 35.0004 36.5608 35.103 36.3567 35.2568C36.2037 35.4107 36.0506 35.5133 35.9486 35.7185C35.7445 36.0262 35.5405 36.334 35.3874 36.7443C35.2344 37.1034 35.1834 37.4624 35.0813 37.7702L34.01 41.8222C33.6529 41.8735 33.4998 41.9761 33.3468 42.13C33.2447 42.1813 33.1937 42.3351 33.1937 42.3351C33.0917 42.3864 33.0407 42.5403 33.0407 42.6429V45.1562L31.2551 51.7729C31.153 52.1832 31 52.6961 31 53.1577C31 53.4655 31 53.7732 31.102 54.0297C31.153 54.1836 31.2551 54.3374 31.3571 54.4913C31.4591 54.6452 31.6122 54.7478 31.8163 54.8504L33.0407 55.4659L32.9896 157.742C32.9896 157.998 33.1427 158.204 33.3468 158.358L33.3978 159.229V159.281V159.332C33.3978 159.486 33.4998 159.589 33.6018 159.691C33.6529 159.742 33.7549 159.845 33.8059 159.845C33.8569 159.896 33.9079 159.896 33.959 159.896C34.01 159.896 34.061 159.948 34.112 159.948C34.214 159.999 34.3161 159.999 34.4181 159.999C34.5712 160.05 34.7242 160.05 34.9283 160.101C34.9793 160.101 35.0303 160.101 35.0813 160.101C35.0813 160.153 35.0813 160.204 35.1323 160.255C35.1323 160.307 35.1834 160.409 35.2854 160.512C35.3364 160.563 35.3874 160.614 35.4895 160.666C35.5915 160.717 35.6935 160.717 35.7445 160.768C35.8466 160.768 35.8976 160.82 35.9996 160.82C36.1017 160.82 36.2037 160.871 36.3057 160.871C36.5608 160.871 36.8159 160.922 37.122 160.922C37.5811 160.922 38.0913 160.973 38.7035 160.973H39.0096H39.1627C39.2647 160.973 39.4177 160.973 39.5708 160.973H39.8259C39.9789 160.973 40.183 160.973 40.336 160.973H40.4891H40.5401C40.6932 160.973 40.8972 160.973 41.0503 160.973H41.1523H41.2033C41.3564 160.973 41.5094 160.973 41.6625 160.922H41.7135H41.7645C41.9686 160.922 42.1726 160.871 42.4277 160.871C42.5298 160.871 42.6318 160.82 42.7338 160.82L97.3726 165.077C97.5767 165.077 97.7298 165.128 97.9338 165.128V165.179L97.9848 165.231C98.0359 165.333 98.0869 165.436 98.1379 165.487C98.1889 165.538 98.2909 165.59 98.342 165.641C98.444 165.692 98.546 165.744 98.597 165.744C98.6991 165.744 98.8011 165.795 98.9031 165.795C99.0052 165.795 99.1072 165.846 99.2603 165.846C99.5153 165.897 99.7704 165.897 100.128 165.897C100.638 165.949 101.25 165.949 101.862 165.949C102.066 165.949 102.219 165.949 102.423 165.949C103.546 165.949 104.617 165.897 105.382 165.846C105.586 165.846 105.79 165.795 106.045 165.795C106.199 165.795 106.301 165.744 106.403 165.744C106.505 165.744 106.607 165.692 106.658 165.641C106.76 165.59 106.811 165.538 106.862 165.487C106.964 165.384 107.015 165.231 107.015 165.077H107.066C107.27 165.077 107.525 165.025 107.729 165.025L159.511 160.46H159.562C159.664 160.46 159.766 160.46 159.868 160.512C160.123 160.512 160.378 160.563 160.684 160.563C161.194 160.614 161.705 160.614 162.317 160.614C162.419 160.614 162.674 160.614 162.929 160.614C163.643 160.614 164.715 160.614 165.582 160.512C165.684 160.512 165.888 160.46 166.092 160.46C166.194 160.46 166.296 160.409 166.398 160.409C166.449 160.409 166.551 160.358 166.653 160.307C166.806 160.204 166.959 159.999 166.959 159.794C167.061 159.794 167.163 159.794 167.265 159.742C167.418 159.742 167.572 159.691 167.725 159.64C167.827 159.64 167.929 159.589 167.98 159.589C168.031 159.589 168.082 159.537 168.133 159.537C168.184 159.537 168.235 159.486 168.286 159.435C168.337 159.383 168.439 159.332 168.49 159.281C168.541 159.229 168.541 159.178 168.592 159.127V159.076V159.024C168.592 158.973 168.643 158.922 168.643 158.819L168.694 157.947C168.898 157.793 169 157.588 169 157.332L168.949 43.0019C168.949 42.8993 168.949 42.7968 168.898 42.6942C168.847 42.5916 168.796 42.5403 168.745 42.489L168.694 42.4377C168.541 42.2838 168.235 42.13 167.469 42.0274C167.163 41.9761 166.857 41.9761 166.602 41.9248L107.984 36.8982C107.525 36.8469 107.066 36.8469 106.607 36.7956C106.403 36.7956 106.199 36.7956 105.943 36.7443C105.688 36.7443 105.484 36.7443 105.229 36.693C104.311 36.6417 103.444 36.6417 102.525 36.6417H102.423H102.321C102.168 36.6417 102.015 36.6417 101.862 36.6417C101.658 36.6417 101.403 36.6417 101.199 36.6417C100.74 36.6417 100.281 36.6417 99.8214 36.693C99.5664 36.693 99.3623 36.693 99.1072 36.693C98.9031 36.693 98.6991 36.693 98.444 36.7443C97.9848 36.7443 97.5257 36.7956 97.0665 36.8469L96.0972 36.8982C96.0462 36.8982 96.0462 36.8982 95.9952 36.8982H95.9442H95.8932L76.1497 38.3857V38.1292C76.1497 38.0266 76.1497 37.924 76.0987 37.8727V37.8214L75.9967 37.7189L75.8946 37.6163C75.7416 37.5137 75.4865 37.4111 75.0274 37.3598C74.8233 37.3598 74.6702 37.3085 74.4152 37.3085C73.3438 37.2059 72.0684 37.2059 71.4052 37.2059C71.2521 37.2059 71.1501 37.2059 71.0481 37.2059C70.4359 37.2059 69.8747 37.2059 69.3645 37.2572C69.0074 37.2572 68.7523 37.3085 68.4972 37.3085C68.3952 37.3085 68.2932 37.3085 68.1401 37.3598C68.0381 37.3598 67.936 37.4111 67.885 37.4111C67.834 37.4111 67.732 37.4624 67.6299 37.4624C67.5789 37.4624 67.5279 37.5137 67.5279 37.5137H67.4769L67.3749 37.6163L67.3238 37.6676L67.2728 37.7189V37.7702C67.2218 37.8727 67.1708 37.9753 67.1708 38.1292V38.8986C67.1708 39.0012 67.1708 39.0524 67.2218 39.155L59.7224 39.7192L60.3346 37.1034L60.3856 36.9495C60.4876 36.5904 60.5896 36.1801 60.5896 35.7698C60.5896 35.462 60.5896 35.1543 60.4876 34.9491C60.3856 34.5901 60.1305 34.2823 59.8244 34.1284L58.2939 33.2565C58.0898 33.1026 57.8347 33 57.5287 33C57.4776 33 57.4266 33 57.3756 33Z" fill="#545454"/>
<g opacity="0.2">
<g opacity="0.2">
<path opacity="0.2" d="M33.6528 52.9527L34.418 52.9014L50.9984 51.8755L52.1718 51.8242C52.3759 51.8242 52.5289 51.6704 52.5799 51.5165L53.0391 49.7213L56.3552 37.0009L56.7633 35.5647C56.8143 35.4108 56.7633 35.2569 56.6613 35.1544C56.5592 35.0518 56.4062 35.0005 56.3041 35.0005L55.4879 35.1031L38.9075 36.488L37.7851 36.5905C37.581 36.5905 37.428 36.7444 37.377 36.8983L36.9178 38.6422L33.6017 51.0036L33.2446 52.3885C33.1936 52.5423 33.2446 52.6962 33.3467 52.7988C33.3977 52.9014 33.5507 52.9527 33.6528 52.9527ZM47.3252 43.0533C47.3762 43.1046 47.3762 43.1559 47.3252 43.1559L45.0295 45.3102H44.9785C44.9785 45.3102 44.9274 45.3102 44.9274 45.2589C44.8764 45.2076 44.8764 45.1563 44.9274 45.1563L47.2232 43.002C47.2232 43.002 47.2742 43.002 47.3252 43.0533ZM41.6114 45.464L46.3559 40.7452C46.4069 40.6939 46.4579 40.6939 46.4579 40.7452C46.5089 40.7965 46.5089 40.8478 46.4579 40.8478L41.7134 45.5666H41.6624H41.6114C41.5603 45.5153 41.5603 45.464 41.6114 45.464Z" fill="#D8D8D8"/>
</g>
</g>
<g opacity="0.2">
<g opacity="0.2">
<path opacity="0.2" d="M87.2712 41.5144L86.812 41.5657V41.976L87.2712 41.9247V41.5144Z" fill="#D8D8D8"/>
</g>
</g>
<g opacity="0.2">
<g opacity="0.2">
<path opacity="0.2" d="M84.6187 43.2071H85.1288V43.0532L84.6187 43.1045V43.2071Z" fill="#D8D8D8"/>
</g>
</g>
<g opacity="0.2">
<g opacity="0.2">
<path opacity="0.2" d="M68.1401 38.6422C68.2421 38.6422 68.3951 38.5909 68.4972 38.5909C68.7523 38.5909 69.0073 38.5396 69.3134 38.5396C69.8236 38.4884 70.3848 38.4884 70.997 38.4884C72.2214 38.4884 73.4458 38.5396 74.3641 38.5909C74.3641 38.5909 74.3641 38.5909 74.4151 38.5909V39.0013L75.4354 38.8987V38.078L75.3844 38.0267C75.3844 38.0267 75.2824 37.9754 74.8743 37.9241C74.7212 37.9241 74.5171 37.8728 74.2621 37.8728C73.0377 37.7703 71.5582 37.7703 70.997 37.7703C70.3848 37.7703 69.8746 37.7703 69.3645 37.8216C69.0584 37.8216 68.8033 37.8728 68.5482 37.8728C68.4462 37.8728 68.3441 37.8728 68.2421 37.9241C68.1401 37.9241 68.0891 37.9241 67.987 37.9754C67.936 37.9754 67.885 37.9754 67.834 38.0267H67.7829L67.7319 38.078V38.6422C67.783 38.6422 67.7829 38.6422 67.834 38.6422C67.987 38.6935 68.0891 38.6935 68.1401 38.6422Z" fill="#D8D8D8"/>
</g>
</g>
<g opacity="0.2">
<g opacity="0.2">
<path opacity="0.2" d="M69.0073 39.514L74.3131 39.1036V38.7959L69.0073 39.2062V39.514Z" fill="#D8D8D8"/>
</g>
</g>
<g opacity="0.2">
<g opacity="0.2">
<path opacity="0.2" d="M73.089 38.6934C72.4257 38.6934 71.7625 38.6421 71.0483 38.6421C70.4361 38.6421 69.8749 38.6421 69.3647 38.6934C69.0586 38.6934 68.7525 38.7447 68.5485 38.7447C68.4464 38.7447 68.2934 38.7447 68.1914 38.796C68.0893 38.796 68.0383 38.796 67.9363 38.8473H67.8853C67.9363 38.8473 67.9873 38.8473 68.0383 38.8985C68.1403 38.8985 68.2424 38.9498 68.3444 38.9498C68.4975 38.9498 68.7015 39.0011 68.9566 39.0011L73.089 38.6934Z" fill="#D8D8D8"/>
</g>
</g>
<g opacity="0.2">
<g opacity="0.2">
<path opacity="0.2" d="M85.5366 43.1557L85.9958 43.1044V42.7454H85.5366V43.1557Z" fill="#D8D8D8"/>
</g>
</g>
<g opacity="0.2">
<g opacity="0.2">
<path opacity="0.2" d="M84.4142 41.6683C84.4142 41.617 84.4142 41.617 84.4142 41.617V41.5657H84.3632H84.3122C84.2611 41.5657 84.2611 41.5657 84.2101 41.5657C84.0571 41.5657 83.904 41.5657 83.751 41.617V41.8221C83.955 41.8221 84.2101 41.7708 84.4142 41.7708V41.6683Z" fill="#D8D8D8"/>
</g>
</g>
<g opacity="0.2">
<g opacity="0.2">
<path opacity="0.2" d="M56.9165 48.2338L59.4163 48.0799C59.5694 48.0799 59.7734 48.0286 59.9265 47.9261C59.8245 47.9773 59.6714 48.0286 59.5694 48.0286C59.5184 48.0286 59.4163 48.0286 59.3653 48.0286C59.1612 48.0286 58.9572 47.9773 58.7531 47.8748C58.498 47.7722 58.294 47.6183 58.0899 47.3618C57.7838 47.0541 57.5797 46.6438 57.4267 46.1821L56.9165 48.2338Z" fill="#D8D8D8"/>
</g>
</g>
<g opacity="0.2">
<g opacity="0.2">
<path opacity="0.2" d="M34.0098 42.7454V43.6686L34.2648 42.6941C34.1118 42.6941 34.0608 42.7454 34.0098 42.7454Z" fill="#D8D8D8"/>
</g>
</g>
<g opacity="0.2">
<g opacity="0.2">
<path opacity="0.2" d="M59.5694 42.6941C59.4673 42.6428 59.3143 42.6428 59.2122 42.5916C59.1612 42.5916 59.0592 42.5916 59.0082 42.5916L58.345 42.6428L58.2939 42.8993C58.6 42.6941 58.9061 42.5916 59.2633 42.6428C59.3653 42.6428 59.4673 42.6428 59.5694 42.6941Z" fill="#D8D8D8"/>
</g>
</g>
<g opacity="0.2">
<g opacity="0.2">
<path opacity="0.2" d="M57.4775 45.9255C57.5796 46.4384 57.8347 46.9513 58.1408 47.3104C58.3448 47.5156 58.5489 47.6694 58.753 47.772C59.008 47.8746 59.2631 47.9259 59.4672 47.8746C59.7223 47.8233 59.9263 47.7207 60.1304 47.5668C60.3345 47.413 60.4875 47.2078 60.6406 47.0026C60.8956 46.5923 60.9977 46.0281 60.9977 45.5152C60.9977 45.1048 60.9467 44.6945 60.7936 44.3355C60.6406 43.9251 60.4365 43.6174 60.1814 43.3096C59.9774 43.1044 59.6202 42.848 59.1611 42.7967C58.804 42.7454 58.4469 42.8993 58.1408 43.1557L57.4775 45.9255Z" fill="#D8D8D8"/>
</g>
</g>
<g opacity="0.2">
<g opacity="0.2">
<path opacity="0.2" d="M84.4652 41.9248C84.3632 41.9248 84.3122 41.9248 84.2101 41.9248C84.0571 41.9248 83.904 41.9248 83.751 41.9761V42.1813C84.0061 42.1813 84.2101 42.13 84.4652 42.13V42.0274V41.9248C84.4652 41.9761 84.4652 41.9761 84.4652 41.9248Z" fill="#D8D8D8"/>
</g>
</g>
<g opacity="0.2">
<g opacity="0.2">
<path opacity="0.2" d="M58.396 42.4891L59.0082 42.4378C59.1102 42.4378 59.1612 42.4378 59.2633 42.4378C59.5694 42.4378 59.8755 42.5916 60.1816 42.7968C60.4366 42.9507 60.6407 43.2071 60.8448 43.5149C61.1509 44.0278 61.3549 44.6946 61.406 45.3101C61.457 45.9769 61.3039 46.6437 60.9978 47.1566C60.8448 47.4644 60.6407 47.7208 60.3856 47.8747C60.1305 48.0799 59.7734 48.1825 59.4673 48.2338L56.9165 48.3876L56.1512 51.3626C56.0492 51.6703 55.9982 52.0294 55.8451 52.3884C55.6921 52.7474 55.539 53.0552 55.335 53.3117C55.2329 53.4655 55.0799 53.5681 54.9779 53.722C54.8248 53.8246 54.6718 53.9272 54.5187 54.0297C54.3657 54.081 54.2126 54.1323 54.0085 54.1836C53.8045 54.2349 53.6514 54.2349 53.4984 54.2349L36.918 55.2095V58.287L95.8932 55.0556V37.9241L58.8551 40.6938L58.396 42.4891ZM85.2817 42.7968V43.002V43.361C85.1287 43.361 84.9756 43.361 84.8226 43.4123C84.7716 43.4123 84.6695 43.4123 84.6185 43.4123H84.5675C84.5165 43.4123 84.5165 43.3097 84.5165 43.3097V43.2584V43.2071V43.1558C84.5165 43.1046 84.5165 43.1046 84.5165 43.0533C84.5165 43.002 84.5675 43.002 84.5675 42.9507H84.6185H84.6695C84.8226 42.9507 84.9756 42.9507 85.1287 42.8994V42.7968C84.9246 42.7968 84.7206 42.8481 84.5165 42.8481V42.6942C84.6185 42.6942 84.7716 42.6942 84.8736 42.6942C84.9246 42.6942 84.9756 42.6942 85.0777 42.6942H85.1287C85.1287 42.6942 85.1287 42.6942 85.1797 42.6942C85.2307 42.6942 85.2307 42.6942 85.2817 42.7455C85.3328 42.7455 85.3328 42.7968 85.3328 42.8481C85.2817 42.7455 85.2817 42.7455 85.2817 42.7968ZM86.2 43.002V43.0533C86.2 43.1046 86.2 43.2071 86.149 43.2584L86.098 43.3097C86.098 43.3097 86.098 43.3097 86.047 43.3097H85.996C85.945 43.3097 85.9449 43.3097 85.8939 43.3097C85.7409 43.3097 85.5368 43.3097 85.3838 43.361V42.4378C85.4348 42.4378 85.4858 42.4378 85.5368 42.4378V42.5916H85.7919C85.8429 42.5916 85.8939 42.5916 85.8939 42.5916H85.9449C85.9449 42.5916 85.945 42.5916 85.996 42.5916H86.047C86.098 42.5916 86.098 42.6429 86.149 42.6429C86.149 42.6942 86.2 42.7455 86.2 42.7968V43.002ZM92.22 41.1555L92.7812 40.7964H92.9852V42.7968H92.6281V41.1042L92.169 41.3606V41.1555H92.22ZM89.7202 41.0016C89.9753 41.3093 90.2303 41.6171 90.4854 41.9248C90.7405 41.5658 90.9956 41.258 91.1997 40.899C91.3527 40.899 91.5058 40.899 91.6588 40.8477L90.8936 41.9248C91.1486 42.2326 91.4037 42.5403 91.6588 42.8994C91.5058 42.8994 91.3527 42.8994 91.1997 42.9507C91.0976 42.7968 90.9446 42.6429 90.8425 42.4891C90.7915 42.3865 90.7405 42.3352 90.6385 42.2326C90.5875 42.1813 90.5875 42.1813 90.5364 42.13C90.5364 42.0787 90.4854 42.0787 90.4854 42.0274C90.2303 42.3865 89.9753 42.6942 89.7202 43.0533C89.5671 43.0533 89.4141 43.0533 89.261 43.1046C89.5161 42.7455 89.7712 42.3865 90.0263 42.0274C90.0263 41.9761 89.9753 41.9761 89.9753 41.9248C89.9242 41.8736 89.9242 41.8223 89.8732 41.8223L89.6692 41.5658C89.5161 41.4119 89.4141 41.258 89.261 41.1042C89.4141 41.0529 89.5671 41.0529 89.7202 41.0016ZM87.5775 41.9248V41.7197C87.5775 41.5658 87.5775 41.4632 87.5775 41.3093C87.6285 41.3093 87.6795 41.3093 87.7815 41.3093V41.9248C87.9346 41.9248 88.0876 41.9248 88.2407 41.8736C88.2407 41.6684 88.2407 41.4632 88.2407 41.258C88.2917 41.258 88.3427 41.258 88.4448 41.258C88.4448 41.5145 88.4448 41.771 88.4448 42.0274C88.3427 42.0274 88.1897 42.0274 88.0366 42.0787C87.9856 42.0787 87.8836 42.0787 87.8326 42.0787C87.7815 42.0787 87.7815 42.0787 87.7305 42.0787H87.6795H87.6285C87.5775 42.0787 87.5775 42.0274 87.5775 41.9761C87.5775 41.9761 87.5775 41.9248 87.5775 41.9248ZM86.6592 41.258C86.7102 41.258 86.7612 41.258 86.8122 41.258V41.4119C86.9143 41.4119 86.9653 41.4119 87.0673 41.4119C87.1183 41.4119 87.1693 41.4119 87.1693 41.4119H87.2204C87.2204 41.4119 87.2204 41.4119 87.2714 41.4119H87.3224C87.3734 41.4119 87.3734 41.4632 87.4244 41.4632C87.4244 41.5145 87.4754 41.5658 87.4754 41.6171C87.4754 41.7197 87.4754 41.771 87.4754 41.8736V41.9248C87.4754 41.9761 87.4754 42.0787 87.4244 42.13L87.3734 42.1813H87.3224H87.2714C87.2204 42.1813 87.2204 42.1813 87.1693 42.1813C87.0163 42.1813 86.8122 42.1813 86.6592 42.2326V41.258ZM85.6388 41.4632C85.8939 41.4632 86.149 41.4119 86.4551 41.4119C86.5061 41.4119 86.5061 41.4119 86.5572 41.4632C86.5572 41.5145 86.6082 41.5145 86.6082 41.5658V41.6171V41.6684V41.771C86.6082 41.9248 86.6082 42.0274 86.6082 42.1813C86.5571 42.1813 86.5061 42.1813 86.4041 42.1813C86.4041 41.9761 86.4041 41.771 86.4041 41.6171C86.3531 41.6171 86.3021 41.6171 86.2 41.6171C86.2 41.8223 86.2 42.0274 86.2 42.1813H85.996V41.6171C85.945 41.6171 85.8939 41.6171 85.7919 41.6171C85.7919 41.8223 85.7919 42.0274 85.7919 42.1813C85.7409 42.1813 85.6899 42.1813 85.5878 42.1813V41.4632H85.6388ZM84.7206 42.0274C84.7206 41.9761 84.7206 41.9248 84.7206 41.8736C84.7206 41.8223 84.7716 41.8223 84.7716 41.771H84.8226C84.8226 41.771 85.1797 41.7197 85.3328 41.7197V41.6171C85.1287 41.6171 84.9246 41.6684 84.7206 41.6684V41.5145C84.8226 41.5145 84.9756 41.5145 85.0777 41.4632C85.1287 41.4632 85.1797 41.4632 85.2817 41.4632H85.3328C85.3328 41.4632 85.3327 41.4632 85.3838 41.4632C85.4348 41.4632 85.4348 41.4632 85.4858 41.5145C85.5368 41.5145 85.5368 41.5658 85.5368 41.6171V41.6684V41.8736V42.2326C85.3838 42.2326 85.2307 42.2326 85.0777 42.2839C85.0267 42.2839 84.9246 42.2839 84.8736 42.2839H84.8226C84.7716 42.2839 84.7716 42.1813 84.7716 42.1813C84.7206 42.13 84.7206 42.13 84.7206 42.0274ZM83.5982 41.4632C83.8023 41.4632 84.4655 41.4119 84.5165 41.4119C84.5165 41.4119 84.5165 41.4119 84.5675 41.4119C84.6185 41.4119 84.6185 41.4119 84.6185 41.4632C84.6185 41.5145 84.6695 41.5145 84.6695 41.5658V41.6171V41.771C84.7205 41.8223 84.7206 41.8736 84.7206 41.8736V42.0274V42.2839C84.3634 42.3352 84.0063 42.3352 83.6492 42.3865C83.5982 42.0787 83.5982 41.771 83.5982 41.4632ZM83.5982 43.2584V43.1558C83.5982 43.1046 83.5982 43.002 83.5982 42.9507V42.5403H83.8023V43.2584C83.8023 43.2584 83.8023 43.2584 83.8023 43.3097H83.9043C83.9553 43.3097 84.0063 43.3097 84.0573 43.3097C84.1594 43.3097 84.2614 43.3097 84.4144 43.3097V43.4636C84.2614 43.4636 84.1594 43.4636 84.0063 43.5149C83.9553 43.5149 83.8533 43.5149 83.8023 43.5149H83.7512H83.7002C83.6492 43.5149 83.6492 43.4636 83.6492 43.4636C83.5982 43.361 83.5982 43.3097 83.5982 43.2584Z" fill="#D8D8D8"/>
</g>
</g>
<g opacity="0.2">
<g opacity="0.2">
<path opacity="0.2" d="M36.7649 158.05C36.7649 158.101 36.7649 158.152 36.7139 158.152L95.8932 162.666C95.8932 162.615 95.8932 162.615 95.8932 162.563V155.177L36.7649 151.228V158.05Z" fill="#D8D8D8"/>
</g>
</g>
<g opacity="0.2">
<g opacity="0.2">
<path opacity="0.2" d="M44.9785 58.9536C45.0295 59.0049 45.0295 59.0562 45.0805 59.1075C45.1826 59.364 45.2846 59.6717 45.2336 59.9795C45.2336 60.2872 45.1315 60.595 45.0295 60.8514C44.9785 60.954 44.9275 61.0053 44.8765 61.1079C44.9785 61.0566 45.0805 60.954 45.1315 60.8001C45.2336 60.595 45.3356 60.2872 45.3356 60.0307C45.3356 59.723 45.2846 59.4665 45.1826 59.2614C45.1315 59.1075 45.0805 59.0562 44.9785 58.9536Z" fill="#D8D8D8"/>
</g>
</g>
<g opacity="0.2">
<g opacity="0.2">
<path opacity="0.2" d="M45.1315 59.9795C45.1315 59.6718 45.0805 59.4153 44.9785 59.2102C44.9275 59.1076 44.8254 58.9537 44.7234 58.9024C44.6214 58.7998 44.5193 58.7485 44.3663 58.7485H44.3153C44.1112 58.7485 44.0092 58.8511 43.9071 58.9537C43.8051 59.0563 43.7031 59.2102 43.652 59.364V59.4153C43.55 59.7231 43.499 60.1334 43.601 60.4925V60.5438C43.652 60.6976 43.7031 60.8515 43.8561 61.0054C43.9581 61.108 44.1112 61.2105 44.3153 61.2105C44.4173 61.2105 44.5703 61.1593 44.6724 61.0567C44.7744 61.0054 44.8764 60.9028 44.9275 60.7489C45.0295 60.5438 45.0805 60.2873 45.1315 59.9795Z" fill="#D8D8D8"/>
</g>
</g>
<g opacity="0.2">
<g opacity="0.2">
<path opacity="0.2" d="M40.6421 59.2102C40.6931 59.2615 40.6931 59.3128 40.7441 59.3641C40.8461 59.6205 40.9482 59.9283 40.8972 60.236C40.8972 60.5438 40.7951 60.8515 40.6931 61.108C40.6421 61.2106 40.5911 61.2619 40.54 61.3645C40.6421 61.3132 40.6931 61.2106 40.7951 61.0567C40.8972 60.8515 40.9992 60.5438 40.9992 60.2873C40.9992 59.9796 40.9482 59.7231 40.8461 59.518C40.7951 59.3641 40.7441 59.2615 40.6421 59.2102Z" fill="#D8D8D8"/>
</g>
</g>
<g opacity="0.2">
<g opacity="0.2">
<path opacity="0.2" d="M44.7743 148.868C44.7233 148.817 44.6723 148.766 44.5702 148.817C44.4172 148.817 44.3152 148.971 44.2641 149.074C44.2131 149.176 44.1621 149.381 44.1621 149.535C44.1621 149.74 44.2131 149.894 44.2641 150.048C44.3152 150.151 44.3662 150.202 44.4172 150.253C44.4682 150.305 44.5192 150.305 44.6213 150.305C44.7743 150.305 44.8763 150.151 44.9274 150.048C44.9784 149.946 45.0294 149.74 45.0294 149.587C45.0294 149.381 44.9784 149.227 44.9274 149.074C44.8763 148.971 44.8253 148.92 44.7743 148.868Z" fill="#D8D8D8"/>
</g>
</g>
<g opacity="0.2">
<g opacity="0.2">
<path opacity="0.2" d="M40.7442 60.2361C40.7442 59.9797 40.6932 59.6719 40.5911 59.4668C40.5401 59.3642 40.4381 59.2616 40.3361 59.159C40.234 59.0564 40.132 59.0051 40.03 59.0051C40.03 59.0051 40.03 59.0051 39.9789 59.0051C39.9789 59.0051 39.9789 59.0051 39.9279 59.0051C39.7749 59.0051 39.6218 59.1077 39.5198 59.2103C39.4178 59.3129 39.3157 59.4668 39.2647 59.6206C39.1117 59.9797 39.1117 60.3387 39.2137 60.6978V60.749C39.2647 60.9542 39.3667 61.1081 39.4688 61.2107C39.5708 61.3133 39.7239 61.4158 39.9279 61.4158C40.03 61.4158 40.132 61.3646 40.285 61.262C40.3871 61.2107 40.4381 61.1081 40.5401 60.9542C40.6932 60.8003 40.7442 60.4926 40.7442 60.2361Z" fill="#D8D8D8"/>
</g>
</g>
<g opacity="0.2">
<g opacity="0.2">
<path opacity="0.2" d="M95.74 98.8076C95.74 98.8076 95.791 98.8076 95.791 98.8589C95.9951 98.9615 96.1481 99.1667 96.2501 99.3718C96.4542 99.7309 96.6073 100.192 96.6073 100.705C96.6073 101.167 96.5052 101.629 96.2501 102.039C96.0971 102.244 95.944 102.449 95.791 102.552C95.74 102.552 95.74 102.603 95.689 102.603C95.74 102.603 95.791 102.603 95.893 102.552C95.893 102.449 95.9951 102.347 96.0971 102.347C96.1481 102.347 96.1991 102.347 96.1991 102.398C96.1991 102.398 96.1991 102.398 96.2501 102.398C96.4032 102.295 96.5562 102.142 96.6583 101.936C96.8623 101.577 96.9644 101.167 96.9644 100.705C96.9644 100.244 96.8623 99.8335 96.6583 99.4744C96.5562 99.2692 96.4032 99.1154 96.2501 99.0128C96.2501 99.0128 96.2501 99.0128 96.1991 99.0128C96.1481 99.0128 96.1481 99.0641 96.0971 99.0641C95.9951 99.0641 95.893 99.0128 95.893 98.9102C95.842 98.8076 95.791 98.8076 95.74 98.8076Z" fill="#D8D8D8"/>
</g>
</g>
<g opacity="0.2">
<g opacity="0.2">
<path opacity="0.2" d="M40.4379 148.561C40.3869 148.51 40.3359 148.51 40.2338 148.51C40.0808 148.51 39.9787 148.663 39.9277 148.766C39.8767 148.869 39.8257 149.022 39.8257 149.228C39.8257 149.433 39.8767 149.587 39.9277 149.741C39.9787 149.843 40.0298 149.894 40.0808 149.946C40.1318 149.997 40.1828 150.048 40.2848 149.997C40.4379 149.997 40.5399 149.843 40.5909 149.741C40.642 149.638 40.693 149.484 40.693 149.279C40.693 149.074 40.642 148.92 40.5909 148.766C40.5399 148.715 40.4889 148.612 40.4379 148.561Z" fill="#D8D8D8"/>
</g>
</g>
<g opacity="0.2">
<g opacity="0.2">
<path opacity="0.2" d="M94.0566 100.91V101.013H94.4648V100.859L94.0566 100.91C94.0566 100.859 94.0566 100.859 94.0566 100.91Z" fill="#D8D8D8"/>
</g>
</g>
<g opacity="0.2">
<g opacity="0.2">
<path opacity="0.2" d="M91.5566 100.603V101.064H91.8627V100.654L91.5566 100.603Z" fill="#D8D8D8"/>
</g>
</g>
<g opacity="0.2">
<g opacity="0.2">
<path opacity="0.2" d="M94.9748 98.8076H89.0059C88.8018 98.8076 88.5978 98.8589 88.4447 99.0128C88.2917 99.1154 88.1386 99.2692 88.0366 99.4744C87.8325 99.8335 87.7305 100.244 87.7305 100.705C87.7305 101.167 87.8325 101.577 88.0366 101.936C88.1386 102.142 88.2917 102.295 88.4447 102.398C88.5978 102.501 88.8018 102.603 89.0059 102.603H94.9238H95.0769C95.2809 102.603 95.485 102.552 95.638 102.398C95.7911 102.295 95.9441 102.142 96.0462 101.936C96.2502 101.577 96.3523 101.167 96.3523 100.705C96.3523 100.244 96.2502 99.8335 96.0462 99.4744C95.9441 99.2692 95.7911 99.1154 95.638 99.0128C95.434 98.9102 95.2809 98.8076 95.0769 98.8076H94.9748ZM89.21 101.167H88.6488V100.398L88.8018 100.295V100.141L88.6488 100.244V100.039L88.8018 99.936V100.141C88.9039 100.141 89.0569 100.141 89.1079 100.141C89.1589 100.141 89.21 100.141 89.21 100.192C89.312 100.244 89.363 100.346 89.363 100.5C89.363 100.552 89.363 100.654 89.312 100.705C89.363 100.757 89.363 100.859 89.363 100.911C89.414 101.064 89.312 101.167 89.21 101.167ZM89.6691 101.167C89.5671 101.167 89.5161 101.064 89.5161 100.962V100.911C89.5161 100.808 89.5671 100.705 89.6691 100.705H90.1283V100.603H89.6181L89.5671 100.449H90.1283C90.2303 100.449 90.2813 100.552 90.2813 100.654V101.218L89.6691 101.167ZM91.3016 101.167H91.1486V100.603H90.9445V101.218H90.7915V100.603H90.5874V101.218H90.4344V100.449H91.1996C91.3016 100.449 91.3527 100.552 91.3527 100.654V101.167H91.3016ZM92.0669 100.962C92.0669 101.064 92.0159 101.167 91.9138 101.167H91.5567H91.4037V100.192H91.5567V100.398H91.9138C92.0159 100.398 92.0669 100.5 92.0669 100.603V100.962ZM92.8321 100.962C92.8321 101.064 92.7811 101.167 92.6791 101.167H92.322C92.2199 101.167 92.1689 101.064 92.1689 100.962V100.398H92.322V100.962H92.6791V100.398H92.8321V100.962ZM93.2913 101.218V100.244H93.4443V101.013H93.8014L93.8525 101.218H93.2913ZM94.6177 101.218H94.0565C93.9545 101.218 93.9035 101.116 93.9035 101.013V100.962C93.9035 100.859 93.9545 100.757 94.0565 100.757H94.4647V100.654H94.0055L93.9545 100.5H94.4647C94.5667 100.5 94.6177 100.603 94.6177 100.705V101.218ZM95.3319 100.654V101.013C95.3319 101.116 95.2809 101.218 95.1789 101.218H94.8728H94.7198V100.244H94.8728V100.449H95.1789C95.2809 100.449 95.3319 100.552 95.3319 100.654Z" fill="#D8D8D8"/>
</g>
</g>
<g opacity="0.2">
<g opacity="0.2">
<path opacity="0.2" d="M94.873 101.013H95.1792V100.603H94.873V101.013Z" fill="#D8D8D8"/>
</g>
</g>
<g opacity="0.2">
<g opacity="0.2">
<path opacity="0.2" d="M89.6689 100.859V101.013H90.0771V100.859H89.6689Z" fill="#D8D8D8"/>
</g>
</g>
<g opacity="0.2">
<g opacity="0.2">
<path opacity="0.2" d="M89.1591 100.603C89.1591 100.603 89.1591 100.552 89.1591 100.603C89.2101 100.603 89.2612 100.552 89.2612 100.5V100.449C89.2612 100.398 89.2612 100.346 89.2101 100.346C89.2101 100.346 89.2101 100.346 89.1591 100.346H89.0061H88.853V100.603H89.0061H89.1591Z" fill="#D8D8D8"/>
</g>
</g>
<g opacity="0.3">
<g opacity="0.3">
<path opacity="0.3" d="M95.8929 55.4658L36.8157 58.6972L36.7646 150.869L95.8929 154.818V154.664H95.8419C95.8419 154.664 95.8419 154.664 95.7909 154.664C95.7399 154.664 95.6889 154.613 95.6889 154.562C95.6889 154.511 95.7399 154.511 95.7909 154.459H95.8419V102.654C95.7909 102.654 95.6889 102.706 95.6378 102.706H94.9236H88.9547C88.7506 102.706 88.4955 102.654 88.2915 102.501C88.1384 102.398 87.9343 102.193 87.8323 101.988C87.6282 101.629 87.4752 101.167 87.4752 100.705C87.4752 100.244 87.5772 99.7821 87.8323 99.423C87.9854 99.2178 88.1384 99.0127 88.2915 98.9101C88.4955 98.7562 88.6996 98.7049 88.9547 98.7049H94.8726H95.6378C95.6889 98.7049 95.7909 98.7049 95.8419 98.7562L95.8929 55.4658ZM40.897 149.279C40.897 149.433 40.897 149.638 40.795 149.792C40.6929 149.997 40.5399 150.099 40.3358 150.151C40.2338 150.151 40.1317 150.099 40.0297 150.048C39.9277 149.997 39.8767 149.894 39.8256 149.792C39.7236 149.638 39.6726 149.433 39.6726 149.227C39.6726 149.022 39.7236 148.868 39.7746 148.715C39.8767 148.509 40.0297 148.407 40.2338 148.356C40.3358 148.356 40.4378 148.407 40.5399 148.458C40.6419 148.509 40.6929 148.612 40.7439 148.715C40.846 148.868 40.897 149.074 40.897 149.279ZM40.948 61.1079C40.846 61.2618 40.795 61.3644 40.6419 61.467C40.4889 61.5696 40.3358 61.6209 40.2338 61.6209C40.2338 61.6209 40.2338 61.6209 40.1828 61.6209C40.1317 61.6209 40.1317 61.6209 40.0807 61.6209H39.9787C39.9787 61.6209 39.9787 61.6209 39.9277 61.6209C39.7236 61.6209 39.5195 61.5183 39.3665 61.3644C39.2134 61.2105 39.1114 61.0566 39.0604 60.8515C38.9584 60.4924 38.9584 60.0308 39.1114 59.6205C39.1624 59.4153 39.2645 59.2614 39.4175 59.1588C39.5706 59.005 39.7236 58.9024 39.9277 58.9024H39.9787H40.2338C40.3868 58.9024 40.5399 58.9537 40.6419 59.0563C40.7439 59.1588 40.846 59.2614 40.897 59.4153C40.999 59.6718 41.1011 59.9795 41.05 60.2873C41.1521 60.5437 41.05 60.8515 40.948 61.1079ZM45.1314 150.099C45.0293 150.305 44.8763 150.407 44.6722 150.458C44.5702 150.458 44.4682 150.407 44.3661 150.356C44.2641 150.305 44.2131 150.202 44.1621 150.099C44.06 149.946 44.009 149.74 44.009 149.484C44.009 149.33 44.009 149.125 44.111 148.971C44.2131 148.766 44.3661 148.663 44.5702 148.612C44.6722 148.612 44.7743 148.663 44.8763 148.715C44.9783 148.766 45.0293 148.868 45.0804 148.971C45.1824 149.125 45.2334 149.33 45.2334 149.587C45.2334 149.689 45.2334 149.894 45.1314 150.099ZM45.2844 60.8515C45.1824 61.0054 45.0804 61.1079 44.9783 61.2105C44.8253 61.3131 44.6722 61.3644 44.5192 61.3644C44.5192 61.3644 44.5192 61.3644 44.4682 61.3644C44.4171 61.3644 44.4171 61.3644 44.3661 61.3644H44.2641C44.2641 61.3644 44.2641 61.3644 44.2131 61.3644C44.009 61.3644 43.8049 61.2618 43.6519 61.1079C43.4988 60.9541 43.3968 60.7489 43.3458 60.5437V60.4924C43.2438 60.1334 43.2438 59.6718 43.3968 59.3127C43.4478 59.1075 43.5499 58.9537 43.7029 58.8511C43.856 58.6972 44.06 58.5946 44.2131 58.5946H44.2641H44.5192C44.6722 58.5946 44.8253 58.6459 44.9783 58.7998C45.0804 58.9024 45.1824 59.005 45.2334 59.1588C45.3354 59.4153 45.4375 59.7231 45.4375 60.0308C45.4885 60.3386 45.4375 60.6463 45.2844 60.8515Z" fill="black"/>
</g>
</g>
<g opacity="0.2">
<g opacity="0.2">
<path opacity="0.2" d="M89.1589 100.757H89.0568H89.0058H88.8018V101.013H89.0058H89.1589C89.2099 101.013 89.2609 100.962 89.2609 100.859C89.2609 100.808 89.2609 100.757 89.2099 100.757C89.2099 100.757 89.2099 100.757 89.1589 100.757Z" fill="#D8D8D8"/>
</g>
</g>
<g opacity="0.2">
<g opacity="0.2">
<path opacity="0.2" d="M85.384 41.9248L84.9248 41.9761V42.13L85.384 42.0787V41.9248Z" fill="#D8D8D8"/>
</g>
</g>
<g opacity="0.2">
<g opacity="0.2">
<path opacity="0.2" d="M166.551 157.793L107.933 162.871C107.117 162.922 106.3 162.974 105.229 163.025C104.311 163.076 103.443 163.076 102.525 163.076C102.474 163.076 102.372 163.076 102.321 163.076C102.168 163.076 102.015 163.076 101.862 163.076C101.658 163.076 101.403 163.076 101.199 163.076C100.74 163.076 100.28 163.076 99.8723 163.025C99.4131 163.025 98.954 162.974 98.5458 162.974C98.0867 162.974 97.6276 162.922 97.2194 162.871L96.1991 162.82H96.1481H96.097H96.046C96.046 162.871 95.995 162.871 95.944 162.871L36.6116 158.357C36.5606 158.357 36.5606 158.306 36.5606 158.306C36.5606 158.306 36.5606 158.306 36.5096 158.306L35.6423 158.255C35.3362 158.255 35.0301 158.204 34.673 158.152C34.52 158.152 34.3669 158.101 34.2139 158.101L34.2649 159.127H34.3159C34.3669 159.127 34.469 159.178 34.52 159.178C34.673 159.229 34.8261 159.229 34.9791 159.229C35.2852 159.281 35.5913 159.281 35.8974 159.332L97.4235 164.153C97.8316 164.205 98.2908 164.205 98.6989 164.256C99.107 164.256 99.5662 164.307 99.9743 164.307C100.382 164.307 100.842 164.307 101.25 164.359C101.658 164.359 102.117 164.359 102.525 164.359C103.341 164.359 104.209 164.359 105.076 164.307C105.484 164.307 105.943 164.256 106.351 164.256C106.555 164.256 106.76 164.205 106.964 164.205C107.168 164.205 107.423 164.153 107.627 164.153L166.245 158.973C166.5 158.973 166.806 158.922 167.061 158.87C167.214 158.87 167.316 158.819 167.469 158.819C167.52 158.819 167.571 158.768 167.673 158.768C167.673 158.768 167.673 158.768 167.724 158.768L167.775 157.742C167.673 157.742 167.571 157.793 167.418 157.793C167.112 157.742 166.806 157.793 166.551 157.793Z" fill="#D8D8D8"/>
</g>
</g>
<g opacity="0.2">
<g opacity="0.2">
<path opacity="0.2" d="M148.542 104.552H147.522V105.937H148.542L148.593 105.886V104.604C148.542 104.604 148.542 104.552 148.542 104.552Z" fill="#D8D8D8"/>
</g>
</g>
<g opacity="0.2">
<g opacity="0.2">
<path opacity="0.2" d="M167.316 42.9506C167.01 42.8993 166.755 42.8993 166.449 42.848L107.882 37.8214C107.423 37.7701 107.015 37.7701 106.556 37.7188C106.352 37.7188 106.147 37.7188 105.943 37.6675C105.688 37.6675 105.484 37.6675 105.229 37.6162C104.362 37.6675 103.444 37.6162 102.576 37.6162C102.372 37.6162 102.117 37.6162 101.913 37.6162C101.709 37.6162 101.454 37.6162 101.25 37.6162C100.791 37.6162 100.383 37.6162 99.9235 37.6675C99.6684 37.6675 99.4643 37.6675 99.2092 37.6675C99.0052 37.6675 98.8011 37.6675 98.597 37.7188C98.1379 37.7188 97.7297 37.7701 97.2706 37.8214L96.3013 37.8727V55.2093V98.7562H96.3523C96.5564 98.8588 96.7094 99.064 96.8114 99.2691C97.0155 99.6282 97.1686 100.09 97.1686 100.603C97.1686 101.064 97.0665 101.577 96.8114 101.936C96.6584 102.141 96.5053 102.347 96.3523 102.449H96.3013V162.512V162.563L97.2196 162.615C97.6787 162.666 98.0868 162.666 98.546 162.717C99.0051 162.717 99.4643 162.769 99.8724 162.769C100.128 162.769 100.383 162.769 100.638 162.769C100.689 162.717 100.74 162.717 100.74 162.769C100.893 162.769 101.046 162.769 101.199 162.769C101.403 162.769 101.658 162.769 101.862 162.769C102.066 162.769 102.321 162.769 102.525 162.769C103.393 162.769 104.311 162.769 105.229 162.717C106.25 162.666 107.066 162.615 107.882 162.563L166.5 157.485C166.755 157.485 167.061 157.434 167.367 157.383C167.521 157.383 167.623 157.332 167.776 157.332C167.776 157.229 167.878 157.126 167.98 157.126C168.031 157.126 168.031 157.126 168.082 157.126L168.031 42.9506C167.98 43.1044 167.776 43.0019 167.316 42.9506ZM138.951 82.4454L143.39 82.548V91.1137L139.002 88.3952L138.951 82.4454ZM138.288 82.3941V91.6266L133.85 94.2425V82.2915L138.288 82.3941ZM138.288 92.8063V101.372H133.85V95.4222L138.288 92.8063ZM129.666 106.655H127.932V104.193L128.391 103.937V103.372L127.932 103.629V102.962L128.391 102.706V103.372C128.748 103.372 129.258 103.372 129.36 103.372H129.411C129.564 103.372 129.666 103.424 129.768 103.475C130.023 103.629 130.176 103.988 130.176 104.398C130.176 104.603 130.125 104.809 130.023 105.014C130.176 105.168 130.227 105.424 130.227 105.732C130.329 106.245 130.023 106.655 129.666 106.655ZM131.146 106.655C130.891 106.655 130.686 106.347 130.686 105.937V105.732C130.686 105.322 130.891 105.014 131.146 105.014H132.523V104.706C132.523 104.655 132.523 104.655 132.472 104.655H130.942L130.789 104.091H132.472C132.727 104.091 132.931 104.398 132.931 104.809V106.655H131.146ZM136.196 106.604H135.737V104.706C135.737 104.655 135.737 104.655 135.686 104.655H135.074L135.023 104.706V106.604H134.564V104.706C134.564 104.655 134.564 104.655 134.513 104.655H133.901L133.85 104.706V106.604H133.39V104.039H135.737C135.992 104.039 136.196 104.347 136.196 104.757V106.604V106.604ZM138.594 105.886C138.594 106.296 138.39 106.604 138.135 106.604H137.064H136.604V103.424H137.064V104.039H138.135C138.39 104.039 138.594 104.347 138.594 104.757V105.886ZM138.951 89.5237L143.339 92.2421V101.372H138.951V89.5237ZM140.992 105.886C140.992 106.245 140.788 106.604 140.533 106.604H139.41C139.155 106.604 138.951 106.296 138.951 105.886V104.039H139.41V105.937C139.41 105.988 139.41 105.988 139.461 105.988H140.584L140.635 105.937V104.039H141.043L140.992 105.886ZM142.522 106.553V103.424H142.982V105.988H144.053L144.206 106.604L142.522 106.553ZM146.655 106.553H144.92C144.665 106.553 144.461 106.245 144.461 105.886V105.681C144.461 105.322 144.665 104.963 144.92 104.963H146.247V104.655C146.247 104.603 146.247 104.603 146.196 104.603H144.716L144.563 104.039H146.196C146.451 104.039 146.655 104.347 146.655 104.706V106.553ZM149.001 105.834C149.001 106.194 148.797 106.501 148.542 106.501H147.471H147.012V103.372H147.471V103.988H148.542C148.797 103.988 149.001 104.296 149.001 104.655V105.834Z" fill="#D8D8D8"/>
</g>
</g>
<g opacity="0.2">
<g opacity="0.2">
<path opacity="0.2" d="M129.513 105.27H129.258H129.105H128.391V106.142H129.054H129.462C129.615 106.142 129.768 105.937 129.768 105.732C129.768 105.578 129.717 105.475 129.666 105.373C129.666 105.322 129.615 105.27 129.513 105.27Z" fill="#D8D8D8"/>
</g>
</g>
<g opacity="0.2">
<g opacity="0.2">
<path opacity="0.2" d="M102.525 164.666C102.474 164.666 102.372 164.666 102.321 164.666C101.964 164.666 101.607 164.666 101.25 164.666C100.842 164.666 100.383 164.666 99.9746 164.615C99.5665 164.615 99.1073 164.564 98.6992 164.564C98.6482 164.564 98.6482 164.564 98.5972 164.564V164.974C98.5972 164.974 98.5972 164.974 98.6482 164.974C98.6992 164.974 98.7502 165.025 98.8012 165.025C98.8522 165.025 98.9543 165.077 99.0053 165.077C99.1073 165.077 99.2094 165.128 99.3114 165.128C99.5665 165.179 99.8216 165.179 100.179 165.179C100.689 165.231 101.25 165.23 101.913 165.23C103.189 165.23 104.464 165.231 105.331 165.128C105.535 165.128 105.739 165.077 105.944 165.077C106.046 165.077 106.148 165.025 106.25 165.025C106.301 165.025 106.352 164.974 106.352 164.974C106.352 164.974 106.352 164.974 106.403 164.974V164.564C105.995 164.564 105.586 164.615 105.178 164.615C104.26 164.666 103.393 164.666 102.525 164.666Z" fill="#D8D8D8"/>
</g>
</g>
<g opacity="0.2">
<g opacity="0.2">
<path opacity="0.2" d="M129.462 104.706C129.513 104.706 129.513 104.706 129.564 104.655C129.615 104.604 129.717 104.501 129.717 104.398C129.717 104.347 129.717 104.296 129.717 104.296C129.717 104.142 129.666 103.988 129.564 103.937C129.513 103.937 129.513 103.885 129.462 103.885H129.003H128.442V104.655H128.952L129.462 104.706Z" fill="#D8D8D8"/>
</g>
</g>
<g opacity="0.2">
<g opacity="0.2">
<path opacity="0.2" d="M144.869 105.578V105.937C144.869 105.989 144.869 105.989 144.92 105.989H146.247V105.476H144.92C144.869 105.527 144.869 105.527 144.869 105.578Z" fill="#D8D8D8"/>
</g>
</g>
<g opacity="0.2">
<g opacity="0.2">
<path opacity="0.2" d="M138.084 104.655H137.063V106.091H138.084L138.135 106.04V104.757C138.135 104.655 138.084 104.655 138.084 104.655Z" fill="#D8D8D8"/>
</g>
</g>
<g opacity="0.2">
<g opacity="0.2">
<path opacity="0.2" d="M166.245 159.332L160.429 159.845C160.531 159.845 160.633 159.845 160.735 159.845C161.194 159.896 161.756 159.896 162.317 159.896C162.776 159.896 164.357 159.896 165.48 159.794C165.633 159.794 165.786 159.742 165.939 159.742C166.041 159.742 166.092 159.691 166.143 159.691C166.143 159.691 166.194 159.691 166.245 159.64V159.332V159.332Z" fill="#D8D8D8"/>
</g>
</g>
<g opacity="0.2">
<g opacity="0.2">
<path opacity="0.2" d="M55.5388 49.5673C55.5898 49.5673 55.5898 49.516 55.5898 49.4647L56.304 46.7462C56.304 46.6949 56.304 46.5923 56.253 46.541C56.253 46.4897 56.202 46.4897 56.202 46.4897C56.151 46.4897 56.151 46.4897 56.151 46.541C56.151 46.541 56.151 46.5923 56.1 46.5923L55.3857 49.3108C55.3857 49.3621 55.3857 49.4647 55.4368 49.5673C55.4878 49.5673 55.5388 49.6186 55.5388 49.5673Z" fill="#D8D8D8"/>
</g>
</g>
<g opacity="0.2">
<g opacity="0.2">
<path opacity="0.2" d="M32.1733 54.0298C32.2753 54.0811 32.4284 54.1324 32.5814 54.1324C32.7345 54.1324 32.8875 54.1324 33.0406 54.1324H33.0916L51.9167 53.004H51.9677C52.2228 53.004 52.5289 52.9527 52.784 52.8501C52.937 52.7988 53.0391 52.6962 53.1921 52.5936C53.2942 52.491 53.3962 52.3885 53.4982 52.2346C53.6513 52.0294 53.8043 51.7217 53.9574 51.4139C54.0594 51.1062 54.1614 50.7984 54.2125 50.4907L57.9877 36.0776C58.0897 35.7186 58.1918 35.3082 58.2428 34.9492C58.2428 34.744 58.2428 34.5389 58.1918 34.385C58.1407 34.2824 58.1407 34.2311 58.0897 34.1285C58.0387 34.0772 57.9877 34.0259 57.8857 33.9747C57.7836 33.9234 57.6306 33.8721 57.4265 33.8721C57.2735 33.8721 57.1204 33.8721 56.9163 33.8721L38.0402 35.4621C37.6831 35.5134 37.428 35.5134 37.1729 35.6673C37.0199 35.7186 36.9178 35.8212 36.8158 35.9237C36.7138 35.975 36.6117 36.0776 36.5097 36.2315C36.4077 36.3341 36.3566 36.488 36.2546 36.5905C36.2036 36.6931 36.1526 36.847 36.0505 37.0009C35.9485 37.3086 35.8975 37.6164 35.7955 37.9241L32.0202 51.9268C31.9182 52.2859 31.8162 52.6962 31.7651 53.0553C31.7651 53.2604 31.7651 53.4656 31.8162 53.6195C31.8672 53.7221 31.8672 53.7733 31.9182 53.8759C32.0202 53.9272 32.0712 53.9785 32.1733 54.0298ZM33.0406 52.3372L33.4487 50.9523L36.7648 38.5909L37.2239 36.847C37.2749 36.5905 37.53 36.4367 37.7851 36.3854L38.9075 36.2828L55.4879 34.8979L56.3041 34.8466C56.5082 34.8466 56.7123 34.8979 56.8143 35.0518C56.9163 35.2057 56.9674 35.4108 56.9163 35.616L56.5592 37.0522L53.2431 49.7726L52.784 51.5678C52.733 51.8243 52.4779 52.0294 52.2228 52.0294L51.0494 52.0807L34.469 53.1065L33.7038 53.1578C33.7038 53.1578 33.7038 53.1578 33.6528 53.1578C33.4487 53.1578 33.2956 53.0553 33.1936 52.9527C33.0406 52.7475 32.9895 52.5423 33.0406 52.3372Z" fill="#D8D8D8"/>
</g>
</g>
<g opacity="0.2">
<g opacity="0.2">
<path opacity="0.2" d="M34.724 157.947C35.0301 157.999 35.3872 157.999 35.6933 158.05L36.3565 158.101L36.4075 55.2095L34.5709 55.3121C34.4689 55.3121 34.3669 55.3121 34.2648 55.3121C34.1628 55.3121 34.1118 55.3121 34.0097 55.3121L33.9077 157.691C33.9587 157.691 33.9587 157.691 34.0097 157.691C34.1118 157.691 34.2138 157.793 34.2138 157.896C34.3669 157.896 34.5199 157.947 34.724 157.947Z" fill="#D8D8D8"/>
</g>
</g>
<g opacity="0.2">
<g opacity="0.2">
<path opacity="0.2" d="M35.8974 159.742C35.8464 159.742 35.7954 159.742 35.6934 159.742V160.101C35.6934 160.101 35.6934 160.153 35.7444 160.153C35.7954 160.153 35.8464 160.204 35.8464 160.204C35.8974 160.204 35.9995 160.255 36.0505 160.255C36.1525 160.255 36.2545 160.255 36.3056 160.307C36.5096 160.307 36.7647 160.358 37.0708 160.358C37.53 160.358 38.0401 160.409 38.6013 160.409C38.8564 160.409 39.1115 160.409 39.4176 160.409C39.4686 160.409 39.4686 160.409 39.5196 160.409C39.7237 160.409 39.9788 160.409 40.1828 160.409C40.2338 160.409 40.2849 160.409 40.3359 160.409C40.5399 160.409 40.795 160.409 40.9991 160.409C41.0501 160.409 41.0501 160.409 41.1011 160.409C41.3052 160.409 41.4582 160.409 41.6623 160.358H41.7133C41.7643 160.358 41.8664 160.358 41.9174 160.358L35.8974 159.742Z" fill="#D8D8D8"/>
</g>
</g>
<g opacity="0.2">
<g opacity="0.2">
<path opacity="0.2" d="M34.5201 55.1068L36.3567 55.0042C36.4077 54.9016 36.4587 54.8503 36.5607 54.8503C36.6628 54.8503 36.7138 54.9016 36.7648 54.9529L53.3962 54.0296C53.5493 54.0296 53.7533 54.0296 53.9064 53.9784C54.0594 53.9271 54.2125 53.9271 54.3655 53.8245C54.5186 53.7732 54.6716 53.6706 54.7737 53.568C54.8757 53.4654 55.0287 53.3629 55.1308 53.209C55.3348 52.9525 55.4879 52.6961 55.5899 52.337C55.692 52.0293 55.794 51.6702 55.896 51.3625L58.7019 40.6937L58.804 40.3347L59.6713 36.9494C59.7733 36.5391 59.8753 36.1288 59.9263 35.7184C59.9263 35.462 59.9263 35.3081 59.8753 35.1029C59.8243 34.949 59.7223 34.7952 59.5182 34.6413L57.9877 33.7693C57.8857 33.718 57.6816 33.6667 57.5286 33.6667C57.5286 33.6667 57.5286 33.6667 57.4775 33.6667C57.6816 33.6667 57.8347 33.718 57.9367 33.7693C58.0387 33.8206 58.0897 33.8719 58.1918 33.9745C58.2428 34.0771 58.2938 34.1797 58.3448 34.2823C58.3958 34.4361 58.3958 34.6413 58.3958 34.8978C58.3448 35.2568 58.2428 35.6671 58.1408 36.0262L54.3655 50.4392C54.2635 50.747 54.2125 51.0547 54.1104 51.3625C53.9574 51.7215 53.8043 51.978 53.6513 52.2344C53.5493 52.3883 53.4472 52.4909 53.2942 52.5935C53.1411 52.6961 53.0391 52.7986 52.886 52.8499C52.631 52.9525 52.3759 53.0038 52.1208 53.0038H52.0188H51.9677C51.9677 53.0038 51.9677 53.0038 51.9167 53.0038L32.9896 54.2861C32.8875 54.2861 32.7855 54.2861 32.6324 54.2861C32.5814 54.2861 32.5304 54.2861 32.5304 54.2861C32.3263 54.2861 32.1733 54.2348 32.0713 54.1835C32.0202 54.1322 31.9182 54.0809 31.8672 54.0296C31.9182 54.1322 32.0202 54.1835 32.0713 54.2348L33.6018 55.0042C33.6528 54.9529 33.7038 54.9529 33.7548 54.9529C33.8568 54.9529 33.9589 55.0042 33.9589 55.1068C34.1629 55.1581 34.367 55.1581 34.5201 55.1068ZM55.2838 49.2595L55.9981 46.541C55.9981 46.4897 56.0491 46.4384 56.0491 46.4384C56.1001 46.3871 56.1511 46.3359 56.2531 46.3359C56.3042 46.3359 56.4062 46.3871 56.4572 46.4384C56.5592 46.541 56.5592 46.6949 56.5592 46.7975L55.845 49.516C55.794 49.6185 55.743 49.6698 55.692 49.7211C55.6409 49.7211 55.6409 49.7211 55.5899 49.7211C55.5389 49.7211 55.4369 49.6698 55.3859 49.6185C55.2838 49.5672 55.2328 49.4134 55.2838 49.2595Z" fill="#D8D8D8"/>
</g>
</g>
<g opacity="0.2">
<g opacity="0.2">
<path opacity="0.2" d="M131.146 105.629C131.095 105.629 131.095 105.681 131.095 105.681V106.04C131.095 106.091 131.095 106.091 131.146 106.091H132.472V105.578L131.146 105.629Z" fill="#D8D8D8"/>
</g>
</g>
</svg>
