<svg xmlns="http://www.w3.org/2000/svg" width="16" height="16" viewBox="0 0 16 16"><ellipse cx="5.5" cy="7" rx="5" ry="1.5" style="fill:none;stroke:#949494;stroke-linecap:round;stroke-linejoin:round"/><ellipse cx="9.5" cy="2" rx="5" ry="1.5" style="fill:none;stroke:#949494;stroke-linecap:round;stroke-linejoin:round"/><path d="M14.5,5c0,.726-1.719,1.331-4,1.47" style="fill:none;stroke:#949494;stroke-linecap:round;stroke-linejoin:round"/><path d="M14.5,8c0,.726-1.719,1.331-4,1.47" style="fill:none;stroke:#949494;stroke-linecap:round;stroke-linejoin:round"/><path d="M10.5,10c0,.828-2.239,1.5-5,1.5s-5-.672-5-1.5" style="fill:none;stroke:#949494;stroke-linecap:round;stroke-linejoin:round"/><path d="M.5,7v6c0,.828,2.239,1.5,5,1.5s5-.672,5-1.5V7" style="fill:none;stroke:#949494;stroke-linecap:round;stroke-linejoin:round"/><path d="M14.5,2v9c0,.726-1.719,1.331-4,1.47" style="fill:none;stroke:#949494;stroke-linejoin:round"/><line x1="4.5" y1="2" x2="4.5" y2="6" style="fill:none;stroke:#949494;stroke-linejoin:round"/></svg>