<svg width="16" height="16" viewBox="0 0 16 16" fill="none" xmlns="http://www.w3.org/2000/svg">
<path d="M13.7385 6.85733L14.6848 7.39786C14.9194 7.53186 15.1111 7.86548 15.1111 8.13985V10.5545C15.1111 10.8288 14.9202 11.1652 14.6875 11.3019L8.38825 14.9972C8.15547 15.134 7.77376 15.1358 7.5392 15.0018L2.20319 11.9436C1.96863 11.8096 1.77777 11.4751 1.77777 11.2007V8.8089C1.77777 8.53454 1.96863 8.19909 2.20141 8.06328L2.90062 7.65583" stroke="#262E30" stroke-miterlimit="10" stroke-linecap="round"/>
<path d="M2.38672 8.63205L4.29976 9.75049C4.53254 9.88631 4.7234 10.2227 4.72429 10.497L4.72786 12.7348" stroke="#262E30" stroke-miterlimit="10" stroke-linecap="round"/>
<path d="M5.53082 10.4013L7.44387 11.5198C7.67664 11.6556 7.8675 11.9919 7.86839 12.2663L7.87196 14.5041" stroke="#262E30" stroke-miterlimit="10" stroke-linecap="round"/>
<path d="M3.81485 9.44697C3.57851 9.31663 3.38586 8.98483 3.38586 8.71046V6.31862C3.38586 6.04425 3.57672 5.70881 3.8095 5.573L10.1399 1.88315C10.3727 1.74733 10.7571 1.74186 10.9934 1.87221L13.0724 3.01344C13.3087 3.14287 13.5023 3.47376 13.5023 3.74813V6.16275C13.5023 6.43712 13.3114 6.77347 13.0786 6.9102L6.78029 10.6055C6.54751 10.7423 6.16401 10.7468 5.92767 10.6165L3.81485 9.44697Z" stroke="#262E30" stroke-miterlimit="10" stroke-linecap="round"/>
<path d="M3.99438 6.14182L5.90743 7.26026C6.1402 7.39607 6.33106 7.73243 6.33195 8.00679L6.33552 10.2446" stroke="#262E30" stroke-miterlimit="10" stroke-linecap="round"/>
<path d="M12.9584 3.50922L6.80902 7.22459" stroke="#262E30" stroke-miterlimit="10" stroke-linecap="round"/>
<path d="M14.4254 7.85727L8.276 11.5726" stroke="#262E30" stroke-miterlimit="10" stroke-linecap="round"/>
</svg>
