<svg width="16" height="16" viewBox="0 0 16 16" fill="none" xmlns="http://www.w3.org/2000/svg">
<path d="M12.4759 6.06822H13.7562L8.74263 10.2268C8.514 10.416 8.10431 10.416 7.87554 10.227C7.87545 10.2269 7.87536 10.2268 7.87528 10.2268L2.86167 6.06822H4.142C4.54877 6.06822 4.93613 5.94338 5.23267 5.71974C5.52893 5.49633 5.76004 5.14967 5.76004 4.72506V0.843158C5.76004 0.804033 5.78049 0.729113 5.88953 0.646884C5.99827 0.564877 6.16993 0.5 6.37809 0.5H10.2398C10.448 0.5 10.6196 0.564877 10.7284 0.646884C10.8374 0.729113 10.8579 0.804033 10.8579 0.843158V4.72506C10.8579 5.14967 11.089 5.49633 11.3852 5.71974C11.6818 5.94338 12.0691 6.06822 12.4759 6.06822ZM2.36979 6.09452C2.36773 6.09555 2.36658 6.096 2.36652 6.09597C2.36645 6.09594 2.36748 6.09542 2.36979 6.09452ZM14.2475 6.09456C14.2498 6.09545 14.2508 6.09596 14.2507 6.096C14.2507 6.09603 14.2495 6.09558 14.2475 6.09456Z" stroke="#FF6F00"/>
<path d="M3.80389 9.66797C3.58699 9.77421 3.42822 9.90068 3.42822 10.0895C3.42822 10.673 4.95994 10.673 4.95994 11.2548C4.95994 11.8383 3.42822 11.8383 3.42822 12.42C3.42822 13.0035 4.95994 13.0035 4.95994 13.587C4.95994 14.1704 3.42822 14.1704 3.42822 14.7539" stroke="#FF6F00" stroke-miterlimit="10" stroke-linecap="round"/>
<path d="M8.63467 13.1348C8.88288 13.2477 9.07518 13.381 9.07518 13.5867C9.07518 14.1702 7.54346 14.1702 7.54346 14.7536" stroke="#FF6F00" stroke-miterlimit="10" stroke-linecap="round"/>
<path d="M11.893 10.4316C12.3223 10.7065 13.1899 10.8161 13.1899 11.2546C13.1899 11.838 11.6582 11.838 11.6582 12.4198C11.6582 13.0033 13.1899 13.0033 13.1899 13.5867C13.1899 14.1702 11.6582 14.1702 11.6582 14.7537" stroke="#FF6F00" stroke-miterlimit="10" stroke-linecap="round"/>
</svg>
