<svg width="24" height="24" viewBox="0 0 24 24" fill="none" xmlns="http://www.w3.org/2000/svg">
<path d="M20.3556 14.4697C20.6041 14.5377 20.862 14.3916 20.9157 14.1396C21.1513 13.0338 21.1544 11.8893 20.9225 10.7792C20.6588 9.51666 20.0988 8.33487 19.2888 7.33122C18.4787 6.32757 17.4417 5.5308 16.2633 5.00656C15.0849 4.48233 13.7987 4.24564 12.5109 4.31601C11.223 4.38638 9.97033 4.76179 8.85604 5.41131C7.74174 6.06082 6.79775 6.96584 6.10187 8.05178C5.40598 9.13772 4.97812 10.3735 4.85355 11.6572C4.74402 12.786 4.87172 13.9234 5.22643 14.9969C5.30725 15.2415 5.5796 15.3586 5.81919 15.2639C6.05877 15.1692 6.17467 14.8986 6.09567 14.6534C5.79424 13.7179 5.68686 12.7289 5.78211 11.7473C5.8924 10.6107 6.27122 9.5166 6.88735 8.55513C7.50347 7.59366 8.33927 6.79237 9.32584 6.2173C10.3124 5.64223 11.4215 5.30985 12.5618 5.24754C13.702 5.18524 14.8407 5.3948 15.8841 5.85895C16.9275 6.3231 17.8456 7.02855 18.5628 7.91716C19.28 8.80578 19.7758 9.85211 20.0093 10.9699C20.2109 11.9353 20.2119 12.9301 20.0142 13.8929C19.9624 14.1452 20.1071 14.4016 20.3556 14.4697Z" fill="#323A3D"/>
<path d="M18.3707 10.4798C18.5481 10.4065 18.6333 10.2028 18.5499 10.0299C18.1474 9.19567 17.5584 8.46323 16.8266 7.89035C16.0035 7.24596 15.0277 6.82535 13.994 6.66938C12.9603 6.5134 11.9039 6.62735 10.9273 7.00017C10.059 7.33161 9.2801 7.85763 8.64938 8.53599C8.51872 8.67653 8.54001 8.89632 8.68779 9.01871C8.83557 9.14111 9.05381 9.11965 9.18551 8.98009C9.73906 8.39351 10.4188 7.93806 11.1751 7.64936C12.0398 7.31927 12.9751 7.21838 13.8903 7.35648C14.8055 7.49458 15.6695 7.86698 16.3983 8.43751C17.0357 8.93652 17.5508 9.57226 17.9066 10.2961C17.9912 10.4683 18.1934 10.5532 18.3707 10.4798Z" fill="#323A3D"/>
<path d="M16.7422 11.4449L13.5908 15.7765" stroke="#323A3D" stroke-width="1.04628" stroke-linecap="round"/>
<path d="M13.1477 17.5962C13.8819 17.5962 14.477 17.0011 14.477 16.2669C14.477 15.5327 13.8819 14.9375 13.1477 14.9375C12.4135 14.9375 11.8183 15.5327 11.8183 16.2669C11.8183 17.0011 12.4135 17.5962 13.1477 17.5962Z" fill="#323A3D"/>
</svg>
