<svg xmlns="http://www.w3.org/2000/svg" width="26" height="26" viewBox="0 0 26 26"><path d="M5.5,15.5h-1a2,2,0,0,1-2-2v-5a2,2,0,0,1,2-2h17a2,2,0,0,1,2,2v5a2,2,0,0,1-2,2h-1" style="fill:none;stroke:#262e30;stroke-miterlimit:10"/><line x1="17.5" y1="19.5" x2="8.5" y2="19.5" style="fill:none;stroke:#262e30;stroke-linecap:square;stroke-linejoin:round"/><line x1="17.5" y1="15.5" x2="8.5" y2="15.5" style="fill:none;stroke:#262e30;stroke-linecap:square;stroke-linejoin:round"/><path d="M5.5,6.5v-2a2,2,0,0,1,2-2h11a2,2,0,0,1,2,2v2" style="fill:none;stroke:#262e30;stroke-linecap:round;stroke-miterlimit:10"/><path d="M5.5,11.5h15a0,0,0,0,1,0,0v10a2,2,0,0,1-2,2H7.5a2,2,0,0,1-2-2v-10A0,0,0,0,1,5.5,11.5Z" style="fill:none;stroke:#262e30;stroke-miterlimit:10"/><rect x="21" y="8" width="1" height="1" style="fill:#262e30"/></svg>