<svg width="14" height="17" xmlns="http://www.w3.org/2000/svg" fill="none">

 <g>
  <title>Layer 1</title>
  <path id="svg_1" fill="#eb4949" d="m6.99931,1.6582c-3.21625,0 -5.82353,2.60729 -5.82353,5.82353c0,3.21627 2.60728,5.82357 5.82353,5.82357c3.21629,0 5.82349,-2.6073 5.82349,-5.82357c0,-3.21624 -2.6072,-5.82353 -5.82349,-5.82353zm-6.82353,5.82353c0,-3.76853 3.055,-6.82353 6.82353,-6.82353c3.76849,0 6.82349,3.055 6.82349,6.82353c0,3.76857 -3.055,6.82357 -6.82349,6.82357c-3.76853,0 -6.82353,-3.055 -6.82353,-6.82357z" clip-rule="evenodd" fill-rule="evenodd"/>
  <path id="svg_2" fill="#eb4949" d="m6.99745,6.21108c-1.4002,0 -2.53529,1.13509 -2.53529,2.5353c0,1.40022 1.13509,2.53532 2.53529,2.53532c1.40021,0 2.5353,-1.1351 2.5353,-2.53532c0,-1.40021 -1.13509,-2.5353 -2.5353,-2.5353zm-3.53529,2.5353c0,-1.95249 1.58281,-3.5353 3.53529,-3.5353c1.95249,0 3.53525,1.58281 3.53525,3.5353c0,1.95252 -1.58276,3.53532 -3.53525,3.53532c-1.95248,0 -3.53529,-1.5828 -3.53529,-3.53532z" clip-rule="evenodd" fill-rule="evenodd"/>
  <path id="svg_3" fill="#eb4949" d="m9.77379,12.6699l2.37151,4.1075l-10.29159,0l2.36819,-4.1018l0.411,0.1824c0.72063,0.3198 1.51868,0.4977 2.35961,0.4977c0.84491,0 1.64652,-0.1796 2.36984,-0.5023l0.41144,-0.1835zm-0.42308,1.2672c-0.73545,0.2708 -1.53004,0.4186 -2.3582,0.4186c-0.82383,0 -1.61445,-0.1462 -2.34668,-0.4144l-1.06007,1.8361l6.82744,0l-1.06249,-1.8403z" clip-rule="evenodd" fill-rule="evenodd"/>
  <path id="svg_4" fill="#eb4949" d="m1.33984,16.3405c0,-0.2761 0.22386,-0.5 0.5,-0.5l10.08386,0c0.2761,0 0.5,0.2239 0.5,0.5c0,0.2761 -0.2239,0.5 -0.5,0.5l-10.08386,0c-0.27614,0 -0.5,-0.2239 -0.5,-0.5z" clip-rule="evenodd" fill-rule="evenodd"/>
 </g>
</svg>