<svg width="39" height="22" viewBox="0 0 39 22" fill="none" xmlns="http://www.w3.org/2000/svg">
<g clip-path="url(#clip0_10018_34438)">
<path fill-rule="evenodd" clip-rule="evenodd" d="M32.8631 8.67985L29.5134 12.8992L32.8631 17.1193L32.8631 8.67985ZM34.0488 8.12188C34.0488 7.16675 32.8751 6.7271 32.2907 7.46329L28.4887 12.2523C28.1955 12.6216 28.1983 13.1544 28.4954 13.5287L32.2974 18.3186C32.8863 19.0605 34.0488 18.6504 34.0488 17.7008L34.0488 8.12188Z" fill="#323A3E"/>
<path fill-rule="evenodd" clip-rule="evenodd" d="M15.0789 6.79766V18.1828H27.1471V6.79766H15.0789ZM14.8789 5.59766C14.3266 5.59766 13.8789 6.04537 13.8789 6.59766V18.3828C13.8789 18.9351 14.3266 19.3828 14.8789 19.3828H27.3471C27.8994 19.3828 28.3471 18.9351 28.3471 18.3828V6.59766C28.3471 6.04537 27.8994 5.59766 27.3471 5.59766H14.8789Z" fill="#323A3E"/>
<path fill-rule="evenodd" clip-rule="evenodd" d="M19.0481 16.1735C20.0968 16.1735 20.9469 15.3233 20.9469 14.2746C20.9469 13.2259 20.0968 12.3758 19.0481 12.3758C17.9994 12.3758 17.1492 13.2259 17.1492 14.2746C17.1492 15.3233 17.9994 16.1735 19.0481 16.1735ZM19.0481 17.3735C20.7595 17.3735 22.1469 15.9861 22.1469 14.2746C22.1469 12.5632 20.7595 11.1758 19.0481 11.1758C17.3366 11.1758 15.9492 12.5632 15.9492 14.2746C15.9492 15.9861 17.3366 17.3735 19.0481 17.3735Z" fill="#323A3E"/>
<path fill-rule="evenodd" clip-rule="evenodd" d="M12.1689 2.075C8.33759 2.075 5.23125 5.18134 5.23125 9.01267C5.23125 12.844 8.33759 15.9503 12.1689 15.9503C12.5003 15.9503 12.7689 16.219 12.7689 16.5503C12.7689 16.8817 12.5003 17.1503 12.1689 17.1503C7.67485 17.1503 4.03125 13.5067 4.03125 9.01267C4.03125 4.5186 7.67485 0.875 12.1689 0.875C14.4694 0.875 16.5478 1.83051 18.0272 3.36462C18.2572 3.60316 18.2503 3.98299 18.0118 4.21301C17.7732 4.44303 17.3934 4.43613 17.1634 4.1976C15.9008 2.88827 14.1303 2.075 12.1689 2.075Z" fill="#323A3E"/>
<path fill-rule="evenodd" clip-rule="evenodd" d="M11.5805 3.84961C11.9118 3.84961 12.1805 4.11824 12.1805 4.44961V8.96123H12.7501C13.0814 8.96123 13.3501 9.22986 13.3501 9.56123C13.3501 9.8926 13.0814 10.1612 12.7501 10.1612H11.9635C11.4206 10.1612 10.9805 9.72111 10.9805 9.17823V4.44961C10.9805 4.11824 11.2491 3.84961 11.5805 3.84961Z" fill="#323A3E"/>
<path fill-rule="evenodd" clip-rule="evenodd" d="M17.8452 1.46289C18.1766 1.46289 18.4452 1.73152 18.4452 2.06289V3.51568C18.4452 4.06881 18.0345 4.53591 17.4859 4.60664L15.8213 4.82127C15.4927 4.86365 15.1919 4.63158 15.1495 4.30293C15.1071 3.97428 15.3392 3.6735 15.6679 3.63113L17.2452 3.42774V2.06289C17.2452 1.73152 17.5139 1.46289 17.8452 1.46289Z" fill="#323A3E"/>
</g>
<defs>
<clipPath id="clip0_10018_34438">
<rect width="38" height="22" fill="white" transform="translate(0.367188)"/>
</clipPath>
</defs>
</svg>
