<svg width="18" height="18" viewBox="0 0 18 18" fill="none" xmlns="http://www.w3.org/2000/svg">
<path d="M15.5192 3.88027H13.6761V2.38505C13.6761 1.70477 13.3318 1 12.6554 1H5.28795C4.61155 1 3.86385 1.70477 3.86385 2.38505V3.87852H2.42236C1.74596 3.87852 1 4.58504 1 5.26707V9.7947C1 10.475 1.74422 10.8702 2.42236 10.8702H3.86211V15.4853C3.86211 16.1673 4.60981 16.5556 5.28621 16.5556H12.6536C13.33 16.5556 13.6743 16.1673 13.6743 15.4853V10.8685H15.5192C16.1974 10.8685 16.5556 10.475 16.5556 9.79296V5.26707C16.5556 4.58678 16.1974 3.88027 15.5192 3.88027ZM4.72109 2.38855C4.72109 2.1647 5.09842 1.81494 5.32273 1.81494H12.6154C12.8397 1.81494 12.8171 2.1647 12.8171 2.38855V3.86803H4.72109V2.38855ZM12.8171 15.2982C12.8171 15.5238 12.6415 15.7161 12.4171 15.7161H5.1245C4.90019 15.7161 4.72109 15.522 4.72109 15.2982V9.25607C4.72109 9.03048 4.90019 8.84861 5.1245 8.84861H12.4189C12.6432 8.84861 12.8188 9.03048 12.8188 9.25607V15.2982H12.8171ZM15.6514 9.77197C15.6514 9.99582 15.6757 10.022 15.4531 10.022H13.6274V9.3645C13.6274 8.68946 13.2866 7.98645 12.6154 7.98645H5.32273C4.65154 7.98645 3.91254 8.68946 3.91254 9.3645V10.022H2.4867C2.26239 10.022 1.88854 9.99582 1.88854 9.77197V5.28805C1.88854 5.06421 2.26239 4.72844 2.4867 4.72844H15.4531C15.6757 4.72844 15.6514 5.06246 15.6514 5.28805V9.77197V9.77197ZM11.6764 10.6376H5.94697C5.83916 10.6359 5.73483 10.6761 5.65832 10.753C5.58181 10.8282 5.53834 10.9314 5.53834 11.0398C5.53834 11.2689 5.72092 11.4421 5.94697 11.4421H11.6781C11.9042 11.4421 12.0868 11.2672 12.0868 11.0398C12.0868 10.9314 12.0433 10.8282 11.9668 10.753C11.8885 10.6778 11.7842 10.6359 11.6764 10.6376ZM11.6764 13.0177H5.94697C5.8009 13.0177 5.66701 13.0964 5.59398 13.2223C5.52095 13.35 5.52095 13.5057 5.59398 13.6333C5.66701 13.761 5.8009 13.8379 5.94697 13.8379H11.6781C11.8242 13.8379 11.9581 13.7592 12.0311 13.6333C12.1042 13.5057 12.1042 13.35 12.0311 13.2223C11.9581 13.0947 11.8225 13.0177 11.6764 13.0177ZM13.5561 5.7235C13.5561 6.05752 13.8256 6.32859 14.1577 6.32859C14.4898 6.32859 14.7593 6.05752 14.7593 5.7235C14.7593 5.38948 14.4898 5.11842 14.1577 5.11842C13.8256 5.11842 13.5561 5.38948 13.5561 5.7235Z" fill="#00AE42"/>
</svg>
