<svg width="36" height="20" viewBox="0 0 36 20" fill="none" xmlns="http://www.w3.org/2000/svg">
<path fill-rule="evenodd" clip-rule="evenodd" d="M29.8319 8.80498L26.4821 13.0243L29.8319 17.2444L29.8319 8.80498ZM31.0175 8.247C31.0175 7.29187 29.8439 6.85222 29.2594 7.58841L25.4574 12.3774C25.1643 12.7467 25.1671 13.2795 25.4642 13.6538L29.2662 18.4437C29.8551 19.1856 31.0175 18.7756 31.0175 17.8259L31.0175 8.247Z" fill="#6B6B6B"/>
<path fill-rule="evenodd" clip-rule="evenodd" d="M12.0467 6.92217V18.3073H24.1149V6.92217H12.0467ZM11.8467 5.72217C11.2944 5.72217 10.8467 6.16988 10.8467 6.72217V18.5073C10.8467 19.0596 11.2944 19.5073 11.8467 19.5073H24.3149C24.8672 19.5073 25.3149 19.0596 25.3149 18.5073V6.72217C25.3149 6.16988 24.8672 5.72217 24.3149 5.72217H11.8467Z" fill="#6B6B6B"/>
<path d="M18.5147 14.3996C18.5147 15.7797 17.3959 16.8985 16.0158 16.8985C14.6358 16.8985 13.517 15.7797 13.517 14.3996C13.517 13.0196 14.6358 11.9008 16.0158 11.9008C17.3959 11.9008 18.5147 13.0196 18.5147 14.3996Z" stroke="#6B6B6B" stroke-width="1.2"/>
<path fill-rule="evenodd" clip-rule="evenodd" d="M9.13767 2.2C5.30634 2.2 2.2 5.30634 2.2 9.13767C2.2 12.969 5.30634 16.0753 9.13767 16.0753C9.46904 16.0753 9.73767 16.344 9.73767 16.6753C9.73767 17.0067 9.46904 17.2753 9.13767 17.2753C4.6436 17.2753 1 13.6317 1 9.13767C1 4.6436 4.6436 1 9.13767 1C11.4381 1 13.5165 1.95551 14.9959 3.48962C15.226 3.72816 15.2191 4.10799 14.9805 4.33801C14.742 4.56803 14.3622 4.56113 14.1321 4.3226C12.8695 3.01327 11.099 2.2 9.13767 2.2Z" fill="#6B6B6B"/>
<path fill-rule="evenodd" clip-rule="evenodd" d="M8.54824 3.97412C8.87961 3.97412 9.14824 4.24275 9.14824 4.57412V9.08574H9.71785C10.0492 9.08574 10.3179 9.35437 10.3179 9.68574C10.3179 10.0171 10.0492 10.2857 9.71785 10.2857H8.93124C8.38837 10.2857 7.94824 9.84562 7.94824 9.30274V4.57412C7.94824 4.24275 8.21687 3.97412 8.54824 3.97412Z" fill="#6B6B6B"/>
<path fill-rule="evenodd" clip-rule="evenodd" d="M14.814 1.58691C15.1454 1.58691 15.414 1.85554 15.414 2.18691V3.6397C15.414 4.19283 15.0032 4.65993 14.4547 4.73067L12.7901 4.9453C12.4614 4.98767 12.1606 4.7556 12.1183 4.42695C12.0759 4.0983 12.308 3.79753 12.6366 3.75515L14.214 3.55176V2.18691C14.214 1.85554 14.4826 1.58691 14.814 1.58691Z" fill="#6B6B6B"/>
</svg>
