<svg xmlns="http://www.w3.org/2000/svg" width="16" height="16" viewBox="0 0 16 16"><line x1="0.5" y1="14.5" x2="14.5" y2="14.5" style="fill:none;stroke:#949494;stroke-linecap:square;stroke-linejoin:round"/><path d="M13.5,11.5l.4-.544a1.5,1.5,0,0,0,0-1.662L13.1,8.206a1.5,1.5,0,0,1,0-1.662L13.9,5.456a1.5,1.5,0,0,0,0-1.662L13.1,2.706a1.5,1.5,0,0,1,0-1.662L13.5.5" style="fill:none;stroke:#949494;stroke-linecap:round;stroke-linejoin:round"/><path d="M7.5,11.5l.4-.544a1.5,1.5,0,0,0,0-1.662L7.1,8.206a1.5,1.5,0,0,1,0-1.662L7.9,5.456a1.5,1.5,0,0,0,0-1.662L7.1,2.706a1.5,1.5,0,0,1,0-1.662L7.5.5" style="fill:none;stroke:#949494;stroke-linecap:round;stroke-linejoin:round"/><path d="M1.5,11.5l.4-.544a1.5,1.5,0,0,0,0-1.662L1.1,8.206a1.5,1.5,0,0,1,0-1.662L1.9,5.456a1.5,1.5,0,0,0,0-1.662L1.1,2.706a1.5,1.5,0,0,1,0-1.662L1.5.5" style="fill:none;stroke:#949494;stroke-linecap:round;stroke-linejoin:round"/></svg>