<svg width="39" height="22" viewBox="0 0 39 22" fill="none" xmlns="http://www.w3.org/2000/svg">
<path fill-rule="evenodd" clip-rule="evenodd" d="M22.026 4.28516H10.9492C10.6731 4.28516 10.4492 4.50901 10.4492 4.78515V14.6338C10.4492 14.91 10.6731 15.1338 10.9492 15.1338H22.026C22.3022 15.1338 22.526 14.91 22.526 14.6338V4.78516C22.526 4.50901 22.3022 4.28516 22.026 4.28516ZM10.9492 2.78516C9.84465 2.78516 8.94922 3.68058 8.94922 4.78515V14.6338C8.94922 15.7384 9.84465 16.6338 10.9492 16.6338H22.026C23.1306 16.6338 24.026 15.7384 24.026 14.6338V4.78516C24.026 3.68059 23.1306 2.78516 22.026 2.78516H10.9492Z" fill="#323A3E"/>
<path fill-rule="evenodd" clip-rule="evenodd" d="M13.3703 15.5789C13.727 15.7896 13.8454 16.2494 13.6347 16.6061L11.8686 19.5968C11.6579 19.9535 11.1981 20.0719 10.8414 19.8613C10.4847 19.6506 10.3664 19.1908 10.577 18.8341L12.3431 15.8434C12.5538 15.4867 13.0136 15.3683 13.3703 15.5789Z" fill="#323A3E"/>
<path fill-rule="evenodd" clip-rule="evenodd" d="M19.9852 15.5789C19.6285 15.7896 19.5101 16.2494 19.7207 16.6061L21.4869 19.5968C21.6975 19.9535 22.1574 20.0719 22.5141 19.8613C22.8707 19.6506 22.9891 19.1908 22.7785 18.8341L21.0123 15.8434C20.8017 15.4867 20.3418 15.3683 19.9852 15.5789Z" fill="#323A3E"/>
<path d="M23.6173 10.4732C23.1432 10.0737 23.1432 9.34334 23.6173 8.94379L28.001 5.24991C28.6513 4.70193 29.6454 5.16422 29.6454 6.01462L29.6454 13.4024C29.6454 14.2528 28.6513 14.7151 28.001 14.1671L23.6173 10.4732Z" fill="#F94035"/>
<path fill-rule="evenodd" clip-rule="evenodd" d="M25.0377 9.7085L28.1454 12.3272L28.1454 7.08978L25.0377 9.7085ZM23.6173 8.94379C23.1432 9.34334 23.1432 10.0737 23.6173 10.4732L28.001 14.1671C28.6513 14.7151 29.6454 14.2528 29.6454 13.4024L29.6454 6.01462C29.6454 5.16422 28.6513 4.70193 28.001 5.24991L23.6173 8.94379Z" fill="#323A3E"/>
<path fill-rule="evenodd" clip-rule="evenodd" d="M12.1016 12.9961C12.1016 12.5819 12.4373 12.2461 12.8516 12.2461H16.7826C17.1968 12.2461 17.5326 12.5819 17.5326 12.9961C17.5326 13.4103 17.1968 13.7461 16.7826 13.7461H12.8516C12.4373 13.7461 12.1016 13.4103 12.1016 12.9961Z" fill="#323A3E"/>
</svg>
