<svg width="39" height="22" viewBox="0 0 39 22" fill="none" xmlns="http://www.w3.org/2000/svg">
<path fill-rule="evenodd" clip-rule="evenodd" d="M32.5665 9.53755L29.8952 12.9023L32.5665 16.2678V9.53755ZM34.0486 8.1218C34.0486 7.16667 32.8749 6.72702 32.2905 7.46321L28.4885 12.2522C28.1953 12.6215 28.1981 13.1543 28.4952 13.5286L32.2972 18.3185C32.8861 19.0604 34.0486 18.6503 34.0486 17.7007V8.1218Z" fill="#B3B3B5"/>
<path fill-rule="evenodd" clip-rule="evenodd" d="M15.3789 7.09766V17.8828H26.8471V7.09766H15.3789ZM14.8789 5.59766C14.3266 5.59766 13.8789 6.04537 13.8789 6.59766V18.3828C13.8789 18.9351 14.3266 19.3828 14.8789 19.3828H27.3471C27.8994 19.3828 28.3471 18.9351 28.3471 18.3828V6.59766C28.3471 6.04537 27.8994 5.59766 27.3471 5.59766H14.8789Z" fill="#B3B3B5"/>
<path d="M22.1469 14.2746C22.1469 15.9861 20.7595 17.3735 19.0481 17.3735C17.3366 17.3735 15.9492 15.9861 15.9492 14.2746C15.9492 12.5632 17.3366 11.1758 19.0481 11.1758C20.7595 11.1758 22.1469 12.5632 22.1469 14.2746Z" fill="#F94035"/>
<path fill-rule="evenodd" clip-rule="evenodd" d="M19.0481 15.8735C19.9311 15.8735 20.6469 15.1576 20.6469 14.2746C20.6469 13.3916 19.9311 12.6758 19.0481 12.6758C18.165 12.6758 17.4492 13.3916 17.4492 14.2746C17.4492 15.1576 18.165 15.8735 19.0481 15.8735ZM19.0481 17.3735C20.7595 17.3735 22.1469 15.9861 22.1469 14.2746C22.1469 12.5632 20.7595 11.1758 19.0481 11.1758C17.3366 11.1758 15.9492 12.5632 15.9492 14.2746C15.9492 15.9861 17.3366 17.3735 19.0481 17.3735Z" fill="#B3B3B5"/>
<path fill-rule="evenodd" clip-rule="evenodd" d="M12.1705 2.22461C8.422 2.22461 5.38281 5.26379 5.38281 9.01228C5.38281 12.7608 8.422 15.7999 12.1705 15.7999C12.5847 15.7999 12.9205 16.1357 12.9205 16.5499C12.9205 16.9642 12.5847 17.2999 12.1705 17.2999C7.59357 17.2999 3.88281 13.5892 3.88281 9.01228C3.88281 4.43537 7.59357 0.724609 12.1705 0.724609C14.5133 0.724609 16.6302 1.69789 18.1367 3.26011C18.4242 3.55827 18.4156 4.03307 18.1175 4.3206C17.8193 4.60812 17.3445 4.5995 17.057 4.30134C15.8215 3.0201 14.0894 2.22461 12.1705 2.22461Z" fill="#B3B3B5"/>
<path fill-rule="evenodd" clip-rule="evenodd" d="M11.582 3.69922C11.9962 3.69922 12.332 4.03501 12.332 4.44922V8.81084H12.7516C13.1659 8.81084 13.5016 9.14662 13.5016 9.56084C13.5016 9.97505 13.1659 10.3108 12.7516 10.3108H11.965C11.3393 10.3108 10.832 9.80356 10.832 9.17784V4.44922C10.832 4.03501 11.1678 3.69922 11.582 3.69922Z" fill="#B3B3B5"/>
<path fill-rule="evenodd" clip-rule="evenodd" d="M17.8468 1.3125C18.261 1.3125 18.5968 1.64829 18.5968 2.0625V3.51528C18.5968 4.14384 18.1301 4.67464 17.5067 4.75502L15.8421 4.96965C15.4313 5.02262 15.0553 4.73253 15.0023 4.32172C14.9494 3.91091 15.2395 3.53494 15.6503 3.48197L17.0968 3.29545V2.0625C17.0968 1.64829 17.4326 1.3125 17.8468 1.3125Z" fill="#B3B3B5"/>
</svg>
