<svg width="1000" height="1000" viewBox="0 0 1000 1000" fill="none" xmlns="http://www.w3.org/2000/svg">
<rect width="1000" height="1000" fill="#EEEEEE"/>
<path d="M392.515 572.138V518.125H377.324V584.751H433.055L428.266 572.138H392.515Z" fill="#ACACAC"/>
<path d="M497.484 531.328H443.979L448.333 542.834H496.952C497.775 542.834 498.452 543.508 498.452 544.326V551.114H455.057C446.882 551.114 440.254 557.709 440.254 565.845V569.985C440.254 578.121 446.882 584.716 455.057 584.716H512.336V546.011C512.336 537.923 505.709 531.328 497.484 531.328ZM498.404 573.114H455.59C454.767 573.114 454.09 572.44 454.09 571.622V564.064C454.09 563.245 454.767 562.571 455.59 562.571H498.404V573.114Z" fill="#ACACAC"/>
<path d="M575.871 531.343H540.942V518.008H540.652H525.703V584.73H540.942H575.871C584.046 584.73 590.674 578.135 590.674 569.999V546.122C590.722 537.986 584.095 531.343 575.871 531.343ZM575.774 571.684C575.774 572.503 575.096 573.177 574.274 573.177H540.942V543.089H574.274C575.096 543.089 575.774 543.763 575.774 544.581V571.684Z" fill="#ACACAC"/>
<path d="M623.556 445.781H548.184V499.169H562.987V458.972C562.987 458.153 563.664 457.479 564.487 457.479H584.515C585.337 457.479 586.015 458.153 586.015 458.972V499.169H600.867V458.972C600.867 458.153 601.544 457.479 602.366 457.479H622.104C622.927 457.479 623.604 458.153 623.604 458.972V499.169H638.504V460.512C638.359 452.376 631.731 445.781 623.556 445.781Z" fill="#ACACAC"/>
<path d="M780.399 486.075C780.399 486.893 779.721 487.567 778.899 487.567H743.293C742.471 487.567 741.794 486.893 741.794 486.075V445.781H727.812V484.438C727.812 492.574 734.44 499.169 742.616 499.169H779.431C787.607 499.169 794.235 492.574 794.235 484.438V445.781H780.35V486.075H780.399Z" fill="#ACACAC"/>
<path d="M519.945 445.781H466.44L470.794 457.287H519.413C520.236 457.287 520.913 457.961 520.913 458.779V465.567H477.518C469.343 465.567 462.715 472.162 462.715 480.298V484.438C462.715 492.574 469.343 499.169 477.518 499.169H534.749V460.464C534.797 452.328 528.121 445.781 519.945 445.781ZM520.865 487.567H478.05C477.228 487.567 476.551 486.893 476.551 486.075V478.517C476.551 477.698 477.228 477.024 478.05 477.024H520.865V487.567Z" fill="#ACACAC"/>
<path d="M700.578 445.796H665.649V432.461H665.359H650.41V499.183H665.649H700.578C708.753 499.183 715.381 492.588 715.381 484.452V460.527C715.429 452.391 708.802 445.796 700.578 445.796ZM700.481 486.089C700.481 486.908 699.804 487.582 698.981 487.582H665.649V457.494H698.981C699.804 457.494 700.481 458.168 700.481 458.986V486.089Z" fill="#ACACAC"/>
<path d="M451.438 477.337C451.003 472.234 448.391 467.661 444.327 464.291C446.456 461.355 447.859 457.792 448.1 453.941C448.1 453.556 448.197 449.994 448.149 449.512C447.278 438.44 436.296 429.727 422.944 429.727C422.751 429.727 405.77 429.727 392.563 429.727V441.617L377.324 447.442V499.241H432.184C432.184 499.241 433.103 499.193 433.49 499.193C443.118 498.567 450.81 490.769 451.438 480.996C451.487 480.515 451.438 477.819 451.438 477.337ZM392.515 441.569H424.831C425.798 441.569 426.718 441.762 427.54 442.147C430.588 443.35 432.765 446.335 432.765 449.801C432.765 449.801 432.716 450.956 432.571 451.534C432.136 454.182 430.346 456.3 427.975 457.263C426.911 457.744 425.75 458.033 424.492 458.033H392.515V441.569ZM426.959 487.591H392.515V469.827H426.959C431.894 469.827 435.861 473.775 435.861 478.685C435.861 483.644 431.894 487.591 426.959 487.591Z" fill="#ACACAC"/>
<path d="M392.515 429.667V415.273L377.324 421.098V435.492L392.515 429.667Z" fill="#ACACAC"/>
<path d="M275.957 478.516V584.761H336.719V502.297L275.957 478.516Z" fill="#ACACAC"/>
<path d="M275.957 415.195V468.342L336.719 492.172V415.195H275.957Z" fill="#ACACAC"/>
<path d="M205.762 521.489V415.195H266.524V497.66L205.762 521.489Z" fill="#ACACAC"/>
<path d="M205.762 584.741V531.642L266.524 507.812V584.741H205.762Z" fill="#ACACAC"/>
</svg>
