<svg width="17" height="17" viewBox="0 0 17 17" fill="none" xmlns="http://www.w3.org/2000/svg">
<path d="M14.4559 6.71484L15.5204 7.32294C15.7843 7.47369 16 7.84901 16 8.15767V10.8741C16 11.1828 15.7853 11.5612 15.5234 11.715L8.43679 15.8722C8.17492 16.0261 7.74548 16.0281 7.48161 15.8774L1.4786 12.4369C1.21472 12.2862 1 11.9098 1 11.6012V8.91036C1 8.6017 1.21472 8.22433 1.47659 8.07153L2.26321 7.61315" stroke="#262E30" stroke-miterlimit="10" stroke-linecap="round"/>
<path d="M1.68555 8.71094L3.83772 9.96918C4.09959 10.122 4.31431 10.5004 4.31531 10.809L4.31933 13.3266" stroke="#262E30" stroke-miterlimit="10" stroke-linecap="round"/>
<path d="M5.22266 10.7012L7.37483 11.9594C7.6367 12.1122 7.85142 12.4906 7.85242 12.7993L7.85644 15.3168" stroke="#262E30" stroke-miterlimit="10" stroke-linecap="round"/>
<path d="M3.2912 9.62785C3.02532 9.48121 2.80859 9.10794 2.80859 8.79928V6.10846C2.80859 5.79979 3.02331 5.42242 3.28518 5.26963L10.4069 1.11855C10.6688 0.965754 11.1012 0.959601 11.3671 1.10624L13.7059 2.39012C13.9718 2.53574 14.1895 2.90798 14.1895 3.21665V5.9331C14.1895 6.24177 13.9748 6.62017 13.7129 6.77399L6.62732 10.9312C6.36545 11.085 5.93401 11.0902 5.66813 10.9435L3.2912 9.62785Z" stroke="#262E30" stroke-miterlimit="10" stroke-linecap="round"/>
<path d="M3.49316 5.90918L5.64534 7.16742C5.90721 7.32022 6.12193 7.69862 6.12293 8.00728L6.12694 10.5248" stroke="#262E30" stroke-miterlimit="10" stroke-linecap="round"/>
<path d="M13.5782 2.94824L6.66016 7.12804" stroke="#262E30" stroke-miterlimit="10" stroke-linecap="round"/>
<path d="M15.2286 7.83984L8.31055 12.0196" stroke="#262E30" stroke-miterlimit="10" stroke-linecap="round"/>
</svg>
