<svg width="20" height="20" viewBox="0 0 20 20" fill="none" xmlns="http://www.w3.org/2000/svg">
<path d="M6 6.99279C7.20333 5.7619 8.86454 5 10.6992 5C12.5339 5 14.1951 5.7619 15.3984 6.99279" stroke="#6B6B6B" stroke-width="1.2" stroke-miterlimit="10" stroke-linecap="round"/>
<path d="M7.88477 8.92028C8.60676 8.18079 9.60224 7.72461 10.704 7.72461C11.8042 7.72461 12.8012 8.18239 13.5232 8.92028" stroke="#6B6B6B" stroke-width="1.2" stroke-miterlimit="10" stroke-linecap="round"/>
<path d="M11.8474 10.7808C11.9252 10.7027 11.9258 10.5754 11.84 10.5063C11.5292 10.2561 11.1354 10.1067 10.7055 10.1067C10.2756 10.1067 9.88181 10.2561 9.57109 10.5063C9.48522 10.5754 9.48585 10.7027 9.5637 10.7808L10.5639 11.7837C10.6421 11.8621 10.769 11.8621 10.8471 11.7837L11.8474 10.7808Z" fill="#6B6B6B"/>
<circle cx="10.3956" cy="8.39563" r="7.39563" stroke="#6B6B6B" stroke-width="1.2"/>
<path d="M13.3971 15.211L13.9167 14.911L13.6463 14.4427L13.1525 14.6631L13.3971 15.211ZM7.39062 15.2184L7.63383 14.6699L7.14071 14.4512L6.871 14.9184L7.39062 15.2184ZM5.39062 18.6825L4.87101 18.3825L4.35139 19.2825H5.39062V18.6825ZM15.4013 18.6825V19.2825H16.4406L15.9209 18.3825L15.4013 18.6825ZM13.1525 14.6631C12.3081 15.0401 11.3721 15.2499 10.3855 15.2499V16.4499C11.5439 16.4499 12.6463 16.2032 13.6416 15.7589L13.1525 14.6631ZM10.3855 15.2499C9.40489 15.2499 8.47427 15.0426 7.63383 14.6699L7.1474 15.7669C8.13806 16.2062 9.23413 16.4499 10.3855 16.4499V15.2499ZM5.91024 18.9825L7.91023 15.5184L6.871 14.9184L4.87101 18.3825L5.91024 18.9825ZM15.4013 18.0825H5.39062V19.2825H15.4013V18.0825ZM12.8774 15.511L14.8817 18.9825L15.9209 18.3825L13.9167 14.911L12.8774 15.511Z" fill="#6B6B6B"/>
<line x1="4.37637" y1="18.7403" x2="16.1394" y2="18.7403" stroke="#6B6B6B" stroke-width="1.2" stroke-linecap="round"/>
</svg>
