<svg width="36" height="55" xmlns="http://www.w3.org/2000/svg" xml:space="preserve" version="1.1">

 <g>
  <title>Layer 1</title>
  <path id="svg_1" fill="#FFFFFF" d="m-1.18502,-0.17467l0,55l38,0l0,-55l-38,0zm19.6,42.1c-6.8,0 -12.3,-5.5 -12.3,-12.3c0,-6.8 5.5,-12.3 12.3,-12.3c6.8,0 12.3,5.5 12.3,12.3c0,6.7 -5.5,12.3 -12.3,12.3z" class="st0"/>
  <path id="svg_2" fill="#ACACAC" d="m25.81498,7.52533l-15.7,0c-5.7,0 -10.4,4.6 -10.4,10.4l0,33.1l36.5,0l0,-33.1c0,-5.7 -4.6,-10.4 -10.4,-10.4zm-7.8,29.6c-4.2,0 -7.6,-3.4 -7.6,-7.6s3.4,-7.6 7.6,-7.6s7.6,3.4 7.6,7.6c0,4.2 -3.4,7.6 -7.6,7.6z" class="st1"/>
  <path id="svg_3" fill="#C0C0C0" d="m24.31498,11.22533l-12.7,0c-4.3,0 -7.8,3.5 -7.8,7.8l0,27.8l28.2,0l0,-27.8c0.1,-4.3 -3.4,-7.8 -7.7,-7.8zm-6.3,25.9c-4.2,0 -7.6,-3.4 -7.6,-7.6s3.4,-7.6 7.6,-7.6s7.6,3.4 7.6,7.6c0,4.2 -3.4,7.6 -7.6,7.6z" class="st2"/>
  <g id="svg_4">
   <path id="svg_5" fill="#818181" d="m18.01498,21.92533l0.4,-2.8l-0.9,0l0.4,2.8c0,0 0,0 0.1,0l0,0z" class="st3"/>
   <path id="svg_6" fill="#818181" d="m16.61498,19.22533l-0.9,0.2l0.8,2.7l0.1,0l0,-2.9z" class="st3"/>
   <path id="svg_7" fill="#818181" d="m14.81498,19.62533l-0.8,0.3l1.3,2.5c0,0 0.1,0 0.1,-0.1l-0.6,-2.7z" class="st3"/>
   <path id="svg_8" fill="#818181" d="m13.11498,20.32533l-0.8,0.4l1.7,2.2l0.1,-0.1l-1,-2.5z" class="st3"/>
   <path id="svg_9" fill="#818181" d="m11.61498,21.32533l-0.7,0.5l2.1,1.9l0.1,-0.1l-1.5,-2.3z" class="st3"/>
   <path id="svg_10" fill="#818181" d="m10.31498,22.52533l-0.6,0.7l2.4,1.5l0.1,-0.1l-1.9,-2.1z" class="st3"/>
   <path id="svg_11" fill="#818181" d="m9.21498,23.92533l-0.4,0.8l2.6,1.1l0.1,-0.1l-2.3,-1.8z" class="st3"/>
   <path id="svg_12" fill="#818181" d="m8.31498,25.52533l-0.3,0.8l2.7,0.6c0,0 0,-0.1 0.1,-0.1l-2.5,-1.3z" class="st3"/>
   <path id="svg_13" fill="#818181" d="m7.81498,27.32533l-0.2,0.9l2.8,0.1l0,-0.1l-2.6,-0.9z" class="st3"/>
   <path id="svg_14" fill="#818181" d="m10.31498,29.42533l-2.8,-0.4l0,0.9l2.8,-0.4c0,0.1 0,0 0,-0.1c0,0.1 0,0.1 0,0z" class="st3"/>
   <path id="svg_15" fill="#818181" d="m7.61498,30.92533l0.2,0.9l2.7,-0.8l0,-0.1l-2.9,0z" class="st3"/>
   <path id="svg_16" fill="#818181" d="m8.01498,32.72533l0.3,0.8l2.5,-1.3c0,0 0,-0.1 -0.1,-0.1l-2.7,0.6z" class="st3"/>
   <path id="svg_17" fill="#818181" d="m8.71498,34.32533l0.4,0.8l2.2,-1.7l-0.1,-0.1l-2.5,1z" class="st3"/>
   <path id="svg_18" fill="#818181" d="m9.71498,35.92533l0.6,0.7l1.9,-2.1l-0.1,-0.1l-2.4,1.5z" class="st3"/>
   <path id="svg_19" fill="#818181" d="m10.91498,37.22533l0.7,0.6l1.5,-2.4l-0.1,-0.1l-2.1,1.9z" class="st3"/>
   <path id="svg_20" fill="#818181" d="m12.41498,38.32533l0.8,0.4l1.1,-2.6l-0.1,-0.1l-1.8,2.3z" class="st3"/>
   <path id="svg_21" fill="#818181" d="m14.01498,39.12533l0.8,0.3l0.6,-2.7c0,0 -0.1,0 -0.1,-0.1l-1.3,2.5z" class="st3"/>
   <path id="svg_22" fill="#818181" d="m15.71498,39.72533l0.9,0.2l0.1,-2.8l-0.1,0l-0.9,2.6z" class="st3"/>
   <path id="svg_23" fill="#818181" d="m17.91498,37.12533l-0.4,2.8l0.9,0l-0.4,-2.8c0,0 0,0 -0.1,0l0,0z" class="st3"/>
   <path id="svg_24" fill="#818181" d="m19.31498,39.82533l0.9,-0.2l-0.8,-2.7l-0.1,0l0,2.9z" class="st3"/>
   <path id="svg_25" fill="#818181" d="m21.11498,39.42533l0.8,-0.3l-1.3,-2.5c0,0 -0.1,0 -0.1,0.1l0.6,2.7z" class="st3"/>
   <path id="svg_26" fill="#818181" d="m22.81498,38.72533l0.8,-0.4l-1.8,-2.2l-0.1,0.1l1.1,2.5z" class="st3"/>
   <path id="svg_27" fill="#818181" d="m24.31498,37.82533l0.7,-0.6l-2.1,-1.9l-0.1,0.1l1.5,2.4z" class="st3"/>
   <path id="svg_28" fill="#818181" d="m25.61498,36.52533l0.6,-0.7l-2.4,-1.4l-0.1,0.1l1.9,2z" class="st3"/>
   <path id="svg_29" fill="#818181" d="m26.71498,35.12533l0.4,-0.8l-2.6,-1.1l-0.1,0.1l2.3,1.8z" class="st3"/>
   <path id="svg_30" fill="#818181" d="m27.61498,33.52533l0.3,-0.8l-2.7,-0.6c0,0 0,0.1 -0.1,0.1l2.5,1.3z" class="st3"/>
   <path id="svg_31" fill="#818181" d="m28.11498,31.82533l0.2,-0.9l-2.8,-0.1l0,0.1l2.6,0.9z" class="st3"/>
   <path id="svg_32" fill="#818181" d="m25.61498,29.62533l2.8,0.4l0,-0.9l-2.8,0.4c0,0 0,0 0,0.1c0,-0.1 0,0 0,0z" class="st3"/>
   <path id="svg_33" fill="#818181" d="m28.31498,28.12533l-0.2,-0.9l-2.7,0.8l0,0.1l2.9,0z" class="st3"/>
   <path id="svg_34" fill="#818181" d="m27.91498,26.42533l-0.3,-0.8l-2.5,1.2c0,0 0,0.1 0.1,0.1l2.7,-0.5z" class="st3"/>
   <path id="svg_35" fill="#818181" d="m27.21498,24.72533l-0.4,-0.8l-2.2,1.7l0.1,0.1l2.5,-1z" class="st3"/>
   <path id="svg_36" fill="#818181" d="m26.21498,23.22533l-0.6,-0.7l-1.9,2.1l0.1,0.1l2.4,-1.5z" class="st3"/>
   <path id="svg_37" fill="#818181" d="m25.01498,21.82533l-0.7,-0.6l-1.5,2.4l0.1,0.1l2.1,-1.9z" class="st3"/>
   <path id="svg_38" fill="#818181" d="m23.51498,20.72533l-0.7,-0.4l-1.1,2.6l0.1,0.1l1.7,-2.3z" class="st3"/>
   <path id="svg_39" fill="#818181" d="m21.91498,19.92533l-0.8,-0.3l-0.6,2.7c0,0 0.1,0 0.1,0.1l1.3,-2.5z" class="st3"/>
   <path id="svg_40" fill="#818181" d="m20.21498,19.32533l-0.9,-0.2l-0.1,2.8l0.1,0l0.9,-2.6z" class="st3"/>
  </g>
  <path id="svg_41" fill="#ACACAC" d="m14.01498,51.02533l8.3,0l-0.6,2.8l-6.9,0l-0.8,-2.8z" class="st1"/>
  <path id="svg_42" fill="#D0D0D0" d="m16.81498,53.82533l2.3,0l-0.2,0.9l-1.9,0l-0.2,-0.9z" class="st4"/>
  <path id="svg_43" fill="#BBBBBB" d="m-0.28502,45.92533l7.9,0l0,7.4l-4,0l-3.9,-1.9c0,0 0,-5.5 0,-5.5z" class="st5"/>
  <path id="svg_44" fill="#BBBBBB" d="m36.21498,45.92533l-7.9,0l0,7.4l3.9,0l3.9,-1.9l0.1,-5.5l0,0z" class="st5"/>
  <path id="svg_45" fill="#CFCFCF" d="m3.81498,45.92533l28.2,0l0,5.5l-28.2,0l0,-5.5z" class="st6"/>
  <path id="svg_46" fill="#DDDDDD" d="m3.81498,47.32533l28.2,0l0,4.2l-28.2,0l0,-4.2z" class="st7"/>
  <path id="svg_47" fill="#8C8C8C" d="m22.81498,8.22533c0,0.4 -2.2,0.7 -4.9,0.7s-4.9,-0.3 -4.9,-0.7c0,-0.4 2.2,-0.7 4.9,-0.7s4.9,0.3 4.9,0.7z" class="st8"/>
  <path id="svg_48" fill="#C0C0C0" clip-rule="evenodd" fill-rule="evenodd" d="m15.25297,0.12533c-0.6,0 -1,0.4 -1,1l0,5.9c0,0.3 0,0.9 0,1c0,0.3 1.7,0.5 3.7,0.5s3.7,-0.2 3.7,-0.5c0,-0.1 0,-0.7 0,-1l0,-5.9c0,-0.6 -0.4,-1 -1,-1c0,0 -5.4,0 -5.4,0z" class="st9"/>
  <path id="svg_49" fill="#D2D2D2" d="m15.77729,2.52533c0,-0.6 0.4,-1 1,-1l2.5,0c0.6,0 1,0.4 1,1l0,3.3c0,0.6 -0.4,1 -1,1l-2.5,0c-0.6,0 -1,-0.4 -1,-1l0,-3.3z" class="st10"/>
  <path id="svg_50" d="m-11.10943,16.06187l0.56913,0l0.17587,-0.54067l0.17587,0.54067l0.56913,0l-0.46044,0.33415l0.17588,0.54067l-0.46044,-0.33416l-0.46044,0.33416l0.17588,-0.54067l-0.46044,-0.33415z" fill="#D2D2D2"/>
 </g>
</svg>