<svg width="19" height="18" viewBox="0 0 19 18" fill="none" xmlns="http://www.w3.org/2000/svg">
<path d="M11.6444 8.72819C12.3737 7.93152 12.8358 6.88333 12.8815 5.7196C12.9537 3.86391 11.9465 2.21641 10.4205 1.38122C10.2905 1.31022 10.1557 1.24523 10.0186 1.18506C9.74417 1.07796 9.44933 1.01417 9.13884 1.00214C7.64057 0.943171 6.37816 2.1105 6.3204 3.60878C6.2867 4.48608 6.67301 5.28155 7.29879 5.80264C7.34813 5.83754 7.39507 5.87485 7.442 5.91336C7.92097 6.31169 8.25913 6.87129 8.37587 7.5043C8.67793 7.40923 9.00045 7.3635 9.335 7.37673C10.317 7.41765 11.1642 7.95077 11.6444 8.72819Z" stroke="#00AE42" stroke-miterlimit="10" stroke-linecap="round"/>
<path d="M6.3842 10.1074C6.39743 9.77525 6.46723 9.45995 6.58276 9.16752C5.57669 8.98339 4.50443 9.12179 3.52844 9.63445C1.88455 10.4997 0.961517 12.1954 1.00123 13.9343C1.00484 14.0823 1.01567 14.2316 1.03252 14.3808C1.07705 14.6708 1.16971 14.9597 1.31412 15.234C2.01212 16.5602 3.65481 17.0705 4.98099 16.3713C5.75721 15.9621 6.25422 15.2304 6.39142 14.4265C6.39743 14.3664 6.40586 14.3062 6.41669 14.2472C6.53583 13.5564 6.91972 12.9174 7.52024 12.4926C6.79938 11.9523 6.34689 11.0774 6.3842 10.1074Z" stroke="#00AE42" stroke-miterlimit="10" stroke-linecap="round"/>
<path d="M16.7327 11.0132C15.9902 10.545 15.1081 10.4813 14.3427 10.7641C14.2874 10.7881 14.232 10.811 14.1754 10.8327C13.4895 11.0854 12.7097 11.0601 12.0213 10.7147C11.8083 11.9254 10.8347 12.8592 9.62646 13.0313C9.94778 14.0747 10.6277 15.0134 11.6242 15.6416C13.1959 16.632 15.1262 16.5839 16.6124 15.6801C16.7388 15.6031 16.8627 15.5188 16.9831 15.4298C17.2129 15.2457 17.4163 15.0218 17.5812 14.7595C18.3815 13.4898 18.0012 11.8135 16.7327 11.0132Z" stroke="#00AE42" stroke-miterlimit="10" stroke-linecap="round"/>
<path d="M9.20391 11.3717C9.76553 11.3717 10.2208 10.9164 10.2208 10.3548C10.2208 9.79317 9.76553 9.33789 9.20391 9.33789C8.64229 9.33789 8.18701 9.79317 8.18701 10.3548C8.18701 10.9164 8.64229 11.3717 9.20391 11.3717Z" stroke="#00AE42" stroke-miterlimit="10" stroke-linecap="round"/>
</svg>
