<svg width="39" height="22" viewBox="0 0 39 22" fill="none" xmlns="http://www.w3.org/2000/svg">
<path fill-rule="evenodd" clip-rule="evenodd" d="M19.1363 2.43047C15.3831 2.43047 12.3406 5.47297 12.3406 9.22609C12.3406 12.9792 15.3831 16.0217 19.1363 16.0217C22.8894 16.0217 25.9319 12.9792 25.9319 9.22609C25.9319 5.47297 22.8894 2.43047 19.1363 2.43047ZM11.1406 9.22609C11.1406 4.81023 14.7204 1.23047 19.1363 1.23047C23.5521 1.23047 27.1319 4.81023 27.1319 9.22609C27.1319 13.642 23.5521 17.2217 19.1363 17.2217C14.7204 17.2217 11.1406 13.642 11.1406 9.22609Z" fill="#B3B3B5"/>
<path fill-rule="evenodd" clip-rule="evenodd" d="M19.1343 7.75469C17.5051 7.75469 16.1844 9.0754 16.1844 10.7046C16.1844 12.3338 17.5051 13.6545 19.1343 13.6545C20.7635 13.6545 22.0842 12.3338 22.0842 10.7046C22.0842 9.0754 20.7635 7.75469 19.1343 7.75469ZM14.9844 10.7046C14.9844 8.41266 16.8423 6.55469 19.1343 6.55469C21.4262 6.55469 23.2842 8.41266 23.2842 10.7046C23.2842 12.9965 21.4262 14.8545 19.1343 14.8545C16.8423 14.8545 14.9844 12.9965 14.9844 10.7046Z" fill="#B3B3B5"/>
<path fill-rule="evenodd" clip-rule="evenodd" d="M22.3847 15.2734L25.179 20.1132H13.0898L15.8792 15.282L16.3723 15.5007C17.2127 15.8733 18.1433 16.0807 19.124 16.0807C20.1106 16.0807 21.0465 15.8708 21.8909 15.4939L22.3847 15.2734ZM21.877 16.7939C21.018 17.1089 20.0905 17.2807 19.124 17.2807C18.1639 17.2807 17.2423 17.1112 16.3883 16.8002L15.1683 18.9132H23.1005L21.877 16.7939Z" fill="#B3B3B5"/>
<path fill-rule="evenodd" clip-rule="evenodd" d="M12.5156 19.5707C12.5156 19.2393 12.7843 18.9707 13.1156 18.9707H24.8786C25.21 18.9707 25.4786 19.2393 25.4786 19.5707C25.4786 19.9021 25.21 20.1707 24.8786 20.1707H13.1156C12.7843 20.1707 12.5156 19.9021 12.5156 19.5707Z" fill="#B3B3B5"/>
</svg>
