<svg width="16" height="16" viewBox="0 0 16 16" fill="none" xmlns="http://www.w3.org/2000/svg">
<path d="M2 14.1996C2 13.8682 2.26863 13.5996 2.6 13.5996H13.4C13.7314 13.5996 14 13.8682 14 14.1996C14 14.531 13.7314 14.7996 13.4 14.7996H2.6C2.26863 14.7996 2 14.531 2 14.1996Z" fill="#ACACAC"/>
<path fill-rule="evenodd" clip-rule="evenodd" d="M3.75777 4.99333L7.57614 1.17495C7.81046 0.940639 8.19036 0.940639 8.42467 1.17495L12.243 4.99333C12.4774 5.22765 12.4774 5.60754 12.243 5.84186C12.0087 6.07617 11.6288 6.07617 11.3945 5.84186L8.60041 3.04775V10.5992C8.60041 10.9306 8.33178 11.1992 8.00041 11.1992C7.66904 11.1992 7.40041 10.9306 7.40041 10.5992V3.04775L4.6063 5.84186C4.37198 6.07617 3.99208 6.07617 3.75777 5.84186C3.52345 5.60754 3.52345 5.22765 3.75777 4.99333Z" fill="#ACACAC"/>
</svg>
