<svg width="26" height="26" viewBox="0 0 26 26" fill="none" xmlns="http://www.w3.org/2000/svg">
<path d="M22.4167 5.60485H19.7543V3.44508C19.7543 2.46245 19.257 1.44446 18.28 1.44446H7.63816C6.66114 1.44446 5.58113 2.46245 5.58113 3.44508V5.60232H3.49898C2.52195 5.60232 1.44446 6.62284 1.44446 7.608V14.1479C1.44446 15.1305 2.51944 15.7014 3.49898 15.7014H5.57862V22.3677C5.57862 23.3528 6.65862 23.9136 7.63565 23.9136H18.2775C19.2545 23.9136 19.7518 23.3528 19.7518 22.3677V15.6989H22.4167C23.3962 15.6989 23.9136 15.1305 23.9136 14.1454V7.608C23.9136 6.62537 23.3962 5.60485 22.4167 5.60485ZM6.81937 3.45013C6.81937 3.1268 7.3644 2.62159 7.6884 2.62159H18.2222C18.5462 2.62159 18.5136 3.1268 18.5136 3.45013V5.58717H6.81937V3.45013ZM18.5136 22.0974C18.5136 22.4232 18.2599 22.7011 17.9359 22.7011H7.40207C7.07807 22.7011 6.81937 22.4207 6.81937 22.0974V13.3699C6.81937 13.044 7.07807 12.7813 7.40207 12.7813H17.9384C18.2624 12.7813 18.5161 13.044 18.5161 13.3699V22.0974H18.5136ZM22.6075 14.1151C22.6075 14.4384 22.6427 14.4763 22.3212 14.4763H19.684V13.5265C19.684 12.5515 19.1917 11.536 18.2222 11.536H7.6884C6.7189 11.536 5.65146 12.5515 5.65146 13.5265V14.4763H3.59191C3.26791 14.4763 2.72791 14.4384 2.72791 14.1151V7.63831C2.72791 7.31498 3.26791 6.82998 3.59191 6.82998H22.3212C22.6427 6.82998 22.6075 7.31245 22.6075 7.63831V14.1151V14.1151ZM16.8659 15.3655H8.59008C8.43435 15.3629 8.28366 15.421 8.17314 15.5322C8.06263 15.6408 7.99984 15.7898 7.99984 15.9465C7.99984 16.2774 8.26356 16.5275 8.59008 16.5275H16.8684C17.195 16.5275 17.4587 16.2748 17.4587 15.9465C17.4587 15.7898 17.3959 15.6408 17.2854 15.5322C17.1724 15.4236 17.0217 15.3629 16.8659 15.3655ZM16.8659 18.8034H8.59008C8.3791 18.8034 8.1857 18.9171 8.08021 19.099C7.97472 19.2834 7.97472 19.5082 8.08021 19.6926C8.1857 19.877 8.3791 19.9881 8.59008 19.9881H16.8684C17.0794 19.9881 17.2728 19.8745 17.3783 19.6926C17.4838 19.5082 17.4838 19.2834 17.3783 19.099C17.2728 18.9146 17.0769 18.8034 16.8659 18.8034ZM19.581 8.2673C19.581 8.74977 19.9703 9.14131 20.45 9.14131C20.9298 9.14131 21.3191 8.74977 21.3191 8.2673C21.3191 7.78482 20.9298 7.39329 20.45 7.39329C19.9703 7.39329 19.581 7.78482 19.581 8.2673Z" fill="#262E30"/>
</svg>
