<svg xmlns="http://www.w3.org/2000/svg" width="16" height="16" viewBox="0 0 16 16"><path d="M12.562,2.5A6.162,6.162,0,0,0,7.438.5c-.86,0-1.771.84-2.687,1.75L2.5,1.5v2l2.251-.75c.916.91,1.827,1.75,2.687,1.75A6.162,6.162,0,0,0,12.562,2.5Z" style="fill:none;stroke:#009688;stroke-linecap:round;stroke-linejoin:round"/><line x1="8.5" y1="3.5" x2="7.5" y2="4.5" style="fill:none;stroke:#009688;stroke-linecap:round;stroke-linejoin:round"/><circle cx="9.5" cy="2.5" r="0.5" style="fill:#009688"/><line x1="11.5" y1="2.5" x2="12.5" y2="2.5" style="fill:none;stroke:#009688;stroke-linecap:round;stroke-miterlimit:10"/><path d="M13.32,14.5H1.68a1,1,0,0,1-.986-1.164l.667-4A1,1,0,0,1,2.347,8.5H12.653a1,1,0,0,1,.986.836l.667,4A1,1,0,0,1,13.32,14.5Z" style="fill:none;stroke:#949494;stroke-linecap:round;stroke-linejoin:round"/><circle cx="7.5" cy="11.5" r="3" style="fill:none;stroke:#949494;stroke-linecap:round;stroke-linejoin:round"/><line x1="6.5" y1="5.5" x2="6.5" y2="8.5" style="fill:none;stroke:#949494;stroke-linecap:round;stroke-linejoin:round"/><line x1="8.5" y1="5.5" x2="8.5" y2="8.5" style="fill:none;stroke:#949494;stroke-linecap:round;stroke-linejoin:round"/><line x1="7.5" y1="11.5" x2="8.5" y2="10.5" style="fill:none;stroke:#949494;stroke-linecap:round;stroke-linejoin:round"/><path d="M14.5,3.5v1a1,1,0,0,1-1,1H1.5a1,1,0,0,1-1-1v-1" style="fill:none;stroke:#949494;stroke-linecap:round;stroke-linejoin:round"/></svg>