<svg width="16" height="17" viewBox="0 0 16 17" fill="none" xmlns="http://www.w3.org/2000/svg">
<path d="M12.4759 7.06822H13.7562L8.74263 11.2268C8.514 11.416 8.10431 11.416 7.87554 11.227C7.87545 11.2269 7.87536 11.2268 7.87528 11.2268L2.86167 7.06822H4.142C4.54877 7.06822 4.93613 6.94338 5.23267 6.71974C5.52893 6.49633 5.76004 6.14967 5.76004 5.72506V1.84316C5.76004 1.80403 5.78049 1.72911 5.88953 1.64688C5.99827 1.56488 6.16993 1.5 6.37809 1.5H10.2398C10.448 1.5 10.6196 1.56488 10.7284 1.64688C10.8374 1.72911 10.8579 1.80403 10.8579 1.84316V5.72506C10.8579 6.14967 11.089 6.49633 11.3852 6.71974C11.6818 6.94338 12.0691 7.06822 12.4759 7.06822ZM2.36979 7.09452C2.36773 7.09555 2.36658 7.096 2.36652 7.09597C2.36645 7.09594 2.36748 7.09542 2.36979 7.09452ZM14.2475 7.09456C14.2498 7.09545 14.2508 7.09596 14.2507 7.096C14.2507 7.09603 14.2495 7.09558 14.2475 7.09456Z" stroke="#6B6B6B"/>
<path d="M3.80389 10.668C3.58699 10.7742 3.42822 10.9007 3.42822 11.0895C3.42822 11.673 4.95994 11.673 4.95994 12.2548C4.95994 12.8383 3.42822 12.8383 3.42822 13.42C3.42822 14.0035 4.95994 14.0035 4.95994 14.587C4.95994 15.1704 3.42822 15.1704 3.42822 15.7539" stroke="#6B6B6B" stroke-miterlimit="10" stroke-linecap="round"/>
<path d="M8.63467 14.1348C8.88288 14.2477 9.07518 14.381 9.07518 14.5867C9.07518 15.1702 7.54346 15.1702 7.54346 15.7536" stroke="#6B6B6B" stroke-miterlimit="10" stroke-linecap="round"/>
<path d="M11.893 11.4316C12.3223 11.7065 13.1899 11.8161 13.1899 12.2546C13.1899 12.838 11.6582 12.838 11.6582 13.4198C11.6582 14.0033 13.1899 14.0033 13.1899 14.5867C13.1899 15.1702 11.6582 15.1702 11.6582 15.7537" stroke="#6B6B6B" stroke-miterlimit="10" stroke-linecap="round"/>
</svg>
