<svg xmlns="http://www.w3.org/2000/svg" width="38" height="22" viewBox="0 0 38 22"><circle cx="16.5" cy="9.5" r="7" style="fill:none;stroke:#949494;stroke-linecap:round;stroke-linejoin:round"/><circle cx="16.5" cy="9.5" r="4" style="fill:none;stroke:#949494;stroke-linecap:round;stroke-linejoin:round"/><path d="M14.768,8.5a2.006,2.006,0,0,1,.718-.723" style="fill:none;stroke:#949494;stroke-linecap:round;stroke-linejoin:round"/><path d="M18.5,9.5a2,2,0,0,1-2,2" style="fill:none;stroke:#949494;stroke-linecap:round;stroke-linejoin:round"/><polyline points="20.5 15.5 21.5 18.5 11.5 18.5 12.5 15.5" style="fill:none;stroke:#949494;stroke-linecap:round;stroke-linejoin:round"/><path d="M28.5,11.5V8A1.5,1.5,0,0,0,27,6.5h0A1.5,1.5,0,0,0,25.5,8v8.5a2,2,0,0,1-2,2h-2" style="fill:none;stroke:#949494;stroke-linecap:round;stroke-linejoin:round"/></svg>