<svg width="18" height="18" xmlns="http://www.w3.org/2000/svg" fill="none">

 <g>
  <title>Layer 1</title>
  <path id="svg_1" fill="white" d="m15.5192,3.88027l-1.8431,0l0,-1.49522c0,-0.68028 -0.3443,-1.38505 -1.0207,-1.38505l-7.36745,0c-0.6764,0 -1.4241,0.70477 -1.4241,1.38505l0,1.49347l-1.44149,0c-0.6764,0 -1.42236,0.70652 -1.42236,1.38855l0,4.52763c0,0.6803 0.74422,1.0755 1.42236,1.0755l1.43975,0l0,4.6151c0,0.682 0.7477,1.0703 1.4241,1.0703l7.36739,0c0.6764,0 1.0207,-0.3883 1.0207,-1.0703l0,-4.6168l1.8449,0c0.6782,0 1.0364,-0.3935 1.0364,-1.07554l0,-4.52589c0,-0.68029 -0.3582,-1.3868 -1.0364,-1.3868zm-10.79811,-1.49172c0,-0.22385 0.37733,-0.57361 0.60164,-0.57361l7.29267,0c0.2243,0 0.2017,0.34976 0.2017,0.57361l0,1.47948l-8.09601,0l0,-1.47948zm8.09601,12.90965c0,0.2256 -0.1756,0.4179 -0.4,0.4179l-7.2926,0c-0.22431,0 -0.40341,-0.1941 -0.40341,-0.4179l0,-6.04213c0,-0.22559 0.1791,-0.40746 0.40341,-0.40746l7.2944,0c0.2243,0 0.3999,0.18187 0.3999,0.40746l0,6.04213l-0.0017,0zm2.8343,-5.52623c0,0.22385 0.0243,0.25003 -0.1983,0.25003l-1.8257,0l0,-0.6575c0,-0.67504 -0.3408,-1.37805 -1.012,-1.37805l-7.29267,0c-0.67119,0 -1.41019,0.70301 -1.41019,1.37805l0,0.6575l-1.42584,0c-0.22431,0 -0.59816,-0.02618 -0.59816,-0.25003l0,-4.48392c0,-0.22384 0.37385,-0.55961 0.59816,-0.55961l12.9664,0c0.2226,0 0.1983,0.33402 0.1983,0.55961l0,4.48392zm-3.975,0.86563l-5.72943,0c-0.10781,-0.0017 -0.21214,0.0385 -0.28865,0.1154c-0.07651,0.0752 -0.11998,0.1784 -0.11998,0.2868c0,0.2291 0.18258,0.4023 0.40863,0.4023l5.73113,0c0.2261,0 0.4087,-0.1749 0.4087,-0.4023c0,-0.1084 -0.0435,-0.2116 -0.12,-0.2868c-0.0783,-0.0752 -0.1826,-0.1171 -0.2904,-0.1154zm0,2.3801l-5.72943,0c-0.14607,0 -0.27996,0.0787 -0.35299,0.2046c-0.07303,0.1277 -0.07303,0.2834 0,0.411c0.07303,0.1277 0.20692,0.2046 0.35299,0.2046l5.73113,0c0.1461,0 0.28,-0.0787 0.353,-0.2046c0.0731,-0.1276 0.0731,-0.2833 0,-0.411c-0.073,-0.1276 -0.2086,-0.2046 -0.3547,-0.2046zm1.8797,-7.2942c0,0.33402 0.2695,0.60509 0.6016,0.60509c0.3321,0 0.6016,-0.27107 0.6016,-0.60509c0,-0.33402 -0.2695,-0.60508 -0.6016,-0.60508c-0.3321,0 -0.6016,0.27106 -0.6016,0.60508z"/>
 </g>
</svg>