<svg xmlns="http://www.w3.org/2000/svg" width="18" height="18" viewBox="0 0 18 18"><path d="M3.5,11.5h-1a1,1,0,0,1-1-1v-5a1,1,0,0,1,1-1h13a1,1,0,0,1,1,1v5a1,1,0,0,1-1,1h-1" style="fill:none;stroke:#009688;stroke-miterlimit:10"/><line x1="11.5" y1="13.5" x2="6.5" y2="13.5" style="fill:none;stroke:#009688;stroke-linecap:square;stroke-linejoin:round"/><line x1="11.5" y1="11.5" x2="6.5" y2="11.5" style="fill:none;stroke:#009688;stroke-linecap:square;stroke-linejoin:round"/><path d="M3.5,4.5v-2a1,1,0,0,1,1-1h9a1,1,0,0,1,1,1v2" style="fill:none;stroke:#009688;stroke-linecap:round;stroke-miterlimit:10"/><path d="M3.5,8.5h11a0,0,0,0,1,0,0v7a1,1,0,0,1-1,1h-9a1,1,0,0,1-1-1v-7A0,0,0,0,1,3.5,8.5Z" style="fill:none;stroke:#009688;stroke-miterlimit:10"/><rect x="14" y="6" width="1" height="1" style="fill:#009688"/></svg>