<svg width="20" height="20" viewBox="0 0 20 20" fill="none" xmlns="http://www.w3.org/2000/svg">
<path d="M6 6.99279C7.20333 5.7619 8.86454 5 10.6992 5C12.5339 5 14.1951 5.7619 15.3984 6.99279" stroke="#FF6F00" stroke-width="1.5" stroke-miterlimit="10" stroke-linecap="round"/>
<path d="M7.88477 8.92028C8.60676 8.18079 9.60224 7.72461 10.704 7.72461C11.8042 7.72461 12.8012 8.18239 13.5232 8.92028" stroke="#FF6F00" stroke-width="1.5" stroke-miterlimit="10" stroke-linecap="round"/>
<path d="M11.8474 10.7808C11.9252 10.7027 11.9258 10.5754 11.84 10.5063C11.5292 10.2561 11.1354 10.1067 10.7055 10.1067C10.2756 10.1067 9.88181 10.2561 9.57109 10.5063C9.48522 10.5754 9.48585 10.7027 9.5637 10.7808L10.5639 11.7837C10.6421 11.8621 10.769 11.8621 10.8471 11.7837L11.8474 10.7808Z" fill="#FF6F00"/>
<circle cx="10.3956" cy="8.39563" r="7.39563" stroke="#323A3D" stroke-width="1.5"/>
<path d="M13.3971 15.2111L14.0466 14.8361L13.7086 14.2507L13.0914 14.5262L13.3971 15.2111ZM7.39062 15.2185L7.69464 14.5328L7.07824 14.2595L6.7411 14.8435L7.39062 15.2185ZM5.39062 18.6825L4.74111 18.3075L4.09159 19.4325H5.39062V18.6825ZM15.4013 18.6825V19.4325H16.7004L16.0508 18.3075L15.4013 18.6825ZM13.0914 14.5262C12.2658 14.8947 11.3506 15.1 10.3855 15.1V16.6C11.5654 16.6 12.6886 16.3487 13.7028 15.8959L13.0914 14.5262ZM10.3855 15.1C9.42623 15.1 8.5163 14.8972 7.69464 14.5328L7.0866 15.9041C8.09603 16.3517 9.21278 16.6 10.3855 16.6V15.1ZM6.04014 19.0575L8.04014 15.5935L6.7411 14.8435L4.74111 18.3075L6.04014 19.0575ZM15.4013 17.9325H5.39062V19.4325H15.4013V17.9325ZM12.7475 15.5861L14.7518 19.0575L16.0508 18.3075L14.0466 14.8361L12.7475 15.5861Z" fill="#323A3D"/>
<line x1="4.52637" y1="18.5903" x2="15.9894" y2="18.5903" stroke="#323A3D" stroke-width="1.5" stroke-linecap="round"/>
</svg>
