<svg width="30" height="30" viewBox="0 0 30 30" fill="none" xmlns="http://www.w3.org/2000/svg">
<path d="M25.313 14.8577C25.8116 14.7499 25.9047 14.3886 25.5223 14.0519L15.1727 5.00017C14.7886 4.6651 14.161 4.66346 13.7769 4.99853L3.39301 14.0519C3.0089 14.387 3.10207 14.7482 3.60059 14.8561L4.84606 15.1242C5.34458 15.232 5.75156 15.7371 5.75156 16.247V24.6744C5.75156 25.1844 6.16836 25.6012 6.67831 25.6012H11.062C11.572 25.6012 11.9887 25.1844 11.9887 24.6744V20.6307C11.9887 20.1208 12.4055 19.704 12.9155 19.704H15.8723C16.3822 19.704 16.799 20.1208 16.799 20.6307V24.6744C16.799 25.1844 17.2158 25.6012 17.7258 25.6012H22.2369C22.7469 25.6012 23.1637 25.1844 23.1637 24.6744V16.247C23.1637 15.7371 23.5707 15.232 24.0692 15.1258L25.313 14.8577Z" fill="#eb4949" fill-opacity="0.2" stroke="#eb4949" stroke-width="0.718299" stroke-miterlimit="10" stroke-linecap="round"/>
</svg>
