<svg width="32" height="32" viewBox="0 0 32 32" fill="none" xmlns="http://www.w3.org/2000/svg">
<path d="M28.0424 15.4264C28.6059 15.3044 28.7112 14.8962 28.2789 14.5156L16.5815 4.28496C16.1473 3.90625 15.438 3.9044 15.0038 4.28311L3.26759 14.5156C2.83346 14.8943 2.93876 15.3026 3.5022 15.4245L4.90989 15.7275C5.47333 15.8494 5.93332 16.4202 5.93332 16.9966V26.5216C5.93332 27.0979 6.4044 27.569 6.98077 27.569H11.9354C12.5117 27.569 12.9828 27.0979 12.9828 26.5216V21.9512C12.9828 21.3748 13.4539 20.9038 14.0303 20.9038H17.3721C17.9485 20.9038 18.4196 21.3748 18.4196 21.9512V26.5216C18.4196 27.0979 18.8907 27.569 19.467 27.569H24.5657C25.1421 27.569 25.6132 27.0979 25.6132 26.5216V16.9966C25.6132 16.4202 26.0732 15.8494 26.6366 15.7293L28.0424 15.4264Z" fill="#eb4949" fill-opacity="0.2" stroke="#eb4949" stroke-width="0.784708" stroke-miterlimit="10" stroke-linecap="round"/>
</svg>
