<svg width="16" height="16" viewBox="0 0 16 16" fill="none" xmlns="http://www.w3.org/2000/svg">
<path d="M14 1.80039C14 2.13176 13.7314 2.40039 13.4 2.40039L2.6 2.40039C2.26863 2.40039 2 2.13176 2 1.80039V1.80039C2 1.46902 2.26863 1.20039 2.6 1.20039L13.4 1.20039C13.7314 1.20039 14 1.46902 14 1.80039V1.80039Z" fill="#323A3D"/>
<path fill-rule="evenodd" clip-rule="evenodd" d="M12.2422 11.0067L8.42386 14.825C8.18954 15.0594 7.80964 15.0594 7.57533 14.825L3.75695 11.0067C3.52264 10.7724 3.52264 10.3925 3.75695 10.1581C3.99127 9.92383 4.37116 9.92383 4.60548 10.1581L7.39959 12.9523L7.39959 5.40078C7.39959 5.06941 7.66822 4.80078 7.99959 4.80078C8.33096 4.80078 8.59959 5.06941 8.59959 5.40078L8.59959 12.9523L11.3937 10.1581C11.628 9.92383 12.0079 9.92383 12.2422 10.1581C12.4765 10.3925 12.4765 10.7724 12.2422 11.0067Z" fill="#323A3D"/>
</svg>
