<svg width="24" height="24" viewBox="0 0 24 24" fill="none" xmlns="http://www.w3.org/2000/svg">
<path d="M1.77881 9.89436C4.31032 7.42258 7.80511 5.89258 11.6648 5.89258C15.5246 5.89258 19.0194 7.42258 21.5509 9.89436" stroke="#CECECE" stroke-width="2" stroke-miterlimit="10" stroke-linecap="round"/>
<path d="M5.73389 13.7604C7.25279 12.2754 9.34704 11.3594 11.6648 11.3594C13.9794 11.3594 16.0769 12.2787 17.5958 13.7604" stroke="#CECECE" stroke-width="2" stroke-miterlimit="10" stroke-linecap="round"/>
<path d="M13.0534 18.3921C13.4648 17.9984 13.4649 17.3225 12.9447 17.0907C12.5579 16.9184 12.1267 16.8223 11.6712 16.8223C11.2156 16.8223 10.7844 16.9184 10.3976 17.0907C9.87747 17.3225 9.87755 17.9984 10.2889 18.3921L10.9797 19.0533C11.3664 19.4234 11.9759 19.4234 12.3626 19.0533L13.0534 18.3921Z" fill="#00AE42"/>
</svg>
