<svg width="20" height="21" viewBox="0 0 20 21" fill="none" xmlns="http://www.w3.org/2000/svg">
<path d="M17.4005 12.7763C17.649 12.8443 17.907 12.6982 17.9606 12.4463C18.1963 11.3405 18.1993 10.1959 17.9674 9.08583C17.7037 7.8233 17.1438 6.64152 16.3337 5.63787C15.5236 4.63422 14.4866 3.83744 13.3082 3.3132C12.1298 2.78897 10.8436 2.55228 9.55579 2.62265C8.26794 2.69302 7.01524 3.06843 5.90095 3.71795C4.78665 4.36746 3.84266 5.27248 3.14678 6.35842C2.45089 7.44436 2.02303 8.68012 1.89846 9.96387C1.78893 11.0926 1.91663 12.23 2.27134 13.3036C2.35217 13.5482 2.62452 13.6653 2.8641 13.5706V13.5706C3.10368 13.4759 3.21959 13.2053 3.14058 12.9601C2.83915 12.0245 2.73177 11.0355 2.82702 10.054C2.93731 8.91737 3.31613 7.82324 3.93226 6.86177C4.54839 5.9003 5.38418 5.09901 6.37076 4.52394C7.35733 3.94887 8.46645 3.61649 9.60669 3.55418C10.7469 3.49188 11.8857 3.70144 12.929 4.16559C13.9724 4.62974 14.8905 5.33519 15.6077 6.2238C16.3249 7.11242 16.8207 8.15875 17.0542 9.27658C17.2558 10.2419 17.2569 11.2367 17.0592 12.1995C17.0073 12.4519 17.152 12.7083 17.4005 12.7763V12.7763Z" fill="#323A3D"/>
<path d="M15.4157 8.78647C15.593 8.71313 15.6782 8.50941 15.5948 8.33658C15.1923 7.50231 14.6033 6.76987 13.8715 6.19699C13.0484 5.5526 12.0726 5.13199 11.0389 4.97602C10.0053 4.82004 8.94883 4.93399 7.9722 5.30681C7.10396 5.63825 6.32502 6.16427 5.6943 6.84264C5.56365 6.98317 5.58494 7.20296 5.73272 7.32535V7.32535C5.88051 7.44775 6.09873 7.42629 6.23043 7.28674C6.78398 6.70015 7.46373 6.2447 8.22002 5.956C9.08471 5.62591 10.0201 5.52502 10.9353 5.66312C11.8504 5.80122 12.7144 6.17362 13.4432 6.74415C14.0806 7.24316 14.5957 7.8789 14.9515 8.60271C15.0362 8.77491 15.2383 8.85981 15.4157 8.78647V8.78647Z" fill="#323A3D"/>
<path d="M13.7871 9.75159L10.6357 14.0831" stroke="#323A3D" stroke-width="1.04628" stroke-linecap="round"/>
<circle cx="10.1926" cy="14.5735" r="1.32935" fill="#323A3D"/>
</svg>
