<svg width="20" height="20" viewBox="0 0 20 20" fill="none" xmlns="http://www.w3.org/2000/svg">
<path fill-rule="evenodd" clip-rule="evenodd" d="M9.99563 2.2C6.24251 2.2 3.2 5.24251 3.2 8.99563C3.2 12.7487 6.24251 15.7913 9.99563 15.7913C13.7487 15.7913 16.7913 12.7487 16.7913 8.99563C16.7913 5.24251 13.7487 2.2 9.99563 2.2ZM2 8.99563C2 4.57976 5.57976 1 9.99563 1C14.4115 1 17.9913 4.57976 17.9913 8.99563C17.9913 13.4115 14.4115 16.9913 9.99563 16.9913C5.57976 16.9913 2 13.4115 2 8.99563Z" fill="#6B6B6B"/>
<path fill-rule="evenodd" clip-rule="evenodd" d="M9.9917 7.52459C8.36251 7.52459 7.0418 8.8453 7.0418 10.4745C7.0418 12.1037 8.36251 13.4244 9.9917 13.4244C11.6209 13.4244 12.9416 12.1037 12.9416 10.4745C12.9416 8.8453 11.6209 7.52459 9.9917 7.52459ZM5.8418 10.4745C5.8418 8.18256 7.69977 6.32458 9.9917 6.32458C12.2836 6.32458 14.1416 8.18256 14.1416 10.4745C14.1416 12.7664 12.2836 14.6244 9.9917 14.6244C7.69977 14.6244 5.8418 12.7664 5.8418 10.4745Z" fill="#6B6B6B"/>
<path fill-rule="evenodd" clip-rule="evenodd" d="M13.2461 15.0427L16.0403 19.8825H3.95117L6.74049 15.0513L7.23361 15.2699C8.07405 15.6426 9.00466 15.85 9.9853 15.85C10.9719 15.85 11.9078 15.6401 12.7523 15.2632L13.2461 15.0427ZM12.7383 16.5632C11.8794 16.8782 10.9518 17.05 9.9853 17.05C9.02525 17.05 8.10366 16.8805 7.24958 16.5695L6.02963 18.6825H13.9619L12.7383 16.5632Z" fill="#6B6B6B"/>
<path fill-rule="evenodd" clip-rule="evenodd" d="M3.37695 19.3404C3.37695 19.009 3.64558 18.7404 3.97695 18.7404L15.74 18.7404C16.0713 18.7404 16.34 19.009 16.34 19.3404C16.34 19.6717 16.0713 19.9404 15.74 19.9404L3.97695 19.9404C3.64558 19.9404 3.37695 19.6717 3.37695 19.3404Z" fill="#6B6B6B"/>
</svg>
