<svg width="48" height="96" viewBox="0 0 48 96" fill="none" xmlns="http://www.w3.org/2000/svg">
<path fill-rule="evenodd" clip-rule="evenodd" d="M30.3173 3.97868V52.786H19.0943V3.97868C19.0943 3.97863 19.0943 3.97857 19.0943 3.97852C19.0945 2.8858 21.6068 2 24.7058 2C27.8048 2 30.317 2.8858 30.3173 3.97852C30.3173 3.97857 30.3173 3.97863 30.3173 3.97868Z" fill="url(#paint0_linear_2_41)" fill-opacity="0.2"/>
<line x1="30.579" y1="3.66391" x2="30.579" y2="52.7091" stroke="url(#paint1_linear_2_41)" stroke-width="0.523139" stroke-linecap="round"/>
<line x1="18.8885" y1="3.66391" x2="18.8885" y2="52.7091" stroke="url(#paint2_linear_2_41)" stroke-width="0.523139" stroke-linecap="round"/>
<path d="M21.4326 21.6406L24.3655 24.1546C24.5615 24.3225 24.8505 24.3225 25.0465 24.1546L27.9794 21.6406" stroke="#00AE42" stroke-opacity="0.3" stroke-width="1.04628" stroke-linecap="round"/>
<path d="M21.4326 35.2012L24.3655 37.7151C24.5615 37.883 24.8505 37.883 25.0465 37.7151L27.9794 35.2012" stroke="#00AE42" stroke-opacity="0.8" stroke-width="1.04628" stroke-linecap="round"/>
<path d="M21.5264 45.0547L24.3601 47.1156C24.5436 47.249 24.7921 47.249 24.9755 47.1156L27.8093 45.0547" stroke="#00AE42" stroke-width="1.04628" stroke-linecap="round"/>
<path d="M16.2881 84.6172H32.2809L31.1386 89.1866H17.4304L16.2881 84.6172Z" fill="#ACACAC"/>
<rect x="6" y="52.502" width="36.9424" height="33.2014" rx="2.61569" fill="#D3D3D3"/>
<circle cx="24.4712" cy="68.6343" r="9.1187" fill="#AEAEAE"/>
<circle cx="24.3879" cy="68.6242" r="8.56757" fill="#E3E3E3"/>
<circle cx="24.4411" cy="68.6266" r="6.28289" fill="#F8F8F8"/>
<rect x="23.3022" y="89.1875" width="2.28469" height="3.9982" fill="#939191"/>
<defs>
<linearGradient id="paint0_linear_2_41" x1="24.7058" y1="2" x2="24.7058" y2="52.786" gradientUnits="userSpaceOnUse">
<stop stop-color="#00AE42" stop-opacity="0"/>
<stop offset="1" stop-color="#00AE42"/>
</linearGradient>
<linearGradient id="paint1_linear_2_41" x1="30.3174" y1="51.0642" x2="30.3174" y2="3.40234" gradientUnits="userSpaceOnUse">
<stop stop-color="#00AE42"/>
<stop offset="1" stop-color="#00AE42" stop-opacity="0"/>
</linearGradient>
<linearGradient id="paint2_linear_2_41" x1="18.627" y1="51.0642" x2="18.627" y2="3.40234" gradientUnits="userSpaceOnUse">
<stop stop-color="#00AE42"/>
<stop offset="1" stop-color="#00AE42" stop-opacity="0"/>
</linearGradient>
</defs>
</svg>
