<svg width="24" height="24" viewBox="0 0 24 24" fill="none" xmlns="http://www.w3.org/2000/svg">
<path fill-rule="evenodd" clip-rule="evenodd" d="M15.6971 3.41835C14.8894 2.76765 13.6183 2.32046 12.3795 2.25158C12.2662 2.24532 12.153 2.24219 12.0434 2.24219C10.8041 2.24219 9.78451 2.64711 9.1719 3.38182C8.46068 4.23499 8.05679 5.71275 8.09071 7.33402C8.12306 8.87128 8.53112 10.2144 9.15625 10.8396C9.31801 11.0013 9.46516 11.078 9.60866 11.0775C9.95149 11.0718 10.3606 10.6355 10.8787 10.0829C11.45 9.47409 12.1617 8.71558 13.1361 8.19136C14.6994 7.35072 15.7906 5.4962 15.9053 4.25951C15.9419 3.86137 15.8662 3.55454 15.6971 3.41835ZM15.1331 4.12384C15.1185 4.41501 15.0057 4.81054 14.8236 5.20816C14.3707 6.197 13.6021 7.05538 12.7667 7.50466C12.164 7.8287 11.6046 8.25085 11.0061 8.83214C10.8146 9.01791 10.4044 9.44892 10.1336 9.73383C10.06 9.81158 10.0021 9.87211 9.96036 9.91542L9.9614 9.91647L9.90557 9.9723L9.88417 10.0146H9.86226L9.62379 10.2384L9.45942 9.95247C9.11764 9.35813 8.89221 8.34842 8.8703 7.31732C8.84055 5.90009 9.18599 4.58303 9.77094 3.88068C10.2818 3.26755 11.1929 2.96542 12.3362 3.0296C13.3099 3.08335 14.3394 3.41574 15.0224 3.89685L15.1399 3.97982L15.1331 4.12384Z" fill="#C4C4C4"/>
<path fill-rule="evenodd" clip-rule="evenodd" d="M10.083 13.124C10.6356 13.6421 11.0719 14.0512 11.0776 14.3946C11.0797 14.536 11.0019 14.6837 10.8397 14.846C10.2145 15.4711 8.87138 15.8791 7.33413 15.9115C5.71181 15.9459 4.23509 15.5415 3.38193 14.8303C2.57573 14.1582 2.17393 13.0191 2.25168 11.6227C2.32056 10.3834 2.76775 9.1123 3.41793 8.30506C3.53116 8.16522 3.76076 8.08799 4.0655 8.08799C4.12707 8.08799 4.1923 8.09112 4.25961 8.09738C5.49578 8.21218 7.35082 9.30328 8.19146 10.8666C8.71536 11.8414 9.47355 12.5526 10.083 13.124ZM7.31795 15.1324C8.34905 15.1105 9.35875 14.8846 9.9531 14.5433L10.2443 14.3758L9.98493 14.1092C9.96646 14.0907 9.92092 14.0473 9.85061 13.9804L9.69111 13.8284C9.4075 13.5584 9.00956 13.1794 8.83225 12.9967C8.25095 12.3981 7.8288 11.8388 7.50476 11.2361C7.05548 10.4007 6.1971 9.63202 5.20827 9.17909C4.81065 8.99698 4.41511 8.88427 4.12394 8.86966L3.98044 8.86235L3.898 8.97976C3.41689 9.66281 3.08449 10.6923 3.03075 11.666C2.96709 12.8099 3.26921 13.7209 3.88182 14.2313C4.55965 14.7964 5.78122 15.134 7.14888 15.134C7.20472 15.134 7.26159 15.1335 7.31795 15.1324Z" fill="#C4C4C4"/>
<path fill-rule="evenodd" clip-rule="evenodd" d="M10.8672 15.8096C11.842 15.2857 12.5532 14.5275 13.1246 13.9181L13.1283 13.914C13.6447 13.3639 14.0527 12.9292 14.3947 12.924L14.3931 12.8197L14.4009 12.924C14.5408 12.924 14.6863 13.0018 14.8465 13.162C15.4717 13.7871 15.8797 15.1302 15.9121 16.6675C15.9465 18.2893 15.5421 19.7665 14.8309 20.6197C14.1588 21.4259 13.0197 21.8277 11.6233 21.7499C10.384 21.681 9.11288 21.2339 8.30564 20.5832C8.13657 20.447 8.06091 20.1401 8.09795 19.7415C8.21275 18.5048 9.30386 16.6503 10.8672 15.8096ZM15.133 16.6831C15.1111 15.652 14.8857 14.6423 14.5439 14.048L14.3795 13.7615L14.139 13.989C14.1291 13.9979 14.1191 14.0078 14.1097 14.0172C14.0826 14.0443 14.0043 14.1263 13.8859 14.251L13.8718 14.2656C13.6005 14.551 13.1898 14.982 12.9972 15.1694C12.3987 15.7512 11.8388 16.1728 11.2367 16.4969C10.4012 16.9461 9.6326 17.8045 9.17967 18.7933C8.99756 19.191 8.88485 19.5865 8.87024 19.8777L8.86293 20.0212L8.98034 20.1036C9.66339 20.5842 10.6924 20.9166 11.6666 20.9709C11.7663 20.9766 11.8654 20.9792 11.9625 20.9792C12.9644 20.9792 13.7706 20.674 14.2324 20.1198C14.8173 19.4174 15.1628 18.1009 15.133 16.6831Z" fill="#C4C4C4"/>
<path fill-rule="evenodd" clip-rule="evenodd" d="M16.6659 8.08994C18.283 8.05603 19.7712 8.46513 20.6181 9.17114C21.4248 9.84323 21.8261 10.9823 21.7489 12.3792C21.68 13.6185 21.2328 14.8897 20.5821 15.6969C20.4459 15.866 20.1391 15.9416 19.7404 15.9046C18.5037 15.7898 16.6492 14.6987 15.8086 13.1353C15.2847 12.1606 14.5265 11.4494 13.917 10.878C13.3644 10.3598 12.9282 9.95072 12.9224 9.60737C12.9203 9.46544 12.9981 9.31777 13.1604 9.15548C13.7855 8.53035 15.1286 8.1223 16.6659 8.08994ZM20.1031 15.0217C20.5842 14.3386 20.9166 13.3096 20.9703 12.3354C21.034 11.1916 20.7313 10.2805 20.1203 9.76966C19.4184 9.18523 18.1014 8.83979 16.6836 8.86901C15.6525 8.89092 14.6428 9.11635 14.0485 9.45813L13.762 9.62303L13.9885 9.86358C13.9963 9.87193 14.0047 9.88028 14.0167 9.89228C14.0433 9.91889 14.1283 10.0003 14.2656 10.1307L14.2876 10.1518C14.5728 10.4233 14.9872 10.818 15.1688 11.0053C15.7501 11.6038 16.1723 12.1632 16.4963 12.7659C16.9456 13.6008 17.804 14.3699 18.7928 14.8229C19.1904 15.0055 19.586 15.1182 19.8771 15.1323L20.0206 15.1391L20.1031 15.0217Z" fill="#C4C4C4"/>
</svg>
