<svg width="24" height="24" viewBox="0 0 24 24" fill="none" xmlns="http://www.w3.org/2000/svg">
<path d="M19.4006 14.0263C19.6491 14.0943 19.9071 13.9482 19.9608 13.6963C20.1964 12.5905 20.1994 11.4459 19.9675 10.3358C19.7038 9.0733 19.1439 7.89152 18.3338 6.88787C17.5237 5.88422 16.4868 5.08744 15.3083 4.5632C14.1299 4.03897 12.8438 3.80228 11.5559 3.87265C10.2681 3.94302 9.01536 4.31843 7.90107 4.96795C6.78678 5.61746 5.84279 6.52248 5.1469 7.60842C4.45101 8.69436 4.02315 9.93012 3.89858 11.2139C3.78906 12.3426 3.91675 13.48 4.27147 14.5536C4.35229 14.7982 4.62464 14.9153 4.86422 14.8206V14.8206C5.1038 14.7259 5.21971 14.4553 5.1407 14.2101C4.83927 13.2745 4.7319 12.2855 4.82714 11.304C4.93744 10.1674 5.31626 9.07324 5.93238 8.11177C6.54851 7.1503 7.3843 6.34901 8.37088 5.77394C9.35745 5.19887 10.4666 4.86649 11.6068 4.80418C12.7471 4.74188 13.8858 4.95144 14.9291 5.41559C15.9725 5.87974 16.8906 6.58519 17.6078 7.4738C18.3251 8.36242 18.8208 9.40875 19.0543 10.5266C19.256 11.4919 19.257 12.4867 19.0593 13.4495C19.0075 13.7019 19.1522 13.9583 19.4006 14.0263V14.0263Z" fill="#909090"/>
<path d="M17.4168 10.0365C17.5941 9.96313 17.6793 9.75941 17.5959 9.58658C17.1934 8.75231 16.6044 8.01987 15.8726 7.44699C15.0495 6.8026 14.0737 6.38199 13.04 6.22602C12.0064 6.07004 10.9499 6.18399 9.9733 6.55681C9.10505 6.88825 8.32612 7.41427 7.6954 8.09264C7.56474 8.23317 7.58604 8.45296 7.73382 8.57535V8.57535C7.8816 8.69775 8.09983 8.67629 8.23153 8.53674C8.78508 7.95015 9.46483 7.4947 10.2211 7.206C11.0858 6.87591 12.0212 6.77502 12.9364 6.91312C13.8515 7.05122 14.7155 7.42362 15.4443 7.99415C16.0817 8.49316 16.5968 9.1289 16.9526 9.85271C17.0373 10.0249 17.2394 10.1098 17.4168 10.0365V10.0365Z" fill="#909090"/>
<path d="M15.7867 11.0016L12.6353 15.3331" stroke="#909090" stroke-width="1.04628" stroke-linecap="round"/>
<circle cx="12.1918" cy="15.8235" r="1.32935" fill="#909090"/>
</svg>
