<svg xmlns="http://www.w3.org/2000/svg" width="16" height="16" viewBox="0 0 16 16"><path d="M1,14.5l.306-.4a1.036,1.036,0,0,0,0-1.208L.694,12.1a1.036,1.036,0,0,1,0-1.208l.612-.792a1.036,1.036,0,0,0,0-1.208L.694,8.1a1.036,1.036,0,0,1,0-1.208L1,6.5" style="fill:none;stroke:#ff6f00;stroke-linecap:round;stroke-linejoin:round"/><path d="M5,14.5l.306-.4a1.036,1.036,0,0,0,0-1.208L4.694,12.1a1.036,1.036,0,0,1,0-1.208" style="fill:none;stroke:#ff6f00;stroke-linecap:round;stroke-linejoin:round"/><path d="M10,14.5l.306-.4a1.036,1.036,0,0,0,0-1.208L9.694,12.1a1.036,1.036,0,0,1,0-1.208" style="fill:none;stroke:#ff6f00;stroke-linecap:round;stroke-linejoin:round"/><path d="M14,14.5l.306-.4a1.036,1.036,0,0,0,0-1.208l-.612-.792a1.036,1.036,0,0,1,0-1.208l.612-.792a1.036,1.036,0,0,0,0-1.208L13.694,8.1a1.036,1.036,0,0,1,0-1.208L14,6.5" style="fill:none;stroke:#ff6f00;stroke-linecap:round;stroke-linejoin:round"/><path d="M4.5,4.5c-1,1-1,1-2,0" style="fill:none;stroke:#ff6f00;stroke-linecap:round;stroke-linejoin:round"/><path d="M12.5,4.5c-1,1-1,1-2,0" style="fill:none;stroke:#ff6f00;stroke-linecap:round;stroke-linejoin:round"/><path d="M10.5.5v4a6.375,6.375,0,0,1-6,0V.5" style="fill:none;stroke:#ff6f00;stroke-linecap:round;stroke-linejoin:round"/><polygon points="2.5 0.5 12.5 0.5 12.5 4.5 7.5 9.5 2.5 4.5 2.5 0.5" style="fill:none;stroke:#ff6f00;stroke-linecap:round;stroke-linejoin:round"/></svg>