<svg width="12" height="12" viewBox="0 0 12 12" fill="none" xmlns="http://www.w3.org/2000/svg">
<path d="M11.2005 2.22192H9.77867V1.06847C9.77867 0.543676 9.51308 0 8.99128 0H3.30785C2.78605 0 2.20926 0.543676 2.20926 1.06847V2.22057H1.09725C0.575453 2.22057 0 2.7656 0 3.29174V6.78449C0 7.30928 0.574111 7.61417 1.09725 7.61417H2.20791V11.1744C2.20791 11.7005 2.78471 12 3.30651 12H8.98994C9.51174 12 9.77733 11.7005 9.77733 11.1744V7.61282H11.2005C11.7237 7.61282 12 7.30928 12 6.78314V3.29174C12 2.76695 11.7237 2.22192 11.2005 2.22192ZM2.87056 1.07116C2.87056 0.898482 3.16164 0.628668 3.33467 0.628668H8.96043C9.13347 0.628668 9.11603 0.898482 9.11603 1.07116V2.21248H2.87056V1.07116ZM9.11603 11.03C9.11603 11.204 8.98055 11.3524 8.80751 11.3524H3.18176C3.00872 11.3524 2.87056 11.2027 2.87056 11.03V6.36897C2.87056 6.19494 3.00872 6.05464 3.18176 6.05464H8.80885C8.98189 6.05464 9.11737 6.19494 9.11737 6.36897V11.03H9.11603ZM11.3025 6.76695C11.3025 6.93963 11.3213 6.95987 11.1496 6.95987H9.74111V6.45261C9.74111 5.93187 9.4782 5.38954 8.96043 5.38954H3.33467C2.8169 5.38954 2.24681 5.93187 2.24681 6.45261V6.95987H1.14688C0.973843 6.95987 0.685446 6.93963 0.685446 6.76695V3.30793C0.685446 3.13524 0.973843 2.87622 1.14688 2.87622H11.1496C11.3213 2.87622 11.3025 3.1339 11.3025 3.30793V6.76695ZM8.23608 7.43474H3.81623C3.73307 7.43339 3.65258 7.46442 3.59356 7.52378C3.53454 7.58179 3.50101 7.66138 3.50101 7.74503C3.50101 7.92175 3.64185 8.05531 3.81623 8.05531H8.23742C8.4118 8.05531 8.55265 7.92041 8.55265 7.74503C8.55265 7.66138 8.51911 7.58179 8.46009 7.52378C8.39973 7.46577 8.31925 7.43339 8.23608 7.43474ZM8.23608 9.27083H3.81623C3.70355 9.27083 3.60027 9.33154 3.54393 9.42867C3.48759 9.52715 3.48759 9.64722 3.54393 9.7457C3.60027 9.84418 3.70355 9.90354 3.81623 9.90354H8.23742C8.3501 9.90354 8.45339 9.84283 8.50973 9.7457C8.56606 9.64722 8.56606 9.52715 8.50973 9.42867C8.45339 9.33019 8.34876 9.27083 8.23608 9.27083ZM9.68612 3.64385C9.68612 3.90152 9.89403 4.11062 10.1502 4.11062C10.4064 4.11062 10.6144 3.90152 10.6144 3.64385C10.6144 3.38617 10.4064 3.17707 10.1502 3.17707C9.89403 3.17707 9.68612 3.38617 9.68612 3.64385Z" fill="#009688"/>
</svg>
