<svg width="32" height="32" viewBox="0 0 32 32" fill="none" xmlns="http://www.w3.org/2000/svg">
<path d="M26.8334 16.0001C26.8334 18.8733 25.6921 21.6288 23.6604 23.6604C21.6288 25.6921 18.8733 26.8334 16.0001 26.8334C13.1269 26.8334 10.3714 25.6921 8.33976 23.6604C6.30811 21.6288 5.16675 18.8733 5.16675 16.0001C5.16675 13.1269 6.30811 10.3714 8.33976 8.33976C10.3714 6.30811 13.1269 5.16675 16.0001 5.16675C18.8733 5.16675 21.6288 6.30811 23.6604 8.33976C25.6921 10.3714 26.8334 13.1269 26.8334 16.0001ZM2.66675 16.0001C2.66675 19.5363 4.07151 22.9277 6.57199 25.4282C9.07248 27.9287 12.4639 29.3334 16.0001 29.3334C19.5363 29.3334 22.9277 27.9287 25.4282 25.4282C27.9287 22.9277 29.3334 19.5363 29.3334 16.0001C29.3334 12.4639 27.9287 9.07248 25.4282 6.57199C22.9277 4.07151 19.5363 2.66675 16.0001 2.66675C12.4639 2.66675 9.07248 4.07151 6.57199 6.57199C4.07151 9.07248 2.66675 12.4639 2.66675 16.0001ZM15.2188 22.3022L20.6355 16.8855C21.1251 16.3959 21.1251 15.6042 20.6355 15.1199L15.2188 9.698C14.7292 9.20841 13.9376 9.20841 13.4532 9.698C12.9688 10.1876 12.9636 10.9792 13.4532 11.4636L17.9845 15.9949L13.4532 20.5261C12.9636 21.0157 12.9636 21.8074 13.4532 22.2917C13.9428 22.7761 14.7345 22.7813 15.2188 22.2917V22.3022Z" fill="#626262"/>
</svg>
