<svg width="33" height="33" viewBox="0 0 33 33" fill="none" xmlns="http://www.w3.org/2000/svg">
<path d="M27.1947 16.4647C27.1947 19.3379 26.0534 22.0934 24.0217 24.125C21.9901 26.1566 19.2346 27.298 16.3614 27.298C13.4882 27.298 10.7327 26.1566 8.70109 24.125C6.66944 22.0934 5.52808 19.3379 5.52808 16.4647C5.52808 13.5915 6.66944 10.836 8.70109 8.80436C10.7327 6.77271 13.4882 5.63135 16.3614 5.63135C19.2346 5.63135 21.9901 6.77271 24.0217 8.80436C26.0534 10.836 27.1947 13.5915 27.1947 16.4647ZM3.02808 16.4647C3.02808 20.0009 4.43283 23.3923 6.93332 25.8928C9.4338 28.3933 12.8252 29.798 16.3614 29.798C19.8976 29.798 23.289 28.3933 25.7895 25.8928C28.29 23.3923 29.6947 20.0009 29.6947 16.4647C29.6947 12.9285 28.29 9.53708 25.7895 7.03659C23.289 4.53611 19.8976 3.13135 16.3614 3.13135C12.8252 3.13135 9.4338 4.53611 6.93332 7.03659C4.43283 9.53708 3.02808 12.9285 3.02808 16.4647ZM15.5802 22.7668L20.9968 17.3501C21.4864 16.8605 21.4864 16.0688 20.9968 15.5845L15.5802 10.1626C15.0906 9.67301 14.2989 9.67301 13.8145 10.1626C13.3302 10.6522 13.325 11.4438 13.8145 11.9282L18.3458 16.4595L13.8145 20.9907C13.325 21.4803 13.325 22.272 13.8145 22.7563C14.3041 23.2407 15.0958 23.2459 15.5802 22.7563V22.7668Z" fill="#ACACAC"/>
</svg>
