<svg width="33" height="32" viewBox="0 0 33 32" fill="none" xmlns="http://www.w3.org/2000/svg">
<path d="M27.703 15.9998C27.703 18.873 26.5617 21.6285 24.53 23.6602C22.4984 25.6918 19.7429 26.8332 16.8697 26.8332C13.9965 26.8332 11.241 25.6918 9.20939 23.6602C7.17774 21.6285 6.03638 18.873 6.03638 15.9998C6.03638 13.1267 7.17774 10.3712 9.20939 8.33951C11.241 6.30787 13.9965 5.1665 16.8697 5.1665C19.7429 5.1665 22.4984 6.30787 24.53 8.33951C26.5617 10.3712 27.703 13.1267 27.703 15.9998ZM3.53638 15.9998C3.53638 19.5361 4.94113 22.9274 7.44162 25.4279C9.94211 27.9284 13.3335 29.3332 16.8697 29.3332C20.4059 29.3332 23.7973 27.9284 26.2978 25.4279C28.7983 22.9274 30.203 19.5361 30.203 15.9998C30.203 12.4636 28.7983 9.07223 26.2978 6.57175C23.7973 4.07126 20.4059 2.6665 16.8697 2.6665C13.3335 2.6665 9.94211 4.07126 7.44162 6.57175C4.94113 9.07223 3.53638 12.4636 3.53638 15.9998ZM16.0885 22.3019L21.5051 16.8853C21.9947 16.3957 21.9947 15.604 21.5051 15.1196L16.0885 9.69775C15.5989 9.20817 14.8072 9.20817 14.3228 9.69775C13.8385 10.1873 13.8333 10.979 14.3228 11.4634L18.8541 15.9946L14.3228 20.5259C13.8333 21.0155 13.8333 21.8071 14.3228 22.2915C14.8124 22.7759 15.6041 22.7811 16.0885 22.2915V22.3019Z" fill="#262E30"/>
</svg>
