<svg width="14" height="16" viewBox="0 0 14 16" fill="none" xmlns="http://www.w3.org/2000/svg">
<path d="M6.64648 1.64698C6.84023 1.45323 7.15898 1.45323 7.35274 1.64698L12.3527 6.64698C12.5465 6.84073 12.5465 7.15948 12.3527 7.35323C12.159 7.54698 11.8402 7.54698 11.6465 7.35323L6.99961 2.70636L2.35273 7.35323C2.15898 7.54698 1.84023 7.54698 1.64648 7.35323C1.45273 7.15948 1.45273 6.84073 1.64648 6.64698L6.64648 1.64698ZM1.64648 12.647L6.64648 7.64698C6.84023 7.45323 7.15898 7.45323 7.35273 7.64698L12.3527 12.647C12.5465 12.8407 12.5465 13.1595 12.3527 13.3532C12.159 13.547 11.8402 13.547 11.6465 13.3532L6.99961 8.70636L2.35273 13.3532C2.15898 13.547 1.84023 13.547 1.64648 13.3532C1.45273 13.1595 1.45273 12.8407 1.64648 12.647Z" fill="white"/>
</svg>
