<svg id="Layer_1" data-name="Layer 1" xmlns="http://www.w3.org/2000/svg" viewBox="0 0 800 800"><title>notification_eject_sd</title><path d="M702.38,400c0,166.31-135.31,300.87-302.38,300.87S97.62,566.31,97.62,400,232.93,99.13,400,99.13,702.38,233.69,702.38,400Z" fill="#eee"/><path d="M240.49,533.8a16.78,16.78,0,0,1,16.63-16.63H552a16.64,16.64,0,0,1,0,33.27H257.12A16.78,16.78,0,0,1,240.49,533.8Z" fill="#ff6f00" fill-rule="evenodd"/><path d="M530,434.77,405.29,220.08l-124,214.69ZM434.77,203.45c-12.85-21.92-45.35-21.92-58.2,0L251.83,418.14c-12.85,21.93,3,49.9,28.73,49.9H529.27c25.7,0,42.33-28,28.72-49.9Z" fill="#ff6f00" fill-rule="evenodd"/></svg>