<svg width="24" height="24" viewBox="0 0 24 24" fill="none" xmlns="http://www.w3.org/2000/svg">
<path d="M22.5 12C22.5 14.7848 21.3938 17.4555 19.4246 19.4246C17.4555 21.3938 14.7848 22.5 12 22.5C9.21523 22.5 6.54451 21.3938 4.57538 19.4246C2.60625 17.4555 1.5 14.7848 1.5 12C1.5 9.21523 2.60625 6.54451 4.57538 4.57538C6.54451 2.60625 9.21523 1.5 12 1.5C14.7848 1.5 17.4555 2.60625 19.4246 4.57538C21.3938 6.54451 22.5 9.21523 22.5 12ZM0 12C-2.78235e-07 15.1826 1.26428 18.2348 3.51472 20.4853C5.76515 22.7357 8.8174 24 12 24C15.1826 24 18.2348 22.7357 20.4853 20.4853C22.7357 18.2348 24 15.1826 24 12C24 8.8174 22.7357 5.76516 20.4853 3.51472C18.2348 1.26428 15.1826 2.78235e-07 12 0C8.8174 -2.78231e-07 5.76516 1.26428 3.51472 3.51472C1.26428 5.76515 2.78231e-07 8.8174 0 12ZM17.7797 12.5297L18.3094 12L17.7797 11.4703L13.2797 6.97031L12.75 6.44063L11.6906 7.5L12.2203 8.02969L15.4406 11.25H6.75H6V12.75H6.75H15.4406L12.2203 15.9703L11.6906 16.5L12.75 17.5594L13.2797 17.0297L17.7797 12.5297Z" fill="white"/>
</svg>
