<svg width="100" height="100" viewBox="0 0 100 100" fill="none" xmlns="http://www.w3.org/2000/svg">
<path d="M50 90C72.0914 90 90 72.0914 90 50C90 27.9086 72.0914 10 50 10C27.9086 10 10 27.9086 10 50C10 72.0914 27.9086 90 50 90Z" fill="#3E3E45"/>
<path d="M66.0998 78.6H33.8998C31.0998 78.6 28.7998 76.3 28.7998 73.5V30.6C28.7998 27.8 31.0998 25.5 33.8998 25.5H40.9998V28.7C40.9998 29.2 41.3998 29.6 41.8998 29.6H58.0998C58.5998 29.6 58.9998 29.2 58.9998 28.7V25.5H66.0998C68.8998 25.5 71.1998 27.8 71.1998 30.6V73.5C71.2998 76.3 68.9998 78.6 66.0998 78.6ZM33.8998 28.9C32.9998 28.9 32.1998 29.7 32.1998 30.6V73.5C32.1998 74.4 32.9998 75.2 33.8998 75.2H66.1998C67.0998 75.2 67.8998 74.4 67.8998 73.5V30.6C67.8998 29.7 67.0998 28.9 66.1998 28.9H62.5998C62.4998 31.2 60.5998 33 58.1998 33H41.8998C39.5998 33 37.5998 31.2 37.4998 28.9H33.8998Z" fill="#009688"/>
<path d="M58.1 33.1H41.9C39.5 33.1 37.5 31.1 37.5 28.7V25.8C37.5 23.4 39.5 21.4 41.9 21.4H58.1C60.5 21.4 62.5 23.4 62.5 25.8V28.7C62.5 31.1 60.5 33.1 58.1 33.1ZM41.9 24.8C41.4 24.8 41 25.2 41 25.7V28.6C41 29.1 41.4 29.5 41.9 29.5H58.1C58.6 29.5 59 29.1 59 28.6V25.7C59 25.2 58.6 24.8 58.1 24.8H41.9Z" fill="#009688"/>
<path d="M59.8999 43.4H40.0999C39.0999 43.4 38.3999 42.6 38.3999 41.7C38.3999 40.7 39.1999 40 40.0999 40H59.8999C60.8999 40 61.5999 40.8 61.5999 41.7C61.5999 42.7 60.8999 43.4 59.8999 43.4Z" fill="#009688"/>
<path d="M59.8999 55.2001H40.0999C39.0999 55.2001 38.3999 54.4 38.3999 53.5C38.3999 52.6 39.1999 51.8 40.0999 51.8H59.8999C60.8999 51.8 61.5999 52.6 61.5999 53.5C61.5999 54.4 60.8999 55.2001 59.8999 55.2001Z" fill="#009688"/>
<path d="M59.8999 66.9H40.0999C39.0999 66.9 38.3999 66.1 38.3999 65.2C38.3999 64.2 39.1999 63.5 40.0999 63.5H59.8999C60.8999 63.5 61.5999 64.3 61.5999 65.2C61.5999 66.2 60.8999 66.9 59.8999 66.9Z" fill="#009688"/>
<path d="M65.3998 79.9001C70.4256 79.9001 74.4998 75.8259 74.4998 70.8001C74.4998 65.7743 70.4256 61.7001 65.3998 61.7001C60.374 61.7001 56.2998 65.7743 56.2998 70.8001C56.2998 75.8259 60.374 79.9001 65.3998 79.9001Z" fill="#D15B00"/>
<path d="M64.5998 75.8C64.3998 75.6 64.2998 75.3 64.2998 75C64.2998 74.7 64.3998 74.4 64.5998 74.2C64.7998 74 65.0998 73.9 65.3998 73.9C65.6998 73.9 65.9998 74 66.1998 74.2C66.3998 74.4 66.4998 74.7 66.4998 75C66.4998 75.3 66.3998 75.6 66.1998 75.8C65.9998 76 65.6998 76.1 65.3998 76.1C65.0998 76.1 64.7998 76 64.5998 75.8ZM64.6998 72.7L64.3998 65.6H66.3998L66.0998 72.7H64.6998Z" fill="#242428"/>
</svg>
