<svg width="100" height="100" viewBox="0 0 100 100" fill="none" xmlns="http://www.w3.org/2000/svg">
<path d="M50 90C72.0914 90 90 72.0914 90 50C90 27.9086 72.0914 10 50 10C27.9086 10 10 27.9086 10 50C10 72.0914 27.9086 90 50 90Z" fill="#3E3E45"/>
<path fill-rule="evenodd" clip-rule="evenodd" d="M40.574 28.5977C41.3484 27.8101 42.6147 27.7995 43.4023 28.574L63.4023 48.2406C63.7805 48.6126 63.9955 49.1195 63.9999 49.65C64.0044 50.1805 63.7978 50.691 63.4259 51.0691L43.4259 71.4025C42.6513 72.19 41.385 72.2004 40.5975 71.4259C39.81 70.6513 39.7996 69.385 40.5741 68.5975L59.1715 49.6902L40.5977 31.426C39.8101 30.6516 39.7995 29.3853 40.574 28.5977Z" fill="#eb4949"/>
</svg>
