<svg width="14" height="16" viewBox="0 0 14 16" fill="none" xmlns="http://www.w3.org/2000/svg">
<path d="M7.35352 14.353C7.15977 14.5468 6.84102 14.5468 6.64727 14.353L1.64727 9.35303C1.45352 9.15928 1.45352 8.84053 1.64727 8.64678C1.84102 8.45303 2.15977 8.45303 2.35352 8.64678L7.00039 13.2937L11.6473 8.64678C11.841 8.45303 12.1598 8.45303 12.3535 8.64678C12.5473 8.84053 12.5473 9.15928 12.3535 9.35303L7.35352 14.353ZM12.3535 3.35303L7.35352 8.35303C7.15977 8.54678 6.84102 8.54678 6.64727 8.35303L1.64727 3.35303C1.45352 3.15928 1.45352 2.84053 1.64727 2.64678C1.84102 2.45303 2.15977 2.45303 2.35352 2.64678L7.00039 7.29365L11.6473 2.64678C11.841 2.45303 12.1598 2.45303 12.3535 2.64678C12.5473 2.84053 12.5473 3.15928 12.3535 3.35303Z" fill="white"/>
</svg>
