<svg width="100" height="100" viewBox="0 0 100 100" fill="none" xmlns="http://www.w3.org/2000/svg">
<path d="M50 98.0001C76.5097 98.0001 98 76.5098 98 50.0001C98 23.4905 76.5097 2.00012 50 2.00012C23.4903 2.00012 2 23.4905 2 50.0001C2 76.5098 23.4903 98.0001 50 98.0001Z" fill="#3E3E45"/>
<path fill-rule="evenodd" clip-rule="evenodd" d="M65.9998 74L78.7998 51.9C79.4998 50.7 79.4998 49.3 78.7998 48.2L65.9998 26C65.2998 24.8 64.0998 24.1 62.7998 24.1H37.1998C35.8998 24.1 34.5998 24.8 33.9998 26L21.1998 48.1C20.4998 49.3 20.4998 50.7 21.1998 51.8L33.9998 74C34.6998 75.2 35.8998 75.9 37.1998 75.9H62.6998C64.0998 75.8 65.2998 75.1 65.9998 74ZM40.0998 50C40.0998 55.5 44.5998 59.9 49.9998 59.9C55.3998 59.9 59.8998 55.4 59.8998 50C59.8998 44.5 55.3998 40.1 49.9998 40.1C44.5998 40.1 40.0998 44.5 40.0998 50Z" fill="#21A452"/>
</svg>
