<svg width="100" height="100" viewBox="0 0 100 100" fill="none" xmlns="http://www.w3.org/2000/svg">
<path d="M50 90C72.0914 90 90 72.0914 90 50C90 27.9086 72.0914 10 50 10C27.9086 10 10 27.9086 10 50C10 72.0914 27.9086 90 50 90Z" fill="#3E3E45"/>
<path fill-rule="evenodd" clip-rule="evenodd" d="M64.1004 71.1999L75.4004 51.5999C76.0004 50.5999 76.0004 49.2999 75.4004 48.2999L64.1004 28.7999C63.5004 27.7999 62.4004 27.2 61.2004 27.2H38.7004C37.5004 27.2 36.4004 27.7999 35.8004 28.7999L24.6004 48.4C24.0004 49.4 24.0004 50.7 24.6004 51.7L35.9004 71.3C36.5004 72.3 37.6004 72.9 38.8004 72.9H61.4004C62.5004 72.9 63.6004 72.1999 64.1004 71.1999ZM41.2004 50C41.2004 54.9 45.1004 58.7999 50.0004 58.7999C54.9004 58.7999 58.8004 54.9 58.8004 50C58.8004 45.1 54.9004 41.2 50.0004 41.2C45.1004 41.2 41.2004 45.1 41.2004 50Z" fill="#eb4949"/>
</svg>
