<?xml version="1.0" encoding="utf-8"?>
<!-- Generator: Adobe Illustrator 24.1.1, SVG Export Plug-In . SVG Version: 6.00 Build 0)  -->
<svg version="1.1" baseProfile="basic"
	 id="Layer_1" xmlns:cc="http://creativecommons.org/ns#" xmlns:dc="http://purl.org/dc/elements/1.1/" xmlns:inkscape="http://www.inkscape.org/namespaces/inkscape" xmlns:rdf="http://www.w3.org/1999/02/22-rdf-syntax-ns#" xmlns:sodipodi="http://sodipodi.sourceforge.net/DTD/sodipodi-0.dtd" xmlns:svg="http://www.w3.org/2000/svg"
	 xmlns="http://www.w3.org/2000/svg" xmlns:xlink="http://www.w3.org/1999/xlink" x="0px" y="0px" viewBox="0 0 800 800"
	 xml:space="preserve">
<sodipodi:namedview  bordercolor="#666666" borderopacity="1" gridtolerance="10" guidetolerance="10" id="namedview11" inkscape:current-layer="Layer_1" inkscape:cx="400" inkscape:cy="389.28571" inkscape:document-rotation="0" inkscape:pageopacity="0" inkscape:pageshadow="2" inkscape:window-height="2066" inkscape:window-maximized="1" inkscape:window-width="3840" inkscape:window-x="-11" inkscape:window-y="-11" inkscape:zoom="1.26" objecttolerance="10" pagecolor="#ffffff" showgrid="false">
	</sodipodi:namedview>
<g>
	<path fill="#FF6F00" d="M324.7,247.3h150.7c42.7,0,77.3,34.6,77.3,77.3v150.7c0,42.7-34.6,77.3-77.3,77.3H324.7
		c-42.7,0-77.3-34.6-77.3-77.3V324.6C247.3,281.9,282,247.3,324.7,247.3z"/>
</g>
<g>
	<path fill="#FF6F00" d="M554.6,683.5H245.4c-71,0-128.8-57.8-128.8-128.8V245.4c0-71,57.8-128.8,128.8-128.8h309.2
		c71,0,128.8,57.8,128.8,128.8v309.2C683.5,625.7,625.7,683.5,554.6,683.5z M245.4,142.3c-56.8,0-103.1,46.2-103.1,103.1v309.2
		c0,56.8,46.2,103.1,103.1,103.1h309.2c56.8,0,103.1-46.2,103.1-103.1V245.4c0-56.8-46.2-103.1-103.1-103.1L245.4,142.3L245.4,142.3
		z"/>
</g>
</svg>
