<svg width="100" height="100" viewBox="0 0 100 100" fill="none" xmlns="http://www.w3.org/2000/svg">
<path d="M50 98C76.5097 98 98 76.5097 98 50C98 23.4903 76.5097 2 50 2C23.4903 2 2 23.4903 2 50C2 76.5097 23.4903 98 50 98Z" fill="#3E3E45"/>
<path d="M68.7998 83.3H31.1998C27.8998 83.3 25.2998 80.6 25.2998 77.4V27.5C25.2998 24.2 27.9998 21.6 31.1998 21.6H39.3998V25.3C39.3998 25.9 39.8998 26.4 40.4998 26.4H59.3998C59.9998 26.4 60.4998 25.9 60.4998 25.3V21.6H68.6998C71.9998 21.6 74.5998 24.3 74.5998 27.5V77.4C74.6998 80.6 71.9998 83.3 68.7998 83.3ZM31.1998 25.5C30.0998 25.5 29.2998 26.4 29.2998 27.4V77.3C29.2998 78.4 30.1998 79.2 31.1998 79.2H68.6998C69.7998 79.2 70.5998 78.3 70.5998 77.3V27.5C70.5998 26.4 69.6998 25.6 68.6998 25.6H64.4998C64.2998 28.3 62.0998 30.4 59.3998 30.4H40.5998C37.8998 30.4 35.6998 28.3 35.4998 25.6H31.1998V25.5Z" fill="#21A452"/>
<path d="M59.4 30.2999H40.6C37.8 30.2999 35.5 28 35.5 25.2V21.7999C35.5 18.9999 37.8 16.7 40.6 16.7H59.5C62.3 16.7 64.6 18.9999 64.6 21.7999V25.2C64.5 28.1 62.2 30.2999 59.4 30.2999ZM40.6 20.7C40 20.7 39.5 21.1999 39.5 21.7999V25.2C39.5 25.8 40 26.2999 40.6 26.2999H59.5C60.1 26.2999 60.6 25.8 60.6 25.2V21.7999C60.6 21.1999 60.1 20.7 59.5 20.7H40.6Z" fill="#21A452"/>
<path d="M61.5 42.3999H38.5C37.4 42.3999 36.5 41.4999 36.5 40.3999C36.5 39.2999 37.4 38.3999 38.5 38.3999H61.5C62.6 38.3999 63.5 39.2999 63.5 40.3999C63.5 41.4999 62.6 42.3999 61.5 42.3999Z" fill="#21A452"/>
<path d="M61.5 56H38.5C37.4 56 36.5 55.1 36.5 54C36.5 52.9 37.4 52 38.5 52H61.5C62.6 52 63.5 52.9 63.5 54C63.5 55.1 62.6 56 61.5 56Z" fill="#21A452"/>
<path d="M61.5 69.7H38.5C37.4 69.7 36.5 68.8 36.5 67.7C36.5 66.6 37.4 65.7 38.5 65.7H61.5C62.6 65.7 63.5 66.6 63.5 67.7C63.5 68.8 62.6 69.7 61.5 69.7Z" fill="#21A452"/>
<path d="M67.8998 84.8C73.754 84.8 78.4998 80.0542 78.4998 74.2C78.4998 68.3458 73.754 63.6 67.8998 63.6C62.0456 63.6 57.2998 68.3458 57.2998 74.2C57.2998 80.0542 62.0456 84.8 67.8998 84.8Z" fill="#D15B00"/>
<path d="M66.9996 79.9C66.6996 79.6 66.5996 79.3 66.5996 79C66.5996 78.6 66.6996 78.3 66.9996 78.1C67.2996 77.8 67.5996 77.7 67.8996 77.7C68.2996 77.7 68.5996 77.8 68.7996 78.1C69.0996 78.4 69.1996 78.7 69.1996 79C69.1996 79.4 69.0996 79.7 68.7996 79.9C68.4996 80.2 68.1996 80.3 67.8996 80.3C67.4996 80.3 67.1996 80.2 66.9996 79.9ZM67.0996 76.4L66.7996 68.1H68.9996L68.6996 76.4H67.0996Z" fill="#242428"/>
</svg>
