<?xml version="1.0" encoding="utf-8"?>
<!-- Generator: Adobe Illustrator 24.1.1, SVG Export Plug-In . SVG Version: 6.00 Build 0)  -->
<svg version="1.1" baseProfile="basic"
	 id="minimalize_window" xmlns:cc="http://creativecommons.org/ns#" xmlns:dc="http://purl.org/dc/elements/1.1/" xmlns:inkscape="http://www.inkscape.org/namespaces/inkscape" xmlns:rdf="http://www.w3.org/1999/02/22-rdf-syntax-ns#" xmlns:sodipodi="http://sodipodi.sourceforge.net/DTD/sodipodi-0.dtd" xmlns:svg="http://www.w3.org/2000/svg"
	 xmlns="http://www.w3.org/2000/svg" xmlns:xlink="http://www.w3.org/1999/xlink" x="0px" y="0px" viewBox="0 0 100 100"
	 xml:space="preserve">
<sodipodi:namedview  bordercolor="#666666" borderopacity="1" gridtolerance="10" guidetolerance="10" id="namedview19" inkscape:current-layer="minimalize_window" inkscape:cx="50" inkscape:cy="50" inkscape:pageopacity="0" inkscape:pageshadow="2" inkscape:window-height="1377" inkscape:window-maximized="1" inkscape:window-width="2560" inkscape:window-x="-8" inkscape:window-y="-8" inkscape:zoom="10.08" objecttolerance="10" pagecolor="#ffffff" showgrid="false">
	</sodipodi:namedview>
<circle fill="#EEEEEE" cx="50" cy="50" r="41"/>
<g>
	<g>
		<g>
			<path fill="#eb4949" d="M66.1,78.6H33.9c-2.8,0-5.1-2.3-5.1-5.1V30.6c0-2.8,2.3-5.1,5.1-5.1H41v3.2c0,0.5,0.4,0.9,0.9,0.9h16.2
				c0.5,0,0.9-0.4,0.9-0.9v-3.2h7.1c2.8,0,5.1,2.3,5.1,5.1v42.9C71.3,76.3,69,78.6,66.1,78.6z M33.9,28.9c-0.9,0-1.7,0.8-1.7,1.7
				v42.9c0,0.9,0.8,1.7,1.7,1.7h32.3c0.9,0,1.7-0.8,1.7-1.7V30.6c0-0.9-0.8-1.7-1.7-1.7h-3.6c-0.1,2.3-2,4.1-4.4,4.1H41.9
				c-2.3,0-4.3-1.8-4.4-4.1H33.9z"/>
		</g>
		<g>
			<path fill="#eb4949" d="M58.1,33.1H41.9c-2.4,0-4.4-2-4.4-4.4v-2.9c0-2.4,2-4.4,4.4-4.4h16.2c2.4,0,4.4,2,4.4,4.4v2.9
				C62.5,31.1,60.5,33.1,58.1,33.1z M41.9,24.8c-0.5,0-0.9,0.4-0.9,0.9v2.9c0,0.5,0.4,0.9,0.9,0.9h16.2c0.5,0,0.9-0.4,0.9-0.9v-2.9
				c0-0.5-0.4-0.9-0.9-0.9H41.9z"/>
		</g>
		<g>
			<path fill="#eb4949" d="M59.9,43.4H40.1c-1,0-1.7-0.8-1.7-1.7c0-1,0.8-1.7,1.7-1.7h19.8c1,0,1.7,0.8,1.7,1.7
				C61.6,42.7,60.9,43.4,59.9,43.4z"/>
		</g>
		<g>
			<path fill="#eb4949" d="M59.9,55.2H40.1c-1,0-1.7-0.8-1.7-1.7s0.8-1.7,1.7-1.7h19.8c1,0,1.7,0.8,1.7,1.7S60.9,55.2,59.9,55.2z"/>
		</g>
		<g>
			<path fill="#eb4949" d="M59.9,66.9H40.1c-1,0-1.7-0.8-1.7-1.7c0-1,0.8-1.7,1.7-1.7h19.8c1,0,1.7,0.8,1.7,1.7
				C61.6,66.2,60.9,66.9,59.9,66.9z"/>
		</g>
	</g>
	<circle fill="#FF6F00" cx="65.4" cy="70.8" r="9.1"/>
	<g>
		<path fill="#FFFFFF" d="M64.6,75.8c-0.2-0.2-0.3-0.5-0.3-0.8s0.1-0.6,0.3-0.8c0.2-0.2,0.5-0.3,0.8-0.3s0.6,0.1,0.8,0.3
			c0.2,0.2,0.3,0.5,0.3,0.8s-0.1,0.6-0.3,0.8c-0.2,0.2-0.5,0.3-0.8,0.3C65.1,76.1,64.8,76,64.6,75.8z M64.7,72.7l-0.3-7.1h2
			l-0.3,7.1H64.7z"/>
	</g>
</g>
</svg>
