<?xml version="1.0" encoding="utf-8"?>
<!-- Generator: Adobe Illustrator 24.1.1, SVG Export Plug-In . SVG Version: 6.00 Build 0)  -->
<svg version="1.1" baseProfile="basic"
	 id="minimalize_window" xmlns:cc="http://creativecommons.org/ns#" xmlns:dc="http://purl.org/dc/elements/1.1/" xmlns:inkscape="http://www.inkscape.org/namespaces/inkscape" xmlns:rdf="http://www.w3.org/1999/02/22-rdf-syntax-ns#" xmlns:sodipodi="http://sodipodi.sourceforge.net/DTD/sodipodi-0.dtd" xmlns:svg="http://www.w3.org/2000/svg"
	 xmlns="http://www.w3.org/2000/svg" xmlns:xlink="http://www.w3.org/1999/xlink" x="0px" y="0px" viewBox="0 0 100 100"
	 xml:space="preserve">
<sodipodi:namedview  bordercolor="#666666" borderopacity="1" gridtolerance="10" guidetolerance="10" id="namedview13" inkscape:current-layer="minimalize_window" inkscape:cx="50" inkscape:cy="50" inkscape:pageopacity="0" inkscape:pageshadow="2" inkscape:window-height="1377" inkscape:window-maximized="1" inkscape:window-width="2560" inkscape:window-x="-8" inkscape:window-y="-8" inkscape:zoom="10.08" objecttolerance="10" pagecolor="#ffffff" showgrid="false">
	</sodipodi:namedview>
<g>
	<circle fill="#EEEEEE" cx="50" cy="50" r="40.3"/>
</g>
<path fill-rule="evenodd" clip-rule="evenodd" fill="#eb4949" d="M64.1,71.2l11.3-19.6c0.6-1,0.6-2.3,0-3.3L64.1,28.8
	c-0.6-1-1.7-1.6-2.9-1.6H38.7c-1.2,0-2.3,0.6-2.9,1.6L24.6,48.4c-0.6,1-0.6,2.3,0,3.3l11.3,19.6c0.6,1,1.7,1.6,2.9,1.6h22.6
	C62.5,72.9,63.6,72.2,64.1,71.2z M41.2,50c0,4.9,3.9,8.8,8.8,8.8s8.8-3.9,8.8-8.8s-3.9-8.8-8.8-8.8S41.2,45.1,41.2,50z"/>
</svg>
