<svg id="Layer_1" data-name="Layer 1" xmlns="http://www.w3.org/2000/svg" viewBox="0 0 800 800"><title>notification_eject_sd_hover</title><path d="M780.4,400c0,209.22-170.23,378.5-380.4,378.5S19.6,609.22,19.6,400,189.83,21.5,400,21.5,780.4,190.78,780.4,400Z" fill="#eee"/><path d="M199.34,568.33a21.11,21.11,0,0,1,20.92-20.92H591.15a20.92,20.92,0,0,1,0,41.84H220.26A21.11,21.11,0,0,1,199.34,568.33Z" fill="#ff6f00" fill-rule="evenodd"/><path d="M563.57,443.75,406.66,173.66l-156,270.09Zm-119.82-291c-16.17-27.58-57.06-27.58-73.23,0L213.6,422.82c-16.16,27.58,3.81,62.77,36.14,62.77H562.62c32.34,0,53.26-35.19,36.14-62.77Z" fill="#ff6f00" fill-rule="evenodd"/></svg>