<?xml version="1.0" encoding="UTF-8" standalone="no"?>
<svg
   version="1.0"
   id="close_window"
   x="0px"
   y="0px"
   viewBox="0 0 100 100"
   enable-background="new 0 0 100 100"
   xml:space="preserve"
   xmlns="http://www.w3.org/2000/svg"
   xmlns:svg="http://www.w3.org/2000/svg"
   xmlns:rdf="http://www.w3.org/1999/02/22-rdf-syntax-ns#"
   xmlns:cc="http://creativecommons.org/ns#"
   xmlns:dc="http://purl.org/dc/elements/1.1/"><metadata
   id="metadata19"><rdf:RDF><cc:Work
       rdf:about=""><dc:format>image/svg+xml</dc:format><dc:type
         rdf:resource="http://purl.org/dc/dcmitype/StillImage" /></cc:Work></rdf:RDF></metadata><defs
   id="defs17" />



<g
   id="open"
   transform="matrix(4.05,0,0,4.05,15.4645,15.277381)"
   style="fill:#323a3e;fill-opacity:1"><circle
     style="fill:#eeeeee;fill-opacity:1;stroke-width:0.969441"
     id="path1"
     cx="50"
     cy="50"
     r="40.299999"
     transform="matrix(0.24691358,0,0,0.24691358,-3.8183951,-3.7721928)" /><g
     id="folder"><path
       id="path2-7"
       d="M 1.9606173,14 V 3 c 0,0 0,-1 1,-1 0.9999999,0 3.9999998,0 4.9999998,0 1,0 1,2 1.9999999,2 0.99999,0 3.99999,0 3.99999,0 0,0 1,0 1,1 v 2 h -1 c 0,0 0,0 0,-1 0,-1 -1,-1 -1,-1 H 9.460617 C 8.4606171,5 8.4606171,3 7.4606171,3 c -1,0 -3.4999999,0 -3.4999999,0 C 2.9606173,3 2.9606173,4 2.9606173,4 v 9 1 h 0.9999999 v 1 c 0,0 0,0 -0.9999999,0 -1,0 -1,-1 -1,-1 z"
       fill="#808080"
       style="fill:#acacac;fill-opacity:1" /><path
       id="path4"
       d="m 5.7406172,6 c -0.55,0 -1.14,0.43 -1.32,0.95 l -2.3699999,7.1 c -0.17,0.52 0.14,0.95 0.69,0.95 h 9.9999897 c 0.55,0 1.14,-0.43 1.32,-0.95 l 2.37,-7.1 c 0.17,-0.52 -0.14,-0.95 -0.69,-0.95 z"
       fill="#323a3e"
       style="fill:#acacac;fill-opacity:1" /></g></g></svg>
