<?xml version="1.0" encoding="utf-8"?>
<!-- Generator: Adobe Illustrator 24.1.1, SVG Export Plug-In . SVG Version: 6.00 Build 0)  -->
<svg version="1.1" baseProfile="basic"
	 id="minimalize_window" xmlns:cc="http://creativecommons.org/ns#" xmlns:dc="http://purl.org/dc/elements/1.1/" xmlns:inkscape="http://www.inkscape.org/namespaces/inkscape" xmlns:rdf="http://www.w3.org/1999/02/22-rdf-syntax-ns#" xmlns:sodipodi="http://sodipodi.sourceforge.net/DTD/sodipodi-0.dtd" xmlns:svg="http://www.w3.org/2000/svg"
	 xmlns="http://www.w3.org/2000/svg" xmlns:xlink="http://www.w3.org/1999/xlink" x="0px" y="0px" viewBox="0 0 100 100"
	 xml:space="preserve">
<sodipodi:namedview  bordercolor="#666666" borderopacity="1" gridtolerance="10" guidetolerance="10" id="namedview19" inkscape:current-layer="minimalize_window" inkscape:cx="50" inkscape:cy="50" inkscape:document-rotation="0" inkscape:pageopacity="0" inkscape:pageshadow="2" inkscape:window-height="1377" inkscape:window-maximized="1" inkscape:window-width="2560" inkscape:window-x="-8" inkscape:window-y="-8" inkscape:zoom="10.08" objecttolerance="10" pagecolor="#ffffff" showgrid="false">
	</sodipodi:namedview>
<circle fill="#EEEEEE" cx="50" cy="50" r="47.7"/>
<g>
	<g>
		<g>
			<path fill="#eb4949" d="M68.8,83.3H31.2c-3.3,0-5.9-2.7-5.9-5.9V27.5c0-3.3,2.7-5.9,5.9-5.9h8.2v3.7c0,0.6,0.5,1.1,1.1,1.1h18.9
				c0.6,0,1.1-0.5,1.1-1.1v-3.7h8.2c3.3,0,5.9,2.7,5.9,5.9v49.9C74.7,80.6,72,83.3,68.8,83.3z M31.2,25.5c-1.1,0-1.9,0.9-1.9,1.9
				v49.9c0,1.1,0.9,1.9,1.9,1.9h37.5c1.1,0,1.9-0.9,1.9-1.9V27.5c0-1.1-0.9-1.9-1.9-1.9h-4.2c-0.2,2.7-2.4,4.8-5.1,4.8H40.6
				c-2.7,0-4.9-2.1-5.1-4.8h-4.3V25.5z"/>
		</g>
		<g>
			<path fill="#eb4949" d="M59.4,30.3H40.6c-2.8,0-5.1-2.3-5.1-5.1v-3.4c0-2.8,2.3-5.1,5.1-5.1h18.9c2.8,0,5.1,2.3,5.1,5.1v3.4
				C64.5,28.1,62.2,30.3,59.4,30.3z M40.6,20.7c-0.6,0-1.1,0.5-1.1,1.1v3.4c0,0.6,0.5,1.1,1.1,1.1h18.9c0.6,0,1.1-0.5,1.1-1.1v-3.4
				c0-0.6-0.5-1.1-1.1-1.1H40.6z"/>
		</g>
		<g>
			<path fill="#eb4949" d="M61.5,42.4h-23c-1.1,0-2-0.9-2-2s0.9-2,2-2h23c1.1,0,2,0.9,2,2S62.6,42.4,61.5,42.4z"/>
		</g>
		<g>
			<path fill="#eb4949" d="M61.5,56h-23c-1.1,0-2-0.9-2-2s0.9-2,2-2h23c1.1,0,2,0.9,2,2S62.6,56,61.5,56z"/>
		</g>
		<g>
			<path fill="#eb4949" d="M61.5,69.7h-23c-1.1,0-2-0.9-2-2s0.9-2,2-2h23c1.1,0,2,0.9,2,2S62.6,69.7,61.5,69.7z"/>
		</g>
	</g>
	<circle fill="#FF6F00" cx="67.9" cy="74.2" r="10.6"/>
	<g>
		<path fill="#FFFFFF" d="M67,79.9c-0.3-0.3-0.4-0.6-0.4-0.9c0-0.4,0.1-0.7,0.4-0.9c0.3-0.3,0.6-0.4,0.9-0.4c0.4,0,0.7,0.1,0.9,0.4
			c0.3,0.3,0.4,0.6,0.4,0.9c0,0.4-0.1,0.7-0.4,0.9c-0.3,0.3-0.6,0.4-0.9,0.4C67.5,80.3,67.2,80.2,67,79.9z M67.1,76.4l-0.3-8.3H69
			l-0.3,8.3H67.1z"/>
	</g>
</g>
</svg>
