<?xml version="1.0" encoding="utf-8"?>
<!-- Generator: Adobe Illustrator 24.1.1, SVG Export Plug-In . SVG Version: 6.00 Build 0)  -->
<svg version="1.1" baseProfile="basic"
	 id="Layer_1" xmlns:cc="http://creativecommons.org/ns#" xmlns:dc="http://purl.org/dc/elements/1.1/" xmlns:inkscape="http://www.inkscape.org/namespaces/inkscape" xmlns:rdf="http://www.w3.org/1999/02/22-rdf-syntax-ns#" xmlns:sodipodi="http://sodipodi.sourceforge.net/DTD/sodipodi-0.dtd" xmlns:svg="http://www.w3.org/2000/svg"
	 xmlns="http://www.w3.org/2000/svg" xmlns:xlink="http://www.w3.org/1999/xlink" x="0px" y="0px" viewBox="0 0 800 800"
	 xml:space="preserve">
<sodipodi:namedview  bordercolor="#666666" borderopacity="1" gridtolerance="10" guidetolerance="10" id="namedview11" inkscape:current-layer="Layer_1" inkscape:cx="400" inkscape:cy="389.28571" inkscape:document-rotation="0" inkscape:pageopacity="0" inkscape:pageshadow="2" inkscape:window-height="2066" inkscape:window-maximized="1" inkscape:window-width="3840" inkscape:window-x="-11" inkscape:window-y="-11" inkscape:zoom="1.26" objecttolerance="10" pagecolor="#ffffff" showgrid="false">
	</sodipodi:namedview>
<g>
	<path fill="#FF6F00" d="M293.2,183.6h213.6c60.5,0,109.6,49.1,109.6,109.6v213.6c0,60.5-49.1,109.6-109.6,109.6H293.2
		c-60.5,0-109.6-49.1-109.6-109.6V293.2C183.6,232.6,232.6,183.6,293.2,183.6z"/>
</g>
<path fill="#FF6F00" d="M613.4,3.9H186.6C85.9,3.9,3.9,85.9,3.9,186.6v426.7C3.9,714,85.9,796,186.6,796h426.7
	C714,796,796,714,796,613.3V186.6C796.1,85.9,714.1,3.9,613.4,3.9z M750.7,186.6v426.7c0,75.7-61.6,137.4-137.4,137.4H186.6
	c-75.7,0-137.4-61.6-137.4-137.4V186.6c0-75.7,61.6-137.4,137.4-137.4h426.7C689.1,49.3,750.7,110.9,750.7,186.6z"/>
</svg>
