<?xml version="1.0" encoding="utf-8"?>
<!-- Generator: Adobe Illustrator 24.1.1, SVG Export Plug-In . SVG Version: 6.00 Build 0)  -->
<svg version="1.1" baseProfile="basic"
	 id="minimalize_window" xmlns:cc="http://creativecommons.org/ns#" xmlns:dc="http://purl.org/dc/elements/1.1/" xmlns:inkscape="http://www.inkscape.org/namespaces/inkscape" xmlns:rdf="http://www.w3.org/1999/02/22-rdf-syntax-ns#" xmlns:sodipodi="http://sodipodi.sourceforge.net/DTD/sodipodi-0.dtd" xmlns:svg="http://www.w3.org/2000/svg"
	 xmlns="http://www.w3.org/2000/svg" xmlns:xlink="http://www.w3.org/1999/xlink" x="0px" y="0px" viewBox="0 0 100 100"
	 xml:space="preserve">
<g>
	<circle fill="#EEEEEE" cx="50" cy="50" r="45.6"/>
</g>
<sodipodi:namedview  bordercolor="#666666" borderopacity="1" gridtolerance="10" guidetolerance="10" id="namedview13" inkscape:current-layer="minimalize_window" inkscape:cx="50" inkscape:cy="50" inkscape:document-rotation="0" inkscape:pageopacity="0" inkscape:pageshadow="2" inkscape:window-height="1377" inkscape:window-maximized="1" inkscape:window-width="2560" inkscape:window-x="-8" inkscape:window-y="-8" inkscape:zoom="10.08" objecttolerance="10" pagecolor="#ffffff" showgrid="false">
	</sodipodi:namedview>
<path fill-rule="evenodd" clip-rule="evenodd" fill="#eb4949" d="M66,74l12.8-22.1c0.7-1.2,0.7-2.6,0-3.7L66,26
	c-0.7-1.2-1.9-1.9-3.2-1.9H37.2c-1.3,0-2.6,0.7-3.2,1.9L21.2,48.1c-0.7,1.2-0.7,2.6,0,3.7L34,74c0.7,1.2,1.9,1.9,3.2,1.9h25.5
	C64.1,75.8,65.3,75.1,66,74z M40.1,50c0,5.5,4.5,9.9,9.9,9.9s9.9-4.5,9.9-9.9c0-5.5-4.5-9.9-9.9-9.9S40.1,44.5,40.1,50z"/>
</svg>
