<?xml version="1.0" encoding="UTF-8" standalone="no"?>
<svg
   xml:space="preserve"
   viewBox="0 0 800 800"
   y="0px"
   x="0px"
   id="Layer_1"
   version="1.1"
   style="enable-background:new 0 0 800 800;"
   xmlns="http://www.w3.org/2000/svg"
   xmlns:svg="http://www.w3.org/2000/svg"
   xmlns:rdf="http://www.w3.org/1999/02/22-rdf-syntax-ns#"
   xmlns:cc="http://creativecommons.org/ns#"
   xmlns:dc="http://purl.org/dc/elements/1.1/"><metadata
   id="metadata15"><rdf:RDF><cc:Work
       rdf:about=""><dc:format>image/svg+xml</dc:format><dc:type
         rdf:resource="http://purl.org/dc/dcmitype/StillImage" /></cc:Work></rdf:RDF></metadata><defs
   id="defs13" />
<style
   id="style2"
   type="text/css">
	.st0{fill:#323a3e;}
</style>
<circle
   style="fill:#3e3e45;fill-opacity:1;stroke-width:7.75552"
   id="path1"
   cx="400"
   cy="400"
   r="322.39999" /><path
   id="path4"
   d="m 317.95173,562.36128 h -60.775 v -330.565 h 60.775 v 330.565 m 48.195,27.88 v -386.24 c 0,-11.22 -9.095,-20.315 -20.315,-20.315 h -116.535 c -11.22,0 -20.315,9.095 -20.315,20.315 v 386.24 c 0,11.22 9.095,20.315 20.315,20.315 h 116.45 c 11.22,0 20.4,-9.095 20.4,-20.315 z"
   class="st0"
   style="stroke-width:0.85;fill:#818183;fill-opacity:1" />


<path
   id="path21"
   d="m 210.06357,199.0892 c 1.10499,-4.08272 3.30912,-7.53117 6.63124,-10.37477 5.42019,-4.63948 2.10678,-4.43387 71.33297,-4.42657 l 62.44927,0.007 3.44194,1.60268 c 4.05635,1.88877 7.75734,5.3977 9.8769,9.36436 l 1.52243,2.84915 v 199.00794 199.00793 l -1.52243,2.84915 c -2.11956,3.96665 -5.82055,7.47559 -9.8769,9.36436 l -3.44194,1.60267 -62.44927,0.007 c -69.78764,0.008 -65.98231,0.26152 -71.72146,-4.79028 -1.69319,-1.4904 -3.87229,-4.37627 -4.9283,-6.52672 l -1.89304,-3.85513 -0.12602,-196.30953 c -0.0987,-153.67069 0.0544,-196.97613 0.70461,-199.37859 z m 77.67539,363.64446 H 318.4334 V 397.11858 231.5035 H 287.73896 257.0445 v 165.61508 165.61508 z"
   style="fill:#818183;fill-opacity:1;stroke-width:0.674603" /><path
   style="fill:#818183;stroke-width:0.85;fill-opacity:1"
   class="st0"
   d="m 533.78507,563.71023 h -60.775 v -330.565 h 60.775 v 330.565 m 48.195,27.88 v -386.24 c 0,-11.22 -9.095,-20.315 -20.315,-20.315 h -116.535 c -11.22,0 -20.315,9.095 -20.315,20.315 v 386.24 c 0,11.22 9.095,20.315 20.315,20.315 h 116.45 c 11.22,0 20.4,-9.095 20.4,-20.315 z"
   id="path4-3" /><path
   style="fill:#818183;fill-opacity:1;stroke-width:0.674603"
   d="m 425.89691,200.43815 c 1.10499,-4.08272 3.30912,-7.53117 6.63124,-10.37477 5.42019,-4.63948 2.10678,-4.43387 71.33297,-4.42657 l 62.44927,0.007 3.44194,1.60268 c 4.05635,1.88877 7.75734,5.3977 9.8769,9.36436 l 1.52243,2.84915 v 199.00794 199.00793 l -1.52243,2.84915 c -2.11956,3.96665 -5.82055,7.47559 -9.8769,9.36436 l -3.44194,1.60267 -62.44927,0.007 c -69.78764,0.008 -65.98231,0.26152 -71.72146,-4.79028 -1.69319,-1.4904 -3.87229,-4.37627 -4.9283,-6.52672 l -1.89304,-3.85513 -0.12602,-196.30953 c -0.0987,-153.67069 0.0544,-196.97613 0.70461,-199.37859 z m 77.67539,363.64446 h 30.69444 V 398.46753 232.85245 H 503.5723 472.87784 v 165.61508 165.61508 z"
   id="path21-9" /></svg>
