<?xml version="1.0" encoding="UTF-8" standalone="no"?>
<svg
   xml:space="preserve"
   style="enable-background:new 0 0 800 800;"
   viewBox="0 0 800 800"
   y="0px"
   x="0px"
   id="Layer_1"
   version="1.1"
   xmlns="http://www.w3.org/2000/svg"
   xmlns:svg="http://www.w3.org/2000/svg"
   xmlns:rdf="http://www.w3.org/1999/02/22-rdf-syntax-ns#"
   xmlns:cc="http://creativecommons.org/ns#"
   xmlns:dc="http://purl.org/dc/elements/1.1/"><metadata
   id="metadata15"><rdf:RDF><cc:Work
       rdf:about=""><dc:format>image/svg+xml</dc:format><dc:type
         rdf:resource="http://purl.org/dc/dcmitype/StillImage" /></cc:Work></rdf:RDF></metadata><defs
   id="defs13" />
<style
   id="style2"
   type="text/css">
	.st0{fill:#323a3e;}
</style>

<circle
   style="fill:#eeeeee;fill-opacity:1;stroke-width:7.75552"
   id="path1"
   cx="400"
   cy="400"
   r="322.39999" /><path
   id="path6"
   d="M 501.14231,400.1595 345.84732,517.11951 v -233.75 l 155.29499,116.79 m 66.63999,0 c 0,-6.12 -2.72,-12.155 -8.15999,-16.235 L 330.12233,211.2895 c -13.43,-10.115 -32.555,-0.51 -32.555,16.235 v 345.35501 c 0,16.745 19.125,26.35 32.555,16.235 l 229.49998,-172.805 c 5.44,-3.995 8.16,-10.03 8.15999,-16.15 z"
   class="st0"
   style="stroke-width:0.85;fill:#acacac;fill-opacity:1" />

<path
   id="path19"
   d="m 300.17824,218.44362 c 2.06443,-4.13128 4.83026,-6.86894 9.40917,-9.3133 3.43647,-1.83451 12.82007,-1.79344 16.52778,0.0724 3.22403,1.6224 232.7236,174.17375 235.79013,177.281 3.35767,3.4022 4.88323,7.0012 5.23218,12.34324 0.27168,4.159 0.0718,5.32914 -1.5138,8.86232 -1.00471,2.23886 -2.78731,4.97342 -3.96129,6.07682 -4.28583,4.02812 -232.27571,175.25818 -235.54572,176.9048 -4.6586,2.34584 -12.1025,2.3876 -16.52928,0.0928 -3.87486,-2.00878 -7.80538,-5.7435 -9.67029,-9.18862 l -1.46069,-2.69842 -0.1736,-178.1462 -0.1736,-178.14618 z m 45.66908,298.67589 c 1.00351,-0.0612 154.99009,-116.48775 154.99009,-117.18534 0,-0.71184 -154.02593,-116.84804 -154.99009,-116.86318 -0.27827,-0.004 -0.50595,52.66168 -0.50595,117.03568 0,64.37401 0.22768,117.0298 0.50595,117.01284 z"
   style="fill:#acacac;fill-opacity:1;stroke-width:0.6746" /><path
   style="fill:#acacac;stroke-width:0.85;fill-opacity:1"
   class="st0"
   d="M 501.14231,400.15949 345.84732,517.1195 v -233.75 l 155.29499,116.79 m 66.63999,0 c 0,-6.12 -2.72,-12.155 -8.15999,-16.235 L 330.12233,211.28949 c -13.43,-10.115 -32.555,-0.51 -32.555,16.235 V 572.8795 c 0,16.745 19.125,26.35 32.555,16.235 l 229.49998,-172.805 c 5.44,-3.995 8.16,-10.03 8.15999,-16.15 z"
   id="path6-2" /><path
   style="fill:#acacac;fill-opacity:1;stroke-width:0.6746"
   d="m 300.17824,218.44361 c 2.06443,-4.13128 4.83026,-6.86894 9.40917,-9.3133 3.43647,-1.83451 12.82007,-1.79344 16.52778,0.0724 3.22403,1.6224 232.7236,174.17375 235.79013,177.281 3.35767,3.4022 4.88323,7.0012 5.23218,12.34324 0.27168,4.159 0.0718,5.32914 -1.5138,8.86232 -1.00471,2.23886 -2.78731,4.97342 -3.96129,6.07682 -4.28583,4.02812 -232.27571,175.25818 -235.54572,176.9048 -4.6586,2.34584 -12.1025,2.3876 -16.52928,0.0928 -3.87486,-2.00878 -7.80538,-5.7435 -9.67029,-9.18862 l -1.46069,-2.69842 -0.1736,-178.1462 -0.1736,-178.14618 z m 45.66908,298.67589 c 1.00351,-0.0612 154.99009,-116.48775 154.99009,-117.18534 0,-0.71184 -154.02593,-116.84804 -154.99009,-116.86318 -0.27827,-0.004 -0.50595,52.66168 -0.50595,117.03568 0,64.37401 0.22768,117.0298 0.50595,117.01284 z"
   id="path19-3" /></svg>
