<svg width="37" height="37" viewBox="0 0 37 37" fill="none" xmlns="http://www.w3.org/2000/svg">
<path d="M15.9019 4.5C17.0566 2.5 19.9434 2.5 21.0981 4.5L31.9234 23.25C33.0781 25.25 31.6347 27.75 29.3253 27.75H7.67468C5.36528 27.75 3.92191 25.25 5.07661 23.25L15.9019 4.5Z" fill="#E9653B"/>
<path d="M18.199 19.7094L17.919 12.3594H19.963L19.683 19.7094H18.199ZM18.941 23.1674C18.6236 23.1674 18.353 23.0507 18.129 22.8174C17.905 22.584 17.793 22.3087 17.793 21.9914C17.793 21.6647 17.905 21.3847 18.129 21.1514C18.353 20.918 18.6236 20.8014 18.941 20.8014C19.2583 20.8014 19.529 20.918 19.753 21.1514C19.9863 21.3847 20.103 21.6647 20.103 21.9914C20.103 22.318 19.9863 22.598 19.753 22.8314C19.529 23.0554 19.2583 23.1674 18.941 23.1674Z" fill="white"/>
</svg>
