<svg xmlns="http://www.w3.org/2000/svg" width="16" height="16" viewBox="0 0 16 16"><line x1="2.5" y1="3.5" x2="2.5" y2="14.5" style="fill:none;stroke:#009688;stroke-linecap:square;stroke-linejoin:round"/><polyline points="0.5 3.5 0.5 14.5 4.5 14.5 4.5 3.5" style="fill:none;stroke:#009688;stroke-linecap:square;stroke-linejoin:round"/><polyline points="14.5 4.5 14.5 2.5 14.5 0.5 0.5 0.5 0.5 3.5 10.5 3.5 10.5 7.5" style="fill:none;stroke:#949494;stroke-linecap:square;stroke-linejoin:round"/><polyline points="14.5 12.5 14.5 14.5 13.5 14.5" style="fill:none;stroke:#949494;stroke-linecap:square;stroke-linejoin:round"/><path d="M7.787,14.5c-.92,0,.666,0,.666-1.666A1.666,1.666,0,1,1,10.119,14.5H7.787Z" style="fill:none;stroke:#009688;stroke-miterlimit:10"/><path d="M11.785,11.834l2.641-4.178a.437.437,0,0,0-.709-.509l-3.264,4.021" style="fill:none;stroke:#009688;stroke-miterlimit:10"/></svg>