<svg xmlns="http://www.w3.org/2000/svg" viewBox="0 0 16 16"><polyline points="7.5 14.5 0.5 14.5 0.5 0.5 14.5 0.5 14.5 4.5" style="fill:none;stroke:#949494;stroke-linecap:square;stroke-linejoin:round"/><rect x="2" y="1" width="1" height="1" style="fill:#009688"/><rect x="2" y="3" width="1" height="1" style="fill:#009688"/><rect x="2" y="5" width="1" height="1" style="fill:#009688"/><rect x="2" y="9" width="1" height="1" style="fill:#009688"/><rect x="2" y="11" width="1" height="1" style="fill:#009688"/><rect x="2" y="13" width="1" height="1" style="fill:#009688"/><rect x="2" y="7" width="1" height="1" style="fill:#009688"/><rect x="3" y="2" width="1" height="1" style="fill:#009688"/><rect x="3" y="4" width="1" height="1" style="fill:#009688"/><rect x="3" y="6" width="1" height="1" style="fill:#009688"/><rect x="3" y="10" width="1" height="1" style="fill:#009688"/><rect x="3" y="12" width="1" height="1" style="fill:#009688"/><rect x="3" y="8" width="1" height="1" style="fill:#009688"/><rect x="12" y="6" width="1" height="2" style="fill:#009688"/><line x1="12.5" y1="7.5" x2="10.5" y2="9.5" style="fill:none;stroke:#009688;stroke-linecap:round;stroke-linejoin:round"/><line x1="12.5" y1="7.5" x2="14.5" y2="9.5" style="fill:none;stroke:#009688;stroke-linecap:round;stroke-linejoin:round"/><path d="M14.5,9.5v4a1,1,0,0,1-1,1h-2a1,1,0,0,1-1-1v-4" style="fill:none;stroke:#009688;stroke-linecap:round;stroke-linejoin:round"/><line x1="10.5" y1="9.5" x2="14.5" y2="9.5" style="fill:none;stroke:#009688;stroke-linecap:round;stroke-linejoin:round"/><rect x="10" y="6" width="1" height="1" style="fill:#009688"/><rect x="8" y="5" width="1" height="1" style="fill:#009688"/><rect x="8" y="7" width="1" height="1" style="fill:#009688"/><rect x="6" y="6" width="1" height="1" style="fill:#009688"/><rect x="6" y="8" width="1" height="1" style="fill:#009688"/><rect x="6" y="4" width="1" height="1" style="fill:#009688"/></svg>