<svg xmlns="http://www.w3.org/2000/svg" width="16" height="16" viewBox="0 0 16 16"><polyline points="14.5 3.5 14.5 0.5 0.5 0.5 0.5 3.5" style="fill:none;stroke:#949494;stroke-linecap:square;stroke-linejoin:round"/><path d="M14.5,5.5v-2c-2,2-4.091,1.163-6,.107S3.5,1.5.5,3.5v11h7" style="fill:none;stroke:#009688;stroke-linecap:square;stroke-linejoin:round"/><path d="M10,7h1V8H10ZM8,7H9V6H8ZM8,9H9V8H8ZM6,8H7V7H6Zm0,2H7V9H6ZM6,6H7V5H6Z" style="fill:#009688"/><path d="M12.5,8.5l2,2v4h-4v-4h0Zm-2,2h4m-2-2,0,0v-1" style="fill:none;stroke:#009688;stroke-linecap:square;stroke-linejoin:round"/></svg>