<svg xmlns="http://www.w3.org/2000/svg" viewBox="0 0 20 20"><line x1="2.5" y1="12.5" x2="17.5" y2="12.5" style="fill:none;stroke:#b6b6b6;stroke-miterlimit:10"/><path d="M6,14l3.29,3.29a1,1,0,0,0,1.42,0L14,14Z" style="fill:#009688"/><path d="M3,11H17l.29-.29a1,1,0,0,0,0-1.42L10.71,2.71a1,1,0,0,0-1.42,0L2.71,9.29a1,1,0,0,0,0,1.42Z" style="fill:#909090"/><path d="M32,27.5a2.7,2.7,0,0,1-1.09-.23L19.1,21.93a1,1,0,0,1,0-1.86l11.81-5.34a2.7,2.7,0,0,1,2.18,0L44.9,20.07a1,1,0,0,1,0,1.86L33.09,27.27A2.7,2.7,0,0,1,32,27.5Z" style="fill:#33aba1"/><path d="M32,15a2.16,2.16,0,0,1,.89.19l11.8,5.34a.51.51,0,0,1,0,.94l-11.8,5.34a2.18,2.18,0,0,1-1.78,0l-11.8-5.34a.51.51,0,0,1,0-.94l11.8-5.34A2.16,2.16,0,0,1,32,15m0-1a3.07,3.07,0,0,0-1.3.28L18.89,19.62a1.51,1.51,0,0,0,0,2.76L30.7,27.72a3.16,3.16,0,0,0,2.6,0l11.81-5.34a1.51,1.51,0,0,0,0-2.76L33.3,14.28A3.07,3.07,0,0,0,32,14Z" style="fill:#e7e7e7"/></svg>