<svg xmlns="http://www.w3.org/2000/svg" viewBox="0 0 16 16"><path d="M1.85,9.76a3.19,3.19,0,0,0,.33-.11,5.72,5.72,0,0,1,.68-.28L1,7.52,7.5,1,14,7.48,12.08,9.42A7,7,0,0,1,13.87,9l.84-.84a1,1,0,0,0,0-1.38L8.19.29a1,1,0,0,0-1.38,0L.29,6.81a1,1,0,0,0,0,1.38Z" style="fill:#ff6f00"/><path d="M9.83,13a6.78,6.78,0,0,1-1.2-.11L7.52,14l-2-2c-.13,0-.25,0-.37,0a4.21,4.21,0,0,0-1,.11l2.6,2.6a1,1,0,0,0,1.38,0L9.91,13Z" style="fill:#ff6f00"/><path d="M9.83,12a5.92,5.92,0,0,1-2.55-.55,5.2,5.2,0,0,0-4.23,0A5.92,5.92,0,0,1,.5,12H0V11H.5a5,5,0,0,0,2.12-.45,6.14,6.14,0,0,1,5.1,0,5.36,5.36,0,0,0,4.23,0A5.92,5.92,0,0,1,14.5,10H15v1h-.5a5,5,0,0,0-2.12.45A5.85,5.85,0,0,1,9.83,12Z" style="fill:#ff6f00"/></svg>