<svg xmlns="http://www.w3.org/2000/svg" width="16" height="16" viewBox="0 0 16 16"><polyline points="5.5 14.5 0.5 14.5 0.5 0.5 14.5 0.5 14.5 4.5" style="fill:none;stroke:#949494;stroke-linecap:square;stroke-linejoin:round"/><path d="M3,1H4V2H3ZM3,4H4V3H3ZM3,6H4V5H3Zm0,4H4V9H3Zm0,2H4V11H3Zm0,2H4V13H3ZM3,8H4V7H3Z" style="fill:#009688"/><path d="M4,2H5V3H4ZM4,5H5V4H4ZM4,7H5V6H4Zm0,4H5V10H4Zm0,2H5V12H4ZM4,9H5V8H4Z" style="fill:#009688"/><polyline points="14.5 12.5 14.5 14.5 13.5 14.5" style="fill:none;stroke:#949494;stroke-linecap:square;stroke-linejoin:round"/><path d="M7.787,14.5c-.92,0,.666,0,.666-1.666A1.666,1.666,0,1,1,10.119,14.5H7.787Z" style="fill:none;stroke:#009688;stroke-miterlimit:10"/><path d="M11.785,11.834l2.641-4.178a.437.437,0,0,0-.709-.509l-3.264,4.021" style="fill:none;stroke:#009688;stroke-miterlimit:10"/></svg>