<svg width="20" height="20" viewBox="0 0 20 20" fill="none" xmlns="http://www.w3.org/2000/svg">
<path fill-rule="evenodd" clip-rule="evenodd" d="M6.53938 14.5C6.33476 14.5 6.26217 14.7709 6.43938 14.8732L11.3292 17.6964C11.8075 17.9725 12.4191 17.8086 12.6953 17.3303L14.1562 14.8C14.2331 14.6667 14.1369 14.5 13.983 14.5H6.53938Z" fill="#00AE42"/>
<path fill-rule="evenodd" clip-rule="evenodd" d="M8.66979 2.30406C8.19149 2.02792 7.5799 2.1918 7.30376 2.67009L2.95636 10.2C2.87938 10.3333 2.97561 10.5 3.12957 10.5H16.5241C16.5955 10.5 16.6616 10.4619 16.6973 10.4L17.6961 8.67009C17.9722 8.1918 17.8083 7.58021 17.33 7.30406L8.66979 2.30406Z" fill="#909090"/>
<rect x="2" y="12" width="16" height="1" rx="0.5" fill="#6B6B6B"/>
</svg>
