<svg xmlns="http://www.w3.org/2000/svg" width="16" height="16" viewBox="0 0 16 16"><path d="M10,7h1V8H10ZM8,7H9V6H8ZM8,9H9V8H8ZM6,8H7V7H6Zm0,2H7V9H6ZM6,6H7V5H6Z" style="fill:#009688"/><line x1="2.5" y1="3.5" x2="2.5" y2="14.5" style="fill:none;stroke:#009688;stroke-linecap:square;stroke-linejoin:round"/><polyline points="0.5 3.5 0.5 14.5 4.5 14.5 4.5 3.5" style="fill:none;stroke:#009688;stroke-linecap:square;stroke-linejoin:round"/><polyline points="14.5 4.5 14.5 2.5 14.5 0.5 0.5 0.5 0.5 3.5 10.5 3.5 10.5 4.5" style="fill:none;stroke:#949494;stroke-linecap:square;stroke-linejoin:round"/><path d="M12.5,8.5l2,2v4h-4v-4h0Zm-2,2h4m-2-2,0,0v-1" style="fill:none;stroke:#009688;stroke-linecap:square;stroke-linejoin:round"/></svg>