<?xml version="1.0" encoding="UTF-8"?><svg id="a" xmlns="http://www.w3.org/2000/svg" width="16" height="16" viewBox="0 0 16 16"><polyline points=".5 1.5 .5 .5 14.5 .5 14.5 4.5" style="fill:none; stroke:#949494; stroke-linecap:square; stroke-linejoin:round;"/><polyline points="5.5 14.5 .5 14.5 .5 13.5" style="fill:none; stroke:#949494; stroke-linecap:square; stroke-linejoin:round;"/><rect x="2" y="5" width="2" height="1" style="fill:#009688;"/><rect x="5" y="5" width="2" height="1" style="fill:#009688;"/><rect x="8" y="5" width="2" height="1" style="fill:#009688;"/><rect x="1" y="3" width="2" height="1" style="fill:#009688;"/><rect x="4" y="3" width="2" height="1" style="fill:#009688;"/><rect x="7" y="3" width="2" height="1" style="fill:#009688;"/><rect x="2" y="9" width="2" height="1" style="fill:#009688;"/><rect x="5" y="9" width="2" height="1" style="fill:#009688;"/><rect x="1" y="7" width="2" height="1" style="fill:#009688;"/><rect x="4" y="7" width="2" height="1" style="fill:#009688;"/><rect x="7" y="7" width="2" height="1" style="fill:#009688;"/><rect x="1" y="11" width="2" height="1" style="fill:#009688;"/><rect x="4" y="11" width="1" height="1" style="fill:#009688;"/><polyline points="14.5 12.5 14.5 14.5 13.5 14.5" style="fill:none; stroke:#949494; stroke-linecap:square; stroke-linejoin:round;"/><path d="M7.79,14.5c-.92,0,.67,0,.67-1.67,0-.92.75-1.67,1.67-1.67s1.67.75,1.67,1.67-.75,1.67-1.67,1.67h.33-2.67Z" style="fill:none; stroke:#009688; stroke-miterlimit:10;"/><path d="M11.79,11.83l2.64-4.18c.29-.46-.36-.94-.71-.51l-3.26,4.02" style="fill:none; stroke:#009688; stroke-miterlimit:10;"/><rect y="5" width="1" height="1" style="fill:#949494;"/><rect y="9" width="1" height="1" style="fill:#949494;"/></svg>