<svg xmlns="http://www.w3.org/2000/svg" viewBox="0 0 16 16"><rect x="13" y="6" width="1" height="2" style="fill:#009688"/><line x1="13.5" y1="7.5" x2="11.5" y2="9.5" style="fill:none;stroke:#009688;stroke-linecap:round;stroke-linejoin:round"/><line x1="13.5" y1="7.5" x2="15.5" y2="9.5" style="fill:none;stroke:#009688;stroke-linecap:round;stroke-linejoin:round"/><path d="M15.5,9.5v4a1,1,0,0,1-1,1h-2a1,1,0,0,1-1-1v-4" style="fill:none;stroke:#009688;stroke-linecap:round;stroke-linejoin:round"/><line x1="11.5" y1="9.5" x2="15.5" y2="9.5" style="fill:none;stroke:#009688;stroke-linecap:round;stroke-linejoin:round"/><rect x="11" y="6" width="1" height="1" style="fill:#009688"/><rect x="9" y="5" width="1" height="1" style="fill:#009688"/><rect x="9" y="7" width="1" height="1" style="fill:#009688"/><rect x="7" y="6" width="1" height="1" style="fill:#009688"/><rect x="7" y="8" width="1" height="1" style="fill:#009688"/><rect x="7" y="4" width="1" height="1" style="fill:#009688"/><line x1="0.5" y1="4.5" x2="0.5" y2="14.5" style="fill:none;stroke:#009688;stroke-linecap:square;stroke-linejoin:round"/><line x1="2.5" y1="4.5" x2="2.5" y2="14.5" style="fill:none;stroke:#009688;stroke-linecap:square;stroke-linejoin:round"/><line x1="4.5" y1="4.5" x2="4.5" y2="14.5" style="fill:none;stroke:#009688;stroke-linecap:square;stroke-linejoin:round"/><rect x="0.5" y="0.5" width="4" height="2" style="fill:none;stroke:#949494;stroke-linecap:round;stroke-linejoin:round"/></svg>