<svg xmlns="http://www.w3.org/2000/svg" width="16" height="16" viewBox="0 0 16 16"><polyline points="7.5 14.5 0.5 14.5 0.5 0.5 14.5 0.5 14.5 4.5" style="fill:none;stroke:#949494;stroke-linecap:square;stroke-linejoin:round"/><path d="M2,1H3V2H2ZM2,4H3V3H2ZM2,6H3V5H2Zm0,4H3V9H2Zm0,2H3V11H2Zm0,2H3V13H2ZM2,8H3V7H2Z" style="fill:#009688"/><path d="M3,2H4V3H3ZM3,5H4V4H3ZM3,7H4V6H3Zm0,4H4V10H3Zm0,2H4V12H3ZM3,9H4V8H3Z" style="fill:#009688"/><path d="M10,7h1V8H10ZM8,7H9V6H8ZM8,9H9V8H8ZM6,8H7V7H6Zm0,2H7V9H6ZM6,6H7V5H6Z" style="fill:#009688"/><path d="M12.5,8.5l2,2v4h-4v-4h0Zm-2,2h4m-2-2,0,0v-1" style="fill:none;stroke:#009688;stroke-linecap:square;stroke-linejoin:round"/></svg>