<svg width="28" height="28" viewBox="0 0 28 28" fill="none" xmlns="http://www.w3.org/2000/svg">
<path d="M15.0019 23.6827C14.3544 23.9947 13.2907 23.9947 12.6432 23.6827L3.48563 19.3602C2.83812 19.0482 2.83812 18.5581 3.48563 18.2461L12.5969 14.0573C13.2444 13.7453 14.3082 13.7453 14.9557 14.0573L24.067 18.2461C24.7145 18.5581 24.7145 19.0482 24.067 19.3602L15.0019 23.6827Z" fill="#eb4949"/>
<path d="M15.0019 23.6827C14.3544 23.9947 13.2907 23.9947 12.6432 23.6827L3.48563 19.3602C2.83812 19.0482 2.83812 18.5581 3.48563 18.2461L12.5969 14.0573C13.2444 13.7453 14.3082 13.7453 14.9557 14.0573L24.067 18.2461C24.7145 18.5581 24.7145 19.0482 24.067 19.3602L15.0019 23.6827Z" stroke="white" stroke-miterlimit="10"/>
<path d="M15.0019 19.2716C14.3544 19.5835 13.2907 19.5835 12.6432 19.2716L3.48563 14.949C2.83812 14.6371 2.83812 14.1469 3.48563 13.835L12.6432 9.69068C13.2907 9.37874 14.3544 9.37874 15.0019 9.69068L24.1132 13.8795C24.7607 14.1915 24.7607 14.6817 24.1132 14.9936L15.0019 19.2716Z" fill="#eb4949"/>
<path d="M15.0019 19.2716C14.3544 19.5835 13.2907 19.5835 12.6432 19.2716L3.48563 14.949C2.83812 14.6371 2.83812 14.1469 3.48563 13.835L12.6432 9.69068C13.2907 9.37874 14.3544 9.37874 15.0019 9.69068L24.1132 13.8795C24.7607 14.1915 24.7607 14.6817 24.1132 14.9936L15.0019 19.2716Z" stroke="white" stroke-miterlimit="10"/>
<path d="M15.0019 14.8594C14.3544 15.1714 13.2907 15.1714 12.6432 14.8594L3.48563 10.5369C2.83812 10.2249 2.83812 9.73475 3.48563 9.42281L12.5969 5.23395C13.2444 4.92202 14.3082 4.92202 14.9557 5.23395L24.067 9.42281C24.7145 9.73475 24.7145 10.2249 24.067 10.5369L15.0019 14.8594Z" fill="#eb4949"/>
<path d="M15.0019 14.8594C14.3544 15.1714 13.2907 15.1714 12.6432 14.8594L3.48563 10.5369C2.83812 10.2249 2.83812 9.73475 3.48563 9.42281L12.5969 5.23395C13.2444 4.92202 14.3082 4.92202 14.9557 5.23395L24.067 9.42281C24.7145 9.73475 24.7145 10.2249 24.067 10.5369L15.0019 14.8594Z" stroke="white" stroke-miterlimit="10"/>
</svg>
