<svg width="28" height="28" viewBox="0 0 28 28" fill="none" xmlns="http://www.w3.org/2000/svg">
<path d="M15.0019 23.6828C14.3544 23.9947 13.2907 23.9947 12.6432 23.6828L3.48563 19.3602C2.83812 19.0483 2.83812 18.5581 3.48563 18.2462L12.5969 14.0573C13.2444 13.7454 14.3082 13.7454 14.9557 14.0573L24.067 18.2462C24.7145 18.5581 24.7145 19.0483 24.067 19.3602L15.0019 23.6828Z" fill="#21A452"/>
<path fill-rule="evenodd" clip-rule="evenodd" d="M13.7763 14.3234C13.3996 14.3234 13.0512 14.3934 12.8139 14.5078L12.8058 14.5117L3.69891 18.6984C3.61646 18.7385 3.56364 18.7754 3.53155 18.8032C3.56391 18.8312 3.61735 18.8685 3.70099 18.909L12.8566 23.2306L12.8602 23.2323C13.0975 23.3467 13.4459 23.4167 13.8225 23.4167C14.1992 23.4167 14.5476 23.3467 14.7849 23.2323L14.7867 23.2315L23.85 18.9098C23.8502 18.9096 23.8497 18.9099 23.85 18.9098C23.934 18.8692 23.9886 18.8313 24.021 18.8032C23.9889 18.7754 23.9361 18.7385 23.8537 18.6984L14.7386 14.5078C14.5013 14.3935 14.153 14.3234 13.7763 14.3234ZM15.1684 13.6048C14.7589 13.4087 14.2536 13.3234 13.7763 13.3234C13.299 13.3234 12.7937 13.4087 12.3842 13.6048L3.27677 17.7919L3.26862 17.7957C2.88732 17.9794 2.5 18.3093 2.5 18.8032C2.5 19.2972 2.88732 19.627 3.26862 19.8107L12.428 24.1341C12.8379 24.3311 13.3443 24.4167 13.8225 24.4167C14.3011 24.4167 14.8079 24.331 15.2179 24.1337C15.2183 24.1336 15.2186 24.1334 15.2189 24.1332L24.2822 19.8116L24.284 19.8107C24.6653 19.627 25.0526 19.2972 25.0526 18.8032C25.0526 18.3093 24.6653 17.9794 24.284 17.7957L15.1684 13.6048Z" fill="#36363C"/>
<path d="M15.0019 19.2716C14.3544 19.5836 13.2907 19.5836 12.6432 19.2716L3.48563 14.9491C2.83812 14.6372 2.83812 14.147 3.48563 13.835L12.6432 9.69074C13.2907 9.3788 14.3544 9.3788 15.0019 9.69074L24.1132 13.8796C24.7607 14.1915 24.7607 14.6817 24.1132 14.9937L15.0019 19.2716Z" fill="#21A452"/>
<path fill-rule="evenodd" clip-rule="evenodd" d="M13.8225 9.95679C13.4459 9.95679 13.0975 10.0269 12.8602 10.1412L12.8494 10.1464L3.69769 14.2879C3.61594 14.3277 3.56348 14.3644 3.53155 14.3921C3.56391 14.4201 3.61735 14.4574 3.70099 14.4978L12.8566 18.8195L12.8602 18.8212C13.0975 18.9355 13.4459 19.0056 13.8225 19.0056C14.1992 19.0056 14.5476 18.9355 14.7849 18.8212L14.7894 18.819L23.8962 14.5432C23.8969 14.5429 23.8976 14.5426 23.8982 14.5422C23.9817 14.5019 24.035 14.4646 24.0673 14.4366C24.0352 14.4088 23.9824 14.3719 23.8999 14.3318L14.7849 10.1413C14.5476 10.0269 14.1992 9.95679 13.8225 9.95679ZM15.2146 9.23822C14.8052 9.04208 14.2998 8.95679 13.8225 8.95679C13.3458 8.95679 12.8411 9.04188 12.4319 9.23753L3.27948 13.3795L3.26862 13.3846C2.88732 13.5683 2.5 13.8981 2.5 14.3921C2.5 14.886 2.88732 15.2159 3.26862 15.3995L12.428 19.723C12.8378 19.92 13.3443 20.0056 13.8225 20.0056C14.3006 20.0056 14.8068 19.92 15.2166 19.7232C15.2174 19.7229 15.2181 19.7225 15.2189 19.7221L24.3257 15.4463L24.3302 15.4441C24.7115 15.2604 25.0988 14.9306 25.0988 14.4366C25.0988 13.9427 24.7115 13.6128 24.3302 13.4291L15.2146 9.23822Z" fill="#36363C"/>
<path d="M15.0019 14.8594C14.3544 15.1714 13.2907 15.1714 12.6432 14.8594L3.48563 10.5369C2.83812 10.2249 2.83812 9.73475 3.48563 9.42281L12.5969 5.23395C13.2444 4.92202 14.3082 4.92202 14.9557 5.23395L24.067 9.42281C24.7145 9.73475 24.7145 10.2249 24.067 10.5369L15.0019 14.8594Z" fill="#21A452"/>
<path fill-rule="evenodd" clip-rule="evenodd" d="M13.7763 5.5C13.3996 5.5 13.0512 5.57007 12.8139 5.68441L12.8058 5.68832L3.69893 9.87506C3.61647 9.91512 3.56364 9.95205 3.53155 9.97984C3.56391 10.0079 3.61735 10.0452 3.70099 10.0856L12.8566 14.4073L12.8602 14.409C13.0975 14.5233 13.4459 14.5934 13.8225 14.5934C14.1992 14.5934 14.5476 14.5233 14.7849 14.409L14.7867 14.4081L23.85 10.0864C23.8502 10.0863 23.8497 10.0866 23.85 10.0864C23.934 10.0458 23.9886 10.0079 24.021 9.97983C23.9889 9.95205 23.9361 9.91511 23.8537 9.87506L14.7386 5.68448C14.5013 5.57015 14.153 5.5 13.7763 5.5ZM15.1684 4.78142C14.7589 4.58529 14.2536 4.5 13.7763 4.5C13.299 4.5 12.7937 4.58529 12.3842 4.78142L3.27677 8.96852L3.26862 8.97236C2.88732 9.15605 2.5 9.48589 2.5 9.97984C2.5 10.4738 2.88732 10.8036 3.26862 10.9873L12.428 15.3108C12.8379 15.5077 13.3443 15.5934 13.8225 15.5934C14.3012 15.5934 14.8081 15.5076 15.2182 15.3102C15.2179 15.3104 15.2184 15.3101 15.2182 15.3102L24.2822 10.9882L24.284 10.9873C24.6653 10.8036 25.0526 10.4738 25.0526 9.97984C25.0526 9.48589 24.6653 9.15605 24.284 8.97236L15.1684 4.78142Z" fill="#36363C"/>
</svg>
