<svg width="28" height="28" viewBox="0 0 28 28" fill="none" xmlns="http://www.w3.org/2000/svg">
<path d="M14.864 24.576L14.8622 24.5769C14.5709 24.7172 14.1512 24.8003 13.7032 24.8003C13.2553 24.8003 12.8356 24.7172 12.5443 24.5769L12.5407 24.5752L1.85884 19.5331C1.71346 19.4628 1.63536 19.397 1.59866 19.354C1.59195 19.3462 1.58705 19.3397 1.5835 19.3345C1.58705 19.3293 1.59195 19.3228 1.59866 19.3149C1.63519 19.2722 1.71271 19.2067 1.85674 19.1369L12.4822 14.2519L12.4822 14.252L12.4903 14.2481C12.7816 14.1077 13.2013 14.0247 13.6493 14.0247C14.0973 14.0247 14.5169 14.1077 14.8082 14.2481L14.8082 14.2481L14.8164 14.2519L25.4418 19.1369C25.5859 19.2067 25.6634 19.2722 25.6999 19.3149C25.7066 19.3228 25.7115 19.3293 25.7151 19.3345C25.7115 19.3397 25.7066 19.3462 25.6999 19.354C25.6631 19.3971 25.5848 19.4631 25.4389 19.5335C25.4386 19.5336 25.4383 19.5337 25.4381 19.5339L14.864 24.576ZM1.57481 19.3188C1.57486 19.3188 1.57512 19.3194 1.57543 19.3206L1.57481 19.3188ZM1.57543 19.3484C1.57512 19.3495 1.57486 19.3501 1.57481 19.3501L1.57543 19.3484ZM25.7237 19.3501C25.7237 19.3501 25.7234 19.3495 25.7231 19.3484L25.7237 19.3501ZM25.7231 19.3206C25.7235 19.3194 25.7237 19.3188 25.7238 19.3188L25.7231 19.3206Z" fill="white" stroke="#00AE42"/>
<path d="M15.0792 25.0273C14.3238 25.3912 13.0827 25.3912 12.3273 25.0273L1.6435 19.9843C0.88808 19.6204 0.88808 19.0485 1.6435 18.6846L12.2733 13.7976C13.0288 13.4337 14.2698 13.4337 15.0252 13.7976L25.6551 18.6846C26.4105 19.0485 26.4105 19.6204 25.6551 19.9843L15.0792 25.0273Z" fill="white" stroke="#00AE42" stroke-miterlimit="10"/>
<path d="M15.0792 19.881C14.3238 20.2449 13.0827 20.2449 12.3273 19.881L1.6435 14.838C0.88808 14.4741 0.88808 13.9022 1.6435 13.5383L12.3273 8.70324C13.0827 8.33932 14.3238 8.33932 15.0792 8.70324L25.709 13.5902C26.4644 13.9542 26.4644 14.5261 25.709 14.89L15.0792 19.881Z" fill="#00AE42"/>
<path d="M15.0792 19.881C14.3238 20.2449 13.0827 20.2449 12.3273 19.881L1.6435 14.838C0.88808 14.4741 0.88808 13.9022 1.6435 13.5383L12.3273 8.70324C13.0827 8.33932 14.3238 8.33932 15.0792 8.70324L25.709 13.5902C26.4644 13.9542 26.4644 14.5261 25.709 14.89L15.0792 19.881Z" stroke="#00AE42" stroke-miterlimit="10"/>
<path d="M14.864 14.2821L14.8622 14.283C14.5709 14.4233 14.1512 14.5064 13.7032 14.5064C13.2553 14.5064 12.8356 14.4233 12.5443 14.283L12.5407 14.2813L1.85884 9.2392C1.71346 9.16895 1.63536 9.1031 1.59866 9.06015C1.59195 9.05231 1.58705 9.04579 1.5835 9.04059C1.58705 9.03538 1.59195 9.02887 1.59866 9.02102C1.63519 8.97829 1.7127 8.91287 1.85673 8.843L12.4822 3.95801L12.4822 3.95808L12.4903 3.95417C12.7816 3.81385 13.2013 3.73077 13.6493 3.73077C14.0973 3.73077 14.5169 3.81385 14.8082 3.95417L14.8082 3.95424L14.8164 3.95801L25.4418 8.843C25.5859 8.91287 25.6634 8.97829 25.6999 9.02102C25.7066 9.02887 25.7115 9.03538 25.7151 9.04059C25.7115 9.04579 25.7066 9.05231 25.6999 9.06015C25.6631 9.10318 25.5848 9.16919 25.4389 9.23959C25.4386 9.23973 25.4383 9.23986 25.4381 9.24L14.864 14.2821ZM1.57481 9.02492C1.57486 9.02493 1.57512 9.02552 1.57543 9.0267L1.57481 9.02492ZM1.57543 9.05448C1.57512 9.05566 1.57486 9.05625 1.57481 9.05625L1.57543 9.05448ZM25.7238 9.05625C25.7237 9.05628 25.7235 9.05569 25.7231 9.05448L25.7238 9.05625ZM25.7231 9.0267C25.7234 9.02552 25.7237 9.02492 25.7237 9.02492L25.7231 9.0267Z" fill="white" stroke="#00AE42"/>
<path d="M15.0792 14.7334C14.3238 15.0974 13.0827 15.0974 12.3273 14.7334L1.6435 9.69046C0.88808 9.32653 0.88808 8.75465 1.6435 8.39072L12.2733 3.50372C13.0288 3.13979 14.2698 3.13979 15.0252 3.50372L25.6551 8.39072C26.4105 8.75465 26.4105 9.32653 25.6551 9.69046L15.0792 14.7334Z" fill="white" stroke="#00AE42" stroke-miterlimit="10"/>
</svg>
