<svg width="28" height="28" viewBox="0 0 28 28" fill="none" xmlns="http://www.w3.org/2000/svg">
<path d="M15.0794 25.0272C14.324 25.3911 13.0829 25.3911 12.3275 25.0272L1.64371 19.9842C0.888293 19.6203 0.888293 19.0484 1.64371 18.6845L12.2736 13.7975C13.029 13.4336 14.27 13.4336 15.0254 13.7975L25.6553 18.6845C26.4107 19.0484 26.4107 19.6203 25.6553 19.9842L15.0794 25.0272Z" fill="#21A452"/>
<path fill-rule="evenodd" clip-rule="evenodd" d="M13.6495 14.0245C13.2015 14.0245 12.7818 14.1076 12.4906 14.2479L12.4824 14.2518L1.85696 19.1368C1.71292 19.2066 1.6354 19.272 1.59887 19.3148C1.59217 19.3226 1.58726 19.3291 1.58371 19.3344C1.58726 19.3396 1.59217 19.3461 1.59887 19.3539C1.63558 19.3969 1.71367 19.4627 1.85905 19.533L12.5409 24.575L12.5445 24.5767C12.8358 24.7171 13.2555 24.8001 13.7035 24.8001C14.1514 24.8001 14.5711 24.7171 14.8624 24.5767L14.8642 24.5759L25.4383 19.5338C25.4386 19.5336 25.438 19.5339 25.4383 19.5338C25.5842 19.4634 25.6633 19.3969 25.7001 19.3539C25.7068 19.3461 25.7117 19.3396 25.7153 19.3344C25.7117 19.3291 25.7068 19.3226 25.7001 19.3148C25.6636 19.272 25.5861 19.2066 25.442 19.1368L14.8084 14.248C14.5171 14.1077 14.0975 14.0245 13.6495 14.0245ZM25.724 19.35C25.7239 19.35 25.7237 19.3494 25.7233 19.3482L25.724 19.35ZM25.7233 19.3205C25.7237 19.3193 25.7239 19.3187 25.724 19.3187L25.7233 19.3205ZM1.57503 19.3187C1.57508 19.3187 1.57533 19.3193 1.57565 19.3205L1.57503 19.3187ZM1.57565 19.3482C1.57533 19.3494 1.57508 19.35 1.57503 19.35L1.57565 19.3482ZM15.2382 13.345C14.7747 13.1228 14.198 13.0245 13.6495 13.0245C13.1009 13.0245 12.5242 13.1228 12.0608 13.345L1.43486 18.2302L1.42671 18.234C0.991452 18.4437 0.577148 18.807 0.577148 19.3344C0.577148 19.8617 0.991452 20.225 1.42671 20.4347L12.1125 25.4786C12.5763 25.7015 13.154 25.8001 13.7035 25.8001C14.2533 25.8001 14.8314 25.7014 15.2954 25.4781C15.2957 25.478 15.2961 25.4778 15.2964 25.4776L25.8705 20.4355L25.8723 20.4347C26.3075 20.225 26.7218 19.8617 26.7218 19.3344C26.7218 18.807 26.3075 18.4437 25.8723 18.234L15.2382 13.345Z" fill="#36363C"/>
<path d="M15.0794 19.8808C14.324 20.2448 13.0829 20.2448 12.3275 19.8808L1.64371 14.8379C0.888293 14.4739 0.888293 13.9021 1.64371 13.5381L12.3275 8.70312C13.0829 8.33919 14.324 8.33919 15.0794 8.70312L25.7092 13.5901C26.4647 13.954 26.4647 14.5259 25.7092 14.8899L15.0794 19.8808Z" fill="#21A452"/>
<path fill-rule="evenodd" clip-rule="evenodd" d="M13.7035 8.93018C13.2555 8.93018 12.8358 9.01325 12.5445 9.15357L12.5337 9.15878L1.85571 13.991C1.71248 14.0607 1.6353 14.1258 1.59887 14.1684C1.59217 14.1763 1.58726 14.1828 1.58371 14.188C1.58726 14.1932 1.59217 14.1997 1.59887 14.2076C1.63558 14.2505 1.71367 14.3164 1.85905 14.3866L12.5409 19.4287L12.5445 19.4304C12.8358 19.5707 13.2555 19.6538 13.7035 19.6538C14.1514 19.6538 14.5711 19.5707 14.8624 19.4304L14.8669 19.4282L25.4922 14.4394C25.4929 14.4391 25.4936 14.4387 25.4944 14.4384C25.6394 14.3682 25.7174 14.3025 25.7541 14.2596C25.7608 14.2517 25.7657 14.2452 25.7692 14.24C25.7657 14.2348 25.7608 14.2283 25.7541 14.2204C25.7175 14.1777 25.64 14.1123 25.496 14.0424L14.8624 9.15365C14.5711 9.01332 14.1514 8.93018 13.7035 8.93018ZM25.7779 14.2557C25.7779 14.2556 25.7776 14.255 25.7773 14.2539L25.7779 14.2557ZM25.7773 14.2261C25.7776 14.2249 25.7779 14.2243 25.7779 14.2243L25.7773 14.2261ZM1.57503 14.1723C1.57508 14.1723 1.57533 14.1729 1.57565 14.1741L1.57503 14.1723ZM1.57565 14.2019C1.57533 14.2031 1.57508 14.2037 1.57503 14.2037L1.57565 14.2019ZM15.2921 8.25061C14.8287 8.02846 14.252 7.93018 13.7035 7.93018C13.1555 7.93018 12.5794 8.02826 12.1162 8.24993L1.43756 13.0826L1.42671 13.0877C0.991452 13.2974 0.577148 13.6606 0.577148 14.188C0.577148 14.7154 0.991452 15.0786 1.42671 15.2883L12.1124 20.3322C12.5762 20.5552 13.1539 20.6538 13.7035 20.6538C14.2528 20.6538 14.8303 20.5552 15.2941 20.3324C15.2948 20.332 15.2956 20.3317 15.2964 20.3313L25.9217 15.3425L25.9262 15.3403C26.3615 15.1306 26.7758 14.7674 26.7758 14.24C26.7758 13.7126 26.3615 13.3494 25.9262 13.1397L15.2921 8.25061Z" fill="#36363C"/>
<path d="M15.0794 14.7334C14.324 15.0973 13.0829 15.0973 12.3275 14.7334L1.64371 9.69039C0.888293 9.32647 0.888293 8.75458 1.64371 8.39066L12.2736 3.50366C13.029 3.13973 14.27 3.13973 15.0254 3.50366L25.6553 8.39066C26.4107 8.75458 26.4107 9.32647 25.6553 9.69039L15.0794 14.7334Z" fill="#21A452"/>
<path fill-rule="evenodd" clip-rule="evenodd" d="M13.6495 3.73071C13.2015 3.73071 12.7818 3.81378 12.4906 3.95411L12.4824 3.95802L1.85694 8.84294C1.71292 8.91281 1.6354 8.97822 1.59887 9.02096C1.59217 9.02881 1.58726 9.03532 1.58371 9.04053C1.58726 9.04573 1.59217 9.05225 1.59887 9.06009C1.63558 9.10304 1.71367 9.16888 1.85905 9.23914L12.5409 14.2812L12.5445 14.2829C12.8358 14.4232 13.2555 14.5063 13.7035 14.5063C14.1514 14.5063 14.5711 14.4232 14.8624 14.2829L14.8642 14.282L25.4383 9.23994C25.4386 9.2398 25.438 9.24008 25.4383 9.23994C25.5842 9.16954 25.6633 9.10312 25.7001 9.06009C25.7068 9.05225 25.7117 9.04572 25.7153 9.04052C25.7117 9.03532 25.7068 9.0288 25.7001 9.02096C25.6636 8.97823 25.5861 8.91281 25.4421 8.84294L14.8084 3.95418C14.5171 3.81386 14.0975 3.73071 13.6495 3.73071ZM25.724 9.05619C25.7239 9.0562 25.7237 9.05561 25.7233 9.05442L25.724 9.05619ZM25.7233 9.02664C25.7237 9.02547 25.7239 9.02488 25.724 9.02486L25.7233 9.02664ZM1.57503 9.02486C1.57508 9.02487 1.57533 9.02546 1.57565 9.02664L1.57503 9.02486ZM1.57565 9.05442C1.57533 9.05559 1.57508 9.05619 1.57503 9.05619L1.57565 9.05442ZM15.2381 3.05114C14.7747 2.829 14.198 2.73071 13.6495 2.73071C13.1009 2.73071 12.5242 2.829 12.0608 3.05114L1.43486 7.93637L1.42671 7.94021C0.991452 8.14989 0.577148 8.51315 0.577148 9.04053C0.577148 9.5679 0.991452 9.93116 1.42671 10.1408L12.1125 15.1848C12.5763 15.4077 13.154 15.5063 13.7035 15.5063C14.2533 15.5063 14.8314 15.4076 15.2954 15.1843C15.2957 15.1841 15.2961 15.184 15.2964 15.1838L25.8705 10.1417L25.8723 10.1408C26.3075 9.93116 26.7218 9.5679 26.7218 9.04053C26.7218 8.51315 26.3075 8.14989 25.8723 7.94021L15.2381 3.05114Z" fill="#36363C"/>
</svg>
