<svg xmlns="http://www.w3.org/2000/svg" viewBox="0 0 28 28"><path d="M26.81,5.65,15.62.67a4.06,4.06,0,0,0-3.24,0l-11.19,5A2,2,0,0,0,0,7.47V20.53a2,2,0,0,0,1.19,1.82l11.19,5a4.06,4.06,0,0,0,3.24,0l11.19-5A2,2,0,0,0,28,20.53V7.47A2,2,0,0,0,26.81,5.65Z" style="fill:#e7e7e7"/><path d="M14,14a2.13,2.13,0,0,0-.89.19A2.16,2.16,0,0,1,14,14Z" style="fill:#fff"/><path d="M14.89,14.19A2.13,2.13,0,0,0,14,14h0A2.16,2.16,0,0,1,14.89,14.19Z" style="fill:#fff"/><path d="M13.11,13.81A2.13,2.13,0,0,0,14,14h0A2.16,2.16,0,0,1,13.11,13.81Z" style="fill:#fff"/><path d="M14,14a2.13,2.13,0,0,0,.89-.19A2.13,2.13,0,0,1,14,14Z" style="fill:#fff"/><polygon points="14 14 14 14 14 14 14 14 14 14" style="fill:#fff"/><polygon points="14 14 14 14 14 14 14 14 14 14" style="fill:#fff"/><polygon points="14 14 14 14 14 14 14 14" style="fill:#fff"/><polygon points="14 14 14 14 14 14 14 14" style="fill:#fff"/><polygon points="14 14 14 14 14 14 14 14 14 14 14 14" style="fill:#009688"/><polygon points="14 14 14 14 14 14 14 14 14 14" style="fill:#009688"/><path d="M26.24,13.33,21.1,11l5.14-2.33a.73.73,0,0,0,0-1.34L14.89,2.19a2.18,2.18,0,0,0-1.78,0L1.76,7.33a.73.73,0,0,0,0,1.34L6.9,11,1.76,13.33a.73.73,0,0,0,0,1.34L6.9,17,1.76,19.33a.73.73,0,0,0,0,1.34l11.35,5.14a2.18,2.18,0,0,0,1.78,0l11.35-5.14a.73.73,0,0,0,0-1.34L21.1,17l5.14-2.33A.73.73,0,0,0,26.24,13.33Z" style="fill:#33aba1"/><path d="M13.73,12.44,3.91,8l9.82-4.44a.64.64,0,0,1,.54,0L24.09,8l-9.82,4.44a.64.64,0,0,1-.54,0Zm1.16,7.37a2.21,2.21,0,0,1-1.78,0l-4.39-2L3.91,20l9.82,4.44a.64.64,0,0,0,.54,0L24.09,20l-4.81-2.18Z" style="fill:#fff"/></svg>