<svg xmlns="http://www.w3.org/2000/svg" viewBox="0 0 28 28"><path d="M26.81,5.65,15.62.67a4.06,4.06,0,0,0-3.24,0l-11.19,5A2,2,0,0,0,0,7.47V20.53a2,2,0,0,0,1.19,1.82l11.19,5a4.06,4.06,0,0,0,3.24,0l11.19-5A2,2,0,0,0,28,20.53V7.47A2,2,0,0,0,26.81,5.65Z" style="fill:#54545a"/><path d="M26.24,20.67,14.89,25.81a2.21,2.21,0,0,1-1.78,0L1.76,20.67a.73.73,0,0,1,0-1.34l3.32-1.51,7.42,3.36a3.68,3.68,0,0,0,3,0l7.42-3.36,3.32,1.51A.73.73,0,0,1,26.24,20.67ZM1.76,8.67l11.35,5.14a2.21,2.21,0,0,0,1.78,0L26.24,8.67a.73.73,0,0,0,0-1.34L14.89,2.19a2.21,2.21,0,0,0-1.78,0L1.76,7.33A.73.73,0,0,0,1.76,8.67Zm24.48,4.66-3.32-1.51L15.5,15.18a3.68,3.68,0,0,1-3,0L5.08,11.82,1.76,13.33a.73.73,0,0,0,0,1.34l11.35,5.14a2.21,2.21,0,0,0,1.78,0l11.35-5.14A.73.73,0,0,0,26.24,13.33Z" style="fill:#009688"/></svg>