<svg xmlns="http://www.w3.org/2000/svg" width="28" height="28" viewBox="0 0 28 28"><path d="M26.812,5.647,15.625.675a4,4,0,0,0-3.25,0L1.188,5.647A2,2,0,0,0,0,7.475v13.05a2,2,0,0,0,1.188,1.828l11.187,4.972a4,4,0,0,0,3.25,0l11.187-4.972A2,2,0,0,0,28,20.525V7.475A2,2,0,0,0,26.812,5.647Z" style="fill:#fff"/><path d="M26.241,20.675,14.885,25.809a2.143,2.143,0,0,1-1.77,0L1.759,20.675a.741.741,0,0,1,0-1.35l3.323-1.5L12.5,21.176a3.648,3.648,0,0,0,3.006,0l7.415-3.353,3.323,1.5A.741.741,0,0,1,26.241,20.675Zm-24.482-12,11.356,5.134a2.143,2.143,0,0,0,1.77,0L26.241,8.675a.741.741,0,0,0,0-1.35L14.885,2.191a2.143,2.143,0,0,0-1.77,0L1.759,7.325A.741.741,0,0,0,1.759,8.675Zm24.482,4.65-3.323-1.5L15.5,15.176a3.648,3.648,0,0,1-3.006,0L5.082,11.823l-3.323,1.5a.741.741,0,0,0,0,1.35l11.356,5.134a2.143,2.143,0,0,0,1.77,0l11.356-5.134A.741.741,0,0,0,26.241,13.325Z" style="fill:#009688"/></svg>