<svg width="28" height="28" viewBox="0 0 28 28" fill="none" xmlns="http://www.w3.org/2000/svg">
<path d="M14.9248 23.4521C14.2773 23.764 13.2135 23.764 12.566 23.4521L3.40848 19.1295C2.76098 18.8176 2.76098 18.3274 3.40848 18.0155L12.5198 13.8266C13.1673 13.5147 14.231 13.5147 14.8785 13.8266L23.9898 18.0155C24.6373 18.3274 24.6373 18.8176 23.9898 19.1295L14.9248 23.4521Z" fill="#36363C"/>
<path fill-rule="evenodd" clip-rule="evenodd" d="M14.4944 22.5494L22.8213 18.5789L14.4526 14.7314L14.4445 14.7275C14.2936 14.6548 14.0247 14.5927 13.6991 14.5927C13.3736 14.5927 13.1047 14.6548 12.9538 14.7275L12.9457 14.7314L4.58084 18.5771L13 22.5511C13.1509 22.6238 13.4198 22.686 13.7454 22.686C14.071 22.686 14.3399 22.6239 14.4908 22.5512L14.4944 22.5494ZM3.40848 18.0155L12.5198 13.8266C13.1673 13.5147 14.231 13.5147 14.8785 13.8266L23.9898 18.0155C24.6373 18.3274 24.6373 18.8176 23.9898 19.1295L14.9248 23.4521C14.2773 23.764 13.2135 23.764 12.566 23.4521L3.40848 19.1295C2.76098 18.8176 2.76098 18.3274 3.40848 18.0155Z" fill="#21A452"/>
<path d="M14.9248 23.4521C14.2773 23.764 13.2135 23.764 12.566 23.4521L3.40848 19.1295C2.76098 18.8176 2.76098 18.3274 3.40848 18.0155L12.5198 13.8266C13.1673 13.5147 14.231 13.5147 14.8785 13.8266L23.9898 18.0155C24.6373 18.3274 24.6373 18.8176 23.9898 19.1295L14.9248 23.4521Z" fill="#36363C"/>
<path fill-rule="evenodd" clip-rule="evenodd" d="M13.6991 14.0927C13.3225 14.0927 12.9741 14.1627 12.7368 14.2771L12.7287 14.281L3.62176 18.4677C3.53932 18.5078 3.48649 18.5447 3.4544 18.5725C3.48676 18.6005 3.5402 18.6378 3.62384 18.6783L12.7794 22.9999L12.783 23.0016C13.0203 23.1159 13.3687 23.186 13.7454 23.186C14.1221 23.186 14.4704 23.1159 14.7078 23.0016L14.7096 23.0008L23.7728 18.6791C23.7731 18.6789 23.7725 18.6792 23.7728 18.6791C23.8569 18.6385 23.9114 18.6006 23.9439 18.5725C23.9118 18.5447 23.859 18.5078 23.7765 18.4677L14.6615 14.2771C14.4242 14.1628 14.0758 14.0927 13.6991 14.0927ZM15.0912 13.3741C14.6818 13.1779 14.1764 13.0927 13.6991 13.0927C13.2219 13.0927 12.7165 13.1779 12.3071 13.3741L3.19962 17.5612L3.19147 17.565C2.81018 17.7487 2.42285 18.0785 2.42285 18.5725C2.42285 19.0664 2.81018 19.3963 3.19147 19.58L12.3509 23.9034C12.7607 24.1004 13.2672 24.186 13.7454 24.186C14.224 24.186 14.7308 24.1003 15.1408 23.903C15.1411 23.9028 15.1415 23.9027 15.1418 23.9025L24.205 19.5808L24.2068 19.58C24.5881 19.3963 24.9754 19.0664 24.9754 18.5725C24.9754 18.0785 24.5881 17.7487 24.2068 17.565L15.0912 13.3741Z" fill="#21A452"/>
<path d="M14.9248 19.0409C14.2773 19.3529 13.2135 19.3529 12.566 19.0409L3.40848 14.7184C2.76098 14.4064 2.76098 13.9163 3.40848 13.6043L12.566 9.46003C13.2135 9.14809 14.2773 9.14809 14.9248 9.46003L24.0361 13.6489C24.6836 13.9608 24.6836 14.451 24.0361 14.7629L14.9248 19.0409Z" fill="#21A452"/>
<path fill-rule="evenodd" clip-rule="evenodd" d="M13.7454 9.72607C13.3687 9.72607 13.0203 9.79615 12.783 9.91048L12.7722 9.91568L3.62054 14.0572C3.53879 14.097 3.48633 14.1337 3.4544 14.1614C3.48676 14.1894 3.5402 14.2267 3.62384 14.2671L12.7794 18.5888L12.783 18.5905C13.0203 18.7048 13.3687 18.7749 13.7454 18.7749C14.1221 18.7749 14.4704 18.7048 14.7078 18.5905L14.7123 18.5883L23.8191 14.3125C23.8197 14.3122 23.8204 14.3118 23.8211 14.3115C23.9045 14.2711 23.9578 14.2339 23.9901 14.2059C23.958 14.1781 23.9052 14.1412 23.8228 14.1011L14.7077 9.91055C14.4704 9.79622 14.1221 9.72607 13.7454 9.72607ZM15.1375 9.0075C14.7281 8.81137 14.2227 8.72607 13.7454 8.72607C13.2687 8.72607 12.7639 8.81117 12.3548 9.00682L3.20233 13.1488L3.19147 13.1539C2.81018 13.3376 2.42285 13.6674 2.42285 14.1614C2.42285 14.6553 2.81018 14.9851 3.19147 15.1688L12.3508 19.4923C12.7607 19.6892 13.2672 19.7749 13.7454 19.7749C14.2234 19.7749 14.7297 19.6893 15.1394 19.4925C15.1402 19.4921 15.141 19.4918 15.1418 19.4914L24.2486 15.2155L24.2531 15.2134C24.6344 15.0297 25.0217 14.6999 25.0217 14.2059C25.0217 13.712 24.6344 13.3821 24.2531 13.1984L15.1375 9.0075Z" fill="#21A452"/>
<path d="M14.9248 14.6287C14.2773 14.9406 13.2135 14.9406 12.566 14.6287L3.40848 10.3062C2.76098 9.99422 2.76098 9.50403 3.40848 9.1921L12.5198 5.00324C13.1673 4.6913 14.231 4.6913 14.8785 5.00324L23.9898 9.1921C24.6373 9.50403 24.6373 9.99422 23.9898 10.3062L14.9248 14.6287Z" fill="#36363C"/>
<path fill-rule="evenodd" clip-rule="evenodd" d="M14.4944 13.7261L22.8213 9.75549L14.4526 5.90806L14.4445 5.90415C14.2936 5.83145 14.0247 5.76929 13.6991 5.76929C13.3736 5.76929 13.1047 5.83145 12.9538 5.90415L12.9457 5.90806L4.58084 9.75373L13 13.7278C13.1509 13.8005 13.4198 13.8627 13.7454 13.8627C14.071 13.8627 14.3399 13.8005 14.4908 13.7278L14.4944 13.7261ZM3.40848 9.1921L12.5198 5.00324C13.1673 4.6913 14.231 4.6913 14.8785 5.00324L23.9898 9.1921C24.6373 9.50403 24.6373 9.99422 23.9898 10.3062L14.9248 14.6287C14.2773 14.9406 13.2135 14.9406 12.566 14.6287L3.40848 10.3062C2.76098 9.99422 2.76098 9.50403 3.40848 9.1921Z" fill="#21A452"/>
<path d="M14.9248 14.6287C14.2773 14.9406 13.2135 14.9406 12.566 14.6287L3.40848 10.3062C2.76098 9.99422 2.76098 9.50403 3.40848 9.1921L12.5198 5.00324C13.1673 4.6913 14.231 4.6913 14.8785 5.00324L23.9898 9.1921C24.6373 9.50403 24.6373 9.99422 23.9898 10.3062L14.9248 14.6287Z" fill="#36363C"/>
<path fill-rule="evenodd" clip-rule="evenodd" d="M13.6991 5.26929C13.3225 5.26929 12.9741 5.33936 12.7368 5.45369L12.7287 5.4576L3.62178 9.64434C3.53932 9.6844 3.48649 9.72134 3.4544 9.74913C3.48676 9.77714 3.5402 9.81447 3.62384 9.85491L12.7794 14.1765L12.783 14.1783C13.0203 14.2926 13.3687 14.3627 13.7454 14.3627C14.1221 14.3627 14.4704 14.2926 14.7078 14.1783L14.7096 14.1774L23.7728 9.8557C23.7731 9.85557 23.7725 9.85584 23.7728 9.8557C23.8569 9.81512 23.9114 9.77723 23.9439 9.74912C23.9118 9.72134 23.859 9.6844 23.7765 9.64435L14.6615 5.45377C14.4242 5.33943 14.0758 5.26929 13.6991 5.26929ZM15.0912 4.55071C14.6818 4.35458 14.1764 4.26929 13.6991 4.26929C13.2219 4.26929 12.7165 4.35458 12.3071 4.55071L3.19962 8.73781L3.19147 8.74165C2.81018 8.92534 2.42285 9.25517 2.42285 9.74913C2.42285 10.2431 2.81018 10.5729 3.19147 10.7566L12.3509 15.0801C12.7607 15.277 13.2672 15.3627 13.7454 15.3627C14.224 15.3627 14.731 15.2769 15.141 15.0795C15.1408 15.0797 15.1413 15.0794 15.141 15.0795L24.205 10.7575L24.2068 10.7566C24.5881 10.5729 24.9754 10.2431 24.9754 9.74913C24.9754 9.25517 24.5881 8.92534 24.2068 8.74165L15.0912 4.55071Z" fill="#21A452"/>
</svg>
