<svg width="28" height="28" viewBox="0 0 28 28" fill="none" xmlns="http://www.w3.org/2000/svg">
<path d="M15.0792 25.0273C14.3238 25.3912 13.0827 25.3912 12.3273 25.0273L1.6435 19.9843C0.88808 19.6204 0.88808 19.0485 1.6435 18.6846L12.2733 13.7976C13.0288 13.4337 14.2698 13.4337 15.0252 13.7976L25.6551 18.6846C26.4105 19.0485 26.4105 19.6204 25.6551 19.9843L15.0792 25.0273Z" fill="#009688"/>
<path d="M15.0792 25.0273C14.3238 25.3912 13.0827 25.3912 12.3273 25.0273L1.6435 19.9843C0.88808 19.6204 0.88808 19.0485 1.6435 18.6846L12.2733 13.7976C13.0288 13.4337 14.2698 13.4337 15.0252 13.7976L25.6551 18.6846C26.4105 19.0485 26.4105 19.6204 25.6551 19.9843L15.0792 25.0273Z" stroke="white" stroke-miterlimit="10"/>
<path d="M15.0792 19.881C14.3238 20.2449 13.0827 20.2449 12.3273 19.881L1.6435 14.838C0.88808 14.4741 0.88808 13.9022 1.6435 13.5383L12.3273 8.70324C13.0827 8.33932 14.3238 8.33932 15.0792 8.70324L25.709 13.5902C26.4644 13.9542 26.4644 14.5261 25.709 14.89L15.0792 19.881Z" fill="#009688"/>
<path d="M15.0792 19.881C14.3238 20.2449 13.0827 20.2449 12.3273 19.881L1.6435 14.838C0.88808 14.4741 0.88808 13.9022 1.6435 13.5383L12.3273 8.70324C13.0827 8.33932 14.3238 8.33932 15.0792 8.70324L25.709 13.5902C26.4644 13.9542 26.4644 14.5261 25.709 14.89L15.0792 19.881Z" stroke="white" stroke-miterlimit="10"/>
<path d="M15.0792 14.7334C14.3238 15.0974 13.0827 15.0974 12.3273 14.7334L1.6435 9.69046C0.88808 9.32653 0.88808 8.75465 1.6435 8.39072L12.2733 3.50372C13.0288 3.13979 14.2698 3.13979 15.0252 3.50372L25.6551 8.39072C26.4105 8.75465 26.4105 9.32653 25.6551 9.69046L15.0792 14.7334Z" fill="#009688"/>
<path d="M15.0792 14.7334C14.3238 15.0974 13.0827 15.0974 12.3273 14.7334L1.6435 9.69046C0.88808 9.32653 0.88808 8.75465 1.6435 8.39072L12.2733 3.50372C13.0288 3.13979 14.2698 3.13979 15.0252 3.50372L25.6551 8.39072C26.4105 8.75465 26.4105 9.32653 25.6551 9.69046L15.0792 14.7334Z" stroke="white" stroke-miterlimit="10"/>
</svg>
