<svg width="28" height="28" viewBox="0 0 28 28" fill="none" xmlns="http://www.w3.org/2000/svg">
<path d="M14.7098 23.0006L14.708 23.0015C14.4707 23.1158 14.1223 23.1859 13.7456 23.1859C13.3689 23.1859 13.0206 23.1158 12.7832 23.0015L12.7797 22.9998L3.62405 18.6782C3.54042 18.6377 3.48697 18.6004 3.45461 18.5724C3.48671 18.5446 3.53953 18.5077 3.62197 18.4676L12.7288 14.2808L12.7289 14.2808L12.737 14.2769C12.9743 14.1626 13.3227 14.0925 13.6994 14.0925C14.076 14.0925 14.4244 14.1626 14.6617 14.2769L14.6617 14.277L14.6699 14.2808L23.7768 18.4676C23.8592 18.5076 23.912 18.5446 23.9441 18.5724C23.9116 18.6005 23.858 18.6379 23.7739 18.6785C23.7736 18.6787 23.7733 18.6788 23.773 18.6789L14.7098 23.0006Z" fill="white" stroke="#009688"/>
<path d="M14.925 23.4519C14.2775 23.7639 13.2137 23.7639 12.5662 23.4519L3.40869 19.1294C2.76119 18.8175 2.76119 18.3273 3.40869 18.0153L12.52 13.8265C13.1675 13.5145 14.2312 13.5145 14.8787 13.8265L23.99 18.0153C24.6375 18.3273 24.6375 18.8175 23.99 19.1294L14.925 23.4519Z" fill="white" stroke="#009688" stroke-miterlimit="10"/>
<path d="M14.925 19.0408C14.2775 19.3527 13.2137 19.3527 12.5662 19.0408L3.40869 14.7183C2.76119 14.4063 2.76119 13.9161 3.40869 13.6042L12.5662 9.4599C13.2137 9.14797 14.2775 9.14797 14.925 9.4599L24.0363 13.6488C24.6838 13.9607 24.6838 14.4509 24.0363 14.7628L14.925 19.0408Z" fill="#009688"/>
<path d="M14.925 19.0408C14.2775 19.3527 13.2137 19.3527 12.5662 19.0408L3.40869 14.7183C2.76119 14.4063 2.76119 13.9161 3.40869 13.6042L12.5662 9.4599C13.2137 9.14797 14.2775 9.14797 14.925 9.4599L24.0363 13.6488C24.6838 13.9607 24.6838 14.4509 24.0363 14.7628L14.925 19.0408Z" stroke="#009688" stroke-miterlimit="10"/>
<path d="M14.7098 14.1773L14.708 14.1782C14.4707 14.2925 14.1223 14.3626 13.7456 14.3626C13.3689 14.3626 13.0206 14.2925 12.7832 14.1782L12.7797 14.1765L3.62405 9.85485C3.54042 9.81441 3.48698 9.77708 3.45461 9.74907C3.48671 9.72128 3.53954 9.68434 3.62199 9.64428L12.7288 5.45747L12.7289 5.45754L12.737 5.45363C12.9743 5.3393 13.3227 5.26923 13.6994 5.26923C14.076 5.26923 14.4244 5.3393 14.6617 5.45363L14.6617 5.4537L14.6699 5.45747L23.7767 9.64429C23.8592 9.68434 23.912 9.72128 23.9441 9.74906C23.9116 9.77716 23.858 9.81465 23.7739 9.85523C23.7736 9.85537 23.7733 9.85551 23.773 9.85564L14.7098 14.1773Z" fill="white" stroke="#009688"/>
<path d="M14.925 14.6286C14.2775 14.9406 13.2137 14.9406 12.5662 14.6286L3.40869 10.3061C2.76119 9.99416 2.76119 9.50397 3.40869 9.19204L12.52 5.00318C13.1675 4.69124 14.2312 4.69124 14.8787 5.00318L23.99 9.19204C24.6375 9.50397 24.6375 9.99416 23.99 10.3061L14.925 14.6286Z" fill="white" stroke="#009688" stroke-miterlimit="10"/>
</svg>
