<svg xmlns="http://www.w3.org/2000/svg" width="64" height="64" viewBox="0 0 64 64"><rect width="64" height="64" rx="14" style="fill:#e9e9e9"/><path d="M20.788,52.368A144.238,144.238,0,0,1,0,50.058a13.978,13.978,0,0,0,.536,3.755C4.99,54.49,9.372,55.344,14.21,56.1c12.338-2,23.483-4.273,31.79-4.273a118.962,118.962,0,0,1,17.624,1.349A13.973,13.973,0,0,0,64,50V48.849C46.538,50.833,31.35,52.745,20.788,52.368Z" style="fill:#afd4d1"/><path d="M14.21,56.1a145,145,0,0,0,17.726,1.75c9.749.347,20.2-1.155,31.147-2.9a13.929,13.929,0,0,0,.541-1.773A118.962,118.962,0,0,0,46,51.828C37.693,51.828,26.548,54.1,14.21,56.1Z" style="fill:#83c5bf"/><path d="M.539,53.813a13.936,13.936,0,0,0,1.843,4c4.028-.5,7.985-1.088,11.828-1.712C9.372,55.344,4.99,54.49.539,53.813Z" style="fill:#21a397"/><path d="M31.936,57.851A145,145,0,0,1,14.21,56.1c-3.843.624-7.8,1.216-11.828,1.712a14.035,14.035,0,0,0,6.677,5.273c.582-.079,1.169-.163,1.774-.258,17.48-2.766,34.95-4.883,49.984-3.941a13.992,13.992,0,0,0,2.266-3.937C52.133,56.7,41.685,58.2,31.936,57.851Z" style="fill:#21a397"/><path d="M10.833,62.828c-.605.095-1.192.179-1.774.258A13.949,13.949,0,0,0,14,64H50a13.971,13.971,0,0,0,10.817-5.113C45.783,57.945,28.313,60.062,10.833,62.828Z" style="fill:#009789"/><path d="M14.525,50.21A19.7,19.7,0,0,0,28.407,56,19.944,19.944,0,0,0,42.543,22.037Z" style="fill:#292826"/><path d="M42.543,22.037,14.525,50.21l.06.059A220.451,220.451,0,0,0,47.062,29.132a19.957,19.957,0,0,0-4.519-7.1" style="fill:#009789"/><path d="M37.065,8A19.945,19.945,0,0,0,23.011,41.963L51.029,13.79A19.694,19.694,0,0,0,37.065,8" style="fill:#292826"/><path d="M37.065,8a19.639,19.639,0,0,0-10.341,2.927,22.77,22.77,0,0,0-5.91-.746,23.108,23.108,0,0,0-9.477,2.124.632.632,0,0,0,.13,1.191,13.515,13.515,0,0,1,8.068,5.138,20.071,20.071,0,0,0-1.441,15.044,19.89,19.89,0,0,1,2-3.487c1.82-2.5,3.743-3.8,6.585-5.724,2.094-1.416,5-3.077,13.36-6.512a28.421,28.421,0,0,0,6.12-2.821c1.4-.83,2.461-1.615,2.8-2.841.024-.087.046-.172.065-.256A19.648,19.648,0,0,0,37.065,8" style="fill:#262523"/><path d="M40.374,14.7c.727,1.285-.727,3.495-3.248,4.937s-5.154,1.568-5.881.283.728-3.5,3.249-4.937,5.154-1.568,5.88-.283" style="fill:#fff"/></svg>