<svg xmlns="http://www.w3.org/2000/svg" width="560" height="125" viewBox="0 0 560 125"><rect x="20" y="123" width="520" height="2" style="fill:#009789"/><rect x="20" y="21.218" width="80.564" height="80.564" rx="9.641" style="fill:#949494"/><path d="M37.422,84.605A24.791,24.791,0,0,0,54.9,91.893,25.106,25.106,0,0,0,72.692,49.14Z" style="fill:#292826"/><path d="M72.692,49.14,37.422,84.605l.077.074c12.356-6.3,29.275-17.378,40.882-26.607a25.109,25.109,0,0,0-5.689-8.932" style="fill:#009789"/><path d="M65.8,31.107A25.106,25.106,0,0,0,48.106,73.86L83.375,38.4A24.8,24.8,0,0,0,65.8,31.107" style="fill:#292826"/><path d="M65.8,31.107a24.717,24.717,0,0,0-13.018,3.684,28.655,28.655,0,0,0-7.439-.939,29.068,29.068,0,0,0-11.93,2.674.8.8,0,0,0,.163,1.5A17,17,0,0,1,43.73,44.493,25.268,25.268,0,0,0,41.915,63.43a25.038,25.038,0,0,1,2.517-4.389c2.29-3.147,4.712-4.785,8.289-7.2,2.636-1.783,6.3-3.874,16.817-8.2a35.756,35.756,0,0,0,7.7-3.551c1.759-1.045,3.1-2.033,3.521-3.577.03-.109.057-.216.082-.322A24.739,24.739,0,0,0,65.8,31.107" style="fill:#262523"/><path d="M69.962,39.535c.915,1.618-.916,4.4-4.089,6.215s-6.488,1.974-7.4.357.916-4.4,4.09-6.215,6.488-1.974,7.4-.357" style="fill:#949494"/><path d="M163.441,69.662a1.853,1.853,0,0,0-1.852,1.853V90.041a1.853,1.853,0,0,0,3.705,0V71.515A1.853,1.853,0,0,0,163.441,69.662Z" style="fill:#949494"/><path d="M212.049,69.662h-4.427a11.116,11.116,0,1,0,0,22.231h4.427a1.853,1.853,0,1,0,0-3.7h-4.427a7.411,7.411,0,1,1,0-14.821h4.427a1.853,1.853,0,1,0,0-3.7Z" style="fill:#949494"/><path d="M212.049,78.925h-5.386a1.853,1.853,0,0,0,0,3.7h5.386a1.853,1.853,0,1,0,0-3.7Z" style="fill:#949494"/><path d="M126.427,91.893h-8.974a1.842,1.842,0,0,1,0-3.684h8.974a2.795,2.795,0,1,0,0-5.589H122.09a6.479,6.479,0,0,1,0-12.958h7.335a1.842,1.842,0,0,1,0,3.684H122.09a2.795,2.795,0,1,0,0,5.589h4.337a6.479,6.479,0,0,1,0,12.958Z" style="fill:#949494"/><path d="M187.052,86.964a7.411,7.411,0,1,1-.008-12.378,1.857,1.857,0,0,0,2.344-.22h0a1.846,1.846,0,0,0-.247-2.833,11.115,11.115,0,1,0-.072,18.538,1.865,1.865,0,0,0,.32-2.88v0A1.852,1.852,0,0,0,187.052,86.964Z" style="fill:#949494"/><path d="M153.166,88.188h-5.354a4.637,4.637,0,0,1-4.631-4.632V71.514a1.853,1.853,0,0,0-3.706,0V83.556a8.346,8.346,0,0,0,8.337,8.337h5.354a1.853,1.853,0,1,0,0-3.7Z" style="fill:#949494"/><path d="M233.437,73.367h-1.853a7.417,7.417,0,0,0-7.407,7.346v9.328a1.853,1.853,0,0,1-3.7,0V80.713a11.126,11.126,0,0,1,11.112-11.051h1.853a1.853,1.853,0,0,1,0,3.7Z" style="fill:#949494"/><path d="M130.5,35.69A10.309,10.309,0,1,1,120.194,46,10.32,10.32,0,0,1,130.5,35.69m0-4.583A14.892,14.892,0,1,0,145.4,46,14.891,14.891,0,0,0,130.5,31.107Z" style="fill:#949494"/><path d="M233,31.107a2.291,2.291,0,0,0-2.291,2.291v1.869a14.892,14.892,0,1,0,0,21.463V58.6a2.292,2.292,0,0,0,4.583,0V33.4A2.292,2.292,0,0,0,233,31.107Zm-12.6,25.2A10.309,10.309,0,1,1,230.706,46,10.32,10.32,0,0,1,220.4,56.307Z" style="fill:#949494"/><path d="M169.147,31.107h-2.292A14.892,14.892,0,0,0,151.963,46V58.6a2.292,2.292,0,0,0,4.584,0V46A10.319,10.319,0,0,1,166.855,35.69h2.292a2.292,2.292,0,1,0,0-4.583Z" style="fill:#949494"/><path d="M196.605,54.5a10.309,10.309,0,1,1-.034-17.024,2.323,2.323,0,0,0,2.966-.236h0a2.309,2.309,0,0,0-.365-3.544,14.892,14.892,0,1,0,.03,24.586,2.3,2.3,0,0,0,.335-3.526l0,0A2.294,2.294,0,0,0,196.605,54.5Z" style="fill:#949494"/></svg>