<svg xmlns="http://www.w3.org/2000/svg" viewBox="0 0 562 238"><rect width="562" height="238" style="fill:#e9e9e9"/><path d="M562,114c-78.86,18-74.86,2-125.78,2-77.86,0-155.85,18.33-197.64,16.67S178.68,120,143.74,121,74.87,132,0,117v90H562Z" style="fill:#afd4d1"/><path d="M200.06,96.33A32.79,32.79,0,0,0,223.19,106,33.22,33.22,0,0,0,246.73,49.4Z" style="fill:#292826"/><path d="M246.73,49.4,200.06,96.33a.94.94,0,0,0,.1.1c16.35-8.34,38.74-23,54.1-35.21a33.18,33.18,0,0,0-7.53-11.82" style="fill:#009789"/><path d="M237.61,26A33.23,33.23,0,0,0,214.2,82.6l46.67-46.93A32.77,32.77,0,0,0,237.61,26" style="fill:#292826"/><path d="M237.61,26a32.68,32.68,0,0,0-17.23,4.88,37.72,37.72,0,0,0-9.84-1.25,38.49,38.49,0,0,0-15.79,3.54,1.06,1.06,0,0,0,.22,2,22.64,22.64,0,0,1,8.78,3.92,23.2,23.2,0,0,1,4.66,4.63A33.47,33.47,0,0,0,206,68.8,32.3,32.3,0,0,1,209.34,63c3-4.17,6.23-6.34,11-9.54,3.48-2.36,8.33-5.12,22.25-10.85a46.92,46.92,0,0,0,10.2-4.7c2.32-1.38,4.1-2.69,4.66-4.73,0-.14.07-.29.1-.43A32.77,32.77,0,0,0,237.61,26" style="fill:#262523"/><path d="M243.12,37.17c1.21,2.14-1.21,5.83-5.41,8.23s-8.59,2.61-9.8.47,1.22-5.82,5.42-8.22,8.58-2.62,9.79-.48" style="fill:#fff"/><path d="M562,124c-16,0-20-4-59-5s-53,12-103,12-70-12-111-12c-27.66,0-71,14-115,16s-68.2-6.78-103-13c-28-5-44-1.67-71,1v96H562Z" style="fill:#83c5bf"/><path d="M562,138c-89,10-109-13-160-12s-99.26,18.33-141.13,16.67S199,130,164,131,77,149,0,141v76H562Z" style="fill:#21a397"/><path d="M562,154.33C529,146.67,492,164,454,165s-76.33,2.62-111-6-80-3-125.33,5S160,154,129,152c-47.42-3.06-58,27-129,6v80H562Z" style="fill:#009789"/><rect x="271" y="35" width="25.05" height="33" rx="11" style="fill:none;stroke:#292826;stroke-miterlimit:10;stroke-width:4px"/><path d="M304,57a11,11,0,0,1,11-11" style="fill:none;stroke:#292826;stroke-miterlimit:10;stroke-width:4px;fill-rule:evenodd"/><path d="M336,68a11,11,0,0,1,0-22" style="fill:none;stroke:#292826;stroke-miterlimit:10;stroke-width:4px;fill-rule:evenodd"/><circle cx="359" cy="57" r="11" style="fill:none;stroke:#292826;stroke-miterlimit:10;stroke-width:4px"/><line x1="370" y1="46" x2="370" y2="68" style="fill:none;stroke:#292826;stroke-linecap:round;stroke-miterlimit:10;stroke-width:4px"/><line x1="336" y1="46" x2="340" y2="46" style="fill:none;stroke:#292826;stroke-linecap:round;stroke-miterlimit:10;stroke-width:4px"/><line x1="314" y1="46" x2="318" y2="46" style="fill:none;stroke:#292826;stroke-linecap:round;stroke-miterlimit:10;stroke-width:4px"/><line x1="336" y1="68" x2="340" y2="68" style="fill:none;stroke:#292826;stroke-linecap:round;stroke-miterlimit:10;stroke-width:4px"/><path d="M328,97a10,10,0,0,1,0-20" style="fill:none;stroke:#009789;stroke-linecap:round;stroke-linejoin:round;stroke-width:4px;fill-rule:evenodd"/><line x1="304" y1="57" x2="304" y2="68" style="fill:none;stroke:#292826;stroke-linecap:round;stroke-miterlimit:10;stroke-width:4px"/><path d="M292,88a9,9,0,0,0,9,9" style="fill:none;stroke:#009789;stroke-linecap:round;stroke-linejoin:round;stroke-width:4px;fill-rule:evenodd"/><line x1="292" y1="88" x2="292" y2="77" style="fill:none;stroke:#009789;stroke-linecap:round;stroke-linejoin:round;stroke-width:4px"/><path d="M358,86a9,9,0,0,1,9-9" style="fill:none;stroke:#009789;stroke-linecap:round;stroke-linejoin:round;stroke-width:4px;fill-rule:evenodd"/><line x1="358" y1="86" x2="358" y2="97" style="fill:none;stroke:#009789;stroke-linecap:round;stroke-linejoin:round;stroke-width:4px"/><line x1="311" y1="77" x2="311" y2="97" style="fill:none;stroke:#009789;stroke-linecap:round;stroke-linejoin:round;stroke-width:4px"/><path d="M270.93,94.07h0a10,10,0,0,0,12.71,1.19,3.56,3.56,0,0,0-.72-6.18l-9.84-4.16a3.56,3.56,0,0,1-.72-6.18A10,10,0,0,1,284,79" style="fill:none;stroke:#009789;stroke-linecap:round;stroke-linejoin:round;stroke-width:4px"/><line x1="328" y1="77" x2="331" y2="77" style="fill:none;stroke:#009789;stroke-linecap:round;stroke-linejoin:round;stroke-width:4px"/><line x1="328" y1="97" x2="331" y2="97" style="fill:none;stroke:#009789;stroke-linecap:round;stroke-linejoin:round;stroke-width:4px"/><path d="M347,97a10,10,0,0,1,0-20" style="fill:none;stroke:#009789;stroke-linecap:round;stroke-linejoin:round;stroke-width:4px;fill-rule:evenodd"/><line x1="347" y1="77" x2="350" y2="77" style="fill:none;stroke:#009789;stroke-linecap:round;stroke-linejoin:round;stroke-width:4px"/><line x1="345" y1="87" x2="350" y2="87" style="fill:none;stroke:#009789;stroke-linecap:round;stroke-linejoin:round;stroke-width:4px"/><line x1="347" y1="97" x2="350" y2="97" style="fill:none;stroke:#009789;stroke-linecap:round;stroke-linejoin:round;stroke-width:4px"/><line x1="301" y1="97" x2="304" y2="97" style="fill:none;stroke:#009789;stroke-linecap:round;stroke-linejoin:round;stroke-width:4px"/><line x1="367" y1="77" x2="370" y2="77" style="fill:none;stroke:#009789;stroke-linecap:round;stroke-linejoin:round;stroke-width:4px"/></svg>