<?xml version="1.0" encoding="UTF-8" standalone="no"?>
<svg
   width="24"
   height="302"
   viewBox="0 0 24 302"
   fill="none"
   version="1.1"
   id="svg14"
   xmlns="http://www.w3.org/2000/svg"
   xmlns:svg="http://www.w3.org/2000/svg">
  <defs
     id="defs14" />
  <path
     d="M 0.36895847,8.2161586 H 20.495973 V 1.5286532 H 20.6431 l 2.53059,1.265626 V 18.028666 H 23.026563 L 20.495973,16.76304 V 11.341161 H 1.6931042 L 0.36895847,8.3724087 Z"
     id="text18"
     style="font-weight:bold;font-size:31.0518px;font-family:'Nova Square';-inkscape-font-specification:'Nova Square Bold';writing-mode:tb-rl;fill:#b3b3b3;fill-rule:evenodd;stroke-width:13.8763;stroke-miterlimit:3.6"
     aria-label="T" />
  <path
     d="m 0.95746767,22.325545 q 0,-4.687504 4.41381913,-4.687504 h 7.3563652 q 4.413819,0 4.413819,4.687504 v 3.593752 q 0,4.687505 -4.413819,4.687505 H 11.947877 L 4.812203,20.809918 q -1.2064438,0.218751 -1.2064438,1.515627 v 3.593752 q 0,1.562501 1.7655276,1.562501 h 0.7797747 l 1.3241457,2.968754 v 0.15625 H 5.3712868 q -4.41381913,0 -4.41381913,-4.687505 z m 6.92969593,-1.562502 5.0906044,6.70313 q 1.515411,-0.09375 1.515411,-1.546876 v -3.593752 q 0,-1.562502 -1.765527,-1.562502 z"
     id="text17"
     style="font-weight:bold;font-size:31.0518px;font-family:'Nova Square';-inkscape-font-specification:'Nova Square Bold';writing-mode:tb-rl;fill:#b3b3b3;fill-rule:evenodd;stroke-width:13.8763;stroke-miterlimit:3.6"
     aria-label="e" />
  <path
     d="m 0.36895847,36.606806 v -0.156251 l 1.20644393,-2.718752 7.474067,4.843754 7.4593546,-4.843754 1.221156,2.734377 v 0.156251 l -6.282336,3.796877 6.282336,3.781253 v 0.15625 l -1.221156,2.734377 -7.4593546,-4.843753 -7.474067,4.843753 -1.20644393,-2.718752 v -0.15625 L 6.666007,40.419308 Z"
     id="text16"
     style="font-weight:bold;font-size:31.0518px;font-family:'Nova Square';-inkscape-font-specification:'Nova Square Bold';writing-mode:tb-rl;fill:#b3b3b3;fill-rule:evenodd;stroke-width:13.8763;stroke-miterlimit:3.6"
     aria-label="x" />
  <path
     d="M 0.36895847,52.747446 H 14.463754 v -4.015628 h 0.147128 l 2.530589,1.265626 v 2.750002 h 5.296583 l 1.324146,2.968752 v 0.15625 h -6.620729 v 4.015628 H 16.994343 L 14.463754,58.62245 V 55.872448 H 1.6931042 L 0.36895847,52.903696 Z"
     id="text15"
     style="font-weight:bold;font-size:31.0518px;font-family:'Nova Square';-inkscape-font-specification:'Nova Square Bold';writing-mode:tb-rl;fill:#b3b3b3;fill-rule:evenodd;stroke-width:13.8763;stroke-miterlimit:3.6"
     aria-label="t" />
  <path
     d="m 0.95746767,67.309956 q 0,-4.687505 4.41381913,-4.687505 H 16.405834 l 1.324146,2.968752 v 0.15625 H 5.3712868 q -1.7655276,0 -1.7655276,1.562503 v 3.593752 q 0,1.562501 1.7655276,1.562501 H 16.405834 l 1.324146,2.968753 v 0.15625 H 5.3712868 q -4.41381913,0 -4.41381913,-4.687504 z"
     id="text14"
     style="font-weight:bold;font-size:31.0518px;font-family:'Nova Square';-inkscape-font-specification:'Nova Square Bold';writing-mode:tb-rl;fill:#b3b3b3;fill-rule:evenodd;stroke-width:13.8763;stroke-miterlimit:3.6"
     aria-label="u" />
  <path
     d="M 0.36895847,80.278718 H 12.727652 q 4.413819,0 4.413819,4.687504 v 3.906253 h -0.147128 l -2.501164,-1.250001 v -2.656252 q 0,-1.562501 -1.765527,-1.562501 H 1.6931042 L 0.36895847,80.434968 Z"
     id="text13"
     style="font-weight:bold;font-size:31.0518px;font-family:'Nova Square';-inkscape-font-specification:'Nova Square Bold';writing-mode:tb-rl;fill:#b3b3b3;fill-rule:evenodd;stroke-width:13.8763;stroke-miterlimit:3.6"
     aria-label="r" />
  <path
     d="m 0.95746767,96.216231 q 0,-4.687503 4.41381913,-4.687503 h 7.3563652 q 4.413819,0 4.413819,4.687503 v 3.593753 q 0,4.687506 -4.413819,4.687506 H 11.947877 L 4.812203,94.700605 q -1.2064438,0.21875 -1.2064438,1.515626 v 3.593753 q 0,1.562506 1.7655276,1.562506 h 0.7797747 l 1.3241457,2.96875 v 0.15625 H 5.3712868 q -4.41381913,0 -4.41381913,-4.687506 z m 6.92969593,-1.562501 5.0906044,6.70313 q 1.515411,-0.0937 1.515411,-1.546876 v -3.593753 q 0,-1.562501 -1.765527,-1.562501 z"
     id="text12"
     style="font-weight:bold;font-size:31.0518px;font-family:'Nova Square';-inkscape-font-specification:'Nova Square Bold';writing-mode:tb-rl;fill:#b3b3b3;fill-rule:evenodd;stroke-width:13.8763;stroke-miterlimit:3.6"
     aria-label="e" />
  <path
     d="m 0.95746767,113.87248 q 0,-4.6875 4.41381913,-4.6875 h 7.3563652 q 4.413819,0 4.413819,4.6875 v 3.59376 q 0,1.0625 -0.456095,1.5625 h 5.752678 l 1.324146,2.96875 v 0.15625 H 5.3712868 q -4.41381913,0 -4.41381913,-4.6875 z m 2.64829153,0 v 3.59376 q 0,1.5625 1.7655276,1.5625 h 7.3563652 q 1.765527,0 1.765527,-1.5625 v -3.59376 q 0,-1.5625 -1.765527,-1.5625 H 5.3712868 q -1.7655276,0 -1.7655276,1.5625 z"
     id="text11"
     style="font-weight:bold;font-size:31.0518px;font-family:'Nova Square';-inkscape-font-specification:'Nova Square Bold';writing-mode:tb-rl;fill:#b3b3b3;fill-rule:evenodd;stroke-width:13.8763;stroke-miterlimit:3.6"
     aria-label="d" />
  <path
     d="m 0.95746767,146.37253 q 0,-5.46876 5.14945553,-5.46876 H 18.024235 q 5.149455,0 5.149455,5.46876 v 4.84376 q 0,5.46875 -5.149455,5.46875 h -1.618401 l -1.324145,-2.96875 v -0.15625 h 2.942546 q 2.501164,0 2.501164,-2.34375 v -4.84376 q 0,-2.34376 -2.501164,-2.34376 H 6.1069232 q -2.501164,0 -2.501164,2.34376 v 4.84376 q 0,2.34375 2.501164,2.34375 h 1.6184004 l 1.3241458,2.96875 v 0.15625 H 6.1069232 q -5.14945553,0 -5.14945553,-5.46875 z"
     id="text10"
     style="font-weight:bold;font-size:31.0518px;font-family:'Nova Square';-inkscape-font-specification:'Nova Square Bold';writing-mode:tb-rl;fill:#b3b3b3;fill-rule:evenodd;stroke-width:13.8763;stroke-miterlimit:3.6"
     aria-label="C" />
  <path
     d="m 3.6057592,166.84129 v 3.59376 q 0,1.5625 1.7655276,1.5625 h 7.3563652 q 1.765527,0 1.765527,-1.5625 v -3.59376 q 0,-1.5625 -1.765527,-1.5625 H 5.3712868 q -1.7655276,0 -1.7655276,1.5625 z m -2.64829153,0 q 0,-4.6875 4.41381913,-4.6875 h 7.3563652 q 4.413819,0 4.413819,4.6875 v 3.59376 q 0,4.6875 -4.413819,4.6875 H 5.3712868 q -4.41381913,0 -4.41381913,-4.6875 z"
     id="text9"
     style="font-weight:bold;font-size:31.0518px;font-family:'Nova Square';-inkscape-font-specification:'Nova Square Bold';writing-mode:tb-rl;fill:#b3b3b3;fill-rule:evenodd;stroke-width:13.8763;stroke-miterlimit:3.6"
     aria-label="o" />
  <path
     d="m 3.6057592,184.49756 v 3.59375 q 0,1.5625 1.7655276,1.5625 h 7.3563652 q 1.765527,0 1.765527,-1.5625 v -3.59375 q 0,-1.5625 -1.765527,-1.5625 H 5.3712868 q -1.7655276,0 -1.7655276,1.5625 z m -2.64829153,0 q 0,-4.68751 4.41381913,-4.68751 h 7.3563652 q 4.413819,0 4.413819,4.68751 v 3.59375 q 0,4.6875 -4.413819,4.6875 H 5.3712868 q -4.41381913,0 -4.41381913,-4.6875 z"
     id="text8"
     style="font-weight:bold;font-size:31.0518px;font-family:'Nova Square';-inkscape-font-specification:'Nova Square Bold';writing-mode:tb-rl;fill:#b3b3b3;fill-rule:evenodd;stroke-width:13.8763;stroke-miterlimit:3.6"
     aria-label="o" />
  <path
     d="M 0.36895847,198.24757 H 22.438054 l 1.324146,2.96875 v 0.15625 H 1.6931042 l -1.32414573,-2.96875 z"
     id="text7"
     style="font-weight:bold;font-size:31.0518px;font-family:'Nova Square';-inkscape-font-specification:'Nova Square Bold';writing-mode:tb-rl;fill:#b3b3b3;fill-rule:evenodd;stroke-width:13.8763;stroke-miterlimit:3.6"
     aria-label="l" />
  <path
     d="M 0.36895847,220.12259 H 22.438054 l 0.735636,1.65625 v 8.34375 q 0,5.46876 -5.149455,5.46876 h -4.413819 q -5.1494559,0 -5.1494559,-5.46876 v -6.875 H 1.6931042 l -1.32414573,-2.96875 z m 20.15644053,3.125 h -9.416147 v 6.875 q 0,2.34376 2.501164,2.34376 h 4.413819 q 2.501164,0 2.501164,-2.34376 z"
     id="text6"
     style="font-weight:bold;font-size:31.0518px;font-family:'Nova Square';-inkscape-font-specification:'Nova Square Bold';writing-mode:tb-rl;fill:#b3b3b3;fill-rule:evenodd;stroke-width:13.8763;stroke-miterlimit:3.6"
     aria-label="P" />
  <path
     d="M 0.36895847,241.0601 H 22.438054 l 1.324146,2.96875 v 0.15625 H 1.6931042 l -1.32414573,-2.96875 z"
     id="text5"
     style="font-weight:bold;font-size:31.0518px;font-family:'Nova Square';-inkscape-font-specification:'Nova Square Bold';writing-mode:tb-rl;fill:#b3b3b3;fill-rule:evenodd;stroke-width:13.8763;stroke-miterlimit:3.6"
     aria-label="l" />
  <path
     d="m 3.6057592,253.5601 v 3.28125 q 0,1.5625 1.7655276,1.5625 h 2.0156441 q 1.7655275,0 1.7655275,-1.5625 v -3.28125 q 0,-1.5625 -1.7655275,-1.5625 H 5.3712868 q -1.7655276,0 -1.7655276,1.5625 z m -2.64829153,0 q 0,-4.6875 4.41381913,-4.6875 h 2.0156441 q 4.4138191,0 4.4138191,4.6875 v 3.28125 q 0,0.81251 -0.441382,1.5625 h 1.368284 q 1.765527,0 1.765527,-1.5625 v -5.59375 h 0.147128 l 2.501164,1.25 v 4.34375 q 0,4.68751 -4.413819,4.68751 H 1.6931042 L 0.36895847,258.5601 v -0.15625 H 1.3988496 q -0.44138193,-0.59374 -0.44138193,-1.5625 z"
     id="text4"
     style="font-weight:bold;font-size:31.0518px;font-family:'Nova Square';-inkscape-font-specification:'Nova Square Bold';writing-mode:tb-rl;fill:#b3b3b3;fill-rule:evenodd;stroke-width:13.8763;stroke-miterlimit:3.6"
     aria-label="a" />
  <path
     d="M 0.36895847,268.27887 H 14.463754 v -4.01563 h 0.147128 l 2.530589,1.26562 v 2.75001 h 5.296583 l 1.324146,2.96875 v 0.15625 h -6.620729 v 4.01562 h -0.147128 l -2.530589,-1.26562 v -2.75 H 1.6931042 l -1.32414573,-2.96875 z"
     id="text3"
     style="font-weight:bold;font-size:31.0518px;font-family:'Nova Square';-inkscape-font-specification:'Nova Square Bold';writing-mode:tb-rl;fill:#b3b3b3;fill-rule:evenodd;stroke-width:13.8763;stroke-miterlimit:3.6"
     aria-label="t" />
  <path
     d="m 0.95746767,282.84136 q 0,-4.6875 4.41381913,-4.6875 h 7.3563652 q 4.413819,0 4.413819,4.6875 v 3.59376 q 0,4.6875 -4.413819,4.6875 h -0.779775 l -7.135674,-9.79688 q -1.2064438,0.21875 -1.2064438,1.51562 v 3.59376 q 0,1.5625 1.7655276,1.5625 h 0.7797747 l 1.3241457,2.96875 v 0.15625 H 5.3712868 q -4.41381913,0 -4.41381913,-4.6875 z m 6.92969593,-1.5625 5.0906044,6.70314 q 1.515411,-0.0938 1.515411,-1.54688 v -3.59376 q 0,-1.5625 -1.765527,-1.5625 z"
     id="text2"
     style="font-weight:bold;font-size:31.0518px;font-family:'Nova Square';-inkscape-font-specification:'Nova Square Bold';writing-mode:tb-rl;fill:#b3b3b3;fill-rule:evenodd;stroke-width:13.8763;stroke-miterlimit:3.6"
     aria-label="e" />
</svg>
