<?xml version="1.0" encoding="utf-8"?>
<!-- Generator: Adobe Illustrator 21.0.0, SVG Export Plug-In . SVG Version: 6.00 Build 0)  -->
<svg version="1.1"
	 id="svg2" inkscape:version="1.2.2 (732a01da63, 2022-12-09)" sodipodi:docname="OrcaSlicer_gray.svg" xmlns:inkscape="http://www.inkscape.org/namespaces/inkscape" xmlns:sodipodi="http://sodipodi.sourceforge.net/DTD/sodipodi-0.dtd" xmlns:svg="http://www.w3.org/2000/svg"
	 xmlns="http://www.w3.org/2000/svg" xmlns:xlink="http://www.w3.org/1999/xlink" x="0px" y="0px" viewBox="0 0 1024 1024"
	 style="enable-background:new 0 0 1024 1024;" xml:space="preserve">
<style type="text/css">
	.st0{fill:url(#rect457_1_);}
	.st1{fill:#FFFFFF;}
</style>
<sodipodi:namedview  bordercolor="#000000" borderopacity="0.25" id="namedview4" inkscape:current-layer="layer1" inkscape:cx="695.79307" inkscape:cy="981.46421" inkscape:deskcolor="#d1d1d1" inkscape:pagecheckerboard="0" inkscape:pageopacity="0.0" inkscape:showpageshadow="2" inkscape:window-height="1237" inkscape:window-maximized="0" inkscape:window-width="1350" inkscape:window-x="120" inkscape:window-y="83" inkscape:zoom="0.35355339" pagecolor="#ffffff" showgrid="false">
	</sodipodi:namedview>
<g id="layer1" transform="matrix(0.99895749,0,0,0.99799215,-0.93372196,0.06231743)" inkscape:groupmode="layer" inkscape:label="background">
	
		<linearGradient id="rect457_1_" gradientUnits="userSpaceOnUse" x1="2.8573" y1="1023.1736" x2="1026.4358" y2="-1.9028" gradientTransform="matrix(0.999 0 0 -0.998 -1.2105 1021.5778)">
		<stop  offset="0" style="stop-color:#434343"/>
		<stop  offset="1" style="stop-color:#616161"/>
	</linearGradient>
	
		<path id="rect457" inkscape:export-filename="..\..\..\a\OrcaSlicer\OrcaSlicer\resources\images\BambuStudio_192px_grayscale.png" inkscape:export-xdpi="18" inkscape:export-ydpi="18" class="st0" d="
		M2.9-0.1H1024c1.1,0,2,0.9,2,2V1024c0,1.1-0.9,2-2,2H2.9c-1.1,0-2-0.9-2-2V1.9C0.9,0.8,1.8-0.1,2.9-0.1z"/>
</g>
<g>
	<polygon class="st1" points="504.5,162.9 504.5,391.8 318.1,277.3 	"/>
	<polygon class="st1" points="519.8,162.9 519.8,391.8 706.3,277.3 	"/>
	<polygon class="st1" points="102.5,260.9 504.4,510.7 504.4,668.1 221.8,493.5 221.8,848.3 102.5,776.1 	"/>
	<polygon class="st1" points="237.4,519.9 498.2,680.5 237.4,841.5 	"/>
	<polygon class="st1" points="921.7,260.9 519.8,510.7 519.8,668.1 802.5,493.5 802.5,848.3 921.7,776.1 	"/>
	<polygon class="st1" points="786.8,519.9 526,680.5 786.8,841.5 	"/>
</g>
</svg>
