<svg xmlns="http://www.w3.org/2000/svg" width="562" height="238" viewBox="0 0 562 238"><rect width="562" height="238" style="fill:#e9e9e9"/><path d="M562,114c-78.86,18-74.857,2-125.776,2-77.862,0-155.852,18.333-197.649,16.667S178.682,120,143.744,121,74.867,132,0,117v90H562Z" style="fill:#afd4d1"/><path d="M200.756,95.355a31.889,31.889,0,0,0,22.481,9.376,32.3,32.3,0,0,0,22.891-55Z" style="fill:#292826"/><path d="M246.128,49.732,200.756,95.355l.1.095c15.9-8.108,37.661-22.355,52.593-34.228a32.3,32.3,0,0,0-7.319-11.49" style="fill:#009789"/><path d="M237.258,27A32.3,32.3,0,0,0,214.5,82l45.372-45.623A31.892,31.892,0,0,0,237.258,27" style="fill:#292826"/><path d="M237.258,27a31.81,31.81,0,0,0-16.747,4.739,36.886,36.886,0,0,0-9.57-1.207,37.4,37.4,0,0,0-15.348,3.44A1.024,1.024,0,0,0,195.8,35.9a21.885,21.885,0,0,1,13.065,8.319,32.506,32.506,0,0,0-2.333,24.363,32.28,32.28,0,0,1,3.237-5.647c2.947-4.048,6.062-6.156,10.664-9.269,3.39-2.293,8.1-4.983,21.634-10.546a46.022,46.022,0,0,0,9.911-4.568c2.263-1.345,3.985-2.615,4.531-4.6q.057-.21.105-.414A31.826,31.826,0,0,0,237.258,27" style="fill:#262523"/><path d="M242.617,37.843c1.177,2.081-1.179,5.66-5.261,7.995s-8.346,2.54-9.523.459,1.178-5.66,5.261-7.995,8.346-2.54,9.523-.459" style="fill:#fff"/><path d="M562,124c-16,0-20-4-59-5s-53,12-103,12-70-12-111-12c-27.659,0-71,14.04-115,16s-68.195-6.785-103-13c-28-5-44-1.667-71,1v96H562Z" style="fill:#83c5bf"/><path d="M562,138c-89,10-109-13-160-12s-99.258,18.333-141.129,16.667S199,130,164,131,77,149,0,141v76H562Z" style="fill:#21a397"/><path d="M562,154.333C529,146.667,492,164,454,165s-76.333,2.617-111-6-80-3-125.333,5S160,154,129,152c-47.42-3.059-58,27-129,6v80H562Z" style="fill:#009789"/><rect x="268" y="35" width="25.053" height="33" rx="11" style="fill:none;stroke:#292826;stroke-miterlimit:10;stroke-width:4px"/><path d="M301,57a11,11,0,0,1,11-11" style="fill:none;stroke:#292826;stroke-miterlimit:10;stroke-width:4px;fill-rule:evenodd"/><path d="M332,68a11,11,0,0,1,0-22" style="fill:none;stroke:#292826;stroke-miterlimit:10;stroke-width:4px;fill-rule:evenodd"/><circle cx="354" cy="57" r="11" style="fill:none;stroke:#292826;stroke-miterlimit:10;stroke-width:4px"/><line x1="365" y1="46" x2="365" y2="68" style="fill:none;stroke:#292826;stroke-linecap:round;stroke-miterlimit:10;stroke-width:4px"/><line x1="332" y1="46" x2="336" y2="46" style="fill:none;stroke:#292826;stroke-linecap:round;stroke-miterlimit:10;stroke-width:4px"/><line x1="311" y1="46" x2="315" y2="46" style="fill:none;stroke:#292826;stroke-linecap:round;stroke-miterlimit:10;stroke-width:4px"/><line x1="332" y1="68" x2="336" y2="68" style="fill:none;stroke:#292826;stroke-linecap:round;stroke-miterlimit:10;stroke-width:4px"/><path d="M324,97a10,10,0,0,1,0-20" style="fill:none;stroke:#009789;stroke-linecap:round;stroke-linejoin:round;stroke-width:4px;fill-rule:evenodd"/><line x1="301" y1="57" x2="301" y2="68" style="fill:none;stroke:#292826;stroke-linecap:round;stroke-miterlimit:10;stroke-width:4px"/><path d="M289,90a7,7,0,0,0,7,7" style="fill:none;stroke:#009789;stroke-linecap:round;stroke-linejoin:round;stroke-width:4px;fill-rule:evenodd"/><line x1="289" y1="90" x2="289" y2="77" style="fill:none;stroke:#009789;stroke-linecap:round;stroke-linejoin:round;stroke-width:4px"/><path d="M353,86a9,9,0,0,1,9-9" style="fill:none;stroke:#009789;stroke-linecap:round;stroke-linejoin:round;stroke-width:4px;fill-rule:evenodd"/><line x1="353" y1="86" x2="353" y2="97" style="fill:none;stroke:#009789;stroke-linecap:round;stroke-linejoin:round;stroke-width:4px"/><line x1="307" y1="77" x2="307" y2="97" style="fill:none;stroke:#009789;stroke-linecap:round;stroke-linejoin:round;stroke-width:4px"/><path d="M267.929,94.071h0a10,10,0,0,0,12.707,1.19,3.562,3.562,0,0,0-.716-6.183l-9.84-4.156a3.562,3.562,0,0,1-.716-6.183A10,10,0,0,1,281,79" style="fill:none;stroke:#009789;stroke-linecap:round;stroke-linejoin:round;stroke-width:4px"/><line x1="324" y1="77" x2="327" y2="77" style="fill:none;stroke:#009789;stroke-linecap:round;stroke-linejoin:round;stroke-width:4px"/><line x1="324" y1="97" x2="327" y2="97" style="fill:none;stroke:#009789;stroke-linecap:round;stroke-linejoin:round;stroke-width:4px"/><path d="M343,97a10,10,0,0,1,0-20" style="fill:none;stroke:#009789;stroke-linecap:round;stroke-linejoin:round;stroke-width:4px;fill-rule:evenodd"/><line x1="343" y1="77" x2="346" y2="77" style="fill:none;stroke:#009789;stroke-linecap:round;stroke-linejoin:round;stroke-width:4px"/><line x1="346" y1="87" x2="341" y2="87" style="fill:none;stroke:#009789;stroke-linecap:round;stroke-linejoin:round;stroke-width:4px"/><line x1="343" y1="97" x2="346" y2="97" style="fill:none;stroke:#009789;stroke-linecap:round;stroke-linejoin:round;stroke-width:4px"/><line x1="296" y1="97" x2="300" y2="97" style="fill:none;stroke:#009789;stroke-linecap:round;stroke-linejoin:round;stroke-width:4px"/><line x1="362" y1="77" x2="365" y2="77" style="fill:none;stroke:#009789;stroke-linecap:round;stroke-linejoin:round;stroke-width:4px"/></svg>