<svg xmlns="http://www.w3.org/2000/svg" viewBox="0 0 562 238"><rect width="562" height="238" style="fill:#e9e9e9"/><path d="M562,114c-78.86,18-74.86,2-125.78,2-77.86,0-155.85,18.33-197.64,16.67S178.68,120,143.74,121,74.87,132,0,117v90H562Z" style="fill:#afd4d1"/><path d="M200.76,95.35a31.85,31.85,0,0,0,22.48,9.38,32.3,32.3,0,0,0,22.89-55Z" style="fill:#292826"/><path d="M246.13,49.73,200.76,95.35l.09.1c15.9-8.11,37.67-22.35,52.6-34.23a32.35,32.35,0,0,0-7.32-11.49" style="fill:#009789"/><path d="M237.26,27A32.29,32.29,0,0,0,214.5,82l45.37-45.62A31.87,31.87,0,0,0,237.26,27" style="fill:#292826"/><path d="M237.26,27a31.78,31.78,0,0,0-16.75,4.74A36.86,36.86,0,0,0,195.59,34a1,1,0,0,0,.21,1.93,21.91,21.91,0,0,1,13.07,8.32,32.41,32.41,0,0,0-2.33,24.36,32.19,32.19,0,0,1,3.23-5.64c2.95-4,6.06-6.16,10.67-9.27,3.39-2.3,8.1-5,21.63-10.55A45.94,45.94,0,0,0,252,38.55c2.27-1.34,4-2.61,4.53-4.6,0-.14.08-.28.11-.41A31.84,31.84,0,0,0,237.26,27" style="fill:#262523"/><path d="M242.62,37.84c1.17,2.08-1.18,5.66-5.26,8s-8.35,2.54-9.53.46,1.18-5.66,5.26-8,8.35-2.54,9.53-.46" style="fill:#fff"/><path d="M562,124c-16,0-20-4-59-5s-53,12-103,12-70-12-111-12c-27.66,0-71,14-115,16s-68.2-6.78-103-13c-28-5-44-1.67-71,1v96H562Z" style="fill:#83c5bf"/><path d="M562,138c-89,10-109-13-160-12s-99.26,18.33-141.13,16.67S199,130,164,131,77,149,0,141v76H562Z" style="fill:#21a397"/><path d="M562,154.33C529,146.67,492,164,454,165s-76.33,2.62-111-6-80-3-125.33,5S160,154,129,152c-47.42-3.06-58,27-129,6v80H562Z" style="fill:#009789"/><rect x="268" y="35" width="25.05" height="33" rx="11" style="fill:none;stroke:#292826;stroke-miterlimit:10;stroke-width:4px"/><path d="M301,57a11,11,0,0,1,11-11" style="fill:none;stroke:#292826;stroke-miterlimit:10;stroke-width:4px;fill-rule:evenodd"/><path d="M332,68a11,11,0,0,1,0-22" style="fill:none;stroke:#292826;stroke-miterlimit:10;stroke-width:4px;fill-rule:evenodd"/><circle cx="354" cy="57" r="11" style="fill:none;stroke:#292826;stroke-miterlimit:10;stroke-width:4px"/><line x1="365" y1="46" x2="365" y2="68" style="fill:none;stroke:#292826;stroke-linecap:round;stroke-miterlimit:10;stroke-width:4px"/><line x1="332" y1="46" x2="336" y2="46" style="fill:none;stroke:#292826;stroke-linecap:round;stroke-miterlimit:10;stroke-width:4px"/><line x1="311" y1="46" x2="315" y2="46" style="fill:none;stroke:#292826;stroke-linecap:round;stroke-miterlimit:10;stroke-width:4px"/><line x1="332" y1="68" x2="336" y2="68" style="fill:none;stroke:#292826;stroke-linecap:round;stroke-miterlimit:10;stroke-width:4px"/><path d="M324,97a10,10,0,0,1,0-20" style="fill:none;stroke:#009789;stroke-linecap:round;stroke-linejoin:round;stroke-width:4px;fill-rule:evenodd"/><line x1="301" y1="57" x2="301" y2="68" style="fill:none;stroke:#292826;stroke-linecap:round;stroke-miterlimit:10;stroke-width:4px"/><path d="M289,90a7,7,0,0,0,7,7" style="fill:none;stroke:#009789;stroke-linecap:round;stroke-linejoin:round;stroke-width:4px;fill-rule:evenodd"/><line x1="289" y1="90" x2="289" y2="77" style="fill:none;stroke:#009789;stroke-linecap:round;stroke-linejoin:round;stroke-width:4px"/><path d="M353,86a9,9,0,0,1,9-9" style="fill:none;stroke:#009789;stroke-linecap:round;stroke-linejoin:round;stroke-width:4px;fill-rule:evenodd"/><line x1="353" y1="86" x2="353" y2="97" style="fill:none;stroke:#009789;stroke-linecap:round;stroke-linejoin:round;stroke-width:4px"/><line x1="307" y1="77" x2="307" y2="97" style="fill:none;stroke:#009789;stroke-linecap:round;stroke-linejoin:round;stroke-width:4px"/><path d="M267.93,94.07h0a10,10,0,0,0,12.71,1.19,3.56,3.56,0,0,0-.72-6.18l-9.84-4.16a3.56,3.56,0,0,1-.72-6.18A10,10,0,0,1,281,79" style="fill:none;stroke:#009789;stroke-linecap:round;stroke-linejoin:round;stroke-width:4px"/><line x1="324" y1="77" x2="327" y2="77" style="fill:none;stroke:#009789;stroke-linecap:round;stroke-linejoin:round;stroke-width:4px"/><line x1="324" y1="97" x2="327" y2="97" style="fill:none;stroke:#009789;stroke-linecap:round;stroke-linejoin:round;stroke-width:4px"/><path d="M343,97a10,10,0,0,1,0-20" style="fill:none;stroke:#009789;stroke-linecap:round;stroke-linejoin:round;stroke-width:4px;fill-rule:evenodd"/><line x1="343" y1="77" x2="346" y2="77" style="fill:none;stroke:#009789;stroke-linecap:round;stroke-linejoin:round;stroke-width:4px"/><line x1="346" y1="87" x2="341" y2="87" style="fill:none;stroke:#009789;stroke-linecap:round;stroke-linejoin:round;stroke-width:4px"/><line x1="343" y1="97" x2="346" y2="97" style="fill:none;stroke:#009789;stroke-linecap:round;stroke-linejoin:round;stroke-width:4px"/><line x1="296" y1="97" x2="300" y2="97" style="fill:none;stroke:#009789;stroke-linecap:round;stroke-linejoin:round;stroke-width:4px"/><line x1="362" y1="77" x2="365" y2="77" style="fill:none;stroke:#009789;stroke-linecap:round;stroke-linejoin:round;stroke-width:4px"/></svg>