<?xml version="1.0" encoding="UTF-8"?><svg id="a" xmlns="http://www.w3.org/2000/svg" width="560" height="125" viewBox="0 0 560 125"><rect id="b" x="20" y="123" width="520" height="2" style="fill:#009789;"/><g id="c"><rect id="d" x="20" y="21.22" width="80.56" height="80.56" rx="9.64" ry="9.64" style="fill:#949494;"/></g><g id="e"><path id="f" d="M37.42,84.6c4.49,4.48,10.66,7.26,17.48,7.29,13.8.06,25.1-11.3,25.04-25.18-.03-6.86-2.79-13.06-7.25-17.57l-35.27,35.46Z" style="fill:#292826;"/></g><g id="g"><path id="h" d="M72.69,49.14l-35.27,35.46s.05.05.08.07c12.36-6.3,29.28-17.38,40.88-26.61-1.25-3.38-3.21-6.42-5.69-8.93" style="fill:#009789;"/></g><g id="i"><path id="j" d="M65.8,31.11c-13.77,0-24.94,11.23-24.94,25.08,0,6.9,2.77,13.14,7.25,17.68l35.27-35.46c-4.51-4.5-10.72-7.29-17.58-7.29" style="fill:#292826;"/></g><g id="k"><path id="l" d="M65.8,31.11c-4.77,0-9.23,1.35-13.02,3.68-2.03-.53-4.55-.96-7.44-.94-5.04.03-9.14,1.4-11.93,2.67-.69.32-.58,1.34.16,1.5,1.83.39,4.25,1.2,6.64,2.97,1.51,1.11,2.66,2.35,3.52,3.5-1.83,3.49-2.87,7.47-2.87,11.69,0,2.52.37,4.95,1.06,7.25,1.05-2.34,2.16-3.9,2.52-4.39,2.29-3.15,4.71-4.79,8.29-7.2,2.64-1.78,6.3-3.87,16.82-8.2,0,0,3.29-.93,7.7-3.55,1.76-1.05,3.1-2.03,3.52-3.58.03-.11.06-.22.08-.32-4.18-3.19-9.4-5.08-15.05-5.08" style="fill:#262523;"/></g><g id="m"><path id="n" d="M69.96,39.54c.91,1.62-.92,4.4-4.09,6.21-3.17,1.81-6.49,1.97-7.4.36-.91-1.62.92-4.4,4.09-6.21,3.17-1.81,6.49-1.97,7.4-.36" style="fill:#949494;"/></g><path d="M163.44,69.66c-1.02,0-1.85.83-1.85,1.85v18.53c0,1.02.83,1.85,1.85,1.85s1.85-.83,1.85-1.85v-18.53c0-1.02-.83-1.85-1.85-1.85Z" style="fill:#949494;"/><path d="M212.05,69.66h-4.43c-6.13,0-11.12,4.99-11.12,11.12s4.99,11.12,11.12,11.12h4.43c1.02,0,1.85-.83,1.85-1.85s-.83-1.85-1.85-1.85h-4.43c-4.09,0-7.41-3.32-7.41-7.41s3.32-7.41,7.41-7.41h4.43c1.02,0,1.85-.83,1.85-1.85s-.83-1.85-1.85-1.85Z" style="fill:#949494;"/><path d="M212.05,78.93h-5.39c-1.02,0-1.85.83-1.85,1.85s.83,1.85,1.85,1.85h5.39c1.02,0,1.85-.83,1.85-1.85s-.83-1.85-1.85-1.85Z" style="fill:#949494;"/><path d="M126.43,91.89h-8.97c-1.02,0-1.84-.83-1.84-1.84s.82-1.84,1.84-1.84h8.97c1.54,0,2.8-1.25,2.8-2.8s-1.25-2.79-2.8-2.79h-4.34c-3.57,0-6.48-2.91-6.48-6.48s2.91-6.48,6.48-6.48h7.34c1.02,0,1.84.83,1.84,1.84s-.82,1.84-1.84,1.84h-7.34c-1.54,0-2.8,1.25-2.8,2.8s1.25,2.79,2.8,2.79h4.34c3.57,0,6.48,2.91,6.48,6.48s-2.91,6.48-6.48,6.48Z" style="fill:#949494;"/><path d="M187.05,86.96c-1.5.99-3.37,1.45-5.36,1.12-3.01-.51-5.44-2.9-6-5.89-.87-4.7,2.73-8.82,7.28-8.82,1.5,0,2.9.45,4.07,1.22.74.49,1.72.41,2.34-.22h0c.82-.82.71-2.19-.25-2.83-2.13-1.43-4.79-2.14-7.61-1.78-5.01.64-9.03,4.72-9.59,9.73-.76,6.7,4.49,12.41,11.04,12.41,2.25,0,4.34-.67,6.09-1.82.99-.65,1.16-2.04.32-2.88h0c-.63-.63-1.6-.71-2.34-.23Z" style="fill:#949494;"/><path d="M153.17,88.19h-5.35c-2.55,0-4.63-2.08-4.63-4.63v-12.04c0-1.02-.83-1.85-1.85-1.85s-1.85.83-1.85,1.85v12.04c0,4.6,3.74,8.34,8.34,8.34h5.35c1.02,0,1.85-.83,1.85-1.85s-.83-1.85-1.85-1.85Z" style="fill:#949494;"/><path d="M233.44,73.37h-1.85c-4.06,0-7.37,3.29-7.41,7.35v9.33c0,1.02-.83,1.85-1.85,1.85s-1.85-.83-1.85-1.85v-9.33c.04-6.1,5.01-11.05,11.11-11.05h1.85c1.02,0,1.85.83,1.85,1.85s-.83,1.85-1.85,1.85Z" style="fill:#949494;"/><path d="M130.5,35.69c5.68,0,10.31,4.62,10.31,10.31s-4.62,10.31-10.31,10.31-10.31-4.62-10.31-10.31,4.62-10.31,10.31-10.31M130.5,31.11c-8.22,0-14.89,6.67-14.89,14.89s6.67,14.89,14.89,14.89,14.89-6.67,14.89-14.89-6.67-14.89-14.89-14.89h0Z" style="fill:#009789;"/><path d="M233,31.11c-1.27,0-2.29,1.03-2.29,2.29v1.87c-2.68-2.57-6.3-4.16-10.31-4.16-8.22,0-14.89,6.67-14.89,14.89s6.67,14.89,14.89,14.89c4,0,7.63-1.59,10.31-4.16v1.87c0,1.27,1.03,2.29,2.29,2.29s2.29-1.03,2.29-2.29v-25.2c0-1.27-1.03-2.29-2.29-2.29ZM220.4,56.31c-5.68,0-10.31-4.62-10.31-10.31s4.62-10.31,10.31-10.31,10.31,4.62,10.31,10.31-4.62,10.31-10.31,10.31Z" style="fill:#009789;"/><path d="M169.15,31.11h-2.29c-8.22,0-14.89,6.67-14.89,14.89v12.6c0,1.27,1.03,2.29,2.29,2.29s2.29-1.03,2.29-2.29v-12.6c0-5.68,4.62-10.31,10.31-10.31h0s2.29,0,2.29,0c1.27,0,2.29-1.03,2.29-2.29s-1.03-2.29-2.29-2.29Z" style="fill:#009789;"/><path d="M196.61,54.5c-2,1.37-4.5,2.06-7.17,1.72-4.64-.59-8.37-4.38-8.9-9.03-.7-6.22,4.16-11.51,10.24-11.51,2.15,0,4.14.66,5.79,1.78.93.63,2.17.56,2.97-.24h0c1.03-1.03.84-2.72-.36-3.54-2.77-1.9-6.22-2.88-9.91-2.51-6.9.68-12.51,6.21-13.28,13.1-1.01,8.99,6.01,16.61,14.8,16.61,3.13,0,6.03-.96,8.42-2.61,1.19-.82,1.35-2.51.33-3.53h0c-.79-.79-2.01-.89-2.93-.26Z" style="fill:#009789;"/></svg>