<?xml version="1.0" encoding="utf-8"?>
<!-- Generator: Adobe Illustrator 21.0.0, SVG Export Plug-In . SVG Version: 6.00 Build 0)  -->
<svg version="1.1"
	 id="svg526" inkscape:version="1.2.2 (732a01da63, 2022-12-09)" sodipodi:docname="BambuStudio_about.svg" xmlns:inkscape="http://www.inkscape.org/namespaces/inkscape" xmlns:sodipodi="http://sodipodi.sourceforge.net/DTD/sodipodi-0.dtd" xmlns:svg="http://www.w3.org/2000/svg"
	 xmlns="http://www.w3.org/2000/svg" xmlns:xlink="http://www.w3.org/1999/xlink" x="0px" y="0px" viewBox="0 0 562 238"
	 style="enable-background:new 0 0 562 238;" xml:space="preserve">
<style type="text/css">
	.st0{fill:#4D4D4D;}
	.st1{opacity:0.2;}
	.st2{fill:none;stroke:#FFFFFF;stroke-width:1.5;stroke-miterlimit:10;}
	.st3{opacity:0.5;}
	.st4{fill:#F9F9F9;fill-opacity:0.8;stroke:#1A1A1A;stroke-width:1.1931;}
	.st5{fill:#F9F9F9;fill-opacity:0.8;stroke:#1A1A1A;stroke-width:0.8572;}
	.st6{fill:#B2B2B2;fill-opacity:0.8;stroke:#1A1A1A;stroke-width:1.1931;}
</style>
<sodipodi:namedview  bordercolor="#000000" borderopacity="0.25" id="namedview528" inkscape:current-layer="svg526" inkscape:cx="278.75055" inkscape:cy="104.93173" inkscape:deskcolor="#d1d1d1" inkscape:pagecheckerboard="0" inkscape:pageopacity="0.0" inkscape:showpageshadow="2" inkscape:window-height="1369" inkscape:window-maximized="1" inkscape:window-width="3440" inkscape:window-x="-8" inkscape:window-y="-8" inkscape:zoom="12.179348" pagecolor="#ffffff" showgrid="false">
	</sodipodi:namedview>
<rect id="rect366" x="1" y="1" class="st0" width="560" height="237"/>
<g id="g408" class="st1">
	<path id="path368" class="st2" d="M19.2,8.7v16.7l17.9-6.7V2L19.2,8.7z"/>
	<path id="path370" class="st2" d="M19.2,8.7v16.7L1,18.7V2L19.2,8.7z"/>
	<path id="path372" class="st2" d="M90.9,8.7v16.7L73,18.7V2L90.9,8.7z"/>
	<path id="path374" class="st2" d="M127.4,8.7v16.7l17.9-6.7V2L127.4,8.7z"/>
	<path id="path376" class="st2" d="M19.2,25.5v16.7L1,35.5V18.8L19.2,25.5z"/>
	<path id="path378" class="st2" d="M19.2,58.7v17.1l17.9-6.9V51.8L19.2,58.7z"/>
	<path id="path380" class="st2" d="M55.4,25.5v16.7L73,35.5V18.8L55.4,25.5z"/>
	<path id="path382" class="st2" d="M90.9,42.3v16.5L73,52.1V35.6L90.9,42.3z"/>
	<path id="path384" class="st2" d="M90.9,96v16.5L73,105.9V89.4L90.9,96z"/>
	<path id="path386" class="st2" d="M55.4,25.6v16.9l-18.2-6.8V18.8L55.4,25.6z"/>
	<path id="path388" class="st2" d="M55.4,42.4V59l-18.2-6.7V35.6L55.4,42.4z"/>
	<path id="path390" class="st2" d="M127.4,42.3v16.5l17.9-6.6V35.6L127.4,42.3z"/>
	<path id="path392" class="st2" d="M163.3,25.5v16.7l-17.9-6.7V18.8L163.3,25.5z"/>
	<path id="path394" class="st2" d="M127.4,75.5v16.9l17.9-6.8v-17L127.4,75.5z"/>
	<path id="path396" class="st2" d="M163.3,42.2v17.1l-17.9-6.9V35.5L163.3,42.2z"/>
	<path id="path398" class="st2" d="M90.9,58.7v17.1l17.9-6.9V51.8L90.9,58.7z"/>
	<path id="path400" class="st2" d="M199.4,25.5v16.7l-18.2-6.7V18.8L199.4,25.5z"/>
	<path id="path402" class="st2" d="M127.4,25.5v16.7l-18.5-6.7V18.8L127.4,25.5z"/>
	<path id="path404" class="st2" d="M199.4,58.7v17.1l-18.2-6.9V51.8L199.4,58.7z"/>
	<path id="path406" class="st2" d="M163.3,8.7v16.5l17.9-6.6V2L163.3,8.7z"/>
</g>
<g id="g458" class="st1">
	<path id="path410" class="st2" d="M235.8,8.7v16.7l17.9-6.7V2L235.8,8.7z"/>
	<path id="path412" class="st2" d="M235.8,8.7v16.7l-18.2-6.7V2L235.8,8.7z"/>
	<path id="path414" class="st2" d="M307.5,8.7v16.7l-17.9-6.7V2L307.5,8.7z"/>
	<path id="path416" class="st2" d="M343.9,8.7v16.7l17.9-6.7V2L343.9,8.7z"/>
	<path id="path418" class="st2" d="M199.6,42.3v16.5l17.9-6.6V35.6L199.6,42.3z"/>
	<path id="path420" class="st2" d="M235.8,25.5v16.7l-18.2-6.7V18.8L235.8,25.5z"/>
	<path id="path422" class="st2" d="M235.8,58.7v17.1l17.9-6.9V51.8L235.8,58.7z"/>
	<path id="path424" class="st2" d="M271.9,25.5v16.7l17.6-6.7V18.8L271.9,25.5z"/>
	<path id="path426" class="st2" d="M307.5,42.3v16.5l-17.9-6.6V35.6L307.5,42.3z"/>
	<path id="path428" class="st2" d="M307.5,76.8v16.5l-17.9-6.6V70.2L307.5,76.8z"/>
	<path id="path430" class="st2" d="M271.9,25.6v16.9l-18.2-6.8V18.8L271.9,25.6z"/>
	<path id="path432" class="st2" d="M271.9,42.4V59l-18.2-6.7V35.6L271.9,42.4z"/>
	<path id="path434" class="st2" d="M343.9,42.3v16.5l17.9-6.6V35.6L343.9,42.3z"/>
	<path id="path436" class="st2" d="M379.8,25.5v16.7l-17.9-6.7V18.8L379.8,25.5z"/>
	<path id="path438" class="st2" d="M343.9,75.5v16.9l17.9-6.8v-17L343.9,75.5z"/>
	<path id="path440" class="st2" d="M379.8,42.2v17.1l-17.9-6.9V35.5L379.8,42.2z"/>
	<path id="path442" class="st2" d="M307.5,58.7v17.1l17.9-6.9V51.8L307.5,58.7z"/>
	<path id="path444" class="st2" d="M415.9,25.5v16.7l-18.2-6.7V18.8L415.9,25.5z"/>
	<path id="path446" class="st2" d="M379.8,58.7v17.1l17.9-6.9V51.8L379.8,58.7z"/>
	<path id="path448" class="st2" d="M379.8,98.4v17.1l17.9-6.9V91.5L379.8,98.4z"/>
	<path id="path450" class="st2" d="M343.9,25.5v16.7l-18.5-6.7V18.8L343.9,25.5z"/>
	<path id="path452" class="st2" d="M415.9,58.7v17.1l-18.2-6.9V51.8L415.9,58.7z"/>
	<path id="path454" class="st2" d="M455.5,113.5v17.1l-18.2-6.9v-17.1L455.5,113.5z"/>
	<path id="path456" class="st2" d="M379.8,8.7v16.5l17.9-6.6V2L379.8,8.7z"/>
</g>
<g id="g470" class="st3">
	<g id="g468" class="st1">
		<path id="path460" class="st2" d="M452.9,8.7v16.7l-18.2-6.7V2L452.9,8.7z"/>
		<path id="path462" class="st2" d="M416.8,42.3v16.5l17.9-6.6V35.6L416.8,42.3z"/>
		<path id="path464" class="st2" d="M416.8,75.2v16.5l17.9-6.6V68.6L416.8,75.2z"/>
		<path id="path466" class="st2" d="M452.9,25.5v16.7l-18.2-6.7V18.8L452.9,25.5z"/>
	</g>
</g>
<g id="g498" class="st1">
	<path id="path472" class="st2" d="M452.8,8.7v16.7l17.9-6.7V2L452.8,8.7z"/>
	<path id="path474" class="st2" d="M452.8,8.7v16.7l-18.2-6.7V2L452.8,8.7z"/>
	<path id="path476" class="st2" d="M524.5,8.7v16.7l-17.9-6.7V2L524.5,8.7z"/>
	<path id="path478" class="st2" d="M452.8,25.5v16.7l-18.2-6.7V18.8L452.8,25.5z"/>
	<path id="path480" class="st2" d="M452.8,58.7v17.1l17.9-6.9V51.8L452.8,58.7z"/>
	<path id="path482" class="st2" d="M489,25.5v16.7l17.6-6.7V18.8L489,25.5z"/>
	<path id="path484" class="st2" d="M524.5,42.3v16.5l-17.9-6.6V35.6L524.5,42.3z"/>
	<path id="path486" class="st2" d="M524.5,96v16.5l-17.9-6.6V89.4L524.5,96z"/>
	<path id="path488" class="st2" d="M489,25.6v16.9l-18.2-6.8V18.8L489,25.6z"/>
	<path id="path490" class="st2" d="M489,42.4V59l-18.2-6.7V35.6L489,42.4z"/>
	<path id="path492" class="st2" d="M524.5,58.7v17.1l17.9-6.9V51.8L524.5,58.7z"/>
	<path id="path494" class="st2" d="M561,25.5v16.7l-18.5-6.7V18.8L561,25.5z"/>
	<path id="path496" class="st2" d="M561,77.5v16.7l-18.5-6.7V70.8L561,77.5z"/>
</g>
<g id="text835">
	<path id="path926" class="st4" d="M246.3,105.1c-2.1,0-3.9-0.3-5.5-1c-1.5-0.6-2.8-1.6-3.7-2.9s-1.4-2.9-1.5-4.8c0-0.9,0-1.8,0-2.8
		s0-1.9,0-2.8c0.1-1.9,0.6-3.5,1.5-4.7c0.9-1.3,2.1-2.3,3.7-3c1.6-0.7,3.4-1,5.5-1s3.9,0.3,5.5,1s2.8,1.7,3.7,3s1.4,2.9,1.5,4.7
		c0,0.9,0.1,1.9,0.1,2.8c0,1,0,1.9-0.1,2.8c-0.1,1.9-0.6,3.5-1.5,4.8s-2.1,2.2-3.7,2.9C250.2,104.7,248.4,105.1,246.3,105.1z
		 M246.3,98.8c0.7,0,1.3-0.2,1.7-0.6s0.6-1.1,0.7-2c0-0.9,0.1-1.8,0.1-2.7c0-0.9,0-1.8-0.1-2.6c0-0.6-0.1-1.1-0.4-1.5
		c-0.2-0.4-0.5-0.7-0.8-0.8c-0.3-0.2-0.7-0.3-1.2-0.3c-0.4,0-0.8,0.1-1.2,0.3c-0.3,0.2-0.6,0.4-0.8,0.8s-0.3,0.9-0.3,1.5
		c0,0.9,0,1.8,0,2.6s0,1.8,0,2.7c0,0.9,0.3,1.5,0.7,2C245.1,98.6,245.6,98.8,246.3,98.8L246.3,98.8z"/>
	<path id="path928" class="st4" d="M260.4,104.7c-0.2,0-0.4-0.1-0.6-0.3s-0.3-0.4-0.3-0.6V89c0-0.2,0.1-0.4,0.3-0.6s0.4-0.3,0.6-0.3
		h5.6c0.2,0,0.4,0.1,0.6,0.3c0.2,0.2,0.3,0.4,0.3,0.6v1.1c0.7-0.6,1.4-1.1,2.3-1.4c0.8-0.4,1.8-0.5,2.7-0.5h1.5
		c0.2,0,0.4,0.1,0.6,0.3c0.2,0.2,0.3,0.4,0.3,0.6v5c0,0.2-0.1,0.4-0.3,0.6c-0.2,0.2-0.4,0.3-0.6,0.3h-4.1c-0.6,0-1.1,0.2-1.4,0.5
		s-0.5,0.8-0.5,1.4v7.1c0,0.2-0.1,0.4-0.3,0.6c-0.2,0.2-0.4,0.3-0.6,0.3L260.4,104.7z"/>
	<path id="path930" class="st4" d="M284.5,105.1c-1.6,0-3.1-0.3-4.4-0.8c-1.3-0.6-2.4-1.4-3.2-2.5c-0.8-1.1-1.3-2.4-1.3-4
		c0-0.3,0-0.8,0-1.3s0-0.9,0-1.3c0.1-1.6,0.5-2.9,1.3-4s1.9-1.9,3.2-2.5c1.3-0.6,2.8-0.9,4.4-0.9c1.7,0,3.1,0.2,4.3,0.7
		c1.2,0.5,2.1,1.1,2.9,1.8c0.7,0.7,1.3,1.4,1.6,2c0.4,0.7,0.6,1.2,0.6,1.7c0,0.2-0.1,0.4-0.3,0.6c-0.2,0.2-0.4,0.3-0.6,0.3h-6.2
		c-0.2,0-0.4-0.1-0.6-0.2c-0.1-0.1-0.2-0.3-0.4-0.5c-0.1-0.3-0.3-0.5-0.5-0.7c-0.1-0.2-0.4-0.3-0.7-0.3c-0.5,0-0.8,0.2-1,0.5
		s-0.3,0.9-0.3,1.5c0,0.9,0,1.7,0,2.3c0,0.7,0.1,1.2,0.3,1.5c0.2,0.3,0.5,0.5,1,0.5c0.4,0,0.6-0.1,0.8-0.3c0.1-0.2,0.3-0.4,0.4-0.7
		c0.1-0.2,0.2-0.3,0.4-0.4c0.1-0.1,0.3-0.2,0.6-0.2h6.2c0.2,0,0.4,0.1,0.6,0.3c0.2,0.2,0.3,0.4,0.3,0.6c0,0.3-0.1,0.7-0.4,1.2
		c-0.2,0.5-0.5,1-1,1.6c-0.4,0.6-1,1.1-1.7,1.7c-0.7,0.5-1.6,0.9-2.6,1.3C287.1,104.9,285.9,105.1,284.5,105.1L284.5,105.1z"/>
	<path id="path932" class="st4" d="M301.2,105.1c-1.2,0-2.3-0.2-3.2-0.7c-0.9-0.4-1.7-1.1-2.2-1.8c-0.5-0.8-0.8-1.6-0.8-2.6
		c0-1.5,0.6-2.8,1.9-3.6c1.3-0.9,3-1.5,5.1-1.9l3.4-0.5l0,0c0-0.6-0.1-1-0.2-1.2c-0.1-0.3-0.4-0.4-0.8-0.4c-0.3,0-0.5,0.1-0.7,0.2
		s-0.4,0.3-0.6,0.5s-0.5,0.4-0.9,0.4h-5.4c-0.2,0-0.4-0.1-0.5-0.2s-0.2-0.3-0.2-0.5c0-0.4,0.2-0.9,0.5-1.4c0.3-0.6,0.8-1.1,1.5-1.6
		s1.5-0.9,2.6-1.3c1.1-0.3,2.3-0.5,3.8-0.5c1.4,0,2.7,0.2,3.8,0.5c1.1,0.3,2,0.7,2.7,1.3c0.7,0.6,1.2,1.3,1.6,2.2
		c0.4,0.8,0.5,1.8,0.5,2.9v9.1c0,0.2-0.1,0.4-0.3,0.6c-0.2,0.2-0.4,0.3-0.6,0.3h-5.6c-0.2,0-0.4-0.1-0.6-0.3
		c-0.2-0.2-0.3-0.4-0.3-0.6v-1c-0.3,0.4-0.7,0.8-1.1,1.1c-0.4,0.3-1,0.5-1.5,0.7C302.5,105,301.8,105.1,301.2,105.1L301.2,105.1z
		 M303.4,100.3c0.4,0,0.8-0.1,1.1-0.3c0.3-0.2,0.6-0.4,0.7-0.8c0.2-0.4,0.3-0.8,0.3-1.4l0,0l-1.9,0.4c-0.6,0.1-0.9,0.3-1.1,0.5
		s-0.3,0.4-0.3,0.7c0,0.1,0,0.3,0.1,0.4s0.2,0.2,0.4,0.3C302.9,100.3,303.1,100.3,303.4,100.3L303.4,100.3z"/>
</g>
<g id="text1443">
	<path id="path935" class="st5" d="M244.8,127.6c-1.7,0-3.1-0.2-4.2-0.7s-1.9-1.1-2.5-1.8c-0.5-0.7-0.8-1.5-0.9-2.4
		c0-0.1,0-0.3,0.1-0.3c0.1-0.1,0.2-0.2,0.4-0.2h4.3c0.2,0,0.4,0,0.5,0.1s0.3,0.2,0.4,0.3c0.2,0.1,0.3,0.2,0.5,0.3
		c0.2,0.1,0.4,0.1,0.5,0.2c0.2,0,0.4,0,0.7,0c0.5,0,0.9-0.1,1.2-0.2s0.5-0.3,0.5-0.5s-0.1-0.3-0.3-0.5c-0.2-0.1-0.5-0.2-0.9-0.3
		c-0.4-0.1-1-0.2-1.8-0.3c-1.2-0.2-2.2-0.4-3.1-0.8c-0.9-0.4-1.6-0.9-2.1-1.6s-0.7-1.6-0.7-2.6s0.3-2,0.9-2.7
		c0.6-0.8,1.4-1.4,2.4-1.9c1.1-0.4,2.3-0.7,3.7-0.7c1.1,0,2.2,0.2,3,0.5c0.9,0.3,1.6,0.7,2.2,1.2c0.6,0.5,1.1,1,1.4,1.5
		c0.3,0.5,0.5,1.1,0.5,1.6c0,0.1-0.1,0.3-0.2,0.4c-0.1,0.1-0.2,0.1-0.3,0.1h-4.6c-0.2,0-0.4,0-0.5-0.1s-0.3-0.2-0.4-0.3
		c-0.1-0.1-0.2-0.2-0.4-0.3c-0.2-0.1-0.5-0.2-0.8-0.2c-0.4,0-0.7,0.1-0.8,0.2c-0.2,0.1-0.3,0.3-0.3,0.5c0,0.1,0.1,0.3,0.2,0.4
		c0.1,0.1,0.4,0.2,0.8,0.3c0.4,0.1,0.9,0.2,1.6,0.3c1.5,0.2,2.7,0.5,3.7,0.9c0.9,0.4,1.6,0.9,2,1.6s0.6,1.5,0.6,2.5
		c0,1.1-0.3,2.1-1,2.9s-1.6,1.4-2.7,1.9C247.6,127.4,246.3,127.6,244.8,127.6L244.8,127.6z"/>
	<path id="path937" class="st5" d="M254.5,127.4c-0.2,0-0.3-0.1-0.4-0.2c-0.1-0.1-0.2-0.3-0.2-0.4v-15c0-0.2,0.1-0.3,0.2-0.4
		c0.1-0.1,0.3-0.2,0.4-0.2h4.1c0.2,0,0.3,0.1,0.4,0.2s0.2,0.3,0.2,0.4v15c0,0.2-0.1,0.3-0.2,0.4s-0.3,0.2-0.4,0.2H254.5z"/>
	<path id="path939" class="st5" d="M263.1,127.4c-0.2,0-0.3-0.1-0.4-0.2s-0.2-0.3-0.2-0.4v-10.7c0-0.2,0.1-0.3,0.2-0.4
		s0.3-0.2,0.4-0.2h4.1c0.2,0,0.3,0.1,0.4,0.2s0.2,0.3,0.2,0.4v10.7c0,0.2-0.1,0.3-0.2,0.4s-0.3,0.2-0.4,0.2H263.1z M263.2,114.2
		c-0.2,0-0.3-0.1-0.4-0.2s-0.2-0.3-0.2-0.4v-2.8c0-0.2,0.1-0.3,0.2-0.4s0.3-0.2,0.4-0.2h3.9c0.2,0,0.3,0.1,0.4,0.2s0.2,0.3,0.2,0.4
		v2.8c0,0.2-0.1,0.3-0.2,0.4s-0.3,0.2-0.4,0.2H263.2z"/>
	<path id="path941" class="st5" d="M276.1,127.6c-1.2,0-2.2-0.2-3.2-0.6c-0.9-0.4-1.7-1-2.3-1.8s-0.9-1.7-1-2.9c0-0.2,0-0.5,0-0.9
		s0-0.7,0-0.9c0.1-1.1,0.4-2.1,0.9-2.9c0.6-0.8,1.3-1.4,2.3-1.8s2-0.6,3.2-0.6s2.2,0.2,3.1,0.5s1.5,0.8,2.1,1.3
		c0.5,0.5,0.9,1,1.2,1.5c0.3,0.5,0.4,0.9,0.4,1.2c0,0.2,0,0.3-0.2,0.4c-0.1,0.1-0.3,0.2-0.4,0.2h-4.5c-0.2,0-0.3,0-0.4-0.1
		s-0.2-0.2-0.3-0.3c-0.1-0.2-0.2-0.4-0.3-0.5c-0.1-0.1-0.3-0.2-0.5-0.2c-0.4,0-0.6,0.1-0.7,0.4s-0.2,0.6-0.2,1.1c0,0.7,0,1.2,0,1.6
		c0,0.5,0.1,0.9,0.2,1.1s0.4,0.3,0.7,0.3c0.3,0,0.5-0.1,0.5-0.2c0.1-0.1,0.2-0.3,0.3-0.5c0.1-0.1,0.1-0.2,0.3-0.3
		c0.1-0.1,0.2-0.1,0.4-0.1h4.5c0.2,0,0.3,0.1,0.4,0.2s0.2,0.3,0.2,0.4c0,0.2-0.1,0.5-0.3,0.8c-0.1,0.4-0.4,0.7-0.7,1.1
		c-0.3,0.4-0.7,0.8-1.2,1.2c-0.5,0.4-1.2,0.7-1.9,0.9C278,127.5,277.1,127.6,276.1,127.6L276.1,127.6z"/>
	<path id="path943" class="st5" d="M290.5,127.6c-2,0-3.6-0.5-4.8-1.5c-1.2-1-1.8-2.6-1.8-4.7v-0.1v-0.1c0-1.3,0.3-2.4,0.8-3.3
		s1.3-1.6,2.3-2c1-0.5,2.1-0.7,3.4-0.7c1.5,0,2.7,0.3,3.7,0.9s1.7,1.3,2.1,2.3c0.5,0.9,0.7,2,0.7,3.1v0.7c0,0.2-0.1,0.3-0.2,0.4
		s-0.3,0.2-0.4,0.2h-6.8l0,0c0,0,0,0,0,0.1c0,0.3,0,0.6,0.1,0.8c0.1,0.2,0.2,0.4,0.3,0.5c0.1,0.1,0.3,0.2,0.5,0.2c0.1,0,0.2,0,0.2,0
		c0.1,0,0.1-0.1,0.2-0.1c0.1-0.1,0.2-0.2,0.2-0.2c0.1-0.1,0.3-0.2,0.3-0.3c0.1,0,0.2-0.1,0.4-0.1h4.3c0.2,0,0.3,0,0.4,0.1
		s0.2,0.2,0.1,0.4c0,0.3-0.2,0.6-0.4,1.1c-0.2,0.4-0.6,0.8-1.1,1.2s-1.1,0.7-1.9,1C292.4,127.5,291.5,127.6,290.5,127.6L290.5,127.6
		z M289.5,119.9h1.8l0,0c0-0.3,0-0.6-0.1-0.8c-0.1-0.2-0.2-0.4-0.3-0.5c-0.1-0.1-0.3-0.2-0.5-0.2s-0.4,0.1-0.5,0.2s-0.2,0.2-0.3,0.5
		C289.6,119.3,289.5,119.6,289.5,119.9L289.5,119.9z"/>
	<path id="path945" class="st5" d="M299.2,127.4c-0.2,0-0.3-0.1-0.4-0.2s-0.2-0.3-0.2-0.4v-10.7c0-0.2,0.1-0.3,0.2-0.4
		s0.3-0.2,0.4-0.2h4c0.2,0,0.3,0.1,0.4,0.2s0.2,0.3,0.2,0.4v0.8c0.5-0.4,1-0.8,1.6-1c0.6-0.3,1.3-0.4,1.9-0.4h1.1
		c0.2,0,0.3,0.1,0.4,0.2s0.2,0.3,0.2,0.4v3.6c0,0.2-0.1,0.3-0.2,0.4s-0.3,0.2-0.4,0.2h-3c-0.5,0-0.8,0.1-1,0.3
		c-0.2,0.2-0.3,0.6-0.3,1v5.1c0,0.2-0.1,0.3-0.2,0.4s-0.3,0.2-0.4,0.2L299.2,127.4L299.2,127.4z"/>
</g>
<polygon class="st4" points="197.5,84.5 197.5,99.3 185.5,91.9 "/>
<polygon class="st6" points="198.5,84.5 198.5,99.3 210.6,91.9 "/>
<polygon class="st4" points="171.6,90.8 197.5,107 197.5,117.1 179.3,105.8 179.3,128.8 171.6,124.1 "/>
<polygon class="st6" points="180.3,107.5 197.1,117.9 180.3,128.3 "/>
<polygon class="st6" points="224.5,90.8 198.5,107 198.5,117.1 216.8,105.8 216.8,128.8 224.5,124.1 "/>
<polygon class="st4" points="215.8,107.5 198.9,117.9 215.8,128.3 "/>
</svg>
