<svg xmlns="http://www.w3.org/2000/svg" viewBox="0 0 64 64"><rect width="64" height="64" rx="14" style="fill:#e9e9e9"/><path d="M20.79,52.37A144.39,144.39,0,0,1,0,50.06a14,14,0,0,0,.54,3.75c4.45.68,8.83,1.53,13.67,2.29,12.34-2,23.48-4.27,31.79-4.27a117.88,117.88,0,0,1,17.62,1.35A14,14,0,0,0,64,50V48.85C46.54,50.83,31.35,52.75,20.79,52.37Z" style="fill:#afd4d1"/><path d="M14.21,56.1a143.56,143.56,0,0,0,17.73,1.75c9.74.35,20.19-1.15,31.14-2.9a13.4,13.4,0,0,0,.54-1.77A117.88,117.88,0,0,0,46,51.83C37.69,51.83,26.55,54.1,14.21,56.1Z" style="fill:#83c5bf"/><path d="M.54,53.81a14.15,14.15,0,0,0,1.84,4c4-.49,8-1.08,11.83-1.71C9.37,55.34,5,54.49.54,53.81Z" style="fill:#21a397"/><path d="M31.94,57.85A143.56,143.56,0,0,1,14.21,56.1c-3.84.63-7.8,1.22-11.83,1.71a14.06,14.06,0,0,0,6.68,5.28l1.77-.26c17.48-2.77,35-4.88,50-3.94A13.88,13.88,0,0,0,63.08,55C52.13,56.7,41.68,58.2,31.94,57.85Z" style="fill:#21a397"/><path d="M10.83,62.83l-1.77.26A14,14,0,0,0,14,64H50a14,14,0,0,0,10.82-5.11C45.78,58,28.31,60.06,10.83,62.83Z" style="fill:#009789"/><path d="M14.52,50.21A19.71,19.71,0,0,0,28.41,56,19.94,19.94,0,0,0,42.54,22Z" style="fill:#292826"/><path d="M42.54,22l-28,28.17.07.06A221.19,221.19,0,0,0,47.06,29.13,19.91,19.91,0,0,0,42.54,22" style="fill:#009789"/><path d="M37.07,8A19.94,19.94,0,0,0,23,42L51,13.79A19.69,19.69,0,0,0,37.07,8" style="fill:#292826"/><path d="M37.07,8a19.63,19.63,0,0,0-10.35,2.93,22.56,22.56,0,0,0-5.91-.75,23.05,23.05,0,0,0-9.47,2.13.63.63,0,0,0,.13,1.19,13.5,13.5,0,0,1,5.27,2.35,13.9,13.9,0,0,1,2.8,2.78,19.92,19.92,0,0,0-2.29,9.29,20.26,20.26,0,0,0,.84,5.76,20.22,20.22,0,0,1,2-3.49c1.82-2.5,3.75-3.8,6.59-5.72,2.09-1.42,5-3.08,13.36-6.51a28.58,28.58,0,0,0,6.12-2.83c1.4-.83,2.46-1.61,2.8-2.84L49,12a19.59,19.59,0,0,0-12-4" style="fill:#262523"/><path d="M40.37,14.7c.73,1.28-.72,3.49-3.24,4.93s-5.16,1.57-5.88.29S32,16.42,34.49,15s5.16-1.57,5.88-.28" style="fill:#fff"/></svg>