<svg xmlns="http://www.w3.org/2000/svg" viewBox="0 0 562 238"><rect width="562" height="238" style="fill:#e9e9e9"/><path d="M562,114c-78.86,18-74.86,2-125.78,2-77.86,0-155.85,18.33-197.64,16.67S178.68,120,143.74,121,74.87,132,0,117v90H562Z" style="fill:#afd4d1"/><path d="M200.06,96.33A32.79,32.79,0,0,0,223.19,106,33.22,33.22,0,0,0,246.73,49.4Z" style="fill:#292826"/><path d="M246.73,49.4,200.06,96.33a.94.94,0,0,0,.1.1c16.35-8.34,38.74-23,54.1-35.21a33.18,33.18,0,0,0-7.53-11.82" style="fill:#009789"/><path d="M237.61,26A33.23,33.23,0,0,0,214.2,82.6l46.67-46.93A32.77,32.77,0,0,0,237.61,26" style="fill:#292826"/><path d="M237.61,26a32.68,32.68,0,0,0-17.23,4.88,37.72,37.72,0,0,0-9.84-1.25,38.49,38.49,0,0,0-15.79,3.54,1.06,1.06,0,0,0,.22,2,22.64,22.64,0,0,1,8.78,3.92,23.2,23.2,0,0,1,4.66,4.63A33.47,33.47,0,0,0,206,68.8,32.3,32.3,0,0,1,209.34,63c3-4.17,6.23-6.34,11-9.54,3.48-2.36,8.33-5.12,22.25-10.85a46.92,46.92,0,0,0,10.2-4.7c2.32-1.38,4.1-2.69,4.66-4.73,0-.14.07-.29.1-.43A32.77,32.77,0,0,0,237.61,26" style="fill:#262523"/><path d="M243.12,37.17c1.21,2.14-1.21,5.83-5.41,8.23s-8.59,2.61-9.8.47,1.22-5.82,5.42-8.22,8.58-2.62,9.79-.48" style="fill:#fff"/><path d="M298.27,51.05a21.26,21.26,0,0,1-1.55,8.44,11.76,11.76,0,0,1-4.89,5.6,19.6,19.6,0,0,1-17.29,0,12,12,0,0,1-5-5.62A20.93,20.93,0,0,1,268,51a20.56,20.56,0,0,1,1.61-8.44,12,12,0,0,1,5-5.56,19.84,19.84,0,0,1,17.24,0,11.67,11.67,0,0,1,4.89,5.58A21.26,21.26,0,0,1,298.27,51.05Zm-21.42,0a12.78,12.78,0,0,0,1.46,6.63,5.21,5.21,0,0,0,4.82,2.4q3.5,0,4.89-2.4a13.24,13.24,0,0,0,1.39-6.63A13.48,13.48,0,0,0,288,44.38c-.93-1.63-2.55-2.44-4.84-2.44s-3.93.81-4.89,2.44A13.13,13.13,0,0,0,276.85,51.05Z" style="fill:#292826"/><path d="M318,42.11a12.1,12.1,0,0,1,1.44.09,10.24,10.24,0,0,1,1.09.17l-.74,7.85c-.29-.06-.65-.11-1.07-.17a13.3,13.3,0,0,0-1.77-.09,8.79,8.79,0,0,0-2.24.31,4,4,0,0,0-2.08,1.33,4.87,4.87,0,0,0-.87,3.2V66.66h-8.33V42.55h6.2l1.3,3.83h.4a8.9,8.9,0,0,1,2.81-3A6.66,6.66,0,0,1,318,42.11Z" style="fill:#292826"/><path d="M334,67.1a12.53,12.53,0,0,1-8.76-3q-3.27-3-3.27-9.42a13.89,13.89,0,0,1,1.65-7.17,10.18,10.18,0,0,1,4.52-4.1,15.22,15.22,0,0,1,6.52-1.33,17.92,17.92,0,0,1,4.21.48,16.6,16.6,0,0,1,3.68,1.35l-2.44,6.15A25.88,25.88,0,0,0,337.32,49a9.19,9.19,0,0,0-2.68-.39,3.73,3.73,0,0,0-3.05,1.48,7.23,7.23,0,0,0-1.18,4.54q0,3.13,1.2,4.47a3.93,3.93,0,0,0,3.07,1.33,12,12,0,0,0,3.6-.57,14.32,14.32,0,0,0,3.42-1.57V65a13.64,13.64,0,0,1-3.36,1.55A14.65,14.65,0,0,1,334,67.1Z" style="fill:#292826"/><path d="M358.27,42.11a10.48,10.48,0,0,1,7.16,2.27A8.15,8.15,0,0,1,368,50.83V66.66h-5.76l-1.61-3.18h-.17a11.6,11.6,0,0,1-2.08,2.07,7,7,0,0,1-2.46,1.18,13.33,13.33,0,0,1-3.4.37,7.46,7.46,0,0,1-5.24-1.92q-2.08-1.92-2.09-5.89a6.56,6.56,0,0,1,2.68-5.75q2.69-1.87,7.79-2.1l4-.13V51a2.92,2.92,0,0,0-.78-2.29,3.19,3.19,0,0,0-2.14-.67,11.85,11.85,0,0,0-3.19.5A26.54,26.54,0,0,0,350,49.79l-2.4-5.5a18,18,0,0,1,4.74-1.63A28.67,28.67,0,0,1,358.27,42.11ZM357.8,56a5.77,5.77,0,0,0-3.21.81,2.39,2.39,0,0,0-.94,2,2.29,2.29,0,0,0,.66,1.81,2.45,2.45,0,0,0,1.74.59,3.77,3.77,0,0,0,2.6-1,3.19,3.19,0,0,0,1.06-2.48V55.89Z" style="fill:#292826"/><path d="M285.83,88.91a7.65,7.65,0,0,1-4.3,6.93A12.19,12.19,0,0,1,275.84,97a24.49,24.49,0,0,1-3-.16,14,14,0,0,1-2.45-.52A17.49,17.49,0,0,1,268,95.4V89.26a21.74,21.74,0,0,0,4.17,1.59,15.09,15.09,0,0,0,3.82.55,3.79,3.79,0,0,0,2.24-.53,1.63,1.63,0,0,0,.72-1.36,1.85,1.85,0,0,0-1.06-1.62,37.24,37.24,0,0,0-3.54-1.73,21.53,21.53,0,0,1-3.28-1.87,6.83,6.83,0,0,1-2.14-2.41,7.69,7.69,0,0,1-.75-3.6,6.79,6.79,0,0,1,1.21-4.12,7.31,7.31,0,0,1,3.37-2.49,13.77,13.77,0,0,1,5-.84,16.78,16.78,0,0,1,4.49.55,24.22,24.22,0,0,1,3.57,1.27L283.72,78a22.71,22.71,0,0,0-3.22-1.2,11.22,11.22,0,0,0-2.94-.44,3.3,3.3,0,0,0-1.95.46A1.42,1.42,0,0,0,275,78a1.47,1.47,0,0,0,.46,1.07A6.16,6.16,0,0,0,277,80c.73.37,1.72.84,3,1.41a16.33,16.33,0,0,1,3.16,1.8,7,7,0,0,1,2,2.32A7.09,7.09,0,0,1,285.83,88.91Z" style="fill:#009789"/><path d="M296.17,96.64h-6.81V70.57h6.81Z" style="fill:#009789"/><path d="M304.33,70a5.07,5.07,0,0,1,2.55.61A2.51,2.51,0,0,1,308,73a2.47,2.47,0,0,1-1.09,2.37,5,5,0,0,1-2.55.63,4.92,4.92,0,0,1-2.55-.63,2.51,2.51,0,0,1-1-2.37,2.55,2.55,0,0,1,1-2.42A5,5,0,0,1,304.33,70Zm3.39,8V96.64h-6.81V78Z" style="fill:#009789"/><path d="M321.45,97a10.3,10.3,0,0,1-7.17-2.42q-2.67-2.43-2.67-7.71A11.32,11.32,0,0,1,313,81a8.35,8.35,0,0,1,3.69-3.35A12.44,12.44,0,0,1,322,76.57a14.77,14.77,0,0,1,3.45.39,13.33,13.33,0,0,1,3,1.11l-2,5a21,21,0,0,0-2.26-.85,7.32,7.32,0,0,0-2.2-.32,3,3,0,0,0-2.49,1.21,5.92,5.92,0,0,0-1,3.71,5.37,5.37,0,0,0,1,3.65A3.21,3.21,0,0,0,322,91.58a9.74,9.74,0,0,0,2.94-.46,12,12,0,0,0,2.8-1.29v5.42A10.86,10.86,0,0,1,325,96.52,11.93,11.93,0,0,1,321.45,97Z" style="fill:#009789"/><path d="M340.56,76.57a9.83,9.83,0,0,1,6.81,2.24q2.5,2.25,2.5,6.78v3H337.71a3.51,3.51,0,0,0,1.16,2.53,4.46,4.46,0,0,0,3.15,1,14.81,14.81,0,0,0,3.39-.36,14.66,14.66,0,0,0,3.17-1.14v4.89a11.66,11.66,0,0,1-3.12,1.1,21,21,0,0,1-4.26.36,12.9,12.9,0,0,1-5.33-1,8.18,8.18,0,0,1-3.69-3.3,11,11,0,0,1-1.35-5.74,12.26,12.26,0,0,1,1.23-5.85,7.88,7.88,0,0,1,3.42-3.39A11.24,11.24,0,0,1,340.56,76.57Zm.25,4.63a2.81,2.81,0,0,0-2,.75,3.59,3.59,0,0,0-.95,2.39h5.85a3.58,3.58,0,0,0-.77-2.23A2.56,2.56,0,0,0,340.81,81.2Z" style="fill:#009789"/><path d="M365.63,76.57a9.41,9.41,0,0,1,1.17.07,7.92,7.92,0,0,1,.9.14l-.61,6.42c-.24,0-.53-.09-.87-.14a11,11,0,0,0-1.45-.07,7.23,7.23,0,0,0-1.83.25,3.25,3.25,0,0,0-1.7,1.08,4,4,0,0,0-.71,2.62v9.7h-6.81V76.92h5.06l1.07,3.14h.32a7.54,7.54,0,0,1,2.3-2.48A5.54,5.54,0,0,1,365.63,76.57Z" style="fill:#009789"/><path d="M562,124c-16,0-20-4-59-5s-53,12-103,12-70-12-111-12c-27.66,0-71,14-115,16s-68.2-6.78-103-13c-28-5-44-1.67-71,1v96H562Z" style="fill:#83c5bf"/><path d="M562,138c-89,10-109-13-160-12s-99.26,18.33-141.13,16.67S199,130,164,131,77,149,0,141v76H562Z" style="fill:#21a397"/><path d="M562,154.33C529,146.67,492,164,454,165s-76.33,2.62-111-6-80-3-125.33,5S160,154,129,152c-47.42-3.06-58,27-129,6v80H562Z" style="fill:#009789"/></svg>