<svg width="14" height="14" viewBox="0 0 14 14" fill="none" xmlns="http://www.w3.org/2000/svg">
<path d="M6.99984 11.7394C5.74282 11.7394 4.53729 11.2401 3.64845 10.3512C2.7596 9.46238 2.26025 8.25685 2.26025 6.99984C2.26025 5.74282 2.7596 4.53729 3.64845 3.64845C4.53729 2.7596 5.74282 2.26025 6.99984 2.26025C8.25685 2.26025 9.46238 2.7596 10.3512 3.64845C11.2401 4.53729 11.7394 5.74282 11.7394 6.99984C11.7394 8.25685 11.2401 9.46238 10.3512 10.3512C9.46238 11.2401 8.25685 11.7394 6.99984 11.7394ZM6.99984 1.1665C5.45274 1.1665 3.96901 1.78109 2.87505 2.87505C1.78109 3.96901 1.1665 5.45274 1.1665 6.99984C1.1665 8.54693 1.78109 10.0307 2.87505 11.1246C3.96901 12.2186 5.45274 12.8332 6.99984 12.8332C8.54693 12.8332 10.0307 12.2186 11.1246 11.1246C12.2186 10.0307 12.8332 8.54693 12.8332 6.99984C12.8332 5.45274 12.2186 3.96901 11.1246 2.87505C10.0307 1.78109 8.54693 1.1665 6.99984 1.1665ZM4.24268 6.65804L6.61247 9.02783C6.82666 9.24202 7.17301 9.24202 7.38493 9.02783L9.757 6.65804C9.97119 6.44385 9.97119 6.09749 9.757 5.88558C9.54281 5.67367 9.19645 5.67139 8.98454 5.88558L7.00212 7.868L5.01969 5.88558C4.8055 5.67139 4.45915 5.67139 4.24723 5.88558C4.03532 6.09977 4.03304 6.44613 4.24723 6.65804H4.24268Z" fill="#6B6B6B"/>
</svg>
