<svg xmlns="http://www.w3.org/2000/svg" width="18" height="18" viewBox="0 0 18 18"><rect x="6" y="14" width="2" height="1" style="fill:#009688"/><rect x="9" y="14" width="2" height="1" style="fill:#009688"/><rect x="12" y="14" width="2" height="1" style="fill:#009688"/><rect x="15" y="14" width="2" height="1" style="fill:#009688"/><rect x="8.5" y="0.5" width="8" height="12" rx="1" style="fill:none;stroke:#949494;stroke-linecap:round;stroke-linejoin:round"/><path d="M5.5,7.5h-4L.657,1.6A.966.966,0,0,1,1.613.5H5.387a.966.966,0,0,1,.956,1.1Z" style="fill:none;stroke:#009688;stroke-linecap:round;stroke-linejoin:round"/><line x1="0.5" y1="16.5" x2="16.5" y2="16.5" style="fill:none;stroke:#949494;stroke-linecap:square;stroke-linejoin:round"/><polygon points="3.5 11.5 2.5 8.5 4.5 8.5 3.5 11.5" style="fill:none;stroke:#009688;stroke-linecap:round;stroke-linejoin:round"/><path d="M3.5,13.5a1,1,0,0,0,1,1" style="fill:none;stroke:#009688;stroke-linecap:square;stroke-linejoin:round"/></svg>