<svg xmlns="http://www.w3.org/2000/svg" viewBox="0 0 18 18"><path d="M10.85,14.8A20.8,20.8,0,0,1,6.77,9.5C4.56,5.67,3.54,2.12,4.5,1.57" style="fill:none;stroke:#949494;stroke-linecap:round;stroke-linejoin:round"/><path d="M1.87,7.38A21,21,0,0,1,8.5,6.5c4.42,0,8,.9,8,2" style="fill:none;stroke:#949494;stroke-linecap:round;stroke-linejoin:round"/><path d="M12.79,3.31A21,21,0,0,1,10.23,9.5C8,13.33,5.46,16,4.5,15.43" style="fill:none;stroke:#949494;stroke-linecap:round;stroke-linejoin:round"/><circle cx="2.5" cy="7.5" r="1" style="fill:#009688;stroke:#009688;stroke-linecap:round;stroke-linejoin:round"/><path d="M16.5,8.5c0,1.1-3.58,2-8,2s-8-.9-8-2c0-.41.5-.8,1.37-1.12" style="fill:none;stroke:#009688;stroke-linecap:round;stroke-linejoin:round"/><circle cx="12.37" cy="3.8" r="1" style="fill:#009688;stroke:#009688;stroke-linecap:round;stroke-linejoin:round"/><path d="M4.5,15.43c-1-.55.06-4.1,2.27-7.93S11.54,1,12.5,1.57c.36.21.44.84.29,1.74" style="fill:none;stroke:#009688;stroke-linecap:round;stroke-linejoin:round"/><circle cx="10.63" cy="14.2" r="1" style="fill:#009688;stroke:#009688;stroke-linecap:round;stroke-linejoin:round"/><path d="M4.5,1.57C5.46,1,8,3.67,10.23,7.5s3.23,7.38,2.27,7.93c-.36.21-.94,0-1.65-.63" style="fill:none;stroke:#009688;stroke-linecap:round;stroke-linejoin:round"/></svg>