<svg xmlns="http://www.w3.org/2000/svg" viewBox="0 0 24 24"><path d="M15.93,1.5l-3.43,4-4-4m10,0v5h4m0,3.43-3,2.57,3,2.57m0,3.43h-4v4m-3.43,0-2.57-3-2.57,3m-3.43,0v-4h-5m0-2,4-4-4-4m0-2h6v-2l5,5,3-3,.08,3H18.5l-3,3,3,3h-3v3l-3-3-3,3v-3h-3l3-3-3-3h0l3,3-3,3h3v3l3-3,3,3v-3h3l-3-3,3-3H15.58l-.08-3-3,3-5-5v2h-6m0-3h3v-2" style="fill:none;stroke:#009688;stroke-linecap:round;stroke-linejoin:round"/><rect x="1.5" y="1.5" width="21" height="21" rx="2" style="fill:none;stroke:#949494;stroke-linecap:round;stroke-linejoin:round"/></svg>