<svg xmlns="http://www.w3.org/2000/svg" viewBox="0 0 18 18"><polygon points="1 7.29 1 8.71 8.71 1 7.29 1 1 7.29" style="fill:#009688"/><polygon points="5.71 16 16 5.71 16 4.29 4.29 16 5.71 16" style="fill:#009688"/><path d="M1,15.5a.5.5,0,0,0,.5.5h.21L16,1.71V1.5a.5.5,0,0,0-.5-.5h-.21L1,15.29Z" style="fill:#009688"/><polygon points="1 12.71 12.71 1 11.29 1 1 11.29 1 12.71" style="fill:#009688"/><polygon points="3.29 1 1 3.29 1 4.71 4.71 1 3.29 1" style="fill:#009688"/><polygon points="13.71 16 16 13.71 16 12.29 12.29 16 13.71 16" style="fill:#009688"/><polygon points="9.71 16 16 9.71 16 8.29 8.29 16 9.71 16" style="fill:#009688"/><rect x="0.5" y="0.5" width="16" height="16" rx="1" style="fill:none;stroke:#949494;stroke-linecap:round;stroke-linejoin:round"/></svg>