<?xml version="1.0" encoding="UTF-8"?><svg id="a" xmlns="http://www.w3.org/2000/svg" width="24" height="24" viewBox="0 0 24 24"><path d="M15.5,22.5L1.5,8.5M22.5,15.5L8.5,1.5M8.5,22.5L1.5,15.5M22.5,8.5L15.5,1.5M21.91,21.91L2.09,2.09" style="fill:none; opacity:.75; stroke:#949494; stroke-linecap:round; stroke-miterlimit:10;"/><path d="M1.5,21.5v-2.5c0-1.93,1.57-3.5,3.5-3.5h0c1.93,0,3.5-1.57,3.5-3.5h0c0-1.93,1.57-3.5,3.5-3.5h0c1.93,0,3.5-1.57,3.5-3.5h0c0-1.93,1.57-3.5,3.5-3.5h2.5" style="fill:none; stroke:#009688; stroke-linecap:round; stroke-linejoin:round;"/><path d="M1.5,5h0c0-1.93,1.57-3.5,3.5-3.5" style="fill:none; stroke:#009688; stroke-linecap:round; stroke-linejoin:round;"/><path d="M22.5,2.5v2.5c0,1.93-1.57,3.5-3.5,3.5h0c-1.93,0-3.5,1.57-3.5,3.5h0c0,1.93-1.57,3.5-3.5,3.5h0c-1.93,0-3.5,1.57-3.5,3.5h0c0,1.93-1.57,3.5-3.5,3.5h-2.5" style="fill:none; stroke:#009688; stroke-linecap:round; stroke-linejoin:round;"/><path d="M22.5,19h0c0,1.93-1.57,3.5-3.5,3.5" style="fill:none; stroke:#009688; stroke-linecap:round; stroke-linejoin:round;"/><path d="M22.5,9.5v2.5c0,1.93-1.57,3.5-3.5,3.5h0c-1.93,0-3.5,1.57-3.5,3.5h0c0,1.93-1.57,3.5-3.5,3.5h-3.5" style="fill:none; stroke:#009688; stroke-linecap:round; stroke-linejoin:round;"/><path d="M1.5,14.5v-2.5c0-1.93,1.57-3.5,3.5-3.5h0c1.93,0,3.5-1.57,3.5-3.5h0c0-1.93,1.57-3.5,3.5-3.5h3.5" style="fill:none; stroke:#009688; stroke-linecap:round; stroke-linejoin:round;"/><path d="M3.5,1.5h17c1.1,0,2,.9,2,2v17c0,1.1-.9,2-2,2H3.5c-1.1,0-2-.9-2-2V3.5c0-1.1.9-2,2-2Z" style="fill:none; stroke:#949494; stroke-linecap:round; stroke-linejoin:round;"/></svg>