<svg xmlns="http://www.w3.org/2000/svg" width="18" height="18" viewBox="0 0 18 18"><path d="M2.5,16.5h-1a1,1,0,0,1-1-1V1.5a1,1,0,0,1,1-1h14a1,1,0,0,1,1,1v1" style="fill:none;stroke:#949494;stroke-linecap:round;stroke-linejoin:round"/><path d="M2.5,16.5a13.958,13.958,0,0,1,4.2-10" style="fill:none;stroke:#949494;stroke-linecap:round;stroke-linejoin:round"/><path d="M6.7,6.5a13.954,13.954,0,0,1,9.8-4" style="fill:none;stroke:#009688;stroke-linecap:round;stroke-linejoin:round"/><line x1="15.406" y1="13.531" x2="12.406" y2="15.531" style="fill:none;stroke:#009688;stroke-linecap:round;stroke-linejoin:round"/><line x1="9.406" y1="13.531" x2="12.406" y2="15.531" style="fill:none;stroke:#009688;stroke-linecap:round;stroke-linejoin:round"/><line x1="15.406" y1="9.531" x2="12.406" y2="11.531" style="fill:none;stroke:#009688;stroke-linecap:round;stroke-linejoin:round"/><line x1="9.406" y1="9.531" x2="12.406" y2="11.531" style="fill:none;stroke:#009688;stroke-linecap:round;stroke-linejoin:round"/></svg>