<?xml version="1.0" encoding="UTF-8"?><svg id="a" xmlns="http://www.w3.org/2000/svg" width="24" height="24" viewBox="0 0 24 24"><line x1="21.32" y1="22.32" x2="20.5" y2="21.5" style="fill:none; opacity:.75; stroke:#949494; stroke-linecap:round; stroke-miterlimit:10;"/><line x1="22.5" y1="12.5" x2="12.5" y2="22.5" style="fill:none; opacity:.75; stroke:#949494; stroke-linecap:round; stroke-linejoin:round;"/><line x1="1.5" y1="11.5" x2="11.5" y2="1.5" style="fill:none; opacity:.75; stroke:#949494; stroke-linecap:round; stroke-linejoin:round;"/><line x1="2.5" y1="21.5" x2="21.5" y2="2.5" style="fill:none; opacity:.75; stroke:#949494; stroke-linecap:round; stroke-linejoin:round;"/><line x1="15.5" y1="21.5" x2="16.5" y2="22.5" style="fill:none; opacity:.75; stroke:#949494; stroke-linecap:round; stroke-linejoin:round; stroke-width:.74px;"/><line x1="22.5" y1="5.5" x2="21.5" y2="4.5" style="fill:none; opacity:.75; stroke:#949494; stroke-linecap:round; stroke-linejoin:round; stroke-width:.74px;"/><path d="M3.5,11.5l3,3M4.5,10.5l2,2M4.5,1.5l2,2M6.5,10.5l-1-1M8.5,17.5l3,3M9.5,16.5l2,2M11.5,16.5l-1-1M17.5,21.5l-1-1M4.5,21.5l1,1M6.5,21.5l-1-1M19.5,17.5l3,3M20.5,16.5l2,2M22.5,16.5l-1-1M8.5,6.5l3,3M9.5,5.5l2,2M11.5,5.5l-1-1M19.5,6.5l3,3M20.5,5.5l2,2M14.5,11.5l3,3M15.5,10.5l2,2M15.5,1.5l2,2M17.5,10.5l-1-1" style="fill:none; opacity:.75; stroke:#949494; stroke-linecap:round; stroke-linejoin:round;"/><path d="M2.5,21.5v-8l8,8h11L2.5,2.5h11l8,8V2.5" style="fill:none; stroke:#009688; stroke-linecap:round; stroke-linejoin:round;"/><path d="M3.5,1.5h17c1.1,0,2,.9,2,2v17c0,1.1-.9,2-2,2H3.5c-1.1,0-2-.9-2-2V3.5c0-1.1.9-2,2-2Z" style="fill:none; stroke:#949494; stroke-linecap:round; stroke-linejoin:round;"/></svg>