<svg width="14" height="15" viewBox="0 0 14 15" fill="none" xmlns="http://www.w3.org/2000/svg">
<path d="M1.04541 2.16873C1.04541 1.89259 1.26927 1.66873 1.54541 1.66873H12.455C12.7312 1.66873 12.955 1.89259 12.955 2.16873V13.0783C12.955 13.3545 12.7312 13.5783 12.455 13.5783H1.54541C1.26927 13.5783 1.04541 13.3545 1.04541 13.0783V2.16873Z" fill="#CECECE"/>
<path fill-rule="evenodd" clip-rule="evenodd" d="M1.84541 2.46873V12.7783H12.155V2.46873H1.84541ZM1.54541 1.66873C1.26927 1.66873 1.04541 1.89259 1.04541 2.16873V13.0783C1.04541 13.3545 1.26927 13.5783 1.54541 13.5783H12.455C12.7312 13.5783 12.955 13.3545 12.955 13.0783V2.16873C12.955 1.89259 12.7312 1.66873 12.455 1.66873H1.54541Z" fill="#262E30"/>
<path fill-rule="evenodd" clip-rule="evenodd" d="M9.78216 2.08818C9.99733 2.03814 10.2123 2.17201 10.2624 2.38718C10.2958 2.53083 10.3463 2.67383 10.4075 2.84688C10.4354 2.92602 10.4656 3.01144 10.4974 3.10609L9.73907 3.36081C9.71761 3.29693 9.69365 3.22909 9.66891 3.15905C9.60101 2.96678 9.52723 2.75789 9.48316 2.56839C9.43312 2.35322 9.56699 2.13822 9.78216 2.08818ZM10.6107 4.90638C10.5299 5.17775 10.3966 5.45274 10.1991 5.73147C10.0697 5.91419 9.90416 6.06614 9.72314 6.19564L9.25768 5.54499C9.38731 5.45226 9.48155 5.36048 9.54638 5.26898C9.69772 5.05538 9.79017 4.85868 9.84403 4.67793L10.6107 4.90638ZM7.88173 7.0261C7.81072 7.0515 7.73984 7.07687 7.66943 7.10225L7.39816 6.34964C7.47302 6.32266 7.54688 6.29623 7.6197 6.27017C7.89133 6.17296 8.14859 6.0809 8.39032 5.98435L8.68706 6.72728C8.43045 6.82978 8.1552 6.92826 7.88173 7.0261ZM6.69834 7.4817C6.37798 7.62329 6.08278 7.77785 5.82612 7.95605L5.36985 7.29892C5.68223 7.08202 6.0266 6.90393 6.37496 6.74998L6.69834 7.4817ZM5.17052 8.59652C5.08959 8.71678 5.02211 8.84637 4.96996 8.98738C4.90809 9.15469 4.86112 9.31324 4.82669 9.46366L4.04686 9.28516C4.08934 9.09957 4.14638 8.90797 4.21963 8.70989C4.29468 8.50696 4.39178 8.3208 4.50684 8.14984L5.17052 8.59652ZM4.76323 10.4215C4.79977 10.7628 4.8987 11.0684 5.02518 11.355L4.29328 11.678C4.14387 11.3394 4.01548 10.9522 3.96777 10.5067L4.76323 10.4215ZM5.51971 12.3061C5.61475 12.4893 5.70613 12.6852 5.76239 12.8876C5.82156 13.1004 5.69698 13.3209 5.48413 13.3801C5.27129 13.4392 5.05078 13.3147 4.99162 13.1018C4.9578 12.9802 4.89685 12.8427 4.80956 12.6744L5.51971 12.3061Z" fill="#262E30"/>
</svg>
