<svg xmlns="http://www.w3.org/2000/svg" viewBox="0 0 18 18"><path d="M6.5,16.5h-5a1,1,0,0,1-1-1v-5" style="fill:none;stroke:#949494;stroke-linecap:round;stroke-linejoin:round"/><path d="M16.5,10.5v5a1,1,0,0,1-1,1h-5" style="fill:none;stroke:#949494;stroke-linecap:round;stroke-linejoin:round"/><path d="M10.5.5h5a1,1,0,0,1,1,1v5" style="fill:none;stroke:#949494;stroke-linecap:round;stroke-linejoin:round"/><path d="M.5,6.5v-5a1,1,0,0,1,1-1h5" style="fill:none;stroke:#949494;stroke-linecap:round;stroke-linejoin:round"/><line x1="8.5" y1="0.5" x2="8.5" y2="3.5" style="fill:none;stroke:#009688;stroke-linecap:round;stroke-linejoin:round"/><line x1="8.5" y1="6.5" x2="8.5" y2="10.5" style="fill:none;stroke:#949494;stroke-linecap:round;stroke-linejoin:round"/><line x1="8.5" y1="13.5" x2="8.5" y2="16.5" style="fill:none;stroke:#009688;stroke-linecap:round;stroke-linejoin:round"/><line x1="16.5" y1="8.5" x2="13.5" y2="8.5" style="fill:none;stroke:#009688;stroke-linecap:round;stroke-linejoin:round"/><line x1="3.5" y1="8.5" x2="0.5" y2="8.5" style="fill:none;stroke:#009688;stroke-linecap:round;stroke-linejoin:round"/><line x1="10.5" y1="8.5" x2="6.5" y2="8.5" style="fill:none;stroke:#949494;stroke-linecap:round;stroke-linejoin:round"/></svg>