<svg xmlns="http://www.w3.org/2000/svg" viewBox="0 0 18 18"><path d="M11.05,4.55a1.61,1.61,0,0,1,.59,2,1.71,1.71,0,0,1-.3.44h1.2V7a2.6,2.6,0,0,0-.94-3.25.5.5,0,1,0-.56.83Z" style="fill:#009688"/><path d="M7,12.12a1.69,1.69,0,0,1-.76-.57c-.55-.76-.32-1.77.61-2.7h0l.14,0V8A1,1,0,0,1,8,7h.89s0-.1,0-.14h0c1.54-1.54,1.38-3.07.72-4a2.61,2.61,0,0,0-3.29-.81.5.5,0,1,0,.44.9,1.61,1.61,0,0,1,2,.5c.55.76.32,1.77-.61,2.7h0A1.48,1.48,0,0,0,7.62,6h0c-.57-2.1-2-2.73-3.1-2.61A2.61,2.61,0,0,0,2.17,5.84a.5.5,0,0,0,.47.53.49.49,0,0,0,.53-.47A1.61,1.61,0,0,1,4.62,4.38c.92-.08,1.69.61,2,1.88h0a1.8,1.8,0,0,0-.39.39h0C4.16,6.09,2.92,7,2.45,8a2.6,2.6,0,0,0,.94,3.25.51.51,0,0,0,.28.09.51.51,0,0,0,.42-.23A.5.5,0,0,0,4,10.45a1.61,1.61,0,0,1-.59-2C3.75,7.58,4.73,7.28,6,7.62H6a1.54,1.54,0,0,0,.14.52h0c-1.54,1.54-1.38,3.07-.72,4a2.61,2.61,0,0,0,1.57,1Z" style="fill:#009688"/><path d="M7,14a6.49,6.49,0,1,1,7-7h1V1.5A1.5,1.5,0,0,0,13.5,0H1.5A1.5,1.5,0,0,0,0,1.5v12A1.5,1.5,0,0,0,1.5,15H7ZM13.5,1a.5.5,0,0,1,.5.5V3.77A7.51,7.51,0,0,0,11.23,1ZM1,1.5A.5.5,0,0,1,1.5,1H3.77A7.51,7.51,0,0,0,1,3.77Zm0,12V11.23A7.51,7.51,0,0,0,3.77,14H1.5A.5.5,0,0,1,1,13.5Z" style="fill:#949494"/><line x1="10.5" y1="8.5" x2="10.5" y2="12.5" style="fill:none;stroke:#009688;stroke-linecap:round;stroke-linejoin:round"/><line x1="14.5" y1="8.5" x2="14.5" y2="12.5" style="fill:none;stroke:#009688;stroke-linecap:round;stroke-linejoin:round"/><line x1="8.5" y1="12.5" x2="16.5" y2="12.5" style="fill:none;stroke:#009688;stroke-linecap:round;stroke-linejoin:round"/><path d="M9.5,8.5h6a1,1,0,0,1,1,1v3l-4,4-4-4v-3A1,1,0,0,1,9.5,8.5Z" style="fill:none;stroke:#009688;stroke-linecap:round;stroke-linejoin:round"/></svg>