<svg width="14" height="14" viewBox="0 0 14 14" fill="none" xmlns="http://www.w3.org/2000/svg">
<g clip-path="url(#clip0_8074_35830)">
<path fill-rule="evenodd" clip-rule="evenodd" d="M10.9735 2.69442C10.9735 2.63559 10.9285 2.60135 10.887 2.6027C9.29047 2.65474 6.93875 2.95734 5.33511 3.70181C3.80994 4.40984 2.46521 6.04099 1.3782 7.82933C1.36749 7.84696 1.36505 7.86086 1.36512 7.87179C1.3652 7.88406 1.36865 7.89819 1.37674 7.91218C1.3926 7.93962 1.42028 7.95838 1.45978 7.95838H10.8735C10.9287 7.95838 10.9735 7.91361 10.9735 7.85838V2.69442ZM10.861 1.80313C11.3715 1.78649 11.7735 2.20096 11.7735 2.69442V7.85838C11.7735 8.35544 11.3706 8.75838 10.8735 8.75838H1.45978C0.778794 8.75838 0.327478 8.01776 0.694581 7.41381C1.7989 5.597 3.24706 3.78915 4.99825 2.97619C6.74858 2.16362 9.229 1.85632 10.861 1.80313Z" fill="#262E30"/>
<path d="M6.95404 4.43367C6.36577 4.70676 5.84916 5.26416 5.41867 5.89149C5.20254 6.20644 5.44161 6.61699 5.82359 6.61699H9.15387C9.43002 6.61699 9.65387 6.39313 9.65387 6.11699V4.4358C9.65387 4.15966 9.42996 3.93521 9.15444 3.95367C8.47343 3.99928 7.59112 4.13791 6.95404 4.43367Z" fill="#ACACAC"/>
<path fill-rule="evenodd" clip-rule="evenodd" d="M9.22794 4.37041C9.21439 4.35718 9.19927 4.35157 9.18113 4.35278C8.51663 4.39729 7.69267 4.53177 7.12243 4.79649C6.63142 5.02443 6.16476 5.51117 5.74845 6.11783C5.73813 6.13287 5.73701 6.14237 5.73689 6.14745C5.73673 6.15416 5.73841 6.16386 5.74478 6.1751C5.75745 6.19745 5.78298 6.217 5.82355 6.217H9.15384C9.20907 6.217 9.25384 6.17223 9.25384 6.117V4.43581C9.25384 4.40714 9.24252 4.38465 9.22794 4.37041ZM9.12767 3.55457C9.65085 3.51953 10.0538 3.94535 10.0538 4.43581V6.117C10.0538 6.61406 9.6509 7.017 9.15384 7.017H5.82355C5.15544 7.017 4.67063 6.27458 5.08882 5.66517C5.5335 5.01718 6.10004 4.38911 6.78558 4.07087C7.48951 3.74408 8.43016 3.60129 9.12767 3.55457Z" fill="#262E30"/>
<path fill-rule="evenodd" clip-rule="evenodd" d="M0.606934 10.0575C0.606934 9.83656 0.78602 9.65747 1.00693 9.65747L11.5927 9.65747C11.8136 9.65747 11.9927 9.83656 11.9927 10.0575C11.9927 10.2784 11.8136 10.4575 11.5927 10.4575L1.00693 10.4575C0.78602 10.4575 0.606934 10.2784 0.606934 10.0575Z" fill="#262E30"/>
<path fill-rule="evenodd" clip-rule="evenodd" d="M13.0783 3.16325C12.9749 3.15526 12.7921 3.16455 12.5108 3.24055C12.35 3.28399 12.1829 3.43706 12.0332 3.69866C11.8891 3.95055 11.8006 4.23604 11.7657 4.41333C11.7231 4.63009 11.5128 4.77125 11.296 4.72861C11.0793 4.68597 10.9381 4.47568 10.9807 4.25892C11.0291 4.01287 11.1439 3.64215 11.3389 3.30136C11.5283 2.97027 11.8361 2.59415 12.3021 2.46825C12.6475 2.37492 12.9239 2.34893 13.14 2.36563C13.248 2.37398 13.346 2.39341 13.4317 2.42381C13.5108 2.45184 13.6054 2.49835 13.6814 2.57774C13.8342 2.73729 13.8288 2.99049 13.6692 3.14329C13.5256 3.28083 13.3061 3.29013 13.1522 3.17425C13.1385 3.17075 13.1145 3.16605 13.0783 3.16325ZM13.1678 3.17919C13.1678 3.17921 13.1668 3.17886 13.165 3.17803C13.167 3.17875 13.1679 3.17916 13.1678 3.17919Z" fill="#262E30"/>
</g>
<defs>
<clipPath id="clip0_8074_35830">
<rect width="14" height="14" fill="white" transform="translate(0 14) rotate(-90)"/>
</clipPath>
</defs>
</svg>
