<svg xmlns="http://www.w3.org/2000/svg" width="24" height="24" viewBox="0 0 24 24"><path d="M12.5,22.5l-11-11m10-10,11,11M2.086,2.086,21.914,21.914" style="fill:none;stroke:#949494;stroke-linecap:round;stroke-linejoin:round;opacity:0.75"/><line x1="1.5" y1="12.5" x2="12.5" y2="1.5" style="fill:none;stroke:#009688;stroke-linecap:round;stroke-linejoin:round"/><line x1="22.5" y1="11.5" x2="11.5" y2="22.5" style="fill:none;stroke:#009688;stroke-linecap:round;stroke-linejoin:round"/><line x1="21.914" y1="2.086" x2="2.086" y2="21.914" style="fill:none;stroke:#009688;stroke-linecap:round;stroke-linejoin:round"/><path d="M3.5,1.5h17a2,2,0,0,1,2,2v17a2,2,0,0,1-2,2H3.5a2,2,0,0,1-2-2V3.5A2,2,0,0,1,3.5,1.5Z" style="fill:none;stroke:#949494;stroke-linecap:round;stroke-linejoin:round"/></svg>