<svg width="14" height="14" viewBox="0 0 14 14" fill="none" xmlns="http://www.w3.org/2000/svg">
<g clip-path="url(#clip0_8074_35915)">
<path d="M5.77728 8.19568C6.83651 8.19568 7.69519 7.35094 7.69519 6.3089C7.69519 5.26686 6.83651 4.42212 5.77728 4.42212C4.71805 4.42212 3.85938 5.26686 3.85938 6.3089C3.85938 7.35094 4.71805 8.19568 5.77728 8.19568Z" fill="#ACACAC"/>
<path fill-rule="evenodd" clip-rule="evenodd" d="M5.77738 4.82213C4.93287 4.82213 4.25947 5.49392 4.25947 6.3089C4.25947 7.12388 4.93287 7.79568 5.77738 7.79568C6.62189 7.79568 7.29529 7.12388 7.29529 6.3089C7.29529 5.49392 6.62189 4.82213 5.77738 4.82213ZM3.45947 6.3089C3.45947 5.0398 4.50343 4.02213 5.77738 4.02213C7.05133 4.02213 8.09529 5.0398 8.09529 6.3089C8.09529 7.578 7.05133 8.59568 5.77738 8.59568C4.50343 8.59568 3.45947 7.578 3.45947 6.3089Z" fill="#262E30"/>
<path fill-rule="evenodd" clip-rule="evenodd" d="M9.34726 7.20476C9.34726 6.81816 9.66067 6.50476 10.0473 6.50476H10.93C11.3166 6.50476 11.63 6.81816 11.63 7.20476V7.52538C11.7784 7.59328 11.9194 7.67388 12.0518 7.7659L12.349 7.59704C12.6818 7.40797 13.1048 7.52128 13.2985 7.8514L13.7358 8.59659C13.9334 8.93323 13.8174 9.3664 13.4782 9.55936L13.1944 9.72075C13.2012 9.79821 13.2047 9.87647 13.2047 9.95528C13.2047 10.0341 13.2012 10.1123 13.1944 10.1898L13.4782 10.3512C13.8174 10.5442 13.9334 10.9773 13.7358 11.314L13.2985 12.0592C13.1048 12.3893 12.6818 12.5026 12.349 12.3135L12.0518 12.1447C11.9195 12.2367 11.7784 12.3175 11.63 12.3854V12.7058C11.63 13.0924 11.3166 13.4058 10.93 13.4058H10.0473C9.66067 13.4058 9.34726 13.0924 9.34726 12.7058V12.3852C9.19888 12.3173 9.05782 12.2367 8.92545 12.1447L8.62821 12.3135C8.2954 12.5026 7.87244 12.3893 7.67872 12.0592L7.24142 11.314C7.04387 10.9773 7.1598 10.5442 7.49909 10.3512L7.78287 10.1898C7.77602 10.1123 7.77257 10.0341 7.77257 9.95528C7.77257 9.876 7.77622 9.79786 7.78316 9.72091L7.49909 9.55936C7.1598 9.3664 7.04387 8.93323 7.24142 8.59659L7.67872 7.8514C7.87244 7.52128 8.2954 7.40797 8.62821 7.59704L8.92542 7.76588C9.05775 7.67384 9.19889 7.59308 9.34726 7.52519V7.20476ZM10.1473 7.30476V7.58049C10.1473 7.88921 9.94978 8.13387 9.7062 8.24096C9.58323 8.29502 9.46689 8.36162 9.35905 8.43901C9.14617 8.59177 8.8413 8.63818 8.5776 8.48837L8.31878 8.34134L7.98269 8.91406L8.22713 9.05307C8.4957 9.20581 8.61076 9.49883 8.58274 9.764C8.57606 9.82717 8.57257 9.8909 8.57257 9.95528C8.57257 10.0199 8.57587 10.0836 8.58232 10.146C8.60961 10.41 8.49603 10.7046 8.22578 10.8582L7.98269 10.9965L8.31878 11.5692L8.5776 11.4222C8.84132 11.2724 9.14615 11.3188 9.35898 11.4715C9.46676 11.5488 9.58311 11.6153 9.7066 11.6696C9.95035 11.7767 10.1473 12.0215 10.1473 12.3297V12.6058H10.83V12.3301C10.83 12.0213 11.0275 11.7767 11.271 11.6696C11.394 11.6155 11.5104 11.5489 11.6182 11.4715C11.8311 11.3188 12.1359 11.2724 12.3996 11.4222L12.6585 11.5692L12.9946 10.9965L12.7515 10.8582C12.4812 10.7046 12.3676 10.41 12.3949 10.146C12.4014 10.0836 12.4047 10.0199 12.4047 9.95528C12.4047 9.89062 12.4014 9.82695 12.3949 9.76456C12.3676 9.50059 12.4812 9.206 12.7515 9.05231L12.9946 8.91406L12.6585 8.34134L12.3996 8.48837C12.1359 8.63819 11.8311 8.59173 11.6183 8.43908C11.5105 8.36179 11.3941 8.29526 11.2706 8.24097C11.0269 8.13383 10.83 7.88909 10.83 7.58088V7.30476H10.1473Z" fill="#262E30"/>
<path fill-rule="evenodd" clip-rule="evenodd" d="M4.08658 1.29424C4.08658 0.907638 4.39998 0.594238 4.78658 0.594238H6.76792C7.15452 0.594238 7.46792 0.907638 7.46792 1.29424V2.27167C7.83207 2.4199 8.17182 2.61426 8.47955 2.84762L9.35474 2.35073C9.6875 2.16181 10.1103 2.27509 10.304 2.60508L11.2913 4.2869C11.4891 4.6237 11.3729 5.05715 11.0333 5.25L9.93023 5.87637L9.53521 5.18071L10.5501 4.60442L9.66401 3.09509L8.82163 3.57335C8.56031 3.72171 8.24892 3.68121 8.03067 3.51156C7.75791 3.29954 7.45333 3.12514 7.12497 2.9961C6.86325 2.89325 6.66792 2.63945 6.66792 2.33375V1.39424H4.88658V2.33291C4.88658 2.63861 4.69125 2.89241 4.42952 2.99526C4.10117 3.1243 3.79658 3.2987 3.52382 3.51072C3.30557 3.68037 2.99418 3.72087 2.73286 3.57251L1.89058 3.09431L1.00518 4.60353L1.83107 5.07251C2.09812 5.22415 2.2218 5.52088 2.18114 5.79961C2.15694 5.96551 2.14428 6.13503 2.14428 6.30772C2.14428 6.4804 2.15694 6.64993 2.18114 6.81582C2.2218 7.09456 2.09812 7.39129 1.83107 7.54292L1.00528 8.01184L1.89134 9.52118L2.73371 9.04292C2.99503 8.89456 3.30642 8.93506 3.52468 9.10471C3.79743 9.31673 4.10202 9.49113 4.43038 9.62017C4.6921 9.72302 4.88743 9.97682 4.88743 10.2825V11.2212H6.33721V12.0212H4.78743C4.40083 12.0212 4.08743 11.7078 4.08743 11.3212V10.3446C3.72327 10.1964 3.38353 10.002 3.0758 9.76865L2.2006 10.2655C1.86785 10.4545 1.44505 10.3412 1.25133 10.0112L0.264013 8.32937C0.0662951 7.99257 0.182419 7.55912 0.522029 7.36627L1.38207 6.87791C1.35723 6.69139 1.34428 6.50113 1.34428 6.30772C1.34428 6.1143 1.35723 5.92404 1.38207 5.73752L0.521952 5.24911C0.18241 5.05631 0.0662543 4.62298 0.263834 4.2862L1.25045 2.60446C1.44412 2.27435 1.867 2.16097 2.19983 2.34993L3.07494 2.84678C3.38268 2.61343 3.72242 2.41907 4.08658 2.27083V1.29424Z" fill="#262E30"/>
</g>
<defs>
<clipPath id="clip0_8074_35915">
<rect width="14" height="14" fill="white" transform="translate(0 14) rotate(-90)"/>
</clipPath>
</defs>
</svg>
