<svg xmlns="http://www.w3.org/2000/svg" width="18" height="18" viewBox="0 0 18 18"><line x1="11" y1="4.5" x2="17" y2="4.5" style="fill:none;stroke:#949494;stroke-linejoin:round"/><line x1="14" y1="6.5" x2="17" y2="6.5" style="fill:none;stroke:#949494;stroke-linejoin:round"/><line x1="14" y1="8.5" x2="17" y2="8.5" style="fill:none;stroke:#949494;stroke-linejoin:round"/><line x1="12" y1="10.5" x2="17" y2="10.5" style="fill:none;stroke:#949494;stroke-linejoin:round"/><line x1="14" y1="12.5" x2="17" y2="12.5" style="fill:none;stroke:#949494;stroke-linejoin:round"/><line x1="14" y1="14.5" x2="17" y2="14.5" style="fill:none;stroke:#949494;stroke-linejoin:round"/><line x1="11" y1="16.5" x2="17" y2="16.5" style="fill:none;stroke:#949494;stroke-linejoin:round"/><line x1="14" y1="0.5" x2="17" y2="0.5" style="fill:none;stroke:#949494;stroke-linejoin:round"/><line x1="14" y1="2.5" x2="17" y2="2.5" style="fill:none;stroke:#949494;stroke-linejoin:round"/><line x1="4.5" y1="2.5" x2="4.5" y2="11.5" style="fill:none;stroke:#949494;stroke-linecap:round;stroke-linejoin:round"/><path d="M6.5,9.055V2.5a2,2,0,0,0-4,0V9.055a4,4,0,1,0,4,0Z" style="fill:none;stroke:#009688;stroke-linecap:round;stroke-linejoin:round"/><circle cx="4.5" cy="12.5" r="2.5" style="fill:#949494"/></svg>