<svg width="14" height="14" viewBox="0 0 14 14" fill="none" xmlns="http://www.w3.org/2000/svg">
<path fill-rule="evenodd" clip-rule="evenodd" d="M2.61621 1.22424C2.89235 1.22424 3.11621 1.4481 3.11621 1.72424V12.2759C3.11621 12.552 2.89235 12.7759 2.61621 12.7759C2.34007 12.7759 2.11621 12.552 2.11621 12.2759V1.72424C2.11621 1.4481 2.34007 1.22424 2.61621 1.22424Z" fill="#262E30"/>
<path fill-rule="evenodd" clip-rule="evenodd" d="M11.3843 1.22412C11.6604 1.22412 11.8843 1.44798 11.8843 1.72412V12.2758C11.8843 12.5519 11.6604 12.7758 11.3843 12.7758C11.1081 12.7758 10.8843 12.5519 10.8843 12.2758V1.72412C10.8843 1.44798 11.1081 1.22412 11.3843 1.22412Z" fill="#262E30"/>
<path fill-rule="evenodd" clip-rule="evenodd" d="M10.0167 5.70711C10.1699 5.47732 10.1078 5.16689 9.87797 5.01375L7.72847 3.58121C7.19778 3.22753 6.50148 3.24809 5.99257 3.63245L4.14107 5.03083C3.92071 5.19726 3.87699 5.51081 4.04342 5.73116C4.20985 5.95152 4.5234 5.99523 4.74375 5.82881L6.59526 4.43042C6.76489 4.3023 6.99699 4.29545 7.17389 4.41334L9.32339 5.84588C9.55318 5.99903 9.86361 5.93689 10.0167 5.70711Z" fill="#262E30"/>
<path fill-rule="evenodd" clip-rule="evenodd" d="M10.0167 10.6735C10.1699 10.4437 10.1078 10.1333 9.87797 9.98018L7.72847 8.54764C7.19778 8.19396 6.50148 8.21452 5.99257 8.59888L4.14107 9.99726C3.92071 10.1637 3.87699 10.4772 4.04342 10.6976C4.20985 10.9179 4.5234 10.9617 4.74375 10.7952L6.59526 9.39685C6.76489 9.26873 6.99699 9.26188 7.17389 9.37978L9.32339 10.8123C9.55318 10.9655 9.86361 10.9033 10.0167 10.6735Z" fill="#262E30"/>
</svg>
