<svg xmlns="http://www.w3.org/2000/svg" width="18" height="18" viewBox="0 0 18 18"><path d="M2.5.5H.5m2,14H.5m1-1V1.5" style="fill:none;stroke:#009688;stroke-linecap:square;stroke-linejoin:round"/><path d="M.5,16.5h16m0-3h0a1,1,0,0,0-1-1H5.5a1,1,0,0,0-1,1h0a1,1,0,0,0,1,1h10A1,1,0,0,0,16.5,13.5Zm0-4h0a1,1,0,0,0-1-1H5.5a1,1,0,0,0-1,1h0a1,1,0,0,0,1,1h10A1,1,0,0,0,16.5,9.5Zm0-4h0a1,1,0,0,0-1-1H5.5a1,1,0,0,0-1,1h0a1,1,0,0,0,1,1h10A1,1,0,0,0,16.5,5.5Zm0-4h0a1,1,0,0,0-1-1H5.5a1,1,0,0,0-1,1h0a1,1,0,0,0,1,1h10A1,1,0,0,0,16.5,1.5Z" style="fill:none;stroke:#949494;stroke-linecap:square;stroke-linejoin:round"/></svg>