<svg xmlns="http://www.w3.org/2000/svg" width="18" height="18" viewBox="0 0 18 18"><rect x="0.5" y="0.5" width="16" height="16" rx="1" style="fill:none;stroke:#949494;stroke-linecap:round;stroke-linejoin:round"/><path d="M7,5H5V4H7ZM7,6H5V7H7ZM7,8H5V9H7Zm0,2H5v1H7ZM7,2H5V3H7ZM7,12H5v1H7Zm0,2H5v1H7Z" style="fill:#009688"/><rect x="7" y="1" width="2" height="1" style="fill:#009688"/><rect x="7" y="5" width="2" height="1" style="fill:#009688"/><rect x="7" y="7" width="2" height="1" style="fill:#009688"/><rect x="7" y="9" width="2" height="1" style="fill:#009688"/><rect x="7" y="11" width="2" height="1" style="fill:#009688"/><rect x="7" y="3" width="2" height="1" style="fill:#009688"/><rect x="7" y="13" width="2" height="1" style="fill:#009688"/><rect x="7" y="15" width="2" height="1" style="fill:#009688"/></svg>