<?xml version="1.0" encoding="UTF-8" standalone="no"?>
<svg
   width="24"
   height="24"
   viewBox="0 0 24 24"
   version="1.1"
   id="svg10"
   sodipodi:docname="param_tpmsd.svg"
   inkscape:version="1.4 (86a8ad7, 2024-10-11)"
   xmlns:inkscape="http://www.inkscape.org/namespaces/inkscape"
   xmlns:sodipodi="http://sodipodi.sourceforge.net/DTD/sodipodi-0.dtd"
   xmlns="http://www.w3.org/2000/svg"
   xmlns:svg="http://www.w3.org/2000/svg">
  <defs
     id="defs10" />
  <sodipodi:namedview
     id="namedview10"
     pagecolor="#ffffff"
     bordercolor="#666666"
     borderopacity="1.0"
     inkscape:showpageshadow="2"
     inkscape:pageopacity="0.0"
     inkscape:pagecheckerboard="0"
     inkscape:deskcolor="#d1d1d1"
     inkscape:zoom="24.479167"
     inkscape:cx="12.173617"
     inkscape:cy="16.156596"
     inkscape:window-width="2560"
     inkscape:window-height="1377"
     inkscape:window-x="-8"
     inkscape:window-y="-8"
     inkscape:window-maximized="1"
     inkscape:current-layer="svg10" />
  <line
     x1="1.5"
     y1="17.5"
     x2="17.5"
     y2="1.5"
     style="fill:none;stroke:#949494;stroke-linecap:round;stroke-linejoin:round;opacity:0.75"
     id="line1" />
  <line
     x1="22.5"
     y1="16.5"
     x2="17.5"
     y2="21.5"
     style="fill:none;stroke:#949494;stroke-linecap:round;stroke-linejoin:round;opacity:0.75"
     id="line2" />
  <line
     x1="7.5"
     y1="1.5"
     x2="1.5"
     y2="7.5"
     style="fill:none;stroke:#575757;stroke-linecap:round;stroke-linejoin:round;opacity:0.75;stroke-opacity:1"
     id="line3" />
  <line
     x1="22.5"
     y1="6.5"
     x2="6.5"
     y2="22.5"
     style="fill:none;stroke:#949494;stroke-linecap:round;stroke-linejoin:round;opacity:0.75"
     id="line4" />
  <rect
     x="6.086"
     y="5.086"
     width="2.828"
     height="2.828"
     transform="translate(-2.399 7.207) rotate(-45)"
     style="fill:none;stroke:#949494;stroke-linecap:round;stroke-miterlimit:10;opacity:0.75"
     id="rect4" />
  <rect
     x="16.086"
     y="5.086"
     width="2.828"
     height="2.828"
     transform="translate(0.529 14.278) rotate(-45)"
     style="fill:none;stroke:#949494;stroke-linecap:round;stroke-miterlimit:10;opacity:0.75"
     id="rect5" />
  <rect
     x="6.086"
     y="15.086"
     width="2.828"
     height="2.828"
     transform="translate(-9.471 10.136) rotate(-45)"
     style="fill:none;stroke:#949494;stroke-linecap:round;stroke-miterlimit:10;opacity:0.75"
     id="rect6" />
  <rect
     x="16.086"
     y="15.086"
     width="2.828"
     height="2.828"
     transform="translate(-6.542 17.207) rotate(-45)"
     style="fill:none;stroke:#949494;stroke-linecap:round;stroke-miterlimit:10;opacity:0.75"
     id="rect7" />
  <line
     x1="18.5"
     y1="22.5"
     x2="1.5"
     y2="5.5"
     style="fill:none;stroke:#009688;stroke-linecap:round;stroke-linejoin:round"
     id="line7" />
  <line
     x1="17.5"
     y1="1.5"
     x2="22.5"
     y2="6.5"
     style="fill:none;stroke:#009688;stroke-linecap:round;stroke-linejoin:round"
     id="line8" />
  <line
     x1="1.5"
     y1="15.5"
     x2="8.5"
     y2="22.5"
     style="fill:none;stroke:#009688;stroke-linecap:round;stroke-linejoin:round"
     id="line9" />
  <line
     x1="7.5"
     y1="1.5"
     x2="22.5"
     y2="16.5"
     style="fill:none;stroke:#009688;stroke-linecap:round;stroke-linejoin:round"
     id="line10" />
  <path
     d="M3.5,1.5h17a2,2,0,0,1,2,2v17a2,2,0,0,1-2,2H3.5a2,2,0,0,1-2-2V3.5A2,2,0,0,1,3.5,1.5Z"
     style="fill:none;stroke:#949494;stroke-linecap:round;stroke-linejoin:round"
     id="path10" />
  <path
     style="fill:#009688;fill-opacity:1;stroke:none;stroke-width:0.0408511"
     d="M 6.1580658,17.841473 4.8204221,16.503369 6.1585266,15.165725 7.496631,13.828082 8.8342746,15.166186 10.171918,16.504291 8.8338138,17.841934 7.4957094,19.179578 Z M 8.1799749,17.147699 8.8238576,16.50476 8.1604784,15.840465 7.4970991,15.17617 6.8532304,15.819096 c -0.3541278,0.353609 -0.6438687,0.661308 -0.6438687,0.683776 0,0.05342 1.2325109,1.287766 1.2858497,1.287766 0.022484,0 0.330628,-0.289322 0.6847635,-0.642939 z"
     id="path14" />
  <path
     style="fill:#009688;fill-opacity:1;stroke:none;stroke-width:0.0408511"
     d="M 6.1580658,7.8329628 4.8204221,6.4948583 6.1585266,5.1572147 7.496631,3.819571 8.8342746,5.1576755 10.171918,6.4957799 8.8338138,7.8334236 7.4957094,9.1710671 Z M 8.1809043,5.8523793 C 7.8272953,5.4982515 7.5195961,5.2085106 7.4971282,5.2085106 c -0.053418,0 -1.2877665,1.2325109 -1.2877665,1.2858497 0,0.022484 0.2893227,0.330628 0.6429394,0.6847636 L 7.4952404,7.8230067 8.159535,7.1596273 8.8238295,6.496248 Z"
     id="path15" />
  <path
     style="fill:#009688;fill-opacity:1;stroke:none;stroke-width:0.0408511"
     d="M 16.166576,7.8329628 14.828933,6.4948583 16.167037,5.1572147 17.505142,3.819571 18.842785,5.1576755 20.180429,6.4957799 18.842324,7.8334236 17.50422,9.1710671 Z m 2.624913,-1.3366857 c 0,-0.053418 -1.232511,-1.2877665 -1.285849,-1.2877665 -0.02248,0 -0.330628,0.2893228 -0.684764,0.6429394 l -0.643883,0.6429394 0.66338,0.6642945 0.663379,0.6642946 0.643869,-0.6429253 C 18.501748,6.8264443 18.791489,6.518745 18.791489,6.4962771 Z"
     id="path16" />
  <path
     style="fill:#009688;fill-opacity:1;stroke:none;stroke-width:0.0408511"
     d="m 16.166576,17.841473 -1.337643,-1.338104 1.338104,-1.337644 1.338105,-1.337643 1.337643,1.338104 1.337644,1.338105 -1.338105,1.337643 -1.338104,1.337644 z m 2.001456,-0.673319 c 0.342901,-0.342367 0.623457,-0.640881 0.623457,-0.663365 0,-0.02248 -0.289322,-0.330628 -0.642939,-0.684764 l -0.642939,-0.643883 -0.664295,0.66338 -0.664294,0.663379 0.642925,0.643869 c 0.353609,0.354127 0.661308,0.643868 0.683776,0.643868 0.02247,0 0.321407,-0.280118 0.664309,-0.622484 z"
     id="path17" />
  <path
     style="fill:#009688;fill-opacity:1;stroke:none;stroke-width:0.0408511"
     d="M 2.90923,22.896259 C 2.0613133,22.674106 1.4709446,22.121791 1.1317723,21.233374 l -0.09007,-0.235927 -0.010758,-8.854467 c -0.0094,-7.7388928 -0.00304,-8.8917826 0.050495,-9.1506389 0.1859554,-0.8991302 0.9034473,-1.644147 1.8305395,-1.9007639 0.2366323,-0.065499 0.8566253,-0.070301 9.0778082,-0.070301 7.25241,0 8.863843,0.00978 9.048511,0.054939 0.41936,0.1025422 0.894759,0.3676462 1.184681,0.6606312 0.460787,0.465656 0.674736,0.9256377 0.740656,1.5923869 0.02306,0.2331921 0.03324,3.8138627 0.02551,8.9669367 -0.01218,8.11996 -0.0168,8.591678 -0.08634,8.820989 -0.280161,0.923863 -1.004037,1.61516 -1.884942,1.800108 -0.246575,0.05177 -1.492743,0.05983 -9.04851,0.0585 -8.488697,-0.0015 -8.7718539,-0.004 -9.0601322,-0.07951 z m 18.140693,-0.972914 c 0.331179,-0.133671 0.679356,-0.465886 0.829868,-0.791824 l 0.118507,-0.256627 0.01067,-8.781151 C 22.020819,2.3471958 22.04116,3.0891606 21.749942,2.6450177 21.599404,2.4154289 21.375482,2.2298349 21.079149,2.0890425 l -0.18383,-0.08734 H 12.010213 3.1251064 L 2.8684789,2.1202084 C 2.5425414,2.270721 2.2103264,2.6188978 2.0766551,2.9500767 l -0.095379,0.2363063 -0.011773,8.578723 c -0.00774,5.63809 0.00244,8.687076 0.029697,8.89482 0.093595,0.713409 0.5893405,1.239468 1.2564016,1.333226 0.1304402,0.01833 4.1343554,0.03159 8.8975893,0.02945 l 8.660426,-0.0039 z"
     id="path18" />
  <path
     style="fill:#575757;fill-opacity:0.74902;stroke:#575757;stroke-width:0.0408511;stroke-opacity:1"
     d="m 12.847206,16.115289 -0.325345,-0.327265 2.133833,-2.133833 2.133833,-2.133833 0.336923,0.336924 0.336923,0.336923 -2.12388,2.124174 c -1.168133,1.168296 -2.133568,2.124174 -2.14541,2.124174 -0.01184,0 -0.167937,-0.147269 -0.346877,-0.327264 z"
     id="path21" />
  <path
     style="fill:#575757;fill-opacity:0.74902;stroke:#575757;stroke-width:0.0408511;stroke-opacity:1"
     d="m 7.8534456,21.130094 -0.3361443,-0.3379 2.1346396,-2.134349 2.1346401,-2.134349 0.336144,0.3379 0.336144,0.337899 -2.13464,2.134349 -2.1346391,2.134349 z"
     id="path22" />
  <path
     style="fill:#575757;fill-opacity:0.74902;stroke:#575757;stroke-width:0.0408511;stroke-opacity:1"
     d="m 6.546827,21.763848 0.2344496,-0.234449 0.2344496,0.234449 0.2344496,0.23445 H 6.7812766 6.3123774 Z"
     id="path23" />
  <path
     style="fill:#575757;fill-opacity:0.74902;stroke:#575757;stroke-width:0.0408511;stroke-opacity:1"
     d="m 17.861947,11.121574 -0.336135,-0.33789 2.13578,-2.1354894 2.135779,-2.135489 0.09025,0.096067 c 0.0827,0.088027 0.09025,0.1368911 0.09025,0.583812 v 0.4877446 l -1.889895,1.8895673 -1.889895,1.8895675 z"
     id="path24" />
  <path
     style="fill:#949494;fill-opacity:0.74902;stroke:#575757;stroke-width:0.0408511"
     d="m 6.5877715,21.763941 0.193505,-0.193505 0.193505,0.193505 0.1935051,0.193506 H 6.7812765 6.3942664 Z"
     id="path1" />
  <path
     style="fill:#949494;fill-opacity:0.74902;stroke:#575757;stroke-width:0.0408511"
     d="M 7.8529991,21.088808 7.558256,20.792085 9.6516156,18.699021 c 1.1513474,-1.151185 2.1121364,-2.093064 2.1350854,-2.093064 0.02295,0 0.174361,0.133526 0.33647,0.296724 l 0.294743,0.296723 -2.09336,2.093064 c -1.1513475,1.151185 -2.1121362,2.093064 -2.1350855,2.093064 -0.022949,0 -0.1743606,-0.133526 -0.3364694,-0.296724 z"
     id="path2" />
  <path
     style="fill:#949494;fill-opacity:0.74902;stroke:#575757;stroke-width:0.0408511"
     d="m 12.847659,16.074118 -0.285957,-0.284076 2.113902,-2.114406 2.113903,-2.114406 0.316736,0.318165 0.316735,0.318166 -2.093037,2.081645 c -1.15117,1.144905 -2.116277,2.081047 -2.144681,2.080316 -0.0284,-7.31e-4 -0.180324,-0.129163 -0.337601,-0.285404 z"
     id="path3" />
  <path
     style="fill:#949494;fill-opacity:0.74902;stroke:#575757;stroke-width:0.0408511"
     d="m 17.86151,11.080298 -0.294742,-0.296722 2.118341,-2.118048 c 2.117619,-2.1173249 2.118364,-2.1180149 2.185127,-2.0226982 0.05244,0.074868 0.06679,0.1965381 0.06679,0.5664281 v 0.4710787 l -1.848677,1.8483423 c -1.016773,1.0165881 -1.867445,1.8483421 -1.890384,1.8483421 -0.02294,0 -0.174341,-0.133525 -0.33645,-0.296723 z"
     id="path4" />
  <path
     style="fill:#949494;fill-opacity:0.74902;stroke:#575757;stroke-width:0.0408511"
     d="M 2.8696064,6.137744 2.5334527,5.7998348 4.422634,3.9109812 6.3118152,2.0221276 H 6.804957 c 0.4607028,0 0.4989051,0.00614 0.5807596,0.093265 L 7.4733352,2.2086584 5.3395475,4.3421556 3.20576,6.475653 Z"
     id="path5" />
  <path
     style="fill:#949494;fill-opacity:0.74902;stroke:#575757;stroke-width:0.0408511"
     d="m 17.861947,21.130084 -0.336135,-0.33789 2.135779,-2.135489 2.13578,-2.135489 0.09025,0.09607 c 0.0827,0.08803 0.09025,0.136891 0.09025,0.583812 v 0.487745 l -1.889895,1.889567 -1.889895,1.889567 z"
     id="path6" />
  <path
     style="fill:#949494;fill-opacity:0.74902;stroke:#575757;stroke-width:0.0408511"
     d="M 7.8633763,11.131459 7.5380311,10.804194 9.6718639,8.6703613 11.805697,6.5365285 12.14262,6.8734517 12.479543,7.2103748 10.355663,9.334549 c -1.1681333,1.168296 -2.1335682,2.124174 -2.1454103,2.124174 -0.011842,0 -0.1679366,-0.147269 -0.3468764,-0.327264 z"
     id="path7" />
  <path
     style="fill:#949494;fill-opacity:0.74902;stroke:#575757;stroke-width:0.0408511"
     d="m 2.8696157,16.146264 -0.3361442,-0.3379 2.1346395,-2.134349 2.1346397,-2.134349 0.3361442,0.3379 0.3361442,0.337899 -2.1346396,2.134349 -2.1346395,2.134349 z"
     id="path8" />
  <path
     style="fill:#949494;fill-opacity:0.74902;stroke:#575757;stroke-width:0.0408511"
     d="m 2.0017021,17.218723 v -0.468899 l 0.2344496,0.23445 0.2344496,0.234449 -0.2344496,0.23445 -0.2344496,0.234449 z"
     id="path9" />
  <path
     style="fill:#949494;fill-opacity:0.74902;stroke:#575757;stroke-width:0.0408511"
     d="M 12.878117,6.137744 12.541963,5.7998348 14.431144,3.9109812 16.320326,2.0221276 h 0.493142 c 0.460702,0 0.498905,0.00614 0.580759,0.093265 l 0.08762,0.093265 -2.133788,2.1334972 -2.133787,2.1334974 z"
     id="path11" />
</svg>
