<svg xmlns="http://www.w3.org/2000/svg" viewBox="0 0 18 18"><path d="M15.5,17H1.5A1.5,1.5,0,0,1,0,15.5V1.5A1.5,1.5,0,0,1,1.5,0h14A1.5,1.5,0,0,1,17,1.5v14A1.5,1.5,0,0,1,15.5,17ZM1.5,1a.5.5,0,0,0-.5.5v14a.5.5,0,0,0,.5.5h14a.5.5,0,0,0,.5-.5V1.5a.5.5,0,0,0-.5-.5Z" style="fill:gray"/><polygon points="1 7.29 1 8.71 8.71 1 7.29 1 1 7.29" style="fill:#009688"/><polygon points="5.71 16 16 5.71 16 4.29 4.29 16 5.71 16" style="fill:#009688"/><path d="M1,15.5a.5.5,0,0,0,.5.5h.21L16,1.71V1.5a.5.5,0,0,0-.5-.5h-.21L1,15.29Z" style="fill:#009688"/><polygon points="1 12.71 12.71 1 11.29 1 1 11.29 1 12.71" style="fill:#009688"/><polygon points="3.29 1 1 3.29 1 4.71 4.71 1 3.29 1" style="fill:#009688"/><polygon points="13.71 16 16 13.71 16 12.29 12.29 16 13.71 16" style="fill:#009688"/><polygon points="9.71 16 16 9.71 16 8.29 8.29 16 9.71 16" style="fill:#009688"/></svg>