<svg width="14" height="14" viewBox="0 0 14 14" fill="none" xmlns="http://www.w3.org/2000/svg">
<g clip-path="url(#clip0_8074_35946)">
<path fill-rule="evenodd" clip-rule="evenodd" d="M5.03992 1.91067C5.03992 1.08225 5.71149 0.410675 6.53992 0.410675H7.45998C8.28841 0.410675 8.95998 1.08225 8.95998 1.91068V3.3317C8.95998 3.60784 9.18383 3.8317 9.45998 3.8317H11.7151C12.5435 3.8317 13.2151 4.50327 13.2151 5.3317V6.41862C13.2151 7.24704 12.5435 7.91862 11.7151 7.91862H2.28516C1.45673 7.91862 0.785156 7.24705 0.785156 6.41862V5.3317C0.785156 4.50328 1.45673 3.8317 2.28516 3.8317H4.53992C4.81606 3.8317 5.03992 3.60784 5.03992 3.3317V1.91067ZM6.53992 1.41068C6.26378 1.41068 6.03992 1.63453 6.03992 1.91067V3.3317C6.03992 4.16013 5.36835 4.8317 4.53992 4.8317H2.28516C2.00901 4.8317 1.78516 5.05556 1.78516 5.3317V6.41862C1.78516 6.69476 2.00901 6.91862 2.28516 6.91862H11.7151C11.9912 6.91862 12.2151 6.69476 12.2151 6.41862V5.3317C12.2151 5.05556 11.9912 4.8317 11.7151 4.8317H9.45998C8.63155 4.8317 7.95998 4.16013 7.95998 3.3317V1.91068C7.95998 1.63453 7.73612 1.41068 7.45998 1.41068H6.53992Z" fill="#262E30"/>
<path fill-rule="evenodd" clip-rule="evenodd" d="M3.26076 7.91931C3.02576 7.91931 2.82247 8.08296 2.77229 8.31255L1.97013 11.9826C1.90198 12.2944 2.13944 12.5893 2.4586 12.5893H11.5674C11.8822 12.5893 12.1187 12.3018 12.058 11.9928L11.336 8.3228C11.2899 8.08836 11.0844 7.91931 10.8454 7.91931H3.26076ZM1.79536 8.09902C1.9459 7.41027 2.55575 6.91931 3.26076 6.91931H10.8454C11.5622 6.91931 12.1789 7.42646 12.3172 8.12979L13.0392 11.7998C13.2215 12.7267 12.512 13.5893 11.5674 13.5893H2.4586C1.50112 13.5893 0.788744 12.7044 0.993195 11.769L1.79536 8.09902Z" fill="#262E30"/>
<path fill-rule="evenodd" clip-rule="evenodd" d="M4.79834 13.0863C4.5222 13.0863 4.29834 12.8624 4.29834 12.5863L4.29834 10.2243C4.29834 9.94811 4.5222 9.72425 4.79834 9.72425C5.07448 9.72425 5.29834 9.94811 5.29834 10.2243L5.29834 12.5863C5.29834 12.8624 5.07448 13.0863 4.79834 13.0863Z" fill="#262E30"/>
<path fill-rule="evenodd" clip-rule="evenodd" d="M8.69385 13.0863C8.41771 13.0863 8.19385 12.8624 8.19385 12.5863L8.19385 10.2243C8.19385 9.94811 8.41771 9.72425 8.69385 9.72425C8.96999 9.72425 9.19385 9.94811 9.19385 10.2243L9.19385 12.5863C9.19385 12.8624 8.96999 13.0863 8.69385 13.0863Z" fill="#262E30"/>
</g>
<defs>
<clipPath id="clip0_8074_35946">
<rect width="14" height="14" fill="white" transform="translate(0 14) rotate(-90)"/>
</clipPath>
</defs>
</svg>
