<svg xmlns="http://www.w3.org/2000/svg" viewBox="0 0 18 18"><path d="M3.5,15.58c-.29.59-.64.92-1,.92-1.1,0-2-4.21-2-8s.9-8,2-8c.36,0,.71.33,1,.92" style="fill:none;stroke:gray;stroke-linecap:round;stroke-linejoin:round"/><path d="M5.5,16.5c-1.1,0-2-4.21-2-8s.9-8,2-8" style="fill:none;stroke:#009688;stroke-linecap:round;stroke-linejoin:round"/><path d="M7.5,16.5c-1.1,0-2-4.21-2-8s.9-8,2-8" style="fill:none;stroke:#009688;stroke-linecap:round;stroke-linejoin:round"/><ellipse cx="10.5" cy="8.5" rx="2" ry="8" style="fill:none;stroke:gray;stroke-linecap:round;stroke-linejoin:round"/><path d="M12.5,16.5h3a1,1,0,0,0,1-1V.5" style="fill:none;stroke:#009688;stroke-linecap:round;stroke-linejoin:round"/></svg>