<svg width="10" height="10" viewBox="0 0 10 10" fill="none" xmlns="http://www.w3.org/2000/svg">
<g clip-path="url(#clip0_8986_34986)">
<rect x="0.906738" y="0.75" width="8.18652" height="8.5" rx="0.25" stroke="#262E30" stroke-width="0.5"/>
<path fill-rule="evenodd" clip-rule="evenodd" d="M8.44384 9.15385H8.70117C8.97731 9.15385 9.20117 8.92999 9.20117 8.65385V7.77134C9.01185 8.27195 8.7555 8.73679 8.44384 9.15385ZM9.20117 3.82879C8.50648 2.15978 6.91732 1 5.07962 1C3.0001 1 1.29827 2.76362 1.29827 4.96686C1.29827 6.81838 2.72798 8.30496 4.47852 8.30496C5.94047 8.30496 7.13782 7.06157 7.13782 5.51178C7.13782 4.20557 6.13326 3.17131 4.91131 3.17131C3.89774 3.17131 3.05347 4.0379 3.05347 5.12614C3.05347 6.02995 3.75348 6.74564 4.59072 6.74564C5.28371 6.74564 5.8635 6.1557 5.8635 5.40279C5.8635 4.78402 5.3879 4.30307 4.82315 4.30307C4.36259 4.30307 3.97515 4.69181 3.97515 5.20159C3.97515 5.6122 4.29181 5.93245 4.66286 5.93245C4.95511 5.93245 5.2063 5.68623 5.2063 5.35249C5.2063 5.09421 5.0032 4.89829 4.78307 4.89829C4.68224 4.89829 4.62549 4.93068 4.59194 4.96752C4.55575 5.00726 4.52157 5.08014 4.52157 5.20159C4.52157 5.31575 4.54634 5.35545 4.55458 5.36503L4.55474 5.36522C4.55684 5.36774 4.5704 5.38402 4.62626 5.38915C4.62683 5.38149 4.62732 5.3728 4.62771 5.36297C4.62901 5.32972 4.62886 5.29548 4.62868 5.25362V5.25361L4.62853 5.20159C4.62853 5.06352 4.74046 4.95159 4.87853 4.95159C5.0166 4.95159 5.12853 5.06352 5.12853 5.20159L5.12866 5.24197C5.12886 5.28728 5.12909 5.33744 5.12732 5.38257C5.12499 5.44205 5.11881 5.51557 5.09642 5.58704C5.07283 5.66237 5.02736 5.7474 4.93969 5.80987C4.85359 5.87123 4.75495 5.89069 4.66286 5.89069C4.4794 5.89069 4.30122 5.83726 4.17547 5.69103C4.0562 5.55233 4.02157 5.37247 4.02157 5.20159C4.02157 4.98771 4.08286 4.78393 4.22227 4.63086C4.36432 4.47488 4.56332 4.39829 4.78307 4.39829C5.3003 4.39829 5.7063 4.8395 5.7063 5.35249C5.7063 5.94093 5.25221 6.43245 4.66286 6.43245C3.992 6.43245 3.47515 5.86406 3.47515 5.20159C3.47515 4.4371 4.06549 3.80307 4.82315 3.80307C5.685 3.80307 6.3635 4.52932 6.3635 5.40279C6.3635 6.41041 5.58081 7.24564 4.59072 7.24564C3.45638 7.24564 2.55347 6.28465 2.55347 5.12614C2.55347 3.7832 3.60064 2.67131 4.91131 2.67131C6.43036 2.67131 7.63782 3.95086 7.63782 5.51178C7.63782 7.31536 6.23845 8.80496 4.47852 8.80496C2.43013 8.80496 0.798266 7.07231 0.798266 4.96686C0.798266 2.50892 2.703 0.5 5.07962 0.5C6.79575 0.5 8.30297 1.40023 9.20117 2.76765V3.82879Z" fill="#262E30"/>
</g>
<defs>
<clipPath id="clip0_8986_34986">
<rect width="10" height="10" fill="white"/>
</clipPath>
</defs>
</svg>
