<?xml version="1.0" encoding="UTF-8"?><svg id="a" xmlns="http://www.w3.org/2000/svg" width="24" height="24" viewBox="0 0 24 24"><path d="M15.5,22.5L1.5,8.5M22.5,15.5L8.5,1.5M8.5,22.5L1.5,15.5M22.5,8.5L15.5,1.5M2.09,2.09l19.83,19.83" style="fill:none; opacity:.75; stroke:#949494; stroke-linecap:round; stroke-linejoin:round;"/><path d="M8.5,22.5l14-14M1.5,15.5L15.5,1.5M15.5,22.5l7-7M1.5,8.5L8.5,1.5M21.91,2.09L2.09,21.91" style="fill:none; stroke:#009688; stroke-linecap:round; stroke-linejoin:round;"/><line x1="2.5" y1="7.5" x2="2.5" y2="14.5" style="fill:none; stroke:#009688; stroke-linecap:round; stroke-linejoin:round;"/><line x1="14.5" y1="2.5" x2="21.5" y2="2.5" style="fill:none; stroke:#009688; stroke-linecap:round; stroke-linejoin:round;"/><line x1="9.5" y1="21.5" x2="2.5" y2="21.5" style="fill:none; stroke:#009688; stroke-linecap:round; stroke-linejoin:round;"/><line x1="21.5" y1="9.5" x2="21.5" y2="16.5" style="fill:none; stroke:#009688; stroke-linecap:round; stroke-linejoin:round;"/><line x1="16.5" y1="21.5" x2="21.5" y2="21.5" style="fill:none; stroke:#009688; stroke-linecap:round; stroke-linejoin:round;"/><line x1="7.5" y1="2.5" x2="2.5" y2="2.5" style="fill:none; stroke:#009688; stroke-linecap:round; stroke-linejoin:round;"/><path d="M3.5,1.5h17c1.1,0,2,.9,2,2v17c0,1.1-.9,2-2,2H3.5c-1.1,0-2-.9-2-2V3.5c0-1.1.9-2,2-2Z" style="fill:none; stroke:#949494; stroke-linecap:round; stroke-linejoin:round;"/></svg>