<?xml version="1.0" encoding="UTF-8"?><svg id="a" xmlns="http://www.w3.org/2000/svg" width="24" height="24" viewBox="0 0 24 24"><line x1="2.5" y1="2.5" x2="7.5" y2="7.5" style="fill:none; opacity:.75; stroke:#949494; stroke-linecap:round; stroke-linejoin:round;"/><line x1="9.5" y1="9.5" x2="14.5" y2="14.5" style="fill:none; stroke:#949494; stroke-linecap:round; stroke-linejoin:round;"/><line x1="17" y1="2" x2="22" y2="7" style="fill:none; opacity:.75; stroke:#949494; stroke-linecap:round; stroke-linejoin:round;"/><line x1="2" y1="17" x2="7" y2="22" style="fill:none; opacity:.75; stroke:#949494; stroke-linecap:round; stroke-linejoin:round;"/><line x1="16.5" y1="16.5" x2="21.5" y2="21.5" style="fill:none; opacity:.75; stroke:#949494; stroke-linecap:round; stroke-linejoin:round;"/><line x1="10.5" y1="1.5" x2="22.5" y2="13.5" style="fill:none; stroke:#009688; stroke-linecap:round; stroke-linejoin:round;"/><line x1="22.5" y1="16.5" x2="7.5" y2="1.5" style="fill:none; stroke:#009688; stroke-linecap:round; stroke-linejoin:round; stroke-width:.79px;"/><line x1="1.5" y1="13.5" x2="13.5" y2="1.5" style="fill:none; stroke:#009688; stroke-linecap:round; stroke-linejoin:round;"/><line x1="16.5" y1="1.5" x2="1.5" y2="16.5" style="fill:none; stroke:#009688; stroke-linecap:round; stroke-linejoin:round;"/><line x1="13.5" y1="22.5" x2="1.5" y2="10.5" style="fill:none; stroke:#009688; stroke-linecap:round; stroke-linejoin:round;"/><line x1="1.5" y1="7.5" x2="16.5" y2="22.5" style="fill:none; stroke:#009688; stroke-linecap:round; stroke-linejoin:round;"/><line x1="22.5" y1="10.5" x2="10.5" y2="22.5" style="fill:none; stroke:#009688; stroke-linecap:round; stroke-linejoin:round;"/><line x1="7.5" y1="22.5" x2="22.5" y2="7.5" style="fill:none; stroke:#009688; stroke-linecap:round; stroke-linejoin:round;"/><path id="b" d="M3.5,1.5h17c1.1,0,2,.9,2,2v17c0,1.1-.9,2-2,2H3.5c-1.1,0-2-.9-2-2V3.5c0-1.1.9-2,2-2Z" style="fill:none; stroke:#949494; stroke-linecap:round; stroke-linejoin:round; stroke-width:.89px;"/></svg>