<svg xmlns="http://www.w3.org/2000/svg" width="18" height="18" viewBox="0 0 18 18"><path d="M.5.5v2m16-2v2m-1-1H1.5" style="fill:none;stroke:#009688;stroke-linecap:square;stroke-linejoin:round"/><path d="M15.5,14.5H1.5a1,1,0,0,1-1-1h0a1,1,0,0,1,1-1h14a1,1,0,0,1,1,1h0A1,1,0,0,1,15.5,14.5Zm1-5h0a1,1,0,0,0-1-1H1.5a1,1,0,0,0-1,1h0a1,1,0,0,0,1,1h14A1,1,0,0,0,16.5,9.5Zm0-4h0a1,1,0,0,0-1-1H1.5a1,1,0,0,0-1,1h0a1,1,0,0,0,1,1h14A1,1,0,0,0,16.5,5.5Zm-16,11h16" style="fill:none;stroke:#949494;stroke-linecap:square;stroke-linejoin:round"/></svg>