<svg xmlns="http://www.w3.org/2000/svg" viewBox="0 0 18 18"><line x1="0.5" y1="8.5" x2="12.5" y2="8.5" style="fill:none;stroke:#949494;stroke-linecap:square;stroke-linejoin:round"/><line x1="14.5" y1="8.5" x2="16.5" y2="8.5" style="fill:none;stroke:#949494;stroke-linecap:square;stroke-linejoin:round"/><line x1="0.5" y1="14.5" x2="5.5" y2="14.5" style="fill:none;stroke:#949494;stroke-linecap:square;stroke-linejoin:round"/><line x1="7.5" y1="14.5" x2="16.5" y2="14.5" style="fill:none;stroke:#949494;stroke-linecap:square;stroke-linejoin:round"/><line x1="16.5" y1="2.5" x2="4.5" y2="2.5" style="fill:none;stroke:#949494;stroke-linecap:square;stroke-linejoin:round"/><line x1="2.5" y1="2.5" x2="0.5" y2="2.5" style="fill:none;stroke:#949494;stroke-linecap:square;stroke-linejoin:round"/><path d="M6.5,16.5a1,1,0,0,1-1-1v-2a1,1,0,0,1,1-1h0a1,1,0,0,1,1,1v2a1,1,0,0,1-1,1" style="fill:none;stroke:#009688;stroke-linecap:round;stroke-linejoin:round"/><rect x="12.5" y="6.5" width="2" height="4" rx="1" style="fill:none;stroke:#009688;stroke-linecap:round;stroke-linejoin:round"/><path d="M3.5.5a1,1,0,0,1,1,1v2a1,1,0,0,1-1,1h0a1,1,0,0,1-1-1v-2a1,1,0,0,1,1-1" style="fill:none;stroke:#009688;stroke-linecap:round;stroke-linejoin:round"/></svg>