<svg xmlns="http://www.w3.org/2000/svg" viewBox="0 0 18 18"><rect x="0.5" y="0.5" width="16" height="16" rx="1" style="fill:none;stroke:#949494;stroke-linecap:round;stroke-linejoin:round"/><rect x="7" y="4" width="1" height="1" style="fill:#009688"/><rect x="7" y="6" width="1" height="1" style="fill:#009688"/><rect x="7" y="8" width="1" height="1" style="fill:#009688"/><rect x="7" y="10" width="1" height="1" style="fill:#009688"/><rect x="7" y="2" width="1" height="1" style="fill:#009688"/><rect x="8" y="1" width="1" height="1" style="fill:#009688"/><rect x="7" y="12" width="1" height="1" style="fill:#009688"/><rect x="7" y="14" width="1" height="1" style="fill:#009688"/><rect x="8" y="5" width="1" height="1" style="fill:#009688"/><rect x="8" y="7" width="1" height="1" style="fill:#009688"/><rect x="8" y="9" width="1" height="1" style="fill:#009688"/><rect x="8" y="11" width="1" height="1" style="fill:#009688"/><rect x="8" y="3" width="1" height="1" style="fill:#009688"/><rect x="8" y="13" width="1" height="1" style="fill:#009688"/><rect x="8" y="15" width="1" height="1" style="fill:#009688"/></svg>