<svg xmlns="http://www.w3.org/2000/svg" width="18" height="18" viewBox="0 0 18 18"><path d="M15.5,11.5l1-1v-1h-1v3c0,1,0,2-2,2" style="fill:none;stroke:#009688;stroke-linecap:round;stroke-linejoin:round"/><path d="M14.5,14.5c0-3-1.239-5-4-5-2.209,0-5,1-5,5" style="fill:none;stroke:#949494;stroke-linecap:round;stroke-linejoin:round"/><line x1="5.5" y1="14.5" x2="14.5" y2="14.5" style="fill:none;stroke:#949494;stroke-linecap:round;stroke-linejoin:round"/><line x1="6.5" y1="14.5" x2="4.5" y2="16.5" style="fill:none;stroke:#009688;stroke-linecap:round;stroke-linejoin:round"/><line x1="13.5" y1="14.5" x2="12.5" y2="16.5" style="fill:none;stroke:#009688;stroke-linecap:round;stroke-linejoin:round"/><line x1="7.5" y1="10.5" x2="9.5" y2="12.5" style="fill:none;stroke:#949494;stroke-linecap:round;stroke-linejoin:round"/><line x1="12.5" y1="10.5" x2="10.5" y2="12.5" style="fill:none;stroke:#949494;stroke-linecap:round;stroke-linejoin:round"/><polyline points="12.5 13.5 11.5 12.5 8.5 12.5 7.5 13.5" style="fill:none;stroke:#949494;stroke-linecap:round;stroke-linejoin:round"/><path d="M2.5,16.5h-1a1,1,0,0,1-1-1V1.5a1,1,0,0,1,1-1h14a1,1,0,0,1,1,1v1" style="fill:none;stroke:#949494;stroke-linecap:round;stroke-linejoin:round"/><path d="M2.5,16.5a14,14,0,0,1,14-14" style="fill:none;stroke:#009688;stroke-linecap:round;stroke-linejoin:round"/></svg>