<svg width="14" height="14" viewBox="0 0 14 14" fill="none" xmlns="http://www.w3.org/2000/svg">
<g clip-path="url(#clip0_8074_35809)">
<path d="M0.944336 2.84866C0.944336 2.57252 1.16819 2.34866 1.44434 2.34866H12.5559C12.8321 2.34866 13.0559 2.57252 13.0559 2.84866V5.79724C13.0559 6.07339 12.8321 6.29724 12.5559 6.29724H1.44434C1.16819 6.29724 0.944336 6.07339 0.944336 5.79724V2.84866Z" fill="#ACACAC"/>
<path fill-rule="evenodd" clip-rule="evenodd" d="M1.74434 3.14866V5.49724H12.2559V3.14866H1.74434ZM1.44434 2.34866C1.16819 2.34866 0.944336 2.57252 0.944336 2.84866V5.79724C0.944336 6.07339 1.16819 6.29724 1.44434 6.29724H12.5559C12.8321 6.29724 13.0559 6.07339 13.0559 5.79724V2.84866C13.0559 2.57252 12.8321 2.34866 12.5559 2.34866H1.44434Z" fill="#262E30"/>
<path fill-rule="evenodd" clip-rule="evenodd" d="M1.34414 7.0517C1.56505 7.0517 1.74414 7.23078 1.74414 7.4517L1.74414 11.2514C1.74414 11.4723 1.56505 11.6514 1.34414 11.6514C1.12323 11.6514 0.94414 11.4723 0.94414 11.2514L0.944141 7.4517C0.944141 7.23078 1.12323 7.0517 1.34414 7.0517Z" fill="#262E30"/>
<path fill-rule="evenodd" clip-rule="evenodd" d="M12.391 7.0517C12.6119 7.0517 12.791 7.23078 12.791 7.4517L12.791 11.2514C12.791 11.4723 12.6119 11.6514 12.391 11.6514C12.1701 11.6514 11.991 11.4723 11.991 11.2514L11.991 7.4517C11.991 7.23078 12.1701 7.0517 12.391 7.0517Z" fill="#262E30"/>
<path fill-rule="evenodd" clip-rule="evenodd" d="M1.39307 9.26685C1.39307 9.04594 1.57215 8.86685 1.79307 8.86685L12.1382 8.86685C12.3591 8.86685 12.5382 9.04594 12.5382 9.26685C12.5382 9.48776 12.3591 9.66685 12.1382 9.66685L1.79307 9.66685C1.57215 9.66685 1.39307 9.48777 1.39307 9.26685Z" fill="#262E30"/>
</g>
<defs>
<clipPath id="clip0_8074_35809">
<rect width="14" height="14" fill="white" transform="translate(0 14) rotate(-90)"/>
</clipPath>
</defs>
</svg>
