<svg xmlns="http://www.w3.org/2000/svg" viewBox="0 0 24 24"><path d="M1.5,5.39A13.11,13.11,0,0,1,18.57,6a9.05,9.05,0,0,1,0,13.34,8.37,8.37,0,0,1-11.34,0,5.8,5.8,0,0,1,0-8.54,5.38,5.38,0,0,1,7.26,0,3.72,3.72,0,0,1,0,5.47,3.45,3.45,0,0,1-4.65,0,2.38,2.38,0,0,1,0-3.5,2.2,2.2,0,0,1,3,0,1.51,1.51,0,0,1,0,2.24,1.41,1.41,0,0,1-1.9,0" style="fill:none;stroke:#009688;stroke-linecap:round;stroke-linejoin:round"/><rect x="1.5" y="1.5" width="21" height="21" rx="2" style="fill:none;stroke:#949494;stroke-linecap:round;stroke-linejoin:round"/></svg>