<svg width="10" height="10" viewBox="0 0 10 10" fill="none" xmlns="http://www.w3.org/2000/svg">
<g clip-path="url(#clip0_8962_33508)">
<path d="M0.97389 2.17143C1.73745 2.17143 2.03084 2.97133 2.56706 2.97133C3.23733 2.97133 3.21105 2.17143 4.16227 2.17143C5.11349 2.17143 5.04863 2.97133 5.78367 2.97133C6.5187 2.97133 6.42212 2.17143 7.22201 2.17143C8.02189 2.17143 8.40418 2.97133 8.96627 2.97133" stroke="#909090" stroke-width="0.5" stroke-linecap="round"/>
<path d="M0.97389 4.47797C1.73745 4.47797 2.03084 5.27786 2.56706 5.27786C3.23733 5.27786 3.21105 4.47797 4.16227 4.47797C5.11349 4.47797 5.04863 5.27786 5.78367 5.27786C6.5187 5.27786 6.42212 4.47797 7.22201 4.47797C8.02189 4.47797 8.40418 5.27786 8.96627 5.27786" stroke="#909090" stroke-width="0.5" stroke-linecap="round"/>
<path d="M0.97389 6.9691C1.73745 6.9691 2.03084 7.769 2.56706 7.769C3.23733 7.769 3.21105 6.9691 4.16227 6.9691C5.11349 6.9691 5.04863 7.769 5.78367 7.769C6.5187 7.769 6.42212 6.9691 7.22201 6.9691C8.02189 6.9691 8.40418 7.769 8.96627 7.769" stroke="#909090" stroke-width="0.5" stroke-linecap="round"/>
<rect x="0.75" y="0.75" width="8.5" height="8.5" rx="0.25" stroke="#262E30" stroke-width="0.5"/>
<path d="M7.76904 0.973905C7.76904 1.73747 6.96915 2.03086 6.96915 2.56707C6.96915 3.23734 7.76904 3.21106 7.76904 4.16228C7.76904 5.1135 6.96915 5.04865 6.96915 5.78368C6.96915 6.51872 7.76904 6.42213 7.76904 7.22202C7.76904 8.02191 6.96915 8.4042 6.96915 8.96628" stroke="#262E30" stroke-width="0.5" stroke-linecap="round"/>
<path d="M5.4624 0.973905C5.4624 1.73747 4.66251 2.03086 4.66251 2.56707C4.66251 3.23734 5.4624 3.21106 5.4624 4.16228C5.4624 5.1135 4.66251 5.04865 4.66251 5.78368C4.66251 6.51872 5.4624 6.42213 5.4624 7.22202C5.4624 8.02191 4.6625 8.4042 4.6625 8.96628" stroke="#262E30" stroke-width="0.5" stroke-linecap="round"/>
<path d="M2.97168 0.973905C2.97168 1.73747 2.17178 2.03086 2.17178 2.56707C2.17178 3.23734 2.97168 3.21106 2.97168 4.16228C2.97168 5.1135 2.17178 5.04865 2.17178 5.78368C2.17178 6.51872 2.97168 6.42213 2.97168 7.22202C2.97168 8.02191 2.17178 8.4042 2.17178 8.96628" stroke="#262E30" stroke-width="0.5" stroke-linecap="round"/>
</g>
<defs>
<clipPath id="clip0_8962_33508">
<rect width="10" height="10" fill="white"/>
</clipPath>
</defs>
</svg>
