<svg xmlns="http://www.w3.org/2000/svg" width="24" height="24" viewBox="0 0 24 24"><path d="M19.5,22.459a7.562,7.562,0,0,0-.075-1l.007,0c-.012-.084-.03-.167-.044-.251s-.027-.164-.044-.245c-.033-.163-.074-.324-.118-.485-.015-.052-.025-.1-.041-.156-.062-.208-.135-.414-.216-.617-.026-.064-.056-.126-.083-.189-.062-.142-.126-.284-.2-.423-.037-.074-.078-.147-.119-.22-.07-.128-.145-.253-.223-.377-.046-.072-.091-.143-.14-.213-.088-.129-.182-.254-.279-.378-.046-.059-.089-.119-.137-.176-.148-.178-.3-.353-.472-.52s-.333-.312-.506-.455c-.047-.039-.094-.077-.142-.114q-.225-.178-.461-.338l-.086-.059c-.183-.119-.37-.227-.56-.329-.051-.027-.1-.052-.154-.077-.155-.079-.313-.151-.472-.218-.047-.019-.093-.041-.141-.059-.2-.078-.395-.146-.6-.207l-.148-.04c-.092-.025-.183-.053-.275-.075A8.562,8.562,0,0,0,12.4,13.47a8.741,8.741,0,0,0-3.1-1.955.239.239,0,0,0-.284.352A5.061,5.061,0,0,1,9.8,15.376c-.18.056-.358.121-.535.191l-.143.059c-.2.081-.387.168-.575.267-.022.011-.043.024-.065.036-.176.094-.35.2-.52.307-.037.023-.074.046-.11.07-.179.119-.353.248-.524.384l-.105.087c-.175.146-.347.3-.512.461s-.315.333-.46.506c-.043.052-.085.105-.126.157q-.158.2-.3.4c-.036.052-.074.1-.108.156-.113.174-.221.35-.319.53h0a7.469,7.469,0,0,0-.9,3.51" style="fill:none;stroke:#009688;stroke-linecap:round;stroke-linejoin:round"/><path d="M12.52,19.027c.154-.486,1.165-.669,2.259-.408s1.855.867,1.7,1.354-1.165.669-2.259.408S12.366,19.514,12.52,19.027Z" style="fill:none;stroke:#009688;stroke-linecap:round;stroke-linejoin:round"/><path d="M16.117,1.5A20.427,20.427,0,0,1,20.81,4.912q.213.21.422.428c.475.254.876.492,1.268.74m0,3.7-.021-.017-.241-.194c-.337-.265-.679-.515-.944-.692l-.26-.176c-.409-.266-.828-.511-1.309-.765l-.332-.17c-.222-.245-.452-.484-.687-.715a17.857,17.857,0,0,0-6.421-4.026L12.2,3a9.224,9.224,0,0,0-2.986-.5h0A9.209,9.209,0,0,0,1.5,6.7M22.406,21.073c-.014-.114-.034-.229-.066-.4-.017-.1-.035-.208-.056-.309-.047-.232-.1-.463-.159-.658l-.065-.243c-.088-.3-.191-.584-.3-.858-.036-.091-.075-.18-.119-.277-.087-.2-.18-.4-.284-.605l-.164-.3c-.1-.182-.208-.363-.33-.555-.063-.1-.126-.2-.178-.271-.126-.185-.261-.366-.42-.569-.054-.071-.109-.142-.167-.212-.209-.251-.428-.5-.664-.731s-.465-.436-.716-.644l-.192-.154c-.21-.165-.422-.322-.619-.453l-.144-.1c-.259-.168-.525-.322-.779-.457l-.226-.116c-.221-.112-.445-.214-.664-.3l-.2-.081c-.073-.029-.146-.058-.219-.084A11.593,11.593,0,0,0,10.342,8.7l-.589-.2H9.217a3.238,3.238,0,0,0-2.71,5.009l.044.07c-.077.048-.361.23-.361.23-.251.167-.494.345-.732.535l-.158.13c-.241.2-.477.411-.707.64s-.438.461-.651.714l-.16.2c-.149.187-.291.379-.463.628l-.113.165c-.158.242-.308.49-.441.741a10.5,10.5,0,0,0-1.16,3.549m20.8-7.215c-.269-.324-.551-.637-.859-.944-.292-.29-.593-.558-.945-.849l-.221-.178c-.271-.213-.546-.414-.776-.569l-.2-.139c-.336-.218-.679-.418-1.045-.612l-.245-.126c-.187-.094-.377-.184-.563-.267q-.447-.533-.942-1.02a14.728,14.728,0,0,0-5.291-3.328l-.275-.094A5,5,0,0,0,9.422,5.5h0A6.444,6.444,0,0,0,5.055,7.085a6.3,6.3,0,0,0-2.04,5.4c-.182.161-.361.328-.539.5-.289.288-.559.587-.872.961l-.1.129" style="fill:none;stroke:#949494;stroke-linecap:round;stroke-linejoin:round"/><rect x="1.5" y="1.5" width="21" height="21" rx="2" style="fill:none;stroke:#949494;stroke-linecap:round;stroke-linejoin:round"/></svg>