<svg xmlns="http://www.w3.org/2000/svg" viewBox="0 0 18 18"><path d="M3.5,15.58c-.29.59-.64.92-1,.92-1.1,0-2-4.21-2-8s.9-8,2-8c.36,0,.71.33,1,.92" style="fill:none;stroke:gray;stroke-linecap:round;stroke-linejoin:round"/><path d="M4.5,16.5c-1.1,0-2-4.21-2-8s.9-8,2-8" style="fill:none;stroke:#009688;stroke-linecap:round;stroke-linejoin:round"/><path d="M6.5,16.5c-1.1,0-2-4.21-2-8s.9-8,2-8" style="fill:none;stroke:#009688;stroke-linecap:round;stroke-linejoin:round"/><ellipse cx="8.5" cy="8.5" rx="2" ry="8" style="fill:none;stroke:gray;stroke-linecap:round;stroke-linejoin:round"/><path d="M10.5,16.5h1a1,1,0,0,0,1-1V5.5h2v10a1,1,0,0,0,1,1h0a1,1,0,0,0,1-1V5.5" style="fill:none;stroke:#009688;stroke-linecap:round;stroke-linejoin:round"/><rect x="12.5" y="0.5" width="4" height="3" style="fill:none;stroke:gray;stroke-miterlimit:10"/></svg>