<svg xmlns="http://www.w3.org/2000/svg" width="24" height="24" viewBox="0 0 24 24"><path d="M1.5,5.387a13.1,13.1,0,0,1,17.066.566,9.045,9.045,0,0,1,0,13.337,8.37,8.37,0,0,1-11.334,0,5.789,5.789,0,0,1,0-8.536,5.358,5.358,0,0,1,7.253,0,3.7,3.7,0,0,1,0,5.463,3.428,3.428,0,0,1-4.642,0,2.37,2.37,0,0,1,0-3.5,2.2,2.2,0,0,1,2.971,0,1.517,1.517,0,0,1,0,2.238,1.4,1.4,0,0,1-1.9,0" style="fill:none;stroke:#009688;stroke-linecap:round;stroke-linejoin:round"/><rect x="1.5" y="1.5" width="21" height="21" rx="2" style="fill:none;stroke:#949494;stroke-linecap:round;stroke-linejoin:round"/></svg>