<svg width="14" height="15" viewBox="0 0 14 15" fill="none" xmlns="http://www.w3.org/2000/svg">
<g clip-path="url(#clip0_8074_35803)">
<path d="M12.2166 6.00745H12.1746H2.27486H2.23374L1.06036 7.75164C0.904614 7.98344 1.07086 8.29484 1.34999 8.29484H2.27574H12.1746H13.0846C13.3725 8.29484 13.5431 7.97382 13.3821 7.73502L12.2166 6.00745Z" fill="#ACACAC"/>
<path fill-rule="evenodd" clip-rule="evenodd" d="M2.02058 5.60745H12.4291L13.7135 7.51132C14.0534 8.0155 13.6931 8.69485 13.0844 8.69485H1.34983C0.751081 8.69485 0.393614 8.02651 0.728191 7.52856L2.02058 5.60745ZM2.44657 6.40745L1.44596 7.89485H13.0072L12.0038 6.40745H2.44657Z" fill="#262E30"/>
<path fill-rule="evenodd" clip-rule="evenodd" d="M2.69447 2.31844C2.93749 1.95722 3.34349 1.74026 3.7797 1.74026H10.6677C11.1025 1.74026 11.5081 1.95583 11.752 2.31542L11.7527 2.31631L13.7135 5.22301C14.0534 5.7272 13.6931 6.40653 13.0844 6.40653H1.34983C0.751081 6.40653 0.393614 5.73819 0.728191 5.24024L2.69447 2.31844C2.69446 2.31846 2.69449 2.31841 2.69447 2.31844ZM3.7797 2.54026C3.61043 2.54026 3.45296 2.62418 3.35822 2.76502L1.44598 5.60653H13.0072L11.0901 2.7646C11.09 2.76448 11.0901 2.76473 11.0901 2.7646C10.9945 2.62408 10.8365 2.54026 10.6677 2.54026H3.7797Z" fill="#262E30"/>
<path d="M1.34915 12.9956H13.0837C13.3716 12.9956 13.5422 12.6746 13.3812 12.4358L12.1737 10.6461H2.2749L1.0604 12.4524C0.903779 12.6842 1.07003 12.9956 1.34915 12.9956Z" fill="#ACACAC"/>
<path fill-rule="evenodd" clip-rule="evenodd" d="M2.06173 10.2461H12.3863L13.7127 12.2121C14.0526 12.7163 13.6923 13.3956 13.0836 13.3956H1.34904C0.750568 13.3956 0.392344 12.7272 0.72857 12.2289C0.728667 12.2288 0.728473 12.2291 0.72857 12.2289L2.06173 10.2461ZM2.48785 11.0461L1.44602 12.5956H13.0064L11.961 11.0461H2.48785Z" fill="#262E30"/>
<path fill-rule="evenodd" clip-rule="evenodd" d="M2.06164 7.89456H12.3871L13.7135 9.86052C14.0534 10.3647 13.6931 11.0441 13.0844 11.0441H1.34983C0.75108 11.0441 0.393614 10.3757 0.72819 9.87778L2.06164 7.89456ZM2.48776 8.69456L1.44593 10.2441H13.0072L11.9618 8.69456H2.48776Z" fill="#262E30"/>
</g>
<defs>
<clipPath id="clip0_8074_35803">
<rect width="14" height="14" fill="white" transform="translate(0 14.1403) rotate(-90)"/>
</clipPath>
</defs>
</svg>
