<svg xmlns="http://www.w3.org/2000/svg" viewBox="0 0 18 18"><line x1="16.5" y1="2.5" x2="16.5" y2="14.5" style="fill:none;stroke:gray;stroke-linecap:square;stroke-linejoin:round"/><line x1="0.5" y1="14.5" x2="0.5" y2="2.5" style="fill:none;stroke:gray;stroke-linecap:square;stroke-linejoin:round"/><path d="M16.5,15.5a1,1,0,0,1-1,1H1.5a1,1,0,0,1-1-1" style="fill:none;stroke:#009688;stroke-linecap:square;stroke-linejoin:round"/><path d="M.5,1.5a1,1,0,0,1,1-1h14a1,1,0,0,1,1,1" style="fill:none;stroke:#009688;stroke-linecap:square;stroke-linejoin:round"/><rect x="10" y="15" width="1" height="1" style="fill:#009688"/><rect x="8" y="15" width="1" height="1" style="fill:#009688"/><rect x="6" y="15" width="1" height="1" style="fill:#009688"/><rect x="4" y="15" width="1" height="1" style="fill:#009688"/><rect x="2" y="1" width="1" height="1" style="fill:#009688"/><rect x="2" y="15" width="1" height="1" style="fill:#009688"/><rect x="12" y="15" width="1" height="1" style="fill:#009688"/><rect x="14" y="15" width="1" height="1" style="fill:#009688"/><rect x="10" y="1" width="1" height="1" style="fill:#009688"/><rect x="8" y="1" width="1" height="1" style="fill:#009688"/><rect x="6" y="1" width="1" height="1" style="fill:#009688"/><rect x="4" y="1" width="1" height="1" style="fill:#009688"/><rect x="12" y="1" width="1" height="1" style="fill:#009688"/><rect x="14" y="1" width="1" height="1" style="fill:#009688"/></svg>