<svg width="14" height="14" viewBox="0 0 14 14" fill="none" xmlns="http://www.w3.org/2000/svg">
<g clip-path="url(#clip0_8074_35920)">
<path fill-rule="evenodd" clip-rule="evenodd" d="M0.5 1C0.5 0.723858 0.723858 0.5 1 0.5H13.2523C13.5285 0.5 13.7523 0.723858 13.7523 1V5.53977C13.7523 5.81591 13.5285 6.03977 13.2523 6.03977H1C0.723858 6.03977 0.5 5.81591 0.5 5.53977V1ZM1.5 1.5V5.03977H12.7523V1.5H1.5Z" fill="#262E30"/>
<path d="M13.2525 7.48828H7.94775V12.7179H13.2525V7.48828Z" fill="#ACACAC"/>
<path fill-rule="evenodd" clip-rule="evenodd" d="M7.44775 7.48828C7.44775 7.21214 7.67161 6.98828 7.94775 6.98828H13.2525C13.5286 6.98828 13.7525 7.21214 13.7525 7.48828V12.7179C13.7525 12.9941 13.5286 13.2179 13.2525 13.2179H7.94775C7.67161 13.2179 7.44775 12.9941 7.44775 12.7179V7.48828ZM8.44775 7.98828V12.2179H12.7525V7.98828H8.44775Z" fill="#262E30"/>
<path fill-rule="evenodd" clip-rule="evenodd" d="M0.5 7.48828C0.5 7.21214 0.723858 6.98828 1 6.98828H5.67501C5.95115 6.98828 6.17501 7.21214 6.17501 7.48828C6.17501 7.76442 5.95115 7.98828 5.67501 7.98828H1C0.723858 7.98828 0.5 7.76442 0.5 7.48828Z" fill="#262E30"/>
<path fill-rule="evenodd" clip-rule="evenodd" d="M0.5 9.85938C0.5 9.58323 0.723858 9.35938 1 9.35938H5.67501C5.95115 9.35938 6.17501 9.58323 6.17501 9.85938C6.17501 10.1355 5.95115 10.3594 5.67501 10.3594H1C0.723858 10.3594 0.5 10.1355 0.5 9.85938Z" fill="#262E30"/>
<path fill-rule="evenodd" clip-rule="evenodd" d="M0.5 12.2285C0.5 11.9524 0.723858 11.7285 1 11.7285H5.67501C5.95115 11.7285 6.17501 11.9524 6.17501 12.2285C6.17501 12.5047 5.95115 12.7285 5.67501 12.7285H1C0.723858 12.7285 0.5 12.5047 0.5 12.2285Z" fill="#262E30"/>
</g>
<defs>
<clipPath id="clip0_8074_35920">
<rect width="14" height="14" fill="white" transform="translate(0 14) rotate(-90)"/>
</clipPath>
</defs>
</svg>
