<svg width="10" height="10" viewBox="0 0 10 10" fill="none" xmlns="http://www.w3.org/2000/svg">
<g clip-path="url(#clip0_8962_33456)">
<path d="M5.40998 5.82346L6.10041 6.98635M6.10041 6.98635L5.28271 8.38546M6.10041 6.98635H7.60868" stroke="#ACACAC" stroke-width="0.5" stroke-linecap="round"/>
<path d="M1.701 3.64288L2.39143 4.80578M2.39143 4.80578L1.57373 6.20489M2.39143 4.80578H3.8997" stroke="#ACACAC" stroke-width="0.5" stroke-linecap="round"/>
<path d="M8.02424 3.99553L8.71467 5.15842M8.71467 5.15842L7.89697 6.55753M8.71467 5.15842H9.21686" stroke="#ACACAC" stroke-width="0.5" stroke-linecap="round"/>
<path d="M2.17556 0.81871L2.56413 1.52525M2.56413 1.52525L2.00143 2.46964M2.56413 1.52525H4.0724" stroke="#ACACAC" stroke-width="0.5" stroke-linecap="round"/>
<path d="M5.27863 1.5845L5.96906 2.7474M5.96906 2.7474L5.15137 4.14651M5.96906 2.7474H7.47733" stroke="#ACACAC" stroke-width="0.5" stroke-linecap="round"/>
<path d="M4.56651 4.26151L4.95645 4.91829M4.95645 4.91829L4.49463 5.70847M4.95645 4.91829H5.80829" stroke="#ACACAC" stroke-width="0.5" stroke-linecap="round"/>
<path d="M8.0836 2.03914L8.47354 2.69592M8.47354 2.69592L8.01172 3.48611M8.47354 2.69592H9.32538" stroke="#ACACAC" stroke-width="0.5" stroke-linecap="round"/>
<path d="M0.996194 6.55753L1.38613 7.21431M1.38613 7.21431L0.924316 8.00449M1.38613 7.21431H2.23798" stroke="#ACACAC" stroke-width="0.5" stroke-linecap="round"/>
<path d="M2.31338 7.61258L2.72347 8.29106M2.72347 8.29106L2.23779 9.10735M2.72347 8.29106H4.05189" stroke="#ACACAC" stroke-width="0.5" stroke-linecap="round"/>
<path d="M8.0836 6.16562L8.47354 6.8224M8.47354 6.8224L8.01172 7.61259M8.47354 6.8224H9.32538" stroke="#ACACAC" stroke-width="0.5" stroke-linecap="round"/>
<path d="M3.63157 6.94943L3.81028 7.25044M3.81028 7.25044L3.59863 7.61258M3.81028 7.25044H4.20068" stroke="#ACACAC" stroke-width="0.5" stroke-linecap="round"/>
<path d="M7.08958 4.59232L7.26829 4.89332M7.26829 4.89332L7.05664 5.25546M7.26829 4.89332H7.65869" stroke="#ACACAC" stroke-width="0.5" stroke-linecap="round"/>
<line x1="4.32227" y1="0.862122" x2="4.32227" y2="8.98567" stroke="#262E30" stroke-width="0.5"/>
<line x1="7.73438" y1="0.862122" x2="7.73437" y2="8.98567" stroke="#262E30" stroke-width="0.5"/>
<path d="M6.31467 0.627029L0.924316 3.92876" stroke="#262E30" stroke-width="0.5" stroke-linecap="round"/>
<path d="M9.12923 7.43646L6.40137 9.10735" stroke="#262E30" stroke-width="0.5" stroke-linecap="round"/>
<path d="M9.18444 3.26669L0.837891 8.37917" stroke="#262E30" stroke-width="0.5" stroke-linecap="round"/>
<path d="M9.18542 6.40488L0.870535 1.88811" stroke="#262E30" stroke-width="0.5" stroke-linecap="round"/>
<path d="M6.08917 9.03103L0.866802 6.19416" stroke="#262E30" stroke-width="0.5" stroke-linecap="round"/>
<path d="M9.06026 2.1828L6.25726 0.660164" stroke="#262E30" stroke-width="0.5" stroke-linecap="round"/>
<rect x="0.75" y="0.612366" width="8.5" height="8.5" rx="0.25" stroke="#262E30" stroke-width="0.5"/>
</g>
<defs>
<clipPath id="clip0_8962_33456">
<rect width="10" height="10" fill="white"/>
</clipPath>
</defs>
</svg>
