<svg width="15" height="14" viewBox="0 0 15 14" fill="none" xmlns="http://www.w3.org/2000/svg">
<g clip-path="url(#clip0_8074_35882)">
<path fill-rule="evenodd" clip-rule="evenodd" d="M12.5931 1.3051H3.19287C3.08242 1.3051 2.99287 1.39464 2.99287 1.5051V9.72923C2.99287 9.83968 3.08241 9.92923 3.19287 9.92923H12.5931C12.7036 9.92923 12.7931 9.83969 12.7931 9.72923V1.5051C12.7931 1.39464 12.7036 1.3051 12.5931 1.3051ZM3.19287 0.505096C2.64059 0.505096 2.19287 0.952813 2.19287 1.5051V9.72923C2.19287 10.2815 2.64059 10.7292 3.19287 10.7292H12.5931C13.1454 10.7292 13.5931 10.2815 13.5931 9.72923V1.5051C13.5931 0.952812 13.1454 0.505096 12.5931 0.505096H3.19287Z" fill="#262E30"/>
<path fill-rule="evenodd" clip-rule="evenodd" d="M6.47822 10.5268V11.2956H9.30688V10.5268H6.47822ZM5.97822 9.72684C5.81254 9.72684 5.67822 9.86115 5.67822 10.0268V11.7956C5.67822 11.9613 5.81254 12.0956 5.97822 12.0956H9.80688C9.97257 12.0956 10.1069 11.9613 10.1069 11.7956V10.0268C10.1069 9.86115 9.97257 9.72684 9.80688 9.72684H5.97822Z" fill="#262E30"/>
<path fill-rule="evenodd" clip-rule="evenodd" d="M7.29668 13.4949L7.29668 11.5148L8.09668 11.5148L8.09668 13.4949L7.29668 13.4949Z" fill="#262E30"/>
<path d="M10.4983 5.61716C10.4983 7.0562 9.33177 8.22278 7.89273 8.22278C6.45369 8.22278 5.28711 7.0562 5.28711 5.61716C5.28711 4.17811 6.45369 3.01154 7.89273 3.01154C9.33177 3.01154 10.4983 4.17811 10.4983 5.61716Z" fill="#ACACAC"/>
<path fill-rule="evenodd" clip-rule="evenodd" d="M7.89273 7.42278C8.88995 7.42278 9.69835 6.61437 9.69835 5.61716C9.69835 4.61994 8.88995 3.81154 7.89273 3.81154C6.89551 3.81154 6.08711 4.61994 6.08711 5.61716C6.08711 6.61437 6.89551 7.42278 7.89273 7.42278ZM7.89273 8.22278C9.33177 8.22278 10.4983 7.0562 10.4983 5.61716C10.4983 4.17811 9.33177 3.01154 7.89273 3.01154C6.45369 3.01154 5.28711 4.17811 5.28711 5.61716C5.28711 7.0562 6.45369 8.22278 7.89273 8.22278Z" fill="#262E30"/>
</g>
<defs>
<clipPath id="clip0_8074_35882">
<rect width="14" height="14" fill="white" transform="translate(0.893066 14) rotate(-90)"/>
</clipPath>
</defs>
</svg>
