<svg xmlns="http://www.w3.org/2000/svg" viewBox="0 0 18 18"><path d="M.5,11.5h16a0,0,0,0,1,0,0v4a1,1,0,0,1-1,1H1.5a1,1,0,0,1-1-1v-4A0,0,0,0,1,.5,11.5Z" style="fill:none;stroke:#009688;stroke-linecap:round;stroke-linejoin:round"/><path d="M15.5,8.5h-6l.86-6.88A1,1,0,0,0,9.37.5H7.63a1,1,0,0,0-1,1.12L7.5,8.5h-6a1,1,0,0,0-1,1v2h16v-2A1,1,0,0,0,15.5,8.5Z" style="fill:none;stroke:#949494;stroke-linecap:round;stroke-linejoin:round"/><line x1="2.5" y1="13.5" x2="2.5" y2="15.5" style="fill:none;stroke:#009688;stroke-linecap:round;stroke-linejoin:round"/><line x1="4.5" y1="13.5" x2="4.5" y2="15.5" style="fill:none;stroke:#009688;stroke-linecap:round;stroke-linejoin:round"/><line x1="6.5" y1="13.5" x2="6.5" y2="15.5" style="fill:none;stroke:#009688;stroke-linecap:round;stroke-linejoin:round"/><line x1="8.5" y1="13.5" x2="8.5" y2="15.5" style="fill:none;stroke:#009688;stroke-linecap:round;stroke-linejoin:round"/><line x1="10.5" y1="13.5" x2="10.5" y2="15.5" style="fill:none;stroke:#009688;stroke-linecap:round;stroke-linejoin:round"/><line x1="12.5" y1="13.5" x2="12.5" y2="15.5" style="fill:none;stroke:#009688;stroke-linecap:round;stroke-linejoin:round"/><line x1="14.5" y1="13.5" x2="14.5" y2="15.5" style="fill:none;stroke:#009688;stroke-linecap:round;stroke-linejoin:round"/></svg>