<svg xmlns="http://www.w3.org/2000/svg" width="18" height="18" viewBox="0 0 18 18"><line x1="6.5" y1="1.5" x2="8.5" y2="0.5" style="fill:none;stroke:#949494;stroke-linecap:round;stroke-linejoin:round"/><line x1="10.5" y1="1.5" x2="8.5" y2="0.5" style="fill:none;stroke:#949494;stroke-linecap:round;stroke-linejoin:round"/><line x1="10.5" y1="1.5" x2="8.5" y2="2.5" style="fill:none;stroke:#949494;stroke-linecap:round;stroke-linejoin:round"/><line x1="6.5" y1="1.5" x2="8.5" y2="2.5" style="fill:none;stroke:#949494;stroke-linecap:round;stroke-linejoin:round"/><line x1="10.5" y1="4.5" x2="8.5" y2="5.5" style="fill:none;stroke:#949494;stroke-linecap:round;stroke-linejoin:round"/><line x1="6.5" y1="4.5" x2="8.5" y2="5.5" style="fill:none;stroke:#949494;stroke-linecap:round;stroke-linejoin:round"/><line x1="6.5" y1="1.5" x2="6.5" y2="4.5" style="fill:none;stroke:#949494;stroke-linecap:round;stroke-linejoin:round"/><line x1="10.5" y1="1.5" x2="10.5" y2="4.5" style="fill:none;stroke:#949494;stroke-linecap:round;stroke-linejoin:round"/><line x1="8.5" y1="2.5" x2="8.5" y2="5.5" style="fill:none;stroke:#949494;stroke-linecap:round;stroke-linejoin:round"/><line x1="8.5" y1="8.5" x2="8.5" y2="14.5" style="fill:none;stroke:#009688;stroke-linecap:round;stroke-linejoin:round"/><polyline points="12.567 4.533 14.5 5.5 14.5 11.5 8.5 14.5 2.5 11.5 2.5 5.5 4.5 4.5" style="fill:none;stroke:#009688;stroke-linecap:round;stroke-linejoin:round"/><polyline points="12.5 2.5 16.5 4.5 16.5 12.5 8.5 16.5 0.5 12.5 0.5 11.5 0.5 4.5 4.5 2.5" style="fill:none;stroke:#949494;stroke-linecap:round;stroke-linejoin:round"/><polyline points="2.5 5.5 8.5 8.5 14.5 5.5" style="fill:none;stroke:#009688;stroke-linecap:round;stroke-linejoin:round"/></svg>