<svg xmlns="http://www.w3.org/2000/svg" width="18" height="18" viewBox="0 0 18 18"><ellipse cx="15" cy="10.5" rx="1.5" ry="6" style="fill:none;stroke:#949494;stroke-linecap:round;stroke-linejoin:round"/><path d="M13,16.5c-.828,0-1.5-3.16-1.5-6s.672-6,1.5-6" style="fill:none;stroke:#009688;stroke-linecap:round;stroke-linejoin:round"/><path d="M11,16.5c-.828,0-1.5-3.16-1.5-6s.672-6,1.5-6" style="fill:none;stroke:#009688;stroke-linecap:round;stroke-linejoin:round"/><path d="M9,16.5c-.828,0-1.5-3.16-1.5-6s.672-6,1.5-6" style="fill:none;stroke:#949494;stroke-linecap:round;stroke-linejoin:round"/><path d="M6.732,3.5C7,1.809,7.467.5,8,.5c.414,0,.789.79,1.061,1.935" style="fill:none;stroke:#949494;stroke-linecap:round;stroke-linejoin:round"/><path d="M6,12.5c-.828,0-1.5-3.16-1.5-6S5.172.5,6,.5" style="fill:none;stroke:#009688;stroke-linecap:round;stroke-linejoin:round"/><path d="M4,12.5c-.828,0-1.5-3.16-1.5-6S3.172.5,4,.5" style="fill:none;stroke:#009688;stroke-linecap:round;stroke-linejoin:round"/><path d="M2,12.5c-.828,0-1.5-3.16-1.5-6S1.172.5,2,.5" style="fill:none;stroke:#949494;stroke-linecap:round;stroke-linejoin:round"/><path d="M3.5,13.5a3.193,3.193,0,0,1-3,3h6" style="fill:none;stroke:#009688;stroke-linecap:round;stroke-linejoin:round"/></svg>