<svg width="14" height="15" viewBox="0 0 14 15" fill="none" xmlns="http://www.w3.org/2000/svg">
<g clip-path="url(#clip0_8074_35898)">
<path d="M0.944336 2.74185C0.944336 2.46571 1.16819 2.24185 1.44434 2.24185L12.5559 2.24185C12.8321 2.24185 13.0559 2.46571 13.0559 2.74185L13.0559 4.91812C13.0559 5.19426 12.8321 5.41812 12.5559 5.41812L1.44434 5.41812C1.16819 5.41812 0.944336 5.19426 0.944336 4.91812L0.944336 2.74185Z" fill="#ACACAC"/>
<path fill-rule="evenodd" clip-rule="evenodd" d="M1.74434 3.04185L1.74434 4.61812L12.2559 4.61812L12.2559 3.04185L1.74434 3.04185ZM1.44434 2.24185C1.16819 2.24185 0.944336 2.46571 0.944336 2.74185L0.944336 4.91812C0.944336 5.19426 1.16819 5.41812 1.44434 5.41812L12.5559 5.41812C12.8321 5.41812 13.0559 5.19426 13.0559 4.91812L13.0559 2.74185C13.0559 2.46571 12.8321 2.24185 12.5559 2.24185L1.44434 2.24185Z" fill="#262E30"/>
<path d="M0.944336 10.9285C0.944336 10.6523 1.16819 10.4285 1.44434 10.4285L12.5559 10.4285C12.8321 10.4285 13.0559 10.6523 13.0559 10.9285L13.0559 13.1047C13.0559 13.3809 12.8321 13.6047 12.5559 13.6047L1.44434 13.6047C1.16819 13.6047 0.944336 13.3809 0.944336 13.1047L0.944336 10.9285Z" fill="#ACACAC"/>
<path fill-rule="evenodd" clip-rule="evenodd" d="M1.74434 11.2285L1.74434 12.8047L12.2559 12.8047L12.2559 11.2285L1.74434 11.2285ZM1.44434 10.4285C1.16819 10.4285 0.944336 10.6523 0.944336 10.9285L0.944336 13.1047C0.944336 13.3809 1.16819 13.6047 1.44434 13.6047L12.5559 13.6047C12.8321 13.6047 13.0559 13.3809 13.0559 13.1047L13.0559 10.9285C13.0559 10.6523 12.8321 10.4285 12.5559 10.4285L1.44434 10.4285Z" fill="#262E30"/>
<path fill-rule="evenodd" clip-rule="evenodd" d="M1.34414 3.83344C1.56505 3.83344 1.74414 4.01252 1.74414 4.23344L1.74414 11.6166C1.74414 11.8375 1.56505 12.0166 1.34414 12.0166C1.12323 12.0166 0.94414 11.8375 0.94414 11.6166L0.944141 4.23344C0.944141 4.01252 1.12323 3.83344 1.34414 3.83344Z" fill="#262E30"/>
<path fill-rule="evenodd" clip-rule="evenodd" d="M12.661 3.83347C12.8819 3.83347 13.061 4.01255 13.061 4.23347L13.061 11.6166C13.061 11.8375 12.8819 12.0166 12.661 12.0166C12.4401 12.0166 12.261 11.8375 12.261 11.6166L12.261 4.23347C12.261 4.01255 12.4401 3.83347 12.661 3.83347Z" fill="#262E30"/>
</g>
<defs>
<clipPath id="clip0_8074_35898">
<rect width="14" height="14" fill="white" transform="translate(0 14.9233) rotate(-90)"/>
</clipPath>
</defs>
</svg>
