<svg xmlns="http://www.w3.org/2000/svg" width="18" height="18" viewBox="0 0 18 18"><rect x="3" y="14" width="1" height="1" style="fill:#009688"/><rect x="4" y="15" width="1" height="1" style="fill:#009688"/><rect x="5" y="16" width="1" height="1" style="fill:#009688"/><rect x="1" y="14" width="1" height="1" style="fill:#009688"/><rect x="2" y="15" width="1" height="1" style="fill:#009688"/><rect x="3" y="16" width="1" height="1" style="fill:#009688"/><rect x="13" y="14" width="1" height="1" transform="translate(27 29) rotate(-180)" style="fill:#009688"/><rect x="12" y="15" width="1" height="1" transform="translate(25 31) rotate(-180)" style="fill:#009688"/><rect x="11" y="16" width="1" height="1" transform="translate(23 33) rotate(-180)" style="fill:#009688"/><rect x="15" y="14" width="1" height="1" transform="translate(31 29) rotate(-180)" style="fill:#009688"/><rect x="14" y="15" width="1" height="1" transform="translate(29 31) rotate(-180)" style="fill:#009688"/><rect x="13" y="16" width="1" height="1" transform="translate(27 33) rotate(-180)" style="fill:#009688"/><path d="M16.5.5v12a1,1,0,0,1-1,1H1.5a1,1,0,0,1-1-1V.5" style="fill:none;stroke:#949494;stroke-linecap:round;stroke-linejoin:round"/><circle cx="8.5" cy="5.5" r="5" style="fill:none;stroke:#949494;stroke-linecap:round;stroke-linejoin:round"/><circle cx="8.5" cy="5.5" r="1.229" style="fill:none;stroke:#009688;stroke-linecap:round;stroke-linejoin:round"/><path d="M7.886,1.813c1.228-.614,2.765.922,1.228,2.458" style="fill:none;stroke:#009688;stroke-linecap:round;stroke-linejoin:round"/><path d="M9.114,9.187C7.886,9.8,6.349,8.265,7.886,6.729" style="fill:none;stroke:#009688;stroke-linecap:round;stroke-linejoin:round"/><path d="M11.386,3.125c1.146.757.584,2.855-1.515,2.293" style="fill:none;stroke:#009688;stroke-linecap:round;stroke-linejoin:round"/><path d="M5.614,7.875C4.468,7.118,5.03,5.02,7.129,5.582" style="fill:none;stroke:#009688;stroke-linecap:round;stroke-linejoin:round"/><path d="M12,6.811c-.082,1.372-2.181,1.934-2.743-.164" style="fill:none;stroke:#009688;stroke-linecap:round;stroke-linejoin:round"/><path d="M5,4.189c.082-1.372,2.181-1.934,2.743.164" style="fill:none;stroke:#009688;stroke-linecap:round;stroke-linejoin:round"/><polyline points="6.5 14.5 8.5 16.5 8.5 16.5 10.5 14.5" style="fill:none;stroke:#949494;stroke-linecap:round;stroke-linejoin:round"/></svg>