<svg xmlns="http://www.w3.org/2000/svg" width="18" height="18" viewBox="0 0 18 18"><line x1="4.5" y1="9.5" x2="3.5" y2="14.5" style="fill:none;stroke:#009688;stroke-linecap:round;stroke-linejoin:round"/><line x1="6.682" y1="11.227" x2="7.5" y2="14.5" style="fill:none;stroke:#009688;stroke-linecap:round;stroke-linejoin:round"/><line x1="5.491" y1="7.439" x2="6.682" y2="11.227" style="fill:none;stroke:#009688;stroke-linecap:round;stroke-linejoin:round"/><line x1="10.5" y1="5.5" x2="6.682" y2="11.227" style="fill:none;stroke:#009688;stroke-linecap:round;stroke-linejoin:round"/><line x1="7.5" y1="4.5" x2="8.722" y2="8.167" style="fill:none;stroke:#009688;stroke-linecap:round;stroke-linejoin:round"/><line x1="0.5" y1="5.5" x2="4.5" y2="9.5" style="fill:none;stroke:#009688;stroke-linecap:round;stroke-linejoin:round"/><line x1="5.5" y1="4.5" x2="3.238" y2="8.238" style="fill:none;stroke:#009688;stroke-linecap:round;stroke-linejoin:round"/><line x1="3.5" y1="14.5" x2="7.5" y2="14.5" style="fill:none;stroke:#009688;stroke-linecap:round;stroke-linejoin:round"/><path d="M16.5,1.5v12a1,1,0,0,1-1,1h-4v-9a1,1,0,0,0-1-1H.5v-3a1,1,0,0,1,1-1h14A1,1,0,0,1,16.5,1.5Zm-16,15h16" style="fill:none;stroke:#949494;stroke-linecap:round;stroke-linejoin:round"/></svg>