<svg xmlns="http://www.w3.org/2000/svg" width="18" height="18" viewBox="0 0 18 18"><path d="M.5,5.5l.594.613a1.254,1.254,0,0,0,1.812,0L4.094,4.887a1.254,1.254,0,0,1,1.812,0L6.5,5.5" style="fill:none;stroke:#009688;stroke-linecap:round;stroke-linejoin:round"/><path d="M.5,8.5l.594.613a1.254,1.254,0,0,0,1.812,0L4.094,7.887a1.254,1.254,0,0,1,1.812,0L6.5,8.5" style="fill:none;stroke:#009688;stroke-linecap:round;stroke-linejoin:round"/><path d="M.5,11.5l.594.613a1.254,1.254,0,0,0,1.812,0l1.188-1.226a1.254,1.254,0,0,1,1.812,0L6.5,11.5" style="fill:none;stroke:#009688;stroke-linecap:round;stroke-linejoin:round"/><line x1="14" y1="4.5" x2="17" y2="4.5" style="fill:none;stroke:#009688;stroke-linejoin:round"/><line x1="8" y1="4.5" x2="11" y2="4.5" style="fill:none;stroke:#009688;stroke-linejoin:round"/><line x1="12.5" x2="12.5" y2="3" style="fill:none;stroke:#009688;stroke-linejoin:round"/><line x1="12.5" y1="6" x2="12.5" y2="9" style="fill:none;stroke:#009688;stroke-linejoin:round"/><line x1="8" y1="14.5" x2="17" y2="14.5" style="fill:none;stroke:#949494;stroke-linejoin:round"/><line x1="8" y1="12.5" x2="17" y2="12.5" style="fill:none;stroke:#949494;stroke-linejoin:round"/><line x1="8" y1="10.5" x2="17" y2="10.5" style="fill:none;stroke:#009688;stroke-linejoin:round"/><line x1="8" y1="16.5" x2="17" y2="16.5" style="fill:none;stroke:#949494;stroke-linejoin:round"/><circle cx="12.5" cy="4.5" r="3" style="fill:none;stroke:#009688;stroke-linejoin:round"/><circle cx="12.5" cy="4.5" r="0.5" style="fill:#009688"/></svg>