<svg xmlns="http://www.w3.org/2000/svg" width="18" height="18" viewBox="0 0 18 18"><rect x="4.5" y="0.5" width="8" height="12" rx="1" style="fill:none;stroke:#949494;stroke-linecap:round;stroke-linejoin:round"/><path d="M13.5,10.5a1,1,0,0,1,1,1v2a1,1,0,0,1-1,1H3.5a1,1,0,0,1-1-1v-2a1,1,0,0,1,1-1" style="fill:none;stroke:#009688;stroke-linecap:square;stroke-linejoin:round"/><path d="M13.5,8.5h0a3,3,0,0,1,3,3v2a3,3,0,0,1-3,3H3.5a3,3,0,0,1-3-3v-2a3,3,0,0,1,3-3h0" style="fill:none;stroke:#009688;stroke-linecap:square;stroke-linejoin:round"/></svg>