<svg width="10" height="10" viewBox="0 0 10 10" fill="none" xmlns="http://www.w3.org/2000/svg">
<g clip-path="url(#clip0_8962_33520)">
<rect x="0.75" y="0.75" width="8.5" height="8.5" rx="0.25" stroke="#262E30" stroke-width="0.5"/>
<path fill-rule="evenodd" clip-rule="evenodd" d="M2.17176 2.13202L4.02663 2.48454L5.2514 1.06366L5.05468 0.5H5.63244L5.76451 0.878425L7.61285 1.2297L8.24183 0.5H8.90923L7.9948 1.56085L8.61232 3.33019L9.5 3.49889V4.00926L8.52729 3.82439L7.29959 5.24867L7.91781 7.02006L9.5 7.32075V7.83482L7.81841 7.51524L6.59345 8.93633L6.79018 9.5H6.21293L6.08089 9.12167L4.23201 8.77029L3.60301 9.5H2.93593L3.85014 8.43941L3.23245 6.66953L1.38226 6.3179L0.5 7.34144V6.56279L0.992717 5.99118L0.5 4.57941V3.68626L1.69685 2.29777L1.07871 0.526648L0.950978 0.502373C0.967106 0.500803 0.983459 0.5 1 0.5H1.60218L2.17176 2.13202ZM0.5 8.7327V9C0.5 9.18217 0.597423 9.34159 0.743011 9.42899L0.5 8.7327ZM5.66511 1.3736L4.44015 2.7947L5.06029 4.57157L6.90918 4.92295L8.13793 3.49745L7.5197 1.72606L5.66511 1.3736ZM7.4047 7.20529L6.17993 8.62617L4.32506 8.27366L3.70693 6.50253L4.93567 5.07704L6.78456 5.42842L7.4047 7.20529ZM3.31784 6.17565L4.54573 4.75115L3.92759 2.98003L2.07871 2.62865L0.849963 4.05415L1.46766 5.82402L3.31784 6.17565Z" fill="#262E30"/>
</g>
<defs>
<clipPath id="clip0_8962_33520">
<rect width="10" height="10" fill="white"/>
</clipPath>
</defs>
</svg>
