<svg width="14" height="14" viewBox="0 0 14 14" fill="none" xmlns="http://www.w3.org/2000/svg">
<path d="M1.64844 2.02966C1.64844 1.75352 1.8723 1.52966 2.14844 1.52966H5.9899C6.26604 1.52966 6.4899 1.75352 6.4899 2.02966V6.02414C6.4899 6.30028 6.26604 6.52414 5.9899 6.52414H2.14844C1.8723 6.52414 1.64844 6.30028 1.64844 6.02414V2.02966Z" fill="#ACACAC"/>
<path fill-rule="evenodd" clip-rule="evenodd" d="M2.44844 2.32966V5.72414H5.6899V2.32966H2.44844ZM2.14844 1.52966C1.8723 1.52966 1.64844 1.75352 1.64844 2.02966V6.02414C1.64844 6.30028 1.8723 6.52414 2.14844 6.52414H5.9899C6.26604 6.52414 6.4899 6.30028 6.4899 6.02414V2.02966C6.4899 1.75352 6.26604 1.52966 5.9899 1.52966H2.14844Z" fill="#262E30"/>
<path d="M7.50977 2.02966C7.50977 1.75352 7.73362 1.52966 8.00977 1.52966H11.8512C12.1274 1.52966 12.3512 1.75352 12.3512 2.02966V6.02414C12.3512 6.30028 12.1274 6.52414 11.8512 6.52414H8.00977C7.73362 6.52414 7.50977 6.30028 7.50977 6.02414V2.02966Z" fill="#ACACAC"/>
<path fill-rule="evenodd" clip-rule="evenodd" d="M8.30977 2.32966V5.72414H11.5512V2.32966H8.30977ZM8.00977 1.52966C7.73362 1.52966 7.50977 1.75352 7.50977 2.02966V6.02414C7.50977 6.30028 7.73362 6.52414 8.00977 6.52414H11.8512C12.1274 6.52414 12.3512 6.30028 12.3512 6.02414V2.02966C12.3512 1.75352 12.1274 1.52966 11.8512 1.52966H8.00977Z" fill="#262E30"/>
<path d="M1.64844 7.97583C1.64844 7.69969 1.8723 7.47583 2.14844 7.47583H5.9899C6.26604 7.47583 6.4899 7.69969 6.4899 7.97583V11.9703C6.4899 12.2465 6.26604 12.4703 5.9899 12.4703H2.14844C1.8723 12.4703 1.64844 12.2465 1.64844 11.9703V7.97583Z" fill="#ACACAC"/>
<path fill-rule="evenodd" clip-rule="evenodd" d="M2.44844 8.27583V11.6703H5.6899V8.27583H2.44844ZM2.14844 7.47583C1.8723 7.47583 1.64844 7.69969 1.64844 7.97583V11.9703C1.64844 12.2465 1.8723 12.4703 2.14844 12.4703H5.9899C6.26604 12.4703 6.4899 12.2465 6.4899 11.9703V7.97583C6.4899 7.69969 6.26604 7.47583 5.9899 7.47583H2.14844Z" fill="#262E30"/>
<path d="M7.50977 7.97583C7.50977 7.69969 7.73362 7.47583 8.00977 7.47583H11.8512C12.1274 7.47583 12.3512 7.69969 12.3512 7.97583V11.9703C12.3512 12.2465 12.1274 12.4703 11.8512 12.4703H8.00977C7.73362 12.4703 7.50977 12.2465 7.50977 11.9703V7.97583Z" fill="#ACACAC"/>
<path fill-rule="evenodd" clip-rule="evenodd" d="M8.30977 8.27583V11.6703H11.5512V8.27583H8.30977ZM8.00977 7.47583C7.73362 7.47583 7.50977 7.69969 7.50977 7.97583V11.9703C7.50977 12.2465 7.73362 12.4703 8.00977 12.4703H11.8512C12.1274 12.4703 12.3512 12.2465 12.3512 11.9703V7.97583C12.3512 7.69969 12.1274 7.47583 11.8512 7.47583H8.00977Z" fill="#262E30"/>
</svg>
