<?xml version="1.0" encoding="UTF-8" standalone="no"?>
<svg
   width="24"
   height="24"
   viewBox="0 0 24 24"
   version="1.1"
   id="svg3"
   sodipodi:docname="param_crosszag.svg"
   xml:space="preserve"
   inkscape:version="1.4.2 (ebf0e94, 2025-05-08)"
   xmlns:inkscape="http://www.inkscape.org/namespaces/inkscape"
   xmlns:sodipodi="http://sodipodi.sourceforge.net/DTD/sodipodi-0.dtd"
   xmlns="http://www.w3.org/2000/svg"
   xmlns:svg="http://www.w3.org/2000/svg"><defs
     id="defs3"><clipPath
       id="clip0_8991_35043"><rect
         width="10"
         height="10"
         fill="white"
         id="rect5" /></clipPath><clipPath
       id="clip0_8991_35043-9"><rect
         width="10"
         height="10"
         fill="#ffffff"
         id="rect5-5"
         x="0"
         y="0" /></clipPath><clipPath
       id="clip0_8991_35043-1"><rect
         width="10"
         height="10"
         fill="#ffffff"
         id="rect5-0"
         x="0"
         y="0" /></clipPath><clipPath
       id="clip0_252_3415"><rect
         width="10"
         height="10"
         fill="white"
         id="rect20" /></clipPath><clipPath
       id="clip0_50_344"><rect
         width="10"
         height="10"
         fill="white"
         id="rect35" /></clipPath></defs><sodipodi:namedview
     id="namedview3"
     pagecolor="#ffffff"
     bordercolor="#000000"
     borderopacity="0.25"
     inkscape:showpageshadow="2"
     inkscape:pageopacity="0.0"
     inkscape:pagecheckerboard="0"
     inkscape:deskcolor="#d1d1d1"
     inkscape:zoom="48.958333"
     inkscape:cx="16.626383"
     inkscape:cy="12"
     inkscape:window-width="2560"
     inkscape:window-height="1377"
     inkscape:window-x="-8"
     inkscape:window-y="-8"
     inkscape:window-maximized="1"
     inkscape:current-layer="svg3" /><g
     style="display:inline;fill:none"
     id="g13"
     transform="matrix(2.4421817,0,0,2.441627,-0.20729439,-0.13100698)"><g
       clip-path="url(#clip0_50_344)"
       id="g35"><g
         id="g27"
         transform="translate(-0.00133884,0.08835169)"
         style="stroke:#4b4b4b;stroke-opacity:0.5"><path
           d="m 2.3054255,2.7531139 1.05788,1.03316 1.05789,-1.03344"
           stroke="#707273"
           stroke-width="0.5"
           id="path1-6"
           style="display:inline;stroke:#4b4b4b;stroke-opacity:0.5" /><path
           d="m 3.9419655,1.1481339 1.05788,1.03316 1.05789,-1.03344"
           stroke="#707273"
           stroke-width="0.5"
           id="path3-1"
           style="display:inline;stroke:#4b4b4b;stroke-opacity:0.5" /><path
           d="m 5.5613255,2.6375139 1.05788,1.03316 1.05789,-1.03344"
           stroke="#707273"
           stroke-width="0.5"
           id="path5"
           style="display:inline;stroke:#4b4b4b;stroke-opacity:0.5" /><path
           d="m 3.9495755,4.3789739 1.05788,1.03316 1.05789,-1.03344"
           stroke="#707273"
           stroke-width="0.5"
           id="path7-3"
           style="display:inline;stroke:#4b4b4b;stroke-opacity:0.5" /><path
           d="m 5.6257755,5.9187639 1.05788,1.03316 1.05789,-1.03344"
           stroke="#707273"
           stroke-width="0.5"
           id="path9-2"
           style="display:inline;stroke:#4b4b4b;stroke-opacity:0.5" /><path
           d="m 7.1905955,4.3789739 1.05789,1.03316 1.05788,-1.03344"
           stroke="#707273"
           stroke-width="0.5"
           id="path11-1"
           style="display:inline;stroke:#4b4b4b;stroke-opacity:0.5" /><path
           d="m 3.9363155,7.5523039 1.05789,1.03316 1.05788,-1.03343"
           stroke="#707273"
           stroke-width="0.5"
           id="path13"
           style="display:inline;stroke:#4b4b4b;stroke-opacity:0.5" /><path
           d="m 7.1599555,7.5523039 1.05789,1.03316 1.05788,-1.03343"
           stroke="#707273"
           stroke-width="0.5"
           id="path15"
           style="display:inline;stroke:#4b4b4b;stroke-opacity:0.5" /><path
           d="m 2.2809955,6.0321639 1.05788,1.03316 1.05789,-1.03343"
           stroke="#707273"
           stroke-width="0.5"
           id="path17"
           style="display:inline;stroke:#4b4b4b;stroke-opacity:0.5" /><path
           d="m 0.74586147,7.6796639 0.92443403,0.90584 1.05789,-1.03343"
           stroke="#707273"
           stroke-width="0.5"
           id="path19"
           style="display:inline;stroke:#4b4b4b;stroke-opacity:0.5" /><path
           d="m 0.67393847,4.3789739 1.05788703,1.03316 1.05788,-1.03344"
           stroke="#707273"
           stroke-width="0.5"
           id="path21"
           style="display:inline;stroke:#4b4b4b;stroke-opacity:0.5" /><path
           d="m 0.67837347,1.1319839 0.99192203,0.9495 1.05789,-1.03344"
           stroke="#707273"
           stroke-width="0.5"
           id="path23"
           style="display:inline;stroke:#4b4b4b;stroke-opacity:0.5" /><path
           d="m 7.2099855,1.0039739 1.05788,1.03316 1.05789,-1.03344"
           stroke="#707273"
           stroke-width="0.5"
           id="path25"
           style="display:inline;stroke:#4b4b4b;stroke-opacity:0.5" /></g><path
         d="M 9.32591,5.65771 5.6773,9.30652"
         stroke="#262e30"
         stroke-width="0.5"
         id="path28" /><path
         d="M 4.43306,0.724121 0.674093,4.48328"
         stroke="#262e30"
         stroke-width="0.5"
         id="path29" /><path
         d="M 9.27161,2.4071 2.42689,9.2522"
         stroke="#262e30"
         stroke-width="0.5"
         id="path30" /><path
         d="M 7.67725,0.693481 0.68421,7.68688"
         stroke="#262e30"
         stroke-width="0.5"
         id="path31"
         style="display:inline" /><path
         d="M 4.34229,9.32598 0.693487,5.67737"
         stroke="#262e30"
         stroke-width="0.5"
         id="path32"
         style="display:inline;stroke:#009688;stroke-opacity:1" /><path
         d="M 9.27588,4.43303 5.51673,0.674072"
         stroke="#262e30"
         stroke-width="0.5"
         id="path33"
         style="display:inline;stroke:#009688;stroke-opacity:1" /><path
         d="M 7.5929,9.27161 0.747808,2.42688"
         stroke="#262e30"
         stroke-width="0.5"
         id="path34"
         style="display:inline;stroke:#009688;stroke-opacity:1" /><path
         d="M 9.30652,7.67724 2.31313,0.684204"
         stroke="#262e30"
         stroke-width="0.5"
         id="path35"
         style="display:inline;stroke:#009688;stroke-opacity:1" /></g></g><g
     style="display:inline;fill:none"
     id="g3"
     transform="matrix(2.4361593,0,0,2.5272675,-0.17137229,-0.38389611)" /><path
     d="m 3.499443,1.581703 h 17 a 2,2 0 0 1 2,2 v 16.999999 a 2,2 0 0 1 -2,2 h -17 a 2,2 0 0 1 -2,-2 V 3.581703 a 2,2 0 0 1 2,-2 z"
     style="display:inline;fill:none;stroke:#949494;stroke-linecap:round;stroke-linejoin:round"
     id="path3"
     inkscape:label="border" /></svg>
