<svg xmlns="http://www.w3.org/2000/svg" width="24" height="24" viewBox="0 0 24 24"><g style="opacity:0.75"><line x1="1.5" y1="10.5" x2="10.5" y2="1.5" style="fill:none;stroke:#949494;stroke-linecap:round;stroke-linejoin:round"/><line x1="22.5" y1="10.5" x2="13.5" y2="1.5" style="fill:none;stroke:#949494;stroke-linecap:round;stroke-linejoin:round"/><line x1="13.5" y1="22.5" x2="22.5" y2="13.5" style="fill:none;stroke:#949494;stroke-linecap:round;stroke-linejoin:round"/><line x1="10.5" y1="22.5" x2="1.5" y2="13.5" style="fill:none;stroke:#949494;stroke-linecap:round;stroke-linejoin:round"/><line x1="21.5" y1="2.5" x2="2.5" y2="21.5" style="fill:none;stroke:#949494;stroke-linecap:round;stroke-linejoin:round"/><line x1="2.5" y1="2.5" x2="21.5" y2="21.5" style="fill:none;stroke:#949494;stroke-linecap:round;stroke-linejoin:round"/></g><line x1="4.5" y1="10.5" x2="1.5" y2="7.5" style="fill:none;stroke:#009688;stroke-linecap:round;stroke-linejoin:round"/><line x1="10.5" y1="4.5" x2="7.5" y2="1.5" style="fill:none;stroke:#009688;stroke-linecap:round;stroke-linejoin:round"/><line x1="13.5" y1="4.5" x2="16.5" y2="1.5" style="fill:none;stroke:#009688;stroke-linecap:round;stroke-linejoin:round"/><line x1="19.5" y1="10.5" x2="22.5" y2="7.5" style="fill:none;stroke:#009688;stroke-linecap:round;stroke-linejoin:round"/><line x1="19.5" y1="13.5" x2="22.5" y2="16.5" style="fill:none;stroke:#009688;stroke-linecap:round;stroke-linejoin:round"/><line x1="13.5" y1="19.5" x2="16.5" y2="22.5" style="fill:none;stroke:#009688;stroke-linecap:round;stroke-linejoin:round"/><line x1="10.5" y1="19.5" x2="7.5" y2="22.5" style="fill:none;stroke:#009688;stroke-linecap:round;stroke-linejoin:round"/><line x1="4.5" y1="13.5" x2="1.5" y2="16.5" style="fill:none;stroke:#009688;stroke-linecap:round;stroke-linejoin:round"/><rect x="4.5" y="10.5" width="3" height="3" style="fill:none;stroke:#009688;stroke-linecap:round;stroke-linejoin:round"/><rect x="10.5" y="4.5" width="3" height="3" style="fill:none;stroke:#009688;stroke-linecap:round;stroke-linejoin:round"/><rect x="16.5" y="10.5" width="3" height="3" style="fill:none;stroke:#009688;stroke-linecap:round;stroke-linejoin:round"/><rect x="10.5" y="16.5" width="3" height="3" style="fill:none;stroke:#009688;stroke-linecap:round;stroke-linejoin:round"/><line x1="7.5" y1="10.5" x2="10.5" y2="7.5" style="fill:none;stroke:#009688;stroke-linecap:round;stroke-linejoin:round"/><line x1="16.5" y1="10.5" x2="13.5" y2="7.5" style="fill:none;stroke:#009688;stroke-linecap:round;stroke-linejoin:round"/><line x1="16.5" y1="13.5" x2="13.5" y2="16.5" style="fill:none;stroke:#009688;stroke-linecap:round;stroke-linejoin:round"/><line x1="10.5" y1="16.5" x2="7.5" y2="13.5" style="fill:none;stroke:#009688;stroke-linecap:round;stroke-linejoin:round"/><rect x="1.5" y="1.5" width="21" height="21" rx="2" style="fill:none;stroke:#949494;stroke-linecap:round;stroke-linejoin:round"/></svg>