<svg width="10" height="10" viewBox="0 0 10 10" fill="none" xmlns="http://www.w3.org/2000/svg">
<g clip-path="url(#clip0_8968_33710)">
<rect x="0.75" y="0.75" width="8.5" height="8.5" rx="0.25" stroke="#262E30" stroke-width="0.5"/>
<path d="M2.69189 6.67535L3.10107 6.99134M4.56942 5.2441L5.68468 4.63071L6.48395 5.02105L6.20513 5.59727M6.83711 3.77568L7.63638 3.53404L7.98955 5.2441L8.77023 4.63071L9.06763 4.42625M6.20513 2.73477L8.39848 2.51172L9.06763 1.87974M8.54718 3.53404L9.06763 3.42251M5.25716 5.59727V6.47089L4.73671 7.40027L4.01924 8.13369M3.73298 9.09175L3.90026 8.2553L4.01924 8.13369M4.01924 8.13369L4.56942 8.53412M5.90773 8.99881L6.03784 7.92072L6.66983 8.42259M6.20513 7.62332L7.74791 6.47089M7.74791 6.47089L7.19028 6.09913M7.74791 6.47089L8.39848 6.7497" stroke="#262E30" stroke-width="0.5" stroke-linecap="round" stroke-linejoin="round"/>
<path d="M8.3615 7.67908L9.0866 8.01366L7.72949 9.03598" stroke="#262E30" stroke-width="0.5" stroke-linecap="round" stroke-linejoin="round"/>
<path d="M4.06725 0.931763L4.23473 1.21058L5.25703 1.7868L4.64363 2.40019M6.22358 0.931763L7.06003 1.47081L6.39087 1.91691M8.47269 0.931763L8.17529 1.35928M1.03763 2.51172L1.74396 1.91691L2.58057 2.21431L3.23114 2.0842M3.23114 3.21805L1.74396 3.51545L0.92627 4.09167L1.61398 4.61212L2.91512 4.42625M2.91512 5.59727L1.03763 5.87608L1.24223 6.61959M5.25703 3.51545L4.61582 3.97085M3.97461 4.42625L4.61582 3.97085M4.61582 3.97085L3.97461 6.48948L2.42887 7.79058M1.03763 8.96163L2.42887 7.79058M1.74396 7.47462L2.42887 7.79058M2.42887 7.79058L2.91512 8.45977" stroke="#262E30" stroke-width="0.5" stroke-linecap="round" stroke-linejoin="round"/>
</g>
<defs>
<clipPath id="clip0_8968_33710">
<rect width="10" height="10" fill="white"/>
</clipPath>
</defs>
</svg>
