<svg width="15" height="14" viewBox="0 0 15 14" fill="none" xmlns="http://www.w3.org/2000/svg">
<g clip-path="url(#clip0_8074_35877)">
<path fill-rule="evenodd" clip-rule="evenodd" d="M7.89317 1.10902C4.63845 1.10902 2.0002 3.74662 2.0002 7.00001C2.0002 10.2534 4.63845 12.891 7.89317 12.891C11.1479 12.891 13.7862 10.2534 13.7862 7.00001C13.7862 3.74662 11.1479 1.10902 7.89317 1.10902ZM1.2002 7.00001C1.2002 3.30456 4.19686 0.309021 7.89317 0.309021C11.5895 0.309021 14.5862 3.30456 14.5862 7.00001C14.5862 10.6955 11.5895 13.691 7.89317 13.691C4.19686 13.691 1.2002 10.6955 1.2002 7.00001Z" fill="#262E30"/>
<path fill-rule="evenodd" clip-rule="evenodd" d="M7.89314 2.76332C5.55106 2.76332 3.65303 4.66094 3.65303 7.00196C3.65303 7.22287 3.47394 7.40196 3.25303 7.40196C3.03211 7.40196 2.85303 7.22287 2.85303 7.00196C2.85303 4.21887 5.10948 1.96332 7.89314 1.96332C10.6768 1.96332 12.9333 4.21887 12.9333 7.00196C12.9333 7.22287 12.7542 7.40196 12.5333 7.40196C12.3123 7.40196 12.1333 7.22287 12.1333 7.00196C12.1333 4.66094 10.2352 2.76332 7.89314 2.76332Z" fill="#262E30"/>
<path d="M7.12503 9.60897C6.95528 9.49963 6.61858 9.04851 6.72796 8.87882L8.29683 6.44185L10.0297 5.05195C10.049 5.03008 10.0831 5.05195 10.0726 5.07819L9.65483 7.22199L8.0597 9.69832C7.95033 9.86889 7.29478 9.71831 7.12503 9.60897Z" fill="#ACACAC"/>
<path fill-rule="evenodd" clip-rule="evenodd" d="M10.252 5.38651L10.2954 5.35169C10.2812 5.36468 10.2667 5.37626 10.252 5.38651ZM9.48516 6.00151L8.59791 6.71314L7.1281 8.99624C7.13659 9.01307 7.14761 9.03292 7.16162 9.05547C7.19475 9.10881 7.2354 9.16246 7.2747 9.20658C7.31305 9.24963 7.33704 9.26896 7.34109 9.27223C7.34163 9.27266 7.34127 9.27234 7.34109 9.27223C7.34012 9.2716 7.34128 9.27235 7.34359 9.27341C7.35214 9.27733 7.38403 9.29196 7.44514 9.3108C7.51383 9.33197 7.59568 9.35118 7.67469 9.3631C7.72123 9.37012 7.76077 9.37369 7.79227 9.37487L9.27693 7.07002L9.48516 6.00151ZM10.4615 5.17412C10.5638 4.78619 10.0802 4.44984 9.76126 4.75454L7.99576 6.17057L6.39175 8.66212C6.27021 8.85087 6.30617 9.05377 6.33457 9.15611C6.3674 9.27437 6.42532 9.38627 6.48205 9.4776C6.58919 9.65008 6.75348 9.84544 6.90844 9.94526C6.99789 10.0029 7.113 10.0456 7.20949 10.0753C7.31488 10.1078 7.43558 10.1361 7.55534 10.1541C7.67152 10.1717 7.80599 10.1826 7.93225 10.1696C8.02657 10.1599 8.26138 10.1244 8.39613 9.91472" fill="#262E30"/>
</g>
<defs>
<clipPath id="clip0_8074_35877">
<rect width="14" height="14" fill="white" transform="translate(0.893066 14) rotate(-90)"/>
</clipPath>
</defs>
</svg>
