<svg xmlns="http://www.w3.org/2000/svg" viewBox="0 0 18 18"><path d="M14.5,5.5h-5c-8,0-9,7-9,7h16L13.69,1.26a1,1,0,0,0-1-.76H5.5" style="fill:none;stroke:#009688;stroke-linecap:round;stroke-linejoin:round"/><line x1="0.5" y1="14.5" x2="16.5" y2="14.5" style="fill:none;stroke:gray;stroke-linecap:square;stroke-linejoin:round"/><line x1="0.5" y1="16.5" x2="16.5" y2="16.5" style="fill:none;stroke:gray;stroke-linecap:square;stroke-linejoin:round"/><rect x="9" y="13" width="1" height="1" style="fill:gray"/><rect x="7" y="13" width="1" height="1" style="fill:gray"/><rect x="5" y="13" width="1" height="1" style="fill:gray"/><rect x="3" y="13" width="1" height="1" style="fill:gray"/><rect x="1" y="13" width="1" height="1" style="fill:gray"/><rect x="11" y="13" width="1" height="1" style="fill:gray"/><rect x="13" y="13" width="1" height="1" style="fill:gray"/><rect x="15" y="13" width="1" height="1" style="fill:gray"/></svg>