<svg width="10" height="10" viewBox="0 0 10 10" fill="none" xmlns="http://www.w3.org/2000/svg">
<g clip-path="url(#clip0_50_344)">
<path d="M2.30558 2.99865L3.36346 4.03181L4.42135 2.99837" stroke="#707273" stroke-width="0.5"/>
<path d="M2.75277 2.39845L3.37108 3.00231L3.98939 2.39829" stroke="#ABABAB" stroke-width="0.5"/>
<path d="M3.94212 1.39367L5 2.42683L6.05789 1.39339" stroke="#707273" stroke-width="0.5"/>
<path d="M4.38931 0.793474L5.00762 1.39733L5.62593 0.793312" stroke="#ABABAB" stroke-width="0.5"/>
<path d="M5.56148 2.88305L6.61936 3.91621L7.67725 2.88277" stroke="#707273" stroke-width="0.5"/>
<path d="M6.00867 2.28285L6.62698 2.88671L7.24529 2.28269" stroke="#ABABAB" stroke-width="0.5"/>
<path d="M3.94973 4.62451L5.00761 5.65767L6.0655 4.62423" stroke="#707273" stroke-width="0.5"/>
<path d="M4.39692 4.02431L5.01523 4.62817L5.63354 4.02415" stroke="#ABABAB" stroke-width="0.5"/>
<path d="M5.62593 6.1643L6.68381 7.19746L7.7417 6.16402" stroke="#707273" stroke-width="0.5"/>
<path d="M6.07312 5.5641L6.69143 6.16796L7.30974 5.56394" stroke="#ABABAB" stroke-width="0.5"/>
<path d="M7.19075 4.62451L8.24864 5.65767L9.30652 4.62423" stroke="#707273" stroke-width="0.5"/>
<path d="M7.63794 4.02431L8.25625 4.62817L8.87457 4.02415" stroke="#ABABAB" stroke-width="0.5"/>
<path d="M3.93647 7.79784L4.99436 8.831L6.05224 7.79757" stroke="#707273" stroke-width="0.5"/>
<path d="M4.38366 7.19765L5.00197 7.80151L5.62029 7.19749" stroke="#ABABAB" stroke-width="0.5"/>
<path d="M7.16011 7.79784L8.218 8.831L9.27588 7.79757" stroke="#707273" stroke-width="0.5"/>
<path d="M7.6073 7.19765L8.22561 7.80151L8.84393 7.19749" stroke="#ABABAB" stroke-width="0.5"/>
<path d="M2.28115 6.2777L3.33903 7.31086L4.39692 6.27743" stroke="#707273" stroke-width="0.5"/>
<path d="M2.72834 5.67751L3.34665 6.28137L3.96496 5.67735" stroke="#ABABAB" stroke-width="0.5"/>
<path d="M0.746016 7.9252L1.67045 8.83104L2.72834 7.79761" stroke="#707273" stroke-width="0.5"/>
<path d="M1.05976 7.19765L1.67807 7.80151L2.29638 7.19749" stroke="#ABABAB" stroke-width="0.5"/>
<path d="M0.674093 4.62451L1.73198 5.65767L2.78986 4.62423" stroke="#707273" stroke-width="0.5"/>
<path d="M1.12128 4.02431L1.73959 4.62817L2.3579 4.02415" stroke="#ABABAB" stroke-width="0.5"/>
<path d="M0.678528 1.37752L1.67045 2.32702L2.72834 1.29358" stroke="#707273" stroke-width="0.5"/>
<path d="M1.05976 0.69362L1.67807 1.29748L2.29638 0.693458" stroke="#ABABAB" stroke-width="0.5"/>
<path d="M7.21014 1.24951L8.26802 2.28267L9.32591 1.24923" stroke="#707273" stroke-width="0.5"/>
<path d="M7.76739 0.77738L8.27564 1.25297L8.76419 0.777344" stroke="#ABABAB" stroke-width="0.5"/>
<path d="M8.99436 0.75769H0.99436C0.856289 0.75769 0.74436 0.869619 0.74436 1.00769V9.00769C0.74436 9.14576 0.856289 9.25769 0.99436 9.25769H8.99436C9.13243 9.25769 9.24436 9.14576 9.24436 9.00769V1.00769C9.24436 0.869619 9.13243 0.75769 8.99436 0.75769Z" stroke="#262E30" stroke-width="0.5"/>
<path d="M9.32591 5.65771L5.6773 9.30652" stroke="#262E30" stroke-width="0.5"/>
<path d="M4.43306 0.724121L0.674093 4.48328" stroke="#262E30" stroke-width="0.5"/>
<path d="M9.27161 2.4071L2.42689 9.2522" stroke="#262E30" stroke-width="0.5"/>
<path d="M7.67725 0.693481L0.68421 7.68688" stroke="#262E30" stroke-width="0.5"/>
<path d="M4.34229 9.32598L0.693487 5.67737" stroke="#262E30" stroke-width="0.5"/>
<path d="M9.27588 4.43303L5.51673 0.674072" stroke="#262E30" stroke-width="0.5"/>
<path d="M7.5929 9.27161L0.747808 2.42688" stroke="#262E30" stroke-width="0.5"/>
<path d="M9.30652 7.67724L2.31313 0.684204" stroke="#262E30" stroke-width="0.5"/>
</g>
<defs>
<clipPath id="clip0_50_344">
<rect width="10" height="10" fill="white"/>
</clipPath>
</defs>
</svg>
