<?xml version="1.0" encoding="UTF-8" standalone="no"?>
<svg
   width="24"
   height="24"
   viewBox="0 0 24 24"
   version="1.1"
   id="svg10"
   sodipodi:docname="param_tpmsd.svg"
   inkscape:version="1.4.2 (ebf0e94, 2025-05-08)"
   xmlns:inkscape="http://www.inkscape.org/namespaces/inkscape"
   xmlns:sodipodi="http://sodipodi.sourceforge.net/DTD/sodipodi-0.dtd"
   xmlns="http://www.w3.org/2000/svg"
   xmlns:svg="http://www.w3.org/2000/svg">
  <defs
     id="defs10" />
  <sodipodi:namedview
     id="namedview10"
     pagecolor="#ffffff"
     bordercolor="#666666"
     borderopacity="1.0"
     inkscape:showpageshadow="2"
     inkscape:pageopacity="0.0"
     inkscape:pagecheckerboard="0"
     inkscape:deskcolor="#d1d1d1"
     inkscape:zoom="45.254834"
     inkscape:cx="17.987029"
     inkscape:cy="12.805262"
     inkscape:window-width="2560"
     inkscape:window-height="1377"
     inkscape:window-x="-8"
     inkscape:window-y="-8"
     inkscape:window-maximized="1"
     inkscape:current-layer="svg10"
     showguides="true" />
  <path
     d="M3.5,1.5h17a2,2,0,0,1,2,2v17a2,2,0,0,1-2,2H3.5a2,2,0,0,1-2-2V3.5A2,2,0,0,1,3.5,1.5Z"
     style="fill:none;stroke:#949494;stroke-linecap:round;stroke-linejoin:round"
     id="path10" />
  <path
     style="fill:#939393;fill-opacity:1;stroke:none;stroke-width:0.0408511"
     d="M 2.90923,22.896259 C 2.0613133,22.674106 1.4709446,22.121791 1.1317723,21.233374 l -0.09007,-0.235927 -0.010758,-8.854467 c -0.0094,-7.7388928 -0.00304,-8.8917826 0.050495,-9.1506389 0.1859554,-0.8991302 0.9034473,-1.644147 1.8305395,-1.9007639 0.2366323,-0.065499 0.8566253,-0.070301 9.0778082,-0.070301 7.25241,0 8.863843,0.00978 9.048511,0.054939 0.41936,0.1025422 0.894759,0.3676462 1.184681,0.6606312 0.460787,0.465656 0.674736,0.9256377 0.740656,1.5923869 0.02306,0.2331921 0.03324,3.8138627 0.02551,8.9669367 -0.01218,8.11996 -0.0168,8.591678 -0.08634,8.820989 -0.280161,0.923863 -1.004037,1.61516 -1.884942,1.800108 -0.246575,0.05177 -1.492743,0.05983 -9.04851,0.0585 -8.488697,-0.0015 -8.7718539,-0.004 -9.0601322,-0.07951 z m 18.140693,-0.972914 c 0.331179,-0.133671 0.679356,-0.465886 0.829868,-0.791824 l 0.118507,-0.256627 0.01067,-8.781151 C 22.020819,2.3471958 22.04116,3.0891606 21.749942,2.6450177 21.599404,2.4154289 21.375482,2.2298349 21.079149,2.0890425 l -0.18383,-0.08734 H 12.010213 3.1251064 L 2.8684789,2.1202084 C 2.5425414,2.270721 2.2103264,2.6188978 2.0766551,2.9500767 l -0.095379,0.2363063 -0.011773,8.578723 c -0.00774,5.63809 0.00244,8.687076 0.029697,8.89482 0.093595,0.713409 0.5893405,1.239468 1.2564016,1.333226 0.1304402,0.01833 4.1343554,0.03159 8.8975893,0.02945 l 8.660426,-0.0039 z"
     id="path18" />
  <g
     id="g22"
     transform="matrix(1.005528,0,0,1.005528,-284.3849,-929.53132)"
     style="fill:#009688;fill-opacity:1;stroke:#000000;stroke-width:0.01989005;stroke-dasharray:none;stroke-opacity:1">
    <g
       id="g26"
       transform="matrix(0.20848903,0,0,0.20848903,234.2996,741.49731)"
       style="fill:#009688;fill-opacity:1;stroke:#000000;stroke-width:0.09540093;stroke-dasharray:none;stroke-opacity:1">
      <g
         id="g25"
         style="fill:#009688;fill-opacity:1;stroke:#000000;stroke-width:0.09540093;stroke-dasharray:none;stroke-opacity:1">
        <path
           d="m 242.24433,953.1427 c 2.41634,0.034 4.85811,0.0685 7.25372,0.0238 4.81496,-0.09 9.44196,-0.45875 13.41146,-1.99804 1.82617,-0.70815 3.52041,-1.68272 4.93981,-3.03133 1.13152,-1.0751 2.07818,-2.41806 2.7437,-3.88292 0.66553,-1.46486 1.08821,-3.02601 1.39603,-4.62759 0.66119,-3.44013 0.80391,-7.10747 1.15952,-10.39304 0.26711,-2.46787 0.66196,-4.70591 1.31545,-6.35074 0.42497,-1.06965 0.92891,-1.86275 1.55021,-2.45158 0.62129,-0.58883 1.482,-1.08822 2.60084,-1.49345 1.11885,-0.40523 2.47944,-0.70639 3.98056,-0.93114 3.33585,-0.49945 7.32241,-0.60831 11.10357,-1.1895 1.97868,-0.30414 3.91492,-0.73834 5.71534,-1.518 1.42883,-0.61874 2.76044,-1.49742 3.83999,-2.56194 1.07956,-1.06452 1.93659,-2.30465 2.6115,-3.64247 1.45684,-2.88778 2.10667,-6.21944 2.43293,-9.75357 0.32626,-3.53412 0.31166,-7.28875 0.26414,-11.02316 -0.006,-0.49199 -0.0132,-0.98354 -0.0201,-1.474 h -5.10039 l 5.1e-4,0.0359 c 0.0396,2.81557 0.0778,5.59659 0.0778,5.59659 -0.19559,6.41285 -0.58043,9.85971 -0.58043,9.85971 -1.33123,4.00029 -1.91463,5.1435 -1.91463,5.1435 -1.41735,1.80699 -2.21458,2.46835 -2.21458,2.46835 -2.23261,1.0634 -3.69969,1.46201 -3.69969,1.46201 -4.95371,0.83909 -8.97151,0.95184 -8.97151,0.95184 -5.71276,0.79548 -7.55271,1.1586 -7.55271,1.1586 -3.47167,1.26386 -5.13747,2.19295 -5.13747,2.19295 -2.29139,2.41691 -3.00736,3.60745 -3.00736,3.60745 -1.35336,3.13091 -1.791,5.1587 -1.791,5.1587 -0.85869,5.83665 -0.97122,9.79137 -0.97122,9.79137 -0.73101,4.72236 -1.02483,6.01996 -1.02483,6.01996 -0.779,2.14885 -1.24169,2.95922 -1.24169,2.95922 -1.51073,1.73921 -2.75354,2.55079 -2.75354,2.55079 -4.56905,1.75542 -8.70783,2.18247 -8.70783,2.18247 -6.85743,0.12671 -9.25191,0.0935 -11.67225,0.0594 l -0.0359,-5e-4 z"
           style="fill:#009688;fill-opacity:1;stroke:#000000;stroke-width:0.09540093;stroke-dasharray:none;stroke-opacity:1"
           id="path7-4"
           sodipodi:nodetypes="cssssssssssssssssccscccccccccccccccscc" />
        <path
           d="m 271.56839,982.46676 c -0.034,-2.41634 -0.0686,-4.85811 -0.0238,-7.25372 0.09,-4.81496 0.45876,-9.44196 1.99805,-13.41146 0.70815,-1.82617 1.68271,-3.52041 3.03133,-4.93981 1.0751,-1.13152 2.41806,-2.07818 3.88292,-2.74371 1.46486,-0.66552 3.02601,-1.0882 4.62759,-1.39602 3.44012,-0.6612 7.10747,-0.80391 10.39304,-1.15952 2.46787,-0.26711 4.70591,-0.66196 6.35074,-1.31545 1.06965,-0.42497 1.86275,-0.92891 2.45158,-1.55021 0.58883,-0.62129 1.08822,-1.482 1.49345,-2.60084 0.40523,-1.11885 0.70638,-2.47944 0.93114,-3.98056 0.49945,-3.33585 0.60831,-7.32241 1.1895,-11.10357 0.30414,-1.97868 0.73834,-3.91492 1.518,-5.71534 0.61874,-1.42883 1.49742,-2.76044 2.56194,-3.84 1.06452,-1.07955 2.30465,-1.93658 3.64247,-2.61149 2.88778,-1.45684 6.21944,-2.10667 9.75357,-2.43293 3.53412,-0.32626 7.28875,-0.31166 11.02315,-0.26415 0.492,0.006 0.98354,0.0132 1.47401,0.0201 v 5.10039 l -0.0359,-5.1e-4 c -2.81557,-0.0396 -5.59659,-0.0778 -5.59659,-0.0778 -6.41285,0.19559 -9.85971,0.58043 -9.85971,0.58043 -4.00029,1.33123 -5.1435,1.91463 -5.1435,1.91463 -1.80699,1.41735 -2.46835,2.21458 -2.46835,2.21458 -1.0634,2.2326 -1.46201,3.69969 -1.46201,3.69969 -0.8391,4.9537 -0.95184,8.97151 -0.95184,8.97151 -0.79549,5.71276 -1.1586,7.55271 -1.1586,7.55271 -1.26386,3.47166 -2.19295,5.13747 -2.19295,5.13747 -2.41692,2.29138 -3.60745,3.00736 -3.60745,3.00736 -3.13091,1.35336 -5.15871,1.791 -5.15871,1.791 -5.83664,0.85869 -9.79136,0.97122 -9.79136,0.97122 -4.72236,0.73101 -6.01996,1.02483 -6.01996,1.02483 -2.14885,0.779 -2.95922,1.24169 -2.95922,1.24169 -1.73921,1.51073 -2.55079,2.75354 -2.55079,2.75354 -1.75542,4.56905 -2.18247,8.70783 -2.18247,8.70783 -0.12671,6.85743 -0.0935,9.25191 -0.0594,11.67225 l 5e-4,0.0359 z"
           style="fill:#009688;fill-opacity:1;stroke:#000000;stroke-width:0.09540093;stroke-dasharray:none;stroke-opacity:1"
           id="path8-2"
           sodipodi:nodetypes="cssssssssssssssssccscccccccccccccccscc" />
        <path
           d="m 315.53867,982.46676 c 0.56866,-3.26382 0.71472,-6.69801 1.04975,-9.79336 0.26711,-2.46787 0.66196,-4.70591 1.31544,-6.35074 0.42497,-1.06965 0.92892,-1.86275 1.55021,-2.45158 0.6213,-0.58883 1.48201,-1.08823 2.60085,-1.49345 1.11884,-0.40523 2.47943,-0.70639 3.98056,-0.93114 3.33585,-0.49945 7.32241,-0.60831 11.10357,-1.1895 0.24338,-0.0374 0.48612,-0.0768 0.72804,-0.11853 V 954.947 c -0.32137,0.0671 -0.65252,0.12937 -0.99227,0.18692 -3.27703,0.55509 -7.29483,0.66783 -11.13625,1.20274 -1.87134,0.26058 -3.7113,0.6237 -5.44713,1.25562 -1.73583,0.63193 -3.40164,1.56103 -4.72047,2.95211 -0.97255,1.02583 -1.68853,2.21637 -2.22915,3.46706 -0.81273,1.88021 -1.25037,3.90801 -1.5549,5.97793 -0.55416,3.76672 -0.66669,7.72145 -1.17617,11.01266 -0.0784,0.50627 -0.16578,0.99584 -0.26328,1.46472 z"
           style="fill:#009688;fill-opacity:1;stroke:#000000;stroke-width:0.09540093;stroke-dasharray:none;stroke-opacity:1"
           id="path10-3"
           sodipodi:nodetypes="cssssssccssssssscc" />
        <path
           id="path13"
           style="fill:#009688;fill-opacity:1;stroke:#000000;stroke-width:0.09540093;stroke-dasharray:none;stroke-opacity:1"
           d="m 242.24433,914.36362 c 5.93188,-1.18366 12.18304,-0.64248 17.9227,-2.77546 2.99045,-1.06215 5.46813,-3.40375 6.63316,-6.36102 1.97348,-4.85312 1.85987,-10.18795 2.48623,-15.30992 0.11991,-1.02993 0.26559,-2.05784 0.47767,-3.07322 h -5.19146 c -0.215,1.24914 -0.36892,2.50793 -0.49786,3.76858 -0.49119,4.23086 -0.41243,8.62265 -1.97915,12.64584 -0.67781,1.8559 -2.3263,3.16931 -4.18514,3.72589 -5.06962,1.59358 -10.4786,1.23093 -15.66615,2.18811 z"
           sodipodi:nodetypes="ccccccccccc" />
        <path
           d="m 242.24433,914.36362 z m 8.71065,-0.88529 z m 12.18589,-3.36566 z m 4.97298,-9.26881 z"
           style="fill:#009688;fill-opacity:1;stroke:#000000;stroke-width:0.09540093;stroke-dasharray:none;stroke-opacity:1"
           id="path21-2" />
      </g>
    </g>
  </g>
</svg>
