<svg xmlns="http://www.w3.org/2000/svg" viewBox="0 0 24 24"><path d="M19.5,22.46a6.74,6.74,0,0,0-.08-1h0c0-.09,0-.17,0-.25s0-.17-.05-.25-.07-.32-.11-.48a.94.94,0,0,1,0-.16c-.07-.21-.14-.41-.22-.62a1.42,1.42,0,0,1-.08-.18c-.07-.15-.13-.29-.2-.43l-.12-.22-.22-.37-.14-.22-.28-.38c-.05,0-.09-.11-.14-.17s-.3-.35-.47-.52-.33-.31-.51-.46l-.14-.11-.46-.34-.09-.06c-.18-.12-.37-.22-.56-.33l-.15-.07-.47-.22-.14-.06-.6-.21-.15,0-.27-.07a9,9,0,0,0-1.38-1.77,8.61,8.61,0,0,0-3.1-2,.24.24,0,0,0-.28.35,5,5,0,0,1,.78,3.51,4.76,4.76,0,0,0-.53.19l-.15.06c-.19.08-.38.16-.57.26l-.07,0c-.17.09-.35.2-.52.31l-.11.07a6.28,6.28,0,0,0-.52.38l-.11.09c-.17.14-.34.29-.51.46s-.31.33-.46.5a1,1,0,0,1-.13.16c-.1.13-.2.27-.29.41l-.11.15A5.74,5.74,0,0,0,5.4,19h0a7.51,7.51,0,0,0-.9,3.51" style="fill:none;stroke:#009688;stroke-linecap:round;stroke-linejoin:round"/><path d="M12.52,19c.15-.49,1.17-.67,2.26-.41s1.85.87,1.7,1.35-1.17.67-2.26.41S12.37,19.51,12.52,19Z" style="fill:none;stroke:#009688;stroke-linecap:round;stroke-linejoin:round"/><path d="M16.12,1.5a20.43,20.43,0,0,1,4.69,3.41l.42.43c.48.25.88.49,1.27.74m0,3.7,0,0-.24-.19a11.5,11.5,0,0,0-.95-.69L21,8.7a13.31,13.31,0,0,0-1.31-.76l-.33-.17c-.22-.25-.45-.49-.68-.72a17.87,17.87,0,0,0-6.42-4L12.2,3a9.18,9.18,0,0,0-3-.5h0A9.21,9.21,0,0,0,1.5,6.7M22.41,21.07l-.07-.4-.06-.31a5.15,5.15,0,0,0-.16-.65l-.06-.25c-.09-.29-.19-.58-.3-.85l-.12-.28-.28-.61-.17-.3c-.1-.18-.2-.36-.33-.56l-.18-.27c-.12-.18-.26-.36-.42-.57l-.16-.21c-.21-.25-.43-.49-.67-.73a8.72,8.72,0,0,0-.71-.64l-.19-.16-.62-.45-.15-.1c-.26-.17-.52-.32-.78-.46l-.22-.11c-.22-.11-.45-.22-.67-.31l-.19-.08-.22-.08a11,11,0,0,0-1.18-1.36A11.74,11.74,0,0,0,10.34,8.7l-.59-.2H9.22a3.24,3.24,0,0,0-2.71,5l0,.07-.36.23c-.25.17-.49.34-.73.53l-.16.13c-.24.21-.48.41-.71.64s-.43.46-.65.72l-.16.2c-.15.18-.29.38-.46.62l-.11.17c-.16.24-.31.49-.45.74A10.81,10.81,0,0,0,1.6,21.11m20.81-7.22c-.27-.32-.56-.63-.86-.94s-.6-.56-.95-.85l-.22-.18c-.27-.21-.55-.41-.78-.56l-.2-.14c-.34-.22-.68-.42-1-.62l-.24-.12-.56-.27c-.3-.35-.62-.7-.95-1a14.7,14.7,0,0,0-5.29-3.33L11,5.77A5,5,0,0,0,9.42,5.5h0A6.5,6.5,0,0,0,5.05,7.08a6.33,6.33,0,0,0-2,5.4c-.18.16-.36.33-.53.51s-.56.59-.88,1l-.1.13" style="fill:none;stroke:#949494;stroke-linecap:round;stroke-linejoin:round"/><rect x="1.5" y="1.5" width="21" height="21" rx="2" style="fill:none;stroke:#949494;stroke-linecap:round;stroke-linejoin:round"/></svg>