<svg xmlns="http://www.w3.org/2000/svg" width="18" height="18" viewBox="0 0 18 18"><line x1="9.5" y1="14.5" x2="0.5" y2="14.5" style="fill:none;stroke:#949494;stroke-linecap:square;stroke-linejoin:round"/><path d="M2,12.5l-.306-.495a1.564,1.564,0,0,1,0-1.51l.612-.99a1.564,1.564,0,0,0,0-1.51L2,7.5l-.306-.5a1.564,1.564,0,0,1,0-1.51l.612-.99a1.564,1.564,0,0,0,0-1.51L2,2.5" style="fill:none;stroke:#949494;stroke-linecap:round;stroke-linejoin:round"/><path d="M7,12.5l-.306-.495a1.564,1.564,0,0,1,0-1.51l.612-.99a1.564,1.564,0,0,0,0-1.51L7,7.5l-.306-.5a1.564,1.564,0,0,1,0-1.51l.612-.99a1.564,1.564,0,0,0,0-1.51L7,2.5" style="fill:none;stroke:#949494;stroke-linecap:round;stroke-linejoin:round"/><path d="M11.5,1.5a1,1,0,0,0-1-1H.5" style="fill:none;stroke:#949494;stroke-linecap:square;stroke-linejoin:round"/><path d="M.5,16.5h10a1,1,0,0,0,1-1v-3" style="fill:none;stroke:#949494;stroke-linecap:square;stroke-linejoin:round"/><path d="M16.5,9.5l-.594-.613a1.254,1.254,0,0,0-1.812,0l-1.188,1.226a1.254,1.254,0,0,1-1.812,0L10.5,9.5" style="fill:none;stroke:#009688;stroke-linecap:round;stroke-linejoin:round"/><path d="M16.5,6.5l-.594-.613a1.254,1.254,0,0,0-1.812,0L12.906,7.113a1.254,1.254,0,0,1-1.812,0L10.5,6.5" style="fill:none;stroke:#009688;stroke-linecap:round;stroke-linejoin:round"/><path d="M16.5,3.5l-.594-.613a1.254,1.254,0,0,0-1.812,0L12.906,4.113a1.254,1.254,0,0,1-1.812,0L10.5,3.5" style="fill:none;stroke:#009688;stroke-linecap:round;stroke-linejoin:round"/></svg>