<svg width="15" height="14" viewBox="0 0 15 14" fill="none" xmlns="http://www.w3.org/2000/svg">
<g clip-path="url(#clip0_8074_35888)">
<path fill-rule="evenodd" clip-rule="evenodd" d="M7.893 1.03032C4.82203 1.03032 2.3332 3.51853 2.3332 6.58823C2.3332 6.80914 2.15412 6.98823 1.9332 6.98823C1.71229 6.98823 1.5332 6.80914 1.5332 6.58823C1.5332 3.07647 4.38044 0.230316 7.893 0.230316C8.62072 0.230316 9.32068 0.352635 9.97293 0.578158C10.1817 0.650349 10.2924 0.878126 10.2203 1.08691C10.1481 1.2957 9.92028 1.40643 9.7115 1.33424C9.14223 1.1374 8.53056 1.03032 7.893 1.03032ZM12.2054 2.45632C12.3747 2.31438 12.627 2.33653 12.7689 2.5058C13.6949 3.61007 14.2528 5.03448 14.2528 6.58823C14.2528 6.80914 14.0737 6.98823 13.8528 6.98823C13.6319 6.98823 13.4528 6.80914 13.4528 6.58823C13.4528 5.22938 12.9656 3.98544 12.1559 3.01984C12.014 2.85057 12.0361 2.59827 12.2054 2.45632Z" fill="#262E30"/>
<path d="M6.90856 8.14372C6.74482 8.03825 6.42004 7.60309 6.52554 7.4394L9.36699 3.0928L11.0386 1.75207C11.0572 1.73098 11.0901 1.75207 11.0799 1.77739L10.6769 3.84534L7.81017 8.22991C7.70466 8.39445 7.07231 8.24919 6.90856 8.14372Z" fill="#ACACAC"/>
<path fill-rule="evenodd" clip-rule="evenodd" d="M11.2605 2.0869L11.3043 2.05176C11.29 2.06488 11.2754 2.07657 11.2605 2.0869ZM10.4921 2.70325L9.667 3.36498L6.92835 7.55434C6.93569 7.56834 6.94479 7.5844 6.95593 7.60234C6.98744 7.65306 7.02616 7.70416 7.06356 7.74615C7.09777 7.78456 7.1195 7.8026 7.12442 7.80668C7.12455 7.80679 7.12432 7.80659 7.12442 7.80668C7.12485 7.80685 7.12603 7.80751 7.12728 7.80807C7.1361 7.81204 7.16577 7.82538 7.22157 7.84257C7.28718 7.8628 7.36545 7.88116 7.44094 7.89255C7.48208 7.89876 7.51726 7.90211 7.54577 7.90346L10.2994 3.69198L10.4921 2.70325ZM11.4689 1.8732C11.5707 1.48625 11.0884 1.15079 10.7702 1.45463L9.06709 2.82062L6.1908 7.22054L6.18939 7.2227C6.06867 7.41 6.10474 7.6107 6.13249 7.71066C6.16465 7.82652 6.22126 7.93575 6.27636 8.02446C6.38026 8.19172 6.54007 8.38213 6.69202 8.48C6.77997 8.53666 6.89251 8.57829 6.98592 8.60708C7.08823 8.63862 7.20534 8.66606 7.32159 8.6836C7.43425 8.7006 7.56528 8.71128 7.68872 8.6986C7.78001 8.68923 8.01173 8.6546 8.14566 8.44783L11.0546 3.99871L11.4689 1.8732Z" fill="#262E30"/>
<path d="M5.34576 9.16394C4.83644 9.16394 4.43515 9.24883 4.14191 9.43403C3.79465 9.63467 3.57857 9.95879 3.49368 10.3987L4.3657 10.4681C4.412 10.2597 4.52776 10.1054 4.69753 10.0051C4.84415 9.91249 5.03708 9.8739 5.28402 9.8739C5.85507 9.8739 6.1406 10.1286 6.1406 10.6533V10.8077L5.26859 10.8308C4.6821 10.8462 4.2268 10.9697 3.90268 11.2012C3.5477 11.4404 3.37793 11.7877 3.37793 12.2353C3.37793 12.5671 3.5014 12.8372 3.74834 13.0533C3.98757 13.2616 4.31168 13.3697 4.7284 13.3697C5.07566 13.3697 5.37662 13.3079 5.63128 13.1922C5.85507 13.0842 6.048 12.9375 6.20234 12.7369V13.2616H7.02034V10.715C7.02034 10.2289 6.89686 9.85847 6.64992 9.60381C6.37211 9.31056 5.93224 9.16394 5.34576 9.16394ZM6.1406 11.4404V11.6411C6.1406 11.9498 6.01713 12.2044 5.78562 12.4051C5.55411 12.598 5.26859 12.6983 4.92904 12.6983C4.73612 12.6983 4.58178 12.6443 4.4583 12.5517C4.33483 12.4591 4.28081 12.3433 4.28081 12.2044C4.28081 11.726 4.62808 11.479 5.33032 11.4636L6.1406 11.4404Z" fill="#262E30"/>
<path d="M9.46095 9.31828V10.9003H7.87125V11.6257H9.46095V13.2153H10.1863V11.6257H11.7683V10.9003H10.1863V9.31828H9.46095Z" fill="#262E30"/>
</g>
<defs>
<clipPath id="clip0_8074_35888">
<rect width="14" height="14" fill="white" transform="translate(0.893066 14) rotate(-90)"/>
</clipPath>
</defs>
</svg>
