<svg xmlns="http://www.w3.org/2000/svg" width="18" height="18" viewBox="0 0 18 18"><rect x="0.5" y="0.5" width="16" height="16" rx="1" style="fill:none;stroke:#949494;stroke-linecap:round;stroke-linejoin:round"/><path d="M6.5,2.5h8m-8,2h4m-4,3h8m-8,2h4m-4,5h4m-4-2h8" style="fill:none;stroke:#009688;stroke-linecap:square;stroke-linejoin:round"/><path d="M3.5,4.5h0a1,1,0,0,1-1-1h0a1,1,0,0,1,1-1h0a1,1,0,0,1,1,1h0A1,1,0,0,1,3.5,4.5Zm1,4h0a1,1,0,0,0-1-1h0a1,1,0,0,0-1,1h0a1,1,0,0,0,1,1h0A1,1,0,0,0,4.5,8.5Zm0,5h0a1,1,0,0,0-1-1h0a1,1,0,0,0-1,1h0a1,1,0,0,0,1,1h0A1,1,0,0,0,4.5,13.5Z" style="fill:none;stroke:#009688;stroke-miterlimit:10"/></svg>