<?xml version="1.0" encoding="UTF-8"?><svg id="a" xmlns="http://www.w3.org/2000/svg" width="24" height="24" viewBox="0 0 24 24"><path d="M10.5,4.5v1s4,2,4,2v5s-4,2-4,2v5s4,2,4,2v1M6.5,22.5v-1s-4-2-4-2v-5s4-2,4-2v-5s-4-2-4-2v-.72M6.5,7.5l4-2M10.5,14.5l-4-2M10.5,19.5l-3.88,1.94M14.5,21.5l4-2v-5s-4-2-4-2M14.5,7.5l4-2v-.72M2.5,5.5l-.75.25M1.5,14l1,.5M1.5,20l1-.5M19.25,5.88l-.75-.38M19.5,14l-1,.5M19.5,20l-1-.5" style="fill:none; stroke:#009688; stroke-linecap:round; stroke-linejoin:round;"/><rect x="1.5" y="4.5" width="18" height="18" rx="2" ry="2" transform="translate(21 27) rotate(-180)" style="fill:none;"/><rect x="1.5" y="4.5" width="18" height="18" rx="2" ry="2" transform="translate(21 27) rotate(-180)" style="fill:none; stroke:#949494; stroke-linecap:round; stroke-linejoin:round;"/><path d="M2.09,5.09l2.66-2.66c.6-.6,1.4-.93,2.24-.93h13.51c1.1,0,2,.9,2,2v13.51c0,.84-.33,1.65-.93,2.24l-2.66,2.66" style="fill:none; stroke:#949494; stroke-linecap:round; stroke-linejoin:round;"/><line x1="18.91" y1="5.09" x2="21.91" y2="2.09" style="fill:none; stroke:#949494; stroke-linecap:round; stroke-linejoin:round;"/></svg>