<svg width="14" height="14" viewBox="0 0 14 14" fill="none" xmlns="http://www.w3.org/2000/svg">
<g clip-path="url(#clip0_8074_35893)">
<path fill-rule="evenodd" clip-rule="evenodd" d="M3.70485 2.28477C2.64374 2.28477 1.80563 2.60569 1.42173 2.7847C1.41779 2.78654 1.41376 2.78948 1.40957 2.79646C1.40489 2.80426 1.4001 2.81749 1.4001 2.83551V10.7416C1.4001 10.7644 1.4265 10.8564 1.58479 10.9508C1.73743 11.0418 1.89707 11.061 1.98088 11.0386C2.33387 10.9444 2.763 10.8795 3.27411 10.8795C4.07091 10.8795 5.1114 11.1536 6.15247 11.4279C6.24325 11.4519 6.33403 11.4758 6.42465 11.4995C7.59141 11.8052 8.7693 12.0935 9.78577 12.0935C11.2666 12.0935 12.2004 11.8345 12.5993 11.6934V3.40108C12.5993 3.36677 12.5819 3.32541 12.5296 3.29195C12.4755 3.25727 12.4123 3.25113 12.3629 3.26952C11.7714 3.48968 10.9002 3.73541 9.94677 3.73541C9.48611 3.73541 8.95153 3.63483 8.40441 3.49656C7.85344 3.35731 7.26228 3.17243 6.68595 2.99178L6.66263 2.98447C6.08953 2.80483 5.53175 2.63 5.01968 2.49894C4.49643 2.36503 4.04995 2.28477 3.70485 2.28477ZM1.08363 2.05966C1.5314 1.85086 2.48806 1.48477 3.70485 1.48477C4.15317 1.48477 4.67853 1.58585 5.21804 1.72392C5.75098 1.86032 6.32615 2.04062 6.8909 2.21765L6.92522 2.2284C7.50591 2.41041 8.07515 2.58819 8.60043 2.72094C9.12955 2.85467 9.58705 2.93541 9.94677 2.93541C10.7707 2.93541 11.5426 2.72123 12.0838 2.51977C12.6688 2.30202 13.3993 2.70612 13.3993 3.40108V11.9382C13.4107 12.1153 13.3054 12.225 13.2729 12.2553C13.2316 12.2939 13.1919 12.3142 13.1779 12.3211C13.1155 12.3521 11.9934 12.8935 9.78577 12.8935C8.64939 12.8935 7.37233 12.5748 6.22193 12.2734C6.14394 12.253 6.06666 12.2327 5.99011 12.2126C4.90128 11.9265 3.9613 11.6795 3.27411 11.6795C2.83159 11.6795 2.47182 11.7356 2.18708 11.8116C1.83858 11.9045 1.45627 11.8056 1.17505 11.6379C0.899474 11.4736 0.600098 11.1662 0.600098 10.7416V2.83551C0.600098 2.52137 0.768023 2.20683 1.08363 2.05966ZM13.0126 11.5631C13.0083 11.5629 13.0038 11.5629 12.9994 11.5629C12.9926 11.5629 12.9927 11.5628 12.9958 11.5629C12.9968 11.5629 12.998 11.5629 12.9994 11.5629C13.0033 11.5629 13.0085 11.563 13.0126 11.5631Z" fill="#262E30"/>
<path fill-rule="evenodd" clip-rule="evenodd" d="M3.15249 5.57148L3.09839 5.17516C2.87951 5.20503 2.72629 5.40669 2.75616 5.62558C2.78604 5.84446 2.9877 5.99768 3.20658 5.96781M3.15249 5.57148L3.20658 5.96781L3.21044 5.96731L3.22887 5.96508C3.24586 5.9631 3.27203 5.96023 3.3064 5.95698C3.3752 5.95048 3.4765 5.94252 3.60243 5.93718C3.8551 5.92649 4.20256 5.9266 4.58295 5.96902C4.93946 6.00877 5.39433 6.14768 5.77881 6.28705C5.96697 6.35526 6.13093 6.42084 6.24767 6.4693C6.30595 6.49349 6.35223 6.51332 6.38361 6.52695L6.41906 6.54249L6.42769 6.54633L6.4296 6.54719C6.4296 6.54718 6.42961 6.54719 6.4296 6.54719C6.63099 6.63789 6.86814 6.54835 6.9589 6.34698C7.04967 6.14557 6.95997 5.90872 6.75857 5.81795L6.60716 6.15391C6.75857 5.81795 6.75861 5.81797 6.75857 5.81795L6.75716 5.81732L6.75407 5.81594L6.74303 5.81103L6.70238 5.79321C6.66741 5.77801 6.61709 5.75646 6.55438 5.73043C6.42915 5.67844 6.25357 5.60821 6.05145 5.53494C5.65538 5.39137 5.12677 5.2247 4.67161 5.17395C4.24033 5.12585 3.85039 5.12597 3.56859 5.1379C3.42727 5.14388 3.31207 5.15288 3.23116 5.16053C3.19068 5.16435 3.15871 5.16784 3.13626 5.17046L3.10983 5.17366L3.10219 5.17465L3.09981 5.17497L3.09839 5.17516C3.09833 5.17517 3.09839 5.17516 3.15249 5.57148ZM6.4296 6.54719C6.4296 6.54718 6.42961 6.54719 6.4296 6.54719L6.59323 6.18482C6.42987 6.54731 6.42958 6.54717 6.4296 6.54719Z" fill="#6B6B6B"/>
<path fill-rule="evenodd" clip-rule="evenodd" d="M4.97573 7.63513C5.0465 7.42585 5.27352 7.31358 5.48279 7.38435L5.35465 7.76327C5.48279 7.38435 5.4828 7.38435 5.48279 7.38435L5.48655 7.38561L5.49887 7.38974L5.5475 7.40587C5.59002 7.41988 5.65193 7.44008 5.72875 7.46458C5.88255 7.51362 6.0953 7.57964 6.3313 7.64762C6.81457 7.78683 7.35722 7.92286 7.69836 7.95268C8.06454 7.9847 8.35754 7.98451 8.55627 7.97669C8.65561 7.97279 8.73127 7.96698 8.78062 7.96236C8.80529 7.96005 8.82336 7.95804 8.83452 7.95672L8.84601 7.95529L8.90291 8.34744C8.84685 7.95519 8.84594 7.9553 8.84601 7.95529C9.0647 7.92403 9.26816 8.07587 9.29942 8.29457C9.33068 8.51326 9.17873 8.71588 8.96004 8.74714L8.90344 8.35116C8.96004 8.74714 8.96012 8.74713 8.96004 8.74714L8.95855 8.74735L8.95637 8.74765L8.94994 8.74851L8.92893 8.75113C8.91134 8.75322 8.88664 8.75594 8.85517 8.75888C8.79225 8.76477 8.70218 8.77158 8.58771 8.77608C8.35882 8.78508 8.03186 8.78489 7.62869 8.74964C7.20048 8.71221 6.58869 8.55429 6.10986 8.41636C5.86481 8.34578 5.6446 8.27744 5.48569 8.22676C5.40616 8.2014 5.34179 8.1804 5.29711 8.16567L5.24539 8.14852L5.23163 8.14391L5.22696 8.14234C5.22692 8.14233 5.22651 8.14219 5.35465 7.76327L5.22696 8.14234C5.01769 8.07157 4.90496 7.8444 4.97573 7.63513Z" fill="#6B6B6B"/>
</g>
<defs>
<clipPath id="clip0_8074_35893">
<rect width="14" height="14" fill="white" transform="translate(0 14) rotate(-90)"/>
</clipPath>
</defs>
</svg>
