<svg width="16" height="16" viewBox="0 0 16 16" fill="none" xmlns="http://www.w3.org/2000/svg">
<path d="M4.74539 2C4.74539 2.80568 3.11719 2.80568 3.11719 3.60976C3.11719 4.41544 4.74539 4.41544 4.74539 5.22111C4.74539 6.02679 3.11719 6.02679 3.11719 6.83247C3.11719 7.63815 4.74539 7.63815 4.74539 8.44382C4.74539 9.2495 3.11719 9.2495 3.11719 10.0552" stroke="#6B6B6B" stroke-miterlimit="10" stroke-linecap="round"/>
<path d="M9.12039 2C9.12039 2.80568 7.49219 2.80568 7.49219 3.60976C7.49219 4.41544 9.12039 4.41544 9.12039 5.22111C9.12039 6.02679 7.49219 6.02679 7.49219 6.83247C7.49219 7.63815 9.12039 7.63815 9.12039 8.44382C9.12039 9.2495 7.49219 9.2495 7.49219 10.0552" stroke="#6B6B6B" stroke-miterlimit="10" stroke-linecap="round"/>
<path d="M13.4969 2C13.4969 2.80568 11.8687 2.80568 11.8687 3.60976C11.8687 4.41544 13.4969 4.41544 13.4969 5.22111C13.4969 6.02679 11.8687 6.02679 11.8687 6.83247C11.8687 7.63815 13.4969 7.63815 13.4969 8.44382C13.4969 9.2495 11.8687 9.2495 11.8687 10.0552" stroke="#6B6B6B" stroke-miterlimit="10" stroke-linecap="round"/>
<rect x="2.5" y="12.1055" width="11.8627" height="1.8816" rx="0.9408" stroke="#6B6B6B"/>
</svg>
