<svg xmlns="http://www.w3.org/2000/svg" width="18" height="18" viewBox="0 0 18 18"><line x1="0.5" y1="3.5" x2="5.5" y2="3.5" style="fill:none;stroke:#949494;stroke-linecap:square;stroke-linejoin:round"/><line x1="11.5" y1="3.5" x2="16.5" y2="3.5" style="fill:none;stroke:#949494;stroke-linecap:square;stroke-linejoin:round"/><rect x="5.5" y="0.5" width="6" height="7" rx="1" style="fill:none;stroke:#949494;stroke-linecap:round;stroke-linejoin:round"/><circle cx="8.5" cy="4.5" r="1" style="fill:none;stroke:#949494;stroke-linecap:round;stroke-linejoin:round"/><polyline points="7.5 7.5 8.5 8.5 8.5 8.5 9.5 7.5" style="fill:none;stroke:#949494;stroke-linecap:round;stroke-linejoin:round"/><polyline points="10.5 12.5 8.5 10.5 6.5 12.5" style="fill:none;stroke:#009688;stroke-linecap:round;stroke-linejoin:round"/><line x1="8.5" y1="10.5" x2="8.5" y2="15.5" style="fill:none;stroke:#009688;stroke-linecap:round;stroke-linejoin:round"/><circle cx="8.5" cy="15.5" r="1" style="fill:none;stroke:#009688;stroke-linecap:round;stroke-linejoin:round"/><polyline points="4.5 10.5 2.5 8.5 0.5 10.5" style="fill:none;stroke:#009688;stroke-linecap:round;stroke-linejoin:round"/><line x1="2.5" y1="8.5" x2="2.5" y2="15.5" style="fill:none;stroke:#009688;stroke-linecap:round;stroke-linejoin:round"/><circle cx="2.5" cy="15.5" r="1" style="fill:none;stroke:#009688;stroke-linecap:round;stroke-linejoin:round"/><polyline points="16.5 10.5 14.5 8.5 12.5 10.5" style="fill:none;stroke:#009688;stroke-linecap:round;stroke-linejoin:round"/><line x1="14.5" y1="8.5" x2="14.5" y2="15.5" style="fill:none;stroke:#009688;stroke-linecap:round;stroke-linejoin:round"/><circle cx="14.5" cy="15.5" r="1" style="fill:none;stroke:#009688;stroke-linecap:round;stroke-linejoin:round"/></svg>