<svg xmlns="http://www.w3.org/2000/svg" width="18" height="18" viewBox="0 0 18 18"><rect x="6.5" y="6.5" width="4" height="4" rx="1" style="fill:none;stroke:#949494;stroke-linecap:round;stroke-linejoin:round"/><path d="M2.5,5.5v-2a1,1,0,0,1,1-1h2" style="fill:none;stroke:#009688;stroke-linecap:round;stroke-linejoin:round"/><path d="M4.5,6.5v-1a1,1,0,0,1,1-1h2" style="fill:none;stroke:#009688;stroke-linecap:round;stroke-linejoin:round"/><path d="M.5,3.5v-2a1,1,0,0,1,1-1h2" style="fill:none;stroke:#009688;stroke-linecap:round;stroke-linejoin:round"/><path d="M16.5,13.5v2a1,1,0,0,1-1,1h-2" style="fill:none;stroke:#009688;stroke-linecap:round;stroke-linejoin:round"/><path d="M14.5,11.5v2a1,1,0,0,1-1,1h-2" style="fill:none;stroke:#009688;stroke-linecap:round;stroke-linejoin:round"/><path d="M12.5,10.5v1a1,1,0,0,1-1,1h-2" style="fill:none;stroke:#009688;stroke-linecap:round;stroke-linejoin:round"/><line x1="6.5" y1="8.5" x2="0.5" y2="8.5" style="fill:none;stroke:#949494;stroke-linecap:square;stroke-linejoin:round"/><line x1="10.5" y1="8.5" x2="16.5" y2="8.5" style="fill:none;stroke:#949494;stroke-linecap:square;stroke-linejoin:round"/><path d="M.5,12.5v2a2,2,0,0,0,2,2h7" style="fill:none;stroke:#949494;stroke-linecap:round;stroke-linejoin:round"/><path d="M16.5,4.5v-2a2,2,0,0,0-2-2h-7" style="fill:none;stroke:#949494;stroke-linecap:round;stroke-linejoin:round"/></svg>