<svg width="14" height="14" viewBox="0 0 14 14" fill="none" xmlns="http://www.w3.org/2000/svg">
<g clip-path="url(#clip0_8076_36037)">
<path d="M2.24412 13.1096C2.04241 13.298 1.72616 13.2873 1.53763 13.0857C1.34902 12.884 1.35963 12.5676 1.56133 12.379L1.90281 12.7442C1.56334 12.3811 1.56123 12.3791 1.56133 12.379L1.56236 12.3781L1.56362 12.3769L1.56687 12.3739L1.5762 12.3654C1.58368 12.3587 1.59365 12.3499 1.60601 12.3393C1.6307 12.3182 1.66509 12.2897 1.70826 12.2563C1.79421 12.19 1.91709 12.1028 2.06947 12.0155C2.36843 11.8444 2.81313 11.6547 3.33192 11.6547C4.00299 11.6547 4.42661 11.9579 4.72845 12.1872C5.04844 12.4304 5.16459 12.5159 5.35099 12.5159C5.54958 12.5159 5.69369 12.4177 6.04501 12.1743C6.36914 11.9498 6.81791 11.6547 7.48421 11.6547C8.12764 11.6547 8.59883 11.9324 8.95519 12.1423L8.97576 12.1545C9.35264 12.3764 9.60463 12.5159 9.94235 12.5159C10.294 12.5159 10.4829 12.4094 10.7618 12.2489L10.7635 12.248C11.0685 12.0724 11.4573 11.8487 12.0975 11.8487C12.3736 11.8487 12.5975 12.0725 12.5975 12.3487C12.5975 12.6248 12.3736 12.8487 12.0975 12.8487C11.7315 12.8487 11.535 12.9577 11.2605 13.1157L11.2472 13.1233C10.9483 13.2954 10.5653 13.5159 9.94235 13.5159C9.31561 13.5159 8.85135 13.2421 8.50061 13.0352L8.46836 13.0162C8.09583 12.7968 7.83562 12.6547 7.48421 12.6547C7.14323 12.6547 6.91191 12.7903 6.6145 12.9963C6.5919 13.012 6.56826 13.0287 6.54358 13.0461C6.27314 13.2368 5.87739 13.5159 5.35099 13.5159C4.81173 13.5159 4.43507 13.2244 4.18612 13.0317C4.16425 13.0147 4.14336 12.9986 4.12344 12.9834C3.85859 12.7822 3.65919 12.6547 3.33192 12.6547C3.05203 12.6547 2.78219 12.7598 2.56628 12.8834C2.46122 12.9435 2.37658 13.0037 2.31937 13.0479C2.29096 13.0698 2.26986 13.0874 2.25695 13.0984L2.24412 13.1096Z" fill="#262E30"/>
<path d="M6.8125 1.85522C7.08864 1.85522 7.3125 2.07908 7.3125 2.35522L7.3125 7.0257C7.68692 7.21031 7.94451 7.59584 7.94451 8.04153C7.94451 8.66667 7.43773 9.17345 6.81259 9.17345C6.18744 9.17345 5.68066 8.66667 5.68066 8.04153C5.68066 7.59591 5.93817 7.21043 6.3125 7.02579L6.3125 2.35522C6.3125 2.07908 6.53636 1.85522 6.8125 1.85522Z" fill="#262E30"/>
<path fill-rule="evenodd" clip-rule="evenodd" d="M4.84158 1.94196C4.84158 0.860716 5.7181 -0.0158081 6.79934 -0.0158081C7.88059 -0.0158082 8.75711 0.860714 8.75711 1.94196L8.75711 5.50491C9.53902 6.09429 10.0462 7.03149 10.0462 8.0885C10.0462 9.87433 8.59848 11.322 6.81265 11.322C5.02681 11.322 3.5791 9.87433 3.5791 8.0885C3.5791 7.04351 4.07485 6.1156 4.84158 5.52517V1.94196ZM5.84158 6.07652L5.84158 1.94196C5.84158 1.413 6.27038 0.984192 6.79934 0.984192C7.3283 0.984192 7.75711 1.413 7.75711 1.94196L7.75711 6.06387C8.51859 6.4197 9.04619 7.19249 9.04619 8.0885C9.04619 9.32205 8.0462 10.322 6.81265 10.322C5.57909 10.322 4.5791 9.32205 4.5791 8.0885C4.5791 7.20296 5.09444 6.43779 5.84158 6.07652Z" fill="#262E30"/>
<path d="M9.53906 1.85522C9.53906 1.57908 9.76292 1.35522 10.0391 1.35522H10.7999C11.076 1.35522 11.2999 1.57908 11.2999 1.85522C11.2999 2.13137 11.076 2.35522 10.7999 2.35522H10.0391C9.76292 2.35522 9.53906 2.13137 9.53906 1.85522Z" fill="#262E30"/>
<path d="M10.0391 3.28052C9.76292 3.28052 9.53906 3.50438 9.53906 3.78052C9.53906 4.05666 9.76292 4.28052 10.0391 4.28052H10.7999C11.076 4.28052 11.2999 4.05666 11.2999 3.78052C11.2999 3.50438 11.076 3.28052 10.7999 3.28052H10.0391Z" fill="#262E30"/>
<path fill-rule="evenodd" clip-rule="evenodd" d="M2.24412 10.8463C2.04241 11.0347 1.72616 11.024 1.53763 10.8224C1.34902 10.6207 1.35963 10.3043 1.56133 10.1157M2.24297 10.8474C2.24292 10.8474 2.24295 10.8474 2.24297 10.8474L2.24412 10.8463L2.24297 10.8474ZM2.24412 10.8463L2.24297 10.8474L2.24412 10.8463Z" fill="#262E30"/>
<path fill-rule="evenodd" clip-rule="evenodd" d="M2.24412 10.8463L2.25695 10.8351C2.26986 10.8241 2.29096 10.8065 2.31937 10.7846C2.37658 10.7404 2.46122 10.6802 2.56628 10.6201C2.78219 10.4965 3.05203 10.3914 3.33192 10.3914C3.60806 10.3914 3.83192 10.1676 3.83192 9.89142C3.83192 9.61528 3.60806 9.39142 3.33192 9.39142C2.81313 9.39142 2.36843 9.58109 2.06947 9.75224C1.91709 9.83947 1.79421 9.92667 1.70826 9.99303C1.66509 10.0264 1.6307 10.0548 1.60601 10.076C1.59365 10.0866 1.58368 10.0954 1.5762 10.1021L1.56687 10.1106L1.56362 10.1136L1.56236 10.1147L1.56133 10.1157M1.90283 10.4809L1.56133 10.1157C1.56123 10.1158 1.56334 10.1178 1.90283 10.4809Z" fill="#262E30"/>
<path d="M9.94235 11.2526C10.5653 11.2526 10.9483 11.0321 11.2472 10.86L11.2605 10.8524C11.535 10.6944 11.7315 10.5854 12.0975 10.5854C12.3736 10.5854 12.5975 10.3615 12.5975 10.0854C12.5975 9.80924 12.3736 9.58538 12.0975 9.58538C11.4573 9.58538 11.0685 9.80911 10.7635 9.98465L10.7618 9.98563C10.4829 10.1461 10.294 10.2526 9.94235 10.2526C9.6662 10.2526 9.44235 10.4765 9.44235 10.7526C9.44235 11.0288 9.6662 11.2526 9.94235 11.2526Z" fill="#262E30"/>
</g>
<defs>
<clipPath id="clip0_8076_36037">
<rect width="14" height="14" fill="white" transform="translate(0 14) rotate(-90)"/>
</clipPath>
</defs>
</svg>
