<svg xmlns="http://www.w3.org/2000/svg" width="18" height="18" viewBox="0 0 18 18"><path d="M10.848,14.8a21.022,21.022,0,0,1-4.08-5.3C4.559,5.674,3.543,2.124,4.5,1.572" style="fill:none;stroke:#949494;stroke-linecap:round;stroke-linejoin:round"/><path d="M1.866,7.382A21,21,0,0,1,8.5,6.5c4.418,0,8,.895,8,2" style="fill:none;stroke:#949494;stroke-linecap:round;stroke-linejoin:round"/><path d="M12.785,3.314A20.98,20.98,0,0,1,10.232,9.5C8.023,13.326,5.457,15.98,4.5,15.428" style="fill:none;stroke:#949494;stroke-linecap:round;stroke-linejoin:round"/><circle cx="2.5" cy="7.5" r="1" style="fill:#009688;stroke:#009688;stroke-linecap:round;stroke-linejoin:round"/><path d="M16.5,8.5c0,1.105-3.582,2-8,2s-8-.895-8-2c0-.414.5-.8,1.366-1.118" style="fill:none;stroke:#009688;stroke-linecap:round;stroke-linejoin:round"/><circle cx="12.366" cy="3.804" r="1" style="fill:#009688;stroke:#009688;stroke-linecap:round;stroke-linejoin:round"/><path d="M4.5,15.428c-.957-.552.059-4.1,2.268-7.928S11.543,1.02,12.5,1.572c.359.207.44.836.285,1.742" style="fill:none;stroke:#009688;stroke-linecap:round;stroke-linejoin:round"/><circle cx="10.634" cy="14.196" r="1" style="fill:#009688;stroke:#009688;stroke-linecap:round;stroke-linejoin:round"/><path d="M4.5,1.572c.957-.552,3.523,2.1,5.732,5.928s3.225,7.376,2.268,7.928c-.359.207-.944-.036-1.652-.624" style="fill:none;stroke:#009688;stroke-linecap:round;stroke-linejoin:round"/></svg>