<svg xmlns="http://www.w3.org/2000/svg" width="18" height="18" viewBox="0 0 18 18"><path d="M.5,7.5l.594.613a1.254,1.254,0,0,0,1.812,0L4.094,6.887a1.254,1.254,0,0,1,1.812,0L6.5,7.5" style="fill:none;stroke:#009688;stroke-linecap:round;stroke-linejoin:round"/><path d="M.5,10.5l.594.613a1.254,1.254,0,0,0,1.812,0L4.094,9.887a1.254,1.254,0,0,1,1.812,0L6.5,10.5" style="fill:none;stroke:#009688;stroke-linecap:round;stroke-linejoin:round"/><path d="M.5,13.5l.594.613a1.254,1.254,0,0,0,1.812,0l1.188-1.226a1.254,1.254,0,0,1,1.812,0L6.5,13.5" style="fill:none;stroke:#009688;stroke-linecap:round;stroke-linejoin:round"/><line x1="8" y1="14.5" x2="17" y2="14.5" style="fill:none;stroke:#949494;stroke-linejoin:round"/><line x1="8" y1="12.5" x2="17" y2="12.5" style="fill:none;stroke:#949494;stroke-linejoin:round"/><line x1="8" y1="10.5" x2="17" y2="10.5" style="fill:none;stroke:#949494;stroke-linejoin:round"/><line x1="8" y1="16.5" x2="17" y2="16.5" style="fill:none;stroke:#949494;stroke-linejoin:round"/><line x1="0.5" y1="3.5" x2="9.5" y2="3.5" style="fill:none;stroke:#949494;stroke-linecap:square;stroke-linejoin:round"/><line x1="15.5" y1="3.5" x2="16.5" y2="3.5" style="fill:none;stroke:#949494;stroke-linecap:square;stroke-linejoin:round"/><rect x="9.5" y="0.5" width="6" height="7" rx="1" style="fill:none;stroke:#949494;stroke-linecap:round;stroke-linejoin:round"/><circle cx="12.5" cy="4.5" r="1" style="fill:none;stroke:#949494;stroke-linecap:round;stroke-linejoin:round"/><polyline points="11.5 7.5 12.5 8.5 12.5 8.5 13.5 7.5" style="fill:none;stroke:#949494;stroke-linecap:round;stroke-linejoin:round"/></svg>