<svg xmlns="http://www.w3.org/2000/svg" viewBox="0 0 18 18"><path d="M3.5,15.58c-.29.59-.64.92-1,.92-1.1,0-2-4.21-2-8s.9-8,2-8c.36,0,.71.33,1,.92" style="fill:none;stroke:#949494;stroke-linecap:round;stroke-linejoin:round"/><path d="M4.5,16.5c-1.1,0-2-4.21-2-8s.9-8,2-8" style="fill:none;stroke:#009688;stroke-linecap:round;stroke-linejoin:round"/><ellipse cx="6.5" cy="8.5" rx="2" ry="8" style="fill:none;stroke:#949494;stroke-linecap:round;stroke-linejoin:round"/><rect x="10.5" y="0.5" width="6" height="3" style="fill:none;stroke:#949494;stroke-linecap:round;stroke-linejoin:round"/><polyline points="8.5 16.5 10.5 16.5 10.5 5.5 12.5 5.5 12.5 16.5 14.5 16.5 14.5 5.5 16.5 5.5 16.5 16.5" style="fill:none;stroke:#009688;stroke-linecap:square;stroke-linejoin:round"/></svg>