<svg xmlns="http://www.w3.org/2000/svg" width="18" height="18" viewBox="0 0 18 18"><path d="M4.5,5.5c-2,1-2,1-4,0" style="fill:none;stroke:#949494;stroke-linecap:round;stroke-linejoin:round"/><path d="M16.5,5.5c-2,1-2,1-4,0" style="fill:none;stroke:#949494;stroke-linecap:round;stroke-linejoin:round"/><path d="M12.5.5v5a11.042,11.042,0,0,1-8,0V.5" style="fill:none;stroke:#949494;stroke-linecap:round;stroke-linejoin:round"/><path d="M1.5.5h14a1,1,0,0,1,1,1v4l-8,8-8-8v-4A1,1,0,0,1,1.5.5Z" style="fill:none;stroke:#949494;stroke-linecap:round;stroke-linejoin:round"/><rect x="15" y="15" width="3" height="1" transform="translate(32 -1) rotate(90)" style="fill:#009688"/><rect x="-1" y="15" width="3" height="1" transform="translate(16 15) rotate(90)" style="fill:#009688"/><rect x="8" y="8" width="1" height="15" transform="translate(24 7) rotate(90)" style="fill:#009688"/></svg>