<svg xmlns="http://www.w3.org/2000/svg" viewBox="0 0 18 18"><line x1="0.5" y1="4.5" x2="3.5" y2="4.5" style="fill:none;stroke:#009688;stroke-linecap:square;stroke-linejoin:round"/><line x1="0.5" y1="6.5" x2="3.5" y2="6.5" style="fill:none;stroke:#009688;stroke-linecap:square;stroke-linejoin:round"/><line x1="0.5" y1="8.5" x2="3.5" y2="8.5" style="fill:none;stroke:#009688;stroke-linecap:square;stroke-linejoin:round"/><line x1="0.5" y1="10.5" x2="3.5" y2="10.5" style="fill:none;stroke:#009688;stroke-linecap:square;stroke-linejoin:round"/><line x1="0.5" y1="12.5" x2="3.5" y2="12.5" style="fill:none;stroke:#009688;stroke-linecap:square;stroke-linejoin:round"/><line x1="13.5" y1="4.5" x2="16.5" y2="4.5" style="fill:none;stroke:#009688;stroke-linecap:square;stroke-linejoin:round"/><line x1="13.5" y1="6.5" x2="16.5" y2="6.5" style="fill:none;stroke:#009688;stroke-linecap:square;stroke-linejoin:round"/><line x1="13.5" y1="8.5" x2="16.5" y2="8.5" style="fill:none;stroke:#009688;stroke-linecap:square;stroke-linejoin:round"/><line x1="13.5" y1="10.5" x2="16.5" y2="10.5" style="fill:none;stroke:#009688;stroke-linecap:square;stroke-linejoin:round"/><line x1="13.5" y1="12.5" x2="16.5" y2="12.5" style="fill:none;stroke:#009688;stroke-linecap:square;stroke-linejoin:round"/><path d="M.5.5h16a0,0,0,0,1,0,0v1a1,1,0,0,1-1,1H1.5a1,1,0,0,1-1-1V.5A0,0,0,0,1,.5.5Z" transform="translate(17 3) rotate(180)" style="fill:none;stroke:#949494;stroke-linecap:round;stroke-linejoin:round"/><path d="M1.5,14.5h14a1,1,0,0,1,1,1v1a0,0,0,0,1,0,0H.5a0,0,0,0,1,0,0v-1A1,1,0,0,1,1.5,14.5Z" transform="translate(17 31) rotate(180)" style="fill:none;stroke:#949494;stroke-linecap:round;stroke-linejoin:round"/></svg>