<?xml version="1.0" encoding="UTF-8"?><svg id="a" xmlns="http://www.w3.org/2000/svg" width="18" height="18" viewBox="0 0 18 18"><line x1="2.5" y1="2.5" x2="6.5" y2="2.5" style="fill:none; stroke:#949494; stroke-linecap:square; stroke-linejoin:round;"/><line x1="2.5" y1="6.5" x2="6.5" y2="6.5" style="fill:none; stroke:#949494; stroke-linecap:square; stroke-linejoin:round;"/><rect x=".5" y=".5" width="8" height="8" rx="1.89" ry="1.89" style="fill:none; stroke:#949494; stroke-linecap:square; stroke-linejoin:round;"/><line x1="4.5" y1="3.5" x2="4.5" y2="2.5" style="fill:none; stroke:#949494; stroke-linecap:square; stroke-linejoin:round;"/><path d="M15.94,5.06c-.75-.75-1.97-.75-2.72,0l-2.04,2.04c-.75.75-.75,1.97,0,2.72s1.97.75,2.72,0l2.04-2.04c.75-.75.75-1.97,0-2.72Z" style="fill:none; stroke:#009688; stroke-linecap:round; stroke-linejoin:round;"/><path d="M9.82,11.18c-.75-.75-1.97-.75-2.72,0l-2.04,2.04c-.75.75-.75,1.97,0,2.72s1.97.75,2.72,0l2.04-2.04c.75-.75.75-1.97,0-2.72Z" style="fill:none; stroke:#009688; stroke-linecap:round; stroke-linejoin:round;"/><line x1="8" y1="13" x2="13" y2="8" style="fill:none; stroke:#009688; stroke-linecap:round; stroke-linejoin:round;"/></svg>