<svg xmlns="http://www.w3.org/2000/svg" viewBox="0 0 18 18"><rect x="0.5" y="0.5" width="16" height="16" rx="1" style="fill:none;stroke:#009688;stroke-linecap:round;stroke-linejoin:round"/><line x1="2.5" y1="14.5" x2="14.5" y2="14.5" style="fill:none;stroke:#949494;stroke-linecap:square;stroke-linejoin:round"/><path d="M12.5,11.5l.4-.4a.85.85,0,0,0,0-1.2l-.8-.8a.85.85,0,0,1,0-1.2l.8-.8a.85.85,0,0,0,0-1.2l-.8-.8a.85.85,0,0,1,0-1.2l.4-.4" style="fill:none;stroke:#009688;stroke-linecap:square;stroke-linejoin:round"/><path d="M8.5,11.5l.4-.4a.85.85,0,0,0,0-1.2l-.8-.8a.85.85,0,0,1,0-1.2l.8-.8a.85.85,0,0,0,0-1.2l-.8-.8a.85.85,0,0,1,0-1.2l.4-.4" style="fill:none;stroke:#009688;stroke-linecap:square;stroke-linejoin:round"/><path d="M4.5,11.5l.4-.4a.85.85,0,0,0,0-1.2l-.8-.8a.85.85,0,0,1,0-1.2l.8-.8a.85.85,0,0,0,0-1.2l-.8-.8a.85.85,0,0,1,0-1.2l.4-.4" style="fill:none;stroke:#009688;stroke-linecap:square;stroke-linejoin:round"/></svg>