<svg width="14" height="14" viewBox="0 0 14 14" fill="none" xmlns="http://www.w3.org/2000/svg">
<path fill-rule="evenodd" clip-rule="evenodd" d="M4.2915 10.3175C4.22371 10.3175 4.15906 10.304 4.10011 10.2795C3.97789 10.2288 3.88013 10.1311 3.82944 10.0089C3.805 9.9499 3.7915 9.88525 3.7915 9.81746V1.72507C3.7915 1.65727 3.805 1.59263 3.82944 1.53367C3.88013 1.41145 3.97789 1.31369 4.10011 1.26301C4.15906 1.23856 4.22371 1.22507 4.2915 1.22507H12.3839C12.4517 1.22507 12.5163 1.23856 12.5753 1.26301C12.6975 1.31369 12.7953 1.41145 12.846 1.53367C12.8704 1.59263 12.8839 1.65727 12.8839 1.72507V9.81746C12.8839 9.88525 12.8704 9.9499 12.846 10.0089C12.7953 10.1311 12.6975 10.2288 12.5753 10.2795C12.5163 10.304 12.4517 10.3175 12.3839 10.3175H4.2915ZM11.8839 9.31746V2.22507H4.7915V9.31746H11.8839Z" fill="#262E30"/>
<path d="M1.11621 4.18256C1.11621 3.90641 1.34007 3.68256 1.61621 3.68256H9.7086C9.98474 3.68256 10.2086 3.90641 10.2086 4.18256V12.2749C10.2086 12.5511 9.98474 12.7749 9.7086 12.7749H1.61621C1.34007 12.7749 1.11621 12.5511 1.11621 12.2749V4.18256Z" fill="#ACACAC"/>
<path fill-rule="evenodd" clip-rule="evenodd" d="M2.11621 4.68256V11.7749H9.2086V4.68256H2.11621ZM1.61621 3.68256C1.34007 3.68256 1.11621 3.90641 1.11621 4.18256V12.2749C1.11621 12.5511 1.34007 12.7749 1.61621 12.7749H9.7086C9.98474 12.7749 10.2086 12.5511 10.2086 12.2749V4.18256C10.2086 3.90641 9.98474 3.68256 9.7086 3.68256H1.61621Z" fill="#262E30"/>
</svg>
