<svg width="14" height="14" viewBox="0 0 14 14" fill="none" xmlns="http://www.w3.org/2000/svg">
<path fill-rule="evenodd" clip-rule="evenodd" d="M2.09492 1.91444V12.0856H11.9055V1.91444H2.09492ZM1.79492 1.11444C1.51878 1.11444 1.29492 1.3383 1.29492 1.61444V12.3856C1.29492 12.6618 1.51878 12.8856 1.79492 12.8856H12.2055C12.4816 12.8856 12.7055 12.6618 12.7055 12.3856V1.61444C12.7055 1.3383 12.4816 1.11444 12.2055 1.11444H1.79492Z" fill="#262E30"/>
<path d="M3.38525 3.77087C3.38525 3.49473 3.60911 3.27087 3.88525 3.27087H10.1151C10.3913 3.27087 10.6151 3.49473 10.6151 3.77087V10.2293C10.6151 10.5054 10.3913 10.7293 10.1151 10.7293H3.88525C3.60911 10.7293 3.38525 10.5054 3.38525 10.2293V3.77087Z" fill="#ACACAC"/>
<path fill-rule="evenodd" clip-rule="evenodd" d="M4.18525 4.07087V9.92926H9.81514V4.07087H4.18525ZM3.88525 3.27087C3.60911 3.27087 3.38525 3.49473 3.38525 3.77087V10.2293C3.38525 10.5054 3.60911 10.7293 3.88525 10.7293H10.1151C10.3913 10.7293 10.6151 10.5054 10.6151 10.2293V3.77087C10.6151 3.49473 10.3913 3.27087 10.1151 3.27087H3.88525Z" fill="#262E30"/>
<path fill-rule="evenodd" clip-rule="evenodd" d="M6.35354 3.40534C6.54881 3.6006 6.54882 3.91718 6.35357 4.11245L4.29888 6.16732C4.10363 6.36259 3.78705 6.3626 3.59177 6.16735C3.3965 5.9721 3.39649 5.65551 3.59174 5.46024L5.64643 3.40537C5.84168 3.2101 6.15827 3.21009 6.35354 3.40534ZM9.70137 3.93647C9.89663 4.13173 9.89663 4.44832 9.70137 4.64358L4.29892 10.046C4.10366 10.2413 3.78708 10.2413 3.59181 10.046C3.39655 9.85076 3.39655 9.53418 3.59181 9.33892L8.99426 3.93647C9.18952 3.74121 9.5061 3.74121 9.70137 3.93647Z" fill="#262E30"/>
<path fill-rule="evenodd" clip-rule="evenodd" d="M10.1626 7.44558C10.3579 7.64084 10.3579 7.95742 10.1626 8.15268L7.78471 10.5307C7.58945 10.7259 7.27287 10.7259 7.0776 10.5307C6.88234 10.3354 6.88233 10.0188 7.07759 9.82358L9.45552 7.44558C9.65078 7.25032 9.96737 7.25032 10.1626 7.44558Z" fill="#262E30"/>
</svg>
