<svg width="14" height="14" viewBox="0 0 14 14" fill="none" xmlns="http://www.w3.org/2000/svg">
<g clip-path="url(#clip0_8074_35942)">
<path fill-rule="evenodd" clip-rule="evenodd" d="M5.04464 1.3C5.04464 0.858172 5.40281 0.5 5.84464 0.5H8.15561C8.59743 0.5 8.95561 0.858172 8.95561 1.3V2.40866C9.3487 2.57209 9.71602 2.78263 10.0508 3.0337L11.0407 2.47031C11.4213 2.25369 11.9053 2.38337 12.1267 2.76125L13.2781 4.72699C13.5033 5.11147 13.371 5.60585 12.9838 5.82643L12.0085 6.38213C12.0342 6.58488 12.0471 6.79128 12.0471 7C12.0471 7.20872 12.0342 7.41512 12.0085 7.61787L12.9838 8.17357C13.371 8.39415 13.5033 8.88853 13.2781 9.27301L12.1267 11.2388C11.9053 11.6166 11.4213 11.7463 11.0407 11.5297L10.0508 10.9663C9.71614 11.2174 9.34841 11.4285 8.95561 11.5917V12.7C8.95561 13.1418 8.59743 13.5 8.15561 13.5H5.84464C5.40281 13.5 5.04464 13.1418 5.04464 12.7V11.5913C4.65155 11.4279 4.28423 11.2174 3.94949 10.9663L2.95959 11.5297C2.57898 11.7463 2.09493 11.6166 1.87359 11.2388L0.722147 9.27301C0.49694 8.88853 0.629259 8.39415 1.01641 8.17357L1.99174 7.61787C1.96608 7.41512 1.9531 7.20872 1.9531 7C1.9531 6.79 1.9669 6.58414 1.99251 6.38257L1.01641 5.82643C0.629258 5.60585 0.49694 5.11147 0.722148 4.72699L1.87359 2.76125C2.09493 2.38336 2.57898 2.25369 2.95959 2.47031L3.94946 3.03369C4.28411 2.78259 4.65184 2.57146 5.04464 2.40832V1.3ZM6.04464 1.5V2.53858C6.04464 2.88805 5.8214 3.17854 5.5212 3.29455C5.14018 3.4418 4.78643 3.6452 4.47133 3.89381C4.22224 4.09033 3.86513 4.1363 3.56616 3.96615L2.63662 3.43711L1.68732 5.05777L2.60123 5.57847C2.90471 5.75138 3.04711 6.08934 2.99853 6.40838C2.96898 6.60246 2.9531 6.79958 2.9531 7C2.9531 7.2013 2.96817 7.39853 2.99745 7.58985C3.04617 7.90814 2.90548 8.24818 2.59988 8.4223L1.68732 8.94224L2.63662 10.5629L3.56616 10.0339C3.86514 9.86369 4.22223 9.90969 4.4713 10.1062C4.78613 10.3545 5.13936 10.5573 5.52196 10.7055C5.82206 10.8217 6.04464 11.1121 6.04464 11.461V12.5H7.95561V11.4614C7.95561 11.112 8.17885 10.8215 8.47905 10.7054C8.86007 10.5582 9.21382 10.3548 9.52892 10.1062C9.778 9.90967 10.1351 9.8637 10.4341 10.0339L11.3636 10.5629L12.3129 8.94223L11.4004 8.4223C11.0948 8.24819 10.9541 7.90814 11.0028 7.58985C11.0321 7.39853 11.0471 7.2013 11.0471 7C11.0471 6.7987 11.0321 6.60147 11.0028 6.41015C10.9541 6.09186 11.0948 5.75182 11.4004 5.5777L12.3129 5.05777L11.3636 3.43711L10.4341 3.96615C10.1351 4.13631 9.77802 4.09031 9.52895 3.89385C9.21412 3.6455 8.86089 3.44269 8.47829 3.29454C8.17819 3.17834 7.95561 2.88785 7.95561 2.53897V1.5H6.04464Z" fill="#262E30"/>
<path d="M7.394 7.646C7.26145 7.646 7.154 7.53855 7.154 7.406C7.154 7.27345 7.26145 7.166 7.394 7.166H8.318C8.48369 7.166 8.618 7.30031 8.618 7.466V8.78357C8.618 8.84379 8.6008 8.90338 8.56266 8.94999C8.43558 9.10531 8.25602 9.23665 8.024 9.344C7.756 9.468 7.454 9.53 7.118 9.53C6.714 9.53 6.35 9.436 6.026 9.248C5.706 9.056 5.454 8.788 5.27 8.444C5.09 8.096 5 7.7 5 7.256C5 6.816 5.09 6.426 5.27 6.086C5.454 5.742 5.704 5.476 6.02 5.288C6.34 5.096 6.694 5 7.082 5C7.426 5 7.732 5.074 8 5.222C8.19812 5.3298 8.35698 5.46838 8.47659 5.63772C8.55306 5.74601 8.50623 5.8912 8.39172 5.958C8.26629 6.03116 8.10698 5.98236 8.00808 5.87604C7.93053 5.79267 7.83783 5.72066 7.73 5.66C7.538 5.548 7.314 5.492 7.058 5.492C6.766 5.492 6.506 5.566 6.278 5.714C6.054 5.862 5.878 6.07 5.75 6.338C5.626 6.602 5.564 6.908 5.564 7.256C5.564 7.608 5.63 7.92 5.762 8.192C5.894 8.46 6.08 8.668 6.32 8.816C6.56 8.964 6.838 9.038 7.154 9.038C7.50915 9.038 7.79005 8.95314 7.99668 8.78341C8.05596 8.73472 8.084 8.65925 8.084 8.58254V7.946C8.084 7.78031 7.94969 7.646 7.784 7.646H7.394Z" fill="#ACACAC"/>
<path fill-rule="evenodd" clip-rule="evenodd" d="M6.55194 6.13229C6.69244 6.04154 6.85595 5.992 7.058 5.992C7.2391 5.992 7.3735 6.03089 7.47806 6.09189L7.47803 6.09194L7.48487 6.09579C7.55159 6.13332 7.60251 6.17415 7.64199 6.21659C7.84522 6.43507 8.2539 6.61724 8.64366 6.38989C8.95733 6.20691 9.16481 5.74548 8.885 5.34928C8.71772 5.11242 8.49913 4.92461 8.24035 4.78355C7.88991 4.59035 7.49937 4.5 7.082 4.5C6.60746 4.5 6.16422 4.61857 5.76355 4.85877C5.36486 5.09617 5.05317 5.43127 4.82911 5.85017L4.8291 5.85017L4.82811 5.85206C4.60478 6.2739 4.5 6.74627 4.5 7.256C4.5 7.76919 4.60453 8.24574 4.82589 8.67371L4.82585 8.67373L4.82911 8.67983C5.05373 9.09977 5.36762 9.43607 5.76875 9.67675L5.76872 9.67679L5.77506 9.68047C6.18125 9.91616 6.63301 10.03 7.118 10.03C7.51651 10.03 7.89164 9.95617 8.23396 9.79778C8.51639 9.66711 8.76341 9.49421 8.94963 9.26662C9.07469 9.11378 9.118 8.93532 9.118 8.78357V7.466C9.118 7.02417 8.75983 6.666 8.318 6.666H7.394C6.98531 6.666 6.654 6.99731 6.654 7.406C6.654 7.81469 6.98531 8.146 7.394 8.146H7.584V8.45772C7.4889 8.50438 7.3525 8.538 7.154 8.538C6.91919 8.538 6.7343 8.48406 6.58244 8.39041C6.42769 8.29498 6.30416 8.16059 6.2112 7.9724C6.11762 7.77901 6.064 7.54411 6.064 7.256C6.064 6.96822 6.11499 6.73765 6.20188 6.55202C6.29456 6.35855 6.41264 6.22477 6.55194 6.13229Z" fill="#262E30"/>
</g>
<defs>
<clipPath id="clip0_8074_35942">
<rect width="14" height="14" fill="white" transform="translate(0 14) rotate(-90)"/>
</clipPath>
</defs>
</svg>
