<svg xmlns="http://www.w3.org/2000/svg" width="18" height="18" viewBox="0 0 18 18"><path d="M11.055,4.551a1.612,1.612,0,0,1,.584,2.013,1.529,1.529,0,0,1-.3.436h1.2l.014-.025a2.607,2.607,0,0,0-.946-3.258.5.5,0,1,0-.55.834Z" style="fill:#009688"/><path d="M7,12.121a1.66,1.66,0,0,1-.76-.569c-.547-.759-.317-1.768.614-2.7l0,0A1.381,1.381,0,0,0,7,8.887V8A1,1,0,0,1,8,7h.887a1.381,1.381,0,0,0-.037-.144l0,0c1.54-1.54,1.379-3.071.716-3.991a2.6,2.6,0,0,0-3.294-.81.5.5,0,0,0,.448.894,1.613,1.613,0,0,1,2.036.5c.547.759.317,1.768-.614,2.7l0,0a1.5,1.5,0,0,0-.526-.138V6C7.053,3.9,5.645,3.27,4.52,3.389A2.606,2.606,0,0,0,2.171,5.836a.5.5,0,0,0,.469.529A.479.479,0,0,0,3.169,5.9,1.613,1.613,0,0,1,4.62,4.383c.922-.08,1.69.607,2.03,1.881h0a1.507,1.507,0,0,0-.386.386h0c-2.1-.559-3.349.34-3.815,1.375A2.607,2.607,0,0,0,3.4,11.283a.487.487,0,0,0,.275.083.5.5,0,0,0,.275-.917,1.612,1.612,0,0,1-.584-2.013C3.745,7.582,4.734,7.276,6,7.617h.008a1.5,1.5,0,0,0,.138.526l0,0c-1.54,1.54-1.379,3.071-.716,3.991A2.6,2.6,0,0,0,7,13.162Z" style="fill:#009688"/><path d="M7,13.975A6.5,6.5,0,1,1,13.975,7H15V1.5A1.5,1.5,0,0,0,13.5,0H1.5A1.5,1.5,0,0,0,0,1.5v12A1.5,1.5,0,0,0,1.5,15H7ZM13.5,1a.5.5,0,0,1,.5.5V3.774A7.548,7.548,0,0,0,11.226,1ZM1,1.5A.5.5,0,0,1,1.5,1H3.774A7.548,7.548,0,0,0,1,3.774Zm0,12V11.226A7.548,7.548,0,0,0,3.774,14H1.5A.5.5,0,0,1,1,13.5Z" style="fill:#949494"/><line x1="10.5" y1="8.5" x2="10.5" y2="12.5" style="fill:none;stroke:#009688;stroke-linecap:round;stroke-linejoin:round"/><line x1="14.5" y1="8.5" x2="14.5" y2="12.5" style="fill:none;stroke:#009688;stroke-linecap:round;stroke-linejoin:round"/><line x1="8.5" y1="12.5" x2="16.5" y2="12.5" style="fill:none;stroke:#009688;stroke-linecap:round;stroke-linejoin:round"/><path d="M9.5,8.5h6a1,1,0,0,1,1,1v3l-4,4-4-4v-3A1,1,0,0,1,9.5,8.5Z" style="fill:none;stroke:#009688;stroke-linecap:round;stroke-linejoin:round"/></svg>