<?xml version="1.0" encoding="UTF-8"?><svg id="a" xmlns="http://www.w3.org/2000/svg" width="24" height="24" viewBox="0 0 24 24"><path d="M3.5,1.5h17c1.1,0,2,.9,2,2v17c0,1.1-.9,2-2,2H3.5c-1.1,0-2-.9-2-2V3.5c0-1.1.9-2,2-2Z" style="fill:none; stroke:#949494; stroke-linecap:round; stroke-linejoin:round;"/><rect x="2.5" y="2.5" width="19" height="19" rx="1" ry="1" style="fill:none; opacity:.75; stroke:#949494; stroke-linecap:round; stroke-miterlimit:10;"/><path d="M4.5,12.5L12.5,4.5M11.5,19.5l8-8M4.5,5.5l1-1M18.5,19.5l1-1M19.5,4.5l-15,15" style="fill:none; opacity:.75; stroke:#949494; stroke-linecap:round; stroke-miterlimit:10;"/><path d="M12.5,19.5L4.5,11.5M19.5,12.5l-8-8M5.5,19.5l-1-1M19.5,5.5l-1-1M4.5,4.5l15,15" style="fill:none; stroke:#009688; stroke-linecap:round; stroke-linejoin:round;"/><rect x="4.5" y="4.5" width="15" height="15" style="fill:none; stroke:#009688; stroke-linecap:round; stroke-linejoin:round;"/><polyline points="3.5 4.5 5.5 2.5 8.5 2.5 6.5 4.5" style="fill:none; stroke:#009688; stroke-linecap:round; stroke-linejoin:round;"/><polyline points="9.5 4.5 11.5 2.5 14.5 2.5 12.5 4.5" style="fill:none; stroke:#009688; stroke-linecap:round; stroke-linejoin:round;"/><polyline points="15.5 4.5 17.5 2.5 20.5 2.5 18.5 4.5" style="fill:none; stroke:#009688; stroke-linecap:round; stroke-linejoin:round;"/><polyline points="20.5 19.5 18.5 21.5 15.5 21.5 17.5 19.5" style="fill:none; stroke:#009688; stroke-linecap:round; stroke-linejoin:round;"/><polyline points="14.5 19.5 12.5 21.5 9.5 21.5 11.5 19.5" style="fill:none; stroke:#009688; stroke-linecap:round; stroke-linejoin:round;"/><polyline points="8.5 19.5 6.5 21.5 3.5 21.5 5.5 19.5" style="fill:none; stroke:#009688; stroke-linecap:round; stroke-linejoin:round;"/><polyline points="19.5 3.5 21.5 5.5 21.5 8.5 19.5 6.5" style="fill:none; stroke:#009688; stroke-linecap:round; stroke-linejoin:round;"/><polyline points="19.5 9.5 21.5 11.5 21.5 14.5 19.5 12.5" style="fill:none; stroke:#009688; stroke-linecap:round; stroke-linejoin:round;"/><polyline points="19.5 15.5 21.5 17.5 21.5 20.5 19.5 18.5" style="fill:none; stroke:#009688; stroke-linecap:round; stroke-linejoin:round;"/><polyline points="4.5 20.5 2.5 18.5 2.5 15.5 4.5 17.5" style="fill:none; stroke:#009688; stroke-linecap:round; stroke-linejoin:round;"/><polyline points="4.5 14.5 2.5 12.5 2.5 9.5 4.5 11.5" style="fill:none; stroke:#009688; stroke-linecap:round; stroke-linejoin:round;"/><polyline points="4.5 8.5 2.5 6.5 2.5 3.5 4.5 5.5" style="fill:none; stroke:#009688; stroke-linecap:round; stroke-linejoin:round;"/></svg>