<svg xmlns="http://www.w3.org/2000/svg" viewBox="0 0 24 24"><g style="opacity:0.75"><line x1="18.5" y1="14.17" x2="21.5" y2="12.5" style="fill:none;stroke:#949494;stroke-linecap:round;stroke-linejoin:round"/><line x1="12.5" y1="17.5" x2="12.5" y2="10.83" style="fill:none;stroke:#949494;stroke-linecap:round;stroke-linejoin:round"/><line x1="6.5" y1="7.5" x2="12.5" y2="10.83" style="fill:none;stroke:#949494;stroke-linecap:round;stroke-linejoin:round"/><line x1="18.5" y1="7.5" x2="22.5" y2="9.72" style="fill:none;stroke:#949494;stroke-linecap:round;stroke-linejoin:round"/><line x1="18.5" y1="7.5" x2="12.5" y2="10.83" style="fill:none;stroke:#949494;stroke-linecap:round;stroke-linejoin:round"/><line x1="18.5" y1="22.5" x2="18.5" y2="20.83" style="fill:none;stroke:#949494;stroke-linecap:round;stroke-linejoin:round"/><line x1="6.5" y1="7.5" x2="6.5" y2="1.5" style="fill:none;stroke:#949494;stroke-linecap:round;stroke-linejoin:round"/><line x1="18.5" y1="7.5" x2="18.5" y2="1.5" style="fill:none;stroke:#949494;stroke-linecap:round;stroke-linejoin:round"/><line x1="12.5" y1="17.5" x2="18.5" y2="20.83" style="fill:none;stroke:#949494;stroke-linecap:round;stroke-linejoin:round"/><line x1="22.5" y1="18.61" x2="18.5" y2="20.83" style="fill:none;stroke:#949494;stroke-linecap:round;stroke-linejoin:round"/><line x1="18.5" y1="14.17" x2="18.5" y2="17.5" style="fill:none;stroke:#949494;stroke-linecap:round;stroke-linejoin:round"/><line x1="15.5" y1="12.5" x2="18.5" y2="14.17" style="fill:none;stroke:#949494;stroke-linecap:round;stroke-linejoin:round"/><line x1="12.5" y1="4.17" x2="15.5" y2="2.5" style="fill:none;stroke:#949494;stroke-linecap:round;stroke-linejoin:round"/><line x1="12.5" y1="4.17" x2="12.5" y2="7.5" style="fill:none;stroke:#949494;stroke-linecap:round;stroke-linejoin:round"/><line x1="9.5" y1="2.5" x2="12.5" y2="4.17" style="fill:none;stroke:#949494;stroke-linecap:round;stroke-linejoin:round"/></g><line x1="14" y1="20" x2="11.5" y2="22.5" style="fill:none;stroke:#009688;stroke-linecap:round;stroke-linejoin:round"/><line x1="12.13" y1="16.87" x2="6.5" y2="22.5" style="fill:none;stroke:#009688;stroke-linecap:round;stroke-linejoin:round"/><line x1="10.25" y1="13.75" x2="2.09" y2="21.91" style="fill:none;stroke:#009688;stroke-linecap:round;stroke-linejoin:round"/><line x1="8.38" y1="10.62" x2="1.5" y2="17.5" style="fill:none;stroke:#009688;stroke-linecap:round;stroke-linejoin:round"/><line x1="6.5" y1="7.5" x2="1.5" y2="12.5" style="fill:none;stroke:#009688;stroke-linecap:round;stroke-linejoin:round"/><line x1="4.63" y1="4.37" x2="1.5" y2="7.5" style="fill:none;stroke:#009688;stroke-linecap:round;stroke-linejoin:round"/><line x1="6.5" y1="7.5" x2="22.5" y2="7.5" style="fill:none;stroke:#009688;stroke-linecap:round;stroke-linejoin:round"/><line x1="12.5" y1="17.5" x2="22.5" y2="17.5" style="fill:none;stroke:#009688;stroke-linecap:round;stroke-linejoin:round"/><line x1="15.5" y1="22.5" x2="2.95" y2="1.58" style="fill:none;stroke:#009688;stroke-linecap:round;stroke-linejoin:round"/><line x1="10.1" y1="1.5" x2="6.5" y2="7.5" style="fill:none;stroke:#009688;stroke-linecap:round;stroke-linejoin:round"/><line x1="14.9" y1="1.5" x2="22.5" y2="14.17" style="fill:none;stroke:#009688;stroke-linecap:round;stroke-linejoin:round"/><line x1="12.5" y1="17.5" x2="21.81" y2="1.99" style="fill:none;stroke:#009688;stroke-linecap:round;stroke-linejoin:round"/><rect x="1.5" y="1.5" width="21" height="21" rx="2" style="fill:none;stroke:#949494;stroke-linecap:round;stroke-linejoin:round"/></svg>