<svg xmlns="http://www.w3.org/2000/svg" width="18" height="18" viewBox="0 0 18 18"><line x1="0.5" y1="16.5" x2="16.5" y2="16.5" style="fill:none;stroke:#949494;stroke-linecap:square;stroke-linejoin:round"/><rect x="12.5" y="0.5" width="4" height="14" rx="1" style="fill:none;stroke:#949494;stroke-linecap:round;stroke-linejoin:round"/><line x1="0.5" y1="2.5" x2="1.5" y2="3.5" style="fill:none;stroke:#009688;stroke-linecap:round;stroke-linejoin:round"/><line x1="10.5" y1="2.5" x2="9.5" y2="3.5" style="fill:none;stroke:#009688;stroke-linecap:round;stroke-linejoin:round"/><line x1="9.5" y1="3.5" x2="10.5" y2="4.5" style="fill:none;stroke:#009688;stroke-linecap:round;stroke-linejoin:round"/><line x1="1.5" y1="3.5" x2="0.5" y2="4.5" style="fill:none;stroke:#009688;stroke-linecap:round;stroke-linejoin:round"/><line x1="1.5" y1="14.5" x2="8.682" y2="10.409" style="fill:none;stroke:#009688;stroke-linecap:round;stroke-linejoin:round"/><line x1="2.167" y1="11.167" x2="8.136" y2="7.682" style="fill:none;stroke:#009688;stroke-linecap:round;stroke-linejoin:round"/><line x1="2.833" y1="7.833" x2="7.591" y2="4.955" style="fill:none;stroke:#009688;stroke-linecap:round;stroke-linejoin:round"/><polyline points="6.5 4.5 7.5 1.5 5.5 0.5 5.5 0.5 3.5 1.5 4.5 4.5" style="fill:none;stroke:#009688;stroke-linecap:round;stroke-linejoin:round"/><polyline points="1.5 14.5 3.5 4.5 7.5 4.5 9.5 14.5 5.5 14.5" style="fill:none;stroke:#009688;stroke-linecap:round;stroke-linejoin:round"/><line x1="3.5" y1="1.5" x2="7.5" y2="1.5" style="fill:none;stroke:#009688;stroke-linecap:round;stroke-linejoin:round"/></svg>