<svg xmlns="http://www.w3.org/2000/svg" viewBox="0 0 18 18"><line x1="6.5" y1="2.5" x2="14.5" y2="2.5" style="fill:none;stroke:#009688;stroke-linecap:square;stroke-linejoin:round"/><line x1="6.5" y1="4.5" x2="10.5" y2="4.5" style="fill:none;stroke:#009688;stroke-linecap:square;stroke-linejoin:round"/><rect x="0.5" y="0.5" width="16" height="16" rx="1" style="fill:none;stroke:#949494;stroke-linecap:round;stroke-linejoin:round"/><path d="M4,3V4H3V3H4M4,2H3A1,1,0,0,0,2,3V4A1,1,0,0,0,3,5H4A1,1,0,0,0,5,4V3A1,1,0,0,0,4,2Z" style="fill:#009688"/><line x1="6.5" y1="7.5" x2="14.5" y2="7.5" style="fill:none;stroke:#009688;stroke-linecap:square;stroke-linejoin:round"/><line x1="6.5" y1="9.5" x2="10.5" y2="9.5" style="fill:none;stroke:#009688;stroke-linecap:square;stroke-linejoin:round"/><line x1="6.5" y1="14.5" x2="10.5" y2="14.5" style="fill:none;stroke:#009688;stroke-linecap:square;stroke-linejoin:round"/><path d="M4,8V9H3V8H4M4,7H3A1,1,0,0,0,2,8V9a1,1,0,0,0,1,1H4A1,1,0,0,0,5,9V8A1,1,0,0,0,4,7Z" style="fill:#009688"/><line x1="6.5" y1="12.5" x2="14.5" y2="12.5" style="fill:none;stroke:#009688;stroke-linecap:square;stroke-linejoin:round"/><path d="M4,13v1H3V13H4m0-1H3a1,1,0,0,0-1,1v1a1,1,0,0,0,1,1H4a1,1,0,0,0,1-1V13a1,1,0,0,0-1-1Z" style="fill:#009688"/></svg>