<svg xmlns="http://www.w3.org/2000/svg" width="18" height="18" viewBox="0 0 18 18"><line x1="11.5" y1="4.5" x2="16.5" y2="4.5" style="fill:none;stroke:#009688;stroke-linecap:square;stroke-linejoin:round"/><line x1="0.5" y1="6.5" x2="16.5" y2="6.5" style="fill:none;stroke:#009688;stroke-linecap:square;stroke-linejoin:round"/><line x1="0.5" y1="8.5" x2="16.5" y2="8.5" style="fill:none;stroke:#009688;stroke-linecap:square;stroke-linejoin:round"/><line x1="0.5" y1="10.5" x2="16.5" y2="10.5" style="fill:none;stroke:#009688;stroke-linecap:square;stroke-linejoin:round"/><line x1="0.5" y1="12.5" x2="16.5" y2="12.5" style="fill:none;stroke:#009688;stroke-linecap:square;stroke-linejoin:round"/><path d="M1.5,14.5h14a1,1,0,0,1,1,1v1a0,0,0,0,1,0,0H.5a0,0,0,0,1,0,0v-1A1,1,0,0,1,1.5,14.5Z" transform="translate(17 31) rotate(180)" style="fill:none;stroke:#949494;stroke-linecap:round;stroke-linejoin:round"/><line x1="0.5" y1="12.5" x2="0.5" y2="10.5" style="fill:none;stroke:#009688;stroke-linecap:square;stroke-linejoin:round"/><line x1="16.5" y1="10.5" x2="16.5" y2="8.5" style="fill:none;stroke:#009688;stroke-linecap:square;stroke-linejoin:round"/><line x1="0.5" y1="8.5" x2="0.5" y2="6.5" style="fill:none;stroke:#009688;stroke-linecap:square;stroke-linejoin:round"/><line x1="16.5" y1="6.5" x2="16.5" y2="4.5" style="fill:none;stroke:#009688;stroke-linecap:square;stroke-linejoin:round"/><rect x="8" width="1" height="1" transform="translate(17 1) rotate(-180)" style="fill:#009688;opacity:0.25"/><rect x="6" width="1" height="1" transform="translate(13 1) rotate(-180)" style="fill:#009688;opacity:0.2"/><rect x="4" width="1" height="1" transform="translate(9 1) rotate(-180)" style="fill:#009688;opacity:0.15"/><rect x="2" width="1" height="1" transform="translate(5 1) rotate(-180)" style="fill:#009688;opacity:0.1"/><rect width="1" height="1" transform="translate(1 1) rotate(-180)" style="fill:#009688;opacity:0.05"/><rect x="10" width="1" height="1" transform="translate(21 1) rotate(-180)" style="fill:#009688;opacity:0.3"/><rect x="12" width="1" height="1" transform="translate(25 1) rotate(-180)" style="fill:#009688;opacity:0.35000000000000003"/><rect x="14" width="1" height="1" transform="translate(29 1) rotate(-180)" style="fill:#009688;opacity:0.4"/><rect x="16" width="1" height="1" transform="translate(33 1) rotate(-180)" style="fill:#009688;opacity:0.45"/><rect x="16" y="2" width="1" height="1" transform="translate(33 5) rotate(-180)" style="fill:#009688;opacity:0.5"/><rect x="14" y="2" width="1" height="1" transform="translate(29 5) rotate(-180)" style="fill:#009688;opacity:0.55"/><rect x="12" y="2" width="1" height="1" transform="translate(25 5) rotate(-180)" style="fill:#009688;opacity:0.6"/><rect x="10" y="2" width="1" height="1" transform="translate(21 5) rotate(-180)" style="fill:#009688;opacity:0.65"/><rect x="8" y="2" width="1" height="1" transform="translate(17 5) rotate(-180)" style="fill:#009688;opacity:0.7000000000000001"/><rect x="6" y="2" width="1" height="1" transform="translate(13 5) rotate(-180)" style="fill:#009688;opacity:0.75"/><rect x="4" y="2" width="1" height="1" transform="translate(9 5) rotate(-180)" style="fill:#009688;opacity:0.8"/><rect x="2" y="2" width="1" height="1" transform="translate(5 5) rotate(-180)" style="fill:#009688;opacity:0.85"/><rect y="4" width="1" height="1" transform="translate(1 9) rotate(-180)" style="fill:#009688;opacity:0.9500000000000001"/><rect y="2" width="1" height="1" transform="translate(1 5) rotate(-180)" style="fill:#009688;opacity:0.9"/><rect x="2" y="4" width="1" height="1" transform="translate(5 9) rotate(-180)" style="fill:#009688"/><rect x="4" y="4" width="2" height="1" transform="translate(10 9) rotate(-180)" style="fill:#009688"/><rect x="7" y="4" width="3" height="1" transform="translate(17 9) rotate(-180)" style="fill:#009688"/></svg>