<svg width="14" height="15" viewBox="0 0 14 15" fill="none" xmlns="http://www.w3.org/2000/svg">
<g clip-path="url(#clip0_8074_35841)">
<path fill-rule="evenodd" clip-rule="evenodd" d="M4.53595 2.54026C4.08164 2.54026 3.71357 2.9084 3.71357 3.36225C3.71357 3.8161 4.08164 4.18423 4.53595 4.18423C4.99025 4.18423 5.35832 3.8161 5.35832 3.36225C5.35832 2.9084 4.99025 2.54026 4.53595 2.54026ZM2.91357 3.36225C2.91357 2.46633 3.64006 1.74026 4.53595 1.74026C5.43184 1.74026 6.15832 2.46633 6.15832 3.36225C6.15832 4.25817 5.43184 4.98423 4.53595 4.98423C3.64006 4.98423 2.91357 4.25817 2.91357 3.36225Z" fill="#6B6B6B"/>
<path fill-rule="evenodd" clip-rule="evenodd" d="M6.98028 2.54026C6.52598 2.54026 6.15791 2.9084 6.15791 3.36225C6.15791 3.8161 6.52598 4.18423 6.98028 4.18423C7.43458 4.18423 7.80265 3.8161 7.80265 3.36225C7.80265 2.9084 7.43458 2.54026 6.98028 2.54026ZM5.35791 3.36225C5.35791 2.46633 6.08439 1.74026 6.98028 1.74026C7.87617 1.74026 8.60265 2.46633 8.60265 3.36225C8.60265 4.25817 7.87617 4.98423 6.98028 4.98423C6.08439 4.98423 5.35791 4.25817 5.35791 3.36225Z" fill="#6B6B6B"/>
<path fill-rule="evenodd" clip-rule="evenodd" d="M9.42511 2.54026C8.9708 2.54026 8.60273 2.9084 8.60273 3.36225C8.60273 3.8161 8.9708 4.18423 9.42511 4.18423C9.87941 4.18423 10.2475 3.8161 10.2475 3.36225C10.2475 2.9084 9.87941 2.54026 9.42511 2.54026ZM7.80273 3.36225C7.80273 2.46633 8.52922 1.74026 9.42511 1.74026C10.321 1.74026 11.0475 2.46633 11.0475 3.36225C11.0475 4.25817 10.321 4.98423 9.42511 4.98423C8.52922 4.98423 7.80273 4.25817 7.80273 3.36225Z" fill="#6B6B6B"/>
<path fill-rule="evenodd" clip-rule="evenodd" d="M4.53644 6.79026C4.08213 6.79026 3.71406 7.1584 3.71406 7.61225C3.71406 8.0661 4.08213 8.43423 4.53644 8.43423C4.99074 8.43423 5.35881 8.0661 5.35881 7.61225C5.35881 7.1584 4.99074 6.79026 4.53644 6.79026ZM2.91406 7.61225C2.91406 6.71633 3.64054 5.99026 4.53644 5.99026C5.43233 5.99026 6.15881 6.71633 6.15881 7.61225C6.15881 8.50817 5.43233 9.23423 4.53644 9.23423C3.64054 9.23423 2.91406 8.50817 2.91406 7.61225Z" fill="#6B6B6B"/>
<path fill-rule="evenodd" clip-rule="evenodd" d="M6.98028 6.79026C6.52598 6.79026 6.15791 7.1584 6.15791 7.61225C6.15791 8.0661 6.52598 8.43423 6.98028 8.43423C7.43458 8.43423 7.80265 8.0661 7.80265 7.61225C7.80265 7.1584 7.43458 6.79026 6.98028 6.79026ZM5.35791 7.61225C5.35791 6.71633 6.08439 5.99026 6.98028 5.99026C7.87617 5.99026 8.60265 6.71633 8.60265 7.61225C8.60265 8.50817 7.87617 9.23423 6.98028 9.23423C6.08439 9.23423 5.35791 8.50817 5.35791 7.61225Z" fill="#6B6B6B"/>
<path fill-rule="evenodd" clip-rule="evenodd" d="M2.09161 6.79026C1.63731 6.79026 1.26924 7.1584 1.26924 7.61225C1.26924 8.0661 1.63731 8.43423 2.09161 8.43423C2.54591 8.43423 2.91398 8.0661 2.91398 7.61225C2.91398 7.1584 2.54591 6.79026 2.09161 6.79026ZM0.469238 7.61225C0.469238 6.71633 1.19572 5.99026 2.09161 5.99026C2.9875 5.99026 3.71398 6.71633 3.71398 7.61225C3.71398 8.50817 2.9875 9.23423 2.09161 9.23423C1.19572 9.23423 0.469238 8.50817 0.469238 7.61225Z" fill="#6B6B6B"/>
<path fill-rule="evenodd" clip-rule="evenodd" d="M9.42511 6.79026C8.9708 6.79026 8.60273 7.1584 8.60273 7.61225C8.60273 8.0661 8.9708 8.43423 9.42511 8.43423C9.87941 8.43423 10.2475 8.0661 10.2475 7.61225C10.2475 7.1584 9.87941 6.79026 9.42511 6.79026ZM7.80273 7.61225C7.80273 6.71633 8.52922 5.99026 9.42511 5.99026C10.321 5.99026 11.0475 6.71633 11.0475 7.61225C11.0475 8.50817 10.321 9.23423 9.42511 9.23423C8.52922 9.23423 7.80273 8.50817 7.80273 7.61225Z" fill="#6B6B6B"/>
<path fill-rule="evenodd" clip-rule="evenodd" d="M11.8694 6.79026C11.4151 6.79026 11.0471 7.1584 11.0471 7.61225C11.0471 8.0661 11.4151 8.43423 11.8694 8.43423C12.3237 8.43423 12.6918 8.0661 12.6918 7.61225C12.6918 7.1584 12.3237 6.79026 11.8694 6.79026ZM10.2471 7.61225C10.2471 6.71633 10.9736 5.99026 11.8694 5.99026C12.7653 5.99026 13.4918 6.71633 13.4918 7.61225C13.4918 8.50817 12.7653 9.23423 11.8694 9.23423C10.9736 9.23423 10.2471 8.50817 10.2471 7.61225Z" fill="#6B6B6B"/>
<path fill-rule="evenodd" clip-rule="evenodd" d="M5.75763 4.66722C5.30332 4.66722 4.93525 5.03535 4.93525 5.4892C4.93525 5.94305 5.30332 6.31118 5.75763 6.31118C6.21193 6.31118 6.58 5.94305 6.58 5.4892C6.58 5.03535 6.21193 4.66722 5.75763 4.66722ZM4.13525 5.4892C4.13525 4.59328 4.86173 3.86722 5.75763 3.86722C6.65352 3.86722 7.38 4.59328 7.38 5.4892C7.38 6.38512 6.65352 7.11118 5.75763 7.11118C4.86173 7.11118 4.13525 6.38512 4.13525 5.4892Z" fill="#6B6B6B"/>
<path fill-rule="evenodd" clip-rule="evenodd" d="M3.31427 4.66722C2.85996 4.66722 2.49189 5.03535 2.49189 5.4892C2.49189 5.94305 2.85996 6.31118 3.31427 6.31118C3.76857 6.31118 4.13664 5.94305 4.13664 5.4892C4.13664 5.03535 3.76857 4.66722 3.31427 4.66722ZM1.69189 5.4892C1.69189 4.59329 2.41837 3.86722 3.31427 3.86722C4.21016 3.86722 4.93664 4.59328 4.93664 5.4892C4.93664 6.38512 4.21016 7.11118 3.31427 7.11118C2.41837 7.11118 1.69189 6.38512 1.69189 5.4892Z" fill="#6B6B6B"/>
<path fill-rule="evenodd" clip-rule="evenodd" d="M8.20245 4.66722C7.74815 4.66722 7.38008 5.03535 7.38008 5.4892C7.38008 5.94305 7.74815 6.31118 8.20245 6.31118C8.65675 6.31118 9.02482 5.94305 9.02482 5.4892C9.02482 5.03535 8.65675 4.66722 8.20245 4.66722ZM6.58008 5.4892C6.58008 4.59329 7.30656 3.86722 8.20245 3.86722C9.09834 3.86722 9.82482 4.59329 9.82482 5.4892C9.82482 6.38512 9.09834 7.11118 8.20245 7.11118C7.30656 7.11118 6.58008 6.38512 6.58008 5.4892Z" fill="#6B6B6B"/>
<path fill-rule="evenodd" clip-rule="evenodd" d="M10.6473 4.66722C10.193 4.66722 9.8249 5.03535 9.8249 5.4892C9.8249 5.94305 10.193 6.31118 10.6473 6.31118C11.1016 6.31118 11.4696 5.94305 11.4696 5.4892C11.4696 5.03535 11.1016 4.66722 10.6473 4.66722ZM9.0249 5.4892C9.0249 4.59328 9.75138 3.86722 10.6473 3.86722C11.5432 3.86722 12.2696 4.59328 12.2696 5.4892C12.2696 6.38512 11.5432 7.11118 10.6473 7.11118C9.75138 7.11118 9.0249 6.38512 9.0249 5.4892Z" fill="#6B6B6B"/>
<path fill-rule="evenodd" clip-rule="evenodd" d="M4.53644 11.093C4.08213 11.093 3.71406 11.4611 3.71406 11.915C3.71406 12.3688 4.08213 12.737 4.53644 12.737C4.99074 12.737 5.35881 12.3688 5.35881 11.915C5.35881 11.4611 4.99074 11.093 4.53644 11.093ZM2.91406 11.915C2.91406 11.0191 3.64054 10.293 4.53644 10.293C5.43233 10.293 6.15881 11.0191 6.15881 11.915C6.15881 12.8109 5.43233 13.537 4.53644 13.537C3.64054 13.537 2.91406 12.8109 2.91406 11.915Z" fill="#6B6B6B"/>
<path fill-rule="evenodd" clip-rule="evenodd" d="M6.98028 11.093C6.52598 11.093 6.15791 11.4611 6.15791 11.915C6.15791 12.3688 6.52598 12.737 6.98028 12.737C7.43458 12.737 7.80265 12.3688 7.80265 11.915C7.80265 11.4611 7.43458 11.093 6.98028 11.093ZM5.35791 11.915C5.35791 11.0191 6.08439 10.293 6.98028 10.293C7.87617 10.293 8.60265 11.0191 8.60265 11.915C8.60265 12.8109 7.87617 13.537 6.98028 13.537C6.08439 13.537 5.35791 12.8109 5.35791 11.915Z" fill="#6B6B6B"/>
<path fill-rule="evenodd" clip-rule="evenodd" d="M9.42511 11.093C8.9708 11.093 8.60273 11.4611 8.60273 11.915C8.60273 12.3688 8.9708 12.737 9.42511 12.737C9.87941 12.737 10.2475 12.3688 10.2475 11.915C10.2475 11.4611 9.87941 11.093 9.42511 11.093ZM7.80273 11.915C7.80273 11.0191 8.52922 10.293 9.42511 10.293C10.321 10.293 11.0475 11.0191 11.0475 11.915C11.0475 12.8109 10.321 13.537 9.42511 13.537C8.52922 13.537 7.80273 12.8109 7.80273 11.915Z" fill="#6B6B6B"/>
<path fill-rule="evenodd" clip-rule="evenodd" d="M5.75763 8.96611C5.30332 8.96611 4.93525 9.33424 4.93525 9.78809C4.93525 10.2419 5.30332 10.6101 5.75763 10.6101C6.21193 10.6101 6.58 10.2419 6.58 9.78809C6.58 9.33424 6.21193 8.96611 5.75763 8.96611ZM4.13525 9.78809C4.13525 8.89217 4.86173 8.16611 5.75763 8.16611C6.65352 8.16611 7.38 8.89217 7.38 9.78809C7.38 10.684 6.65352 11.4101 5.75763 11.4101C4.86173 11.4101 4.13525 10.684 4.13525 9.78809Z" fill="#6B6B6B"/>
<path fill-rule="evenodd" clip-rule="evenodd" d="M3.31427 8.96611C2.85996 8.96611 2.49189 9.33424 2.49189 9.78809C2.49189 10.2419 2.85996 10.6101 3.31427 10.6101C3.76857 10.6101 4.13664 10.2419 4.13664 9.78809C4.13664 9.33424 3.76857 8.96611 3.31427 8.96611ZM1.69189 9.78809C1.69189 8.89217 2.41837 8.16611 3.31427 8.16611C4.21016 8.16611 4.93664 8.89217 4.93664 9.78809C4.93664 10.684 4.21016 11.4101 3.31427 11.4101C2.41837 11.4101 1.69189 10.684 1.69189 9.78809Z" fill="#6B6B6B"/>
<path fill-rule="evenodd" clip-rule="evenodd" d="M8.20294 8.96611C7.74864 8.96611 7.38057 9.33424 7.38057 9.78809C7.38057 10.2419 7.74864 10.6101 8.20294 10.6101C8.65724 10.6101 9.02531 10.2419 9.02531 9.78809C9.02531 9.33424 8.65724 8.96611 8.20294 8.96611ZM6.58057 9.78809C6.58057 8.89217 7.30705 8.16611 8.20294 8.16611C9.09883 8.16611 9.82531 8.89217 9.82531 9.78809C9.82531 10.684 9.09883 11.4101 8.20294 11.4101C7.30705 11.4101 6.58057 10.684 6.58057 9.78809Z" fill="#6B6B6B"/>
<path fill-rule="evenodd" clip-rule="evenodd" d="M10.6473 8.96611C10.193 8.96611 9.8249 9.33424 9.8249 9.78809C9.8249 10.2419 10.193 10.6101 10.6473 10.6101C11.1016 10.6101 11.4696 10.2419 11.4696 9.78809C11.4696 9.33424 11.1016 8.96611 10.6473 8.96611ZM9.0249 9.78809C9.0249 8.89217 9.75138 8.16611 10.6473 8.16611C11.5432 8.16611 12.2696 8.89217 12.2696 9.78809C12.2696 10.684 11.5432 11.4101 10.6473 11.4101C9.75138 11.4101 9.0249 10.684 9.0249 9.78809Z" fill="#6B6B6B"/>
<path fill-rule="evenodd" clip-rule="evenodd" d="M3.47851 1.9402C3.54997 1.81648 3.682 1.74026 3.82488 1.74026H10.1756C10.3185 1.74026 10.4505 1.81648 10.522 1.9402L13.6974 7.43782C13.7689 7.56161 13.7689 7.71415 13.6974 7.83794L10.522 13.3356C10.4505 13.4593 10.3185 13.5355 10.1756 13.5355H3.82488C3.682 13.5355 3.54997 13.4593 3.47851 13.3356L0.303138 7.83794C0.231636 7.71415 0.231636 7.56161 0.303138 7.43782L3.47851 1.9402ZM4.05577 2.54026L1.11144 7.63788L4.05577 12.7355H9.94472L12.8891 7.63788L9.94472 2.54026H4.05577Z" fill="#262E30"/>
</g>
<defs>
<clipPath id="clip0_8074_35841">
<rect width="14" height="14" fill="white" transform="translate(0 14.1403) rotate(-90)"/>
</clipPath>
</defs>
</svg>
