<?xml version="1.0" encoding="UTF-8"?><svg id="a" xmlns="http://www.w3.org/2000/svg" width="24" height="24" viewBox="0 0 24 24"><path d="M19.5,12.6l-9.91,9.91M11.4,22.5L1.5,12.6M9.6,4.5l9.9,9.9M18.91,21.91L2.09,5.09M1.5,14.4L11.4,4.5M18.91,5.09L2.47,21.53" style="fill:none; stroke:#009688; stroke-linecap:round; stroke-linejoin:round;"/><rect x="1.5" y="4.5" width="18" height="18" rx="2" ry="2" transform="translate(21 27) rotate(-180)" style="fill:none; stroke:#949494; stroke-linecap:round; stroke-linejoin:round;"/><path d="M2.09,5.09l2.66-2.66c.6-.6,1.4-.93,2.24-.93h13.51c1.1,0,2,.9,2,2v13.51c0,.84-.33,1.65-.93,2.24l-2.66,2.66" style="fill:none; stroke:#949494; stroke-linecap:round; stroke-linejoin:round;"/><line x1="18.91" y1="5.09" x2="21.91" y2="2.09" style="fill:none; stroke:#949494; stroke-linecap:round; stroke-linejoin:round;"/></svg>