<svg xmlns="http://www.w3.org/2000/svg" viewBox="0 0 24 24"><path d="M22.5,19.67l-2.81-2.81,2.81-2.8V14M19.67,22.5l-2.81-2.81-2.8,2.81H14M22.5,14,16.16,7.67,13.33,10.5,16.86,14,14,16.86,10.5,13.33,7.67,16.16,14,22.5m1.63-21,6.17,6.17L22.5,7M7,22.5l.68-.69L1.5,15.64m0-5.74L5,13.29S7.56,10.5,7.67,10.5,4.14,7,4.14,7L7,4.14,10.5,7.67l2.83-2.83L10,1.5" style="fill:none;stroke:#009688;stroke-linecap:round;stroke-linejoin:round"/><rect x="1.5" y="1.5" width="21" height="21" rx="2" style="fill:none;stroke:#949494;stroke-linecap:round;stroke-linejoin:round"/></svg>