<svg xmlns="http://www.w3.org/2000/svg" width="18" height="18" viewBox="0 0 18 18"><line x1="16.5" y1="16.5" x2="0.5" y2="16.5" style="fill:none;stroke:#949494;stroke-linecap:square;stroke-linejoin:round"/><line x1="4.5" y1="14.5" x2="0.5" y2="14.5" style="fill:none;stroke:#949494;stroke-linecap:square;stroke-linejoin:round"/><line x1="6.5" y1="1.5" x2="8.5" y2="1.5" style="fill:none;stroke:#009688;stroke-linecap:round;stroke-linejoin:round"/><line x1="7.5" y1="0.5" x2="7.5" y2="2.5" style="fill:none;stroke:#009688;stroke-linecap:round;stroke-linejoin:round"/><line x1="0.5" y1="5.5" x2="4.5" y2="5.5" style="fill:none;stroke:#009688;stroke-linecap:round;stroke-linejoin:round"/><line x1="2.5" y1="3.5" x2="2.5" y2="7.5" style="fill:none;stroke:#009688;stroke-linecap:round;stroke-linejoin:round"/><circle cx="0.5" cy="2.5" r="0.5" style="fill:#009688"/><circle cx="5.5" cy="3.5" r="0.5" style="fill:#009688"/><circle cx="4.5" cy="7.5" r="0.5" style="fill:#009688"/><circle cx="3.5" cy="10.5" r="0.5" style="fill:#009688"/><circle cx="0.5" cy="9.5" r="0.5" style="fill:#009688"/><circle cx="3.5" cy="1.5" r="0.5" style="fill:#009688"/><circle cx="1.5" cy="0.5" r="0.5" style="fill:#009688"/><path d="M16.5,11.667c0,1.833-1,2.833-2,2.833" style="fill:none;stroke:#009688;stroke-linecap:round;stroke-linejoin:round"/><path d="M14.5,11.667c0,1.833-1,2.833-2,2.833" style="fill:none;stroke:#009688;stroke-linecap:round;stroke-linejoin:round"/><path d="M12.5,11.667c0,1.833-1,2.833-2,2.833" style="fill:none;stroke:#009688;stroke-linecap:round;stroke-linejoin:round"/><path d="M10.5,11.667c0,1.833-1,2.833-2,2.833" style="fill:none;stroke:#009688;stroke-linecap:round;stroke-linejoin:round"/><path d="M8.5,11.667c0,1.833-1,2.833-2,2.833" style="fill:none;stroke:#009688;stroke-linecap:round;stroke-linejoin:round"/><path d="M16.5,8.5h-3l1.741-6.965A.832.832,0,0,0,14.433.5h-1.1a.833.833,0,0,0-.833.833V8.5h-3l-1,2h8Z" style="fill:none;stroke:#949494;stroke-linecap:round;stroke-linejoin:round"/></svg>