<svg width="14" height="14" viewBox="0 0 14 14" fill="none" xmlns="http://www.w3.org/2000/svg">
<rect x="1.56567" y="1.61401" width="10.8689" height="8.39195" stroke="#262E30" stroke-width="0.5"/>
<path d="M12.2944 10.256L11.666 10.7378C11.3101 11.0107 10.8133 11.0031 10.4658 10.7196V10.7196C10.1299 10.4454 9.65269 10.4283 9.29799 10.6775L9.12471 10.7993C8.77972 11.0418 8.31973 11.0418 7.97474 10.7993L7.7173 10.6184C7.40221 10.397 6.98795 10.3761 6.65224 10.5649L6.06592 10.8945C5.73021 11.0833 5.31595 11.0624 5.00086 10.841L4.74342 10.6601C4.39843 10.4176 3.93843 10.4176 3.59345 10.6601L3.43481 10.7716C3.07078 11.0274 2.58151 11.0119 2.23435 10.7337L1.63848 10.256" stroke="#262E30" stroke-width="0.5" stroke-linecap="round" stroke-linejoin="round"/>
<rect x="1.56567" y="11.4534" width="10.8689" height="0.932677" fill="#ACACAC" stroke="#262E30" stroke-width="0.5"/>
</svg>
