<svg xmlns="http://www.w3.org/2000/svg" width="18" height="18" viewBox="0 0 18 18"><line x1="8.5" y1="2.5" x2="7.5" y2="6.5" style="fill:none;stroke:#009688;stroke-linecap:round;stroke-linejoin:round"/><line x1="9.5" y1="6.5" x2="8.5" y2="2.5" style="fill:none;stroke:#009688;stroke-linecap:round;stroke-linejoin:round"/><line x1="2.5" y1="8.5" x2="6.5" y2="9.5" style="fill:none;stroke:#009688;stroke-linecap:round;stroke-linejoin:round"/><line x1="6.5" y1="7.5" x2="2.5" y2="8.5" style="fill:none;stroke:#009688;stroke-linecap:round;stroke-linejoin:round"/><line x1="14.5" y1="8.5" x2="10.5" y2="7.5" style="fill:none;stroke:#009688;stroke-linecap:round;stroke-linejoin:round"/><line x1="12" y1="9" x2="14.5" y2="8.5" style="fill:none;stroke:#009688;stroke-linecap:round;stroke-linejoin:round"/><line x1="8.5" y1="14.5" x2="9" y2="12" style="fill:none;stroke:#009688;stroke-linecap:round;stroke-linejoin:round"/><line x1="7.5" y1="10.5" x2="8.5" y2="14.5" style="fill:none;stroke:#009688;stroke-linecap:round;stroke-linejoin:round"/><line x1="6.5" y1="6.5" x2="4.5" y2="4.5" style="fill:none;stroke:#009688;stroke-linecap:round;stroke-linejoin:round"/><line x1="10.5" y1="6.5" x2="12.5" y2="4.5" style="fill:none;stroke:#009688;stroke-linecap:round;stroke-linejoin:round"/><line x1="6.5" y1="10.5" x2="4.5" y2="12.5" style="fill:none;stroke:#009688;stroke-linecap:round;stroke-linejoin:round"/><line x1="8.5" y1="8.5" x2="15.5" y2="15.5" style="fill:none;stroke:#949494;stroke-linecap:round;stroke-linejoin:round"/><path d="M16.5,11.5V1.5a1,1,0,0,0-1-1H1.5a1,1,0,0,0-1,1v14a1,1,0,0,0,1,1h10" style="fill:none;stroke:#949494;stroke-linecap:round;stroke-linejoin:round"/></svg>