<svg xmlns="http://www.w3.org/2000/svg" viewBox="0 0 18 18"><line x1="11.5" y1="4.5" x2="13.5" y2="4.5" style="fill:none;stroke:#949494;stroke-linecap:square;stroke-linejoin:round"/><line x1="12.5" y1="5.5" x2="12.5" y2="3.5" style="fill:none;stroke:#949494;stroke-linecap:square;stroke-linejoin:round"/><line x1="11.5" y1="8.5" x2="13.5" y2="8.5" style="fill:none;stroke:#009688;stroke-linecap:square;stroke-linejoin:round"/><line x1="12.5" y1="9.5" x2="12.5" y2="7.5" style="fill:none;stroke:#009688;stroke-linecap:square;stroke-linejoin:round"/><line x1="11.5" y1="12.5" x2="13.5" y2="12.5" style="fill:none;stroke:#009688;stroke-linecap:square;stroke-linejoin:round"/><line x1="12.5" y1="13.5" x2="12.5" y2="11.5" style="fill:none;stroke:#009688;stroke-linecap:square;stroke-linejoin:round"/><line x1="7.5" y1="12.5" x2="9.5" y2="12.5" style="fill:none;stroke:#009688;stroke-linecap:square;stroke-linejoin:round"/><line x1="8.5" y1="13.5" x2="8.5" y2="11.5" style="fill:none;stroke:#009688;stroke-linecap:square;stroke-linejoin:round"/><line x1="3.5" y1="12.5" x2="5.5" y2="12.5" style="fill:none;stroke:#949494;stroke-linecap:square;stroke-linejoin:round"/><line x1="4.5" y1="13.5" x2="4.5" y2="11.5" style="fill:none;stroke:#949494;stroke-linecap:square;stroke-linejoin:round"/><line x1="3.5" y1="8.5" x2="5.5" y2="8.5" style="fill:none;stroke:#949494;stroke-linecap:square;stroke-linejoin:round"/><line x1="4.5" y1="9.5" x2="4.5" y2="7.5" style="fill:none;stroke:#949494;stroke-linecap:square;stroke-linejoin:round"/><line x1="7.5" y1="8.5" x2="9.5" y2="8.5" style="fill:none;stroke:#009688;stroke-linecap:square;stroke-linejoin:round"/><line x1="8.5" y1="9.5" x2="8.5" y2="7.5" style="fill:none;stroke:#009688;stroke-linecap:square;stroke-linejoin:round"/><line x1="7.5" y1="4.5" x2="9.5" y2="4.5" style="fill:none;stroke:#949494;stroke-linecap:square;stroke-linejoin:round"/><line x1="8.5" y1="5.5" x2="8.5" y2="3.5" style="fill:none;stroke:#949494;stroke-linecap:square;stroke-linejoin:round"/><line x1="3.5" y1="4.5" x2="5.5" y2="4.5" style="fill:none;stroke:#949494;stroke-linecap:square;stroke-linejoin:round"/><line x1="4.5" y1="5.5" x2="4.5" y2="3.5" style="fill:none;stroke:#949494;stroke-linecap:square;stroke-linejoin:round"/><rect x="0.5" y="0.5" width="16" height="16" rx="1" style="fill:none;stroke:#949494;stroke-linecap:round;stroke-linejoin:round"/></svg>