<svg width="14" height="14" viewBox="0 0 14 14" fill="none" xmlns="http://www.w3.org/2000/svg">
<g clip-path="url(#clip0_8074_35955)">
<path fill-rule="evenodd" clip-rule="evenodd" d="M1.9082 9.22919V11.6628H12.0915V9.22919H1.9082ZM1.4082 8.22919C1.13206 8.22919 0.908203 8.45305 0.908203 8.72919V12.1628C0.908203 12.4389 1.13206 12.6628 1.4082 12.6628H12.5915C12.8676 12.6628 13.0915 12.4389 13.0915 12.1628V8.72919C13.0915 8.45304 12.8676 8.22919 12.5915 8.22919H1.4082Z" fill="#262E30"/>
<path fill-rule="evenodd" clip-rule="evenodd" d="M1.4082 1.33716C1.13206 1.33716 0.908203 1.56102 0.908203 1.83716V5.27077C0.908203 5.54692 1.13206 5.77077 1.4082 5.77077H3.4859V7.24993C3.4859 7.52607 3.70976 7.74993 3.98591 7.74993H10.0127C10.2888 7.74993 10.5127 7.52607 10.5127 7.24993V5.77077H12.5915C12.8676 5.77077 13.0915 5.54691 13.0915 5.27077V1.83716C13.0915 1.56102 12.8676 1.33716 12.5915 1.33716H1.4082Z" fill="#ACACAC"/>
<path fill-rule="evenodd" clip-rule="evenodd" d="M3.4859 4.77077C4.03819 4.77077 4.4859 5.21849 4.4859 5.77077V6.74993H9.51266V5.77077C9.51266 5.21849 9.96037 4.77077 10.5127 4.77077H12.0915V2.33716H1.9082V4.77077H3.4859ZM1.4082 5.77077C1.13206 5.77077 0.908203 5.54692 0.908203 5.27077V1.83716C0.908203 1.56102 1.13206 1.33716 1.4082 1.33716H12.5915C12.8676 1.33716 13.0915 1.56102 13.0915 1.83716V5.27077C13.0915 5.54691 12.8676 5.77077 12.5915 5.77077H10.5127V7.24993C10.5127 7.52607 10.2888 7.74993 10.0127 7.74993H3.98591C3.70976 7.74993 3.4859 7.52607 3.4859 7.24993V5.77077H1.4082Z" fill="#262E30"/>
</g>
<defs>
<clipPath id="clip0_8074_35955">
<rect width="14" height="14" fill="white" transform="translate(0 14) rotate(-90)"/>
</clipPath>
</defs>
</svg>
