<?xml version="1.0" encoding="UTF-8"?><svg id="a" xmlns="http://www.w3.org/2000/svg" width="24" height="24" viewBox="0 0 24 24"><polyline points="7.5 6.5 11.5 4.5 15.5 6.5" style="fill:none; stroke:#009688; stroke-linecap:round; stroke-linejoin:round;"/><polyline points="15.5 6.5 19.5 4.5 22.5 6" style="fill:none; stroke:#009688; stroke-linecap:round; stroke-linejoin:round;"/><polyline points="1.5 5.5 3.5 4.5 7.5 6.5" style="fill:none; stroke:#009688; stroke-linecap:round; stroke-linejoin:round;"/><polyline points="15.5 11.5 11.5 13.5 7.5 11.5" style="fill:none; stroke:#009688; stroke-linecap:round; stroke-linejoin:round;"/><polyline points="7.5 11.5 3.5 13.5 1.5 12.5" style="fill:none; stroke:#009688; stroke-linecap:round; stroke-linejoin:round;"/><polyline points="22.5 12 19.5 13.5 15.5 11.5" style="fill:none; stroke:#009688; stroke-linecap:round; stroke-linejoin:round;"/><line x1="7.5" y1="6.5" x2="7.5" y2="11.5" style="fill:none; stroke:#009688; stroke-linecap:round; stroke-linejoin:round;"/><line x1="15.5" y1="6.5" x2="15.5" y2="11.5" style="fill:none; stroke:#009688; stroke-linecap:round; stroke-linejoin:round;"/><line x1="3.5" y1="13.5" x2="3.5" y2="16.5" style="fill:none; stroke:#009688; stroke-linecap:round; stroke-linejoin:round;"/><line x1="11.5" y1="13.5" x2="11.5" y2="16.5" style="fill:none; stroke:#009688; stroke-linecap:round; stroke-linejoin:round;"/><line x1="19.5" y1="13.5" x2="19.5" y2="16.5" style="fill:none; stroke:#009688; stroke-linecap:round; stroke-linejoin:round;"/><line x1="19.5" y1="4.5" x2="19.5" y2="1.5" style="fill:none; stroke:#009688; stroke-linecap:round; stroke-linejoin:round;"/><line x1="11.5" y1="4.5" x2="11.5" y2="1.5" style="fill:none; stroke:#009688; stroke-linecap:round; stroke-linejoin:round;"/><line x1="3.5" y1="4.5" x2="3.5" y2="1.5" style="fill:none; stroke:#009688; stroke-linecap:round; stroke-linejoin:round;"/><rect x="1.5" y="1.5" width="21" height="21" rx="2" ry="2" style="fill:none; stroke:#949494; stroke-linecap:round; stroke-linejoin:round;"/><line x1="1.5" y1="16.5" x2="22.5" y2="16.5" style="fill:none; stroke:#949494; stroke-linecap:round; stroke-linejoin:round;"/><line x1="1.5" y1="18.5" x2="22.5" y2="18.5" style="fill:none; stroke:#949494; stroke-linecap:round; stroke-linejoin:round;"/><line x1="1.5" y1="20.5" x2="22.5" y2="20.5" style="fill:none; stroke:#949494; stroke-linecap:round; stroke-linejoin:round;"/></svg>