<svg xmlns="http://www.w3.org/2000/svg" width="24" height="24" viewBox="0 0 24 24"><path d="M16.5,1.5l1,1.05a3.291,3.291,0,0,1,0,4.725h0A3.291,3.291,0,0,0,17.5,12h0a3.291,3.291,0,0,1,0,4.725h0a3.291,3.291,0,0,0,0,4.725l1,1.05m-6,0-1-1.05a3.291,3.291,0,0,1,0-4.725h0A3.291,3.291,0,0,0,11.5,12h0a3.291,3.291,0,0,1,0-4.725h0a3.291,3.291,0,0,0,0-4.725l-1-1.05m-4,21-1-1.05a3.291,3.291,0,0,1,0-4.725h0A3.291,3.291,0,0,0,5.5,12h0a3.291,3.291,0,0,1,0-4.725h0a3.291,3.291,0,0,0,0-4.725L4.5,1.5" style="fill:none;stroke:#949494;stroke-linecap:round;stroke-linejoin:round;opacity:0.75"/><path d="M1.5,7.5l1.05-1a3.291,3.291,0,0,1,4.725,0h0A3.291,3.291,0,0,0,12,6.5h0a3.291,3.291,0,0,1,4.725,0h0a3.291,3.291,0,0,0,4.725,0l1.05-1m0,6-1.05,1a3.291,3.291,0,0,1-4.725,0h0A3.291,3.291,0,0,0,12,12.5h0a3.291,3.291,0,0,1-4.725,0h0a3.291,3.291,0,0,0-4.725,0l-1.05,1m21,4-1.05,1a3.291,3.291,0,0,1-4.725,0h0A3.291,3.291,0,0,0,12,18.5h0a3.291,3.291,0,0,1-4.725,0h0a3.291,3.291,0,0,0-4.725,0l-1.05,1" style="fill:none;stroke:#009688;stroke-linecap:round;stroke-linejoin:round"/><path d="M1.5,3.5v17a2,2,0,0,0,2,2h17a2,2,0,0,0,2-2V3.5a2,2,0,0,0-2-2H3.5A2,2,0,0,0,1.5,3.5Z" style="fill:none;stroke:#949494;stroke-linecap:round;stroke-linejoin:round"/></svg>