<?xml version="1.0" encoding="UTF-8" standalone="no"?>
<svg
   width="24"
   height="24"
   viewBox="0 0 24 24"
   version="1.1"
   id="svg3"
   sodipodi:docname="param_lockedzag.svg"
   xml:space="preserve"
   inkscape:version="1.4.2 (ebf0e94, 2025-05-08)"
   xmlns:inkscape="http://www.inkscape.org/namespaces/inkscape"
   xmlns:sodipodi="http://sodipodi.sourceforge.net/DTD/sodipodi-0.dtd"
   xmlns="http://www.w3.org/2000/svg"
   xmlns:svg="http://www.w3.org/2000/svg"><defs
     id="defs3"><clipPath
       id="clip0_8991_35043"><rect
         width="10"
         height="10"
         fill="white"
         id="rect5" /></clipPath><clipPath
       id="clip0_8991_35043-9"><rect
         width="10"
         height="10"
         fill="#ffffff"
         id="rect5-5"
         x="0"
         y="0" /></clipPath><clipPath
       id="clip0_8991_35043-1"><rect
         width="10"
         height="10"
         fill="#ffffff"
         id="rect5-0"
         x="0"
         y="0" /></clipPath><clipPath
       id="clip0_252_3415"><rect
         width="10"
         height="10"
         fill="white"
         id="rect20" /></clipPath></defs><sodipodi:namedview
     id="namedview3"
     pagecolor="#ffffff"
     bordercolor="#000000"
     borderopacity="0.25"
     inkscape:showpageshadow="2"
     inkscape:pageopacity="0.0"
     inkscape:pagecheckerboard="0"
     inkscape:deskcolor="#323232"
     inkscape:zoom="34.618769"
     inkscape:cx="10.788945"
     inkscape:cy="11.308894"
     inkscape:window-width="2560"
     inkscape:window-height="1377"
     inkscape:window-x="-8"
     inkscape:window-y="-8"
     inkscape:window-maximized="1"
     inkscape:current-layer="svg3" /><path
     d="M 1.5004197,15.581383 15.500418,1.5813815 M 8.5004192,22.581384 9.4748874,21.606912 10.036589,21.045211 22.500419,8.5813815 m -20.9999991,0 6.9999993,-7 m 6.9999988,21.0000025 7,-7 M 21.914418,2.1673815 2.0864196,21.995381"
     style="display:inline;fill:none;stroke:#808080;stroke-linecap:round;stroke-linejoin:round;stroke-opacity:0.5"
     id="path1-7"
     sodipodi:nodetypes="cccccccccccc" /><path
     d="M 6.1489271,4.7722047 H 17.851072 a 1.3767229,1.3767229 0 0 1 1.376724,1.3767229 V 17.851073 a 1.3767229,1.3767229 0 0 1 -1.376724,1.376722 H 6.1489271 A 1.3767229,1.3767229 0 0 1 4.7722043,17.851073 V 6.1489276 A 1.3767229,1.3767229 0 0 1 6.1489271,4.7722047 Z"
     style="display:inline;fill:none;fill-opacity:1;stroke:#8c8c8c;stroke-width:1.044;stroke-linecap:butt;stroke-linejoin:round;stroke-miterlimit:10;stroke-dasharray:none;stroke-opacity:1;paint-order:fill markers stroke"
     id="path3-5"
     inkscape:label="internal border" /><path
     id="path1-1"
     style="display:inline;fill:none;stroke:#008a79;stroke-linecap:butt;stroke-linejoin:round;stroke-opacity:1"
     d="M 5.2397203,18.841426 2.085444,21.995703" /><path
     id="path12"
     style="display:inline;fill:none;stroke:#008a79;stroke-linecap:butt;stroke-linejoin:bevel;stroke-opacity:1"
     d="M 21.913442,2.1677021 18.759166,5.3219792" /><path
     id="path11"
     style="display:inline;fill:none;stroke:#008a79;stroke-linecap:round;stroke-linejoin:round;stroke-opacity:1"
     d="m 15.499444,22.581703 6.999998,-7" /><path
     id="path10"
     style="display:inline;fill:none;stroke:#008a79;stroke-linecap:round;stroke-linejoin:round;stroke-opacity:1"
     d="M 1.499444,8.5817026 8.4994443,1.5817021" /><path
     id="path9"
     style="display:inline;fill:none;stroke:#008a79;stroke-linecap:round;stroke-linejoin:round;stroke-opacity:1"
     d="M 19.157654,11.92349 22.499441,8.5817026" /><path
     id="path7"
     style="display:inline;fill:none;stroke:#008a79;stroke-linecap:round;stroke-linejoin:round;stroke-opacity:1"
     d="m 8.4994443,22.581703 0.974468,-0.974468 0.5617017,-0.561702 1.804682,-1.804682" /><path
     id="path6"
     style="display:inline;fill:none;stroke:#008a79;stroke-linecap:round;stroke-linejoin:round;stroke-opacity:1"
     d="M 12.1596,4.9215459 15.499444,1.581702" /><path
     id="path4"
     style="display:inline;fill:none;stroke:#008a79;stroke-linecap:round;stroke-linejoin:round;stroke-opacity:1"
     d="M 1.4994439,15.581703 4.8392878,12.241859" /><path
     d="m 15.499443,22.581702 -14,-13.9999989 m 21,6.9999999 L 21.524975,14.607235 20.963273,14.045533 8.499443,1.5817029 m 0,20.9999991 -7,-6.999999 m 21,-6.9999999 -7,-7 m -13.414,0.586 19.828,19.8279989"
     style="display:inline;opacity:1;fill:none;stroke:#009688;stroke-linecap:round;stroke-linejoin:round;stroke-opacity:1"
     id="path1"
     sodipodi:nodetypes="cccccccccccc" /><path
     d="m 3.499443,1.581703 h 17 a 2,2 0 0 1 2,2 v 16.999999 a 2,2 0 0 1 -2,2 h -17 a 2,2 0 0 1 -2,-2 V 3.581703 a 2,2 0 0 1 2,-2 z"
     style="display:inline;fill:none;stroke:#999999;stroke-linecap:round;stroke-linejoin:round;stroke-opacity:1"
     id="path3"
     inkscape:label="border" /><g
     style="fill:none"
     id="g3"
     transform="matrix(2.4361593,0,0,2.5272675,-0.17137229,-0.38389611)" /></svg>
