<?xml version="1.0" encoding="UTF-8"?><svg id="a" xmlns="http://www.w3.org/2000/svg" width="24" height="24" viewBox="0 0 24 24"><circle id="b" cx="12" cy="12" r="2.5" style="fill:none; opacity:.75; stroke:#949494; stroke-linecap:round; stroke-linejoin:round;"/><circle id="c" cx="4" cy="20" r="2.5" style="fill:none; opacity:.75; stroke:#949494; stroke-linecap:round; stroke-linejoin:round;"/><path id="d" d="M10.71,22c-.13-.31-.21-.64-.21-1,0-1.38,1.12-2.5,2.5-2.5s2.5,1.12,2.5,2.5c0,.36-.08.71-.22,1.02" style="fill:none; opacity:.75; stroke:#949494; stroke-linecap:round; stroke-linejoin:round;"/><path id="e" d="M19.5,22c0-1.38,1.12-2.5,2.5-2.5" style="fill:none; opacity:.75; stroke:#949494; stroke-linecap:round; stroke-linejoin:round;"/><path id="f" d="M2,8.71c.31-.13.64-.21,1-.21,1.38,0,2.5,1.12,2.5,2.5s-1.12,2.5-2.5,2.5c-.35,0-.67-.07-.97-.2" style="fill:none; opacity:.75; stroke:#949494; stroke-linecap:round; stroke-linejoin:round;"/><path id="g" d="M4.5,2c0,1.38-1.12,2.5-2.5,2.5" style="fill:none; opacity:.75; stroke:#949494; stroke-linecap:round; stroke-linejoin:round;"/><path id="h" d="M22,15.29c-.31.13-.65.21-1,.21-1.38,0-2.5-1.12-2.5-2.5s1.12-2.5,2.5-2.5c.35,0,.67.07.97.2" style="fill:none; opacity:.75; stroke:#949494; stroke-linecap:round; stroke-linejoin:round;"/><circle id="i" cx="20" cy="4" r="2.5" style="fill:none; opacity:.75; stroke:#949494; stroke-linecap:round; stroke-linejoin:round;"/><path id="j" d="M13.28,1.96c.14.32.22.67.22,1.04,0,1.38-1.12,2.5-2.5,2.5s-2.5-1.12-2.5-2.5c0-.37.08-.72.22-1.04" style="fill:none; opacity:.75; stroke:#949494; stroke-linecap:round; stroke-linejoin:round;"/><path d="M15.5,1.5v3.5c0,1.38-1.12,2.5-2.5,2.5h-3c-1.38,0-2.5,1.12-2.5,2.5v3c0,1.38-1.12,2.5-2.5,2.5H1.5M17.5,22.5v-2.5c0-1.38,1.12-2.5,2.5-2.5h2.5M22.5,8.5h-3.5c-1.38,0-2.5,1.12-2.5,2.5v3c0,1.38-1.12,2.5-2.5,2.5h-3c-1.38,0-2.5,1.12-2.5,2.5v3.5M6.5,1.5v2.5c0,1.38-1.12,2.5-2.5,2.5H1.5" style="fill:none; stroke:#009688; stroke-linecap:round; stroke-linejoin:round;"/><path id="k" d="M3.5,1.5h17c1.1,0,2,.9,2,2v17c0,1.1-.9,2-2,2H3.5c-1.1,0-2-.9-2-2V3.5c0-1.1.9-2,2-2Z" style="fill:none; stroke:#949494; stroke-linecap:round; stroke-linejoin:round; stroke-width:.89px;"/></svg>