<?xml version="1.0" encoding="UTF-8"?><svg id="a" xmlns="http://www.w3.org/2000/svg" width="18" height="18" viewBox="0 0 18 18"><path d="M15.75,1.25c-1-1-2.63-1-3.63,0l-2.72,2.72c-1,1-1,2.63,0,3.63,1,1,2.63,1,3.63,0l2.72-2.72c1-1,1-2.63,0-3.63Z" style="fill:none; stroke:#009688; stroke-linecap:round; stroke-linejoin:round;"/><path d="M7.59,9.41c-1-1-2.63-1-3.63,0l-2.72,2.72c-1,1-1,2.63,0,3.63s2.63,1,3.63,0l2.72-2.72c1-1,1-2.63,0-3.63Z" style="fill:none; stroke:#009688; stroke-linecap:round; stroke-linejoin:round;"/><line x1=".5" y1="2.5" x2="1.5" y2="2.5" style="fill:none; stroke:#949494; stroke-linecap:square; stroke-linejoin:round;"/><polygon points="8 3 4 3 4 2 9 2 8 3" style="fill:#949494;"/><rect x="1.5" y=".5" width="3" height="4" rx=".82" ry=".82" style="fill:none; stroke:#949494; stroke-linecap:square; stroke-linejoin:round;"/><polygon points="13 15 8 15 9 14 13 14 13 15" style="fill:#949494;"/><line x1="4.5" y1="12.5" x2="12.5" y2="4.5" style="fill:none; stroke:#009688; stroke-linecap:round; stroke-linejoin:round;"/><line x1="15.5" y1="14.5" x2="16.5" y2="14.5" style="fill:none; stroke:#949494; stroke-linecap:square; stroke-linejoin:round;"/><rect x="12.5" y="12.5" width="3" height="4" rx=".82" ry=".82" style="fill:none; stroke:#949494; stroke-linecap:square; stroke-linejoin:round;"/></svg>