<svg width="14" height="15" viewBox="0 0 14 15" fill="none" xmlns="http://www.w3.org/2000/svg">
<path d="M8.5926 11.7856C8.45601 12.019 8.27388 12.159 8.11451 12.159C7.45429 12.159 6.93066 10.2452 6.93066 7.88795C6.93066 5.53069 7.45429 3.61688 8.11451 3.61688C8.27388 3.61688 8.43324 3.73358 8.56984 3.94363" stroke="#262E30" stroke-width="0.5" stroke-miterlimit="10" stroke-linecap="round"/>
<path d="M6.34602 11.676C6.20942 11.9094 6.02729 12.0494 5.86793 12.0494C5.20771 12.0494 4.68408 10.1356 4.68408 7.77833C4.68408 5.42107 5.20771 3.50726 5.86793 3.50726C6.02729 3.50726 6.18666 3.62396 6.32326 3.83401" stroke="#262E30" stroke-width="0.5" stroke-miterlimit="10" stroke-linecap="round"/>
<path d="M10.6658 12.9518C11.4328 12.9518 12.0546 10.6843 12.0546 7.88723C12.0546 5.09013 11.4328 2.82263 10.6658 2.82263C9.89886 2.82263 9.2771 5.09013 9.2771 7.88723C9.2771 10.6843 9.89886 12.9518 10.6658 12.9518Z" fill="#CECECE" stroke="#262E30" stroke-width="0.5" stroke-miterlimit="10"/>
<path d="M4.15364 11.9949C3.92598 12.5784 3.65278 12.9285 3.33406 12.9285C2.56 12.9285 1.94531 10.6646 1.94531 7.86389C1.94531 5.06319 2.58277 2.82263 3.35682 2.82263C3.67555 2.82263 3.97151 3.2194 4.19918 3.87289" stroke="#262E30" stroke-width="0.5" stroke-miterlimit="10" stroke-linecap="round"/>
</svg>
