<svg xmlns="http://www.w3.org/2000/svg" width="18" height="18" viewBox="0 0 18 18"><path d="M16.5.5h-5a3,3,0,0,0-3,3h0" style="fill:none;stroke:#949494;stroke-linecap:square;stroke-linejoin:round"/><rect x="5.5" y="4.5" width="6" height="7" rx="1" style="fill:none;stroke:#949494;stroke-linecap:square;stroke-linejoin:round"/><circle cx="8.5" cy="8.5" r="1" style="fill:none;stroke:#949494;stroke-linecap:square;stroke-linejoin:round"/><polyline points="7.5 11.5 8.5 12.5 8.5 12.5 9.5 11.5" style="fill:none;stroke:#949494;stroke-linecap:square;stroke-linejoin:round"/><line x1="5.5" y1="16.5" x2="8.5" y2="14.5" style="fill:none;stroke:#009688;stroke-linecap:square;stroke-linejoin:round"/><line x1="11.5" y1="16.5" x2="8.5" y2="14.5" style="fill:none;stroke:#009688;stroke-linecap:square;stroke-linejoin:round"/><path d="M8.5,3.5h0a3,3,0,0,0-3-3H.5" style="fill:none;stroke:#009688;stroke-linecap:square;stroke-linejoin:round"/><line x1="2.5" y1="11.5" x2="2.5" y2="13.5" style="fill:none;stroke:#949494;stroke-linecap:square;stroke-linejoin:round"/><line x1="14.5" y1="3.5" x2="14.5" y2="5.5" style="fill:none;stroke:#949494;stroke-linecap:square;stroke-linejoin:round"/><path d="M14.673,3.411a8,8,0,0,1,0,10.178" style="fill:none;stroke:#949494;stroke-linecap:round;stroke-linejoin:round"/><path d="M2.255,13.5A8,8,0,0,1,2.5,3.209" style="fill:none;stroke:#949494;stroke-linecap:round;stroke-linejoin:round"/></svg>