<svg xmlns="http://www.w3.org/2000/svg" width="18" height="18" viewBox="0 0 18 18"><rect x="10.5" y="8.5" width="6" height="7" rx="1" style="fill:none;stroke:#949494;stroke-linecap:round;stroke-linejoin:round"/><circle cx="13.5" cy="12.5" r="1" style="fill:none;stroke:#949494;stroke-linecap:round;stroke-linejoin:round"/><polyline points="12.5 15.5 13.5 16.5 13.5 16.5 14.5 15.5" style="fill:none;stroke:#949494;stroke-linecap:round;stroke-linejoin:round"/><rect x="0.5" y="0.5" width="6" height="7" rx="1" style="fill:none;stroke:#009688;stroke-linecap:round;stroke-linejoin:round"/><circle cx="3.5" cy="4.5" r="1" style="fill:none;stroke:#009688;stroke-linecap:round;stroke-linejoin:round"/><polyline points="2.5 7.5 3.5 8.5 3.5 8.5 4.5 7.5" style="fill:none;stroke:#009688;stroke-linecap:round;stroke-linejoin:round"/><line x1="10.5" y1="5.5" x2="8.5" y2="3.5" style="fill:none;stroke:#949494;stroke-linecap:round;stroke-linejoin:round"/><line x1="10.5" y1="1.5" x2="8.5" y2="3.5" style="fill:none;stroke:#949494;stroke-linecap:round;stroke-linejoin:round"/><line x1="6.5" y1="11.5" x2="8.5" y2="13.5" style="fill:none;stroke:#009688;stroke-linecap:round;stroke-linejoin:round"/><line x1="6.5" y1="15.5" x2="8.5" y2="13.5" style="fill:none;stroke:#009688;stroke-linecap:round;stroke-linejoin:round"/><path d="M13.5,6.5v-2a1,1,0,0,0-1-1h-4" style="fill:none;stroke:#949494;stroke-linecap:round;stroke-linejoin:round"/><path d="M8.5,13.5h-4a1,1,0,0,1-1-1v-2" style="fill:none;stroke:#009688;stroke-linecap:round;stroke-linejoin:round"/></svg>