<svg xmlns="http://www.w3.org/2000/svg" viewBox="0 0 24 24"><path d="M13.5,22.5l-2-5m2-4-2,4m1.15,2.88L17.5,16.5m-1-3v3.8m1-.8h2m1-3-1,3m-2,4L14,19.32M11.5,17.5l-4-4m6,0-3-6m2-4-2,4m4,1-2,3m4,3,2-3m-9,4-4,1m-2-3,2,3m2-3,1-3m-2-3,2,3m-5,3,1-2m15-4,3-2m-4-1,2.18,2.18M14.5,5.5l4-1m1,3v1m-2,1,2-1m-4-5,2,1m-11,18-1-2m3,0-2,1m-2-2,1,1m1-2-1,2m15-1,2-2m-4,1,2,1m-12-14-3-1m-4,3,3-1m1-2-1,2m4-3,1-2m-6,16,2-1m-1-14,1,2m-3,3,1,1" style="fill:none;stroke:#009688;stroke-linecap:round;stroke-linejoin:round"/><rect x="1.5" y="1.5" width="21" height="21" rx="2" transform="translate(24 24) rotate(180)" style="fill:none;stroke:#949494;stroke-linecap:round;stroke-linejoin:round"/></svg>