<svg width="200" height="200" viewBox="0 0 200 200" fill="none" xmlns="http://www.w3.org/2000/svg">
<g clip-path="url(#clip0_1314_965)">
<path d="M151.1 99.8C151.1 114 145.3 126.8 136 136C126.9 145.1 114.3 150.6 100.4 150.6C86.6002 150.6 74.0002 145 64.8002 136C55.5002 126.8 49.7002 114 49.7002 99.8C49.7002 71.7 72.4002 49 100.4 49C128.4 49 151.1 71.8 151.1 99.8Z" fill="#F7F7F7"/>
<path fill-rule="evenodd" clip-rule="evenodd" d="M100.4 50C72.9538 50 50.7002 72.251 50.7002 99.8C50.7002 113.721 56.3845 126.267 65.5017 135.287C74.5247 144.113 86.8764 149.6 100.4 149.6C114.032 149.6 126.378 144.208 135.293 135.293L135.297 135.289C144.415 126.269 150.1 113.722 150.1 99.8C150.1 72.3497 127.845 50 100.4 50ZM48.7002 99.8C48.7002 71.149 71.8466 48 100.4 48C128.955 48 152.1 71.2503 152.1 99.8C152.1 114.278 146.186 127.33 136.705 136.71C127.42 145.993 114.568 151.6 100.4 151.6C86.3251 151.6 73.4777 145.888 64.1009 136.715L64.0969 136.711C54.6151 127.331 48.7002 114.278 48.7002 99.8Z" fill="#DBDBDB"/>
<path d="M93.3692 54.2109L89.6083 67.4761L98.6108 73.7153L97.9777 88.9569L109.341 68.1032L104.063 63.8865L110.099 54.2109H116.875L137.375 76.5109L138.175 140.911C138.175 143.111 136.375 144.811 134.175 144.811H71.3751C69.175 144.811 67.375 143.011 67.375 140.911V58.111C67.375 55.9109 69.175 54.2109 71.3751 54.2109H93.3692Z" fill="white"/>
<path fill-rule="evenodd" clip-rule="evenodd" d="M71.3751 55.2109C69.6939 55.2109 68.375 56.496 68.375 58.111V140.911C68.375 142.442 69.7108 143.811 71.3751 143.811H134.175C135.854 143.811 137.172 142.529 137.175 140.917C137.175 140.915 137.175 140.913 137.175 140.911L136.38 76.906L116.436 55.2109H110.654L105.382 63.6607L109.965 67.3219C110.344 67.6247 110.451 68.1558 110.219 68.5817L98.8558 89.4354C98.6334 89.8436 98.1589 90.0447 97.7108 89.9206C97.2627 89.7965 96.9593 89.38 96.9786 88.9154L97.5888 74.2237L89.0387 68.298C88.6874 68.0545 88.5297 67.6146 88.6463 67.2033L92.0463 55.2109H71.3751ZM66.375 58.111C66.375 55.3259 68.6561 53.2109 71.3751 53.2109H93.3692C93.6826 53.2109 93.9779 53.3579 94.1669 53.6079C94.3559 53.858 94.4168 54.1822 94.3313 54.4837L90.7654 67.0613L99.1804 72.8934C99.4621 73.0886 99.6241 73.4144 99.6099 73.7568L99.1551 84.706L108.061 68.3611L103.438 64.6677C103.042 64.351 102.946 63.7877 103.214 63.3572L109.25 53.6816C109.433 53.3889 109.754 53.2109 110.099 53.2109H116.875C117.155 53.2109 117.422 53.3282 117.611 53.5342L138.111 75.8342C138.278 76.0156 138.372 76.2521 138.375 76.4985L139.175 140.911C139.175 143.696 136.894 145.811 134.175 145.811H71.3751C68.6392 145.811 66.375 143.58 66.375 140.911V58.111Z" fill="#DBDBDB"/>
<path d="M146.7 66.4998C148.964 66.4998 150.8 64.6642 150.8 62.3998C150.8 60.1354 148.964 58.2998 146.7 58.2998C144.435 58.2998 142.6 60.1354 142.6 62.3998C142.6 64.6642 144.435 66.4998 146.7 66.4998Z" fill="#EBEBEB"/>
<path d="M152.7 50.4999C154.247 50.4999 155.5 49.2463 155.5 47.6999C155.5 46.1535 154.247 44.8999 152.7 44.8999C151.154 44.8999 149.9 46.1535 149.9 47.6999C149.9 49.2463 151.154 50.4999 152.7 50.4999Z" fill="#EBEBEB"/>
<path d="M51.3 66.3998C52.8464 66.3998 54.1 65.1462 54.1 63.5998C54.1 62.0534 52.8464 60.7998 51.3 60.7998C49.7536 60.7998 48.5 62.0534 48.5 63.5998C48.5 65.1462 49.7536 66.3998 51.3 66.3998Z" fill="#EBEBEB"/>
<path d="M34.2 120.4C37.0719 120.4 39.4 118.072 39.4 115.2C39.4 112.328 37.0719 110 34.2 110C31.3281 110 29 112.328 29 115.2C29 118.072 31.3281 120.4 34.2 120.4Z" fill="#EBEBEB"/>
<path d="M89.2291 67.7108H77.1291C76.4291 67.7108 75.8291 67.1108 75.8291 66.4108C75.8291 65.7108 76.4291 65.1108 77.1291 65.1108H89.2291C89.9291 65.1108 90.5291 65.7108 90.5291 66.4108C90.5291 67.1108 89.9291 67.7108 89.2291 67.7108Z" fill="#DBDBDB"/>
<path d="M88.7291 74.911H77.1291C76.4291 74.911 75.8291 74.311 75.8291 73.611C75.8291 72.911 76.4291 72.311 77.1291 72.311H88.6291C89.3291 72.311 89.9291 72.911 89.9291 73.611C89.9291 74.311 89.3291 74.911 88.7291 74.911Z" fill="#DBDBDB"/>
<path d="M116.029 54.2109V72.0109C116.029 74.5109 118.229 76.5109 120.729 76.5109H136.529" fill="#DBDBDB"/>
<path d="M89.9799 48.2657L86.1982 42.5732" stroke="#C2C2C2" stroke-width="2"/>
<path d="M100.065 45.4195L100.51 31" stroke="#C2C2C2" stroke-width="2"/>
<path d="M109.107 48.4L115.144 35.2974" stroke="#C2C2C2" stroke-width="2"/>
<path d="M88.5713 120.379C88.1513 120.379 87.8152 120.211 87.4792 119.959C86.8911 119.371 86.8911 118.363 87.4792 117.775C91.3437 113.994 96.4685 111.894 101.929 111.894C107.39 111.894 112.515 113.994 116.38 117.775C116.968 118.363 116.968 119.371 116.38 119.959C115.791 120.547 114.783 120.547 114.195 119.959C110.919 116.682 106.55 114.918 101.929 114.918C97.3086 114.918 92.94 116.682 89.6635 119.959C89.3274 120.211 88.9914 120.379 88.5713 120.379Z" fill="#C2C2C2"/>
<path d="M93.8641 97.8636L95.8804 95.8473C96.4685 95.2592 96.4685 94.2511 95.8804 93.663C95.2923 93.0749 94.2842 93.0749 93.6961 93.663L91.6798 95.6793L89.6635 93.663C89.0754 93.0749 88.0672 93.0749 87.4792 93.663C86.8911 94.2511 86.8911 95.2592 87.4792 95.8473L89.4955 97.8636L87.4792 99.8799C86.8911 100.468 86.8911 101.476 87.4792 102.064C87.8152 102.4 88.1513 102.484 88.5713 102.484C88.9914 102.484 89.3274 102.316 89.6635 102.064L91.6798 100.048L93.6961 102.064C94.0322 102.4 94.3682 102.484 94.7883 102.484C95.2083 102.484 95.5444 102.316 95.8804 102.064C96.4685 101.476 96.4685 100.468 95.8804 99.8799L93.8641 97.8636Z" fill="#C2C2C2"/>
<path d="M114.279 97.8636L116.295 95.8473C116.884 95.2592 116.884 94.2511 116.295 93.663C115.707 93.0749 114.699 93.0749 114.111 93.663L112.095 95.6793L110.079 93.663C109.49 93.0749 108.482 93.0749 107.894 93.663C107.306 94.2511 107.306 95.2592 107.894 95.8473L109.91 97.8636L107.894 99.8799C107.306 100.468 107.306 101.476 107.894 102.064C108.23 102.4 108.566 102.484 108.986 102.484C109.406 102.484 109.742 102.316 110.079 102.064L112.095 100.048L114.111 102.064C114.447 102.4 114.783 102.484 115.203 102.484C115.623 102.484 115.959 102.316 116.295 102.064C116.884 101.476 116.884 100.468 116.295 99.8799L114.279 97.8636Z" fill="#C2C2C2"/>
</g>
<defs>
<clipPath id="clip0_1314_965">
<rect width="200" height="160" fill="white" transform="translate(0 20)"/>
</clipPath>
</defs>
</svg>
