<?xml version="1.0" encoding="UTF-8"?><svg id="a" xmlns="http://www.w3.org/2000/svg" width="16" height="16" viewBox="0 0 16 16"><path d="M13.31,8.16c.83.83,1.44,2.07,1.05,2.46s-1.63-.22-2.46-1.05-1.44-2.07-1.05-2.46,1.63.22,2.46,1.05Z" style="fill:none; stroke:#009688; stroke-linecap:round; stroke-linejoin:round;"/><path d="M10.91,7.05l-4.3,4.3c-.39.39.22,1.63,1.05,2.46s2.07,1.44,2.46,1.05l.03.03,4.27-4.33" style="fill:none; stroke:#009688; stroke-linecap:round; stroke-linejoin:round;"/><path d="M1.66,1.55c.75-.75,1.86-1.29,2.21-.94s-.19,1.46-.94,2.21-1.86,1.29-2.21.94.19-1.46.94-2.21Z" style="fill:none; stroke:#009688; stroke-linecap:round; stroke-linejoin:round;"/><path d="M.67,3.7l3.86,3.86c.35.35,1.46-.19,2.21-.94s1.29-1.86.94-2.21l.03-.03L3.81.56" style="fill:none; stroke:#009688; stroke-linecap:round; stroke-linejoin:round;"/><line x1="8.5" y1=".5" x2="9.5" y2="1.5" style="fill:none; stroke:#949494; stroke-linecap:round; stroke-linejoin:round;"/><line x1="10.5" y1="4.5" x2="11.5" y2="3.5" style="fill:none; stroke:#949494; stroke-linecap:round; stroke-linejoin:round;"/><line x1="13.5" y1="1.5" x2="14.5" y2="2.5" style="fill:none; stroke:#949494; stroke-linecap:round; stroke-linejoin:round;"/><line x1="1.5" y1="8.5" x2=".5" y2="9.5" style="fill:none; stroke:#949494; stroke-linecap:round; stroke-linejoin:round;"/><line x1="3.5" y1="10.5" x2="4.5" y2="11.5" style="fill:none; stroke:#949494; stroke-linecap:round; stroke-linejoin:round;"/><line x1="4.5" y1="14.5" x2="5.5" y2="14.5" style="fill:none; stroke:#949494; stroke-linecap:round; stroke-linejoin:round;"/><line x1=".5" y1="13.5" x2="1.5" y2="14.5" style="fill:none; stroke:#949494; stroke-linecap:round; stroke-linejoin:round;"/><line x1="14.5" y1="4.5" x2="14.5" y2="5.5" style="fill:none; stroke:#949494; stroke-linecap:round; stroke-linejoin:round;"/><circle cx="1.5" cy="11.5" r=".5" style="fill:#949494;"/><circle cx=".5" cy="6.5" r=".5" style="fill:#949494;"/><circle cx="11.5" cy=".5" r=".5" style="fill:#949494;"/><circle cx="14.5" cy="14.5" r=".5" style="fill:#949494;"/></svg>