<?xml version="1.0" encoding="utf-8"?>
<!-- Generator: Adobe Illustrator 25.0.0, SVG Export Plug-In . SVG Version: 6.00 Build 0)  -->
<svg version="1.1" id="Layer_2" xmlns="http://www.w3.org/2000/svg" xmlns:xlink="http://www.w3.org/1999/xlink" x="0px" y="0px"
	 viewBox="0 0 16 16" style="enable-background:new 0 0 16 16;" xml:space="preserve">
<style type="text/css">
	.st0{fill:#6B6B6B;}
	.st1{fill:#009688;}
</style>
<path class="st0" d="M3.1,9C3.1,9,3,9,3,9C2.5,9,1.8,8.6,1.3,8C0.6,7,0.4,6,0.9,5.5l4.9-4c0,0,0,0,0,0l0,0C6,1.4,6.2,1.3,6.5,1.3
	C7,1.4,7.6,1.8,8.1,2.4c0.4,0.4,0.6,0.9,0.7,1.3c0.1,0.5,0,0.9-0.3,1.1c0,0,0,0,0,0l-4.9,4C3.5,9,3.3,9,3.1,9z M5.5,2.3L1.2,5.8
	C0.9,6.1,1,6.9,1.6,7.7c0.4,0.5,1,0.9,1.4,0.9c0.2,0,0.3,0,0.4-0.1L7.8,5C7.7,5,7.5,4.9,7.4,4.9C7,4.7,6.6,4.4,6.2,3.9
	C5.8,3.4,5.5,2.8,5.5,2.3z M6.1,1.8L6.1,1.8C6,1.9,5.9,2,5.9,2.1c0,0.4,0.2,1,0.6,1.6c0.3,0.4,0.7,0.7,1,0.8c0.3,0.1,0.6,0.1,0.7,0
	l0,0c0.2-0.1,0.2-0.4,0.1-0.7C8.4,3.4,8.1,3,7.8,2.6c-0.4-0.5-1-0.9-1.4-0.9C6.3,1.7,6.2,1.7,6.1,1.8L6.1,1.8z"/>
<path class="st0" d="M11.5,6.6C11.5,6.6,11.5,6.6,11.5,6.6c-0.3,0.2-0.6,0.2-1,0.1C10,6.6,9.6,6.2,9.7,5.9L10.4,3c0,0,0,0,0,0l0,0
	c0-0.1,0.1-0.2,0.2-0.2c0.2-0.1,0.6-0.2,0.9-0.1C11.8,2.8,12,2.9,12.1,3c0.2,0.2,0.2,0.3,0.2,0.5c0,0,0,0,0,0l-0.7,2.9
	C11.6,6.5,11.6,6.5,11.5,6.6z M10.5,3.4L9.9,5.9c0,0.2,0.2,0.5,0.7,0.6c0.3,0.1,0.6,0.1,0.8,0c0.1,0,0.1-0.1,0.1-0.1l0.6-2.6
	c0,0-0.1,0-0.2,0.1c-0.2,0.1-0.5,0-0.7,0C10.9,3.7,10.6,3.6,10.5,3.4z M10.6,3.1L10.6,3.1c0,0.1,0,0.1,0,0.2
	c0.1,0.2,0.4,0.3,0.7,0.4c0.2,0.1,0.4,0.1,0.6,0c0.2,0,0.3-0.1,0.3-0.2l0,0c0-0.1,0-0.2-0.2-0.3c-0.1-0.1-0.3-0.2-0.6-0.3
	c-0.3-0.1-0.6-0.1-0.8,0C10.6,3,10.6,3,10.6,3.1L10.6,3.1z"/>
<path class="st0" d="M3.5,10.5C3.5,10.5,3.5,10.5,3.5,10.5c0.1-0.3,0.4-0.5,0.8-0.6c0.5-0.2,1-0.1,1.1,0.2L6.3,13c0,0,0,0,0,0l0,0
	c0,0.1,0,0.2,0,0.3c-0.1,0.2-0.4,0.4-0.7,0.5C5.3,14,5,14,4.8,13.9c-0.2,0-0.4-0.1-0.4-0.3c0,0,0,0,0,0l-0.9-2.8
	C3.5,10.7,3.5,10.6,3.5,10.5z M6.1,12.8l-0.8-2.5c-0.1-0.2-0.4-0.3-0.9-0.1c-0.3,0.1-0.6,0.3-0.6,0.4c0,0.1,0,0.1,0,0.2l0.8,2.5
	c0,0,0.1-0.1,0.1-0.1c0.1-0.1,0.4-0.3,0.6-0.4C5.5,12.7,5.8,12.7,6.1,12.8z M6.2,13.1L6.2,13.1C6.1,13,6.1,13,6,13
	c-0.2-0.1-0.5-0.1-0.8,0C5,13,4.8,13.1,4.7,13.3c-0.1,0.1-0.2,0.2-0.1,0.3l0,0c0,0.1,0.1,0.2,0.3,0.2c0.2,0,0.4,0,0.6-0.1
	c0.3-0.1,0.6-0.3,0.6-0.4C6.2,13.2,6.2,13.1,6.2,13.1L6.2,13.1z"/>
<path class="st1" d="M2.2,12.2C2.2,12.2,2.2,12.2,2.2,12.2c-0.1,0.1-0.3,0.1-0.5,0.1c-0.3-0.1-0.5-0.2-0.4-0.4l0.4-1.5c0,0,0,0,0,0
	l0,0c0-0.1,0-0.1,0.1-0.1c0.1-0.1,0.3-0.1,0.5,0c0.1,0,0.2,0.1,0.3,0.2c0.1,0.1,0.1,0.2,0.1,0.3c0,0,0,0,0,0l-0.4,1.5
	C2.3,12.1,2.3,12.2,2.2,12.2z M1.7,10.5l-0.3,1.3c0,0.1,0.1,0.2,0.4,0.3c0.2,0,0.3,0,0.4,0c0,0,0.1,0,0.1-0.1l0.3-1.3
	c0,0-0.1,0-0.1,0c-0.1,0-0.2,0-0.4,0C1.9,10.7,1.8,10.6,1.7,10.5z"/>
<path class="st1" d="M14.9,6.4C14.9,6.5,14.9,6.5,14.9,6.4c0,0.2-0.1,0.3-0.2,0.5c-0.2,0.2-0.4,0.3-0.6,0.2l-1.1-1c0,0,0,0,0,0l0,0
	c0,0-0.1-0.1-0.1-0.2c0-0.1,0.1-0.3,0.2-0.4c0.1-0.1,0.2-0.2,0.3-0.2c0.1,0,0.2,0,0.3,0c0,0,0,0,0,0l1.1,1
	C14.9,6.4,14.9,6.4,14.9,6.4z M13.2,6.1l1,0.9c0.1,0.1,0.3,0,0.4-0.2c0.1-0.1,0.2-0.3,0.2-0.4c0,0,0-0.1,0-0.1l-1-0.9
	c0,0,0,0.1,0,0.1c0,0.1-0.1,0.2-0.2,0.3C13.4,6,13.3,6.1,13.2,6.1z"/>
<path class="st1" d="M15.2,2.5C15.2,2.5,15.2,2.5,15.2,2.5c0,0.2-0.1,0.3-0.2,0.5c-0.2,0.2-0.4,0.3-0.6,0.2l-1.1-1c0,0,0,0,0,0l0,0
	c0,0-0.1-0.1-0.1-0.2c0-0.1,0.1-0.3,0.2-0.4c0.1-0.1,0.2-0.2,0.3-0.2c0.1,0,0.2,0,0.3,0c0,0,0,0,0,0l1.1,1
	C15.1,2.4,15.1,2.5,15.2,2.5z M13.4,2.2l1,0.9c0.1,0.1,0.3,0,0.4-0.2c0.1-0.1,0.2-0.3,0.2-0.4c0,0,0-0.1,0-0.1l-1-0.9
	c0,0,0,0.1,0,0.1c0,0.1-0.1,0.2-0.2,0.3C13.7,2.1,13.6,2.2,13.4,2.2z"/>
<path class="st1" d="M2.9,2C2.9,2,2.9,2,2.9,2c0,0.2-0.1,0.3-0.2,0.5C2.5,2.7,2.2,2.7,2.1,2.6L1,1.6c0,0,0,0,0,0l0,0
	c0,0-0.1-0.1-0.1-0.2C0.9,1.3,1,1.1,1.1,1c0.1-0.1,0.2-0.2,0.3-0.2c0.1,0,0.2,0,0.3,0c0,0,0,0,0,0l1.1,1C2.8,1.9,2.9,1.9,2.9,2z
	 M1.1,1.6l1,0.9c0.1,0.1,0.3,0,0.4-0.2C2.7,2.3,2.8,2.1,2.8,2c0,0,0-0.1,0-0.1L1.7,1c0,0,0,0.1,0,0.1c0,0.1-0.1,0.2-0.2,0.3
	C1.4,1.5,1.3,1.6,1.1,1.6z"/>
<path class="st0" d="M6.6,9.9c0,0,0-0.1,0-0.1c0-0.5,0.3-1.2,0.8-1.8c0.8-0.9,1.8-1.2,2.3-0.7l4.6,4.3c0,0,0,0,0,0l0,0
	c0.2,0.1,0.2,0.4,0.3,0.6c0,0.5-0.3,1.2-0.8,1.8c-0.4,0.4-0.8,0.7-1.2,0.9c-0.5,0.2-0.9,0.1-1.1-0.1c0,0,0,0,0,0l-4.6-4.3
	C6.7,10.3,6.6,10.1,6.6,9.9z M13.6,11.4L9.4,7.6c-0.3-0.3-1.1,0-1.8,0.7C7.2,8.8,6.9,9.4,6.9,9.8c0,0.2,0.1,0.3,0.1,0.3l4.1,3.8
	c0-0.1,0-0.2,0.1-0.3c0.1-0.4,0.4-0.9,0.8-1.3C12.5,11.8,13.1,11.5,13.6,11.4z M14.1,11.9L14.1,11.9c-0.1-0.1-0.2-0.1-0.4-0.1
	c-0.4,0-1,0.3-1.4,0.8c-0.3,0.4-0.6,0.8-0.7,1.1c-0.1,0.3-0.1,0.6,0.1,0.7l0,0c0.1,0.1,0.4,0.1,0.7,0c0.4-0.1,0.7-0.4,1.1-0.8
	c0.5-0.5,0.7-1.1,0.7-1.5C14.2,12.1,14.2,11.9,14.1,11.9L14.1,11.9z"/>
</svg>
