<svg width="9" height="52" viewBox="0 0 9 52" fill="none" xmlns="http://www.w3.org/2000/svg">
<path fill-rule="evenodd" clip-rule="evenodd" d="M7.52713 2.22441C7.52713 2.22436 7.52713 2.22431 7.52713 2.22426C7.52713 1.1339 6.02308 0.25 4.16775 0.25C2.31242 0.25 0.80838 1.1339 0.80838 2.22426C0.80838 2.22679 0.808388 2.22933 0.808405 2.23186V50.9227H7.52715V2.22441H7.52713Z" fill="url(#paint0_linear_17771_23047)" fill-opacity="0.2"/>
<line x1="7.78808" y1="1.90944" x2="7.78808" y2="50.8449" stroke="url(#paint1_linear_17771_23047)" stroke-width="0.522015" stroke-linecap="round"/>
<line x1="0.789816" y1="1.90944" x2="0.789818" y2="50.8449" stroke="url(#paint2_linear_17771_23047)" stroke-width="0.522015" stroke-linecap="round"/>
<path d="M2.3958 23.5781L3.893 25.0753C4.09686 25.2792 4.42738 25.2792 4.63124 25.0753L6.12844 23.5781" stroke="#00AE42" stroke-width="1.04403" stroke-linecap="round"/>
<path d="M2.3958 35.2441L3.893 36.7413C4.09686 36.9452 4.42738 36.9452 4.63124 36.7413L6.12844 35.2441" stroke="#00AE42" stroke-width="1.04403" stroke-linecap="round"/>
<path d="M2.3958 44.1094L3.94891 45.2742C4.13451 45.4134 4.38972 45.4134 4.57533 45.2742L6.12844 44.1094" stroke="#00AE42" stroke-width="1.04403" stroke-linecap="round"/>
<defs>
<linearGradient id="paint0_linear_17771_23047" x1="4.16777" y1="0.25" x2="4.16777" y2="50.9227" gradientUnits="userSpaceOnUse">
<stop stop-color="#A5F960" stop-opacity="0"/>
<stop offset="1" stop-color="#00AE42"/>
</linearGradient>
<linearGradient id="paint1_linear_17771_23047" x1="7.52707" y1="49.2037" x2="7.52707" y2="1.64844" gradientUnits="userSpaceOnUse">
<stop stop-color="#00AE42"/>
<stop offset="1" stop-color="#A5F960" stop-opacity="0"/>
</linearGradient>
<linearGradient id="paint2_linear_17771_23047" x1="0.528814" y1="49.2037" x2="0.52881" y2="1.64844" gradientUnits="userSpaceOnUse">
<stop stop-color="#00AE42"/>
<stop offset="1" stop-color="#A5F960" stop-opacity="0"/>
</linearGradient>
</defs>
</svg>
