<svg width="168" height="168" viewBox="0 0 168 168" fill="none" xmlns="http://www.w3.org/2000/svg">
<rect width="168" height="168" rx="5" fill="#F8F8F8"/>
<path d="M53 51.1367C53 49.4799 54.3431 48.1367 56 48.1367H85H99.0608L106.394 59.2363L117 66.3698V84.6028V118.069C117 119.726 115.657 121.069 114 121.069H56C54.3431 121.069 53 119.726 53 118.069V51.1367Z" fill="#4C7CDB"/>
<path d="M98.9473 48L107.813 57.0281L116.999 66.0522H98.9473V48Z" fill="#3264C7"/>
<path d="M81.1445 74.9102H85.0016V78.7672H81.1445V74.9102Z" fill="#4C7CDB"/>
<path d="M85.002 78.7695H88.859V82.6266H85.002V78.7695Z" fill="#4C7CDB"/>
<path d="M81.1445 82.625H85.0016V86.482H81.1445V82.625Z" fill="#4C7CDB"/>
<path d="M85.002 86.4805H88.859V90.3375H85.002V86.4805Z" fill="#4C7CDB"/>
<path fill-rule="evenodd" clip-rule="evenodd" d="M78.1074 96.4461C78.1074 96.0595 78.4208 95.7461 78.8074 95.7461H91.192C91.5786 95.7461 91.892 96.0595 91.892 96.4461V101.793C91.892 102.179 91.5786 102.493 91.192 102.493H78.8074C78.4208 102.493 78.1074 102.179 78.1074 101.793V96.4461ZM79.1074 96.7461V101.493H90.892V96.7461H79.1074Z" fill="#4C7CDB"/>
<path fill-rule="evenodd" clip-rule="evenodd" d="M67 73.5C67 72.6716 67.6716 72 68.5 72H84.5C85.3284 72 86 72.6716 86 73.5C86 74.3284 85.3284 75 84.5 75H68.5C67.6716 75 67 74.3284 67 73.5Z" fill="white"/>
<path fill-rule="evenodd" clip-rule="evenodd" d="M67 87.5C67 86.6716 67.6716 86 68.5 86H100.5C101.328 86 102 86.6716 102 87.5C102 88.3284 101.328 89 100.5 89H68.5C67.6716 89 67 88.3284 67 87.5Z" fill="white"/>
<path fill-rule="evenodd" clip-rule="evenodd" d="M67 103.5C67 102.672 67.6716 102 68.5 102H100.5C101.328 102 102 102.672 102 103.5C102 104.328 101.328 105 100.5 105H68.5C67.6716 105 67 104.328 67 103.5Z" fill="white"/>
</svg>
