<svg width="300" height="300" xmlns="http://www.w3.org/2000/svg" fill="none">
 <g>
  <title>Layer 1</title>
  <rect y="0.18359" width="300" height="300" rx="5" fill="#F8F8F8" id="svg_1"/>
  <g id="svg_11">
   <path id="svg_2" fill="#6B6B6B" d="m181.7133,206.00351l-71.15118,0c-0.89125,0 -1.48541,-0.594 -1.48541,-1.485l0,-99.3741c0,-5.79305 4.75329,-10.54637 10.54639,-10.54637l39.9576,0c0.8912,0 1.4854,0.59417 1.4854,1.48541c0,0.89125 -0.5942,1.48541 -1.4854,1.48541l-39.9576,0c-4.1591,0 -7.57557,3.41645 -7.57557,7.57555l0,97.8891l69.66577,0c4.1592,0 7.5756,-3.417 7.5756,-7.576l0,-77.0929c0,-0.8912 0.5942,-1.4854 1.4854,-1.4854c0.8913,0 1.4854,0.5942 1.4854,1.4854l0,77.0929c0,5.942 -4.7533,10.546 -10.5464,10.546z"/>
   <path id="svg_3" fill="#6B6B6B" d="m167.4527,120.59131c-0.4456,0 -0.7427,-0.1485 -1.0397,-0.4456c-0.2971,-0.2971 -0.4457,-0.5941 -0.4457,-1.0398l0.2971,-23.618c0,-0.59417 0.2971,-1.18833 0.8913,-1.33687c0.5941,-0.29708 1.1883,-0.14854 1.6339,0.29708l23.4695,23.46949c0.4456,0.4456 0.5942,1.0398 0.2971,1.634c-0.2971,0.5941 -0.7427,0.8912 -1.3369,0.8912l-23.7666,0.1485c0.1486,0 0.1486,0 0,0zm1.7825,-21.53841l-0.1485,18.56761l18.5676,-0.1485l-18.4191,-18.41911z"/>
   <path id="svg_4" fill="#919191" d="m193.2998,187.43441l-86.74805,0c-1.7825,0 -3.41645,-1.4855 -3.41645,-3.4165l0,-27.3315c0,-1.7825 1.48541,-3.4165 3.41645,-3.4165l86.89655,0c1.7825,0 3.4164,1.4854 3.4164,3.4165l0,27.4801c-0.1485,1.7824 -1.6339,3.2679 -3.5649,3.2679z"/>
   <path id="svg_5" fill="white" d="m127.3483,162.48081l14.8541,0l0,3.2679l-5.6446,0l0,15.1512l-3.7135,0l0,-15.1512l-5.6445,0l0,-3.2679l0.1485,0z"/>
   <path id="svg_6" fill="white" d="m160.0283,162.48081l-6.3873,8.9125l6.8329,9.5066l-4.6048,0l-4.4562,-6.5358l-4.4562,6.5358l-4.3077,0l6.8329,-9.358l-6.5358,-9.0611l4.4562,0l4.3077,6.0902l4.3077,-6.0902l4.0106,0z"/>
   <path id="svg_7" fill="white" d="m160.7702,162.48081l14.8541,0l0,3.2679l-5.6446,0l0,15.1512l-3.7135,0l0,-15.1512l-5.6446,0l0,-3.2679l0.1486,0z"/>
   <path id="svg_8" fill="#6B6B6B" d="m147.6978,118.36181l-23.7665,0c-0.8913,0 -1.4855,-0.5941 -1.4855,-1.4854c0,-0.8912 0.5942,-1.4854 1.4855,-1.4854l23.7665,0c0.8913,0 1.4854,0.5942 1.4854,1.4854c0,0.8913 -0.5941,1.4854 -1.4854,1.4854z"/>
   <path id="svg_9" fill="#6B6B6B" d="m172.9498,139.15871l-49.0185,0c-0.8913,0 -1.4855,-0.5942 -1.4855,-1.4854c0,-0.8913 0.5942,-1.4854 1.4855,-1.4854l49.0185,0c0.8913,0 1.4854,0.5941 1.4854,1.4854c0,0.8912 -0.5941,1.4854 -1.4854,1.4854z"/>
  </g>
 </g>

</svg>