<svg width="300" height="300" xmlns="http://www.w3.org/2000/svg" fill="none">
 <g>
  <title>Layer 1</title>
  <rect y="0.18359" width="300" height="300" rx="5" fill="#F8F8F8" id="svg_1"/>
  <g id="svg_11">
   <path d="m181.19115,206.00378l-69.9793,0c-0.87657,0 -1.46095,-0.594 -1.46095,-1.486l0,-99.3736c0,-5.79309 4.67505,-10.5464 10.37275,-10.5464l39.2994,0c0.8766,0 1.461,0.59416 1.461,1.48541c0,0.89125 -0.5844,1.48541 -1.461,1.48541l-39.2994,0c-4.0907,0 -7.45086,3.41645 -7.45086,7.57558l0,97.8886l68.51836,0c4.0907,0 7.4508,-3.416 7.4508,-7.576l0,-77.0924c0,-0.8913 0.5844,-1.4854 1.461,-1.4854c0.8765,0 1.4609,0.5941 1.4609,1.4854l0,77.0924c0,5.942 -4.675,10.547 -10.3727,10.547z" fill="#6B6B6B" id="svg_1"/>
   <path d="m167.16695,120.59108c-0.4383,0 -0.7305,-0.1485 -1.0227,-0.4456c-0.2922,-0.2971 -0.4383,-0.5942 -0.4383,-1.0398l0.2922,-23.61803c0,-0.59417 0.2922,-1.18833 0.8766,-1.33687c0.5844,-0.29708 1.1687,-0.14854 1.607,0.29708l23.083,23.46952c0.4383,0.4456 0.5844,1.0398 0.2922,1.6339c-0.2922,0.5942 -0.7305,0.8913 -1.3149,0.8913l-23.3751,0.1485c0.1461,0 0.1461,0 0,0zm1.7531,-21.53845l-0.1461,18.56765l18.2618,-0.1485l-18.1157,-18.41915z" fill="#6B6B6B" id="svg_2"/>
   <path d="m192.58655,187.43408l-85.31922,0c-1.75314,0 -3.36018,-1.4854 -3.36018,-3.4164l0,-27.3316c0,-1.7825 1.46095,-3.4164 3.36018,-3.4164l85.46532,0c1.7532,0 3.3602,1.4854 3.3602,3.4164l0,27.4801c-0.1461,1.7825 -1.607,3.2679 -3.5063,3.2679z" fill="#259956" id="svg_3"/>
   <path d="m124.36035,173.17558l-7.3047,0l0,4.6048l8.4734,0l0,3.2679l-12.12581,0l0,-18.5677l11.83371,0l0,3.1194l-8.3274,0l0,4.3077l7.3047,0l0,3.2679l0.1461,0z" fill="white" id="svg_4"/>
   <path d="m143.93735,162.48058l-6.4282,8.9125l6.7204,9.5066l-4.529,0l-4.3828,-6.5358l-4.3828,6.5358l-4.2368,0l6.7204,-9.3581l-6.4282,-9.061l4.3828,0l4.2368,6.0902l4.2367,-6.0902l4.0907,0z" fill="white" id="svg_5"/>
   <path d="m155.18655,177.18648c0.5843,-0.4456 1.1687,-1.1883 1.4609,-1.931l3.068,1.7825c-0.4383,1.1883 -1.3149,2.2281 -2.4836,3.1193c-1.1688,0.7427 -2.6297,1.1883 -4.2368,1.1883c-1.607,0 -3.0679,-0.4456 -4.3828,-1.1883c-1.3148,-0.7427 -2.3375,-1.931 -3.2141,-3.4164c-0.7305,-1.4854 -1.1687,-3.1194 -1.1687,-5.0504c0,-1.9311 0.4382,-3.565 1.1687,-5.0504c0.7305,-1.4854 1.7532,-2.5252 3.2141,-3.4165c1.3149,-0.7427 2.7758,-1.1883 4.3828,-1.1883c1.6071,0 3.068,0.4456 4.2368,1.1883c1.1687,0.7427 2.0453,1.7825 2.4836,3.1194l-3.068,1.7825c-0.4383,-0.8913 -0.8766,-1.4854 -1.4609,-1.931c-0.5844,-0.4457 -1.461,-0.7428 -2.3376,-0.7428c-0.8765,0 -1.7531,0.2971 -2.4836,0.7428c-0.7304,0.4456 -1.3148,1.1883 -1.7531,2.2281c-0.4383,1.0398 -0.5844,2.0795 -0.5844,3.2679c0,1.1883 0.1461,2.3766 0.5844,3.2679c0.4383,0.8912 1.0227,1.6339 1.7531,2.2281c0.7305,0.4456 1.6071,0.7427 2.4836,0.7427c0.8766,0 1.7532,-0.2971 2.3376,-0.7427z" fill="white" id="svg_6"/>
   <path d="m173.01075,173.17558l-7.3048,0l0,4.6048l8.4735,0l0,3.2679l-12.1258,0l0,-18.5677l11.8337,0l0,3.1194l-8.1814,0l0,4.3077l7.3048,0l0,3.2679z" fill="white" id="svg_7"/>
   <path d="m177.10055,162.48058l3.6523,0l0,15.1512l8.3274,0l0,3.2679l-11.8336,0l0,-18.4191l-0.1461,0z" fill="white" id="svg_8"/>
   <path d="m155.77065,123.56018l-30.6799,0c-0.8766,0 -1.4609,-0.5941 -1.4609,-1.4854l0,-10.3978c0,-0.8913 0.5843,-1.4854 1.4609,-1.4854l30.6799,0c0.8765,0 1.4609,0.5941 1.4609,1.4854l0,10.3978c0,0.8913 -0.5844,1.4854 -1.4609,1.4854zm-29.219,-2.9708l27.758,0l0,-7.427l-27.758,0l0,7.427z" fill="#6B6B6B" id="svg_9"/>
   <path d="m182.06765,144.35708l-56.9769,0c-0.8766,0 -1.4609,-0.5941 -1.4609,-1.4854l0,-10.3979c0,-0.8912 0.5843,-1.4854 1.4609,-1.4854l56.9769,0c0.8766,0 1.4609,0.5942 1.4609,1.4854l0,10.3979c0,0.8913 -0.5843,1.4854 -1.4609,1.4854zm-55.516,-2.9708l54.0551,0l0,-7.4271l-54.0551,0l0,7.4271z" fill="#6B6B6B" id="svg_10"/>
  </g>
 </g>

</svg>