<svg width="168" height="168" viewBox="0 0 168 168" fill="none" xmlns="http://www.w3.org/2000/svg">
<rect width="168" height="168" rx="5" fill="#F8F8F8"/>
<path d="M53 51.1445C53 49.4877 54.3431 48.1445 56 48.1445H85H99.0608L106.394 59.2441L117 66.3776V84.6106V118.077C117 119.734 115.657 121.077 114 121.077H56C54.3431 121.077 53 119.734 53 118.077V51.1445Z" fill="#ED3535"/>
<path d="M98.9473 48L107.813 57.0281L116.999 66.0522H98.9473V48Z" fill="#E31313"/>
<path d="M76.2658 100C77.0253 100 77.6329 100.152 78.2405 100.38C78.8481 100.608 79.2278 100.987 79.5316 101.443C79.8354 101.899 79.9873 102.431 79.9873 103.114C79.9873 103.722 79.8354 104.254 79.5316 104.785C79.2278 105.241 78.7721 105.621 78.2405 105.849C77.7088 106.077 77.0253 106.229 76.2658 106.229H74.8987V109.419H73V100H76.2658ZM76.1139 104.633C76.7215 104.633 77.1772 104.482 77.5569 104.254C77.9367 104.026 78.0886 103.646 78.0886 103.114C78.0886 102.583 77.9367 102.203 77.5569 101.975C77.1772 101.747 76.7215 101.595 76.1139 101.595H74.9747V104.633H76.1139Z" fill="#F8F8F8"/>
<path d="M84.3932 100C85.3046 100 86.14 100.152 86.8995 100.532C87.659 100.912 88.2666 101.443 88.6464 102.127C89.0261 102.81 89.3299 103.646 89.3299 104.633C89.3299 105.621 89.1021 106.456 88.6464 107.14C88.1907 107.824 87.659 108.431 86.8995 108.811C86.14 109.191 85.3046 109.343 84.3932 109.343H81.2793V100H84.3932ZM84.2413 107.824C85.2287 107.824 86.0641 107.52 86.5957 106.988C87.1274 106.456 87.4312 105.697 87.4312 104.633C87.4312 103.646 87.1274 102.886 86.5957 102.355C86.0641 101.823 85.3046 101.519 84.2413 101.519H83.178V107.748H84.2413V107.824Z" fill="#F8F8F8"/>
<path d="M90.8477 100H96.9995V101.671H92.7464V104.102H96.5438V105.697H92.7464V109.495H90.8477V100Z" fill="#F8F8F8"/>
<path d="M96.5479 87.8591C94.15 87.6792 91.8381 86.7914 89.9714 85.1879C86.3277 85.9896 82.8638 87.1473 79.3959 88.5709C76.6426 93.4675 74.0652 95.9588 71.843 95.9588C71.3978 95.9588 70.8667 95.8688 70.5113 95.6029C69.535 95.157 69 94.1793 69 93.2015C69 92.3998 69.1796 90.1744 77.619 86.5254C79.5755 82.9664 81.083 79.3175 82.3287 75.4886C81.2626 73.3532 78.9507 68.1007 80.5518 65.4334C81.0869 64.4556 82.153 63.9198 83.3051 64.0098C84.1955 64.0098 85.082 64.4556 85.617 65.1674C86.773 66.7709 86.6831 70.15 85.1718 75.1366C86.5933 77.8078 88.46 80.2092 90.6821 82.2546C92.5489 81.8987 94.4156 81.6328 96.2823 81.6328C100.461 81.7227 101.082 83.6782 100.992 84.8359C100.992 87.8591 98.0592 87.8591 96.5479 87.8591ZM71.6673 93.3775L71.9329 93.2876C73.1787 92.8417 74.155 91.9539 74.8657 90.7963C73.534 91.3321 72.464 92.2199 71.6673 93.3775ZM83.4847 66.6771H83.2191C83.1293 66.6771 82.9536 66.6771 82.8638 66.767C82.5084 68.2806 82.7739 69.8802 83.3988 71.3077C83.9299 69.7941 83.9299 68.1906 83.4847 66.6771ZM84.1056 79.5834L84.0158 79.7633L83.926 79.6734C83.1293 81.7188 82.2428 83.7643 81.2626 85.7237L81.4422 85.6337V85.8136C83.3988 85.1018 85.5311 84.48 87.4837 84.0341L87.3939 83.9442H87.6595C86.3277 82.6105 85.0859 81.097 84.1056 79.5834ZM96.1925 84.3001C95.3919 84.3001 94.6812 84.3001 93.8806 84.48C94.771 84.9258 95.6575 85.1018 96.5479 85.1918C97.1688 85.2817 97.7937 85.1918 98.3248 85.0119C98.3248 84.7459 97.9694 84.3001 96.1925 84.3001Z" fill="white"/>
</svg>
