<svg width="300" height="300" xmlns="http://www.w3.org/2000/svg" fill="none">
 <g>
  <title>Layer 1</title>
  <rect y="0.18359" width="300" height="300" rx="5" fill="#F8F8F8" id="svg_1"/>
  <g id="svg_11">
   <path id="svg_2" fill="#6B6B6B" d="m181.8561,206.00361l-71.46989,0c-0.89523,0 -1.49206,-0.594 -1.49206,-1.485l0,-99.3742c0,-5.79314 4.77465,-10.54646 10.59365,-10.54646l40.1365,0c0.8952,0 1.4921,0.59417 1.4921,1.48541c0,0.89125 -0.5969,1.48542 -1.4921,1.48542l-40.1365,0c-4.1778,0 -7.60952,3.41644 -7.60952,7.57563l0,97.8882l69.97782,0c4.1777,0 7.6095,-3.416 7.6095,-7.575l0,-77.0931c0,-0.8912 0.5968,-1.4854 1.492,-1.4854c0.8953,0 1.4921,0.5942 1.4921,1.4854l0,77.0931c0,5.941 -4.7746,10.546 -10.5936,10.546z"/>
   <path id="svg_3" fill="#6B6B6B" d="m167.5327,120.59131c-0.4476,0 -0.746,-0.1486 -1.0444,-0.4457c-0.2985,-0.297 -0.4477,-0.5941 -0.4477,-1.0398l0.2984,-23.61799c0,-0.59416 0.2985,-1.18833 0.8953,-1.33687c0.5968,-0.29708 1.1936,-0.14854 1.6413,0.29708l23.5746,23.46948c0.4476,0.4456 0.5968,1.0398 0.2984,1.634c-0.2984,0.5941 -0.7461,0.8912 -1.3429,0.8912l-23.873,0.1486c0.1492,0 0.1492,0 0,0zm1.7905,-21.5385l-0.1492,18.5676l18.6508,-0.1485l-18.5016,-18.4191z"/>
   <path id="svg_4" fill="#E51A1A" d="m193.4936,187.43431l-87.13645,0c-1.79048,0 -3.43175,-1.4854 -3.43175,-3.4165l0,-27.3315c0,-1.7825 1.49206,-3.4165 3.43175,-3.4165l87.28575,0c1.7904,0 3.4317,1.4854 3.4317,3.4165l0,27.4801c-0.1492,1.7825 -1.6413,3.2679 -3.581,3.2679z"/>
   <path id="svg_5" fill="#F8F8F8" d="m133.812,162.48081c1.492,0 2.6857,0.297 3.8793,0.7427c1.1937,0.4456 1.9397,1.1883 2.5365,2.0795c0.5969,0.8913 0.8953,1.9311 0.8953,3.2679c0,1.1884 -0.2984,2.2282 -0.8953,3.268c-0.5968,0.8912 -1.492,1.6339 -2.5365,2.0795c-1.0444,0.4456 -2.3873,0.7427 -3.8793,0.7427l-2.6857,0l0,6.2388l-3.7302,0l0,-18.4191l6.4159,0zm-0.2984,9.061c1.1936,0 2.0889,-0.2971 2.8349,-0.7427c0.746,-0.4457 1.0444,-1.1884 1.0444,-2.2282c0,-1.0397 -0.2984,-1.7824 -1.0444,-2.2281c-0.746,-0.4456 -1.6413,-0.7427 -2.8349,-0.7427l-2.2381,0l0,5.9417l2.2381,0z"/>
   <path id="svg_6" fill="#F8F8F8" d="m149.7772,162.48081c1.7905,0 3.4318,0.297 4.9238,1.0397c1.4921,0.7428 2.6858,1.7825 3.4318,3.1194c0.746,1.3369 1.3429,2.9708 1.3429,4.9019c0,1.931 -0.4477,3.565 -1.3429,4.9018c-0.8952,1.3369 -1.9397,2.5252 -3.4318,3.2679c-1.492,0.7427 -3.1333,1.0398 -4.9238,1.0398l-6.1174,0l0,-18.2705l6.1174,0zm-0.2984,15.2997c1.9397,0 3.581,-0.5942 4.6254,-1.634c1.0445,-1.0397 1.6413,-2.5252 1.6413,-4.6047c0,-1.9311 -0.5968,-3.4165 -1.6413,-4.4563c-1.0444,-1.0398 -2.5365,-1.6339 -4.6254,-1.6339l-2.0889,0l0,12.1804l2.0889,0l0,0.1485z"/>
   <path id="svg_7" fill="#F8F8F8" d="m162.4606,162.48081l12.0857,0l0,3.2679l-8.3556,0l0,4.7533l7.4603,0l0,3.1193l-7.4603,0l0,7.4271l-3.7301,0l0,-18.5676z"/>
  </g>
 </g>

</svg>