<svg xmlns="http://www.w3.org/2000/svg" xmlns:xlink="http://www.w3.org/1999/xlink" viewBox="0 0 168 168"><defs><linearGradient id="a" x1="154.65" y1="253.31" x2="63.32" y2="41.98" gradientUnits="userSpaceOnUse"><stop offset="0" stop-color="#0f7c41"/><stop offset="1" stop-color="#0fb341"/></linearGradient><linearGradient id="b" x1="82.73" y1="86.39" x2="62.3" y2="65.05" gradientUnits="userSpaceOnUse"><stop offset="0" stop-color="#c6c5c5"/><stop offset="1" stop-color="#f9fafb"/></linearGradient><linearGradient id="c" x1="80.28" y1="93.84" x2="59.86" y2="72.49" xlink:href="#b"/><linearGradient id="d" x1="77.84" y1="101.28" x2="57.41" y2="79.94" xlink:href="#b"/><linearGradient id="e" x1="82.46" y1="116.11" x2="49.89" y2="82.07" xlink:href="#b"/><linearGradient id="f" x1="114.73" y1="86.39" x2="94.3" y2="65.05" xlink:href="#b"/><linearGradient id="g" x1="112.28" y1="93.84" x2="91.86" y2="72.49" xlink:href="#b"/><linearGradient id="h" x1="109.84" y1="101.28" x2="89.41" y2="79.94" xlink:href="#b"/><linearGradient id="i" x1="114.46" y1="116.11" x2="81.89" y2="82.07" xlink:href="#b"/><linearGradient id="j" x1="98.73" y1="86.39" x2="78.3" y2="65.05" xlink:href="#b"/><linearGradient id="k" x1="96.28" y1="93.84" x2="75.86" y2="72.49" xlink:href="#b"/><linearGradient id="l" x1="93.84" y1="101.28" x2="73.41" y2="79.94" xlink:href="#b"/><linearGradient id="m" x1="98.46" y1="116.11" x2="65.89" y2="82.07" xlink:href="#b"/></defs><rect width="168" height="168" rx="5" style="fill:#f8f8f8"/><path d="M108,121H60a8,8,0,0,1-8-8V55a8,8,0,0,1,8-8H98l18,18v48A8,8,0,0,1,108,121Z" style="opacity:0.8;fill:url(#a)"/><path d="M116,65H106a8,8,0,0,1-8-8V47Z" style="opacity:0.2"/><rect x="61" y="67" width="14" height="8" rx="2" style="fill:url(#b)"/><rect x="61" y="77" width="14" height="8" rx="2" style="fill:url(#c)"/><rect x="61" y="87" width="14" height="8" rx="2" style="fill:url(#d)"/><rect x="61" y="97" width="14" height="8" rx="2" style="fill:url(#e)"/><rect x="93" y="67" width="14" height="8" rx="2" style="fill:url(#f)"/><rect x="93" y="77" width="14" height="8" rx="2" style="fill:url(#g)"/><rect x="93" y="87" width="14" height="8" rx="2" style="fill:url(#h)"/><rect x="93" y="97" width="14" height="8" rx="2" style="fill:url(#i)"/><rect x="77" y="67" width="14" height="8" rx="2" style="fill:url(#j)"/><rect x="77" y="77" width="14" height="8" rx="2" style="fill:url(#k)"/><rect x="77" y="87" width="14" height="8" rx="2" style="fill:url(#l)"/><rect x="77" y="97" width="14" height="8" rx="2" style="fill:url(#m)"/></svg>