<svg xmlns="http://www.w3.org/2000/svg" xmlns:xlink="http://www.w3.org/1999/xlink" viewBox="0 0 168 168"><defs><linearGradient id="a" x1="59.58" y1="35.86" x2="143.24" y2="220.86" gradientUnits="userSpaceOnUse"><stop offset="0" stop-color="#ed1c24"/><stop offset="1" stop-color="#be1e2d"/></linearGradient><linearGradient id="b" x1="73.76" y1="79.16" x2="61.61" y2="66.46" gradientUnits="userSpaceOnUse"><stop offset="0" stop-color="#c6c5c5"/><stop offset="1" stop-color="#f9fafb"/></linearGradient><linearGradient id="c" x1="73.76" y1="87.16" x2="61.61" y2="74.46" xlink:href="#b"/><linearGradient id="d" x1="73.76" y1="95.16" x2="61.61" y2="82.46" xlink:href="#b"/><linearGradient id="e" x1="73.76" y1="103.16" x2="61.61" y2="90.46" xlink:href="#b"/><linearGradient id="f" x1="73.76" y1="111.16" x2="61.61" y2="98.46" xlink:href="#b"/><linearGradient id="g" x1="124.58" y1="111.19" x2="75.24" y2="59.61" xlink:href="#b"/><linearGradient id="h" x1="124.58" y1="127.19" x2="75.24" y2="75.61" xlink:href="#b"/><linearGradient id="i" x1="118.41" y1="132.74" x2="77.62" y2="90.11" xlink:href="#b"/></defs><rect width="168" height="168" rx="5" style="fill:#f8f8f8"/><path d="M108,121H60a8,8,0,0,1-8-8V55a8,8,0,0,1,8-8H98l18,18v48A8,8,0,0,1,108,121Z" style="opacity:0.8;fill:url(#a)"/><rect x="61" y="67" width="8" height="6" rx="2" style="fill:url(#b)"/><rect x="61" y="75" width="8" height="6" rx="2" style="fill:url(#c)"/><rect x="61" y="83" width="8" height="6" rx="2" style="fill:url(#d)"/><rect x="61" y="91" width="8" height="6" rx="2" style="fill:url(#e)"/><rect x="61" y="99" width="8" height="6" rx="2" style="fill:url(#f)"/><rect x="71" y="67" width="36" height="14" rx="2" style="fill:url(#g)"/><rect x="71" y="83" width="36" height="14" rx="2" style="fill:url(#h)"/><rect x="71" y="99" width="36" height="6" rx="2" style="fill:url(#i)"/><path d="M116,65H106a8,8,0,0,1-8-8V47Z" style="opacity:0.2"/></svg>