<svg width="168" height="168" viewBox="0 0 168 168" fill="none" xmlns="http://www.w3.org/2000/svg">
<rect width="168" height="168" rx="5" fill="#F8F8F8"/>
<path d="M53 51.1445C53 49.4877 54.3431 48.1445 56 48.1445H85H99.0608L106.394 59.2441L117 66.3776V84.6106V118.077C117 119.734 115.657 121.077 114 121.077H56C54.3431 121.077 53 119.734 53 118.077V51.1445Z" fill="#45AF72"/>
<path d="M98.9473 48L107.813 57.0281L116.999 66.0522H98.9473V48Z" fill="#259956"/>
<path fill-rule="evenodd" clip-rule="evenodd" d="M67 81C67 78.7909 68.7909 77 71 77H86V93H67V81ZM71 79C69.8954 79 69 79.8954 69 81V91H84V79H71Z" fill="white"/>
<path fill-rule="evenodd" clip-rule="evenodd" d="M84 77H99C101.209 77 103 78.7909 103 81V93H84V77ZM86 79V91H101V81C101 79.8954 100.105 79 99 79H86Z" fill="white"/>
<path fill-rule="evenodd" clip-rule="evenodd" d="M67 91H86V107H71C68.7909 107 67 105.209 67 103V91ZM69 93V103C69 104.105 69.8954 105 71 105H84V93H69Z" fill="white"/>
<path fill-rule="evenodd" clip-rule="evenodd" d="M84 91H103V103C103 105.209 101.209 107 99 107H84V91ZM86 93V105H99C100.105 105 101 104.105 101 103V93H86Z" fill="white"/>
</svg>
