<svg xmlns="http://www.w3.org/2000/svg" xmlns:xlink="http://www.w3.org/1999/xlink" width="168" height="168" viewBox="0 0 168 168"><defs><linearGradient id="a" x1="154.654" y1="253.314" x2="63.321" y2="41.98" gradientUnits="userSpaceOnUse"><stop offset="0" stop-color="#0f7c41"/><stop offset="1" stop-color="#0fb341"/></linearGradient><linearGradient id="b" x1="82.728" y1="86.393" x2="62.303" y2="65.046" gradientUnits="userSpaceOnUse"><stop offset="0" stop-color="#c6c5c5"/><stop offset="1" stop-color="#f9fafb"/></linearGradient><linearGradient id="c" x1="80.284" y1="93.838" x2="59.858" y2="72.491" xlink:href="#b"/><linearGradient id="d" x1="77.839" y1="101.283" x2="57.414" y2="79.936" xlink:href="#b"/><linearGradient id="e" x1="82.462" y1="116.115" x2="49.887" y2="82.07" xlink:href="#b"/><linearGradient id="f" x1="114.728" y1="86.393" x2="94.303" y2="65.046" xlink:href="#b"/><linearGradient id="g" x1="112.284" y1="93.838" x2="91.858" y2="72.491" xlink:href="#b"/><linearGradient id="h" x1="109.839" y1="101.283" x2="89.414" y2="79.936" xlink:href="#b"/><linearGradient id="i" x1="114.462" y1="116.115" x2="81.887" y2="82.07" xlink:href="#b"/><linearGradient id="j" x1="98.728" y1="86.393" x2="78.303" y2="65.046" xlink:href="#b"/><linearGradient id="k" x1="96.284" y1="93.838" x2="75.858" y2="72.491" xlink:href="#b"/><linearGradient id="l" x1="93.839" y1="101.283" x2="73.414" y2="79.936" xlink:href="#b"/><linearGradient id="m" x1="98.462" y1="116.115" x2="65.887" y2="82.07" xlink:href="#b"/></defs><rect width="168" height="168" rx="5" style="fill:#f8f8f8"/><path d="M108,121H60a8,8,0,0,1-8-8V55a8,8,0,0,1,8-8H98l18,18v48A8,8,0,0,1,108,121Z" style="opacity:0.8;fill:url(#a)"/><path d="M116,65H106a8,8,0,0,1-8-8V47Z" style="opacity:0.2"/><rect x="61" y="67" width="14" height="8" rx="2" style="fill:url(#b)"/><rect x="61" y="77" width="14" height="8" rx="2" style="fill:url(#c)"/><rect x="61" y="87" width="14" height="8" rx="2" style="fill:url(#d)"/><rect x="61" y="97" width="14" height="8" rx="2" style="fill:url(#e)"/><rect x="93" y="67" width="14" height="8" rx="2" style="fill:url(#f)"/><rect x="93" y="77" width="14" height="8" rx="2" style="fill:url(#g)"/><rect x="93" y="87" width="14" height="8" rx="2" style="fill:url(#h)"/><rect x="93" y="97" width="14" height="8" rx="2" style="fill:url(#i)"/><rect x="77" y="67" width="14" height="8" rx="2" style="fill:url(#j)"/><rect x="77" y="77" width="14" height="8" rx="2" style="fill:url(#k)"/><rect x="77" y="87" width="14" height="8" rx="2" style="fill:url(#l)"/><rect x="77" y="97" width="14" height="8" rx="2" style="fill:url(#m)"/></svg>