<?xml version="1.0" encoding="UTF-8"?><svg id="a" xmlns="http://www.w3.org/2000/svg" width="43" height="43" viewBox="0 0 43 43"><rect x="1.5" y="1.5" width="40" height="40" rx="3.5" ry="3.5" style="fill:#26a69a;"/><path d="M38,2c1.65,0,3,1.35,3,3v33c0,1.65-1.35,3-3,3H5c-1.65,0-3-1.35-3-3V5c0-1.65,1.35-3,3-3h33M38,1H5C2.79,1,1,2.79,1,5v33c0,2.21,1.79,4,4,4h33c2.21,0,4-1.79,4-4V5c0-2.21-1.79-4-4-4h0Z" style="fill:#b3b3b3;"/><rect x="10.5" y="22.5" width="22" height="14" rx="1" ry="1" style="fill:none; stroke:#c4c4c4; stroke-linecap:round; stroke-linejoin:round;"/><path d="M30.5,22.5v-7c0-4.97-4.03-9-9-9s-9,4.03-9,9v7" style="fill:none; stroke:#c4c4c4; stroke-linecap:round; stroke-linejoin:round;"/></svg>