<svg xmlns="http://www.w3.org/2000/svg" viewBox="0 0 42 42"><rect x="0.5" y="0.5" width="40" height="40" rx="3.5" style="fill:#4c4c55"/><path d="M37,1a3,3,0,0,1,3,3V37a3,3,0,0,1-3,3H4a3,3,0,0,1-3-3V4A3,3,0,0,1,4,1H37m0-1H4A4,4,0,0,0,0,4V37a4,4,0,0,0,4,4H37a4,4,0,0,0,4-4V4a4,4,0,0,0-4-4Z" style="fill:gray"/><polyline points="23.5 4.5 35.5 16.5 23.5 28.5 11.5 16.5" style="fill:none;stroke:#b3b3b3;stroke-linecap:round;stroke-linejoin:round"/><line x1="11.5" y1="16.5" x2="23.5" y2="4.5" style="fill:none;stroke:#009688;stroke-linecap:round;stroke-linejoin:round"/><line x1="23.5" y1="10.5" x2="23.5" y2="22.5" style="fill:none;stroke:#009688;stroke-linecap:round;stroke-linejoin:round"/><line x1="29.5" y1="16.5" x2="17.5" y2="16.5" style="fill:none;stroke:#009688;stroke-linecap:round;stroke-linejoin:round"/><line x1="27.5" y1="12.5" x2="19.5" y2="20.5" style="fill:none;stroke:#009688;stroke-linecap:round;stroke-linejoin:round"/><line x1="27.5" y1="20.5" x2="19.5" y2="12.5" style="fill:none;stroke:#009688;stroke-linecap:round;stroke-linejoin:round"/><polyline points="5.5 24.5 9.5 28.5 13.5 24.5" style="fill:none;stroke:#009688;stroke-linecap:round;stroke-linejoin:round"/><path d="M34.5,35H6.5A1.5,1.5,0,0,1,5,33.5v-1A1.5,1.5,0,0,1,6.5,31h28A1.5,1.5,0,0,1,36,32.5v1A1.5,1.5,0,0,1,34.5,35Zm-28-3a.5.5,0,0,0-.5.5v1a.5.5,0,0,0,.5.5h28a.5.5,0,0,0,.5-.5v-1a.5.5,0,0,0-.5-.5Z" style="fill:#009688"/><path d="M9.5,16A6.5,6.5,0,0,1,16,9.5" style="fill:none;stroke:#009688;stroke-linecap:round;stroke-linejoin:round"/><line x1="9.5" y1="16.5" x2="9.5" y2="27.5" style="fill:none;stroke:#009688;stroke-linecap:round;stroke-linejoin:round"/></svg>