<svg xmlns="http://www.w3.org/2000/svg" width="42" height="42" viewBox="0 0 42 42"><rect x="0.5" y="0.5" width="40" height="40" rx="3.5" style="fill:#54545a"/><path d="M37,1a3,3,0,0,1,3,3V37a3,3,0,0,1-3,3H4a3,3,0,0,1-3-3V4A3,3,0,0,1,4,1H37m0-1H4A4,4,0,0,0,0,4V37a4,4,0,0,0,4,4H37a4,4,0,0,0,4-4V4a4,4,0,0,0-4-4Z" style="fill:#b3b3b3"/><line x1="9" y1="9" x2="32" y2="32" style="fill:none;stroke:#c4c4c4;stroke-linecap:round;stroke-linejoin:round"/><line x1="32" y1="9" x2="9" y2="32" style="fill:none;stroke:#c4c4c4;stroke-linecap:round;stroke-linejoin:round"/></svg>