<svg width="43" height="42" viewBox="0 0 43 42" fill="none" xmlns="http://www.w3.org/2000/svg">
<path d="M37.2386 39.902H5.03864C3.43864 39.902 2.13867 38.602 2.13867 37.002V4.90195C2.13867 3.30195 3.43864 2.00195 5.03864 2.00195H37.2386C38.8386 2.00195 40.1387 3.30195 40.1387 4.90195V37.102C40.1387 38.602 38.8386 39.902 37.2386 39.902Z" fill="#4E4E55"/>
<path d="M37.2379 40.8012H5.0379C2.9379 40.8012 1.33789 39.1012 1.33789 37.1012V4.90117C1.33789 2.80117 3.0379 1.20117 5.0379 1.20117H37.2379C39.3379 1.20117 40.9379 2.90117 40.9379 4.90117V37.1012C41.0379 39.1012 39.3379 40.8012 37.2379 40.8012ZM5.13794 2.90117C4.03794 2.90117 3.13794 3.80117 3.13794 4.90117V37.1012C3.13794 38.2012 4.03794 39.1012 5.13794 39.1012H37.2379C38.3379 39.1012 39.2379 38.2012 39.2379 37.1012V4.90117C39.2379 3.80117 38.3379 2.90117 37.2379 2.90117H5.13794Z" fill="#99989B"/>
<path fill-rule="evenodd" clip-rule="evenodd" d="M12.4121 8.17194C12.4121 6.73834 11.2499 5.57617 9.81634 5.57617C8.38274 5.57617 7.22057 6.73834 7.22057 8.17194V34.0613C7.22057 35.4949 8.38274 36.657 9.81634 36.657C11.2499 36.657 12.4121 35.4949 12.4121 34.0613V8.17194ZM9.81634 7.27617C10.3111 7.27617 10.7121 7.67722 10.7121 8.17194V34.0613C10.7121 34.556 10.3111 34.957 9.81634 34.957C9.32162 34.957 8.92057 34.556 8.92057 34.0613V8.17194C8.92057 7.67722 9.32162 7.27617 9.81634 7.27617Z" fill="#99989B"/>
<path fill-rule="evenodd" clip-rule="evenodd" d="M36.2481 29.2891L33.2019 24.0129L27.1094 24.0129L24.0632 29.2891L27.1094 34.5653L33.2019 34.5653L36.2481 29.2891ZM38.0379 29.7891C38.2165 29.4797 38.2165 29.0985 38.0379 28.7891L34.5298 22.7129C34.3512 22.4035 34.021 22.2129 33.6638 22.2129L26.6476 22.2129C26.2903 22.2129 25.9602 22.4035 25.7815 22.7129L22.2734 28.7891C22.0948 29.0985 22.0948 29.4797 22.2734 29.7891L25.7815 35.8653C25.9602 36.1747 26.2903 36.3653 26.6476 36.3653L33.6638 36.3653C34.021 36.3653 34.3512 36.1747 34.5298 35.8653L38.0379 29.7891Z" fill="#99989B"/>
<path fill-rule="evenodd" clip-rule="evenodd" d="M28.7288 29.2886C28.7288 30.0761 29.3672 30.7146 30.1548 30.7146C30.9424 30.7146 31.5809 30.0761 31.5809 29.2886C31.5809 28.501 30.9424 27.8625 30.1548 27.8625C29.3672 27.8625 28.7288 28.501 28.7288 29.2886ZM26.9288 29.2886C26.9288 31.0703 28.3731 32.5146 30.1548 32.5146C31.9365 32.5146 33.3809 31.0703 33.3809 29.2886C33.3809 27.5069 31.9365 26.0625 30.1548 26.0625C28.3731 26.0625 26.9288 27.5069 26.9288 29.2886Z" fill="#99989B"/>
<path fill-rule="evenodd" clip-rule="evenodd" d="M21.1016 12.3516H12.3496V29.8809H19.1244L18.8268 29.3655L21.1016 25.4256V12.3516Z" fill="#53F5FF"/>
<path fill-rule="evenodd" clip-rule="evenodd" d="M29.8535 12.3516H21.1016V25.4256L24.34 19.8164L29.8535 19.8164V12.3516Z" fill="#FF5E5E"/>
<path fill-rule="evenodd" clip-rule="evenodd" d="M32.3868 5.57617C33.8204 5.57617 34.9825 6.73834 34.9825 8.17194V19.8164H33.2825V8.17194C33.2825 7.67722 32.8815 7.27617 32.3868 7.27617C31.8921 7.27617 31.491 7.67722 31.491 8.17194V19.8164L29.791 19.8164V8.17194C29.791 6.73834 30.9532 5.57617 32.3868 5.57617Z" fill="#99989B"/>
<path fill-rule="evenodd" clip-rule="evenodd" d="M29.791 12.3523H12.2812V10.6523H29.791V12.3523Z" fill="#99989B"/>
<path fill-rule="evenodd" clip-rule="evenodd" d="M20.1864 31.5809H12.2812V29.8809H19.2051L20.1864 31.5809Z" fill="#99989B"/>
</svg>
