<?xml version="1.0" encoding="UTF-8"?><svg id="a" xmlns="http://www.w3.org/2000/svg" width="43" height="43" viewBox="0 0 43 43"><rect x="1.5" y="1.5" width="40" height="40" rx="3.5" ry="3.5" style="fill:#e9e9e9;"/><path d="M38,2c1.65,0,3,1.35,3,3v33c0,1.65-1.35,3-3,3H5c-1.65,0-3-1.35-3-3V5c0-1.65,1.35-3,3-3h33M38,1H5C2.79,1,1,2.79,1,5v33c0,2.21,1.79,4,4,4h33c2.21,0,4-1.79,4-4V5c0-2.21-1.79-4-4-4h0Z" style="fill:#009688;"/><line x1="10.5" y1="6.5" x2="32.5" y2="6.5" style="fill:none; stroke:#009688; stroke-linecap:round; stroke-linejoin:round;"/><polyline points="10.52 19.47 21.53 8.5 32.49 19.51" style="fill:none; stroke:#009688; stroke-linecap:round; stroke-linejoin:round;"/><line x1="21.5" y1="8.5" x2="21.5" y2="36.5" style="fill:none; stroke:#009688; stroke-linecap:round; stroke-linejoin:round;"/></svg>