<svg xmlns="http://www.w3.org/2000/svg" width="42" height="42" viewBox="0 0 42 42"><rect x="0.5" y="0.5" width="40" height="40" rx="3.5" style="fill:#54545a"/><path d="M37,1a3,3,0,0,1,3,3V37a3,3,0,0,1-3,3H4a3,3,0,0,1-3-3V4A3,3,0,0,1,4,1H37m0-1H4A4,4,0,0,0,0,4V37a4,4,0,0,0,4,4H37a4,4,0,0,0,4-4V4a4,4,0,0,0-4-4Z" style="fill:#b3b3b3"/><rect x="5.5" y="25.5" width="30" height="10" rx="1" transform="translate(41 61) rotate(-180)" style="fill:none;stroke:#c4c4c4;stroke-linecap:round;stroke-linejoin:round"/><rect x="25.5" y="5.5" width="10" height="17" rx="1" transform="translate(61 28) rotate(-180)" style="fill:none;stroke:#c4c4c4;stroke-linecap:round;stroke-linejoin:round"/><rect x="5.5" y="5.5" width="17" height="7" rx="3.5" transform="translate(28 18) rotate(-180)" style="fill:none;stroke:#c4c4c4;stroke-linecap:round;stroke-linejoin:round"/><circle cx="9" cy="19" r="3.5" style="fill:none;stroke:#c4c4c4;stroke-linecap:round;stroke-linejoin:round"/><circle cx="19" cy="19" r="3.5" style="fill:none;stroke:#c4c4c4;stroke-linecap:round;stroke-linejoin:round"/></svg>