<svg width="40" height="40" viewBox="0 0 40 40" fill="none" xmlns="http://www.w3.org/2000/svg">
<path d="M36.9473 39.2H3.05259C1.81221 39.2 0.8 38.1881 0.8 36.9393V3.06069C0.8 1.81186 1.81221 0.8 3.05259 0.8H36.9473C38.1877 0.8 39.2 1.81188 39.2 3.06069V37.0449C39.2 38.17 38.206 39.2 36.9473 39.2Z" fill="#54545A" stroke="#98989C" stroke-width="1.6" stroke-miterlimit="10"/>
<path fill-rule="evenodd" clip-rule="evenodd" d="M10.4881 8.42689C9.9189 7.8577 8.99607 7.8577 8.42689 8.42689C7.8577 8.99607 7.8577 9.91891 8.42689 10.4881L17.9388 20L8.42689 29.5119C7.8577 30.0811 7.8577 31.0039 8.42689 31.5731C8.99607 32.1423 9.9189 32.1423 10.4881 31.5731L20 22.0612L29.5119 31.5731C30.0811 32.1423 31.0039 32.1423 31.5731 31.5731C32.1423 31.0039 32.1423 30.0811 31.5731 29.5119L22.0612 20L31.5731 10.4881C32.1423 9.91891 32.1423 8.99607 31.5731 8.42689C31.0039 7.8577 30.0811 7.8577 29.5119 8.42689L20 17.9388L10.4881 8.42689Z" fill="#98989C"/>
</svg>
