<svg xmlns="http://www.w3.org/2000/svg" viewBox="0 0 42 42"><rect x="0.5" y="0.5" width="40" height="40" rx="3.5" style="fill:#e9e9e9"/><path d="M37,1a3,3,0,0,1,3,3V37a3,3,0,0,1-3,3H4a3,3,0,0,1-3-3V4A3,3,0,0,1,4,1H37m0-1H4A4,4,0,0,0,0,4V37a4,4,0,0,0,4,4H37a4,4,0,0,0,4-4V4a4,4,0,0,0-4-4Z" style="fill:#999"/><line x1="5.5" y1="20.5" x2="27.5" y2="20.5" style="fill:none;stroke:#545454;stroke-linecap:round;stroke-linejoin:round"/><line x1="31.5" y1="20.5" x2="35.5" y2="20.5" style="fill:none;stroke:#545454;stroke-linecap:round;stroke-linejoin:round"/><line x1="5.5" y1="31.5" x2="13.5" y2="31.5" style="fill:none;stroke:#545454;stroke-linecap:round;stroke-linejoin:round"/><line x1="17.5" y1="31.5" x2="35.5" y2="31.5" style="fill:none;stroke:#545454;stroke-linecap:round;stroke-linejoin:round"/><line x1="35.5" y1="9.5" x2="13.5" y2="9.5" style="fill:none;stroke:#545454;stroke-linecap:round;stroke-linejoin:round"/><line x1="9.5" y1="9.5" x2="5.5" y2="9.5" style="fill:none;stroke:#545454;stroke-linecap:round;stroke-linejoin:round"/><rect x="9.5" y="5.5" width="4" height="8" rx="1" style="fill:none;stroke:#545454;stroke-linecap:round;stroke-linejoin:round"/><rect x="27.5" y="16.5" width="4" height="8" rx="1" style="fill:none;stroke:#545454;stroke-linecap:round;stroke-linejoin:round"/><rect x="13.5" y="27.5" width="4" height="8" rx="1" style="fill:none;stroke:#545454;stroke-linecap:round;stroke-linejoin:round"/></svg>