<svg width="42" height="42" viewBox="0 0 42 42" fill="none" xmlns="http://www.w3.org/2000/svg">
<path d="M36.9008 39.7008H4.70074C3.10074 39.7008 1.80078 38.4008 1.80078 36.8008V4.70078C1.80078 3.10078 3.10074 1.80078 4.70074 1.80078H36.9008C38.5008 1.80078 39.8008 3.10078 39.8008 4.70078V36.9008C39.8008 38.4008 38.5008 39.7008 36.9008 39.7008Z" fill="#E9E9E9"/>
<path d="M36.9 40.6H4.70001C2.60001 40.6 1 38.9 1 36.9V4.7C1 2.6 2.70001 1 4.70001 1H36.9C39 1 40.6 2.7 40.6 4.7V36.9C40.7 38.9 39 40.6 36.9 40.6ZM4.80005 2.7C3.70005 2.7 2.80005 3.6 2.80005 4.7V36.9C2.80005 38 3.70005 38.9 4.80005 38.9H36.9C38 38.9 38.9 38 38.9 36.9V4.7C38.9 3.6 38 2.7 36.9 2.7H4.80005Z" fill="#545454"/>
<path d="M31.6992 33.0992C31.2992 33.0992 30.8992 32.9992 30.5992 32.6992L8.89922 10.9992C8.29922 10.3992 8.29922 9.49922 8.89922 8.89922C9.49922 8.29922 10.3992 8.29922 10.9992 8.89922L32.6992 30.5992C33.2992 31.1992 33.2992 32.0992 32.6992 32.6992C32.4992 32.9992 32.0992 33.0992 31.6992 33.0992Z" fill="#545454"/>
<path d="M9.99919 33.0992C9.59919 33.0992 9.19922 32.9992 8.89922 32.6992C8.29922 32.0992 8.29922 31.1992 8.89922 30.5992L30.5992 8.89922C31.1992 8.29922 32.0992 8.29922 32.6992 8.89922C33.2992 9.49922 33.2992 10.3992 32.6992 10.9992L10.9992 32.6992C10.7992 32.9992 10.3992 33.0992 9.99919 33.0992Z" fill="#545454"/>
</svg>
