<svg xmlns="http://www.w3.org/2000/svg" width="43" height="43" viewBox="0 0 43 43"><rect x="1.5" y="1.5" width="40" height="40" rx="3.5" style="fill:#54545a"/><path d="M38,2a3,3,0,0,1,3,3V38a3,3,0,0,1-3,3H5a3,3,0,0,1-3-3V5A3,3,0,0,1,5,2H38m0-1H5A4,4,0,0,0,1,5V38a4,4,0,0,0,4,4H38a4,4,0,0,0,4-4V5a4,4,0,0,0-4-4Z" style="fill:#b3b3b3"/><polyline points="6.5 28.5 8.5 33.5 13.5 31.5" style="fill:none;stroke:#c4c4c4;stroke-linecap:round;stroke-linejoin:round"/><path d="M8.5,33.5c.388-2.889,2-5.5,4-8" style="fill:none;stroke:#c4c4c4;stroke-linecap:round;stroke-linejoin:round"/><path d="M27.5,19.5h-8m8,4v-6l-2-3h-4l-2,3v6" style="fill:none;stroke:#c4c4c4;stroke-linecap:round;stroke-linejoin:round"/><line x1="36.5" y1="36.5" x2="6.5" y2="36.5" style="fill:none;stroke:#c4c4c4;stroke-linecap:square;stroke-linejoin:round"/><polyline points="23.5 6.5 36.5 19.5 23.5 32.5" style="fill:none;stroke:#c4c4c4;stroke-linecap:round;stroke-linejoin:round"/><line x1="10.5" y1="19.5" x2="23.5" y2="6.5" style="fill:none;stroke:#c4c4c4;stroke-linecap:round;stroke-linejoin:round"/><line x1="23.5" y1="32.5" x2="10.5" y2="19.5" style="fill:none;stroke:#c4c4c4;stroke-linecap:round;stroke-linejoin:round"/></svg>