<svg width="40" height="41" viewBox="0 0 40 41" fill="none" xmlns="http://www.w3.org/2000/svg">
<path d="M35.9906 39.6719H3.79059C2.19059 39.6719 0.890625 38.3719 0.890625 36.7719V4.57188C0.890625 2.97188 2.19059 1.67188 3.79059 1.67188H35.9906C37.5906 1.67188 38.8906 2.97188 38.8906 4.57188V36.7719C38.8906 38.3719 37.5906 39.6719 35.9906 39.6719Z" fill="#D6D6D6"/>
<path fill-rule="evenodd" clip-rule="evenodd" d="M3.79051 2.56235C2.68237 2.56235 1.7811 3.46363 1.7811 4.57181V36.7718C1.7811 37.88 2.68236 38.7812 3.79051 38.7812H35.9905C37.0987 38.7812 38 37.88 38 36.7718V4.57181C38 3.46365 37.0987 2.56235 35.9905 2.56235H3.79051ZM0 4.57181C0 2.47999 1.69866 0.78125 3.79051 0.78125H35.9905C38.0824 0.78125 39.7811 2.47997 39.7811 4.57181V36.7718C39.7811 38.8637 38.0823 40.5623 35.9905 40.5623H3.79051C1.69866 40.5623 0 38.8636 0 36.7718V4.57181Z" fill="#545454"/>
<path d="M19.3542 30.9082H8.43512C7.41277 30.9082 6.58398 31.737 6.58398 32.7593V32.7593C6.58398 33.7817 7.41277 34.6105 8.43512 34.6105H21.6319" stroke="#FF6F00" stroke-width="1.8" stroke-linecap="round"/>
<path d="M11.0792 7.71875L8.18941 10.5289C7.75263 10.9536 7.79395 11.6669 8.27686 12.0384L11.2082 14.2933C11.7285 14.6936 11.7285 15.4782 11.2082 15.8785L8.39172 18.0451C7.87134 18.4454 7.87134 19.23 8.39172 19.6303L11.2711 21.8452C11.7715 22.2301 11.7943 22.9767 11.3185 23.3916L8.32213 26.0039" stroke="#FF6F00" stroke-width="1.8" stroke-linecap="round" stroke-linejoin="round"/>
<path d="M19.6944 7.71875L16.8046 10.5289C16.3679 10.9536 16.4092 11.6669 16.8921 12.0384L19.8234 14.2933C20.3438 14.6936 20.3438 15.4782 19.8234 15.8785L17.007 18.0451C16.4866 18.4454 16.4866 19.23 17.007 19.6303L19.8863 21.8452C20.3867 22.2301 20.4096 22.9767 19.9337 23.3916L16.9374 26.0039" stroke="#FF6F00" stroke-width="1.8" stroke-linecap="round" stroke-linejoin="round"/>
<path d="M28.3077 7.71875L25.4179 10.5289C24.9811 10.9536 25.0225 11.6669 25.5054 12.0384L28.4367 14.2933C28.9571 14.6936 28.9571 15.4782 28.4367 15.8785L24.5898 18.8377" stroke="#FF6F00" stroke-width="1.8" stroke-linecap="round" stroke-linejoin="round"/>
<path d="M36.0003 28.176L32.4922 34.2522C32.4743 34.2831 32.4413 34.3022 32.4056 34.3022L25.3893 34.3022C25.3536 34.3022 25.3206 34.2831 25.3027 34.2522L21.7946 28.176C21.7768 28.145 21.7768 28.1069 21.7946 28.076L25.3027 21.9998C25.3206 21.9688 25.3536 21.9498 25.3893 21.9498L32.4056 21.9498C32.4413 21.9498 32.4743 21.9688 32.4922 21.9998L36.0003 28.076C36.0181 28.1069 36.0181 28.145 36.0003 28.176Z" stroke="#545454" stroke-width="1.8" stroke-linejoin="round"/>
<circle cx="28.897" cy="28.1264" r="2.32605" transform="rotate(90 28.897 28.1264)" stroke="#545454" stroke-width="1.8" stroke-linejoin="round"/>
</svg>
