<svg xmlns="http://www.w3.org/2000/svg" viewBox="0 0 42 42"><rect x="0.5" y="0.5" width="40" height="40" rx="3.5" style="fill:#d6d6d6"/><path d="M37,1a3,3,0,0,1,3,3V37a3,3,0,0,1-3,3H4a3,3,0,0,1-3-3V4A3,3,0,0,1,4,1H37m0-1H4A4,4,0,0,0,0,4V37a4,4,0,0,0,4,4H37a4,4,0,0,0,4-4V4a4,4,0,0,0-4-4Z" style="fill:#949494"/><path d="M28.5,21.5v-8a6,6,0,0,0-6-6h-4a6,6,0,0,0-6,6v3" style="fill:none;stroke:#009688;stroke-linecap:round;stroke-linejoin:round"/><rect x="10.5" y="21.5" width="20" height="12" rx="1" style="fill:none;stroke:#545454;stroke-linecap:round;stroke-linejoin:round"/></svg>