<svg width="40" height="40" viewBox="0 0 40 40" fill="none" xmlns="http://www.w3.org/2000/svg">
<path d="M35.9905 38.8906H3.79051C2.19051 38.8906 0.89055 37.5906 0.89055 35.9906V3.79056C0.89055 2.19056 2.19051 0.89055 3.79051 0.89055H35.9905C37.5905 0.89055 38.8905 2.19056 38.8905 3.79056V35.9906C38.8905 37.5906 37.5905 38.8906 35.9905 38.8906Z" fill="#D6D6D6"/>
<path fill-rule="evenodd" clip-rule="evenodd" d="M3.79051 1.7811C2.68237 1.7811 1.7811 2.68238 1.7811 3.79056V35.9906C1.7811 37.0987 2.68236 38 3.79051 38H35.9905C37.0987 38 38 37.0987 38 35.9906V3.79056C38 2.6824 37.0987 1.7811 35.9905 1.7811H3.79051ZM0 3.79056C0 1.69874 1.69866 0 3.79051 0H35.9905C38.0824 0 39.7811 1.69872 39.7811 3.79056V35.9906C39.7811 38.0824 38.0823 39.7811 35.9905 39.7811H3.79051C1.69866 39.7811 0 38.0824 0 35.9906V3.79056Z" fill="#545454"/>
<path d="M6.55753 19.9513L13.0001 8.39394C13.0178 8.36226 13.0512 8.34263 13.0874 8.34263L25.9126 8.34263C25.9488 8.34263 25.9823 8.36226 25.9999 8.39394L32.4425 19.9513C32.4593 19.9816 32.4593 20.0184 32.4425 20.0487L25.9999 31.6061C25.9823 31.6377 25.9488 31.6574 25.9126 31.6574L13.0874 31.6574C13.0512 31.6574 13.0177 31.6377 13.0001 31.6061L6.55753 20.0487C6.54066 20.0184 6.54066 19.9816 6.55753 19.9513Z" stroke="#FF6F00" stroke-width="1.8" stroke-linejoin="round"/>
<path d="M19.5003 15.1748C22.0265 15.1748 24.1278 17.3049 24.1278 19.9997C24.1278 22.6945 22.0265 24.8246 19.5003 24.8246C16.9741 24.8246 14.8728 22.6945 14.8728 19.9997C14.8728 17.3049 16.9741 15.1748 19.5003 15.1748Z" stroke="#FF6F00" stroke-width="1.8" stroke-linejoin="round"/>
</svg>
