<?xml version="1.0" encoding="UTF-8"?><svg id="a" xmlns="http://www.w3.org/2000/svg" width="43" height="43" viewBox="0 0 43 43"><rect x="1.5" y="1.5" width="40" height="40" rx="3.5" ry="3.5" style="fill:#54545a;"/><path d="M38,2c1.65,0,3,1.35,3,3v33c0,1.65-1.35,3-3,3H5c-1.65,0-3-1.35-3-3V5c0-1.65,1.35-3,3-3h33M38,1H5C2.79,1,1,2.79,1,5v33c0,2.21,1.79,4,4,4h33c2.21,0,4-1.79,4-4V5c0-2.21-1.79-4-4-4h0Z" style="fill:#e14747;"/><line x1="10" y1="10" x2="33" y2="33" style="fill:none; stroke:#e14747; stroke-linecap:round; stroke-linejoin:round;"/><line x1="33" y1="10" x2="10" y2="33" style="fill:none; stroke:#e14747; stroke-linecap:round; stroke-linejoin:round;"/></svg>