<svg width="40" height="40" viewBox="0 0 40 40" fill="none" xmlns="http://www.w3.org/2000/svg">
<path d="M36.9473 39.2H3.05259C1.81022 39.2 0.8 38.1898 0.8 36.9474V3.05264C0.8 1.81024 1.81023 0.8 3.05259 0.8H36.9473C38.1897 0.8 39.2 1.81026 39.2 3.05264V36.9474C39.2 38.1897 38.1897 39.2 36.9473 39.2Z" fill="#54545A" stroke="#98989C" stroke-width="1.6" stroke-miterlimit="10"/>
<path d="M27.601 17.6405H27.3213V12.3719C27.3213 9.37603 25.0829 7 22.3783 7H17.6218C14.9171 7 12.6787 9.37603 12.6787 12.3719V18.5694H15.3834V12.3719C15.3834 11.1322 16.4094 9.99586 17.6218 9.99586H22.3783C23.5907 9.99586 24.6166 11.0289 24.6166 12.3719V17.6405H12.399C11.6529 17.6405 11 18.3636 11 19.1901V30.4504C11 31.2769 11.6529 32 12.399 32H27.601C28.3471 32 29 31.2769 29 30.4504V19.1901C29 18.2603 28.3471 17.6405 27.601 17.6405Z" fill="#21A452"/>
</svg>
