<svg width="42" height="42" viewBox="0 0 42 42" fill="none" xmlns="http://www.w3.org/2000/svg">
<path d="M37.1 39.902H4.89996C3.29996 39.902 2 38.602 2 37.002V4.90195C2 3.30195 3.29996 2.00195 4.89996 2.00195H37.1C38.7 2.00195 40 3.30195 40 4.90195V37.102C40 38.602 38.7 39.902 37.1 39.902Z" fill="#57565B"/>
<path d="M37.0992 40.8012H4.89923C2.79923 40.8012 1.19922 39.1012 1.19922 37.1012V4.90117C1.19922 2.80117 2.89923 1.20117 4.89923 1.20117H37.0992C39.1992 1.20117 40.7993 2.90117 40.7993 4.90117V37.1012C40.8993 39.1012 39.1992 40.8012 37.0992 40.8012ZM4.99927 2.90117C3.89927 2.90117 2.99927 3.80117 2.99927 4.90117V37.1012C2.99927 38.2012 3.89927 39.1012 4.99927 39.1012H37.0992C38.1992 39.1012 39.0992 38.2012 39.0992 37.1012V4.90117C39.0992 3.80117 38.1992 2.90117 37.0992 2.90117H4.99927Z" fill="#99989B"/>
<path fill-rule="evenodd" clip-rule="evenodd" d="M12.2734 8.17194C12.2734 6.73834 11.1113 5.57617 9.67767 5.57617C8.24406 5.57617 7.0819 6.73834 7.0819 8.17194V34.0613C7.0819 35.4949 8.24406 36.657 9.67767 36.657C11.1113 36.657 12.2734 35.4949 12.2734 34.0613V8.17194ZM9.67767 7.27617C10.1724 7.27617 10.5734 7.67722 10.5734 8.17194V34.0613C10.5734 34.556 10.1724 34.957 9.67767 34.957C9.18295 34.957 8.7819 34.556 8.7819 34.0613V8.17194C8.7819 7.67722 9.18295 7.27617 9.67767 7.27617Z" fill="#99989B"/>
<path fill-rule="evenodd" clip-rule="evenodd" d="M36.1094 29.2891L33.0632 24.0129L26.9708 24.0129L23.9245 29.2891L26.9708 34.5653L33.0632 34.5653L36.1094 29.2891ZM37.8992 29.7891C38.0779 29.4797 38.0779 29.0985 37.8992 28.7891L34.3911 22.7129C34.2125 22.4035 33.8824 22.2129 33.5251 22.2129L26.5089 22.2129C26.1516 22.2129 25.8215 22.4035 25.6429 22.7129L22.1348 28.7891C21.9561 29.0985 21.9561 29.4797 22.1348 29.7891L25.6429 35.8653C25.8215 36.1747 26.1516 36.3653 26.5089 36.3653L33.5251 36.3653C33.8824 36.3653 34.2125 36.1747 34.3911 35.8653L37.8992 29.7891Z" fill="#99989B"/>
<path fill-rule="evenodd" clip-rule="evenodd" d="M28.5901 29.2886C28.5901 30.0761 29.2285 30.7146 30.0161 30.7146C30.8037 30.7146 31.4422 30.0761 31.4422 29.2886C31.4422 28.501 30.8037 27.8625 30.0161 27.8625C29.2285 27.8625 28.5901 28.501 28.5901 29.2886ZM26.7901 29.2886C26.7901 31.0703 28.2344 32.5146 30.0161 32.5146C31.7978 32.5146 33.2422 31.0703 33.2422 29.2886C33.2422 27.5069 31.7978 26.0625 30.0161 26.0625C28.2344 26.0625 26.7901 27.5069 26.7901 29.2886Z" fill="#99989B"/>
<path fill-rule="evenodd" clip-rule="evenodd" d="M20.9629 12.3516H12.2109V29.8809H18.9857L18.6882 29.3655L20.9629 25.4256V12.3516Z" fill="#53F5FF"/>
<path fill-rule="evenodd" clip-rule="evenodd" d="M29.7148 12.3516H20.9629V25.4256L24.2013 19.8164L29.7148 19.8164V12.3516Z" fill="#FF5E5E"/>
<path fill-rule="evenodd" clip-rule="evenodd" d="M32.2481 5.57617C33.6817 5.57617 34.8439 6.73834 34.8439 8.17194V19.8164H33.1439V8.17194C33.1439 7.67722 32.7428 7.27617 32.2481 7.27617C31.7534 7.27617 31.3523 7.67722 31.3523 8.17194V19.8164L29.6523 19.8164V8.17194C29.6523 6.73834 30.8145 5.57617 32.2481 5.57617Z" fill="#99989B"/>
<path fill-rule="evenodd" clip-rule="evenodd" d="M29.6523 12.3523H12.1426V10.6523H29.6523V12.3523Z" fill="#99989B"/>
<path fill-rule="evenodd" clip-rule="evenodd" d="M20.0477 31.5809H12.1426V29.8809H19.0664L20.0477 31.5809Z" fill="#99989B"/>
</svg>
