<svg width="42" height="43" viewBox="0 0 42 43" fill="none" xmlns="http://www.w3.org/2000/svg">
<path d="M37.1 40.4961H4.89996C3.29996 40.4961 2 39.1961 2 37.5961V5.3961C2 3.7961 3.29996 2.49609 4.89996 2.49609H37.1C38.7 2.49609 40 3.7961 40 5.3961V37.5961C40 39.1961 38.7 40.4961 37.1 40.4961Z" fill="#D6D6D6"/>
<path d="M37.0992 41.3969H4.89923C2.79923 41.3969 1.19922 39.6969 1.19922 37.6969V5.49687C1.19922 3.39687 2.89923 1.79688 4.89923 1.79688H37.0992C39.1992 1.79688 40.7993 3.49687 40.7993 5.49687V37.5969C40.8993 39.6969 39.1992 41.3969 37.0992 41.3969ZM4.99927 3.49687C3.89927 3.49687 2.99927 4.39687 2.99927 5.49687V37.5969C2.99927 38.6969 3.89927 39.5969 4.99927 39.5969H37.0992C38.1992 39.5969 39.0992 38.6969 39.0992 37.5969V5.39688C39.0992 4.29688 38.1992 3.39688 37.0992 3.39688H4.99927V3.49687Z" fill="#545454"/>
<path fill-rule="evenodd" clip-rule="evenodd" d="M12.3477 8.7696C12.3477 7.33599 11.1855 6.17383 9.75189 6.17383C8.31828 6.17383 7.15612 7.33599 7.15612 8.7696V34.6589C7.15612 36.0925 8.31828 37.2547 9.75189 37.2547C11.1855 37.2547 12.3477 36.0925 12.3477 34.6589V8.7696ZM9.75189 7.87383C10.2466 7.87383 10.6477 8.27488 10.6477 8.7696V34.6589C10.6477 35.1536 10.2466 35.5547 9.75189 35.5547C9.25717 35.5547 8.85612 35.1536 8.85612 34.6589V8.7696C8.85612 8.27488 9.25717 7.87383 9.75189 7.87383Z" fill="#545454"/>
<path fill-rule="evenodd" clip-rule="evenodd" d="M36.1837 29.8868L33.1374 24.6105L27.045 24.6105L23.9988 29.8868L27.045 35.163L33.1374 35.163L36.1837 29.8868ZM37.9734 30.3868C38.1521 30.0774 38.1521 29.6962 37.9734 29.3868L34.4653 23.3105C34.2867 23.0011 33.9566 22.8105 33.5993 22.8105L26.5831 22.8105C26.2258 22.8105 25.8957 23.0011 25.7171 23.3105L22.209 29.3868C22.0303 29.6962 22.0303 30.0774 22.209 30.3868L25.7171 36.463C25.8957 36.7724 26.2258 36.963 26.5831 36.963L33.5993 36.963C33.9566 36.963 34.2867 36.7724 34.4653 36.463L37.9734 30.3868Z" fill="#545454"/>
<path fill-rule="evenodd" clip-rule="evenodd" d="M28.6643 29.8862C28.6643 30.6738 29.3028 31.3123 30.0904 31.3123C30.8779 31.3123 31.5164 30.6738 31.5164 29.8862C31.5164 29.0986 30.8779 28.4602 30.0904 28.4602C29.3028 28.4602 28.6643 29.0986 28.6643 29.8862ZM26.8643 29.8862C26.8643 31.6679 28.3087 33.1123 30.0904 33.1123C31.8721 33.1123 33.3164 31.6679 33.3164 29.8862C33.3164 28.1045 31.8721 26.6602 30.0904 26.6602C28.3087 26.6602 26.8643 28.1045 26.8643 29.8862Z" fill="#545454"/>
<path fill-rule="evenodd" clip-rule="evenodd" d="M21.0371 12.9492H12.2852V30.4785H19.0599L18.7624 29.9632L21.0371 26.0232V12.9492Z" fill="#5FECF6"/>
<path fill-rule="evenodd" clip-rule="evenodd" d="M29.7891 12.9492H21.0371V26.0233L24.2756 20.4141L29.7891 20.4141V12.9492Z" fill="#FA6666"/>
<path fill-rule="evenodd" clip-rule="evenodd" d="M32.3223 6.17383C33.7559 6.17383 34.9181 7.33599 34.9181 8.7696V20.4141H33.2181V8.7696C33.2181 8.27488 32.817 7.87383 32.3223 7.87383C31.8276 7.87383 31.4266 8.27488 31.4266 8.7696V20.4141L29.7266 20.4141V8.7696C29.7266 7.33599 30.8887 6.17383 32.3223 6.17383Z" fill="#545454"/>
<path fill-rule="evenodd" clip-rule="evenodd" d="M29.7266 12.95H12.2168V11.25H29.7266V12.95Z" fill="#545454"/>
<path fill-rule="evenodd" clip-rule="evenodd" d="M20.1219 32.1785H12.2168V30.4785H19.1406L20.1219 32.1785Z" fill="#545454"/>
</svg>
