<svg width="42" height="43" viewBox="0 0 42 43" fill="none" xmlns="http://www.w3.org/2000/svg">
<path d="M37.1 40.6832H4.89996C3.29996 40.6832 2 39.3832 2 37.7832V5.6832C2 4.0832 3.29996 2.7832 4.89996 2.7832H37.1C38.7 2.7832 40 4.0832 40 5.6832V37.8832C40 39.3832 38.7 40.6832 37.1 40.6832Z" fill="#E9E9E9"/>
<path d="M37.0992 41.5824H4.89923C2.79923 41.5824 1.19922 39.8824 1.19922 37.8824V5.68242C1.19922 3.58242 2.89923 1.98242 4.89923 1.98242H37.0992C39.1992 1.98242 40.7993 3.68242 40.7993 5.68242V37.8824C40.8993 39.8824 39.1992 41.5824 37.0992 41.5824ZM4.99927 3.68242C3.89927 3.68242 2.99927 4.58242 2.99927 5.68242V37.8824C2.99927 38.9824 3.89927 39.8824 4.99927 39.8824H37.0992C38.1992 39.8824 39.0992 38.9824 39.0992 37.8824V5.68242C39.0992 4.58242 38.1992 3.68242 37.0992 3.68242H4.99927Z" fill="#545454"/>
<path fill-rule="evenodd" clip-rule="evenodd" d="M12.2734 8.95319C12.2734 7.51959 11.1113 6.35742 9.67767 6.35742C8.24406 6.35742 7.0819 7.51959 7.0819 8.95319V34.8425C7.0819 36.2761 8.24406 37.4383 9.67767 37.4383C11.1113 37.4383 12.2734 36.2761 12.2734 34.8425V8.95319ZM9.67767 8.05742C10.1724 8.05742 10.5734 8.45847 10.5734 8.95319V34.8425C10.5734 35.3372 10.1724 35.7383 9.67767 35.7383C9.18295 35.7383 8.7819 35.3372 8.7819 34.8425V8.95319C8.7819 8.45847 9.18295 8.05742 9.67767 8.05742Z" fill="#545454"/>
<path fill-rule="evenodd" clip-rule="evenodd" d="M36.1094 30.0704L33.0632 24.7941L26.9708 24.7941L23.9245 30.0704L26.9708 35.3466L33.0632 35.3466L36.1094 30.0704ZM37.8992 30.5704C38.0779 30.261 38.0779 29.8798 37.8992 29.5704L34.3911 23.4941C34.2125 23.1847 33.8824 22.9941 33.5251 22.9941L26.5089 22.9941C26.1516 22.9941 25.8215 23.1847 25.6429 23.4941L22.1348 29.5704C21.9561 29.8798 21.9561 30.261 22.1348 30.5704L25.6429 36.6466C25.8215 36.956 26.1516 37.1466 26.5089 37.1466L33.5251 37.1466C33.8824 37.1466 34.2125 36.956 34.3911 36.6466L37.8992 30.5704Z" fill="#545454"/>
<path fill-rule="evenodd" clip-rule="evenodd" d="M28.5901 30.0698C28.5901 30.8574 29.2285 31.4959 30.0161 31.4959C30.8037 31.4959 31.4422 30.8574 31.4422 30.0698C31.4422 29.2822 30.8037 28.6437 30.0161 28.6437C29.2285 28.6437 28.5901 29.2822 28.5901 30.0698ZM26.7901 30.0698C26.7901 31.8515 28.2344 33.2959 30.0161 33.2959C31.7978 33.2959 33.2422 31.8515 33.2422 30.0698C33.2422 28.2881 31.7978 26.8437 30.0161 26.8437C28.2344 26.8437 26.7901 28.2881 26.7901 30.0698Z" fill="#545454"/>
<path fill-rule="evenodd" clip-rule="evenodd" d="M20.9629 13.1328H12.2109V30.6621H18.9857L18.6882 30.1468L20.9629 26.2068V13.1328Z" fill="#5FEDF6"/>
<path fill-rule="evenodd" clip-rule="evenodd" d="M29.7148 13.1328H20.9629V26.2068L24.2013 20.5977L29.7148 20.5977V13.1328Z" fill="#FA6666"/>
<path fill-rule="evenodd" clip-rule="evenodd" d="M32.2481 6.35742C33.6817 6.35742 34.8439 7.51959 34.8439 8.95319V20.5977H33.1439V8.95319C33.1439 8.45847 32.7428 8.05742 32.2481 8.05742C31.7534 8.05742 31.3523 8.45847 31.3523 8.95319V20.5977L29.6523 20.5977V8.95319C29.6523 7.51959 30.8145 6.35742 32.2481 6.35742Z" fill="#545454"/>
<path fill-rule="evenodd" clip-rule="evenodd" d="M29.6523 13.1336H12.1426V11.4336H29.6523V13.1336Z" fill="#545454"/>
<path fill-rule="evenodd" clip-rule="evenodd" d="M20.0477 32.3621H12.1426V30.6621H19.0664L20.0477 32.3621Z" fill="#545454"/>
</svg>
