<svg width="40" height="40" viewBox="0 0 40 40" fill="none" xmlns="http://www.w3.org/2000/svg">
<path d="M35.9906 38.8906H3.79059C2.19059 38.8906 0.890625 37.5906 0.890625 35.9906V3.79063C0.890625 2.19063 2.19059 0.890625 3.79059 0.890625H35.9906C37.5906 0.890625 38.8906 2.19063 38.8906 3.79063V35.9906C38.8906 37.5906 37.5906 38.8906 35.9906 38.8906Z" fill="#E9E9E9"/>
<path fill-rule="evenodd" clip-rule="evenodd" d="M3.79051 1.7811C2.68237 1.7811 1.7811 2.68238 1.7811 3.79056V35.9906C1.7811 37.0987 2.68236 38 3.79051 38H35.9905C37.0987 38 38 37.0987 38 35.9906V3.79056C38 2.6824 37.0987 1.7811 35.9905 1.7811H3.79051ZM0 3.79056C0 1.69874 1.69866 0 3.79051 0H35.9905C38.0824 0 39.7811 1.69872 39.7811 3.79056V35.9906C39.7811 38.0824 38.0823 39.7811 35.9905 39.7811H3.79051C1.69866 39.7811 0 38.0824 0 35.9906V3.79056Z" fill="#545454"/>
<path d="M19.3542 30.127H8.43512C7.41277 30.127 6.58398 30.9557 6.58398 31.9781V31.9781C6.58398 33.0004 7.41277 33.8292 8.43512 33.8292H21.6319" stroke="#545454" stroke-width="1.8" stroke-linecap="round"/>
<path d="M11.0792 6.9375L8.18941 9.74764C7.75263 10.1724 7.79395 10.8857 8.27686 11.2572L11.2082 13.5121C11.7285 13.9124 11.7285 14.697 11.2082 15.0973L8.39172 17.2638C7.87134 17.6641 7.87134 18.4488 8.39172 18.8491L11.2711 21.064C11.7715 21.4489 11.7943 22.1955 11.3185 22.6103L8.32213 25.2226" stroke="#545454" stroke-width="1.8" stroke-linecap="round" stroke-linejoin="round"/>
<path d="M19.6944 6.9375L16.8046 9.74764C16.3679 10.1724 16.4092 10.8857 16.8921 11.2572L19.8234 13.5121C20.3438 13.9124 20.3438 14.697 19.8234 15.0973L17.007 17.2638C16.4866 17.6641 16.4866 18.4488 17.007 18.8491L19.8863 21.064C20.3867 21.4489 20.4096 22.1955 19.9337 22.6103L16.9374 25.2226" stroke="#545454" stroke-width="1.8" stroke-linecap="round" stroke-linejoin="round"/>
<path d="M28.3077 6.9375L25.4179 9.74764C24.9811 10.1724 25.0225 10.8857 25.5054 11.2572L28.4367 13.5121C28.9571 13.9124 28.9571 14.697 28.4367 15.0973L24.5898 18.0564" stroke="#545454" stroke-width="1.8" stroke-linecap="round" stroke-linejoin="round"/>
<path d="M36.0003 27.2947C36.0181 27.3257 36.0181 27.3638 36.0003 27.3947L32.4922 33.471C32.4743 33.5019 32.4413 33.521 32.4056 33.521L25.3893 33.521C25.3536 33.521 25.3206 33.5019 25.3027 33.471L21.7946 27.3947C21.7768 27.3638 21.7768 27.3257 21.7946 27.2947L25.3027 21.2185C25.3206 21.1876 25.3536 21.1685 25.3893 21.1685L32.4056 21.1685C32.4413 21.1685 32.4743 21.1876 32.4922 21.2185L36.0003 27.2947Z" stroke="#545454" stroke-width="1.8" stroke-linejoin="round"/>
<circle cx="28.897" cy="27.3452" r="2.32605" transform="rotate(90 28.897 27.3452)" stroke="#545454" stroke-width="1.8" stroke-linejoin="round"/>
</svg>
