<svg width="42" height="42" viewBox="0 0 42 42" fill="none" xmlns="http://www.w3.org/2000/svg">
<path d="M36.9906 39.8906H4.79059C3.19059 39.8906 1.89062 38.5906 1.89062 36.9906V4.79063C1.89062 3.19063 3.19059 1.89062 4.79059 1.89062H36.9906C38.5906 1.89062 39.8906 3.19063 39.8906 4.79063V36.9906C39.8906 38.5906 38.5906 39.8906 36.9906 39.8906Z" fill="#E9E9E9"/>
<path fill-rule="evenodd" clip-rule="evenodd" d="M4.79051 2.7811C3.68237 2.7811 2.7811 3.68238 2.7811 4.79056V36.9906C2.7811 38.0987 3.68236 39 4.79051 39H36.9905C38.0987 39 39 38.0987 39 36.9906V4.79056C39 3.6824 38.0987 2.7811 36.9905 2.7811H4.79051ZM1 4.79056C1 2.69874 2.69866 1 4.79051 1H36.9905C39.0824 1 40.7811 2.69872 40.7811 4.79056V36.9906C40.7811 39.0824 39.0823 40.7811 36.9905 40.7811H4.79051C2.69866 40.7811 1 39.0824 1 36.9906V4.79056Z" fill="#545454"/>
<path d="M12.3995 23.9971L8.37701 28.0196L6.90467 22.5248L12.3995 23.9971Z" stroke="#545454" stroke-width="1.8"/>
<mask id="path-4-inside-1_4523_22640" fill="white">
<path d="M14.3169 18.7381C14.2277 18.3571 13.8452 18.1176 13.4733 18.2394C12.5003 18.5581 11.5936 19.0572 10.8015 19.7126C10.0095 20.368 9.34957 21.1654 8.85442 22.0616C8.66518 22.4041 8.8289 22.8247 9.1865 22.9836C9.5441 23.1425 9.95969 22.9791 10.1551 22.6401C10.5573 21.9424 11.0816 21.3203 11.705 20.8044C12.3284 20.2886 13.0376 19.8899 13.7982 19.6253C14.1679 19.4968 14.4061 19.1191 14.3169 18.7381Z"/>
</mask>
<path d="M14.3169 18.7381C14.2277 18.3571 13.8452 18.1176 13.4733 18.2394C12.5003 18.5581 11.5936 19.0572 10.8015 19.7126C10.0095 20.368 9.34957 21.1654 8.85442 22.0616C8.66518 22.4041 8.8289 22.8247 9.1865 22.9836C9.5441 23.1425 9.95969 22.9791 10.1551 22.6401C10.5573 21.9424 11.0816 21.3203 11.705 20.8044C12.3284 20.2886 13.0376 19.8899 13.7982 19.6253C14.1679 19.4968 14.4061 19.1191 14.3169 18.7381Z" stroke="#545454" stroke-width="2" mask="url(#path-4-inside-1_4523_22640)"/>
<rect x="8.27148" y="31.918" width="27.2317" height="3.51377" rx="1.75689" stroke="#545454" stroke-width="1.8"/>
<rect x="21.3937" y="7.11142" width="15.7689" height="15.7689" transform="rotate(15.8339 21.3937 7.11142)" stroke="#545454" stroke-width="1.8"/>
<path d="M5.76627 11.7487L4.87746 14.9465H4L5.29205 11.0535H5.8401L5.76627 11.7487ZM6.46767 14.9465L5.57318 11.7487L5.49083 11.0535H6.0474L7.35081 14.9465H6.46767ZM6.49891 13.4947V14.1444H4.63325V13.4947H6.49891Z" fill="#545454"/>
<path d="M9.55155 11.0535H10.3807V13.7273C10.3807 14.0267 10.322 14.2709 10.2047 14.4599C10.0892 14.6471 9.92923 14.7843 9.72477 14.8717C9.52031 14.9572 9.28652 15 9.02337 15C8.75834 15 8.52264 14.9572 8.3163 14.8717C8.10995 14.7843 7.94903 14.6471 7.83355 14.4599C7.71996 14.2709 7.66317 14.0267 7.66317 13.7273V11.0535H8.49235V13.7273C8.49235 13.8966 8.51223 14.0267 8.55199 14.1176C8.59364 14.2086 8.65327 14.2709 8.73089 14.3048C8.8104 14.3369 8.90789 14.3529 9.02337 14.3529C9.14075 14.3529 9.23729 14.3369 9.31302 14.3048C9.39064 14.2709 9.44932 14.2086 9.48908 14.1176C9.53073 14.0267 9.55155 13.8966 9.55155 13.7273V11.0535Z" fill="#545454"/>
<path d="M12.6638 11.0535V14.9465H11.8375V11.0535H12.6638ZM13.6918 11.0535V11.7032H10.8294V11.0535H13.6918Z" fill="#545454"/>
<path d="M17 12.6979V13.3476C17 13.6221 16.964 13.8627 16.8921 14.0695C16.822 14.2745 16.7217 14.4465 16.5911 14.5856C16.4624 14.7228 16.3062 14.8262 16.1225 14.8957C15.9408 14.9652 15.7392 15 15.5177 15C15.2962 15 15.0936 14.9652 14.91 14.8957C14.7283 14.8262 14.5711 14.7228 14.4386 14.5856C14.308 14.4465 14.2067 14.2745 14.1348 14.0695C14.0628 13.8627 14.0269 13.6221 14.0269 13.3476V12.6979C14.0269 12.4162 14.0619 12.1702 14.1319 11.9599C14.202 11.7478 14.3033 11.5713 14.4358 11.4305C14.5683 11.2879 14.7254 11.1809 14.9072 11.1096C15.0889 11.0365 15.2905 11 15.512 11C15.7335 11 15.9351 11.0365 16.1169 11.1096C16.2986 11.1809 16.4557 11.2879 16.5882 11.4305C16.7208 11.5713 16.822 11.7478 16.8921 11.9599C16.964 12.1702 17 12.4162 17 12.6979ZM16.1737 13.3476V12.6925C16.1737 12.5071 16.1595 12.3494 16.1311 12.2193C16.1027 12.0873 16.0601 11.9795 16.0033 11.8957C15.9465 11.8119 15.8774 11.7504 15.796 11.7112C15.7146 11.672 15.6199 11.6524 15.512 11.6524C15.4041 11.6524 15.3085 11.672 15.2252 11.7112C15.1438 11.7504 15.0747 11.8119 15.0179 11.8957C14.963 11.9795 14.9214 12.0873 14.893 12.2193C14.8665 12.3494 14.8532 12.5071 14.8532 12.6925V13.3476C14.8532 13.5258 14.8674 13.6783 14.8958 13.8048C14.9242 13.9314 14.9668 14.0348 15.0236 14.115C15.0804 14.1952 15.1495 14.2549 15.2309 14.2941C15.3142 14.3316 15.4098 14.3503 15.5177 14.3503C15.6237 14.3503 15.7174 14.3316 15.7988 14.2941C15.8821 14.2549 15.9512 14.1952 16.0061 14.115C16.061 14.0348 16.1027 13.9314 16.1311 13.8048C16.1595 13.6783 16.1737 13.5258 16.1737 13.3476Z" fill="#545454"/>
</svg>
