<svg width="14" height="16" viewBox="0 0 14 16" fill="none" xmlns="http://www.w3.org/2000/svg">
<g clip-path="url(#clip0_13328_29956)">
<path d="M13.8527 8.35312C14.0465 8.15937 14.0465 7.84062 13.8527 7.64687L8.35274 2.14687C8.15899 1.95312 7.84024 1.95312 7.64649 2.14687C7.45274 2.34062 7.45274 2.65937 7.64649 2.85312L12.2934 7.5L0.49961 7.5C0.22461 7.5 -0.000390458 7.725 -0.000390482 8C-0.000390506 8.275 0.22461 8.5 0.499609 8.5L12.2934 8.5L7.64648 13.1469C7.45273 13.3406 7.45273 13.6594 7.64648 13.8531C7.84023 14.0469 8.15898 14.0469 8.35273 13.8531L13.8527 8.35312Z" fill="#A5A5A5"/>
</g>
<defs>
<clipPath id="clip0_13328_29956">
<rect width="14" height="16" fill="white" transform="translate(14 16) rotate(-180)"/>
</clipPath>
</defs>
</svg>
