<?xml version="1.0" encoding="UTF-8"?><svg id="a" xmlns="http://www.w3.org/2000/svg" width="43" height="43" viewBox="0 0 43 43"><rect x="1.5" y="1.5" width="40" height="40" rx="3.5" ry="3.5" style="fill:#54545a;"/><path d="M38,2c1.66,0,3,1.34,3,3v33c0,1.66-1.34,3-3,3H5c-1.66,0-3-1.34-3-3V5c0-1.66,1.34-3,3-3h33M38,1H5C2.79,1,1,2.79,1,5v33c0,2.21,1.79,4,4,4h33c2.21,0,4-1.79,4-4V5c0-2.21-1.79-4-4-4Z" style="fill:#b3b3b3;"/><circle cx="17.36" cy="17.51" r="11.5" style="fill:#54545a; stroke:#c4c4c4; stroke-linecap:round; stroke-linejoin:round;"/><circle cx="17.36" cy="17.51" r="3.5" style="fill:#54545a; stroke:#c4c4c4; stroke-linecap:round; stroke-linejoin:round;"/><circle cx="25.14" cy="25.99" r="11.5" style="fill:#54545a; stroke:#c4c4c4; stroke-linecap:round; stroke-linejoin:round;"/><circle cx="25.14" cy="25.99" r="3.5" style="fill:#54545a; stroke:#c4c4c4; stroke-linecap:round; stroke-linejoin:round;"/></svg>