<svg xmlns="http://www.w3.org/2000/svg" width="43" height="43" viewBox="0 0 43 43"><rect x="1.5" y="1.5" width="40" height="40" rx="3.5" style="fill:#54545a"/><path d="M38,2a3,3,0,0,1,3,3V38a3,3,0,0,1-3,3H5a3,3,0,0,1-3-3V5A3,3,0,0,1,5,2H38m0-1H5A4,4,0,0,0,1,5V38a4,4,0,0,0,4,4H38a4,4,0,0,0,4-4V5a4,4,0,0,0-4-4Z" style="fill:#009688"/><rect x="6.5" y="26.5" width="30" height="10" rx="1" transform="translate(43 63) rotate(-180)" style="fill:none;stroke:#009688;stroke-linecap:round;stroke-linejoin:round"/><rect x="26.5" y="6.5" width="10" height="17" rx="1" transform="translate(63 30) rotate(-180)" style="fill:none;stroke:#009688;stroke-linecap:round;stroke-linejoin:round"/><rect x="6.5" y="6.5" width="17" height="7" rx="3.5" transform="translate(30 20) rotate(180)" style="fill:none;stroke:#009688;stroke-linecap:round;stroke-linejoin:round"/><circle cx="10" cy="20" r="3.5" style="fill:none;stroke:#009688;stroke-linecap:round;stroke-linejoin:round"/><circle cx="20" cy="20" r="3.5" style="fill:none;stroke:#009688;stroke-linecap:round;stroke-linejoin:round"/></svg>