<svg xmlns="http://www.w3.org/2000/svg" viewBox="0 0 42 42"><rect x="0.5" y="0.5" width="40" height="40" rx="3.5" style="fill:#54545a"/><path d="M37,1a3,3,0,0,1,3,3V37a3,3,0,0,1-3,3H4a3,3,0,0,1-3-3V4A3,3,0,0,1,4,1H37m0-1H4A4,4,0,0,0,0,4V37a4,4,0,0,0,4,4H37a4,4,0,0,0,4-4V4a4,4,0,0,0-4-4Z" style="fill:gray"/><path d="M29,22a1,1,0,0,1,1,1v9a1,1,0,0,1-1,1H12a1,1,0,0,1-1-1V23a1,1,0,0,1,1-1H29m0-1H12a2,2,0,0,0-2,2v9a2,2,0,0,0,2,2H29a2,2,0,0,0,2-2V23a2,2,0,0,0-2-2Z" style="fill:#b3b3b3"/><path d="M28.5,20.5v-7a6,6,0,0,0-6-6h-4a6,6,0,0,0-6,6v3" style="fill:none;stroke:#b3b3b3;stroke-linecap:round;stroke-linejoin:round"/></svg>