<svg xmlns="http://www.w3.org/2000/svg" width="43" height="43" viewBox="0 0 43 43"><rect x="1.5" y="1.5" width="40" height="40" rx="3.5" style="fill:#54545a"/><path d="M38,2a3,3,0,0,1,3,3V38a3,3,0,0,1-3,3H5a3,3,0,0,1-3-3V5A3,3,0,0,1,5,2H38m0-1H5A4,4,0,0,0,1,5V38a4,4,0,0,0,4,4H38a4,4,0,0,0,4-4V5a4,4,0,0,0-4-4Z" style="fill:#009688"/><line x1="10" y1="10" x2="33" y2="33" style="fill:none;stroke:#009688;stroke-linecap:round;stroke-linejoin:round"/><line x1="33" y1="10" x2="10" y2="33" style="fill:none;stroke:#009688;stroke-linecap:round;stroke-linejoin:round"/></svg>