<svg width="42" height="42" viewBox="0 0 42 42" fill="none" xmlns="http://www.w3.org/2000/svg">
<path d="M36.9906 39.8906H4.79059C3.19059 39.8906 1.89062 38.5906 1.89062 36.9906V4.79063C1.89062 3.19063 3.19059 1.89062 4.79059 1.89062H36.9906C38.5906 1.89062 39.8906 3.19063 39.8906 4.79063V36.9906C39.8906 38.5906 38.5906 39.8906 36.9906 39.8906Z" fill="#DDDDDD"/>
<path fill-rule="evenodd" clip-rule="evenodd" d="M4.79051 2.7811C3.68237 2.7811 2.7811 3.68238 2.7811 4.79056V36.9906C2.7811 38.0987 3.68236 39 4.79051 39H36.9905C38.0987 39 39 38.0987 39 36.9906V4.79056C39 3.6824 38.0987 2.7811 36.9905 2.7811H4.79051ZM1 4.79056C1 2.69874 2.69866 1 4.79051 1H36.9905C39.0824 1 40.7811 2.69872 40.7811 4.79056V36.9906C40.7811 39.0824 39.0823 40.7811 36.9905 40.7811H4.79051C2.69866 40.7811 1 39.0824 1 36.9906V4.79056Z" fill="#909090"/>
<path d="M14.8906 15.2902L10.3906 7.49023L5.89062 15.2902H8.89062V26.5902H5.89062L10.3906 34.3902L14.8906 26.5902H11.8906V15.2902H14.8906Z" fill="#909090"/>
<path d="M25.3903 15.2902L20.9902 7.49023L16.4902 15.2902H19.4902V26.5902H16.4902L20.9902 34.3902L25.3903 26.5902H22.4902V15.2902H25.3903Z" fill="#909090"/>
<path d="M32.9902 15.2902H35.9902L31.4902 7.49023L26.9902 15.2902H29.9902V26.5902H26.9902L31.4902 34.3902L35.9902 26.5902H32.9902V15.2902Z" fill="#909090"/>
</svg>
