<svg width="20" height="20" viewBox="0 0 20 20" fill="none" xmlns="http://www.w3.org/2000/svg">
<path fill-rule="evenodd" clip-rule="evenodd" d="M14.5131 3.11974L14.6335 3.23273C15.5708 4.16997 15.6083 5.66627 14.746 6.64825L14.6335 6.76825L6.87213 14.1673H3.3363V10.6315L11.0975 3.23227C12.0348 2.29498 13.5311 2.25748 14.5131 3.11974ZM16.6429 15.8337C17.1162 15.8337 17.5 16.2068 17.5 16.6671C17.5 17.1273 17.1162 17.5004 16.6429 17.5004H3.35714C2.88376 17.5004 2.5 17.1273 2.5 16.6671C2.5 16.2068 2.88376 15.8337 3.35714 15.8337H16.6429ZM12.2762 4.41124L12.3547 4.34192C12.6816 4.08778 13.1542 4.11088 13.4545 4.41124C13.7799 4.73663 13.7799 5.26418 13.4545 5.58957L6.1813 12.5006H5.00296V11.3223L12.2762 4.41124Z" fill="#eb4949"/>
<path fill-rule="evenodd" clip-rule="evenodd" d="M14.5131 3.11974L14.6335 3.23273C15.5708 4.16997 15.6083 5.66627 14.746 6.64825L14.6335 6.76825L6.87213 14.1673H3.3363V10.6315L11.0975 3.23227C12.0348 2.29498 13.5311 2.25748 14.5131 3.11974ZM16.6429 15.8337C17.1162 15.8337 17.5 16.2068 17.5 16.6671C17.5 17.1273 17.1162 17.5004 16.6429 17.5004H3.35714C2.88376 17.5004 2.5 17.1273 2.5 16.6671C2.5 16.2068 2.88376 15.8337 3.35714 15.8337H16.6429ZM12.2762 4.41124L12.3547 4.34192C12.6816 4.08778 13.1542 4.11088 13.4545 4.41124C13.7799 4.73663 13.7799 5.26418 13.4545 5.58957L6.1813 12.5006H5.00296V11.3223L12.2762 4.41124Z" fill="white" fill-opacity="0.2"/>
</svg>
