<svg width="40" height="40" viewBox="0 0 40 40" fill="none" xmlns="http://www.w3.org/2000/svg">
<path d="M36.9473 39.2H3.05259C1.81221 39.2 0.8 38.1881 0.8 36.9393V3.06069C0.8 1.81186 1.81221 0.8 3.05259 0.8H36.9473C38.1877 0.8 39.2 1.81188 39.2 3.06069V37.0449C39.2 38.17 38.206 39.2 36.9473 39.2Z" fill="#54545A" stroke="#98989C" stroke-width="1.6" stroke-miterlimit="10"/>
<mask id="path-2-inside-1_8623_36802" fill="white">
<path fill-rule="evenodd" clip-rule="evenodd" d="M9.98818 7.81728C9.38904 7.21813 8.41764 7.21813 7.8185 7.81728C7.21936 8.41642 7.21936 9.38782 7.8185 9.98696L17.831 19.9995L7.8185 30.012C7.21936 30.6112 7.21936 31.5826 7.8185 32.1817C8.41764 32.7809 9.38904 32.7809 9.98818 32.1817L20.0007 22.1692L30.0133 32.1817C30.6124 32.7809 31.5838 32.7809 32.1829 32.1817C32.7821 31.5826 32.7821 30.6112 32.1829 30.012L22.1704 19.9995L32.1829 9.98696C32.7821 9.38782 32.7821 8.41642 32.1829 7.81728C31.5838 7.21813 30.6124 7.21813 30.0133 7.81728L20.0007 17.8298L9.98818 7.81728Z"/>
</mask>
<path fill-rule="evenodd" clip-rule="evenodd" d="M9.98818 7.81728C9.38904 7.21813 8.41764 7.21813 7.8185 7.81728C7.21936 8.41642 7.21936 9.38782 7.8185 9.98696L17.831 19.9995L7.8185 30.012C7.21936 30.6112 7.21936 31.5826 7.8185 32.1817C8.41764 32.7809 9.38904 32.7809 9.98818 32.1817L20.0007 22.1692L30.0133 32.1817C30.6124 32.7809 31.5838 32.7809 32.1829 32.1817C32.7821 31.5826 32.7821 30.6112 32.1829 30.012L22.1704 19.9995L32.1829 9.98696C32.7821 9.38782 32.7821 8.41642 32.1829 7.81728C31.5838 7.21813 30.6124 7.21813 30.0133 7.81728L20.0007 17.8298L9.98818 7.81728Z" fill="#54545A"/>
<path d="M7.8185 7.81728L6.68713 6.68591L6.68713 6.68591L7.8185 7.81728ZM9.98818 7.81728L11.1196 6.68591L11.1196 6.68591L9.98818 7.81728ZM7.8185 9.98696L6.68713 11.1183L6.68713 11.1183L7.8185 9.98696ZM17.831 19.9995L18.9624 21.1309L20.0938 19.9995L18.9624 18.8681L17.831 19.9995ZM7.8185 30.012L8.94987 31.1434L7.8185 30.012ZM7.8185 32.1817L6.68713 33.3131L6.68713 33.3131L7.8185 32.1817ZM9.98818 32.1817L11.1196 33.3131L11.1196 33.3131L9.98818 32.1817ZM20.0007 22.1692L21.1321 21.0378L20.0007 19.9064L18.8694 21.0378L20.0007 22.1692ZM30.0133 32.1817L28.8819 33.3131L28.8819 33.3131L30.0133 32.1817ZM32.1829 32.1817L33.3143 33.3131L33.3143 33.3131L32.1829 32.1817ZM32.1829 30.012L33.3143 28.8807L33.3143 28.8807L32.1829 30.012ZM22.1704 19.9995L21.039 18.8681L19.9077 19.9995L21.039 21.1309L22.1704 19.9995ZM32.1829 9.98696L33.3143 11.1183L33.3143 11.1183L32.1829 9.98696ZM32.1829 7.81728L33.3143 6.68591L33.3143 6.68591L32.1829 7.81728ZM30.0133 7.81728L31.1446 8.94865L31.1446 8.94865L30.0133 7.81728ZM20.0007 17.8298L18.8694 18.9612L20.0007 20.0926L21.1321 18.9612L20.0007 17.8298ZM8.94987 8.94865C8.92417 8.97434 8.88251 8.97434 8.85681 8.94865L11.1196 6.68591C9.89557 5.46192 7.91111 5.46192 6.68713 6.68591L8.94987 8.94865ZM8.94987 8.85559C8.97556 8.88129 8.97556 8.92295 8.94987 8.94865L6.68713 6.68591C5.46315 7.90989 5.46315 9.89435 6.68713 11.1183L8.94987 8.85559ZM18.9624 18.8681L8.94987 8.85559L6.68713 11.1183L16.6997 21.1309L18.9624 18.8681ZM8.94987 31.1434L18.9624 21.1309L16.6997 18.8681L6.68713 28.8807L8.94987 31.1434ZM8.94987 31.0504C8.97557 31.076 8.97556 31.1177 8.94987 31.1434L6.68713 28.8807C5.46315 30.1046 5.46314 32.0891 6.68713 33.3131L8.94987 31.0504ZM8.85681 31.0504C8.88251 31.0247 8.92417 31.0247 8.94987 31.0504L6.68713 33.3131C7.91111 34.5371 9.89557 34.5371 11.1196 33.3131L8.85681 31.0504ZM18.8694 21.0378L8.85681 31.0504L11.1196 33.3131L21.1321 23.3006L18.8694 21.0378ZM31.1446 31.0504L21.1321 21.0378L18.8694 23.3006L28.8819 33.3131L31.1446 31.0504ZM31.0516 31.0504C31.0773 31.0247 31.1189 31.0247 31.1446 31.0504L28.8819 33.3131C30.1059 34.5371 32.0903 34.5371 33.3143 33.3131L31.0516 31.0504ZM31.0516 31.1434C31.0259 31.1177 31.0259 31.0761 31.0516 31.0504L33.3143 33.3131C34.5383 32.0891 34.5383 30.1046 33.3143 28.8807L31.0516 31.1434ZM21.039 21.1309L31.0516 31.1434L33.3143 28.8807L23.3018 18.8681L21.039 21.1309ZM31.0516 8.85559L21.039 18.8681L23.3018 21.1309L33.3143 11.1183L31.0516 8.85559ZM31.0516 8.94865C31.0259 8.92295 31.0259 8.88129 31.0516 8.85559L33.3143 11.1183C34.5383 9.89435 34.5383 7.90989 33.3143 6.68591L31.0516 8.94865ZM31.1446 8.94865C31.1189 8.97434 31.0773 8.97434 31.0516 8.94865L33.3143 6.68591C32.0903 5.46192 30.1059 5.46192 28.8819 6.68591L31.1446 8.94865ZM21.1321 18.9612L31.1446 8.94865L28.8819 6.68591L18.8694 16.6984L21.1321 18.9612ZM8.85681 8.94865L18.8694 18.9612L21.1321 16.6984L11.1196 6.68591L8.85681 8.94865Z" fill="#98989C" mask="url(#path-2-inside-1_8623_36802)"/>
</svg>
