<svg width="40" height="40" viewBox="0 0 40 40" fill="none" xmlns="http://www.w3.org/2000/svg">
<path d="M36.9473 39.2H3.05259C1.81022 39.2 0.8 38.1898 0.8 36.9474V3.05264C0.8 1.81024 1.81023 0.8 3.05259 0.8H36.9473C38.1897 0.8 39.2 1.81026 39.2 3.05264V36.9474C39.2 38.1897 38.1897 39.2 36.9473 39.2Z" fill="#54545A" stroke="#98989C" stroke-width="1.6" stroke-miterlimit="10"/>
<path d="M17.7295 30H7C5.89543 30 5 30.8954 5 32V32C5 33.1046 5.89543 34 7 34H20" stroke="#D15B00" stroke-width="1.6" stroke-linecap="round"/>
<path d="M20.8114 6L17.8789 8.73829C17.4219 9.16509 17.4643 9.90198 17.9673 10.2735L20.911 12.4479C21.4522 12.8477 21.4522 13.6569 20.911 14.0567L18.089 16.1412C17.5478 16.5409 17.5478 17.3502 18.089 17.7499L20.9776 19.8836C21.4984 20.2684 21.5219 21.0391 21.0253 21.4548L17.985 24" stroke="#D15B00" stroke-width="1.6" stroke-linecap="round" stroke-linejoin="round"/>
<path d="M9.81141 6L6.87895 8.73829C6.42188 9.16509 6.46429 9.90198 6.9673 10.2735L9.91105 12.4479C10.4522 12.8477 10.4522 13.6569 9.91105 14.0567L7.08895 16.1412C6.54781 16.5409 6.54781 17.3502 7.08895 17.7499L9.97758 19.8836C10.4984 20.2684 10.5219 21.0391 10.0253 21.4548L6.98498 24" stroke="#D15B00" stroke-width="1.6" stroke-linecap="round" stroke-linejoin="round"/>
<path d="M31.8114 6L28.8726 8.75785C28.418 9.18444 28.4603 9.91843 28.9609 10.29L31.9742 12.5269C32.4958 12.914 32.5155 13.688 32.0144 14.1013L28.5 17" stroke="#D15B00" stroke-width="1.6" stroke-linecap="round" stroke-linejoin="round"/>
<path d="M35.0185 28.4C35.0542 28.4619 35.0542 28.5381 35.0185 28.6L31.8459 34.0952C31.8101 34.1571 31.7441 34.1952 31.6726 34.1952L25.3274 34.1952C25.2559 34.1952 25.1899 34.1571 25.1541 34.0952L21.9815 28.6C21.9458 28.5381 21.9458 28.4619 21.9815 28.4L25.1541 22.9048C25.1899 22.8429 25.2559 22.8048 25.3274 22.8048L31.6727 22.8048C31.7441 22.8048 31.8101 22.8429 31.8459 22.9048L35.0185 28.4Z" stroke="#98989C" stroke-width="1.6" stroke-linejoin="round"/>
<circle cx="28.5" cy="28.5" r="1.7" transform="rotate(90 28.5 28.5)" stroke="#98989C" stroke-width="1.6" stroke-linejoin="round"/>
</svg>
