<svg width="40" height="40" viewBox="0 0 40 40" fill="none" xmlns="http://www.w3.org/2000/svg">
<path d="M36.9473 39.2H3.05259C1.81221 39.2 0.8 38.1881 0.8 36.9393V3.06069C0.8 1.81186 1.81221 0.8 3.05259 0.8H36.9473C38.1877 0.8 39.2 1.81188 39.2 3.06069V37.0449C39.2 38.17 38.206 39.2 36.9473 39.2Z" fill="#54545A" stroke="#98989C" stroke-width="1.6" stroke-miterlimit="10"/>
<path fill-rule="evenodd" clip-rule="evenodd" d="M13.6016 15.5307C13.5124 15.1496 13.1299 14.9101 12.758 15.0319C11.785 15.3507 10.8783 15.8497 10.0863 16.5052C9.29421 17.1606 8.63431 17.9579 8.13917 18.8541C8.13051 18.8698 8.1226 18.8856 8.11541 18.9016L5.25198 18.1343C5.10326 18.0945 4.96718 18.2305 5.00703 18.3792L7.10697 26.2164C7.14682 26.3651 7.33271 26.4149 7.44158 26.306L13.1787 20.5689C13.2876 20.46 13.2378 20.2741 13.0891 20.2342L9.53013 19.2806C9.91931 18.6444 10.412 18.075 10.9897 17.597C11.6131 17.0811 12.3223 16.6824 13.083 16.4179C13.4526 16.2894 13.6909 15.9117 13.6016 15.5307ZM10.3327 21.1521L8.02485 23.46L7.18011 20.3074L10.3327 21.1521Z" fill="#98989C"/>
<rect x="22.9411" y="7.20265" width="13.1421" height="13.1421" transform="rotate(25.8894 22.9411 7.20265)" stroke="#98989C" stroke-width="1.8"/>
<path d="M6.76627 6.74866L5.87746 9.94652H5L6.29205 6.05348H6.8401L6.76627 6.74866ZM7.46767 9.94652L6.57318 6.74866L6.49083 6.05348H7.0474L8.35081 9.94652H7.46767ZM7.49891 8.49465V9.14438H5.63325V8.49465H7.49891Z" fill="#98989C"/>
<path d="M10.5516 6.05348H11.3807V8.72727C11.3807 9.02674 11.322 9.27094 11.2047 9.45989C11.0892 9.64706 10.9292 9.78431 10.7248 9.87166C10.5203 9.95722 10.2865 10 10.0234 10C9.75834 10 9.52264 9.95722 9.3163 9.87166C9.10995 9.78431 8.94903 9.64706 8.83355 9.45989C8.71997 9.27094 8.66317 9.02674 8.66317 8.72727V6.05348H9.49235V8.72727C9.49235 8.89661 9.51223 9.02674 9.55199 9.11765C9.59364 9.20856 9.65327 9.27094 9.73089 9.30481C9.8104 9.3369 9.90789 9.35294 10.0234 9.35294C10.1407 9.35294 10.2373 9.3369 10.313 9.30481C10.3906 9.27094 10.4493 9.20856 10.4891 9.11765C10.5307 9.02674 10.5516 8.89661 10.5516 8.72727V6.05348Z" fill="#98989C"/>
<path d="M13.6638 6.05348V9.94652H12.8375V6.05348H13.6638ZM14.6918 6.05348V6.70321H11.8294V6.05348H14.6918Z" fill="#98989C"/>
<path d="M18 7.69786V8.34759C18 8.6221 17.964 8.86275 17.8921 9.06952C17.822 9.27451 17.7217 9.44652 17.5911 9.58556C17.4624 9.72282 17.3062 9.8262 17.1225 9.89572C16.9408 9.96524 16.7392 10 16.5177 10C16.2962 10 16.0936 9.96524 15.91 9.89572C15.7283 9.8262 15.5711 9.72282 15.4386 9.58556C15.308 9.44652 15.2067 9.27451 15.1348 9.06952C15.0628 8.86275 15.0269 8.6221 15.0269 8.34759V7.69786C15.0269 7.41622 15.0619 7.17023 15.1319 6.95989C15.202 6.74777 15.3033 6.5713 15.4358 6.43048C15.5683 6.28788 15.7254 6.18093 15.9072 6.10963C16.0889 6.03654 16.2905 6 16.512 6C16.7335 6 16.9351 6.03654 17.1169 6.10963C17.2986 6.18093 17.4557 6.28788 17.5882 6.43048C17.7208 6.5713 17.822 6.74777 17.8921 6.95989C17.964 7.17023 18 7.41622 18 7.69786ZM17.1737 8.34759V7.69251C17.1737 7.50713 17.1595 7.34938 17.1311 7.21925C17.1027 7.08734 17.0601 6.9795 17.0033 6.89572C16.9465 6.81194 16.8774 6.75045 16.796 6.71123C16.7146 6.67201 16.6199 6.65241 16.512 6.65241C16.4041 6.65241 16.3085 6.67201 16.2252 6.71123C16.1438 6.75045 16.0747 6.81194 16.0179 6.89572C15.963 6.9795 15.9214 7.08734 15.893 7.21925C15.8665 7.34938 15.8532 7.50713 15.8532 7.69251V8.34759C15.8532 8.52585 15.8674 8.67825 15.8958 8.80481C15.9242 8.93137 15.9668 9.03476 16.0236 9.11497C16.0804 9.19519 16.1495 9.2549 16.2309 9.29412C16.3142 9.33155 16.4098 9.35027 16.5177 9.35027C16.6237 9.35027 16.7174 9.33155 16.7988 9.29412C16.8821 9.2549 16.9512 9.19519 17.0061 9.11497C17.061 9.03476 17.1027 8.93137 17.1311 8.80481C17.1595 8.67825 17.1737 8.52585 17.1737 8.34759Z" fill="#98989C"/>
<rect x="6" y="30" width="28" height="4" rx="2" stroke="#98989C" stroke-width="1.8"/>
</svg>
