<svg width="40" height="40" viewBox="0 0 40 40" fill="none" xmlns="http://www.w3.org/2000/svg">
<path d="M36.1886 39.1046H3.81143C2.20262 39.1046 0.895508 37.7975 0.895508 36.1887V3.81147C0.895508 2.20267 2.20262 0.895508 3.81143 0.895508H36.1886C37.7974 0.895508 39.1046 2.20267 39.1046 3.81147V36.1887C39.1046 37.7975 37.7974 39.1046 36.1886 39.1046Z" fill="#4C4C55"/>
<path fill-rule="evenodd" clip-rule="evenodd" d="M3.81137 1.7909C2.69713 1.7909 1.7909 2.69714 1.7909 3.81142V36.1886C1.7909 37.3029 2.69712 38.2091 3.81137 38.2091H36.1886C37.3028 38.2091 38.2091 37.3028 38.2091 36.1886V3.81142C38.2091 2.69716 37.3028 1.7909 36.1886 1.7909H3.81137ZM0 3.81142C0 1.70809 1.70801 0 3.81137 0H36.1886C38.2919 0 40 1.70806 40 3.81142V36.1886C40 38.292 38.2919 40 36.1886 40H3.81137C1.70801 40 0 38.2919 0 36.1886V3.81142Z" fill="#98989C"/>
<path fill-rule="evenodd" clip-rule="evenodd" d="M7.59071 20.1099L13.6258 30.9363L25.5881 30.9363L31.6232 20.1099L25.5881 9.28339L13.6258 9.28339L7.59071 20.1099ZM5.80135 19.623C5.63263 19.9256 5.63263 20.2941 5.80135 20.5968L12.2824 32.2232C12.459 32.54 12.7932 32.7363 13.1559 32.7363L26.0581 32.7363C26.4207 32.7363 26.7549 32.54 26.9315 32.2232L33.4126 20.5968C33.5813 20.2941 33.5813 19.9256 33.4126 19.623L26.9315 7.99649C26.7549 7.67973 26.4207 7.48339 26.0581 7.48339L13.1559 7.48339C12.7932 7.48339 12.459 7.67973 12.2824 7.99649L5.80135 19.623Z" fill="#98989C"/>
<path fill-rule="evenodd" clip-rule="evenodd" d="M23.3647 20.1098C23.3647 17.8647 21.6232 16.1534 19.6068 16.1534C17.5903 16.1534 15.8488 17.8647 15.8488 20.1098C15.8488 22.3549 17.5903 24.0662 19.6067 24.0662C21.6232 24.0662 23.3647 22.3549 23.3647 20.1098ZM25.1647 20.1098C25.1647 16.9306 22.6763 14.3534 19.6068 14.3534C16.5372 14.3534 14.0488 16.9306 14.0488 20.1098C14.0488 23.289 16.5372 25.8662 19.6067 25.8662C22.6763 25.8662 25.1647 23.289 25.1647 20.1098Z" fill="#98989C"/>
</svg>
