<?xml version="1.0" encoding="UTF-8"?><svg id="a" xmlns="http://www.w3.org/2000/svg" width="43" height="43" viewBox="0 0 43 43"><rect x="1.5" y="1.5" width="40" height="40" rx="3.5" ry="3.5" style="fill:#ef754a;"/><path d="M38,2c1.65,0,3,1.35,3,3v33c0,1.65-1.35,3-3,3H5c-1.65,0-3-1.35-3-3V5c0-1.65,1.35-3,3-3h33M38,1H5C2.79,1,1,2.79,1,5v33c0,2.21,1.79,4,4,4h33c2.21,0,4-1.79,4-4V5c0-2.21-1.79-4-4-4h0Z" style="fill:#b3b3b3;"/><line x1="6.5" y1="12.5" x2="10.5" y2="12.5" style="fill:none; stroke:#c4c4c4; stroke-linecap:square; stroke-linejoin:round;"/><line x1="17.5" y1="12.5" x2="36.5" y2="12.5" style="fill:none; stroke:#c4c4c4; stroke-linecap:square; stroke-linejoin:round;"/><rect x="10.5" y="6.5" width="7" height="12" rx="2" ry="2" style="fill:none; stroke:#c4c4c4; stroke-linecap:square; stroke-linejoin:round;"/><line x1="36.5" y1="30.5" x2="32.5" y2="30.5" style="fill:none; stroke:#c4c4c4; stroke-linecap:square; stroke-linejoin:round;"/><line x1="25.5" y1="30.5" x2="6.5" y2="30.5" style="fill:none; stroke:#c4c4c4; stroke-linecap:square; stroke-linejoin:round;"/><rect x="25.5" y="24.5" width="7" height="12" rx="2" ry="2" transform="translate(58 61) rotate(-180)" style="fill:none; stroke:#c4c4c4; stroke-linecap:square; stroke-linejoin:round;"/></svg>