<svg width="42" height="42" viewBox="0 0 42 42" fill="none" xmlns="http://www.w3.org/2000/svg">
<path d="M36.9008 39.6992H4.70074C3.10074 39.6992 1.80078 38.3992 1.80078 36.7992V4.59923C1.80078 2.99923 3.10074 1.69922 4.70074 1.69922H36.9008C38.5008 1.69922 39.8008 2.99923 39.8008 4.59923V36.7992C39.8008 38.3992 38.5008 39.6992 36.9008 39.6992Z" fill="#D6D6D6"/>
<path d="M36.9 40.6H4.70001C2.60001 40.6 1 38.9 1 36.9V4.7C1 2.6 2.70001 1 4.70001 1H36.9C39 1 40.6 2.7 40.6 4.7V36.8C40.7 38.9 39 40.6 36.9 40.6ZM4.80005 2.7C3.70005 2.7 2.80005 3.6 2.80005 4.7V36.8C2.80005 37.9 3.70005 38.8 4.80005 38.8H36.9C38 38.8 38.9 37.9 38.9 36.8V4.60001C38.9 3.50001 38 2.60001 36.9 2.60001H4.80005V2.7Z" fill="#545454"/>
<path d="M28.9992 19.6008H28.6992V12.5008C28.6992 9.60078 26.2992 7.30078 23.3992 7.30078H18.2993C15.3993 7.30078 12.9992 9.60078 12.9992 12.5008V15.1008H15.8992V12.5008C15.8992 11.3008 16.9993 10.2008 18.2993 10.2008H23.3992C24.6992 10.2008 25.7993 11.2008 25.7993 12.5008V19.6008H12.6992C11.8992 19.6008 11.1992 20.3008 11.1992 21.1008V32.0008C11.1992 32.8008 11.8992 33.5008 12.6992 33.5008H28.9992C29.7992 33.5008 30.4992 32.8008 30.4992 32.0008V21.1008C30.4992 20.2008 29.7992 19.6008 28.9992 19.6008Z" fill="#545454"/>
</svg>
