<svg width="42" height="42" viewBox="0 0 42 42" fill="none" xmlns="http://www.w3.org/2000/svg">
<path d="M36.9008 39.7008H4.70074C3.10074 39.7008 1.80078 38.4008 1.80078 36.8008V4.70078C1.80078 3.10078 3.10074 1.80078 4.70074 1.80078H36.9008C38.5008 1.80078 39.8008 3.10078 39.8008 4.70078V36.9008C39.8008 38.4008 38.5008 39.7008 36.9008 39.7008Z" fill="#E9E9E9"/>
<path d="M36.9 40.6H4.70001C2.60001 40.6 1 38.9 1 36.9V4.7C1 2.6 2.70001 1 4.70001 1H36.9C39 1 40.6 2.7 40.6 4.7V36.9C40.7 38.9 39 40.6 36.9 40.6ZM4.80005 2.7C3.70005 2.7 2.80005 3.6 2.80005 4.7V36.9C2.80005 38 3.70005 38.9 4.80005 38.9H36.9C38 38.9 38.9 38 38.9 36.9V4.7C38.9 3.6 38 2.7 36.9 2.7H4.80005Z" fill="#545454"/>
<path d="M32.7 8V14.4H8V8H32.7ZM33.4 6H7.30005C6.60005 6 6 6.6 6 7.3V15.1C6 15.8 6.60005 16.4 7.30005 16.4H33.4C34.1 16.4 34.7 15.8 34.7 15.1V7.3C34.7 6.6 34.1 6 33.4 6Z" fill="#545454"/>
<path d="M32.7007 20.8008V24.3008H19.8008V20.8008H32.7007ZM33.8008 18.8008H18.6008C18.1008 18.8008 17.8008 19.2008 17.8008 19.6008V25.4008C17.8008 25.9008 18.2008 26.2008 18.6008 26.2008H33.8008C34.3008 26.2008 34.6008 25.8008 34.6008 25.4008V19.6008C34.7008 19.2008 34.3008 18.8008 33.8008 18.8008Z" fill="#545454"/>
<path d="M12.8 20.4004V34.4004H8V20.4004H12.8ZM13.8 18.4004H6.90002C6.40002 18.4004 6 18.8004 6 19.3004V35.5004C6 36.0004 6.40002 36.4004 6.90002 36.4004H13.8C14.3 36.4004 14.7 36.0004 14.7 35.5004V19.3004C14.8 18.8004 14.4 18.4004 13.8 18.4004Z" fill="#545454"/>
<path d="M32.7007 30.4004V33.9004H19.8008V30.4004H32.7007ZM33.8008 28.4004H18.6008C18.1008 28.4004 17.8008 28.8004 17.8008 29.2004V35.0004C17.8008 35.5004 18.2008 35.8004 18.6008 35.8004H33.8008C34.3008 35.8004 34.6008 35.4004 34.6008 35.0004V29.2004C34.7008 28.8004 34.3008 28.4004 33.8008 28.4004Z" fill="#545454"/>
</svg>
