<svg width="40" height="40" viewBox="0 0 40 40" fill="none" xmlns="http://www.w3.org/2000/svg">
<path d="M36.9473 39.2H3.05259C1.81221 39.2 0.8 38.1881 0.8 36.9393V3.06069C0.8 1.81186 1.81221 0.8 3.05259 0.8H36.9473C38.1877 0.8 39.2 1.81188 39.2 3.06069V37.0449C39.2 38.17 38.206 39.2 36.9473 39.2Z" fill="#54545A" stroke="#98989C" stroke-width="1.6" stroke-miterlimit="10"/>
<path fill-rule="evenodd" clip-rule="evenodd" d="M32.3494 13.6002V7.2002H7.64941V13.6002H32.3494ZM6.94946 5.2002H33.0494C33.7494 5.2002 34.3494 5.80019 34.3494 6.50019V14.3002C34.3494 15.0002 33.7494 15.6002 33.0494 15.6002H6.94946C6.24946 15.6002 5.64941 15.0002 5.64941 14.3002V6.50019C5.64941 5.80019 6.24946 5.2002 6.94946 5.2002ZM12.4495 33.6001V19.6001H7.64941V33.6001H12.4495ZM6.54944 17.6001H13.4495C14.0495 17.6001 14.4494 18.0001 14.3494 18.5001V34.7001C14.3494 35.2001 13.9495 35.6001 13.4495 35.6001H6.54944C6.04944 35.6001 5.64941 35.2001 5.64941 34.7001V18.5001C5.64941 18.0001 6.04944 17.6001 6.54944 17.6001ZM32.3492 33.1001V29.6001H19.4492V33.1001H32.3492ZM18.2492 27.6001H33.4492C33.9492 27.6001 34.3492 28.0001 34.2492 28.4001V34.2001C34.2492 34.6001 33.9492 35.0001 33.4492 35.0001H18.2492C17.8492 35.0001 17.4492 34.7001 17.4492 34.2001V28.4001C17.4492 28.0001 17.7492 27.6001 18.2492 27.6001ZM32.3492 20V23.5H19.4492V20H32.3492ZM33.4492 18H18.2492C17.7492 18 17.4492 18.4 17.4492 18.8V24.6C17.4492 25.1 17.8492 25.4 18.2492 25.4H33.4492C33.9492 25.4 34.2492 25 34.2492 24.6V18.8C34.3492 18.4 33.9492 18 33.4492 18Z" fill="#98989C"/>
</svg>
