<svg xmlns="http://www.w3.org/2000/svg" width="42" height="42" viewBox="0 0 42 42"><rect x="0.5" y="0.5" width="40" height="40" rx="3.5" style="fill:#e9e9e9"/><path d="M37,1a3,3,0,0,1,3,3V37a3,3,0,0,1-3,3H4a3,3,0,0,1-3-3V4A3,3,0,0,1,4,1H37m0-1H4A4,4,0,0,0,0,4V37a4,4,0,0,0,4,4H37a4,4,0,0,0,4-4V4a4,4,0,0,0-4-4Z" style="fill:#545454"/><polyline points="5.5 27.5 7.5 32.5 12.5 30.5" style="fill:none;stroke:#545454;stroke-linecap:round;stroke-linejoin:round"/><path d="M7.5,32.5c.388-2.889,2-5.5,4-8" style="fill:none;stroke:#545454;stroke-linecap:round;stroke-linejoin:round"/><path d="M26.5,18.5h-8m8,4v-6l-2-3h-4l-2,3v6" style="fill:none;stroke:#545454;stroke-linecap:round;stroke-linejoin:round"/><line x1="35.5" y1="35.5" x2="5.5" y2="35.5" style="fill:none;stroke:#545454;stroke-linecap:square;stroke-linejoin:round"/><polyline points="22.5 5.5 35.5 18.5 22.5 31.5" style="fill:none;stroke:#545454;stroke-linecap:round;stroke-linejoin:round"/><line x1="9.5" y1="18.5" x2="22.5" y2="5.5" style="fill:none;stroke:#545454;stroke-linecap:round;stroke-linejoin:round"/><line x1="22.5" y1="31.5" x2="9.5" y2="18.5" style="fill:none;stroke:#545454;stroke-linecap:round;stroke-linejoin:round"/></svg>