<svg xmlns="http://www.w3.org/2000/svg" viewBox="0 0 42 42"><rect x="0.5" y="0.5" width="40" height="40" rx="3.5" style="fill:#e9e9e9"/><path d="M37,1a3,3,0,0,1,3,3V37a3,3,0,0,1-3,3H4a3,3,0,0,1-3-3V4A3,3,0,0,1,4,1H37m0-1H4A4,4,0,0,0,0,4V37a4,4,0,0,0,4,4H37a4,4,0,0,0,4-4V4a4,4,0,0,0-4-4Z" style="fill:#999"/><polyline points="24 6 35.5 17.5 24 29 12.5 17.5" style="fill:none;stroke:#545454;stroke-linecap:round;stroke-linejoin:round"/><line x1="12.5" y1="17.5" x2="24" y2="6" style="fill:none;stroke:#545454;stroke-linecap:round;stroke-linejoin:round"/><path d="M9.5,17A6.5,6.5,0,0,1,16,10.5" style="fill:none;stroke:#545454;stroke-linecap:round;stroke-linejoin:round"/><line x1="9.5" y1="17.5" x2="9.5" y2="28.5" style="fill:none;stroke:#545454;stroke-linecap:round;stroke-linejoin:round"/><line x1="8.5" y1="5.5" x2="8.5" y2="11.5" style="fill:none;stroke:#545454;stroke-linecap:round;stroke-linejoin:round"/><line x1="11.5" y1="8.5" x2="5.5" y2="8.5" style="fill:none;stroke:#545454;stroke-linecap:round;stroke-linejoin:round"/><line x1="10.62" y1="6.38" x2="6.38" y2="10.62" style="fill:none;stroke:#545454;stroke-linecap:round;stroke-linejoin:round"/><line x1="10.62" y1="10.62" x2="6.38" y2="6.38" style="fill:none;stroke:#545454;stroke-linecap:round;stroke-linejoin:round"/><polyline points="5.5 25.5 9.5 29.5 13.5 25.5" style="fill:none;stroke:#545454;stroke-linecap:round;stroke-linejoin:round"/><path d="M34.5,36H6.5A1.5,1.5,0,0,1,5,34.5v-1A1.5,1.5,0,0,1,6.5,32h28A1.5,1.5,0,0,1,36,33.5v1A1.5,1.5,0,0,1,34.5,36Zm-28-3a.5.5,0,0,0-.5.5v1a.5.5,0,0,0,.5.5h28a.5.5,0,0,0,.5-.5v-1a.5.5,0,0,0-.5-.5Z" style="fill:#545454"/></svg>