<svg width="33" height="33" viewBox="0 0 33 33" fill="none" xmlns="http://www.w3.org/2000/svg">
<path d="M5.65845 16.5272C5.65845 13.654 6.79981 10.8985 8.83146 8.86686C10.8631 6.83521 13.6186 5.69385 16.4918 5.69385C19.365 5.69385 22.1205 6.83521 24.1521 8.86686C26.1838 10.8985 27.3251 13.654 27.3251 16.5272C27.3251 19.4004 26.1838 22.1559 24.1521 24.1875C22.1205 26.2192 19.365 27.3605 16.4918 27.3605C13.6186 27.3605 10.8631 26.2192 8.83146 24.1875C6.79981 22.1559 5.65845 19.4004 5.65845 16.5272ZM29.8251 16.5272C29.8251 12.991 28.4204 9.59958 25.9199 7.09909C23.4194 4.59861 20.028 3.19385 16.4918 3.19385C12.9556 3.19385 9.56418 4.59861 7.06369 7.09909C4.56321 9.59958 3.15845 12.991 3.15845 16.5272C3.15845 20.0634 4.56321 23.4548 7.06369 25.9553C9.56418 28.4558 12.9556 29.8605 16.4918 29.8605C20.028 29.8605 23.4194 28.4558 25.9199 25.9553C28.4204 23.4548 29.8251 20.0634 29.8251 16.5272ZM17.273 10.2251L11.8564 15.6418C11.3668 16.1313 11.3668 16.923 11.8564 17.4074L17.273 22.8293C17.7626 23.3188 18.5543 23.3188 19.0387 22.8293C19.523 22.3397 19.5282 21.548 19.0387 21.0636L14.5074 16.5324L19.0387 12.0011C19.5282 11.5116 19.5282 10.7199 19.0387 10.2355C18.5491 9.75114 17.7574 9.74593 17.273 10.2355V10.2251Z" fill="#ACACAC"/>
</svg>
