<svg width="32" height="32" viewBox="0 0 32 32" fill="none" xmlns="http://www.w3.org/2000/svg">
<path d="M5.16675 15.9998C5.16675 13.1267 6.30811 10.3712 8.33976 8.33951C10.3714 6.30787 13.1269 5.1665 16.0001 5.1665C18.8733 5.1665 21.6288 6.30787 23.6604 8.33951C25.6921 10.3712 26.8334 13.1267 26.8334 15.9998C26.8334 18.873 25.6921 21.6285 23.6604 23.6602C21.6288 25.6918 18.8733 26.8332 16.0001 26.8332C13.1269 26.8332 10.3714 25.6918 8.33976 23.6602C6.30811 21.6285 5.16675 18.873 5.16675 15.9998ZM29.3334 15.9998C29.3334 12.4636 27.9287 9.07223 25.4282 6.57175C22.9277 4.07126 19.5363 2.6665 16.0001 2.6665C12.4639 2.6665 9.07248 4.07126 6.57199 6.57175C4.07151 9.07223 2.66675 12.4636 2.66675 15.9998C2.66675 19.5361 4.07151 22.9274 6.57199 25.4279C9.07248 27.9284 12.4639 29.3332 16.0001 29.3332C19.5363 29.3332 22.9277 27.9284 25.4282 25.4279C27.9287 22.9274 29.3334 19.5361 29.3334 15.9998ZM16.7813 9.69775L11.3647 15.1144C10.8751 15.604 10.8751 16.3957 11.3647 16.88L16.7813 22.3019C17.2709 22.7915 18.0626 22.7915 18.547 22.3019C19.0313 21.8123 19.0365 21.0207 18.547 20.5363L14.0157 16.005L18.547 11.4738C19.0365 10.9842 19.0365 10.1925 18.547 9.70817C18.0574 9.2238 17.2657 9.21859 16.7813 9.70817V9.69775Z" fill="#ACACAC"/>
</svg>
