<svg width="32" height="32" viewBox="0 0 32 32" fill="none" xmlns="http://www.w3.org/2000/svg">
<path d="M5.16675 16.0001C5.16675 13.1269 6.30811 10.3714 8.33976 8.33976C10.3714 6.30811 13.1269 5.16675 16.0001 5.16675C18.8733 5.16675 21.6288 6.30811 23.6604 8.33976C25.6921 10.3714 26.8334 13.1269 26.8334 16.0001C26.8334 18.8733 25.6921 21.6288 23.6604 23.6604C21.6288 25.6921 18.8733 26.8334 16.0001 26.8334C13.1269 26.8334 10.3714 25.6921 8.33976 23.6604C6.30811 21.6288 5.16675 18.8733 5.16675 16.0001ZM29.3334 16.0001C29.3334 12.4639 27.9287 9.07248 25.4282 6.57199C22.9277 4.07151 19.5363 2.66675 16.0001 2.66675C12.4639 2.66675 9.07248 4.07151 6.57199 6.57199C4.07151 9.07248 2.66675 12.4639 2.66675 16.0001C2.66675 19.5363 4.07151 22.9277 6.57199 25.4282C9.07248 27.9287 12.4639 29.3334 16.0001 29.3334C19.5363 29.3334 22.9277 27.9287 25.4282 25.4282C27.9287 22.9277 29.3334 19.5363 29.3334 16.0001ZM16.7813 9.698L11.3647 15.1147C10.8751 15.6042 10.8751 16.3959 11.3647 16.8803L16.7813 22.3022C17.2709 22.7917 18.0626 22.7917 18.547 22.3022C19.0313 21.8126 19.0365 21.0209 18.547 20.5365L14.0157 16.0053L18.547 11.474C19.0365 10.9845 19.0365 10.1928 18.547 9.70841C18.0574 9.22404 17.2657 9.21883 16.7813 9.70841V9.698Z" fill="#626262"/>
</svg>
