<svg width="32" height="33" viewBox="0 0 32 33" fill="none" xmlns="http://www.w3.org/2000/svg">
<path d="M5.16675 16.0623C5.16675 13.1892 6.30811 10.4337 8.33976 8.40201C10.3714 6.37037 13.1269 5.229 16.0001 5.229C18.8733 5.229 21.6288 6.37037 23.6604 8.40201C25.6921 10.4337 26.8334 13.1892 26.8334 16.0623C26.8334 18.9355 25.6921 21.691 23.6604 23.7227C21.6288 25.7543 18.8733 26.8957 16.0001 26.8957C13.1269 26.8957 10.3714 25.7543 8.33976 23.7227C6.30811 21.691 5.16675 18.9355 5.16675 16.0623ZM29.3334 16.0623C29.3334 12.5261 27.9287 9.13473 25.4282 6.63425C22.9277 4.13376 19.5363 2.729 16.0001 2.729C12.4639 2.729 9.07248 4.13376 6.57199 6.63425C4.07151 9.13473 2.66675 12.5261 2.66675 16.0623C2.66675 19.5986 4.07151 22.9899 6.57199 25.4904C9.07248 27.9909 12.4639 29.3957 16.0001 29.3957C19.5363 29.3957 22.9277 27.9909 25.4282 25.4904C27.9287 22.9899 29.3334 19.5986 29.3334 16.0623ZM16.7813 9.76025L11.3647 15.1769C10.8751 15.6665 10.8751 16.4582 11.3647 16.9425L16.7813 22.3644C17.2709 22.854 18.0626 22.854 18.547 22.3644C19.0313 21.8748 19.0365 21.0832 18.547 20.5988L14.0157 16.0675L18.547 11.5363C19.0365 11.0467 19.0365 10.255 18.547 9.77067C18.0574 9.2863 17.2657 9.28109 16.7813 9.77067V9.76025Z" fill="#262E30"/>
</svg>
