<svg width="24" height="24" viewBox="0 0 24 24" fill="none" xmlns="http://www.w3.org/2000/svg">
<path fill-rule="evenodd" clip-rule="evenodd" d="M7.25 16H4.75V18.5H7.25V16ZM4.75 15C4.48478 15 4.23043 15.1054 4.04289 15.2929C3.85536 15.4804 3.75 15.7348 3.75 16V18.5C3.75 18.7652 3.85536 19.0196 4.04289 19.2071C4.23043 19.3946 4.48478 19.5 4.75 19.5H7.25C7.51522 19.5 7.76957 19.3946 7.95711 19.2071C8.14464 19.0196 8.25 18.7652 8.25 18.5V16C8.25 15.7348 8.14464 15.4804 7.95711 15.2929C7.76957 15.1054 7.51522 15 7.25 15H4.75ZM13.25 16H10.75V18.5H13.25V16ZM10.75 15C10.4848 15 10.2304 15.1054 10.0429 15.2929C9.85536 15.4804 9.75 15.7348 9.75 16V18.5C9.75 18.7652 9.85536 19.0196 10.0429 19.2071C10.2304 19.3946 10.4848 19.5 10.75 19.5H13.25C13.5152 19.5 13.7696 19.3946 13.9571 19.2071C14.1446 19.0196 14.25 18.7652 14.25 18.5V16C14.25 15.7348 14.1446 15.4804 13.9571 15.2929C13.7696 15.1054 13.5152 15 13.25 15H10.75ZM19.25 16H16.75V18.5H19.25V16ZM16.75 15C16.4848 15 16.2304 15.1054 16.0429 15.2929C15.8554 15.4804 15.75 15.7348 15.75 16V18.5C15.75 18.7652 15.8554 19.0196 16.0429 19.2071C16.2304 19.3946 16.4848 19.5 16.75 19.5H19.25C19.5152 19.5 19.7696 19.3946 19.9571 19.2071C20.1446 19.0196 20.25 18.7652 20.25 18.5V16C20.25 15.7348 20.1446 15.4804 19.9571 15.2929C19.7696 15.1054 19.5152 15 19.25 15H16.75ZM6.367 8.244C5.181 9.537 4.559 11.069 4.499 12.047C4.48654 12.2458 4.39562 12.4315 4.24624 12.5632C4.09687 12.695 3.90128 12.762 3.7025 12.7495C3.50372 12.737 3.31803 12.6461 3.18629 12.4967C3.05455 12.3474 2.98754 12.1518 3 11.953C3.087 10.563 3.894 8.719 5.26 7.23C6.646 5.72 8.673 4.5 11.25 4.5C13.823 4.5 15.886 5.717 17.29 7.226C18.671 8.71 19.5 10.572 19.5 12H18C18 11.06 17.4 9.546 16.192 8.248C15.007 6.974 13.32 6 11.25 6C9.184 6 7.535 6.97 6.367 8.244Z" fill="#262E30"/>
<path d="M20.25 12H14.25L20.25 6V12Z" fill="#262E30"/>
</svg>
