<svg xmlns="http://www.w3.org/2000/svg" width="15" height="15" viewBox="0 0 15 15"><path d="M12.32,13.5H2.68a1,1,0,0,1-.986-1.164l.667-4A1,1,0,0,1,3.347,7.5h8.306a1,1,0,0,1,.986.836l.667,4A1,1,0,0,1,12.32,13.5Z" style="fill:none;stroke:#949494;stroke-linecap:round;stroke-linejoin:round"/><circle cx="7.5" cy="10.5" r="3" style="fill:none;stroke:#949494;stroke-linecap:round;stroke-linejoin:round"/><line x1="6.5" y1="5.5" x2="6.5" y2="7.5" style="fill:none;stroke:#949494;stroke-linecap:round;stroke-linejoin:round"/><line x1="8.5" y1="5.5" x2="8.5" y2="7.5" style="fill:none;stroke:#949494;stroke-linecap:round;stroke-linejoin:round"/><line x1="7.5" y1="10.5" x2="8.5" y2="9.5" style="fill:none;stroke:#949494;stroke-linecap:round;stroke-linejoin:round"/><path d="M13.5,3.5v1a1,1,0,0,1-1,1H2.5a1,1,0,0,1-1-1v-1" style="fill:none;stroke:#949494;stroke-linecap:round;stroke-linejoin:round"/><path d="M11.562,3C10.5,2.25,10.5,1.5,7.438,1.5A5.134,5.134,0,0,0,4.751,2.813L3.5,1.5v3L4.751,3.187A5.134,5.134,0,0,0,7.438,4.5C10.5,4.5,10.5,3.75,11.562,3Z" style="fill:none;stroke:#009688;stroke-linecap:round;stroke-linejoin:round"/><line x1="9.5" y1="3.5" x2="8.5" y2="4.5" style="fill:none;stroke:#009688;stroke-linecap:round;stroke-linejoin:round"/><circle cx="9.5" cy="2.5" r="0.5" style="fill:#009688"/><line x1="11.5" y1="3.5" x2="11.5" y2="3.5" style="fill:none;stroke:#009688;stroke-linecap:round;stroke-miterlimit:10"/></svg>