<svg width="160" height="160" viewBox="0 0 160 160" fill="none" xmlns="http://www.w3.org/2000/svg">
<path d="M65.8437 20.6121C65.792 20.6121 65.792 20.6121 65.7402 20.6121H65.6885C65.6367 20.6121 65.5849 20.6121 65.5849 20.6121C65.4814 20.6121 65.4297 20.6121 65.3262 20.6121C65.3262 20.5604 65.3262 20.5087 65.3262 20.457C65.2744 20.457 65.2227 20.457 65.1709 20.457C65.1709 20.7671 65.1709 21.0772 65.1709 21.3872C65.3262 21.3872 65.5332 21.3872 65.6885 21.3356C65.7402 21.3356 65.7402 21.3356 65.792 21.3356H65.8437C65.8437 21.3356 65.8437 21.3356 65.8955 21.3356C65.9472 21.3356 65.9472 21.3356 65.9472 21.2839C65.999 21.2322 65.999 21.1805 65.999 21.0772V21.0255C65.999 20.9221 65.999 20.8705 65.999 20.7671C65.999 20.7154 65.999 20.6637 65.9472 20.6121C65.9472 20.6637 65.8955 20.6121 65.8437 20.6121ZM65.792 21.1805L65.3262 21.2322V20.8705L65.792 20.8188V21.1805Z" fill="#2D2D31"/>
<path d="M64.4472 20.0952C64.4472 20.0436 64.4472 19.9919 64.4472 19.9402C64.4472 19.8885 64.4472 19.8368 64.3955 19.8368C64.3955 19.7852 64.3955 19.7335 64.3955 19.6818V19.6301C64.3955 19.5785 64.3955 19.5785 64.3437 19.5268L64.292 19.4751C64.292 19.4751 64.292 19.4751 64.2402 19.4751C64.2402 19.4751 63.5674 19.5268 63.3086 19.5268C63.3086 19.8368 63.3086 20.1469 63.3086 20.457C63.6709 20.457 64.0332 20.4053 64.3955 20.4053C64.4472 20.2503 64.4472 20.1986 64.4472 20.0952ZM63.5156 19.6818C63.6709 19.6818 63.8262 19.6818 63.9814 19.6301C64.0332 19.6301 64.0332 19.6301 64.0849 19.6301H64.1367H64.1884C64.1884 19.6301 64.1884 19.6301 64.1884 19.6818C64.1884 19.6818 64.1884 19.6818 64.1884 19.7335C64.1884 19.7335 64.1884 19.7335 64.1884 19.7852C64.1884 19.8368 64.1884 19.8368 64.1884 19.8885C63.9814 19.8885 63.7226 19.9402 63.5156 19.9402C63.5156 19.8368 63.5156 19.7335 63.5156 19.6818ZM64.2402 20.0952C64.2402 20.1469 64.2402 20.1469 64.2402 20.1986C63.9814 20.1986 63.7744 20.2503 63.5156 20.2503C63.5156 20.1986 63.5156 20.0952 63.5156 20.0436C63.6709 20.0436 63.8262 20.0436 63.9814 19.9919C64.0332 19.9919 64.1367 19.9919 64.1884 19.9919C64.2402 20.0436 64.2402 20.0436 64.2402 20.0952C64.2402 20.0952 64.2402 20.0436 64.2402 20.0952Z" fill="#2D2D31"/>
<path d="M67.0859 20.1988C67.1377 20.1988 67.1377 20.1988 67.1894 20.1988C67.2412 20.1988 67.2412 20.1988 67.2412 20.1471C67.2929 20.0954 67.2929 20.0437 67.2929 19.9404V19.8887C67.2929 19.7853 67.2929 19.7337 67.2929 19.6303C67.2929 19.5786 67.2929 19.5269 67.2412 19.4753C67.2412 19.4236 67.1894 19.4236 67.1377 19.4236H67.0859C67.0859 19.4236 67.0859 19.4236 67.0342 19.4236H66.9824C66.9306 19.4236 66.8789 19.4236 66.8789 19.4236C66.7754 19.4236 66.7236 19.4236 66.6201 19.4236C66.6201 19.3719 66.6201 19.3202 66.6201 19.2686C66.5684 19.2686 66.5166 19.2686 66.4648 19.2686C66.4648 19.5786 66.4648 19.8887 66.4648 20.1988C66.6201 20.1988 66.8271 20.1988 66.9824 20.1471C67.0342 20.1988 67.0342 20.1988 67.0859 20.1988ZM66.6201 19.6303L67.0859 19.5786V19.9404L66.6201 19.992V19.6303Z" fill="#2D2D31"/>
<path d="M24.1287 23.4025L24.1804 23.4542H24.2322L26.5612 21.2837C26.613 21.232 26.613 21.1804 26.5612 21.1804C26.5094 21.1287 26.4577 21.1287 26.4577 21.1804L24.1287 23.3508C24.0769 23.3508 24.0769 23.4025 24.1287 23.4025Z" fill="#2D2D31"/>
<path d="M20.8171 23.7124H20.8689L25.6822 18.958C25.734 18.9064 25.734 18.8547 25.6822 18.8547C25.6304 18.803 25.5787 18.803 25.5787 18.8547L20.7654 23.609C20.7136 23.6607 20.7136 23.7124 20.7654 23.7124C20.7654 23.6607 20.8171 23.7124 20.8171 23.7124Z" fill="#2D2D31"/>
<path d="M12.6892 31.2573C12.741 31.2573 12.741 31.2573 12.6892 31.2573C12.741 31.2573 12.741 31.2573 12.6892 31.2573C12.741 31.2573 12.741 31.2573 12.6892 31.2573L13.5173 31.2056L30.338 30.172L31.5284 30.1204C31.7872 30.1204 32.046 29.9136 32.0977 29.6553L32.5635 27.8465L35.9277 15.0305L36.29 13.5835C36.3417 13.3768 36.29 13.1701 36.1865 13.0151C36.0829 12.86 35.8759 12.7567 35.6689 12.8084L34.8408 12.86L17.9683 14.3587L16.8297 14.462C16.5709 14.462 16.3639 14.6688 16.2604 14.9271L15.7946 16.6842L12.4822 29.0868L12.0682 30.4821C12.0164 30.6888 12.0682 30.8955 12.1717 31.0506C12.3269 31.1539 12.4822 31.2573 12.6892 31.2573ZM12.2752 30.5338L12.6375 29.1385L16.0016 16.6842L16.4674 14.9271C16.5192 14.7721 16.6744 14.6171 16.8815 14.6171L18.0201 14.5137L34.8408 13.1184L35.6689 13.0668C35.8242 13.0668 35.9794 13.1184 36.0312 13.2218C36.1347 13.3251 36.1347 13.4802 36.1347 13.6352L35.7724 15.0822L32.4083 27.8982L31.8907 29.6036C31.839 29.8103 31.6837 29.9136 31.4767 29.9136L30.2863 29.9653L13.4656 30.9989L12.6892 31.0506C12.534 31.0506 12.4304 30.9989 12.3269 30.8955C12.2234 30.7922 12.2234 30.6371 12.2752 30.5338Z" fill="#2D2D31"/>
<path d="M149.43 21.0253C149.43 20.9736 149.378 20.9736 149.378 20.9219L149.326 20.8702C149.274 20.8186 149.171 20.7152 148.343 20.6119C148.032 20.5602 147.774 20.5602 147.463 20.5085L88.0471 15.4441C87.5813 15.3924 87.1155 15.3924 86.7014 15.3407C86.4944 15.3407 86.2874 15.3407 86.0286 15.2891C85.7698 15.2891 85.5628 15.2891 85.304 15.2374C84.4242 15.1857 83.4926 15.1857 82.5609 15.1857C82.3539 15.1857 82.0951 15.1857 81.8881 15.1857C81.6811 15.1857 81.4223 15.1857 81.2153 15.1857C80.7495 15.1857 80.2837 15.1857 79.8696 15.2374C79.6109 15.2374 79.4038 15.2374 79.1451 15.2374C78.938 15.2374 78.731 15.2374 78.4722 15.2891C78.0064 15.2891 77.5406 15.3407 77.1266 15.3924L76.1432 15.4441C76.0915 15.4441 76.0914 15.4441 76.0397 15.4958C75.9879 15.4958 75.9879 15.4441 75.9362 15.4958L55.3373 17.0461V16.2193C55.3373 16.2193 55.3373 16.1676 55.2855 16.1159L55.2338 16.0642C55.182 16.0126 55.0785 15.9609 54.6127 15.9092C54.4574 15.9092 54.2504 15.8575 53.9916 15.8575C52.7495 15.7542 51.2486 15.7542 50.6275 15.7542C50.0064 15.7542 49.4371 15.7542 48.9713 15.8058C48.6608 15.8058 48.402 15.8575 48.1432 15.8575C48.0397 15.8575 47.9362 15.8575 47.8327 15.9092C47.7292 15.9092 47.6774 15.9092 47.5739 15.9609C47.5221 15.9609 47.4704 15.9609 47.4186 16.0126C47.4186 16.0126 47.3669 16.0126 47.3669 16.0642C47.3669 16.0642 47.3151 16.0642 47.3151 16.1159L47.2634 16.1676C47.2116 16.2193 47.2116 16.2193 47.2116 16.2709V17.0461C47.2116 17.0461 47.2116 17.0978 47.2634 17.0978L47.3151 17.1495C47.3669 17.1495 47.4186 17.2011 47.4186 17.2011C47.4704 17.2011 47.5221 17.2528 47.5739 17.2528C47.6774 17.2528 47.7809 17.3045 47.8844 17.3045C48.0397 17.3045 48.2467 17.3562 48.4537 17.3562V17.6662L38.4648 18.4414L39.3447 15.134C39.3447 14.5656 39.5 14.1522 39.5 13.7387C39.5 13.4804 39.5 13.2736 39.4482 13.0669C39.3447 12.8085 39.2412 12.6535 39.0342 12.5502L37.4815 11.6716C37.2745 11.5683 37.1192 11.5166 36.8604 11.5166C36.6534 11.5166 36.4981 11.5166 36.2911 11.5166L17.1931 13.1703C16.8308 13.222 16.5203 13.222 16.158 13.377C16.0027 13.4287 15.8475 13.532 15.6922 13.6871C15.5887 13.7904 15.4334 13.9454 15.3299 14.0488C15.1229 14.3072 14.9676 14.5656 14.8124 14.9273C14.7606 15.2891 14.7088 15.5991 14.6053 15.9092L13.4149 20.3018C12.8974 20.4051 12.7421 20.4568 12.6904 20.5085C12.6904 20.5085 12.6386 20.5602 12.6386 20.6119C12.6386 20.6635 12.6386 20.6635 12.6386 20.7152V23.3508L10.8271 30.0689C10.7236 30.4306 10.5684 30.9474 10.5684 31.3608C10.5684 31.6192 10.5684 31.8259 10.6201 32.0326C10.6719 32.136 10.7236 32.2393 10.7754 32.3427C10.8271 32.446 10.9307 32.4977 11.0342 32.5494L12.5868 33.3762L12.5351 136.731C12.5351 136.835 12.6386 136.938 12.7421 136.938C12.7939 136.938 12.7939 136.938 12.8456 136.938L12.8974 138.178C12.8974 138.23 12.8974 138.282 12.9491 138.333C12.9491 138.333 13.0009 138.385 13.0526 138.385C13.1044 138.385 13.1044 138.437 13.1562 138.437C13.2079 138.437 13.2079 138.437 13.2597 138.488C13.3632 138.488 13.4149 138.54 13.5185 138.54C13.6737 138.592 13.829 138.592 13.9843 138.592C14.1913 138.592 14.3983 138.643 14.6053 138.643V139.005V139.057C14.6053 139.109 14.6053 139.109 14.6571 139.16C14.7088 139.212 14.7088 139.212 14.7088 139.212C14.7606 139.212 14.8124 139.264 14.8641 139.264C14.9159 139.264 15.0194 139.315 15.0711 139.315C15.1746 139.315 15.2782 139.315 15.3299 139.367C15.5369 139.367 15.7957 139.419 16.1063 139.419C16.5721 139.419 17.0896 139.47 17.6589 139.47C17.7624 139.47 17.866 139.47 17.9695 139.47C18.073 139.47 18.1247 139.47 18.2282 139.47C18.3318 139.47 18.487 139.47 18.6423 139.47C18.7458 139.47 18.7976 139.47 18.9011 139.47C19.0563 139.47 19.2634 139.47 19.4186 139.47C19.4704 139.47 19.5221 139.47 19.6257 139.47C19.7809 139.47 19.988 139.47 20.1432 139.47C20.195 139.47 20.2467 139.47 20.2985 139.47C20.4538 139.47 20.609 139.47 20.7643 139.419H20.816C20.9713 139.419 21.2301 139.367 21.4889 139.367C21.5924 139.367 21.6959 139.315 21.7994 139.315C21.7994 139.315 21.7994 139.315 21.8512 139.315L77.3336 143.605C77.6959 143.656 78.0064 143.656 78.3687 143.656V144.07C78.3687 144.121 78.3687 144.173 78.4205 144.173C78.4205 144.173 78.4722 144.225 78.524 144.225C78.5757 144.276 78.6275 144.276 78.6792 144.276C78.7828 144.276 78.8345 144.328 78.938 144.328C79.0415 144.328 79.1451 144.38 79.2486 144.38C79.5073 144.431 79.7661 144.431 80.1284 144.431C80.646 144.483 81.267 144.483 81.8881 144.483C82.0434 144.483 82.2504 144.483 82.4057 144.483C83.4925 144.483 84.5794 144.431 85.3558 144.38C85.5628 144.38 85.7698 144.328 85.9768 144.328C86.0804 144.328 86.1839 144.276 86.2874 144.276C86.3391 144.276 86.3909 144.225 86.4426 144.225L86.4944 144.173C86.5462 144.121 86.5462 144.07 86.5462 144.018V143.605C86.7014 143.605 86.9084 143.605 87.0637 143.553C87.2707 143.553 87.5295 143.501 87.7365 143.501L140.321 138.902C140.372 138.902 140.424 138.902 140.424 138.902C140.528 138.902 140.631 138.902 140.683 138.954C140.942 138.954 141.149 139.005 141.511 139.005C141.977 139.057 142.546 139.057 143.115 139.057C143.219 139.057 143.478 139.057 143.737 139.057C144.461 139.057 145.496 139.057 146.376 138.954C146.531 138.954 146.687 138.902 146.842 138.902C146.945 138.902 146.997 138.85 147.101 138.85C147.152 138.85 147.204 138.799 147.256 138.799C147.308 138.747 147.359 138.695 147.359 138.643V138.282C147.618 138.282 147.877 138.23 148.084 138.178C148.239 138.178 148.395 138.127 148.498 138.127C148.55 138.127 148.653 138.075 148.705 138.075C148.757 138.075 148.757 138.075 148.809 138.023C148.86 138.023 148.86 138.023 148.912 137.972C148.912 137.972 148.964 137.92 149.016 137.92L149.067 137.868V137.817L149.119 136.576C149.171 136.576 149.171 136.576 149.223 136.576C149.326 136.576 149.43 136.473 149.43 136.37L149.378 21.1803C149.481 21.077 149.481 21.0253 149.43 21.0253ZM76.0397 77.5089C76.0914 77.5089 76.1432 77.5089 76.1432 77.4572C76.1432 77.4572 76.1432 77.4572 76.195 77.4572C76.3502 77.5606 76.5055 77.7156 76.609 77.9223C76.816 78.2841 76.9195 78.6975 76.9195 79.1626C76.9195 79.6277 76.816 80.0411 76.609 80.4028C76.5055 80.6095 76.3502 80.7646 76.195 80.8679C76.195 80.8679 76.195 80.8679 76.1432 80.8679C76.0915 80.8163 76.0397 80.8163 76.0397 80.8163C75.9362 80.8163 75.8327 80.9196 75.8327 81.023C75.7809 81.023 75.7292 81.0746 75.6256 81.0746C75.6774 81.0746 75.6774 81.023 75.7292 81.023C75.9362 80.9196 76.0915 80.7129 76.195 80.5062C76.402 80.1444 76.5573 79.6793 76.5573 79.1626C76.5573 78.6975 76.4537 78.1807 76.195 77.819C76.0397 77.6122 75.8844 77.4055 75.7292 77.3022C75.7292 77.3022 75.6774 77.3022 75.6774 77.2505C75.7292 77.2505 75.7809 77.2505 75.8327 77.2505C75.8327 77.4055 75.9362 77.5089 76.0397 77.5089ZM75.6256 77.0955H74.8493H68.8456C68.6386 77.0955 68.3798 77.1472 68.1728 77.3022C68.0175 77.4055 67.8105 77.6122 67.707 77.819C67.5 78.1807 67.3447 78.6458 67.3447 79.1109C67.3447 79.576 67.4482 80.0411 67.707 80.4028C67.8105 80.6095 68.0175 80.8163 68.1728 80.9196C68.3798 81.0746 68.5868 81.1263 68.8456 81.1263H74.9011H75.6256C75.6774 81.1263 75.7809 81.1263 75.8327 81.0746V133.269H75.7809C75.7292 133.269 75.6774 133.321 75.6774 133.372C75.6774 133.424 75.7292 133.476 75.7809 133.476C75.7809 133.476 75.7809 133.476 75.8327 133.476H75.8844V133.631L15.8992 129.652L15.951 36.7869L75.8844 33.5313V77.0438C75.7292 77.1472 75.6774 77.0955 75.6256 77.0955ZM75.6774 77.4572C75.8327 77.5606 75.9879 77.7156 76.0914 77.9223C76.2985 78.2841 76.402 78.6975 76.402 79.1626C76.402 79.6277 76.2985 80.0411 76.0914 80.4028C75.9879 80.6095 75.8327 80.7646 75.6774 80.8679C75.4704 80.9713 75.3151 81.0746 75.1081 81.0746H74.9528H68.9491C68.7421 81.0746 68.5351 81.023 68.3798 80.8679C68.2245 80.7646 68.0693 80.6095 67.9658 80.4028C67.7587 80.0411 67.6552 79.6277 67.6552 79.1626C67.6552 78.6975 67.7587 78.2841 67.9658 77.9223C68.0693 77.7156 68.2245 77.5606 68.3798 77.4572C68.5351 77.3539 68.7421 77.2505 68.9491 77.2505H75.0046H75.1598C75.2634 77.3022 75.4704 77.3539 75.6774 77.4572ZM75.8327 134.148V141.589C75.8327 141.641 75.8327 141.641 75.8327 141.692L15.7957 137.145C15.7957 137.093 15.8475 137.093 15.8475 137.041V130.22L75.8327 134.148ZM47.3151 16.7877V16.2193L47.3669 16.1676H47.4186C47.4704 16.1676 47.5221 16.1159 47.5739 16.1159C47.6774 16.1159 47.7292 16.0642 47.8327 16.0642C47.9362 16.0642 48.0397 16.0126 48.1432 16.0126C48.402 16.0126 48.6608 15.9609 48.9713 15.9609C49.4889 15.9609 50.0064 15.9092 50.6275 15.9092C51.1968 15.9092 52.6977 15.9092 53.9399 16.0126C54.1987 16.0126 54.3539 16.0642 54.561 16.0642C55.0268 16.1159 55.0785 16.1676 55.0785 16.1676L55.1303 16.2193V17.0461L54.0952 17.1495V16.736C54.0952 16.736 54.0952 16.736 54.0434 16.736C53.1635 16.6844 51.8696 16.6327 50.6275 16.6327C50.0064 16.6327 49.4371 16.6327 48.9196 16.6844C48.609 16.6844 48.2985 16.736 48.0915 16.736C47.9879 16.736 47.8327 16.736 47.7292 16.7877C47.6257 16.7877 47.5739 16.8394 47.4704 16.8394C47.4186 16.7877 47.3669 16.7877 47.3151 16.7877ZM47.8327 16.9944C47.7292 16.9944 47.6257 16.9427 47.5221 16.9427C47.4704 16.9427 47.4186 16.9427 47.3669 16.8911H47.4186C47.5221 16.8911 47.5739 16.8394 47.6774 16.8394C47.7809 16.8394 47.9362 16.7877 48.0397 16.7877C48.2985 16.7877 48.5573 16.736 48.8678 16.736C49.3854 16.6844 49.9547 16.6844 50.5757 16.6844C51.3003 16.6844 51.9732 16.6844 52.646 16.736L48.4537 17.0461C48.2467 17.0461 48.0397 17.0461 47.8327 16.9944ZM53.9399 16.8394V17.1495L48.609 17.5629V17.2528L53.9399 16.8394ZM75.8327 15.9092V33.1695L15.8992 36.4252V33.3245L32.7199 32.3427C32.8752 32.3427 33.0822 32.3427 33.2375 32.291C33.4445 32.2393 33.5998 32.1876 33.755 32.136C33.9103 32.0843 34.0656 31.9809 34.2208 31.8259C34.3761 31.7225 34.4796 31.5675 34.5831 31.4125C34.7902 31.1541 34.9454 30.844 35.1007 30.4823C35.256 30.1205 35.3077 29.8105 35.4112 29.4487L36.1876 26.4514L38.7754 26.2964C39.0859 26.2964 39.3964 26.1414 39.707 25.9347C39.9658 25.7279 40.1728 25.5212 40.3281 25.2112C40.6386 24.6944 40.7939 24.0226 40.7421 23.3508C40.6903 22.679 40.4833 22.0072 40.1728 21.5421C39.9658 21.232 39.7587 21.0253 39.5 20.8186C39.1894 20.6119 38.8789 20.5085 38.5684 20.4568C38.4648 20.4568 38.4131 20.4568 38.3096 20.4568L37.6885 20.5085L38.1543 18.6998L75.8327 15.9092ZM38.6719 20.8702C39.1377 20.9219 39.5 21.1803 39.707 21.387C39.9658 21.6454 40.1728 22.0072 40.3281 22.4206C40.4833 22.7823 40.5351 23.1957 40.5351 23.6092C40.5351 24.1776 40.3798 24.6944 40.1728 25.1078C40.0175 25.3662 39.8623 25.5729 39.6552 25.6763C39.4482 25.8313 39.1894 25.9347 38.9824 25.9863C38.7236 26.038 38.4648 25.9863 38.2578 25.883C38.0508 25.7796 37.8438 25.6246 37.6367 25.4179C37.3262 25.0561 37.0674 24.591 36.9639 24.0226L37.6885 21.232C37.9473 20.9736 38.3096 20.8702 38.6719 20.8702ZM37.6885 20.9736L37.7403 20.7152L38.4131 20.6635C38.4648 20.6635 38.5684 20.6635 38.6201 20.6635C38.7236 20.6635 38.8789 20.7152 38.9824 20.7669C38.8789 20.7152 38.7754 20.7152 38.6719 20.7152C38.3096 20.6635 37.999 20.7669 37.6885 20.9736ZM39.6035 25.883C39.5517 25.9347 39.4482 25.9863 39.3964 26.038C39.5 25.9863 39.5517 25.9347 39.6035 25.883ZM37.4297 25.5212C37.6367 25.7279 37.8438 25.883 38.1025 26.038C38.3096 26.1414 38.5166 26.193 38.7236 26.193C38.7754 26.193 38.8789 26.193 38.9306 26.193C39.0859 26.193 39.1894 26.1414 39.2929 26.0897C39.1377 26.1414 38.9306 26.193 38.7754 26.2447L36.2393 26.3997L36.7569 24.436C36.9122 24.8494 37.1709 25.2628 37.4297 25.5212ZM13.0526 20.8186C13.1044 20.8186 13.2079 20.7669 13.3114 20.7669L13.0526 21.7488V20.8186ZM10.8789 31.7742C10.8271 31.6192 10.8271 31.4642 10.8271 31.2058C10.8271 30.844 10.9307 30.4306 11.0342 30.1205L14.8641 15.9609C14.9676 15.6508 15.0194 15.3407 15.1746 15.0307C15.2264 14.8756 15.2782 14.7206 15.3817 14.6173C15.4334 14.4622 15.5369 14.3589 15.6404 14.2555C15.6922 14.1005 15.7957 13.9971 15.8992 13.8938C16.0027 13.7904 16.158 13.7387 16.2615 13.6354C16.5203 13.532 16.8308 13.4804 17.1414 13.4287L36.2393 11.8267C36.3946 11.8267 36.5499 11.775 36.7569 11.8267C36.9639 11.8267 37.1192 11.8783 37.2227 11.93C37.2745 11.9817 37.378 12.0334 37.4297 12.1367C37.4815 12.1884 37.5332 12.2918 37.5332 12.3951C37.585 12.5502 37.585 12.7052 37.585 12.9636C37.5332 13.3253 37.4297 13.7387 37.3262 14.1005L33.4963 28.6219C33.3928 28.932 33.341 29.242 33.2375 29.5521C33.134 29.9138 32.9787 30.1722 32.7717 30.3789C32.6682 30.4823 32.5647 30.6373 32.4611 30.7407C32.3576 30.844 32.2024 30.9474 32.0471 30.9991C31.7883 31.1024 31.4778 31.1541 31.219 31.1541H31.1672L12.0693 32.2393H12.0175C11.8623 32.2393 11.707 32.2393 11.5517 32.2393C11.3965 32.2393 11.2412 32.1876 11.1377 32.136C11.0342 32.0843 10.9824 32.0326 10.9307 31.9809C10.9307 31.9293 10.8789 31.8776 10.8789 31.7742ZM12.7939 33.1178C12.7421 33.1178 12.6904 33.1178 12.6386 33.1695L11.0859 32.3944C11.0342 32.3427 10.9824 32.291 10.8789 32.1876C10.9307 32.2393 10.9824 32.291 11.0859 32.3427C11.1894 32.3944 11.3447 32.446 11.5517 32.446C11.6035 32.446 11.6552 32.446 11.6552 32.446C11.7587 32.446 11.8623 32.446 12.0175 32.446L31.1155 31.3091C31.1155 31.3091 31.1155 31.3091 31.1672 31.3091H31.219H31.3225C31.5813 31.3091 31.8401 31.2574 32.0989 31.1541C32.2541 31.1024 32.4094 30.9991 32.5129 30.8957C32.6164 30.7923 32.7717 30.689 32.8752 30.534C33.0822 30.2756 33.2375 30.0172 33.341 29.6554C33.4445 29.3454 33.548 29.0353 33.5998 28.7252L37.4815 14.1005C37.585 13.7387 37.6885 13.3253 37.7403 12.9636C37.7403 12.7052 37.7403 12.4985 37.6885 12.3434C37.6367 12.2401 37.585 12.1367 37.5332 12.0334C37.4815 11.93 37.378 11.8783 37.2745 11.8267C37.1709 11.775 36.9639 11.7233 36.8086 11.7233C36.8086 11.7233 36.8087 11.7233 36.8604 11.7233C37.0674 11.7233 37.2227 11.775 37.3262 11.8267L38.8789 12.7052C39.0859 12.8085 39.1894 13.0153 39.2412 13.1703C39.2929 13.3253 39.2929 13.532 39.2929 13.7904C39.2929 14.2038 39.1377 14.6173 39.0342 15.0307L38.1543 18.4414L38.0508 18.8031L35.2042 29.5521C35.1007 29.8621 35.0489 30.2239 34.8937 30.534C34.7384 30.8957 34.5831 31.1541 34.4279 31.4125C34.3244 31.5675 34.2208 31.6709 34.0656 31.7742C33.9103 31.8776 33.8068 31.9809 33.6515 32.0326C33.4963 32.0843 33.341 32.136 33.1857 32.1876C33.0305 32.2393 32.8234 32.2393 32.6682 32.2393L15.7957 33.2212C15.744 33.1695 15.6922 33.1178 15.5887 33.1178C15.4852 33.1178 15.4334 33.1695 15.3817 33.2729H13.622C13.4667 33.2729 13.2597 33.2729 13.0526 33.2729C13.0009 33.1695 12.8974 33.1178 12.7939 33.1178ZM13.2597 136.835C13.2597 136.731 13.1562 136.628 13.0526 136.628C13.0009 136.628 13.0009 136.628 12.9491 136.628L13.0526 33.4796C13.1562 33.4796 13.2079 33.4796 13.3114 33.4796C13.4149 33.4796 13.5185 33.4796 13.622 33.4796L15.4334 33.3762L15.3817 137.041L14.7088 136.99C14.3983 136.99 14.0878 136.938 13.7255 136.886C13.5702 136.886 13.4149 136.835 13.2597 136.835C13.3114 136.835 13.3114 136.835 13.2597 136.835ZM20.8678 139.16H20.816C20.6608 139.16 20.4538 139.16 20.2467 139.212C20.195 139.212 20.195 139.212 20.1432 139.212C19.9362 139.212 19.7292 139.212 19.4704 139.212C19.4186 139.212 19.3669 139.212 19.3151 139.212C19.1081 139.212 18.8493 139.212 18.6423 139.212C18.5905 139.212 18.5905 139.212 18.5388 139.212C18.28 139.212 18.0212 139.212 17.7107 139.212C17.1414 139.212 16.6238 139.212 16.158 139.16C15.8475 139.16 15.5887 139.109 15.3817 139.109C15.2782 139.109 15.1746 139.109 15.1229 139.057C15.0711 139.057 14.9676 139.057 14.9159 139.005C14.8641 139.005 14.8124 139.005 14.8124 138.954C14.8124 138.954 14.8124 138.954 14.7606 138.902V138.54C14.8124 138.54 14.8641 138.54 14.9676 138.54L21.0748 139.005C20.9713 139.16 20.9196 139.16 20.8678 139.16ZM86.4426 143.966C86.4426 143.966 86.3909 144.018 86.4426 143.966C86.3391 144.018 86.3391 144.07 86.2874 144.07C86.2356 144.07 86.0804 144.121 85.9768 144.121C85.7698 144.173 85.5628 144.173 85.3558 144.173C84.4759 144.276 83.182 144.276 81.8881 144.276C81.267 144.276 80.646 144.225 80.1284 144.225C79.7661 144.225 79.5073 144.173 79.2486 144.173C79.1451 144.173 79.0415 144.173 78.938 144.121C78.8863 144.121 78.7828 144.07 78.731 144.07C78.6792 144.07 78.6275 144.018 78.5757 144.018C78.5757 144.018 78.5757 144.018 78.524 144.018V143.605C78.5757 143.605 78.5757 143.605 78.6275 143.605C79.0415 143.605 79.5073 143.656 79.9214 143.656C80.3354 143.656 80.8012 143.656 81.2153 143.708C81.5776 143.708 81.9399 143.708 82.3022 143.708C82.3539 143.708 82.4574 143.708 82.5092 143.708C83.3373 143.708 84.2171 143.708 85.097 143.656C85.511 143.656 85.9251 143.605 86.3391 143.605L86.4426 143.966ZM147.204 138.643C147.152 138.643 147.152 138.695 147.101 138.695C147.049 138.695 146.945 138.747 146.894 138.747C146.738 138.799 146.531 138.799 146.428 138.799C145.289 138.902 143.685 138.902 143.219 138.902C142.65 138.902 142.08 138.902 141.615 138.85C141.511 138.85 141.408 138.85 141.304 138.85L147.204 138.333V138.643C147.204 138.592 147.204 138.592 147.204 138.643C147.204 138.592 147.204 138.592 147.204 138.643ZM148.705 137.61C148.705 137.61 148.653 137.61 148.705 137.61C148.602 137.662 148.55 137.662 148.498 137.662C148.343 137.713 148.239 137.713 148.084 137.713C147.825 137.765 147.515 137.765 147.256 137.817L87.7883 143.036C87.5813 143.036 87.3225 143.088 87.1155 143.088C86.9084 143.088 86.7014 143.139 86.4944 143.139C86.0804 143.139 85.6145 143.191 85.2005 143.191C84.3207 143.243 83.4408 143.243 82.6127 143.243C82.1987 143.243 81.7329 143.243 81.3188 143.243C80.9048 143.243 80.439 143.243 80.0249 143.191C79.6109 143.191 79.1451 143.139 78.731 143.139C78.317 143.139 77.8512 143.088 77.4371 143.036L15.0194 138.23C14.7088 138.23 14.3983 138.178 14.0878 138.127C13.9325 138.127 13.7772 138.075 13.622 138.075C13.5702 138.075 13.4667 138.023 13.4149 138.023H13.3632L13.3114 136.99C13.4667 136.99 13.5702 137.041 13.7772 137.041C14.0878 137.093 14.4501 137.093 14.7606 137.145L15.5887 137.197C15.5887 137.197 15.5887 137.197 15.6404 137.197C15.6404 137.248 15.6922 137.248 15.6922 137.248L75.8844 141.796C75.9362 141.796 75.9362 141.744 75.9879 141.744H76.0397H76.0914H76.1432L77.1783 141.796C77.6441 141.848 78.0582 141.848 78.524 141.899C78.9898 141.899 79.4556 141.951 79.8696 141.951C80.3354 141.951 80.8012 141.951 81.2153 142.003C81.4223 142.003 81.6811 142.003 81.8881 142.003C82.0434 142.003 82.1987 142.003 82.3539 142.003C82.4057 142.003 82.5092 142.003 82.5609 142.003C83.4408 142.003 84.3724 142.003 85.304 141.951C86.3391 141.899 87.1672 141.848 88.0471 141.796L147.515 136.68C147.774 136.68 148.084 136.628 148.395 136.576C148.55 136.576 148.653 136.525 148.757 136.525L148.705 137.61ZM148.964 136.215C148.86 136.215 148.757 136.318 148.757 136.421C148.653 136.421 148.498 136.473 148.343 136.473C148.032 136.525 147.722 136.525 147.463 136.576L87.9953 141.692C87.1672 141.744 86.3391 141.796 85.304 141.847C84.3724 141.899 83.4926 141.899 82.5609 141.899C82.3539 141.899 82.0951 141.899 81.8881 141.899C81.6811 141.899 81.4223 141.899 81.2153 141.899C81.06 141.899 80.9048 141.899 80.7495 141.899C80.6977 141.848 80.646 141.848 80.646 141.899C80.3872 141.899 80.1284 141.899 79.8696 141.899C79.4038 141.899 78.938 141.847 78.524 141.847C78.0582 141.847 77.5924 141.796 77.1783 141.744L76.2467 141.692V141.641V81.1263H76.2985C76.5055 81.023 76.6608 80.8163 76.7643 80.6095C76.9713 80.2478 77.1266 79.7827 77.1266 79.2659C77.1266 78.8008 77.0231 78.2841 76.7643 77.9223C76.609 77.7156 76.4537 77.5089 76.2985 77.4055H76.2467V33.5313V16.0642L77.1783 16.0126C77.6441 15.9609 78.0582 15.9609 78.524 15.9092C78.731 15.9092 78.938 15.9092 79.1451 15.8575C79.4038 15.8575 79.6109 15.8575 79.8696 15.8575C80.3354 15.8575 80.7495 15.8575 81.2153 15.8058C81.4223 15.8058 81.6811 15.8058 81.8881 15.8058C82.0951 15.8058 82.3539 15.8058 82.5609 15.8058C83.4408 15.8058 84.3724 15.8058 85.2523 15.8575C85.511 15.8575 85.7181 15.8575 85.9768 15.9092C86.1839 15.9092 86.3909 15.9092 86.5979 15.9609C87.0637 15.9609 87.4778 16.0126 87.9436 16.0642L147.359 21.1286C147.67 21.1286 147.929 21.1803 148.239 21.232C148.705 21.2837 148.912 21.3353 148.964 21.387L149.016 136.421C149.067 136.215 149.016 136.215 148.964 136.215Z" fill="#2D2D31"/>
<path d="M24.0752 127.584C23.9717 127.533 23.8681 127.481 23.7646 127.481C23.5576 127.481 23.4023 127.636 23.2988 127.843C23.1953 128.049 23.1953 128.256 23.1953 128.359C23.1953 128.566 23.2471 128.773 23.3506 128.98C23.4023 129.083 23.5058 129.186 23.5576 129.238C23.6611 129.29 23.7646 129.341 23.8681 129.341C24.0752 129.341 24.2304 129.186 24.3339 128.98C24.4375 128.773 24.4375 128.566 24.4375 128.463C24.4375 128.256 24.3857 128.049 24.2822 127.843C24.2304 127.739 24.1787 127.636 24.0752 127.584ZM24.1787 128.876C24.1269 128.928 24.0234 129.135 23.8681 129.135C23.7646 129.135 23.7129 129.083 23.6611 129.083C23.6094 129.031 23.5576 128.98 23.5058 128.876C23.4023 128.721 23.4023 128.566 23.4023 128.359C23.4023 128.204 23.4541 128.049 23.5058 127.894C23.5576 127.843 23.6611 127.636 23.8164 127.636C23.9199 127.636 23.9717 127.688 24.0234 127.688C24.0752 127.739 24.1269 127.791 24.1787 127.894C24.2822 128.049 24.2822 128.204 24.2822 128.411C24.2822 128.618 24.2304 128.773 24.1787 128.876Z" fill="#2D2D31"/>
<path d="M19.8857 127.533C19.834 127.429 19.7822 127.326 19.6787 127.274C19.5752 127.223 19.4717 127.171 19.3681 127.171C19.1611 127.171 19.0059 127.326 18.9023 127.533C18.7988 127.688 18.7988 127.894 18.7988 128.049C18.7988 128.256 18.8506 128.463 18.9541 128.618C19.0059 128.721 19.0576 128.825 19.1611 128.876C19.2646 128.928 19.3681 128.98 19.4717 128.98C19.6787 128.98 19.834 128.825 19.9375 128.618C20.041 128.411 20.041 128.204 20.041 128.101C20.041 127.946 19.9892 127.739 19.8857 127.533ZM19.8339 128.153C19.8339 128.308 19.7822 128.463 19.7304 128.618C19.6787 128.67 19.5752 128.876 19.4199 128.876C19.3164 128.876 19.2646 128.825 19.2129 128.825C19.1611 128.773 19.1094 128.721 19.0576 128.618C18.9541 128.463 18.9541 128.308 18.9541 128.101C18.9541 127.946 19.0059 127.791 19.0576 127.636C19.1094 127.584 19.2129 127.378 19.3681 127.378C19.4717 127.378 19.5234 127.429 19.5752 127.429C19.6269 127.481 19.6787 127.533 19.7304 127.636C19.8339 127.791 19.8339 127.946 19.8339 128.153Z" fill="#2D2D31"/>
<path d="M65.6377 19.6821C65.6894 19.6821 65.7412 19.6821 65.8447 19.6821C65.8447 19.889 65.8447 20.096 65.8447 20.2512C65.8965 20.2512 65.9482 20.2512 66.0517 20.2512C66.0517 20.0443 66.0517 19.8373 66.0517 19.6821C66.1035 19.6821 66.1553 19.6821 66.2588 19.6821C66.2588 19.889 66.2588 20.096 66.2588 20.2512C66.3105 20.2512 66.3623 20.2512 66.4658 20.2512C66.4658 20.096 66.4658 19.9925 66.4658 19.8373C66.4658 19.7855 66.4658 19.7855 66.4658 19.7338V19.6821V19.6303C66.4658 19.5786 66.4658 19.5786 66.414 19.5268C66.414 19.5268 66.3623 19.4751 66.3105 19.4751C66.0517 19.4751 65.793 19.5268 65.4824 19.5268C65.4824 19.7855 65.4824 20.0443 65.4824 20.2512C65.5342 20.2512 65.5859 20.2512 65.6894 20.2512C65.6377 20.096 65.6377 19.889 65.6377 19.6821Z" fill="#2D2D31"/>
<path d="M63.4121 21.5419C63.4639 21.5419 63.4639 21.5419 63.4121 21.5419C63.4639 21.5419 63.5156 21.5419 63.5156 21.5419C63.5674 21.5419 63.6709 21.5419 63.7226 21.5419C63.8779 21.5419 63.9814 21.5419 64.1367 21.4903C64.1367 21.4386 64.1367 21.3869 64.1367 21.3352C64.0332 21.3352 63.8779 21.3352 63.7744 21.3352C63.7226 21.3352 63.6709 21.3352 63.6191 21.3352C63.5674 21.3352 63.5674 21.3352 63.5156 21.3352C63.5156 21.3352 63.5156 21.3352 63.5156 21.2835C63.5156 21.0252 63.5156 20.8184 63.5156 20.5601C63.4639 20.5601 63.4121 20.5601 63.3086 20.5601C63.3086 20.7151 63.3086 20.8184 63.3086 20.9735C63.3086 21.0252 63.3086 21.1285 63.3086 21.1802C63.3086 21.2319 63.3086 21.2319 63.3086 21.2835V21.3352C63.3086 21.3869 63.3086 21.3869 63.3086 21.4386C63.3603 21.4903 63.4121 21.5419 63.4121 21.5419Z" fill="#2D2D31"/>
<path d="M24.284 36.9934C24.1287 36.8901 24.0252 36.8384 23.8182 36.8384H23.5594H23.5077C23.3006 36.8384 23.1454 36.9417 22.9901 37.0968C22.8866 37.2001 22.7831 37.4068 22.6796 37.5619C22.5243 37.9236 22.5243 38.337 22.6278 38.7504V38.8021C22.6796 39.0088 22.7831 39.2155 22.9383 39.3706C23.0936 39.5256 23.3006 39.629 23.5077 39.629C23.5077 39.629 23.5077 39.629 23.5594 39.629H23.6629C23.6629 39.629 23.7147 39.629 23.7664 39.629C23.7664 39.629 23.7664 39.629 23.8182 39.629C23.9735 39.629 24.1287 39.5773 24.284 39.4739C24.3875 39.3706 24.491 39.2672 24.5945 39.1122C24.7498 38.8538 24.8016 38.5437 24.8016 38.2337C24.8016 37.9236 24.7498 37.6135 24.5945 37.3552C24.4393 37.2001 24.3875 37.0968 24.284 36.9934ZM23.8699 39.2672C23.7664 39.3706 23.6629 39.4223 23.5077 39.4223C23.3006 39.4223 23.1454 39.3189 23.0419 39.2155C22.8866 39.0605 22.8348 38.8538 22.7831 38.7504V38.6988C22.6796 38.337 22.6796 37.9753 22.8348 37.6135V37.5619C22.8866 37.4068 22.9901 37.2518 23.0936 37.1484C23.1971 37.0451 23.3524 36.9417 23.5077 36.9417H23.5594C23.6629 36.9417 23.8182 36.9934 23.9217 37.0968C24.0252 37.2001 24.077 37.3035 24.1805 37.4068C24.284 37.6135 24.3358 37.9236 24.3358 38.182C24.3358 38.4921 24.2322 38.7504 24.1287 38.9572C24.0252 39.1122 23.9735 39.2155 23.8699 39.2672ZM24.3358 39.0088C24.284 39.1122 24.1805 39.2155 24.077 39.3189C24.1287 39.2672 24.1805 39.1639 24.2322 39.0605C24.3875 38.8021 24.4393 38.4921 24.4393 38.182C24.4393 37.8719 24.3875 37.5619 24.284 37.3035C24.2322 37.2518 24.2322 37.2001 24.1805 37.1484C24.2322 37.2001 24.3358 37.3035 24.3875 37.4068C24.491 37.6135 24.5428 37.9236 24.5428 38.182C24.5428 38.4921 24.491 38.8021 24.3358 39.0088Z" fill="#2D2D31"/>
<path d="M19.8328 37.2004C19.6776 37.0971 19.574 37.0454 19.4188 37.0454H19.16H19.1082C18.9012 37.0454 18.746 37.1488 18.5907 37.3038C18.4872 37.4072 18.3837 37.5622 18.2801 37.7689C18.1249 38.1306 18.1249 38.5957 18.2284 39.0092C18.2801 39.2159 18.3837 39.4226 18.5389 39.5259C18.6942 39.681 18.9012 39.7843 19.1082 39.7843C19.1082 39.7843 19.1082 39.7843 19.16 39.7843H19.2635C19.3153 39.7843 19.3153 39.7843 19.367 39.7843C19.367 39.7843 19.367 39.7843 19.4188 39.7843C19.574 39.7843 19.7293 39.7327 19.8328 39.6293C19.9363 39.5259 20.0399 39.4226 20.1434 39.2676C20.2986 39.0092 20.3504 38.6991 20.3504 38.389C20.3504 38.079 20.2986 37.7689 20.1951 37.5105C20.0399 37.4072 19.9363 37.3038 19.8328 37.2004ZM19.4188 39.5259C19.3153 39.6293 19.2118 39.681 19.0565 39.681C18.8495 39.681 18.6942 39.5776 18.5907 39.4743C18.4872 39.3709 18.3837 39.2159 18.3319 39.0092V38.9575C18.2284 38.5957 18.2284 38.1823 18.3837 37.8723C18.4354 37.7172 18.5389 37.5622 18.6424 37.4588C18.746 37.3555 18.8495 37.2521 19.0565 37.2521C19.0565 37.2521 19.0565 37.2521 19.1082 37.2521C19.1082 37.2521 19.1082 37.2521 19.16 37.2521C19.2635 37.2521 19.367 37.3038 19.4705 37.4072C19.574 37.5105 19.6258 37.6139 19.7293 37.7172C19.8328 37.9239 19.8846 38.234 19.8846 38.4924C19.8846 38.7508 19.7811 39.0608 19.6776 39.2676C19.6258 39.3192 19.5223 39.4226 19.4188 39.5259ZM19.9363 39.2159C19.8846 39.3192 19.7811 39.4226 19.6776 39.5259C19.7293 39.4743 19.7811 39.3709 19.8328 39.2676C19.9881 39.0092 20.0399 38.6991 20.0399 38.389C20.0399 38.079 19.9881 37.7689 19.8846 37.5105C19.8328 37.4588 19.8328 37.4072 19.7811 37.3555C19.8328 37.4072 19.9363 37.5105 19.9881 37.6139C20.0916 37.8206 20.1434 38.1306 20.1434 38.389C20.1434 38.7508 20.0399 39.0092 19.9363 39.2159Z" fill="#2D2D31"/>
<path d="M34.8933 27.8984C34.9451 27.8984 34.9451 27.8984 34.9969 27.8984C35.1004 27.8468 35.1521 27.7951 35.1521 27.6917L35.8767 24.9528C35.9285 24.7978 35.8767 24.6944 35.7732 24.5911C35.7214 24.436 35.6697 24.436 35.6179 24.436C35.5662 24.436 35.4627 24.4877 35.4109 24.5394C35.3591 24.5911 35.3591 24.5911 35.3591 24.6427L34.6346 27.3817C34.5828 27.5367 34.6346 27.6917 34.7381 27.7951C34.7381 27.8468 34.8416 27.8984 34.8933 27.8984ZM34.7898 27.4333L35.5144 24.6944C35.5144 24.6427 35.5144 24.6427 35.5662 24.6427L35.6179 24.5911C35.6179 24.5911 35.6697 24.5911 35.6697 24.6427C35.7214 24.6944 35.7214 24.7978 35.7214 24.8495L34.9969 27.5884C34.9969 27.64 34.9451 27.6917 34.9451 27.6917C34.8933 27.6917 34.8933 27.6917 34.8416 27.6917C34.7898 27.64 34.7381 27.5367 34.7898 27.4333Z" fill="#2D2D31"/>
<path d="M67.4482 20.1467C67.4482 20.1467 67.5 20.1467 67.4482 20.1467C67.5 20.1467 67.5 20.1467 67.5 20.1467H67.5518C67.6035 20.1467 67.6035 20.1467 67.6553 20.1467C67.707 20.1467 67.8105 20.1467 67.8623 20.1467C68.0176 20.1467 68.1211 20.1467 68.2763 20.095C68.2763 19.8366 68.2763 19.5782 68.2763 19.3198C68.2246 19.3198 68.1728 19.3198 68.0693 19.3198C68.0693 19.5265 68.0693 19.7332 68.0693 19.94C67.914 19.94 67.7588 19.94 67.6035 19.9916C67.6035 19.7849 67.6035 19.5782 67.6035 19.3715C67.5518 19.3715 67.5 19.3715 67.3965 19.3715C67.3965 19.5265 67.3965 19.6299 67.3965 19.7849C67.3965 19.8366 67.3965 19.94 67.3965 19.9916C67.3965 19.9916 67.3965 19.9916 67.3965 20.0433V20.095C67.3965 20.095 67.4482 20.095 67.4482 20.1467Z" fill="#2D2D31"/>
<path d="M72.5713 20.9221L72.9336 20.8704V18.855H72.6748L72.1055 19.2167V19.4751L72.5713 19.2167V20.9221Z" fill="#2D2D31"/>
<path d="M65.0146 20.7153C64.9629 20.7153 64.9629 20.6636 64.9111 20.6636C64.9111 20.6636 64.9111 20.6636 64.8594 20.6636H64.8076C64.7558 20.6636 64.7041 20.6636 64.6006 20.6636C64.4971 20.6636 64.3418 20.6636 64.2383 20.6636C64.2383 20.7153 64.2383 20.7671 64.2383 20.8188C64.4453 20.8188 64.6523 20.7671 64.8594 20.7671C64.8594 20.8188 64.8594 20.8705 64.8594 20.8705C64.7041 20.8705 64.5488 20.8705 64.3935 20.9223H64.3418H64.29C64.2383 20.9223 64.2383 20.974 64.2383 21.0258C64.2383 21.0775 64.2383 21.0775 64.2383 21.1293V21.181V21.2327V21.2845C64.2383 21.3362 64.2383 21.388 64.29 21.388H64.3418C64.3935 21.388 64.4971 21.388 64.5488 21.388C64.7041 21.388 64.8594 21.388 65.0146 21.3362C65.0146 21.2327 65.0146 21.0775 65.0146 20.974C65.0146 20.9223 65.0146 20.8705 65.0146 20.7671V20.7153C65.0664 20.7671 65.0146 20.7153 65.0146 20.7153ZM64.9111 21.2845L64.4453 21.3362V21.181L64.9111 21.1293V21.2845Z" fill="#2D2D31"/>
<path d="M69.7246 19.8369C69.7764 19.8885 69.7763 19.9402 69.8281 19.9402C69.8281 19.9919 69.8799 19.9919 69.8799 20.0436C69.6211 20.4053 69.3623 20.7671 69.1035 21.1288C69.2588 21.1288 69.4141 21.1288 69.5693 21.0771C69.8281 20.7154 70.0869 20.4053 70.3457 20.0436C70.3457 20.0952 70.3974 20.0952 70.3974 20.1469C70.4492 20.1986 70.4492 20.1986 70.5009 20.2503C70.5527 20.302 70.6045 20.4053 70.708 20.5087C70.8115 20.6637 70.9667 20.8187 71.0703 20.9738C71.2255 20.9738 71.3808 20.9738 71.5361 20.9221C71.2773 20.612 71.0185 20.302 70.7597 19.9402C71.0185 19.5785 71.2773 19.2167 71.5361 18.855C71.3808 18.855 71.2255 18.855 71.0703 18.9067C70.8115 19.2684 70.5527 19.5785 70.3457 19.9402C70.0869 19.6301 69.8281 19.3201 69.5693 19.01C69.4141 19.01 69.2588 19.01 69.1035 19.0617C69.2588 19.2167 69.3623 19.3718 69.5176 19.5268C69.5693 19.6818 69.6728 19.7335 69.7246 19.8369Z" fill="#2D2D31"/>
<path d="M64.6016 20.3537H64.6533C64.7051 20.3537 64.8086 20.3537 64.8603 20.3537C65.0156 20.3537 65.1709 20.3537 65.3261 20.302C65.3261 20.1987 65.3261 20.0436 65.3261 19.9403C65.3261 19.8886 65.3261 19.8369 65.3261 19.7336V19.6819C65.3261 19.6302 65.2744 19.6302 65.2744 19.5785C65.2226 19.5785 65.2226 19.5269 65.1709 19.5269C65.1709 19.5269 65.1709 19.5269 65.1191 19.5269H65.0674C65.0156 19.5269 64.9638 19.5269 64.8603 19.5269C64.7568 19.5269 64.6016 19.5269 64.498 19.5785C64.498 19.6302 64.498 19.6819 64.498 19.7336C64.7051 19.7336 64.9121 19.6819 65.1191 19.6819C65.1191 19.7336 65.1191 19.7852 65.1191 19.7852C64.9638 19.7852 64.6016 19.8369 64.6016 19.8369H64.5498C64.498 19.8369 64.498 19.8886 64.498 19.9403C64.498 19.992 64.498 19.992 64.498 20.0436V20.0953V20.147V20.1987C64.498 20.2503 64.5498 20.302 64.6016 20.3537ZM64.7051 20.0436L65.1709 19.992V20.147L64.7051 20.1987V20.0436Z" fill="#2D2D31"/>
<path d="M123.965 70.6876L119.514 67.9487V79.8863L123.965 79.8346V70.6876Z" fill="#2D2D31"/>
<path d="M124.016 60.8686L119.514 60.8169V66.8115L123.965 69.5504L124.016 60.8686Z" fill="#2D2D31"/>
<path d="M118.844 70.1191V60.7655L114.289 60.6621V72.7547L118.844 70.1191Z" fill="#2D2D31"/>
<path d="M118.792 79.886L118.844 71.2559L114.289 73.8914V79.886H118.792Z" fill="#2D2D31"/>
<path d="M123.603 84.537V81.9531H123.137V85.1055H124.845L124.689 84.537H123.603Z" fill="#2D2D31"/>
<path d="M126.863 82.5732H125.207L125.362 83.1417H126.863L126.915 83.1934V83.5034H125.569C125.311 83.5034 125.104 83.8135 125.104 84.2269V84.4336C125.104 84.7954 125.311 85.1054 125.569 85.1054H127.329V83.2967C127.329 82.8833 127.122 82.5732 126.863 82.5732ZM126.863 84.537H125.518L125.466 84.4853V84.1236C125.466 84.0719 125.466 84.0719 125.518 84.0719H126.863V84.537Z" fill="#2D2D31"/>
<path d="M129.297 82.5733H128.21V81.9531H127.744V85.1055H128.21H129.297C129.556 85.1055 129.763 84.7954 129.763 84.4337V83.2967C129.711 82.8833 129.504 82.5733 129.297 82.5733ZM129.245 84.4337C129.245 84.4853 129.245 84.4853 129.193 84.4853H128.158V83.09H129.193L129.245 83.1417V84.4337Z" fill="#2D2D31"/>
<path d="M116.254 82.625H113.873V85.2089H114.339V83.2968C114.339 83.2451 114.339 83.2451 114.391 83.2451H115.012C115.063 83.2451 115.063 83.2968 115.063 83.2968V85.2089H115.529V83.2968C115.529 83.2451 115.529 83.2451 115.581 83.2451H116.202C116.254 83.2451 116.254 83.2968 116.254 83.2968V85.2089H116.72V83.3485C116.72 82.9351 116.513 82.625 116.254 82.625Z" fill="#2D2D31"/>
<path d="M121.17 84.5371C121.17 84.5887 121.17 84.5887 121.118 84.5887H119.979L119.928 84.5371V82.625H119.462V84.4854C119.462 84.8988 119.669 85.2089 119.928 85.2089H121.066C121.325 85.2089 121.532 84.8988 121.532 84.4854V82.625H121.118L121.17 84.5371Z" fill="#2D2D31"/>
<path d="M112.941 82.625H111.233L111.389 83.1934H112.941C112.993 83.1934 112.993 83.2451 112.993 83.2451V83.5552H111.596C111.337 83.5552 111.13 83.8653 111.13 84.2787V84.4854C111.13 84.8988 111.337 85.2089 111.596 85.2089H113.407V83.3485C113.407 82.9351 113.2 82.625 112.941 82.625ZM111.596 84.6404C111.544 84.6404 111.544 84.5887 111.544 84.5887V84.227C111.544 84.1753 111.544 84.1753 111.596 84.1753H112.941V84.6921L111.596 84.6404Z" fill="#2D2D31"/>
<path d="M118.687 82.625H117.601V82.0049H117.135V85.2089H117.601H118.687C118.946 85.2089 119.153 84.8988 119.153 84.4854V83.3485C119.153 82.9351 118.946 82.625 118.687 82.625ZM118.687 84.5371C118.687 84.5888 118.687 84.5888 118.636 84.5888H117.601V83.1418H118.636L118.687 83.1935V84.5371Z" fill="#2D2D31"/>
<path d="M108.336 81.4883V82.1601L108.854 81.9017V81.1782L108.336 81.4883Z" fill="#2D2D31"/>
<path d="M110.51 83.555C110.613 83.4 110.665 83.1933 110.665 82.9349C110.665 82.5215 110.51 82.1598 110.251 82.0047C110.147 81.953 109.992 81.9014 109.889 81.9014C109.889 81.9014 109.889 81.9014 109.837 81.9014C109.733 81.9014 109.268 81.9014 108.853 81.9014V82.4698L108.388 82.7282V85.2087H110.147C110.51 85.2087 110.768 84.7953 110.768 84.2785C110.768 83.9685 110.665 83.7101 110.51 83.555ZM108.853 82.4698H109.423H109.889C109.94 82.4698 109.94 82.4698 109.992 82.5215C110.096 82.5732 110.147 82.7282 110.147 82.8832C110.147 82.8832 110.147 82.9349 110.147 82.9866C110.147 83.09 110.096 83.1933 109.992 83.245C109.94 83.245 109.94 83.2967 109.889 83.2967H109.371H108.853V82.4698ZM109.94 84.692H109.526H108.853V83.8134H109.578H109.733H109.992C110.044 83.8134 110.096 83.8651 110.147 83.9168C110.199 84.0202 110.251 84.1235 110.251 84.2785C110.251 84.4852 110.096 84.692 109.94 84.692Z" fill="#2D2D31"/>
<path d="M73.3486 79.5242V78.749H73.1934V79.7309H73.7627L73.7109 79.5242H73.3486Z" fill="#2D2D31"/>
<path d="M74.3838 78.9561H73.8662L73.918 79.1113H74.3838V79.2148H73.9697C73.8662 79.2148 73.8145 79.3182 73.8145 79.4217V79.4735C73.8145 79.577 73.8662 79.6804 73.9697 79.6804H74.539V79.1113C74.539 79.0078 74.4873 78.9561 74.3838 78.9561ZM74.3838 79.5252H73.9697V79.4217H74.3838V79.5252Z" fill="#2D2D31"/>
<path d="M74.7978 78.749H74.6426V79.7309H74.7978H75.1084C75.2119 79.7309 75.2637 79.6275 75.2637 79.5242V79.1624C75.2637 79.0591 75.2119 78.9557 75.1084 78.9557H74.7461L74.7978 78.749ZM75.1084 79.1108C75.1602 79.1108 75.1602 79.1108 75.1084 79.1108V79.5242H74.7978V79.1108H75.1084Z" fill="#2D2D31"/>
<path d="M71.0195 78.9043H70.2432V79.6804H70.3984V79.0595H70.6055V79.6804H70.7607V79.0595H70.9678V79.6287H71.123V79.0595C71.1748 79.0078 71.123 78.9043 71.0195 78.9043Z" fill="#2D2D31"/>
<path d="M72.5713 79.5252H72.209V78.9561H72.0537V79.5252C72.0537 79.6287 72.1055 79.7322 72.209 79.7322H72.5713C72.6748 79.7322 72.7265 79.6287 72.7265 79.5252V78.9561H72.5713V79.5252Z" fill="#2D2D31"/>
<path d="M69.9844 78.9043H69.415L69.4668 79.0595H69.9844V79.163H69.5186C69.415 79.163 69.3633 79.2665 69.3633 79.37V79.4217C69.3633 79.5252 69.415 79.6287 69.5186 79.6287H70.0879V79.0595C70.1396 79.0078 70.0361 78.9043 69.9844 78.9043ZM69.5186 79.5252V79.37H69.9326V79.5252H69.5186Z" fill="#2D2D31"/>
<path d="M71.7949 78.904H71.4326V78.6973H71.2773V79.6791H71.4326H71.7949C71.8984 79.6791 71.9502 79.5758 71.9502 79.4724V79.1107C71.9502 79.0073 71.8984 78.904 71.7949 78.904ZM71.7949 79.5241H71.4326V79.059H71.7431L71.7949 79.5241Z" fill="#2D2D31"/>
<path d="M68.4824 78.5424V78.7494L68.6377 78.6459V78.439L68.4824 78.5424Z" fill="#2D2D31"/>
<path d="M69.207 79.1627C69.2588 79.111 69.2588 79.0593 69.2588 78.956C69.2588 78.8009 69.207 78.6976 69.1035 78.6459C69.0517 78.6459 69 78.5942 69 78.5942C68.9482 78.5942 68.793 78.5942 68.6895 78.5942V78.7493L68.5342 78.8526V79.6278H69.1035C69.207 79.6278 69.3105 79.4728 69.3105 79.3177C69.2588 79.3177 69.207 79.2144 69.207 79.1627ZM68.6377 78.8526H68.793H68.9482C68.9482 78.8526 68.9482 78.8526 69 78.8526C69.0517 78.8526 69.0517 78.9043 69.0517 78.956C69.0517 79.0077 69.0517 79.0077 69 79.0593C69 79.0593 69 79.0593 68.9482 79.0593H68.793H68.6377V78.8526ZM69 79.5244H68.8447H68.6377V79.266H68.8447H68.8965H69C69 79.266 69.0517 79.266 69.0517 79.3177C69.0517 79.3177 69.1035 79.3694 69.1035 79.4211C69.1035 79.4728 69.0517 79.5244 69 79.5244Z" fill="#2D2D31"/>
<path d="M36.7579 11.5168C36.8096 11.5168 36.8096 11.5168 36.8614 11.5168C37.0684 11.5168 37.2754 11.5685 37.4307 11.6718L38.9834 12.5503C39.1904 12.6537 39.3457 12.8604 39.3974 13.0671C39.5009 13.2738 39.5009 13.4805 39.5009 13.7389C39.5009 14.1523 39.3457 14.6174 39.2421 14.9792L38.3623 18.2865L48.3512 17.5114V17.2013C48.1442 17.2013 47.9372 17.1496 47.7819 17.1496C47.6784 17.1496 47.5749 17.098 47.4713 17.098C47.4196 17.098 47.3678 17.098 47.3161 17.0463C47.2643 17.0463 47.2126 16.9946 47.2126 16.9946C47.2126 16.9946 47.1608 16.9946 47.1608 16.9429L47.1091 16.8912V16.1161C47.1091 16.1161 47.1091 16.0644 47.1608 16.0127L47.2643 16.0644L47.3161 16.0127C47.3161 16.0127 47.3678 16.0127 47.3678 15.961C47.4196 15.961 47.4713 15.9094 47.5231 15.9094C47.6266 15.9094 47.6784 15.8577 47.7819 15.8577C47.8854 15.8577 47.9889 15.806 48.0924 15.806C48.3512 15.806 48.61 15.7543 48.9205 15.7543C49.4381 15.7543 49.9556 15.7027 50.5767 15.7027C50.6802 15.7027 50.7837 15.7027 50.939 15.7027C51.6636 15.7027 52.854 15.7027 53.9409 15.806C54.1996 15.806 54.3549 15.8577 54.5619 15.8577C55.0277 15.9094 55.1312 15.961 55.183 16.0127L55.2348 16.0644C55.2865 16.1161 55.2865 16.1161 55.2865 16.1678V16.9946L75.8854 15.4443C75.9372 15.4443 75.9372 15.4443 75.9889 15.496C76.0407 15.496 76.0407 15.4443 76.0924 15.4443L77.0758 15.3926C77.5416 15.3409 78.0074 15.3409 78.4214 15.2892C78.6285 15.2892 78.8355 15.2892 79.0943 15.2376C79.353 15.2376 79.5601 15.2376 79.8188 15.2376C80.2847 15.2376 80.7505 15.2376 81.1645 15.1859C81.3715 15.1859 81.6303 15.1859 81.8373 15.1859C81.9926 15.1859 82.1479 15.1859 82.3031 15.1859C82.3549 15.1859 82.4584 15.1859 82.5102 15.1859C83.4418 15.1859 84.3216 15.1859 85.2532 15.2376C85.512 15.2376 85.719 15.2376 85.9778 15.2892C86.1848 15.2892 86.3919 15.2892 86.6506 15.3409C87.1165 15.3409 87.5823 15.3926 87.9963 15.4443L147.412 20.5087C147.723 20.5087 147.982 20.5604 148.292 20.612C149.12 20.7154 149.224 20.8187 149.275 20.8704L149.327 20.9221L149.379 20.9738C149.379 21.0255 149.379 21.0255 149.379 21.0771L149.431 136.266C149.431 136.37 149.327 136.473 149.224 136.473C149.172 136.473 149.172 136.473 149.12 136.473L149.068 137.713V137.765C149.068 137.765 149.068 137.817 149.017 137.817C149.017 137.817 148.965 137.868 148.913 137.868C148.861 137.868 148.861 137.92 148.81 137.92C148.758 137.92 148.758 137.92 148.706 137.972C148.654 137.972 148.551 138.024 148.499 138.024C148.344 138.075 148.189 138.075 148.085 138.075C147.826 138.127 147.567 138.127 147.36 138.179V138.54C147.36 138.592 147.309 138.644 147.257 138.695C147.205 138.747 147.153 138.747 147.102 138.747C147.05 138.747 146.946 138.799 146.843 138.799C146.688 138.85 146.481 138.85 146.377 138.85C145.549 138.902 144.462 138.954 143.738 138.954C143.479 138.954 143.272 138.954 143.116 138.954C142.495 138.954 141.978 138.954 141.512 138.902C141.201 138.902 140.943 138.85 140.684 138.85C140.58 138.85 140.477 138.85 140.425 138.799C140.373 138.799 140.322 138.799 140.322 138.799L87.7375 143.398C87.5305 143.398 87.2717 143.45 87.0647 143.45C86.9094 143.45 86.7024 143.45 86.5471 143.501V143.915C86.5471 143.966 86.5471 144.018 86.4954 144.07C86.4436 144.121 86.4436 144.121 86.4436 144.121C86.3919 144.173 86.3401 144.173 86.2884 144.173C86.1848 144.225 86.0813 144.225 85.9778 144.225C85.7708 144.277 85.512 144.277 85.3567 144.277C84.5804 144.328 83.4935 144.38 82.4066 144.38C82.2514 144.38 82.0444 144.38 81.8891 144.38C81.268 144.38 80.6469 144.328 80.1294 144.328C79.7671 144.328 79.5083 144.277 79.2495 144.277C79.146 144.277 79.0425 144.225 78.939 144.225C78.8355 144.225 78.7837 144.173 78.6802 144.173C78.6285 144.173 78.5767 144.121 78.5249 144.121C78.4732 144.121 78.4732 144.07 78.4214 144.07C78.3697 144.018 78.3697 143.966 78.3697 143.966V143.553C78.0074 143.553 77.6969 143.501 77.3346 143.501L21.9039 139.212C21.9039 139.212 21.9039 139.212 21.8521 139.212C21.7486 139.212 21.6451 139.264 21.5416 139.264C21.2828 139.315 21.0758 139.315 20.8688 139.315H20.817C20.6617 139.315 20.5065 139.315 20.3512 139.367C20.2994 139.367 20.2477 139.367 20.1959 139.367C20.0407 139.367 19.8336 139.367 19.6784 139.367C19.6266 139.367 19.5749 139.367 19.4713 139.367C19.2643 139.367 19.1091 139.367 18.9538 139.367C18.8503 139.367 18.7985 139.367 18.695 139.367C18.5397 139.367 18.3845 139.367 18.281 139.367C18.1774 139.367 18.1257 139.367 18.0222 139.367C17.9187 139.367 17.8152 139.367 17.7116 139.367C17.1423 139.367 16.6248 139.367 16.159 139.315C15.8484 139.315 15.5896 139.264 15.3826 139.264C15.2791 139.264 15.1756 139.264 15.1238 139.212C15.0721 139.212 14.9686 139.212 14.9168 139.16C14.8651 139.16 14.8133 139.109 14.7616 139.109L14.7098 139.057C14.7098 139.057 14.7098 139.005 14.658 138.954V138.902V138.54C14.451 138.54 14.244 138.489 14.037 138.489C13.8817 138.489 13.7264 138.437 13.5712 138.437C13.4677 138.437 13.4159 138.385 13.3124 138.385C13.2606 138.385 13.2606 138.385 13.2089 138.334C13.1571 138.334 13.1571 138.334 13.1054 138.282C13.1054 138.282 13.0536 138.23 13.0018 138.23C12.9501 138.179 12.9501 138.127 12.9501 138.075L12.8983 136.835C12.8466 136.835 12.8466 136.835 12.7948 136.835C12.6913 136.835 12.5878 136.732 12.5878 136.628V33.3247L11.0351 32.4979C10.9316 32.4462 10.8281 32.3945 10.7763 32.2912C10.7246 32.1878 10.6728 32.0845 10.6211 31.9811C10.5176 31.7744 10.5176 31.5677 10.5176 31.3093C10.5693 30.8959 10.6728 30.4308 10.7763 30.0174L12.5878 23.2993V20.6637C12.5878 20.612 12.5878 20.612 12.5878 20.5604C12.5878 20.5604 12.6396 20.5087 12.6396 20.457C12.7431 20.3536 12.8983 20.302 13.3641 20.2503L14.5545 15.8577C14.658 15.5476 14.7098 15.2376 14.8651 14.8758C15.0203 14.5141 15.1756 14.204 15.3826 13.9973C15.4861 13.8423 15.5896 13.7389 15.7449 13.6356C15.9002 13.5322 16.0037 13.4288 16.2107 13.3255C16.5213 13.1705 16.8835 13.1188 17.2458 13.1188L36.2921 11.5168C36.4473 11.5168 36.6026 11.5168 36.7579 11.5168ZM36.7579 11C36.5508 11 36.3956 11 36.2403 11.0517L17.1941 12.6537C16.78 12.7054 16.4177 12.7054 16.0037 12.9121C15.7967 13.0154 15.6414 13.1188 15.4344 13.2738C15.2791 13.4288 15.1238 13.5322 15.0203 13.7389C14.8133 14.049 14.6063 14.359 14.451 14.7725C14.2957 15.1342 14.244 15.496 14.1405 15.806L13.0536 19.8885C12.6913 19.9402 12.536 20.0436 12.3808 20.1986C12.2773 20.2503 12.2255 20.4053 12.2255 20.4053C12.122 20.457 12.0702 20.612 12.0702 20.7154V23.2476L10.2588 29.914C10.1553 30.3274 10 30.8442 10 31.3093C10 31.6194 10 31.9294 10.1035 32.1878C10.1553 32.3428 10.2588 32.4979 10.3623 32.6529C10.4658 32.8079 10.6211 32.9113 10.8281 33.0147L12.0702 33.6348L12.0185 136.68C12.0185 136.938 12.1738 137.145 12.3808 137.3L12.4325 138.179V138.23V138.282C12.4325 138.437 12.536 138.54 12.6396 138.644C12.6913 138.695 12.7948 138.799 12.8466 138.799C12.8983 138.85 12.9501 138.85 13.0018 138.85C13.0536 138.85 13.1054 138.902 13.1571 138.902C13.2606 138.954 13.3641 138.954 13.4677 138.954C13.6229 139.005 13.7782 139.005 13.9852 139.057C14.037 139.057 14.0887 139.057 14.1405 139.057C14.1405 139.109 14.1405 139.16 14.1922 139.212C14.1922 139.264 14.244 139.367 14.3475 139.471C14.3993 139.522 14.451 139.574 14.5545 139.626C14.658 139.677 14.7616 139.677 14.8133 139.729C14.9168 139.729 14.9686 139.781 15.0721 139.781C15.1756 139.781 15.2791 139.832 15.3826 139.832C15.6414 139.832 15.9002 139.884 16.2107 139.884C16.6765 139.884 17.1941 139.936 17.8152 139.936H18.1257H18.281H18.3327C18.4362 139.936 18.5915 139.936 18.7468 139.936H19.0055C19.1608 139.936 19.3678 139.936 19.5231 139.936H19.6784C19.8854 139.936 20.0407 139.936 20.2477 139.936H20.3512H20.403C20.5582 139.936 20.7135 139.936 20.8688 139.884H20.9205H20.9723C21.1793 139.884 21.3863 139.832 21.6451 139.832C21.7486 139.832 21.8521 139.781 21.9556 139.781L77.3863 144.07C77.5933 144.07 77.7486 144.121 77.9556 144.121V144.173L78.0074 144.225C78.0591 144.328 78.1109 144.432 78.1627 144.483C78.2144 144.535 78.3179 144.587 78.3697 144.638C78.4732 144.69 78.5767 144.742 78.6285 144.742C78.732 144.742 78.8355 144.793 78.939 144.793C79.0425 144.793 79.146 144.845 79.3013 144.845C79.5601 144.897 79.8189 144.897 80.1811 144.897C80.6987 144.948 81.3198 144.948 81.9408 144.948C82.1479 144.948 82.3031 144.948 82.5102 144.948C83.6488 144.948 84.7357 144.897 85.512 144.845C85.719 144.845 85.9261 144.793 86.1848 144.793C86.3401 144.793 86.4436 144.742 86.5471 144.742C86.6506 144.742 86.7542 144.69 86.8059 144.638C86.9094 144.587 86.9612 144.535 87.0129 144.483C87.1165 144.38 87.1682 144.225 87.1682 144.07C87.1682 144.07 87.1682 144.07 87.22 144.07C87.427 144.07 87.6858 144.018 87.8928 144.018L140.425 139.419H140.477C140.58 139.419 140.684 139.419 140.787 139.471C141.046 139.471 141.305 139.522 141.616 139.522C142.133 139.574 142.651 139.574 143.272 139.574C143.375 139.574 143.634 139.574 143.893 139.574C144.617 139.574 145.704 139.574 146.584 139.471C146.688 139.471 146.895 139.419 147.102 139.419C147.205 139.419 147.309 139.367 147.412 139.367C147.464 139.367 147.567 139.315 147.671 139.264C147.826 139.16 147.982 138.954 147.982 138.747C148.085 138.747 148.189 138.747 148.292 138.695C148.447 138.695 148.603 138.644 148.758 138.592C148.861 138.592 148.965 138.54 149.017 138.54C149.068 138.54 149.12 138.489 149.172 138.489C149.224 138.489 149.275 138.437 149.327 138.385C149.379 138.334 149.482 138.282 149.534 138.23C149.586 138.179 149.586 138.127 149.638 138.075V138.024V137.972C149.638 137.92 149.689 137.869 149.689 137.765L149.741 136.887C149.948 136.732 150.052 136.525 150.052 136.266L150 21.0771C150 20.9738 150 20.8704 149.948 20.7671C149.896 20.6637 149.845 20.612 149.793 20.5604L149.741 20.5087C149.586 20.3536 149.275 20.1986 148.499 20.0953C148.189 20.0436 147.878 20.0436 147.619 19.9919L88.0998 14.9275C87.634 14.8758 87.1682 14.8758 86.7024 14.8241C86.4954 14.8241 86.2884 14.8241 86.0296 14.7725C85.7708 14.7725 85.5638 14.7725 85.305 14.7208C84.3734 14.6691 83.4935 14.6691 82.5619 14.6691H82.4584H82.3549C82.1996 14.6691 82.0444 14.6691 81.8891 14.6691C81.6821 14.6691 81.4233 14.6691 81.2163 14.6691C80.7505 14.6691 80.2847 14.6691 79.8188 14.7208C79.5601 14.7208 79.353 14.7208 79.0943 14.7208C78.8872 14.7208 78.6802 14.7208 78.4214 14.7725C77.9556 14.7725 77.4898 14.8241 77.024 14.8758L76.0407 14.9275C75.9889 14.9275 75.9889 14.9275 75.9372 14.9275H75.8854H75.8336H75.7819L55.7523 16.4261V16.1678C55.7523 16.0644 55.7523 15.961 55.7006 15.8577V15.806L55.597 15.7027L55.5453 15.651C55.39 15.496 55.1312 15.4443 54.6654 15.3926C54.4584 15.3926 54.3031 15.3409 54.0444 15.3409C52.9575 15.2376 51.6636 15.2376 50.9908 15.2376C50.8355 15.2376 50.732 15.2376 50.6285 15.2376C50.0074 15.2376 49.4381 15.2376 48.9205 15.2892C48.5582 15.2892 48.2994 15.3409 48.0407 15.3409C47.9372 15.3409 47.8336 15.3409 47.6784 15.3926C47.5749 15.3926 47.4714 15.4443 47.4196 15.4443C47.3678 15.4443 47.2643 15.496 47.1608 15.496C47.1091 15.496 47.0573 15.5476 47.0573 15.5476H47.0055L46.902 15.651L46.8503 15.7027L46.7468 15.806V15.8577C46.695 15.961 46.6433 16.0644 46.6433 16.2194V16.9946C46.6433 17.098 46.6433 17.1496 46.695 17.253L39.0869 17.8214L39.7597 15.1342L39.8115 14.9792C39.915 14.6174 40.0185 14.204 40.0185 13.7906C40.0185 13.4805 40.0185 13.1705 39.915 12.9637C39.8115 12.602 39.5527 12.2919 39.2421 12.1369L37.6895 11.2584C37.4824 11.1034 37.2237 11 36.9131 11C36.8614 11 36.8096 11 36.7579 11Z" fill="#2D2D31"/>
<path d="M12.6902 31.1028L13.4666 31.0511L30.2873 30.0176L31.4776 29.9659C31.6847 29.9659 31.8399 29.8108 31.8917 29.6558L32.3575 27.8471L35.7216 15.0311L36.1357 13.5841C36.1874 13.429 36.1357 13.274 36.0322 13.1707C35.9287 13.0673 35.7734 13.0156 35.6699 13.0156L34.8418 13.119L18.0211 14.5143L16.8824 14.6176C16.6754 14.6176 16.5202 14.7727 16.4684 14.9277L16.0026 16.6847L12.6385 29.139L12.2762 30.5343C12.2244 30.6894 12.2762 30.8444 12.3797 30.9478C12.4314 31.0511 12.5867 31.1028 12.6902 31.1028ZM26.5608 21.129C26.6126 21.1807 26.6126 21.2324 26.5608 21.2324L24.2318 23.4028H24.18C24.18 23.4028 24.1283 23.4028 24.1283 23.3511C24.0765 23.2995 24.0765 23.2478 24.1283 23.2478L26.4573 21.0773C26.4573 21.0773 26.5091 21.0773 26.5608 21.129ZM20.7641 23.5579L25.5775 18.8035C25.6292 18.7518 25.681 18.7518 25.681 18.8035C25.7327 18.8552 25.7327 18.9069 25.681 18.9069L20.8677 23.6612H20.8159H20.7641C20.7124 23.6095 20.7124 23.5579 20.7641 23.5579Z" fill="#4A4A51"/>
<path d="M67.0859 19.5786L66.6201 19.6304V20.0443L67.0859 19.9925V19.5786Z" fill="#4A4A51"/>
<path d="M64.3945 21.2841H64.9121V21.1289L64.3945 21.1806V21.2841Z" fill="#4A4A51"/>
<path d="M47.6777 16.6847C47.7812 16.6847 47.9365 16.633 48.04 16.633C48.2988 16.633 48.5576 16.5813 48.8681 16.5813C49.3857 16.5296 49.955 16.5296 50.5761 16.5296C51.8182 16.5296 53.0603 16.5813 53.992 16.633C53.992 16.633 53.9919 16.633 54.0437 16.633V17.0464L55.0788 16.9431V16.1162L55.0271 16.0645C55.0271 16.0645 54.9236 16.0129 54.5095 15.9612C54.3542 15.9612 54.1472 15.9095 53.8884 15.9095C52.6463 15.8062 51.1454 15.8062 50.5761 15.8062C49.955 15.8062 49.3857 15.8062 48.9199 15.8578C48.6093 15.8578 48.3505 15.9095 48.0918 15.9095C47.9883 15.9095 47.8847 15.9095 47.7812 15.9612C47.6777 15.9612 47.626 15.9612 47.5225 16.0129C47.4707 16.0129 47.4189 16.0129 47.3672 16.0645H47.3154L47.2637 16.1162V16.6847C47.3154 16.6847 47.3154 16.6847 47.3672 16.6847C47.5225 16.7363 47.626 16.7363 47.6777 16.6847Z" fill="#4A4A51"/>
<path d="M48.5576 17.5637L53.9402 17.1498V16.8394L48.5576 17.2533V17.5637Z" fill="#4A4A51"/>
<path d="M52.699 16.7363C52.0262 16.7363 51.3534 16.6846 50.6288 16.6846C50.0077 16.6846 49.4384 16.6846 48.9208 16.7363C48.6103 16.7363 48.2998 16.7881 48.0927 16.7881C47.9892 16.7881 47.834 16.7881 47.7305 16.8398C47.6269 16.8398 47.5752 16.8398 47.4717 16.8915H47.4199C47.4717 16.8915 47.5234 16.8915 47.5752 16.9433C47.6787 16.9433 47.7822 16.995 47.8857 16.995C48.041 16.995 48.248 17.0468 48.5068 17.0468L52.699 16.7363Z" fill="#4A4A51"/>
<path d="M65.3271 21.2328L65.793 21.181V20.8188H65.3271V21.2328Z" fill="#4A4A51"/>
<path d="M64.1894 19.7339C64.1894 19.7339 64.1894 19.6821 64.1894 19.7339C64.1894 19.6821 64.1894 19.6821 64.1894 19.6821V19.6304H64.1377H64.0859C64.0342 19.6304 64.0342 19.6304 63.9824 19.6304C63.8271 19.6304 63.6719 19.6304 63.5166 19.6821C63.5166 19.7339 63.5166 19.8373 63.5166 19.8891C63.7236 19.8891 63.9824 19.8373 64.1894 19.8373C64.1894 19.7856 64.1894 19.7856 64.1894 19.7339Z" fill="#4A4A51"/>
<path d="M36.291 26.3484L38.8271 26.1933C38.9823 26.1933 39.1893 26.1416 39.3446 26.0383C39.2411 26.09 39.0858 26.1416 38.9823 26.1416C38.9306 26.1416 38.8271 26.1416 38.7753 26.1416C38.5683 26.1416 38.3613 26.09 38.1542 25.9866C37.8955 25.8833 37.6884 25.7282 37.4814 25.4698C37.1709 25.1598 36.9638 24.7463 36.8086 24.2812L36.291 26.3484Z" fill="#4A4A51"/>
<path d="M13.0537 20.8188V21.749L13.3125 20.7671C13.1572 20.7671 13.1055 20.8188 13.0537 20.8188Z" fill="#4A4A51"/>
<path d="M38.9843 20.7671C38.8808 20.7153 38.7255 20.7153 38.622 20.6636C38.5703 20.6636 38.4668 20.6636 38.415 20.6636L37.7422 20.7153L37.6904 20.974C38.001 20.7671 38.3115 20.6636 38.6738 20.7153C38.7773 20.7153 38.8808 20.7153 38.9843 20.7671Z" fill="#4A4A51"/>
<path d="M36.8623 24.0226C36.9658 24.5394 37.2246 25.0561 37.5351 25.4179C37.7422 25.6246 37.9492 25.7796 38.1562 25.883C38.415 25.9863 38.6738 26.038 38.8808 25.9863C39.1396 25.9347 39.3466 25.8313 39.5536 25.6763C39.7606 25.5212 39.9159 25.3145 40.0712 25.1078C40.33 24.6944 40.4335 24.1259 40.4335 23.6092C40.4335 23.1957 40.3817 22.7823 40.2265 22.4206C40.0712 22.0072 39.8642 21.6971 39.6054 21.387C39.3984 21.1803 39.0361 20.9219 38.5703 20.8703C38.208 20.8186 37.8457 20.9736 37.5351 21.232L36.8623 24.0226Z" fill="#4A4A51"/>
<path d="M64.2412 19.9922C64.1377 19.9922 64.0859 19.9922 63.9824 19.9922C63.8271 19.9922 63.6719 19.9922 63.5166 20.0439C63.5166 20.0957 63.5166 20.1992 63.5166 20.2509C63.7754 20.2509 63.9824 20.1992 64.2412 20.1992C64.2412 20.1474 64.2412 20.1474 64.2412 20.0957C64.2412 20.0957 64.2412 20.0439 64.2412 19.9922C64.2412 20.0439 64.2412 20.0439 64.2412 19.9922Z" fill="#4A4A51"/>
<path d="M37.7942 20.5602L38.4152 20.5086C38.5187 20.5086 38.5705 20.5086 38.674 20.5086C38.9846 20.5086 39.2951 20.6636 39.6056 20.8703C39.8644 21.0253 40.0714 21.2837 40.2785 21.5938C40.6407 22.1106 40.796 22.7824 40.8478 23.4025C40.8995 24.0743 40.7443 24.7461 40.4337 25.2629C40.2784 25.573 40.0714 25.8314 39.8126 25.9864C39.5539 26.1931 39.1916 26.2965 38.881 26.3481L36.2932 26.5032L35.5169 29.5005C35.4134 29.8105 35.3616 30.1723 35.2064 30.534C35.0511 30.8958 34.8958 31.2058 34.6888 31.4642C34.5853 31.6192 34.43 31.7226 34.3265 31.8776C34.1712 31.981 34.016 32.0843 33.8607 32.1877C33.7054 32.2394 33.5502 32.2911 33.3431 32.3427C33.1361 32.3944 32.9809 32.3944 32.8256 32.3944L16.0049 33.3763V36.4769L75.8348 33.2213V15.9609L38.26 18.7515L37.7942 20.5602ZM65.0696 20.8703C65.0696 20.922 65.0696 20.9737 65.0696 21.077C65.0696 21.1804 65.0696 21.3354 65.0696 21.4388C64.9143 21.4388 64.759 21.4388 64.6038 21.4904C64.552 21.4904 64.4485 21.4904 64.3967 21.4904H64.345C64.2932 21.4904 64.2932 21.3871 64.2932 21.3871V21.3354V21.2837V21.2321C64.2932 21.1804 64.2932 21.1804 64.2932 21.1287C64.2932 21.077 64.345 21.077 64.345 21.0253H64.3967H64.4485C64.6038 21.0253 64.759 21.0253 64.9143 20.9737C64.9143 20.922 64.9143 20.8703 64.9143 20.8703C64.7073 20.8703 64.5003 20.922 64.2932 20.922C64.2932 20.8703 64.2932 20.8186 64.2932 20.767C64.3968 20.767 64.552 20.767 64.6555 20.767C64.7073 20.767 64.759 20.767 64.8626 20.767H64.9143C64.9143 20.767 64.9143 20.767 64.9661 20.767C65.0178 20.767 65.0178 20.767 65.0696 20.8186C65.1213 20.8186 65.1213 20.8703 65.1213 20.922C65.0696 20.8186 65.0696 20.8186 65.0696 20.8703ZM66.0012 21.077V21.1287C66.0012 21.1804 66.0012 21.2837 65.9494 21.3354L65.8977 21.3871C65.8977 21.3871 65.8977 21.3871 65.8459 21.3871H65.7942C65.7424 21.3871 65.7424 21.3871 65.6906 21.3871C65.5354 21.3871 65.3284 21.3871 65.1731 21.4388C65.1731 21.1287 65.1731 20.8186 65.1731 20.5086C65.2248 20.5086 65.2766 20.5086 65.3284 20.5086C65.3284 20.5602 65.3284 20.6119 65.3284 20.6636C65.4319 20.6636 65.4836 20.6636 65.5871 20.6636C65.6389 20.6636 65.6906 20.6636 65.6906 20.6636H65.7424C65.7424 20.6636 65.7424 20.6636 65.7942 20.6636H65.8459C65.8977 20.6636 65.8977 20.7153 65.9494 20.7153C65.9494 20.767 66.0012 20.8186 66.0012 20.8703C66.0012 20.922 66.0012 20.9737 66.0012 21.077ZM72.1084 19.2166L72.6777 18.8549H72.8847V20.8703H72.5224V19.1649L72.0566 19.4233V19.2166H72.1084ZM69.5723 19.0616C69.8311 19.3717 70.0899 19.6817 70.3487 19.9918C70.6075 19.63 70.8663 19.32 71.0733 18.9582C71.2285 18.9582 71.3838 18.9582 71.5391 18.9066C71.2803 19.2683 71.0215 19.63 70.7627 19.9918C71.0215 20.3019 71.2803 20.6119 71.5391 20.9737C71.3838 20.9737 71.2285 20.9737 71.0733 21.0253C70.9698 20.8703 70.8145 20.7153 70.711 20.5602C70.6592 20.4569 70.6075 20.4052 70.504 20.3019C70.4522 20.2502 70.4522 20.1985 70.4004 20.1985C70.4004 20.1468 70.3487 20.1468 70.3487 20.0951C70.0899 20.4569 69.8311 20.767 69.5723 21.1287C69.4171 21.1287 69.2618 21.1287 69.1065 21.1804C69.3653 20.8186 69.6241 20.4569 69.8829 20.0951C69.8829 20.0435 69.8311 20.0435 69.8311 19.9918C69.7794 19.9401 69.7794 19.8884 69.7276 19.8884C69.6759 19.7851 69.5724 19.7334 69.5206 19.63C69.3653 19.475 69.2618 19.32 69.1065 19.1649C69.2618 19.1133 69.4171 19.1133 69.5723 19.0616ZM67.3986 19.9918C67.3986 19.9401 67.3986 19.8368 67.3986 19.7851C67.3986 19.63 67.3986 19.5267 67.3986 19.3717C67.4504 19.3717 67.5021 19.3717 67.6056 19.3717C67.6056 19.5784 67.6056 19.7851 67.6056 19.9918C67.7609 19.9918 67.9162 19.9918 68.0714 19.9401C68.0714 19.7334 68.0714 19.5267 68.0714 19.32C68.1232 19.32 68.1749 19.32 68.2784 19.32C68.2784 19.5784 68.2784 19.8368 68.2784 20.0951C68.1232 20.0951 68.0197 20.0951 67.8644 20.1468C67.8126 20.1468 67.7091 20.1468 67.6574 20.1468C67.6056 20.1468 67.6056 20.1468 67.5539 20.1468H67.5021H67.4504C67.3986 20.1468 67.3986 20.0951 67.3986 20.0435C67.3986 20.0435 67.3986 19.9918 67.3986 19.9918ZM66.467 19.32C66.5187 19.32 66.5705 19.32 66.6223 19.32C66.6223 19.3717 66.6223 19.4233 66.6223 19.475C66.7258 19.475 66.7775 19.475 66.881 19.475C66.9328 19.475 66.9845 19.475 66.9845 19.475H67.0363C67.0363 19.475 67.0363 19.475 67.0881 19.475H67.1398C67.1916 19.475 67.1916 19.5267 67.2433 19.5267C67.2433 19.5784 67.2951 19.63 67.2951 19.6817C67.2951 19.7851 67.2951 19.8368 67.2951 19.9401V19.9918C67.2951 20.0435 67.2951 20.1468 67.2433 20.1985L67.1916 20.2502C67.1916 20.2502 67.1916 20.2502 67.1398 20.2502H67.0881C67.0363 20.2502 67.0363 20.2502 66.9845 20.2502C66.8293 20.2502 66.6223 20.2502 66.467 20.3019C66.467 19.8884 66.467 19.63 66.467 19.32ZM65.4319 19.5267C65.6906 19.5267 65.9494 19.475 66.26 19.475C66.3117 19.475 66.3117 19.475 66.3635 19.5267C66.3635 19.5784 66.4152 19.5784 66.4152 19.63V19.6817V19.7334C66.4152 19.7851 66.4152 19.7851 66.4152 19.8368C66.4152 19.9918 66.4152 20.0951 66.4152 20.2502C66.3635 20.2502 66.3117 20.2502 66.2082 20.2502C66.2082 20.0435 66.2082 19.8368 66.2082 19.6817C66.1565 19.6817 66.1047 19.6817 66.0012 19.6817C66.0012 19.8884 66.0012 20.0951 66.0012 20.2502C65.9494 20.2502 65.8977 20.2502 65.7942 20.2502C65.7942 20.0435 65.7942 19.8368 65.7942 19.6817C65.7424 19.6817 65.6907 19.6817 65.5871 19.6817C65.5871 19.8884 65.5871 20.0951 65.5871 20.2502C65.5354 20.2502 65.4836 20.2502 65.3801 20.2502C65.4319 20.0435 65.4319 19.7851 65.4319 19.5267ZM64.5003 20.0951C64.5003 20.0435 64.5003 19.9918 64.5003 19.9401C64.5003 19.8884 64.552 19.8884 64.552 19.8368H64.6038C64.6038 19.8368 64.9661 19.7851 65.1213 19.7851C65.1213 19.7334 65.1213 19.6817 65.1213 19.6817C64.9143 19.6817 64.7073 19.7334 64.5003 19.7334C64.5003 19.6817 64.5003 19.63 64.5003 19.5784C64.6038 19.5784 64.759 19.5784 64.8626 19.5267C64.9143 19.5267 64.9661 19.5267 65.0696 19.5267H65.1213C65.1213 19.5267 65.1213 19.5267 65.1731 19.5267C65.2248 19.5267 65.2248 19.5267 65.2766 19.5784C65.3284 19.5784 65.3284 19.63 65.3284 19.6817V19.7334C65.3284 19.7851 65.3284 19.8368 65.3284 19.9401C65.3284 20.0435 65.3284 20.1985 65.3284 20.3019C65.1731 20.3019 65.0178 20.3019 64.8626 20.3535C64.8108 20.3535 64.7073 20.3535 64.6555 20.3535H64.6038C64.552 20.3535 64.552 20.2502 64.552 20.2502C64.5003 20.1985 64.5003 20.1985 64.5003 20.0951C64.5003 20.1468 64.5003 20.1468 64.5003 20.0951ZM63.3616 19.5267C63.5687 19.5267 64.2415 19.475 64.2932 19.475C64.2932 19.475 64.2932 19.475 64.345 19.475C64.3967 19.475 64.3967 19.475 64.3967 19.5267C64.3967 19.5784 64.4485 19.5784 64.4485 19.63V19.6817C64.4485 19.7334 64.4485 19.7851 64.4485 19.8368C64.5003 19.8884 64.5003 19.9401 64.5003 19.9401C64.5003 19.9918 64.5003 20.0435 64.5003 20.0951C64.5003 20.1985 64.5003 20.3019 64.5003 20.3535C64.138 20.3535 63.7757 20.4052 63.4134 20.4052C63.3616 20.1468 63.3616 19.8368 63.3616 19.5267ZM63.3616 21.3354C63.3616 21.2837 63.3616 21.2837 63.3616 21.2321C63.3616 21.1804 63.3616 21.077 63.3616 21.0253C63.3616 20.8703 63.3616 20.767 63.3616 20.6119C63.4134 20.6119 63.4651 20.6119 63.5687 20.6119C63.5687 20.8703 63.5687 21.077 63.5687 21.3354C63.5687 21.3354 63.5687 21.3354 63.5687 21.3871C63.6204 21.3871 63.6204 21.3871 63.6722 21.3871C63.7239 21.3871 63.7757 21.3871 63.8274 21.3871C63.9309 21.3871 64.0862 21.3871 64.1897 21.3871C64.1897 21.4388 64.1897 21.4904 64.1897 21.5421C64.0345 21.5421 63.9309 21.5421 63.7757 21.5938C63.7239 21.5938 63.6204 21.5938 63.5687 21.5938H63.5169H63.4651C63.4134 21.5938 63.4134 21.5421 63.4134 21.5421C63.3616 21.4388 63.3616 21.3871 63.3616 21.3354C63.3616 21.3354 63.3616 21.3871 63.3616 21.3354Z" fill="#4A4A51"/>
<path d="M15.8486 136.99C15.8486 137.042 15.8486 137.042 15.7969 137.094L75.8338 141.641C75.8338 141.59 75.8338 141.59 75.8338 141.538V134.096L15.8486 130.117V136.99Z" fill="#4A4A51"/>
<path d="M24.1797 37.1489C24.2314 37.2006 24.2314 37.2523 24.2832 37.304C24.3867 37.5623 24.4902 37.8724 24.4385 38.1825C24.4385 38.4925 24.3349 38.8026 24.2314 39.061C24.1797 39.1643 24.1279 39.216 24.0762 39.3194C24.1797 39.2677 24.2832 39.1643 24.3349 39.0093C24.4385 38.8026 24.542 38.4925 24.542 38.2342C24.542 37.9241 24.4902 37.6657 24.3867 37.459C24.3349 37.304 24.2832 37.2523 24.1797 37.1489Z" fill="#4A4A51"/>
<path d="M24.3376 38.1826C24.3376 37.8726 24.2859 37.6142 24.1824 37.4075C24.1306 37.3041 24.0271 37.1491 23.9236 37.0974C23.8201 36.9941 23.7165 36.9424 23.5613 36.9424H23.5095C23.3025 36.9424 23.199 37.0457 23.0955 37.1491C22.992 37.2524 22.8885 37.4075 22.8367 37.5625V37.6142C22.7332 37.9243 22.6814 38.3377 22.7849 38.6994V38.7511C22.8367 38.9061 22.8885 39.0612 23.0437 39.2162C23.1472 39.3195 23.3025 39.4229 23.5095 39.4229C23.613 39.4229 23.7683 39.3712 23.8718 39.2679C23.9753 39.2162 24.0271 39.1128 24.1306 38.9578C24.2341 38.7511 24.2859 38.4927 24.3376 38.1826Z" fill="#4A4A51"/>
<path d="M19.7832 37.4072C19.835 37.4589 19.835 37.5106 19.8867 37.5623C19.9902 37.8206 20.0937 38.1307 20.042 38.4408C20.042 38.7508 19.9385 39.0609 19.835 39.3193C19.7832 39.4227 19.7314 39.4743 19.6797 39.5777C19.7832 39.526 19.835 39.4227 19.9385 39.2676C20.042 39.0609 20.1455 38.7508 20.1455 38.4925C20.1455 38.1824 20.0937 37.924 19.9902 37.7173C19.9385 37.5623 19.835 37.4589 19.7832 37.4072Z" fill="#4A4A51"/>
<path d="M23.9726 127.74C23.9209 127.688 23.8691 127.636 23.7656 127.688C23.6103 127.688 23.5068 127.843 23.4551 127.946C23.4033 128.05 23.3516 128.256 23.3516 128.411C23.3516 128.618 23.4033 128.773 23.4551 128.928C23.5068 129.032 23.5586 129.083 23.6103 129.135C23.6621 129.187 23.7139 129.187 23.8174 129.187C23.9726 129.187 24.0761 129.032 24.1279 128.928C24.1797 128.825 24.2314 128.618 24.2314 128.463C24.2314 128.256 24.1797 128.101 24.1279 127.946C24.0761 127.843 24.0244 127.791 23.9726 127.74Z" fill="#4A4A51"/>
<path d="M19.8856 38.4409C19.8856 38.1826 19.8338 37.8725 19.7303 37.6658C19.6785 37.5624 19.575 37.4591 19.4715 37.3557C19.368 37.2524 19.2645 37.2007 19.161 37.2007C19.161 37.2007 19.161 37.2007 19.1092 37.2007C19.1092 37.2007 19.1092 37.2007 19.0575 37.2007C18.9022 37.2007 18.7469 37.304 18.6434 37.4074C18.5399 37.5107 18.4364 37.6658 18.3846 37.8208C18.2294 38.1826 18.2294 38.596 18.3329 38.906V38.9577C18.3846 39.1644 18.4882 39.3195 18.5917 39.4228C18.6952 39.5262 18.8504 39.6295 19.0575 39.6295C19.161 39.6295 19.2645 39.5778 19.4198 39.4745C19.5233 39.4228 19.575 39.3195 19.6785 39.1644C19.8338 39.0094 19.8856 38.6993 19.8856 38.4409Z" fill="#4A4A51"/>
<path d="M75.6797 77.3022C75.6797 77.3022 75.7314 77.3022 75.7314 77.3539C75.9385 77.4573 76.0937 77.664 76.1972 77.8707C76.4043 78.2324 76.5595 78.6975 76.5595 79.2143C76.5595 79.6794 76.456 80.1445 76.1972 80.5579C76.042 80.7646 75.8867 80.9714 75.7314 81.0747C75.6797 81.0747 75.6797 81.1264 75.6279 81.1264C75.6797 81.1264 75.7314 81.1264 75.835 81.0747C75.835 80.9714 75.9385 80.868 76.042 80.868C76.0937 80.868 76.1455 80.868 76.1455 80.9197C76.1455 80.9197 76.1455 80.9197 76.1972 80.9197C76.3525 80.8163 76.5078 80.6613 76.6113 80.4546C76.8183 80.0928 76.9218 79.6794 76.9218 79.2143C76.9218 78.7492 76.8183 78.3358 76.6113 77.9741C76.5078 77.7673 76.3525 77.6123 76.1972 77.509C76.1972 77.509 76.1972 77.509 76.1455 77.509C76.0937 77.509 76.0937 77.5606 76.042 77.5606C75.9385 77.5606 75.835 77.509 75.835 77.4056C75.7832 77.3022 75.7314 77.3022 75.6797 77.3022Z" fill="#4A4A51"/>
<path d="M19.5762 127.43C19.5244 127.378 19.4726 127.378 19.3691 127.378C19.2139 127.378 19.1103 127.533 19.0586 127.636C19.0068 127.74 18.9551 127.895 18.9551 128.101C18.9551 128.308 19.0068 128.463 19.0586 128.618C19.1103 128.722 19.1621 128.773 19.2139 128.825C19.2656 128.877 19.3174 128.928 19.4209 128.877C19.5762 128.877 19.6797 128.722 19.7314 128.618C19.7832 128.515 19.8349 128.36 19.8349 128.153C19.8349 127.946 19.7832 127.791 19.7314 127.636C19.6797 127.585 19.6279 127.481 19.5762 127.43Z" fill="#4A4A51"/>
<path d="M73.9707 79.4214V79.5249H74.3847V79.3696L73.9707 79.4214C73.9707 79.3696 73.9707 79.3696 73.9707 79.4214Z" fill="#4A4A51"/>
<path d="M71.4355 79.1113V79.577H71.7461V79.1631L71.4355 79.1113Z" fill="#4A4A51"/>
<path d="M74.9021 77.3022H68.8466C68.6396 77.3022 68.4326 77.3539 68.2773 77.509C68.1221 77.6123 67.9668 77.7673 67.8633 77.9741C67.6562 78.3358 67.5527 78.7492 67.5527 79.2143C67.5527 79.6794 67.6562 80.0928 67.8633 80.4546C67.9668 80.6613 68.1221 80.8163 68.2773 80.9197C68.4326 81.023 68.6396 81.1264 68.8466 81.1264H74.8503H75.0056C75.2126 81.1264 75.4196 81.0747 75.5749 80.9197C75.7302 80.8163 75.8854 80.6613 75.989 80.4546C76.196 80.0928 76.2995 79.6794 76.2995 79.2143C76.2995 78.7492 76.196 78.3358 75.989 77.9741C75.8854 77.7673 75.7302 77.6123 75.5749 77.509C75.3679 77.4056 75.2126 77.3022 75.0056 77.3022H74.9021ZM69.0537 79.6794H68.4843V78.9042L68.6396 78.8009V78.6459L68.4843 78.7492V78.5425L68.6396 78.4392V78.6459C68.7431 78.6459 68.8984 78.6459 68.9501 78.6459C69.0019 78.6459 69.0537 78.6459 69.0537 78.6975C69.1572 78.7492 69.2089 78.8526 69.2089 79.0076C69.2089 79.0593 69.2089 79.1626 69.1572 79.2143C69.2089 79.266 69.2089 79.3693 69.2089 79.421C69.2607 79.5761 69.1572 79.6794 69.0537 79.6794ZM69.5195 79.6794C69.416 79.6794 69.3642 79.5761 69.3642 79.4727V79.421C69.3642 79.3177 69.416 79.2143 69.5195 79.2143H69.9853V79.111H69.4677L69.416 78.9559H69.9853C70.0888 78.9559 70.1405 79.0593 70.1405 79.1626V79.7311L69.5195 79.6794ZM71.1757 79.6794H71.0204V79.111H70.8134V79.7311H70.6581V79.111H70.4511V79.7311H70.2958V78.9559H71.0721C71.1757 78.9559 71.2274 79.0593 71.2274 79.1626L71.1757 79.6794ZM71.952 79.4727C71.952 79.5761 71.9002 79.6794 71.7967 79.6794H71.4344H71.2792V78.6975H71.4344V78.9042H71.7967C71.9002 78.9042 71.952 79.0076 71.952 79.111V79.4727ZM72.7283 79.4727C72.7283 79.5761 72.6766 79.6794 72.5731 79.6794H72.2108C72.1073 79.6794 72.0555 79.5761 72.0555 79.4727V78.9042H72.2108V79.4727H72.5731V78.9042H72.7283V79.4727ZM73.1941 79.7311V78.7492H73.3494V79.5244H73.7117L73.7635 79.7311H73.1941ZM74.5398 79.7311H73.9705C73.867 79.7311 73.8152 79.6277 73.8152 79.5244V79.4727C73.8152 79.3693 73.867 79.266 73.9705 79.266H74.3845V79.1626H73.9187L73.867 79.0076H74.3845C74.488 79.0076 74.5398 79.111 74.5398 79.2143V79.7311ZM75.2644 79.1626V79.5244C75.2644 79.6277 75.2126 79.7311 75.1091 79.7311H74.7986H74.6433V78.7492H74.7986V78.9559H75.1609C75.2126 78.9559 75.2644 79.0593 75.2644 79.1626Z" fill="#4A4A51"/>
<path d="M74.7988 79.5253H75.1094V79.1113H74.7988V79.5253Z" fill="#4A4A51"/>
<path d="M69.5186 79.3696V79.5249H69.9326V79.3696H69.5186Z" fill="#4A4A51"/>
<path d="M69.001 79.1113C69.001 79.1113 69.001 79.0595 69.001 79.1113C69.0527 79.0595 69.1045 79.0595 69.1045 79.0078C69.1045 78.956 69.1045 78.9043 69.0527 78.9043C69.0527 78.9043 69.0527 78.9043 69.001 78.9043H68.8457H68.6904V79.163H68.8457L69.001 79.1113Z" fill="#4A4A51"/>
<path d="M75.8338 33.6348L15.9004 36.8905L15.8486 129.755L75.8338 133.734V133.579H75.7821C75.7821 133.579 75.7821 133.579 75.7303 133.579C75.6786 133.579 75.6268 133.528 75.6268 133.476C75.6268 133.424 75.6786 133.424 75.7303 133.373H75.7821V81.1782C75.7303 81.1782 75.6268 81.2298 75.5751 81.2298H74.8505H68.795C68.588 81.2298 68.3292 81.1782 68.1222 81.0231C67.9669 80.9198 67.7599 80.7131 67.6564 80.5063C67.4494 80.1446 67.2941 79.6795 67.2941 79.2144C67.2941 78.7493 67.3976 78.2842 67.6564 77.9225C67.8117 77.7158 67.9669 77.509 68.1222 77.4057C68.3292 77.2507 68.5362 77.199 68.795 77.199H74.7987H75.5233C75.5751 77.199 75.6786 77.199 75.7303 77.2507L75.8338 33.6348ZM20.0409 128.153C20.0409 128.308 20.0409 128.515 19.9374 128.67C19.8338 128.877 19.6786 128.98 19.4716 129.032C19.368 129.032 19.2645 128.98 19.161 128.928C19.0575 128.877 19.0057 128.773 18.954 128.67C18.8505 128.515 18.7987 128.308 18.7987 128.101C18.7987 127.895 18.8505 127.74 18.9022 127.585C19.0057 127.378 19.161 127.275 19.368 127.223C19.4716 127.223 19.5751 127.275 19.6786 127.326C19.7821 127.378 19.8338 127.481 19.8856 127.585C19.9891 127.74 20.0409 127.946 20.0409 128.153ZM20.0926 39.3193C19.9891 39.4743 19.9374 39.5777 19.7821 39.681C19.6268 39.7844 19.4716 39.8361 19.368 39.8361C19.368 39.8361 19.368 39.8361 19.3163 39.8361C19.2645 39.8361 19.2645 39.8361 19.2128 39.8361H19.1093C19.1093 39.8361 19.1093 39.8361 19.0575 39.8361C18.8505 39.8361 18.6435 39.7327 18.4882 39.5777C18.3329 39.4227 18.2294 39.2676 18.1777 39.0609C18.0741 38.6992 18.0741 38.2341 18.2294 37.8207C18.2812 37.6139 18.3847 37.4589 18.5399 37.3556C18.6952 37.2005 18.8505 37.0972 19.0575 37.0972H19.1093H19.368C19.5233 37.0972 19.6786 37.1488 19.7821 37.2522C19.8856 37.3556 19.9891 37.4589 20.0409 37.6139C20.1444 37.8723 20.2479 38.1824 20.1961 38.4925C20.2996 38.7508 20.1961 39.0609 20.0926 39.3193ZM24.3366 128.98C24.2331 129.187 24.0778 129.29 23.8708 129.342C23.7673 129.342 23.6638 129.29 23.5603 129.238C23.4568 129.187 23.405 129.083 23.3533 128.98C23.2497 128.825 23.198 128.618 23.198 128.36C23.198 128.205 23.198 127.998 23.3015 127.843C23.405 127.636 23.5603 127.533 23.7673 127.481C23.8708 127.481 23.9743 127.533 24.0778 127.585C24.1814 127.636 24.2331 127.74 24.2849 127.843C24.3884 127.998 24.4401 128.205 24.4401 128.463C24.4401 128.567 24.4401 128.773 24.3366 128.98ZM24.4919 39.0609C24.3884 39.2159 24.2849 39.3193 24.1813 39.4227C24.0261 39.526 23.8708 39.5777 23.7155 39.5777C23.7155 39.5777 23.7155 39.5777 23.6638 39.5777C23.612 39.5777 23.612 39.5777 23.5603 39.5777H23.4568C23.4568 39.5777 23.4568 39.5777 23.405 39.5777C23.198 39.5777 22.991 39.4743 22.8357 39.3193C22.6804 39.1643 22.5769 38.9576 22.5252 38.7508V38.6992C22.4216 38.3374 22.4216 37.8723 22.5769 37.5106C22.6287 37.3039 22.7322 37.1488 22.8874 37.0455C23.0427 36.8905 23.2497 36.7871 23.405 36.7871H23.4568H23.7155C23.8708 36.7871 24.0261 36.8388 24.1813 36.9421C24.2849 37.0455 24.3884 37.1488 24.4401 37.3039C24.5436 37.5623 24.6472 37.8723 24.6472 38.1824C24.6989 38.5441 24.6472 38.8542 24.4919 39.0609Z" fill="white" fill-opacity="0.4"/>
<path d="M69.001 79.2661H68.8974H68.8457H68.6387V79.5248H68.8457H69.001C69.0527 79.5248 69.1045 79.4731 69.1045 79.3696C69.1045 79.3179 69.1045 79.2661 69.0527 79.2661C69.0527 79.2661 69.0527 79.2661 69.001 79.2661Z" fill="#4A4A51"/>
<path d="M65.1719 19.9922L64.7061 20.0439V20.1992L65.1719 20.1474V19.9922Z" fill="#4A4A51"/>
<path d="M147.515 136.732L88.0472 141.848C87.2191 141.9 86.391 141.951 85.3041 142.003C84.3725 142.055 83.4927 142.055 82.5611 142.055C82.5093 142.055 82.4058 142.055 82.354 142.055C82.1988 142.055 82.0435 142.055 81.8882 142.055C81.6812 142.055 81.4224 142.055 81.2154 142.055C80.7496 142.055 80.2838 142.055 79.8698 142.003C79.4039 142.003 78.9381 141.951 78.5241 141.951C78.0583 141.951 77.5925 141.9 77.1784 141.848L76.1433 141.796H76.0916H76.0398H75.988C75.988 141.848 75.9363 141.848 75.8845 141.848L15.6923 137.3C15.6405 137.3 15.6405 137.249 15.6405 137.249C15.6405 137.249 15.6405 137.249 15.5888 137.249L14.7607 137.197C14.4502 137.197 14.1396 137.145 13.7773 137.094C13.6221 137.094 13.4668 137.042 13.3115 137.042L13.3633 138.075H13.415C13.4668 138.075 13.5703 138.127 13.6221 138.127C13.7773 138.179 13.9326 138.179 14.0879 138.179C14.3984 138.231 14.7089 138.231 15.0195 138.282L77.4372 143.14C77.8513 143.192 78.3171 143.192 78.7311 143.243C79.1452 143.243 79.611 143.295 80.025 143.295C80.4391 143.295 80.9049 143.295 81.3189 143.347C81.733 143.347 82.1988 143.347 82.6128 143.347C83.4409 143.347 84.3208 143.347 85.2006 143.295C85.6147 143.295 86.0805 143.243 86.4945 143.243C86.7015 143.243 86.9086 143.192 87.1156 143.192C87.3226 143.192 87.5814 143.14 87.7884 143.14L147.256 137.92C147.515 137.92 147.825 137.869 148.084 137.817C148.239 137.817 148.343 137.765 148.498 137.765C148.55 137.765 148.602 137.714 148.705 137.714C148.705 137.714 148.705 137.714 148.757 137.714L148.809 136.68C148.705 136.68 148.602 136.732 148.446 136.732C148.084 136.68 147.774 136.732 147.515 136.732Z" fill="#4A4A51"/>
<path d="M129.245 83.0903H128.21V84.4856H129.245L129.297 84.4339V83.142C129.245 83.142 129.245 83.0903 129.245 83.0903Z" fill="#4A4A51"/>
<path d="M148.292 21.0253C147.982 20.9737 147.723 20.9737 147.413 20.922L87.9967 15.8576C87.5309 15.8059 87.1168 15.8059 86.651 15.7542C86.444 15.7542 86.2369 15.7542 86.0299 15.7026C85.7711 15.7026 85.5641 15.7026 85.3053 15.6509C84.4255 15.7026 83.4939 15.6509 82.614 15.6509C82.407 15.6509 82.1482 15.6509 81.9412 15.6509C81.7342 15.6509 81.4754 15.6509 81.2684 15.6509C80.8026 15.6509 80.3885 15.6509 79.9227 15.7026C79.6639 15.7026 79.4569 15.7026 79.1981 15.7026C78.9911 15.7026 78.7841 15.7026 78.5771 15.7542C78.1113 15.7542 77.6972 15.8059 77.2314 15.8576L76.248 15.9093V33.3763V77.2506H76.2998C76.5068 77.3539 76.6621 77.5606 76.7656 77.7673C76.9726 78.1291 77.1279 78.5942 77.1279 79.111C77.1279 79.5761 77.0244 80.0928 76.7656 80.4546C76.6103 80.6613 76.4551 80.868 76.2998 80.9714H76.248V141.486V141.537L77.1797 141.589C77.6455 141.641 78.0595 141.641 78.5253 141.693C78.9911 141.693 79.4569 141.744 79.871 141.744C80.1297 141.744 80.3885 141.744 80.6473 141.744C80.6991 141.693 80.7508 141.693 80.7508 141.744C80.9061 141.744 81.0614 141.744 81.2166 141.744C81.4236 141.744 81.6824 141.744 81.8894 141.744C82.0965 141.744 82.3553 141.744 82.5623 141.744C83.4421 141.744 84.3737 141.744 85.3053 141.693C86.3405 141.641 87.1686 141.589 87.9967 141.537L147.464 136.421C147.723 136.421 148.034 136.37 148.344 136.318C148.499 136.318 148.603 136.266 148.758 136.266C148.758 136.163 148.862 136.06 148.965 136.06C149.017 136.06 149.017 136.06 149.069 136.06L149.017 21.0253C148.965 21.1804 148.758 21.077 148.292 21.0253ZM119.516 60.8171L124.019 60.9204V69.5506L119.568 66.8117L119.516 60.8171ZM118.843 60.7654V70.0674L114.34 72.7029V60.6621L118.843 60.7654ZM118.843 71.256V79.8861H114.34V73.8915L118.843 71.256ZM110.096 85.2089H108.337V82.7284L108.803 82.47V81.9015L108.337 82.1599V81.4881L108.803 81.2297V81.9015C109.165 81.9015 109.682 81.9015 109.786 81.9015H109.838C109.993 81.9015 110.096 81.9532 110.2 82.0049C110.459 82.1599 110.614 82.5217 110.614 82.9351C110.614 83.1418 110.562 83.3485 110.459 83.5552C110.614 83.7103 110.666 83.9687 110.666 84.2787C110.769 84.7955 110.459 85.2089 110.096 85.2089ZM111.597 85.2089C111.339 85.2089 111.132 84.8988 111.132 84.4854V84.2787C111.132 83.8653 111.339 83.5552 111.597 83.5552H112.995V83.2452C112.995 83.1935 112.995 83.1935 112.943 83.1935H111.39L111.235 82.625H112.943C113.202 82.625 113.409 82.9351 113.409 83.3485V85.2089H111.597ZM116.721 85.1572H116.255V83.2452C116.255 83.1935 116.255 83.1935 116.204 83.1935H115.583C115.531 83.1935 115.531 83.2452 115.531 83.2452V85.1572H115.065V83.2452C115.065 83.1935 115.065 83.1935 115.013 83.1935H114.392C114.34 83.1935 114.34 83.2452 114.34 83.2452V85.1572H113.875V82.5734H116.255C116.514 82.5734 116.721 82.8834 116.721 83.2968V85.1572ZM119.154 84.4338C119.154 84.8472 118.947 85.1572 118.688 85.1572H117.601H117.135V81.9532H117.601V82.5734H118.688C118.947 82.5734 119.154 82.8834 119.154 83.2968V84.4338ZM119.516 67.9486L123.967 70.6875V79.8861H119.516V67.9486ZM121.586 84.4338C121.586 84.7955 121.379 85.1572 121.12 85.1572H119.982C119.723 85.1572 119.516 84.8472 119.516 84.4338V82.5734H119.982V84.4854C119.982 84.5371 119.982 84.5371 120.034 84.5371H121.172L121.224 84.4854V82.5734H121.638L121.586 84.4338ZM123.139 85.1056V81.9532H123.605V84.5371H124.692L124.847 85.1572L123.139 85.1056ZM127.331 85.1056H125.572C125.313 85.1056 125.106 84.7955 125.106 84.4338V84.227C125.106 83.8653 125.313 83.5036 125.572 83.5036H126.917V83.1935C126.917 83.1418 126.917 83.1418 126.865 83.1418H125.364L125.209 82.5734H126.865C127.124 82.5734 127.331 82.8834 127.331 83.2452V85.1056ZM129.712 84.3821C129.712 84.7438 129.505 85.0539 129.246 85.0539H128.159H127.693V81.9015H128.159V82.5217H129.246C129.505 82.5217 129.712 82.8317 129.712 83.1935V84.3821Z" fill="#4A4A51"/>
<path d="M109.939 83.814H109.681H109.525H108.801V84.6925H109.474H109.888C110.043 84.6925 110.198 84.4858 110.198 84.2791C110.198 84.124 110.146 84.0207 110.095 83.9173C110.095 83.8656 110.043 83.814 109.939 83.814Z" fill="#4A4A51"/>
<path d="M82.5633 143.657C82.5116 143.657 82.4081 143.657 82.3563 143.657C81.994 143.657 81.6317 143.657 81.2694 143.657C80.8554 143.657 80.3896 143.657 79.9755 143.605C79.5615 143.605 79.0957 143.553 78.6816 143.553C78.6299 143.553 78.6299 143.553 78.5781 143.553V143.967C78.5781 143.967 78.5781 143.967 78.6299 143.967C78.6816 143.967 78.7334 144.019 78.7851 144.019C78.8369 144.019 78.9404 144.071 78.9922 144.071C79.0957 144.071 79.1992 144.122 79.3027 144.122C79.5615 144.174 79.8203 144.174 80.1826 144.174C80.7001 144.226 81.2694 144.226 81.9423 144.226C83.2362 144.226 84.5301 144.226 85.4099 144.122C85.6169 144.122 85.824 144.071 86.031 144.071C86.1345 144.071 86.238 144.019 86.3415 144.019C86.3933 144.019 86.445 143.967 86.445 143.967C86.445 143.967 86.445 143.967 86.4968 143.967V143.553C86.0828 143.553 85.6687 143.605 85.2547 143.605C84.323 143.657 83.4432 143.657 82.5633 143.657Z" fill="#4A4A51"/>
<path d="M109.888 83.2453C109.939 83.2453 109.939 83.2453 109.991 83.1936C110.043 83.1419 110.146 83.0386 110.146 82.9352C110.146 82.8836 110.146 82.8319 110.146 82.8319C110.146 82.6768 110.095 82.5218 109.991 82.4701C109.939 82.4701 109.939 82.4185 109.888 82.4185H109.422H108.853V83.1936H109.37L109.888 83.2453Z" fill="#4A4A51"/>
<path d="M125.519 84.124V84.4862C125.519 84.5379 125.519 84.5379 125.57 84.5379H126.916V84.0205H125.57C125.519 84.0722 125.519 84.0722 125.519 84.124Z" fill="#4A4A51"/>
<path d="M118.636 83.1938H117.601V84.6408H118.636L118.687 84.5892V83.2972C118.687 83.1938 118.636 83.1938 118.636 83.1938Z" fill="#4A4A51"/>
<path d="M147.205 138.282L141.305 138.8C141.408 138.8 141.512 138.8 141.615 138.8C142.081 138.851 142.65 138.851 143.22 138.851C143.685 138.851 145.29 138.851 146.429 138.748C146.584 138.748 146.739 138.696 146.894 138.696C146.998 138.696 147.05 138.644 147.101 138.644C147.101 138.644 147.153 138.644 147.205 138.593V138.282Z" fill="#4A4A51"/>
<path d="M34.8955 27.692C34.9473 27.692 34.9473 27.6403 34.9473 27.5886L35.6718 24.8497C35.6718 24.798 35.6719 24.6947 35.6201 24.643C35.6201 24.5913 35.5683 24.5913 35.5683 24.5913C35.5166 24.5913 35.5166 24.5913 35.5166 24.643C35.5166 24.643 35.5166 24.6947 35.4648 24.6947L34.7402 27.4336C34.7402 27.4853 34.7402 27.5886 34.792 27.692C34.8437 27.692 34.8955 27.7436 34.8955 27.692Z" fill="#4A4A51"/>
<path d="M11.1904 32.1877C11.2939 32.2394 11.4492 32.2911 11.6045 32.2911C11.7597 32.2911 11.915 32.2911 12.0703 32.2911H12.122L31.22 31.1542H31.2717C31.5305 31.1542 31.8411 31.1025 32.0998 30.9991C32.2551 30.9474 32.3586 30.8441 32.5139 30.7407C32.6174 30.6374 32.7209 30.534 32.8244 30.379C32.9797 30.1723 33.135 29.8622 33.2902 29.5522C33.3937 29.2421 33.4973 28.932 33.549 28.622L37.379 14.1006C37.4825 13.7388 37.586 13.3254 37.6377 12.9636C37.6377 12.7569 37.6377 12.5502 37.586 12.3952C37.5342 12.2918 37.5342 12.2402 37.4825 12.1368C37.4307 12.0851 37.379 12.0335 37.2754 11.9818C37.1719 11.9301 37.0167 11.8784 36.8096 11.8784C36.6544 11.8784 36.4991 11.8784 36.2921 11.8784L17.1424 13.4804C16.7801 13.5321 16.5213 13.5321 16.2625 13.6871C16.1072 13.7388 16.0037 13.8422 15.9002 13.9455C15.7967 13.9972 15.6932 14.1006 15.5897 14.2556C15.4862 14.3589 15.4344 14.514 15.3309 14.6173C15.2791 14.7207 15.2274 14.8757 15.1239 15.0308C15.0204 15.3408 14.9686 15.6509 14.8651 15.9609L11.0351 30.0689C10.9316 30.4307 10.8281 30.8441 10.7764 31.2058C10.7764 31.4125 10.7764 31.6193 10.8281 31.7743C10.8799 31.8776 10.8799 31.9293 10.9316 32.0327C11.0351 32.0844 11.0869 32.136 11.1904 32.1877ZM12.0703 30.4824L12.4843 29.0871L15.8485 16.6328L16.3143 14.8757C16.366 14.6173 16.6248 14.4623 16.8836 14.4106L18.0222 14.3073L34.8429 12.912L35.671 12.8603C35.878 12.8603 36.0851 12.912 36.1886 13.067C36.2921 13.222 36.3438 13.4287 36.2921 13.6355L35.9298 15.0824L32.5656 27.8985L32.0998 29.7072C32.0481 29.9656 31.7893 30.1723 31.5305 30.1723L30.3401 30.224L13.5194 31.2575L12.7431 31.3092C12.7431 31.3092 12.7431 31.3092 12.6913 31.3092C12.4843 31.3092 12.329 31.2058 12.2255 31.1025C12.0703 30.8958 12.0185 30.6891 12.0703 30.4824Z" fill="#4A4A51"/>
<path d="M13.7783 136.887C14.0888 136.938 14.4511 136.938 14.7617 136.99L15.4345 137.042L15.4862 33.3765L13.623 33.4798C13.5195 33.4798 13.416 33.4798 13.3125 33.4798C13.209 33.4798 13.1572 33.4798 13.0537 33.4798L12.9502 136.628C13.002 136.628 13.002 136.628 13.0537 136.628C13.1572 136.628 13.2607 136.732 13.2607 136.835C13.416 136.835 13.5713 136.887 13.7783 136.887Z" fill="#4A4A51"/>
<path d="M14.9678 138.695C14.916 138.695 14.8643 138.695 14.7607 138.695V139.058C14.7607 139.058 14.7607 139.109 14.8125 139.109C14.8643 139.109 14.916 139.161 14.916 139.161C14.9678 139.161 15.0713 139.213 15.123 139.213C15.2265 139.213 15.3301 139.213 15.3818 139.264C15.5888 139.264 15.8476 139.316 16.1582 139.316C16.624 139.316 17.1415 139.368 17.7108 139.368C17.9696 139.368 18.2284 139.368 18.5389 139.368C18.5907 139.368 18.5907 139.368 18.6424 139.368C18.8495 139.368 19.1082 139.368 19.3153 139.368C19.367 139.368 19.4188 139.368 19.4705 139.368C19.6776 139.368 19.9363 139.368 20.1434 139.368C20.1951 139.368 20.1951 139.368 20.2469 139.368C20.4539 139.368 20.6092 139.368 20.8162 139.316H20.868C20.9197 139.316 21.0232 139.316 21.075 139.316L14.9678 138.695Z" fill="#4A4A51"/>
<path d="M13.5712 33.2731L15.4344 33.1698C15.4862 33.0664 15.5379 33.0147 15.6414 33.0147C15.7449 33.0147 15.7967 33.0664 15.8485 33.1181L32.7209 32.1879C32.8762 32.1879 33.0832 32.1879 33.2385 32.1362C33.3937 32.0845 33.549 32.0845 33.7043 31.9812C33.8596 31.9295 34.0148 31.8261 34.1183 31.7228C34.2218 31.6194 34.3771 31.5161 34.4806 31.361C34.6876 31.1027 34.8429 30.8443 34.9464 30.4825C35.0499 30.1725 35.1535 29.8107 35.257 29.5006L38.1035 18.7517L38.2071 18.39L39.0869 14.9792C39.1904 14.5658 39.2939 14.1524 39.3457 13.739C39.3457 13.4806 39.3457 13.3256 39.2939 13.1188C39.2422 12.9638 39.1387 12.8088 38.9316 12.6537L37.379 11.7752C37.2754 11.7236 37.0684 11.6719 36.9132 11.6719C36.9132 11.6719 36.9132 11.6719 36.8614 11.6719C37.0684 11.6719 37.2237 11.7236 37.3272 11.7752C37.4307 11.8269 37.4825 11.8786 37.586 11.9819C37.6377 12.0853 37.6895 12.1887 37.7413 12.292C37.793 12.447 37.793 12.6537 37.793 12.9121C37.7413 13.2739 37.6377 13.6873 37.5342 14.049L33.7043 28.5705C33.6008 28.8805 33.549 29.1906 33.4455 29.5006C33.2902 29.8624 33.135 30.1208 32.9797 30.3792C32.8762 30.5342 32.7727 30.6376 32.6174 30.7409C32.4621 30.8443 32.3586 30.9476 32.2034 30.9993C31.9446 31.1027 31.6858 31.1543 31.427 31.1543H31.3235H31.2718C31.2718 31.1543 31.2718 31.1543 31.22 31.1543L12.0185 32.4463C11.915 32.4463 11.8115 32.4463 11.6562 32.4463C11.6045 32.4463 11.5527 32.4463 11.5527 32.4463C11.3457 32.4463 11.1904 32.3946 11.0869 32.3429C11.0352 32.2912 10.9316 32.2396 10.8799 32.1879C10.9316 32.2912 11.0352 32.3429 11.0869 32.3946L12.6396 33.1698C12.6913 33.1181 12.7431 33.1181 12.7949 33.1181C12.8984 33.1181 13.0019 33.1698 13.0019 33.2731C13.2089 33.3248 13.4159 33.3248 13.5712 33.2731ZM34.6359 27.3819L35.3605 24.643C35.3605 24.5913 35.4122 24.5396 35.4122 24.5396C35.464 24.4879 35.5157 24.4362 35.6193 24.4362C35.671 24.4362 35.7745 24.4879 35.8263 24.5396C35.9298 24.643 35.9298 24.798 35.9298 24.9013L35.2052 27.6403C35.1535 27.7436 35.1017 27.7953 35.0499 27.847C34.9982 27.847 34.9982 27.847 34.9464 27.847C34.8947 27.847 34.7912 27.7953 34.7394 27.7436C34.6359 27.6919 34.5841 27.5369 34.6359 27.3819Z" fill="#4A4A51"/>
<path d="M111.598 84.1758C111.546 84.1758 111.546 84.2275 111.546 84.2275V84.5897C111.546 84.6414 111.546 84.6414 111.598 84.6414H112.943V84.124L111.598 84.1758Z" fill="#4A4A51"/>
</svg>
