<svg width="16" height="16" viewBox="0 0 16 16" fill="none" xmlns="http://www.w3.org/2000/svg">
<path d="M8.49031 2.42996C6.78031 0.719961 4.00031 0.719961 2.29031 2.42996C0.580312 4.13996 0.580312 6.91996 2.29031 8.62996C3.88031 10.22 6.39031 10.33 8.11031 8.96996L9.59031 10.45C9.59031 10.45 9.23031 10.81 9.59031 11.18C9.95031 11.55 13.2403 14.83 13.2403 14.83C13.2403 14.83 13.6003 15.19 13.9703 14.83C14.3303 14.47 14.7003 14.1 14.7003 14.1C14.7003 14.1 15.0603 13.74 14.7003 13.37C14.3403 13 11.0503 9.71996 11.0503 9.71996C10.6903 9.35996 10.3203 9.71996 10.3203 9.71996L8.83031 8.24996C10.1903 6.51996 10.0803 4.01996 8.49031 2.42996ZM8.10031 8.24996C6.60031 9.74996 4.17031 9.74996 2.67031 8.24996C1.17031 6.74996 1.17031 4.31996 2.67031 2.81996C4.17031 1.31996 6.60031 1.31996 8.10031 2.81996C9.60031 4.31996 9.60031 6.74996 8.10031 8.24996Z" fill="#eb4949"/>
</svg>
