<svg width="12" height="12" viewBox="0 0 12 12" fill="none" xmlns="http://www.w3.org/2000/svg">
<path fill-rule="evenodd" clip-rule="evenodd" d="M6 9.5C7.933 9.5 9.5 7.933 9.5 6C9.5 4.067 7.933 2.5 6 2.5C4.067 2.5 2.5 4.067 2.5 6C2.5 7.933 4.067 9.5 6 9.5ZM6 11C8.76142 11 11 8.76142 11 6C11 3.23858 8.76142 1 6 1C3.23858 1 1 3.23858 1 6C1 8.76142 3.23858 11 6 11Z" fill="#FF6F00"/>
<path fill-rule="evenodd" clip-rule="evenodd" d="M3.21094 6C3.21094 5.58579 3.54672 5.25 3.96094 5.25H8.03685C8.45106 5.25 8.78685 5.58579 8.78685 6C8.78685 6.41421 8.45106 6.75 8.03685 6.75H3.96094C3.54672 6.75 3.21094 6.41421 3.21094 6Z" fill="#FF6F00"/>
</svg>
