<svg width="100" height="96" xmlns="http://www.w3.org/2000/svg" fill="none">
 <defs>
  <clipPath id="clip0_5172_27639">
   <rect id="svg_1" fill="white" height="95.8333" width="100"/>
  </clipPath>
 </defs>
 <g>
  <title>Layer 1</title>
  <g id="svg_2" clip-path="url(#clip0_5172_27639)">
   <path id="svg_3" fill="#545454" d="m39.8888,6.87455c-0.037,0 -0.037,0 -0.0739,0l-0.037,0c-0.037,0 -0.0739,0 -0.0739,0c-0.074,0 -0.111,0 -0.1849,0c0,-0.03696 0,-0.07392 0,-0.11088c-0.037,0 -0.0739,0 -0.1109,0c0,0.22175 0,0.4435 0,0.66526c0.1109,0 0.2588,-0.00001 0.3697,-0.03696c0.037,0 0.037,0 0.0739,0l0.037,0c0,0 0,0 0.037,0c0.0369,0 0.0369,0 0.0369,-0.03696c0.037,-0.03696 0.037,-0.07392 0.037,-0.14784l0,-0.03695c0,-0.07392 0,-0.11088 0,-0.1848c0,-0.03696 0,-0.07391 -0.037,-0.11087c0,0.03696 -0.0369,0 -0.0739,0zm-0.037,0.40654l-0.3327,0.03696l0,-0.25871l0.3327,-0.03696l0,0.25871z"/>
   <path id="svg_4" fill="#545454" d="m38.8914,6.50405c0,-0.03696 0,-0.07392 0,-0.11088c0,-0.03696 0,-0.07391 -0.0369,-0.07391c0,-0.03696 0,-0.07392 0,-0.11088l0,-0.03696c0,-0.03696 0,-0.03696 -0.037,-0.07391l-0.037,-0.03696c0,0 0,0 -0.0369,0c0,0 -0.4806,0.03696 -0.6655,0.03696c0,0.22175 0,0.4435 0,0.66525c0.2588,0 0.5176,-0.03696 0.7764,-0.03696c0.0369,-0.11088 0.0369,-0.14783 0.0369,-0.22175zm-0.6654,-0.29567c0.1109,0 0.2218,0 0.3327,-0.03696c0.037,0 0.037,0 0.074,0l0.0369,0l0.037,0c0,0 0,0 0,0.03696c0,0 0,0 0,0.03696c0,0 0,0 0,0.03696c0,0.03696 0,0.03696 0,0.07392c-0.1479,0 -0.3327,0.03695 -0.4806,0.03695c0,-0.07391 0,-0.14783 0,-0.18479zm0.5176,0.29567c0,0.03696 0,0.03696 0,0.07392c-0.1849,0 -0.3328,0.03695 -0.5176,0.03695c0,-0.03695 0,-0.11087 0,-0.14783c0.1109,0 0.2218,0 0.3327,-0.03696c0.037,0 0.1109,0 0.1479,0c0.037,0.03696 0.037,0.03696 0.037,0.07392c0,-0.03696 0,0 0,0z"/>
   <path id="svg_5" fill="#545454" d="m40.7756,6.57736c0.037,0 0.037,0 0.074,0c0.037,0 0.037,0 0.037,-0.03696c0.0369,-0.03696 0.0369,-0.07391 0.0369,-0.14783l0,-0.03696c0,-0.07392 0,-0.11087 0,-0.18479c0,-0.03696 0,-0.07392 -0.0369,-0.11088c0,-0.03696 -0.037,-0.03696 -0.074,-0.03696l-0.037,0c0,0 0,0 -0.0369,0l-0.037,0c-0.037,0 -0.0739,0 -0.0739,0c-0.074,0 -0.1109,0 -0.1849,0c0,-0.03695 0,-0.07391 0,-0.11087c-0.0369,0 -0.0739,0 -0.1109,0c0,0.22175 0,0.4435 0,0.66525c0.1109,0 0.2588,0 0.3697,-0.03696c0.037,0.03696 0.037,0.03696 0.0739,0.03696zm-0.3327,-0.40654l0.3327,-0.03696l0,0.25871l-0.3327,0.03696l0,-0.25871z"/>
   <path id="svg_6" fill="#545454" d="m10.0922,8.86889l0.0369,0.03695l0.037,0l1.6636,-1.55225c0.037,-0.03696 0.037,-0.07392 0,-0.07392c-0.037,-0.03696 -0.0739,-0.03696 -0.0739,0l-1.6636,1.55226c-0.037,0 -0.037,0.03696 0,0.03696z"/>
   <path id="svg_7" fill="#545454" d="m7.7268,9.09166l0.03697,0l3.43803,-3.40018c0.037,-0.03696 0.037,-0.07392 0,-0.07392c-0.0369,-0.03696 -0.0739,-0.03696 -0.0739,0l-3.43806,3.40018c-0.03697,0.03696 -0.03697,0.07392 0,0.07392c0,-0.03696 0.03696,0 0.03696,0z"/>
   <path id="svg_8" fill="#545454" d="m1.92102,14.487c0.03697,0 0.03697,0 0,0c0.03697,0 0.03697,0 0,0c0.03697,0 0.03697,0 0,0l0.59149,-0.037l12.01479,-0.7391l0.8503,-0.037c0.1848,0 0.3697,-0.1478 0.4066,-0.3326l0.3328,-1.2936l2.4029,-9.16567l0.2588,-1.03484c0.037,-0.14783 0,-0.29566 -0.0739,-0.40654c-0.074,-0.11087 -0.2219,-0.18479 -0.3697,-0.14783l-0.5915,0.03696l-12.05179,1.07179l-0.81331,0.07392c-0.18484,0 -0.33271,0.14783 -0.40665,0.33262l-0.33272,1.25659l-2.36599,8.87l-0.29575,0.9979c-0.03696,0.1479 0,0.2957 0.07394,0.4066c0.11091,0.0739 0.22181,0.1478 0.36969,0.1478zm-0.29575,-0.5174l0.25878,-0.9979l2.40296,-8.907l0.33271,-1.25659c0.03697,-0.11087 0.14788,-0.22175 0.29575,-0.22175l0.81331,-0.07391l12.01482,-0.99788l0.5915,-0.03696c0.1109,0 0.2218,0.03696 0.2587,0.11088c0.074,0.07391 0.074,0.18479 0.074,0.29566l-0.2588,1.03484l-2.403,9.16571l-0.3696,1.2196c-0.037,0.1479 -0.1479,0.2218 -0.2958,0.2218l-0.8503,0.0369l-12.01475,0.7392l-0.55453,0.037c-0.11091,0 -0.18485,-0.037 -0.25878,-0.1109c-0.07394,-0.0739 -0.07394,-0.1848 -0.03697,-0.2587z"/>
   <path id="svg_9" fill="#545454" d="m99.5929,7.1695c0,-0.03696 -0.0369,-0.03696 -0.0369,-0.07392l-0.037,-0.03695c-0.037,-0.03696 -0.1109,-0.11088 -0.7024,-0.1848c-0.2218,-0.03695 -0.4067,-0.03696 -0.6285,-0.07391l-42.4399,-3.62193c-0.3327,-0.03696 -0.6654,-0.03696 -0.9612,-0.07392c-0.1479,0 -0.2957,0 -0.4806,-0.03696c-0.1848,0 -0.3327,0 -0.5175,-0.03696c-0.6285,-0.03696 -1.2939,-0.03696 -1.9594,-0.03696c-0.1478,0 -0.3327,0 -0.4806,0c-0.1478,0 -0.3327,0 -0.4805,0c-0.3328,0 -0.6655,0 -0.9612,0.03696c-0.1849,0 -0.3328,0 -0.5176,0c-0.1479,0 -0.2957,0 -0.4806,0.03696c-0.3327,0 -0.6654,0.03696 -0.9612,0.07392l-0.7024,0.03696c-0.0369,0 -0.0369,0 -0.0739,0.03695c-0.037,0 -0.037,-0.03695 -0.0739,0l-14.7135,1.10876l0,-0.59134c0,0 0,-0.03696 -0.037,-0.07391l-0.037,-0.03696c-0.0369,-0.03696 -0.1109,-0.07392 -0.4436,-0.11088c-0.1109,0 -0.2588,-0.03696 -0.4436,-0.03696c-0.8873,-0.07391 -1.9594,-0.07391 -2.403,-0.07391c-0.4436,0 -0.8503,0 -1.183,0.03695c-0.2218,0 -0.4066,0.03696 -0.5915,0.03696c-0.0739,0 -0.1478,0 -0.2218,0.03696c-0.0739,0 -0.1109,0 -0.1848,0.03696c-0.037,0 -0.074,0 -0.1109,0.03696c0,0 -0.037,0 -0.037,0.03696c0,0 -0.037,0 -0.037,0.03696l-0.0369,0.03695c-0.037,0.03696 -0.037,0.03696 -0.037,0.07392l0,0.55438c0,0 0,0.03696 0.037,0.03696l0.0369,0.03695c0.037,0 0.074,0.03696 0.074,0.03696c0.0369,0 0.0739,0.03696 0.1109,0.03696c0.0739,0 0.1479,0.03696 0.2218,0.03696c0.1109,0 0.2588,0.03696 0.4066,0.03696l0,0.22175l-7.1349,0.55438l0.6285,-2.36535c0,-0.40654 0.1109,-0.70221 0.1109,-0.99787c0,-0.1848 0,-0.33263 -0.037,-0.48046c-0.0739,-0.1848 -0.1479,-0.29567 -0.2957,-0.36959l-1.1091,-0.62829c-0.1479,-0.07392 -0.2588,-0.11088 -0.4436,-0.11088c-0.1479,0 -0.2588,0 -0.4067,0l-13.64137,1.18267c-0.25878,0.03696 -0.48059,0.03696 -0.73937,0.14784c-0.11091,0.03695 -0.22182,0.11087 -0.33272,0.22175c-0.07394,0.07391 -0.18484,0.18479 -0.25878,0.25871c-0.14788,0.18479 -0.25878,0.36958 -0.36969,0.62829c-0.03697,0.25871 -0.07393,0.48046 -0.14787,0.70221l-0.85028,3.14147c-0.36968,0.07392 -0.48059,0.11088 -0.51756,0.14784c0,0 -0.03697,0.03696 -0.03697,0.07391c0,0.03696 0,0.03696 0,0.07392l0,1.88488l-1.2939,4.80457c-0.07393,0.2587 -0.18484,0.6283 -0.18484,0.924c0,0.1848 0,0.3326 0.03697,0.4805c0.03697,0.0739 0.07394,0.1478 0.1109,0.2217c0.03697,0.0739 0.11091,0.1109 0.18485,0.1478l1.10905,0.5914l-0.03696,73.9169c0,0.074 0.07393,0.1479 0.14787,0.1479c0.03697,0 0.03697,0 0.07394,0l0.03697,0.887c0,0.0369 0,0.0739 0.03696,0.1109c0,0 0.03697,0.0369 0.07394,0.0369c0.03697,0 0.03697,0.037 0.07394,0.037c0.03697,0 0.03697,0 0.07394,0.0369c0.07393,0 0.1109,0.037 0.18484,0.037c0.1109,0.037 0.22181,0.0369 0.33272,0.0369c0.14787,0 0.29574,0.037 0.44362,0.037l0,0.2587l0,0.037c0,0.0369 0,0.0369 0.03697,0.0739c0.03697,0.037 0.03697,0.037 0.03697,0.037c0.03696,0 0.07393,0.0369 0.1109,0.0369c0.03697,0 0.11091,0.037 0.14788,0.037c0.07393,0 0.14787,0 0.18484,0.0369c0.14787,0 0.33272,0.037 0.55453,0.037c0.33271,0 0.7024,0.0369 1.10905,0.0369c0.07394,0 0.14788,0 0.22182,0c0.07393,0 0.1109,0 0.18484,0c0.07394,0 0.18484,0 0.29575,0c0.07393,0 0.1109,0 0.18484,0c0.11091,0 0.25878,0 0.36969,0c0.03696,0 0.07393,0 0.14787,0c0.11091,0 0.25878,0 0.36969,0c0.03696,0 0.07393,0 0.1109,0c0.11091,0 0.22181,0 0.33272,-0.0369l0.03697,0c0.1109,0 0.29575,-0.037 0.48059,-0.037c0.07394,0 0.14787,-0.0369 0.22181,-0.0369c0,0 0,0 0.03697,0l39.6303,3.0675c0.2588,0.037 0.4806,0.037 0.7394,0.037l0,0.2956c0,0.037 0,0.074 0.0369,0.074c0,0 0.037,0.0369 0.074,0.0369c0.0369,0.037 0.0739,0.037 0.1109,0.037c0.0739,0 0.1109,0.0369 0.1848,0.0369c0.074,0 0.1479,0.037 0.2218,0.037c0.1849,0.037 0.3697,0.037 0.6285,0.037c0.3697,0.0369 0.8133,0.0369 1.2569,0.0369c0.1109,0 0.2588,0 0.3697,0c0.7764,0 1.5527,-0.0369 2.1072,-0.0739c0.1479,0 0.2958,-0.037 0.4437,-0.037c0.0739,0 0.1478,-0.0369 0.2218,-0.0369c0.0369,0 0.0739,-0.037 0.1109,-0.037l0.0369,-0.0369c0.037,-0.037 0.037,-0.074 0.037,-0.1109l0,-0.2957c0.1109,0 0.2588,0 0.3697,-0.0369c0.1479,0 0.3327,-0.037 0.4806,-0.037l37.5601,-3.2893c0.0369,0 0.0739,0 0.0739,0c0.0739,0 0.1479,0 0.1848,0.037c0.1849,0 0.3328,0.0369 0.5915,0.0369c0.3328,0.037 0.7394,0.037 1.1461,0.037c0.0739,0 0.2587,0 0.4436,0c0.5175,0 1.2569,0 1.8854,-0.0739c0.1109,0 0.2218,-0.037 0.3327,-0.037c0.0739,0 0.1109,-0.037 0.1848,-0.037c0.037,0 0.074,-0.0369 0.1109,-0.0369c0.037,-0.037 0.074,-0.0739 0.074,-0.1109l0,-0.2587c0.1848,0 0.3697,-0.037 0.5175,-0.0739c0.1109,0 0.2219,-0.037 0.2958,-0.037c0.037,0 0.1109,-0.0369 0.1479,-0.0369c0.0369,0 0.0369,0 0.0739,-0.037c0.037,0 0.037,0 0.0739,-0.037c0,0 0.037,-0.0369 0.074,-0.0369l0.0369,-0.037l0,-0.0369l0.037,-0.887c0.037,0 0.037,0 0.074,0c0.0739,0 0.1478,-0.0739 0.1478,-0.1479l-0.0369,-82.38042c0.0739,-0.07392 0.0739,-0.11088 0.0369,-0.11088zm-52.4214,40.3956c0.037,0 0.0739,0 0.0739,-0.0369c0,0 0,0 0.037,0c0.1109,0.0739 0.2218,0.1848 0.2957,0.3326c0.1479,0.2587 0.2219,0.5544 0.2219,0.887c0,0.3326 -0.074,0.6283 -0.2219,0.887c-0.0739,0.1478 -0.1848,0.2587 -0.2957,0.3326c0,0 0,0 -0.037,0c-0.0369,-0.0369 -0.0739,-0.0369 -0.0739,-0.0369c-0.0739,0 -0.1479,0.0739 -0.1479,0.1478c-0.037,0 -0.0739,0.037 -0.1479,0.037c0.037,0 0.037,-0.037 0.074,-0.037c0.1479,-0.0739 0.2588,-0.2218 0.3327,-0.3696c0.1479,-0.2587 0.2588,-0.5913 0.2588,-0.9609c0,-0.3326 -0.074,-0.7022 -0.2588,-0.9609c-0.1109,-0.1479 -0.2218,-0.2957 -0.3327,-0.3696c0,0 -0.037,0 -0.037,-0.037c0.037,0 0.0739,0 0.1109,0c0,0.1109 0.074,0.1848 0.1479,0.1848zm-0.2958,-0.2956l-0.5545,0l-4.2883,0c-0.1479,0 -0.3328,0.0369 -0.4806,0.1478c-0.1109,0.0739 -0.2588,0.2217 -0.3327,0.3696c-0.1479,0.2587 -0.2588,0.5913 -0.2588,0.9239c0,0.3327 0.0739,0.6653 0.2588,0.924c0.0739,0.1478 0.2218,0.2957 0.3327,0.3696c0.1478,0.1109 0.2957,0.1478 0.4806,0.1478l4.3253,0l0.5175,0c0.037,0 0.1109,0 0.1479,-0.0369l0,37.328l-0.037,0c-0.0369,0 -0.0739,0.037 -0.0739,0.0739c0,0.037 0.037,0.074 0.0739,0.074c0,0 0,0 0.037,0l0.037,0l0,0.1108l-42.84659,-2.8458l0.03697,-66.4144l42.80962,-2.3283l0,31.119c-0.1109,0.0739 -0.1479,0.037 -0.1849,0.037zm0.037,0.2587c0.1109,0.0739 0.2218,0.1848 0.2958,0.3326c0.1478,0.2587 0.2218,0.5544 0.2218,0.887c0,0.3326 -0.074,0.6283 -0.2218,0.887c-0.074,0.1478 -0.1849,0.2587 -0.2958,0.3326c-0.1479,0.0739 -0.2588,0.1479 -0.4066,0.1479l-0.1109,0l-4.2884,0c-0.1479,0 -0.2957,-0.037 -0.4067,-0.1479c-0.1109,-0.0739 -0.2218,-0.1848 -0.2957,-0.3326c-0.1479,-0.2587 -0.2218,-0.5544 -0.2218,-0.887c0,-0.3326 0.0739,-0.6283 0.2218,-0.887c0.0739,-0.1478 0.1848,-0.2587 0.2957,-0.3326c0.111,-0.0739 0.2588,-0.1479 0.4067,-0.1479l4.3253,0l0.1109,0c0.074,0.037 0.2218,0.074 0.3697,0.1479zm0.1109,40.5434l0,5.322c0,0.037 0,0.037 0,0.074l-42.88352,-3.2524c0,-0.0369 0.03696,-0.0369 0.03696,-0.0739l0,-4.8785l42.84656,2.8088zm-20.3697,-83.93269l0,-0.40655l0.037,-0.03696l0.037,0c0.0369,0 0.0739,-0.03695 0.1109,-0.03695c0.0739,0 0.1109,-0.03696 0.1848,-0.03696c0.074,0 0.1479,-0.03696 0.2218,-0.03696c0.1849,0 0.3697,-0.03696 0.5915,-0.03696c0.3697,0 0.7394,-0.03696 1.183,-0.03696c0.4067,0 1.4788,0 2.366,0.07392c0.1849,0 0.2958,0.03696 0.4436,0.03696c0.3328,0.03696 0.3697,0.07391 0.3697,0.07391l0.037,0.03696l0,0.59134l-0.7394,0.07391l0,-0.29566c0,0 0,0 -0.0369,0c-0.6285,-0.03696 -1.5527,-0.07392 -2.44,-0.07392c-0.4436,0 -0.8503,0 -1.2199,0.03696c-0.2219,0 -0.4437,0.03696 -0.5915,0.03696c-0.074,0 -0.1849,0 -0.2588,0.03696c-0.074,0 -0.1109,0.03695 -0.1849,0.03695c-0.0369,-0.03695 -0.0739,-0.03695 -0.1109,-0.03695zm0.3697,0.14783c-0.0739,0 -0.1479,-0.03696 -0.2218,-0.03696c-0.037,0 -0.0739,0 -0.1109,-0.03696l0.037,0c0.0739,0 0.1109,-0.03696 0.1848,-0.03696c0.074,0 0.1849,-0.03695 0.2588,-0.03695c0.1848,0 0.3697,-0.03696 0.5915,-0.03696c0.3697,-0.03696 0.7763,-0.03696 1.22,-0.03696c0.5175,0 0.9981,0 1.4787,0.03696l-2.9945,0.22175c-0.1478,0 -0.2957,0 -0.4436,-0.03696zm4.3623,-0.11088l0,0.22175l-3.8078,0.29567l0,-0.22175l3.8078,-0.29567zm15.6377,-0.66525l0,12.34409l-42.80959,2.3284l0,-2.2175l12.01479,-0.7022c0.1109,0 0.2588,0 0.3697,-0.0369c0.1479,-0.037 0.2588,-0.074 0.3697,-0.1109c0.1109,-0.037 0.2218,-0.1109 0.3327,-0.2218c0.1109,-0.0739 0.1848,-0.1848 0.2588,-0.2956c0.1478,-0.1848 0.2587,-0.4066 0.3697,-0.6653c0.1109,-0.2587 0.1478,-0.4805 0.2218,-0.7392l0.5545,-2.1436l1.8484,-0.1108c0.2218,0 0.4436,-0.1109 0.6655,-0.2587c0.1848,-0.1479 0.3327,-0.2957 0.4436,-0.5175c0.2218,-0.36955 0.3327,-0.85001 0.2957,-1.33047c-0.0369,-0.48046 -0.1848,-0.96092 -0.4066,-1.29354c-0.1479,-0.22175 -0.2958,-0.36959 -0.4806,-0.51742c-0.2218,-0.14784 -0.4436,-0.22175 -0.6655,-0.25871c-0.0739,0 -0.1109,0 -0.1848,0l-0.4436,0.03696l0.3327,-1.29355l26.9131,-1.99576zm-26.5434,3.54802c0.3327,0.03695 0.5915,0.22175 0.7394,0.36958c0.1848,0.18479 0.3327,0.4435 0.4436,0.73917c0.1109,0.25871 0.1479,0.55438 0.1479,0.85005c0,0.40654 -0.111,0.77612 -0.2588,1.07177c-0.1109,0.1848 -0.2218,0.3326 -0.3697,0.4066c-0.1479,0.1108 -0.3327,0.1848 -0.4806,0.2217c-0.1848,0.037 -0.3697,0 -0.5176,-0.0739c-0.1478,-0.0739 -0.2957,-0.1848 -0.4436,-0.3326c-0.2218,-0.2587 -0.4066,-0.59136 -0.4806,-0.99791l0.5176,-1.99575c0.1848,-0.1848 0.4436,-0.25871 0.7024,-0.25871zm-0.7024,0.07391l0.037,-0.18479l0.4805,-0.03696c0.037,0 0.1109,0 0.1479,0c0.074,0 0.1849,0.03696 0.2588,0.07392c-0.0739,-0.03696 -0.1479,-0.03696 -0.2218,-0.03696c-0.2588,-0.03696 -0.4806,0.03696 -0.7024,0.18479zm1.3678,3.51106c-0.0369,0.037 -0.1109,0.0739 -0.1479,0.1109c0.074,-0.037 0.111,-0.0739 0.1479,-0.1109zm-1.5527,-0.2587c0.1479,0.1478 0.2958,0.2587 0.4806,0.3696c0.1479,0.0739 0.2958,0.1108 0.4437,0.1108c0.0369,0 0.1109,0 0.1478,0c0.1109,0 0.1849,-0.0369 0.2588,-0.0739c-0.1109,0.037 -0.2588,0.0739 -0.3697,0.1109l-1.8114,0.1109l0.3696,-1.40444c0.111,0.29567 0.2958,0.59134 0.4806,0.77614zm-17.41216,-3.36323c0.03697,0 0.11091,-0.03696 0.18484,-0.03696l-0.18484,0.70221l0,-0.66525zm-1.55268,7.83523c-0.03697,-0.1109 -0.03697,-0.2218 -0.03697,-0.4066c0,-0.2587 0.07394,-0.5544 0.14788,-0.7761l2.73567,-10.12663c0.07394,-0.22175 0.11091,-0.4435 0.22181,-0.66525c0.03697,-0.11088 0.07394,-0.22175 0.14788,-0.29567c0.03697,-0.11088 0.1109,-0.18479 0.18484,-0.25871c0.03697,-0.11088 0.11091,-0.18479 0.18484,-0.25871c0.07394,-0.07392 0.18485,-0.11087 0.25878,-0.18479c0.18485,-0.07392 0.40666,-0.11088 0.62847,-0.14784l13.64144,-1.14571c0.1109,0 0.2218,-0.03696 0.3696,0c0.1479,0 0.2588,0.03696 0.3328,0.07392c0.0369,0.03696 0.1109,0.07392 0.1478,0.14783c0.037,0.03696 0.074,0.11088 0.074,0.18479c0.0369,0.11088 0.0369,0.22176 0.0369,0.40655c-0.0369,0.25871 -0.1109,0.55438 -0.1848,0.81308l-2.7357,10.38534c-0.0739,0.2217 -0.1109,0.4435 -0.1848,0.6653c-0.074,0.2587 -0.1849,0.4435 -0.3327,0.5913c-0.074,0.0739 -0.1479,0.1848 -0.2218,0.2587c-0.074,0.0739 -0.1849,0.1478 -0.2958,0.1848c-0.1848,0.0739 -0.4066,0.1109 -0.5915,0.1109l-0.037,0l-13.64136,0.7761l-0.03697,0c-0.11091,0 -0.22181,0 -0.33272,0c-0.1109,0 -0.22181,-0.037 -0.29575,-0.0739c-0.07393,-0.037 -0.1109,-0.0739 -0.14787,-0.1109c0,-0.037 -0.03697,-0.0739 -0.03697,-0.1478zm1.36784,0.9609c-0.03697,0 -0.07394,0 -0.11091,0.0369l-1.10905,-0.5543c-0.03697,-0.037 -0.07394,-0.0739 -0.14788,-0.1479c0.03697,0.037 0.07394,0.074 0.14788,0.1109c0.07393,0.037 0.18484,0.0739 0.33271,0.0739c0.03697,0 0.07394,0 0.07394,0c0.07394,0 0.14787,0 0.25878,0l13.64143,-0.8131c0,0 0,0 0.0369,0l0.037,0l0.0739,0c0.1849,0 0.3697,-0.0369 0.5546,-0.1108c0.1109,-0.037 0.2218,-0.1109 0.2957,-0.1848c0.074,-0.0739 0.1849,-0.1479 0.2588,-0.2587c0.1479,-0.1848 0.2588,-0.3696 0.3327,-0.6283c0.074,-0.2218 0.1479,-0.4435 0.1849,-0.6653l2.7726,-10.45924c0.0739,-0.2587 0.1479,-0.55437 0.1849,-0.81308c0,-0.18479 0,-0.33263 -0.037,-0.4435c-0.037,-0.07392 -0.074,-0.14784 -0.1109,-0.22175c-0.037,-0.07392 -0.1109,-0.11088 -0.1849,-0.14784c-0.0739,-0.03696 -0.2218,-0.07391 -0.3327,-0.07391c0,0 0,0 0.037,0c0.1479,0 0.2588,0.03695 0.3327,0.07391l1.1091,0.6283c0.1478,0.07391 0.2218,0.22175 0.2587,0.33262c0.037,0.11088 0.037,0.25871 0.037,0.4435c0,0.29567 -0.1109,0.59134 -0.1848,0.88701l-0.6285,2.43926l-0.0739,0.25871l-2.0333,7.68741c-0.0739,0.2217 -0.1109,0.4804 -0.2218,0.7022c-0.1109,0.2587 -0.2218,0.4435 -0.3327,0.6283c-0.074,0.1108 -0.1479,0.1847 -0.2588,0.2587c-0.1109,0.0739 -0.1849,0.1478 -0.2958,0.1848c-0.1109,0.0369 -0.2218,0.0739 -0.3327,0.1108c-0.1109,0.037 -0.2588,0.037 -0.3697,0.037l-12.05172,0.7022c-0.03697,-0.037 -0.07394,-0.0739 -0.14788,-0.0739c-0.07394,0 -0.1109,0.0369 -0.14787,0.1109l-1.25693,0c-0.11091,0 -0.25878,0 -0.40666,0c-0.03697,-0.074 -0.1109,-0.1109 -0.18484,-0.1109zm0.33272,74.1757c0,-0.074 -0.07394,-0.1479 -0.14788,-0.1479c-0.03697,0 -0.03697,0 -0.07394,0l0.07394,-73.7691c0.07394,0 0.11091,0 0.18484,0c0.07394,0 0.14788,0 0.22182,0l1.2939,-0.0739l-0.03697,74.1387l-0.48059,-0.037c-0.22182,0 -0.44363,-0.0369 -0.70241,-0.0739c-0.1109,0 -0.22181,-0.0369 -0.33271,-0.0369c0.03696,0 0.03696,0 0,0zm5.43438,1.6631l-0.03697,0c-0.11091,0 -0.25878,0 -0.40666,0.037c-0.03697,0 -0.03697,0 -0.07393,0c-0.14788,0 -0.29575,0 -0.4806,0c-0.03696,0 -0.07393,0 -0.1109,0c-0.14788,0 -0.33272,0 -0.48059,0c-0.03697,0 -0.03697,0 -0.07394,0c-0.18484,0 -0.36969,0 -0.5915,0c-0.40665,0 -0.77634,0 -1.10905,-0.037c-0.22182,0 -0.40666,-0.037 -0.55453,-0.037c-0.07394,0 -0.14788,0 -0.18485,-0.0369c-0.03696,0 -0.1109,0 -0.14787,-0.037c-0.03697,0 -0.07394,0 -0.07394,-0.0369c0,0 0,0 -0.03697,-0.037l0,-0.2587c0.03697,0 0.07394,0 0.14788,0l4.36229,0.3326c-0.07394,0.1109 -0.11091,0.1109 -0.14787,0.1109zm46.8392,3.4371c0,0 -0.037,0.037 0,0c-0.074,0.037 -0.074,0.0739 -0.1109,0.0739c-0.037,0 -0.1479,0.037 -0.2218,0.037c-0.1479,0.037 -0.2958,0.037 -0.4437,0.037c-0.6284,0.0739 -1.5526,0.0739 -2.4769,0.0739c-0.4436,0 -0.8872,-0.037 -1.2569,-0.037c-0.2588,0 -0.4436,-0.0369 -0.6285,-0.0369c-0.0739,0 -0.1478,0 -0.2218,-0.037c-0.0369,0 -0.1109,-0.037 -0.1478,-0.037c-0.037,0 -0.074,-0.0369 -0.111,-0.0369c0,0 0,0 -0.0369,0l0,-0.2957c0.0369,0 0.037,0 0.0739,0c0.2958,0 0.6285,0.037 0.9242,0.037c0.2958,0 0.6285,0 0.9243,0.0369c0.2587,0 0.5175,0 0.7763,0c0.037,0 0.1109,0 0.1479,0c0.5915,0 1.2199,0 1.8484,-0.0369c0.2957,0 0.5915,-0.037 0.8872,-0.037l0.074,0.2587zm43.4011,-3.8067c-0.037,0 -0.037,0.037 -0.074,0.037c-0.0369,0 -0.1109,0.0369 -0.1478,0.0369c-0.1109,0.037 -0.2588,0.037 -0.3328,0.037c-0.8133,0.0739 -1.9593,0.0739 -2.292,0.0739c-0.4067,0 -0.8133,0 -1.146,-0.037c-0.074,0 -0.1479,0 -0.2218,0l4.2144,-0.3695l0,0.2217c0,-0.0369 0,-0.0369 0,0c0,-0.0369 0,-0.0369 0,0zm1.0721,-0.7392c0,0 -0.037,0 0,0c-0.074,0.037 -0.1109,0.037 -0.1479,0.037c-0.1109,0.037 -0.1849,0.037 -0.2958,0.037c-0.1848,0.0369 -0.4066,0.0369 -0.5915,0.0739l-42.4768,3.7328c-0.1479,0 -0.3328,0.0369 -0.4806,0.0369c-0.1479,0 -0.2958,0.037 -0.4437,0.037c-0.2957,0 -0.6284,0.037 -0.9242,0.037c-0.6284,0.0369 -1.2569,0.0369 -1.8484,0.0369c-0.2957,0 -0.6285,0 -0.9242,0c-0.2958,0 -0.6285,0 -0.9242,-0.0369c-0.2958,0 -0.6285,-0.037 -0.9242,-0.037c-0.2958,0 -0.6285,-0.037 -0.9243,-0.0739l-44.58405,-3.4372c-0.22181,0 -0.44363,-0.0369 -0.66544,-0.0739c-0.1109,0 -0.22181,-0.0369 -0.33271,-0.0369c-0.03697,0 -0.11091,-0.037 -0.14788,-0.037l-0.03697,0l-0.03697,-0.7392c0.11091,0 0.18485,0.037 0.33272,0.037c0.22181,0.037 0.48059,0.037 0.7024,0.0739l0.5915,0.037c0,0 0,0 0.03697,0c0,0.0369 0.03697,0.0369 0.03697,0.0369l42.99446,3.2524c0.037,0 0.037,-0.037 0.0739,-0.037l0.037,0l0.037,0l0.0369,0l0.7394,0.037c0.3327,0.0369 0.6285,0.0369 0.9612,0.0739c0.3327,0 0.6654,0.037 0.9612,0.037c0.3327,0 0.6654,0 0.9612,0.0369c0.1478,0 0.3327,0 0.4805,0c0.1109,0 0.2219,0 0.3328,0c0.0369,0 0.1109,0 0.1478,0c0.6285,0 1.2939,0 1.9594,-0.0369c0.7393,-0.037 1.3308,-0.074 1.9593,-0.1109l42.4769,-3.6589c0.1848,0 0.4066,-0.037 0.6284,-0.0739c0.111,0 0.1849,-0.037 0.2588,-0.037l-0.0369,0.7761zm0.1848,-0.9978c-0.0739,0 -0.1479,0.0739 -0.1479,0.1478c-0.0739,0 -0.1848,0.037 -0.2957,0.037c-0.2218,0.0369 -0.4436,0.0369 -0.6285,0.0739l-42.4769,3.6589c-0.5915,0.0369 -1.183,0.0739 -1.9223,0.1108c-0.6655,0.037 -1.2939,0.037 -1.9594,0.037c-0.1478,0 -0.3327,0 -0.4806,0c-0.1478,0 -0.3327,0 -0.4805,0c-0.111,0 -0.2219,0 -0.3328,0c-0.0369,-0.037 -0.0739,-0.037 -0.0739,0c-0.1848,0 -0.3697,0 -0.5545,0c-0.3328,0 -0.6655,-0.037 -0.9612,-0.037c-0.3327,0 -0.6655,-0.0369 -0.9612,-0.0739l-0.6654,-0.0369l0,-0.037l0,-43.2784l0.0369,0c0.1479,-0.0739 0.2588,-0.2217 0.3328,-0.3696c0.1478,-0.2587 0.2587,-0.5913 0.2587,-0.9609c0,-0.3326 -0.0739,-0.7022 -0.2587,-0.9609c-0.111,-0.1478 -0.2219,-0.2957 -0.3328,-0.3696l-0.0369,0l0,-31.3777l0,-12.49201l0.6654,-0.03696c0.3327,-0.03696 0.6285,-0.03696 0.9612,-0.07392c0.1479,0 0.2957,0 0.4436,-0.03696c0.1848,0 0.3327,0 0.5176,0c0.3327,0 0.6284,0 0.9612,-0.03696c0.1478,0 0.3327,0 0.4805,0c0.1479,0 0.3328,0 0.4806,0c0.6285,0 1.2939,0 1.9224,0.03696c0.1848,0 0.3327,0 0.5176,0.03696c0.1478,0 0.2957,0 0.4436,0.03696c0.3327,0 0.6284,0.03696 0.9612,0.07392l42.4399,3.62193c0.2218,0 0.4066,0.03696 0.6284,0.07392c0.3328,0.03695 0.4806,0.07391 0.5176,0.11087l0.037,82.26959c0.0369,-0.1478 0,-0.1478 -0.037,-0.1478z"/>
   <path id="svg_10" fill="#545454" d="m10.0542,83.3786c-0.07389,-0.0369 -0.14783,-0.0739 -0.22176,-0.0739c-0.14788,0 -0.25878,0.1109 -0.33272,0.2587c-0.07394,0.1478 -0.07394,0.2957 -0.07394,0.3696c0,0.1478 0.03697,0.2957 0.11091,0.4435c0.03697,0.0739 0.1109,0.1478 0.14787,0.1848c0.07394,0.0369 0.14788,0.0739 0.22181,0.0739c0.14783,0 0.25883,-0.1109 0.33273,-0.2587c0.0739,-0.1478 0.0739,-0.2957 0.0739,-0.3696c0,-0.1478 -0.0369,-0.2957 -0.1109,-0.4435c-0.0369,-0.0739 -0.0739,-0.1478 -0.1479,-0.1848zm0.074,0.924c-0.037,0.0369 -0.1109,0.1848 -0.22183,0.1848c-0.07393,0 -0.1109,-0.037 -0.14787,-0.037c-0.03697,-0.037 -0.07394,-0.0739 -0.11091,-0.1478c-0.07393,-0.1109 -0.07393,-0.2218 -0.07393,-0.3696c0,-0.1109 0.03696,-0.2218 0.07393,-0.3326c0.03697,-0.037 0.11091,-0.1848 0.22181,-0.1848c0.07394,0 0.11091,0.0369 0.1479,0.0369c0.0369,0.037 0.0739,0.0739 0.1109,0.1479c0.0739,0.1108 0.0739,0.2217 0.0739,0.3695c0,0.1479 -0.0369,0.2588 -0.0739,0.3327z"/>
   <path id="svg_11" fill="#545454" d="m7.0615,83.3407c-0.03697,-0.0739 -0.07394,-0.1478 -0.14788,-0.1848c-0.07393,-0.0369 -0.14787,-0.0739 -0.22181,-0.0739c-0.14787,0 -0.25878,0.1109 -0.33272,0.2587c-0.07393,0.1109 -0.07393,0.2587 -0.07393,0.3696c0,0.1479 0.03696,0.2957 0.1109,0.4066c0.03697,0.0739 0.07394,0.1478 0.14788,0.1848c0.07393,0.0369 0.14787,0.0739 0.22181,0.0739c0.14787,0 0.25878,-0.1109 0.33272,-0.2587c0.07393,-0.1479 0.07393,-0.2957 0.07393,-0.3696c0,-0.1109 -0.03697,-0.2587 -0.1109,-0.4066zm-0.03697,0.4435c0,0.1109 -0.03697,0.2218 -0.07394,0.3327c-0.03697,0.0369 -0.1109,0.1848 -0.22181,0.1848c-0.07394,0 -0.11091,-0.037 -0.14787,-0.037c-0.03697,-0.037 -0.07394,-0.0739 -0.11091,-0.1478c-0.07394,-0.1109 -0.07394,-0.2218 -0.07394,-0.3696c0,-0.1109 0.03697,-0.2218 0.07394,-0.3326c0.03697,-0.037 0.11091,-0.1848 0.22181,-0.1848c0.07394,0 0.11091,0.0369 0.14788,0.0369c0.03696,0.037 0.07393,0.0739 0.1109,0.1479c0.07394,0.1108 0.07394,0.2217 0.07394,0.3695z"/>
   <path id="svg_12" fill="#545454" d="m39.7418,6.20838c0.0369,0 0.0739,0 0.1478,0c0,0.14783 0,0.29567 0,0.40654c0.037,0 0.074,0 0.1479,0c0,-0.14783 0,-0.29566 0,-0.40654c0.037,0 0.074,0 0.1479,0c0,0.14783 0,0.29567 0,0.40654c0.037,0 0.0739,0 0.1479,0c0,-0.11087 0,-0.18479 0,-0.29566c0,-0.03696 0,-0.03696 0,-0.07392l0,-0.03696l0,-0.03696c0,-0.03696 0,-0.03696 -0.037,-0.07391c0,0 -0.037,-0.03696 -0.0739,-0.03696c-0.1849,0 -0.3697,0.03696 -0.5915,0.03696c0,0.18479 0,0.36958 0,0.51741c0.0369,0 0.0739,0 0.1478,0c-0.0369,-0.11087 -0.0369,-0.25871 -0.0369,-0.40654z"/>
   <path id="svg_13" fill="#545454" d="m38.1521,7.53815c0.0369,0 0.0369,0 0,0c0.0369,0 0.0739,0 0.0739,0c0.037,0 0.1109,0 0.1479,0c0.1109,0 0.1848,0 0.2957,-0.03696c0,-0.03696 0,-0.07392 0,-0.11087c-0.0739,0 -0.1848,0 -0.2588,0c-0.0369,0 -0.0739,0 -0.1109,0c-0.0369,0 -0.0369,0 -0.0739,0c0,0 0,0 0,-0.03696c0,-0.1848 0,-0.33263 0,-0.51742c-0.037,0 -0.0739,0 -0.1479,0c0,0.11087 0,0.18479 0,0.29567c0,0.03695 0,0.11087 0,0.14783c0,0.03696 0,0.03696 0,0.07392l0,0.03696c0,0.03695 0,0.03695 0,0.07391c0.037,0.03696 0.074,0.07392 0.074,0.07392z"/>
   <path id="svg_14" fill="#545454" d="m10.2033,18.5894c-0.1109,-0.0739 -0.1849,-0.1109 -0.33274,-0.1109l-0.18485,0l-0.03696,0c-0.14788,0 -0.25878,0.0739 -0.36969,0.1848c-0.07394,0.0739 -0.14787,0.2218 -0.22181,0.3326c-0.11091,0.2587 -0.11091,0.5544 -0.03697,0.8501l0,0.0369c0.03697,0.1479 0.11091,0.2957 0.22181,0.4066c0.11091,0.1109 0.25878,0.1848 0.40666,0.1848c0,0 0,0 0.03696,0l0.07394,0c0,0 0.03697,0 0.07394,0c0,0 0,0 0.03697,0c0.1109,0 0.22184,-0.037 0.33274,-0.1109c0.0739,-0.0739 0.1478,-0.1478 0.2218,-0.2587c0.1109,-0.1848 0.1479,-0.4066 0.1479,-0.6283c0,-0.2218 -0.037,-0.4435 -0.1479,-0.6283c-0.1109,-0.1109 -0.1479,-0.1848 -0.2218,-0.2587zm-0.29577,1.6262c-0.07394,0.0739 -0.14788,0.1108 -0.25878,0.1108c-0.14788,0 -0.25878,-0.0739 -0.33272,-0.1478c-0.11091,-0.1109 -0.14788,-0.2587 -0.18484,-0.3326l0,-0.037c-0.07394,-0.2587 -0.07394,-0.5174 0.03696,-0.7761l0,-0.037c0.03697,-0.1108 0.11091,-0.2217 0.18485,-0.2956c0.07393,-0.074 0.18484,-0.1479 0.29575,-0.1479l0.03696,0c0.07394,0 0.18485,0.037 0.25878,0.1109c0.07391,0.0739 0.11091,0.1478 0.18481,0.2218c0.074,0.1478 0.1109,0.3695 0.1109,0.5543c0,0.2218 -0.0739,0.4066 -0.1478,0.5544c-0.074,0.1109 -0.11094,0.1848 -0.18487,0.2218zm0.33267,-0.1848c-0.0369,0.0739 -0.1109,0.1478 -0.1848,0.2217c0.037,-0.0369 0.0739,-0.1109 0.1109,-0.1848c0.1109,-0.1848 0.1479,-0.4065 0.1479,-0.6283c0,-0.2217 -0.037,-0.4435 -0.1109,-0.6283c-0.037,-0.0369 -0.037,-0.0739 -0.074,-0.1108c0.037,0.0369 0.1109,0.1108 0.1479,0.1848c0.0739,0.1478 0.1109,0.3695 0.1109,0.5543c0,0.2218 -0.037,0.4435 -0.1479,0.5914z"/>
   <path id="svg_15" fill="#545454" d="m7.02373,18.7378c-0.11091,-0.0739 -0.18484,-0.1108 -0.29575,-0.1108l-0.18484,0l-0.03697,0c-0.14788,0 -0.25878,0.0739 -0.36969,0.1847c-0.07394,0.074 -0.14787,0.1848 -0.22181,0.3327c-0.11091,0.2587 -0.11091,0.5913 -0.03697,0.887c0.03697,0.1478 0.11091,0.2956 0.22181,0.3696c0.11091,0.1108 0.25878,0.1848 0.40666,0.1848c0,0 0,0 0.03697,0l0.07393,0c0.03697,0 0.03697,0 0.07394,0c0,0 0,0 0.03697,0c0.11091,0 0.22181,-0.037 0.29575,-0.1109c0.07394,-0.0739 0.14787,-0.1479 0.22181,-0.2587c0.11091,-0.1848 0.14787,-0.4066 0.14787,-0.6283c0,-0.2218 -0.03696,-0.4435 -0.1109,-0.6283c-0.11091,-0.0739 -0.18484,-0.1479 -0.25878,-0.2218zm-0.29575,1.6632c-0.07394,0.0739 -0.14788,0.1108 -0.25878,0.1108c-0.14788,0 -0.25878,-0.0739 -0.33272,-0.1478c-0.07394,-0.0739 -0.14787,-0.1848 -0.18484,-0.3326l0,-0.037c-0.07394,-0.2587 -0.07394,-0.5544 0.03697,-0.7761c0.03697,-0.1109 0.1109,-0.2218 0.18484,-0.2957c0.07394,-0.0739 0.14787,-0.1478 0.29575,-0.1478c0,0 0,0 0.03697,0c0,0 0,0 0.03697,0c0.07393,0 0.14787,0.0369 0.22181,0.1109c0.07393,0.0739 0.1109,0.1478 0.18484,0.2217c0.07394,0.1478 0.11091,0.3696 0.11091,0.5544c0,0.1848 -0.07394,0.4065 -0.14788,0.5544c-0.03697,0.0369 -0.1109,0.1108 -0.18484,0.1848zm0.36969,-0.2218c-0.03697,0.0739 -0.11091,0.1478 -0.18485,0.2218c0.03697,-0.037 0.07394,-0.1109 0.11091,-0.1848c0.1109,-0.1848 0.14787,-0.4066 0.14787,-0.6283c0,-0.2218 -0.03697,-0.4435 -0.1109,-0.6283c-0.03697,-0.037 -0.03697,-0.0739 -0.07394,-0.1109c0.03697,0.037 0.1109,0.1109 0.14787,0.1848c0.07394,0.1478 0.11091,0.3696 0.11091,0.5544c0,0.2587 -0.07394,0.4435 -0.14787,0.5913z"/>
   <path id="svg_16" fill="#545454" d="m17.7814,12.0856c0.0369,0 0.0369,0 0.0739,0c0.074,-0.037 0.1109,-0.0739 0.1109,-0.1478l0.5176,-1.95884c0.037,-0.11088 0,-0.18479 -0.074,-0.25871c-0.0369,-0.11088 -0.0739,-0.11087 -0.1109,-0.11087c-0.0369,0 -0.1109,0.03695 -0.1478,0.07391c-0.037,0.03696 -0.037,0.03696 -0.037,0.07392l-0.5176,1.95879c-0.0369,0.1109 0,0.2218 0.074,0.2957c0,0.0369 0.0739,0.0739 0.1109,0.0739zm-0.074,-0.3326l0.5176,-1.95883c0,-0.03696 0,-0.03696 0.037,-0.03696l0.0369,-0.03696c0,0 0.037,0 0.037,0.03696c0.037,0.03696 0.037,0.11087 0.037,0.14783l-0.5176,1.95876c0,0.037 -0.037,0.074 -0.037,0.074c-0.0369,0 -0.0369,0 -0.0739,0c-0.037,-0.037 -0.0739,-0.1109 -0.037,-0.1848z"/>
   <path id="svg_17" fill="#545454" d="m41.035,6.54055c0,0 0.037,0 0,0c0.037,0 0.037,0 0.037,0l0.037,0c0.0369,0 0.0369,0 0.0739,0c0.037,0 0.1109,0 0.1479,0c0.1109,0 0.1848,0 0.2957,-0.03695c0,-0.1848 0,-0.36959 0,-0.55438c-0.037,0 -0.0739,0 -0.1479,0c0,0.14783 0,0.29567 0,0.4435c-0.1109,0 -0.2218,0 -0.3327,0.03696c0,-0.14784 0,-0.29567 0,-0.4435c-0.0369,0 -0.0739,0 -0.1479,0c0,0.11087 0,0.18479 0,0.29566c0,0.03696 0,0.11088 0,0.14784c0,0 0,0 0,0.03696l0,0.03696c0,0 0.037,0 0.037,0.03695z"/>
   <path id="svg_18" fill="#545454" d="m44.694,7.09553l0.2588,-0.03696l0,-1.44138l-0.1848,0l-0.4067,0.25871l0,0.18479l0.3327,-0.18479l0,1.21963z"/>
   <path id="svg_19" fill="#545454" d="m39.2967,6.94711c-0.0369,0 -0.0369,-0.03695 -0.0739,-0.03695c0,0 0,0 -0.037,0l-0.037,0c-0.0369,0 -0.0739,0 -0.1478,0c-0.074,0 -0.1849,0 -0.2588,0c0,0.03695 0,0.07391 0,0.11087c0.1479,0 0.2957,-0.03696 0.4436,-0.03696c0,0.03696 0,0.07392 0,0.07392c-0.1109,0 -0.2218,0 -0.3327,0.03696l-0.037,0l-0.0369,0c-0.037,0 -0.037,0.03696 -0.037,0.07392c0,0.03695 0,0.03695 0,0.07391l0,0.03696l0,0.03696l0,0.03696c0,0.03696 0,0.07392 0.037,0.07392l0.0369,0c0.037,0 0.1109,0 0.1479,0c0.1109,0 0.2218,-0.00001 0.3327,-0.03696c0,-0.07392 0,-0.1848 0,-0.25871c0,-0.03696 0,-0.07392 0,-0.14784l0,-0.03696c0,0 0.037,0.03696 0,0zm-0.0739,0.40655l-0.3327,0.03696l0,-0.11088l0.3327,-0.03696l0,0.11088z"/>
   <path id="svg_20" fill="#545454" d="m42.6604,6.3194c0.037,0.03696 0.037,0.07392 0.074,0.07392c0,0.03695 0.0369,0.03695 0.0369,0.07391c-0.1848,0.25871 -0.3697,0.51742 -0.5545,0.77613c0.1109,0 0.2218,0 0.3327,-0.03696c0.1849,-0.25871 0.3697,-0.48046 0.5545,-0.73917c0,0.03696 0.037,0.03696 0.037,0.07392c0.037,0.03696 0.037,0.03696 0.074,0.07392c0.0369,0.03696 0.0739,0.11087 0.1478,0.18479c0.074,0.11088 0.1849,0.22175 0.2588,0.33263c0.1109,0 0.2218,0 0.3327,-0.03696c-0.1848,-0.22175 -0.3697,-0.4435 -0.5545,-0.70221c0.1848,-0.25871 0.3697,-0.51742 0.5545,-0.77613c-0.1109,0 -0.2218,0 -0.3327,0.03696c-0.1848,0.25871 -0.3697,0.48046 -0.5176,0.73917c-0.1848,-0.22176 -0.3696,-0.44351 -0.5545,-0.66526c-0.1109,0 -0.2218,0 -0.3327,0.03696c0.1109,0.11088 0.1848,0.22175 0.2957,0.33263c0.037,0.11087 0.111,0.14783 0.1479,0.22175z"/>
   <path id="svg_21" fill="#545454" d="m39.0017,6.68899l0.0369,0c0.037,0 0.1109,0 0.1479,0c0.1109,0 0.2218,0 0.3327,-0.03696c0,-0.07391 0,-0.18479 0,-0.25871c0,-0.03695 0,-0.07391 0,-0.14783l0,-0.03696c0,-0.03696 -0.0369,-0.03696 -0.0369,-0.07392c-0.037,0 -0.037,-0.03695 -0.074,-0.03695c0,0 0,0 -0.0369,0l-0.037,0c-0.037,0 -0.074,0 -0.1479,0c-0.0739,0 -0.1848,0 -0.2588,0.03695c0,0.03696 0,0.07392 0,0.11088c0.1479,0 0.2958,-0.03696 0.4437,-0.03696c0,0.03696 0,0.07392 0,0.07392c-0.111,0 -0.3697,0.03696 -0.3697,0.03696l-0.037,0c-0.037,0 -0.037,0.03696 -0.037,0.07391c0,0.03696 0,0.03696 0,0.07392l0,0.03696l0,0.03696l0,0.03696c0,0.03695 0.037,0.07391 0.074,0.11087zm0.0739,-0.22175l0.3327,-0.03696l0,0.11088l-0.3327,0.03696l0,-0.11088z"/>
   <path id="svg_22" fill="#545454" d="m81.4039,42.6873l-3.1793,-1.9588l0,8.5374l3.1793,-0.0369l0,-6.5417z"/>
   <path id="svg_23" fill="#545454" d="m81.4409,35.6639l-3.2163,-0.0369l0,4.2871l3.1793,1.9588l0.037,-6.209z"/>
   <path id="svg_24" fill="#545454" d="m77.7455,42.281l0,-6.6895l-3.2533,-0.0739l0,8.6483l3.2533,-1.8849z"/>
   <path id="svg_25" fill="#545454" d="m77.7085,49.2658l0.037,-6.172l-3.2533,1.8848l0,4.2872l3.2163,0z"/>
   <path id="svg_26" fill="#545454" d="m81.1452,52.5921l0,-1.848l-0.3327,0l0,2.2545l1.22,0l-0.1109,-0.4065l-0.7764,0z"/>
   <path id="svg_27" fill="#545454" d="m83.4737,51.1875l-1.183,0l0.1109,0.4065l1.0721,0l0.037,0.037l0,0.2218l-0.9612,0c-0.1848,0 -0.3327,0.2217 -0.3327,0.5174l0,0.1478c0,0.2587 0.1479,0.4805 0.3327,0.4805l1.2569,0l0,-1.2936c0,-0.2957 -0.1478,-0.5174 -0.3327,-0.5174zm0,1.4044l-0.9612,0l-0.0369,-0.0369l0,-0.2587c0,-0.037 0,-0.037 0.0369,-0.037l0.9612,0l0,0.3326z"/>
   <path id="svg_28" fill="#545454" d="m85.2126,51.1876l-0.7764,0l0,-0.4435l-0.3327,0l0,2.2545l0.3327,0l0.7764,0c0.1848,0 0.3327,-0.2217 0.3327,-0.4805l0,-0.813c-0.037,-0.2957 -0.1849,-0.5175 -0.3327,-0.5175zm-0.037,1.3305c0,0.037 0,0.037 -0.037,0.037l-0.7393,0l0,-0.9979l0.7393,0l0.037,0.037l0,0.9239z"/>
   <path id="svg_29" fill="#545454" d="m75.8959,51.2246l-1.7006,0l0,1.8479l0.3327,0l0,-1.3674c0,-0.037 0,-0.037 0.037,-0.037l0.4436,0c0.037,0 0.037,0.037 0.037,0.037l0,1.3674l0.3327,0l0,-1.3674c0,-0.037 0,-0.037 0.037,-0.037l0.4436,0c0.037,0 0.037,0.037 0.037,0.037l0,1.3674l0.3327,0l0,-1.3305c0,-0.2956 -0.1479,-0.5174 -0.3327,-0.5174z"/>
   <path id="svg_30" fill="#545454" d="m79.4075,52.5921c0,0.0369 0,0.0369 -0.037,0.0369l-0.8133,0l-0.037,-0.0369l0,-1.3675l-0.3327,0l0,1.3305c0,0.2957 0.1479,0.5174 0.3327,0.5174l0.8133,0c0.1849,0 0.3328,-0.2217 0.3328,-0.5174l0,-1.3305l-0.2958,0l0.037,1.3675z"/>
   <path id="svg_31" fill="#545454" d="m73.5302,51.2246l-1.2199,0l0.1109,0.4065l1.109,0c0.037,0 0.037,0.037 0.037,0.037l0,0.2218l-0.9982,0c-0.1848,0 -0.3327,0.2217 -0.3327,0.5174l0,0.1478c0,0.2957 0.1479,0.5174 0.3327,0.5174l1.2939,0l0,-1.3305c0,-0.2956 -0.1478,-0.5174 -0.3327,-0.5174zm-0.9612,1.4414c-0.0369,0 -0.0369,-0.037 -0.0369,-0.037l0,-0.2587c0,-0.0369 0,-0.0369 0.0369,-0.0369l0.9612,0l0,0.3695l-0.9612,-0.0369z"/>
   <path id="svg_32" fill="#545454" d="m77.6344,51.2248l-0.7763,0l0,-0.4436l-0.3327,0l0,2.2915l0.3327,0l0.7763,0c0.1849,0 0.3328,-0.2218 0.3328,-0.5174l0,-0.8131c0,-0.2957 -0.1479,-0.5174 -0.3328,-0.5174zm0,1.3674c0,0.037 0,0.037 -0.0369,0.037l-0.7394,0l0,-1.0349l0.7394,0l0.0369,0.037l0,0.9609z"/>
   <path id="svg_33" fill="#545454" d="m70.2402,50.4112l0,0.4805l0.3697,-0.1848l0,-0.5174l-0.3697,0.2217z"/>
   <path id="svg_34" fill="#545454" d="m71.793,51.8897c0.074,-0.1109 0.1109,-0.2587 0.1109,-0.4435c0,-0.2957 -0.1109,-0.5544 -0.2957,-0.6653c-0.0739,-0.0369 -0.1849,-0.0739 -0.2588,-0.0739c0,0 0,0 -0.037,0c-0.0739,0 -0.4066,0 -0.7023,0l0,0.4066l-0.3328,0.1848l0,1.774l1.257,0c0.2587,0 0.4436,-0.2957 0.4436,-0.6653c0,-0.2217 -0.074,-0.4065 -0.1849,-0.5174zm-1.1829,-0.7761l0.4066,0l0.3327,0c0.037,0 0.037,0 0.0739,0.0369c0.074,0.037 0.111,0.1479 0.111,0.2587c0,0 0,0.037 0,0.074c0,0.0739 -0.037,0.1478 -0.111,0.1848c-0.0369,0 -0.0369,0.0369 -0.0739,0.0369l-0.3697,0l-0.3696,0l0,-0.5913zm0.7763,1.5892l-0.2958,0l-0.4805,0l0,-0.6283l0.5175,0l0.1109,0l0.1848,0c0.037,0 0.074,0.037 0.111,0.0739c0.0369,0.0739 0.0739,0.1478 0.0739,0.2587c0,0.1479 -0.1109,0.2957 -0.2218,0.2957z"/>
   <path id="svg_35" fill="#545454" d="m45.2496,49.0055l0,-0.5543l-0.1109,0l0,0.7022l0.4066,0l-0.0369,-0.1479l-0.2588,0z"/>
   <path id="svg_36" fill="#545454" d="m45.9887,48.5996l-0.3697,0l0.037,0.1109l0.3327,0l0,0.0739l-0.2958,0c-0.0739,0 -0.1109,0.0739 -0.1109,0.1478l0,0.037c0,0.0739 0.037,0.1478 0.1109,0.1478l0.4067,0l0,-0.4065c0,-0.0739 -0.037,-0.1109 -0.1109,-0.1109zm0,0.4066l-0.2958,0l0,-0.074l0.2958,0l0,0.074z"/>
   <path id="svg_37" fill="#545454" d="m46.2847,48.4512l-0.1109,0l0,0.7022l0.1109,0l0.2219,0c0.0739,0 0.1109,-0.0739 0.1109,-0.1479l0,-0.2587c0,-0.0739 -0.037,-0.1478 -0.1109,-0.1478l-0.2588,0l0.0369,-0.1478zm0.2219,0.2587c0.0369,0 0.0369,0 0,0l0,0.2956l-0.2219,0l0,-0.2956l0.2219,0z"/>
   <path id="svg_38" fill="#545454" d="m43.5858,48.5625l-0.5546,0l0,0.5544l0.111,0l0,-0.4435l0.1478,0l0,0.4435l0.1109,0l0,-0.4435l0.1479,0l0,0.4065l0.1109,0l0,-0.4065c0.037,-0.037 0,-0.1109 -0.0739,-0.1109z"/>
   <path id="svg_39" fill="#545454" d="m44.6939,49.0062l-0.2588,0l0,-0.4066l-0.1109,0l0,0.4066c0,0.0739 0.037,0.1478 0.1109,0.1478l0.2588,0c0.0739,0 0.1109,-0.0739 0.1109,-0.1478l0,-0.4066l-0.1109,0l0,0.4066z"/>
   <path id="svg_40" fill="#545454" d="m42.846,48.5625l-0.4067,0l0.037,0.1109l0.3697,0l0,0.0739l-0.3327,0c-0.074,0 -0.111,0.0739 -0.111,0.1478l0,0.037c0,0.0739 0.037,0.1478 0.111,0.1478l0.4066,0l0,-0.4065c0.037,-0.037 -0.037,-0.1109 -0.0739,-0.1109zm-0.3327,0.4435l0,-0.1109l0.2957,0l0,0.1109l-0.2957,0z"/>
   <path id="svg_41" fill="#545454" d="m44.1392,48.5638l-0.2588,0l0,-0.1478l-0.1109,0l0,0.7022l0.1109,0l0.2588,0c0.074,0 0.1109,-0.0739 0.1109,-0.1478l0,-0.2587c0,-0.0739 -0.0369,-0.1479 -0.1109,-0.1479zm0,0.4436l-0.2588,0l0,-0.3327l0.2218,0l0.037,0.3327z"/>
   <path id="svg_42" fill="#545454" d="m41.7734,48.3044l0,0.1478l0.111,-0.0739l0,-0.1478l-0.111,0.0739z"/>
   <path id="svg_43" fill="#545454" d="m42.2911,48.7483c0.037,-0.0369 0.037,-0.0739 0.037,-0.1478c0,-0.1109 -0.037,-0.1848 -0.1109,-0.2217c-0.037,0 -0.0739,-0.037 -0.0739,-0.037c-0.037,0 -0.1479,0 -0.2218,0l0,0.1109l-0.111,0.0739l0,0.5544l0.4067,0c0.0739,0 0.1479,-0.1109 0.1479,-0.2218c-0.037,0 -0.074,-0.0739 -0.074,-0.1109zm-0.4066,-0.2217l0.1109,0l0.1109,0c0,0 0,0 0.037,0c0.0369,0 0.0369,0.0369 0.0369,0.0739c0,0.037 0,0.037 -0.0369,0.0739c0,0 0,0 -0.037,0l-0.1109,0l-0.1109,0l0,-0.1478zm0.2588,0.4805l-0.1109,0l-0.1479,0l0,-0.1848l0.1479,0l0.0369,0l0.074,0c0,0 0.0369,0 0.0369,0.0369c0,0 0.037,0.037 0.037,0.0739c0,0.037 -0.037,0.074 -0.0739,0.074z"/>
   <path id="svg_44" fill="#545454" d="m19.1128,0.36958c0.0369,0 0.0369,0 0.0739,0c0.1479,0 0.2957,0.03696 0.4066,0.11088l1.1091,0.62829c0.1479,0.07392 0.2588,0.22176 0.2957,0.36959c0.074,0.14783 0.074,0.29567 0.074,0.48046c0,0.29567 -0.1109,0.62829 -0.1849,0.887l-0.6284,2.36535l7.1349,-0.55438l0,-0.22175c-0.1479,0 -0.2957,-0.03696 -0.4066,-0.03696c-0.074,0 -0.1479,-0.03696 -0.2219,-0.03696c-0.0369,0 -0.0739,0 -0.1109,-0.03696c-0.0369,0 -0.0739,-0.03696 -0.0739,-0.03696c0,0 -0.037,0 -0.037,-0.03695l-0.0369,-0.03696l0,-0.55438c0,0 0,-0.03696 0.0369,-0.07392l0.074,0.03696l0.0369,-0.03696c0,0 0.037,0 0.037,-0.03696c0.037,0 0.0739,-0.03695 0.1109,-0.03695c0.074,0 0.1109,-0.03696 0.1849,-0.03696c0.0739,0 0.1478,-0.03696 0.2218,-0.03696c0.1848,0 0.3697,-0.03696 0.5915,-0.03696c0.3697,0 0.7393,-0.03696 1.183,-0.03696c0.0739,0 0.1478,0 0.2587,0c0.5176,0 1.3679,0 2.1442,0.07392c0.1849,0 0.2958,0.03696 0.4436,0.03696c0.3328,0.03696 0.4067,0.07391 0.4437,0.11087l0.0369,0.03696c0.037,0.03696 0.037,0.03696 0.037,0.07392l0,0.59133l14.7135,-1.10875c0.037,0 0.037,0 0.0739,0.03696c0.037,0 0.037,-0.03696 0.074,-0.03696l0.7024,-0.03696c0.3327,-0.03696 0.6654,-0.03696 0.9612,-0.07392c0.1478,0 0.2957,0 0.4805,-0.03695c0.1849,0 0.3328,0 0.5176,0c0.3327,0 0.6654,0 0.9612,-0.03696c0.1479,0 0.3327,0 0.4806,0c0.1109,0 0.2218,0 0.3327,0c0.037,0 0.1109,0 0.1479,0c0.6654,0 1.2939,0 1.9593,0.03696c0.1848,0 0.3327,0 0.5176,0.03695c0.1478,0 0.2957,0 0.4806,0.03696c0.3327,0 0.6654,0.03696 0.9611,0.07392l42.44,3.62193c0.2218,0 0.4066,0.03696 0.6284,0.07392c0.5915,0.07391 0.6655,0.14783 0.7024,0.18479l0.037,0.03696l0.037,0.03696c0,0.03695 0,0.03696 0,0.07391l0.0369,82.3805c0,0.0739 -0.0739,0.1478 -0.1478,0.1478c-0.037,0 -0.037,0 -0.074,0l-0.0369,0.887l0,0.0369c0,0 0,0.037 -0.037,0.037c0,0 -0.037,0.037 -0.074,0.037c-0.0369,0 -0.0369,0.0369 -0.0739,0.0369c-0.0369,0 -0.037,0 -0.0739,0.037c-0.037,0 -0.1109,0.0369 -0.1479,0.0369c-0.1109,0.037 -0.2218,0.037 -0.2958,0.037c-0.1848,0.037 -0.3696,0.037 -0.5175,0.0739l0,0.2587c0,0.037 -0.037,0.0739 -0.0739,0.1109c-0.037,0.037 -0.074,0.037 -0.111,0.037c-0.0369,0 -0.1109,0.0369 -0.1848,0.0369c-0.1109,0.037 -0.2588,0.037 -0.3327,0.037c-0.5915,0.0369 -1.3679,0.0739 -1.8854,0.0739c-0.1849,0 -0.3327,0 -0.4436,0c-0.4436,0 -0.8133,0 -1.1461,-0.037c-0.2218,0 -0.4066,-0.0369 -0.5915,-0.0369c-0.0739,0 -0.1478,0 -0.1848,-0.037c-0.037,0 -0.0739,0 -0.0739,0l-37.5601,3.2893c-0.1479,0 -0.3327,0.037 -0.4806,0.037c-0.1109,0 -0.2588,0 -0.3697,0.0369l0,0.2957c0,0.037 0,0.0739 -0.0369,0.1109c-0.037,0.0369 -0.037,0.0369 -0.037,0.0369c-0.037,0.037 -0.074,0.037 -0.1109,0.037c-0.074,0.037 -0.1479,0.037 -0.2218,0.037c-0.1479,0.0369 -0.3327,0.0369 -0.4437,0.0369c-0.5545,0.037 -1.3308,0.0739 -2.1072,0.0739c-0.1109,0 -0.2587,0 -0.3697,0c-0.4436,0 -0.8872,-0.0369 -1.2569,-0.0369c-0.2588,0 -0.4436,-0.037 -0.6284,-0.037c-0.074,0 -0.1479,-0.0369 -0.2219,-0.0369c-0.0739,0 -0.1109,-0.037 -0.1848,-0.037c-0.037,0 -0.0739,-0.037 -0.1109,-0.037c-0.037,0 -0.037,-0.0369 -0.0739,-0.0369c-0.037,-0.037 -0.037,-0.0739 -0.037,-0.0739l0,-0.2957c-0.2588,0 -0.4806,-0.037 -0.7394,-0.037l-39.59333,-3.0675c0,0 0,0 -0.03697,0c-0.07393,0 -0.14787,0.0369 -0.22181,0.0369c-0.18484,0.037 -0.33272,0.037 -0.48059,0.037l-0.03697,0c-0.1109,0 -0.22181,0 -0.33272,0.037c-0.03696,0 -0.07393,0 -0.1109,0c-0.11091,0 -0.25878,0 -0.36969,0c-0.03697,0 -0.07393,0 -0.14787,0c-0.14788,0 -0.25878,0 -0.36969,0c-0.07393,0 -0.1109,0 -0.18484,0c-0.11091,0 -0.22181,0 -0.29575,0c-0.07394,0 -0.1109,0 -0.18484,0c-0.07394,0 -0.14788,0 -0.22181,0c-0.40666,0 -0.77634,0 -1.10906,-0.037c-0.22181,0 -0.40665,-0.037 -0.55453,-0.037c-0.07394,0 -0.14787,0 -0.18484,-0.0369c-0.03697,0 -0.11091,0 -0.14788,-0.037c-0.03696,0 -0.07393,-0.0369 -0.1109,-0.0369l-0.03697,-0.037c0,0 0,-0.0369 -0.03697,-0.0739l0,-0.037l0,-0.2587c-0.14787,0 -0.29575,-0.0369 -0.44362,-0.0369c-0.11091,0 -0.22181,-0.037 -0.33272,-0.037c-0.07394,0 -0.1109,-0.0369 -0.18484,-0.0369c-0.03697,0 -0.03697,0 -0.07394,-0.037c-0.03697,0 -0.03697,0 -0.07394,-0.037c0,0 -0.03696,-0.0369 -0.07393,-0.0369c-0.03697,-0.037 -0.03697,-0.0739 -0.03697,-0.1109l-0.03697,-0.887c-0.03697,0 -0.03697,0 -0.07394,0c-0.07393,0 -0.14787,-0.0739 -0.14787,-0.1478l0,-73.88l-1.10906,-0.5914c-0.07394,-0.0369 -0.14787,-0.0739 -0.18484,-0.1478c-0.03697,-0.0739 -0.07394,-0.1478 -0.11091,-0.2218c-0.07393,-0.1478 -0.07393,-0.2956 -0.07393,-0.4804c0.03696,-0.2957 0.1109,-0.6283 0.18484,-0.924l1.2939,-4.80458l0,-1.88488c0,-0.03696 0,-0.03696 0,-0.07392c0,0 0.03697,-0.03696 0.03697,-0.07392c0.07393,-0.07392 0.18484,-0.11087 0.51756,-0.14783l0.85027,-3.14147c0.07394,-0.22175 0.11091,-0.4435 0.22182,-0.70221c0.1109,-0.25871 0.22181,-0.48046 0.36968,-0.6283c0.07394,-0.11087 0.14788,-0.18479 0.25878,-0.25871c0.11091,-0.07391 0.18484,-0.14783 0.33272,-0.22175c0.22181,-0.11087 0.48059,-0.14783 0.73937,-0.14783l13.6044,-1.14571c0.1109,-0.00001 0.2218,-0.00001 0.3328,-0.00001zm0,-0.36958c-0.1479,0 -0.2588,0 -0.3697,0.03696l-13.60447,1.14571c-0.29575,0.03696 -0.55453,0.03696 -0.85028,0.18479c-0.14787,0.07392 -0.25878,0.14784 -0.40665,0.25871c-0.11091,0.11088 -0.22181,0.1848 -0.29575,0.33263c-0.14787,0.22175 -0.29575,0.4435 -0.40665,0.73917c-0.11091,0.25871 -0.14788,0.51742 -0.22181,0.73917l-0.77634,2.91972c-0.25878,0.03696 -0.36969,0.11087 -0.4806,0.22175c-0.07393,0.03696 -0.1109,0.14783 -0.1109,0.14783c-0.07394,0.03696 -0.11091,0.14784 -0.11091,0.22175l0,1.81097l-1.2939,4.76764c-0.07393,0.2957 -0.18484,0.6653 -0.18484,0.9979c0,0.2217 0,0.4435 0.07394,0.6283c0.03697,0.1109 0.1109,0.2217 0.18484,0.3326c0.07394,0.1109 0.18484,0.1848 0.33272,0.2587l0.88724,0.4435l-0.03697,73.6952c0,0.1848 0.11091,0.3326 0.25878,0.4435l0.03697,0.6283l0,0.037l0,0.0369c0,0.1109 0.07394,0.1848 0.14788,0.2587c0.03697,0.037 0.1109,0.1109 0.14787,0.1109c0.03697,0.037 0.07394,0.037 0.11091,0.037c0.03697,0 0.07393,0.0369 0.1109,0.0369c0.07394,0.037 0.14788,0.037 0.22181,0.037c0.11091,0.037 0.22182,0.037 0.36969,0.0739c0.03697,0 0.07394,0 0.11091,0c0,0.037 0,0.0739 0.03696,0.1109c0,0.0369 0.03697,0.1109 0.11091,0.1848c0.03697,0.0369 0.07394,0.0739 0.14787,0.1109c0.07394,0.0369 0.14788,0.0369 0.18485,0.0739c0.07393,0 0.1109,0.0369 0.18484,0.0369c0.07394,0 0.14787,0.037 0.22181,0.037c0.18484,0 0.36969,0.0369 0.5915,0.0369c0.33272,0 0.7024,0.037 1.14602,0.037l0.22182,0l0.1109,0l0.03697,0c0.07394,0 0.18484,0 0.29575,0l0.18484,0c0.11091,0 0.25878,0 0.36969,0l0.1109,0c0.14788,0 0.25878,0 0.40666,0l0.07393,0l0.03697,0c0.11091,0 0.22181,0 0.33272,-0.037l0.03697,0l0.03697,0c0.14787,0 0.29575,-0.0369 0.48059,-0.0369c0.07394,0 0.14787,-0.037 0.22181,-0.037l39.59336,3.0676c0.1479,0 0.2588,0.0369 0.4066,0.0369l0,0.037l0.037,0.037c0.037,0.0739 0.0739,0.1478 0.1109,0.1848c0.037,0.0369 0.1109,0.0739 0.1479,0.1108c0.0739,0.037 0.1479,0.0739 0.1848,0.0739c0.074,0 0.1479,0.037 0.2218,0.037c0.074,0 0.1479,0.037 0.2588,0.037c0.1849,0.0369 0.3697,0.0369 0.6285,0.0369c0.3697,0.037 0.8133,0.037 1.2569,0.037c0.1479,0 0.2588,0 0.4067,0c0.8133,0 1.5896,-0.037 2.1441,-0.0739c0.1479,0 0.2958,-0.037 0.4806,-0.037c0.1109,0 0.1849,-0.037 0.2588,-0.037c0.074,0 0.1479,-0.0369 0.1849,-0.0739c0.0739,-0.0369 0.1109,-0.0739 0.1478,-0.1108c0.074,-0.074 0.1109,-0.1848 0.1109,-0.2957c0,0 0,0 0.037,0c0.1479,0 0.3327,-0.037 0.4806,-0.037l37.5231,-3.2893l0.037,0c0.0739,0 0.1478,0 0.2218,0.037c0.1848,0 0.3697,0.0369 0.5915,0.0369c0.3697,0.037 0.7394,0.037 1.183,0.037c0.0739,0 0.2588,0 0.4436,0c0.5176,0 1.2939,0 1.9224,-0.0739c0.0739,0 0.2218,-0.037 0.3696,-0.037c0.074,0 0.1479,-0.0369 0.2219,-0.0369c0.0369,0 0.1109,-0.037 0.1848,-0.074c0.1109,-0.0739 0.2218,-0.2217 0.2218,-0.3695c0.074,0 0.1479,0 0.2218,-0.037c0.1109,0 0.2218,-0.037 0.3327,-0.0739c0.074,0 0.1479,-0.037 0.1849,-0.037c0.037,0 0.0739,-0.0369 0.1109,-0.0369c0.037,0 0.0739,-0.037 0.1109,-0.0739c0.037,-0.037 0.1109,-0.074 0.1479,-0.1109c0.0369,-0.037 0.0369,-0.0739 0.0739,-0.1109l0,-0.037l0,-0.0369c0,-0.037 0.037,-0.0739 0.037,-0.1479l0.0369,-0.6282c0.1479,-0.1109 0.2219,-0.2588 0.2219,-0.4435l-0.037,-82.3805c0,-0.07391 0,-0.14783 -0.037,-0.22175c-0.0369,-0.07391 -0.0739,-0.11087 -0.1109,-0.14783l-0.037,-0.03696c-0.1109,-0.11088 -0.3327,-0.22175 -0.8872,-0.29567c-0.2218,-0.03696 -0.4436,-0.03696 -0.6285,-0.07391l-42.5138,-3.62194c-0.3327,-0.03695 -0.6655,-0.03695 -0.9982,-0.07391c-0.1479,0 -0.2957,0 -0.4806,-0.03696c-0.1848,0 -0.3327,0 -0.5175,-0.03696c-0.6655,-0.03696 -1.2939,-0.03696 -1.9594,-0.03696l-0.0739,0l-0.0739,0c-0.1109,0 -0.2218,0 -0.3328,0c-0.1478,0 -0.3327,0 -0.4805,0c-0.3328,0 -0.6655,0 -0.9982,0.03696c-0.1848,0 -0.3327,0 -0.5176,0c-0.1478,0 -0.2957,0 -0.4805,0.03696c-0.3328,0 -0.6655,0.03696 -0.9982,0.07392l-0.7024,0.03695c-0.037,0 -0.037,0 -0.0739,0l-0.037,0l-0.037,0l-0.0369,0l-14.3069,1.0718l0,-0.18479c0,-0.07392 0,-0.14784 -0.0369,-0.22175l0,-0.03696l-0.074,-0.07392l-0.037,-0.03696c-0.1109,-0.11087 -0.2957,-0.14783 -0.6284,-0.18479c-0.1479,0 -0.2588,-0.03696 -0.4436,-0.03696c-0.7764,-0.07391 -1.7006,-0.07391 -2.1812,-0.07391c-0.1109,0 -0.1848,0 -0.2588,0c-0.4436,0 -0.8502,0 -1.2199,0.03695c-0.2588,0 -0.4437,0.03696 -0.6285,0.03696c-0.0739,0 -0.1479,0 -0.2588,0.03696c-0.0739,0 -0.1479,0.03696 -0.1848,0.03696c-0.037,0 -0.1109,0.03696 -0.1849,0.03696c-0.0369,0 -0.0739,0.03696 -0.0739,0.03696l-0.037,0l-0.0739,0.07391l-0.037,0.03696l-0.0739,0.07392l0,0.03696c-0.037,0.07391 -0.0739,0.14783 -0.0739,0.25871l0,0.55437c0,0.07392 0,0.11088 0.0369,0.1848l-5.4344,0.40654l0.4806,-1.92184l0.037,-0.11088c0.0739,-0.25871 0.1479,-0.55437 0.1479,-0.85004c0,-0.22175 0,-0.4435 -0.074,-0.59134c-0.0739,-0.25871 -0.2587,-0.48046 -0.4806,-0.59133l-1.109,-0.6283c-0.1479,-0.11087 -0.3327,-0.18479 -0.5545,-0.18479c-0.037,0 -0.074,0 -0.1109,0z"/>
   <path id="svg_45" fill="#D8D8D8" d="m1.92158,14.3769l0.55453,-0.037l12.01479,-0.7392l0.8503,-0.0369c0.1478,0 0.2588,-0.1109 0.2957,-0.2218l0.3327,-1.2935l2.403,-9.16571l0.2957,-1.03484c0.037,-0.11088 0,-0.22175 -0.0739,-0.29567c-0.0739,-0.07392 -0.1848,-0.11087 -0.2588,-0.11087l-0.5915,0.07391l-12.01476,0.99788l-0.81331,0.07392c-0.14787,0 -0.25878,0.11087 -0.29574,0.22175l-0.33272,1.25659l-2.40296,8.90704l-0.25878,0.9978c-0.03697,0.1109 0,0.2218 0.07394,0.2957c0.03697,0.0739 0.14787,0.1109 0.22181,0.1109zm9.90762,-7.13301c0.0369,0.03696 0.0369,0.07392 0,0.07392l-1.6636,1.55225l-0.037,0c0,0 -0.037,0 -0.037,-0.03696c-0.0369,-0.03696 -0.0369,-0.07391 0,-0.07391l1.6636,-1.55226c0,0 0.037,0 0.074,0.03696zm-4.14052,1.73705l3.43812,-3.40018c0.0369,-0.03696 0.0739,-0.03696 0.0739,0c0.037,0.03696 0.037,0.07391 0,0.07391l-3.43809,3.40018l-0.03696,0l-0.03697,0c-0.03697,-0.03695 -0.03697,-0.07391 0,-0.07391z" opacity="0.2"/>
   <path id="svg_46" fill="#D8D8D8" d="m40.7761,6.13477l-0.3327,0.03695l0,0.29567l0.3327,-0.03696l0,-0.29566z" opacity="0.2"/>
   <path id="svg_47" fill="#D8D8D8" d="m38.8535,7.35502l0.3697,0l0,-0.11088l-0.3697,0.03696l0,0.07392z" opacity="0.2"/>
   <path id="svg_48" fill="#D8D8D8" d="m26.9129,4.06579c0.074,0 0.1849,-0.03695 0.2588,-0.03695c0.1849,0 0.3697,-0.03696 0.5915,-0.03696c0.3697,-0.03696 0.7764,-0.03696 1.22,-0.03696c0.8872,0 1.7745,0.03696 2.4399,0.07392c0,0 0,0 0.037,0l0,0.29566l0.7393,-0.07391l0,-0.59134l-0.0369,-0.03696c0,0 -0.074,-0.03696 -0.3697,-0.07391c-0.1109,0 -0.2588,-0.03696 -0.4436,-0.03696c-0.8873,-0.07392 -1.9594,-0.07392 -2.366,-0.07392c-0.4436,0 -0.8503,0 -1.183,0.03696c-0.2218,0 -0.4067,0.03696 -0.5915,0.03696c-0.074,0 -0.1479,0 -0.2218,0.03696c-0.074,0 -0.1109,0 -0.1849,0.03695c-0.0369,0 -0.0739,0 -0.1109,0.03696l-0.0369,0l-0.037,0.03696l0,0.40654c0.037,0 0.037,0 0.0739,0c0.1109,0.03696 0.1849,0.03696 0.2218,0z" opacity="0.2"/>
   <path id="svg_49" fill="#D8D8D8" d="m27.541,4.6932l3.8448,-0.29567l0,-0.22175l-3.8448,0.29567l0,0.22175z" opacity="0.2"/>
   <path id="svg_50" fill="#D8D8D8" d="m30.4993,4.10336c-0.4806,0 -0.9612,-0.03695 -1.4787,-0.03695c-0.4437,0 -0.8503,0 -1.22,0.03695c-0.2218,0 -0.4436,0.03696 -0.5915,0.03696c-0.0739,0 -0.1848,0 -0.2588,0.03696c-0.0739,0 -0.1109,0 -0.1848,0.03696l-0.037,0c0.037,0 0.074,0 0.1109,0.03696c0.074,0 0.1479,0.03696 0.2218,0.03696c0.1109,0 0.2588,0.03696 0.4437,0.03696l2.9944,-0.22176z" opacity="0.2"/>
   <path id="svg_51" fill="#D8D8D8" d="m39.5195,7.31715l0.3328,-0.03696l0,-0.25871l-0.3328,0l0,0.29567z" opacity="0.2"/>
   <path id="svg_52" fill="#D8D8D8" d="m38.7072,6.24579c0,0 0,-0.03696 0,0c0,-0.03696 0,-0.03696 0,-0.03696l0,-0.03695l-0.037,0l-0.037,0c-0.0369,0 -0.0369,0 -0.0739,0c-0.1109,0 -0.2218,-0.00001 -0.3327,0.03695c0,0.03696 0,0.11088 0,0.14784c0.1478,0 0.3327,-0.03696 0.4806,-0.03696c0,-0.03696 0,-0.03696 0,-0.07392z" opacity="0.2"/>
   <path id="svg_53" fill="#D8D8D8" d="m18.7793,10.9764l1.8115,-0.1109c0.1109,0 0.2587,-0.0369 0.3696,-0.1109c-0.0739,0.037 -0.1848,0.074 -0.2587,0.074c-0.037,0 -0.1109,0 -0.1479,0c-0.1479,0 -0.2958,-0.037 -0.4436,-0.1109c-0.1849,-0.0739 -0.3328,-0.1848 -0.4806,-0.3696c-0.2218,-0.2218 -0.3697,-0.51743 -0.4806,-0.85005l-0.3697,1.47835z" opacity="0.2"/>
   <path id="svg_54" fill="#D8D8D8" d="m2.18164,7.02133l0,0.66526l0.18484,-0.70221c-0.1109,-0.00001 -0.14787,0.03695 -0.18484,0.03695z" opacity="0.2"/>
   <path id="svg_55" fill="#D8D8D8" d="m20.7035,6.98603c-0.0739,-0.03696 -0.1848,-0.03696 -0.2588,-0.07392c-0.0369,0 -0.1109,0 -0.1478,0l-0.4806,0.03696l-0.037,0.18479c0.2218,-0.14783 0.4436,-0.22175 0.7024,-0.18479c0.0739,0 0.1479,0 0.2218,0.03696z" opacity="0.2"/>
   <path id="svg_56" fill="#D8D8D8" d="m19.1875,9.31428c0.0739,0.36959 0.2588,0.73922 0.4806,0.99792c0.1479,0.1478 0.2957,0.2587 0.4436,0.3326c0.1849,0.0739 0.3697,0.1109 0.5176,0.0739c0.1848,-0.037 0.3327,-0.1109 0.4806,-0.2217c0.1478,-0.1109 0.2587,-0.2588 0.3697,-0.4066c0.1848,-0.29566 0.2587,-0.7022 0.2587,-1.07179c0,-0.29566 -0.0369,-0.59133 -0.1478,-0.85004c-0.1109,-0.29567 -0.2588,-0.51742 -0.4437,-0.73917c-0.1478,-0.14783 -0.4066,-0.33263 -0.7393,-0.36958c-0.2588,-0.03696 -0.5176,0.07391 -0.7394,0.2587l-0.4806,1.99576z" opacity="0.2"/>
   <path id="svg_57" fill="#D8D8D8" d="m38.7441,6.43164c-0.0739,0 -0.1109,0 -0.1848,0c-0.1109,0 -0.2218,0 -0.3327,0.03696c0,0.03696 0,0.11087 0,0.14783c0.1848,0 0.3327,-0.03696 0.5175,-0.03696c0,-0.03695 0,-0.03695 0,-0.07391c0,0 0,-0.03696 0,-0.07392c0,0.03696 0,0.03696 0,0z" opacity="0.2"/>
   <path id="svg_58" fill="#D8D8D8" d="m19.8528,6.83813l0.4437,-0.03696c0.0739,0 0.1109,0 0.1848,0c0.2218,0 0.4436,0.11088 0.6654,0.25871c0.1849,0.11088 0.3328,0.29567 0.4806,0.51742c0.2588,0.36959 0.3697,0.85005 0.4067,1.29355c0.0369,0.48046 -0.074,0.96092 -0.2958,1.33055c-0.1109,0.2217 -0.2587,0.4065 -0.4436,0.5174c-0.1848,0.1478 -0.4436,0.2217 -0.6654,0.2587l-1.8485,0.1109l-0.5545,2.1435c-0.0739,0.2218 -0.1109,0.4805 -0.2218,0.7392c-0.1109,0.2587 -0.2218,0.4805 -0.3697,0.6653c-0.0739,0.1108 -0.1848,0.1848 -0.2588,0.2956c-0.1109,0.074 -0.2218,0.1479 -0.3327,0.2218c-0.1109,0.0369 -0.2218,0.0739 -0.3697,0.1109c-0.1478,0.0369 -0.2587,0.0369 -0.3697,0.0369l-12.01474,0.7022l0,2.2175l42.73564,-2.3283l0,-12.34417l-26.8392,1.99576l-0.3327,1.29354zm19.4825,0.22175c0,0.03696 0,0.07392 0,0.14784c0,0.07391 0,0.18479 0,0.25871c-0.1109,0 -0.2218,0 -0.3327,0.03695c-0.037,0 -0.111,0 -0.1479,0l-0.037,0c-0.037,0 -0.037,-0.07391 -0.037,-0.07391l0,-0.03696l0,-0.03696l0,-0.03696c0,-0.03696 0,-0.03696 0,-0.07391c0,-0.03696 0.037,-0.03696 0.037,-0.07392l0.037,0l0.0369,0c0.111,0 0.2219,0 0.3328,-0.03696c0,-0.03696 0,-0.07392 0,-0.07392c-0.1479,0 -0.2958,0.03696 -0.4437,0.03696c0,-0.03696 0,-0.07392 0,-0.11087c0.074,0 0.1849,0 0.2588,0c0.037,0 0.074,0 0.1479,0l0.037,0c0,0 0,0 0.0369,0c0.037,0 0.037,0 0.074,0.03695c0.0369,0 0.0369,0.03696 0.0369,0.07392c-0.0369,-0.07392 -0.0369,-0.07392 -0.0369,-0.03696zm0.6654,0.14784l0,0.03696c0,0.03695 0,0.11087 -0.037,0.14783l-0.0369,0.03696c0,0 0,0 -0.037,0l-0.037,0c-0.0369,0 -0.0369,0 -0.0739,0c-0.1109,0 -0.2588,0 -0.3697,0.03696c0,-0.22175 0,-0.44351 0,-0.66526c0.037,0 0.0739,0 0.1109,0c0,0.03696 0,0.07392 0,0.11088c0.074,0 0.1109,0 0.1849,0c0.0369,0 0.0739,0 0.0739,0l0.037,0c0,0 0,0 0.0369,0l0.037,0c0.037,0 0.037,0.03696 0.0739,0.03696c0,0.03696 0.037,0.07391 0.037,0.11087c0,0.03696 0,0.07392 0,0.14784zm4.3623,-1.33051l0.4066,-0.25871l0.1479,0l0,1.44138l-0.2588,0l0,-1.21963l-0.3327,0.1848l0,-0.14784l0.037,0zm-1.8115,-0.11087c0.1849,0.22175 0.3697,0.4435 0.5546,0.66525c0.1848,-0.25871 0.3696,-0.48046 0.5175,-0.73917c0.1109,0 0.2218,0 0.3327,-0.03696c-0.1848,0.25871 -0.3696,0.51742 -0.5545,0.77613c0.1849,0.22175 0.3697,0.4435 0.5545,0.70221c-0.1109,0 -0.2218,0 -0.3327,0.03696c-0.0739,-0.11088 -0.1848,-0.22175 -0.2588,-0.33263c-0.0369,-0.07392 -0.0739,-0.11087 -0.1478,-0.18479c-0.037,-0.03696 -0.037,-0.07392 -0.074,-0.07392c0,-0.03696 -0.0369,-0.03696 -0.0369,-0.07391c-0.1849,0.2587 -0.3697,0.48046 -0.5546,0.73917c-0.1109,0 -0.2218,0 -0.3327,0.03695c0.1849,-0.25871 0.3697,-0.51742 0.5545,-0.77612c0,-0.03696 -0.0369,-0.03696 -0.0369,-0.07392c-0.037,-0.03696 -0.037,-0.07392 -0.074,-0.07392c-0.0369,-0.07391 -0.1109,-0.11087 -0.1478,-0.18479c-0.1109,-0.11088 -0.1849,-0.22175 -0.2958,-0.33263c0.1109,-0.03696 0.2218,-0.03696 0.3327,-0.07391zm-1.5526,0.66525c0,-0.03696 0,-0.11088 0,-0.14784c0,-0.11087 0,-0.18479 0,-0.29566c0.0369,0 0.0739,0 0.1478,0c0,0.14783 0,0.29566 0,0.4435c0.1109,0 0.2218,0 0.3327,-0.03696c0,-0.14783 0,-0.29567 0,-0.4435c0.037,0 0.074,0 0.1479,0c0,0.18479 0,0.36958 0,0.55438c-0.1109,0 -0.1848,0 -0.2957,0.03695c-0.037,0 -0.1109,0 -0.1479,0c-0.037,0 -0.037,0 -0.0739,0l-0.037,0l-0.037,0c-0.0369,0 -0.0369,-0.03695 -0.0369,-0.07391l0,-0.03696zm-0.6655,-0.48046c0.037,0 0.074,0 0.1109,0c0,0.03696 0,0.07392 0,0.11087c0.074,0 0.1109,0 0.1849,0c0.0369,0 0.0739,0 0.0739,0l0.037,0c0,0 0,0 0.0369,0l0.037,0c0.037,0 0.037,0.03696 0.074,0.03696c0,0.03696 0.0369,0.07392 0.0369,0.11088c0,0.07391 0,0.11087 0,0.18479l0,0.03696c0,0.03696 0,0.11087 -0.0369,0.14783l-0.037,0.03696c0,0 0,0 -0.037,0l-0.037,0c-0.0369,0 -0.0369,0 -0.0739,0c-0.1109,0 -0.2588,0 -0.3697,0.03696c0,-0.29567 0,-0.48046 0,-0.70221zm-0.7393,0.14783c0.1848,0 0.3696,-0.03696 0.5914,-0.03696c0.037,0 0.037,0 0.074,0.03696c0,0.03696 0.037,0.03696 0.037,0.07392l0,0.03696l0,0.03696c0,0.03695 0,0.03696 0,0.07391c0,0.11088 0,0.1848 0,0.29567c-0.037,0 -0.074,0 -0.1479,0c0,-0.14783 0,-0.29567 0,-0.40654c-0.037,0 -0.074,0 -0.1479,0c0,0.14783 0,0.29567 0,0.40654c-0.037,0 -0.0739,0 -0.1479,0c0,-0.14783 0,-0.29567 0,-0.40654c-0.0369,0 -0.0739,0 -0.1478,0c0,0.14783 0,0.29567 0,0.40654c-0.037,0 -0.074,0 -0.1479,0c0.037,-0.14783 0.037,-0.33263 0.037,-0.51742zm-0.6655,0.40655c0,-0.03696 0,-0.07392 0,-0.11088c0,-0.03696 0.037,-0.03696 0.037,-0.07392l0.037,0c0,0 0.2587,-0.03696 0.3696,-0.03696c0,-0.03695 0,-0.07391 0,-0.07391c-0.1478,0 -0.2957,0.03696 -0.4436,0.03696c0,-0.03696 0,-0.07392 0,-0.11088c0.074,0 0.1849,0 0.2588,-0.03696c0.037,0 0.0739,0 0.1479,0l0.0369,0c0,0 0,0 0.037,0c0.037,0 0.037,0 0.0739,0.03696c0.037,0 0.037,0.03696 0.037,0.07392l0,0.03696c0,0.03695 0,0.07391 0,0.14783c0,0.07392 0,0.18479 0,0.25871c-0.1109,0 -0.2218,0 -0.3327,0.03696c-0.037,0 -0.1109,0 -0.1479,0l-0.0369,0c-0.037,0 -0.037,-0.07392 -0.037,-0.07392c-0.037,-0.03696 -0.037,-0.03696 -0.037,-0.11087c0,0.03695 0,0.03695 0,0zm-0.8133,-0.40655c0.1479,0 0.6285,-0.03696 0.6654,-0.03696c0,0 0,0 0.037,0c0.037,0 0.037,0 0.037,0.03696c0,0.03696 0.0369,0.03696 0.0369,0.07392l0,0.03696c0,0.03696 0,0.07392 0,0.11087c0.037,0.03696 0.037,0.07392 0.037,0.07392c0,0.03696 0,0.07392 0,0.11088c0,0.07391 0,0.14783 0,0.18479c-0.2588,0 -0.5175,0.03696 -0.7763,0.03696c-0.037,-0.1848 -0.037,-0.40655 -0.037,-0.6283zm0,1.29355c0,-0.03696 0,-0.03696 0,-0.07392c0,-0.03696 0,-0.11087 0,-0.14783c0,-0.11088 0,-0.18479 0,-0.29567c0.037,0 0.0739,0 0.1479,0c0,0.18479 0,0.33263 0,0.51742c0,0 0,0 0,0.03696c0.037,0 0.037,0 0.0739,0c0.037,0 0.074,0 0.1109,0c0.074,0 0.1849,0 0.2588,0c0,0.03696 0,0.07391 0,0.11087c-0.1109,0 -0.1848,0 -0.2957,0.03696c-0.037,0 -0.1109,0 -0.1479,0l-0.037,0l-0.037,0c-0.0369,0 -0.0369,-0.03696 -0.0369,-0.03696c-0.037,-0.07391 -0.037,-0.11087 -0.037,-0.14783c0,0.03696 0,0 0,0z" opacity="0.2"/>
   <path id="svg_59" fill="#D8D8D8" d="m4.17759,90.1049c0,0.037 0,0.037 -0.03697,0.0739l42.88358,3.2524c0,-0.037 0,-0.037 0,-0.0739l0,-5.3221l-42.84661,-2.8457l0,4.9154z" opacity="0.2"/>
   <path id="svg_60" fill="#D8D8D8" d="m10.1286,18.7012c0.037,0.0369 0.037,0.0739 0.074,0.1108c0.0739,0.1848 0.1478,0.4066 0.1109,0.6283c0,0.2218 -0.074,0.4435 -0.1479,0.6283c-0.037,0.0739 -0.0739,0.1109 -0.1109,0.1848c0.0739,-0.0369 0.1479,-0.1109 0.1848,-0.2217c0.074,-0.1479 0.1479,-0.3696 0.1479,-0.5544c0,-0.2218 -0.037,-0.4065 -0.1109,-0.5544c-0.037,-0.1109 -0.0739,-0.1478 -0.1479,-0.2217z" opacity="0.2"/>
   <path id="svg_61" fill="#D8D8D8" d="m10.2412,19.4397c0,-0.2217 -0.037,-0.4065 -0.1109,-0.5543c-0.037,-0.074 -0.111,-0.1848 -0.18489,-0.2218c-0.07394,-0.0739 -0.14788,-0.1109 -0.25878,-0.1109l-0.03697,0c-0.14787,0 -0.22181,0.074 -0.29575,0.1479c-0.07394,0.0739 -0.14787,0.1848 -0.18484,0.2956l0,0.037c-0.07394,0.2217 -0.11091,0.5174 -0.03697,0.7761l0,0.037c0.03697,0.1109 0.07394,0.2217 0.18484,0.3326c0.07394,0.0739 0.18485,0.1478 0.33272,0.1478c0.07394,0 0.18484,-0.0369 0.25878,-0.1108c0.07394,-0.037 0.11086,-0.1109 0.18486,-0.2218c0.0739,-0.1478 0.1109,-0.3326 0.1479,-0.5544z" opacity="0.2"/>
   <path id="svg_62" fill="#D8D8D8" d="m6.988,18.8867c0.03697,0.037 0.03697,0.0739 0.07394,0.1109c0.07393,0.1848 0.14787,0.4065 0.1109,0.6283c0,0.2217 -0.07394,0.4435 -0.14787,0.6283c-0.03697,0.0739 -0.07394,0.1109 -0.11091,0.1848c0.07394,-0.037 0.11091,-0.1109 0.18484,-0.2218c0.07394,-0.1478 0.14788,-0.3696 0.14788,-0.5544c0,-0.2217 -0.03697,-0.4065 -0.11091,-0.5543c-0.03697,-0.1109 -0.1109,-0.1848 -0.14787,-0.2218z" opacity="0.2"/>
   <path id="svg_63" fill="#D8D8D8" d="m9.98073,83.4898c-0.03697,-0.037 -0.07393,-0.0739 -0.14787,-0.037c-0.11091,0 -0.18484,0.1109 -0.22181,0.1848c-0.03697,0.0739 -0.07394,0.2218 -0.07394,0.3326c0,0.1479 0.03697,0.2587 0.07394,0.3696c0.03697,0.0739 0.07393,0.1109 0.1109,0.1479c0.03697,0.0369 0.07394,0.0369 0.14788,0.0369c0.1109,0 0.18487,-0.1109 0.22177,-0.1848c0.037,-0.0739 0.074,-0.2217 0.074,-0.3326c0,-0.1478 -0.037,-0.2587 -0.074,-0.3696c-0.0369,-0.0739 -0.0739,-0.1109 -0.11087,-0.1478z" opacity="0.2"/>
   <path id="svg_64" fill="#D8D8D8" d="m7.06098,19.6253c0,-0.1848 -0.03697,-0.4066 -0.11091,-0.5544c-0.03697,-0.0739 -0.11091,-0.1478 -0.18484,-0.2217c-0.07394,-0.074 -0.14788,-0.1109 -0.22181,-0.1109c0,0 0,0 -0.03697,0c0,0 0,0 -0.03697,0c-0.11091,0 -0.22181,0.0739 -0.29575,0.1478c-0.07394,0.0739 -0.14787,0.1848 -0.18484,0.2957c-0.11091,0.2587 -0.11091,0.5544 -0.03697,0.7761l0,0.037c0.03697,0.1478 0.11091,0.2587 0.18484,0.3326c0.07394,0.0739 0.18484,0.1478 0.33272,0.1478c0.07394,0 0.14787,-0.0369 0.25878,-0.1108c0.07394,-0.037 0.1109,-0.1109 0.18484,-0.2218c0.11091,-0.1109 0.14788,-0.3326 0.14788,-0.5174z" opacity="0.2"/>
   <path id="svg_65" fill="#D8D8D8" d="m46.9139,47.418c0,0 0.037,0 0.037,0.0369c0.1479,0.0739 0.2588,0.2218 0.3327,0.3696c0.1479,0.2587 0.2588,0.5913 0.2588,0.9609c0,0.3327 -0.0739,0.6653 -0.2588,0.961c-0.1109,0.1478 -0.2218,0.2956 -0.3327,0.3695c-0.037,0 -0.037,0.037 -0.0739,0.037c0.0369,0 0.0739,0 0.1478,-0.037c0,-0.0739 0.074,-0.1478 0.1479,-0.1478c0.037,0 0.0739,0 0.0739,0.037c0,0 0,0 0.037,0c0.1109,-0.074 0.2218,-0.1848 0.2958,-0.3327c0.1478,-0.2587 0.2218,-0.5543 0.2218,-0.887c0,-0.3326 -0.074,-0.6283 -0.2218,-0.887c-0.074,-0.1478 -0.1849,-0.2587 -0.2958,-0.3326c0,0 0,0 -0.037,0c-0.0369,0 -0.0369,0.037 -0.0739,0.037c-0.0739,0 -0.1479,-0.037 -0.1479,-0.1109c-0.0369,-0.0739 -0.0739,-0.0739 -0.1109,-0.0739z" opacity="0.2"/>
   <path id="svg_66" fill="#D8D8D8" d="m6.84011,83.2674c-0.03697,-0.0369 -0.07394,-0.0369 -0.14788,-0.0369c-0.1109,0 -0.18484,0.1108 -0.22181,0.1848c-0.03697,0.0739 -0.07394,0.1848 -0.07394,0.3326c0,0.1478 0.03697,0.2587 0.07394,0.3696c0.03697,0.0739 0.07394,0.1108 0.11091,0.1478c0.03697,0.037 0.07394,0.0739 0.14787,0.037c0.11091,0 0.18484,-0.1109 0.22181,-0.1848c0.03697,-0.0739 0.07394,-0.1848 0.07394,-0.3327c0,-0.1478 -0.03697,-0.2587 -0.07394,-0.3695c-0.03697,-0.037 -0.07393,-0.1109 -0.1109,-0.1479z" opacity="0.2"/>
   <path id="svg_67" fill="#D8D8D8" d="m45.6934,48.9334l0,0.074l0.2957,0l0,-0.1109l-0.2957,0.0369c0,-0.0369 0,-0.0369 0,0z" opacity="0.2"/>
   <path id="svg_68" fill="#D8D8D8" d="m43.8828,48.7109l0,0.3327l0.2218,0l0,-0.2957l-0.2218,-0.037z" opacity="0.2"/>
   <path id="svg_69" fill="#D8D8D8" d="m46.3589,47.418l-4.3253,0c-0.1479,0 -0.2958,0.0369 -0.4067,0.1478c-0.1109,0.0739 -0.2218,0.1848 -0.2957,0.3326c-0.1479,0.2587 -0.2218,0.5544 -0.2218,0.887c0,0.3327 0.0739,0.6283 0.2218,0.887c0.0739,0.1479 0.1848,0.2587 0.2957,0.3327c0.1109,0.0739 0.2588,0.1478 0.4067,0.1478l4.2883,0l0.1109,0c0.1479,0 0.2958,-0.037 0.4067,-0.1478c0.1109,-0.074 0.2218,-0.1848 0.2957,-0.3327c0.1479,-0.2587 0.2219,-0.5543 0.2219,-0.887c0,-0.3326 -0.074,-0.6283 -0.2219,-0.887c-0.0739,-0.1478 -0.1848,-0.2587 -0.2957,-0.3326c-0.1479,-0.0739 -0.2588,-0.1478 -0.4067,-0.1478l-0.0739,0zm-4.1774,1.7001l-0.4067,0l0,-0.5544l0.1109,-0.0739l0,-0.1109l-0.1109,0.0739l0,-0.1478l0.1109,-0.0739l0,0.1478c0.074,0 0.1849,0 0.2218,0c0.037,0 0.074,0 0.074,0.0369c0.0739,0.037 0.1109,0.1109 0.1109,0.2218c0,0.037 0,0.1109 -0.037,0.1478c0.037,0.037 0.037,0.1109 0.037,0.1479c0.0369,0.1108 -0.037,0.1848 -0.1109,0.1848zm0.3327,0c-0.074,0 -0.1109,-0.074 -0.1109,-0.1479l0,-0.0369c0,-0.074 0.0369,-0.1479 0.1109,-0.1479l0.3327,0l0,-0.0739l-0.3697,0l-0.037,-0.1109l0.4067,0c0.0739,0 0.1109,0.074 0.1109,0.1479l0,0.4065l-0.4436,-0.0369zm1.183,0l-0.1109,0l0,-0.4066l-0.1479,0l0,0.4435l-0.1109,0l0,-0.4435l-0.1479,0l0,0.4435l-0.1109,0l0,-0.5544l0.5545,0c0.074,0 0.1109,0.074 0.1109,0.1479l-0.0369,0.3696zm0.5545,-0.1479c0,0.0739 -0.037,0.1479 -0.1109,0.1479l-0.2588,0l-0.1109,0l0,-0.7023l0.1109,0l0,0.1479l0.2588,0c0.0739,0 0.1109,0.0739 0.1109,0.1478l0,0.2587zm0.5545,0c0,0.0739 -0.0369,0.1479 -0.1109,0.1479l-0.2588,0c-0.0739,0 -0.1109,-0.074 -0.1109,-0.1479l0,-0.4065l0.1109,0l0,0.4065l0.2588,0l0,-0.4065l0.1109,0l0,0.4065zm0.3327,0.1848l0,-0.7022l0.111,0l0,0.5544l0.2587,0l0.037,0.1478l-0.4067,0zm0.9612,0l-0.4066,0c-0.074,0 -0.1109,-0.0739 -0.1109,-0.1478l0,-0.037c0,-0.0739 0.0369,-0.1478 0.1109,-0.1478l0.2957,0l0,-0.0739l-0.3327,0l-0.037,-0.1109l0.3697,0c0.074,0 0.1109,0.0739 0.1109,0.1478l0,0.3696zm0.5176,-0.4065l0,0.2587c0,0.0739 -0.037,0.1478 -0.1109,0.1478l-0.2218,0l-0.1109,0l0,-0.7022l0.1109,0l0,0.1478l0.2588,0c0.0369,0 0.0739,0.074 0.0739,0.1479z" opacity="0.2"/>
   <path id="svg_70" fill="#D8D8D8" d="m46.2852,49.0066l0.2218,0l0,-0.2957l-0.2218,0l0,0.2957z" opacity="0.2"/>
   <path id="svg_71" fill="#D8D8D8" d="m42.5137,48.8965l0,0.1109l0.2957,0l0,-0.1109l-0.2957,0z" opacity="0.2"/>
   <path id="svg_72" fill="#D8D8D8" d="m42.1437,48.7103c0,0 0,-0.0369 0,0c0.037,-0.0369 0.0739,-0.0369 0.0739,-0.0739c0,-0.0369 0,-0.0739 -0.037,-0.0739c0,0 0.0001,0 -0.0369,0l-0.1109,0l-0.1109,0l0,0.1848l0.1109,0l0.1109,-0.037z" opacity="0.2"/>
   <path id="svg_73" fill="black" d="m47.0243,16.1875l-42.8096,2.3284l-0.03697,66.4144l42.84657,2.8458l0,-0.1109l-0.037,0c0,0 0,0 -0.0369,0c-0.037,0 -0.074,-0.0369 -0.074,-0.0739c0,-0.037 0.037,-0.037 0.074,-0.0739l0.0369,0l0,-37.3281c-0.0369,0 -0.1109,0.037 -0.1478,0.037l-0.5176,0l-4.3253,0c-0.1479,0 -0.3327,-0.037 -0.4806,-0.1479c-0.1109,-0.0739 -0.2588,-0.2217 -0.3327,-0.3696c-0.1479,-0.2587 -0.2588,-0.5913 -0.2588,-0.9239c0,-0.3326 0.0739,-0.6653 0.2588,-0.924c0.1109,-0.1478 0.2218,-0.2956 0.3327,-0.3696c0.1479,-0.1108 0.2957,-0.1478 0.4806,-0.1478l4.2883,0l0.5176,0c0.037,0 0.1109,0 0.1479,0.037l0.0739,-31.193zm-39.85211,67.5971c0,0.1108 0,0.2587 -0.07394,0.3696c-0.07393,0.1478 -0.18484,0.2217 -0.33272,0.2587c-0.07393,0 -0.14787,-0.037 -0.22181,-0.074c-0.07393,-0.0369 -0.1109,-0.1108 -0.14787,-0.1847c-0.07394,-0.1109 -0.11091,-0.2588 -0.11091,-0.4066c0,-0.1478 0.03697,-0.2587 0.07394,-0.3696c0.07394,-0.1478 0.18484,-0.2217 0.33272,-0.2587c0.07393,0 0.14787,0.037 0.22181,0.0739c0.07394,0.037 0.1109,0.1109 0.14787,0.1848c0.07394,0.1109 0.11091,0.2587 0.11091,0.4066zm0.03697,-63.5317c-0.07394,0.1109 -0.11091,0.1848 -0.22181,0.2587c-0.11091,0.074 -0.22182,0.1109 -0.29575,0.1109c0,0 0,0 -0.03697,0c-0.03697,0 -0.03697,0 -0.07394,0l-0.07394,0c0,0 0,0 -0.03696,0c-0.14788,0 -0.29575,-0.0739 -0.40666,-0.1848c-0.1109,-0.1108 -0.18484,-0.2217 -0.22181,-0.3696c-0.07394,-0.2587 -0.07394,-0.5913 0.03697,-0.887c0.03697,-0.1478 0.1109,-0.2587 0.22181,-0.3326c0.11091,-0.1109 0.22181,-0.1848 0.36969,-0.1848l0.03696,0l0.18485,0c0.1109,0 0.22181,0.037 0.29575,0.1109c0.07393,0.0739 0.14787,0.1478 0.18484,0.2587c0.07394,0.1848 0.14787,0.4065 0.11091,0.6283c0.07393,0.1848 -0.00001,0.4065 -0.07394,0.5913zm3.03144,64.123c-0.074,0.1478 -0.1849,0.2218 -0.33274,0.2587c-0.07393,0 -0.14787,-0.0369 -0.22181,-0.0739c-0.07393,-0.037 -0.1109,-0.1109 -0.14787,-0.1848c-0.07394,-0.1109 -0.11091,-0.2587 -0.11091,-0.4435c0,-0.1109 0,-0.2587 0.07394,-0.3696c0.07394,-0.1478 0.18484,-0.2217 0.33272,-0.2587c0.07393,0 0.14787,0.037 0.22177,0.0739c0.074,0.037 0.1109,0.1109 0.1479,0.1848c0.0739,0.1109 0.1109,0.2587 0.1109,0.4435c0,0.0739 0,0.2218 -0.0739,0.3696zm0.1109,-64.3078c-0.074,0.1109 -0.1479,0.1848 -0.2218,0.2588c-0.1109,0.0739 -0.22184,0.1108 -0.33274,0.1108c0,0 0,0 -0.03697,0c-0.03697,0 -0.03697,0 -0.07394,0l-0.07394,0c0,0 0,0 -0.03696,0c-0.14788,0 -0.29575,-0.0739 -0.40666,-0.1848c-0.1109,-0.1108 -0.18484,-0.2587 -0.22181,-0.4065l0,-0.037c-0.07394,-0.2587 -0.07394,-0.5913 0.03697,-0.85c0.03697,-0.1478 0.1109,-0.2587 0.22181,-0.3326c0.11091,-0.1109 0.25878,-0.1848 0.36969,-0.1848l0.03696,0l0.18485,0c0.1109,0 0.22184,0.0369 0.33274,0.1108c0.0739,0.074 0.1478,0.1479 0.1848,0.2588c0.074,0.1847 0.1479,0.4065 0.1479,0.6282c0.037,0.2588 0,0.4805 -0.1109,0.6283z" opacity="0.3"/>
   <path id="svg_74" fill="#D8D8D8" d="m42.1435,48.8223l-0.0739,0l-0.037,0l-0.1478,0l0,0.1848l0.1478,0l0.1109,0c0.037,0 0.074,-0.037 0.074,-0.1109c0,-0.037 0,-0.0739 -0.037,-0.0739c0,0 0,0 -0.037,0z" opacity="0.2"/>
   <path id="svg_75" fill="#D8D8D8" d="m39.4089,6.43164l-0.3327,0.03696l0,0.11087l0.3327,-0.03695l0,-0.11088z" opacity="0.2"/>
   <path id="svg_76" fill="#D8D8D8" d="m98.2248,89.9198l-42.4769,3.6589c-0.5915,0.0369 -1.183,0.0739 -1.9594,0.1108c-0.6654,0.037 -1.2939,0.037 -1.9593,0.037c-0.037,0 -0.1109,0 -0.1479,0c-0.1109,0 -0.2218,0 -0.3327,0c-0.1479,0 -0.3327,0 -0.4806,0c-0.3327,0 -0.6654,0 -0.9612,-0.037c-0.3327,0 -0.6654,-0.0369 -0.9612,-0.0369c-0.3327,0 -0.6654,-0.037 -0.9611,-0.0739l-0.7394,-0.037l-0.037,0l-0.0369,0l-0.037,0c0,0.037 -0.037,0.037 -0.074,0.037l-42.99441,-3.2524c-0.03697,0 -0.03697,-0.0369 -0.03697,-0.0369c0,0 0,0 -0.03697,0l-0.5915,-0.037c-0.22181,0 -0.44362,-0.037 -0.7024,-0.0739c-0.1109,0 -0.22181,-0.037 -0.33272,-0.037l0.03697,0.7392l0.03697,0c0.03697,0 0.11091,0.0369 0.14788,0.0369c0.1109,0.037 0.22181,0.037 0.33271,0.037c0.22181,0.037 0.44363,0.037 0.66544,0.0739l44.5841,3.4741c0.2957,0.037 0.6285,0.037 0.9242,0.0739c0.2958,0 0.6285,0.037 0.9242,0.037c0.2958,0 0.6285,0 0.9242,0.037c0.2958,0 0.6285,0 0.9243,0c0.5915,0 1.2199,-0.0001 1.8484,-0.037c0.2957,0 0.6285,-0.037 0.9242,-0.037c0.1479,0 0.2958,-0.0369 0.4436,-0.0369c0.1479,0 0.3327,-0.037 0.4806,-0.037l42.4769,-3.7328c0.1849,0 0.4067,-0.0369 0.5915,-0.0739c0.1109,0 0.1849,-0.037 0.2958,-0.037c0.0369,0 0.0739,-0.0369 0.1478,-0.0369c0,0 0,0 0.037,0l0.037,-0.7392c-0.074,0 -0.1479,0.037 -0.2588,0.037c-0.2588,-0.037 -0.4806,0 -0.6654,0z" opacity="0.2"/>
   <path id="svg_77" fill="#D8D8D8" d="m85.1749,51.5566l-0.7394,0l0,0.9979l0.7394,0l0.037,-0.0369l0,-0.924c-0.037,0 -0.037,-0.037 -0.037,-0.037z" opacity="0.2"/>
   <path id="svg_78" fill="#D8D8D8" d="m98.7806,7.16985c-0.2218,-0.03696 -0.4067,-0.03695 -0.6285,-0.07391l-42.4399,-3.62193c-0.3327,-0.03696 -0.6285,-0.03696 -0.9612,-0.07392c-0.1479,0 -0.2958,0 -0.4436,-0.03696c-0.1849,0 -0.3327,0 -0.5176,-0.03696c-0.6285,0.03696 -1.2939,0 -1.9224,0c-0.1478,0 -0.3327,0 -0.4805,0c-0.1479,0 -0.3328,0 -0.4806,0c-0.3328,0 -0.6285,0 -0.9612,0.03696c-0.1849,0 -0.3327,0 -0.5176,0c-0.1479,0 -0.2957,0 -0.4436,0.03696c-0.3327,0 -0.6285,0.03696 -0.9612,0.07392l-0.7024,0.03695l0,12.49194l0,31.3778l0.037,0c0.1479,0.0739 0.2588,0.2217 0.3327,0.3696c0.1479,0.2587 0.2588,0.5913 0.2588,0.9609c0,0.3326 -0.074,0.7022 -0.2588,0.9609c-0.1109,0.1478 -0.2218,0.2957 -0.3327,0.3696l-0.037,0l0,43.2784l0,0.0369l0.6654,0.037c0.3328,0.0369 0.6285,0.0369 0.9612,0.0739c0.3327,0 0.6655,0.037 0.9612,0.037c0.1849,0 0.3697,0 0.5545,0c0.037,-0.037 0.074,-0.037 0.074,0c0.1109,0 0.2218,0 0.3327,0c0.1479,0 0.3327,0 0.4806,0c0.1479,0 0.3327,0 0.4806,0c0.6284,0 1.2939,0 1.9593,-0.037c0.7394,-0.037 1.3309,-0.0739 1.9224,-0.1109l42.4769,-3.6589c0.1848,0 0.4066,-0.0369 0.6284,-0.0739c0.1109,0 0.1849,-0.0369 0.2958,-0.0369c0,-0.074 0.0739,-0.1479 0.1479,-0.1479c0.0369,0 0.0369,0 0.0739,0l-0.037,-82.26955c-0.0369,0.11088 -0.1848,0.03696 -0.5175,0zm-20.5546,28.45805l3.2163,0.0739l0,6.1721l-3.1793,-1.9588l-0.037,-4.2872zm-0.4806,-0.037l0,6.6526l-3.2162,1.8848l0,-8.6113l3.2162,0.0739zm0,7.5026l0,6.1721l-3.2162,0l0,-4.2872l3.2162,-1.8849zm-6.2476,9.9788l-1.257,0l0,-1.774l0.3327,-0.1848l0,-0.4066l-0.3327,0.1848l0,-0.4804l0.3327,-0.1848l0,0.4804c0.2588,0 0.6285,0 0.7024,0l0.037,0c0.1109,0 0.1849,0.037 0.2588,0.074c0.1848,0.1108 0.2957,0.3695 0.2957,0.6652c0,0.1478 -0.0369,0.2957 -0.1109,0.4435c0.1109,0.1109 0.1479,0.2957 0.1479,0.5174c0.0739,0.3696 -0.1479,0.6653 -0.4066,0.6653zm1.072,0c-0.1848,0 -0.3327,-0.2218 -0.3327,-0.5174l0,-0.1479c0,-0.2956 0.1479,-0.5174 0.3327,-0.5174l0.9982,0l0,-0.2217c0,-0.037 0,-0.037 -0.037,-0.037l-1.109,0l-0.1109,-0.4065l1.2199,0c0.1849,0 0.3327,0.2217 0.3327,0.5174l0,1.3305l-1.2939,0zm3.6599,-0.037l-0.3327,0l0,-1.3674c0,-0.037 0,-0.037 -0.037,-0.037l-0.4436,0c-0.0369,0 -0.0369,0.037 -0.0369,0.037l0,1.3674l-0.3328,0l0,-1.3674c0,-0.037 0,-0.037 -0.0369,-0.037l-0.4437,0c-0.0369,0 -0.0369,0.037 -0.0369,0.037l0,1.3674l-0.3327,0l0,-1.8479l1.7005,0c0.1849,0 0.3327,0.2217 0.3327,0.5174l0,1.3305zm1.7376,-0.5174c0,0.2957 -0.1479,0.5174 -0.3328,0.5174l-0.7763,0l-0.3327,0l0,-2.2914l0.3327,0l0,0.4435l0.7763,0c0.1849,0 0.3328,0.2217 0.3328,0.5174l0,0.8131zm0.2587,-11.7898l3.1793,1.9589l0,6.5786l-3.1793,0l0,-8.5375zm1.4788,11.7898c0,0.2587 -0.1479,0.5174 -0.3327,0.5174l-0.8133,0c-0.1849,0 -0.3328,-0.2217 -0.3328,-0.5174l0,-1.3305l0.3328,0l0,1.3675c0,0.0369 0,0.0369 0.0369,0.0369l0.8133,0l0.037,-0.0369l0,-1.3675l0.2957,0l-0.0369,1.3305zm1.109,0.4805l0,-2.2545l0.3328,0l0,1.8479l0.7763,0l0.1109,0.4435l-1.22,-0.0369zm2.9945,0l-1.2569,0c-0.1849,0 -0.3328,-0.2218 -0.3328,-0.4805l0,-0.1478c0,-0.2587 0.1479,-0.5174 0.3328,-0.5174l0.9611,0l0,-0.2218c0,-0.037 0,-0.037 -0.0369,-0.037l-1.0721,0l-0.1109,-0.4065l1.183,0c0.1848,0 0.3327,0.2218 0.3327,0.4805l0,1.3305zm1.7005,-0.5175c0,0.2588 -0.1478,0.4805 -0.3327,0.4805l-0.7763,0l-0.3327,0l0,-2.2545l0.3327,0l0,0.4435l0.7763,0c0.1849,0 0.3327,0.2218 0.3327,0.4805l0,0.85z" opacity="0.2"/>
   <path id="svg_79" fill="#D8D8D8" d="m71.3856,52.0742l-0.1849,0l-0.1109,0l-0.5175,0l0,0.6283l0.4806,0l0.2957,0c0.1109,0 0.2218,-0.1478 0.2218,-0.2957c0,-0.1108 -0.0369,-0.1847 -0.0739,-0.2587c0,-0.0369 -0.037,-0.0739 -0.1109,-0.0739z" opacity="0.2"/>
   <path id="svg_80" fill="#D8D8D8" d="m51.831,94.8728c-0.037,0 -0.1109,0 -0.1479,0c-0.2588,0 -0.5176,0 -0.7764,0c-0.2957,0 -0.6284,-0.0001 -0.9242,-0.037c-0.2957,0 -0.6284,-0.037 -0.9242,-0.037c-0.037,0 -0.037,0 -0.0739,0l0,0.2957c0,0 0,0 0.0369,0c0.037,0 0.074,0.037 0.1109,0.037c0.037,0 0.111,0.0369 0.1479,0.0369c0.074,0 0.1479,0.037 0.2218,0.037c0.1849,0.0369 0.3697,0.0369 0.6285,0.0369c0.3697,0.037 0.7763,0.037 1.2569,0.037c0.9242,0 1.8485,0 2.4769,-0.0739c0.1479,0 0.2958,-0.037 0.4437,-0.037c0.0739,0 0.1478,-0.0369 0.2218,-0.0369c0.0369,0 0.0739,-0.037 0.0739,-0.037c0,0 0,0 0.037,0l0,-0.2957c-0.2958,0 -0.5915,0.037 -0.8873,0.037c-0.6654,0.0369 -1.2939,0.037 -1.9223,0.037z" opacity="0.2"/>
   <path id="svg_81" fill="#D8D8D8" d="m71.3487,51.6675c0.037,0 0.037,0 0.074,-0.037c0.0369,-0.0369 0.1109,-0.1108 0.1109,-0.1847c0,-0.037 0,-0.074 0,-0.074c0,-0.1108 -0.037,-0.2217 -0.1109,-0.2587c-0.037,0 -0.037,-0.0369 -0.074,-0.0369l-0.3327,0l-0.4066,0l0,0.5543l0.3697,0l0.3696,0.037z" opacity="0.2"/>
   <path id="svg_82" fill="#D8D8D8" d="m82.5137,52.2966l0,0.2587c0,0.0369 0,0.0369 0.0369,0.0369l0.9612,0l0,-0.3695l-0.9612,0c-0.0369,0.0369 -0.0369,0.0369 -0.0369,0.0739z" opacity="0.2"/>
   <path id="svg_83" fill="#D8D8D8" d="m77.5968,51.6309l-0.7394,0l0,1.0348l0.7394,0l0.037,-0.037l0,-0.9239c0,-0.0739 -0.037,-0.0739 -0.037,-0.0739z" opacity="0.2"/>
   <path id="svg_84" fill="#D8D8D8" d="m98.0035,91.0293l-4.2144,0.3696c0.0739,0 0.1478,0 0.2218,0c0.3327,0.0369 0.7393,0.0369 1.146,0.0369c0.3327,0 1.4787,0 2.2921,-0.0739c0.1109,0 0.2218,-0.0369 0.3327,-0.0369c0.0739,0 0.1109,-0.037 0.1478,-0.037c0,0 0.037,0 0.074,-0.037l0,-0.2217z" opacity="0.2"/>
   <path id="svg_85" fill="#D8D8D8" d="m17.7828,11.9382c0.037,0 0.037,-0.0369 0.037,-0.0739l0.5175,-1.9588c0,-0.03696 0,-0.11088 -0.037,-0.14784c0,-0.03696 -0.0369,-0.03696 -0.0369,-0.03696c-0.037,0 -0.037,0 -0.037,0.03696c0,0 0,0.03696 -0.037,0.03696l-0.5175,1.95878c0,0.037 0,0.1109 0.0369,0.1848c0.037,0 0.074,0.037 0.074,0z" opacity="0.2"/>
   <path id="svg_86" fill="#D8D8D8" d="m0.85044,15.1536c0.07393,0.0369 0.18484,0.0739 0.29574,0.0739c0.11091,0 0.22182,0 0.33272,0l0.03697,0l13.64143,-0.8131l0.0369,0c0.1849,0 0.4067,-0.0369 0.5915,-0.1109c0.1109,-0.0369 0.1849,-0.1108 0.2958,-0.1847c0.0739,-0.074 0.1479,-0.1479 0.2218,-0.2588c0.1109,-0.1478 0.2218,-0.3695 0.3327,-0.5913c0.074,-0.2217 0.1479,-0.4435 0.1849,-0.6652l2.7356,-10.38538c0.074,-0.25871 0.1479,-0.55438 0.1849,-0.81309c0,-0.14783 0,-0.29566 -0.037,-0.40654c-0.037,-0.07392 -0.037,-0.11087 -0.0739,-0.18479c-0.037,-0.03696 -0.074,-0.07392 -0.1479,-0.11088c-0.0739,-0.03696 -0.1848,-0.07391 -0.3327,-0.07391c-0.1109,0 -0.2218,0 -0.3697,0l-13.67838,1.14571c-0.25878,0.03696 -0.44362,0.03696 -0.62846,0.14783c-0.11091,0.03696 -0.18485,0.11088 -0.25878,0.1848c-0.07394,0.03695 -0.14788,0.11087 -0.22181,0.22175c-0.07394,0.07391 -0.11091,0.18479 -0.18485,0.25871c-0.03697,0.07391 -0.07393,0.18479 -0.14787,0.29566c-0.07394,0.22175 -0.11091,0.44351 -0.18484,0.66526l-2.73568,10.08967c-0.07394,0.2587 -0.14787,0.5544 -0.18484,0.8131c0,0.1478 0,0.2956 0.03697,0.4065c0.03697,0.0739 0.03697,0.1109 0.07393,0.1848c0.07394,0.037 0.11091,0.0739 0.18485,0.1109zm0.62846,-1.2196l0.29575,-0.9979l2.40296,-8.90701l0.33272,-1.25659c0.03696,-0.18479 0.22181,-0.29567 0.40665,-0.33263l0.81331,-0.07392l12.01481,-0.99787l0.5915,-0.03696c0.1478,0 0.2957,0.03696 0.3697,0.14783c0.0739,0.11088 0.1109,0.25871 0.0739,0.40654l-0.2588,1.03484l-2.4029,9.16567l-0.3328,1.2936c-0.0369,0.1848 -0.2218,0.3326 -0.4066,0.3326l-0.8503,0.037l-12.01478,0.7391l-0.55453,0.037c0,0 0,0 -0.03697,0c-0.14787,0 -0.25878,-0.0739 -0.33271,-0.1478c-0.11091,-0.1479 -0.14788,-0.2957 -0.11091,-0.4435z" opacity="0.2"/>
   <path id="svg_87" fill="#D8D8D8" d="m2.69892,90.0318c0.22181,0.0369 0.48059,0.0369 0.7024,0.0739l0.48059,0.0369l0.03697,-74.1387l-1.33087,0.0739c-0.07393,0 -0.14787,0 -0.22181,0c-0.07394,0 -0.1109,0 -0.18484,0l-0.07394,73.7692c0.03697,0 0.03697,0 0.07394,0c0.07394,0 0.14787,0.0739 0.14787,0.1478c0.11091,0 0.22182,0.037 0.36969,0.037z" opacity="0.2"/>
   <path id="svg_88" fill="#D8D8D8" d="m3.54827,91.3242c-0.03697,0 -0.07394,0 -0.14788,0l0,0.2587c0,0 0,0.037 0.03697,0.037c0.03697,0 0.07394,0.0369 0.07394,0.0369c0.03697,0 0.1109,0.037 0.14787,0.037c0.07394,0 0.14787,0 0.18484,0.037c0.14788,0 0.33272,0.0369 0.55453,0.0369c0.33272,0 0.70241,0.037 1.10906,0.037c0.18484,0 0.36969,0 0.5915,0c0.03697,0 0.03697,0 0.07393,0c0.14788,0 0.33272,0 0.4806,0c0.03696,0 0.07393,0 0.1109,0c0.14788,0 0.33272,0 0.48059,0c0.03697,0 0.03697,0 0.07394,0c0.14787,0 0.25878,0 0.40665,-0.037l0.03697,0c0.03697,0 0.11091,0 0.14788,0l-4.36229,-0.4435z" opacity="0.2"/>
   <path id="svg_89" fill="#D8D8D8" d="m2.55127,15.9291l1.33087,-0.0739c0.03697,-0.0739 0.07394,-0.1109 0.14788,-0.1109c0.07393,0 0.1109,0.037 0.14787,0.0739l12.05171,-0.6652c0.111,0 0.2588,0 0.3697,-0.037c0.1109,-0.0369 0.2218,-0.0369 0.3328,-0.1108c0.1109,-0.037 0.2218,-0.1109 0.2957,-0.1848c0.0739,-0.074 0.1848,-0.1479 0.2588,-0.2587c0.1479,-0.1848 0.2588,-0.3696 0.3327,-0.6283c0.0739,-0.2218 0.1479,-0.4805 0.2218,-0.7023l2.0333,-7.68732l0.0739,-0.25871l0.6285,-2.43926c0.0739,-0.29567 0.1479,-0.59133 0.1848,-0.887c0,-0.18479 0,-0.29567 -0.0369,-0.4435c-0.037,-0.11088 -0.1109,-0.22175 -0.2588,-0.33263l-1.1091,-0.62829c-0.0739,-0.03696 -0.2218,-0.07392 -0.3327,-0.07392c0,0 0,0 -0.037,0c0.1479,0 0.2588,0.03696 0.3328,0.07392c0.0739,0.03695 0.1109,0.07391 0.1848,0.14783c0.037,0.07392 0.0739,0.14783 0.1109,0.22175c0.037,0.11088 0.037,0.25871 0.037,0.4435c-0.037,0.25871 -0.1109,0.55438 -0.1849,0.81309l-2.7356,10.38534c-0.074,0.2217 -0.111,0.4435 -0.1849,0.6652c-0.1109,0.2588 -0.2218,0.4435 -0.3327,0.6283c-0.0739,0.1109 -0.1479,0.1848 -0.2588,0.2588c-0.1109,0.0739 -0.1848,0.1478 -0.2957,0.1847c-0.1849,0.074 -0.3697,0.1109 -0.5546,0.1109l-0.0739,0l-0.037,0c0,0 0,0 -0.0369,0l-13.71538,0.924c-0.07394,0 -0.14788,0 -0.25879,0c-0.03696,0 -0.07393,0 -0.07393,0c-0.14788,0 -0.25878,-0.037 -0.33272,-0.0739c-0.03697,-0.037 -0.11091,-0.074 -0.14787,-0.1109c0.03696,0.0739 0.1109,0.1109 0.14787,0.1478l1.10906,0.5544c0.03697,-0.037 0.07394,-0.037 0.1109,-0.037c0.07394,0 0.14788,0.037 0.14788,0.1109c0.14787,0.037 0.29575,0.037 0.40665,0zm15.04623,-4.2133l0.5175,-1.95875c0,-0.03696 0.037,-0.07392 0.037,-0.07392c0.037,-0.03696 0.074,-0.07392 0.1479,-0.07392c0.037,0 0.1109,0.03696 0.1479,0.07392c0.0739,0.07392 0.0739,0.18479 0.0739,0.25871l-0.5176,1.95876c-0.0369,0.074 -0.0739,0.1109 -0.1109,0.1479c-0.0369,0 -0.0369,0 -0.0739,0c-0.037,0 -0.1109,-0.037 -0.1479,-0.0739c-0.0739,-0.037 -0.1109,-0.1479 -0.0739,-0.2588z" opacity="0.2"/>
   <path id="svg_90" fill="#D8D8D8" d="m72.5702,52.3338c-0.037,0 -0.037,0.037 -0.037,0.037l0,0.2587c0,0.037 0,0.037 0.037,0.037l0.9612,0l0,-0.3696l-0.9612,0.0369z" opacity="0.2"/>
  </g>
 </g>
</svg>