<svg width="160" height="160" fill="none" xmlns="http://www.w3.org/2000/svg"><path d="M65.844 20.612h-.518v-.155h-.155v.93c.155 0 .362 0 .517-.051h.208c.051 0 .051 0 .051-.052.052-.052.052-.104.052-.207v-.31c0-.052 0-.103-.052-.155 0 .052-.052 0-.103 0Zm-.052.569-.466.051v-.361l.466-.052v.361Zm-1.345-1.086v-.155c0-.052 0-.103-.052-.103v-.207c0-.052 0-.052-.051-.103l-.052-.052h-.052s-.673.052-.931.052v.93c.362 0 .724-.052 1.087-.052.051-.155.051-.206.051-.31Zm-.931-.413c.155 0 .31 0 .465-.052h.207v.259c-.207 0-.465.051-.672.051v-.258Zm.724.413v.104c-.259 0-.466.051-.724.051v-.206c.155 0 .31 0 .465-.052h.207c.052.052.052.052.052.103 0 0 0-.051 0 0Zm2.846.104h.103c.052 0 .052 0 .052-.052.052-.052.052-.103.052-.207v-.31c0-.051 0-.103-.052-.155 0-.051-.052-.051-.103-.051h-.518v-.155h-.155v.93c.155 0 .362 0 .517-.052.052.052.052.052.104.052Zm-.466-.569.466-.051v.361l-.466.052v-.362Zm-42.491 3.772.051.052h.052l2.33-2.17c.051-.052.051-.104 0-.104-.053-.051-.104-.051-.104 0l-2.33 2.17c-.051 0-.051.052 0 .052Zm-3.312.31h.052l4.813-4.754c.052-.052.052-.103 0-.103-.052-.052-.103-.052-.103 0l-4.814 4.754c-.051.052-.051.103 0 .103 0-.051.052 0 .052 0Z" fill="#2D2D31"/><path d="M12.69 31.257c.051 0 .051 0 0 0 .051 0 .051 0 0 0 .051 0 .051 0 0 0l.827-.051 16.821-1.034 1.19-.052a.606.606 0 0 0 .57-.465l.465-1.809 3.365-12.816.362-1.446a.717.717 0 0 0-.103-.569.492.492 0 0 0-.518-.207l-.828.052-16.873 1.499-1.138.103c-.26 0-.466.207-.57.465l-.465 1.757-3.313 12.403-.414 1.395a.717.717 0 0 0 .104.569c.155.103.31.206.517.206Zm-.415-.723.362-1.395 3.365-12.455.465-1.757a.45.45 0 0 1 .415-.31l1.138-.103 16.82-1.396.829-.051c.155 0 .31.051.362.155.104.103.104.258.104.413l-.363 1.447-3.364 12.816-.517 1.706c-.052.206-.207.31-.414.31l-1.19.051L13.465 31l-.777.052a.47.47 0 0 1-.362-.155.318.318 0 0 1-.052-.362Z" fill="#2D2D31"/><path d="M149.43 21.025c0-.051-.052-.051-.052-.103l-.052-.052c-.052-.051-.155-.155-.983-.258-.311-.052-.569-.052-.88-.103l-59.416-5.065c-.466-.052-.931-.052-1.346-.103-.207 0-.414 0-.672-.052-.26 0-.466 0-.725-.052-.88-.051-1.811-.051-2.743-.051h-1.346c-.466 0-.931 0-1.345.051h-.725c-.207 0-.414 0-.673.052-.466 0-.931.052-1.345.103l-.984.052c-.052 0-.052 0-.103.052-.052 0-.052-.052-.104 0l-20.599 1.55v-.827s0-.051-.052-.103l-.051-.052c-.052-.051-.156-.103-.621-.155-.156 0-.363-.052-.621-.052-1.242-.103-2.743-.103-3.364-.103-.622 0-1.19 0-1.657.052-.31 0-.569.052-.828.052-.103 0-.207 0-.31.051-.104 0-.156 0-.26.052-.05 0-.103 0-.154.052 0 0-.052 0-.052.051 0 0-.052 0-.052.052l-.052.052c-.051.051-.051.051-.051.103v.775s0 .052.051.052l.052.052c.052 0 .104.051.104.051.051 0 .103.052.155.052.103 0 .207.052.31.052.156 0 .363.051.57.051v.31l-9.99.775.88-3.307c0-.568.156-.982.156-1.395 0-.259 0-.465-.052-.672-.103-.258-.207-.414-.414-.517l-1.553-.878a1.231 1.231 0 0 0-.62-.155h-.57L17.193 13.17c-.362.052-.673.052-1.035.207-.155.052-.31.155-.466.31l-.362.362a3.58 3.58 0 0 0-.518.878c-.051.362-.103.672-.207.982l-1.19 4.393c-.518.103-.673.155-.725.207 0 0-.051.051-.051.103v2.738l-1.812 6.718c-.103.362-.259.878-.259 1.292 0 .258 0 .465.052.672l.155.31c.052.103.156.155.26.206l1.552.827-.052 103.355c0 .104.104.207.207.207h.104l.051 1.24c0 .052 0 .104.052.155 0 0 .052.052.104.052.051 0 .051.052.103.052s.052 0 .104.051c.103 0 .155.052.258.052.156.052.311.052.466.052.207 0 .414.051.621.051v.414c0 .052 0 .052.052.103l.052.052c.052 0 .103.052.155.052.052 0 .155.051.207.051.104 0 .207 0 .259.052.207 0 .466.052.776.052.466 0 .984.051 1.553.051h2.639c.156 0 .311 0 .466-.051h.052c.155 0 .414-.052.673-.052.103 0 .207-.052.31-.052h.052l55.483 4.29a7.03 7.03 0 0 0 1.035.051v.414c0 .051 0 .103.052.103 0 0 .051.052.103.052.052.051.103.051.155.051.104 0 .156.052.259.052.103 0 .207.052.31.052.26.051.518.051.88.051.518.052 1.139.052 1.76.052h.518a46.73 46.73 0 0 0 2.95-.103c.207 0 .414-.052.62-.052.104 0 .208-.052.311-.052.052 0 .104-.051.156-.051l.051-.052c.052-.052.052-.103.052-.155v-.413c.155 0 .362 0 .518-.052.207 0 .466-.052.673-.052l52.584-4.599h.103c.104 0 .207 0 .259.052.259 0 .466.051.828.051.466.052 1.035.052 1.604.052h.622c.724 0 1.759 0 2.639-.103.155 0 .311-.052.466-.052.103 0 .155-.052.259-.052.051 0 .103-.051.155-.051.052-.052.103-.104.103-.156v-.361c.259 0 .518-.052.725-.104.155 0 .311-.051.414-.051.052 0 .155-.052.207-.052.052 0 .052 0 .104-.052.051 0 .051 0 .103-.051 0 0 .052-.052.104-.052l.051-.052v-.051l.052-1.241h.104c.103 0 .207-.103.207-.206l-.052-115.19c.103-.103.103-.155.052-.155ZM76.04 77.51c.051 0 .103 0 .103-.052h.052c.155.104.31.259.414.465.207.362.31.776.31 1.24 0 .466-.103.88-.31 1.24a1.22 1.22 0 0 1-.414.466h-.052c-.052-.052-.103-.052-.103-.052a.222.222 0 0 0-.207.207c-.052 0-.104.052-.207.052.051 0 .051-.052.103-.052.207-.103.362-.31.466-.517.207-.362.362-.827.362-1.343 0-.465-.103-.982-.362-1.344-.155-.207-.31-.413-.466-.517 0 0-.052 0-.052-.052h.156c0 .156.103.259.207.259Zm-.414-.413h-6.78a1.14 1.14 0 0 0-.673.206c-.156.103-.362.31-.466.517a2.682 2.682 0 0 0-.362 1.292c0 .465.103.93.362 1.292.104.206.31.413.466.517.207.155.414.206.673.206h6.78c.051 0 .155 0 .207-.051v52.194h-.052c-.052 0-.104.052-.104.103 0 .052.052.104.104.104h.103v.155l-59.984-3.98.052-92.865 59.933-3.256v43.513c-.155.103-.207.052-.258.052Zm.051.361c.156.104.31.259.414.465.208.362.311.776.311 1.24 0 .466-.103.88-.31 1.24a1.22 1.22 0 0 1-.415.466c-.207.103-.362.207-.569.207H68.95c-.207 0-.414-.052-.57-.207a1.22 1.22 0 0 1-.413-.465 2.451 2.451 0 0 1-.31-1.24c0-.465.103-.879.31-1.24a1.22 1.22 0 0 1 .414-.466c.155-.103.362-.206.57-.206h6.21c.103.051.31.103.517.206Zm.156 56.691v7.544l-60.037-4.547c0-.052.052-.052.052-.104v-6.821l59.985 3.928ZM47.315 16.788v-.569l.052-.051h.052c.051 0 .103-.052.155-.052.103 0 .155-.052.259-.052.103 0 .207-.051.31-.051.259 0 .518-.052.828-.052.518 0 1.035-.052 1.657-.052.569 0 2.07 0 3.312.104.259 0 .414.051.621.051.466.052.517.104.517.104l.052.051v.827l-1.035.104v-.414h-.052a61.886 61.886 0 0 0-3.416-.103c-.62 0-1.19 0-1.707.051-.311 0-.622.052-.828.052-.104 0-.26 0-.363.052-.103 0-.155.051-.259.051-.051-.051-.103-.051-.155-.051Zm.518.206c-.104 0-.207-.051-.31-.051-.053 0-.104 0-.156-.052h.052c.103 0 .155-.052.258-.052.104 0 .26-.051.363-.051.258 0 .517-.052.828-.052.517-.052 1.087-.052 1.708-.052.724 0 1.397 0 2.07.052l-4.192.31c-.207 0-.414 0-.621-.052Zm6.107-.155v.31l-5.331.414v-.31l5.33-.414Zm21.893-.93v17.26l-59.934 3.256v-3.1l16.82-.982c.156 0 .363 0 .518-.052.207-.052.363-.103.518-.155.155-.052.31-.155.466-.31.155-.104.259-.259.362-.413.207-.259.362-.569.518-.93.155-.363.207-.672.31-1.034l.777-2.998 2.587-.155c.31 0 .621-.155.932-.361.259-.207.466-.414.621-.724.31-.517.466-1.188.414-1.86-.052-.672-.259-1.344-.57-1.809a3.023 3.023 0 0 0-.672-.723 2.328 2.328 0 0 0-.932-.362h-.258l-.622.052.466-1.81 37.679-2.79ZM38.672 20.87c.466.052.828.31 1.035.517.259.258.466.62.621 1.034.155.361.207.775.207 1.188 0 .569-.155 1.085-.362 1.499-.156.258-.31.465-.518.568a1.962 1.962 0 0 1-.673.31 1.14 1.14 0 0 1-.724-.103 2.436 2.436 0 0 1-.621-.465 2.942 2.942 0 0 1-.673-1.395l.724-2.791c.26-.258.622-.362.984-.362Zm-.983.104.051-.259.673-.052h.207a.96.96 0 0 1 .362.104c-.103-.052-.207-.052-.31-.052-.362-.052-.673.052-.983.259Zm1.914 4.909c-.051.052-.155.103-.207.155a.714.714 0 0 0 .207-.155Zm-2.173-.362c.207.207.414.362.672.517.208.103.415.155.622.155h.207a.749.749 0 0 0 .362-.103c-.155.051-.362.103-.518.155l-2.536.155.518-1.964c.155.413.414.827.673 1.085ZM13.053 20.82c.051 0 .155-.052.258-.052l-.258.982v-.93Zm-2.174 10.955c-.052-.155-.052-.31-.052-.568 0-.362.104-.775.207-1.085l3.83-14.16c.104-.31.155-.62.31-.93.052-.155.104-.31.208-.414.051-.155.155-.258.258-.362.052-.155.156-.258.26-.361.103-.104.258-.155.362-.259.258-.103.569-.155.88-.206l19.097-1.602c.156 0 .31-.052.518 0 .207 0 .362.051.466.103.052.052.155.103.207.207a.394.394 0 0 1 .103.258c.052.155.052.31.052.569a9.003 9.003 0 0 1-.259 1.136l-3.83 14.522c-.103.31-.155.62-.259.93-.103.362-.258.62-.465.827-.104.103-.207.258-.31.362a1.128 1.128 0 0 1-.415.258c-.259.103-.57.155-.828.155h-.052L12.07 32.24h-.517a.977.977 0 0 1-.414-.103.714.714 0 0 1-.207-.155c0-.052-.052-.103-.052-.207Zm1.915 1.344c-.052 0-.104 0-.155.051l-1.553-.775-.207-.206c.052.051.103.103.207.155.103.051.259.103.466.103h.466l19.097-1.137h.208c.258 0 .517-.052.776-.155.155-.052.31-.155.414-.258.103-.104.259-.207.362-.362a2.38 2.38 0 0 0 .466-.879c.103-.31.207-.62.259-.93L37.48 14.1c.104-.361.207-.775.26-1.136 0-.259 0-.466-.053-.62l-.155-.31c-.052-.104-.155-.156-.258-.207a1.238 1.238 0 0 0-.466-.104h.051c.207 0 .363.052.466.104l1.553.878c.207.104.31.31.362.465.052.155.052.362.052.62 0 .414-.155.827-.259 1.24l-.88 3.411-.103.362-2.847 10.75c-.103.31-.155.67-.31.981-.156.362-.31.62-.466.879a1.209 1.209 0 0 1-.362.361c-.156.104-.26.207-.415.259l-.465.155c-.155.051-.363.051-.518.051l-16.872.982c-.052-.051-.104-.103-.207-.103-.104 0-.156.051-.207.155h-2.33a.285.285 0 0 0-.258-.155Zm.466 103.717a.222.222 0 0 0-.207-.207h-.104l.104-103.148h.569l1.811-.104-.051 103.665-.673-.051c-.31 0-.621-.052-.983-.104-.156 0-.311-.051-.466-.051.051 0 .051 0 0 0Zm7.608 2.325h-.052c-.155 0-.362 0-.57.052h-2.535c-.57 0-1.087 0-1.553-.052-.31 0-.57-.051-.776-.051-.104 0-.207 0-.26-.052-.05 0-.154 0-.206-.052-.052 0-.104 0-.104-.051l-.051-.052v-.362h.207l6.107.465c-.104.155-.155.155-.207.155Zm65.575 4.806s-.052.052 0 0c-.104.052-.104.104-.156.104-.051 0-.207.051-.31.051-.207.052-.414.052-.621.052-.88.103-2.174.103-3.468.103-.621 0-1.242-.051-1.76-.051-.362 0-.62-.052-.88-.052-.103 0-.207 0-.31-.052-.052 0-.155-.051-.207-.051-.052 0-.103-.052-.155-.052h-.052v-.413h.103c.415 0 .88.051 1.294.051.414 0 .88 0 1.294.052h1.294c.828 0 1.708 0 2.588-.052.414 0 .828-.051 1.242-.051l.104.361Zm60.761-5.323c-.052 0-.052.052-.103.052-.052 0-.156.052-.207.052-.156.052-.363.052-.466.052-1.139.103-2.743.103-3.209.103-.569 0-1.139 0-1.604-.052h-.311l5.9-.517v.31c0-.051 0-.051 0 0 0-.051 0-.051 0 0Zm1.501-1.033s-.052 0 0 0c-.103.052-.155.052-.207.052-.155.051-.259.051-.414.051-.259.052-.569.052-.828.104l-59.468 5.219c-.207 0-.465.052-.672.052-.208 0-.415.051-.622.051-.414 0-.88.052-1.293.052-.88.052-1.76.052-2.588.052h-1.294c-.414 0-.88 0-1.294-.052-.414 0-.88-.052-1.294-.052-.414 0-.88-.051-1.294-.103L15.02 138.23c-.31 0-.62-.052-.931-.103-.155 0-.31-.052-.466-.052-.052 0-.155-.052-.207-.052h-.052l-.052-1.033c.156 0 .26.051.466.051.31.052.673.052.984.104l.828.052h.051c0 .051.052.051.052.051l60.192 4.548c.052 0 .052-.052.104-.052h.155l1.035.052c.466.052.88.052 1.346.103.466 0 .932.052 1.346.052.465 0 .931 0 1.345.052h1.346c.88 0 1.811 0 2.743-.052 1.035-.052 1.863-.103 2.743-.155l59.468-5.116c.259 0 .569-.052.88-.104.155 0 .258-.051.362-.051l-.052 1.085Zm.259-1.395c-.104 0-.207.103-.207.206-.104 0-.259.052-.414.052-.311.052-.621.052-.88.103l-59.468 5.116c-.828.052-1.656.104-2.691.155-.932.052-1.811.052-2.743.052h-1.812c-.051-.051-.103-.051-.103 0h-.776c-.466 0-.932-.052-1.346-.052-.466 0-.932-.051-1.346-.103l-.931-.052V81.126h.052c.206-.103.362-.31.465-.517a2.72 2.72 0 0 0 .363-1.343c0-.465-.104-.982-.363-1.344-.155-.206-.31-.413-.465-.516h-.052V16.064l.931-.051c.466-.052.88-.052 1.346-.104.207 0 .414 0 .621-.052h.725c.465 0 .88 0 1.345-.051h1.346c.88 0 1.811 0 2.691.052.259 0 .466 0 .725.051.207 0 .414 0 .62.052.467 0 .88.052 1.347.103l59.415 5.065c.311 0 .57.051.88.103.466.052.673.103.725.155l.052 115.034c.051-.206 0-.206-.052-.206Z" fill="#2D2D31"/><path d="M24.075 127.584c-.103-.051-.207-.103-.31-.103-.207 0-.363.155-.466.362-.104.206-.104.413-.104.516 0 .207.052.414.156.621.051.103.155.206.207.258.103.052.207.103.31.103.207 0 .362-.155.466-.361.104-.207.104-.414.104-.517a1.37 1.37 0 0 0-.156-.62c-.052-.104-.103-.207-.207-.259Zm.104 1.292c-.052.052-.156.259-.31.259-.104 0-.156-.052-.208-.052-.052-.052-.103-.103-.155-.207-.104-.155-.104-.31-.104-.517 0-.155.052-.31.104-.465.052-.051.155-.258.31-.258.104 0 .156.052.207.052a.704.704 0 0 1 .156.206c.103.155.103.31.103.517 0 .207-.052.362-.103.465Zm-4.293-1.343c-.052-.104-.104-.207-.207-.259-.104-.051-.207-.103-.31-.103-.208 0-.363.155-.467.362-.103.155-.103.361-.103.516 0 .207.052.414.155.569.052.103.104.207.207.258.104.052.207.104.31.104.208 0 .363-.155.466-.362.104-.207.104-.414.104-.517 0-.155-.052-.362-.155-.568Zm-.052.62c0 .155-.052.31-.104.465-.051.052-.155.258-.31.258-.104 0-.155-.051-.207-.051a.725.725 0 0 1-.155-.207c-.104-.155-.104-.31-.104-.517 0-.155.052-.31.104-.465.051-.052.155-.258.31-.258.104 0 .155.051.207.051a.707.707 0 0 1 .155.207c.104.155.104.31.104.517ZM65.638 19.682h.207v.57h.207v-.57h.207v.57h.207v-.622c0-.051 0-.051-.052-.103 0 0-.052-.052-.103-.052-.26 0-.518.052-.829.052v.724h.207c-.051-.155-.051-.362-.051-.569Zm-2.226 1.86c.052 0 .052 0 0 0h.311c.155 0 .258 0 .414-.052v-.155h-.621v-.775h-.207v.879l.103.103ZM24.284 36.993c-.155-.103-.259-.155-.466-.155h-.31c-.207 0-.363.104-.518.259-.103.103-.207.31-.31.465-.156.362-.156.775-.052 1.188v.052c.052.207.155.413.31.569a.832.832 0 0 0 .57.258h.31c.155 0 .31-.052.466-.155.104-.103.207-.207.31-.362.156-.258.208-.568.208-.878 0-.31-.052-.62-.207-.879-.156-.155-.207-.258-.311-.362Zm-.414 2.274a.47.47 0 0 1-.362.155.656.656 0 0 1-.466-.206c-.155-.156-.207-.362-.259-.466v-.05a1.571 1.571 0 0 1 .052-1.085v-.052a1.13 1.13 0 0 1 .259-.414c.103-.103.258-.206.414-.206h.051a.56.56 0 0 1 .363.155c.103.103.155.206.258.31.104.207.156.517.156.775 0 .31-.104.568-.207.775-.104.155-.155.258-.26.31Zm.466-.258c-.052.103-.155.206-.259.31.052-.052.103-.155.155-.259.155-.258.207-.568.207-.878 0-.31-.052-.62-.155-.879-.052-.051-.052-.103-.104-.155.052.052.156.155.207.259.104.207.156.517.156.775 0 .31-.052.62-.207.827ZM19.833 37.2c-.155-.103-.259-.155-.414-.155h-.311c-.207 0-.362.104-.517.259a1.807 1.807 0 0 0-.31.465c-.156.362-.156.827-.053 1.24.052.207.156.414.31.517a.831.831 0 0 0 .57.258h.311c.155 0 .31-.051.414-.155.103-.103.207-.206.31-.361.156-.259.207-.569.207-.879 0-.31-.051-.62-.155-.879a2.248 2.248 0 0 1-.362-.31Zm-.414 2.326a.47.47 0 0 1-.363.155.657.657 0 0 1-.465-.207 1 1 0 0 1-.26-.465v-.051c-.103-.362-.103-.776.053-1.086.051-.155.155-.31.258-.413.104-.104.207-.207.415-.207h.103c.104 0 .207.052.31.155.104.104.156.207.26.31.103.207.155.517.155.775 0 .259-.104.569-.207.776l-.26.258Zm.517-.31c-.051.103-.155.207-.258.31.051-.052.103-.155.155-.258.155-.259.207-.569.207-.879 0-.31-.052-.62-.155-.879-.052-.051-.052-.103-.104-.154.052.051.155.154.207.258.104.207.155.517.155.775 0 .362-.103.62-.207.827Zm14.957-11.318h.104c.103-.051.155-.103.155-.206l.725-2.74c.051-.154 0-.258-.104-.36-.052-.156-.103-.156-.155-.156a.393.393 0 0 0-.207.103c-.052.052-.052.052-.052.104l-.724 2.739c-.052.155 0 .31.103.413 0 .052.104.103.155.103Zm-.103-.465.724-2.739c0-.051 0-.051.052-.051l.052-.052s.052 0 .052.052c.051.051.051.155.051.206l-.724 2.74c0 .051-.052.103-.052.103h-.103c-.052-.052-.104-.155-.052-.259Zm32.658-7.286s.052 0 0 0h.414c.156 0 .26 0 .414-.052v-.775h-.207v.62c-.155 0-.31 0-.466.052v-.62h-.206v.723s.051 0 .051.052Zm5.123.775.363-.052v-2.015h-.26l-.569.362v.258l.466-.258v1.705Zm-7.556-.207c-.052 0-.052-.051-.104-.051h-.673v.155c.207 0 .414-.052.621-.052v.104c-.155 0-.31 0-.465.051h-.104c-.052 0-.052.052-.052.104v.259c0 .051 0 .103.052.103h.259c.155 0 .31 0 .466-.052v-.621c.051.052 0 0 0 0Zm-.104.57-.466.051v-.155l.466-.052v.155Zm4.814-1.448c.051.052.051.103.103.103 0 .052.052.052.052.104l-.776 1.085c.155 0 .31 0 .465-.052.26-.362.518-.672.777-1.033 0 .051.051.051.051.103l.104.103c.052.052.103.155.207.259.103.155.259.31.362.465.156 0 .31 0 .466-.052-.259-.31-.517-.62-.776-.982l.776-1.085c-.155 0-.31 0-.466.052-.258.361-.517.671-.724 1.033l-.777-.93c-.155 0-.31 0-.466.052.156.155.26.31.415.465.051.155.155.206.207.31Zm-5.123.517h.258c.156 0 .31 0 .466-.052v-.62c0-.052-.052-.052-.052-.104-.051 0-.051-.051-.103-.051h-.311c-.103 0-.258 0-.362.051v.156c.207 0 .414-.052.621-.052v.103c-.155 0-.517.052-.517.052h-.052c-.052 0-.052.052-.052.103v.259c0 .051.052.103.104.155Zm.103-.31.466-.052v.155l-.466.052v-.155Zm59.26 50.644-4.451-2.74v11.938l4.451-.051v-9.147Zm.051-9.819-4.502-.052v5.994l4.451 2.74.051-8.682Zm-5.172 9.251v-9.355l-4.555-.103v12.093l4.555-2.636Zm-.052 9.766.052-8.63-4.555 2.635v5.995h4.503Zm4.811 4.651v-2.584h-.466v3.153h1.708l-.156-.569h-1.086Zm3.26-1.964h-1.656l.155.569h1.501l.052.051v.31h-1.346c-.258 0-.465.31-.465.724v.207c0 .361.207.671.465.671h1.76v-1.808c0-.414-.207-.724-.466-.724Zm0 1.964h-1.345l-.052-.052v-.361c0-.052 0-.052.052-.052h1.345v.465Zm2.434-1.964h-1.087v-.62h-.466v3.153h1.553c.259 0 .466-.31.466-.672v-1.137c-.052-.414-.259-.724-.466-.724Zm-.052 1.86c0 .052 0 .052-.052.052h-1.035V83.09h1.035l.052.052v1.292Zm-12.991-1.808h-2.381v2.584h.466v-1.912c0-.052 0-.052.052-.052h.621c.051 0 .051.052.051.052v1.912h.466v-1.912c0-.052 0-.052.052-.052h.621c.052 0 .052.052.052.052v1.912h.466v-1.86c0-.414-.207-.724-.466-.724Zm4.916 1.912c0 .052 0 .052-.052.052h-1.139l-.051-.052v-1.912h-.466v1.86c0 .414.207.724.466.724h1.138c.259 0 .466-.31.466-.724v-1.86h-.414l.052 1.912Zm-8.229-1.912h-1.708l.156.568h1.552c.052 0 .052.052.052.052v.31h-1.397c-.259 0-.466.31-.466.724v.206c0 .414.207.724.466.724h1.811v-1.86c0-.414-.207-.724-.466-.724Zm-1.345 2.015c-.052 0-.052-.051-.052-.051v-.362c0-.052 0-.052.052-.052h1.345v.517l-1.345-.052Zm7.091-2.015h-1.086v-.62h-.466v3.204h1.552c.259 0 .466-.31.466-.724V83.35c0-.414-.207-.724-.466-.724Zm0 1.912c0 .052 0 .052-.051.052h-1.035v-1.447h1.035l.051.052v1.343Zm-10.351-3.049v.672l.518-.258v-.724l-.518.31Z" fill="#2D2D31"/><path d="M110.51 83.555c.103-.155.155-.362.155-.62 0-.413-.155-.775-.414-.93a.964.964 0 0 0-.362-.104h-1.036v.569l-.465.258v2.48h1.759c.363 0 .621-.413.621-.93 0-.31-.103-.568-.258-.723Zm-1.657-1.085h1.036c.051 0 .051 0 .103.052.104.051.155.206.155.361v.104a.283.283 0 0 1-.155.258c-.052 0-.052.052-.103.052h-1.036v-.827Zm1.087 2.222h-1.087v-.879h1.139c.052 0 .104.052.155.104a.743.743 0 0 1 .104.361c0 .207-.155.414-.311.414Zm-36.591-5.168v-.775h-.156v.982h.57l-.052-.207h-.362Zm1.035-.568h-.518l.052.155h.466v.104h-.414c-.104 0-.156.103-.156.207v.052c0 .103.052.206.156.206h.569v-.569c0-.103-.052-.155-.155-.155Zm0 .57h-.414v-.104h.414v.103Zm.414-.777h-.155v.982h.465c.104 0 .156-.103.156-.207v-.362c0-.103-.052-.206-.156-.206h-.362l.052-.207Zm.31.362c.052 0 .052 0 0 0v.413h-.31v-.413h.31Zm-4.088-.207h-.777v.776h.155v-.62h.208v.62h.155v-.62h.207v.569h.155v-.57c.052-.051 0-.155-.104-.155Zm1.551.621h-.362v-.569h-.155v.57c0 .103.052.206.155.206h.362c.104 0 .156-.103.156-.207v-.569h-.156v.57Zm-2.587-.621h-.569l.052.156h.517v.103h-.465c-.104 0-.156.103-.156.207v.052c0 .103.052.207.156.207h.569v-.57c.052-.051-.052-.155-.104-.155Zm-.465.621v-.155h.414v.155h-.414Zm2.276-.621h-.362v-.207h-.156v.982h.518c.103 0 .155-.103.155-.207v-.361c0-.104-.052-.207-.155-.207Zm0 .62h-.362v-.465h.31l.052.465Zm-3.313-.982v.207l.156-.103v-.207l-.156.103Zm.725.621c.052-.052.052-.104.052-.207 0-.155-.052-.258-.156-.31-.051 0-.103-.052-.103-.052h-.31v.155l-.156.104v.775h.57c.103 0 .207-.155.207-.31-.052 0-.104-.104-.104-.155Zm-.57-.31H69c.052 0 .052.051.052.103s0 .052-.052.103h-.362v-.206Zm.363.671h-.362v-.258H69s.052 0 .052.052c0 0 .051.051.051.103s-.051.103-.103.103Z" fill="#2D2D31"/><path d="M36.758 11.517h.103c.207 0 .414.052.57.155l1.552.878a.82.82 0 0 1 .414.517c.104.207.104.413.104.672 0 .413-.155.878-.259 1.24l-.88 3.308 9.99-.776v-.31c-.208 0-.415-.051-.57-.051-.104 0-.207-.052-.31-.052-.052 0-.104 0-.156-.052-.052 0-.103-.051-.103-.051s-.052 0-.052-.052l-.052-.052v-.775s0-.052.052-.103l.103.051.052-.051s.052 0 .052-.052c.052 0 .103-.052.155-.052.104 0 .155-.051.259-.051.103 0 .207-.052.31-.052.26 0 .518-.052.828-.052.518 0 1.036-.051 1.657-.051h.362c.725 0 1.915 0 3.002.103.259 0 .414.052.62.052.467.051.57.103.622.155l.052.051c.051.052.051.052.051.104v.827l20.6-1.55c.051 0 .051 0 .103.051.052 0 .052-.052.103-.052l.984-.051c.466-.052.931-.052 1.345-.104.207 0 .414 0 .673-.051h.725c.466 0 .931 0 1.346-.052h1.345c.932 0 1.812 0 2.743.052.259 0 .466 0 .725.051.207 0 .414 0 .673.052.466 0 .931.052 1.345.103l59.416 5.065c.311 0 .57.051.88.103.828.103.932.207.983.258l.052.052.052.052v.103l.052 115.189a.223.223 0 0 1-.207.207h-.104l-.052 1.24v.052s0 .052-.051.052c0 0-.052.051-.104.051s-.052.052-.103.052c-.052 0-.052 0-.104.052-.052 0-.155.052-.207.052-.155.051-.31.051-.414.051-.259.052-.518.052-.725.104v.361c0 .052-.051.104-.103.155-.052.052-.104.052-.155.052-.052 0-.156.052-.259.052-.155.051-.362.051-.466.051a48.54 48.54 0 0 1-2.639.104h-.622c-.621 0-1.138 0-1.604-.052-.311 0-.569-.052-.828-.052-.104 0-.207 0-.259-.051h-.103l-52.585 4.599c-.206 0-.465.052-.672.052-.156 0-.363 0-.518.051v.414c0 .051 0 .103-.052.155l-.051.051c-.052.052-.104.052-.156.052-.103.052-.207.052-.31.052-.207.052-.466.052-.621.052-.777.051-1.864.103-2.95.103h-.518c-.621 0-1.242-.052-1.76-.052-.362 0-.62-.051-.88-.051-.103 0-.206-.052-.31-.052-.103 0-.155-.052-.259-.052-.052 0-.103-.052-.155-.052-.052 0-.052-.051-.104-.051-.051-.052-.051-.104-.051-.104v-.413c-.363 0-.673-.052-1.035-.052l-55.431-4.289h-.052c-.103 0-.207.052-.31.052-.26.051-.466.051-.673.051h-.052c-.155 0-.31 0-.466.052h-2.639c-.57 0-1.087 0-1.553-.052-.31 0-.57-.051-.776-.051-.104 0-.207 0-.26-.052-.05 0-.154 0-.206-.052-.052 0-.104-.051-.155-.051l-.052-.052s0-.052-.052-.103v-.414c-.207 0-.414-.051-.621-.051-.155 0-.31-.052-.466-.052-.103 0-.155-.052-.259-.052-.051 0-.051 0-.103-.051-.052 0-.052 0-.104-.052 0 0-.051-.052-.103-.052-.052-.051-.052-.103-.052-.155l-.052-1.24h-.103a.222.222 0 0 1-.207-.207V33.325l-1.553-.827c-.103-.052-.207-.103-.259-.207l-.155-.31c-.103-.207-.103-.413-.103-.672a11.4 11.4 0 0 1 .258-1.292l1.812-6.718V20.56s.052-.051.052-.103c.103-.103.258-.155.724-.207l1.19-4.392c.104-.31.156-.62.311-.982s.31-.672.518-.879c.103-.155.207-.258.362-.361.155-.104.259-.207.466-.31.31-.155.673-.207 1.035-.207l19.046-1.602h.466Zm0-.517c-.207 0-.362 0-.518.052l-19.046 1.602c-.414.051-.776.051-1.19.258a3.48 3.48 0 0 0-.57.362c-.155.155-.31.258-.414.465-.207.31-.414.62-.569 1.034-.155.361-.207.723-.31 1.033l-1.087 4.083c-.363.051-.518.155-.673.31-.104.051-.155.206-.155.206-.104.052-.156.207-.156.31v2.533l-1.811 6.666c-.104.413-.259.93-.259 1.395 0 .31 0 .62.104.879.051.155.155.31.258.465.104.155.26.258.466.362l1.242.62-.052 103.045c0 .258.156.465.363.62l.051.879v.103c0 .155.104.258.208.362.051.051.155.155.207.155.051.051.103.051.155.051.052 0 .103.052.155.052.104.052.207.052.31.052.156.051.311.051.518.103h.155c0 .052 0 .103.052.155 0 .052.052.155.155.259.052.051.104.103.208.155.103.051.207.051.258.103.104 0 .156.052.26.052.103 0 .206.051.31.051.258 0 .517.052.828.052.466 0 .983.052 1.604.052h2.588c.155 0 .31 0 .466-.052h.103c.207 0 .414-.052.673-.052.104 0 .207-.051.31-.051l55.431 4.289c.207 0 .363.051.57.051v.052l.051.052c.052.103.104.207.156.258.051.052.155.104.207.155.103.052.207.104.258.104.104 0 .207.051.311.051.104 0 .207.052.362.052.26.052.518.052.88.052.518.051 1.139.051 1.76.051h.57c1.138 0 2.225-.051 3.001-.103.207 0 .414-.052.673-.052.155 0 .259-.051.362-.051a.394.394 0 0 0 .259-.104.696.696 0 0 0 .207-.155.584.584 0 0 0 .155-.413h.052c.207 0 .466-.052.673-.052l52.532-4.599h.052c.103 0 .207 0 .31.052.259 0 .518.051.829.051.517.052 1.035.052 1.656.052h.621c.724 0 1.811 0 2.691-.103.104 0 .311-.052.518-.052.103 0 .207-.052.31-.052.052 0 .155-.052.259-.103.155-.104.311-.31.311-.517.103 0 .207 0 .31-.052.155 0 .311-.051.466-.103.103 0 .207-.052.259-.052.051 0 .103-.051.155-.051.052 0 .103-.052.155-.104.052-.051.155-.103.207-.155.052-.051.052-.103.104-.155v-.103c0-.052.051-.103.051-.207l.052-.878a.738.738 0 0 0 .311-.621L150 21.077c0-.103 0-.207-.052-.31a.712.712 0 0 0-.155-.207l-.052-.051c-.155-.155-.466-.31-1.242-.414-.31-.051-.621-.051-.88-.103l-59.52-5.065c-.465-.051-.93-.051-1.397-.103-.207 0-.414 0-.672-.051-.26 0-.466 0-.725-.052-.932-.052-1.812-.052-2.743-.052h-1.346c-.465 0-.931 0-1.397.052h-.725c-.207 0-.414 0-.673.052-.465 0-.931.051-1.397.103l-.983.052h-.259l-20.03 1.498v-.258c0-.104 0-.207-.051-.31v-.052l-.104-.103-.052-.052c-.155-.155-.414-.207-.88-.258-.207 0-.362-.052-.62-.052-1.087-.103-2.381-.103-3.054-.103h-.362c-.622 0-1.19 0-1.709.051-.362 0-.62.052-.88.052-.103 0-.206 0-.362.052-.103 0-.207.051-.258.051-.052 0-.156.052-.26.052-.05 0-.103.052-.103.052h-.052l-.103.103-.052.052-.103.103v.052a.745.745 0 0 0-.104.361v.776c0 .103 0 .155.052.258l-7.608.568.673-2.687.052-.155c.103-.362.207-.775.207-1.188 0-.31 0-.62-.104-.827a1.355 1.355 0 0 0-.673-.827l-1.552-.879a1.273 1.273 0 0 0-.777-.258h-.155Z" fill="#2D2D31"/><path d="m12.69 31.103.777-.052 16.82-1.033 1.19-.052a.45.45 0 0 0 .415-.31l.466-1.809 3.364-12.816.414-1.447a.402.402 0 0 0-.104-.413.56.56 0 0 0-.362-.155l-.828.103-16.82 1.395-1.14.104a.45.45 0 0 0-.414.31l-.465 1.757-3.364 12.454-.363 1.395c-.052.155 0 .31.104.414.051.103.207.155.31.155Zm13.87-9.974c.053.052.053.103 0 .103l-2.328 2.17h-.052s-.052 0-.052-.05c-.052-.053-.052-.104 0-.104l2.33-2.17s.051 0 .103.051Zm-5.796 2.429 4.814-4.755c.051-.051.103-.051.103 0 .052.052.052.104 0 .104l-4.813 4.754h-.104c-.052-.052-.052-.103 0-.103Zm46.322-3.979-.466.051v.414l.466-.052v-.413Zm-2.692 1.705h.518v-.155l-.518.052v.103Zm-16.716-4.599c.103 0 .259-.052.362-.052.259 0 .518-.052.828-.052.518-.051 1.087-.051 1.708-.051 1.242 0 2.484.051 3.416.103h.052v.413l1.035-.103v-.827l-.052-.052s-.103-.051-.517-.103c-.156 0-.363-.052-.622-.052-1.242-.103-2.743-.103-3.312-.103-.621 0-1.19 0-1.656.052-.31 0-.57.051-.828.051-.104 0-.207 0-.31.052-.104 0-.156 0-.26.052-.051 0-.103 0-.155.051h-.052l-.051.052v.569h.103c.156.051.259.051.31 0Z" fill="#4A4A51"/><path d="m48.558 17.564 5.382-.414v-.31l-5.382.413v.31Zm4.141-.828c-.673 0-1.346-.051-2.07-.051-.621 0-1.19 0-1.708.051-.31 0-.621.052-.828.052-.104 0-.259 0-.363.052-.103 0-.155 0-.258.052h-.052c.052 0 .103 0 .155.051.104 0 .207.052.31.052.156 0 .363.052.622.052l4.192-.31Zm12.628 4.497.466-.052v-.362h-.466v.414Zm-1.137-1.499s0-.052 0 0v-.104h-.208c-.155 0-.31 0-.465.052v.207c.207 0 .465-.052.672-.052v-.103Zm-27.899 6.614 2.536-.155a1 1 0 0 0 .518-.155.96.96 0 0 1-.363.104h-.207a1.38 1.38 0 0 1-.62-.155 1.579 1.579 0 0 1-.674-.517c-.31-.31-.517-.724-.672-1.189l-.518 2.067Zm-23.237-5.529v.93l.258-.982c-.155 0-.207.052-.258.052Zm25.93-.052c-.103-.052-.259-.052-.362-.103h-.207l-.673.051-.052.259c.311-.207.622-.31.984-.259.103 0 .207 0 .31.052Z" fill="#4A4A51"/><path d="M36.862 24.023c.104.516.363 1.033.673 1.395.207.207.414.362.621.465.259.103.518.155.725.103.259-.051.466-.155.673-.31.207-.155.362-.361.517-.568.259-.414.363-.982.363-1.499 0-.413-.052-.827-.207-1.188a3.44 3.44 0 0 0-.622-1.034c-.207-.207-.569-.465-1.035-.517-.362-.051-.724.104-1.035.362l-.673 2.79Zm27.379-4.031h-.259c-.155 0-.31 0-.465.052v.207c.258 0 .465-.052.724-.052v-.207c0 .052 0 .052 0 0Z" fill="#4A4A51"/><path d="m37.794 20.56.621-.051h.259c.31 0 .621.155.932.361.258.155.465.414.672.724.363.517.518 1.188.57 1.808.052.672-.104 1.344-.414 1.86-.156.311-.363.57-.621.724-.26.207-.621.31-.932.362l-2.588.155-.776 2.997c-.104.31-.155.672-.31 1.034-.156.362-.311.672-.518.93-.104.155-.259.259-.362.414l-.466.31c-.156.051-.31.103-.518.155-.207.051-.362.051-.517.051l-16.821.982v3.1l59.83-3.255v-17.26L38.26 18.75l-.466 1.81Zm27.276.31v.569c-.156 0-.311 0-.466.051h-.259c-.052 0-.052-.103-.052-.103v-.258c0-.052.052-.052.052-.104h.103c.156 0 .311 0 .466-.051v-.104c-.207 0-.414.052-.62.052v-.155h.672c.052 0 .052 0 .104.052.051 0 .051.051.051.103-.051-.103-.051-.103-.051-.052Zm.931.207v.052c0 .051 0 .155-.052.206l-.051.052h-.207c-.156 0-.363 0-.518.052v-.93h.155v.155h.518c.052 0 .052.051.103.051 0 .052.052.104.052.155v.207Zm6.107-1.86.57-.362h.207v2.015h-.363v-1.705l-.465.258v-.206h.051Zm-2.536-.155.777.93c.258-.362.517-.672.724-1.034.156 0 .31 0 .466-.051l-.776 1.085c.258.31.517.62.776.982-.155 0-.31 0-.466.051-.103-.155-.258-.31-.362-.465a.908.908 0 0 0-.207-.258c-.052-.052-.052-.104-.104-.104 0-.051-.051-.051-.051-.103-.26.362-.518.672-.777 1.034-.155 0-.31 0-.466.051.26-.361.518-.723.777-1.085 0-.051-.052-.051-.052-.103-.052-.052-.052-.104-.103-.104-.052-.103-.156-.155-.207-.258-.156-.155-.26-.31-.415-.465.156-.052.311-.052.466-.103Zm-2.173.93v-.62h.207v.62c.155 0 .31 0 .465-.052v-.62h.207v.775c-.155 0-.258 0-.414.052h-.414c-.051 0-.051-.052-.051-.103v-.052Zm-.932-.672h.155v.155h.518c.052 0 .052.052.103.052 0 .051.052.103.052.155v.31c0 .052 0 .155-.052.206l-.051.052h-.207c-.156 0-.363 0-.518.052v-.982Zm-1.035.207c.259 0 .517-.052.828-.052.052 0 .052 0 .103.052 0 .051.052.051.052.103v.62h-.207v-.568h-.207v.568h-.207v-.568h-.207v.568h-.207c.052-.206.052-.465.052-.723Zm-.932.568v-.155c0-.052.052-.052.052-.103h.052s.362-.052.517-.052v-.103c-.207 0-.414.051-.62.051v-.155c.103 0 .258 0 .362-.051h.31c.052 0 .052 0 .104.051.051 0 .051.052.051.104v.62c-.155 0-.31 0-.465.052h-.259c-.052 0-.052-.104-.052-.104-.052-.052-.052-.052-.052-.155 0 .052 0 .052 0 0Zm-1.138-.568c.207 0 .88-.052.931-.052h.052c.052 0 .052 0 .052.052 0 .051.051.051.051.103v.207a.158.158 0 0 1 .052.103v.414c-.362 0-.724.051-1.087.051-.051-.258-.051-.568-.051-.878Zm0 1.808v-.723h.207v.775h.621v.155c-.156 0-.26 0-.414.052h-.311c-.052 0-.052-.052-.052-.052-.051-.103-.051-.155-.051-.207 0 0 0 .052 0 0ZM15.849 136.99c0 .052 0 .052-.052.104l60.037 4.547v-7.545l-59.985-3.979v6.873Zm8.331-99.841c.051.052.051.103.103.155.104.258.207.568.155.878 0 .31-.103.62-.207.879-.051.103-.103.155-.155.258a.53.53 0 0 0 .259-.31c.104-.206.207-.517.207-.775 0-.31-.052-.568-.155-.775-.052-.155-.104-.207-.207-.31Z" fill="#4A4A51"/><path d="M24.338 38.183c0-.31-.052-.569-.156-.776-.051-.103-.155-.258-.258-.31a.47.47 0 0 0-.363-.155h-.052c-.207 0-.31.104-.413.207a1.125 1.125 0 0 0-.26.413v.052c-.103.31-.155.724-.051 1.085v.052c.052.155.104.31.259.465a.657.657 0 0 0 .465.207.56.56 0 0 0 .363-.155c.103-.052.155-.155.259-.31.103-.207.155-.465.207-.775Zm-4.555-.776c.052.052.052.104.104.155.103.259.207.569.155.879 0 .31-.104.62-.207.878-.052.104-.104.155-.155.259.103-.052.155-.155.259-.31.103-.207.206-.517.206-.776 0-.31-.051-.568-.155-.775a.794.794 0 0 0-.207-.31Zm4.19 90.333c-.052-.052-.104-.104-.207-.052-.156 0-.26.155-.31.258-.053.104-.104.31-.104.465 0 .207.051.362.103.517.052.104.104.155.155.207.052.052.104.052.207.052.156 0 .26-.155.31-.259a1.23 1.23 0 0 0 .104-.465c0-.207-.051-.362-.103-.517a.704.704 0 0 0-.155-.206Z" fill="#4A4A51"/><path d="M19.886 38.44c0-.257-.052-.567-.156-.774-.052-.104-.155-.207-.259-.31-.103-.104-.206-.155-.31-.155h-.104c-.155 0-.31.103-.414.206a1.125 1.125 0 0 0-.258.414 1.582 1.582 0 0 0-.052 1.085v.052a.998.998 0 0 0 .259.465.656.656 0 0 0 .466.206c.103 0 .207-.051.362-.154.103-.052.155-.156.258-.31.156-.156.208-.466.208-.724ZM75.68 77.302s.051 0 .051.052c.208.103.363.31.466.517.207.361.362.827.362 1.343a2.5 2.5 0 0 1-.362 1.344c-.155.207-.31.413-.466.517-.051 0-.051.051-.103.051.052 0 .103 0 .207-.051 0-.104.104-.207.207-.207.052 0 .103 0 .103.052h.052a1.22 1.22 0 0 0 .414-.465c.207-.362.31-.776.31-1.24 0-.466-.103-.88-.31-1.24a1.22 1.22 0 0 0-.414-.466h-.052c-.051 0-.051.052-.103.052-.103 0-.207-.052-.207-.155-.052-.104-.104-.104-.155-.104ZM19.576 127.43c-.052-.052-.103-.052-.207-.052-.155 0-.259.155-.31.258a1.034 1.034 0 0 0-.104.465c0 .207.052.362.104.517.051.104.103.155.155.207.052.052.103.103.207.052.155 0 .259-.155.31-.259.052-.103.104-.258.104-.465 0-.207-.052-.362-.104-.517-.051-.051-.103-.155-.155-.206ZM73.97 79.421v.104h.415v-.155l-.414.051c0-.051 0-.051 0 0Zm-2.534-.31v.466h.31v-.414l-.31-.052Z" fill="#4A4A51"/><path d="M74.902 77.302h-6.055c-.207 0-.414.052-.57.207a1.22 1.22 0 0 0-.414.465c-.207.362-.31.775-.31 1.24 0 .465.103.879.31 1.24.104.207.26.362.414.466.156.103.363.206.57.206h6.159c.207 0 .414-.051.569-.206.155-.104.31-.259.414-.465.207-.362.31-.776.31-1.24 0-.466-.103-.88-.31-1.24a1.22 1.22 0 0 0-.414-.466c-.207-.103-.362-.207-.57-.207h-.103Zm-5.848 2.377h-.57v-.775l.156-.103v-.155l-.156.103v-.206l.156-.104v.207h.31c.052 0 .104 0 .104.052.103.051.155.155.155.31 0 .051 0 .155-.052.206.052.052.052.155.052.207.052.155-.052.258-.155.258Zm.465 0c-.103 0-.155-.103-.155-.206v-.052c0-.103.052-.207.155-.207h.466v-.103h-.517l-.052-.155h.57c.103 0 .154.103.154.207v.568l-.62-.052Zm1.657 0h-.156v-.568h-.207v.62h-.155v-.62h-.207v.62h-.155v-.775h.776c.104 0 .155.103.155.207l-.051.516Zm.776-.206c0 .103-.052.206-.155.206h-.518v-.981h.155v.206h.363c.103 0 .155.104.155.207v.362Zm.776 0c0 .103-.051.206-.155.206h-.362c-.104 0-.156-.103-.156-.206v-.569h.156v.569h.362v-.569h.155v.569Zm.466.258v-.982h.155v.775h.363l.051.207h-.569Zm1.346 0h-.57c-.103 0-.155-.103-.155-.207v-.051c0-.104.052-.207.156-.207h.413v-.103h-.465l-.052-.155h.517c.104 0 .156.103.156.206v.517Zm.724-.568v.361c0 .104-.051.207-.155.207h-.466v-.982h.156v.207h.362c.052 0 .103.103.103.207Z" fill="#4A4A51"/><path d="M74.799 79.525h.31v-.414h-.31v.414Zm-5.28-.155v.155h.414v-.155h-.414Zm-.518-.259s0-.052 0 0c.052-.052.103-.052.103-.103 0-.052 0-.104-.051-.104h-.363v.259h.156l.155-.052Z" fill="#4A4A51"/><path d="M75.834 33.635 15.9 36.89l-.051 92.864 59.985 3.979v-.155h-.104c-.051 0-.103-.051-.103-.103s.052-.052.103-.103h.052V81.178c-.052 0-.155.052-.207.052h-6.78a1.14 1.14 0 0 1-.673-.207 1.514 1.514 0 0 1-.466-.517 2.682 2.682 0 0 1-.362-1.292c0-.465.104-.93.362-1.291.156-.207.31-.414.466-.517.207-.155.414-.207.673-.207h6.728c.052 0 .156 0 .207.052l.104-43.616ZM20.04 128.153c0 .155 0 .362-.104.517a.659.659 0 0 1-.465.362c-.104 0-.207-.052-.311-.104-.104-.051-.155-.155-.207-.258a1.042 1.042 0 0 1-.155-.569c0-.206.052-.361.103-.516a.659.659 0 0 1 .466-.362c.104 0 .207.052.31.103.104.052.156.155.208.259.103.155.155.361.155.568Zm.052-88.834c-.104.155-.156.259-.31.362-.156.103-.311.155-.415.155h-.311a.832.832 0 0 1-.569-.258 1.071 1.071 0 0 1-.31-.517 2.048 2.048 0 0 1 .051-1.24.753.753 0 0 1 .31-.465c.156-.156.311-.259.518-.259h.311a.59.59 0 0 1 .414.155c.104.104.207.207.259.362.103.258.207.568.155.879.104.258 0 .568-.103.826Zm4.244 89.661a.659.659 0 0 1-.466.362c-.104 0-.207-.052-.31-.104-.104-.051-.156-.155-.208-.258-.103-.155-.155-.362-.155-.62 0-.155 0-.362.104-.517a.659.659 0 0 1 .465-.362c.104 0 .207.052.31.104.104.051.156.155.208.258.103.155.155.362.155.62 0 .104 0 .31-.103.517Zm.155-89.92a2.248 2.248 0 0 1-.31.363.836.836 0 0 1-.466.155h-.311a.832.832 0 0 1-.57-.259 1.23 1.23 0 0 1-.31-.568v-.052c-.103-.362-.103-.827.052-1.188a.753.753 0 0 1 .31-.466c.156-.154.363-.258.518-.258h.31c.156 0 .311.052.466.155.104.103.207.207.26.362.103.258.206.568.206.878.052.362 0 .672-.155.879Z" fill="#fff" fill-opacity=".4"/><path d="M69.001 79.266h-.362v.259H69c.052 0 .103-.052.103-.155 0-.052 0-.104-.051-.104H69Zm-3.829-59.274-.466.052v.155l.466-.052v-.155Zm82.343 116.74-59.468 5.116c-.828.052-1.656.103-2.743.155-.931.052-1.811.052-2.743.052h-1.346c-.465 0-.931 0-1.345-.052-.466 0-.932-.052-1.346-.052a10.9 10.9 0 0 1-1.346-.103l-1.035-.052h-.155c0 .052-.052.052-.103.052L15.692 137.3c-.052 0-.052-.051-.052-.051h-.051l-.828-.052c-.31 0-.621-.052-.984-.103-.155 0-.31-.052-.465-.052l.051 1.033h.052c.052 0 .155.052.207.052.155.052.31.052.466.052.31.052.62.052.932.103l62.417 4.858c.414.052.88.052 1.294.103.414 0 .88.052 1.294.052.414 0 .88 0 1.294.052h1.294c.828 0 1.708 0 2.588-.052.414 0 .88-.052 1.294-.052.206 0 .414-.051.62-.051.208 0 .466-.052.673-.052l59.468-5.22c.259 0 .569-.051.828-.103.155 0 .259-.052.414-.052.052 0 .104-.051.207-.051h.052l.052-1.034c-.104 0-.207.052-.363.052-.362-.052-.672 0-.931 0Zm-18.27-53.642h-1.035v1.396h1.035l.052-.052v-1.292c-.052 0-.052-.052-.052-.052Z" fill="#4A4A51"/><path d="M148.292 21.025c-.31-.051-.569-.051-.879-.103l-59.416-5.064c-.466-.052-.88-.052-1.346-.104-.207 0-.414 0-.621-.051-.259 0-.466 0-.725-.052-.88.052-1.811 0-2.691 0h-1.346c-.465 0-.88 0-1.345.052h-.725c-.207 0-.414 0-.62.051-.467 0-.88.052-1.347.104l-.983.051v61.342h.052c.207.103.362.31.466.516.207.362.362.827.362 1.344 0 .465-.104.982-.362 1.344-.156.206-.31.413-.466.516h-.052v60.566l.932.052c.465.052.88.052 1.345.104.466 0 .932.051 1.346.051h.776c.052-.051.104-.051.104 0h1.811c.88 0 1.812 0 2.743-.051 1.035-.052 1.864-.104 2.692-.156l59.467-5.116c.259 0 .57-.051.88-.103.155 0 .259-.052.414-.052 0-.103.104-.206.207-.206h.104l-.052-115.035c-.052.155-.259.052-.725 0Zm-28.776 39.792 4.503.103v8.63l-4.451-2.738-.052-5.995Zm-.673-.052v9.302l-4.503 2.636v-12.04l4.503.102Zm0 10.491v8.63h-4.503v-5.995l4.503-2.635Zm-8.747 13.953h-1.759v-2.48l.466-.259v-.569l-.466.259v-.672l.466-.258v.671h1.035c.155 0 .258.052.362.104.259.155.414.517.414.93 0 .207-.052.413-.155.62.155.155.207.414.207.724.103.517-.207.93-.57.93Zm1.501 0c-.258 0-.465-.31-.465-.724v-.206c0-.414.207-.724.465-.724h1.398v-.31c0-.052 0-.052-.052-.052h-1.553l-.155-.568h1.708c.259 0 .466.31.466.724v1.86h-1.812Zm5.124-.052h-.466v-1.912c0-.052 0-.052-.051-.052h-.621c-.052 0-.052.052-.052.052v1.912h-.466v-1.912c0-.052 0-.052-.052-.052h-.621c-.052 0-.052.052-.052.052v1.912h-.465v-2.584h2.38c.259 0 .466.31.466.724v1.86Zm2.433-.723c0 .413-.207.723-.466.723h-1.553v-3.204h.466v.62h1.087c.259 0 .466.31.466.724v1.137Zm.362-16.485 4.451 2.739v9.198h-4.451V67.95Zm2.07 16.485c0 .362-.207.723-.466.723h-1.138c-.259 0-.466-.31-.466-.723v-1.86h.466v1.911c0 .052 0 .052.052.052h1.138l.052-.052v-1.912h.414l-.052 1.86Zm1.553.672v-3.153h.466v2.584h1.087l.155.62-1.708-.051Zm4.192 0h-1.759c-.259 0-.466-.31-.466-.672v-.207c0-.362.207-.723.466-.723h1.345v-.31c0-.052 0-.052-.052-.052h-1.501l-.155-.569h1.656c.259 0 .466.31.466.672v1.86Zm2.381-.724c0 .362-.207.672-.466.672h-1.553V81.9h.466v.62h1.087c.259 0 .466.31.466.672v1.19Z" fill="#4A4A51"/><path d="M109.939 83.814h-1.138v.879h1.087c.155 0 .31-.207.31-.414 0-.155-.052-.258-.103-.362 0-.051-.052-.103-.156-.103Zm-27.376 59.843H81.27c-.414 0-.88 0-1.294-.052-.413 0-.88-.052-1.293-.052h-.104v.414h.052c.052 0 .103.052.155.052.052 0 .155.052.207.052.104 0 .207.051.31.051.26.052.518.052.88.052.518.052 1.087.052 1.76.052 1.294 0 2.588 0 3.468-.104.207 0 .414-.051.621-.051.103 0 .207-.052.31-.052.052 0 .104-.052.104-.052h.052v-.414c-.414 0-.828.052-1.242.052-.932.052-1.812.052-2.692.052Zm27.325-60.412c.051 0 .051 0 .103-.051.052-.052.155-.155.155-.259v-.103c0-.155-.051-.31-.155-.362-.052 0-.052-.052-.103-.052h-1.035v.776h.517l.518.051Zm15.631.879v.362c0 .052 0 .052.051.052h1.346v-.517h-1.346c-.051.051-.051.051-.051.103Zm-6.883-.93h-1.035v1.447h1.035l.051-.052v-1.292c0-.103-.051-.103-.051-.103Zm28.569 55.088-5.9.518h.31c.466.051 1.035.051 1.605.051.465 0 2.07 0 3.209-.103.155 0 .31-.052.465-.052.104 0 .156-.052.207-.052 0 0 .052 0 .104-.051v-.311ZM34.895 27.692c.052 0 .052-.052.052-.103l.725-2.74c0-.051 0-.154-.052-.206 0-.052-.052-.052-.052-.052-.051 0-.051 0-.051.052 0 0 0 .052-.052.052l-.725 2.739c0 .051 0 .155.052.258.052 0 .103.052.103 0ZM11.19 32.188a.976.976 0 0 0 .415.103h.517l19.098-1.137h.052c.259 0 .57-.052.828-.155.155-.052.259-.155.414-.258.103-.104.207-.207.31-.362.156-.207.311-.517.466-.827.104-.31.207-.62.259-.93l3.83-14.521c.104-.362.207-.776.259-1.137 0-.207 0-.414-.052-.569-.052-.103-.052-.155-.103-.258a.714.714 0 0 0-.208-.155 1.034 1.034 0 0 0-.465-.104h-.518l-19.15 1.602c-.362.052-.62.052-.88.207-.155.052-.258.155-.362.258-.103.052-.207.156-.31.31-.104.104-.156.259-.26.362-.05.104-.103.259-.206.414-.104.31-.155.62-.259.93l-3.83 14.108a8.985 8.985 0 0 0-.259 1.137c0 .207 0 .413.052.568.052.104.052.155.104.259.103.051.155.103.258.155Zm.88-1.706.414-1.395 3.364-12.454.466-1.757c.052-.259.31-.414.57-.465l1.138-.104 16.82-1.395.829-.052c.207 0 .414.052.518.207a.719.719 0 0 1 .103.569l-.362 1.446-3.364 12.816-.466 1.81a.606.606 0 0 1-.57.464l-1.19.052-16.82 1.034-.777.051h-.052a.657.657 0 0 1-.466-.207c-.155-.206-.207-.413-.155-.62Zm1.708 106.405c.31.051.673.051.984.103l.672.052.052-103.666-1.863.104h-.57l-.103 103.148h.104c.103 0 .207.104.207.207.155 0 .31.052.517.052Zm1.19 1.808h-.207v.363s0 .051.052.051c.051 0 .103.052.103.052.052 0 .155.052.207.052.104 0 .207 0 .259.051.207 0 .466.052.776.052.466 0 .983.052 1.553.052h2.536c.207 0 .362 0 .57-.052h.258l-6.107-.621Z" fill="#4A4A51"/><path d="m13.571 33.273 1.863-.103c.052-.104.104-.155.207-.155.104 0 .156.051.207.103l16.873-.93c.155 0 .362 0 .518-.052.155-.052.31-.052.465-.155.156-.052.31-.155.414-.258.104-.104.26-.207.363-.362a2.38 2.38 0 0 0 .465-.878c.104-.31.208-.672.311-.982l2.846-10.75.104-.361.88-3.41c.103-.414.207-.828.259-1.241 0-.258 0-.413-.052-.62-.052-.155-.155-.31-.362-.465l-1.553-.879a1.24 1.24 0 0 0-.466-.103h-.052c.207 0 .363.052.466.103.104.052.156.104.259.207l.155.31c.052.155.052.362.052.62a8.977 8.977 0 0 1-.259 1.137l-3.83 14.521c-.103.31-.155.62-.258.93-.156.362-.311.62-.466.88a1.207 1.207 0 0 1-.363.36c-.155.104-.258.208-.414.26a2.079 2.079 0 0 1-.776.154h-.207l-19.201 1.292h-.466a1.03 1.03 0 0 1-.466-.103c-.052-.052-.155-.103-.207-.155.052.103.155.155.207.207l1.553.775c.051-.052.103-.052.155-.052.103 0 .207.052.207.155.207.052.414.052.57 0Zm21.065-5.891.724-2.739c0-.052.052-.103.052-.103.052-.052.104-.104.207-.104.052 0 .156.052.207.104.104.103.104.258.104.361l-.725 2.74c-.051.103-.103.154-.155.206h-.104a.393.393 0 0 1-.207-.103c-.103-.052-.155-.207-.103-.362Zm76.962 56.794c-.052 0-.052.052-.052.052v.362c0 .051 0 .051.052.051h1.345v-.517l-1.345.052Z" fill="#4A4A51"/></svg>