<svg width="160" height="160" fill="none" xmlns="http://www.w3.org/2000/svg"><path d="M66.047 22.54h-.51v-.153h-.153v.923c.153 0 .357 0 .51-.051h.204c.051 0 .051 0 .051-.052.051-.05.051-.102.051-.205v-.256c0-.052 0-.103-.051-.154 0 0-.051-.051-.102-.051Zm-.051.565-.46.051v-.359l.46-.051v.359Zm-1.326-1.077v-.154c0-.052 0-.103-.05-.103v-.205c0-.051 0-.051-.052-.103l-.05-.05h-.052s-.663.05-.918.05v.924c.357 0 .714-.052 1.071-.052v-.307h.051Zm-.918-.41c.153 0 .306 0 .46-.052h.202v.256c-.204 0-.459.052-.663.052v-.257Zm.714.41v.102c-.255 0-.459.051-.714.051v-.205c.153 0 .306 0 .46-.051h.203c.051.051.051.051.051.103Zm2.805.102h.102c.051 0 .051 0 .051-.051.051-.051.051-.103.051-.205v-.308c0-.051 0-.103-.05-.154 0-.051-.052-.051-.103-.051h-.51v-.154h-.153v.923c.153 0 .357 0 .51-.051.051.051.051.051.102.051Zm-.459-.564.46-.051v.359l-.46.051v-.359ZM24.927 25.31l.05.051h.052l2.296-2.154c.05-.051.05-.103 0-.103-.051-.05-.102-.05-.102 0l-2.296 2.155c-.051 0-.051.051 0 .051Zm-3.264.308h.05l4.745-4.72c.051-.05.051-.102 0-.102-.05-.051-.102-.051-.102 0l-4.745 4.72c-.05.05-.05.102 0 .102 0-.052.052 0 .052 0Z" fill="#545454"/><path d="M13.653 33.106c.05 0 .05 0 0 0 .05 0 .05 0 0 0l.816-.05 16.58-1.027 1.174-.051c.255 0 .51-.205.561-.462l.46-1.795 3.315-12.72.357-1.437a.716.716 0 0 0-.102-.564.484.484 0 0 0-.51-.205l-.816.051-16.632 1.488-1.122.102c-.255 0-.46.206-.561.462l-.46 1.744-3.264 12.31-.409 1.385c-.05.205 0 .41.103.564.153.103.306.205.51.205Zm-.408-.718.357-1.385 3.316-12.361.459-1.744a.445.445 0 0 1 .408-.308l1.122-.102 16.58-1.385.817-.051c.153 0 .306.05.357.154.102.102.102.256.102.41l-.357 1.436-3.316 12.72-.51 1.693c-.051.205-.204.308-.408.308l-1.174.051-16.58 1.026-.765.051a.462.462 0 0 1-.357-.154.317.317 0 0 1-.051-.359Z" fill="#545454"/><path d="M148.439 22.95c0-.05-.051-.05-.051-.102l-.051-.051c-.051-.052-.153-.154-.97-.257-.306-.051-.561-.051-.867-.102L87.933 17.41c-.46-.051-.918-.051-1.326-.103-.205 0-.41 0-.664-.051-.255 0-.46 0-.715-.051-.866-.052-1.785-.052-2.703-.052h-1.326c-.46 0-.92 0-1.327.052h-.714c-.204 0-.409 0-.664.051-.459 0-.918.051-1.326.103l-1.02.05c-.051 0-.051 0-.102.052-.051 0-.051-.051-.103 0l-20.303 1.54v-.82s0-.052-.051-.103l-.051-.052c-.051-.05-.153-.102-.612-.153-.153 0-.357-.052-.612-.052-1.225-.102-2.704-.102-3.317-.102-.612 0-1.173 0-1.632.051-.306 0-.561.051-.816.051-.102 0-.205 0-.306.052-.102 0-.153 0-.256.05-.05 0-.102 0-.153.052 0 0-.05 0-.05.051 0 0-.052 0-.052.052l-.05.051c-.052.051-.052.051-.052.103V19s0 .051.051.051l.051.052c.051 0 .102.05.102.05.051 0 .102.052.153.052.103 0 .205.051.306.051.154 0 .358.052.562.052v.307l-9.846.77.867-3.283c.05-.564.204-.974.204-1.385 0-.256 0-.461-.051-.666-.102-.257-.204-.41-.408-.513l-1.53-.872a1.207 1.207 0 0 0-.613-.154h-.561L18.09 15.154c-.358.051-.664.051-1.02.205a1.204 1.204 0 0 0-.46.308l-.357.359a3.56 3.56 0 0 0-.51.872 5.468 5.468 0 0 1-.204.975l-1.173 4.36c-.51.102-.664.153-.715.204 0 0-.05.052-.05.103v2.72l-1.786 6.668c-.102.359-.256.871-.256 1.282 0 .256 0 .461.052.667l.153.307c.05.103.153.154.255.206l1.53.82-.05 102.584c0 .103.101.205.203.205h.102l.051 1.231c0 .052 0 .103.051.154 0 0 .051.052.102.052s.051.051.102.051.051 0 .102.051c.102 0 .154.051.256.051.152.052.306.052.459.052.204 0 .408.051.612.051v.41c0 .052 0 .052.05.103l.052.051c.05 0 .102.052.153.052.05 0 .153.051.204.051.102 0 .204 0 .255.051.204 0 .46.051.765.051.46 0 .97.052 1.53.052h2.605c.153 0 .306 0 .459-.052h.05c.154 0 .409-.051.664-.051.102 0 .204-.051.306-.051h.051l54.69 4.257c.357.051.663.051 1.02.051v.411c0 .051 0 .102.051.102 0 0 .051.052.102.052.051.051.102.051.153.051.103 0 .154.051.256.051.102 0 .204.051.306.051.255.052.51.052.866.052.511.051 1.123.051 1.736.051h.51c1.07 0 2.142-.051 2.907-.103.205 0 .409-.051.612-.051.102 0 .204-.051.306-.051.052 0 .102-.051.153-.051l.052-.052c.05-.051.05-.102.05-.154v-.41c.154 0 .359 0 .511-.051.205 0 .46-.052.663-.052l51.834-4.564h.102c.102 0 .204 0 .255.051.255 0 .459.051.816.051.459.051 1.02.051 1.582.051h.612c.714 0 1.734 0 2.602-.102.153 0 .306-.051.459-.051.102 0 .153-.052.255-.052.051 0 .102-.051.153-.051.051-.051.102-.103.102-.154v-.359c.255 0 .51-.051.714-.103.153 0 .306-.051.408-.051.051 0 .153-.051.204-.051.051 0 .051 0 .102-.051.052 0 .051 0 .103-.052 0 0 .051-.051.102-.051l.051-.051v-.052l.051-1.231h.102c.102 0 .204-.102.204-.205l-.051-114.33c.102-.102.102-.153.051-.153ZM76.097 79.014c.05 0 .102 0 .102-.052h.05c.154.103.307.257.409.462.204.359.306.769.306 1.23 0 .463-.102.873-.306 1.232a1.215 1.215 0 0 1-.408.462h-.051c-.051-.052-.102-.052-.102-.052-.102 0-.204.103-.204.206-.052 0-.102.05-.204.05.05 0 .05-.05.102-.05.204-.103.357-.308.459-.513a2.72 2.72 0 0 0 .357-1.334c0-.462-.102-.975-.357-1.334-.153-.205-.306-.41-.46-.513 0 0-.05 0-.101-.05h.153c.05.153.153.255.255.255Zm-.408-.41h-6.684c-.204 0-.459.05-.663.204a1.5 1.5 0 0 0-.46.513c-.203.36-.356.82-.356 1.283 0 .46.102.923.357 1.282.102.205.306.41.46.513.203.154.407.205.662.205h6.685c.05 0 .153 0 .204-.051v51.805h-.051a.11.11 0 0 0-.102.102c0 .052.05.103.102.103h.101v.154l-59.129-3.95.051-92.171 59.078-3.232v43.188c-.154.102-.204.051-.255.051Zm.05.358c.153.103.307.257.409.462.204.359.306.769.306 1.23 0 .463-.102.873-.306 1.232a1.214 1.214 0 0 1-.408.462c-.205.102-.358.205-.562.205h-6.071c-.204 0-.408-.051-.56-.205a1.214 1.214 0 0 1-.409-.462 2.446 2.446 0 0 1-.306-1.231c0-.462.102-.872.306-1.231.102-.205.255-.36.408-.462.153-.102.357-.205.561-.205h6.122c.102.051.306.103.51.205Zm.153 56.268v7.488l-59.179-4.513c0-.052.051-.052.051-.103v-6.771l59.128 3.899ZM47.782 18.744v-.564l.051-.051h.051c.051 0 .102-.051.153-.051.102 0 .154-.052.255-.052.102 0 .205 0 .307-.05.255 0 .51-.052.816-.052.51 0 1.02-.051 1.632-.051.562 0 2.041 0 3.266.102.255 0 .408.051.612.051.459.052.51.103.51.103l.05.051v.821l-1.02.103v-.41h-.05a60.491 60.491 0 0 0-3.368-.103c-.612 0-1.173 0-1.683.05-.306 0-.612.052-.816.052-.102 0-.256 0-.358.051-.101 0-.153.052-.255.052-.05-.052-.102-.052-.153-.052Zm.51.206c-.102 0-.203-.052-.306-.052-.05 0-.102 0-.153-.05h.051c.102 0 .153-.052.255-.052.102 0 .256-.052.358-.052.255 0 .51-.05.816-.05.51-.052 1.071-.052 1.683-.052.715 0 1.378 0 2.041.051l-4.132.308c-.204 0-.408 0-.613-.051Zm6.02-.154v.308l-5.254.41v-.308l5.255-.41Zm21.58-.923v17.131l-59.077 3.231v-3.077l16.58-.975c.154 0 .358 0 .51-.05.205-.052.358-.104.511-.155a1.21 1.21 0 0 0 .46-.308c.152-.102.254-.256.356-.41.204-.256.357-.564.51-.923.154-.36.205-.718.306-1.026l.766-2.975 2.55-.154c.307 0 .613-.154.919-.359.255-.205.46-.41.612-.718.306-.513.46-1.18.408-1.846-.05-.667-.255-1.334-.56-1.796a2.992 2.992 0 0 0-.664-.718 2.284 2.284 0 0 0-.919-.359h-.254l-.613.052.46-1.796 37.14-2.77Zm-36.63 4.924c.46.05.817.307 1.02.512.256.257.46.616.613 1.026.153.36.204.77.204 1.18a3.37 3.37 0 0 1-.357 1.488c-.153.256-.306.461-.51.564a1.93 1.93 0 0 1-.663.308c-.255.05-.51 0-.715-.103a2.403 2.403 0 0 1-.612-.462 2.928 2.928 0 0 1-.663-1.385l.714-2.77c.255-.256.613-.358.97-.358Zm-.969.102.051-.256.663-.052h.205c.102 0 .255.052.357.103-.102-.051-.204-.051-.306-.051-.357-.052-.664.051-.97.256Zm1.888 4.873c-.051.051-.153.103-.204.154a.705.705 0 0 0 .204-.154Zm-2.143-.36c.204.206.408.36.663.514.205.102.408.154.613.154h.204a.735.735 0 0 0 .357-.103c-.153.051-.357.103-.51.154l-2.5.154.51-1.95c.153.411.408.821.663 1.078ZM14.01 22.746c.051 0 .153-.051.255-.051l-.255.975v-.924ZM11.867 33.62c-.051-.154-.051-.308-.051-.564 0-.36.102-.77.204-1.077l3.775-14.054c.102-.308.153-.616.306-.923.051-.154.102-.308.204-.41.051-.155.153-.257.255-.36.051-.154.153-.256.255-.359.102-.102.255-.154.357-.256.255-.103.561-.154.868-.205l18.825-1.59c.153 0 .306-.052.51 0 .204 0 .357.05.46.102.05.051.152.103.203.205a.393.393 0 0 1 .102.257c.051.154.051.308.051.564a8.76 8.76 0 0 1-.255 1.128L34.161 30.49c-.102.308-.153.616-.255.924a1.807 1.807 0 0 1-.46.82c-.101.103-.203.257-.305.36a1.11 1.11 0 0 1-.409.256 2.299 2.299 0 0 1-.816.154h-.05L13.04 34.08h-.511a.957.957 0 0 1-.407-.103.687.687 0 0 1-.204-.154c0-.051-.051-.102-.051-.205Zm1.887 1.334c-.05 0-.102 0-.153.051l-1.53-.77-.204-.205c.05.052.102.103.204.154.102.052.255.103.459.103h.459l18.825-1.129h.204c.255 0 .51-.05.765-.153a1.11 1.11 0 0 0 .409-.257c.102-.102.255-.205.357-.359a2.37 2.37 0 0 0 .459-.872c.102-.307.204-.615.255-.923l3.826-14.516a8.97 8.97 0 0 0 .255-1.128c0-.256 0-.462-.05-.616l-.154-.307c-.05-.103-.153-.154-.255-.206a1.213 1.213 0 0 0-.459-.102h.051c.204 0 .357.051.46.102l1.53.873c.204.102.306.307.357.461.05.154.05.36.05.616 0 .41-.152.82-.254 1.23l-.868 3.386-.102.359-2.806 10.669c-.102.307-.153.666-.306.974a6.747 6.747 0 0 1-.459.872 1.195 1.195 0 0 1-.357.36c-.153.102-.255.204-.408.256-.153.05-.306.102-.46.154-.152.05-.356.05-.51.05l-16.63.975c-.052-.05-.103-.102-.205-.102s-.153.051-.204.154H14.01a.28.28 0 0 0-.256-.154Zm.46 102.943a.22.22 0 0 0-.205-.205c-.05 0-.05 0-.102.051l.102-102.43h.561l1.786-.103-.05 102.892-.664-.051c-.306 0-.612-.052-.97-.103-.152 0-.306-.051-.459-.051.051 0 .051 0 0 0Zm7.499 2.308h-.051c-.153 0-.357 0-.561.051h-.102c-.204 0-.46 0-.664.052h-1.734c-.561 0-1.072 0-1.53-.052-.307 0-.562-.051-.766-.051-.102 0-.204 0-.255-.051-.051 0-.153 0-.204-.052-.051 0-.102 0-.102-.051l-.051-.051v-.359h.204l6.02.461c-.102.103-.153.103-.204.103Zm64.637 4.77s-.05.051 0 0c-.101.051-.101.103-.152.103-.051 0-.204.051-.306.051-.204.051-.408.051-.612.051-.868.103-2.144.103-3.418.103-.612 0-1.224-.051-1.736-.051-.356 0-.611-.052-.866-.052-.102 0-.204 0-.306-.051-.051 0-.153-.051-.204-.051-.052 0-.103-.052-.153-.052h-.052v-.41h.102c.409 0 .868.051 1.276.051.408 0 .867 0 1.275.052h1.276c.816 0 1.684 0 2.55-.052.409 0 .817-.051 1.225-.051v.359h.102Zm59.895-5.283c-.051 0-.051.051-.102.051s-.153.052-.204.052c-.153.051-.357.051-.459.051-1.123.103-2.704.103-3.163.103-.562 0-1.123 0-1.582-.052h-.306l5.816-.513v.308c0-.051 0-.051 0 0Zm1.479-1.026s-.051 0 0 0c-.102.052-.153.052-.204.052-.153.051-.255.051-.408.051-.255.051-.561.051-.816.102l-58.618 5.181c-.204 0-.46.051-.663.051-.204 0-.408.051-.613.051-.408 0-.868.052-1.276.052-.867.051-1.735.051-2.55.051H81.3c-.408 0-.868 0-1.276-.051-.408 0-.867-.052-1.276-.052-.408 0-.867-.051-1.275-.102l-61.526-4.77c-.306 0-.612-.052-.918-.103-.153 0-.306-.051-.46-.051-.05 0-.152-.051-.204-.051h-.05l-.052-1.026c.154 0 .256.051.46.051.306.051.663.051.969.103l.816.051h.051c0 .051.051.051.051.051l59.333 4.514c.05 0 .05-.051.102-.051h.153l1.021.051c.46.051.867.051 1.326.102.46 0 .919.052 1.327.052.459 0 .918 0 1.326.051h1.327c.867 0 1.785 0 2.703-.051 1.02-.052 1.838-.103 2.705-.154l58.618-5.078c.255 0 .561-.051.867-.103.153 0 .255-.051.357-.051l-.051 1.077Zm.256-1.385c-.103 0-.205.103-.205.206-.102 0-.255.051-.408.051-.306.051-.612.051-.867.102l-58.618 5.078c-.817.052-1.633.103-2.654.154-.917.051-1.785.051-2.703.051h-1.786c-.05-.051-.102-.051-.102 0h-.765c-.46 0-.918-.051-1.327-.051-.459 0-.918-.051-1.326-.102l-.918-.052V82.603h.05c.205-.102.358-.308.46-.513.204-.36.357-.82.357-1.333 0-.462-.102-.975-.357-1.334-.153-.205-.306-.41-.46-.513h-.05V18.026l.918-.05c.46-.052.867-.052 1.326-.103.204 0 .409 0 .613-.052h.714c.459 0 .868 0 1.326-.051h1.327c.867 0 1.786 0 2.653.051.255 0 .459 0 .713.052.204 0 .408 0 .612.05.46.052.869.052 1.328.103l58.567 5.027c.306 0 .561.051.867.103.459.05.664.102.715.154l.051 114.176c.051-.206 0-.206-.051-.206Z" fill="#545454"/><path d="M24.877 128.715c-.102-.052-.204-.103-.306-.103-.204 0-.357.154-.46.359-.101.205-.101.41-.101.513 0 .205.05.41.153.616.05.102.153.205.204.256.102.051.204.103.306.103.204 0 .357-.154.46-.359.101-.206.101-.411.101-.513a1.37 1.37 0 0 0-.153-.616c-.05-.102-.102-.205-.204-.256Zm.102 1.282c-.05.051-.153.256-.306.256-.102 0-.153-.051-.204-.051a.697.697 0 0 1-.153-.205c-.102-.154-.102-.308-.102-.513 0-.154.05-.308.102-.462.05-.051.153-.256.306-.256.102 0 .153.051.204.051.051.052.102.103.153.205.102.154.102.308.102.513 0 .205-.05.359-.102.462Zm-4.235-1.334c-.05-.102-.102-.205-.204-.256-.102-.052-.204-.103-.306-.103-.204 0-.357.154-.46.359-.101.154-.101.359-.101.513 0 .205.05.41.153.564.05.103.102.206.204.257.102.051.204.102.306.102.204 0 .357-.153.46-.359.101-.205.101-.41.101-.513 0-.153-.05-.359-.153-.564Zm-.05.616c0 .154-.052.307-.103.461-.05.052-.153.257-.306.257-.102 0-.153-.051-.204-.051-.051-.052-.102-.103-.153-.206-.102-.154-.102-.307-.102-.513 0-.153.05-.307.102-.461.05-.051.153-.257.306-.257.102 0 .153.052.204.052a.697.697 0 0 1 .153.205c.102.154.102.308.102.513ZM65.843 21.617h.204v.564h.204v-.564h.204v.564h.204v-.615c0-.051 0-.051-.051-.103 0 0-.051-.05-.102-.05-.255 0-.51.05-.817.05v.77h.205c-.052-.205-.051-.41-.051-.616Zm-2.193 1.846c.05 0 .05 0 0 0h.306c.153 0 .255 0 .408-.05v-.155h-.612v-.769h-.204v.923c.05 0 .102.051.102.051ZM25.08 38.8a1.807 1.807 0 0 0-.459-.205h-.305c-.205 0-.358.102-.51.256-.103.103-.205.308-.307.462-.153.359-.153.77-.05 1.18v.05c.05.206.152.411.305.565a.817.817 0 0 0 .561.257h.306a.82.82 0 0 0 .46-.154c.102-.103.204-.206.306-.36.153-.256.204-.564.204-.871 0-.308-.051-.616-.153-.872-.204-.103-.255-.205-.357-.308Zm-.407 2.257a.462.462 0 0 1-.358.154.645.645 0 0 1-.459-.206c-.153-.153-.204-.359-.255-.461v-.051a1.57 1.57 0 0 1 .051-1.078v-.05c.051-.155.153-.309.255-.411.102-.103.255-.205.408-.205h.051a.55.55 0 0 1 .358.154c.102.05.152.205.255.307.102.205.153.513.153.77 0 .307-.102.564-.205.769-.101.154-.152.256-.255.308Zm.459-.257c-.051.103-.153.205-.256.308.051-.051.103-.154.154-.256.153-.257.204-.565.204-.872 0-.308-.051-.616-.204-.872-.051-.052-.051-.103-.103-.154.052.051.154.154.205.256.102.205.153.513.153.77.05.307 0 .615-.153.82Zm-4.439-1.795c-.153-.103-.255-.154-.409-.154h-.305c-.205 0-.358.103-.51.257a1.788 1.788 0 0 0-.307.461c-.153.36-.153.82-.05 1.231.05.205.152.41.305.513a.818.818 0 0 0 .561.257h.307a.578.578 0 0 0 .408-.154c.102-.103.204-.205.306-.36.153-.256.204-.564.204-.871 0-.308-.051-.616-.153-.872a2.219 2.219 0 0 1-.357-.308Zm-.358 2.308a.462.462 0 0 1-.357.154.645.645 0 0 1-.459-.205.993.993 0 0 1-.255-.462v-.051c-.102-.36-.102-.77.051-1.077a1.11 1.11 0 0 1 .255-.41c.102-.103.204-.206.408-.206h.103c.102 0 .204.052.306.154.102.103.153.205.255.308.102.205.153.513.153.77 0 .256-.102.564-.204.769a.617.617 0 0 0-.256.256Zm.46-.308c-.051.103-.153.206-.255.308.05-.051.102-.154.153-.256.153-.257.204-.565.204-.872 0-.308-.051-.616-.153-.872-.051-.052-.051-.103-.102-.154.05.051.153.154.204.256.102.206.153.513.153.77 0 .359-.102.615-.204.82Zm14.744-11.232h.102c.102-.052.153-.103.153-.206l.714-2.718c.051-.154 0-.257-.05-.36-.103-.153-.154-.153-.205-.153a.386.386 0 0 0-.204.103c-.051.05-.051.05-.051.102l-.714 2.719a.4.4 0 0 0 .102.41c0 .051.102.102.153.102Zm-.102-.462.714-2.719c0-.05 0-.05.051-.05l.051-.052s.051 0 .051.051c.051.051.051.154.051.205l-.714 2.719c0 .051-.051.102-.051.102h-.102c-.051-.051-.102-.154-.051-.256Zm32.191-7.232s.051 0 0 0h.408c.153 0 .255 0 .409-.051v-.77h-.205v.616c-.153 0-.306 0-.459.051v-.616h-.204v.72s.051 0 .051.05Zm5.051.769.357-.051v-2h-.255l-.561.358v.257l.459-.257v1.693Zm-7.449-.205c-.05 0-.05-.051-.102-.051h-.663v.154c.204 0 .408-.052.612-.052v.103c-.153 0-.306 0-.46.051h-.101c-.051 0-.051.052-.051.103v.256c0 .052 0 .103.05.103h.256c.153 0 .306 0 .46-.051v-.616s.05.051 0 0Zm-.102.564-.46.052v-.154l.46-.052v.154Zm4.745-1.437c.051.052.05.104.102.104 0 .05.051.05.051.102l-.765 1.077c.153 0 .306 0 .459-.051.255-.36.51-.667.765-1.026 0 .051.051.051.051.103.051.051.051.102.102.102.051.052.102.154.204.257.102.154.255.308.357.461.153 0 .306 0 .46-.05-.256-.309-.51-.616-.766-.976l.766-1.077c-.154 0-.307 0-.46.052-.255.359-.51.667-.714 1.026l-.765-.924c-.153 0-.306 0-.46.052.154.153.256.307.409.461l.204.308Zm-5.05.514h.255c.153 0 .306 0 .459-.052v-.615c0-.052-.051-.052-.051-.103-.051 0-.051-.051-.102-.051h-.306c-.102 0-.255 0-.357.051v.205c.204 0 .408-.05.612-.05v.102c-.153 0-.51.051-.51.051h-.051c-.051 0-.051.051-.051.103v.256l.102.103Zm.102-.308.459-.051v.153l-.46.052v-.154Zm58.414 50.266-4.388-2.718v11.848l4.388-.05v-9.08Zm.051-9.745-4.439-.052v5.95l4.388 2.719.051-8.617Zm-5.102 9.181v-9.284l-4.49-.102v12.002l4.49-2.616Zm-.051 9.694.051-8.565-4.49 2.615v5.95h4.439Zm4.745 4.616v-2.564h-.46v3.129h1.684l-.153-.565h-1.071Zm3.213-1.948h-1.632l.153.564h1.479l.052.051v.308h-1.327c-.255 0-.459.307-.459.718v.205c0 .36.204.667.459.667h1.735v-1.796c0-.41-.204-.718-.46-.718Zm0 1.948h-1.326l-.051-.05v-.36c0-.05 0-.05.051-.05h1.326v.46Zm2.398-1.949h-1.071v-.615h-.459v3.129h1.53c.256 0 .46-.308.46-.667v-1.13c-.051-.41-.255-.717-.46-.717Zm-.051 1.847c0 .05 0 .05-.051.05h-1.02v-1.384h1.02l.051.052v1.282Zm-12.805-1.796h-2.346v2.565h.459v-1.898c0-.051 0-.051.051-.051h.612l.051.05v1.899h.459v-1.898c0-.051 0-.051.051-.051h.612c.051 0 .051.05.051.05v1.899h.46v-1.846c0-.411-.205-.718-.46-.718Zm4.847 1.898c0 .052 0 .052-.051.052h-1.122l-.051-.052v-1.897h-.46v1.846c0 .41.204.718.46.667h1.122c.255 0 .459-.308.459-.718V84.04h-.408l.051 1.95Zm-8.112-1.898h-1.683l.153.565h1.53c.051 0 .051.05.051.05v.309h-1.377c-.255 0-.459.308-.459.718v.205c0 .41.204.718.459.718h1.785v-1.846c0-.411-.204-.718-.459-.718Zm-1.326 2c-.051 0-.051-.05-.051-.05v-.36c0-.051 0-.051.051-.051h1.326v.513l-1.326-.051Zm6.989-1.999h-1.071v-.616h-.46v3.18h1.531c.255 0 .459-.308.459-.718V84.81c0-.41-.204-.718-.459-.718Zm0 1.897c0 .052 0 .052-.051.052h-1.02v-1.436h1.02l.051.051v1.333Zm-10.203-3.026v.667l.51-.256v-.718l-.51.307Z" fill="#545454"/><path d="M110.074 85.014c.102-.154.153-.359.153-.616 0-.41-.204-.769-.408-.923a.946.946 0 0 0-.357-.102h-1.02v.564l-.46.256v2.462h1.735c.357 0 .612-.41.612-.923 0-.308-.102-.564-.255-.718Zm-1.632-1.077h1.02c.051 0 .051 0 .102.051.102.051.153.205.153.359v.103a.282.282 0 0 1-.153.256c-.051 0-.051.051-.102.051h-1.02v-.82Zm1.071 2.205h-1.071v-.872h1.122c.051 0 .102.052.153.103.051.051.102.205.102.359 0 .205-.153.41-.306.41Zm-36.069-5.129v-.769h-.153v.974h.561l-.05-.205h-.358Zm1.021-.563h-.51l.05.153h.46v.102h-.409c-.102 0-.153.103-.153.206v.051c0 .102.051.205.153.205h.562v-.564c0-.103-.051-.154-.153-.154Zm0 .563h-.409v-.102h.409v.102Zm.408-.769h-.153v.974h.459c.102 0 .153-.102.153-.205v-.359c0-.103-.051-.205-.153-.205h-.306v-.205Zm.306.36c.05 0 .05 0 0 0v.41h-.306v-.41h.306Zm-4.031-.206h-.765v.769h.153v-.615h.204v.615h.153v-.615h.204v.564h.153v-.564c.051-.052 0-.154-.102-.154Zm1.532.615h-.358v-.564h-.153v.564c0 .103.051.205.153.205h.357c.102 0 .153-.102.153-.205v-.564h-.153v.564Zm-2.552-.615h-.561l.05.154h.51v.102h-.458c-.102 0-.153.103-.153.205v.052c0 .102.05.205.153.205h.56v-.564c.052-.052-.05-.154-.101-.154Zm-.46.615v-.154h.409v.154h-.408Zm2.245-.615h-.357v-.206h-.153v.975h.511c.102 0 .153-.103.153-.205v-.36c0-.102-.051-.204-.153-.204Zm0 .615h-.357v-.462h.306l.052.462Zm-3.265-.974v.205l.154-.103v-.205l-.154.103Zm.714.615c.051-.051.051-.103.051-.205 0-.154-.05-.257-.153-.308-.05 0-.102-.051-.102-.051h-.306v.154l-.153.102v.77h.561c.102 0 .204-.154.204-.308-.05 0-.102-.103-.102-.154Zm-.56-.308h.356c.051 0 .051.052.051.103 0 .05 0 .05-.05.102H68.8v-.205Zm.356.667h-.357v-.256h.357s.051 0 .051.05c0 0 .051.052.051.104a.11.11 0 0 1-.102.102Z" fill="#545454"/><path d="M37.376 13.513h.102c.204 0 .408.051.56.154l1.531.872a.814.814 0 0 1 .408.513c.103.205.103.41.103.667 0 .41-.154.871-.256 1.23l-.867 3.283 9.897-.77v-.307c-.204 0-.408-.051-.56-.051-.103 0-.205-.052-.307-.052-.051 0-.102 0-.153-.05-.051 0-.102 0-.102-.052 0 0-.051 0-.051-.051l-.051-.052v-.718s0-.051.051-.102h.051l.051-.052h.051c.051 0 .102-.051.153-.051.102 0 .153-.051.255-.051.102 0 .204-.052.306-.052.255 0 .51-.05.816-.05.51 0 1.02-.052 1.633-.052h.357c.714 0 1.888 0 2.96.102.254 0 .407.052.611.052.46.051.562.102.613.154l.05.05c.052.052.052.052.052.103v.821l20.304-1.539c.051 0 .051 0 .102.052.051 0 .051-.052.102-.052l1.02-.05c.46-.052.919-.052 1.327-.104.204 0 .408 0 .663-.05h.715c.459 0 .918 0 1.326-.052h1.326c.919 0 1.786 0 2.704.051.255 0 .459 0 .714.051.204 0 .409 0 .664.052.459 0 .918.051 1.326.102L146.5 22.49c.306 0 .561.051.867.103.817.102.919.205.97.256l.051.051.051.052v.102l.051 114.33c0 .103-.102.205-.204.205h-.102l-.051 1.231v.051s0 .052-.051.052c0 0-.051.051-.102.051s-.051.051-.102.051-.051 0-.102.052c-.051 0-.153.051-.204.051-.154.051-.307.051-.409.051-.255.051-.51.051-.714.103v.359c0 .051-.051.102-.102.154-.051.051-.102.051-.153.051-.051 0-.153.051-.255.051-.153.052-.357.052-.459.052-.816.051-1.888.102-2.602.102h-.612c-.612 0-1.123 0-1.582-.051-.306 0-.561-.051-.816-.051-.102 0-.204 0-.255-.052h-.102l-51.833 4.565c-.204 0-.459.052-.663.052-.153 0-.357 0-.51.051v.41c0 .051 0 .103-.051.154 0 .051-.051.051-.051.051-.051.052-.102.052-.153.052-.102.051-.205.051-.307.051-.204.051-.459.051-.612.051-.765.052-1.836.103-2.908.103h-.51c-.612 0-1.224-.051-1.734-.051-.358 0-.613-.052-.868-.052-.102 0-.204 0-.306-.051-.102 0-.153-.051-.255-.051-.05 0-.102-.052-.153-.052-.051 0-.051-.051-.102-.051-.051-.051-.051-.103-.051-.103v-.41c-.357 0-.663-.051-1.02-.051l-54.69-4.309h-.051c-.102 0-.204.052-.306.052-.255.051-.46.051-.663.051h-.051c-.154 0-.307 0-.46.051h-2.601c-.562 0-1.072 0-1.531-.051-.306 0-.561-.051-.765-.051-.102 0-.204 0-.255-.052-.051 0-.153 0-.204-.051-.051 0-.102-.051-.153-.051l-.052-.052s-.05-.051-.05-.102v-.41c-.205 0-.409-.052-.613-.052-.153 0-.306-.051-.459-.051-.102 0-.153-.051-.255-.051-.051 0-.051 0-.102-.052-.051 0-.051 0-.102-.051 0 0-.051-.051-.102-.051-.051-.052-.051-.103-.051-.154l-.051-1.231h-.102c-.102 0-.204-.103-.204-.205V35.158l-1.53-.82c-.103-.052-.205-.103-.256-.206l-.153-.307c-.102-.206-.102-.41-.102-.667 0-.41.153-.872.255-1.283l1.786-6.668V22.49s.05-.051.05-.103c.103-.102.256-.153.715-.205l1.173-4.36c.102-.307.153-.615.307-.974.153-.36.306-.667.51-.872.102-.154.204-.256.357-.36.153-.102.255-.204.459-.307.306-.154.663-.205 1.02-.205l18.774-1.59h.46Zm0-.513c-.204 0-.357 0-.51.051l-18.775 1.59c-.408.052-.765.052-1.173.257a3.44 3.44 0 0 0-.561.359c-.153.154-.306.256-.408.462-.204.307-.409.615-.562 1.025-.153.36-.204.718-.306 1.026l-1.071 4.052c-.357.052-.51.154-.663.308-.102.051-.153.205-.153.205-.102.051-.153.205-.153.308v2.513l-1.786 6.617c-.102.41-.255.923-.255 1.385 0 .307 0 .615.102.872.051.154.153.307.255.461.102.154.255.257.46.36l1.224.615-.051 102.276c0 .256.153.462.357.616l.05.871v.103c0 .154.103.257.205.359.05.051.153.154.204.154.05.051.102.051.153.051.051 0 .102.052.153.052a.647.647 0 0 0 .306.051c.153.051.306.051.51.102h.153c0 .052 0 .103.051.154 0 .052.051.154.153.257.051.051.102.102.204.154.102.051.204.051.255.102.103 0 .154.052.256.052.102 0 .204.051.306.051.255 0 .51.051.816.051.46 0 .97.051 1.581.051h2.5c.153 0 .306 0 .46-.051h.102c.204 0 .408-.051.663-.051.102 0 .204-.051.306-.051l54.639 4.257c.204 0 .357.051.56.051v.051l.052.052c.05.102.102.205.153.256.05.051.153.103.204.154.102.051.204.103.255.103.102 0 .204.051.306.051.102 0 .204.051.357.051.255.051.51.051.868.051.51.052 1.122.052 1.734.052h.561a45.71 45.71 0 0 0 2.959-.103c.204 0 .408-.051.663-.051.154 0 .256-.051.358-.051a.39.39 0 0 0 .255-.103c.102-.051.153-.103.204-.154a.584.584 0 0 0 .153-.41h.051c.204 0 .459-.052.663-.052l51.782-4.565h.051c.102 0 .204 0 .306.052.255 0 .51.051.816.051.51.051 1.021.051 1.633.051h.612c.714 0 1.786 0 2.653-.102.102 0 .306-.052.51-.052.102 0 .204-.051.306-.051.051 0 .153-.051.255-.102.153-.103.306-.308.306-.513.102 0 .204 0 .306-.052.153 0 .307-.051.46-.102.102 0 .204-.051.255-.051.051 0 .102-.052.153-.052.051 0 .102-.051.153-.102.051-.052.153-.103.204-.154.051-.052.051-.103.102-.154v-.103c0-.051.051-.102.051-.205l.051-.872a.732.732 0 0 0 .306-.615l-.051-114.33c0-.103 0-.205-.051-.308a.71.71 0 0 0-.153-.205l-.051-.051c-.153-.154-.459-.308-1.225-.41-.306-.052-.612-.052-.867-.103l-58.618-5.027c-.459-.051-.918-.051-1.377-.102-.204 0-.408 0-.664-.052-.255 0-.459 0-.714-.051-.918-.051-1.785-.051-2.704-.051h-1.326c-.459 0-.918 0-1.378.051h-.714c-.204 0-.408 0-.663.051-.46 0-.918.052-1.377.103l-.97.051h-.204L56.15 18.386v-.257c0-.102 0-.205-.051-.256v-.052l-.102-.102-.102-.103c-.153-.102-.409-.205-.868-.256-.204 0-.357-.052-.612-.052-1.071-.102-2.347-.102-3.01-.102h-.357c-.612 0-1.173 0-1.684.051-.357 0-.612.051-.867.051-.102 0-.204 0-.357.052-.102 0-.204.051-.255.051-.051 0-.153.051-.255.051-.051 0-.102.052-.102.052h-.051l-.102.102-.051.052-.051.05v.052a.744.744 0 0 0-.102.36v.769c0 .102 0 .153.05.256l-7.499.564.613-2.616.05-.154c.103-.359.205-.769.205-1.18 0-.307 0-.615-.102-.82a1.344 1.344 0 0 0-.664-.82l-1.53-.872a1.249 1.249 0 0 0-.765-.257h-.153Z" fill="#545454"/><path opacity=".2" d="m13.653 32.953.765-.052 16.58-1.026 1.174-.05a.445.445 0 0 0 .408-.308l.46-1.796 3.315-12.72.408-1.436a.4.4 0 0 0-.102-.41.55.55 0 0 0-.357-.154l-.816.102-16.58 1.385-1.123.102a.445.445 0 0 0-.408.308l-.46 1.744-3.315 12.362-.357 1.384a.4.4 0 0 0 .102.41c.05.103.204.155.306.155Zm13.672-9.9c.051.052.051.103 0 .103L25.03 25.31h-.05s-.052 0-.052-.051c-.05-.051-.05-.103 0-.103l2.296-2.154s.051 0 .102.051Zm-5.714 2.411 4.745-4.719c.05-.051.102-.051.102 0 .05.052.05.103 0 .103l-4.745 4.719h-.102c-.05-.052-.05-.103 0-.103Zm45.659-3.95-.459.052v.41l.46-.052v-.41Zm-2.65 1.693h.51v-.154l-.51.052v.102Zm-16.48-4.565c.102 0 .255-.05.357-.05.255 0 .51-.052.816-.052.51-.051 1.071-.051 1.683-.051 1.225 0 2.45.05 3.368.102h.05v.41l1.02-.102v-.82l-.05-.052s-.102-.051-.51-.103c-.153 0-.357-.051-.612-.051-1.225-.103-2.704-.103-3.266-.103-.612 0-1.122 0-1.632.052-.306 0-.561.051-.816.051-.102 0-.204 0-.306.051-.102 0-.153 0-.255.052-.052 0-.102 0-.154.05h-.05l-.052.052v.564h.102c.154.052.256.052.307 0Z" fill="#D8D8D8"/><path opacity=".2" d="m49.007 19.514 5.306-.41v-.308l-5.306.41v.308Zm4.083-.821c-.664 0-1.327-.05-2.041-.05-.612 0-1.174 0-1.684.05-.306 0-.612.052-.816.052-.102 0-.255 0-.357.051-.102 0-.153 0-.255.051h-.051c.05 0 .102 0 .153.051.102 0 .204.052.306.052.153 0 .357.051.612.051l4.132-.308Zm12.446 4.463.46-.051v-.36h-.46v.41Zm-1.122-1.487v-.103h-.204c-.153 0-.306 0-.459.051v.205c.204 0 .46-.051.663-.051v-.102Zm-27.498 6.565 2.5-.154a.981.981 0 0 0 .51-.154.943.943 0 0 1-.357.103h-.204a1.36 1.36 0 0 1-.612-.154 1.557 1.557 0 0 1-.664-.513c-.306-.308-.51-.718-.663-1.18l-.51 2.052ZM14.01 22.746v.923l.255-.975c-.153 0-.204.052-.255.052Zm25.56-.052c-.103-.051-.256-.051-.358-.102h-.204l-.663.051-.051.256c.306-.205.612-.307.97-.256.101 0 .203 0 .305.051Z" fill="#D8D8D8"/><path opacity=".2" d="M37.477 25.926c.103.513.358 1.026.664 1.385.204.205.408.359.612.461.255.103.51.154.714.103.255-.052.46-.154.663-.308.204-.154.357-.359.51-.564.256-.41.358-.975.358-1.488 0-.41-.051-.82-.204-1.18a3.417 3.417 0 0 0-.613-1.025c-.204-.205-.56-.462-1.02-.513-.357-.051-.714.102-1.02.359l-.663 2.77Zm26.988-4.001h-.255c-.153 0-.306 0-.459.051v.205c.255 0 .46-.051.714-.051v-.205c0 .051 0 .051 0 0Z" fill="#D8D8D8"/><path opacity=".2" d="m38.396 22.49.612-.052h.255c.306 0 .613.154.919.359.255.154.459.41.663.718.306.513.51 1.18.561 1.795.051.667-.102 1.334-.408 1.847-.153.308-.357.564-.612.718-.256.205-.613.308-.919.359l-2.55.154-.766 2.975c-.102.308-.153.667-.306 1.026s-.306.666-.51.923c-.102.154-.255.256-.357.41l-.46.308a6.387 6.387 0 0 1-.51.154c-.204.051-.357.051-.51.051l-16.58.975v3.077l58.975-3.231V17.924l-37.038 2.77-.459 1.795Zm26.886.307v.565c-.153 0-.306 0-.46.05h-.254c-.052 0-.052-.102-.052-.102v-.256c0-.052.051-.052.051-.103h.103c.154 0 .307 0 .46-.051v-.103c-.204 0-.408.051-.613.051v-.154h.664c.05 0 .05 0 .102.052.05 0 .05.051.05.102-.05-.102-.05-.102-.05-.051Zm.918.205v.052c0 .05 0 .153-.051.205l-.051.05h-.204c-.153 0-.357 0-.51.052v-.923h.153v.154h.51c.051 0 .051.051.102.051 0 .051.051.103.051.154v.205Zm6.02-1.846.561-.36h.204v2.001h-.357v-1.693l-.459.257v-.205h.051Zm-2.5-.154.765.923c.255-.359.51-.667.715-1.026.153 0 .306 0 .459-.051l-.765 1.077c.255.308.51.616.765.975-.153 0-.306 0-.46.05-.101-.153-.254-.307-.356-.46a.9.9 0 0 0-.205-.257c-.05-.052-.05-.052-.102-.103 0-.051-.05-.051-.05-.102-.256.359-.51.666-.766 1.026-.153 0-.306 0-.459.05l.765-1.076c0-.052-.05-.052-.05-.103-.052-.051-.052-.102-.103-.102l-.204-.257c-.153-.154-.255-.308-.408-.462.153-.05.306-.05.46-.102Zm-2.142.923v-.615h.203v.615c.154 0 .307 0 .46-.051v-.616h.204v.77c-.102 0-.255 0-.408.05h-.409c-.05 0-.05-.05-.05-.102v-.051Zm-.919-.667h.153v.154h.51c.051 0 .051.051.102.051 0 .052.051.103.051.154v.308c0 .051 0 .154-.05.205l-.052.052h-.203c-.153 0-.357 0-.51.05v-.974Zm-1.02.205c.255 0 .51-.05.816-.05.051 0 .051 0 .102.05 0 .052.051.052.051.103v.615h-.204v-.564H66.2v.564h-.204v-.564h-.204v.564h-.204v-.718h.05Zm-.918.565v-.154c0-.051.05-.051.05-.103h.052s.357-.051.51-.051v-.103c-.204 0-.408.052-.612.052v-.154c.102 0 .255 0 .357-.052h.306c.05 0 .05 0 .102.052.05 0 .05.051.05.102v.616c-.152 0-.305 0-.458.051h-.255c-.051 0-.051-.102-.051-.102-.051-.052-.051-.052-.051-.154Zm-1.123-.565c.204 0 .868-.05.918-.05h.051c.052 0 .052 0 .052.05 0 .052.05.052.05.103v.205a.16.16 0 0 1 .052.103v.41c-.358.051-.715.051-1.072.103-.05-.308-.05-.616-.05-.924Zm0 1.796v-.718h.204v.768h.612v.155c-.153 0-.255 0-.408.051H63.7c-.05 0-.05-.051-.05-.051-.052-.103-.052-.154-.052-.205ZM16.765 138.05c0 .051 0 .102-.051.102l59.18 4.514v-7.489l-59.13-3.949v6.822Zm8.214-99.096c.051.05.051.102.102.154.102.256.204.564.153.872 0 .307-.102.615-.204.871-.051.103-.102.154-.153.257a.525.525 0 0 0 .255-.308c.102-.205.204-.513.204-.77 0-.307-.05-.563-.153-.769-.051-.154-.102-.205-.204-.307Z" fill="#D8D8D8"/><path opacity=".2" d="M25.131 39.98c0-.308-.051-.565-.153-.77-.051-.102-.153-.256-.255-.308a.462.462 0 0 0-.357-.154h-.051c-.204 0-.306.103-.408.206a1.12 1.12 0 0 0-.256.41v.051c-.102.308-.152.718-.05 1.078v.05c.05.155.102.309.255.462a.645.645 0 0 0 .459.206.55.55 0 0 0 .357-.154.525.525 0 0 0 .255-.308c.102-.205.153-.462.204-.77Zm-4.489-.77c.051.051.051.103.102.154.102.256.204.564.153.872 0 .308-.102.615-.204.872-.05.102-.102.154-.153.256.102-.051.153-.154.255-.307.102-.206.204-.513.204-.77 0-.308-.05-.564-.153-.77-.05-.153-.102-.256-.204-.307Zm4.132 89.658c-.05-.051-.102-.102-.204-.051-.153 0-.255.154-.306.257a1.224 1.224 0 0 0-.102.461c0 .205.051.359.102.513a.699.699 0 0 0 .153.205c.051.052.102.052.204.052.153 0 .255-.154.306-.257.051-.102.102-.308.102-.461 0-.206-.05-.36-.102-.513-.05-.103-.102-.154-.153-.206Z" fill="#D8D8D8"/><path opacity=".2" d="M20.744 40.236c0-.256-.05-.564-.153-.77-.05-.102-.153-.205-.255-.307-.102-.103-.204-.154-.306-.154h-.102c-.153 0-.306.102-.408.205a1.119 1.119 0 0 0-.255.41 1.57 1.57 0 0 0-.051 1.078v.05c.05.206.153.36.255.463a.645.645 0 0 0 .459.205c.102 0 .204-.052.357-.154.102-.051.153-.154.255-.308.153-.154.204-.462.204-.718ZM75.74 78.808s.052 0 .052.05c.204.103.356.309.459.514.204.359.357.82.357 1.333 0 .462-.102.924-.358 1.334-.153.205-.305.41-.459.513-.05 0-.05.051-.102.051.052 0 .102 0 .204-.051 0-.103.103-.205.204-.205.052 0 .103 0 .103.051h.05a1.2 1.2 0 0 0 .409-.462c.204-.359.306-.769.306-1.231 0-.461-.102-.871-.306-1.23a1.209 1.209 0 0 0-.409-.462h-.05c-.052 0-.052.051-.103.051-.101 0-.204-.051-.204-.154-.05-.102-.102-.102-.153-.102Zm-55.302 49.753c-.05-.051-.102-.051-.204-.051-.153 0-.255.153-.306.256a1.03 1.03 0 0 0-.102.462c0 .205.051.359.102.513.051.102.102.153.153.205.051.051.102.102.204.051.153 0 .255-.154.306-.256.051-.103.102-.257.102-.462 0-.205-.05-.359-.102-.513-.05-.051-.102-.154-.153-.205ZM74.057 80.91v.103h.408v-.154l-.408.05c0-.05 0-.05 0 0Zm-2.5-.307v.461h.306v-.41l-.306-.051Z" fill="#D8D8D8"/><path opacity=".2" d="M74.975 78.808h-5.97c-.203 0-.407.05-.56.205a1.209 1.209 0 0 0-.408.461c-.205.36-.306.77-.306 1.231 0 .462.102.872.306 1.231.102.206.255.359.408.462.153.103.357.205.56.205h6.073c.204 0 .408-.051.561-.205.153-.103.306-.256.408-.462.204-.359.306-.769.306-1.231 0-.461-.102-.871-.306-1.23a1.209 1.209 0 0 0-.408-.462c-.204-.103-.357-.205-.561-.205h-.102Zm-5.765 2.359h-.561v-.769l.153-.103v-.154l-.153.103v-.205l.153-.103v.205h.306c.05 0 .102 0 .102.051.102.052.153.154.153.308 0 .052 0 .154-.051.205.051.052.051.154.051.206.051.153-.051.256-.153.256Zm.46 0c-.103 0-.154-.103-.154-.205v-.051c0-.103.051-.206.153-.206h.46v-.102h-.51l-.052-.154h.561c.102 0 .153.103.153.205v.564l-.612-.051Zm1.632 0h-.153v-.564h-.204v.615h-.153v-.615h-.205v.615h-.153v-.769h.766c.102 0 .153.103.153.205v.513h-.051Zm.765-.205c0 .102-.051.205-.153.205h-.51v-.975h.153v.206h.357c.102 0 .153.102.153.205v.359Zm.765 0c0 .102-.05.205-.153.205h-.357c-.102 0-.153-.103-.153-.205v-.564h.153v.564h.357v-.564h.153v.564Zm.46.256v-.974h.152v.769h.357l.052.205h-.562Zm1.326 0h-.561c-.103 0-.154-.102-.154-.205v-.051c0-.103.051-.205.153-.205h.409v-.103h-.46l-.05-.154h.51c.102 0 .153.103.153.205v.513Zm.714-.564v.359c0 .103-.051.205-.153.205h-.459v-.974h.153v.205h.306c.102 0 .153.103.153.205Z" fill="#D8D8D8"/><path opacity=".2" d="M74.873 81.013h.306v-.41h-.306v.41Zm-5.204-.154v.154h.408v-.154h-.408Zm-.51-.256s0-.05 0 0a.11.11 0 0 0 .102-.103v-.05c0-.052 0-.104-.051-.104h-.357v.257h.306Z" fill="#D8D8D8"/><path opacity=".3" d="m75.893 35.466-59.077 3.231-.051 92.172 59.128 3.949v-.154h-.102a.11.11 0 0 1-.102-.102c0-.051.051-.051.102-.103h.051V82.654c-.051 0-.153.052-.204.052h-6.684c-.203 0-.458-.052-.662-.205a1.506 1.506 0 0 1-.46-.513 2.677 2.677 0 0 1-.357-1.283c0-.461.102-.923.357-1.282.153-.205.306-.41.46-.513.204-.154.408-.205.663-.205h6.683c.051 0 .153 0 .204.051l.05-43.29Zm-54.996 93.813c0 .154 0 .359-.102.513a.652.652 0 0 1-.46.359c-.101 0-.203-.052-.305-.103-.102-.051-.153-.154-.204-.256a1.04 1.04 0 0 1-.153-.565c0-.205.05-.359.102-.512a.647.647 0 0 1 .459-.359c.102 0 .204.051.306.102.102.051.153.154.204.257.102.153.153.359.153.564Zm.051-88.171c-.102.154-.153.256-.306.359a.811.811 0 0 1-.408.154h-.306a.817.817 0 0 1-.561-.257 1.065 1.065 0 0 1-.307-.512 2.048 2.048 0 0 1 .052-1.231.747.747 0 0 1 .306-.462c.153-.154.306-.257.51-.257h.306a.58.58 0 0 1 .408.154c.102.103.204.205.255.36.102.256.204.564.153.871.102.257 0 .565-.102.82Zm4.183 88.991a.647.647 0 0 1-.459.359c-.102 0-.204-.051-.306-.102-.102-.051-.153-.154-.204-.257-.102-.153-.153-.359-.153-.615 0-.154 0-.359.102-.513a.65.65 0 0 1 .46-.359c.101 0 .203.051.305.103.102.051.153.153.204.256.102.154.153.359.153.616 0 .102 0 .307-.102.512Zm.154-89.247c-.102.153-.205.256-.307.359a.82.82 0 0 1-.459.153h-.305a.817.817 0 0 1-.562-.256 1.224 1.224 0 0 1-.306-.564v-.052c-.102-.359-.102-.82.05-1.18a.747.747 0 0 1 .307-.46c.153-.155.357-.257.51-.257h.306a.62.62 0 0 1 .46.205c.101.102.203.205.254.359.102.256.204.564.204.872.051.308 0 .615-.152.82Z" fill="#000"/><path opacity=".2" d="M69.159 80.757h-.357v.256h.357c.05 0 .102-.051.102-.154 0-.051 0-.102-.051-.102h-.051Zm-3.775-58.832-.46.051v.154l.46-.051v-.154Zm81.167 115.868-58.618 5.078c-.816.051-1.633.103-2.704.154-.918.051-1.786.051-2.704.051h-1.326c-.459 0-.919 0-1.327-.051-.459 0-.918-.051-1.326-.051-.46 0-.918-.052-1.327-.103l-1.02-.051h-.153c0 .051-.051.051-.102.051l-59.332-4.514c-.051 0-.051-.051-.051-.051h-.051l-.868-.051c-.306 0-.612-.051-.969-.103-.153 0-.306-.051-.46-.051l.052 1.026h.05c.052 0 .154.051.205.051.153.051.306.051.46.051.305.052.611.052.917.103l61.527 4.821c.408.052.867.052 1.275.103.408 0 .867.051 1.275.051.408 0 .868 0 1.276.052h1.275c.816 0 1.684 0 2.551-.052.408 0 .867-.051 1.275-.051.204 0 .409-.051.613-.051.204 0 .459-.052.663-.052l58.618-5.18c.255 0 .561-.051.816-.103.153 0 .255-.051.408-.051.051 0 .102-.051.204-.051h.051l.051-1.026c-.102 0-.204.051-.357.051-.306-.051-.612 0-.867 0Zm-18.009-53.241h-1.02v1.385h1.02l.051-.051v-1.282c-.051 0-.051-.052-.051-.052Z" fill="#D8D8D8"/><path opacity=".2" d="M147.316 22.95c-.306-.05-.561-.05-.867-.102l-58.567-5.027c-.459-.05-.867-.05-1.326-.102-.203 0-.409 0-.612-.052-.255 0-.46 0-.715-.05-.867.05-1.784 0-2.653 0h-1.325c-.46 0-.868 0-1.327.05h-.714c-.204 0-.408 0-.612.052-.46 0-.868.051-1.327.102l-.97.052v60.883h.052c.204.103.357.308.459.513.204.36.357.821.357 1.334 0 .461-.102.974-.357 1.333-.153.205-.306.411-.46.513h-.05v60.114l.918.052c.46.051.867.051 1.326.102.46 0 .919.052 1.327.052h.765c.051-.052.102-.052.102 0h1.785c.868 0 1.786 0 2.704-.052a180.55 180.55 0 0 0 2.653-.154l58.618-5.078c.255 0 .561-.051.867-.102.154 0 .256-.051.409-.051 0-.103.102-.206.204-.206h.102l-.051-114.175c-.051.153-.255.05-.715 0Zm-28.365 39.495 4.439.103v8.566l-4.388-2.719-.051-5.95Zm-.663-.05v9.232l-4.438 2.616V62.292l4.438.102Zm0 10.411v8.566h-4.438v-5.95l4.438-2.616Zm-8.622 13.849h-1.734v-2.462l.459-.256v-.565l-.459.257v-.667l.459-.256v.666h1.02c.153 0 .255.052.357.103.255.154.408.513.408.923 0 .205-.051.411-.153.616.153.154.204.41.204.718.102.513-.204.923-.561.923Zm1.48 0c-.255 0-.46-.308-.46-.718v-.205c0-.41.205-.718.46-.718h1.377v-.308c0-.051 0-.051-.051-.051h-1.53l-.153-.564h1.683c.255 0 .459.307.459.718v1.846h-1.785Zm5.05-.051h-.459v-1.898c0-.051 0-.051-.051-.051h-.612l-.051.051v1.898h-.459v-1.898c0-.051 0-.051-.051-.051h-.612l-.051.051v1.898h-.46v-2.565h2.347c.255 0 .459.308.459.718v1.847Zm2.398-.718c0 .41-.204.718-.459.718h-1.531v-3.18h.46v.615h1.071c.255 0 .459.308.459.718v1.129Zm.357-16.362 4.388 2.718v9.13h-4.388V69.524Zm2.041 16.362c0 .359-.204.718-.459.718h-1.123c-.255 0-.459-.308-.459-.718v-1.847h.459v1.898c0 .051 0 .051.051.051h1.123l.051-.051v-1.898h.408l-.051 1.847Zm1.53.667v-3.129h.46v2.564h1.071l.153.616-1.684-.051Zm4.133 0h-1.735c-.255 0-.459-.308-.459-.667v-.205c0-.359.204-.718.459-.718h1.327v-.308c0-.052 0-.052-.051-.052h-1.48l-.153-.564h1.633c.255 0 .459.308.459.667v1.847Zm2.346-.719c0 .36-.204.667-.459.667h-1.53v-3.129h.459v.616h1.071c.255 0 .459.308.459.667v1.179Z" fill="#D8D8D8"/><path opacity=".2" d="M109.513 85.27h-1.122v.872h1.071c.153 0 .306-.205.306-.41a.742.742 0 0 0-.102-.359c0-.051-.051-.103-.153-.103Zm-26.988 59.396h-1.274c-.409 0-.868 0-1.276-.051-.408 0-.867-.051-1.275-.051h-.102v.41h.05c.052 0 .103.051.154.051.05 0 .153.052.204.052.102 0 .204.051.306.051.255.051.51.051.868.051.51.052 1.07.051 1.733.051 1.276 0 2.552.001 3.419-.102.204 0 .408-.051.613-.051.102 0 .204-.052.306-.052.05 0 .102-.051.102-.051h.05v-.41c-.407 0-.817.051-1.225.051-.918.051-1.784.051-2.653.051Zm26.937-59.96c.051 0 .051 0 .102-.051s.153-.154.153-.257v-.102c0-.154-.051-.308-.153-.36-.051 0-.051-.051-.102-.051h-1.02v.77h.51l.51.05Zm15.407.872v.36c0 .051 0 .051.051.051h1.327v-.513h-1.327c-.051.051-.051.051-.051.102Zm-6.785-.923h-1.021v1.436h1.021l.051-.051v-1.283c0-.102-.051-.102-.051-.102Zm28.161 54.677-5.816.513h.306c.459.051 1.021.051 1.582.051.459 0 2.04 0 3.163-.102.153 0 .306-.052.459-.052.102 0 .153-.051.204-.051 0 0 .051 0 .102-.051v-.308ZM35.539 29.567c.05 0 .05-.051.05-.102l.715-2.719c0-.051 0-.154-.051-.205 0-.051-.051-.051-.051-.051-.051 0-.051 0-.051.051 0 0 0 .051-.051.051l-.714 2.719c0 .051 0 .154.05.256.052 0 .103.052.103 0ZM12.173 34.03a.957.957 0 0 0 .408.102h.51l18.825-1.128h.051a2.3 2.3 0 0 0 .816-.154c.154-.051.256-.154.409-.256.102-.103.204-.206.306-.36.153-.205.306-.512.459-.82a6.26 6.26 0 0 0 .255-.923l3.775-14.413c.102-.36.204-.77.255-1.129 0-.205 0-.41-.05-.564-.052-.103-.052-.154-.103-.256a.703.703 0 0 0-.204-.154 1.014 1.014 0 0 0-.459-.103h-.51l-18.876 1.59c-.357.051-.613.051-.868.205-.153.052-.255.154-.357.257-.102.051-.204.154-.306.308-.102.102-.153.256-.255.358-.05.103-.102.257-.204.41-.102.309-.153.616-.255.924L12.02 31.927a9.01 9.01 0 0 0-.255 1.128c0 .205 0 .41.05.565.052.102.052.153.103.256.102.051.153.102.255.154Zm.867-1.693.408-1.385 3.316-12.361.46-1.744c.05-.257.305-.41.56-.462l1.123-.102 16.58-1.385.817-.051c.204 0 .408.05.51.205a.715.715 0 0 1 .102.564l-.357 1.436-3.316 12.72-.46 1.796a.598.598 0 0 1-.56.461l-1.174.052-16.58 1.025-.766.052h-.05a.645.645 0 0 1-.46-.205c-.153-.206-.204-.41-.153-.616Zm1.683 105.61c.307.052.664.052.97.103l.663.051.051-102.892-1.837.103h-.56l-.102 102.379h.102c.102 0 .204.102.204.205.153 0 .306.051.51.051Zm1.174 1.795h-.204v.359s0 .052.051.052.102.051.102.051c.051 0 .153.051.204.051.102 0 .204 0 .256.052.204 0 .459.051.765.051.459 0 .97.051 1.53.051h2.5c.204 0 .357 0 .561-.051h.255l-6.02-.616Z" fill="#D8D8D8"/><path opacity=".2" d="m14.52 35.107 1.837-.103c.05-.103.102-.154.204-.154s.153.051.204.103l16.631-.924c.153 0 .357 0 .51-.05.153-.052.306-.052.46-.155a1.11 1.11 0 0 0 .408-.256c.102-.103.255-.205.357-.36a2.36 2.36 0 0 0 .459-.871c.102-.308.204-.667.306-.975l2.806-10.668.102-.36.867-3.385c.102-.41.204-.82.255-1.23 0-.257 0-.411-.05-.616-.052-.154-.154-.308-.358-.462l-1.53-.872a1.213 1.213 0 0 0-.46-.103h-.05c.204 0 .357.052.459.103.102.051.153.103.255.205.05.103.102.206.153.308.05.154.05.36.05.616a8.98 8.98 0 0 1-.254 1.128l-3.776 14.413c-.102.308-.153.616-.255.923-.153.36-.306.616-.459.872a1.195 1.195 0 0 1-.357.36c-.153.102-.255.204-.408.256-.255.102-.51.154-.765.154h-.204L12.99 34.286h-.46c-.204 0-.357-.051-.459-.103-.05-.051-.153-.102-.204-.154.051.103.153.154.204.206l1.53.769c.052-.051.103-.051.154-.051.102 0 .204.051.204.154.204.05.408.05.561 0Zm20.764-5.848.714-2.718c0-.052.051-.103.051-.103.051-.051.102-.102.204-.102a.38.38 0 0 1 .204.102c.102.103.102.257.102.36l-.714 2.718a.708.708 0 0 1-.153.205h-.102a.386.386 0 0 1-.204-.103c-.102-.051-.153-.205-.102-.359Zm75.862 56.371c-.051 0-.051.051-.051.051v.36c0 .05 0 .05.051.05h1.326v-.513l-1.326.051Z" fill="#D8D8D8"/></svg>