<?xml version="1.0" encoding="UTF-8"?>
<svg xmlns="http://www.w3.org/2000/svg" xmlns:xlink="http://www.w3.org/1999/xlink" width="18px" height="18px" viewBox="0 0 18 18" version="1.1">
<g id="surface1">
<path style=" stroke:none;fill-rule:nonzero;fill:#F8F8F8;fill-opacity:0;" d="M 18.011719 6.417969 C 18.011719 10.285156 18.011719 14.148438 18.011719 18.011719 C 12.011719 18.011719 6.011719 18.011719 0.0117188 18.011719 C 0.0117188 12.015625 0.0117188 6.015625 0.0117188 0.015625 C 6.011719 0.015625 12.011719 0.015625 18.011719 0.015625 C 18.011719 2.144531 18.011719 4.277344 18.011719 6.417969 M 7.625 0.945312 C 9.4375 0.945312 11.25 0.941406 13.0625 0.945312 C 13.320312 0.945312 13.582031 0.972656 13.84375 0.996094 C 14.085938 1.015625 14.320312 1.085938 14.554688 1.167969 C 14.824219 1.261719 15.085938 1.386719 15.332031 1.554688 C 15.675781 1.785156 15.980469 2.066406 16.25 2.398438 C 16.503906 2.71875 16.703125 3.074219 16.851562 3.464844 C 16.976562 3.789062 17.070312 4.128906 17.132812 4.476562 C 17.175781 4.742188 17.203125 5.011719 17.207031 5.28125 C 17.210938 5.808594 17.140625 6.320312 17.019531 6.828125 C 16.910156 7.289062 16.757812 7.734375 16.570312 8.164062 C 16.335938 8.699219 16.042969 9.191406 15.71875 9.664062 C 15.277344 10.304688 14.746094 10.835938 14.160156 11.296875 C 13.679688 11.675781 13.15625 11.96875 12.605469 12.207031 C 12.230469 12.367188 11.847656 12.488281 11.453125 12.550781 C 11.164062 12.597656 10.871094 12.621094 10.578125 12.625 C 9.292969 12.632812 8.007812 12.628906 6.722656 12.625 C 6.671875 12.625 6.652344 12.640625 6.640625 12.695312 C 6.609375 12.855469 6.574219 13.015625 6.539062 13.175781 C 6.523438 13.242188 6.511719 13.3125 6.492188 13.394531 C 6.53125 13.394531 6.558594 13.394531 6.582031 13.394531 C 7.660156 13.394531 8.738281 13.394531 9.8125 13.394531 C 10.292969 13.394531 10.773438 13.410156 11.25 13.339844 C 11.453125 13.308594 11.65625 13.277344 11.855469 13.230469 C 12.066406 13.179688 12.269531 13.109375 12.476562 13.042969 C 12.894531 12.90625 13.300781 12.71875 13.6875 12.492188 C 14.222656 12.179688 14.726562 11.8125 15.1875 11.371094 C 15.65625 10.921875 16.066406 10.421875 16.417969 9.855469 C 16.605469 9.550781 16.785156 9.246094 16.949219 8.925781 C 17.164062 8.511719 17.339844 8.078125 17.480469 7.625 C 17.574219 7.308594 17.671875 6.992188 17.746094 6.667969 C 17.808594 6.375 17.847656 6.074219 17.882812 5.773438 C 17.929688 5.339844 17.921875 4.902344 17.871094 4.46875 C 17.824219 4.0625 17.730469 3.671875 17.601562 3.285156 C 17.394531 2.660156 17.082031 2.105469 16.664062 1.628906 C 16.390625 1.316406 16.082031 1.050781 15.742188 0.832031 C 15.25 0.523438 14.726562 0.324219 14.167969 0.234375 C 13.878906 0.191406 13.589844 0.171875 13.300781 0.171875 C 10.257812 0.167969 7.21875 0.171875 4.179688 0.171875 C 4.164062 0.171875 4.144531 0.171875 4.132812 0.171875 C 4.097656 0.164062 4.085938 0.183594 4.078125 0.21875 C 4.042969 0.375 4.007812 0.53125 3.972656 0.683594 C 3.839844 1.28125 3.710938 1.878906 3.578125 2.472656 C 3.464844 2.984375 3.347656 3.492188 3.234375 4.003906 C 3.097656 4.632812 2.957031 5.261719 2.820312 5.886719 C 2.667969 6.558594 2.519531 7.230469 2.371094 7.898438 C 2.222656 8.566406 2.074219 9.230469 1.925781 9.898438 C 1.785156 10.527344 1.648438 11.160156 1.507812 11.792969 C 1.359375 12.460938 1.210938 13.128906 1.0625 13.796875 C 0.921875 14.429688 0.78125 15.0625 0.640625 15.695312 C 0.496094 16.335938 0.355469 16.976562 0.214844 17.617188 C 0.1875 17.722656 0.164062 17.832031 0.140625 17.945312 C 0.167969 17.949219 0.191406 17.949219 0.210938 17.949219 C 0.394531 17.949219 0.574219 17.945312 0.757812 17.953125 C 0.816406 17.953125 0.835938 17.929688 0.847656 17.867188 C 1.015625 17.097656 1.1875 16.332031 1.355469 15.5625 C 1.550781 14.683594 1.746094 13.808594 1.941406 12.929688 C 2.132812 12.066406 2.324219 11.203125 2.519531 10.339844 C 2.714844 9.460938 2.910156 8.582031 3.101562 7.703125 C 3.285156 6.875 3.46875 6.046875 3.652344 5.21875 C 3.800781 4.550781 3.949219 3.882812 4.097656 3.214844 C 4.261719 2.484375 4.421875 1.75 4.585938 1.019531 C 4.597656 0.964844 4.617188 0.941406 4.667969 0.941406 C 5.652344 0.945312 6.632812 0.945312 7.625 0.945312 M 15.546875 4.390625 C 15.644531 4.664062 15.730469 4.941406 15.761719 5.234375 C 15.808594 5.617188 15.804688 5.996094 15.734375 6.371094 C 15.675781 6.675781 15.605469 6.972656 15.519531 7.265625 C 15.378906 7.726562 15.179688 8.160156 14.929688 8.558594 C 14.648438 9.007812 14.328125 9.417969 13.957031 9.777344 C 13.75 9.972656 13.535156 10.15625 13.300781 10.3125 C 12.910156 10.574219 12.496094 10.785156 12.054688 10.910156 C 11.859375 10.96875 11.660156 11.015625 11.457031 11.042969 C 11.25 11.070312 11.042969 11.074219 10.832031 11.074219 C 9.578125 11.074219 8.324219 11.074219 7.070312 11.074219 C 7.019531 11.074219 7 11.089844 6.988281 11.144531 C 6.964844 11.273438 6.933594 11.398438 6.90625 11.523438 C 6.882812 11.628906 6.859375 11.734375 6.835938 11.847656 C 6.867188 11.847656 6.894531 11.851562 6.921875 11.851562 C 8.171875 11.851562 9.421875 11.851562 10.671875 11.851562 C 11.015625 11.851562 11.363281 11.835938 11.699219 11.75 C 11.945312 11.6875 12.195312 11.621094 12.433594 11.53125 C 12.976562 11.324219 13.480469 11.015625 13.945312 10.636719 C 14.457031 10.214844 14.90625 9.71875 15.296875 9.152344 C 15.546875 8.789062 15.765625 8.398438 15.945312 7.984375 C 16.105469 7.617188 16.226562 7.238281 16.328125 6.84375 C 16.410156 6.511719 16.46875 6.175781 16.488281 5.828125 C 16.515625 5.363281 16.480469 4.902344 16.363281 4.449219 C 16.277344 4.121094 16.164062 3.804688 16.007812 3.507812 C 15.808594 3.132812 15.554688 2.808594 15.246094 2.539062 C 14.894531 2.230469 14.507812 1.996094 14.074219 1.867188 C 13.730469 1.761719 13.382812 1.714844 13.027344 1.714844 C 10.414062 1.714844 7.796875 1.714844 5.179688 1.714844 C 5.128906 1.714844 5.113281 1.730469 5.097656 1.785156 C 4.96875 2.382812 4.835938 2.976562 4.703125 3.574219 C 4.5625 4.210938 4.421875 4.847656 4.28125 5.484375 C 4.140625 6.113281 4 6.746094 3.859375 7.378906 C 3.753906 7.855469 3.648438 8.332031 3.542969 8.808594 C 3.402344 9.441406 3.261719 10.074219 3.121094 10.703125 C 3.023438 11.144531 2.925781 11.585938 2.828125 12.027344 C 2.695312 12.625 2.5625 13.226562 2.429688 13.828125 C 2.316406 14.332031 2.203125 14.839844 2.09375 15.34375 C 1.921875 16.113281 1.75 16.882812 1.582031 17.652344 C 1.558594 17.746094 1.539062 17.84375 1.515625 17.949219 C 1.550781 17.949219 1.570312 17.949219 1.59375 17.949219 C 1.769531 17.949219 1.949219 17.949219 2.128906 17.953125 C 2.183594 17.953125 2.203125 17.933594 2.21875 17.875 C 2.363281 17.210938 2.511719 16.542969 2.65625 15.878906 C 2.804688 15.210938 2.953125 14.546875 3.101562 13.878906 C 3.292969 13.019531 3.484375 12.15625 3.675781 11.292969 C 3.824219 10.625 3.972656 9.957031 4.121094 9.289062 C 4.3125 8.429688 4.503906 7.570312 4.695312 6.710938 C 4.84375 6.042969 4.992188 5.375 5.140625 4.707031 C 5.296875 4 5.457031 3.289062 5.609375 2.582031 C 5.625 2.503906 5.652344 2.484375 5.71875 2.484375 C 8.066406 2.488281 10.414062 2.488281 12.765625 2.488281 C 12.96875 2.488281 13.175781 2.511719 13.382812 2.535156 C 13.609375 2.558594 13.828125 2.628906 14.039062 2.722656 C 14.453125 2.90625 14.792969 3.199219 15.078125 3.574219 C 15.265625 3.820312 15.425781 4.085938 15.546875 4.390625 M 4.019531 15.933594 C 4.15625 15.324219 4.292969 14.71875 4.425781 14.109375 C 4.566406 13.476562 4.707031 12.84375 4.847656 12.210938 C 4.992188 11.542969 5.144531 10.875 5.292969 10.207031 C 5.433594 9.574219 5.570312 8.9375 5.710938 8.304688 C 5.859375 7.636719 6.011719 6.96875 6.160156 6.300781 C 6.320312 5.570312 6.480469 4.839844 6.640625 4.109375 C 6.65625 4.054688 6.675781 4.03125 6.726562 4.03125 C 8.652344 4.035156 10.578125 4.035156 12.503906 4.035156 C 12.726562 4.035156 12.945312 4.058594 13.160156 4.144531 C 13.347656 4.21875 13.523438 4.320312 13.675781 4.457031 C 13.921875 4.683594 14.105469 4.96875 14.234375 5.296875 C 14.308594 5.492188 14.355469 5.695312 14.371094 5.90625 C 14.390625 6.234375 14.34375 6.546875 14.265625 6.859375 C 14.171875 7.226562 14.042969 7.570312 13.867188 7.894531 C 13.652344 8.292969 13.367188 8.621094 13.03125 8.890625 C 12.722656 9.144531 12.382812 9.328125 12.015625 9.433594 C 11.773438 9.503906 11.527344 9.53125 11.277344 9.53125 C 10.039062 9.535156 8.800781 9.53125 7.5625 9.53125 C 7.507812 9.53125 7.449219 9.535156 7.394531 9.53125 C 7.355469 9.53125 7.34375 9.546875 7.335938 9.585938 C 7.300781 9.742188 7.265625 9.898438 7.230469 10.050781 C 7.210938 10.132812 7.195312 10.214844 7.175781 10.304688 C 7.207031 10.304688 7.234375 10.304688 7.257812 10.304688 C 8.539062 10.304688 9.816406 10.304688 11.097656 10.300781 C 11.273438 10.300781 11.449219 10.285156 11.628906 10.261719 C 11.878906 10.234375 12.121094 10.164062 12.355469 10.066406 C 12.660156 9.9375 12.945312 9.769531 13.210938 9.570312 C 13.507812 9.351562 13.773438 9.09375 14.011719 8.796875 C 14.230469 8.523438 14.421875 8.230469 14.574219 7.90625 C 14.839844 7.347656 15.027344 6.757812 15.078125 6.121094 C 15.101562 5.804688 15.078125 5.492188 15 5.1875 C 14.867188 4.695312 14.636719 4.269531 14.300781 3.917969 C 14.027344 3.632812 13.707031 3.445312 13.347656 3.34375 C 13.125 3.28125 12.890625 3.265625 12.660156 3.265625 C 10.515625 3.265625 8.371094 3.265625 6.226562 3.265625 C 6.214844 3.265625 6.203125 3.265625 6.191406 3.265625 C 6.160156 3.261719 6.140625 3.273438 6.132812 3.316406 C 6.09375 3.5 6.050781 3.683594 6.011719 3.863281 C 5.863281 4.53125 5.714844 5.195312 5.566406 5.863281 C 5.425781 6.496094 5.285156 7.132812 5.144531 7.765625 C 5.003906 8.398438 4.867188 9.03125 4.726562 9.660156 C 4.585938 10.292969 4.445312 10.925781 4.304688 11.558594 C 4.15625 12.226562 4.007812 12.894531 3.859375 13.5625 C 3.71875 14.195312 3.578125 14.828125 3.4375 15.457031 C 3.277344 16.171875 3.121094 16.882812 2.964844 17.597656 C 2.9375 17.710938 2.914062 17.824219 2.886719 17.945312 C 2.910156 17.949219 2.929688 17.949219 2.945312 17.949219 C 3.136719 17.949219 3.324219 17.949219 3.515625 17.953125 C 3.558594 17.953125 3.578125 17.9375 3.589844 17.886719 C 3.730469 17.238281 3.875 16.589844 4.019531 15.933594 M 13.371094 7.472656 C 13.433594 7.289062 13.507812 7.113281 13.558594 6.925781 C 13.609375 6.753906 13.648438 6.574219 13.667969 6.398438 C 13.710938 5.96875 13.601562 5.585938 13.34375 5.261719 C 13.222656 5.109375 13.078125 4.996094 12.910156 4.917969 C 12.71875 4.828125 12.519531 4.804688 12.320312 4.804688 C 10.628906 4.804688 8.933594 4.804688 7.242188 4.804688 C 7.1875 4.804688 7.167969 4.824219 7.15625 4.878906 C 7.066406 5.289062 6.976562 5.699219 6.886719 6.105469 C 6.789062 6.546875 6.691406 6.984375 6.59375 7.421875 C 6.503906 7.824219 6.417969 8.226562 6.328125 8.628906 C 6.238281 9.035156 6.148438 9.4375 6.058594 9.839844 C 5.960938 10.28125 5.863281 10.722656 5.765625 11.164062 C 5.675781 11.566406 5.585938 11.972656 5.496094 12.375 C 5.375 12.917969 5.257812 13.457031 5.136719 13.996094 C 4.996094 14.632812 4.855469 15.269531 4.714844 15.90625 C 4.585938 16.484375 4.457031 17.058594 4.328125 17.636719 C 4.308594 17.738281 4.285156 17.839844 4.265625 17.941406 C 4.277344 17.945312 4.285156 17.949219 4.292969 17.949219 C 4.5 17.949219 4.703125 17.949219 4.90625 17.949219 C 4.945312 17.949219 4.949219 17.921875 4.957031 17.890625 C 5.027344 17.578125 5.097656 17.265625 5.164062 16.953125 C 5.304688 16.324219 5.441406 15.699219 5.582031 15.070312 C 5.722656 14.433594 5.867188 13.796875 6.007812 13.160156 C 6.15625 12.496094 6.300781 11.828125 6.449219 11.164062 C 6.597656 10.492188 6.75 9.820312 6.898438 9.144531 C 7.039062 8.515625 7.175781 7.886719 7.316406 7.257812 C 7.4375 6.722656 7.554688 6.1875 7.671875 5.652344 C 7.683594 5.597656 7.703125 5.582031 7.753906 5.582031 C 9.230469 5.582031 10.707031 5.582031 12.183594 5.585938 C 12.289062 5.585938 12.398438 5.601562 12.5 5.640625 C 12.761719 5.738281 12.921875 5.945312 12.964844 6.261719 C 12.984375 6.421875 12.960938 6.574219 12.921875 6.726562 C 12.855469 7 12.777344 7.265625 12.625 7.492188 C 12.476562 7.714844 12.277344 7.84375 12.046875 7.925781 C 11.875 7.984375 11.695312 7.984375 11.519531 7.984375 C 10.613281 7.984375 9.710938 7.984375 8.804688 7.984375 C 8.453125 7.984375 8.097656 7.984375 7.746094 7.984375 C 7.703125 7.984375 7.683594 7.992188 7.675781 8.042969 C 7.636719 8.230469 7.59375 8.414062 7.554688 8.601562 C 7.542969 8.648438 7.535156 8.699219 7.523438 8.757812 C 7.550781 8.757812 7.570312 8.757812 7.589844 8.757812 C 8.882812 8.757812 10.175781 8.761719 11.46875 8.753906 C 11.664062 8.753906 11.855469 8.734375 12.046875 8.695312 C 12.320312 8.636719 12.566406 8.5 12.789062 8.304688 C 13.039062 8.082031 13.226562 7.800781 13.371094 7.472656 Z M 13.371094 7.472656 "/>
<path style=" stroke:none;fill-rule:nonzero;fill:#F8F8F8;fill-opacity:1;" d="M 7.617188 0.945312 C 6.632812 0.945312 5.652344 0.945312 4.667969 0.941406 C 4.617188 0.941406 4.597656 0.964844 4.585938 1.019531 C 4.421875 1.75 4.261719 2.484375 4.097656 3.214844 C 3.949219 3.882812 3.800781 4.550781 3.652344 5.21875 C 3.46875 6.046875 3.285156 6.875 3.101562 7.703125 C 2.910156 8.582031 2.714844 9.460938 2.519531 10.339844 C 2.324219 11.203125 2.132812 12.066406 1.941406 12.929688 C 1.746094 13.808594 1.550781 14.683594 1.355469 15.5625 C 1.1875 16.332031 1.015625 17.097656 0.847656 17.867188 C 0.835938 17.929688 0.816406 17.953125 0.757812 17.953125 C 0.574219 17.945312 0.394531 17.949219 0.210938 17.949219 C 0.191406 17.949219 0.167969 17.949219 0.140625 17.945312 C 0.164062 17.832031 0.1875 17.722656 0.214844 17.617188 C 0.355469 16.976562 0.496094 16.335938 0.640625 15.695312 C 0.78125 15.0625 0.921875 14.429688 1.0625 13.796875 C 1.210938 13.128906 1.359375 12.460938 1.507812 11.792969 C 1.648438 11.160156 1.785156 10.527344 1.925781 9.898438 C 2.074219 9.230469 2.222656 8.566406 2.371094 7.898438 C 2.519531 7.230469 2.667969 6.558594 2.820312 5.886719 C 2.957031 5.261719 3.097656 4.632812 3.234375 4.003906 C 3.347656 3.492188 3.464844 2.984375 3.578125 2.472656 C 3.710938 1.878906 3.839844 1.28125 3.972656 0.683594 C 4.007812 0.53125 4.042969 0.375 4.078125 0.21875 C 4.085938 0.183594 4.097656 0.164062 4.132812 0.171875 C 4.144531 0.171875 4.164062 0.171875 4.179688 0.171875 C 7.21875 0.171875 10.257812 0.167969 13.300781 0.171875 C 13.589844 0.171875 13.878906 0.191406 14.167969 0.234375 C 14.726562 0.324219 15.25 0.523438 15.742188 0.832031 C 16.082031 1.050781 16.390625 1.316406 16.664062 1.628906 C 17.082031 2.105469 17.394531 2.660156 17.601562 3.285156 C 17.730469 3.671875 17.824219 4.0625 17.871094 4.46875 C 17.921875 4.902344 17.929688 5.339844 17.882812 5.773438 C 17.847656 6.074219 17.808594 6.375 17.746094 6.667969 C 17.671875 6.992188 17.574219 7.308594 17.480469 7.625 C 17.339844 8.078125 17.164062 8.511719 16.949219 8.925781 C 16.785156 9.246094 16.605469 9.550781 16.417969 9.855469 C 16.066406 10.421875 15.65625 10.921875 15.1875 11.371094 C 14.726562 11.8125 14.222656 12.179688 13.6875 12.492188 C 13.300781 12.71875 12.894531 12.90625 12.476562 13.042969 C 12.269531 13.109375 12.066406 13.179688 11.855469 13.230469 C 11.65625 13.277344 11.453125 13.308594 11.25 13.339844 C 10.773438 13.410156 10.292969 13.394531 9.8125 13.394531 C 8.738281 13.394531 7.660156 13.394531 6.582031 13.394531 C 6.558594 13.394531 6.53125 13.394531 6.492188 13.394531 C 6.511719 13.3125 6.523438 13.242188 6.539062 13.175781 C 6.574219 13.015625 6.609375 12.855469 6.640625 12.695312 C 6.652344 12.640625 6.671875 12.625 6.722656 12.625 C 8.007812 12.628906 9.292969 12.632812 10.578125 12.625 C 10.871094 12.621094 11.164062 12.597656 11.453125 12.550781 C 11.847656 12.488281 12.230469 12.367188 12.605469 12.207031 C 13.15625 11.96875 13.679688 11.675781 14.160156 11.296875 C 14.746094 10.835938 15.277344 10.304688 15.71875 9.664062 C 16.042969 9.191406 16.335938 8.699219 16.570312 8.164062 C 16.757812 7.734375 16.910156 7.289062 17.019531 6.828125 C 17.140625 6.320312 17.210938 5.808594 17.207031 5.28125 C 17.203125 5.011719 17.175781 4.742188 17.132812 4.476562 C 17.070312 4.128906 16.976562 3.789062 16.851562 3.464844 C 16.703125 3.074219 16.503906 2.71875 16.25 2.398438 C 15.980469 2.066406 15.675781 1.785156 15.332031 1.554688 C 15.085938 1.386719 14.824219 1.261719 14.554688 1.167969 C 14.320312 1.085938 14.085938 1.015625 13.84375 0.996094 C 13.582031 0.972656 13.320312 0.945312 13.0625 0.945312 C 11.25 0.941406 9.4375 0.945312 7.617188 0.945312 Z M 7.617188 0.945312 "/>
<path style=" stroke:none;fill-rule:nonzero;fill:#F8F8F8;fill-opacity:1;" d="M 15.546875 4.386719 C 15.425781 4.085938 15.265625 3.820312 15.078125 3.574219 C 14.792969 3.199219 14.453125 2.90625 14.039062 2.722656 C 13.828125 2.628906 13.609375 2.558594 13.382812 2.535156 C 13.175781 2.511719 12.96875 2.488281 12.765625 2.488281 C 10.414062 2.488281 8.066406 2.488281 5.71875 2.484375 C 5.652344 2.484375 5.625 2.503906 5.609375 2.582031 C 5.457031 3.289062 5.296875 4 5.140625 4.707031 C 4.992188 5.375 4.84375 6.042969 4.695312 6.710938 C 4.503906 7.570312 4.3125 8.429688 4.121094 9.289062 C 3.972656 9.957031 3.824219 10.625 3.675781 11.292969 C 3.484375 12.15625 3.292969 13.019531 3.101562 13.878906 C 2.953125 14.546875 2.804688 15.210938 2.65625 15.878906 C 2.511719 16.542969 2.363281 17.210938 2.21875 17.875 C 2.203125 17.933594 2.183594 17.953125 2.128906 17.953125 C 1.949219 17.949219 1.769531 17.949219 1.59375 17.949219 C 1.570312 17.949219 1.550781 17.949219 1.515625 17.949219 C 1.539062 17.84375 1.558594 17.746094 1.582031 17.652344 C 1.75 16.882812 1.921875 16.113281 2.09375 15.34375 C 2.203125 14.839844 2.316406 14.332031 2.429688 13.828125 C 2.5625 13.226562 2.695312 12.625 2.828125 12.027344 C 2.925781 11.585938 3.023438 11.144531 3.121094 10.703125 C 3.261719 10.074219 3.402344 9.441406 3.542969 8.808594 C 3.648438 8.332031 3.753906 7.855469 3.859375 7.378906 C 4 6.746094 4.140625 6.113281 4.28125 5.484375 C 4.421875 4.847656 4.5625 4.210938 4.703125 3.574219 C 4.835938 2.976562 4.96875 2.382812 5.097656 1.785156 C 5.113281 1.730469 5.128906 1.714844 5.179688 1.714844 C 7.796875 1.714844 10.414062 1.714844 13.027344 1.714844 C 13.382812 1.714844 13.730469 1.761719 14.074219 1.867188 C 14.507812 1.996094 14.894531 2.230469 15.246094 2.539062 C 15.554688 2.808594 15.808594 3.132812 16.007812 3.507812 C 16.164062 3.804688 16.277344 4.121094 16.363281 4.449219 C 16.480469 4.902344 16.515625 5.363281 16.488281 5.828125 C 16.46875 6.175781 16.410156 6.511719 16.328125 6.84375 C 16.226562 7.238281 16.105469 7.617188 15.945312 7.984375 C 15.765625 8.398438 15.546875 8.789062 15.296875 9.152344 C 14.90625 9.71875 14.457031 10.214844 13.945312 10.636719 C 13.480469 11.015625 12.976562 11.324219 12.433594 11.53125 C 12.195312 11.621094 11.945312 11.6875 11.699219 11.75 C 11.363281 11.835938 11.015625 11.851562 10.671875 11.851562 C 9.421875 11.851562 8.171875 11.851562 6.921875 11.851562 C 6.894531 11.851562 6.867188 11.847656 6.835938 11.847656 C 6.859375 11.734375 6.882812 11.628906 6.90625 11.523438 C 6.933594 11.398438 6.964844 11.273438 6.988281 11.144531 C 7 11.089844 7.019531 11.074219 7.070312 11.074219 C 8.324219 11.074219 9.578125 11.074219 10.832031 11.074219 C 11.042969 11.074219 11.25 11.070312 11.457031 11.042969 C 11.660156 11.015625 11.859375 10.96875 12.054688 10.910156 C 12.496094 10.785156 12.910156 10.574219 13.300781 10.3125 C 13.535156 10.15625 13.75 9.972656 13.957031 9.777344 C 14.328125 9.417969 14.648438 9.007812 14.929688 8.558594 C 15.179688 8.160156 15.378906 7.726562 15.519531 7.265625 C 15.605469 6.972656 15.675781 6.675781 15.734375 6.371094 C 15.804688 5.996094 15.808594 5.617188 15.761719 5.234375 C 15.730469 4.941406 15.644531 4.664062 15.546875 4.386719 Z M 15.546875 4.386719 "/>
<path style=" stroke:none;fill-rule:nonzero;fill:#F8F8F8;fill-opacity:1;" d="M 4.019531 15.9375 C 3.875 16.589844 3.730469 17.238281 3.589844 17.886719 C 3.578125 17.9375 3.558594 17.953125 3.515625 17.953125 C 3.324219 17.949219 3.136719 17.949219 2.945312 17.949219 C 2.929688 17.949219 2.910156 17.949219 2.886719 17.945312 C 2.914062 17.824219 2.9375 17.710938 2.964844 17.597656 C 3.121094 16.882812 3.277344 16.171875 3.4375 15.457031 C 3.578125 14.828125 3.71875 14.195312 3.859375 13.5625 C 4.007812 12.894531 4.15625 12.226562 4.304688 11.558594 C 4.445312 10.925781 4.585938 10.292969 4.726562 9.660156 C 4.867188 9.03125 5.003906 8.398438 5.144531 7.765625 C 5.285156 7.132812 5.425781 6.496094 5.566406 5.863281 C 5.714844 5.195312 5.863281 4.53125 6.011719 3.863281 C 6.050781 3.683594 6.09375 3.5 6.132812 3.316406 C 6.140625 3.273438 6.160156 3.261719 6.191406 3.265625 C 6.203125 3.265625 6.214844 3.265625 6.226562 3.265625 C 8.371094 3.265625 10.515625 3.265625 12.660156 3.265625 C 12.890625 3.265625 13.125 3.28125 13.347656 3.34375 C 13.707031 3.445312 14.027344 3.632812 14.300781 3.917969 C 14.636719 4.269531 14.867188 4.695312 15 5.1875 C 15.078125 5.492188 15.101562 5.804688 15.078125 6.121094 C 15.027344 6.757812 14.839844 7.347656 14.574219 7.90625 C 14.421875 8.230469 14.230469 8.523438 14.011719 8.796875 C 13.773438 9.09375 13.507812 9.351562 13.210938 9.570312 C 12.945312 9.769531 12.660156 9.9375 12.355469 10.066406 C 12.121094 10.164062 11.878906 10.234375 11.628906 10.261719 C 11.449219 10.285156 11.273438 10.300781 11.097656 10.300781 C 9.816406 10.304688 8.539062 10.304688 7.257812 10.304688 C 7.234375 10.304688 7.207031 10.304688 7.175781 10.304688 C 7.195312 10.214844 7.210938 10.132812 7.230469 10.050781 C 7.265625 9.898438 7.300781 9.742188 7.335938 9.585938 C 7.34375 9.546875 7.355469 9.53125 7.394531 9.53125 C 7.449219 9.535156 7.507812 9.53125 7.5625 9.53125 C 8.800781 9.53125 10.039062 9.535156 11.277344 9.53125 C 11.527344 9.53125 11.773438 9.503906 12.015625 9.433594 C 12.382812 9.328125 12.722656 9.144531 13.03125 8.890625 C 13.367188 8.621094 13.652344 8.292969 13.867188 7.894531 C 14.042969 7.570312 14.171875 7.226562 14.265625 6.859375 C 14.34375 6.546875 14.390625 6.234375 14.371094 5.90625 C 14.355469 5.695312 14.308594 5.492188 14.234375 5.296875 C 14.105469 4.96875 13.921875 4.683594 13.675781 4.457031 C 13.523438 4.320312 13.347656 4.21875 13.160156 4.144531 C 12.945312 4.058594 12.726562 4.035156 12.503906 4.035156 C 10.578125 4.035156 8.652344 4.035156 6.726562 4.03125 C 6.675781 4.03125 6.65625 4.054688 6.640625 4.109375 C 6.480469 4.839844 6.320312 5.570312 6.160156 6.300781 C 6.011719 6.96875 5.859375 7.636719 5.710938 8.304688 C 5.570312 8.9375 5.433594 9.574219 5.292969 10.207031 C 5.144531 10.875 4.992188 11.542969 4.847656 12.210938 C 4.707031 12.84375 4.566406 13.476562 4.425781 14.109375 C 4.292969 14.71875 4.15625 15.324219 4.019531 15.9375 Z M 4.019531 15.9375 "/>
<path style=" stroke:none;fill-rule:nonzero;fill:#F8F8F8;fill-opacity:1;" d="M 13.367188 7.476562 C 13.226562 7.800781 13.039062 8.082031 12.789062 8.304688 C 12.566406 8.5 12.320312 8.636719 12.046875 8.695312 C 11.855469 8.734375 11.664062 8.753906 11.46875 8.753906 C 10.175781 8.761719 8.882812 8.757812 7.589844 8.757812 C 7.570312 8.757812 7.550781 8.757812 7.523438 8.757812 C 7.535156 8.699219 7.542969 8.648438 7.554688 8.601562 C 7.59375 8.414062 7.636719 8.230469 7.675781 8.042969 C 7.683594 7.992188 7.703125 7.984375 7.746094 7.984375 C 8.097656 7.984375 8.453125 7.984375 8.804688 7.984375 C 9.710938 7.984375 10.613281 7.984375 11.519531 7.984375 C 11.695312 7.984375 11.875 7.984375 12.046875 7.925781 C 12.277344 7.84375 12.476562 7.714844 12.625 7.492188 C 12.777344 7.265625 12.855469 7 12.921875 6.726562 C 12.960938 6.574219 12.984375 6.421875 12.964844 6.261719 C 12.921875 5.945312 12.761719 5.738281 12.5 5.640625 C 12.398438 5.601562 12.289062 5.585938 12.183594 5.585938 C 10.707031 5.582031 9.230469 5.582031 7.753906 5.582031 C 7.703125 5.582031 7.683594 5.597656 7.671875 5.652344 C 7.554688 6.1875 7.4375 6.722656 7.316406 7.257812 C 7.175781 7.886719 7.039062 8.515625 6.898438 9.144531 C 6.75 9.820312 6.597656 10.492188 6.449219 11.164062 C 6.300781 11.828125 6.15625 12.496094 6.007812 13.160156 C 5.867188 13.796875 5.722656 14.433594 5.582031 15.070312 C 5.441406 15.699219 5.304688 16.324219 5.164062 16.953125 C 5.097656 17.265625 5.027344 17.578125 4.957031 17.890625 C 4.949219 17.921875 4.945312 17.949219 4.90625 17.949219 C 4.703125 17.949219 4.5 17.949219 4.292969 17.949219 C 4.285156 17.949219 4.277344 17.945312 4.265625 17.941406 C 4.285156 17.839844 4.308594 17.738281 4.328125 17.636719 C 4.457031 17.058594 4.585938 16.484375 4.714844 15.90625 C 4.855469 15.269531 4.996094 14.632812 5.136719 13.996094 C 5.257812 13.457031 5.375 12.917969 5.496094 12.375 C 5.585938 11.972656 5.675781 11.566406 5.765625 11.164062 C 5.863281 10.722656 5.960938 10.28125 6.058594 9.839844 C 6.148438 9.4375 6.238281 9.035156 6.328125 8.628906 C 6.417969 8.226562 6.503906 7.824219 6.59375 7.421875 C 6.691406 6.984375 6.789062 6.546875 6.886719 6.105469 C 6.976562 5.699219 7.066406 5.289062 7.15625 4.878906 C 7.167969 4.824219 7.1875 4.804688 7.242188 4.804688 C 8.933594 4.804688 10.628906 4.804688 12.320312 4.804688 C 12.519531 4.804688 12.71875 4.828125 12.910156 4.917969 C 13.078125 4.996094 13.222656 5.109375 13.34375 5.261719 C 13.601562 5.585938 13.710938 5.96875 13.667969 6.398438 C 13.648438 6.574219 13.609375 6.753906 13.558594 6.925781 C 13.507812 7.113281 13.433594 7.289062 13.367188 7.476562 Z M 13.367188 7.476562 "/>
</g>
</svg>
