<svg width="696" height="449" viewBox="0 0 696 449" fill="none" xmlns="http://www.w3.org/2000/svg">
<rect width="696" height="449" fill="#2C2C2C"/>
<path d="M305.928 253.273V231.84H299.913V258.277H321.981L320.084 253.273H305.928Z" fill="white"/>
<path d="M347.497 237.093H326.31L328.034 241.658H347.286C347.612 241.658 347.88 241.926 347.88 242.251V244.944H330.697C327.46 244.944 324.835 247.561 324.835 250.789V252.432C324.835 255.66 327.46 258.277 330.697 258.277H353.378V242.919C353.378 239.71 350.753 237.093 347.497 237.093ZM347.861 253.674H330.908C330.582 253.674 330.314 253.406 330.314 253.081V250.082C330.314 249.758 330.582 249.49 330.908 249.49H347.861V253.674Z" fill="white"/>
<path d="M378.53 237.093H364.699V231.802H364.584H358.665V258.277H364.699H378.53C381.767 258.277 384.392 255.66 384.392 252.432V242.957C384.411 239.729 381.786 237.093 378.53 237.093ZM378.491 253.1C378.491 253.425 378.223 253.692 377.898 253.692H364.699V241.754H377.898C378.223 241.754 378.491 242.021 378.491 242.346V253.1Z" fill="white"/>
<path d="M397.418 203.149H367.573V224.333H373.434V208.383C373.434 208.058 373.703 207.79 374.028 207.79H381.959C382.285 207.79 382.553 208.058 382.553 208.383V224.333H388.434V208.383C388.434 208.058 388.702 207.79 389.027 207.79H396.843C397.169 207.79 397.437 208.058 397.437 208.383V224.333H403.337V208.994C403.28 205.766 400.655 203.149 397.418 203.149Z" fill="white"/>
<path d="M459.521 219.137C459.521 219.462 459.253 219.729 458.928 219.729H444.829C444.503 219.729 444.235 219.462 444.235 219.137V203.149H438.699V218.488C438.699 221.716 441.323 224.333 444.56 224.333H459.138C462.376 224.333 465 221.716 465 218.488V203.149H459.502V219.137H459.521Z" fill="white"/>
<path d="M356.386 203.149H335.199L336.923 207.714H356.175C356.5 207.714 356.769 207.982 356.769 208.306V211H339.586C336.348 211 333.724 213.617 333.724 216.845V218.488C333.724 221.716 336.348 224.333 339.586 224.333H362.247V208.975C362.266 205.747 359.623 203.149 356.386 203.149ZM356.749 219.729H339.796C339.471 219.729 339.203 219.462 339.203 219.137V216.138C339.203 215.813 339.471 215.546 339.796 215.546H356.749V219.729Z" fill="white"/>
<path d="M427.914 203.149H414.083V197.857H413.968H408.049V224.333H414.083H427.914C431.151 224.333 433.776 221.716 433.776 218.488V208.994C433.795 205.766 431.171 203.149 427.914 203.149ZM427.876 219.137C427.876 219.462 427.608 219.729 427.282 219.729H414.083V207.791H427.282C427.608 207.791 427.876 208.058 427.876 208.383V219.137Z" fill="white"/>
<path d="M329.26 215.661C329.088 213.636 328.053 211.821 326.444 210.484C327.287 209.319 327.843 207.905 327.938 206.377C327.938 206.224 327.977 204.811 327.957 204.62C327.613 200.226 323.264 196.769 317.977 196.769C317.901 196.769 311.177 196.769 305.947 196.769V201.487L299.913 203.798V224.352H321.636C321.636 224.352 322 224.333 322.153 224.333C325.965 224.085 329.011 220.99 329.26 217.113C329.279 216.921 329.26 215.852 329.26 215.661ZM305.928 201.468H318.724C319.107 201.468 319.471 201.544 319.797 201.697C321.004 202.175 321.866 203.359 321.866 204.734C321.866 204.734 321.847 205.193 321.789 205.422C321.617 206.473 320.908 207.313 319.969 207.695C319.548 207.886 319.088 208.001 318.59 208.001H305.928V201.468ZM319.567 219.729H305.928V212.681H319.567C321.521 212.681 323.092 214.247 323.092 216.196C323.092 218.163 321.521 219.729 319.567 219.729Z" fill="white"/>
<path d="M305.928 196.749V191.038L299.913 193.349V199.061L305.928 196.749Z" fill="white"/>
<path d="M259.796 216.119V258.277H283.856V225.556L259.796 216.119Z" fill="white"/>
<path d="M259.796 191V212.089L283.856 221.544V191H259.796Z" fill="white"/>
<path d="M232 233.177V191H256.06V223.722L232 233.177Z" fill="white"/>
<path d="M232 258.278V237.208L256.06 227.753V258.278H232Z" fill="white"/>
</svg>
