<svg version="1.1" id="Layer_1" xmlns="http://www.w3.org/2000/svg" xmlns:xlink="http://www.w3.org/1999/xlink" x="0px" y="0px"
	 width="100%" viewBox="0 0 1538 1366" enable-background="new 0 0 1538 1366" xml:space="preserve">
<path fill="#FEFEFE" opacity="1.000000" stroke="none" 
	d="
M1539.000000,487.000000 
	C1539.000000,780.641479 1539.000000,1073.782959 1539.000000,1366.962158 
	C1026.402588,1366.962158 513.805176,1366.962158 1.103892,1366.962158 
	C1.103892,911.775085 1.103892,456.550140 1.103892,1.162596 
	C513.666626,1.162596 1026.333252,1.162596 1539.000000,1.162596 
	C1539.000000,162.861710 1539.000000,324.680847 1539.000000,487.000000 
M651.499878,71.618233 
	C806.329773,71.618248 961.160034,71.464981 1115.989258,71.789749 
	C1138.250244,71.836441 1160.531738,73.857849 1182.757568,75.566795 
	C1203.571655,77.167206 1223.755981,82.331764 1243.604614,88.580460 
	C1266.810669,95.886124 1289.114990,105.326530 1310.047241,117.895370 
	C1339.320312,135.472473 1365.520264,156.706161 1388.383789,182.121674 
	C1410.052856,206.209335 1427.203979,233.212921 1439.982910,262.843445 
	C1450.653198,287.584839 1458.604492,313.250000 1463.787964,339.822998 
	C1467.728638,360.025391 1470.038452,380.327820 1470.250122,400.812897 
	C1470.661743,440.662720 1464.588379,479.652191 1454.244629,518.132751 
	C1444.793457,553.293091 1431.777100,587.022827 1415.781982,619.630127 
	C1395.855469,660.251404 1370.731445,697.513611 1343.045410,733.267822 
	C1305.379883,781.910034 1260.117798,822.319641 1210.010742,857.325684 
	C1168.835327,886.091919 1124.046387,908.443359 1077.089111,926.347229 
	C1045.137817,938.529663 1012.273621,947.780640 978.481079,952.505676 
	C953.809937,955.955261 928.737671,957.930298 903.831055,958.061401 
	C794.004028,958.639832 684.172302,958.337524 574.342346,958.209717 
	C570.207214,958.204895 568.465210,959.392944 567.562012,963.386780 
	C564.808167,975.563293 561.681030,987.655151 558.736267,999.788940 
	C557.461060,1005.043457 556.276733,1010.320068 554.852051,1016.441895 
	C557.994202,1016.441895 560.278809,1016.441895 562.563354,1016.441895 
	C654.560608,1016.441895 746.557983,1016.515930 838.555115,1016.408203 
	C879.525879,1016.360168 920.570007,1017.749329 961.345459,1012.264465 
	C978.643250,1009.937683 996.013977,1007.691040 1013.051086,1004.015137 
	C1030.902466,1000.163635 1048.464478,994.886658 1066.026978,989.798035 
	C1101.921875,979.397644 1136.421997,965.292908 1169.520874,948.083801 
	C1215.220337,924.323242 1258.236328,896.367371 1297.596436,862.946777 
	C1337.579834,828.997009 1372.946777,790.782471 1402.955933,747.818542 
	C1418.935303,724.940918 1434.352051,701.559998 1448.348389,677.434875 
	C1466.555054,646.052490 1481.615967,612.989075 1493.484375,578.656250 
	C1501.784668,554.645203 1510.079712,530.517212 1516.191162,505.898804 
	C1521.700317,483.707001 1525.014526,460.876068 1527.900635,438.149719 
	C1532.092529,405.142395 1531.319824,371.971619 1527.040771,338.998077 
	C1523.048584,308.233551 1514.951294,278.523254 1504.015137,249.396576 
	C1486.128296,201.757599 1459.607666,159.777954 1423.944214,123.726082 
	C1400.461548,99.987564 1374.038574,79.612160 1344.945679,63.197105 
	C1303.144287,39.611610 1258.344116,24.484159 1210.661743,17.864641 
	C1186.006470,14.441846 1161.258301,13.009963 1136.448242,12.998829 
	C876.622620,12.882216 616.796997,12.926838 356.971405,12.926846 
	C355.638123,12.926846 354.287933,13.062643 352.974976,12.899337 
	C350.065155,12.537416 348.976501,13.820985 348.314301,16.627340 
	C345.523895,28.452347 342.436584,40.207027 339.493256,51.996254 
	C328.203491,97.215813 316.944580,142.443085 305.640778,187.659149 
	C295.951660,226.416367 286.199005,265.157684 276.507050,303.914185 
	C264.594147,351.551941 252.731003,399.202118 240.816986,446.839569 
	C228.094543,497.709503 215.328018,548.568481 202.598938,599.436707 
	C189.950531,649.982605 177.328171,700.535095 164.688126,751.083069 
	C152.693298,799.050781 140.685486,847.015137 128.692490,894.983276 
	C116.013458,945.695312 103.350357,996.411438 90.670601,1047.123291 
	C78.676697,1095.092163 66.667778,1143.057495 54.669907,1191.025391 
	C42.510406,1239.639526 30.351622,1288.253784 18.204506,1336.870972 
	C16.162783,1345.042725 14.181816,1353.229492 12.052410,1361.899536 
	C14.502064,1362.027344 16.299747,1362.200073 18.097670,1362.202637 
	C33.597179,1362.224243 49.102806,1361.969971 64.592827,1362.353882 
	C69.712723,1362.480835 71.358665,1360.531738 72.487221,1355.954102 
	C86.873787,1297.599854 101.415482,1239.283936 115.959396,1180.968506 
	C132.557541,1114.416748 149.173462,1047.869385 165.826080,981.331238 
	C182.234512,915.768860 198.720139,850.225769 215.132095,784.664246 
	C231.826126,717.975891 248.490234,651.280090 265.133057,584.578918 
	C280.808258,521.755737 296.405243,458.913116 312.099365,396.094696 
	C324.768677,345.383636 337.571289,294.705872 350.241943,243.995117 
	C364.123291,188.438889 377.954224,132.869949 391.688568,77.277252 
	C392.722107,73.093880 394.390686,71.492172 399.007568,71.501015 
	C482.838104,71.661743 566.669006,71.618141 651.499878,71.618233 
M1328.414062,333.226501 
	C1336.904053,353.872498 1343.954102,374.891052 1346.875977,397.190094 
	C1350.673218,426.170624 1350.574097,455.130493 1344.428467,483.627106 
	C1339.501343,506.473755 1333.433838,529.202026 1325.984985,551.347961 
	C1314.168213,586.480225 1297.035889,619.258301 1275.729370,649.566406 
	C1251.755127,683.669312 1224.362671,714.848022 1192.416748,741.890625 
	C1174.728027,756.864441 1156.340210,770.872559 1136.436646,782.685181 
	C1102.975952,802.543945 1067.700195,818.498840 1029.888550,828.090942 
	C1013.165771,832.333252 996.149597,835.999084 979.041138,837.980225 
	C961.394775,840.023621 943.475525,840.285645 925.673828,840.317688 
	C818.513977,840.510681 711.353516,840.444824 604.193481,840.303162 
	C599.763794,840.297302 598.132996,841.713623 597.217529,845.852478 
	C595.097290,855.437317 592.461243,864.907349 590.072449,874.433533 
	C588.061035,882.454712 586.103210,890.489319 583.974487,899.114197 
	C586.831848,899.252747 589.095581,899.458191 591.359314,899.458557 
	C698.186218,899.474304 805.013123,899.456665 911.840027,899.482361 
	C941.370972,899.489441 970.853394,898.302124 999.730957,891.768982 
	C1020.765747,887.010071 1041.868774,881.979858 1062.258667,875.059326 
	C1108.856934,859.243591 1151.805542,836.061890 1191.582520,807.072327 
	C1235.431519,775.115112 1273.693481,737.411499 1306.952148,694.588440 
	C1328.435669,666.926880 1346.948853,637.360962 1362.391113,605.959290 
	C1376.057617,578.168640 1386.565918,549.164734 1395.066528,519.329529 
	C1402.258545,494.086731 1407.322144,468.546967 1408.981445,442.437775 
	C1411.235107,406.978851 1408.029907,371.954834 1398.107910,337.697418 
	C1390.859009,312.668854 1381.079102,288.650482 1367.686401,266.304749 
	C1350.606323,237.806412 1328.963989,213.244781 1302.669434,192.722641 
	C1272.543457,169.210129 1239.573853,151.618668 1202.541138,141.664352 
	C1173.240601,133.788376 1143.413696,130.175461 1113.191895,130.159943 
	C889.705322,130.045227 666.218811,130.110519 442.732330,129.999619 
	C438.369568,129.997452 436.743195,131.334122 435.710693,135.541428 
	C424.601990,180.807968 413.298218,226.026749 401.992737,271.244843 
	C389.920929,319.528076 377.753265,367.787354 365.695312,416.074036 
	C353.718811,464.034851 341.854767,512.023743 329.888367,559.987061 
	C320.863007,596.162354 311.722656,632.308899 302.689941,668.482361 
	C290.714417,716.440857 278.816650,764.418823 266.841949,812.377563 
	C258.495819,845.803833 250.049057,879.204956 241.696838,912.629761 
	C230.317825,958.167542 219.002914,1003.721375 207.628906,1049.260376 
	C198.027679,1087.701782 188.364716,1126.127808 178.758850,1164.567993 
	C164.188660,1222.874268 149.638596,1281.185547 135.096039,1339.498779 
	C133.272110,1346.812378 131.545670,1354.150391 129.595566,1362.215332 
	C132.422180,1362.215332 134.218384,1362.215332 136.014572,1362.215332 
	C151.346985,1362.215332 166.683167,1362.026001 182.009476,1362.331909 
	C186.553726,1362.422485 188.343094,1360.963013 189.413055,1356.614014 
	C201.859589,1306.022705 214.453018,1255.467529 227.085663,1204.922119 
	C239.718124,1154.377686 252.475861,1103.864380 265.111816,1053.320679 
	C281.462250,987.919128 297.715759,922.493347 314.069092,857.092529 
	C326.747955,806.386902 339.559418,755.714478 352.233521,705.007690 
	C368.539795,639.769104 384.732880,574.502258 401.040558,509.264099 
	C413.715576,458.558228 426.515076,407.883484 439.216217,357.184113 
	C452.685730,303.417633 466.222626,249.667297 479.373535,195.822830 
	C480.784821,190.044586 483.005890,188.666885 488.650848,188.671127 
	C689.305359,188.822266 889.960022,188.713745 1090.614380,188.943985 
	C1108.213135,188.964172 1125.862549,190.522095 1143.392822,192.306870 
	C1162.816406,194.284393 1181.517822,199.543259 1199.722412,206.759415 
	C1234.832153,220.676651 1263.910522,242.836700 1288.332520,271.252563 
	C1304.314209,289.847839 1317.947754,310.099670 1328.414062,333.226501 
M343.561920,1209.213257 
	C355.112976,1163.030640 366.687561,1116.854004 378.208588,1070.663940 
	C390.175781,1022.685181 402.053650,974.684204 414.039429,926.710083 
	C426.710754,875.991943 439.499847,825.303101 452.169891,774.584656 
	C464.192017,726.459778 476.088135,678.303284 488.110291,630.178406 
	C500.777802,579.470398 513.565247,528.792358 526.233887,478.084595 
	C540.071838,422.696289 553.863464,367.296326 567.568054,311.874878 
	C568.594910,307.722351 570.249573,306.008728 574.903137,306.012512 
	C739.399353,306.146515 903.895752,306.078278 1068.391968,306.188263 
	C1087.400391,306.200958 1106.204346,308.097260 1124.402832,314.433044 
	C1140.449585,320.019684 1155.364136,327.745880 1168.444336,338.382507 
	C1189.577515,355.567871 1205.211670,377.211945 1216.215698,402.092712 
	C1222.714111,416.785889 1226.593872,432.242798 1227.815308,448.295654 
	C1229.696777,473.023651 1225.628784,496.923370 1218.851074,520.691406 
	C1210.948608,548.403748 1199.773193,574.621643 1184.879028,599.133118 
	C1166.523682,629.340698 1142.215210,654.156555 1113.519653,674.812866 
	C1087.026367,693.883972 1058.086304,707.762207 1026.577515,715.955322 
	C1006.055664,721.291565 984.963318,723.409668 963.747131,723.423096 
	C857.916199,723.490295 752.085205,723.453857 646.254272,723.453979 
	C641.421082,723.453979 636.580872,723.612061 631.757141,723.398804 
	C628.609375,723.259644 627.387146,724.623535 626.680542,727.523621 
	C623.803528,739.331238 620.702698,751.084106 617.731018,762.868896 
	C616.198364,768.947144 614.763733,775.050171 613.092041,781.936157 
	C615.940369,781.936157 618.054871,781.936157 620.169373,781.936157 
	C729.500244,781.936157 838.831360,782.049561 948.161682,781.804749 
	C963.268616,781.770935 978.425110,780.465149 993.463562,778.858093 
	C1014.869202,776.570618 1035.611084,771.232361 1055.861572,763.794739 
	C1081.777466,754.276306 1106.065186,741.539246 1128.934692,726.309143 
	C1154.038574,709.591248 1176.973389,690.195557 1197.286133,667.695801 
	C1216.002930,646.964050 1232.301514,624.523376 1245.399658,599.982239 
	C1268.045288,557.553223 1284.159058,512.863464 1288.214355,464.495148 
	C1290.221680,440.552765 1288.324463,416.830170 1281.502197,393.789459 
	C1270.412231,356.335968 1250.542603,324.145966 1221.966919,297.360870 
	C1198.710449,275.561615 1171.281372,261.498383 1140.611938,253.812210 
	C1121.330933,248.980118 1101.536255,247.706192 1081.650513,247.711395 
	C898.487976,247.759338 715.325500,247.739639 532.162964,247.739670 
	C531.162964,247.739670 530.153931,247.827545 529.164734,247.724457 
	C526.187622,247.414246 524.795593,248.540833 524.058960,251.642807 
	C520.752014,265.568939 517.119873,279.417542 513.649109,293.305145 
	C501.016815,343.851166 488.412537,394.404205 475.778015,444.949677 
	C463.748627,493.074432 451.675446,541.188293 439.657104,589.315796 
	C427.678802,637.282959 415.776550,685.269165 403.782135,733.232239 
	C391.787262,781.197266 379.681793,829.134521 367.694153,877.101318 
	C355.020569,927.812805 342.465729,978.553833 329.790710,1029.264893 
	C317.801636,1077.231567 305.696350,1125.169067 293.692352,1173.131958 
	C280.152557,1227.231323 266.664154,1281.343628 253.165359,1335.453369 
	C251.004501,1344.114990 248.906204,1352.792358 246.672073,1361.898193 
	C248.812195,1362.031860 250.275650,1362.201050 251.739288,1362.202759 
	C267.905579,1362.221558 284.073212,1362.102417 300.237213,1362.296387 
	C304.085266,1362.342651 305.707825,1361.173950 306.657104,1357.330933 
	C318.793243,1308.199097 331.111511,1259.112305 343.561920,1209.213257 
M1142.407715,566.960266 
	C1147.872925,553.228760 1154.115479,539.744080 1158.576782,525.693787 
	C1162.733643,512.602661 1166.342896,499.056458 1167.822876,485.452698 
	C1171.361206,452.931030 1162.158081,424.002136 1140.131592,399.356415 
	C1129.744019,387.733673 1117.513184,379.089203 1103.093628,373.122131 
	C1086.867798,366.407623 1069.794312,364.751526 1052.686646,364.723328 
	C908.032898,364.484955 763.378540,364.610962 618.724487,364.480316 
	C614.058960,364.476105 612.514832,366.122864 611.472656,370.402832 
	C603.910767,401.457428 596.082581,432.447144 588.344421,463.458862 
	C580.043030,496.728180 571.742920,529.997803 563.451660,563.269653 
	C555.845459,593.792480 548.277771,624.325012 540.645142,654.841248 
	C532.971924,685.519775 525.202515,716.174377 517.543152,746.856323 
	C509.199402,780.279602 500.967194,813.730713 492.624054,847.154175 
	C484.965057,877.836731 477.178009,908.487366 469.528687,939.172302 
	C459.302185,980.195618 449.195557,1021.248779 438.961609,1062.270264 
	C426.914368,1110.560059 414.772675,1158.826172 402.696869,1207.108765 
	C391.751740,1250.870605 380.831604,1294.638672 369.922058,1338.409424 
	C368.011688,1346.074097 366.207886,1353.765137 364.331757,1361.540039 
	C365.558441,1361.847168 366.196655,1362.145508 366.835480,1362.146851 
	C384.333221,1362.183716 401.831390,1362.134766 419.328461,1362.250488 
	C422.671356,1362.272583 422.942017,1360.046387 423.511505,1357.773926 
	C429.459106,1334.038574 435.437378,1310.310913 441.364105,1286.570312 
	C453.256866,1238.932007 465.096191,1191.280151 477.007111,1143.646240 
	C489.080109,1095.364136 501.239410,1047.103638 513.312439,998.821594 
	C525.950439,948.279785 538.515564,897.719788 551.140686,847.174744 
	C563.887512,796.142090 576.680969,745.121216 589.431396,694.089478 
	C601.374512,646.288574 613.273071,598.476440 625.219055,550.676208 
	C635.349487,510.140564 645.590637,469.632294 655.566345,429.058685 
	C656.605713,424.831177 658.271423,423.568329 662.580505,423.572357 
	C788.736206,423.690277 914.892151,423.586639 1041.047363,423.842590 
	C1050.058960,423.860870 1059.487915,425.088715 1067.992676,427.935425 
	C1090.500977,435.469604 1104.175049,451.255280 1107.753906,475.138306 
	C1109.572021,487.271667 1107.328247,499.000977 1104.137939,510.616577 
	C1098.479004,531.219360 1091.671631,551.277588 1078.653687,568.711792 
	C1066.067627,585.567627 1049.031494,595.397217 1029.333130,601.442200 
	C1014.603821,605.962158 999.450317,605.884827 984.311890,605.893982 
	C906.985229,605.941040 829.658508,605.915649 752.331848,605.915771 
	C722.167786,605.915833 692.003540,605.965637 661.839905,605.850037 
	C658.314453,605.836548 656.641418,606.600037 655.781494,610.434143 
	C652.612671,624.563721 648.939392,638.579651 645.501770,652.649536 
	C644.577515,656.432678 643.815613,660.255554 642.854004,664.629639 
	C645.332825,664.629639 646.972656,664.629639 648.612488,664.629639 
	C759.102966,664.629578 869.594055,664.812744 980.083252,664.429749 
	C996.478821,664.372864 1013.112610,662.935059 1029.197021,659.848083 
	C1052.635132,655.349731 1073.871704,645.027832 1092.756348,630.126099 
	C1114.198486,613.206238 1130.092896,591.981934 1142.407715,566.960266 
z"/>
<path fill="#454545" opacity="1.000000" stroke="none" 
	d="
M650.999878,71.618149 
	C566.669006,71.618141 482.838104,71.661743 399.007568,71.501015 
	C394.390686,71.492172 392.722107,73.093880 391.688568,77.277252 
	C377.954224,132.869949 364.123291,188.438889 350.241943,243.995117 
	C337.571289,294.705872 324.768677,345.383636 312.099365,396.094696 
	C296.405243,458.913116 280.808258,521.755737 265.133057,584.578918 
	C248.490234,651.280090 231.826126,717.975891 215.132095,784.664246 
	C198.720139,850.225769 182.234512,915.768860 165.826080,981.331238 
	C149.173462,1047.869385 132.557541,1114.416748 115.959396,1180.968506 
	C101.415482,1239.283936 86.873787,1297.599854 72.487221,1355.954102 
	C71.358665,1360.531738 69.712723,1362.480835 64.592827,1362.353882 
	C49.102806,1361.969971 33.597179,1362.224243 18.097670,1362.202637 
	C16.299747,1362.200073 14.502064,1362.027344 12.052410,1361.899536 
	C14.181816,1353.229492 16.162783,1345.042725 18.204506,1336.870972 
	C30.351622,1288.253784 42.510406,1239.639526 54.669907,1191.025391 
	C66.667778,1143.057495 78.676697,1095.092163 90.670601,1047.123291 
	C103.350357,996.411438 116.013458,945.695312 128.692490,894.983276 
	C140.685486,847.015137 152.693298,799.050781 164.688126,751.083069 
	C177.328171,700.535095 189.950531,649.982605 202.598938,599.436707 
	C215.328018,548.568481 228.094543,497.709503 240.816986,446.839569 
	C252.731003,399.202118 264.594147,351.551941 276.507050,303.914185 
	C286.199005,265.157684 295.951660,226.416367 305.640778,187.659149 
	C316.944580,142.443085 328.203491,97.215813 339.493256,51.996254 
	C342.436584,40.207027 345.523895,28.452347 348.314301,16.627340 
	C348.976501,13.820985 350.065155,12.537416 352.974976,12.899337 
	C354.287933,13.062643 355.638123,12.926846 356.971405,12.926846 
	C616.796997,12.926838 876.622620,12.882216 1136.448242,12.998829 
	C1161.258301,13.009963 1186.006470,14.441846 1210.661743,17.864641 
	C1258.344116,24.484159 1303.144287,39.611610 1344.945679,63.197105 
	C1374.038574,79.612160 1400.461548,99.987564 1423.944214,123.726082 
	C1459.607666,159.777954 1486.128296,201.757599 1504.015137,249.396576 
	C1514.951294,278.523254 1523.048584,308.233551 1527.040771,338.998077 
	C1531.319824,371.971619 1532.092529,405.142395 1527.900635,438.149719 
	C1525.014526,460.876068 1521.700317,483.707001 1516.191162,505.898804 
	C1510.079712,530.517212 1501.784668,554.645203 1493.484375,578.656250 
	C1481.615967,612.989075 1466.555054,646.052490 1448.348389,677.434875 
	C1434.352051,701.559998 1418.935303,724.940918 1402.955933,747.818542 
	C1372.946777,790.782471 1337.579834,828.997009 1297.596436,862.946777 
	C1258.236328,896.367371 1215.220337,924.323242 1169.520874,948.083801 
	C1136.421997,965.292908 1101.921875,979.397644 1066.026978,989.798035 
	C1048.464478,994.886658 1030.902466,1000.163635 1013.051086,1004.015137 
	C996.013977,1007.691040 978.643250,1009.937683 961.345459,1012.264465 
	C920.570007,1017.749329 879.525879,1016.360168 838.555115,1016.408203 
	C746.557983,1016.515930 654.560608,1016.441895 562.563354,1016.441895 
	C560.278809,1016.441895 557.994202,1016.441895 554.852051,1016.441895 
	C556.276733,1010.320068 557.461060,1005.043457 558.736267,999.788940 
	C561.681030,987.655151 564.808167,975.563293 567.562012,963.386780 
	C568.465210,959.392944 570.207214,958.204895 574.342346,958.209717 
	C684.172302,958.337524 794.004028,958.639832 903.831055,958.061401 
	C928.737671,957.930298 953.809937,955.955261 978.481079,952.505676 
	C1012.273621,947.780640 1045.137817,938.529663 1077.089111,926.347229 
	C1124.046387,908.443359 1168.835327,886.091919 1210.010742,857.325684 
	C1260.117798,822.319641 1305.379883,781.910034 1343.045410,733.267822 
	C1370.731445,697.513611 1395.855469,660.251404 1415.781982,619.630127 
	C1431.777100,587.022827 1444.793457,553.293091 1454.244629,518.132751 
	C1464.588379,479.652191 1470.661743,440.662720 1470.250122,400.812897 
	C1470.038452,380.327820 1467.728638,360.025391 1463.787964,339.822998 
	C1458.604492,313.250000 1450.653198,287.584839 1439.982910,262.843445 
	C1427.203979,233.212921 1410.052856,206.209335 1388.383789,182.121674 
	C1365.520264,156.706161 1339.320312,135.472473 1310.047241,117.895370 
	C1289.114990,105.326530 1266.810669,95.886124 1243.604614,88.580460 
	C1223.755981,82.331764 1203.571655,77.167206 1182.757568,75.566795 
	C1160.531738,73.857849 1138.250244,71.836441 1115.989258,71.789749 
	C961.160034,71.464981 806.329773,71.618248 650.999878,71.618149 
z"/>
<path fill="#454545" opacity="1.000000" stroke="none" 
	d="
M1328.276611,332.874115 
	C1317.947754,310.099670 1304.314209,289.847839 1288.332520,271.252563 
	C1263.910522,242.836700 1234.832153,220.676651 1199.722412,206.759415 
	C1181.517822,199.543259 1162.816406,194.284393 1143.392822,192.306870 
	C1125.862549,190.522095 1108.213135,188.964172 1090.614380,188.943985 
	C889.960022,188.713745 689.305359,188.822266 488.650848,188.671127 
	C483.005890,188.666885 480.784821,190.044586 479.373535,195.822830 
	C466.222626,249.667297 452.685730,303.417633 439.216217,357.184113 
	C426.515076,407.883484 413.715576,458.558228 401.040558,509.264099 
	C384.732880,574.502258 368.539795,639.769104 352.233521,705.007690 
	C339.559418,755.714478 326.747955,806.386902 314.069092,857.092529 
	C297.715759,922.493347 281.462250,987.919128 265.111816,1053.320679 
	C252.475861,1103.864380 239.718124,1154.377686 227.085663,1204.922119 
	C214.453018,1255.467529 201.859589,1306.022705 189.413055,1356.614014 
	C188.343094,1360.963013 186.553726,1362.422485 182.009476,1362.331909 
	C166.683167,1362.026001 151.346985,1362.215332 136.014572,1362.215332 
	C134.218384,1362.215332 132.422180,1362.215332 129.595566,1362.215332 
	C131.545670,1354.150391 133.272110,1346.812378 135.096039,1339.498779 
	C149.638596,1281.185547 164.188660,1222.874268 178.758850,1164.567993 
	C188.364716,1126.127808 198.027679,1087.701782 207.628906,1049.260376 
	C219.002914,1003.721375 230.317825,958.167542 241.696838,912.629761 
	C250.049057,879.204956 258.495819,845.803833 266.841949,812.377563 
	C278.816650,764.418823 290.714417,716.440857 302.689941,668.482361 
	C311.722656,632.308899 320.863007,596.162354 329.888367,559.987061 
	C341.854767,512.023743 353.718811,464.034851 365.695312,416.074036 
	C377.753265,367.787354 389.920929,319.528076 401.992737,271.244843 
	C413.298218,226.026749 424.601990,180.807968 435.710693,135.541428 
	C436.743195,131.334122 438.369568,129.997452 442.732330,129.999619 
	C666.218811,130.110519 889.705322,130.045227 1113.191895,130.159943 
	C1143.413696,130.175461 1173.240601,133.788376 1202.541138,141.664352 
	C1239.573853,151.618668 1272.543457,169.210129 1302.669434,192.722641 
	C1328.963989,213.244781 1350.606323,237.806412 1367.686401,266.304749 
	C1381.079102,288.650482 1390.859009,312.668854 1398.107910,337.697418 
	C1408.029907,371.954834 1411.235107,406.978851 1408.981445,442.437775 
	C1407.322144,468.546967 1402.258545,494.086731 1395.066528,519.329529 
	C1386.565918,549.164734 1376.057617,578.168640 1362.391113,605.959290 
	C1346.948853,637.360962 1328.435669,666.926880 1306.952148,694.588440 
	C1273.693481,737.411499 1235.431519,775.115112 1191.582520,807.072327 
	C1151.805542,836.061890 1108.856934,859.243591 1062.258667,875.059326 
	C1041.868774,881.979858 1020.765747,887.010071 999.730957,891.768982 
	C970.853394,898.302124 941.370972,899.489441 911.840027,899.482361 
	C805.013123,899.456665 698.186218,899.474304 591.359314,899.458557 
	C589.095581,899.458191 586.831848,899.252747 583.974487,899.114197 
	C586.103210,890.489319 588.061035,882.454712 590.072449,874.433533 
	C592.461243,864.907349 595.097290,855.437317 597.217529,845.852478 
	C598.132996,841.713623 599.763794,840.297302 604.193481,840.303162 
	C711.353516,840.444824 818.513977,840.510681 925.673828,840.317688 
	C943.475525,840.285645 961.394775,840.023621 979.041138,837.980225 
	C996.149597,835.999084 1013.165771,832.333252 1029.888550,828.090942 
	C1067.700195,818.498840 1102.975952,802.543945 1136.436646,782.685181 
	C1156.340210,770.872559 1174.728027,756.864441 1192.416748,741.890625 
	C1224.362671,714.848022 1251.755127,683.669312 1275.729370,649.566406 
	C1297.035889,619.258301 1314.168213,586.480225 1325.984985,551.347961 
	C1333.433838,529.202026 1339.501343,506.473755 1344.428467,483.627106 
	C1350.574097,455.130493 1350.673218,426.170624 1346.875977,397.190094 
	C1343.954102,374.891052 1336.904053,353.872498 1328.276611,332.874115 
z"/>
<path fill="#454544" opacity="1.000000" stroke="none" 
	d="
M343.472717,1209.613647 
	C331.111511,1259.112305 318.793243,1308.199097 306.657104,1357.330933 
	C305.707825,1361.173950 304.085266,1362.342651 300.237213,1362.296387 
	C284.073212,1362.102417 267.905579,1362.221558 251.739288,1362.202759 
	C250.275650,1362.201050 248.812195,1362.031860 246.672073,1361.898193 
	C248.906204,1352.792358 251.004501,1344.114990 253.165359,1335.453369 
	C266.664154,1281.343628 280.152557,1227.231323 293.692352,1173.131958 
	C305.696350,1125.169067 317.801636,1077.231567 329.790710,1029.264893 
	C342.465729,978.553833 355.020569,927.812805 367.694153,877.101318 
	C379.681793,829.134521 391.787262,781.197266 403.782135,733.232239 
	C415.776550,685.269165 427.678802,637.282959 439.657104,589.315796 
	C451.675446,541.188293 463.748627,493.074432 475.778015,444.949677 
	C488.412537,394.404205 501.016815,343.851166 513.649109,293.305145 
	C517.119873,279.417542 520.752014,265.568939 524.058960,251.642807 
	C524.795593,248.540833 526.187622,247.414246 529.164734,247.724457 
	C530.153931,247.827545 531.162964,247.739670 532.162964,247.739670 
	C715.325500,247.739639 898.487976,247.759338 1081.650513,247.711395 
	C1101.536255,247.706192 1121.330933,248.980118 1140.611938,253.812210 
	C1171.281372,261.498383 1198.710449,275.561615 1221.966919,297.360870 
	C1250.542603,324.145966 1270.412231,356.335968 1281.502197,393.789459 
	C1288.324463,416.830170 1290.221680,440.552765 1288.214355,464.495148 
	C1284.159058,512.863464 1268.045288,557.553223 1245.399658,599.982239 
	C1232.301514,624.523376 1216.002930,646.964050 1197.286133,667.695801 
	C1176.973389,690.195557 1154.038574,709.591248 1128.934692,726.309143 
	C1106.065186,741.539246 1081.777466,754.276306 1055.861572,763.794739 
	C1035.611084,771.232361 1014.869202,776.570618 993.463562,778.858093 
	C978.425110,780.465149 963.268616,781.770935 948.161682,781.804749 
	C838.831360,782.049561 729.500244,781.936157 620.169373,781.936157 
	C618.054871,781.936157 615.940369,781.936157 613.092041,781.936157 
	C614.763733,775.050171 616.198364,768.947144 617.731018,762.868896 
	C620.702698,751.084106 623.803528,739.331238 626.680542,727.523621 
	C627.387146,724.623535 628.609375,723.259644 631.757141,723.398804 
	C636.580872,723.612061 641.421082,723.453979 646.254272,723.453979 
	C752.085205,723.453857 857.916199,723.490295 963.747131,723.423096 
	C984.963318,723.409668 1006.055664,721.291565 1026.577515,715.955322 
	C1058.086304,707.762207 1087.026367,693.883972 1113.519653,674.812866 
	C1142.215210,654.156555 1166.523682,629.340698 1184.879028,599.133118 
	C1199.773193,574.621643 1210.948608,548.403748 1218.851074,520.691406 
	C1225.628784,496.923370 1229.696777,473.023651 1227.815308,448.295654 
	C1226.593872,432.242798 1222.714111,416.785889 1216.215698,402.092712 
	C1205.211670,377.211945 1189.577515,355.567871 1168.444336,338.382507 
	C1155.364136,327.745880 1140.449585,320.019684 1124.402832,314.433044 
	C1106.204346,308.097260 1087.400391,306.200958 1068.391968,306.188263 
	C903.895752,306.078278 739.399353,306.146515 574.903137,306.012512 
	C570.249573,306.008728 568.594910,307.722351 567.568054,311.874878 
	C553.863464,367.296326 540.071838,422.696289 526.233887,478.084595 
	C513.565247,528.792358 500.777802,579.470398 488.110291,630.178406 
	C476.088135,678.303284 464.192017,726.459778 452.169891,774.584656 
	C439.499847,825.303101 426.710754,875.991943 414.039429,926.710083 
	C402.053650,974.684204 390.175781,1022.685181 378.208588,1070.663940 
	C366.687561,1116.854004 355.112976,1163.030640 343.472717,1209.613647 
z"/>
<path fill="#454545" opacity="1.000000" stroke="none" 
	d="
M1142.213867,567.279663 
	C1130.092896,591.981934 1114.198486,613.206238 1092.756348,630.126099 
	C1073.871704,645.027832 1052.635132,655.349731 1029.197021,659.848083 
	C1013.112610,662.935059 996.478821,664.372864 980.083252,664.429749 
	C869.594055,664.812744 759.102966,664.629578 648.612488,664.629639 
	C646.972656,664.629639 645.332825,664.629639 642.854004,664.629639 
	C643.815613,660.255554 644.577515,656.432678 645.501770,652.649536 
	C648.939392,638.579651 652.612671,624.563721 655.781494,610.434143 
	C656.641418,606.600037 658.314453,605.836548 661.839905,605.850037 
	C692.003540,605.965637 722.167786,605.915833 752.331848,605.915771 
	C829.658508,605.915649 906.985229,605.941040 984.311890,605.893982 
	C999.450317,605.884827 1014.603821,605.962158 1029.333130,601.442200 
	C1049.031494,595.397217 1066.067627,585.567627 1078.653687,568.711792 
	C1091.671631,551.277588 1098.479004,531.219360 1104.137939,510.616577 
	C1107.328247,499.000977 1109.572021,487.271667 1107.753906,475.138306 
	C1104.175049,451.255280 1090.500977,435.469604 1067.992676,427.935425 
	C1059.487915,425.088715 1050.058960,423.860870 1041.047363,423.842590 
	C914.892151,423.586639 788.736206,423.690277 662.580505,423.572357 
	C658.271423,423.568329 656.605713,424.831177 655.566345,429.058685 
	C645.590637,469.632294 635.349487,510.140564 625.219055,550.676208 
	C613.273071,598.476440 601.374512,646.288574 589.431396,694.089478 
	C576.680969,745.121216 563.887512,796.142090 551.140686,847.174744 
	C538.515564,897.719788 525.950439,948.279785 513.312439,998.821594 
	C501.239410,1047.103638 489.080109,1095.364136 477.007111,1143.646240 
	C465.096191,1191.280151 453.256866,1238.932007 441.364105,1286.570312 
	C435.437378,1310.310913 429.459106,1334.038574 423.511505,1357.773926 
	C422.942017,1360.046387 422.671356,1362.272583 419.328461,1362.250488 
	C401.831390,1362.134766 384.333221,1362.183716 366.835480,1362.146851 
	C366.196655,1362.145508 365.558441,1361.847168 364.331757,1361.540039 
	C366.207886,1353.765137 368.011688,1346.074097 369.922058,1338.409424 
	C380.831604,1294.638672 391.751740,1250.870605 402.696869,1207.108765 
	C414.772675,1158.826172 426.914368,1110.560059 438.961609,1062.270264 
	C449.195557,1021.248779 459.302185,980.195618 469.528687,939.172302 
	C477.178009,908.487366 484.965057,877.836731 492.624054,847.154175 
	C500.967194,813.730713 509.199402,780.279602 517.543152,746.856323 
	C525.202515,716.174377 532.971924,685.519775 540.645142,654.841248 
	C548.277771,624.325012 555.845459,593.792480 563.451660,563.269653 
	C571.742920,529.997803 580.043030,496.728180 588.344421,463.458862 
	C596.082581,432.447144 603.910767,401.457428 611.472656,370.402832 
	C612.514832,366.122864 614.058960,364.476105 618.724487,364.480316 
	C763.378540,364.610962 908.032898,364.484955 1052.686646,364.723328 
	C1069.794312,364.751526 1086.867798,366.407623 1103.093628,373.122131 
	C1117.513184,379.089203 1129.744019,387.733673 1140.131592,399.356415 
	C1162.158081,424.002136 1171.361206,452.931030 1167.822876,485.452698 
	C1166.342896,499.056458 1162.733643,512.602661 1158.576782,525.693787 
	C1154.115479,539.744080 1147.872925,553.228760 1142.213867,567.279663 
z"/>
</svg>