<svg width="160" height="160" viewBox="0 0 160 160" fill="none" xmlns="http://www.w3.org/2000/svg">
<path d="M66.047 22.5406C65.996 22.5406 65.996 22.5406 65.945 22.5406H65.894C65.8429 22.5406 65.7919 22.5406 65.7919 22.5406H65.5368V22.3867C65.4858 22.3867 65.4348 22.3867 65.3838 22.3867V23.3099C65.5368 23.3099 65.7409 23.3099 65.894 23.2586C65.945 23.2586 65.945 23.2586 65.996 23.2586H66.047C66.047 23.2586 66.047 23.2586 66.098 23.2586C66.149 23.2586 66.149 23.2586 66.149 23.2073C66.2001 23.1561 66.2001 23.1048 66.2001 23.0022V22.9509V22.7457C66.2001 22.6944 66.2001 22.6431 66.149 22.5918C66.149 22.5918 66.098 22.5406 66.047 22.5406ZM65.996 23.1048L65.5368 23.1561V22.797L65.996 22.7457V23.1048Z" fill="#545454"/>
<path d="M64.6702 22.0276V21.8737C64.6702 21.8224 64.6701 21.7711 64.6191 21.7711V21.6172V21.5659C64.6191 21.5146 64.6192 21.5146 64.5682 21.4634L64.5172 21.4121C64.5172 21.4121 64.5171 21.4121 64.4661 21.4121C64.4661 21.4121 63.8029 21.4634 63.5479 21.4634C63.5479 21.7711 63.5479 22.0789 63.5479 22.3866C63.905 22.3866 64.262 22.3353 64.6191 22.3353V22.0276H64.6702ZM63.7519 21.6172C63.905 21.6172 64.058 21.6172 64.2111 21.5659C64.2621 21.5659 64.262 21.5659 64.313 21.5659H64.3641H64.415C64.415 21.5659 64.415 21.5659 64.415 21.6172C64.415 21.6172 64.415 21.6172 64.415 21.6685V21.7198V21.8224C64.211 21.8224 63.956 21.8737 63.7519 21.8737V21.6172ZM64.4661 22.0276V22.1302C64.211 22.1302 64.007 22.1814 63.7519 22.1814V21.9763C63.905 21.9763 64.058 21.9763 64.2111 21.925C64.3131 21.925 64.364 21.925 64.415 21.925C64.4661 21.9763 64.4661 21.9763 64.4661 22.0276Z" fill="#545454"/>
<path d="M67.2714 22.1302C67.3224 22.1302 67.3224 22.1302 67.3734 22.1302C67.4244 22.1302 67.4244 22.1302 67.4244 22.079C67.4754 22.0277 67.4754 21.9764 67.4754 21.8738V21.8225C67.4754 21.7199 67.4754 21.6686 67.4754 21.566C67.4754 21.5147 67.4754 21.4634 67.4244 21.4122C67.4244 21.3609 67.3734 21.3609 67.3224 21.3609H67.2714C67.2714 21.3609 67.2714 21.3609 67.2204 21.3609H67.1693C67.1183 21.3609 67.0673 21.3609 67.0673 21.3609C66.9653 21.3609 66.9143 21.3609 66.8122 21.3609V21.207C66.7612 21.207 66.7102 21.207 66.6592 21.207V22.1302C66.8122 22.1302 67.0163 22.1302 67.1693 22.079C67.2204 22.1302 67.2204 22.1302 67.2714 22.1302ZM66.8122 21.566L67.2714 21.5147V21.8738L66.8122 21.9251V21.566Z" fill="#545454"/>
<path d="M24.9269 25.31L24.9779 25.3613H25.029L27.3247 23.207C27.3757 23.1557 27.3757 23.1044 27.3247 23.1044C27.2737 23.0531 27.2227 23.0531 27.2227 23.1044L24.9269 25.2587C24.8759 25.2587 24.8759 25.31 24.9269 25.31Z" fill="#545454"/>
<path d="M21.6625 25.6177H21.7135L26.4581 20.8989C26.5091 20.8476 26.5091 20.7963 26.4581 20.7963C26.4071 20.745 26.3561 20.745 26.3561 20.7963L21.6115 25.5151C21.5605 25.5664 21.5605 25.6177 21.6115 25.6177C21.6115 25.5664 21.6625 25.6177 21.6625 25.6177Z" fill="#545454"/>
<path d="M13.6527 33.1063C13.7037 33.1063 13.7037 33.1063 13.6527 33.1063C13.7037 33.1063 13.7037 33.1063 13.6527 33.1063L14.469 33.0551L31.0494 32.0292L32.2228 31.9779C32.4779 31.9779 32.7329 31.7728 32.784 31.5163L33.2431 29.7211L36.5592 17.0007L36.9163 15.5645C36.9673 15.3593 36.9163 15.1542 36.8143 15.0003C36.7122 14.8464 36.5082 14.7438 36.3041 14.7951L35.4878 14.8464L18.8564 16.3339L17.7341 16.4365C17.479 16.4365 17.2749 16.6416 17.1729 16.8981L16.7137 18.642L13.4487 30.9521L13.0405 32.337C12.9895 32.5421 13.0405 32.7473 13.1426 32.9012C13.2956 33.0038 13.4487 33.1063 13.6527 33.1063ZM13.2446 32.3883L13.6017 31.0034L16.9178 18.642L17.3769 16.8981C17.428 16.7442 17.581 16.5903 17.7851 16.5903L18.9074 16.4878L35.4878 15.1029L36.3041 15.0516C36.4572 15.0516 36.6102 15.1029 36.6612 15.2055C36.7633 15.308 36.7633 15.4619 36.7633 15.6158L36.4061 17.052L33.0901 29.7724L32.5799 31.465C32.5289 31.6702 32.3758 31.7728 32.1718 31.7728L30.9984 31.8241L14.418 32.8499L13.6527 32.9012C13.4997 32.9012 13.3976 32.8499 13.2956 32.7473C13.1936 32.6447 13.1936 32.4908 13.2446 32.3883Z" fill="#545454"/>
<path d="M148.439 22.9505C148.439 22.8992 148.388 22.8992 148.388 22.8479L148.337 22.7966C148.286 22.7453 148.184 22.6427 147.367 22.5401C147.061 22.4888 146.806 22.4888 146.5 22.4375L87.9325 17.4109C87.4735 17.3596 87.0146 17.3596 86.6066 17.3083C86.4016 17.3083 86.1976 17.3083 85.9426 17.257C85.6876 17.257 85.4835 17.257 85.2285 17.2058C84.3615 17.1545 83.4426 17.1545 82.5246 17.1545C82.3206 17.1545 82.0655 17.1545 81.8615 17.1545C81.6575 17.1545 81.4025 17.1545 81.1985 17.1545C80.7395 17.1545 80.2795 17.1545 79.8718 17.2058C79.6167 17.2058 79.4127 17.2058 79.1576 17.2058C78.9535 17.2058 78.7494 17.2058 78.4944 17.257C78.0352 17.257 77.5762 17.3083 77.168 17.3596L76.1476 17.4109C76.0966 17.4109 76.0966 17.4109 76.0456 17.4622C75.9946 17.4622 75.9946 17.4109 75.9435 17.4622L55.6389 19.001V18.1803C55.6389 18.1803 55.6389 18.129 55.5879 18.0777L55.5369 18.0264C55.4859 17.9751 55.3838 17.9238 54.9247 17.8726C54.7716 17.8726 54.5676 17.8213 54.3125 17.8213C53.0881 17.7187 51.6086 17.7187 50.9964 17.7187C50.3842 17.7187 49.823 17.7187 49.3639 17.77C49.0578 17.77 48.8027 17.8213 48.5476 17.8213C48.4456 17.8213 48.3435 17.8213 48.2415 17.8726C48.1395 17.8726 48.0885 17.8726 47.9864 17.9238C47.9354 17.9238 47.8844 17.9238 47.8334 17.9751C47.8334 17.9751 47.7824 17.9751 47.7824 18.0264C47.7824 18.0264 47.7313 18.0264 47.7313 18.0777L47.6803 18.129C47.6293 18.1803 47.6293 18.1803 47.6293 18.2316V19.001C47.6293 19.001 47.6293 19.0523 47.6803 19.0523L47.7313 19.1036C47.7824 19.1036 47.8334 19.1549 47.8334 19.1549C47.8844 19.1549 47.9354 19.2061 47.9864 19.2061C48.0885 19.2061 48.1905 19.2574 48.2925 19.2574C48.4456 19.2574 48.6496 19.3087 48.8537 19.3087V19.6165L39.0075 20.3859L39.8748 17.1032C39.9258 16.539 40.0788 16.1286 40.0788 15.7183C40.0788 15.4618 40.0788 15.2567 40.0278 15.0515C39.9258 14.795 39.8238 14.6412 39.6197 14.5386L38.0892 13.6666C37.8851 13.564 37.7321 13.5127 37.477 13.5127C37.2729 13.5127 37.1199 13.5127 36.9158 13.5127L18.0907 15.1541C17.7335 15.2054 17.4274 15.2054 17.0703 15.3592C16.9173 15.4105 16.7642 15.5131 16.6112 15.667C16.5091 15.7696 16.3561 15.9235 16.2541 16.026C16.05 16.2825 15.8969 16.539 15.7439 16.898C15.6929 17.257 15.6419 17.5648 15.5398 17.8726L14.3665 22.2324C13.8563 22.3349 13.7032 22.3862 13.6522 22.4375C13.6522 22.4375 13.6012 22.4888 13.6012 22.5401C13.6012 22.5914 13.6012 22.5914 13.6012 22.6427V25.2586L11.8156 31.9265C11.7136 32.2856 11.5605 32.7985 11.5605 33.2088C11.5605 33.4653 11.5605 33.6705 11.6116 33.8756C11.6626 33.9782 11.7136 34.0808 11.7646 34.1834C11.8156 34.286 11.9177 34.3373 12.0197 34.3886L13.5502 35.2092L13.4992 137.793C13.4992 137.896 13.6012 137.998 13.7032 137.998C13.7543 137.998 13.7543 137.998 13.8053 137.998L13.8563 139.229C13.8563 139.281 13.8563 139.332 13.9073 139.383C13.9073 139.383 13.9583 139.435 14.0093 139.435C14.0604 139.435 14.0604 139.486 14.1114 139.486C14.1624 139.486 14.1624 139.486 14.2134 139.537C14.3154 139.537 14.3665 139.588 14.4685 139.588C14.6215 139.64 14.7746 139.64 14.9276 139.64C15.1317 139.64 15.3358 139.691 15.5398 139.691V140.05V140.101C15.5398 140.153 15.5398 140.153 15.5908 140.204C15.6419 140.255 15.6419 140.255 15.6419 140.255C15.6929 140.255 15.7439 140.307 15.7949 140.307C15.8459 140.307 15.948 140.358 15.999 140.358C16.101 140.358 16.203 140.358 16.2541 140.409C16.4581 140.409 16.7132 140.46 17.0193 140.46C17.4785 140.46 17.9886 140.512 18.5498 140.512C18.6518 140.512 18.7539 140.512 18.8559 140.512C18.9579 140.512 19.009 140.512 19.111 140.512C19.213 140.512 19.3661 140.512 19.5191 140.512C19.6212 140.512 19.6722 140.512 19.7742 140.512C19.9273 140.512 20.1313 140.512 20.2844 140.512C20.3354 140.512 20.3864 140.512 20.4884 140.512C20.6415 140.512 20.8456 140.512 20.9986 140.512C21.0496 140.512 21.1006 140.512 21.1517 140.512C21.3047 140.512 21.4578 140.512 21.6108 140.46H21.6618C21.8149 140.46 22.07 140.409 22.325 140.409C22.4271 140.409 22.5291 140.358 22.6311 140.358C22.6311 140.358 22.6311 140.358 22.6822 140.358L77.372 144.615C77.7291 144.666 78.0352 144.666 78.3923 144.666V145.077C78.3923 145.128 78.3923 145.179 78.4433 145.179C78.4433 145.179 78.4944 145.231 78.5454 145.231C78.5964 145.282 78.6474 145.282 78.6984 145.282C78.8005 145.282 78.8516 145.333 78.9536 145.333C79.0556 145.333 79.1576 145.384 79.2596 145.384C79.5147 145.436 79.7698 145.436 80.1265 145.436C80.6375 145.487 81.2495 145.487 81.8615 145.487C82.0145 145.487 82.2186 145.487 82.3716 145.487C83.4426 145.487 84.5145 145.436 85.2795 145.384C85.4835 145.384 85.6875 145.333 85.8915 145.333C85.9935 145.333 86.0955 145.282 86.1975 145.282C86.2485 145.282 86.2995 145.231 86.3505 145.231L86.4016 145.179C86.4526 145.128 86.4525 145.077 86.4525 145.025V144.615C86.6065 144.615 86.8105 144.615 86.9635 144.564C87.1675 144.564 87.4225 144.512 87.6265 144.512L139.46 139.948C139.511 139.948 139.562 139.948 139.562 139.948C139.664 139.948 139.766 139.948 139.817 139.999C140.072 139.999 140.276 140.05 140.633 140.05C141.092 140.101 141.653 140.101 142.215 140.101C142.317 140.101 142.572 140.101 142.827 140.101C143.541 140.101 144.561 140.101 145.429 139.999C145.582 139.999 145.735 139.948 145.888 139.948C145.99 139.948 146.041 139.896 146.143 139.896C146.194 139.896 146.245 139.845 146.296 139.845C146.347 139.794 146.398 139.742 146.398 139.691V139.332C146.653 139.332 146.908 139.281 147.112 139.229C147.265 139.229 147.418 139.178 147.52 139.178C147.571 139.178 147.673 139.127 147.724 139.127C147.775 139.127 147.775 139.127 147.826 139.076C147.878 139.076 147.877 139.076 147.929 139.024C147.929 139.024 147.98 138.973 148.031 138.973L148.082 138.922V138.87L148.133 137.639C148.184 137.639 148.184 137.639 148.235 137.639C148.337 137.639 148.439 137.537 148.439 137.434L148.388 23.1043C148.49 23.0017 148.49 22.9505 148.439 22.9505ZM76.0966 79.0125C76.1476 79.0125 76.1986 79.0125 76.1986 78.9612C76.1986 78.9612 76.1986 78.9612 76.2496 78.9612C76.4027 79.0638 76.5558 79.2177 76.6579 79.4229C76.8619 79.7819 76.9639 80.1918 76.9639 80.6538C76.9639 81.1158 76.8619 81.5258 76.6579 81.8848C76.5558 82.0898 76.4027 82.2438 76.2496 82.3468C76.2496 82.3468 76.2496 82.3468 76.1986 82.3468C76.1476 82.2948 76.0966 82.2948 76.0966 82.2948C75.9946 82.2948 75.8925 82.3978 75.8925 82.5008C75.8415 82.5008 75.7906 82.5518 75.6886 82.5518C75.7396 82.5518 75.7395 82.5008 75.7905 82.5008C75.9946 82.3978 76.1476 82.1928 76.2496 81.9878C76.4537 81.6288 76.6068 81.1668 76.6068 80.6538C76.6068 80.1918 76.5047 79.6793 76.2496 79.3203C76.0966 79.1151 75.9435 78.9099 75.7905 78.8074C75.7905 78.8074 75.7396 78.8074 75.6886 78.7561C75.7396 78.7561 75.7906 78.7561 75.8416 78.7561C75.8926 78.9099 75.9946 79.0125 76.0966 79.0125ZM75.6886 78.6022H74.9232H69.0053C68.8012 78.6022 68.5461 78.6535 68.3421 78.8074C68.189 78.9099 67.9849 79.1151 67.8829 79.3203C67.6788 79.6793 67.5258 80.1408 67.5258 80.6028C67.5258 81.0638 67.6278 81.5258 67.8829 81.8848C67.9849 82.0898 68.189 82.2948 68.3421 82.3978C68.5461 82.5518 68.7502 82.6028 69.0053 82.6028H74.9742H75.6886C75.7396 82.6028 75.8415 82.6028 75.8925 82.5518V134.357H75.8416C75.7906 134.357 75.7395 134.408 75.7395 134.459C75.7395 134.511 75.7906 134.562 75.8416 134.562C75.8416 134.562 75.8415 134.562 75.8925 134.562H75.9435V134.716L16.8152 130.766L16.8663 38.5945L75.9435 35.3631V78.5509C75.7905 78.6535 75.7396 78.6022 75.6886 78.6022ZM75.7395 78.9612C75.8925 79.0638 76.0456 79.2177 76.1476 79.4229C76.3517 79.7819 76.4538 80.1918 76.4538 80.6538C76.4538 81.1158 76.3517 81.5258 76.1476 81.8848C76.0456 82.0898 75.8925 82.2438 75.7395 82.3468C75.5354 82.4488 75.3824 82.5518 75.1783 82.5518H75.0252H69.1073C68.9032 82.5518 68.6992 82.5008 68.5461 82.3468C68.3931 82.2438 68.24 82.0898 68.138 81.8848C67.9339 81.5258 67.8319 81.1158 67.8319 80.6538C67.8319 80.1918 67.9339 79.7819 68.138 79.4229C68.24 79.2177 68.3931 79.0638 68.5461 78.9612C68.6992 78.8586 68.9032 78.7561 69.1073 78.7561H75.0763H75.2293C75.3313 78.8074 75.5354 78.8586 75.7395 78.9612ZM75.8925 135.229V142.615C75.8925 142.666 75.8925 142.666 75.8925 142.717L16.7132 138.204C16.7132 138.152 16.7642 138.152 16.7642 138.101V131.33L75.8925 135.229ZM47.7824 18.7445V18.1803L47.8334 18.129H47.8844C47.9354 18.129 47.9864 18.0777 48.0374 18.0777C48.1395 18.0777 48.1905 18.0264 48.2925 18.0264C48.3945 18.0264 48.4966 18.0264 48.5986 17.9751C48.8537 17.9751 49.1088 17.9238 49.4149 17.9238C49.9251 17.9238 50.4352 17.8726 51.0474 17.8726C51.6086 17.8726 53.0881 17.8726 54.3125 17.9751C54.5676 17.9751 54.7206 18.0264 54.9247 18.0264C55.3838 18.0777 55.4348 18.129 55.4348 18.129L55.4859 18.1803V19.001L54.4655 19.1036V18.6932C54.4655 18.6932 54.4655 18.6932 54.4145 18.6932C53.5472 18.6419 52.2718 18.5906 51.0474 18.5906C50.4352 18.5906 49.874 18.5906 49.3639 18.6419C49.0578 18.6419 48.7517 18.6932 48.5476 18.6932C48.4456 18.6932 48.2925 18.6932 48.1905 18.7445C48.0885 18.7445 48.0374 18.7958 47.9354 18.7958C47.8844 18.7445 47.8334 18.7445 47.7824 18.7445ZM48.2925 18.9497C48.1905 18.9497 48.0885 18.8984 47.9864 18.8984C47.9354 18.8984 47.8844 18.8984 47.8334 18.8471H47.8844C47.9864 18.8471 48.0374 18.7958 48.1395 18.7958C48.2415 18.7958 48.3946 18.7445 48.4966 18.7445C48.7517 18.7445 49.0067 18.6932 49.3128 18.6932C49.823 18.6419 50.3842 18.6419 50.9964 18.6419C51.7106 18.6419 52.3738 18.6419 53.0371 18.6932L48.9047 19.001C48.7007 19.001 48.4966 19.001 48.2925 18.9497ZM54.3125 18.7958V19.1036L49.0578 19.5139V19.2061L54.3125 18.7958ZM75.8925 17.8726V35.0041L16.8152 38.2354V35.1579L33.3957 34.1834C33.5487 34.1834 33.7528 34.1834 33.9058 34.1321C34.1099 34.0808 34.2629 34.0295 34.416 33.9782C34.569 33.9269 34.7221 33.8243 34.8751 33.6705C35.0282 33.5679 35.1302 33.414 35.2323 33.2601C35.4363 33.0037 35.5894 32.6959 35.7424 32.3369C35.8955 31.9778 35.9465 31.6188 36.0485 31.311L36.8138 28.3361L39.3646 28.1822C39.6707 28.1822 39.9768 28.0284 40.2829 27.8232C40.538 27.618 40.7421 27.4128 40.8951 27.1051C41.2012 26.5922 41.3543 25.9254 41.3032 25.2586C41.2522 24.5918 41.0482 23.925 40.7421 23.4634C40.538 23.1556 40.3339 22.9505 40.0788 22.7453C39.7727 22.5401 39.4666 22.4375 39.1605 22.3862C39.0585 22.3862 39.0075 22.3862 38.9055 22.3862L38.2933 22.4375L38.7524 20.6423L75.8925 17.8726ZM39.2626 22.7966C39.7217 22.8479 40.0788 23.1043 40.2829 23.3095C40.538 23.566 40.7421 23.925 40.8951 24.3353C41.0482 24.6944 41.0992 25.1047 41.0992 25.515C41.0992 26.0793 40.9461 26.5922 40.7421 27.0025C40.589 27.259 40.436 27.4641 40.2319 27.5667C40.0278 27.7206 39.7727 27.8232 39.5687 27.8745C39.3136 27.9258 39.0585 27.8745 38.8544 27.7719C38.6504 27.6693 38.4463 27.5154 38.2422 27.3103C37.9361 26.9512 37.6811 26.4896 37.579 25.9254L38.2933 23.1556C38.5483 22.8992 38.9055 22.7966 39.2626 22.7966ZM38.2933 22.8992L38.3443 22.6427L39.0075 22.5914C39.0585 22.5914 39.1605 22.5914 39.2116 22.5914C39.3136 22.5914 39.4666 22.6427 39.5687 22.694C39.4666 22.6427 39.3646 22.6427 39.2626 22.6427C38.9055 22.5914 38.5994 22.694 38.2933 22.8992ZM40.1809 27.7719C40.1299 27.8232 40.0278 27.8745 39.9768 27.9258C40.0788 27.8745 40.1299 27.8232 40.1809 27.7719ZM38.0382 27.4128C38.2422 27.618 38.4463 27.7719 38.7014 27.9258C38.9055 28.0284 39.1095 28.0796 39.3136 28.0796C39.3646 28.0796 39.4666 28.0796 39.5177 28.0796C39.6707 28.0796 39.7727 28.0284 39.8748 27.9771C39.7217 28.0284 39.5177 28.0796 39.3646 28.1309L36.8648 28.2848L37.375 26.3357C37.528 26.7461 37.7831 27.1564 38.0382 27.4128ZM14.0093 22.7453C14.0604 22.7453 14.1624 22.694 14.2644 22.694L14.0093 23.6685V22.7453ZM11.8666 33.6192C11.8156 33.4653 11.8156 33.3114 11.8156 33.055C11.8156 32.6959 11.9177 32.2856 12.0197 31.9778L15.7949 17.9238C15.8969 17.6161 15.948 17.3083 16.101 17.0006C16.152 16.8467 16.203 16.6928 16.3051 16.5903C16.3561 16.4364 16.4581 16.3338 16.5602 16.2312C16.6112 16.0773 16.7132 15.9748 16.8152 15.8722C16.9173 15.7696 17.0703 15.7183 17.1724 15.6157C17.4274 15.5131 17.7335 15.4618 18.0396 15.4105L36.8648 13.8205C37.0178 13.8205 37.1709 13.7692 37.375 13.8205C37.579 13.8205 37.7321 13.8718 37.8341 13.9231C37.8851 13.9744 37.9872 14.0257 38.0382 14.1282C38.0892 14.1795 38.1402 14.2821 38.1402 14.3847C38.1912 14.5386 38.1912 14.6925 38.1912 14.9489C38.1402 15.308 38.0382 15.7183 37.9361 16.0773L34.1609 30.4904C34.0589 30.7981 34.0079 31.1059 33.9058 31.4136C33.8038 31.7727 33.6507 32.0291 33.4467 32.2343C33.3446 32.3369 33.2426 32.4907 33.1406 32.5933C33.0385 32.6959 32.8855 32.7985 32.7324 32.8498C32.4774 32.9524 32.1713 33.0037 31.9162 33.0037H31.8652L13.04 34.0808H12.989C12.836 34.0808 12.6829 34.0808 12.5299 34.0808C12.3768 34.0808 12.2238 34.0295 12.1217 33.9782C12.0197 33.9269 11.9687 33.8756 11.9177 33.8243C11.9177 33.773 11.8666 33.7218 11.8666 33.6192ZM13.7543 34.9528C13.7032 34.9528 13.6522 34.9528 13.6012 35.0041L12.0707 34.2347C12.0197 34.1834 11.9687 34.1321 11.8666 34.0295C11.9177 34.0808 11.9687 34.1321 12.0707 34.1834C12.1727 34.2347 12.3258 34.286 12.5299 34.286C12.5809 34.286 12.6319 34.286 12.6319 34.286C12.7339 34.286 12.836 34.286 12.989 34.286L31.8141 33.1575C31.8141 33.1575 31.8141 33.1575 31.8652 33.1575H31.9162H32.0182C32.2733 33.1575 32.5284 33.1063 32.7835 33.0037C32.9365 32.9524 33.0896 32.8498 33.1916 32.7472C33.2936 32.6446 33.4467 32.542 33.5487 32.3882C33.7528 32.1317 33.9058 31.8752 34.0079 31.5162C34.1099 31.2085 34.2119 30.9007 34.2629 30.5929L38.0892 16.0773C38.1912 15.7183 38.2933 15.308 38.3443 14.9489C38.3443 14.6925 38.3443 14.4873 38.2933 14.3334C38.2422 14.2308 38.1912 14.1282 38.1402 14.0257C38.0892 13.9231 37.9872 13.8718 37.8851 13.8205C37.7831 13.7692 37.579 13.7179 37.426 13.7179C37.426 13.7179 37.426 13.7179 37.477 13.7179C37.6811 13.7179 37.8341 13.7692 37.9361 13.8205L39.4666 14.6925C39.6707 14.795 39.7727 15.0002 39.8238 15.1541C39.8748 15.308 39.8748 15.5131 39.8748 15.7696C39.8748 16.1799 39.7217 16.5903 39.6197 17.0006L38.7524 20.3859L38.6504 20.7449L35.8445 31.4136C35.7424 31.7214 35.6914 32.0804 35.5384 32.3882C35.3853 32.7472 35.2323 33.0037 35.0792 33.2601C34.9772 33.414 34.8751 33.5166 34.7221 33.6192C34.569 33.7218 34.467 33.8243 34.314 33.8756C34.1609 33.9269 34.0079 33.9782 33.8548 34.0295C33.7018 34.0808 33.4977 34.0808 33.3446 34.0808L16.7132 35.0553C16.6622 35.0041 16.6112 34.9528 16.5091 34.9528C16.4071 34.9528 16.3561 35.0041 16.3051 35.1066H14.5705C14.4175 35.1066 14.2134 35.1066 14.0093 35.1066C13.9583 35.0041 13.8563 34.9528 13.7543 34.9528ZM14.2134 137.896C14.2134 137.793 14.1114 137.691 14.0093 137.691C13.9583 137.691 13.9583 137.691 13.9073 137.742L14.0093 35.3118C14.1114 35.3118 14.1624 35.3118 14.2644 35.3118C14.3665 35.3118 14.4685 35.3118 14.5705 35.3118L16.3561 35.2092L16.3051 138.101L15.6419 138.05C15.3358 138.05 15.0297 137.998 14.6726 137.947C14.5195 137.947 14.3665 137.896 14.2134 137.896C14.2644 137.896 14.2644 137.896 14.2134 137.896ZM21.7128 140.204H21.6618C21.5088 140.204 21.3047 140.204 21.1006 140.255C21.0496 140.255 21.0496 140.255 20.9986 140.255C20.7945 140.255 20.5395 140.255 20.3354 140.307C20.2844 140.307 20.2334 140.307 20.1823 140.307C19.9783 140.307 19.7232 140.307 19.5191 140.307C19.4681 140.307 19.4681 140.307 19.4171 140.307C19.162 140.307 18.9069 140.307 18.6008 140.307C18.0396 140.307 17.5295 140.307 17.0703 140.255C16.7642 140.255 16.5091 140.204 16.3051 140.204C16.203 140.204 16.101 140.204 16.05 140.153C15.999 140.153 15.8969 140.153 15.8459 140.101C15.7949 140.101 15.7439 140.101 15.7439 140.05C15.7439 140.05 15.7439 140.05 15.6929 139.999V139.64C15.7439 139.64 15.7949 139.64 15.8969 139.64L21.9169 140.101C21.8149 140.204 21.7639 140.204 21.7128 140.204ZM86.3505 144.974C86.3505 144.974 86.2995 145.025 86.3505 144.974C86.2485 145.025 86.2485 145.077 86.1975 145.077C86.1465 145.077 85.9935 145.128 85.8915 145.128C85.6875 145.179 85.4835 145.179 85.2795 145.179C84.4125 145.282 83.1365 145.282 81.8615 145.282C81.2495 145.282 80.6375 145.231 80.1265 145.231C79.7698 145.231 79.5147 145.179 79.2596 145.179C79.1576 145.179 79.0556 145.179 78.9536 145.128C78.9026 145.128 78.8006 145.077 78.7495 145.077C78.6985 145.077 78.6475 145.025 78.5965 145.025C78.5965 145.025 78.5964 145.025 78.5454 145.025V144.615C78.5964 144.615 78.5964 144.615 78.6474 144.615C79.0556 144.615 79.5148 144.666 79.9229 144.666C80.3306 144.666 80.7905 144.666 81.1985 144.718C81.5555 144.718 81.9125 144.718 82.2695 144.718C82.3205 144.718 82.4225 144.718 82.4735 144.718C83.2895 144.718 84.1576 144.718 85.0246 144.666C85.4326 144.666 85.8406 144.615 86.2486 144.615V144.974H86.3505ZM146.245 139.691C146.194 139.691 146.194 139.742 146.143 139.742C146.092 139.742 145.99 139.794 145.939 139.794C145.786 139.845 145.582 139.845 145.48 139.845C144.357 139.948 142.776 139.948 142.317 139.948C141.755 139.948 141.194 139.948 140.735 139.896C140.633 139.896 140.531 139.896 140.429 139.896L146.245 139.383V139.691C146.245 139.64 146.245 139.64 146.245 139.691ZM147.724 138.665C147.724 138.665 147.673 138.665 147.724 138.665C147.622 138.717 147.571 138.717 147.52 138.717C147.367 138.768 147.265 138.768 147.112 138.768C146.857 138.819 146.551 138.819 146.296 138.87L87.6776 144.051C87.4736 144.051 87.2185 144.102 87.0145 144.102C86.8105 144.102 86.6066 144.153 86.4016 144.153C85.9936 144.153 85.5345 144.205 85.1265 144.205C84.2595 144.256 83.3915 144.256 82.5755 144.256C82.1675 144.256 81.7086 144.256 81.3006 144.256C80.8926 144.256 80.4326 144.256 80.0246 144.205C79.6168 144.205 79.1577 144.153 78.7495 144.153C78.3414 144.153 77.8822 144.102 77.474 144.051L15.948 139.281C15.6419 139.281 15.3358 139.229 15.0297 139.178C14.8766 139.178 14.7236 139.127 14.5705 139.127C14.5195 139.127 14.4175 139.076 14.3665 139.076H14.3154L14.2644 138.05C14.4175 138.05 14.5195 138.101 14.7236 138.101C15.0297 138.152 15.3868 138.152 15.6929 138.204L16.5091 138.255C16.5091 138.255 16.5091 138.255 16.5602 138.255C16.5602 138.306 16.6112 138.306 16.6112 138.306L75.9435 142.82C75.9946 142.82 75.9946 142.769 76.0456 142.769H76.0966H76.1476H76.1986L77.219 142.82C77.6781 142.871 78.0862 142.871 78.5454 142.922C79.0045 142.922 79.4637 142.974 79.8718 142.974C80.3305 142.974 80.7905 142.974 81.1985 143.025C81.4025 143.025 81.6575 143.025 81.8615 143.025C82.0145 143.025 82.1675 143.025 82.3205 143.025C82.3715 143.025 82.4736 143.025 82.5246 143.025C83.3916 143.025 84.3105 143.025 85.2285 142.974C86.2485 142.922 87.0655 142.871 87.9325 142.82L146.551 137.742C146.806 137.742 147.112 137.691 147.418 137.639C147.571 137.639 147.673 137.588 147.775 137.588L147.724 138.665ZM147.98 137.28C147.877 137.28 147.775 137.383 147.775 137.486C147.673 137.486 147.52 137.537 147.367 137.537C147.061 137.588 146.755 137.588 146.5 137.639L87.8815 142.717C87.0655 142.769 86.2485 142.82 85.2285 142.871C84.3105 142.922 83.4426 142.922 82.5246 142.922C82.3206 142.922 82.0655 142.922 81.8615 142.922C81.6575 142.922 81.4025 142.922 81.1985 142.922C81.0455 142.922 80.8925 142.922 80.7395 142.922C80.6885 142.871 80.6375 142.871 80.6375 142.922C80.3815 142.922 80.1265 142.922 79.8718 142.922C79.4127 142.922 78.9535 142.871 78.5454 142.871C78.0862 142.871 77.6271 142.82 77.219 142.769L76.3008 142.717V142.666V82.6028H76.3517C76.5557 82.5008 76.7089 82.2948 76.8109 82.0898C77.015 81.7308 77.168 81.2698 77.168 80.7568C77.168 80.2948 77.066 79.7819 76.8109 79.4229C76.6579 79.2177 76.5047 79.0125 76.3517 78.9099H76.3008V35.3631V18.0264L77.219 17.9751C77.6781 17.9238 78.0862 17.9238 78.5454 17.8726C78.7494 17.8726 78.9535 17.8726 79.1576 17.8213C79.4127 17.8213 79.6167 17.8213 79.8718 17.8213C80.3305 17.8213 80.7395 17.8213 81.1985 17.77C81.4025 17.77 81.6575 17.77 81.8615 17.77C82.0655 17.77 82.3206 17.77 82.5246 17.77C83.3916 17.77 84.3106 17.77 85.1776 17.8213C85.4326 17.8213 85.6365 17.8213 85.8915 17.8726C86.0955 17.8726 86.2995 17.8726 86.5035 17.9238C86.9635 17.9751 87.3716 17.9751 87.8306 18.0264L146.398 23.053C146.704 23.053 146.959 23.1043 147.265 23.1556C147.724 23.2069 147.929 23.2582 147.98 23.3095L148.031 137.486C148.082 137.28 148.031 137.28 147.98 137.28Z" fill="#545454"/>
<path d="M24.8771 128.715C24.775 128.663 24.673 128.612 24.571 128.612C24.3669 128.612 24.2138 128.766 24.1118 128.971C24.0098 129.176 24.0098 129.381 24.0098 129.484C24.0098 129.689 24.0608 129.894 24.1628 130.1C24.2138 130.202 24.3159 130.305 24.3669 130.356C24.4689 130.407 24.571 130.459 24.673 130.459C24.8771 130.459 25.0301 130.305 25.1321 130.1C25.2342 129.894 25.2342 129.689 25.2342 129.587C25.2342 129.381 25.1832 129.176 25.0811 128.971C25.0301 128.869 24.9791 128.766 24.8771 128.715ZM24.9791 129.997C24.9281 130.048 24.826 130.253 24.673 130.253C24.571 130.253 24.5199 130.202 24.4689 130.202C24.4179 130.151 24.3669 130.1 24.3159 129.997C24.2138 129.843 24.2138 129.689 24.2138 129.484C24.2138 129.33 24.2649 129.176 24.3159 129.022C24.3669 128.971 24.4689 128.766 24.622 128.766C24.724 128.766 24.775 128.817 24.826 128.817C24.8771 128.869 24.9281 128.92 24.9791 129.022C25.0811 129.176 25.0811 129.33 25.0811 129.535C25.0811 129.74 25.0301 129.894 24.9791 129.997Z" fill="#545454"/>
<path d="M20.7442 128.663C20.6932 128.561 20.6422 128.458 20.5401 128.407C20.4381 128.355 20.3361 128.304 20.234 128.304C20.03 128.304 19.8768 128.458 19.7748 128.663C19.6728 128.817 19.6729 129.022 19.6729 129.176C19.6729 129.381 19.7239 129.586 19.8259 129.74C19.8769 129.843 19.9278 129.946 20.0299 129.997C20.1319 130.048 20.234 130.099 20.3361 130.099C20.5401 130.099 20.6932 129.946 20.7952 129.74C20.8973 129.535 20.8973 129.33 20.8973 129.227C20.8973 129.074 20.8462 128.868 20.7442 128.663ZM20.6931 129.279C20.6931 129.433 20.6422 129.586 20.5912 129.74C20.5401 129.792 20.438 129.997 20.285 129.997C20.1829 129.997 20.132 129.946 20.081 129.946C20.03 129.894 19.9789 129.843 19.9278 129.74C19.8258 129.586 19.8259 129.433 19.8259 129.227C19.8259 129.074 19.8768 128.92 19.9278 128.766C19.9789 128.715 20.081 128.509 20.234 128.509C20.3361 128.509 20.387 128.561 20.438 128.561C20.489 128.612 20.5401 128.663 20.5912 128.766C20.6932 128.92 20.6931 129.074 20.6931 129.279Z" fill="#545454"/>
<path d="M65.8426 21.6172C65.8936 21.6172 65.9445 21.6172 66.0466 21.6172V22.1814H66.2506C66.2506 21.9763 66.2506 21.7711 66.2506 21.6172C66.3016 21.6172 66.3528 21.6172 66.4548 21.6172C66.4548 21.8224 66.4548 22.0276 66.4548 22.1814C66.5058 22.1814 66.5568 22.1814 66.6589 22.1814C66.6589 22.0276 66.6589 21.925 66.6589 21.7711V21.6685V21.6172V21.5659C66.6589 21.5146 66.6588 21.5146 66.6078 21.4634C66.6078 21.4634 66.5568 21.4121 66.5058 21.4121C66.2507 21.4121 65.9956 21.4634 65.6895 21.4634V22.2327C65.7406 22.2327 65.7915 22.2327 65.8935 22.2327C65.8425 22.0276 65.8426 21.8224 65.8426 21.6172Z" fill="#545454"/>
<path d="M63.6498 23.4634C63.7008 23.4634 63.7008 23.4634 63.6498 23.4634C63.7008 23.4634 63.7519 23.4634 63.7519 23.4634C63.8029 23.4634 63.9049 23.4634 63.9559 23.4634C64.1089 23.4634 64.2111 23.4634 64.3641 23.4121V23.2582C64.2621 23.2582 64.1601 23.2582 64.007 23.2582C63.956 23.2582 63.905 23.2582 63.854 23.2582H63.7519C63.7519 23.2582 63.7519 23.2582 63.7519 23.2069V22.4888H63.5479V22.8991C63.5479 22.9504 63.5479 23.053 63.5479 23.1043V23.2582V23.3095C63.5479 23.3608 63.5479 23.3608 63.5479 23.4121C63.5989 23.4121 63.6498 23.4634 63.6498 23.4634Z" fill="#545454"/>
<path d="M25.0806 38.7999C24.9275 38.6973 24.7745 38.646 24.6214 38.5947H24.3664H24.3153C24.1113 38.5947 23.9582 38.6973 23.8052 38.8512C23.7031 38.9538 23.6011 39.1589 23.4991 39.3128C23.346 39.6719 23.346 40.0822 23.4481 40.4925V40.5438C23.4991 40.749 23.6011 40.9542 23.7542 41.108C23.9072 41.2619 24.1113 41.3645 24.3153 41.3645C24.3153 41.3645 24.3153 41.3645 24.3664 41.3645H24.4684C24.4684 41.3645 24.5194 41.3645 24.5704 41.3645C24.5704 41.3645 24.5704 41.3645 24.6214 41.3645C24.7745 41.3645 24.9275 41.3132 25.0806 41.2106C25.1826 41.108 25.2847 41.0054 25.3867 40.8516C25.5397 40.5951 25.5908 40.2874 25.5908 39.9796C25.5908 39.6719 25.5397 39.3641 25.4377 39.1076C25.2336 39.0051 25.1826 38.9025 25.0806 38.7999ZM24.6725 41.0567C24.5704 41.1593 24.4684 41.2106 24.3153 41.2106C24.1113 41.2106 23.9582 41.108 23.8562 41.0054C23.7031 40.8516 23.6521 40.6464 23.6011 40.5438V40.4925C23.4991 40.1335 23.4991 39.7744 23.6521 39.4154V39.3641C23.7031 39.2102 23.8052 39.0564 23.9072 38.9538C24.0092 38.8512 24.1623 38.7486 24.3153 38.7486H24.3664C24.4684 38.7486 24.6214 38.7999 24.7235 38.9025C24.8255 38.9538 24.8765 39.1076 24.9786 39.2102C25.0806 39.4154 25.1316 39.7231 25.1316 39.9796C25.1316 40.2874 25.0296 40.5438 24.9275 40.749C24.8255 40.9029 24.7745 41.0054 24.6725 41.0567ZM25.1316 40.8003C25.0806 40.9029 24.9786 41.0054 24.8765 41.108C24.9275 41.0567 24.9786 40.9542 25.0296 40.8516C25.1826 40.5951 25.2336 40.2874 25.2336 39.9796C25.2336 39.6719 25.1826 39.3641 25.0296 39.1076C24.9786 39.0564 24.9786 39.0051 24.9275 38.9538C24.9786 39.0051 25.0806 39.1076 25.1316 39.2102C25.2336 39.4154 25.2847 39.7231 25.2847 39.9796C25.3357 40.2874 25.2847 40.5951 25.1316 40.8003Z" fill="#545454"/>
<path d="M20.6927 39.0049C20.5396 38.9024 20.4376 38.8511 20.2845 38.8511H20.0294H19.9784C19.7744 38.8511 19.6213 38.9537 19.4683 39.1075C19.3662 39.2101 19.2642 39.364 19.1622 39.5692C19.0091 39.9282 19.0091 40.3898 19.1111 40.8002C19.1622 41.0053 19.2642 41.2105 19.4172 41.3131C19.5703 41.467 19.7744 41.5696 19.9784 41.5696C19.9784 41.5696 19.9784 41.5696 20.0294 41.5696H20.1315C20.1825 41.5696 20.1825 41.5696 20.2335 41.5696C20.2335 41.5696 20.2335 41.5696 20.2845 41.5696C20.4376 41.5696 20.5906 41.5183 20.6927 41.4157C20.7947 41.3131 20.8967 41.2105 20.9988 41.0566C21.1518 40.8002 21.2028 40.4924 21.2028 40.1847C21.2028 39.8769 21.1518 39.5692 21.0498 39.3127C20.8967 39.2101 20.7947 39.1075 20.6927 39.0049ZM20.3355 41.3131C20.2335 41.4157 20.1315 41.467 19.9784 41.467C19.7744 41.467 19.6213 41.3644 19.5193 41.2618C19.4172 41.1592 19.3152 41.0053 19.2642 40.8002V40.7489C19.1622 40.3898 19.1622 39.9795 19.3152 39.6717C19.3662 39.5179 19.4683 39.364 19.5703 39.2614C19.6723 39.1588 19.7744 39.0562 19.9784 39.0562C19.9784 39.0562 19.9784 39.0562 20.0294 39.0562C20.0294 39.0562 20.0294 39.0562 20.0805 39.0562C20.1825 39.0562 20.2845 39.1075 20.3866 39.2101C20.4886 39.3127 20.5396 39.4153 20.6416 39.5179C20.7437 39.723 20.7947 40.0308 20.7947 40.2873C20.7947 40.5437 20.6927 40.8515 20.5906 41.0566C20.4886 41.1079 20.3866 41.2105 20.3355 41.3131ZM20.7947 41.0053C20.7437 41.1079 20.6416 41.2105 20.5396 41.3131C20.5906 41.2618 20.6416 41.1592 20.6927 41.0566C20.8457 40.8002 20.8967 40.4924 20.8967 40.1847C20.8967 39.8769 20.8457 39.5692 20.7437 39.3127C20.6927 39.2614 20.6927 39.2101 20.6416 39.1588C20.6927 39.2101 20.7947 39.3127 20.8457 39.4153C20.9477 39.6205 20.9988 39.9282 20.9988 40.1847C20.9988 40.5437 20.8967 40.8002 20.7947 41.0053Z" fill="#545454"/>
<path d="M35.5388 29.7725C35.5898 29.7725 35.5898 29.7725 35.6408 29.7725C35.7428 29.7212 35.7939 29.6699 35.7939 29.5673L36.5081 26.8489C36.5591 26.695 36.5081 26.5924 36.4571 26.4898C36.355 26.3359 36.304 26.3359 36.253 26.3359C36.202 26.3359 36.1 26.3872 36.0489 26.4385C35.9979 26.4898 35.9979 26.4898 35.9979 26.5411L35.2837 29.2596C35.2327 29.4135 35.2837 29.5673 35.3857 29.6699C35.3857 29.7212 35.4878 29.7725 35.5388 29.7725ZM35.4367 29.3109L36.151 26.5924C36.151 26.5411 36.151 26.5411 36.202 26.5411L36.253 26.4898C36.253 26.4898 36.304 26.4898 36.304 26.5411C36.355 26.5924 36.355 26.695 36.355 26.7463L35.6408 29.4647C35.6408 29.516 35.5898 29.5673 35.5898 29.5673C35.5388 29.5673 35.5388 29.5673 35.4878 29.5673C35.4367 29.516 35.3857 29.4135 35.4367 29.3109Z" fill="#545454"/>
<path d="M67.6283 22.0789C67.6283 22.0789 67.6793 22.0789 67.6283 22.0789C67.6793 22.0789 67.6793 22.0789 67.6793 22.0789H67.7302C67.7812 22.0789 67.7813 22.0789 67.8323 22.0789C67.8833 22.0789 67.9343 22.0789 68.0363 22.0789C68.1893 22.0789 68.2915 22.0789 68.4445 22.0276C68.4445 21.7712 68.4445 21.5147 68.4445 21.2583C68.3935 21.2583 68.3424 21.2583 68.2404 21.2583C68.2404 21.4634 68.2404 21.6686 68.2404 21.8738C68.0873 21.8738 67.9343 21.8738 67.7812 21.9251V21.3095C67.7303 21.3095 67.6792 21.3095 67.5771 21.3095C67.5771 21.4634 67.5771 21.566 67.5771 21.7199V21.9251V21.9763V22.0276C67.5771 22.0276 67.6283 22.0276 67.6283 22.0789Z" fill="#545454"/>
<path d="M72.6789 22.8481L73.036 22.7968V20.7964H72.7809L72.2197 21.1554V21.4119L72.6789 21.1554V22.8481Z" fill="#545454"/>
<path d="M65.2301 22.643C65.1791 22.643 65.1791 22.5918 65.128 22.5918C65.128 22.5918 65.128 22.5918 65.077 22.5918H65.026C64.975 22.5918 64.924 22.5918 64.8219 22.5918C64.7199 22.5918 64.5669 22.5918 64.4648 22.5918V22.7456C64.6689 22.7456 64.873 22.6943 65.077 22.6943V22.7969C64.924 22.7969 64.7709 22.7969 64.6179 22.8482H64.5669H64.5158C64.4648 22.8482 64.4648 22.8995 64.4648 22.9508C64.4648 23.0021 64.4648 23.0021 64.4648 23.0534V23.1047V23.156V23.2073C64.4648 23.2585 64.4648 23.3098 64.5158 23.3098H64.5669C64.6179 23.3098 64.7199 23.3098 64.7709 23.3098C64.924 23.3098 65.077 23.3098 65.2301 23.2585V22.8995V22.6943V22.643C65.2301 22.643 65.2811 22.6943 65.2301 22.643ZM65.128 23.2073L64.6689 23.2585V23.1047L65.128 23.0534V23.2073Z" fill="#545454"/>
<path d="M69.8729 21.7709C69.924 21.8222 69.9239 21.8735 69.975 21.8735C69.975 21.9248 70.026 21.9248 70.026 21.9761C69.7709 22.3351 69.5158 22.6942 69.2607 23.0532C69.4138 23.0532 69.5668 23.0532 69.7199 23.0019C69.975 22.6429 70.23 22.3351 70.4851 21.9761C70.4851 22.0274 70.5361 22.0274 70.5361 22.0787C70.5872 22.13 70.5872 22.1813 70.6382 22.1813C70.6892 22.2326 70.7402 22.3351 70.8423 22.4377C70.9443 22.5916 71.0973 22.7455 71.1994 22.8994C71.3524 22.8994 71.5055 22.8994 71.6585 22.8481C71.4034 22.5403 71.1484 22.2326 70.8933 21.8735L71.6585 20.7964C71.5055 20.7964 71.3524 20.7964 71.1994 20.8477C70.9443 21.2067 70.6892 21.5145 70.4851 21.8735C70.23 21.5658 69.975 21.258 69.7199 20.9503C69.5668 20.9503 69.4138 20.9503 69.2607 21.0016C69.4138 21.1554 69.5158 21.3093 69.6689 21.4632L69.8729 21.7709Z" fill="#545454"/>
<path d="M64.8227 22.2836H64.8738C64.9248 22.2836 65.0268 22.2836 65.0778 22.2836C65.2309 22.2836 65.3839 22.2836 65.537 22.2323V21.8733V21.6681V21.6168C65.537 21.5655 65.486 21.5655 65.486 21.5142C65.4349 21.5142 65.4349 21.4629 65.3839 21.4629C65.3839 21.4629 65.3839 21.4629 65.3329 21.4629H65.2819C65.2309 21.4629 65.1799 21.4629 65.0778 21.4629C64.9758 21.4629 64.8227 21.4629 64.7207 21.5142V21.7194C64.9248 21.7194 65.1288 21.6681 65.3329 21.6681V21.7707C65.1799 21.7707 64.8227 21.822 64.8227 21.822H64.7717C64.7207 21.822 64.7207 21.8733 64.7207 21.9246C64.7207 21.9759 64.7207 21.9759 64.7207 22.0271V22.0784V22.1297V22.181C64.7207 22.181 64.7717 22.2323 64.8227 22.2836ZM64.9248 21.9759L65.3839 21.9246V22.0784L64.9248 22.1297V21.9759Z" fill="#545454"/>
<path d="M123.339 72.2424L118.951 69.5239V81.3722L123.339 81.3212V72.2424Z" fill="#545454"/>
<path d="M123.39 62.4966L118.951 62.4453V68.3952L123.339 71.1136L123.39 62.4966Z" fill="#545454"/>
<path d="M118.288 71.6779V62.3941L113.798 62.2915V74.2938L118.288 71.6779Z" fill="#545454"/>
<path d="M118.237 81.3722L118.288 72.8066L113.798 75.4225V81.3722H118.237Z" fill="#545454"/>
<path d="M122.982 85.9878V83.4238H122.522V86.5528H124.206L124.053 85.9878H122.982Z" fill="#545454"/>
<path d="M126.195 84.0391H124.563L124.716 84.6041H126.195L126.247 84.6551V84.9631H124.92C124.665 84.9631 124.461 85.2701 124.461 85.6811V85.8861C124.461 86.2451 124.665 86.5531 124.92 86.5531H126.655V84.7571C126.655 84.3471 126.451 84.0391 126.195 84.0391ZM126.195 85.9881H124.869L124.818 85.9371V85.5781C124.818 85.5271 124.818 85.5271 124.869 85.5271H126.195V85.9881Z" fill="#545454"/>
<path d="M128.593 84.0388H127.522V83.4238H127.063V86.5528H127.522H128.593C128.849 86.5528 129.053 86.2448 129.053 85.8858V84.7568C129.002 84.3468 128.798 84.0388 128.593 84.0388ZM128.542 85.8858C128.542 85.9368 128.542 85.9368 128.491 85.9368H127.471V84.5518H128.491L128.542 84.6038V85.8858Z" fill="#545454"/>
<path d="M115.737 84.0908H113.391V86.6548H113.85V84.7568C113.85 84.7058 113.85 84.7058 113.901 84.7058H114.513L114.564 84.7568V86.6548H115.023V84.7568C115.023 84.7058 115.023 84.7058 115.074 84.7058H115.686C115.737 84.7058 115.737 84.7568 115.737 84.7568V86.6548H116.197V84.8088C116.197 84.3978 115.992 84.0908 115.737 84.0908Z" fill="#545454"/>
<path d="M120.584 85.9881C120.584 86.0401 120.584 86.0401 120.533 86.0401H119.411L119.36 85.9881V84.0911H118.9V85.9371C118.9 86.3471 119.104 86.6551 119.36 86.6041H120.482C120.737 86.6041 120.941 86.2961 120.941 85.8861V84.0391H120.533L120.584 85.9881Z" fill="#545454"/>
<path d="M112.472 84.0908H110.789L110.942 84.6548H112.472C112.523 84.6548 112.523 84.7058 112.523 84.7058V85.0138H111.146C110.891 85.0138 110.687 85.3218 110.687 85.7318V85.9368C110.687 86.3468 110.891 86.6548 111.146 86.6548H112.931V84.8088C112.931 84.3978 112.727 84.0908 112.472 84.0908ZM111.146 86.0908C111.095 86.0908 111.095 86.0398 111.095 86.0398V85.6808C111.095 85.6288 111.095 85.6288 111.146 85.6288H112.472V86.1418L111.146 86.0908Z" fill="#545454"/>
<path d="M118.135 84.0911H117.064V83.4751H116.604V86.6551H117.064H118.135C118.39 86.6551 118.594 86.3471 118.594 85.9371V84.8091C118.594 84.3981 118.39 84.0911 118.135 84.0911ZM118.135 85.9881C118.135 86.0401 118.135 86.0401 118.084 86.0401H117.064V84.6041H118.084L118.135 84.6551V85.9881Z" fill="#545454"/>
<path d="M107.932 82.9618V83.6288L108.442 83.3728V82.6548L107.932 82.9618Z" fill="#545454"/>
<path d="M110.074 85.014C110.176 84.86 110.227 84.655 110.227 84.398C110.227 83.988 110.023 83.629 109.819 83.475C109.717 83.424 109.564 83.373 109.462 83.373H109.411C109.309 83.373 108.85 83.373 108.442 83.373V83.937L107.982 84.193V86.655H109.717C110.074 86.655 110.329 86.245 110.329 85.732C110.329 85.424 110.227 85.168 110.074 85.014ZM108.442 83.937H109.003H109.462C109.513 83.937 109.513 83.937 109.564 83.988C109.666 84.039 109.717 84.193 109.717 84.347C109.717 84.347 109.717 84.398 109.717 84.45C109.717 84.552 109.666 84.655 109.564 84.706C109.513 84.706 109.513 84.757 109.462 84.757H108.952H108.442V83.937ZM109.513 86.142H109.105H108.442V85.27H109.156H109.309H109.564C109.615 85.27 109.666 85.322 109.717 85.373C109.768 85.424 109.819 85.578 109.819 85.732C109.819 85.937 109.666 86.142 109.513 86.142Z" fill="#545454"/>
<path d="M73.4441 81.0131V80.2441H73.291V81.2181H73.8522L73.8012 81.0131H73.4441Z" fill="#545454"/>
<path d="M74.4645 80.4492H73.9543L74.0054 80.6032H74.4645V80.7052H74.0564C73.9543 80.7052 73.9033 80.8082 73.9033 80.9112V80.9622C73.9033 81.0642 73.9543 81.1672 74.0564 81.1672H74.6176V80.6032C74.6176 80.5002 74.5665 80.4492 74.4645 80.4492ZM74.4645 81.0132H74.0564V80.9112H74.4645V81.0132Z" fill="#545454"/>
<path d="M74.8728 80.2441H74.7197V81.2181H74.8728H75.1789C75.2809 81.2181 75.3319 81.1161 75.3319 81.0131V80.6541C75.3319 80.5511 75.2809 80.4491 75.1789 80.4491H74.8728V80.2441ZM75.1789 80.6031C75.2299 80.6031 75.2299 80.6031 75.1789 80.6031V81.0131H74.8728V80.6031H75.1789Z" fill="#545454"/>
<path d="M71.148 80.3979H70.3828V81.1669H70.5358V80.5519H70.7399V81.1669H70.893V80.5519H71.097V81.1159H71.2501V80.5519C71.3011 80.4999 71.2501 80.3979 71.148 80.3979Z" fill="#545454"/>
<path d="M72.6791 81.0132H72.322V80.4492H72.1689V81.0132C72.1689 81.1162 72.22 81.2182 72.322 81.2182H72.6791C72.7811 81.2182 72.8322 81.1162 72.8322 81.0132V80.4492H72.6791V81.0132Z" fill="#545454"/>
<path d="M70.1278 80.3979H69.5666L69.6176 80.5519H70.1278V80.6539H69.6687C69.5666 80.6539 69.5156 80.7569 69.5156 80.8589V80.9109C69.5156 81.0129 69.5666 81.1159 69.6687 81.1159H70.2298V80.5519C70.2809 80.4999 70.1788 80.3979 70.1278 80.3979ZM69.6687 81.0129V80.8589H70.0768V81.0129H69.6687Z" fill="#545454"/>
<path d="M71.9135 80.3979H71.5564V80.1919H71.4033V81.1669H71.5564H71.9135C72.0155 81.1669 72.0665 81.0639 72.0665 80.9619V80.6029C72.0665 80.4999 72.0155 80.3979 71.9135 80.3979ZM71.9135 81.0129H71.5564V80.5509H71.8625L71.9135 81.0129Z" fill="#545454"/>
<path d="M68.6484 80.039V80.244L68.8015 80.141V79.936L68.6484 80.039Z" fill="#545454"/>
<path d="M69.3624 80.6538C69.4134 80.6028 69.4134 80.5508 69.4134 80.4488C69.4134 80.2948 69.3624 80.1918 69.2604 80.1408C69.2094 80.1408 69.1584 80.0898 69.1584 80.0898C69.1073 80.0898 68.9543 80.0898 68.8523 80.0898V80.2439L68.6992 80.3458V81.1158H69.2604C69.3624 81.1158 69.4645 80.9618 69.4645 80.8078C69.4134 80.8078 69.3624 80.7048 69.3624 80.6538ZM68.8012 80.3458H68.9543H69.1073C69.1073 80.3458 69.1073 80.3458 69.1584 80.3458C69.2094 80.3458 69.2094 80.3978 69.2094 80.4488C69.2094 80.4998 69.2094 80.4998 69.1584 80.5508C69.1584 80.5508 69.1584 80.5508 69.1073 80.5508H68.9543H68.8012V80.3458ZM69.1584 81.0128H69.0053H68.8012V80.7569H69.0053H69.0563H69.1584C69.1584 80.7569 69.2094 80.7568 69.2094 80.8078C69.2094 80.8078 69.2604 80.8589 69.2604 80.9109C69.2604 80.9619 69.2094 81.0128 69.1584 81.0128Z" fill="#545454"/>
<path d="M37.3756 13.5129C37.4266 13.5129 37.4266 13.5129 37.4776 13.5129C37.6817 13.5129 37.8858 13.5642 38.0388 13.6668L39.5693 14.5388C39.7734 14.6413 39.9264 14.8465 39.9774 15.0517C40.0795 15.2568 40.0795 15.462 40.0795 15.7185C40.0795 16.1288 39.9264 16.5904 39.8244 16.9495L38.9571 20.2322L48.8543 19.4628V19.155C48.6503 19.155 48.4462 19.1037 48.2932 19.1037C48.1911 19.1037 48.0891 19.0524 47.9871 19.0524C47.936 19.0524 47.885 19.0524 47.834 19.0012C47.783 19.0012 47.732 19.0012 47.732 18.9499C47.732 18.9499 47.681 18.9499 47.681 18.8986L47.6299 18.8473V18.1292C47.6299 18.1292 47.6299 18.0779 47.681 18.0266H47.732L47.783 17.9753H47.834C47.885 17.9753 47.936 17.924 47.9871 17.924C48.0891 17.924 48.1401 17.8727 48.2421 17.8727C48.3442 17.8727 48.4462 17.8214 48.5482 17.8214C48.8033 17.8214 49.0584 17.7702 49.3645 17.7702C49.8747 17.7702 50.3848 17.7189 50.997 17.7189C51.0991 17.7189 51.2011 17.7189 51.3542 17.7189C52.0684 17.7189 53.2418 17.7189 54.3131 17.8214C54.5682 17.8214 54.7213 17.8727 54.9253 17.8727C55.3845 17.924 55.4865 17.9753 55.5375 18.0266L55.5885 18.0779C55.6396 18.1292 55.6396 18.1292 55.6396 18.1805V19.0012L75.9442 17.4624C75.9952 17.4624 75.9952 17.4624 76.0462 17.5137C76.0972 17.5137 76.0972 17.4624 76.1482 17.4624L77.1686 17.4111C77.6277 17.3598 78.0869 17.3598 78.495 17.3085C78.6991 17.3085 78.9031 17.3085 79.1582 17.2572C79.4133 17.2572 79.6174 17.2572 79.8725 17.2572C80.332 17.2572 80.791 17.2572 81.199 17.2059C81.403 17.2059 81.658 17.2059 81.862 17.2059C82.015 17.2059 82.168 17.2059 82.321 17.2059H82.525C83.444 17.2059 84.311 17.2059 85.229 17.2572C85.484 17.2572 85.688 17.2572 85.943 17.3085C86.147 17.3085 86.352 17.3085 86.607 17.3598C87.066 17.3598 87.525 17.4111 87.933 17.4624L146.5 22.489C146.806 22.489 147.061 22.5403 147.367 22.5916C148.184 22.6942 148.286 22.7968 148.337 22.8481L148.388 22.8993L148.439 22.9506C148.439 23.0019 148.439 23.0019 148.439 23.0532L148.49 137.383C148.49 137.486 148.388 137.588 148.286 137.588C148.235 137.588 148.235 137.588 148.184 137.588L148.133 138.819V138.87C148.133 138.87 148.133 138.922 148.082 138.922C148.082 138.922 148.031 138.973 147.98 138.973C147.929 138.973 147.929 139.024 147.878 139.024C147.827 139.024 147.827 139.024 147.776 139.076C147.725 139.076 147.623 139.127 147.572 139.127C147.418 139.178 147.265 139.178 147.163 139.178C146.908 139.229 146.653 139.229 146.449 139.281V139.64C146.449 139.691 146.398 139.742 146.347 139.794C146.296 139.845 146.245 139.845 146.194 139.845C146.143 139.845 146.041 139.896 145.939 139.896C145.786 139.948 145.582 139.948 145.48 139.948C144.664 139.999 143.592 140.05 142.878 140.05C142.623 140.05 142.419 140.05 142.266 140.05C141.654 140.05 141.143 140.05 140.684 139.999C140.378 139.999 140.123 139.948 139.868 139.948C139.766 139.948 139.664 139.948 139.613 139.896C139.562 139.896 139.511 139.896 139.511 139.896L87.678 144.461C87.474 144.461 87.219 144.513 87.015 144.513C86.862 144.513 86.658 144.513 86.505 144.564V144.974C86.505 145.025 86.505 145.077 86.454 145.128C86.454 145.179 86.403 145.179 86.403 145.179C86.352 145.231 86.301 145.231 86.25 145.231C86.148 145.282 86.045 145.282 85.943 145.282C85.739 145.333 85.484 145.333 85.331 145.333C84.566 145.385 83.495 145.436 82.423 145.436C82.27 145.436 82.066 145.436 81.913 145.436C81.301 145.436 80.689 145.385 80.179 145.385C79.8214 145.385 79.5664 145.333 79.3113 145.333C79.2092 145.333 79.1072 145.333 79.0052 145.282C78.9031 145.282 78.8521 145.231 78.7501 145.231C78.6991 145.231 78.6481 145.179 78.597 145.179C78.546 145.179 78.546 145.128 78.495 145.128C78.444 145.077 78.444 145.025 78.444 145.025V144.615C78.0869 144.615 77.7808 144.564 77.4237 144.564L22.7338 140.255C22.7338 140.255 22.7338 140.255 22.6828 140.255C22.5808 140.255 22.4787 140.307 22.3767 140.307C22.1216 140.358 21.9176 140.358 21.7135 140.358H21.6625C21.5094 140.358 21.3564 140.358 21.2033 140.409C21.1523 140.409 21.1013 140.409 21.0503 140.409C20.8972 140.409 20.6932 140.409 20.5401 140.409C20.4891 140.409 20.4381 140.409 20.336 140.409C20.132 140.409 19.9789 140.409 19.8259 140.409C19.7238 140.409 19.6728 140.409 19.5708 140.409C19.4177 140.409 19.2647 140.409 19.1627 140.409C19.0606 140.409 19.0096 140.409 18.9076 140.409C18.8055 140.409 18.7035 140.409 18.6015 140.409C18.0403 140.409 17.5301 140.409 17.071 140.358C16.7649 140.358 16.5098 140.307 16.3057 140.307C16.2037 140.307 16.1017 140.307 16.0506 140.255C15.9996 140.255 15.8976 140.255 15.8466 140.204C15.7956 140.204 15.7445 140.153 15.6935 140.153L15.6425 140.101C15.6425 140.101 15.5915 140.05 15.5915 139.999V139.948V139.589C15.3874 139.589 15.1834 139.537 14.9793 139.537C14.8262 139.537 14.6732 139.486 14.5201 139.486C14.4181 139.486 14.3671 139.435 14.2651 139.435C14.214 139.435 14.214 139.435 14.163 139.383C14.112 139.383 14.112 139.383 14.061 139.332C14.061 139.332 14.01 139.281 13.959 139.281C13.9079 139.229 13.9079 139.178 13.9079 139.127L13.8569 137.896C13.8059 137.896 13.8059 137.896 13.7549 137.896C13.6529 137.896 13.5508 137.793 13.5508 137.691V35.1581L12.0203 34.3374C11.9183 34.2862 11.8163 34.2349 11.7652 34.1323C11.7142 34.0297 11.6632 33.9271 11.6122 33.8245C11.5102 33.6194 11.5102 33.4142 11.5102 33.1577C11.5102 32.7474 11.6632 32.2858 11.7652 31.8754L13.5508 25.2075V22.5916C13.5508 22.5403 13.5508 22.5403 13.5508 22.489C13.5508 22.489 13.6018 22.4377 13.6018 22.3864C13.7039 22.2838 13.8569 22.2325 14.3161 22.1813L15.4895 17.8214C15.5915 17.5137 15.6425 17.2059 15.7956 16.8469C15.9486 16.4879 16.1017 16.1801 16.3057 15.9749C16.4078 15.8211 16.5098 15.7185 16.6628 15.6159C16.8159 15.5133 16.9179 15.4107 17.122 15.3081C17.4281 15.1543 17.7852 15.103 18.1423 15.103L36.9165 13.5129C37.0695 13.5129 37.2226 13.5129 37.3756 13.5129ZM37.3756 13C37.1715 13 37.0185 13 36.8654 13.0513L18.0913 14.6413C17.6832 14.6926 17.3261 14.6926 16.9179 14.8978C16.7139 15.0004 16.5608 15.103 16.3567 15.2568C16.2037 15.4107 16.0506 15.5133 15.9486 15.7185C15.7445 16.0262 15.5405 16.334 15.3874 16.7443C15.2344 17.1034 15.1834 17.4624 15.0813 17.7702L14.01 21.8222C13.6529 21.8735 13.4998 21.9761 13.3468 22.13C13.2447 22.1813 13.1937 22.3351 13.1937 22.3351C13.0917 22.3864 13.0407 22.5403 13.0407 22.6429V25.1562L11.2551 31.7729C11.153 32.1832 11 32.6961 11 33.1577C11 33.4655 11 33.7732 11.102 34.0297C11.153 34.1836 11.2551 34.3374 11.3571 34.4913C11.4591 34.6452 11.6122 34.7478 11.8163 34.8504L13.0407 35.4659L12.9896 137.742C12.9896 137.998 13.1427 138.204 13.3468 138.358L13.3978 139.229V139.281V139.332C13.3978 139.486 13.4998 139.589 13.6018 139.691C13.6529 139.742 13.7549 139.845 13.8059 139.845C13.8569 139.896 13.9079 139.896 13.959 139.896C14.01 139.896 14.061 139.948 14.112 139.948C14.214 139.999 14.3161 139.999 14.4181 139.999C14.5712 140.05 14.7242 140.05 14.9283 140.101C14.9793 140.101 15.0303 140.101 15.0813 140.101C15.0813 140.153 15.0813 140.204 15.1323 140.255C15.1323 140.307 15.1834 140.409 15.2854 140.512C15.3364 140.563 15.3874 140.614 15.4895 140.666C15.5915 140.717 15.6935 140.717 15.7445 140.768C15.8466 140.768 15.8976 140.82 15.9996 140.82C16.1017 140.82 16.2037 140.871 16.3057 140.871C16.5608 140.871 16.8159 140.922 17.122 140.922C17.5811 140.922 18.0913 140.973 18.7035 140.973H19.0096H19.1627C19.2647 140.973 19.4177 140.973 19.5708 140.973H19.8259C19.9789 140.973 20.183 140.973 20.336 140.973H20.4891H20.5401C20.6932 140.973 20.8972 140.973 21.0503 140.973H21.1523H21.2033C21.3564 140.973 21.5094 140.973 21.6625 140.922H21.7135H21.7645C21.9686 140.922 22.1726 140.871 22.4277 140.871C22.5298 140.871 22.6318 140.82 22.7338 140.82L77.3726 145.077C77.5767 145.077 77.7298 145.128 77.9338 145.128V145.179L77.9848 145.231C78.0359 145.333 78.0869 145.436 78.1379 145.487C78.1889 145.538 78.2909 145.59 78.342 145.641C78.444 145.692 78.546 145.744 78.597 145.744C78.6991 145.744 78.8011 145.795 78.9031 145.795C79.0052 145.795 79.1072 145.846 79.2603 145.846C79.5153 145.897 79.7704 145.897 80.128 145.897C80.638 145.949 81.25 145.949 81.862 145.949C82.066 145.949 82.219 145.949 82.423 145.949C83.546 145.949 84.617 145.897 85.382 145.846C85.586 145.846 85.79 145.795 86.045 145.795C86.199 145.795 86.301 145.744 86.403 145.744C86.505 145.744 86.607 145.692 86.658 145.641C86.76 145.59 86.811 145.538 86.862 145.487C86.964 145.384 87.015 145.231 87.015 145.077H87.066C87.27 145.077 87.525 145.025 87.729 145.025L139.511 140.46H139.562C139.664 140.46 139.766 140.46 139.868 140.512C140.123 140.512 140.378 140.563 140.684 140.563C141.194 140.614 141.705 140.614 142.317 140.614C142.419 140.614 142.674 140.614 142.929 140.614C143.643 140.614 144.715 140.614 145.582 140.512C145.684 140.512 145.888 140.46 146.092 140.46C146.194 140.46 146.296 140.409 146.398 140.409C146.449 140.409 146.551 140.358 146.653 140.307C146.806 140.204 146.959 139.999 146.959 139.794C147.061 139.794 147.163 139.794 147.265 139.742C147.418 139.742 147.572 139.691 147.725 139.64C147.827 139.64 147.929 139.589 147.98 139.589C148.031 139.589 148.082 139.537 148.133 139.537C148.184 139.537 148.235 139.486 148.286 139.435C148.337 139.383 148.439 139.332 148.49 139.281C148.541 139.229 148.541 139.178 148.592 139.127V139.076V139.024C148.592 138.973 148.643 138.922 148.643 138.819L148.694 137.947C148.898 137.793 149 137.588 149 137.332L148.949 23.0019C148.949 22.8993 148.949 22.7968 148.898 22.6942C148.847 22.5916 148.796 22.5403 148.745 22.489L148.694 22.4377C148.541 22.2838 148.235 22.13 147.469 22.0274C147.163 21.9761 146.857 21.9761 146.602 21.9248L87.984 16.8982C87.525 16.8469 87.066 16.8469 86.607 16.7956C86.403 16.7956 86.199 16.7956 85.943 16.7443C85.688 16.7443 85.484 16.7443 85.229 16.693C84.311 16.6417 83.444 16.6417 82.525 16.6417H82.423H82.321C82.168 16.6417 82.015 16.6417 81.862 16.6417C81.658 16.6417 81.403 16.6417 81.199 16.6417C80.74 16.6417 80.281 16.6417 79.8214 16.693C79.5664 16.693 79.3623 16.693 79.1072 16.693C78.9031 16.693 78.6991 16.693 78.444 16.7443C77.9848 16.7443 77.5257 16.7956 77.0665 16.8469L76.0972 16.8982C76.0462 16.8982 76.0462 16.8982 75.9952 16.8982H75.9442H75.8932L56.1497 18.3857V18.1292C56.1497 18.0266 56.1497 17.924 56.0987 17.8727V17.8214L55.9967 17.7189L55.8946 17.6163C55.7416 17.5137 55.4865 17.4111 55.0274 17.3598C54.8233 17.3598 54.6702 17.3085 54.4152 17.3085C53.3438 17.2059 52.0684 17.2059 51.4052 17.2059C51.2521 17.2059 51.1501 17.2059 51.0481 17.2059C50.4359 17.2059 49.8747 17.2059 49.3645 17.2572C49.0074 17.2572 48.7523 17.3085 48.4972 17.3085C48.3952 17.3085 48.2932 17.3085 48.1401 17.3598C48.0381 17.3598 47.936 17.4111 47.885 17.4111C47.834 17.4111 47.732 17.4624 47.6299 17.4624C47.5789 17.4624 47.5279 17.5137 47.5279 17.5137H47.4769L47.3749 17.6163L47.3238 17.6676L47.2728 17.7189V17.7702C47.2218 17.8727 47.1708 17.9753 47.1708 18.1292V18.8986C47.1708 19.0012 47.1708 19.0524 47.2218 19.155L39.7224 19.7192L40.3346 17.1034L40.3856 16.9495C40.4876 16.5904 40.5896 16.1801 40.5896 15.7698C40.5896 15.462 40.5896 15.1543 40.4876 14.9491C40.3856 14.5901 40.1305 14.2823 39.8244 14.1284L38.2939 13.2565C38.0898 13.1026 37.8347 13 37.5287 13C37.4776 13 37.4266 13 37.3756 13Z" fill="#545454"/>
<g opacity="0.2">
<g opacity="0.2">
<path opacity="0.2" d="M13.6528 32.9527L14.418 32.9014L30.9984 31.8755L32.1718 31.8242C32.3759 31.8242 32.5289 31.6704 32.5799 31.5165L33.0391 29.7213L36.3552 17.0009L36.7633 15.5647C36.8143 15.4108 36.7633 15.2569 36.6613 15.1544C36.5592 15.0518 36.4062 15.0005 36.3041 15.0005L35.4879 15.1031L18.9075 16.488L17.7851 16.5905C17.581 16.5905 17.428 16.7444 17.377 16.8983L16.9178 18.6422L13.6017 31.0036L13.2446 32.3885C13.1936 32.5423 13.2446 32.6962 13.3467 32.7988C13.3977 32.9014 13.5507 32.9527 13.6528 32.9527ZM27.3252 23.0533C27.3762 23.1046 27.3762 23.1559 27.3252 23.1559L25.0295 25.3102H24.9785C24.9785 25.3102 24.9274 25.3102 24.9274 25.2589C24.8764 25.2076 24.8764 25.1563 24.9274 25.1563L27.2232 23.002C27.2232 23.002 27.2742 23.002 27.3252 23.0533ZM21.6114 25.464L26.3559 20.7452C26.4069 20.6939 26.4579 20.6939 26.4579 20.7452C26.5089 20.7965 26.5089 20.8478 26.4579 20.8478L21.7134 25.5666H21.6624H21.6114C21.5603 25.5153 21.5603 25.464 21.6114 25.464Z" fill="#D8D8D8"/>
</g>
</g>
<g opacity="0.2">
<g opacity="0.2">
<path opacity="0.2" d="M67.2707 21.5142L66.8115 21.5655V21.9758L67.2707 21.9245V21.5142Z" fill="#D8D8D8"/>
</g>
</g>
<g opacity="0.2">
<g opacity="0.2">
<path opacity="0.2" d="M64.6191 23.2071H65.1292V23.0532L64.6191 23.1045V23.2071Z" fill="#D8D8D8"/>
</g>
</g>
<g opacity="0.2">
<g opacity="0.2">
<path opacity="0.2" d="M48.1396 18.6424C48.2416 18.6424 48.3946 18.5911 48.4967 18.5911C48.7518 18.5911 49.0068 18.5398 49.3129 18.5398C49.8231 18.4886 50.3843 18.4886 50.9965 18.4886C52.2209 18.4886 53.4453 18.5398 54.3636 18.5911C54.3636 18.5911 54.3636 18.5911 54.4146 18.5911V19.0015L55.4349 18.8989V18.0782L55.3839 18.0269C55.3839 18.0269 55.2819 17.9756 54.8738 17.9243C54.7207 17.9243 54.5166 17.873 54.2616 17.873C53.0372 17.7705 51.5577 17.7705 50.9965 17.7705C50.3843 17.7705 49.8741 17.7705 49.364 17.8218C49.0579 17.8218 48.8028 17.873 48.5477 17.873C48.4457 17.873 48.3436 17.873 48.2416 17.9243C48.1396 17.9243 48.0886 17.9243 47.9865 17.9756C47.9355 17.9756 47.8845 17.9756 47.8335 18.0269H47.7824L47.7314 18.0782V18.6424C47.7825 18.6424 47.7824 18.6424 47.8335 18.6424C47.9865 18.6937 48.0886 18.6937 48.1396 18.6424Z" fill="#D8D8D8"/>
</g>
</g>
<g opacity="0.2">
<g opacity="0.2">
<path opacity="0.2" d="M49.0068 19.514L54.3126 19.1036V18.7959L49.0068 19.2062V19.514Z" fill="#D8D8D8"/>
</g>
</g>
<g opacity="0.2">
<g opacity="0.2">
<path opacity="0.2" d="M53.0894 18.6934C52.4261 18.6934 51.7629 18.6421 51.0487 18.6421C50.4365 18.6421 49.8753 18.6421 49.3651 18.6934C49.059 18.6934 48.7529 18.7447 48.5489 18.7447C48.4468 18.7447 48.2938 18.7447 48.1918 18.796C48.0897 18.796 48.0387 18.796 47.9367 18.8473H47.8857C47.9367 18.8473 47.9877 18.8473 48.0387 18.8985C48.1407 18.8985 48.2428 18.9498 48.3448 18.9498C48.4979 18.9498 48.7019 19.0011 48.957 19.0011L53.0894 18.6934Z" fill="#D8D8D8"/>
</g>
</g>
<g opacity="0.2">
<g opacity="0.2">
<path opacity="0.2" d="M65.5361 23.1559L65.9953 23.1046V22.7456H65.5361V23.1559Z" fill="#D8D8D8"/>
</g>
</g>
<g opacity="0.2">
<g opacity="0.2">
<path opacity="0.2" d="M64.4142 21.6685C64.4142 21.6172 64.4142 21.6172 64.4142 21.6172V21.5659H64.3632H64.3122C64.2611 21.5659 64.2611 21.5659 64.2101 21.5659C64.0571 21.5659 63.904 21.5659 63.751 21.6172V21.8223C63.955 21.8223 64.2101 21.771 64.4142 21.771V21.6685Z" fill="#D8D8D8"/>
</g>
</g>
<g opacity="0.2">
<g opacity="0.2">
<path opacity="0.2" d="M36.916 28.2338L39.4158 28.0799C39.5689 28.0799 39.7729 28.0286 39.926 27.9261C39.824 27.9773 39.6709 28.0286 39.5689 28.0286C39.5179 28.0286 39.4158 28.0286 39.3648 28.0286C39.1607 28.0286 38.9567 27.9773 38.7526 27.8748C38.4975 27.7722 38.2935 27.6183 38.0894 27.3618C37.7833 27.0541 37.5792 26.6438 37.4262 26.1821L36.916 28.2338Z" fill="#D8D8D8"/>
</g>
</g>
<g opacity="0.2">
<g opacity="0.2">
<path opacity="0.2" d="M14.0098 22.7456V23.6688L14.2648 22.6943C14.1118 22.6943 14.0608 22.7456 14.0098 22.7456Z" fill="#D8D8D8"/>
</g>
</g>
<g opacity="0.2">
<g opacity="0.2">
<path opacity="0.2" d="M39.5694 22.6943C39.4673 22.643 39.3143 22.643 39.2122 22.5918C39.1612 22.5918 39.0592 22.5918 39.0082 22.5918L38.345 22.643L38.2939 22.8995C38.6 22.6943 38.9061 22.5918 39.2633 22.643C39.3653 22.643 39.4673 22.643 39.5694 22.6943Z" fill="#D8D8D8"/>
</g>
</g>
<g opacity="0.2">
<g opacity="0.2">
<path opacity="0.2" d="M37.4775 25.9257C37.5796 26.4386 37.8347 26.9515 38.1408 27.3106C38.3448 27.5158 38.5489 27.6696 38.753 27.7722C39.008 27.8748 39.2631 27.9261 39.4672 27.8748C39.7223 27.8235 39.9263 27.7209 40.1304 27.567C40.3345 27.4132 40.4875 27.208 40.6406 27.0028C40.8956 26.5925 40.9977 26.0283 40.9977 25.5154C40.9977 25.105 40.9467 24.6947 40.7936 24.3357C40.6406 23.9253 40.4365 23.6176 40.1814 23.3098C39.9774 23.1046 39.6202 22.8482 39.1611 22.7969C38.804 22.7456 38.4469 22.8995 38.1408 23.1559L37.4775 25.9257Z" fill="#D8D8D8"/>
</g>
</g>
<g opacity="0.2">
<g opacity="0.2">
<path opacity="0.2" d="M64.4652 21.9248C64.3632 21.9248 64.3122 21.9248 64.2101 21.9248C64.0571 21.9248 63.904 21.9248 63.751 21.9761V22.1813C64.0061 22.1813 64.2101 22.13 64.4652 22.13V22.0274V21.9248C64.4652 21.9761 64.4652 21.9761 64.4652 21.9248Z" fill="#D8D8D8"/>
</g>
</g>
<g opacity="0.2">
<g opacity="0.2">
<path opacity="0.2" d="M38.396 22.4893L39.0082 22.438C39.1102 22.438 39.1612 22.438 39.2633 22.438C39.5694 22.438 39.8755 22.5918 40.1816 22.797C40.4366 22.9509 40.6407 23.2073 40.8448 23.5151C41.1509 24.028 41.3549 24.6948 41.406 25.3103C41.457 25.9771 41.3039 26.6439 40.9978 27.1568C40.8448 27.4646 40.6407 27.721 40.3856 27.8749C40.1305 28.0801 39.7734 28.1827 39.4673 28.234L36.9165 28.3878L36.1512 31.3628C36.0492 31.6705 35.9982 32.0296 35.8451 32.3886C35.6921 32.7476 35.539 33.0554 35.335 33.3119C35.2329 33.4657 35.0799 33.5683 34.9779 33.7222C34.8248 33.8248 34.6718 33.9274 34.5187 34.0299C34.3657 34.0812 34.2126 34.1325 34.0085 34.1838C33.8045 34.2351 33.6514 34.2351 33.4984 34.2351L16.918 35.2097V38.2872L75.8932 35.0558V17.9243L38.8551 20.694L38.396 22.4893ZM65.2817 22.797V23.0022V23.3612C65.1287 23.3612 64.9756 23.3612 64.8226 23.4125C64.7716 23.4125 64.6695 23.4125 64.6185 23.4125H64.5675C64.5165 23.4125 64.5165 23.3099 64.5165 23.3099V23.2586V23.2073V23.156C64.5165 23.1048 64.5165 23.1048 64.5165 23.0535C64.5165 23.0022 64.5675 23.0022 64.5675 22.9509H64.6185H64.6695C64.8226 22.9509 64.9756 22.9509 65.1287 22.8996V22.797C64.9246 22.797 64.7206 22.8483 64.5165 22.8483V22.6944C64.6185 22.6944 64.7716 22.6944 64.8736 22.6944C64.9246 22.6944 64.9756 22.6944 65.0777 22.6944H65.1287C65.1287 22.6944 65.1287 22.6944 65.1797 22.6944C65.2307 22.6944 65.2307 22.6944 65.2817 22.7457C65.3328 22.7457 65.3328 22.797 65.3328 22.8483C65.2817 22.7457 65.2817 22.7457 65.2817 22.797ZM66.2 23.0022V23.0535C66.2 23.1048 66.2 23.2073 66.149 23.2586L66.098 23.3099C66.098 23.3099 66.098 23.3099 66.047 23.3099H65.996C65.945 23.3099 65.9449 23.3099 65.8939 23.3099C65.7409 23.3099 65.5368 23.3099 65.3838 23.3612V22.438C65.4348 22.438 65.4858 22.438 65.5368 22.438V22.5918H65.7919C65.8429 22.5918 65.8939 22.5918 65.8939 22.5918H65.9449C65.9449 22.5918 65.945 22.5918 65.996 22.5918H66.047C66.098 22.5918 66.098 22.6431 66.149 22.6431C66.149 22.6944 66.2 22.7457 66.2 22.797V23.0022ZM72.22 21.1557L72.7812 20.7966H72.9852V22.797H72.6281V21.1044L72.169 21.3608V21.1557H72.22ZM69.7202 21.0018C69.9753 21.3095 70.2303 21.6173 70.4854 21.925C70.7405 21.566 70.9956 21.2582 71.1997 20.8992C71.3527 20.8992 71.5058 20.8992 71.6588 20.8479L70.8936 21.925C71.1486 22.2328 71.4037 22.5405 71.6588 22.8996C71.5058 22.8996 71.3527 22.8996 71.1997 22.9509C71.0976 22.797 70.9446 22.6431 70.8425 22.4893C70.7915 22.3867 70.7405 22.3354 70.6385 22.2328C70.5875 22.1815 70.5875 22.1815 70.5364 22.1302C70.5364 22.0789 70.4854 22.0789 70.4854 22.0276C70.2303 22.3867 69.9753 22.6944 69.7202 23.0535C69.5671 23.0535 69.4141 23.0535 69.261 23.1048C69.5161 22.7457 69.7712 22.3867 70.0263 22.0276C70.0263 21.9763 69.9753 21.9763 69.9753 21.925C69.9242 21.8738 69.9242 21.8225 69.8732 21.8225L69.6692 21.566C69.5161 21.4121 69.4141 21.2582 69.261 21.1044C69.4141 21.0531 69.5671 21.0531 69.7202 21.0018ZM67.5775 21.925V21.7199C67.5775 21.566 67.5775 21.4634 67.5775 21.3095C67.6285 21.3095 67.6795 21.3095 67.7815 21.3095V21.925C67.9346 21.925 68.0876 21.925 68.2407 21.8738C68.2407 21.6686 68.2407 21.4634 68.2407 21.2582C68.2917 21.2582 68.3427 21.2582 68.4448 21.2582C68.4448 21.5147 68.4448 21.7712 68.4448 22.0276C68.3427 22.0276 68.1897 22.0276 68.0366 22.0789C67.9856 22.0789 67.8836 22.0789 67.8326 22.0789C67.7815 22.0789 67.7815 22.0789 67.7305 22.0789H67.6795H67.6285C67.5775 22.0789 67.5775 22.0276 67.5775 21.9763V21.925ZM66.6592 21.2582C66.7102 21.2582 66.7612 21.2582 66.8122 21.2582V21.4121C66.9143 21.4121 66.9653 21.4121 67.0673 21.4121C67.1183 21.4121 67.1693 21.4121 67.1693 21.4121H67.2204C67.2204 21.4121 67.2204 21.4121 67.2714 21.4121H67.3224C67.3734 21.4121 67.3734 21.4634 67.4244 21.4634C67.4244 21.5147 67.4754 21.566 67.4754 21.6173C67.4754 21.7199 67.4754 21.7712 67.4754 21.8738V21.925C67.4754 21.9763 67.4754 22.0789 67.4244 22.1302L67.3734 22.1815H67.3224H67.2714C67.2204 22.1815 67.2204 22.1815 67.1693 22.1815C67.0163 22.1815 66.8122 22.1815 66.6592 22.2328V21.2582ZM65.6388 21.4634C65.8939 21.4634 66.149 21.4121 66.4551 21.4121C66.5061 21.4121 66.5061 21.4121 66.5572 21.4634C66.5572 21.5147 66.6082 21.5147 66.6082 21.566V21.6173V21.6686V21.7712C66.6082 21.925 66.6082 22.0276 66.6082 22.1815C66.5571 22.1815 66.5061 22.1815 66.4041 22.1815C66.4041 21.9763 66.4041 21.7712 66.4041 21.6173C66.3531 21.6173 66.3021 21.6173 66.2 21.6173C66.2 21.8225 66.2 22.0276 66.2 22.1815H65.996V21.6173C65.945 21.6173 65.8939 21.6173 65.7919 21.6173C65.7919 21.8225 65.7919 22.0276 65.7919 22.1815C65.7409 22.1815 65.6899 22.1815 65.5878 22.1815V21.4634H65.6388ZM64.7206 22.0276C64.7206 21.9763 64.7206 21.925 64.7206 21.8738C64.7206 21.8225 64.7716 21.8225 64.7716 21.7712H64.8226C64.8226 21.7712 65.1797 21.7199 65.3328 21.7199V21.6173C65.1287 21.6173 64.9246 21.6686 64.7206 21.6686V21.5147C64.8226 21.5147 64.9756 21.5147 65.0777 21.4634C65.1287 21.4634 65.1797 21.4634 65.2817 21.4634H65.3328C65.3328 21.4634 65.3327 21.4634 65.3838 21.4634C65.4348 21.4634 65.4348 21.4634 65.4858 21.5147C65.5368 21.5147 65.5368 21.566 65.5368 21.6173V21.6686V21.8738V22.2328C65.3838 22.2328 65.2307 22.2328 65.0777 22.2841C65.0267 22.2841 64.9246 22.2841 64.8736 22.2841H64.8226C64.7716 22.2841 64.7716 22.1815 64.7716 22.1815C64.7206 22.1302 64.7206 22.1302 64.7206 22.0276ZM63.5982 21.4634C63.8023 21.4634 64.4655 21.4121 64.5165 21.4121C64.5165 21.4121 64.5165 21.4121 64.5675 21.4121C64.6185 21.4121 64.6185 21.4121 64.6185 21.4634C64.6185 21.5147 64.6695 21.5147 64.6695 21.566V21.6173V21.7712C64.7205 21.8225 64.7206 21.8738 64.7206 21.8738V22.0276V22.2841C64.3634 22.3354 64.0063 22.3354 63.6492 22.3867C63.5982 22.0789 63.5982 21.7712 63.5982 21.4634ZM63.5982 23.2586V23.156C63.5982 23.1048 63.5982 23.0022 63.5982 22.9509V22.5405H63.8023V23.2586C63.8023 23.2586 63.8023 23.2586 63.8023 23.3099H63.9043C63.9553 23.3099 64.0063 23.3099 64.0573 23.3099C64.1594 23.3099 64.2614 23.3099 64.4144 23.3099V23.4638C64.2614 23.4638 64.1594 23.4638 64.0063 23.5151C63.9553 23.5151 63.8533 23.5151 63.8023 23.5151H63.7512H63.7002C63.6492 23.5151 63.6492 23.4638 63.6492 23.4638C63.5982 23.3612 63.5982 23.3099 63.5982 23.2586Z" fill="#D8D8D8"/>
</g>
</g>
<g opacity="0.2">
<g opacity="0.2">
<path opacity="0.2" d="M16.7649 138.05C16.7649 138.101 16.7649 138.152 16.7139 138.152L75.8932 142.666C75.8932 142.615 75.8932 142.615 75.8932 142.563V135.177L16.7649 131.228V138.05Z" fill="#D8D8D8"/>
</g>
</g>
<g opacity="0.2">
<g opacity="0.2">
<path opacity="0.2" d="M24.979 38.9536C25.03 39.0049 25.03 39.0562 25.081 39.1075C25.1831 39.364 25.2851 39.6717 25.2341 39.9795C25.2341 40.2872 25.132 40.595 25.03 40.8514C24.979 40.954 24.928 41.0053 24.877 41.1079C24.979 41.0566 25.081 40.954 25.132 40.8001C25.2341 40.595 25.3361 40.2872 25.3361 40.0307C25.3361 39.723 25.2851 39.4665 25.1831 39.2614C25.132 39.1075 25.081 39.0562 24.979 38.9536Z" fill="#D8D8D8"/>
</g>
</g>
<g opacity="0.2">
<g opacity="0.2">
<path opacity="0.2" d="M25.131 39.9795C25.131 39.6718 25.08 39.4153 24.978 39.2102C24.927 39.1076 24.8249 38.9537 24.7229 38.9024C24.6209 38.7998 24.5188 38.7485 24.3658 38.7485H24.3148C24.1107 38.7485 24.0087 38.8511 23.9066 38.9537C23.8046 39.0563 23.7026 39.2102 23.6515 39.364V39.4153C23.5495 39.7231 23.4985 40.1334 23.6005 40.4925V40.5438C23.6515 40.6976 23.7026 40.8515 23.8556 41.0054C23.9576 41.108 24.1107 41.2105 24.3148 41.2105C24.4168 41.2105 24.5698 41.1593 24.6719 41.0567C24.7739 41.0054 24.8759 40.9028 24.927 40.7489C25.029 40.5438 25.08 40.2873 25.131 39.9795Z" fill="#D8D8D8"/>
</g>
</g>
<g opacity="0.2">
<g opacity="0.2">
<path opacity="0.2" d="M20.6421 39.21C20.6931 39.2613 20.6931 39.3126 20.7441 39.3639C20.8461 39.6203 20.9482 39.9281 20.8972 40.2358C20.8972 40.5436 20.7951 40.8513 20.6931 41.1078C20.6421 41.2104 20.5911 41.2617 20.54 41.3643C20.6421 41.313 20.6931 41.2104 20.7951 41.0565C20.8972 40.8513 20.9992 40.5436 20.9992 40.2871C20.9992 39.9794 20.9482 39.7229 20.8461 39.5178C20.7951 39.3639 20.7441 39.2613 20.6421 39.21Z" fill="#D8D8D8"/>
</g>
</g>
<g opacity="0.2">
<g opacity="0.2">
<path opacity="0.2" d="M24.7743 128.868C24.7233 128.817 24.6723 128.766 24.5702 128.817C24.4172 128.817 24.3152 128.971 24.2641 129.074C24.2131 129.176 24.1621 129.381 24.1621 129.535C24.1621 129.74 24.2131 129.894 24.2641 130.048C24.3152 130.151 24.3662 130.202 24.4172 130.253C24.4682 130.305 24.5192 130.305 24.6213 130.305C24.7743 130.305 24.8763 130.151 24.9274 130.048C24.9784 129.946 25.0294 129.74 25.0294 129.587C25.0294 129.381 24.9784 129.227 24.9274 129.074C24.8763 128.971 24.8253 128.92 24.7743 128.868Z" fill="#D8D8D8"/>
</g>
</g>
<g opacity="0.2">
<g opacity="0.2">
<path opacity="0.2" d="M20.7442 40.2359C20.7442 39.9795 20.6932 39.6717 20.5911 39.4666C20.5401 39.364 20.4381 39.2614 20.3361 39.1588C20.234 39.0562 20.132 39.0049 20.03 39.0049C20.03 39.0049 20.03 39.0049 19.9789 39.0049C19.9789 39.0049 19.9789 39.0049 19.9279 39.0049C19.7749 39.0049 19.6218 39.1075 19.5198 39.2101C19.4178 39.3127 19.3157 39.4666 19.2647 39.6204C19.1117 39.9795 19.1117 40.3385 19.2137 40.6976V40.7488C19.2647 40.954 19.3667 41.1079 19.4688 41.2105C19.5708 41.3131 19.7239 41.4156 19.9279 41.4156C20.03 41.4156 20.132 41.3644 20.285 41.2618C20.3871 41.2105 20.4381 41.1079 20.5401 40.954C20.6932 40.8001 20.7442 40.4924 20.7442 40.2359Z" fill="#D8D8D8"/>
</g>
</g>
<g opacity="0.2">
<g opacity="0.2">
<path opacity="0.2" d="M75.7404 78.8076C75.7404 78.8076 75.7915 78.8076 75.7915 78.8589C75.9956 78.9615 76.1485 79.1667 76.2505 79.3718C76.4546 79.7309 76.6077 80.192 76.6077 80.705C76.6077 81.167 76.5056 81.629 76.2505 82.039C76.0975 82.244 75.9445 82.449 75.7915 82.552C75.7405 82.552 75.7405 82.603 75.6895 82.603C75.7405 82.603 75.7914 82.603 75.8934 82.552C75.8934 82.449 75.9955 82.347 76.0975 82.347C76.1485 82.347 76.1995 82.347 76.1995 82.398C76.1995 82.398 76.1995 82.398 76.2505 82.398C76.4036 82.295 76.5567 82.142 76.6588 81.936C76.8628 81.577 76.9649 81.167 76.9649 80.705C76.9649 80.244 76.8628 79.8335 76.6588 79.4744C76.5567 79.2692 76.4036 79.1154 76.2505 79.0128C76.2505 79.0128 76.2505 79.0128 76.1995 79.0128C76.1485 79.0128 76.1485 79.0641 76.0975 79.0641C75.9955 79.0641 75.8934 79.0128 75.8934 78.9102C75.8424 78.8076 75.7914 78.8076 75.7404 78.8076Z" fill="#D8D8D8"/>
</g>
</g>
<g opacity="0.2">
<g opacity="0.2">
<path opacity="0.2" d="M20.4384 128.561C20.3874 128.51 20.3364 128.51 20.2343 128.51C20.0813 128.51 19.9792 128.663 19.9282 128.766C19.8772 128.869 19.8262 129.022 19.8262 129.228C19.8262 129.433 19.8772 129.587 19.9282 129.741C19.9792 129.843 20.0303 129.894 20.0813 129.946C20.1323 129.997 20.1833 130.048 20.2853 129.997C20.4384 129.997 20.5404 129.843 20.5914 129.741C20.6425 129.638 20.6935 129.484 20.6935 129.279C20.6935 129.074 20.6425 128.92 20.5914 128.766C20.5404 128.715 20.4894 128.612 20.4384 128.561Z" fill="#D8D8D8"/>
</g>
</g>
<g opacity="0.2">
<g opacity="0.2">
<path opacity="0.2" d="M74.0566 80.9099V81.0129H74.4648V80.8589L74.0566 80.9099C74.0566 80.8589 74.0566 80.8589 74.0566 80.9099Z" fill="#D8D8D8"/>
</g>
</g>
<g opacity="0.2">
<g opacity="0.2">
<path opacity="0.2" d="M71.5566 80.603V81.064H71.8627V80.654L71.5566 80.603Z" fill="#D8D8D8"/>
</g>
</g>
<g opacity="0.2">
<g opacity="0.2">
<path opacity="0.2" d="M74.9748 78.8076H69.0059C68.8018 78.8076 68.5978 78.8589 68.4447 79.0128C68.2917 79.1154 68.1386 79.2692 68.0366 79.4744C67.8325 79.8335 67.7305 80.244 67.7305 80.705C67.7305 81.167 67.8325 81.577 68.0366 81.936C68.1386 82.142 68.2917 82.295 68.4447 82.398C68.5978 82.501 68.8018 82.603 69.0059 82.603H74.9238H75.0769C75.2809 82.603 75.485 82.552 75.638 82.398C75.7911 82.295 75.9441 82.142 76.0462 81.936C76.2502 81.577 76.3523 81.167 76.3523 80.705C76.3523 80.244 76.2502 79.8335 76.0462 79.4744C75.9441 79.2692 75.7911 79.1154 75.638 79.0128C75.434 78.9102 75.2809 78.8076 75.0769 78.8076H74.9748ZM69.21 81.167H68.6488V80.398L68.8018 80.295V80.141L68.6488 80.244V80.039L68.8018 79.936V80.141C68.9039 80.141 69.0569 80.141 69.1079 80.141C69.1589 80.141 69.21 80.141 69.21 80.192C69.312 80.244 69.363 80.346 69.363 80.5C69.363 80.552 69.363 80.654 69.312 80.705C69.363 80.757 69.363 80.859 69.363 80.911C69.414 81.064 69.312 81.167 69.21 81.167ZM69.6691 81.167C69.5671 81.167 69.5161 81.064 69.5161 80.962V80.911C69.5161 80.808 69.5671 80.705 69.6691 80.705H70.1283V80.603H69.6181L69.5671 80.449H70.1283C70.2303 80.449 70.2813 80.552 70.2813 80.654V81.218L69.6691 81.167ZM71.3016 81.167H71.1486V80.603H70.9445V81.218H70.7915V80.603H70.5874V81.218H70.4344V80.449H71.1996C71.3016 80.449 71.3527 80.552 71.3527 80.654V81.167H71.3016ZM72.0669 80.962C72.0669 81.064 72.0159 81.167 71.9138 81.167H71.5567H71.4037V80.192H71.5567V80.398H71.9138C72.0159 80.398 72.0669 80.5 72.0669 80.603V80.962ZM72.8321 80.962C72.8321 81.064 72.7811 81.167 72.6791 81.167H72.322C72.2199 81.167 72.1689 81.064 72.1689 80.962V80.398H72.322V80.962H72.6791V80.398H72.8321V80.962ZM73.2913 81.218V80.244H73.4443V81.013H73.8014L73.8525 81.218H73.2913ZM74.6177 81.218H74.0565C73.9545 81.218 73.9035 81.116 73.9035 81.013V80.962C73.9035 80.859 73.9545 80.757 74.0565 80.757H74.4647V80.654H74.0055L73.9545 80.5H74.4647C74.5667 80.5 74.6177 80.603 74.6177 80.705V81.218ZM75.3319 80.654V81.013C75.3319 81.116 75.2809 81.218 75.1789 81.218H74.8728H74.7198V80.244H74.8728V80.449H75.1789C75.2809 80.449 75.3319 80.552 75.3319 80.654Z" fill="#D8D8D8"/>
</g>
</g>
<g opacity="0.2">
<g opacity="0.2">
<path opacity="0.2" d="M74.873 81.013H75.1792V80.603H74.873V81.013Z" fill="#D8D8D8"/>
</g>
</g>
<g opacity="0.2">
<g opacity="0.2">
<path opacity="0.2" d="M69.6689 80.8589V81.0129H70.0771V80.8589H69.6689Z" fill="#D8D8D8"/>
</g>
</g>
<g opacity="0.2">
<g opacity="0.2">
<path opacity="0.2" d="M69.1586 80.6032C69.1586 80.6032 69.1586 80.5522 69.1586 80.6032C69.2096 80.6032 69.2607 80.5522 69.2607 80.5002V80.4492C69.2607 80.3982 69.2607 80.3462 69.2096 80.3462C69.2096 80.3462 69.2096 80.3462 69.1586 80.3462H69.0056H68.8525V80.6032H69.0056H69.1586Z" fill="#D8D8D8"/>
</g>
</g>
<g opacity="0.3">
<g opacity="0.3">
<path opacity="0.3" d="M75.8929 35.4658L16.8158 38.6972L16.7646 130.869L75.8929 134.818V134.664H75.842C75.842 134.664 75.842 134.664 75.791 134.664C75.74 134.664 75.689 134.613 75.689 134.562C75.689 134.511 75.74 134.511 75.791 134.459H75.842V82.654C75.791 82.654 75.689 82.706 75.6379 82.706H74.9236H68.9547C68.7506 82.706 68.4955 82.654 68.2915 82.501C68.1384 82.398 67.9343 82.193 67.8323 81.988C67.6282 81.629 67.4752 81.167 67.4752 80.705C67.4752 80.244 67.5772 79.7821 67.8323 79.423C67.9854 79.2178 68.1384 79.0127 68.2915 78.9101C68.4955 78.7562 68.6996 78.7049 68.9547 78.7049H74.8726H75.6379C75.689 78.7049 75.791 78.7049 75.842 78.7562L75.8929 35.4658ZM20.897 129.279C20.897 129.433 20.897 129.638 20.795 129.792C20.6929 129.997 20.5399 130.099 20.3358 130.151C20.2338 130.151 20.1318 130.099 20.0298 130.048C19.9278 129.997 19.8767 129.894 19.8256 129.792C19.7236 129.638 19.6726 129.433 19.6726 129.227C19.6726 129.022 19.7237 128.868 19.7747 128.715C19.8768 128.509 20.0297 128.407 20.2338 128.356C20.3358 128.356 20.4379 128.407 20.54 128.458C20.642 128.509 20.6929 128.612 20.7439 128.715C20.846 128.868 20.897 129.074 20.897 129.279ZM20.9481 41.1079C20.8461 41.2618 20.795 41.3644 20.6419 41.467C20.4889 41.5696 20.3358 41.6209 20.2338 41.6209C20.2338 41.6209 20.2338 41.6209 20.1828 41.6209C20.1317 41.6209 20.1317 41.6209 20.0807 41.6209H19.9787C19.9787 41.6209 19.9787 41.6209 19.9277 41.6209C19.7236 41.6209 19.5196 41.5183 19.3666 41.3644C19.2135 41.2105 19.1114 41.0566 19.0604 40.8515C18.9584 40.4924 18.9585 40.0308 19.1115 39.6205C19.1625 39.4153 19.2645 39.2614 19.4175 39.1588C19.5706 39.005 19.7236 38.9024 19.9277 38.9024H19.9787H20.2338C20.3868 38.9024 20.5399 38.9537 20.6419 39.0563C20.7439 39.1588 20.846 39.2614 20.897 39.4153C20.999 39.6718 21.1011 39.9795 21.05 40.2873C21.1521 40.5437 21.0501 40.8515 20.9481 41.1079ZM25.1315 130.099C25.0294 130.305 24.8763 130.407 24.6722 130.458C24.5702 130.458 24.4682 130.407 24.3661 130.356C24.2641 130.305 24.2132 130.202 24.1622 130.099C24.0601 129.946 24.009 129.74 24.009 129.484C24.009 129.33 24.009 129.125 24.111 128.971C24.2131 128.766 24.3662 128.663 24.5703 128.612C24.6723 128.612 24.7744 128.663 24.8764 128.715C24.9784 128.766 25.0293 128.868 25.0804 128.971C25.1824 129.125 25.2334 129.33 25.2334 129.587C25.2334 129.689 25.2335 129.894 25.1315 130.099ZM25.2845 40.8515C25.1825 41.0054 25.0804 41.1079 24.9783 41.2105C24.8253 41.3131 24.6722 41.3644 24.5192 41.3644C24.5192 41.3644 24.5193 41.3644 24.4683 41.3644C24.4172 41.3644 24.4171 41.3644 24.3661 41.3644H24.2641C24.2641 41.3644 24.2642 41.3644 24.2132 41.3644C24.0091 41.3644 23.805 41.2618 23.652 41.1079C23.4989 40.9541 23.3968 40.7489 23.3458 40.5437V40.4924C23.2438 40.1334 23.2439 39.6718 23.3969 39.3127C23.4479 39.1075 23.5499 38.9537 23.7029 38.8511C23.856 38.6972 24.0601 38.5946 24.2132 38.5946H24.2641H24.5192C24.6722 38.5946 24.8253 38.6459 24.9783 38.7998C25.0804 38.9024 25.1824 39.005 25.2334 39.1588C25.3354 39.4153 25.4375 39.7231 25.4375 40.0308C25.4885 40.3386 25.4376 40.6463 25.2845 40.8515Z" fill="black"/>
</g>
</g>
<g opacity="0.2">
<g opacity="0.2">
<path opacity="0.2" d="M69.1589 80.7568H69.0568H69.0058H68.8018V81.0128H69.0058H69.1589C69.2099 81.0128 69.2609 80.9618 69.2609 80.8588C69.2609 80.8078 69.2609 80.7568 69.2099 80.7568C69.2099 80.7568 69.2099 80.7568 69.1589 80.7568Z" fill="#D8D8D8"/>
</g>
</g>
<g opacity="0.2">
<g opacity="0.2">
<path opacity="0.2" d="M65.384 21.9248L64.9248 21.9761V22.13L65.384 22.0787V21.9248Z" fill="#D8D8D8"/>
</g>
</g>
<g opacity="0.2">
<g opacity="0.2">
<path opacity="0.2" d="M146.551 137.793L87.933 142.871C87.117 142.922 86.3 142.974 85.229 143.025C84.311 143.076 83.443 143.076 82.525 143.076C82.474 143.076 82.372 143.076 82.321 143.076C82.168 143.076 82.015 143.076 81.862 143.076C81.658 143.076 81.403 143.076 81.199 143.076C80.74 143.076 80.28 143.076 79.8723 143.025C79.4131 143.025 78.954 142.974 78.5458 142.974C78.0867 142.974 77.6276 142.922 77.2194 142.871L76.1991 142.82H76.1481H76.097H76.046C76.046 142.871 75.995 142.871 75.944 142.871L16.6116 138.357C16.5606 138.357 16.5606 138.306 16.5606 138.306C16.5606 138.306 16.5606 138.306 16.5096 138.306L15.6423 138.255C15.3362 138.255 15.0301 138.204 14.673 138.152C14.52 138.152 14.3669 138.101 14.2139 138.101L14.2649 139.127H14.3159C14.3669 139.127 14.469 139.178 14.52 139.178C14.673 139.229 14.8261 139.229 14.9791 139.229C15.2852 139.281 15.5913 139.281 15.8974 139.332L77.4235 144.153C77.8316 144.205 78.2908 144.205 78.6989 144.256C79.107 144.256 79.5662 144.307 79.9743 144.307C80.382 144.307 80.842 144.307 81.25 144.359C81.658 144.359 82.117 144.359 82.525 144.359C83.341 144.359 84.209 144.359 85.076 144.307C85.484 144.307 85.943 144.256 86.351 144.256C86.555 144.256 86.76 144.205 86.964 144.205C87.168 144.205 87.423 144.153 87.627 144.153L146.245 138.973C146.5 138.973 146.806 138.922 147.061 138.87C147.214 138.87 147.316 138.819 147.469 138.819C147.52 138.819 147.571 138.768 147.673 138.768C147.673 138.768 147.673 138.768 147.724 138.768L147.775 137.742C147.673 137.742 147.571 137.793 147.418 137.793C147.112 137.742 146.806 137.793 146.551 137.793Z" fill="#D8D8D8"/>
</g>
</g>
<g opacity="0.2">
<g opacity="0.2">
<path opacity="0.2" d="M128.542 84.5518H127.522V85.9368H128.542L128.593 85.8858V84.6038C128.542 84.6038 128.542 84.5518 128.542 84.5518Z" fill="#D8D8D8"/>
</g>
</g>
<g opacity="0.2">
<g opacity="0.2">
<path opacity="0.2" d="M147.316 22.9506C147.01 22.8993 146.755 22.8993 146.449 22.848L87.8825 17.8214C87.4235 17.7701 87.0155 17.7701 86.5565 17.7188C86.3525 17.7188 86.1475 17.7188 85.9435 17.6675C85.6885 17.6675 85.4845 17.6675 85.2295 17.6162C84.3625 17.6675 83.4445 17.6162 82.5765 17.6162C82.3725 17.6162 82.1175 17.6162 81.9135 17.6162C81.7095 17.6162 81.4545 17.6162 81.2505 17.6162C80.7915 17.6162 80.3835 17.6162 79.924 17.6675C79.6689 17.6675 79.4648 17.6675 79.2097 17.6675C79.0057 17.6675 78.8016 17.6675 78.5975 17.7188C78.1384 17.7188 77.7302 17.7701 77.2711 17.8214L76.3018 17.8727V35.2093V78.7562H76.3528C76.5569 78.8588 76.7099 79.064 76.8119 79.2691C77.016 79.6282 77.1691 80.09 77.1691 80.603C77.1691 81.064 77.067 81.577 76.8119 81.936C76.6589 82.141 76.5058 82.347 76.3528 82.449H76.3018V142.512V142.563L77.2201 142.615C77.6792 142.666 78.0873 142.666 78.5465 142.717C79.0056 142.717 79.4648 142.769 79.8729 142.769C80.1285 142.769 80.3835 142.769 80.6385 142.769C80.6895 142.717 80.7405 142.717 80.7405 142.769C80.8935 142.769 81.0465 142.769 81.1995 142.769C81.4035 142.769 81.6585 142.769 81.8625 142.769C82.0665 142.769 82.3215 142.769 82.5255 142.769C83.3935 142.769 84.3115 142.769 85.2295 142.717C86.2505 142.666 87.0665 142.615 87.8825 142.563L146.5 137.485C146.755 137.485 147.061 137.434 147.367 137.383C147.521 137.383 147.623 137.332 147.776 137.332C147.776 137.229 147.878 137.126 147.98 137.126C148.031 137.126 148.031 137.126 148.082 137.126L148.031 22.9506C147.98 23.1044 147.776 23.0019 147.316 22.9506ZM118.951 62.4454L123.39 62.548V71.1137L119.002 68.3952L118.951 62.4454ZM118.288 62.3941V71.6266L113.85 74.2425V62.2915L118.288 62.3941ZM118.288 72.8063V81.372H113.85V75.4222L118.288 72.8063ZM109.666 86.655H107.932V84.193L108.391 83.937V83.372L107.932 83.629V82.962L108.391 82.706V83.372C108.748 83.372 109.258 83.372 109.36 83.372H109.411C109.564 83.372 109.666 83.424 109.768 83.475C110.023 83.629 110.176 83.988 110.176 84.398C110.176 84.603 110.125 84.809 110.023 85.014C110.176 85.168 110.227 85.424 110.227 85.732C110.329 86.245 110.023 86.655 109.666 86.655ZM111.146 86.655C110.891 86.655 110.686 86.347 110.686 85.937V85.732C110.686 85.322 110.891 85.014 111.146 85.014H112.523V84.706C112.523 84.655 112.523 84.655 112.472 84.655H110.942L110.789 84.091H112.472C112.727 84.091 112.931 84.398 112.931 84.809V86.655H111.146ZM116.196 86.604H115.737V84.706C115.737 84.655 115.737 84.655 115.686 84.655H115.074L115.023 84.706V86.604H114.564V84.706C114.564 84.655 114.564 84.655 114.513 84.655H113.901L113.85 84.706V86.604H113.39V84.039H115.737C115.992 84.039 116.196 84.347 116.196 84.757V86.604ZM118.594 85.886C118.594 86.296 118.39 86.604 118.135 86.604H117.064H116.604V83.424H117.064V84.039H118.135C118.39 84.039 118.594 84.347 118.594 84.757V85.886ZM118.951 69.5237L123.339 72.2421V81.372H118.951V69.5237ZM120.992 85.886C120.992 86.245 120.788 86.604 120.533 86.604H119.41C119.155 86.604 118.951 86.296 118.951 85.886V84.039H119.41V85.937C119.41 85.988 119.41 85.988 119.461 85.988H120.584L120.635 85.937V84.039H121.043L120.992 85.886ZM122.522 86.553V83.424H122.982V85.988H124.053L124.206 86.604L122.522 86.553ZM126.655 86.553H124.92C124.665 86.553 124.461 86.245 124.461 85.886V85.681C124.461 85.322 124.665 84.963 124.92 84.963H126.247V84.655C126.247 84.603 126.247 84.603 126.196 84.603H124.716L124.563 84.039H126.196C126.451 84.039 126.655 84.347 126.655 84.706V86.553ZM129.001 85.834C129.001 86.194 128.797 86.501 128.542 86.501H127.471H127.012V83.372H127.471V83.988H128.542C128.797 83.988 129.001 84.296 129.001 84.655V85.834Z" fill="#D8D8D8"/>
</g>
</g>
<g opacity="0.2">
<g opacity="0.2">
<path opacity="0.2" d="M109.513 85.27H109.258H109.105H108.391V86.142H109.054H109.462C109.615 86.142 109.768 85.937 109.768 85.732C109.768 85.578 109.717 85.475 109.666 85.373C109.666 85.322 109.615 85.27 109.513 85.27Z" fill="#D8D8D8"/>
</g>
</g>
<g opacity="0.2">
<g opacity="0.2">
<path opacity="0.2" d="M82.5255 144.666C82.4745 144.666 82.3725 144.666 82.3215 144.666C81.9645 144.666 81.6075 144.666 81.2505 144.666C80.8425 144.666 80.3835 144.666 79.9751 144.615C79.567 144.615 79.1078 144.564 78.6997 144.564C78.6487 144.564 78.6487 144.564 78.5977 144.564V144.974C78.5977 144.974 78.5977 144.974 78.6487 144.974C78.6997 144.974 78.7507 145.025 78.8017 145.025C78.8527 145.025 78.9548 145.077 79.0058 145.077C79.1078 145.077 79.2099 145.128 79.3119 145.128C79.567 145.179 79.8221 145.179 80.1795 145.179C80.6895 145.231 81.2505 145.23 81.9135 145.23C83.1895 145.23 84.4645 145.231 85.3315 145.128C85.5355 145.128 85.7395 145.077 85.9445 145.077C86.0465 145.077 86.1485 145.025 86.2505 145.025C86.3015 145.025 86.3525 144.974 86.3525 144.974C86.3525 144.974 86.3525 144.974 86.4035 144.974V144.564C85.9955 144.564 85.5865 144.615 85.1785 144.615C84.2605 144.666 83.3935 144.666 82.5255 144.666Z" fill="#D8D8D8"/>
</g>
</g>
<g opacity="0.2">
<g opacity="0.2">
<path opacity="0.2" d="M109.462 84.7058C109.513 84.7058 109.513 84.7058 109.564 84.6548C109.615 84.6038 109.717 84.5008 109.717 84.3978C109.717 84.3468 109.717 84.2958 109.717 84.2958C109.717 84.1418 109.666 83.9878 109.564 83.9368C109.513 83.9368 109.513 83.8848 109.462 83.8848H109.003H108.442V84.6548H108.952L109.462 84.7058Z" fill="#D8D8D8"/>
</g>
</g>
<g opacity="0.2">
<g opacity="0.2">
<path opacity="0.2" d="M124.869 85.5781V85.9371C124.869 85.9891 124.869 85.9891 124.92 85.9891H126.247V85.4761H124.92C124.869 85.5271 124.869 85.5271 124.869 85.5781Z" fill="#D8D8D8"/>
</g>
</g>
<g opacity="0.2">
<g opacity="0.2">
<path opacity="0.2" d="M118.084 84.6548H117.063V86.0908H118.084L118.135 86.0398V84.7568C118.135 84.6548 118.084 84.6548 118.084 84.6548Z" fill="#D8D8D8"/>
</g>
</g>
<g opacity="0.2">
<g opacity="0.2">
<path opacity="0.2" d="M146.245 139.332L140.429 139.845C140.531 139.845 140.633 139.845 140.735 139.845C141.194 139.896 141.756 139.896 142.317 139.896C142.776 139.896 144.357 139.896 145.48 139.794C145.633 139.794 145.786 139.742 145.939 139.742C146.041 139.742 146.092 139.691 146.143 139.691C146.143 139.691 146.194 139.691 146.245 139.64V139.332Z" fill="#D8D8D8"/>
</g>
</g>
<g opacity="0.2">
<g opacity="0.2">
<path opacity="0.2" d="M35.5388 29.5673C35.5898 29.5673 35.5898 29.516 35.5898 29.4647L36.304 26.7462C36.304 26.6949 36.304 26.5923 36.253 26.541C36.253 26.4897 36.202 26.4897 36.202 26.4897C36.151 26.4897 36.151 26.4897 36.151 26.541C36.151 26.541 36.151 26.5923 36.1 26.5923L35.3857 29.3108C35.3857 29.3621 35.3857 29.4647 35.4368 29.5673C35.4878 29.5673 35.5388 29.6186 35.5388 29.5673Z" fill="#D8D8D8"/>
</g>
</g>
<g opacity="0.2">
<g opacity="0.2">
<path opacity="0.2" d="M12.1728 34.0298C12.2748 34.0811 12.4279 34.1324 12.5809 34.1324C12.734 34.1324 12.887 34.1324 13.0401 34.1324H13.0911L31.9162 33.004H31.9672C32.2223 33.004 32.5284 32.9527 32.7835 32.8501C32.9365 32.7988 33.0386 32.6962 33.1916 32.5936C33.2937 32.491 33.3957 32.3885 33.4977 32.2346C33.6508 32.0294 33.8038 31.7217 33.9569 31.4139C34.0589 31.1062 34.1609 30.7984 34.212 30.4907L37.9872 16.0776C38.0892 15.7186 38.1913 15.3082 38.2423 14.9492C38.2423 14.744 38.2423 14.5389 38.1913 14.385C38.1402 14.2824 38.1402 14.2311 38.0892 14.1285C38.0382 14.0772 37.9872 14.0259 37.8852 13.9747C37.7831 13.9234 37.6301 13.8721 37.426 13.8721C37.273 13.8721 37.1199 13.8721 36.9158 13.8721L18.0397 15.4621C17.6826 15.5134 17.4275 15.5134 17.1724 15.6673C17.0194 15.7186 16.9173 15.8212 16.8153 15.9237C16.7133 15.975 16.6112 16.0776 16.5092 16.2315C16.4072 16.3341 16.3561 16.488 16.2541 16.5905C16.2031 16.6931 16.1521 16.847 16.05 17.0009C15.948 17.3086 15.897 17.6164 15.795 17.9241L12.0197 31.9268C11.9177 32.2859 11.8157 32.6962 11.7646 33.0553C11.7646 33.2604 11.7646 33.4656 11.8157 33.6195C11.8667 33.7221 11.8667 33.7733 11.9177 33.8759C12.0197 33.9272 12.0707 33.9785 12.1728 34.0298ZM13.0401 32.3372L13.4482 30.9523L16.7643 18.5909L17.2234 16.847C17.2744 16.5905 17.5295 16.4367 17.7846 16.3854L18.907 16.2828L35.4874 14.8979L36.3036 14.8466C36.5077 14.8466 36.7118 14.8979 36.8138 15.0518C36.9158 15.2057 36.9669 15.4108 36.9158 15.616L36.5587 17.0522L33.2426 29.7726L32.7835 31.5678C32.7325 31.8243 32.4774 32.0294 32.2223 32.0294L31.0489 32.0807L14.4685 33.1065L13.7033 33.1578C13.7033 33.1578 13.7033 33.1578 13.6523 33.1578C13.4482 33.1578 13.2951 33.0553 13.1931 32.9527C13.0401 32.7475 12.989 32.5423 13.0401 32.3372Z" fill="#D8D8D8"/>
</g>
</g>
<g opacity="0.2">
<g opacity="0.2">
<path opacity="0.2" d="M14.7235 137.947C15.0296 137.999 15.3867 137.999 15.6928 138.05L16.356 138.101L16.407 35.2095L14.5704 35.3121C14.4684 35.3121 14.3664 35.3121 14.2643 35.3121C14.1623 35.3121 14.1113 35.3121 14.0092 35.3121L13.9072 137.691C13.9582 137.691 13.9582 137.691 14.0092 137.691C14.1113 137.691 14.2133 137.793 14.2133 137.896C14.3664 137.896 14.5194 137.947 14.7235 137.947Z" fill="#D8D8D8"/>
</g>
</g>
<g opacity="0.2">
<g opacity="0.2">
<path opacity="0.2" d="M15.8974 139.742C15.8464 139.742 15.7954 139.742 15.6934 139.742V140.101C15.6934 140.101 15.6934 140.153 15.7444 140.153C15.7954 140.153 15.8464 140.204 15.8464 140.204C15.8974 140.204 15.9995 140.255 16.0505 140.255C16.1525 140.255 16.2545 140.255 16.3056 140.307C16.5096 140.307 16.7647 140.358 17.0708 140.358C17.53 140.358 18.0401 140.409 18.6013 140.409C18.8564 140.409 19.1115 140.409 19.4176 140.409C19.4686 140.409 19.4686 140.409 19.5196 140.409C19.7237 140.409 19.9788 140.409 20.1828 140.409C20.2338 140.409 20.2849 140.409 20.3359 140.409C20.5399 140.409 20.795 140.409 20.9991 140.409C21.0501 140.409 21.0501 140.409 21.1011 140.409C21.3052 140.409 21.4582 140.409 21.6623 140.358H21.7133C21.7643 140.358 21.8664 140.358 21.9174 140.358L15.8974 139.742Z" fill="#D8D8D8"/>
</g>
</g>
<g opacity="0.2">
<g opacity="0.2">
<path opacity="0.2" d="M14.5201 35.1066L16.3567 35.004C16.4077 34.9014 16.4587 34.8501 16.5607 34.8501C16.6628 34.8501 16.7138 34.9014 16.7648 34.9527L33.3962 34.0294C33.5493 34.0294 33.7533 34.0294 33.9064 33.9782C34.0594 33.9269 34.2125 33.9269 34.3655 33.8243C34.5186 33.773 34.6716 33.6704 34.7737 33.5678C34.8757 33.4652 35.0287 33.3627 35.1308 33.2088C35.3348 32.9523 35.4879 32.6959 35.5899 32.3368C35.692 32.0291 35.794 31.67 35.896 31.3623L38.7019 20.6935L38.804 20.3345L39.6713 16.9492C39.7733 16.5389 39.8753 16.1286 39.9263 15.7182C39.9263 15.4618 39.9263 15.3079 39.8753 15.1027C39.8243 14.9488 39.7223 14.795 39.5182 14.6411L37.9877 13.7691C37.8857 13.7178 37.6816 13.6665 37.5286 13.6665C37.5286 13.6665 37.5286 13.6665 37.4775 13.6665C37.6816 13.6665 37.8347 13.7178 37.9367 13.7691C38.0387 13.8204 38.0897 13.8717 38.1918 13.9743C38.2428 14.0769 38.2938 14.1795 38.3448 14.2821C38.3958 14.4359 38.3958 14.6411 38.3958 14.8976C38.3448 15.2566 38.2428 15.6669 38.1408 16.026L34.3655 30.439C34.2635 30.7468 34.2125 31.0545 34.1104 31.3623C33.9574 31.7213 33.8043 31.9778 33.6513 32.2342C33.5493 32.3881 33.4472 32.4907 33.2942 32.5933C33.1411 32.6959 33.0391 32.7984 32.886 32.8497C32.631 32.9523 32.3759 33.0036 32.1208 33.0036H32.0188H31.9677C31.9677 33.0036 31.9677 33.0036 31.9167 33.0036L12.9896 34.2859C12.8875 34.2859 12.7855 34.2859 12.6324 34.2859C12.5814 34.2859 12.5304 34.2859 12.5304 34.2859C12.3263 34.2859 12.1733 34.2346 12.0713 34.1833C12.0202 34.132 11.9182 34.0807 11.8672 34.0294C11.9182 34.132 12.0202 34.1833 12.0713 34.2346L13.6018 35.004C13.6528 34.9527 13.7038 34.9527 13.7548 34.9527C13.8568 34.9527 13.9589 35.004 13.9589 35.1066C14.1629 35.1579 14.367 35.1579 14.5201 35.1066ZM35.2838 29.2593L35.9981 26.5408C35.9981 26.4895 36.0491 26.4382 36.0491 26.4382C36.1001 26.3869 36.1511 26.3357 36.2531 26.3357C36.3042 26.3357 36.4062 26.3869 36.4572 26.4382C36.5592 26.5408 36.5592 26.6947 36.5592 26.7973L35.845 29.5158C35.794 29.6183 35.743 29.6696 35.692 29.7209C35.6409 29.7209 35.6409 29.7209 35.5899 29.7209C35.5389 29.7209 35.4369 29.6696 35.3859 29.6183C35.2838 29.567 35.2328 29.4132 35.2838 29.2593Z" fill="#D8D8D8"/>
</g>
</g>
<g opacity="0.2">
<g opacity="0.2">
<path opacity="0.2" d="M111.146 85.6291C111.095 85.6291 111.095 85.6811 111.095 85.6811V86.0401C111.095 86.0911 111.095 86.0911 111.146 86.0911H112.472V85.5781L111.146 85.6291Z" fill="#D8D8D8"/>
</g>
</g>
</svg>
