<?xml version="1.0" encoding="utf-8"?>
<!-- Generator: Adobe Illustrator 21.0.0, SVG Export Plug-In . SVG Version: 6.00 Build 0)  -->
<svg version="1.1" id="图层_1" xmlns="http://www.w3.org/2000/svg" xmlns:xlink="http://www.w3.org/1999/xlink" x="0px" y="0px"
	 viewBox="0 0 696 449" style="enable-background:new 0 0 696 449;" xml:space="preserve">
<style type="text/css">
	.st0{fill:#2C2C2C;}
	.st1{fill:#FFFFFF;}
</style>
<rect y="0" class="st0" width="696" height="449"/>
<g>
	<polygon class="st1" points="239.1,257.4 239.1,276.1 241.8,276.1 241.8,260.7 255.8,274.9 257.1,274.9 270.9,261 270.9,276.1 
		273.9,276.1 273.9,257.4 270.3,257.4 256.6,271.3 242.7,257.4 	"/>
	<rect x="281.5" y="257.4" class="st1" width="2.9" height="18.6"/>
	<polygon class="st1" points="291.9,257.4 291.9,276 295,276 295,260.3 316,276 320.3,276 320.3,257.4 317.3,257.4 317.3,273.2 
		296.3,257.4 	"/>
	<path class="st1" d="M331.6,257.4h27.3v3.1h-27.1c0,0-1-0.2-1,0.9c0,1.1,0,10.9,0,10.9s-0.1,1,1.2,1c1.3,0,23.8,0,23.8,0v-4.7H337
		v-3h20.7c0,0,1.1,0.3,1.1,1.3s0,8.2,0,8.2s-0.1,1.1-0.9,1.1c-0.8,0-27.1,0-27.1,0s-3.1-1.2-3.1-3.6c0-2.4,0-10.3,0-11.5
		C327.8,259.6,329.7,257.4,331.6,257.4z"/>
	<path class="st1" d="M393.8,257.4c-2.5,0-26.3,0-26.3,0s-1.1,0.5-1.1,1.3s0,1.7,0,1.7v14.5c0,0,0.2,1.2,1.4,1.2s26.7,0,26.7,0
		s3.1-0.9,3.1-4c0-3.1,0-9.9,0-11.2C397.6,260.3,396.4,257.4,393.8,257.4z M394.6,272.5c0,0,0,0.8-1.1,0.8c-1.1,0-23.9,0-23.9,0
		v-12.8h24.1c0,0,1-0.1,1,1C394.6,262.3,394.6,272.5,394.6,272.5z"/>
	<polygon class="st1" points="401.5,276.1 405.3,276.1 420.2,259.5 428.9,269.1 416.5,269.1 414,272 431.4,272 435.2,276.1 
		439.1,276.1 422.1,257.4 418.3,257.4 	"/>
</g>
<g>
	<polygon class="st1" points="340.6,156.1 340.6,183.1 318.6,169.6 	"/>
	<polygon class="st1" points="342.4,156.1 342.4,183.1 364.4,169.6 	"/>
	<polygon class="st1" points="293.2,167.7 340.6,197.1 340.6,215.7 307.3,195.1 307.3,236.9 293.2,228.4 	"/>
	<polygon class="st1" points="309.1,198.2 339.8,217.1 309.1,236.1 	"/>
	<polygon class="st1" points="389.7,167.7 342.4,197.1 342.4,215.7 375.7,195.1 375.7,236.9 389.7,228.4 	"/>
	<polygon class="st1" points="373.8,198.2 343.1,217.1 373.8,236.1 	"/>
</g>
</svg>
