<svg width="177" height="179" viewBox="0 0 177 179" fill="none" xmlns="http://www.w3.org/2000/svg">
<path d="M13.2575 160.962C13.2158 160.965 13.174 160.966 13.1321 160.965C12.4073 161.002 11.7308 160.082 11.7303 159.186C11.7299 158.289 12.4053 157.416 13.1302 157.504C13.8334 157.47 14.5006 158.331 14.5327 159.205C14.5649 160.079 13.9621 160.966 13.2575 160.962Z" stroke="#1F1F1F" stroke-width="0.5" stroke-linecap="round" stroke-linejoin="round"/>
<path d="M20.4137 157.724L20.1701 157.741C19.4395 157.653 18.7586 158.529 18.759 159.429C18.7595 160.329 19.4413 161.253 20.1718 161.215C20.2145 161.217 20.2572 161.216 20.2997 161.213M20.4137 157.724C20.3355 157.721 20.2546 157.726 20.1726 157.741C20.8806 157.71 21.5509 158.572 21.5835 159.448C21.6162 160.325 21.0096 161.216 20.2997 161.213M20.4137 157.724C21.122 157.69 21.7941 158.553 21.8269 159.43C21.8597 160.307 21.253 161.198 20.5433 161.194L20.2997 161.213" stroke="#1F1F1F" stroke-width="0.5" stroke-linecap="round" stroke-linejoin="round"/>
<path d="M6.94824 163.532L100.472 167.004L100.74 166.979" stroke="#1F1F1F" stroke-width="0.5" stroke-linecap="round" stroke-linejoin="round"/>
<path d="M6.88675 30.037L6.97329 172.091C6.9734 172.101 6.96917 172.11 6.96214 172.117C6.95508 172.124 6.94514 172.128 6.93553 172.127L6.77857 172.12C6.27652 172.096 5.76686 172.072 5.27199 172.048C4.81375 172.025 4.36824 172.002 3.95239 171.978C3.71354 171.963 3.48454 171.949 3.2682 171.934C3.06848 171.92 2.87966 171.905 2.70401 171.89C2.64496 171.885 2.58743 171.88 2.53146 171.875L2.52739 171.875L2.51674 171.874L2.5061 171.873L2.49546 171.872L2.48482 171.871L2.47414 171.87L2.4635 171.869L2.45286 171.868L2.44824 171.867C2.40235 171.863 2.35742 171.859 2.31354 171.855C2.21942 171.845 2.13005 171.836 2.04595 171.826C1.96668 171.818 1.89213 171.808 1.8228 171.799C1.75624 171.79 1.69459 171.781 1.63777 171.771C1.58143 171.762 1.53003 171.753 1.48326 171.743C1.43575 171.733 1.3932 171.724 1.35516 171.713C1.31638 171.703 1.28262 171.693 1.25307 171.682C1.2231 171.67 1.19762 171.659 1.17554 171.645C1.15414 171.632 1.13241 171.614 1.11834 171.59C1.10942 171.574 1.10423 171.557 1.1042 171.538L1 13.6499C0.999974 13.6405 1.0013 13.6308 1.00373 13.6217C1.00783 13.6063 1.01496 13.5927 1.02342 13.5812C1.03908 13.5597 1.0608 13.5426 1.08358 13.5286C1.10559 13.5152 1.13082 13.5031 1.1599 13.4915C1.18604 13.4811 1.21522 13.471 1.24791 13.4612C1.27639 13.4526 1.30746 13.4441 1.34124 13.4358C1.37092 13.4285 1.40264 13.4213 1.43651 13.4141C1.46745 13.4077 1.50021 13.4012 1.53472 13.3948C1.56823 13.3886 1.60344 13.3824 1.64035 13.3763C1.67757 13.3702 1.71645 13.3642 1.75707 13.3582C1.79794 13.3522 1.84053 13.3462 1.88468 13.3403C1.92867 13.3345 1.97425 13.3286 2.02128 13.3229C2.06796 13.3172 2.11609 13.3116 2.16563 13.306C2.2157 13.3003 2.26728 13.2948 2.32011 13.2892C2.37579 13.2835 2.43296 13.2777 2.49151 13.272C2.55567 13.2658 2.62141 13.2597 2.68868 13.2537C2.76401 13.247 2.84123 13.2403 2.92015 13.2337C3.00879 13.2264 3.09961 13.2191 3.19233 13.212C3.29579 13.2041 3.40161 13.1963 3.50954 13.1887C3.62938 13.1801 3.75173 13.1719 3.8764 13.1637C4.01478 13.1546 4.15585 13.1458 4.29901 13.1371C4.45803 13.1274 4.61968 13.1179 4.78303 13.1086C4.96372 13.0983 5.14658 13.0882 5.33075 13.0781C5.35254 13.0769 5.37438 13.0758 5.3962 13.0747" stroke="#1F1F1F" stroke-width="0.5" stroke-linecap="round" stroke-linejoin="round"/>
<path d="M20.2306 35.9015C20.9421 35.8959 21.5532 36.789 21.5225 37.6689C21.4918 38.5487 20.8191 39.4154 20.1091 39.3807C19.3779 39.468 18.6954 38.5888 18.6949 37.687C18.6945 36.7851 19.376 35.8605 20.1074 35.8991C20.1485 35.8977 20.1896 35.8985 20.2306 35.9015ZM20.2306 35.9015L20.4744 35.9194C21.1859 35.9138 21.7969 36.8066 21.7662 37.6863C21.7354 38.5658 21.063 39.4323 20.353 39.3976C20.2779 39.4001 20.2002 39.3952 20.1214 39.3816" stroke="#1F1F1F" stroke-width="0.5" stroke-linecap="round" stroke-linejoin="round"/>
<path d="M13.1846 36.1473C13.8909 36.1408 14.4981 37.0304 14.468 37.9071C14.438 38.7838 13.7706 39.6476 13.0658 39.613C12.3403 39.6998 11.6631 38.824 11.6626 37.9257C11.6621 37.0273 12.3382 36.1064 13.0639 36.145C13.1042 36.1436 13.1445 36.1444 13.1846 36.1473ZM13.1846 36.1473L13.4296 36.165C14.1357 36.1586 14.7429 37.0479 14.7128 37.9243C14.6827 38.8007 14.0154 39.6643 13.3108 39.6298C13.2371 39.632 13.161 39.6273 13.0839 39.6142" stroke="#1F1F1F" stroke-width="0.5" stroke-linecap="round" stroke-linejoin="round"/>
<path d="M6.89478 33.5602L100.493 30.21" stroke="#1F1F1F" stroke-width="0.5" stroke-linecap="round" stroke-linejoin="round"/>
<path d="M101.218 176.01L101.235 94.592" stroke="#1F1F1F" stroke-width="0.5" stroke-linecap="round" stroke-linejoin="round"/>
<path d="M91.7371 89.5236L101.288 89.4835C102.41 89.3843 103.459 90.7057 103.459 92.0301C103.459 93.3544 102.408 94.6817 101.287 94.5888L91.7364 94.6029C91.7136 94.6029 91.6907 94.6025 91.6679 94.6017C90.5738 94.6493 89.5833 93.3455 89.5925 92.0485C89.6017 90.7515 90.6105 89.4615 91.7039 89.5241L91.7371 89.5236Z" stroke="#1F1F1F" stroke-width="0.5" stroke-linecap="round" stroke-linejoin="round"/>
<path d="M101.287 89.4823C101.514 89.4814 101.899 89.4592 102.119 89.4959C102.661 89.6647 103.135 90.0024 103.472 90.4598C103.808 90.9172 103.99 91.4703 103.99 92.0382C103.99 92.6061 103.808 93.159 103.471 93.6162C103.134 94.0735 102.66 94.411 102.118 94.5796C101.898 94.6175 101.513 94.5874 101.286 94.5876" stroke="#1F1F1F" stroke-width="0.5" stroke-linecap="round" stroke-linejoin="round"/>
<path d="M54.9311 10.7221C54.9291 10.596 54.9272 10.4699 54.9252 10.3439C54.9218 10.1246 54.9184 9.90528 54.915 9.68602C54.9145 9.64958 54.9179 9.61749 54.8892 9.61426C54.5744 9.6477 54.2588 9.5601 54.0062 9.36922L54.0226 8.42043C54.0227 8.41108 54.0275 8.40182 54.0368 8.39258" stroke="#1F1F1F" stroke-width="0.5" stroke-linecap="round" stroke-linejoin="round"/>
<path d="M64.4122 8.41016C64.4215 8.41945 64.4262 8.42872 64.4264 8.43807L64.4587 10.2775" stroke="#1F1F1F" stroke-width="0.5" stroke-linecap="round" stroke-linejoin="round"/>
<path d="M54.0349 8.38652L54.105 8.3166C54.1846 8.1628 55.8626 8.01947 57.9167 7.98177C59.9708 7.94408 62.4009 8.01196 63.494 8.14466C63.785 8.14929 64.0723 8.21149 64.3391 8.32776L64.4092 8.39773" stroke="#1F1F1F" stroke-width="0.5" stroke-linecap="round" stroke-linejoin="round"/>
<path d="M6.52788 29.7138L6.30747 29.6704M6.30747 29.6704C6.21835 29.6529 6.13003 29.6303 6.04281 29.6007C5.99749 29.5853 5.95249 29.568 5.9078 29.5484C5.86311 29.5288 5.81871 29.5069 5.77556 29.4829C5.68927 29.4348 5.60806 29.3781 5.53177 29.3125C5.49364 29.2798 5.45674 29.2448 5.42101 29.2076C5.38529 29.1704 5.35076 29.1309 5.31783 29.0899C5.25204 29.0078 5.19277 28.9196 5.14041 28.825C5.1142 28.7777 5.08975 28.7289 5.06699 28.6781C5.04425 28.6275 5.02323 28.5749 5.00422 28.5215C4.96622 28.4146 4.93629 28.304 4.91261 28.1904C4.88891 28.0768 4.87145 27.96 4.85879 27.8424C4.84618 27.7247 4.83837 27.6062 4.8341 27.4872C4.82986 27.3683 4.82915 27.2489 4.83072 27.1294C4.83231 27.0099 4.83616 26.8901 4.84117 26.7702C4.84621 26.6502 4.85233 26.5303 4.85854 26.4103L5.89098 6.40412C5.89702 6.2866 5.9031 6.16916 5.91029 6.0517C5.91746 5.93434 5.92566 5.81702 5.93603 5.69992C5.95676 5.46572 5.98602 5.23233 6.03248 5.00068C6.05577 4.88484 6.08334 4.7695 6.11699 4.6547C6.1338 4.59738 6.15219 4.54008 6.17234 4.48302C6.19254 4.4259 6.21459 4.36891 6.2383 4.31331C6.28573 4.20195 6.33964 4.09591 6.40036 3.99505C6.43072 3.94461 6.46275 3.89548 6.49653 3.84745C6.53025 3.79952 6.56581 3.75274 6.60241 3.70795C6.67564 3.6181 6.75328 3.53578 6.83553 3.46113C6.87665 3.4238 6.91889 3.38848 6.96248 3.35502C7.00604 3.32155 7.05096 3.29009 7.09644 3.26095C7.18738 3.20274 7.28062 3.15407 7.37579 3.11272C7.47093 3.07143 7.56802 3.03737 7.66547 3.00923C7.76288 2.98109 7.86061 2.95882 7.95833 2.94091C8.05605 2.923 8.15379 2.9094 8.25152 2.89859C8.34922 2.88779 8.44692 2.87973 8.54458 2.8731C8.6423 2.86647 8.74002 2.86132 8.8377 2.85615L39.2799 1.24375C39.7618 1.19001 40.2493 1.21902 40.7215 1.32953C40.7287 1.33177 40.7359 1.33399 40.7432 1.33628C40.7901 1.35116 40.8369 1.36803 40.8833 1.38714C40.9298 1.4063 40.9759 1.4278 41.0208 1.45151C41.1104 1.49896 41.195 1.55527 41.2744 1.62058C41.3141 1.65331 41.3525 1.6882 41.3897 1.72548C41.4269 1.7627 41.463 1.80225 41.4973 1.84344C41.5659 1.92577 41.6277 2.01449 41.6824 2.10982C41.7098 2.15744 41.7354 2.20671 41.7592 2.25793C41.7831 2.30909 41.8051 2.36219 41.825 2.41617C41.8649 2.52429 41.8963 2.63622 41.9212 2.75144C41.9463 2.86672 41.9648 2.98516 41.9783 3.1045C42.0053 3.34329 42.0122 3.58584 42.0097 3.82922C42.0072 4.07266 41.9951 4.31694 41.9829 4.56121L40.9683 24.9712C40.9563 25.2113 40.9444 25.4516 40.9234 25.691C40.9025 25.9304 40.8728 26.1688 40.825 26.4052C40.8011 26.5235 40.7727 26.6412 40.738 26.7582C40.7207 26.8168 40.7017 26.8751 40.6808 26.9332C40.66 26.9914 40.6371 27.0493 40.6127 27.106C40.5636 27.2193 40.5078 27.327 40.4449 27.4294C40.4134 27.4806 40.3803 27.5305 40.3452 27.5791C40.3102 27.6278 40.2734 27.675 40.2355 27.7204C40.1595 27.8113 40.0789 27.8944 39.9937 27.9696C39.951 28.0072 39.9072 28.0428 39.8619 28.0763C39.8167 28.1098 39.7701 28.1415 39.723 28.1706C39.6286 28.2288 39.5318 28.2773 39.4331 28.3181C39.3343 28.359 39.2336 28.3923 39.1326 28.4196C38.9306 28.4743 38.7276 28.5049 38.525 28.5242C38.3223 28.5433 38.1201 28.5511 37.9178 28.5588L7.45555 29.7146C7.35966 29.7182 7.26376 29.7218 7.16803 29.7241C7.07237 29.7263 6.97683 29.7273 6.88177 29.7256C6.6916 29.7221 6.50306 29.708 6.31783 29.6724C6.31438 29.6717 6.31091 29.6711 6.30747 29.6704Z" stroke="#1F1F1F" stroke-width="0.5" stroke-linecap="round" stroke-linejoin="round"/>
<path d="M42.4559 1.55342C42.504 1.56647 42.5517 1.58124 42.5991 1.59784C42.6492 1.61543 42.6988 1.63516 42.7473 1.65698C42.7958 1.67891 42.8432 1.70289 42.8894 1.72931C42.9817 1.78199 43.0693 1.84391 43.1526 1.91527C43.1942 1.95093 43.2347 1.98901 43.2735 2.0289C43.3124 2.06879 43.3495 2.11056 43.3849 2.154C43.4558 2.24092 43.5199 2.33469 43.5772 2.43555C43.6059 2.48593 43.6329 2.53809 43.6581 2.59207C43.6833 2.64595 43.7068 2.70156 43.728 2.75815C43.7706 2.87128 43.8045 2.98795 43.8318 3.10834C43.8591 3.22878 43.8797 3.35284 43.8949 3.47835C43.9101 3.6038 43.92 3.73071 43.9258 3.85804C43.9316 3.98532 43.9334 4.11304 43.9324 4.24105C43.9306 4.49712 43.9179 4.75491 43.9052 5.01255L42.8947 25.3818C42.8818 25.6408 42.8688 25.9003 42.845 26.1589C42.8212 26.4176 42.7865 26.6758 42.7311 26.9295C42.7034 27.0563 42.6705 27.1821 42.6307 27.3068C42.6108 27.3691 42.5891 27.4312 42.5657 27.492C42.5424 27.5528 42.5173 27.6125 42.4904 27.6709C42.4367 27.7878 42.3758 27.8997 42.3075 28.0072C42.2732 28.061 42.2372 28.1137 42.1998 28.1643C42.1624 28.215 42.1236 28.2638 42.0836 28.3108C42.0036 28.4046 41.9185 28.4909 41.8282 28.5696C41.7831 28.609 41.7367 28.6465 41.689 28.6819C41.6414 28.7174 41.5924 28.7508 41.5429 28.7818C41.4441 28.8436 41.343 28.8954 41.2396 28.9395C41.1362 28.9835 41.0305 29.0197 40.9241 29.0496C40.8178 29.0795 40.7108 29.1029 40.604 29.1216C40.4971 29.1402 40.3904 29.154 40.2837 29.1646C40.0702 29.1857 39.8566 29.1938 39.6431 29.2019L9.21508 30.3445C9.00797 30.3522 8.80078 30.3599 8.59516 30.3546C8.38955 30.3493 8.18552 30.3312 7.98696 30.2879C7.98009 30.2865 7.97318 30.285 7.96634 30.2833L6.24016 29.8922C6.23546 29.8911 6.23098 29.8901 6.22652 29.8891C6.21362 29.8861 6.20071 29.883 6.18787 29.8797C6.17193 29.8758 6.15605 29.8716 6.14026 29.8673C6.11033 29.859 6.08058 29.8501 6.05101 29.8406C6.03503 29.8354 6.0191 29.83 6.00328 29.8245C5.99456 29.8214 5.9859 29.8183 5.97721 29.8151C5.96648 29.8112 5.95571 29.8071 5.94506 29.803C5.91217 29.7903 5.87948 29.7765 5.84724 29.7618C5.83009 29.754 5.81308 29.7459 5.79616 29.7375C5.77535 29.7272 5.75468 29.7164 5.73421 29.7051C5.72191 29.6983 5.70971 29.6914 5.69754 29.6844C5.68216 29.6753 5.66688 29.6661 5.65169 29.6565C5.63653 29.6469 5.62144 29.6371 5.60657 29.627C5.58756 29.6142 5.56881 29.6009 5.55026 29.5872C5.53567 29.5764 5.5212 29.5653 5.50689 29.5541C5.48859 29.5395 5.47055 29.5248 5.45272 29.5095C5.44486 29.5027 5.437 29.496 5.42927 29.489C5.41942 29.4803 5.40968 29.4715 5.40002 29.4625C5.37791 29.442 5.35614 29.4208 5.33489 29.399C5.32683 29.3908 5.31883 29.3823 5.31086 29.3739C5.30079 29.3632 5.29077 29.3523 5.28085 29.3412C5.25835 29.3161 5.23648 29.2904 5.21514 29.2639C5.19379 29.2374 5.17303 29.2102 5.15288 29.1824C5.1273 29.1471 5.10283 29.1108 5.07931 29.0735C5.0608 29.0442 5.04298 29.0142 5.02574 28.9837C5.01611 28.9666 5.00669 28.9492 4.99748 28.9318C4.98578 28.9097 4.9744 28.8873 4.96342 28.8646C4.95475 28.8467 4.94625 28.8287 4.93805 28.8106C4.92759 28.7874 4.91747 28.7641 4.90768 28.7405C4.89787 28.7168 4.88847 28.693 4.87939 28.6689C4.87436 28.6554 4.86941 28.642 4.8646 28.6285C4.85842 28.6111 4.85245 28.5936 4.8466 28.576C4.83478 28.5403 4.82374 28.5041 4.8134 28.4676C4.80741 28.4463 4.80161 28.425 4.79613 28.4035C4.78882 28.3752 4.78192 28.3466 4.77545 28.3179C4.76315 28.2635 4.7523 28.2087 4.74269 28.1533C4.7369 28.1198 4.73156 28.0862 4.72666 28.0524C4.72379 28.0326 4.72108 28.0127 4.71847 27.9927C4.71505 27.9662 4.71186 27.9396 4.70891 27.913C4.7074 27.8994 4.70593 27.8859 4.70455 27.8722C4.70277 27.8546 4.70107 27.837 4.69945 27.8192C4.69567 27.7773 4.69237 27.7351 4.68961 27.6928C4.68663 27.6474 4.68424 27.6018 4.68231 27.5562C4.68121 27.5288 4.68024 27.5013 4.67944 27.4739C4.6784 27.4365 4.67763 27.3991 4.67721 27.3616C4.67689 27.3367 4.67672 27.3118 4.67667 27.2868C4.67656 27.2525 4.67672 27.2182 4.67705 27.1839C4.67745 27.1457 4.67802 27.1073 4.67883 27.0691C4.67934 27.0453 4.67992 27.0216 4.68059 26.9978C4.68098 26.9835 4.68141 26.9691 4.68183 26.9548C4.68243 26.9352 4.68311 26.9156 4.68377 26.896C4.68464 26.872 4.68554 26.848 4.68648 26.824C4.68789 26.7885 4.68939 26.753 4.69101 26.7176C4.69179 26.7 4.69263 26.6824 4.69346 26.6648C4.69456 26.6404 4.69577 26.6159 4.697 26.5915C4.69755 26.58 4.69814 26.5686 4.69872 26.5571C4.69948 26.5418 4.70026 26.5264 4.70101 26.5111C4.70183 26.4951 4.70266 26.4791 4.7035 26.4631C4.70423 26.449 4.70493 26.4348 4.70566 26.4207L5.73813 6.41713C5.73866 6.40711 5.73915 6.39688 5.7397 6.38686C5.74053 6.37078 5.74137 6.35491 5.74215 6.33894C5.74356 6.31221 5.74498 6.28537 5.74639 6.25864C5.74769 6.23421 5.74899 6.20992 5.75037 6.18554C5.75134 6.1679 5.75233 6.15029 5.75333 6.13265C5.75537 6.09725 5.75749 6.06158 5.75971 6.02603C5.76125 6.00201 5.76277 5.97798 5.76439 5.95401C5.76665 5.92024 5.76904 5.8865 5.77156 5.85262C5.77334 5.82908 5.77516 5.80535 5.7771 5.78176C5.77885 5.75999 5.78068 5.7382 5.78262 5.71643C5.78403 5.7003 5.78546 5.6842 5.78695 5.66806C5.7888 5.64807 5.7907 5.62804 5.79269 5.6081C5.79418 5.59285 5.79575 5.57765 5.79734 5.5624C5.80005 5.53672 5.80283 5.51102 5.80575 5.48523C5.81016 5.44685 5.81479 5.40858 5.81977 5.37026C5.82339 5.34228 5.82722 5.31438 5.83121 5.28639C5.83497 5.26019 5.83889 5.23375 5.84303 5.20743C5.84612 5.18759 5.84927 5.16784 5.85256 5.1481C5.85963 5.10566 5.86719 5.06333 5.87525 5.02109C5.88123 4.98977 5.88744 4.95864 5.89405 4.92747C5.90394 4.88059 5.91448 4.83385 5.92585 4.78733C5.93419 4.75309 5.94299 4.71878 5.95223 4.68479C5.96103 4.65222 5.97027 4.6198 5.97992 4.58748C5.98402 4.57365 5.98825 4.5599 5.99251 4.54612C5.99582 4.53552 5.99914 4.52506 6.00251 4.51451C6.01205 4.48491 6.02195 4.45546 6.03221 4.42612C6.03995 4.40404 6.04795 4.38209 6.05614 4.36016C6.06408 4.33907 6.07216 4.31806 6.08055 4.29707C6.08697 4.28109 6.09351 4.26502 6.10018 4.24914C6.11362 4.21709 6.12753 4.18552 6.14205 4.15425C6.15343 4.12956 6.16513 4.10517 6.17722 4.08084C6.18928 4.05651 6.2017 4.03245 6.21438 4.0087C6.22442 3.9899 6.23461 3.97122 6.24503 3.95274C6.26886 3.9104 6.29369 3.86881 6.31947 3.82809C6.33083 3.81018 6.34236 3.79233 6.3541 3.77468C6.36337 3.7608 6.37276 3.74705 6.38221 3.73332C6.39748 3.71129 6.41301 3.68946 6.42883 3.668C6.44125 3.65114 6.45391 3.63441 6.46668 3.61791C6.48949 3.58847 6.51286 3.55955 6.53672 3.5313C6.56058 3.50311 6.58496 3.47546 6.60982 3.44852C6.62929 3.42743 6.64909 3.40672 6.66908 3.38651C6.69226 3.36307 6.71575 3.34024 6.73966 3.318C6.75846 3.30046 6.77748 3.28333 6.7967 3.26658C6.81585 3.24987 6.83524 3.23354 6.85482 3.21757C6.87021 3.20499 6.88573 3.19272 6.90137 3.18061C6.92125 3.16526 6.9413 3.15036 6.96157 3.13574C6.97751 3.12436 6.99356 3.11305 7.00974 3.10209C7.0258 3.09123 7.04195 3.08066 7.05821 3.07016C7.07111 3.06202 7.08406 3.05393 7.09708 3.04595C7.13606 3.02235 7.17542 2.99999 7.2153 2.97916C7.23364 2.9695 7.25207 2.96015 7.27062 2.95112C7.28559 2.94381 7.30062 2.93665 7.31571 2.92971C7.35142 2.91321 7.38736 2.89771 7.4235 2.88325C7.45376 2.87108 7.4842 2.85955 7.51476 2.84864C7.54421 2.83815 7.57376 2.82821 7.60338 2.81882C7.61706 2.81454 7.63075 2.81026 7.64442 2.80614C7.65557 2.80279 7.66674 2.79951 7.67791 2.79632C7.69249 2.79209 7.70713 2.78805 7.72172 2.78409C7.73347 2.7809 7.7452 2.77786 7.757 2.77478C7.77861 2.76925 7.80028 2.76395 7.82197 2.75878C7.85094 2.75195 7.8799 2.74566 7.90892 2.7396C7.93307 2.73459 7.95728 2.72993 7.98142 2.72539C8.00708 2.72069 8.03271 2.71624 8.0584 2.71201C8.07988 2.70851 8.10136 2.70512 8.1228 2.70194C8.16072 2.6964 8.19856 2.6913 8.23646 2.68671C8.27006 2.68264 8.30373 2.67886 8.3374 2.67536C8.37649 2.6714 8.4156 2.66778 8.45441 2.66459C8.47413 2.66292 8.4938 2.66138 8.51361 2.65981C8.53103 2.65856 8.54851 2.65719 8.56587 2.65599C8.59868 2.65369 8.63121 2.65159 8.66386 2.64955C8.69419 2.64767 8.72469 2.64592 8.75505 2.6442C8.77402 2.64321 8.79288 2.64212 8.81183 2.64108C8.82786 2.64019 8.8439 2.63931 8.85995 2.63853C8.86944 2.63795 8.87893 2.63747 8.88844 2.637L39.3297 1.02097C39.3382 1.0205 39.3467 1.02015 39.3552 1.01963C39.3687 1.01895 39.3822 1.01824 39.3957 1.01746C39.4183 1.01637 39.4409 1.01517 39.4635 1.01402C39.4842 1.01292 39.5047 1.0119 39.5253 1.01096C39.5402 1.01028 39.5551 1.0096 39.57 1.00892C39.6 1.00756 39.6301 1.00637 39.6602 1.00523C39.6805 1.00444 39.7008 1.00376 39.7211 1.00319C39.7497 1.0023 39.7782 1.00166 39.8069 1.00108C39.8268 1.00067 39.8469 1.00046 39.8669 1.00025C39.8853 1.00005 39.9036 1 39.9221 1C39.9357 1 39.9493 1.00003 39.963 1.00019C39.9799 1.0003 39.9968 1.00057 40.0137 1.00083C40.0265 1.00099 40.0394 1.00134 40.0523 1.00166C40.074 1.00223 40.0957 1.00292 40.1174 1.00376C40.1499 1.00517 40.1823 1.00672 40.2145 1.00886C40.2382 1.01037 40.2617 1.0121 40.2853 1.01408C40.3075 1.01591 40.3297 1.01798 40.3518 1.02033C40.3685 1.022 40.3852 1.02389 40.4019 1.02587C40.4376 1.0301 40.4731 1.03501 40.5087 1.0406C40.5349 1.04477 40.5612 1.04931 40.5873 1.05417C40.6267 1.06158 40.6658 1.06986 40.7048 1.07915C40.727 1.08453 40.7493 1.09016 40.7715 1.09617L42.4559 1.55342Z" stroke="#1F1F1F" stroke-width="0.5" stroke-linecap="round" stroke-linejoin="round"/>
<path d="M43.5543 12.1355L44.2657 12.1022C44.3137 12.0999 44.3619 12.1005 44.41 12.1038C44.4246 12.1048 44.4391 12.1061 44.4536 12.1077C44.4668 12.1091 44.4801 12.1107 44.4934 12.1124C44.7688 12.1501 45.0389 12.2792 45.2874 12.4882C45.5558 12.7141 45.7991 13.0333 45.9962 13.4151C46.3813 14.161 46.5903 15.1456 46.5809 16.1015C46.5715 17.0581 46.3436 17.9862 45.9413 18.6326C45.7692 18.9093 45.565 19.1345 45.3417 19.2916C45.1141 19.4517 44.8667 19.5414 44.6132 19.552L43.1832 19.6131" stroke="#1F1F1F" stroke-width="0.5" stroke-linecap="round" stroke-linejoin="round"/>
<path d="M153.368 168.494C153.36 168.494 153.354 168.494 153.347 168.493C153.335 168.493 153.323 168.493 153.312 168.492C153.283 168.492 153.261 168.493 153.246 168.495L145.967 169.23L138.536 169.98C138.374 169.982 138.216 170.038 138.089 170.14C138.041 170.194 137.969 170.281 137.901 170.372C137.83 170.466 137.762 170.565 137.693 170.67C137.622 170.78 137.544 170.908 137.457 171.051C137.267 171.364 137.096 171.642 136.915 171.942C136.741 172.231 136.562 172.536 136.385 172.836C136.212 173.13 136.013 173.468 135.826 173.766C135.741 173.901 135.655 174.034 135.562 174.17C135.455 174.328 135.338 174.489 135.216 174.641C135.201 174.66 135.186 174.679 135.171 174.698" stroke="#1F1F1F" stroke-width="0.5" stroke-linecap="round" stroke-linejoin="round"/>
<path d="M154.703 166.438C154.69 166.44 154.677 166.441 154.664 166.442L139.177 167.963C138.692 168.053 138.24 168.267 137.863 168.584C137.485 168.901 137.197 169.31 137.025 169.771L135.417 172.574C135.394 172.613 135.372 172.652 135.349 172.691C135.329 172.727 135.308 172.763 135.287 172.798C135.267 172.833 135.247 172.868 135.227 172.902C135.205 172.938 135.184 172.974 135.162 173.01C135.14 173.047 135.117 173.084 135.095 173.12C135.073 173.155 135.05 173.191 135.028 173.225C135.006 173.258 134.985 173.29 134.963 173.322C134.943 173.352 134.923 173.38 134.903 173.409C134.884 173.435 134.865 173.462 134.845 173.487C134.827 173.512 134.808 173.536 134.789 173.56C134.77 173.583 134.751 173.606 134.731 173.629C134.712 173.651 134.692 173.673 134.673 173.694C134.653 173.716 134.633 173.736 134.613 173.756C134.593 173.776 134.573 173.795 134.552 173.813C134.532 173.832 134.511 173.849 134.49 173.866C134.469 173.883 134.448 173.899 134.426 173.914C134.405 173.929 134.383 173.943 134.361 173.957C134.34 173.971 134.318 173.983 134.296 173.995C134.274 174.007 134.252 174.018 134.23 174.029C134.208 174.039 134.185 174.048 134.163 174.057C134.141 174.066 134.118 174.074 134.096 174.082C134.073 174.089 134.05 174.096 134.028 174.103C134.005 174.109 133.982 174.115 133.959 174.12C133.935 174.126 133.911 174.131 133.887 174.135C133.862 174.14 133.837 174.144 133.812 174.148C133.786 174.152 133.76 174.156 133.733 174.159C133.705 174.163 133.677 174.166 133.649 174.169C133.618 174.173 133.588 174.176 133.558 174.179H133.557L117.837 175.846C117.78 175.852 117.723 175.858 117.667 175.864C117.566 175.875 117.466 175.886 117.364 175.896C117.265 175.906 117.164 175.917 117.062 175.927C116.958 175.938 116.852 175.948 116.744 175.959C116.646 175.968 116.547 175.977 116.445 175.987" stroke="#1F1F1F" stroke-width="0.5" stroke-linecap="round" stroke-linejoin="round"/>
<path d="M116.438 175.985L116.434 175.985L116.423 175.986L116.412 175.987L116.401 175.988L116.39 175.989L116.379 175.99L116.368 175.991L116.358 175.992L116.347 175.993L116.342 175.993C111.351 176.338 106.343 176.369 101.347 176.086C101.338 176.085 101.328 176.083 101.318 176.082C101.307 176.081 101.297 176.08 101.286 176.079" stroke="#1F1F1F" stroke-width="0.5" stroke-linecap="round" stroke-linejoin="round"/>
<path d="M1.28786 171.695C1.28452 171.696 1.28127 171.697 1.27798 171.698C1.25748 171.705 1.23874 171.711 1.2218 171.718C1.2065 171.724 1.19264 171.73 1.18012 171.737C1.16788 171.743 1.15698 171.75 1.14727 171.757C1.13719 171.764 1.12836 171.772 1.12105 171.781C1.11363 171.79 1.10775 171.801 1.10502 171.813C1.10399 171.818 1.10339 171.823 1.10339 171.828L1.10378 172.377C1.10327 172.411 1.1138 172.445 1.12755 172.472C1.14112 172.499 1.15786 172.518 1.17439 172.533C1.18073 172.539 1.18703 172.545 1.19351 172.55C1.45746 172.759 1.72139 172.968 1.98527 173.176C1.99256 173.182 2.00152 173.188 2.0122 173.194C2.03195 173.204 2.05751 173.215 2.08883 173.225C2.12013 173.236 2.15718 173.246 2.19962 173.256C2.24203 173.266 2.28986 173.277 2.34269 173.286C2.39558 173.296 2.45342 173.306 2.51718 173.315C2.58088 173.325 2.65047 173.334 2.7273 173.344C2.80409 173.353 2.88818 173.363 2.98001 173.372C3.07187 173.382 3.17155 173.392 3.27896 173.401C3.38638 173.411 3.50157 173.421 3.62533 173.43C3.74906 173.44 3.88137 173.45 4.02249 173.459C4.16368 173.469 4.31367 173.478 4.47815 173.488C4.64265 173.498 4.82161 173.508 5.01987 173.518C5.21812 173.529 5.43562 173.54 5.67217 173.551C5.90874 173.562 6.16434 173.574 6.43583 173.585C6.70734 173.597 6.99479 173.61 7.29649 173.622L101.606 177.657C106.773 177.992 111.958 177.919 117.113 177.44L132.844 175.74C132.962 175.727 133.08 175.714 133.198 175.701C133.315 175.689 133.434 175.676 133.551 175.663C133.617 175.656 133.682 175.649 133.741 175.643C133.799 175.636 133.852 175.63 133.901 175.624C133.95 175.617 133.995 175.611 134.036 175.605C134.076 175.598 134.111 175.592 134.141 175.586C134.171 175.58 134.196 175.574 134.217 175.569C134.238 175.563 134.255 175.558 134.269 175.553C134.278 175.549 134.286 175.545 134.292 175.541C134.347 175.501 134.401 175.461 134.454 175.419C134.457 175.417 134.46 175.414 134.463 175.412C134.519 175.367 134.576 175.32 134.63 175.272C134.634 175.268 134.638 175.264 134.643 175.261C134.69 175.219 134.736 175.176 134.781 175.132C134.828 175.087 134.874 175.04 134.919 174.992C134.96 174.948 135 174.903 135.038 174.86C135.039 174.858 135.041 174.856 135.043 174.854C135.071 174.821 135.098 174.788 135.122 174.759C135.133 174.745 135.144 174.733 135.153 174.722C135.157 174.716 135.161 174.711 135.167 174.704" stroke="#1F1F1F" stroke-width="0.5" stroke-linecap="round" stroke-linejoin="round"/>
<path d="M135.855 173.723L143.614 172.903C145.473 172.72 147.344 172.695 149.207 172.827C150.112 172.863 151.019 172.899 151.926 172.934C152.834 172.97 153.743 173.005 154.653 173.041C154.731 173.044 154.809 173.047 154.887 173.05C154.964 173.052 155.041 173.054 155.117 173.056C155.193 173.059 155.267 173.06 155.341 173.062C155.415 173.063 155.487 173.065 155.559 173.066C155.631 173.067 155.701 173.068 155.77 173.068C155.84 173.069 155.908 173.07 155.976 173.07C156.043 173.07 156.11 173.07 156.176 173.07C156.241 173.07 156.307 173.07 156.371 173.07C156.436 173.069 156.5 173.068 156.564 173.068C156.629 173.067 156.693 173.066 156.757 173.065C156.821 173.064 156.885 173.062 156.949 173.061C157.013 173.059 157.076 173.057 157.14 173.055C157.203 173.053 157.265 173.051 157.326 173.049C157.388 173.046 157.448 173.043 157.506 173.041C157.569 173.038 157.631 173.035 157.694 173.031C157.757 173.028 157.819 173.024 157.882 173.019C157.945 173.015 158.008 173.011 158.071 173.006C158.133 173.001 158.196 172.996 158.254 172.99C158.313 172.985 158.368 172.979 158.425 172.973C158.482 172.967 158.54 172.961 158.602 172.954C158.712 172.942 158.821 172.931 158.931 172.919C159.041 172.907 159.15 172.895 159.26 172.883L173.269 171.369C173.434 171.351 173.599 171.333 173.763 171.316C173.769 171.315 173.775 171.314 173.781 171.314C173.847 171.306 173.913 171.299 173.978 171.292C173.996 171.29 174.014 171.288 174.032 171.286C174.076 171.281 174.119 171.276 174.162 171.271C174.2 171.266 174.238 171.262 174.276 171.258C174.296 171.255 174.317 171.253 174.337 171.25C174.393 171.243 174.447 171.237 174.5 171.23C174.502 171.229 174.504 171.229 174.506 171.229C174.555 171.222 174.603 171.216 174.648 171.209C174.67 171.206 174.691 171.203 174.712 171.2C174.714 171.199 174.715 171.199 174.717 171.199C174.748 171.194 174.778 171.189 174.806 171.184C174.888 171.17 174.959 171.156 175.021 171.142C175.026 171.14 175.03 171.139 175.034 171.139C175.091 171.125 175.14 171.111 175.18 171.098C175.201 171.09 175.22 171.083 175.237 171.075C175.253 171.068 175.267 171.06 175.278 171.053C175.282 171.051 175.285 171.048 175.288 171.046C175.542 170.845 175.797 170.644 176.051 170.443C176.06 170.437 176.068 170.43 176.076 170.422C176.091 170.406 176.106 170.388 176.119 170.363C176.131 170.338 176.14 170.307 176.14 170.276C176.143 170.096 176.145 169.915 176.148 169.735C176.148 169.728 176.146 169.72 176.144 169.713C176.14 169.702 176.134 169.692 176.126 169.684C176.118 169.676 176.11 169.669 176.1 169.662C176.09 169.656 176.079 169.65 176.067 169.644C176.055 169.638 176.041 169.632 176.025 169.626C176.009 169.62 175.991 169.614 175.972 169.608" stroke="#1F1F1F" stroke-width="0.5" stroke-linecap="round" stroke-linejoin="round"/>
<path d="M13.3764 157.484L13.1317 157.501" stroke="#1F1F1F" stroke-width="0.5" stroke-linecap="round" stroke-linejoin="round"/>
<path d="M20.1106 39.3818L20.3545 39.3987" stroke="#1F1F1F" stroke-width="0.5" stroke-linecap="round" stroke-linejoin="round"/>
<path d="M13.0676 39.6138L13.3126 39.6305" stroke="#1F1F1F" stroke-width="0.5" stroke-linecap="round" stroke-linejoin="round"/>
<path d="M43.5969 11.2613L101.194 8.53516" stroke="#1F1F1F" stroke-width="0.5" stroke-linecap="round" stroke-linejoin="round"/>
<path d="M40.6545 1.32765C40.644 1.32529 40.6335 1.32313 40.6229 1.32104L40.6545 1.32765Z" stroke="#1F1F1F" stroke-width="0.5" stroke-linecap="round" stroke-linejoin="round"/>
<path d="M40.5804 1.30957L40.7346 1.3514" stroke="#1F1F1F" stroke-width="0.5" stroke-linecap="round" stroke-linejoin="round"/>
<path d="M6.3562 29.6677C6.49799 29.6998 6.63935 29.7115 6.77576 29.7063" stroke="#1F1F1F" stroke-width="0.5" stroke-linecap="round" stroke-linejoin="round"/>
<path d="M41.1199 1.50749C40.9939 1.43675 40.8635 1.38436 40.7334 1.34912" stroke="#1F1F1F" stroke-width="0.5" stroke-linecap="round" stroke-linejoin="round"/>
<path d="M101.248 25.4202C101.231 25.4301 101.216 25.4442 101.204 25.461" stroke="#1F1F1F" stroke-width="0.5" stroke-linecap="round" stroke-linejoin="round"/>
<path d="M101.248 26.8752C101.231 26.8852 101.216 26.8992 101.204 26.916" stroke="#1F1F1F" stroke-width="0.5" stroke-linecap="round" stroke-linejoin="round"/>
<path d="M101.204 25.7061C101.216 25.722 101.231 25.7348 101.247 25.7435" stroke="#1F1F1F" stroke-width="0.5" stroke-linecap="round" stroke-linejoin="round"/>
<path d="M101.204 27.1536C101.216 27.1695 101.231 27.1823 101.247 27.191" stroke="#1F1F1F" stroke-width="0.5" stroke-linecap="round" stroke-linejoin="round"/>
<path d="M6.84152 29.7261L6.77344 29.7107" stroke="#1F1F1F" stroke-width="0.5" stroke-linecap="round" stroke-linejoin="round"/>
<path d="M40.7353 1.34683C40.7099 1.3399 40.6842 1.33361 40.6584 1.32788" stroke="#1F1F1F" stroke-width="0.5" stroke-linecap="round" stroke-linejoin="round"/>
<path d="M101.193 8.53521C101.196 8.5351 101.199 8.53515 101.201 8.5355L101.193 8.53521Z" stroke="#1F1F1F" stroke-width="0.5" stroke-linecap="round" stroke-linejoin="round"/>
<path d="M101.207 8.60261C101.207 8.60115 101.207 8.59963 101.207 8.59811C101.208 8.5966 101.208 8.59498 101.208 8.59336C101.208 8.59179 101.208 8.59005 101.209 8.58827C101.209 8.58654 101.21 8.58477 101.21 8.58298C101.211 8.58125 101.212 8.57957 101.212 8.57789C101.213 8.57632 101.214 8.57483 101.215 8.57353C101.216 8.57218 101.217 8.571 101.219 8.57003C101.22 8.56905 101.221 8.56826 101.223 8.56772C101.224 8.56728 101.226 8.56703 101.227 8.56719L101.207 8.60261Z" stroke="#1F1F1F" stroke-width="0.5" stroke-linecap="round" stroke-linejoin="round"/>
<path d="M101.228 8.57117C101.229 8.55417 101.214 8.53548 101.2 8.53516L101.228 8.57117Z" stroke="#1F1F1F" stroke-width="0.5" stroke-linecap="round" stroke-linejoin="round"/>
<path d="M101.24 76.5796C101.24 76.5796 101.239 76.5796 101.24 76.5796Z" stroke="#1F1F1F" stroke-width="0.5" stroke-linecap="round" stroke-linejoin="round"/>
<path d="M139.079 167.973L139.177 167.964" stroke="#1F1F1F" stroke-width="0.5" stroke-linecap="round" stroke-linejoin="round"/>
<path d="M101.239 89.4871L101.256 8.60296C101.256 8.59601 101.257 8.58894 101.259 8.58231C101.262 8.57296 101.267 8.56431 101.273 8.55669C101.277 8.55173 101.282 8.54725 101.287 8.54343C101.29 8.54156 101.292 8.53985 101.295 8.53834C101.305 8.53338 101.315 8.53051 101.326 8.52999C106.847 8.14622 112.391 8.23495 117.897 8.79516L174.087 15.5183C174.158 15.527 174.23 15.5355 174.302 15.5442C174.37 15.5524 174.438 15.5604 174.505 15.5686C174.568 15.5761 174.63 15.5837 174.692 15.5912C174.749 15.5982 174.805 15.6051 174.861 15.6122C174.913 15.6185 174.963 15.625 175.014 15.6314C175.06 15.6374 175.105 15.6432 175.15 15.6492C175.19 15.6547 175.231 15.6602 175.27 15.6657C175.306 15.6707 175.341 15.6757 175.375 15.6808C175.406 15.6855 175.437 15.6901 175.467 15.6948C175.494 15.699 175.52 15.7033 175.546 15.7076C175.57 15.7116 175.593 15.7156 175.616 15.7196C175.638 15.7236 175.659 15.7274 175.68 15.7315C175.702 15.7356 175.723 15.7398 175.744 15.7439C175.764 15.7482 175.785 15.7525 175.804 15.7568C175.823 15.7609 175.841 15.7651 175.859 15.7692C175.876 15.7733 175.893 15.7774 175.909 15.7815C175.927 15.786 175.943 15.7904 175.959 15.7948C175.977 15.7998 175.994 15.8047 176.01 15.8097C176.028 15.8152 176.046 15.8208 176.062 15.8264C176.08 15.8328 176.097 15.8392 176.113 15.8458C176.131 15.853 176.148 15.8604 176.163 15.868C176.178 15.8758 176.192 15.8838 176.205 15.8924C176.217 15.9007 176.229 15.9096 176.239 15.9198C176.25 15.9299 176.259 15.9413 176.266 15.9551C176.274 15.9691 176.279 15.9855 176.28 16.0035C176.28 16.0049 176.28 16.0064 176.28 16.0078L176.147 169.458C176.147 169.465 176.147 169.471 176.145 169.478C176.143 169.487 176.14 169.496 176.136 169.505C176.132 169.512 176.127 169.519 176.122 169.525C176.121 169.527 176.12 169.528 176.118 169.53C176.115 169.534 176.111 169.537 176.108 169.54C176.103 169.545 176.098 169.549 176.092 169.553C176.087 169.557 176.082 169.561 176.076 169.564C176.071 169.567 176.065 169.571 176.06 169.574C176.054 169.577 176.048 169.58 176.042 169.583C176.036 169.586 176.029 169.589 176.022 169.592C176.016 169.595 176.009 169.598 176.002 169.6C175.995 169.603 175.987 169.606 175.98 169.609C175.972 169.612 175.964 169.614 175.956 169.617C175.948 169.62 175.939 169.623 175.931 169.625C175.922 169.628 175.913 169.631 175.904 169.633C175.895 169.636 175.885 169.639 175.876 169.641C175.866 169.644 175.856 169.646 175.846 169.649C175.836 169.652 175.826 169.654 175.815 169.657C175.804 169.659 175.794 169.662 175.782 169.664C175.771 169.667 175.76 169.67 175.748 169.672C175.736 169.675 175.724 169.677 175.711 169.68C175.697 169.683 175.683 169.685 175.669 169.688C175.653 169.691 175.637 169.694 175.62 169.697C175.601 169.701 175.583 169.704 175.564 169.707C175.543 169.711 175.522 169.714 175.501 169.718C175.479 169.721 175.456 169.725 175.433 169.728C175.411 169.732 175.389 169.735 175.367 169.738C175.346 169.741 175.324 169.744 175.302 169.747C175.28 169.75 175.257 169.753 175.235 169.756C175.209 169.759 175.184 169.763 175.158 169.766C175.132 169.769 175.106 169.772 175.079 169.776C175.053 169.779 175.028 169.782 175.001 169.785C174.973 169.788 174.945 169.791 174.916 169.795C174.884 169.798 174.852 169.802 174.819 169.806C174.788 169.809 174.756 169.813 174.724 169.816C174.696 169.819 174.667 169.823 174.639 169.826C174.613 169.829 174.587 169.831 174.56 169.834C174.536 169.837 174.512 169.839 174.488 169.842C174.466 169.844 174.444 169.847 174.422 169.849C174.402 169.851 174.381 169.853 174.361 169.856C174.342 169.858 174.324 169.86 174.305 169.862C174.288 169.864 174.271 169.865 174.254 169.867C174.238 169.869 174.222 169.87 174.206 169.872C174.191 169.874 174.176 169.875 174.161 169.877C174.146 169.879 174.131 169.88 174.117 169.882C174.111 169.882 174.106 169.883 174.1 169.883C174.091 169.884 174.082 169.885 174.072 169.886C174.058 169.888 174.044 169.889 174.03 169.891C174.017 169.892 174.004 169.894 173.991 169.895C173.979 169.896 173.967 169.898 173.954 169.899L159.955 171.383C159.923 171.386 159.89 171.39 159.856 171.393C159.849 171.394 159.842 171.394 159.835 171.395C159.803 171.398 159.77 171.401 159.738 171.404C159.733 171.404 159.728 171.405 159.723 171.405C159.676 171.409 159.629 171.413 159.582 171.414C159.536 171.416 159.49 171.416 159.445 171.413C159.43 171.412 159.416 171.411 159.402 171.41C159.116 171.319 158.855 171.165 158.638 170.959C158.422 170.752 158.255 170.499 158.15 170.219L157.468 169.133C157.111 168.56 156.811 168.083 156.569 167.703C156.415 167.385 156.189 167.106 155.911 166.888C155.632 166.67 155.308 166.518 154.962 166.444C154.957 166.443 154.953 166.443 154.949 166.443C154.917 166.44 154.885 166.438 154.853 166.438C154.821 166.437 154.789 166.438 154.757 166.439C154.726 166.44 154.695 166.442 154.664 166.445" stroke="#1F1F1F" stroke-width="0.5" stroke-linecap="round" stroke-linejoin="round"/>
<path d="M13.1354 157.502C13.1367 157.502 13.1381 157.502 13.1396 157.501C13.22 157.487 13.2993 157.482 13.3758 157.485C14.0789 157.451 14.7459 158.312 14.7781 159.185C14.8103 160.059 14.2076 160.946 13.5032 160.942L13.2585 160.96" stroke="#1F1F1F" stroke-width="0.5" stroke-linecap="round" stroke-linejoin="round"/>
</svg>
