<svg width="219" height="210" fill="none" xmlns="http://www.w3.org/2000/svg"><path d="m74.38 17.24 32.9-1.35s8.46-.5 16.41 0c7.95.5 85.83 6.44 85.83 6.44l.07 168.28v.67h-.87l.17 1.9h-1.79l.11 1.34h-8.6l-.22-.95-75.69 4.27v1.49h-12.82v-1.55l-88.8-2.88v.93l-10.11-.22v-1.26l-1.86-.03v-1.72l-.72-.03.59-171.71s.39-.45 2.04-.48c1.65-.03 3-.06 3-.06s1.02-2.43 2.13-2.49c1.11-.06 32.78-1.69 32.78-1.69s.71-.19 1.87.06c1.16.25 2.96 2 2.96 2l10.55-.45.06-1.16h-1.8l-.06-1.48h11.97l-.09 2.14-.01-.01Z" stroke="#050101" stroke-width="2" stroke-linecap="round" stroke-linejoin="round"/><path d="m102.201 103.34-3.1.03h-.151l-2.18.02c-.29 0-.57.09-.84.26-.24.16-.46.38-.63.65-.32.49-.5 1.12-.5 1.77 0 .65.17 1.28.49 1.77.18.27.39.49.63.64.26.17.54.25.83.25h.01l9.09-.03h.01c.55-.03 1.07-.33 1.47-.82v-3.81a2 2 0 0 0-.55-.5c-.27-.16-.56-.25-.86-.26l-3.7.03h-.02Zm.45 2.3v.73c0 .08 0 .15-.04.25a.45.45 0 0 1-.17.19c-.04.02-.09.04-.15.04h-.6s-.01 0-.02-.01c-.03 0-.06 0-.08-.02a.399.399 0 0 1-.17-.19v-.02c0 .03-.01.05-.02.08-.05.08-.12.14-.21.16-.05.01-.11.01-.16.01h-.67c-.03 0-.07-.02-.09-.04 0 0-.02 0-.03.01-.02.01-.04.03-.06.03h-.22c-.01 0-.02-.01-.03-.01-.02 0-.05-.01-.06-.03 0 0 0-.02-.01-.02-.01-.02-.03-.04-.03-.07v-.7h-.07v.7s-.01.03-.02.04c0 .02 0 .04-.02.05 0 0-.02 0-.03.01-.02.01-.04.03-.06.03h-.22c-.07 0-.13-.06-.13-.13v-.7h-.08v.7c0 .07-.06.13-.13.13h-.23c-.04 0-.07-.02-.1-.04-.02.03-.06.05-.1.05h-.85a.33.33 0 0 1-.19-.06.374.374 0 0 1-.12-.13.689.689 0 0 0-.03-.08c-.02.04-.02.08-.05.11-.07.09-.16.15-.26.16h-.87c-.04 0-.07-.01-.1-.04 0 0 0-.02-.01-.03-.01-.02-.03-.04-.03-.07v-1.04s0-.01.01-.02c0-.02 0-.03.02-.05 0-.02.02-.03.03-.04 0 0 0-.01.01-.02h.01s-.04-.02-.05-.04c0 0-.02 0-.02-.01v-.38c0-.02 0-.03.02-.05 0-.01.02-.03.03-.04 0 0 0-.01.01-.01l.22-.12h.03s.02-.01.03-.01h.02c.02 0 .03 0 .05.02.02 0 .03.02.04.03 0 0 .01 0 .02.01v.03c0 .01.01.02.01.03v.15h.32s.05.02.08.02h.02c.03 0 .06.01.09.03.01 0 .03 0 .05.01l.01.01c.06.04.12.08.17.16.04.06.07.13.08.22.01.08.01.15 0 .23 0 .05-.03.09-.05.14.02.03.04.07.05.1 0-.02.01-.03.02-.05.03-.04.06-.06.1-.09-.02-.01-.02-.03-.03-.05h-.01l-.07-.23v-.04c0-.01 0-.02.01-.03 0-.02 0-.03.02-.05 0-.01.02-.02.04-.03 0 0 .01-.02.03-.02h.849c.04 0 .07 0 .1.02.06.02.12.07.16.13 0 .01.01.03.02.04v-.05s.01-.04.02-.05c0-.01 0-.03.02-.04.01-.01.04-.02.06-.03.01 0 .02-.01.04-.01h1.01c.07-.01.13-.01.16 0 .11.01.17.08.22.16v-.3s.01-.03.02-.05c0-.01 0-.04.02-.05.01-.01.03-.01.05-.02.02 0 .03-.02.05-.02h.23c.07 0 .13.06.13.13v.13h.34c.08 0 .15 0 .24.06.04.03.06.07.08.11v-.04s.01-.03.02-.05c0-.02 0-.04.02-.05 0 0 .02 0 .03-.01.02-.01.04-.03.06-.03h.21c.01 0 .02.01.03.01.02 0 .05.01.06.03 0 0 0 .02.01.03.01.02.03.04.03.07v.7h.31v-.71s.01-.03.02-.05c0-.01 0-.03.02-.05.01-.01.03-.01.05-.02.02 0 .03-.02.05-.02h.21c.07 0 .13.06.14.13m3.58-.16s.12 0 .19.06c.05.04.1.09.13.16.05.11.05.2.05.29v.41c0 .06-.01.12-.03.17-.05.14-.16.24-.29.25h-.79c-.04 0-.07-.02-.1-.04-.02.03-.06.05-.1.05h-.86c-.07 0-.13-.02-.18-.05-.01-.01-.02-.03-.03-.04 0 .01 0 .02-.02.04-.01.01-.02.02-.04.03-.01 0-.02.02-.03.02h-.88c-.04 0-.07-.01-.1-.04 0 0 0-.02-.01-.03-.01-.02-.03-.04-.03-.07v-1.34c0-.02.01-.03.02-.04 0-.02 0-.04.02-.05.01-.01.03-.01.05-.02.01 0 .03-.02.04-.02h.23c.04 0 .07.01.1.04.01.01.01.03.02.04 0 .02.02.03.02.05v.95h.4c.01 0 .02.01.03.01h.01c0-.09.01-.19.08-.28.03-.04.06-.06.1-.09-.02-.01-.03-.03-.04-.05 0 0-.01 0-.01-.01l-.07-.23v-.04c0-.01.01-.02.01-.03 0-.02 0-.03.02-.05.01-.01.02-.02.04-.03.01 0 .01-.02.03-.02h.79a.43.43 0 0 1 .16 0c.06.02.12.07.17.13 0 .01.01.03.02.05v-.33s.01-.03.02-.04c0-.02 0-.04.02-.05.01-.01.03-.01.05-.02.01 0 .03-.02.04-.02h.23s.03.01.04.02c.02 0 .04 0 .06.02 0 .01 0 .03.01.04.01.02.03.04.03.06v.13h.38v.01Z" fill="#F5F5F5"/><path d="M105.86 106.32h.25v-.34l-.25.01v.33Z" fill="#F5F5F5"/><path d="M106.221 106.32h-.04l.04.13v-.14.01Zm-.021.23h.03l-.02-.1-.01.1Zm-.569-.79s.03-.01.05-.02c-.02 0-.04 0-.05-.02v.04Zm-3.361.67.04-.01h-.06l.02.01Z" fill="#6AB82D"/><path d="M11.55 29.11c.02.39.22.7.58.91.12.07.25.11.43.13.17.02.33 0 .51 0h.02l20.38-.89s.02 0 .03-.02c.02-.02.03-.04.04-.06l4-11.96v-.06c0-.02-.01-.03-.01-.03h-.01a.375.375 0 0 0-.2-.09l-19.97.99c-.42.02-.71.04-1.07.2-.32.13-.62.34-.89.62-.25.25-.47.55-.65.89-.19.35-.3.7-.42 1.04l-2.44 7.18c-.14.4-.26.78-.29 1.17" fill="#F5F5F5"/><path d="M105.161 106.14v-.02s-.02 0-.03.01h.03" fill="#6AB82D"/><path d="M64.02 16.11c.38-.03.78-.05 1.27-.06.42-.01.85-.03 1.27-.03h1.27c.7 0 3.16 0 5.08.15.02 0 .03.01.04.02.02 0 .03.01.05.02.01.01.01.03.02.05 0 .01.02.03.02.04v1.12l1.29-.06-.03-1.85-.05-.05s-.21-.07-.66-.12c-.25-.03-.5-.05-.75-.07-1.25-.09-3.08-.15-4.92-.15h-.06c-.91 0-1.73.01-2.49.04-.41.02-.83.03-1.24.06-.16.01-.33.02-.49.04-.12.01-.24.03-.37.05-.08.01-.15.02-.23.04-.02 0-.04.01-.05.02l-.05.05-.02.83h.02c.05-.01.1-.02.14-.03.13-.02.26-.04.4-.05.18-.02.36-.03.55-.05m-14.24.98c-.24.05-.49.17-.73.35-.43.32-.8.82-.96 1.33-.09.26-.12.52-.09.75.02.19.1.44.32.6.24.16.52.14.72.1.23-.06.48-.18.71-.35.43-.32.78-.82.94-1.31.08-.25.12-.5.1-.72-.02-.18-.08-.43-.29-.6-.23-.18-.52-.17-.72-.13m-.78 2s-.01.02-.02.03c0 .01-.01.02-.02.03-.02.02-.04.02-.06.03h-.16c-.01 0-.01-.01-.03-.02-.02 0-.03-.02-.04-.03-.01-.01-.01-.02-.02-.04 0-.01-.01-.02-.02-.03v-.04c.09-.4.2-.74.36-1.1 0 0 .01 0 .01-.01 0-.02.02-.02.04-.04.01 0 .03-.02.04-.02h.18s0 .01.01.01.02.02.03.03c.01.02.02.03.03.05v.02c0 .01 0 .02-.01.03v.04c-.04.08-.07.17-.11.25-.03.09-.06.17-.09.26s-.06.17-.08.26c-.03.09-.05.18-.07.27m.8-1.09v.03c-.04.08-.07.16-.1.25l-.09.26c-.06.17-.11.35-.15.54 0 .02-.02.03-.03.04 0 0 0 .02-.02.03-.02.02-.06.04-.09.04h-.14c-.01 0-.02-.01-.03-.02-.02 0-.03-.01-.04-.03-.01-.01-.01-.03-.02-.05 0-.01-.01-.02-.01-.03v-.03c.04-.19.09-.38.16-.57l.05-.13c.02-.04.03-.09.05-.13.04-.09.07-.18.11-.26 0 0 .01 0 .02-.02.01-.01.02-.02.04-.03.01 0 .03-.01.04-.02 0 0 .01-.01.02-.01h.12s.02 0 .03.01h.03s0 .01.02.02c.01.01.02.02.03.04.01.02.02.03.02.05v.02s0 .02-.01.03" fill="#F5F5F5"/><path d="M64.33 16.57h.03c.07 0 .12.07.12.14v1.09l8.29-.4v-1.01c-1.26-.09-3.05-.14-4.84-.14-.46 0-.91 0-1.36.01-.42 0-.85.01-1.27.03-.49.02-.89.04-1.26.07-.18.01-.36.03-.54.05-.08 0-.16.02-.23.03.09.01.18.03.26.04.26.03.52.05.78.07m-26.52.75-4 11.94 12.94-.57c.56-.02.76-.25.92-.48.18-.26.3-.54.44-1l.09-.28c-.2.45-.52.86-.91 1.16-.26.2-.54.34-.81.4-.1.02-.21.04-.34.04-.14 0-.29-.04-.44-.1-.03 0-.05 0-.08-.03l-.08-.05c-.24-.17-.4-.45-.44-.8-.03-.26 0-.57.11-.87.19-.56.57-1.1 1.06-1.46.27-.2.56-.34.83-.4.36-.08.69-.01.94.18l.07.06s.01.03.02.04c.2.22.28.49.3.69.02.18 0 .39-.05.6l2.6-7.76c-.18.55-.56 1.08-1.04 1.44-.26.2-.54.34-.81.4-.11.03-.23.04-.33.04-.23 0-.43-.06-.6-.18-.31-.21-.41-.55-.44-.79-.03-.26 0-.56.11-.86.19-.56.57-1.1 1.06-1.46.27-.2.56-.34.83-.39.36-.08.7-.01.94.18l.07.06c.01.01.01.03.02.04.2.21.27.48.29.68.03.26-.01.54-.11.83l.22-.67c.09-.28.08-.42.03-.59-.06-.21-.16-.39-.3-.53-.14-.14-.36-.3-1-.45l-12.15.6s.03.07.04.1c.01.07.01.14 0 .2m3.3 1.06c.65-.34 1.32-.54 1.93-.57.66-.03 1.25.13 1.71.46.78.55 1.02 1.41 1.09 2.04.08.7-.02 1.49-.29 2.29a8.384 8.384 0 0 1-2.15 3.34c-.51.49-1.05.88-1.62 1.18-.66.35-1.33.54-1.94.57h-.15c-.62 0-1.18-.18-1.62-.51-.74-.57-.96-1.42-1.02-2.04-.06-.64.03-1.35.25-2.08 0 0 0-.02.01-.03.01-.05.03-.1.04-.15.41-1.22 1.17-2.4 2.14-3.33a7.12 7.12 0 0 1 1.62-1.18" fill="#F5F5F5"/><path d="M47.85 25.22c-.23-.18-.52-.17-.72-.13-.24.05-.49.17-.73.35-.43.32-.79.82-.96 1.33-.09.27-.12.53-.1.75.02.19.1.45.33.61.24.16.52.14.72.09.23-.06.48-.18.71-.36.42-.32.78-.81.94-1.31.09-.26.12-.51.1-.73-.02-.18-.08-.44-.29-.6Zm-.64 1.31c-.03.14-.11.27-.24.38-.12.1-.28.17-.42.17h-.14c-.14 0-.24.01-.38.03h-.05l-.02-.02c-.02 0-.03-.02-.05-.03 0-.01-.01-.02-.02-.04 0 0-.01-.02-.01-.03v-.04l.03-.11s.01-.01.01-.02c0-.02.02-.03.03-.04.01-.01.02-.02.04-.02 0 0 .01-.01.02-.01.13-.02.27-.03.4-.03h.15c.05 0 .12-.03.17-.07.05-.04.09-.1.1-.15 0-.02 0-.05-.01-.07-.01-.01-.03-.01-.06-.02-.07 0-.14 0-.2.01 0 .02-.02.05-.03.07 0 0-.01 0-.01.01v.03c-.03.04-.07.06-.11.06h-.07l-.24-.18s0-.02-.02-.02h-.02v-.03c0-.02-.01-.03 0-.05 0-.02 0-.03.01-.05v-.03s.01 0 .02-.01c0 0 0-.02.01-.02.15-.1.28-.18.42-.25h.11c.01 0 .02.02.03.03.01 0 .03.01.03.03v.07h.1c.13 0 .26.05.33.15.07.1.1.22.07.36" fill="#F5F5F5"/><path d="M38.83 22.89s-.04.01-.06.02l.04.03s.01-.03.02-.05Z" fill="#6AB82D"/><path d="M100.721 106.03v.33h.25v-.34l-.25.01ZM38.22 26.94c.42.33.98.48 1.59.46.57-.02 1.2-.21 1.82-.54.54-.29 1.07-.67 1.56-1.14.95-.9 1.69-2.05 2.08-3.23.25-.77.35-1.52.28-2.18-.06-.57-.28-1.36-.98-1.85-.42-.3-.95-.44-1.54-.41-.57.03-1.2.21-1.81.54-.54.28-1.06.67-1.55 1.13-.94.9-1.68 2.05-2.07 3.22-.25.75-.35 1.49-.29 2.14.06.56.26 1.34.92 1.85m2.61-1.07s-.01.03-.02.05c0 .02 0 .03-.02.04-.15.15-.3.29-.45.43-.03.02-.06.04-.09.04h-.02c-.02 0-.03-.02-.05-.03-.01 0-.02 0-.03-.01-.01-.01-.01-.03-.02-.05 0-.02-.01-.03-.01-.05.02-.13.03-.27.04-.41 0-.03.02-.05.03-.07v-.01c.02-.02.04-.02.06-.03.01 0 .02-.01.03-.01h.2l.2-.02c.02 0 .04.01.05.02.01 0 .03 0 .04.02.01.01.01.03.02.05 0 .01.02.02.02.04m3.2-3.49.01-.02v-.02s.02 0 .03-.02c.01-.01.03-.02.04-.03h.08s0 .01.02.01h.02l.23.16v.01h.02s0 .02.01.03c0 .02.01.03.02.05 0 .02 0 .03-.01.05v.04h-.01v.02c-.13.11-.27.22-.4.33-.03.02-.05.03-.08.03h-.04c-.02 0-.02-.02-.04-.03 0 0-.02 0-.03-.01v-.01c0-.01-.01-.03-.01-.05v-.07c.06-.16.11-.33.16-.49m-1.81-2.7v-.04c.1-.18.19-.36.28-.55 0-.02.02-.02.04-.03.01-.01.03-.03.04-.03h.09c.02 0 .03.03.04.04.01.01.02.02.03.04.04.18.09.36.13.54v.02c0 .01-.01.02-.01.04s0 .03-.02.05c0 .01-.03.02-.04.03-.01 0-.02.02-.03.02h-.22l-.21.02s-.04 0-.06-.01c0 0 0-.01-.01-.01a.138.138 0 0 1-.03-.04c0-.01-.02-.03-.02-.04v-.02c0-.01 0-.02.01-.03M40 22.91c.17-.49.47-.97.87-1.35.21-.2.43-.36.66-.48.27-.14.54-.22.8-.23.27 0 .52.05.72.19.19.13.32.32.4.56.07.2.09.42.07.66-.04.5-.25.93-.41 1.21-.22.37-.51.7-.84.95-.39.3-.81.47-1.19.49h-.06c-.49 0-.87-.26-1.04-.7-.18-.49-.06-1.03.03-1.3m-1.62-.04v-.05c0-.02 0-.03.01-.05v-.01c0-.01.02-.01.03-.02.01 0 .02-.02.03-.03.19-.06.38-.13.56-.2h.08c.02 0 .02.02.04.03.01.01.03.02.04.04v.09c-.05.17-.11.33-.17.5H39v.03c-.03.04-.07.06-.11.06h-.04l-.01-.01h-.02l-.4-.29s-.03-.04-.03-.06h-.02v-.01" fill="#F5F5F5"/><path d="M51.47 17.29c.06.21.08.41-.04.75l-3.09 9.23c-.15.49-.28.79-.47 1.07-.2.29-.48.57-1.13.6l-13.28.58-20.38.9h-.01c-.1.01-.2.02-.31.02-.08 0-.16 0-.24-.01-.18-.02-.32-.07-.45-.13-.01 0-.03 0-.04-.01-.02-.01-.03-.02-.05-.04-.01 0-.03 0-.04-.02v-.01c-.03-.02-.05-.04-.08-.06.02.02.03.04.06.06l1.91 1.48c.14.11.31.17.52.2.19.03.4.01.61 0l32.63-1.4c.44-.02.74-.04 1.13-.21.33-.14.65-.36.94-.65.27-.26.5-.58.69-.93.19-.36.31-.72.44-1.09l2.41-7.3v-.03c.15-.4.28-.82.3-1.25 0-.23-.02-.44-.08-.62a.932.932 0 0 0-.35-.47l-1.99-1.38c-.03-.02-.07-.02-.09-.03.04.04.09.07.12.11.17.18.29.39.37.64" fill="#F5F5F5"/><path d="M41.04 24.68c.33-.01.7-.17 1.04-.43.3-.23.57-.54.77-.88.15-.25.34-.65.37-1.1.02-.2 0-.39-.06-.55a.777.777 0 0 0-.3-.42.847.847 0 0 0-.55-.15c-.21.01-.45.08-.68.2-.21.11-.41.26-.6.44-.36.35-.65.79-.8 1.24-.08.24-.19.71-.04 1.12.14.36.43.55.84.53m-.23-1.91a.95.95 0 0 1 .09-.21c.05-.09.11-.15.18-.2.07-.05.17-.08.27-.08.12 0 .19.04.23.1v-.02s.01 0 .02-.02.02-.03.04-.04c.01 0 .02-.01.04-.02 0 0 .01-.01.02-.01h.17c.01 0 .02.02.03.03l.02.02.01.01c.01-.01.02-.02.04-.03.01-.01.03-.01.05-.02.01 0 .02-.02.04-.02h.15c.02 0 .03.01.04.02.02 0 .04.01.05.02.01.01.01.03.02.05 0 .02.02.03.02.04 0 .01-.01.02-.02.04 0 .02-.01.04-.03.05-.06.05-.12.11-.18.16-.04.04-.08.07-.12.11.03.1.07.23.1.31v.03s.01.01.01.02c0 0 0 .02-.01.03 0 .02 0 .03-.02.04-.01.01-.02.02-.04.03l-.02.02h-.2c-.05 0-.09-.04-.11-.08-.02.05-.06.08-.11.09h-.16c-.01 0-.02-.01-.03-.02-.02 0-.03-.02-.04-.03 0 0-.01 0-.02-.01 0 0-.01.02-.02.02a.36.36 0 0 1-.18.07c-.03 0-.07.01-.11.01h-.07a.234.234 0 0 1-.2-.19c-.02-.09 0-.19.05-.33" fill="#F5F5F5"/><path d="m53.45 20.62-2.42 7.3c-.13.39-.25.75-.45 1.14-.2.38-.45.71-.74.99-.32.31-.66.55-1.03.7-.43.18-.76.2-1.22.22l-32.63 1.41h-.33c-.11 0-.22 0-.32-.02-.04 0-.07-.02-.11-.03l.07 12.35 90.6-3.28 2.37-.09.03-25.11-53.54 2.6c.02.14.04.28.03.43-.02.46-.16.9-.3 1.32v.03l-.01.04Z" fill="#F5F5F5"/><path d="M42.58 19.56v.02h.01v-.02m60.801 86.99v.02h.05s-.02 0-.03-.01h-.02" fill="#6AB82D"/><path d="M26.72 178.27h-.02c-.28.01-.46.25-.52.35-.11.19-.18.44-.18.69 0 .27.07.53.2.73.07.11.26.36.55.36h.02c.28 0 .46-.25.52-.36.11-.19.18-.43.18-.69 0-.27-.07-.53-.2-.73-.07-.11-.26-.35-.55-.35Zm-7.25-132.8c-.18 0-.36.07-.53.19-.15.11-.29.26-.4.44-.2.33-.32.75-.33 1.18 0 .44.1.86.3 1.18.11.18.25.33.41.43.17.11.35.17.54.16l.32.02c.18 0 .36-.07.53-.18.15-.11.29-.25.4-.43.2-.32.32-.74.33-1.16.02-.45-.14-.88-.44-1.22-.3-.34-.71-.54-1.15-.59m.36 1.97s-.02.05-.03.07c0 .04-.01.07-.05.1l-.25.21a.15.15 0 0 1-.11.04c-.02 0-.04-.01-.06-.02-.02 0-.03 0-.05-.01l-.25-.19s-.05-.06-.05-.1c-.01-.02-.03-.05-.03-.07v-.4c0-.03.01-.05.03-.07 0-.04.02-.07.05-.1l.25-.21c.06-.05.15-.05.22 0l.25.19s.05.06.05.1c.02.02.03.05.03.08v.4-.02Z" fill="#F5F5F5"/><path d="M26.22 46.83v.36l.17.13.18-.14v-.36l-.17-.13-.18.14Zm-7 .26v.36l.17.12.17-.14v-.36l-.17-.13-.17.15Z" fill="#BDBCBC"/><path d="m107.181 103.07.07-61.67-2.36.09-90.61 3.28-.22 137.16 93.04 2.4.08-75.42c-.12.03-.24.05-.36.06l-10.08.04c-.34 0-.67-.1-.97-.29-.27-.18-.52-.42-.71-.72-.35-.53-.54-1.21-.53-1.92 0-.7.2-1.38.54-1.91.2-.31.44-.55.71-.73.31-.2.64-.3.98-.31l2.33-.03 4.51-.04h.01l2.28-.02h.97c.11 0 .21.02.32.04m-86.45 76.1c0 .3-.08.59-.22.82-.18.3-.45.47-.74.49h-.03c-.3 0-.58-.17-.78-.48-.15-.24-.24-.55-.24-.87 0-.3.08-.59.22-.82.18-.3.45-.47.74-.49.32 0 .6.16.8.48.15.24.24.55.24.87m.22-130.58c-.13.21-.29.38-.48.51-.21.15-.44.23-.68.23h-.34l-.03-.01c-.23 0-.46-.07-.66-.2-.19-.12-.35-.3-.49-.51-.23-.37-.35-.84-.34-1.33 0-.48.14-.95.37-1.32.13-.21.29-.39.48-.52.21-.15.44-.23.68-.24.52.05.99.29 1.34.68.35.4.53.9.51 1.41a2.6 2.6 0 0 1-.38 1.3m6.79 130.76c0 .3-.08.6-.22.83-.18.3-.45.47-.75.48h-.03c-.3 0-.58-.17-.78-.48-.16-.25-.24-.56-.24-.88 0-.3.08-.6.22-.83.18-.3.45-.47.74-.48.31-.02.61.16.81.48.16.25.24.56.24.88m.22-131c-.13.21-.3.38-.48.51-.21.14-.44.22-.68.23h-.01l-.32-.02h-.03c-.23 0-.46-.07-.66-.2-.19-.12-.36-.3-.49-.52-.23-.37-.35-.84-.35-1.33 0-.48.14-.95.37-1.33.13-.22.3-.39.48-.52.21-.15.44-.23.68-.24h.099l.33.02c.24.01.46.1.67.25.18.13.33.31.46.53.21.37.32.84.31 1.32a2.6 2.6 0 0 1-.38 1.3Z" fill="#BDBCBC"/><path d="M106.83 103.29s.05.03.07.04c.15.09.29.2.42.32v-.28c-.15-.05-.3-.08-.46-.08h-.03Zm-.059 5.4h.04c.17 0 .33-.04.49-.1v-.32c-.17.16-.34.31-.54.42m-87.071 69.4c-.28.01-.46.25-.52.35-.11.19-.18.43-.18.68 0 .27.07.53.2.73.07.11.26.35.55.35h.02c.28-.01.46-.25.52-.35.11-.19.18-.43.18-.69 0-.27-.07-.53-.2-.73-.07-.11-.26-.38-.57-.36" fill="#F5F5F5"/><path d="M96.4 106.07s.03-.01.05-.02c-.02 0-.04 0-.05-.02v.04Zm3.07-.25s.03.01.04.02c.01-.01.02-.03.04-.04h-.1l.02.02Zm.43.12.01-.01-.01-.03v.04Zm.59-.14s.03-.01.04-.02c0 0-.04-.01-.05-.02v.04h.01Z" fill="#6AB82D"/><path d="M96.96 105.79v-.06h-.01l-.06.01h-.25v.06h.33v-.01m-.34.51v.09h.38v-.05c0-.02 0-.04-.01-.05h-.36l-.01.01Z" fill="#F5F5F5"/><path d="M98.46 106.19s.02 0 .02.01v-.02h-.02m-1.3-.25s-.02.08-.06.1c-.02 0-.03.01-.05.01.03 0 .05 0 .09.02v.01-.09c.01-.02.02-.05.03-.08 0 0-.01.02-.02.02" fill="#6AB82D"/><path d="M27.41 45.43a.963.963 0 0 0-.53-.2h-.08l-.32-.02c-.19 0-.37.07-.54.19-.15.11-.29.26-.41.44-.21.33-.32.75-.33 1.18 0 .44.1.86.31 1.19.11.18.25.33.41.43.17.11.37.17.55.16h.33c.18 0 .36-.05.53-.17.15-.11.29-.25.4-.43.21-.32.33-.73.34-1.16.01-.43-.08-.85-.27-1.18-.11-.18-.24-.34-.38-.44m-.57 1.37v.4s-.02.05-.03.08c0 .04-.02.07-.05.1l-.25.21a.21.21 0 0 1-.11.04c-.03 0-.06-.01-.08-.03h-.03l-.25-.19s-.05-.06-.05-.1c-.01-.02-.03-.05-.03-.07v-.4c0-.03.02-.05.03-.07 0-.04.02-.07.04-.09l.25-.21c.06-.05.15-.05.22 0l.25.19c.03.02.04.05.04.09.02.02.03.04.03.07m181.61 144.61c-.42.03-.85.06-1.27.08l-83.11 4.32c-2.31.2-3.93.25-5.35.25-.7 0-1.35-.01-2.01-.02h-.75c-.69-.02-1.42-.03-2.2-.04-1.84-.02-3.93-.04-6.52-.12h-.11l-93.3-3.01s-.03-.02-.04-.02c-.02 0-.04 0-.05-.02-.01-.01-.01-.03-.02-.05h-.06l-.59-.02-1.62-.06c-.45-.02-.91-.04-1.36-.07-.22-.02-.45-.03-.67-.06l.08 1.62v.03c.03.03.04.04.06.05.04.02.09.03.14.03l.18.03.24.03c.29.03.58.05.87.07.55.03 1.1.06 1.75.08l96.71 3.21c1.14.04 2.33.07 3.63.08h.9c.54.01 1.08.01 1.62.01h1.12c.61 0 1.21 0 1.82-.02.61 0 1.21-.02 1.82-.04 1.39-.03 2.54-.08 3.63-.14l82.67-4.39c.43-.02.85-.05 1.28-.08.21-.02.42-.04.63-.07.06 0 .11-.02.17-.03.04 0 .08-.02.12-.03.03-.01.05-.02.07-.03.01 0 .02-.01.03-.02 0 0 .01-.02.01-.04l.08-1.59-.59.06m-89.929 6.68c-.61.01-1.21.02-1.82.02h-3.64c-1.04-.02-2-.04-2.93-.07l.14 1.01s.06.01.08.02c.05 0 .09.01.14.02.14.02.28.03.42.04.2.02.39.03.59.03.46.02.91.04 1.37.05l1.37.03h1.37c.78 0 3.46 0 5.47-.11.26-.01.51-.03.77-.05.13-.01.25-.02.38-.04.06 0 .12-.02.18-.03.02 0 .05-.01.07-.02l.04-1.01c-.67.03-1.39.05-2.18.07-.61.01-1.21.03-1.82.03m80.229-4.13.29.48c1.14 0 2.27 0 3.41-.01 1.1-.01 2.6-.04 3.48-.08.21-.01.42-.02.63-.04.1 0 .21-.02.31-.03.05 0 .1-.01.15-.02.02 0 .03 0 .05-.01l.15-.74c-.19.01-.38.03-.57.04l-7.9.42v-.01Zm-188.68-1.56c.45.03.9.05 1.35.07l1.62.06.55.02.1-4.77v-5.69h.01c0-.05.04-.09.08-.11L14 44.66l-.07-12.57c-.1-.04-.19-.09-.27-.15l-1.91-1.47c-.19-.15-.32-.35-.4-.6-.07-.2-.09-.44-.07-.69v-.06s0-.02.01-.03c.04-.41.17-.81.3-1.19v-.02l2.44-7.18s.02-.04.02-.06l-.73-.02-1.61.09c-.44.02-.9.06-1.36.1-.22.02-.45.05-.67.08-.11.02-.22.04-.32.07-.05.01-.1.03-.14.05 0 .02-.01.03-.02.04l-.28 171.24c.06 0 .12 0 .16.01.11.02.22.03.33.04l.67.06m1.25 2.34v.58s.02 0 .03.01c.04 0 .08.01.13.02l.37.03.52.03c.4.02.81.03 1.21.04.73.02 1.52.03 2.43.03 1.59 0 3.45-.01 4.76-.03l.15-.39-8.24-.27c-.5-.02-.94-.03-1.37-.06" fill="#F5F5F5"/><path d="M49.79 17.91s-.02-.02-.03-.04c0 0 0-.01-.02-.02h-.2c-.02 0-.03.01-.04.02-.02 0-.03.02-.04.04 0 0-.01 0-.02.02-.04.09-.08.18-.11.26-.02.04-.03.09-.05.13l-.04.13c-.06.19-.12.38-.16.57v.04c0 .01.01.02.01.03 0 .02 0 .03.02.04.01.01.03.02.04.03.01 0 .02.02.03.02h.14s.07-.02.09-.04c0 0 0-.02.02-.03 0-.01.02-.02.03-.04.04-.19.09-.37.15-.54l.09-.26c.03-.08.07-.17.11-.25v-.03c0-.01.01-.02.01-.03 0 0 0-.01-.01-.02 0-.02 0-.03-.02-.05m-8.8 7.06h.06c.38-.02.81-.19 1.19-.49.33-.25.62-.58.84-.95.17-.28.37-.72.41-1.21.02-.24 0-.46-.07-.66-.08-.24-.21-.43-.4-.56-.2-.14-.45-.2-.72-.19-.25.01-.53.09-.8.23-.23.12-.45.28-.66.48-.39.38-.7.86-.87 1.35-.09.28-.22.82-.04 1.3.17.44.56.7 1.04.7m-.75-1.92c.15-.45.43-.89.8-1.24.19-.18.39-.32.6-.43.23-.12.47-.19.68-.2.21-.01.4.04.55.15.14.1.24.24.3.42.05.16.07.35.06.55-.03.44-.22.84-.37 1.1-.2.34-.47.64-.77.88-.35.26-.71.42-1.04.43-.41.02-.7-.17-.84-.53-.16-.41-.04-.88.04-1.12" fill="#060001"/><path d="m37.28 23.01-.01.02c-.22.73-.31 1.44-.25 2.08.06.62.29 1.47 1.03 2.04.44.34 1 .52 1.62.52h.15c.61-.03 1.28-.22 1.93-.57.57-.3 1.11-.69 1.62-1.18.98-.93 1.74-2.12 2.15-3.34.27-.8.37-1.6.29-2.3-.07-.63-.31-1.49-1.09-2.04-.47-.33-1.05-.49-1.71-.46-.61.03-1.28.23-1.93.57-.56.3-1.11.69-1.61 1.18-.98.93-1.74 2.11-2.14 3.33-.02.05-.03.1-.04.15m2.37-3.28c.49-.47 1.01-.85 1.55-1.13.62-.33 1.25-.51 1.82-.54.59-.03 1.12.11 1.54.41.69.49.92 1.28.98 1.85.07.66-.02 1.41-.28 2.18-.39 1.18-1.13 2.33-2.08 3.23-.49.47-1.01.85-1.56 1.14-.62.33-1.25.51-1.82.54-.61.02-1.17-.13-1.59-.46-.66-.51-.87-1.29-.92-1.85-.06-.65.04-1.39.29-2.14.39-1.18 1.13-2.32 2.07-3.22M19.49 45.2h-.01c-.24 0-.47.09-.68.24-.18.13-.35.3-.48.52-.23.37-.36.84-.37 1.32 0 .49.11.96.34 1.33.13.22.3.39.49.51.2.13.43.2.66.2h.03l.32.02h.01c.23 0 .47-.09.68-.24.18-.13.34-.3.48-.51.23-.37.36-.83.38-1.3.02-.52-.16-1.02-.51-1.41-.35-.39-.82-.63-1.34-.68Zm1.24 3.25c-.11.18-.25.33-.4.43-.17.11-.35.18-.53.18h-.32v-.01c-.19 0-.37-.05-.54-.16-.16-.1-.29-.25-.41-.43-.2-.33-.31-.75-.3-1.18 0-.43.12-.85.33-1.18.11-.18.25-.33.4-.44.17-.12.35-.18.53-.19.44.05.85.26 1.15.59.3.34.46.78.44 1.22-.01.43-.13.84-.33 1.16m6.82-3.23c-.21-.15-.43-.23-.67-.25l-.33-.02h-.1c-.24 0-.47.09-.68.24-.19.13-.35.3-.48.52-.23.37-.36.84-.37 1.32 0 .49.12.96.35 1.33.14.22.3.39.49.52.2.13.43.2.66.2h.03l.32.02h.01c.23 0 .47-.09.68-.23.18-.13.35-.3.48-.51.23-.36.37-.82.38-1.3.01-.48-.09-.95-.31-1.32-.12-.22-.28-.4-.46-.53m.16 3c-.12.18-.25.32-.41.43-.17.11-.35.18-.53.18h-.32v-.01a.969.969 0 0 1-.55-.16c-.16-.1-.3-.25-.41-.43-.2-.33-.31-.75-.31-1.19 0-.43.12-.85.33-1.19.12-.19.25-.33.41-.44.17-.12.35-.18.54-.19l.32.02h.08c.18 0 .36.08.53.2.15.11.28.26.38.44.19.33.29.75.27 1.18-.01.43-.13.84-.34 1.16" fill="#060001"/><path d="m19.75 46.87-.25-.19a.18.18 0 0 0-.22 0l-.25.21s-.04.06-.05.1a.09.09 0 0 0-.03.07v.4c0 .03.01.05.03.07 0 .04.02.07.05.1l.25.19s.03.01.05.02c.02 0 .04.02.06.02.04 0 .08-.01.11-.04l.25-.21s.05-.06.05-.1a.09.09 0 0 0 .03-.07v-.4s-.01-.05-.03-.07c0-.04-.02-.07-.05-.1Zm-.19.56-.18.15-.17-.13v-.36l.18-.15.17.13v.36Zm7.27-.64s-.01-.05-.03-.07c0-.03-.02-.07-.04-.09l-.25-.19a.18.18 0 0 0-.22 0l-.25.21c-.03.03-.04.06-.04.1-.02.02-.03.04-.03.08v.4c0 .03.01.05.03.07 0 .04.02.07.05.1l.25.19h.02c.03.02.06.03.08.03.04 0 .07-.02.11-.04l.25-.21s.04-.06.05-.1c.01-.02.03-.04.03-.07v-.4m-.27.39-.18.15-.17-.13v-.36l.18-.15.17.13v.36Zm20.24-21.17h-.1v-.07c0-.01-.02-.02-.03-.03-.01-.01-.02-.03-.03-.03h-.11c-.14.07-.28.15-.42.25 0 0 0 .01-.01.02 0 0-.01 0-.02.01v.03c0 .02-.01.03-.01.05 0 .02 0 .03.01.05v.03h.02s0 .02.01.03l.24.18h.02s0 .01.01.01h.04c.04 0 .08-.02.11-.06v-.02h.01c0-.02.02-.05.03-.07h.2s.05 0 .06.02c.02.02.01.05.01.07 0 .05-.05.11-.1.15a.31.31 0 0 1-.17.07h-.15c-.14 0-.27.02-.4.03-.01 0-.02.01-.03.01-.02 0-.03.01-.04.02-.01.01-.02.02-.03.04l-.02.02-.03.11v.05c0 .01.01.02.01.03 0 .01.01.03.02.04.01.02.03.02.05.03l.02.02h.05c.14-.02.24-.03.38-.03h.14c.14 0 .29-.06.42-.17.12-.11.21-.24.24-.38a.45.45 0 0 0-.07-.36c-.08-.1-.21-.14-.33-.15Zm2.44-7.71c.03-.09.07-.17.11-.25v-.03c0-.01.01-.02.01-.03v-.02c0-.02-.01-.03-.03-.05 0-.01-.02-.02-.03-.03 0 0 0-.01-.01-.01h-.17s-.01.02-.02.02c-.02 0-.03.01-.04.03-.02 0-.03.02-.04.03 0 0-.01 0-.01.01-.16.36-.27.69-.36 1.09v.04c0 .01.01.02.02.03 0 .01 0 .03.02.04.01.01.03.02.04.03 0 0 .01.01.03.02h.14s.01-.02.02-.02c.02 0 .04-.01.06-.03 0 0 .01-.02.02-.03 0 0 .02-.02.02-.03.02-.09.04-.18.07-.27.02-.09.05-.18.08-.26.03-.09.06-.17.09-.26m-8.48 7.45c-.01-.01-.03-.01-.04-.02-.02 0-.03-.02-.05-.02h-.2l-.2.02c-.01 0-.02 0-.03.01-.02 0-.05.01-.06.03v.01c-.01.02-.03.04-.03.07-.01.13-.03.27-.04.41 0 .02 0 .03.01.05 0 .02 0 .04.02.05 0 0 .02 0 .03.01.02 0 .03.02.05.03h.02c.04 0 .07-.01.09-.04.15-.14.3-.29.45-.43.01-.01.01-.03.02-.05 0-.02.02-.03.02-.05 0-.02-.01-.03-.02-.04 0-.02 0-.03-.02-.05m1.43-5.99s.02.03.03.04c0 0 0 .01.01.01.02.01.04.02.06.02h.21l.2-.02h.02c.01 0 .02-.02.03-.02.02 0 .03-.01.04-.03 0-.01.01-.03.02-.05 0-.01.01-.02.01-.04v-.02c-.04-.18-.08-.36-.13-.54 0-.02-.02-.03-.03-.04a.078.078 0 0 0-.04-.04h-.04c-.02 0-.03-.01-.05 0-.02 0-.03.02-.04.03-.01.01-.03.02-.04.03-.09.18-.18.37-.28.55v.04c0 .01-.01.02-.01.03v.02c0 .01 0 .03.02.04m.34-.23v.02h-.01v-.02m1.31 3.38s0 .03.01.05V23s.02 0 .03.01c.01 0 .02.02.03.03h.04c.03 0 .06 0 .08-.03.14-.11.27-.22.4-.33v-.02h.01v-.03c0-.02.01-.03.01-.05 0-.02 0-.03-.01-.05 0-.01 0-.02-.01-.04h-.02v-.02l-.23-.16h-.02s0-.01-.02-.01h-.08c-.02 0-.03.01-.04.03 0 0-.02 0-.03.02v.02s-.01 0-.01.02c-.05.16-.11.32-.16.49v.07m-2.89.35h.07c.05 0 .09 0 .11-.01.07-.01.12-.04.18-.07 0 0 .01-.02.02-.02 0 0 .01 0 .01.01.01.01.03.02.04.03.01 0 .01.02.03.02h.16c.05 0 .09-.04.11-.09.02.04.06.08.11.08h.2l.02-.02c.02 0 .03-.02.04-.03 0-.01.01-.03.02-.04 0 0 .01-.02.01-.03v-.04a5.75 5.75 0 0 1-.1-.31c.04-.04.08-.07.12-.11.06-.05.12-.11.18-.16.02-.01.02-.03.03-.05 0-.01.02-.02.02-.04s-.01-.03-.02-.04c0-.02 0-.03-.01-.05a.076.076 0 0 0-.05-.02c-.01 0-.03-.02-.04-.02h-.14c-.01 0-.02.01-.04.02-.02 0-.04 0-.05.02l-.04.03-.01-.01-.02-.02c-.01 0-.01-.02-.03-.03h-.03s-.01 0-.02-.01h-.12s-.01.01-.03.01c-.01 0-.03.01-.04.02-.02.01-.03.02-.04.04 0 0-.01 0-.02.02v.02a.278.278 0 0 0-.23-.1.503.503 0 0 0-.45.28.95.95 0 0 0-.09.21.59.59 0 0 0-.04.33c.02.11.09.17.2.19m-2.57-.33.4.29h.07c.04 0 .08-.02.11-.06v-.03H39c.06-.17.11-.33.16-.5v-.09c0-.02-.02-.03-.04-.04-.01-.01-.02-.03-.04-.03H39c-.19.07-.37.14-.56.2-.01 0-.02.02-.03.03-.01 0-.03.01-.03.02v.01c0 .01 0 .03-.01.05v.06s.01 0 .01.01c.01.02.01.04.04.06m.43-.09s-.01.03-.02.05l-.04-.03s.04-.01.06-.02Z" fill="#060001"/><path d="M209.68 22.59s-.11-.05-.18-.07c-.11-.03-.22-.05-.33-.08-.21-.04-.43-.07-.64-.1-.44-.05-.89-.09-1.28-.12l-82.56-6.4c-.6-.05-1.21-.09-1.81-.12-.29-.02-.59-.03-.88-.04-.31-.02-.62-.03-.93-.04l-.89-.03-.92-.03c-.3 0-.6-.01-.9-.02-.31 0-.61-.01-.92-.01-.91-.01-1.82-.01-2.73 0h-.9c-.6 0-1.21.02-1.81.03-.6.02-1.2.03-1.81.06-.33.01-.66.03-.98.04l-.98.04-.71.03s-.03.02-.04.02h-.13l-32.71 1.59-.03-1.88s-.02-.08-.04-.1v-.01l-.08-.08s-.12-.12-.82-.2c-.25-.03-.51-.05-.76-.07-1.26-.1-3.1-.15-4.94-.15-.94 0-1.78.01-2.57.04-.42.01-.83.03-1.25.06-.17.01-.33.03-.5.04-.13.01-.25.03-.38.05-.09.01-.17.03-.26.05-.03 0-.06.02-.09.03-.02 0-.05.02-.08.05l-.08.07v.01c-.03.02-.04.06-.04.1l-.02 1.05c0 .06.03.1.06.13v.02c.02.03.05.04.07.05.05.02.11.04.16.05.07.02.14.03.2.04l.4.06c.22.03.45.04.67.06v1.01l-10.55.51v-.02c-.09-.26-.24-.46-.45-.6l-1.99-1.39c-.18-.13-.4-.2-.66-.23-.21-.02-.44-.01-.64 0h-.01l-32.61 1.62c-.44.02-.76.05-1.16.22-.35.15-.68.38-.98.68-.27.27-.51.59-.7.95-.14.25-.23.5-.32.75l-.83-.02-1.62.09c-.44.03-.91.06-1.37.11-.23.02-.46.05-.69.08-.12.02-.23.04-.35.07-.07.02-.14.04-.2.07-.14.07-.16.17-.16.24l-.28 171.28s.02.08.05.1c.02.03.02.07.05.09.04.02.07.04.09.05.06.02.13.03.19.04.03 0 .05 0 .08.01l.09 1.67a.345.345 0 0 0 .13.25c.03.03.07.05.12.07.06.02.12.04.18.05l.2.03.25.03c.29.03.59.05.88.07h.11l-.02.68s.01.06.03.09l.01.01c.01.02.03.03.04.04.03.02.06.02.08.03.03 0 .07.01.1.02.05 0 .09.01.14.02l.38.03.53.03c.4.02.81.03 1.22.04.73.02 1.52.03 2.43.03h.45c1.52 0 3.21-.02 4.41-.03.05 0 .09-.03.11-.08 0 0 .01 0 .01-.01l.22-.56 88.19 2.93c.14 0 .29 0 .44.01l.15 1.12s.01.02.02.03c0 .01.01.03.02.04l.01.01c.01.01.02.03.04.03.03.02.06.03.09.03.04 0 .08.01.12.02.05 0 .1.02.15.02.14.02.29.03.43.04.2.01.4.03.6.04.46.02.91.04 1.37.05.46 0 .92.02 1.37.02h1.52c.93 0 3.43-.01 5.34-.11.26-.01.52-.03.78-.05.13-.01.26-.02.39-.04.07 0 .13-.02.2-.03.05 0 .1-.02.15-.04.02 0 .04-.02.07-.04 0 0 0-.01.01-.02.03-.02.05-.06.05-.1l.05-1.12c.41-.02.8-.03 1.19-.06l74.46-3.95.41.67h.01c.02.03.06.06.1.06h.19c1.1 0 2.2 0 3.3-.01 1.11-.01 2.61-.04 3.49-.08.21-.01.42-.02.63-.04.11 0 .21-.02.32-.03.05 0 .11-.01.16-.02.05 0 .09-.02.14-.03.01 0 .05-.03.07-.04v-.01c.02-.02.04-.05.05-.08l.18-.87.44-.03c.22-.02.43-.04.64-.07l.18-.03c.05-.01.1-.02.15-.04.04-.01.08-.03.13-.05.04-.02.07-.05.1-.08.05-.06.07-.13.08-.2l.09-1.64s.06 0 .09-.01c.06-.01.12-.02.18-.05.02 0 .06-.02.09-.05.03-.02.03-.06.05-.09.03-.03.05-.06.05-.1l.07-168.2c0-.07-.03-.16-.15-.24m-102 81.06c.24.16.46.38.63.66.32.5.49 1.13.48 1.79 0 .65-.19 1.29-.51 1.78-.18.27-.4.49-.64.65-.11.07-.23.12-.35.17-.16.06-.32.09-.49.09h-.04c.19-.11.37-.25.54-.42.11-.1.21-.21.31-.34.4-.54.62-1.23.62-1.94s-.2-1.4-.59-1.95a2.59 2.59 0 0 0-.76-.71c-.02-.01-.05-.03-.07-.04h.03c.16 0 .31.03.46.08.13.05.26.1.39.19m-1.8-.53h-.01l-2.28.02h-.01l-4.51.04-2.33.03c-.35 0-.68.11-.98.31-.27.18-.51.42-.71.73-.35.53-.54 1.21-.54 1.91s.19 1.38.53 1.92c.2.31.44.55.72.73.31.19.63.29.97.29l10.08-.03c.12 0 .24-.03.36-.06l-.08 75.41-93.04-2.4.22-137.16 90.61-3.28 2.36-.09-.06 61.67c-.11-.02-.21-.05-.32-.05h-.96l-.02.01Zm.85.54c.21.13.39.3.56.5.04.05.08.09.12.14.35.5.54 1.14.54 1.79 0 .65-.21 1.28-.57 1.78-.03.04-.06.06-.09.1-.39.49-.92.79-1.47.82h-.01l-9.09.03h-.01c-.29 0-.57-.08-.83-.25-.24-.15-.46-.37-.63-.64-.32-.49-.49-1.11-.49-1.77 0-.65.18-1.28.5-1.76.18-.27.39-.49.63-.65.26-.17.55-.26.84-.26l2.18-.02h.15l3.1-.03 3.7-.04c.3.01.59.1.86.26M14.08 182.2l93.12 2.4-.1 10.88c-82.75-2.74-92.15-3.05-93.22-3.09l.21-10.19h-.01Zm49-165.98s-.1.02-.14.03h-.02l.02-.84.05-.05c.02 0 .04-.01.05-.02.07-.02.15-.04.23-.05.12-.02.24-.03.37-.05.16-.02.33-.03.49-.04.41-.03.83-.05 1.24-.06.77-.03 1.58-.04 2.49-.04h.06c1.83 0 3.67.06 4.92.15.25.02.5.04.75.07.45.05.63.1.66.12l.05.05.03 1.85-1.29.06v-1.12s-.01-.03-.02-.04c0-.02 0-.03-.02-.05a.076.076 0 0 0-.05-.02c-.01 0-.02-.02-.04-.02-1.92-.14-4.38-.14-5.08-.15h-1.27c-.43 0-.85.02-1.27.03-.49.02-.89.04-1.27.06-.18.01-.36.03-.55.05-.13.02-.27.03-.4.05m.46.29c-.09-.01-.18-.03-.26-.04l.23-.03c.18-.02.36-.04.54-.05.38-.03.78-.05 1.26-.07l1.27-.03c.45 0 .91-.01 1.36-.01 1.79 0 3.58.05 4.84.14v1.01l-8.29.4v-1.09a.14.14 0 0 0-.12-.14h-.03c-.26-.02-.52-.04-.78-.07m-9.77 2.56c0-.16 0-.3-.03-.43l53.54-2.6-.03 25.11-2.37.09-90.6 3.28-.07-12.35.11.03c.1.01.21.02.32.02h.33l32.63-1.41c.46-.02.79-.05 1.22-.23.37-.15.71-.39 1.03-.7.29-.28.53-.62.74-.99.2-.38.32-.75.45-1.13l2.41-7.3v-.03c.15-.42.29-.86.31-1.32m-2.69-2.49L53.07 18c.16.11.28.27.35.47.06.17.09.38.08.62-.02.42-.15.84-.29 1.25v.04l-2.43 7.3c-.12.38-.24.73-.44 1.09-.19.35-.42.66-.69.93-.29.29-.61.5-.94.65-.39.16-.68.18-1.13.21l-32.63 1.4c-.2 0-.42.02-.61 0a.967.967 0 0 1-.52-.2l-1.91-1.47s-.04-.04-.05-.06c.03.02.05.04.08.06v.01c.01 0 .02.01.04.02s.03.02.05.03c.01 0 .03 0 .04.01.13.06.27.11.45.13h.56l20.38-.9 13.27-.58c.65-.03.93-.3 1.13-.6.19-.28.32-.58.47-1.07l3.09-9.23c.11-.34.1-.54.04-.75-.07-.25-.2-.47-.37-.64-.03-.04-.08-.07-.12-.11.03.01.07.01.09.03m-1.16-.18c.63.14.86.3 1 .45.14.14.24.32.3.53.05.17.06.32-.03.59l-.22.67c.1-.29.13-.58.11-.83-.02-.2-.09-.47-.29-.68 0-.01-.01-.03-.02-.04l-.07-.05c-.24-.2-.58-.26-.94-.18-.28.06-.56.19-.83.4-.49.36-.87.89-1.06 1.46-.1.3-.14.6-.11.86.03.24.13.58.44.79.17.12.38.18.6.18.11 0 .22-.01.33-.04.27-.07.55-.21.81-.4.47-.36.85-.89 1.04-1.44l-2.6 7.76c.04-.21.07-.41.05-.6-.02-.2-.1-.48-.3-.69 0-.01 0-.03-.02-.04l-.07-.05c-.24-.19-.58-.26-.94-.18-.27.06-.56.2-.83.4-.48.36-.87.89-1.06 1.46-.1.3-.14.6-.11.87.04.35.2.63.44.8l.08.05s.05.03.08.03c.15.06.29.1.44.1.12 0 .24-.02.34-.04.27-.06.55-.21.81-.4.39-.3.71-.71.91-1.16l-.09.27c-.14.46-.26.74-.44 1-.16.23-.36.46-.92.48l-12.94.57 4-11.94c.02-.07.02-.14 0-.21 0-.03-.02-.06-.04-.1l12.15-.6v-.05Zm.88 1.43c.02.22-.01.47-.1.72-.17.5-.52.99-.94 1.31-.23.18-.48.3-.71.36-.2.05-.48.07-.72-.1-.23-.16-.3-.41-.32-.6-.03-.22 0-.48.1-.75.17-.5.53-1 .96-1.33.24-.18.49-.3.73-.35.2-.04.49-.05.72.13.21.16.27.42.29.6m-2.75 8.73c-.16.5-.52.99-.94 1.31-.23.18-.48.3-.71.36-.2.05-.48.07-.72-.09-.23-.16-.3-.42-.33-.61-.03-.23 0-.49.1-.75.17-.51.53-1 .96-1.33.24-.18.49-.3.73-.35.2-.04.49-.06.72.13.21.17.27.42.29.6.02.22-.01.47-.1.73Zm-33.75-5.86c.12-.34.23-.69.42-1.04.18-.34.4-.63.65-.89.28-.27.58-.48.89-.62.36-.15.65-.18 1.07-.2l19.97-.99c.04 0 .13.03.2.09 0 0 .01.01.01.03v.06l-4.01 11.96s-.02.04-.04.06c-.01.01-.03.02-.03.02l-20.38.89h-.53a.947.947 0 0 1-.42-.13c-.36-.21-.56-.52-.58-.91.03-.39.16-.78.3-1.18l2.44-7.18.04.03ZM9.07 192.27s-.1-.01-.16-.01l.28-171.24s.02-.03.02-.04c.04-.02.09-.04.14-.05.11-.03.22-.05.32-.07.22-.03.45-.06.67-.08.46-.04.93-.07 1.36-.1l1.61-.09.73.02s-.01.04-.02.06l-2.44 7.18v.02c-.13.38-.26.78-.3 1.19l-.01.02v.06c-.02.26 0 .49.07.69.08.25.22.45.4.6l1.91 1.48c.08.06.17.11.27.15l.07 12.57-.22 137.3s-.08.06-.08.11v5.69l-.1 4.77-.55-.02-1.62-.06c-.45-.02-.9-.04-1.35-.07-.22-.02-.45-.03-.67-.06-.11 0-.22-.02-.33-.04m11.72 3.18c-1.31.01-3.17.03-4.76.02-.91 0-1.7-.01-2.43-.03-.4-.01-.81-.02-1.21-.04l-.52-.03c-.12 0-.25-.02-.37-.03-.04 0-.08 0-.13-.02-.01 0-.03 0-.04-.01v-.58c.44.02.88.04 1.38.06l8.23.27-.15.39Zm101.69 3.53s-.04.01-.07.02l-.18.03c-.13.02-.25.03-.38.04-.26.02-.51.04-.77.05-2.01.11-4.69.11-5.47.11h-1.37c-.46 0-.91-.01-1.37-.02-.46-.01-.91-.02-1.37-.05l-.59-.03c-.14-.01-.28-.02-.42-.04-.05 0-.09-.01-.14-.02-.02 0-.05-.01-.08-.02l-.14-1.01c.93.03 1.89.05 2.93.06h.9c.54.01 1.08.01 1.62.01h1.12c.61 0 1.21 0 1.82-.02.61-.01 1.21-.02 1.82-.04.79-.02 1.51-.04 2.18-.07l-.04 1.01v-.01Zm84.59-4.77s-.03 0-.05.01c-.05.01-.1.02-.15.02l-.31.03c-.21.02-.42.03-.63.04-.88.05-2.38.07-3.48.08-1.14.01-2.27.02-3.41.01l-.29-.48 7.9-.42c.19 0 .38-.02.57-.04l-.15.74v.01Zm1.88-1.27s0 .03-.02.04c0 .01-.02.02-.03.02-.02.01-.04.02-.07.03l-.12.03-.17.03c-.21.03-.42.05-.63.07-.42.04-.85.06-1.28.08l-82.67 4.39c-1.09.06-2.24.1-3.63.13-.61.02-1.21.03-1.82.04-.61.01-1.21.02-1.82.02h-3.64c-1.31-.02-2.49-.05-3.64-.09L12.7 194.5c-.65-.02-1.2-.04-1.75-.08-.29-.02-.58-.04-.87-.07-.08 0-.16-.02-.24-.03-.06 0-.12-.02-.18-.03a.737.737 0 0 1-.14-.04c-.02 0-.03-.01-.07-.05v-.03l-.08-1.62c.22.02.45.04.67.05.45.03.91.05 1.36.07l1.62.06.59.02h.07s0 .03.02.04c.01.01.03.01.05.02.02 0 .03.02.04.02l93.3 3.01h.09c2.6.08 4.68.1 6.52.12.78 0 1.51.01 2.2.02h.75c.66.02 1.31.04 2.01.04 1.42 0 3.03-.05 5.35-.25l83.11-4.33c.42-.02.85-.05 1.27-.08.2-.02.4-.03.6-.06l-.08 1.59m.55-2.04-2.34.32L124 195.5c-3.44.3-5.33.26-7.34.22h-.75c-.69-.02-1.42-.03-2.2-.04-1.81-.02-3.85-.03-6.39-.11l.11-11.15c0-.06-.04-.11-.1-.12l.08-75.51c.12-.05.25-.1.37-.17.28-.18.52-.42.72-.73.36-.53.55-1.22.56-1.92 0-.71-.18-1.4-.53-1.93-.2-.31-.44-.56-.71-.74-.13-.09-.26-.14-.4-.19l.09-87.02 2.65-.22 1.81-.06c.6-.02 1.21-.03 1.81-.03h3.62c.3 0 .61 0 .91.01.3 0 .6.01.89.02.31 0 .61.01.92.02l.89.03c.31.01.62.03.93.04.29.01.59.03.88.04.6.03 1.2.07 1.8.12l82.54 6.4 2.36.44-.07 167.97.01-.02Z" fill="#060001"/><path d="M163.61 112.56c-.02-.07-.04-.13-.07-.19a.56.56 0 0 0-.1-.15l-.1-.1a.374.374 0 0 0-.1-.06c-.03-.01-.07-.01-.11-.01l-2.18-.02h-.99v3.43h.39v-2.69c0-.02 0-.09.07-.15.06-.06.12-.06.15-.06h.88c.06 0 .1.03.14.08.03.04.05.09.05.15v2.66h.38v-2.67c0-.04.01-.1.06-.15.02-.03.07-.07.15-.07h.87c.06 0 .11.04.14.08 0 .01.03.06.03.07 0 .03.01.05.01.08v2.66h.38v-2.6c0-.06 0-.09-.01-.14-.01-.06-.03-.13-.04-.19" fill="#555859"/><path d="M157.94 114.19h-1.16v.45h1.7v-.45h-.52m7.181-1.31v1.81h1.26v-1.81h-1.26Z" fill="#F5F5F5"/><path d="m166.421 114.72.05.12-.02-.13s-.02 0-.03.01Z" fill="#6AB82D"/><path d="M170.16 114.63v.12s0 .08-.02.12c-.02.05-.05.09-.1.11-.04.02-.07.02-.09.02h-1.44l-.04-.14v.13h-.08c-.04 0-.06-.02-.07-.02a.213.213 0 0 1-.1-.11c-.02-.05-.02-.09-.02-.12v-2.63h-.34v2.58c0 .09.01.19.04.28.03.12.09.3.22.43.05.05.11.09.16.11.02 0 .05.01.08.01h1.69c.02 0 .05-.01.08-.03.04-.02.07-.04.11-.08.12-.12.18-.28.21-.4.02-.09.04-.18.04-.27v-2.62h-.33v2.51Zm-11.09-1.92c-.02-.11-.04-.19-.06-.26-.03-.08-.07-.16-.11-.22a.673.673 0 0 0-.14-.15.37.37 0 0 0-.11-.05c-.02 0-.06-.02-.07-.02h-.05l-2.18-.02.13.53h2.03s.07 0 .11.02c.04.02.08.06.1.1.02.04.02.09.02.1v.48c0 .03-.02.05-.03.07 0 0 0 .02-.01.03-.03.02-.06.04-.1.04h-1.82l-.06-.01h-.05c-.01 0-.05 0-.09.02-.04 0-.06.02-.09.04a.67.67 0 0 0-.22.27c-.04.09-.07.18-.09.28 0 .05-.02.1-.02.15v.53c0 .11.02.17.05.28.04.11.09.22.15.3.06.08.11.13.18.16.08.04.11.04.21.04h2.34v-2.66c0-.02 0-.05-.01-.08m-.33 1.34v.73s-.01.04-.02.05c-.02.04-.06.08-.11.08h-1.81s-.04-.01-.05-.01c0 0-.06 0-.1-.02-.04-.01-.08-.05-.1-.09a.169.169 0 0 1-.03-.1v-.6c0-.04.02-.07.04-.11.02-.04.06-.06.1-.08h1.95s.03.03.05.03c.02 0 .04 0 .05.02.01.01.01.03.02.05 0 .02.02.03.02.05h-.01Z" fill="#555859"/><path d="M107.651 104.05c.39.55.59 1.24.59 1.95s-.23 1.4-.62 1.94c-.09.13-.2.23-.31.34v.32c.12-.04.24-.09.35-.17.25-.16.46-.38.64-.65.32-.49.51-1.12.51-1.78 0-.65-.17-1.29-.48-1.78-.18-.28-.39-.5-.63-.66-.12-.08-.26-.14-.39-.19v.28c.12.12.24.25.34.39" fill="#F5F5F5"/><path d="M124.66 16.09c-.6-.05-1.2-.09-1.8-.12-.29-.02-.58-.03-.88-.04-.31-.01-.62-.03-.93-.04l-.89-.03c-.31 0-.61-.02-.92-.03-.3 0-.6-.01-.89-.02-.31 0-.61 0-.91-.01-.91-.01-1.82-.01-2.72 0h-.9c-.6 0-1.21.02-1.81.03l-1.81.06-2.65.22-.09 87.03c.14.05.27.11.4.19.28.18.52.43.71.74.35.54.53 1.23.53 1.93 0 .71-.21 1.39-.56 1.93-.2.31-.45.55-.72.73-.12.07-.24.12-.37.17l-.08 75.51c.06.02.1.06.1.12l-.11 11.15c2.54.08 4.58.1 6.39.11.78 0 1.51.01 2.2.03h.75c2 .05 3.89.08 7.34-.21l83.12-4.33 2.34-.32.07-167.97-2.36-.44-82.54-6.4-.01.01Zm43.05 64.45 6.19.2v12.29h-.02l-6.19-3.9v-8.6l.02.01Zm0 10.24 6.19 3.89v13.38l-6.2-.07V90.79l.01-.01Zm-.84 4.81c0 .07-.05.14-.12.14v12.23l-6.26-.07v-8.64l6.15-3.58c-.01-.02-.03-.04-.03-.06 0-.07.05-.14.13-.14.07 0 .14.05.15.13m-6.39-15.28 6.26.2v13.45l-6.27 3.64V80.33l.01-.01Zm-4.84 34.23c-.03.19-.1.48-.27.73-.08.12-.18.22-.29.3a.75.75 0 0 1-.2.1c-.08.02-.13.03-.21.03h-2.46v-.01c-.08 0-.14-.06-.14-.13v-3.64c0-.02.01-.03.02-.05 0-.01.02-.03.03-.04 0 0 0-.01.01-.01l.62-.37v-.51l-.48.28s-.04.02-.07.02c-.05 0-.08-.02-.1-.06h-.01v-.04c0-.01-.01-.02-.01-.03v-1.03c0-.02.01-.03.02-.05 0-.01.02-.03.03-.04 0 0 0-.01.01-.01l.68-.4h.04c.01 0 .02-.01.03-.01h.02c.02 0 .03.01.05.02.01 0 .03.02.04.03 0 0 .01 0 .01.01v.04c0 .01.01.02.01.03v.87l1.12.01c.15 0 .28 0 .46.07.27.1.51.32.67.62a1.843 1.843 0 0 1 .22.67c0 .06.02.13.02.19v.26c0 .09-.01.18-.02.27-.02.16-.07.31-.14.46.13.19.23.41.27.65l.03.2v.17c0 .17 0 .25-.02.4m3.73 1.06s-.01.04-.02.05c-.02.05-.06.08-.11.08h-2.46c-.13-.02-.22-.02-.35-.08a.877.877 0 0 1-.28-.24 1.416 1.416 0 0 1-.25-.72v-.59c0-.06.01-.12.03-.18.02-.12.06-.24.12-.35a.88.88 0 0 1 .31-.37c.05-.04.1-.06.16-.07.04-.01.11-.03.16-.03h.04l.03.03v-.03l1.72.01v-.29h-1.21l-.88-.02c-.06 0-.12-.04-.13-.1l-.19-.8v-.03c0-.01 0-.02.01-.04 0-.02 0-.03.02-.05.02-.02.02-.02.04-.03.01 0 .02-.02.03-.02h.03l2.34.02h.08c.05 0 .09.02.14.03.07.02.13.05.18.09.07.05.14.12.2.21.06.08.11.19.14.28.03.09.05.18.07.29 0 .05.01.08.02.12v2.83h.01Zm4.58.03s-.01.04-.02.06c-.02.05-.06.08-.11.08h-.66l-.02-.01c-.07 0-.12-.06-.12-.13v-2.75h-.73v2.75s-.01.04-.02.05c-.02.05-.06.08-.11.08h-.66l-.01-.01c-.07 0-.12-.06-.12-.13v-2.76h-.75v2.75c0 .03-.01.05-.03.07v.02c-.02.03-.06.04-.1.04h-.65c-.07 0-.13-.06-.13-.13v-3.72c0-.08.06-.14.14-.14h1.12l2.19.03c.06 0 .12 0 .18.02.08.02.14.06.19.1.06.04.11.09.15.14.05.06.09.13.13.2.04.08.07.15.09.24.02.07.03.14.05.21.01.08.02.12.02.19v2.74l-.02.01Zm3.38-1.1v.2c-.01.2-.05.38-.13.55-.04.08-.08.16-.14.22a.71.71 0 0 1-.15.15c-.03.03-.09.07-.15.09l-.11.03c-.03 0-.06 0-.09.01h-2.21c-.08 0-.14-.06-.14-.14v-4.63c0-.02.01-.03.02-.05 0-.01 0-.03.02-.04.01-.01.03-.01.05-.02.02 0 .03-.02.05-.02h.67s.03.02.05.03c.02 0 .04 0 .05.02.01.01.01.03.02.05 0 .02.02.03.02.05v.79h1.32c.08.01.15.01.22.03.04.01.08.03.11.04.04.02.08.04.11.07.13.1.23.24.3.42.04.08.06.17.08.26.01.07.03.16.03.24v1.65Zm3.45-2.54v2.77c0 .11-.02.22-.05.33-.04.15-.12.36-.29.53-.06.06-.12.1-.18.13-.05.03-.1.04-.15.05-.03 0-.08.01-.12.01h-1.5c-.06 0-.1-.01-.14-.01-.05 0-.1-.01-.15-.03a.586.586 0 0 1-.27-.18c-.17-.17-.25-.4-.29-.55-.03-.11-.04-.22-.04-.34v-2.73c0-.07.06-.13.14-.13h.61s.03.02.05.03c.02 0 .03 0 .05.02.01.01.01.03.02.05 0 .02.02.03.02.05v2.78l.04.11v-.14l1.38.01v-2.75s.01-.05.03-.07c0 0 0-.02.01-.03.03-.02.06-.04.1-.04h.61s.03.02.05.03c.02 0 .03 0 .05.02.01.01.01.03.02.05 0 .01.02.03.02.05l-.02-.02Zm4.45 3.75s0 .03-.02.04c-.01.01-.03.02-.04.03-.01 0-.02.02-.03.02h-2.45v-.02c-.07 0-.14-.06-.14-.14v-4.6c0-.08.06-.14.14-.14h.66s.03.02.05.03c.01 0 .03 0 .05.02.01.01.01.03.02.05 0 .02.02.03.02.05v3.59h1.42s.02.02.03.02c.02 0 .03 0 .05.02.01 0 .02.02.03.04 0 .01.02.02.02.03l.21.87v.03c0 .01-.01.02-.01.03m3.44-2.62v2.61c0 .03-.01.05-.03.07v.03c-.02.02-.06.04-.1.04l-2.43-.02c-.06 0-.13 0-.2-.02a.692.692 0 0 1-.19-.1.89.89 0 0 1-.17-.17c-.1-.13-.18-.3-.22-.5l-.03-.2v-.48c0-.08.01-.15.02-.23.01-.09.03-.17.06-.25.03-.09.07-.17.11-.25.05-.08.1-.14.16-.2.05-.05.11-.09.17-.12.04-.02.08-.03.11-.04.03 0 .08-.02.11-.02h1.56l.22.01v-.3l-2.03-.02c-.06 0-.12-.04-.13-.1l-.19-.79v-.03c0-.01.01-.02.01-.03 0-.02 0-.03.02-.05.01-.01.03-.02.04-.03.01 0 .02-.02.03-.02h.03l2.29.02h.09c.02 0 .04.01.06.02l.07.02s.07.03.1.05c.04.02.08.05.12.09.07.07.13.15.18.24.03.06.06.13.09.2.03.09.04.17.06.26 0 .05.02.1.02.15v.15m3.37 1.47v.23c0 .07-.01.15-.03.23-.01.07-.03.15-.06.22-.05.15-.12.28-.22.38-.04.05-.09.09-.14.13-.05.03-.09.05-.14.07-.03 0-.06.02-.08.02-.04.01-.08.01-.11.01h-.18l-1.98-.01c-.07 0-.14-.06-.14-.14v-4.58c0-.08.06-.14.14-.14h.66s.03.02.05.03c.01 0 .03 0 .05.02.01.01.01.03.02.05 0 .01.02.03.02.05v.78h1.38c.05.01.09.02.13.03.04.01.09.03.13.05.11.06.2.16.24.21.12.16.18.34.22.47.02.08.03.17.04.26v1.64-.01Z" fill="#F5F5F5"/><path d="M107.401 107.78c.36-.5.57-1.13.57-1.78 0-.66-.18-1.29-.54-1.79-.04-.05-.08-.09-.12-.14v3.81s.06-.06.08-.1" fill="#F5F5F5"/><path d="m152.751 109.93-.41.24v.7l.41-.25v-.69Z" fill="#555859"/><path d="m154.561 113.73-.04-.04c-.02-.02-.03-.02-.05-.03h-1.45v.96h1.379v.01h.041v-.02h.03l.039-.02c.02-.01.031-.03.041-.04.02-.02.04-.05.05-.07a.7.7 0 0 0 .079-.33.7.7 0 0 0-.079-.33c-.02-.03-.03-.06-.05-.08" fill="#F5F5F5"/><path d="M155.351 113.83c-.04-.23-.13-.44-.26-.61v-.02c0-.01-.01-.02-.01-.03 0 0-.01-.02-.01-.03v-.06a1.647 1.647 0 0 0 .16-.7v-.25c0-.05 0-.1-.01-.15 0-.07-.02-.14-.04-.22a1.22 1.22 0 0 0-.14-.35c-.13-.24-.32-.42-.53-.5-.12-.05-.21-.05-.36-.05h-1.12v.55h1.24s.01.01.02.01h.11c.02 0 .03.02.05.02.02.01.06.02.07.03v.01c.01 0 .01.02.02.03.1.08.16.18.19.26.04.09.05.2.06.31 0 .01.01.02.01.04v.14c-.01.11-.06.35-.26.48v.01c-.04.03-.08.05-.12.06-.04.01-.08.01-.11.01h-1.42s-.03-.03-.04-.03c-.02 0-.04 0-.05-.02 0 0 0-.02-.01-.03-.01-.02-.02-.04-.02-.06v-.92l-.42.25v3.41l2.32.01c.06 0 .1 0 .14-.02.04-.01.09-.04.13-.07.08-.05.15-.13.22-.22.14-.21.2-.45.22-.62.02-.13.02-.2.02-.34V114a.88.88 0 0 0-.02-.17m-.5.77s-.05.09-.08.12c-.02.03-.05.06-.08.08-.04.03-.07.05-.11.07-.03 0-.05.01-.08.02h-.04l-.04.01h-1.53s-.03-.02-.05-.03c-.02 0-.04 0-.05-.02-.01-.01-.01-.03-.02-.05 0-.01-.02-.03-.02-.05v-1.24s.02-.05.03-.07c0 0 0-.02.01-.02.02-.02.06-.04.1-.04h1.52s.01 0 .02.01h.02c.04 0 .06.01.08.02.05.01.1.04.15.07.03.02.05.05.08.07.03.04.06.08.09.13.07.13.11.29.11.46 0 .17-.04.33-.11.46Z" fill="#555859"/><path d="M154.35 112.56s.03-.01.05-.02c.08-.05.12-.17.14-.28 0-.01 0-.02.01-.03v-.1c0-.09-.02-.17-.05-.25-.03-.08-.07-.14-.12-.17-.01 0-.02-.01-.03-.01h-1.31v.87h1.26s.05.01.06 0" fill="#F5F5F5"/><path d="M167.02 112.68c-.01-.07-.04-.14-.06-.21a.822.822 0 0 0-.22-.31c-.02-.01-.04-.03-.06-.04-.02 0-.05-.02-.07-.03a.243.243 0 0 0-.12 0h-1.48s-.03-.03-.05-.03c-.02 0-.03 0-.05-.02-.01-.01-.01-.03-.02-.05 0-.02-.02-.03-.02-.05v-.79h-.41v4.35h.55l1.49.01h.09s.05-.02.07-.03c.02 0 .05-.03.08-.05a.693.693 0 0 0 .2-.27c.06-.13.1-.29.1-.45v-1.83c0-.06-.01-.14-.03-.2m-.35.25v1.85c0 .04-.01.08-.04.12-.03.05-.08.07-.13.08H165s-.04-.03-.05-.03c-.01 0-.03 0-.04-.02 0-.01 0-.03-.02-.04 0-.02-.02-.03-.02-.06v-2.08c0-.04.02-.07.04-.1 0 0 .02 0 .04-.02.02 0 .03-.02.06-.02h1.42s.04.01.05.01h.04c.04 0 .09.03.13.09.03.04.03.09.04.11v.06l-.14.04h.14l-.03.01Zm11.71-.08c-.01-.07-.029-.15-.049-.22-.02-.05-.04-.11-.07-.16a.588.588 0 0 0-.131-.17.114.114 0 0 0-.069-.05l-.06-.03-.061-.02s-.029-.01-.039-.01h-.09l-2.071-.01.121.52 1.96.02h.02c.08 0 .149.05.179.12.02.05.03.1.03.13v.46s-.02.05-.03.07c0 0 .001.02-.009.03-.03.02-.061.04-.101.04h-.349l-1.461-.01h-.039c-.05 0-.08.01-.1.02-.03 0-.04.01-.06.02-.03.02-.071.04-.101.08-.04.04-.08.08-.11.14-.04.06-.06.12-.09.2-.02.07-.04.14-.05.21-.01.07-.019.13-.019.2v.45c0 .06.009.11.019.17.03.16.091.29.171.39.03.05.08.09.11.12.03.02.069.04.109.06.04.01.081.01.121.01h2.289v-2.6s-.009-.08-.019-.12m-.311 1.35v.72c0 .08-.059.13-.129.13h-1.77v-.02c-.01 0-.02.01-.03.01v-.1.1h-.071a.354.354 0 0 1-.099-.07c-.01-.02-.031-.05-.041-.08-.01-.03-.009-.06-.009-.08v-.55c0-.05.02-.12.08-.16.02-.01.07-.04.09-.04h.94l.78.01h.149s.031.02.051.02c.01 0 .03 0 .04.02.01.01.009.03.019.05 0 .02.021.03.021.05l-.021-.01Z" fill="#555859"/><path d="M179.891 114.8h1.23v-1.78h-1.23v1.78Z" fill="#F5F5F5"/><path d="M181.72 112.76a.9.9 0 0 0-.17-.37.64.64 0 0 0-.15-.14c-.03-.01-.05-.02-.08-.03h-1.56s-.03-.03-.04-.03c-.02 0-.04 0-.05-.02 0 0 0-.02-.01-.03-.01-.02-.03-.04-.03-.06v-.78h-.39v4.3h.83l1.11.01h.13c.03 0 .05-.01.07-.02.02 0 .04-.02.07-.03.03-.02.06-.05.09-.08.07-.07.12-.18.16-.29a1.225 1.225 0 0 0 .07-.37V113c0-.08-.02-.15-.03-.22m-.33 2.04s0 .09-.02.13c-.01.04-.04.08-.07.1-.05.04-.1.04-.13.04h-1.41c-.02 0-.04-.01-.06-.02-.01 0-.03 0-.04-.02 0 0 0-.03-.01-.04 0-.02-.02-.03-.02-.05v-2.06s.01-.03.02-.05c0-.02 0-.04.02-.05.02-.02.05-.03.08-.03h.02l1.38.01c.04 0 .11 0 .16.04.03.03.06.06.07.11.01.05.02.09.01.13v1.78" fill="#555859"/><path d="M176.991 114.32h-.85c0 .01.01.03.01.03v.42l1.64.01v-.45h-.8v-.01Z" fill="#F5F5F5"/><path d="M173.341 114.95s-.04-.01-.06-.02c-.01 0-.03 0-.04-.02-.01-.01-.01-.03-.02-.04 0-.02-.02-.03-.02-.06v-3.59h-.4v4.32h2.12l-.14-.59h-1.44Z" fill="#555859"/><path d="m166.59 95.62.03.06.12-.07v.14c.07 0 .13-.07.12-.14 0-.07-.08-.13-.15-.13-.07 0-.13.07-.13.14" fill="#060001"/><path d="m173.91 94.68-6.19-3.89-.02 17.19 6.2.07.01-13.37Zm-7.289 1-6.14 3.57-.01 8.65 6.26.07.01-12.23v-.13l-.12.07Zm7.289-2.64.01-12.29h-.01l-6.2-.2v8.59l6.19 3.9h.01Zm-7.169.92.01-13.44-6.26-.2h-.01l-.01 17.28h.01l6.26-3.64Z" fill="#555859"/><path d="M105.86 105.35s-.01-.04-.02-.06c0-.01 0-.03-.02-.04a.107.107 0 0 0-.06-.02c-.01 0-.02-.02-.04-.02h-.23s-.03.01-.04.02c-.02 0-.04 0-.05.02-.01.01-.01.03-.02.05 0 .02-.02.03-.02.04v.32s-.01-.03-.02-.04a.37.37 0 0 0-.17-.13c-.06-.02-.11-.02-.16-.02h-.75s-.01.01-.02.01h-.02c-.01 0-.02.02-.03.02-.02 0-.03.02-.04.03-.01.01-.01.03-.02.05 0 .01-.01.02-.01.03v.04l.07.23s.01 0 .01.01c0 .02.02.04.03.05-.04.03-.07.05-.1.09-.07.1-.08.19-.08.28h-.01c-.01 0-.02-.01-.03-.01h-.4v-.95s-.01-.03-.02-.05c0-.02 0-.03-.02-.04a.153.153 0 0 0-.1-.04h-.23s-.03.01-.04.02c-.02 0-.04 0-.05.02-.01.01-.01.03-.02.05 0 .01-.02.03-.02.04v1.34c0 .03.01.05.03.07 0 0 0 .02.01.03.02.02.06.04.1.04h.84s.02 0 .04-.01c.01 0 .02-.01.03-.02.02-.01.03-.02.04-.03 0-.01.01-.02.02-.04.01.01.02.03.03.04.05.04.11.05.18.06h.86c.04 0 .07-.02.1-.05.02.02.06.04.1.04h.79c.13-.02.24-.11.29-.25.02-.05.03-.11.03-.17v-.41c0-.09 0-.19-.05-.29a.417.417 0 0 0-.13-.16.32.32 0 0 0-.19-.06h-.38v-.13h.01Zm-2.47 1.23v-.02s.01 0 .02.01c0 0 .02 0 .03.01h-.05Zm1.76-.43s-.02 0-.02-.01h.02v.02-.01Zm.47-.39v-.04s.03.01.05.02c-.02 0-.04 0-.05.02Zm.57.79v-.1l.03.1h-.03Zm.01-.23v.13l-.04-.13h.04Zm-.1-.33v.34h-.26V106h.26v-.01Zm-3.579-.49h-.21s-.03.02-.05.02c-.02 0-.03 0-.05.02-.01.01-.01.03-.02.05 0 .02-.02.03-.02.05v.71h-.31v-.7s-.01-.05-.03-.07c0 0 0-.02-.01-.03a.107.107 0 0 0-.06-.02c-.01 0-.02-.01-.04-.01h-.21l-.06.03c-.01 0-.02 0-.03.01-.01.01-.01.03-.02.05 0 .01-.02.03-.02.05v.04s-.04-.08-.08-.11c-.08-.06-.16-.06-.24-.06h-.34v-.13c0-.08-.06-.14-.13-.14h-.23s-.03.02-.05.02c-.02 0-.04 0-.05.02-.01.01-.01.03-.02.05 0 .02-.02.03-.02.05v.3a.331.331 0 0 0-.22-.16h-1.17s-.03.02-.04.02c-.02 0-.04.01-.06.03-.01 0-.01.03-.02.04 0 .02-.02.03-.02.05v.05s-.01-.03-.02-.04c-.04-.06-.1-.1-.16-.12-.03-.01-.06-.02-.1-.02h-.81s0 .01-.02.01h-.02c-.01 0-.02.02-.03.02-.01 0-.03.02-.04.03-.01.01-.01.03-.02.05 0 .01-.01.02-.01.03v.04l.07.23s.01 0 .01.01c0 .02.02.04.03.05-.03.03-.07.05-.09.09-.01.02-.01.03-.02.05-.01-.04-.03-.07-.05-.11.02-.04.04-.08.05-.14.01-.08.01-.15 0-.23a.528.528 0 0 0-.08-.22.353.353 0 0 0-.17-.15s0-.01-.01-.01-.03 0-.04-.01a.127.127 0 0 0-.09-.04h-.02c-.03 0-.05-.02-.08-.02h-.32v-.15c0-.01 0-.02-.01-.03v-.03s-.01 0-.02-.02c0-.01-.02-.02-.04-.03-.01 0-.03-.01-.04-.02h-.02c-.01 0-.02 0-.03.01h-.03l-.22.12s0 .01-.01.01c-.01.01-.02.02-.03.04 0 .02-.02.03-.02.05v.38s.01 0 .02.01c.01.02.03.03.05.03h-.01s0 .02-.01.02c-.01.01-.02.02-.03.04 0 .01-.02.03-.02.05v1.06c0 .03.01.05.03.07 0 0 0 .02.01.03.02.02.06.04.1.04h.76s.07 0 .11-.01c.1-.01.19-.07.26-.16.02-.03.03-.08.05-.11 0 .03.01.06.03.08.03.06.07.1.12.13.05.04.11.05.19.06h.85c.04 0 .07-.02.1-.05.03.02.06.04.1.04h.22c.07 0 .13-.06.13-.13v-.7h.08v.7c0 .07.06.13.14.13h.22l.06-.03c.01 0 .02 0 .03-.01.01-.01.01-.03.02-.05 0-.01.02-.03.02-.04v-.7h.07v.7s.02.05.03.07c0 0 0 .02.01.02l.06.03c.01 0 .02.01.03.01h.22l.06-.03s.02 0 .03-.01c.02.02.06.04.09.04h.68s.11 0 .15-.02c.09-.02.16-.08.21-.16.01-.02.02-.05.02-.08v.02c.04.09.1.15.17.19.02.01.06.01.08.02 0 0 .01.01.02.01s.02.01.04.01h.56c.06 0 .1-.02.15-.04a.45.45 0 0 0 .17-.19c.04-.09.04-.16.04-.24v-.73c0-.07-.06-.14-.14-.14m-6.07.55s-.04 0-.05.02v-.04s.03.01.05.02Zm.18-.31h.32v.05h-.33v-.06l.01.01Zm.38.65h-.38v-.08h.36s.01.02.01.04v.04m.15-.4v.09-.01c-.03-.02-.06-.02-.09-.02.02 0 .03 0 .05-.01 0 0 .05-.06.06-.1l.01-.02c0 .03-.01.06-.03.08m1.33.21h-.02.02Zm.5-.39H99l.02-.01m.52.04s-.03-.01-.04-.02l-.02-.02h.1l-.04.04Zm1.03-.07s-.03 0-.04.02v-.04s.03.02.05.02m.44.58h-.25v-.33h.25v.33Zm1.29.08h-.01.06-.05Z" fill="#060001"/><path d="M178.66 112.96c0-.05-.01-.1-.02-.15a1.221 1.221 0 0 0-.33-.7.47.47 0 0 0-.12-.09c-.03-.02-.06-.03-.1-.05l-.07-.03s-.04-.02-.06-.02h-.09l-2.29-.02h-.03c-.01 0-.02.02-.03.02-.01 0-.03.01-.04.03-.01.02-.01.03-.02.05 0 .01-.01.02-.01.03v.04l.19.79c.02.06.07.1.13.1l2.03.02v.3h-.22l-1.49-.01h-.07c-.03 0-.08.01-.11.02-.03 0-.07.02-.11.04-.06.03-.11.07-.17.12-.06.06-.11.12-.16.2-.05.08-.08.16-.11.25-.03.08-.05.16-.06.25-.01.08-.02.16-.02.23v.48c0 .07.01.13.03.2.04.19.12.36.22.5.04.05.1.12.17.17.06.04.12.07.19.09.07.02.14.03.2.03h2.43v.01c.04 0 .07-.01.1-.04 0 0 0-.01.01-.02.01-.02.03-.04.03-.07v-2.76m-.27 2.63h-2.29s-.09-.02-.12-.03c-.04-.01-.08-.04-.11-.06a.679.679 0 0 1-.12-.12.927.927 0 0 1-.17-.39.88.88 0 0 1-.02-.17v-.45c0-.07 0-.13.02-.2.01-.07.03-.14.05-.2.03-.07.05-.14.09-.2.03-.06.07-.1.11-.14.04-.03.07-.06.1-.07.02 0 .03-.01.06-.02.02 0 .05-.01.1-.02h1.5l.35.01s.07-.02.1-.04c0 0 0-.02.01-.03.01-.02.03-.04.03-.07v-.46s0-.08-.03-.13a.209.209 0 0 0-.18-.12h-.02l-1.96-.02-.12-.52 2.07.02h.09s.04 0 .04.01l.06.02.06.03c.02.01.04.03.07.05.05.05.09.1.13.18.03.05.05.1.07.16.02.07.04.14.05.22 0 .04.01.08.02.12v2.61l-.04.03Zm-7.66-3.71s-.03-.01-.05-.02c-.02 0-.03-.02-.05-.02h-.61c-.04 0-.07.01-.1.04 0 0 0 .02-.01.03-.01.02-.03.04-.03.07v2.75h-1.38v.13l-.04-.11v-2.78c0-.02-.01-.03-.02-.05 0-.02 0-.04-.02-.05-.01-.01-.03-.01-.05-.02-.02 0-.03-.02-.05-.02h-.61c-.07 0-.14.06-.14.14v2.73c0 .11.02.22.05.34.04.16.12.38.29.55a.8.8 0 0 0 .27.18c.05.02.1.03.15.03h1.76c.05 0 .1-.03.15-.05.06-.03.12-.07.18-.13.16-.16.25-.38.29-.53.03-.11.05-.21.05-.33V112c0-.02-.01-.03-.02-.05 0-.02 0-.04-.02-.05m-.23 2.69v.16c0 .1-.02.18-.04.27a.97.97 0 0 1-.21.4c-.04.04-.07.06-.11.08-.03.01-.05.02-.08.03h-1.58s-.07 0-.1-.01c-.03 0-.05 0-.08-.02a.419.419 0 0 1-.16-.11c-.12-.13-.19-.31-.22-.43a1.35 1.35 0 0 1-.04-.28v-2.59h.34v2.63c0 .03 0 .07.02.12.02.05.05.09.1.11.01 0 .04.02.07.03h.08v-.14l.04.14h1.42s.01.01.02.01c.02 0 .06 0 .09-.02.05-.03.08-.06.1-.11.01-.04.02-.08.02-.12v-2.63h.34v2.46l-.02.02Zm-11.149-1.94c-.02-.11-.04-.2-.07-.29-.04-.1-.09-.2-.14-.29a.809.809 0 0 0-.2-.21c-.06-.04-.12-.06-.18-.09a.737.737 0 0 0-.14-.04h-.08l-2.34-.02h-.03c-.01 0-.02.01-.03.02-.01.01-.03.02-.04.03-.01.01-.01.03-.02.05 0 .01-.01.02-.01.04v.03l.19.8c.01.06.07.1.13.1h2.06l.04.01v.29h-1.71v.02s-.02-.01-.03-.01c0 0-.03-.01-.04-.02-.05 0-.11.01-.16.03-.06.02-.11.04-.16.08a.88.88 0 0 0-.31.37 1.8 1.8 0 0 0-.12.35l-.03.18v.59c.01.12.02.21.06.33.04.15.11.28.19.39.08.11.17.19.28.24.13.07.22.07.35.07h2.46c.05.01.09-.02.11-.07 0-.02.02-.03.02-.05v-2.83c0-.03 0-.07-.02-.12m-.25 2.81h-2.34c-.1-.01-.14-.01-.21-.05a.445.445 0 0 1-.18-.16c-.06-.08-.11-.19-.15-.3-.03-.1-.04-.17-.05-.28v-.53c0-.05.01-.11.02-.16.02-.1.05-.19.1-.28.06-.12.13-.21.22-.26.03-.02.05-.03.09-.04.05-.01.08-.02.09-.02h.02s.02.01.03.01h.06l1.82.02s.07-.02.1-.04c0 0 0-.02.01-.03.01-.02.03-.04.03-.07v-.49s0-.06-.02-.1a.195.195 0 0 0-.1-.1c-.05-.03-.09-.02-.11-.02h-1.25l-.78-.02-.13-.53 2.18.02h.05c.01 0 .05.01.07.02.04.02.08.03.11.05.05.03.09.08.14.14.04.06.08.14.11.22.03.08.04.16.06.26 0 .03 0 .05.01.08v2.67-.01Z" fill="#555859"/><path d="M158.7 113.96s-.03-.01-.05-.02c-.02 0-.03-.02-.05-.02h-1.87v-.01h-.08c-.05.01-.08.04-.11.07-.02.03-.04.06-.04.1v.6c0 .04.01.07.03.11.02.04.06.08.1.09.04.02.07.02.1.01h1.86c.05.01.09-.03.11-.07 0-.02.02-.03.02-.05v-.73s-.01-.03-.02-.05c0-.01 0-.04-.02-.05m-.23.69h-1.67l-.03-.01v-.45h1.16v.01h.52v.46l.02-.01Zm19.571-.53s-.03-.01-.04-.02c-.02 0-.03-.02-.05-.02h-.94l-.88-.01h-.06c-.02 0-.07.03-.09.04-.05.04-.07.11-.08.16v.56c0 .02 0 .05.01.08 0 .03.02.06.04.08.02.03.05.05.09.07h.08v-.11.11s.02-.01.03-.01l1.77.03c.07 0 .13-.06.14-.13v-.72s-.01-.03-.02-.05c0-.01 0-.03-.02-.05m-.23.68h-1.64v-.44s0-.02-.01-.03h.85l.79.01h.01v.46Zm-11.111-1.96s0-.07-.04-.11a.207.207 0 0 0-.13-.09H165v-.01c-.02 0-.04.01-.06.02-.01 0-.03 0-.04.02-.02.02-.04.06-.04.1v2.08c0 .02.01.04.02.06 0 .01 0 .03.02.04.01 0 .03 0 .04.02.02 0 .03.02.06.02h1.49c.05 0 .1-.04.13-.08s.04-.08.04-.12v-1.85h-.13l.14-.04v-.06m-.27.1v1.77h-1.26v-1.82h1.21s.03.01.05.01v.04Zm.03 1.78s.02 0 .03-.01l.02.13-.05-.12Z" fill="#555859"/><path d="M167.29 112.63c-.02-.09-.04-.18-.08-.26a.948.948 0 0 0-.3-.42.673.673 0 0 0-.11-.07.487.487 0 0 0-.11-.04c-.07-.02-.14-.02-.22-.02h-1.32v-.8s-.01-.03-.02-.05c0-.01 0-.03-.02-.05-.01-.01-.03-.01-.05-.02-.02 0-.03-.02-.05-.02h-.67c-.02 0-.03.01-.04.02-.02 0-.03 0-.05.02-.01.01-.01.03-.02.04 0 .02-.02.03-.02.05v4.63c0 .08.06.14.13.14h1.34s0 .01.01.01h.84c.03 0 .06 0 .09-.01.04 0 .07-.02.11-.03.06-.02.12-.06.15-.09a.858.858 0 0 0 .28-.38c.07-.16.12-.35.13-.55v-1.85c0-.07-.02-.17-.03-.24m-.24 1.9v.19a1.1 1.1 0 0 1-.2.62.474.474 0 0 1-.18.15c-.02 0-.05.02-.07.02h-1.58l-.55-.01v-4.35h.41v.79s.01.03.02.05c0 .02 0 .04.02.05.01.01.03.01.05.02.02 0 .03.02.05.02h1.48c.05.01.09.01.12.02.02 0 .05.02.07.03.02.01.04.02.06.04.09.07.16.18.22.31.03.07.05.14.06.21l.03.2v1.64h-.01Zm8.21 1.13-.21-.87s-.01-.02-.02-.03c0-.02-.01-.03-.03-.04-.01-.01-.03-.01-.05-.02-.01 0-.02-.01-.03-.01h-1.42v-3.6s-.01-.03-.02-.05c0-.02 0-.03-.02-.05-.01-.01-.03-.01-.05-.02-.02 0-.03-.02-.05-.02h-.66c-.07 0-.14.06-.14.13v4.6c0 .07.06.14.13.14h2.42v.01h.03c.01 0 .02-.01.03-.02.02 0 .03-.02.04-.03.01-.01.01-.03.02-.04 0-.01.01-.02.01-.04v-.03m-2.42-.12v-4.32h.4v3.59c0 .02.01.04.02.05 0 .01 0 .03.02.04 0 0 .03 0 .04.02.02 0 .03.02.06.02h1.44l.14.61h-2.12v-.01Zm-18.03-2.01-.069-.07a.44.44 0 0 0-.151-.08c-.02 0-.039-.01-.079-.02h-.02s-.01-.01-.02-.01H152.9v-.01c-.04 0-.069.02-.099.04v.02c-.01.02-.03.04-.03.07v1.24s.009.03.019.05c0 .02.001.03.021.05.01.01.03.01.05.02.02 0 .03.02.05.02h1.51v.01h.089s.05-.02.08-.02c.04-.01.071-.04.111-.07.03-.02.06-.05.08-.08.03-.04.06-.08.08-.12.07-.13.11-.29.11-.46 0-.17-.04-.33-.11-.46-.03-.05-.05-.09-.09-.13m-.151.92s-.029.05-.049.08l-.04.04c-.01.01-.03.02-.03.02h-.03v.02h-1.42v-.98h1.379v.01h.061c.02 0 .029.01.049.03.01.01.031.02.041.04.02.02.04.05.05.08a.7.7 0 0 1 .08.33.7.7 0 0 1-.08.33m26.749-1.57s-.04-.08-.07-.11c-.06-.05-.12-.04-.17-.04h-1.38v-.01h-.02c-.03 0-.06.01-.08.03-.01.01-.01.03-.02.05 0 .01-.02.03-.02.05v2.06s.01.04.02.05c0 .01 0 .03.01.04 0 0 .02 0 .04.01s.04.03.06.03h1.39s.01.01.02.01c.04 0 .09 0 .14-.04.03-.03.06-.06.07-.1.01-.04.02-.09.02-.13v-1.78s0-.08-.01-.13m-.26.12v1.78h-1.23v-1.8h1.23v.02Z" fill="#555859"/><path d="M155.62 113.78c-.05-.25-.14-.46-.27-.65.06-.14.11-.29.14-.46.01-.09.02-.18.02-.27v-.26c0-.07 0-.13-.02-.2a1.843 1.843 0 0 0-.22-.67c-.16-.3-.4-.51-.67-.62-.18-.07-.31-.07-.46-.07h-1.12v-.88c0-.01 0-.02-.01-.03v-.04s-.01 0-.01-.01a.138.138 0 0 0-.04-.03c-.02 0-.03-.02-.05-.02h-.02c-.01 0-.02 0-.03.01h-.04l-.68.4v.01c-.01.01-.02.03-.03.04 0 .02-.02.03-.02.05v1.03s0 .02.01.03v.04h.01c.03.03.06.06.1.06.02 0 .05 0 .07-.02l.48-.28v.51l-.62.37s0 .01-.01.01c-.01.01-.02.03-.03.04 0 .02-.02.03-.02.05v3.64c0 .07.06.13.13.13h2.46v.01c.08 0 .13-.01.21-.03a.75.75 0 0 0 .2-.1c.11-.07.2-.17.29-.3.17-.25.24-.54.27-.73.02-.15.02-.23.02-.4v-.17c0-.07-.02-.14-.03-.2m-2.6-2.11h1.27v.01h.04c.01 0 .02 0 .03.01.05.03.1.09.12.17.03.08.05.16.05.25v.1c0 .01-.01.02-.01.03a.42.42 0 0 1-.14.28c-.02.01-.03.02-.05.02h-1.32v-.89l.01.02Zm-.68-.8v-.69l.41-.24v.69l-.41.24Zm3.02 3.64c-.03.17-.08.41-.23.62-.07.1-.14.17-.22.23a.31.31 0 0 1-.13.06c-.05.01-.08.02-.14.02h-2.32V112l.42-.25v.92c0 .02.01.04.02.06 0 .01 0 .03.01.03.01.01.03.01.05.02.01 0 .03.02.04.02h1.4l.02.01c.04 0 .07 0 .11-.01.04-.01.08-.03.12-.06v-.01c.19-.13.24-.38.26-.48 0 0 0-.09.01-.13 0-.01-.01-.02-.02-.04a.718.718 0 0 0-.25-.57c0-.01-.01-.02-.02-.03v-.01c-.02-.01-.05-.02-.07-.03-.02 0-.03-.02-.05-.02h-1.36v-.57h1.12c.15.01.24.01.36.06.21.08.4.25.53.5.06.11.11.22.14.35.02.07.03.14.04.22 0 .05.01.1.01.15v.26c0 .08 0 .16-.02.24-.03.16-.07.31-.14.46v.06c0 .01.01.02.01.03 0 .01 0 .02.01.03v.02c.13.17.22.38.26.61l.03.18v.16c0 .14 0 .21-.02.34m26.63-1.83c-.03-.12-.09-.31-.22-.47a.635.635 0 0 0-.24-.21.502.502 0 0 0-.13-.05.507.507 0 0 0-.13-.02h-1.38v-.79s-.01-.03-.02-.05c0-.02 0-.04-.02-.05-.01-.01-.03-.01-.05-.02-.02 0-.03-.02-.05-.02h-.65c-.08 0-.14.06-.14.14v4.57c0 .08.06.14.13.14h1.98l.17.01s.06 0 .11-.01c.03 0 .06-.01.08-.02.04-.01.09-.04.13-.07.05-.04.1-.08.14-.13.09-.1.16-.23.22-.38.03-.07.04-.15.06-.22l.03-.23v-1.87c0-.09-.02-.17-.04-.25m-.22 1.89v.21c0 .06 0 .13-.02.19-.01.06-.03.12-.05.18a.88.88 0 0 1-.16.29c-.03.03-.06.06-.09.08-.03.02-.05.03-.07.04-.02 0-.04.01-.07.02h-1.24l-.83-.01v-4.3h.4v.78s.01.04.03.06c0 .01 0 .03.01.03.01.01.03.01.05.02.01 0 .03.02.04.02h1.5s.04.02.06.02c.03 0 .05.02.08.03.05.02.1.07.15.14.07.1.13.23.17.37.02.07.03.14.03.22v1.61h.01Zm-17.87-2.09a.989.989 0 0 0-.09-.24c-.04-.07-.08-.15-.13-.2-.04-.05-.09-.09-.15-.14a.49.49 0 0 0-.19-.1c-.07-.02-.13-.02-.18-.02l-2.19-.02h-1.12v-.01c-.07 0-.13.06-.13.14v3.72c0 .07.06.14.13.14h.65c.04 0 .07-.02.1-.04v-.02c.01-.02.03-.04.03-.07v-2.76h.75v2.77c0 .07.06.12.12.13h.67c.05 0 .09-.03.11-.08 0-.02.02-.03.02-.05v-2.76h.73v2.76c0 .07.06.12.12.13h.68c.05 0 .09-.03.11-.08 0-.02.02-.03.02-.05v-2.74c0-.07 0-.12-.02-.19-.01-.07-.03-.14-.05-.21m-.21 3h-.39v-2.66c0-.02 0-.05-.01-.08a.25.25 0 0 0-.04-.07c-.03-.05-.08-.07-.14-.08h-.87c-.08 0-.13.04-.15.07-.04.05-.05.11-.06.15v2.68h-.39v-2.66c0-.06-.02-.11-.05-.15-.04-.05-.08-.08-.14-.08h-.88s-.1 0-.15.05c-.06.06-.06.13-.06.15v2.68h-.39v-3.44h1l2.18.02s.08 0 .11.01.06.03.11.06c.04.03.08.06.1.1.03.04.07.1.1.15.03.06.05.11.07.19.02.06.03.13.04.19 0 .06.01.09.02.14v2.6l-.01-.02Z" fill="#555859"/><path d="m107.09 195.48.1-10.88-93.12-2.4-.21 10.19c1.07.04 10.47.35 93.22 3.09" fill="#F5F5F5"/><path d="M27.5 178.48c-.2-.32-.5-.5-.81-.48-.29.01-.56.19-.74.48-.14.23-.22.52-.22.83 0 .32.08.63.24.88.19.31.48.48.78.48h.03c.29-.01.56-.19.74-.48.14-.23.22-.53.22-.83 0-.32-.08-.63-.24-.88Zm-.21 1.56c-.06.1-.24.35-.52.36h-.02c-.29 0-.48-.25-.55-.35-.13-.2-.2-.46-.2-.73 0-.25.07-.5.18-.69.06-.1.24-.34.52-.35h.02c.29 0 .48.25.55.35.13.2.2.46.2.73 0 .25-.06.5-.18.69m-6.8-1.75c-.2-.31-.49-.48-.8-.48-.29.01-.56.19-.74.49-.14.23-.22.52-.22.82 0 .32.08.63.24.87.19.31.47.48.78.48h.03c.29-.01.56-.19.74-.48.14-.23.22-.52.22-.83 0-.32-.08-.63-.24-.87m-.21 1.56c-.06.1-.24.34-.52.35h-.02c-.29 0-.48-.25-.55-.35-.13-.2-.2-.46-.2-.73 0-.25.06-.5.18-.68.06-.1.24-.34.52-.35.31-.02.5.25.57.36.13.2.2.46.2.73 0 .25-.06.5-.18.68" fill="#060001"/><path d="M81.87 20.55c.97-.04 1.45-.06 2.42-.11.17 0 .29.15.29.34v.47c.07.05.12.16.12.28v.9c-1.13.04-1.7.07-2.83.11v-1.99Zm2.24.73v-.38s-.03-.08-.07-.08l-1.7.07v.46c.71-.03 1.06-.04 1.77-.07Zm.05.35c-.73.03-1.09.04-1.82.07v.46c.76-.03 1.14-.05 1.89-.08v-.38s-.03-.08-.07-.08m.75.15c0-.2.13-.36.3-.37.56-.02.84-.03 1.4-.06v-.28c-.62.03-.93.04-1.56.07v-.36c.65-.03.97-.04 1.61-.07.23 0 .41.16.41.38v1.25c-.74.03-1.12.04-1.86.07-.17 0-.3-.15-.3-.34v-.3.01Zm.47.27 1.23-.05v-.29l-1.23.05v.29Zm4.3-1.11v1.3c-.19 0-.28.01-.47.02v-1.3c-.19 0-.29.01-.48.02v1.3c-.19 0-.28.01-.47.02v-1.3c-.19 0-.29.01-.48.02v1.29c-.19 0-.28.01-.47.02v-1.65c.83-.04 1.25-.05 2.08-.09.16 0 .3.15.3.35m.23-.73.46-.02v.34l1.26-.05c.22 0 .39.2.39.47v.73c0 .27-.18.49-.39.5-.69.03-1.03.04-1.71.07v-2.03l-.01-.01Zm.46 1.6 1.19-.05v-.86l-1.19.05v.86Zm4.08.25-1.88.07c-.16 0-.3-.15-.3-.35v-1.35c.19 0 .28-.01.47-.02v1.35l1.23-.05v-1.36c.19 0 .28-.01.47-.02v1.73h.01Zm1.38-.41v-1.72c.19 0 .28-.01.47-.02v1.63s.03.08.07.08c.65-.03.98-.04 1.63-.06v.37c-.75.03-1.12.04-1.87.07-.16 0-.29-.15-.29-.35m2.3-.42c0-.2.13-.37.3-.38.56-.02.84-.03 1.4-.06v-.29c-.62.03-.93.04-1.56.07v-.38c.65-.03.97-.04 1.61-.07.229 0 .409.17.409.39v1.3c-.74.03-1.12.04-1.86.07-.17 0-.3-.15-.3-.35v-.31.01Zm.47.28 1.23-.05v-.3l-1.23.05v.3Zm1.93-1.79c.18 0 .27-.01.46-.02v.35l1.26-.05c.22 0 .39.2.39.48v.74c0 .28-.18.51-.39.51-.69.03-1.03.04-1.71.07v-2.08h-.01Zm.46 1.64 1.19-.05v-.88l-1.19.05v.88Zm-16.59 2.18v.64c0 .18-.12.32-.27.33-.75.03-1.12.04-1.87.06v.53c-.17 0-.26 0-.43.01v-.85c.83-.03 1.24-.04 2.07-.07.04 0 .06-.04.06-.08v-.47s-.03-.08-.06-.07c-.83.03-1.24.04-2.07.07v-.32c.92-.03 1.38-.05 2.3-.08.14 0 .26.13.26.31m1.1 1.44v-1.51l-.48.23v-.26c.23-.11.35-.17.59-.29h.24v1.82c-.14 0-.21 0-.35.01Zm-6.17.21c.54-.02.81-.03 1.36-.04v-2.21c-.54-.23-.81-.35-1.36-.58v2.83Zm0-4.52v1.42c.54.23.81.35 1.36.58v-2.06c-.54.02-.81.04-1.36.06Zm-1.57.06v2.82c.54-.27.81-.41 1.36-.68v-2.2c-.54.02-.81.04-1.36.06Zm0 4.51c.54-.02.81-.03 1.36-.04v-2.05c-.54.27-.81.41-1.36.68v1.41Zm11.27-.38c-.93.03-1.4.05-2.33.08v-.33c.83-.03 1.25-.04 2.08-.07.02 0 .04-.02.04-.05v-.16s-.01-.04-.03-.05c-.77-.11-1.16-.16-1.93-.27-.1-.02-.16-.12-.16-.24v-.4c0-.14.09-.25.21-.26.93-.03 1.4-.05 2.33-.09v.32c-.85.03-1.27.05-2.12.08-.02 0-.04.02-.04.05v.17s.01.04.03.05c.78.1 1.18.16 1.96.26.1.02.16.12.16.24v.4c0 .14-.09.25-.21.26l.01.01Z" fill="#555859"/><path d="m18.72 27.75 8.62-8.88m-3.47 7.46 2.57-2.44" stroke="#515151" stroke-width=".25" stroke-miterlimit="10" stroke-linecap="round"/></svg>