<svg width="15" height="15" viewBox="0 0 15 15" fill="none" xmlns="http://www.w3.org/2000/svg">
<g clip-path="url(#clip0_6827_29158)">
<path fill-rule="evenodd" clip-rule="evenodd" d="M7.56061 5.08115C7.34409 5.86542 7.20599 6.97253 7.20599 8.2117C7.20599 9.45087 7.34409 10.558 7.56061 11.3422C7.66968 11.7373 7.79223 12.0266 7.91086 12.2073C7.98094 12.3141 8.03033 12.3557 8.05458 12.3714C8.05874 12.3687 8.06354 12.3652 8.069 12.361C8.10773 12.3308 8.16032 12.2743 8.21247 12.1852C8.32892 11.9862 8.58463 11.9193 8.7836 12.0358C8.98258 12.1522 9.04947 12.408 8.93302 12.6069C8.83851 12.7684 8.72002 12.9123 8.58155 13.02C8.44599 13.1254 8.26643 13.2144 8.05948 13.2144C7.6655 13.2144 7.38831 12.9327 7.21288 12.6655C7.02677 12.3819 6.87588 11.9993 6.75582 11.5644C6.51406 10.6887 6.37109 9.5032 6.37109 8.2117C6.37109 6.9202 6.51406 5.73467 6.75582 4.85898C6.87588 4.42408 7.02677 4.04151 7.21288 3.75795C7.38831 3.49066 7.6655 3.20898 8.05948 3.20898C8.44304 3.20898 8.72381 3.48138 8.89826 3.74964C9.02395 3.94291 8.96915 4.20149 8.77588 4.32717C8.5826 4.45286 8.32403 4.39807 8.19834 4.20479C8.14468 4.12228 8.09859 4.07728 8.06882 4.0558C8.06511 4.05312 8.06185 4.05094 8.05904 4.04918C8.03674 4.06248 7.98555 4.10227 7.91086 4.21606C7.79223 4.39681 7.66968 4.68607 7.56061 5.08115Z" fill="#C4C4C4"/>
<path fill-rule="evenodd" clip-rule="evenodd" d="M5.15045 4.96201C4.93393 5.74628 4.79583 6.85339 4.79583 8.09256C4.79583 9.33173 4.93393 10.4388 5.15045 11.2231C5.25952 11.6182 5.38207 11.9074 5.50071 12.0882C5.57079 12.195 5.62018 12.2366 5.64443 12.2523C5.64858 12.2495 5.65339 12.2461 5.65885 12.2418C5.69757 12.2117 5.75017 12.1552 5.80231 12.0661C5.91876 11.8671 6.17447 11.8002 6.37345 11.9167C6.57242 12.0331 6.63932 12.2888 6.52286 12.4878C6.42836 12.6493 6.30987 12.7932 6.17139 12.9009C6.03583 13.0063 5.85627 13.0953 5.64932 13.0953C5.25534 13.0953 4.97816 12.8136 4.80272 12.5463C4.61661 12.2627 4.46573 11.8802 4.34566 11.4453C4.10391 10.5696 3.96094 9.38406 3.96094 8.09256C3.96094 6.80106 4.10391 5.61553 4.34566 4.73983C4.46573 4.30494 4.61661 3.92237 4.80272 3.63881C4.97816 3.37151 5.25534 3.08984 5.64932 3.08984C6.03289 3.08984 6.31365 3.36224 6.4881 3.6305C6.61379 3.82377 6.559 4.08234 6.36572 4.20803C6.17245 4.33372 5.91388 4.27893 5.78819 4.08565C5.73453 4.00314 5.68844 3.95814 5.65867 3.93666C5.65495 3.93398 5.65169 3.9318 5.64888 3.93004C5.62658 3.94334 5.57539 3.98313 5.50071 4.09692C5.38207 4.27767 5.25952 4.56693 5.15045 4.96201Z" fill="#C4C4C4"/>
<path fill-rule="evenodd" clip-rule="evenodd" d="M10.1473 4.47582C9.88993 5.41453 9.72552 6.73495 9.72552 8.21009C9.72552 9.68524 9.88993 11.0057 10.1473 11.9444C10.2768 12.4167 10.4236 12.7687 10.5689 12.9929C10.6412 13.1043 10.7032 13.1687 10.7482 13.2023C10.7696 13.2182 10.7842 13.225 10.7915 13.2277C10.7952 13.2291 10.7973 13.2296 10.7981 13.2297L10.7989 13.2298L10.799 13.2298L10.799 13.2298L10.799 13.2298L10.7991 13.2298L10.7998 13.2297C10.8006 13.2296 10.8028 13.2291 10.8064 13.2277C10.8138 13.225 10.8284 13.2182 10.8498 13.2023C10.8948 13.1687 10.9568 13.1043 11.029 12.9929C11.1744 12.7687 11.3211 12.4167 11.4506 11.9444C11.708 11.0057 11.8724 9.68524 11.8724 8.21009C11.8724 6.73495 11.708 5.41453 11.4506 4.47582C11.3211 4.00349 11.1744 3.65146 11.029 3.42728C10.9568 3.31586 10.8948 3.25152 10.8498 3.21794C10.8284 3.20195 10.8138 3.19517 10.8064 3.19245C10.8028 3.1911 10.8006 3.19063 10.7998 3.19048L10.7991 3.19037L10.799 3.19036L10.799 3.19036L10.799 3.19036L10.7989 3.19037L10.7981 3.19048C10.7973 3.19063 10.7952 3.1911 10.7915 3.19245C10.7842 3.19517 10.7696 3.20195 10.7482 3.21794C10.7032 3.25152 10.6412 3.31586 10.5689 3.42728C10.4236 3.65146 10.2768 4.00349 10.1473 4.47582ZM9.86837 2.97311C10.068 2.6652 10.3731 2.35547 10.799 2.35547C11.2248 2.35547 11.53 2.6652 11.7296 2.97311C11.941 3.2992 12.1155 3.74343 12.2558 4.25504C12.538 5.2842 12.7073 6.68237 12.7073 8.21009C12.7073 9.73782 12.538 11.136 12.2558 12.1651C12.1155 12.6768 11.941 13.121 11.7296 13.4471C11.53 13.755 11.2248 14.0647 10.799 14.0647C10.3731 14.0647 10.068 13.755 9.86837 13.4471C9.65697 13.121 9.48245 12.6768 9.34216 12.1651C9.05996 11.136 8.89062 9.73782 8.89062 8.21009C8.89062 6.68237 9.05996 5.2842 9.34216 4.25504C9.48245 3.74343 9.65697 3.2992 9.86837 2.97311Z" fill="#C4C4C4"/>
<path fill-rule="evenodd" clip-rule="evenodd" d="M2.28487 4.46452C2.02292 5.39548 1.85442 6.70867 1.85442 8.18504C1.85442 9.66257 2.01703 10.983 2.27348 11.9211C2.40252 12.3931 2.54895 12.7444 2.69431 12.9679C2.76651 13.0789 2.8286 13.143 2.87383 13.1766C2.89538 13.1925 2.91023 13.1994 2.91808 13.2023C2.92197 13.2037 2.92445 13.2043 2.92567 13.2045C2.92686 13.2047 2.9275 13.2048 2.92789 13.2048H2.928C2.93169 13.2048 2.98466 13.2052 3.08662 13.0854C3.19036 12.9635 3.30448 12.7614 3.41887 12.4682C3.50268 12.2535 3.74473 12.1473 3.9595 12.2311C4.17428 12.3149 4.28046 12.5569 4.19666 12.7717C4.06664 13.1049 3.91191 13.4039 3.72235 13.6266C3.53224 13.8499 3.26753 14.0397 2.92789 14.0397C2.50156 14.0397 2.19539 13.7321 1.9944 13.4231C1.7823 13.0969 1.60795 12.6527 1.46814 12.1412C1.18688 11.1124 1.01953 9.71423 1.01953 8.18504C1.01953 6.65467 1.19321 5.2618 1.48119 4.23838C1.62436 3.72956 1.80226 3.28838 2.01726 2.96474C2.22142 2.65742 2.52913 2.35547 2.95233 2.35547C3.3092 2.35547 3.58171 2.5771 3.76924 2.81549C3.96179 3.06025 4.12086 3.38996 4.25086 3.76311C4.3267 3.98082 4.2117 4.2188 3.99398 4.29465C3.77627 4.3705 3.53829 4.25549 3.46244 4.03777C3.34803 3.70935 3.22602 3.4753 3.11305 3.33169C3.015 3.20704 2.95876 3.19196 2.951 3.19043C2.94932 3.19059 2.94603 3.19116 2.94054 3.19315C2.93201 3.19624 2.9166 3.20338 2.8946 3.21943C2.84853 3.25302 2.78571 3.31681 2.71269 3.42673C2.56565 3.64806 2.41666 3.99615 2.28487 4.46452Z" fill="#C4C4C4"/>
</g>
<defs>
<clipPath id="clip0_6827_29158">
<rect width="14" height="14" fill="white" transform="translate(0.0195312 0.355469)"/>
</clipPath>
</defs>
</svg>
