<svg width="19" height="19" xmlns="http://www.w3.org/2000/svg" fill="none">

 <g>
  <title>background</title>
  <rect fill="none" id="canvas_background" height="548" width="1226" y="-1" x="-1"/>
 </g>
 <g>
  <title>Layer 1</title>
  <path id="svg_1" stroke-linecap="round" stroke-miterlimit="10" stroke="#009688" d="m16.1736,7.57227l1.1828,0.67566c0.2932,0.1675 0.5329,0.58452 0.5329,0.92748l0,3.01829c0,0.343 -0.2386,0.7634 -0.5295,0.9343l-7.87405,4.6192c-0.29097,0.1709 -0.76811,0.1731 -1.06131,0.0057l-6.67001,-3.8228c-0.2932,-0.1674 -0.53177,-0.5856 -0.53177,-0.9286l0,-2.9898c0,-0.34293 0.23857,-0.76223 0.52954,-0.932l0.87402,-0.50932"/>
  <path id="svg_2" stroke-linecap="round" stroke-miterlimit="10" stroke="#009688" d="m1.98438,9.79102l2.3913,1.39808c0.29097,0.1697 0.52954,0.5902 0.53066,0.9331l0.00446,2.7973"/>
  <path id="svg_3" stroke-linecap="round" stroke-miterlimit="10" stroke="#009688" d="m5.91406,12.002l2.39131,1.398c0.29097,0.1698 0.52954,0.5902 0.53065,0.9332l0.00446,2.7972"/>
  <path id="svg_4" stroke-linecap="round" stroke-miterlimit="10" stroke="#009688" d="m3.76865,10.8092c-0.29543,-0.163 -0.53623,-0.5777 -0.53623,-0.92068l0,-2.9898c0,-0.34296 0.23857,-0.76226 0.52954,-0.93203l7.91304,-4.61231c0.291,-0.16978 0.7715,-0.17661 1.0669,-0.01368l2.5987,1.42654c0.2954,0.16179 0.5373,0.5754 0.5373,0.91836l0,3.01828c0,0.34297 -0.2386,0.76341 -0.5295,0.93432l-7.87295,4.6191c-0.29097,0.171 -0.77034,0.1767 -1.06577,0.0137l-2.64103,-1.4618z"/>
  <path id="svg_5" stroke-linecap="round" stroke-miterlimit="10" stroke="#009688" d="m3.99219,6.67773l2.3913,1.39806c0.29097,0.16977 0.52955,0.59021 0.53066,0.93317l0.00446,2.79724"/>
  <path id="svg_6" stroke-linecap="round" stroke-miterlimit="10" stroke="#009688" d="m15.1985,3.38672l-7.68678,4.64422"/>
  <path id="svg_7" stroke-linecap="round" stroke-miterlimit="10" stroke="#009688" d="m17.0324,8.82227l-7.6867,4.64423"/>
 </g>
</svg>