<svg width="16" height="16" viewBox="0 0 16 16" fill="none" xmlns="http://www.w3.org/2000/svg">
<path fill-rule="evenodd" clip-rule="evenodd" d="M1 5V11H15V5H1ZM0.565457 4C0.253164 4 0 4.25316 0 4.56546V11.4345C0 11.7468 0.253164 12 0.565457 12H15.4345C15.7468 12 16 11.7468 16 11.4345V4.56546C16 4.25316 15.7468 4 15.4345 4H0.565457Z" fill="#eb4949"/>
<path d="M2.93378 5.86084H3.75369V9.26489H5.63666V9.99998H2.93378V5.86084Z" fill="#eb4949"/>
<path d="M8.15339 5.86084L9.82714 9.99998H8.95633L8.59444 9.05567H6.98289L6.63231 9.99998H5.81239L7.43526 5.86084H8.15339ZM8.32868 8.35451L7.77453 6.90128L7.23735 8.35451H8.32868Z" fill="#eb4949"/>
<path d="M10.9618 5.86084L12.9691 8.59765V5.86084H13.7325V9.99998H13.0653L11.0522 7.25752V9.99998H10.3002V5.86084H10.9618Z" fill="#eb4949"/>
</svg>
