<svg width="24" height="24" viewBox="0 0 24 24" fill="none" xmlns="http://www.w3.org/2000/svg">
<path fill-rule="evenodd" clip-rule="evenodd" d="M7.47995 16.1333H4.89662V18.7167H7.47995V16.1333ZM4.89662 15.1C4.62256 15.1 4.35973 15.2089 4.16594 15.4027C3.97215 15.5964 3.86328 15.8593 3.86328 16.1333V18.7167C3.86328 18.9907 3.97215 19.2536 4.16594 19.4473C4.35973 19.6411 4.62256 19.75 4.89662 19.75H7.47995C7.75401 19.75 8.01684 19.6411 8.21063 19.4473C8.40441 19.2536 8.51328 18.9907 8.51328 18.7167V16.1333C8.51328 15.8593 8.40441 15.5964 8.21063 15.4027C8.01684 15.2089 7.75401 15.1 7.47995 15.1H4.89662ZM13.68 16.1333H11.0966V18.7167H13.68V16.1333ZM11.0966 15.1C10.8226 15.1 10.5597 15.2089 10.3659 15.4027C10.1722 15.5964 10.0633 15.8593 10.0633 16.1333V18.7167C10.0633 18.9907 10.1722 19.2536 10.3659 19.4473C10.5597 19.6411 10.8226 19.75 11.0966 19.75H13.68C13.954 19.75 14.2168 19.6411 14.4106 19.4473C14.6044 19.2536 14.7133 18.9907 14.7133 18.7167V16.1333C14.7133 15.8593 14.6044 15.5964 14.4106 15.4027C14.2168 15.2089 13.954 15.1 13.68 15.1H11.0966ZM19.88 16.1333H17.2966V18.7167H19.88V16.1333ZM17.2966 15.1C17.0226 15.1 16.7597 15.2089 16.5659 15.4027C16.3722 15.5964 16.2633 15.8593 16.2633 16.1333V18.7167C16.2633 18.9907 16.3722 19.2536 16.5659 19.4473C16.7597 19.6411 17.0226 19.75 17.2966 19.75H19.88C20.154 19.75 20.4168 19.6411 20.6106 19.4473C20.8044 19.2536 20.9133 18.9907 20.9133 18.7167V16.1333C20.9133 15.8593 20.8044 15.5964 20.6106 15.4027C20.4168 15.2089 20.154 15.1 19.88 15.1H17.2966ZM6.56752 8.1188C5.34198 9.4549 4.69925 11.038 4.63725 12.0486C4.62437 12.254 4.53042 12.4458 4.37607 12.582C4.22172 12.7181 4.01961 12.7874 3.8142 12.7745C3.6088 12.7616 3.41692 12.6677 3.28078 12.5133C3.14465 12.3589 3.0754 12.1568 3.08828 11.9514C3.17818 10.5151 4.01208 8.60963 5.42362 7.071C6.85582 5.51067 8.95038 4.25 11.6133 4.25C14.2721 4.25 16.4038 5.50757 17.8546 7.06687C19.2817 8.60033 20.1383 10.5244 20.1383 12H18.5883C18.5883 11.0287 17.9683 9.4642 16.72 8.12293C15.4955 6.80647 13.7523 5.8 11.6133 5.8C9.47842 5.8 7.77445 6.80233 6.56752 8.1188Z" fill="#262E30"/>
<path d="M20.9133 12H14.7133L20.9133 5.79999V12Z" fill="#262E30"/>
</svg>
