<svg width="16" height="16" viewBox="0 0 16 16" fill="none" xmlns="http://www.w3.org/2000/svg">
<path fill-rule="evenodd" clip-rule="evenodd" d="M5.90353 2.57688L1.92959 6.25754H10.6119L14.5719 2.57688H5.90353ZM5.24348 1.7204C5.36414 1.60451 5.54925 1.5 5.77594 1.5H15.2009C15.6319 1.5 15.8847 1.81966 15.9642 2.09032C16.043 2.35847 16.0033 2.71966 15.7281 2.97248L11.2568 7.12831C11.0773 7.30059 10.8624 7.33441 10.7241 7.33441H1.29907C0.868108 7.33441 0.615342 7.01475 0.535805 6.7441C0.456962 6.4758 0.496745 6.11437 0.772377 5.86154L5.24348 1.7204Z" fill="#6B6B6B"/>
<path fill-rule="evenodd" clip-rule="evenodd" d="M13.6022 5.77281C13.6022 5.47544 13.8432 5.23438 14.1406 5.23438H15.2009C15.6319 5.23438 15.8847 5.55403 15.9642 5.82469C16.043 6.09298 16.0033 6.45439 15.7277 6.70722L11.2565 10.8484C11.1358 10.9643 10.9507 11.0688 10.7241 11.0688H1.29907C0.868108 11.0688 0.615342 10.7491 0.535805 10.4785C0.457061 10.2105 0.496646 9.84966 0.771342 9.59686L1.5795 8.842C1.79681 8.63901 2.13754 8.65063 2.34052 8.86795C2.54351 9.08526 2.53189 9.42598 2.31458 9.62897L1.92601 9.99191H10.5965L14.5704 6.31125H14.1406C13.8432 6.31125 13.6022 6.07018 13.6022 5.77281Z" fill="#00AE42"/>
<path fill-rule="evenodd" clip-rule="evenodd" d="M13.72 9.42906C13.72 9.13169 13.9611 8.89062 14.2584 8.89062H15.2009C15.6319 8.89062 15.8847 9.21028 15.9642 9.48094C16.043 9.74923 16.0033 10.1106 15.7277 10.3635L11.2565 14.5047C11.1358 14.6205 10.9507 14.725 10.7241 14.725H1.29907C0.868107 14.725 0.615342 14.4054 0.535805 14.1347C0.456854 13.8661 0.496855 13.504 0.773516 13.2511C0.773765 13.2509 0.774013 13.2507 0.774262 13.2504L1.3916 12.6841C1.61073 12.4831 1.95134 12.4978 2.15236 12.7169C2.35339 12.936 2.33871 13.2766 2.11958 13.4776L1.93371 13.6482H10.5965L14.5704 9.9675H14.2584C13.9611 9.9675 13.72 9.72643 13.72 9.42906Z" fill="#6B6B6B"/>
</svg>
