<svg width="39" height="22" viewBox="0 0 39 22" fill="none" xmlns="http://www.w3.org/2000/svg">
<circle cx="19.1378" cy="9.2257" r="7.39563" stroke="#323A3D" stroke-width="1.5"/>
<circle cx="19.1358" cy="10.7042" r="3.5499" stroke="#323A3D" stroke-width="1.5"/>
<path d="M22.1393 16.041L22.7888 15.666L22.4508 15.0806L21.8335 15.3562L22.1393 16.041ZM16.1328 16.0484L16.4368 15.3628L15.8204 15.0895L15.4833 15.6734L16.1328 16.0484ZM14.1328 19.5125L13.4833 19.1375L12.8338 20.2625H14.1328V19.5125ZM24.1435 19.5125V20.2625H25.4426L24.793 19.1375L24.1435 19.5125ZM21.8335 15.3562C21.008 15.7247 20.0928 15.9299 19.1277 15.9299V17.4299C20.3076 17.4299 21.4307 17.1786 22.445 16.7259L21.8335 15.3562ZM19.1277 15.9299C18.1684 15.9299 17.2585 15.7271 16.4368 15.3628L15.8288 16.734C16.8382 17.1816 17.955 17.4299 19.1277 17.4299V15.9299ZM14.7823 19.8875L16.7823 16.4234L15.4833 15.6734L13.4833 19.1375L14.7823 19.8875ZM24.1435 18.7625H14.1328V20.2625H24.1435V18.7625ZM21.4897 16.416L23.494 19.8875L24.793 19.1375L22.7888 15.666L21.4897 16.416Z" fill="#323A3D"/>
<line x1="13.2695" y1="19.4199" x2="24.7325" y2="19.4199" stroke="#323A3D" stroke-width="1.5" stroke-linecap="round"/>
</svg>
