<svg width="38" height="23" viewBox="0 0 38 23" fill="none" xmlns="http://www.w3.org/2000/svg">
<path fill-rule="evenodd" clip-rule="evenodd" d="M18.9995 2.93047C15.2464 2.93047 12.2039 5.97297 12.2039 9.72609C12.2039 13.4792 15.2464 16.5217 18.9995 16.5217C22.7527 16.5217 25.7952 13.4792 25.7952 9.72609C25.7952 5.97297 22.7527 2.93047 18.9995 2.93047ZM11.0039 9.72609C11.0039 5.31023 14.5837 1.73047 18.9995 1.73047C23.4154 1.73047 26.9952 5.31023 26.9952 9.72609C26.9952 14.142 23.4154 17.7217 18.9995 17.7217C14.5837 17.7217 11.0039 14.142 11.0039 9.72609Z" fill="#6B6B6B"/>
<path fill-rule="evenodd" clip-rule="evenodd" d="M18.9976 8.25469C17.3684 8.25469 16.0477 9.5754 16.0477 11.2046C16.0477 12.8338 17.3684 14.1545 18.9976 14.1545C20.6267 14.1545 21.9475 12.8338 21.9475 11.2046C21.9475 9.5754 20.6267 8.25469 18.9976 8.25469ZM14.8477 11.2046C14.8477 8.91266 16.7056 7.05469 18.9976 7.05469C21.2895 7.05469 23.1475 8.91266 23.1475 11.2046C23.1475 13.4965 21.2895 15.3545 18.9976 15.3545C16.7056 15.3545 14.8477 13.4965 14.8477 11.2046Z" fill="#6B6B6B"/>
<path fill-rule="evenodd" clip-rule="evenodd" d="M22.248 15.7734L25.0423 20.6132H12.9531L15.7424 15.782L16.2356 16.0007C17.076 16.3733 18.0066 16.5807 18.9873 16.5807C19.9738 16.5807 20.9098 16.3708 21.7542 15.9939L22.248 15.7734ZM21.7402 17.2939C20.8813 17.6089 19.9538 17.7807 18.9873 17.7807C18.0272 17.7807 17.1056 17.6112 16.2515 17.3002L15.0316 19.4132H22.9638L21.7402 17.2939Z" fill="#6B6B6B"/>
<path fill-rule="evenodd" clip-rule="evenodd" d="M12.3789 20.0707C12.3789 19.7393 12.6475 19.4707 12.9789 19.4707L24.7419 19.4707C25.0733 19.4707 25.3419 19.7393 25.3419 20.0707C25.3419 20.4021 25.0733 20.6707 24.7419 20.6707L12.9789 20.6707C12.6475 20.6707 12.3789 20.4021 12.3789 20.0707Z" fill="#6B6B6B"/>
</svg>
