<svg width="20" height="20" viewBox="0 0 20 20" fill="none" xmlns="http://www.w3.org/2000/svg">
<path fill-rule="evenodd" clip-rule="evenodd" d="M9.99931 2.9082C6.92113 2.9082 4.42578 5.40356 4.42578 8.48173C4.42578 11.5599 6.92113 14.0553 9.99931 14.0553C13.0775 14.0553 15.5728 11.5599 15.5728 8.48173C15.5728 5.40356 13.0775 2.9082 9.99931 2.9082ZM2.92578 8.48173C2.92578 4.57513 6.09271 1.4082 9.99931 1.4082C13.9059 1.4082 17.0728 4.57513 17.0728 8.48173C17.0728 12.3883 13.9059 15.5553 9.99931 15.5553C6.09271 15.5553 2.92578 12.3883 2.92578 8.48173Z" fill="#323A3D"/>
<path fill-rule="evenodd" clip-rule="evenodd" d="M9.99623 7.46094C8.7341 7.46094 7.71094 8.4841 7.71094 9.74623C7.71094 11.0084 8.7341 12.0315 9.99623 12.0315C11.2584 12.0315 12.2815 11.0084 12.2815 9.74623C12.2815 8.4841 11.2584 7.46094 9.99623 7.46094ZM6.21094 9.74623C6.21094 7.65567 7.90567 5.96094 9.99623 5.96094C12.0868 5.96094 13.7815 7.65567 13.7815 9.74623C13.7815 11.8368 12.0868 13.5315 9.99623 13.5315C7.90567 13.5315 6.21094 11.8368 6.21094 9.74623Z" fill="#323A3D"/>
<path fill-rule="evenodd" clip-rule="evenodd" d="M12.8788 13.3496L15.5795 18.0272H4.42188L7.11898 13.3557L7.73548 13.6293C8.42481 13.9352 9.18836 14.1055 9.99369 14.1055C10.8028 14.1055 11.5698 13.9336 12.2617 13.6249L12.8788 13.3496ZM12.2391 15.2415C11.5329 15.4777 10.7776 15.6055 9.99369 15.6055C9.21408 15.6055 8.46282 15.4791 7.76002 15.2454L7.01995 16.5272H12.9814L12.2391 15.2415Z" fill="#323A3D"/>
<path fill-rule="evenodd" clip-rule="evenodd" d="M3.80078 17.2773C3.80078 16.8631 4.17454 16.5273 4.63559 16.5273L15.3031 16.5273C15.7642 16.5273 16.1379 16.8631 16.1379 17.2773C16.1379 17.6916 15.7642 18.0273 15.3031 18.0273L4.63559 18.0273C4.17454 18.0273 3.80078 17.6916 3.80078 17.2773Z" fill="#323A3D"/>
</svg>
