<svg width="20" height="20" viewBox="0 0 20 20" fill="none" xmlns="http://www.w3.org/2000/svg">
<path fill-rule="evenodd" clip-rule="evenodd" d="M9.99931 2.6582C6.78306 2.6582 4.17578 5.26549 4.17578 8.48173C4.17578 11.698 6.78306 14.3053 9.99931 14.3053C13.2156 14.3053 15.8228 11.698 15.8228 8.48173C15.8228 5.26549 13.2156 2.6582 9.99931 2.6582ZM3.17578 8.48173C3.17578 4.7132 6.23078 1.6582 9.99931 1.6582C13.7678 1.6582 16.8228 4.7132 16.8228 8.48173C16.8228 12.2503 13.7678 15.3053 9.99931 15.3053C6.23078 15.3053 3.17578 12.2503 3.17578 8.48173Z" fill="#323A3D"/>
<path fill-rule="evenodd" clip-rule="evenodd" d="M9.99623 7.21094C8.59603 7.21094 7.46094 8.34603 7.46094 9.74623C7.46094 11.1464 8.59603 12.2815 9.99623 12.2815C11.3964 12.2815 12.5315 11.1464 12.5315 9.74623C12.5315 8.34603 11.3964 7.21094 9.99623 7.21094ZM6.46094 9.74623C6.46094 7.79374 8.04374 6.21094 9.99623 6.21094C11.9487 6.21094 13.5315 7.79374 13.5315 9.74623C13.5315 11.6987 11.9487 13.2815 9.99623 13.2815C8.04374 13.2815 6.46094 11.6987 6.46094 9.74623Z" fill="#323A3D"/>
<path fill-rule="evenodd" clip-rule="evenodd" d="M12.7756 13.6699L15.147 17.7774H4.85547L7.22366 13.6756L7.63466 13.858C8.3553 14.1778 9.15334 14.3557 9.99427 14.3557C10.8392 14.3557 11.6408 14.1761 12.3641 13.8535L12.7756 13.6699ZM12.3525 14.9371C11.617 15.208 10.8224 15.3557 9.99427 15.3557C9.17044 15.3557 8.37982 15.2095 7.64759 14.9414L6.58752 16.7774H13.415L12.3525 14.9371Z" fill="#323A3D"/>
<path fill-rule="evenodd" clip-rule="evenodd" d="M4.33984 17.3398C4.33984 17.0637 4.5637 16.8398 4.83984 16.8398L14.9237 16.8398C15.1998 16.8398 15.4237 17.0637 15.4237 17.3398C15.4237 17.616 15.1998 17.8398 14.9237 17.8398L4.83984 17.8398C4.5637 17.8398 4.33984 17.616 4.33984 17.3398Z" fill="#323A3D"/>
</svg>
