<svg width="39" height="22" viewBox="0 0 39 22" fill="none" xmlns="http://www.w3.org/2000/svg">
<circle cx="19.1378" cy="9.2257" r="7.39563" stroke="#323A3D" stroke-width="1.2"/>
<circle cx="19.1358" cy="10.7042" r="3.5499" stroke="#323A3D" stroke-width="1.2"/>
<path d="M22.1393 16.041L22.6589 15.741L22.3885 15.2727L21.8947 15.4931L22.1393 16.041ZM16.1328 16.0484L16.376 15.4999L15.8829 15.2813L15.6132 15.7484L16.1328 16.0484ZM14.1328 19.5125L13.6132 19.2125L13.0936 20.1125H14.1328V19.5125ZM24.1435 19.5125V20.1125H25.1827L24.6631 19.2125L24.1435 19.5125ZM21.8947 15.4931C21.0502 15.8701 20.1143 16.0799 19.1277 16.0799V17.2799C20.2861 17.2799 21.3885 17.0332 22.3838 16.5889L21.8947 15.4931ZM19.1277 16.0799C18.1471 16.0799 17.2165 15.8726 16.376 15.4999L15.8896 16.5969C16.8802 17.0362 17.9763 17.2799 19.1277 17.2799V16.0799ZM14.6524 19.8125L16.6524 16.3484L15.6132 15.7484L13.6132 19.2125L14.6524 19.8125ZM24.1435 18.9125H14.1328V20.1125H24.1435V18.9125ZM21.6196 16.341L23.6239 19.8125L24.6631 19.2125L22.6589 15.741L21.6196 16.341Z" fill="#323A3D"/>
<line x1="13.1195" y1="19.5699" x2="24.8825" y2="19.5699" stroke="#323A3D" stroke-width="1.2" stroke-linecap="round"/>
</svg>
