<svg xmlns="http://www.w3.org/2000/svg" viewBox="0 0 16 16" width="16px" height="16px">
<path fill="#eb4949" d="m 0.80996126,4.2067338 c 0,0 1.45662384,-2.2486082 3.76076774,-3.45466511 2.3041438,-1.2060569 5.1439072,-0.85800021 7.005512,0.31082271 1.861604,1.1704417 2.488671,2.1563326 2.488671,2.1563326 l 1.603592,-0.9146606 c 0,0 0.331496,-0.1651245 0.331496,0.2185472 v 5.7388883 c 0,0 0,0.5115624 -0.387017,0.3286302 C 15.288019,8.4368366 11.764034,6.4326776 10.655236,5.801319 10.046132,5.5293491 10.581752,5.309183 10.581752,5.309183 l 1.548071,-0.8855209 c 0,0 -0.883446,-1.1056871 -2.1751379,-1.6917175 C 8.5715456,2.0147859 7.2765874,1.9289859 5.6909576,2.5279672 4.6572773,2.9181146 3.4390694,3.9185752 2.5621557,5.3966019 Z" />
<path fill="#808080" d="m 15.19004,11.792751 c 0,0 -1.456624,2.248608 -3.760768,3.454665 C 9.125128,16.453472 6.2853646,16.107035 4.4237602,14.936593 2.5621557,13.766151 1.935089,12.78026 1.935089,12.78026 l -1.60359274,0.913042 c 0,0 -0.3314962496,0.165125 -0.3314962496,-0.218547 V 7.7342477 c 0,0 0,-0.5115623 0.3870177796,-0.3286303 0.32496429,0.1537925 3.84894891,2.1579516 4.95774671,2.7893106 0.609104,0.271969 0.073485,0.492136 0.073485,0.492136 l -1.5480712,0.88552 c 0,0 0.8834456,1.105688 2.1751379,1.691718 1.3831395,0.720396 2.6780976,0.806196 4.2637278,0.207215 1.033681,-0.390147 2.251888,-1.390608 3.128802,-2.868635 z" />
</svg>
