<svg width="15" height="15" viewBox="0 0 15 15" fill="none" xmlns="http://www.w3.org/2000/svg">
<path d="M14.2254 6.20744C14.6554 6.20744 15.0013 5.86151 15.0013 5.43151V0.77593C15.0013 0.345936 14.6554 0 14.2254 0C13.7954 0 13.4495 0.345936 13.4495 0.77593V3.3656L12.8029 2.60583C11.4773 1.01518 9.47605 0 7.24202 0C3.24274 0 0 3.24274 0 7.24202C0 11.2413 3.24274 14.484 7.24202 14.484C8.87147 14.484 10.3781 13.9441 11.5872 13.0356C11.9299 12.777 11.9978 12.292 11.7424 11.9493C11.487 11.6066 10.9988 11.5387 10.6561 11.7941C9.7056 12.5086 8.52553 12.9322 7.24202 12.9322C4.0995 12.9322 1.55186 10.3845 1.55186 7.24202C1.55186 4.0995 4.0995 1.55186 7.24202 1.55186C8.99756 1.55186 10.5688 2.34719 11.6131 3.60161L11.6163 3.60808L12.5086 4.65558H9.56981C9.13981 4.65558 8.79388 5.00152 8.79388 5.43151C8.79388 5.86151 9.13981 6.20744 9.56981 6.20744H14.2254Z" fill="#00AE42"/>
</svg>
