<svg width="14" height="14" viewBox="0 0 14 14" fill="none" xmlns="http://www.w3.org/2000/svg">
	<path d="M8.14355 5.89721L12.9999 1" stroke="#262E30" stroke-width="0.5" stroke-miterlimit="10" stroke-linecap="round"/>
	<path d="M5.73841 5.83622L1.09058 1.14844" stroke="#262E30" stroke-width="0.5" stroke-miterlimit="10" stroke-linecap="round"/>
	<path d="M8.2522 8.26758L12.9009 12.9554" stroke="#262E30" stroke-width="0.5" stroke-miterlimit="10" stroke-linecap="round"/>
	<path d="M5.72763 8.23242L1 13.0007" stroke="#262E30" stroke-width="0.5" stroke-miterlimit="10" stroke-linecap="round"/>
	<path d="M12.2411 5.77274C12.3662 5.89897 12.2768 6.11357 12.099 6.11357H8.1303C8.01984 6.11357 7.9303 6.02402 7.9303 5.91357V1.91149C7.9303 1.73291 8.14656 1.64386 8.27231 1.77067L12.2411 5.77274Z" fill="#ACACAC" stroke="#262E30" stroke-width="0.5" stroke-miterlimit="10"/>
	<path d="M1.70302 5.77275C1.57786 5.89899 1.66728 6.11357 1.84505 6.11357H5.81295C5.92341 6.11357 6.01295 6.02402 6.01295 5.91357V1.91156C6.01295 1.73297 5.79667 1.64392 5.67093 1.77075L1.70302 5.77275Z" fill="#ACACAC" stroke="#262E30" stroke-width="0.5" stroke-miterlimit="10"/>
	<path d="M8.27231 12.2863C8.14656 12.4131 7.9303 12.324 7.9303 12.1454V8.14336C7.9303 8.0329 8.01984 7.94336 8.1303 7.94336H12.099C12.2768 7.94336 12.3662 8.15796 12.2411 8.28419L8.27231 12.2863Z" fill="#ACACAC" stroke="#262E30" stroke-width="0.5" stroke-miterlimit="10"/>
	<path d="M1.70302 8.28417C1.57786 8.15794 1.66728 7.94336 1.84505 7.94336H5.81295C5.92341 7.94336 6.01295 8.0329 6.01295 8.14336V12.1454C6.01295 12.324 5.79667 12.413 5.67093 12.2862L1.70302 8.28417Z" fill="#ACACAC" stroke="#262E30" stroke-width="0.5" stroke-miterlimit="10"/>
	</svg>
	