<svg width="24" height="301" viewBox="0 0 24 301" fill="none" xmlns="http://www.w3.org/2000/svg">
<path d="M18.5078 265.294C18.5078 266.774 18.07 267.969 17.1944 268.876C16.3187 269.799 15.061 270.261 13.4212 270.261L5.82701 270.261L5.82701 268.136C6.54344 268.104 7.0529 268.064 7.3554 268.016C6.16135 267.252 5.56432 266.026 5.56432 264.339C5.56432 263.511 5.71557 262.747 6.01806 262.046C6.32056 261.361 6.75837 260.812 7.33152 260.398C7.90466 259.984 8.59721 259.777 9.40916 259.777C10.6351 259.777 11.6062 260.279 12.3226 261.282C13.0391 262.285 13.3973 263.566 13.3973 265.127C13.3973 266.002 13.2779 266.902 13.0391 267.825L13.0868 267.825C14.2172 267.825 15.0451 267.602 15.5705 267.157C16.1118 266.711 16.3824 266.042 16.3824 265.151C16.3824 264.434 16.2232 263.829 15.9048 263.336C15.6023 262.858 15.1565 262.452 14.5675 262.118L15.6182 260.303C16.4939 260.701 17.1944 261.346 17.7197 262.237C18.2451 263.129 18.5078 264.148 18.5078 265.294ZM11.1764 267.825C11.4152 266.87 11.5346 266.034 11.5346 265.318C11.5346 264.362 11.3515 263.622 10.9853 263.097C10.6191 262.571 10.1097 262.309 9.45692 262.309C8.86786 262.309 8.3982 262.524 8.04795 262.954C7.71361 263.383 7.54644 263.949 7.54644 264.649C7.54644 265.525 7.79321 266.273 8.28675 266.894C8.79622 267.515 9.49672 267.825 10.3883 267.825L11.1764 267.825Z" fill="#C0C0C0"/>
<path d="M18.5078 252.521C18.5078 253.604 18.2531 254.551 17.7436 255.363C17.2501 256.175 16.5655 256.804 15.6899 257.25C14.8301 257.696 13.859 257.919 12.7764 257.919C12.4102 257.919 11.9724 257.879 11.4629 257.799L11.4629 249.106C10.2211 249.202 9.2818 249.584 8.64497 250.253C8.02406 250.921 7.71361 251.757 7.71361 252.76C7.71361 254.066 8.25491 255.013 9.33752 255.602L8.26287 257.441C7.40316 257.123 6.73449 256.518 6.25687 255.626C5.79517 254.734 5.56432 253.739 5.56432 252.641C5.56432 251.511 5.81109 250.484 6.30463 249.56C6.8141 248.637 7.56237 247.897 8.54945 247.339C9.53653 246.798 10.7147 246.527 12.0838 246.527C13.4212 246.527 14.5754 246.798 15.5466 247.339C16.5177 247.897 17.2501 248.629 17.7436 249.536C18.2531 250.46 18.5078 251.455 18.5078 252.521ZM16.3585 252.426C16.3585 251.614 16.0958 250.906 15.5705 250.301C15.061 249.711 14.3127 249.337 13.3256 249.178L13.3256 255.339C14.2809 255.276 15.0212 254.981 15.5466 254.456C16.0879 253.93 16.3585 253.254 16.3585 252.426Z" fill="#C0C0C0"/>
<path d="M18.5078 244.347C18.5078 244.761 18.4521 245.143 18.3406 245.494C18.2292 245.86 18.078 246.146 17.8869 246.353L15.9525 245.422C16.1754 245.056 16.2869 244.65 16.2869 244.204C16.2869 243.297 15.9127 242.556 15.1645 241.983C14.4162 241.426 13.3495 241.147 11.9644 241.147L5.82701 241.147L5.82701 238.687L18.2212 238.687L18.2212 240.861C17.457 240.893 16.7884 240.94 16.2152 241.004C16.9794 241.37 17.5526 241.832 17.9347 242.389C18.3168 242.962 18.5078 243.615 18.5078 244.347Z" fill="#C0C0C0"/>
<path d="M18.5078 230.431C18.5078 231.911 18.07 233.105 17.1944 234.013C16.3187 234.936 15.061 235.398 13.4212 235.398L5.82701 235.398L5.82701 233.272C6.54344 233.241 7.0529 233.201 7.3554 233.153C6.16135 232.389 5.56432 231.163 5.56432 229.475C5.56432 228.647 5.71557 227.883 6.01806 227.183C6.32056 226.498 6.75837 225.949 7.33152 225.535C7.90466 225.121 8.59721 224.914 9.40916 224.914C10.6351 224.914 11.6062 225.416 12.3226 226.419C13.0391 227.422 13.3973 228.703 13.3973 230.263C13.3973 231.139 13.2779 232.039 13.0391 232.962L13.0868 232.962C14.2172 232.962 15.0451 232.739 15.5705 232.293C16.1118 231.848 16.3824 231.179 16.3824 230.287C16.3824 229.571 16.2232 228.966 15.9048 228.472C15.6023 227.995 15.1565 227.589 14.5675 227.254L15.6182 225.439C16.4939 225.837 17.1944 226.482 17.7197 227.374C18.2451 228.265 18.5078 229.284 18.5078 230.431ZM11.1764 232.962C11.4152 232.007 11.5346 231.171 11.5346 230.454C11.5346 229.499 11.3515 228.759 10.9853 228.234C10.6191 227.708 10.1097 227.445 9.45692 227.445C8.86786 227.445 8.3982 227.66 8.04795 228.09C7.71361 228.52 7.54644 229.085 7.54644 229.786C7.54644 230.661 7.79321 231.41 8.28675 232.031C8.79622 232.652 9.49672 232.962 10.3883 232.962L11.1764 232.962Z" fill="#C0C0C0"/>
<path d="M18.2207 214.581L18.2207 217.136L3.77271 211.405C2.41946 210.879 1.45626 210.29 0.883114 209.637C0.29405 209.001 -0.000482588 208.141 -0.000482541 207.058C-0.000482496 206.023 0.270168 205.188 0.811471 204.551L2.74583 205.506C2.4115 205.952 2.24433 206.469 2.24433 207.058C2.24433 207.568 2.41946 207.99 2.76971 208.324C3.10404 208.674 3.76475 209.056 4.75183 209.47L5.68319 209.876L18.2207 204.646L18.2207 207.44L8.71607 211.118L18.2207 214.581Z" fill="#C0C0C0"/>
<path d="M5.82658 202.784L5.82658 200.324L24 200.324L24 202.784L5.82658 202.784Z" fill="#C0C0C0"/>
<path d="M18.5078 192.637C18.5078 193.975 18.07 195.042 17.1944 195.838C16.3187 196.634 15.053 197.032 13.3973 197.032L5.82701 197.032L5.82701 194.572L12.657 194.572C13.8033 194.572 14.6869 194.357 15.3078 193.927C15.9287 193.497 16.2391 192.844 16.2391 191.969C16.2391 191.077 15.9207 190.313 15.2839 189.676C14.663 189.055 13.7714 188.745 12.6092 188.745L5.82701 188.745L5.82701 186.285L18.2212 186.285L18.2212 188.458C17.4411 188.49 16.7645 188.538 16.1914 188.602C16.9555 189.016 17.5287 189.565 17.9108 190.249C18.3088 190.95 18.5078 191.746 18.5078 192.637Z" fill="#C0C0C0"/>
<path d="M12.0361 171.387C13.2938 171.387 14.4162 171.665 15.4033 172.223C16.3904 172.78 17.1546 173.52 17.6959 174.443C18.2372 175.383 18.5078 176.394 18.5078 177.476C18.5078 178.543 18.2372 179.538 17.6959 180.461C17.1546 181.385 16.3904 182.125 15.4033 182.682C14.4162 183.24 13.2938 183.518 12.0361 183.518C10.7783 183.518 9.65593 183.24 8.66885 182.682C7.68177 182.125 6.91758 181.385 6.37628 180.461C5.83497 179.538 5.56432 178.543 5.56432 177.476C5.56432 176.394 5.83497 175.383 6.37628 174.443C6.91758 173.52 7.68177 172.78 8.66885 172.223C9.65593 171.665 10.7783 171.387 12.0361 171.387ZM12.0361 173.966C10.7306 173.966 9.69573 174.292 8.93154 174.945C8.16735 175.614 7.78525 176.449 7.78525 177.452C7.78525 178.471 8.16735 179.307 8.93154 179.96C9.69573 180.613 10.7306 180.939 12.0361 180.939C13.3416 180.939 14.3764 180.605 15.1406 179.936C15.9048 179.283 16.2869 178.455 16.2869 177.452C16.2869 176.449 15.9048 175.614 15.1406 174.945C14.3764 174.292 13.3416 173.966 12.0361 173.966Z" fill="#C0C0C0"/>
<path d="M18.5078 157.814C18.5078 158.897 18.2531 159.844 17.7436 160.656C17.2501 161.468 16.5655 162.097 15.6899 162.543C14.8301 162.989 13.859 163.212 12.7764 163.212C12.4102 163.212 11.9724 163.172 11.4629 163.092L11.4629 154.399C10.2211 154.495 9.2818 154.877 8.64497 155.546C8.02406 156.214 7.71361 157.05 7.71361 158.053C7.71361 159.359 8.25491 160.306 9.33752 160.895L8.26287 162.734C7.40316 162.416 6.73449 161.811 6.25687 160.919C5.79517 160.027 5.56432 159.032 5.56432 157.934C5.56432 156.803 5.81109 155.777 6.30463 154.853C6.8141 153.93 7.56237 153.189 8.54945 152.632C9.53653 152.091 10.7147 151.82 12.0838 151.82C13.4212 151.82 14.5754 152.091 15.5466 152.632C16.5177 153.189 17.2501 153.922 17.7436 154.829C18.2531 155.753 18.5078 156.748 18.5078 157.814ZM16.3585 157.719C16.3585 156.907 16.0958 156.198 15.5705 155.594C15.061 155.004 14.3127 154.63 13.3256 154.471L13.3256 160.632C14.2809 160.569 15.0212 160.274 15.5466 159.749C16.0879 159.223 16.3585 158.547 16.3585 157.719Z" fill="#C0C0C0"/>
<path d="M5.82658 149.053L5.82658 146.594L24 146.594L24 149.053L5.82658 149.053Z" fill="#C0C0C0"/>
<path d="M18.1973 143.831L16.8599 143.831L7.8568 137.503L7.8568 144.118L5.82692 144.118L5.82692 134.207L7.21202 134.207L16.1913 140.559L16.1913 134.613L18.1973 134.613L18.1973 143.831Z" fill="#C0C0C0"/>
<path d="M18.1973 132.448L16.8599 132.448L7.8568 126.12L7.8568 132.735L5.82692 132.735L5.82692 122.824L7.21202 122.824L16.1913 129.177L16.1913 123.23L18.1973 123.23L18.1973 132.448Z" fill="#C0C0C0"/>
<path d="M12.0361 109.492C13.2938 109.492 14.4162 109.771 15.4033 110.328C16.3904 110.885 17.1546 111.626 17.6959 112.549C18.2372 113.488 18.5078 114.499 18.5078 115.582C18.5078 116.649 18.2372 117.644 17.6959 118.567C17.1546 119.49 16.3904 120.231 15.4033 120.788C14.4162 121.345 13.2938 121.624 12.0361 121.624C10.7783 121.624 9.65593 121.345 8.66885 120.788C7.68177 120.231 6.91758 119.49 6.37628 118.567C5.83497 117.644 5.56432 116.649 5.56432 115.582C5.56432 114.499 5.83497 113.488 6.37628 112.549C6.91758 111.626 7.68177 110.885 8.66885 110.328C9.65593 109.771 10.7783 109.492 12.0361 109.492ZM12.0361 112.071C10.7306 112.071 9.69573 112.398 8.93154 113.05C8.16735 113.719 7.78525 114.555 7.78525 115.558C7.78525 116.577 8.16735 117.413 8.93154 118.065C9.69573 118.718 10.7306 119.045 12.0361 119.045C13.3416 119.045 14.3764 118.71 15.1406 118.042C15.9048 117.389 16.2869 116.561 16.2869 115.558C16.2869 114.555 15.9048 113.719 15.1406 113.05C14.3764 112.398 13.3416 112.071 12.0361 112.071Z" fill="#C0C0C0"/>
<path d="M18.5078 102.524C18.5078 103.862 18.07 104.928 17.1944 105.724C16.3187 106.52 15.053 106.918 13.3973 106.918L5.82701 106.918L5.82701 104.459L12.657 104.459C13.8033 104.459 14.6869 104.244 15.3078 103.814C15.9287 103.384 16.2391 102.731 16.2391 101.856C16.2391 100.964 15.9207 100.2 15.2839 99.563C14.663 98.9421 13.7714 98.6316 12.6092 98.6316L5.82701 98.6316L5.82701 96.1719L18.2212 96.1719L18.2212 98.345C17.4411 98.3769 16.7645 98.4246 16.1914 98.4883C16.9555 98.9023 17.5287 99.4515 17.9108 100.136C18.3088 100.837 18.5078 101.633 18.5078 102.524Z" fill="#C0C0C0"/>
<path d="M6.32786 87.8759C5.8184 87.1754 5.56367 86.244 5.56367 85.0818C5.56367 83.9037 5.89005 82.9405 6.54279 82.1922C7.19554 81.4599 8.35775 81.0937 10.0294 81.0937L16.1191 81.0937L16.1191 78.9922L18.2206 78.9922L18.2206 81.0937L21.8027 81.0937L21.8027 83.5296L18.2206 83.5296L18.2206 87.1834L16.1191 87.1834L16.1191 83.5296L10.3637 83.5296C8.64432 83.5296 7.7846 84.1664 7.7846 85.44C7.7846 86.0132 7.93585 86.5465 8.23834 87.0401L6.32786 87.8759Z" fill="#C0C0C0"/>
<path d="M18.5074 72.8602C18.5074 74.1816 18.0616 75.2403 17.17 76.0363C16.2944 76.8483 15.0367 77.2543 13.3968 77.2543L5.82658 77.2543L5.82658 74.7945L12.6565 74.7945C13.8028 74.7945 14.6864 74.5796 15.3073 74.1497C15.9282 73.7199 16.2387 73.0671 16.2387 72.1915C16.2387 71.2999 15.9203 70.5357 15.2834 69.8989C14.6625 69.278 13.771 68.9676 12.6088 68.9676L5.82658 68.9676L5.82658 66.5078L24 66.5078L24 68.9676L16.4297 68.9676C17.1143 69.3815 17.6317 69.9228 17.982 70.5915C18.3322 71.276 18.5074 72.0323 18.5074 72.8602Z" fill="#C0C0C0"/>
<path d="M18.2212 63.0373L6.78225 63.0373C4.34639 63.0373 2.61104 62.4402 1.5762 61.2462C0.525439 60.0681 5.48175e-05 58.6511 5.48899e-05 56.9954C5.49456e-05 55.7217 0.270708 54.5914 0.81201 53.6043C1.35331 52.6331 2.10954 51.9644 3.0807 51.5983L4.20311 53.5326C2.89762 54.1535 2.24487 55.3078 2.24487 56.9954C2.24487 58.1576 2.60308 59.0491 3.31951 59.67C4.02002 60.2909 5.21407 60.6014 6.90166 60.6014L7.73749 60.673C7.00514 60.2273 6.45588 59.6541 6.08971 58.9536C5.73945 58.269 5.56432 57.5208 5.56432 56.7088C5.56432 55.7376 5.81905 54.8222 6.32851 53.9625C6.8539 53.1187 7.60217 52.4341 8.57333 51.9087C9.56041 51.3993 10.7147 51.1445 12.0361 51.1445C13.3734 51.1445 14.5277 51.3993 15.4988 51.9087C16.4859 52.4341 17.2342 53.1187 17.7436 53.9625C18.2531 54.8222 18.5078 55.7376 18.5078 56.7088C18.5078 57.5208 18.3168 58.2849 17.9347 59.0014C17.5526 59.7178 16.9794 60.2909 16.2152 60.7208C17.1386 60.8163 17.8073 60.872 18.2212 60.888L18.2212 63.0373ZM7.76137 57.067C7.76137 58.0382 8.11163 58.866 8.81214 59.5506C9.51264 60.2511 10.5873 60.6014 12.0361 60.6014C13.4689 60.6014 14.5276 60.2511 15.2122 59.5506C15.8968 58.866 16.2391 58.0382 16.2391 57.067C16.2391 56.0481 15.8729 55.2282 15.1406 54.6073C14.4082 54.0023 13.3734 53.6998 12.0361 53.6998C10.6828 53.6998 9.63205 54.0023 8.88378 54.6073C8.13551 55.2282 7.76137 56.0481 7.76137 57.067Z" fill="#C0C0C0"/>
<path d="M20.2272 47.1104C20.2272 46.6965 20.3864 46.3383 20.7048 46.0358C21.0232 45.7333 21.3973 45.582 21.8272 45.582C22.257 45.582 22.6232 45.7333 22.9257 46.0358C23.2441 46.3383 23.4033 46.6965 23.4033 47.1104C23.4033 47.5562 23.2441 47.9303 22.9257 48.2328C22.6232 48.5353 22.257 48.6866 21.8272 48.6866C21.3973 48.6866 21.0232 48.5274 20.7048 48.2089C20.3864 47.9064 20.2272 47.5403 20.2272 47.1104ZM5.82692 48.3522L5.82692 45.8925L18.2211 45.8925L18.2211 48.3522L5.82692 48.3522Z" fill="#C0C0C0"/>
<path d="M5.82772 44.1404L5.82772 41.0359L12.7054 36.2358L12.7054 36.0447L12.7054 33.0357L5.82772 33.0357L5.82772 30.4805L23.3086 30.4805L23.3086 36.0686C23.3086 37.3104 23.0857 38.409 22.6399 39.3642C22.1941 40.3354 21.5653 41.0836 20.7533 41.609C19.9573 42.1503 19.0339 42.421 17.9831 42.421C16.8528 42.421 15.8657 42.1025 15.0219 41.4657C14.1781 40.8448 13.5652 39.9851 13.1831 38.8866L5.82772 44.1404ZM21.0877 33.0357L14.9264 33.0357L14.9264 35.7582C14.9264 37 15.197 37.9711 15.7383 38.6716C16.2796 39.3722 17.0279 39.7224 17.9831 39.7224C18.9384 39.7224 19.6946 39.3722 20.2518 38.6716C20.8091 37.9711 21.0877 37 21.0877 35.7582L21.0877 33.0357Z" fill="#C0C0C0"/>
</svg>
