<svg width="15" height="38" viewBox="0 0 15 38" fill="none" xmlns="http://www.w3.org/2000/svg">
<ellipse cx="6.13826" cy="5.07369" rx="3.76332" ry="0.530725" fill="#6F6F6F"/>
<path fill-rule="evenodd" clip-rule="evenodd" d="M8.95504 0.296875H3.62939V4.93497V4.93547H3.6294C3.63205 5.08594 4.82322 5.20783 6.29222 5.20783C7.76121 5.20783 8.95238 5.08594 8.95503 4.93547H8.95504V4.93497V0.296875Z" fill="#C7C7C7"/>
<path fill-rule="evenodd" clip-rule="evenodd" d="M10.6548 4.89648H0.702332V26.4793H13.2467V7.4884C13.2467 6.05692 12.0863 4.89648 10.6548 4.89648ZM6.13826 22.4586C8.44762 22.4586 10.3197 20.5865 10.3197 18.2772C10.3197 15.9678 8.44762 14.0957 6.13826 14.0957C3.8289 14.0957 1.95679 15.9678 1.95679 18.2772C1.95679 20.5865 3.8289 22.4586 6.13826 22.4586Z" fill="#B9B9B9"/>
<rect x="4.46552" y="1.00391" width="3.76332" height="3.89198" rx="1.88166" fill="#AAAAAA"/>
<path fill-rule="evenodd" clip-rule="evenodd" d="M0.702332 6.5856C4.01963 6.5856 6.47508 7.4009 7.28815 7.80855L10.2152 5.88677C10.5404 5.77029 11.2884 5.60723 11.6787 5.88677C12.069 6.1663 12.0039 6.70207 11.9226 6.93501L10.2152 8.8568V13.7486L12.1665 15.1463L12.4104 22.3093V23.707V24.7552C11.76 24.7552 10.4103 24.8251 10.2152 25.1046C10.02 25.3842 10.1339 25.687 10.2152 25.8035H8.26382V25.2794H0.702332V6.5856ZM6.13826 22.4586C8.44762 22.4586 10.3197 20.5865 10.3197 18.2772C10.3197 15.9678 8.44762 14.0957 6.13826 14.0957C3.8289 14.0957 1.95679 15.9678 1.95679 18.2772C1.95679 20.5865 3.8289 22.4586 6.13826 22.4586Z" fill="#DDDDDD"/>
<path d="M2.37469 10.7337V8.08008L6.55616 9.14153L4.34245 11.2644L2.37469 10.7337Z" fill="#818181"/>
<path d="M5.30194 11.5256L7.55993 9.84961H7.81082V13.034H7.30905L5.30194 11.5256Z" fill="#818181"/>
<rect x="1.53876" y="29.6641" width="7.52665" height="4.59962" rx="1.03676" fill="#5F5F5F"/>
<rect x="7.81073" y="26.4785" width="3.76332" height="9.19924" fill="#696969"/>
<rect x="2.37469" y="26.125" width="5.85406" height="3.53817" fill="#919191"/>
<path d="M2.37469 36.0328V34.2637H7.81061V36.0328L6.82226 36.7404H3.36304L2.37469 36.0328Z" fill="#6C6C6C"/>
<path d="M4.77913 37.0941L4.46552 36.7402H5.71996L5.40635 37.0941H4.77913Z" fill="#CFCFCF"/>
<rect x="10.3195" y="26.4785" width="3.76332" height="9.90687" rx="1.03676" fill="#797979"/>
<path d="M9.80135 18.2772C9.80135 20.3002 8.16132 21.9403 6.13826 21.9403C4.11519 21.9403 2.47517 20.3002 2.47517 18.2772C2.47517 16.2541 4.11519 14.6141 6.13826 14.6141C8.16132 14.6141 9.80135 16.2541 9.80135 18.2772Z" stroke="#00AE42" stroke-width="1.03676"/>
</svg>
