<svg width="40" height="391" viewBox="0 0 40 391" fill="none" xmlns="http://www.w3.org/2000/svg">
<g clip-path="url(#clip0_18942_38985)">
<path d="M14.7883 314.585C13.8923 314.489 12.9003 314.353 11.8123 314.177C10.5483 313.969 9.69228 313.657 9.24428 313.241C8.78028 312.841 8.54828 312.289 8.54828 311.585C8.54828 310.993 8.77228 310.457 9.22028 309.977C9.66828 309.497 10.3723 309.057 11.3323 308.657L11.5003 308.585C10.5243 307.817 9.55628 306.905 8.59628 305.849L10.6603 303.809C11.0763 304.321 11.5003 304.817 11.9323 305.297L10.1803 298.601L12.9163 298.001C13.1403 299.041 13.4763 300.545 13.9243 302.513C14.3883 304.497 14.6763 305.705 14.7883 306.137L12.7723 306.137C13.3003 306.665 13.9083 307.193 14.5963 307.721C17.1883 307.161 20.6043 306.769 24.8443 306.545L24.8443 299.297L27.4603 299.297L27.4603 306.449C28.3883 306.433 29.4843 306.425 30.7483 306.425L30.7723 309.113L27.4603 309.161L27.4603 311.729C28.1003 311.105 28.7323 310.473 29.3563 309.833L30.9883 311.393L28.7083 313.793L27.4603 312.593L27.4603 314.297L24.8443 314.297L24.8443 309.209C22.3003 309.257 20.0043 309.409 17.9563 309.665C19.3163 310.273 21.1563 310.921 23.4763 311.609L22.7083 313.985C20.9483 313.441 19.3723 312.881 17.9803 312.305C16.6043 311.745 15.3323 311.121 14.1643 310.433C13.7323 310.545 13.3963 310.649 13.1563 310.745C12.7083 310.905 12.3963 311.041 12.2203 311.153C12.0443 311.281 11.9563 311.417 11.9563 311.561C11.9563 311.673 12.0603 311.769 12.2683 311.849C12.4923 311.929 12.8763 312.001 13.4203 312.065L15.5323 312.329L14.7883 314.585ZM14.0683 298.985C13.9883 298.793 13.6683 297.801 13.1083 296.009C12.9323 295.481 12.7243 294.833 12.4843 294.065C12.2443 293.297 12.0763 292.793 11.9803 292.553L14.7643 291.953C14.8763 292.449 15.1163 293.321 15.4843 294.569L22.3963 294.569L22.3963 292.505L25.1323 292.505L25.1323 294.569L30.4123 294.569L30.4123 297.257L25.1323 297.257L25.1323 298.889L22.3963 298.889L22.3963 297.257L16.2763 297.257C16.4363 297.785 16.6203 298.361 16.8283 298.985L14.0683 298.985ZM15.6523 299.681L23.1403 299.681L23.1403 305.801L15.6523 305.801L15.6523 299.681ZM18.1243 301.889L18.1243 303.593L20.6683 303.593L20.6683 301.889L18.1243 301.889Z" fill="#B3B3B3"/>
<path d="M27.1005 272.848L12.2925 272.848L12.2925 289.96L9.38847 289.96L9.38847 269.824L29.9805 269.824L29.9805 289.504L27.1005 289.504L27.1005 272.848ZM15.4605 273.664C16.5485 275.264 18.0045 277.016 19.8285 278.92C21.6685 277.032 23.1485 275.472 24.2685 274.24L26.3565 276.232C25.3005 277.448 23.8365 279.04 21.9645 281.008C23.4685 282.416 25.0125 283.712 26.5965 284.896L24.8205 287.344C23.0285 285.952 21.3885 284.56 19.9005 283.168C17.5645 285.568 16.0365 287.12 15.3165 287.824L13.0605 285.592C14.0525 284.696 15.6045 283.192 17.7165 281.08C15.7645 279.096 14.1805 277.264 12.9645 275.584L15.4605 273.664Z" fill="#B3B3B3"/>
<path d="M28.1574 254.609C27.2614 252.417 26.6134 250.385 26.2134 248.513L22.5414 248.513L22.5414 254.225L19.5894 254.225L19.5894 248.513L14.3094 248.513C14.7734 249.793 15.4534 251.713 16.3494 254.273L13.1814 254.441C12.5734 252.393 11.9334 250.385 11.2614 248.417L10.4934 246.329L13.1334 245.129C13.3414 245.321 13.5414 245.449 13.7334 245.513C13.9254 245.577 14.1334 245.609 14.3574 245.609L28.5894 245.609C28.7814 246.665 29.1014 247.953 29.5494 249.473C29.9974 250.993 30.4614 252.409 30.9414 253.721L28.1574 254.609ZM29.3094 255.617L29.3094 265.697L14.8614 265.697C13.6294 265.697 12.7734 265.489 12.2934 265.073C11.8134 264.657 11.5654 263.985 11.5494 263.057C11.5334 262.177 11.5734 261.225 11.6694 260.201L14.5494 259.649C14.4694 260.289 14.4134 260.961 14.3814 261.665C14.3814 262.129 14.4934 262.433 14.7174 262.577C14.9574 262.737 15.3894 262.817 16.0134 262.817L26.3814 262.817L26.3814 258.521L8.6454 258.521L8.6454 255.617L29.3094 255.617Z" fill="#B3B3B3"/>
<path d="M18.822 229.672L18.51 228.712L17.91 226.792L11.742 226.792C10.926 226.792 10.318 226.696 9.918 226.504C9.502 226.328 9.214 226.024 9.054 225.592C8.894 225.176 8.806 224.56 8.79 223.744C8.79 222.928 8.83 222.136 8.91 221.368L11.838 220.768C11.726 221.504 11.67 222.128 11.67 222.64C11.67 223.008 11.702 223.272 11.766 223.432C11.83 223.592 11.934 223.696 12.078 223.744C12.222 223.808 12.462 223.84 12.798 223.84L16.95 223.84C16.838 223.472 16.558 222.64 16.11 221.344L15.918 220.792L18.846 220.168C19.134 221.4 19.462 222.624 19.83 223.84L23.982 223.84L23.982 220.744L26.766 220.744L26.766 223.84L30.75 223.84L30.75 226.792L26.766 226.792L26.766 229.384L23.982 229.384L23.982 226.792L20.742 226.792C21.062 227.816 21.342 228.672 21.582 229.36L18.822 229.672ZM29.454 242.416L26.574 242.416L26.574 238.6L11.982 238.6C10.766 238.6 9.918 238.344 9.438 237.832C8.958 237.32 8.71 236.432 8.694 235.168C8.694 234.288 8.734 233.288 8.814 232.168L11.742 231.544C11.614 232.6 11.55 233.544 11.55 234.376C11.55 234.872 11.638 235.208 11.814 235.384C11.99 235.56 12.302 235.648 12.75 235.648L26.574 235.648L26.574 230.152L29.454 230.152L29.454 242.416Z" fill="#B3B3B3"/>
<path d="M29.7422 218.224L26.9582 218.224L26.9582 215.536L12.5102 215.536C11.4542 215.536 10.6702 215.416 10.1582 215.176C9.64619 214.936 9.29419 214.512 9.10219 213.904C8.91019 213.296 8.81419 212.376 8.81419 211.144C8.81419 210.232 8.86218 209.336 8.95818 208.456L11.7662 207.88C11.6222 209.016 11.5502 210.112 11.5502 211.168C11.5502 211.776 11.6702 212.176 11.9102 212.368C12.1502 212.576 12.6222 212.68 13.3262 212.68L26.9582 212.68L26.9582 196.504L29.7422 196.504L29.7422 218.224ZM24.3422 198.784L24.3422 209.464L13.9262 209.464L13.9262 198.784L24.3422 198.784ZM16.6142 201.52L16.6142 206.704L21.6302 206.704L21.6302 201.52L16.6142 201.52Z" fill="#B3B3B3"/>
<path d="M8.69459 192.739C10.3586 189.859 11.9106 187.051 13.3506 184.315C12.3266 183.355 11.4306 182.027 10.6626 180.331C9.89459 178.651 9.12659 176.403 8.35859 173.587L11.3106 172.531C11.8386 174.627 12.3346 176.323 12.7986 177.619C13.2786 178.915 13.7986 179.979 14.3586 180.811C14.9346 181.659 15.6146 182.323 16.3986 182.803L16.3986 172.675L19.1346 172.675L19.1346 183.787C20.2226 184.011 21.7746 184.163 23.7906 184.243C24.4626 184.275 26.7186 184.323 30.5586 184.387L30.5586 187.339L29.9106 187.339C29.0306 187.323 27.9666 187.299 26.7186 187.267C25.4866 187.251 24.3746 187.227 23.3826 187.195C21.7986 187.147 20.3826 187.027 19.1346 186.835L19.1346 194.011L16.3986 194.011L16.3986 186.163C16.1586 186.083 15.9186 185.987 15.6786 185.875C14.2706 188.739 12.8706 191.499 11.4786 194.155L8.69459 192.739ZM24.0066 181.555C24.5666 180.771 25.7026 179.067 27.4146 176.443L27.9906 175.555L30.3426 177.019C29.7826 177.963 29.1346 179.011 28.3986 180.163C27.6786 181.331 27.0386 182.315 26.4786 183.115L24.0066 181.555ZM19.3986 179.827C19.8946 179.107 20.5506 178.099 21.3666 176.803C22.1986 175.507 22.8546 174.451 23.3346 173.635L25.7586 175.099C24.2066 177.755 22.9026 179.859 21.8466 181.411L19.3986 179.827Z" fill="#B3B3B3"/>
<path d="M12.4374 166.075L18.4374 166.075L18.4374 169.027L8.64543 169.027L8.64543 166.075L9.58144 166.075L9.58144 149.707L18.3894 149.707L18.3894 152.659L12.4374 152.659L12.4374 157.915L19.9734 157.915L19.9734 150.379L28.7814 150.379L28.7814 153.283L22.8294 153.283L22.8294 157.915L30.7734 157.915L30.7734 160.795L22.8294 160.795L22.8294 165.403L28.7814 165.403L28.7814 168.307L19.9734 168.307L19.9734 160.795L12.4374 160.795L12.4374 166.075Z" fill="#B3B3B3"/>
<path d="M16.9002 145.555L17.0442 145.075C17.1242 144.835 17.2122 144.539 17.3082 144.187C17.4042 143.851 17.5242 143.475 17.6682 143.059L8.74025 143.059L8.74025 140.275L17.9082 140.275L17.9082 142.411C18.4522 140.939 19.0842 139.651 19.8043 138.547C19.1482 137.539 18.5402 136.379 17.9802 135.067L17.9802 137.083L16.9002 137.059C15.0442 137.059 13.4362 136.747 12.0762 136.123C10.7162 135.515 9.46025 134.403 8.30825 132.787L10.3962 130.555C11.0682 131.563 11.7242 132.331 12.3642 132.859C13.0042 133.387 13.6683 133.747 14.3563 133.939C15.0443 134.131 15.8682 134.227 16.8282 134.227L17.6442 134.227C17.3882 133.587 17.1082 132.763 16.8042 131.755L19.3002 130.723L18.8682 129.643L11.7402 129.643C10.9882 129.643 10.4202 129.563 10.0362 129.403C9.65225 129.243 9.38025 128.955 9.22025 128.539C9.04425 128.139 8.94025 127.547 8.90825 126.763C8.89225 126.251 8.92425 125.627 9.00425 124.891L11.6922 124.363C11.5962 124.875 11.5482 125.387 11.5482 125.899C11.5482 126.283 11.6202 126.539 11.7642 126.667C11.9082 126.811 12.1962 126.883 12.6282 126.883L17.7642 126.883C17.3162 125.715 17.0282 124.955 16.9002 124.603L19.8043 123.859C20.0603 124.707 20.3963 125.715 20.8123 126.883L24.1482 126.883L24.1483 124.483L26.9322 124.483L26.9322 126.883L30.7242 126.883L30.7242 129.643L26.9322 129.643L26.9322 131.659L24.1482 131.659L24.1482 129.643L21.8442 129.643C22.2122 130.603 22.4602 131.235 22.5882 131.539L19.7802 131.827L19.7563 131.755C20.2842 133.579 20.9002 135.123 21.6042 136.387C22.6762 135.331 24.1163 134.323 25.9242 133.363L25.9242 132.115L28.5643 132.115L28.5642 137.323C28.9002 137.179 29.5642 136.883 30.5563 136.435L31.1562 139.291C30.4362 139.659 29.5723 140.035 28.5642 140.419L28.5642 145.627L25.9242 145.627L25.9242 144.043C24.2602 143.195 22.8202 142.123 21.6042 140.827C20.8522 142.251 20.1882 144.155 19.6122 146.539L16.9002 145.555ZM25.9242 136.315C24.7402 137.051 23.8122 137.819 23.1402 138.619C23.9562 139.579 24.8842 140.371 25.9242 140.995L25.9242 136.315Z" fill="#B3B3B3"/>
<path d="M25.0603 122.008L25.0603 111.016C23.8443 110.424 22.5563 109.656 21.1963 108.712L21.1963 120.352L8.81231 120.352L8.81231 117.352L10.2043 117.352L10.2043 107.8L8.81231 107.8L8.81231 104.848L16.6603 104.848C15.6843 103.872 14.6363 102.712 13.5163 101.368L16.5883 99.832C18.8603 103.112 21.6843 105.648 25.0603 107.44L25.0603 101.008L27.9643 101.008L27.9643 108.736C28.8123 109.072 29.7643 109.376 30.8203 109.648L30.2923 112.936C29.2683 112.648 28.4923 112.408 27.9643 112.216L27.9643 122.008L25.0603 122.008ZM13.1083 107.8L13.1083 117.352L18.2443 117.352L18.2443 107.8L13.1083 107.8Z" fill="#B3B3B3"/>
<path d="M29.9312 83.6577C28.4112 83.1937 26.8832 82.6417 25.3472 82.0017L8.71522 82.0017L8.71522 79.0977L19.9232 79.0977C19.1072 78.5697 18.2192 77.9217 17.2592 77.1537L20.4512 75.7617C21.6832 76.7537 23.2192 77.7057 25.0592 78.6177C26.9152 79.5457 28.7952 80.2897 30.6992 80.8497L29.9312 83.6577ZM16.0112 92.8257C14.3632 94.3617 12.7392 96.3377 11.1392 98.7537L8.42722 96.9537C10.1712 94.4417 11.9072 92.4017 13.6352 90.8337C11.9232 89.2017 10.1952 87.0737 8.45122 84.4497L11.2352 82.5297C12.8672 85.1217 14.4992 87.2257 16.1312 88.8417C17.6032 87.8497 19.1872 87.0337 20.8832 86.3937C22.5952 85.7697 24.5312 85.2657 26.6912 84.8817L26.6912 84.1377L29.5952 84.1377L29.5952 97.2897L26.7392 97.2897C24.5312 96.8097 22.5632 96.2097 20.8352 95.4897C19.1072 94.7857 17.4992 93.8977 16.0112 92.8257ZM26.6912 87.8097C25.0592 88.1457 23.5792 88.5537 22.2512 89.0337C20.9232 89.5297 19.6912 90.1457 18.5552 90.8817C19.7232 91.7137 20.9632 92.3857 22.2752 92.8977C23.6032 93.4257 25.0752 93.8497 26.6912 94.1697L26.6912 87.8097Z" fill="#B3B3B3"/>
</g>
<defs>
<clipPath id="clip0_18942_38985">
<rect width="390" height="39" fill="white" transform="matrix(-4.37114e-08 1 1 4.37114e-08 0.234375 0.175781)"/>
</clipPath>
</defs>
</svg>
