<svg width="24" height="63" viewBox="0 0 24 63" fill="none" xmlns="http://www.w3.org/2000/svg">
<g opacity="0.4">
<path d="M0.283936 7.82031H15.8972C19.0534 7.82031 21.6121 10.3789 21.6121 13.5352V44.1564H0.283936V7.82031Z" fill="#626262"/>
<ellipse cx="9.52612" cy="8.11812" rx="6.39844" ry="0.89351" fill="#383938"/>
<path fill-rule="evenodd" clip-rule="evenodd" d="M14.3152 0.0761719H5.2605V7.88555H5.26072C5.2664 8.13876 7.29118 8.34385 9.78806 8.34385C12.2884 8.34385 14.3154 8.13818 14.3154 7.88448C14.3154 7.883 14.3153 7.88152 14.3152 7.88004V0.0761719Z" fill="#9C9C9C"/>
<rect x="6.68237" y="1.26758" width="6.39844" height="6.5524" rx="3.19922" fill="#848484"/>
<rect x="12.3699" y="44.1562" width="6.39844" height="15.4875" fill="#404040"/>
<path d="M11.4812 12.7238C10.0988 12.0375 5.92404 10.6649 0.283936 10.6649V42.137H13.1401V43.0194H16.4578C16.3195 42.8233 16.126 42.3135 16.4578 41.8429C16.7895 41.3723 19.0843 41.2546 20.1902 41.2546V39.4898V37.1368L19.7755 25.0774L16.4578 22.7243V14.4886L19.3608 11.2532C19.499 10.861 19.6096 9.95898 18.946 9.48836C18.2825 9.01775 17.0107 9.29228 16.4578 9.48836L11.4812 12.7238Z" fill="#8B8B8B"/>
<path d="M3.12769 17.6472V13.1797L10.2371 14.9667L6.47327 18.5407L3.12769 17.6472Z" fill="#454545"/>
<path d="M8.10425 18.9818L11.9433 16.1602H12.3699V21.5212H11.5167L8.10425 18.9818Z" fill="#454545"/>
<rect x="3.12769" y="43.5605" width="9.95313" height="5.95673" fill="#8B8B8B"/>
<rect x="1.70581" y="49.5156" width="12.7969" height="7.74375" rx="2.28594" fill="#292929"/>
<path d="M3.12769 60.2381V57.2598H12.3699V60.2381L10.6895 61.4295H4.80808L3.12769 60.2381Z" fill="#333333"/>
<path d="M7.21558 62.0254L6.68237 61.4297H8.81519L8.28198 62.0254H7.21558Z" fill="#CFCFCF"/>
<rect x="16.6355" y="44.1562" width="6.39844" height="16.6788" rx="2.28594" fill="#515151"/>
<ellipse cx="9.52612" cy="30.3484" rx="7.10938" ry="7.03977" fill="#CECECE"/>
</g>
</svg>
