<svg width="23" height="63" viewBox="0 0 23 63" fill="none" xmlns="http://www.w3.org/2000/svg">
<path d="M0.0690308 8.54883H15.3542C18.5104 8.54883 21.069 11.1075 21.069 14.2637V44.8849H0.0690308V8.54883Z" fill="#626262"/>
<ellipse cx="9.16905" cy="8.84663" rx="6.3" ry="0.89351" fill="#383938"/>
<path fill-rule="evenodd" clip-rule="evenodd" d="M13.8844 0.804688H4.96902V8.61406H4.96925C4.97484 8.86728 6.96848 9.07237 9.42694 9.07237C11.8889 9.07237 13.8846 8.8667 13.8846 8.61299C13.8846 8.61148 13.8846 8.60998 13.8844 8.60847V0.804688Z" fill="#9C9C9C"/>
<rect x="6.36902" y="1.99609" width="6.3" height="6.5524" rx="3.15" fill="#848484"/>
<rect x="11.9691" y="44.8848" width="6.3" height="15.4875" fill="#404040"/>
<path d="M11.094 13.4523C9.73292 12.766 5.62236 11.3934 0.0690308 11.3934V42.8655H12.7274V43.7479H15.994C15.8579 43.5519 15.6674 43.042 15.994 42.5714C16.3207 42.1008 18.5801 41.9831 19.669 41.9831V40.2184V37.8653L19.2607 25.8059L15.994 23.4528V15.2171L18.8524 11.9817C18.9885 11.5895 19.0974 10.6875 18.444 10.2169C17.7907 9.74627 16.5385 10.0208 15.994 10.2169L11.094 13.4523Z" fill="#8B8B8B"/>
<path d="M2.86905 18.3758V13.9082L9.86905 15.6952L6.16317 19.2693L2.86905 18.3758Z" fill="#454545"/>
<path d="M7.76904 19.7103L11.549 16.8887H11.969V22.2497H11.129L7.76904 19.7103Z" fill="#454545"/>
<rect x="2.86905" y="44.2891" width="9.8" height="5.95673" fill="#8B8B8B"/>
<rect x="1.46902" y="50.2441" width="12.6" height="7.74375" rx="2.28594" fill="#292929"/>
<path d="M2.86905 60.9666V57.9883H11.969V60.9666L10.3145 62.158H4.52359L2.86905 60.9666Z" fill="#333333"/>
<path d="M6.89402 62.7539L6.36902 62.1582H8.46902L7.94402 62.7539H6.89402Z" fill="#CFCFCF"/>
<rect x="16.169" y="44.8848" width="6.3" height="16.6788" rx="2.28594" fill="#515151"/>
<ellipse cx="9.16901" cy="31.0769" rx="7" ry="7.03977" fill="#EEEEEE"/>
</svg>
