<svg width="25" height="253" viewBox="0 0 25 253" fill="none" xmlns="http://www.w3.org/2000/svg">
<path d="M24.1504 249.221C23.0148 250.441 22.125 251.348 21.4809 251.941L20.0572 250.594C21.1928 249.509 22.0995 248.611 22.7775 247.899L24.1504 249.221ZM6.88768 252.933C5.81988 252.814 4.83683 252.679 3.93853 252.526C2.70124 252.306 1.85378 252.001 1.39616 251.611C0.938529 251.221 0.709715 250.696 0.709715 250.035C0.709715 249.458 0.92158 248.933 1.34531 248.458C1.76904 247.984 2.45548 247.552 3.40463 247.162C3.54022 247.111 3.66734 247.06 3.78599 247.009C3.92158 246.958 4.04022 246.916 4.14192 246.882C2.90463 245.916 1.70124 244.772 0.53175 243.45L2.23514 241.746C3.76056 243.628 5.26056 245.111 6.73514 246.196C9.65039 245.569 13.3707 245.153 17.8962 244.95L17.8962 237.094L20.0572 237.094L20.0572 244.899C21.125 244.865 22.4046 244.848 23.8962 244.848L23.9216 247.035L21.3029 247.06L20.0572 247.085L20.0572 252.704L17.8962 252.704L17.8962 247.111C14.4555 247.213 11.625 247.45 9.40463 247.823C11.0995 248.653 13.3453 249.433 16.1419 250.162L15.5317 252.17C11.9216 251.204 8.8792 249.958 6.40463 248.433C5.72666 248.636 5.18429 248.814 4.77751 248.967C4.28599 249.153 3.93853 249.323 3.73514 249.475C3.5487 249.645 3.45548 249.823 3.45548 250.009C3.45548 250.179 3.59107 250.314 3.86226 250.416C4.13344 250.535 4.59954 250.645 5.26056 250.746L7.49785 251.026L6.88768 252.933ZM6.12497 237.018C6.05717 236.831 5.76056 235.908 5.23514 234.247C4.57412 232.077 4.11649 230.645 3.86226 229.95L6.20124 229.441C6.28599 229.899 6.57412 230.908 7.06565 232.467L15.3284 232.467L15.3284 229.975L17.5911 229.975L17.5911 232.467L23.4894 232.467L23.4894 234.704L17.5911 234.704L17.5911 236.814L15.3284 236.814L15.3284 234.704L7.72666 234.704L8.46395 237.018L6.12497 237.018ZM8.10802 237.628L15.5826 237.628L15.5826 243.755L8.10802 243.755L8.10802 237.628ZM10.1673 239.509L10.1673 241.874L13.5487 241.874L13.5487 239.509L10.1673 239.509ZM4.57412 244.162C4.50633 243.975 4.0148 242.119 3.09955 238.594L2.46395 236.23L4.75209 235.747C5.00633 236.814 5.33683 238.213 5.74361 239.941C6.16734 241.687 6.5148 243.094 6.78599 244.162L4.57412 244.162Z" fill="#C0C0C0"/>
<path d="M20.4892 208.468L3.81124 208.468L3.81124 227.129L1.47226 227.129L1.47226 206.078L22.7773 206.078L22.7773 226.646L20.4892 226.646L20.4892 208.468ZM7.04006 209.663C8.41294 211.731 10.1587 213.858 12.2773 216.044C14.5994 213.637 16.3621 211.731 17.5655 210.324L19.2434 211.926C17.8367 213.536 16.074 215.451 13.9553 217.671C15.735 219.349 17.5994 220.875 19.5485 222.248L18.1248 224.205C16.1926 222.765 14.2604 221.154 12.3282 219.375C10.5146 221.256 8.71802 223.087 6.93836 224.866L5.10785 223.061C6.56548 221.773 8.40446 220.002 10.6248 217.748C8.35362 215.476 6.48073 213.29 5.00616 211.188L7.04006 209.663Z" fill="#C0C0C0"/>
<path d="M21.4805 189.781C21.0398 188.662 20.6245 187.484 20.2347 186.247C19.8449 185.009 19.5482 183.891 19.3449 182.891L14.8957 182.891L14.8957 189.425L12.4805 189.425L12.4805 182.891L6.09909 182.891L6.81096 185.077C7.21774 186.365 7.69232 187.823 8.23469 189.45L5.61605 189.603C4.87028 187.077 4.17537 184.823 3.5313 182.84C3.19232 181.823 2.9635 181.162 2.84486 180.857L5.0313 179.84C5.23469 180.094 5.42961 180.272 5.61605 180.374C5.81944 180.475 6.0313 180.526 6.25164 180.526L21.3025 180.526C21.5059 181.662 21.8449 183.052 22.3194 184.696C22.811 186.34 23.2855 187.781 23.7432 189.018L21.4805 189.781ZM21.9889 191.001L21.9889 201.069L7.14147 201.069C5.90418 201.069 5.03977 200.848 4.54825 200.408C4.05672 199.984 3.81096 199.323 3.81096 198.425C3.81096 197.577 3.85333 196.62 3.93808 195.552L6.32791 195.094C6.19232 195.958 6.12452 196.764 6.12452 197.509C6.12452 197.984 6.26859 198.297 6.55672 198.45C6.84486 198.619 7.35333 198.704 8.08215 198.704L19.5991 198.704L19.5991 193.416L0.607571 193.416L0.607571 191.001L21.9889 191.001Z" fill="#C0C0C0"/>
<path d="M11.5406 163.085C11.5575 163.102 11.4897 162.873 11.3372 162.399L10.4982 159.805L3.78635 159.805C2.95584 159.805 2.3372 159.704 1.93042 159.5C1.52364 159.314 1.25245 158.992 1.11686 158.534C0.964318 158.077 0.888047 157.382 0.888047 156.45C0.888047 155.839 0.930419 155.178 1.01516 154.466L3.43042 153.958C3.41347 154.077 3.37957 154.348 3.32872 154.772C3.27787 155.212 3.25245 155.611 3.25245 155.966C3.25245 156.56 3.3372 156.941 3.50669 157.111C3.69313 157.297 4.08296 157.39 4.67618 157.39L9.7355 157.39C9.19313 155.729 8.78635 154.5 8.51516 153.704L10.905 153.195C11.1084 153.992 11.4982 155.39 12.0745 157.39L17.0575 157.39L17.0575 153.729L19.2948 153.729L19.2948 157.39L23.8711 157.39L23.8711 159.805L19.2948 159.805L19.2948 162.856L17.0575 162.856L17.0575 159.805L12.8118 159.805L12.9643 160.314C13.5236 161.958 13.8118 162.797 13.8287 162.831L11.5406 163.085ZM22.1423 176.687L19.8033 176.687L19.8033 172.365L3.96432 172.365C2.76093 172.365 1.93042 172.119 1.47279 171.628C0.998214 171.136 0.752452 170.289 0.735503 169.085C0.718554 168.204 0.752453 167.144 0.837199 165.907L3.25245 165.399C3.11686 166.534 3.04906 167.543 3.04906 168.424C3.04906 168.983 3.15923 169.373 3.37957 169.594C3.61686 169.814 4.01516 169.924 4.57449 169.924L19.8033 169.924L19.8033 163.644L22.1423 163.644L22.1423 176.687Z" fill="#C0C0C0"/>
<path d="M22.4717 151.137L20.1835 151.137L20.1835 147.934L4.57338 147.934C3.57338 147.934 2.81914 147.824 2.31066 147.603C1.78524 147.4 1.41236 147.019 1.19202 146.459C0.971683 145.917 0.861513 145.103 0.861513 144.019C0.861513 142.731 0.903885 141.62 0.988631 140.688L3.30219 140.231C3.1666 141.485 3.0988 142.663 3.0988 143.765C3.0988 144.493 3.24287 144.976 3.531 145.214C3.81914 145.468 4.38693 145.595 5.23439 145.595L20.1835 145.595L20.1835 128.129L22.4717 128.129L22.4717 151.137ZM16.7513 130.798L16.7513 141.426L6.40388 141.426L6.40388 130.798L16.7513 130.798ZM8.64117 133.061L8.64117 139.137L14.4886 139.137L14.4886 133.061L8.64117 133.061Z" fill="#C0C0C0"/>
<path d="M0.760245 124.317C1.42126 123.181 2.25177 121.69 3.25177 119.842C4.25177 118.012 5.1077 116.419 5.81957 115.063C4.70092 114.08 3.73482 112.698 2.92126 110.919C2.1077 109.156 1.28567 106.741 0.455161 103.673L2.87042 102.809C3.49753 105.198 4.08228 107.114 4.62465 108.554C5.16703 110.012 5.77719 111.181 6.45516 112.063C7.15008 112.961 7.98906 113.648 8.97211 114.122L8.97211 102.936L11.2348 102.936L11.2348 114.859C12.506 115.131 14.2348 115.309 16.4213 115.393C17.4213 115.427 18.5484 115.453 19.8026 115.47C21.0569 115.504 22.1416 115.529 23.0569 115.546L23.6416 115.546L23.6416 117.987L23.0314 117.987C22.0823 117.97 20.9467 117.944 19.6247 117.91C18.3196 117.893 17.1416 117.868 16.0908 117.834C14.0738 117.749 12.4552 117.597 11.2348 117.376L11.2348 125.385L8.97211 125.385L8.97211 116.817C8.63313 116.715 8.22635 116.554 7.75177 116.334L6.7094 118.393C5.31957 121.156 4.1077 123.52 3.0738 125.487L0.760245 124.317ZM16.7009 112.495C17.2094 111.851 17.8874 110.868 18.7348 109.546C19.5992 108.224 20.345 107.054 20.9721 106.037L22.9552 107.258C22.3958 108.241 21.7094 109.368 20.8958 110.639C20.0823 111.91 19.3704 112.97 18.7602 113.817L16.7009 112.495ZM12.0738 110.639C12.6501 109.842 13.3619 108.775 14.2094 107.436C15.0738 106.097 15.7518 104.987 16.2433 104.105L18.2772 105.3C17.6501 106.402 16.9467 107.58 16.167 108.834C15.3874 110.088 14.7009 111.131 14.1077 111.961L12.0738 110.639Z" fill="#C0C0C0"/>
<path d="M4.04052 96.2727L10.8541 96.2727L10.8541 98.6625L0.633736 98.6625L0.633736 96.2727L1.75238 96.2727L1.75238 78.832L10.8032 78.832L10.8032 81.2473L4.04052 81.2473L4.04052 87.5269L12.6846 87.5269L12.6846 79.5693L21.6592 79.5693L21.6592 81.9337L15.0236 81.9337L15.0236 87.5269L23.9219 87.5269L23.9219 89.9168L15.0236 89.9168L15.0236 95.5354L21.6592 95.5354L21.6592 97.8998L12.6846 97.8998L12.6846 89.9168L4.04052 89.9168L4.04052 96.2727Z" fill="#C0C0C0"/>
<path d="M14.0825 68.6341C13.1672 70.1934 12.3791 72.3375 11.7181 75.0663L9.50622 74.2527C9.9469 72.6425 10.4215 71.2273 10.93 70.0069C11.4384 68.8036 12.0147 67.7188 12.6588 66.7527C11.3537 64.8036 10.2605 62.3459 9.3791 59.3798L11.5401 58.49C12.252 61.1171 13.0994 63.2781 14.0825 64.973C15.3198 63.651 16.9723 62.4307 19.0401 61.312L19.0401 59.7612L21.2266 59.7612L21.2266 65.8375C22.1249 65.4307 22.9215 65.0324 23.6164 64.6425L24.2266 66.9307C23.8706 67.1341 23.3791 67.3798 22.752 67.668C22.1418 67.973 21.6333 68.2103 21.2266 68.3798L21.2266 74.1764L19.0401 74.1764L19.0401 72.3714C17.1079 71.4392 15.4554 70.1934 14.0825 68.6341ZM12.5316 59.4561C12.1079 58.4392 11.7774 57.6341 11.5401 57.0408L3.76046 57.0408C2.9808 57.0408 2.39605 56.9476 2.00622 56.7612C1.61639 56.5747 1.34521 56.2442 1.19267 55.7697C1.04012 55.2951 0.96385 54.6002 0.96385 53.6849C0.96385 53.2442 0.989274 52.7781 1.04012 52.2866L3.27741 51.8544C3.19266 52.2951 3.15029 52.829 3.15029 53.4561C3.15029 53.9815 3.23504 54.329 3.40453 54.4985C3.57402 54.668 3.93843 54.7527 4.49775 54.7527L10.6249 54.7527C10.1842 53.668 9.80283 52.6764 9.4808 51.7781L11.8706 51.168C12.0571 51.7781 12.4723 52.9731 13.1164 54.7527L17.1842 54.7527L17.1842 51.7781L19.4723 51.7781L19.4723 54.7527L23.8198 54.7527L23.8198 57.0408L19.4723 57.0408L19.4723 59.3798L17.1842 59.3798L17.1842 57.0408L14.0062 57.0408L14.8706 59.2527L12.5316 59.4561ZM19.0401 63.8036C17.5316 64.6849 16.3028 65.6849 15.3537 66.8036C16.4045 68.0747 17.6333 69.1086 19.0401 69.9052L19.0401 63.8036ZM10.3706 62.4815L10.3706 64.8459L9.09944 64.8205C7.20114 64.8205 5.5486 64.473 4.14182 63.7781C2.75199 63.1002 1.4469 61.8544 0.226563 60.0408L1.92995 58.312C2.65877 59.4307 3.3791 60.2866 4.09097 60.8798C4.81978 61.49 5.57402 61.9053 6.35368 62.1256C7.13334 62.3629 8.03165 62.4815 9.0486 62.4815L10.3706 62.4815ZM0.684189 71.1764L0.684189 68.8629L10.2944 68.8629L10.2944 71.1764L0.684189 71.1764Z" fill="#C0C0C0"/>
<path d="M18.2006 49.214L18.2006 37.2649C16.5565 36.5022 14.9464 35.5361 13.3701 34.3666L13.3701 47.0785L0.759914 47.0785L0.759914 44.6632L2.41246 44.6632L2.41246 33.731L0.759915 33.731L0.759915 31.3412L9.81076 31.3412C8.47178 30.053 7.17517 28.6378 5.92093 27.0954L8.4633 25.8242C11.1074 29.57 14.3531 32.409 18.2006 34.3412L18.2006 26.9174L20.565 26.9174L20.565 35.3835C21.5142 35.7564 22.6243 36.1124 23.8955 36.4513L23.4633 39.1717C22.3108 38.8666 21.3447 38.5615 20.565 38.2564L20.565 49.214L18.2006 49.214ZM4.75144 33.731L4.75144 44.6632L10.9294 44.6632L10.9294 33.731L4.75144 33.731Z" fill="#C0C0C0"/>
<path d="M23.1593 8.45968C21.244 7.84951 19.4813 7.17154 17.8712 6.42578L0.557603 6.42578L0.557603 4.06137L13.4474 4.06137C12.1254 3.23087 10.9559 2.39188 9.93896 1.54442L12.5576 0.425781C13.9474 1.49358 15.6593 2.54442 17.6932 3.57832C19.744 4.62917 21.7864 5.47663 23.8203 6.1207L23.1593 8.45968ZM8.18472 17.6122C6.26947 19.2902 4.39658 21.5275 2.56608 24.3241L0.379635 22.8495C2.32879 20.0359 4.28641 17.7478 6.25252 15.9851C4.28641 14.1715 2.33726 11.8156 0.405059 8.91731L2.61692 7.34103C4.44743 10.2393 6.32031 12.5868 8.23557 14.3834C9.86269 13.197 11.6254 12.2309 13.5237 11.4851C15.422 10.7563 17.5661 10.1885 19.9559 9.78171L19.9559 8.96815L22.2949 8.96815L22.2949 22.5444L20.0068 22.5444C17.5661 22.0359 15.3966 21.3834 13.4983 20.5868C11.6 19.8071 9.82879 18.8156 8.18472 17.6122ZM19.9559 12.197C17.9729 12.5868 16.1932 13.0868 14.6169 13.697C13.0407 14.3071 11.5745 15.0783 10.2186 16.0105C11.5915 17.0105 13.0661 17.8326 14.6423 18.4766C16.2356 19.1207 18.0068 19.6292 19.9559 20.0021L19.9559 12.197Z" fill="#C0C0C0"/>
</svg>
