<svg width="24" height="62" viewBox="0 0 24 62" fill="none" xmlns="http://www.w3.org/2000/svg">
<path d="M0.63031 7.74023H15.9155C19.0717 7.74023 21.6303 10.2989 21.6303 13.4551V44.0763H0.63031V7.74023Z" fill="#626262"/>
<ellipse cx="9.73033" cy="8.03804" rx="6.3" ry="0.89351" fill="#383938"/>
<path fill-rule="evenodd" clip-rule="evenodd" d="M14.4457 -0.00390625H5.5303V7.80547H5.53053C5.53612 8.05868 7.52975 8.26378 9.98822 8.26378C12.4501 8.26378 14.4459 8.05811 14.4459 7.8044C14.4459 7.80289 14.4458 7.80138 14.4457 7.79988V-0.00390625Z" fill="#9C9C9C"/>
<rect x="6.9303" y="1.1875" width="6.3" height="6.5524" rx="3.15" fill="#848484"/>
<rect x="12.5303" y="44.0762" width="6.3" height="15.4875" fill="#404040"/>
<path d="M11.6553 12.6437C10.2942 11.9574 6.18364 10.5848 0.63031 10.5848V42.0569H13.2886V42.9393H16.5553C16.4192 42.7433 16.2286 42.2334 16.5553 41.7628C16.882 41.2922 19.1414 41.1746 20.2303 41.1746V39.4098V37.0567L19.822 24.9973L16.5553 22.6442V14.4085L19.4136 11.1731C19.5498 10.7809 19.6586 9.8789 19.0053 9.40829C18.352 8.93767 17.0998 9.2122 16.5553 9.40829L11.6553 12.6437Z" fill="#8B8B8B"/>
<path d="M3.43033 17.5672V13.0996L10.4303 14.8866L6.72445 18.4607L3.43033 17.5672Z" fill="#454545"/>
<path d="M8.33032 18.9017L12.1103 16.0801H12.5303V21.4411H11.6903L8.33032 18.9017Z" fill="#454545"/>
<rect x="3.43033" y="43.4805" width="9.8" height="5.95673" fill="#8B8B8B"/>
<rect x="2.0303" y="49.4355" width="12.6" height="7.74375" rx="2.28594" fill="#292929"/>
<path d="M3.43033 60.1581V57.1797H12.5303V60.1581L10.8758 61.3494H5.08487L3.43033 60.1581Z" fill="#333333"/>
<path d="M7.4553 61.9453L6.9303 61.3496H9.0303L8.5053 61.9453H7.4553Z" fill="#CFCFCF"/>
<rect x="16.7303" y="44.0762" width="6.3" height="16.6788" rx="2.28594" fill="#515151"/>
<ellipse cx="9.73032" cy="30.2683" rx="7" ry="7.03977" fill="#00AE42"/>
</svg>
