<svg width="40" height="391" viewBox="0 0 40 391" fill="none" xmlns="http://www.w3.org/2000/svg">
<g clip-path="url(#clip0_18942_38919)">
<path d="M26.9053 328.602C26.9053 330.282 26.4253 331.594 25.4653 332.538C24.5213 333.482 23.1693 333.954 21.4093 333.954L14.1613 333.954L14.1613 331.146C14.2893 331.13 14.4973 331.106 14.7853 331.074C15.0893 331.058 15.3533 331.026 15.5773 330.978C15.0013 330.61 14.5693 330.13 14.2813 329.538C14.0093 328.962 13.8733 328.258 13.8733 327.426C13.8733 326.562 14.0253 325.77 14.3293 325.05C14.6333 324.346 15.0733 323.786 15.6493 323.37C16.2413 322.954 16.9373 322.746 17.7373 322.746C18.5693 322.746 19.2893 322.978 19.8973 323.442C20.5213 323.922 21.0013 324.562 21.3373 325.362C21.6733 326.162 21.8413 327.042 21.8413 328.002C21.8413 328.866 21.6973 329.754 21.4093 330.666C23.2493 330.618 24.1693 329.834 24.1693 328.314C24.1693 327.098 23.6253 326.21 22.5373 325.65L23.9053 323.274C24.8333 323.722 25.5613 324.41 26.0893 325.338C26.6333 326.266 26.9053 327.354 26.9053 328.602ZM19.2013 330.666C19.3933 329.866 19.4893 329.17 19.4893 328.578C19.4893 327.794 19.3453 327.186 19.0573 326.754C18.7853 326.322 18.3933 326.106 17.8813 326.106C17.4173 326.106 17.0573 326.274 16.8013 326.61C16.5453 326.962 16.4173 327.41 16.4173 327.954C16.4173 328.674 16.6173 329.306 17.0173 329.85C17.4333 330.394 18.0013 330.666 18.7213 330.666L19.2013 330.666Z" fill="#B3B3B3"/>
<path d="M26.9053 315.506C26.9053 316.61 26.6573 317.586 26.1613 318.434C25.6813 319.298 24.9933 319.962 24.0973 320.426C23.2173 320.906 22.2013 321.146 21.0493 321.146C20.5373 321.146 20.0173 321.098 19.4893 321.002L19.4893 312.746C18.5613 312.89 17.8573 313.226 17.3773 313.754C16.9133 314.282 16.6813 314.938 16.6813 315.722C16.6813 316.282 16.8013 316.778 17.0413 317.21C17.2973 317.658 17.6733 318.002 18.1693 318.242L16.7293 320.69C15.8173 320.354 15.1133 319.706 14.6173 318.746C14.1213 317.802 13.8733 316.746 13.8733 315.578C13.8733 314.458 14.1213 313.418 14.6173 312.458C15.1133 311.498 15.8573 310.722 16.8493 310.13C17.8413 309.554 19.0333 309.266 20.4253 309.266C21.8013 309.266 22.9773 309.554 23.9533 310.13C24.9293 310.722 25.6653 311.49 26.1613 312.434C26.6573 313.378 26.9053 314.402 26.9053 315.506ZM24.1933 315.41C24.1933 314.754 23.9853 314.194 23.5693 313.73C23.1533 313.266 22.5693 312.954 21.8173 312.794L21.8173 317.738C22.5853 317.674 23.1693 317.426 23.5693 316.994C23.9853 316.578 24.1933 316.05 24.1933 315.41Z" fill="#B3B3B3"/>
<path d="M26.9053 307.092C26.9053 307.572 26.8333 308.02 26.6893 308.436C26.5453 308.852 26.3613 309.172 26.1373 309.396L23.5693 308.1C23.8573 307.684 24.0013 307.212 24.0013 306.684C24.0013 305.82 23.6413 305.124 22.9213 304.596C22.2013 304.084 21.2093 303.828 19.9453 303.828L14.1613 303.828L14.1613 300.492L26.5933 300.492L26.5933 303.42C25.6333 303.5 24.9773 303.572 24.6253 303.636C25.3773 304.004 25.9453 304.484 26.3293 305.076C26.7133 305.668 26.9053 306.34 26.9053 307.092Z" fill="#B3B3B3"/>
<path d="M26.9053 292.204C26.9053 293.884 26.4253 295.196 25.4653 296.14C24.5213 297.084 23.1693 297.556 21.4093 297.556L14.1613 297.556L14.1613 294.748C14.2893 294.732 14.4973 294.708 14.7853 294.676C15.0893 294.66 15.3533 294.628 15.5773 294.58C15.0013 294.212 14.5693 293.732 14.2813 293.14C14.0093 292.564 13.8733 291.86 13.8733 291.028C13.8733 290.164 14.0253 289.372 14.3293 288.652C14.6333 287.948 15.0733 287.388 15.6493 286.972C16.2413 286.556 16.9373 286.348 17.7373 286.348C18.5693 286.348 19.2893 286.58 19.8973 287.044C20.5213 287.524 21.0013 288.164 21.3373 288.964C21.6733 289.764 21.8413 290.644 21.8413 291.604C21.8413 292.468 21.6973 293.356 21.4093 294.268C23.2493 294.22 24.1693 293.436 24.1693 291.916C24.1693 290.7 23.6253 289.812 22.5373 289.252L23.9053 286.876C24.8333 287.324 25.5613 288.012 26.0893 288.94C26.6333 289.868 26.9053 290.956 26.9053 292.204ZM19.2013 294.268C19.3933 293.468 19.4893 292.772 19.4893 292.18C19.4893 291.396 19.3453 290.788 19.0573 290.356C18.7853 289.924 18.3933 289.708 17.8813 289.708C17.4173 289.708 17.0573 289.876 16.8013 290.212C16.5453 290.564 16.4173 291.012 16.4173 291.556C16.4173 292.276 16.6173 292.908 17.0173 293.452C17.4333 293.996 18.0013 294.268 18.7213 294.268L19.2013 294.268Z" fill="#B3B3B3"/>
<path d="M26.5967 275.334L26.5967 278.814L12.5327 273.222C11.0447 272.63 9.97268 271.934 9.31668 271.134C8.64468 270.35 8.30868 269.366 8.30868 268.182C8.30868 267.606 8.39668 267.062 8.57268 266.55C8.73268 266.054 8.95668 265.622 9.24468 265.254L11.7887 266.574C11.4367 267.054 11.2607 267.582 11.2607 268.158C11.2607 268.526 11.3407 268.838 11.5007 269.094C11.6447 269.366 11.9087 269.622 12.2927 269.862C12.6607 270.102 13.2127 270.382 13.9487 270.702L26.5967 265.302L26.5967 269.046L18.0287 272.334L26.5967 275.334Z" fill="#B3B3B3"/>
<path d="M14.1647 263.727L14.1647 260.391L32.4287 260.391L32.4287 263.727L14.1647 263.727Z" fill="#B3B3B3"/>
<path d="M26.9053 253.034C26.9053 254.41 26.4493 255.498 25.5373 256.298C24.6413 257.098 23.3293 257.498 21.6013 257.498L14.1613 257.498L14.1613 254.162L20.5213 254.162C22.7933 254.162 23.9293 253.41 23.9293 251.906C23.9293 251.106 23.6173 250.458 22.9933 249.962C22.3853 249.482 21.5213 249.242 20.4013 249.242L14.1613 249.242L14.1613 245.906L26.5933 245.906L26.5933 248.834C25.6173 248.914 24.9533 248.986 24.6013 249.05C26.1373 249.85 26.9053 251.178 26.9053 253.034Z" fill="#B3B3B3"/>
<path d="M20.3773 230.773C21.6733 230.773 22.8173 231.061 23.8093 231.637C24.8013 232.229 25.5613 233.013 26.0893 233.989C26.6333 234.965 26.9053 236.021 26.9053 237.157C26.9053 238.277 26.6333 239.317 26.0893 240.277C25.5613 241.253 24.8013 242.029 23.8093 242.605C22.8173 243.197 21.6733 243.493 20.3773 243.493C19.0813 243.493 17.9373 243.197 16.9453 242.605C15.9533 242.029 15.1933 241.253 14.6653 240.277C14.1373 239.317 13.8733 238.277 13.8733 237.157C13.8733 236.021 14.1373 234.965 14.6653 233.989C15.1933 233.013 15.9533 232.229 16.9453 231.637C17.9373 231.061 19.0813 230.773 20.3773 230.773ZM20.3773 234.229C19.2733 234.229 18.3933 234.501 17.7373 235.045C17.0973 235.605 16.7773 236.301 16.7773 237.133C16.7773 237.965 17.0973 238.653 17.7373 239.197C18.3933 239.741 19.2733 240.013 20.3773 240.013C21.4813 240.013 22.3613 239.741 23.0173 239.197C23.6733 238.653 24.0013 237.965 24.0013 237.133C24.0013 236.301 23.6733 235.605 23.0173 235.045C22.3613 234.501 21.4813 234.229 20.3773 234.229Z" fill="#B3B3B3"/>
<path d="M26.9053 221.311C26.9053 221.791 26.8333 222.239 26.6893 222.655C26.5453 223.071 26.3613 223.391 26.1373 223.615L23.5693 222.319C23.8573 221.903 24.0013 221.431 24.0013 220.903C24.0013 220.039 23.6413 219.343 22.9213 218.815C22.2013 218.303 21.2093 218.047 19.9453 218.047L14.1613 218.047L14.1613 214.711L26.5933 214.711L26.5933 217.639C25.6333 217.719 24.9773 217.791 24.6253 217.855C25.3773 218.223 25.9453 218.703 26.3293 219.295C26.7133 219.887 26.9053 220.559 26.9053 221.311Z" fill="#B3B3B3"/>
<path d="M26.9053 206.873C26.9053 207.977 26.6573 208.953 26.1613 209.801C25.6813 210.665 24.9933 211.329 24.0973 211.793C23.2173 212.273 22.2013 212.513 21.0493 212.513C20.5373 212.513 20.0173 212.465 19.4893 212.369L19.4893 204.113C18.5613 204.257 17.8573 204.593 17.3773 205.121C16.9133 205.649 16.6813 206.305 16.6813 207.089C16.6813 207.649 16.8013 208.145 17.0413 208.577C17.2973 209.025 17.6733 209.369 18.1693 209.609L16.7293 212.057C15.8173 211.721 15.1133 211.073 14.6173 210.113C14.1213 209.169 13.8733 208.113 13.8733 206.945C13.8733 205.825 14.1213 204.785 14.6173 203.825C15.1133 202.865 15.8573 202.089 16.8493 201.497C17.8413 200.921 19.0333 200.633 20.4253 200.633C21.8013 200.633 22.9773 200.921 23.9533 201.497C24.9293 202.089 25.6653 202.857 26.1613 203.801C26.6573 204.745 26.9053 205.769 26.9053 206.873ZM24.1933 206.777C24.1933 206.121 23.9853 205.561 23.5693 205.097C23.1533 204.633 22.5693 204.321 21.8173 204.161L21.8173 209.105C22.5853 209.041 23.1693 208.793 23.5693 208.361C23.9853 207.945 24.1933 207.417 24.1933 206.777Z" fill="#B3B3B3"/>
<path d="M32.4287 194.899L32.4287 198.235L14.1647 198.235L14.1647 195.307C15.0927 195.227 15.7167 195.163 16.0367 195.115C15.3167 194.683 14.7727 194.115 14.4047 193.411C14.0527 192.723 13.8767 191.971 13.8767 191.155C13.8767 190.131 14.1327 189.195 14.6447 188.347C15.1567 187.499 15.9007 186.819 16.8767 186.307C17.8687 185.795 19.0367 185.539 20.3807 185.539C21.7407 185.539 22.9087 185.795 23.8847 186.307C24.8767 186.819 25.6287 187.499 26.1407 188.347C26.6527 189.195 26.9087 190.131 26.9087 191.155C26.9087 191.907 26.7567 192.603 26.4527 193.243C26.1487 193.899 25.6847 194.451 25.0607 194.899L32.4287 194.899ZM16.7327 191.923C16.7327 192.755 17.0367 193.459 17.6447 194.035C18.2527 194.611 19.1647 194.899 20.3807 194.899C21.5807 194.899 22.4687 194.611 23.0447 194.035C23.6367 193.459 23.9327 192.755 23.9327 191.923C23.9327 191.043 23.6207 190.331 22.9967 189.787C22.3727 189.259 21.5007 188.995 20.3807 188.995C19.2607 188.995 18.3727 189.259 17.7167 189.787C17.0607 190.331 16.7327 191.043 16.7327 191.923Z" fill="#B3B3B3"/>
<path d="M26.5967 179.814L26.5967 183.15L14.1647 183.15L14.1647 180.198C15.1247 180.134 15.7727 180.07 16.1087 180.006C15.3567 179.59 14.7967 179.046 14.4287 178.374C14.0607 177.702 13.8767 176.934 13.8767 176.07C13.8767 174.678 14.3247 173.582 15.2207 172.782C16.1167 171.982 17.4287 171.582 19.1567 171.582L26.5967 171.582L26.5967 174.918L20.2607 174.918C17.9727 174.918 16.8287 175.654 16.8287 177.126C16.8287 177.926 17.1407 178.574 17.7647 179.07C18.3887 179.566 19.2607 179.814 20.3807 179.814L26.5967 179.814Z" fill="#B3B3B3"/>
<path d="M26.9053 168.061C26.9053 168.541 26.8333 168.989 26.6893 169.405C26.5453 169.821 26.3613 170.141 26.1373 170.365L23.5693 169.069C23.8573 168.653 24.0013 168.181 24.0013 167.653C24.0013 166.789 23.6413 166.093 22.9213 165.565C22.2013 165.053 21.2093 164.797 19.9453 164.797L14.1613 164.797L14.1613 161.461L26.5933 161.461L26.5933 164.389C25.6333 164.469 24.9773 164.541 24.6253 164.605C25.3773 164.973 25.9453 165.453 26.3293 166.045C26.7133 166.637 26.9053 167.309 26.9053 168.061Z" fill="#B3B3B3"/>
<path d="M14.8812 159.952C14.2092 159.136 13.8732 158 13.8732 156.544C13.8732 155.2 14.2252 154.112 14.9292 153.28C15.6492 152.464 16.9292 152.056 18.7692 152.056L23.7852 152.056L23.7852 149.848L26.5932 149.848L26.5932 152.056L30.4092 152.056L30.4092 155.392L26.5932 155.392L26.5932 159.136L23.7852 159.136L23.7852 155.392L19.3212 155.392C18.4892 155.392 17.8572 155.536 17.4252 155.824C16.9932 156.112 16.7772 156.576 16.7772 157.216C16.7772 157.776 16.9452 158.304 17.2812 158.8L14.8812 159.952Z" fill="#B3B3B3"/>
<path d="M22.9007 142.967L26.5967 145.607L26.5967 149.255L20.4527 144.695L14.1647 149.255L14.1647 145.439L17.8847 142.823L14.1647 140.231L14.1647 136.535L20.3087 141.095L26.5967 136.535L26.5967 140.399L22.9007 142.967Z" fill="#B3B3B3"/>
<path d="M26.9053 130.49C26.9053 131.594 26.6573 132.57 26.1613 133.418C25.6813 134.282 24.9933 134.946 24.0973 135.41C23.2173 135.89 22.2013 136.13 21.0493 136.13C20.5373 136.13 20.0173 136.082 19.4893 135.986L19.4893 127.73C18.5613 127.874 17.8573 128.21 17.3773 128.738C16.9133 129.266 16.6813 129.922 16.6813 130.706C16.6813 131.266 16.8013 131.762 17.0413 132.194C17.2973 132.642 17.6733 132.986 18.1693 133.226L16.7293 135.674C15.8173 135.338 15.1133 134.69 14.6173 133.73C14.1213 132.786 13.8733 131.73 13.8733 130.562C13.8733 129.442 14.1213 128.402 14.6173 127.442C15.1133 126.482 15.8573 125.706 16.8493 125.114C17.8413 124.538 19.0333 124.25 20.4253 124.25C21.8013 124.25 22.9773 124.538 23.9533 125.114C24.9293 125.706 25.6653 126.474 26.1613 127.418C26.6573 128.362 26.9053 129.386 26.9053 130.49ZM24.1933 130.394C24.1933 129.738 23.9853 129.178 23.5693 128.714C23.1533 128.25 22.5693 127.938 21.8173 127.778L21.8173 132.722C22.5853 132.658 23.1693 132.41 23.5693 131.978C23.9853 131.562 24.1933 131.034 24.1933 130.394Z" fill="#B3B3B3"/>
<path d="M14.8812 116.991C14.2092 116.175 13.8732 115.039 13.8732 113.583C13.8732 112.239 14.2252 111.151 14.9292 110.319C15.6492 109.503 16.9292 109.095 18.7692 109.095L23.7852 109.095L23.7852 106.887L26.5932 106.887L26.5932 109.095L30.4092 109.095L30.4092 112.431L26.5932 112.431L26.5932 116.175L23.7852 116.175L23.7852 112.431L19.3212 112.431C18.4892 112.431 17.8572 112.575 17.4252 112.863C16.9932 113.151 16.7772 113.615 16.7772 114.255C16.7772 114.815 16.9452 115.343 17.2812 115.839L14.8812 116.991Z" fill="#B3B3B3"/>
<path d="M26.9087 101.065C26.9087 102.425 26.4527 103.506 25.5407 104.305C24.6447 105.122 23.3327 105.529 21.6047 105.529L14.1647 105.529L14.1647 102.193L20.5247 102.193C22.7967 102.194 23.9327 101.441 23.9327 99.9375C23.9327 99.1375 23.6207 98.4895 22.9967 97.9935C22.3887 97.5135 21.5247 97.2735 20.4047 97.2735L14.1647 97.2735L14.1647 93.9375L32.4287 93.9375L32.4287 97.2735L24.9407 97.2735C26.2527 98.0735 26.9087 99.3375 26.9087 101.065Z" fill="#B3B3B3"/>
<path d="M26.5933 90.9382L15.4333 90.9382C12.9213 90.9382 11.1053 90.3062 9.98527 89.0422C8.86527 87.7782 8.30527 86.2102 8.30527 84.3382C8.30527 82.9782 8.59327 81.7782 9.16927 80.7382C9.74527 79.7142 10.5453 78.9862 11.5693 78.5542L13.0333 81.1222C11.8333 81.7462 11.2333 82.8182 11.2333 84.3382C11.2333 85.5222 11.5853 86.3542 12.2893 86.8342C12.9773 87.3302 14.0973 87.5862 15.6493 87.6022C14.4653 86.7702 13.8733 85.5702 13.8733 84.0022C13.8733 82.9942 14.1293 82.0502 14.6413 81.1702C15.1693 80.2902 15.9213 79.5782 16.8973 79.0342C17.8893 78.5062 19.0493 78.2422 20.3773 78.2422C21.7213 78.2422 22.8813 78.5062 23.8573 79.0342C24.8493 79.5782 25.6013 80.2902 26.1133 81.1702C26.6413 82.0502 26.9053 82.9942 26.9053 84.0022C26.9053 84.8182 26.7293 85.5542 26.3773 86.2102C26.0253 86.8662 25.4893 87.4022 24.7693 87.8182C25.4253 87.9302 26.0333 87.9942 26.5933 88.0102L26.5933 90.9382ZM16.7293 84.6262C16.7293 85.4582 17.0333 86.1622 17.6413 86.7382C18.2493 87.3142 19.1613 87.6022 20.3773 87.6022C21.5773 87.6022 22.4653 87.3142 23.0413 86.7382C23.6333 86.1622 23.9293 85.4582 23.9293 84.6262C23.9293 83.7462 23.6173 83.0342 22.9933 82.4902C22.3693 81.9622 21.4973 81.6982 20.3773 81.6982C19.2573 81.6982 18.3693 81.9622 17.7133 82.4902C17.0573 83.0342 16.7293 83.7462 16.7293 84.6262Z" fill="#B3B3B3"/>
<path d="M28.1807 74.1711C28.1807 73.6431 28.3807 73.1791 28.7807 72.7791C29.1967 72.3951 29.6767 72.2031 30.2207 72.2031C30.7807 72.2031 31.2607 72.3951 31.6607 72.7791C32.0607 73.1631 32.2607 73.6271 32.2607 74.1711C32.2607 74.7151 32.0527 75.1871 31.6367 75.5871C31.2367 75.9871 30.7647 76.1871 30.2207 76.1871C29.6767 76.1871 29.1967 75.9871 28.7807 75.5871C28.3807 75.1871 28.1807 74.7151 28.1807 74.1711ZM14.1647 75.8751L14.1647 72.5391L26.5967 72.5391L26.5967 75.8751L14.1647 75.8751Z" fill="#B3B3B3"/>
<path d="M14.1615 70.9904L14.1855 66.8384L20.4975 62.5664L20.4975 62.4224L20.4975 59.8784L14.1615 59.8784L14.1615 56.3984L31.7295 56.3984L31.7295 62.4704C31.7295 63.8464 31.4975 65.0544 31.0335 66.0944C30.5695 67.1344 29.9055 67.9344 29.0415 68.4944C28.1935 69.0544 27.2175 69.3344 26.1135 69.3344C24.9935 69.3344 24.0095 69.0464 23.1615 68.4704C22.3135 67.8944 21.6655 67.0864 21.2175 66.0464L14.1615 70.9904ZM28.7775 59.8784L23.4495 59.8784L23.4495 62.0624C23.4495 63.0864 23.6655 63.9344 24.0975 64.6064C24.5455 65.2944 25.2175 65.6384 26.1135 65.6384C27.0255 65.6384 27.6975 65.3024 28.1295 64.6304C28.5615 63.9584 28.7775 63.1024 28.7775 62.0624L28.7775 59.8784Z" fill="#B3B3B3"/>
</g>
<defs>
<clipPath id="clip0_18942_38919">
<rect width="390" height="39" fill="white" transform="matrix(-4.37114e-08 1 1 4.37114e-08 0.867188 0.175781)"/>
</clipPath>
</defs>
</svg>
