<svg width="25" height="301" viewBox="0 0 25 301" fill="none" xmlns="http://www.w3.org/2000/svg">
<g clip-path="url(#clip0_20097_67576)">
<path d="M22.8311 251.478C21.7857 252.602 20.9665 253.436 20.3736 253.982L19.0629 252.742C20.1083 251.743 20.9431 250.916 21.5672 250.261L22.8311 251.478ZM6.93944 254.895C5.95645 254.786 5.05148 254.661 4.22452 254.521C3.08551 254.318 2.30536 254.037 1.88408 253.678C1.4628 253.319 1.25216 252.836 1.25216 252.227C1.25216 251.697 1.4472 251.213 1.83727 250.776C2.22735 250.339 2.85927 249.941 3.73303 249.582C3.85786 249.536 3.97488 249.489 4.0841 249.442C4.20892 249.395 4.31814 249.356 4.41176 249.325C3.27274 248.436 2.16493 247.382 1.08833 246.165L2.65643 244.597C4.06069 246.329 5.44155 247.694 6.79901 248.693C9.48272 248.116 12.9076 247.733 17.0736 247.546L17.0736 240.314L19.0629 240.314L19.0629 247.499C20.0459 247.468 21.2239 247.453 22.597 247.453L22.6204 249.465L20.2098 249.489L19.0629 249.512L19.0629 254.685L17.0736 254.685L17.0736 249.536C13.9062 249.629 11.3005 249.848 9.25648 250.191C10.8168 250.955 12.8842 251.673 15.4587 252.344L14.8969 254.193C11.5735 253.304 8.77279 252.157 6.49475 250.753C5.87064 250.94 5.37134 251.104 4.99687 251.244C4.54439 251.416 4.22453 251.572 4.03729 251.712C3.86566 251.868 3.77984 252.032 3.77984 252.204C3.77984 252.36 3.90466 252.485 4.15431 252.578C4.40396 252.687 4.83304 252.789 5.44155 252.882L7.50115 253.14L6.93944 254.895ZM6.23731 240.244C6.17489 240.072 5.90184 239.222 5.41815 237.693C4.80964 235.696 4.38836 234.377 4.15431 233.738L6.30752 233.27C6.38553 233.691 6.65079 234.619 7.10327 236.055L14.7097 236.055L14.7097 233.761L16.7927 233.761L16.7927 236.055L22.2225 236.055L22.2225 238.114L16.7927 238.114L16.7927 240.057L14.7097 240.057L14.7097 238.114L7.71179 238.114L8.39051 240.244L6.23731 240.244ZM8.06285 240.806L14.9438 240.806L14.9438 246.446L8.06285 246.446L8.06285 240.806ZM9.95861 242.538L9.95861 244.714L13.0714 244.714L13.0714 242.538L9.95861 242.538ZM4.80964 246.821C4.74722 246.649 4.29474 244.941 3.45218 241.695L2.86707 239.519L4.97347 239.074C5.20751 240.057 5.51177 241.344 5.88624 242.936C6.27631 244.543 6.59617 245.838 6.84582 246.821L4.80964 246.821Z" fill="#C0C0C0"/>
<path d="M19.461 213.962L4.10767 213.962L4.10767 231.141L1.95446 231.141L1.95446 211.762L21.5674 211.762L21.5674 230.696L19.461 230.696L19.461 213.962ZM7.08003 215.062C8.34387 216.965 9.95098 218.923 11.9013 220.936C14.039 218.721 15.6617 216.965 16.7695 215.67L18.3142 217.145C17.0191 218.627 15.3964 220.39 13.446 222.434C15.0844 223.979 16.8007 225.383 18.595 226.647L17.2844 228.449C15.5056 227.123 13.7269 225.641 11.9482 224.002C10.2786 225.734 8.62473 227.419 6.98642 229.058L5.3013 227.396C6.64315 226.21 8.33607 224.58 10.3801 222.504C8.28926 220.414 6.56514 218.401 5.20768 216.466L7.08003 215.062Z" fill="#C0C0C0"/>
<path d="M20.374 196.76C19.9684 195.731 19.5861 194.646 19.2272 193.507C18.8684 192.368 18.5953 191.338 18.4081 190.418L14.3123 190.418L14.3123 196.433L12.0889 196.433L12.0889 190.418L6.21435 190.418L6.86967 192.431C7.24414 193.617 7.68103 194.958 8.18032 196.456L5.76967 196.597C5.08314 194.272 4.44341 192.197 3.8505 190.371C3.53844 189.435 3.3278 188.826 3.21858 188.546L5.23136 187.609C5.4186 187.843 5.59803 188.007 5.76967 188.101C5.9569 188.194 6.15194 188.241 6.35478 188.241L20.2102 188.241C20.3974 189.287 20.7095 190.566 21.1464 192.08C21.5989 193.593 22.0358 194.919 22.457 196.058L20.374 196.76ZM20.8421 197.884L20.8421 207.152L7.17393 207.152C6.03491 207.152 5.23916 206.949 4.78668 206.544C4.33419 206.153 4.10795 205.545 4.10795 204.718C4.10795 203.938 4.14696 203.056 4.22497 202.073L6.42499 201.652C6.30017 202.448 6.23775 203.189 6.23775 203.875C6.23775 204.312 6.37038 204.601 6.63563 204.741C6.90088 204.897 7.36897 204.975 8.0399 204.975L18.6421 204.975L18.6421 200.107L1.15899 200.107L1.15899 197.884L20.8421 197.884Z" fill="#C0C0C0"/>
<path d="M11.2231 172.186C11.2387 172.202 11.1763 171.991 11.0358 171.554L10.2635 169.167L4.08471 169.167C3.32017 169.167 2.75066 169.074 2.37619 168.886C2.00171 168.715 1.75207 168.418 1.62725 167.997C1.48682 167.576 1.41661 166.936 1.41661 166.078C1.41661 165.516 1.45561 164.908 1.53363 164.252L3.75705 163.784C3.74145 163.893 3.71024 164.143 3.66343 164.533C3.61662 164.939 3.59322 165.305 3.59322 165.633C3.59322 166.179 3.67123 166.53 3.82726 166.686C3.99889 166.858 4.35776 166.944 4.90387 166.944L9.56135 166.944C9.06205 165.415 8.68758 164.283 8.43794 163.55L10.638 163.082C10.8252 163.815 11.1841 165.103 11.7146 166.944L16.3018 166.944L16.3018 163.574L18.3614 163.574L18.3614 166.944L22.5742 166.944L22.5742 169.167L18.3614 169.167L18.3614 171.976L16.3018 171.976L16.3018 169.167L12.3933 169.167L12.5337 169.635C13.0486 171.149 13.3139 171.921 13.3295 171.952L11.2231 172.186ZM20.9827 184.708L18.8295 184.708L18.8295 180.729L4.24854 180.729C3.14073 180.729 2.37619 180.503 1.95491 180.05C1.51802 179.598 1.29178 178.818 1.27618 177.71C1.26058 176.898 1.29178 175.923 1.3698 174.784L3.59322 174.316C3.46839 175.362 3.40598 176.29 3.40598 177.101C3.40598 177.616 3.5074 177.975 3.71024 178.178C3.92868 178.381 4.29535 178.482 4.81025 178.482L18.8295 178.482L18.8295 172.701L20.9827 172.701L20.9827 184.708Z" fill="#C0C0C0"/>
<path d="M21.2861 161.185L19.1797 161.185L19.1797 158.236L4.80941 158.236C3.88883 158.236 3.1945 158.135 2.72641 157.932C2.24272 157.744 1.89945 157.393 1.69662 156.879C1.49378 156.379 1.39236 155.63 1.39236 154.632C1.39236 153.446 1.43136 152.424 1.50938 151.566L3.63918 151.144C3.51436 152.299 3.45195 153.383 3.45195 154.398C3.45195 155.069 3.58457 155.513 3.84982 155.732C4.11507 155.966 4.63777 156.083 5.41792 156.083L19.1797 156.083L19.1797 140.004L21.2861 140.004L21.2861 161.185ZM16.0201 142.461L16.0201 152.244L6.49452 152.244L6.49452 142.461L16.0201 142.461ZM8.55412 144.544L8.55412 150.138L13.9371 150.138L13.9371 144.544L8.55412 144.544Z" fill="#C0C0C0"/>
<path d="M18.1508 137.826C17.8232 137.811 17.3239 137.764 16.653 137.686C16.1849 137.623 15.826 137.522 15.5764 137.381C15.3423 137.257 15.1629 137.054 15.0381 136.773C14.9288 136.492 14.843 136.086 14.7806 135.556C14.7494 135.057 14.7338 134.674 14.7338 134.409C14.7338 134.159 14.7494 133.769 14.7806 133.239C14.8586 132.552 15.0381 132.053 15.3189 131.741C15.6154 131.429 16.1537 131.273 16.9338 131.273L22.6211 131.273L22.6211 133.052L19.953 133.052C20.7643 134.846 21.3963 136.086 21.8487 136.773L20.3275 137.475C20.0466 137.023 19.7189 136.367 19.3445 135.509C18.97 134.651 18.6345 133.832 18.3381 133.052L17.4721 133.052C17.0976 133.052 16.8402 133.114 16.6998 133.239C16.5749 133.364 16.4969 133.582 16.4657 133.894C16.4501 134.066 16.4423 134.308 16.4423 134.62C16.4423 134.947 16.4501 135.189 16.4657 135.345C16.4969 135.642 16.5671 135.852 16.6764 135.977C16.8012 136.118 17.0118 136.196 17.3083 136.211C17.5267 136.242 17.9324 136.274 18.5253 136.305L18.1508 137.826ZM13.0487 134.901C13.0487 134.901 12.7912 134.659 12.2763 134.175C11.8082 133.707 11.5742 133.473 11.5742 133.473L11.5742 136.773L3.31243 136.773C2.51668 136.773 1.97057 136.609 1.67412 136.281C1.36206 135.954 1.20603 135.345 1.20603 134.456C1.20603 134.097 1.23723 133.59 1.29965 132.935L3.00817 132.584C2.91455 133.036 2.86774 133.481 2.86774 133.918C2.86774 134.526 3.1798 134.83 3.80392 134.83L4.50605 134.83L4.50605 131.577L1.41667 131.577L1.41667 129.681L4.50605 129.681L4.50605 126.171C3.86633 126.015 3.25782 125.781 2.68051 125.469C2.0876 125.157 1.47128 124.751 0.831557 124.252L1.93157 122.449C2.89895 123.308 3.81172 123.877 4.66989 124.158C5.52805 124.454 6.63586 124.603 7.99332 124.603L10.1699 124.603L9.67844 123.854L11.2699 122.754C12.409 124.579 13.6728 125.991 15.0615 126.99L14.4763 123.315L16.2083 123.081L16.3487 124.111L21.2402 124.111L21.2402 125.773L16.6062 125.773L16.7934 126.873L22.5275 126.873L22.5275 128.628L20.4679 128.628L20.4679 130.36L18.853 130.36L18.853 128.628L17.0742 128.628L17.3785 130.384L15.6466 130.641L15.1785 127.645L14.7338 128.909L14.1019 128.511L14.1019 134.901L13.0487 134.901ZM20.6551 117.09L20.6551 122.496L4.55286 122.496L4.55286 117.09L20.6551 117.09ZM18.853 118.986L6.35501 118.986L6.35501 120.718L18.853 120.694L18.853 118.986ZM12.7678 127.528C12.3153 127.154 11.9175 126.771 11.5742 126.381L11.5742 130.992L12.7678 132.326L12.7678 127.528ZM8.69545 129.681L10.0295 129.681L10.0295 126.498L8.69545 126.498L8.69545 129.681ZM8.69545 131.577L8.69545 134.83L10.0295 134.83L10.0295 131.577L8.69545 131.577ZM5.95713 129.681L7.29118 129.681L7.29118 126.498C6.82309 126.498 6.37841 126.475 5.95713 126.428L5.95713 129.681ZM7.29118 131.577L5.95713 131.577L5.95713 134.83L7.29118 134.83L7.29118 131.577Z" fill="#C0C0C0"/>
<path d="M16.4646 108.082L16.4646 106.116L18.6413 106.116L18.6413 101.271L20.42 101.271L20.42 106.116L22.5498 106.116L22.5498 108.082L20.42 108.082L20.42 113.231L18.6413 113.231L18.6413 108.082L16.4646 108.082ZM20.1391 93.9922L20.1391 99.7029L4.13051 99.7029L4.13051 93.9922L20.1391 93.9922ZM6.14329 95.8411L6.14329 97.8773L18.1264 97.8773L18.1264 95.8411L6.14329 95.8411ZM17.4476 111.592L15.7859 111.592L15.7859 114.237L13.9838 114.237L13.9838 111.592L12.4859 111.592L12.4859 109.697L13.9838 109.697L13.9838 104.454L12.4625 104.454L12.4625 102.535L13.9838 102.535L13.9838 100.382L15.7859 100.382L15.7859 102.535L17.4476 102.535L17.4476 104.454L15.7859 104.454L15.7859 109.697L17.4476 109.697L17.4476 111.592ZM11.737 112.669L5.41775 112.669L5.41775 110.726L9.95821 110.726L9.95821 103.448L5.41775 103.448L5.41775 101.528L11.737 101.528L11.737 112.669ZM7.82841 107.988C7.32912 107.926 6.85322 107.832 6.40074 107.707L3.66242 112.88L2.96029 114.19L1.11133 113.301C1.67304 112.365 2.89007 110.25 4.76243 106.958C3.95107 106.412 3.26454 105.616 2.70284 104.571C2.12553 103.541 1.57162 102.114 1.04112 100.288L3.0539 99.4922C3.47518 101.177 3.91207 102.457 4.36455 103.331C4.83264 104.22 5.33194 104.852 5.86244 105.226C6.40854 105.601 7.11847 105.882 7.99224 106.069C8.13267 106.1 8.35111 106.123 8.64757 106.139C8.94402 106.17 9.13126 106.186 9.20927 106.186L9.20927 108.105C8.91282 108.105 8.45253 108.066 7.82841 107.988Z" fill="#C0C0C0"/>
<path d="M17.3541 90.7626L17.3541 79.7625C15.8406 79.0603 14.3583 78.171 12.9072 77.0944L12.9072 88.7966L1.29864 88.7966L1.29864 86.5732L2.81993 86.5732L2.81993 76.5092L1.29864 76.5092L1.29864 74.3092L9.63062 74.3092C8.39799 73.1234 7.20436 71.8206 6.04974 70.4007L8.39018 69.2305C10.8242 72.6787 13.8122 75.2922 17.3541 77.071L17.3541 70.2369L19.5307 70.2369L19.5307 78.0305C20.4045 78.3738 21.4265 78.7015 22.5967 79.0135L22.1988 81.5178C21.1378 81.2369 20.2484 80.9561 19.5307 80.6752L19.5307 90.7626L17.3541 90.7626ZM4.97314 76.5092L4.97314 86.5732L10.6604 86.5732L10.6604 76.5093L4.97314 76.5092Z" fill="#C0C0C0"/>
<path d="M21.9188 53.2435C20.1557 52.6818 18.533 52.0576 17.0507 51.3711L1.11228 51.3711L1.11228 49.1945L12.9783 49.1945C11.7613 48.4299 10.6847 47.6576 9.74852 46.8775L12.1592 45.8477C13.4386 46.8306 15.0145 47.798 16.8869 48.7498C18.7748 49.7172 20.655 50.4973 22.5273 51.0903L21.9188 53.2435ZM8.13361 61.6691C6.37048 63.2138 4.64635 65.2733 2.96123 67.8478L0.948448 66.4904C2.74279 63.9003 4.54493 61.7939 6.35487 60.1712C4.54493 58.5017 2.75059 56.3328 0.971853 53.6647L3.00804 52.2137C4.69316 54.8818 6.41729 57.0428 8.18042 58.6967C9.67831 57.6045 11.301 56.7151 13.0485 56.0286C14.7961 55.3577 16.7699 54.835 18.9699 54.4605L18.9699 53.7115L21.1231 53.7115L21.1231 66.2095L19.0167 66.2095C16.7699 65.7414 14.7727 65.1407 13.0251 64.4074C11.2776 63.6896 9.6471 62.7769 8.13361 61.6691ZM18.9699 56.6839C17.1443 57.0428 15.506 57.5031 14.0549 58.0648C12.6039 58.6265 11.2542 59.3364 10.006 60.1946C11.2698 61.1152 12.6273 61.8719 14.0783 62.4648C15.545 63.0577 17.1755 63.5258 18.9699 63.8691L18.9699 56.6839Z" fill="#C0C0C0"/>
</g>
<defs>
<clipPath id="clip0_20097_67576">
<rect width="24" height="300" fill="white" transform="translate(0.831055 0.371094)"/>
</clipPath>
</defs>
</svg>
