<svg width="25" height="266" viewBox="0 0 25 266" fill="none" xmlns="http://www.w3.org/2000/svg">
<path d="M19.4561 260.837C19.4561 262.317 19.0182 263.511 18.1426 264.419C17.267 265.342 16.0092 265.804 14.3694 265.804L6.77526 265.804L6.77526 263.679C7.49169 263.647 8.00115 263.607 8.30364 263.559C7.10959 262.795 6.51257 261.569 6.51257 259.882C6.51257 259.054 6.66381 258.29 6.9663 257.589C7.2688 256.904 7.70661 256.355 8.27976 255.941C8.8529 255.527 9.54545 255.32 10.3574 255.32C11.5833 255.32 12.5545 255.822 13.2709 256.825C13.9873 257.828 14.3455 259.109 14.3455 260.67C14.3455 261.545 14.2261 262.445 13.9873 263.368L14.0351 263.368C15.1654 263.368 15.9933 263.145 16.5187 262.7C17.06 262.254 17.3306 261.585 17.3306 260.694C17.3306 259.977 17.1714 259.372 16.853 258.879C16.5505 258.401 16.1048 257.995 15.5157 257.661L16.5665 255.846C17.4421 256.244 18.1426 256.888 18.668 257.78C19.1934 258.672 19.4561 259.691 19.4561 260.837ZM12.1246 263.368C12.3634 262.413 12.4828 261.577 12.4828 260.861C12.4828 259.905 12.2997 259.165 11.9335 258.64C11.5674 258.114 11.0579 257.852 10.4052 257.852C9.8161 257.852 9.34644 258.067 8.99619 258.496C8.66185 258.926 8.49469 259.492 8.49469 260.192C8.49469 261.068 8.74146 261.816 9.235 262.437C9.74446 263.058 10.445 263.368 11.3365 263.368L12.1246 263.368Z" fill="#A3A3A3"/>
<path d="M19.4561 248.061C19.4561 249.143 19.2013 250.09 18.6919 250.902C18.1983 251.714 17.5137 252.343 16.6381 252.789C15.7784 253.235 14.8072 253.458 13.7246 253.458C13.3584 253.458 12.9206 253.418 12.4112 253.338L12.4112 244.646C11.1694 244.741 10.23 245.123 9.59321 245.792C8.97231 246.461 8.66185 247.296 8.66185 248.299C8.66185 249.605 9.20316 250.552 10.2858 251.141L9.21112 252.98C8.3514 252.662 7.68273 252.057 7.20511 251.165C6.74342 250.273 6.51257 249.278 6.51257 248.18C6.51257 247.05 6.75934 246.023 7.25288 245.099C7.76234 244.176 8.51061 243.436 9.49769 242.878C10.4848 242.337 11.6629 242.066 13.0321 242.066C14.3694 242.066 15.5237 242.337 16.4948 242.878C17.466 243.436 18.1983 244.168 18.6919 245.075C19.2013 245.999 19.4561 246.994 19.4561 248.061ZM17.3068 247.965C17.3068 247.153 17.0441 246.445 16.5187 245.84C16.0092 245.251 15.261 244.876 14.2739 244.717L14.2739 250.878C15.2291 250.815 15.9694 250.52 16.4948 249.995C17.0361 249.47 17.3068 248.793 17.3068 247.965Z" fill="#A3A3A3"/>
<path d="M19.4561 239.886C19.4561 240.3 19.4003 240.682 19.2889 241.033C19.1774 241.399 19.0262 241.685 18.8351 241.892L16.9008 240.961C17.1237 240.595 17.2351 240.189 17.2351 239.743C17.2351 238.836 16.861 238.095 16.1127 237.522C15.3644 236.965 14.2978 236.686 12.9127 236.686L6.77526 236.686L6.77526 234.227L19.1695 234.227L19.1695 236.4C18.4053 236.432 17.7366 236.479 17.1635 236.543C17.9277 236.909 18.5008 237.371 18.8829 237.928C19.265 238.501 19.4561 239.154 19.4561 239.886Z" fill="#A3A3A3"/>
<path d="M19.4561 225.97C19.4561 227.45 19.0182 228.644 18.1426 229.552C17.267 230.475 16.0092 230.937 14.3694 230.937L6.77526 230.937L6.77526 228.811C7.49169 228.78 8.00115 228.74 8.30364 228.692C7.10959 227.928 6.51257 226.702 6.51257 225.014C6.51257 224.187 6.66381 223.422 6.9663 222.722C7.2688 222.037 7.70661 221.488 8.27976 221.074C8.8529 220.66 9.54545 220.453 10.3574 220.453C11.5833 220.453 12.5545 220.955 13.2709 221.958C13.9873 222.961 14.3455 224.242 14.3455 225.802C14.3455 226.678 14.2261 227.578 13.9873 228.501L14.0351 228.501C15.1654 228.501 15.9933 228.278 16.5187 227.832C17.06 227.387 17.3306 226.718 17.3306 225.826C17.3306 225.11 17.1714 224.505 16.853 224.011C16.5505 223.534 16.1048 223.128 15.5157 222.793L16.5665 220.979C17.4421 221.377 18.1426 222.021 18.668 222.913C19.1934 223.804 19.4561 224.823 19.4561 225.97ZM12.1246 228.501C12.3634 227.546 12.4828 226.71 12.4828 225.994C12.4828 225.038 12.2997 224.298 11.9335 223.773C11.5674 223.247 11.0579 222.985 10.4052 222.985C9.8161 222.985 9.34644 223.199 8.99619 223.629C8.66185 224.059 8.49469 224.624 8.49469 225.325C8.49469 226.2 8.74146 226.949 9.235 227.57C9.74446 228.191 10.445 228.501 11.3365 228.501L12.1246 228.501Z" fill="#A3A3A3"/>
<path d="M19.1689 210.12L19.1689 212.675L4.72096 206.944C3.3677 206.418 2.4045 205.829 1.83136 205.176C1.24229 204.54 0.94776 203.68 0.94776 202.597C0.94776 201.563 1.21841 200.727 1.75971 200.09L3.69407 201.045C3.35974 201.491 3.19257 202.008 3.19257 202.597C3.19257 203.107 3.3677 203.529 3.71795 203.863C4.05229 204.213 4.71299 204.595 5.70007 205.009L6.63143 205.415L19.1689 200.185L19.1689 202.979L9.66432 206.657L19.1689 210.12Z" fill="#A3A3A3"/>
<path d="M6.77482 198.323L6.77482 195.863L24.9482 195.863L24.9482 198.323L6.77482 198.323Z" fill="#A3A3A3"/>
<path d="M19.4561 188.177C19.4561 189.514 19.0182 190.581 18.1426 191.377C17.267 192.173 16.0013 192.571 14.3455 192.571L6.77526 192.571L6.77526 190.111L13.6052 190.111C14.7515 190.111 15.6351 189.896 16.256 189.466C16.8769 189.036 17.1874 188.384 17.1874 187.508C17.1874 186.616 16.8689 185.852 16.2321 185.215C15.6112 184.594 14.7197 184.284 13.5575 184.284L6.77526 184.284L6.77526 181.824L19.1695 181.824L19.1695 183.997C18.3894 184.029 17.7127 184.077 17.1396 184.141C17.9038 184.555 18.4769 185.104 18.859 185.788C19.257 186.489 19.4561 187.285 19.4561 188.177Z" fill="#A3A3A3"/>
<path d="M12.9843 166.926C14.242 166.926 15.3644 167.204 16.3515 167.762C17.3386 168.319 18.1028 169.059 18.6441 169.983C19.1854 170.922 19.4561 171.933 19.4561 173.015C19.4561 174.082 19.1854 175.077 18.6441 176.001C18.1028 176.924 17.3386 177.664 16.3515 178.221C15.3644 178.779 14.242 179.057 12.9843 179.057C11.7266 179.057 10.6042 178.779 9.61709 178.221C8.63001 177.664 7.86582 176.924 7.32452 176.001C6.78322 175.077 6.51257 174.082 6.51257 173.015C6.51257 171.933 6.78322 170.922 7.32452 169.983C7.86582 169.059 8.63001 168.319 9.61709 167.762C10.6042 167.204 11.7266 166.926 12.9843 166.926ZM12.9843 169.505C11.6788 169.505 10.644 169.831 9.87978 170.484C9.11559 171.153 8.7335 171.989 8.7335 172.992C8.7335 174.01 9.11559 174.846 9.87978 175.499C10.644 176.152 11.6788 176.478 12.9843 176.478C14.2898 176.478 15.3246 176.144 16.0888 175.475C16.853 174.822 17.2351 173.995 17.2351 172.992C17.2351 171.989 16.853 171.153 16.0888 170.484C15.3246 169.831 14.2898 169.505 12.9843 169.505Z" fill="#A3A3A3"/>
<path d="M19.4561 157.519C19.4561 157.933 19.4003 158.315 19.2889 158.665C19.1774 159.032 19.0262 159.318 18.8351 159.525L16.9008 158.594C17.1237 158.228 17.2351 157.822 17.2351 157.376C17.2351 156.468 16.861 155.728 16.1127 155.155C15.3644 154.598 14.2978 154.319 12.9127 154.319L6.77526 154.319L6.77526 151.859L19.1695 151.859L19.1695 154.033C18.4053 154.064 17.7366 154.112 17.1635 154.176C17.9277 154.542 18.5008 155.004 18.8829 155.561C19.265 156.134 19.4561 156.787 19.4561 157.519Z" fill="#A3A3A3"/>
<path d="M19.4561 144.002C19.4561 145.085 19.2013 146.032 18.6919 146.844C18.1983 147.656 17.5137 148.285 16.6381 148.73C15.7784 149.176 14.8072 149.399 13.7246 149.399C13.3584 149.399 12.9206 149.359 12.4112 149.28L12.4112 140.587C11.1694 140.682 10.23 141.065 9.59321 141.733C8.97231 142.402 8.66185 143.238 8.66185 144.241C8.66185 145.546 9.20316 146.494 10.2858 147.083L9.21112 148.921C8.3514 148.603 7.68273 147.998 7.20511 147.106C6.74342 146.215 6.51257 145.22 6.51257 144.121C6.51257 142.991 6.75934 141.964 7.25288 141.041C7.76234 140.117 8.51061 139.377 9.49769 138.82C10.4848 138.278 11.6629 138.008 13.0321 138.008C14.3694 138.008 15.5237 138.278 16.4948 138.82C17.466 139.377 18.1983 140.109 18.6919 141.017C19.2013 141.94 19.4561 142.935 19.4561 144.002ZM17.3068 143.906C17.3068 143.094 17.0441 142.386 16.5187 141.781C16.0092 141.192 15.261 140.818 14.2739 140.659L14.2739 146.82C15.2291 146.756 15.9694 146.462 16.4948 145.936C17.0361 145.411 17.3068 144.734 17.3068 143.906Z" fill="#A3A3A3"/>
<path d="M24.9482 132.797L24.9482 135.233L6.77482 135.233L6.77482 133.083C7.85743 133.004 8.53405 132.948 8.8047 132.916C8.04051 132.47 7.46737 131.881 7.08527 131.149C6.70318 130.432 6.51213 129.668 6.51213 128.856C6.51213 127.885 6.76686 126.978 7.27632 126.134C7.78578 125.29 8.52609 124.614 9.49725 124.104C10.4843 123.595 11.6465 123.34 12.9839 123.34C14.3053 123.34 15.4516 123.595 16.4227 124.104C17.4098 124.614 18.1581 125.29 18.6675 126.134C19.1929 126.978 19.4556 127.885 19.4556 128.856C19.4556 129.636 19.2805 130.369 18.9302 131.053C18.58 131.754 18.0626 132.335 17.378 132.797L24.9482 132.797ZM8.70918 129.262C8.70918 130.233 9.05943 131.061 9.75994 131.746C10.4605 132.446 11.5351 132.797 12.9839 132.797C14.4167 132.797 15.4755 132.446 16.16 131.746C16.8446 131.061 17.1869 130.233 17.1869 129.262C17.1869 128.243 16.8208 127.423 16.0884 126.803C15.3561 126.198 14.3212 125.895 12.9839 125.895C11.6306 125.895 10.5799 126.198 9.83159 126.803C9.08332 127.423 8.70918 128.243 8.70918 129.262Z" fill="#A3A3A3"/>
<path d="M19.1689 118.091L19.1689 120.551L6.77472 120.551L6.77472 118.378C7.57075 118.346 8.23942 118.29 8.78072 118.21C8.01653 117.812 7.44339 117.263 7.06129 116.563C6.69511 115.862 6.51203 115.082 6.51203 114.222C6.51203 112.885 6.94985 111.818 7.82548 111.022C8.70112 110.226 9.96681 109.828 11.6226 109.828L19.1689 109.828L19.1689 112.264L12.339 112.264C11.2086 112.264 10.325 112.479 9.6882 112.909C9.06729 113.339 8.75684 113.991 8.75684 114.867C8.75684 115.759 9.07525 116.515 9.71208 117.136C10.3489 117.773 11.2484 118.091 12.4106 118.091L19.1689 118.091Z" fill="#A3A3A3"/>
<path d="M19.4561 106.304C19.4561 106.718 19.4003 107.1 19.2889 107.451C19.1774 107.817 19.0262 108.103 18.8351 108.31L16.9008 107.379C17.1237 107.013 17.2351 106.607 17.2351 106.161C17.2351 105.254 16.861 104.513 16.1127 103.94C15.3644 103.383 14.2978 103.104 12.9127 103.104L6.77526 103.104L6.77526 100.645L19.1695 100.645L19.1695 102.818C18.4053 102.85 17.7366 102.897 17.1635 102.961C17.9277 103.327 18.5008 103.789 18.8829 104.346C19.265 104.919 19.4561 105.572 19.4561 106.304Z" fill="#A3A3A3"/>
<path d="M7.2761 98.7861C6.76664 98.0856 6.51192 97.1542 6.51192 95.992C6.51192 94.8139 6.83829 93.8507 7.49103 93.1024C8.14378 92.37 9.30599 92.0039 10.9777 92.0039L17.0673 92.0039L17.0673 89.9023L19.1688 89.9023L19.1688 92.0039L22.751 92.0039L22.751 94.4397L19.1688 94.4397L19.1688 98.0935L17.0673 98.0935L17.0673 94.4397L11.312 94.4397C9.59256 94.4397 8.73284 95.0766 8.73284 96.3502C8.73284 96.9233 8.88409 97.4567 9.18658 97.9502L7.2761 98.7861Z" fill="#A3A3A3"/>
<path d="M14.8704 83.3726L19.1689 86.4294L19.1689 89.1757L13.0077 84.6622L6.77472 89.1757L6.77472 86.2622L11.0733 83.2532L6.77472 80.1964L6.77472 77.4023L12.9121 81.9397L19.1689 77.4023L19.1689 80.3636L14.8704 83.3726Z" fill="#A3A3A3"/>
<path d="M19.4561 71.2402C19.4561 72.3228 19.2013 73.2701 18.6919 74.0821C18.1983 74.894 17.5137 75.5229 16.6381 75.9687C15.7784 76.4144 14.8072 76.6373 13.7246 76.6373C13.3584 76.6373 12.9206 76.5975 12.4112 76.5179L12.4112 67.8252C11.1694 67.9208 10.23 68.3029 9.59321 68.9715C8.97231 69.6402 8.66185 70.476 8.66185 71.479C8.66185 72.7845 9.20316 73.7318 10.2858 74.3209L9.21112 76.1597C8.3514 75.8413 7.68273 75.2363 7.20511 74.3447C6.74342 73.4532 6.51257 72.4582 6.51257 71.3596C6.51257 70.2293 6.75934 69.2024 7.25288 68.279C7.76234 67.3556 8.51061 66.6153 9.49769 66.058C10.4848 65.5167 11.6629 65.2461 13.0321 65.2461C14.3694 65.2461 15.5237 65.5167 16.4948 66.058C17.466 66.6153 18.1983 67.3476 18.6919 68.2551C19.2013 69.1785 19.4561 70.1735 19.4561 71.2402ZM17.3068 71.1447C17.3068 70.3327 17.0441 69.6243 16.5187 69.0193C16.0092 68.4302 15.261 68.0561 14.2739 67.8969L14.2739 74.0582C15.2291 73.9945 15.9694 73.7 16.4948 73.1746C17.0361 72.6492 17.3068 71.9726 17.3068 71.1447Z" fill="#A3A3A3"/>
<path d="M7.2761 57.6689C6.76664 56.9684 6.51192 56.037 6.51192 54.8748C6.51192 53.6967 6.83829 52.7335 7.49103 51.9852C8.14378 51.2529 9.30599 50.8867 10.9777 50.8867L17.0673 50.8867L17.0673 48.7852L19.1688 48.7852L19.1688 50.8867L22.751 50.8867L22.751 53.3225L19.1688 53.3225L19.1688 56.9763L17.0673 56.9763L17.0673 53.3225L11.312 53.3225C9.59256 53.3225 8.73284 53.9594 8.73284 55.233C8.73284 55.8062 8.88409 56.3395 9.18658 56.833L7.2761 57.6689Z" fill="#A3A3A3"/>
<path d="M19.4556 42.6531C19.4556 43.9745 19.0098 45.0333 18.1183 45.8293C17.2426 46.6412 15.9849 47.0472 14.3451 47.0472L6.77482 47.0472L6.77482 44.5875L13.6048 44.5875C14.7511 44.5875 15.6347 44.3726 16.2556 43.9427C16.8765 43.5128 17.1869 42.8601 17.1869 41.9845C17.1869 41.0929 16.8685 40.3287 16.2317 39.6919C15.6108 39.071 14.7192 38.7605 13.557 38.7605L6.77482 38.7605L6.77482 36.3008L24.9482 36.3008L24.9482 38.7605L17.378 38.7605C18.0626 39.1745 18.58 39.7158 18.9302 40.3844C19.2805 41.069 19.4556 41.8252 19.4556 42.6531Z" fill="#A3A3A3"/>
<path d="M19.1695 32.8302L7.7305 32.8302C5.29464 32.8302 3.55929 32.2332 2.52444 31.0392C1.47368 29.861 0.948297 28.4441 0.948297 26.7883C0.948297 25.5147 1.21895 24.3843 1.76025 23.3972C2.30155 22.4261 3.05778 21.7574 4.02894 21.3912L5.15135 23.3256C3.84586 23.9465 3.19311 25.1008 3.19311 26.7883C3.19311 27.9505 3.55132 28.8421 4.26775 29.463C4.96826 30.0839 6.16231 30.3944 7.8499 30.3944L8.68573 30.466C7.95338 30.0202 7.40412 29.4471 7.03795 28.7466C6.68769 28.062 6.51257 27.3137 6.51257 26.5018C6.51257 25.5306 6.7673 24.6152 7.27676 23.7555C7.80214 22.9117 8.55041 22.2271 9.52157 21.7017C10.5086 21.1922 11.6629 20.9375 12.9843 20.9375C14.3216 20.9375 15.4759 21.1922 16.4471 21.7017C17.4341 22.2271 18.1824 22.9117 18.6919 23.7555C19.2013 24.6152 19.4561 25.5306 19.4561 26.5018C19.4561 27.3137 19.265 28.0779 18.8829 28.7943C18.5008 29.5108 17.9277 30.0839 17.1635 30.5138C18.0869 30.6093 18.7555 30.665 19.1695 30.6809L19.1695 32.8302ZM8.70962 26.86C8.70962 27.8311 9.05987 28.659 9.76038 29.3436C10.4609 30.0441 11.5355 30.3944 12.9843 30.3944C14.4172 30.3944 15.4759 30.0441 16.1605 29.3436C16.8451 28.659 17.1874 27.8311 17.1874 26.86C17.1874 25.8411 16.8212 25.0211 16.0888 24.4002C15.3565 23.7953 14.3216 23.4928 12.9843 23.4928C11.6311 23.4928 10.5803 23.7953 9.83202 24.4002C9.08375 25.0211 8.70962 25.8411 8.70962 26.86Z" fill="#A3A3A3"/>
<path d="M21.1754 16.9034C21.1754 16.4894 21.3346 16.1312 21.653 15.8287C21.9714 15.5262 22.3456 15.375 22.7754 15.375C23.2053 15.375 23.5714 15.5262 23.8739 15.8287C24.1924 16.1312 24.3516 16.4894 24.3516 16.9034C24.3516 17.3492 24.1924 17.7233 23.8739 18.0258C23.5714 18.3283 23.2053 18.4795 22.7754 18.4795C22.3456 18.4795 21.9714 18.3203 21.653 18.0019C21.3346 17.6994 21.1754 17.3332 21.1754 16.9034ZM6.77516 18.1452L6.77516 15.6855L19.1694 15.6855L19.1694 18.1452L6.77516 18.1452Z" fill="#A3A3A3"/>
<path d="M6.77596 13.9334L6.77596 10.8288L13.6537 6.02875L13.6537 5.8377L13.6537 2.8287L6.77596 2.8287L6.77596 0.273437L24.2568 0.273438L24.2568 5.86159C24.2568 7.1034 24.0339 8.20192 23.5882 9.15716C23.1424 10.1283 22.5135 10.8766 21.7016 11.402C20.9055 11.9433 19.9821 12.2139 18.9314 12.2139C17.801 12.2139 16.8139 11.8955 15.9701 11.2587C15.1263 10.6378 14.5134 9.77806 14.1313 8.67954L6.77596 13.9334ZM22.0359 2.8287L15.8746 2.8287L15.8746 5.55113C15.8746 6.79294 16.1453 7.7641 16.6866 8.46461C17.2279 9.16512 17.9761 9.51537 18.9314 9.51537C19.8866 9.51537 20.6428 9.16512 21.2001 8.46461C21.7573 7.7641 22.0359 6.79294 22.0359 5.55113L22.0359 2.8287Z" fill="#A3A3A3"/>
</svg>
