<svg width="25" height="266" viewBox="0 0 25 266" fill="none" xmlns="http://www.w3.org/2000/svg">
<path d="M18.5781 260.911C18.5781 262.392 18.1403 263.586 17.2647 264.493C16.389 265.417 15.1313 265.878 13.4915 265.878L5.89733 265.878L5.89733 263.753C6.61376 263.721 7.12322 263.681 7.42571 263.633C6.23166 262.869 5.63464 261.643 5.63464 259.956C5.63464 259.128 5.78588 258.364 6.08838 257.663C6.39087 256.979 6.82869 256.429 7.40183 256.015C7.97497 255.601 8.66752 255.395 9.47947 255.395C10.7054 255.395 11.6765 255.896 12.393 256.899C13.1094 257.902 13.4676 259.184 13.4676 260.744C13.4676 261.62 13.3482 262.519 13.1094 263.442L13.1571 263.442C14.2875 263.442 15.1154 263.22 15.6408 262.774C16.1821 262.328 16.4527 261.659 16.4527 260.768C16.4527 260.051 16.2935 259.446 15.9751 258.953C15.6726 258.475 15.2268 258.069 14.6378 257.735L15.6885 255.92C16.5642 256.318 17.2647 256.963 17.7901 257.854C18.3154 258.746 18.5781 259.765 18.5781 260.911ZM11.2467 263.442C11.4855 262.487 11.6049 261.651 11.6049 260.935C11.6049 259.98 11.4218 259.239 11.0556 258.714C10.6894 258.189 10.18 257.926 9.52724 257.926C8.93817 257.926 8.46851 258.141 8.11826 258.571C7.78392 259.001 7.61676 259.566 7.61676 260.266C7.61676 261.142 7.86353 261.89 8.35707 262.511C8.86653 263.132 9.56704 263.442 10.4586 263.442L11.2467 263.442Z" fill="#C0C0C0"/>
<path d="M18.5781 248.135C18.5781 249.217 18.3234 250.165 17.8139 250.977C17.3204 251.789 16.6358 252.417 15.7602 252.863C14.9005 253.309 13.9293 253.532 12.8467 253.532C12.4805 253.532 12.0427 253.492 11.5332 253.412L11.5332 244.72C10.2914 244.815 9.35211 245.197 8.71528 245.866C8.09438 246.535 7.78392 247.371 7.78392 248.374C7.78392 249.679 8.32523 250.626 9.40783 251.215L8.33319 253.054C7.47347 252.736 6.8048 252.131 6.32718 251.239C5.86549 250.348 5.63464 249.353 5.63464 248.254C5.63464 247.124 5.88141 246.097 6.37495 245.174C6.88441 244.25 7.63268 243.51 8.61976 242.953C9.60684 242.411 10.785 242.141 12.1541 242.141C13.4915 242.141 14.6457 242.411 15.6169 242.953C16.588 243.51 17.3204 244.242 17.8139 245.15C18.3234 246.073 18.5781 247.068 18.5781 248.135ZM16.4288 248.039C16.4288 247.227 16.1661 246.519 15.6408 245.914C15.1313 245.325 14.383 244.951 13.396 244.791L13.396 250.953C14.3512 250.889 15.0915 250.594 15.6169 250.069C16.1582 249.544 16.4288 248.867 16.4288 248.039Z" fill="#C0C0C0"/>
<path d="M18.5781 239.961C18.5781 240.375 18.5224 240.757 18.411 241.107C18.2995 241.473 18.1483 241.76 17.9572 241.967L16.0229 241.035C16.2457 240.669 16.3572 240.263 16.3572 239.817C16.3572 238.91 15.9831 238.169 15.2348 237.596C14.4865 237.039 13.4198 236.761 12.0347 236.761L5.89733 236.761L5.89733 234.301L18.2916 234.301L18.2916 236.474C17.5274 236.506 16.8587 236.554 16.2856 236.617C17.0497 236.983 17.6229 237.445 18.005 238.002C18.3871 238.575 18.5781 239.228 18.5781 239.961Z" fill="#C0C0C0"/>
<path d="M18.5781 226.044C18.5781 227.524 18.1403 228.719 17.2647 229.626C16.389 230.549 15.1313 231.011 13.4915 231.011L5.89733 231.011L5.89733 228.886C6.61376 228.854 7.12322 228.814 7.42571 228.766C6.23166 228.002 5.63464 226.776 5.63464 225.089C5.63464 224.261 5.78588 223.497 6.08838 222.796C6.39087 222.111 6.82869 221.562 7.40183 221.148C7.97497 220.734 8.66752 220.527 9.47947 220.527C10.7054 220.527 11.6765 221.029 12.393 222.032C13.1094 223.035 13.4676 224.316 13.4676 225.877C13.4676 226.752 13.3482 227.652 13.1094 228.575L13.1571 228.575C14.2875 228.575 15.1154 228.352 15.6408 227.907C16.1821 227.461 16.4527 226.792 16.4527 225.901C16.4527 225.184 16.2935 224.579 15.9751 224.086C15.6726 223.608 15.2268 223.202 14.6378 222.868L15.6885 221.053C16.5642 221.451 17.2647 222.096 17.7901 222.987C18.3154 223.879 18.5781 224.898 18.5781 226.044ZM11.2467 228.575C11.4855 227.62 11.6049 226.784 11.6049 226.068C11.6049 225.112 11.4218 224.372 11.0556 223.847C10.6894 223.321 10.18 223.059 9.52724 223.059C8.93817 223.059 8.46851 223.274 8.11826 223.704C7.78392 224.133 7.61676 224.699 7.61676 225.399C7.61676 226.275 7.86353 227.023 8.35707 227.644C8.86653 228.265 9.56704 228.575 10.4586 228.575L11.2467 228.575Z" fill="#C0C0C0"/>
<path d="M18.291 210.194L18.291 212.749L3.84303 207.018C2.48977 206.493 1.52657 205.903 0.953426 205.251C0.364362 204.614 0.0698299 203.754 0.06983 202.672C0.06983 201.637 0.340481 200.801 0.881783 200.164L2.81614 201.119C2.48181 201.565 2.31464 202.083 2.31464 202.672C2.31464 203.181 2.48977 203.603 2.84002 203.937C3.17436 204.288 3.83506 204.67 4.82214 205.084L5.7535 205.49L18.291 200.26L18.291 203.054L8.78639 206.731L18.291 210.194Z" fill="#C0C0C0"/>
<path d="M5.89689 198.397L5.89689 195.937L24.0703 195.938L24.0703 198.397L5.89689 198.397Z" fill="#C0C0C0"/>
<path d="M18.5781 188.251C18.5781 189.588 18.1403 190.655 17.2647 191.451C16.389 192.247 15.1233 192.645 13.4676 192.645L5.89733 192.645L5.89733 190.185L12.7273 190.185C13.8736 190.185 14.7572 189.97 15.3781 189.54C15.999 189.111 16.3094 188.458 16.3094 187.582C16.3094 186.691 15.991 185.926 15.3542 185.29C14.7333 184.669 13.8417 184.358 12.6795 184.358L5.89733 184.358L5.89733 181.898L18.2916 181.898L18.2916 184.072C17.5114 184.103 16.8348 184.151 16.2617 184.215C17.0259 184.629 17.599 185.178 17.9811 185.863C18.3791 186.563 18.5781 187.359 18.5781 188.251Z" fill="#C0C0C0"/>
<path d="M12.1064 167C13.3641 167 14.4865 167.279 15.4736 167.836C16.4607 168.393 17.2249 169.133 17.7662 170.057C18.3075 170.996 18.5781 172.007 18.5781 173.09C18.5781 174.156 18.3075 175.151 17.7662 176.075C17.2249 176.998 16.4607 177.738 15.4736 178.296C14.4865 178.853 13.3641 179.132 12.1064 179.132C10.8486 179.132 9.72624 178.853 8.73916 178.296C7.75208 177.738 6.98789 176.998 6.44659 176.075C5.90529 175.151 5.63464 174.156 5.63464 173.09C5.63464 172.007 5.90529 170.996 6.44659 170.057C6.98789 169.133 7.75208 168.393 8.73916 167.836C9.72624 167.279 10.8486 167 12.1064 167ZM12.1064 169.579C10.8009 169.579 9.76604 169.906 9.00185 170.558C8.23766 171.227 7.85557 172.063 7.85557 173.066C7.85557 174.085 8.23766 174.921 9.00185 175.573C9.76604 176.226 10.8009 176.552 12.1064 176.552C13.4119 176.552 14.4467 176.218 15.2109 175.549C15.9751 174.897 16.3572 174.069 16.3572 173.066C16.3572 172.063 15.9751 171.227 15.2109 170.558C14.4467 169.906 13.4119 169.579 12.1064 169.579Z" fill="#C0C0C0"/>
<path d="M18.5781 157.593C18.5781 158.007 18.5224 158.389 18.411 158.74C18.2995 159.106 18.1483 159.392 17.9572 159.599L16.0229 158.668C16.2457 158.302 16.3572 157.896 16.3572 157.45C16.3572 156.543 15.9831 155.802 15.2348 155.229C14.4865 154.672 13.4198 154.393 12.0347 154.393L5.89733 154.393L5.89733 151.934L18.2916 151.934L18.2916 154.107C17.5274 154.139 16.8587 154.186 16.2856 154.25C17.0497 154.616 17.6229 155.078 18.005 155.635C18.3871 156.208 18.5781 156.861 18.5781 157.593Z" fill="#C0C0C0"/>
<path d="M18.5781 144.076C18.5781 145.159 18.3234 146.106 17.8139 146.918C17.3204 147.73 16.6358 148.359 15.7602 148.805C14.9005 149.25 13.9293 149.473 12.8467 149.473C12.4805 149.473 12.0427 149.433 11.5332 149.354L11.5332 140.661C10.2914 140.757 9.35211 141.139 8.71528 141.807C8.09438 142.476 7.78392 143.312 7.78392 144.315C7.78392 145.62 8.32523 146.568 9.40783 147.157L8.33319 148.996C7.47347 148.677 6.8048 148.072 6.32718 147.181C5.86549 146.289 5.63464 145.294 5.63464 144.196C5.63464 143.065 5.88141 142.038 6.37495 141.115C6.88441 140.192 7.63268 139.451 8.61976 138.894C9.60684 138.353 10.785 138.082 12.1541 138.082C13.4915 138.082 14.6457 138.353 15.6169 138.894C16.588 139.451 17.3204 140.184 17.8139 141.091C18.3234 142.014 18.5781 143.009 18.5781 144.076ZM16.4288 143.981C16.4288 143.169 16.1661 142.46 15.6408 141.855C15.1313 141.266 14.383 140.892 13.396 140.733L13.396 146.894C14.3512 146.83 15.0915 146.536 15.6169 146.011C16.1582 145.485 16.4288 144.809 16.4288 143.981Z" fill="#C0C0C0"/>
<path d="M24.0703 132.871L24.0703 135.307L5.89689 135.307L5.89689 133.158C6.9795 133.078 7.65612 133.022 7.92677 132.99C7.16258 132.545 6.58944 131.955 6.20734 131.223C5.82525 130.507 5.6342 129.743 5.6342 128.931C5.6342 127.959 5.88893 127.052 6.39839 126.208C6.90785 125.364 7.64816 124.688 8.61932 124.178C9.6064 123.669 10.7686 123.414 12.1059 123.414C13.4274 123.414 14.5736 123.669 15.5448 124.178C16.5319 124.688 17.2802 125.364 17.7896 126.208C18.315 127.052 18.5777 127.959 18.5777 128.931C18.5777 129.711 18.4026 130.443 18.0523 131.128C17.7021 131.828 17.1846 132.409 16.5 132.871L24.0703 132.871ZM7.83125 129.337C7.83125 130.308 8.1815 131.136 8.88201 131.82C9.58252 132.521 10.6572 132.871 12.1059 132.871C13.5388 132.871 14.5975 132.521 15.2821 131.82C15.9667 131.136 16.309 130.308 16.309 129.337C16.309 128.318 15.9428 127.498 15.2105 126.877C14.4781 126.272 13.4433 125.969 12.1059 125.969C10.7527 125.969 9.70193 126.272 8.95366 126.877C8.20539 127.498 7.83125 128.318 7.83125 129.337Z" fill="#C0C0C0"/>
<path d="M18.291 118.165L18.291 120.625L5.89679 120.625L5.89679 118.452C6.69282 118.42 7.36149 118.364 7.90279 118.285C7.1386 117.887 6.56546 117.337 6.18336 116.637C5.81719 115.936 5.6341 115.156 5.6341 114.296C5.6341 112.959 6.07192 111.892 6.94755 111.096C7.82319 110.3 9.08888 109.902 10.7446 109.902L18.291 109.902L18.291 112.338L11.4611 112.338C10.3307 112.338 9.44709 112.553 8.81027 112.983C8.18936 113.413 7.87891 114.066 7.87891 114.941C7.87891 115.833 8.19732 116.589 8.83415 117.21C9.47097 117.847 10.3705 118.165 11.5327 118.165L18.291 118.165Z" fill="#C0C0C0"/>
<path d="M18.5781 106.379C18.5781 106.792 18.5224 107.175 18.411 107.525C18.2995 107.891 18.1483 108.178 17.9572 108.385L16.0229 107.453C16.2457 107.087 16.3572 106.681 16.3572 106.235C16.3572 105.328 15.9831 104.587 15.2348 104.014C14.4865 103.457 13.4198 103.178 12.0347 103.178L5.89733 103.178L5.89733 100.719L18.2916 100.719L18.2916 102.892C17.5274 102.924 16.8587 102.972 16.2856 103.035C17.0497 103.401 17.6229 103.863 18.005 104.42C18.3871 104.993 18.5781 105.646 18.5781 106.379Z" fill="#C0C0C0"/>
<path d="M6.39818 98.8603C5.88871 98.1598 5.63399 97.2284 5.63399 96.0662C5.63399 94.8881 5.96036 93.9249 6.6131 93.1766C7.26585 92.4443 8.42806 92.0781 10.0997 92.0781L16.1894 92.0781L16.1894 89.9766L18.2909 89.9766L18.2909 92.0781L21.873 92.0781L21.873 94.5139L18.2909 94.5139L18.2909 98.1677L16.1894 98.1677L16.1894 94.5139L10.4341 94.5139C8.71463 94.5139 7.85492 95.1508 7.85492 96.4244C7.85492 96.9976 8.00616 97.5309 8.30865 98.0244L6.39818 98.8603Z" fill="#C0C0C0"/>
<path d="M13.9924 83.4468L18.291 86.5036L18.291 89.2499L12.1297 84.7364L5.89679 89.2499L5.89679 86.3364L10.1954 83.3274L5.89679 80.2706L5.89679 77.4766L12.0342 82.0139L18.291 77.4766L18.291 80.4378L13.9924 83.4468Z" fill="#C0C0C0"/>
<path d="M18.5781 71.3144C18.5781 72.397 18.3234 73.3443 17.8139 74.1563C17.3204 74.9682 16.6358 75.5971 15.7602 76.0429C14.9005 76.4886 13.9293 76.7115 12.8467 76.7115C12.4805 76.7115 12.0427 76.6717 11.5332 76.5921L11.5332 67.8995C10.2914 67.995 9.35211 68.3771 8.71528 69.0457C8.09438 69.7144 7.78392 70.5502 7.78392 71.5532C7.78392 72.8587 8.32523 73.806 9.40783 74.3951L8.33319 76.2339C7.47347 75.9155 6.8048 75.3105 6.32718 74.419C5.86549 73.5274 5.63464 72.5324 5.63464 71.4338C5.63464 70.3035 5.88141 69.2766 6.37495 68.3532C6.88441 67.4298 7.63268 66.6895 8.61976 66.1323C9.60684 65.591 10.785 65.3203 12.1541 65.3203C13.4915 65.3203 14.6457 65.591 15.6169 66.1323C16.588 66.6895 17.3204 67.4218 17.8139 68.3293C18.3234 69.2527 18.5781 70.2478 18.5781 71.3144ZM16.4288 71.2189C16.4288 70.407 16.1661 69.6985 15.6408 69.0935C15.1313 68.5044 14.383 68.1303 13.396 67.9711L13.396 74.1324C14.3512 74.0687 15.0915 73.7742 15.6169 73.2488C16.1582 72.7234 16.4288 72.0468 16.4288 71.2189Z" fill="#C0C0C0"/>
<path d="M6.39818 57.7431C5.88871 57.0426 5.63399 56.1112 5.63399 54.949C5.63399 53.7709 5.96036 52.8077 6.6131 52.0594C7.26585 51.3271 8.42806 50.9609 10.0997 50.9609L16.1894 50.9609L16.1894 48.8594L18.2909 48.8594L18.2909 50.9609L21.873 50.9609L21.873 53.3968L18.2909 53.3968L18.2909 57.0506L16.1894 57.0506L16.1894 53.3968L10.4341 53.3968C8.71463 53.3968 7.85492 54.0336 7.85492 55.3072C7.85492 55.8804 8.00616 56.4137 8.30865 56.9073L6.39818 57.7431Z" fill="#C0C0C0"/>
<path d="M18.5777 42.7273C18.5777 44.0488 18.1319 45.1075 17.2404 45.9035C16.3647 46.7155 15.107 47.1214 13.4672 47.1214L5.89689 47.1214L5.89689 44.6617L12.7268 44.6617C13.8731 44.6617 14.7567 44.4468 15.3776 44.0169C15.9985 43.5871 16.309 42.9343 16.309 42.0587C16.309 41.1671 15.9906 40.4029 15.3538 39.7661C14.7329 39.1452 13.8413 38.8347 12.6791 38.8347L5.89689 38.8347L5.89689 36.375L24.0703 36.375L24.0703 38.8347L16.5 38.8347C17.1846 39.2487 17.7021 39.79 18.0523 40.4586C18.4026 41.1432 18.5777 41.8995 18.5777 42.7273Z" fill="#C0C0C0"/>
<path d="M18.2916 32.9044L6.85257 32.9044C4.41671 32.9044 2.68136 32.3074 1.64651 31.1134C0.595752 29.9352 0.0703673 28.5183 0.0703674 26.8626C0.0703674 25.5889 0.34102 24.4585 0.882323 23.4715C1.42362 22.5003 2.17986 21.8316 3.15101 21.4655L4.27342 23.3998C2.96793 24.0207 2.31518 25.175 2.31518 26.8626C2.31518 28.0248 2.67339 28.9163 3.38982 29.5372C4.09033 30.1581 5.28438 30.4686 6.97197 30.4686L7.8078 30.5402C7.07545 30.0945 6.52619 29.5213 6.16002 28.8208C5.80976 28.1362 5.63464 27.3879 5.63464 26.576C5.63464 25.6048 5.88937 24.6894 6.39883 23.8297C6.92421 22.9859 7.67248 22.3013 8.64364 21.7759C9.63072 21.2664 10.785 21.0117 12.1064 21.0117C13.4437 21.0117 14.598 21.2664 15.5691 21.7759C16.5562 22.3013 17.3045 22.9859 17.8139 23.8297C18.3234 24.6894 18.5781 25.6048 18.5781 26.576C18.5781 27.3879 18.3871 28.1521 18.005 28.8686C17.6229 29.585 17.0497 30.1581 16.2856 30.588C17.2089 30.6835 17.8776 30.7392 18.2916 30.7552L18.2916 32.9044ZM7.83169 26.9342C7.83169 27.9054 8.18194 28.7332 8.88245 29.4178C9.58296 30.1183 10.6576 30.4686 12.1064 30.4686C13.5392 30.4686 14.598 30.1183 15.2825 29.4178C15.9671 28.7332 16.3094 27.9054 16.3094 26.9342C16.3094 25.9153 15.9433 25.0954 15.2109 24.4745C14.4786 23.8695 13.4437 23.567 12.1064 23.567C10.7531 23.567 9.70236 23.8695 8.95409 24.4745C8.20582 25.0954 7.83169 25.9153 7.83169 26.9342Z" fill="#C0C0C0"/>
<path d="M20.2975 16.9776C20.2975 16.5637 20.4567 16.2054 20.7751 15.903C21.0935 15.6005 21.4676 15.4492 21.8975 15.4492C22.3273 15.4492 22.6935 15.6005 22.996 15.903C23.3144 16.2054 23.4736 16.5637 23.4736 16.9776C23.4736 17.4234 23.3144 17.7975 22.996 18.1C22.6935 18.4025 22.3273 18.5537 21.8975 18.5537C21.4676 18.5537 21.0935 18.3945 20.7751 18.0761C20.4567 17.7736 20.2975 17.4075 20.2975 16.9776ZM5.89723 18.2194L5.89723 15.7597L18.2915 15.7597L18.2915 18.2194L5.89723 18.2194Z" fill="#C0C0C0"/>
<path d="M5.89803 14.0076L5.89803 10.903L12.7758 6.10297L12.7758 5.91192L12.7758 2.90292L5.89803 2.90292L5.89803 0.347655L23.3789 0.347656L23.3789 5.9358C23.3789 7.17762 23.156 8.27614 22.7102 9.23138C22.2645 10.2025 21.6356 10.9508 20.8236 11.4762C20.0276 12.0175 19.1042 12.2881 18.0534 12.2881C16.9231 12.2881 15.936 11.9697 15.0922 11.3329C14.2484 10.712 13.6355 9.85228 13.2534 8.75376L5.89803 14.0076ZM21.158 2.90292L14.9967 2.90292L14.9967 5.62535C14.9967 6.86716 15.2673 7.83832 15.8086 8.53883C16.3499 9.23934 17.0982 9.58959 18.0534 9.58959C19.0087 9.58959 19.7649 9.23934 20.3221 8.53883C20.8794 7.83832 21.158 6.86716 21.158 5.62535L21.158 2.90292Z" fill="#C0C0C0"/>
</svg>
