<svg width="25" height="253" viewBox="0 0 25 253" fill="none" xmlns="http://www.w3.org/2000/svg">
<path d="M24.0283 249.147C22.8927 250.367 22.0029 251.274 21.3588 251.867L19.9351 250.52C21.0707 249.435 21.9775 248.537 22.6554 247.825L24.0283 249.147ZM6.76561 252.859C5.69781 252.74 4.71476 252.604 3.81646 252.452C2.57917 252.232 1.73171 251.927 1.27409 251.537C0.816459 251.147 0.587645 250.621 0.587645 249.96C0.587645 249.384 0.799509 248.859 1.22324 248.384C1.64697 247.91 2.33341 247.477 3.28256 247.088C3.41815 247.037 3.54527 246.986 3.66391 246.935C3.79951 246.884 3.91815 246.842 4.01985 246.808C2.78256 245.842 1.57917 244.698 0.40968 243.376L2.11307 241.672C3.63849 243.554 5.13849 245.037 6.61307 246.121C9.52832 245.494 13.2487 245.079 17.7741 244.876L17.7741 237.02L19.9351 237.02L19.9351 244.825C21.0029 244.791 22.2826 244.774 23.7741 244.774L23.7995 246.96L21.1809 246.986L19.9351 247.011L19.9351 252.63L17.7741 252.63L17.7741 247.037C14.3334 247.138 11.5029 247.376 9.28256 247.749C10.9775 248.579 13.2232 249.359 16.0198 250.088L15.4097 252.096C11.7995 251.13 8.75713 249.884 6.28256 248.359C5.60459 248.562 5.06222 248.74 4.65544 248.893C4.16392 249.079 3.81646 249.249 3.61307 249.401C3.42663 249.571 3.33341 249.749 3.33341 249.935C3.33341 250.104 3.469 250.24 3.74019 250.342C4.01137 250.46 4.47747 250.571 5.13849 250.672L7.37578 250.952L6.76561 252.859ZM6.0029 236.943C5.9351 236.757 5.63849 235.833 5.11307 234.172C4.45205 232.003 3.99442 230.571 3.74019 229.876L6.07917 229.367C6.16392 229.825 6.45205 230.833 6.94358 232.393L15.2063 232.393L15.2063 229.901L17.469 229.901L17.469 232.393L23.3673 232.393L23.3673 234.63L17.469 234.63L17.469 236.74L15.2063 236.74L15.2063 234.63L7.60459 234.63L8.34188 236.943L6.0029 236.943ZM7.98595 237.554L15.4605 237.554L15.4605 243.681L7.98595 243.681L7.98595 237.554ZM10.0453 239.435L10.0453 241.799L13.4266 241.799L13.4266 239.435L10.0453 239.435ZM4.45205 244.088C4.38426 243.901 3.89273 242.045 2.97748 238.52L2.34188 236.155L4.63002 235.672C4.88425 236.74 5.21476 238.138 5.62154 239.867C6.04527 241.613 6.39273 243.02 6.66392 244.088L4.45205 244.088Z" fill="#A3A3A3"/>
<path d="M20.3671 208.394L3.68917 208.394L3.68917 227.055L1.35019 227.055L1.35019 206.004L22.6553 206.004L22.6553 226.572L20.3671 226.572L20.3671 208.394ZM6.91799 209.589C8.29087 211.656 10.0366 213.784 12.1553 215.97C14.4773 213.563 16.24 211.656 17.4434 210.25L19.1214 211.851C17.7146 213.462 15.9519 215.377 13.8332 217.597C15.6129 219.275 17.4773 220.801 19.4265 222.173L18.0027 224.131C16.0705 222.69 14.1383 221.08 12.2061 219.301C10.3926 221.182 8.59595 223.012 6.81629 224.792L4.98578 222.987C6.44341 221.699 8.28239 219.928 10.5027 217.673C8.23155 215.402 6.35866 213.216 4.88409 211.114L6.91799 209.589Z" fill="#A3A3A3"/>
<path d="M21.3584 189.706C20.9177 188.588 20.5024 187.41 20.1126 186.172C19.7228 184.935 19.4262 183.816 19.2228 182.816L14.7736 182.816L14.7736 189.35L12.3584 189.35L12.3584 182.816L5.97702 182.816L6.68889 185.003C7.09567 186.291 7.57025 187.749 8.11262 189.376L5.49398 189.528C4.74821 187.003 4.0533 184.749 3.40923 182.766C3.07024 181.749 2.84143 181.088 2.72279 180.783L4.90923 179.766C5.11262 180.02 5.30754 180.198 5.49398 180.3C5.69737 180.401 5.90923 180.452 6.12957 180.452L21.1804 180.452C21.3838 181.588 21.7228 182.977 22.1974 184.622C22.6889 186.266 23.1635 187.706 23.6211 188.944L21.3584 189.706ZM21.8669 190.927L21.8669 200.994L7.0194 200.994C5.78211 200.994 4.9177 200.774 4.42618 200.333C3.93465 199.91 3.68889 199.249 3.68889 198.35C3.68889 197.503 3.73126 196.545 3.81601 195.477L6.20584 195.02C6.07025 195.884 6.00245 196.689 6.00245 197.435C6.00245 197.91 6.14652 198.223 6.43465 198.376C6.72279 198.545 7.23126 198.63 7.96008 198.63L19.477 198.63L19.477 193.342L0.485501 193.342L0.485501 190.927L21.8669 190.927Z" fill="#A3A3A3"/>
<path d="M11.4185 163.011C11.4355 163.028 11.3677 162.799 11.2151 162.324L10.3761 159.731L3.66428 159.731C2.83377 159.731 2.21513 159.63 1.80835 159.426C1.40157 159.24 1.13038 158.918 0.99479 158.46C0.842247 158.002 0.765977 157.308 0.765977 156.375C0.765977 155.765 0.808349 155.104 0.893094 154.392L3.30835 153.884C3.2914 154.002 3.2575 154.274 3.20665 154.697C3.1558 155.138 3.13038 155.536 3.13038 155.892C3.13038 156.485 3.21513 156.867 3.38462 157.036C3.57106 157.223 3.96089 157.316 4.55411 157.316L9.61343 157.316C9.07106 155.655 8.66428 154.426 8.39309 153.63L10.7829 153.121C10.9863 153.918 11.3761 155.316 11.9524 157.316L16.9355 157.316L16.9355 153.655L19.1728 153.655L19.1728 157.316L23.749 157.316L23.749 159.731L19.1728 159.731L19.1728 162.782L16.9355 162.782L16.9355 159.731L12.6897 159.731L12.8422 160.24C13.4016 161.884 13.6897 162.723 13.7067 162.757L11.4185 163.011ZM22.0202 176.613L19.6812 176.613L19.6812 172.291L3.84225 172.291C2.63886 172.291 1.80835 172.045 1.35072 171.553C0.876143 171.062 0.630382 170.214 0.613433 169.011C0.596484 168.13 0.630383 167.07 0.715128 165.833L3.13038 165.324C2.99479 166.46 2.92699 167.469 2.92699 168.35C2.92699 168.909 3.03716 169.299 3.2575 169.519C3.49479 169.74 3.89309 169.85 4.45242 169.85L19.6812 169.85L19.6812 163.57L22.0202 163.57L22.0202 176.613Z" fill="#A3A3A3"/>
<path d="M22.3496 151.063L20.0615 151.063L20.0615 147.86L4.45131 147.86C3.45131 147.86 2.69707 147.75 2.18859 147.529C1.66317 147.326 1.29029 146.945 1.06995 146.385C0.849612 145.843 0.739443 145.029 0.739443 143.945C0.739443 142.656 0.781815 141.546 0.86656 140.614L3.18012 140.156C3.04453 141.411 2.97673 142.589 2.97673 143.69C2.97673 144.419 3.1208 144.902 3.40893 145.139C3.69707 145.394 4.26486 145.521 5.11232 145.521L20.0615 145.521L20.0615 128.055L22.3496 128.055L22.3496 151.063ZM16.6293 130.724L16.6293 141.351L6.28181 141.351L6.28181 130.724L16.6293 130.724ZM8.5191 132.987L8.5191 139.063L14.3666 139.063L14.3666 132.987L8.5191 132.987Z" fill="#A3A3A3"/>
<path d="M0.638175 124.243C1.29919 123.107 2.1297 121.616 3.1297 119.768C4.1297 117.938 4.98563 116.345 5.6975 114.989C4.57885 114.006 3.61275 112.624 2.79919 110.845C1.98563 109.082 1.1636 106.667 0.333091 103.599L2.74835 102.734C3.37546 105.124 3.96021 107.039 4.50258 108.48C5.04496 109.938 5.65512 111.107 6.33309 111.989C7.02801 112.887 7.86699 113.573 8.85004 114.048L8.85004 102.861L11.1128 102.861L11.1128 114.785C12.3839 115.056 14.1128 115.234 16.2992 115.319C17.2992 115.353 18.4263 115.378 19.6805 115.395C20.9348 115.429 22.0195 115.455 22.9348 115.472L23.5195 115.472L23.5195 117.912L22.9094 117.912C21.9602 117.895 20.8246 117.87 19.5026 117.836C18.1975 117.819 17.0195 117.794 15.9687 117.76C13.9517 117.675 12.3331 117.523 11.1128 117.302L11.1128 125.311L8.85004 125.311L8.85004 116.743C8.51106 116.641 8.10428 116.48 7.6297 116.26L6.58733 118.319C5.1975 121.082 3.98563 123.446 2.95173 125.412L0.638175 124.243ZM16.5789 112.421C17.0873 111.777 17.7653 110.794 18.6128 109.472C19.4772 108.15 20.2229 106.98 20.85 105.963L22.8331 107.184C22.2738 108.167 21.5873 109.294 20.7738 110.565C19.9602 111.836 19.2483 112.895 18.6382 113.743L16.5789 112.421ZM11.9517 110.565C12.528 109.768 13.2399 108.7 14.0873 107.361C14.9517 106.023 15.6297 104.912 16.1212 104.031L18.1551 105.226C17.528 106.328 16.8246 107.506 16.045 108.76C15.2653 110.014 14.5789 111.056 13.9856 111.887L11.9517 110.565Z" fill="#A3A3A3"/>
<path d="M3.91747 96.1985L10.731 96.1985L10.731 98.5883L0.510689 98.5883L0.510689 96.1985L1.62934 96.1985L1.62934 78.7578L10.6802 78.7578L10.6802 81.1731L3.91747 81.1731L3.91747 87.4527L12.5615 87.4527L12.5615 79.4951L21.5361 79.4951L21.5361 81.8595L14.9005 81.8595L14.9005 87.4527L23.7988 87.4527L23.7988 89.8426L14.9005 89.8426L14.9005 95.4612L21.5361 95.4612L21.5361 97.8256L12.5615 97.8256L12.5615 89.8426L3.91747 89.8426L3.91747 96.1985Z" fill="#A3A3A3"/>
<path d="M13.9604 68.5598C13.0452 70.1192 12.257 72.2632 11.596 74.992L9.38415 74.1785C9.82483 72.5683 10.2994 71.1531 10.8079 69.9327C11.3164 68.7293 11.8926 67.6446 12.5367 66.6785C11.2316 64.7293 10.1384 62.2717 9.25703 59.3056L11.4181 58.4158C12.1299 61.0429 12.9774 63.2039 13.9604 64.8988C15.1977 63.5768 16.8503 62.3565 18.9181 61.2378L18.9181 59.687L21.1045 59.687L21.1045 65.7632C22.0028 65.3565 22.7994 64.9582 23.4943 64.5683L24.1045 66.8565C23.7486 67.0598 23.257 67.3056 22.6299 67.5937C22.0197 67.8988 21.5113 68.1361 21.1045 68.3056L21.1045 74.1022L18.9181 74.1022L18.9181 72.2971C16.9858 71.3649 15.3333 70.1192 13.9604 68.5598ZM12.4096 59.3819C11.9858 58.3649 11.6553 57.5598 11.4181 56.9666L3.63839 56.9666C2.85873 56.9666 2.27398 56.8734 1.88415 56.687C1.49432 56.5005 1.22314 56.17 1.07059 55.6954C0.918053 55.2209 0.84178 54.526 0.84178 53.6107C0.84178 53.17 0.867204 52.7039 0.918052 52.2124L3.15534 51.7802C3.07059 52.2209 3.02822 52.7548 3.02822 53.3819C3.02822 53.9073 3.11297 54.2548 3.28246 54.4243C3.45195 54.5937 3.81636 54.6785 4.37568 54.6785L10.5028 54.6785C10.0621 53.5937 9.68076 52.6022 9.35873 51.7039L11.7486 51.0937C11.935 51.7039 12.3503 52.8988 12.9943 54.6785L17.0621 54.6785L17.0621 51.7039L19.3503 51.7039L19.3503 54.6785L23.6977 54.6785L23.6977 56.9666L19.3503 56.9666L19.3503 59.3056L17.0621 59.3056L17.0621 56.9666L13.8842 56.9666L14.7486 59.1785L12.4096 59.3819ZM18.9181 63.7293C17.4096 64.6107 16.1808 65.6107 15.2316 66.7293C16.2825 68.0005 17.5113 69.0344 18.9181 69.831L18.9181 63.7293ZM10.2486 62.4073L10.2486 64.7717L8.97737 64.7463C7.07907 64.7463 5.42653 64.3988 4.01975 63.7039C2.62992 63.0259 1.32483 61.7802 0.104492 59.9666L1.80788 58.2378C2.5367 59.3565 3.25703 60.2124 3.9689 60.8056C4.69771 61.4158 5.45195 61.831 6.23161 62.0514C7.01127 62.2887 7.90958 62.4073 8.92653 62.4073L10.2486 62.4073ZM0.562118 71.1022L0.562118 68.7887L10.1723 68.7887L10.1723 71.1022L0.562118 71.1022Z" fill="#A3A3A3"/>
<path d="M18.0785 49.1398L18.0785 37.1907C16.4345 36.428 14.8243 35.4619 13.248 34.2924L13.248 47.0042L0.637844 47.0042L0.637844 44.589L2.29039 44.589L2.29039 33.6568L0.637845 33.6568L0.637845 31.2669L9.68869 31.2669C8.34971 29.9788 7.0531 28.5636 5.79886 27.0212L8.34123 25.75C10.9853 29.4958 14.2311 32.3347 18.0785 34.2669L18.0785 26.8432L20.4429 26.8432L20.4429 35.3093C21.3921 35.6822 22.5023 36.0381 23.7734 36.3771L23.3412 39.0975C22.1887 38.7924 21.2226 38.4873 20.4429 38.1822L20.4429 49.1398L18.0785 49.1398ZM4.62937 33.6568L4.62937 44.589L10.8073 44.589L10.8073 33.6568L4.62937 33.6568Z" fill="#A3A3A3"/>
<path d="M23.0372 8.38546C21.122 7.77529 19.3593 7.09732 17.7491 6.35156L0.435532 6.35156L0.435532 3.98715L13.3254 3.98715C12.0033 3.15665 10.8338 2.31766 9.81689 1.47021L12.4355 0.351562C13.8254 1.41936 15.5372 2.47021 17.5711 3.5041C19.622 4.55495 21.6643 5.40241 23.6982 6.04648L23.0372 8.38546ZM8.06265 17.538C6.1474 19.216 4.27451 21.4533 2.44401 24.2499L0.257564 22.7753C2.20672 19.9617 4.16434 17.6736 6.13045 15.9109C4.16434 14.0973 2.21519 11.7414 0.282989 8.84309L2.49485 7.26682C4.32536 10.1651 6.19824 12.5126 8.1135 14.3092C9.74062 13.1227 11.5033 12.1566 13.4016 11.4109C15.2999 10.6821 17.444 10.1143 19.8338 9.70749L19.8338 8.89393L22.1728 8.89393L22.1728 22.4702L19.8847 22.4702C17.444 21.9617 15.2745 21.3092 13.3762 20.5126C11.4779 19.7329 9.70672 18.7414 8.06265 17.538ZM19.8338 12.1227C17.8508 12.5126 16.0711 13.0126 14.4949 13.6227C12.9186 14.2329 11.4525 15.0041 10.0965 15.9363C11.4694 16.9363 12.944 17.7583 14.5203 18.4024C16.1135 19.0465 17.8847 19.555 19.8338 19.9278L19.8338 12.1227Z" fill="#A3A3A3"/>
</svg>
