<svg xmlns="http://www.w3.org/2000/svg" viewBox="0 0 16 16"><g style="opacity:0.6"><path d="M1.5,14.5h12a1,1,0,0,0,1-1V3.5l-3-3H1.5a1,1,0,0,0-1,1v12A1,1,0,0,0,1.5,14.5Z" style="fill:none;stroke:#949494;stroke-linecap:round;stroke-linejoin:round"/><path d="M10.5.5v2a1,1,0,0,1-1,1h-4a1,1,0,0,1-1-1V.5" style="fill:none;stroke:#949494;stroke-linecap:round;stroke-linejoin:round"/><path d="M3.5,14.5v-4a1,1,0,0,1,1-1h6a1,1,0,0,1,1,1v4" style="fill:none;stroke:#949494;stroke-linecap:round;stroke-linejoin:round"/></g></svg>