<svg id="图层_1" data-name="图层 1" xmlns="http://www.w3.org/2000/svg" viewBox="0 0 16 16">
    <defs><style>.cls-1{fill:none;}.cls-2{fill:#2b3436;}</style></defs><title>Slice 41</title>
    <path fill="#2b3436" d="M13.74,5.85,10.15,2.26A.85.85,0,0,0,9.53,2H2.89A.89.89,0,0,0,2,2.89V13.11a.89.89,0,0,0,.89.89H13.11a.89.89,0,0,0,.89-.89V6.47A.85.85,0,0,0,13.74,5.85Zm-8.85-3H7.56V4.44H4.89V2.89Zm6.22,10.22H4.89v-2h6.22Zm2,0H12V10.67a.45.45,0,0,0-.44-.45H4.44a.45.45,0,0,0-.44.45v2.44H2.89V2.89H4v2a.44.44,0,0,0,.44.44H8a.43.43,0,0,0,.44-.44v-2H9.53l3.58,3.58v6.64Z"/>
</svg>