<svg width="39" height="23" viewBox="0 0 39 23" fill="none" xmlns="http://www.w3.org/2000/svg">
<path fill-rule="evenodd" clip-rule="evenodd" d="M28.9658 17.834L28.9658 4.24432C28.9658 3.80249 28.6076 3.44432 28.1658 3.44432L15.6069 3.44432C15.4073 3.44432 15.2149 3.51894 15.0675 3.65353L11.1051 7.27137C10.9391 7.42294 10.8445 7.63736 10.8445 7.86216L10.8445 17.834C10.8445 18.2758 11.2027 18.634 11.6445 18.634L28.1658 18.634C28.6076 18.634 28.9658 18.2758 28.9658 17.834ZM30.1658 4.24432L30.1658 17.834C30.1658 18.9386 29.2704 19.834 28.1658 19.834L11.6445 19.834C10.54 19.834 9.64453 18.9386 9.64453 17.834L9.64453 7.86216C9.64453 7.30017 9.88097 6.76412 10.296 6.38519L14.2584 2.76735C14.6269 2.43087 15.1079 2.24432 15.6069 2.24432L28.1658 2.24432C29.2704 2.24432 30.1658 3.13975 30.1658 4.24432Z" fill="#323A3D"/>
<path fill-rule="evenodd" clip-rule="evenodd" d="M13.043 14.6155L13.043 16.5801L16.8299 16.5801L16.8299 14.6156L13.043 14.6155ZM12.043 16.5801C12.043 17.1324 12.4907 17.5801 13.043 17.5801L16.8299 17.5801C17.3821 17.5801 17.8299 17.1324 17.8299 16.5801L17.8299 14.6156C17.8299 14.0633 17.3821 13.6156 16.8299 13.6156L13.043 13.6156C12.4907 13.6156 12.043 14.0633 12.043 14.6155L12.043 16.5801Z" fill="#323A3D"/>
<path fill-rule="evenodd" clip-rule="evenodd" d="M20.3133 16.3801L26.2305 16.3801L26.2305 5.70058L20.3133 5.70058L20.3133 16.3801ZM19.1133 16.5801C19.1133 17.1324 19.561 17.5801 20.1133 17.5801L26.4305 17.5801C26.9828 17.5801 27.4305 17.1324 27.4305 16.5801L27.4305 5.50058C27.4305 4.9483 26.9828 4.50058 26.4305 4.50058L20.1133 4.50058C19.561 4.50058 19.1133 4.9483 19.1133 5.50058L19.1133 16.5801Z" fill="#323A3D"/>
<path fill-rule="evenodd" clip-rule="evenodd" d="M13.043 10.0599L13.043 12.0684L16.8299 12.0684L16.8299 10.0599L13.043 10.0599ZM12.043 12.0684C12.043 12.6206 12.4907 13.0684 13.043 13.0684L16.8299 13.0684C17.3821 13.0684 17.8299 12.6206 17.8299 12.0684L17.8299 10.0599C17.8299 9.50764 17.3821 9.05993 16.8299 9.05993L13.043 9.05993C12.4907 9.05993 12.043 9.50764 12.043 10.0599L12.043 12.0684Z" fill="#323A3D"/>
<path fill-rule="evenodd" clip-rule="evenodd" d="M15.3945 5.58994L15.3945 7.41602L16.8319 7.41602L16.8319 5.58994L15.3945 5.58994ZM14.3945 7.41602C14.3945 7.9683 14.8422 8.41602 15.3945 8.41602L16.8319 8.41602C17.3842 8.41602 17.8319 7.9683 17.8319 7.41602L17.8319 5.58994C17.8319 5.03765 17.3842 4.58994 16.8319 4.58994L15.3945 4.58994C14.8422 4.58994 14.3945 5.03765 14.3945 5.58994L14.3945 7.41602Z" fill="#323A3D"/>
</svg>
