<svg xmlns="http://www.w3.org/2000/svg" width="38" height="22" viewBox="0 0 38 22"><path d="M18.5,18.5h-8a1,1,0,0,1-1-1V5.5l3-3h16a1,1,0,0,1,1,1v4" style="fill:none;stroke:#949494;stroke-linecap:round;stroke-linejoin:round"/><line x1="11.5" y1="16.5" x2="13.5" y2="16.5" style="fill:none;stroke:#949494;stroke-linecap:round;stroke-linejoin:round"/><line x1="11.5" y1="14.5" x2="13.5" y2="14.5" style="fill:none;stroke:#949494;stroke-linecap:round;stroke-linejoin:round"/><line x1="11.5" y1="12.5" x2="13.5" y2="12.5" style="fill:none;stroke:#949494;stroke-linecap:round;stroke-linejoin:round"/><line x1="11.5" y1="10.5" x2="13.5" y2="10.5" style="fill:none;stroke:#949494;stroke-linecap:round;stroke-linejoin:round"/><line x1="11.5" y1="8.5" x2="13.5" y2="8.5" style="fill:none;stroke:#949494;stroke-linecap:round;stroke-linejoin:round"/><line x1="11.5" y1="6.5" x2="13.5" y2="6.5" style="fill:none;stroke:#949494;stroke-linecap:round;stroke-linejoin:round"/><line x1="12.5" y1="4.5" x2="14.5" y2="4.5" style="fill:none;stroke:#949494;stroke-linecap:round;stroke-linejoin:round"/><path d="M17.5,16.5a1,1,0,0,1-1-1V5.5a1,1,0,0,1,1-1h9a1,1,0,0,1,1,1v1" style="fill:none;stroke:#949494;stroke-linecap:round;stroke-linejoin:round"/><circle cx="24.5" cy="13.5" r="5" style="fill:none;stroke:#949494;stroke-linecap:round;stroke-linejoin:round"/><line x1="22.5" y1="11.5" x2="26.5" y2="15.5" style="fill:none;stroke:#949494;stroke-linecap:round;stroke-linejoin:round"/><line x1="26.5" y1="11.5" x2="22.5" y2="15.5" style="fill:none;stroke:#949494;stroke-linecap:round;stroke-linejoin:round"/></svg>