<svg width="39" height="23" viewBox="0 0 39 23" fill="none" xmlns="http://www.w3.org/2000/svg">
<path fill-rule="evenodd" clip-rule="evenodd" d="M28.9668 17.8338V4.24414C28.9668 3.80231 28.6086 3.44414 28.1668 3.44414H15.6079C15.4083 3.44414 15.2159 3.51876 15.0685 3.65335L11.1061 7.27119C10.9401 7.42276 10.8455 7.63718 10.8455 7.86198V17.8338C10.8455 18.2756 11.2037 18.6338 11.6455 18.6338H28.1668C28.6086 18.6338 28.9668 18.2756 28.9668 17.8338ZM30.1668 4.24414V17.8338C30.1668 18.9384 29.2714 19.8338 28.1668 19.8338H11.6455C10.5409 19.8338 9.64551 18.9384 9.64551 17.8338V7.86198C9.64551 7.29999 9.88195 6.76394 10.297 6.38501L14.2594 2.76717C14.6279 2.43069 15.1089 2.24414 15.6079 2.24414H28.1668C29.2714 2.24414 30.1668 3.13957 30.1668 4.24414Z" fill="#B3B3B5"/>
<path fill-rule="evenodd" clip-rule="evenodd" d="M13.0459 14.6155V16.58H16.8328V14.6155H13.0459ZM12.0459 16.58C12.0459 17.1323 12.4936 17.58 13.0459 17.58H16.8328C17.385 17.58 17.8328 17.1323 17.8328 16.58V14.6155C17.8328 14.0632 17.385 13.6155 16.8328 13.6155H13.0459C12.4936 13.6155 12.0459 14.0632 12.0459 14.6155V16.58Z" fill="#B3B3B5"/>
<path fill-rule="evenodd" clip-rule="evenodd" d="M20.3138 16.3799H26.231V5.70049H20.3138V16.3799ZM19.1138 16.5799C19.1138 17.1322 19.5615 17.5799 20.1138 17.5799H26.431C26.9833 17.5799 27.431 17.1322 27.431 16.5799V5.50049C27.431 4.9482 26.9833 4.50049 26.431 4.50049H20.1138C19.5615 4.50049 19.1138 4.9482 19.1138 5.50049V16.5799Z" fill="#B3B3B5"/>
<path fill-rule="evenodd" clip-rule="evenodd" d="M13.0459 10.0596V12.068H16.8328V10.0596H13.0459ZM12.0459 12.068C12.0459 12.6203 12.4936 13.068 13.0459 13.068H16.8328C17.385 13.068 17.8328 12.6203 17.8328 12.068V10.0596C17.8328 9.50728 17.385 9.05957 16.8328 9.05957H13.0459C12.4936 9.05957 12.0459 9.50728 12.0459 10.0596V12.068Z" fill="#B3B3B5"/>
<path fill-rule="evenodd" clip-rule="evenodd" d="M15.3955 5.59033V7.41641H16.833V5.59033H15.3955ZM14.3955 7.41641C14.3955 7.96869 14.8433 8.41641 15.3955 8.41641H16.833C17.3852 8.41641 17.833 7.96869 17.833 7.41641V5.59033C17.833 5.03805 17.3852 4.59033 16.833 4.59033H15.3955C14.8433 4.59033 14.3955 5.03805 14.3955 5.59033V7.41641Z" fill="#B3B3B5"/>
<path d="M25 17.6152C25 15.4061 26.7909 13.6152 29 13.6152C31.2091 13.6152 33 15.4061 33 17.6152C33 19.8244 31.2091 21.6152 29 21.6152C26.7909 21.6152 25 19.8244 25 17.6152Z" fill="#eb4949"/>
<path fill-rule="evenodd" clip-rule="evenodd" d="M31.4746 16.0605C31.6699 16.2558 31.6699 16.5724 31.4746 16.7676L29.3189 18.9234C28.9282 19.3141 28.2946 19.3139 27.9042 18.9229L26.697 17.714C26.5019 17.5186 26.5021 17.202 26.6975 17.0068C26.8929 16.8117 27.2095 16.8119 27.4046 17.0073L28.6118 18.2163L30.7675 16.0605C30.9628 15.8652 31.2794 15.8652 31.4746 16.0605Z" fill="white"/>
</svg>
