<svg width="38" height="22" viewBox="0 0 38 22" fill="none" xmlns="http://www.w3.org/2000/svg">
<path fill-rule="evenodd" clip-rule="evenodd" d="M28.0605 17.7948V4.20508C28.0605 3.76326 27.7024 3.40508 27.2605 3.40508H14.7017C14.502 3.40508 14.3096 3.47971 14.1622 3.6143L10.1998 7.23213C10.0338 7.38371 9.93926 7.59813 9.93926 7.82292V17.7948C9.93926 18.2366 10.2974 18.5948 10.7393 18.5948H27.2605C27.7024 18.5948 28.0605 18.2366 28.0605 17.7948ZM29.2605 4.20508V17.7948C29.2605 18.8993 28.3651 19.7948 27.2605 19.7948H10.7393C9.63469 19.7948 8.73926 18.8993 8.73926 17.7948V7.82292C8.73926 7.26094 8.9757 6.72488 9.39072 6.34595L13.3531 2.72811C13.7216 2.39164 14.2026 2.20508 14.7017 2.20508H27.2605C28.3651 2.20508 29.2605 3.10052 29.2605 4.20508Z" fill="#54545A"/>
<path fill-rule="evenodd" clip-rule="evenodd" d="M12.1396 14.5764V16.5409H15.9265V14.5764H12.1396ZM11.1396 16.5409C11.1396 17.0932 11.5874 17.5409 12.1396 17.5409H15.9265C16.4788 17.5409 16.9265 17.0932 16.9265 16.5409V14.5764C16.9265 14.0241 16.4788 13.5764 15.9265 13.5764H12.1396C11.5874 13.5764 11.1396 14.0241 11.1396 14.5764V16.5409Z" fill="#54545A"/>
<path fill-rule="evenodd" clip-rule="evenodd" d="M19.407 16.3409H25.3243V5.66143H19.407V16.3409ZM18.207 16.5409C18.207 17.0932 18.6547 17.5409 19.207 17.5409H25.5243C26.0766 17.5409 26.5243 17.0932 26.5243 16.5409V5.46143C26.5243 4.90914 26.0766 4.46143 25.5243 4.46143H19.207C18.6547 4.46143 18.207 4.90915 18.207 5.46143V16.5409Z" fill="#54545A"/>
<path fill-rule="evenodd" clip-rule="evenodd" d="M12.1396 10.0205V12.029H15.9265V10.0205H12.1396ZM11.1396 12.029C11.1396 12.5812 11.5874 13.029 12.1396 13.029H15.9265C16.4788 13.029 16.9265 12.5812 16.9265 12.029V10.0205C16.9265 9.46823 16.4788 9.02051 15.9265 9.02051H12.1396C11.5874 9.02051 11.1396 9.46823 11.1396 10.0205V12.029Z" fill="#54545A"/>
<path fill-rule="evenodd" clip-rule="evenodd" d="M14.4893 5.55127V7.37735H15.9267V5.55127H14.4893ZM13.4893 7.37735C13.4893 7.92964 13.937 8.37735 14.4893 8.37735H15.9267C16.479 8.37735 16.9267 7.92964 16.9267 7.37735V5.55127C16.9267 4.99899 16.479 4.55127 15.9267 4.55127H14.4893C13.937 4.55127 13.4893 4.99899 13.4893 5.55127V7.37735Z" fill="#54545A"/>
<path d="M24.0938 17C24.0938 14.7909 25.8846 13 28.0938 13C30.3029 13 32.0938 14.7909 32.0938 17C32.0938 19.2091 30.3029 21 28.0938 21C25.8846 21 24.0938 19.2091 24.0938 17Z" fill="#B3B3B5"/>
<path fill-rule="evenodd" clip-rule="evenodd" d="M30.1124 19.0209C29.9172 19.2162 29.6007 19.2163 29.4053 19.0211L26.0733 15.6911C25.878 15.4959 25.8779 15.1793 26.0731 14.984C26.2683 14.7886 26.5849 14.7885 26.7802 14.9837L30.1122 18.3138C30.3076 18.509 30.3077 18.8256 30.1124 19.0209Z" fill="#54545A"/>
<path fill-rule="evenodd" clip-rule="evenodd" d="M26.0753 19.0211C25.8799 18.8259 25.8798 18.5094 26.0751 18.314L29.4051 14.982C29.6003 14.7867 29.9169 14.7866 30.1122 14.9818C30.3076 15.177 30.3077 15.4936 30.1124 15.6889L26.7824 19.0209C26.5872 19.2162 26.2706 19.2163 26.0753 19.0211Z" fill="#54545A"/>
</svg>
