<svg width="38" height="22" viewBox="0 0 38 22" fill="none" xmlns="http://www.w3.org/2000/svg">
<path fill-rule="evenodd" clip-rule="evenodd" d="M28.0596 17.7949L28.0596 4.20525C28.0596 3.76343 27.7014 3.40526 27.2596 3.40526L14.7007 3.40526C14.5011 3.40526 14.3087 3.47988 14.1613 3.61447L10.1989 7.23231C10.0329 7.38388 9.93828 7.5983 9.93828 7.82309L9.93828 17.7949C9.93828 18.2368 10.2965 18.5949 10.7383 18.5949L27.2596 18.5949C27.7014 18.5949 28.0596 18.2367 28.0596 17.7949ZM29.2596 4.20525L29.2596 17.7949C29.2596 18.8995 28.3641 19.7949 27.2596 19.7949L10.7383 19.7949C9.63371 19.7949 8.73828 18.8995 8.73828 17.7949L8.73828 7.82309C8.73828 7.26111 8.97472 6.72505 9.38974 6.34612L13.3521 2.72828C13.7207 2.39181 14.2017 2.20526 14.7007 2.20526L27.2596 2.20525C28.3641 2.20525 29.2596 3.10069 29.2596 4.20525Z" fill="#6B6B6B"/>
<path fill-rule="evenodd" clip-rule="evenodd" d="M12.1367 14.5765L12.1367 16.541L15.9236 16.541L15.9236 14.5765L12.1367 14.5765ZM11.1367 16.541C11.1367 17.0933 11.5844 17.541 12.1367 17.541L15.9236 17.541C16.4759 17.541 16.9236 17.0933 16.9236 16.541L16.9236 14.5765C16.9236 14.0242 16.4759 13.5765 15.9236 13.5765L12.1367 13.5765C11.5844 13.5765 11.1367 14.0242 11.1367 14.5765L11.1367 16.541Z" fill="#6B6B6B"/>
<path fill-rule="evenodd" clip-rule="evenodd" d="M19.407 16.341L25.3243 16.341L25.3243 5.66152L19.407 5.66152L19.407 16.341ZM18.207 16.541C18.207 17.0933 18.6547 17.541 19.207 17.541L25.5243 17.541C26.0766 17.541 26.5243 17.0933 26.5243 16.541L26.5243 5.46152C26.5243 4.90923 26.0766 4.46152 25.5243 4.46152L19.207 4.46152C18.6547 4.46152 18.207 4.90924 18.207 5.46152L18.207 16.541Z" fill="#6B6B6B"/>
<path fill-rule="evenodd" clip-rule="evenodd" d="M12.1367 10.0209L12.1367 12.0293L15.9236 12.0293L15.9236 10.0209L12.1367 10.0209ZM11.1367 12.0293C11.1367 12.5816 11.5844 13.0293 12.1367 13.0293L15.9236 13.0293C16.4759 13.0293 16.9236 12.5816 16.9236 12.0293L16.9236 10.0209C16.9236 9.46858 16.4759 9.02086 15.9236 9.02086L12.1367 9.02086C11.5844 9.02086 11.1367 9.46858 11.1367 10.0209L11.1367 12.0293Z" fill="#6B6B6B"/>
<path fill-rule="evenodd" clip-rule="evenodd" d="M14.4883 5.55088L14.4883 7.37695L15.9257 7.37695L15.9257 5.55088L14.4883 5.55088ZM13.4883 7.37695C13.4883 7.92924 13.936 8.37695 14.4883 8.37695L15.9257 8.37695C16.478 8.37695 16.9257 7.92924 16.9257 7.37695L16.9257 5.55088C16.9257 4.99859 16.478 4.55088 15.9257 4.55088L14.4883 4.55088C13.936 4.55088 13.4883 4.99859 13.4883 5.55088L13.4883 7.37695Z" fill="#6B6B6B"/>
</svg>
