<svg width="39" height="23" viewBox="0 0 39 23" fill="none" xmlns="http://www.w3.org/2000/svg">
<path fill-rule="evenodd" clip-rule="evenodd" d="M28.9669 17.8339L28.9669 4.24423C28.9669 3.8024 28.6087 3.44423 28.1669 3.44423L15.608 3.44423C15.4084 3.44423 15.216 3.51885 15.0686 3.65344L11.1062 7.27128C10.9402 7.42285 10.8456 7.63727 10.8456 7.86207L10.8456 17.8339C10.8456 18.2757 11.2038 18.6339 11.6456 18.6339L28.1669 18.6339C28.6087 18.6339 28.9669 18.2757 28.9669 17.8339ZM30.1669 4.24423L30.1669 17.8339C30.1669 18.9385 29.2715 19.8339 28.1669 19.8339L11.6456 19.8339C10.541 19.8339 9.64561 18.9385 9.64561 17.8339L9.64561 7.86207C9.64561 7.30008 9.88205 6.76403 10.2971 6.3851L14.2595 2.76726C14.628 2.43078 15.109 2.24423 15.608 2.24423L28.1669 2.24423C29.2715 2.24423 30.1669 3.13966 30.1669 4.24423Z" fill="#323A3E"/>
<path fill-rule="evenodd" clip-rule="evenodd" d="M13.0459 14.6155L13.0459 16.58L16.8328 16.58L16.8328 14.6155L13.0459 14.6155ZM12.0459 16.58C12.0459 17.1323 12.4936 17.58 13.0459 17.58L16.8328 17.58C17.385 17.58 17.8328 17.1323 17.8328 16.58L17.8328 14.6155C17.8328 14.0632 17.385 13.6155 16.8328 13.6155L13.0459 13.6155C12.4936 13.6155 12.0459 14.0632 12.0459 14.6155L12.0459 16.58Z" fill="#323A3E"/>
<path fill-rule="evenodd" clip-rule="evenodd" d="M20.3138 16.38L26.231 16.38L26.231 5.70055L20.3138 5.70055L20.3138 16.38ZM19.1138 16.58C19.1138 17.1323 19.5615 17.58 20.1138 17.58L26.431 17.58C26.9833 17.58 27.431 17.1323 27.431 16.58L27.431 5.50055C27.431 4.94826 26.9833 4.50055 26.431 4.50055L20.1138 4.50055C19.5615 4.50055 19.1138 4.94826 19.1138 5.50055L19.1138 16.58Z" fill="#323A3E"/>
<path fill-rule="evenodd" clip-rule="evenodd" d="M13.0459 10.0597L13.0459 12.0681L16.8328 12.0681L16.8328 10.0597L13.0459 10.0597ZM12.0459 12.0681C12.0459 12.6204 12.4936 13.0681 13.0459 13.0681L16.8328 13.0681C17.385 13.0681 17.8328 12.6204 17.8328 12.0681L17.8328 10.0597C17.8328 9.50739 17.385 9.05968 16.8328 9.05968L13.0459 9.05968C12.4936 9.05968 12.0459 9.50739 12.0459 10.0597L12.0459 12.0681Z" fill="#323A3E"/>
<path fill-rule="evenodd" clip-rule="evenodd" d="M15.3957 5.59039L15.3957 7.41647L16.8332 7.41647L16.8332 5.59039L15.3957 5.59039ZM14.3957 7.41647C14.3957 7.96875 14.8435 8.41647 15.3957 8.41647L16.8332 8.41647C17.3854 8.41647 17.8332 7.96875 17.8332 7.41647L17.8332 5.59039C17.8332 5.03811 17.3854 4.59039 16.8332 4.59039L15.3957 4.59039C14.8435 4.59039 14.3957 5.03811 14.3957 5.59039L14.3957 7.41647Z" fill="#323A3E"/>
<path d="M25 17.6152C25 15.4061 26.7909 13.6152 29 13.6152V13.6152C31.2091 13.6152 33 15.4061 33 17.6152V17.6152C33 19.8244 31.2091 21.6152 29 21.6152V21.6152C26.7909 21.6152 25 19.8244 25 17.6152V17.6152Z" fill="#eb4949"/>
<path fill-rule="evenodd" clip-rule="evenodd" d="M31.4746 16.0605C31.6699 16.2558 31.6699 16.5724 31.4746 16.7676L29.3189 18.9234C28.9282 19.3141 28.2946 19.3139 27.9042 18.9229L26.697 17.714C26.5019 17.5186 26.5021 17.202 26.6975 17.0068C26.8929 16.8117 27.2095 16.8119 27.4046 17.0073L28.6118 18.2163L30.7675 16.0605C30.9628 15.8652 31.2794 15.8652 31.4746 16.0605Z" fill="white"/>
</svg>
