<svg width="18" height="17" xmlns="http://www.w3.org/2000/svg" fill="none">
 <defs>
  <clipPath id="clip0_6817_28946">
   <rect id="svg_1" transform="rotate(-90 -3.66168e-7 16.7539)" x="0" y="16.7539" fill="white" height="18" width="16"/>
  </clipPath>
 </defs>
 <g>
  <title>Layer 1</title>
  <g id="svg_2" clip-path="url(#clip0_6817_28946)">
   <path id="svg_3" stroke="#6B6B6B" d="m17.25,3.25391l0,10.99999c0,0.8284 -0.6716,1.5 -1.5,1.5l-13.5,0c-0.82843,0 -1.5,-0.6716 -1.5,-1.5l0,-8.07937c0,-0.42149 0.17733,-0.82353 0.4886,-1.10773l3.19877,-2.92062c0.27639,-0.25236 0.63714,-0.39227 1.0114,-0.39227l10.30123,0c0.8284,0 1.5,0.67157 1.5,1.5z"/>
   <rect id="svg_4" stroke-linejoin="round" stroke-width="0.7" stroke="#6B6B6B" transform="rotate(-90 2.64687 13.982)" rx="0.65" height="4.23491" width="2.68084" y="13.982" x="2.64687"/>
   <rect id="svg_5" stroke-linejoin="round" stroke="#6B6B6B" transform="rotate(-90 8.82422 13.832)" rx="0.5" height="6.09272" width="10.1538" y="13.832" x="8.82422"/>
   <rect id="svg_6" stroke-linejoin="round" stroke-width="0.7" stroke="#6B6B6B" transform="rotate(-90 2.64687 10.1344)" rx="0.65" height="4.23491" width="2.71828" y="10.1344" x="2.64687"/>
   <rect id="svg_7" stroke-linejoin="round" stroke-width="0.7" stroke="#6B6B6B" transform="rotate(-90 4.65078 6.16758)" rx="0.65" height="2.23134" width="2.56278" y="6.16758" x="4.65078"/>
  </g>
 </g>
</svg>