<svg width="38" height="23" viewBox="0 0 38 23" fill="none" xmlns="http://www.w3.org/2000/svg">
<path fill-rule="evenodd" clip-rule="evenodd" d="M28.0596 18.7559L28.0596 5.16619C28.0596 4.72436 27.7014 4.36619 27.2596 4.36619L14.7007 4.36619C14.5011 4.36619 14.3087 4.44081 14.1613 4.5754L10.1989 8.19324C10.0329 8.34481 9.93828 8.55924 9.93828 8.78403L9.93828 18.7559C9.93828 19.1977 10.2965 19.5559 10.7383 19.5559L27.2596 19.5559C27.7014 19.5559 28.0596 19.1977 28.0596 18.7559ZM29.2596 5.16619L29.2596 18.7559C29.2596 19.8604 28.3641 20.7559 27.2596 20.7559L10.7383 20.7559C9.63371 20.7559 8.73828 19.8604 8.73828 18.7559L8.73828 8.78403C8.73828 8.22205 8.97472 7.68599 9.38974 7.30706L13.3521 3.68922C13.7207 3.35275 14.2017 3.16619 14.7007 3.16619L27.2596 3.16619C28.3641 3.16619 29.2596 4.06162 29.2596 5.16619Z" fill="#ACACAC"/>
<path fill-rule="evenodd" clip-rule="evenodd" d="M12.1367 15.5374L12.1367 17.502L15.9236 17.502L15.9236 15.5374L12.1367 15.5374ZM11.1367 17.502C11.1367 18.0542 11.5844 18.502 12.1367 18.502L15.9236 18.502C16.4759 18.502 16.9236 18.0542 16.9236 17.502L16.9236 15.5374C16.9236 14.9851 16.4759 14.5374 15.9236 14.5374L12.1367 14.5374C11.5844 14.5374 11.1367 14.9851 11.1367 15.5374L11.1367 17.502Z" fill="#ACACAC"/>
<path fill-rule="evenodd" clip-rule="evenodd" d="M19.407 17.302L25.3243 17.302L25.3243 6.62246L19.407 6.62246L19.407 17.302ZM18.207 17.502C18.207 18.0542 18.6547 18.502 19.207 18.502L25.5243 18.502C26.0766 18.502 26.5243 18.0542 26.5243 17.502L26.5243 6.42246C26.5243 5.87017 26.0766 5.42246 25.5243 5.42246L19.207 5.42246C18.6547 5.42246 18.207 5.87017 18.207 6.42246L18.207 17.502Z" fill="#ACACAC"/>
<path fill-rule="evenodd" clip-rule="evenodd" d="M12.1367 10.9818L12.1367 12.9902L15.9236 12.9902L15.9236 10.9818L12.1367 10.9818ZM11.1367 12.9902C11.1367 13.5425 11.5844 13.9902 12.1367 13.9902L15.9236 13.9902C16.4759 13.9902 16.9236 13.5425 16.9236 12.9902L16.9236 10.9818C16.9236 10.4295 16.4759 9.9818 15.9236 9.9818L12.1367 9.9818C11.5844 9.9818 11.1367 10.4295 11.1367 10.9818L11.1367 12.9902Z" fill="#ACACAC"/>
<path fill-rule="evenodd" clip-rule="evenodd" d="M14.4883 6.51181L14.4883 8.33789L15.9257 8.33789L15.9257 6.51181L14.4883 6.51181ZM13.4883 8.33789C13.4883 8.89018 13.936 9.33789 14.4883 9.33789L15.9257 9.33789C16.478 9.33789 16.9257 8.89018 16.9257 8.33789L16.9257 6.51181C16.9257 5.95953 16.478 5.51181 15.9257 5.51181L14.4883 5.51181C13.936 5.51181 13.4883 5.95953 13.4883 6.51181L13.4883 8.33789Z" fill="#ACACAC"/>
<path d="M24.0938 17.9609C24.0938 15.7518 25.8846 13.9609 28.0938 13.9609V13.9609C30.3029 13.9609 32.0938 15.7518 32.0938 17.9609V17.9609C32.0938 20.1701 30.3029 21.9609 28.0938 21.9609V21.9609C25.8846 21.9609 24.0938 20.1701 24.0938 17.9609V17.9609Z" fill="#FF6F00"/>
<path fill-rule="evenodd" clip-rule="evenodd" d="M30.9491 17.9627C30.9492 18.2389 30.7254 18.4628 30.4493 18.4629L25.7385 18.4643C25.4623 18.4644 25.2384 18.2406 25.2383 17.9644C25.2382 17.6883 25.462 17.4644 25.7382 17.4643L30.449 17.4629C30.7251 17.4628 30.9491 17.6866 30.9491 17.9627Z" fill="white"/>
</svg>
