<svg width="38" height="22" viewBox="0 0 38 22" fill="none" xmlns="http://www.w3.org/2000/svg">
<path fill-rule="evenodd" clip-rule="evenodd" d="M28.0605 17.7949L28.0605 4.20519C28.0605 3.76337 27.7024 3.40519 27.2605 3.40519L14.7017 3.40519C14.502 3.40519 14.3096 3.47982 14.1622 3.61441L10.1998 7.23224C10.0338 7.38382 9.93926 7.59824 9.93926 7.82303L9.93926 17.7949C9.93926 18.2367 10.2974 18.5949 10.7393 18.5949L27.2605 18.5949C27.7024 18.5949 28.0605 18.2367 28.0605 17.7949ZM29.2605 4.20519L29.2605 17.7949C29.2605 18.8994 28.3651 19.7949 27.2605 19.7949L10.7393 19.7949C9.63469 19.7949 8.73926 18.8994 8.73926 17.7949L8.73926 7.82303C8.73926 7.26105 8.9757 6.72499 9.39072 6.34606L13.3531 2.72822C13.7216 2.39175 14.2026 2.20519 14.7017 2.20519L27.2605 2.20519C28.3651 2.20519 29.2605 3.10063 29.2605 4.20519Z" fill="#ACACAC"/>
<path fill-rule="evenodd" clip-rule="evenodd" d="M12.1396 14.5765L12.1396 16.541L15.9265 16.541L15.9265 14.5765L12.1396 14.5765ZM11.1396 16.541C11.1396 17.0933 11.5874 17.541 12.1396 17.541L15.9265 17.541C16.4788 17.541 16.9265 17.0933 16.9265 16.541L16.9265 14.5765C16.9265 14.0242 16.4788 13.5765 15.9265 13.5765L12.1396 13.5765C11.5874 13.5765 11.1396 14.0242 11.1396 14.5765L11.1396 16.541Z" fill="#ACACAC"/>
<path fill-rule="evenodd" clip-rule="evenodd" d="M19.407 16.341L25.3243 16.341L25.3243 5.66152L19.407 5.66152L19.407 16.341ZM18.207 16.541C18.207 17.0933 18.6547 17.541 19.207 17.541L25.5243 17.541C26.0766 17.541 26.5243 17.0933 26.5243 16.541L26.5243 5.46152C26.5243 4.90923 26.0766 4.46152 25.5243 4.46152L19.207 4.46152C18.6547 4.46152 18.207 4.90924 18.207 5.46152L18.207 16.541Z" fill="#ACACAC"/>
<path fill-rule="evenodd" clip-rule="evenodd" d="M12.1396 10.0206L12.1396 12.0291L15.9265 12.0291L15.9265 10.0206L12.1396 10.0206ZM11.1396 12.0291C11.1396 12.5813 11.5874 13.0291 12.1396 13.0291L15.9265 13.0291C16.4788 13.0291 16.9265 12.5813 16.9265 12.0291L16.9265 10.0206C16.9265 9.46834 16.4788 9.02062 15.9265 9.02062L12.1396 9.02062C11.5874 9.02062 11.1396 9.46834 11.1396 10.0206L11.1396 12.0291Z" fill="#ACACAC"/>
<path fill-rule="evenodd" clip-rule="evenodd" d="M14.4893 5.55136L14.4893 7.37744L15.9267 7.37744L15.9267 5.55136L14.4893 5.55136ZM13.4893 7.37744C13.4893 7.92973 13.937 8.37744 14.4893 8.37744L15.9267 8.37744C16.479 8.37744 16.9267 7.92973 16.9267 7.37744L16.9267 5.55136C16.9267 4.99908 16.479 4.55136 15.9267 4.55136L14.4893 4.55136C13.937 4.55136 13.4893 4.99908 13.4893 5.55136L13.4893 7.37744Z" fill="#ACACAC"/>
<path d="M24.0938 17C24.0938 14.7909 25.8846 13 28.0938 13V13C30.3029 13 32.0938 14.7909 32.0938 17V17C32.0938 19.2091 30.3029 21 28.0938 21V21C25.8846 21 24.0938 19.2091 24.0938 17V17Z" fill="#323A3D"/>
<path fill-rule="evenodd" clip-rule="evenodd" d="M30.1124 19.0209C29.9172 19.2162 29.6007 19.2163 29.4053 19.0211L26.0733 15.6911C25.878 15.4959 25.8779 15.1793 26.0731 14.984C26.2683 14.7886 26.5849 14.7885 26.7802 14.9837L30.1122 18.3138C30.3076 18.509 30.3077 18.8256 30.1124 19.0209Z" fill="white"/>
<path fill-rule="evenodd" clip-rule="evenodd" d="M26.0753 19.0211C25.8799 18.8259 25.8798 18.5094 26.0751 18.314L29.4051 14.982C29.6003 14.7867 29.9169 14.7866 30.1122 14.9818C30.3076 15.177 30.3077 15.4936 30.1124 15.6889L26.7824 19.0209C26.5872 19.2162 26.2706 19.2163 26.0753 19.0211Z" fill="white"/>
</svg>
