<svg width="39" height="22" viewBox="0 0 39 22" fill="none" xmlns="http://www.w3.org/2000/svg">
<path fill-rule="evenodd" clip-rule="evenodd" d="M28.9658 17.7949L28.9658 4.20525C28.9658 3.76343 28.6076 3.40526 28.1658 3.40526L15.6069 3.40526C15.4073 3.40526 15.2149 3.47988 15.0675 3.61447L11.1051 7.23231C10.9391 7.38388 10.8445 7.5983 10.8445 7.82309L10.8445 17.7949C10.8445 18.2368 11.2027 18.5949 11.6445 18.5949L28.1658 18.5949C28.6076 18.5949 28.9658 18.2367 28.9658 17.7949ZM30.1658 4.20525L30.1658 17.7949C30.1658 18.8995 29.2704 19.7949 28.1658 19.7949L11.6445 19.7949C10.54 19.7949 9.64453 18.8995 9.64453 17.7949L9.64453 7.82309C9.64453 7.26111 9.88097 6.72505 10.296 6.34612L14.2584 2.72828C14.6269 2.39181 15.1079 2.20526 15.6069 2.20526L28.1658 2.20525C29.2704 2.20525 30.1658 3.10069 30.1658 4.20525Z" fill="#ACACAC"/>
<path fill-rule="evenodd" clip-rule="evenodd" d="M13.043 14.5765L13.043 16.541L16.8299 16.541L16.8299 14.5765L13.043 14.5765ZM12.043 16.541C12.043 17.0933 12.4907 17.541 13.043 17.541L16.8299 17.541C17.3821 17.541 17.8299 17.0933 17.8299 16.541L17.8299 14.5765C17.8299 14.0242 17.3821 13.5765 16.8299 13.5765L13.043 13.5765C12.4907 13.5765 12.043 14.0242 12.043 14.5765L12.043 16.541Z" fill="#ACACAC"/>
<path fill-rule="evenodd" clip-rule="evenodd" d="M20.3133 16.341L26.2305 16.341L26.2305 5.66152L20.3133 5.66152L20.3133 16.341ZM19.1133 16.541C19.1133 17.0933 19.561 17.541 20.1133 17.541L26.4305 17.541C26.9828 17.541 27.4305 17.0933 27.4305 16.541L27.4305 5.46152C27.4305 4.90923 26.9828 4.46152 26.4305 4.46152L20.1133 4.46152C19.561 4.46152 19.1133 4.90924 19.1133 5.46152L19.1133 16.541Z" fill="#ACACAC"/>
<path fill-rule="evenodd" clip-rule="evenodd" d="M13.043 10.0209L13.043 12.0293L16.8299 12.0293L16.8299 10.0209L13.043 10.0209ZM12.043 12.0293C12.043 12.5816 12.4907 13.0293 13.043 13.0293L16.8299 13.0293C17.3821 13.0293 17.8299 12.5816 17.8299 12.0293L17.8299 10.0209C17.8299 9.46858 17.3821 9.02086 16.8299 9.02086L13.043 9.02086C12.4907 9.02086 12.043 9.46858 12.043 10.0209L12.043 12.0293Z" fill="#ACACAC"/>
<path fill-rule="evenodd" clip-rule="evenodd" d="M15.3945 5.55088L15.3945 7.37695L16.8319 7.37695L16.8319 5.55088L15.3945 5.55088ZM14.3945 7.37695C14.3945 7.92924 14.8422 8.37695 15.3945 8.37695L16.8319 8.37695C17.3842 8.37695 17.8319 7.92924 17.8319 7.37695L17.8319 5.55088C17.8319 4.99859 17.3842 4.55088 16.8319 4.55088L15.3945 4.55088C14.8422 4.55088 14.3945 4.99859 14.3945 5.55088L14.3945 7.37695Z" fill="#ACACAC"/>
<path d="M25 17C25 14.7909 26.7909 13 29 13C31.2091 13 33 14.7909 33 17C33 19.2091 31.2091 21 29 21C26.7909 21 25 19.2091 25 17Z" fill="#FF6F00"/>
<path fill-rule="evenodd" clip-rule="evenodd" d="M31.8554 17.0018C31.8555 17.2779 31.6317 17.5019 31.3555 17.502L26.6447 17.5033C26.3686 17.5034 26.1447 17.2796 26.1446 17.0035C26.1445 16.7273 26.3683 16.5034 26.6444 16.5033L31.3552 16.502C31.6314 16.5019 31.8553 16.7257 31.8554 17.0018Z" fill="white"/>
</svg>
