<svg width="13" height="13" viewBox="0 0 13 13" fill="none" xmlns="http://www.w3.org/2000/svg">
<path fill-rule="evenodd" clip-rule="evenodd" d="M8.64416 0.0460923C9.40312 0.325341 10.1279 0.743368 10.7596 1.35304L10.7642 1.35751L10.7687 1.36213C10.8511 1.44734 10.9164 1.55445 10.9509 1.67142C10.9823 1.77755 10.996 1.92131 10.9375 2.0651C10.7651 2.61567 10.837 3.19845 11.1199 3.67232L11.1228 3.67711L11.1255 3.68198C11.4205 4.2112 11.8449 4.53241 12.3618 4.63795L12.3875 4.6432L12.4123 4.65199C12.6234 4.72701 12.8514 4.91193 12.8727 5.22281C12.9609 5.639 13 6.09568 13 6.50084C13 6.92104 12.958 7.34344 12.8672 7.80414L12.8629 7.82587L12.8561 7.84695C12.7827 8.07459 12.6342 8.23892 12.4589 8.32951L12.4236 8.34771L12.3854 8.35813C11.8277 8.51021 11.3726 8.84627 11.1305 9.3105L11.1265 9.31816C10.8427 9.83312 10.8004 10.3923 10.948 10.9706C11.0071 11.1822 10.9835 11.5124 10.721 11.6832C10.0936 12.2317 9.38676 12.6382 8.64669 12.9541L8.62946 12.9615L8.61158 12.9671C8.48719 13.0061 8.35108 13.0152 8.21343 12.9683C8.08498 12.9245 7.99347 12.8444 7.93183 12.7806C7.51695 12.3518 7.0117 12.103 6.5 12.103C5.96365 12.103 5.43607 12.3254 5.091 12.7548L5.08018 12.7682L5.06817 12.7806C4.96422 12.8881 4.78806 12.9842 4.58673 12.9842H4.43411L4.37191 12.9615C3.60711 12.6823 2.87655 12.2626 2.2404 11.6487L2.23577 11.6442L2.2313 11.6396C2.14884 11.5544 2.08363 11.4472 2.04905 11.3303C2.01768 11.2241 2.00395 11.0804 2.06252 10.9366C2.23489 10.386 2.16298 9.80326 1.88009 9.32939L1.87723 9.3246L1.87452 9.31972C1.57951 8.79051 1.15512 8.46929 0.638174 8.36375L0.612457 8.3585L0.58772 8.34971C0.376138 8.27454 0.147616 8.08898 0.127195 7.77688C0.0433791 7.36455 0 6.9089 0 6.50084C0 6.08065 0.0420384 5.65826 0.132834 5.19757L0.137117 5.17584L0.143914 5.15476C0.217328 4.92712 0.365835 4.76279 0.541142 4.67219L0.576355 4.654L0.614581 4.64357C1.17233 4.49149 1.62745 4.15544 1.86954 3.69121L1.87353 3.68355C2.15729 3.16859 2.19956 2.60937 2.05203 2.03103C1.99286 1.81951 2.01654 1.4893 2.27903 1.31854C2.90641 0.769966 3.61324 0.363512 4.35331 0.0475626L4.37054 0.0402054L4.38842 0.0346057C4.51284 -0.00436136 4.64896 -0.0134671 4.78662 0.0334788C4.91505 0.0772809 5.00655 0.157395 5.06817 0.22109C5.48304 0.649892 5.98828 0.898648 6.5 0.898648C7.03637 0.898648 7.56394 0.676268 7.909 0.246965L7.91982 0.233502L7.93183 0.22109C8.01418 0.135973 8.11971 0.0665624 8.23767 0.0293017C8.34642 -0.00504887 8.49594 -0.0200747 8.64416 0.0460923ZM8.44671 0.775142C9.08832 1.019 9.6888 1.37146 10.2125 1.8694C9.98878 2.61261 10.0869 3.40363 10.4732 4.05382C10.8484 4.72418 11.4168 5.18803 12.1341 5.35791C12.2128 5.71911 12.2497 6.13128 12.2497 6.50084C12.2497 6.86027 12.2147 7.22536 12.1364 7.6307C12.1325 7.63967 12.1287 7.64589 12.1257 7.65005C11.4296 7.8554 10.8127 8.29912 10.4675 8.9581C10.0843 9.65592 10.0354 10.4047 10.2138 11.1284C9.68572 11.5872 9.08576 11.9407 8.43889 12.2247C7.92258 11.7046 7.24591 11.3508 6.5 11.3508C5.78582 11.3508 5.056 11.638 4.5533 12.2266C3.91168 11.9827 3.3112 11.6302 2.7875 11.1323C3.01123 10.3891 2.91311 9.59808 2.5268 8.94789C2.15166 8.27756 1.58327 7.81372 0.865944 7.64382C0.790394 7.2791 0.750341 6.86669 0.750341 6.50084C0.750341 6.14142 0.785275 5.77634 0.863554 5.37101C0.867456 5.36204 0.871274 5.35582 0.874281 5.35166C1.57035 5.14631 2.18732 4.70259 2.53247 4.04361C2.91568 3.3458 2.9646 2.59701 2.78617 1.87332C3.31428 1.41452 3.91423 1.061 4.56109 0.777009C5.07742 1.29713 5.7541 1.65092 6.5 1.65092C7.21417 1.65092 7.944 1.36371 8.44671 0.775142ZM2.77376 1.82504C2.7737 1.82457 2.77377 1.82505 2.77376 1.82504V1.82504ZM6.50786 4.81418C5.62226 4.81418 4.88725 5.56022 4.88725 6.50084C4.88725 7.44455 5.62525 8.18753 6.50786 8.18753C7.38865 8.18753 8.12488 7.44223 8.12846 6.50017C8.12811 5.55629 7.39372 4.81418 6.50786 4.81418ZM4.13691 6.50084C4.13691 5.1675 5.18553 4.06191 6.50786 4.06191C7.82971 4.06191 8.8788 5.16295 8.8788 6.50084L8.8788 6.50214C8.8742 7.83375 7.82694 8.93979 6.50786 8.93979C5.1904 8.93979 4.13691 7.83922 4.13691 6.50084Z" fill="#323A3D"/>
</svg>
