<svg width="28" height="32" viewBox="0 0 28 32" fill="none" xmlns="http://www.w3.org/2000/svg">
<g clip-path="url(#clip0_21155_56756)">
<path fill-rule="evenodd" clip-rule="evenodd" d="M4 0C1.79086 0 0 1.79086 0 4V28C0 30.2091 1.79086 32 4 32H24C26.2091 32 28 30.2091 28 28V4C28 1.79086 26.2091 0 24 0H4ZM20.3462 8H8.63721V24H20.3462V8Z" fill="#2F2E33"/>
<mask id="mask0_21155_56756" style="mask-type:luminance" maskUnits="userSpaceOnUse" x="4" y="3" width="20" height="26">
<path d="M24 3.5H4V28.5H24V3.5Z" fill="white"/>
</mask>
<g mask="url(#mask0_21155_56756)">
<path fill-rule="evenodd" clip-rule="evenodd" d="M11 16.2871H4V28.2871H24V16.2871H17V18.5488C17 20.2057 15.6569 21.5488 14 21.5488C12.3432 21.5488 11 20.2057 11 18.5488V16.2871Z" fill="#767676"/>
<path fill-rule="evenodd" clip-rule="evenodd" d="M11.1838 4.28711C8.32088 4.28711 6 6.60799 6 9.47093V16.2871H11V12.5488C11 10.8919 12.3432 9.54883 14 9.54883C15.6569 9.54883 17 10.8919 17 12.5488V16.2871H22V9.47093C22 6.60799 19.6791 4.28711 16.8162 4.28711H11.1838Z" fill="#BFBFBF"/>
</g>
</g>
<defs>
<clipPath id="clip0_21155_56756">
<rect width="28" height="32" fill="white"/>
</clipPath>
</defs>
</svg>
