<svg width="19" height="37" viewBox="0 0 19 37" fill="none" xmlns="http://www.w3.org/2000/svg">
<rect x="11.2701" y="27.3223" width="5.68421" height="8.52632" fill="#404040"/>
<rect width="5.68421" height="8.52632" transform="matrix(-1 0 0 1 7.48071 27.3223)" fill="#404040"/>
<rect x="14.1122" y="26.8496" width="4.26316" height="9.94737" rx="2" fill="#515151"/>
<rect width="4.26316" height="9.94737" rx="2" transform="matrix(-1 0 0 1 4.63861 26.8496)" fill="#515151"/>
<path d="M6.53333 35.1722V33.4805H12.6912V35.1722L11.5716 35.8489H7.65294L6.53333 35.1722Z" fill="#333333"/>
<path d="M9.257 36.3233L8.90173 35.8496H10.3228L9.96752 36.3233H9.257Z" fill="#CFCFCF"/>
<path fill-rule="evenodd" clip-rule="evenodd" d="M3.37543 5.5332C1.71857 5.5332 0.375427 6.87635 0.375427 8.5332V25.7437C0.375427 27.4006 1.71857 28.7437 3.37543 28.7437H15.3754C17.0323 28.7437 18.3754 27.4006 18.3754 25.7437V8.5332C18.3754 6.87635 17.0323 5.5332 15.3754 5.5332H3.37543ZM11.2702 19.2714C13.6247 19.2714 15.5333 17.4687 15.5333 15.2451C15.5333 13.0214 13.6247 11.2188 11.2702 11.2188C8.9157 11.2188 7.00702 13.0214 7.00702 15.2451C7.00702 17.4687 8.9157 19.2714 11.2702 19.2714Z" fill="#D9D9D9"/>
<path d="M11.2702 20.2714C14.1223 20.2714 16.5333 18.0741 16.5333 15.2451C16.5333 12.416 14.1223 10.2188 11.2702 10.2188C8.41804 10.2188 6.00702 12.416 6.00702 15.2451C6.00702 18.0741 8.41804 20.2714 11.2702 20.2714Z" stroke="#00AE42" stroke-width="2"/>
<rect x="5.11224" y="28.7441" width="8.52632" height="4.73684" fill="#1D1C1C"/>
<ellipse cx="9.3754" cy="6.20864" rx="4.26316" ry="0.601214" fill="#383938"/>
<path fill-rule="evenodd" clip-rule="evenodd" d="M12.5663 0.796875H6.53333V6.05156L6.53346 6.05156C6.53346 6.22227 7.88399 6.36066 9.54995 6.36066C11.2159 6.36066 12.5664 6.22227 12.5664 6.05156C12.5664 6.05057 12.5664 6.04958 12.5663 6.04859V0.796875Z" fill="#9C9C9C"/>
<rect x="7.48071" y="1.59766" width="4.26316" height="4.40891" rx="2.13158" fill="#848484"/>
</svg>
