<?xml version="1.0" encoding="UTF-8"?><svg id="a" xmlns="http://www.w3.org/2000/svg" width="28" height="32" viewBox="0 0 28 32"><line x1="17.5" y1="8" x2="17.5" y2="24" style="fill:none; stroke:#949494;"/><line x1="9.5" y1="8" x2="9.5" y2="24" style="fill:none; stroke:#949494;"/><path d="M19.5,17V7.5c0-1.66-1.34-3-3-3h-6c-1.66,0-3,1.34-3,3v9.5" style="fill:none; stroke:#949494;"/><path d="M6,17v11h15v-11H6ZM12,20v-1c0-.55.45-1,1-1h1c.55,0,1,.45,1,1v1c0,.55-.45,1-1,1h-1c-.55,0-1-.45-1-1Z" style="fill:#949494; opacity:.7;"/></svg>