<?xml version="1.0" encoding="UTF-8" standalone="no"?>
<svg
   id="a"
   width="480"
   height="480"
   viewBox="0 0 480 480"
   version="1.1"
   sodipodi:docname="splash_logo_dark.svg"
   inkscape:version="1.4 (86a8ad7, 2024-10-11)"
   xmlns:inkscape="http://www.inkscape.org/namespaces/inkscape"
   xmlns:sodipodi="http://sodipodi.sourceforge.net/DTD/sodipodi-0.dtd"
   xmlns="http://www.w3.org/2000/svg"
   xmlns:svg="http://www.w3.org/2000/svg">
  <defs
     id="defs11">
    <rect
       x="58.981019"
       y="231.12887"
       width="346.21379"
       height="149.61039"
       id="rect1" />
  </defs>
  <sodipodi:namedview
     id="namedview11"
     pagecolor="#ffffff"
     bordercolor="#000000"
     borderopacity="0.25"
     inkscape:showpageshadow="2"
     inkscape:pageopacity="0.0"
     inkscape:pagecheckerboard="0"
     inkscape:deskcolor="#d1d1d1"
     inkscape:zoom="2.0854167"
     inkscape:cx="198.28172"
     inkscape:cy="226.0939"
     inkscape:window-width="2400"
     inkscape:window-height="1261"
     inkscape:window-x="-9"
     inkscape:window-y="-9"
     inkscape:window-maximized="1"
     inkscape:current-layer="a" />
  <g
     id="g1"
     transform="matrix(1.1368877,0,0,1.1368877,82.541109,32.861238)">
    <path
       d="m 155.02187,117.58979 c -10.64649,10.80395 -23.31325,15.18858 -37.82842,14.25718 -11.97874,-0.76639 -21.937294,-5.86768 -30.126245,-14.6438 C 71.412952,100.40976 71.81416,73.177641 86.816428,57.029041 95.965394,47.185105 107.07741,41.553882 120.6398,41.152674 c 13.57655,-0.401207 24.68857,5.043772 34.39609,15.095427 0,-3.804281 0.10053,-6.999634 -0.036,-10.180647 -0.0861,-2.041844 0.58767,-2.837095 2.67243,-2.743958 3.07346,0.128955 6.15413,0.07163 9.23479,0.02162 1.56196,-0.02883 2.13521,0.616141 2.13521,2.185133 -0.0504,24.86058 0.0501,49.721052 -0.15061,74.574641 -0.0573,7.07832 -0.9242,14.17827 -3.80417,20.79828 -4.95789,11.39846 -13.67708,18.60578 -25.49819,21.87994 -14.85926,4.11259 -29.49603,3.51051 -43.423665,-3.60348 -9.328077,-4.76441 -15.410681,-12.58786 -19.472909,-22.10946 -0.558844,-1.30397 -0.272396,-1.8484 1.182111,-1.84119 3.797146,0.0288 7.587122,0.036 11.384269,0 1.153502,-0.0144 1.848435,0.50155 2.428754,1.42575 6.619937,10.61047 16.48535,15.14535 28.69358,15.48945 7.42927,0.20754 14.50795,-0.89574 21.17805,-4.36338 7.30063,-3.79696 11.41287,-9.77922 12.59506,-17.8394 0.57289,-3.94037 0.78079,-7.90956 0.88817,-12.34428 z M 89.488788,86.868878 c -0.186281,11.147688 4.284324,19.351272 12.487582,25.541062 7.47968,5.64573 16.12003,7.06428 25.21862,6.0255 11.84309,-1.35405 20.94889,-7.07869 25.60592,-18.20476 4.58497,-10.954558 3.91155,-21.994873 -3.03058,-31.896171 C 142.44122,57.87444 131.99542,53.797872 119.35713,54.99436 102.53521,56.584848 89.488788,70.763227 89.488788,86.876084 Z"
       fill="#d72828"
       id="path1-09"
       style="stroke-width:3.60312" />
    <path
       d="m 189.15277,110.71179 c 7.04986,0 12.40158,5.27317 12.40158,12.23691 0,6.89205 -5.50233,12.47328 -12.32267,12.5021 -6.79908,0.0288 -12.38752,-5.56681 -12.40193,-12.42319 -0.0144,-6.98536 5.31604,-12.31582 12.33023,-12.31582 z"
       fill="#d72828"
       id="path2-48"
       style="stroke-width:3.60312" />
  </g>
  <text
     xml:space="preserve"
     id="text1"
     style="font-size:37.3333px;text-align:center;writing-mode:lr-tb;direction:ltr;white-space:pre;shape-inside:url(#rect1);fill:#000000;stroke-width:5;paint-order:stroke markers fill"
     x="43.67844"
     y="0"
     transform="translate(7.6321123)"><tspan
       x="109.24274"
       y="265.4417"
       id="tspan3"><tspan
         style="font-weight:600;font-family:Montserrat;-inkscape-font-specification:'Montserrat Semi-Bold'"
         id="tspan1">Ginger Slicer</tspan></tspan></text>
</svg>
