<?xml version="1.0"?>
<svg width="500.00000000000006" height="500.00000000000006" xmlns="http://www.w3.org/2000/svg" xmlns:svg="http://www.w3.org/2000/svg" clip-rule="evenodd" fill-rule="evenodd" version="1.1">
 <g class="layer">
  <title>Layer 1</title>
  <g fill-opacity="0" id="svg_1">
   <path d="m-0.5,0.54c166.67,0 333.33,0 500,0c0,166.67 0,333.33 0,500c-166.67,0 -333.33,0 -500,0c0,-166.67 0,-333.33 0,-500z" fill="#000000" id="svg_2"/>
  </g>
  <g id="svg_119" transform="matrix(1 0 0 1 0 0)">
   <path d="m395.74,110c0.29,3.15 -0.02,6.24 -0.91,9.25c-22.27,21.41 -47.89,34.99 -76.83,40.71c10.52,-10.68 11.12,-21.48 1.81,-32.38c-30.61,-3 -53.8,9.03 -69.6,36.08c-2.5,10.94 1.41,17.73 11.75,20.35c0.16,1.85 -0.45,3.39 -1.81,4.63c-35.05,16.76 -66.69,38.67 -94.91,65.68c-8.28,10.16 -15.22,21.26 -20.79,33.3c-0.83,1.48 -2.03,2.09 -3.61,1.85c-10.58,-42.63 -6.35,-83.63 12.66,-123.04c-17,-22.91 -39.3,-37.71 -66.89,-44.41c-4.83,-3.09 -4.83,-6.16 0,-9.25c39.86,-18.47 81.15,-22.46 123.84,-12.03c13.43,-6.11 26.99,-11.95 40.67,-17.58c52.71,-14.49 100.93,-5.55 144.63,26.83l-0.01,0.01z" fill="#444444" id="svg_120"/>
  </g>
  <g id="svg_121" transform="matrix(1 0 0 1 0 0)">
   <path d="m393.04,108.12c6.73,4.16 12.73,9.4 17.96,15.72c-23.11,23.49 -45.86,47.25 -68.23,71.22c-53.5,54.2 -106.76,108.78 -159.8,163.72c-1.06,0.85 -2.26,1.17 -3.6,0.92c-18.24,-20.92 -31.4,-44.97 -39.5,-72.15c1.58,0.24 2.76,-0.37 3.6,-1.85c5.53,-12.04 12.43,-23.14 20.64,-33.3c28.03,-27.01 59.45,-48.91 94.26,-65.67c1.34,-1.24 1.95,-2.77 1.79,-4.62c21.72,-0.41 40.3,-8.42 55.66,-24.05c28.74,-5.72 54.19,-19.29 76.32,-40.7c0.87,-3.02 1.18,-6.1 0.9,-9.25l0,0.01z" fill="#545151" id="svg_122"/>
  </g>
  <g id="svg_123" transform="matrix(1 0 0 1 0 0)">
   <path d="m318.25,160.13c-15.27,17.9 -33.71,27.07 -55.3,27.54c-10.2,-3.01 -14.06,-10.78 -11.59,-23.3c15.59,-30.97 38.47,-44.74 68.67,-41.3c9.19,12.48 8.6,24.85 -1.78,37.07l0,-0.01z" fill="#fbfbfb" id="svg_124"/>
  </g>
  <g id="svg_131" transform="matrix(1 0 0 1 0 0)">
   <path d="m343.86,193.67c16.82,16.71 29.04,36.5 36.64,59.34c-85.72,65.35 -175.5,124.7 -269.32,178.03c-1.86,-0.74 -2.18,-1.97 -0.92,-3.71c22.67,-22.62 44.96,-45.51 66.87,-68.62c1.36,0.24 2.58,-0.07 3.66,-0.93c54.12,-55.08 108.47,-109.79 163.06,-164.12l0.01,0.01z" fill="#e83948" id="svg_132"/>
  </g>
  <g id="svg_141" transform="matrix(1 0 0 1 0 0)">
   <path d="m379.58,251.71c23.59,84.17 0.4,151.52 -69.59,202.09c-62.54,35.76 -123.6,33.28 -183.13,-7.45c-6.34,-4.45 -11.83,-9.72 -16.49,-15.83c93.78,-53.57 183.52,-113.17 269.2,-178.81l0.01,0z" fill="#444444" id="svg_142"/>
  </g>
  <path d="m1390,1874.79c-0.83,-1.04 -1.8,-1.06 -2.58,-1.56c-0.74,-0.48 -1.58,-0.52 -2.42,-0.52c-0.91,0 -1.82,0 -2.57,0c-0.87,0 -1.8,0 -2.74,0c-0.94,0 -1.56,0 -2.81,0c-0.63,0 -1.56,0 -2.5,0c-0.93,0 -1.8,0 -2.78,0c-0.82,0 -1.81,0 -2.64,0c-1.01,0 -1.68,0 -2.74,0c-0.81,0 -1.65,0 -2.59,0c-0.85,0 -1.8,0 -2.58,0c-0.94,0 -1.79,0.02 -2.8,0c-0.79,-0.02 -1.75,-0.16 -2.56,-0.37c-0.83,-0.21 -1.79,-0.5 -2.61,-0.65l-0.88,-0.02l-0.9,0l-0.87,0" fill="none" id="svg_57" transform="matrix(1 0 0 1 0 0)"/>
  <g fill-opacity="0" id="svg_60">
   <path d="m1436.7,1678.04c17.42,0.23 28.25,8.9 32.5,26c1.78,8.72 -0.39,16.22 -6.5,22.5c-4.01,3 -8.34,5.5 -13,7.5c-9.13,-16.09 -18.13,-32.25 -27,-48.5c4.6,-2.8 9.27,-5.3 14,-7.5z" fill="#000000" id="svg_61" stroke="#f40909" stroke-width="4"/>
  </g>
  <g fill-opacity="0" id="svg_64" transform="matrix(1 0 0 1 0 0)">
   <path d="m1436.7,1678.04c17.42,0.23 28.25,8.9 32.5,26c1.78,8.72 -0.39,16.22 -6.5,22.5c-4.01,3 -8.34,5.5 -13,7.5c-9.13,-16.09 -18.13,-32.25 -27,-48.5c4.6,-2.8 9.27,-5.3 14,-7.5z" fill="#000000" id="svg_65" stroke="#f40909" stroke-width="4"/>
  </g>
  <g fill-opacity="0" id="svg_66" transform="matrix(1 0 0 1 0 0)">
   <path d="m59.15,139.29c8.94,0.12 14.51,4.6 16.69,13.43c0.91,4.5 -0.2,8.38 -3.34,11.62c-2.06,1.55 -4.28,2.84 -6.68,3.87c-4.69,-8.31 -9.31,-16.65 -13.86,-25.04c2.36,-1.45 4.76,-2.74 7.19,-3.87l0,-0.01z" fill="#000000" id="svg_69" stroke="#f40909" stroke-width="4"/>
  </g>
  <g fill-opacity="0" id="svg_37">
   <path d="m200.79,67.21c-2,1.33 -4,2.67 -6,4c-3.26,1.27 -6.26,2.94 -9,5c-6.81,2.57 -13.15,5.91 -19,10c-0.44,-0.06 -0.77,0.1 -1,0.5c2.54,4.92 5.21,9.76 8,14.5c10.33,-5.5 20.67,-11 31,-16.5c1,-0.67 2,-0.67 3,0c3.34,6.35 6.67,12.68 10,19c-0.14,0.77 -0.48,1.44 -1,2c-10.25,5.37 -20.41,10.87 -30.5,16.5c1.55,5.12 3.72,10.12 6.5,15c0.87,1.08 1.87,1.25 3,0.5c11.04,-5.85 22.04,-11.68 33,-17.5c0.67,0.33 1.33,0.67 2,1c3.17,5.67 6.33,11.33 9.5,17c0.68,1.28 0.52,2.45 -0.5,3.5c-22.83,11.91 -45.49,24.08 -68,36.5c-12.77,-23.89 -25.77,-47.56 -39,-71c-0.06,-1.11 -0.39,-2.11 -1,-3c-3.27,-6.44 -6.77,-12.78 -10.5,-19c-0.74,-1.25 -0.57,-2.25 0.5,-3c1.21,-0.43 2.21,-1.1 3,-2c9.66,-4.5 18.99,-9.5 28,-15c0.99,0.17 1.66,-0.16 2,-1c4.59,-1.94 8.92,-4.27 13,-7c1.65,-0.16 2.99,-0.83 4,-2c1.93,-0.61 3.6,-1.61 5,-3c0.99,0.17 1.66,-0.16 2,-1c1.65,-0.16 2.99,-0.83 4,-2c0.99,0.17 1.66,-0.16 2,-1c1.67,-0.25 3.17,-0.92 4.5,-2c4.35,6.71 8.19,13.71 11.5,21z" fill="#000000" id="svg_38" stroke="#f40909" stroke-width="4"/>
  </g>
  <g fill-opacity="0" id="svg_21" transform="matrix(1 0 0 1 0 0)">
   <path d="m279,4.08c1,0 2,0 3,0c5.39,0.28 10.72,0.94 16,2c0,0.67 0.33,1 1,1c2.91,1.29 5.91,2.29 9,3c0.33,1 1,1.67 2,2c26.15,19.31 32.65,43.98 19.5,74c-3.13,4.13 -6.63,7.97 -10.5,11.5c-19.71,12.35 -40.05,23.35 -61,33c-13.06,-23.29 -25.73,-46.79 -38,-70.5c-0.43,-1.21 -1.1,-2.21 -2,-3c-1.1,-2.53 -2.43,-4.86 -4,-7c0.17,-0.99 -0.16,-1.66 -1,-2c-0.96,-3.26 -2.46,-6.26 -4.5,-9c-0.67,-1 -0.67,-2 0,-3c3.81,-2.48 7.65,-4.82 11.5,-7c0.99,0.17 1.66,-0.16 2,-1c3.83,-1.75 7.5,-3.75 11,-6c0.99,0.17 1.66,-0.16 2,-1c1.65,-0.16 2.99,-0.83 4,-2c0.67,-0.33 1.33,-0.67 2,-1c3.86,-1.76 7.53,-3.76 11,-6c1.11,-0.06 2.11,-0.39 3,-1c7.52,-3.88 15.52,-6.22 24,-7z" fill="#000000" id="svg_22" stroke="#f40909" stroke-width="4"/>
  </g>
  <g fill-opacity="0" id="svg_31" transform="matrix(1 0 0 1 0 0)">
   <path d="m268.04,35.13c17.42,0.23 28.25,8.9 32.5,26c1.78,8.72 -0.39,16.22 -6.5,22.5c-4.01,3 -8.34,5.5 -13,7.5c-9.13,-16.09 -18.13,-32.25 -27,-48.5c4.6,-2.8 9.27,-5.3 14,-7.5z" fill="#000000" id="svg_32" stroke="#f40909" stroke-width="4"/>
  </g>
  <g fill-opacity="0" id="svg_67" transform="matrix(1 0 0 1 0 0)">
   <path d="m89.54,110.37c0.89,0.61 1.89,0.94 3,1c4.62,1.65 8.62,4.31 12,8c0.33,1 1,1.67 2,2c6.67,11.01 6.67,22.01 0,33c8.72,2.86 16.72,7.03 24,12.5c8.67,6.67 17.33,13.33 26,20c-10.61,6.22 -21.44,12.06 -32.5,17.5c-7.44,-5.1 -14.61,-10.6 -21.5,-16.5c-4.17,-2.92 -8.5,-5.58 -13,-8c-5.36,-1.94 -10.69,-1.94 -16,0c-0.46,0.41 -0.79,0.91 -1,1.5c7.25,12.84 14.25,25.84 21,39c-10.84,6.25 -21.84,12.25 -33,18c-13.25,-23.5 -26.25,-47.16 -39,-71c-0.43,-1.21 -1.1,-2.21 -2,-3c-3.31,-6.61 -6.64,-13.28 -10,-20c2.7,-2.01 5.36,-4.01 8,-6c2.98,-0.83 5.65,-2.16 8,-4c4.16,-1.24 7.82,-3.24 11,-6c1.11,-0.06 2.11,-0.39 3,-1c1.87,-0.76 3.54,-1.76 5,-3c0.67,-0.33 1.33,-0.67 2,-1c3.86,-1.76 7.53,-3.76 11,-6c1.11,-0.06 2.11,-0.39 3,-1c8.93,-5.31 18.59,-7.31 29,-6z" fill="#000000" id="svg_68" stroke="#f40909" stroke-width="4"/>
  </g>
 </g>
</svg>