<?xml version="1.0" encoding="UTF-8"?>
<svg id="Layer_1" xmlns="http://www.w3.org/2000/svg" version="1.1" viewBox="0 0 480 480">
  <!-- Generator: Adobe Illustrator 29.1.0, SVG Export Plug-In . SVG Version: 2.1.0 Build 142)  -->
  <defs>
    <style>
      .st0 {
        fill: #292826;
      }

      .st1 {
        fill: #fff;
      }

      .st2 {
        fill: #e9e9e9;
      }

      .st3 {
        fill: #262523;
      }

      .st4 {
        fill: #949494;
      }

      .st5 {
        fill: #009789;
      }

      .st6 {
        display: none;
      }
    </style>
  </defs>
  <g class="st6">
    <rect class="st4" x="169" y="78.7" width="142.1" height="142.1" rx="17" ry="17"/>
    <path class="st0" d="M199.7,190.5c8.2,8.2,19.2,12.8,30.8,12.9,24.4,0,44.2-19.9,44.2-44.4s-4.6-22.7-12.8-31l-62.2,62.5h0Z"/>
    <path class="st5" d="M261.9,128l-62.2,62.5h.1c21.8-11,51.6-30.5,72.1-46.8-2.2-5.9-5.6-11.3-10-15.7"/>
    <path class="st0" d="M249.7,96.2c-24.4.2-44.1,20.1-44,44.6,0,11.5,4.7,22.6,12.8,30.8l62.2-62.5c-8.2-8.2-19.4-12.9-31-12.9"/>
    <path class="st3" d="M249.7,96.2c-8.1,0-16.1,2.2-23,6.5-4.3-1.1-8.7-1.7-13.1-1.7-7.3,0-14.4,1.7-21,4.7-.7.3-1,1.1-.7,1.9.2.4.5.7,1,.8,7.2,1.5,13.5,5.5,17.9,11.4-5.4,10.3-6.5,22.3-3.2,33.4,1.2-2.7,2.7-5.3,4.4-7.7,4-5.5,8.3-8.4,14.6-12.7,4.6-3.1,11.1-6.8,29.7-14.5,4.8-1.5,9.3-3.6,13.6-6.3,3.1-1.8,5.5-3.6,6.2-6.3,0-.2.1-.4.1-.6-7.6-5.8-16.9-9-26.5-9"/>
    <path class="st4" d="M257.1,111c1.6,2.9-1.6,7.8-7.2,11s-11.4,3.5-13.1.6,1.6-7.8,7.2-11,11.4-3.5,13.1-.6"/>
  </g>
  <g>
    <path class="st5" d="M173.6,267.7c-3.1-2.9-4.7-6.8-4.7-11.7s1.6-8.8,4.7-11.7c3.1-2.9,7.3-4.3,12.6-4.3s9.5,1.4,12.6,4.3c3.1,2.9,4.7,6.8,4.7,11.7s-1.6,8.8-4.7,11.7c-3.1,2.9-7.3,4.3-12.6,4.3s-9.5-1.4-12.6-4.3ZM192.3,262.1c1.5-1.5,2.2-3.5,2.2-6.1s-.7-4.6-2.2-6.1-3.5-2.2-6.1-2.2-4.6.7-6,2.2c-1.5,1.5-2.2,3.5-2.2,6.1s.7,4.6,2.2,6.1c1.4,1.5,3.4,2.2,6,2.2s4.6-.7,6.1-2.2Z"/>
    <path class="st5" d="M209.1,271.1v-30.2h17.6c8,0,11.9,3.6,11.9,10.8s-2,8.1-5.9,9.7l7.2,9.7h-10.3l-5.6-7.9h-6v7.9h-9.1.2ZM218.2,256.1h7.4c2.7,0,4.1-1.3,4.1-4s-1.4-3.9-4.1-3.9h-7.4v7.9Z"/>
    <path class="st5" d="M247.4,267.4c-2.9-2.8-4.3-6.6-4.3-11.3s1.5-8.5,4.6-11.5c3.2-3,7.5-4.5,12.9-4.5s8.2,1.1,11.5,3.2v8.5h0c-4-2.6-7.6-4-10.8-4s-4.9.7-6.5,2.2-2.4,3.5-2.4,5.9.8,4.4,2.4,5.8c1.6,1.5,3.8,2.2,6.5,2.2s7.3-1.3,10.8-4h0v8.6c-1.3.9-2.9,1.6-4.7,2.1-2.3.7-4.6,1-7.1,1-5.5,0-9.8-1.5-12.8-4.4v.2Z"/>
    <path class="st5" d="M275.5,271.1l10.5-30.2h14.6l10.5,30.2h-9.5l-2.1-6.3h-12.5l-2.2,6.3h-9.3ZM292.4,248.6l-3.2,9.5h8.1l-3.2-9.5h-1.7Z"/>
    <path class="st4" d="M169.7,303.6v-4.5h0c3.5,2,7.2,3,10.8,3s3.2-.3,4.2-.9,1.4-1.3,1.4-2.3-.5-1.7-1.5-2.2c-.9-.5-2.9-.9-5.8-1.4-2.9-.5-5-1.2-6.3-2-1.8-1.1-2.7-2.7-2.7-4.7s.9-3.9,2.6-5.3c1.9-1.5,4.5-2.3,7.9-2.3s6.4.8,9.1,2.3v4.5h0c-2.9-1.9-6-2.8-9.4-2.8s-3.2.3-4.2.9c-.9.6-1.4,1.3-1.4,2.2s.7,1.9,2,2.3c.7.2,1.5.4,2.4.6s1.8.4,2.8.6c3,.5,5.1,1.2,6.4,2,1.8,1.2,2.8,2.8,2.8,5s-.7,3.6-2,5c-1.7,1.7-4.5,2.6-8.3,2.6s-7.5-.8-10.8-2.5h0Z"/>
    <path class="st4" d="M196.5,305.6v-24.2h4.4v20.1h14.3v4.1h-18.7Z"/>
    <path class="st4" d="M220.6,305.6v-24.2h4.4v24.2h-4.4Z"/>
    <path class="st4" d="M234.4,302.4c-2.1-2.3-3.2-5.2-3.2-8.8s1.2-6.5,3.5-8.9c2.5-2.5,5.8-3.8,10-3.8s3.6.3,5.2.9c1.4.5,2.6,1.1,3.7,2v4.5h0c-3.3-2.3-6.3-3.4-9-3.4s-4.9.8-6.5,2.5c-1.6,1.6-2.3,3.7-2.3,6.2s.7,4.5,2.2,6.1c1.6,1.6,3.8,2.5,6.6,2.5s6.2-1.1,9.1-3.3h0v4.5c-1.1.8-2.3,1.4-3.8,1.9-1.8.6-3.7.9-5.6.9-4.3,0-7.6-1.2-9.9-3.7h0Z"/>
    <path class="st4" d="M260,305.6v-24.2h19.8v4c.1,0-15.5,0-15.5,0v5.6h12.7v4h-12.7v6.5h16.1l-.2,4h-20.4.2Z"/>
    <path class="st4" d="M286.5,305.6v-24.2h12.6c6,0,9,2.7,9,8.1s-1.8,6.6-5.5,7.7l6.4,8.4h-5.2l-5.6-7.6h-7.3v7.6h-4.4ZM290.9,294.1h8c3.1,0,4.7-1.4,4.7-4.3s-1.6-4.3-4.7-4.3h-8v8.7h0Z"/>
  </g>
  <rect class="st2" x="169" y="78.7" width="142.1" height="142.1" rx="17" ry="17"/>
  <path class="st0" d="M199.7,190.5c8.2,8.2,19.2,12.8,30.8,12.9,24.4,0,44.2-19.9,44.2-44.4,0-11.6-4.6-22.7-12.8-31l-62.2,62.5Z"/>
  <path class="st5" d="M261.9,127.9l-62.2,62.5s0,0,.1.1c21.8-11.1,51.6-30.6,72.1-46.9-2.2-5.9-5.6-11.3-10-15.7"/>
  <path class="st0" d="M249.7,96.2c-24.4.2-44.1,20.1-44,44.6,0,11.5,4.7,22.6,12.8,30.8l62.2-62.5c-8.2-8.2-19.4-12.9-31-12.9"/>
  <path class="st3" d="M249.7,96.2c-8.1,0-16.1,2.2-23,6.5-4.3-1.1-8.7-1.7-13.1-1.7-7.3,0-14.4,1.7-21,4.7-.7.3-1,1.1-.7,1.9.2.4.5.7,1,.8,7.2,1.5,13.5,5.5,17.9,11.4-5.4,10.3-6.5,22.3-3.2,33.4,1.2-2.7,2.7-5.3,4.4-7.7,4-5.5,8.3-8.4,14.6-12.7,4.6-3.1,11.1-6.8,29.7-14.5,4.8-1.5,9.3-3.6,13.6-6.3,3.1-1.8,5.5-3.6,6.2-6.3,0-.2.1-.4.1-.6-7.6-5.8-16.9-9-26.5-9"/>
  <path class="st1" d="M257.1,111c1.6,2.9-1.6,7.8-7.2,11s-11.4,3.5-13.1.6,1.6-7.8,7.2-11,11.4-3.5,13.1-.6"/>
</svg>