<svg xmlns="http://www.w3.org/2000/svg" width="480" height="480" viewBox="0 0 480 480"><rect width="480" height="480" style="fill:#e9e9e9"/><path d="M480,202.681a395.414,395.414,0,0,1-45.177,1.34c-76.178-3.037-109.161-23.086-172.838-21.263S136.451,202.806,0,175.468V339.5H480Z" style="fill:#afd4d1"/><path d="M480,183.808c-46.581,7.561-104.4,21.862-162.871,24.466-80.194,3.572-124.291-12.366-187.726-23.693C78.371,175.468,49.21,181.543,0,186.4V361.371H480Z" style="fill:#83c5bf"/><path d="M480,222.364c-1.516-.033-3.035-.057-4.541-.117-76.314-3.037-112.765-23.086-176.556-21.263S140.339,233.79,0,219.21V357.726H480Z" style="fill:#21a397"/><path d="M115.315,142.248A46.776,46.776,0,0,0,148.285,156a47.367,47.367,0,0,0,33.572-80.662Z" style="fill:#292826"/><path d="M181.857,75.338l-66.542,66.91.143.14c23.314-11.891,55.235-32.786,77.133-50.2a47.373,47.373,0,0,0-10.734-16.851" style="fill:#009789"/><path d="M168.848,42a47.368,47.368,0,0,0-33.378,80.662l66.543-66.91A46.776,46.776,0,0,0,168.848,42" style="fill:#292826"/><path d="M168.848,42a46.641,46.641,0,0,0-24.56,6.951,54.071,54.071,0,0,0-14.036-1.771,54.86,54.86,0,0,0-22.508,5.044,1.5,1.5,0,0,0,.308,2.83,32.094,32.094,0,0,1,19.162,12.2,47.663,47.663,0,0,0-3.422,35.73A47.215,47.215,0,0,1,128.54,94.7c4.321-5.937,8.89-9.028,15.639-13.594,4.972-3.363,11.88-7.308,31.729-15.466a67.523,67.523,0,0,0,14.535-6.7c3.319-1.973,5.844-3.836,6.644-6.749.057-.2.108-.408.155-.608A46.674,46.674,0,0,0,168.848,42" style="fill:#262523"/><path d="M176.708,57.9c1.726,3.052-1.729,8.3-7.716,11.725s-12.24,3.726-13.967.674,1.729-8.3,7.716-11.725,12.241-3.726,13.967-.674" style="fill:#fff"/><path d="M234.544,50.8h-4.477A19.087,19.087,0,0,0,211,69.865V86a19.087,19.087,0,0,0,19.066,19.065h4.477A19.087,19.087,0,0,0,253.61,86V69.865A19.087,19.087,0,0,0,234.544,50.8Zm13.2,35.2a13.215,13.215,0,0,1-13.2,13.2h-4.477a13.215,13.215,0,0,1-13.2-13.2V69.865a13.214,13.214,0,0,1,13.2-13.2h4.477a13.214,13.214,0,0,1,13.2,13.2Z" style="fill:#292826"/><path d="M307.8,72.8h5.866a2.933,2.933,0,1,0,0-5.866H307.8a19.066,19.066,0,1,0,0,38.131h5.866a2.933,2.933,0,1,0,0-5.866H307.8a13.2,13.2,0,0,1,0-26.4Z" style="fill:#292826"/><path d="M356.193,66.932a2.933,2.933,0,0,0-2.933,2.933v2.407a19.065,19.065,0,1,0,0,27.452v2.406a2.933,2.933,0,1,0,5.866,0V69.865A2.933,2.933,0,0,0,356.193,66.932ZM340.061,99.2A13.2,13.2,0,1,1,353.26,86,13.215,13.215,0,0,1,340.061,99.2Z" style="fill:#292826"/><path d="M282.864,66.932H277a2.921,2.921,0,0,0-.948.17A19.081,19.081,0,0,0,259.4,86V102.13a2.933,2.933,0,1,0,5.866,0V86a13.215,13.215,0,0,1,13.2-13.2h4.4a2.933,2.933,0,1,0,0-5.866Z" style="fill:#292826"/><path d="M296.063,118.262h4.4a2.933,2.933,0,0,0,0-5.866h-4.4a17.6,17.6,0,1,0,0,35.2h4.4a2.933,2.933,0,0,0,0-5.866h-4.4a11.733,11.733,0,0,1,0-23.466Z" style="fill:#009789"/><path d="M271.131,112.4a2.933,2.933,0,0,0-2.933,2.933v29.332a2.933,2.933,0,0,0,5.866,0V115.329A2.933,2.933,0,0,0,271.131,112.4Z" style="fill:#009789"/><path d="M232.557,130.341l-14.431-6.1a2.35,2.35,0,0,1-1.43-1.963,2.1,2.1,0,0,1,.893-1.983,11.739,11.739,0,0,1,13.65.307,2.933,2.933,0,1,0,3.523-4.691,17.607,17.607,0,0,0-20.483-.459,7.9,7.9,0,0,0-3.42,7.411,8.242,8.242,0,0,0,4.985,6.781l14.43,6.1a2.348,2.348,0,0,1,1.431,1.963,2.1,2.1,0,0,1-.893,1.982,11.737,11.737,0,0,1-14.908-1.4,2.933,2.933,0,0,0-4.147,4.149,17.6,17.6,0,0,0,22.365,2.093,7.894,7.894,0,0,0,3.42-7.411A8.243,8.243,0,0,0,232.557,130.341Z" style="fill:#009789"/><path d="M328.328,112.4h-4.4a17.6,17.6,0,1,0,0,35.2h4.4a2.933,2.933,0,1,0,0-5.866h-4.4a11.733,11.733,0,0,1,0-23.466h4.4a2.933,2.933,0,1,0,0-5.866Z" style="fill:#009789"/><path d="M328.328,127.062H321a2.933,2.933,0,1,0,0,5.866h7.333a2.933,2.933,0,1,0,0-5.866Z" style="fill:#009789"/><path d="M260.865,141.728H255a7.342,7.342,0,0,1-7.333-7.333V115.329a2.933,2.933,0,0,0-5.866,0V134.4a13.214,13.214,0,0,0,13.2,13.2h5.866a2.933,2.933,0,0,0,0-5.866Z" style="fill:#009789"/><path d="M356.193,112.4h-4.4a16.151,16.151,0,0,0-16.132,16.133v16.132a2.933,2.933,0,0,0,5.866,0V128.529a10.279,10.279,0,0,1,10.266-10.267h4.4a2.933,2.933,0,0,0,0-5.866Z" style="fill:#009789"/><path d="M480,252.642c-27.257,3.1-55.27,7.543-83.285,12.487-82.624,14.581-105.1-18.226-161.6-21.871C148.687,237.682,129.4,292.468,0,254.194V480H480Z" style="fill:#009789"/></svg>