<svg xmlns="http://www.w3.org/2000/svg" width="480" height="480" viewBox="0 0 480 480"><rect x="168.974" y="78.742" width="142.052" height="142.052" rx="17" style="fill:#949494"/><path d="M225.746,276.969a2.2,2.2,0,0,0-2.2,2.2v21.989a2.2,2.2,0,0,0,4.4,0V279.168A2.2,2.2,0,0,0,225.746,276.969Z" style="fill:#949494"/><path d="M283.441,276.969h-5.255a13.194,13.194,0,0,0,0,26.387h5.255a2.2,2.2,0,1,0,0-4.4h-5.255a8.8,8.8,0,1,1,0-17.591h5.255a2.2,2.2,0,0,0,0-4.4Z" style="fill:#949494"/><path d="M283.441,287.964h-6.392a2.2,2.2,0,1,0,0,4.4h6.392a2.2,2.2,0,1,0,0-4.4Z" style="fill:#949494"/><path d="M181.812,303.356H171.16a2.187,2.187,0,0,1,0-4.373h10.652a3.317,3.317,0,1,0,0-6.634h-5.148a7.691,7.691,0,0,1,0-15.381h8.706a2.187,2.187,0,0,1,0,4.373h-8.706a3.318,3.318,0,1,0,0,6.635h5.148a7.69,7.69,0,1,1,0,15.38Z" style="fill:#949494"/><path d="M199.693,190.506a43.712,43.712,0,0,0,30.813,12.852,44.267,44.267,0,0,0,31.375-75.383Z" style="fill:#292826"/><path d="M261.881,127.975l-62.188,62.531c.044.044.09.087.135.131,21.787-11.113,51.619-30.64,72.085-46.913a44.3,44.3,0,0,0-10.032-15.749" style="fill:#009789"/><path d="M249.723,96.178a44.268,44.268,0,0,0-31.193,75.383l62.187-62.531a43.712,43.712,0,0,0-30.994-12.852" style="fill:#292826"/><path d="M249.723,96.178a43.581,43.581,0,0,0-22.952,6.5,50.549,50.549,0,0,0-13.118-1.655,51.271,51.271,0,0,0-21.035,4.714,1.4,1.4,0,0,0,.288,2.645,29.987,29.987,0,0,1,17.908,11.4,44.556,44.556,0,0,0-3.2,33.392,44.117,44.117,0,0,1,4.438-7.74c4.038-5.549,8.308-8.437,14.616-12.7,4.646-3.144,11.1-6.83,29.652-14.454a63.117,63.117,0,0,0,13.584-6.261c3.1-1.844,5.462-3.585,6.209-6.307q.079-.288.144-.569a43.617,43.617,0,0,0-26.535-8.959" style="fill:#262523"/><path d="M257.068,111.039c1.613,2.852-1.615,7.758-7.211,10.958s-11.439,3.482-13.052.63,1.615-7.758,7.211-10.958,11.439-3.482,13.052-.63" style="fill:#949494"/><path d="M253.771,297.505a8.8,8.8,0,1,1-.01-14.692,2.207,2.207,0,0,0,2.783-.261h0a2.192,2.192,0,0,0-.294-3.363,13.193,13.193,0,1,0-.085,22,2.213,2.213,0,0,0,.38-3.418l0,0A2.2,2.2,0,0,0,253.771,297.505Z" style="fill:#949494"/><path d="M213.55,298.958H207.2a5.5,5.5,0,0,1-5.5-5.5V279.167a2.2,2.2,0,0,0-4.4,0v14.294a9.906,9.906,0,0,0,9.895,9.895h6.355a2.2,2.2,0,1,0,0-4.4Z" style="fill:#949494"/><path d="M308.827,281.367h-2.2a8.8,8.8,0,0,0-8.792,8.719v11.071a2.2,2.2,0,0,1-4.4,0V290.086a13.206,13.206,0,0,1,13.19-13.117h2.2a2.2,2.2,0,0,1,0,4.4Z" style="fill:#949494"/><path d="M186.65,236.645a12.236,12.236,0,1,1-12.236,12.236,12.25,12.25,0,0,1,12.236-12.236m0-5.44a17.676,17.676,0,1,0,17.676,17.676,17.676,17.676,0,0,0-17.676-17.676Z" style="fill:#949494"/><path d="M308.306,231.205a2.72,2.72,0,0,0-2.72,2.72v2.218a17.676,17.676,0,1,0,0,25.476v2.218a2.72,2.72,0,0,0,5.44,0V233.925A2.72,2.72,0,0,0,308.306,231.205ZM293.35,261.117a12.236,12.236,0,1,1,12.236-12.236A12.25,12.25,0,0,1,293.35,261.117Z" style="fill:#949494"/><path d="M232.518,231.205H229.8a17.676,17.676,0,0,0-17.676,17.676v14.956a2.72,2.72,0,0,0,5.44,0V248.881A12.25,12.25,0,0,1,229.8,236.645h2.72a2.72,2.72,0,0,0,0-5.44Z" style="fill:#949494"/><path d="M265.11,258.971a12.236,12.236,0,1,1-.04-20.207,2.757,2.757,0,0,0,3.52-.279h0a2.74,2.74,0,0,0-.433-4.207,17.676,17.676,0,1,0,.036,29.182,2.733,2.733,0,0,0,.4-4.186h0A2.723,2.723,0,0,0,265.11,258.971Z" style="fill:#949494"/></svg>