<?xml version="1.0" encoding="UTF-8"?><svg id="a" xmlns="http://www.w3.org/2000/svg" viewBox="0 0 480 480"><g id="b"><path d="M257.07,111.04c1.61,2.85-1.62,7.76-7.21,10.96s-11.44,3.48-13.05.63,1.62-7.76,7.21-10.96,11.44-3.48,13.05-.63" style="fill:#949494;"/><path d="M199.69,190.51c8.17,8.19,19.25,12.81,30.81,12.85,24.45-.06,44.22-19.93,44.16-44.38-.03-11.61-4.62-22.75-12.78-31.01l-62.19,62.53h0Z" style="fill:#292826;"/><path d="M261.88,127.97l-62.19,62.53.13.13c21.79-11.11,51.62-30.64,72.08-46.91-2.19-5.9-5.61-11.27-10.03-15.75" style="fill:#009789;"/><path d="M249.72,96.18c-24.45.16-44.14,20.11-43.97,44.56.08,11.55,4.66,22.61,12.78,30.82l62.19-62.53c-8.21-8.24-19.36-12.86-30.99-12.85" style="fill:#292826;"/><path d="M249.72,96.18c-8.11-.01-16.05,2.24-22.95,6.5-4.28-1.12-8.69-1.68-13.12-1.65-7.27.06-14.44,1.67-21.04,4.71-.7.32-1.02,1.15-.7,1.85.18.41.55.7.99.79,7.16,1.49,13.53,5.54,17.91,11.4-5.38,10.29-6.52,22.27-3.2,33.39,1.21-2.72,2.7-5.32,4.44-7.74,4.04-5.55,8.31-8.44,14.62-12.7,4.65-3.14,11.1-6.83,29.65-14.45,4.76-1.54,9.32-3.64,13.58-6.26,3.1-1.84,5.46-3.58,6.21-6.31.05-.19.1-.38.14-.57-7.62-5.82-16.95-8.97-26.54-8.96" style="fill:#262523;"/><rect x="168.97" y="78.74" width="142.05" height="142.05" rx="17" ry="17" style="fill:#949494;"/></g><g id="c"><path d="M230.83,206.42c-13.01-.04-25.2-5.13-34.37-14.32-1.95-1.96-1.94-5.12,0-7.07,1.96-1.95,5.12-1.94,7.07,0,7.28,7.31,16.97,11.35,27.29,11.38,21.62-.05,39.19-17.71,39.14-39.37-.03-10.36-4.05-20.13-11.34-27.5-1.94-1.96-1.92-5.13.04-7.07,1.96-1.94,5.13-1.92,7.07.04,9.14,9.25,14.19,21.5,14.22,34.51.07,27.17-21.98,49.32-49.14,49.39h0Z" style="fill:none; stroke:#292826; stroke-miterlimit:10; stroke-width:4px;"/><path d="M250.21,89.24c13.01.04,25.2,5.13,34.37,14.32,1.95,1.96,1.94,5.12-.01,7.07-1.96,1.95-5.12,1.94-7.07-.01-7.28-7.31-16.97-11.35-27.29-11.38-21.62.05-39.19,17.71-39.14,39.37.03,10.36,4.05,20.13,11.34,27.5,1.94,1.96,1.92,5.13-.04,7.07-1.96,1.94-5.13,1.92-7.07-.04-9.14-9.25-14.19-21.5-14.22-34.51-.07-27.17,21.98-49.32,49.14-49.39h0Z" style="fill:none; stroke:#292826; stroke-miterlimit:10; stroke-width:4px;"/></g><path d="M143.96,247.12c1.36-7.8,8.72-14.44,18.16-14.44,3.68,0,6.24,1.16,8.36,2.96,1.12.92.96,2.2-.28,3.36l-1.92,1.84c-1.2,1.16-2.24,1.08-3.4.2-1.24-.88-2.72-1.16-4.04-1.16-4.36,0-7.76,3.2-8.48,7.24-.72,4.04,1.56,7.24,5.92,7.24,1.32,0,2.84-.28,4.44-1.16,1.48-.88,2.52-.96,3.32.2l1.28,1.84c.84,1.2.64,2.36-.68,3.24-2.84,1.88-5.88,3.08-9.64,3.08-9.44,0-14.4-6.64-13.04-14.44Z" style="fill:#949494;"/><path d="M172.75,252.4l1.72-9.92c.28-1.56,1.28-2.4,2.84-2.4h3.44c1.56,0,2.24.84,1.96,2.4l-1.6,9.12c-.28,1.64-.24,3.56,1.88,3.56s2.76-1.92,3.04-3.56l1.6-9.12c.28-1.56,1.28-2.4,2.84-2.4h3.44c1.56,0,2.24.84,1.96,2.4l-2.84,16.24c-.28,1.56-1.28,2.4-2.84,2.4h-3.44c-1.56,0-2.24-.84-1.96-2.4l.04-.2c-1.52,1.88-3.56,3.04-6.4,3.04-6.52,0-6.28-5.72-5.68-9.16Z" style="fill:#949494;"/><path d="M216.27,241.32l-.8,4.4c-.2,1.28-1.04,1.84-2.04,1.76-.32-.04-.6-.04-.88-.04-3.36,0-4.6,2.32-4.96,4.52l-1.2,6.76c-.28,1.56-1.28,2.4-2.84,2.4h-3.44c-1.56,0-2.24-.84-1.96-2.4l2.84-16.24c.28-1.56,1.28-2.4,2.84-2.4h3.12c1.56,0,2.24.84,1.96,2.4l-.36,2.04c1.44-4.28,5.04-4.88,6.16-4.88h.48c1.12,0,1.2.92,1.08,1.68Z" style="fill:#949494;"/><path d="M223.23,259.32l-4.48-16.44c-.48-1.64.48-2.8,2.28-2.8h3.8c1.4,0,2.2.6,2.4,1.96l1.68,10.2,5.36-10.2c.68-1.32,1.68-1.96,3.08-1.96h3.84c1.8,0,2.4,1.16,1.36,2.8l-10.28,16.44c-.76,1.24-1.76,1.8-3.12,1.8h-3.44c-1.36,0-2.12-.56-2.48-1.8Z" style="fill:#949494;"/><path d="M243.23,250.68c1.04-5.76,6.12-11.04,13.72-11.04,6.64,0,10.88,4,9.72,10.72-.24,1.32-1.36,1.88-2.84,1.88h-13.2c-.2,1.16,1.32,3.16,4.88,3.16.96,0,2.28-.16,3.84-.84,1.48-.64,2.56-.56,3.2.64l.52.84c.68,1.2.4,2.52-1.08,3.4-2.64,1.52-5.6,2.12-8.32,2.12-7.76,0-11.48-4.84-10.44-10.88ZM259.55,248.44c.24-2.04-1.52-3.04-3.56-3.04s-4.2,1-4.68,3.04h8.24Z" style="fill:#949494;"/><path d="M271.31,253.84l1.4-7.8h-1.68c-.76,0-1.12-.44-1-1.2l.64-3.56c.12-.76.64-1.2,1.4-1.2h2.56l1.32-3.72c.36-.96,1.08-1.44,2.04-1.44h3.12c1.04,0,1.48.56,1.32,1.6l-.64,3.56h3.8c.76,0,1.12.44,1,1.2l-.64,3.56c-.12.76-.64,1.2-1.4,1.2h-3.8l-1.4,7.88c-.16.92.2,1.28.76,1.28.84,0,1.28-.84,1.4-1.6.04-.2.04-.28.08-.64.08-.84.44-1.28,1.24-1.28h2.96c.64,0,1.12.24,1.2.88.12.52.08,1.08.04,1.64-1.04,5.88-5.48,7.36-9.08,7.36s-7.72-1.56-6.64-7.72Z" style="fill:#949494;"/><path d="M291.63,253.84l1.4-7.8h-1.68c-.76,0-1.12-.44-1-1.2l.64-3.56c.12-.76.64-1.2,1.4-1.2h2.56l1.32-3.72c.36-.96,1.08-1.44,2.04-1.44h3.12c1.04,0,1.48.56,1.32,1.6l-.64,3.56h3.8c.76,0,1.12.44,1,1.2l-.64,3.56c-.12.76-.64,1.2-1.4,1.2h-3.8l-1.4,7.88c-.16.92.2,1.28.76,1.28.84,0,1.28-.84,1.4-1.6.04-.2.04-.28.08-.64.08-.84.44-1.28,1.24-1.28h2.96c.64,0,1.12.24,1.2.88.12.52.08,1.08.04,1.64-1.04,5.88-5.48,7.36-9.08,7.36s-7.72-1.56-6.64-7.72Z" style="fill:#949494;"/><path d="M310.35,250.6c1.12-6.36,6.2-10.96,11.8-10.96,2.72,0,4.68,1.16,5.44,3.08l.04-.24c.28-1.56,1.28-2.4,2.84-2.4h3.44c1.56,0,2.24.84,1.96,2.4l-2.84,16.24c-.28,1.56-1.28,2.4-2.84,2.4h-3.44c-1.56,0-2.24-.84-1.96-2.4l.04-.2c-1.48,1.88-3.84,3.04-6.56,3.04-5.6,0-9.04-4.6-7.92-10.96ZM326.35,250.6c.44-2.64-.68-4.68-3.08-4.68s-4.24,2.04-4.68,4.68c-.48,2.64.64,4.68,3.04,4.68s4.24-2.04,4.72-4.68Z" style="fill:#949494;"/><path d="M180.5,297.16c-.32-1.52.68-2.56,2.24-2.92l2.4-.52c1.44-.32,2.04.28,2.68,1.56.6,1.24,1.88,1.88,3.8,1.88s3.36-.64,3.6-2c.12-.68-.08-1.56-1.96-2.2l-2.96-1.2c-1.28-.44-7.76-2.24-6.76-8.2.92-5.4,6.12-8.88,12.24-8.88,4.32,0,7.04,1.72,8.28,4.92.6,1.44-.32,2.64-1.96,3.08l-2.24.6c-1.44.4-2.12-.16-2.92-1.28-.4-.56-1.08-.92-2.16-.92-1.36,0-2.72.56-2.92,1.76-.16.8.28,1.52,1.88,2.12l2.96,1.08c5.84,2.16,7.32,4.88,6.76,8.84-1.08,5.96-6.92,8.68-13,8.68-5.52,0-9.12-2.28-9.96-6.4Z" style="fill:#949494;"/><path d="M206.62,300.72l4.24-24.12c.28-1.56,1.28-2.4,2.84-2.4h3.44c1.56,0,2.24.84,1.96,2.4l-4.24,24.12c-.28,1.56-1.28,2.4-2.84,2.4h-3.44c-1.56,0-2.24-.84-1.96-2.4Z" style="fill:#949494;"/><path d="M219.97,300.72l2.84-16.24c.28-1.56,1.28-2.4,2.84-2.4h3.44c1.56,0,2.24.84,1.96,2.4l-2.84,16.24c-.28,1.56-1.28,2.4-2.84,2.4h-3.44c-1.56,0-2.24-.84-1.96-2.4ZM223.65,277.12c.36-2.08,2.12-3.68,5.24-3.68s4.32,1.6,3.96,3.68c-.36,2.08-2.28,3.68-5.24,3.68s-4.32-1.6-3.96-3.68Z" style="fill:#949494;"/><path d="M233.65,292.6c1.04-6.08,7.08-10.96,14.28-10.96,2.36,0,4.8.56,6.68,1.8,1.16.84,1,2.12-.24,3.36l-1.2,1.2c-1.12,1.16-2.12,1.16-3.4.52-.92-.4-1.76-.52-2.4-.52-2.72,0-5.04,1.92-5.48,4.6-.48,2.68,1.12,4.6,3.84,4.6.64,0,1.56-.12,2.6-.52,1.48-.64,2.56-.68,3.28.48l.76,1.24c.76,1.2.48,2.56-1.08,3.36-2.28,1.24-4.92,1.8-7.24,1.8-7.2,0-11.48-4.88-10.4-10.96Z" style="fill:#949494;"/><path d="M256.85,292.68c1.04-5.76,6.12-11.04,13.72-11.04,6.64,0,10.88,4,9.72,10.72-.24,1.32-1.36,1.88-2.84,1.88h-13.2c-.2,1.16,1.32,3.16,4.88,3.16.96,0,2.28-.16,3.84-.84,1.48-.64,2.56-.56,3.2.64l.52.84c.68,1.2.4,2.52-1.08,3.4-2.64,1.52-5.6,2.12-8.32,2.12-7.76,0-11.48-4.84-10.44-10.88ZM273.17,290.44c.24-2.04-1.52-3.04-3.56-3.04s-4.2,1-4.68,3.04h8.24Z" style="fill:#949494;"/><path d="M300.85,283.32l-.8,4.4c-.2,1.28-1.04,1.84-2.04,1.76-.32-.04-.6-.04-.88-.04-3.36,0-4.6,2.32-4.96,4.52l-1.2,6.76c-.28,1.56-1.28,2.4-2.84,2.4h-3.44c-1.56,0-2.24-.84-1.96-2.4l2.84-16.24c.28-1.56,1.28-2.4,2.84-2.4h3.12c1.56,0,2.24.84,1.96,2.4l-.36,2.04c1.44-4.28,5.04-4.88,6.16-4.88h.48c1.12,0,1.2.92,1.08,1.68Z" style="fill:#949494;"/></svg>