<?xml version="1.0" encoding="UTF-8"?><svg id="a" xmlns="http://www.w3.org/2000/svg" width="480" height="480" viewBox="0 0 480 480"><g id="b"><rect id="c" x="168.97" y="78.74" width="142.05" height="142.05" rx="17" ry="17" style="fill:#949494;"/></g><path d="M225.75,276.97c-1.21,0-2.2.98-2.2,2.2v21.99c0,1.21.98,2.2,2.2,2.2s2.2-.98,2.2-2.2v-21.99c0-1.21-.98-2.2-2.2-2.2Z" style="fill:#949494;"/><path d="M283.44,276.97h-5.26c-7.27,0-13.19,5.92-13.19,13.19s5.92,13.19,13.19,13.19h5.26c1.21,0,2.2-.98,2.2-2.2s-.98-2.2-2.2-2.2h-5.26c-4.85,0-8.8-3.95-8.8-8.8s3.95-8.8,8.8-8.8h5.26c1.21,0,2.2-.98,2.2-2.2s-.98-2.2-2.2-2.2Z" style="fill:#949494;"/><path d="M283.44,287.96h-6.39c-1.21,0-2.2.98-2.2,2.2s.98,2.2,2.2,2.2h6.39c1.21,0,2.2-.98,2.2-2.2s-.98-2.2-2.2-2.2Z" style="fill:#949494;"/><path d="M181.81,303.36h-10.65c-1.21,0-2.19-.98-2.19-2.19s.98-2.19,2.19-2.19h10.65c1.83,0,3.32-1.49,3.32-3.32s-1.49-3.32-3.32-3.32h-5.15c-4.24,0-7.69-3.45-7.69-7.69s3.45-7.69,7.69-7.69h8.71c1.21,0,2.19.98,2.19,2.19s-.98,2.19-2.19,2.19h-8.71c-1.83,0-3.32,1.49-3.32,3.32s1.49,3.32,3.32,3.32h5.15c4.24,0,7.69,3.45,7.69,7.69s-3.45,7.69-7.69,7.69Z" style="fill:#949494;"/><g id="d"><path id="e" d="M199.69,190.51c7.91,7.9,18.79,12.8,30.81,12.85,24.33.1,44.25-19.93,44.16-44.4-.05-12.09-4.92-23.03-12.78-30.98l-62.19,62.53Z" style="fill:#292826;"/></g><g id="f"><path id="g" d="M261.88,127.98l-62.19,62.53s.09.09.13.13c21.79-11.11,51.62-30.64,72.08-46.91-2.21-5.96-5.66-11.32-10.03-15.75" style="fill:#009789;"/></g><g id="h"><path id="i" d="M249.72,96.18c-24.29,0-43.97,19.8-43.97,44.22,0,12.16,4.88,23.17,12.78,31.16l62.19-62.53c-7.95-7.94-18.9-12.85-30.99-12.85" style="fill:#292826;"/></g><g id="j"><path id="k" d="M249.72,96.18c-8.41,0-16.27,2.38-22.95,6.5-3.58-.94-8.02-1.69-13.12-1.65-8.89.06-16.12,2.46-21.04,4.71-1.22.56-1.02,2.37.29,2.64,3.23.68,7.49,2.12,11.7,5.23,2.66,1.96,4.68,4.14,6.21,6.17-3.23,6.16-5.07,13.17-5.07,20.62,0,4.44.65,8.73,1.87,12.78,1.86-4.12,3.81-6.88,4.44-7.74,4.04-5.55,8.31-8.44,14.62-12.7,4.65-3.14,11.1-6.83,29.65-14.45,0,0,5.8-1.63,13.58-6.26,3.1-1.84,5.46-3.58,6.21-6.31.05-.19.1-.38.14-.57-7.38-5.62-16.57-8.96-26.53-8.96" style="fill:#262523;"/></g><g id="l"><path id="m" d="M257.07,111.04c1.61,2.85-1.62,7.76-7.21,10.96-5.6,3.2-11.44,3.48-13.05.63-1.61-2.85,1.62-7.76,7.21-10.96,5.6-3.2,11.44-3.48,13.05-.63" style="fill:#949494;"/></g><path d="M253.77,297.51c-1.78,1.17-4,1.72-6.36,1.32-3.57-.6-6.46-3.44-7.12-7-1.03-5.58,3.24-10.47,8.64-10.47,1.78,0,3.44.53,4.83,1.45.88.58,2.04.48,2.78-.26h0c.97-.97.84-2.6-.29-3.36-2.53-1.7-5.68-2.54-9.04-2.11-5.94.76-10.71,5.6-11.39,11.55-.9,7.96,5.33,14.73,13.11,14.73,2.67,0,5.15-.8,7.23-2.16,1.18-.78,1.38-2.42.38-3.42h0c-.74-.74-1.9-.85-2.77-.27Z" style="fill:#949494;"/><path d="M213.55,298.96h-6.35c-3.03,0-5.5-2.47-5.5-5.5v-14.29c0-1.21-.98-2.2-2.2-2.2s-2.2.98-2.2,2.2v14.29c0,5.46,4.44,9.9,9.9,9.9h6.35c1.21,0,2.2-.98,2.2-2.2s-.98-2.2-2.2-2.2Z" style="fill:#949494;"/><path d="M308.83,281.37h-2.2c-4.82,0-8.75,3.9-8.79,8.72v11.07c0,1.21-.98,2.2-2.2,2.2s-2.2-.98-2.2-2.2v-11.07c.04-7.24,5.94-13.12,13.19-13.12h2.2c1.21,0,2.2.98,2.2,2.2s-.98,2.2-2.2,2.2Z" style="fill:#949494;"/><path d="M186.65,236.65c6.75,0,12.24,5.49,12.24,12.24s-5.49,12.24-12.24,12.24-12.24-5.49-12.24-12.24,5.49-12.24,12.24-12.24M186.65,231.21c-9.76,0-17.68,7.91-17.68,17.68s7.91,17.68,17.68,17.68,17.68-7.91,17.68-17.68-7.91-17.68-17.68-17.68h0Z" style="fill:#009789;"/><path d="M308.31,231.21c-1.5,0-2.72,1.22-2.72,2.72v2.22c-3.18-3.05-7.48-4.94-12.24-4.94-9.76,0-17.68,7.91-17.68,17.68s7.91,17.68,17.68,17.68c4.75,0,9.06-1.89,12.24-4.94v2.22c0,1.5,1.22,2.72,2.72,2.72s2.72-1.22,2.72-2.72v-29.91c0-1.5-1.22-2.72-2.72-2.72ZM293.35,261.12c-6.75,0-12.24-5.49-12.24-12.24s5.49-12.24,12.24-12.24,12.24,5.49,12.24,12.24-5.49,12.24-12.24,12.24Z" style="fill:#009789;"/><path d="M232.52,231.21h-2.72c-9.76,0-17.68,7.91-17.68,17.68v14.96c0,1.5,1.22,2.72,2.72,2.72s2.72-1.22,2.72-2.72v-14.96c0-6.75,5.49-12.24,12.24-12.24h0s2.72,0,2.72,0c1.5,0,2.72-1.22,2.72-2.72s-1.22-2.72-2.72-2.72Z" style="fill:#009789;"/><path d="M265.11,258.97c-2.37,1.63-5.34,2.45-8.51,2.04-5.51-.7-9.94-5.19-10.56-10.71-.84-7.38,4.94-13.66,12.16-13.66,2.55,0,4.91.78,6.87,2.12,1.1.75,2.57.67,3.52-.28h0c1.22-1.22.99-3.23-.43-4.21-3.29-2.25-7.39-3.42-11.77-2.98-8.19.81-14.84,7.37-15.76,15.55-1.19,10.67,7.13,19.71,17.56,19.71,3.71,0,7.15-1.14,10-3.1,1.41-.97,1.61-2.98.4-4.19h0c-.93-.93-2.39-1.05-3.48-.3Z" style="fill:#009789;"/></svg>