<svg xmlns="http://www.w3.org/2000/svg" width="480" height="480" viewBox="0 0 480 480"><rect x="168.974" y="80.544" width="142.052" height="142.052" rx="17" style="fill:#e9e9e9"/><path d="M199.693,192.309a43.716,43.716,0,0,0,30.813,12.851,44.266,44.266,0,0,0,31.375-75.382Z" style="fill:#292826"/><path d="M261.881,129.778l-62.188,62.531c.044.044.09.087.135.131,21.787-11.113,51.619-30.64,72.085-46.914a44.288,44.288,0,0,0-10.032-15.748" style="fill:#009789"/><path d="M249.723,97.98a44.268,44.268,0,0,0-31.193,75.383l62.187-62.531A43.712,43.712,0,0,0,249.723,97.98" style="fill:#292826"/><path d="M249.723,97.98a43.59,43.59,0,0,0-22.952,6.5,50.592,50.592,0,0,0-13.118-1.655,51.253,51.253,0,0,0-21.035,4.715,1.4,1.4,0,0,0,.288,2.644,29.994,29.994,0,0,1,17.908,11.4,44.554,44.554,0,0,0-3.2,33.391,44.117,44.117,0,0,1,4.438-7.74c4.038-5.549,8.308-8.437,14.616-12.7,4.646-3.143,11.1-6.83,29.652-14.454a63.117,63.117,0,0,0,13.584-6.261c3.1-1.844,5.462-3.585,6.209-6.307q.079-.288.144-.568a43.612,43.612,0,0,0-26.535-8.96" style="fill:#262523"/><path d="M257.068,112.841c1.613,2.853-1.615,7.758-7.211,10.958s-11.439,3.482-13.052.63,1.615-7.758,7.211-10.958,11.439-3.482,13.052-.63" style="fill:#fff"/><path d="M225.746,278.771a2.2,2.2,0,0,0-2.2,2.2v21.99a2.2,2.2,0,0,0,4.4,0V280.97A2.2,2.2,0,0,0,225.746,278.771Z" style="fill:#949494"/><path d="M283.441,278.771h-5.255a13.194,13.194,0,0,0,0,26.388h5.255a2.2,2.2,0,1,0,0-4.4h-5.255a8.8,8.8,0,1,1,0-17.592h5.255a2.2,2.2,0,0,0,0-4.4Z" style="fill:#949494"/><path d="M283.441,289.766h-6.392a2.2,2.2,0,1,0,0,4.4h6.392a2.2,2.2,0,1,0,0-4.4Z" style="fill:#949494"/><path d="M181.812,305.159H171.16a2.187,2.187,0,0,1,0-4.373h10.652a3.318,3.318,0,1,0,0-6.635h-5.148a7.691,7.691,0,0,1,0-15.381h8.706a2.187,2.187,0,0,1,0,4.373h-8.706a3.318,3.318,0,1,0,0,6.635h5.148a7.691,7.691,0,0,1,0,15.381Z" style="fill:#949494"/><path d="M253.771,299.308a8.8,8.8,0,1,1-.01-14.692,2.205,2.205,0,0,0,2.783-.262h0a2.192,2.192,0,0,0-.294-3.363,13.194,13.194,0,1,0-.085,22,2.213,2.213,0,0,0,.38-3.418l0,0A2.2,2.2,0,0,0,253.771,299.308Z" style="fill:#949494"/><path d="M213.55,300.761H207.2a5.5,5.5,0,0,1-5.5-5.5V280.969a2.2,2.2,0,1,0-4.4,0v14.294a9.907,9.907,0,0,0,9.895,9.9h6.355a2.2,2.2,0,1,0,0-4.4Z" style="fill:#949494"/><path d="M308.827,283.169h-2.2a8.8,8.8,0,0,0-8.792,8.719V302.96a2.2,2.2,0,0,1-4.4,0V291.888a13.207,13.207,0,0,1,13.19-13.117h2.2a2.2,2.2,0,1,1,0,4.4Z" style="fill:#949494"/><path d="M186.65,238.448a12.236,12.236,0,1,1-12.236,12.235,12.25,12.25,0,0,1,12.236-12.235m0-5.441a17.676,17.676,0,1,0,17.676,17.676,17.676,17.676,0,0,0-17.676-17.676Z" style="fill:#949494"/><path d="M308.306,233.007a2.72,2.72,0,0,0-2.72,2.721v2.218a17.676,17.676,0,1,0,0,25.475v2.218a2.72,2.72,0,1,0,5.44,0V235.728A2.72,2.72,0,0,0,308.306,233.007ZM293.35,262.919a12.236,12.236,0,1,1,12.236-12.236A12.25,12.25,0,0,1,293.35,262.919Z" style="fill:#949494"/><path d="M232.518,233.007H229.8a17.676,17.676,0,0,0-17.676,17.676v14.956a2.72,2.72,0,1,0,5.44,0V250.683A12.25,12.25,0,0,1,229.8,238.448h2.72a2.721,2.721,0,0,0,0-5.441Z" style="fill:#949494"/><path d="M265.11,260.773a12.235,12.235,0,1,1-.04-20.207,2.757,2.757,0,0,0,3.52-.279h0a2.74,2.74,0,0,0-.433-4.207,17.676,17.676,0,1,0,.036,29.182,2.732,2.732,0,0,0,.4-4.185l0,0A2.724,2.724,0,0,0,265.11,260.773Z" style="fill:#949494"/></svg>