<svg xmlns="http://www.w3.org/2000/svg" width="40" height="40" viewBox="0 0 40 40"><path d="M24,19h5v1H24Zm7,0v1h4V19ZM10,20h5V19H10ZM4,20H8V19H4Zm15,9h1V24H19Zm0,6h1V31H19Zm1-18H19v2H17v1h2v2h1V20h2V19H20Zm0-7H19v5h1Zm0-6H19V8h1Z" style="fill:#009688"/><path d="M28.5,17A6.5,6.5,0,1,1,35,10.5,6.508,6.508,0,0,1,28.5,17Zm0-12A5.5,5.5,0,1,0,34,10.5,5.506,5.506,0,0,0,28.5,5Zm-18,12A6.5,6.5,0,1,1,17,10.5,6.508,6.508,0,0,1,10.5,17Zm0-12A5.5,5.5,0,1,0,16,10.5,5.506,5.506,0,0,0,10.5,5Zm0,30A6.5,6.5,0,1,1,17,28.5,6.508,6.508,0,0,1,10.5,35Zm0-12A5.5,5.5,0,1,0,16,28.5,5.507,5.507,0,0,0,10.5,23Zm18,12A6.5,6.5,0,1,1,35,28.5,6.508,6.508,0,0,1,28.5,35Zm0-12A5.5,5.5,0,1,0,34,28.5,5.507,5.507,0,0,0,28.5,23Z" style="fill:#b6b6b6"/></svg>