<svg xmlns="http://www.w3.org/2000/svg" viewBox="0 0 40 40"><path d="M28,18a7,7,0,1,1,7-7A7,7,0,0,1,28,18ZM28,5a6,6,0,1,0,6,6A6,6,0,0,0,28,5ZM11,18a7,7,0,1,1,7-7A7,7,0,0,1,11,18ZM11,5a6,6,0,1,0,6,6A6,6,0,0,0,11,5Zm0,30a7,7,0,1,1,7-7A7,7,0,0,1,11,35Zm0-13a6,6,0,1,0,6,6A6,6,0,0,0,11,22ZM28,35a7,7,0,1,1,7-7A7,7,0,0,1,28,35Zm0-13a6,6,0,1,0,6,6A6,6,0,0,0,28,22Z" style="fill:#b6b6b6"/><path d="M29,19.5a.5.5,0,0,1-.5.5h-4a.5.5,0,0,1,0-1h4A.5.5,0,0,1,29,19.5Zm5.5-.5h-3a.5.5,0,0,0,0,1h3a.5.5,0,0,0,0-1Zm-13,0H20V17.5a.5.5,0,0,0-1,0V19H17.5a.5.5,0,0,0,0,1H19v1.5a.5.5,0,0,0,1,0V20h1.5a.5.5,0,0,0,0-1Zm-7,0h-4a.5.5,0,0,0,0,1h4a.5.5,0,0,0,0-1Zm-7,0h-3a.5.5,0,0,0,0,1h3a.5.5,0,0,0,0-1Zm12,5a.5.5,0,0,0-.5.5v4a.5.5,0,0,0,1,0v-4A.5.5,0,0,0,19.5,24Zm0,7a.5.5,0,0,0-.5.5v3a.5.5,0,0,0,1,0v-3A.5.5,0,0,0,19.5,31Zm0-16a.5.5,0,0,0,.5-.5v-4a.5.5,0,0,0-1,0v4A.5.5,0,0,0,19.5,15Zm0-7a.5.5,0,0,0,.5-.5v-3a.5.5,0,0,0-1,0v3A.5.5,0,0,0,19.5,8Z" style="fill:#009688"/></svg>