<svg width="40" height="40" viewBox="0 0 40 40" fill="none" xmlns="http://www.w3.org/2000/svg">
<path fill-rule="evenodd" clip-rule="evenodd" d="M4.5 3C4.5 2.72386 4.72386 2.5 5 2.5H24.4325C24.5652 2.5 24.6924 2.55271 24.7861 2.64654L28.5011 6.36338C28.5948 6.45714 28.6475 6.58428 28.6475 6.71684V8.56239C28.6475 8.83853 28.4236 9.06239 28.1475 9.06239H11.4439V31.4596C11.4439 31.7358 11.2201 31.9596 10.9439 31.9596H5C4.72386 31.9596 4.5 31.7358 4.5 31.4596V3ZM5.5 3.5V30.9596H10.4439V8.56239C10.4439 8.28624 10.6678 8.06239 10.9439 8.06239H27.6475V6.92388L24.2253 3.5H5.5Z" fill="#B6B6B6"/>
<path fill-rule="evenodd" clip-rule="evenodd" d="M10.4438 8.5625C10.4438 8.28636 10.6677 8.0625 10.9438 8.0625H30.7653C30.9017 8.0625 31.0322 8.11824 31.1265 8.21679L34.4525 11.692C34.5416 11.7851 34.5913 11.9089 34.5913 12.0377V37.0222C34.5913 37.2983 34.3675 37.5222 34.0913 37.5222H10.9438C10.6677 37.5222 10.4438 37.2983 10.4438 37.0222V8.5625ZM11.4438 9.0625V36.5222H33.5913V12.2384L30.5517 9.0625H11.4438Z" fill="#009688"/>
<path fill-rule="evenodd" clip-rule="evenodd" d="M24.5 17H19V24H24.5C26.433 24 28 22.433 28 20.5C28 18.567 26.433 17 24.5 17ZM18 16V25H24.5C26.9853 25 29 22.9853 29 20.5C29 18.0147 26.9853 16 24.5 16H18Z" fill="#009688"/>
<path fill-rule="evenodd" clip-rule="evenodd" d="M18 31V16H19V31H18Z" fill="#009688"/>
</svg>
