<svg width="36" height="36" viewBox="0 0 36 36" fill="none" xmlns="http://www.w3.org/2000/svg">
<path d="M3.30151 3.30176V3.00176H3.00151V3.30176H3.30151ZM23.247 3.30176H23.547V3.00176H23.247V3.30176ZM3.30151 23.2472H3.00151V23.5472H3.30151V23.2472ZM13.2741 23.2472V23.5472H13.5741V23.2472H13.2741ZM13.2741 13.2738V12.9738H12.9741V13.2738H13.2741ZM23.247 13.2738V13.5738H23.547V13.2738H23.247ZM3.30151 3.60176H23.247V3.00176H3.30151V3.60176ZM3.60151 23.2472V3.30176H3.00151V23.2472H3.60151ZM13.2741 22.9472H3.30151V23.5472H13.2741V22.9472ZM13.5741 23.2472V13.2738H12.9741V23.2472H13.5741ZM13.2741 13.5738H23.247V12.9738H13.2741V13.5738ZM22.947 3.30176V13.2738H23.547V3.30176H22.947Z" fill="#323A3D"/>
<path d="M3.30151 3.30176V3.00176H3.00151V3.30176H3.30151ZM23.247 3.30176H23.547V3.00176H23.247V3.30176ZM3.30151 23.2472H3.00151V23.5472H3.30151V23.2472ZM13.2741 23.2472V23.5472H13.5741V23.2472H13.2741ZM13.2741 13.2738V12.9738H12.9741V13.2738H13.2741ZM23.247 13.2738V13.5738H23.547V13.2738H23.247ZM3.30151 3.60176H23.247V3.00176H3.30151V3.60176ZM3.60151 23.2472V3.30176H3.00151V23.2472H3.60151ZM13.2741 22.9472H3.30151V23.5472H13.2741V22.9472ZM13.5741 23.2472V13.2738H12.9741V23.2472H13.5741ZM13.2741 13.5738H23.247V12.9738H13.2741V13.5738ZM22.947 3.30176V13.2738H23.547V3.30176H22.947Z" fill="black" fill-opacity="0.2"/>
<path d="M5.08294 1H1V5.08197H5.08294V1Z" fill="#B9C7CE"/>
<path d="M5.08294 1H1V5.08197H5.08294V1Z" stroke="#323A3D" stroke-width="0.6" stroke-miterlimit="10" stroke-linejoin="round"/>
<path d="M5.08294 1H1V5.08197H5.08294V1Z" stroke="black" stroke-opacity="0.2" stroke-width="0.6" stroke-miterlimit="10" stroke-linejoin="round"/>
<path d="M25.0285 1H20.9456V5.08197H25.0285V1Z" fill="#B9C7CE"/>
<path d="M25.0285 1H20.9456V5.08197H25.0285V1Z" stroke="#323A3D" stroke-width="0.6" stroke-miterlimit="10" stroke-linejoin="round"/>
<path d="M25.0285 1H20.9456V5.08197H25.0285V1Z" stroke="black" stroke-opacity="0.2" stroke-width="0.6" stroke-miterlimit="10" stroke-linejoin="round"/>
<path d="M5.08294 20.9443H1V25.0263H5.08294V20.9443Z" fill="#B9C7CE"/>
<path d="M5.08294 20.9443H1V25.0263H5.08294V20.9443Z" stroke="#323A3D" stroke-width="0.6" stroke-miterlimit="10" stroke-linejoin="round"/>
<path d="M5.08294 20.9443H1V25.0263H5.08294V20.9443Z" stroke="black" stroke-opacity="0.2" stroke-width="0.6" stroke-miterlimit="10" stroke-linejoin="round"/>
<rect x="13.2742" y="13.2734" width="19.9455" height="19.9455" stroke="#323A3D" stroke-width="0.6"/>
<rect x="13.2742" y="13.2734" width="19.9455" height="19.9455" stroke="black" stroke-opacity="0.2" stroke-width="0.6"/>
<path d="M15.0558 10.9736H10.9729V15.0556H15.0558V10.9736Z" fill="#B9C7CE"/>
<path d="M15.0558 10.9736H10.9729V15.0556H15.0558V10.9736Z" stroke="#323A3D" stroke-width="0.6" stroke-miterlimit="10" stroke-linejoin="round"/>
<path d="M15.0558 10.9736H10.9729V15.0556H15.0558V10.9736Z" stroke="black" stroke-opacity="0.2" stroke-width="0.6" stroke-miterlimit="10" stroke-linejoin="round"/>
<path d="M15.0558 30.918H10.9729V34.9999H15.0558V30.918Z" fill="#B9C7CE"/>
<path d="M15.0558 30.918H10.9729V34.9999H15.0558V30.918Z" stroke="#323A3D" stroke-width="0.6" stroke-miterlimit="10" stroke-linejoin="round"/>
<path d="M15.0558 30.918H10.9729V34.9999H15.0558V30.918Z" stroke="black" stroke-opacity="0.2" stroke-width="0.6" stroke-miterlimit="10" stroke-linejoin="round"/>
<path d="M35.0012 10.9736H30.9182V15.0556H35.0012V10.9736Z" fill="#B9C7CE"/>
<path d="M35.0012 10.9736H30.9182V15.0556H35.0012V10.9736Z" stroke="#323A3D" stroke-width="0.6" stroke-miterlimit="10" stroke-linejoin="round"/>
<path d="M35.0012 10.9736H30.9182V15.0556H35.0012V10.9736Z" stroke="black" stroke-opacity="0.2" stroke-width="0.6" stroke-miterlimit="10" stroke-linejoin="round"/>
<path d="M35.0012 30.918H30.9182V34.9999H35.0012V30.918Z" fill="#B9C7CE"/>
<path d="M35.0012 30.918H30.9182V34.9999H35.0012V30.918Z" stroke="#323A3D" stroke-width="0.6" stroke-miterlimit="10" stroke-linejoin="round"/>
<path d="M35.0012 30.918H30.9182V34.9999H35.0012V30.918Z" stroke="black" stroke-opacity="0.2" stroke-width="0.6" stroke-miterlimit="10" stroke-linejoin="round"/>
</svg>
