<svg width="40" height="41" viewBox="0 0 40 41" fill="none" xmlns="http://www.w3.org/2000/svg">
<path fill-rule="evenodd" clip-rule="evenodd" d="M4.5 3.5C4.5 3.22386 4.72386 3 5 3H24.4325C24.5652 3 24.6924 3.05271 24.7861 3.14654L28.5011 6.86338C28.5948 6.95714 28.6475 7.08428 28.6475 7.21684V9.06239C28.6475 9.33853 28.4236 9.56239 28.1475 9.56239H11.4439V31.9596C11.4439 32.2358 11.2201 32.4596 10.9439 32.4596H5C4.72386 32.4596 4.5 32.2358 4.5 31.9596V3.5ZM5.5 4V31.4596H10.4439V9.06239C10.4439 8.78624 10.6678 8.56239 10.9439 8.56239H27.6475V7.42388L24.2253 4H5.5Z" fill="#2B3436"/>
<path fill-rule="evenodd" clip-rule="evenodd" d="M10.4438 9.0625C10.4438 8.78636 10.6677 8.5625 10.9438 8.5625H30.7653C30.9017 8.5625 31.0322 8.61824 31.1265 8.71679L34.4525 12.192C34.5416 12.2851 34.5913 12.4089 34.5913 12.5377V37.5222C34.5913 37.7983 34.3675 38.0222 34.0913 38.0222H10.9438C10.6677 38.0222 10.4438 37.7983 10.4438 37.5222V9.0625ZM11.4438 9.5625V37.0222H33.5913V12.7384L30.5517 9.5625H11.4438Z" fill="#009688"/>
<path fill-rule="evenodd" clip-rule="evenodd" d="M24.5 17.5H19V24.5H24.5C26.433 24.5 28 22.933 28 21C28 19.067 26.433 17.5 24.5 17.5ZM18 16.5V25.5H24.5C26.9853 25.5 29 23.4853 29 21C29 18.5147 26.9853 16.5 24.5 16.5H18Z" fill="#009688"/>
<path fill-rule="evenodd" clip-rule="evenodd" d="M18 31.5V16.5H19V31.5H18Z" fill="#009688"/>
</svg>
