<svg width="40" height="41" viewBox="0 0 40 41" fill="none" xmlns="http://www.w3.org/2000/svg">
<path fill-rule="evenodd" clip-rule="evenodd" d="M4.5 3.5C4.5 3.22386 4.72386 3 5 3H24.4325C24.5652 3 24.6924 3.05271 24.7861 3.14654L28.5011 6.86338C28.5948 6.95714 28.6475 7.08428 28.6475 7.21684V9.06239C28.6475 9.33853 28.4236 9.56239 28.1475 9.56239H11.4439V31.9596C11.4439 32.2358 11.2201 32.4596 10.9439 32.4596H5C4.72386 32.4596 4.5 32.2358 4.5 31.9596V3.5ZM5.5 4V31.4596H10.4439V9.06239C10.4439 8.78624 10.6678 8.56239 10.9439 8.56239H27.6475V7.42388L24.2253 4H5.5Z" fill="#2B3436"/>
<path fill-rule="evenodd" clip-rule="evenodd" d="M10.4438 9.0625C10.4438 8.78636 10.6677 8.5625 10.9438 8.5625H30.7653C30.9017 8.5625 31.0322 8.61824 31.1265 8.71679L34.4525 12.192C34.5416 12.2851 34.5913 12.4089 34.5913 12.5377V37.5222C34.5913 37.7983 34.3675 38.0222 34.0913 38.0222H10.9438C10.6677 38.0222 10.4438 37.7983 10.4438 37.5222V9.0625ZM11.4438 9.5625V37.0222H33.5913V12.7384L30.5517 9.5625H11.4438Z" fill="#eb4949"/>
<path fill-rule="evenodd" clip-rule="evenodd" d="M27 26.5V20.5C27 18.2909 25.2091 16.5 23 16.5C20.7909 16.5 19 18.2909 19 20.5V26.5C19 28.7091 20.7909 30.5 23 30.5C25.2091 30.5 27 28.7091 27 26.5ZM23 15.5C20.2386 15.5 18 17.7386 18 20.5V26.5C18 29.2614 20.2386 31.5 23 31.5C25.7614 31.5 28 29.2614 28 26.5V20.5C28 17.7386 25.7614 15.5 23 15.5Z" fill="#eb4949"/>
</svg>
