<svg xmlns="http://www.w3.org/2000/svg" width="40" height="40" viewBox="0 0 40 40"><path d="M24,19h5v1H24Zm7,0v1h4V19ZM10,20h5V19H10ZM4,20H8V19H4Zm15,9h1V24H19Zm0,6h1V31H19Zm1-18H19v2H17v1h2v2h1V20h2V19H20Zm0-7H19v5h1Zm0-6H19V8h1Z" style="fill:#009688"/><path d="M17,35H10.5A6.508,6.508,0,0,1,4,28.5V22H17ZM5,23v5.5A5.507,5.507,0,0,0,10.5,34H16V23ZM28.5,35H22V22H35v6.5A6.508,6.508,0,0,1,28.5,35ZM23,34h5.5A5.507,5.507,0,0,0,34,28.5V23H23ZM17,17H4V10.5A6.508,6.508,0,0,1,10.5,4H17ZM5,16H16V5H10.5A5.506,5.506,0,0,0,5,10.5Zm30,1H22V4h6.5A6.508,6.508,0,0,1,35,10.5ZM23,16H34V10.5A5.506,5.506,0,0,0,28.5,5H23Z" style="fill:#b6b6b6"/></svg>