<svg width="40" height="40" viewBox="0 0 40 40" fill="none" xmlns="http://www.w3.org/2000/svg">
<path d="M28.1475 8.56239V6.71684L24.4325 3H5V31.4596H10.9439V8.56239H28.1475Z" stroke="#2B3436" stroke-miterlimit="10" stroke-linecap="round" stroke-linejoin="round"/>
<path d="M28.1474 8.56348H10.9438V31.4607V37.0232H34.0913V12.0387L30.7653 8.56348H28.1474Z" stroke="#2B3436" stroke-miterlimit="10" stroke-linejoin="round"/>
<path d="M30.1219 21.2354C30.1219 21.0709 30.0122 20.9578 29.8526 20.9012C29.0448 20.7367 28.3965 20.2329 27.9627 19.4567C27.5289 18.7318 27.4242 17.8424 27.6934 17.0096C27.7483 16.8965 27.6934 16.732 27.5837 16.6189C26.8308 15.8941 25.9631 15.3954 25.0456 15.0612C24.9359 15.0047 24.7763 15.0613 24.6666 15.1744C24.128 15.8427 23.3152 16.1768 22.5074 16.1768C21.6996 16.1768 20.9416 15.7861 20.3482 15.1744C20.2385 15.0613 20.1338 15.0098 19.9693 15.0612C19.0517 15.4519 18.1891 15.9506 17.4311 16.6189C17.3214 16.6755 17.2715 16.84 17.3214 17.0096C17.5358 17.8424 17.481 18.6804 17.0521 19.4567C16.6732 20.1815 15.975 20.6802 15.1622 20.9012C15.0525 20.9578 14.9478 21.0657 14.893 21.2354C14.7833 21.7906 14.7334 22.2944 14.7334 22.793C14.7334 23.2917 14.7883 23.8521 14.893 24.3507C14.893 24.5152 15.0027 24.6284 15.1622 24.6849C15.9701 24.8494 16.6183 25.3532 17.0521 26.1295C17.486 26.8543 17.5907 27.7437 17.3214 28.5765C17.2666 28.6896 17.3214 28.8541 17.4311 28.9672C18.1841 29.6921 19.0517 30.1907 19.9693 30.5249H20.079C20.1887 30.5249 20.2934 30.4683 20.3482 30.4118C20.8868 29.7435 21.6996 29.4093 22.5074 29.4093C23.3152 29.4093 24.0732 29.8 24.6666 30.4118C24.7763 30.5249 24.881 30.5763 25.0456 30.5249C25.9631 30.1342 26.8258 29.6355 27.5837 28.9672C27.6934 28.9106 27.7433 28.7461 27.6934 28.5765C27.479 27.7437 27.5339 26.9057 27.9627 26.1295C28.3417 25.4046 29.0398 24.906 29.8526 24.6849C29.9623 24.6284 30.067 24.5204 30.1219 24.3507C30.2316 23.7955 30.2814 23.2917 30.2814 22.793C30.2814 22.2944 30.2316 21.7341 30.1219 21.2354ZM22.5174 25.4046C21.1212 25.4046 19.9842 24.2376 19.9842 22.793C19.9842 21.3536 21.1162 20.1815 22.5174 20.1815C23.9186 20.1815 25.0506 21.3485 25.0506 22.793C25.0456 24.2325 23.9136 25.4046 22.5174 25.4046Z" fill="#B9C7CE" stroke="#2B3436" stroke-miterlimit="10"/>
<path d="M24.3876 3.05371L24.2878 6.74997L28.1225 6.79107L24.3876 3.05371Z" fill="#B9C7CE" stroke="#2B3436" stroke-miterlimit="10" stroke-linecap="round" stroke-linejoin="round"/>
<path d="M30.5856 8.56738L30.4958 12.0734L34.1261 12.1094L30.5856 8.56738Z" fill="#B9C7CE" stroke="#2B3436" stroke-miterlimit="10" stroke-linecap="round" stroke-linejoin="round"/>
</svg>
