<svg xmlns="http://www.w3.org/2000/svg" viewBox="0 0 40 40"><path d="M29,19.5a.5.5,0,0,1-.5.5h-4a.5.5,0,0,1,0-1h4A.5.5,0,0,1,29,19.5Zm5.5-.5h-3a.5.5,0,0,0,0,1h3a.5.5,0,0,0,0-1Zm-13,0H20V17.5a.5.5,0,0,0-1,0V19H17.5a.5.5,0,0,0,0,1H19v1.5a.5.5,0,0,0,1,0V20h1.5a.5.5,0,0,0,0-1Zm-7,0h-4a.5.5,0,0,0,0,1h4a.5.5,0,0,0,0-1Zm-7,0h-3a.5.5,0,0,0,0,1h3a.5.5,0,0,0,0-1Zm12,5a.5.5,0,0,0-.5.5v4a.5.5,0,0,0,1,0v-4A.5.5,0,0,0,19.5,24Zm0,7a.5.5,0,0,0-.5.5v3a.5.5,0,0,0,1,0v-3A.5.5,0,0,0,19.5,31Zm0-16a.5.5,0,0,0,.5-.5v-4a.5.5,0,0,0-1,0v4A.5.5,0,0,0,19.5,15Zm0-7a.5.5,0,0,0,.5-.5v-3a.5.5,0,0,0-1,0v3A.5.5,0,0,0,19.5,8Z" style="fill:#009688"/><path d="M17.5,35H11a7,7,0,0,1-7-7V21.5a.5.5,0,0,1,.5-.5h13a.5.5,0,0,1,.5.5v13A.5.5,0,0,1,17.5,35ZM5,22v6a6,6,0,0,0,6,6h6V22ZM28,35H21.5a.5.5,0,0,1-.5-.5v-13a.5.5,0,0,1,.5-.5h13a.5.5,0,0,1,.5.5V28A7,7,0,0,1,28,35Zm-6-1h6a6,6,0,0,0,6-6V22H22ZM17.5,18H4.5a.5.5,0,0,1-.5-.5V11a7,7,0,0,1,7-7h6.5a.5.5,0,0,1,.5.5v13A.5.5,0,0,1,17.5,18ZM5,17H17V5H11a6,6,0,0,0-6,6Zm29.5,1h-13a.5.5,0,0,1-.5-.5V4.5a.5.5,0,0,1,.5-.5H28a7,7,0,0,1,7,7v6.5A.5.5,0,0,1,34.5,18ZM22,17H34V11a6,6,0,0,0-6-6H22Z" style="fill:#2b3436"/></svg>