<!-- Original file from https://github.com/Donkie/Spoolman/blob/master/client/icons/spoolman.svg -->
<svg xmlns="http://www.w3.org/2000/svg" xmlns:svg="http://www.w3.org/2000/svg" id="svg8" width="220" height="220"
     version="1.1" viewBox="0 0 220 220" xml:space="preserve"><desc id="desc1">Created with Fabric.js 5.3.0</desc>
    <path style="stroke:#000;stroke-width:0;stroke-dasharray:none;stroke-linecap:butt;stroke-dashoffset:0;stroke-linejoin:miter;stroke-miterlimit:4;fill:#009688;fill-rule:nonzero;opacity:1"
          id="path1" stroke-linecap="round"
          d="M -116.77741 -67.23295 C -116.77741 -94.5956 -94.5956 -116.77741 -67.23295 -116.77741 L 67.23295 -116.77741 L 67.23295 -116.77741 C 94.5956 -116.77741 116.77741 -94.5956 116.77741 -67.23295 L 116.77741 67.23295 L 116.77741 67.23295 C 116.77741 94.5956 94.5956 116.77741 67.23295 116.77741 L -67.23295 116.77741 L -67.23295 116.77741 C -94.5956 116.77741 -116.77741 94.5956 -116.77741 67.23295 z"
          transform="matrix(0.941963,0,0,0.941963,110,110)" vector-effect="non-scaling-stroke"/>
    <path style="stroke:#598ec7;stroke-width:0;stroke-dasharray:none;stroke-linecap:butt;stroke-dashoffset:0;stroke-linejoin:miter;stroke-miterlimit:4;fill:#343434;fill-rule:nonzero;opacity:1"
          id="path2" stroke-linecap="round"
          d="M 0 -22.46181 C 12.39892 -22.46181 22.46181 -12.39892 22.46181 0 C 22.46181 12.39892 12.39892 22.46181 0 22.46181 C -12.39892 22.46181 -22.46181 12.39892 -22.46181 0 C -22.46181 -12.39892 -12.39892 -22.46181 0 -22.46181 z"
          transform="matrix(4.0068,0,0,4.0068,110,110)" vector-effect="non-scaling-stroke"/>
    <path style="stroke:#fff;stroke-width:0;stroke-dasharray:none;stroke-linecap:butt;stroke-dashoffset:0;stroke-linejoin:miter;stroke-miterlimit:4;fill:#111;fill-rule:nonzero;opacity:1"
          id="path3" stroke-linecap="round"
          d="M -33.16071 25.30347 C -35.26675 24.713710000000003 -37.021860000000004 23.25476 -37.98653 21.29195 C -38.95121 19.32914 -39.0341 17.04834 -38.21447 15.020669999999999 L -38.21447 15.020669999999999 L -38.21447 15.020669999999999 C -28.42178 -9.205020000000001 -9.211359999999999 -28.41564 15.014230000000005 -38.20859 L 15.047580000000005 -38.22207 L 15.047580000000005 -38.22207 C 17.067020000000007 -39.03841 19.338600000000007 -38.95586 21.293460000000003 -37.995110000000004 C 23.248330000000003 -37.03435 24.701380000000004 -35.286350000000006 25.288750000000004 -33.188840000000006 L 37.998650000000005 12.198379999999993 L 37.998650000000005 12.198379999999993 C 40.03828000000001 19.481909999999992 37.990640000000006 27.299259999999993 32.64228000000001 32.64761999999999 C 27.293920000000007 37.99597999999999 19.476570000000006 40.04361999999999 12.193040000000007 38.00398999999999 z"
          transform="matrix(-0.65629473,0.65629473,-0.65629473,-0.65629473,169.99999,109.99999)"
          vector-effect="non-scaling-stroke"/>
    <path style="stroke:#fff;stroke-width:0;stroke-dasharray:none;stroke-linecap:butt;stroke-dashoffset:0;stroke-linejoin:miter;stroke-miterlimit:4;fill:#bebebe;fill-rule:nonzero;opacity:1"
          id="path4" stroke-linecap="round"
          d="M -29.98183 19.80196 L -29.17187 17.09468 L -29.17187 17.09468 C -22.390079999999998 -5.573499999999999 -4.466099999999997 -23.18579 18.31756 -29.568920000000002 L 19.88717 -30.008660000000003 L 29.21402 3.473359999999996 L 29.21402 3.473359999999996 C 31.243070000000003 10.757369999999996 29.183770000000003 18.569419999999994 23.82768 23.906659999999995 C 18.47159 29.243899999999996 10.652330000000001 31.275649999999995 3.375510000000002 29.220929999999996 z"
          transform="matrix(-0.65629473,0.65629473,-0.65629473,-0.65629473,158.49213,110.08398)"
          vector-effect="non-scaling-stroke"/>
    <path style="stroke:#fff;stroke-width:0;stroke-dasharray:none;stroke-linecap:butt;stroke-dashoffset:0;stroke-linejoin:miter;stroke-miterlimit:4;fill:#111;fill-rule:nonzero;opacity:1"
          id="path5" stroke-linecap="round"
          d="M -33.16071 25.30347 C -35.26675 24.713710000000003 -37.021860000000004 23.25476 -37.98653 21.29195 C -38.95121 19.32914 -39.0341 17.04834 -38.21447 15.020669999999999 L -38.21447 15.020669999999999 L -38.21447 15.020669999999999 C -28.42178 -9.205020000000001 -9.211359999999999 -28.41564 15.014230000000005 -38.20859 L 15.047580000000005 -38.22207 L 15.047580000000005 -38.22207 C 17.067020000000007 -39.03841 19.338600000000007 -38.95586 21.293460000000003 -37.995110000000004 C 23.248330000000003 -37.03435 24.701380000000004 -35.286350000000006 25.288750000000004 -33.188840000000006 L 37.998650000000005 12.198379999999993 L 37.998650000000005 12.198379999999993 C 40.03828000000001 19.481909999999992 37.990640000000006 27.299259999999993 32.64228000000001 32.64761999999999 C 27.293920000000007 37.99597999999999 19.476570000000006 40.04361999999999 12.193040000000007 38.00398999999999 z"
          transform="matrix(-0.24022054,-0.89651527,0.89651527,-0.24022054,81.095899,162.73972)"
          vector-effect="non-scaling-stroke"/>
    <path style="stroke:#fff;stroke-width:0;stroke-dasharray:none;stroke-linecap:butt;stroke-dashoffset:0;stroke-linejoin:miter;stroke-miterlimit:4;fill:#bebebe;fill-rule:nonzero;opacity:1"
          id="path6" stroke-linecap="round"
          d="M -29.98183 19.80196 L -29.17187 17.09468 L -29.17187 17.09468 C -22.390079999999998 -5.573499999999999 -4.466099999999997 -23.18579 18.31756 -29.568920000000002 L 19.88717 -30.008660000000003 L 29.21402 3.473359999999996 L 29.21402 3.473359999999996 C 31.243070000000003 10.757369999999996 29.183770000000003 18.569419999999994 23.82768 23.906659999999995 C 18.47159 29.243899999999996 10.652330000000001 31.275649999999995 3.375510000000002 29.220929999999996 z"
          transform="matrix(-0.24022054,-0.89651527,0.89651527,-0.24022054,86.7771,152.73163)"
          vector-effect="non-scaling-stroke"/>
    <path style="stroke:#fff;stroke-width:0;stroke-dasharray:none;stroke-linecap:butt;stroke-dashoffset:0;stroke-linejoin:miter;stroke-miterlimit:4;fill:#111;fill-rule:nonzero;opacity:1"
          id="path7" stroke-linecap="round"
          d="M -33.16071 25.30347 C -35.26675 24.713710000000003 -37.021860000000004 23.25476 -37.98653 21.29195 C -38.95121 19.32914 -39.0341 17.04834 -38.21447 15.020669999999999 L -38.21447 15.020669999999999 L -38.21447 15.020669999999999 C -28.42178 -9.205020000000001 -9.211359999999999 -28.41564 15.014230000000005 -38.20859 L 15.047580000000005 -38.22207 L 15.047580000000005 -38.22207 C 17.067020000000007 -39.03841 19.338600000000007 -38.95586 21.293460000000003 -37.995110000000004 C 23.248330000000003 -37.03435 24.701380000000004 -35.286350000000006 25.288750000000004 -33.188840000000006 L 37.998650000000005 12.198379999999993 L 37.998650000000005 12.198379999999993 C 40.03828000000001 19.481909999999992 37.990640000000006 27.299259999999993 32.64228000000001 32.64761999999999 C 27.293920000000007 37.99597999999999 19.476570000000006 40.04361999999999 12.193040000000007 38.00398999999999 z"
          transform="matrix(0.89651527,0.24022054,-0.24022054,0.89651527,80.684929,58.484107)"
          vector-effect="non-scaling-stroke"/>
    <path style="stroke:#fff;stroke-width:0;stroke-dasharray:none;stroke-linecap:butt;stroke-dashoffset:0;stroke-linejoin:miter;stroke-miterlimit:4;fill:#bebebe;fill-rule:nonzero;opacity:1"
          id="path8" stroke-linecap="round"
          d="M -29.98183 19.80196 L -29.17187 17.09468 L -29.17187 17.09468 C -22.390079999999998 -5.573499999999999 -4.466099999999997 -23.18579 18.31756 -29.568920000000002 L 19.88717 -30.008660000000003 L 29.21402 3.473359999999996 L 29.21402 3.473359999999996 C 31.243070000000003 10.757369999999996 29.183770000000003 18.569419999999994 23.82768 23.906659999999995 C 18.47159 29.243899999999996 10.652330000000001 31.275649999999995 3.375510000000002 29.220929999999996 z"
          transform="matrix(0.89651527,0.24022054,-0.24022054,0.89651527,86.511593,68.408219)"
          vector-effect="non-scaling-stroke"/></svg>