<svg width="407" height="141" viewBox="0 0 407 141" fill="none" xmlns="http://www.w3.org/2000/svg">
<path d="M29.635 14.6721L70.408 1.42417L111.181 14.6721L136.38 49.3557V92.2269L111.181 126.91L70.408 140.158L29.635 126.91L4.43594 92.2269V49.3557L29.635 14.6721Z" stroke="#262E30"/>
<path d="M309.925 6.6897L336.476 1.40823L363.028 6.6897L385.538 21.7301L400.578 44.2396L405.859 70.7913L400.578 97.343L385.538 119.852L363.028 134.893L336.476 140.174L309.925 134.893L287.415 119.852L272.375 97.343L267.093 70.7913L272.375 44.2395L287.415 21.7301L309.925 6.6897Z" stroke="#262E30"/>
<path d="M257.937 80.4962C258.328 80.1057 258.328 79.4725 257.937 79.082L251.573 72.718C251.183 72.3275 250.549 72.3275 250.159 72.718C249.768 73.1085 249.768 73.7417 250.159 74.1322L255.816 79.7891L250.159 85.4459C249.768 85.8364 249.768 86.4696 250.159 86.8601C250.549 87.2507 251.183 87.2507 251.573 86.8601L257.937 80.4962ZM152 80.7891L257.23 80.7891L257.23 78.7891L152 78.7891L152 80.7891Z" fill="#262E30"/>
</svg>
