<svg width="407" height="141" viewBox="0 0 407 141" fill="none" xmlns="http://www.w3.org/2000/svg">
<path d="M377.365 14.672L336.592 1.42407L295.819 14.672L270.62 49.3556V92.2268L295.819 126.91L336.592 140.158L377.365 126.91L402.564 92.2268V49.3556L377.365 14.672Z" stroke="#262E30"/>
<path d="M97.075 6.68967L70.524 1.4082L43.972 6.68967L21.462 21.7301L6.42197 44.2396L1.14096 70.7913L6.42197 97.343L21.462 119.852L43.972 134.893L70.524 140.174L97.075 134.893L119.585 119.852L134.625 97.343L139.907 70.7913L134.625 44.2395L119.585 21.7301L97.075 6.68967Z" stroke="#262E30"/>
<path d="M149.063 80.4961C148.672 80.1056 148.672 79.4724 149.063 79.0819L155.427 72.7179C155.817 72.3274 156.451 72.3274 156.841 72.7179C157.232 73.1084 157.232 73.7416 156.841 74.1321L151.184 79.789L156.841 85.4458C157.232 85.8363 157.232 86.4695 156.841 86.86C156.451 87.2506 155.817 87.2506 155.427 86.86L149.063 80.4961ZM255 80.789H149.77V78.789H255V80.789Z" fill="#262E30"/>
</svg>
