<svg width="20" height="20" viewBox="0 0 20 20" fill="none" xmlns="http://www.w3.org/2000/svg">
<circle cx="10" cy="10" r="10" fill="#00AE42"/>
<path d="M8.604 13.894H13.238V15H6.7V14.202L10.018 10.506C10.6433 9.81533 11.0727 9.274 11.306 8.882C11.5393 8.48067 11.656 8.04667 11.656 7.58C11.656 6.98267 11.4927 6.52067 11.166 6.194C10.8393 5.86733 10.4287 5.704 9.934 5.704C9.43 5.704 8.98667 5.87667 8.604 6.222C8.22133 6.558 7.946 7.006 7.778 7.566L6.77 6.992C6.97533 6.22667 7.38133 5.634 7.988 5.214C8.59467 4.78467 9.27133 4.57 10.018 4.57C10.5593 4.57 11.054 4.68667 11.502 4.92C11.95 5.144 12.3047 5.48 12.566 5.928C12.8367 6.36667 12.972 6.89867 12.972 7.524C12.972 8.13067 12.8227 8.70467 12.524 9.246C12.2253 9.78733 11.7027 10.4687 10.956 11.29L8.604 13.894Z" fill="white"/>
</svg>
