<?xml version="1.0" encoding="UTF-8" standalone="no"?>
<!-- Created with Inkscape (http://www.inkscape.org/) -->

<svg
   version="1.1"
   id="svg2"
   width="814.987"
   height="1023.9927"
   viewBox="0 0 814.987 1023.9927"
   sodipodi:docname="studio_logo.svg"
   inkscape:version="1.4 (86a8ad7, 2024-10-11)"
   xmlns:inkscape="http://www.inkscape.org/namespaces/inkscape"
   xmlns:sodipodi="http://sodipodi.sourceforge.net/DTD/sodipodi-0.dtd"
   xmlns="http://www.w3.org/2000/svg"
   xmlns:svg="http://www.w3.org/2000/svg">
  <defs
     id="defs6">
    <clipPath
       clipPathUnits="userSpaceOnUse"
       id="clipPath16">
      <path
         d="M 0,792 H 612 V 0 H 0 Z"
         id="path14" />
    </clipPath>
  </defs>
  <sodipodi:namedview
     id="namedview4"
     pagecolor="#ffffff"
     bordercolor="#000000"
     borderopacity="0.25"
     inkscape:showpageshadow="2"
     inkscape:pageopacity="0.0"
     inkscape:pagecheckerboard="true"
     inkscape:deskcolor="#d1d1d1"
     showgrid="false"
     inkscape:zoom="0.70710678"
     inkscape:cx="443.35595"
     inkscape:cy="563.56411"
     inkscape:window-width="2400"
     inkscape:window-height="1261"
     inkscape:window-x="-9"
     inkscape:window-y="-9"
     inkscape:window-maximized="1"
     inkscape:current-layer="g8" />
  <g
     id="g8"
     inkscape:groupmode="layer"
     inkscape:label="OrcaS"
     transform="matrix(1.3333333,0,0,-1.3333333,1.3995581e-8,1055.9963)">
    <g
       id="g1"
       transform="matrix(1.0295886,0,0,1.0295886,-11.72975,4.5617124)">
      <path
         d="M 383.37248,326.55785 C 334.95153,277.42093 277.34249,257.47927 211.32654,261.71543 156.84649,265.2009 111.55446,288.4019 74.310491,328.31629 3.1139964,404.69378 4.9386614,528.54712 73.169956,601.99196 c 41.609974,44.77073 92.148074,70.38194 153.830824,72.20661 61.74693,1.82441 112.2851,-22.93946 156.43551,-68.65497 0,17.30206 0.45685,31.83486 -0.15314,46.30214 -0.39113,9.28654 2.67291,12.90333 12.1545,12.47985 13.97833,-0.58766 27.9894,-0.32542 42.0004,-0.0874 7.10379,0.1308 9.7111,-2.80217 9.7111,-9.93806 -0.2297,-113.0673 0.22715,-226.13441 -0.68394,-339.17 -0.26033,-32.19256 -4.20342,-64.48364 -17.30161,-94.59179 C 406.61483,168.69736 366.95937,135.9181 313.19625,121.02696 245.61539,102.32264 179.04644,105.061 115.70269,137.41595 73.278171,159.08458 45.613995,194.66627 27.138861,237.97106 c -2.54159,5.93039 -1.238924,8.40665 5.376306,8.37385 17.269708,-0.1308 34.50662,-0.15313 51.776328,0 5.24608,0.0657 8.40684,-2.28107 11.04606,-6.48449 30.107885,-48.25704 74.976505,-68.88199 130.500225,-70.44684 33.78868,-0.94395 65.98296,4.07383 96.31896,19.84486 33.20376,17.26888 51.90655,44.4764 57.28311,81.13456 2.60553,17.92104 3.5512,35.97321 4.03957,56.14258 z M 85.324005,466.27839 c -0.84773,-50.70024 19.485515,-88.01063 56.794365,-116.16229 34.01806,-25.67699 73.3148,-32.12875 114.69577,-27.40423 53.86317,6.15832 95.27693,32.19429 116.45725,82.79626 20.85281,49.82208 17.78992,100.03401 -13.78314,145.06583 -33.33336,47.57291 -80.84137,66.11338 -138.32114,60.67174 C 144.6599,604.01219 85.324005,539.52791 85.324005,466.24565 Z"
         fill="#d72828"
         id="path1"
         style="stroke-width:16.3872" />
      <path
         d="m 538.60186,357.83952 c 32.06317,0 56.40324,-23.98282 56.40324,-55.65421 0,-31.34547 -25.02503,-56.72922 -56.04426,-56.86034 -30.92263,-0.1308 -56.33917,25.31822 -56.40476,56.5013 -0.0657,31.76997 24.17768,56.01325 56.07858,56.01325 z"
         fill="#d72828"
         id="path2"
         style="stroke-width:16.3872" />
    </g>
  </g>
</svg>
