<svg xmlns="http://www.w3.org/2000/svg" viewBox="0 0 16 16"><path d="M6.5,14.5h-5a1,1,0,0,1-1-1V1.5a1,1,0,0,1,1-1h12a1,1,0,0,1,1,1v5" style="fill:none;stroke:#949494;stroke-linecap:round;stroke-linejoin:round"/><path d="M4.5,2.5H3a.5.5,0,0,0-.5.5V4a.5.5,0,0,0,.5.5H4a.5.5,0,0,1,.5.5V6a.5.5,0,0,1-.5.5H2.5" style="fill:none;stroke:#009688;stroke-linecap:round;stroke-linejoin:round"/><path d="M12.5,2.5H11a.5.5,0,0,0-.5.5V6a.5.5,0,0,0,.5.5h1.5v-2" style="fill:none;stroke:#009688;stroke-linecap:round;stroke-linejoin:round"/><polyline points="8.5 2.5 8.5 5.5 7.5 6.5 6.5 5.5 6.5 2.5" style="fill:none;stroke:#009688;stroke-linecap:round;stroke-linejoin:round"/><path d="M15,11.5A3.5,3.5,0,1,1,11.5,8,3.5,3.5,0,0,1,15,11.5ZM14,11H12V9H11v2H9v1h2v2h1V12h2Z" style="fill:#009688"/></svg>