<svg width="19" height="19" viewBox="0 0 19 19" fill="none" xmlns="http://www.w3.org/2000/svg">
<rect x="0.316895" y="0.822266" width="18.0016" height="18" rx="9" fill="white"/>
<path fill-rule="evenodd" clip-rule="evenodd" d="M12.1704 3.36849C12.4355 3.13675 12.8383 3.1638 13.0701 3.4289L16.0049 6.78623C16.5773 7.44106 16.1122 8.46525 15.2425 8.46525H2.56724C2.21513 8.46525 1.92969 8.17981 1.92969 7.82769C1.92969 7.47558 2.21513 7.19014 2.56724 7.19014H14.6643L12.11 4.2681C11.8783 4.003 11.9053 3.60023 12.1704 3.36849Z" fill="#00AE42"/>
<path fill-rule="evenodd" clip-rule="evenodd" d="M6.4654 16.2756C6.2003 16.5073 5.79753 16.4803 5.56579 16.2152L2.63099 12.8578C2.05858 12.203 2.52362 11.1788 3.39337 11.1788L16.0686 11.1788C16.4207 11.1788 16.7062 11.4643 16.7062 11.8164C16.7062 12.1685 16.4207 12.4539 16.0686 12.4539L3.97153 12.4539L6.52582 15.376C6.75756 15.6411 6.73051 16.0438 6.4654 16.2756Z" fill="#00AE42"/>
</svg>
