<svg xmlns="http://www.w3.org/2000/svg" width="20" height="20" viewBox="0 0 20 20"><path d="M7.5,17.5h-5a1,1,0,0,1-1-1v-5" style="fill:none;stroke:#fff;stroke-linecap:square;stroke-miterlimit:10"/><path d="M17.5,11.5v5a1,1,0,0,1-1,1h-5" style="fill:none;stroke:#fff;stroke-linecap:square;stroke-miterlimit:10"/><path d="M11.5,2.5h5a1,1,0,0,1,1,1v4" style="fill:none;stroke:#fff;stroke-linecap:square;stroke-miterlimit:10"/><path d="M1.5,7.5v-4a1,1,0,0,1,1-1h5" style="fill:none;stroke:#fff;stroke-linecap:square;stroke-miterlimit:10"/><line x1="9.5" y1="2.5" x2="9.5" y2="4.5" style="fill:none;stroke:#fff;stroke-linecap:square;stroke-miterlimit:10"/><line x1="9.5" y1="7.5" x2="9.5" y2="11.5" style="fill:none;stroke:#fff;stroke-linecap:square;stroke-miterlimit:10"/><line x1="9.5" y1="14.5" x2="9.5" y2="17.5" style="fill:none;stroke:#fff;stroke-linecap:square;stroke-miterlimit:10"/><line x1="17.5" y1="9.5" x2="14.5" y2="9.5" style="fill:none;stroke:#fff;stroke-linecap:square;stroke-miterlimit:10"/><line x1="4.5" y1="9.5" x2="1.5" y2="9.5" style="fill:none;stroke:#fff;stroke-linecap:square;stroke-miterlimit:10"/><line x1="11.5" y1="9.5" x2="7.5" y2="9.5" style="fill:none;stroke:#fff;stroke-linecap:square;stroke-miterlimit:10"/></svg>