<svg width="18" height="18" viewBox="0 0 18 18" fill="none" xmlns="http://www.w3.org/2000/svg">
<path d="M2.23222 6.30567L8.75806 10.0014C8.82343 10.0296 8.89292 10.0432 8.96414 10.0442C9.0326 10.0442 9.11499 10.016 9.16935 10.0025L15.7755 6.30549C15.9257 6.2298 16.0146 6.06487 15.9978 5.89225C16.0033 5.7225 15.9112 5.56559 15.7635 5.49259L9.23867 2.05355C9.11482 1.98215 8.96431 1.98215 8.84063 2.05355L2.24736 5.49276C2.0965 5.56399 1.99966 5.72036 2 5.89243C2 6.07825 2.08136 6.21998 2.23222 6.30567ZM9.0326 2.96659L14.6091 5.92046L8.96414 9.07496L3.3866 5.92064L9.0326 2.96659Z" fill="white"/>
<path d="M2.50708 6.26074V12.1727C2.50708 12.2808 2.56524 12.3805 2.65932 12.4338L8.81225 15.9161C8.90393 15.968 9.0161 15.968 9.10778 15.9161L15.2607 12.4338C15.3548 12.3805 15.4129 12.2808 15.4129 12.1727V6.26074" stroke="white" stroke-width="0.8" stroke-linecap="round"/>
</svg>
