<svg xmlns="http://www.w3.org/2000/svg" viewBox="0 0 20 20"><path d="M16.5,2H4.5A1.5,1.5,0,0,0,3,3.5v12A1.5,1.5,0,0,0,4.5,17h12A1.5,1.5,0,0,0,18,15.5V3.5A1.5,1.5,0,0,0,16.5,2ZM17,15.5a.5.5,0,0,1-.5.5H4.5a.5.5,0,0,1-.5-.5V3.5A.5.5,0,0,1,4.5,3h12a.5.5,0,0,1,.5.5Zm-9-2a.5.5,0,0,1-.5.5h-1a.5.5,0,0,1,0-1h1A.5.5,0,0,1,8,13.5Zm7,0a.5.5,0,0,1-.5.5h-5a.5.5,0,0,1,0-1h5A.5.5,0,0,1,15,13.5Zm-7-4a.5.5,0,0,1-.5.5h-1a.5.5,0,0,1,0-1h1A.5.5,0,0,1,8,9.5Zm7,0a.5.5,0,0,1-.5.5h-5a.5.5,0,0,1,0-1h5A.5.5,0,0,1,15,9.5Zm-7-4a.5.5,0,0,1-.5.5h-1a.5.5,0,0,1,0-1h1A.5.5,0,0,1,8,5.5Zm7,0a.5.5,0,0,1-.5.5h-5a.5.5,0,0,1,0-1h5A.5.5,0,0,1,15,5.5Z" style="fill:#fff"/></svg>