<svg width="16" height="15" viewBox="0 0 16 15" fill="none" xmlns="http://www.w3.org/2000/svg">
<path d="M1.88298 7.32558H1.30663C0.847929 7.32558 0.631321 6.75953 0.972844 6.45331L7.82924 0.305723C8.0222 0.13271 8.31538 0.135818 8.50463 0.312882L15.0753 6.46047C15.4065 6.77031 15.1873 7.32558 14.7337 7.32558H14.117C13.8409 7.32558 13.617 7.54944 13.617 7.82558V14.5C13.617 14.7761 13.3932 15 13.117 15H9.69149C9.41535 15 9.19149 14.7761 9.19149 14.5V10.2674C9.19149 9.9913 8.96763 9.76744 8.69149 9.76744H7.30851C7.03237 9.76744 6.80851 9.9913 6.80851 10.2674V14.5C6.80851 14.7761 6.58465 15 6.30851 15H2.88298C2.60684 15 2.38298 14.7761 2.38298 14.5V7.82558C2.38298 7.54944 2.15912 7.32558 1.88298 7.32558Z" fill="white"/>
</svg>
