<svg width="18" height="18" viewBox="0 0 18 18" fill="none" xmlns="http://www.w3.org/2000/svg">
<path fill-rule="evenodd" clip-rule="evenodd" d="M1.72266 1.87109C1.44651 1.87109 1.22266 2.09495 1.22266 2.37109V6.61085C1.22266 6.88699 1.44651 7.11085 1.72266 7.11085H4.7726C4.77186 7.12198 4.77148 7.13321 4.77148 7.14453V8.00956C4.77148 8.03825 4.7739 8.06638 4.77854 8.09375H3.62305C3.3469 8.09375 3.12305 8.31761 3.12305 8.59375C3.12305 8.86989 3.3469 9.09375 3.62305 9.09375H7.25294C7.52908 9.09375 7.75294 8.86989 7.75294 8.59375C7.75294 8.31761 7.52908 8.09375 7.25294 8.09375H5.76443C5.76907 8.06638 5.77148 8.03825 5.77148 8.00956V7.14453C5.77148 7.13321 5.77111 7.12198 5.77037 7.11085H8.755C9.03114 7.11085 9.255 6.88699 9.255 6.61085V2.37109C9.255 2.09495 9.03114 1.87109 8.755 1.87109H1.72266ZM2.22266 2.87109V6.11085H8.255V2.87109H2.22266Z" fill="#F8F8F8"/>
<path d="M16.7705 2.51172C16.7705 2.23558 16.5466 2.01172 16.2705 2.01172L12.8463 2.01172C12.5702 2.01172 12.3463 2.23558 12.3463 2.51172C12.3463 2.78786 12.5702 3.01172 12.8463 3.01172L15.7705 3.01172V6.11035C15.7705 6.38649 15.9944 6.61035 16.2705 6.61035C16.5466 6.61035 16.7705 6.38649 16.7705 6.11035V2.51172Z" fill="#F8F8F8"/>
<path d="M1.88281 15.5586C1.88281 15.8347 2.10667 16.0586 2.38281 16.0586H5.807C6.08315 16.0586 6.307 15.8347 6.307 15.5586C6.307 15.2825 6.08315 15.0586 5.807 15.0586H2.88281L2.88281 11.96C2.88281 11.6838 2.65895 11.46 2.38281 11.46C2.10667 11.46 1.88281 11.6838 1.88281 11.96L1.88281 15.5586Z" fill="#F8F8F8"/>
<path d="M11.8574 13.7578C11.8574 13.4817 12.0813 13.2578 12.3574 13.2578H14.3655C14.6416 13.2578 14.8655 13.4817 14.8655 13.7578C14.8655 14.034 14.6416 14.2578 14.3655 14.2578H12.3574C12.0813 14.2578 11.8574 14.034 11.8574 13.7578Z" fill="#F8F8F8"/>
<path fill-rule="evenodd" clip-rule="evenodd" d="M10.1221 9.61719C10.1221 9.34104 10.3459 9.11719 10.6221 9.11719H16.2773C16.5534 9.11719 16.7773 9.34104 16.7773 9.61719V15.6307C16.7773 15.9068 16.5534 16.1307 16.2773 16.1307H10.6221C10.3459 16.1307 10.1221 15.9068 10.1221 15.6307V9.61719ZM12.8662 10.1172H11.1221V15.1307H15.7773V10.1172H13.8662V11.513C13.8662 11.7892 13.6424 12.013 13.3662 12.013C13.0901 12.013 12.8662 11.7892 12.8662 11.513V10.1172Z" fill="#F8F8F8"/>
</svg>
