<svg width="18" height="18" viewBox="0 0 18 18" fill="none" xmlns="http://www.w3.org/2000/svg">
<path d="M8.91667 7.96053V3.42763C8.91667 3.17105 8.75 3 8.5 3C8.25 3 8.08333 3.17105 8.08333 3.42763V7.96053C7.41667 8.13158 6.91667 8.73026 6.91667 9.5C6.91667 10.2697 7.41667 10.8684 8.08333 11.0395V15.5724C8.08333 15.8289 8.25 16 8.5 16C8.75 16 8.91667 15.8289 8.91667 15.5724V11.0395C9.58333 10.8684 10.0833 10.2697 10.0833 9.5C10.0833 8.73026 9.58333 8.13158 8.91667 7.96053ZM8.91667 10.1842C8.75 10.2697 8.66667 10.2697 8.5 10.2697C8.33333 10.2697 8.25 10.1842 8.08333 10.1842C7.83333 10.0987 7.66667 9.75658 7.66667 9.5C7.66667 9.15789 7.83333 8.90132 8.08333 8.81579C8.25 8.73026 8.33333 8.64474 8.5 8.64474C8.66667 8.64474 8.75 8.73026 8.91667 8.73026C9.16667 8.90132 9.33333 9.15789 9.33333 9.5C9.33333 9.75658 9.16667 10.0987 8.91667 10.1842ZM4 10.6974V3.42763C4 3.17105 3.83333 3 3.58333 3C3.33333 3 3.16667 3.17105 3.16667 3.42763V10.6974C2.5 10.8684 2 11.4671 2 12.2368C2 13.0066 2.5 13.6053 3.16667 13.7763V15.5724C3.16667 15.8289 3.33333 16 3.58333 16C3.83333 16 4 15.8289 4 15.5724V13.7763C4.66667 13.6053 5.16667 13.0066 5.16667 12.2368C5.16667 11.4671 4.66667 10.8684 4 10.6974ZM4 12.9211C3.91667 13.0066 3.75 13.0066 3.58333 13.0066C3.41667 13.0066 3.33333 12.9211 3.16667 12.9211C2.91667 12.75 2.75 12.4934 2.75 12.2368C2.75 11.8947 2.91667 11.6382 3.16667 11.5526C3.25 11.4671 3.41667 11.4671 3.58333 11.4671C3.75 11.4671 3.83333 11.5526 4 11.5526C4.25 11.7237 4.41667 11.9803 4.41667 12.2368C4.41667 12.4934 4.25 12.75 4 12.9211ZM13.8333 5.22368V3.42763C13.8333 3.17105 13.6667 3 13.4167 3C13.1667 3 13 3.17105 13 3.42763V5.22368C12.3333 5.39474 11.8333 5.99342 11.8333 6.76316C11.8333 7.53289 12.3333 8.13158 13 8.30263V15.5724C13 15.8289 13.1667 16 13.4167 16C13.6667 16 13.8333 15.8289 13.8333 15.5724V8.30263C14.5 8.13158 15 7.53289 15 6.76316C15 5.99342 14.5 5.39474 13.8333 5.22368ZM13.8333 7.44737C13.75 7.53289 13.5833 7.53289 13.4167 7.53289C13.25 7.53289 13.1667 7.44737 13 7.44737C12.75 7.27632 12.5833 7.01974 12.5833 6.76316C12.5833 6.42105 12.75 6.16447 13 6.07895C13.0833 5.99342 13.25 5.99342 13.4167 5.99342C13.5833 5.99342 13.6667 6.07895 13.8333 6.07895C14.0833 6.25 14.25 6.50658 14.25 6.76316C14.25 7.10526 14.0833 7.36184 13.8333 7.44737Z" fill="#ACACAC"/>
</svg>
