<svg xmlns="http://www.w3.org/2000/svg" viewBox="0 0 20 20"><path d="M3.25,6.93l7,4a.48.48,0,0,0,.5,0l7-4a.49.49,0,0,0,0-.86l-7-4a.5.5,0,0,0-.5,0l-7,4a.49.49,0,0,0,0,.86ZM10.5,3.08l6,3.42-6,3.42-6-3.42ZM18,9.5a.49.49,0,0,1-.25.43l-7,4a.48.48,0,0,1-.5,0l-7-4a.49.49,0,0,1,0-.86l.88-.5a.49.49,0,1,1,.49.86l-.11.07,6,3.42,6-3.42-.11-.07a.49.49,0,1,1,.49-.86l.88.5A.49.49,0,0,1,18,9.5Zm0,3a.5.5,0,0,1-.25.43l-7,4a.48.48,0,0,1-.5,0l-7-4a.49.49,0,0,1,0-.86l.88-.5a.49.49,0,1,1,.49.86l-.11.07,6,3.42,6-3.42-.11-.07a.49.49,0,1,1,.49-.86l.88.5A.5.5,0,0,1,18,12.5Z" style="fill:#fff"/></svg>