<svg width="18" height="18" viewBox="0 0 18 18" fill="none" xmlns="http://www.w3.org/2000/svg">
<path d="M2.30974 6.12634L8.79893 9.66813C8.86393 9.69516 8.93303 9.70816 9.00385 9.70919C9.07193 9.70919 9.15386 9.68216 9.20791 9.66916L15.777 6.12617C15.9263 6.05363 16.0147 5.89557 15.998 5.73014C16.0034 5.56746 15.9119 5.41709 15.765 5.34712L9.27684 2.05132C9.15369 1.98289 9.00402 1.98289 8.88104 2.05132L2.32479 5.34729C2.17478 5.41555 2.07848 5.5654 2.07883 5.73031C2.07883 5.9084 2.16076 6.04422 2.31077 6.12634H2.30974ZM9.07192 2.92633L14.6171 5.75717L9.00385 8.78029L3.45764 5.75734L9.07192 2.92736V2.92633ZM15.6819 8.56132L14.3852 7.90425L13.4554 8.41027L14.5492 8.97018L8.93492 11.9931L3.38973 8.9712L4.55063 8.38324L3.62184 7.87722L2.242 8.56115C1.92813 8.72521 1.91513 9.17614 2.22901 9.3402L8.71683 12.8822C8.78491 12.9222 8.86684 12.9372 8.93492 12.9372C9.00693 12.9384 9.07808 12.9195 9.13983 12.8822L15.6959 9.3402C15.8423 9.26373 15.933 9.11114 15.9301 8.94588C15.9272 8.78063 15.831 8.63129 15.6819 8.5603V8.56132V8.56132ZM15.6819 11.6241L14.452 11.0221L13.5241 11.5282L14.549 12.0342L8.93492 15.0561L3.38973 12.0342L4.46955 11.5422L3.53974 11.0362L2.24286 11.6243C1.92882 11.7884 1.91496 12.2393 2.22883 12.4042L8.71683 15.945C8.79876 15.973 8.85281 16.0001 8.93492 16.0001C9.00693 16.0013 9.07808 15.9823 9.13983 15.945L15.6959 12.403C15.8423 12.3265 15.933 12.1738 15.9301 12.0087C15.9272 11.8434 15.831 11.6941 15.6819 11.6231V11.6241V11.6241Z" fill="white"/>
</svg>
