<svg width="18" height="18" viewBox="0 0 18 18" fill="none" xmlns="http://www.w3.org/2000/svg">
<path d="M9.00019 3.16602C9.38756 3.16602 9.76582 3.20475 10.135 3.27539C10.315 3.30957 10.6317 3.41439 10.8049 3.7334C10.8505 3.81771 10.8869 3.90658 10.9097 4.00228L11.1216 4.87956C11.1535 5.01172 11.3768 5.1416 11.5067 5.10286L12.3726 4.84766C12.4637 4.82031 12.5572 4.80664 12.6506 4.80436C13.0174 4.79297 13.2658 5.01855 13.3866 5.15527C13.8902 5.72721 14.2775 6.39941 14.5236 7.12174C14.5829 7.29492 14.6512 7.61849 14.4621 7.92839C14.412 8.01042 14.3505 8.08789 14.2798 8.15625L13.6258 8.77832C13.5301 8.86947 13.5301 9.13151 13.6258 9.22266L14.2798 9.84473C14.3505 9.91309 14.412 9.99056 14.4621 10.0726C14.649 10.3825 14.5806 10.706 14.5236 10.8792C14.2775 11.6016 13.8902 12.2715 13.3866 12.8457C13.2658 12.9824 13.0152 13.208 12.6506 13.1966C12.5572 13.1943 12.4637 13.1784 12.3726 13.1533L11.5067 12.8958C11.3768 12.8571 11.1535 12.987 11.1216 13.1191L10.9097 13.9964C10.8869 14.0921 10.8505 14.1833 10.8049 14.2653C10.6294 14.5843 10.3127 14.6868 10.135 14.7233C9.76582 14.7939 9.38756 14.8327 9.00019 14.8327C8.61282 14.8327 8.23457 14.7939 7.86543 14.7233C7.68542 14.6891 7.36868 14.5843 7.19551 14.2653C7.14993 14.181 7.11348 14.0921 7.09069 13.9964L6.87877 13.1191C6.84687 12.987 6.62357 12.8571 6.49368 12.8958L5.6278 13.151C5.53665 13.1784 5.44323 13.1921 5.3498 13.1943C4.98294 13.2057 4.73457 12.9801 4.6138 12.8434C4.1125 12.2715 3.72285 11.5993 3.47676 10.8769C3.41751 10.7038 3.34915 10.3802 3.53828 10.0703C3.58841 9.98828 3.64993 9.91081 3.72057 9.84245L4.37454 9.22038C4.47025 9.12923 4.47025 8.86719 4.37454 8.77604L3.71829 8.15397C3.64766 8.08561 3.58613 8.00814 3.536 7.92611C3.34915 7.61621 3.41751 7.29264 3.47676 7.12174C3.72285 6.39941 4.11022 5.72949 4.6138 5.15527C4.73457 5.01855 4.98522 4.79297 5.3498 4.80436C5.44323 4.80664 5.53665 4.82259 5.6278 4.84766L6.49368 5.10286C6.62357 5.1416 6.84687 5.01172 6.87877 4.87956L7.09069 4.00228C7.11348 3.90658 7.14993 3.81543 7.19551 3.7334C7.37096 3.41439 7.68769 3.31185 7.86543 3.27539C8.23457 3.20475 8.61282 3.16602 9.00019 3.16602ZM8.13659 4.33724L7.9429 5.13704C7.76517 5.87305 6.91068 6.36523 6.18379 6.15332L5.39766 5.9209C5.02168 6.36068 4.72545 6.87109 4.53177 7.41797L5.12877 7.98535C5.67565 8.50488 5.67565 9.49381 5.12877 10.0133L4.53177 10.5807C4.72545 11.1276 5.02168 11.638 5.39766 12.0778L6.18607 11.8454C6.91068 11.6312 7.76745 12.1257 7.94518 12.8617L8.13887 13.6615C8.69941 13.764 9.30781 13.764 9.86836 13.6615L10.062 12.8617C10.2398 12.1257 11.0943 11.6335 11.8212 11.8454L12.6096 12.0778C12.9855 11.638 13.2818 11.1276 13.4755 10.5807L12.8784 10.0133C12.3316 9.49381 12.3316 8.50488 12.8784 7.98535L13.4755 7.41797C13.2818 6.87109 12.9855 6.36068 12.6096 5.9209L11.8212 6.15332C11.0965 6.36751 10.2398 5.87305 10.062 5.13704L9.86836 4.33724C9.30781 4.2347 8.69941 4.2347 8.13887 4.33724H8.13659Z" fill="white"/>
<path d="M6.75935 8.48777C6.67327 8.56784 6.62354 8.68031 6.62354 8.7985C6.62354 9.03298 6.81483 9.22361 7.05012 9.22361H8.15388V11.0537C8.15388 11.3911 8.42743 11.6637 8.76602 11.6637H9.37816C9.71675 11.6637 9.9903 11.3911 9.9903 11.0537V9.22361H11.0941C11.3294 9.22361 11.5207 9.03298 11.5207 8.7985C11.5207 8.68031 11.4709 8.56784 11.3848 8.48777L9.33607 6.58336C9.26338 6.51664 9.16965 6.47852 9.07209 6.47852C8.97453 6.47852 8.87889 6.51664 8.80811 6.58336L6.75935 8.48777Z" fill="white"/>
</svg>
