<svg width="20" height="20" viewBox="0 0 20 20" fill="none" xmlns="http://www.w3.org/2000/svg">
<path d="M11.676 10.236C12.588 10.604 13.044 11.268 13.044 12.228C13.044 13.028 12.744 13.656 12.144 14.112C11.544 14.56 10.72 14.784 9.672 14.784H6V6H9.372C10.316 6 11.092 6.212 11.7 6.636C12.308 7.06 12.612 7.676 12.612 8.484C12.612 9.268 12.3 9.852 11.676 10.236ZM8.004 7.764V9.492H9.204C9.596 9.492 9.908 9.408 10.14 9.24C10.372 9.072 10.488 8.848 10.488 8.568C10.488 8.304 10.376 8.104 10.152 7.968C9.928 7.832 9.612 7.764 9.204 7.764H8.004ZM9.552 13.008C9.984 13.008 10.32 12.932 10.56 12.78C10.8 12.62 10.92 12.396 10.92 12.108C10.92 11.82 10.796 11.596 10.548 11.436C10.308 11.268 9.972 11.184 9.54 11.184H8.004V13.008H9.552Z" fill="#262E30"/>
</svg>
