<svg width="20" height="20" viewBox="0 0 20 20" fill="none" xmlns="http://www.w3.org/2000/svg">
<rect width="20" height="20" rx="2" fill="#EEEEEE"/>
<path d="M12.2195 10.0622C13.1315 10.4302 13.5875 11.0942 13.5875 12.0542C13.5875 12.8542 13.2875 13.4822 12.6875 13.9382C12.0875 14.3862 11.2635 14.6102 10.2155 14.6102H6.54346V5.82617H9.91546C10.8595 5.82617 11.6355 6.03817 12.2435 6.46217C12.8515 6.88617 13.1555 7.50217 13.1555 8.31017C13.1555 9.09417 12.8435 9.67817 12.2195 10.0622ZM8.54746 7.59017V9.31817H9.74746C10.1395 9.31817 10.4515 9.23417 10.6835 9.06617C10.9155 8.89817 11.0315 8.67417 11.0315 8.39417C11.0315 8.13017 10.9195 7.93017 10.6955 7.79417C10.4715 7.65817 10.1555 7.59017 9.74746 7.59017H8.54746ZM10.0955 12.8342C10.5275 12.8342 10.8635 12.7582 11.1035 12.6062C11.3435 12.4462 11.4635 12.2222 11.4635 11.9342C11.4635 11.6462 11.3395 11.4222 11.0915 11.2622C10.8515 11.0942 10.5155 11.0102 10.0835 11.0102H8.54746V12.8342H10.0955Z" fill="#262E30"/>
</svg>
