<svg xmlns="http://www.w3.org/2000/svg" width="16" height="16" viewBox="0 0 16 16"><rect x="13" y="6" width="1" height="3" transform="translate(21 -6) rotate(90)" style="fill:#009688"/><rect x="1" y="6" width="1" height="3" transform="translate(9 6) rotate(90)" style="fill:#009688"/><rect x="4" y="7" width="1" height="1" transform="translate(12 3) rotate(90)" style="fill:#009688"/><rect x="10" y="7" width="1" height="1" transform="translate(18 -3) rotate(90)" style="fill:#009688"/><rect x="7" y="6" width="1" height="3" transform="translate(15 0) rotate(90)" style="fill:#009688"/><polygon points="0.5 0.5 0.5 1.5 7.5 5.5 14.5 1.5 14.5 0.5 0.5 0.5" style="fill:none;stroke:#949494;stroke-linecap:round;stroke-linejoin:round"/><polygon points="7.5 9.5 0.5 13.5 0.5 14.5 14.5 14.5 14.5 13.5 7.5 9.5" style="fill:none;stroke:#009688;stroke-linecap:round;stroke-linejoin:round"/></svg>