<svg width="20" height="20" viewBox="0 0 20 20" fill="none" xmlns="http://www.w3.org/2000/svg">
<rect x="0.5" y="0.5" width="19" height="19" rx="1.5" fill="#DBFDE7" stroke="#00AE42"/>
<path d="M12.2195 9.236C13.1315 9.604 13.5875 10.268 13.5875 11.228C13.5875 12.028 13.2875 12.656 12.6875 13.112C12.0875 13.56 11.2635 13.784 10.2155 13.784H6.54346V5H9.91546C10.8595 5 11.6355 5.212 12.2435 5.636C12.8515 6.06 13.1555 6.676 13.1555 7.484C13.1555 8.268 12.8435 8.852 12.2195 9.236ZM8.54746 6.764V8.492H9.74746C10.1395 8.492 10.4515 8.408 10.6835 8.24C10.9155 8.072 11.0315 7.848 11.0315 7.568C11.0315 7.304 10.9195 7.104 10.6955 6.968C10.4715 6.832 10.1555 6.764 9.74746 6.764H8.54746ZM10.0955 12.008C10.5275 12.008 10.8635 11.932 11.1035 11.78C11.3435 11.62 11.4635 11.396 11.4635 11.108C11.4635 10.82 11.3395 10.596 11.0915 10.436C10.8515 10.268 10.5155 10.184 10.0835 10.184H8.54746V12.008H10.0955Z" fill="#262E30"/>
</svg>
