<svg width="20" height="20" viewBox="0 0 20 20" fill="none" xmlns="http://www.w3.org/2000/svg">
<path d="M12.219 10.0622C13.131 10.4302 13.587 11.0942 13.587 12.0542C13.587 12.8542 13.287 13.4822 12.687 13.9382C12.087 14.3862 11.263 14.6102 10.215 14.6102H6.54297V5.82617H9.91497C10.859 5.82617 11.635 6.03817 12.243 6.46217C12.851 6.88617 13.155 7.50217 13.155 8.31017C13.155 9.09417 12.843 9.67817 12.219 10.0622ZM8.54697 7.59017V9.31817H9.74697C10.139 9.31817 10.451 9.23417 10.683 9.06617C10.915 8.89817 11.031 8.67417 11.031 8.39417C11.031 8.13017 10.919 7.93017 10.695 7.79417C10.471 7.65817 10.155 7.59017 9.74697 7.59017H8.54697ZM10.095 12.8342C10.527 12.8342 10.863 12.7582 11.103 12.6062C11.343 12.4462 11.463 12.2222 11.463 11.9342C11.463 11.6462 11.339 11.4222 11.091 11.2622C10.851 11.0942 10.515 11.0102 10.083 11.0102H8.54697V12.8342H10.095Z" fill="#B6B6B6"/>
</svg>
