<svg width="28" height="28" viewBox="0 0 28 28" fill="none" xmlns="http://www.w3.org/2000/svg">
<path d="M24.8334 14.0001C24.8334 11.1269 23.692 8.3714 21.6603 6.33974C19.6287 4.30808 16.8731 3.16671 13.9999 3.16671C11.1267 3.16671 8.37122 4.30808 6.33956 6.33974C4.3079 8.3714 3.16652 11.1269 3.16652 14.0001C3.16652 16.8733 4.3079 19.6289 6.33956 21.6605C8.37122 23.6922 11.1267 24.8335 13.9999 24.8335C16.8731 24.8335 19.6287 23.6922 21.6603 21.6605C23.692 19.6289 24.8334 16.8733 24.8334 14.0001ZM0.666504 14.0001C0.666504 10.4639 2.07127 7.07247 4.57178 4.57196C7.07228 2.07146 10.4637 0.666687 13.9999 0.666687C17.5362 0.666687 20.9276 2.07146 23.4281 4.57196C25.9286 7.07247 27.3334 10.4639 27.3334 14.0001C27.3334 17.5364 25.9286 20.9278 23.4281 23.4283C20.9276 25.9288 17.5362 27.3336 13.9999 27.3336C10.4637 27.3336 7.07228 25.9288 4.57178 23.4283C2.07127 20.9278 0.666504 17.5364 0.666504 14.0001ZM9.51033 9.27613C9.92179 8.11466 11.026 7.33341 12.2603 7.33341H15.2968C17.1146 7.33341 18.5833 8.80738 18.5833 10.6199C18.5833 11.797 17.9531 12.8855 16.9323 13.4741L15.25 14.4376C15.2395 15.1147 14.6822 15.6668 13.9999 15.6668C13.3072 15.6668 12.7499 15.1095 12.7499 14.4168V13.7137C12.7499 13.2657 12.9895 12.8543 13.3801 12.6303L15.6875 11.3074C15.9323 11.1668 16.0833 10.9064 16.0833 10.6251C16.0833 10.1876 15.7291 9.83864 15.2968 9.83864H12.2603C12.0833 9.83864 11.927 9.94801 11.8697 10.1147L11.8489 10.1772C11.6197 10.8282 10.901 11.1668 10.2551 10.9376C9.60928 10.7084 9.26553 9.98968 9.4947 9.34384L9.51553 9.28134L9.51033 9.27613ZM12.3333 19.0002C12.3333 18.5581 12.5089 18.1342 12.8214 17.8216C13.134 17.5091 13.5579 17.3335 13.9999 17.3335C14.442 17.3335 14.8659 17.5091 15.1785 17.8216C15.491 18.1342 15.6666 18.5581 15.6666 19.0002C15.6666 19.4422 15.491 19.8661 15.1785 20.1787C14.8659 20.4913 14.442 20.6668 13.9999 20.6668C13.5579 20.6668 13.134 20.4913 12.8214 20.1787C12.5089 19.8661 12.3333 19.4422 12.3333 19.0002Z" fill="#858585"/>
</svg>
