<svg width="256" height="256" viewBox="0 0 256 256" fill="none" xmlns="http://www.w3.org/2000/svg">
<path d="M0 0H256V256H0V0Z" fill="white"/>
<path fill-rule="evenodd" clip-rule="evenodd" d="M14.2222 0H7.11111V7.11111H0V14.2222H7.11111V21.3333H0V28.4444H7.11111V35.5556H0V42.6667H7.11111V35.5556H14.2222V42.6667H21.3333V35.5556H28.4444V42.6667H35.5556V35.5556H42.6667V42.6667H49.7778V35.5556H56.8889V42.6667H64V35.5556H71.1111V42.6667H78.2222V35.5556H85.3333V28.4444H78.2222L78.2222 21.3333H85.3333V14.2222H78.2222V7.11111H85.3333V0H78.2222L78.2222 7.11111H71.1111V0H64V7.11111H56.8889V0H49.7778V7.11111H42.6667V0H35.5556V7.11111H28.4444V0H21.3333V7.11111H14.2222V0ZM14.2222 14.2222V7.11111H7.11111V14.2222H14.2222ZM21.3333 14.2222H14.2222V21.3333H7.11111V28.4444H14.2222V35.5556H21.3333V28.4444H28.4444V35.5556H35.5556V28.4444H42.6667V35.5556H49.7778V28.4444H56.8889V35.5556H64V28.4444H71.1111V35.5556H78.2222V28.4444H71.1111V21.3333H78.2222L78.2222 14.2222H71.1111V7.11111H64V14.2222H56.8889V7.11111H49.7778V14.2222H42.6667V7.11111H35.5556V14.2222H28.4444V7.11111H21.3333V14.2222ZM21.3333 21.3333V14.2222H28.4444V21.3333H21.3333ZM35.5556 21.3333V28.4444H28.4444V21.3333H35.5556ZM42.6667 21.3333V14.2222H35.5556V21.3333H42.6667ZM49.7778 21.3333V14.2222H56.8889V21.3333H49.7778ZM64 21.3333H71.1111V14.2222H64V21.3333ZM64 21.3333H56.8889V28.4444H64V21.3333ZM49.7778 21.3333H42.6667V28.4444H49.7778V21.3333ZM21.3333 21.3333V28.4444H14.2222V21.3333H21.3333Z" fill="#D9D9D9"/>
<path fill-rule="evenodd" clip-rule="evenodd" d="M85.3333 42.6665H7.11111V49.7776H0V56.8889H7.11111V64H0V71.1111H7.11111V78.2222H0V85.3332H7.11111V78.2222H14.2222V85.3332H21.3333V78.2222H28.4444V85.3332H35.5556V78.2222H42.6667V85.3332H49.7778V78.2222H56.8889V85.3332H64V78.2222H71.1111V85.3332H78.2222V78.2222H85.3333V71.1111H78.2222L78.2222 64H85.3333V56.8889H78.2222V49.7778H85.3333V42.6665ZM71.1111 49.7778H78.2222L78.2222 42.6667H71.1111V49.7778ZM71.1111 56.8889V49.7778H64V42.6667H56.8889V49.7778H49.7778V42.6667H42.6667V49.7778H35.5556V42.6667H28.4444V49.7778H21.3333V42.6667H14.2222V49.7778H7.11111V56.8889H14.2222V64H7.11111V71.1111H14.2222V78.2222H21.3333V71.1111H28.4444V78.2222H35.5556V71.1111H42.6667V78.2222H49.7778V71.1111H56.8889V78.2222H64V71.1111H71.1111V78.2222H78.2222V71.1111H71.1111V64H78.2222L78.2222 56.8889H71.1111ZM64 56.8889V49.7778H56.8889V56.8889H49.7778V49.7778H42.6667V56.8889H35.5556V49.7778H28.4444V56.8889H21.3333V49.7778H14.2222V56.8889H21.3333V64H14.2222V71.1111H21.3333V64H28.4444V71.1111H35.5556V64H42.6667V71.1111H49.7778V64H56.8889V71.1111H64V64H71.1111V56.8889H64ZM64 56.8889H56.8889V64H64V56.8889ZM49.7778 64H42.6667V56.8889H49.7778V64ZM35.5556 64H28.4444V56.8889H35.5556V64Z" fill="#D9D9D9"/>
<path fill-rule="evenodd" clip-rule="evenodd" d="M14.2222 85.3335H0V85.3337H7.11111V92.4446H14.2222V99.5557H7.11111V92.4448H0V99.5557H7.11111V106.667H0V113.778L7.11111 113.778V120.889H0V128H7.11111V120.889H14.2222V128H21.3333V120.889H28.4444V128H35.5556V120.889H42.6667V128H49.7778V120.889H56.8889V128H64V120.889H71.1111V128H78.2222V120.889H85.3333V113.778H78.2222L78.2222 106.667H85.3333V99.5557H78.2222V92.4446H85.3333V85.3335H78.2222L78.2222 92.4446H71.1111V85.3335H64V92.4446H56.8889V85.3335H49.7778V92.4446H42.6667V85.3335H35.5556V92.4446H28.4444V85.3335H21.3333V92.4446H14.2222V85.3335ZM21.3333 99.5557V92.4446H28.4444V99.5557H21.3333ZM21.3333 106.667V99.5557H14.2222V106.667H7.11111V113.778L14.2222 113.778V120.889H21.3333V113.778L28.4444 113.778V120.889H35.5556V113.778L42.6667 113.778V120.889H49.7778V113.778H56.8889V120.889H64V113.778L71.1111 113.778V120.889H78.2222V113.778H71.1111V106.667H78.2222L78.2222 99.5557H71.1111V92.4446H64V99.5557H56.8889V92.4446H49.7778V99.5557H42.6667V92.4446H35.5556V99.5557H28.4444V106.667H21.3333ZM35.5556 106.667V113.778L28.4444 113.778V106.667H35.5556ZM42.6667 106.667V99.5557H35.5556V106.667H42.6667ZM49.7778 106.667V113.778H42.6667V106.667H49.7778ZM56.8889 106.667V99.5557H49.7778V106.667H56.8889ZM64 106.667H71.1111V99.5557H64V106.667ZM64 106.667H56.8889V113.778L64 113.778V106.667ZM21.3333 106.667V113.778H14.2222V106.667H21.3333Z" fill="#D9D9D9"/>
<path fill-rule="evenodd" clip-rule="evenodd" d="M14.2222 128H7.11111V135.111H0V142.222H7.11111V149.333H0V156.444H7.11111V163.556H0V170.667H7.11111V163.556H14.2222V170.667H21.3333V163.556H28.4444V170.667H35.5556V163.556H42.6667V170.667H49.7778V163.556H56.8889V170.667H64V163.556H71.1111V170.667H78.2222V163.556H85.3333V156.444H78.2222L78.2222 149.333H85.3333V142.222H78.2222V135.111H85.3333V128H78.2222L78.2222 135.111H71.1111V128H64V135.111H56.8889V128H49.7778V135.111H42.6667V128H35.5556V135.111H28.4444V128H21.3333V135.111H14.2222V128ZM14.2222 142.222V135.111H7.11111V142.222H14.2222ZM21.3333 142.222H14.2222V149.333H7.11111V156.444H14.2222V163.556H21.3333V156.444H28.4444V163.556H35.5556V156.444H42.6667V163.556H49.7778V156.444H56.8889V163.556H64V156.444H71.1111V163.556H78.2222V156.444H71.1111V149.333H78.2222L78.2222 142.222H71.1111V135.111H64V142.222H56.8889V135.111H49.7778V142.222H42.6667V135.111H35.5556V142.222H28.4444V135.111H21.3333V142.222ZM21.3333 149.333V142.222H28.4444V149.333H21.3333ZM35.5556 149.333V156.444H28.4444V149.333H35.5556ZM42.6667 149.333V142.222H35.5556V149.333H42.6667ZM49.7778 149.333V142.222H56.8889V149.333H49.7778ZM64 149.333H71.1111V142.222H64V149.333ZM64 149.333H56.8889V156.444H64V149.333ZM49.7778 149.333H42.6667V156.444H49.7778V149.333ZM21.3333 149.333V156.444H14.2222V149.333H21.3333Z" fill="#D9D9D9"/>
<path fill-rule="evenodd" clip-rule="evenodd" d="M85.3333 170.667H7.11111V177.778H0V184.889H7.11111V192H0V199.111H7.11111V206.222H0V213.333H7.11111V206.222H14.2222V213.333H21.3333V206.222H28.4444V213.333H35.5556V206.222H42.6667V213.333H49.7778V206.222H56.8889V213.333H64V206.222H71.1111V213.333H78.2222V206.222H85.3333V199.111H78.2222L78.2222 192H85.3333V184.889H78.2222V177.778H85.3333V170.667ZM71.1111 177.778H78.2222L78.2222 170.667H71.1111V177.778ZM71.1111 184.889V177.778H64V170.667H56.8889V177.778H49.7778V170.667H42.6667V177.778H35.5556V170.667H28.4444V177.778H21.3333V170.667H14.2222V177.778H7.11111V184.889H14.2222V192H7.11111V199.111H14.2222V206.222H21.3333V199.111H28.4444V206.222H35.5556V199.111H42.6667V206.222H49.7778V199.111H56.8889V206.222H64V199.111H71.1111V206.222H78.2222V199.111H71.1111V192H78.2222L78.2222 184.889H71.1111ZM64 184.889V177.778H56.8889V184.889H49.7778V177.778H42.6667V184.889H35.5556V177.778H28.4444V184.889H21.3333V177.778H14.2222V184.889H21.3333V192H14.2222V199.111H21.3333V192H28.4444V199.111H35.5556V192H42.6667V199.111H49.7778V192H56.8889V199.111H64V192H71.1111V184.889H64ZM64 184.889H56.8889V192H64V184.889ZM49.7778 192H42.6667V184.889H49.7778V192ZM35.5556 192H28.4444V184.889H35.5556V192Z" fill="#D9D9D9"/>
<path fill-rule="evenodd" clip-rule="evenodd" d="M14.2222 213.333H0V213.334H7.11111V220.445H14.2222V227.556H7.11111V220.445H0V227.556H7.11111V234.667H0V241.778L7.11111 241.778V248.889H0V256H7.11111V248.889H14.2222V256H21.3333V248.889H28.4444V256H35.5556V248.889H42.6667V256H49.7778V248.889H56.8889V256H64V248.889H71.1111V256H78.2222V248.889H85.3333V241.778H78.2222L78.2222 234.667H85.3333V227.556H78.2222V220.445H85.3333V213.333H78.2222L78.2222 220.445H71.1111V213.333H64V220.445H56.8889V213.333H49.7778V220.445H42.6667V213.333H35.5556V220.445H28.4444V213.333H21.3333V220.445H14.2222V213.333ZM21.3333 227.556V220.445H28.4444V227.556H21.3333ZM21.3333 234.667V227.556H14.2222V234.667H7.11111V241.778L14.2222 241.778V248.889H21.3333V241.778L28.4444 241.778V248.889H35.5556V241.778L42.6667 241.778V248.889H49.7778V241.778H56.8889V248.889H64V241.778L71.1111 241.778V248.889H78.2222V241.778H71.1111V234.667H78.2222L78.2222 227.556H71.1111V220.445H64V227.556H56.8889V220.445H49.7778V227.556H42.6667V220.445H35.5556V227.556H28.4444V234.667H21.3333ZM35.5556 234.667V241.778L28.4444 241.778V234.667H35.5556ZM42.6667 234.667V227.556H35.5556V234.667H42.6667ZM49.7778 234.667V241.778H42.6667V234.667H49.7778ZM56.8889 234.667V227.556H49.7778V234.667H56.8889ZM64 234.667H71.1111V227.556H64V234.667ZM64 234.667H56.8889V241.778L64 241.778V234.667ZM21.3333 234.667V241.778H14.2222V234.667H21.3333Z" fill="#D9D9D9"/>
<path fill-rule="evenodd" clip-rule="evenodd" d="M85.3372 0H85.3359V42.6667H92.4484V35.5556H99.5595V42.6667H106.671V35.5556H113.782V42.6667H120.893V35.5556H128.004V42.6667H135.115V35.5556H142.226V42.6667H149.337V35.5556H156.448V42.6667H163.559V35.5556H170.669V28.4444H163.559V21.3333H170.669V14.2222H163.559V7.11111H170.669V0H163.559V7.11111H156.448L156.448 0H149.337V7.11111H142.226V0H135.115V7.11111H128.004V0H120.893V7.11111H113.782V0H106.671V7.11111H99.5595V0H92.4484V7.11111H85.3372V0ZM92.4484 14.2222V7.11111H99.5595V14.2222H92.4484ZM92.4484 21.3333H85.3372V14.2222H92.4484V21.3333ZM99.5595 21.3333V14.2222H106.671V21.3333H99.5595ZM99.5595 28.4444V21.3333H92.4484V28.4444H85.3372V35.5556H92.4484V28.4444H99.5595ZM106.671 28.4444V35.5556H99.5595V28.4444H106.671ZM113.782 28.4444H106.671V21.3333H113.782V28.4444ZM120.893 28.4444V35.5556H113.782V28.4444H120.893ZM120.893 21.3333V28.4444H128.004V35.5556H135.115V28.4444H142.226V35.5556H149.337V28.4444H156.448V35.5556H163.559V28.4444H156.448L156.448 21.3333H163.559V14.2222H156.448V7.11111H149.337V14.2222H142.226V7.11111H135.115V14.2222H128.004V7.11111H120.893V14.2222H113.782L113.782 7.11111H106.671V14.2222H113.782V21.3333H120.893ZM128.004 21.3333V14.2222H120.893V21.3333H128.004ZM135.115 21.3333V14.2222H142.226V21.3333H135.115ZM149.337 21.3333H156.448L156.448 14.2222H149.337V21.3333ZM149.337 21.3333H142.226V28.4444H149.337V21.3333ZM135.115 21.3333H128.004V28.4444H135.115V21.3333Z" fill="#D9D9D9"/>
<path fill-rule="evenodd" clip-rule="evenodd" d="M170.669 42.667H85.3359V85.3337H92.4484V78.2227H99.5595V85.3337H106.671V78.2227H113.782V85.3337H120.893V78.2227H128.004V85.3337H135.115V78.2227H142.226V85.3337H149.337V78.2227H156.448V85.3337H163.559V78.2227H170.669V71.1116H163.559V64.0005H170.669V56.8894H163.559V49.7783H170.669V42.667ZM156.448 49.7783H163.559V42.6672H156.448L156.448 49.7783ZM156.448 56.8894V49.7783H149.337V42.6672H142.226V49.7783H135.115V42.6672H128.004V49.7783H120.893V42.6672H113.782V49.7783H106.671V42.6672H99.5595V49.7783H92.4484V42.6672H85.3372V49.7783H92.4484V56.8894H85.3372V64.0005H92.4484V71.1116H85.3372V78.2227H92.4484V71.1116H99.5595V78.2227H106.671V71.1116H113.782V78.2227H120.893V71.1116H128.004V78.2227H135.115V71.1116H142.226V78.2227H149.337V71.1116H156.448V78.2227H163.559V71.1116H156.448L156.448 64.0005H163.559V56.8894H156.448ZM149.337 56.8894V49.7783H142.226V56.8894H135.115V49.7783H128.004V56.8894H120.893V49.7783H113.782L113.782 56.8894H106.671V49.7783H99.5595V56.8894H92.4484V64.0005H99.5595V71.1116H106.671V64.0005H113.782V71.1116H120.893V64.0005H128.004V71.1116H135.115V64.0005H142.226V71.1116H149.337V64.0005H156.448L156.448 56.8894H149.337ZM149.337 56.8894V64.0005H142.226V56.8894H149.337ZM135.115 64.0005V56.8894H128.004V64.0005H135.115ZM120.893 64.0005H113.782V56.8894H120.893V64.0005ZM106.671 64.0005V56.8894H99.5595V64.0005H106.671Z" fill="#D9D9D9"/>
<path fill-rule="evenodd" clip-rule="evenodd" d="M85.3372 85.333H85.3359V128H170.669V128H163.559V120.888H170.669V113.777H163.559V106.666H170.669V99.5551H163.559V92.444H170.669V85.333H163.559V92.444H156.448L156.448 85.333H149.337V92.444H142.226V85.333H135.115V92.444H128.004V85.333H120.893V92.444H113.782V85.333H106.671V92.444H99.5595V85.333H92.4484V92.444H85.3372V85.333ZM92.4484 99.5551V92.444H99.5595V99.5551H92.4484ZM92.4484 106.666H85.3372V99.5551H92.4484V106.666ZM99.5595 106.666V99.5551H106.671V106.666H99.5595ZM99.5595 113.777V106.666H92.4484V113.777L85.3372 113.777V120.888H92.4484V128H99.5595V120.888H106.671V128H113.782V120.888H120.893V128H128.004V120.888H135.115V128H142.226V120.888H149.337V128H156.448V120.888H163.559V113.777H156.448L156.448 106.666H163.559V99.5551H156.448V92.444H149.337V99.5551H142.226V92.444H135.115V99.5551H128.004V92.444H120.893V99.5551H113.782L113.782 92.444H106.671V99.5551H113.782V106.666H106.671V113.777H99.5595ZM113.782 113.777V106.666H120.893V113.777L113.782 113.777ZM128.004 113.777L120.893 113.777V120.888H128.004V113.777ZM128.004 106.666H120.893V99.5551H128.004V106.666ZM135.115 106.666V99.5551H142.226V106.666H135.115ZM135.115 113.777H128.004V106.666H135.115V113.777ZM142.226 113.777V120.888H135.115V113.777H142.226ZM149.337 113.777V120.888H156.448V113.777L149.337 113.777ZM149.337 106.666V99.5551H156.448L156.448 106.666H149.337ZM149.337 106.666V113.777L142.226 113.777V106.666H149.337ZM113.782 113.777V120.888H106.671V113.777L113.782 113.777ZM99.5595 113.777V120.888H92.4484V113.777L99.5595 113.777Z" fill="#D9D9D9"/>
<path fill-rule="evenodd" clip-rule="evenodd" d="M85.3372 128H85.3359V170.667H92.4484V163.556H99.5595V170.667H106.671V163.556H113.782V170.667H120.893V163.556H128.004V170.667H135.115V163.556H142.226V170.667H149.337V163.556H156.448V170.667H163.559V163.556H170.669V156.444H163.559V149.333H170.669V142.222H163.559V135.111H170.669V128H163.559V135.111H156.448L156.448 128H149.337V135.111H142.226V128H135.115V135.111H128.004V128H120.893V135.111H113.782V128H106.671V135.111H99.5595V128H92.4484V135.111H85.3372V128ZM92.4484 142.222V135.111H99.5595V142.222H92.4484ZM92.4484 149.333H85.3372V142.222H92.4484V149.333ZM99.5595 149.333V142.222H106.671V149.333H99.5595ZM99.5595 156.444V149.333H92.4484V156.444H85.3372V163.556H92.4484V156.444H99.5595ZM106.671 156.444V163.556H99.5595V156.444H106.671ZM113.782 156.444H106.671V149.333H113.782V156.444ZM120.893 156.444V163.556H113.782V156.444H120.893ZM120.893 149.333V156.444H128.004V163.556H135.115V156.444H142.226V163.556H149.337V156.444H156.448V163.556H163.559V156.444H156.448L156.448 149.333H163.559V142.222H156.448V135.111H149.337V142.222H142.226V135.111H135.115V142.222H128.004V135.111H120.893V142.222H113.782L113.782 135.111H106.671V142.222H113.782V149.333H120.893ZM128.004 149.333V142.222H120.893V149.333H128.004ZM135.115 149.333V142.222H142.226V149.333H135.115ZM149.337 149.333H156.448L156.448 142.222H149.337V149.333ZM149.337 149.333H142.226V156.444H149.337V149.333ZM135.115 149.333H128.004V156.444H135.115V149.333Z" fill="#D9D9D9"/>
<path fill-rule="evenodd" clip-rule="evenodd" d="M170.669 170.667H85.3359V213.334H92.4484V206.223H99.5595V213.334H106.671V206.223H113.782V213.334H120.893V206.223H128.004V213.334H135.115V206.223H142.226V213.334H149.337V206.223H156.448V213.334H163.559V206.223H170.669V199.112H163.559V192H170.669V184.889H163.559V177.778H170.669V170.667ZM156.448 177.778H163.559V170.667H156.448L156.448 177.778ZM156.448 184.889V177.778H149.337V170.667H142.226V177.778H135.115V170.667H128.004V177.778H120.893V170.667H113.782V177.778H106.671V170.667H99.5595V177.778H92.4484V170.667H85.3372V177.778H92.4484V184.889H85.3372V192H92.4484V199.112H85.3372V206.223H92.4484V199.112H99.5595V206.223H106.671V199.112H113.782V206.223H120.893V199.112H128.004V206.223H135.115V199.112H142.226V206.223H149.337V199.112H156.448V206.223H163.559V199.112H156.448L156.448 192H163.559V184.889H156.448ZM149.337 184.889V177.778H142.226V184.889H135.115V177.778H128.004V184.889H120.893V177.778H113.782L113.782 184.889H106.671V177.778H99.5595V184.889H92.4484V192H99.5595V199.112H106.671V192H113.782V199.112H120.893V192H128.004V199.112H135.115V192H142.226V199.112H149.337V192H156.448L156.448 184.889H149.337ZM149.337 184.889V192H142.226V184.889H149.337ZM135.115 192V184.889H128.004V192H135.115ZM120.893 192H113.782V184.889H120.893V192ZM106.671 192V184.889H99.5595V192H106.671Z" fill="#D9D9D9"/>
<path fill-rule="evenodd" clip-rule="evenodd" d="M85.3372 213.333H85.3359V256H170.669V256H163.559V248.888H170.669V241.777H163.559V234.666H170.669V227.555H163.559V220.444H170.669V213.333H163.559V220.444H156.448L156.448 213.333H149.337V220.444H142.226V213.333H135.115V220.444H128.004V213.333H120.893V220.444H113.782V213.333H106.671V220.444H99.5595V213.333H92.4484V220.444H85.3372V213.333ZM92.4484 227.555V220.444H99.5595V227.555H92.4484ZM92.4484 234.666H85.3372V227.555H92.4484V234.666ZM99.5595 234.666V227.555H106.671V234.666H99.5595ZM99.5595 241.777V234.666H92.4484V241.777L85.3372 241.777V248.888H92.4484V256H99.5595V248.888H106.671V256H113.782V248.888H120.893V256H128.004V248.888H135.115V256H142.226V248.888H149.337V256H156.448V248.888H163.559V241.777H156.448L156.448 234.666H163.559V227.555H156.448V220.444H149.337V227.555H142.226V220.444H135.115V227.555H128.004V220.444H120.893V227.555H113.782L113.782 220.444H106.671V227.555H113.782V234.666H106.671V241.777H99.5595ZM113.782 241.777V234.666H120.893V241.777L113.782 241.777ZM128.004 241.777L120.893 241.777V248.888H128.004V241.777ZM128.004 234.666H120.893V227.555H128.004V234.666ZM135.115 234.666V227.555H142.226V234.666H135.115ZM135.115 241.777H128.004V234.666H135.115V241.777ZM142.226 241.777V248.888H135.115V241.777H142.226ZM149.337 241.777V248.888H156.448V241.777L149.337 241.777ZM149.337 234.666V227.555H156.448L156.448 234.666H149.337ZM149.337 234.666V241.777L142.226 241.777V234.666H149.337ZM113.782 241.777V248.888H106.671V241.777L113.782 241.777ZM99.5595 241.777V248.888H92.4484V241.777L99.5595 241.777Z" fill="#D9D9D9"/>
<path fill-rule="evenodd" clip-rule="evenodd" d="M170.664 7.11111V14.2222H177.774V21.3333H170.664V28.4444H177.774V35.5556H170.664V42.6667H177.774V35.5556H184.885V42.6667H191.996V35.5556H199.107V42.6667H206.218V35.5556H213.329V42.6667H220.441V35.5556H227.552V42.6667H234.663V35.5556H241.774V42.6667H248.885V35.5556H255.996V42.6667H255.997V0H248.885L248.885 7.11111H241.774V0H234.663V7.11111H227.552V0H220.441V7.11111H213.329V0H206.218V7.11111H199.107V0H191.996V7.11111H184.885V0H177.774V7.11111H170.664ZM184.885 14.2222V7.11111H177.774V14.2222H184.885ZM191.996 14.2222H184.885V21.3333H177.774V28.4444H184.885V35.5556H191.996V28.4444H199.107V35.5556H206.218V28.4444H213.329V35.5556H220.441V28.4444H227.552V35.5556H234.663V28.4444H241.774V35.5556H248.885V28.4444H255.996V21.3333H248.885L248.885 14.2222H255.996V7.11111H248.885V14.2222H241.774V7.11111H234.663V14.2222H227.552L227.552 7.11111H220.441V14.2222H213.329V7.11111H206.218V14.2222H199.107V7.11111H191.996V14.2222ZM191.996 21.3333V14.2222H199.107V21.3333H191.996ZM206.218 21.3333V28.4444H199.107V21.3333H206.218ZM213.329 21.3333V14.2222H206.218V21.3333H213.329ZM220.441 21.3333V14.2222H227.552V21.3333H220.441ZM234.663 21.3333H227.552V28.4444H234.663V21.3333ZM241.774 21.3333V28.4444H248.885L248.885 21.3333H241.774ZM241.774 21.3333H234.663V14.2222H241.774V21.3333ZM220.441 21.3333H213.329V28.4444H220.441V21.3333ZM191.996 21.3333V28.4444H184.885V21.3333H191.996Z" fill="#D9D9D9"/>
<path fill-rule="evenodd" clip-rule="evenodd" d="M255.997 42.667H170.664V42.6672H177.774V49.7783H170.664V56.8894H177.774V64.0005H170.664V71.1116H177.774V78.2227H170.664V85.3337H177.774V78.2227H184.885V85.3337H191.996V78.2227H199.107V85.3337H206.218V78.2227H213.329V85.3337H220.441V78.2227H227.552V85.3337H234.663V78.2227H241.774V85.3337H248.885V78.2227H255.996V85.3337H255.997V42.667ZM248.885 71.1116V78.2227H241.774V71.1116H248.885ZM248.885 64.0005L248.885 71.1116H255.996V64.0005H248.885ZM241.774 64.0005H248.885L248.885 56.8894H255.996V49.7783H248.885L248.885 42.6672H241.774V49.7783H234.663V42.6672H227.552V49.7783H220.441V42.6672H213.329V49.7783H206.218V42.6672H199.107V49.7783H191.996V42.6672H184.885V49.7783H177.774V56.8894H184.885V64.0005H177.774V71.1116H184.885V78.2227H191.996V71.1116H199.107V78.2227H206.218V71.1116H213.329V78.2227H220.441V71.1116H227.552V78.2227H234.663V71.1116H241.774V64.0005ZM234.663 64.0005V71.1116H227.552V64.0005H234.663ZM234.663 56.8894V64.0005H241.774V56.8894H248.885V49.7783H241.774V56.8894H234.663ZM227.552 56.8894L227.552 49.7783H234.663V56.8894H227.552ZM220.441 56.8894V49.7783H213.329V56.8894H206.218V49.7783H199.107V56.8894H191.996V49.7783H184.885V56.8894H191.996V64.0005H184.885V71.1116H191.996V64.0005H199.107V71.1116H206.218V64.0005H213.329V71.1116H220.441V64.0005H227.552V56.8894H220.441ZM220.441 56.8894V64.0005H213.329V56.8894H220.441ZM206.218 64.0005H199.107V56.8894H206.218V64.0005Z" fill="#D9D9D9"/>
<path fill-rule="evenodd" clip-rule="evenodd" d="M170.664 92.444V99.5551H177.774V106.666H170.664V113.777L177.774 113.777V120.888H170.664V128H255.997V85.333H248.885L248.885 92.444H241.774V85.333H234.663V92.444H227.552V85.333H220.441V92.444H213.329V85.333H206.218V92.444H199.107V85.333H191.996V92.444H184.885V85.333H177.774V92.444H170.664ZM184.885 99.5551V92.444H177.774V99.5551H184.885ZM191.996 99.5551H184.885V106.666H177.774V113.777L184.885 113.777V120.888H177.774V128H184.885V120.888H191.996V128H199.107V120.888H206.218V128H213.329V120.888H220.441V128H227.552V120.888H234.663V128H241.774V120.888H248.885V128H255.996V120.888H248.885V113.777H255.996V106.666H248.885L248.885 99.5551H255.996V92.444H248.885V99.5551H241.774V92.444H234.663V99.5551H227.552L227.552 92.444H220.441V99.5551H213.329V92.444H206.218V99.5551H199.107V92.444H191.996V99.5551ZM191.996 106.666V99.5551H199.107V106.666H191.996ZM191.996 113.777H184.885V106.666H191.996V113.777ZM199.107 113.777V106.666H206.218V113.777L199.107 113.777ZM213.329 113.777L206.218 113.777V120.888H213.329V113.777ZM213.329 106.666H206.218V99.5551H213.329V106.666ZM220.441 106.666V99.5551H227.552V106.666H220.441ZM220.441 113.777H213.329V106.666H220.441V113.777ZM227.552 113.777V120.888H220.441V113.777H227.552ZM234.663 113.777V120.888H241.774V113.777H248.885L248.885 106.666H241.774V99.5551H234.663V106.666H227.552V113.777L234.663 113.777ZM234.663 113.777V106.666H241.774V113.777L234.663 113.777ZM199.107 113.777V120.888H191.996V113.777L199.107 113.777Z" fill="#D9D9D9"/>
<path fill-rule="evenodd" clip-rule="evenodd" d="M170.664 135.111V142.222H177.774V149.333H170.664V156.444H177.774V163.556H170.664V170.667H177.774V163.556H184.885V170.667H191.996V163.556H199.107V170.667H206.218V163.556H213.329V170.667H220.441V163.556H227.552V170.667H234.663V163.556H241.774V170.667H248.885V163.556H255.996V170.667H255.997V128H248.885L248.885 135.111H241.774V128H234.663V135.111H227.552V128H220.441V135.111H213.329V128H206.218V135.111H199.107V128H191.996V135.111H184.885V128H177.774V135.111H170.664ZM184.885 142.222V135.111H177.774V142.222H184.885ZM191.996 142.222H184.885V149.333H177.774V156.444H184.885V163.556H191.996V156.444H199.107V163.556H206.218V156.444H213.329V163.556H220.441V156.444H227.552V163.556H234.663V156.444H241.774V163.556H248.885V156.444H255.996V149.333H248.885L248.885 142.222H255.996V135.111H248.885V142.222H241.774V135.111H234.663V142.222H227.552L227.552 135.111H220.441V142.222H213.329V135.111H206.218V142.222H199.107V135.111H191.996V142.222ZM191.996 149.333V142.222H199.107V149.333H191.996ZM206.218 149.333V156.444H199.107V149.333H206.218ZM213.329 149.333V142.222H206.218V149.333H213.329ZM220.441 149.333V142.222H227.552V149.333H220.441ZM234.663 149.333H227.552V156.444H234.663V149.333ZM241.774 149.333V156.444H248.885L248.885 149.333H241.774ZM241.774 149.333H234.663V142.222H241.774V149.333ZM220.441 149.333H213.329V156.444H220.441V149.333ZM191.996 149.333V156.444H184.885V149.333H191.996Z" fill="#D9D9D9"/>
<path fill-rule="evenodd" clip-rule="evenodd" d="M255.997 170.667H170.664V170.667H177.774V177.778H170.664V184.889H177.774V192H170.664V199.112H177.774V206.223H170.664V213.334H177.774V206.223H184.885V213.334H191.996V206.223H199.107V213.334H206.218V206.223H213.329V213.334H220.441V206.223H227.552V213.334H234.663V206.223H241.774V213.334H248.885V206.223H255.996V213.334H255.997V170.667ZM248.885 199.112V206.223H241.774V199.112H248.885ZM248.885 192L248.885 199.112H255.996V192H248.885ZM241.774 192H248.885L248.885 184.889H255.996V177.778H248.885L248.885 170.667H241.774V177.778H234.663V170.667H227.552V177.778H220.441V170.667H213.329V177.778H206.218V170.667H199.107V177.778H191.996V170.667H184.885V177.778H177.774V184.889H184.885V192H177.774V199.112H184.885V206.223H191.996V199.112H199.107V206.223H206.218V199.112H213.329V206.223H220.441V199.112H227.552V206.223H234.663V199.112H241.774V192ZM234.663 192V199.112H227.552V192H234.663ZM234.663 184.889V192H241.774V184.889H248.885V177.778H241.774V184.889H234.663ZM227.552 184.889L227.552 177.778H234.663V184.889H227.552ZM220.441 184.889V177.778H213.329V184.889H206.218V177.778H199.107V184.889H191.996V177.778H184.885V184.889H191.996V192H184.885V199.112H191.996V192H199.107V199.112H206.218V192H213.329V199.112H220.441V192H227.552V184.889H220.441ZM220.441 184.889V192H213.329V184.889H220.441ZM206.218 192H199.107V184.889H206.218V192Z" fill="#D9D9D9"/>
<path fill-rule="evenodd" clip-rule="evenodd" d="M170.664 220.444V227.555H177.774V234.666H170.664V241.777L177.774 241.777V248.888H170.664V256H255.997V213.333H248.885L248.885 220.444H241.774V213.333H234.663V220.444H227.552V213.333H220.441V220.444H213.329V213.333H206.218V220.444H199.107V213.333H191.996V220.444H184.885V213.333H177.774V220.444H170.664ZM184.885 227.555V220.444H177.774V227.555H184.885ZM191.996 227.555H184.885V234.666H177.774V241.777L184.885 241.777V248.888H177.774V256H184.885V248.888H191.996V256H199.107V248.888H206.218V256H213.329V248.888H220.441V256H227.552V248.888H234.663V256H241.774V248.888H248.885V256H255.996V248.888H248.885V241.777H255.996V234.666H248.885L248.885 227.555H255.996V220.444H248.885V227.555H241.774V220.444H234.663V227.555H227.552L227.552 220.444H220.441V227.555H213.329V220.444H206.218V227.555H199.107V220.444H191.996V227.555ZM191.996 234.666V227.555H199.107V234.666H191.996ZM191.996 241.777H184.885V234.666H191.996V241.777ZM199.107 241.777V234.666H206.218V241.777L199.107 241.777ZM213.329 241.777L206.218 241.777V248.888H213.329V241.777ZM213.329 234.666H206.218V227.555H213.329V234.666ZM220.441 234.666V227.555H227.552V234.666H220.441ZM220.441 241.777H213.329V234.666H220.441V241.777ZM227.552 241.777V248.888H220.441V241.777H227.552ZM234.663 241.777V248.888H241.774V241.777H248.885L248.885 234.666H241.774V227.555H234.663V234.666H227.552V241.777L234.663 241.777ZM234.663 241.777V234.666H241.774V241.777L234.663 241.777ZM199.107 241.777V248.888H191.996V241.777L199.107 241.777Z" fill="#D9D9D9"/>
</svg>
