<svg width="20" height="20" viewBox="0 0 20 20" fill="none" xmlns="http://www.w3.org/2000/svg">
<g clip-path="url(#clip0_7004_32597)">
<path fill-rule="evenodd" clip-rule="evenodd" d="M18.2046 7.49002L15.8509 10.3622L18.2046 13.235L18.2046 7.49002ZM19.665 6.12793C19.665 5.21333 18.518 4.80342 17.9383 5.51084L14.4685 9.74511C14.1745 10.1039 14.1745 10.6204 14.4685 10.9792L17.9383 15.2143C18.5179 15.9218 19.665 15.5119 19.665 14.5972L19.665 6.12793Z" fill="#323A3D"/>
<path fill-rule="evenodd" clip-rule="evenodd" d="M2.1518 5.1811V14.8198H12.8371V5.1811H2.1518ZM1.665 3.7207C1.1273 3.7207 0.691406 4.1566 0.691406 4.6943V15.3066C0.691406 15.8443 1.1273 16.2802 1.665 16.2802H13.3239C13.8616 16.2802 14.2975 15.8443 14.2975 15.3066V4.6943C14.2975 4.1566 13.8616 3.7207 13.3239 3.7207H1.665Z" fill="#323A3D"/>
<path d="M7.50469 11.9242C7.50469 13.2685 6.41496 14.3582 5.07071 14.3582C3.72645 14.3582 2.63672 13.2685 2.63672 11.9242C2.63672 10.58 3.72645 9.49023 5.07071 9.49023C6.41496 9.49023 7.50469 10.58 7.50469 11.9242Z" fill="#FF6F00"/>
<path fill-rule="evenodd" clip-rule="evenodd" d="M5.07071 12.8978C5.60841 12.8978 6.0443 12.4619 6.0443 11.9242C6.0443 11.3865 5.60841 10.9506 5.07071 10.9506C4.533 10.9506 4.09711 11.3865 4.09711 11.9242C4.09711 12.4619 4.533 12.8978 5.07071 12.8978ZM5.07071 14.3582C6.41496 14.3582 7.50469 13.2685 7.50469 11.9242C7.50469 10.58 6.41496 9.49023 5.07071 9.49023C3.72645 9.49023 2.63672 10.58 2.63672 11.9242C2.63672 13.2685 3.72645 14.3582 5.07071 14.3582Z" fill="#323A3D"/>
</g>
<defs>
<clipPath id="clip0_7004_32597">
<rect width="20" height="20" fill="white"/>
</clipPath>
</defs>
</svg>
