<svg width="20" height="20" viewBox="0 0 20 20" fill="none" xmlns="http://www.w3.org/2000/svg">
<g clip-path="url(#clip0_7004_32555)">
<path fill-rule="evenodd" clip-rule="evenodd" d="M18.8085 14.5972L18.8085 6.12793L15.3388 10.3622L18.8085 14.5972ZM19.7821 6.12793C19.7821 5.21333 18.6352 4.80342 18.0555 5.51084L14.5857 9.74511C14.2917 10.1039 14.2917 10.6204 14.5857 10.9792L18.0554 15.2143C18.6351 15.9218 19.7821 15.5119 19.7821 14.5972L19.7821 6.12793Z" fill="#323A3D"/>
<path fill-rule="evenodd" clip-rule="evenodd" d="M13.4411 4.6943H1.78219V15.3066L13.4411 15.3066L13.4411 4.6943ZM1.78219 3.7207C1.24449 3.7207 0.808594 4.1566 0.808594 4.6943V15.3066C0.808594 15.8443 1.24449 16.2802 1.78219 16.2802H13.4411C13.9788 16.2802 14.4147 15.8443 14.4147 15.3066V4.6943C14.4147 4.1566 13.9788 3.7207 13.4411 3.7207H1.78219Z" fill="#323A3D"/>
<path fill-rule="evenodd" clip-rule="evenodd" d="M5.18789 13.3846C5.99445 13.3846 6.64829 12.7308 6.64829 11.9242C6.64829 11.1177 5.99445 10.4638 5.18789 10.4638C4.38134 10.4638 3.7275 11.1177 3.7275 11.9242C3.7275 12.7308 4.38134 13.3846 5.18789 13.3846ZM5.18789 14.3582C6.53215 14.3582 7.62188 13.2685 7.62188 11.9242C7.62188 10.58 6.53215 9.49023 5.18789 9.49023C3.84364 9.49023 2.75391 10.58 2.75391 11.9242C2.75391 13.2685 3.84364 14.3582 5.18789 14.3582Z" fill="#323A3D"/>
</g>
<defs>
<clipPath id="clip0_7004_32555">
<rect width="20" height="20" fill="white"/>
</clipPath>
</defs>
</svg>
