<svg width="39" height="23" viewBox="0 0 39 23" fill="none" xmlns="http://www.w3.org/2000/svg">
<g clip-path="url(#clip0_8660_33052)">
<path fill-rule="evenodd" clip-rule="evenodd" d="M32.7264 9.17985L29.3767 13.3992L32.7264 17.6193L32.7264 9.17985ZM33.9121 8.62188C33.9121 7.66675 32.7384 7.2271 32.154 7.96329L28.352 12.7523C28.0588 13.1216 28.0616 13.6544 28.3587 14.0287L32.1607 18.8186C32.7496 19.5605 33.9121 19.1504 33.9121 18.2008L33.9121 8.62188Z" fill="#6B6B6B"/>
<path fill-rule="evenodd" clip-rule="evenodd" d="M14.9422 7.29766V18.6828H27.0104V7.29766H14.9422ZM14.7422 6.09766C14.1899 6.09766 13.7422 6.54537 13.7422 7.09766V18.8828C13.7422 19.4351 14.1899 19.8828 14.7422 19.8828H27.2104C27.7627 19.8828 28.2104 19.4351 28.2104 18.8828V7.09766C28.2104 6.54537 27.7627 6.09766 27.2104 6.09766H14.7422Z" fill="#6B6B6B"/>
<path fill-rule="evenodd" clip-rule="evenodd" d="M18.9113 16.6735C19.9601 16.6735 20.8102 15.8233 20.8102 14.7746C20.8102 13.7259 19.9601 12.8758 18.9113 12.8758C17.8626 12.8758 17.0125 13.7259 17.0125 14.7746C17.0125 15.8233 17.8626 16.6735 18.9113 16.6735ZM18.9113 17.8735C20.6228 17.8735 22.0102 16.4861 22.0102 14.7746C22.0102 13.0632 20.6228 11.6758 18.9113 11.6758C17.1999 11.6758 15.8125 13.0632 15.8125 14.7746C15.8125 16.4861 17.1999 17.8735 18.9113 17.8735Z" fill="#6B6B6B"/>
<path fill-rule="evenodd" clip-rule="evenodd" d="M12.0322 2.575C8.20087 2.575 5.09453 5.68134 5.09453 9.51267C5.09453 13.344 8.20087 16.4503 12.0322 16.4503C12.3636 16.4503 12.6322 16.719 12.6322 17.0503C12.6322 17.3817 12.3636 17.6503 12.0322 17.6503C7.53813 17.6503 3.89453 14.0067 3.89453 9.51267C3.89453 5.0186 7.53813 1.375 12.0322 1.375C14.3326 1.375 16.4111 2.33051 17.8905 3.86462C18.1205 4.10316 18.1136 4.48299 17.8751 4.71301C17.6365 4.94303 17.2567 4.93613 17.0267 4.6976C15.764 3.38827 13.9935 2.575 12.0322 2.575Z" fill="#6B6B6B"/>
<path fill-rule="evenodd" clip-rule="evenodd" d="M11.4438 4.34961C11.7751 4.34961 12.0438 4.61824 12.0438 4.94961V9.46123H12.6134C12.9447 9.46123 13.2134 9.72986 13.2134 10.0612C13.2134 10.3926 12.9447 10.6612 12.6134 10.6612H11.8268C11.2839 10.6612 10.8438 10.2211 10.8438 9.67823V4.94961C10.8438 4.61824 11.1124 4.34961 11.4438 4.34961Z" fill="#6B6B6B"/>
<path fill-rule="evenodd" clip-rule="evenodd" d="M17.7085 1.96289C18.0399 1.96289 18.3085 2.23152 18.3085 2.56289V4.01568C18.3085 4.56881 17.8978 5.03591 17.3492 5.10664L15.6846 5.32127C15.356 5.36365 15.0552 5.13158 15.0128 4.80293C14.9704 4.47428 15.2025 4.1735 15.5311 4.13113L17.1085 3.92774V2.56289C17.1085 2.23152 17.3771 1.96289 17.7085 1.96289Z" fill="#6B6B6B"/>
</g>
<defs>
<clipPath id="clip0_8660_33052">
<rect width="38" height="22" fill="white" transform="translate(0.230469 0.5)"/>
</clipPath>
</defs>
</svg>
