<svg width="39" height="23" viewBox="0 0 39 23" fill="none" xmlns="http://www.w3.org/2000/svg">
<g clip-path="url(#clip0_7630_31357)">
<path fill-rule="evenodd" clip-rule="evenodd" d="M32.8631 8.71892L29.5134 12.9383L32.8631 17.1584L32.8631 8.71892ZM34.0488 8.16094C34.0488 7.20581 32.8751 6.76616 32.2907 7.50235L28.4887 12.2914C28.1955 12.6607 28.1983 13.1935 28.4954 13.5678L32.2974 18.3577C32.8863 19.0996 34.0488 18.6895 34.0488 17.7398L34.0488 8.16094Z" fill="#323A3D"/>
<path fill-rule="evenodd" clip-rule="evenodd" d="M15.0789 6.83672V18.2218H27.1471V6.83672H15.0789ZM14.8789 5.63672C14.3266 5.63672 13.8789 6.08443 13.8789 6.63672V18.4218C13.8789 18.9741 14.3266 19.4218 14.8789 19.4218H27.3471C27.8994 19.4218 28.3471 18.9741 28.3471 18.4218V6.63672C28.3471 6.08443 27.8994 5.63672 27.3471 5.63672H14.8789Z" fill="#323A3D"/>
<path d="M22.1469 14.3137C22.1469 16.0251 20.7595 17.4125 19.0481 17.4125C17.3366 17.4125 15.9492 16.0251 15.9492 14.3137C15.9492 12.6022 17.3366 11.2148 19.0481 11.2148C20.7595 11.2148 22.1469 12.6022 22.1469 14.3137Z" fill="#FF6F00"/>
<path fill-rule="evenodd" clip-rule="evenodd" d="M19.0481 16.2125C20.0968 16.2125 20.9469 15.3624 20.9469 14.3137C20.9469 13.265 20.0968 12.4148 19.0481 12.4148C17.9994 12.4148 17.1492 13.265 17.1492 14.3137C17.1492 15.3624 17.9994 16.2125 19.0481 16.2125ZM19.0481 17.4125C20.7595 17.4125 22.1469 16.0251 22.1469 14.3137C22.1469 12.6022 20.7595 11.2148 19.0481 11.2148C17.3366 11.2148 15.9492 12.6022 15.9492 14.3137C15.9492 16.0251 17.3366 17.4125 19.0481 17.4125Z" fill="#323A3D"/>
<path fill-rule="evenodd" clip-rule="evenodd" d="M12.1689 2.11406C8.33759 2.11406 5.23125 5.22041 5.23125 9.05173C5.23125 12.8831 8.33759 15.9894 12.1689 15.9894C12.5003 15.9894 12.7689 16.258 12.7689 16.5894C12.7689 16.9208 12.5003 17.1894 12.1689 17.1894C7.67485 17.1894 4.03125 13.5458 4.03125 9.05173C4.03125 4.55766 7.67485 0.914062 12.1689 0.914062C14.4694 0.914062 16.5478 1.86957 18.0272 3.40369C18.2572 3.64222 18.2503 4.02205 18.0118 4.25207C17.7732 4.4821 17.3934 4.4752 17.1634 4.23667C15.9008 2.92734 14.1303 2.11406 12.1689 2.11406Z" fill="#323A3D"/>
<path fill-rule="evenodd" clip-rule="evenodd" d="M11.5805 3.88867C11.9118 3.88867 12.1805 4.1573 12.1805 4.48867V9.00029H12.7501C13.0814 9.00029 13.3501 9.26892 13.3501 9.60029C13.3501 9.93166 13.0814 10.2003 12.7501 10.2003H11.9635C11.4206 10.2003 10.9805 9.76017 10.9805 9.21729V4.48867C10.9805 4.1573 11.2491 3.88867 11.5805 3.88867Z" fill="#323A3D"/>
<path fill-rule="evenodd" clip-rule="evenodd" d="M17.8452 1.50195C18.1766 1.50195 18.4452 1.77058 18.4452 2.10195V3.55474C18.4452 4.10787 18.0345 4.57497 17.4859 4.64571L15.8213 4.86034C15.4927 4.90271 15.1919 4.67064 15.1495 4.34199C15.1071 4.01334 15.3392 3.71256 15.6679 3.67019L17.2452 3.4668V2.10195C17.2452 1.77058 17.5139 1.50195 17.8452 1.50195Z" fill="#323A3D"/>
</g>
<defs>
<clipPath id="clip0_7630_31357">
<rect width="38" height="22" fill="white" transform="translate(0.367188 0.0390625)"/>
</clipPath>
</defs>
</svg>
