<svg width="20" height="20" viewBox="0 0 20 20" fill="none" xmlns="http://www.w3.org/2000/svg">
<g clip-path="url(#clip0_7004_32569)">
<path fill-rule="evenodd" clip-rule="evenodd" d="M18.3217 7.49002L15.9681 10.3622L18.3217 13.235L18.3217 7.49002ZM19.7821 6.12793C19.7821 5.21333 18.6352 4.80342 18.0555 5.51084L14.5857 9.74511C14.2917 10.1039 14.2917 10.6204 14.5857 10.9792L18.0554 15.2143C18.6351 15.9218 19.7821 15.5119 19.7821 14.5972L19.7821 6.12793Z" fill="#323A3D"/>
<path fill-rule="evenodd" clip-rule="evenodd" d="M2.26899 5.1811V14.8198H12.9543V5.1811H2.26899ZM1.78219 3.7207C1.24449 3.7207 0.808594 4.1566 0.808594 4.6943V15.3066C0.808594 15.8443 1.24449 16.2802 1.78219 16.2802H13.4411C13.9788 16.2802 14.4147 15.8443 14.4147 15.3066V4.6943C14.4147 4.1566 13.9788 3.7207 13.4411 3.7207H1.78219Z" fill="#323A3D"/>
<path fill-rule="evenodd" clip-rule="evenodd" d="M5.18789 12.8978C5.72559 12.8978 6.16149 12.4619 6.16149 11.9242C6.16149 11.3865 5.72559 10.9506 5.18789 10.9506C4.65019 10.9506 4.2143 11.3865 4.2143 11.9242C4.2143 12.4619 4.65019 12.8978 5.18789 12.8978ZM5.18789 14.3582C6.53215 14.3582 7.62188 13.2685 7.62188 11.9242C7.62188 10.58 6.53215 9.49023 5.18789 9.49023C3.84364 9.49023 2.75391 10.58 2.75391 11.9242C2.75391 13.2685 3.84364 14.3582 5.18789 14.3582Z" fill="#323A3D"/>
</g>
<defs>
<clipPath id="clip0_7004_32569">
<rect width="20" height="20" fill="white"/>
</clipPath>
</defs>
</svg>
