<svg width="39" height="23" viewBox="0 0 39 23" fill="none" xmlns="http://www.w3.org/2000/svg">
<g clip-path="url(#clip0_7630_31345)">
<path fill-rule="evenodd" clip-rule="evenodd" d="M32.5667 9.57669L29.8954 12.9415L32.5667 16.3069L32.5667 9.57669ZM34.0488 8.16094C34.0488 7.20581 32.8751 6.76616 32.2907 7.50235L28.4887 12.2914C28.1955 12.6607 28.1983 13.1935 28.4954 13.5678L32.2974 18.3577C32.8863 19.0996 34.0488 18.6895 34.0488 17.7398L34.0488 8.16094Z" fill="#323A3D"/>
<path fill-rule="evenodd" clip-rule="evenodd" d="M15.3789 7.13672V17.9218H26.8471V7.13672H15.3789ZM14.8789 5.63672C14.3266 5.63672 13.8789 6.08443 13.8789 6.63672V18.4218C13.8789 18.9741 14.3266 19.4218 14.8789 19.4218H27.3471C27.8994 19.4218 28.3471 18.9741 28.3471 18.4218V6.63672C28.3471 6.08443 27.8994 5.63672 27.3471 5.63672H14.8789Z" fill="#323A3D"/>
<path d="M22.1469 14.3137C22.1469 16.0251 20.7595 17.4125 19.0481 17.4125C17.3366 17.4125 15.9492 16.0251 15.9492 14.3137C15.9492 12.6022 17.3366 11.2148 19.0481 11.2148C20.7595 11.2148 22.1469 12.6022 22.1469 14.3137Z" fill="#FF6F00"/>
<path fill-rule="evenodd" clip-rule="evenodd" d="M19.0481 15.9125C19.9311 15.9125 20.6469 15.1967 20.6469 14.3137C20.6469 13.4307 19.9311 12.7148 19.0481 12.7148C18.165 12.7148 17.4492 13.4307 17.4492 14.3137C17.4492 15.1967 18.165 15.9125 19.0481 15.9125ZM19.0481 17.4125C20.7595 17.4125 22.1469 16.0251 22.1469 14.3137C22.1469 12.6022 20.7595 11.2148 19.0481 11.2148C17.3366 11.2148 15.9492 12.6022 15.9492 14.3137C15.9492 16.0251 17.3366 17.4125 19.0481 17.4125Z" fill="#323A3D"/>
<path fill-rule="evenodd" clip-rule="evenodd" d="M12.1705 2.26367C8.422 2.26367 5.38281 5.30286 5.38281 9.05134C5.38281 12.7998 8.422 15.839 12.1705 15.839C12.5847 15.839 12.9205 16.1748 12.9205 16.589C12.9205 17.0032 12.5847 17.339 12.1705 17.339C7.59357 17.339 3.88281 13.6282 3.88281 9.05134C3.88281 4.47443 7.59357 0.763672 12.1705 0.763672C14.5133 0.763672 16.6302 1.73696 18.1367 3.29917C18.4242 3.59734 18.4156 4.07213 18.1175 4.35966C17.8193 4.64718 17.3445 4.63856 17.057 4.3404C15.8215 3.05917 14.0894 2.26367 12.1705 2.26367Z" fill="#323A3D"/>
<path fill-rule="evenodd" clip-rule="evenodd" d="M11.582 3.73828C11.9962 3.73828 12.332 4.07407 12.332 4.48828V8.8499H12.7516C13.1659 8.8499 13.5016 9.18569 13.5016 9.5999C13.5016 10.0141 13.1659 10.3499 12.7516 10.3499H11.965C11.3393 10.3499 10.832 9.84262 10.832 9.2169V4.48828C10.832 4.07407 11.1678 3.73828 11.582 3.73828Z" fill="#323A3D"/>
<path fill-rule="evenodd" clip-rule="evenodd" d="M17.8468 1.35156C18.261 1.35156 18.5968 1.68735 18.5968 2.10156V3.55435C18.5968 4.1829 18.1301 4.7137 17.5067 4.79408L15.8421 5.00871C15.4313 5.06168 15.0553 4.7716 15.0023 4.36078C14.9494 3.94997 15.2395 3.574 15.6503 3.52103L17.0968 3.33451V2.10156C17.0968 1.68735 17.4326 1.35156 17.8468 1.35156Z" fill="#323A3D"/>
</g>
<defs>
<clipPath id="clip0_7630_31345">
<rect width="38" height="22" fill="white" transform="translate(0.367188 0.0390625)"/>
</clipPath>
</defs>
</svg>
