<svg width="40" height="41" viewBox="0 0 40 41" fill="none" xmlns="http://www.w3.org/2000/svg">
<path fill-rule="evenodd" clip-rule="evenodd" d="M4.93604 4.5C4.93604 4.22386 5.15989 4 5.43604 4H34.4942C34.7703 4 34.9942 4.22386 34.9942 4.5V18.16C34.9942 18.4361 34.7703 18.66 34.4942 18.66H5.43604C5.15989 18.66 4.93604 18.4361 4.93604 18.16V4.5ZM5.93604 5V17.66H33.9942V5H5.93604Z" fill="#009688"/>
<path fill-rule="evenodd" clip-rule="evenodd" d="M4.93604 22.2695C4.93604 21.9934 5.15989 21.7695 5.43604 21.7695H34.4942C34.7703 21.7695 34.9942 21.9934 34.9942 22.2695V35.9295C34.9942 36.2057 34.7703 36.4295 34.4942 36.4295H5.43604C5.15989 36.4295 4.93604 36.2057 4.93604 35.9295V22.2695ZM5.93604 22.7695V35.4295H33.9942V22.7695H5.93604Z" fill="#009688"/>
<path fill-rule="evenodd" clip-rule="evenodd" d="M5.48832 20.7578H5V19.7578H5.48832C5.76446 19.7578 5.98832 19.9817 5.98832 20.2578C5.98832 20.534 5.76446 20.7578 5.48832 20.7578ZM6.9416 20.2578C6.9416 19.9817 7.16546 19.7578 7.4416 19.7578H8.41825C8.69439 19.7578 8.91825 19.9817 8.91825 20.2578C8.91825 20.534 8.69439 20.7578 8.41825 20.7578H7.4416C7.16546 20.7578 6.9416 20.534 6.9416 20.2578ZM9.87153 20.2578C9.87153 19.9817 10.0954 19.7578 10.3715 19.7578H11.3482C11.6243 19.7578 11.8482 19.9817 11.8482 20.2578C11.8482 20.534 11.6243 20.7578 11.3482 20.7578H10.3715C10.0954 20.7578 9.87153 20.534 9.87153 20.2578ZM12.8015 20.2578C12.8015 19.9817 13.0253 19.7578 13.3015 19.7578H14.2781C14.5542 19.7578 14.7781 19.9817 14.7781 20.2578C14.7781 20.534 14.5542 20.7578 14.2781 20.7578H13.3015C13.0253 20.7578 12.8015 20.534 12.8015 20.2578ZM15.7314 20.2578C15.7314 19.9817 15.9552 19.7578 16.2314 19.7578H17.208C17.4842 19.7578 17.708 19.9817 17.708 20.2578C17.708 20.534 17.4842 20.7578 17.208 20.7578H16.2314C15.9552 20.7578 15.7314 20.534 15.7314 20.2578ZM18.6613 20.2578C18.6613 19.9817 18.8852 19.7578 19.1613 19.7578H20.1379C20.4141 19.7578 20.6379 19.9817 20.6379 20.2578C20.6379 20.534 20.4141 20.7578 20.1379 20.7578H19.1613C18.8852 20.7578 18.6613 20.534 18.6613 20.2578ZM21.5912 20.2578C21.5912 19.9817 21.8151 19.7578 22.0912 19.7578H23.0679C23.344 19.7578 23.5679 19.9817 23.5679 20.2578C23.5679 20.534 23.344 20.7578 23.0679 20.7578H22.0912C21.8151 20.7578 21.5912 20.534 21.5912 20.2578ZM24.5211 20.2578C24.5211 19.9817 24.745 19.7578 25.0211 19.7578H25.9978C26.2739 19.7578 26.4978 19.9817 26.4978 20.2578C26.4978 20.534 26.2739 20.7578 25.9978 20.7578H25.0211C24.745 20.7578 24.5211 20.534 24.5211 20.2578ZM27.4511 20.2578C27.4511 19.9817 27.6749 19.7578 27.9511 19.7578H28.9277C29.2039 19.7578 29.4277 19.9817 29.4277 20.2578C29.4277 20.534 29.2039 20.7578 28.9277 20.7578H27.9511C27.6749 20.7578 27.4511 20.534 27.4511 20.2578ZM30.381 20.2578C30.381 19.9817 30.6049 19.7578 30.881 19.7578H31.8576C32.1338 19.7578 32.3576 19.9817 32.3576 20.2578C32.3576 20.534 32.1338 20.7578 31.8576 20.7578H30.881C30.6049 20.7578 30.381 20.534 30.381 20.2578ZM33.3109 20.2578C33.3109 19.9817 33.5348 19.7578 33.8109 19.7578H34.2992V20.7578H33.8109C33.5348 20.7578 33.3109 20.534 33.3109 20.2578Z" fill="#262E30"/>
</svg>
