<svg xmlns="http://www.w3.org/2000/svg" viewBox="0 0 40 40"><path d="M24.5,26h-10A1.5,1.5,0,0,1,13,24.5v-10A1.5,1.5,0,0,1,14.5,13h10A1.5,1.5,0,0,1,26,14.5v10A1.5,1.5,0,0,1,24.5,26Zm-10-12a.5.5,0,0,0-.5.5v10a.5.5,0,0,0,.5.5h10a.5.5,0,0,0,.5-.5v-10a.5.5,0,0,0-.5-.5Z" style="fill:#b6b6b6"/><path d="M35,19.5A15.51,15.51,0,0,1,19.5,35a15.72,15.72,0,0,1-2.06-.14A.49.49,0,0,1,17,34.3a.5.5,0,0,1,.56-.43A13.8,13.8,0,0,0,19.5,34,14.5,14.5,0,1,0,7.75,11H11.5a.5.5,0,0,1,0,1h-5a.5.5,0,0,1-.5-.5v-5a.5.5,0,0,1,1,0v3.84A15.5,15.5,0,0,1,35,19.5ZM5.94,24.66a.49.49,0,0,0-.64-.29A.5.5,0,0,0,5,25a15.39,15.39,0,0,0,2.34,4.11.53.53,0,0,0,.4.19.56.56,0,0,0,.31-.11.5.5,0,0,0,.08-.7A14.44,14.44,0,0,1,5.94,24.66Zm8.4,8.4a14.44,14.44,0,0,1-3.85-2.2.5.5,0,0,0-.62.79A15.56,15.56,0,0,0,14,34a.47.47,0,0,0,.17,0,.51.51,0,0,0,.47-.32A.49.49,0,0,0,14.34,33.06ZM5.13,21.43A13.7,13.7,0,0,1,5,19.5a.5.5,0,0,0-1,0,15.72,15.72,0,0,0,.14,2.06.5.5,0,0,0,.49.44H4.7A.5.5,0,0,0,5.13,21.43Z" style="fill:#009688"/></svg>