<svg xmlns="http://www.w3.org/2000/svg" viewBox="0 0 40 40"><path d="M25.5,35h-5A1.5,1.5,0,0,1,19,33.5v-18a.5.5,0,0,0-.5-.5H5.5A1.5,1.5,0,0,1,4,13.5v-8A1.5,1.5,0,0,1,5.5,4h28A1.5,1.5,0,0,1,35,5.5v16a.5.5,0,0,1-1,0V5.5a.5.5,0,0,0-.5-.5H5.5a.5.5,0,0,0-.5.5v8a.5.5,0,0,0,.5.5h13A1.5,1.5,0,0,1,20,15.5v18a.5.5,0,0,0,.5.5h5a.5.5,0,0,1,0,1Z" style="fill:#b6b6b6"/><path d="M14.5,14h-5a.5.5,0,0,1,.5.5V15h2V34H10v.5a.5.5,0,0,1-.5.5h5A1.5,1.5,0,0,0,16,33.5v-18A1.5,1.5,0,0,0,14.5,14ZM15,33.5a.5.5,0,0,1-.5.5H13V15h1.5a.5.5,0,0,1,.5.5ZM23,27h1v1H23Zm7-2H29V24h1ZM9,15h1V34H9Zm.5,20h-2A1.5,1.5,0,0,1,6,33.5v-18A1.5,1.5,0,0,1,7.5,14h2a.5.5,0,0,0-.5.5V15H7.5a.5.5,0,0,0-.5.5v18a.5.5,0,0,0,.5.5H9v.5A.5.5,0,0,0,9.5,35ZM27,25h1v1H27Zm0-2h1v1H27Zm-2-1h1v1H25Zm10,5.31a.36.36,0,0,0-.11-.16L33,25.29V24.5a.5.5,0,0,0-.5-.5h-1a.5.5,0,0,0-.5.5v.79l-1.85,1.86a.36.36,0,0,0-.11.16.41.41,0,0,0,0,.19v6A1.5,1.5,0,0,0,30.5,35h3A1.5,1.5,0,0,0,35,33.5v-6A.41.41,0,0,0,35,27.31ZM31.71,26h.58l1,1H30.71Zm1.79,8h-3a.5.5,0,0,1-.5-.5V28h4v5.5A.5.5,0,0,1,33.5,34ZM23,23h1v1H23Zm0,2h1v1H23Zm2-1h1v1H25Zm-2-3h1v1H23Zm2,5h1v1H25Z" style="fill:#009688"/></svg>