<svg width="40" height="40" viewBox="0 0 40 40" fill="none" xmlns="http://www.w3.org/2000/svg">
<path d="M12.9619 8.91533C14.7815 7.86337 16.8171 7.24041 18.9138 7.09385C21.0106 6.9473 23.1131 7.28102 25.0613 8.06961C27.0096 8.8582 28.7523 10.0809 30.1568 11.6446C31.5612 13.2083 32.5905 15.0718 33.1661 17.0932L32.4701 17.2914C31.9246 15.3758 30.9493 13.6099 29.6184 12.1281C28.2875 10.6463 26.6361 9.48767 24.7898 8.74038C22.9436 7.99309 20.9512 7.67685 18.9643 7.81573C16.9774 7.95461 15.0484 8.54495 13.3241 9.54181L12.9619 8.91533Z" fill="#323A3D"/>
<path d="M12.9619 8.91533C14.7815 7.86337 16.8171 7.24041 18.9138 7.09385C21.0106 6.9473 23.1131 7.28102 25.0613 8.06961C27.0096 8.8582 28.7523 10.0809 30.1568 11.6446C31.5612 13.2083 32.5905 15.0718 33.1661 17.0932L32.4701 17.2914C31.9246 15.3758 30.9493 13.6099 29.6184 12.1281C28.2875 10.6463 26.6361 9.48767 24.7898 8.74038C22.9436 7.99309 20.9512 7.67685 18.9643 7.81573C16.9774 7.95461 15.0484 8.54495 13.3241 9.54181L12.9619 8.91533Z" fill="black" fill-opacity="0.2"/>
<path d="M35.8735 15.8103C35.9053 15.1952 35.2594 14.7764 34.7109 15.0564L30.0364 17.4421C29.4879 17.7221 29.4481 18.4908 29.9648 18.8259L34.3682 21.6812C34.8849 22.0163 35.5705 21.6663 35.6024 21.0513L35.8735 15.8103Z" fill="#B9C7CE"/>
<path d="M35.8735 15.8103C35.9053 15.1952 35.2594 14.7764 34.7109 15.0564L30.0364 17.4421C29.4879 17.7221 29.4481 18.4908 29.9648 18.8259L34.3682 21.6812C34.8849 22.0163 35.5705 21.6663 35.6024 21.0513L35.8735 15.8103Z" stroke="#323A3D" stroke-width="0.6"/>
<path d="M35.8735 15.8103C35.9053 15.1952 35.2594 14.7764 34.7109 15.0564L30.0364 17.4421C29.4879 17.7221 29.4481 18.4908 29.9648 18.8259L34.3682 21.6812C34.8849 22.0163 35.5705 21.6663 35.6024 21.0513L35.8735 15.8103Z" stroke="black" stroke-opacity="0.2" stroke-width="0.6"/>
<path d="M38.5959 27.0625H11.7371V34.2249H38.5959V27.0625Z" stroke="#2B3436" stroke-width="0.6" stroke-miterlimit="10" stroke-dasharray="1.2 1.2"/>
<path d="M2.78393 2.88929L2.78394 34.2246L9.9463 34.2246L9.9463 2.88929L2.78393 2.88929Z" fill="#B9C7CE" stroke="#2B3436" stroke-width="0.6" stroke-miterlimit="10"/>
</svg>
