<svg width="40" height="40" viewBox="0 0 40 40" fill="none" xmlns="http://www.w3.org/2000/svg">
<path fill-rule="evenodd" clip-rule="evenodd" d="M5 21.2715C5 20.9953 5.22386 20.7715 5.5 20.7715H34.5C34.7761 20.7715 35 20.9953 35 21.2715V25.6602C35 25.9363 34.7761 26.1602 34.5 26.1602H5.5C5.22386 26.1602 5 25.9363 5 25.6602V21.2715ZM6 21.7715V25.1602H34V21.7715H6Z" fill="#009688"/>
<path fill-rule="evenodd" clip-rule="evenodd" d="M5 15.3281C5 15.052 5.22386 14.8281 5.5 14.8281H34.5C34.7761 14.8281 35 15.052 35 15.3281V18.4512C35 18.7274 34.7761 18.9512 34.5 18.9512H5.5C5.22386 18.9512 5 18.7274 5 18.4512V15.3281ZM6 15.8281V17.9512H34V15.8281H6Z" fill="#009688"/>
<path fill-rule="evenodd" clip-rule="evenodd" d="M5 10.3008C5 10.0246 5.22386 9.80078 5.5 9.80078H34.5C34.7761 9.80078 35 10.0246 35 10.3008V12.5078C35 12.7839 34.7761 13.0078 34.5 13.0078H5.5C5.22386 13.0078 5 12.7839 5 12.5078V10.3008ZM6 10.8008V12.0078H34V10.8008H6Z" fill="#009688"/>
<path fill-rule="evenodd" clip-rule="evenodd" d="M5 6.48047C5 6.20433 5.22386 5.98047 5.5 5.98047H34.5C34.7761 5.98047 35 6.20433 35 6.48047V7.48047C35 7.75661 34.7761 7.98047 34.5 7.98047H5.5C5.22386 7.98047 5 7.75661 5 7.48047V6.48047Z" fill="#B6B6B6"/>
<path fill-rule="evenodd" clip-rule="evenodd" d="M5 28.4805C5 28.2043 5.22386 27.9805 5.5 27.9805H34.5C34.7761 27.9805 35 28.2043 35 28.4805V33.4805C35 33.7566 34.7761 33.9805 34.5 33.9805H5.5C5.22386 33.9805 5 33.7566 5 33.4805V28.4805ZM6 28.9805V32.9805H34V28.9805H6Z" fill="#B6B6B6"/>
</svg>
