<svg width="40" height="41" viewBox="0 0 40 41" fill="none" xmlns="http://www.w3.org/2000/svg">
<path fill-rule="evenodd" clip-rule="evenodd" d="M3.5 4.5C3.5 4.22386 3.72386 4 4 4H35.5919C35.868 4 36.0919 4.22386 36.0919 4.5V36.0919C36.0919 36.368 35.868 36.5919 35.5919 36.5919H4C3.72386 36.5919 3.5 36.368 3.5 36.0919V4.5ZM4.5 5V35.5919H35.0919V5H4.5Z" fill="#2B3436"/>
<path fill-rule="evenodd" clip-rule="evenodd" d="M7.08533 7.48633C7.08533 7.21019 7.30918 6.98633 7.58533 6.98633H32.6563C32.9324 6.98633 33.1563 7.21019 33.1563 7.48633V16.569C33.1563 16.8452 32.9324 17.069 32.6563 17.069H7.58533C7.30918 17.069 7.08533 16.8452 7.08533 16.569V7.48633ZM8.08533 7.98633V16.069H32.1563V7.98633H8.08533Z" fill="#eb4949"/>
<path fill-rule="evenodd" clip-rule="evenodd" d="M7.10181 19.1719C7.10181 18.8957 7.32566 18.6719 7.60181 18.6719H15.0543C15.3304 18.6719 15.5543 18.8957 15.5543 19.1719V32.6741C15.5543 32.9503 15.3304 33.1741 15.0543 33.1741H7.60181C7.32566 33.1741 7.10181 32.9503 7.10181 32.6741V19.1719ZM8.10181 19.6719V32.1741H14.5543V19.6719H8.10181Z" fill="#2B3436"/>
<path fill-rule="evenodd" clip-rule="evenodd" d="M16.9976 26.7168H33.0704V33.1599H16.9976V26.7168ZM17.9976 27.7168V32.1599H32.0704V27.7168H17.9976Z" fill="#eb4949"/>
<path fill-rule="evenodd" clip-rule="evenodd" d="M16.9976 18.6719H33.0704V25.1151H16.9976V18.6719ZM17.9976 19.6719V24.1151H32.0704V19.6719H17.9976Z" fill="#eb4949"/>
</svg>
