<svg width="40" height="40" viewBox="0 0 40 40" fill="none" xmlns="http://www.w3.org/2000/svg">
<path fill-rule="evenodd" clip-rule="evenodd" d="M14.5713 3.64955C14.6653 3.55389 14.7938 3.5 14.9279 3.5H35.8208C36.0223 3.5 36.204 3.62088 36.2819 3.80664C36.3598 3.99241 36.3186 4.20677 36.1775 4.35045L26.2495 14.4534C26.1555 14.5491 26.027 14.603 25.8929 14.603H5.00001C4.79858 14.603 4.61681 14.4821 4.53891 14.2963C4.46102 14.1106 4.5022 13.8962 4.64338 13.7525L14.5713 3.64955ZM15.1376 4.5L6.19236 13.603H25.6832L34.6285 4.5H15.1376Z" fill="#B6B6B6"/>
<path fill-rule="evenodd" clip-rule="evenodd" d="M36.0103 3.53724C36.1982 3.61412 36.321 3.79699 36.321 4.00002V25.2984C36.321 25.4295 36.2695 25.5553 36.1776 25.6488L26.2497 35.7518C26.1074 35.8966 25.8917 35.941 25.7037 35.8641C25.5158 35.7873 25.3931 35.6044 25.3931 35.4014V14.103C25.3931 13.9719 25.4446 13.846 25.5364 13.7525L35.4644 3.64956C35.6067 3.50475 35.8224 3.46037 36.0103 3.53724ZM26.3931 14.3075V34.1792L35.321 25.0938V5.2222L26.3931 14.3075Z" fill="#B6B6B6"/>
<path fill-rule="evenodd" clip-rule="evenodd" d="M14.5713 3.64955C14.6653 3.55389 14.7938 3.5 14.9279 3.5H35.8208C36.0223 3.5 36.204 3.62088 36.2819 3.80664C36.3598 3.99241 36.3186 4.20677 36.1775 4.35045L26.2495 14.4534C26.1555 14.5491 26.027 14.603 25.8929 14.603H5.00001C4.79858 14.603 4.61681 14.4821 4.53891 14.2963C4.46102 14.1106 4.5022 13.8962 4.64338 13.7525L14.5713 3.64955ZM15.1376 4.5L6.19236 13.603H25.6832L34.6285 4.5H15.1376Z" fill="#B6B6B6"/>
<path fill-rule="evenodd" clip-rule="evenodd" d="M9.8501 14.2305C10.1262 14.2305 10.3501 14.4543 10.3501 14.7305V15.3212H9.3501V14.7305C9.3501 14.4543 9.57396 14.2305 9.8501 14.2305ZM9.3501 17.0935V16.5028H10.3501V17.0935H10.2304V17.5935H9.8501C9.57396 17.5935 9.3501 17.3697 9.3501 17.0935ZM11.7516 17.5935H10.991V16.5935H11.7516V17.5935ZM12.5122 17.0935H12.3925V17.6892H13.3925V17.0935C13.3925 16.8174 13.1686 16.5935 12.8925 16.5935H12.5122V17.0935ZM12.3925 20.0718V18.8805H13.3925V20.0718H12.3925ZM12.3925 21.8588V21.2631H13.3925V21.6544L13.6782 21.9455L12.9645 22.646L12.5356 22.209C12.4439 22.1155 12.3925 21.9898 12.3925 21.8588ZM14.108 23.8111L13.8222 23.5199L14.5359 22.8195L14.9648 23.2565C15.0566 23.35 15.108 23.4757 15.108 23.6067V24.1516H14.108V23.8111ZM14.108 26.331V25.2413H15.108V26.331H14.108ZM14.108 27.9656V27.4207H15.108V27.761L15.2912 27.9475L14.5779 28.6484L14.2513 28.316C14.1594 28.2225 14.108 28.0967 14.108 27.9656ZM15.8844 29.9779L15.2312 29.3131L15.9444 28.6122L16.5977 29.277L15.8844 29.9779ZM16.7209 30.8291L16.5377 30.6427L17.2509 29.9418L17.5775 30.2741C17.6694 30.3676 17.7209 30.4935 17.7209 30.6246V31.1521H16.7209V30.8291ZM16.7209 33.2622V32.2071H17.7209V33.2622H16.7209ZM16.7209 34.8448V34.3172H17.7209V34.8448C17.7209 35.1209 17.4971 35.3448 17.2209 35.3448C16.9448 35.3448 16.7209 35.1209 16.7209 34.8448Z" fill="#eb4949"/>
<path fill-rule="evenodd" clip-rule="evenodd" d="M4.5 14.1035C4.5 13.8274 4.72386 13.6035 5 13.6035H25.8929C26.169 13.6035 26.3929 13.8274 26.3929 14.1035V35.3648C26.3929 35.6409 26.169 35.8648 25.8929 35.8648H5C4.72386 35.8648 4.5 35.6409 4.5 35.3648V14.1035ZM5.5 14.6035V34.8648H25.3929V14.6035H5.5Z" fill="#eb4949"/>
</svg>
