<svg width="40" height="41" viewBox="0 0 40 41" fill="none" xmlns="http://www.w3.org/2000/svg">
<path fill-rule="evenodd" clip-rule="evenodd" d="M5.5 5V9.44653H13.3165C13.8704 9.44653 14.3091 9.89686 14.3091 10.4441V35.2513H19.9173V10.4441C19.9173 9.89686 20.3561 9.44653 20.91 9.44653H28.7479V5H5.5ZM4.5 4.9976C4.5 4.45033 4.93873 4 5.49267 4H28.7552C29.3092 4 29.7479 4.45033 29.7479 4.9976V9.44894C29.7479 9.99623 29.3092 10.4465 28.7552 10.4465H20.9173V35.2537C20.9173 35.8009 20.4786 36.2513 19.9247 36.2513H14.3018C13.7478 36.2513 13.3091 35.8009 13.3091 35.2537V10.4465H5.49267C4.93875 10.4465 4.5 9.99623 4.5 9.44894V4.9976Z" fill="#00AE42"/>
<path fill-rule="evenodd" clip-rule="evenodd" d="M30.6779 23.6992C30.0689 23.6992 29.3177 23.7852 28.4197 23.9751L28.4182 23.9754C27.6749 24.1302 27.073 24.3232 26.6099 24.5434V26.109C27.7461 25.4864 28.9492 25.171 30.2173 25.171C30.9889 25.171 31.6598 25.349 32.1511 25.782C32.6487 26.2205 32.8833 26.8506 32.9229 27.5858L32.9231 27.5891C32.9414 27.979 32.6449 28.2899 32.2969 28.3401L32.2928 28.3407L29.1514 28.7677C29.1511 28.7678 29.1507 28.7678 29.1504 28.7679C27.8225 28.9541 26.8967 29.3651 26.305 29.9484C25.7239 30.5211 25.4104 31.3138 25.4104 32.3885C25.4104 33.4226 25.7167 34.1844 26.2947 34.7368L26.2961 34.7381C26.8746 35.2952 27.6665 35.5935 28.7179 35.5935C30.1353 35.5935 31.1886 34.9959 31.9296 33.7501L32.075 33.5057H32.9022V35.296H35.2866V28.3699C35.2866 26.7229 34.8797 25.5789 34.1537 24.8439C33.4288 24.1101 32.302 23.6992 30.6779 23.6992ZM28.2136 22.9965C29.1574 22.797 29.9803 22.6992 30.6779 22.6992C32.4595 22.6992 33.8871 23.1511 34.8652 24.1412C35.8421 25.1302 36.2866 26.5716 36.2866 28.3699V35.5526C36.2866 35.9594 35.9603 36.296 35.5456 36.296H32.6432C32.2285 36.296 31.9022 35.9594 31.9022 35.5526V35.3882C31.0603 36.1882 29.9911 36.5935 28.7179 36.5935C27.4669 36.5935 26.4062 36.2321 25.6032 35.4591C24.7893 34.681 24.4104 33.6366 24.4104 32.3885C24.4104 31.1051 24.793 30.0346 25.603 29.2362C26.4021 28.4485 27.5618 27.9807 29.0127 27.7774L29.0147 27.7771L31.8992 27.385C31.8383 26.975 31.6887 26.7074 31.4899 26.5322C31.2462 26.3175 30.8488 26.171 30.2173 26.171C28.9832 26.171 27.8162 26.5148 26.7025 27.214L26.7006 27.2152C26.2174 27.5155 25.6099 27.1537 25.6099 26.6013V24.3729C25.6099 24.1204 25.7428 23.8699 25.9835 23.7389L25.9899 23.7355C26.5799 23.4256 27.3295 23.1807 28.2136 22.9965ZM32.929 29.3587V30.8038C32.929 31.6881 32.6556 32.4555 32.0923 33.0761C31.523 33.7034 30.7925 34.019 29.9281 34.019C29.3134 34.019 28.7591 33.8526 28.3341 33.4677C27.9073 33.0812 27.7038 32.5675 27.7038 31.9829C27.7038 31.3652 27.9077 30.8262 28.349 30.4241C28.7742 30.0367 29.3686 29.8233 30.0649 29.7295L30.0674 29.7292L32.929 29.3587ZM30.1984 30.7206C30.1979 30.7207 30.1975 30.7207 30.1971 30.7208C29.6089 30.8001 29.2398 30.9653 29.0225 31.1633C28.8212 31.3466 28.7038 31.6 28.7038 31.9829C28.7038 32.3177 28.8109 32.5504 29.0053 32.7264C29.2015 32.9041 29.4933 33.019 29.9281 33.019C30.5204 33.019 30.9787 32.8153 31.3519 32.4041C31.7311 31.9863 31.929 31.4663 31.929 30.8038V30.4965L30.1984 30.7206Z" fill="#262E30"/>
</svg>
