<svg width="40" height="41" viewBox="0 0 40 41" fill="none" xmlns="http://www.w3.org/2000/svg">
<path fill-rule="evenodd" clip-rule="evenodd" d="M3.50012 10.623C3.50012 10.3469 3.72398 10.123 4.00012 10.123H16.7671C17.0432 10.123 17.2671 10.3469 17.2671 10.623V14.3822C17.2671 14.6583 17.0432 14.8822 16.7671 14.8822C15.5997 14.8822 14.6558 15.8253 14.6558 16.9843C14.6558 18.1433 15.5997 19.0864 16.7671 19.0864C17.0432 19.0864 17.2671 19.3103 17.2671 19.5864V23.3455C17.2671 23.6217 17.0432 23.8455 16.7671 23.8455H13.4546C13.2147 25.322 11.9295 26.4477 10.3836 26.4477C8.83768 26.4477 7.55253 25.322 7.31257 23.8455H4.00012C3.72398 23.8455 3.50012 23.6217 3.50012 23.3455V10.623ZM4.50012 11.123V22.8455H7.77237C8.04851 22.8455 8.27237 23.0694 8.27237 23.3455C8.27237 24.5046 9.21626 25.4477 10.3836 25.4477C11.5509 25.4477 12.4948 24.5046 12.4948 23.3455C12.4948 23.0694 12.7187 22.8455 12.9948 22.8455H16.2671V20.0465C14.7878 19.8081 13.6558 18.5289 13.6558 16.9843C13.6558 15.4397 14.7878 14.1605 16.2671 13.922V11.123H4.50012Z" fill="#00AE42"/>
<path fill-rule="evenodd" clip-rule="evenodd" d="M3.50012 23.3457C3.50012 23.0696 3.72398 22.8457 4.00012 22.8457H7.77237C8.04851 22.8457 8.27237 23.0696 8.27237 23.3457C8.27237 24.5047 9.21626 25.4478 10.3836 25.4478C11.5509 25.4478 12.4948 24.5047 12.4948 23.3457C12.4948 23.0696 12.7187 22.8457 12.9948 22.8457H16.7671C17.0432 22.8457 17.2671 23.0696 17.2671 23.3457V26.6447C18.7463 26.8832 19.8783 28.1624 19.8783 29.707C19.8783 31.2516 18.7463 32.5307 17.2671 32.7692V36.0682C17.2671 36.3443 17.0432 36.5682 16.7671 36.5682H4.00012C3.72398 36.5682 3.50012 36.3443 3.50012 36.0682V23.3457ZM4.50012 23.8457V35.5682H16.2671V32.3091C16.2671 32.033 16.4909 31.8091 16.7671 31.8091C17.9344 31.8091 18.8783 30.866 18.8783 29.707C18.8783 28.5479 17.9344 27.6048 16.7671 27.6048C16.4909 27.6048 16.2671 27.381 16.2671 27.1048V23.8457H13.4546C13.2147 25.3222 11.9295 26.4478 10.3836 26.4478C8.83768 26.4478 7.55253 25.3222 7.31257 23.8457H4.50012Z" fill="#00AE42"/>
<path fill-rule="evenodd" clip-rule="evenodd" d="M27.2792 1.79492L37.0158 11.4976L27.2792 21.2003L23.9031 17.8359L24.2585 17.4817C25.0832 16.6599 25.0827 15.3299 24.2588 14.5107C23.4333 13.6881 22.0972 13.6877 21.2717 14.5103L20.9188 14.862L17.5426 11.4976L20.2389 8.81069C19.3612 7.59772 19.4702 5.89702 20.5659 4.80516C21.6614 3.7134 23.3671 3.6055 24.5833 4.48145L27.2792 1.79492ZM27.2792 3.20668L24.6114 5.8652L24.2585 5.51349C23.433 4.69089 22.0972 4.69089 21.2717 5.51349C20.4472 6.33514 20.4472 7.66326 21.2717 8.48491L21.6271 8.83908L18.9593 11.4976L20.9469 13.4783C22.1631 12.6023 23.8688 12.7102 24.9643 13.802C26.0603 14.8922 26.1688 16.5944 25.2912 17.8075L27.2792 19.7885L35.5991 11.4976L27.2792 3.20668Z" fill="#262E30"/>
<path fill-rule="evenodd" clip-rule="evenodd" d="M20.0792 22.8463C20.3191 21.3698 21.6043 20.2441 23.1502 20.2441C24.6961 20.2441 25.9813 21.3698 26.2212 22.8463H29.5337C29.8098 22.8463 30.0337 23.0701 30.0337 23.3463V36.0688C30.0337 36.3449 29.8098 36.5688 29.5337 36.5688H16.7667C16.4906 36.5688 16.2667 36.3449 16.2667 36.0688V32.3055C16.2667 32.036 16.4803 31.815 16.7496 31.8058C17.8835 31.7669 18.7878 30.8402 18.7878 29.7075C18.7878 28.573 17.8838 27.6482 16.7496 27.6093C16.4803 27.6 16.2667 27.379 16.2667 27.1096V23.3463C16.2667 23.0701 16.4906 22.8463 16.7667 22.8463H20.0792ZM25.2614 23.3463C25.2614 22.1872 24.3175 21.2441 23.1502 21.2441C21.9829 21.2441 21.039 22.1872 21.039 23.3463C21.039 23.6224 20.8151 23.8463 20.539 23.8463H17.2667V26.6639C18.7008 26.9387 19.7878 28.1928 19.7878 29.7075C19.7878 31.2201 18.7009 32.476 17.2667 32.7511V35.5688H29.0337V23.8463H25.7614C25.4853 23.8463 25.2614 23.6224 25.2614 23.3463Z" fill="#00AE42"/>
</svg>
