<svg xmlns="http://www.w3.org/2000/svg" viewBox="0 0 40 40"><path d="M16.5,32h-8A1.5,1.5,0,0,1,7,30.5v-12A1.5,1.5,0,0,1,8.5,17h8A1.5,1.5,0,0,1,18,18.5v12A1.5,1.5,0,0,1,16.5,32Zm-8-14a.5.5,0,0,0-.5.5v12a.5.5,0,0,0,.5.5h8a.5.5,0,0,0,.5-.5v-12a.5.5,0,0,0-.5-.5Z" style="fill:#009688"/><path d="M33.5,35H5.5A1.5,1.5,0,0,1,4,33.5V5.5A1.5,1.5,0,0,1,5.5,4h28A1.5,1.5,0,0,1,35,5.5v28A1.5,1.5,0,0,1,33.5,35ZM5.5,5a.5.5,0,0,0-.5.5v28a.5.5,0,0,0,.5.5h28a.5.5,0,0,0,.5-.5V5.5a.5.5,0,0,0-.5-.5Zm25,11H8.5A1.5,1.5,0,0,1,7,14.5v-6A1.5,1.5,0,0,1,8.5,7h22A1.5,1.5,0,0,1,32,8.5v6A1.5,1.5,0,0,1,30.5,16ZM8.5,8a.5.5,0,0,0-.5.5v6a.5.5,0,0,0,.5.5h22a.5.5,0,0,0,.5-.5v-6a.5.5,0,0,0-.5-.5Zm22,16h-10A1.5,1.5,0,0,1,19,22.5v-4A1.5,1.5,0,0,1,20.5,17h10A1.5,1.5,0,0,1,32,18.5v4A1.5,1.5,0,0,1,30.5,24Zm-10-6a.5.5,0,0,0-.5.5v4a.5.5,0,0,0,.5.5h10a.5.5,0,0,0,.5-.5v-4a.5.5,0,0,0-.5-.5Zm10,14h-10A1.5,1.5,0,0,1,19,30.5v-4A1.5,1.5,0,0,1,20.5,25h10A1.5,1.5,0,0,1,32,26.5v4A1.5,1.5,0,0,1,30.5,32Zm-10-6a.5.5,0,0,0-.5.5v4a.5.5,0,0,0,.5.5h10a.5.5,0,0,0,.5-.5v-4a.5.5,0,0,0-.5-.5Z" style="fill:#b6b6b6"/></svg>