<svg xmlns="http://www.w3.org/2000/svg" viewBox="0 0 40 40"><path d="M22.5,29a.47.47,0,0,1-.35-.15l-12-12a.49.49,0,0,1,.7-.7L22.5,27.79,33.79,16.5,22.15,4.85a.49.49,0,0,1,.7-.7l12,12a.48.48,0,0,1,0,.7l-12,12A.47.47,0,0,1,22.5,29Z" style="fill:#b6b6b6"/><path d="M29,16H27A4.47,4.47,0,0,0,23,12.05V10H22v2.05A4.47,4.47,0,0,0,18.05,16H16v1h2.05A4.47,4.47,0,0,0,22,21V23h1V21A4.47,4.47,0,0,0,27,17H29ZM23,20V19H22V20A3.48,3.48,0,0,1,19.05,17H20V16h-.95A3.48,3.48,0,0,1,22,13.05V14h1v-.95A3.48,3.48,0,0,1,26,16H25v1H26A3.48,3.48,0,0,1,23,20ZM22.5,16a.5.5,0,1,0,.5.5A.5.5,0,0,0,22.5,16Zm-12.35.15,12-12a.49.49,0,1,1,.7.7l-12,12a.48.48,0,0,1-.7,0A.48.48,0,0,1,10.15,16.15Zm-2,14.7a.48.48,0,0,0,.7,0l4-4a.49.49,0,0,0-.7-.7L9,29.29V16.5a.44.44,0,0,0-.08-.25A.44.44,0,0,0,9,16a6,6,0,0,1,6-6,.5.5,0,0,0,0-1,7,7,0,0,0-7,7,.44.44,0,0,0,.08.25A.44.44,0,0,0,8,16.5V29.29L4.85,26.15a.49.49,0,0,0-.7.7ZM35,34H4v1H35Z" style="fill:#009688"/></svg>