<svg xmlns="http://www.w3.org/2000/svg" viewBox="0 0 40 40"><path d="M35,28.5h0a.27.27,0,0,1,0,.12.17.17,0,0,1,0,.07h0a.42.42,0,0,1-.11.15h0a.4.4,0,0,1-.15.1h0l-15,6a.46.46,0,0,1-.19,0,.5.5,0,0,1-.19-1L34,28.16V11.24L19.69,17a.46.46,0,0,1-.19,0,.5.5,0,0,1-.19-1L33.15,10.5,19.5,5,4.69,11A.5.5,0,0,1,4.31,10l15-6a.5.5,0,0,1,.38,0l15,6h0a.45.45,0,0,1,.2.16l0,.05a.44.44,0,0,1,.08.25Z" style="fill:#b6b6b6"/><path d="M19.5,35a.43.43,0,0,1-.19,0l-15-6A.49.49,0,0,1,4,28.5v-18a.48.48,0,0,1,.22-.41A.47.47,0,0,1,4.69,10l15,6a.49.49,0,0,1,.31.46v18a.48.48,0,0,1-.22.41A.47.47,0,0,1,19.5,35ZM5,28.16l14,5.6V16.84L5,11.24Zm5-9.66v-1a.5.5,0,0,0-1,0v1a.5.5,0,0,0,1,0Zm2,6v-1a.5.5,0,0,0-1,0v1a.5.5,0,0,0,1,0Zm2,6v-1a.5.5,0,0,0-1,0v1a.5.5,0,0,0,1,0Zm-3.15-8.65a.48.48,0,0,0,0-.7l-1-1a.49.49,0,0,0-.7.7l1,1a.48.48,0,0,0,.7,0Zm2,6a.48.48,0,0,0,0-.7l-1-1a.49.49,0,0,0-.7.7l1,1a.48.48,0,0,0,.7,0ZM10,15.5v-1a.5.5,0,0,0-1,0v1a.5.5,0,0,0,1,0Z" style="fill:#009688"/></svg>