<svg width="40" height="40" viewBox="0 0 40 40" fill="none" xmlns="http://www.w3.org/2000/svg">
<path fill-rule="evenodd" clip-rule="evenodd" d="M12.4347 23.836C12.5436 23.7271 12.4938 23.5412 12.3451 23.5014L3.33087 21.086C3.18216 21.0462 3.04608 21.1823 3.08592 21.331L5.50127 30.3452C5.54112 30.4939 5.72701 30.5437 5.83588 30.4348L12.4347 23.836ZM6.10857 28.7479L10.7478 24.1087L4.41048 22.4106L6.10857 28.7479Z" fill="#eb4949"/>
<path fill-rule="evenodd" clip-rule="evenodd" d="M7.89761 22.2056C8.40708 21.2816 9.0868 20.4596 9.90301 19.7842C10.7192 19.1087 11.6539 18.5948 12.6569 18.2672C12.7423 18.2393 12.8282 18.2128 12.9145 18.1876C12.9287 18.1835 12.9425 18.1788 12.956 18.1735C13.171 18.0893 13.3017 17.8618 13.2482 17.6334C13.1914 17.3906 12.9481 17.2388 12.7084 17.3073C12.6929 17.3118 12.6774 17.3163 12.6619 17.3208C12.5636 17.3494 12.4659 17.3796 12.3688 17.4115C11.2611 17.7743 10.229 18.3424 9.32737 19.0885C8.42574 19.8346 7.67454 20.7422 7.11088 21.7624C7.06145 21.8519 7.01346 21.9422 6.96694 22.0334C6.95961 22.0478 6.95231 22.0622 6.94505 22.0766C6.83287 22.2992 6.93647 22.5666 7.16432 22.6679C7.37872 22.7632 7.62664 22.6774 7.74958 22.4819C7.75729 22.4696 7.76451 22.4569 7.7712 22.4438C7.81209 22.3637 7.85424 22.2843 7.89761 22.2056Z" fill="#eb4949"/>
<path fill-rule="evenodd" clip-rule="evenodd" d="M35 33H8C7.44772 33 7 33.4477 7 34C7 34.5523 7.44772 35 8 35H35C35.5523 35 36 34.5523 36 34C36 33.4477 35.5523 33 35 33ZM8 32C6.89543 32 6 32.8954 6 34C6 35.1046 6.89543 36 8 36H35C36.1046 36 37 35.1046 37 34C37 32.8954 36.1046 32 35 32H8Z" fill="#B6B6B6"/>
<path fill-rule="evenodd" clip-rule="evenodd" d="M37.099 9.78194L19.782 4.87065L14.8707 22.1877L32.1877 27.099L37.099 9.78194ZM19.0928 3.63574L13.6358 22.8769L32.8769 28.3339L38.3339 9.09274L19.0928 3.63574Z" fill="#eb4949"/>
<path d="M4.22754 10.104L3.31055 13.6079H2.40527L3.73828 9.34229H4.30371L4.22754 10.104ZM4.95117 13.6079L4.02832 10.104L3.94336 9.34229H4.51758L5.8623 13.6079H4.95117ZM4.9834 12.0171V12.729H3.05859V12.0171H4.9834Z" fill="#eb4949"/>
<path d="M8.13281 9.34229H8.98828V12.272C8.98828 12.6001 8.92773 12.8677 8.80664 13.0747C8.6875 13.2798 8.52246 13.4302 8.31152 13.5259C8.10059 13.6196 7.85938 13.6665 7.58789 13.6665C7.31445 13.6665 7.07129 13.6196 6.8584 13.5259C6.64551 13.4302 6.47949 13.2798 6.36035 13.0747C6.24316 12.8677 6.18457 12.6001 6.18457 12.272V9.34229H7.04004V12.272C7.04004 12.4575 7.06055 12.6001 7.10156 12.6997C7.14453 12.7993 7.20605 12.8677 7.28613 12.9048C7.36816 12.9399 7.46875 12.9575 7.58789 12.9575C7.70898 12.9575 7.80859 12.9399 7.88672 12.9048C7.9668 12.8677 8.02734 12.7993 8.06836 12.6997C8.11133 12.6001 8.13281 12.4575 8.13281 12.272V9.34229Z" fill="#eb4949"/>
<path d="M11.3438 9.34229V13.6079H10.4912V9.34229H11.3438ZM12.4043 9.34229V10.0542H9.45117V9.34229H12.4043Z" fill="#eb4949"/>
<path d="M15.8174 11.144V11.856C15.8174 12.1567 15.7803 12.4204 15.7061 12.647C15.6338 12.8716 15.5303 13.0601 15.3955 13.2124C15.2627 13.3628 15.1016 13.4761 14.9121 13.5522C14.7246 13.6284 14.5166 13.6665 14.2881 13.6665C14.0596 13.6665 13.8506 13.6284 13.6611 13.5522C13.4736 13.4761 13.3115 13.3628 13.1748 13.2124C13.04 13.0601 12.9355 12.8716 12.8613 12.647C12.7871 12.4204 12.75 12.1567 12.75 11.856V11.144C12.75 10.8354 12.7861 10.5659 12.8584 10.3354C12.9307 10.103 13.0352 9.90967 13.1719 9.75537C13.3086 9.59912 13.4707 9.48193 13.6582 9.40381C13.8457 9.32373 14.0537 9.28369 14.2822 9.28369C14.5107 9.28369 14.7188 9.32373 14.9062 9.40381C15.0938 9.48193 15.2559 9.59912 15.3926 9.75537C15.5293 9.90967 15.6338 10.103 15.7061 10.3354C15.7803 10.5659 15.8174 10.8354 15.8174 11.144ZM14.9648 11.856V11.1382C14.9648 10.9351 14.9502 10.7622 14.9209 10.6196C14.8916 10.4751 14.8477 10.3569 14.7891 10.2651C14.7305 10.1733 14.6592 10.106 14.5752 10.063C14.4912 10.02 14.3936 9.99854 14.2822 9.99854C14.1709 9.99854 14.0723 10.02 13.9863 10.063C13.9023 10.106 13.8311 10.1733 13.7725 10.2651C13.7158 10.3569 13.6729 10.4751 13.6436 10.6196C13.6162 10.7622 13.6025 10.9351 13.6025 11.1382V11.856C13.6025 12.0513 13.6172 12.2183 13.6465 12.3569C13.6758 12.4956 13.7197 12.6089 13.7783 12.6968C13.8369 12.7847 13.9082 12.8501 13.9922 12.8931C14.0781 12.9341 14.1768 12.9546 14.2881 12.9546C14.3975 12.9546 14.4941 12.9341 14.5781 12.8931C14.6641 12.8501 14.7354 12.7847 14.792 12.6968C14.8486 12.6089 14.8916 12.4956 14.9209 12.3569C14.9502 12.2183 14.9648 12.0513 14.9648 11.856Z" fill="#eb4949"/>
</svg>
