<svg width="40" height="41" viewBox="0 0 40 41" fill="none" xmlns="http://www.w3.org/2000/svg">
<path fill-rule="evenodd" clip-rule="evenodd" d="M0.5 13.5137C0.5 13.2375 0.723858 13.0137 1 13.0137H21.8591C22.1352 13.0137 22.3591 13.2375 22.3591 13.5137V34.5813C22.3591 34.8574 22.1352 35.0813 21.8591 35.0813H1C0.723858 35.0813 0.5 34.8574 0.5 34.5813V13.5137ZM1.5 14.0137V34.0813H21.3591V14.0137H1.5Z" fill="#2B3436"/>
<path fill-rule="evenodd" clip-rule="evenodd" d="M10.5539 3.1483C10.6478 3.0534 10.7758 3 10.9093 3H31.7736C31.9754 3 32.1574 3.12128 32.2351 3.30751C32.3127 3.49374 32.2709 3.7084 32.1289 3.85179L22.2156 13.8642C22.1217 13.9591 21.9938 14.0125 21.8603 14.0125H1.00123C0.79948 14.0125 0.617494 13.8912 0.539798 13.705C0.462102 13.5188 0.503921 13.3042 0.645833 13.1608L10.5539 3.1483ZM11.1179 4L2.19945 13.0125H21.6517L30.5749 4H11.1179Z" fill="#2B3436"/>
<path fill-rule="evenodd" clip-rule="evenodd" d="M31.963 3.0376C32.1505 3.1147 32.2728 3.29733 32.2728 3.50002V19.3287C32.2728 19.6048 32.049 19.8287 31.7728 19.8287C31.4967 19.8287 31.2728 19.6048 31.2728 19.3287V4.71566L22.3595 13.7181V33.4017L23.9871 31.7578L24.9104 30.8496C25.1072 30.6559 25.4238 30.6585 25.6174 30.8554C25.8111 31.0522 25.8085 31.3688 25.6117 31.5625L24.6908 32.4684L22.2148 34.9691C22.0722 35.1132 21.8567 35.1569 21.6693 35.0798C21.4818 35.0027 21.3595 34.82 21.3595 34.6173V13.5125C21.3595 13.3807 21.4115 13.2543 21.5042 13.1607L31.4175 3.14822C31.5601 3.00419 31.7756 2.9605 31.963 3.0376Z" fill="#2B3436"/>
<path fill-rule="evenodd" clip-rule="evenodd" d="M10.5539 3.1483C10.6478 3.0534 10.7758 3 10.9093 3H31.7736C31.9754 3 32.1574 3.12128 32.2351 3.30751C32.3127 3.49374 32.2709 3.7084 32.1289 3.85179L22.2156 13.8642C22.1217 13.9591 21.9938 14.0125 21.8603 14.0125H1.00123C0.79948 14.0125 0.617494 13.8912 0.539798 13.705C0.462102 13.5188 0.503921 13.3042 0.645833 13.1608L10.5539 3.1483ZM11.1179 4L2.19945 13.0125H21.6517L30.5749 4H11.1179Z" fill="#2B3436"/>
<path fill-rule="evenodd" clip-rule="evenodd" d="M31.594 20C27.7846 20 24.688 23.1204 24.688 26.9801C24.688 30.8398 27.7846 33.9602 31.594 33.9602C35.4034 33.9602 38.5 30.8398 38.5 26.9801C38.5 23.1204 35.4034 20 31.594 20ZM23.688 26.9801C23.688 22.5775 27.223 19 31.594 19C35.965 19 39.5 22.5775 39.5 26.9801C39.5 31.3826 35.965 34.9602 31.594 34.9602C27.2229 34.9602 23.688 31.3826 23.688 26.9801Z" fill="#009688"/>
<path fill-rule="evenodd" clip-rule="evenodd" d="M26.011 26.9805C26.011 26.7043 26.2348 26.4805 26.511 26.4805H36.6719C36.948 26.4805 37.1719 26.7043 37.1719 26.9805C37.1719 27.2566 36.948 27.4805 36.6719 27.4805H26.511C26.2348 27.4805 26.011 27.2566 26.011 26.9805Z" fill="#009688"/>
<path fill-rule="evenodd" clip-rule="evenodd" d="M31.5938 21.3438C31.8699 21.3438 32.0938 21.5676 32.0938 21.8438V32.1116C32.0938 32.3877 31.8699 32.6116 31.5938 32.6116C31.3176 32.6116 31.0938 32.3877 31.0938 32.1116V21.8438C31.0938 21.5676 31.3176 21.3438 31.5938 21.3438Z" fill="#009688"/>
</svg>
