<svg width="40" height="41" viewBox="0 0 40 41" fill="none" xmlns="http://www.w3.org/2000/svg">
<path fill-rule="evenodd" clip-rule="evenodd" d="M6.3252 18.1621C6.3252 17.886 6.54905 17.6621 6.8252 17.6621H17.7751C18.0513 17.6621 18.2751 17.886 18.2751 18.1621V35.9297C18.2751 36.2058 18.0513 36.4297 17.7751 36.4297H6.8252C6.54905 36.4297 6.3252 36.2058 6.3252 35.9297V18.1621ZM7.3252 18.6621V35.4297H17.2751V18.6621H7.3252Z" fill="#00AE42"/>
<path fill-rule="evenodd" clip-rule="evenodd" d="M6.46857 20.0913L8.70794 17.8125L9.42119 18.5134L7.18183 20.7922L6.46857 20.0913Z" fill="#00AE42"/>
<path fill-rule="evenodd" clip-rule="evenodd" d="M6.53058 23.4714L12.0914 17.8125L12.8047 18.5134L7.24384 24.1723L6.53058 23.4714Z" fill="#00AE42"/>
<path fill-rule="evenodd" clip-rule="evenodd" d="M6.46863 26.9781L15.4776 17.8125L16.1908 18.5135L7.1818 27.6791L6.46863 26.9781Z" fill="#00AE42"/>
<path fill-rule="evenodd" clip-rule="evenodd" d="M6.46851 30.4239L17.4678 19.2285L18.1811 19.9293L7.18183 31.1248L6.46851 30.4239Z" fill="#00AE42"/>
<path fill-rule="evenodd" clip-rule="evenodd" d="M6.46857 33.8676L17.4185 22.7246L18.1318 23.4255L7.18182 34.5685L6.46857 33.8676Z" fill="#00AE42"/>
<path fill-rule="evenodd" clip-rule="evenodd" d="M8.17114 35.5801L17.4507 26.1348L18.164 26.8356L8.88448 36.2809L8.17114 35.5801Z" fill="#00AE42"/>
<path fill-rule="evenodd" clip-rule="evenodd" d="M11.5544 35.5805L17.418 29.6113L18.1314 30.3121L12.2678 36.2812L11.5544 35.5805Z" fill="#00AE42"/>
<path fill-rule="evenodd" clip-rule="evenodd" d="M14.9383 35.5802L17.4181 33.0566L18.1314 33.7575L15.6516 36.2811L14.9383 35.5802Z" fill="#00AE42"/>
<path fill-rule="evenodd" clip-rule="evenodd" d="M4.5 4.5C4.5 4.22386 4.72386 4 5 4H35.8831C36.1592 4 36.3831 4.22386 36.3831 4.5V35.9297C36.3831 36.2059 36.1592 36.4297 35.8831 36.4297H22.0261C21.7499 36.4297 21.5261 36.2059 21.5261 35.9297V18.6622H5C4.72386 18.6622 4.5 18.4383 4.5 18.1622V4.5ZM5.5 5V17.6622H22.0261C22.3022 17.6622 22.5261 17.886 22.5261 18.1622V35.4297H35.3831V5H5.5Z" fill="#262E30"/>
</svg>
