<svg xmlns="http://www.w3.org/2000/svg" viewBox="0 0 24 24"><rect x="4.5" y="2.5" width="14" height="16" rx="2" style="fill:none;stroke:#009688;stroke-miterlimit:10"/><line x1="2.5" y1="20.5" x2="4.5" y2="18.5" style="fill:none;stroke:#009688;stroke-linecap:round;stroke-linejoin:round"/><line x1="18.5" y1="18.5" x2="20.5" y2="20.5" style="fill:none;stroke:#009688;stroke-linecap:round;stroke-linejoin:round"/><path d="M11.5,12.5v-1h1a2,2,0,0,0,2-2v-2a2,2,0,0,0-2-2h-2a2,2,0,0,0-2,2v1" style="fill:none;stroke:#009688;stroke-linecap:round;stroke-linejoin:round"/><line x1="11.5" y1="14.5" x2="11.5" y2="15.5" style="fill:none;stroke:#009688;stroke-linecap:round;stroke-linejoin:round"/><path d="M17.5,2.5,21,4.22a1,1,0,0,1,.55.9V19.5a2,2,0,0,1-2,2H3.5a2,2,0,0,1-2-2V5.12a1,1,0,0,1,.55-.9L5.5,2.5" style="fill:none;stroke:#009688;stroke-linecap:round;stroke-linejoin:round"/></svg>