<svg xmlns="http://www.w3.org/2000/svg" viewBox="0 0 40 40"><path d="M34.85,19.15l-4-4a.49.49,0,0,0-.7.7L33.29,19H28.5a.5.5,0,0,0,0,1h4.79l-3.14,3.15a.48.48,0,0,0,0,.7.48.48,0,0,0,.7,0l4-4A.48.48,0,0,0,34.85,19.15Z" style="fill:#009688"/><path d="M19.85,4.15a.48.48,0,0,0-.7,0l-4,4a.49.49,0,0,0,.7.7L19,5.71V10.5a.5.5,0,0,0,1,0V5.71l3.15,3.14a.48.48,0,0,0,.7,0,.48.48,0,0,0,0-.7Z" style="fill:#009688"/><path d="M23.15,30.15,20,33.29V28.5a.5.5,0,0,0-1,0v4.79l-3.15-3.14a.49.49,0,0,0-.7.7l4,4a.48.48,0,0,0,.7,0l4-4a.49.49,0,0,0-.7-.7Z" style="fill:#009688"/><path d="M10.5,19H5.71l3.14-3.15a.49.49,0,0,0-.7-.7l-4,4a.48.48,0,0,0,0,.7l4,4a.48.48,0,0,0,.7,0,.48.48,0,0,0,0-.7L5.71,20H10.5a.5.5,0,0,0,0-1Z" style="fill:#009688"/><path d="M24.5,26h-10A1.5,1.5,0,0,1,13,24.5v-10A1.5,1.5,0,0,1,14.5,13h10A1.5,1.5,0,0,1,26,14.5v10A1.5,1.5,0,0,1,24.5,26Zm-10-12a.5.5,0,0,0-.5.5v10a.5.5,0,0,0,.5.5h10a.5.5,0,0,0,.5-.5v-10a.5.5,0,0,0-.5-.5Z" style="fill:#b6b6b6"/></svg>