<svg xmlns="http://www.w3.org/2000/svg" viewBox="0 0 40 40"><path d="M15,29.11a.49.49,0,0,1-.27.65l-2,.8h0l-2,.8h0a.47.47,0,0,1-.38,0h0l-4-1.6h0l-2-.8A.49.49,0,0,1,4,28.5v-13a.5.5,0,0,1,1,0V28.16l1,.4V16.3a.5.5,0,0,1,1,0V29l1,.4V17.1a.5.5,0,0,1,1,0V29.76l1,.4V17.9a.5.5,0,0,1,1,0V30.16l1-.4V18.7a.5.5,0,0,1,1,0V29.36l1.31-.52A.49.49,0,0,1,15,29.11ZM35,27.5v6A1.5,1.5,0,0,1,33.5,35h-3A1.5,1.5,0,0,1,29,33.5v-6a.41.41,0,0,1,0-.19.36.36,0,0,1,.11-.16L31,25.29V24.5a.5.5,0,0,1,.5-.5h1a.5.5,0,0,1,.5.5v.79l1.85,1.86a.36.36,0,0,1,.11.16A.41.41,0,0,1,35,27.5ZM30.71,27h2.58l-1-1h-.58ZM34,33.5V28H30v5.5a.5.5,0,0,0,.5.5h3A.5.5,0,0,0,34,33.5ZM29,24H28v1h1Zm-3,0h1V23H26Zm0,2h1V25H26Zm-2-1h1V24H24Zm0,2h1V26H24Zm0-4h1V22H24Zm-2,1h1V23H22Zm0,2h1V25H22Zm0,2h1V27H22Zm0-6h1V21H22Z" style="fill:#009688"/><path d="M34.92,10.25l0-.05a.45.45,0,0,0-.2-.16h0l-15-6a.5.5,0,0,0-.38,0l-15,6s0,0,0,0l0,0,0,0-.1.12,0,0a.54.54,0,0,0,0,.22H4v5H4a.79.79,0,0,0,0,.13.13.13,0,0,0,0,.06l0,.06a.31.31,0,0,0,.07.09l0,0a.57.57,0,0,0,.13.08h0L14,19.84V32.5h0a.27.27,0,0,0,0,.12.17.17,0,0,0,0,.07h0a.42.42,0,0,0,.11.15h0a.4.4,0,0,0,.15.1h0l5,2a.43.43,0,0,0,.19,0,.46.46,0,0,0,.19,0l5.71-2.28a.5.5,0,1,0-.37-.93l-5,2V16.84l14-5.6V21.5a.5.5,0,0,0,1,0v-11A.44.44,0,0,0,34.92,10.25ZM19,33.76l-4-1.6V19.5h0a.79.79,0,0,0,0-.13.13.13,0,0,0,0-.06l0-.06a.31.31,0,0,0-.07-.09l0,0a.57.57,0,0,0-.13-.08h0L5,15.16V11.24l14,5.6ZM19.5,16,5.85,10.5,19.5,5,33.15,10.5Z" style="fill:#b6b6b6"/></svg>