<svg xmlns="http://www.w3.org/2000/svg" viewBox="0 0 40 40"><path d="M35,10.5v11a.5.5,0,0,1-1,0V11.24L19.69,17a.46.46,0,0,1-.19,0,.5.5,0,0,1-.19-1L33.15,10.5,19.5,5,4.69,11A.5.5,0,0,1,4.31,10l15-6a.5.5,0,0,1,.38,0l15,6h0a.45.45,0,0,1,.2.16l0,.05A.44.44,0,0,1,35,10.5ZM21.46,33.18,19.31,34a.5.5,0,0,0,.19,1,.46.46,0,0,0,.19,0l2.14-.85a.5.5,0,0,0,.27-.65A.49.49,0,0,0,21.46,33.18Z" style="fill:#b6b6b6"/><path d="M19.5,35a.43.43,0,0,1-.19,0l-15-6A.49.49,0,0,1,4,28.5v-18a.48.48,0,0,1,.22-.41A.47.47,0,0,1,4.69,10l15,6a.49.49,0,0,1,.31.46v18a.48.48,0,0,1-.22.41A.47.47,0,0,1,19.5,35ZM5,28.16l14,5.6V16.84L5,11.24Zm5-9.66a.5.5,0,0,0,1,0v-1a.5.5,0,0,0-1,0Zm2,6a.5.5,0,0,0,1,0v-1a.5.5,0,0,0-1,0ZM14.5,29a.5.5,0,0,0-.5.5v1a.5.5,0,0,0,1,0v-1A.5.5,0,0,0,14.5,29Zm-2.65-7.85-1-1a.49.49,0,0,0-.7.7l1,1a.48.48,0,0,0,.7,0A.48.48,0,0,0,11.85,21.15Zm-2-6-1-1a.49.49,0,0,0-.7.7l1,1a.48.48,0,0,0,.7,0A.48.48,0,0,0,9.85,15.15Zm4,12-1-1a.49.49,0,0,0-.7.7l1,1a.48.48,0,0,0,.7,0A.48.48,0,0,0,13.85,27.15ZM31,26a1,1,0,1,0,1,1A1,1,0,0,0,31,26Zm-3-2a1,1,0,1,0,1,1A1,1,0,0,0,28,24Zm-1,4a1,1,0,1,0-1,1A1,1,0,0,0,27,28Zm0,2a1,1,0,1,0,1,1A1,1,0,0,0,27,30Zm5.6-6.55A6.5,6.5,0,1,0,28.5,35,2.5,2.5,0,0,0,31,32.5v-1a.5.5,0,0,1,.5-.5h1A2.5,2.5,0,0,0,35,28.5,6.51,6.51,0,0,0,32.6,23.45ZM32.5,30h-1A1.5,1.5,0,0,0,30,31.5v1A1.5,1.5,0,0,1,28.5,34a5.49,5.49,0,0,1-4.27-2,5.59,5.59,0,0,1-1.11-4.66,5.51,5.51,0,0,1,4.19-4.19A5.91,5.91,0,0,1,28.49,23,5.49,5.49,0,0,1,34,28.5,1.5,1.5,0,0,1,32.5,30Z" style="fill:#009688"/></svg>
