<svg xmlns="http://www.w3.org/2000/svg" width="40" height="40" viewBox="0 0 40 40"><path d="M27.878,34.926h-4.4c-.509,0-.845,0-.955-.394a.593.593,0,0,1,.36-.67,2.3,2.3,0,0,0,1.2-2.189,3.253,3.253,0,1,1,3.8,3.206Zm-3.538-1h2.988a2.253,2.253,0,1,0-2.253-2.253A3.445,3.445,0,0,1,24.34,33.926Z" style="fill:#009688"/><path d="M30.5,30.289l-.846-.535,4.364-6.9a.222.222,0,0,0-.36-.258l-5.4,6.644-.776-.631,5.4-6.644a1.222,1.222,0,0,1,1.982,1.423Z" style="fill:#009688"/><path d="M33.5,35h-1a.5.5,0,0,1,0-1h1a.5.5,0,0,0,.5-.5v-5a.5.5,0,0,1,1,0v5A1.5,1.5,0,0,1,33.5,35Z" style="fill:#2b3436"/><path d="M19.5,35H5.5A1.5,1.5,0,0,1,4,33.5V5.5A1.5,1.5,0,0,1,5.5,4h28A1.5,1.5,0,0,1,35,5.5v13a.5.5,0,0,1-1,0V5.5a.5.5,0,0,0-.5-.5H5.5a.5.5,0,0,0-.5.5v28a.5.5,0,0,0,.5.5h14a.5.5,0,0,1,0,1Z" style="fill:#2b3436"/><rect x="14" y="6" width="2" height="1" style="fill:#009688"/><rect x="12" y="8" width="2" height="1" style="fill:#009688"/><rect x="14" y="12" width="2" height="1" style="fill:#009688"/><rect x="12" y="14" width="2" height="1" style="fill:#009688"/><rect x="13" y="10" width="2" height="1" style="fill:#009688"/><rect x="14" y="18" width="2" height="1" style="fill:#009688"/><rect x="12" y="20" width="2" height="1" style="fill:#009688"/><rect x="13" y="16" width="2" height="1" style="fill:#009688"/><rect x="14" y="24" width="2" height="1" style="fill:#009688"/><rect x="12" y="26" width="2" height="1" style="fill:#009688"/><rect x="13" y="22" width="2" height="1" style="fill:#009688"/><rect x="14" y="30" width="2" height="1" style="fill:#009688"/><rect x="12" y="32" width="2" height="1" style="fill:#009688"/><rect x="13" y="28" width="2" height="1" style="fill:#009688"/></svg>