<svg width="40" height="40" viewBox="0 0 40 40" fill="none" xmlns="http://www.w3.org/2000/svg">
<path d="M4.07495 4.56445V35.6293" stroke="#323A3D" stroke-miterlimit="10"/>
<path d="M4.07495 4.56445V35.6293" stroke="black" stroke-opacity="0.2" stroke-miterlimit="10"/>
<path d="M3 4.87827L4.07528 3L5.15055 4.87827H3Z" fill="#323A3D"/>
<path d="M3 4.87827L4.07528 3L5.15055 4.87827H3Z" fill="black" fill-opacity="0.2"/>
<path d="M34.8325 35.6268H4.19482L15.1866 23.9375" stroke="#323A3D" stroke-miterlimit="10"/>
<path d="M34.8325 35.6268H4.19482L15.1866 23.9375" stroke="black" stroke-opacity="0.2" stroke-miterlimit="10"/>
<path d="M34.5208 34.542L36.3804 35.628L34.5208 36.7088V34.542Z" fill="#323A3D"/>
<path d="M34.5208 34.542L36.3804 35.628L34.5208 36.7088V34.542Z" fill="black" fill-opacity="0.2"/>
<path d="M15.7478 24.9138L16.2517 22.8047L14.1946 23.4185L15.7478 24.9138Z" fill="#323A3D"/>
<path d="M15.7478 24.9138L16.2517 22.8047L14.1946 23.4185L15.7478 24.9138Z" fill="black" fill-opacity="0.2"/>
<path d="M32.23 4.87207H14.8489V22.427H32.23V4.87207Z" stroke="#323A3D" stroke-miterlimit="10" stroke-linejoin="round"/>
<path d="M32.23 4.87207H14.8489V22.427H32.23V4.87207Z" stroke="black" stroke-opacity="0.2" stroke-miterlimit="10" stroke-linejoin="round"/>
<path d="M23.9722 13.2141H6.59106L14.8505 4.87207H32.2264L23.9722 13.2141Z" stroke="#323A3D" stroke-miterlimit="10" stroke-linecap="round" stroke-linejoin="round"/>
<path d="M23.9722 13.2141H6.59106L14.8505 4.87207H32.2264L23.9722 13.2141Z" stroke="black" stroke-opacity="0.2" stroke-miterlimit="10" stroke-linecap="round" stroke-linejoin="round"/>
<path d="M23.971 30.7688H6.58984L14.8493 22.4268H32.2252L23.971 30.7688Z" fill="#B9C7CE"/>
<path d="M23.971 30.7688H6.58984L14.8493 22.4268H32.2252L23.971 30.7688Z" stroke="#323A3D" stroke-miterlimit="10" stroke-linejoin="round"/>
<path d="M23.971 30.7688H6.58984L14.8493 22.4268H32.2252L23.971 30.7688Z" stroke="black" stroke-opacity="0.2" stroke-miterlimit="10" stroke-linejoin="round"/>
<path d="M23.9709 13.2148H6.58984V30.7698H23.9709V13.2148Z" stroke="#323A3D" stroke-miterlimit="10" stroke-linejoin="round"/>
<path d="M23.9709 13.2148H6.58984V30.7698H23.9709V13.2148Z" stroke="black" stroke-opacity="0.2" stroke-miterlimit="10" stroke-linejoin="round"/>
<path d="M12.3462 32V33.3011" stroke="#323A3D" stroke-miterlimit="10"/>
<path d="M12.3462 32V33.3011" stroke="black" stroke-opacity="0.2" stroke-miterlimit="10"/>
<path d="M11 33.0801L12.3463 34.397L13.7019 33.0801H11Z" fill="#323A3D"/>
<path d="M11 33.0801L12.3463 34.397L13.7019 33.0801H11Z" fill="black" fill-opacity="0.2"/>
<path d="M16.0481 32V33.3011" stroke="#323A3D" stroke-miterlimit="10"/>
<path d="M16.0481 32V33.3011" stroke="black" stroke-opacity="0.2" stroke-miterlimit="10"/>
<path d="M14.7019 33.0801L16.0482 34.397L17.4038 33.0801H14.7019Z" fill="#323A3D"/>
<path d="M14.7019 33.0801L16.0482 34.397L17.4038 33.0801H14.7019Z" fill="black" fill-opacity="0.2"/>
<path d="M19.3462 32V33.3011" stroke="#323A3D" stroke-miterlimit="10"/>
<path d="M19.3462 32V33.3011" stroke="black" stroke-opacity="0.2" stroke-miterlimit="10"/>
<path d="M18 33.0801L19.3463 34.397L20.7019 33.0801H18Z" fill="#323A3D"/>
<path d="M18 33.0801L19.3463 34.397L20.7019 33.0801H18Z" fill="black" fill-opacity="0.2"/>
</svg>
