<svg xmlns="http://www.w3.org/2000/svg" viewBox="0 0 40 40"><path d="M23,28.5a.47.47,0,0,1-.35-.15l-11.5-11.5a.49.49,0,0,1,.7-.7L23,27.29,33.79,16.5,22.65,5.35a.49.49,0,0,1,.7-.7l11.5,11.5a.48.48,0,0,1,0,.7l-11.5,11.5A.47.47,0,0,1,23,28.5Z" style="fill:#b6b6b6"/><path d="M11.5,17a.47.47,0,0,1-.35-.15.48.48,0,0,1,0-.7l11.5-11.5a.49.49,0,1,1,.7.7l-11.5,11.5A.47.47,0,0,1,11.5,17ZM9,16a6,6,0,0,1,6-6,.5.5,0,0,0,0-1,7,7,0,0,0-7,7,.5.5,0,0,0,1,0ZM9,27.5v-11a.5.5,0,0,0-1,0v11a.5.5,0,0,0,1,0Zm-.15,1.35,4-4a.49.49,0,0,0-.7-.7L8.5,27.79,4.85,24.15a.49.49,0,0,0-.7.7l4,4a.48.48,0,0,0,.7,0ZM35,33.5v-2A1.5,1.5,0,0,0,33.5,30H5.5A1.5,1.5,0,0,0,4,31.5v2A1.5,1.5,0,0,0,5.5,35h28A1.5,1.5,0,0,0,35,33.5ZM33.5,31a.5.5,0,0,1,.5.5v2a.5.5,0,0,1-.5.5H5.5a.5.5,0,0,1-.5-.5v-2a.5.5,0,0,1,.5-.5Z" style="fill:#009688"/></svg>