<svg xmlns="http://www.w3.org/2000/svg" viewBox="0 0 40 40"><path d="M34.92,10.25l0-.05a.45.45,0,0,0-.2-.16h0l-15-6a.5.5,0,0,0-.38,0l-15,6h0a.45.45,0,0,0-.2.16l0,.05A.44.44,0,0,0,4,10.5v18H4a.32.32,0,0,0,0,.14.13.13,0,0,0,0,.06h0a.71.71,0,0,0,.1.14h0a.4.4,0,0,0,.15.1h0l15,6h0a.45.45,0,0,0,.44,0l.05,0a.45.45,0,0,0,.16-.2h0a.2.2,0,0,0,0-.1.29.29,0,0,0,0-.09h0V16.84l14-5.6V19.5a.5.5,0,0,0,1,0v-9A.44.44,0,0,0,34.92,10.25ZM19,33.76,5,28.16V11.24l14,5.6ZM19.5,16,5.85,10.5,19.5,5,33.15,10.5Z" style="fill:#2b3436"/><path d="M33.5,35h-10A1.5,1.5,0,0,1,22,33.5v-10A1.5,1.5,0,0,1,23.5,22h10A1.5,1.5,0,0,1,35,23.5v10A1.5,1.5,0,0,1,33.5,35Zm-10-12a.5.5,0,0,0-.5.5v10a.5.5,0,0,0,.5.5h10a.5.5,0,0,0,.5-.5v-10a.5.5,0,0,0-.5-.5Z" style="fill:#009688"/><path d="M28.5,32a.5.5,0,0,1-.5-.5v-6a.5.5,0,0,1,1,0v6A.5.5,0,0,1,28.5,32Z" style="fill:#009688"/><path d="M31.5,29h-6a.5.5,0,0,1,0-1h6a.5.5,0,0,1,0,1Z" style="fill:#009688"/></svg>