<svg width="14" height="15" viewBox="0 0 14 15" fill="none" xmlns="http://www.w3.org/2000/svg">
<path fill-rule="evenodd" clip-rule="evenodd" d="M10.2937 5.6687C9.71589 3.84914 8.01293 2.53076 6.00204 2.53076C3.51563 2.53076 1.5 4.54639 1.5 7.0328C1.5 9.27369 3.13722 11.1322 5.28073 11.4774C5.38062 11.4935 5.4564 11.5783 5.4564 11.6794V12.7916C5.4564 12.9091 5.35522 13.0016 5.23861 12.9868C2.28425 12.6118 0 10.0891 0 7.0328C0 3.71797 2.68721 1.03076 6.00204 1.03076C8.84765 1.03076 11.2307 3.01105 11.8484 5.6687H13.3662C13.5275 5.6687 13.6225 5.84996 13.5306 5.9826L11.0772 9.52371C10.9977 9.63851 10.8279 9.63851 10.7484 9.52371L8.29505 5.9826C8.20315 5.84996 8.29808 5.6687 8.45945 5.6687H10.2937Z" fill="#FF6F00"/>
<path d="M7.99414 7.03451C7.99414 7.96884 7.81738 8.68095 7.46384 9.17084C7.11537 9.66073 6.6179 9.90568 5.97144 9.90568C5.32499 9.90568 4.82247 9.66326 4.46389 9.17842C4.11036 8.68852 3.93359 7.97389 3.93359 7.03451C3.93359 6.09513 4.11036 5.38049 4.46389 4.8906C4.82247 4.40071 5.32499 4.15576 5.97144 4.15576C6.6179 4.15576 7.11537 4.40071 7.46384 4.8906C7.81738 5.38049 7.99414 6.09513 7.99414 7.03451ZM5.30479 7.03451C5.30479 7.60521 5.35782 8.02944 5.46387 8.30722C5.57498 8.58499 5.74417 8.72388 5.97144 8.72388C6.19366 8.72388 6.3578 8.58499 6.46386 8.30722C6.56992 8.02439 6.62295 7.60016 6.62295 7.03451C6.62295 6.46886 6.56992 6.04715 6.46386 5.76937C6.3578 5.48655 6.19366 5.34514 5.97144 5.34514C5.74417 5.34514 5.57498 5.4815 5.46387 5.75422C5.35782 6.02695 5.30479 6.45371 5.30479 7.03451Z" fill="#FF6F00"/>
</svg>
