<svg width="40" height="40" viewBox="0 0 40 40" fill="none" xmlns="http://www.w3.org/2000/svg">
<path fill-rule="evenodd" clip-rule="evenodd" d="M4.93604 4C4.93604 3.72386 5.15989 3.5 5.43604 3.5H34.4942C34.7703 3.5 34.9942 3.72386 34.9942 4V17.66C34.9942 17.9361 34.7703 18.16 34.4942 18.16H5.43604C5.15989 18.16 4.93604 17.9361 4.93604 17.66V4ZM5.93604 4.5V17.16H33.9942V4.5H5.93604Z" fill="#eb4949"/>
<path fill-rule="evenodd" clip-rule="evenodd" d="M4.93604 21.7695C4.93604 21.4934 5.15989 21.2695 5.43604 21.2695H34.4942C34.7703 21.2695 34.9942 21.4934 34.9942 21.7695V35.4295C34.9942 35.7057 34.7703 35.9295 34.4942 35.9295H5.43604C5.15989 35.9295 4.93604 35.7057 4.93604 35.4295V21.7695ZM5.93604 22.2695V34.9295H33.9942V22.2695H5.93604Z" fill="#eb4949"/>
<path fill-rule="evenodd" clip-rule="evenodd" d="M5.48832 20.2578H5V19.2578H5.48832C5.76446 19.2578 5.98832 19.4817 5.98832 19.7578C5.98832 20.034 5.76446 20.2578 5.48832 20.2578ZM6.9416 19.7578C6.9416 19.4817 7.16546 19.2578 7.4416 19.2578H8.41825C8.69439 19.2578 8.91825 19.4817 8.91825 19.7578C8.91825 20.034 8.69439 20.2578 8.41825 20.2578H7.4416C7.16546 20.2578 6.9416 20.034 6.9416 19.7578ZM9.87153 19.7578C9.87153 19.4817 10.0954 19.2578 10.3715 19.2578H11.3482C11.6243 19.2578 11.8482 19.4817 11.8482 19.7578C11.8482 20.034 11.6243 20.2578 11.3482 20.2578H10.3715C10.0954 20.2578 9.87153 20.034 9.87153 19.7578ZM12.8015 19.7578C12.8015 19.4817 13.0253 19.2578 13.3015 19.2578H14.2781C14.5542 19.2578 14.7781 19.4817 14.7781 19.7578C14.7781 20.034 14.5542 20.2578 14.2781 20.2578H13.3015C13.0253 20.2578 12.8015 20.034 12.8015 19.7578ZM15.7314 19.7578C15.7314 19.4817 15.9552 19.2578 16.2314 19.2578H17.208C17.4842 19.2578 17.708 19.4817 17.708 19.7578C17.708 20.034 17.4842 20.2578 17.208 20.2578H16.2314C15.9552 20.2578 15.7314 20.034 15.7314 19.7578ZM18.6613 19.7578C18.6613 19.4817 18.8852 19.2578 19.1613 19.2578H20.1379C20.4141 19.2578 20.6379 19.4817 20.6379 19.7578C20.6379 20.034 20.4141 20.2578 20.1379 20.2578H19.1613C18.8852 20.2578 18.6613 20.034 18.6613 19.7578ZM21.5912 19.7578C21.5912 19.4817 21.8151 19.2578 22.0912 19.2578H23.0679C23.344 19.2578 23.5679 19.4817 23.5679 19.7578C23.5679 20.034 23.344 20.2578 23.0679 20.2578H22.0912C21.8151 20.2578 21.5912 20.034 21.5912 19.7578ZM24.5211 19.7578C24.5211 19.4817 24.745 19.2578 25.0211 19.2578H25.9978C26.2739 19.2578 26.4978 19.4817 26.4978 19.7578C26.4978 20.034 26.2739 20.2578 25.9978 20.2578H25.0211C24.745 20.2578 24.5211 20.034 24.5211 19.7578ZM27.4511 19.7578C27.4511 19.4817 27.6749 19.2578 27.9511 19.2578H28.9277C29.2039 19.2578 29.4277 19.4817 29.4277 19.7578C29.4277 20.034 29.2039 20.2578 28.9277 20.2578H27.9511C27.6749 20.2578 27.4511 20.034 27.4511 19.7578ZM30.381 19.7578C30.381 19.4817 30.6049 19.2578 30.881 19.2578H31.8576C32.1338 19.2578 32.3576 19.4817 32.3576 19.7578C32.3576 20.034 32.1338 20.2578 31.8576 20.2578H30.881C30.6049 20.2578 30.381 20.034 30.381 19.7578ZM33.3109 19.7578C33.3109 19.4817 33.5348 19.2578 33.8109 19.2578H34.2992V20.2578H33.8109C33.5348 20.2578 33.3109 20.034 33.3109 19.7578Z" fill="#B6B6B6"/>
</svg>
