<svg xmlns="http://www.w3.org/2000/svg" viewBox="0 0 40 40"><path d="M25.5,5h-2a.5.5,0,0,1,0-1h2a.5.5,0,0,1,0,1ZM21,4.5a.5.5,0,0,0-.5-.5h-2a.5.5,0,0,0,0,1h2A.5.5,0,0,0,21,4.5Zm-5,0a.5.5,0,0,0-.5-.5h-2a.5.5,0,0,0,0,1h2A.5.5,0,0,0,16,4.5Zm10,30a.5.5,0,0,0-.5-.5h-2a.5.5,0,0,0,0,1h2A.5.5,0,0,0,26,34.5Zm-5,0a.5.5,0,0,0-.5-.5h-2a.5.5,0,0,0,0,1h2A.5.5,0,0,0,21,34.5Zm-5,0a.5.5,0,0,0-.5-.5h-2a.5.5,0,0,0,0,1h2A.5.5,0,0,0,16,34.5ZM5,15.5v-2a.5.5,0,0,0-1,0v2a.5.5,0,0,0,1,0Zm0,5v-2a.5.5,0,0,0-1,0v2a.5.5,0,0,0,1,0Zm0,5v-2a.5.5,0,0,0-1,0v2a.5.5,0,0,0,1,0Zm30-10v-2a.5.5,0,0,0-1,0v2a.5.5,0,0,0,1,0Zm0,5v-2a.5.5,0,0,0-1,0v2a.5.5,0,0,0,1,0Zm0,5v-2a.5.5,0,0,0-1,0v2a.5.5,0,0,0,1,0Zm-9-1v-10A1.5,1.5,0,0,0,24.5,13h-10A1.5,1.5,0,0,0,13,14.5v10A1.5,1.5,0,0,0,14.5,26h10A1.5,1.5,0,0,0,26,24.5ZM24.5,14a.5.5,0,0,1,.5.5v10a.5.5,0,0,1-.5.5h-10a.5.5,0,0,1-.5-.5v-10a.5.5,0,0,1,.5-.5Z" style="fill:#b6b6b6"/><path d="M35,4.31A.51.51,0,0,0,34.69,4a.41.41,0,0,0-.19,0h-5a.5.5,0,0,0,0,1h3.79l-6.14,6.15a.48.48,0,0,0,0,.7.48.48,0,0,0,.7,0L34,5.71V9.5a.5.5,0,0,0,1,0v-5A.41.41,0,0,0,35,4.31Z" style="fill:#009688"/><path d="M5.71,5H9.5a.5.5,0,0,0,0-1h-5a.41.41,0,0,0-.19,0A.51.51,0,0,0,4,4.31.41.41,0,0,0,4,4.5v5a.5.5,0,0,0,1,0V5.71l6.15,6.14a.48.48,0,0,0,.7,0,.48.48,0,0,0,0-.7Z" style="fill:#009688"/><path d="M34.5,29a.5.5,0,0,0-.5.5v3.79l-6.15-6.14a.49.49,0,0,0-.7.7L33.29,34H29.5a.5.5,0,0,0,0,1h5a.41.41,0,0,0,.19,0,.51.51,0,0,0,.27-.27.41.41,0,0,0,0-.19v-5A.5.5,0,0,0,34.5,29Z" style="fill:#009688"/><path d="M11.15,27.15,5,33.29V29.5a.5.5,0,0,0-1,0v5a.41.41,0,0,0,0,.19.51.51,0,0,0,.27.27.41.41,0,0,0,.19,0h5a.5.5,0,0,0,0-1H5.71l6.14-6.15a.49.49,0,0,0-.7-.7Z" style="fill:#009688"/></svg>