<svg width="30" height="22" viewBox="0 0 30 22" fill="none" xmlns="http://www.w3.org/2000/svg">
<path fill-rule="evenodd" clip-rule="evenodd" d="M5.02092 4.20131C4.00501 4.20131 3.20133 5.00625 3.20133 5.96954V17.0305C3.20133 17.9938 4.00501 18.7987 5.02092 18.7987H24.9291C25.945 18.7987 26.7487 17.9938 26.7487 17.0305V5.96954C26.7487 5.00625 25.945 4.20131 24.9291 4.20131H5.02092ZM2 5.96954C2 4.31864 3.36594 3 5.02092 3H24.9291C26.5841 3 27.95 4.31864 27.95 5.96954V17.0305C27.95 18.6814 26.5841 20 24.9291 20H5.02092C3.36594 20 2 18.6814 2 17.0305V5.96954Z" fill="#009688"/>
<path d="M9.59541 10.4467H5.28983V12.552H9.59541V10.4467Z" fill="#009688"/>
<path d="M13.8978 10.4467H11.7469V12.552H13.8978V10.4467Z" fill="#009688"/>
<path d="M18.203 10.4467H16.0521V12.552H18.203V10.4467Z" fill="#009688"/>
<path d="M16.0527 6.7626H13.9018V8.86787H16.0527V6.7626Z" fill="#009688"/>
<path d="M11.7467 6.7626H9.59576V8.86787H11.7467V6.7626Z" fill="#009688"/>
<path d="M7.44144 6.7626H5.29052V8.86787H7.44144V6.7626Z" fill="#009688"/>
<path d="M20.3547 6.7626H18.2038V8.86787H20.3547V6.7626Z" fill="#009688"/>
<path d="M22.509 6.7626V10.4496H20.358V12.5548H24.6599V11.504V10.4496V6.7626H22.509Z" fill="#009688"/>
<path d="M7.44075 14.1348H5.28983V16.2401H7.44075V14.1348Z" fill="#009688"/>
<path d="M20.358 14.1348H9.59587V16.2401H20.358V14.1348Z" fill="#009688"/>
<path d="M24.6593 14.1348H22.5084V16.2401H24.6593V14.1348Z" fill="#009688"/>
</svg>
