<svg width="40" height="40" viewBox="0 0 40 40" fill="none" xmlns="http://www.w3.org/2000/svg">
<path fill-rule="evenodd" clip-rule="evenodd" d="M0.5 13.0137C0.5 12.7375 0.723858 12.5137 1 12.5137H21.8591C22.1352 12.5137 22.3591 12.7375 22.3591 13.0137V34.0813C22.3591 34.3574 22.1352 34.5813 21.8591 34.5813H1C0.723858 34.5813 0.5 34.3574 0.5 34.0813V13.0137ZM1.5 13.5137V33.5813H21.3591V13.5137H1.5Z" fill="#B6B6B6"/>
<path fill-rule="evenodd" clip-rule="evenodd" d="M10.5536 2.6483C10.6476 2.5534 10.7755 2.5 10.909 2.5H31.7734C31.9751 2.5 32.1571 2.62128 32.2348 2.80751C32.3125 2.99374 32.2706 3.2084 32.1287 3.35179L22.2153 13.3642C22.1214 13.4591 21.9935 13.5125 21.86 13.5125H1.00099C0.799236 13.5125 0.61725 13.3912 0.539554 13.205C0.461858 13.0188 0.503677 12.8042 0.645589 12.6608L10.5536 2.6483ZM11.1177 3.5L2.19921 12.5125H21.6515L30.5747 3.5H11.1177Z" fill="#B6B6B6"/>
<path fill-rule="evenodd" clip-rule="evenodd" d="M31.9629 2.5376C32.1504 2.6147 32.2727 2.79733 32.2727 3.00002V18.8287C32.2727 19.1048 32.0489 19.3287 31.7727 19.3287C31.4966 19.3287 31.2727 19.1048 31.2727 18.8287V4.21566L22.3594 13.2181V32.9017L23.987 31.2578L24.9103 30.3496C25.1071 30.1559 25.4237 30.1585 25.6174 30.3554C25.811 30.5522 25.8084 30.8688 25.6116 31.0625L24.6907 31.9684L22.2147 34.4691C22.0721 34.6132 21.8566 34.6569 21.6692 34.5798C21.4817 34.5027 21.3594 34.32 21.3594 34.1173V13.0125C21.3594 12.8807 21.4114 12.7543 21.5041 12.6607L31.4174 2.64822C31.56 2.50419 31.7755 2.4605 31.9629 2.5376Z" fill="#B6B6B6"/>
<path fill-rule="evenodd" clip-rule="evenodd" d="M10.5536 2.6483C10.6476 2.5534 10.7755 2.5 10.909 2.5H31.7734C31.9751 2.5 32.1571 2.62128 32.2348 2.80751C32.3125 2.99374 32.2706 3.2084 32.1287 3.35179L22.2153 13.3642C22.1214 13.4591 21.9935 13.5125 21.86 13.5125H1.00099C0.799236 13.5125 0.61725 13.3912 0.539554 13.205C0.461858 13.0188 0.503677 12.8042 0.645589 12.6608L10.5536 2.6483ZM11.1177 3.5L2.19921 12.5125H21.6515L30.5747 3.5H11.1177Z" fill="#B6B6B6"/>
<path fill-rule="evenodd" clip-rule="evenodd" d="M31.594 19.5C27.7846 19.5 24.688 22.6204 24.688 26.4801C24.688 30.3398 27.7846 33.4602 31.594 33.4602C35.4034 33.4602 38.5 30.3398 38.5 26.4801C38.5 22.6204 35.4034 19.5 31.594 19.5ZM23.688 26.4801C23.688 22.0775 27.223 18.5 31.594 18.5C35.965 18.5 39.5 22.0775 39.5 26.4801C39.5 30.8826 35.965 34.4602 31.594 34.4602C27.2229 34.4602 23.688 30.8826 23.688 26.4801Z" fill="#eb4949"/>
<path fill-rule="evenodd" clip-rule="evenodd" d="M26.0107 26.4805C26.0107 26.2043 26.2346 25.9805 26.5107 25.9805H36.6716C36.9478 25.9805 37.1716 26.2043 37.1716 26.4805C37.1716 26.7566 36.9478 26.9805 36.6716 26.9805H26.5107C26.2346 26.9805 26.0107 26.7566 26.0107 26.4805Z" fill="#eb4949"/>
<path fill-rule="evenodd" clip-rule="evenodd" d="M31.5938 20.8438C31.8699 20.8438 32.0938 21.0676 32.0938 21.3438V31.6116C32.0938 31.8877 31.8699 32.1116 31.5938 32.1116C31.3176 32.1116 31.0938 31.8877 31.0938 31.6116V21.3438C31.0938 21.0676 31.3176 20.8438 31.5938 20.8438Z" fill="#eb4949"/>
</svg>
