<svg width="40" height="41" viewBox="0 0 40 41" fill="none" xmlns="http://www.w3.org/2000/svg">
<path fill-rule="evenodd" clip-rule="evenodd" d="M12.4345 24.336C12.5433 24.2271 12.4935 24.0412 12.3448 24.0014L3.33063 21.586C3.18192 21.5462 3.04583 21.6823 3.08568 21.831L5.50103 30.8452C5.54087 30.9939 5.72677 31.0437 5.83563 30.9348L12.4345 24.336ZM6.10832 29.2479L10.7476 24.6087L4.41024 22.9106L6.10832 29.2479Z" fill="#00AE42"/>
<path fill-rule="evenodd" clip-rule="evenodd" d="M7.89786 22.7056C8.40732 21.7816 9.08704 20.9596 9.90325 20.2842C10.7195 19.6087 11.6541 19.0948 12.6571 18.7672C12.7425 18.7393 12.8284 18.7128 12.9148 18.6876C12.9289 18.6835 12.9427 18.6788 12.9562 18.6735C13.1713 18.5893 13.302 18.3618 13.2485 18.1334C13.1916 17.8906 12.9483 17.7388 12.7086 17.8073C12.6931 17.8118 12.6776 17.8163 12.6621 17.8208C12.5638 17.8494 12.4661 17.8796 12.369 17.9115C11.2614 18.2743 10.2292 18.8424 9.32761 19.5885C8.42598 20.3346 7.67479 21.2422 7.11113 22.2624C7.0617 22.3519 7.01371 22.4422 6.96719 22.5334C6.95985 22.5478 6.95255 22.5622 6.94529 22.5766C6.83312 22.7992 6.93672 23.0666 7.16456 23.1679C7.37896 23.2632 7.62688 23.1774 7.74983 22.9819C7.75754 22.9696 7.76476 22.9569 7.77145 22.9438C7.81234 22.8637 7.85448 22.7843 7.89786 22.7056Z" fill="#00AE42"/>
<path fill-rule="evenodd" clip-rule="evenodd" d="M35 33.5H8C7.44772 33.5 7 33.9477 7 34.5C7 35.0523 7.44772 35.5 8 35.5H35C35.5523 35.5 36 35.0523 36 34.5C36 33.9477 35.5523 33.5 35 33.5ZM8 32.5C6.89543 32.5 6 33.3954 6 34.5C6 35.6046 6.89543 36.5 8 36.5H35C36.1046 36.5 37 35.6046 37 34.5C37 33.3954 36.1046 32.5 35 32.5H8Z" fill="#262E30"/>
<path fill-rule="evenodd" clip-rule="evenodd" d="M36.7716 9.72841L19.2285 5.6985L15.1986 23.2416L32.7417 27.2715L36.7716 9.72841ZM18.4778 4.5L14.0001 23.9923L33.4924 28.47L37.9701 8.97768L18.4778 4.5Z" fill="#00AE42"/>
</svg>
