<svg xmlns="http://www.w3.org/2000/svg" viewBox="0 0 40 40"><path d="M22.5,29a.47.47,0,0,1-.35-.15l-12-12a.49.49,0,0,1,.7-.7L22.5,27.79,33.79,16.5,22.15,4.85a.49.49,0,0,1,.7-.7l12,12a.48.48,0,0,1,0,.7l-12,12A.47.47,0,0,1,22.5,29Z" style="fill:#2b3436"/><path d="M10.15,16.15l12-12a.49.49,0,1,1,.7.7l-12,12a.48.48,0,0,1-.7,0A.48.48,0,0,1,10.15,16.15ZM23,10.5a.5.5,0,0,0-1,0v4.79l-3.15-3.14a.49.49,0,0,0-.7.7L21.29,16H16.5a.5.5,0,0,0,0,1h4.79l-3.14,3.15a.48.48,0,0,0,0,.7.48.48,0,0,0,.7,0L22,17.71V22.5a.5.5,0,0,0,1,0V17.71l3.15,3.14a.48.48,0,0,0,.7,0,.48.48,0,0,0,0-.7L23.71,17H28.5a.5.5,0,0,0,0-1H23.71l3.14-3.15a.49.49,0,1,0-.7-.7L23,15.29ZM8.15,30.85a.48.48,0,0,0,.7,0l4-4a.49.49,0,0,0-.7-.7L9,29.29V16.5a.44.44,0,0,0-.08-.25A.44.44,0,0,0,9,16a6,6,0,0,1,6-6,.5.5,0,0,0,0-1,7,7,0,0,0-7,7,.44.44,0,0,0,.08.25A.44.44,0,0,0,8,16.5V29.29L4.85,26.15a.49.49,0,0,0-.7.7ZM35,34H4v1H35Z" style="fill:#009688"/></svg>