<svg width="30" height="22" viewBox="0 0 30 22" fill="none" xmlns="http://www.w3.org/2000/svg">
<path fill-rule="evenodd" clip-rule="evenodd" d="M5.02087 4.20131C4.00498 4.20131 3.20131 5.00625 3.20131 5.96954V17.0305C3.20131 17.9938 4.00498 18.7987 5.02087 18.7987H24.9287C25.9446 18.7987 26.7483 17.9938 26.7483 17.0305V5.96954C26.7483 5.00625 25.9446 4.20131 24.9287 4.20131H5.02087ZM2 5.96954C2 4.31864 3.36592 3 5.02087 3H24.9287C26.5837 3 27.9496 4.31864 27.9496 5.96954V17.0305C27.9496 18.6814 26.5837 20 24.9287 20H5.02087C3.36592 20 2 18.6814 2 17.0305V5.96954Z" fill="#6B6B6B"/>
<path d="M9.59458 10.4473H5.28906V12.5525H9.59458V10.4473Z" fill="#6B6B6B"/>
<path d="M13.897 10.4473H11.7461V12.5525H13.897V10.4473Z" fill="#6B6B6B"/>
<path d="M18.2026 10.4473H16.0518V12.5525H18.2026V10.4473Z" fill="#6B6B6B"/>
<path d="M16.0532 6.76367H13.9023V8.86894H16.0532V6.76367Z" fill="#6B6B6B"/>
<path d="M11.7466 6.76367H9.5957V8.86894H11.7466V6.76367Z" fill="#6B6B6B"/>
<path d="M7.4419 6.76367H5.29102V8.86894H7.4419V6.76367Z" fill="#6B6B6B"/>
<path d="M20.355 6.76367H18.2041V8.86894H20.355V6.76367Z" fill="#6B6B6B"/>
<path d="M22.5093 6.76367V10.4506H20.3584V12.5559H24.6602V11.5051V10.4506V6.76367H22.5093Z" fill="#6B6B6B"/>
<path d="M7.43995 14.1348H5.28906V16.24H7.43995V14.1348Z" fill="#6B6B6B"/>
<path d="M20.3586 14.1348H9.59668V16.24H20.3586V14.1348Z" fill="#6B6B6B"/>
<path d="M24.6587 14.1348H22.5078V16.24H24.6587V14.1348Z" fill="#6B6B6B"/>
</svg>
