<svg width="14" height="14" viewBox="0 0 14 14" fill="none" xmlns="http://www.w3.org/2000/svg">
<path fill-rule="evenodd" clip-rule="evenodd" d="M10.6457 7C10.5448 7 10.4602 6.9247 10.4433 6.82524C10.1226 4.93741 8.47917 3.5 6.5 3.5C4.29086 3.5 2.5 5.29086 2.5 7.5C2.5 9.47929 3.93759 11.1228 5.82559 11.4434C5.92506 11.4603 6.00037 11.5448 6.00037 11.6457V12.7588C6.00037 12.8763 5.89925 12.9688 5.7827 12.9536C3.08405 12.6022 1 10.2945 1 7.5C1 4.46243 3.46243 2 6.5 2C9.29433 2 11.6019 4.08386 11.9536 6.78232C11.9688 6.89888 11.8763 7 11.7587 7H10.6457Z" fill="#FF6F00"/>
<path d="M11.1644 9.76271C11.0849 9.87751 10.9151 9.87751 10.8356 9.76271L8.6194 6.5639C8.5275 6.43126 8.62243 6.25 8.7838 6.25L13.2162 6.25C13.3776 6.25 13.4725 6.43126 13.3806 6.5639L11.1644 9.76271Z" fill="#FF6F00"/>
</svg>
