<svg width="40" height="40" viewBox="0 0 40 40" fill="none" xmlns="http://www.w3.org/2000/svg">
<path fill-rule="evenodd" clip-rule="evenodd" d="M8.84595 13.8015C9.24443 13.9643 9.30707 14.3898 9.30707 14.6236V17.8529C9.30707 17.9739 9.40721 18.074 9.52806 18.074H12.156C12.8293 18.074 13.377 18.6219 13.377 19.2951V20.7268C13.377 21.4 12.8293 21.9479 12.156 21.9479H9.52806C9.40721 21.9479 9.30707 22.048 9.30707 22.169V25.4035C9.30707 25.6374 9.24443 26.0628 8.84595 26.2256C8.45003 26.3874 8.10697 26.1316 7.94149 25.966L2.85937 20.8779C2.37779 20.4031 2.38315 19.6257 2.85783 19.1508L7.94131 14.0613C8.10679 13.8958 8.45003 13.6398 8.84595 13.8015ZM8.30707 15.1101L3.56536 19.8574C3.47661 19.9462 3.48123 20.0871 3.56186 20.1662L3.56537 20.1697L8.30707 24.917V22.169C8.30707 21.4958 8.85478 20.9479 9.52806 20.9479H12.156C12.2768 20.9479 12.377 20.8479 12.377 20.7268V19.2951C12.377 19.174 12.2768 19.074 12.156 19.074H9.52806C8.85478 19.074 8.30707 18.5261 8.30707 17.8529V15.1101Z" fill="#21A452"/>
<path fill-rule="evenodd" clip-rule="evenodd" d="M20.8688 2.85801C20.8689 2.85807 20.8688 2.85795 20.8688 2.85801L25.9573 7.94208C26.1228 8.10762 26.3787 8.45083 26.217 8.84668C26.0543 9.24518 25.6288 9.30787 25.3949 9.30787H22.1662C22.0453 9.30787 21.9452 9.40791 21.9452 9.52897V10.029H21.9347V12.1573C21.9347 12.8305 21.387 13.3784 20.7138 13.3784H19.2875C18.6142 13.3784 18.0665 12.8305 18.0665 12.1573V9.52897C18.0665 9.40791 17.9663 9.30787 17.8455 9.30787H14.6168C14.3828 9.30787 13.9574 9.24518 13.7947 8.84668C13.633 8.45083 13.8887 8.1078 14.0542 7.94226L19.1415 2.85934C19.6164 2.37767 20.3939 2.38322 20.8688 2.85801ZM21.0523 9.02897C21.2437 8.60429 21.671 8.30787 22.1662 8.30787H24.9086L20.1618 3.56524C20.0731 3.47653 19.9324 3.48115 19.8533 3.56174L19.8499 3.56526L15.1031 8.30787H17.8455C18.5188 8.30787 19.0665 8.85578 19.0665 9.52897V12.1573C19.0665 12.2784 19.1666 12.3784 19.2875 12.3784H20.7138C20.8346 12.3784 20.9347 12.2784 20.9347 12.1573V9.02897H21.0523ZM25.2505 8.6495C25.2779 8.67697 25.2866 8.6915 25.2867 8.69144C25.2868 8.69141 25.2849 8.68818 25.2823 8.68158C25.2786 8.6724 25.2728 8.65471 25.2694 8.63056L25.6039 8.29579L25.3949 8.50495" fill="#21A452"/>
<path fill-rule="evenodd" clip-rule="evenodd" d="M18.0828 27.8637C18.0828 27.1905 18.6305 26.6426 19.3038 26.6426H20.7301C21.4034 26.6426 21.9511 27.1905 21.9511 27.8637V30.492C21.9511 30.6131 22.0512 30.7131 22.1721 30.7131H25.4008C25.6347 30.7131 26.0602 30.7758 26.2229 31.1743C26.3846 31.5702 26.1289 31.9132 25.9634 32.0787L20.876 37.1616C20.4012 37.6434 19.6236 37.638 19.1487 37.163L14.0602 32.0789C13.8947 31.9134 13.6389 31.5702 13.8005 31.1743C13.9633 30.7758 14.3887 30.7131 14.6226 30.7131H17.8514C17.9722 30.7131 18.0724 30.6131 18.0724 30.492V29.992H18.0828V27.8637ZM18.9652 30.992C18.7739 31.4167 18.3466 31.7131 17.8514 31.7131H15.1089L19.8557 36.4557C19.9444 36.5445 20.0851 36.5398 20.1642 36.4592L20.1677 36.4557L24.9145 31.7131H22.1721C21.4988 31.7131 20.9511 31.1652 20.9511 30.492V27.8637C20.9511 27.7426 20.8509 27.6426 20.7301 27.6426H19.3038C19.1829 27.6426 19.0828 27.7426 19.0828 27.8637V30.992H18.9652Z" fill="#21A452"/>
<path fill-rule="evenodd" clip-rule="evenodd" d="M31.1756 13.8015C31.5715 13.6398 31.9146 13.8956 32.08 14.0611L37.1622 19.1492C37.6438 19.6242 37.6384 20.4017 37.1635 20.8766L32.08 25.9556C32.08 25.9557 32.0801 25.9556 32.08 25.9556C31.9145 26.1211 31.5713 26.3769 31.1756 26.2152C30.7771 26.0524 30.7144 25.6269 30.7144 25.3931V22.1638C30.7144 22.0428 30.6143 21.9427 30.4935 21.9427H27.8655C27.1922 21.9427 26.6445 21.3948 26.6445 20.7216V19.2951C26.6445 18.6219 27.1922 18.074 27.8655 18.074H30.4935C30.6143 18.074 30.7144 17.974 30.7144 17.8529V14.6237C30.7144 14.3898 30.7771 13.9643 31.1756 13.8015ZM31.7144 15.1101L36.4562 19.8575L36.4597 19.8609C36.5403 19.9401 36.5451 20.0808 36.4563 20.1695L31.7144 24.9073V22.1638C31.7144 21.4906 31.1667 20.9427 30.4935 20.9427H27.8655C27.7447 20.9427 27.6445 20.8427 27.6445 20.7216V19.2951C27.6445 19.1741 27.7447 19.074 27.8655 19.074H30.4935C31.1667 19.074 31.7144 18.5261 31.7144 17.8529V15.1101Z" fill="#21A452"/>
<path fill-rule="evenodd" clip-rule="evenodd" d="M17.6123 18.5117C17.6123 18.0204 18.0095 17.6094 18.5146 17.6094H21.5083C22.0133 17.6094 22.4105 18.0204 22.4105 18.5117V21.5058C22.4105 21.9971 22.0133 22.4082 21.5083 22.4082H18.5146C18.0232 22.4082 17.6123 22.0108 17.6123 21.5058V18.5117ZM18.6123 18.6094V21.4082H21.4105V18.6094H18.6123Z" fill="#B6B6B6"/>
</svg>
