<svg xmlns="http://www.w3.org/2000/svg" width="40" height="40" viewBox="0 0 40 40"><path d="M34.923,10.25a.392.392,0,0,0-.033-.05.5.5,0,0,0-.2-.162l0,0-15-6a.5.5,0,0,0-.372,0l-15,6a.451.451,0,0,0-.054.035c-.013.007-.028.007-.04.015s-.016.02-.026.028a.507.507,0,0,0-.1.117.591.591,0,0,0-.035.052A.5.5,0,0,0,4,10.5V28.5a.5.5,0,0,0,.314.464l15,6A.5.5,0,0,0,19.5,35a.508.508,0,0,0,.186-.036L25.4,32.678a.5.5,0,1,0-.371-.928L20,33.762V16.839l14-5.6V21.5a.5.5,0,0,0,1,0v-11A.481.481,0,0,0,34.923,10.25ZM19,33.762l-14-5.6V11.238l14,5.6Zm.5-17.8L5.846,10.5,19.5,5.039,33.153,10.5Z" style="fill:#b6b6b6"/><path d="M34.962,27.309a.518.518,0,0,0-.109-.163L33,25.293V24.5a.5.5,0,0,0-.5-.5h-1a.5.5,0,0,0-.5.5v.793l-1.853,1.853a.518.518,0,0,0-.109.163A.5.5,0,0,0,29,27.5v6A1.5,1.5,0,0,0,30.5,35h3A1.5,1.5,0,0,0,35,33.5v-6A.5.5,0,0,0,34.962,27.309ZM31.707,26h.586l1,1H30.707ZM33.5,34h-3a.5.5,0,0,1-.5-.5V28h4v5.5A.5.5,0,0,1,33.5,34ZM29,25H28V24h1Zm-3-2h1v1H26Zm0,2h1v1H26Zm-2-1h1v1H24Zm0,2h1v1H24Zm0-4h1v1H24Zm-2,1h1v1H22Zm0,2h1v1H22Zm0,2h1v1H22Zm0-6h1v1H22ZM11,14h1v1H11Zm-1,1h1v1H10Zm1-2v1H10V13Zm0,4V16h1v1Zm-1,2h1v1H10Zm1,2V20h1v1Zm-1,2h1v1H10Zm1,2V24h1v1Zm-1-4h1v1H10Zm1,2V22h1v1Zm-1-6h1v1H10Zm1,2V18h1v1Zm-1,6h1v1H10Zm1,2V26h1v1Zm-1,0h1v1H10Zm1,2V28h1v1Zm0,2V30h1v1Zm-1-2h1v1H10Z" style="fill:#009688"/></svg>