<svg width="40" height="41" viewBox="0 0 40 41" fill="none" xmlns="http://www.w3.org/2000/svg">
<g clip-path="url(#clip0_7034_29433)">
<path fill-rule="evenodd" clip-rule="evenodd" d="M31.0417 25.2279L19.728 13.9142L8.41432 25.2279L19.728 36.5416L31.0417 25.2279ZM19.728 12.5L7.00011 25.2279L19.728 37.9558L32.4559 25.2279L19.728 12.5Z" fill="#262E30"/>
<path fill-rule="evenodd" clip-rule="evenodd" d="M5.16318 25.3288C3.80438 22.3365 3.53064 18.9548 4.40407 15.7706C5.34279 12.3484 7.53755 9.4061 10.5503 7.53094C13.563 5.65578 17.172 4.98572 20.6571 5.65452C23.8997 6.2768 26.813 8.01557 28.8978 10.556C28.9586 10.63 29.0187 10.7048 29.078 10.7802C29.0837 10.7873 29.0894 10.7942 29.0954 10.801C29.2525 10.9788 29.5211 11.0138 29.7143 10.8715C29.9148 10.7238 29.9581 10.441 29.8045 10.2451C29.7986 10.2375 29.7926 10.2299 29.7867 10.2224C29.7225 10.1409 29.6576 10.0601 29.5919 9.98012C27.3739 7.27925 24.2755 5.43063 20.827 4.76885C17.1191 4.05727 13.2791 4.77019 10.0737 6.7653C6.86829 8.76041 4.53314 11.891 3.53437 15.5321C2.60549 18.9184 2.89605 22.5147 4.34005 25.6973C4.38282 25.7915 4.42661 25.8855 4.47141 25.979C4.47556 25.9877 4.47972 25.9963 4.48389 26.005C4.59189 26.2294 4.86475 26.3154 5.0858 26.2007C5.29879 26.0902 5.38592 25.8337 5.29578 25.6142C5.29237 25.6059 5.2887 25.5977 5.28477 25.5895C5.24332 25.5029 5.20279 25.416 5.16318 25.3288Z" fill="#009688"/>
<path fill-rule="evenodd" clip-rule="evenodd" d="M33.801 5.97543C33.7612 5.82672 33.5753 5.77691 33.4664 5.88578L25.3831 13.9691C25.2742 14.078 25.324 14.2639 25.4727 14.3037L36.5148 17.2624C36.6635 17.3022 36.7996 17.1662 36.7597 17.0174L33.801 5.97543ZM35.4352 15.9378L33.1937 7.57268L27.07 13.6964L35.4352 15.9378Z" fill="#009688"/>
</g>
<defs>
<clipPath id="clip0_7034_29433">
<rect width="40" height="40" fill="white" transform="translate(0 0.5)"/>
</clipPath>
</defs>
</svg>
