<svg width="30" height="22" viewBox="0 0 30 22" fill="none" xmlns="http://www.w3.org/2000/svg">
<path fill-rule="evenodd" clip-rule="evenodd" d="M6.51465 5C5.669 5 5 5.67005 5 6.47193V15.6793C5 16.4812 5.669 17.1513 6.51465 17.1513H23.0865C23.9321 17.1513 24.6011 16.4812 24.6011 15.6793V6.47193C24.6011 5.67005 23.9321 5 23.0865 5H6.51465ZM4 6.47193C4 5.09767 5.13703 4 6.51465 4H23.0865C24.4641 4 25.6011 5.09767 25.6011 6.47193V15.6793C25.6011 17.0536 24.4641 18.1513 23.0865 18.1513H6.51465C5.13703 18.1513 4 17.0536 4 15.6793V6.47193Z" fill="#ACACAC"/>
<path d="M10.3223 10.1992H6.73828V11.9517H10.3223V10.1992Z" fill="#ACACAC"/>
<path d="M13.9037 10.1992H12.1133V11.9517H13.9037V10.1992Z" fill="#ACACAC"/>
<path d="M17.4877 10.1992H15.6973V11.9517H17.4877V10.1992Z" fill="#ACACAC"/>
<path d="M15.6977 7.13281H13.9072V8.8853H15.6977V7.13281Z" fill="#ACACAC"/>
<path d="M12.1137 7.13281H10.3232V8.8853H12.1137V7.13281Z" fill="#ACACAC"/>
<path d="M8.52971 7.13281H6.73926V8.8853H8.52971V7.13281Z" fill="#ACACAC"/>
<path d="M19.2787 7.13281H17.4883V8.8853H19.2787V7.13281Z" fill="#ACACAC"/>
<path d="M21.0717 7.13281V10.2019H19.2812V11.9544H22.8622V11.0797V10.2019V7.13281H21.0717Z" fill="#ACACAC"/>
<path d="M8.52874 13.2695H6.73828V15.022H8.52874V13.2695Z" fill="#ACACAC"/>
<path d="M19.2817 13.2695H10.3232V15.022H19.2817V13.2695Z" fill="#ACACAC"/>
<path d="M22.8617 13.2695H21.0713V15.022H22.8617V13.2695Z" fill="#ACACAC"/>
</svg>
