<svg width="40" height="40" viewBox="0 0 40 40" fill="none" xmlns="http://www.w3.org/2000/svg">
<path d="M9.52806 18.5741C9.13099 18.5741 8.80707 18.2502 8.80707 17.853V14.6238C8.80707 14.2266 8.57719 14.1326 8.29507 14.4148L3.21159 19.5042C2.92947 19.7864 2.92947 20.2462 3.21159 20.5232L8.29507 25.6127C8.57719 25.8948 8.80707 25.8008 8.80707 25.4037V22.1692C8.80707 21.772 9.13099 21.4481 9.52806 21.4481H12.156C12.5531 21.4481 12.877 21.1241 12.877 20.727V19.2952C12.877 18.8981 12.5531 18.5741 12.156 18.5741H9.52806V18.5741Z" stroke="#323A3D" stroke-miterlimit="10"/>
<path d="M9.52806 18.5741C9.13099 18.5741 8.80707 18.2502 8.80707 17.853V14.6238C8.80707 14.2266 8.57719 14.1326 8.29507 14.4148L3.21159 19.5042C2.92947 19.7864 2.92947 20.2462 3.21159 20.5232L8.29507 25.6127C8.57719 25.8948 8.80707 25.8008 8.80707 25.4037V22.1692C8.80707 21.772 9.13099 21.4481 9.52806 21.4481H12.156C12.5531 21.4481 12.877 21.1241 12.877 20.727V19.2952C12.877 18.8981 12.5531 18.5741 12.156 18.5741H9.52806V18.5741Z" stroke="black" stroke-opacity="0.2" stroke-miterlimit="10"/>
<path d="M21.4453 9.52906C21.4453 9.13193 21.7692 8.80796 22.1663 8.80796H25.395C25.7921 8.80796 25.8861 8.57805 25.604 8.29588L20.5153 3.21163C20.2332 2.92946 19.7735 2.92946 19.4966 3.21163L14.4079 8.29588C14.1258 8.57805 14.2198 8.80796 14.6169 8.80796H17.8456C18.2427 8.80796 18.5666 9.13193 18.5666 9.52906V12.1574C18.5666 12.5545 18.8905 12.8785 19.2876 12.8785H20.7139C21.1109 12.8785 21.4349 12.5545 21.4349 12.1574V9.52906H21.4453Z" stroke="#323A3D" stroke-miterlimit="10"/>
<path d="M21.4453 9.52906C21.4453 9.13193 21.7692 8.80796 22.1663 8.80796H25.395C25.7921 8.80796 25.8861 8.57805 25.604 8.29588L20.5153 3.21163C20.2332 2.92946 19.7735 2.92946 19.4966 3.21163L14.4079 8.29588C14.1258 8.57805 14.2198 8.80796 14.6169 8.80796H17.8456C18.2427 8.80796 18.5666 9.13193 18.5666 9.52906V12.1574C18.5666 12.5545 18.8905 12.8785 19.2876 12.8785H20.7139C21.1109 12.8785 21.4349 12.5545 21.4349 12.1574V9.52906H21.4453Z" stroke="black" stroke-opacity="0.2" stroke-miterlimit="10"/>
<path d="M18.5722 30.493C18.5722 30.8901 18.2483 31.2141 17.8513 31.2141H14.6225C14.2254 31.2141 14.1314 31.444 14.4135 31.7262L19.5022 36.8104C19.7843 37.0926 20.2441 37.0926 20.521 36.8104L25.6097 31.7262C25.8918 31.444 25.7978 31.2141 25.4007 31.2141H22.172C21.7749 31.2141 21.451 30.8901 21.451 30.493V27.8647C21.451 27.4675 21.1271 27.1436 20.73 27.1436H19.3037C18.9066 27.1436 18.5827 27.4675 18.5827 27.8647V30.493H18.5722Z" stroke="#323A3D" stroke-miterlimit="10"/>
<path d="M18.5722 30.493C18.5722 30.8901 18.2483 31.2141 17.8513 31.2141H14.6225C14.2254 31.2141 14.1314 31.444 14.4135 31.7262L19.5022 36.8104C19.7843 37.0926 20.2441 37.0926 20.521 36.8104L25.6097 31.7262C25.8918 31.444 25.7978 31.2141 25.4007 31.2141H22.172C21.7749 31.2141 21.451 30.8901 21.451 30.493V27.8647C21.451 27.4675 21.1271 27.1436 20.73 27.1436H19.3037C18.9066 27.1436 18.5827 27.4675 18.5827 27.8647V30.493H18.5722Z" stroke="black" stroke-opacity="0.2" stroke-miterlimit="10"/>
<path d="M36.8104 20.5232C37.0925 20.241 37.0925 19.7812 36.8104 19.5042L31.7269 14.4148C31.4448 14.1326 31.2149 14.2266 31.2149 14.6238V17.853C31.2149 18.2502 30.891 18.5741 30.4939 18.5741H27.866C27.4689 18.5741 27.145 18.8981 27.145 19.2952V20.7217C27.145 21.1189 27.4689 21.4428 27.866 21.4428H30.4939C30.891 21.4428 31.2149 21.7668 31.2149 22.1639V25.3932C31.2149 25.7903 31.4448 25.8844 31.7269 25.6022L36.8104 20.5232Z" stroke="#323A3D" stroke-miterlimit="10"/>
<path d="M36.8104 20.5232C37.0925 20.241 37.0925 19.7812 36.8104 19.5042L31.7269 14.4148C31.4448 14.1326 31.2149 14.2266 31.2149 14.6238V17.853C31.2149 18.2502 30.891 18.5741 30.4939 18.5741H27.866C27.4689 18.5741 27.145 18.8981 27.145 19.2952V20.7217C27.145 21.1189 27.4689 21.4428 27.866 21.4428H30.4939C30.891 21.4428 31.2149 21.7668 31.2149 22.1639V25.3932C31.2149 25.7903 31.4448 25.8844 31.7269 25.6022L36.8104 20.5232Z" stroke="black" stroke-opacity="0.2" stroke-miterlimit="10"/>
<path d="M21.5085 18.1094H18.5148C18.2902 18.1094 18.1125 18.2923 18.1125 18.5117V21.5058C18.1125 21.7305 18.2954 21.9082 18.5148 21.9082H21.5085C21.7332 21.9082 21.9108 21.7253 21.9108 21.5058V18.5117C21.9108 18.2923 21.7332 18.1094 21.5085 18.1094Z" fill="#B9C7CE"/>
<path d="M21.5085 18.1094H18.5148C18.2902 18.1094 18.1125 18.2923 18.1125 18.5117V21.5058C18.1125 21.7305 18.2954 21.9082 18.5148 21.9082H21.5085C21.7332 21.9082 21.9108 21.7253 21.9108 21.5058V18.5117C21.9108 18.2923 21.7332 18.1094 21.5085 18.1094Z" stroke="#323A3D" stroke-miterlimit="10"/>
<path d="M21.5085 18.1094H18.5148C18.2902 18.1094 18.1125 18.2923 18.1125 18.5117V21.5058C18.1125 21.7305 18.2954 21.9082 18.5148 21.9082H21.5085C21.7332 21.9082 21.9108 21.7253 21.9108 21.5058V18.5117C21.9108 18.2923 21.7332 18.1094 21.5085 18.1094Z" stroke="black" stroke-opacity="0.2" stroke-miterlimit="10"/>
<path d="M14.9253 20.011C14.9253 17.1998 17.2032 14.9268 20.0088 14.9268C22.8196 14.9268 25.0923 17.205 25.0923 20.011C25.0923 22.5087 23.2898 24.5884 20.9126 25.0169" stroke="#323A3D" stroke-miterlimit="10"/>
<path d="M14.9253 20.011C14.9253 17.1998 17.2032 14.9268 20.0088 14.9268C22.8196 14.9268 25.0923 17.205 25.0923 20.011C25.0923 22.5087 23.2898 24.5884 20.9126 25.0169" stroke="black" stroke-opacity="0.2" stroke-miterlimit="10"/>
<path d="M21.1629 26.0417L20.954 23.9463L20.0083 25.0959L21.1629 26.0417Z" fill="#323A3D"/>
<path d="M21.1629 26.0417L20.954 23.9463L20.0083 25.0959L21.1629 26.0417Z" fill="black" fill-opacity="0.2"/>
</svg>
