<svg width="35" height="35" viewBox="0 0 35 35" fill="none" xmlns="http://www.w3.org/2000/svg">
<path fill-rule="evenodd" clip-rule="evenodd" d="M18.2319 2.92265C18.4019 2.9249 18.5591 3.01341 18.6493 3.15761L33.8522 27.4823C33.9874 27.6986 33.9381 27.982 33.7378 28.1399C33.5947 28.2528 33.4443 28.3758 33.2841 28.5066C32.3626 29.2596 31.1207 30.2744 29.1189 31.1328C26.7685 32.1408 23.3924 32.9289 18.2253 32.9289C13.0577 32.9289 9.41503 32.1407 6.82329 31.1397C4.22658 30.1369 2.70661 28.9286 1.78223 28.1246C1.59289 27.9599 1.55495 27.6804 1.69354 27.4712L17.8084 3.14646C17.9023 3.00471 18.0619 2.9204 18.2319 2.92265ZM2.77192 27.6541C3.65977 28.3925 5.02043 29.3715 7.18356 30.2069C9.64262 31.1566 13.1603 31.9289 18.2253 31.9289C23.2906 31.9289 26.5266 31.1565 28.7248 30.2138C30.5887 29.4145 31.7223 28.4897 32.6409 27.7402C32.684 27.7051 32.7267 27.6703 32.7689 27.6359L18.213 4.34642L2.77192 27.6541Z" fill="#262E30"/>
<path fill-rule="evenodd" clip-rule="evenodd" d="M2.66192 26.9101C2.82234 27.1348 3.1346 27.187 3.35936 27.0266C3.47312 26.9454 3.59781 26.864 3.73323 26.7826C3.96995 26.6404 4.04659 26.3333 3.9044 26.0965C3.76221 25.8598 3.45504 25.7832 3.21832 25.9254C3.06295 26.0187 2.91596 26.1144 2.77841 26.2126C2.55365 26.373 2.50149 26.6853 2.66192 26.9101ZM32.6102 26.9205C32.7764 26.7 32.7323 26.3865 32.5118 26.2203C32.3672 26.1113 32.218 26.0061 32.0645 25.9045C31.8343 25.7521 31.524 25.8152 31.3716 26.0455C31.2192 26.2757 31.2823 26.586 31.5126 26.7384C31.6498 26.8292 31.7823 26.9227 31.91 27.0189C32.1305 27.1851 32.444 27.141 32.6102 26.9205ZM4.7719 25.7002C4.8708 25.958 5.15998 26.0869 5.4178 25.988C5.70087 25.8794 5.99997 25.7737 6.31339 25.6714C6.5759 25.5857 6.71924 25.3034 6.63355 25.0409C6.54786 24.7784 6.26558 24.6351 6.00307 24.7208C5.67512 24.8278 5.35996 24.9391 5.05965 25.0543C4.80183 25.1532 4.673 25.4424 4.7719 25.7002ZM30.4191 25.5524C30.5258 25.2977 30.4058 25.0047 30.1511 24.898C29.8279 24.7625 29.4941 24.6366 29.1511 24.5197C28.8898 24.4305 28.6056 24.5701 28.5165 24.8315C28.4273 25.0928 28.5669 25.377 28.8283 25.4661C29.1515 25.5764 29.464 25.6943 29.7647 25.8203C30.0194 25.927 30.3123 25.807 30.4191 25.5524ZM7.55089 24.783C7.61695 25.0512 7.88787 25.215 8.15599 25.1489C8.46105 25.0737 8.77362 25.0017 9.09254 24.933C9.36249 24.8749 9.53419 24.6089 9.47605 24.3389C9.4179 24.069 9.15193 23.8973 8.88198 23.9554C8.55386 24.0261 8.23172 24.1003 7.91676 24.1779C7.64863 24.244 7.48483 24.5149 7.55089 24.783ZM27.4834 24.5441C27.5452 24.275 27.3771 24.0067 27.108 23.9449C26.769 23.867 26.4243 23.7954 26.0749 23.7296C25.8035 23.6785 25.5421 23.8571 25.491 24.1285C25.4399 24.3999 25.6185 24.6613 25.8899 24.7124C26.2271 24.7759 26.5589 24.8448 26.8841 24.9195C27.1533 24.9813 27.4216 24.8133 27.4834 24.5441ZM10.4111 24.1637C10.4553 24.4363 10.7121 24.6215 10.9847 24.5773C11.2993 24.5263 11.6173 24.4786 11.9378 24.4343C12.2114 24.3966 12.4026 24.1443 12.3648 23.8707C12.3271 23.5972 12.0748 23.406 11.8012 23.4437C11.4729 23.489 11.1471 23.5379 10.8246 23.5902C10.5521 23.6344 10.3669 23.8912 10.4111 24.1637ZM24.4321 23.9669C24.4659 23.6928 24.2711 23.4433 23.997 23.4095C23.6519 23.367 23.3042 23.3289 22.9548 23.295C22.6799 23.2684 22.4355 23.4695 22.4088 23.7444C22.3821 24.0192 22.5833 24.2637 22.8582 24.2904C23.1995 24.3235 23.5387 24.3606 23.8747 24.402C24.1488 24.4358 24.3983 24.241 24.4321 23.9669ZM13.3104 23.7626C13.3355 24.0376 13.5787 24.2402 13.8537 24.2152C14.1738 24.1861 14.4944 24.1607 14.8147 24.1392C15.0902 24.1206 15.2986 23.8823 15.2801 23.6067C15.2615 23.3312 15.0232 23.1229 14.7477 23.1414C14.4194 23.1635 14.0909 23.1895 13.7631 23.2193C13.4881 23.2443 13.2854 23.4876 13.3104 23.7626ZM21.3405 23.6657C21.3552 23.39 21.1437 23.1544 20.8679 23.1396C20.5199 23.121 20.1718 23.1057 19.8243 23.0934C19.5484 23.0836 19.3167 23.2994 19.307 23.5754C19.2972 23.8514 19.513 24.083 19.789 24.0928C20.1307 24.1049 20.4728 24.1199 20.8144 24.1382C21.0902 24.153 21.3257 23.9414 21.3405 23.6657ZM16.2307 23.566C16.2353 23.8421 16.4628 24.0622 16.7389 24.0577C16.8998 24.055 17.0601 24.0534 17.2197 24.053C17.3906 24.0525 17.562 24.0526 17.734 24.0533C18.0102 24.0545 18.235 23.8315 18.2361 23.5554C18.2372 23.2792 18.0143 23.0545 17.7382 23.0533C17.5638 23.0526 17.39 23.0525 17.217 23.053C17.0527 23.0535 16.8878 23.0551 16.7224 23.0578C16.4462 23.0624 16.2261 23.2899 16.2307 23.566Z" fill="#262E30"/>
</svg>
