<svg xmlns="http://www.w3.org/2000/svg" viewBox="0 0 40 40"><path d="M21.5,35h-1A1.5,1.5,0,0,1,19,33.5v-18a.5.5,0,0,0-.5-.5H5.5A1.5,1.5,0,0,1,4,13.5v-8A1.5,1.5,0,0,1,5.5,4h28A1.5,1.5,0,0,1,35,5.5v16a.5.5,0,0,1-1,0V5.5a.5.5,0,0,0-.5-.5H5.5a.5.5,0,0,0-.5.5v8a.5.5,0,0,0,.5.5h13A1.5,1.5,0,0,1,20,15.5v18a.5.5,0,0,0,.5.5h1a.5.5,0,0,1,0,1Z" style="fill:#b6b6b6"/><path d="M32,27a1,1,0,1,1-1-1A1,1,0,0,1,32,27Zm-4-3a1,1,0,1,0,1,1A1,1,0,0,0,28,24Zm-1,4a1,1,0,1,0-1,1A1,1,0,0,0,27,28Zm0,2a1,1,0,1,0,1,1A1,1,0,0,0,27,30Zm8-1.5A2.5,2.5,0,0,1,32.5,31h-1a.5.5,0,0,0-.5.5v1A2.5,2.5,0,0,1,28.5,35,6.5,6.5,0,1,1,35,28.5Zm-1,0A5.49,5.49,0,0,0,28.49,23a5.91,5.91,0,0,0-1.18.12,5.51,5.51,0,0,0-4.19,4.19A5.59,5.59,0,0,0,24.23,32a5.49,5.49,0,0,0,4.27,2A1.5,1.5,0,0,0,30,32.5v-1A1.5,1.5,0,0,1,31.5,30h1A1.5,1.5,0,0,0,34,28.5Zm-18-13v18A1.5,1.5,0,0,1,14.5,35h-7A1.5,1.5,0,0,1,6,33.5v-18A1.5,1.5,0,0,1,7.5,14h7A1.5,1.5,0,0,1,16,15.5ZM10,15V34h2V15ZM7.5,34H9V15H7.5a.5.5,0,0,0-.5.5v18A.5.5,0,0,0,7.5,34ZM15,15.5a.5.5,0,0,0-.5-.5H13V34h1.5a.5.5,0,0,0,.5-.5Z" style="fill:#009688"/></svg>
