<svg xmlns="http://www.w3.org/2000/svg" viewBox="0 0 40 40"><path d="M33.5,4H5.5A1.5,1.5,0,0,0,4,5.5v14a.5.5,0,0,0,.5.5H5V5.5A.5.5,0,0,1,5.5,5H19v5.5a.5.5,0,0,0,.5.5H20a.48.48,0,0,0,.4-.2A2,2,0,0,1,22,10a2,2,0,0,1,0,4,2,2,0,0,1-1.59-.8A.48.48,0,0,0,20,13H19.5a.5.5,0,0,0-.5.5V20h5.77a3,3,0,1,0,4.46,0H34V33.5a.5.5,0,0,1-.5.5H19v.5a.5.5,0,0,0,.5.5h14A1.5,1.5,0,0,0,35,33.5V5.5A1.5,1.5,0,0,0,33.5,4ZM34,19H28.5a.5.5,0,0,0-.5.5V20a.48.48,0,0,0,.2.4,2,2,0,1,1-2.4,0A.48.48,0,0,0,26,20V19.5a.5.5,0,0,0-.5-.5H20V14.23a3,3,0,1,0,0-4.46V5H33.5a.5.5,0,0,1,.5.5Z" style="fill:#2b3436"/><path d="M19.5,35H5.5A1.5,1.5,0,0,1,4,33.5v-14a.5.5,0,0,1,.5-.5H9.77a3,3,0,1,1,4.46,0H19.5a.5.5,0,0,1,.5.5v6a.5.5,0,0,1-.5.5H19a.48.48,0,0,1-.4-.2,2,2,0,1,0,0,2.4A.48.48,0,0,1,19,28h.51a.5.5,0,0,1,.5.5v6A.5.5,0,0,1,19.5,35ZM5,20V33.5a.5.5,0,0,0,.5.5H19V29.23a3,3,0,1,1,0-4.46V20H13.5a.5.5,0,0,1-.5-.5V19a.48.48,0,0,1,.2-.4,2,2,0,1,0-2.4,0,.48.48,0,0,1,.2.4v.51a.5.5,0,0,1-.5.5Z" style="fill:#009688"/></svg>