<svg xmlns="http://www.w3.org/2000/svg" viewBox="0 0 40 40"><path d="M21,29.36,14.31,32a.5.5,0,0,0,.19,1,.46.46,0,0,0,.19,0L21,30.44Z" style="fill:#b6b6b6"/><path d="M34.92,10.25l0-.05a.45.45,0,0,0-.2-.16h0l-15-6a.5.5,0,0,0-.38,0l-15,6a.5.5,0,0,0,.38.92L19.5,5,33.15,10.5,19.31,16a.5.5,0,0,0,.19,1,.46.46,0,0,0,.19,0L34,11.24v4.92L29.31,18h0l-10,4a.5.5,0,0,0,.19,1,.46.46,0,0,0,.19,0L29,19.24V20.5a.5.5,0,0,0,1,0V18.84L34.69,17A.49.49,0,0,0,35,16.5v-6A.44.44,0,0,0,34.92,10.25Z" style="fill:#b6b6b6"/><path d="M33.5,24h-8A1.5,1.5,0,0,0,24,25.5v8A1.5,1.5,0,0,0,25.5,35h8A1.5,1.5,0,0,0,35,33.5v-8A1.5,1.5,0,0,0,33.5,24Zm.5,9.5a.5.5,0,0,1-.5.5h-8a.5.5,0,0,1-.5-.5v-8a.5.5,0,0,1,.5-.5h8a.5.5,0,0,1,.5.5ZM30,29h3v1H30v3H29V30H26V29h3V26h1Zm-15.5,4a.65.65,0,0,1-.19,0l-5-2A.49.49,0,0,1,9,30.5V18.84L4.31,17A.49.49,0,0,1,4,16.5v-6a.48.48,0,0,1,.22-.41A.47.47,0,0,1,4.69,10l15,6a.49.49,0,0,1,.31.46v6a.48.48,0,0,1-.22.41.47.47,0,0,1-.47.05L15,21.24V32.55a.49.49,0,0,1-.22.41A.47.47,0,0,1,14.5,33.05ZM10,30.16l4,1.64V20.5a.48.48,0,0,1,.22-.41.47.47,0,0,1,.47-.05L19,21.76V16.84L5,11.24v4.92L9.69,18a.49.49,0,0,1,.31.46Z" style="fill:#009688"/></svg>