<svg xmlns="http://www.w3.org/2000/svg" viewBox="0 0 40 40"><path d="M33.5,35H5.5A1.5,1.5,0,0,1,4,33.5v-9A1.5,1.5,0,0,1,5.5,23h28A1.5,1.5,0,0,1,35,24.5v9A1.5,1.5,0,0,1,33.5,35ZM5.5,24a.5.5,0,0,0-.5.5v9a.5.5,0,0,0,.5.5h28a.5.5,0,0,0,.5-.5v-9a.5.5,0,0,0-.5-.5ZM5,14.5V4.5a.5.5,0,0,0-1,0v10a.5.5,0,0,0,1,0Zm30,0V4.5a.5.5,0,0,0-1,0v10a.5.5,0,0,0,1,0Z" style="fill:#2b3436"/><path d="M7,28.5v5a.5.5,0,0,1-1,0v-5a.5.5,0,0,1,1,0ZM22.5,28a.5.5,0,0,0-.5.5v5a.5.5,0,0,0,1,0v-5A.5.5,0,0,0,22.5,28Zm-14,2a.5.5,0,0,0-.5.5v3a.5.5,0,0,0,1,0v-3A.5.5,0,0,0,8.5,30Zm2,0a.5.5,0,0,0-.5.5v3a.5.5,0,0,0,1,0v-3A.5.5,0,0,0,10.5,30Zm2,0a.5.5,0,0,0-.5.5v3a.5.5,0,0,0,1,0v-3A.5.5,0,0,0,12.5,30Zm4,0a.5.5,0,0,0-.5.5v3a.5.5,0,0,0,1,0v-3A.5.5,0,0,0,16.5,30Zm2,0a.5.5,0,0,0-.5.5v3a.5.5,0,0,0,1,0v-3A.5.5,0,0,0,18.5,30Zm2,0a.5.5,0,0,0-.5.5v3a.5.5,0,0,0,1,0v-3A.5.5,0,0,0,20.5,30Zm-6-1a.5.5,0,0,0-.5.5v4a.5.5,0,0,0,1,0v-4A.5.5,0,0,0,14.5,29Zm10,1a.5.5,0,0,0-.5.5v3a.5.5,0,0,0,1,0v-3A.5.5,0,0,0,24.5,30Zm2,0a.5.5,0,0,0-.5.5v3a.5.5,0,0,0,1,0v-3A.5.5,0,0,0,26.5,30Zm2,0a.5.5,0,0,0-.5.5v3a.5.5,0,0,0,1,0v-3A.5.5,0,0,0,28.5,30Zm4,0a.5.5,0,0,0-.5.5v3a.5.5,0,0,0,1,0v-3A.5.5,0,0,0,32.5,30Zm-2-1a.5.5,0,0,0-.5.5v4a.5.5,0,0,0,1,0v-4A.5.5,0,0,0,30.5,29ZM7.71,10H31.29l-3.14,3.15a.48.48,0,0,0,0,.7.48.48,0,0,0,.7,0l4-4a.48.48,0,0,0,0-.7l-4-4a.49.49,0,0,0-.7.7L31.29,9H7.71l3.14-3.15a.49.49,0,0,0-.7-.7l-4,4a.48.48,0,0,0,0,.7l4,4a.48.48,0,0,0,.7,0,.48.48,0,0,0,0-.7Z" style="fill:#009688"/></svg>