<?xml version="1.0" encoding="UTF-8"?><svg id="a" xmlns="http://www.w3.org/2000/svg" width="40" height="40" viewBox="0 0 40 40"><path d="M28.5,30H10.5c-.83,0-1.5-.67-1.5-1.5V10.5c0-.83.67-1.5,1.5-1.5h18c.83,0,1.5.67,1.5,1.5v18c0,.83-.67,1.5-1.5,1.5ZM10.5,10c-.28,0-.5.22-.5.5v18c0,.28.22.5.5.5h18c.28,0,.5-.22.5-.5V10.5c0-.28-.22-.5-.5-.5H10.5Z" style="fill:#b6b6b6;"/><path d="M15.91,9c-.48-2.84-2.94-5-5.91-5-3.31,0-6,2.69-6,6,0,2.97,2.16,5.43,5,5.91v-.93c-.59-.12-1.14-.34-1.63-.64l1.63-1.63v-1.41l-2.43,2.43c-.64-.59-1.12-1.34-1.4-2.19l6.36-6.36c.85.27,1.6.75,2.19,1.4l-2.43,2.43h1.41l1.63-1.63c.3.49.52,1.04.64,1.63h.93ZM4.95,10.34c0-.11-.03-.22-.03-.34,0-2.8,2.28-5.08,5.08-5.08.12,0,.23.02.34.03l-5.39,5.39Z" style="fill:#009688;"/><path d="M23.93,9c.12-.59.34-1.14.64-1.63l1.63,1.63h1.41s-2.43-2.43-2.43-2.43c.59-.64,1.34-1.12,2.19-1.4l6.36,6.36c-.27.85-.75,1.6-1.4,2.19l-2.43-2.43v1.41s1.63,1.63,1.63,1.63c-.49.3-1.04.52-1.63.64v.93c2.84-.48,5-2.94,5-5.91,0-3.31-2.69-6-6-6-2.97,0-5.43,2.16-5.91,5h.93ZM28.57,4.95c.11,0,.22-.03.34-.03,2.8,0,5.08,2.28,5.08,5.08,0,.12-.02.23-.03.34l-5.39-5.39Z" style="fill:#009688;"/><path d="M14.98,29.91c-.12.59-.34,1.14-.64,1.63l-1.63-1.63h-1.41l2.43,2.43c-.59.64-1.34,1.12-2.19,1.4l-6.36-6.36c.27-.85.75-1.6,1.4-2.19l2.43,2.43v-1.41l-1.63-1.63c.49-.3,1.04-.52,1.63-.64v-.93c-2.84.48-5,2.94-5,5.91,0,3.31,2.69,6,6,6,2.97,0,5.43-2.16,5.91-5h-.93ZM10.34,33.96c-.11,0-.22.03-.34.03-2.8,0-5.08-2.28-5.08-5.08,0-.12.02-.23.03-.34l5.39,5.39Z" style="fill:#009688;"/><path d="M23,29.91c.48,2.84,2.94,5,5.91,5,3.31,0,6-2.69,6-6,0-2.97-2.16-5.43-5-5.91v.93c.59.12,1.14.34,1.63.64l-1.63,1.63v1.41s2.43-2.43,2.43-2.43c.64.59,1.12,1.34,1.4,2.19l-6.36,6.36c-.85-.27-1.6-.75-2.19-1.4l2.43-2.43h-1.41s-1.63,1.63-1.63,1.63c-.3-.49-.52-1.04-.64-1.63h-.93ZM33.96,28.57c0,.11.03.22.03.34,0,2.8-2.28,5.08-5.08,5.08-.12,0-.23-.02-.34-.03l5.39-5.39Z" style="fill:#009688;"/></svg>