<svg width="40" height="41" viewBox="0 0 40 41" fill="none" xmlns="http://www.w3.org/2000/svg">
<path fill-rule="evenodd" clip-rule="evenodd" d="M35.0918 35.5914V34.6875H36.0918V36.5914H34.1879V35.5914H35.0918Z" fill="#262E30"/>
<path fill-rule="evenodd" clip-rule="evenodd" d="M8.26439 36.5918H6.71082V35.5918H8.26439V36.5918ZM14.4787 36.5918H11.3715V35.5918H14.4787V36.5918ZM20.693 36.5918H17.5858V35.5918H20.693V36.5918ZM26.9073 36.5918H23.8001V35.5918H26.9073V36.5918ZM31.568 36.5918H30.0144V35.5918H31.568V36.5918Z" fill="#262E30"/>
<path fill-rule="evenodd" clip-rule="evenodd" d="M4.5 35.5914V34.6875H3.5V36.5914H5.40393V35.5914H4.5Z" fill="#262E30"/>
<path fill-rule="evenodd" clip-rule="evenodd" d="M3.5 8.76484V7.21094H4.5V8.76484H3.5ZM3.5 14.9804V11.8726H4.5V14.9804H3.5ZM3.5 21.196V18.0882H4.5V21.196H3.5ZM3.5 27.4116V24.3038H4.5V27.4116H3.5ZM3.5 32.0733V30.5194H4.5V32.0733H3.5Z" fill="#262E30"/>
<path fill-rule="evenodd" clip-rule="evenodd" d="M3.50012 4.00195H5.40413V5.00195H4.50012V5.90592H3.50012V4.00195Z" fill="#262E30"/>
<path fill-rule="evenodd" clip-rule="evenodd" d="M9.57198 5H8.01807V4H9.57198V5ZM15.7876 5H12.6798V4H15.7876V5ZM22.0033 5H18.8954V4H22.0033V5ZM28.2189 5H25.1111V4H28.2189V5ZM32.8806 5H31.3267V4H32.8806V5Z" fill="#262E30"/>
<path fill-rule="evenodd" clip-rule="evenodd" d="M35.0919 5H34.1879V4H36.0919V5.90396H35.0919V5Z" fill="#262E30"/>
<path fill-rule="evenodd" clip-rule="evenodd" d="M35.0912 10.079V8.52539H36.0912V10.079H35.0912ZM35.0912 16.2932V13.1861H36.0912V16.2932H35.0912ZM35.0912 22.5075V19.4003H36.0912V22.5075H35.0912ZM35.0912 28.7217V25.6146H36.0912V28.7217H35.0912ZM35.0912 33.3824V31.8288H36.0912V33.3824H35.0912Z" fill="#262E30"/>
<path fill-rule="evenodd" clip-rule="evenodd" d="M23.8835 9.14489C24.031 8.77613 24.4148 8.73242 24.5804 8.73242H30.6804C31.2147 8.73242 31.6484 9.16606 31.6484 9.7004V15.8004C31.6484 15.9691 31.6019 16.3448 31.2403 16.4934C30.8795 16.6417 30.5816 16.4087 30.4613 16.2884L28.4615 14.2886L24.8102 17.9398C24.4321 18.3179 23.8196 18.3179 23.4415 17.9398L23.795 17.5862L23.4415 17.9398L22.4463 16.9446C22.0682 16.5665 22.0682 15.9541 22.4463 15.5759L26.0976 11.9247L24.0924 9.91948C23.9761 9.80325 23.7387 9.50697 23.8835 9.14489ZM26.1203 11.9474C26.1203 11.9474 26.1203 11.9474 26.1202 11.9473L26.1203 11.9474ZM25.3195 9.73242L26.8274 11.2403C27.2056 11.6185 27.2056 12.2309 26.8274 12.6091L23.1762 16.2603L24.1259 17.2099L27.7771 13.5587C28.1553 13.1806 28.7677 13.1806 29.1458 13.5587L30.6484 15.0612V9.73242H25.3195ZM30.6481 15.807C30.6481 15.807 30.6481 15.8064 30.6483 15.8051L30.6481 15.807ZM23.1535 16.2376C23.1535 16.2376 23.1535 16.2376 23.1534 16.2375L23.1307 16.2603L23.1534 16.2375L23.1535 16.2376Z" fill="#009688"/>
<path fill-rule="evenodd" clip-rule="evenodd" d="M3.5 18.2773H21.8156V36.5928H3.5V18.2773ZM4.5 19.2773V35.5928H20.8156V19.2773H4.5Z" fill="#009688"/>
</svg>
