<svg width="40" height="40" viewBox="0 0 40 40" fill="none" xmlns="http://www.w3.org/2000/svg">
<path fill-rule="evenodd" clip-rule="evenodd" d="M35.0919 35.0914V34.1875H36.0919V36.0914H34.188V35.0914H35.0919Z" fill="#B6B6B6"/>
<path fill-rule="evenodd" clip-rule="evenodd" d="M8.26451 36.0918H6.71094V35.0918H8.26451V36.0918ZM14.4788 36.0918H11.3717V35.0918H14.4788V36.0918ZM20.6931 36.0918H17.586V35.0918H20.6931V36.0918ZM26.9074 36.0918H23.8003V35.0918H26.9074V36.0918ZM31.5681 36.0918H30.0146V35.0918H31.5681V36.0918Z" fill="#B6B6B6"/>
<path fill-rule="evenodd" clip-rule="evenodd" d="M4.5 35.0914V34.1875H3.5V36.0914H5.40393V35.0914H4.5Z" fill="#B6B6B6"/>
<path fill-rule="evenodd" clip-rule="evenodd" d="M3.5 8.26484V6.71094H4.5V8.26484H3.5ZM3.5 14.4804V11.3726H4.5V14.4804H3.5ZM3.5 20.696V17.5882H4.5V20.696H3.5ZM3.5 26.9116V23.8038H4.5V26.9116H3.5ZM3.5 31.5733V30.0194H4.5V31.5733H3.5Z" fill="#B6B6B6"/>
<path fill-rule="evenodd" clip-rule="evenodd" d="M3.5 3.50195H5.40401V4.50195H4.5V5.40592H3.5V3.50195Z" fill="#B6B6B6"/>
<path fill-rule="evenodd" clip-rule="evenodd" d="M9.57247 4.5H8.01855V3.5H9.57247V4.5ZM15.7881 4.5H12.6803V3.5H15.7881V4.5ZM22.0037 4.5H18.8959V3.5H22.0037V4.5ZM28.2194 4.5H25.1116V3.5H28.2194V4.5ZM32.8811 4.5H31.3272V3.5H32.8811V4.5Z" fill="#B6B6B6"/>
<path fill-rule="evenodd" clip-rule="evenodd" d="M35.0919 4.5H34.188V3.5H36.0919V5.40396H35.0919V4.5Z" fill="#B6B6B6"/>
<path fill-rule="evenodd" clip-rule="evenodd" d="M35.0913 9.57895V8.02539H36.0913V9.57895H35.0913ZM35.0913 15.7932V12.6861H36.0913V15.7932H35.0913ZM35.0913 22.0075V18.9003H36.0913V22.0075H35.0913ZM35.0913 28.2217V25.1146H36.0913V28.2217H35.0913ZM35.0913 32.8824V31.3288H36.0913V32.8824H35.0913Z" fill="#B6B6B6"/>
<path fill-rule="evenodd" clip-rule="evenodd" d="M23.8839 8.64489C24.0314 8.27613 24.4151 8.23242 24.5808 8.23242H30.6807C31.2151 8.23242 31.6487 8.66606 31.6487 9.2004V15.3004C31.6487 15.4691 31.6023 15.8448 31.2407 15.9934C30.8799 16.1417 30.582 15.9087 30.4617 15.7884L28.4618 13.7886L24.8106 17.4398C24.4324 17.8179 23.82 17.8179 23.4418 17.4398L23.7954 17.0862L23.4418 17.4398L22.4467 16.4446C22.0685 16.0665 22.0685 15.4541 22.4467 15.0759L26.0979 11.4247L24.0927 9.41948C23.9765 9.30325 23.739 9.00697 23.8839 8.64489ZM26.1207 11.4474C26.1207 11.4474 26.1206 11.4474 26.1206 11.4473L26.1207 11.4474ZM25.3199 9.23242L26.8278 10.7403C27.2059 11.1185 27.2059 11.7309 26.8278 12.1091L23.1765 15.7603L24.1262 16.7099L27.7775 13.0587C28.1556 12.6806 28.7681 12.6806 29.1462 13.0587L30.6487 14.5612V9.23242H25.3199ZM30.6485 15.307C30.6485 15.307 30.6485 15.3064 30.6486 15.3051L30.6485 15.307ZM23.1539 15.7376C23.1539 15.7376 23.1538 15.7376 23.1538 15.7375L23.1311 15.7603L23.1538 15.7375L23.1539 15.7376Z" fill="#eb4949"/>
<path fill-rule="evenodd" clip-rule="evenodd" d="M3.5 17.7773H21.8156V36.0928H3.5V17.7773ZM4.5 18.7773V35.0928H20.8156V18.7773H4.5Z" fill="#eb4949"/>
</svg>
