<svg xmlns="http://www.w3.org/2000/svg" viewBox="0 0 40 40"><path d="M33.5,35H5.5A1.5,1.5,0,0,1,4,33.5v-11a.5.5,0,0,1,1,0v11a.5.5,0,0,0,.5.5h28a.5.5,0,0,0,.5-.5v-11a.5.5,0,0,1,1,0v11A1.5,1.5,0,0,1,33.5,35ZM35,16.5V5.5A1.5,1.5,0,0,0,33.5,4H5.5A1.5,1.5,0,0,0,4,5.5v11a.5.5,0,0,0,1,0V5.5A.5.5,0,0,1,5.5,5h28a.5.5,0,0,1,.5.5v11a.5.5,0,0,0,1,0Z" style="fill:#b6b6b6"/><path d="M28.5,20h-4a.5.5,0,0,1,0-1h4a.5.5,0,0,1,0,1Z" style="fill:#009688"/><path d="M34.5,20h-3a.5.5,0,0,1,0-1h3a.5.5,0,0,1,0,1Z" style="fill:#009688"/><path d="M21.5,20h-4a.5.5,0,0,1,0-1h4a.5.5,0,0,1,0,1Z" style="fill:#009688"/><path d="M14.5,20h-4a.5.5,0,0,1,0-1h4a.5.5,0,0,1,0,1Z" style="fill:#009688"/><path d="M7.5,20h-3a.5.5,0,0,1,0-1h3a.5.5,0,0,1,0,1Z" style="fill:#009688"/></svg>