<svg xmlns="http://www.w3.org/2000/svg" width="43" height="43" viewBox="0 0 40 40">
   <path
      d="M33.5,4H5.5A1.5,1.5,0,0,0,4,5.5v28A1.5,1.5,0,0,0,5.5,35h16a.5.5,0,0,0,0-1H5.5a.5.5,0,0,1-.5-.5V5.5A.5.5,0,0,1,5.5,5h28a.5.5,0,0,1,.5.5v16a.5.5,0,0,0,1,0V5.5A1.5,1.5,0,0,0,33.5,4Z"
      style="fill:#b6b6b6" />
   <path
      d="M32.5,13a.5.5,0,0,0,0-1H27V6.5a.5.5,0,0,0-1,0V12H20V6.5a.5.5,0,0,0-1,0V12H13V6.5a.5.5,0,0,0-1,0V12H6.5a.5.5,0,0,0,0,1H12v6H6.5a.5.5,0,0,0,0,1H12v6H6.5a.5.5,0,0,0,0,1H12v5.5a.5.5,0,0,0,1,0V27h6v5.5a.5.5,0,0,0,1,0V27h1.5a.5.5,0,0,0,0-1H20V20h6v1.5a.5.5,0,0,0,1,0V20h5.5a.5.5,0,0,0,0-1H27V13ZM13,13h6v6H13Zm6,13H13V20h6Zm7-7H20V13h6Z"
      style="fill:#b6b6b6" />
   <path
      d="m 31.5,26 h -6 C 24.671573,26 24,26.671573 24,27.5 v 6 c 0,0.828427 0.671573,1.5 1.5,1.5 h 6 c 0.828427,0 1.5,-0.671573 1.5,-1.5 v -6 C 33,26.671573 32.328427,26 31.5,26 Z m 0.5,7.5 c 0,0.276142 -0.223858,0.5 -0.5,0.5 h -6 C 25.223858,34 25,33.776142 25,33.5 v -6 C 25,27.223858 25.223858,27 25.5,27 h 6 c 0.276142,0 0.5,0.223858 0.5,0.5 z"
      style="fill:#009688" />
   <path
      style="fill:#009688"
      d="M 27.5 24 C 26.671574 24 26 24.671574 26 25.5 L 27 25.5 C 27 25.223858 27.223858 25 27.5 25 L 33.5 25 C 33.776142 25 34 25.223858 34 25.5 L 34 31.5 C 34 31.776142 33.776142 32 33.5 32 L 33.498047 32 L 33.498047 33 L 33.5 33 C 34.328426 33 35 32.328426 35 31.5 L 35 25.5 C 35 24.671574 34.328426 24 33.5 24 L 27.5 24 z" />
</svg>