<svg xmlns="http://www.w3.org/2000/svg" viewBox="0 0 40 40"><path d="M33.5,4H5.5A1.5,1.5,0,0,0,4,5.5v28A1.5,1.5,0,0,0,5.5,35h14a.5.5,0,0,0,0-1H17V29h2.5a.5.5,0,0,0,0-1H17V23h2.5a.5.5,0,0,0,0-1H17V17h5v2.5a.5.5,0,0,0,1,0V17h5v2.5a.5.5,0,0,0,1,0V17h5v2.5a.5.5,0,0,0,1,0V5.5A1.5,1.5,0,0,0,33.5,4ZM34,5.5V10H29V5h4.5A.5.5,0,0,1,34,5.5ZM5,23h5v5H5Zm0-1V17h5v5Zm0-6V11h5v5Zm6-5h5v5H11Zm0-1V5h5v5Zm6-5h5v5H17Zm6,0h5v5H23ZM5.5,5H10v5H5V5.5A.5.5,0,0,1,5.5,5ZM5,33.5V29h5v5H5.5A.5.5,0,0,1,5,33.5ZM16,34H11V29h5Zm0-6H11V23h5Zm0-6H11V17h5Zm1-6V11h5v5Zm6,0V11h5v5Zm6,0V11h5v5Z" style="fill:#2b3436"/><path d="M33.5,35h-10A1.5,1.5,0,0,1,22,33.5v-10A1.5,1.5,0,0,1,23.5,22h10A1.5,1.5,0,0,1,35,23.5v10A1.5,1.5,0,0,1,33.5,35Zm-10-12a.5.5,0,0,0-.5.5v10a.5.5,0,0,0,.5.5h10a.5.5,0,0,0,.5-.5v-10a.5.5,0,0,0-.5-.5Z" style="fill:#009688"/><path d="M28.5,32a.5.5,0,0,1-.5-.5v-6a.5.5,0,0,1,1,0v6A.5.5,0,0,1,28.5,32Z" style="fill:#009688"/><path d="M31.5,29h-6a.5.5,0,0,1,0-1h6a.5.5,0,0,1,0,1Z" style="fill:#009688"/></svg>