<svg width="35" height="35" viewBox="0 0 35 35" fill="none" xmlns="http://www.w3.org/2000/svg">
<path fill-rule="evenodd" clip-rule="evenodd" d="M28.9668 7.89524C29.5156 7.50686 29.5487 7.26489 29.5487 7.2226C29.5487 7.18031 29.5156 6.93834 28.9668 6.54996C28.4444 6.18023 27.6234 5.8064 26.519 5.47582C24.323 4.81849 21.2293 4.39746 17.7695 4.39746C14.3097 4.39746 11.216 4.81849 9.01994 5.47582C7.91552 5.8064 7.09461 6.18023 6.57215 6.54996C6.02334 6.93834 5.99023 7.18031 5.99023 7.2226C5.99023 7.26489 6.02334 7.50686 6.57215 7.89524C7.09461 8.26497 7.91552 8.6388 9.01994 8.96938C11.216 9.62672 14.3097 10.0477 17.7695 10.0477C21.2293 10.0477 24.323 9.62672 26.519 8.96938C27.6234 8.6388 28.4444 8.26497 28.9668 7.89524ZM17.7695 11.0477C24.8273 11.0477 30.5487 9.33517 30.5487 7.2226C30.5487 5.11003 24.8273 3.39746 17.7695 3.39746C10.7117 3.39746 4.99023 5.11003 4.99023 7.2226C4.99023 9.33517 10.7117 11.0477 17.7695 11.0477Z" fill="#262E30"/>
<path fill-rule="evenodd" clip-rule="evenodd" d="M5.93408 10.5427C6.21022 10.5427 6.43408 10.7666 6.43408 11.0427V29.0619C6.80339 29.5469 9.07121 31.9542 17.7709 31.9542C26.4706 31.9542 28.7384 29.5469 29.1077 29.0619V11.0427C29.1077 10.7666 29.3316 10.5427 29.6077 10.5427C29.8839 10.5427 30.1077 10.7666 30.1077 11.0427V29.1641C30.1077 29.2726 30.0826 29.401 30.0049 29.5231C29.6386 30.0987 27.3251 32.9542 17.7709 32.9542C8.21671 32.9542 5.90323 30.0987 5.53693 29.5231C5.45917 29.401 5.43408 29.2726 5.43408 29.1641V11.0427C5.43408 10.7666 5.65794 10.5427 5.93408 10.5427Z" fill="#262E30"/>
</svg>
