<?xml version="1.0" encoding="UTF-8"?><svg id="a" xmlns="http://www.w3.org/2000/svg" width="40" height="40" viewBox="0 0 40 40"><path d="M33.5,35H5.5c-.83,0-1.5-.67-1.5-1.5v-7c0-.83.67-1.5,1.5-1.5h28c.83,0,1.5.67,1.5,1.5v7c0,.83-.67,1.5-1.5,1.5ZM5.5,26c-.28,0-.5.22-.5.5v7c0,.28.22.5.5.5h28c.28,0,.5-.22.5-.5v-7c0-.28-.22-.5-.5-.5H5.5Z" style="fill:#009688;"/><rect x="13" y="18" width="1" height="1" style="fill:#b6b6b6;"/><rect x="15" y="18" width="1" height="1" style="fill:#b6b6b6;"/><rect x="17" y="18" width="1" height="1" style="fill:#b6b6b6;"/><rect x="19" y="18" width="1" height="1" style="fill:#b6b6b6;"/><rect x="21" y="18" width="1" height="1" style="fill:#b6b6b6;"/><rect x="23" y="18" width="1" height="1" style="fill:#b6b6b6;"/><rect x="25" y="18" width="1" height="1" style="fill:#b6b6b6;"/><rect x="27" y="18" width="1" height="1" style="fill:#b6b6b6;"/><rect x="29" y="18" width="1" height="1" style="fill:#b6b6b6;"/><rect x="15" y="24" width="1" height="1" style="fill:#b6b6b6;"/><rect x="17" y="24" width="1" height="1" style="fill:#b6b6b6;"/><rect x="19" y="24" width="1" height="1" style="fill:#b6b6b6;"/><rect x="21" y="24" width="1" height="1" style="fill:#b6b6b6;"/><rect x="23" y="24" width="1" height="1" style="fill:#b6b6b6;"/><rect x="25" y="24" width="1" height="1" style="fill:#b6b6b6;"/><rect x="27" y="24" width="1" height="1" style="fill:#b6b6b6;"/><rect x="29" y="24" width="1" height="1" style="fill:#b6b6b6;"/><rect x="13" y="20" width="1" height="1" style="fill:#b6b6b6;"/><rect x="29" y="20" width="1" height="1" style="fill:#b6b6b6;"/><rect x="13" y="22" width="1" height="1" style="fill:#b6b6b6;"/><rect x="29" y="22" width="1" height="1" style="fill:#b6b6b6;"/><rect x="13" y="24" width="1" height="1" style="fill:#b6b6b6;"/><path d="M6.5,23.16c-.2,0-.39-.12-.46-.31l-2-5c-.1-.26.02-.55.28-.65.25-.1.55.02.65.28l1.81,4.54,4.54-1.81c.26-.1.55.02.65.28s-.02.55-.28.65l-5,2c-.06.02-.12.04-.19.04Z" style="fill:#009688;"/><path d="M6.5,23.16s-.08,0-.12-.01c-.27-.06-.43-.33-.37-.6,1.03-4.26,3.06-7.35,6.21-9.46.23-.15.54-.09.69.14.15.23.09.54-.14.69-2.93,1.96-4.83,4.85-5.79,8.86-.06.23-.26.38-.49.38Z" style="fill:#009688;"/><path d="M16.06,5.16c.07,0,.15.02.22.05l12.61,6.08c.25.12.35.42.23.67l-1.74,3.6c-.1.21-.3.28-.45.28-.07,0-.15-.02-.22-.05l-12.61-6.08c-.25-.12-.35-.42-.23-.67l1.74-3.6c.1-.21.3-.28.45-.28M16.06,4.16c-.56,0-1.09.31-1.35.85l-1.74,3.6c-.36.75-.05,1.64.7,2l12.61,6.08c.21.1.43.15.65.15.56,0,1.09-.31,1.35-.85l1.74-3.6c.36-.75.05-1.64-.7-2l-12.61-6.08c-.21-.1-.43-.15-.65-.15h0Z" style="fill:#009688;"/></svg>