<svg xmlns="http://www.w3.org/2000/svg" width="40" height="40" viewBox="0 0 40 40"><path d="M33.5,4h-22A1.5,1.5,0,0,0,10,5.5V7H8.5A1.5,1.5,0,0,0,7,8.5v2a.5.5,0,0,0,1,0v-2A.5.5,0,0,1,8.5,8h22a.5.5,0,0,1,.5.5v22a.5.5,0,0,1-.5.5h-2a.5.5,0,0,0,0,1h2A1.5,1.5,0,0,0,32,30.5V29h1.5A1.5,1.5,0,0,0,35,27.5V5.5A1.5,1.5,0,0,0,33.5,4ZM34,27.5a.5.5,0,0,1-.5.5H32V8.5A1.5,1.5,0,0,0,30.5,7H11V5.5a.5.5,0,0,1,.5-.5h22a.5.5,0,0,1,.5.5Z" style="fill:#b6b6b6"/><path d="M27.5,10H5.5A1.5,1.5,0,0,0,4,11.5v22A1.5,1.5,0,0,0,5.5,35h22A1.5,1.5,0,0,0,29,33.5v-22A1.5,1.5,0,0,0,27.5,10ZM22,22H17V17h5Zm1-5h5v5H23Zm-6-1V11h5v5Zm-1,0H11V11h5Zm0,1v5H11V17Zm-6,5H5V17h5ZM5,23h5v5H5Zm6,0h5v5H11Zm5,6v5H11V29Zm1,0h5v5H17Zm0-1V23h5v5Zm6-5h5v5H23Zm5-11.5V16H23V11h4.5A.5.5,0,0,1,28,11.5ZM5.5,11H10v5H5V11.5A.5.5,0,0,1,5.5,11ZM5,33.5V29h5v5H5.5A.5.5,0,0,1,5,33.5Zm22.5.5H23V29h5v4.5A.5.5,0,0,1,27.5,34Z" style="fill:#009688"/></svg>