<svg width="40" height="40" viewBox="0 0 40 40" fill="none" xmlns="http://www.w3.org/2000/svg">
<g clip-path="url(#clip0_8432_56489)">
<path fill-rule="evenodd" clip-rule="evenodd" d="M31.0422 24.7269L19.7285 13.4132L8.41481 24.7269L19.7285 36.0407L31.0422 24.7269ZM19.7285 11.999L7.00059 24.7269L19.7285 37.4549L32.4564 24.7269L19.7285 11.999Z" fill="#B6B6B6"/>
<path fill-rule="evenodd" clip-rule="evenodd" d="M5.16318 24.8288C3.80438 21.8365 3.53064 18.4548 4.40407 15.2706C5.34279 11.8484 7.53755 8.9061 10.5503 7.03094C13.563 5.15578 17.172 4.48572 20.6571 5.15452C23.8997 5.7768 26.813 7.51557 28.8978 10.056C28.9586 10.13 29.0187 10.2048 29.078 10.2802C29.0837 10.2873 29.0894 10.2942 29.0954 10.301C29.2525 10.4788 29.5211 10.5138 29.7143 10.3715C29.9148 10.2238 29.9581 9.94105 29.8045 9.74506C29.7986 9.7375 29.7926 9.72994 29.7867 9.72239C29.7225 9.64089 29.6576 9.56013 29.5919 9.48012C27.3739 6.77925 24.2755 4.93063 20.827 4.26885C17.1191 3.55727 13.2791 4.27019 10.0737 6.2653C6.86829 8.26041 4.53314 11.391 3.53437 15.0321C2.60549 18.4184 2.89605 22.0147 4.34005 25.1973C4.38282 25.2915 4.42661 25.3855 4.47141 25.479C4.47556 25.4877 4.47972 25.4963 4.48389 25.505C4.59189 25.7294 4.86475 25.8154 5.0858 25.7007C5.29879 25.5902 5.38592 25.3337 5.29578 25.1142C5.29237 25.1059 5.2887 25.0977 5.28477 25.0895C5.24332 25.0029 5.20279 24.916 5.16318 24.8288Z" fill="#009688"/>
<path fill-rule="evenodd" clip-rule="evenodd" d="M33.8004 5.47446C33.7606 5.32574 33.5747 5.27593 33.4658 5.3848L25.3825 13.4681C25.2736 13.577 25.3234 13.7629 25.4721 13.8027L36.5141 16.7614C36.6629 16.8013 36.7989 16.6652 36.7591 16.5165L33.8004 5.47446ZM35.4345 15.4369L33.1931 7.0717L27.0694 13.1954L35.4345 15.4369Z" fill="#009688"/>
</g>
<defs>
<clipPath id="clip0_8432_56489">
<rect width="40" height="40" fill="white"/>
</clipPath>
</defs>
</svg>
