<svg xmlns="http://www.w3.org/2000/svg" viewBox="0 0 40 40"><path d="M33.5,24h-8A1.5,1.5,0,0,0,24,25.5v8A1.5,1.5,0,0,0,25.5,35h8A1.5,1.5,0,0,0,35,33.5v-8A1.5,1.5,0,0,0,33.5,24Zm.5,9.5a.5.5,0,0,1-.5.5h-8a.5.5,0,0,1-.5-.5v-8a.5.5,0,0,1,.5-.5h8a.5.5,0,0,1,.5.5ZM30,29h3v1H30v3H29V30H26V29h3V26h1Zm4.92-18.75,0-.05a.45.45,0,0,0-.2-.16h0l-15-6a.5.5,0,0,0-.38,0l-15,6h0a.45.45,0,0,0-.2.16l0,.05A.44.44,0,0,0,4,10.5v18H4a.32.32,0,0,0,0,.14.13.13,0,0,0,0,.06h0a.71.71,0,0,0,.1.14h0a.4.4,0,0,0,.15.1h0l15,6h0a.47.47,0,0,0,.38,0L22,34V33l-2,.8V16.84l14-5.6V21.5a.5.5,0,0,0,1,0v-11A.44.44,0,0,0,34.92,10.25ZM5,11.24l14,5.6V33.76L5,28.16ZM19.5,16,5.85,10.5,19.5,5,33.15,10.5Z" style="fill:#009688"/></svg>