<svg width="14" height="14" viewBox="0 0 14 14" fill="none" xmlns="http://www.w3.org/2000/svg">
<path fill-rule="evenodd" clip-rule="evenodd" d="M10.6457 7C10.5448 7 10.4602 6.9247 10.4433 6.82524C10.1226 4.93741 8.47917 3.5 6.5 3.5C4.29086 3.5 2.5 5.29086 2.5 7.5C2.5 9.47929 3.93759 11.1228 5.82559 11.4434C5.92506 11.4603 6.00037 11.5448 6.00037 11.6457V12.7588C6.00037 12.8763 5.89925 12.9688 5.7827 12.9536C3.08405 12.6022 1 10.2945 1 7.5C1 4.46243 3.46243 2 6.5 2C9.29433 2 11.6019 4.08386 11.9536 6.78232C11.9688 6.89888 11.8763 7 11.7587 7H10.6457Z" fill="#FF6F00"/>
<path d="M11.1649 9.76271C11.0854 9.87751 10.9156 9.87751 10.8361 9.76271L8.61993 6.5639C8.52803 6.43126 8.62296 6.25 8.78433 6.25H13.2167C13.3781 6.25 13.473 6.43126 13.3811 6.5639L11.1649 9.76271Z" fill="#FF6F00"/>
<path d="M8.38678 7.61146C8.38678 8.48963 8.22064 9.15893 7.88836 9.61938C7.56082 10.0798 7.09326 10.31 6.48566 10.31C5.87807 10.31 5.40576 10.0822 5.06873 9.6265C4.73645 9.16605 4.57031 8.49438 4.57031 7.61146C4.57031 6.72855 4.73645 6.05687 5.06873 5.59643C5.40576 5.13598 5.87807 4.90576 6.48566 4.90576C7.09326 4.90576 7.56082 5.13598 7.88836 5.59643C8.22064 6.05687 8.38678 6.72855 8.38678 7.61146ZM5.85908 7.61146C5.85908 8.14786 5.90892 8.54659 6.00861 8.80767C6.11304 9.06874 6.27206 9.19928 6.48566 9.19928C6.69453 9.19928 6.8488 9.06874 6.94848 8.80767C7.04817 8.54184 7.09801 8.14311 7.09801 7.61146C7.09801 7.07982 7.04817 6.68346 6.94848 6.42238C6.8488 6.15656 6.69453 6.02364 6.48566 6.02364C6.27206 6.02364 6.11304 6.15181 6.00861 6.40814C5.90892 6.66447 5.85908 7.06558 5.85908 7.61146Z" fill="#FF6F00"/>
</svg>
