<svg width="40" height="41" viewBox="0 0 40 41" fill="none" xmlns="http://www.w3.org/2000/svg">
<path fill-rule="evenodd" clip-rule="evenodd" d="M12.4345 24.334C12.5434 24.2252 12.4936 24.0393 12.3449 23.9994L3.33066 21.5841C3.18195 21.5442 3.04586 21.6803 3.08571 21.829L5.50106 30.8432C5.54091 30.9919 5.7268 31.0417 5.83566 30.9329L12.4345 24.334ZM6.10835 29.246L10.7476 24.6067L4.41027 22.9086L6.10835 29.246Z" fill="#009688"/>
<path fill-rule="evenodd" clip-rule="evenodd" d="M7.89783 22.7056C8.40729 21.7816 9.08701 20.9596 9.90322 20.2842C10.7194 19.6087 11.6541 19.0948 12.6571 18.7672C12.7425 18.7393 12.8284 18.7128 12.9148 18.6876C12.9289 18.6835 12.9427 18.6788 12.9562 18.6735C13.1713 18.5893 13.3019 18.3618 13.2484 18.1334C13.1916 17.8906 12.9483 17.7388 12.7086 17.8073C12.6931 17.8118 12.6776 17.8163 12.6621 17.8208C12.5638 17.8494 12.4661 17.8796 12.369 17.9115C11.2613 18.2743 10.2292 18.8424 9.32758 19.5885C8.42595 20.3346 7.67475 21.2422 7.1111 22.2624C7.06167 22.3519 7.01368 22.4422 6.96716 22.5334C6.95982 22.5478 6.95252 22.5622 6.94526 22.5766C6.83309 22.7992 6.93669 23.0666 7.16453 23.1679C7.37893 23.2632 7.62685 23.1774 7.74979 22.9819C7.75751 22.9696 7.76473 22.9569 7.77142 22.9438C7.8123 22.8637 7.85445 22.7843 7.89783 22.7056Z" fill="#009688"/>
<path fill-rule="evenodd" clip-rule="evenodd" d="M35 33.5H8.00003C7.44775 33.5 7.00003 33.9477 7.00003 34.5C7.00003 35.0523 7.44775 35.5 8.00003 35.5H35C35.5523 35.5 36 35.0523 36 34.5C36 33.9477 35.5523 33.5 35 33.5ZM8.00003 32.5C6.89546 32.5 6.00003 33.3954 6.00003 34.5C6.00003 35.6046 6.89546 36.5 8.00003 36.5H35C36.1046 36.5 37 35.6046 37 34.5C37 33.3954 36.1046 32.5 35 32.5H8.00003Z" fill="#262E30"/>
<path fill-rule="evenodd" clip-rule="evenodd" d="M37.0992 10.281L19.7822 5.36967L14.8709 22.6867L32.1879 27.598L37.0992 10.281ZM19.093 4.13477L13.636 23.3759L32.8772 28.8329L38.3342 9.59176L19.093 4.13477Z" fill="#009688"/>
<path d="M4.22763 10.6035L3.31064 14.1074H2.40536L3.73837 9.8418H4.3038L4.22763 10.6035ZM4.95126 14.1074L4.02841 10.6035L3.94345 9.8418H4.51767L5.8624 14.1074H4.95126ZM4.98349 12.5166V13.2285H3.05869V12.5166H4.98349Z" fill="#009688"/>
<path d="M8.1329 9.8418H8.98837V12.7715C8.98837 13.0996 8.92783 13.3672 8.80673 13.5742C8.68759 13.7793 8.52255 13.9297 8.31161 14.0254C8.10068 14.1191 7.85947 14.166 7.58798 14.166C7.31454 14.166 7.07138 14.1191 6.85849 14.0254C6.6456 13.9297 6.47958 13.7793 6.36044 13.5742C6.24326 13.3672 6.18466 13.0996 6.18466 12.7715V9.8418H7.04013V12.7715C7.04013 12.957 7.06064 13.0996 7.10165 13.1992C7.14462 13.2988 7.20615 13.3672 7.28622 13.4043C7.36826 13.4395 7.46884 13.457 7.58798 13.457C7.70908 13.457 7.80869 13.4395 7.88681 13.4043C7.96689 13.3672 8.02744 13.2988 8.06845 13.1992C8.11142 13.0996 8.1329 12.957 8.1329 12.7715V9.8418Z" fill="#009688"/>
<path d="M11.3438 9.8418V14.1074H10.4913V9.8418H11.3438ZM12.4044 9.8418V10.5537H9.45126V9.8418H12.4044Z" fill="#009688"/>
<path d="M15.8175 11.6436V12.3555C15.8175 12.6562 15.7804 12.9199 15.7061 13.1465C15.6339 13.3711 15.5304 13.5596 15.3956 13.7119C15.2628 13.8623 15.1017 13.9756 14.9122 14.0518C14.7247 14.1279 14.5167 14.166 14.2882 14.166C14.0597 14.166 13.8507 14.1279 13.6612 14.0518C13.4737 13.9756 13.3116 13.8623 13.1749 13.7119C13.0401 13.5596 12.9356 13.3711 12.8614 13.1465C12.7872 12.9199 12.7501 12.6562 12.7501 12.3555V11.6436C12.7501 11.335 12.7862 11.0654 12.8585 10.835C12.9308 10.6025 13.0352 10.4092 13.172 10.2549C13.3087 10.0986 13.4708 9.98145 13.6583 9.90332C13.8458 9.82324 14.0538 9.7832 14.2823 9.7832C14.5108 9.7832 14.7188 9.82324 14.9063 9.90332C15.0938 9.98145 15.256 10.0986 15.3927 10.2549C15.5294 10.4092 15.6339 10.6025 15.7061 10.835C15.7804 11.0654 15.8175 11.335 15.8175 11.6436ZM14.9649 12.3555V11.6377C14.9649 11.4346 14.9503 11.2617 14.921 11.1191C14.8917 10.9746 14.8477 10.8564 14.7892 10.7646C14.7306 10.6729 14.6593 10.6055 14.5753 10.5625C14.4913 10.5195 14.3936 10.498 14.2823 10.498C14.171 10.498 14.0724 10.5195 13.9864 10.5625C13.9024 10.6055 13.8311 10.6729 13.7726 10.7646C13.7159 10.8564 13.6729 10.9746 13.6436 11.1191C13.6163 11.2617 13.6026 11.4346 13.6026 11.6377V12.3555C13.6026 12.5508 13.6173 12.7178 13.6466 12.8564C13.6759 12.9951 13.7198 13.1084 13.7784 13.1963C13.837 13.2842 13.9083 13.3496 13.9923 13.3926C14.0782 13.4336 14.1768 13.4541 14.2882 13.4541C14.3976 13.4541 14.4942 13.4336 14.5782 13.3926C14.6642 13.3496 14.7354 13.2842 14.7921 13.1963C14.8487 13.1084 14.8917 12.9951 14.921 12.8564C14.9503 12.7178 14.9649 12.5508 14.9649 12.3555Z" fill="#009688"/>
</svg>
