<svg xmlns="http://www.w3.org/2000/svg" width="40" height="40" viewBox="0 0 40 40"><path d="M34.854,19.146l-4-4a.5.5,0,0,0-.708.708L33.293,19H28.5a.5.5,0,0,0,0,1h4.793l-3.147,3.146a.5.5,0,0,0,.708.708l4-4A.5.5,0,0,0,34.854,19.146Z" style="fill:#009688"/><path d="M19.854,4.146a.5.5,0,0,0-.708,0l-4,4a.5.5,0,0,0,.708.708L19,5.707V10.5a.5.5,0,0,0,1,0V5.707l3.146,3.147a.5.5,0,0,0,.708-.708Z" style="fill:#009688"/><path d="M23.146,30.146,20,33.293V28.5a.5.5,0,0,0-1,0v4.793l-3.146-3.147a.5.5,0,0,0-.708.708l4,4a.5.5,0,0,0,.708,0l4-4a.5.5,0,0,0-.708-.708Z" style="fill:#009688"/><path d="M10.5,19H5.707l3.147-3.146a.5.5,0,0,0-.708-.708l-4,4a.5.5,0,0,0,0,.708l4,4a.5.5,0,0,0,.708-.708L5.707,20H10.5a.5.5,0,0,0,0-1Z" style="fill:#009688"/><path d="M24.5,26h-10A1.5,1.5,0,0,1,13,24.5v-10A1.5,1.5,0,0,1,14.5,13h10A1.5,1.5,0,0,1,26,14.5v10A1.5,1.5,0,0,1,24.5,26Zm-10-12a.5.5,0,0,0-.5.5v10a.5.5,0,0,0,.5.5h10a.5.5,0,0,0,.5-.5v-10a.5.5,0,0,0-.5-.5Z" style="fill:#b6b6b6"/></svg>