<svg width="42" height="42" viewBox="0 0 42 42" fill="none" xmlns="http://www.w3.org/2000/svg">
<g clip-path="url(#clip0_5194_24091)">
<path d="M17.1815 3.83594L20.8787 7.57498C21.1604 7.85994 21.5445 8.02031 21.9453 8.02031H36.8285C37.1047 8.02031 37.3285 8.24417 37.3285 8.52031V35C37.3285 35.2761 37.1047 35.5 36.8285 35.5H5.17139C4.89525 35.5 4.67139 35.2761 4.67139 35V15.3583V7.52031V4.1875C4.67139 3.91136 4.89524 3.6875 5.17139 3.6875H16.826C16.9595 3.6875 17.0876 3.74095 17.1815 3.83594Z" stroke="#323A3D" stroke-miterlimit="10" stroke-linejoin="round"/>
<path d="M29.5408 20.6205C29.5408 20.3444 29.317 20.1205 29.0408 20.1205H22.9335V13.7266C22.9335 13.594 22.8808 13.4668 22.787 13.373C22.6933 13.2792 22.5661 13.2266 22.4335 13.2266H19.9444C19.6683 13.2266 19.4444 13.4504 19.4444 13.7266V20.1205H13.6111C13.3349 20.1205 13.1111 20.3444 13.1111 20.6205V23.2404C13.1111 23.5165 13.3349 23.7404 13.6111 23.7404H19.4444V29.9347C19.4444 30.2108 19.6683 30.4347 19.9444 30.4347H22.4335C22.7096 30.4347 22.9335 30.2108 22.9335 29.9347V23.7404H29.0408C29.317 23.7404 29.5408 23.5165 29.5408 23.2404V20.6205Z" fill="#B9C7CE" stroke="#323A3D" stroke-miterlimit="10" stroke-linejoin="round"/>
</g>
<defs>
<clipPath id="clip0_5194_24091">
<rect width="38" height="35" fill="white" transform="translate(2 1)"/>
</clipPath>
</defs>
</svg>
