<svg width="14" height="14" viewBox="0 0 14 14" fill="none" xmlns="http://www.w3.org/2000/svg">
<path fill-rule="evenodd" clip-rule="evenodd" d="M10.2937 5.63794C9.71589 3.81838 8.01293 2.5 6.00204 2.5C3.51563 2.5 1.5 4.51563 1.5 7.00204C1.5 9.24293 3.13722 11.1014 5.28073 11.4466C5.38062 11.4627 5.4564 11.5475 5.4564 11.6486V12.7608C5.4564 12.8783 5.35522 12.9708 5.23861 12.956C2.28425 12.581 0 10.0583 0 7.00204C0 3.68721 2.68721 1 6.00204 1C8.84765 1 11.2307 2.98029 11.8484 5.63794H13.3662C13.5275 5.63794 13.6225 5.8192 13.5306 5.95184L11.0772 9.49295C10.9977 9.60775 10.8279 9.60775 10.7484 9.49295L8.29505 5.95184C8.20315 5.8192 8.29808 5.63794 8.45945 5.63794H10.2937Z" fill="#FF6F00"/>
</svg>
