<svg width="20" height="20" viewBox="0 0 20 20" fill="none" xmlns="http://www.w3.org/2000/svg">
<path fill-rule="evenodd" clip-rule="evenodd" d="M10 17.3707C14.0707 17.3707 17.3707 14.0707 17.3707 10C17.3707 5.92935 14.0707 2.62939 10 2.62939C5.92935 2.62939 2.62939 5.92935 2.62939 10C2.62939 14.0707 5.92935 17.3707 10 17.3707ZM10 18.3707C14.623 18.3707 18.3707 14.623 18.3707 10C18.3707 5.37706 14.623 1.62939 10 1.62939C5.37706 1.62939 1.62939 5.37706 1.62939 10C1.62939 14.623 5.37706 18.3707 10 18.3707Z" fill="#B6B6B6"/>
<path fill-rule="evenodd" clip-rule="evenodd" d="M8.93664 7.212C9.28438 7.19745 9.6393 7.18994 9.99983 7.18994C10.3604 7.18994 10.7153 7.19745 11.063 7.212L11.0212 8.21113C10.6875 8.19716 10.3465 8.18994 9.99983 8.18994C9.65316 8.18994 9.31218 8.19716 8.97845 8.21113L8.93664 7.212ZM13.1859 7.39813C13.9585 7.50435 14.6701 7.64869 15.2947 7.8252L15.0227 8.78751C14.4502 8.62572 13.7849 8.48989 13.0497 8.38881L13.1859 7.39813ZM4.705 7.8252C5.3296 7.64869 6.04112 7.50435 6.81379 7.39813L6.94998 8.38881C6.21471 8.48989 5.54949 8.62572 4.97695 8.78751L4.705 7.8252ZM17.3577 8.75143C17.7555 9.05657 18.0861 9.47352 18.0861 10.0003C18.0861 10.527 17.7555 10.944 17.3577 11.2491L16.7491 10.4557C17.0388 10.2335 17.0861 10.0754 17.0861 10.0003C17.0861 9.92514 17.0388 9.76707 16.7491 9.54488L17.3577 8.75143ZM1.91357 10.0003C1.91357 9.47352 2.24413 9.05657 2.64193 8.75143L3.25057 9.54488C2.9609 9.76707 2.91357 9.92514 2.91357 10.0003C2.91357 10.0754 2.9609 10.2335 3.25057 10.4557L2.64194 11.2491C2.24413 10.944 1.91357 10.527 1.91357 10.0003ZM15.2947 12.1754C14.6701 12.3519 13.9585 12.4962 13.1859 12.6024L13.0497 11.6117C13.7849 11.5107 14.4502 11.3748 15.0227 11.213L15.2947 12.1754ZM6.81379 12.6024C6.04112 12.4962 5.3296 12.3519 4.70501 12.1754L4.97695 11.213C5.54949 11.3748 6.21471 11.5107 6.94998 11.6117L6.81379 12.6024ZM9.99983 12.8106C9.6393 12.8106 9.28438 12.8031 8.93664 12.7885L8.97845 11.7894C9.31218 11.8034 9.65316 11.8106 9.99983 11.8106C10.3465 11.8106 10.6875 11.8034 11.0212 11.7894L11.063 12.7885C10.7153 12.8031 10.3604 12.8106 9.99983 12.8106Z" fill="#B6B6B6"/>
<path fill-rule="evenodd" clip-rule="evenodd" d="M4.7812 11.1544C6.09496 11.5545 7.94014 11.8094 9.99983 11.8094C12.0595 11.8094 13.9047 11.5545 15.2185 11.1544C15.8784 10.9534 16.3761 10.7241 16.6978 10.4925C17.0312 10.2525 17.0861 10.079 17.0861 9.99902H18.0861C18.0861 10.557 17.7165 10.9913 17.2821 11.3041C16.8359 11.6253 16.2226 11.8939 15.5098 12.111C14.0779 12.5471 12.1299 12.8094 9.99983 12.8094C7.86974 12.8094 5.9218 12.5471 4.48987 12.111C3.77702 11.8939 3.16372 11.6253 2.71758 11.3041C2.2832 10.9913 1.91357 10.557 1.91357 9.99902H2.91357C2.91357 10.079 2.96851 10.2525 3.3019 10.4925C3.62353 10.7241 4.12121 10.9534 4.7812 11.1544Z" fill="#B6B6B6"/>
</svg>
