<svg width="40" height="41" viewBox="0 0 40 41" fill="none" xmlns="http://www.w3.org/2000/svg">
<path fill-rule="evenodd" clip-rule="evenodd" d="M14.5713 4.14955C14.6653 4.05389 14.7938 4 14.9279 4H35.8208C36.0223 4 36.204 4.12088 36.2819 4.30664C36.3598 4.49241 36.3186 4.70677 36.1775 4.85045L26.2495 14.9534C26.1555 15.0491 26.027 15.103 25.8929 15.103H5.00001C4.79858 15.103 4.61681 14.9821 4.53891 14.7963C4.46102 14.6106 4.5022 14.3962 4.64338 14.2525L14.5713 4.14955ZM15.1376 5L6.19236 14.103H25.6832L34.6285 5H15.1376Z" fill="#262E30"/>
<path fill-rule="evenodd" clip-rule="evenodd" d="M36.0101 4.03724C36.198 4.11412 36.3208 4.29699 36.3208 4.50002V25.7984C36.3208 25.9295 36.2693 26.0553 36.1774 26.1488L26.2495 36.2518C26.1071 36.3966 25.8914 36.441 25.7035 36.3641C25.5156 36.2873 25.3928 36.1044 25.3928 35.9014V14.603C25.3928 14.4719 25.4443 14.346 25.5362 14.2525L35.4641 4.14956C35.6064 4.00475 35.8222 3.96037 36.0101 4.03724ZM26.3928 14.8075V34.6792L35.3208 25.5938V5.7222L26.3928 14.8075Z" fill="#262E30"/>
<path fill-rule="evenodd" clip-rule="evenodd" d="M14.5713 4.14955C14.6653 4.05389 14.7938 4 14.9279 4H35.8208C36.0223 4 36.204 4.12088 36.2819 4.30664C36.3598 4.49241 36.3186 4.70677 36.1775 4.85045L26.2495 14.9534C26.1555 15.0491 26.027 15.103 25.8929 15.103H5.00001C4.79858 15.103 4.61681 14.9821 4.53891 14.7963C4.46102 14.6106 4.5022 14.3962 4.64338 14.2525L14.5713 4.14955ZM15.1376 5L6.19236 14.103H25.6832L34.6285 5H15.1376Z" fill="#262E30"/>
<path fill-rule="evenodd" clip-rule="evenodd" d="M4.5 14.6035C4.5 14.3274 4.72386 14.1035 5 14.1035H25.8929C26.169 14.1035 26.3929 14.3274 26.3929 14.6035V35.8648C26.3929 36.1409 26.169 36.3648 25.8929 36.3648H5C4.72386 36.3648 4.5 36.1409 4.5 35.8648V14.6035ZM5.5 15.1035V35.3648H25.3929V15.1035H5.5Z" fill="#00AE42"/>
<path fill-rule="evenodd" clip-rule="evenodd" d="M9.8501 14.7305C10.1262 14.7305 10.3501 14.9543 10.3501 15.2305V15.8212H9.3501V15.2305C9.3501 14.9543 9.57396 14.7305 9.8501 14.7305ZM9.3501 17.5935V17.0028H10.3501V17.5935H10.2304V18.0935H9.8501C9.57396 18.0935 9.3501 17.8697 9.3501 17.5935ZM11.7516 18.0935H10.991V17.0935H11.7516V18.0935ZM12.5122 17.5935H12.3925V18.1892H13.3925V17.5935C13.3925 17.3174 13.1686 17.0935 12.8925 17.0935H12.5122V17.5935ZM12.3925 20.5718V19.3805H13.3925V20.5718H12.3925ZM12.3925 22.3588V21.7631H13.3925V22.1544L13.6782 22.4455L12.9645 23.146L12.5356 22.709C12.4439 22.6155 12.3925 22.4898 12.3925 22.3588ZM14.108 24.3111L13.8222 24.0199L14.5359 23.3195L14.9648 23.7565C15.0566 23.85 15.108 23.9757 15.108 24.1067V24.6516H14.108V24.3111ZM14.108 26.831V25.7413H15.108V26.831H14.108ZM14.108 28.4656V27.9207H15.108V28.261L15.2912 28.4475L14.5779 29.1484L14.2513 28.816C14.1594 28.7225 14.108 28.5967 14.108 28.4656ZM15.8844 30.4779L15.2312 29.8131L15.9444 29.1122L16.5977 29.777L15.8844 30.4779ZM16.7209 31.3291L16.5377 31.1427L17.2509 30.4418L17.5775 30.7741C17.6694 30.8676 17.7209 30.9935 17.7209 31.1246V31.6521H16.7209V31.3291ZM16.7209 33.7622V32.7071H17.7209V33.7622H16.7209ZM16.7209 35.3448V34.8172H17.7209V35.3448C17.7209 35.6209 17.4971 35.8448 17.2209 35.8448C16.9448 35.8448 16.7209 35.6209 16.7209 35.3448Z" fill="#00AE42"/>
</svg>
