<svg width="40" height="40" viewBox="0 0 40 40" fill="none" xmlns="http://www.w3.org/2000/svg">
<path d="M35.5919 34.1885V35.5924H34.188" stroke="#323A3D" stroke-miterlimit="10"/>
<path d="M35.5919 34.1885V35.5924H34.188" stroke="black" stroke-opacity="0.2" stroke-miterlimit="10"/>
<path d="M31.5681 35.5928H6.71094" stroke="#323A3D" stroke-miterlimit="10" stroke-dasharray="2.84 2.84"/>
<path d="M31.5681 35.5928H6.71094" stroke="black" stroke-opacity="0.2" stroke-miterlimit="10" stroke-dasharray="2.84 2.84"/>
<path d="M5.40393 35.5924H4V34.1885" stroke="#323A3D" stroke-miterlimit="10"/>
<path d="M5.40393 35.5924H4V34.1885" stroke="black" stroke-opacity="0.2" stroke-miterlimit="10"/>
<path d="M4 31.5743V6.71191" stroke="#323A3D" stroke-miterlimit="10" stroke-dasharray="2.84 2.84"/>
<path d="M4 31.5743V6.71191" stroke="black" stroke-opacity="0.2" stroke-miterlimit="10" stroke-dasharray="2.84 2.84"/>
<path d="M4.00024 5.40592V4.00195H5.40425" stroke="#323A3D" stroke-miterlimit="10"/>
<path d="M4.00024 5.40592V4.00195H5.40425" stroke="black" stroke-opacity="0.2" stroke-miterlimit="10"/>
<path d="M8.01807 4H32.8806" stroke="#323A3D" stroke-miterlimit="10" stroke-dasharray="2.84 2.84"/>
<path d="M8.01807 4H32.8806" stroke="black" stroke-opacity="0.2" stroke-miterlimit="10" stroke-dasharray="2.84 2.84"/>
<path d="M34.188 4H35.5919V5.40396" stroke="#323A3D" stroke-miterlimit="10"/>
<path d="M34.188 4H35.5919V5.40396" stroke="black" stroke-opacity="0.2" stroke-miterlimit="10"/>
<path d="M35.5913 8.02539V32.8824" stroke="#323A3D" stroke-miterlimit="10" stroke-dasharray="2.84 2.84"/>
<path d="M35.5913 8.02539V32.8824" stroke="black" stroke-opacity="0.2" stroke-miterlimit="10" stroke-dasharray="2.84 2.84"/>
<path d="M30.815 15.4358C30.9979 15.6187 31.1485 15.5542 31.1485 15.3013V9.20138C31.1485 8.94318 30.9387 8.7334 30.6805 8.7334H24.5805C24.3223 8.7334 24.2631 8.88401 24.446 9.0669L26.474 11.0948C26.6569 11.2777 26.6569 11.5736 26.474 11.7565L22.8 15.4304C22.6171 15.6133 22.6171 15.9092 22.8 16.0921L23.7952 17.0872C23.978 17.2701 24.2739 17.2701 24.4568 17.0872L28.1308 13.4133C28.3137 13.2304 28.6095 13.2304 28.7924 13.4133L30.815 15.4358Z" stroke="#323A3D" stroke-miterlimit="10"/>
<path d="M30.815 15.4358C30.9979 15.6187 31.1485 15.5542 31.1485 15.3013V9.20138C31.1485 8.94318 30.9387 8.7334 30.6805 8.7334H24.5805C24.3223 8.7334 24.2631 8.88401 24.446 9.0669L26.474 11.0948C26.6569 11.2777 26.6569 11.5736 26.474 11.7565L22.8 15.4304C22.6171 15.6133 22.6171 15.9092 22.8 16.0921L23.7952 17.0872C23.978 17.2701 24.2739 17.2701 24.4568 17.0872L28.1308 13.4133C28.3137 13.2304 28.6095 13.2304 28.7924 13.4133L30.815 15.4358Z" stroke="black" stroke-opacity="0.2" stroke-miterlimit="10"/>
<path d="M21.3156 18.2773H4V35.5928H21.3156V18.2773Z" fill="#B9C7CE"/>
<path d="M21.3156 18.2773H4V35.5928H21.3156V18.2773Z" stroke="#323A3D" stroke-miterlimit="10"/>
<path d="M21.3156 18.2773H4V35.5928H21.3156V18.2773Z" stroke="black" stroke-opacity="0.2" stroke-miterlimit="10"/>
</svg>
