<svg xmlns="http://www.w3.org/2000/svg" width="40" height="40" viewBox="0 0 40 40"><path d="M33.5,4H5.5A1.5,1.5,0,0,0,4,5.5v28A1.5,1.5,0,0,0,5.5,35h16a.5.5,0,0,0,0-1H5.5a.5.5,0,0,1-.5-.5V5.5A.5.5,0,0,1,5.5,5h28a.5.5,0,0,1,.5.5v16a.5.5,0,0,0,1,0V5.5A1.5,1.5,0,0,0,33.5,4Z" style="fill:#2b3436"/><path d="M32.5,13a.5.5,0,0,0,0-1H27V6.5a.5.5,0,0,0-1,0V12H20V6.5a.5.5,0,0,0-1,0V12H13V6.5a.5.5,0,0,0-1,0V12H6.5a.5.5,0,0,0,0,1H12v6H6.5a.5.5,0,0,0,0,1H12v6H6.5a.5.5,0,0,0,0,1H12v5.5a.5.5,0,0,0,1,0V27h6v5.5a.5.5,0,0,0,1,0V27h1.5a.5.5,0,0,0,0-1H20V20h6v1.5a.5.5,0,0,0,1,0V20h5.5a.5.5,0,0,0,0-1H27V13ZM13,13h6v6H13Zm6,13H13V20h6Zm7-7H20V13h6Z" style="fill:#2b3436"/><path d="M33.5,24h-8A1.5,1.5,0,0,0,24,25.5v8A1.5,1.5,0,0,0,25.5,35h8A1.5,1.5,0,0,0,35,33.5v-8A1.5,1.5,0,0,0,33.5,24Zm.5,9.5a.5.5,0,0,1-.5.5h-8a.5.5,0,0,1-.5-.5v-8a.5.5,0,0,1,.5-.5h8a.5.5,0,0,1,.5.5Z" style="fill:#009688"/><path d="M32.5,29H30V26.5a.5.5,0,0,0-1,0V29H26.5a.5.5,0,0,0,0,1H29v2.5a.5.5,0,0,0,1,0V30h2.5a.5.5,0,0,0,0-1Z" style="fill:#009688"/></svg>