<svg width="40" height="41" viewBox="0 0 40 41" fill="none" xmlns="http://www.w3.org/2000/svg">
<path fill-rule="evenodd" clip-rule="evenodd" d="M32 10.5488H3V9.54883H32V10.5488Z" fill="#262E30"/>
<path fill-rule="evenodd" clip-rule="evenodd" d="M32 16.6914H3V15.6914H32V16.6914Z" fill="#262E30"/>
<path fill-rule="evenodd" clip-rule="evenodd" d="M25.7426 23.0332H3V22.0332H25.7426V23.0332Z" fill="#262E30"/>
<path fill-rule="evenodd" clip-rule="evenodd" d="M21.1312 29.1777L3.00001 29.1785L2.99997 28.1785L21.1312 28.1777L21.1312 29.1777Z" fill="#262E30"/>
<path fill-rule="evenodd" clip-rule="evenodd" d="M27.0447 21.7156L27.0447 4.5L28.0447 4.5L28.0447 21.7156L27.0447 21.7156Z" fill="#262E30"/>
<path fill-rule="evenodd" clip-rule="evenodd" d="M21.1063 33.5L21.1063 4.5L22.1063 4.5L22.1063 33.5L21.1063 33.5Z" fill="#262E30"/>
<path fill-rule="evenodd" clip-rule="evenodd" d="M14.9678 33.5L14.9678 4.5L15.9678 4.5L15.9678 33.5L14.9678 33.5Z" fill="#262E30"/>
<path fill-rule="evenodd" clip-rule="evenodd" d="M8.82934 33.5L8.82935 4.5L9.82935 4.5L9.82934 33.5L8.82934 33.5Z" fill="#262E30"/>
<path fill-rule="evenodd" clip-rule="evenodd" d="M2.5 4.5C2.5 4.22386 2.72386 4 3 4H32C32.2761 4 32.5 4.22386 32.5 4.5V21.4086C32.5 21.6847 32.2761 21.9086 32 21.9086C31.7239 21.9086 31.5 21.6847 31.5 21.4086V5H3.5V33H23.5196C23.7958 33 24.0196 33.2239 24.0196 33.5C24.0196 33.7761 23.7958 34 23.5196 34H3C2.72386 34 2.5 33.7761 2.5 33.5V4.5Z" fill="#2B3436"/>
<path fill-rule="evenodd" clip-rule="evenodd" d="M29.594 22C25.7846 22 22.688 25.1204 22.688 28.9801C22.688 32.8398 25.7846 35.9602 29.594 35.9602C33.4034 35.9602 36.5 32.8398 36.5 28.9801C36.5 25.1204 33.4034 22 29.594 22ZM21.688 28.9801C21.688 24.5775 25.223 21 29.594 21C33.965 21 37.5 24.5775 37.5 28.9801C37.5 33.3826 33.965 36.9602 29.594 36.9602C25.2229 36.9602 21.688 33.3826 21.688 28.9801Z" fill="#00AE42"/>
<path fill-rule="evenodd" clip-rule="evenodd" d="M24.011 28.9805C24.011 28.7043 24.2348 28.4805 24.511 28.4805H34.6719C34.948 28.4805 35.1719 28.7043 35.1719 28.9805C35.1719 29.2566 34.948 29.4805 34.6719 29.4805H24.511C24.2348 29.4805 24.011 29.2566 24.011 28.9805Z" fill="#00AE42"/>
<path fill-rule="evenodd" clip-rule="evenodd" d="M29.5938 23.3438C29.8699 23.3438 30.0938 23.5676 30.0938 23.8438V34.1116C30.0938 34.3877 29.8699 34.6116 29.5938 34.6116C29.3176 34.6116 29.0938 34.3877 29.0938 34.1116V23.8438C29.0938 23.5676 29.3176 23.3438 29.5938 23.3438Z" fill="#00AE42"/>
</svg>
