<svg xmlns="http://www.w3.org/2000/svg" viewBox="0 0 30 20"><path d="M18.59,1,20,2.41V18a1,1,0,0,1-1,1H2a1,1,0,0,1-1-1V2.41L2.41,1H18.59M19,0H2L0,2V18a2,2,0,0,0,2,2H19a2,2,0,0,0,2-2V2L19,0Z" style="fill:#009688"/><path d="M16.5,1a.51.51,0,0,1,.5.5v14a.51.51,0,0,1-.5.5H4.5a.51.51,0,0,1-.5-.5V1.5A.51.51,0,0,1,4.5,1h12m0-1H4.5A1.5,1.5,0,0,0,3,1.5v14A1.5,1.5,0,0,0,4.5,17h12A1.5,1.5,0,0,0,18,15.5V1.5A1.5,1.5,0,0,0,16.5,0Z" style="fill:#009688"/><line x1="1.5" y1="18.5" x2="3.5" y2="16.5" style="fill:none;stroke:#009688;stroke-linecap:round;stroke-linejoin:round"/><line x1="17.5" y1="16.5" x2="19.5" y2="18.5" style="fill:none;stroke:#009688;stroke-linecap:round;stroke-linejoin:round"/><path d="M7.5,5.5a3,3,0,0,1,6,0c0,3-3,3-3,5" style="fill:none;stroke:#009688;stroke-linecap:round;stroke-linejoin:round"/><line x1="10.5" y1="12.5" x2="10.5" y2="13.5" style="fill:none;stroke:#009688;stroke-linecap:round;stroke-linejoin:round"/></svg>