<svg width="40" height="40" viewBox="0 0 40 40" fill="none" xmlns="http://www.w3.org/2000/svg">
<rect x="7.80615" y="25.5195" width="29" height="9.19336" stroke="#262E30"/>
<rect x="19.1368" y="5.45404" width="15" height="6.00417" transform="rotate(25.5934 19.1368 5.45404)" stroke="#262E30"/>
<rect x="14.8062" y="18.5156" width="15" height="6.00417" stroke="#262E30" stroke-dasharray="1 1"/>
<path fill-rule="evenodd" clip-rule="evenodd" d="M13.4877 17.5905C13.5899 17.4883 13.5432 17.3137 13.4035 17.2762L4.93754 15.0078C4.79787 14.9704 4.67006 15.0982 4.70749 15.2378L6.97593 23.7038C7.01336 23.8435 7.18794 23.8902 7.29019 23.788L13.4877 17.5905ZM7.54629 22.2037L11.9034 17.8466L5.95148 16.2518L7.54629 22.2037Z" fill="#262E30"/>
<path fill-rule="evenodd" clip-rule="evenodd" d="M9.22678 16.0611C9.70526 15.1933 10.3436 14.4213 11.1102 13.787C11.8768 13.1526 12.7546 12.6699 13.6966 12.3623C13.7768 12.3361 13.8575 12.3112 13.9386 12.2875C13.9519 12.2837 13.9648 12.2792 13.9775 12.2743C14.1795 12.1952 14.3022 11.9815 14.252 11.767C14.1986 11.539 13.9701 11.3964 13.745 11.4608C13.7304 11.4649 13.7158 11.4692 13.7013 11.4734C13.609 11.5003 13.5172 11.5287 13.426 11.5586C12.3857 11.8993 11.4164 12.4329 10.5696 13.1336C9.72279 13.8344 9.01727 14.6868 8.4879 15.6449C8.44147 15.7289 8.3964 15.8138 8.35271 15.8994C8.34582 15.9129 8.33897 15.9264 8.33215 15.94C8.22679 16.1491 8.3241 16.4002 8.53808 16.4953C8.73944 16.5848 8.97228 16.5042 9.08775 16.3206C9.09499 16.3091 9.10177 16.2972 9.10806 16.2848C9.14646 16.2096 9.18604 16.135 9.22678 16.0611Z" fill="#262E30"/>
</svg>
