<svg xmlns="http://www.w3.org/2000/svg" width="30" height="22" viewBox="0 0 30 22"><rect x="4.5" y="1.5" width="14" height="16" rx="2" style="fill:none;stroke:#009688;stroke-miterlimit:10"/><line x1="2.5" y1="19.5" x2="4.5" y2="17.5" style="fill:none;stroke:#009688;stroke-linecap:round;stroke-linejoin:round"/><line x1="18.5" y1="17.5" x2="20.5" y2="19.5" style="fill:none;stroke:#009688;stroke-linecap:round;stroke-linejoin:round"/><path d="M11.5,11.5v-1h1a2,2,0,0,0,2-2v-2a2,2,0,0,0-2-2h-2a2,2,0,0,0-2,2v1" style="fill:none;stroke:#009688;stroke-linecap:round;stroke-linejoin:round"/><line x1="11.5" y1="13.5" x2="11.5" y2="14.5" style="fill:none;stroke:#009688;stroke-linecap:square;stroke-linejoin:round"/><path d="M17.5,1.5l3.447,1.724a1,1,0,0,1,.553.894V18.5a2,2,0,0,1-2,2H3.5a2,2,0,0,1-2-2V4.118a1,1,0,0,1,.553-.894L5.5,1.5" style="fill:none;stroke:#009688;stroke-linecap:round;stroke-linejoin:round"/></svg>