<svg xmlns="http://www.w3.org/2000/svg" width="30" height="22" viewBox="0 0 30 22"><rect x="4.5" y="3.5" width="14" height="16" rx="2" style="fill:none;stroke:#009688;stroke-miterlimit:10"/><line x1="2.5" y1="19.5" x2="4.5" y2="17.5" style="fill:none;stroke:#009688;stroke-linecap:round;stroke-linejoin:round"/><line x1="18.5" y1="17.5" x2="20.5" y2="19.5" style="fill:none;stroke:#009688;stroke-linecap:round;stroke-linejoin:round"/><line x1="1.5" y1="5.5" x2="4.5" y2="4.5" style="fill:none;stroke:#009688;stroke-linecap:round;stroke-linejoin:round"/><line x1="18.5" y1="4.5" x2="21.5" y2="5.5" style="fill:none;stroke:#009688;stroke-linecap:round;stroke-linejoin:round"/><path d="M11.5,13.5v-1h1a2,2,0,0,0,2-2v-2a2,2,0,0,0-2-2h-2a2,2,0,0,0-2,2v1" style="fill:none;stroke:#009688;stroke-linecap:round;stroke-linejoin:round"/><line x1="11.5" y1="15.5" x2="11.5" y2="16.5" style="fill:none;stroke:#009688;stroke-linecap:square;stroke-linejoin:round"/><path d="M4.5,2.5h14a3,3,0,0,1,3,3v13a2,2,0,0,1-2,2H3.5a2,2,0,0,1-2-2V5.5A3,3,0,0,1,4.5,2.5Z" style="fill:none;stroke:#009688;stroke-linecap:round;stroke-linejoin:round"/></svg>