<svg width="40" height="40" viewBox="0 0 40 40" fill="none" xmlns="http://www.w3.org/2000/svg">
<path d="M25.8929 14.1035H5V35.3648H25.8929V14.1035Z" fill="#B9C7CE"/>
<path d="M25.8929 14.1035H5V35.3648H25.8929V14.1035Z" stroke="#323A3D" stroke-miterlimit="10" stroke-linejoin="round"/>
<path d="M25.8929 14.1035H5V35.3648H25.8929V14.1035Z" stroke="black" stroke-opacity="0.2" stroke-miterlimit="10" stroke-linejoin="round"/>
<path d="M25.8929 14.103H5L14.9279 4H35.8208L25.8929 14.103Z" stroke="#323A3D" stroke-miterlimit="10" stroke-linecap="round" stroke-linejoin="round"/>
<path d="M25.8929 14.103H5L14.9279 4H35.8208L25.8929 14.103Z" stroke="black" stroke-opacity="0.2" stroke-miterlimit="10" stroke-linecap="round" stroke-linejoin="round"/>
<path d="M35.8208 25.2984L25.8928 35.4013V14.103L35.8208 4V25.2984Z" stroke="#323A3D" stroke-miterlimit="10" stroke-linecap="round" stroke-linejoin="round"/>
<path d="M35.8208 25.2984L25.8928 35.4013V14.103L35.8208 4V25.2984Z" stroke="black" stroke-opacity="0.2" stroke-miterlimit="10" stroke-linecap="round" stroke-linejoin="round"/>
<path d="M25.8929 14.103H5L14.9279 4H35.8208L25.8929 14.103Z" stroke="#323A3D" stroke-miterlimit="10" stroke-linecap="round" stroke-linejoin="round"/>
<path d="M25.8929 14.103H5L14.9279 4H35.8208L25.8929 14.103Z" stroke="black" stroke-opacity="0.2" stroke-miterlimit="10" stroke-linecap="round" stroke-linejoin="round"/>
<path d="M10.3501 14.7295C10.3501 14.4533 10.1262 14.2295 9.8501 14.2295C9.57396 14.2295 9.3501 14.4533 9.3501 14.7295H10.3501ZM9.8501 17.0925H9.3501C9.3501 17.3687 9.57396 17.5925 9.8501 17.5925V17.0925ZM12.8925 17.0925H13.3925C13.3925 16.8164 13.1686 16.5925 12.8925 16.5925V17.0925ZM12.8925 21.8578H12.3925C12.3925 21.9888 12.4439 22.1145 12.5356 22.208L12.8925 21.8578ZM14.608 23.6057H15.108C15.108 23.4747 15.0566 23.349 14.9648 23.2555L14.608 23.6057ZM14.608 27.9646H14.108C14.108 28.0957 14.1594 28.2215 14.2513 28.315L14.608 27.9646ZM17.2209 30.6236H17.7209C17.7209 30.4925 17.6694 30.3667 17.5775 30.2732L17.2209 30.6236ZM16.7209 34.8438C16.7209 35.1199 16.9448 35.3438 17.2209 35.3438C17.4971 35.3438 17.7209 35.1199 17.7209 34.8438H16.7209ZM9.3501 14.7295V15.3203H10.3501V14.7295H9.3501ZM9.3501 16.5018V17.0925H10.3501V16.5018H9.3501ZM9.8501 17.5925H10.2304V16.5925H9.8501V17.5925ZM10.991 17.5925H11.7516V16.5925H10.991V17.5925ZM12.5122 17.5925H12.8925V16.5925H12.5122V17.5925ZM12.3925 17.0925V17.6882H13.3925V17.0925H12.3925ZM12.3925 18.8795V20.0708H13.3925V18.8795H12.3925ZM12.3925 21.2621V21.8578H13.3925V21.2621H12.3925ZM12.5356 22.208L12.9645 22.645L13.6782 21.9446L13.2493 21.5076L12.5356 22.208ZM13.8222 23.519L14.2511 23.9559L14.9648 23.2555L14.5359 22.8185L13.8222 23.519ZM14.108 23.6057V24.1506H15.108V23.6057H14.108ZM14.108 25.2403V26.33H15.108V25.2403H14.108ZM14.108 27.4197V27.9646H15.108V27.4197H14.108ZM14.2513 28.315L14.5779 28.6474L15.2912 27.9465L14.9646 27.6141L14.2513 28.315ZM15.2312 29.3122L15.8844 29.9769L16.5977 29.276L15.9444 28.6113L15.2312 29.3122ZM16.5377 30.6417L16.8643 30.9741L17.5775 30.2732L17.2509 29.9408L16.5377 30.6417ZM16.7209 30.6236V31.1511H17.7209V30.6236H16.7209ZM16.7209 32.2062V33.2612H17.7209V32.2062H16.7209ZM16.7209 34.3163V34.8438H17.7209V34.3163H16.7209Z" fill="#323A3D"/>
<path d="M10.3501 14.7295C10.3501 14.4533 10.1262 14.2295 9.8501 14.2295C9.57396 14.2295 9.3501 14.4533 9.3501 14.7295H10.3501ZM9.8501 17.0925H9.3501C9.3501 17.3687 9.57396 17.5925 9.8501 17.5925V17.0925ZM12.8925 17.0925H13.3925C13.3925 16.8164 13.1686 16.5925 12.8925 16.5925V17.0925ZM12.8925 21.8578H12.3925C12.3925 21.9888 12.4439 22.1145 12.5356 22.208L12.8925 21.8578ZM14.608 23.6057H15.108C15.108 23.4747 15.0566 23.349 14.9648 23.2555L14.608 23.6057ZM14.608 27.9646H14.108C14.108 28.0957 14.1594 28.2215 14.2513 28.315L14.608 27.9646ZM17.2209 30.6236H17.7209C17.7209 30.4925 17.6694 30.3667 17.5775 30.2732L17.2209 30.6236ZM16.7209 34.8438C16.7209 35.1199 16.9448 35.3438 17.2209 35.3438C17.4971 35.3438 17.7209 35.1199 17.7209 34.8438H16.7209ZM9.3501 14.7295V15.3203H10.3501V14.7295H9.3501ZM9.3501 16.5018V17.0925H10.3501V16.5018H9.3501ZM9.8501 17.5925H10.2304V16.5925H9.8501V17.5925ZM10.991 17.5925H11.7516V16.5925H10.991V17.5925ZM12.5122 17.5925H12.8925V16.5925H12.5122V17.5925ZM12.3925 17.0925V17.6882H13.3925V17.0925H12.3925ZM12.3925 18.8795V20.0708H13.3925V18.8795H12.3925ZM12.3925 21.2621V21.8578H13.3925V21.2621H12.3925ZM12.5356 22.208L12.9645 22.645L13.6782 21.9446L13.2493 21.5076L12.5356 22.208ZM13.8222 23.519L14.2511 23.9559L14.9648 23.2555L14.5359 22.8185L13.8222 23.519ZM14.108 23.6057V24.1506H15.108V23.6057H14.108ZM14.108 25.2403V26.33H15.108V25.2403H14.108ZM14.108 27.4197V27.9646H15.108V27.4197H14.108ZM14.2513 28.315L14.5779 28.6474L15.2912 27.9465L14.9646 27.6141L14.2513 28.315ZM15.2312 29.3122L15.8844 29.9769L16.5977 29.276L15.9444 28.6113L15.2312 29.3122ZM16.5377 30.6417L16.8643 30.9741L17.5775 30.2732L17.2509 29.9408L16.5377 30.6417ZM16.7209 30.6236V31.1511H17.7209V30.6236H16.7209ZM16.7209 32.2062V33.2612H17.7209V32.2062H16.7209ZM16.7209 34.3163V34.8438H17.7209V34.3163H16.7209Z" fill="black" fill-opacity="0.2"/>
</svg>
