<svg xmlns="http://www.w3.org/2000/svg" width="40" height="40" viewBox="0 0 40 40"><path d="M33.5,28H5.5A1.5,1.5,0,0,1,4,26.5v-3A1.5,1.5,0,0,1,5.5,22h28A1.5,1.5,0,0,1,35,23.5v3A1.5,1.5,0,0,1,33.5,28Zm-28-5a.5.5,0,0,0-.5.5v3a.5.5,0,0,0,.5.5h28a.5.5,0,0,0,.5-.5v-3a.5.5,0,0,0-.5-.5Zm28-3H5.5A1.5,1.5,0,0,1,4,18.5v-2A1.5,1.5,0,0,1,5.5,15h28A1.5,1.5,0,0,1,35,16.5v2A1.5,1.5,0,0,1,33.5,20Zm-28-4a.5.5,0,0,0-.5.5v2a.5.5,0,0,0,.5.5h28a.5.5,0,0,0,.5-.5v-2a.5.5,0,0,0-.5-.5Zm28-3H5.5A1.5,1.5,0,0,1,4,11.5v-1A1.5,1.5,0,0,1,5.5,9h28A1.5,1.5,0,0,1,35,10.5v1A1.5,1.5,0,0,1,33.5,13Zm-28-3a.5.5,0,0,0-.5.5v1a.5.5,0,0,0,.5.5h28a.5.5,0,0,0,.5-.5v-1a.5.5,0,0,0-.5-.5Z" style="fill:#009688"/><path d="M33.5,7H5.5a1.5,1.5,0,0,1,0-3h28a1.5,1.5,0,0,1,0,3ZM5.5,5a.5.5,0,0,0,0,1h28a.5.5,0,0,0,0-1Z" style="fill:#2b3436"/><path d="M33.5,35H5.5A1.5,1.5,0,0,1,4,33.5v-2A1.5,1.5,0,0,1,5.5,30h28A1.5,1.5,0,0,1,35,31.5v2A1.5,1.5,0,0,1,33.5,35Zm-28-4a.5.5,0,0,0-.5.5v2a.5.5,0,0,0,.5.5h28a.5.5,0,0,0,.5-.5v-2a.5.5,0,0,0-.5-.5Z" style="fill:#2b3436"/></svg>