<svg xmlns="http://www.w3.org/2000/svg" viewBox="0 0 40 40"><path d="M21.5,13h-2a.5.5,0,0,1,0-1h2a.5.5,0,0,1,0,1Zm.5,1.5a.5.5,0,0,0-.5-.5h-2a.5.5,0,0,0,0,1h2A.5.5,0,0,0,22,14.5Zm0,2a.5.5,0,0,0-.5-.5h-2a.5.5,0,0,0,0,1h2A.5.5,0,0,0,22,16.5Zm0,2a.5.5,0,0,0-.5-.5h-2a.5.5,0,0,0,0,1h2A.5.5,0,0,0,22,18.5Zm0,10a.5.5,0,0,0-.5-.5h-2a.5.5,0,0,0,0,1h2A.5.5,0,0,0,22,28.5Zm0,2a.5.5,0,0,0-.5-.5h-2a.5.5,0,0,0,0,1h2A.5.5,0,0,0,22,30.5Zm0,2a.5.5,0,0,0-.5-.5h-2a.5.5,0,0,0,0,1h2A.5.5,0,0,0,22,32.5Zm0,2a.5.5,0,0,0-.5-.5h-2a.5.5,0,0,0,0,1h2A.5.5,0,0,0,22,34.5Zm-8-19A4.5,4.5,0,1,0,9.5,20,4.51,4.51,0,0,0,14,15.5Zm-1,0A3.5,3.5,0,1,1,9.5,12,3.5,3.5,0,0,1,13,15.5Z" style="fill:#009688"/><path d="M28.5,11a.45.45,0,0,0,.16,0l6-2A.5.5,0,0,0,35,8.5v-1a.5.5,0,0,0-.5-.5H29V4.5a.5.5,0,0,0-.5-.5h-12a.45.45,0,0,0-.16,0l-12,4A.5.5,0,0,0,4,8.5v2a.5.5,0,0,0,.5.5H18v9H4.5a.5.5,0,0,0-.5.5v2a.5.5,0,0,0,.34.47l12,4a.45.45,0,0,0,.16,0H18v7.5a.5.5,0,0,0,1,0V27h7v7H24.5a.5.5,0,0,0,0,1h2a.5.5,0,0,0,.5-.5V27h1.5a.5.5,0,0,0,.5-.5V24h5.5a.5.5,0,0,0,.5-.5v-1a.5.5,0,0,0-.34-.47l-6-2a.45.45,0,0,0-.16,0H27V11ZM5,8.86,16.58,5H28V7.5a.5.5,0,0,0,.5.5H34v.14L28.42,10H5Zm29,14V23H28.5a.5.5,0,0,0-.5.5V26H16.58L5,22.14V21H28.42ZM26,20H19V11h7Z" style="fill:#b6b6b6"/></svg>