<svg xmlns="http://www.w3.org/2000/svg" viewBox="0 0 40 40"><path d="M34.92,10.25l0-.05a.45.45,0,0,0-.2-.16h0l-15-6a.5.5,0,0,0-.38,0l-15,6s0,0,0,0l0,0,0,0a.52.52,0,0,0-.1.11l0,0a.54.54,0,0,0,0,.22H4v18a.49.49,0,0,0,.31.46l15,6a.43.43,0,0,0,.19,0,.46.46,0,0,0,.19,0l5.71-2.28a.5.5,0,1,0-.37-.93l-5,2V16.84l14-5.6V21.5a.5.5,0,0,0,1,0v-11A.44.44,0,0,0,34.92,10.25ZM19,33.76,5,28.16V11.24l14,5.6ZM19.5,16,5.85,10.5,19.5,5,33.15,10.5Z" style="fill:#2b3436"/><path d="M10,17.5a.5.5,0,0,1,1,0v1a.5.5,0,0,1-1,0Zm2,7a.5.5,0,0,0,1,0v-1a.5.5,0,0,0-1,0ZM14.5,29a.5.5,0,0,0-.5.5v1a.5.5,0,0,0,1,0v-1A.5.5,0,0,0,14.5,29Zm-2.65-7.85-1-1a.49.49,0,0,0-.7.7l1,1a.48.48,0,0,0,.7,0A.48.48,0,0,0,11.85,21.15Zm-2-6-1-1a.49.49,0,0,0-.7.7l1,1a.48.48,0,0,0,.7,0A.48.48,0,0,0,9.85,15.15Zm4,12-1-1a.49.49,0,0,0-.7.7l1,1a.48.48,0,0,0,.7,0A.48.48,0,0,0,13.85,27.15ZM35,27.5v6A1.5,1.5,0,0,1,33.5,35h-3A1.5,1.5,0,0,1,29,33.5v-6a.41.41,0,0,1,0-.19.36.36,0,0,1,.11-.16L31,25.29V24.5a.5.5,0,0,1,.5-.5h1a.5.5,0,0,1,.5.5v.79l1.85,1.86a.36.36,0,0,1,.11.16A.41.41,0,0,1,35,27.5ZM30.71,27h2.58l-1-1h-.58ZM34,33.5V28H30v5.5a.5.5,0,0,0,.5.5h3A.5.5,0,0,0,34,33.5ZM30,24H29v1h1Zm-3,0h1V23H27Zm0,2h1V25H27Zm-2-1h1V24H25Zm0,2h1V26H25Zm0-4h1V22H25Zm-2,1h1V23H23Zm0,2h1V25H23Zm0,2h1V27H23Zm0-6h1V21H23Z" style="fill:#009688"/></svg>