<svg width="40" height="40" viewBox="0 0 40 40" fill="none" xmlns="http://www.w3.org/2000/svg">
<path d="M34.4942 4H5.43604V17.66H34.4942V4Z" fill="#B9C7CE"/>
<path d="M34.4942 4H5.43604V17.66H34.4942V4Z" stroke="#323A3D" stroke-miterlimit="10" stroke-linejoin="round"/>
<path d="M34.4942 4H5.43604V17.66H34.4942V4Z" stroke="black" stroke-opacity="0.2" stroke-miterlimit="10" stroke-linejoin="round"/>
<path d="M34.4942 21.7686H5.43604V35.4285H34.4942V21.7686Z" fill="#B9C7CE"/>
<path d="M34.4942 21.7686H5.43604V35.4285H34.4942V21.7686Z" stroke="#323A3D" stroke-miterlimit="10" stroke-linejoin="round"/>
<path d="M34.4942 21.7686H5.43604V35.4285H34.4942V21.7686Z" stroke="black" stroke-opacity="0.2" stroke-miterlimit="10" stroke-linejoin="round"/>
<path d="M5.48832 20.2578C5.76446 20.2578 5.98832 20.034 5.98832 19.7578C5.98832 19.4817 5.76446 19.2578 5.48832 19.2578V20.2578ZM7.4416 19.2578C7.16546 19.2578 6.9416 19.4817 6.9416 19.7578C6.9416 20.034 7.16546 20.2578 7.4416 20.2578V19.2578ZM8.41825 20.2578C8.69439 20.2578 8.91825 20.034 8.91825 19.7578C8.91825 19.4817 8.69439 19.2578 8.41825 19.2578V20.2578ZM10.3715 19.2578C10.0954 19.2578 9.87153 19.4817 9.87153 19.7578C9.87153 20.034 10.0954 20.2578 10.3715 20.2578V19.2578ZM11.3482 20.2578C11.6243 20.2578 11.8482 20.034 11.8482 19.7578C11.8482 19.4817 11.6243 19.2578 11.3482 19.2578V20.2578ZM13.3015 19.2578C13.0253 19.2578 12.8015 19.4817 12.8015 19.7578C12.8015 20.034 13.0253 20.2578 13.3015 20.2578V19.2578ZM14.2781 20.2578C14.5542 20.2578 14.7781 20.034 14.7781 19.7578C14.7781 19.4817 14.5542 19.2578 14.2781 19.2578V20.2578ZM16.2314 19.2578C15.9552 19.2578 15.7314 19.4817 15.7314 19.7578C15.7314 20.034 15.9552 20.2578 16.2314 20.2578V19.2578ZM17.208 20.2578C17.4842 20.2578 17.708 20.034 17.708 19.7578C17.708 19.4817 17.4842 19.2578 17.208 19.2578V20.2578ZM19.1613 19.2578C18.8852 19.2578 18.6613 19.4817 18.6613 19.7578C18.6613 20.034 18.8852 20.2578 19.1613 20.2578V19.2578ZM20.1379 20.2578C20.4141 20.2578 20.6379 20.034 20.6379 19.7578C20.6379 19.4817 20.4141 19.2578 20.1379 19.2578V20.2578ZM22.0912 19.2578C21.8151 19.2578 21.5912 19.4817 21.5912 19.7578C21.5912 20.034 21.8151 20.2578 22.0912 20.2578V19.2578ZM23.0679 20.2578C23.344 20.2578 23.5679 20.034 23.5679 19.7578C23.5679 19.4817 23.344 19.2578 23.0679 19.2578V20.2578ZM25.0211 19.2578C24.745 19.2578 24.5211 19.4817 24.5211 19.7578C24.5211 20.034 24.745 20.2578 25.0211 20.2578V19.2578ZM25.9978 20.2578C26.2739 20.2578 26.4978 20.034 26.4978 19.7578C26.4978 19.4817 26.2739 19.2578 25.9978 19.2578V20.2578ZM27.9511 19.2578C27.6749 19.2578 27.4511 19.4817 27.4511 19.7578C27.4511 20.034 27.6749 20.2578 27.9511 20.2578V19.2578ZM28.9277 20.2578C29.2039 20.2578 29.4277 20.034 29.4277 19.7578C29.4277 19.4817 29.2039 19.2578 28.9277 19.2578V20.2578ZM30.881 19.2578C30.6049 19.2578 30.381 19.4817 30.381 19.7578C30.381 20.034 30.6049 20.2578 30.881 20.2578V19.2578ZM31.8576 20.2578C32.1338 20.2578 32.3576 20.034 32.3576 19.7578C32.3576 19.4817 32.1338 19.2578 31.8576 19.2578V20.2578ZM33.8109 19.2578C33.5348 19.2578 33.3109 19.4817 33.3109 19.7578C33.3109 20.034 33.5348 20.2578 33.8109 20.2578V19.2578ZM5 20.2578H5.48832V19.2578H5V20.2578ZM7.4416 20.2578H8.41825V19.2578H7.4416V20.2578ZM10.3715 20.2578H11.3482V19.2578H10.3715V20.2578ZM13.3015 20.2578H14.2781V19.2578H13.3015V20.2578ZM16.2314 20.2578H17.208V19.2578H16.2314V20.2578ZM19.1613 20.2578H20.1379V19.2578H19.1613V20.2578ZM22.0912 20.2578H23.0679V19.2578H22.0912V20.2578ZM25.0211 20.2578H25.9978V19.2578H25.0211V20.2578ZM27.9511 20.2578H28.9277V19.2578H27.9511V20.2578ZM30.881 20.2578H31.8576V19.2578H30.881V20.2578ZM33.8109 20.2578H34.2992V19.2578H33.8109V20.2578Z" fill="#323A3D"/>
<path d="M5.48832 20.2578C5.76446 20.2578 5.98832 20.034 5.98832 19.7578C5.98832 19.4817 5.76446 19.2578 5.48832 19.2578V20.2578ZM7.4416 19.2578C7.16546 19.2578 6.9416 19.4817 6.9416 19.7578C6.9416 20.034 7.16546 20.2578 7.4416 20.2578V19.2578ZM8.41825 20.2578C8.69439 20.2578 8.91825 20.034 8.91825 19.7578C8.91825 19.4817 8.69439 19.2578 8.41825 19.2578V20.2578ZM10.3715 19.2578C10.0954 19.2578 9.87153 19.4817 9.87153 19.7578C9.87153 20.034 10.0954 20.2578 10.3715 20.2578V19.2578ZM11.3482 20.2578C11.6243 20.2578 11.8482 20.034 11.8482 19.7578C11.8482 19.4817 11.6243 19.2578 11.3482 19.2578V20.2578ZM13.3015 19.2578C13.0253 19.2578 12.8015 19.4817 12.8015 19.7578C12.8015 20.034 13.0253 20.2578 13.3015 20.2578V19.2578ZM14.2781 20.2578C14.5542 20.2578 14.7781 20.034 14.7781 19.7578C14.7781 19.4817 14.5542 19.2578 14.2781 19.2578V20.2578ZM16.2314 19.2578C15.9552 19.2578 15.7314 19.4817 15.7314 19.7578C15.7314 20.034 15.9552 20.2578 16.2314 20.2578V19.2578ZM17.208 20.2578C17.4842 20.2578 17.708 20.034 17.708 19.7578C17.708 19.4817 17.4842 19.2578 17.208 19.2578V20.2578ZM19.1613 19.2578C18.8852 19.2578 18.6613 19.4817 18.6613 19.7578C18.6613 20.034 18.8852 20.2578 19.1613 20.2578V19.2578ZM20.1379 20.2578C20.4141 20.2578 20.6379 20.034 20.6379 19.7578C20.6379 19.4817 20.4141 19.2578 20.1379 19.2578V20.2578ZM22.0912 19.2578C21.8151 19.2578 21.5912 19.4817 21.5912 19.7578C21.5912 20.034 21.8151 20.2578 22.0912 20.2578V19.2578ZM23.0679 20.2578C23.344 20.2578 23.5679 20.034 23.5679 19.7578C23.5679 19.4817 23.344 19.2578 23.0679 19.2578V20.2578ZM25.0211 19.2578C24.745 19.2578 24.5211 19.4817 24.5211 19.7578C24.5211 20.034 24.745 20.2578 25.0211 20.2578V19.2578ZM25.9978 20.2578C26.2739 20.2578 26.4978 20.034 26.4978 19.7578C26.4978 19.4817 26.2739 19.2578 25.9978 19.2578V20.2578ZM27.9511 19.2578C27.6749 19.2578 27.4511 19.4817 27.4511 19.7578C27.4511 20.034 27.6749 20.2578 27.9511 20.2578V19.2578ZM28.9277 20.2578C29.2039 20.2578 29.4277 20.034 29.4277 19.7578C29.4277 19.4817 29.2039 19.2578 28.9277 19.2578V20.2578ZM30.881 19.2578C30.6049 19.2578 30.381 19.4817 30.381 19.7578C30.381 20.034 30.6049 20.2578 30.881 20.2578V19.2578ZM31.8576 20.2578C32.1338 20.2578 32.3576 20.034 32.3576 19.7578C32.3576 19.4817 32.1338 19.2578 31.8576 19.2578V20.2578ZM33.8109 19.2578C33.5348 19.2578 33.3109 19.4817 33.3109 19.7578C33.3109 20.034 33.5348 20.2578 33.8109 20.2578V19.2578ZM5 20.2578H5.48832V19.2578H5V20.2578ZM7.4416 20.2578H8.41825V19.2578H7.4416V20.2578ZM10.3715 20.2578H11.3482V19.2578H10.3715V20.2578ZM13.3015 20.2578H14.2781V19.2578H13.3015V20.2578ZM16.2314 20.2578H17.208V19.2578H16.2314V20.2578ZM19.1613 20.2578H20.1379V19.2578H19.1613V20.2578ZM22.0912 20.2578H23.0679V19.2578H22.0912V20.2578ZM25.0211 20.2578H25.9978V19.2578H25.0211V20.2578ZM27.9511 20.2578H28.9277V19.2578H27.9511V20.2578ZM30.881 20.2578H31.8576V19.2578H30.881V20.2578ZM33.8109 20.2578H34.2992V19.2578H33.8109V20.2578Z" fill="black" fill-opacity="0.2"/>
</svg>
