<svg xmlns="http://www.w3.org/2000/svg" width="40" height="40" viewBox="0 0 40 40"><path d="M22.5,29a.5.5,0,0,1-.354-.146l-12-12a.5.5,0,0,1,.708-.708L22.5,27.793,33.793,16.5,22.146,4.854a.5.5,0,0,1,.708-.708l12,12a.5.5,0,0,1,0,.708l-12,12A.5.5,0,0,1,22.5,29Z" style="fill:#2b3436"/><path d="M29,16H26.949A4.474,4.474,0,0,0,23,12.051V10H22v2.051A4.474,4.474,0,0,0,18.051,16H16v1h2.051A4.474,4.474,0,0,0,22,20.949V23h1V20.949A4.474,4.474,0,0,0,26.949,17H29Zm-6,3.949V19H22v.949A3.485,3.485,0,0,1,19.051,17H20V16h-.949A3.485,3.485,0,0,1,22,13.051V14h1v-.949A3.485,3.485,0,0,1,25.949,16H25v1h.949A3.485,3.485,0,0,1,23,19.949ZM22.5,16a.5.5,0,1,0,.5.5A.5.5,0,0,0,22.5,16Zm-12.354.146,12-12a.5.5,0,0,1,.708.708l-12,12a.5.5,0,0,1-.708-.708Zm-2,14.708a.5.5,0,0,0,.708,0l4-4a.5.5,0,0,0-.708-.708L9,29.293V16.5a.481.481,0,0,0-.077-.25A.481.481,0,0,0,9,16a6.006,6.006,0,0,1,6-6,.5.5,0,0,0,0-1,7.008,7.008,0,0,0-7,7,.481.481,0,0,0,.077.25A.481.481,0,0,0,8,16.5V29.293L4.854,26.146a.5.5,0,0,0-.708.708ZM35,34H4v1H35Z" style="fill:#009688"/></svg>