<svg xmlns="http://www.w3.org/2000/svg" width="40" height="40" viewBox="0 0 40 40"><path d="M33.5,4H5.5A1.5,1.5,0,0,0,4,5.5V19H5V5.5A.5.5,0,0,1,5.5,5H19v5.5a.5.5,0,0,0,.5.5h.512a.5.5,0,0,0,.4-.2A1.979,1.979,0,0,1,22,10a2,2,0,0,1,0,4,1.979,1.979,0,0,1-1.589-.8.5.5,0,0,0-.4-.2H19.5a.5.5,0,0,0-.5.5V20h5.773A2.958,2.958,0,0,0,24,22a3,3,0,0,0,6,0,2.958,2.958,0,0,0-.773-2H34V33.5a.5.5,0,0,1-.5.5H20v1H33.5A1.5,1.5,0,0,0,35,33.5V5.5A1.5,1.5,0,0,0,33.5,4ZM34,19H28.5a.5.5,0,0,0-.5.5v.511a.5.5,0,0,0,.2.4A1.982,1.982,0,0,1,29,22a2,2,0,0,1-4,0,1.982,1.982,0,0,1,.8-1.59.5.5,0,0,0,.2-.4V19.5a.5.5,0,0,0-.5-.5H20V14.227A2.959,2.959,0,0,0,22,15a3,3,0,0,0,0-6,2.959,2.959,0,0,0-2,.773V5H33.5a.5.5,0,0,1,.5.5Z" style="fill:#b6b6b6"/><path d="M20,35H5.5A1.5,1.5,0,0,1,4,33.5V19H9.773a3,3,0,0,1-.635-2.92,2.944,2.944,0,0,1,1.944-1.943A3.009,3.009,0,0,1,15,17a2.958,2.958,0,0,1-.773,2H20v6.5a.5.5,0,0,1-.5.5h-.512a.5.5,0,0,1-.4-.2,2,2,0,1,0,0,2.4.5.5,0,0,1,.4-.2H19.5a.5.5,0,0,1,.5.5ZM5,20V33.5a.5.5,0,0,0,.5.5H19V29.227a3,3,0,0,1-2.92.635,2.944,2.944,0,0,1-1.943-1.944A3.01,3.01,0,0,1,17,24a2.958,2.958,0,0,1,2,.773V20H13.5a.5.5,0,0,1-.5-.5v-.511a.5.5,0,0,1,.2-.4A1.982,1.982,0,0,0,14,17a2,2,0,0,0-4,0,1.982,1.982,0,0,0,.8,1.59.5.5,0,0,1,.2.4V19.5a.5.5,0,0,1-.5.5Z" style="fill:#009688"/></svg>