<svg width="40" height="40" viewBox="0 0 40 40" fill="none" xmlns="http://www.w3.org/2000/svg">
<path d="M16.767 13.8831V10.124H4V22.8465H7.77225C7.77225 24.2833 8.94164 25.4487 10.3835 25.4487C11.8253 25.4487 12.9947 24.2833 12.9947 22.8465H16.767V19.0874C15.3251 19.0874 14.1557 17.9221 14.1557 16.4853C14.1557 15.0485 15.3251 13.8831 16.767 13.8831Z" stroke="#2B3436" stroke-miterlimit="10" stroke-linecap="round" stroke-linejoin="round"/>
<path d="M7.77225 22.8457H4V35.5682H16.767V31.8091C18.2088 31.8091 19.3782 30.6438 19.3782 29.207C19.3782 27.7701 18.2088 26.6048 16.767 26.6048V22.8457H12.9947C12.9947 24.2825 11.8253 25.4478 10.3835 25.4478C8.94164 25.4478 7.77225 24.2825 7.77225 22.8457Z" stroke="#2B3436" stroke-miterlimit="10" stroke-linecap="round" stroke-linejoin="round"/>
<path d="M24.6114 17.3351L27.2792 19.9936L36.3075 10.9968L27.2792 2L24.6114 4.65853C23.5908 3.64148 21.9394 3.64148 20.9188 4.65853C19.8982 5.67558 19.8982 7.32123 20.9188 8.33828L18.251 10.9968L20.9188 13.6553C21.9394 12.6383 23.5908 12.6383 24.6114 13.6553C25.632 14.6703 25.632 16.318 24.6114 17.3351Z" fill="#B9C7CE" stroke="#2B3436" stroke-miterlimit="10"/>
<path d="M25.7616 22.8473C25.7616 21.4104 24.5922 20.2451 23.1503 20.2451C21.7085 20.2451 20.5391 21.4104 20.5391 22.8473H16.7668V26.6105C18.1668 26.6586 19.288 27.8009 19.288 29.2085C19.288 30.614 18.1668 31.7584 16.7668 31.8065V35.5698H29.5338V22.8473H25.7616V22.8473Z" stroke="#2B3436" stroke-miterlimit="10" stroke-linecap="round" stroke-linejoin="round"/>
</svg>
