<svg xmlns="http://www.w3.org/2000/svg" width="40" height="40" viewBox="0 0 40 40"><path d="M24.5,26h-10A1.5,1.5,0,0,1,13,24.5v-10A1.5,1.5,0,0,1,14.5,13h10A1.5,1.5,0,0,1,26,14.5v10A1.5,1.5,0,0,1,24.5,26Zm-10-12a.5.5,0,0,0-.5.5v10a.5.5,0,0,0,.5.5h10a.5.5,0,0,0,.5-.5v-10a.5.5,0,0,0-.5-.5Z" style="fill:#2b3436"/><path d="M35,19.5A15.517,15.517,0,0,1,19.5,35a15.767,15.767,0,0,1-2.063-.136.5.5,0,0,1,.132-.992A14.5,14.5,0,1,0,19.5,5,14.43,14.43,0,0,0,7.751,11H11.5a.5.5,0,0,1,0,1h-5a.5.5,0,0,1-.5-.5v-5a.5.5,0,0,1,1,0v3.836A15.5,15.5,0,0,1,35,19.5ZM5.943,24.66a.5.5,0,1,0-.933.356A15.426,15.426,0,0,0,7.354,29.13a.5.5,0,0,0,.783-.621A14.533,14.533,0,0,1,5.943,24.66Zm8.4,8.4a14.523,14.523,0,0,1-3.85-2.194.5.5,0,0,0-.621.784,15.455,15.455,0,0,0,4.115,2.343.487.487,0,0,0,.178.033.5.5,0,0,0,.178-.966ZM5.128,21.431A14.621,14.621,0,0,1,5,19.5a.5.5,0,0,0-1,0,15.767,15.767,0,0,0,.136,2.063.5.5,0,0,0,.992-.132Z" style="fill:#009688"/></svg>