<svg width="40" height="40" viewBox="0 0 40 40" fill="none" xmlns="http://www.w3.org/2000/svg">
<path d="M35.5919 4H4V35.5919H35.5919V4Z" stroke="#2B3436" stroke-miterlimit="10" stroke-linejoin="round"/>
<path d="M14.5397 12.894C14.8166 12.894 14.8818 12.7378 14.6863 12.5439L11.7487 9.62981C11.5532 9.4359 11.2382 9.4359 11.0428 9.62981L8.10511 12.5439C7.90963 12.7378 7.97479 12.894 8.25172 12.894H9.89702C10.1739 12.894 10.3966 13.1149 10.3966 13.3896V26.1933C10.3966 26.468 10.1739 26.6889 9.89702 26.6889H8.25172C7.97479 26.6889 7.90963 26.8451 8.10511 27.039L11.0428 29.9531C11.2382 30.1471 11.5532 30.1471 11.7487 29.9531L14.6863 27.039C14.8818 26.8451 14.8166 26.6889 14.5397 26.6889H12.8944C12.6175 26.6889 12.3948 26.468 12.3948 26.1933V13.3896C12.3948 13.1149 12.6175 12.894 12.8944 12.894H14.5397Z" fill="#B9C7CE"/>
<path d="M14.5397 12.894C14.8166 12.894 14.8818 12.7378 14.6863 12.5439L11.7487 9.62981C11.5532 9.4359 11.2382 9.4359 11.0428 9.62981L8.10511 12.5439C7.90963 12.7378 7.97479 12.894 8.25172 12.894H9.89702C10.1739 12.894 10.3966 13.1149 10.3966 13.3896V26.1933C10.3966 26.468 10.1739 26.6889 9.89702 26.6889H8.25172C7.97479 26.6889 7.90963 26.8451 8.10511 27.039L11.0428 29.9531C11.2382 30.1471 11.5532 30.1471 11.7487 29.9531L14.6863 27.039C14.8818 26.8451 14.8166 26.6889 14.5397 26.6889H12.8944C12.6175 26.6889 12.3948 26.468 12.3948 26.1933V13.3896C12.3948 13.1149 12.6175 12.894 12.8944 12.894H14.5397Z" stroke="#2B3436" stroke-miterlimit="10"/>
<path d="M23.2819 12.894C23.5588 12.894 23.624 12.7378 23.4285 12.5439L20.4908 9.62981C20.2954 9.4359 19.9804 9.4359 19.7849 9.62981L16.8473 12.5439C16.6518 12.7378 16.717 12.894 16.9939 12.894H18.6392C18.9161 12.894 19.1388 13.1149 19.1388 13.3896V26.1933C19.1388 26.468 18.9161 26.6889 18.6392 26.6889H16.9939C16.717 26.6889 16.6518 26.8451 16.8473 27.039L19.7849 29.9531C19.9804 30.147 20.2954 30.147 20.4908 29.9531L23.4285 27.039C23.624 26.8451 23.5588 26.6889 23.2819 26.6889H21.6366C21.3596 26.6889 21.137 26.468 21.137 26.1933V13.3896C21.137 13.1149 21.3596 12.894 21.6366 12.894H23.2819Z" fill="#B9C7CE"/>
<path d="M23.2819 12.894C23.5588 12.894 23.624 12.7378 23.4285 12.5439L20.4908 9.62981C20.2954 9.4359 19.9804 9.4359 19.7849 9.62981L16.8473 12.5439C16.6518 12.7378 16.717 12.894 16.9939 12.894H18.6392C18.9161 12.894 19.1388 13.1149 19.1388 13.3896V26.1933C19.1388 26.468 18.9161 26.6889 18.6392 26.6889H16.9939C16.717 26.6889 16.6518 26.8451 16.8473 27.039L19.7849 29.9531C19.9804 30.147 20.2954 30.147 20.4908 29.9531L23.4285 27.039C23.624 26.8451 23.5588 26.6889 23.2819 26.6889H21.6366C21.3596 26.6889 21.137 26.468 21.137 26.1933V13.3896C21.137 13.1149 21.3596 12.894 21.6366 12.894H23.2819Z" stroke="#2B3436" stroke-miterlimit="10"/>
<path d="M29.8851 13.3896C29.8851 13.1149 30.1077 12.894 30.3846 12.894H32.0299C32.3068 12.894 32.372 12.7378 32.1765 12.5439L29.2389 9.62981C29.0434 9.4359 28.7285 9.4359 28.533 9.62981L25.5953 12.5439C25.3999 12.7378 25.465 12.894 25.742 12.894H27.3873C27.6642 12.894 27.8868 13.1149 27.8868 13.3896V26.1933C27.8868 26.468 27.6642 26.6889 27.3873 26.6889H25.742C25.465 26.6889 25.3999 26.8451 25.5953 27.039L28.533 29.9531C28.7285 30.147 29.0434 30.147 29.2389 29.9531L32.1765 27.039C32.372 26.8451 32.3068 26.6889 32.0299 26.6889H30.3846C30.1077 26.6889 29.8851 26.468 29.8851 26.1933V13.3896Z" fill="#B9C7CE"/>
<path d="M29.8851 13.3896C29.8851 13.1149 30.1077 12.894 30.3846 12.894H32.0299C32.3068 12.894 32.372 12.7378 32.1765 12.5439L29.2389 9.62981C29.0434 9.4359 28.7285 9.4359 28.533 9.62981L25.5953 12.5439C25.3999 12.7378 25.465 12.894 25.742 12.894H27.3873C27.6642 12.894 27.8868 13.1149 27.8868 13.3896V26.1933C27.8868 26.468 27.6642 26.6889 27.3873 26.6889H25.742C25.465 26.6889 25.3999 26.8451 25.5953 27.039L28.533 29.9531C28.7285 30.147 29.0434 30.147 29.2389 29.9531L32.1765 27.039C32.372 26.8451 32.3068 26.6889 32.0299 26.6889H30.3846C30.1077 26.6889 29.8851 26.468 29.8851 26.1933V13.3896Z" stroke="#2B3436" stroke-miterlimit="10"/>
</svg>
