<svg xmlns="http://www.w3.org/2000/svg" width="40" height="40" viewBox="0 0 40 40"><path d="M25.5,22a.5.5,0,0,1-.5-.5V18H18v3.5a.5.5,0,0,1-1,0v-6a.5.5,0,0,1,.084-.277l2-3A.5.5,0,0,1,19.5,12h4a.5.5,0,0,1,.416.223l2,3A.5.5,0,0,1,26,15.5v6A.5.5,0,0,1,25.5,22ZM18,17h7V15.651L23.232,13H19.768L18,15.651Z" style="fill:#009688"/><path d="M11.964,29.314a.5.5,0,0,0-.65-.278L7.152,30.7a17.321,17.321,0,0,1,3.739-6.888.5.5,0,1,0-.782-.624A19.312,19.312,0,0,0,6.359,29.8L4.964,26.314a.5.5,0,1,0-.928.372l2,5c0,.01.016.015.021.025a.475.475,0,0,0,.15.185c.009.007.016.017.025.023a.5.5,0,0,0,.2.076A.367.367,0,0,0,6.5,32h0a.475.475,0,0,0,.181-.036h0l5-2A.5.5,0,0,0,11.964,29.314Z" style="fill:#009688"/><rect x="4" y="34" width="31" height="1" style="fill:#009688"/><path d="M34.854,17.146l-13-13a.5.5,0,0,0-.708,0l-13,13a.5.5,0,0,0,.708.708L21.5,5.207,33.793,17.5,21.146,30.146a.5.5,0,0,0,.708.708l13-13A.5.5,0,0,0,34.854,17.146Z" style="fill:#2b3436"/><path d="M21.5,31a.5.5,0,0,1-.354-.146l-13-13a.5.5,0,0,1,.708-.708l13,13A.5.5,0,0,1,21.5,31Z" style="fill:#009688"/></svg>