<svg xmlns="http://www.w3.org/2000/svg" viewBox="0 0 40 40"><path d="M33.5,35h-8A1.5,1.5,0,0,1,24,33.5v-18a.5.5,0,0,0-.5-.5H5.5A1.5,1.5,0,0,1,4,13.5v-8A1.5,1.5,0,0,1,5.5,4h28A1.5,1.5,0,0,1,35,5.5v28A1.5,1.5,0,0,1,33.5,35ZM5.5,5a.5.5,0,0,0-.5.5v8a.5.5,0,0,0,.5.5h18A1.5,1.5,0,0,1,25,15.5v18a.5.5,0,0,0,.5.5h8a.5.5,0,0,0,.5-.5V5.5a.5.5,0,0,0-.5-.5Z" style="fill:#b6b6b6"/><path d="M19.5,14H8.5A1.5,1.5,0,0,0,7,15.5v18A1.5,1.5,0,0,0,8.5,35h11A1.5,1.5,0,0,0,21,33.5v-18A1.5,1.5,0,0,0,19.5,14ZM8,15.5a.5.5,0,0,1,.5-.5h1.79L8,17.29Zm0,3.21L11.71,15h2.58L8,21.29Zm0,4L15.71,15h2.58L8,25.29ZM20,33.5a.5.5,0,0,1-.5.5H16.71L20,30.71Zm0-4.21L15.29,34H12.71L20,26.71Zm0-4L11.29,34H8.71L20,22.71Zm0-4-12,12V30.71l12-12Zm0-4-12,12V26.71L19.67,15a.52.52,0,0,1,.33.47Z" style="fill:#009688"/></svg>