<svg xmlns="http://www.w3.org/2000/svg" viewBox="0 0 40 40"><path d="M21.5,14h-2a.5.5,0,0,1,0-1h2a.5.5,0,0,1,0,1Zm.5,1.5a.5.5,0,0,0-.5-.5h-2a.5.5,0,0,0,0,1h2A.5.5,0,0,0,22,15.5Zm0,2a.5.5,0,0,0-.5-.5h-2a.5.5,0,0,0,0,1h2A.5.5,0,0,0,22,17.5Zm0,2a.5.5,0,0,0-.5-.5h-2a.5.5,0,0,0,0,1h2A.5.5,0,0,0,22,19.5Zm0,10a.5.5,0,0,0-.5-.5h-2a.5.5,0,0,0,0,1h2A.5.5,0,0,0,22,29.5Zm0,2a.5.5,0,0,0-.5-.5h-2a.5.5,0,0,0,0,1h2A.5.5,0,0,0,22,31.5Zm0,2a.5.5,0,0,0-.5-.5h-2a.5.5,0,0,0,0,1h2A.5.5,0,0,0,22,33.5Zm0,2a.5.5,0,0,0-.5-.5h-2a.5.5,0,0,0,0,1h2A.5.5,0,0,0,22,35.5Zm-8-19A4.5,4.5,0,1,0,9.5,21,4.51,4.51,0,0,0,14,16.5Zm-1,0A3.5,3.5,0,1,1,9.5,13,3.5,3.5,0,0,1,13,16.5Z" style="fill:#009688"/><path d="M28.5,12a.45.45,0,0,0,.16,0l6-2A.5.5,0,0,0,35,9.5v-1a.5.5,0,0,0-.5-.5H29V5.5a.5.5,0,0,0-.5-.5h-12a.45.45,0,0,0-.16,0l-12,4A.5.5,0,0,0,4,9.5v2a.5.5,0,0,0,.5.5H18v9H4.5a.5.5,0,0,0-.5.5v2a.5.5,0,0,0,.34.47l12,4a.45.45,0,0,0,.16,0H18v7.5a.5.5,0,0,0,1,0V28h7v7H24.5a.5.5,0,0,0,0,1h2a.5.5,0,0,0,.5-.5V28h1.5a.5.5,0,0,0,.5-.5V25h5.5a.5.5,0,0,0,.5-.5v-1a.5.5,0,0,0-.34-.47l-6-2a.45.45,0,0,0-.16,0H27V12ZM5,9.86,16.58,6H28V8.5a.5.5,0,0,0,.5.5H34v.14L28.42,11H5Zm29,14V24H28.5a.5.5,0,0,0-.5.5V27H16.58L5,23.14V22H28.42ZM26,21H19V12h7Z" style="fill:#2b3436"/></svg>