<svg width="40" height="40" viewBox="0 0 40 40" fill="none" xmlns="http://www.w3.org/2000/svg">
<path fill-rule="evenodd" clip-rule="evenodd" d="M3.5 4C3.5 3.72386 3.72386 3.5 4 3.5H35.5919C35.868 3.5 36.0919 3.72386 36.0919 4V35.5919C36.0919 35.868 35.868 36.0919 35.5919 36.0919H4C3.72386 36.0919 3.5 35.868 3.5 35.5919V4ZM4.5 4.5V35.0919H35.0919V4.5H4.5Z" fill="#B6B6B6"/>
<path fill-rule="evenodd" clip-rule="evenodd" d="M7.08545 6.98633C7.08545 6.71019 7.30931 6.48633 7.58545 6.48633H32.6564C32.9325 6.48633 33.1564 6.71019 33.1564 6.98633V16.069C33.1564 16.3452 32.9325 16.569 32.6564 16.569H7.58545C7.30931 16.569 7.08545 16.3452 7.08545 16.069V6.98633ZM8.08545 7.48633V15.569H32.1564V7.48633H8.08545Z" fill="#eb4949"/>
<path fill-rule="evenodd" clip-rule="evenodd" d="M7.10156 18.6719C7.10156 18.3957 7.32542 18.1719 7.60156 18.1719H15.054C15.3302 18.1719 15.554 18.3957 15.554 18.6719V32.1741C15.554 32.4503 15.3302 32.6741 15.054 32.6741H7.60156C7.32542 32.6741 7.10156 32.4503 7.10156 32.1741V18.6719ZM8.10156 19.1719V31.6741H14.554V19.1719H8.10156Z" fill="#B6B6B6"/>
<path fill-rule="evenodd" clip-rule="evenodd" d="M16.9976 26.2168H33.0704V32.6599H16.9976V26.2168ZM17.9976 27.2168V31.6599H32.0704V27.2168H17.9976Z" fill="#eb4949"/>
<path fill-rule="evenodd" clip-rule="evenodd" d="M16.9976 18.1719H33.0704V24.6151H16.9976V18.1719ZM17.9976 19.1719V23.6151H32.0704V19.1719H17.9976Z" fill="#eb4949"/>
</svg>
