<svg width="40" height="40" viewBox="0 0 40 40" fill="none" xmlns="http://www.w3.org/2000/svg">
<path fill-rule="evenodd" clip-rule="evenodd" d="M3.5 10.123C3.5 9.8469 3.72386 9.62305 4 9.62305H16.767C17.0431 9.62305 17.267 9.8469 17.267 10.123V13.8822C17.267 14.1583 17.0431 14.3822 16.767 14.3822C15.5996 14.3822 14.6557 15.3253 14.6557 16.4843C14.6557 17.6433 15.5996 18.5864 16.767 18.5864C17.0431 18.5864 17.267 18.8103 17.267 19.0864V22.8455C17.267 23.1217 17.0431 23.3455 16.767 23.3455H13.4545C13.2146 24.822 11.9294 25.9477 10.3835 25.9477C8.83755 25.9477 7.5524 24.822 7.31245 23.3455H4C3.72386 23.3455 3.5 23.1217 3.5 22.8455V10.123ZM4.5 10.623V22.3455H7.77225C8.04839 22.3455 8.27225 22.5694 8.27225 22.8455C8.27225 24.0046 9.21614 24.9477 10.3835 24.9477C11.5508 24.9477 12.4947 24.0046 12.4947 22.8455C12.4947 22.5694 12.7186 22.3455 12.9947 22.3455H16.267V19.5465C14.7877 19.3081 13.6557 18.0289 13.6557 16.4843C13.6557 14.9397 14.7877 13.6605 16.267 13.422V10.623H4.5Z" fill="#eb4949"/>
<path fill-rule="evenodd" clip-rule="evenodd" d="M3.5 22.8457C3.5 22.5696 3.72386 22.3457 4 22.3457H7.77225C8.04839 22.3457 8.27225 22.5696 8.27225 22.8457C8.27225 24.0047 9.21614 24.9478 10.3835 24.9478C11.5508 24.9478 12.4947 24.0047 12.4947 22.8457C12.4947 22.5696 12.7186 22.3457 12.9947 22.3457H16.767C17.0431 22.3457 17.267 22.5696 17.267 22.8457V26.1447C18.7462 26.3832 19.8782 27.6624 19.8782 29.207C19.8782 30.7516 18.7462 32.0307 17.267 32.2692V35.5682C17.267 35.8443 17.0431 36.0682 16.767 36.0682H4C3.72386 36.0682 3.5 35.8443 3.5 35.5682V22.8457ZM4.5 23.3457V35.0682H16.267V31.8091C16.267 31.533 16.4908 31.3091 16.767 31.3091C17.9343 31.3091 18.8782 30.366 18.8782 29.207C18.8782 28.0479 17.9343 27.1048 16.767 27.1048C16.4908 27.1048 16.267 26.881 16.267 26.6048V23.3457H13.4545C13.2146 24.8222 11.9294 25.9478 10.3835 25.9478C8.83755 25.9478 7.5524 24.8222 7.31245 23.3457H4.5Z" fill="#eb4949"/>
<path fill-rule="evenodd" clip-rule="evenodd" d="M27.2791 1.29395L37.0156 10.9966L27.2791 20.6993L23.9029 17.3349L24.2583 16.9807C25.083 16.1589 25.0825 14.829 24.2587 14.0097C23.4332 13.1871 22.0971 13.1867 21.2716 14.0093L20.9186 14.361L17.5425 10.9966L20.2388 8.30971C19.3611 7.09674 19.47 5.39604 20.5657 4.30418C21.6613 3.21243 23.367 3.10452 24.5832 3.98047L27.2791 1.29395ZM27.2791 2.7057L24.6112 5.36423L24.2583 5.01252C23.4328 4.18991 22.0971 4.18991 21.2716 5.01252C20.4471 5.83416 20.4471 7.16229 21.2716 7.98393L21.627 8.3381L18.9592 10.9966L20.9467 12.9773C22.1629 12.1013 23.8686 12.2092 24.9642 13.301C26.0601 14.3912 26.1686 16.0934 25.2911 17.3065L27.2791 19.2876L35.599 10.9966L27.2791 2.7057Z" fill="#B6B6B6"/>
<path fill-rule="evenodd" clip-rule="evenodd" d="M20.079 22.3463C20.319 20.8698 21.6042 19.7441 23.1501 19.7441C24.696 19.7441 25.9812 20.8698 26.2211 22.3463H29.5336C29.8097 22.3463 30.0336 22.5701 30.0336 22.8463V35.5688C30.0336 35.8449 29.8097 36.0688 29.5336 36.0688H16.7666C16.4905 36.0688 16.2666 35.8449 16.2666 35.5688V31.8055C16.2666 31.536 16.4801 31.315 16.7495 31.3058C17.8834 31.2669 18.7877 30.3402 18.7877 29.2075C18.7877 28.073 17.8837 27.1482 16.7495 27.1093C16.4801 27.1 16.2666 26.879 16.2666 26.6096V22.8463C16.2666 22.5701 16.4905 22.3463 16.7666 22.3463H20.079ZM25.2613 22.8463C25.2613 21.6872 24.3174 20.7441 23.1501 20.7441C21.9827 20.7441 21.0388 21.6872 21.0388 22.8463C21.0388 23.1224 20.815 23.3463 20.5388 23.3463H17.2666V26.1639C18.7006 26.4387 19.7877 27.6928 19.7877 29.2075C19.7877 30.7201 18.7008 31.976 17.2666 32.2511V35.0688H29.0336V23.3463H25.7613C25.4852 23.3463 25.2613 23.1224 25.2613 22.8463Z" fill="#eb4949"/>
</svg>
