<svg xmlns="http://www.w3.org/2000/svg" width="40" height="40" viewBox="0 0 40 40"><rect x="19" y="20" width="1" height="1" style="fill:#009688"/><rect x="19" y="22" width="1" height="1" style="fill:#009688"/><rect x="19" y="24" width="1" height="1" style="fill:#009688"/><rect x="19" y="26" width="1" height="1" style="fill:#009688"/><rect x="19" y="18" width="1" height="1" style="fill:#009688"/><rect x="30" y="21" width="2" height="3" rx="0.5" style="fill:#009688"/><path d="M27.5,27a.5.5,0,0,1-.354-.854l3-3a.5.5,0,0,1,.708.708l-3,3A.5.5,0,0,1,27.5,27Z" style="fill:#009688"/><path d="M34.5,27a.5.5,0,0,1-.354-.146l-3-3a.5.5,0,0,1,.708-.708l3,3A.5.5,0,0,1,34.5,27Z" style="fill:#009688"/><path d="M33.5,35h-5A1.5,1.5,0,0,1,27,33.5v-7a.5.5,0,0,1,1,0v7a.5.5,0,0,0,.5.5h5a.5.5,0,0,0,.5-.5v-7a.5.5,0,0,1,1,0v7A1.5,1.5,0,0,1,33.5,35Z" style="fill:#009688"/><path d="M34.5,27h-7a.5.5,0,0,1,0-1h7a.5.5,0,0,1,0,1Z" style="fill:#009688"/><rect x="27" y="22" width="1" height="1" style="fill:#009688"/><rect x="25" y="21" width="1" height="1" style="fill:#009688"/><rect x="25" y="23" width="1" height="1" style="fill:#009688"/><rect x="23" y="22" width="1" height="1" style="fill:#009688"/><rect x="23" y="24" width="1" height="1" style="fill:#009688"/><rect x="23" y="20" width="1" height="1" style="fill:#009688"/><rect x="21" y="21" width="1" height="1" style="fill:#009688"/><rect x="21" y="23" width="1" height="1" style="fill:#009688"/><rect x="21" y="25" width="1" height="1" style="fill:#009688"/><rect x="21" y="19" width="1" height="1" style="fill:#009688"/><rect x="12" y="16" width="1" height="1" style="fill:#009688"/><rect x="11" y="17" width="1" height="1" style="fill:#009688"/><rect x="11" y="15" width="1" height="1" style="fill:#009688"/><rect x="12" y="18" width="1" height="1" style="fill:#009688"/><rect x="11" y="21" width="1" height="1" style="fill:#009688"/><rect x="12" y="22" width="1" height="1" style="fill:#009688"/><rect x="11" y="25" width="1" height="1" style="fill:#009688"/><rect x="12" y="26" width="1" height="1" style="fill:#009688"/><rect x="11" y="23" width="1" height="1" style="fill:#009688"/><rect x="12" y="24" width="1" height="1" style="fill:#009688"/><rect x="11" y="19" width="1" height="1" style="fill:#009688"/><rect x="12" y="20" width="1" height="1" style="fill:#009688"/><rect x="12" y="10" width="1" height="1" style="fill:#009688"/><rect x="11" y="11" width="1" height="1" style="fill:#009688"/><rect x="11" y="9" width="1" height="1" style="fill:#009688"/><rect x="12" y="12" width="1" height="1" style="fill:#009688"/><rect x="11" y="13" width="1" height="1" style="fill:#009688"/><rect x="12" y="14" width="1" height="1" style="fill:#009688"/><rect x="11" y="33" width="1" height="1" style="fill:#009688"/><rect x="11" y="5" width="1" height="1" style="fill:#009688"/><rect x="12" y="6" width="1" height="1" style="fill:#009688"/><rect x="11" y="7" width="1" height="1" style="fill:#009688"/><rect x="12" y="8" width="1" height="1" style="fill:#009688"/><rect x="11" y="27" width="1" height="1" style="fill:#009688"/><rect x="12" y="28" width="1" height="1" style="fill:#009688"/><rect x="11" y="29" width="1" height="1" style="fill:#009688"/><rect x="12" y="30" width="1" height="1" style="fill:#009688"/><rect x="12" y="32" width="1" height="1" style="fill:#009688"/><rect x="11" y="31" width="1" height="1" style="fill:#009688"/><path d="M23.5,35H5.5A1.5,1.5,0,0,1,4,33.5V5.5A1.5,1.5,0,0,1,5.5,4h28A1.5,1.5,0,0,1,35,5.5v13a.5.5,0,0,1-1,0V5.5a.5.5,0,0,0-.5-.5H5.5a.5.5,0,0,0-.5.5v28a.5.5,0,0,0,.5.5h18a.5.5,0,0,1,0,1Z" style="fill:#b6b6b6"/></svg>