<svg xmlns="http://www.w3.org/2000/svg" width="40" height="40" viewBox="0 0 40 40"><path d="M33.5,24h-8A1.5,1.5,0,0,0,24,25.5v8A1.5,1.5,0,0,0,25.5,35h8A1.5,1.5,0,0,0,35,33.5v-8A1.5,1.5,0,0,0,33.5,24Zm.5,9.5a.5.5,0,0,1-.5.5h-8a.5.5,0,0,1-.5-.5v-8a.5.5,0,0,1,.5-.5h8a.5.5,0,0,1,.5.5ZM30,29h3v1H30v3H29V30H26V29h3V26h1Zm4.923-18.75a.392.392,0,0,0-.033-.05.5.5,0,0,0-.2-.162l0,0-15-6a.5.5,0,0,0-.372,0l-15,6,0,0a.5.5,0,0,0-.2.162.392.392,0,0,0-.033.05A.478.478,0,0,0,4,10.5v18a.464.464,0,0,0,.028.138.429.429,0,0,0,.011.054l.01.015a.51.51,0,0,0,.1.144l.008,0a.5.5,0,0,0,.156.1l0,0,14.989,6,0,0,.006,0a.5.5,0,0,0,.372,0L22,34.038V32.962l-2,.8V16.839l14-5.6V21.5a.5.5,0,0,0,1,0v-11A.481.481,0,0,0,34.923,10.25ZM5,11.239l14,5.6V33.762l-14-5.6Zm14.5,4.722L5.846,10.5,19.5,5.039,33.153,10.5Z" style="fill:#009688"/></svg>