<svg xmlns="http://www.w3.org/2000/svg" width="40" height="40" viewBox="0 0 40 40"><path d="M33.5,4h-20A1.5,1.5,0,0,0,12,5.5V12H5.5A1.5,1.5,0,0,0,4,13.5v20A1.5,1.5,0,0,0,5.5,35h20A1.5,1.5,0,0,0,27,33.5V27h6.5A1.5,1.5,0,0,0,35,25.5V5.5A1.5,1.5,0,0,0,33.5,4ZM26,33.5a.5.5,0,0,1-.5.5H5.5a.5.5,0,0,1-.5-.5v-20a.5.5,0,0,1,.5-.5H12V25.5A1.5,1.5,0,0,0,13.5,27H26ZM26,26H13.5a.5.5,0,0,1-.5-.5V13H25.5a.5.5,0,0,1,.5.5Zm8-.5a.5.5,0,0,1-.5.5H27V13.5A1.5,1.5,0,0,0,25.5,12H13V5.5a.5.5,0,0,1,.5-.5h20a.5.5,0,0,1,.5.5Z" style="fill:#2b3436"/><path d="M25.5,12h-12A1.5,1.5,0,0,0,12,13.5v12A1.5,1.5,0,0,0,13.5,27h12A1.5,1.5,0,0,0,27,25.5v-12A1.5,1.5,0,0,0,25.5,12ZM13,13.5a.5.5,0,0,1,.5-.5h1.793L13,15.293Zm0,3.207L16.707,13h2.586L13,19.293Zm0,4L20.707,13h2.586L13,23.293ZM26,25.5a.5.5,0,0,1-.5.5H23.707L26,23.707Zm0-3.207L22.293,26H19.707L26,19.707Zm0-4L18.293,26H15.707L26,15.707Zm0-4L14.293,26H13.5a.5.5,0,0,1-.5-.5v-.793L24.707,13H25.5a.5.5,0,0,1,.5.5Z" style="fill:#009688"/></svg>