<svg width="35" height="35" viewBox="0 0 35 35" fill="none" xmlns="http://www.w3.org/2000/svg">
<path fill-rule="evenodd" clip-rule="evenodd" d="M17.4801 3C9.48294 3 3 9.48294 3 17.4801C3 25.4772 9.48294 31.9601 17.4801 31.9601C25.4772 31.9601 31.9601 25.4772 31.9601 17.4801C31.9601 9.48294 25.4772 3 17.4801 3ZM1 17.4801C1 8.37837 8.37837 1 17.4801 1C26.5817 1 33.9601 8.37837 33.9601 17.4801C33.9601 26.5817 26.5817 33.9601 17.4801 33.9601C8.37837 33.9601 1 26.5817 1 17.4801Z" fill="black"/>
<path fill-rule="evenodd" clip-rule="evenodd" d="M2.99897 17.4328C2.97507 16.9017 2.53696 16.4785 2 16.4785C1.44772 16.4785 1 16.9262 1 17.4785C1 18.0435 1.26141 18.5072 1.58135 18.8534C1.89569 19.1934 2.31077 19.4719 2.75976 19.7053C3.65972 20.1731 4.89555 20.5611 6.33679 20.8745C9.23581 21.5047 13.1905 21.8794 17.5192 21.8794C21.8496 21.8794 25.795 21.4946 28.6843 20.8593C30.1208 20.5434 31.3506 20.1541 32.2456 19.6888C32.6919 19.4567 33.1045 19.1807 33.4172 18.8446C33.7346 18.5036 33.9992 18.0427 33.9992 17.4785C33.9992 16.9262 33.5515 16.4785 32.9992 16.4785C32.465 16.4785 32.0286 16.8974 32.0006 17.4247C31.992 17.4372 31.9772 17.4563 31.9531 17.4821C31.854 17.5886 31.6592 17.7395 31.323 17.9143C30.6532 18.2625 29.6182 18.6061 28.2548 18.906C25.5443 19.502 21.7497 19.8794 17.5192 19.8794C13.2868 19.8794 9.48198 19.5115 6.76165 18.9201C5.39323 18.6226 4.35445 18.2801 3.68221 17.9307C3.34511 17.7555 3.14969 17.6036 3.05006 17.4958C3.02315 17.4667 3.00754 17.4458 2.99897 17.4328ZM32.0116 17.4066C32.0117 17.4066 32.0112 17.4076 32.0101 17.4098C32.0109 17.4077 32.0115 17.4066 32.0116 17.4066ZM2.99134 17.4201C2.9901 17.4177 2.98966 17.4166 2.98974 17.4166C2.98983 17.4166 2.99045 17.4178 2.99134 17.4201Z" fill="black"/>
<path fill-rule="evenodd" clip-rule="evenodd" d="M2.99897 17.4462C2.97505 17.9772 2.53694 18.4004 2 18.4004C1.44772 18.4004 1 17.9527 1 17.4004C1 16.8516 1.24704 16.3974 1.55463 16.0549C1.85623 15.719 2.25433 15.444 2.68373 15.2138C3.17046 14.9528 3.7766 15.1358 4.03759 15.6225C4.29858 16.1092 4.11559 16.7154 3.62886 16.9764C3.31303 17.1457 3.13299 17.2906 3.04274 17.3911C3.02025 17.4162 3.00672 17.4344 2.99897 17.4462ZM2.99117 17.4591C2.99011 17.4612 2.98972 17.4622 2.98978 17.4622C2.98985 17.4622 2.99039 17.4611 2.99117 17.4591ZM32.9992 18.4004C33.5515 18.4004 33.9992 17.9527 33.9992 17.4004C33.9992 16.8495 33.7467 16.3965 33.4393 16.0582C33.137 15.7257 32.7384 15.4525 32.3083 15.2231C31.8209 14.9633 31.2152 15.1477 30.9553 15.635C30.6955 16.1223 30.8799 16.728 31.3672 16.9879C31.6858 17.1578 31.8679 17.3029 31.9592 17.4034C31.9797 17.4259 31.9927 17.4428 32.0006 17.4542C32.0286 17.9815 32.465 18.4004 32.9992 18.4004ZM32.0116 17.4722C32.0116 17.4722 32.0112 17.4713 32.0102 17.4694C32.011 17.4713 32.0115 17.4722 32.0116 17.4722ZM28.4755 14.9811C28.5761 14.4381 28.2174 13.9163 27.6744 13.8157C26.5581 13.6089 25.3176 13.4365 23.9844 13.3042C23.4348 13.2496 22.9451 13.651 22.8906 14.2006C22.836 14.7501 23.2374 15.2399 23.7869 15.2944C25.073 15.422 26.2571 15.5872 27.31 15.7822C27.8531 15.8828 28.3749 15.5242 28.4755 14.9811ZM6.53186 14.9689C6.63139 15.5122 7.15246 15.8719 7.6957 15.7724C8.75236 15.5788 9.94056 15.4155 11.2307 15.2897C11.7804 15.2361 12.1825 14.747 12.1289 14.1973C12.0753 13.6477 11.5863 13.2455 11.0366 13.2991C9.69982 13.4295 8.45536 13.5999 7.33527 13.8051C6.79203 13.9046 6.43233 14.4257 6.53186 14.9689ZM20.341 14.0485C20.3552 13.4964 19.9192 13.0373 19.3671 13.0231C18.7609 13.0075 18.1443 12.9995 17.5192 12.9995C16.8926 12.9995 16.2744 13.0073 15.6665 13.0226C15.1144 13.0365 14.678 13.4954 14.692 14.0475C14.7059 14.5996 15.1647 15.0359 15.7168 15.022C16.3078 15.0071 16.9093 14.9995 17.5192 14.9995C18.1272 14.9995 18.7267 15.0073 19.3156 15.0224C19.8677 15.0366 20.3268 14.6006 20.341 14.0485Z" fill="black"/>
</svg>
