<svg width="40" height="40" viewBox="0 0 40 40" fill="none" xmlns="http://www.w3.org/2000/svg">
<path fill-rule="evenodd" clip-rule="evenodd" d="M32 10.0488H3V9.04883H32V10.0488Z" fill="#B6B6B6"/>
<path fill-rule="evenodd" clip-rule="evenodd" d="M32 16.1914H3V15.1914H32V16.1914Z" fill="#B6B6B6"/>
<path fill-rule="evenodd" clip-rule="evenodd" d="M25.7426 22.5342H3V21.5342H25.7426V22.5342Z" fill="#B6B6B6"/>
<path fill-rule="evenodd" clip-rule="evenodd" d="M21.1312 28.6768L3.00004 28.6775L3 27.6775L21.1312 27.6768L21.1312 28.6768Z" fill="#B6B6B6"/>
<path fill-rule="evenodd" clip-rule="evenodd" d="M27.0449 21.2156L27.0449 4L28.0449 4L28.0449 21.2156L27.0449 21.2156Z" fill="#B6B6B6"/>
<path fill-rule="evenodd" clip-rule="evenodd" d="M21.1064 33L21.1064 4L22.1064 4L22.1064 33L21.1064 33Z" fill="#B6B6B6"/>
<path fill-rule="evenodd" clip-rule="evenodd" d="M14.9678 33L14.9678 4L15.9678 4L15.9678 33L14.9678 33Z" fill="#B6B6B6"/>
<path fill-rule="evenodd" clip-rule="evenodd" d="M8.8291 33L8.8291 4L9.8291 4L9.8291 33L8.8291 33Z" fill="#B6B6B6"/>
<path fill-rule="evenodd" clip-rule="evenodd" d="M2.5 4C2.5 3.72386 2.72386 3.5 3 3.5H32C32.2761 3.5 32.5 3.72386 32.5 4V20.9086C32.5 21.1847 32.2761 21.4086 32 21.4086C31.7239 21.4086 31.5 21.1847 31.5 20.9086V4.5H3.5V32.5H23.5196C23.7958 32.5 24.0196 32.7239 24.0196 33C24.0196 33.2761 23.7958 33.5 23.5196 33.5H3C2.72386 33.5 2.5 33.2761 2.5 33V4Z" fill="#B6B6B6"/>
<path fill-rule="evenodd" clip-rule="evenodd" d="M29.594 21.5C25.7846 21.5 22.688 24.6204 22.688 28.4801C22.688 32.3398 25.7846 35.4602 29.594 35.4602C33.4034 35.4602 36.5 32.3398 36.5 28.4801C36.5 24.6204 33.4034 21.5 29.594 21.5ZM21.688 28.4801C21.688 24.0775 25.223 20.5 29.594 20.5C33.965 20.5 37.5 24.0775 37.5 28.4801C37.5 32.8826 33.965 36.4602 29.594 36.4602C25.2229 36.4602 21.688 32.8826 21.688 28.4801Z" fill="#009688"/>
<path fill-rule="evenodd" clip-rule="evenodd" d="M24.0107 28.4805C24.0107 28.2043 24.2346 27.9805 24.5107 27.9805H34.6716C34.9478 27.9805 35.1716 28.2043 35.1716 28.4805C35.1716 28.7566 34.9478 28.9805 34.6716 28.9805H24.5107C24.2346 28.9805 24.0107 28.7566 24.0107 28.4805Z" fill="#009688"/>
<path fill-rule="evenodd" clip-rule="evenodd" d="M29.5938 22.8438C29.8699 22.8438 30.0938 23.0676 30.0938 23.3438V33.6116C30.0938 33.8877 29.8699 34.1116 29.5938 34.1116C29.3176 34.1116 29.0938 33.8877 29.0938 33.6116V23.3438C29.0938 23.0676 29.3176 22.8438 29.5938 22.8438Z" fill="#009688"/>
</svg>
