<svg width="40" height="40" viewBox="0 0 40 40" fill="none" xmlns="http://www.w3.org/2000/svg">
<path d="M17.7751 17.6621H6.8252V35.4297H17.7751V17.6621Z" fill="#B9C7CE"/>
<path d="M17.7751 17.6621H6.8252V35.4297H17.7751V17.6621Z" stroke="#323A3D" stroke-miterlimit="10" stroke-linejoin="round"/>
<path d="M17.7751 17.6621H6.8252V35.4297H17.7751V17.6621Z" stroke="black" stroke-opacity="0.2" stroke-miterlimit="10" stroke-linejoin="round"/>
<path d="M9.06456 17.6621L6.8252 19.941" stroke="#323A3D" stroke-miterlimit="10" stroke-linejoin="round"/>
<path d="M9.06456 17.6621L6.8252 19.941" stroke="black" stroke-opacity="0.2" stroke-miterlimit="10" stroke-linejoin="round"/>
<path d="M12.4481 17.6621L6.88721 23.321" stroke="#323A3D" stroke-width="0.6" stroke-miterlimit="10" stroke-linejoin="round"/>
<path d="M12.4481 17.6621L6.88721 23.321" stroke="black" stroke-opacity="0.2" stroke-width="0.6" stroke-miterlimit="10" stroke-linejoin="round"/>
<path d="M15.8342 17.6621L6.8252 26.8278" stroke="#323A3D" stroke-width="0.6" stroke-miterlimit="10" stroke-linejoin="round"/>
<path d="M15.8342 17.6621L6.8252 26.8278" stroke="black" stroke-opacity="0.2" stroke-width="0.6" stroke-miterlimit="10" stroke-linejoin="round"/>
<path d="M17.8245 19.0781L6.8252 30.2735" stroke="#323A3D" stroke-width="0.6" stroke-miterlimit="10" stroke-linejoin="round"/>
<path d="M17.8245 19.0781L6.8252 30.2735" stroke="black" stroke-opacity="0.2" stroke-width="0.6" stroke-miterlimit="10" stroke-linejoin="round"/>
<path d="M17.7751 22.5742L6.8252 33.7172" stroke="#323A3D" stroke-width="0.6" stroke-miterlimit="10" stroke-linejoin="round"/>
<path d="M17.7751 22.5742L6.8252 33.7172" stroke="black" stroke-opacity="0.2" stroke-width="0.6" stroke-miterlimit="10" stroke-linejoin="round"/>
<path d="M17.8074 25.9844L8.52783 35.4297" stroke="#323A3D" stroke-width="0.6" stroke-miterlimit="10" stroke-linejoin="round"/>
<path d="M17.8074 25.9844L8.52783 35.4297" stroke="black" stroke-opacity="0.2" stroke-width="0.6" stroke-miterlimit="10" stroke-linejoin="round"/>
<path d="M17.7747 29.4609L11.9111 35.4301" stroke="#323A3D" stroke-width="0.6" stroke-miterlimit="10" stroke-linejoin="round"/>
<path d="M17.7747 29.4609L11.9111 35.4301" stroke="black" stroke-opacity="0.2" stroke-width="0.6" stroke-miterlimit="10" stroke-linejoin="round"/>
<path d="M17.7748 32.9062L15.2949 35.4298" stroke="#323A3D" stroke-width="0.6" stroke-miterlimit="10" stroke-linejoin="round"/>
<path d="M17.7748 32.9062L15.2949 35.4298" stroke="black" stroke-opacity="0.2" stroke-width="0.6" stroke-miterlimit="10" stroke-linejoin="round"/>
<path d="M22.0261 17.6622V35.4297H35.8831V17.6622V14.0046V4H5V17.6622H22.0261Z" stroke="#323A3D" stroke-miterlimit="10" stroke-linejoin="round"/>
<path d="M22.0261 17.6622V35.4297H35.8831V17.6622V14.0046V4H5V17.6622H22.0261Z" stroke="black" stroke-opacity="0.2" stroke-miterlimit="10" stroke-linejoin="round"/>
</svg>
