<?xml version="1.0" encoding="UTF-8"?><svg id="a" xmlns="http://www.w3.org/2000/svg" width="40" height="40" viewBox="0 0 40 40"><path d="M34.87,23.38c.4-.64.14-1.31-.32-1.65-.47-.33-1.19-.36-1.66.22l-5.27,6.49c-.1,0-.19-.03-.29-.03-1.79,0-3.25,1.46-3.25,3.25,0,1.46-.84,1.97-1.2,2.19-.14.09-.47.29-.36.67.11.39.45.39.96.39h4.4v-.05c1.53-.26,2.7-1.6,2.7-3.21,0-.59-.17-1.14-.45-1.62l.37.23,4.36-6.91ZM27.33,33.93h-2.99c.39-.48.74-1.19.74-2.25,0-1.24,1.01-2.25,2.25-2.25s2.25,1.01,2.25,2.25-1.01,2.25-2.25,2.25ZM28.68,28.72l4.98-6.13c.11-.14.22-.1.3-.04.08.06.15.15.06.3l-4.24,6.71c-.3-.35-.67-.64-1.1-.84Z" style="fill:#009688;"/><path d="M33.5,35h-1c-.28,0-.5-.22-.5-.5s.22-.5.5-.5h1c.28,0,.5-.22.5-.5v-5c0-.28.22-.5.5-.5s.5.22.5.5v5c0,.83-.67,1.5-1.5,1.5ZM35,18.5V5.5c0-.83-.67-1.5-1.5-1.5H5.5c-.83,0-1.5.67-1.5,1.5v2c0,.28.22.5.5.5s.5-.22.5-.5v-2c0-.28.22-.5.5-.5h28c.28,0,.5.22.5.5v13c0,.28.22.5.5.5s.5-.22.5-.5ZM20,34.5c0-.28-.22-.5-.5-.5H5.5c-.28,0-.5-.22-.5-.5v-2c0-.28-.22-.5-.5-.5s-.5.22-.5.5v2c0,.83.67,1.5,1.5,1.5h14c.28,0,.5-.22.5-.5ZM5,13h-1v1h1v-1ZM5,19h-1v1h1v-1ZM5,25h-1v1h1v-1Z" style="fill:#2b3436;"/><path d="M9,14h-2v-1h2v1ZM15,13h-4v1h4v-1ZM13,10h-4v1h4v-1ZM19,10h-4v1h4v-1ZM24,10h-3v1h3v-1ZM11,7h-4v1h4v-1ZM17,7h-4v1h4v-1ZM21,7h-2v1h2v-1ZM7,10h-2v1h2v-1ZM22,13h-5v1h5v-1ZM28,13h-4v1h4v-1ZM11,19h-4v1h4v-1ZM17,19h-4v1h4v-1ZM14,16h-4v1h4v-1ZM20,16h-4v1h4v-1ZM26,16h-4v1h4v-1ZM8,16h-3v1h3v-1ZM23,19h-4v1h4v-1ZM9,25h-2v1h2v-1ZM20,25h-3v1h3v-1ZM15,25h-4v1h4v-1ZM13,22h-4v1h4v-1ZM22,22h-1v1h1v-1ZM19,22h-4v1h4v-1ZM7,22h-2v1h2v-1ZM13,28h-4v1h4v-1ZM11,31h-4v1h4v-1ZM14,31h-1v1h1v-1ZM7,28h-2v1h2v-1ZM17,28h-2v1h2v-1Z" style="fill:#009688;"/></svg>