<svg width="30" height="22" viewBox="0 0 30 22" fill="none" xmlns="http://www.w3.org/2000/svg">
<path fill-rule="evenodd" clip-rule="evenodd" d="M6.51452 4.99991C5.66891 4.99991 4.99995 5.66991 4.99995 6.47171V15.6783C4.99995 16.4801 5.66891 17.1501 6.51452 17.1501H23.0855C23.9311 17.1501 24.6001 16.4801 24.6001 15.6783V6.47171C24.6001 5.66991 23.9311 4.99991 23.0855 4.99991H6.51452ZM4 6.47171C4 5.09757 5.13697 4 6.51452 4H23.0855C24.463 4 25.6 5.09757 25.6 6.47171V15.6783C25.6 17.0524 24.463 18.15 23.0855 18.15H6.51452C5.13697 18.15 4 17.0524 4 15.6783V6.47171Z" fill="#eb4949"/>
<path d="M10.3222 10.1983H6.73835V11.9506H10.3222V10.1983Z" fill="#eb4949"/>
<path d="M13.9034 10.1983H12.113V11.9506H13.9034V10.1983Z" fill="#eb4949"/>
<path d="M17.4869 10.1983H15.6966V11.9506H17.4869V10.1983Z" fill="#eb4949"/>
<path d="M15.6971 7.13181H13.9067V8.88414H15.6971V7.13181Z" fill="#eb4949"/>
<path d="M12.1128 7.13181H10.3225V8.88414H12.1128V7.13181Z" fill="#eb4949"/>
<path d="M8.52929 7.13181H6.73893V8.88414H8.52929V7.13181Z" fill="#eb4949"/>
<path d="M19.2779 7.13181H17.4876V8.88414H19.2779V7.13181Z" fill="#eb4949"/>
<path d="M21.071 7.13181V10.2007H19.2807V11.953H22.8614V11.0784V10.2007V7.13181H21.071Z" fill="#eb4949"/>
<path d="M8.52871 13.2681H6.73835V15.0204H8.52871V13.2681Z" fill="#eb4949"/>
<path d="M19.2806 13.2681H10.3226V15.0204H19.2806V13.2681Z" fill="#eb4949"/>
<path d="M22.8609 13.2681H21.0705V15.0204H22.8609V13.2681Z" fill="#eb4949"/>
</svg>
