<svg width="40" height="41" viewBox="0 0 40 41" fill="none" xmlns="http://www.w3.org/2000/svg">
<path fill-rule="evenodd" clip-rule="evenodd" d="M8.84595 14.3015C9.24443 14.4643 9.30707 14.8898 9.30707 15.1236V18.3529C9.30707 18.4739 9.40721 18.574 9.52806 18.574H12.156C12.8293 18.574 13.377 19.1219 13.377 19.7951V21.2268C13.377 21.9 12.8293 22.4479 12.156 22.4479H9.52806C9.40721 22.4479 9.30707 22.548 9.30707 22.669V25.9035C9.30707 26.1374 9.24443 26.5628 8.84595 26.7256C8.45003 26.8874 8.10697 26.6316 7.94149 26.466L2.85937 21.3779C2.37779 20.9031 2.38315 20.1257 2.85783 19.6508L7.94131 14.5613C8.10679 14.3958 8.45003 14.1398 8.84595 14.3015ZM8.30707 15.6101L3.56536 20.3574C3.47661 20.4462 3.48123 20.5871 3.56186 20.6662L3.56537 20.6697L8.30707 25.417V22.669C8.30707 21.9958 8.85478 21.4479 9.52806 21.4479H12.156C12.2768 21.4479 12.377 21.3479 12.377 21.2268V19.7951C12.377 19.674 12.2768 19.574 12.156 19.574H9.52806C8.85478 19.574 8.30707 19.0261 8.30707 18.3529V15.6101Z" fill="#00AE42"/>
<path fill-rule="evenodd" clip-rule="evenodd" d="M20.8689 3.35801C20.869 3.35807 20.8689 3.35795 20.8689 3.35801L25.9574 8.44208C26.1229 8.60762 26.3788 8.95083 26.2171 9.34668C26.0544 9.74518 25.629 9.80787 25.395 9.80787H22.1663C22.0455 9.80787 21.9453 9.90791 21.9453 10.029V10.529H21.9349V12.6573C21.9349 13.3305 21.3872 13.8784 20.7139 13.8784H19.2876C18.6143 13.8784 18.0666 13.3305 18.0666 12.6573V10.029C18.0666 9.90791 17.9665 9.80787 17.8456 9.80787H14.6169C14.383 9.80787 13.9575 9.74518 13.7948 9.34668C13.6331 8.95083 13.8888 8.6078 14.0543 8.44226L19.1417 3.35934C19.6165 2.87767 20.394 2.88322 20.8689 3.35801ZM21.0524 9.52897C21.2438 9.10429 21.6711 8.80787 22.1663 8.80787H24.9087L20.162 4.06524C20.0733 3.97653 19.9325 3.98115 19.8534 4.06174L19.85 4.06526L15.1032 8.80787H17.8456C18.5189 8.80787 19.0666 9.35578 19.0666 10.029V12.6573C19.0666 12.7784 19.1667 12.8784 19.2876 12.8784H20.7139C20.8347 12.8784 20.9349 12.7784 20.9349 12.6573V9.52897H21.0524ZM25.2506 9.1495C25.2781 9.17697 25.2867 9.1915 25.2868 9.19144C25.2869 9.19141 25.2851 9.18818 25.2824 9.18158C25.2787 9.1724 25.273 9.15471 25.2695 9.13056L25.604 8.79579L25.395 9.00495" fill="#00AE42"/>
<path fill-rule="evenodd" clip-rule="evenodd" d="M18.0826 28.3637C18.0826 27.6905 18.6303 27.1426 19.3035 27.1426H20.7298C21.4031 27.1426 21.9508 27.6905 21.9508 28.3637V30.992C21.9508 31.1131 22.051 31.2131 22.1718 31.2131H25.4006C25.6345 31.2131 26.0599 31.2758 26.2227 31.6743C26.3843 32.0702 26.1287 32.4132 25.9631 32.5787L20.8758 37.6616C20.4009 38.1434 19.6234 38.138 19.1485 37.663L14.06 32.5789C13.8945 32.4134 13.6386 32.0702 13.8003 31.6743C13.963 31.2758 14.3884 31.2131 14.6224 31.2131H17.8511C17.972 31.2131 18.0721 31.1131 18.0721 30.992V30.492H18.0826V28.3637ZM18.965 31.492C18.7736 31.9167 18.3463 32.2131 17.8511 32.2131H15.1087L19.8555 36.9557C19.9442 37.0445 20.0849 37.0398 20.164 36.9592L20.1674 36.9557L24.9142 32.2131H22.1718C21.4985 32.2131 20.9508 31.6652 20.9508 30.992V28.3637C20.9508 28.2426 20.8507 28.1426 20.7298 28.1426H19.3035C19.1827 28.1426 19.0826 28.2426 19.0826 28.3637V31.492H18.965Z" fill="#00AE42"/>
<path fill-rule="evenodd" clip-rule="evenodd" d="M31.1759 14.3015C31.5719 14.1398 31.9149 14.3956 32.0804 14.5611L37.1625 19.6492C37.6442 20.1242 37.6387 20.9017 37.1639 21.3766L32.0804 26.4556C32.0803 26.4557 32.0805 26.4556 32.0804 26.4556C31.9148 26.6211 31.5717 26.8769 31.1759 26.7152C30.7775 26.5524 30.7148 26.1269 30.7148 25.8931V22.6638C30.7148 22.5428 30.6147 22.4427 30.4938 22.4427H27.8659C27.1926 22.4427 26.6449 21.8948 26.6449 21.2216V19.7951C26.6449 19.1219 27.1926 18.574 27.8659 18.574H30.4938C30.6147 18.574 30.7148 18.474 30.7148 18.3529V15.1237C30.7148 14.8898 30.7775 14.4643 31.1759 14.3015ZM31.7148 15.6101L36.4565 20.3575L36.46 20.3609C36.5407 20.4401 36.5455 20.5808 36.4567 20.6695L31.7148 25.4073V22.6638C31.7148 21.9906 31.1671 21.4427 30.4938 21.4427H27.8659C27.745 21.4427 27.6449 21.3427 27.6449 21.2216V19.7951C27.6449 19.6741 27.745 19.574 27.8659 19.574H30.4938C31.1671 19.574 31.7148 19.0261 31.7148 18.3529V15.6101Z" fill="#00AE42"/>
<path fill-rule="evenodd" clip-rule="evenodd" d="M17.6124 19.0117C17.6124 18.5204 18.0096 18.1094 18.5147 18.1094H21.5084C22.0135 18.1094 22.4107 18.5204 22.4107 19.0117V22.0058C22.4107 22.4971 22.0135 22.9082 21.5084 22.9082H18.5147C18.0233 22.9082 17.6124 22.5108 17.6124 22.0058V19.0117ZM18.6124 19.1094V21.9082H21.4107V19.1094H18.6124Z" fill="#262E30"/>
</svg>
