<svg xmlns="http://www.w3.org/2000/svg" viewBox="0 0 40 40"><path d="M34.92,10.25l0-.05a.45.45,0,0,0-.2-.16h0l-15-6a.5.5,0,0,0-.38,0l-15,6s0,0,0,0l0,0,0,0-.1.12,0,0a.54.54,0,0,0,0,.22H4v18a.49.49,0,0,0,.31.46l15,6a.43.43,0,0,0,.19,0,.46.46,0,0,0,.19,0l5.71-2.28a.5.5,0,1,0-.37-.93l-5,2V16.84l14-5.6V21.5a.5.5,0,0,0,1,0v-11A.44.44,0,0,0,34.92,10.25ZM19,33.76,5,28.16V11.24l14,5.6ZM19.5,16,5.85,10.5,19.5,5,33.15,10.5Z" style="fill:#2b3436"/><path d="M35,27.31a.36.36,0,0,0-.11-.16L33,25.29V24.5a.5.5,0,0,0-.5-.5h-1a.5.5,0,0,0-.5.5v.79l-1.85,1.86a.36.36,0,0,0-.11.16.41.41,0,0,0,0,.19v6A1.5,1.5,0,0,0,30.5,35h3A1.5,1.5,0,0,0,35,33.5v-6A.41.41,0,0,0,35,27.31ZM31.71,26h.58l1,1H30.71Zm1.79,8h-3a.5.5,0,0,1-.5-.5V28h4v5.5A.5.5,0,0,1,33.5,34ZM29,25H28V24h1Zm-3-2h1v1H26Zm0,2h1v1H26Zm-2-1h1v1H24Zm0,2h1v1H24Zm0-4h1v1H24Zm-2,1h1v1H22Zm0,2h1v1H22Zm0,2h1v1H22Zm0-6h1v1H22ZM11,14h1v1H11Zm-1,1h1v1H10Zm1-2v1H10V13Zm0,4V16h1v1Zm-1,2h1v1H10Zm1,2V20h1v1Zm-1,2h1v1H10Zm1,2V24h1v1Zm-1-4h1v1H10Zm1,2V22h1v1Zm-1-6h1v1H10Zm1,2V18h1v1Zm-1,6h1v1H10Zm1,2V26h1v1Zm-1,0h1v1H10Zm1,2V28h1v1Zm0,2V30h1v1Zm-1-2h1v1H10Z" style="fill:#009688"/></svg>