<svg width="40" height="40" viewBox="0 0 40 40" fill="none" xmlns="http://www.w3.org/2000/svg">
<path fill-rule="evenodd" clip-rule="evenodd" d="M5.5 4.5V8.94653H13.3165C13.8704 8.94653 14.3091 9.39686 14.3091 9.94413V34.7513H19.9173V9.94413C19.9173 9.39686 20.3561 8.94653 20.91 8.94653H28.7479V4.5H5.5ZM4.5 4.4976C4.5 3.95033 4.93873 3.5 5.49267 3.5H28.7552C29.3092 3.5 29.7479 3.95033 29.7479 4.4976V8.94894C29.7479 9.49623 29.3092 9.94653 28.7552 9.94653H20.9173V34.7537C20.9173 35.3009 20.4786 35.7513 19.9247 35.7513H14.3018C13.7478 35.7513 13.3091 35.3009 13.3091 34.7537V9.94653H5.49267C4.93875 9.94653 4.5 9.49623 4.5 8.94894V4.4976Z" fill="#009688"/>
<path fill-rule="evenodd" clip-rule="evenodd" d="M30.6776 23.1992C30.0687 23.1992 29.3174 23.2852 28.4194 23.4751L28.418 23.4754C27.6747 23.6302 27.0728 23.8232 26.6097 24.0434V25.609C27.7458 24.9864 28.949 24.671 30.2171 24.671C30.9887 24.671 31.6595 24.849 32.1508 25.282C32.6485 25.7205 32.8831 26.3506 32.9227 27.0858L32.9228 27.0891C32.9412 27.479 32.6447 27.7899 32.2966 27.8401L32.2926 27.8407L29.1512 28.2677C29.1508 28.2678 29.1505 28.2678 29.1502 28.2679C27.8223 28.4541 26.8965 28.8651 26.3047 29.4484C25.7237 30.0211 25.4102 30.8138 25.4102 31.8885C25.4102 32.9226 25.7165 33.6844 26.2945 34.2368L26.2959 34.2381C26.8743 34.7952 27.6663 35.0935 28.7176 35.0935C30.135 35.0935 31.1884 34.4959 31.9294 33.2501L32.0748 33.0057H32.902V34.796H35.2864V27.8699C35.2864 26.2229 34.8795 25.0789 34.1535 24.3439C33.4286 23.6101 32.3018 23.1992 30.6776 23.1992ZM28.2133 22.4965C29.1572 22.297 29.9801 22.1992 30.6776 22.1992C32.4593 22.1992 33.8869 22.6511 34.8649 23.6412C35.8418 24.6302 36.2864 26.0716 36.2864 27.8699V35.0526C36.2864 35.4594 35.96 35.796 35.5454 35.796H32.6429C32.2283 35.796 31.902 35.4594 31.902 35.0526V34.8882C31.06 35.6882 29.9909 36.0935 28.7176 36.0935C27.4666 36.0935 26.406 35.7321 25.6029 34.9591C24.7891 34.181 24.4102 33.1366 24.4102 31.8885C24.4102 30.6051 24.7928 29.5346 25.6027 28.7362C26.4018 27.9485 27.5615 27.4807 29.0124 27.2774L29.0144 27.2771L31.899 26.885C31.838 26.475 31.6885 26.2074 31.4897 26.0322C31.246 25.8175 30.8485 25.671 30.2171 25.671C28.983 25.671 27.816 26.0148 26.7022 26.714L26.7003 26.7152C26.2172 27.0155 25.6097 26.6537 25.6097 26.1013V23.8729C25.6097 23.6204 25.7426 23.3699 25.9833 23.2389L25.9896 23.2355C26.5797 22.9256 27.3293 22.6807 28.2133 22.4965ZM32.9287 28.8587V30.3038C32.9287 31.1881 32.6554 31.9555 32.0921 32.5761C31.5228 33.2034 30.7922 33.519 29.9279 33.519C29.3131 33.519 28.7589 33.3526 28.3338 32.9677C27.907 32.5812 27.7035 32.0675 27.7035 31.4829C27.7035 30.8652 27.9074 30.3262 28.3488 29.9241C28.7739 29.5367 29.3683 29.3233 30.0647 29.2295L30.0672 29.2292L32.9287 28.8587ZM30.1981 30.2206C30.1977 30.2207 30.1973 30.2207 30.1968 30.2208C29.6087 30.3001 29.2395 30.4653 29.0223 30.6633C28.821 30.8466 28.7035 31.1 28.7035 31.4829C28.7035 31.8177 28.8107 32.0504 29.0051 32.2264C29.2012 32.4041 29.493 32.519 29.9279 32.519C30.5201 32.519 30.9784 32.3153 31.3516 31.9041C31.7308 31.4863 31.9287 30.9663 31.9287 30.3038V29.9965L30.1981 30.2206Z" fill="#B6B6B6"/>
</svg>
