<svg width="35" height="35" viewBox="0 0 35 35" fill="none" xmlns="http://www.w3.org/2000/svg">
<path fill-rule="evenodd" clip-rule="evenodd" d="M17.0007 3.15607C17.0007 3.15609 17.0008 3.15605 17.0007 3.15607L5.26748 9.97446C5.0759 10.0857 4.8723 10.2988 4.71546 10.5713C4.55862 10.8438 4.47656 11.127 4.47656 11.349V24.4715C4.47656 24.6929 4.55879 24.9752 4.71606 25.2472C4.87328 25.5192 5.07737 25.7322 5.26956 25.8438L17.1143 32.6992C17.3061 32.8102 17.5904 32.8795 17.902 32.8782C18.2136 32.8768 18.4968 32.8049 18.6868 32.6927L30.2729 25.8523C30.2729 25.8522 30.2729 25.8523 30.2729 25.8523C30.4645 25.739 30.6677 25.524 30.8242 25.2501C30.9806 24.9761 31.0625 24.6919 31.0625 24.4693V11.2435C31.0625 11.0216 30.9805 10.7392 30.8238 10.4679C30.667 10.1966 30.4635 9.98491 30.2715 9.87455L18.582 3.15275C18.3912 3.04273 18.1054 2.97271 17.7915 2.97339C17.4777 2.97408 17.192 3.045 17.0007 3.15607ZM19.0809 2.28613C18.7002 2.0665 18.2304 1.97243 17.7893 1.9734C17.3481 1.97436 16.8787 2.07053 16.4985 2.29133L4.76515 9.10978C4.76519 9.10976 4.76511 9.1098 4.76515 9.10978C4.38527 9.33044 4.06884 9.69007 3.84874 10.0725C3.6286 10.455 3.47656 10.9093 3.47656 11.349V24.4715C3.47656 24.9118 3.62953 25.3658 3.85033 25.7477C4.07118 26.1297 4.38804 26.4882 4.76735 26.7085L16.6135 33.5647C16.9954 33.7857 17.4651 33.8801 17.9064 33.8782C18.3475 33.8762 18.8161 33.7778 19.1954 33.5537L30.7814 26.7133C31.1591 26.4902 31.4737 26.1292 31.6925 25.746C31.9114 25.3627 32.0625 24.9084 32.0625 24.4693V11.2435C32.0625 10.8037 31.9104 10.3497 31.6896 9.96764C31.4689 9.58563 31.1515 9.22695 30.7698 9.00759C30.7699 9.00761 30.7698 9.00757 30.7698 9.00759L19.0809 2.28613C19.081 2.28616 19.0809 2.2861 19.0809 2.28613Z" fill="#262E30"/>
<path fill-rule="evenodd" clip-rule="evenodd" d="M6.3957 11.3642C6.53284 11.1245 6.83831 11.0414 7.07799 11.1785L16.9733 16.8405C17.3553 17.0587 17.6738 17.4171 17.8953 17.7985C18.1169 18.1801 18.2703 18.6338 18.2717 19.0733L18.2893 30.4075C18.2897 30.6837 18.0662 30.9079 17.7901 30.9083C17.5139 30.9087 17.2897 30.6852 17.2893 30.4091L17.2717 19.0767C17.2717 19.0764 17.2717 19.0769 17.2717 19.0767C17.2708 18.8547 17.1879 18.5717 17.0305 18.3007C16.8729 18.0294 16.6691 17.8183 16.4776 17.709L6.58136 12.0465C6.34168 11.9093 6.25855 11.6039 6.3957 11.3642Z" fill="#262E30"/>
<path fill-rule="evenodd" clip-rule="evenodd" d="M29.6625 11.8015C29.786 12.0485 29.6859 12.3489 29.4389 12.4723L20.3956 16.994C20.1486 17.1175 19.8483 17.0174 19.7248 16.7704C19.6013 16.5234 19.7014 16.2231 19.9484 16.0996L28.9917 11.5779C29.2387 11.4544 29.539 11.5545 29.6625 11.8015Z" fill="#262E30"/>
</svg>
