<svg xmlns="http://www.w3.org/2000/svg" width="40" height="40" viewBox="0 0 40 40"><path d="M22.5,29a.5.5,0,0,1-.354-.146l-12-12a.5.5,0,0,1,.708-.708L22.5,27.793,33.793,16.5,22.146,4.854a.5.5,0,0,1,.708-.708l12,12a.5.5,0,0,1,0,.708l-12,12A.5.5,0,0,1,22.5,29Z" style="fill:#b6b6b6"/><path d="M10.146,16.146l12-12a.5.5,0,0,1,.708.708l-12,12a.5.5,0,0,1-.708-.708ZM23,10.5a.5.5,0,0,0-1,0v4.793l-3.146-3.147a.5.5,0,0,0-.708.708L21.293,16H16.5a.5.5,0,0,0,0,1h4.793l-3.147,3.146a.5.5,0,0,0,.708.708L22,17.707V22.5a.5.5,0,0,0,1,0V17.707l3.146,3.147a.5.5,0,0,0,.708-.708L23.707,17H28.5a.5.5,0,0,0,0-1H23.707l3.147-3.146a.5.5,0,0,0-.708-.708L23,15.293ZM8.146,30.854a.5.5,0,0,0,.708,0l4-4a.5.5,0,0,0-.708-.708L9,29.293V16.5a.481.481,0,0,0-.077-.25A.481.481,0,0,0,9,16a6.006,6.006,0,0,1,6-6,.5.5,0,0,0,0-1,7.008,7.008,0,0,0-7,7,.481.481,0,0,0,.077.25A.481.481,0,0,0,8,16.5V29.293L4.854,26.146a.5.5,0,0,0-.708.708ZM35,34H4v1H35Z" style="fill:#009688"/></svg>