<svg xmlns="http://www.w3.org/2000/svg" width="40" height="40" viewBox="0 0 40 40"><path d="M14.964,29.114a.5.5,0,0,1-.278.65l-1.991.8h0l-2,.8,0,0-.006,0a.5.5,0,0,1-.372,0l-.006,0,0,0-4-1.6h0l-1.991-.8A.5.5,0,0,1,4,28.5v-13a.5.5,0,0,1,1,0V28.161l1,.4V16.3a.5.5,0,0,1,1,0V28.962l1,.4V17.1a.5.5,0,0,1,1,0V29.762l1,.4V17.9a.5.5,0,0,1,1,0V30.162l1-.4V18.7a.5.5,0,0,1,1,0V29.362l1.314-.526A.5.5,0,0,1,14.964,29.114ZM35,27.5v6A1.5,1.5,0,0,1,33.5,35h-3A1.5,1.5,0,0,1,29,33.5v-6a.5.5,0,0,1,.038-.191.518.518,0,0,1,.109-.163L31,25.293V24.5a.5.5,0,0,1,.5-.5h1a.5.5,0,0,1,.5.5v.793l1.853,1.853a.518.518,0,0,1,.109.163A.5.5,0,0,1,35,27.5ZM30.707,27h2.586l-1-1h-.586ZM34,33.5V28H30v5.5a.5.5,0,0,0,.5.5h3A.5.5,0,0,0,34,33.5ZM29,24H28v1h1Zm-3,0h1V23H26Zm0,2h1V25H26Zm-2-1h1V24H24Zm0,2h1V26H24Zm0-4h1V22H24Zm-2,1h1V23H22Zm0,2h1V25H22Zm0,2h1V27H22Zm0-6h1V21H22Z" style="fill:#009688"/><path d="M34.923,10.25a.392.392,0,0,0-.033-.05.5.5,0,0,0-.2-.162l0,0-15-6a.5.5,0,0,0-.372,0l-15,6a.451.451,0,0,0-.054.035c-.012.007-.028.007-.04.015s-.016.02-.026.028a.507.507,0,0,0-.1.117.591.591,0,0,0-.035.052A.5.5,0,0,0,4,10.5v5.01a.456.456,0,0,0,.027.132.513.513,0,0,0,.012.059.519.519,0,0,0,.042.062.539.539,0,0,0,.065.1.311.311,0,0,0,.038.025.467.467,0,0,0,.126.083l0,0L14,19.839V32.505a3.552,3.552,0,0,0,.04.192l0,.006a.492.492,0,0,0,.1.152l.012.008a.5.5,0,0,0,.152.1l0,0,5,2A.5.5,0,0,0,19.5,35a.508.508,0,0,0,.186-.036L25.4,32.678a.5.5,0,1,0-.371-.928L20,33.762V16.839l14-5.6V21.5a.5.5,0,0,0,1,0v-11A.481.481,0,0,0,34.923,10.25ZM19,33.762l-4-1.6V19.5a.456.456,0,0,0-.027-.132.513.513,0,0,0-.012-.059.519.519,0,0,0-.042-.062.539.539,0,0,0-.065-.1.311.311,0,0,0-.038-.025.467.467,0,0,0-.126-.083l0,0L5,15.161V11.238l14,5.6Zm.5-17.8L5.846,10.5,19.5,5.039,33.153,10.5Z" style="fill:#b6b6b6"/></svg>