<svg width="40" height="40" viewBox="0 0 40 40" fill="none" xmlns="http://www.w3.org/2000/svg">
<path fill-rule="evenodd" clip-rule="evenodd" d="M12.4347 23.836C12.5436 23.7271 12.4938 23.5412 12.3451 23.5014L3.33087 21.086C3.18216 21.0462 3.04608 21.1823 3.08592 21.331L5.50127 30.3452C5.54112 30.4939 5.72701 30.5437 5.83588 30.4348L12.4347 23.836ZM6.10857 28.7479L10.7478 24.1087L4.41048 22.4106L6.10857 28.7479Z" fill="#eb4949"/>
<path fill-rule="evenodd" clip-rule="evenodd" d="M7.89761 22.2056C8.40708 21.2816 9.0868 20.4596 9.90301 19.7842C10.7192 19.1087 11.6539 18.5948 12.6569 18.2672C12.7423 18.2393 12.8282 18.2128 12.9145 18.1876C12.9287 18.1835 12.9425 18.1788 12.956 18.1735C13.171 18.0893 13.3017 17.8618 13.2482 17.6334C13.1914 17.3906 12.9481 17.2388 12.7084 17.3073C12.6929 17.3118 12.6774 17.3163 12.6619 17.3208C12.5636 17.3494 12.4659 17.3796 12.3688 17.4115C11.2611 17.7743 10.229 18.3424 9.32737 19.0885C8.42574 19.8346 7.67454 20.7422 7.11088 21.7624C7.06145 21.8519 7.01346 21.9422 6.96694 22.0334C6.95961 22.0478 6.95231 22.0622 6.94505 22.0766C6.83287 22.2992 6.93647 22.5666 7.16432 22.6679C7.37872 22.7632 7.62664 22.6774 7.74958 22.4819C7.75729 22.4696 7.76451 22.4569 7.7712 22.4438C7.81209 22.3637 7.85424 22.2843 7.89761 22.2056Z" fill="#eb4949"/>
<path fill-rule="evenodd" clip-rule="evenodd" d="M35 33H8C7.44772 33 7 33.4477 7 34C7 34.5523 7.44772 35 8 35H35C35.5523 35 36 34.5523 36 34C36 33.4477 35.5523 33 35 33ZM8 32C6.89543 32 6 32.8954 6 34C6 35.1046 6.89543 36 8 36H35C36.1046 36 37 35.1046 37 34C37 32.8954 36.1046 32 35 32H8Z" fill="#B6B6B6"/>
<path fill-rule="evenodd" clip-rule="evenodd" d="M36.7718 9.22841L19.2288 5.1985L15.1988 22.7416L32.7419 26.7715L36.7718 9.22841ZM18.478 4L14.0003 23.4923L33.4927 27.97L37.9703 8.47768L18.478 4Z" fill="#eb4949"/>
</svg>
