<svg width="20" height="20" viewBox="0 0 20 20" fill="none" xmlns="http://www.w3.org/2000/svg">
<path d="M3.68026 17.909C3.29346 17.909 2.92644 17.7615 2.64715 17.4931C2.36787 17.2234 2.2134 16.8679 2.2134 16.4907V13.0023C2.2134 12.8886 2.25047 12.7919 2.33203 12.6903C2.40618 12.619 2.51987 12.5778 2.64592 12.5778C2.87577 12.5778 3.07844 12.7665 3.07844 12.9805V16.4471C3.07844 16.7676 3.35402 17.0384 3.68026 17.0384H16.0949C16.4211 17.0384 16.6967 16.7676 16.6967 16.4471V12.914C16.6967 12.6879 16.887 12.5113 17.1292 12.5113C17.3603 12.5113 17.5617 12.7 17.5617 12.914V16.4242C17.5617 17.2101 16.9166 17.8437 16.0924 17.8643L3.68026 17.909ZM9.99878 11.5283C9.00398 11.5283 8.06232 11.1015 7.41601 10.3578L7.23435 10.1487L7.05269 10.3578C6.43727 11.0918 5.47955 11.5283 4.49093 11.5283C3.93977 11.5283 3.46029 11.4279 3.02406 11.22L2.86588 11.1305C1.78211 10.5392 1.11108 9.43042 1.11108 8.23336C1.11108 7.90689 1.16917 7.5659 1.2878 7.19228L1.29027 7.18381V7.17414C1.29027 7.15479 1.29027 7.15479 1.29398 7.15116L1.30263 7.1427L2.9734 3.28671L2.97463 3.28429C3.18719 2.63981 3.83473 2.22266 4.62439 2.22266H15.4881C16.2889 2.22266 16.9636 2.65674 17.2058 3.33024L18.7098 7.07741C18.7122 7.09192 18.7172 7.10522 18.7221 7.1161C18.7271 7.12819 18.732 7.13786 18.732 7.15237V7.20679L18.7357 7.21646C18.8383 7.51754 18.8902 7.86094 18.8902 8.23457C18.8902 9.45097 18.213 10.5719 17.123 11.1619C16.6559 11.4025 16.0973 11.5295 15.5116 11.5295C14.5094 11.5295 13.5838 11.1136 12.9041 10.3578L12.7224 10.1499L12.5408 10.359C12.2417 10.7157 11.8487 11.0108 11.4039 11.2127C10.9689 11.4074 10.4832 11.5174 9.99878 11.5283ZM13.2662 9.48725L13.2748 9.50176C13.7296 10.2393 14.5402 10.6795 15.4424 10.6795C15.9144 10.6795 16.3136 10.59 16.6633 10.4074C17.4863 9.98058 17.9782 9.15957 17.9782 8.21159C17.9782 7.94437 17.9324 7.67352 17.8435 7.40751V7.33979L16.3321 3.61923C16.1517 3.13073 15.671 3.07874 15.4658 3.05576C15.4535 3.05455 15.4399 3.05334 15.4275 3.05093H15.4238H4.55766C4.11278 3.05093 3.81249 3.24076 3.69015 3.59867L2.06634 7.40388V7.45103C1.97613 7.71705 1.93164 7.9879 1.93164 8.25512C1.93164 9.18254 2.44448 10.0229 3.26875 10.4509C3.26875 10.4509 3.80013 10.6674 4.46745 10.6783C5.33125 10.6783 6.14192 10.2393 6.63376 9.50297L6.63623 9.50055L6.63747 9.49692C6.64118 9.48967 6.64488 9.48241 6.64983 9.47274C6.67454 9.42195 6.71409 9.33852 6.78329 9.2696L6.78576 9.26718L6.78823 9.26476C6.86238 9.17408 7.04527 9.1112 7.23435 9.1112C7.42836 9.1112 7.59519 9.18133 7.70394 9.3095L7.70518 9.31192L7.70765 9.31434C7.7682 9.37359 7.81022 9.45702 7.83123 9.49692L7.83246 9.49934L7.8337 9.50176C8.28846 10.2393 9.09048 10.6795 9.979 10.6795C10.8527 10.6795 11.6547 10.2393 12.1231 9.50297L12.133 9.48846V9.45944C12.154 9.40382 12.1947 9.34336 12.2541 9.26597C12.3505 9.15231 12.5086 9.09065 12.7002 9.09065C12.9894 9.09065 13.1142 9.22365 13.1451 9.26476L13.1475 9.26839L13.1512 9.27081C13.213 9.33127 13.239 9.39293 13.2575 9.43767C13.2612 9.44614 13.2649 9.4546 13.2686 9.46186L13.2662 9.48725Z" fill="white"/>
<path d="M4.60195 7.55432C4.3721 7.55432 4.16943 7.3669 4.16943 7.15167C4.16943 6.93765 4.3721 6.74902 4.60195 6.74902H15.1505C15.3804 6.74902 15.583 6.93765 15.583 7.15167C15.583 7.36569 15.3804 7.55432 15.1505 7.55432H4.60195Z" fill="white"/>
</svg>
