<svg width="14" height="14" viewBox="0 0 14 14" fill="none" xmlns="http://www.w3.org/2000/svg">
<path d="M6.87817 12.4991C6.87817 12.7718 7.10885 12.9933 7.39124 12.9933C7.67504 12.9933 7.90431 12.7718 7.90431 12.4991C7.90431 12.2263 7.67364 12.0049 7.39124 12.0049C7.10885 12.0049 6.87817 12.2263 6.87817 12.4991Z" fill="#F7F7F7"/>
<path d="M12.4507 4.89963V4.83346C12.4507 3.77079 11.5587 2.90931 10.4585 2.90931H6.96907L5.6843 1.2417C5.56966 1.04726 5.4047 0.99865 5.2593 1.00135L5.25791 1H1.99216C0.891929 1 0 1.86148 0 2.92416V11.0745C0 12.1372 0.891929 12.9986 1.99216 12.9986H5.33759V12.9932C5.62139 12.9932 5.85066 12.7718 5.85066 12.499C5.85066 12.2249 5.61999 12.0048 5.33759 12.0048C5.32221 12.0048 5.30544 12.0062 5.28866 12.0062H2.47168C1.92226 12.0062 1.4749 11.5741 1.4749 11.0434C1.4749 10.9611 1.48608 10.88 1.50565 10.8031L2.64363 6.55778L2.64643 6.55643C2.75128 6.13379 3.14272 5.81917 3.61245 5.81782L3.61525 5.81647H11.8984C11.918 5.81512 11.9376 5.81512 11.9572 5.81512C12.5066 5.81512 12.9539 6.24721 12.9539 6.77788C12.9539 6.87915 12.9372 6.97772 12.9078 7.06954V7.07089L11.781 11.2757C11.7796 11.2851 11.7768 11.2919 11.7754 11.3013L11.7516 11.3891L11.7433 11.3945C11.7195 11.4526 11.6901 11.5079 11.658 11.5592H11.6384C11.5979 11.6295 11.5475 11.6956 11.4902 11.7537C11.3127 11.913 11.075 12.0102 10.815 12.0102C10.7954 12.0102 10.7744 12.0102 10.7563 12.0089H9.49806C9.48268 12.0075 9.46591 12.0075 9.44913 12.0075C9.16533 12.0075 8.93606 12.229 8.93606 12.5017C8.93606 12.7759 9.16673 12.9959 9.44913 12.9959V12.9986H10.8779L10.8863 12.9932C11.8062 12.9905 12.5779 12.3856 12.8043 11.5646L12.8071 11.5619L13.8626 7.26938C13.9074 7.10735 13.9325 6.93721 13.9325 6.76167C13.9311 5.86778 13.302 5.11567 12.4507 4.89963ZM3.55513 4.82671C2.59051 4.82671 1.78526 5.49105 1.60212 6.37009L1.59373 6.37549L1.00237 8.78575V2.92011C1.00237 2.38945 1.44973 1.95735 1.99915 1.95735H4.96432L6.25189 3.63036C6.35394 3.80185 6.55106 3.88961 6.74259 3.86801H10.4543C11.0023 3.86801 11.4469 4.29605 11.4511 4.82536H3.55513V4.82671Z" fill="#F7F7F7"/>
<path d="M11.9656 12.4989L9.4492 12.9998H5.06086L1.00244 12.0047L2.31936 5.37207H12.9009L13.4321 7.39885L11.9656 12.4989Z" fill="#F7F7F7"/>
</svg>
