<svg width="14" height="14" viewBox="0 0 14 14" fill="none" xmlns="http://www.w3.org/2000/svg">
<path d="M12.7398 4.84619L9.15381 1.26016C8.98676 1.09311 8.76084 1 8.52533 1H1.88864C1.39708 1 1 1.39845 1 1.88864V12.1114C1 12.6029 1.39845 13 1.88864 13H12.1114C12.6029 13 13 12.6016 13 12.1114V5.47467C13 5.23916 12.9055 5.01324 12.7398 4.84619ZM3.88909 1.88864H6.55637V3.44409H3.88909V1.88864ZM10.1109 12.1114H3.88909V10.1109H10.1109V12.1114ZM12.1114 12.1114H11.0009V9.66727C11.0009 9.42218 10.8024 9.22227 10.5559 9.22227H3.44409C3.19899 9.22227 2.99909 9.42081 2.99909 9.66727V12.1114H1.88864V1.88864H2.99909V3.88909C2.99909 4.13419 3.19763 4.33409 3.44409 4.33409H7C7.24509 4.33409 7.445 4.13555 7.445 3.88909V1.88864H8.52533L12.1114 5.47467V12.1114Z" fill="#F7F7F7"/>
<path d="M7.00038 1.36523H3.48145V3.90243H7.00038V1.36523Z" fill="#F7F7F7"/>
<path d="M10.5686 9.77148H3.48145V12.5565H10.5686V9.77148Z" fill="#F7F7F7"/>
</svg>
