<svg width="18" height="18" viewBox="0 0 18 18" fill="none" xmlns="http://www.w3.org/2000/svg">
<path d="M5.97222 3H4C2.89543 3 2 3.89543 2 5V14C2 15.1046 2.89543 16 4 16H14.4444C15.549 16 16.4444 15.1046 16.4444 14V5C16.4444 3.89543 15.549 3 14.4444 3H12.8333" stroke="white" stroke-linecap="round"/>
<path d="M9.93711 2.64645C9.74185 2.45118 9.42527 2.45118 9.23 2.64645L6.04802 5.82843C5.85276 6.02369 5.85276 6.34027 6.04802 6.53553C6.24329 6.7308 6.55987 6.7308 6.75513 6.53553L9.58356 3.70711L12.412 6.53553C12.6072 6.7308 12.9238 6.7308 13.1191 6.53553C13.3144 6.34027 13.3144 6.02369 13.1191 5.82843L9.93711 2.64645ZM9.08356 11.3056C9.08356 11.5817 9.30741 11.8056 9.58356 11.8056C9.8597 11.8056 10.0836 11.5817 10.0836 11.3056H9.08356ZM9.08356 3V11.3056H10.0836V3H9.08356Z" fill="white"/>
</svg>
