<svg xmlns="http://www.w3.org/2000/svg" viewBox="0 0 18 18"><path d="M13.5,7h-6a.5.5,0,0,1,0-1h6a.5.5,0,0,1,0,1Z" style="fill:#fff"/><path d="M13.5,10h-6a.5.5,0,0,1,0-1h6a.5.5,0,0,1,0,1Z" style="fill:#fff"/><path d="M13.5,13h-6a.5.5,0,0,1,0-1h6a.5.5,0,0,1,0,1Z" style="fill:#fff"/><path d="M15.5,16H5.5A1.5,1.5,0,0,1,4,14.5V4.5A1.5,1.5,0,0,1,5.5,3h10A1.5,1.5,0,0,1,17,4.5v10A1.5,1.5,0,0,1,15.5,16ZM5.5,4a.5.5,0,0,0-.5.5v10a.5.5,0,0,0,.5.5h10a.5.5,0,0,0,.5-.5V4.5a.5.5,0,0,0-.5-.5Z" style="fill:#fff"/></svg>