<svg width="50" height="68" viewBox="0 0 50 68" fill="none" xmlns="http://www.w3.org/2000/svg">
<path d="M50 64C50 66.2091 48.2091 68 46 68H4C1.79086 68 0 66.2091 0 64V4C0 1.79086 1.79086 0 4 0H46C48.2091 0 50 1.79086 50 4V64Z" fill="#FEFFFE"/>
<path fill-rule="evenodd" clip-rule="evenodd" d="M3.84619 4V0H7.69234V4H3.84619ZM0 4V8H3.84615V4H0ZM23.0767 4V8H19.231V4H23.0767ZM19.231 64V68H23.0771V64H26.9229V60H23.0771V56H26.9229V52H23.0771V48H26.9229V44H23.0771V40H26.9229V36H23.0771V32H26.9229V28H23.0771V24H26.9229V20H23.0771V16H26.9229V12H23.0771V8H26.9229V4H23.0771V0H19.231L19.231 4H15.3848V8H19.231V12H15.3848V16H19.231V20H15.3848V24H19.231L19.231 28H15.3848V32H19.231V36H15.3848V40H19.231V44H15.3848V48H19.231V52H15.3848V56H19.231L19.231 60H15.3848V64H19.231ZM19.231 64V60H23.0767V64H19.231ZM19.231 56V52H23.0767V56H19.231ZM19.231 48V44H23.0767V48H19.231ZM19.231 40V36H23.0767V40H19.231ZM19.231 32L19.231 28H23.0767V32H19.231ZM19.231 24V20H23.0767V24H19.231ZM19.231 16H23.0767V12H19.231V16ZM0 40V36H3.84615V40H0ZM0 16V12H3.84615V16H0ZM0 48V44H3.84615V48H0ZM0 24V20H3.84615V24H0ZM0 56V52H3.84615V56H0ZM3.84619 28V24H7.69234V28H3.84619ZM26.9233 24V28H30.769V32H26.9233V36H30.769V40H26.9233V44H30.769V48H26.9233V52H30.769V56H26.9233V60H30.769V64H26.9233V68H30.7694V64H34.6152V68H38.4613V64H34.6152V60H38.4613V56H34.6152V52H38.4613V48H34.6152V44H38.4613V40H34.6152V36H38.4613V32H34.6152L34.6152 28H38.4613V24H34.6152V20H38.4613V16H34.6152V12H38.4613V8H34.6152V4H38.4613V0H34.6152L34.6152 4H30.7694V0H26.9233V4H30.769V8H26.9233V12H30.769V16H26.9233V20H30.769V24H26.9233ZM34.6152 8H30.7694V12H34.6152V8ZM34.6152 16H30.7694V20H34.6152V16ZM34.6152 24L34.6152 28H30.7694V24H34.6152ZM34.6152 32V36H30.7694V32H34.6152ZM34.6152 40H30.7694V44H34.6152V40ZM34.6152 48H30.7694V52H34.6152V48ZM34.6152 56L34.6152 60H30.7694V56H34.6152ZM3.84619 60V56H7.69234V60H3.84619ZM3.84619 64V68H7.69234V64H3.84619ZM0 32V28H3.84615V32H0ZM0 64V60H3.84615V64H0ZM3.84619 36V32H7.69234V36H3.84619ZM3.84619 12V8H7.69234V12H3.84619ZM3.84619 44V40H7.69234V44H3.84619ZM3.84619 20V16H7.69234V20H3.84619ZM3.84619 52V48H7.69234V52H3.84619ZM7.69238 8V4H11.5386V8H7.69238ZM7.69238 40V36H11.5386V40H7.69238ZM7.69238 16V12H11.5386V16H7.69238ZM7.69238 48V44H11.5386V48H7.69238ZM7.69238 24V20H11.5386V24H7.69238ZM7.69238 56V52H11.5386V56H7.69238ZM11.5386 28V24H15.3847V28H11.5386ZM11.5386 60V56H15.3847V60H11.5386ZM11.5386 64V68H15.3847V64H11.5386ZM7.69238 32V28H11.5386V32H7.69238ZM7.69238 64V60H11.5386V64H7.69238ZM11.5386 4V0H15.3847V4H11.5386ZM11.5386 36V32H15.3847V36H11.5386ZM11.5386 12V8H15.3847V12H11.5386ZM11.5386 44V40H15.3847V44H11.5386ZM11.5386 20V16H15.3847V20H11.5386ZM11.5386 52V48H15.3847V52H11.5386ZM38.4614 4V8H42.3076V12H38.4614V16H42.3076V20H38.4614V24H42.3076L42.3076 28H38.4614V32H42.3076V36H38.4614V40H42.3076V44H38.4614V48H42.3076V52H38.4614V56H42.3076L42.3076 60H38.4614V64H42.3076V68H46.1537V64H42.3076V60H46.1537V56H42.3076V52H46.1537V48H42.3076V44H46.1537V40H42.3076V36H46.1537V32H42.3076L42.3076 28H46.1537V24H42.3076V20H46.1537V16H42.3076V12H46.1537V8H42.3076V4H46.1537V0H42.3076L42.3076 4H38.4614ZM46.1538 32V28H50V32H46.1538ZM46.1538 60V64H50V60H46.1538ZM46.1538 8V4H50V8H46.1538ZM46.1538 36V40H50V36H46.1538ZM46.1538 16V12H50V16H46.1538ZM46.1538 44V48H50V44H46.1538ZM46.1538 24V20H50V24H46.1538ZM46.1538 52V56H50V52H46.1538Z" fill="#D9D9D9"/>
</svg>
