<svg width="25" height="25" viewBox="0 0 25 25" fill="none" xmlns="http://www.w3.org/2000/svg">
<path d="M25 12.5C25 5.59644 19.4036 0 12.5 0V0C5.59644 0 0 5.59644 0 12.5V12.5C0 19.4036 5.59644 25 12.5 25V25C19.4036 25 25 19.4036 25 12.5V12.5Z" fill="#FEFFFE"/>
<path fill-rule="evenodd" clip-rule="evenodd" d="M0.250045 15C0.0860757 14.1922 0 13.3562 0 12.5C0 11.6438 0.0860756 10.8078 0.250045 10H5V15H0.250045ZM5 22.5009C4.05303 21.7896 3.21038 20.947 2.49908 20H5V22.5009ZM15 24.75C14.1922 24.9139 13.3562 25 12.5 25C11.6438 25 10.8078 24.9139 10 24.75V20H15V24.75ZM22.5009 20C21.7896 20.947 20.947 21.7896 20 22.5009V20H22.5009ZM25 12.5C25 13.3562 24.9139 14.1922 24.75 15H20V10H24.75C24.9139 10.8078 25 11.6438 25 12.5ZM20 2.49908C20.947 3.21038 21.7896 4.05303 22.5009 5H20V2.49908ZM10 0.250045C10.8078 0.0860756 11.6438 0 12.5 0C13.3562 0 14.1922 0.0860757 15 0.250045V5H10V0.250045ZM5 2.49908C4.05303 3.21038 3.21038 4.05303 2.49908 5H5V10H10V15H5V20H10V15H15V20H20V15H15V10H20V5H15V10H10V5H5V2.49908Z" fill="#D9D9D9"/>
</svg>
