<svg width="65" height="20" viewBox="0 0 65 20" fill="none" xmlns="http://www.w3.org/2000/svg">
<g clip-path="url(#clip0_21178_57054)">
<path d="M0 5C0 2.23858 2.23858 0 5 0H60C62.7614 0 65 2.23858 65 5V20H0V5Z" fill="white"/>
<path d="M50.1 0H45.8V3.5H50.1V0Z" fill="#D9D9D9"/>
<path d="M65 7.6001H62.8V11.7001H65V7.6001Z" fill="#D9D9D9"/>
<path d="M58.6 0H54.3V3.5H58.6V0Z" fill="#D9D9D9"/>
<path d="M62.8 0.899902V3.4999H64.7C64.4 2.3999 63.7 1.4999 62.8 0.899902Z" fill="#D9D9D9"/>
<path d="M16 7.6001H11.7V11.7001H16V7.6001Z" fill="#D9D9D9"/>
<path d="M41.6 0H37.3V3.5H41.6V0Z" fill="#D9D9D9"/>
<path d="M16 15.8999H11.7V19.9999H16V15.8999Z" fill="#D9D9D9"/>
<path d="M7.49995 15.8999H3.19995V19.9999H7.49995V15.8999Z" fill="#D9D9D9"/>
<path d="M33 15.8999H28.7V19.9999H33V15.8999Z" fill="#D9D9D9"/>
<path d="M41.6 15.8999H37.3V19.9999H41.6V15.8999Z" fill="#D9D9D9"/>
<path d="M50.1 15.8999H45.8V19.9999H50.1V15.8999Z" fill="#D9D9D9"/>
<path d="M24.5 15.8999H20.2V19.9999H24.5V15.8999Z" fill="#D9D9D9"/>
<path d="M3.2 11.7998H0V15.8998H3.2V11.7998Z" fill="#D9D9D9"/>
<path d="M24.5 0H20.2V3.5H24.5V0Z" fill="#D9D9D9"/>
<path d="M33 0H28.7V3.5H33V0Z" fill="#D9D9D9"/>
<path d="M16 0H11.7V3.5H16V0Z" fill="#D9D9D9"/>
<path d="M7.49995 0H4.99995C4.39995 0 3.79995 0.1 3.19995 0.3V3.5H7.49995V0Z" fill="#D9D9D9"/>
<path d="M0.3 3.5C0.1 4 0 4.5 0 5V7.6H3.2V3.5H0.3Z" fill="#D9D9D9"/>
<path d="M58.6 15.8999H54.3V19.9999H58.6V15.8999Z" fill="#D9D9D9"/>
<path d="M20.3 11.7998H16V15.8998H20.3V11.7998Z" fill="#D9D9D9"/>
<path d="M28.8 11.7998H24.5V15.8998H28.8V11.7998Z" fill="#D9D9D9"/>
<path d="M11.8 3.5H7.5V7.6H11.8V3.5Z" fill="#D9D9D9"/>
<path d="M11.8 11.7998H7.5V15.8998H11.8V11.7998Z" fill="#D9D9D9"/>
<path d="M7.49995 7.6001H3.19995V11.7001H7.49995V7.6001Z" fill="#D9D9D9"/>
<path d="M37.3 11.7998H33V15.8998H37.3V11.7998Z" fill="#D9D9D9"/>
<path d="M24.5 7.6001H20.2V11.7001H24.5V7.6001Z" fill="#D9D9D9"/>
<path d="M62.8 11.7998H58.5V15.8998H62.8V11.7998Z" fill="#D9D9D9"/>
<path d="M54.3 11.7998H50V15.8998H54.3V11.7998Z" fill="#D9D9D9"/>
<path d="M45.8 11.7998H41.5V15.8998H45.8V11.7998Z" fill="#D9D9D9"/>
<path d="M65 15.8999H62.8V19.9999H65V15.8999Z" fill="#D9D9D9"/>
<path d="M50.1 7.6001H45.8V11.7001H50.1V7.6001Z" fill="#D9D9D9"/>
<path d="M58.6 7.6001H54.3V11.7001H58.6V7.6001Z" fill="#D9D9D9"/>
<path d="M62.8 3.5H58.5V7.6H62.8V3.5Z" fill="#D9D9D9"/>
<path d="M41.6 7.6001H37.3V11.7001H41.6V7.6001Z" fill="#D9D9D9"/>
<path d="M33 7.6001H28.7V11.7001H33V7.6001Z" fill="#D9D9D9"/>
<path d="M20.3 3.5H16V7.6H20.3V3.5Z" fill="#D9D9D9"/>
<path d="M28.8 3.5H24.5V7.6H28.8V3.5Z" fill="#D9D9D9"/>
<path d="M37.3 3.5H33V7.6H37.3V3.5Z" fill="#D9D9D9"/>
<path d="M45.8 3.5H41.5V7.6H45.8V3.5Z" fill="#D9D9D9"/>
<path d="M54.3 3.5H50V7.6H54.3V3.5Z" fill="#D9D9D9"/>
</g>
<defs>
<clipPath id="clip0_21178_57054">
<path d="M0 5C0 2.23858 2.23858 0 5 0H60C62.7614 0 65 2.23858 65 5V20H0V5Z" fill="white"/>
</clipPath>
</defs>
</svg>
