<svg width="50" height="68" viewBox="0 0 50 68" fill="none" xmlns="http://www.w3.org/2000/svg">
<g clip-path="url(#clip0_23_15)">
<mask id="mask0_23_15" style="mask-type:luminance" maskUnits="userSpaceOnUse" x="0" y="0" width="50" height="68">
<path d="M50 0H0V68H50V0Z" fill="white"/>
</mask>
<g mask="url(#mask0_23_15)">
<path d="M50 68H0V0H50V68Z" fill="#FEFFFE"/>
<path d="M0 8V4H3.84615V8H0Z" fill="#D9D9D9"/>
<path d="M23.0769 8V4H26.9231V8H23.0769Z" fill="#D9D9D9"/>
<path d="M0 40V36H3.84615V40H0Z" fill="#D9D9D9"/>
<path d="M23.0769 40V36H26.9231V40H23.0769Z" fill="#D9D9D9"/>
<path d="M0 16V12H3.84615V16H0Z" fill="#D9D9D9"/>
<path d="M23.0769 16V12H26.9231V16H23.0769Z" fill="#D9D9D9"/>
<path d="M0 48V44H3.84615V48H0Z" fill="#D9D9D9"/>
<path d="M23.0769 48V44H26.9231V48H23.0769Z" fill="#D9D9D9"/>
<path d="M0 24V20H3.84615V24H0Z" fill="#D9D9D9"/>
<path d="M23.0769 24V20H26.9231V24H23.0769Z" fill="#D9D9D9"/>
<path d="M0 56V52H3.84615V56H0Z" fill="#D9D9D9"/>
<path d="M23.0769 56V52H26.9231V56H23.0769Z" fill="#D9D9D9"/>
<path d="M3.84616 28V24H7.69231V28H3.84616Z" fill="#D9D9D9"/>
<path d="M26.9231 28V24H30.7692V28H26.9231Z" fill="#D9D9D9"/>
<path d="M3.84616 60V56H7.69231V60H3.84616Z" fill="#D9D9D9"/>
<path d="M3.84616 68V64H7.69231V68H3.84616Z" fill="#D9D9D9"/>
<path d="M26.9231 60V56H30.7692V60H26.9231Z" fill="#D9D9D9"/>
<path d="M26.9231 68V64H30.7692V68H26.9231Z" fill="#D9D9D9"/>
<path d="M0 32V28H3.84615V32H0Z" fill="#D9D9D9"/>
<path d="M23.0769 32V28H26.9231V32H23.0769Z" fill="#D9D9D9"/>
<path d="M0 64V60H3.84615V64H0Z" fill="#D9D9D9"/>
<path d="M23.0769 64V60H26.9231V64H23.0769Z" fill="#D9D9D9"/>
<path d="M3.84616 4V0H7.69231V4H3.84616Z" fill="#D9D9D9"/>
<path d="M26.9231 4V0H30.7692V4H26.9231Z" fill="#D9D9D9"/>
<path d="M3.84616 36V32H7.69231V36H3.84616Z" fill="#D9D9D9"/>
<path d="M26.9231 36V32H30.7692V36H26.9231Z" fill="#D9D9D9"/>
<path d="M3.84616 12V8H7.69231V12H3.84616Z" fill="#D9D9D9"/>
<path d="M26.9231 12V8H30.7692V12H26.9231Z" fill="#D9D9D9"/>
<path d="M3.84616 44V40H7.69231V44H3.84616Z" fill="#D9D9D9"/>
<path d="M26.9231 44V40H30.7692V44H26.9231Z" fill="#D9D9D9"/>
<path d="M3.84616 20V16H7.69231V20H3.84616Z" fill="#D9D9D9"/>
<path d="M26.9231 20V16H30.7692V20H26.9231Z" fill="#D9D9D9"/>
<path d="M3.84616 52V48H7.69231V52H3.84616Z" fill="#D9D9D9"/>
<path d="M26.9231 52V48H30.7692V52H26.9231Z" fill="#D9D9D9"/>
<path d="M7.69231 8V4H11.5385V8H7.69231Z" fill="#D9D9D9"/>
<path d="M30.7692 8V4H34.6154V8H30.7692Z" fill="#D9D9D9"/>
<path d="M7.69231 40V36H11.5385V40H7.69231Z" fill="#D9D9D9"/>
<path d="M30.7692 40V36H34.6154V40H30.7692Z" fill="#D9D9D9"/>
<path d="M7.69231 16V12H11.5385V16H7.69231Z" fill="#D9D9D9"/>
<path d="M30.7692 16V12H34.6154V16H30.7692Z" fill="#D9D9D9"/>
<path d="M7.69231 48V44H11.5385V48H7.69231Z" fill="#D9D9D9"/>
<path d="M30.7692 48V44H34.6154V48H30.7692Z" fill="#D9D9D9"/>
<path d="M7.69231 24V20H11.5385V24H7.69231Z" fill="#D9D9D9"/>
<path d="M30.7692 24V20H34.6154V24H30.7692Z" fill="#D9D9D9"/>
<path d="M7.69231 56V52H11.5385V56H7.69231Z" fill="#D9D9D9"/>
<path d="M30.7692 56V52H34.6154V56H30.7692Z" fill="#D9D9D9"/>
<path d="M11.5385 28V24H15.3846V28H11.5385Z" fill="#D9D9D9"/>
<path d="M34.6154 28V24H38.4615V28H34.6154Z" fill="#D9D9D9"/>
<path d="M11.5385 60V56H15.3846V60H11.5385Z" fill="#D9D9D9"/>
<path d="M11.5385 68V64H15.3846V68H11.5385Z" fill="#D9D9D9"/>
<path d="M34.6154 60V56H38.4615V60H34.6154Z" fill="#D9D9D9"/>
<path d="M34.6154 68V64H38.4615V68H34.6154Z" fill="#D9D9D9"/>
<path d="M7.69231 32V28H11.5385V32H7.69231Z" fill="#D9D9D9"/>
<path d="M30.7692 32V28H34.6154V32H30.7692Z" fill="#D9D9D9"/>
<path d="M7.69231 64V60H11.5385V64H7.69231Z" fill="#D9D9D9"/>
<path d="M30.7692 64V60H34.6154V64H30.7692Z" fill="#D9D9D9"/>
<path d="M11.5385 4V0H15.3846V4H11.5385Z" fill="#D9D9D9"/>
<path d="M34.6154 4V0H38.4615V4H34.6154Z" fill="#D9D9D9"/>
<path d="M11.5385 36V32H15.3846V36H11.5385Z" fill="#D9D9D9"/>
<path d="M34.6154 36V32H38.4615V36H34.6154Z" fill="#D9D9D9"/>
<path d="M11.5385 12V8H15.3846V12H11.5385Z" fill="#D9D9D9"/>
<path d="M34.6154 12V8H38.4615V12H34.6154Z" fill="#D9D9D9"/>
<path d="M11.5385 44V40H15.3846V44H11.5385Z" fill="#D9D9D9"/>
<path d="M34.6154 44V40H38.4615V44H34.6154Z" fill="#D9D9D9"/>
<path d="M11.5385 20V16H15.3846V20H11.5385Z" fill="#D9D9D9"/>
<path d="M34.6154 20V16H38.4615V20H34.6154Z" fill="#D9D9D9"/>
<path d="M11.5385 52V48H15.3846V52H11.5385Z" fill="#D9D9D9"/>
<path d="M34.6154 52V48H38.4615V52H34.6154Z" fill="#D9D9D9"/>
<path d="M15.3846 8V4H19.2308V8H15.3846Z" fill="#D9D9D9"/>
<path d="M38.4615 8V4H42.3077V8H38.4615Z" fill="#D9D9D9"/>
<path d="M15.3846 40V36H19.2308V40H15.3846Z" fill="#D9D9D9"/>
<path d="M38.4615 40V36H42.3077V40H38.4615Z" fill="#D9D9D9"/>
<path d="M15.3846 16V12H19.2308V16H15.3846Z" fill="#D9D9D9"/>
<path d="M38.4615 16V12H42.3077V16H38.4615Z" fill="#D9D9D9"/>
<path d="M15.3846 48V44H19.2308V48H15.3846Z" fill="#D9D9D9"/>
<path d="M38.4615 48V44H42.3077V48H38.4615Z" fill="#D9D9D9"/>
<path d="M15.3846 24V20H19.2308V24H15.3846Z" fill="#D9D9D9"/>
<path d="M38.4615 24V20H42.3077V24H38.4615Z" fill="#D9D9D9"/>
<path d="M15.3846 56V52H19.2308V56H15.3846Z" fill="#D9D9D9"/>
<path d="M38.4615 56V52H42.3077V56H38.4615Z" fill="#D9D9D9"/>
<path d="M19.2308 28V24H23.0769V28H19.2308Z" fill="#D9D9D9"/>
<path d="M42.3077 28V24H46.1538V28H42.3077Z" fill="#D9D9D9"/>
<path d="M46.1538 32V28H50V32H46.1538Z" fill="#D9D9D9"/>
<path d="M19.2308 60V56H23.0769V60H19.2308Z" fill="#D9D9D9"/>
<path d="M19.2308 68V64H23.0769V68H19.2308Z" fill="#D9D9D9"/>
<path d="M42.3077 60V56H46.1538V60H42.3077Z" fill="#D9D9D9"/>
<path d="M42.3077 68V64H46.1538V68H42.3077Z" fill="#D9D9D9"/>
<path d="M46.1538 64V60H50V64H46.1538Z" fill="#D9D9D9"/>
<path d="M15.3846 32V28H19.2308V32H15.3846Z" fill="#D9D9D9"/>
<path d="M38.4615 32V28H42.3077V32H38.4615Z" fill="#D9D9D9"/>
<path d="M15.3846 64V60H19.2308V64H15.3846Z" fill="#D9D9D9"/>
<path d="M38.4615 64V60H42.3077V64H38.4615Z" fill="#D9D9D9"/>
<path d="M19.2308 4V0H23.0769V4H19.2308Z" fill="#D9D9D9"/>
<path d="M42.3077 4V0H46.1538V4H42.3077Z" fill="#D9D9D9"/>
<path d="M46.1538 8V4H50V8H46.1538Z" fill="#D9D9D9"/>
<path d="M19.2308 36V32H23.0769V36H19.2308Z" fill="#D9D9D9"/>
<path d="M42.3077 36V32H46.1538V36H42.3077Z" fill="#D9D9D9"/>
<path d="M46.1538 40V36H50V40H46.1538Z" fill="#D9D9D9"/>
<path d="M19.2308 12V8H23.0769V12H19.2308Z" fill="#D9D9D9"/>
<path d="M42.3077 12V8H46.1538V12H42.3077Z" fill="#D9D9D9"/>
<path d="M46.1538 16V12H50V16H46.1538Z" fill="#D9D9D9"/>
<path d="M19.2308 44V40H23.0769V44H19.2308Z" fill="#D9D9D9"/>
<path d="M42.3077 44V40H46.1538V44H42.3077Z" fill="#D9D9D9"/>
<path d="M46.1538 48V44H50V48H46.1538Z" fill="#D9D9D9"/>
<path d="M19.2308 20V16H23.0769V20H19.2308Z" fill="#D9D9D9"/>
<path d="M42.3077 20V16H46.1538V20H42.3077Z" fill="#D9D9D9"/>
<path d="M46.1538 24V20H50V24H46.1538Z" fill="#D9D9D9"/>
<path d="M19.2308 52V48H23.0769V52H19.2308Z" fill="#D9D9D9"/>
<path d="M42.3077 52V48H46.1538V52H42.3077Z" fill="#D9D9D9"/>
<path d="M46.1538 56V52H50V56H46.1538Z" fill="#D9D9D9"/>
</g>
</g>
<defs>
<clipPath id="clip0_23_15">
<rect width="50" height="68" fill="white"/>
</clipPath>
</defs>
</svg>
