<svg width="14" height="14" viewBox="0 0 14 14" fill="none" xmlns="http://www.w3.org/2000/svg">
<path d="M14 2C14 0.89543 13.1046 0 12 0H2C0.89543 0 0 0.895431 0 2V12C0 13.1046 0.895431 14 2 14H12C13.1046 14 14 13.1046 14 12V2Z" fill="#FEFFFE"/>
<path fill-rule="evenodd" clip-rule="evenodd" d="M13.9992 12.0564V11.2002H11.1992V14H12C13.0857 14 13.9693 13.1349 13.9992 12.0564ZM8.40156 14V11.2002H5.60156V14H8.40156ZM2.8 14V11.2002H0V12C0 13.1046 0.895431 14 2 14H2.8ZM0 8.4001H2.8V5.6001H0V8.4001ZM0 2.8H2.8V0H2C0.89543 0 0 0.895431 0 2V2.8ZM5.60156 0V2.8H8.39844V5.5998H11.1984V2.7998H8.40156V0H5.60156ZM11.1992 0V2.8H13.9992V1.94356C13.9693 0.865088 13.0857 0 12 0H11.1992ZM2.80078 5.5998V2.7998H5.60078V5.5998H2.80078ZM11.1992 8.4001V5.6001H13.9992V8.4001H11.1992ZM2.80078 11.1999V8.3999H5.60078V11.1999H2.80078ZM5.60156 5.6001V8.4001H8.39844V11.1999H11.1984V8.3999H8.40156V5.6001H5.60156Z" fill="#D9D9D9"/>
</svg>
