<svg width="14" height="14" viewBox="0 0 14 14" fill="none" xmlns="http://www.w3.org/2000/svg">
<g clip-path="url(#clip0_21155_56764)">
<path d="M14 2C14 0.89543 13.1046 0 12 0H2C0.89543 0 0 0.895431 0 2V12C0 13.1046 0.895431 14 2 14H12C13.1046 14 14 13.1046 14 12V2Z" fill="#9D9D9D"/>
<path fill-rule="evenodd" clip-rule="evenodd" d="M13.9992 12.0564V11.2002H11.1992V14H12C13.0857 14 13.9693 13.1349 13.9992 12.0564ZM8.40156 14V11.2002H5.60156V14H8.40156ZM2.8 14V11.2002H0V12C0 13.1046 0.895431 14 2 14H2.8ZM0 8.4001H2.8V5.6001H0V8.4001ZM0 2.8H2.8V0H2C0.89543 0 0 0.895431 0 2V2.8ZM5.60156 0V2.8H8.39844V5.5998H11.1984V2.7998H8.40156V0H5.60156ZM11.1992 0L11.1984 2.7998L13.9992 2.8V1.94356C13.9693 0.865088 13.0857 0 12 0H11.1992ZM2.8 5.6001V2.8H5.60156L5.60078 5.5998L2.8 5.6001ZM11.1992 8.4001L11.1984 5.5998L13.9992 5.6001V8.4001H11.1992ZM2.8 11.2002V8.4001L5.60078 8.3999L5.60156 11.2002H2.8ZM5.60078 5.5998V8.3999L8.39844 8.4001V11.1999L11.1992 11.2002V8.4001L8.40156 8.3999V5.6001L5.60078 5.5998Z" fill="#767676"/>
</g>
<defs>
<clipPath id="clip0_21155_56764">
<rect width="14" height="14" fill="white"/>
</clipPath>
</defs>
</svg>
