<svg width="60" height="25" viewBox="0 0 60 25" fill="none" xmlns="http://www.w3.org/2000/svg">
<path d="M0 8C0 3.58172 3.58172 0 8 0H52C56.4183 0 60 3.58172 60 8V17C60 21.4183 56.4183 25 52 25H8C3.58172 25 0 21.4183 0 17V8Z" fill="white"/>
<path fill-rule="evenodd" clip-rule="evenodd" d="M0.581517 5C0.206507 5.92643 0 6.9391 0 8V10H5V15H0V17C0 18.0609 0.206507 19.0736 0.581517 20H5V24.4185C5.92643 24.7935 6.9391 25 8 25H10V20H15V25H20V20H25V25H30V20H35V25H40V20H45V25H50V20H55V24.4185C57.0054 23.6067 58.6067 22.0054 59.4185 20H55V15H60V10H55V5H59.4185C58.6067 2.9946 57.0054 1.39328 55 0.581517V5H50V0H45V5H40V0H35V5H30V0H25V5H20V0H15V5H10V0H8C6.9391 0 5.92643 0.206507 5 0.581517V5H0.581517ZM10 10V5H5V10H10ZM15 10H10V15H5V20H10V15H15V20H20V15H25V20H30V15H35V20H40V15H45V20H50V15H55V10H50V5H45V10H40V5H35V10H30V5H25V10H20V5H15V10ZM15 10V15H20V10H15ZM25 10H30V15H25V10ZM35 10H40V15H35V10ZM45 10H50V15H45V10Z" fill="#D9D9D9"/>
</svg>
