<svg width="18" height="18" xmlns="http://www.w3.org/2000/svg" fill="none">

 <g>
  <title>Layer 1</title>
  <path id="svg_1" stroke-linecap="round" stroke="#6B6B6B" d="m10,5.03774l0,-2.03774c0,-0.55228 -0.44772,-1 -1,-1l-7,0c-0.55228,0 -1,0.44772 -1,1l0,12c0,0.5523 0.44772,1 1,1l7,0c0.55228,0 1,-0.4477 1,-1l0,-1.5094"/>
  <path id="svg_2" fill="#6B6B6B" d="m7,8.5c-0.27614,0 -0.5,0.22386 -0.5,0.5c0,0.27614 0.22386,0.5 0.5,0.5l0,-1zm9.3536,0.85355c0.1952,-0.19526 0.1952,-0.51184 0,-0.7071l-3.182,-3.18198c-0.1953,-0.19527 -0.5119,-0.19527 -0.7071,0c-0.1953,0.19526 -0.1953,0.51184 0,0.7071l2.8284,2.82843l-2.8284,2.8284c-0.1953,0.1953 -0.1953,0.5119 0,0.7071c0.1952,0.1953 0.5118,0.1953 0.7071,0l3.182,-3.18195zm-9.3536,0.14645l9,0l0,-1l-9,0l0,1z"/>
 </g>
</svg>