<svg width="36" height="28" xmlns="http://www.w3.org/2000/svg" fill="none">

 <g>
  <title>Layer 1</title>
  <path id="svg_1" fill="#FF6F00" d="m15.4493,18.498l-7.44846,0c-2.76142,0 -5,-2.2385 -5,-5c0,-2.7614 2.23858,-4.99995 5,-4.99995l7.44846,0l0,-2l-7.44846,0c-3.86599,0 -7,3.134 -7,6.99995c0,3.866 3.13401,7 7,7l7.44846,0l0,-2zm5.0253,0l0,2l7.4473,0c3.866,0 7,-3.134 7,-7c0,-3.86595 -3.134,-6.99995 -7,-6.99995l-7.4473,0l0,2l7.4473,0c2.7614,0 5,2.23855 5,4.99995c0,2.7615 -2.2386,5 -5,5l-7.4473,0z" clip-rule="evenodd" fill-rule="evenodd"/>
  <line id="svg_2" stroke-linecap="round" stroke-width="2" stroke="#FF6F00" y2="3" x2="17.9043" y1="24.2422" x1="17.9043"/>
 </g>
</svg>