<svg width="39" height="22" viewBox="0 0 39 22" fill="none" xmlns="http://www.w3.org/2000/svg">
<circle cx="19.9073" cy="9.2257" r="7.39563" stroke="#323A3D" stroke-width="1.2"/>
<path d="M24.0288 9.09192C23.7729 8.18432 23.2243 7.38668 22.4683 6.82303C21.7123 6.25937 20.7913 5.96127 19.8484 5.97507C18.9055 5.98887 17.9936 6.3138 17.2545 6.89934C16.5153 7.48489 15.9903 8.29824 15.7611 9.21294" stroke="#323A3D" stroke-width="1.2"/>
<path d="M21.9439 9.82928C21.7571 9.42705 21.4553 9.08923 21.0766 8.85853C20.6978 8.62784 20.2592 8.51463 19.8161 8.53322C19.3731 8.55182 18.9455 8.70138 18.5874 8.963C18.2293 9.22462 17.9569 9.58655 17.8045 10.003" stroke="#323A3D" stroke-width="1.2"/>
<path d="M22.9088 16.041L23.4284 15.741L23.158 15.2727L22.6642 15.4931L22.9088 16.041ZM16.9023 16.0484L17.1456 15.4999L16.6524 15.2813L16.3827 15.7484L16.9023 16.0484ZM14.9023 19.5125L14.3827 19.2125L13.8631 20.1125H14.9023V19.5125ZM24.913 19.5125V20.1125H25.9523L25.4327 19.2125L24.913 19.5125ZM22.6642 15.4931C21.8198 15.8701 20.8838 16.0799 19.8972 16.0799V17.2799C21.0556 17.2799 22.158 17.0332 23.1534 16.5889L22.6642 15.4931ZM19.8972 16.0799C18.9166 16.0799 17.986 15.8726 17.1456 15.4999L16.6591 16.5969C17.6498 17.0362 18.7458 17.2799 19.8972 17.2799V16.0799ZM15.422 19.8125L17.422 16.3484L16.3827 15.7484L14.3827 19.2125L15.422 19.8125ZM24.913 18.9125H14.9023V20.1125H24.913V18.9125ZM22.3892 16.341L24.3934 19.8125L25.4327 19.2125L23.4284 15.741L22.3892 16.341Z" fill="#323A3D"/>
<line x1="13.8891" y1="19.5699" x2="25.6521" y2="19.5699" stroke="#323A3D" stroke-width="1.2" stroke-linecap="round"/>
<circle cx="19.9102" cy="11.7305" r="1.28516" fill="#323A3D"/>
</svg>
