<svg width="39" height="22" viewBox="0 0 39 22" fill="none" xmlns="http://www.w3.org/2000/svg">
<circle cx="19.9073" cy="9.2257" r="7.39563" stroke="#323A3D" stroke-width="1.5"/>
<path d="M24.0288 9.09192C23.7729 8.18432 23.2243 7.38668 22.4683 6.82303C21.7123 6.25937 20.7913 5.96127 19.8484 5.97507C18.9055 5.98887 17.9936 6.3138 17.2545 6.89934C16.5153 7.48489 15.9903 8.29824 15.7611 9.21294" stroke="#323A3D" stroke-width="1.5"/>
<path d="M21.9439 9.82928C21.7571 9.42705 21.4553 9.08923 21.0766 8.85853C20.6978 8.62784 20.2592 8.51463 19.8161 8.53322C19.3731 8.55182 18.9455 8.70138 18.5874 8.963C18.2293 9.22462 17.9569 9.58655 17.8045 10.003" stroke="#323A3D" stroke-width="1.5"/>
<path d="M22.9088 16.041L23.5583 15.666L23.2203 15.0806L22.6031 15.3562L22.9088 16.041ZM16.9023 16.0484L17.2064 15.3628L16.59 15.0895L16.2528 15.6734L16.9023 16.0484ZM14.9023 19.5125L14.2528 19.1375L13.6033 20.2625H14.9023V19.5125ZM24.913 19.5125V20.2625H26.2121L25.5626 19.1375L24.913 19.5125ZM22.6031 15.3562C21.7775 15.7247 20.8623 15.9299 19.8972 15.9299V17.4299C21.0771 17.4299 22.2003 17.1786 23.2145 16.7259L22.6031 15.3562ZM19.8972 15.9299C18.9379 15.9299 18.028 15.7271 17.2064 15.3628L16.5983 16.734C17.6078 17.1816 18.7245 17.4299 19.8972 17.4299V15.9299ZM15.5519 19.8875L17.5519 16.4234L16.2528 15.6734L14.2528 19.1375L15.5519 19.8875ZM24.913 18.7625H14.9023V20.2625H24.913V18.7625ZM22.2593 16.416L24.2635 19.8875L25.5626 19.1375L23.5583 15.666L22.2593 16.416Z" fill="#323A3D"/>
<line x1="14.0391" y1="19.4199" x2="25.5021" y2="19.4199" stroke="#323A3D" stroke-width="1.5" stroke-linecap="round"/>
<circle cx="19.9102" cy="11.7305" r="1.28516" fill="#323A3D"/>
</svg>
