<svg width="39" height="23" viewBox="0 0 39 23" fill="none" xmlns="http://www.w3.org/2000/svg">
<circle cx="19.9073" cy="9.27844" r="7.39563" stroke="#323A3D" stroke-width="1.2"/>
<path d="M24.0288 9.14465C23.7729 8.23705 23.2243 7.43942 22.4683 6.87576C21.7123 6.3121 20.7913 6.014 19.8484 6.0278C18.9055 6.0416 17.9936 6.36654 17.2545 6.95208C16.5153 7.53762 15.9903 8.35097 15.7611 9.26567" stroke="#FF6F00" stroke-width="1.2"/>
<path d="M21.9439 9.88202C21.7571 9.47979 21.4553 9.14196 21.0766 8.91127C20.6978 8.68057 20.2592 8.56736 19.8161 8.58596C19.3731 8.60455 18.9455 8.75412 18.5874 9.01574C18.2293 9.27735 17.9569 9.63928 17.8045 10.0557" stroke="#FF6F00" stroke-width="1.2"/>
<path d="M22.9088 16.0938L23.4284 15.7937L23.158 15.3254L22.6642 15.5459L22.9088 16.0938ZM16.9023 16.1011L17.1456 15.5527L16.6524 15.334L16.3827 15.8011L16.9023 16.1011ZM14.9023 19.5652L14.3827 19.2652L13.8631 20.1652H14.9023V19.5652ZM24.913 19.5652V20.1652H25.9523L25.4327 19.2652L24.913 19.5652ZM22.6642 15.5459C21.8198 15.9228 20.8838 16.1327 19.8972 16.1327V17.3327C21.0556 17.3327 22.158 17.086 23.1534 16.6416L22.6642 15.5459ZM19.8972 16.1327C18.9166 16.1327 17.986 15.9253 17.1456 15.5527L16.6591 16.6496C17.6498 17.0889 18.7458 17.3327 19.8972 17.3327V16.1327ZM15.422 19.8652L17.422 16.4011L16.3827 15.8011L14.3827 19.2652L15.422 19.8652ZM24.913 18.9652H14.9023V20.1652H24.913V18.9652ZM22.3892 16.3938L24.3934 19.8652L25.4327 19.2652L23.4284 15.7937L22.3892 16.3938Z" fill="#323A3D"/>
<line x1="13.8891" y1="19.6227" x2="25.6521" y2="19.6227" stroke="#323A3D" stroke-width="1.2" stroke-linecap="round"/>
<circle cx="19.9102" cy="11.7832" r="1.28516" fill="#FF6F00"/>
</svg>
