<svg width="39" height="23" viewBox="0 0 39 23" fill="none" xmlns="http://www.w3.org/2000/svg">
<circle cx="19.5714" cy="9.27844" r="7.39563" stroke="#323A3D" stroke-width="1.5"/>
<path d="M23.6928 9.14465C23.4369 8.23705 22.8884 7.43942 22.1324 6.87576C21.3764 6.3121 20.4554 6.014 19.5125 6.0278C18.5696 6.0416 17.6577 6.36654 16.9185 6.95208C16.1794 7.53762 15.6544 8.35097 15.4252 9.26567" stroke="#FF6F00" stroke-width="1.5"/>
<path d="M21.6079 9.88202C21.4212 9.47979 21.1194 9.14196 20.7406 8.91127C20.3619 8.68057 19.9233 8.56736 19.4802 8.58596C19.0371 8.60455 18.6095 8.75412 18.2514 9.01574C17.8934 9.27735 17.6209 9.63928 17.4685 10.0557" stroke="#FF6F00" stroke-width="1.5"/>
<path d="M22.5728 16.0938L23.2224 15.7187L22.8844 15.1334L22.2671 15.4089L22.5728 16.0938ZM16.5664 16.1011L16.8704 15.4155L16.254 15.1422L15.9169 15.7261L16.5664 16.1011ZM14.5664 19.5652L13.9169 19.1902L13.2674 20.3152H14.5664V19.5652ZM24.5771 19.5652V20.3152H25.8762L25.2266 19.1902L24.5771 19.5652ZM22.2671 15.4089C21.4416 15.7774 20.5264 15.9827 19.5613 15.9827V17.4827C20.7412 17.4827 21.8643 17.2313 22.8786 16.7786L22.2671 15.4089ZM19.5613 15.9827C18.602 15.9827 17.6921 15.7799 16.8704 15.4155L16.2624 16.7868C17.2718 17.2344 18.3886 17.4827 19.5613 17.4827V15.9827ZM15.2159 19.9402L17.2159 16.4761L15.9169 15.7261L13.9169 19.1902L15.2159 19.9402ZM24.5771 18.8152H14.5664V20.3152H24.5771V18.8152ZM21.9233 16.4688L23.9276 19.9402L25.2266 19.1902L23.2224 15.7187L21.9233 16.4688Z" fill="#323A3D"/>
<line x1="13.7031" y1="19.4727" x2="25.1661" y2="19.4727" stroke="#323A3D" stroke-width="1.5" stroke-linecap="round"/>
<circle cx="19.5742" cy="11.7832" r="1.28516" fill="#FF6F00"/>
</svg>
