<svg width="20" height="14" xmlns="http://www.w3.org/2000/svg" fill="none">

 <g>
  <title>Layer 1</title>
  <path id="svg_1" fill="#00AE42" d="m18.4872,11.724l0,-8.69898l-3.5639,4.3491l3.5639,4.34988zm1,-8.69898c0,-0.93941 -1.1781,-1.36044 -1.7735,-0.63383l-3.5639,4.34911c-0.302,0.36855 -0.302,0.899 0,1.26758l3.5638,4.34992c0.5954,0.7267 1.7736,0.3057 1.7736,-0.6338l0,-8.69898z" clip-rule="evenodd" fill-rule="evenodd"/>
  <path id="svg_2" fill="#00AE42" d="m12.9751,1.55273l-11.9751,0l0,10.90007l11.9751,0l0,-10.90007zm-11.9751,-1c-0.55229,0 -1,0.44772 -1,1.00001l0,10.90006c0,0.5523 0.44772,1 1,1l11.9751,0c0.5523,0 1,-0.4477 1,-1l0,-10.90007c0,-0.55228 -0.4477,-1 -1,-1l-11.9751,0z" clip-rule="evenodd" fill-rule="evenodd"/>
  <path id="svg_3" fill="#00AE42" d="m4.5,10.4777c0.82843,0 1.5,-0.67155 1.5,-1.49998c0,-0.82843 -0.67157,-1.5 -1.5,-1.5c-0.82843,0 -1.5,0.67157 -1.5,1.5c0,0.82843 0.67157,1.49998 1.5,1.49998zm0,1c1.38071,0 2.5,-1.1193 2.5,-2.49998c0,-1.38071 -1.11929,-2.5 -2.5,-2.5c-1.38071,0 -2.5,1.11929 -2.5,2.5c0,1.38068 1.11929,2.49998 2.5,2.49998z" clip-rule="evenodd" fill-rule="evenodd"/>
 </g>
</svg>