<svg width="17" height="17" viewBox="0 0 17 17" fill="none" xmlns="http://www.w3.org/2000/svg">
<path d="M8.63468 3.23633C10.0713 3.23633 11.449 3.80701 12.4648 4.82283C13.4807 5.83866 14.0514 7.21641 14.0514 8.653C14.0514 10.0896 13.4807 11.4673 12.4648 12.4832C11.449 13.499 10.0713 14.0697 8.63468 14.0697C7.1981 14.0697 5.82034 13.499 4.80452 12.4832C3.7887 11.4673 3.21802 10.0896 3.21802 8.653C3.21802 7.21641 3.7887 5.83866 4.80452 4.82283C5.82034 3.80701 7.1981 3.23633 8.63468 3.23633ZM8.63468 15.3197C10.4028 15.3197 12.0985 14.6173 13.3487 13.367C14.599 12.1168 15.3014 10.4211 15.3014 8.653C15.3014 6.88488 14.599 5.18919 13.3487 3.93895C12.0985 2.68871 10.4028 1.98633 8.63468 1.98633C6.86657 1.98633 5.17088 2.68871 3.92064 3.93895C2.6704 5.18919 1.96802 6.88488 1.96802 8.653C1.96802 10.4211 2.6704 12.1168 3.92064 13.367C5.17088 14.6173 6.86657 15.3197 8.63468 15.3197ZM8.63468 5.31966C8.28833 5.31966 8.00968 5.59831 8.00968 5.94466V8.86133C8.00968 9.20768 8.28833 9.48633 8.63468 9.48633C8.98104 9.48633 9.25968 9.20768 9.25968 8.86133V5.94466C9.25968 5.59831 8.98104 5.31966 8.63468 5.31966ZM9.46802 11.153C9.46802 10.932 9.38022 10.72 9.22394 10.5637C9.06766 10.4075 8.8557 10.3197 8.63468 10.3197C8.41367 10.3197 8.20171 10.4075 8.04543 10.5637C7.88915 10.72 7.80135 10.932 7.80135 11.153C7.80135 11.374 7.88915 11.586 8.04543 11.7423C8.20171 11.8985 8.41367 11.9863 8.63468 11.9863C8.8557 11.9863 9.06766 11.8985 9.22394 11.7423C9.38022 11.586 9.46802 11.374 9.46802 11.153Z" fill="#FF6F00"/>
</svg>
