<svg width="14" height="14" viewBox="0 0 14 14" fill="none" xmlns="http://www.w3.org/2000/svg">
<path d="M8.34801 3.82127C8.71179 4.19206 9.20969 4.40069 9.7295 4.40069H11.3196C11.4502 4.40069 11.5773 4.41559 11.7 4.44276V3.14981C11.7 2.62475 11.274 2.19873 10.749 2.19873H7.00335C6.92533 2.19873 6.8517 2.211 6.77895 2.22853C6.79385 2.24256 6.80875 2.25483 6.82277 2.26886L8.34801 3.82127Z" stroke="white" stroke-miterlimit="10" stroke-linecap="round"/>
<path d="M11.7 4.44284C11.5773 4.41566 11.4502 4.40076 11.3196 4.40076H9.72951C9.2097 4.40076 8.71268 4.19214 8.34803 3.82135L6.82279 2.26893C6.80876 2.25491 6.79298 2.24176 6.77896 2.22861C6.45726 1.92269 6.03036 1.75 5.58419 1.75H2.34787C1.374 1.75 0.583328 2.53979 0.583328 3.51455V10.6402C0.583328 11.615 1.37312 12.4048 2.34787 12.4048H11.3196C12.2944 12.4048 13.0842 11.615 13.0842 10.6402V6.16531C13.0842 5.32117 12.4916 4.61728 11.7 4.44284Z" stroke="white" stroke-miterlimit="10" stroke-linecap="round"/>
</svg>
