<svg id="Layer_1" data-name="Layer 1" xmlns="http://www.w3.org/2000/svg" width="10.902in" height="9.463in" viewBox="0 0 784.956 681.315">
  <defs>
    <style>
      .cls-1 {
        fill: gray;
      }

      .cls-2 {
        fill: #fff;
      }

      .cls-3, .cls-4 {
        fill: none;
      }

      .cls-4 {
        stroke: #231f20;
      }
    </style>
  </defs>
  <title>DM1-Build-Area</title>
  <g transform="rotate(180, 392.478, 340.6575)">
  <g>
    <g>
      <polyline class="cls-1" points="167.535 620.386 167.542 620.33 167.593 620.163 167.687 619.942 167.815 619.692 169.882 616.081 174.149 608.712 177.574 602.772 178.216 601.659 178.424 601.314 178.515 601.178 178.536 601.179 178.575 601.194 178.695 601.262 178.859 601.372 179.048 601.511 179.525 601.877 185.38 601.877 191.321 601.892 191.336 601.91 191.349 601.954 191.361 602.112 191.358 602.341 191.339 602.618 191.319 602.896 191.317 603.127 191.331 603.286 191.343 603.331 191.36 603.35 191.449 603.37 195.129 603.392 206.441 603.373 206.405 602.701 206.384 602.205 206.383 601.956 206.397 601.882 218.019 601.883 219.208 601.197 230.323 620.449 229.125 621.141 227.652 623.65 227.037 624.705 226.455 625.722 225.969 626.586 225.646 627.181 225.432 627.582 225.245 627.917 225.104 628.152 225.03 628.251 224.946 628.3 224.129 629.749 223.807 630.31 223.533 630.765 223.337 631.069 223.277 631.15 223.247 631.174 223.031 631.047 222.6 630.772 222.018 630.394 221.334 631.594 214.481 643.462 215.833 644.225 215.723 644.351 214.812 645.891 213.981 647.331 213.109 648.809 212.134 650.476 211.054 652.37 209.901 654.424 209.952 654.951 209.96 655.163 209.943 655.349 209.927 655.427 209.906 655.491 209.88 655.538 209.851 655.566 209.699 655.654 188.421 655.665 187.76 655.639 187.805 654.597 181.989 644.149 183.263 643.555 175.683 630.425 174.388 631.172 168.539 621.067 168.074 620.796 167.888 620.682 167.726 620.574 167.604 620.482 167.541 620.42 167.535 620.386"/>
      <polyline class="cls-1" points="23.146 356.847 22.404 354.47 22.153 351.164 22.377 349.908 22.432 349.631 22.503 349.325 22.682 348.664 22.889 348.007 22.996 347.706 23.101 347.436 23.602 346.219 24.432 345.045 24.621 344.787 24.84 344.503 25.336 343.896 25.859 343.298 26.111 343.026 26.345 342.783 27.428 341.695 32.914 338.494 36.199 337.558 39.579 337.334 42.657 337.827 45.543 338.941 46.765 339.756 47.027 339.936 47.305 340.136 47.871 340.57 48.397 341.004 48.623 341.204 48.814 341.384 49.641 342.197 51.983 345.831 52.496 347.356 52.703 348.018 52.887 348.694 53.028 349.304 53.076 349.559 53.106 349.769 53.185 350.414 53.217 350.624 53.238 350.717 53.273 350.778 63.453 344.9 64.471 345.931 67.998 349.718 68.493 350.188 32.069 371.217 28.52 365.069 29.978 364.227 28.226 363.444 25.857 361.321 23.146 356.847"/>
      <polyline class="cls-1" points="40.25 386.447 39.839 385.175 39.662 384.57 39.485 383.866 39.328 383.148 39.211 382.505 38.995 381.108 39.154 378.569 40.251 374.969 41.954 372.416 44.129 370.249 48.24 367.654 49.551 367.146 49.844 367.038 50.175 366.926 50.906 366.7 51.651 366.496 52.001 366.41 52.321 366.34 53.78 366.041 56.81 366.059 60.922 367.178 62.117 367.834 62.698 368.167 63.248 368.513 63.772 368.874 64.274 369.254 64.756 369.655 65.223 370.081 65.678 370.533 66.124 371.016 67.101 372.113 69.019 375.446 70.163 378.884 70.403 382.645 69.672 385.943 68.26 388.791 66.05 391.334 63.025 393.31 61.793 393.767 60.825 394.113 60.454 394.237 60.228 394.303 59.896 394.382 49.085 375.657 48.527 376.092 48.219 376.346 47.914 376.626 47.615 376.928 47.327 377.245 47.054 377.575 46.799 377.912 46.567 378.252 46.362 378.589 45.913 379.379 45.701 380.368 45.656 380.599 45.619 380.835 45.589 381.075 45.568 381.318 45.554 381.566 45.547 381.816 45.558 382.323 45.599 382.836 45.67 383.35 45.771 383.863 45.902 384.37 46.197 385.387 48.192 388.765 49.067 389.649 49.429 390.001 49.793 390.328 50.158 390.628 50.526 390.903 50.897 391.152 51.272 391.377 51.651 391.578 52.036 391.755 52.712 392.045 52.255 392.95 49.66 396.892 49.332 396.836 49.22 396.81 49.093 396.768 48.951 396.711 48.795 396.64 48.449 396.457 48.064 396.226 47.649 395.953 47.216 395.644 46.773 395.305 46.331 394.944 45.22 394.002 43.027 391.315 40.25 386.447"/>
      <polyline class="cls-1" points="54.042 410.41 53.969 409.697 53.959 409.537 53.957 409.355 53.978 408.953 54.028 408.539 54.062 408.343 54.102 408.164 54.307 407.344 55.683 405.58 87.732 386.958 88.756 387.995 92.284 391.782 92.771 392.246 61.66 410.326 60.167 412.442 60.037 413.172 59.992 413.492 59.967 413.822 59.962 414.123 59.98 414.358 60.005 414.559 60.007 414.64 60 414.71 59.982 414.769 59.953 414.816 59.912 414.853 59.857 414.88 59.786 414.897 59.699 414.904 59.47 414.894 59.161 414.851 58.761 414.78 57.74 414.59 55.924 413.422 54.042 410.41"/>
      <polyline class="cls-1" points="64.418 428.364 64.156 427.339 64.035 426.816 63.942 426.305 63.879 425.804 63.845 425.311 63.84 424.826 63.863 424.346 63.915 423.871 63.996 423.397 64.21 422.329 64.682 421.5 64.916 421.112 65.205 420.668 65.512 420.223 65.801 419.833 66.448 418.994 81.886 409.866 80.251 406.819 84.919 404.124 86.74 407.063 91.985 404.153 97.495 408.835 90.289 413.211 94.359 420.461 89.68 423.163 85.436 416.013 72.495 423.49 71.948 424.073 71.831 424.204 71.708 424.353 71.461 424.685 71.236 425.028 71.061 425.339 70.722 426.022 70.826 427.884 72.429 430.642 73.41 431.477 74.189 432.13 74.683 432.527 74.975 432.742 69.473 435.799 68.006 434.274 64.418 428.364"/>
      <polyline class="cls-1" points="74.785 446.323 74.43 444.988 74.357 444.698 74.287 444.383 74.161 443.721 74.065 443.084 74.033 442.799 74.014 442.55 73.954 441.446 74.593 438.761 76.02 436.694 76.879 435.964 77.283 435.64 77.75 435.297 78.222 434.976 78.64 434.717 79.542 434.2 82 433.4 84.585 433.312 87.578 434.114 90.754 436.24 92.856 438.407 95.307 441.809 95.824 442.93 96.041 443.41 96.247 443.889 96.419 444.312 96.535 444.622 96.729 445.194 97.043 445.013 97.121 444.961 97.223 444.882 97.479 444.659 97.779 444.377 98.087 444.065 98.816 443.298 99.362 441.093 98.733 438.394 95.837 433.737 93.502 431.641 93.62 431.309 97.133 427.709 97.346 427.766 97.412 427.797 97.515 427.864 97.818 428.088 98.211 428.405 98.651 428.782 99.743 429.741 102.127 432.686 104.762 437.644 105.576 440.626 105.755 443.236 105.044 446.022 103.3 448.494 100.331 451.154 88.826 458.128 88.231 458.713 87.937 459.024 87.645 459.372 87.364 459.745 87.104 460.127 86.873 460.503 86.682 460.86 86.604 461.027 86.539 461.183 86.489 461.327 86.455 461.457 86.394 461.693 86.359 461.79 86.32 461.873 86.274 461.943 86.222 462 86.161 462.045 86.091 462.078 86.01 462.1 85.917 462.111 85.812 462.111 85.692 462.101 85.405 462.052 85.047 461.969 84.136 461.739 83.099 460.721 81.829 458.525 81.748 456.952 82.095 455.838 82.256 455.375 82.436 454.935 82.613 454.569 82.694 454.43 82.767 454.327 83.091 453.93 82.377 453.803 82.214 453.767 82.024 453.715 81.591 453.568 81.134 453.384 80.706 453.182 79.75 452.688 77.516 450.786 74.785 446.323"/>
      <polyline class="cls-1" points="114.189 514.605 113.715 511.941 113.868 510.701 113.906 510.432 113.957 510.142 114.086 509.536 114.237 508.956 114.316 508.698 114.394 508.475 114.766 507.488 116.066 505.659 118.233 503.961 120.585 503.047 123.55 502.839 127.537 504.039 130.667 506.17 131.499 507.024 131.689 507.228 131.913 507.482 132.424 508.097 132.969 508.788 133.481 509.476 134.631 511.074 135.164 512.562 135.568 513.731 135.713 514.179 135.792 514.452 135.887 514.852 136.708 514.283 137.08 514.008 137.488 513.678 137.88 513.337 138.209 513.024 138.889 512.333 139.865 510.464 139.95 508.425 139.368 506.625 137.831 503.975 137 503.052 136.604 502.636 136.183 502.235 135.744 501.857 135.299 501.509 134.855 501.196 134.422 500.927 134.213 500.811 134.01 500.708 133.814 500.619 133.628 500.546 133.341 500.434 133.094 500.321 132.914 500.22 132.858 500.179 132.828 500.145 132.751 500.005 135.272 496.025 135.67 496.195 135.934 496.317 136.218 496.469 136.521 496.647 136.84 496.85 137.171 497.075 137.512 497.32 137.86 497.583 138.212 497.861 138.566 498.152 138.918 498.454 139.266 498.764 139.607 499.081 139.938 499.402 140.256 499.725 140.559 500.047 140.844 500.367 141.757 501.422 143.585 504.587 144.728 507.711 145.116 510.697 144.449 513.635 143.619 514.867 143.232 515.41 142.793 515.981 142.356 516.51 142.155 516.738 141.975 516.93 141.161 517.763 127.533 525.916 127.136 526.372 126.953 526.592 126.75 526.857 126.551 527.133 126.381 527.385 126.023 527.944 125.774 529.595 123.542 530.884 122.182 528.091 121.809 525.862 122.597 523.443 122.926 523.124 123.051 522.994 123.145 522.875 123.201 522.781 123.212 522.747 123.209 522.724 123.162 522.643 120.494 521.798 119.686 521.27 119.292 520.992 118.817 520.625 118.32 520.218 117.862 519.818 116.847 518.894 114.189 514.605"/>
      <polyline class="cls-1" points="146.165 569.917 145.39 567.129 145.22 564.176 145.681 561.255 146.746 558.486 147.568 557.275 147.951 556.731 148.334 556.229 148.728 555.759 149.142 555.309 149.588 554.87 150.076 554.429 150.618 553.977 151.223 553.5 152.567 552.469 155.793 550.891 158.791 549.999 160.143 549.866 160.444 549.843 160.781 549.826 161.519 549.813 162.266 549.829 162.614 549.847 162.929 549.872 164.364 550.011 167.463 550.989 169.875 552.346 172.235 554.434 175.133 559.449 175.875 562.04 176.129 565.495 175.157 569.174 174.556 570.187 174.418 570.41 174.255 570.656 173.882 571.185 173.484 571.708 173.107 572.162 172.261 573.124 168.305 575.613 166.847 576.077 155.765 557.256 154.823 557.866 154.387 558.169 153.894 558.542 153.406 558.939 152.983 559.311 152.085 560.145 150.804 562.198 150.091 564.831 150.259 567.631 151.225 570.225 152.076 571.462 152.333 571.825 152.592 572.173 152.855 572.506 153.121 572.825 153.392 573.129 153.667 573.42 153.947 573.696 154.232 573.96 154.522 574.21 154.819 574.448 155.121 574.674 155.43 574.887 155.746 575.089 156.069 575.28 156.4 575.459 156.739 575.628 157.627 576.051 155.589 579.727 155.267 579.715 155.172 579.704 155.065 579.681 154.947 579.645 154.818 579.596 154.532 579.464 154.212 579.289 153.862 579.075 153.489 578.825 153.096 578.544 152.689 578.236 152.274 577.904 151.854 577.552 151.435 577.185 151.022 576.806 150.621 576.419 150.236 576.028 149.872 575.638 149.534 575.251 148.587 574.127 146.165 569.917"/>
      <polyline class="cls-1" points="87.833 467.803 113.245 453.131 114.974 456.34 112.992 459.441 116.015 460.234 118.049 461.502 119.643 463.118 121.199 465.814 122.128 468.604 122.343 471.284 121.578 474.01 123.801 474.456 126.559 476.276 128.551 478.446 130.262 481.812 130.725 484.472 130.649 485.39 130.627 485.596 130.591 485.83 130.491 486.349 130.361 486.883 130.217 487.365 129.86 488.423 129.145 489.452 128.813 489.905 128.437 490.377 128.064 490.812 127.74 491.154 127.049 491.825 108.113 502.929 105.401 498.231 123.548 487.63 124.181 486.809 124.315 486.628 124.453 486.429 124.724 485.999 124.964 485.574 125.063 485.38 125.141 485.205 125.468 484.423 125.292 481.756 123.689 478.919 122.725 478.244 122.288 477.957 121.812 477.674 121.353 477.428 121.148 477.329 120.969 477.252 120.178 476.936 118.196 476.806 99.322 487.703 96.613 483.011 115.619 472.028 116.591 470.67 116.901 468.817 116.551 466.646 115.096 464.035 112.78 462.428 109.501 461.549 90.542 472.495 87.833 467.803"/>
      <polyline class="cls-1" points="127.157 535.915 163.074 515.179 165.688 519.706 143.414 532.677 160.985 535.829 163.985 541.228 152.189 538.953 149.611 538.474 139.821 557.662 136.916 552.631 144.682 537.554 144.786 537.155 138.433 535.445 129.773 540.445 127.157 535.915"/>
      <polyline class="cls-1" points="157.702 588.819 183.102 574.154 185.811 578.846 181.865 581.124 183.835 581.215 186.526 582.028 187.429 582.617 187.626 582.752 187.841 582.908 188.295 583.265 188.736 583.642 189.109 583.994 189.885 584.781 190.562 585.954 190.866 586.514 191.194 587.172 191.505 587.845 191.762 588.452 192.285 589.776 192.052 589.911 187.107 590.453 186.983 590.419 186.956 590.388 186.926 590.312 186.862 590.045 186.799 589.657 186.746 589.19 186.633 587.994 185.325 585.705 184.507 585.116 184.323 584.99 184.114 584.859 183.648 584.594 183.167 584.352 182.94 584.25 182.73 584.165 181.771 583.803 179.035 583.624 176.555 584.19 160.41 593.511 157.702 588.819"/>
    </g>
    <g>
      <polyline class="cls-2" points="188.145 640.677 187.954 640.785 187.777 640.865 187.639 640.906 187.368 640.949 179.889 627.996 181.264 627.202 179.338 624.108 186.753 611.302 187.615 609.75 191.278 609.799 191.283 609.434 191.291 609.258 191.309 609.05 191.365 608.641 191.442 608.215 206.426 608.226 206.405 608.924 206.401 609.202 206.405 609.443 206.416 609.621 206.434 609.71 206.485 609.797 210.126 609.753 218.357 624.014 217.433 625.587 217.077 626.202 216.791 626.715 216.603 627.072 216.556 627.176 216.544 627.22 216.607 627.272 216.752 627.367 217.201 627.635 217.824 627.99 210.412 640.789 210.086 640.977 209.605 640.608 209.409 640.47 209.23 640.368 209.088 640.311 209.037 640.302 209.003 640.309 208.882 640.379 207.1 643.408 206.187 643.468 190.642 643.444 188.75 640.245 188.33 640.554 188.145 640.677"/>
      <polyline class="cls-2" points="32.895 360.747 32.542 360.486 32.203 360.219 31.922 359.977 31.343 359.448 29.82 356.859 29.512 355.751 29.373 355.206 29.267 354.691 29.193 354.197 29.15 353.721 29.141 353.486 29.139 353.254 29.159 352.792 29.209 352.327 29.29 351.855 29.505 350.788 30.584 349.029 32.363 347.254 36.082 345.101 37.291 344.767 37.557 344.699 37.848 344.633 38.468 344.513 39.078 344.421 39.355 344.389 39.6 344.37 40.7 344.306 43.324 345.088 45.129 346.37 46.965 348.703 47.817 350.732 47.964 353.735 34.626 361.548 34.282 361.489 34.198 361.468 34.091 361.43 33.828 361.312 33.525 361.152 33.219 360.968 32.895 360.747"/>
      <polyline class="cls-2" points="62.296 385.199 61.961 385.536 61.68 385.795 61.571 385.885 61.49 385.941 61.17 386.126 53.77 373.31 54.241 373.175 54.505 373.11 54.875 373.032 55.74 372.876 56.768 372.71 58.88 372.946 60.823 373.914 62.337 375.366 64.227 378.913 64.376 381.778 63.482 383.887 62.646 384.822 62.296 385.199"/>
      <polyline class="cls-2" points="83.966 449.695 83.796 449.586 83.432 449.328 83.075 449.043 82.768 448.766 82.121 448.128 80.692 445.716 80.517 445.037 80.483 444.885 80.453 444.714 80.407 444.335 80.385 443.949 80.389 443.601 80.437 442.844 81.457 441.253 83.878 440.037 85.967 440.098 88.008 441.232 89.931 443.328 91.595 446.109 92.219 447.798 88.577 449.901 86.675 450.356 84.829 450.165 84.122 449.784 83.966 449.695"/>
      <polyline class="cls-2" points="122.446 518.774 122.011 518.479 121.588 518.167 121.23 517.877 120.481 517.227 118.87 514.461 118.394 512.474 118.804 510.564 120.131 509.07 122.146 508.138 124.353 507.986 126.804 508.732 129.259 510.434 131.032 512.646 131.549 513.75 131.773 514.254 132.003 514.81 132.211 515.351 132.371 515.81 132.676 516.766 126.562 520.296 123.699 519.504 122.839 519.015 122.446 518.774"/>
      <polyline class="cls-2" points="168.602 569.219 168.295 569.473 168.033 569.676 167.851 569.801 167.535 569.983 159.12 555.407 159.791 555.169 160.191 555.037 160.591 554.927 160.993 554.836 161.398 554.767 161.807 554.717 162.221 554.688 162.641 554.678 163.068 554.689 164.134 554.739 166.334 555.468 168.368 556.883 170.13 559.037 171.182 561.729 171.385 564.717 171.043 565.7 170.864 566.168 170.658 566.621 170.426 567.057 170.17 567.476 169.89 567.876 169.588 568.254 169.428 568.435 169.264 568.61 169.094 568.779 168.919 568.941 168.602 569.219"/>
    </g>
  </g>
  <g>
    <g>
      <polyline class="cls-1" points="747.217 395.574 747.165 395.595 746.995 395.634 746.757 395.663 746.476 395.678 742.315 395.694 733.801 395.683 726.943 395.687 725.659 395.687 725.255 395.68 725.092 395.668 725.082 395.65 725.076 395.609 725.075 395.47 725.088 395.274 725.114 395.04 725.192 394.444 722.265 389.374 719.308 384.221 719.315 384.199 719.348 384.166 719.478 384.076 719.678 383.964 719.928 383.843 720.178 383.72 720.379 383.607 720.51 383.516 720.543 383.482 720.551 383.459 720.523 383.371 718.703 380.174 713.03 370.386 712.466 370.753 712.047 371.02 711.832 371.145 711.761 371.17 705.951 361.104 704.762 360.418 715.877 341.165 717.075 341.857 719.985 341.879 721.206 341.883 722.379 341.879 723.37 341.868 724.046 341.85 724.5 341.835 724.884 341.829 725.158 341.834 725.281 341.849 725.365 341.898 727.028 341.88 727.675 341.879 728.207 341.888 728.568 341.906 728.667 341.918 728.704 341.931 728.702 342.182 728.679 342.692 728.642 343.386 730.024 343.377 743.728 343.379 743.713 341.827 743.877 341.858 745.666 341.878 747.329 341.878 749.045 341.894 750.977 341.905 753.156 341.893 755.512 341.864 755.943 341.557 756.122 341.444 756.292 341.365 756.367 341.341 756.433 341.327 756.487 341.325 756.526 341.337 756.678 341.424 767.326 359.846 767.635 360.432 766.709 360.914 760.569 371.175 759.417 370.368 751.837 383.498 753.131 384.245 747.305 394.364 747.302 394.901 747.297 395.119 747.284 395.314 747.265 395.465 747.243 395.551 747.217 395.574"/>
      <polyline class="cls-1" points="591.18 652.388 589.493 654.218 586.755 656.089 585.555 656.523 585.288 656.614 584.987 656.705 584.325 656.881 583.653 657.029 583.338 657.088 583.052 657.132 581.748 657.306 580.316 657.175 579.998 657.14 579.643 657.092 578.869 656.966 578.09 656.812 577.728 656.731 577.401 656.649 575.917 656.255 570.401 653.105 567.949 650.728 566.065 647.913 564.953 645 564.475 641.944 564.569 640.478 564.594 640.161 564.629 639.821 564.721 639.113 564.834 638.441 564.894 638.145 564.954 637.89 565.245 636.767 567.222 632.922 568.286 631.715 568.756 631.205 569.249 630.708 569.706 630.281 569.904 630.111 570.07 629.98 570.589 629.59 570.755 629.457 570.826 629.392 570.86 629.331 560.68 623.454 561.064 622.058 562.58 617.109 562.74 616.446 599.163 637.475 595.614 643.623 594.156 642.781 594.354 644.69 593.7 647.803 591.18 652.388"/>
      <polyline class="cls-1" points="608.262 622.775 607.366 623.767 606.931 624.223 606.409 624.728 605.866 625.223 605.368 625.646 604.266 626.531 601.987 627.664 598.322 628.513 595.259 628.314 592.295 627.514 587.992 625.252 586.897 624.37 586.657 624.17 586.394 623.94 585.833 623.42 585.284 622.877 585.034 622.616 584.814 622.374 583.825 621.26 582.326 618.627 581.238 614.507 581.209 613.144 581.208 612.475 581.232 611.825 581.283 611.19 581.361 610.566 581.467 609.948 581.602 609.331 581.767 608.711 581.961 608.083 582.423 606.688 584.35 603.361 586.756 600.651 589.893 598.563 593.114 597.547 596.287 597.346 599.594 597.988 602.818 599.62 603.831 600.458 604.614 601.124 604.906 601.383 605.077 601.545 605.311 601.793 594.5 620.518 595.156 620.784 595.53 620.924 595.925 621.048 596.336 621.156 596.755 621.247 597.177 621.319 597.596 621.371 598.006 621.402 598.401 621.411 599.31 621.405 600.272 621.094 600.495 621.017 600.717 620.932 600.94 620.837 601.162 620.734 601.383 620.623 601.603 620.503 602.037 620.24 602.46 619.949 602.871 619.63 603.264 619.286 603.638 618.918 604.371 618.155 606.299 614.738 606.627 613.538 606.751 613.048 606.852 612.571 606.929 612.104 606.983 611.648 607.013 611.201 607.021 610.764 607.005 610.335 606.967 609.914 606.879 609.184 607.892 609.127 612.603 609.404 612.718 609.715 612.752 609.825 612.779 609.956 612.801 610.108 612.817 610.278 612.832 610.67 612.824 611.119 612.795 611.614 612.744 612.144 612.672 612.697 612.58 613.26 612.321 614.693 611.09 617.936 608.262 622.775"/>
      <polyline class="cls-1" points="622.119 598.849 621.538 599.269 621.404 599.358 621.248 599.45 620.889 599.633 620.505 599.797 620.319 599.865 620.144 599.92 619.331 600.153 617.115 599.843 584.964 581.398 585.35 579.993 586.866 575.044 587.023 574.391 618.238 592.294 620.816 592.529 621.514 592.277 621.813 592.155 622.111 592.012 622.375 591.866 622.568 591.733 622.73 591.611 622.8 591.568 622.864 591.54 622.923 591.526 622.979 591.527 623.032 591.544 623.082 591.579 623.132 591.632 623.182 591.703 623.288 591.906 623.405 592.195 623.544 592.578 623.89 593.556 623.787 595.714 622.119 598.849"/>
      <polyline class="cls-1" points="632.479 580.886 631.723 581.626 631.33 581.993 630.934 582.328 630.532 582.633 630.122 582.909 629.705 583.156 629.278 583.376 628.84 583.569 628.389 583.736 627.357 584.084 626.403 584.09 625.95 584.081 625.421 584.053 624.882 584.009 624.4 583.954 623.35 583.813 607.725 575.007 605.904 577.947 601.237 575.252 602.872 572.205 597.728 569.118 599.029 562.005 606.421 566.057 610.665 558.908 615.344 561.61 611.275 568.86 624.22 576.328 624.998 576.511 625.17 576.547 625.361 576.578 625.772 576.626 626.181 576.65 626.538 576.646 627.3 576.598 628.86 575.577 630.446 572.81 630.68 571.542 630.856 570.541 630.952 569.915 630.992 569.555 636.391 572.791 635.803 574.824 632.479 580.886"/>
      <polyline class="cls-1" points="682.281 494.664 680.211 496.406 679.061 496.893 678.808 496.994 678.532 497.095 677.943 497.287 677.365 497.446 677.102 497.506 676.87 497.551 675.829 497.722 673.595 497.511 671.041 496.482 669.073 494.903 667.411 492.439 666.456 488.386 666.737 484.611 667.06 483.463 667.142 483.196 667.25 482.875 667.527 482.125 667.853 481.307 668.193 480.52 669.002 478.725 670.024 477.519 670.835 476.585 671.15 476.236 671.347 476.031 671.646 475.749 670.743 475.322 670.318 475.137 669.829 474.949 669.337 474.78 668.901 474.652 667.963 474.408 665.857 474.497 664.049 475.443 662.78 476.847 661.254 479.504 660.87 480.684 660.708 481.235 660.572 481.801 660.463 482.369 660.384 482.93 660.336 483.47 660.319 483.98 660.323 484.219 660.335 484.446 660.356 484.66 660.386 484.858 660.432 485.163 660.458 485.433 660.461 485.639 660.453 485.709 660.439 485.751 660.356 485.888 655.649 485.694 655.597 485.265 655.571 484.975 655.56 484.653 655.563 484.301 655.579 483.924 655.609 483.525 655.65 483.107 655.704 482.674 655.768 482.23 655.844 481.779 655.929 481.323 656.024 480.866 656.128 480.412 656.24 479.965 656.361 479.528 656.488 479.105 656.623 478.698 657.08 477.379 658.907 474.215 661.041 471.662 663.433 469.834 666.311 468.942 667.793 469.045 668.457 469.108 669.17 469.203 669.847 469.317 670.145 469.377 670.402 469.437 671.53 469.726 685.405 477.451 685.998 477.567 686.28 477.615 686.611 477.658 686.949 477.693 687.253 477.714 687.916 477.745 689.47 477.135 691.703 478.424 689.964 480.998 688.22 482.435 685.731 482.962 685.29 482.837 685.115 482.794 684.965 482.772 684.855 482.77 684.821 482.778 684.802 482.792 684.755 482.873 685.358 485.607 685.304 486.57 685.261 487.05 685.181 487.645 685.076 488.278 684.959 488.875 684.666 490.216 682.281 494.664"/>
      <polyline class="cls-1" points="714.194 439.315 712.167 441.38 709.695 443.004 706.935 444.065 704.005 444.528 702.545 444.421 701.882 444.361 701.255 444.28 700.652 444.175 700.055 444.04 699.452 443.874 698.826 443.671 698.163 443.429 697.449 443.143 695.883 442.495 692.903 440.489 690.632 438.339 689.841 437.235 689.67 436.986 689.487 436.703 689.107 436.07 688.747 435.415 688.589 435.105 688.453 434.819 687.855 433.507 687.154 430.334 687.122 427.567 687.751 424.479 690.645 419.462 692.518 417.524 695.383 415.577 699.055 414.578 700.233 414.593 700.495 414.601 700.789 414.618 701.434 414.677 702.086 414.761 702.667 414.86 703.924 415.112 708.057 417.293 709.188 418.323 698.43 437.331 699.429 437.842 699.91 438.069 700.479 438.309 701.066 438.533 701.6 438.714 702.772 439.075 705.19 439.157 707.827 438.457 710.168 436.912 711.931 434.779 712.577 433.423 712.763 433.019 712.935 432.621 713.092 432.227 713.235 431.836 713.363 431.45 713.477 431.066 713.577 430.686 713.662 430.307 713.734 429.93 713.792 429.555 713.836 429.18 713.866 428.806 713.883 428.431 713.886 428.056 713.876 427.68 713.853 427.302 713.775 426.321 717.978 426.248 718.128 426.533 718.167 426.621 718.2 426.726 718.228 426.846 718.25 426.982 718.279 427.295 718.287 427.66 718.277 428.07 718.247 428.518 718.2 428.999 718.136 429.505 718.057 430.031 717.962 430.571 717.854 431.117 717.732 431.664 717.597 432.205 717.452 432.734 717.295 433.245 717.129 433.73 716.63 435.112 714.194 439.315"/>
      <polyline class="cls-1" points="654.927 540.889 629.515 526.217 631.429 523.116 635.106 523.281 634.281 520.267 634.363 517.871 634.965 515.683 636.522 512.987 638.473 510.788 640.687 509.262 643.43 508.562 642.705 506.413 642.902 503.115 643.785 500.305 645.844 497.14 647.917 495.409 648.75 495.015 648.94 494.932 649.16 494.845 649.66 494.673 650.187 494.519 650.677 494.402 651.771 494.183 653.02 494.287 653.578 494.348 654.175 494.437 654.738 494.543 655.196 494.653 656.123 494.916 675.207 505.762 672.495 510.46 654.24 500.046 653.213 499.907 652.989 499.882 652.748 499.862 652.24 499.842 651.752 499.847 651.534 499.859 651.344 499.878 650.502 499.986 648.281 501.472 646.626 504.278 646.523 505.451 646.493 505.973 646.486 506.527 646.503 507.047 646.52 507.274 646.542 507.467 646.664 508.311 647.543 510.093 666.416 520.989 663.707 525.681 644.694 514.713 643.031 514.55 641.271 515.208 639.566 516.597 638.032 519.162 637.798 521.972 638.677 525.251 657.636 536.197 654.927 540.889"/>
      <polyline class="cls-1" points="694.252 472.777 658.335 452.041 660.949 447.513 683.319 460.317 677.263 443.524 680.44 438.227 684.366 449.58 685.241 452.051 706.754 450.936 703.849 455.967 686.909 456.781 686.511 456.89 688.207 463.247 696.867 468.247 694.252 472.777"/>
      <polyline class="cls-1" points="724.796 419.873 699.395 405.208 702.104 400.516 706.05 402.795 705.144 401.043 704.503 398.306 704.561 397.229 704.579 396.991 704.607 396.727 704.689 396.155 704.795 395.585 704.914 395.086 705.207 394.02 705.885 392.847 706.217 392.304 706.623 391.692 707.05 391.085 707.448 390.559 708.333 389.444 708.566 389.578 711.508 393.591 711.541 393.714 711.528 393.754 711.477 393.817 711.277 394.006 710.973 394.254 710.595 394.534 709.616 395.23 708.288 397.507 708.186 398.51 708.169 398.732 708.16 398.979 708.163 399.515 708.194 400.053 708.22 400.301 708.251 400.525 708.417 401.536 709.63 403.995 711.36 405.86 727.504 415.181 724.796 419.873"/>
      <polygon class="cls-1" points="642.849 562.929 645.348 558.332 645.879 555.447 645.829 554.371 645.789 553.9 645.72 553.412 645.631 552.964 645.582 552.773 645.531 552.614 645.284 551.933 645.79 552.014 645.915 552.026 646.076 552.026 646.482 551.997 646.953 551.933 647.434 551.84 648.573 551.584 649.894 550.727 651.161 548.529 651.524 547.123 651.268 546.219 651.161 545.867 651.059 545.594 651.008 545.485 650.955 545.394 650.9 545.319 650.84 545.26 650.777 545.216 650.707 545.186 650.631 545.169 650.548 545.165 650.456 545.172 650.355 545.19 650.121 545.256 649.991 545.291 649.841 545.319 649.673 545.341 649.49 545.357 649.085 545.37 648.644 545.359 648.183 545.324 647.72 545.267 647.272 545.189 646.856 545.089 646.051 544.866 634.26 538.389 630.472 537.149 627.458 536.874 624.69 537.652 622.52 539.112 620.344 541.307 617.368 546.068 616.01 549.606 615.725 551.03 615.619 551.6 615.541 552.099 615.498 552.473 615.492 552.597 615.497 552.669 615.554 552.882 620.429 554.124 620.776 554.06 621.423 550.99 624.008 546.153 626.032 544.259 628.214 543.63 629.242 543.878 629.666 543.989 630.061 544.107 630.382 544.218 630.501 544.266 630.585 544.308 630.9 544.489 630.501 544.943 630.29 545.198 630.011 545.559 629.699 545.977 629.391 546.405 628.679 547.414 626.958 551.237 626.132 554.14 625.879 557.954 626.681 560.948 628.049 563.142 629.972 564.871 630.871 565.393 631.304 565.626 631.818 565.874 632.348 566.107 632.831 566.295 633.892 566.674 636.396 566.876 639.041 566.087 639.967 565.483 640.173 565.342 640.403 565.172 640.908 564.77 641.418 564.33 641.655 564.112 641.871 563.904 642.849 562.929"/>
    </g>
    <g>
      <polyline class="cls-2" points="754.485 367.578 754.674 367.691 754.831 367.804 754.936 367.903 755.109 368.116 747.63 381.069 746.255 380.275 744.539 383.491 729.741 383.472 727.966 383.501 726.177 380.305 725.858 380.483 725.702 380.564 725.513 380.653 725.131 380.809 724.723 380.955 717.241 367.973 717.856 367.642 718.099 367.507 718.305 367.383 718.453 367.284 718.521 367.224 718.572 367.136 716.713 364.005 724.948 349.746 726.772 349.76 727.483 349.761 728.07 349.752 728.473 349.736 728.587 349.725 728.631 349.713 728.644 349.633 728.655 349.46 728.662 348.936 728.658 348.22 743.448 348.239 743.774 348.427 743.695 349.029 743.674 349.268 743.674 349.474 743.696 349.625 743.714 349.674 743.737 349.7 743.858 349.77 747.372 349.798 747.88 350.559 755.633 364.033 753.808 367.271 754.286 367.48 754.485 367.578"/>
      <polyline class="cls-2" points="589.683 641.995 589.634 642.431 589.571 642.858 589.502 643.222 589.334 643.988 587.854 646.602 587.047 647.422 586.645 647.815 586.252 648.165 585.862 648.476 585.47 648.751 585.272 648.876 585.072 648.994 584.661 649.208 584.234 649.396 583.784 649.562 582.753 649.91 580.691 649.855 578.263 649.202 574.54 647.058 573.646 646.177 573.454 645.981 573.251 645.763 572.837 645.285 572.453 644.803 572.287 644.579 572.147 644.376 571.542 643.456 570.907 640.792 571.116 638.588 572.217 635.831 573.548 634.079 576.076 632.451 589.511 640.095 589.633 640.422 589.656 640.506 589.676 640.617 589.706 640.904 589.719 641.246 589.712 641.603 589.683 641.995"/>
      <polyline class="cls-2" points="596.158 604.306 596.617 604.428 596.983 604.542 597.115 604.591 597.204 604.634 597.524 604.819 590.125 617.635 589.773 617.294 589.585 617.098 589.332 616.817 588.765 616.146 588.107 615.338 587.255 613.391 587.122 611.225 587.622 609.187 589.749 605.777 592.156 604.216 594.429 603.935 595.657 604.192 596.158 604.306"/>
      <polyline class="cls-2" points="641.178 553.292 641.169 553.494 641.128 553.938 641.06 554.39 640.973 554.794 640.744 555.674 639.37 558.116 638.87 558.608 638.755 558.713 638.622 558.825 638.316 559.054 637.993 559.267 637.689 559.436 637.01 559.774 635.123 559.686 632.859 558.197 631.867 556.357 631.828 554.023 632.682 551.309 634.259 548.478 635.409 547.093 639.051 549.196 640.397 550.615 641.154 552.31 641.178 553.112 641.178 553.292"/>
      <polygon class="cls-2" points="681.763 485.428 681.725 485.952 681.666 486.474 681.594 486.93 681.406 487.903 679.816 490.681 678.333 492.086 676.474 492.687 674.516 492.284 672.702 491.005 671.467 489.17 670.887 486.674 671.134 483.698 672.163 481.056 672.86 480.057 673.184 479.61 673.551 479.133 673.916 478.682 674.233 478.315 674.909 477.572 681.023 481.102 681.769 483.977 681.775 484.967 681.763 485.428"/>
      <polygon class="cls-2" points="702.371 420.233 702.745 420.372 703.052 420.497 703.251 420.593 703.566 420.775 695.151 435.35 694.609 434.888 694.295 434.608 693.999 434.316 693.72 434.013 693.457 433.698 693.21 433.368 692.978 433.025 692.76 432.666 692.555 432.291 692.066 431.343 691.597 429.072 691.805 426.604 692.789 424 694.595 421.743 697.081 420.074 698.104 419.879 698.598 419.8 699.094 419.752 699.587 419.734 700.078 419.746 700.564 419.789 701.043 419.862 701.279 419.909 701.513 419.965 701.744 420.027 701.973 420.097 702.371 420.233"/>
    </g>
  </g>
  <g>
    <g>
      <polyline class="cls-1" points="262.676 5.986 262.721 6.021 262.84 6.149 262.984 6.34 263.137 6.576 265.231 10.172 269.479 17.551 272.911 23.488 273.554 24.6 273.749 24.953 273.821 25.1 273.81 25.118 273.777 25.143 273.658 25.214 273.481 25.301 273.266 25.395 272.711 25.625 269.783 30.695 266.8 35.832 266.776 35.838 266.732 35.826 266.589 35.758 266.392 35.641 266.162 35.485 265.931 35.33 265.732 35.212 265.588 35.145 265.542 35.133 265.518 35.138 265.456 35.205 263.597 38.381 257.957 48.187 258.557 48.492 258.997 48.721 259.213 48.845 259.27 48.894 253.458 58.959 253.458 60.331 231.227 60.331 231.227 58.948 229.791 56.417 229.185 55.358 228.595 54.344 228.09 53.492 227.736 52.915 227.496 52.53 227.299 52.2 227.166 51.96 227.117 51.846 227.117 51.749 226.271 50.317 225.946 49.758 225.689 49.293 225.523 48.971 225.484 48.879 225.477 48.841 225.696 48.717 226.149 48.482 226.768 48.167 226.07 46.974 219.219 35.105 217.882 35.894 217.827 35.736 216.95 34.177 216.118 32.738 215.274 31.243 214.318 29.565 213.218 27.684 212.015 25.658 211.533 25.438 211.346 25.339 211.193 25.231 211.134 25.179 211.089 25.129 211.061 25.083 211.051 25.043 211.051 24.868 221.681 6.436 222.034 5.875 222.914 6.436 234.87 6.622 234.748 8.024 249.909 8.024 249.909 6.529 261.585 6.516 262.052 6.249 262.243 6.145 262.418 6.058 262.558 5.999 262.644 5.975 262.676 5.986"/>
      <polyline class="cls-1" points="563.103 12.711 565.531 13.258 568.52 14.693 569.496 15.515 569.708 15.701 569.938 15.916 570.421 16.401 570.886 16.909 571.093 17.153 571.275 17.379 572.078 18.42 572.68 19.726 572.809 20.019 572.945 20.35 573.223 21.084 573.479 21.836 573.59 22.19 573.682 22.514 574.083 23.996 574.113 30.348 573.281 33.66 571.785 36.699 569.818 39.118 567.411 41.061 566.094 41.712 565.807 41.849 565.495 41.989 564.836 42.263 564.198 42.501 563.911 42.597 563.66 42.672 562.542 42.982 558.224 43.193 556.647 42.875 555.97 42.723 555.293 42.545 554.694 42.362 554.448 42.276 554.252 42.197 553.654 41.943 553.456 41.865 553.365 41.837 553.295 41.837 553.295 53.592 551.894 53.958 546.85 55.12 546.196 55.313 546.196 13.254 553.295 13.254 553.295 14.938 554.849 13.812 557.872 12.822 563.103 12.711"/>
      <polyline class="cls-1" points="528.916 12.724 530.223 13.004 530.835 13.153 531.534 13.352 532.234 13.575 532.849 13.796 534.167 14.307 536.287 15.714 538.855 18.464 540.215 21.216 541.004 24.183 541.196 29.04 540.98 30.429 540.927 30.737 540.859 31.08 540.689 31.826 540.493 32.573 540.392 32.92 540.293 33.232 539.823 34.645 538.292 37.26 535.267 40.262 534.102 40.968 533.523 41.304 532.948 41.608 532.373 41.882 531.793 42.126 531.205 42.343 530.603 42.534 529.984 42.702 529.343 42.847 527.904 43.145 524.059 43.14 520.509 42.411 517.132 40.739 514.642 38.457 512.882 35.809 511.784 32.624 511.585 29.016 511.805 27.721 511.989 26.709 512.068 26.327 512.123 26.098 512.221 25.771 533.843 25.771 533.745 25.07 533.679 24.676 533.589 24.272 533.477 23.862 533.346 23.454 533.197 23.053 533.033 22.664 532.855 22.293 532.665 21.946 532.206 21.163 531.455 20.484 531.277 20.33 531.092 20.18 530.899 20.034 530.699 19.894 530.491 19.758 530.278 19.627 529.834 19.383 529.369 19.162 528.888 18.966 528.393 18.797 527.888 18.657 526.861 18.405 522.938 18.443 521.735 18.759 521.248 18.896 520.784 19.048 520.341 19.215 519.919 19.396 519.517 19.592 519.135 19.805 518.771 20.033 518.426 20.277 517.837 20.718 517.281 19.869 515.166 15.651 515.378 15.395 515.456 15.311 515.556 15.222 515.677 15.127 515.816 15.028 516.148 14.82 516.54 14.601 516.984 14.379 517.468 14.158 517.983 13.944 518.517 13.742 519.888 13.251 523.311 12.695 528.916 12.724"/>
      <polyline class="cls-1" points="501.267 12.687 501.921 12.981 502.065 13.051 502.223 13.141 502.561 13.36 502.895 13.61 503.047 13.738 503.182 13.862 503.79 14.449 504.63 16.524 504.732 53.589 503.322 53.958 498.278 55.12 497.633 55.31 497.531 19.326 496.445 16.975 495.878 16.497 495.623 16.299 495.35 16.112 495.091 15.957 494.879 15.856 494.693 15.777 494.621 15.737 494.564 15.696 494.522 15.652 494.496 15.603 494.485 15.549 494.489 15.488 494.51 15.418 494.547 15.339 494.67 15.146 494.862 14.9 495.123 14.588 495.798 13.8 497.718 12.81 501.267 12.687"/>
      <polyline class="cls-1" points="480.531 12.696 481.55 12.981 482.063 13.138 482.552 13.314 483.017 13.509 483.461 13.726 483.884 13.964 484.288 14.224 484.674 14.507 485.043 14.813 485.861 15.533 486.343 16.356 486.562 16.753 486.802 17.225 487.034 17.714 487.228 18.159 487.63 19.139 487.817 37.073 491.273 37.181 491.273 42.57 487.817 42.678 487.714 48.675 480.904 51.106 480.718 42.678 472.404 42.577 472.404 37.174 480.718 37.073 480.713 22.128 480.482 21.362 480.427 21.195 480.359 21.015 480.195 20.635 480.011 20.268 479.829 19.961 479.407 19.326 477.743 18.485 474.553 18.495 473.338 18.927 472.383 19.274 471.793 19.504 471.461 19.65 471.564 13.356 473.619 12.849 480.531 12.696"/>
      <polyline class="cls-1" points="459.794 12.694 461.128 13.054 461.416 13.136 461.723 13.233 462.359 13.455 462.959 13.691 463.222 13.806 463.448 13.913 464.434 14.413 466.439 16.309 467.516 18.579 467.718 19.687 467.797 20.199 467.86 20.775 467.903 21.344 467.918 21.835 467.914 22.875 467.378 25.405 466.162 27.686 463.971 29.878 460.542 31.566 457.615 32.302 453.443 32.724 452.213 32.611 451.689 32.559 451.171 32.498 450.719 32.436 450.392 32.381 449.8 32.263 449.8 32.626 449.806 32.719 449.823 32.847 449.888 33.18 449.983 33.581 450.099 34.003 450.399 35.018 452.035 36.593 454.687 37.399 460.168 37.219 463.151 36.245 463.379 36.513 464.741 41.355 464.584 41.512 464.525 41.553 464.415 41.609 464.07 41.759 463.599 41.94 463.052 42.134 461.676 42.599 457.933 43.192 452.322 42.995 449.333 42.208 446.983 41.059 444.926 39.05 443.657 36.304 442.837 32.403 442.551 18.952 442.341 18.144 442.219 17.734 442.063 17.307 441.881 16.877 441.681 16.461 441.47 16.073 441.256 15.729 441.151 15.578 441.048 15.444 440.948 15.329 440.853 15.234 440.679 15.063 440.613 14.985 440.56 14.909 440.523 14.834 440.499 14.76 440.491 14.685 440.497 14.608 440.519 14.527 440.556 14.442 440.608 14.35 440.677 14.251 440.862 14.027 441.114 13.759 441.768 13.085 443.168 12.696 445.705 12.694 447.108 13.41 447.899 14.267 448.22 14.638 448.511 15.014 448.738 15.351 448.819 15.491 448.872 15.605 449.054 16.084 449.521 15.529 449.633 15.406 449.773 15.268 450.117 14.966 450.505 14.662 450.894 14.393 451.799 13.811 454.564 12.828 459.794 12.694"/>
      <polyline class="cls-1" points="380.959 12.678 383.503 13.599 384.499 14.352 384.713 14.52 384.939 14.709 385.4 15.123 385.827 15.544 386.01 15.741 386.165 15.921 386.833 16.736 387.767 18.776 388.154 21.502 387.77 23.996 386.468 26.668 383.435 29.521 380.025 31.166 378.869 31.46 378.597 31.523 378.265 31.589 377.477 31.725 376.606 31.851 375.754 31.95 373.795 32.147 372.24 31.864 371.025 31.63 370.566 31.532 370.29 31.463 369.895 31.345 369.978 32.341 370.03 32.801 370.111 33.319 370.211 33.83 370.318 34.271 370.576 35.205 371.707 36.985 373.43 38.078 375.279 38.474 378.343 38.468 379.558 38.21 380.116 38.075 380.674 37.91 381.221 37.72 381.745 37.508 382.238 37.28 382.687 37.04 382.892 36.917 383.083 36.792 383.257 36.667 383.414 36.542 383.655 36.35 383.876 36.193 384.053 36.087 384.118 36.059 384.162 36.05 384.322 36.054 386.507 40.227 386.162 40.486 385.924 40.653 385.65 40.824 385.344 40.997 385.009 41.172 384.649 41.346 384.266 41.519 383.865 41.689 383.448 41.855 383.019 42.016 382.581 42.17 382.138 42.316 381.693 42.453 381.25 42.579 380.811 42.693 380.381 42.795 379.962 42.881 378.591 43.145 374.936 43.145 371.659 42.573 368.88 41.416 366.669 39.369 366.017 38.034 365.739 37.428 365.465 36.762 365.225 36.119 365.128 35.831 365.052 35.579 364.738 34.458 364.491 18.579 364.295 18.007 364.195 17.739 364.067 17.431 363.928 17.12 363.794 16.847 363.489 16.257 362.184 15.216 362.184 12.638 365.283 12.857 367.399 13.649 369.1 15.541 369.212 15.986 369.263 16.158 369.318 16.3 369.372 16.395 369.396 16.421 369.417 16.43 369.511 16.43 371.577 14.542 372.438 14.106 372.876 13.904 373.431 13.676 374.031 13.45 374.607 13.253 375.915 12.836 380.959 12.678"/>
      <polyline class="cls-1" points="317.068 12.714 319.871 13.437 322.513 14.766 324.812 16.626 326.678 18.933 327.315 20.25 327.595 20.854 327.838 21.437 328.049 22.013 328.231 22.596 328.388 23.202 328.526 23.845 328.647 24.541 328.757 25.303 328.978 26.983 328.731 30.566 328.005 33.608 327.444 34.845 327.314 35.117 327.16 35.418 326.802 36.063 326.415 36.702 326.226 36.994 326.046 37.255 325.209 38.429 322.812 40.623 320.431 42.033 317.442 43.033 311.651 43.035 309.035 42.382 305.917 40.875 303.216 38.194 302.64 37.167 302.516 36.935 302.384 36.672 302.112 36.084 301.858 35.477 301.654 34.925 301.244 33.71 301.066 29.04 301.393 27.546 323.233 27.359 323.176 26.238 323.132 25.708 323.055 25.095 322.956 24.474 322.845 23.922 322.572 22.727 321.434 20.592 319.51 18.658 317.001 17.402 314.273 16.942 312.775 17.061 312.332 17.101 311.901 17.152 311.481 17.213 311.072 17.285 310.673 17.367 310.284 17.46 309.905 17.564 309.534 17.679 309.172 17.805 308.818 17.943 308.471 18.092 308.132 18.253 307.799 18.426 307.472 18.61 307.152 18.807 306.836 19.016 306.026 19.574 303.861 15.971 304.033 15.698 304.089 15.621 304.163 15.54 304.254 15.456 304.36 15.369 304.617 15.187 304.929 14.997 305.289 14.802 305.692 14.603 306.132 14.403 306.602 14.205 307.098 14.011 307.612 13.823 308.14 13.644 308.674 13.477 309.21 13.322 309.741 13.184 310.261 13.064 310.765 12.965 312.211 12.707 317.068 12.714"/>
      <polyline class="cls-1" points="434.668 13.254 434.668 42.598 431.025 42.491 429.33 39.223 427.131 41.445 425.017 42.572 422.82 43.145 419.707 43.145 416.827 42.554 414.399 41.4 412.42 39.375 410.922 41.077 407.967 42.556 405.092 43.195 401.322 42.995 398.786 42.065 398.029 41.54 397.862 41.418 397.677 41.271 397.278 40.924 396.881 40.545 396.535 40.178 395.797 39.341 395.263 38.207 395.037 37.693 394.816 37.132 394.626 36.591 394.492 36.139 394.256 35.205 394.108 13.254 399.532 13.254 399.64 34.271 400.034 35.23 400.124 35.436 400.228 35.655 400.464 36.105 400.712 36.525 400.831 36.708 400.943 36.863 401.457 37.538 403.855 38.718 407.113 38.748 408.18 38.251 408.647 38.017 409.13 37.745 409.573 37.471 409.76 37.343 409.917 37.227 410.586 36.699 411.69 35.048 411.69 13.254 417.107 13.254 417.116 35.205 417.806 36.726 419.256 37.921 421.311 38.703 424.3 38.749 426.85 37.547 429.25 35.146 429.25 13.254 434.668 13.254"/>
      <polyline class="cls-1" points="356.019 13.254 356.019 54.727 350.791 54.727 350.695 28.952 339.18 42.593 333.004 42.491 340.872 33.414 342.576 31.42 330.853 13.348 336.663 13.348 345.838 27.611 346.131 27.901 350.788 23.254 350.788 13.254 356.019 13.254"/>
      <polyline class="cls-1" points="294.931 13.254 294.931 42.584 289.513 42.584 289.513 38.027 288.45 39.689 286.4 41.612 285.438 42.1 285.223 42.203 284.98 42.311 284.444 42.526 283.897 42.719 283.406 42.866 282.336 43.145 280.982 43.145 280.345 43.128 279.611 43.083 278.873 43.016 278.219 42.935 276.81 42.726 276.81 42.457 278.814 37.903 278.904 37.812 278.945 37.804 279.026 37.817 279.289 37.895 279.656 38.035 280.087 38.222 281.18 38.722 283.816 38.734 284.735 38.32 284.936 38.224 285.154 38.108 285.617 37.837 286.067 37.542 286.269 37.396 286.447 37.257 287.24 36.607 288.763 34.327 289.513 31.896 289.513 13.254 294.931 13.254"/>
    </g>
    <g>
      <polygon class="cls-2" points="554.497 19.375 554.851 19.204 555.253 19.029 555.654 18.87 556.004 18.747 556.751 18.51 559.755 18.485 560.868 18.773 561.409 18.925 561.909 19.091 562.373 19.273 562.808 19.475 563.015 19.583 563.217 19.698 563.608 19.947 563.985 20.223 564.354 20.529 565.17 21.248 566.154 23.062 566.801 25.491 566.807 29.787 566.491 31.002 566.417 31.266 566.329 31.551 566.123 32.148 565.898 32.722 565.787 32.978 565.681 33.2 565.186 34.184 563.197 36.066 561.184 36.988 558.245 37.412 556.062 37.135 553.388 35.76 553.291 20.303 553.514 20.034 553.574 19.972 553.66 19.899 553.895 19.73 554.184 19.548 554.497 19.375"/>
      <polyline class="cls-2" points="234.798 13.69 234.801 13.47 234.82 13.277 234.854 13.137 234.952 12.881 249.909 12.881 249.908 14.469 253.552 14.347 260.934 27.172 261.847 28.695 259.973 31.842 260.287 32.029 260.435 32.124 260.606 32.243 260.933 32.496 261.264 32.776 253.762 45.747 253.168 45.38 252.929 45.237 252.718 45.121 252.559 45.042 252.473 45.013 252.372 45.013 250.589 48.189 234.123 48.186 233.223 46.599 232.868 45.983 232.567 45.479 232.352 45.138 232.286 45.045 232.253 45.013 232.177 45.041 232.022 45.119 231.565 45.374 230.947 45.736 223.568 32.918 223.568 32.541 224.128 32.309 224.346 32.208 224.524 32.104 224.645 32.01 224.677 31.97 224.689 31.938 224.689 31.798 222.956 28.74 223.361 27.919 231.154 14.469 234.87 14.43 234.813 13.912 234.798 13.69"/>
      <polygon class="cls-2" points="518.974 32.441 518.849 31.982 518.765 31.609 518.742 31.47 518.734 31.371 518.734 31.002 533.533 31.002 533.414 31.476 533.338 31.737 533.221 32.097 532.924 32.924 532.553 33.897 531.293 35.609 529.483 36.807 527.469 37.393 523.452 37.256 520.897 35.952 519.517 34.124 519.125 32.933 518.974 32.441"/>
      <polygon class="cls-2" points="452.463 18.867 452.868 18.681 453.294 18.513 453.688 18.386 454.564 18.145 457.366 18.114 458.042 18.301 458.19 18.348 458.354 18.407 458.705 18.557 459.051 18.731 459.349 18.909 459.981 19.329 460.849 21.007 460.691 23.712 459.594 25.491 457.592 26.692 454.815 27.309 451.575 27.359 449.8 27.056 449.8 22.85 450.357 20.975 451.445 19.472 452.129 19.05 452.284 18.96 452.463 18.867"/>
      <polygon class="cls-2" points="373.019 28.14 374.234 28.244 377.036 27.815 379.737 26.54 381.608 24.79 382.58 22.803 382.781 20.592 382.151 18.695 380.701 17.385 378.743 16.804 375.541 16.816 374.605 17.14 374.174 17.305 373.693 17.516 373.22 17.744 372.814 17.964 371.96 18.464 369.843 20.548 369.843 27.608 370.824 27.822 371.301 27.913 371.874 28.003 372.47 28.083 373.019 28.14"/>
      <polygon class="cls-2" points="308.282 36.367 307.966 35.978 307.677 35.574 307.414 35.155 307.18 34.724 306.974 34.282 306.798 33.83 306.721 33.602 306.652 33.372 306.59 33.14 306.537 32.907 306.455 32.494 306.388 32.101 306.343 31.773 306.327 31.553 306.327 31.188 323.157 31.188 323.028 31.889 322.942 32.301 322.838 32.703 322.715 33.096 322.573 33.482 322.411 33.861 322.23 34.234 322.028 34.602 321.805 34.966 321.229 35.865 319.497 37.406 317.255 38.46 314.508 38.909 311.651 38.474 308.962 37.156 308.282 36.367"/>
    </g>
  </g>
  <g>
    <path class="cls-3" d="M668.461,524.34a8.605,8.605,0,1,1,8.605-8.605,8.605,8.605,0,0,1-8.605,8.605" transform="translate(-51.762 -45.623)"/>
    <path class="cls-3" d="M444.24,135.977a8.605,8.605,0,1,1,8.605-8.605,8.605,8.605,0,0,1-8.605,8.605" transform="translate(-51.762 -45.623)"/>
    <path class="cls-3" d="M220.019,524.34a8.605,8.605,0,1,1,8.605-8.605,8.605,8.605,0,0,1-8.605,8.605" transform="translate(-51.762 -45.623)"/>
  </g>
  <path class="cls-4" d="M52.956,383.688l193.4-334.974a5.183,5.183,0,0,1,4.489-2.592H637.637a5.183,5.183,0,0,1,4.489,2.592l193.4,334.974a5.183,5.183,0,0,1,0,5.183l-193.4,334.974a5.183,5.183,0,0,1-4.489,2.592H250.843a5.183,5.183,0,0,1-4.489-2.592L52.956,388.872A5.183,5.183,0,0,1,52.956,383.688Z" transform="translate(-51.762 -45.623)"/>
  </g>
</svg>
