<?xml version="1.0" encoding="UTF-8"?><svg id="a" xmlns="http://www.w3.org/2000/svg" width="784.94" height="681.34" viewBox="0 0 784.94 681.34"><path d="M199.08,680.32c-1.67,0-3.22-.89-4.06-2.34L1.62,343.01c-.83-1.45-.83-3.23,0-4.68L195.02,3.36c.84-1.45,2.38-2.34,4.06-2.34h386.79c1.67,0,3.22.9,4.06,2.34l193.4,334.97c.83,1.45.83,3.23,0,4.68l-193.4,334.97c-.84,1.45-2.38,2.34-4.06,2.34H199.08Z" style="fill:#c5c5c5; isolation:isolate; opacity:.07;"/><path d="M585.87,1.52c1.49,0,2.87.8,3.62,2.09l193.4,334.97c.75,1.3.75,2.89,0,4.18l-193.4,334.97c-.75,1.29-2.13,2.09-3.62,2.09H199.08c-1.49,0-2.87-.8-3.62-2.09L2.06,342.76c-.74-1.29-.74-2.89,0-4.18L195.46,3.61c.75-1.29,2.13-2.09,3.62-2.09h386.79M585.87.52H199.08c-1.85,0-3.56.99-4.49,2.59L1.19,338.08c-.93,1.6-.93,3.58,0,5.18l193.4,334.97c.93,1.6,2.64,2.59,4.49,2.59h386.78c1.85,0,3.56-.99,4.49-2.59l193.4-334.97c.93-1.6.93-3.58,0-5.18L590.35,3.11c-.93-1.6-2.64-2.59-4.49-2.59Z" style="fill:#231f20;"/><path d="M390.92,647.53c-.05-5.22-3.05-8.76-8.12-9.43-3.73-.5-7.19.3-9.89,3.17-.33.35-.52.32-.78-.02-1.37-1.63-3.29-2.7-5.39-3-4.05-.77-8.17.1-11.06,3.37l-1.6-3.19-3.71-.05c.05,4.5,0,29.68,0,29.68h5.5v-21.9c2.03-2.42,4.19-3.84,7-3.53,2.71.3,4.98,1.72,4.98,5.32,0,1.91-.01,20.11-.01,20.11h5.51l.06-21.76c1.01-3.08,4.41-4.05,7.13-3.64,2.57.38,4.08,1.93,4.59,4.71.34,1.85.19,20.69.19,20.69h5.62s0-17.06-.03-20.53ZM442.47,649.7s6.93-8.11,9.7-11.32h-6.48c-2.33,2.78-5.27,6.29-7.62,9.06-1.17,1.38-3.77,4.36-3.77,4.34,0-2.48,0-25.22,0-25.22h-5.65v41.51h5.65v-10.3l4.5-4.31c2.72,4.2,6.73,10.4,9.43,14.62l6.2-.02c-3.51-5.4-8.41-12.98-11.95-18.35ZM420.62,662.37c-.36-2.42-.04-4.86-.16-7.28.08-2.63.01-5.26-.2-7.88-.5-3.66-1.99-6.64-5.63-8.1-2.73-1.05-5.67-1.4-8.57-1.02-2.78.29-5.45,1.23-7.8,2.74l2.33,4.53c2.43-1.88,5.49-2.77,8.55-2.48,3.46.18,5.69,2.36,5.69,7-2.14-.66-4.39-.89-6.62-.68-3.72.58-7,1.95-9.45,4.9-3.12,3.72-2.64,9.27,1.09,12.4,1.2,1.01,2.65,1.68,4.2,1.94,4.11.66,8.3-.6,11.37-3.42,0,0,1.34,4.31,7.2,3.56l.05-2.26c-1.62-.76-1.85-2.68-2.03-3.94ZM413.27,662.19c-1.98,1.65-4.57,2.36-7.11,1.95-3.48-.48-4.98-4.06-2.98-7.17,1.43-2.1,3.72-3.46,6.25-3.72,1.81-.24,3.65-.09,5.4.42v6.86c-.43.63-.95,1.19-1.55,1.66ZM480.66,641.9c-2.24-2.25-5.21-3.61-8.37-3.84-5.62-.63-10.21,1.23-13.57,5.78-2.49,3.5-3.49,7.84-2.78,12.07.68,5.53,3.53,9.56,8.77,11.71,3.38,1.39,6.87,1.21,10.35.44,2.11-.63,4.13-1.52,6.01-2.67l-2.25-3.98c-1.81,1.28-3.9,2.12-6.08,2.48-6.01.89-10.95-2.91-11.15-10.07l21.98-.03c.88-5.45-.92-9.84-2.89-11.89ZM461.77,649.95c.6-4.28,4.3-7.44,8.63-7.35,3.85,0,7.39,1.6,8.14,7.35h-16.77Z" style="fill:#858585;"/><path d="M508.14,638.66c-8.3-1.92-10.91,1.45-12.86,4.48v-4.74h-5.53v29.66h5.53v-16.84c0-1.08.17-2.16.51-3.19,1.4-4.22,6.08-6.83,10.06-4.34l2.29-5.04Z" style="fill:#858585;"/><path d="M572.56,655.58l-5.59-9.68-1.28.74-7.87-13.64,1.28-.74-5.59-9.68v-1.54h-21.99v1.54l-5.59,9.68,1.28.74-7.87,13.63-1.28-.74-5.59,9.68-1.34.77,11,19.04,1.34-.77h11.18v-1.48h15.74v1.48h11.18l1.34.77,11-19.04-1.35-.77ZM554.02,667.4h-3.63v1.48h-15.74v-1.48h-3.63l-8.51-14.74,1.82-3.15-1.28-.74,7.87-13.63,1.28.74,1.81-3.15h17.02l1.82,3.15,1.28-.74,7.87,13.63-1.28.74,1.82,3.15-8.51,14.74ZM239.12,625.93l-7.27,1.66c.04,2.93.01,8.64.01,11.58,0,0,.06.04-1.6-.5-7.24-2.5-15.16,1.09-18.06,8.17-1.82,4.51-1.83,9.55-.02,14.06,1.33,3.62,4.4,6.33,8.17,7.18,3.89,1.11,8.06.56,11.52-1.51,0,.44-.02,1.48-.02,1.48h7.26s0-41.86,0-42.13ZM231.87,660.8c-4.06,2.96-10.09,1.86-12.1-1.78-1.21-2.51-1.56-5.35-1.02-8.08,1.04-5.83,7.71-8.54,13.14-5.22l-.02,15.08ZM344.46,665.91c-.95-.91-1.55-2.12-1.7-3.42-.5-2.44-.24-4.91-.32-7.37.12-2.6-.01-5.2-.4-7.77-.45-2.39-1.1-4.7-2.98-6.41-1.7-1.48-3.81-2.41-6.05-2.66-4.34-.62-8.76-.18-12.88,1.3l1.58,5.43c2.75-.94,5.66-1.28,8.55-.98,2.71.32,4.45,1.77,4.74,3.97.05.23.07.47.05.71-2.52-.39-5.08-.36-7.59.1-3.18.37-6.13,1.87-8.3,4.23-3.03,3.5-2.89,9.68.32,12.83,3.67,3.6,11.55,4.07,16.4-.31.6.76,1.24,1.49,1.93,2.17,1.87,1.48,5.34.91,7.12-1.41l-.47-.4ZM335,658.6c-.31,2.27-2.18,4.02-4.46,4.17-.92.15-1.85.17-2.78.05-1.41-.22-2.62-.69-3.1-2.13-.61-1.52-.35-3.25.68-4.52.58-.7,1.34-1.22,2.21-1.49,2.15-.74,4.45-.95,6.69-.59.31.05.62.11.92.19.03,1.45-.02,2.89-.15,4.33ZM246.33,644.71c-2.55,3.89-2.87,8.2-2.11,12.61.65,4.95,4.16,9.04,8.95,10.45,3.21.96,6.61,1.17,9.92.6,2.57-.36,5.02-1.31,7.16-2.78l-2.74-5.25c-2.77,2.17-5.8,2.44-8.73,2.23-3.88-.29-7.04-3.22-7.62-7.07l22.06-.07c.99-5.31.22-9.6-3.08-13.21-5.21-5.7-17.85-6.58-23.8,2.5ZM251.77,649.94c1.38-6.35,8.72-6.97,12.04-4.71,1.49,1.15,2.39,2.9,2.47,4.79l-14.51-.08ZM313.79,661.35c-1.46.69-3.04,1.1-4.66,1.21-3.02.08-4.36-1.14-4.58-4.16-.01-.17-.02-.33-.02-.5,0-4.2.01-9.43-.02-13.63l8.28-.03v-5.88h-8.28v-8.46l-7.39,2.61v5.84h-3.47v5.88h3.47v1.28c0,3.21-.02,11.57-.02,14.57-.01,3.57,2.24,6.75,5.61,7.92,3.44,1.15,7.61.52,11.08-.2v-6.45ZM290.19,665.04c-.89-.41-1.58-1.16-1.91-2.09-.54-1.37-.79-2.83-.74-4.3,0-10.92,0-21.83,0-32.75-2.05.43-7.32,1.71-7.32,1.71.03,5.66.02,28.98.01,34.38,0,.77.06,1.53.2,2.28.45,2.46,1.62,3.82,3.65,4.23,2.41.5,4.9-.4,6.43-2.32.39-.57.27-.89-.33-1.14Z" style="fill:#6b6b6b;"/><path d="M658.39,188.54c-4.49,2.65-6.06,7.02-4.11,11.75,1.43,3.48,3.85,6.08,7.69,6.98.47.11.53.29.38.68-.73,2-.69,4.19.1,6.17,1.35,3.89,4.18,7.03,8.45,7.89l-1.96,2.98,1.81,3.24c3.87-2.29,25.71-14.84,25.71-14.84l-2.75-4.76-18.96,10.96c-3.12-.56-5.42-1.72-6.56-4.31-1.1-2.5-1-5.17,2.11-6.97l17.42-10.05-2.76-4.77-18.87,10.83c-3.17.66-5.71-1.8-6.72-4.35-.95-2.42-.37-4.49,1.78-6.33,1.43-1.22,17.82-10.51,17.82-10.51l-2.81-4.87s-14.79,8.53-17.77,10.29ZM634.49,142.81s-10.49-1.95-14.65-2.74l3.24,5.62c3.58.63,8.08,1.42,11.66,2.07,1.78.32,5.66,1.08,5.64,1.09-2.14,1.24-21.84,12.62-21.84,12.62l2.82,4.89,35.95-20.76-2.82-4.89-8.93,5.15-5.98-1.74c2.28-4.45,5.64-11.03,7.94-15.48l-3.12-5.36c-2.92,5.74-7.03,13.77-9.92,19.52ZM656.38,155.4c-1.91,1.52-4.18,2.46-6.22,3.78-2.32,1.25-4.56,2.62-6.73,4.12-2.91,2.26-4.75,5.04-4.2,8.93.45,2.89,1.62,5.61,3.4,7.93,1.64,2.26,3.79,4.1,6.27,5.38l2.76-4.28c-2.85-1.16-5.14-3.36-6.42-6.16-1.57-3.09-.8-6.11,3.22-8.43.5,2.18,1.42,4.24,2.72,6.07,2.36,2.94,5.19,5.08,8.97,5.73,4.79.84,9.35-2.35,10.19-7.14.27-1.54.13-3.13-.42-4.6-1.49-3.89-4.67-6.89-8.64-8.13,0,0,3.07-3.31-.51-8.02l-1.98,1.09c.15,1.79-1.41,2.94-2.4,3.73ZM659.9,161.85c2.42.88,4.33,2.78,5.24,5.19,1.33,3.25-1.03,6.34-4.72,6.17-2.54-.19-4.86-1.49-6.35-3.55-1.11-1.45-1.9-3.11-2.33-4.89l5.94-3.43c.76.06,1.5.23,2.21.51h0ZM608.64,113.64c-.83,3.06-.52,6.32.87,9.17,2.27,5.18,6.17,8.23,11.79,8.86,4.27.4,8.53-.9,11.84-3.63,4.45-3.36,6.52-7.84,5.76-13.45-.49-3.62-2.39-6.55-4.79-9.18-1.6-1.51-3.38-2.82-5.32-3.87l-2.32,3.93c2.01.93,3.79,2.31,5.19,4.03,3.77,4.76,2.96,10.94-3.14,14.7l-11.01-19.02c-5.17,1.96-8.07,5.71-8.86,8.45ZM625.05,125.97c-4.01,1.62-8.59-.01-10.68-3.8-1.92-3.34-2.31-7.2,2.29-10.73l8.38,14.53ZM592.1,91.46c2.49,8.15,6.71,8.73,10.31,8.9l-4.1,2.37,2.77,4.79,25.69-14.83-2.77-4.79-14.59,8.42c-.94.54-1.96.93-3.02,1.15-4.36.89-8.95-1.85-8.78-6.54l-5.5.53Z" style="fill:#858585;"/><path d="M574.53,27.21l-5.59,9.68,1.28.74-7.87,13.63-1.28-.74-5.59,9.68-1.34.77,11,19.04,1.34-.77h11.18v-1.48h15.74v1.48h11.18l1.34.77,11-19.04-1.34-.77-5.59-9.68-1.28.74-7.87-13.63,1.28-.74-5.59-9.68v-1.54h-22v1.54ZM594.03,37.36l1.82,3.15,1.28-.74,7.88,13.63-1.28.74,1.82,3.15-8.51,14.74h-3.64v1.48h-15.74v-1.48h-3.63l-8.51-14.74,1.82-3.15-1.28-.74,7.87-13.63,1.28.74,1.82-3.15h17.01ZM715.57,330.8l5.07,5.47c2.52-1.5,7.48-4.34,10.02-5.8,0,0,0-.07.36,1.64,1.46,7.51,8.53,12.58,16.11,11.55,4.82-.68,9.18-3.19,12.19-7.02,2.47-2.96,3.28-6.98,2.14-10.67-.98-3.92-3.54-7.26-7.07-9.22.38-.22,1.29-.73,1.29-.73l-3.63-6.29-36.48,21.07ZM749.4,319.65c4.59,2.04,6.66,7.81,4.51,11.38-1.57,2.3-3.85,4.03-6.49,4.92-5.57,2.01-11.25-2.41-11.09-8.77l13.07-7.53ZM697.53,219.58c-.31,1.27-1.06,2.4-2.11,3.19-1.87,1.65-4.14,2.66-6.23,3.96-2.31,1.19-4.5,2.61-6.53,4.23-1.84,1.59-3.51,3.3-4.06,5.78-.43,2.21-.18,4.5.72,6.57,1.63,4.07,4.23,7.67,7.57,10.5l3.91-4.09c-2.19-1.91-3.94-4.27-5.13-6.92-1.08-2.51-.69-4.74,1.07-6.09.18-.16.38-.29.59-.4.92,2.38,2.23,4.58,3.88,6.52,1.91,2.57,4.69,4.37,7.81,5.07,4.55.87,9.83-2.34,10.95-6.69,1.28-4.98-2.25-12.04-8.47-14.04.36-.9.67-1.82.91-2.76.34-2.36-1.88-5.08-4.78-5.46l-.11.61ZM695.92,231.43c2.12-.87,4.57-.12,5.84,1.78.59.72,1.08,1.52,1.43,2.38.51,1.33.72,2.61-.3,3.75-1.01,1.28-2.64,1.92-4.26,1.67-.9-.15-1.73-.55-2.4-1.16-1.72-1.49-3.04-3.38-3.86-5.5-.12-.29-.22-.59-.3-.89,1.24-.75,2.52-1.43,3.84-2.03ZM728.24,315.17c4.64.26,8.54-1.62,11.97-4.48,3.96-3.04,5.75-8.13,4.57-12.98-.77-3.27-2.29-6.31-4.44-8.89-1.59-2.05-3.65-3.7-5.99-4.81l-3.18,5c3.26,1.31,5.01,3.81,6.3,6.45,1.68,3.5.73,7.71-2.31,10.14l-11.09-19.07c-5.09,1.8-8.43,4.61-9.9,9.28-2.33,7.35,3.23,18.74,14.07,19.36ZM730.05,307.84c-6.19,1.98-10.39-4.07-10.1-8.07.26-1.87,1.32-3.52,2.91-4.53l7.19,12.6ZM708.92,248.42c1.33.92,2.47,2.08,3.37,3.43,1.58,2.58,1.19,4.34-1.32,6.05-.14.09-.28.19-.42.27-3.64,2.1-8.18,4.7-11.79,6.83l-4.17-7.15-5.09,2.94,4.14,7.17-7.32,4.23,5.95,5.09,5.06-2.92,1.73,3.01,5.09-2.94-1.73-3,1.11-.64c2.78-1.6,10.03-5.77,12.63-7.27,3.09-1.77,4.72-5.31,4.05-8.82-.72-3.55-3.36-6.85-5.71-9.49l-5.58,3.22ZM723.92,267.02c.09.98-.22,1.95-.85,2.7-.92,1.15-2.06,2.1-3.35,2.79-9.45,5.47-18.9,10.93-28.36,16.38,1.4,1.56,5.14,5.48,5.14,5.48,4.89-2.86,25.09-14.51,29.77-17.2.66-.38,1.29-.82,1.88-1.32,1.91-1.62,2.5-3.31,1.84-5.28-.77-2.34-2.79-4.04-5.22-4.41-.69-.05-.9.21-.82.86Z" style="fill:#6b6b6b;"/><path d="M127.43,186.1c4.54,2.57,9.11,1.74,12.23-2.31,2.3-2.98,3.34-6.37,2.2-10.15-.14-.46-.01-.6.4-.67,2.09-.37,3.98-1.5,5.29-3.17,2.7-3.12,4-7.13,2.61-11.26l3.56.21,1.9-3.18c-3.92-2.21-25.71-14.84-25.71-14.84l-2.75,4.76,18.97,10.94c1.08,2.98,1.22,5.55-.45,7.83-1.61,2.2-3.98,3.46-7.09,1.66-1.66-.96-17.41-10.07-17.41-10.07l-2.75,4.77,18.81,10.93c2.16,2.42,1.3,5.84-.41,7.99-1.62,2.03-3.71,2.57-6.37,1.62-1.78-.63-18.02-10.17-18.02-10.17l-2.81,4.87s14.78,8.53,17.8,10.23ZM99.77,229.67s3.56,10.06,4.95,14.06l3.24-5.62c-1.24-3.41-2.81-7.71-4.04-11.13-.61-1.71-1.89-5.44-1.87-5.43,2.15,1.23,21.85,12.61,21.85,12.61l2.82-4.89-35.95-20.76-2.82,4.89,8.93,5.15,1.49,6.05c-5,.25-12.38.63-17.38.86l-3.08,5.38c6.43-.34,15.44-.79,21.86-1.17ZM99.73,204.41c2.27.9,4.23,2.39,6.39,3.5,2.24,1.38,4.55,2.64,6.93,3.77,3.42,1.39,6.74,1.6,9.83-.83,2.27-1.83,4.05-4.21,5.17-6.91,1.14-2.55,1.66-5.33,1.53-8.12l-5.09-.25c.42,3.05-.34,6.14-2.12,8.64-1.89,2.91-4.89,3.75-8.91,1.42,1.64-1.52,2.96-3.35,3.89-5.39,1.36-3.51,1.81-7.04.48-10.63-1.66-4.57-6.71-6.92-11.28-5.26-1.47.54-2.78,1.46-3.78,2.67-2.63,3.23-3.63,7.49-2.72,11.55,0,0-4.4-1-6.68,4.45l1.93,1.18c1.47-1.02,3.25-.25,4.43.22ZM103.56,198.14c-.45-2.54.24-5.14,1.87-7.14,2.15-2.77,6-2.28,7.7,1,1.1,2.29,1.14,4.95.1,7.27-.7,1.69-1.74,3.21-3.07,4.46l-5.94-3.43c-.33-.68-.55-1.42-.66-2.17ZM87.43,266.64c3.06-.81,5.73-2.71,7.51-5.33,3.35-4.55,4.04-9.45,1.78-14.64-1.79-3.9-5.04-6.94-9.06-8.45-5.13-2.18-10.04-1.72-14.53,1.74-2.89,2.23-4.48,5.34-5.56,8.74-.51,2.14-.75,4.34-.69,6.54l4.57.04c-.2-2.21.11-4.44.9-6.51,2.24-5.65,8-8.03,14.3-4.62l-10.97,19.06c4.28,3.49,8.99,4.12,11.75,3.44ZM89.91,246.26c3.41,2.66,4.29,7.44,2.05,11.14-1.93,3.33-5.08,5.6-10.44,3.38l8.38-14.52ZM76.5,292.06c5.81-6.23,4.2-10.17,2.56-13.38l4.1,2.37,2.77-4.79-25.69-14.83-2.77,4.79,14.59,8.42c.94.54,1.78,1.23,2.5,2.04,2.95,3.33,2.88,8.68-1.27,10.88l3.22,4.51Z" style="fill:#858585;"/><path d="M29.64,339.39h11.18v-1.48h15.74v1.48h11.18l1.34.77,11-19.04-1.34-.77-5.59-9.68-1.28.74-7.87-13.63,1.28-.74-5.59-9.68v-1.54h-22v1.54l-5.59,9.68,1.28.74-7.87,13.63-1.28-.74-5.59,9.68-1.34.77,11,19.04,1.33-.77ZM28.68,317.42l1.82-3.15-1.28-.74,7.87-13.64,1.28.74,1.82-3.14h17.02l1.82,3.15,1.28-.74,7.87,13.63-1.28.74,1.82,3.15-8.51,14.74h-3.64v1.48h-15.74v-1.48h-3.63l-8.51-14.74ZM222.04,65.45l2.2-7.12c-2.56-1.43-7.49-4.31-10.03-5.78,0,0-.06.03,1.23-1.13,5.78-5.02,6.64-13.68,1.95-19.73-3-3.83-7.36-6.36-12.17-7.05-3.8-.66-7.68.65-10.31,3.48-2.9,2.81-4.52,6.7-4.45,10.74-.38-.22-1.28-.76-1.28-.76l-3.63,6.29s36.26,20.92,36.49,21.06ZM195.46,41.73c-.53-5,3.44-9.67,7.6-9.59,2.78.21,5.41,1.32,7.51,3.16,4.53,3.82,3.54,10.94-2.05,13.99l-13.05-7.56ZM134.74,136.68c1.26-.37,2.61-.28,3.82.24,2.36.79,4.38,2.25,6.54,3.41,2.19,1.41,4.51,2.59,6.93,3.54,2.29.8,4.62,1.39,7.04.62,2.13-.73,3.99-2.09,5.33-3.91,2.71-3.44,4.53-7.5,5.31-11.81l-5.5-1.35c-.56,2.85-1.73,5.55-3.43,7.9-1.63,2.19-3.76,2.97-5.8,2.12-.23-.08-.44-.18-.64-.31,1.6-1.98,2.86-4.22,3.71-6.62,1.27-2.94,1.44-6.24.48-9.3-1.52-4.38-6.94-7.35-11.27-6.14-4.95,1.38-9.3,7.97-7.93,14.36-.96.13-1.91.33-2.84.59-2.21.88-3.46,4.17-2.33,6.87l.58-.21ZM145.8,132.15c-1.82-1.4-2.39-3.89-1.38-5.95.33-.87.78-1.69,1.34-2.43.9-1.11,1.9-1.93,3.4-1.62,1.62.23,2.98,1.32,3.57,2.85.32.85.38,1.77.19,2.66-.43,2.23-1.4,4.32-2.83,6.09-.19.24-.4.48-.62.7-1.27-.7-2.49-1.47-3.68-2.3h0ZM202.17,62.3c-2.09-4.15-5.67-6.59-9.86-8.13-4.61-1.91-9.91-.92-13.52,2.53-2.44,2.3-4.32,5.14-5.48,8.29-.98,2.4-1.38,5-1.17,7.59l5.92.25c-.5-3.48.79-6.24,2.44-8.68,2.19-3.21,6.31-4.48,9.93-3.07l-10.97,19.14c4.1,3.51,8.2,4.99,12.99,3.94,7.54-1.66,14.62-12.17,9.73-21.86ZM194.91,64.4c4.8,4.37,1.68,11.03-1.94,12.78-1.74.71-3.71.62-5.38-.26l7.32-12.53ZM154.02,112.4c.13-1.61.57-3.18,1.28-4.64,1.44-2.66,3.17-3.2,5.9-1.88.15.07.3.15.44.23,3.64,2.1,8.16,4.73,11.81,6.8l-4.11,7.19,5.09,2.94,4.14-7.17,7.32,4.23,1.43-7.7-5.06-2.92,1.74-3-5.09-2.94-1.74,3-1.11-.64c-2.78-1.61-10.01-5.8-12.61-7.3-3.08-1.79-6.96-1.43-9.66.9-2.71,2.4-4.25,6.34-5.37,9.69l5.58,3.22ZM162.63,90.11c.8-.56,1.8-.78,2.76-.61,1.45.22,2.84.73,4.09,1.51,9.46,5.45,18.91,10.91,28.37,16.37.65-2,2.18-7.19,2.18-7.19-4.92-2.8-25.11-14.47-29.78-17.18-.66-.38-1.36-.71-2.08-.96-2.35-.85-4.11-.51-5.49,1.05-1.64,1.84-2.1,4.44-1.2,6.73.3.62.62.68,1.15.28Z" style="fill:#6b6b6b;"/></svg>