<svg xmlns="http://www.w3.org/2000/svg" width="784.944" height="681.336" viewBox="0 0 784.944 681.336"><path d="M199.078,680.321a4.694,4.694,0,0,1-4.056-2.342L1.625,343.01a4.693,4.693,0,0,1,0-4.682L195.022,3.359a4.7,4.7,0,0,1,4.056-2.342H585.866a4.7,4.7,0,0,1,4.057,2.342l193.4,334.968a4.693,4.693,0,0,1,0,4.682l-193.4,334.97a4.7,4.7,0,0,1-4.056,2.342Z" style="fill:#c5c5c5;opacity:.07"/><path d="M585.866,1.517a4.2,4.2,0,0,1,3.623,2.092l193.4,334.967a4.193,4.193,0,0,1,0,4.184l-193.4,334.969a4.2,4.2,0,0,1-3.623,2.092H199.078a4.2,4.2,0,0,1-3.623-2.092L2.058,342.76a4.192,4.192,0,0,1,0-4.182L195.455,3.609a4.2,4.2,0,0,1,3.623-2.092H585.866m0-1H199.078a5.183,5.183,0,0,0-4.489,2.592L1.192,338.078a5.18,5.18,0,0,0,0,5.182l193.4,334.969a5.183,5.183,0,0,0,4.489,2.592H585.861a5.183,5.183,0,0,0,4.489-2.592L783.75,343.26a5.18,5.18,0,0,0,0-5.183L590.355,3.109A5.183,5.183,0,0,0,585.866.517Z" style="fill:#231f20"/><path d="M572.559,655.581l-5.59-9.683-1.279.738L557.819,633l1.279-.739-5.591-9.683v-1.544H531.516v1.544l-5.59,9.683,1.279.739-7.871,13.632-1.279-.738-5.591,9.683-1.337.772,11,19.045,1.337-.772h11.181v-1.477h15.742v1.477h11.181l1.337.772,11-19.045ZM554.016,667.4h-3.633v1.477H534.641V667.4h-3.634L522.5,652.659l1.817-3.147-1.279-.738,7.871-13.633,1.279.739L534,632.733h17.02l1.817,3.147,1.279-.739,7.871,13.633-1.279.738,1.817,3.147Z" style="fill:#6b6b6b"/><path d="M390.915,647.535c-.05-5.216-3.048-8.756-8.116-9.434-3.733-.5-7.189.3-9.891,3.173-.329.349-.515.315-.78-.017a8.629,8.629,0,0,0-5.391-3c-4.049-.774-8.175.1-11.057,3.371l-1.6-3.192-3.707-.053c.045,4.5,0,29.683,0,29.683h5.5l-.009-21.9c2.041-2.421,4.2-3.835,7.01-3.529,2.711.3,4.981,1.719,4.981,5.315,0,1.913-.011,20.111-.011,20.111h5.51l.059-21.758c1.014-3.079,4.41-4.047,7.127-3.64,2.569.384,4.076,1.93,4.591,4.71.343,1.852.193,20.688.193,20.688h5.619S390.949,651,390.915,647.535Z" style="fill:#858585"/><path d="M442.469,649.7s6.933-8.109,9.7-11.316h-6.485c-2.335,2.785-5.271,6.292-7.623,9.062-1.174,1.382-3.768,4.363-3.768,4.336-.006-2.478,0-25.225,0-25.225h-5.647v41.51h5.647v-10.3l4.5-4.31c2.717,4.2,6.735,10.4,9.429,14.618l6.2-.022C450.908,662.651,446.008,655.077,442.469,649.7Z" style="fill:#858585"/><path d="M420.618,662.369c-.36-2.419-.041-4.856-.162-7.282a72.265,72.265,0,0,0-.2-7.884c-.5-3.656-1.989-6.638-5.632-8.1a17.439,17.439,0,0,0-8.567-1.019,17.94,17.94,0,0,0-7.8,2.737l2.326,4.531a12.09,12.09,0,0,1,8.546-2.483c3.461.181,5.688,2.362,5.688,7a16.984,16.984,0,0,0-6.616-.676c-3.723.575-7,1.951-9.451,4.9a8.8,8.8,0,0,0,5.283,14.334A13.621,13.621,0,0,0,415.4,665.01s1.336,4.312,7.2,3.563l.051-2.26C421.026,665.552,420.805,663.628,420.618,662.369Zm-7.348-.18a8.846,8.846,0,0,1-7.115,1.947c-3.478-.478-4.978-4.057-2.983-7.167a8.62,8.62,0,0,1,6.246-3.722,13.055,13.055,0,0,1,5.4.425v6.86a7.475,7.475,0,0,1-1.548,1.657Z" style="fill:#858585"/><path d="M480.657,641.9a13.132,13.132,0,0,0-8.374-3.835c-5.619-.627-10.208,1.227-13.573,5.779a16.23,16.23,0,0,0-2.781,12.07c.683,5.534,3.529,9.56,8.771,11.711,3.377,1.386,6.867,1.206,10.35.44a25.47,25.47,0,0,0,6.009-2.668l-2.248-3.977a14.673,14.673,0,0,1-6.085,2.48c-6.009.887-10.955-2.912-11.155-10.071l21.978-.034C484.431,648.342,482.633,643.952,480.657,641.9Zm-18.886,8.047a8.534,8.534,0,0,1,8.626-7.35c3.847.009,7.394,1.6,8.142,7.351Z" style="fill:#858585"/><path d="M508.138,638.664c-8.3-1.916-10.912,1.449-12.863,4.476V638.4h-5.534v29.665h5.534V651.224a10.176,10.176,0,0,1,.511-3.187c1.4-4.221,6.076-6.831,10.058-4.337Z" style="fill:#858585"/><path d="M239.124,625.928l-7.27,1.659c.039,2.932.015,8.644.015,11.576,0,0,.056.036-1.6-.5a14.43,14.43,0,0,0-18.061,8.175,18.839,18.839,0,0,0-.019,14.064,11.389,11.389,0,0,0,8.169,7.185,14.612,14.612,0,0,0,11.524-1.513c0,.44-.018,1.484-.018,1.484h7.264S239.122,626.2,239.124,625.928ZM231.867,660.8c-4.064,2.955-10.091,1.859-12.1-1.785a12.82,12.82,0,0,1-1.017-8.079c1.041-5.828,7.708-8.537,13.138-5.217Z" style="fill:#6b6b6b"/><path d="M344.461,665.912a5.667,5.667,0,0,1-1.7-3.424c-.5-2.441-.239-4.914-.316-7.373a39.451,39.451,0,0,0-.4-7.77c-.455-2.387-1.1-4.7-2.977-6.408a11.1,11.1,0,0,0-6.049-2.66,26.85,26.85,0,0,0-12.88,1.3l1.582,5.434a20.06,20.06,0,0,1,8.553-.981c2.711.317,4.452,1.77,4.737,3.969a2.624,2.624,0,0,1,.049.713,22.753,22.753,0,0,0-7.59.1,13.385,13.385,0,0,0-8.3,4.231c-3.031,3.5-2.891,9.684.315,12.829,3.67,3.6,11.549,4.07,16.4-.313a22.17,22.17,0,0,0,1.93,2.168c1.869,1.478,5.341.911,7.116-1.414ZM335,658.6a4.825,4.825,0,0,1-4.465,4.167,9.469,9.469,0,0,1-2.777.053c-1.406-.223-2.62-.686-3.1-2.134a4.529,4.529,0,0,1,.681-4.521,4.684,4.684,0,0,1,2.206-1.493,13.855,13.855,0,0,1,6.692-.591,8.683,8.683,0,0,1,.918.188A38.9,38.9,0,0,1,335,658.6Z" style="fill:#6b6b6b"/><path d="M246.327,644.712c-2.551,3.89-2.87,8.2-2.112,12.607a12.6,12.6,0,0,0,8.954,10.446,21.68,21.68,0,0,0,9.916.6,16.578,16.578,0,0,0,7.159-2.785l-2.738-5.251c-2.768,2.171-5.8,2.436-8.735,2.231a8.351,8.351,0,0,1-7.624-7.066l22.064-.069c.986-5.308.222-9.6-3.084-13.213C264.917,636.517,252.28,635.635,246.327,644.712Zm5.443,5.23c1.383-6.347,8.716-6.968,12.04-4.709a6.383,6.383,0,0,1,2.467,4.786Z" style="fill:#6b6b6b"/><path d="M313.791,661.355a12.9,12.9,0,0,1-4.657,1.206c-3.024.08-4.355-1.144-4.576-4.165-.012-.166-.022-.332-.022-.5,0-4.2.014-9.431-.018-13.63l8.28-.033v-5.876h-8.28V629.9l-7.387,2.609v5.844h-3.47v5.876h3.47v1.28c-.006,3.209-.02,11.57-.02,14.573A8.356,8.356,0,0,0,302.722,668c3.441,1.149,7.614.515,11.075-.2Z" style="fill:#6b6b6b"/><path d="M290.186,665.045a3.669,3.669,0,0,1-1.907-2.087,10.837,10.837,0,0,1-.741-4.3q-.01-16.375-.006-32.751c-2.055.434-7.315,1.711-7.315,1.711.032,5.661.02,28.981.012,34.376a12.778,12.778,0,0,0,.2,2.285c.446,2.461,1.616,3.815,3.653,4.23a6.52,6.52,0,0,0,6.431-2.322C290.9,665.615,290.787,665.3,290.186,665.045Z" style="fill:#6b6b6b"/><path d="M574.535,27.209l-5.591,9.683,1.279.739-7.87,13.633-1.279-.739-5.591,9.683-1.337.772,11,19.045,1.337-.772H577.66V77.776H593.4v1.477h11.182l1.337.772,11-19.045-1.337-.772-5.591-9.683-1.279.739-7.871-13.633,1.28-.739-5.591-9.683V25.665h-22Zm19.5,10.151,1.817,3.147,1.279-.739L605.006,53.4l-1.279.739,1.817,3.147-8.509,14.737H593.4V73.5H577.66V72.024h-3.634l-8.509-14.737,1.817-3.147-1.279-.739,7.871-13.633,1.279.739,1.817-3.147Z" style="fill:#6b6b6b"/><path d="M658.389,188.54c-4.492,2.652-6.059,7.019-4.112,11.747,1.434,3.482,3.851,6.077,7.693,6.979.467.11.53.288.375.684a8.632,8.632,0,0,0,.1,6.167c1.354,3.894,4.177,7.028,8.447,7.89l-1.963,2.982,1.807,3.236c3.873-2.288,25.706-14.841,25.706-14.841l-2.751-4.765-18.959,10.956c-3.117-.556-5.42-1.718-6.561-4.306-1.1-2.5-1-5.173,2.112-6.971l17.422-10.046-2.755-4.772-18.872,10.828c-3.173.661-5.71-1.8-6.716-4.352-.952-2.417-.367-4.494,1.783-6.331,1.433-1.223,17.821-10.511,17.821-10.511l-2.81-4.867S661.37,186.781,658.389,188.54Z" style="fill:#858585"/><path d="M634.488,142.81s-10.488-1.95-14.647-2.74l3.242,5.616c3.579.63,8.084,1.42,11.659,2.072,1.785.325,5.663,1.081,5.639,1.094-2.142,1.244-21.843,12.616-21.843,12.616l2.823,4.891L657.31,145.6l-2.823-4.891-8.926,5.153-5.981-1.74c2.278-4.453,5.643-11.034,7.944-15.475l-3.118-5.358C641.484,129.027,637.374,137.058,634.488,142.81Z" style="fill:#858585"/><path d="M656.384,155.4c-1.915,1.521-4.185,2.463-6.225,3.782a72.226,72.226,0,0,0-6.728,4.115c-2.913,2.265-4.754,5.042-4.2,8.928a17.454,17.454,0,0,0,3.4,7.929,17.956,17.956,0,0,0,6.271,5.385l2.76-4.279a12.093,12.093,0,0,1-6.423-6.16c-1.573-3.087-.8-6.106,3.222-8.428a17,17,0,0,0,2.722,6.069c2.36,2.936,5.189,5.084,8.97,5.733a8.8,8.8,0,0,0,9.773-11.742,13.623,13.623,0,0,0-8.642-8.133s3.066-3.313-.513-8.016l-1.983,1.086C658.936,153.455,657.381,154.608,656.384,155.4Zm3.518,6.453a8.848,8.848,0,0,1,5.244,5.189c1.325,3.251-1.025,6.34-4.715,6.167a8.624,8.624,0,0,1-6.347-3.548,13.063,13.063,0,0,1-2.331-4.889l5.941-3.43a7.476,7.476,0,0,1,2.206.511Z" style="fill:#858585"/><path d="M608.641,113.638a13.134,13.134,0,0,0,.866,9.17c2.266,5.179,6.167,8.227,11.79,8.864a16.228,16.228,0,0,0,11.844-3.626c4.451-3.358,6.515-7.836,5.757-13.452-.489-3.617-2.389-6.55-4.794-9.183a25.463,25.463,0,0,0-5.315-3.87l-2.32,3.935a14.68,14.68,0,0,1,5.189,4.03c3.773,4.76,2.956,10.943-3.144,14.7L617.5,105.186C612.33,107.15,609.427,110.9,608.641,113.638Zm16.411,12.332a8.533,8.533,0,0,1-10.677-3.8c-1.916-3.336-2.312-7.2,2.294-10.727Z" style="fill:#858585"/><path d="M592.1,91.458c2.491,8.146,6.711,8.726,10.308,8.9l-4.1,2.369,2.767,4.793,25.691-14.833L623.992,87.9,609.4,96.318a10.136,10.136,0,0,1-3.015,1.151c-4.357.894-8.954-1.847-8.785-6.542Z" style="fill:#858585"/><path d="M715.572,330.8l5.072,5.467c2.519-1.5,7.478-4.336,10.018-5.8,0,0,0-.066.363,1.635a14.431,14.431,0,0,0,16.11,11.554,18.847,18.847,0,0,0,12.19-7.015,11.4,11.4,0,0,0,2.137-10.668,14.609,14.609,0,0,0-7.072-9.223c.381-.22,1.294-.727,1.294-.727l-3.632-6.29ZM749.4,319.646c4.59,2.042,6.655,7.809,4.506,11.375a12.819,12.819,0,0,1-6.489,4.92c-5.567,2.012-11.247-2.407-11.086-8.769Z" style="fill:#6b6b6b"/><path d="M697.532,219.583a5.669,5.669,0,0,1-2.115,3.186c-1.866,1.649-4.137,2.663-6.228,3.96a39.45,39.45,0,0,0-6.53,4.228c-1.839,1.588-3.514,3.3-4.061,5.782a11.1,11.1,0,0,0,.721,6.57,26.844,26.844,0,0,0,7.57,10.5l3.915-4.087a20.087,20.087,0,0,1-5.127-6.917c-1.08-2.506-.692-4.74,1.069-6.086a2.674,2.674,0,0,1,.593-.4,22.809,22.809,0,0,0,3.878,6.525,13.382,13.382,0,0,0,7.812,5.068c4.551.873,9.831-2.337,10.952-6.687,1.283-4.978-2.249-12.037-8.468-14.042a22.441,22.441,0,0,0,.912-2.755c.345-2.358-1.881-5.081-4.782-5.456Zm-1.607,11.847a4.825,4.825,0,0,1,5.841,1.783,9.513,9.513,0,0,1,1.434,2.379c.511,1.329.716,2.612-.3,3.752a4.528,4.528,0,0,1-4.256,1.671,4.676,4.676,0,0,1-2.4-1.164,13.869,13.869,0,0,1-3.858-5.5,8.7,8.7,0,0,1-.3-.89A38.857,38.857,0,0,1,695.925,231.43Z" style="fill:#6b6b6b"/><path d="M728.239,315.169c4.644.264,8.538-1.616,11.974-4.475a12.6,12.6,0,0,0,4.569-12.977,21.7,21.7,0,0,0-4.44-8.887,16.584,16.584,0,0,0-5.992-4.806l-3.178,5c3.263,1.311,5.01,3.806,6.3,6.449a8.35,8.35,0,0,1-2.308,10.136l-11.092-19.074c-5.09,1.8-8.426,4.609-9.9,9.277C711.846,303.167,717.4,314.553,728.239,315.169Zm1.807-7.328c-6.188,1.975-10.392-4.065-10.1-8.073a6.385,6.385,0,0,1,2.911-4.53Z" style="fill:#6b6b6b"/><path d="M708.919,248.422a12.872,12.872,0,0,1,3.373,3.43c1.582,2.578,1.187,4.343-1.319,6.045-.137.094-.276.186-.42.269-3.635,2.1-8.176,4.7-11.795,6.83l-4.169-7.153L689.5,260.78l4.14,7.171-7.321,4.226,5.953,5.094,5.062-2.923,1.735,3.006,5.088-2.938-1.735-3,1.109-.641c2.782-1.6,10.03-5.767,12.63-7.269a8.354,8.354,0,0,0,4.047-8.816c-.725-3.553-3.361-6.85-5.707-9.492Z" style="fill:#6b6b6b"/><path d="M723.918,267.019a3.672,3.672,0,0,1-.854,2.7,10.863,10.863,0,0,1-3.353,2.791q-14.177,8.2-28.36,16.381c1.4,1.562,5.139,5.479,5.139,5.479,4.887-2.859,25.089-14.507,29.765-17.2a12.694,12.694,0,0,0,1.876-1.32c1.909-1.616,2.5-3.307,1.837-5.278a6.52,6.52,0,0,0-5.225-4.409C724.054,266.116,723.841,266.369,723.918,267.019Z" style="fill:#6b6b6b"/><path d="M29.637,339.389H40.818v-1.477H56.56v1.477H67.741l1.337.771,10.995-19.044-1.337-.772-5.59-9.683-1.279.738L64,297.766l1.279-.738-5.591-9.683V285.8h-22v1.544l-5.59,9.683,1.279.738L25.511,311.4l-1.279-.738-5.591,9.683-1.337.772,11,19.044Zm-.961-21.967,1.816-3.147-1.279-.738L37.084,299.9l1.279.738L40.18,297.5H57.2l1.817,3.146,1.279-.738,7.871,13.633-1.279.738,1.817,3.147L60.2,332.163H56.56v1.477H40.818v-1.477H37.184Z" style="fill:#6b6b6b"/><path d="M127.427,186.1c4.542,2.565,9.107,1.738,12.228-2.312,2.3-2.982,3.338-6.373,2.2-10.152-.138-.459-.015-.6.405-.667a8.63,8.63,0,0,0,5.29-3.17c2.695-3.12,4-7.132,2.61-11.261l3.564.21,1.9-3.184c-3.918-2.21-25.706-14.841-25.706-14.841l-2.751,4.765,18.968,10.941c1.076,2.977,1.222,5.552-.449,7.834-1.612,2.2-3.979,3.455-7.093,1.657-1.657-.956-17.412-10.065-17.412-10.065l-2.755,4.772,18.814,10.93c2.159,2.417,1.3,5.842-.411,7.992-1.617,2.032-3.709,2.565-6.374,1.621-1.779-.626-18.017-10.17-18.017-10.17l-2.809,4.866S124.412,184.4,127.427,186.1Z" style="fill:#858585"/><path d="M99.773,229.667s3.556,10.058,4.951,14.055l3.243-5.616c-1.244-3.414-2.813-7.711-4.036-11.133-.61-1.707-1.895-5.444-1.871-5.431,2.148,1.234,21.847,12.61,21.847,12.61l2.824-4.891L90.782,208.506,87.958,213.4l8.925,5.153,1.485,6.05c-5,.253-12.378.63-17.375.857l-3.08,5.379C84.339,230.5,93.349,230.044,99.773,229.667Z" style="fill:#858585"/><path d="M99.729,204.41c2.274.9,4.226,2.392,6.387,3.5a72.12,72.12,0,0,0,6.928,3.769c3.418,1.391,6.744,1.6,9.832-.827a17.439,17.439,0,0,0,5.166-6.91,17.934,17.934,0,0,0,1.529-8.123l-5.086-.251a12.087,12.087,0,0,1-2.123,8.642c-1.888,2.907-4.89,3.746-8.91,1.424a16.979,16.979,0,0,0,3.894-5.391c1.363-3.512,1.809-7.036.481-10.635a8.8,8.8,0,0,0-15.056-2.593,13.623,13.623,0,0,0-2.722,11.552s-4.4-1-6.685,4.451l1.931,1.175C96.768,203.172,98.545,203.942,99.729,204.41Zm3.83-6.274A8.839,8.839,0,0,1,105.43,191c2.153-2.774,6-2.283,7.7,1a8.626,8.626,0,0,1,.1,7.271,13.053,13.053,0,0,1-3.068,4.463l-5.941-3.43A7.46,7.46,0,0,1,103.559,198.136Z" style="fill:#858585"/><path d="M87.434,266.638a13.124,13.124,0,0,0,7.508-5.335c3.352-4.552,4.041-9.454,1.781-14.643a16.23,16.23,0,0,0-9.062-8.445c-5.134-2.175-10.044-1.723-14.528,1.742-2.888,2.231-4.478,5.343-5.556,8.742a25.423,25.423,0,0,0-.694,6.538l4.568.042a14.661,14.661,0,0,1,.9-6.509c2.236-5.648,8-8.032,14.3-4.625L75.686,263.2C79.97,266.687,84.671,267.325,87.434,266.638Zm2.473-20.379A8.534,8.534,0,0,1,91.96,257.4c-1.931,3.327-5.084,5.6-10.437,3.376Z" style="fill:#858585"/><path d="M76.5,292.057c5.809-6.23,4.2-10.175,2.555-13.378l4.1,2.368,2.767-4.793L60.231,261.422l-2.767,4.793,14.588,8.422a10.121,10.121,0,0,1,2.5,2.037c2.953,3.325,2.878,8.677-1.273,10.878Z" style="fill:#858585"/><path d="M222.035,65.452l2.2-7.125c-2.559-1.433-7.493-4.309-10.033-5.776,0,0-.059.031,1.234-1.131a14.43,14.43,0,0,0,1.951-19.729,18.845,18.845,0,0,0-12.17-7.049,11.4,11.4,0,0,0-10.307,3.483,14.612,14.612,0,0,0-4.452,10.736c-.381-.22-1.276-.758-1.276-.758l-3.632,6.291S221.805,65.317,222.035,65.452ZM195.46,41.729c-.526-5,3.436-9.668,7.6-9.589a12.815,12.815,0,0,1,7.506,3.158c4.526,3.816,3.538,10.944-2.052,13.987Z" style="fill:#6b6b6b"/><path d="M134.739,136.684a5.668,5.668,0,0,1,3.816.238c2.361.792,4.375,2.251,6.544,3.413a39.394,39.394,0,0,0,6.927,3.542c2.294.8,4.617,1.392,7.038.625a11.091,11.091,0,0,0,5.328-3.909,26.863,26.863,0,0,0,5.31-11.807l-5.5-1.347a20.072,20.072,0,0,1-3.427,7.9c-1.63,2.189-3.759,2.969-5.8,2.117a2.662,2.662,0,0,1-.643-.314,22.7,22.7,0,0,0,3.712-6.621,13.381,13.381,0,0,0,.484-9.3c-1.519-4.378-6.94-7.345-11.268-6.141-4.952,1.378-9.3,7.966-7.926,14.355a22.216,22.216,0,0,0-2.842.587c-2.215.88-3.459,4.17-2.334,6.869Zm11.063-4.533a4.825,4.825,0,0,1-1.376-5.95,9.5,9.5,0,0,1,1.343-2.431c.9-1.107,1.9-1.926,3.4-1.619A4.528,4.528,0,0,1,152.742,125a4.687,4.687,0,0,1,.19,2.657,13.855,13.855,0,0,1-2.834,6.09,8.591,8.591,0,0,1-.622.7,38.867,38.867,0,0,1-3.676-2.3Z" style="fill:#6b6b6b"/><path d="M202.166,62.3c-2.094-4.154-5.669-6.586-9.863-8.132A12.6,12.6,0,0,0,178.78,56.7a21.687,21.687,0,0,0-5.476,8.289,16.587,16.587,0,0,0-1.167,7.592l5.916.255c-.5-3.482.791-6.242,2.436-8.681a8.348,8.348,0,0,1,9.931-3.069L179.447,80.225c4.1,3.508,8.2,4.992,12.985,3.936C199.968,82.5,207.051,71.991,202.166,62.3Zm-7.251,2.1c4.805,4.371,1.676,11.033-1.942,12.782a6.386,6.386,0,0,1-5.379-.256Z" style="fill:#6b6b6b"/><path d="M154.02,112.4a12.928,12.928,0,0,1,1.284-4.636c1.443-2.659,3.168-3.2,5.9-1.881.15.073.3.147.444.23,3.637,2.1,8.161,4.728,11.812,6.8l-4.111,7.187,5.089,2.938,4.139-7.17,7.321,4.226,1.435-7.7-5.062-2.923,1.735-3-5.088-2.938-1.735,3-1.109-.64c-2.776-1.609-10.01-5.8-12.61-7.3a8.358,8.358,0,0,0-9.659.9c-2.715,2.405-4.252,6.336-5.367,9.689Z" style="fill:#6b6b6b"/><path d="M162.627,90.114a3.675,3.675,0,0,1,2.762-.608,10.871,10.871,0,0,1,4.093,1.508q14.187,8.178,28.366,16.37c.651-2,2.176-7.19,2.176-7.19-4.919-2.8-25.108-14.474-29.777-17.178a12.671,12.671,0,0,0-2.081-.965c-2.353-.845-4.112-.509-5.489,1.048a6.517,6.517,0,0,0-1.2,6.73C161.777,90.448,162.1,90.506,162.627,90.114Z" style="fill:#6b6b6b"/></svg>