<svg xmlns="http://www.w3.org/2000/svg" width="500" height="500" viewBox="0 0 500 500"><path d="M481.425,470h-28a4,4,0,0,1-4-4V438a4,4,0,0,1,4-4h28a4,4,0,0,1,4,4v28A4,4,0,0,1,481.425,470Zm2-32a2,2,0,0,0-2-2h-28a2,2,0,0,0-2,2v9h32Zm-4,5h-24a1,1,0,0,1-1-1h0a1,1,0,0,1,1-1h24a1,1,0,0,1,1,1h0A1,1,0,0,1,479.425,443Zm-28,23a2,2,0,0,0,2,2h28a2,2,0,0,0,2-2V449h-32Zm16-2-9-10h18Z" style="fill:#212121;fill-opacity:0.36269399523735;fill-rule:evenodd"/><path d="M483.425,447h-32v-9a2,2,0,0,1,2-2h28a2,2,0,0,1,2,2Zm-3-5h0a1,1,0,0,0-1-1h-24a1,1,0,0,0-1,1h0a1,1,0,0,0,1,1h24A1,1,0,0,0,480.425,442Z" style="fill:#666;fill-rule:evenodd;opacity:0.36"/><path d="M451.425,449h32v17a2,2,0,0,1-2,2h-28a2,2,0,0,1-2-2Zm25,5h-18l9,10Z" style="fill:#fff;opacity:0.36"/></svg>