<?xml version="1.0" encoding="UTF-8" standalone="no"?><!DOCTYPE svg PUBLIC "-//W3C//DTD SVG 1.1//EN" "http://www.w3.org/Graphics/SVG/1.1/DTD/svg11.dtd"><svg width="100%" height="100%" viewBox="0 0 4117 4275" version="1.1" xmlns="http://www.w3.org/2000/svg" xmlns:xlink="http://www.w3.org/1999/xlink" xml:space="preserve" xmlns:serif="http://www.serif.com/" style="fill-rule:evenodd;clip-rule:evenodd;stroke-linejoin:round;stroke-miterlimit:2;"><path d="M2204.55,4113.7l-111.912,111.338l32.054,-0l111.354,-111.338l-31.496,0Z" style="fill:#cfd2d3;fill-rule:nonzero;"/><path d="M2267.53,4113.7l-111.35,111.338l31.492,-0l111.916,-111.338l-32.058,0Z" style="fill:#cfd2d3;fill-rule:nonzero;"/><path d="M2331.09,4113.7l-111.355,111.338l32.059,-0l111.35,-111.338l-32.055,0Z" style="fill:#cfd2d3;fill-rule:nonzero;"/><path d="M2395.2,4113.7l-111.916,111.338l32.058,-0l111.35,-111.338l-31.492,0Z" style="fill:#cfd2d3;fill-rule:nonzero;"/><path d="M2458.74,4113.7l-111.35,111.338l31.491,-0l111.917,-111.338l-32.058,0Z" style="fill:#cfd2d3;fill-rule:nonzero;"/><path d="M2522.86,4113.7l-111.917,111.338l32.054,-0l111.354,-111.338l-31.491,0Z" style="fill:#cfd2d3;fill-rule:nonzero;"/><path d="M2586.42,4113.7l-111.354,111.338l31.495,-0l111.913,-111.338l-32.054,0Z" style="fill:#cfd2d3;fill-rule:nonzero;"/><path d="M2649.95,4113.7l-111.354,111.338l31.496,-0l111.912,-111.338l-32.054,0Z" style="fill:#cfd2d3;fill-rule:nonzero;"/><path d="M2714.07,4113.7l-111.913,111.338l32.055,-0l111.354,-111.338l-31.496,0Z" style="fill:#cfd2d3;fill-rule:nonzero;"/><path d="M2777.63,4113.7l-111.916,111.338l32.054,-0l111.916,-111.338l-32.054,0Z" style="fill:#cfd2d3;fill-rule:nonzero;"/><path d="M1565.11,4113.7l-111.917,111.338l32.058,-0l111.913,-111.338l-32.054,0Z" style="fill:#cfd2d3;fill-rule:nonzero;"/><path d="M1628.1,4113.7l-111.35,111.338l31.492,-0l111.917,-111.338l-32.059,0Z" style="fill:#cfd2d3;fill-rule:nonzero;"/><path d="M1692.22,4113.7l-111.917,111.338l32.058,-0l111.351,-111.338l-31.492,0Z" style="fill:#cfd2d3;fill-rule:nonzero;"/><path d="M1755.76,4113.7l-111.35,111.338l31.492,-0l111.917,-111.338l-32.059,0Z" style="fill:#cfd2d3;fill-rule:nonzero;"/><path d="M1819.32,4113.7l-111.354,111.338l32.058,-0l111.35,-111.338l-32.054,0Z" style="fill:#cfd2d3;fill-rule:nonzero;"/><path d="M1883.43,4113.7l-111.916,111.338l32.058,-0l111.35,-111.338l-31.492,0Z" style="fill:#cfd2d3;fill-rule:nonzero;"/><path d="M1946.97,4113.7l-111.354,111.338l31.496,-0l111.912,-111.338l-32.054,0Z" style="fill:#cfd2d3;fill-rule:nonzero;"/><path d="M2010.53,4113.7l-111.35,111.338l32.054,-0l111.354,-111.338l-32.058,0Z" style="fill:#cfd2d3;fill-rule:nonzero;"/><path d="M2074.65,4113.7l-111.917,111.338l32.058,-0l111.351,-111.338l-31.492,0Z" style="fill:#cfd2d3;fill-rule:nonzero;"/><path d="M2138.18,4113.7l-111.354,111.338l31.492,-0l111.917,-111.338l-32.055,0Z" style="fill:#cfd2d3;fill-rule:nonzero;"/><path d="M2761.87,4225.08l63.55,-63.566l-0,-32.059l-95.605,95.625l32.055,0Z" style="fill:#cfd2d3;fill-rule:nonzero;"/><path d="M2825.43,4225.08l0,-31.5l-32.054,31.5l32.054,0Z" style="fill:#cfd2d3;fill-rule:nonzero;"/><path d="M1493.13,4113.7l-63.55,63.546l0,32.042l95.605,-95.588l-32.055,0Z" style="fill:#cfd2d3;fill-rule:nonzero;"/><path d="M1429.58,4113.7l0,32.059l32.054,-32.059l-32.054,0Z" style="fill:#cfd2d3;fill-rule:nonzero;"/><g><path d="M29.922,153.9c-17.084,8.334 -18.334,20.417 -17.084,148.75l1.25,122.084l10,7.916c9.167,7.5 17.917,7.917 137.917,7.917c120,0 128.75,-0.417 137.917,-7.917l10,-7.916l-0,-127.5c-0,-126.667 -0,-127.5 -9.584,-136.667c-9.166,-9.583 -10.416,-9.583 -135.416,-10.417c-82.917,-0.416 -128.75,0.834 -135,3.75Zm157.083,7.5l0,266.667l-74.167,0c-52.083,0 -75.833,-1.667 -79.166,-5c-3.75,-3.75 -5,-38.333 -5,-129.167l-0,-124.583l9.583,-3.75c5,-2.083 40.417,-3.75 79.167,-3.75l69.583,-0.417Zm103.333,9.167c3.75,3.75 5,37.5 5,127.083c0,142.5 5,130.417 -53.75,130.417l-37.916,0l-0,-262.5l40.833,0c26.25,0 42.5,1.667 45.833,5Z" style="fill:#fff;fill-rule:nonzero;"/><path d="M105.755,263.9c-20.833,17.084 -37.917,32.5 -38.75,34.584c-1.25,3.333 75.417,67.083 80.417,67.083c1.25,0 2.083,-30 2.083,-66.667c0,-36.666 -1.25,-66.666 -2.917,-66.666c-2.083,0.416 -20,14.583 -40.833,31.666Z" style="fill:#fff;fill-rule:nonzero;"/><path d="M237.422,196.4c-3.334,3.75 -4.584,35.834 -3.75,105c1.25,90.834 2.083,99.584 8.75,100.834c6.666,1.25 7.083,-5.834 7.083,-102.917c0,-57.083 -1.667,-105 -3.75,-106.25c-2.083,-1.25 -5.833,0 -8.333,3.333Z" style="fill:#fff;fill-rule:nonzero;"/><path d="M97.422,478.9c-44.584,35 -29.584,124.167 20.833,124.167c30.417,0 45.417,-15.417 57.917,-58.333c9.166,-30.834 20.833,-49.167 33.75,-52.5c38.75,-9.584 59.583,55.833 26.666,83.75c-7.083,5.833 -16.666,10.416 -21.25,10.416c-5.416,0 -7.5,2.084 -6.666,7.084c2.083,10.416 22.5,8.333 35.416,-3.75c15.417,-14.167 22.084,-30 22.084,-51.25c-0,-38.75 -18.334,-62.5 -47.917,-62.5c-25.417,-0 -40,15 -51.667,52.083c-12.916,40.833 -24.166,55.833 -42.5,57.5c-19.166,1.667 -32.083,-8.75 -36.666,-29.167c-7.084,-31.666 8.333,-67.5 30.416,-70.833c4.584,-0.833 9.167,-4.583 10,-8.75c2.084,-10.417 -16.25,-9.167 -30.416,2.083Z" style="fill:#fff;fill-rule:nonzero;"/><path d="M105.338,633.9c-35,15.417 -45.833,71.25 -18.333,96.25c11.667,10.417 18.75,3.75 8.75,-8.75c-24.167,-30.833 -7.5,-71.25 32.083,-79.166l13.334,-2.917l-0,101.25l14.583,0c36.25,0 60.417,-22.083 60.417,-54.583c-0,-22.084 -12.084,-40.834 -33.75,-51.667c-14.584,-7.917 -59.584,-7.917 -77.084,-0.417Zm91.25,27.917c17.5,21.25 4.167,53.333 -25.416,62.083l-13.334,3.75l0,-87.083l15.834,6.25c8.333,3.75 18.75,10.417 22.916,15Z" style="fill:#fff;fill-rule:nonzero;"/><path d="M124.505,765.15c-42.917,8.75 -63.75,43.75 -48.75,80.834c5.833,13.333 27.5,32.083 37.5,32.083c7.917,0 1.25,-15.417 -9.583,-21.667c-25.417,-14.583 -25.417,-54.583 -0,-67.916c44.166,-22.917 100,-4.167 100,33.75c-0,20.416 -3.75,26.25 -21.25,35.416c-9.167,4.584 -16.25,10.834 -16.25,14.167c-0,7.917 5.833,7.917 22.5,0c36.666,-17.5 36.666,-80.417 -0.417,-99.167c-15,-7.916 -45,-11.25 -63.75,-7.5Z" style="fill:#fff;fill-rule:nonzero;"/><path d="M74.505,919.734c0,7.5 2.917,8.333 34.167,8.333c31.25,0 35,0.833 45.833,11.25c6.25,6.25 11.667,12.5 11.667,14.167c-0,1.666 -20.417,19.583 -45.834,39.583c-35.833,28.75 -45.833,38.75 -45.833,46.667c0,11.25 -4.583,14.583 72.083,-47.917l32.084,-26.667l40,36.667c21.666,20 41.25,37.083 43.333,37.917c2.5,0.833 4.167,-2.084 4.167,-6.25c-0,-4.167 -22.084,-28.334 -50.834,-56.25l-51.25,-48.75l51.25,-0c47.917,-0.417 50.834,-0.834 50.834,-8.75c-0,-7.917 -2.917,-8.334 -95.834,-8.334c-92.916,0 -95.833,0.417 -95.833,8.334Z" style="fill:#fff;fill-rule:nonzero;"/><path d="M249.922,1077.65c-7.917,5 -2.5,17.084 7.916,17.084c6.667,-0 8.75,-2.084 7.5,-9.167c-1.25,-10.417 -7.083,-13.333 -15.416,-7.917Z" style="fill:#fff;fill-rule:nonzero;"/><path d="M75.338,1085.15c1.25,6.667 7.917,7.5 70,7.5c62.084,0 68.75,-0.833 70,-7.5c1.25,-6.666 -4.166,-7.083 -70,-7.083c-65.833,0 -71.25,0.417 -70,7.083Z" style="fill:#fff;fill-rule:nonzero;"/><path d="M202.838,1128.9l-1.25,13.75l-59.583,2.084c-53.75,1.666 -60.417,2.916 -65.833,10.416c-8.334,11.25 -5.834,32.917 3.75,34.584c5.416,1.25 7.083,-1.25 7.083,-11.667c0,-17.917 12.083,-21.25 68.333,-20l46.25,1.25l1.25,13.333c2.084,19.584 13.334,18.334 13.334,-0.833c-0,-14.167 0.416,-14.583 16.666,-14.583c12.084,-0 16.667,-1.667 16.667,-6.25c0,-4.584 -4.583,-6.25 -16.25,-6.25c-15.417,-0 -16.667,-0.834 -17.917,-13.334c-1.666,-17.916 -10.833,-20 -12.5,-2.5Z" style="fill:#fff;fill-rule:nonzero;"/></g></svg>