<?xml version="1.0" encoding="UTF-8" standalone="no"?>
<!-- Created with Inkscape (http://www.inkscape.org/) -->

<svg
   width="180.33073mm"
   height="180.33073mm"
   viewBox="0 0 180.33073 180.33073"
   version="1.1"
   id="svg5"
   xml:space="preserve"
   inkscape:version="1.3.2 (091e20e, 2023-11-25, custom)"
   sodipodi:docname="180x180 Positron V3-2 Texture.svg"
   xmlns:inkscape="http://www.inkscape.org/namespaces/inkscape"
   xmlns:sodipodi="http://sodipodi.sourceforge.net/DTD/sodipodi-0.dtd"
   xmlns="http://www.w3.org/2000/svg"
   xmlns:svg="http://www.w3.org/2000/svg"><sodipodi:namedview
     id="namedview7"
     pagecolor="#ffffff"
     bordercolor="#666666"
     borderopacity="1.0"
     inkscape:pageshadow="2"
     inkscape:pageopacity="0.0"
     inkscape:pagecheckerboard="0"
     inkscape:deskcolor="#d1d1d1"
     inkscape:document-units="mm"
     showgrid="false"
     inkscape:zoom="5.6568542"
     inkscape:cx="528.7391"
     inkscape:cy="685.62841"
     inkscape:window-width="1350"
     inkscape:window-height="1237"
     inkscape:window-x="763"
     inkscape:window-y="233"
     inkscape:window-maximized="0"
     inkscape:current-layer="layer1"
     inkscape:showpageshadow="2" /><defs
     id="defs2" /><g
     inkscape:label="Layer 1"
     inkscape:groupmode="layer"
     id="layer1"><path
       style="fill:none;stroke:#b3b3b3;stroke-width:0.661458;stroke-dasharray:none"
       d="M 0,180 H 180"
       id="path2564"
       sodipodi:nodetypes="cc" /><path
       style="fill:none;stroke:#b3b3b3;stroke-width:0.661458;stroke-dasharray:none"
       d="M 180,0 V 180"
       id="path2578"
       inkscape:label="MajorGrid1"
       sodipodi:nodetypes="cc" /><g
       id="g4"
       transform="matrix(0.09315735,0,0,0.09315735,95.812769,157.18782)"
       style="fill:#d4aa00">
	<path
   d="M 176.14,172.69 V 72.1 h 2.2 c 11,0 32.99,0.03 32.99,0.03 L 212.27804,72.1231 216.66,65.5 211.95467,69.065769 207.5,69.01 c 0,0 12.89,-12.76 19.19,-19 6.04,6.02 18.99,18.91 18.99,18.91 l -4.47438,-0.06938 -5.13562,-3.170625 3.8825,6.38625 L 241.61,72.1 c 0,0 21.86,0.02 32.78,0.02 h 2.31 v 100.59 c -33.45,-0.02 -66.92,-0.02 -100.56,-0.02 z m 90.7,-45.14 c -0.31,-0.47 -0.59,-0.81 -0.83,-1.2 -9.3,-16.1 -18.61,-32.19 -27.88,-48.32 -0.62,-1.09 -1.25,-1.59 -2.59,-1.58 -6.05,0.09 -12.11,0.09 -18.18,0 -1.33,-0.02 -1.98,0.47 -2.61,1.54 -6.73,11.75 -13.5,23.47 -20.27,35.19 -2.75,4.77 -5.54,9.52 -8.38,14.4 -1.3,-0.75 -2.47,-1.44 -3.74,-2.17 9.42,-16.34 18.77,-32.52 28.18,-48.81 h -30.07 v 91.72 h 91.82 v -91.7 h -29.97 c 9.49,16.43 18.83,32.59 28.21,48.85 -1.35,0.77 -2.49,1.41 -3.69,2.08 z M 234.73,72.14 c -2.86,-4.91 -5.52,-9.52 -8.29,-14.29 -2.79,4.87 -5.46,9.49 -8.22,14.29 z"
   id="path1-8"
   sodipodi:nodetypes="ccscccccccccccscccccccccccccccccccccccc"
   style="fill:#d4aa00" />
	<path
   d="m 256.68,175.95 c -10.16,10.14 -20.19,20.18 -30.11,30.08 -9.94,-9.95 -20,-20.02 -30.07,-30.08 19.89,0 39.98,0 60.18,0 z"
   id="path2-3"
   style="fill:#d4aa00" />
	<path
   d="m 148.35,127.92 c 8.19,-8.22 16.43,-16.49 24.62,-24.72 0,16.35 0,32.88 0,49.34 -8.3,-8.31 -16.55,-16.57 -24.62,-24.62 z"
   id="path3-0"
   style="fill:#d4aa00" />
	<path
   d="m 279.88,152.39 c 0,-16.37 0,-32.84 0,-49.06 8.13,8.19 16.38,16.48 24.5,24.65 -7.86,7.84 -16.16,16.11 -24.5,24.41 z"
   id="path4-6"
   style="fill:#d4aa00" />
</g><path
       d="m 132.45156,162.54883 h 1.75084 q 0.37164,0 0.59462,0.0165 0.23125,0.0165 0.48726,0.0743 0.26428,0.0578 0.4212,0.17343 0.16517,0.11562 0.28079,0.31383 0.10736,0.18995 0.10736,0.479 v 1.11492 q 0,0.66895 -0.52029,0.96627 -0.51204,0.28905 -1.5196,0.28905 h -0.80109 v 1.93253 h -0.80109 z m 1.70955,2.92356 q 0.52029,0 0.83412,-0.18995 0.31383,-0.18995 0.31383,-0.60288 v -0.97452 q 0,-0.22299 -0.11562,-0.36338 -0.11562,-0.14866 -0.33035,-0.20647 -0.20646,-0.0496 -0.34686,-0.0661 -0.1404,-0.0165 -0.37164,-0.0165 h -0.90019 v 2.41979 z m 4.64136,2.51889 q -0.52855,0 -0.79283,-0.0413 -0.26428,-0.033 -0.52855,-0.15692 -0.27254,-0.12388 -0.39642,-0.39641 -0.12388,-0.2808 -0.12388,-0.75154 v -1.38744 q 0,-0.37164 0.0908,-0.65244 0.0908,-0.28079 0.2395,-0.43771 0.12388,-0.14039 0.37164,-0.21472 0.25601,-0.0826 0.52029,-0.10737 0.29731,-0.0165 0.6194,-0.0165 0.42945,0 0.64418,0.0248 0.22298,0.0165 0.47074,0.0826 0.25602,0.0743 0.39642,0.22298 0.14039,0.14866 0.2395,0.42945 0.0908,0.28906 0.0908,0.66896 v 1.38745 q 0,0.70199 -0.32209,1.02407 -0.13213,0.13214 -0.37989,0.20647 -0.24776,0.0743 -0.51204,0.0991 -0.31383,0.0165 -0.62766,0.0165 z m 0,-0.48726 q 0.34687,0 0.50378,-0.0165 0.15691,-0.0165 0.30557,-0.0908 0.14866,-0.0661 0.20647,-0.21473 0.0661,-0.15691 0.0661,-0.42945 v -1.61869 q 0,-0.37164 -0.0908,-0.53682 -0.0908,-0.17343 -0.31383,-0.22298 -0.21472,-0.0578 -0.67721,-0.0578 -0.46248,0 -0.68547,0.0578 -0.21472,0.0495 -0.30557,0.22298 -0.0908,0.16518 -0.0908,0.53682 v 1.61869 q 0,0.27254 0.0578,0.42945 0.0661,0.14866 0.21472,0.21473 0.14866,0.0743 0.30557,0.0908 0.15692,0.0165 0.50378,0.0165 z m 4.22018,0.48726 q -0.63591,0 -1.37093,-0.0991 v -0.56985 q 0.96626,0.15692 1.38745,0.15692 0.52856,0 0.7598,-0.0991 0.23124,-0.10736 0.23124,-0.38816 v -0.40467 q 0,-0.25602 -0.17343,-0.36338 -0.17343,-0.10736 -0.56159,-0.10736 h -0.45423 q -0.6194,0 -0.94974,-0.25602 -0.32209,-0.25602 -0.32209,-0.71851 v -0.37164 q 0,-0.94148 1.78387,-0.94148 0.13214,0 1.21402,0.0661 v 0.53681 q -0.73502,-0.11562 -1.24705,-0.11562 -0.58637,0 -0.80109,0.11562 -0.21473,0.11562 -0.21473,0.38816 v 0.3386 q 0,0.40468 0.73502,0.40468 h 0.46249 q 1.26357,0 1.26357,0.94148 v 0.34687 q 0,0.6194 -0.42945,0.88367 -0.42945,0.25602 -1.31313,0.25602 z m 2.76665,-5.52504 h 0.74328 v 0.77631 h -0.74328 z m 0,1.44526 h 0.74328 v 3.9972 h -0.74328 z m 3.70814,4.07978 q -0.51203,0 -0.80109,-0.10736 -0.28905,-0.11562 -0.42119,-0.3799 -0.12388,-0.27253 -0.12388,-0.7598 v -2.34545 h -0.89193 v -0.48727 h 0.89193 v -1.23879 h 0.75154 v 1.23879 h 1.42875 v 0.48727 h -1.42875 v 2.38675 q 0,0.29731 0.0661,0.44597 0.0743,0.14865 0.24776,0.21472 0.18169,0.0578 0.52029,0.0578 0.10737,0 0.59463,-0.0661 v 0.48726 q -0.42119,0.0661 -0.83413,0.0661 z m 1.64348,-4.07978 h 0.70199 v 0.65244 q 0,-0.18995 0.16517,-0.35512 0.16517,-0.17344 0.42119,-0.27254 0.25602,-0.10736 0.50378,-0.10736 h 0.36338 v 0.63591 h -0.41293 q -0.52856,0 -0.76806,0.1404 -0.23124,0.13214 -0.23124,0.48726 v 2.81621 h -0.74328 z m 4.59182,4.07978 q -0.52856,0 -0.79284,-0.0413 -0.26427,-0.033 -0.52855,-0.15692 -0.27254,-0.12388 -0.39642,-0.39641 -0.12388,-0.2808 -0.12388,-0.75154 v -1.38744 q 0,-0.37164 0.0908,-0.65244 0.0908,-0.28079 0.2395,-0.43771 0.12388,-0.14039 0.37164,-0.21472 0.25602,-0.0826 0.5203,-0.10737 0.29731,-0.0165 0.6194,-0.0165 0.42945,0 0.64417,0.0248 0.22298,0.0165 0.47074,0.0826 0.25602,0.0743 0.39642,0.22298 0.1404,0.14866 0.2395,0.42945 0.0909,0.28906 0.0909,0.66896 v 1.38745 q 0,0.70199 -0.32209,1.02407 -0.13214,0.13214 -0.3799,0.20647 -0.24776,0.0743 -0.51204,0.0991 -0.31383,0.0165 -0.62765,0.0165 z m 0,-0.48726 q 0.34686,0 0.50377,-0.0165 0.15692,-0.0165 0.30557,-0.0908 0.14866,-0.0661 0.20647,-0.21473 0.0661,-0.15691 0.0661,-0.42945 v -1.61869 q 0,-0.37164 -0.0908,-0.53682 -0.0908,-0.17343 -0.31382,-0.22298 -0.21473,-0.0578 -0.67721,-0.0578 -0.46249,0 -0.68547,0.0578 -0.21473,0.0495 -0.30557,0.22298 -0.0908,0.16518 -0.0908,0.53682 v 1.61869 q 0,0.27254 0.0578,0.42945 0.0661,0.14866 0.21473,0.21473 0.14865,0.0743 0.30557,0.0908 0.15691,0.0165 0.50378,0.0165 z m 2.9979,-3.59252 h 0.74327 v 0.48727 q 0.11563,-0.56985 1.31313,-0.56985 0.76806,0 1.07363,0.28079 0.31383,0.27254 0.31383,0.86716 v 2.93183 h -0.74328 v -2.89054 q 0,-0.15691 -0.0248,-0.25601 -0.0248,-0.0991 -0.0991,-0.19821 -0.16518,-0.20647 -0.73502,-0.20647 -0.43771,0 -0.67721,0.0661 -0.23125,0.0578 -0.33035,0.19821 -0.0909,0.1404 -0.0909,0.39641 v 2.89054 h -0.74327 z m 6.1114,-1.36267 h 0.83412 l 1.71781,4.60007 h 0.0743 l 1.71781,-4.60007 h 0.79283 l -2.13074,5.35987 h -0.92497 z m 7.45758,5.44245 q -0.69373,0 -1.56089,-0.15691 v -0.59463 q 0.98278,0.20647 1.64347,0.20647 1.0984,0 1.0984,-0.6194 v -0.91671 q 0,-0.33861 -0.36338,-0.44597 -0.17343,-0.0413 -0.31383,-0.0495 -0.13214,-0.0165 -0.34686,-0.0165 h -1.03233 v -0.51203 h 0.89193 q 0.21473,0 0.34687,-0.008 0.13213,-0.0165 0.30557,-0.0661 0.18169,-0.0413 0.28079,-0.15692 0.0991,-0.11562 0.0991,-0.29731 v -0.958 q 0,-0.42119 -0.99103,-0.42119 -0.6607,0 -1.51134,0.13213 v -0.56984 q 0.71025,-0.0743 1.50308,-0.0743 0.91671,0 1.32964,0.20647 0.42119,0.1982 0.42119,0.68546 v 1.03234 q 0,0.25601 -0.20646,0.42945 -0.20647,0.16517 -0.52856,0.21472 v 0.033 q 0.19821,0.033 0.32209,0.0743 0.13214,0.033 0.28079,0.10737 0.28906,0.14865 0.28906,0.52029 v 1.07363 q 0,0.28079 -0.12388,0.50378 -0.12388,0.22298 -0.31383,0.34686 -0.16517,0.11562 -0.43771,0.18995 -0.27254,0.0661 -0.53681,0.0908 -0.31383,0.0165 -0.54507,0.0165 z"
       id="text84"
       style="font-size:8.25866px;font-family:Play;-inkscape-font-specification:'Play, Normal';display:none;fill:#b3b3b3;stroke-width:0.412932"
       aria-label="Positron V3" /><path
       d="m 132.95779,171.6334 -1.25455,0.82151 v -0.5222 l 1.26092,-0.87246 h 0.54768 v 4.13304 h -0.55405 z m 3.50257,3.62357 q -0.77693,0 -1.12082,-0.18468 -0.34389,-0.19105 -0.34389,-0.62409 v -0.77057 q 0,-0.24836 0.19105,-0.41394 0.19742,-0.17194 0.5222,-0.24836 v -0.0255 q -0.28657,-0.0637 -0.43304,-0.20378 -0.14011,-0.14011 -0.14011,-0.38847 v -0.6432 q 0,-0.17831 0.0573,-0.30568 0.0573,-0.12737 0.19105,-0.24199 0.27384,-0.21653 1.07624,-0.21653 0.80241,0 1.07625,0.21653 0.13373,0.11462 0.19105,0.24199 0.0573,0.12737 0.0573,0.30568 v 0.6432 q 0,0.24836 -0.1401,0.38847 -0.1401,0.1401 -0.42668,0.20378 v 0.0255 q 0.32479,0.0764 0.51583,0.24836 0.19742,0.16558 0.19742,0.41394 v 0.75783 q 0,0.44578 -0.34389,0.63683 -0.33752,0.18468 -1.12719,0.18468 z m 0,-2.38175 q 0.42031,0 0.57952,-0.0891 0.16557,-0.0892 0.16557,-0.33116 v -0.66867 q 0,-0.23563 -0.17194,-0.33115 -0.17194,-0.0955 -0.57315,-0.0955 -0.4012,0 -0.57315,0.0955 -0.17194,0.0955 -0.17194,0.33115 v 0.66867 q 0,0.242 0.15921,0.33116 0.16557,0.0891 0.58588,0.0891 z m 0,2.01239 q 0.46489,0 0.65594,-0.0955 0.19105,-0.0955 0.19105,-0.32478 v -0.77057 q 0,-0.32478 -0.27384,-0.40757 -0.13373,-0.0382 -0.24836,-0.0446 -0.11463,-0.0127 -0.32479,-0.0127 -0.21015,0 -0.31841,0.0127 -0.10826,0.006 -0.24837,0.0446 -0.2802,0.0828 -0.2802,0.40757 v 0.77057 q 0,0.22926 0.19105,0.32478 0.19105,0.0955 0.65593,0.0955 z m 3.69362,0.36936 q -0.2802,0 -0.45852,-0.0191 -0.17194,-0.0191 -0.36936,-0.0764 -0.21015,-0.0573 -0.33752,-0.16558 -0.121,-0.11463 -0.20378,-0.31842 -0.0828,-0.19104 -0.0828,-0.47762 v -2.0888 q 0,-0.28658 0.0828,-0.5031 0.0828,-0.21652 0.21652,-0.34389 0.121,-0.10826 0.31841,-0.17194 0.20379,-0.0701 0.40757,-0.0892 0.22926,-0.0127 0.42668,-0.0127 0.28021,0 0.45215,0.0191 0.17831,0.0191 0.37573,0.0764 0.21016,0.0637 0.33752,0.17831 0.13374,0.11463 0.21652,0.32478 0.0828,0.21016 0.0828,0.51584 v 2.09517 q 0,0.2611 -0.0828,0.46489 -0.0828,0.20378 -0.21652,0.31841 -0.12736,0.10826 -0.32478,0.17832 -0.19742,0.0637 -0.4012,0.0764 -0.17832,0.0191 -0.43942,0.0191 z m 0.0127,-0.37573 q 0.33752,0 0.5222,-0.0446 0.18468,-0.0509 0.26747,-0.19105 0.0828,-0.1401 0.0828,-0.41394 v -2.16522 q 0,-0.29931 -0.0892,-0.44578 -0.0828,-0.15284 -0.26747,-0.20379 -0.17831,-0.051 -0.5222,-0.051 -0.35026,0 -0.53494,0.051 -0.17831,0.051 -0.2611,0.20379 -0.0828,0.14647 -0.0828,0.44578 v 2.16524 q 0,0.27384 0.0828,0.41394 0.0892,0.14011 0.27384,0.19105 0.18468,0.0446 0.52857,0.0446 z m 3.05042,-1.27366 -1.08261,-1.49655 h 0.63046 l 0.7642,1.12719 0.77056,-1.12719 h 0.63046 l -1.08261,1.49655 1.1463,1.58571 h -0.63047 l -0.83424,-1.21635 -0.82788,1.21635 h -0.63047 z m 3.87193,-1.97418 -1.25456,0.82151 v -0.5222 l 1.26093,-0.87246 h 0.54767 v 4.13304 h -0.55404 z m 3.50257,3.62357 q -0.77693,0 -1.12082,-0.18468 -0.34389,-0.19105 -0.34389,-0.62409 v -0.77057 q 0,-0.24836 0.19105,-0.41394 0.19742,-0.17194 0.5222,-0.24836 v -0.0255 q -0.28657,-0.0637 -0.43304,-0.20378 -0.14011,-0.14011 -0.14011,-0.38847 v -0.6432 q 0,-0.17831 0.0573,-0.30568 0.0573,-0.12737 0.19105,-0.24199 0.27383,-0.21653 1.07624,-0.21653 0.80241,0 1.07625,0.21653 0.13373,0.11462 0.19104,0.24199 0.0573,0.12737 0.0573,0.30568 v 0.6432 q 0,0.24836 -0.1401,0.38847 -0.14011,0.1401 -0.42668,0.20378 v 0.0255 q 0.32478,0.0764 0.51583,0.24836 0.19742,0.16558 0.19742,0.41394 v 0.75783 q 0,0.44578 -0.34389,0.63683 -0.33752,0.18468 -1.12719,0.18468 z m 0,-2.38175 q 0.42031,0 0.57952,-0.0891 0.16557,-0.0892 0.16557,-0.33116 v -0.66867 q 0,-0.23563 -0.17194,-0.33115 -0.17195,-0.0955 -0.57315,-0.0955 -0.4012,0 -0.57315,0.0955 -0.17194,0.0955 -0.17194,0.33115 v 0.66867 q 0,0.242 0.15921,0.33116 0.16557,0.0891 0.58588,0.0891 z m 0,2.01239 q 0.46489,0 0.65594,-0.0955 0.19105,-0.0955 0.19105,-0.32478 v -0.77057 q 0,-0.32478 -0.27384,-0.40757 -0.13374,-0.0382 -0.24837,-0.0446 -0.11462,-0.0127 -0.32478,-0.0127 -0.21015,0 -0.31841,0.0127 -0.10827,0.006 -0.24837,0.0446 -0.2802,0.0828 -0.2802,0.40757 v 0.77057 q 0,0.22926 0.19104,0.32478 0.19105,0.0955 0.65594,0.0955 z m 3.69362,0.36936 q -0.28021,0 -0.45852,-0.0191 -0.17194,-0.0191 -0.36936,-0.0764 -0.21015,-0.0573 -0.33752,-0.16558 -0.121,-0.11463 -0.20379,-0.31842 -0.0828,-0.19104 -0.0828,-0.47762 v -2.0888 q 0,-0.28658 0.0828,-0.5031 0.0828,-0.21652 0.21653,-0.34389 0.12099,-0.10826 0.31841,-0.17194 0.20379,-0.0701 0.40757,-0.0892 0.22926,-0.0127 0.42668,-0.0127 0.28021,0 0.45215,0.0191 0.17831,0.0191 0.37573,0.0764 0.21015,0.0637 0.33752,0.17831 0.13373,0.11463 0.21652,0.32478 0.0828,0.21016 0.0828,0.51584 v 2.09517 q 0,0.2611 -0.0828,0.46489 -0.0828,0.20378 -0.21652,0.31841 -0.12737,0.10826 -0.32478,0.17832 -0.19742,0.0637 -0.40121,0.0764 -0.17831,0.0191 -0.43941,0.0191 z m 0.0127,-0.37573 q 0.33752,0 0.5222,-0.0446 0.18468,-0.0509 0.26747,-0.19105 0.0828,-0.1401 0.0828,-0.41394 v -2.16522 q 0,-0.29931 -0.0891,-0.44578 -0.0828,-0.15284 -0.26747,-0.20379 -0.17831,-0.051 -0.5222,-0.051 -0.35026,0 -0.53494,0.051 -0.17831,0.051 -0.2611,0.20379 -0.0828,0.14647 -0.0828,0.44578 v 2.16524 q 0,0.27384 0.0828,0.41394 0.0892,0.14011 0.27384,0.19105 0.18468,0.0446 0.52857,0.0446 z m 2.33717,-2.77021 h 0.57314 v 0.37573 q 0.0892,-0.43942 1.03804,-0.43942 0.77056,0 0.96161,0.42031 0.0573,-0.20379 0.34389,-0.31205 0.29295,-0.10826 0.71325,-0.10826 0.57315,0 0.80878,0.21652 0.23563,0.21016 0.23563,0.66868 v 2.26075 h -0.57315 v -2.22254 q 0,-0.121 -0.0191,-0.19742 -0.0191,-0.0764 -0.0764,-0.15284 -0.12736,-0.15921 -0.56678,-0.15921 -0.33752,0 -0.50309,0.0446 -0.16558,0.0446 -0.22926,0.15284 -0.0573,0.10826 -0.0573,0.31205 v 2.22254 h -0.57314 v -2.22254 q 0,-0.121 -0.0191,-0.19742 -0.0191,-0.0764 -0.0764,-0.15284 -0.12736,-0.15921 -0.56041,-0.15921 -0.35026,0 -0.52857,0.0446 -0.17831,0.0446 -0.24836,0.15284 -0.0701,0.10189 -0.0701,0.31205 v 2.22254 h -0.57314 z m 5.66779,0 h 0.57315 v 0.37573 q 0.0892,-0.43942 1.03803,-0.43942 0.77057,0 0.96162,0.42031 0.0573,-0.20379 0.34388,-0.31205 0.29295,-0.10826 0.71326,-0.10826 0.57314,0 0.80877,0.21652 0.23563,0.21016 0.23563,0.66868 v 2.26075 h -0.57315 v -2.22254 q 0,-0.121 -0.0191,-0.19742 -0.0191,-0.0764 -0.0764,-0.15284 -0.12737,-0.15921 -0.56678,-0.15921 -0.33752,0 -0.5031,0.0446 -0.16558,0.0446 -0.22926,0.15284 -0.0573,0.10826 -0.0573,0.31205 v 2.22254 h -0.57315 v -2.22254 q 0,-0.121 -0.0191,-0.19742 -0.0191,-0.0764 -0.0764,-0.15284 -0.12736,-0.15921 -0.56041,-0.15921 -0.35026,0 -0.52857,0.0446 -0.17831,0.0446 -0.24836,0.15284 -0.0701,0.10189 -0.0701,0.31205 v 2.22254 h -0.57315 z"
       id="text1"
       style="font-size:6.36831px;font-family:Play;-inkscape-font-specification:'Play, Normal';display:none;fill:#b2b2b2;fill-opacity:1;stroke-width:0.174762"
       aria-label="180x180mm" /><path
       style="font-size:7.05556px;font-family:PROXON;-inkscape-font-specification:PROXON;fill:#b2b2b2;stroke-width:0.264583"
       d="m 130.45443,163.89141 q 1.32644,0 1.32644,1.32645 0,1.31939 -1.32644,1.31939 h -2.413 v 1.7145 l -0.77611,0.31044 v -4.67078 z m 0.55033,1.31939 q 0.0423,-0.30339 -0.17639,-0.52211 -0.21872,-0.21872 -0.52211,-0.17639 h -2.26483 v 1.40406 h 2.26483 q 0.30339,0.0423 0.52211,-0.17639 0.21873,-0.21872 0.17639,-0.52917 z m 5.08,0.3175 q 0.38806,0.31045 0.381,0.81139 v 1.05128 q 0,0.49389 -0.381,0.80434 -0.38805,0.35983 -0.91017,0.35277 h -1.94027 q -0.52917,0.007 -0.91723,-0.35277 -0.11994,-0.0988 -0.20461,-0.22578 -0.0847,-0.13406 -0.13405,-0.28222 -0.0423,-0.14817 -0.0423,-0.30339 v -1.04423 q 0,-0.49389 0.381,-0.81139 0.381,-0.35983 0.90311,-0.35277 h 1.96145 q 0.52211,-0.007 0.90311,0.35277 z m -0.47978,1.70745 v -0.762 q 0,-0.26106 -0.1905,-0.43745 -0.20461,-0.21166 -0.50094,-0.19755 h -1.41817 q -0.29633,-0.0141 -0.508,0.19755 -0.1905,0.18345 -0.1905,0.4445 v 0.74789 q 0.007,0.26106 0.1905,0.4445 0.21167,0.20462 0.508,0.19756 h 1.41817 q 0.29633,0.0141 0.50094,-0.19756 0.1905,-0.17638 0.1905,-0.43744 z m 4.66373,-0.39511 q 0.26811,0.30339 0.26811,0.71261 0,0.40217 -0.26811,0.70556 -0.28928,0.31044 -0.71261,0.30338 h -2.7305 l 0.18344,-0.57855 h 2.38478 q 0.16228,0 0.27517,-0.11995 0.10583,-0.11994 0.10583,-0.28222 0.007,-0.16933 -0.11289,-0.28928 -0.0988,-0.11994 -0.254,-0.11288 h -1.67217 q -0.42333,0.0141 -0.70555,-0.29634 -0.27517,-0.29633 -0.27517,-0.6985 0,-0.40217 0.27517,-0.6985 0.28222,-0.3175 0.70555,-0.30339 h 2.51178 l -0.17639,0.5715 h -2.13078 q -0.15522,0 -0.254,0.11289 -0.11289,0.11995 -0.10583,0.28222 0,0.15523 0.0988,0.27517 0.11289,0.127 0.27517,0.11994 h 1.60161 q 0.42333,-0.0141 0.71261,0.29634 z m 1.50989,1.72155 h -0.89605 v -3.38666 h 0.89605 z m -0.13405,-3.90172 q -0.127,0.127 -0.3175,0.127 -0.18345,0 -0.3175,-0.127 -0.127,-0.13406 -0.127,-0.3175 0,-0.1905 0.127,-0.3175 0.13405,-0.13406 0.3175,-0.13406 0.1905,0 0.3175,0.13406 0.13405,0.127 0.13405,0.3175 0,0.18344 -0.13405,0.3175 z m 2.71639,3.26672 h 1.00895 l -0.21167,0.62795 h -1.18533 q -0.48684,0.0353 -0.85373,-0.26811 -0.30338,-0.33161 -0.26811,-0.77611 v -1.74273 h -0.81139 l 0.19756,-0.59266 h 0.61383 v -0.73378 l 0.93134,-0.55739 v 1.29117 h 1.31939 l -0.19756,0.59266 h -1.12183 v 1.60162 q -0.007,0.21872 0.11994,0.40216 0.1905,0.18345 0.45861,0.15522 z m 3.07623,-2.74461 h 1.27 l -0.24694,0.71261 h -0.61384 q -0.53622,0 -0.91016,0.381 -0.37395,0.37395 -0.37395,0.90312 v 1.38994 h -0.91722 v -3.38667 h 0.93133 l -0.007,0.59972 0.14111,-0.19755 q 0.11994,-0.18345 0.31044,-0.28928 0.19756,-0.11289 0.41628,-0.11289 z m 5.42573,0.34572 q 0.38806,0.31045 0.381,0.81139 v 1.05128 q 0,0.49389 -0.381,0.80434 -0.38806,0.35983 -0.91017,0.35277 h -1.94028 q -0.52916,0.007 -0.91722,-0.35277 -0.11994,-0.0988 -0.20461,-0.22578 -0.0847,-0.13406 -0.13406,-0.28222 -0.0423,-0.14817 -0.0423,-0.30339 v -1.04423 q 0,-0.49389 0.381,-0.81139 0.381,-0.35983 0.90311,-0.35277 h 1.96145 q 0.52211,-0.007 0.90311,0.35277 z m -0.47978,1.70745 v -0.762 q 0,-0.26106 -0.1905,-0.43745 -0.20461,-0.21166 -0.50094,-0.19755 h -1.41817 q -0.29633,-0.0141 -0.508,0.19755 -0.1905,0.18345 -0.1905,0.4445 v 0.74789 q 0.007,0.26106 0.1905,0.4445 0.21167,0.20462 0.508,0.19756 h 1.41817 q 0.29633,0.0141 0.50094,-0.19756 0.1905,-0.17638 0.1905,-0.43744 z m 4.81189,-1.66511 q 0.35278,0.39511 0.36689,0.92428 v 2.06727 h -0.88194 v -2.01789 q 0.0141,-0.28927 -0.19756,-0.48683 -0.21872,-0.19755 -0.508,-0.18344 h -0.46567 q -0.42333,0.007 -0.71261,0.31044 -0.28928,0.30339 -0.28222,0.72672 v 1.651 h -0.87489 v -2.68816 l 0.88195,-0.6985 v 0.59972 l 0.14111,-0.19756 q 0.0705,-0.11994 0.17639,-0.21166 0.10583,-0.0917 0.23988,-0.14112 0.13406,-0.0494 0.27517,-0.0494 h 0.889 q 0.17639,-0.0141 0.35278,0.0282 0.17639,0.0423 0.32456,0.14111 0.15522,0.0917 0.27516,0.22578 z m 7.06261,-1.36878 0.92428,-0.31045 -2.18723,4.67078 h -0.77611 l -2.18017,-4.67078 0.92428,0.31045 1.64395,3.53483 z m 4.80484,4.36033 h -3.85939 l 0.254,-0.79022 h 3.21733 q 0.254,0.007 0.43745,-0.17639 0.16228,-0.16933 0.16933,-0.40922 0,-0.23989 -0.17639,-0.40217 -0.17639,-0.17639 -0.43039,-0.16227 h -2.08139 l 0.23284,-0.58562 h 1.69333 q 0.254,0.007 0.43039,-0.16933 0.17639,-0.16933 0.16933,-0.40922 0.007,-0.23284 -0.16933,-0.39511 -0.17639,-0.17639 -0.43039,-0.16934 h -3.25967 l 0.24695,-0.72672 h 3.47133 q 0.508,-0.0282 0.87489,0.33161 0.34572,0.3175 0.33161,0.79022 0.0141,0.46567 -0.32455,0.79023 -0.0847,0.0847 -0.17639,0.14816 l -0.1905,0.127 0.20461,0.10584 q 0.14111,0.0705 0.24694,0.18344 0.33867,0.3175 0.33162,0.79023 0.007,0.46566 -0.33867,0.79022 -0.35984,0.35983 -0.87489,0.33866 z m 1.524,-0.0917 v -0.50094 q 0,-0.0353 0.0212,-0.0635 0.0282,-0.0282 0.0705,-0.0282 h 0.54328 q 0.0353,0 0.0635,0.0282 0.0353,0.0212 0.0282,0.0635 v 0.50094 q 0,0.0353 -0.0212,0.0635 -0.0282,0.0282 -0.0706,0.0282 h -0.54328 q -0.0917,0 -0.0917,-0.0917 z m 6.03957,0.0917 h -5.01651 v -1.23472 q 0.007,-0.55739 0.42334,-0.93133 0.41628,-0.381 0.98778,-0.381 h 2.25777 q 0.23989,0.007 0.40923,-0.16228 0.16933,-0.16228 0.16227,-0.39511 0.007,-0.22578 -0.16227,-0.381 -0.16934,-0.16934 -0.40923,-0.16228 h -3.42194 l 0.254,-0.74789 h 3.3655 q 0.59972,-0.0353 1.02306,0.381 0.381,0.35278 0.381,0.87489 0.0212,0.57856 -0.38806,0.98778 -0.42333,0.41628 -1.016,0.38805 h -2.29306 q -0.23283,0 -0.40216,0.16228 -0.17639,0.14817 -0.17639,0.38806 v 0.43744 h 4.28272 z"
       id="text2"
       aria-label="Positron V3.2" /><path
       d="m 133.0577,172.82301 h -0.60113 v -2.07433 l -0.8128,0.24553 -0.15664,-0.44873 1.1684,-0.35983 h 0.40217 z m 2.71356,0 h -1.71027 q -0.30903,0.0127 -0.52493,-0.2032 -0.19897,-0.2032 -0.19473,-0.4826 -0.004,-0.27516 0.19473,-0.4699 0.0635,-0.0635 0.14817,-0.11006 l 0.1143,-0.0635 -0.11007,-0.0762 q -0.055,-0.0423 -0.10583,-0.0889 -0.1905,-0.19897 -0.18627,-0.47414 -0.004,-0.27939 0.1905,-0.47413 0.22437,-0.20743 0.52917,-0.19473 h 1.6002 q 0.30903,-0.0169 0.52916,0.19897 0.19474,0.19473 0.19474,0.47413 0.004,0.27516 -0.19474,0.47413 -0.0508,0.0466 -0.10583,0.0889 l -0.10583,0.0804 0.11853,0.0593 q 0.0804,0.0423 0.14393,0.10583 0.20744,0.1905 0.2032,0.4699 0,0.28364 -0.2032,0.4826 -0.22013,0.2159 -0.52493,0.2032 z m -0.23707,-1.15146 h -1.2319 q -0.1524,-0.004 -0.26246,0.1016 -0.0974,0.0974 -0.0974,0.23706 0,0.14394 0.0974,0.24554 0.10583,0.10583 0.25823,0.11006 h 1.24037 q 0.1524,0 0.26246,-0.10583 0.1016,-0.1016 0.0974,-0.24553 0.004,-0.14394 -0.1016,-0.24554 -0.11007,-0.10583 -0.26247,-0.0974 z m -0.0889,-1.06257 h -1.05833 q -0.14817,-0.008 -0.25823,0.0974 -0.0974,0.0974 -0.0974,0.23706 0,0.1397 0.0974,0.2413 0.11006,0.10584 0.25823,0.10584 h 1.05833 q 0.1524,0.004 0.25824,-0.1016 0.1016,-0.1016 0.1016,-0.2413 0.004,-0.14393 -0.1016,-0.2413 -0.10584,-0.10583 -0.25824,-0.0974 z m 3.56447,2.21403 h -1.29964 q -0.40639,0.0212 -0.69849,-0.25823 -0.25824,-0.2413 -0.25824,-0.59267 v -0.93556 q -0.004,-0.3556 0.25824,-0.5969 0.29633,-0.27517 0.69849,-0.254 h 1.29964 q 0.4064,-0.0212 0.70273,0.254 0.25823,0.23707 0.254,0.58843 v 0.9525 q 0,0.34713 -0.25823,0.5842 -0.2921,0.2794 -0.6985,0.25823 z m -0.19474,-2.18863 h -0.90593 q -0.22013,-0.004 -0.38947,0.13547 -0.16086,0.14816 -0.16086,0.36406 v 0.7239 q -0.008,0.22014 0.16086,0.36407 0.16934,0.1397 0.38947,0.13547 h 0.90593 q 0.22437,0.004 0.3937,-0.1397 0.1651,-0.14394 0.15664,-0.36407 v -0.71543 q 0.008,-0.22014 -0.15664,-0.3683 -0.16933,-0.14393 -0.3937,-0.13547 z m 3.81423,0.15664 -0.94403,1.01599 0.94403,1.016 h -0.64346 l -0.6223,-0.6731 -0.6223,0.6731 h -0.64347 l 0.94403,-1.016 -0.94403,-1.01599 h 0.64347 l 0.6223,0.66886 0.6223,-0.66886 z m 1.7653,2.03199 h -0.60113 v -2.07433 l -0.8128,0.24553 -0.15663,-0.44873 1.1684,-0.35983 h 0.40216 z m 2.71356,0 h -1.71026 q -0.30903,0.0127 -0.52493,-0.2032 -0.19897,-0.2032 -0.19474,-0.4826 -0.004,-0.27516 0.19474,-0.4699 0.0635,-0.0635 0.14816,-0.11006 l 0.1143,-0.0635 -0.11006,-0.0762 q -0.055,-0.0423 -0.10584,-0.0889 -0.1905,-0.19897 -0.18626,-0.47414 -0.004,-0.27939 0.1905,-0.47413 0.22436,-0.20743 0.52916,-0.19473 h 1.6002 q 0.30903,-0.0169 0.52917,0.19897 0.19473,0.19473 0.19473,0.47413 0.004,0.27516 -0.19473,0.47413 -0.0508,0.0466 -0.10584,0.0889 l -0.10583,0.0804 0.11853,0.0593 q 0.0804,0.0423 0.14394,0.10583 0.20743,0.1905 0.2032,0.4699 0,0.28364 -0.2032,0.4826 -0.22014,0.2159 -0.52494,0.2032 z m -0.23706,-1.15146 h -1.2319 q -0.1524,-0.004 -0.26247,0.1016 -0.0974,0.0974 -0.0974,0.23706 0,0.14394 0.0974,0.24554 0.10584,0.10583 0.25824,0.11006 h 1.24036 q 0.1524,0 0.26247,-0.10583 0.1016,-0.1016 0.0974,-0.24553 0.004,-0.14394 -0.1016,-0.24554 -0.11006,-0.10583 -0.26246,-0.0974 z m -0.0889,-1.06257 h -1.05833 q -0.14817,-0.008 -0.25824,0.0974 -0.0974,0.0974 -0.0974,0.23706 0,0.1397 0.0974,0.2413 0.11007,0.10584 0.25824,0.10584 h 1.05833 q 0.1524,0.004 0.25823,-0.1016 0.1016,-0.1016 0.1016,-0.2413 0.004,-0.14393 -0.1016,-0.2413 -0.10583,-0.10583 -0.25823,-0.0974 z m 3.56446,2.21403 h -1.29963 q -0.4064,0.0212 -0.6985,-0.25823 -0.25823,-0.2413 -0.25823,-0.59267 v -0.93556 q -0.004,-0.3556 0.25823,-0.5969 0.29633,-0.27517 0.6985,-0.254 h 1.29963 q 0.4064,-0.0212 0.70273,0.254 0.25824,0.23707 0.254,0.58843 v 0.9525 q 0,0.34713 -0.25823,0.5842 -0.2921,0.2794 -0.6985,0.25823 z m -0.19473,-2.18863 h -0.90593 q -0.22014,-0.004 -0.38947,0.13547 -0.16087,0.14816 -0.16087,0.36406 v 0.7239 q -0.008,0.22014 0.16087,0.36407 0.16933,0.1397 0.38947,0.13547 h 0.90593 q 0.22437,0.004 0.3937,-0.1397 0.1651,-0.14394 0.15663,-0.36407 v -0.71543 q 0.008,-0.22014 -0.15663,-0.3683 -0.16933,-0.14393 -0.3937,-0.13547 z m 3.81423,0.15664 -0.94404,1.01599 0.94404,1.016 h -0.64347 l -0.6223,-0.6731 -0.6223,0.6731 h -0.64347 l 0.94404,-1.016 -0.94404,-1.01599 h 0.64347 l 0.6223,0.66886 0.6223,-0.66886 z m 1.7653,2.03199 h -0.60113 v -2.07433 l -0.8128,0.24553 -0.15664,-0.44873 1.1684,-0.35983 h 0.40217 z m 2.63313,0 h -1.37584 q -0.4064,0.0212 -0.69849,-0.25823 -0.25824,-0.2413 -0.25824,-0.59267 v -0.93556 q -0.004,-0.3556 0.254,-0.5969 0.29633,-0.27517 0.69427,-0.254 h 1.9558 l -0.1524,0.44873 h -1.62984 q -0.22013,-0.0127 -0.381,0.1397 -0.1397,0.13547 -0.13546,0.33443 v 0.1778 h 1.7272 q 0.34713,-0.0127 0.5969,0.22437 0.23283,0.2159 0.23283,0.5334 0.004,0.32173 -0.23283,0.54187 -0.24554,0.254 -0.5969,0.23706 z m -1.7272,-1.08796 v 0.30903 q 0,0.127 0.0889,0.2159 0.1016,0.0931 0.2413,0.0974 h 1.29963 q 0.13547,0 0.23707,-0.0931 0.0889,-0.0931 0.0889,-0.22436 0,-0.12277 -0.0889,-0.2159 -0.0974,-0.0931 -0.23707,-0.0889 z m 4.83023,1.08796 h -2.16747 l 0.15664,-0.47413 h 1.91769 q 0.15664,0.004 0.2667,-0.10583 0.1016,-0.10584 0.1016,-0.24977 0,-0.14817 -0.1016,-0.24977 -0.11006,-0.11006 -0.2667,-0.10583 h -2.04046 v -1.45203 h 2.8448 l -0.15664,0.4445 h -2.09126 v 0.55033 l 1.5367,0.004 q 0.3683,-0.0169 0.635,0.23707 0.2413,0.23707 0.2413,0.5715 0.004,0.3429 -0.2413,0.5842 -0.26247,0.26247 -0.635,0.24553 z m 4.87256,-1.80763 q 0.23283,0.2032 0.23283,0.51647 v 1.29116 h -0.52493 v -1.21073 q 0.004,-0.17357 -0.12277,-0.2921 -0.127,-0.11853 -0.30056,-0.11007 h -0.4318 q -0.1524,0.004 -0.25824,0.1143 -0.1016,0.10584 -0.0974,0.25824 v 1.24036 h -0.52917 v -1.21073 q 0.008,-0.17357 -0.12276,-0.2921 -0.127,-0.11853 -0.30057,-0.11007 h -0.19473 q -0.254,0.004 -0.42757,0.18627 -0.17357,0.18203 -0.16933,0.43603 v 0.9906 h -0.52494 v -1.6129 l 0.52917,-0.41909 0.004,0.35983 0.0804,-0.11854 q 0.0635,-0.11006 0.17356,-0.17356 0.1143,-0.0635 0.2413,-0.0677 h 0.4445 q 0.3429,-0.0169 0.5715,0.23706 l 0.0593,0.0677 0.055,-0.072 q 0.0339,-0.055 0.0762,-0.0974 0.0466,-0.0423 0.0974,-0.072 0.055,-0.0296 0.1143,-0.0466 0.0635,-0.0169 0.127,-0.0169 h 0.64346 q 0.32597,-0.004 0.55457,0.22436 z m 4.26719,0 q 0.23284,0.2032 0.23284,0.51647 v 1.29116 h -0.52494 v -1.21073 q 0.004,-0.17357 -0.12276,-0.2921 -0.127,-0.11853 -0.30057,-0.11007 h -0.4318 q -0.1524,0.004 -0.25823,0.1143 -0.1016,0.10584 -0.0974,0.25824 v 1.24036 h -0.52917 v -1.21073 q 0.008,-0.17357 -0.12276,-0.2921 -0.127,-0.11853 -0.30057,-0.11007 h -0.19473 q -0.254,0.004 -0.42757,0.18627 -0.17356,0.18203 -0.16933,0.43603 v 0.9906 h -0.52493 v -1.6129 l 0.52916,-0.41909 0.004,0.35983 0.0804,-0.11854 q 0.0635,-0.11006 0.17357,-0.17356 0.1143,-0.0635 0.2413,-0.0677 h 0.4445 q 0.34289,-0.0169 0.57149,0.23706 l 0.0593,0.0677 0.055,-0.072 q 0.0339,-0.055 0.0762,-0.0974 0.0466,-0.0423 0.0974,-0.072 0.055,-0.0296 0.1143,-0.0466 0.0635,-0.0169 0.127,-0.0169 h 0.64347 q 0.32596,-0.004 0.55456,0.22436 z"
       id="text3"
       style="font-size:4.23333px;font-family:PROXON;-inkscape-font-specification:PROXON;fill:#b2b2b2;stroke-width:0.264583"
       aria-label="180x180x165mm" /></g></svg>
