<?xml version="1.0" encoding="UTF-8" standalone="no"?>
<svg
   xmlns:dc="http://purl.org/dc/elements/1.1/"
   xmlns:cc="http://creativecommons.org/ns#"
   xmlns:rdf="http://www.w3.org/1999/02/22-rdf-syntax-ns#"
   xmlns:svg="http://www.w3.org/2000/svg"
   xmlns="http://www.w3.org/2000/svg"
   xmlns:sodipodi="http://sodipodi.sourceforge.net/DTD/sodipodi-0.dtd"
   xmlns:inkscape="http://www.inkscape.org/namespaces/inkscape"
   width="230mm"
   height="250mm"
   viewBox="0 0 230 250"
   version="1.1"
   id="svg2523"
   inkscape:version="1.0.2-2 (e86c870879, 2021-01-15)"
   sodipodi:docname="A250_txt2.svg">
  <defs
     id="defs2517" />
  <sodipodi:namedview
     id="base"
     pagecolor="#656565"
     bordercolor="#666666"
     borderopacity="1.0"
     inkscape:pageopacity="0"
     inkscape:pageshadow="2"
     inkscape:zoom="0.7"
     inkscape:cx="-2.4622452"
     inkscape:cy="575.41592"
     inkscape:document-units="mm"
     inkscape:current-layer="layer1"
     inkscape:document-rotation="0"
     showgrid="true"
     inkscape:window-width="2560"
     inkscape:window-height="1377"
     inkscape:window-x="-8"
     inkscape:window-y="-8"
     inkscape:window-maximized="1">
    <inkscape:grid
       type="xygrid"
       id="grid3086" />
  </sodipodi:namedview>
  <metadata
     id="metadata2520">
    <rdf:RDF>
      <cc:Work
         rdf:about="">
        <dc:format>image/svg+xml</dc:format>
        <dc:type
           rdf:resource="http://purl.org/dc/dcmitype/StillImage" />
        <dc:title></dc:title>
      </cc:Work>
    </rdf:RDF>
  </metadata>
  <g
     inkscape:label="Layer 1"
     inkscape:groupmode="layer"
     id="layer1">
    <path
       style="fill:none;stroke:#000000;stroke-width:0.264583px;stroke-linecap:butt;stroke-linejoin:miter;stroke-opacity:1"
       d="M 10,0 V 250"
       id="path3088" />
    <path
       style="fill:none;stroke:#000000;stroke-width:0.264583px;stroke-linecap:butt;stroke-linejoin:miter;stroke-opacity:1"
       d="M 20,0 V 250"
       id="path3090" />
    <path
       style="fill:none;stroke:#000000;stroke-width:0.264583px;stroke-linecap:butt;stroke-linejoin:miter;stroke-opacity:1"
       d="M 30,0 V 250"
       id="path3092" />
    <path
       style="fill:none;stroke:#000000;stroke-width:0.264583px;stroke-linecap:butt;stroke-linejoin:miter;stroke-opacity:1"
       d="M 39.999999,0 V 250"
       id="path3094" />
    <path
       style="fill:none;stroke:#000000;stroke-width:0.264583px;stroke-linecap:butt;stroke-linejoin:miter;stroke-opacity:1"
       d="M 50,0 V 250"
       id="path3096" />
    <path
       style="fill:none;stroke:#000000;stroke-width:0.264583px;stroke-linecap:butt;stroke-linejoin:miter;stroke-opacity:1"
       d="M 59.999998,0 V 250"
       id="path3098" />
    <path
       style="fill:none;stroke:#000000;stroke-width:0.264583px;stroke-linecap:butt;stroke-linejoin:miter;stroke-opacity:1"
       d="M 69.999999,0 V 250"
       id="path3100" />
    <path
       style="fill:none;stroke:#000000;stroke-width:0.264583px;stroke-linecap:butt;stroke-linejoin:miter;stroke-opacity:1"
       d="M 79.999998,0 V 250"
       id="path3102" />
    <path
       style="fill:none;stroke:#000000;stroke-width:0.264583px;stroke-linecap:butt;stroke-linejoin:miter;stroke-opacity:1"
       d="M 89.999999,0 V 250"
       id="path3104" />
    <path
       style="fill:none;stroke:#000000;stroke-width:0.264583px;stroke-linecap:butt;stroke-linejoin:miter;stroke-opacity:1"
       d="M 100,0 V 250"
       id="path3106" />
    <path
       style="fill:none;stroke:#000000;stroke-width:0.264583px;stroke-linecap:butt;stroke-linejoin:miter;stroke-opacity:1"
       d="M 110,0 V 250"
       id="path3108" />
    <path
       style="fill:none;stroke:#000000;stroke-width:0.264583px;stroke-linecap:butt;stroke-linejoin:miter;stroke-opacity:1"
       d="M 120,0 V 250"
       id="path3110" />
    <path
       style="fill:none;stroke:#000000;stroke-width:0.264583px;stroke-linecap:butt;stroke-linejoin:miter;stroke-opacity:1"
       d="M 130,0 V 250"
       id="path3112" />
    <path
       style="fill:none;stroke:#000000;stroke-width:0.264583px;stroke-linecap:butt;stroke-linejoin:miter;stroke-opacity:1"
       d="M 140,0 V 250"
       id="path3114" />
    <path
       style="fill:none;stroke:#000000;stroke-width:0.248201px;stroke-linecap:butt;stroke-linejoin:miter;stroke-opacity:1"
       d="m 150,0 v 220 0 0 0"
       id="path3116" />
    <path
       style="fill:none;stroke:#000000;stroke-width:0.248201px;stroke-linecap:butt;stroke-linejoin:miter;stroke-opacity:1"
       d="M 160,0 V 220"
       id="path3118" />
    <path
       style="fill:none;stroke:#000000;stroke-width:0.248201px;stroke-linecap:butt;stroke-linejoin:miter;stroke-opacity:1"
       d="M 170,0 V 220"
       id="path3120" />
    <path
       style="fill:none;stroke:#000000;stroke-width:0.248201px;stroke-linecap:butt;stroke-linejoin:miter;stroke-opacity:1"
       d="M 180,0 V 220"
       id="path3122" />
    <path
       style="fill:none;stroke:#000000;stroke-width:0.248201px;stroke-linecap:butt;stroke-linejoin:miter;stroke-opacity:1"
       d="M 190,0 V 220"
       id="path3124" />
    <path
       style="fill:none;stroke:#000000;stroke-width:0.248201px;stroke-linecap:butt;stroke-linejoin:miter;stroke-opacity:1"
       d="M 200,0 V 220"
       id="path3126" />
    <path
       style="fill:none;stroke:#000000;stroke-width:0.248201px;stroke-linecap:butt;stroke-linejoin:miter;stroke-opacity:1"
       d="M 210,0 V 220"
       id="path3128" />
    <path
       style="fill:none;stroke:#000000;stroke-width:0.264583px;stroke-linecap:butt;stroke-linejoin:miter;stroke-opacity:1"
       d="M 220,0 V 250"
       id="path3130" />
    <path
       style="fill:none;stroke:#000000;stroke-width:0.264583px;stroke-linecap:butt;stroke-linejoin:miter;stroke-opacity:1"
       d="M 230,10 H 0"
       id="path3132" />
    <path
       style="fill:none;stroke:#000000;stroke-width:0.264583px;stroke-linecap:butt;stroke-linejoin:miter;stroke-opacity:1"
       d="M 0,20 H 230"
       id="path3134" />
    <path
       style="fill:none;stroke:#000000;stroke-width:0.264583px;stroke-linecap:butt;stroke-linejoin:miter;stroke-opacity:1"
       d="M 230,30 H 0"
       id="path3136" />
    <path
       style="fill:none;stroke:#000000;stroke-width:0.264583px;stroke-linecap:butt;stroke-linejoin:miter;stroke-opacity:1"
       d="M 0,39.999999 H 230"
       id="path3138" />
    <path
       style="fill:none;stroke:#000000;stroke-width:0.264583px;stroke-linecap:butt;stroke-linejoin:miter;stroke-opacity:1"
       d="M 230,50 H 0"
       id="path3140" />
    <path
       style="fill:none;stroke:#000000;stroke-width:0.264583px;stroke-linecap:butt;stroke-linejoin:miter;stroke-opacity:1"
       d="M 0,59.999998 H 230"
       id="path3142" />
    <path
       style="fill:none;stroke:#000000;stroke-width:0.264583px;stroke-linecap:butt;stroke-linejoin:miter;stroke-opacity:1"
       d="M 230,69.999999 H 0"
       id="path3144" />
    <path
       style="fill:none;stroke:#000000;stroke-width:0.264583px;stroke-linecap:butt;stroke-linejoin:miter;stroke-opacity:1"
       d="M 0,79.999998 H 230"
       id="path3146" />
    <path
       style="fill:none;stroke:#000000;stroke-width:0.264583px;stroke-linecap:butt;stroke-linejoin:miter;stroke-opacity:1"
       d="M 230,89.999999 H 0"
       id="path3148" />
    <path
       style="fill:none;stroke:#000000;stroke-width:0.264583px;stroke-linecap:butt;stroke-linejoin:miter;stroke-opacity:1"
       d="M 0,100 H 230"
       id="path3150" />
    <path
       style="fill:none;stroke:#000000;stroke-width:0.264583px;stroke-linecap:butt;stroke-linejoin:miter;stroke-opacity:1"
       d="M 230,110 H 0"
       id="path3152" />
    <path
       style="fill:none;stroke:#000000;stroke-width:0.264583px;stroke-linecap:butt;stroke-linejoin:miter;stroke-opacity:1"
       d="M 0,120 H 230"
       id="path3154" />
    <path
       style="fill:none;stroke:#000000;stroke-width:0.264583px;stroke-linecap:butt;stroke-linejoin:miter;stroke-opacity:1"
       d="M 230,130 H 0"
       id="path3156" />
    <path
       style="fill:none;stroke:#000000;stroke-width:0.264583px;stroke-linecap:butt;stroke-linejoin:miter;stroke-opacity:1"
       d="M 0,140 H 230"
       id="path3158" />
    <path
       style="fill:none;stroke:#000000;stroke-width:0.264583px;stroke-linecap:butt;stroke-linejoin:miter;stroke-opacity:1"
       d="M 230,150 H 0"
       id="path3160" />
    <path
       style="fill:none;stroke:#000000;stroke-width:0.264583px;stroke-linecap:butt;stroke-linejoin:miter;stroke-opacity:1"
       d="M 0,160 H 230"
       id="path3162" />
    <path
       style="fill:none;stroke:#000000;stroke-width:0.264583px;stroke-linecap:butt;stroke-linejoin:miter;stroke-opacity:1"
       d="M 230,170 H 0"
       id="path3164" />
    <path
       style="fill:none;stroke:#000000;stroke-width:0.264583px;stroke-linecap:butt;stroke-linejoin:miter;stroke-opacity:1"
       d="M 0,180 H 230"
       id="path3166" />
    <path
       style="fill:none;stroke:#000000;stroke-width:0.264583px;stroke-linecap:butt;stroke-linejoin:miter;stroke-opacity:1"
       d="M 230,190 H 0"
       id="path3168" />
    <path
       style="fill:none;stroke:#000000;stroke-width:0.264583px;stroke-linecap:butt;stroke-linejoin:miter;stroke-opacity:1"
       d="M 0,200 H 230"
       id="path3170" />
    <path
       style="fill:none;stroke:#000000;stroke-width:0.264583px;stroke-linecap:butt;stroke-linejoin:miter;stroke-opacity:1"
       d="M 230,210 H 0"
       id="path3172" />
    <path
       style="fill:none;stroke:#000000;stroke-width:0.264583px;stroke-linecap:butt;stroke-linejoin:miter;stroke-opacity:1"
       d="M 0,220 H 230"
       id="path3174" />
    <path
       style="fill:none;stroke:#000000;stroke-width:0.206425px;stroke-linecap:butt;stroke-linejoin:miter;stroke-opacity:1"
       d="M 140,230 H 0"
       id="path3176" />
    <path
       style="fill:none;stroke:#000000;stroke-width:0.264583px;stroke-linecap:butt;stroke-linejoin:miter;stroke-opacity:1"
       d="M 0,240 H 230"
       id="path3178" />
    <path
       id="path24"
       d="m 168.42094,235.79203 c 0.002,-1.16876 0.0188,-3.05571 0.0362,-4.19322 l 0.0317,-2.06819 0.14795,-0.43182 c 0.34808,-1.01595 1.00621,-1.77455 1.9469,-2.24411 1.08765,-0.54292 2.47976,-0.51097 3.53148,0.0811 0.91623,0.51575 1.60811,1.43488 1.85066,2.45851 0.0817,0.34483 0.0937,0.50548 0.0763,1.02273 -0.018,0.53754 -0.0385,0.66643 -0.16492,1.03932 -0.4289,1.26507 -1.43216,2.20276 -2.71076,2.5336 -0.47711,0.12346 -1.38738,0.11546 -1.84804,-0.0163 -0.45847,-0.13107 -0.80933,-0.28918 -1.13494,-0.51143 -0.14631,-0.0999 -0.27647,-0.18159 -0.28925,-0.18159 -0.0128,0 -0.0233,1.04319 -0.0233,2.3182 v 2.3182 h -0.72727 -0.72728 z m 4.36702,-3.21363 c 1.29236,-0.27391 2.11301,-1.58733 1.78432,-2.85577 -0.20729,-0.79997 -0.77049,-1.40779 -1.55284,-1.67587 -0.38842,-0.13309 -1.08053,-0.14481 -1.46665,-0.0248 -0.98203,0.30511 -1.63822,1.21669 -1.6357,2.2723 0.004,1.52311 1.36208,2.60395 2.87087,2.28418 z m -9.44878,1.51979 c -0.85514,-0.11774 -1.56347,-0.45751 -2.1654,-1.03867 -1.08488,-1.04743 -1.46176,-2.5895 -0.9825,-4.02001 0.20475,-0.6111 0.44701,-0.99106 0.94758,-1.48617 0.70132,-0.69366 1.44658,-1.02618 2.41388,-1.07701 0.84825,-0.0446 1.60292,0.1435 2.22925,0.55556 l 0.36167,0.23795 v -0.29625 -0.29626 l 0.21089,0.0289 c 0.11599,0.0159 0.4535,0.0289 0.75001,0.0289 h 0.53911 v 3.65912 3.65911 h -0.75 -0.75001 v -0.38232 -0.38233 l -0.30682,0.20594 c -0.39328,0.26398 -0.68701,0.39278 -1.1568,0.50725 -0.45945,0.11196 -0.96395,0.14818 -1.34086,0.0963 z m 1.21574,-1.58204 c 0.42578,-0.14847 0.64362,-0.28198 0.93425,-0.57261 0.73206,-0.73205 0.88075,-1.85056 0.37319,-2.80729 -0.3666,-0.69102 -1.25823,-1.21823 -2.05962,-1.21781 -0.32442,1.3e-4 -0.82084,0.11454 -1.11285,0.25642 -0.31191,0.15153 -0.81226,0.64216 -0.96769,0.94889 -0.36823,0.72668 -0.36842,1.5867 -4.6e-4,2.31275 0.25453,0.50229 0.92655,1.0056 1.52479,1.142 0.36457,0.0831 0.97465,0.054 1.30844,-0.0623 z m 28.31895,1.58115 c -1.59626,-0.21978 -2.87943,-1.39476 -3.25826,-2.98354 -0.11003,-0.46144 -0.0994,-1.25729 0.0233,-1.74082 0.31382,-1.23695 1.22314,-2.25196 2.40218,-2.68135 1.04497,-0.38058 2.27956,-0.27571 3.2158,0.27316 0.38523,0.22584 0.64332,0.43287 0.98869,0.79313 l 0.26146,0.27273 4.6e-4,-0.67046 4.7e-4,-0.67046 h 0.34091 0.34091 v 3.70457 3.70457 h -0.34092 -0.34091 l -8e-4,-0.78409 -8e-4,-0.7841 -0.2148,0.2471 c -0.30962,0.35618 -0.8241,0.74895 -1.25234,0.95608 -0.63306,0.3062 -1.51029,0.45353 -2.16428,0.36348 z m 1.44428,-0.82845 c 1.70564,-0.60438 2.5922,-2.47382 1.96258,-4.1384 -0.41929,-1.10857 -1.53986,-1.90535 -2.77326,-1.97192 -0.57078,-0.0308 -0.99134,0.0596 -1.54206,0.33151 -0.7277,0.35928 -1.35846,1.0827 -1.60089,1.83603 -0.13473,0.41865 -0.16473,1.15673 -0.0652,1.60409 0.25347,1.1393 1.21301,2.13708 2.3238,2.41643 0.43556,0.10953 1.2752,0.071 1.69502,-0.0777 z m 17.59838,0.83756 c -0.0616,-0.0206 -0.06,-3.98137 0.002,-4.3615 0.28333,-1.74597 1.70617,-3.12714 3.36389,-3.26539 l 0.3618,-0.0301 4.7e-4,0.17699 c 4.6e-4,0.0974 0.0131,0.2537 0.0287,0.34744 l 0.0282,0.17046 -0.1764,7e-4 c -0.3156,0.002 -0.8056,0.13019 -1.14321,0.30047 -0.64558,0.32559 -1.34736,1.04817 -1.55801,1.60419 -0.21022,0.55488 -0.2252,0.75188 -0.2252,2.96119 0,1.14837 -0.0153,2.08888 -0.0341,2.09002 -0.23232,0.0141 -0.61252,0.0174 -0.64788,0.006 z m -65.38663,-0.0745 c -0.72911,-0.11627 -1.93183,-0.51969 -1.93183,-0.64798 0,-0.0924 0.40335,-1.01731 0.48309,-1.10777 0.0584,-0.0663 0.0965,-0.0612 0.42721,0.0558 0.47779,0.16907 1.46869,0.31205 2.1579,0.31136 0.89459,-8e-4 1.48122,-0.17742 1.81413,-0.54591 0.18732,-0.20734 0.20662,-0.35526 0.0712,-0.54551 -0.19095,-0.26816 -0.59458,-0.39126 -1.86255,-0.56808 -1.26288,-0.17609 -2.10326,-0.50094 -2.66299,-1.02937 -0.41941,-0.39596 -0.60064,-0.90718 -0.51452,-1.45137 0.14735,-0.93096 0.89044,-1.59767 2.15516,-1.93361 0.4103,-0.10899 0.53537,-0.12094 1.29508,-0.1238 0.62759,-0.002 0.95622,0.0179 1.29546,0.0796 0.72272,0.1315 1.6591,0.45444 1.6591,0.57219 0,0.11155 -0.474,1.18328 -0.52333,1.18328 -0.0311,0 -0.13237,-0.0317 -0.22512,-0.0704 -0.27817,-0.11622 -0.96368,-0.24286 -1.60911,-0.29725 -0.6642,-0.0559 -1.38638,-0.008 -1.81968,0.12055 -0.45859,0.13619 -0.69005,0.47798 -0.53141,0.78475 0.17627,0.34088 0.6725,0.53774 1.8576,0.73697 1.0646,0.17897 1.39166,0.25428 1.76616,0.40668 0.4398,0.17897 0.7143,0.35103 0.95611,0.5993 0.70179,0.7205 0.64837,1.78391 -0.12841,2.55653 -0.4063,0.40411 -1.17879,0.77644 -1.89455,0.91312 -0.43896,0.0838 -1.71184,0.0844 -2.23465,8e-4 z m 5.31825,-1.85348 c 0.0314,-2.45579 0.0338,-2.48813 0.22578,-3.06186 0.49245,-1.47167 1.4797,-2.31783 3.01879,-2.58737 1.92387,-0.33693 3.6945,0.79744 4.253,2.72472 l 0.11608,0.40057 v 2.22221 2.2222 h -0.70455 -0.70455 l -8e-4,-2.07956 c -8e-4,-2.03186 -0.003,-2.0864 -0.1028,-2.37765 -0.351,-1.02959 -1.28295,-1.72465 -2.31245,-1.72465 -0.64765,0 -1.07187,0.16842 -1.52837,0.60677 -0.40568,0.38955 -0.61451,0.72199 -0.73572,1.17118 -0.10001,0.37063 -0.10119,0.40796 -0.0761,2.39021 l 0.0255,2.0137 h -0.74901 -0.74901 z m 25.506,-0.59092 c 0.0267,-2.64796 0.0386,-2.80394 0.25249,-3.30341 0.14047,-0.32803 0.47636,-0.79852 0.74599,-1.04494 0.52672,-0.4814 1.14947,-0.7254 1.95032,-0.76416 0.59187,-0.0286 1.01607,0.0654 1.54305,0.34217 0.37695,0.19797 0.88401,0.65855 1.10675,1.00531 0.13369,0.20814 0.16607,0.23523 0.20871,0.17465 0.49457,-0.70247 0.79097,-0.97352 1.3521,-1.23653 1.62951,-0.76376 3.56573,0.005 4.13362,1.64119 0.21543,0.62068 0.22391,0.74522 0.22391,3.29097 v 2.40614 h -0.36364 -0.36365 v -2.49177 c 0,-2.72222 0.002,-2.69047 -0.27305,-3.23554 -0.4439,-0.87751 -1.52675,-1.3772 -2.52773,-1.16645 -0.8277,0.17427 -1.42131,0.70062 -1.74837,1.55028 l -0.12346,0.32071 -0.0174,2.46356 c -0.01,1.35495 -0.0338,2.47996 -0.0539,2.50001 -0.02,0.02 -0.17281,0.0365 -0.3395,0.0365 h -0.30305 l -0.0228,-2.54548 c -0.0222,-2.48487 -0.0251,-2.55178 -0.12288,-2.81058 -0.1531,-0.40527 -0.30165,-0.62912 -0.60212,-0.90731 -0.75418,-0.69823 -1.81215,-0.86005 -2.69635,-0.41241 -0.29403,0.14886 -0.83394,0.68818 -0.99842,0.99732 -0.25692,0.4829 -0.26208,0.54667 -0.26208,3.23345 v 2.46774 h -0.36199 -0.36198 z m 20.97154,-3.23865 v -5.75004 h 0.34091 0.34091 v 3.84094 c 0,2.11251 0.0154,3.84028 0.0341,3.83948 0.0188,-7e-4 0.90341,-0.85949 1.96591,-1.9082 l 1.93183,-1.90673 0.50001,0.002 0.50001,0.002 -1.93184,1.90766 -1.93183,1.90765 1.90701,1.87855 1.90701,1.87855 -0.44192,0.0325 -0.44193,0.0325 -0.2378,-0.20562 c -0.13079,-0.11309 -0.89217,-0.86058 -1.69195,-1.6611 l -1.45415,-1.45547 -0.2845,0.28197 -0.2845,0.28198 v 0.6604 c 0,0.36323 -0.0135,0.98257 -0.0298,1.37632 l -0.0297,0.71592 h -0.3338 -0.3338 v -5.75004 z m 8.34096,5.68441 c -0.43671,-0.10244 -0.79492,-0.24188 -1.12485,-0.43789 -0.85752,-0.50944 -1.39832,-1.1812 -1.72135,-2.13817 -0.27023,-0.80055 -0.23011,-1.81633 0.10342,-2.61835 0.44833,-1.07806 1.44637,-1.96129 2.56096,-2.26632 0.40391,-0.11055 1.23792,-0.13546 1.68821,-0.0504 0.87149,0.16456 1.67835,0.63549 2.2278,1.30029 0.23106,0.27957 0.56033,0.84216 0.51488,0.87973 -0.0119,0.01 -0.31836,0.18783 -0.68086,0.39542 -0.62801,0.35964 -2.15524,1.2388 -4.26139,2.45312 -0.55893,0.32224 -0.96591,0.58472 -0.96591,0.62294 0,0.0363 0.14829,0.21356 0.32954,0.39386 0.56464,0.56166 1.21856,0.82025 2.07956,0.82237 1.24756,0.003 2.2854,-0.61448 2.78745,-1.6586 0.11314,-0.23529 0.23931,-0.55053 0.28039,-0.70053 l 0.0747,-0.27273 0.36575,-0.19289 0.36576,-0.19288 -0.0307,0.26107 c -0.0558,0.47446 -0.16642,0.84632 -0.38884,1.30652 -0.47499,0.98286 -1.33503,1.71112 -2.3979,2.0305 -0.40341,0.12121 -1.40892,0.15627 -1.80664,0.063 z m -0.99491,-3.12269 c 0.57221,-0.32856 1.59264,-0.91522 2.26764,-1.30368 0.67501,-0.38848 1.39858,-0.80333 1.60794,-0.92191 0.20936,-0.11858 0.40014,-0.23509 0.42395,-0.25891 0.0555,-0.0555 -0.56911,-0.61026 -0.94167,-0.83658 -0.86939,-0.52813 -2.01239,-0.58872 -2.91303,-0.15443 -0.80003,0.38577 -1.38778,1.07683 -1.66316,1.95547 -0.1148,0.36633 -0.1565,1.07541 -0.0849,1.44421 0.0514,0.26466 0.19936,0.67322 0.24386,0.67322 0.0105,0 0.48718,-0.26882 1.05938,-0.59739 z"
       style="fill:#ffffff;fill-opacity:1;stroke-width:0.0454548" />
    <path
       style="fill:none;stroke:#000000;stroke-width:0.264583px;stroke-linecap:butt;stroke-linejoin:miter;stroke-opacity:1"
       d="m 150,250 c 0,-10 0,-10 0,-10"
       id="path3200" />
    <path
       style="fill:none;stroke:#000000;stroke-width:0.264583px;stroke-linecap:butt;stroke-linejoin:miter;stroke-opacity:1"
       d="m 160,250 c 0,-10 0,-10 0,-10"
       id="path3202" />
    <path
       style="fill:none;stroke:#000000;stroke-width:0.264583px;stroke-linecap:butt;stroke-linejoin:miter;stroke-opacity:1"
       d="m 170,250 c 0,-10 0,-10 0,-10"
       id="path3204" />
    <path
       style="fill:none;stroke:#000000;stroke-width:0.264583px;stroke-linecap:butt;stroke-linejoin:miter;stroke-opacity:1"
       d="m 180,250 c 0,-10 0,-10 0,-10"
       id="path3206" />
    <path
       style="fill:none;stroke:#000000;stroke-width:0.264583px;stroke-linecap:butt;stroke-linejoin:miter;stroke-opacity:1"
       d="m 190,250 c 0,-10 0,-10 0,-10"
       id="path3208" />
    <path
       style="fill:none;stroke:#000000;stroke-width:0.264583px;stroke-linecap:butt;stroke-linejoin:miter;stroke-opacity:1"
       d="m 200,250 c 0,-10 0,-10 0,-10"
       id="path3210" />
    <path
       style="fill:none;stroke:#000000;stroke-width:0.264583px;stroke-linecap:butt;stroke-linejoin:miter;stroke-opacity:1"
       d="m 210,250 c 0,-10 0,-10 0,-10"
       id="path3212" />
    <path
       style="fill:none;stroke:#000000;stroke-width:0.264583px;stroke-linecap:butt;stroke-linejoin:miter;stroke-opacity:1"
       d="m 220,230 h 10 v 0 0"
       id="path3216" />
  </g>
</svg>
