<?xml version="1.0" encoding="UTF-8"?>
<svg width="324px" height="200px" viewBox="0 0 324 200" version="1.1" xmlns="http://www.w3.org/2000/svg" xmlns:xlink="http://www.w3.org/1999/xlink">
    <title>J1_texture</title>
    <g id="Page-1" stroke="none" stroke-width="1" fill="none" fill-rule="evenodd">
        <g id="J1_texture">
            <g id="g15076" transform="translate(9.500000, 0.000000)">
                <line x1="150.5" y1="10" x2="150.5" y2="200" id="path15048" stroke="#0066FF" stroke-width="0.258" fill="#00112B" fill-rule="nonzero" stroke-dasharray="1.548,0.258"></line>
                <line x1="140.5" y1="0" x2="140.5" y2="190" id="path15046" stroke="#FF0000" stroke-width="0.265" stroke-dasharray="1.59,0.265"></line>
                <g id="text16399" transform="translate(133.563550, 193.575880)" fill="#FF0000" fill-rule="nonzero">
                    <polygon id="path17403" points="2.84217094e-14 0.04651 0.51849 0.04651 1.17478 1.79662 1.83451 0.04651 2.353 0.04651 2.353 2.61827 2.01366 2.61827 2.01366 0.36001 1.35048 2.1239 1.0008 2.1239 0.33762 0.36001 0.33762 2.61827 5.68434189e-14 2.61827"></polygon>
                    <polygon id="path17405" points="3.04374 0.04651 3.3917 0.04651 3.3917 2.61827 3.04374 2.61827"></polygon>
                    <path d="M5.30373,1.41249 C5.37837,1.43775667 5.45071667,1.49173 5.52077,1.57441 C5.59196333,1.65709 5.66316,1.77077667 5.73436,1.91547 L6.08749,2.61828 L5.71369,2.61828 L5.38469,1.95854 C5.29971,1.78628 5.21702667,1.67201667 5.13664,1.61575 C5.0574,1.55948333 4.94888,1.53135 4.81108,1.53135 L4.43212,1.53135 L4.43212,2.61828 L4.08416,2.61828 L4.08416,0.04652 L4.86964,0.04652 C5.16362667,0.04652 5.38296667,0.107956667 5.52766,0.23083 C5.67235333,0.353703333 5.7447,0.539163333 5.7447,0.78721 C5.7447,0.94913 5.70680333,1.08349 5.63101,1.19029 C5.55636333,1.29709 5.44727,1.37116 5.30373,1.4125 L5.30373,1.41249 Z M4.43212,0.33245 L4.43212,1.2454 L4.86964,1.2454 C5.03730667,1.2454 5.16362667,1.20693 5.2486,1.12999 C5.33473333,1.05190333 5.3778,0.93764 5.3778,0.7872 C5.3778,0.636766667 5.33473333,0.523653333 5.2486,0.44786 C5.16362667,0.37092 5.03730667,0.33245 4.86964,0.33245 L4.43212,0.33245 Z" id="path17407"></path>
                    <path d="M7.75491,1.41249 C7.82955667,1.43775667 7.90190333,1.49173 7.97195,1.57441 C8.04315,1.65709 8.11435,1.77077667 8.18555,1.91547 L8.53867,2.61828 L8.16488,2.61828 L7.83587,1.95854 C7.75089,1.78628 7.66821,1.67201667 7.58783,1.61575 C7.50859,1.55948333 7.40006667,1.53135 7.26226,1.53135 L6.8833,1.53135 L6.8833,2.61828 L6.53535,2.61828 L6.53535,0.04652 L7.32083,0.04652 C7.61481,0.04652 7.83414667,0.107956667 7.97884,0.23083 C8.12354,0.353703333 8.19589,0.539163333 8.19589,0.78721 C8.19589,0.94913 8.15799333,1.08349 8.0822,1.19029 C8.00755333,1.29709 7.89845667,1.37116 7.75491,1.4125 L7.75491,1.41249 Z M6.8833,0.33245 L6.8833,1.2454 L7.32083,1.2454 C7.48849,1.2454 7.61481,1.20693 7.69979,1.12999 C7.78591667,1.05190333 7.82898,0.93764 7.82898,0.7872 C7.82898,0.636766667 7.78591667,0.523653333 7.69979,0.44786 C7.61481,0.37092 7.48849,0.33245 7.32083,0.33245 L6.8833,0.33245 Z" id="path17409"></path>
                    <path d="M10.0304,0.2825 C9.77776,0.2825 9.57679667,0.376663333 9.42751,0.56499 C9.27937,0.753323333 9.2053,1.00998333 9.2053,1.33497 C9.2053,1.65881 9.27937,1.91489667 9.42751,2.10323 C9.57679667,2.29156333 9.77776,2.38573 10.0304,2.38573 C10.28304,2.38573 10.4828567,2.29156333 10.62985,2.10323 C10.77799,1.91489667 10.85206,1.65881 10.85206,1.33497 C10.85206,1.00998333 10.77799,0.753323333 10.62985,0.56499 C10.4828567,0.376663333 10.28304,0.2825 10.0304,0.2825 Z M10.0304,0 C10.3909867,0 10.6792267,0.121153333 10.89512,0.36346 C11.1110133,0.604613333 11.21896,0.92845 11.21896,1.33497 C11.21896,1.74034333 11.1110133,2.06418333 10.89512,2.30649 C10.6792267,2.54765 10.3909867,2.66823 10.0304,2.66823 C9.66866667,2.66823 9.37928,2.54765 9.16224,2.30649 C8.94634667,2.06533667 8.8384,1.74149667 8.8384,1.33497 C8.8384,0.92845 8.94634667,0.604613333 9.16224,0.36346 C9.37928,0.121153333 9.66866667,0 10.0304,0 Z" id="path17411"></path>
                    <path d="M12.98285,1.41249 C13.05749,1.43775667 13.1298367,1.49173 13.19989,1.57441 C13.27109,1.65709 13.34229,1.77077667 13.41349,1.91547 L13.76661,2.61828 L13.39282,2.61828 L13.06381,1.95854 C12.97883,1.78628 12.8961467,1.67201667 12.81576,1.61575 C12.7365267,1.55948333 12.6280067,1.53135 12.4902,1.53135 L12.11124,1.53135 L12.11124,2.61828 L11.76328,2.61828 L11.76328,0.04652 L12.54877,0.04652 C12.84275,0.04652 13.0620867,0.107956667 13.20678,0.23083 C13.3514733,0.353703333 13.42382,0.539163333 13.42382,0.78721 C13.42382,0.94913 13.3859233,1.08349 13.31013,1.19029 C13.23549,1.29709 13.1263967,1.37116 12.98285,1.4125 L12.98285,1.41249 Z M12.11124,0.33245 L12.11124,1.2454 L12.54877,1.2454 C12.71643,1.2454 12.84275,1.20693 12.92773,1.12999 C13.0138567,1.05190333 13.05692,0.93764 13.05692,0.7872 C13.05692,0.636766667 13.0138567,0.523653333 12.92773,0.44786 C12.84275,0.37092 12.71643,0.33245 12.54877,0.33245 L12.11124,0.33245 Z" id="path17413"></path>
                </g>
                <g id="text16407" transform="translate(146.122500, 3.496344)" fill="#0066FF" fill-rule="nonzero">
                    <path d="M2.07395,0.2446022 L2.07395,0.6115051 C1.95681667,0.5024103 1.83164333,0.4208763 1.69843,0.3669031 C1.56637,0.312929767 1.42569667,0.2859431 1.27641,0.2859431 C0.98243,0.2859431 0.75735,0.3760898 0.60117,0.5563832 C0.44499,0.735528267 0.3669,0.995058967 0.3669,1.3349753 C0.3669,1.67374323 0.44499,1.93327393 0.60117,2.1135674 C0.75735,2.29271247 0.98243,2.382285 1.27641,2.382285 C1.42569667,2.382285 1.56637,2.35529833 1.69843,2.301325 C1.83164333,2.24735167 1.95681667,2.1658177 2.07395,2.0567231 L2.07395,2.4201809 C1.95222333,2.50286323 1.82303333,2.564875 1.68638,2.6062162 C1.55087333,2.64755753 1.40732667,2.6682282 1.25574,2.6682282 C0.866446667,2.6682282 0.559833333,2.54937233 0.3359,2.3116606 C0.111966667,2.07280047 0,1.74723873 0,1.3349754 C0,0.921563667 0.111966667,0.596001933 0.3359,0.3582902 C0.559833333,0.119430067 0.866446667,-4.4408921e-16 1.25574,-4.4408921e-16 C1.40962,-4.4408921e-16 1.55431333,0.0206706667 1.68982,0.062012 C1.82647333,0.102204667 1.95451667,0.163068067 2.07395,0.2446022 L2.07395,0.2446022 Z" id="path17394"></path>
                    <path d="M3.65525,0.2824983 C3.40261,0.2824983 3.20164667,0.3766643 3.05236,0.5649963 C2.90422,0.7533283 2.83015,1.00998807 2.83015,1.3349756 C2.83015,1.6588148 2.90422,1.9149004 3.05236,2.1032324 C3.20164667,2.2915644 3.40261,2.3857304 3.65525,2.3857304 C3.90789,2.3857304 4.10770667,2.2915644 4.2547,2.1032324 C4.40284,1.9149004 4.47691,1.6588148 4.47691,1.3349756 C4.47691,1.00998807 4.40284,0.7533283 4.2547,0.5649963 C4.10770667,0.3766643 3.90789,0.2824983 3.65525,0.2824983 Z M3.65525,2e-07 C4.01583667,2e-07 4.30407667,0.1211528 4.51997,0.363458 C4.73586333,0.604614867 4.84381,0.928454067 4.84381,1.3349756 C4.84381,1.7403488 4.73586333,2.064188 4.51997,2.3064932 C4.30407667,2.54765 4.01583667,2.6682284 3.65525,2.6682284 C3.29351667,2.6682284 3.00413,2.54765 2.78709,2.3064932 C2.57119667,2.06533633 2.46325,1.74149713 2.46325,1.3349756 C2.46325,0.928454067 2.57119667,0.604614867 2.78709,0.363458 C3.00413,0.1211528 3.29351667,2e-07 3.65525,2e-07 Z" id="path17396"></path>
                    <path d="M5.73609,0.3324522 L5.73609,1.2988021 L6.17362,1.2988021 C6.33554,1.2988021 6.46071,1.25688673 6.54913,1.173056 C6.63755667,1.08922527 6.68177,0.9697952 6.68177,0.8147658 C6.68177,0.6608848 6.63755667,0.542028933 6.54913,0.4581982 C6.46071,0.374367533 6.33554,0.3324522 6.17362,0.3324522 L5.73609,0.3324522 Z M5.38813,0.0465091 L6.17362,0.0465091 C6.46186,0.0465091 6.67947333,0.111965933 6.82646,0.2428796 C6.9746,0.372645 7.04867,0.563273733 7.04867,0.8147658 C7.04867,1.06855467 6.9746,1.2603318 6.82646,1.3900972 C6.67947333,1.51986253 6.46186,1.5847452 6.17362,1.5847452 L5.73609,1.5847452 L5.73609,2.6182745 L5.38813,2.6182745 L5.38813,0.0465091 Z" id="path17398"></path>
                    <polygon id="path17400" points="7.08484 0.0465091 7.45864 0.0465091 8.17177 1.1041541 8.87974 0.0465091 9.25353 0.0465091 8.34403 1.3935423 8.34403 2.6182745 7.99435 2.6182745 7.99435 1.3935423"></polygon>
                </g>
            </g>
            <g id="layer3" transform="translate(219.490405, 179.812345)" fill="#FFFFFF" fill-rule="nonzero">
                <rect id="rect527" x="60.067855" y="0.0484345241" width="1" height="10.43113"></rect>
                <g id="text611" transform="translate(64.175315, 1.406665)">
                    <path d="M3.621,4.828 C3.621,5.48874 3.56865667,5.97939 3.46399,6.29995 C3.36585667,6.62050333 3.16959667,6.87891 2.87521,7.07517 C2.58735667,7.26489 2.27334,7.35975 1.93316,7.35975 C1.59952,7.35975 1.28877333,7.30741333 1.00092,7.20274 C0.719613333,7.09806667 0.385973333,6.87891 0,6.54527 L0.4514,5.87799 C0.830833333,6.15275 1.11868,6.33592333 1.31494,6.42751 C1.5112,6.51910333 1.70091667,6.5649 1.88409,6.5649 C2.07381,6.5649 2.24717333,6.49620667 2.40418,6.35882 C2.56118667,6.22144 2.65931667,6.04480667 2.69857,5.82892 C2.74437,5.60649333 2.76727,5.26304 2.76727,4.79856 L2.76727,2.84217094e-14 L3.621,2.84217094e-14 L3.621,4.828 Z" id="path3063"></path>
                    <polygon id="path3065" points="7.67375 7.18312 6.83964 7.18312 6.83964 0.82429 5.6719 0.82429 6.18217 2.84217094e-14 7.67375 2.84217094e-14"></polygon>
                </g>
                <g id="g17284" transform="translate(28.252004, 5.621945) scale(-1, 1) rotate(-180.000000) translate(-28.252004, -5.621945) ">
                    <g id="g17250" transform="translate(5.800571, 2.574749)">
                        <path d="M3.04952998,6.04512587 C1.36533743,6.04512587 0,4.67986894 0,2.99559589 L0,0 L1.21979589,0 L1.21979589,2.99559589 L1.21963489,2.99559589 C1.21963489,4.00625632 2.03895005,4.82557147 3.04952998,4.82557147 C4.0601904,4.82557147 4.87942506,4.00625632 4.87942506,2.99559589 L4.87918357,2.99559589 L4.87918357,0 L6.09905996,0 L6.09905996,2.99559589 C6.09905996,4.67986894 4.73372253,6.04512587 3.04952998,6.04512587" id="path17248"></path>
                    </g>
                    <g id="g17254" transform="translate(12.427219, 2.521056)">
                        <path d="M3.04952998,1.21979589 C2.03895005,1.21979589 1.21979589,2.03903055 1.21979589,3.04944948 C1.21979589,4.06002941 2.03895005,4.87918357 3.04952998,4.87918357 C4.06002941,4.87918357 4.87918357,4.06002941 4.87918357,3.04944948 C4.87918357,2.03903055 4.06002941,1.21979589 3.04952998,1.21979589 M4.87918357,5.90835868 L4.87918357,5.48920226 C4.36954668,5.87197329 3.73610288,6.09897946 3.04952998,6.09897946 C1.36525693,6.09897946 0,4.73372253 0,3.04944948 C0,1.36525693 1.36525693,0 3.04952998,0 C3.73610288,0 4.36954668,0.227006165 4.87918357,0.609857697 L4.87918357,0.0539340888 L6.09905996,0.0539340888 L6.09905996,5.90835868 L4.87918357,5.90835868 Z" id="path17252"></path>
                    </g>
                    <g id="g17258" transform="translate(19.404922, 0.000000)">
                        <path d="M3.04944948,3.7408523 C2.03895005,3.7408523 1.21979589,4.56008696 1.21979589,5.57050589 C1.21979589,6.58108581 2.03895005,7.40023998 3.04944948,7.40023998 C4.05994891,7.40023998 4.87918357,6.58108581 4.87918357,5.57050589 C4.87918357,4.56008696 4.05994891,3.7408523 3.04944948,3.7408523 M3.04944948,8.62003587 C1.36525693,8.62003587 0,7.25477893 0,5.57050589 L0,0 L1.21979589,0 L1.21979589,3.1309141 C1.72943278,2.74806257 2.36287658,2.52105641 3.04944948,2.52105641 C4.73364203,2.52105641 6.09897946,3.88631334 6.09897946,5.57050589 C6.09897946,7.25477893 4.73364203,8.62003587 3.04944948,8.62003587" id="path17256"></path>
                    </g>
                    <g id="g17262" transform="translate(35.669591, 2.520734)">
                        <path d="M3.04952998,0.609938195 C1.70222424,0.609938195 0.609938195,1.70214374 0.609938195,3.04952998 C0.609938195,4.39683572 1.70222424,5.48912176 3.04952998,5.48912176 C4.39683572,5.48912176 5.48912176,4.39683572 5.48912176,3.04952998 C5.48912176,1.70214374 4.39683572,0.609938195 3.04952998,0.609938195 M5.48912176,5.90835868 L5.48912176,4.87934456 C4.93271516,5.61993205 4.04714962,6.09897946 3.04952998,6.09897946 C1.36533743,6.09897946 0,4.73380302 0,3.04952998 C0,1.36533743 1.36533743,0 3.04952998,0 C4.04714962,0 4.93271516,0.479127905 5.48912176,1.21971539 L5.48912176,0.0539340888 L6.09905996,0.0539340888 L6.09905996,5.90835868 L5.48912176,5.90835868 Z" id="path17260"></path>
                    </g>
                    <g id="g17266" transform="translate(26.102006, 2.574829)">
                        <path d="M9.14762395,3.64296595 C9.12749929,4.97296448 8.0437461,6.04512587 6.70899815,6.04512587 C5.79018668,6.04512587 4.99035219,5.53701845 4.57425472,4.78661013 C4.15823775,5.53701845 3.35840326,6.04512587 2.43967228,6.04512587 C1.10484383,6.04512587 0.0210906437,4.97296448 0.00096598368,3.64296595 L0,3.64296595 L0,0 L0.609938195,0 L0.609938195,3.60553409 C0.609938195,4.61603351 1.42909236,5.43518767 2.43967228,5.43518767 C3.45017171,5.43518767 4.26932587,4.61603351 4.26932587,3.60553409 L4.26932587,0 L4.87926407,0 L4.87926407,3.60553409 C4.87926407,4.61603351 5.69841823,5.43518767 6.70899815,5.43518767 C7.71949758,5.43518767 8.53873224,4.61603351 8.53873224,3.60553409 L8.53873224,0 L9.14858994,0 L9.14858994,3.64296595 L9.14762395,3.64296595 Z" id="path17264"></path>
                    </g>
                    <g id="g17270" transform="translate(46.701690, 2.520868)">
                        <path d="M1.83021533,5.16280757 C2.90744813,5.78474007 4.26159626,5.49108103 4.9931679,4.52405087 L0.80168421,2.10410075 C0.330123177,3.22134137 0.752821536,4.54079458 1.83021533,5.16280757 M5.45973801,2.6751581 C5.35009887,1.97119749 4.93488688,1.32125148 4.26980712,0.937272963 C3.19241332,0.315259971 1.83850669,0.60891901 1.10669356,1.57594917 L5.83027325,4.3030821 C5.78873596,4.39485055 5.74244924,4.48557252 5.69093011,4.57476501 C4.84883384,6.03331987 2.98384134,6.53305542 1.52520599,5.69095915 C0.0667316272,4.84886288 -0.43300393,2.98378989 0.409011844,1.52523503 C1.25110812,0.0666801711 3.11626161,-0.433055386 4.57473597,0.409121386 C5.55037948,0.97237037 6.09624076,1.99341512 6.09913871,3.04424437 L5.45973801,2.6751581 Z" id="path17268"></path>
                    </g>
                    <g id="g17274" transform="translate(42.649628, 2.574990)">
                        <polygon id="path17272" points="4.51460523 6.04568936 3.6519818 6.04568936 0.609938195 3.00364575 0.609938195 8.66889854 0 8.66889854 0 0 0.609938195 0 0.609938195 2.14110283 1.04640182 2.57748595 3.62396827 0 4.4864307 0 1.47771353 3.00871717"></polygon>
                    </g>
                    <g id="g17278" transform="translate(53.454397, 2.574990)">
                        <path d="M0,2.99559589 C0,2.99398592 0.00024149592,2.99245644 0.00024149592,2.99084647 L0.00024149592,0 L0.610018694,0 L0.610018694,2.99084647 L0.610099193,2.99084647 C0.610099193,2.99245644 0.610018694,2.99398592 0.610018694,2.99559589 C0.610018694,4.34298213 1.70222424,5.43518767 3.04961048,5.43518767 L3.04961048,6.04512587 C1.36541793,6.04512587 0,4.67986894 0,2.99559589" id="path17276"></path>
                    </g>
                    <g id="g17282" transform="translate(-0.000000, 2.522703)">
                        <path d="M2.20010833,3.74097678 C1.66551686,3.8342747 1.32710058,4.14169901 1.37757323,4.40468806 C1.44945851,4.77965073 2.02792174,4.87713458 2.81069051,4.90152567 C3.85677034,4.93412762 4.72108424,4.57325222 4.72108424,4.57325222 C4.72108424,4.57325222 5.04243481,5.32406303 5.16471224,5.60943071 C4.24155384,6.03373904 3.28168806,6.12800295 2.82236282,6.12800295 C1.22631628,6.12800295 0,5.27817881 0,4.32451142 C0,3.28768894 1.22857024,2.61987222 2.41214175,2.50733512 C3.37933291,2.41524468 3.97309088,2.05710623 3.93895945,1.71699947 C3.90885296,1.41673955 3.41104937,1.26773656 2.86076067,1.241816 C2.38461121,1.21935688 1.46732921,1.23819356 0.502472511,1.60011545 C0.432438694,1.43396625 0.170818114,0.81388523 0.0594079963,0.549769192 C0.302674886,0.428135747 1.53510906,-0.124648414 3.13630751,0.0257230459 C4.64734748,0.16756165 5.54716128,1.15737293 5.43881011,1.95841489 C5.2266157,3.52781638 3.13268507,3.57820853 2.20010833,3.74097678" id="path17280"></path>
                    </g>
                </g>
            </g>
            <g id="Group" fill="#575757">
                <rect id="rect591" fill-rule="nonzero" x="0" y="0" width="12" height="189" rx="4"></rect>
                <rect id="Rectangle" x="6" y="0" width="6" height="189"></rect>
            </g>
            <g id="Group-2" transform="translate(312.000000, 0.000000)" fill="#575757">
                <rect id="rect591-1" fill-rule="nonzero" x="0" y="0" width="12" height="189" rx="4"></rect>
                <rect id="Rectangle" x="0" y="0" width="6" height="189"></rect>
            </g>
        </g>
    </g>
</svg>