<?xml version="1.0" encoding="UTF-8" standalone="no"?>
<!-- Created with Inkscape (http://www.inkscape.org/) -->
<svg xmlns:inkscape="http://www.inkscape.org/namespaces/inkscape" xmlns:sodipodi="http://sodipodi.sourceforge.net/DTD/sodipodi-0.dtd" xmlns="http://www.w3.org/2000/svg" xmlns:svg="http://www.w3.org/2000/svg" xmlns:rdf="http://www.w3.org/1999/02/22-rdf-syntax-ns#" xmlns:cc="http://creativecommons.org/ns#" xmlns:dc="http://purl.org/dc/elements/1.1/" sodipodi:docname="j1 (googliola).svg" inkscape:export-ydpi="96" inkscape:export-xdpi="96" inkscape:export-filename="j1.svg" xml:space="preserve" id="svg5" version="1.1" viewBox="0 0 300 200" height="200mm" width="300mm" inkscape:version="1.2.2 (732a01da63, 2022-12-09)">
  <defs id="defs2">
    <clipPath id="clipPath16">
      <path d="M 0,858.9 H 1207.6 V 0 H 0 Z" id="path362"/>
    </clipPath>
  </defs>
  <g inkscape:label="GridCartesian:X30:Y20" id="g15224" style="display:inline">
    <g inkscape:label="MajorXGridlines" id="g15076" style="display:inline">
      <path style="fill:none;stroke:#000000;stroke-width:0.264583" d="M 10,0 V 200" inkscape:label="MajorXDiv1" id="path15018"/>
      <path style="fill:none;stroke:#000000;stroke-width:0.264583" d="M 20,0 V 200" inkscape:label="MajorXDiv2" id="path15020"/>
      <path style="fill:none;stroke:#000000;stroke-width:0.264583" d="M 30,0 V 200" inkscape:label="MajorXDiv3" id="path15022"/>
      <path style="fill:none;stroke:#000000;stroke-width:0.264583" d="M 40,0 V 200" inkscape:label="MajorXDiv4" id="path15024"/>
      <path style="fill:none;stroke:#000000;stroke-width:0.264583" d="M 50,0 V 200" inkscape:label="MajorXDiv5" id="path15026"/>
      <path style="fill:none;stroke:#000000;stroke-width:0.264583" d="M 60,0 V 200" inkscape:label="MajorXDiv6" id="path15028"/>
      <path style="fill:none;stroke:#000000;stroke-width:0.264583" d="M 70,0 V 200" inkscape:label="MajorXDiv7" id="path15030"/>
      <path style="fill:none;stroke:#000000;stroke-width:0.264583" d="M 80,0 V 200" inkscape:label="MajorXDiv8" id="path15032"/>
      <path style="fill:none;stroke:#000000;stroke-width:0.264583" d="M 90,0 V 200" inkscape:label="MajorXDiv9" id="path15034"/>
      <path style="fill:none;stroke:#000000;stroke-width:0.264583" d="M 100,0 V 200" inkscape:label="MajorXDiv10" id="path15036"/>
      <path style="fill:none;stroke:#000000;stroke-width:0.264583" d="M 110,0 V 200" inkscape:label="MajorXDiv11" id="path15038"/>
      <path style="fill:none;stroke:#000000;stroke-width:0.264583" d="M 120,0 V 200" inkscape:label="MajorXDiv12" id="path15040"/>
      <path style="fill:none;stroke:#000000;stroke-width:0.264583" d="M 130,0 V 200" inkscape:label="MajorXDiv13" id="path15042"/>
      <path style="fill:none;stroke:#000000;stroke-width:0.264583" d="M 140,0 V 200" inkscape:label="MajorXDiv14" id="path15044"/>
      <path style="display:inline;fill:#00112b;stroke:#0066ff;stroke-width:0.258;stroke-dasharray:1.548, 0.258;stroke-dashoffset:0;stroke-opacity:1" d="M 160,10 V 200" inkscape:label="COPYLINE" id="path15048"/>
      <path style="fill:none;stroke:#ff0000;stroke-width:0.265;stroke-dasharray:1.59, 0.265;stroke-dashoffset:0;stroke-opacity:1" d="M 150,0 V 190" inkscape:label="MIRRORLINE" id="path15046" sodipodi:nodetypes="cc"/>
      <path style="fill:none;stroke:#000000;stroke-width:0.264583" d="M 170,0 V 200" inkscape:label="MajorXDiv17" id="path15050"/>
      <path style="fill:none;stroke:#000000;stroke-width:0.264583" d="M 180,0 V 200" inkscape:label="MajorXDiv18" id="path15052"/>
      <path style="fill:none;stroke:#000000;stroke-width:0.264583" d="M 190,0 V 200" inkscape:label="MajorXDiv19" id="path15054"/>
      <path style="fill:none;stroke:#000000;stroke-width:0.264583" d="M 200,0 V 200" inkscape:label="MajorXDiv20" id="path15056"/>
      <path style="fill:none;stroke:#000000;stroke-width:0.264583" d="M 210,0 V 200" inkscape:label="MajorXDiv21" id="path15058"/>
      <path style="fill:none;stroke:#000000;stroke-width:0.264583" d="M 220,0 V 200" inkscape:label="MajorXDiv22" id="path15060"/>
      <path style="fill:none;stroke:#000000;stroke-width:0.264583" d="M 230,0 V 200" inkscape:label="MajorXDiv23" id="path15062"/>
      <path style="fill:none;stroke:#000000;stroke-width:0.264583" d="M 240,0 V 200" inkscape:label="MajorXDiv24" id="path15064"/>
      <path style="fill:none;stroke:#000000;stroke-width:0.264583" d="M 250,0 V 200" inkscape:label="MajorXDiv25" id="path15066"/>
      <path style="fill:none;stroke:#000000;stroke-width:0.264583" d="M 260,0 V 200" inkscape:label="MajorXDiv26" id="path15068"/>
      <path style="fill:none;stroke:#000000;stroke-width:0.264583" d="M 270,0 V 200" inkscape:label="MajorXDiv27" id="path15070"/>
      <path style="fill:none;stroke:#000000;stroke-width:0.264583" d="M 280,0 V 200" inkscape:label="MajorXDiv28" id="path15072"/>
      <path style="fill:none;stroke:#000000;stroke-width:0.264583" d="M 290,0 V 200" inkscape:label="MajorXDiv29" id="path15074"/>
      <g aria-label="MIRROR" id="text16399" style="font-size:10.5833px;line-height:1.25;letter-spacing:0px;word-spacing:0px;display:inline;stroke-width:0.264583" inkscape:label="MIRROR" inkscape:transform-center-x="-0.23386084">
        <path d="m 143.06355,193.62239 h 0.51849 l 0.65629,1.75011 0.65973,-1.75011 h 0.51849 v 2.57176 h -0.33934 v -2.25826 l -0.66318,1.76389 h -0.34968 l -0.66318,-1.76389 v 2.25826 h -0.33762 z" style="font-size:3.52778px;-inkscape-font-specification:'sans-serif, Normal';fill:#ff0000" id="path17403"/>
        <path d="m 146.10729,193.62239 h 0.34796 v 2.57176 h -0.34796 z" style="font-size:3.52778px;-inkscape-font-specification:'sans-serif, Normal';fill:#ff0000" id="path17405"/>
        <path d="m 148.36728,194.98837 q 0.11196,0.0379 0.21704,0.16192 0.10679,0.12402 0.21359,0.34106 l 0.35313,0.7028 h -0.3738 l -0.329,-0.65973 q -0.12747,-0.25839 -0.24805,-0.34279 -0.11886,-0.0844 -0.32556,-0.0844 h -0.37896 v 1.08693 h -0.34796 v -2.57176 h 0.78548 q 0.44098,0 0.65802,0.18431 0.21704,0.18431 0.21704,0.55638 0,0.24288 -0.11369,0.40308 -0.11197,0.1602 -0.32728,0.22221 z m -0.87161,-1.08004 v 0.91295 h 0.43752 q 0.2515,0 0.37896,-0.11541 0.1292,-0.11713 0.1292,-0.34279 0,-0.22565 -0.1292,-0.33934 -0.12746,-0.11541 -0.37896,-0.11541 z" style="font-size:3.52778px;-inkscape-font-specification:'sans-serif, Normal';fill:#ff0000" id="path17407"/>
        <path d="m 150.81846,194.98837 q 0.11197,0.0379 0.21704,0.16192 0.1068,0.12402 0.2136,0.34106 l 0.35312,0.7028 h -0.37379 l -0.32901,-0.65973 q -0.12747,-0.25839 -0.24804,-0.34279 -0.11886,-0.0844 -0.32557,-0.0844 h -0.37896 v 1.08693 h -0.34795 v -2.57176 h 0.78548 q 0.44097,0 0.65801,0.18431 0.21705,0.18431 0.21705,0.55638 0,0.24288 -0.11369,0.40308 -0.11197,0.1602 -0.32729,0.22221 z m -0.87161,-1.08004 v 0.91295 h 0.43753 q 0.25149,0 0.37896,-0.11541 0.12919,-0.11713 0.12919,-0.34279 0,-0.22565 -0.12919,-0.33934 -0.12747,-0.11541 -0.37896,-0.11541 z" style="font-size:3.52778px;-inkscape-font-specification:'sans-serif, Normal';fill:#ff0000" id="path17409"/>
        <path d="m 153.09395,193.85838 q -0.37896,0 -0.60289,0.28249 -0.22221,0.2825 -0.22221,0.76998 0,0.48576 0.22221,0.76826 0.22393,0.2825 0.60289,0.2825 0.37896,0 0.59945,-0.2825 0.22221,-0.2825 0.22221,-0.76826 0,-0.48748 -0.22221,-0.76998 -0.22049,-0.28249 -0.59945,-0.28249 z m 0,-0.2825 q 0.54088,0 0.86472,0.36346 0.32384,0.36173 0.32384,0.97151 0,0.60806 -0.32384,0.97152 -0.32384,0.36174 -0.86472,0.36174 -0.5426,0 -0.86816,-0.36174 -0.32384,-0.36173 -0.32384,-0.97152 0,-0.60978 0.32384,-0.97151 0.32556,-0.36346 0.86816,-0.36346 z" style="font-size:3.52778px;-inkscape-font-specification:'sans-serif, Normal';fill:#ff0000" id="path17411"/>
        <path d="m 156.0464,194.98837 q 0.11196,0.0379 0.21704,0.16192 0.1068,0.12402 0.2136,0.34106 l 0.35312,0.7028 h -0.37379 l -0.32901,-0.65973 q -0.12747,-0.25839 -0.24805,-0.34279 -0.11885,-0.0844 -0.32556,-0.0844 h -0.37896 v 1.08693 h -0.34796 v -2.57176 h 0.78549 q 0.44097,0 0.65801,0.18431 0.21704,0.18431 0.21704,0.55638 0,0.24288 -0.11369,0.40308 -0.11196,0.1602 -0.32728,0.22221 z m -0.87161,-1.08004 v 0.91295 h 0.43753 q 0.25149,0 0.37896,-0.11541 0.12919,-0.11713 0.12919,-0.34279 0,-0.22565 -0.12919,-0.33934 -0.12747,-0.11541 -0.37896,-0.11541 z" style="font-size:3.52778px;-inkscape-font-specification:'sans-serif, Normal';fill:#ff0000" id="path17413"/>
      </g>
      <g aria-label="COPY" id="text16407" style="font-size:10.5833px;line-height:1.25;letter-spacing:0px;word-spacing:0px;display:inline;fill:#0066ff;stroke-width:0.264583" inkscape:label="COPY" inkscape:transform-center-x="0.54570313" inkscape:transform-center-y="0.66145834">
        <path d="m 157.69645,3.740946 v 0.3669029 q -0.1757,-0.1636422 -0.37552,-0.244602 -0.19809,-0.08096 -0.42202,-0.08096 -0.44097,0 -0.67524,0.2704401 -0.23427,0.2687176 -0.23427,0.7785921 0,0.5081519 0.23427,0.7785921 0.23427,0.2687176 0.67524,0.2687176 0.22393,0 0.42202,-0.08096 0.19982,-0.08096 0.37552,-0.2446019 v 0.3634578 q -0.18259,0.1240235 -0.38757,0.1860353 -0.20326,0.062012 -0.43064,0.062012 -0.58394,0 -0.91984,-0.3565676 -0.3359,-0.3582902 -0.3359,-0.9766852 0,-0.6201176 0.3359,-0.9766852 0.3359,-0.3582902 0.91984,-0.3582902 0.23082,0 0.43408,0.062012 0.20498,0.060289 0.38413,0.1825902 z" style="font-size:3.52778px;-inkscape-font-specification:'sans-serif, Normal'" id="path17394"/>
        <path d="m 159.27775,3.7788421 q -0.37896,0 -0.60289,0.282498 -0.22221,0.282498 -0.22221,0.7699793 0,0.4857588 0.22221,0.7682568 0.22393,0.282498 0.60289,0.282498 0.37896,0 0.59945,-0.282498 0.22221,-0.282498 0.22221,-0.7682568 0,-0.4874813 -0.22221,-0.7699793 -0.22049,-0.282498 -0.59945,-0.282498 z m 0,-0.2824981 q 0.54088,0 0.86472,0.3634578 0.32384,0.3617353 0.32384,0.9715176 0,0.6080598 -0.32384,0.9715176 -0.32384,0.3617352 -0.86472,0.3617352 -0.5426,0 -0.86816,-0.3617352 -0.32384,-0.3617353 -0.32384,-0.9715176 0,-0.6097823 0.32384,-0.9715176 0.32556,-0.3634578 0.86816,-0.3634578 z" style="font-size:3.52778px;-inkscape-font-specification:'sans-serif, Normal'" id="path17396"/>
        <path d="m 161.35859,3.828796 v 0.9663499 h 0.43753 q 0.24288,0 0.37551,-0.1257461 0.13264,-0.1257461 0.13264,-0.3582902 0,-0.2308215 -0.13264,-0.3565676 -0.13263,-0.125746 -0.37551,-0.125746 z m -0.34796,-0.2859431 h 0.78549 q 0.43236,0 0.65284,0.1963705 0.22221,0.1946481 0.22221,0.5718862 0,0.3806833 -0.22221,0.5753314 -0.22048,0.194648 -0.65284,0.194648 h -0.43753 v 1.0335293 h -0.34796 z" style="font-size:3.52778px;-inkscape-font-specification:'sans-serif, Normal'" id="path17398"/>
        <path d="m 162.70734,3.5428529 h 0.3738 l 0.71313,1.057645 0.70797,-1.057645 h 0.37379 l -0.9095,1.3470332 v 1.2247322 h -0.34968 V 4.8898861 Z" style="font-size:3.52778px;-inkscape-font-specification:'sans-serif, Normal'" id="path17400"/>
      </g>
    </g>
    <g inkscape:label="MajorYGridlines" id="g15116" style="display:inline">
      <path style="fill:none;stroke:#000000;stroke-width:0.264583" d="M 0,10 H 300" inkscape:label="MajorYDiv1" id="path15078"/>
      <path style="fill:none;stroke:#000000;stroke-width:0.264583" d="M 0,20 H 300" inkscape:label="MajorYDiv2" id="path15080"/>
      <path style="fill:none;stroke:#000000;stroke-width:0.264583" d="M 0,30 H 300" inkscape:label="MajorYDiv3" id="path15082"/>
      <path style="fill:none;stroke:#000000;stroke-width:0.264583" d="M 0,40 H 300" inkscape:label="MajorYDiv4" id="path15084"/>
      <path style="fill:none;stroke:#000000;stroke-width:0.264583" d="M 0,50 H 300" inkscape:label="MajorYDiv5" id="path15086"/>
      <path style="fill:none;stroke:#000000;stroke-width:0.264583" d="M 0,60 H 300" inkscape:label="MajorYDiv6" id="path15088"/>
      <path style="fill:none;stroke:#000000;stroke-width:0.264583" d="M 0,70 H 300" inkscape:label="MajorYDiv7" id="path15090"/>
      <path style="fill:none;stroke:#000000;stroke-width:0.264583" d="M 0,80 H 300" inkscape:label="MajorYDiv8" id="path15092"/>
      <path style="fill:none;stroke:#000000;stroke-width:0.264583" d="M 0,90 H 300" inkscape:label="MajorYDiv9" id="path15094"/>
      <path style="fill:none;stroke:#000000;stroke-width:0.264583" d="M 0,100 H 300" inkscape:label="MajorYDiv10" id="path15096"/>
      <path style="fill:none;stroke:#000000;stroke-width:0.264583" d="M 0,110 H 300" inkscape:label="MajorYDiv11" id="path15098"/>
      <path style="fill:none;stroke:#000000;stroke-width:0.264583" d="M 0,120 H 300" inkscape:label="MajorYDiv12" id="path15100"/>
      <path style="fill:none;stroke:#000000;stroke-width:0.264583" d="M 0,130 H 300" inkscape:label="MajorYDiv13" id="path15102"/>
      <path style="fill:none;stroke:#000000;stroke-width:0.264583" d="M 0,140 H 300" inkscape:label="MajorYDiv14" id="path15104"/>
      <path style="fill:none;stroke:#000000;stroke-width:0.264583" d="M 0,150 H 300" inkscape:label="MajorYDiv15" id="path15106"/>
      <path style="fill:none;stroke:#000000;stroke-width:0.264583" d="M 0,160 H 300" inkscape:label="MajorYDiv16" id="path15108"/>
      <path style="fill:none;stroke:#000000;stroke-width:0.264583" d="M 0,170 H 300" inkscape:label="MajorYDiv17" id="path15110"/>
      <path style="fill:none;stroke:#000000;stroke-width:0.264583" d="M 0,180 H 300" inkscape:label="MajorYDiv18" id="path15112"/>
      <path style="fill:none;stroke:#000000;stroke-width:0.264583" d="M 0,190 H 300" inkscape:label="MajorYDiv19" id="path15114"/>
    </g>
    <g inkscape:label="SubMinorXGridlines" id="g15178" style="display:none">
      <path style="fill:none;stroke:#000000;stroke-width:0.079375" d="M 5,0 V 200" inkscape:label="SubminorXDiv0:0:1" id="path15118"/>
      <path style="fill:none;stroke:#000000;stroke-width:0.079375" d="M 15,0 V 200" inkscape:label="SubminorXDiv1:0:1" id="path15120"/>
      <path style="fill:none;stroke:#000000;stroke-width:0.079375" d="M 25,0 V 200" inkscape:label="SubminorXDiv2:0:1" id="path15122"/>
      <path style="fill:none;stroke:#000000;stroke-width:0.079375" d="M 35,0 V 200" inkscape:label="SubminorXDiv3:0:1" id="path15124"/>
      <path style="fill:none;stroke:#000000;stroke-width:0.079375" d="M 45,0 V 200" inkscape:label="SubminorXDiv4:0:1" id="path15126"/>
      <path style="fill:none;stroke:#000000;stroke-width:0.079375" d="M 55,0 V 200" inkscape:label="SubminorXDiv5:0:1" id="path15128"/>
      <path style="fill:none;stroke:#000000;stroke-width:0.079375" d="M 65,0 V 200" inkscape:label="SubminorXDiv6:0:1" id="path15130"/>
      <path style="fill:none;stroke:#000000;stroke-width:0.079375" d="M 75,0 V 200" inkscape:label="SubminorXDiv7:0:1" id="path15132"/>
      <path style="fill:none;stroke:#000000;stroke-width:0.079375" d="M 85,0 V 200" inkscape:label="SubminorXDiv8:0:1" id="path15134"/>
      <path style="fill:none;stroke:#000000;stroke-width:0.079375" d="M 95,0 V 200" inkscape:label="SubminorXDiv9:0:1" id="path15136"/>
      <path style="fill:none;stroke:#000000;stroke-width:0.079375" d="M 105,0 V 200" inkscape:label="SubminorXDiv10:0:1" id="path15138"/>
      <path style="fill:none;stroke:#000000;stroke-width:0.079375" d="M 115,0 V 200" inkscape:label="SubminorXDiv11:0:1" id="path15140"/>
      <path style="fill:none;stroke:#000000;stroke-width:0.079375" d="M 125,0 V 200" inkscape:label="SubminorXDiv12:0:1" id="path15142"/>
      <path style="fill:none;stroke:#000000;stroke-width:0.079375" d="M 135,0 V 200" inkscape:label="SubminorXDiv13:0:1" id="path15144"/>
      <path style="fill:none;stroke:#000000;stroke-width:0.079375" d="M 145,0 V 200" inkscape:label="SubminorXDiv14:0:1" id="path15146"/>
      <path style="fill:none;stroke:#000000;stroke-width:0.079375" d="M 155,0 V 200" inkscape:label="SubminorXDiv15:0:1" id="path15148"/>
      <path style="fill:none;stroke:#000000;stroke-width:0.079375" d="M 165,0 V 200" inkscape:label="SubminorXDiv16:0:1" id="path15150"/>
      <path style="fill:none;stroke:#000000;stroke-width:0.079375" d="M 175,0 V 200" inkscape:label="SubminorXDiv17:0:1" id="path15152"/>
      <path style="fill:none;stroke:#000000;stroke-width:0.079375" d="M 185,0 V 200" inkscape:label="SubminorXDiv18:0:1" id="path15154"/>
      <path style="fill:none;stroke:#000000;stroke-width:0.079375" d="M 195,0 V 200" inkscape:label="SubminorXDiv19:0:1" id="path15156"/>
      <path style="fill:none;stroke:#000000;stroke-width:0.079375" d="M 205,0 V 200" inkscape:label="SubminorXDiv20:0:1" id="path15158"/>
      <path style="fill:none;stroke:#000000;stroke-width:0.079375" d="M 215,0 V 200" inkscape:label="SubminorXDiv21:0:1" id="path15160"/>
      <path style="fill:none;stroke:#000000;stroke-width:0.079375" d="M 225,0 V 200" inkscape:label="SubminorXDiv22:0:1" id="path15162"/>
      <path style="fill:none;stroke:#000000;stroke-width:0.079375" d="M 235,0 V 200" inkscape:label="SubminorXDiv23:0:1" id="path15164"/>
      <path style="fill:none;stroke:#000000;stroke-width:0.079375" d="M 245,0 V 200" inkscape:label="SubminorXDiv24:0:1" id="path15166"/>
      <path style="fill:none;stroke:#000000;stroke-width:0.079375" d="M 255,0 V 200" inkscape:label="SubminorXDiv25:0:1" id="path15168"/>
      <path style="fill:none;stroke:#000000;stroke-width:0.079375" d="M 265,0 V 200" inkscape:label="SubminorXDiv26:0:1" id="path15170"/>
      <path style="fill:none;stroke:#000000;stroke-width:0.079375" d="M 275,0 V 200" inkscape:label="SubminorXDiv27:0:1" id="path15172"/>
      <path style="fill:none;stroke:#000000;stroke-width:0.079375" d="M 285,0 V 200" inkscape:label="SubminorXDiv28:0:1" id="path15174"/>
      <path style="fill:none;stroke:#000000;stroke-width:0.079375" d="M 295,0 V 200" inkscape:label="SubminorXDiv29:0:1" id="path15176"/>
    </g>
    <g inkscape:label="SubMinorYGridlines" id="g15220" style="display:none">
      <path style="fill:none;stroke:#000000;stroke-width:0.079375" d="M 0,5 H 300" inkscape:label="SubminorXDiv0:0:1" id="path15180"/>
      <path style="fill:none;stroke:#000000;stroke-width:0.079375" d="M 0,15 H 300" inkscape:label="SubminorXDiv1:0:1" id="path15182"/>
      <path style="fill:none;stroke:#000000;stroke-width:0.079375" d="M 0,25 H 300" inkscape:label="SubminorXDiv2:0:1" id="path15184"/>
      <path style="fill:none;stroke:#000000;stroke-width:0.079375" d="M 0,35 H 300" inkscape:label="SubminorXDiv3:0:1" id="path15186"/>
      <path style="fill:none;stroke:#000000;stroke-width:0.079375" d="M 0,45 H 300" inkscape:label="SubminorXDiv4:0:1" id="path15188"/>
      <path style="fill:none;stroke:#000000;stroke-width:0.079375" d="M 0,55 H 300" inkscape:label="SubminorXDiv5:0:1" id="path15190"/>
      <path style="fill:none;stroke:#000000;stroke-width:0.079375" d="M 0,65 H 300" inkscape:label="SubminorXDiv6:0:1" id="path15192"/>
      <path style="fill:none;stroke:#000000;stroke-width:0.079375" d="M 0,75 H 300" inkscape:label="SubminorXDiv7:0:1" id="path15194"/>
      <path style="fill:none;stroke:#000000;stroke-width:0.079375" d="M 0,85 H 300" inkscape:label="SubminorXDiv8:0:1" id="path15196"/>
      <path style="fill:none;stroke:#000000;stroke-width:0.079375" d="M 0,95 H 300" inkscape:label="SubminorXDiv9:0:1" id="path15198"/>
      <path style="fill:none;stroke:#000000;stroke-width:0.079375" d="M 0,105 H 300" inkscape:label="SubminorXDiv10:0:1" id="path15200"/>
      <path style="fill:none;stroke:#000000;stroke-width:0.079375" d="M 0,115 H 300" inkscape:label="SubminorXDiv11:0:1" id="path15202"/>
      <path style="fill:none;stroke:#000000;stroke-width:0.079375" d="M 0,125 H 300" inkscape:label="SubminorXDiv12:0:1" id="path15204"/>
      <path style="fill:none;stroke:#000000;stroke-width:0.079375" d="M 0,135 H 300" inkscape:label="SubminorXDiv13:0:1" id="path15206"/>
      <path style="fill:none;stroke:#000000;stroke-width:0.079375" d="M 0,145 H 300" inkscape:label="SubminorXDiv14:0:1" id="path15208"/>
      <path style="fill:none;stroke:#000000;stroke-width:0.079375" d="M 0,155 H 300" inkscape:label="SubminorXDiv15:0:1" id="path15210"/>
      <path style="fill:none;stroke:#000000;stroke-width:0.079375" d="M 0,165 H 300" inkscape:label="SubminorXDiv16:0:1" id="path15212"/>
      <path style="fill:none;stroke:#000000;stroke-width:0.079375" d="M 0,175 H 300" inkscape:label="SubminorXDiv17:0:1" id="path15214"/>
      <path style="fill:none;stroke:#000000;stroke-width:0.079375" d="M 0,185 H 300" inkscape:label="SubminorXDiv18:0:1" id="path15216"/>
      <path style="fill:none;stroke:#000000;stroke-width:0.079375" d="M 0,195 H 300" inkscape:label="SubminorXDiv19:0:1" id="path15218"/>
    </g>
    <rect x="0" y="0" width="300" height="200" style="fill:none;stroke:#000000;stroke-width:3.67183e-17" inkscape:label="Border" id="rect15222"/>
  </g>
  <g inkscape:groupmode="layer" id="layer3" inkscape:label="Snapmaker | J1" style="display:inline">
    <rect style="fill:#ffffff;stroke-width:0.154526" id="rect527" width="0.78233474" height="10.43113" x="279.55826" y="186.86078"/>
    <g aria-label="J1" id="text611" style="font-size:9.813px;line-height:1.25;font-family:'Heiti SC';-inkscape-font-specification:'Heiti SC';display:inline;fill:#ffffff;stroke-width:0.229992">
      <path d="m 287.28671,193.04701 q 0,0.99111 -0.157,1.47195 -0.1472,0.48083 -0.58878,0.77522 -0.43178,0.28458 -0.94205,0.28458 -0.50046,0 -0.93224,-0.15701 -0.42196,-0.15701 -1.00092,-0.65747 l 0.4514,-0.66728 q 0.56915,0.41214 0.86354,0.54952 0.29439,0.13739 0.56915,0.13739 0.28458,0 0.52009,-0.20608 0.23551,-0.20607 0.29439,-0.5299 0.0687,-0.33364 0.0687,-1.03036 v -4.79856 h 0.85373 z" id="path3063"/>
      <path d="m 291.33947,195.40213 h -0.83411 v -6.35883 h -1.16774 l 0.51027,-0.82429 h 1.49158 z" id="path3065"/>
    </g>
    <g clip-path="url(#clipPath16)" id="g17284" transform="matrix(0.08049864,0,0,-0.08049864,199.09857,227.00105)" style="display:inline;fill:#ffffff">
      <g transform="translate(363.26,466.65)" id="g17250" style="fill:#ffffff">
        <path d="m 0,0 c -20.922,0 -37.883,-16.96 -37.883,-37.883 v -37.213 h 15.153 v 37.213 h -0.002 c 0,12.555 10.178,22.733 22.732,22.733 12.555,0 22.732,-10.178 22.732,-22.733 h -0.003 v -37.213 h 15.154 v 37.213 C 37.883,-16.96 20.922,0 0,0" fill="#3f3b3a" id="path17248" style="fill:#ffffff"/>
      </g>
      <g transform="translate(445.58,406.04)" id="g17254" style="fill:#ffffff">
        <path d="m 0,0 c -12.554,0 -22.73,10.177 -22.73,22.729 0,12.554 10.176,22.73 22.73,22.73 12.553,0 22.729,-10.176 22.729,-22.73 C 22.729,10.177 12.553,0 0,0 M 22.729,58.244 V 53.037 C 16.398,57.792 8.529,60.612 0,60.612 c -20.923,0 -37.883,-16.96 -37.883,-37.883 0,-20.922 16.96,-37.882 37.883,-37.882 8.529,0 16.398,2.82 22.729,7.576 v -6.906 h 15.154 v 72.727 z" fill="#3f3b3a" id="path17252" style="fill:#ffffff"/>
      </g>
      <g transform="translate(532.26,406.04)" id="g17258" style="fill:#ffffff">
        <path d="m 0,0 c -12.553,0 -22.729,10.177 -22.729,22.729 0,12.554 10.176,22.73 22.729,22.73 12.553,0 22.73,-10.176 22.73,-22.73 C 22.73,10.177 12.553,0 0,0 m 0,60.612 c -20.922,0 -37.882,-16.96 -37.882,-37.883 v -69.2 h 15.153 v 38.894 c 6.331,-4.756 14.2,-7.576 22.729,-7.576 20.922,0 37.883,16.96 37.883,37.882 0,20.923 -16.961,37.883 -37.883,37.883" fill="#3f3b3a" id="path17256" style="fill:#ffffff"/>
      </g>
      <g transform="translate(734.31,398.46)" id="g17262" style="fill:#ffffff">
        <path d="m 0,0 c -16.737,0 -30.306,13.568 -30.306,30.306 0,16.737 13.569,30.306 30.306,30.306 16.737,0 30.306,-13.569 30.306,-30.306 C 30.306,13.568 16.737,0 0,0 M 30.306,65.82 V 53.037 C 23.394,62.237 12.393,68.188 0,68.188 c -20.922,0 -37.883,-16.959 -37.883,-37.882 0,-20.922 16.961,-37.883 37.883,-37.883 12.393,0 23.394,5.952 30.306,15.152 V -6.907 h 7.577 V 65.82 Z" fill="#3f3b3a" id="path17260" style="fill:#ffffff"/>
      </g>
      <g transform="translate(691.21,436.81)" id="g17266" style="fill:#ffffff">
        <path d="m 0,0 c -0.25,16.522 -13.713,29.841 -30.294,29.841 -11.414,0 -21.35,-6.312 -26.519,-15.634 -5.168,9.322 -15.104,15.634 -26.517,15.634 -16.582,0 -30.045,-13.319 -30.295,-29.841 h -0.012 v -45.255 h 7.577 v 44.79 c 0,12.553 10.176,22.729 22.73,22.729 12.553,0 22.729,-10.176 22.729,-22.729 v -44.79 h 7.577 v 44.79 c 0,12.553 10.176,22.729 22.73,22.729 12.553,0 22.73,-10.176 22.73,-22.729 v -44.79 H 0.012 V 0 Z" fill="#3f3b3a" id="path17264" style="fill:#ffffff"/>
      </g>
      <g transform="translate(856.21,455.02)" id="g17270" style="fill:#ffffff">
        <path d="M 0,0 C 13.382,7.726 30.204,4.078 39.292,-7.935 L -12.777,-37.997 C -18.635,-24.118 -13.384,-7.727 0,0 m 45.088,-30.903 c -1.362,-8.745 -6.52,-16.819 -14.782,-21.589 -13.384,-7.727 -30.203,-4.079 -39.294,7.934 L 49.691,-10.68 C 49.175,-9.54 48.6,-8.413 47.96,-7.305 37.499,10.814 14.331,17.022 -3.789,6.561 -21.907,-3.9 -28.115,-27.069 -17.655,-45.188 c 10.461,-18.119 33.631,-24.327 51.749,-13.865 12.12,6.997 18.901,19.681 18.937,32.735 z" fill="#3f3b3a" id="path17268" style="fill:#ffffff"/>
      </g>
      <g transform="translate(839.22,466.66)" id="g17274" style="fill:#ffffff">
        <path d="m 0,0 h -10.716 l -37.79,-37.79 v 70.377 h -7.577 v -107.69 h 7.577 v 26.598 l 5.422,5.421 32.02,-32.019 H -0.35 l -37.376,37.376 z" fill="#3f3b3a" id="path17272" style="fill:#ffffff"/>
      </g>
      <g transform="translate(917.36,428.77)" id="g17278" style="fill:#ffffff">
        <path d="m 0,0 c 0,-0.02 0.003,-0.039 0.003,-0.059 v -37.154 h 7.575 v 37.154 h 10e-4 c 0,0.02 -10e-4,0.039 -10e-4,0.059 0,16.738 13.568,30.306 30.306,30.306 v 7.577 C 16.962,37.883 0,20.923 0,0" fill="#3f3b3a" id="path17276" style="fill:#ffffff"/>
      </g>
      <g transform="translate(280.65,437.38)" id="g17282" style="fill:#ffffff">
        <path d="m 0,0 c -6.641,1.159 -10.845,4.978 -10.218,8.245 0.893,4.658 8.079,5.869 17.803,6.172 12.995,0.405 23.732,-4.078 23.732,-4.078 0,0 3.992,9.327 5.511,12.872 -11.468,5.271 -23.392,6.442 -29.098,6.442 -19.827,0 -35.061,-10.557 -35.061,-22.404 0,-12.88 15.262,-21.176 29.965,-22.574 12.015,-1.144 19.391,-5.593 18.967,-9.818 -0.374,-3.73 -6.558,-5.581 -13.394,-5.903 -5.915,-0.279 -17.31,-0.045 -29.296,4.451 -0.87,-2.064 -4.12,-9.767 -5.504,-13.048 3.022,-1.511 18.332,-8.378 38.223,-6.51 18.771,1.762 29.949,14.058 28.603,24.009 C 37.597,-2.648 11.585,-2.022 0,0" fill="#3f3b3a" id="path17280" style="fill:#ffffff"/>
      </g>
    </g>
  </g>
  <g inkscape:label="Icons" inkscape:groupmode="layer" id="layer1" style="display:inline" transform="translate(0.39999965,-2.4459998)">
    <path sodipodi:type="star" style="fill:none;fill-opacity:1;stroke:#ffff00;stroke-width:0.264999;stroke-linecap:round;stroke-linejoin:miter;stroke-miterlimit:4;stroke-dasharray:none;stroke-opacity:1" id="path1349" sodipodi:sides="3" sodipodi:cx="39.555885" sodipodi:cy="333.11758" sodipodi:r1="12.85258" sodipodi:r2="6.42629" sodipodi:arg1="2.6179939" sodipodi:arg2="3.6651914" inkscape:flatsided="true" inkscape:rounded="0" inkscape:randomized="0" d="M 28.425224,339.54387 39.555886,320.265 50.686546,339.54387 Z" inkscape:transform-center-y="-2.4767285" transform="matrix(0.77080989,0,0,0.77080989,-11.733546,-62.159169)"/>
    <path sodipodi:type="star" style="fill:none;fill-opacity:1;stroke:#ffff00;stroke-width:0.264999;stroke-linecap:round;stroke-linejoin:miter;stroke-miterlimit:4;stroke-dasharray:none;stroke-opacity:1" id="path1349-1" sodipodi:sides="3" sodipodi:cx="74.701828" sodipodi:cy="333.11758" sodipodi:r1="12.85258" sodipodi:r2="6.4262905" sodipodi:arg1="2.6179939" sodipodi:arg2="3.6651914" inkscape:flatsided="true" inkscape:rounded="0" inkscape:randomized="0" d="M 63.571167,339.54387 74.701828,320.265 85.832489,339.54387 Z" inkscape:transform-center-y="-2.4767285" transform="matrix(0.77080989,0,0,0.77080989,-11.733546,-62.159169)"/>
    <path sodipodi:type="star" style="fill:none;fill-opacity:1;stroke:#ffff00;stroke-width:0.264999;stroke-linecap:round;stroke-linejoin:miter;stroke-miterlimit:4;stroke-dasharray:none;stroke-opacity:1" id="path1349-1-3" sodipodi:sides="3" sodipodi:cx="111.45139" sodipodi:cy="333.11758" sodipodi:r1="12.85258" sodipodi:r2="6.4262905" sodipodi:arg1="2.6179939" sodipodi:arg2="3.6651914" inkscape:flatsided="true" inkscape:rounded="0" inkscape:randomized="0" d="m 100.32073,339.54387 11.13066,-19.27887 11.13066,19.27887 z" inkscape:transform-center-y="-2.4767285" transform="matrix(0.77080989,0,0,0.77080989,-11.733546,-62.159169)"/>
    <path style="fill:none;stroke:#ffff00;stroke-width:0.40005;stroke-linecap:round;stroke-linejoin:miter;stroke-miterlimit:4;stroke-dasharray:none;stroke-opacity:1" d="m 44.86076,190.94921 c -0.607012,0.83768 -1.213985,1.6753 -1.2169,2.44625 -0.0029,0.77095 0.597978,1.47503 0.767817,2.01212 0.169839,0.53708 -0.09115,0.90733 -0.352123,1.27754" id="path1396" inkscape:path-effect="#path-effect1398" inkscape:original-d="m 44.86076,190.94921 c -0.606771,0.83785 -1.213745,1.67547 -1.820923,2.51287 0.601121,0.70432 1.202014,1.4084 1.802715,2.11228 -0.260801,0.37047 -0.521796,0.74071 -0.782998,1.11076"/>
    <path style="fill:none;stroke:#ffff00;stroke-width:0.40005;stroke-linecap:round;stroke-linejoin:miter;stroke-miterlimit:4;stroke-dasharray:none;stroke-opacity:1" d="m 46.061612,190.95887 c -0.607012,0.83768 -1.21398,1.67529 -1.216898,2.44625 -0.0029,0.77095 0.597971,1.47502 0.767813,2.01211 0.169841,0.53709 -0.09115,0.90734 -0.352121,1.27755" id="path1396-6" inkscape:path-effect="#path-effect1417" inkscape:original-d="m 46.061612,190.95887 c -0.606771,0.83785 -1.213745,1.67546 -1.820924,2.51287 0.601122,0.70432 1.202014,1.40839 1.802716,2.11228 -0.260801,0.37047 -0.521796,0.74071 -0.782998,1.11076"/>
    <path style="fill:none;stroke:#ffff00;stroke-width:0.40005;stroke-linecap:round;stroke-linejoin:miter;stroke-miterlimit:4;stroke-dasharray:none;stroke-opacity:1" d="m 47.463723,190.94066 c -0.607007,0.83767 -1.21398,1.67529 -1.216898,2.44625 -0.0029,0.77095 0.597971,1.47502 0.767813,2.01211 0.169841,0.53709 -0.09114,0.90733 -0.352121,1.27755" id="path1396-7" inkscape:path-effect="#path-effect1426" inkscape:original-d="m 47.463723,190.94066 c -0.606771,0.83784 -1.213745,1.67546 -1.820924,2.51287 0.601122,0.70432 1.202014,1.40839 1.802716,2.11228 -0.260801,0.37047 -0.521796,0.7407 -0.782998,1.11076"/>
    <path style="fill:none;stroke:#ffff00;stroke-width:0.40005;stroke-linecap:round;stroke-linejoin:miter;stroke-miterlimit:4;stroke-dasharray:none;stroke-opacity:1" d="m 41.874445,197.72306 h 7.647882" id="path1428"/>
    <path style="fill:none;stroke:#ffff00;stroke-width:0.293709px;stroke-linecap:butt;stroke-linejoin:miter;stroke-opacity:1" d="m 73.497594,193.31026 c -0.198163,0.41818 -0.396244,0.83619 -0.618617,0.78533 -0.222372,-0.0509 -0.469255,-0.57083 -0.716102,-0.82171 -0.246847,-0.25088 -0.493717,-0.23232 -0.66669,-0.1487 -0.172973,0.0836 -0.271732,0.23218 -0.213909,0.36223 0.05782,0.13004 0.271769,0.24145 0.423902,0.4226 0.152134,0.18115 0.242663,0.43186 0.349605,0.96111 0.106942,0.52924 0.230379,1.33701 0.753087,1.79183 0.522707,0.45482 1.444396,0.55696 2.042911,0.34494 0.598514,-0.21202 0.874186,-0.73823 1.149928,-1.26457" id="path1434" inkscape:path-effect="#path-effect1436" inkscape:original-d="m 73.497594,193.31026 c -0.197813,0.41835 -0.395895,0.83636 -0.594271,1.25409 -0.246613,-0.51967 -0.493488,-1.03964 -0.740648,-1.5599 -0.246613,0.019 -0.493496,0.0374 -0.740656,0.0557 -0.09845,0.14888 -0.197227,0.29744 -0.296261,0.44569 0.214255,0.11178 0.428216,0.22316 0.6419,0.33426 0.09082,0.251 0.181333,0.50172 0.271572,0.7521 0.12373,0.80812 0.24716,1.6159 0.37032,2.42339 0.921996,0.10246 1.843685,0.2046 2.765103,0.30643 0.275988,-0.52597 0.551653,-1.05218 0.827056,-1.5787" sodipodi:nodetypes="cccccccccc"/>
    <path style="fill:none;stroke:#ffff00;stroke-width:0.293709px;stroke-linecap:butt;stroke-linejoin:miter;stroke-opacity:1" d="m 76.19798,195.31224 c 0.31925,-0.47948 0.638551,-0.95904 0.761367,-1.3079 0.122817,-0.34885 0.04895,-0.5673 -0.0817,-0.64121 -0.130652,-0.0739 -0.318041,-0.003 -0.516785,0.2169 -0.198743,0.2198 -0.408593,0.58818 -0.618376,0.95645" id="path1442" inkscape:path-effect="#path-effect1444" inkscape:original-d="m 76.19798,195.31224 c 0.319586,-0.47926 0.638886,-0.95882 0.957916,-1.4387 -0.07354,-0.21812 -0.147448,-0.43655 -0.221584,-0.65531 -0.187161,0.0714 -0.374568,0.14237 -0.562275,0.21309 -0.209576,0.3687 -0.419421,0.73709 -0.629551,1.10516" sodipodi:nodetypes="ccccc"/>
    <path style="fill:none;stroke:#ffff00;stroke-width:0.293709px;stroke-linecap:butt;stroke-linejoin:miter;stroke-opacity:1" d="m 75.625839,194.75097 c 0.427245,-0.70531 0.854505,-1.41064 0.970243,-1.81734 0.115737,-0.4067 -0.0805,-0.51463 -0.237262,-0.49903 -0.156767,0.0156 -0.273621,0.15486 -0.466514,0.4778 -0.192894,0.32293 -0.461778,0.82941 -0.73061,1.3358" id="path1442-1" inkscape:path-effect="#path-effect1463" inkscape:original-d="m 75.625839,194.75097 c 0.427576,-0.70511 0.854843,-1.41044 1.281941,-2.11627 -0.196024,-0.10766 -0.392265,-0.21557 -0.588821,-0.32384 -0.116585,0.1396 -0.23344,0.27887 -0.35058,0.41783 -0.268627,0.50682 -0.537501,1.01331 -0.806683,1.51951" sodipodi:nodetypes="ccccc"/>
    <path style="fill:none;stroke:#ffff00;stroke-width:0.322939px;stroke-linecap:butt;stroke-linejoin:miter;stroke-opacity:1" d="m 75.161665,194.2482 c 0.481946,-0.8587 0.963986,-1.71756 1.084052,-2.22574 0.120065,-0.50817 -0.122202,-0.66556 -0.334468,-0.61383 -0.212265,0.0517 -0.393863,0.31261 -0.608715,0.71081 -0.214852,0.39819 -0.462807,0.93338 -0.710675,1.46838" id="path1442-4" inkscape:path-effect="#path-effect1472" inkscape:original-d="m 75.161665,194.2482 c 0.482296,-0.8585 0.964329,-1.71737 1.446163,-2.57667 -0.242112,-0.15714 -0.48437,-0.31454 -0.727067,-0.47233 -0.181449,0.26138 -0.363036,0.52228 -0.545009,0.78299 -0.247723,0.5356 -0.495677,1.07079 -0.743893,1.60563" sodipodi:nodetypes="ccccc"/>
    <path style="fill:none;stroke:#ffff00;stroke-width:0.293709px;stroke-linecap:butt;stroke-linejoin:miter;stroke-opacity:1" d="m 74.591805,193.58782 c 0.292958,-0.63399 0.58592,-1.26799 0.680949,-1.68074 0.09503,-0.41275 -0.0082,-0.60404 -0.162225,-0.65713 -0.154047,-0.0531 -0.358771,0.0325 -0.582389,0.32275 -0.223619,0.29023 -0.465799,0.78467 -0.708062,1.27928" id="path1487" inkscape:path-effect="#path-effect1489" inkscape:original-d="m 74.591805,193.58782 c 0.293309,-0.63383 0.58627,-1.26783 0.87907,-1.9024 -0.103049,-0.19111 -0.206215,-0.38243 -0.309742,-0.57412 -0.204473,0.086 -0.409223,0.17154 -0.614266,0.25685 -0.241996,0.49495 -0.726789,1.48383 -0.726789,1.48383" sodipodi:nodetypes="ccccc"/>
    <path style="fill:none;stroke:#ffff00;stroke-width:0.340061;stroke-linecap:round;stroke-linejoin:miter;stroke-miterlimit:4;stroke-dasharray:none;stroke-opacity:1" d="m 76.762344,196.16538 -3.740817,-3.75884 v 0" id="path1491"/>
    <g aria-label="!" id="text1642" style="font-style:normal;font-variant:normal;font-weight:normal;font-stretch:normal;font-size:15.875px;line-height:1.25;font-family:Amiri;-inkscape-font-specification:Amiri;fill:#ffff00;fill-opacity:1;stroke:none;stroke-width:0.265;stroke-miterlimit:4;stroke-dasharray:none" transform="matrix(0.77080989,0,0,0.77080989,-11.733546,-62.159169)">
      <path d="m 38.868313,336.48727 q -0.255799,-0.26355 -0.255799,-0.61236 0,-0.34882 0.255799,-0.58911 0.26355,-0.24805 0.612366,-0.24805 0.348815,0 0.589111,0.24805 0.248047,0.24029 0.248047,0.58911 0,0.34881 -0.248047,0.61236 -0.240296,0.2558 -0.589111,0.2558 -0.348816,0 -0.612366,-0.2558 z m 0.116272,-10.20868 q 0.217041,-0.27905 0.558105,-0.27905 0.341065,0 0.511597,0.27905 0.170532,0.27906 0.170532,0.62012 0,1.65882 -0.542602,7.00733 -0.09302,0.18603 -0.248047,0.20153 -0.147278,-0.062 -0.201538,-0.17053 -0.465088,-5.34851 -0.465088,-7.03833 0,-0.34106 0.217041,-0.62012 z" style="font-style:normal;font-variant:normal;font-weight:normal;font-stretch:normal;font-size:15.875px;font-family:Amiri;-inkscape-font-specification:Amiri;fill:#ffff00;fill-opacity:1;stroke-width:0.265;stroke-miterlimit:4;stroke-dasharray:none" id="path1644"/>
    </g>
  </g>
</svg>
