<?xml version="1.0" encoding="utf-8"?>
<svg viewBox="0 0 230 250" xmlns="http://www.w3.org/2000/svg" author="https://github.com/macdylan/3dp-configs">
  <path d="M168.42094,224.79203 C168.42294,223.62327 168.43974,221.73632 168.45714,220.59881 L168.48884,218.53062 L168.63679,218.0988 C168.98487,217.08285 169.643,216.32425 170.58369,215.85469 C171.67134,215.31177 173.06345,215.34372 174.11517,215.93579 C175.0314,216.45154 175.72328,217.37067 175.96583,218.3943 C176.04753,218.73913 176.05953,218.89978 176.04213,219.41703 C176.02413,219.95457 176.00363,220.08346 175.87721,220.45635 C175.44831,221.72142 174.44505,222.65911 173.16645,222.98995 C172.68934,223.11341 171.77907,223.10541 171.31841,222.97365 C170.85994,222.84258 170.50908,222.68447 170.18347,222.46222 C170.03716,222.36232 169.907,222.28063 169.89422,222.28063 C169.88142,222.28063 169.87092,223.32382 169.87092,224.59883 L169.87092,226.91703 L169.14365,226.91703 L168.41637,226.91703 L168.42094,224.79203 Z M172.78796,221.5784 C174.08032,221.30449 174.90097,219.99107 174.57228,218.72263 C174.36499,217.92266 173.80179,217.31484 173.01944,217.04676 C172.63102,216.91367 171.93891,216.90195 171.55279,217.02196 C170.57076,217.32707 169.91457,218.23865 169.917083,219.29426 C169.92109,220.81737 171.27917,221.89821 172.78796,221.57844 L172.78796,221.5784 Z M163.33918,223.09819 C162.48404,222.98045 161.77571,222.64068 161.17378,222.05952 C160.0889,221.01209 159.71202,219.47002 160.19128,218.03951 C160.39603,217.42841 160.63829,217.04845 161.13886,216.55334 C161.84018,215.85968 162.58544,215.52716 163.55274,215.47633 C164.40099,215.43173 165.15566,215.61983 165.78199,216.03189 L166.14366,216.26984 L166.14366,215.97359 L166.14366,215.67733 L166.35455,215.70623 C166.47054,215.72213 166.80805,215.73513 167.10456,215.73513 L167.64367,215.73513 L167.64367,219.39425 L167.64367,223.05336 L166.89367,223.05336 L166.14366,223.05336 L166.14366,222.67104 L166.14366,222.28871 L165.83684,222.49465 C165.44356,222.75863 165.14983,222.88743 164.68004,223.0019 C164.22059,223.11386 163.71609,223.15008 163.33918,223.0982 L163.33918,223.09819 Z M164.55492,221.51615 C164.9807,221.36768 165.19854,221.23417 165.48917,220.94354 C166.22123,220.21149 166.36992,219.09298 165.86236,218.13625 C165.49576,217.44523 164.60413,216.91802 163.80274,216.91844 C163.47832,216.91857 162.9819,217.03298 162.68989,217.17486 C162.37798,217.32639 161.87763,217.81702 161.7222,218.12375 C161.35397,218.85043 161.35378,219.71045 161.72174,220.4365 C161.97627,220.93879 162.64829,221.4421 163.24653,221.5785 C163.6111,221.6616 164.22118,221.6325 164.55497,221.5162 L164.55492,221.51615 Z M192.87387,223.0973 C191.27761,222.87752 189.99444,221.70254 189.61561,220.11376 C189.50558,219.65232 189.51621,218.85647 189.63891,218.37294 C189.95273,217.13599 190.86205,216.12098 192.04109,215.69159 C193.08606,215.31101 194.32065,215.41588 195.25689,215.96475 C195.64212,216.19059 195.90021,216.39762 196.24558,216.75788 L196.50704,217.03061 L196.5075,216.36015 L196.50797,215.68969 L196.84888,215.68969 L197.18979,215.68969 L197.18979,219.39426 L197.18979,223.09883 L196.84887,223.09883 L196.50796,223.09883 L196.50716,222.31474 L196.50636,221.53064 L196.29156,221.77774 C195.98194,222.13392 195.46746,222.52669 195.03922,222.73382 C194.40616,223.04002 193.52893,223.18735 192.87494,223.0973 L192.87387,223.0973 Z M194.31815,222.26885 C196.02379,221.66447 196.91035,219.79503 196.28073,218.13045 C195.86144,217.02188 194.74087,216.2251 193.50747,216.15853 C192.93669,216.12773 192.51613,216.21813 191.96541,216.49004 C191.23771,216.84932 190.60695,217.57274 190.36452,218.32607 C190.22979,218.74472 190.19979,219.4828 190.29932,219.93016 C190.55279,221.06946 191.51233,222.06724 192.62312,222.34659 C193.05868,222.45612 193.89832,222.41759 194.31814,222.26889 L194.31815,222.26885 Z M211.91653,223.10641 C211.85493,223.08581 211.85653,219.12504 211.91853,218.74491 C212.20186,216.99894 213.6247,215.61777 215.28242,215.47952 L215.64422,215.44942 L215.64469,215.62641 C215.64515,215.72381 215.65779,215.88011 215.67339,215.97385 L215.70159,216.14431 L215.52519,216.14501 C215.20959,216.14701 214.71959,216.2752 214.38198,216.44548 C213.7364,216.77107 213.03462,217.49365 212.82397,218.04967 C212.61375,218.60455 212.59877,218.80155 212.59877,221.01086 C212.59877,222.15923 212.58347,223.09974 212.56467,223.10088 C212.33235,223.11498 211.95215,223.11828 211.91679,223.10688 L211.91653,223.10641 Z M146.5299,223.03191 C145.80079,222.91564 144.59807,222.51222 144.59807,222.38393 C144.59807,222.29153 145.00142,221.36662 145.08116,221.27616 C145.13956,221.20986 145.17766,221.21496 145.50837,221.33196 C145.98616,221.50103 146.97706,221.64401 147.66627,221.64332 C148.56086,221.64252 149.14749,221.4659 149.4804,221.09741 C149.66772,220.89007 149.68702,220.74215 149.5516,220.5519 C149.36065,220.28374 148.95702,220.16064 147.68905,219.98382 C146.42617,219.80773 145.58579,219.48288 145.02606,218.95445 C144.60665,218.55849 144.42542,218.04727 144.51154,217.50308 C144.65889,216.57212 145.40198,215.90541 146.6667,215.56947 C147.077,215.46048 147.20207,215.44853 147.96178,215.44567 C148.58937,215.44367 148.918,215.46357 149.25724,215.52527 C149.97996,215.65677 150.91634,215.97971 150.91634,216.09746 C150.91634,216.20901 150.44234,217.28074 150.39301,217.28074 C150.36191,217.28074 150.26064,217.24904 150.16789,217.21034 C149.88972,217.09412 149.20421,216.96748 148.55878,216.91309 C147.89458,216.85719 147.1724,216.90509 146.7391,217.03364 C146.28051,217.16983 146.04905,217.51162 146.20769,217.81839 C146.38396,218.15927 146.88019,218.35613 148.06529,218.55536 C149.12989,218.73433 149.45695,218.80964 149.83145,218.96204 C150.27125,219.14101 150.54575,219.31307 150.78756,219.56134 C151.48935,220.28184 151.43593,221.34525 150.65915,222.11787 C150.25285,222.52198 149.48036,222.89431 148.7646,223.03099 C148.32564,223.11479 147.05276,223.11539 146.52995,223.03179 L146.5299,223.03191 Z M151.84815,221.17843 C151.87955,218.72264 151.88195,218.6903 152.07393,218.11657 C152.56638,216.6449 153.55363,215.79874 155.09272,215.5292 C157.01659,215.19227 158.78722,216.32664 159.34572,218.25392 L159.4618,218.65449 L159.4618,220.8767 L159.4618,223.0989 L158.75725,223.0989 L158.0527,223.0989 L158.0519,221.01934 C158.0511,218.98748 158.0489,218.93294 157.9491,218.64169 C157.5981,217.6121 156.66615,216.91704 155.63665,216.91704 C154.989,216.91704 154.56478,217.08546 154.10828,217.52381 C153.7026,217.91336 153.49377,218.2458 153.37256,218.69499 C153.27255,219.06562 153.27137,219.10295 153.29646,221.0852 L153.32196,223.0989 L152.57295,223.0989 L151.82394,223.0989 L151.84815,221.17843 Z M177.35415,220.58751 C177.38085,217.93955 177.39275,217.78357 177.60664,217.2841 C177.74711,216.95607 178.083,216.48558 178.35263,216.23916 C178.87935,215.75776 179.5021,215.51376 180.30295,215.475 C180.89482,215.4464 181.31902,215.5404 181.846,215.81717 C182.22295,216.01514 182.73001,216.47572 182.95275,216.82248 C183.08644,217.03062 183.11882,217.05771 183.16146,216.99713 C183.65603,216.29466 183.95243,216.02361 184.51356,215.7606 C186.14307,214.99684 188.07929,215.7656 188.64718,217.40179 C188.86261,218.02247 188.87109,218.14701 188.87109,220.69276 L188.87109,223.09893 L188.50745,223.09893 L188.1438,223.09893 L188.1438,220.60713 C188.1438,217.88491 188.1458,217.91666 187.87075,217.37159 C187.42685,216.49408 186.344,215.99439 185.34302,216.20514 C184.51532,216.37941 183.92171,216.90576 183.59465,217.75542 L183.47119,218.07613 L183.45379,220.53969 C183.44379,221.89464 183.41999,223.01965 183.39989,223.0397 C183.37989,223.0597 183.22708,223.0762 183.06039,223.0762 L182.75734,223.0762 L182.73454,220.53072 C182.71234,218.04585 182.70944,217.97894 182.61166,217.72014 C182.45856,217.31487 182.31001,217.09102 182.00954,216.81283 C181.25536,216.1146 180.19739,215.95278 179.31319,216.40042 C179.01916,216.54928 178.47925,217.0886 178.31477,217.39774 C178.05785,217.88064 178.05269,217.94441 178.05269,220.63119 L178.05269,223.09893 L177.6907,223.09893 L177.32872,223.09893 L177.35415,220.58751 Z M198.32569,217.34886 L198.32569,211.59882 L198.6666,211.59882 L199.00751,211.59882 L199.00751,215.43976 C199.00751,217.55227 199.02291,219.28004 199.04161,219.27924 C199.06041,219.27854 199.94502,218.41975 201.00752,217.37104 L202.93935,215.46431 L203.43936,215.46631 L203.93937,215.46831 L202.00753,217.37597 L200.0757,219.28362 L201.98271,221.16217 L203.88972,223.04072 L203.4478,223.07322 L203.00587,223.10572 L202.76807,222.9001 C202.63728,222.78701 201.8759,222.03952 201.07612,221.239 L199.62197,219.78353 L199.33747,220.0655 L199.05297,220.34748 L199.05297,221.00788 C199.05297,221.37111 199.03947,221.99045 199.02317,222.3842 L198.99347,223.10012 L198.65967,223.10012 L198.32587,223.10012 L198.32587,217.35008 L198.32569,217.34886 Z M206.66665,223.03327 C206.22994,222.93083 205.87173,222.79139 205.5418,222.59538 C204.68428,222.08594 204.14348,221.41418 203.82045,220.45721 C203.55022,219.65666 203.59034,218.64088 203.92387,217.83886 C204.3722,216.7608 205.37024,215.87757 206.48483,215.57254 C206.88874,215.46199 207.72275,215.43708 208.17304,215.52214 C209.04453,215.6867 209.85139,216.15763 210.40084,216.82243 C210.6319,217.102 210.96117,217.66459 210.91572,217.70216 C210.90382,217.71216 210.59736,217.88999 210.23486,218.09758 C209.60685,218.45722 208.07962,219.33638 205.97347,220.5507 C205.41454,220.87294 205.00756,221.13542 205.00756,221.17364 C205.00756,221.20994 205.15585,221.3872 205.3371,221.5675 C205.90174,222.12916 206.55566,222.38775 207.41666,222.38987 C208.66422,222.39287 209.70206,221.77539 210.20411,220.73127 C210.31725,220.49598 210.44342,220.18074 210.4845,220.03074 L210.5592,219.75801 L210.92495,219.56512 L211.29071,219.37224 L211.26001,219.63331 C211.20421,220.10777 211.09359,220.47963 210.87117,220.93983 C210.39618,221.92269 209.53614,222.65095 208.47327,222.97033 C208.06986,223.09154 207.06435,223.1266 206.66663,223.03333 L206.66665,223.03327 Z M205.67174,219.91058 C206.24395,219.58202 207.26438,218.99536 207.93938,218.6069 C208.61439,218.21842 209.33796,217.80357 209.54732,217.68499 C209.75668,217.56641 209.94746,217.4499 209.97127,217.42608 C210.02677,217.37058 209.40216,216.81582 209.0296,216.5895 C208.16021,216.06137 207.01721,216.00078 206.11657,216.43507 C205.31654,216.82084 204.72879,217.5119 204.45341,218.39054 C204.33861,218.75687 204.29691,219.46595 204.36851,219.83475 C204.41991,220.09941 204.56787,220.50797 204.61237,220.50797 C204.62287,220.50797 205.09955,220.23915 205.67175,219.91058 L205.67174,219.91058 Z" id="path24" style="fill: rgb(209, 209, 211);"/>
  <path d="M 132.885 8.611 C 132.759 8.718 132.589 8.771 132.376 8.771 C 132.214 8.771 132.074 8.737 131.957 8.668 C 131.839 8.61 131.743 8.534 131.67 8.44 C 131.58 8.342 131.521 8.214 131.492 8.055 C 131.459 7.897 131.442 7.594 131.442 7.146 C 131.442 6.698 131.459 6.393 131.492 6.23 C 131.521 6.076 131.58 5.95 131.67 5.852 C 131.743 5.758 131.839 5.68 131.957 5.618 C 132.074 5.558 132.214 5.525 132.376 5.521 C 132.541 5.525 132.684 5.558 132.804 5.618 C 132.919 5.68 133.011 5.758 133.079 5.852 C 133.169 5.95 133.231 6.076 133.264 6.23 C 133.295 6.393 133.31 6.698 133.31 7.146 C 133.31 7.628 133.289 7.945 133.245 8.099 L 132.714 7.677 L 132.304 8.149 L 132.885 8.611 Z M 133.451 9.065 L 134.026 9.527 L 134.435 9.052 L 133.835 8.574 C 133.898 8.47 133.943 8.324 133.97 8.136 C 133.991 7.949 134.001 7.619 134.001 7.146 C 134.001 6.617 133.988 6.263 133.96 6.083 C 133.932 5.905 133.879 5.76 133.801 5.649 C 133.695 5.439 133.522 5.251 133.282 5.086 C 133.041 4.92 132.739 4.834 132.376 4.83 C 132.018 4.834 131.719 4.92 131.479 5.086 C 131.236 5.251 131.059 5.439 130.948 5.649 C 130.88 5.76 130.829 5.905 130.795 6.083 C 130.764 6.263 130.748 6.617 130.748 7.146 C 130.748 7.667 130.764 8.019 130.795 8.202 C 130.812 8.3 130.833 8.382 130.857 8.446 C 130.885 8.509 130.915 8.575 130.948 8.643 C 131.059 8.853 131.236 9.039 131.479 9.199 C 131.719 9.366 132.018 9.453 132.376 9.461 C 132.824 9.453 133.183 9.321 133.451 9.065 Z M 134.743 8.336 C 134.748 8.703 134.868 8.98 135.103 9.168 C 135.32 9.36 135.563 9.457 135.831 9.461 C 136.177 9.461 136.457 9.333 136.671 9.077 L 136.684 9.077 L 136.684 9.424 L 137.337 9.424 L 137.337 6.18 L 136.684 6.18 L 136.684 8.111 C 136.684 8.331 136.624 8.502 136.503 8.624 C 136.385 8.747 136.231 8.808 136.043 8.808 C 135.856 8.808 135.702 8.747 135.581 8.624 C 135.458 8.502 135.396 8.331 135.396 8.111 L 135.396 6.18 L 134.743 6.18 L 134.743 8.336 Z M 138.2 9.424 L 138.853 9.424 L 138.853 6.18 L 138.2 6.18 L 138.2 9.424 Z M 138.2 5.521 L 138.853 5.521 L 138.853 4.868 L 138.2 4.868 L 138.2 5.521 Z M 141.618 8.471 C 141.454 8.692 141.234 8.804 140.959 8.808 C 140.405 8.819 140.124 8.485 140.115 7.805 C 140.124 7.122 140.405 6.785 140.959 6.793 C 141.234 6.801 141.454 6.915 141.618 7.133 L 142.1 6.705 C 141.958 6.535 141.792 6.398 141.6 6.296 C 141.408 6.196 141.186 6.144 140.934 6.14 C 140.551 6.136 140.215 6.264 139.925 6.524 C 139.625 6.789 139.471 7.216 139.462 7.805 C 139.471 8.389 139.625 8.811 139.925 9.071 C 140.215 9.331 140.551 9.461 140.934 9.461 C 141.186 9.457 141.408 9.402 141.6 9.296 C 141.792 9.194 141.958 9.062 142.1 8.899 L 141.618 8.471 Z M 142.556 9.424 L 143.209 9.424 L 143.209 8.49 L 143.721 7.908 L 144.584 9.424 L 145.403 9.424 L 144.131 7.446 L 145.25 6.18 L 144.468 6.18 L 143.221 7.702 L 143.209 7.702 L 143.209 4.868 L 142.556 4.868 L 142.556 9.424 Z M 147.531 8.318 L 147.078 8.836 C 147.564 9.253 148.144 9.461 148.818 9.461 C 149.862 9.449 150.396 9.008 150.418 8.136 C 150.418 7.814 150.317 7.53 150.115 7.286 C 149.911 7.039 149.596 6.886 149.168 6.827 C 148.952 6.8 148.781 6.776 148.656 6.755 C 148.431 6.714 148.267 6.639 148.165 6.53 C 148.063 6.424 148.012 6.306 148.012 6.174 C 148.016 5.956 148.092 5.791 148.24 5.68 C 148.382 5.574 148.559 5.521 148.771 5.521 C 149.182 5.529 149.558 5.646 149.9 5.871 L 150.284 5.302 C 149.866 5 149.373 4.843 148.806 4.83 C 148.336 4.834 147.972 4.957 147.715 5.199 C 147.451 5.443 147.318 5.764 147.318 6.161 C 147.318 6.493 147.424 6.774 147.634 7.005 C 147.838 7.231 148.136 7.376 148.528 7.44 C 148.747 7.471 148.948 7.499 149.131 7.524 C 149.531 7.593 149.729 7.797 149.725 8.136 C 149.717 8.551 149.417 8.763 148.825 8.771 C 148.325 8.767 147.894 8.616 147.531 8.318 Z M 153.659 9.424 L 154.237 9.424 L 155.271 6.18 L 154.581 6.18 L 153.962 8.452 L 153.95 8.452 L 153.212 6.18 L 152.74 6.18 L 152.003 8.452 L 151.99 8.452 L 151.368 6.18 L 150.678 6.18 L 151.715 9.424 L 152.29 9.424 L 152.968 7.152 L 152.981 7.152 L 153.659 9.424 Z M 157.407 9.424 L 158.06 9.424 L 158.06 7.208 C 158.056 6.813 157.933 6.534 157.689 6.371 C 157.445 6.213 157.119 6.136 156.71 6.14 C 156.227 6.132 155.862 6.29 155.614 6.615 L 156.126 7.005 C 156.182 6.912 156.259 6.845 156.357 6.805 C 156.451 6.772 156.58 6.755 156.742 6.755 C 157.19 6.747 157.412 6.886 157.407 7.171 L 157.407 7.511 L 156.504 7.511 C 156.158 7.516 155.896 7.61 155.717 7.793 C 155.538 7.972 155.448 8.198 155.448 8.471 C 155.448 8.757 155.551 8.991 155.757 9.174 C 155.953 9.362 156.233 9.457 156.595 9.461 C 156.816 9.461 156.989 9.434 157.114 9.38 C 157.241 9.328 157.335 9.247 157.395 9.136 L 157.407 9.136 L 157.407 9.424 Z M 157.407 8.283 C 157.407 8.527 157.356 8.684 157.254 8.752 C 157.142 8.821 156.949 8.853 156.676 8.849 C 156.46 8.849 156.304 8.807 156.21 8.721 C 156.113 8.644 156.064 8.55 156.064 8.44 C 156.06 8.188 156.247 8.057 156.626 8.049 L 157.407 8.049 L 157.407 8.283 Z M 158.907 10.736 L 159.56 10.736 L 159.56 9.077 C 159.68 9.194 159.81 9.286 159.951 9.352 C 160.083 9.425 160.232 9.461 160.398 9.461 C 160.6 9.457 160.773 9.417 160.917 9.34 C 161.063 9.265 161.18 9.165 161.27 9.04 C 161.36 8.934 161.421 8.797 161.454 8.63 C 161.486 8.464 161.501 8.189 161.501 7.805 C 161.501 7.412 161.486 7.133 161.454 6.968 C 161.421 6.802 161.36 6.667 161.27 6.565 C 161.087 6.292 160.796 6.15 160.398 6.14 C 160.056 6.15 159.777 6.276 159.56 6.518 L 159.56 6.18 L 158.907 6.18 L 158.907 10.736 Z M 160.201 8.808 C 160.055 8.808 159.94 8.777 159.854 8.715 C 159.765 8.655 159.699 8.575 159.657 8.477 C 159.618 8.379 159.592 8.27 159.579 8.149 C 159.567 8.035 159.56 7.92 159.56 7.805 C 159.56 7.683 159.567 7.561 159.579 7.44 C 159.592 7.326 159.618 7.219 159.657 7.121 C 159.699 7.023 159.765 6.944 159.854 6.883 C 159.94 6.823 160.055 6.793 160.201 6.793 C 160.355 6.793 160.477 6.819 160.567 6.871 C 160.657 6.927 160.72 7.004 160.757 7.102 C 160.799 7.196 160.828 7.305 160.842 7.427 C 160.846 7.55 160.848 7.676 160.848 7.805 C 160.848 7.929 160.846 8.049 160.842 8.165 C 160.828 8.284 160.799 8.392 160.757 8.49 C 160.72 8.584 160.657 8.661 160.567 8.721 C 160.477 8.779 160.355 8.808 160.201 8.808 Z M 163.818 9.424 L 164.509 9.424 L 164.509 8.036 L 165.309 7.196 L 166.55 9.424 L 167.368 9.424 L 165.756 6.665 L 167.215 4.868 L 166.396 4.868 L 164.521 7.215 L 164.509 7.215 L 164.509 4.868 L 163.818 4.868 L 163.818 9.424 Z M 167.809 9.424 L 168.462 9.424 L 168.462 6.18 L 167.809 6.18 L 167.809 9.424 Z M 167.809 5.521 L 168.462 5.521 L 168.462 4.868 L 167.809 4.868 L 167.809 5.521 Z M 169.367 6.18 L 169.042 6.18 L 169.042 6.677 L 169.367 6.677 L 169.367 8.624 C 169.367 8.88 169.442 9.076 169.592 9.211 C 169.738 9.353 169.925 9.424 170.154 9.424 L 170.495 9.424 L 170.495 8.808 L 170.251 8.808 C 170.093 8.813 170.016 8.733 170.02 8.568 L 170.02 6.677 L 170.495 6.677 L 170.495 6.18 L 170.02 6.18 L 170.02 5.193 L 169.367 5.193 L 169.367 6.18 Z M 172.701 9.424 L 173.392 9.424 L 173.392 4.868 L 172.701 4.868 L 172.701 9.424 Z M 174.29 9.424 L 174.943 9.424 L 174.943 7.493 C 174.943 7.266 175.005 7.093 175.128 6.974 C 175.249 6.854 175.403 6.793 175.59 6.793 C 175.778 6.793 175.931 6.854 176.05 6.974 C 176.171 7.093 176.231 7.266 176.231 7.493 L 176.231 9.424 L 176.884 9.424 L 176.884 7.268 C 176.874 6.897 176.758 6.616 176.537 6.424 C 176.315 6.235 176.069 6.14 175.8 6.14 C 175.452 6.14 175.171 6.268 174.956 6.524 L 174.943 6.524 L 174.943 6.18 L 174.29 6.18 L 174.29 9.424 Z M 177.825 8.433 L 177.368 8.88 C 177.792 9.268 178.268 9.461 178.796 9.461 C 179.186 9.457 179.506 9.368 179.756 9.193 C 180.008 9.022 180.136 8.779 180.14 8.465 C 180.14 8.196 180.071 7.974 179.931 7.799 C 179.781 7.62 179.538 7.518 179.2 7.493 L 178.662 7.452 C 178.504 7.436 178.394 7.397 178.331 7.336 C 178.263 7.282 178.23 7.219 178.234 7.146 C 178.234 7.032 178.277 6.938 178.362 6.865 C 178.444 6.792 178.586 6.755 178.79 6.755 C 178.97 6.755 179.128 6.781 179.265 6.833 C 179.405 6.892 179.538 6.966 179.662 7.055 L 180.065 6.583 C 179.907 6.446 179.728 6.337 179.528 6.255 C 179.424 6.218 179.312 6.189 179.193 6.168 C 179.075 6.15 178.94 6.14 178.79 6.14 C 178.444 6.14 178.159 6.224 177.934 6.39 C 177.703 6.557 177.585 6.807 177.581 7.14 C 177.585 7.417 177.675 7.632 177.85 7.786 C 178.021 7.945 178.243 8.037 178.515 8.061 L 179.09 8.111 C 179.211 8.116 179.308 8.142 179.381 8.19 C 179.452 8.236 179.487 8.317 179.487 8.433 C 179.487 8.565 179.428 8.667 179.309 8.74 C 179.191 8.813 179.038 8.849 178.85 8.849 C 178.431 8.849 178.089 8.711 177.825 8.433 Z M 180.835 6.18 L 180.51 6.18 L 180.51 6.677 L 180.835 6.677 L 180.835 8.624 C 180.835 8.88 180.91 9.076 181.06 9.211 C 181.206 9.353 181.394 9.424 181.623 9.424 L 181.964 9.424 L 181.964 8.808 L 181.72 8.808 C 181.562 8.813 181.485 8.733 181.489 8.568 L 181.489 6.677 L 181.964 6.677 L 181.964 6.18 L 181.489 6.18 L 181.489 5.193 L 180.835 5.193 L 180.835 6.18 Z M 184.282 9.424 L 184.935 9.424 L 184.935 7.208 C 184.931 6.813 184.808 6.534 184.564 6.371 C 184.32 6.213 183.994 6.136 183.585 6.14 C 183.102 6.132 182.737 6.29 182.489 6.615 L 183.001 7.005 C 183.057 6.912 183.134 6.845 183.232 6.805 C 183.326 6.772 183.455 6.755 183.617 6.755 C 184.065 6.747 184.287 6.886 184.282 7.171 L 184.282 7.511 L 183.379 7.511 C 183.033 7.516 182.771 7.61 182.592 7.793 C 182.413 7.972 182.323 8.198 182.323 8.471 C 182.323 8.757 182.426 8.991 182.632 9.174 C 182.828 9.362 183.108 9.457 183.47 9.461 C 183.691 9.461 183.864 9.434 183.989 9.38 C 184.116 9.328 184.21 9.247 184.27 9.136 L 184.282 9.136 L 184.282 9.424 Z M 184.282 8.283 C 184.282 8.527 184.231 8.684 184.129 8.752 C 184.017 8.821 183.824 8.853 183.551 8.849 C 183.335 8.849 183.179 8.807 183.085 8.721 C 182.988 8.644 182.939 8.55 182.939 8.44 C 182.935 8.188 183.122 8.057 183.501 8.049 L 184.282 8.049 L 184.282 8.283 Z M 185.775 8.636 C 185.775 8.922 185.856 9.126 186.018 9.246 C 186.173 9.365 186.369 9.424 186.606 9.424 L 186.896 9.424 L 186.896 8.808 L 186.671 8.808 C 186.509 8.808 186.428 8.734 186.428 8.586 L 186.428 4.868 L 185.775 4.868 L 185.775 8.636 Z M 187.431 8.636 C 187.431 8.922 187.513 9.126 187.675 9.246 C 187.829 9.365 188.025 9.424 188.262 9.424 L 188.553 9.424 L 188.553 8.808 L 188.328 8.808 C 188.166 8.808 188.084 8.734 188.084 8.586 L 188.084 4.868 L 187.431 4.868 L 187.431 8.636 Z M 191.595 8.049 L 191.595 7.511 C 191.591 7.085 191.459 6.749 191.198 6.505 C 190.942 6.266 190.629 6.144 190.257 6.14 C 190.103 6.14 189.947 6.168 189.789 6.224 C 189.629 6.28 189.484 6.372 189.354 6.499 C 189.228 6.624 189.124 6.795 189.042 7.011 C 188.961 7.224 188.92 7.491 188.92 7.811 C 188.92 8.145 188.967 8.416 189.06 8.624 C 189.146 8.841 189.258 9.01 189.395 9.13 C 189.466 9.189 189.542 9.238 189.623 9.277 C 189.701 9.323 189.78 9.36 189.86 9.386 C 190.023 9.436 190.19 9.461 190.36 9.461 C 190.808 9.466 191.198 9.291 191.529 8.936 L 191.057 8.533 C 190.849 8.744 190.613 8.849 190.348 8.849 C 190.121 8.849 189.938 8.781 189.798 8.643 C 189.648 8.508 189.573 8.31 189.573 8.049 L 191.595 8.049 Z M 189.573 7.511 C 189.586 7.259 189.654 7.069 189.776 6.94 C 189.902 6.817 190.062 6.755 190.257 6.755 C 190.453 6.755 190.614 6.817 190.739 6.94 C 190.866 7.069 190.934 7.259 190.942 7.511 L 189.573 7.511 Z M 194.215 9.083 L 194.215 9.424 L 194.868 9.424 L 194.868 4.868 L 194.215 4.868 L 194.215 6.524 C 194.095 6.41 193.969 6.316 193.837 6.243 C 193.696 6.175 193.542 6.14 193.375 6.14 C 192.979 6.15 192.69 6.292 192.506 6.565 C 192.416 6.667 192.357 6.802 192.328 6.968 C 192.293 7.133 192.275 7.41 192.275 7.799 C 192.275 8.183 192.293 8.458 192.328 8.624 C 192.357 8.799 192.416 8.938 192.506 9.04 C 192.604 9.165 192.726 9.265 192.871 9.34 C 193.011 9.417 193.179 9.457 193.375 9.461 C 193.721 9.453 194.001 9.327 194.215 9.083 Z M 193.575 6.793 C 193.729 6.793 193.851 6.823 193.94 6.883 C 194.03 6.944 194.092 7.023 194.125 7.121 C 194.167 7.219 194.195 7.326 194.209 7.44 C 194.213 7.554 194.215 7.674 194.215 7.799 C 194.215 7.914 194.213 8.031 194.209 8.149 C 194.195 8.27 194.167 8.379 194.125 8.477 C 194.092 8.575 194.03 8.655 193.94 8.715 C 193.851 8.777 193.729 8.808 193.575 8.808 C 193.421 8.808 193.303 8.779 193.221 8.721 C 193.132 8.661 193.067 8.584 193.025 8.49 C 192.985 8.392 192.959 8.282 192.946 8.158 C 192.934 8.042 192.928 7.922 192.928 7.799 C 192.928 7.67 192.934 7.544 192.946 7.421 C 192.959 7.307 192.985 7.2 193.025 7.102 C 193.067 7.004 193.132 6.927 193.221 6.871 C 193.303 6.819 193.421 6.793 193.575 6.793 Z" style="white-space: pre;"/>
  <line x1="0" y1="15" x2="230" y2="15" id="line-2" stroke-width="0.265" style="paint-order: fill; stroke-dasharray: 2px; stroke: rgb(255, 0, 0);"/>
</svg>
