<?xml version="1.0" encoding="utf-8"?>
<svg viewBox="0 0 320 350" width="320px" height="350px" xmlns="http://www.w3.org/2000/svg">
  <path d="M 242.541 323.167 L 241.056 323.167 L 240.749 324.259 L 240.31 324.259 L 241.684 319.569 L 241.906 319.569 L 243.286 324.259 L 242.851 324.259 Z M 241.17 322.764 L 242.43 322.764 L 241.811 320.603 L 241.798 320.43 L 241.785 320.603 Z M 246.323 323.173 Q 246.323 323.412 246.233 323.621 Q 246.143 323.831 245.986 323.988 Q 245.829 324.145 245.62 324.234 Q 245.41 324.324 245.172 324.324 L 244.972 324.324 Q 244.733 324.324 244.522 324.234 Q 244.311 324.145 244.155 323.988 Q 243.998 323.831 243.908 323.621 Q 243.818 323.412 243.818 323.173 L 243.818 323.052 L 244.24 322.987 L 244.24 323.173 Q 244.24 323.33 244.298 323.466 Q 244.357 323.602 244.46 323.705 Q 244.563 323.808 244.699 323.867 Q 244.835 323.925 244.992 323.925 L 245.152 323.925 Q 245.309 323.925 245.445 323.867 Q 245.58 323.808 245.682 323.705 Q 245.783 323.602 245.842 323.466 Q 245.901 323.33 245.901 323.173 L 245.901 322.784 Q 245.901 322.627 245.842 322.491 Q 245.783 322.356 245.682 322.254 Q 245.58 322.153 245.445 322.094 Q 245.309 322.035 245.152 322.035 L 244.838 322.035 L 244.838 321.633 L 245.152 321.633 Q 245.309 321.633 245.445 321.574 Q 245.58 321.515 245.682 321.414 Q 245.783 321.312 245.842 321.177 Q 245.901 321.041 245.901 320.884 L 245.901 320.655 Q 245.901 320.498 245.842 320.362 Q 245.783 320.227 245.682 320.125 Q 245.58 320.024 245.445 319.965 Q 245.309 319.906 245.152 319.906 L 244.992 319.906 Q 244.835 319.906 244.699 319.965 Q 244.563 320.024 244.46 320.125 Q 244.357 320.227 244.298 320.362 Q 244.24 320.498 244.24 320.655 L 244.24 320.845 L 243.818 320.776 L 243.818 320.655 Q 243.818 320.416 243.908 320.207 Q 243.998 319.998 244.155 319.841 Q 244.311 319.684 244.522 319.594 Q 244.733 319.504 244.972 319.504 L 245.172 319.504 Q 245.41 319.504 245.62 319.594 Q 245.829 319.684 245.986 319.841 Q 246.143 319.998 246.233 320.207 Q 246.323 320.416 246.323 320.655 L 246.323 320.815 Q 246.323 320.982 246.279 321.134 Q 246.234 321.286 246.154 321.417 Q 246.074 321.548 245.963 321.654 Q 245.852 321.761 245.714 321.836 Q 245.852 321.908 245.963 322.014 Q 246.074 322.12 246.154 322.251 Q 246.234 322.382 246.279 322.534 Q 246.323 322.686 246.323 322.853 L 246.323 323.173 Z M 249.731 323.173 Q 249.731 323.412 249.641 323.621 Q 249.551 323.831 249.394 323.988 Q 249.237 324.145 249.028 324.234 Q 248.818 324.324 248.58 324.324 L 248.38 324.324 Q 248.141 324.324 247.93 324.234 Q 247.719 324.145 247.562 323.988 Q 247.406 323.831 247.316 323.621 Q 247.226 323.412 247.226 323.173 L 247.226 323.101 L 247.648 323.101 L 247.648 323.173 Q 247.648 323.33 247.706 323.466 Q 247.765 323.602 247.868 323.705 Q 247.971 323.808 248.107 323.867 Q 248.243 323.925 248.4 323.925 L 248.56 323.925 Q 248.717 323.925 248.853 323.867 Q 248.988 323.808 249.09 323.705 Q 249.191 323.602 249.25 323.466 Q 249.309 323.33 249.309 323.173 L 249.309 322.264 Q 249.309 322.107 249.25 321.971 Q 249.191 321.836 249.09 321.733 Q 248.988 321.63 248.853 321.571 Q 248.717 321.512 248.56 321.512 L 248.4 321.512 Q 248.243 321.512 248.107 321.571 Q 247.971 321.63 247.868 321.733 Q 247.765 321.836 247.706 321.971 Q 247.648 322.107 247.648 322.264 L 247.226 322.264 L 247.494 319.569 L 249.498 319.569 L 249.498 319.972 L 247.89 319.972 L 247.736 321.414 Q 247.886 321.27 248.086 321.19 Q 248.285 321.11 248.514 321.11 L 248.58 321.11 Q 248.818 321.11 249.028 321.2 Q 249.237 321.29 249.394 321.447 Q 249.551 321.604 249.641 321.814 Q 249.731 322.025 249.731 322.264 L 249.731 323.173 Z M 253.108 323.173 Q 253.108 323.412 253.018 323.621 Q 252.928 323.831 252.771 323.988 Q 252.614 324.145 252.405 324.234 Q 252.195 324.324 251.957 324.324 L 251.757 324.324 Q 251.518 324.324 251.307 324.234 Q 251.096 324.145 250.939 323.988 Q 250.782 323.831 250.693 323.621 Q 250.603 323.412 250.603 323.173 L 250.603 320.655 Q 250.603 320.416 250.693 320.207 Q 250.782 319.998 250.939 319.841 Q 251.096 319.684 251.307 319.594 Q 251.518 319.504 251.757 319.504 L 251.957 319.504 Q 252.195 319.504 252.405 319.594 Q 252.614 319.684 252.771 319.841 Q 252.928 319.998 253.018 320.207 Q 253.108 320.416 253.108 320.655 L 253.108 323.173 Z M 252.686 320.655 Q 252.686 320.498 252.627 320.362 Q 252.568 320.227 252.467 320.125 Q 252.365 320.024 252.23 319.965 Q 252.094 319.906 251.937 319.906 L 251.777 319.906 Q 251.62 319.906 251.484 319.965 Q 251.348 320.024 251.245 320.125 Q 251.142 320.227 251.083 320.362 Q 251.024 320.498 251.024 320.655 L 251.024 323.173 Q 251.024 323.33 251.083 323.466 Q 251.142 323.602 251.245 323.705 Q 251.348 323.808 251.484 323.867 Q 251.62 323.925 251.777 323.925 L 251.937 323.925 Q 252.094 323.925 252.23 323.867 Q 252.365 323.808 252.467 323.705 Q 252.568 323.602 252.627 323.466 Q 252.686 323.33 252.686 323.173 Z" transform="matrix(2.143394, 0, 0, 2.388948, -274.939209, -458.938904)" style="fill: rgb(209, 209, 211);"/>
  <path d="M 255.223 324.661 L 257.09 319.17 L 257.512 319.17 L 255.645 324.661 Z M 262.36 323.108 Q 262.36 323.347 262.271 323.556 Q 262.181 323.765 262.024 323.922 Q 261.867 324.079 261.656 324.169 Q 261.445 324.259 261.206 324.259 L 259.721 324.259 L 259.721 319.569 L 261.206 319.569 Q 261.445 319.569 261.656 319.659 Q 261.867 319.749 262.024 319.906 Q 262.181 320.063 262.271 320.274 Q 262.36 320.485 262.36 320.724 L 262.36 323.108 Z M 261.939 320.724 Q 261.939 320.567 261.88 320.431 Q 261.821 320.295 261.718 320.192 Q 261.615 320.089 261.479 320.031 Q 261.343 319.972 261.186 319.972 L 260.143 319.972 L 260.143 323.857 L 261.186 323.857 Q 261.343 323.857 261.479 323.798 Q 261.615 323.739 261.718 323.638 Q 261.821 323.536 261.88 323.401 Q 261.939 323.265 261.939 323.108 Z M 265.332 324.259 L 265.11 323.919 Q 264.972 324.105 264.766 324.215 Q 264.56 324.324 264.315 324.324 L 264.214 324.324 Q 264.011 324.324 263.831 324.248 Q 263.651 324.171 263.517 324.037 Q 263.383 323.903 263.306 323.723 Q 263.229 323.543 263.229 323.34 L 263.229 320.91 L 263.632 320.91 L 263.632 323.363 Q 263.632 323.484 263.677 323.59 Q 263.723 323.697 263.802 323.775 Q 263.88 323.853 263.986 323.899 Q 264.093 323.945 264.214 323.945 L 264.482 323.945 Q 264.603 323.945 264.709 323.899 Q 264.815 323.853 264.894 323.775 Q 264.972 323.697 265.018 323.59 Q 265.064 323.484 265.064 323.363 L 265.064 320.91 L 265.466 320.91 L 265.466 324.259 Z M 268.372 324.259 L 268.149 323.925 Q 268.012 324.105 267.806 324.215 Q 267.6 324.324 267.355 324.324 L 267.253 324.324 Q 267.051 324.324 266.871 324.248 Q 266.691 324.171 266.557 324.037 Q 266.423 323.903 266.346 323.723 Q 266.269 323.543 266.269 323.34 L 266.269 323.307 Q 266.269 323.105 266.346 322.925 Q 266.423 322.745 266.557 322.611 Q 266.691 322.477 266.871 322.4 Q 267.051 322.323 267.253 322.323 L 268.104 322.323 L 268.104 321.806 Q 268.104 321.685 268.058 321.579 Q 268.012 321.473 267.934 321.394 Q 267.855 321.316 267.749 321.27 Q 267.642 321.224 267.521 321.224 L 267.286 321.224 Q 267.165 321.224 267.059 321.27 Q 266.952 321.316 266.874 321.394 Q 266.795 321.473 266.75 321.579 Q 266.704 321.685 266.704 321.806 L 266.704 321.927 L 266.302 321.862 L 266.302 321.829 Q 266.302 321.626 266.379 321.447 Q 266.455 321.267 266.589 321.133 Q 266.724 320.999 266.903 320.922 Q 267.083 320.845 267.286 320.845 L 267.521 320.845 Q 267.724 320.845 267.904 320.922 Q 268.084 320.999 268.218 321.133 Q 268.352 321.267 268.429 321.447 Q 268.506 321.626 268.506 321.829 L 268.506 324.259 Z M 268.104 322.637 L 267.253 322.637 Q 267.132 322.637 267.026 322.683 Q 266.92 322.729 266.841 322.809 Q 266.763 322.889 266.717 322.995 Q 266.671 323.101 266.671 323.222 L 266.671 323.363 Q 266.671 323.484 266.717 323.59 Q 266.763 323.697 266.841 323.775 Q 266.92 323.853 267.026 323.899 Q 267.132 323.945 267.253 323.945 L 267.521 323.945 Q 267.642 323.945 267.749 323.899 Q 267.855 323.853 267.934 323.775 Q 268.012 323.697 268.058 323.59 Q 268.104 323.484 268.104 323.363 Z M 269.443 324.259 L 269.443 319.569 L 269.845 319.569 L 269.845 324.259 Z" transform="matrix(2.143394, 0, 0, 2.388948, -274.939209, -458.938904)" style="fill: rgb(209, 209, 211);"/>
  <path d="M 278.312 327.339 C 278.313 326.689 278.322 325.639 278.332 325.006 L 278.35 323.856 L 278.432 323.616 C 278.626 323.051 278.992 322.629 279.515 322.367 C 280.12 322.065 280.894 322.083 281.48 322.412 C 281.989 322.699 282.374 323.211 282.509 323.78 C 282.554 323.972 282.561 324.061 282.551 324.349 C 282.541 324.648 282.53 324.72 282.46 324.927 C 282.221 325.631 281.663 326.152 280.952 326.336 C 280.686 326.405 280.18 326.401 279.924 326.327 C 279.669 326.254 279.474 326.167 279.292 326.043 C 279.211 325.987 279.139 325.942 279.132 325.942 C 279.124 325.942 279.119 326.522 279.119 327.231 L 279.119 328.521 L 278.714 328.521 L 278.309 328.521 L 278.312 327.339 Z M 280.741 325.551 C 281.46 325.399 281.917 324.668 281.734 323.963 C 281.619 323.518 281.305 323.18 280.87 323.03 C 280.654 322.956 280.269 322.95 280.054 323.017 C 279.508 323.186 279.143 323.693 279.144 324.281 C 279.147 325.128 279.902 325.729 280.741 325.551 Z M 275.485 326.397 C 275.01 326.331 274.615 326.142 274.281 325.819 C 273.677 325.236 273.468 324.378 273.734 323.583 C 273.848 323.243 273.983 323.031 274.261 322.756 C 274.651 322.37 275.066 322.185 275.604 322.157 C 276.076 322.132 276.496 322.237 276.844 322.466 L 277.045 322.598 L 277.045 322.433 L 277.045 322.269 L 277.163 322.285 C 277.227 322.294 277.415 322.301 277.58 322.301 L 277.88 322.301 L 277.88 324.336 L 277.88 326.372 L 277.462 326.372 L 277.045 326.372 L 277.045 326.159 L 277.045 325.946 L 276.875 326.061 C 276.656 326.208 276.492 326.279 276.231 326.343 C 275.975 326.405 275.695 326.426 275.485 326.397 Z M 276.161 325.517 C 276.398 325.434 276.519 325.36 276.681 325.198 C 277.088 324.791 277.171 324.169 276.889 323.636 C 276.685 323.252 276.189 322.959 275.743 322.959 C 275.563 322.959 275.286 323.023 275.124 323.102 C 274.951 323.186 274.672 323.459 274.586 323.63 C 274.381 324.034 274.381 324.512 274.585 324.916 C 274.727 325.195 275.101 325.475 275.434 325.551 C 275.636 325.598 275.976 325.581 276.161 325.517 Z M 291.914 326.396 C 291.026 326.274 290.313 325.62 290.102 324.737 C 290.041 324.48 290.047 324.037 290.115 323.768 C 290.289 323.08 290.795 322.515 291.451 322.277 C 292.032 322.065 292.719 322.123 293.24 322.429 C 293.454 322.554 293.598 322.669 293.79 322.87 L 293.935 323.021 L 293.936 322.648 L 293.936 322.276 L 294.126 322.276 L 294.315 322.276 L 294.315 324.336 L 294.315 326.397 L 294.126 326.397 L 293.936 326.397 L 293.936 325.961 L 293.935 325.525 L 293.816 325.662 C 293.643 325.86 293.357 326.079 293.119 326.194 C 292.767 326.364 292.279 326.446 291.915 326.396 L 291.914 326.396 Z M 292.718 325.935 C 293.667 325.599 294.16 324.559 293.81 323.633 C 293.576 323.017 292.953 322.573 292.267 322.536 C 291.949 322.519 291.715 322.569 291.409 322.721 C 291.004 322.921 290.653 323.323 290.519 323.742 C 290.444 323.975 290.427 324.386 290.482 324.634 C 290.623 325.268 291.157 325.823 291.775 325.979 C 292.017 326.039 292.484 326.018 292.718 325.935 Z M 302.507 326.401 C 302.473 326.39 302.474 324.187 302.508 323.975 C 302.666 323.004 303.457 322.236 304.38 322.159 L 304.581 322.142 L 304.581 322.24 C 304.581 322.295 304.588 322.381 304.597 322.434 L 304.613 322.528 L 304.515 322.529 C 304.339 322.53 304.067 322.601 303.879 322.696 C 303.52 322.877 303.129 323.279 303.012 323.588 C 302.895 323.897 302.887 324.007 302.887 325.236 C 302.887 325.874 302.878 326.398 302.868 326.398 C 302.739 326.406 302.527 326.408 302.507 326.401 Z M 266.135 326.36 C 265.729 326.295 265.06 326.071 265.06 325.999 C 265.06 325.948 265.284 325.433 265.329 325.383 C 265.361 325.346 265.383 325.349 265.566 325.414 C 265.832 325.508 266.383 325.588 266.767 325.587 C 267.264 325.587 267.591 325.489 267.776 325.284 C 267.88 325.168 267.891 325.086 267.816 324.98 C 267.709 324.831 267.485 324.763 266.78 324.664 C 266.077 324.566 265.61 324.386 265.298 324.092 C 265.065 323.871 264.964 323.587 265.012 323.284 C 265.094 322.766 265.507 322.396 266.211 322.209 C 266.439 322.148 266.509 322.141 266.931 322.14 C 267.28 322.139 267.463 322.15 267.652 322.184 C 268.054 322.257 268.575 322.437 268.575 322.502 C 268.575 322.564 268.311 323.161 268.284 323.161 C 268.266 323.161 268.21 323.143 268.158 323.121 C 268.004 323.057 267.622 322.986 267.263 322.956 C 266.894 322.925 266.492 322.952 266.251 323.023 C 265.996 323.099 265.867 323.289 265.955 323.46 C 266.054 323.649 266.33 323.759 266.989 323.87 C 267.581 323.969 267.763 324.011 267.971 324.096 C 268.216 324.195 268.369 324.291 268.503 324.429 C 268.894 324.83 268.864 325.422 268.432 325.851 C 268.206 326.076 267.776 326.283 267.378 326.359 C 267.134 326.406 266.426 326.406 266.135 326.36 Z M 269.093 325.329 C 269.111 323.963 269.112 323.945 269.219 323.626 C 269.493 322.807 270.042 322.336 270.898 322.186 C 271.968 321.999 272.953 322.63 273.264 323.702 L 273.328 323.925 L 273.328 325.161 L 273.328 326.397 L 272.936 326.397 L 272.544 326.397 L 272.544 325.24 C 272.544 324.11 272.542 324.08 272.487 323.918 C 272.292 323.345 271.773 322.958 271.201 322.958 C 270.84 322.958 270.604 323.052 270.35 323.296 C 270.125 323.512 270.008 323.697 269.941 323.947 C 269.885 324.153 269.885 324.174 269.899 325.277 L 269.913 326.397 L 269.496 326.397 L 269.08 326.397 L 269.093 325.329 Z M 283.281 325 C 283.296 323.527 283.303 323.44 283.422 323.162 C 283.5 322.98 283.687 322.718 283.837 322.581 C 284.13 322.313 284.476 322.178 284.922 322.156 C 285.251 322.14 285.487 322.192 285.78 322.346 C 285.99 322.457 286.272 322.713 286.396 322.906 C 286.47 323.021 286.488 323.037 286.512 323.003 C 286.787 322.612 286.952 322.461 287.264 322.315 C 288.17 321.89 289.247 322.318 289.563 323.228 C 289.683 323.573 289.688 323.642 289.688 325.059 L 289.688 326.397 L 289.486 326.397 L 289.283 326.397 L 289.283 325.011 C 289.283 323.497 289.284 323.514 289.131 323.211 C 288.884 322.723 288.282 322.445 287.725 322.562 C 287.265 322.659 286.935 322.952 286.753 323.425 L 286.684 323.603 L 286.674 324.973 C 286.669 325.727 286.656 326.353 286.644 326.364 C 286.633 326.375 286.548 326.384 286.455 326.384 L 286.287 326.384 L 286.274 324.968 C 286.262 323.586 286.26 323.549 286.206 323.405 C 286.121 323.18 286.038 323.055 285.871 322.9 C 285.451 322.512 284.863 322.422 284.371 322.671 C 284.207 322.754 283.907 323.054 283.816 323.226 C 283.673 323.494 283.67 323.53 283.67 325.024 L 283.67 326.397 L 283.468 326.397 L 283.267 326.397 L 283.281 325 Z M 294.947 323.198 L 294.947 320 L 295.137 320 L 295.326 320 L 295.326 322.137 C 295.326 323.312 295.335 324.273 295.345 324.272 C 295.356 324.272 295.848 323.794 296.439 323.211 L 297.514 322.15 L 297.792 322.151 L 298.07 322.152 L 296.995 323.214 L 295.921 324.275 L 296.981 325.32 L 298.042 326.365 L 297.796 326.383 L 297.551 326.401 L 297.418 326.286 C 297.345 326.224 296.922 325.808 296.477 325.362 L 295.668 324.553 L 295.51 324.71 L 295.352 324.867 L 295.352 325.234 C 295.352 325.436 295.344 325.78 295.335 325.999 L 295.319 326.398 L 295.133 326.398 L 294.947 326.398 L 294.947 323.199 L 294.947 323.198 Z M 299.587 326.361 C 299.344 326.304 299.145 326.226 298.961 326.117 C 298.484 325.834 298.183 325.46 298.004 324.928 C 297.853 324.482 297.876 323.917 298.061 323.471 C 298.311 322.871 298.866 322.38 299.486 322.21 C 299.71 322.149 300.174 322.135 300.425 322.182 C 300.91 322.274 301.358 322.536 301.664 322.906 C 301.793 323.061 301.976 323.374 301.951 323.395 C 301.944 323.401 301.773 323.499 301.572 323.615 C 301.222 323.815 300.373 324.304 299.201 324.98 C 298.89 325.159 298.664 325.305 298.664 325.326 C 298.664 325.346 298.746 325.445 298.847 325.545 C 299.161 325.858 299.525 326.001 300.004 326.003 C 300.698 326.004 301.275 325.661 301.555 325.08 C 301.618 324.949 301.688 324.774 301.711 324.69 L 301.752 324.539 L 301.956 324.431 L 302.159 324.324 L 302.142 324.469 C 302.111 324.733 302.049 324.94 301.926 325.196 C 301.662 325.743 301.183 326.148 300.592 326.326 C 300.367 326.393 299.808 326.412 299.587 326.361 Z M 299.033 324.623 C 299.352 324.441 299.919 324.114 300.295 323.898 C 300.67 323.682 301.073 323.451 301.189 323.385 C 301.306 323.319 301.412 323.255 301.425 323.241 C 301.456 323.211 301.109 322.902 300.901 322.776 C 300.418 322.482 299.782 322.449 299.281 322.69 C 298.836 322.905 298.509 323.289 298.356 323.778 C 298.292 323.982 298.269 324.376 298.309 324.581 C 298.337 324.729 298.419 324.956 298.444 324.956 C 298.45 324.956 298.715 324.806 299.033 324.623 Z" id="path24" fill-rule="nonzero" style="fill: rgb(209, 209, 211);" transform="matrix(1, 0, 0, 1, 0, -7.105427357601002e-15)"/>
  <path d="M 279.158 41.437 Q 279.158 41.663 279.077 41.862 Q 278.997 42.062 278.855 42.214 Q 278.713 42.365 278.521 42.46 Q 278.329 42.555 278.11 42.571 L 278.533 43.522 L 278.117 43.522 L 277.695 42.571 Q 277.459 42.571 277.252 42.483 Q 277.044 42.394 276.889 42.24 Q 276.734 42.085 276.646 41.879 Q 276.557 41.672 276.557 41.437 L 276.557 38.956 Q 276.557 38.72 276.646 38.514 Q 276.734 38.308 276.889 38.153 Q 277.044 37.999 277.252 37.91 Q 277.459 37.821 277.695 37.821 L 278.023 37.821 Q 278.259 37.821 278.465 37.91 Q 278.671 37.999 278.826 38.153 Q 278.98 38.308 279.069 38.514 Q 279.158 38.72 279.158 38.956 L 279.158 41.437 Z M 278.742 38.956 Q 278.742 38.801 278.684 38.667 Q 278.626 38.533 278.526 38.434 Q 278.426 38.334 278.292 38.276 Q 278.159 38.218 278.004 38.218 L 277.714 38.218 Q 277.559 38.218 277.426 38.276 Q 277.292 38.334 277.19 38.434 Q 277.089 38.533 277.031 38.667 Q 276.973 38.801 276.973 38.956 L 276.973 41.437 Q 276.973 41.592 277.031 41.726 Q 277.089 41.859 277.19 41.961 Q 277.292 42.062 277.426 42.12 Q 277.559 42.178 277.714 42.178 L 278.004 42.178 Q 278.159 42.178 278.292 42.12 Q 278.426 42.062 278.526 41.961 Q 278.626 41.859 278.684 41.726 Q 278.742 41.592 278.742 41.437 Z M 282.088 42.507 L 281.869 42.172 Q 281.734 42.356 281.531 42.463 Q 281.328 42.571 281.086 42.571 L 280.986 42.571 Q 280.786 42.571 280.609 42.496 Q 280.432 42.42 280.3 42.288 Q 280.167 42.156 280.092 41.978 Q 280.016 41.801 280.016 41.601 L 280.016 39.207 L 280.412 39.207 L 280.412 41.624 Q 280.412 41.743 280.458 41.848 Q 280.503 41.953 280.58 42.03 Q 280.657 42.107 280.762 42.153 Q 280.867 42.198 280.986 42.198 L 281.25 42.198 Q 281.37 42.198 281.474 42.153 Q 281.579 42.107 281.656 42.03 Q 281.734 41.953 281.779 41.848 Q 281.824 41.743 281.824 41.624 L 281.824 39.207 L 282.22 39.207 L 282.22 42.507 Z M 283.108 38.414 L 283.108 37.886 L 283.569 37.886 L 283.569 38.414 Z M 283.14 42.507 L 283.14 39.207 L 283.537 39.207 L 283.537 42.507 Z M 286.666 41.601 Q 286.666 41.801 286.59 41.978 Q 286.514 42.156 286.382 42.288 Q 286.25 42.42 286.073 42.496 Q 285.895 42.571 285.696 42.571 L 285.431 42.571 Q 285.232 42.571 285.054 42.496 Q 284.877 42.42 284.745 42.288 Q 284.613 42.156 284.537 41.978 Q 284.461 41.801 284.461 41.601 L 284.461 40.113 Q 284.461 39.913 284.537 39.736 Q 284.613 39.558 284.745 39.426 Q 284.877 39.294 285.054 39.218 Q 285.232 39.143 285.431 39.143 L 285.696 39.143 Q 285.895 39.143 286.073 39.218 Q 286.25 39.294 286.382 39.426 Q 286.514 39.558 286.59 39.736 Q 286.666 39.913 286.666 40.113 L 286.666 40.245 L 286.269 40.309 L 286.269 40.09 Q 286.269 39.971 286.224 39.866 Q 286.179 39.761 286.102 39.684 Q 286.024 39.607 285.92 39.561 Q 285.815 39.516 285.696 39.516 L 285.431 39.516 Q 285.312 39.516 285.207 39.561 Q 285.103 39.607 285.025 39.684 Q 284.948 39.761 284.903 39.866 Q 284.858 39.971 284.858 40.09 L 284.858 41.624 Q 284.858 41.743 284.903 41.848 Q 284.948 41.953 285.025 42.03 Q 285.103 42.107 285.207 42.153 Q 285.312 42.198 285.431 42.198 L 285.696 42.198 Q 285.815 42.198 285.92 42.153 Q 286.024 42.107 286.102 42.03 Q 286.179 41.953 286.224 41.848 Q 286.269 41.743 286.269 41.624 L 286.269 41.405 L 286.666 41.469 L 286.666 41.601 Z M 289.383 42.507 L 288.036 40.857 L 289.383 39.207 L 289.899 39.207 L 288.519 40.857 L 289.899 42.507 Z M 287.562 42.507 L 287.562 37.886 L 287.959 37.886 L 287.959 42.507 Z M 294.58 41.437 Q 294.58 41.672 294.485 41.879 Q 294.389 42.085 294.23 42.24 Q 294.07 42.394 293.859 42.483 Q 293.648 42.571 293.413 42.571 L 293.081 42.571 Q 292.846 42.571 292.635 42.483 Q 292.424 42.394 292.264 42.24 Q 292.105 42.085 292.01 41.879 Q 291.914 41.672 291.914 41.437 L 291.914 41.253 L 292.33 41.186 L 292.33 41.437 Q 292.33 41.592 292.393 41.726 Q 292.456 41.859 292.562 41.961 Q 292.669 42.062 292.809 42.12 Q 292.949 42.178 293.104 42.178 L 293.394 42.178 Q 293.548 42.178 293.687 42.12 Q 293.825 42.062 293.932 41.961 Q 294.038 41.859 294.101 41.726 Q 294.164 41.592 294.164 41.437 L 294.164 41.299 Q 294.164 41.06 294.07 40.902 Q 293.977 40.744 293.822 40.633 Q 293.668 40.522 293.473 40.444 Q 293.278 40.367 293.071 40.29 Q 292.865 40.212 292.67 40.119 Q 292.475 40.026 292.321 39.885 Q 292.166 39.745 292.072 39.542 Q 291.979 39.339 291.979 39.043 L 291.979 38.956 Q 291.979 38.72 292.068 38.514 Q 292.156 38.308 292.311 38.153 Q 292.466 37.999 292.673 37.91 Q 292.881 37.821 293.117 37.821 L 293.413 37.821 Q 293.648 37.821 293.854 37.91 Q 294.061 37.999 294.215 38.153 Q 294.37 38.308 294.459 38.514 Q 294.547 38.72 294.547 38.956 L 294.547 39.075 L 294.132 39.143 L 294.132 38.956 Q 294.132 38.801 294.074 38.667 Q 294.016 38.533 293.916 38.434 Q 293.816 38.334 293.682 38.276 Q 293.548 38.218 293.394 38.218 L 293.136 38.218 Q 292.981 38.218 292.847 38.276 Q 292.714 38.334 292.612 38.434 Q 292.511 38.533 292.453 38.667 Q 292.395 38.801 292.395 38.956 L 292.395 39.043 Q 292.395 39.265 292.488 39.416 Q 292.582 39.568 292.736 39.676 Q 292.891 39.784 293.086 39.863 Q 293.281 39.942 293.487 40.024 Q 293.693 40.106 293.888 40.204 Q 294.083 40.303 294.238 40.446 Q 294.393 40.59 294.486 40.796 Q 294.58 41.002 294.58 41.299 Z M 298.114 42.507 L 297.898 42.507 L 297.125 40.019 L 297.112 39.848 L 297.099 40.019 L 296.326 42.507 L 296.107 42.507 L 295.004 39.207 L 295.407 39.207 L 296.194 41.701 L 296.206 41.872 L 296.219 41.701 L 296.993 39.207 L 297.231 39.207 L 298.001 41.701 L 298.014 41.872 L 298.027 41.701 L 298.814 39.207 L 299.216 39.207 Z M 301.752 42.507 L 301.533 42.178 Q 301.398 42.356 301.195 42.463 Q 300.992 42.571 300.75 42.571 L 300.65 42.571 Q 300.45 42.571 300.273 42.496 Q 300.096 42.42 299.964 42.288 Q 299.832 42.156 299.756 41.978 Q 299.68 41.801 299.68 41.601 L 299.68 41.569 Q 299.68 41.369 299.756 41.192 Q 299.832 41.015 299.964 40.883 Q 300.096 40.751 300.273 40.675 Q 300.45 40.599 300.65 40.599 L 301.488 40.599 L 301.488 40.09 Q 301.488 39.971 301.443 39.866 Q 301.398 39.761 301.32 39.684 Q 301.243 39.607 301.138 39.561 Q 301.034 39.516 300.914 39.516 L 300.682 39.516 Q 300.563 39.516 300.458 39.561 Q 300.354 39.607 300.276 39.684 Q 300.199 39.761 300.154 39.866 Q 300.109 39.971 300.109 40.09 L 300.109 40.209 L 299.712 40.145 L 299.712 40.113 Q 299.712 39.913 299.788 39.736 Q 299.864 39.558 299.996 39.426 Q 300.128 39.294 300.305 39.218 Q 300.483 39.143 300.682 39.143 L 300.914 39.143 Q 301.114 39.143 301.291 39.218 Q 301.469 39.294 301.601 39.426 Q 301.733 39.558 301.809 39.736 Q 301.884 39.913 301.884 40.113 L 301.884 42.507 Z M 301.488 40.909 L 300.65 40.909 Q 300.531 40.909 300.426 40.954 Q 300.321 40.999 300.244 41.078 Q 300.167 41.157 300.122 41.261 Q 300.076 41.366 300.076 41.485 L 300.076 41.624 Q 300.076 41.743 300.122 41.848 Q 300.167 41.953 300.244 42.03 Q 300.321 42.107 300.426 42.153 Q 300.531 42.198 300.65 42.198 L 300.914 42.198 Q 301.034 42.198 301.138 42.153 Q 301.243 42.107 301.32 42.03 Q 301.398 41.953 301.443 41.848 Q 301.488 41.743 301.488 41.624 Z M 304.884 41.601 Q 304.884 41.801 304.809 41.978 Q 304.733 42.156 304.601 42.288 Q 304.469 42.42 304.291 42.496 Q 304.114 42.571 303.914 42.571 L 303.814 42.571 Q 303.592 42.571 303.402 42.481 Q 303.212 42.391 303.076 42.23 L 303.076 43.828 L 302.68 43.828 L 302.68 39.207 L 302.812 39.207 L 303.028 39.542 Q 303.163 39.358 303.368 39.251 Q 303.573 39.143 303.814 39.143 L 303.914 39.143 Q 304.114 39.143 304.291 39.218 Q 304.469 39.294 304.601 39.426 Q 304.733 39.558 304.809 39.736 Q 304.884 39.913 304.884 40.113 L 304.884 41.601 Z M 304.488 40.09 Q 304.488 39.971 304.443 39.866 Q 304.398 39.761 304.32 39.684 Q 304.243 39.607 304.138 39.561 Q 304.034 39.516 303.914 39.516 L 303.65 39.516 Q 303.531 39.516 303.426 39.561 Q 303.321 39.607 303.244 39.684 Q 303.167 39.761 303.122 39.866 Q 303.076 39.971 303.076 40.09 L 303.076 41.624 Q 303.076 41.743 303.122 41.848 Q 303.167 41.953 303.244 42.03 Q 303.321 42.107 303.426 42.153 Q 303.531 42.198 303.65 42.198 L 303.914 42.198 Q 304.034 42.198 304.138 42.153 Q 304.243 42.107 304.32 42.03 Q 304.398 41.953 304.443 41.848 Q 304.488 41.743 304.488 41.624 Z M 309.584 42.507 L 307.843 40.196 L 309.584 37.886 L 310.099 37.886 L 308.324 40.196 L 310.099 42.507 Z M 307.328 42.507 L 307.328 37.886 L 307.744 37.886 L 307.744 42.507 Z M 310.725 38.414 L 310.725 37.886 L 311.186 37.886 L 311.186 38.414 Z M 310.758 42.507 L 310.758 39.207 L 311.154 39.207 L 311.154 42.507 Z M 313.281 42.507 Q 313.1 42.507 312.941 42.439 Q 312.781 42.372 312.663 42.252 Q 312.546 42.133 312.477 41.975 Q 312.407 41.817 312.407 41.637 L 312.407 39.584 L 311.814 39.584 L 311.814 39.207 L 312.407 39.207 L 312.407 38.414 L 312.804 38.35 L 312.804 39.207 L 313.642 39.207 L 313.642 39.584 L 312.804 39.584 L 312.804 41.656 Q 312.804 41.756 312.841 41.842 Q 312.878 41.927 312.942 41.991 Q 313.007 42.056 313.094 42.093 Q 313.181 42.13 313.281 42.13 L 313.642 42.13 L 313.642 42.507 Z" style="fill: rgb(255, 0, 0);"/>
  <line x1="0" y1="35" x2="320" y2="35" id="line-2" style="paint-order: fill; stroke-dasharray: 2px; stroke: rgb(255, 0, 0); stroke-width: 0.1px;" transform="matrix(1, 0, 0, 1, 0, -7.105427357601002e-15)"/>
  <path d="M 289.679 27.373 Q 289.679 27.608 289.59 27.814 Q 289.501 28.02 289.347 28.175 Q 289.192 28.33 288.984 28.418 Q 288.776 28.507 288.541 28.507 L 287.078 28.507 L 287.078 23.886 L 288.541 23.886 Q 288.776 23.886 288.984 23.974 Q 289.192 24.063 289.347 24.218 Q 289.501 24.372 289.59 24.58 Q 289.679 24.788 289.679 25.023 L 289.679 25.068 Q 289.679 25.233 289.635 25.383 Q 289.592 25.532 289.511 25.661 Q 289.43 25.79 289.321 25.895 Q 289.211 26 289.076 26.071 Q 289.211 26.142 289.321 26.246 Q 289.43 26.351 289.511 26.482 Q 289.592 26.612 289.635 26.762 Q 289.679 26.912 289.679 27.076 L 289.679 27.373 Z M 289.263 27.008 Q 289.263 26.854 289.205 26.72 Q 289.147 26.586 289.045 26.486 Q 288.944 26.386 288.81 26.328 Q 288.676 26.27 288.522 26.27 L 287.494 26.27 L 287.494 28.111 L 288.522 28.111 Q 288.676 28.111 288.81 28.053 Q 288.944 27.995 289.045 27.895 Q 289.147 27.795 289.205 27.661 Q 289.263 27.527 289.263 27.373 Z M 289.263 25.023 Q 289.263 24.869 289.205 24.735 Q 289.147 24.601 289.045 24.5 Q 288.944 24.398 288.81 24.34 Q 288.676 24.282 288.522 24.282 L 287.494 24.282 L 287.494 25.874 L 288.522 25.874 Q 288.676 25.874 288.81 25.816 Q 288.944 25.758 289.045 25.657 Q 289.147 25.555 289.205 25.421 Q 289.263 25.288 289.263 25.133 Z M 291.306 25.584 Q 291.187 25.584 291.082 25.629 Q 290.978 25.674 290.9 25.752 Q 290.823 25.829 290.778 25.934 Q 290.733 26.038 290.733 26.158 L 290.733 28.507 L 290.336 28.507 L 290.336 25.207 L 290.468 25.207 L 290.684 25.542 Q 290.82 25.358 291.024 25.251 Q 291.229 25.143 291.471 25.143 L 291.703 25.143 L 291.703 25.584 Z M 294.299 28.507 L 294.08 28.178 Q 293.945 28.356 293.742 28.463 Q 293.539 28.571 293.297 28.571 L 293.197 28.571 Q 292.997 28.571 292.82 28.496 Q 292.643 28.42 292.511 28.288 Q 292.378 28.156 292.303 27.978 Q 292.227 27.801 292.227 27.601 L 292.227 27.569 Q 292.227 27.369 292.303 27.192 Q 292.378 27.015 292.511 26.883 Q 292.643 26.751 292.82 26.675 Q 292.997 26.599 293.197 26.599 L 294.035 26.599 L 294.035 26.09 Q 294.035 25.971 293.99 25.866 Q 293.945 25.761 293.867 25.684 Q 293.79 25.607 293.685 25.561 Q 293.58 25.516 293.461 25.516 L 293.229 25.516 Q 293.11 25.516 293.005 25.561 Q 292.9 25.607 292.823 25.684 Q 292.746 25.761 292.701 25.866 Q 292.656 25.971 292.656 26.09 L 292.656 26.209 L 292.259 26.145 L 292.259 26.113 Q 292.259 25.913 292.335 25.736 Q 292.411 25.558 292.543 25.426 Q 292.675 25.294 292.852 25.218 Q 293.029 25.143 293.229 25.143 L 293.461 25.143 Q 293.661 25.143 293.838 25.218 Q 294.016 25.294 294.148 25.426 Q 294.28 25.558 294.356 25.736 Q 294.431 25.913 294.431 26.113 L 294.431 28.507 Z M 294.035 26.909 L 293.197 26.909 Q 293.078 26.909 292.973 26.954 Q 292.868 26.999 292.791 27.078 Q 292.714 27.157 292.668 27.261 Q 292.623 27.366 292.623 27.485 L 292.623 27.624 Q 292.623 27.743 292.668 27.848 Q 292.714 27.953 292.791 28.03 Q 292.868 28.107 292.973 28.153 Q 293.078 28.198 293.197 28.198 L 293.461 28.198 Q 293.58 28.198 293.685 28.153 Q 293.79 28.107 293.867 28.03 Q 293.945 27.953 293.99 27.848 Q 294.035 27.743 294.035 27.624 Z M 297.431 27.601 Q 297.431 27.801 297.356 27.978 Q 297.28 28.156 297.148 28.288 Q 297.016 28.42 296.838 28.496 Q 296.661 28.571 296.461 28.571 L 296.197 28.571 Q 295.997 28.571 295.82 28.496 Q 295.643 28.42 295.511 28.288 Q 295.378 28.156 295.303 27.978 Q 295.227 27.801 295.227 27.601 L 295.227 26.113 Q 295.227 25.913 295.303 25.736 Q 295.378 25.558 295.511 25.426 Q 295.643 25.294 295.82 25.218 Q 295.997 25.143 296.197 25.143 L 296.461 25.143 Q 296.661 25.143 296.838 25.218 Q 297.016 25.294 297.148 25.426 Q 297.28 25.558 297.356 25.736 Q 297.431 25.913 297.431 26.113 L 297.431 26.245 L 297.035 26.309 L 297.035 26.09 Q 297.035 25.971 296.99 25.866 Q 296.945 25.761 296.867 25.684 Q 296.79 25.607 296.685 25.561 Q 296.58 25.516 296.461 25.516 L 296.197 25.516 Q 296.078 25.516 295.973 25.561 Q 295.868 25.607 295.791 25.684 Q 295.714 25.761 295.668 25.866 Q 295.623 25.971 295.623 26.09 L 295.623 27.624 Q 295.623 27.743 295.668 27.848 Q 295.714 27.953 295.791 28.03 Q 295.868 28.107 295.973 28.153 Q 296.078 28.198 296.197 28.198 L 296.461 28.198 Q 296.58 28.198 296.685 28.153 Q 296.79 28.107 296.867 28.03 Q 296.945 27.953 296.99 27.848 Q 297.035 27.743 297.035 27.624 L 297.035 27.405 L 297.431 27.469 L 297.431 27.601 Z M 298.327 24.414 L 298.327 23.886 L 298.788 23.886 L 298.788 24.414 Z M 298.359 28.507 L 298.359 25.207 L 298.755 25.207 L 298.755 28.507 Z M 301.488 28.507 L 301.488 26.09 Q 301.488 25.971 301.443 25.866 Q 301.398 25.761 301.32 25.684 Q 301.243 25.607 301.138 25.561 Q 301.034 25.516 300.914 25.516 L 300.65 25.516 Q 300.531 25.516 300.426 25.561 Q 300.321 25.607 300.244 25.684 Q 300.167 25.761 300.122 25.866 Q 300.076 25.971 300.076 26.09 L 300.076 28.507 L 299.68 28.507 L 299.68 25.207 L 299.812 25.207 L 300.028 25.542 Q 300.163 25.358 300.368 25.251 Q 300.573 25.143 300.814 25.143 L 300.914 25.143 Q 301.114 25.143 301.291 25.218 Q 301.469 25.294 301.601 25.426 Q 301.733 25.558 301.809 25.736 Q 301.884 25.913 301.884 26.113 L 301.884 28.507 Z M 304.909 28.923 Q 304.909 29.123 304.833 29.29 Q 304.757 29.458 304.625 29.577 Q 304.493 29.696 304.316 29.762 Q 304.139 29.828 303.939 29.828 L 303.774 29.828 Q 303.575 29.828 303.397 29.762 Q 303.22 29.696 303.088 29.577 Q 302.956 29.458 302.88 29.29 Q 302.804 29.123 302.804 28.923 L 302.804 28.91 Q 302.804 28.716 302.875 28.555 Q 302.946 28.394 303.069 28.275 Q 302.914 28.182 302.822 28.022 Q 302.73 27.862 302.73 27.669 Q 302.73 27.495 302.804 27.345 Q 302.879 27.195 303.007 27.102 Q 302.853 26.967 302.762 26.776 Q 302.672 26.586 302.672 26.361 L 302.672 26.113 Q 302.672 25.913 302.748 25.736 Q 302.824 25.558 302.956 25.426 Q 303.088 25.294 303.265 25.218 Q 303.442 25.143 303.642 25.143 L 303.807 25.143 Q 304.048 25.143 304.253 25.251 Q 304.458 25.358 304.593 25.542 L 304.809 25.207 L 304.941 25.207 L 304.941 26.361 Q 304.941 26.561 304.865 26.738 Q 304.79 26.915 304.657 27.047 Q 304.525 27.179 304.348 27.255 Q 304.171 27.331 303.971 27.331 L 303.397 27.331 Q 303.33 27.331 303.268 27.358 Q 303.207 27.386 303.16 27.431 Q 303.114 27.476 303.088 27.539 Q 303.062 27.601 303.062 27.669 Q 303.062 27.737 303.088 27.798 Q 303.114 27.859 303.16 27.906 Q 303.207 27.953 303.268 27.978 Q 303.33 28.004 303.397 28.004 L 303.939 28.004 Q 304.139 28.004 304.316 28.07 Q 304.493 28.136 304.625 28.256 Q 304.757 28.375 304.833 28.542 Q 304.909 28.71 304.909 28.91 L 304.909 28.923 Z M 304.548 26.09 Q 304.548 25.971 304.503 25.866 Q 304.458 25.761 304.379 25.684 Q 304.3 25.607 304.195 25.561 Q 304.09 25.516 303.971 25.516 L 303.642 25.516 Q 303.523 25.516 303.418 25.561 Q 303.314 25.607 303.236 25.684 Q 303.159 25.761 303.114 25.866 Q 303.069 25.971 303.069 26.09 L 303.069 26.383 Q 303.069 26.503 303.114 26.607 Q 303.159 26.712 303.236 26.789 Q 303.314 26.867 303.418 26.912 Q 303.523 26.957 303.642 26.957 L 303.971 26.957 Q 304.09 26.957 304.195 26.912 Q 304.3 26.867 304.379 26.789 Q 304.458 26.712 304.503 26.607 Q 304.548 26.503 304.548 26.383 Z M 304.532 28.89 Q 304.532 28.771 304.487 28.676 Q 304.442 28.581 304.364 28.517 Q 304.287 28.452 304.182 28.417 Q 304.077 28.381 303.958 28.381 L 303.755 28.381 Q 303.636 28.381 303.531 28.417 Q 303.426 28.452 303.349 28.517 Q 303.272 28.581 303.227 28.676 Q 303.181 28.771 303.181 28.89 L 303.181 28.942 Q 303.181 29.061 303.227 29.155 Q 303.272 29.248 303.349 29.314 Q 303.426 29.38 303.531 29.416 Q 303.636 29.451 303.755 29.451 L 303.958 29.451 Q 304.077 29.451 304.182 29.416 Q 304.287 29.38 304.364 29.314 Q 304.442 29.248 304.487 29.155 Q 304.532 29.061 304.532 28.942 Z M 309.576 28.507 L 307.836 26.196 L 309.576 23.886 L 310.092 23.886 L 308.316 26.196 L 310.092 28.507 Z M 307.32 28.507 L 307.32 23.886 L 307.736 23.886 L 307.736 28.507 Z M 310.725 24.414 L 310.725 23.886 L 311.186 23.886 L 311.186 24.414 Z M 310.758 28.507 L 310.758 25.207 L 311.154 25.207 L 311.154 28.507 Z M 313.281 28.507 Q 313.1 28.507 312.941 28.439 Q 312.781 28.372 312.663 28.252 Q 312.546 28.133 312.477 27.975 Q 312.407 27.817 312.407 27.637 L 312.407 25.584 L 311.814 25.584 L 311.814 25.207 L 312.407 25.207 L 312.407 24.414 L 312.804 24.35 L 312.804 25.207 L 313.642 25.207 L 313.642 25.584 L 312.804 25.584 L 312.804 27.656 Q 312.804 27.756 312.841 27.842 Q 312.878 27.927 312.942 27.991 Q 313.007 28.056 313.094 28.093 Q 313.181 28.13 313.281 28.13 L 313.642 28.13 L 313.642 28.507 Z" style="fill: rgb(62, 0, 255);"/>
  <line x1="0" y1="32" x2="320" y2="32" id="line-1" style="paint-order: fill; stroke-dasharray: 2px; stroke: rgb(62, 0, 255); stroke-width: 0.1px;" transform="matrix(1, 0, 0, 1, 0, -7.105427357601002e-15)"/>
  <line x1="0" y1="47" x2="320" y2="47" id="line-3" style="paint-order: fill; stroke-dasharray: 2px; stroke: rgb(255, 255, 255); stroke-width: 0.1px;" transform="matrix(1, 0, 0, 1, 0, -7.105427357601002e-15)"/>
</svg>