<?xml version="1.0" encoding="utf-8"?>
<svg viewBox="0 0 334 364" xmlns="http://www.w3.org/2000/svg" author="https://github.com/macdylan/3dp-configs">
  <path d="M 251.646 7.963 C 251.524 8.07 251.363 8.122 251.159 8.122 C 251.002 8.122 250.869 8.089 250.757 8.02 C 250.643 7.962 250.553 7.886 250.483 7.793 C 250.396 7.695 250.34 7.568 250.312 7.41 C 250.28 7.252 250.264 6.951 250.264 6.505 C 250.264 6.059 250.28 5.756 250.312 5.594 C 250.34 5.44 250.396 5.315 250.483 5.217 C 250.553 5.124 250.643 5.046 250.757 4.984 C 250.869 4.924 251.002 4.892 251.159 4.888 C 251.317 4.892 251.453 4.924 251.569 4.984 C 251.679 5.046 251.766 5.124 251.832 5.217 C 251.918 5.315 251.978 5.44 252.009 5.594 C 252.039 5.756 252.053 6.059 252.053 6.505 C 252.053 6.985 252.032 7.3 251.991 7.454 L 251.483 7.033 L 251.09 7.504 L 251.646 7.963 Z M 252.188 8.415 L 252.739 8.875 L 253.13 8.402 L 252.556 7.926 C 252.617 7.823 252.659 7.678 252.685 7.491 C 252.705 7.304 252.715 6.976 252.715 6.505 C 252.715 5.978 252.701 5.626 252.676 5.447 C 252.648 5.27 252.597 5.126 252.523 5.015 C 252.422 4.806 252.257 4.619 252.027 4.455 C 251.796 4.289 251.506 4.204 251.159 4.2 C 250.816 4.204 250.53 4.289 250.3 4.455 C 250.067 4.619 249.898 4.806 249.791 5.015 C 249.725 5.126 249.676 5.27 249.645 5.447 C 249.615 5.626 249.6 5.978 249.6 6.505 C 249.6 7.024 249.615 7.374 249.645 7.556 C 249.661 7.654 249.68 7.735 249.705 7.799 C 249.73 7.862 249.76 7.927 249.791 7.995 C 249.898 8.204 250.067 8.389 250.3 8.548 C 250.53 8.715 250.816 8.801 251.159 8.809 C 251.587 8.801 251.931 8.67 252.188 8.415 Z M 253.425 7.689 C 253.43 8.055 253.545 8.33 253.77 8.518 C 253.978 8.708 254.209 8.805 254.467 8.809 C 254.798 8.809 255.067 8.682 255.271 8.427 L 255.284 8.427 L 255.284 8.772 L 255.909 8.772 L 255.909 5.544 L 255.284 5.544 L 255.284 7.466 C 255.284 7.685 255.227 7.855 255.111 7.976 C 254.997 8.098 254.85 8.159 254.67 8.159 C 254.491 8.159 254.344 8.098 254.228 7.976 C 254.11 7.855 254.051 7.685 254.051 7.466 L 254.051 5.544 L 253.425 5.544 L 253.425 7.689 Z M 256.736 8.772 L 257.361 8.772 L 257.361 5.544 L 256.736 5.544 L 256.736 8.772 Z M 256.736 4.888 L 257.361 4.888 L 257.361 4.238 L 256.736 4.238 L 256.736 4.888 Z M 260.009 7.824 C 259.851 8.044 259.641 8.155 259.378 8.159 C 258.848 8.17 258.578 7.838 258.57 7.161 C 258.578 6.481 258.848 6.146 259.378 6.154 C 259.641 6.161 259.851 6.275 260.009 6.492 L 260.47 6.066 C 260.335 5.897 260.174 5.761 259.992 5.659 C 259.808 5.56 259.595 5.508 259.354 5.504 C 258.987 5.5 258.665 5.627 258.388 5.886 C 258.1 6.15 257.953 6.575 257.944 7.161 C 257.953 7.742 258.1 8.162 258.388 8.421 C 258.665 8.68 258.987 8.809 259.354 8.809 C 259.595 8.805 259.808 8.751 259.992 8.645 C 260.174 8.544 260.335 8.412 260.47 8.25 L 260.009 7.824 Z M 260.907 8.772 L 261.532 8.772 L 261.532 7.843 L 262.022 7.263 L 262.849 8.772 L 263.633 8.772 L 262.415 6.804 L 263.487 5.544 L 262.738 5.544 L 261.544 7.058 L 261.532 7.058 L 261.532 4.238 L 260.907 4.238 L 260.907 8.772 Z M 265.671 7.672 L 265.237 8.187 C 265.702 8.602 266.257 8.809 266.903 8.809 C 267.903 8.797 268.414 8.358 268.435 7.491 C 268.435 7.17 268.338 6.887 268.145 6.645 C 267.95 6.399 267.648 6.246 267.239 6.187 C 267.03 6.161 266.868 6.137 266.749 6.116 C 266.533 6.075 266.375 6 266.278 5.892 C 266.18 5.787 266.131 5.669 266.131 5.537 C 266.135 5.321 266.209 5.156 266.35 5.046 C 266.486 4.94 266.655 4.888 266.859 4.888 C 267.252 4.896 267.612 5.012 267.94 5.236 L 268.307 4.67 C 267.906 4.369 267.435 4.213 266.892 4.2 C 266.441 4.204 266.094 4.326 265.848 4.567 C 265.593 4.81 265.467 5.13 265.467 5.525 C 265.467 5.855 265.568 6.135 265.769 6.365 C 265.964 6.59 266.25 6.734 266.626 6.798 C 266.835 6.829 267.027 6.856 267.203 6.881 C 267.586 6.95 267.776 7.153 267.772 7.491 C 267.763 7.903 267.476 8.115 266.91 8.122 C 266.431 8.118 266.018 7.968 265.671 7.672 Z M 271.539 8.772 L 272.093 8.772 L 273.082 5.544 L 272.422 5.544 L 271.829 7.805 L 271.818 7.805 L 271.111 5.544 L 270.659 5.544 L 269.954 7.805 L 269.94 7.805 L 269.345 5.544 L 268.684 5.544 L 269.677 8.772 L 270.228 8.772 L 270.877 6.511 L 270.889 6.511 L 271.539 8.772 Z M 275.128 8.772 L 275.753 8.772 L 275.753 6.567 C 275.749 6.173 275.631 5.896 275.398 5.733 C 275.164 5.576 274.852 5.5 274.461 5.504 C 273.998 5.496 273.648 5.653 273.411 5.976 L 273.901 6.365 C 273.955 6.272 274.028 6.206 274.123 6.166 C 274.212 6.133 274.335 6.116 274.491 6.116 C 274.92 6.108 275.133 6.246 275.128 6.53 L 275.128 6.868 L 274.263 6.868 C 273.932 6.873 273.681 6.967 273.51 7.149 C 273.339 7.327 273.252 7.552 273.252 7.824 C 273.252 8.108 273.351 8.341 273.548 8.523 C 273.735 8.71 274.003 8.805 274.351 8.809 C 274.562 8.809 274.728 8.782 274.847 8.729 C 274.969 8.677 275.058 8.596 275.117 8.486 L 275.128 8.486 L 275.128 8.772 Z M 275.128 7.637 C 275.128 7.88 275.079 8.036 274.981 8.104 C 274.874 8.172 274.689 8.204 274.428 8.2 C 274.221 8.2 274.072 8.158 273.982 8.072 C 273.889 7.996 273.842 7.902 273.842 7.793 C 273.837 7.542 274.017 7.412 274.38 7.404 L 275.128 7.404 L 275.128 7.637 Z M 276.564 10.078 L 277.19 10.078 L 277.19 8.427 C 277.303 8.544 277.43 8.635 277.564 8.701 C 277.69 8.773 277.832 8.809 277.992 8.809 C 278.185 8.805 278.351 8.766 278.489 8.689 C 278.628 8.614 278.741 8.514 278.827 8.39 C 278.913 8.285 278.972 8.148 279.003 7.982 C 279.033 7.817 279.049 7.543 279.049 7.161 C 279.049 6.77 279.033 6.492 279.003 6.328 C 278.972 6.162 278.913 6.028 278.827 5.927 C 278.652 5.655 278.373 5.514 277.992 5.504 C 277.665 5.514 277.397 5.639 277.19 5.88 L 277.19 5.544 L 276.564 5.544 L 276.564 10.078 Z M 277.804 8.159 C 277.664 8.159 277.553 8.129 277.471 8.067 C 277.386 8.007 277.323 7.927 277.283 7.83 C 277.245 7.732 277.22 7.624 277.208 7.504 C 277.196 7.39 277.19 7.275 277.19 7.161 C 277.19 7.04 277.196 6.918 277.208 6.798 C 277.22 6.684 277.245 6.578 277.283 6.48 C 277.323 6.382 277.386 6.304 277.471 6.243 C 277.553 6.184 277.664 6.154 277.804 6.154 C 277.951 6.154 278.068 6.18 278.154 6.231 C 278.239 6.287 278.3 6.364 278.336 6.461 C 278.377 6.555 278.403 6.663 278.417 6.785 C 278.421 6.907 278.423 7.032 278.423 7.161 C 278.423 7.284 278.421 7.404 278.417 7.519 C 278.403 7.638 278.377 7.745 278.336 7.843 C 278.3 7.936 278.239 8.013 278.154 8.072 C 278.068 8.13 277.951 8.159 277.804 8.159 Z M 281.267 8.772 L 281.928 8.772 L 281.928 7.391 L 282.695 6.555 L 283.883 8.772 L 284.666 8.772 L 283.122 6.026 L 284.52 4.238 L 283.736 4.238 L 281.941 6.574 L 281.928 6.574 L 281.928 4.238 L 281.267 4.238 L 281.267 8.772 Z M 285.089 8.772 L 285.714 8.772 L 285.714 5.544 L 285.089 5.544 L 285.089 8.772 Z M 285.089 4.888 L 285.714 4.888 L 285.714 4.238 L 285.089 4.238 L 285.089 4.888 Z M 286.581 5.544 L 286.269 5.544 L 286.269 6.038 L 286.581 6.038 L 286.581 7.976 C 286.581 8.231 286.653 8.426 286.796 8.56 C 286.935 8.702 287.115 8.772 287.334 8.772 L 287.661 8.772 L 287.661 8.159 L 287.427 8.159 C 287.276 8.164 287.202 8.084 287.206 7.921 L 287.206 6.038 L 287.661 6.038 L 287.661 5.544 L 287.206 5.544 L 287.206 4.561 L 286.581 4.561 L 286.581 5.544 Z M 289.774 8.772 L 290.435 8.772 L 290.435 4.238 L 289.774 4.238 L 289.774 8.772 Z M 291.295 8.772 L 291.921 8.772 L 291.921 6.85 C 291.921 6.624 291.98 6.452 292.098 6.334 C 292.214 6.214 292.361 6.154 292.54 6.154 C 292.719 6.154 292.867 6.214 292.981 6.334 C 293.096 6.452 293.153 6.624 293.153 6.85 L 293.153 8.772 L 293.779 8.772 L 293.779 6.626 C 293.769 6.257 293.658 5.977 293.446 5.787 C 293.233 5.598 292.999 5.504 292.74 5.504 C 292.408 5.504 292.138 5.631 291.933 5.886 L 291.921 5.886 L 291.921 5.544 L 291.295 5.544 L 291.295 8.772 Z M 294.68 7.786 L 294.243 8.231 C 294.648 8.617 295.103 8.809 295.61 8.809 C 295.983 8.805 296.289 8.717 296.529 8.543 C 296.77 8.372 296.893 8.13 296.896 7.818 C 296.896 7.55 296.829 7.329 296.697 7.155 C 296.553 6.977 296.32 6.875 295.996 6.85 L 295.482 6.81 C 295.33 6.794 295.225 6.755 295.164 6.694 C 295.098 6.64 295.068 6.578 295.072 6.505 C 295.072 6.392 295.112 6.298 295.194 6.225 C 295.272 6.153 295.408 6.116 295.604 6.116 C 295.776 6.116 295.928 6.142 296.059 6.194 C 296.193 6.252 296.32 6.326 296.439 6.415 L 296.825 5.945 C 296.674 5.808 296.502 5.7 296.311 5.618 C 296.21 5.582 296.104 5.553 295.99 5.532 C 295.876 5.514 295.748 5.504 295.604 5.504 C 295.273 5.504 295 5.587 294.784 5.753 C 294.563 5.919 294.45 6.168 294.446 6.499 C 294.45 6.775 294.537 6.989 294.704 7.142 C 294.867 7.3 295.079 7.392 295.34 7.416 L 295.892 7.466 C 296.008 7.47 296.1 7.496 296.17 7.544 C 296.238 7.59 296.272 7.67 296.272 7.786 C 296.272 7.917 296.215 8.019 296.101 8.092 C 295.987 8.164 295.841 8.2 295.662 8.2 C 295.26 8.2 294.932 8.063 294.68 7.786 Z M 297.563 5.544 L 297.251 5.544 L 297.251 6.038 L 297.563 6.038 L 297.563 7.976 C 297.563 8.231 297.634 8.426 297.777 8.56 C 297.918 8.702 298.098 8.772 298.316 8.772 L 298.643 8.772 L 298.643 8.159 L 298.41 8.159 C 298.257 8.164 298.184 8.084 298.188 7.921 L 298.188 6.038 L 298.643 6.038 L 298.643 5.544 L 298.188 5.544 L 298.188 4.561 L 297.563 4.561 L 297.563 5.544 Z M 300.863 8.772 L 301.489 8.772 L 301.489 6.567 C 301.485 6.173 301.366 5.896 301.133 5.733 C 300.9 5.576 300.588 5.5 300.196 5.504 C 299.733 5.496 299.382 5.653 299.146 5.976 L 299.637 6.365 C 299.69 6.272 299.764 6.206 299.857 6.166 C 299.948 6.133 300.07 6.116 300.227 6.116 C 300.655 6.108 300.868 6.246 300.863 6.53 L 300.863 6.868 L 299.999 6.868 C 299.667 6.873 299.416 6.967 299.245 7.149 C 299.073 7.327 298.987 7.552 298.987 7.824 C 298.987 8.108 299.085 8.341 299.283 8.523 C 299.471 8.71 299.738 8.805 300.085 8.809 C 300.297 8.809 300.463 8.782 300.583 8.729 C 300.704 8.677 300.793 8.596 300.851 8.486 L 300.863 8.486 L 300.863 8.772 Z M 300.863 7.637 C 300.863 7.88 300.814 8.036 300.717 8.104 C 300.608 8.172 300.425 8.204 300.164 8.2 C 299.955 8.2 299.807 8.158 299.717 8.072 C 299.624 7.996 299.577 7.902 299.577 7.793 C 299.573 7.542 299.753 7.412 300.115 7.404 L 300.863 7.404 L 300.863 7.637 Z M 302.292 7.988 C 302.292 8.273 302.371 8.476 302.525 8.595 C 302.674 8.714 302.862 8.772 303.089 8.772 L 303.366 8.772 L 303.366 8.159 L 303.151 8.159 C 302.995 8.159 302.918 8.085 302.918 7.938 L 302.918 4.238 L 302.292 4.238 L 302.292 7.988 Z M 303.878 7.988 C 303.878 8.273 303.956 8.476 304.112 8.595 C 304.26 8.714 304.448 8.772 304.674 8.772 L 304.953 8.772 L 304.953 8.159 L 304.738 8.159 C 304.581 8.159 304.504 8.085 304.504 7.938 L 304.504 4.238 L 303.878 4.238 L 303.878 7.988 Z M 307.866 7.404 L 307.866 6.868 C 307.862 6.444 307.736 6.11 307.486 5.867 C 307.241 5.629 306.94 5.508 306.585 5.504 C 306.437 5.504 306.288 5.532 306.136 5.587 C 305.983 5.643 305.843 5.735 305.72 5.861 C 305.598 5.986 305.498 6.156 305.421 6.37 C 305.344 6.583 305.304 6.848 305.304 7.167 C 305.304 7.499 305.349 7.769 305.438 7.976 C 305.521 8.192 305.628 8.361 305.759 8.48 C 305.827 8.538 305.9 8.587 305.977 8.626 C 306.052 8.672 306.127 8.708 306.204 8.734 C 306.361 8.784 306.52 8.809 306.683 8.809 C 307.113 8.814 307.486 8.64 307.803 8.287 L 307.351 7.886 C 307.151 8.095 306.925 8.2 306.672 8.2 C 306.454 8.2 306.279 8.132 306.145 7.995 C 306.002 7.861 305.93 7.664 305.93 7.404 L 307.866 7.404 Z M 305.93 6.868 C 305.942 6.617 306.006 6.428 306.124 6.3 C 306.244 6.178 306.398 6.116 306.585 6.116 C 306.772 6.116 306.926 6.178 307.046 6.3 C 307.167 6.428 307.232 6.617 307.241 6.868 L 305.93 6.868 Z M 310.375 8.433 L 310.375 8.772 L 311 8.772 L 311 4.238 L 310.375 4.238 L 310.375 5.886 C 310.259 5.772 310.139 5.679 310.012 5.606 C 309.878 5.538 309.731 5.504 309.57 5.504 C 309.192 5.514 308.914 5.655 308.738 5.927 C 308.652 6.028 308.596 6.162 308.568 6.328 C 308.535 6.492 308.517 6.768 308.517 7.155 C 308.517 7.537 308.535 7.811 308.568 7.976 C 308.596 8.15 308.652 8.289 308.738 8.39 C 308.833 8.514 308.948 8.614 309.088 8.689 C 309.222 8.766 309.383 8.805 309.57 8.809 C 309.901 8.801 310.169 8.676 310.375 8.433 Z M 309.762 6.154 C 309.91 6.154 310.027 6.184 310.111 6.243 C 310.198 6.304 310.257 6.382 310.289 6.48 C 310.328 6.578 310.354 6.684 310.369 6.798 C 310.372 6.911 310.375 7.03 310.375 7.155 C 310.375 7.27 310.372 7.386 310.369 7.504 C 310.354 7.624 310.328 7.732 310.289 7.83 C 310.257 7.927 310.198 8.007 310.111 8.067 C 310.027 8.129 309.91 8.159 309.762 8.159 C 309.614 8.159 309.501 8.13 309.422 8.072 C 309.338 8.013 309.275 7.936 309.235 7.843 C 309.197 7.745 309.172 7.636 309.16 7.512 C 309.148 7.397 309.143 7.277 309.143 7.155 C 309.143 7.027 309.148 6.901 309.16 6.779 C 309.172 6.665 309.197 6.559 309.235 6.461 C 309.275 6.364 309.338 6.287 309.422 6.231 C 309.501 6.18 309.614 6.154 309.762 6.154 Z" style="white-space: pre;"/>
  <line x1="0" y1="15" x2="334" y2="15" id="line-2" stroke-width="0.265" style="paint-order: fill; stroke-dasharray: 2px; stroke: rgb(255, 0, 0);"/>
  <path d="M263.21164,337.68513 C263.21364,336.51637 263.23044,334.62942 263.24784,333.49191 L263.27954,331.42372 L263.42749,330.9919 C263.77557,329.97595 264.4337,329.21735 265.37439,328.74779 C266.46204,328.20487 267.85415,328.23682 268.90587,328.82889 C269.8221,329.34464 270.51398,330.26377 270.75653,331.2874 C270.83823,331.63223 270.85023,331.79288 270.83283,332.31013 C270.81483,332.84767 270.79433,332.97656 270.66791,333.34945 C270.23901,334.61452 269.23575,335.55221 267.95715,335.88305 C267.48004,336.00651 266.56977,335.99851 266.10911,335.86675 C265.65064,335.73568 265.29978,335.57757 264.97417,335.35532 C264.82786,335.25542 264.6977,335.17373 264.68492,335.17373 C264.67212,335.17373 264.66162,336.21692 264.66162,337.49193 L264.66162,339.81013 L263.93435,339.81013 L263.20707,339.81013 L263.21164,337.68513 Z M267.57866,334.4715 C268.87102,334.19759 269.69167,332.88417 269.36298,331.61573 C269.15569,330.81576 268.59249,330.20794 267.81014,329.93986 C267.42172,329.80677 266.72961,329.79505 266.34349,329.91506 C265.36146,330.22017 264.70527,331.13175 264.707783,332.18736 C264.71179,333.71047 266.06987,334.79131 267.57866,334.47154 L267.57866,334.4715 Z M258.12988,335.99129 C257.27474,335.87355 256.56641,335.53378 255.96448,334.95262 C254.8796,333.90519 254.50272,332.36312 254.98198,330.93261 C255.18673,330.32151 255.42899,329.94155 255.92956,329.44644 C256.63088,328.75278 257.37614,328.42026 258.34344,328.36943 C259.19169,328.32483 259.94636,328.51293 260.57269,328.92499 L260.93436,329.16294 L260.93436,328.86669 L260.93436,328.57043 L261.14525,328.59933 C261.26124,328.61523 261.59875,328.62823 261.89526,328.62823 L262.43437,328.62823 L262.43437,332.28735 L262.43437,335.94646 L261.68437,335.94646 L260.93436,335.94646 L260.93436,335.56414 L260.93436,335.18181 L260.62754,335.38775 C260.23426,335.65173 259.94053,335.78053 259.47074,335.895 C259.01129,336.00696 258.50679,336.04318 258.12988,335.9913 L258.12988,335.99129 Z M259.34562,334.40925 C259.7714,334.26078 259.98924,334.12727 260.27987,333.83664 C261.01193,333.10459 261.16062,331.98608 260.65306,331.02935 C260.28646,330.33833 259.39483,329.81112 258.59344,329.81154 C258.26902,329.81167 257.7726,329.92608 257.48059,330.06796 C257.16868,330.21949 256.66833,330.71012 256.5129,331.01685 C256.14467,331.74353 256.14448,332.60355 256.51244,333.3296 C256.76697,333.83189 257.43899,334.3352 258.03723,334.4716 C258.4018,334.5547 259.01188,334.5256 259.34567,334.4093 L259.34562,334.40925 Z M287.66457,335.9904 C286.06831,335.77062 284.78514,334.59564 284.40631,333.00686 C284.29628,332.54542 284.30691,331.74957 284.42961,331.26604 C284.74343,330.02909 285.65275,329.01408 286.83179,328.58469 C287.87676,328.20411 289.11135,328.30898 290.04759,328.85785 C290.43282,329.08369 290.69091,329.29072 291.03628,329.65098 L291.29774,329.92371 L291.2982,329.25325 L291.29867,328.58279 L291.63958,328.58279 L291.98049,328.58279 L291.98049,332.28736 L291.98049,335.99193 L291.63957,335.99193 L291.29866,335.99193 L291.29786,335.20784 L291.29706,334.42374 L291.08226,334.67084 C290.77264,335.02702 290.25816,335.41979 289.82992,335.62692 C289.19686,335.93312 288.31963,336.08045 287.66564,335.9904 L287.66457,335.9904 Z M289.10885,335.16195 C290.81449,334.55757 291.70105,332.68813 291.07143,331.02355 C290.65214,329.91498 289.53157,329.1182 288.29817,329.05163 C287.72739,329.02083 287.30683,329.11123 286.75611,329.38314 C286.02841,329.74242 285.39765,330.46584 285.15522,331.21917 C285.02049,331.63782 284.99049,332.3759 285.09002,332.82326 C285.34349,333.96256 286.30303,334.96034 287.41382,335.23969 C287.84938,335.34922 288.68902,335.31069 289.10884,335.16199 L289.10885,335.16195 Z M306.70723,335.99951 C306.64563,335.97891 306.64723,332.01814 306.70923,331.63801 C306.99256,329.89204 308.4154,328.51087 310.07312,328.37262 L310.43492,328.34252 L310.43539,328.51951 C310.43585,328.61691 310.44849,328.77321 310.46409,328.86695 L310.49229,329.03741 L310.31589,329.03811 C310.00029,329.04011 309.51029,329.1683 309.17268,329.33858 C308.5271,329.66417 307.82532,330.38675 307.61467,330.94277 C307.40445,331.49765 307.38947,331.69465 307.38947,333.90396 C307.38947,335.05233 307.37417,335.99284 307.35537,335.99398 C307.12305,336.00808 306.74285,336.01138 306.70749,335.99998 L306.70723,335.99951 Z M241.3206,335.92501 C240.59149,335.80874 239.38877,335.40532 239.38877,335.27703 C239.38877,335.18463 239.79212,334.25972 239.87186,334.16926 C239.93026,334.10296 239.96836,334.10806 240.29907,334.22506 C240.77686,334.39413 241.76776,334.53711 242.45697,334.53642 C243.35156,334.53562 243.93819,334.359 244.2711,333.99051 C244.45842,333.78317 244.47772,333.63525 244.3423,333.445 C244.15135,333.17684 243.74772,333.05374 242.47975,332.87692 C241.21687,332.70083 240.37649,332.37598 239.81676,331.84755 C239.39735,331.45159 239.21612,330.94037 239.30224,330.39618 C239.44959,329.46522 240.19268,328.79851 241.4574,328.46257 C241.8677,328.35358 241.99277,328.34163 242.75248,328.33877 C243.38007,328.33677 243.7087,328.35667 244.04794,328.41837 C244.77066,328.54987 245.70704,328.87281 245.70704,328.99056 C245.70704,329.10211 245.23304,330.17384 245.18371,330.17384 C245.15261,330.17384 245.05134,330.14214 244.95859,330.10344 C244.68042,329.98722 243.99491,329.86058 243.34948,329.80619 C242.68528,329.75029 241.9631,329.79819 241.5298,329.92674 C241.07121,330.06293 240.83975,330.40472 240.99839,330.71149 C241.17466,331.05237 241.67089,331.24923 242.85599,331.44846 C243.92059,331.62743 244.24765,331.70274 244.62215,331.85514 C245.06195,332.03411 245.33645,332.20617 245.57826,332.45444 C246.28005,333.17494 246.22663,334.23835 245.44985,335.01097 C245.04355,335.41508 244.27106,335.78741 243.5553,335.92409 C243.11634,336.00789 241.84346,336.00849 241.32065,335.92489 L241.3206,335.92501 Z M246.63885,334.07153 C246.67025,331.61574 246.67265,331.5834 246.86463,331.00967 C247.35708,329.538 248.34433,328.69184 249.88342,328.4223 C251.80729,328.08537 253.57792,329.21974 254.13642,331.14702 L254.2525,331.54759 L254.2525,333.7698 L254.2525,335.992 L253.54795,335.992 L252.8434,335.992 L252.8426,333.91244 C252.8418,331.88058 252.8396,331.82604 252.7398,331.53479 C252.3888,330.5052 251.45685,329.81014 250.42735,329.81014 C249.7797,329.81014 249.35548,329.97856 248.89898,330.41691 C248.4933,330.80646 248.28447,331.1389 248.16326,331.58809 C248.06325,331.95872 248.06207,331.99605 248.08716,333.9783 L248.11266,335.992 L247.36365,335.992 L246.61464,335.992 L246.63885,334.07153 Z M272.14485,333.48061 C272.17155,330.83265 272.18345,330.67667 272.39734,330.1772 C272.53781,329.84917 272.8737,329.37868 273.14333,329.13226 C273.67005,328.65086 274.2928,328.40686 275.09365,328.3681 C275.68552,328.3395 276.10972,328.4335 276.6367,328.71027 C277.01365,328.90824 277.52071,329.36882 277.74345,329.71558 C277.87714,329.92372 277.90952,329.95081 277.95216,329.89023 C278.44673,329.18776 278.74313,328.91671 279.30426,328.6537 C280.93377,327.88994 282.86999,328.6587 283.43788,330.29489 C283.65331,330.91557 283.66179,331.04011 283.66179,333.58586 L283.66179,335.99203 L283.29815,335.99203 L282.9345,335.99203 L282.9345,333.50023 C282.9345,330.77801 282.9365,330.80976 282.66145,330.26469 C282.21755,329.38718 281.1347,328.88749 280.13372,329.09824 C279.30602,329.27251 278.71241,329.79886 278.38535,330.64852 L278.26189,330.96923 L278.24449,333.43279 C278.23449,334.78774 278.21069,335.91275 278.19059,335.9328 C278.17059,335.9528 278.01778,335.9693 277.85109,335.9693 L277.54804,335.9693 L277.52524,333.42382 C277.50304,330.93895 277.50014,330.87204 277.40236,330.61324 C277.24926,330.20797 277.10071,329.98412 276.80024,329.70593 C276.04606,329.0077 274.98809,328.84588 274.10389,329.29352 C273.80986,329.44238 273.26995,329.9817 273.10547,330.29084 C272.84855,330.77374 272.84339,330.83751 272.84339,333.52429 L272.84339,335.99203 L272.4814,335.99203 L272.11942,335.99203 L272.14485,333.48061 Z M293.11639,330.24196 L293.11639,324.49192 L293.4573,324.49192 L293.79821,324.49192 L293.79821,328.33286 C293.79821,330.44537 293.81361,332.17314 293.83231,332.17234 C293.85111,332.17164 294.73572,331.31285 295.79822,330.26414 L297.73005,328.35741 L298.23006,328.35941 L298.73007,328.36141 L296.79823,330.26907 L294.8664,332.17672 L296.77341,334.05527 L298.68042,335.93382 L298.2385,335.96632 L297.79657,335.99882 L297.55877,335.7932 C297.42798,335.68011 296.6666,334.93262 295.86682,334.1321 L294.41267,332.67663 L294.12817,332.9586 L293.84367,333.24058 L293.84367,333.90098 C293.84367,334.26421 293.83017,334.88355 293.81387,335.2773 L293.78417,335.99322 L293.45037,335.99322 L293.11657,335.99322 L293.11657,330.24318 L293.11639,330.24196 Z M301.45735,335.92637 C301.02064,335.82393 300.66243,335.68449 300.3325,335.48848 C299.47498,334.97904 298.93418,334.30728 298.61115,333.35031 C298.34092,332.54976 298.38104,331.53398 298.71457,330.73196 C299.1629,329.6539 300.16094,328.77067 301.27553,328.46564 C301.67944,328.35509 302.51345,328.33018 302.96374,328.41524 C303.83523,328.5798 304.64209,329.05073 305.19154,329.71553 C305.4226,329.9951 305.75187,330.55769 305.70642,330.59526 C305.69452,330.60526 305.38806,330.78309 305.02556,330.99068 C304.39755,331.35032 302.87032,332.22948 300.76417,333.4438 C300.20524,333.76604 299.79826,334.02852 299.79826,334.06674 C299.79826,334.10304 299.94655,334.2803 300.1278,334.4606 C300.69244,335.02226 301.34636,335.28085 302.20736,335.28297 C303.45492,335.28597 304.49276,334.66849 304.99481,333.62437 C305.10795,333.38908 305.23412,333.07384 305.2752,332.92384 L305.3499,332.65111 L305.71565,332.45822 L306.08141,332.26534 L306.05071,332.52641 C305.99491,333.00087 305.88429,333.37273 305.66187,333.83293 C305.18688,334.81579 304.32684,335.54405 303.26397,335.86343 C302.86056,335.98464 301.85505,336.0197 301.45733,335.92643 L301.45735,335.92637 Z M300.46244,332.80368 C301.03465,332.47512 302.05508,331.88846 302.73008,331.5 C303.40509,331.11152 304.12866,330.69667 304.33802,330.57809 C304.54738,330.45951 304.73816,330.343 304.76197,330.31918 C304.81747,330.26368 304.19286,329.70892 303.8203,329.4826 C302.95091,328.95447 301.80791,328.89388 300.90727,329.32817 C300.10724,329.71394 299.51949,330.405 299.24411,331.28364 C299.12931,331.64997 299.08761,332.35905 299.15921,332.72785 C299.21061,332.99251 299.35857,333.40107 299.40307,333.40107 C299.41357,333.40107 299.89025,333.13225 300.46245,332.80368 L300.46244,332.80368 Z" id="path24" fill-rule="nonzero" style="fill: rgb(209, 209, 211);"/>
</svg>
