<?xml version="1.0" encoding="utf-8"?>
<svg viewBox="0 0 324 200" xmlns="http://www.w3.org/2000/svg" author="https://github.com/macdylan/3dp-configs">
  <g id="g15076" transform="matrix(1, 0, 0, 1, 9.5, 0)">
    <line x1="150.5" y1="10" x2="150.5" y2="200" id="path15048" stroke="#0066FF" stroke-width="0.258" fill="#00112B" fill-rule="nonzero" stroke-dasharray="1.548,0.258"/>
    <line x1="140.5" y1="0" x2="140.5" y2="190" id="path15046" stroke="#FF0000" stroke-width="0.265" stroke-dasharray="1.59,0.265"/>
    <g id="text16399" transform="translate(133.563550, 193.575880)" fill="#FF0000" fill-rule="nonzero">
      <polygon id="path17403" points="2.84217094e-14 0.04651 0.51849 0.04651 1.17478 1.79662 1.83451 0.04651 2.353 0.04651 2.353 2.61827 2.01366 2.61827 2.01366 0.36001 1.35048 2.1239 1.0008 2.1239 0.33762 0.36001 0.33762 2.61827 5.68434189e-14 2.61827"/>
      <polygon id="path17405" points="3.04374 0.04651 3.3917 0.04651 3.3917 2.61827 3.04374 2.61827"/>
      <path d="M5.30373,1.41249 C5.37837,1.43775667 5.45071667,1.49173 5.52077,1.57441 C5.59196333,1.65709 5.66316,1.77077667 5.73436,1.91547 L6.08749,2.61828 L5.71369,2.61828 L5.38469,1.95854 C5.29971,1.78628 5.21702667,1.67201667 5.13664,1.61575 C5.0574,1.55948333 4.94888,1.53135 4.81108,1.53135 L4.43212,1.53135 L4.43212,2.61828 L4.08416,2.61828 L4.08416,0.04652 L4.86964,0.04652 C5.16362667,0.04652 5.38296667,0.107956667 5.52766,0.23083 C5.67235333,0.353703333 5.7447,0.539163333 5.7447,0.78721 C5.7447,0.94913 5.70680333,1.08349 5.63101,1.19029 C5.55636333,1.29709 5.44727,1.37116 5.30373,1.4125 L5.30373,1.41249 Z M4.43212,0.33245 L4.43212,1.2454 L4.86964,1.2454 C5.03730667,1.2454 5.16362667,1.20693 5.2486,1.12999 C5.33473333,1.05190333 5.3778,0.93764 5.3778,0.7872 C5.3778,0.636766667 5.33473333,0.523653333 5.2486,0.44786 C5.16362667,0.37092 5.03730667,0.33245 4.86964,0.33245 L4.43212,0.33245 Z" id="path17407"/>
      <path d="M7.75491,1.41249 C7.82955667,1.43775667 7.90190333,1.49173 7.97195,1.57441 C8.04315,1.65709 8.11435,1.77077667 8.18555,1.91547 L8.53867,2.61828 L8.16488,2.61828 L7.83587,1.95854 C7.75089,1.78628 7.66821,1.67201667 7.58783,1.61575 C7.50859,1.55948333 7.40006667,1.53135 7.26226,1.53135 L6.8833,1.53135 L6.8833,2.61828 L6.53535,2.61828 L6.53535,0.04652 L7.32083,0.04652 C7.61481,0.04652 7.83414667,0.107956667 7.97884,0.23083 C8.12354,0.353703333 8.19589,0.539163333 8.19589,0.78721 C8.19589,0.94913 8.15799333,1.08349 8.0822,1.19029 C8.00755333,1.29709 7.89845667,1.37116 7.75491,1.4125 L7.75491,1.41249 Z M6.8833,0.33245 L6.8833,1.2454 L7.32083,1.2454 C7.48849,1.2454 7.61481,1.20693 7.69979,1.12999 C7.78591667,1.05190333 7.82898,0.93764 7.82898,0.7872 C7.82898,0.636766667 7.78591667,0.523653333 7.69979,0.44786 C7.61481,0.37092 7.48849,0.33245 7.32083,0.33245 L6.8833,0.33245 Z" id="path17409"/>
      <path d="M10.0304,0.2825 C9.77776,0.2825 9.57679667,0.376663333 9.42751,0.56499 C9.27937,0.753323333 9.2053,1.00998333 9.2053,1.33497 C9.2053,1.65881 9.27937,1.91489667 9.42751,2.10323 C9.57679667,2.29156333 9.77776,2.38573 10.0304,2.38573 C10.28304,2.38573 10.4828567,2.29156333 10.62985,2.10323 C10.77799,1.91489667 10.85206,1.65881 10.85206,1.33497 C10.85206,1.00998333 10.77799,0.753323333 10.62985,0.56499 C10.4828567,0.376663333 10.28304,0.2825 10.0304,0.2825 Z M10.0304,0 C10.3909867,0 10.6792267,0.121153333 10.89512,0.36346 C11.1110133,0.604613333 11.21896,0.92845 11.21896,1.33497 C11.21896,1.74034333 11.1110133,2.06418333 10.89512,2.30649 C10.6792267,2.54765 10.3909867,2.66823 10.0304,2.66823 C9.66866667,2.66823 9.37928,2.54765 9.16224,2.30649 C8.94634667,2.06533667 8.8384,1.74149667 8.8384,1.33497 C8.8384,0.92845 8.94634667,0.604613333 9.16224,0.36346 C9.37928,0.121153333 9.66866667,0 10.0304,0 Z" id="path17411"/>
      <path d="M12.98285,1.41249 C13.05749,1.43775667 13.1298367,1.49173 13.19989,1.57441 C13.27109,1.65709 13.34229,1.77077667 13.41349,1.91547 L13.76661,2.61828 L13.39282,2.61828 L13.06381,1.95854 C12.97883,1.78628 12.8961467,1.67201667 12.81576,1.61575 C12.7365267,1.55948333 12.6280067,1.53135 12.4902,1.53135 L12.11124,1.53135 L12.11124,2.61828 L11.76328,2.61828 L11.76328,0.04652 L12.54877,0.04652 C12.84275,0.04652 13.0620867,0.107956667 13.20678,0.23083 C13.3514733,0.353703333 13.42382,0.539163333 13.42382,0.78721 C13.42382,0.94913 13.3859233,1.08349 13.31013,1.19029 C13.23549,1.29709 13.1263967,1.37116 12.98285,1.4125 L12.98285,1.41249 Z M12.11124,0.33245 L12.11124,1.2454 L12.54877,1.2454 C12.71643,1.2454 12.84275,1.20693 12.92773,1.12999 C13.0138567,1.05190333 13.05692,0.93764 13.05692,0.7872 C13.05692,0.636766667 13.0138567,0.523653333 12.92773,0.44786 C12.84275,0.37092 12.71643,0.33245 12.54877,0.33245 L12.11124,0.33245 Z" id="path17413"/>
    </g>
    <g id="text16407" transform="translate(146.122500, 3.496344)" fill="#0066FF" fill-rule="nonzero">
      <path d="M2.07395,0.2446022 L2.07395,0.6115051 C1.95681667,0.5024103 1.83164333,0.4208763 1.69843,0.3669031 C1.56637,0.312929767 1.42569667,0.2859431 1.27641,0.2859431 C0.98243,0.2859431 0.75735,0.3760898 0.60117,0.5563832 C0.44499,0.735528267 0.3669,0.995058967 0.3669,1.3349753 C0.3669,1.67374323 0.44499,1.93327393 0.60117,2.1135674 C0.75735,2.29271247 0.98243,2.382285 1.27641,2.382285 C1.42569667,2.382285 1.56637,2.35529833 1.69843,2.301325 C1.83164333,2.24735167 1.95681667,2.1658177 2.07395,2.0567231 L2.07395,2.4201809 C1.95222333,2.50286323 1.82303333,2.564875 1.68638,2.6062162 C1.55087333,2.64755753 1.40732667,2.6682282 1.25574,2.6682282 C0.866446667,2.6682282 0.559833333,2.54937233 0.3359,2.3116606 C0.111966667,2.07280047 0,1.74723873 0,1.3349754 C0,0.921563667 0.111966667,0.596001933 0.3359,0.3582902 C0.559833333,0.119430067 0.866446667,-4.4408921e-16 1.25574,-4.4408921e-16 C1.40962,-4.4408921e-16 1.55431333,0.0206706667 1.68982,0.062012 C1.82647333,0.102204667 1.95451667,0.163068067 2.07395,0.2446022 L2.07395,0.2446022 Z" id="path17394"/>
      <path d="M3.65525,0.2824983 C3.40261,0.2824983 3.20164667,0.3766643 3.05236,0.5649963 C2.90422,0.7533283 2.83015,1.00998807 2.83015,1.3349756 C2.83015,1.6588148 2.90422,1.9149004 3.05236,2.1032324 C3.20164667,2.2915644 3.40261,2.3857304 3.65525,2.3857304 C3.90789,2.3857304 4.10770667,2.2915644 4.2547,2.1032324 C4.40284,1.9149004 4.47691,1.6588148 4.47691,1.3349756 C4.47691,1.00998807 4.40284,0.7533283 4.2547,0.5649963 C4.10770667,0.3766643 3.90789,0.2824983 3.65525,0.2824983 Z M3.65525,2e-07 C4.01583667,2e-07 4.30407667,0.1211528 4.51997,0.363458 C4.73586333,0.604614867 4.84381,0.928454067 4.84381,1.3349756 C4.84381,1.7403488 4.73586333,2.064188 4.51997,2.3064932 C4.30407667,2.54765 4.01583667,2.6682284 3.65525,2.6682284 C3.29351667,2.6682284 3.00413,2.54765 2.78709,2.3064932 C2.57119667,2.06533633 2.46325,1.74149713 2.46325,1.3349756 C2.46325,0.928454067 2.57119667,0.604614867 2.78709,0.363458 C3.00413,0.1211528 3.29351667,2e-07 3.65525,2e-07 Z" id="path17396"/>
      <path d="M5.73609,0.3324522 L5.73609,1.2988021 L6.17362,1.2988021 C6.33554,1.2988021 6.46071,1.25688673 6.54913,1.173056 C6.63755667,1.08922527 6.68177,0.9697952 6.68177,0.8147658 C6.68177,0.6608848 6.63755667,0.542028933 6.54913,0.4581982 C6.46071,0.374367533 6.33554,0.3324522 6.17362,0.3324522 L5.73609,0.3324522 Z M5.38813,0.0465091 L6.17362,0.0465091 C6.46186,0.0465091 6.67947333,0.111965933 6.82646,0.2428796 C6.9746,0.372645 7.04867,0.563273733 7.04867,0.8147658 C7.04867,1.06855467 6.9746,1.2603318 6.82646,1.3900972 C6.67947333,1.51986253 6.46186,1.5847452 6.17362,1.5847452 L5.73609,1.5847452 L5.73609,2.6182745 L5.38813,2.6182745 L5.38813,0.0465091 Z" id="path17398"/>
      <polygon id="path17400" points="7.08484 0.0465091 7.45864 0.0465091 8.17177 1.1041541 8.87974 0.0465091 9.25353 0.0465091 8.34403 1.3935423 8.34403 2.6182745 7.99435 2.6182745 7.99435 1.3935423"/>
    </g>
  </g>
  <g id="Group" fill="#575757" style="">
    <rect id="rect591" fill-rule="nonzero" x="0" y="0" width="12" height="189" rx="4"/>
    <rect id="Rectangle" x="6" y="0" width="6" height="189"/>
  </g>
  <g id="Group-2" transform="matrix(1, 0, 0, 1, 312, 0)" fill="#575757" style="">
    <rect id="rect591-1" fill-rule="nonzero" x="0" y="0" width="12" height="189" rx="4"/>
    <rect id="Rectangle" x="0" y="0" width="6" height="189"/>
  </g>
  <g id="g-1" style="display: inline;" transform="matrix(1, 0, 0, 1, -2, -7)">
    <rect style="stroke-width: 0.154526; fill: rgb(209, 209, 211);" id="rect-1" width="0.78233474" height="10.43113" x="279.55826" y="186.86078"/>
    <path d="m 287.28671,193.04701 q 0,0.99111 -0.157,1.47195 -0.1472,0.48083 -0.58878,0.77522 -0.43178,0.28458 -0.94205,0.28458 -0.50046,0 -0.93224,-0.15701 -0.42196,-0.15701 -1.00092,-0.65747 l 0.4514,-0.66728 q 0.56915,0.41214 0.86354,0.54952 0.29439,0.13739 0.56915,0.13739 0.28458,0 0.52009,-0.20608 0.23551,-0.20607 0.29439,-0.5299 0.0687,-0.33364 0.0687,-1.03036 v -4.79856 h 0.85373 z" id="path-1" style="fill: rgb(209, 209, 211);"/>
    <path d="m 291.33947,195.40213 h -0.83411 v -6.35883 h -1.16774 l 0.51027,-0.82429 h 1.49158 z" id="path-2" style="fill: rgb(209, 209, 211);"/>
    <path d="M 241.056 196.496 C 241.058 195.638 241.07 194.253 241.083 193.418 L 241.106 191.9 L 241.215 191.583 C 241.47 190.838 241.953 190.281 242.644 189.936 C 243.442 189.538 244.464 189.561 245.236 189.996 C 245.908 190.374 246.416 191.049 246.594 191.8 C 246.654 192.053 246.663 192.171 246.65 192.551 C 246.637 192.945 246.622 193.04 246.529 193.314 C 246.214 194.242 245.478 194.931 244.539 195.174 C 244.189 195.264 243.521 195.258 243.183 195.162 C 242.846 195.065 242.589 194.949 242.35 194.786 C 242.242 194.713 242.147 194.653 242.137 194.653 C 242.128 194.653 242.12 195.419 242.12 196.355 L 242.12 198.056 L 241.587 198.056 L 241.053 198.056 L 241.056 196.496 Z M 244.262 194.137 C 245.21 193.936 245.813 192.972 245.571 192.041 C 245.419 191.454 245.006 191.008 244.432 190.811 C 244.146 190.713 243.638 190.705 243.355 190.793 C 242.634 191.017 242.152 191.686 242.154 192.461 C 242.157 193.579 243.154 194.372 244.262 194.137 L 244.262 194.137 Z M 237.326 195.253 C 236.698 195.167 236.178 194.917 235.736 194.491 C 234.94 193.722 234.664 192.59 235.015 191.54 C 235.166 191.091 235.343 190.812 235.711 190.449 C 236.226 189.94 236.773 189.696 237.483 189.658 C 238.105 189.626 238.659 189.764 239.119 190.066 L 239.385 190.241 L 239.385 190.023 L 239.385 189.806 L 239.539 189.827 C 239.624 189.839 239.872 189.848 240.09 189.848 L 240.486 189.848 L 240.486 192.534 L 240.486 195.22 L 239.935 195.22 L 239.385 195.22 L 239.385 194.939 L 239.385 194.659 L 239.159 194.81 C 238.871 195.004 238.655 195.098 238.31 195.182 C 237.973 195.264 237.603 195.291 237.326 195.253 Z M 238.218 194.092 C 238.531 193.983 238.691 193.885 238.904 193.671 C 239.441 193.134 239.551 192.313 239.178 191.611 C 238.909 191.104 238.254 190.717 237.666 190.717 C 237.428 190.717 237.064 190.801 236.849 190.905 C 236.62 191.016 236.253 191.376 236.139 191.602 C 235.869 192.135 235.869 192.766 236.139 193.299 C 236.326 193.668 236.819 194.037 237.258 194.137 C 237.526 194.199 237.973 194.177 238.218 194.092 L 238.218 194.092 Z M 259.005 195.252 C 257.833 195.091 256.892 194.229 256.614 193.062 C 256.533 192.724 256.54 192.139 256.631 191.785 C 256.861 190.877 257.528 190.132 258.394 189.816 C 259.161 189.537 260.067 189.614 260.754 190.017 C 261.037 190.183 261.226 190.335 261.48 190.599 L 261.672 190.799 L 261.672 190.307 L 261.673 189.815 L 261.923 189.815 L 262.173 189.815 L 262.173 192.534 L 262.173 195.253 L 261.923 195.253 L 261.673 195.253 L 261.672 194.678 L 261.671 194.102 L 261.514 194.284 C 261.286 194.545 260.909 194.833 260.595 194.986 C 260.13 195.21 259.486 195.318 259.006 195.252 L 259.005 195.252 Z M 260.065 194.644 C 261.317 194.201 261.968 192.828 261.506 191.607 C 261.198 190.793 260.375 190.208 259.47 190.159 C 259.051 190.137 258.743 190.203 258.338 190.402 C 257.804 190.666 257.341 191.197 257.163 191.75 C 257.064 192.057 257.042 192.599 257.115 192.928 C 257.301 193.764 258.006 194.496 258.821 194.701 C 259.141 194.782 259.757 194.753 260.065 194.644 L 260.065 194.644 Z M 272.983 195.259 C 272.938 195.244 272.939 192.337 272.984 192.058 C 273.192 190.776 274.237 189.762 275.453 189.661 L 275.719 189.639 L 275.719 189.768 C 275.72 189.84 275.729 189.955 275.74 190.024 L 275.761 190.149 L 275.632 190.149 C 275.4 190.151 275.04 190.245 274.793 190.37 C 274.319 190.609 273.804 191.139 273.649 191.547 C 273.495 191.955 273.484 192.099 273.484 193.721 C 273.484 194.564 273.472 195.254 273.459 195.255 C 273.288 195.265 273.009 195.268 272.983 195.259 L 272.983 195.259 Z M 224.988 195.204 C 224.452 195.119 223.57 194.823 223.57 194.729 C 223.57 194.661 223.866 193.982 223.924 193.916 C 223.967 193.867 223.995 193.871 224.238 193.957 C 224.588 194.081 225.316 194.186 225.822 194.185 C 226.478 194.185 226.909 194.055 227.153 193.784 C 227.291 193.632 227.305 193.524 227.206 193.384 C 227.065 193.187 226.769 193.097 225.838 192.967 C 224.911 192.838 224.295 192.599 223.884 192.211 C 223.576 191.921 223.443 191.546 223.506 191.146 C 223.614 190.463 224.16 189.973 225.088 189.727 C 225.389 189.647 225.481 189.638 226.039 189.636 C 226.499 189.634 226.74 189.649 226.989 189.694 C 227.52 189.791 228.207 190.028 228.207 190.114 C 228.207 190.196 227.859 190.983 227.823 190.983 C 227.8 190.983 227.726 190.96 227.658 190.931 C 227.454 190.846 226.951 190.753 226.477 190.713 C 225.989 190.672 225.459 190.707 225.141 190.801 C 224.804 190.901 224.635 191.152 224.751 191.377 C 224.88 191.628 225.245 191.772 226.115 191.918 C 226.896 192.05 227.136 192.105 227.411 192.217 C 227.734 192.348 227.935 192.475 228.113 192.657 C 228.628 193.186 228.589 193.966 228.018 194.533 C 227.72 194.83 227.153 195.103 226.628 195.204 C 226.306 195.265 225.371 195.266 224.988 195.204 L 224.988 195.204 Z M 228.891 193.844 C 228.914 192.041 228.916 192.017 229.057 191.596 C 229.418 190.516 230.143 189.895 231.273 189.697 C 232.685 189.45 233.985 190.282 234.395 191.697 L 234.48 191.991 L 234.48 193.622 L 234.48 195.254 L 233.963 195.254 L 233.446 195.254 L 233.445 193.727 C 233.444 192.236 233.443 192.196 233.369 191.982 C 233.112 191.226 232.428 190.716 231.672 190.716 C 231.197 190.716 230.885 190.839 230.55 191.161 C 230.252 191.447 230.099 191.691 230.01 192.021 C 229.937 192.293 229.936 192.32 229.954 193.775 L 229.973 195.254 L 229.423 195.254 L 228.873 195.254 L 228.891 193.844 Z M 247.613 193.41 C 247.633 191.466 247.642 191.352 247.799 190.985 C 247.902 190.745 248.148 190.399 248.346 190.218 C 248.733 189.865 249.19 189.686 249.778 189.657 C 250.212 189.636 250.524 189.705 250.91 189.909 C 251.187 190.054 251.559 190.392 251.723 190.646 C 251.821 190.799 251.845 190.819 251.876 190.775 C 252.239 190.259 252.457 190.06 252.868 189.867 C 254.065 189.306 255.486 189.871 255.903 191.072 C 256.061 191.527 256.067 191.619 256.067 193.487 L 256.067 195.254 L 255.8 195.254 L 255.533 195.254 L 255.533 193.425 C 255.533 191.426 255.535 191.45 255.333 191.05 C 255.007 190.405 254.212 190.039 253.477 190.193 C 252.87 190.321 252.434 190.708 252.194 191.331 L 252.103 191.567 L 252.091 193.375 C 252.083 194.37 252.066 195.195 252.051 195.21 C 252.036 195.225 251.924 195.237 251.802 195.237 L 251.579 195.237 L 251.563 193.368 C 251.546 191.544 251.544 191.495 251.472 191.305 C 251.36 191.008 251.251 190.844 251.03 190.639 C 250.477 190.127 249.7 190.008 249.051 190.337 C 248.835 190.446 248.439 190.842 248.318 191.069 C 248.13 191.423 248.126 191.47 248.126 193.442 L 248.126 195.254 L 247.86 195.254 L 247.595 195.254 L 247.613 193.41 Z M 263.007 191.033 L 263.007 186.812 L 263.257 186.812 L 263.507 186.812 L 263.507 189.632 C 263.507 191.182 263.519 192.45 263.532 192.45 C 263.546 192.449 264.195 191.819 264.975 191.049 L 266.393 189.65 L 266.76 189.651 L 267.127 189.652 L 265.709 191.053 L 264.291 192.453 L 265.691 193.832 L 267.091 195.211 L 266.767 195.235 L 266.442 195.259 L 266.268 195.108 C 266.172 195.025 265.613 194.476 265.026 193.888 L 263.958 192.82 L 263.749 193.027 L 263.541 193.234 L 263.541 193.719 C 263.541 193.985 263.531 194.44 263.519 194.729 L 263.497 195.254 L 263.252 195.254 L 263.007 195.254 L 263.007 191.034 L 263.007 191.033 Z M 269.129 195.205 C 268.809 195.13 268.546 195.028 268.304 194.884 C 267.674 194.51 267.277 194.017 267.04 193.314 C 266.842 192.727 266.871 191.981 267.116 191.393 C 267.445 190.601 268.178 189.953 268.996 189.729 C 269.292 189.648 269.905 189.63 270.235 189.692 C 270.875 189.813 271.467 190.158 271.87 190.646 C 272.04 190.852 272.282 191.265 272.248 191.292 C 272.239 191.3 272.015 191.43 271.748 191.582 C 271.288 191.846 270.166 192.492 268.62 193.383 C 268.21 193.62 267.911 193.812 267.911 193.84 C 267.911 193.867 268.02 193.997 268.153 194.129 C 268.568 194.542 269.048 194.731 269.68 194.733 C 270.596 194.735 271.357 194.282 271.726 193.516 C 271.809 193.343 271.902 193.112 271.932 193.001 L 271.987 192.801 L 272.255 192.66 L 272.523 192.518 L 272.501 192.71 C 272.46 193.058 272.379 193.331 272.215 193.669 C 271.867 194.39 271.236 194.925 270.455 195.159 C 270.159 195.248 269.421 195.274 269.129 195.205 Z M 268.399 192.913 C 268.819 192.672 269.568 192.241 270.064 191.956 C 270.559 191.671 271.09 191.367 271.244 191.28 C 271.397 191.193 271.537 191.107 271.555 191.09 C 271.596 191.049 271.137 190.642 270.864 190.475 C 270.226 190.088 269.387 190.043 268.726 190.362 C 268.138 190.645 267.707 191.153 267.505 191.797 C 267.42 192.066 267.39 192.587 267.442 192.858 C 267.48 193.052 267.589 193.352 267.621 193.352 C 267.629 193.352 267.979 193.154 268.399 192.913 Z" id="path24" fill-rule="nonzero" style="fill: rgb(209, 209, 211);"/>
  </g>
</svg>
