<?xml version="1.0" encoding="utf-8"?>
<svg viewBox="0 0 320 350" width="320px" height="350px" xmlns="http://www.w3.org/2000/svg">
  <path d="M 242.541 323.167 L 241.056 323.167 L 240.749 324.259 L 240.31 324.259 L 241.684 319.569 L 241.906 319.569 L 243.286 324.259 L 242.851 324.259 Z M 241.17 322.764 L 242.43 322.764 L 241.811 320.603 L 241.798 320.43 L 241.785 320.603 Z M 246.323 323.173 Q 246.323 323.412 246.233 323.621 Q 246.143 323.831 245.986 323.988 Q 245.829 324.145 245.62 324.234 Q 245.41 324.324 245.172 324.324 L 244.972 324.324 Q 244.733 324.324 244.522 324.234 Q 244.311 324.145 244.155 323.988 Q 243.998 323.831 243.908 323.621 Q 243.818 323.412 243.818 323.173 L 243.818 323.052 L 244.24 322.987 L 244.24 323.173 Q 244.24 323.33 244.298 323.466 Q 244.357 323.602 244.46 323.705 Q 244.563 323.808 244.699 323.867 Q 244.835 323.925 244.992 323.925 L 245.152 323.925 Q 245.309 323.925 245.445 323.867 Q 245.58 323.808 245.682 323.705 Q 245.783 323.602 245.842 323.466 Q 245.901 323.33 245.901 323.173 L 245.901 322.784 Q 245.901 322.627 245.842 322.491 Q 245.783 322.356 245.682 322.254 Q 245.58 322.153 245.445 322.094 Q 245.309 322.035 245.152 322.035 L 244.838 322.035 L 244.838 321.633 L 245.152 321.633 Q 245.309 321.633 245.445 321.574 Q 245.58 321.515 245.682 321.414 Q 245.783 321.312 245.842 321.177 Q 245.901 321.041 245.901 320.884 L 245.901 320.655 Q 245.901 320.498 245.842 320.362 Q 245.783 320.227 245.682 320.125 Q 245.58 320.024 245.445 319.965 Q 245.309 319.906 245.152 319.906 L 244.992 319.906 Q 244.835 319.906 244.699 319.965 Q 244.563 320.024 244.46 320.125 Q 244.357 320.227 244.298 320.362 Q 244.24 320.498 244.24 320.655 L 244.24 320.845 L 243.818 320.776 L 243.818 320.655 Q 243.818 320.416 243.908 320.207 Q 243.998 319.998 244.155 319.841 Q 244.311 319.684 244.522 319.594 Q 244.733 319.504 244.972 319.504 L 245.172 319.504 Q 245.41 319.504 245.62 319.594 Q 245.829 319.684 245.986 319.841 Q 246.143 319.998 246.233 320.207 Q 246.323 320.416 246.323 320.655 L 246.323 320.815 Q 246.323 320.982 246.279 321.134 Q 246.234 321.286 246.154 321.417 Q 246.074 321.548 245.963 321.654 Q 245.852 321.761 245.714 321.836 Q 245.852 321.908 245.963 322.014 Q 246.074 322.12 246.154 322.251 Q 246.234 322.382 246.279 322.534 Q 246.323 322.686 246.323 322.853 L 246.323 323.173 Z M 249.731 323.173 Q 249.731 323.412 249.641 323.621 Q 249.551 323.831 249.394 323.988 Q 249.237 324.145 249.028 324.234 Q 248.818 324.324 248.58 324.324 L 248.38 324.324 Q 248.141 324.324 247.93 324.234 Q 247.719 324.145 247.562 323.988 Q 247.406 323.831 247.316 323.621 Q 247.226 323.412 247.226 323.173 L 247.226 323.101 L 247.648 323.101 L 247.648 323.173 Q 247.648 323.33 247.706 323.466 Q 247.765 323.602 247.868 323.705 Q 247.971 323.808 248.107 323.867 Q 248.243 323.925 248.4 323.925 L 248.56 323.925 Q 248.717 323.925 248.853 323.867 Q 248.988 323.808 249.09 323.705 Q 249.191 323.602 249.25 323.466 Q 249.309 323.33 249.309 323.173 L 249.309 322.264 Q 249.309 322.107 249.25 321.971 Q 249.191 321.836 249.09 321.733 Q 248.988 321.63 248.853 321.571 Q 248.717 321.512 248.56 321.512 L 248.4 321.512 Q 248.243 321.512 248.107 321.571 Q 247.971 321.63 247.868 321.733 Q 247.765 321.836 247.706 321.971 Q 247.648 322.107 247.648 322.264 L 247.226 322.264 L 247.494 319.569 L 249.498 319.569 L 249.498 319.972 L 247.89 319.972 L 247.736 321.414 Q 247.886 321.27 248.086 321.19 Q 248.285 321.11 248.514 321.11 L 248.58 321.11 Q 248.818 321.11 249.028 321.2 Q 249.237 321.29 249.394 321.447 Q 249.551 321.604 249.641 321.814 Q 249.731 322.025 249.731 322.264 L 249.731 323.173 Z M 253.108 323.173 Q 253.108 323.412 253.018 323.621 Q 252.928 323.831 252.771 323.988 Q 252.614 324.145 252.405 324.234 Q 252.195 324.324 251.957 324.324 L 251.757 324.324 Q 251.518 324.324 251.307 324.234 Q 251.096 324.145 250.939 323.988 Q 250.782 323.831 250.693 323.621 Q 250.603 323.412 250.603 323.173 L 250.603 320.655 Q 250.603 320.416 250.693 320.207 Q 250.782 319.998 250.939 319.841 Q 251.096 319.684 251.307 319.594 Q 251.518 319.504 251.757 319.504 L 251.957 319.504 Q 252.195 319.504 252.405 319.594 Q 252.614 319.684 252.771 319.841 Q 252.928 319.998 253.018 320.207 Q 253.108 320.416 253.108 320.655 L 253.108 323.173 Z M 252.686 320.655 Q 252.686 320.498 252.627 320.362 Q 252.568 320.227 252.467 320.125 Q 252.365 320.024 252.23 319.965 Q 252.094 319.906 251.937 319.906 L 251.777 319.906 Q 251.62 319.906 251.484 319.965 Q 251.348 320.024 251.245 320.125 Q 251.142 320.227 251.083 320.362 Q 251.024 320.498 251.024 320.655 L 251.024 323.173 Q 251.024 323.33 251.083 323.466 Q 251.142 323.602 251.245 323.705 Q 251.348 323.808 251.484 323.867 Q 251.62 323.925 251.777 323.925 L 251.937 323.925 Q 252.094 323.925 252.23 323.867 Q 252.365 323.808 252.467 323.705 Q 252.568 323.602 252.627 323.466 Q 252.686 323.33 252.686 323.173 Z" transform="matrix(2.143394, 0, 0, 2.388948, -238.847977, -458.938904)" style="fill: rgb(209, 209, 211);"/>
  <path d="M 278.312 327.339 C 278.313 326.689 278.322 325.639 278.332 325.006 L 278.35 323.856 L 278.432 323.616 C 278.626 323.051 278.992 322.629 279.515 322.367 C 280.12 322.065 280.894 322.083 281.48 322.412 C 281.989 322.699 282.374 323.211 282.509 323.78 C 282.554 323.972 282.561 324.061 282.551 324.349 C 282.541 324.648 282.53 324.72 282.46 324.927 C 282.221 325.631 281.663 326.152 280.952 326.336 C 280.686 326.405 280.18 326.401 279.924 326.327 C 279.669 326.254 279.474 326.167 279.292 326.043 C 279.211 325.987 279.139 325.942 279.132 325.942 C 279.124 325.942 279.119 326.522 279.119 327.231 L 279.119 328.521 L 278.714 328.521 L 278.309 328.521 L 278.312 327.339 Z M 280.741 325.551 C 281.46 325.399 281.917 324.668 281.734 323.963 C 281.619 323.518 281.305 323.18 280.87 323.03 C 280.654 322.956 280.269 322.95 280.054 323.017 C 279.508 323.186 279.143 323.693 279.144 324.281 C 279.147 325.128 279.902 325.729 280.741 325.551 Z M 275.485 326.397 C 275.01 326.331 274.615 326.142 274.281 325.819 C 273.677 325.236 273.468 324.378 273.734 323.583 C 273.848 323.243 273.983 323.031 274.261 322.756 C 274.651 322.37 275.066 322.185 275.604 322.157 C 276.076 322.132 276.496 322.237 276.844 322.466 L 277.045 322.598 L 277.045 322.433 L 277.045 322.269 L 277.163 322.285 C 277.227 322.294 277.415 322.301 277.58 322.301 L 277.88 322.301 L 277.88 324.336 L 277.88 326.372 L 277.462 326.372 L 277.045 326.372 L 277.045 326.159 L 277.045 325.946 L 276.875 326.061 C 276.656 326.208 276.492 326.279 276.231 326.343 C 275.975 326.405 275.695 326.426 275.485 326.397 Z M 276.161 325.517 C 276.398 325.434 276.519 325.36 276.681 325.198 C 277.088 324.791 277.171 324.169 276.889 323.636 C 276.685 323.252 276.189 322.959 275.743 322.959 C 275.563 322.959 275.286 323.023 275.124 323.102 C 274.951 323.186 274.672 323.459 274.586 323.63 C 274.381 324.034 274.381 324.512 274.585 324.916 C 274.727 325.195 275.101 325.475 275.434 325.551 C 275.636 325.598 275.976 325.581 276.161 325.517 Z M 291.914 326.396 C 291.026 326.274 290.313 325.62 290.102 324.737 C 290.041 324.48 290.047 324.037 290.115 323.768 C 290.289 323.08 290.795 322.515 291.451 322.277 C 292.032 322.065 292.719 322.123 293.24 322.429 C 293.454 322.554 293.598 322.669 293.79 322.87 L 293.935 323.021 L 293.936 322.648 L 293.936 322.276 L 294.126 322.276 L 294.315 322.276 L 294.315 324.336 L 294.315 326.397 L 294.126 326.397 L 293.936 326.397 L 293.936 325.961 L 293.935 325.525 L 293.816 325.662 C 293.643 325.86 293.357 326.079 293.119 326.194 C 292.767 326.364 292.279 326.446 291.915 326.396 L 291.914 326.396 Z M 292.718 325.935 C 293.667 325.599 294.16 324.559 293.81 323.633 C 293.576 323.017 292.953 322.573 292.267 322.536 C 291.949 322.519 291.715 322.569 291.409 322.721 C 291.004 322.921 290.653 323.323 290.519 323.742 C 290.444 323.975 290.427 324.386 290.482 324.634 C 290.623 325.268 291.157 325.823 291.775 325.979 C 292.017 326.039 292.484 326.018 292.718 325.935 Z M 302.507 326.401 C 302.473 326.39 302.474 324.187 302.508 323.975 C 302.666 323.004 303.457 322.236 304.38 322.159 L 304.581 322.142 L 304.581 322.24 C 304.581 322.295 304.588 322.381 304.597 322.434 L 304.613 322.528 L 304.515 322.529 C 304.339 322.53 304.067 322.601 303.879 322.696 C 303.52 322.877 303.129 323.279 303.012 323.588 C 302.895 323.897 302.887 324.007 302.887 325.236 C 302.887 325.874 302.878 326.398 302.868 326.398 C 302.739 326.406 302.527 326.408 302.507 326.401 Z M 266.135 326.36 C 265.729 326.295 265.06 326.071 265.06 325.999 C 265.06 325.948 265.284 325.433 265.329 325.383 C 265.361 325.346 265.383 325.349 265.566 325.414 C 265.832 325.508 266.383 325.588 266.767 325.587 C 267.264 325.587 267.591 325.489 267.776 325.284 C 267.88 325.168 267.891 325.086 267.816 324.98 C 267.709 324.831 267.485 324.763 266.78 324.664 C 266.077 324.566 265.61 324.386 265.298 324.092 C 265.065 323.871 264.964 323.587 265.012 323.284 C 265.094 322.766 265.507 322.396 266.211 322.209 C 266.439 322.148 266.509 322.141 266.931 322.14 C 267.28 322.139 267.463 322.15 267.652 322.184 C 268.054 322.257 268.575 322.437 268.575 322.502 C 268.575 322.564 268.311 323.161 268.284 323.161 C 268.266 323.161 268.21 323.143 268.158 323.121 C 268.004 323.057 267.622 322.986 267.263 322.956 C 266.894 322.925 266.492 322.952 266.251 323.023 C 265.996 323.099 265.867 323.289 265.955 323.46 C 266.054 323.649 266.33 323.759 266.989 323.87 C 267.581 323.969 267.763 324.011 267.971 324.096 C 268.216 324.195 268.369 324.291 268.503 324.429 C 268.894 324.83 268.864 325.422 268.432 325.851 C 268.206 326.076 267.776 326.283 267.378 326.359 C 267.134 326.406 266.426 326.406 266.135 326.36 Z M 269.093 325.329 C 269.111 323.963 269.112 323.945 269.219 323.626 C 269.493 322.807 270.042 322.336 270.898 322.186 C 271.968 321.999 272.953 322.63 273.264 323.702 L 273.328 323.925 L 273.328 325.161 L 273.328 326.397 L 272.936 326.397 L 272.544 326.397 L 272.544 325.24 C 272.544 324.11 272.542 324.08 272.487 323.918 C 272.292 323.345 271.773 322.958 271.201 322.958 C 270.84 322.958 270.604 323.052 270.35 323.296 C 270.125 323.512 270.008 323.697 269.941 323.947 C 269.885 324.153 269.885 324.174 269.899 325.277 L 269.913 326.397 L 269.496 326.397 L 269.08 326.397 L 269.093 325.329 Z M 283.281 325 C 283.296 323.527 283.303 323.44 283.422 323.162 C 283.5 322.98 283.687 322.718 283.837 322.581 C 284.13 322.313 284.476 322.178 284.922 322.156 C 285.251 322.14 285.487 322.192 285.78 322.346 C 285.99 322.457 286.272 322.713 286.396 322.906 C 286.47 323.021 286.488 323.037 286.512 323.003 C 286.787 322.612 286.952 322.461 287.264 322.315 C 288.17 321.89 289.247 322.318 289.563 323.228 C 289.683 323.573 289.688 323.642 289.688 325.059 L 289.688 326.397 L 289.486 326.397 L 289.283 326.397 L 289.283 325.011 C 289.283 323.497 289.284 323.514 289.131 323.211 C 288.884 322.723 288.282 322.445 287.725 322.562 C 287.265 322.659 286.935 322.952 286.753 323.425 L 286.684 323.603 L 286.674 324.973 C 286.669 325.727 286.656 326.353 286.644 326.364 C 286.633 326.375 286.548 326.384 286.455 326.384 L 286.287 326.384 L 286.274 324.968 C 286.262 323.586 286.26 323.549 286.206 323.405 C 286.121 323.18 286.038 323.055 285.871 322.9 C 285.451 322.512 284.863 322.422 284.371 322.671 C 284.207 322.754 283.907 323.054 283.816 323.226 C 283.673 323.494 283.67 323.53 283.67 325.024 L 283.67 326.397 L 283.468 326.397 L 283.267 326.397 L 283.281 325 Z M 294.947 323.198 L 294.947 320 L 295.137 320 L 295.326 320 L 295.326 322.137 C 295.326 323.312 295.335 324.273 295.345 324.272 C 295.356 324.272 295.848 323.794 296.439 323.211 L 297.514 322.15 L 297.792 322.151 L 298.07 322.152 L 296.995 323.214 L 295.921 324.275 L 296.981 325.32 L 298.042 326.365 L 297.796 326.383 L 297.551 326.401 L 297.418 326.286 C 297.345 326.224 296.922 325.808 296.477 325.362 L 295.668 324.553 L 295.51 324.71 L 295.352 324.867 L 295.352 325.234 C 295.352 325.436 295.344 325.78 295.335 325.999 L 295.319 326.398 L 295.133 326.398 L 294.947 326.398 L 294.947 323.199 L 294.947 323.198 Z M 299.587 326.361 C 299.344 326.304 299.145 326.226 298.961 326.117 C 298.484 325.834 298.183 325.46 298.004 324.928 C 297.853 324.482 297.876 323.917 298.061 323.471 C 298.311 322.871 298.866 322.38 299.486 322.21 C 299.71 322.149 300.174 322.135 300.425 322.182 C 300.91 322.274 301.358 322.536 301.664 322.906 C 301.793 323.061 301.976 323.374 301.951 323.395 C 301.944 323.401 301.773 323.499 301.572 323.615 C 301.222 323.815 300.373 324.304 299.201 324.98 C 298.89 325.159 298.664 325.305 298.664 325.326 C 298.664 325.346 298.746 325.445 298.847 325.545 C 299.161 325.858 299.525 326.001 300.004 326.003 C 300.698 326.004 301.275 325.661 301.555 325.08 C 301.618 324.949 301.688 324.774 301.711 324.69 L 301.752 324.539 L 301.956 324.431 L 302.159 324.324 L 302.142 324.469 C 302.111 324.733 302.049 324.94 301.926 325.196 C 301.662 325.743 301.183 326.148 300.592 326.326 C 300.367 326.393 299.808 326.412 299.587 326.361 Z M 299.033 324.623 C 299.352 324.441 299.919 324.114 300.295 323.898 C 300.67 323.682 301.073 323.451 301.189 323.385 C 301.306 323.319 301.412 323.255 301.425 323.241 C 301.456 323.211 301.109 322.902 300.901 322.776 C 300.418 322.482 299.782 322.449 299.281 322.69 C 298.836 322.905 298.509 323.289 298.356 323.778 C 298.292 323.982 298.269 324.376 298.309 324.581 C 298.337 324.729 298.419 324.956 298.444 324.956 C 298.45 324.956 298.715 324.806 299.033 324.623 Z" id="path24" fill-rule="nonzero" style="fill: rgb(209, 209, 211);"/>
  <path d="M 279.158 21.335 Q 279.158 21.561 279.077 21.76 Q 278.997 21.96 278.855 22.112 Q 278.713 22.263 278.521 22.358 Q 278.329 22.453 278.11 22.469 L 278.533 23.42 L 278.117 23.42 L 277.695 22.469 Q 277.459 22.469 277.252 22.381 Q 277.044 22.292 276.889 22.138 Q 276.734 21.983 276.646 21.777 Q 276.557 21.57 276.557 21.335 L 276.557 18.854 Q 276.557 18.618 276.646 18.412 Q 276.734 18.206 276.889 18.051 Q 277.044 17.897 277.252 17.808 Q 277.459 17.719 277.695 17.719 L 278.023 17.719 Q 278.259 17.719 278.465 17.808 Q 278.671 17.897 278.826 18.051 Q 278.98 18.206 279.069 18.412 Q 279.158 18.618 279.158 18.854 L 279.158 21.335 Z M 278.742 18.854 Q 278.742 18.699 278.684 18.565 Q 278.626 18.431 278.526 18.332 Q 278.426 18.232 278.292 18.174 Q 278.159 18.116 278.004 18.116 L 277.714 18.116 Q 277.559 18.116 277.426 18.174 Q 277.292 18.232 277.19 18.332 Q 277.089 18.431 277.031 18.565 Q 276.973 18.699 276.973 18.854 L 276.973 21.335 Q 276.973 21.49 277.031 21.624 Q 277.089 21.757 277.19 21.859 Q 277.292 21.96 277.426 22.018 Q 277.559 22.076 277.714 22.076 L 278.004 22.076 Q 278.159 22.076 278.292 22.018 Q 278.426 21.96 278.526 21.859 Q 278.626 21.757 278.684 21.624 Q 278.742 21.49 278.742 21.335 Z M 282.088 22.405 L 281.869 22.07 Q 281.734 22.254 281.531 22.361 Q 281.328 22.469 281.086 22.469 L 280.986 22.469 Q 280.786 22.469 280.609 22.394 Q 280.432 22.318 280.3 22.186 Q 280.167 22.054 280.092 21.876 Q 280.016 21.699 280.016 21.499 L 280.016 19.105 L 280.412 19.105 L 280.412 21.522 Q 280.412 21.641 280.458 21.746 Q 280.503 21.851 280.58 21.928 Q 280.657 22.005 280.762 22.051 Q 280.867 22.096 280.986 22.096 L 281.25 22.096 Q 281.37 22.096 281.474 22.051 Q 281.579 22.005 281.656 21.928 Q 281.734 21.851 281.779 21.746 Q 281.824 21.641 281.824 21.522 L 281.824 19.105 L 282.22 19.105 L 282.22 22.405 Z M 283.108 18.312 L 283.108 17.784 L 283.569 17.784 L 283.569 18.312 Z M 283.14 22.405 L 283.14 19.105 L 283.537 19.105 L 283.537 22.405 Z M 286.666 21.499 Q 286.666 21.699 286.59 21.876 Q 286.514 22.054 286.382 22.186 Q 286.25 22.318 286.073 22.394 Q 285.895 22.469 285.696 22.469 L 285.431 22.469 Q 285.232 22.469 285.054 22.394 Q 284.877 22.318 284.745 22.186 Q 284.613 22.054 284.537 21.876 Q 284.461 21.699 284.461 21.499 L 284.461 20.011 Q 284.461 19.811 284.537 19.634 Q 284.613 19.456 284.745 19.324 Q 284.877 19.192 285.054 19.116 Q 285.232 19.041 285.431 19.041 L 285.696 19.041 Q 285.895 19.041 286.073 19.116 Q 286.25 19.192 286.382 19.324 Q 286.514 19.456 286.59 19.634 Q 286.666 19.811 286.666 20.011 L 286.666 20.143 L 286.269 20.207 L 286.269 19.988 Q 286.269 19.869 286.224 19.764 Q 286.179 19.659 286.102 19.582 Q 286.024 19.505 285.92 19.459 Q 285.815 19.414 285.696 19.414 L 285.431 19.414 Q 285.312 19.414 285.207 19.459 Q 285.103 19.505 285.025 19.582 Q 284.948 19.659 284.903 19.764 Q 284.858 19.869 284.858 19.988 L 284.858 21.522 Q 284.858 21.641 284.903 21.746 Q 284.948 21.851 285.025 21.928 Q 285.103 22.005 285.207 22.051 Q 285.312 22.096 285.431 22.096 L 285.696 22.096 Q 285.815 22.096 285.92 22.051 Q 286.024 22.005 286.102 21.928 Q 286.179 21.851 286.224 21.746 Q 286.269 21.641 286.269 21.522 L 286.269 21.303 L 286.666 21.367 L 286.666 21.499 Z M 289.383 22.405 L 288.036 20.755 L 289.383 19.105 L 289.899 19.105 L 288.519 20.755 L 289.899 22.405 Z M 287.562 22.405 L 287.562 17.784 L 287.959 17.784 L 287.959 22.405 Z M 294.58 21.335 Q 294.58 21.57 294.485 21.777 Q 294.389 21.983 294.23 22.138 Q 294.07 22.292 293.859 22.381 Q 293.648 22.469 293.413 22.469 L 293.081 22.469 Q 292.846 22.469 292.635 22.381 Q 292.424 22.292 292.264 22.138 Q 292.105 21.983 292.01 21.777 Q 291.914 21.57 291.914 21.335 L 291.914 21.151 L 292.33 21.084 L 292.33 21.335 Q 292.33 21.49 292.393 21.624 Q 292.456 21.757 292.562 21.859 Q 292.669 21.96 292.809 22.018 Q 292.949 22.076 293.104 22.076 L 293.394 22.076 Q 293.548 22.076 293.687 22.018 Q 293.825 21.96 293.932 21.859 Q 294.038 21.757 294.101 21.624 Q 294.164 21.49 294.164 21.335 L 294.164 21.197 Q 294.164 20.958 294.07 20.8 Q 293.977 20.642 293.822 20.531 Q 293.668 20.42 293.473 20.343 Q 293.278 20.265 293.071 20.188 Q 292.865 20.11 292.67 20.017 Q 292.475 19.924 292.321 19.783 Q 292.166 19.643 292.072 19.44 Q 291.979 19.237 291.979 18.941 L 291.979 18.854 Q 291.979 18.618 292.068 18.412 Q 292.156 18.206 292.311 18.051 Q 292.466 17.897 292.673 17.808 Q 292.881 17.719 293.117 17.719 L 293.413 17.719 Q 293.648 17.719 293.854 17.808 Q 294.061 17.897 294.215 18.051 Q 294.37 18.206 294.459 18.412 Q 294.547 18.618 294.547 18.854 L 294.547 18.973 L 294.132 19.041 L 294.132 18.854 Q 294.132 18.699 294.074 18.565 Q 294.016 18.431 293.916 18.332 Q 293.816 18.232 293.682 18.174 Q 293.548 18.116 293.394 18.116 L 293.136 18.116 Q 292.981 18.116 292.847 18.174 Q 292.714 18.232 292.612 18.332 Q 292.511 18.431 292.453 18.565 Q 292.395 18.699 292.395 18.854 L 292.395 18.941 Q 292.395 19.163 292.488 19.314 Q 292.582 19.466 292.736 19.574 Q 292.891 19.682 293.086 19.761 Q 293.281 19.84 293.487 19.922 Q 293.693 20.004 293.888 20.102 Q 294.083 20.201 294.238 20.344 Q 294.393 20.488 294.486 20.694 Q 294.58 20.9 294.58 21.197 Z M 298.114 22.405 L 297.898 22.405 L 297.125 19.917 L 297.112 19.746 L 297.099 19.917 L 296.326 22.405 L 296.107 22.405 L 295.004 19.105 L 295.407 19.105 L 296.194 21.599 L 296.206 21.77 L 296.219 21.599 L 296.993 19.105 L 297.231 19.105 L 298.001 21.599 L 298.014 21.77 L 298.027 21.599 L 298.814 19.105 L 299.216 19.105 Z M 301.752 22.405 L 301.533 22.076 Q 301.398 22.254 301.195 22.361 Q 300.992 22.469 300.75 22.469 L 300.65 22.469 Q 300.45 22.469 300.273 22.394 Q 300.096 22.318 299.964 22.186 Q 299.832 22.054 299.756 21.876 Q 299.68 21.699 299.68 21.499 L 299.68 21.467 Q 299.68 21.267 299.756 21.09 Q 299.832 20.913 299.964 20.781 Q 300.096 20.649 300.273 20.573 Q 300.45 20.497 300.65 20.497 L 301.488 20.497 L 301.488 19.988 Q 301.488 19.869 301.443 19.764 Q 301.398 19.659 301.32 19.582 Q 301.243 19.505 301.138 19.459 Q 301.034 19.414 300.914 19.414 L 300.682 19.414 Q 300.563 19.414 300.458 19.459 Q 300.354 19.505 300.276 19.582 Q 300.199 19.659 300.154 19.764 Q 300.109 19.869 300.109 19.988 L 300.109 20.107 L 299.712 20.043 L 299.712 20.011 Q 299.712 19.811 299.788 19.634 Q 299.864 19.456 299.996 19.324 Q 300.128 19.192 300.305 19.116 Q 300.483 19.041 300.682 19.041 L 300.914 19.041 Q 301.114 19.041 301.291 19.116 Q 301.469 19.192 301.601 19.324 Q 301.733 19.456 301.809 19.634 Q 301.884 19.811 301.884 20.011 L 301.884 22.405 Z M 301.488 20.807 L 300.65 20.807 Q 300.531 20.807 300.426 20.852 Q 300.321 20.897 300.244 20.976 Q 300.167 21.055 300.122 21.159 Q 300.076 21.264 300.076 21.383 L 300.076 21.522 Q 300.076 21.641 300.122 21.746 Q 300.167 21.851 300.244 21.928 Q 300.321 22.005 300.426 22.051 Q 300.531 22.096 300.65 22.096 L 300.914 22.096 Q 301.034 22.096 301.138 22.051 Q 301.243 22.005 301.32 21.928 Q 301.398 21.851 301.443 21.746 Q 301.488 21.641 301.488 21.522 Z M 304.884 21.499 Q 304.884 21.699 304.809 21.876 Q 304.733 22.054 304.601 22.186 Q 304.469 22.318 304.291 22.394 Q 304.114 22.469 303.914 22.469 L 303.814 22.469 Q 303.592 22.469 303.402 22.379 Q 303.212 22.289 303.076 22.128 L 303.076 23.726 L 302.68 23.726 L 302.68 19.105 L 302.812 19.105 L 303.028 19.44 Q 303.163 19.256 303.368 19.149 Q 303.573 19.041 303.814 19.041 L 303.914 19.041 Q 304.114 19.041 304.291 19.116 Q 304.469 19.192 304.601 19.324 Q 304.733 19.456 304.809 19.634 Q 304.884 19.811 304.884 20.011 L 304.884 21.499 Z M 304.488 19.988 Q 304.488 19.869 304.443 19.764 Q 304.398 19.659 304.32 19.582 Q 304.243 19.505 304.138 19.459 Q 304.034 19.414 303.914 19.414 L 303.65 19.414 Q 303.531 19.414 303.426 19.459 Q 303.321 19.505 303.244 19.582 Q 303.167 19.659 303.122 19.764 Q 303.076 19.869 303.076 19.988 L 303.076 21.522 Q 303.076 21.641 303.122 21.746 Q 303.167 21.851 303.244 21.928 Q 303.321 22.005 303.426 22.051 Q 303.531 22.096 303.65 22.096 L 303.914 22.096 Q 304.034 22.096 304.138 22.051 Q 304.243 22.005 304.32 21.928 Q 304.398 21.851 304.443 21.746 Q 304.488 21.641 304.488 21.522 Z M 309.584 22.405 L 307.843 20.094 L 309.584 17.784 L 310.099 17.784 L 308.324 20.094 L 310.099 22.405 Z M 307.328 22.405 L 307.328 17.784 L 307.744 17.784 L 307.744 22.405 Z M 310.725 18.312 L 310.725 17.784 L 311.186 17.784 L 311.186 18.312 Z M 310.758 22.405 L 310.758 19.105 L 311.154 19.105 L 311.154 22.405 Z M 313.281 22.405 Q 313.1 22.405 312.941 22.337 Q 312.781 22.27 312.663 22.15 Q 312.546 22.031 312.477 21.873 Q 312.407 21.715 312.407 21.535 L 312.407 19.482 L 311.814 19.482 L 311.814 19.105 L 312.407 19.105 L 312.407 18.312 L 312.804 18.248 L 312.804 19.105 L 313.642 19.105 L 313.642 19.482 L 312.804 19.482 L 312.804 21.554 Q 312.804 21.654 312.841 21.74 Q 312.878 21.825 312.942 21.889 Q 313.007 21.954 313.094 21.991 Q 313.181 22.028 313.281 22.028 L 313.642 22.028 L 313.642 22.405 Z" style="fill: rgb(255, 0, 0);"/>
  <line x1="0" y1="15" x2="320" y2="15" id="line-2" stroke-width="0.1px" style="paint-order: fill; stroke-dasharray: 2px; stroke: rgb(255, 0, 0);" transform="matrix(1, 0, 0, 1, -3.552713678800501e-15, 0)"/>
  <path d="M 289.679 7.271 Q 289.679 7.506 289.59 7.712 Q 289.501 7.918 289.347 8.073 Q 289.192 8.228 288.984 8.316 Q 288.776 8.405 288.541 8.405 L 287.078 8.405 L 287.078 3.784 L 288.541 3.784 Q 288.776 3.784 288.984 3.872 Q 289.192 3.961 289.347 4.116 Q 289.501 4.27 289.59 4.478 Q 289.679 4.686 289.679 4.921 L 289.679 4.966 Q 289.679 5.131 289.635 5.281 Q 289.592 5.43 289.511 5.559 Q 289.43 5.688 289.321 5.793 Q 289.211 5.898 289.076 5.969 Q 289.211 6.04 289.321 6.144 Q 289.43 6.249 289.511 6.38 Q 289.592 6.51 289.635 6.66 Q 289.679 6.81 289.679 6.974 L 289.679 7.271 Z M 289.263 6.906 Q 289.263 6.752 289.205 6.618 Q 289.147 6.484 289.045 6.384 Q 288.944 6.284 288.81 6.226 Q 288.676 6.168 288.522 6.168 L 287.494 6.168 L 287.494 8.009 L 288.522 8.009 Q 288.676 8.009 288.81 7.951 Q 288.944 7.893 289.045 7.793 Q 289.147 7.693 289.205 7.559 Q 289.263 7.425 289.263 7.271 Z M 289.263 4.921 Q 289.263 4.767 289.205 4.633 Q 289.147 4.499 289.045 4.398 Q 288.944 4.296 288.81 4.238 Q 288.676 4.18 288.522 4.18 L 287.494 4.18 L 287.494 5.772 L 288.522 5.772 Q 288.676 5.772 288.81 5.714 Q 288.944 5.656 289.045 5.555 Q 289.147 5.453 289.205 5.319 Q 289.263 5.186 289.263 5.031 Z M 291.306 5.482 Q 291.187 5.482 291.082 5.527 Q 290.978 5.572 290.9 5.65 Q 290.823 5.727 290.778 5.832 Q 290.733 5.936 290.733 6.056 L 290.733 8.405 L 290.336 8.405 L 290.336 5.105 L 290.468 5.105 L 290.684 5.44 Q 290.82 5.256 291.024 5.149 Q 291.229 5.041 291.471 5.041 L 291.703 5.041 L 291.703 5.482 Z M 294.299 8.405 L 294.08 8.076 Q 293.945 8.254 293.742 8.361 Q 293.539 8.469 293.297 8.469 L 293.197 8.469 Q 292.997 8.469 292.82 8.394 Q 292.643 8.318 292.511 8.186 Q 292.378 8.054 292.303 7.876 Q 292.227 7.699 292.227 7.499 L 292.227 7.467 Q 292.227 7.267 292.303 7.09 Q 292.378 6.913 292.511 6.781 Q 292.643 6.649 292.82 6.573 Q 292.997 6.497 293.197 6.497 L 294.035 6.497 L 294.035 5.988 Q 294.035 5.869 293.99 5.764 Q 293.945 5.659 293.867 5.582 Q 293.79 5.505 293.685 5.459 Q 293.58 5.414 293.461 5.414 L 293.229 5.414 Q 293.11 5.414 293.005 5.459 Q 292.9 5.505 292.823 5.582 Q 292.746 5.659 292.701 5.764 Q 292.656 5.869 292.656 5.988 L 292.656 6.107 L 292.259 6.043 L 292.259 6.011 Q 292.259 5.811 292.335 5.634 Q 292.411 5.456 292.543 5.324 Q 292.675 5.192 292.852 5.116 Q 293.029 5.041 293.229 5.041 L 293.461 5.041 Q 293.661 5.041 293.838 5.116 Q 294.016 5.192 294.148 5.324 Q 294.28 5.456 294.356 5.634 Q 294.431 5.811 294.431 6.011 L 294.431 8.405 Z M 294.035 6.807 L 293.197 6.807 Q 293.078 6.807 292.973 6.852 Q 292.868 6.897 292.791 6.976 Q 292.714 7.055 292.668 7.159 Q 292.623 7.264 292.623 7.383 L 292.623 7.522 Q 292.623 7.641 292.668 7.746 Q 292.714 7.851 292.791 7.928 Q 292.868 8.005 292.973 8.051 Q 293.078 8.096 293.197 8.096 L 293.461 8.096 Q 293.58 8.096 293.685 8.051 Q 293.79 8.005 293.867 7.928 Q 293.945 7.851 293.99 7.746 Q 294.035 7.641 294.035 7.522 Z M 297.431 7.499 Q 297.431 7.699 297.356 7.876 Q 297.28 8.054 297.148 8.186 Q 297.016 8.318 296.838 8.394 Q 296.661 8.469 296.461 8.469 L 296.197 8.469 Q 295.997 8.469 295.82 8.394 Q 295.643 8.318 295.511 8.186 Q 295.378 8.054 295.303 7.876 Q 295.227 7.699 295.227 7.499 L 295.227 6.011 Q 295.227 5.811 295.303 5.634 Q 295.378 5.456 295.511 5.324 Q 295.643 5.192 295.82 5.116 Q 295.997 5.041 296.197 5.041 L 296.461 5.041 Q 296.661 5.041 296.838 5.116 Q 297.016 5.192 297.148 5.324 Q 297.28 5.456 297.356 5.634 Q 297.431 5.811 297.431 6.011 L 297.431 6.143 L 297.035 6.207 L 297.035 5.988 Q 297.035 5.869 296.99 5.764 Q 296.945 5.659 296.867 5.582 Q 296.79 5.505 296.685 5.459 Q 296.58 5.414 296.461 5.414 L 296.197 5.414 Q 296.078 5.414 295.973 5.459 Q 295.868 5.505 295.791 5.582 Q 295.714 5.659 295.668 5.764 Q 295.623 5.869 295.623 5.988 L 295.623 7.522 Q 295.623 7.641 295.668 7.746 Q 295.714 7.851 295.791 7.928 Q 295.868 8.005 295.973 8.051 Q 296.078 8.096 296.197 8.096 L 296.461 8.096 Q 296.58 8.096 296.685 8.051 Q 296.79 8.005 296.867 7.928 Q 296.945 7.851 296.99 7.746 Q 297.035 7.641 297.035 7.522 L 297.035 7.303 L 297.431 7.367 L 297.431 7.499 Z M 298.327 4.312 L 298.327 3.784 L 298.788 3.784 L 298.788 4.312 Z M 298.359 8.405 L 298.359 5.105 L 298.755 5.105 L 298.755 8.405 Z M 301.488 8.405 L 301.488 5.988 Q 301.488 5.869 301.443 5.764 Q 301.398 5.659 301.32 5.582 Q 301.243 5.505 301.138 5.459 Q 301.034 5.414 300.914 5.414 L 300.65 5.414 Q 300.531 5.414 300.426 5.459 Q 300.321 5.505 300.244 5.582 Q 300.167 5.659 300.122 5.764 Q 300.076 5.869 300.076 5.988 L 300.076 8.405 L 299.68 8.405 L 299.68 5.105 L 299.812 5.105 L 300.028 5.44 Q 300.163 5.256 300.368 5.149 Q 300.573 5.041 300.814 5.041 L 300.914 5.041 Q 301.114 5.041 301.291 5.116 Q 301.469 5.192 301.601 5.324 Q 301.733 5.456 301.809 5.634 Q 301.884 5.811 301.884 6.011 L 301.884 8.405 Z M 304.909 8.821 Q 304.909 9.021 304.833 9.188 Q 304.757 9.356 304.625 9.475 Q 304.493 9.594 304.316 9.66 Q 304.139 9.726 303.939 9.726 L 303.774 9.726 Q 303.575 9.726 303.397 9.66 Q 303.22 9.594 303.088 9.475 Q 302.956 9.356 302.88 9.188 Q 302.804 9.021 302.804 8.821 L 302.804 8.808 Q 302.804 8.614 302.875 8.453 Q 302.946 8.292 303.069 8.173 Q 302.914 8.08 302.822 7.92 Q 302.73 7.76 302.73 7.567 Q 302.73 7.393 302.804 7.243 Q 302.879 7.093 303.007 7 Q 302.853 6.865 302.762 6.674 Q 302.672 6.484 302.672 6.259 L 302.672 6.011 Q 302.672 5.811 302.748 5.634 Q 302.824 5.456 302.956 5.324 Q 303.088 5.192 303.265 5.116 Q 303.442 5.041 303.642 5.041 L 303.807 5.041 Q 304.048 5.041 304.253 5.149 Q 304.458 5.256 304.593 5.44 L 304.809 5.105 L 304.941 5.105 L 304.941 6.259 Q 304.941 6.459 304.865 6.636 Q 304.79 6.813 304.657 6.945 Q 304.525 7.077 304.348 7.153 Q 304.171 7.229 303.971 7.229 L 303.397 7.229 Q 303.33 7.229 303.268 7.256 Q 303.207 7.284 303.16 7.329 Q 303.114 7.374 303.088 7.437 Q 303.062 7.499 303.062 7.567 Q 303.062 7.635 303.088 7.696 Q 303.114 7.757 303.16 7.804 Q 303.207 7.851 303.268 7.876 Q 303.33 7.902 303.397 7.902 L 303.939 7.902 Q 304.139 7.902 304.316 7.968 Q 304.493 8.034 304.625 8.154 Q 304.757 8.273 304.833 8.44 Q 304.909 8.608 304.909 8.808 L 304.909 8.821 Z M 304.548 5.988 Q 304.548 5.869 304.503 5.764 Q 304.458 5.659 304.379 5.582 Q 304.3 5.505 304.195 5.459 Q 304.09 5.414 303.971 5.414 L 303.642 5.414 Q 303.523 5.414 303.418 5.459 Q 303.314 5.505 303.236 5.582 Q 303.159 5.659 303.114 5.764 Q 303.069 5.869 303.069 5.988 L 303.069 6.281 Q 303.069 6.401 303.114 6.505 Q 303.159 6.61 303.236 6.687 Q 303.314 6.765 303.418 6.81 Q 303.523 6.855 303.642 6.855 L 303.971 6.855 Q 304.09 6.855 304.195 6.81 Q 304.3 6.765 304.379 6.687 Q 304.458 6.61 304.503 6.505 Q 304.548 6.401 304.548 6.281 Z M 304.532 8.788 Q 304.532 8.669 304.487 8.574 Q 304.442 8.479 304.364 8.415 Q 304.287 8.35 304.182 8.315 Q 304.077 8.279 303.958 8.279 L 303.755 8.279 Q 303.636 8.279 303.531 8.315 Q 303.426 8.35 303.349 8.415 Q 303.272 8.479 303.227 8.574 Q 303.181 8.669 303.181 8.788 L 303.181 8.84 Q 303.181 8.959 303.227 9.053 Q 303.272 9.146 303.349 9.212 Q 303.426 9.278 303.531 9.314 Q 303.636 9.349 303.755 9.349 L 303.958 9.349 Q 304.077 9.349 304.182 9.314 Q 304.287 9.278 304.364 9.212 Q 304.442 9.146 304.487 9.053 Q 304.532 8.959 304.532 8.84 Z M 309.576 8.405 L 307.836 6.094 L 309.576 3.784 L 310.092 3.784 L 308.316 6.094 L 310.092 8.405 Z M 307.32 8.405 L 307.32 3.784 L 307.736 3.784 L 307.736 8.405 Z M 310.725 4.312 L 310.725 3.784 L 311.186 3.784 L 311.186 4.312 Z M 310.758 8.405 L 310.758 5.105 L 311.154 5.105 L 311.154 8.405 Z M 313.281 8.405 Q 313.1 8.405 312.941 8.337 Q 312.781 8.27 312.663 8.15 Q 312.546 8.031 312.477 7.873 Q 312.407 7.715 312.407 7.535 L 312.407 5.482 L 311.814 5.482 L 311.814 5.105 L 312.407 5.105 L 312.407 4.312 L 312.804 4.248 L 312.804 5.105 L 313.642 5.105 L 313.642 5.482 L 312.804 5.482 L 312.804 7.554 Q 312.804 7.654 312.841 7.74 Q 312.878 7.825 312.942 7.889 Q 313.007 7.954 313.094 7.991 Q 313.181 8.028 313.281 8.028 L 313.642 8.028 L 313.642 8.405 Z" style="fill: rgb(62, 0, 255);"/>
  <line x1="0" y1="12" x2="320" y2="12" id="line-1" stroke-width="0.1px" style="paint-order: fill; stroke-dasharray: 2px; stroke: rgb(62, 0, 255);" transform="matrix(1, 0, 0, 1, -3.552713678800501e-15, 0)"/>
  <line x1="0" y1="27" x2="320" y2="27" id="line-3" stroke-width="0.1px" style="paint-order: fill; stroke-dasharray: 2px; stroke: rgb(255, 255, 255);" transform="matrix(1, 0, 0, 1, -3.552713678800501e-15, 0)"/>
</svg>