<?xml version="1.0" encoding="utf-8"?>
<svg viewBox="0 0 230 250" width="230px" height="250px"
  xmlns="http://www.w3.org/2000/svg" author="https://github.com/macdylan/3dp-configs">
  <path d="M 242.541 323.167 L 241.056 323.167 L 240.749 324.259 L 240.31 324.259 L 241.684 319.569 L 241.906 319.569 L 243.286 324.259 L 242.851 324.259 Z M 241.17 322.764 L 242.43 322.764 L 241.811 320.603 L 241.798 320.43 L 241.785 320.603 Z M 244.89 319.906 Q 244.733 319.906 244.598 319.965 Q 244.462 320.024 244.361 320.125 Q 244.259 320.227 244.2 320.362 Q 244.141 320.498 244.141 320.655 L 244.141 320.845 L 243.72 320.776 L 243.72 320.655 Q 243.72 320.416 243.809 320.207 Q 243.899 319.998 244.056 319.841 Q 244.213 319.684 244.423 319.594 Q 244.632 319.504 244.871 319.504 L 245.07 319.504 Q 245.309 319.504 245.52 319.589 Q 245.731 319.674 245.888 319.834 Q 246.045 319.995 246.135 320.219 Q 246.225 320.443 246.225 320.724 Q 246.225 321.002 246.141 321.283 Q 246.058 321.564 245.922 321.836 Q 245.786 322.107 245.611 322.362 Q 245.436 322.617 245.253 322.843 Q 244.825 323.369 244.282 323.857 L 246.257 323.857 L 246.257 324.259 L 243.618 324.259 L 243.618 323.925 Q 244.23 323.422 244.71 322.882 Q 244.916 322.65 245.113 322.388 Q 245.309 322.127 245.463 321.85 Q 245.616 321.574 245.71 321.288 Q 245.803 321.002 245.803 320.724 Q 245.803 320.518 245.741 320.364 Q 245.678 320.21 245.574 320.109 Q 245.469 320.008 245.333 319.957 Q 245.198 319.906 245.051 319.906 Z M 249.569 323.173 Q 249.569 323.412 249.479 323.621 Q 249.389 323.831 249.232 323.988 Q 249.075 324.145 248.866 324.234 Q 248.656 324.324 248.418 324.324 L 248.218 324.324 Q 247.98 324.324 247.769 324.234 Q 247.558 324.145 247.401 323.988 Q 247.244 323.831 247.154 323.621 Q 247.064 323.412 247.064 323.173 L 247.064 323.101 L 247.486 323.101 L 247.486 323.173 Q 247.486 323.33 247.545 323.466 Q 247.603 323.602 247.706 323.705 Q 247.809 323.808 247.945 323.867 Q 248.081 323.925 248.238 323.925 L 248.398 323.925 Q 248.555 323.925 248.691 323.867 Q 248.827 323.808 248.928 323.705 Q 249.029 323.602 249.088 323.466 Q 249.147 323.33 249.147 323.173 L 249.147 322.264 Q 249.147 322.107 249.088 321.971 Q 249.029 321.836 248.928 321.733 Q 248.827 321.63 248.691 321.571 Q 248.555 321.512 248.398 321.512 L 248.238 321.512 Q 248.081 321.512 247.945 321.571 Q 247.809 321.63 247.706 321.733 Q 247.603 321.836 247.545 321.971 Q 247.486 322.107 247.486 322.264 L 247.064 322.264 L 247.332 319.569 L 249.337 319.569 L 249.337 319.972 L 247.728 319.972 L 247.574 321.414 Q 247.724 321.27 247.924 321.19 Q 248.123 321.11 248.352 321.11 L 248.418 321.11 Q 248.656 321.11 248.866 321.2 Q 249.075 321.29 249.232 321.447 Q 249.389 321.604 249.479 321.814 Q 249.569 322.025 249.569 322.264 L 249.569 323.173 Z M 252.918 323.173 Q 252.918 323.412 252.828 323.621 Q 252.738 323.831 252.581 323.988 Q 252.425 324.145 252.215 324.234 Q 252.006 324.324 251.767 324.324 L 251.568 324.324 Q 251.329 324.324 251.118 324.234 Q 250.907 324.145 250.75 323.988 Q 250.593 323.831 250.503 323.621 Q 250.413 323.412 250.413 323.173 L 250.413 320.655 Q 250.413 320.416 250.503 320.207 Q 250.593 319.998 250.75 319.841 Q 250.907 319.684 251.118 319.594 Q 251.329 319.504 251.568 319.504 L 251.767 319.504 Q 252.006 319.504 252.215 319.594 Q 252.425 319.684 252.581 319.841 Q 252.738 319.998 252.828 320.207 Q 252.918 320.416 252.918 320.655 L 252.918 323.173 Z M 252.496 320.655 Q 252.496 320.498 252.438 320.362 Q 252.379 320.227 252.277 320.125 Q 252.176 320.024 252.04 319.965 Q 251.905 319.906 251.748 319.906 L 251.587 319.906 Q 251.43 319.906 251.295 319.965 Q 251.159 320.024 251.056 320.125 Q 250.953 320.227 250.894 320.362 Q 250.835 320.498 250.835 320.655 L 250.835 323.173 Q 250.835 323.33 250.894 323.466 Q 250.953 323.602 251.056 323.705 Q 251.159 323.808 251.295 323.867 Q 251.43 323.925 251.587 323.925 L 251.748 323.925 Q 251.905 323.925 252.04 323.867 Q 252.176 323.808 252.277 323.705 Q 252.379 323.602 252.438 323.466 Q 252.496 323.33 252.496 323.173 Z" transform="matrix(2.143394, 0, 0, 2.388948, -328.280762, -558.932434)" style="fill: rgb(209, 209, 211);" />
  <path d="M 188.471 227.345 C 188.472 226.695 188.481 225.645 188.491 225.012 L 188.509 223.862 L 188.591 223.622 C 188.785 223.057 189.151 222.635 189.674 222.373 C 190.279 222.071 191.053 222.089 191.639 222.418 C 192.148 222.705 192.533 223.217 192.668 223.786 C 192.713 223.978 192.72 224.067 192.71 224.355 C 192.7 224.654 192.689 224.726 192.619 224.933 C 192.38 225.637 191.822 226.158 191.111 226.342 C 190.845 226.411 190.339 226.407 190.083 226.333 C 189.828 226.26 189.633 226.173 189.451 226.049 C 189.37 225.993 189.298 225.948 189.291 225.948 C 189.283 225.948 189.278 226.528 189.278 227.237 L 189.278 228.527 L 188.873 228.527 L 188.468 228.527 L 188.471 227.345 Z M 190.9 225.557 C 191.619 225.405 192.076 224.674 191.893 223.969 C 191.778 223.524 191.464 223.186 191.029 223.036 C 190.813 222.962 190.428 222.956 190.213 223.023 C 189.667 223.192 189.302 223.699 189.303 224.287 C 189.306 225.134 190.061 225.735 190.9 225.557 Z M 185.644 226.403 C 185.169 226.337 184.774 226.148 184.44 225.825 C 183.836 225.242 183.627 224.384 183.893 223.589 C 184.007 223.249 184.142 223.037 184.42 222.762 C 184.81 222.376 185.225 222.191 185.763 222.163 C 186.235 222.138 186.655 222.243 187.003 222.472 L 187.204 222.604 L 187.204 222.439 L 187.204 222.275 L 187.322 222.291 C 187.386 222.3 187.574 222.307 187.739 222.307 L 188.039 222.307 L 188.039 224.342 L 188.039 226.378 L 187.621 226.378 L 187.204 226.378 L 187.204 226.165 L 187.204 225.952 L 187.034 226.067 C 186.815 226.214 186.651 226.285 186.39 226.349 C 186.134 226.411 185.854 226.432 185.644 226.403 Z M 186.32 225.523 C 186.557 225.44 186.678 225.366 186.84 225.204 C 187.247 224.797 187.33 224.175 187.048 223.642 C 186.844 223.258 186.348 222.965 185.902 222.965 C 185.722 222.965 185.445 223.029 185.283 223.108 C 185.11 223.192 184.831 223.465 184.745 223.636 C 184.54 224.04 184.54 224.518 184.744 224.922 C 184.886 225.201 185.26 225.481 185.593 225.557 C 185.795 225.604 186.135 225.587 186.32 225.523 Z M 202.073 226.402 C 201.185 226.28 200.472 225.626 200.261 224.743 C 200.2 224.486 200.206 224.043 200.274 223.774 C 200.448 223.086 200.954 222.521 201.61 222.283 C 202.191 222.071 202.878 222.129 203.399 222.435 C 203.613 222.56 203.757 222.675 203.949 222.876 L 204.094 223.027 L 204.095 222.654 L 204.095 222.282 L 204.285 222.282 L 204.474 222.282 L 204.474 224.342 L 204.474 226.403 L 204.285 226.403 L 204.095 226.403 L 204.095 225.967 L 204.094 225.531 L 203.975 225.668 C 203.802 225.866 203.516 226.085 203.278 226.2 C 202.926 226.37 202.438 226.452 202.074 226.402 L 202.073 226.402 Z M 202.877 225.941 C 203.826 225.605 204.319 224.565 203.969 223.639 C 203.735 223.023 203.112 222.579 202.426 222.542 C 202.108 222.525 201.874 222.575 201.568 222.727 C 201.163 222.927 200.812 223.329 200.678 223.748 C 200.603 223.981 200.586 224.392 200.641 224.64 C 200.782 225.274 201.316 225.829 201.934 225.985 C 202.176 226.045 202.643 226.024 202.877 225.941 Z M 212.666 226.407 C 212.632 226.396 212.633 224.193 212.667 223.981 C 212.825 223.01 213.616 222.242 214.539 222.165 L 214.74 222.148 L 214.74 222.246 C 214.74 222.301 214.747 222.387 214.756 222.44 L 214.772 222.534 L 214.674 222.535 C 214.498 222.536 214.226 222.607 214.038 222.702 C 213.679 222.883 213.288 223.285 213.171 223.594 C 213.054 223.903 213.046 224.013 213.046 225.242 C 213.046 225.88 213.037 226.404 213.027 226.404 C 212.898 226.412 212.686 226.414 212.666 226.407 Z M 176.294 226.366 C 175.888 226.301 175.219 226.077 175.219 226.005 C 175.219 225.954 175.443 225.439 175.488 225.389 C 175.52 225.352 175.542 225.355 175.725 225.42 C 175.991 225.514 176.542 225.594 176.926 225.593 C 177.423 225.593 177.75 225.495 177.935 225.29 C 178.039 225.174 178.05 225.092 177.975 224.986 C 177.868 224.837 177.644 224.769 176.939 224.67 C 176.236 224.572 175.769 224.392 175.457 224.098 C 175.224 223.877 175.123 223.593 175.171 223.29 C 175.253 222.772 175.666 222.402 176.37 222.215 C 176.598 222.154 176.668 222.147 177.09 222.146 C 177.439 222.145 177.622 222.156 177.811 222.19 C 178.213 222.263 178.734 222.443 178.734 222.508 C 178.734 222.57 178.47 223.167 178.443 223.167 C 178.425 223.167 178.369 223.149 178.317 223.127 C 178.163 223.063 177.781 222.992 177.422 222.962 C 177.053 222.931 176.651 222.958 176.41 223.029 C 176.155 223.105 176.026 223.295 176.114 223.466 C 176.213 223.655 176.489 223.765 177.148 223.876 C 177.74 223.975 177.922 224.017 178.13 224.102 C 178.375 224.201 178.528 224.297 178.662 224.435 C 179.053 224.836 179.023 225.428 178.591 225.857 C 178.365 226.082 177.935 226.289 177.537 226.365 C 177.293 226.412 176.585 226.412 176.294 226.366 Z M 179.252 225.335 C 179.27 223.969 179.271 223.951 179.378 223.632 C 179.652 222.813 180.201 222.342 181.057 222.192 C 182.127 222.005 183.112 222.636 183.423 223.708 L 183.487 223.931 L 183.487 225.167 L 183.487 226.403 L 183.095 226.403 L 182.703 226.403 L 182.703 225.246 C 182.703 224.116 182.701 224.086 182.646 223.924 C 182.451 223.351 181.932 222.964 181.36 222.964 C 180.999 222.964 180.763 223.058 180.509 223.302 C 180.284 223.518 180.167 223.703 180.1 223.953 C 180.044 224.159 180.044 224.18 180.058 225.283 L 180.072 226.403 L 179.655 226.403 L 179.239 226.403 L 179.252 225.335 Z M 193.44 225.006 C 193.455 223.533 193.462 223.446 193.581 223.168 C 193.659 222.986 193.846 222.724 193.996 222.587 C 194.289 222.319 194.635 222.184 195.081 222.162 C 195.41 222.146 195.646 222.198 195.939 222.352 C 196.149 222.463 196.431 222.719 196.555 222.912 C 196.629 223.027 196.647 223.043 196.671 223.009 C 196.946 222.618 197.111 222.467 197.423 222.321 C 198.329 221.896 199.406 222.324 199.722 223.234 C 199.842 223.579 199.847 223.648 199.847 225.065 L 199.847 226.403 L 199.645 226.403 L 199.442 226.403 L 199.442 225.017 C 199.442 223.503 199.443 223.52 199.29 223.217 C 199.043 222.729 198.441 222.451 197.884 222.568 C 197.424 222.665 197.094 222.958 196.912 223.431 L 196.843 223.609 L 196.833 224.979 C 196.828 225.733 196.815 226.359 196.803 226.37 C 196.792 226.381 196.707 226.39 196.614 226.39 L 196.446 226.39 L 196.433 224.974 C 196.421 223.592 196.419 223.555 196.365 223.411 C 196.28 223.186 196.197 223.061 196.03 222.906 C 195.61 222.518 195.022 222.428 194.53 222.677 C 194.366 222.76 194.066 223.06 193.975 223.232 C 193.832 223.5 193.829 223.536 193.829 225.03 L 193.829 226.403 L 193.627 226.403 L 193.426 226.403 L 193.44 225.006 Z M 205.106 223.204 L 205.106 220.006 L 205.296 220.006 L 205.485 220.006 L 205.485 222.143 C 205.485 223.318 205.494 224.279 205.504 224.278 C 205.515 224.278 206.007 223.8 206.598 223.217 L 207.673 222.156 L 207.951 222.157 L 208.229 222.158 L 207.154 223.22 L 206.08 224.281 L 207.14 225.326 L 208.201 226.371 L 207.955 226.389 L 207.71 226.407 L 207.577 226.292 C 207.504 226.23 207.081 225.814 206.636 225.368 L 205.827 224.559 L 205.669 224.716 L 205.511 224.873 L 205.511 225.24 C 205.511 225.442 205.503 225.786 205.494 226.005 L 205.478 226.404 L 205.292 226.404 L 205.106 226.404 L 205.106 223.205 L 205.106 223.204 Z M 209.746 226.367 C 209.503 226.31 209.304 226.232 209.12 226.123 C 208.643 225.84 208.342 225.466 208.163 224.934 C 208.012 224.488 208.035 223.923 208.22 223.477 C 208.47 222.877 209.025 222.386 209.645 222.216 C 209.869 222.155 210.333 222.141 210.584 222.188 C 211.069 222.28 211.517 222.542 211.823 222.912 C 211.952 223.067 212.135 223.38 212.11 223.401 C 212.103 223.407 211.932 223.505 211.731 223.621 C 211.381 223.821 210.532 224.31 209.36 224.986 C 209.049 225.165 208.823 225.311 208.823 225.332 C 208.823 225.352 208.905 225.451 209.006 225.551 C 209.32 225.864 209.684 226.007 210.163 226.009 C 210.857 226.01 211.434 225.667 211.714 225.086 C 211.777 224.955 211.847 224.78 211.87 224.696 L 211.911 224.545 L 212.115 224.437 L 212.318 224.33 L 212.301 224.475 C 212.27 224.739 212.208 224.946 212.085 225.202 C 211.821 225.749 211.342 226.154 210.751 226.332 C 210.526 226.399 209.967 226.418 209.746 226.367 Z M 209.192 224.629 C 209.511 224.447 210.078 224.12 210.454 223.904 C 210.829 223.688 211.232 223.457 211.348 223.391 C 211.465 223.325 211.571 223.261 211.584 223.247 C 211.615 223.217 211.268 222.908 211.06 222.782 C 210.577 222.488 209.941 222.455 209.44 222.696 C 208.995 222.911 208.668 223.295 208.515 223.784 C 208.451 223.988 208.428 224.382 208.468 224.587 C 208.496 224.735 208.578 224.962 208.603 224.962 C 208.609 224.962 208.874 224.812 209.192 224.629 Z" id="path24" fill-rule="nonzero" style="fill: rgb(209, 209, 211);" />
  <path d="M 189.059 21.342 Q 189.059 21.568 188.978 21.767 Q 188.898 21.967 188.756 22.119 Q 188.614 22.27 188.422 22.365 Q 188.23 22.46 188.011 22.476 L 188.434 23.427 L 188.018 23.427 L 187.596 22.476 Q 187.36 22.476 187.153 22.388 Q 186.945 22.299 186.79 22.145 Q 186.635 21.99 186.547 21.784 Q 186.458 21.577 186.458 21.342 L 186.458 18.861 Q 186.458 18.625 186.547 18.419 Q 186.635 18.213 186.79 18.058 Q 186.945 17.904 187.153 17.815 Q 187.36 17.726 187.596 17.726 L 187.924 17.726 Q 188.16 17.726 188.366 17.815 Q 188.572 17.904 188.727 18.058 Q 188.881 18.213 188.97 18.419 Q 189.059 18.625 189.059 18.861 L 189.059 21.342 Z M 188.643 18.861 Q 188.643 18.706 188.585 18.572 Q 188.527 18.438 188.427 18.339 Q 188.327 18.239 188.193 18.181 Q 188.06 18.123 187.905 18.123 L 187.615 18.123 Q 187.46 18.123 187.327 18.181 Q 187.193 18.239 187.091 18.339 Q 186.99 18.438 186.932 18.572 Q 186.874 18.706 186.874 18.861 L 186.874 21.342 Q 186.874 21.497 186.932 21.631 Q 186.99 21.764 187.091 21.866 Q 187.193 21.967 187.327 22.025 Q 187.46 22.083 187.615 22.083 L 187.905 22.083 Q 188.06 22.083 188.193 22.025 Q 188.327 21.967 188.427 21.866 Q 188.527 21.764 188.585 21.631 Q 188.643 21.497 188.643 21.342 Z M 191.989 22.412 L 191.77 22.077 Q 191.635 22.261 191.432 22.368 Q 191.229 22.476 190.987 22.476 L 190.887 22.476 Q 190.687 22.476 190.51 22.401 Q 190.333 22.325 190.201 22.193 Q 190.068 22.061 189.993 21.883 Q 189.917 21.706 189.917 21.506 L 189.917 19.112 L 190.313 19.112 L 190.313 21.529 Q 190.313 21.648 190.359 21.753 Q 190.404 21.858 190.481 21.935 Q 190.558 22.012 190.663 22.058 Q 190.768 22.103 190.887 22.103 L 191.151 22.103 Q 191.271 22.103 191.375 22.058 Q 191.48 22.012 191.557 21.935 Q 191.635 21.858 191.68 21.753 Q 191.725 21.648 191.725 21.529 L 191.725 19.112 L 192.121 19.112 L 192.121 22.412 Z M 193.009 18.319 L 193.009 17.791 L 193.47 17.791 L 193.47 18.319 Z M 193.041 22.412 L 193.041 19.112 L 193.438 19.112 L 193.438 22.412 Z M 196.567 21.506 Q 196.567 21.706 196.491 21.883 Q 196.415 22.061 196.283 22.193 Q 196.151 22.325 195.974 22.401 Q 195.796 22.476 195.597 22.476 L 195.332 22.476 Q 195.133 22.476 194.955 22.401 Q 194.778 22.325 194.646 22.193 Q 194.514 22.061 194.438 21.883 Q 194.362 21.706 194.362 21.506 L 194.362 20.018 Q 194.362 19.818 194.438 19.641 Q 194.514 19.463 194.646 19.331 Q 194.778 19.199 194.955 19.123 Q 195.133 19.048 195.332 19.048 L 195.597 19.048 Q 195.796 19.048 195.974 19.123 Q 196.151 19.199 196.283 19.331 Q 196.415 19.463 196.491 19.641 Q 196.567 19.818 196.567 20.018 L 196.567 20.15 L 196.17 20.214 L 196.17 19.995 Q 196.17 19.876 196.125 19.771 Q 196.08 19.666 196.003 19.589 Q 195.925 19.512 195.821 19.466 Q 195.716 19.421 195.597 19.421 L 195.332 19.421 Q 195.213 19.421 195.108 19.466 Q 195.004 19.512 194.926 19.589 Q 194.849 19.666 194.804 19.771 Q 194.759 19.876 194.759 19.995 L 194.759 21.529 Q 194.759 21.648 194.804 21.753 Q 194.849 21.858 194.926 21.935 Q 195.004 22.012 195.108 22.058 Q 195.213 22.103 195.332 22.103 L 195.597 22.103 Q 195.716 22.103 195.821 22.058 Q 195.925 22.012 196.003 21.935 Q 196.08 21.858 196.125 21.753 Q 196.17 21.648 196.17 21.529 L 196.17 21.31 L 196.567 21.374 L 196.567 21.506 Z M 199.284 22.412 L 197.937 20.762 L 199.284 19.112 L 199.8 19.112 L 198.42 20.762 L 199.8 22.412 Z M 197.463 22.412 L 197.463 17.791 L 197.86 17.791 L 197.86 22.412 Z M 204.481 21.342 Q 204.481 21.577 204.386 21.784 Q 204.29 21.99 204.131 22.145 Q 203.971 22.299 203.76 22.388 Q 203.549 22.476 203.314 22.476 L 202.982 22.476 Q 202.747 22.476 202.536 22.388 Q 202.325 22.299 202.165 22.145 Q 202.006 21.99 201.911 21.784 Q 201.815 21.577 201.815 21.342 L 201.815 21.158 L 202.231 21.091 L 202.231 21.342 Q 202.231 21.497 202.294 21.631 Q 202.357 21.764 202.463 21.866 Q 202.57 21.967 202.71 22.025 Q 202.85 22.083 203.005 22.083 L 203.295 22.083 Q 203.449 22.083 203.588 22.025 Q 203.726 21.967 203.833 21.866 Q 203.939 21.764 204.002 21.631 Q 204.065 21.497 204.065 21.342 L 204.065 21.204 Q 204.065 20.965 203.971 20.807 Q 203.878 20.649 203.723 20.538 Q 203.569 20.427 203.374 20.35 Q 203.179 20.272 202.972 20.195 Q 202.766 20.117 202.571 20.024 Q 202.376 19.931 202.222 19.79 Q 202.067 19.65 201.973 19.447 Q 201.88 19.244 201.88 18.948 L 201.88 18.861 Q 201.88 18.625 201.969 18.419 Q 202.057 18.213 202.212 18.058 Q 202.367 17.904 202.574 17.815 Q 202.782 17.726 203.018 17.726 L 203.314 17.726 Q 203.549 17.726 203.755 17.815 Q 203.962 17.904 204.116 18.058 Q 204.271 18.213 204.36 18.419 Q 204.448 18.625 204.448 18.861 L 204.448 18.98 L 204.033 19.048 L 204.033 18.861 Q 204.033 18.706 203.975 18.572 Q 203.917 18.438 203.817 18.339 Q 203.717 18.239 203.583 18.181 Q 203.449 18.123 203.295 18.123 L 203.037 18.123 Q 202.882 18.123 202.748 18.181 Q 202.615 18.239 202.513 18.339 Q 202.412 18.438 202.354 18.572 Q 202.296 18.706 202.296 18.861 L 202.296 18.948 Q 202.296 19.17 202.389 19.321 Q 202.483 19.473 202.637 19.581 Q 202.792 19.689 202.987 19.768 Q 203.182 19.847 203.388 19.929 Q 203.594 20.011 203.789 20.109 Q 203.984 20.208 204.139 20.351 Q 204.294 20.495 204.387 20.701 Q 204.481 20.907 204.481 21.204 Z M 208.015 22.412 L 207.799 22.412 L 207.026 19.924 L 207.013 19.753 L 207 19.924 L 206.227 22.412 L 206.008 22.412 L 204.905 19.112 L 205.308 19.112 L 206.095 21.606 L 206.107 21.777 L 206.12 21.606 L 206.894 19.112 L 207.132 19.112 L 207.902 21.606 L 207.915 21.777 L 207.928 21.606 L 208.715 19.112 L 209.117 19.112 Z M 211.653 22.412 L 211.434 22.083 Q 211.299 22.261 211.096 22.368 Q 210.893 22.476 210.651 22.476 L 210.551 22.476 Q 210.351 22.476 210.174 22.401 Q 209.997 22.325 209.865 22.193 Q 209.733 22.061 209.657 21.883 Q 209.581 21.706 209.581 21.506 L 209.581 21.474 Q 209.581 21.274 209.657 21.097 Q 209.733 20.92 209.865 20.788 Q 209.997 20.656 210.174 20.58 Q 210.351 20.504 210.551 20.504 L 211.389 20.504 L 211.389 19.995 Q 211.389 19.876 211.344 19.771 Q 211.299 19.666 211.221 19.589 Q 211.144 19.512 211.039 19.466 Q 210.935 19.421 210.815 19.421 L 210.583 19.421 Q 210.464 19.421 210.359 19.466 Q 210.255 19.512 210.177 19.589 Q 210.1 19.666 210.055 19.771 Q 210.01 19.876 210.01 19.995 L 210.01 20.114 L 209.613 20.05 L 209.613 20.018 Q 209.613 19.818 209.689 19.641 Q 209.765 19.463 209.897 19.331 Q 210.029 19.199 210.206 19.123 Q 210.384 19.048 210.583 19.048 L 210.815 19.048 Q 211.015 19.048 211.192 19.123 Q 211.37 19.199 211.502 19.331 Q 211.634 19.463 211.71 19.641 Q 211.785 19.818 211.785 20.018 L 211.785 22.412 Z M 211.389 20.814 L 210.551 20.814 Q 210.432 20.814 210.327 20.859 Q 210.222 20.904 210.145 20.983 Q 210.068 21.062 210.023 21.166 Q 209.977 21.271 209.977 21.39 L 209.977 21.529 Q 209.977 21.648 210.023 21.753 Q 210.068 21.858 210.145 21.935 Q 210.222 22.012 210.327 22.058 Q 210.432 22.103 210.551 22.103 L 210.815 22.103 Q 210.935 22.103 211.039 22.058 Q 211.144 22.012 211.221 21.935 Q 211.299 21.858 211.344 21.753 Q 211.389 21.648 211.389 21.529 Z M 214.785 21.506 Q 214.785 21.706 214.71 21.883 Q 214.634 22.061 214.502 22.193 Q 214.37 22.325 214.192 22.401 Q 214.015 22.476 213.815 22.476 L 213.715 22.476 Q 213.493 22.476 213.303 22.386 Q 213.113 22.296 212.977 22.135 L 212.977 23.733 L 212.581 23.733 L 212.581 19.112 L 212.713 19.112 L 212.929 19.447 Q 213.064 19.263 213.269 19.156 Q 213.474 19.048 213.715 19.048 L 213.815 19.048 Q 214.015 19.048 214.192 19.123 Q 214.37 19.199 214.502 19.331 Q 214.634 19.463 214.71 19.641 Q 214.785 19.818 214.785 20.018 L 214.785 21.506 Z M 214.389 19.995 Q 214.389 19.876 214.344 19.771 Q 214.299 19.666 214.221 19.589 Q 214.144 19.512 214.039 19.466 Q 213.935 19.421 213.815 19.421 L 213.551 19.421 Q 213.432 19.421 213.327 19.466 Q 213.222 19.512 213.145 19.589 Q 213.068 19.666 213.023 19.771 Q 212.977 19.876 212.977 19.995 L 212.977 21.529 Q 212.977 21.648 213.023 21.753 Q 213.068 21.858 213.145 21.935 Q 213.222 22.012 213.327 22.058 Q 213.432 22.103 213.551 22.103 L 213.815 22.103 Q 213.935 22.103 214.039 22.058 Q 214.144 22.012 214.221 21.935 Q 214.299 21.858 214.344 21.753 Q 214.389 21.648 214.389 21.529 Z M 219.485 22.412 L 217.744 20.101 L 219.485 17.791 L 220 17.791 L 218.225 20.101 L 220 22.412 Z M 217.229 22.412 L 217.229 17.791 L 217.645 17.791 L 217.645 22.412 Z M 220.626 18.319 L 220.626 17.791 L 221.087 17.791 L 221.087 18.319 Z M 220.659 22.412 L 220.659 19.112 L 221.055 19.112 L 221.055 22.412 Z M 223.182 22.412 Q 223.001 22.412 222.842 22.344 Q 222.682 22.277 222.564 22.157 Q 222.447 22.038 222.378 21.88 Q 222.308 21.722 222.308 21.542 L 222.308 19.489 L 221.715 19.489 L 221.715 19.112 L 222.308 19.112 L 222.308 18.319 L 222.705 18.255 L 222.705 19.112 L 223.543 19.112 L 223.543 19.489 L 222.705 19.489 L 222.705 21.561 Q 222.705 21.661 222.742 21.747 Q 222.779 21.832 222.843 21.896 Q 222.908 21.961 222.995 21.998 Q 223.082 22.035 223.182 22.035 L 223.543 22.035 L 223.543 22.412 Z" style="fill: rgb(255, 0, 0);" />
  <line x1="0" y1="14" x2="230" y2="14" id="line-2" style="paint-order: fill; stroke-dasharray: 2px; stroke: rgb(255, 0, 0); stroke-width: 0.1px;" />
  <path d="M 199.58 7.278 Q 199.58 7.513 199.491 7.719 Q 199.402 7.925 199.248 8.08 Q 199.093 8.235 198.885 8.323 Q 198.677 8.412 198.442 8.412 L 196.979 8.412 L 196.979 3.791 L 198.442 3.791 Q 198.677 3.791 198.885 3.879 Q 199.093 3.968 199.248 4.123 Q 199.402 4.277 199.491 4.485 Q 199.58 4.693 199.58 4.928 L 199.58 4.973 Q 199.58 5.138 199.536 5.288 Q 199.493 5.437 199.412 5.566 Q 199.331 5.695 199.222 5.8 Q 199.112 5.905 198.977 5.976 Q 199.112 6.047 199.222 6.151 Q 199.331 6.256 199.412 6.387 Q 199.493 6.517 199.536 6.667 Q 199.58 6.817 199.58 6.981 L 199.58 7.278 Z M 199.164 6.913 Q 199.164 6.759 199.106 6.625 Q 199.048 6.491 198.946 6.391 Q 198.845 6.291 198.711 6.233 Q 198.577 6.175 198.423 6.175 L 197.395 6.175 L 197.395 8.016 L 198.423 8.016 Q 198.577 8.016 198.711 7.958 Q 198.845 7.9 198.946 7.8 Q 199.048 7.7 199.106 7.566 Q 199.164 7.432 199.164 7.278 Z M 199.164 4.928 Q 199.164 4.774 199.106 4.64 Q 199.048 4.506 198.946 4.405 Q 198.845 4.303 198.711 4.245 Q 198.577 4.187 198.423 4.187 L 197.395 4.187 L 197.395 5.779 L 198.423 5.779 Q 198.577 5.779 198.711 5.721 Q 198.845 5.663 198.946 5.562 Q 199.048 5.46 199.106 5.326 Q 199.164 5.193 199.164 5.038 Z M 201.207 5.489 Q 201.088 5.489 200.983 5.534 Q 200.879 5.579 200.801 5.657 Q 200.724 5.734 200.679 5.839 Q 200.634 5.943 200.634 6.063 L 200.634 8.412 L 200.237 8.412 L 200.237 5.112 L 200.369 5.112 L 200.585 5.447 Q 200.721 5.263 200.925 5.156 Q 201.13 5.048 201.372 5.048 L 201.604 5.048 L 201.604 5.489 Z M 204.2 8.412 L 203.981 8.083 Q 203.846 8.261 203.643 8.368 Q 203.44 8.476 203.198 8.476 L 203.098 8.476 Q 202.898 8.476 202.721 8.401 Q 202.544 8.325 202.412 8.193 Q 202.279 8.061 202.204 7.883 Q 202.128 7.706 202.128 7.506 L 202.128 7.474 Q 202.128 7.274 202.204 7.097 Q 202.279 6.92 202.412 6.788 Q 202.544 6.656 202.721 6.58 Q 202.898 6.504 203.098 6.504 L 203.936 6.504 L 203.936 5.995 Q 203.936 5.876 203.891 5.771 Q 203.846 5.666 203.768 5.589 Q 203.691 5.512 203.586 5.466 Q 203.481 5.421 203.362 5.421 L 203.13 5.421 Q 203.011 5.421 202.906 5.466 Q 202.801 5.512 202.724 5.589 Q 202.647 5.666 202.602 5.771 Q 202.557 5.876 202.557 5.995 L 202.557 6.114 L 202.16 6.05 L 202.16 6.018 Q 202.16 5.818 202.236 5.641 Q 202.312 5.463 202.444 5.331 Q 202.576 5.199 202.753 5.123 Q 202.93 5.048 203.13 5.048 L 203.362 5.048 Q 203.562 5.048 203.739 5.123 Q 203.917 5.199 204.049 5.331 Q 204.181 5.463 204.257 5.641 Q 204.332 5.818 204.332 6.018 L 204.332 8.412 Z M 203.936 6.814 L 203.098 6.814 Q 202.979 6.814 202.874 6.859 Q 202.769 6.904 202.692 6.983 Q 202.615 7.062 202.569 7.166 Q 202.524 7.271 202.524 7.39 L 202.524 7.529 Q 202.524 7.648 202.569 7.753 Q 202.615 7.858 202.692 7.935 Q 202.769 8.012 202.874 8.058 Q 202.979 8.103 203.098 8.103 L 203.362 8.103 Q 203.481 8.103 203.586 8.058 Q 203.691 8.012 203.768 7.935 Q 203.846 7.858 203.891 7.753 Q 203.936 7.648 203.936 7.529 Z M 207.332 7.506 Q 207.332 7.706 207.257 7.883 Q 207.181 8.061 207.049 8.193 Q 206.917 8.325 206.739 8.401 Q 206.562 8.476 206.362 8.476 L 206.098 8.476 Q 205.898 8.476 205.721 8.401 Q 205.544 8.325 205.412 8.193 Q 205.279 8.061 205.204 7.883 Q 205.128 7.706 205.128 7.506 L 205.128 6.018 Q 205.128 5.818 205.204 5.641 Q 205.279 5.463 205.412 5.331 Q 205.544 5.199 205.721 5.123 Q 205.898 5.048 206.098 5.048 L 206.362 5.048 Q 206.562 5.048 206.739 5.123 Q 206.917 5.199 207.049 5.331 Q 207.181 5.463 207.257 5.641 Q 207.332 5.818 207.332 6.018 L 207.332 6.15 L 206.936 6.214 L 206.936 5.995 Q 206.936 5.876 206.891 5.771 Q 206.846 5.666 206.768 5.589 Q 206.691 5.512 206.586 5.466 Q 206.481 5.421 206.362 5.421 L 206.098 5.421 Q 205.979 5.421 205.874 5.466 Q 205.769 5.512 205.692 5.589 Q 205.615 5.666 205.569 5.771 Q 205.524 5.876 205.524 5.995 L 205.524 7.529 Q 205.524 7.648 205.569 7.753 Q 205.615 7.858 205.692 7.935 Q 205.769 8.012 205.874 8.058 Q 205.979 8.103 206.098 8.103 L 206.362 8.103 Q 206.481 8.103 206.586 8.058 Q 206.691 8.012 206.768 7.935 Q 206.846 7.858 206.891 7.753 Q 206.936 7.648 206.936 7.529 L 206.936 7.31 L 207.332 7.374 L 207.332 7.506 Z M 208.228 4.319 L 208.228 3.791 L 208.689 3.791 L 208.689 4.319 Z M 208.26 8.412 L 208.26 5.112 L 208.656 5.112 L 208.656 8.412 Z M 211.389 8.412 L 211.389 5.995 Q 211.389 5.876 211.344 5.771 Q 211.299 5.666 211.221 5.589 Q 211.144 5.512 211.039 5.466 Q 210.935 5.421 210.815 5.421 L 210.551 5.421 Q 210.432 5.421 210.327 5.466 Q 210.222 5.512 210.145 5.589 Q 210.068 5.666 210.023 5.771 Q 209.977 5.876 209.977 5.995 L 209.977 8.412 L 209.581 8.412 L 209.581 5.112 L 209.713 5.112 L 209.929 5.447 Q 210.064 5.263 210.269 5.156 Q 210.474 5.048 210.715 5.048 L 210.815 5.048 Q 211.015 5.048 211.192 5.123 Q 211.37 5.199 211.502 5.331 Q 211.634 5.463 211.71 5.641 Q 211.785 5.818 211.785 6.018 L 211.785 8.412 Z M 214.81 8.828 Q 214.81 9.028 214.734 9.195 Q 214.658 9.363 214.526 9.482 Q 214.394 9.601 214.217 9.667 Q 214.04 9.733 213.84 9.733 L 213.675 9.733 Q 213.476 9.733 213.298 9.667 Q 213.121 9.601 212.989 9.482 Q 212.857 9.363 212.781 9.195 Q 212.705 9.028 212.705 8.828 L 212.705 8.815 Q 212.705 8.621 212.776 8.46 Q 212.847 8.299 212.97 8.18 Q 212.815 8.087 212.723 7.927 Q 212.631 7.767 212.631 7.574 Q 212.631 7.4 212.705 7.25 Q 212.78 7.1 212.908 7.007 Q 212.754 6.872 212.664 6.681 Q 212.573 6.491 212.573 6.266 L 212.573 6.018 Q 212.573 5.818 212.649 5.641 Q 212.725 5.463 212.857 5.331 Q 212.989 5.199 213.166 5.123 Q 213.343 5.048 213.543 5.048 L 213.708 5.048 Q 213.949 5.048 214.154 5.156 Q 214.359 5.263 214.494 5.447 L 214.71 5.112 L 214.842 5.112 L 214.842 6.266 Q 214.842 6.466 214.766 6.643 Q 214.691 6.82 214.558 6.952 Q 214.426 7.084 214.249 7.16 Q 214.072 7.236 213.872 7.236 L 213.298 7.236 Q 213.231 7.236 213.169 7.263 Q 213.108 7.291 213.061 7.336 Q 213.015 7.381 212.989 7.444 Q 212.963 7.506 212.963 7.574 Q 212.963 7.642 212.989 7.703 Q 213.015 7.764 213.061 7.811 Q 213.108 7.858 213.169 7.883 Q 213.231 7.909 213.298 7.909 L 213.84 7.909 Q 214.04 7.909 214.217 7.975 Q 214.394 8.041 214.526 8.161 Q 214.658 8.28 214.734 8.447 Q 214.81 8.615 214.81 8.815 L 214.81 8.828 Z M 214.449 5.995 Q 214.449 5.876 214.404 5.771 Q 214.359 5.666 214.28 5.589 Q 214.201 5.512 214.096 5.466 Q 213.991 5.421 213.872 5.421 L 213.543 5.421 Q 213.424 5.421 213.319 5.466 Q 213.215 5.512 213.137 5.589 Q 213.06 5.666 213.015 5.771 Q 212.97 5.876 212.97 5.995 L 212.97 6.288 Q 212.97 6.408 213.015 6.512 Q 213.06 6.617 213.137 6.694 Q 213.215 6.772 213.319 6.817 Q 213.424 6.862 213.543 6.862 L 213.872 6.862 Q 213.991 6.862 214.096 6.817 Q 214.201 6.772 214.28 6.694 Q 214.359 6.617 214.404 6.512 Q 214.449 6.408 214.449 6.288 Z M 214.433 8.795 Q 214.433 8.676 214.388 8.581 Q 214.343 8.486 214.265 8.422 Q 214.188 8.357 214.083 8.322 Q 213.978 8.286 213.859 8.286 L 213.656 8.286 Q 213.537 8.286 213.432 8.322 Q 213.327 8.357 213.25 8.422 Q 213.173 8.486 213.128 8.581 Q 213.082 8.676 213.082 8.795 L 213.082 8.847 Q 213.082 8.966 213.128 9.06 Q 213.173 9.153 213.25 9.219 Q 213.327 9.285 213.432 9.321 Q 213.537 9.356 213.656 9.356 L 213.859 9.356 Q 213.978 9.356 214.083 9.321 Q 214.188 9.285 214.265 9.219 Q 214.343 9.153 214.388 9.06 Q 214.433 8.966 214.433 8.847 Z M 219.477 8.412 L 217.737 6.101 L 219.477 3.791 L 219.993 3.791 L 218.217 6.101 L 219.993 8.412 Z M 217.221 8.412 L 217.221 3.791 L 217.637 3.791 L 217.637 8.412 Z M 220.626 4.319 L 220.626 3.791 L 221.087 3.791 L 221.087 4.319 Z M 220.659 8.412 L 220.659 5.112 L 221.055 5.112 L 221.055 8.412 Z M 223.182 8.412 Q 223.001 8.412 222.842 8.344 Q 222.682 8.277 222.564 8.157 Q 222.447 8.038 222.378 7.88 Q 222.308 7.722 222.308 7.542 L 222.308 5.489 L 221.715 5.489 L 221.715 5.112 L 222.308 5.112 L 222.308 4.319 L 222.705 4.255 L 222.705 5.112 L 223.543 5.112 L 223.543 5.489 L 222.705 5.489 L 222.705 7.561 Q 222.705 7.661 222.742 7.747 Q 222.779 7.832 222.843 7.896 Q 222.908 7.961 222.995 7.998 Q 223.082 8.035 223.182 8.035 L 223.543 8.035 L 223.543 8.412 Z" style="fill: rgb(62, 0, 255);" />
  <line x1="0" y1="11" x2="230" y2="11" id="line-1" style="paint-order: fill; stroke-dasharray: 2px; stroke: rgb(62, 0, 255); stroke-width: 0.1px;" />
  <line x1="0" y1="26" x2="230" y2="26" id="line-3" style="paint-order: fill; stroke-dasharray: 2px; stroke: rgb(255, 255, 255); stroke-width: 0.1px;" />
</svg>
