<?xml version="1.0" encoding="UTF-8"?>
<svg xmlns="http://www.w3.org/2000/svg" xmlns:xlink="http://www.w3.org/1999/xlink" width="270px" height="270px" viewBox="0 0 270 270" version="1.1">
<g id="surface1">
<path style=" stroke:none;fill-rule:nonzero;fill:rgb(100%,100%,100%);fill-opacity:1;" d="M 166.042969 136.941406 L 166.960938 135.988281 L 172.285156 141.527344 L 174.085938 141.527344 L 167.839844 135.105469 L 174.121094 128.578125 L 172.355469 128.578125 L 166.042969 135.105469 L 166.042969 122.902344 L 164.773438 122.902344 L 164.773438 141.527344 L 166.042969 141.527344 Z M 166.042969 136.941406 "/>
<path style=" stroke:none;fill-rule:nonzero;fill:rgb(100%,100%,100%);fill-opacity:1;" d="M 91.011719 135.105469 C 91.011719 132.953125 92.703125 131.191406 94.785156 131.191406 C 96.867188 131.191406 98.558594 132.953125 98.558594 135.105469 L 98.558594 141.5625 L 101.066406 141.5625 L 101.066406 135.105469 C 101.066406 131.507812 98.242188 128.542969 94.75 128.542969 C 91.257812 128.542969 88.4375 131.472656 88.4375 135.105469 L 88.4375 141.5625 L 90.941406 141.5625 L 90.941406 135.105469 "/>
<path style=" stroke:none;fill-rule:nonzero;fill:rgb(100%,100%,100%);fill-opacity:1;" d="M 119.195312 140.363281 C 120.253906 141.171875 121.558594 141.667969 122.972656 141.667969 C 126.464844 141.667969 129.285156 138.738281 129.285156 135.105469 C 129.285156 131.507812 126.464844 128.542969 122.972656 128.542969 C 119.480469 128.542969 116.65625 131.472656 116.65625 135.105469 L 116.65625 147.0625 L 119.160156 147.0625 L 119.160156 140.363281 Z M 122.972656 131.15625 C 125.050781 131.15625 126.746094 132.917969 126.746094 135.070312 C 126.746094 137.222656 125.050781 138.984375 122.972656 138.984375 C 120.890625 138.984375 119.195312 137.222656 119.195312 135.070312 C 119.195312 132.917969 120.890625 131.15625 122.972656 131.15625 "/>
<path style=" stroke:none;fill-rule:nonzero;fill:rgb(100%,100%,100%);fill-opacity:1;" d="M 156.660156 141.632812 C 158.707031 141.632812 160.539062 140.574219 161.703125 138.984375 L 161.703125 141.492188 L 162.972656 141.492188 L 162.972656 128.933594 L 161.703125 128.933594 L 161.703125 131.121094 C 160.539062 129.53125 158.707031 128.472656 156.660156 128.472656 C 153.167969 128.472656 150.34375 131.402344 150.34375 135.035156 C 150.34375 138.738281 153.167969 141.632812 156.660156 141.632812 M 156.660156 129.886719 C 159.445312 129.886719 161.703125 132.214844 161.703125 135.140625 C 161.703125 138.035156 159.445312 140.398438 156.660156 140.398438 C 153.871094 140.398438 151.613281 138.070312 151.613281 135.140625 C 151.613281 132.214844 153.871094 129.886719 156.660156 129.886719 "/>
<path style=" stroke:none;fill-rule:nonzero;fill:rgb(100%,100%,100%);fill-opacity:1;" d="M 174.015625 138.351562 C 175.742188 141.492188 179.625 142.550781 182.621094 140.75 C 184.632812 139.515625 185.761719 137.328125 185.796875 135.105469 L 184.457031 135.882812 C 184.246094 137.398438 183.363281 138.808594 182.023438 139.621094 C 179.800781 140.960938 176.976562 140.328125 175.460938 138.246094 L 182.164062 134.257812 L 184.140625 133.058594 L 185.269531 132.425781 C 185.199219 132.25 185.089844 132.035156 184.984375 131.859375 C 183.257812 128.722656 179.375 127.664062 176.378906 129.460938 C 173.308594 131.226562 172.285156 135.246094 174.015625 138.351562 M 176.976562 130.554688 C 179.199219 129.214844 182.023438 129.851562 183.539062 131.929688 L 174.863281 137.117188 C 173.875 134.71875 174.71875 131.929688 176.976562 130.554688 "/>
<path style=" stroke:none;fill-rule:nonzero;fill:rgb(100%,100%,100%);fill-opacity:1;" d="M 187.171875 135.105469 L 187.171875 141.5625 L 188.441406 141.5625 L 188.441406 135.140625 C 188.441406 132.25 190.699219 129.921875 193.488281 129.921875 L 193.488281 128.613281 C 189.960938 128.578125 187.171875 131.472656 187.171875 135.105469 "/>
<path style=" stroke:none;fill-rule:nonzero;fill:rgb(100%,100%,100%);fill-opacity:1;" d="M 81.488281 136.269531 C 83.496094 136.445312 84.730469 137.257812 84.660156 137.964844 C 84.589844 138.597656 83.566406 138.949219 82.4375 138.984375 C 81.453125 139.019531 79.546875 138.984375 77.535156 138.246094 C 77.394531 138.597656 76.867188 139.9375 76.617188 140.503906 C 77.113281 140.75 79.6875 141.949219 83.003906 141.632812 C 86.144531 141.351562 88.011719 139.199219 87.765625 137.503906 C 87.34375 134.117188 82.96875 134.011719 81.0625 133.695312 C 79.933594 133.484375 79.265625 132.8125 79.371094 132.25 C 79.511719 131.472656 80.710938 131.226562 82.332031 131.15625 C 84.484375 131.085938 86.285156 131.859375 86.285156 131.859375 C 86.285156 131.859375 86.953125 130.238281 87.203125 129.636719 C 85.296875 128.722656 83.320312 128.507812 82.332031 128.507812 C 79.015625 128.507812 76.511719 130.34375 76.511719 132.390625 C 76.511719 134.578125 79.015625 136.023438 81.488281 136.269531 "/>
<path style=" stroke:none;fill-rule:nonzero;fill:rgb(100%,100%,100%);fill-opacity:1;" d="M 108.542969 141.632812 C 109.953125 141.632812 111.292969 141.136719 112.316406 140.328125 L 112.316406 141.527344 L 114.824219 141.527344 L 114.824219 128.96875 L 112.316406 128.96875 L 112.316406 129.886719 C 111.257812 129.074219 109.953125 128.578125 108.542969 128.578125 C 105.050781 128.578125 102.230469 131.507812 102.230469 135.140625 C 102.230469 138.738281 105.015625 141.632812 108.542969 141.632812 M 108.542969 131.15625 C 110.625 131.15625 112.316406 132.917969 112.316406 135.070312 C 112.316406 137.222656 110.625 138.984375 108.542969 138.984375 C 106.460938 138.984375 104.769531 137.222656 104.769531 135.070312 C 104.734375 132.917969 106.425781 131.15625 108.542969 131.15625 "/>
<path style=" stroke:none;fill-rule:nonzero;fill:rgb(100%,100%,100%);fill-opacity:1;" d="M 131.789062 133.800781 C 131.789062 131.648438 133.484375 129.886719 135.5625 129.886719 C 137.644531 129.886719 139.339844 131.648438 139.339844 133.800781 L 139.339844 141.5625 L 140.609375 141.5625 L 140.609375 133.800781 C 140.609375 131.648438 142.300781 129.886719 144.382812 129.886719 C 146.464844 129.886719 148.15625 131.648438 148.15625 133.800781 L 148.15625 141.5625 L 149.429688 141.5625 L 149.429688 133.730469 C 149.390625 130.871094 147.171875 128.578125 144.382812 128.578125 C 142.476562 128.578125 140.820312 129.671875 139.9375 131.296875 C 139.058594 129.671875 137.433594 128.578125 135.492188 128.578125 C 132.707031 128.578125 130.484375 130.871094 130.449219 133.730469 L 130.449219 141.5625 L 131.71875 141.5625 L 131.71875 133.800781 Z M 131.789062 133.800781 "/>
</g>
</svg>
