<?xml version="1.0" encoding="utf-8"?>
<svg viewBox="0 0 400 400" width="400px" height="400px" xmlns="http://www.w3.org/2000/svg">
  <path d="M 242.541 323.167 L 241.056 323.167 L 240.749 324.259 L 240.31 324.259 L 241.684 319.569 L 241.906 319.569 L 243.286 324.259 L 242.851 324.259 Z M 241.17 322.764 L 242.43 322.764 L 241.811 320.603 L 241.798 320.43 L 241.785 320.603 Z M 244.737 321.293 Q 244.616 321.293 244.509 321.339 Q 244.403 321.384 244.325 321.463 Q 244.246 321.541 244.2 321.648 Q 244.155 321.754 244.155 321.875 L 244.155 324.259 L 243.752 324.259 L 243.752 320.91 L 243.886 320.91 L 244.105 321.25 Q 244.243 321.064 244.45 320.954 Q 244.658 320.845 244.903 320.845 L 245.139 320.845 L 245.139 321.293 Z M 246.893 324.259 Q 246.71 324.259 246.548 324.19 Q 246.386 324.122 246.267 324.001 Q 246.147 323.88 246.077 323.719 Q 246.007 323.559 246.007 323.376 L 246.007 321.293 L 245.405 321.293 L 245.405 320.91 L 246.007 320.91 L 246.007 320.106 L 246.409 320.04 L 246.409 320.91 L 247.259 320.91 L 247.259 321.293 L 246.409 321.293 L 246.409 323.396 Q 246.409 323.497 246.447 323.584 Q 246.484 323.67 246.55 323.736 Q 246.615 323.801 246.703 323.839 Q 246.792 323.876 246.893 323.876 L 247.259 323.876 L 247.259 324.259 Z M 248.098 320.106 L 248.098 319.569 L 248.566 319.569 L 248.566 320.106 Z M 248.131 324.259 L 248.131 320.91 L 248.533 320.91 L 248.533 324.259 Z M 251.776 323.409 Q 251.776 323.611 251.694 323.78 Q 251.612 323.948 251.472 324.069 Q 251.331 324.19 251.146 324.257 Q 250.962 324.324 250.759 324.324 L 250.491 324.324 Q 250.288 324.324 250.103 324.248 Q 249.918 324.171 249.779 324.037 Q 249.64 323.903 249.557 323.723 Q 249.474 323.543 249.474 323.34 L 249.474 323.206 L 249.876 323.141 L 249.876 323.363 Q 249.876 323.484 249.926 323.59 Q 249.977 323.697 250.062 323.775 Q 250.147 323.853 250.258 323.899 Q 250.37 323.945 250.491 323.945 L 250.759 323.945 Q 250.88 323.945 250.991 323.909 Q 251.102 323.873 251.189 323.806 Q 251.275 323.739 251.326 323.644 Q 251.377 323.549 251.377 323.428 Q 251.377 323.248 251.298 323.134 Q 251.22 323.02 251.091 322.943 Q 250.962 322.866 250.796 322.815 Q 250.631 322.764 250.458 322.714 Q 250.285 322.663 250.119 322.598 Q 249.954 322.532 249.825 322.426 Q 249.696 322.32 249.617 322.159 Q 249.539 321.999 249.539 321.761 Q 249.539 321.558 249.617 321.389 Q 249.696 321.221 249.83 321.1 Q 249.964 320.979 250.142 320.912 Q 250.321 320.845 250.523 320.845 L 250.759 320.845 Q 250.962 320.845 251.141 320.922 Q 251.321 320.999 251.455 321.133 Q 251.589 321.267 251.666 321.447 Q 251.743 321.626 251.743 321.829 L 251.743 321.842 L 251.341 321.908 L 251.341 321.806 Q 251.341 321.685 251.295 321.579 Q 251.249 321.473 251.171 321.394 Q 251.092 321.316 250.986 321.27 Q 250.88 321.224 250.759 321.224 L 250.523 321.224 Q 250.402 321.224 250.296 321.26 Q 250.19 321.296 250.111 321.363 Q 250.033 321.43 249.987 321.525 Q 249.941 321.62 249.941 321.741 Q 249.941 321.914 250.02 322.024 Q 250.098 322.133 250.227 322.209 Q 250.357 322.284 250.522 322.334 Q 250.687 322.385 250.858 322.439 Q 251.03 322.493 251.195 322.562 Q 251.36 322.63 251.49 322.738 Q 251.619 322.846 251.697 323.008 Q 251.776 323.17 251.776 323.409 Z M 254.647 324.259 L 254.425 323.925 Q 254.287 324.105 254.081 324.215 Q 253.875 324.324 253.63 324.324 L 253.529 324.324 Q 253.326 324.324 253.146 324.248 Q 252.966 324.171 252.832 324.037 Q 252.698 323.903 252.621 323.723 Q 252.544 323.543 252.544 323.34 L 252.544 323.307 Q 252.544 323.105 252.621 322.925 Q 252.698 322.745 252.832 322.611 Q 252.966 322.477 253.146 322.4 Q 253.326 322.323 253.529 322.323 L 254.379 322.323 L 254.379 321.806 Q 254.379 321.685 254.333 321.579 Q 254.287 321.473 254.209 321.394 Q 254.13 321.316 254.024 321.27 Q 253.918 321.224 253.797 321.224 L 253.561 321.224 Q 253.44 321.224 253.334 321.27 Q 253.228 321.316 253.149 321.394 Q 253.071 321.473 253.025 321.579 Q 252.979 321.685 252.979 321.806 L 252.979 321.927 L 252.577 321.862 L 252.577 321.829 Q 252.577 321.626 252.654 321.447 Q 252.731 321.267 252.865 321.133 Q 252.999 320.999 253.179 320.922 Q 253.358 320.845 253.561 320.845 L 253.797 320.845 Q 253.999 320.845 254.179 320.922 Q 254.359 320.999 254.493 321.133 Q 254.627 321.267 254.704 321.447 Q 254.781 321.626 254.781 321.829 L 254.781 324.259 Z M 254.379 322.637 L 253.529 322.637 Q 253.408 322.637 253.301 322.683 Q 253.195 322.729 253.116 322.809 Q 253.038 322.889 252.992 322.995 Q 252.946 323.101 252.946 323.222 L 252.946 323.363 Q 252.946 323.484 252.992 323.59 Q 253.038 323.697 253.116 323.775 Q 253.195 323.853 253.301 323.899 Q 253.408 323.945 253.529 323.945 L 253.797 323.945 Q 253.918 323.945 254.024 323.899 Q 254.13 323.853 254.209 323.775 Q 254.287 323.697 254.333 323.59 Q 254.379 323.484 254.379 323.363 Z M 257.422 324.259 L 257.422 321.806 Q 257.422 321.685 257.376 321.579 Q 257.33 321.473 257.252 321.394 Q 257.173 321.316 257.067 321.27 Q 256.961 321.224 256.84 321.224 L 256.572 321.224 Q 256.451 321.224 256.344 321.27 Q 256.238 321.316 256.16 321.394 Q 256.081 321.473 256.035 321.579 Q 255.989 321.685 255.989 321.806 L 255.989 324.259 L 255.587 324.259 L 255.587 320.91 L 255.721 320.91 L 255.94 321.25 Q 256.078 321.064 256.285 320.954 Q 256.493 320.845 256.738 320.845 L 256.84 320.845 Q 257.042 320.845 257.222 320.922 Q 257.402 320.999 257.536 321.133 Q 257.67 321.267 257.747 321.447 Q 257.824 321.626 257.824 321.829 L 257.824 324.259 Z" transform="matrix(2.143394, 0, 0, 2.388948, -163.880661, -398.960327)" style="fill: rgb(209, 209, 211);"/>
  <path d="M 363.312 387.318 C 363.313 386.668 363.322 385.618 363.332 384.985 L 363.35 383.835 L 363.432 383.595 C 363.626 383.03 363.992 382.608 364.515 382.346 C 365.12 382.044 365.894 382.062 366.48 382.391 C 366.989 382.678 367.374 383.19 367.509 383.759 C 367.554 383.951 367.561 384.04 367.551 384.328 C 367.541 384.627 367.53 384.699 367.46 384.906 C 367.221 385.61 366.663 386.131 365.952 386.315 C 365.686 386.384 365.18 386.38 364.924 386.306 C 364.669 386.233 364.474 386.146 364.292 386.022 C 364.211 385.966 364.139 385.921 364.132 385.921 C 364.124 385.921 364.119 386.501 364.119 387.21 L 364.119 388.5 L 363.714 388.5 L 363.309 388.5 L 363.312 387.318 Z M 365.741 385.53 C 366.46 385.378 366.917 384.647 366.734 383.942 C 366.619 383.497 366.305 383.159 365.87 383.009 C 365.654 382.935 365.269 382.929 365.054 382.996 C 364.508 383.165 364.143 383.672 364.144 384.26 C 364.147 385.107 364.902 385.708 365.741 385.53 Z M 360.485 386.376 C 360.01 386.31 359.615 386.121 359.281 385.798 C 358.677 385.215 358.468 384.357 358.734 383.562 C 358.848 383.222 358.983 383.01 359.261 382.735 C 359.651 382.349 360.066 382.164 360.604 382.136 C 361.076 382.111 361.496 382.216 361.844 382.445 L 362.045 382.577 L 362.045 382.412 L 362.045 382.248 L 362.163 382.264 C 362.227 382.273 362.415 382.28 362.58 382.28 L 362.88 382.28 L 362.88 384.315 L 362.88 386.351 L 362.462 386.351 L 362.045 386.351 L 362.045 386.138 L 362.045 385.925 L 361.875 386.04 C 361.656 386.187 361.492 386.258 361.231 386.322 C 360.975 386.384 360.695 386.405 360.485 386.376 Z M 361.161 385.496 C 361.398 385.413 361.519 385.339 361.681 385.177 C 362.088 384.77 362.171 384.148 361.889 383.615 C 361.685 383.231 361.189 382.938 360.743 382.938 C 360.563 382.938 360.286 383.002 360.124 383.081 C 359.951 383.165 359.672 383.438 359.586 383.609 C 359.381 384.013 359.381 384.491 359.585 384.895 C 359.727 385.174 360.101 385.454 360.434 385.53 C 360.636 385.577 360.976 385.56 361.161 385.496 Z M 376.914 386.375 C 376.026 386.253 375.313 385.599 375.102 384.716 C 375.041 384.459 375.047 384.016 375.115 383.747 C 375.289 383.059 375.795 382.494 376.451 382.256 C 377.032 382.044 377.719 382.102 378.24 382.408 C 378.454 382.533 378.598 382.648 378.79 382.849 L 378.935 383 L 378.936 382.627 L 378.936 382.255 L 379.126 382.255 L 379.315 382.255 L 379.315 384.315 L 379.315 386.376 L 379.126 386.376 L 378.936 386.376 L 378.936 385.94 L 378.935 385.504 L 378.816 385.641 C 378.643 385.839 378.357 386.058 378.119 386.173 C 377.767 386.343 377.279 386.425 376.915 386.375 L 376.914 386.375 Z M 377.718 385.914 C 378.667 385.578 379.16 384.538 378.81 383.612 C 378.576 382.996 377.953 382.552 377.267 382.515 C 376.949 382.498 376.715 382.548 376.409 382.7 C 376.004 382.9 375.653 383.302 375.519 383.721 C 375.444 383.954 375.427 384.365 375.482 384.613 C 375.623 385.247 376.157 385.802 376.775 385.958 C 377.017 386.018 377.484 385.997 377.718 385.914 Z M 387.507 386.38 C 387.473 386.369 387.474 384.166 387.508 383.954 C 387.666 382.983 388.457 382.215 389.38 382.138 L 389.581 382.121 L 389.581 382.219 C 389.581 382.274 389.588 382.36 389.597 382.413 L 389.613 382.507 L 389.515 382.508 C 389.339 382.509 389.067 382.58 388.879 382.675 C 388.52 382.856 388.129 383.258 388.012 383.567 C 387.895 383.876 387.887 383.986 387.887 385.215 C 387.887 385.853 387.878 386.377 387.868 386.377 C 387.739 386.385 387.527 386.387 387.507 386.38 Z M 351.135 386.339 C 350.729 386.274 350.06 386.05 350.06 385.978 C 350.06 385.927 350.284 385.412 350.329 385.362 C 350.361 385.325 350.383 385.328 350.566 385.393 C 350.832 385.487 351.383 385.567 351.767 385.566 C 352.264 385.566 352.591 385.468 352.776 385.263 C 352.88 385.147 352.891 385.065 352.816 384.959 C 352.709 384.81 352.485 384.742 351.78 384.643 C 351.077 384.545 350.61 384.365 350.298 384.071 C 350.065 383.85 349.964 383.566 350.012 383.263 C 350.094 382.745 350.507 382.375 351.211 382.188 C 351.439 382.127 351.509 382.12 351.931 382.119 C 352.28 382.118 352.463 382.129 352.652 382.163 C 353.054 382.236 353.575 382.416 353.575 382.481 C 353.575 382.543 353.311 383.14 353.284 383.14 C 353.266 383.14 353.21 383.122 353.158 383.1 C 353.004 383.036 352.622 382.965 352.263 382.935 C 351.894 382.904 351.492 382.931 351.251 383.002 C 350.996 383.078 350.867 383.268 350.955 383.439 C 351.054 383.628 351.33 383.738 351.989 383.849 C 352.581 383.948 352.763 383.99 352.971 384.075 C 353.216 384.174 353.369 384.27 353.503 384.408 C 353.894 384.809 353.864 385.401 353.432 385.83 C 353.206 386.055 352.776 386.262 352.378 386.338 C 352.134 386.385 351.426 386.385 351.135 386.339 Z M 354.093 385.308 C 354.111 383.942 354.112 383.924 354.219 383.605 C 354.493 382.786 355.042 382.315 355.898 382.165 C 356.968 381.978 357.953 382.609 358.264 383.681 L 358.328 383.904 L 358.328 385.14 L 358.328 386.376 L 357.936 386.376 L 357.544 386.376 L 357.544 385.219 C 357.544 384.089 357.542 384.059 357.487 383.897 C 357.292 383.324 356.773 382.937 356.201 382.937 C 355.84 382.937 355.604 383.031 355.35 383.275 C 355.125 383.491 355.008 383.676 354.941 383.926 C 354.885 384.132 354.885 384.153 354.899 385.256 L 354.913 386.376 L 354.496 386.376 L 354.08 386.376 L 354.093 385.308 Z M 368.281 384.979 C 368.296 383.506 368.303 383.419 368.422 383.141 C 368.5 382.959 368.687 382.697 368.837 382.56 C 369.13 382.292 369.476 382.157 369.922 382.135 C 370.251 382.119 370.487 382.171 370.78 382.325 C 370.99 382.436 371.272 382.692 371.396 382.885 C 371.47 383 371.488 383.016 371.512 382.982 C 371.787 382.591 371.952 382.44 372.264 382.294 C 373.17 381.869 374.247 382.297 374.563 383.207 C 374.683 383.552 374.688 383.621 374.688 385.038 L 374.688 386.376 L 374.486 386.376 L 374.283 386.376 L 374.283 384.99 C 374.283 383.476 374.284 383.493 374.131 383.19 C 373.884 382.702 373.282 382.424 372.725 382.541 C 372.265 382.638 371.935 382.931 371.753 383.404 L 371.684 383.582 L 371.674 384.952 C 371.669 385.706 371.656 386.332 371.644 386.343 C 371.633 386.354 371.548 386.363 371.455 386.363 L 371.287 386.363 L 371.274 384.947 C 371.262 383.565 371.26 383.528 371.206 383.384 C 371.121 383.159 371.038 383.034 370.871 382.879 C 370.451 382.491 369.863 382.401 369.371 382.65 C 369.207 382.733 368.907 383.033 368.816 383.205 C 368.673 383.473 368.67 383.509 368.67 385.003 L 368.67 386.376 L 368.468 386.376 L 368.267 386.376 L 368.281 384.979 Z M 379.947 383.177 L 379.947 379.979 L 380.137 379.979 L 380.326 379.979 L 380.326 382.116 C 380.326 383.291 380.335 384.252 380.345 384.251 C 380.356 384.251 380.848 383.773 381.439 383.19 L 382.514 382.129 L 382.792 382.13 L 383.07 382.131 L 381.995 383.193 L 380.921 384.254 L 381.981 385.299 L 383.042 386.344 L 382.796 386.362 L 382.551 386.38 L 382.418 386.265 C 382.345 386.203 381.922 385.787 381.477 385.341 L 380.668 384.532 L 380.51 384.689 L 380.352 384.846 L 380.352 385.213 C 380.352 385.415 380.344 385.759 380.335 385.978 L 380.319 386.377 L 380.133 386.377 L 379.947 386.377 L 379.947 383.178 L 379.947 383.177 Z M 384.587 386.34 C 384.344 386.283 384.145 386.205 383.961 386.096 C 383.484 385.813 383.183 385.439 383.004 384.907 C 382.853 384.461 382.876 383.896 383.061 383.45 C 383.311 382.85 383.866 382.359 384.486 382.189 C 384.71 382.128 385.174 382.114 385.425 382.161 C 385.91 382.253 386.358 382.515 386.664 382.885 C 386.793 383.04 386.976 383.353 386.951 383.374 C 386.944 383.38 386.773 383.478 386.572 383.594 C 386.222 383.794 385.373 384.283 384.201 384.959 C 383.89 385.138 383.664 385.284 383.664 385.305 C 383.664 385.325 383.746 385.424 383.847 385.524 C 384.161 385.837 384.525 385.98 385.004 385.982 C 385.698 385.983 386.275 385.64 386.555 385.059 C 386.618 384.928 386.688 384.753 386.711 384.669 L 386.752 384.518 L 386.956 384.41 L 387.159 384.303 L 387.142 384.448 C 387.111 384.712 387.049 384.919 386.926 385.175 C 386.662 385.722 386.183 386.127 385.592 386.305 C 385.367 386.372 384.808 386.391 384.587 386.34 Z M 384.033 384.602 C 384.352 384.42 384.919 384.093 385.295 383.877 C 385.67 383.661 386.073 383.43 386.189 383.364 C 386.306 383.298 386.412 383.234 386.425 383.22 C 386.456 383.19 386.109 382.881 385.901 382.755 C 385.418 382.461 384.782 382.428 384.281 382.669 C 383.836 382.884 383.509 383.268 383.356 383.757 C 383.292 383.961 383.269 384.355 383.309 384.56 C 383.337 384.708 383.419 384.935 383.444 384.935 C 383.45 384.935 383.715 384.785 384.033 384.602 Z" id="path24" fill-rule="nonzero" style="fill: rgb(209, 209, 211);" transform="matrix(1, 0, 0, 1, 0, -1.0658141036401503e-14)"/>
  <rect x="70" y="70" width="260" height="260" rx="5" ry="5" style="paint-order: fill; fill: none; stroke: rgb(209, 209, 211); stroke-width: 0.1px;" transform="matrix(1, 0, 0, 1, 0, -1.0658141036401503e-14)"/>
  <rect id="rect835" stroke="#000000" stroke-width="0.264787" stroke-linecap="round" width="400" height="400" style="fill: none; fill-rule: evenodd;" transform="matrix(1, 0, 0, 1, 0, -1.0658141036401503e-14)"/>
  <line style="fill: rgb(216, 216, 216); stroke-width: 0.1px; stroke: rgb(209, 209, 211); stroke-dasharray: 20;" x1="25" y1="10" x2="25" y2="400"/>
  <line style="fill: rgb(216, 216, 216); stroke-width: 0.1px; stroke: rgb(209, 209, 211); stroke-dasharray: 20;" x1="375" y1="10" x2="375" y2="360" transform="matrix(1, 0, 0, 1, -0.0000010000001111620804, 0)"/>
</svg>