<?xml version="1.0" encoding="utf-8"?>
<svg viewBox="0 0 230 250" width="230px" height="250px" xmlns="http://www.w3.org/2000/svg">
  <path d="M 242.541 323.167 L 241.056 323.167 L 240.749 324.259 L 240.31 324.259 L 241.684 319.569 L 241.906 319.569 L 243.286 324.259 L 242.851 324.259 Z M 241.17 322.764 L 242.43 322.764 L 241.811 320.603 L 241.798 320.43 L 241.785 320.603 Z M 244.89 319.906 Q 244.733 319.906 244.598 319.965 Q 244.462 320.024 244.361 320.125 Q 244.259 320.227 244.2 320.362 Q 244.141 320.498 244.141 320.655 L 244.141 320.845 L 243.72 320.776 L 243.72 320.655 Q 243.72 320.416 243.809 320.207 Q 243.899 319.998 244.056 319.841 Q 244.213 319.684 244.423 319.594 Q 244.632 319.504 244.871 319.504 L 245.07 319.504 Q 245.309 319.504 245.52 319.589 Q 245.731 319.674 245.888 319.834 Q 246.045 319.995 246.135 320.219 Q 246.225 320.443 246.225 320.724 Q 246.225 321.002 246.141 321.283 Q 246.058 321.564 245.922 321.836 Q 245.786 322.107 245.611 322.362 Q 245.436 322.617 245.253 322.843 Q 244.825 323.369 244.282 323.857 L 246.257 323.857 L 246.257 324.259 L 243.618 324.259 L 243.618 323.925 Q 244.23 323.422 244.71 322.882 Q 244.916 322.65 245.113 322.388 Q 245.309 322.127 245.463 321.85 Q 245.616 321.574 245.71 321.288 Q 245.803 321.002 245.803 320.724 Q 245.803 320.518 245.741 320.364 Q 245.678 320.21 245.574 320.109 Q 245.469 320.008 245.333 319.957 Q 245.198 319.906 245.051 319.906 Z M 249.569 323.173 Q 249.569 323.412 249.479 323.621 Q 249.389 323.831 249.232 323.988 Q 249.075 324.145 248.866 324.234 Q 248.656 324.324 248.418 324.324 L 248.218 324.324 Q 247.98 324.324 247.769 324.234 Q 247.558 324.145 247.401 323.988 Q 247.244 323.831 247.154 323.621 Q 247.064 323.412 247.064 323.173 L 247.064 323.101 L 247.486 323.101 L 247.486 323.173 Q 247.486 323.33 247.545 323.466 Q 247.603 323.602 247.706 323.705 Q 247.809 323.808 247.945 323.867 Q 248.081 323.925 248.238 323.925 L 248.398 323.925 Q 248.555 323.925 248.691 323.867 Q 248.827 323.808 248.928 323.705 Q 249.029 323.602 249.088 323.466 Q 249.147 323.33 249.147 323.173 L 249.147 322.264 Q 249.147 322.107 249.088 321.971 Q 249.029 321.836 248.928 321.733 Q 248.827 321.63 248.691 321.571 Q 248.555 321.512 248.398 321.512 L 248.238 321.512 Q 248.081 321.512 247.945 321.571 Q 247.809 321.63 247.706 321.733 Q 247.603 321.836 247.545 321.971 Q 247.486 322.107 247.486 322.264 L 247.064 322.264 L 247.332 319.569 L 249.337 319.569 L 249.337 319.972 L 247.728 319.972 L 247.574 321.414 Q 247.724 321.27 247.924 321.19 Q 248.123 321.11 248.352 321.11 L 248.418 321.11 Q 248.656 321.11 248.866 321.2 Q 249.075 321.29 249.232 321.447 Q 249.389 321.604 249.479 321.814 Q 249.569 322.025 249.569 322.264 L 249.569 323.173 Z M 252.918 323.173 Q 252.918 323.412 252.828 323.621 Q 252.738 323.831 252.581 323.988 Q 252.425 324.145 252.215 324.234 Q 252.006 324.324 251.767 324.324 L 251.568 324.324 Q 251.329 324.324 251.118 324.234 Q 250.907 324.145 250.75 323.988 Q 250.593 323.831 250.503 323.621 Q 250.413 323.412 250.413 323.173 L 250.413 320.655 Q 250.413 320.416 250.503 320.207 Q 250.593 319.998 250.75 319.841 Q 250.907 319.684 251.118 319.594 Q 251.329 319.504 251.568 319.504 L 251.767 319.504 Q 252.006 319.504 252.215 319.594 Q 252.425 319.684 252.581 319.841 Q 252.738 319.998 252.828 320.207 Q 252.918 320.416 252.918 320.655 L 252.918 323.173 Z M 252.496 320.655 Q 252.496 320.498 252.438 320.362 Q 252.379 320.227 252.277 320.125 Q 252.176 320.024 252.04 319.965 Q 251.905 319.906 251.748 319.906 L 251.587 319.906 Q 251.43 319.906 251.295 319.965 Q 251.159 320.024 251.056 320.125 Q 250.953 320.227 250.894 320.362 Q 250.835 320.498 250.835 320.655 L 250.835 323.173 Q 250.835 323.33 250.894 323.466 Q 250.953 323.602 251.056 323.705 Q 251.159 323.808 251.295 323.867 Q 251.43 323.925 251.587 323.925 L 251.748 323.925 Q 251.905 323.925 252.04 323.867 Q 252.176 323.808 252.277 323.705 Q 252.379 323.602 252.438 323.466 Q 252.496 323.33 252.496 323.173 Z" transform="matrix(2.143394, 0, 0, 2.388948, -364.780457, -558.932434)" style="fill: rgb(209, 209, 211);"/>
  <path d="M 255.033 324.661 L 256.901 319.17 L 257.323 319.17 L 255.455 324.661 Z M 262.171 323.108 Q 262.171 323.347 262.081 323.556 Q 261.991 323.765 261.834 323.922 Q 261.677 324.079 261.466 324.169 Q 261.255 324.259 261.017 324.259 L 259.532 324.259 L 259.532 319.569 L 261.017 319.569 Q 261.255 319.569 261.466 319.659 Q 261.677 319.749 261.834 319.906 Q 261.991 320.063 262.081 320.274 Q 262.171 320.485 262.171 320.724 L 262.171 323.108 Z M 261.749 320.724 Q 261.749 320.567 261.69 320.431 Q 261.632 320.295 261.529 320.192 Q 261.426 320.089 261.29 320.031 Q 261.154 319.972 260.997 319.972 L 259.954 319.972 L 259.954 323.857 L 260.997 323.857 Q 261.154 323.857 261.29 323.798 Q 261.426 323.739 261.529 323.638 Q 261.632 323.536 261.69 323.401 Q 261.749 323.265 261.749 323.108 Z M 265.143 324.259 L 264.92 323.919 Q 264.783 324.105 264.577 324.215 Q 264.371 324.324 264.126 324.324 L 264.024 324.324 Q 263.822 324.324 263.642 324.248 Q 263.462 324.171 263.328 324.037 Q 263.194 323.903 263.117 323.723 Q 263.04 323.543 263.04 323.34 L 263.04 320.91 L 263.442 320.91 L 263.442 323.363 Q 263.442 323.484 263.488 323.59 Q 263.534 323.697 263.612 323.775 Q 263.691 323.853 263.797 323.899 Q 263.903 323.945 264.024 323.945 L 264.293 323.945 Q 264.414 323.945 264.52 323.899 Q 264.626 323.853 264.705 323.775 Q 264.783 323.697 264.829 323.59 Q 264.875 323.484 264.875 323.363 L 264.875 320.91 L 265.277 320.91 L 265.277 324.259 Z M 268.182 324.259 L 267.96 323.925 Q 267.823 324.105 267.617 324.215 Q 267.411 324.324 267.165 324.324 L 267.064 324.324 Q 266.861 324.324 266.681 324.248 Q 266.502 324.171 266.367 324.037 Q 266.233 323.903 266.156 323.723 Q 266.08 323.543 266.08 323.34 L 266.08 323.307 Q 266.08 323.105 266.156 322.925 Q 266.233 322.745 266.367 322.611 Q 266.502 322.477 266.681 322.4 Q 266.861 322.323 267.064 322.323 L 267.914 322.323 L 267.914 321.806 Q 267.914 321.685 267.868 321.579 Q 267.823 321.473 267.744 321.394 Q 267.666 321.316 267.559 321.27 Q 267.453 321.224 267.332 321.224 L 267.097 321.224 Q 266.976 321.224 266.869 321.27 Q 266.763 321.316 266.685 321.394 Q 266.606 321.473 266.56 321.579 Q 266.515 321.685 266.515 321.806 L 266.515 321.927 L 266.112 321.862 L 266.112 321.829 Q 266.112 321.626 266.189 321.447 Q 266.266 321.267 266.4 321.133 Q 266.534 320.999 266.714 320.922 Q 266.894 320.845 267.097 320.845 L 267.332 320.845 Q 267.535 320.845 267.715 320.922 Q 267.895 320.999 268.029 321.133 Q 268.163 321.267 268.24 321.447 Q 268.317 321.626 268.317 321.829 L 268.317 324.259 Z M 267.914 322.637 L 267.064 322.637 Q 266.943 322.637 266.837 322.683 Q 266.73 322.729 266.652 322.809 Q 266.573 322.889 266.528 322.995 Q 266.482 323.101 266.482 323.222 L 266.482 323.363 Q 266.482 323.484 266.528 323.59 Q 266.573 323.697 266.652 323.775 Q 266.73 323.853 266.837 323.899 Q 266.943 323.945 267.064 323.945 L 267.332 323.945 Q 267.453 323.945 267.559 323.899 Q 267.666 323.853 267.744 323.775 Q 267.823 323.697 267.868 323.59 Q 267.914 323.484 267.914 323.363 Z M 269.253 324.259 L 269.253 319.569 L 269.656 319.569 L 269.656 324.259 Z" transform="matrix(2.143394, 0, 0, 2.388948, -364.780457, -558.932434)" style="fill: rgb(209, 209, 211);"/>
  <path d="M 188.471 227.345 C 188.472 226.695 188.481 225.645 188.491 225.012 L 188.509 223.862 L 188.591 223.622 C 188.785 223.057 189.151 222.635 189.674 222.373 C 190.279 222.071 191.053 222.089 191.639 222.418 C 192.148 222.705 192.533 223.217 192.668 223.786 C 192.713 223.978 192.72 224.067 192.71 224.355 C 192.7 224.654 192.689 224.726 192.619 224.933 C 192.38 225.637 191.822 226.158 191.111 226.342 C 190.845 226.411 190.339 226.407 190.083 226.333 C 189.828 226.26 189.633 226.173 189.451 226.049 C 189.37 225.993 189.298 225.948 189.291 225.948 C 189.283 225.948 189.278 226.528 189.278 227.237 L 189.278 228.527 L 188.873 228.527 L 188.468 228.527 L 188.471 227.345 Z M 190.9 225.557 C 191.619 225.405 192.076 224.674 191.893 223.969 C 191.778 223.524 191.464 223.186 191.029 223.036 C 190.813 222.962 190.428 222.956 190.213 223.023 C 189.667 223.192 189.302 223.699 189.303 224.287 C 189.306 225.134 190.061 225.735 190.9 225.557 Z M 185.644 226.403 C 185.169 226.337 184.774 226.148 184.44 225.825 C 183.836 225.242 183.627 224.384 183.893 223.589 C 184.007 223.249 184.142 223.037 184.42 222.762 C 184.81 222.376 185.225 222.191 185.763 222.163 C 186.235 222.138 186.655 222.243 187.003 222.472 L 187.204 222.604 L 187.204 222.439 L 187.204 222.275 L 187.322 222.291 C 187.386 222.3 187.574 222.307 187.739 222.307 L 188.039 222.307 L 188.039 224.342 L 188.039 226.378 L 187.621 226.378 L 187.204 226.378 L 187.204 226.165 L 187.204 225.952 L 187.034 226.067 C 186.815 226.214 186.651 226.285 186.39 226.349 C 186.134 226.411 185.854 226.432 185.644 226.403 Z M 186.32 225.523 C 186.557 225.44 186.678 225.366 186.84 225.204 C 187.247 224.797 187.33 224.175 187.048 223.642 C 186.844 223.258 186.348 222.965 185.902 222.965 C 185.722 222.965 185.445 223.029 185.283 223.108 C 185.11 223.192 184.831 223.465 184.745 223.636 C 184.54 224.04 184.54 224.518 184.744 224.922 C 184.886 225.201 185.26 225.481 185.593 225.557 C 185.795 225.604 186.135 225.587 186.32 225.523 Z M 202.073 226.402 C 201.185 226.28 200.472 225.626 200.261 224.743 C 200.2 224.486 200.206 224.043 200.274 223.774 C 200.448 223.086 200.954 222.521 201.61 222.283 C 202.191 222.071 202.878 222.129 203.399 222.435 C 203.613 222.56 203.757 222.675 203.949 222.876 L 204.094 223.027 L 204.095 222.654 L 204.095 222.282 L 204.285 222.282 L 204.474 222.282 L 204.474 224.342 L 204.474 226.403 L 204.285 226.403 L 204.095 226.403 L 204.095 225.967 L 204.094 225.531 L 203.975 225.668 C 203.802 225.866 203.516 226.085 203.278 226.2 C 202.926 226.37 202.438 226.452 202.074 226.402 L 202.073 226.402 Z M 202.877 225.941 C 203.826 225.605 204.319 224.565 203.969 223.639 C 203.735 223.023 203.112 222.579 202.426 222.542 C 202.108 222.525 201.874 222.575 201.568 222.727 C 201.163 222.927 200.812 223.329 200.678 223.748 C 200.603 223.981 200.586 224.392 200.641 224.64 C 200.782 225.274 201.316 225.829 201.934 225.985 C 202.176 226.045 202.643 226.024 202.877 225.941 Z M 212.666 226.407 C 212.632 226.396 212.633 224.193 212.667 223.981 C 212.825 223.01 213.616 222.242 214.539 222.165 L 214.74 222.148 L 214.74 222.246 C 214.74 222.301 214.747 222.387 214.756 222.44 L 214.772 222.534 L 214.674 222.535 C 214.498 222.536 214.226 222.607 214.038 222.702 C 213.679 222.883 213.288 223.285 213.171 223.594 C 213.054 223.903 213.046 224.013 213.046 225.242 C 213.046 225.88 213.037 226.404 213.027 226.404 C 212.898 226.412 212.686 226.414 212.666 226.407 Z M 176.294 226.366 C 175.888 226.301 175.219 226.077 175.219 226.005 C 175.219 225.954 175.443 225.439 175.488 225.389 C 175.52 225.352 175.542 225.355 175.725 225.42 C 175.991 225.514 176.542 225.594 176.926 225.593 C 177.423 225.593 177.75 225.495 177.935 225.29 C 178.039 225.174 178.05 225.092 177.975 224.986 C 177.868 224.837 177.644 224.769 176.939 224.67 C 176.236 224.572 175.769 224.392 175.457 224.098 C 175.224 223.877 175.123 223.593 175.171 223.29 C 175.253 222.772 175.666 222.402 176.37 222.215 C 176.598 222.154 176.668 222.147 177.09 222.146 C 177.439 222.145 177.622 222.156 177.811 222.19 C 178.213 222.263 178.734 222.443 178.734 222.508 C 178.734 222.57 178.47 223.167 178.443 223.167 C 178.425 223.167 178.369 223.149 178.317 223.127 C 178.163 223.063 177.781 222.992 177.422 222.962 C 177.053 222.931 176.651 222.958 176.41 223.029 C 176.155 223.105 176.026 223.295 176.114 223.466 C 176.213 223.655 176.489 223.765 177.148 223.876 C 177.74 223.975 177.922 224.017 178.13 224.102 C 178.375 224.201 178.528 224.297 178.662 224.435 C 179.053 224.836 179.023 225.428 178.591 225.857 C 178.365 226.082 177.935 226.289 177.537 226.365 C 177.293 226.412 176.585 226.412 176.294 226.366 Z M 179.252 225.335 C 179.27 223.969 179.271 223.951 179.378 223.632 C 179.652 222.813 180.201 222.342 181.057 222.192 C 182.127 222.005 183.112 222.636 183.423 223.708 L 183.487 223.931 L 183.487 225.167 L 183.487 226.403 L 183.095 226.403 L 182.703 226.403 L 182.703 225.246 C 182.703 224.116 182.701 224.086 182.646 223.924 C 182.451 223.351 181.932 222.964 181.36 222.964 C 180.999 222.964 180.763 223.058 180.509 223.302 C 180.284 223.518 180.167 223.703 180.1 223.953 C 180.044 224.159 180.044 224.18 180.058 225.283 L 180.072 226.403 L 179.655 226.403 L 179.239 226.403 L 179.252 225.335 Z M 193.44 225.006 C 193.455 223.533 193.462 223.446 193.581 223.168 C 193.659 222.986 193.846 222.724 193.996 222.587 C 194.289 222.319 194.635 222.184 195.081 222.162 C 195.41 222.146 195.646 222.198 195.939 222.352 C 196.149 222.463 196.431 222.719 196.555 222.912 C 196.629 223.027 196.647 223.043 196.671 223.009 C 196.946 222.618 197.111 222.467 197.423 222.321 C 198.329 221.896 199.406 222.324 199.722 223.234 C 199.842 223.579 199.847 223.648 199.847 225.065 L 199.847 226.403 L 199.645 226.403 L 199.442 226.403 L 199.442 225.017 C 199.442 223.503 199.443 223.52 199.29 223.217 C 199.043 222.729 198.441 222.451 197.884 222.568 C 197.424 222.665 197.094 222.958 196.912 223.431 L 196.843 223.609 L 196.833 224.979 C 196.828 225.733 196.815 226.359 196.803 226.37 C 196.792 226.381 196.707 226.39 196.614 226.39 L 196.446 226.39 L 196.433 224.974 C 196.421 223.592 196.419 223.555 196.365 223.411 C 196.28 223.186 196.197 223.061 196.03 222.906 C 195.61 222.518 195.022 222.428 194.53 222.677 C 194.366 222.76 194.066 223.06 193.975 223.232 C 193.832 223.5 193.829 223.536 193.829 225.03 L 193.829 226.403 L 193.627 226.403 L 193.426 226.403 L 193.44 225.006 Z M 205.106 223.204 L 205.106 220.006 L 205.296 220.006 L 205.485 220.006 L 205.485 222.143 C 205.485 223.318 205.494 224.279 205.504 224.278 C 205.515 224.278 206.007 223.8 206.598 223.217 L 207.673 222.156 L 207.951 222.157 L 208.229 222.158 L 207.154 223.22 L 206.08 224.281 L 207.14 225.326 L 208.201 226.371 L 207.955 226.389 L 207.71 226.407 L 207.577 226.292 C 207.504 226.23 207.081 225.814 206.636 225.368 L 205.827 224.559 L 205.669 224.716 L 205.511 224.873 L 205.511 225.24 C 205.511 225.442 205.503 225.786 205.494 226.005 L 205.478 226.404 L 205.292 226.404 L 205.106 226.404 L 205.106 223.205 L 205.106 223.204 Z M 209.746 226.367 C 209.503 226.31 209.304 226.232 209.12 226.123 C 208.643 225.84 208.342 225.466 208.163 224.934 C 208.012 224.488 208.035 223.923 208.22 223.477 C 208.47 222.877 209.025 222.386 209.645 222.216 C 209.869 222.155 210.333 222.141 210.584 222.188 C 211.069 222.28 211.517 222.542 211.823 222.912 C 211.952 223.067 212.135 223.38 212.11 223.401 C 212.103 223.407 211.932 223.505 211.731 223.621 C 211.381 223.821 210.532 224.31 209.36 224.986 C 209.049 225.165 208.823 225.311 208.823 225.332 C 208.823 225.352 208.905 225.451 209.006 225.551 C 209.32 225.864 209.684 226.007 210.163 226.009 C 210.857 226.01 211.434 225.667 211.714 225.086 C 211.777 224.955 211.847 224.78 211.87 224.696 L 211.911 224.545 L 212.115 224.437 L 212.318 224.33 L 212.301 224.475 C 212.27 224.739 212.208 224.946 212.085 225.202 C 211.821 225.749 211.342 226.154 210.751 226.332 C 210.526 226.399 209.967 226.418 209.746 226.367 Z M 209.192 224.629 C 209.511 224.447 210.078 224.12 210.454 223.904 C 210.829 223.688 211.232 223.457 211.348 223.391 C 211.465 223.325 211.571 223.261 211.584 223.247 C 211.615 223.217 211.268 222.908 211.06 222.782 C 210.577 222.488 209.941 222.455 209.44 222.696 C 208.995 222.911 208.668 223.295 208.515 223.784 C 208.451 223.988 208.428 224.382 208.468 224.587 C 208.496 224.735 208.578 224.962 208.603 224.962 C 208.609 224.962 208.874 224.812 209.192 224.629 Z" id="path24" fill-rule="nonzero" style="fill: rgb(209, 209, 211);"/>
  <path d="M 189.059 31.342 Q 189.059 31.568 188.978 31.767 Q 188.898 31.967 188.756 32.119 Q 188.614 32.27 188.422 32.365 Q 188.23 32.46 188.011 32.476 L 188.434 33.427 L 188.018 33.427 L 187.596 32.476 Q 187.36 32.476 187.153 32.388 Q 186.945 32.299 186.79 32.145 Q 186.635 31.99 186.547 31.784 Q 186.458 31.577 186.458 31.342 L 186.458 28.861 Q 186.458 28.625 186.547 28.419 Q 186.635 28.213 186.79 28.058 Q 186.945 27.904 187.153 27.815 Q 187.36 27.726 187.596 27.726 L 187.924 27.726 Q 188.16 27.726 188.366 27.815 Q 188.572 27.904 188.727 28.058 Q 188.881 28.213 188.97 28.419 Q 189.059 28.625 189.059 28.861 L 189.059 31.342 Z M 188.643 28.861 Q 188.643 28.706 188.585 28.572 Q 188.527 28.438 188.427 28.339 Q 188.327 28.239 188.193 28.181 Q 188.06 28.123 187.905 28.123 L 187.615 28.123 Q 187.46 28.123 187.327 28.181 Q 187.193 28.239 187.091 28.339 Q 186.99 28.438 186.932 28.572 Q 186.874 28.706 186.874 28.861 L 186.874 31.342 Q 186.874 31.497 186.932 31.631 Q 186.99 31.764 187.091 31.866 Q 187.193 31.967 187.327 32.025 Q 187.46 32.083 187.615 32.083 L 187.905 32.083 Q 188.06 32.083 188.193 32.025 Q 188.327 31.967 188.427 31.866 Q 188.527 31.764 188.585 31.631 Q 188.643 31.497 188.643 31.342 Z M 191.989 32.412 L 191.77 32.077 Q 191.635 32.261 191.432 32.368 Q 191.229 32.476 190.987 32.476 L 190.887 32.476 Q 190.687 32.476 190.51 32.401 Q 190.333 32.325 190.201 32.193 Q 190.068 32.061 189.993 31.883 Q 189.917 31.706 189.917 31.506 L 189.917 29.112 L 190.313 29.112 L 190.313 31.529 Q 190.313 31.648 190.359 31.753 Q 190.404 31.858 190.481 31.935 Q 190.558 32.012 190.663 32.058 Q 190.768 32.103 190.887 32.103 L 191.151 32.103 Q 191.271 32.103 191.375 32.058 Q 191.48 32.012 191.557 31.935 Q 191.635 31.858 191.68 31.753 Q 191.725 31.648 191.725 31.529 L 191.725 29.112 L 192.121 29.112 L 192.121 32.412 Z M 193.009 28.319 L 193.009 27.791 L 193.47 27.791 L 193.47 28.319 Z M 193.041 32.412 L 193.041 29.112 L 193.438 29.112 L 193.438 32.412 Z M 196.567 31.506 Q 196.567 31.706 196.491 31.883 Q 196.415 32.061 196.283 32.193 Q 196.151 32.325 195.974 32.401 Q 195.796 32.476 195.597 32.476 L 195.332 32.476 Q 195.133 32.476 194.955 32.401 Q 194.778 32.325 194.646 32.193 Q 194.514 32.061 194.438 31.883 Q 194.362 31.706 194.362 31.506 L 194.362 30.018 Q 194.362 29.818 194.438 29.641 Q 194.514 29.463 194.646 29.331 Q 194.778 29.199 194.955 29.123 Q 195.133 29.048 195.332 29.048 L 195.597 29.048 Q 195.796 29.048 195.974 29.123 Q 196.151 29.199 196.283 29.331 Q 196.415 29.463 196.491 29.641 Q 196.567 29.818 196.567 30.018 L 196.567 30.15 L 196.17 30.214 L 196.17 29.995 Q 196.17 29.876 196.125 29.771 Q 196.08 29.666 196.003 29.589 Q 195.925 29.512 195.821 29.466 Q 195.716 29.421 195.597 29.421 L 195.332 29.421 Q 195.213 29.421 195.108 29.466 Q 195.004 29.512 194.926 29.589 Q 194.849 29.666 194.804 29.771 Q 194.759 29.876 194.759 29.995 L 194.759 31.529 Q 194.759 31.648 194.804 31.753 Q 194.849 31.858 194.926 31.935 Q 195.004 32.012 195.108 32.058 Q 195.213 32.103 195.332 32.103 L 195.597 32.103 Q 195.716 32.103 195.821 32.058 Q 195.925 32.012 196.003 31.935 Q 196.08 31.858 196.125 31.753 Q 196.17 31.648 196.17 31.529 L 196.17 31.31 L 196.567 31.374 L 196.567 31.506 Z M 199.284 32.412 L 197.937 30.762 L 199.284 29.112 L 199.8 29.112 L 198.42 30.762 L 199.8 32.412 Z M 197.463 32.412 L 197.463 27.791 L 197.86 27.791 L 197.86 32.412 Z M 204.481 31.342 Q 204.481 31.577 204.386 31.784 Q 204.29 31.99 204.131 32.145 Q 203.971 32.299 203.76 32.388 Q 203.549 32.476 203.314 32.476 L 202.982 32.476 Q 202.747 32.476 202.536 32.388 Q 202.325 32.299 202.165 32.145 Q 202.006 31.99 201.911 31.784 Q 201.815 31.577 201.815 31.342 L 201.815 31.158 L 202.231 31.091 L 202.231 31.342 Q 202.231 31.497 202.294 31.631 Q 202.357 31.764 202.463 31.866 Q 202.57 31.967 202.71 32.025 Q 202.85 32.083 203.005 32.083 L 203.295 32.083 Q 203.449 32.083 203.588 32.025 Q 203.726 31.967 203.833 31.866 Q 203.939 31.764 204.002 31.631 Q 204.065 31.497 204.065 31.342 L 204.065 31.204 Q 204.065 30.965 203.971 30.807 Q 203.878 30.649 203.723 30.538 Q 203.569 30.427 203.374 30.349 Q 203.179 30.272 202.972 30.195 Q 202.766 30.117 202.571 30.024 Q 202.376 29.931 202.222 29.79 Q 202.067 29.65 201.973 29.447 Q 201.88 29.244 201.88 28.948 L 201.88 28.861 Q 201.88 28.625 201.969 28.419 Q 202.057 28.213 202.212 28.058 Q 202.367 27.904 202.574 27.815 Q 202.782 27.726 203.018 27.726 L 203.314 27.726 Q 203.549 27.726 203.755 27.815 Q 203.962 27.904 204.116 28.058 Q 204.271 28.213 204.36 28.419 Q 204.448 28.625 204.448 28.861 L 204.448 28.98 L 204.033 29.048 L 204.033 28.861 Q 204.033 28.706 203.975 28.572 Q 203.917 28.438 203.817 28.339 Q 203.717 28.239 203.583 28.181 Q 203.449 28.123 203.295 28.123 L 203.037 28.123 Q 202.882 28.123 202.748 28.181 Q 202.615 28.239 202.513 28.339 Q 202.412 28.438 202.354 28.572 Q 202.296 28.706 202.296 28.861 L 202.296 28.948 Q 202.296 29.17 202.389 29.321 Q 202.483 29.473 202.637 29.581 Q 202.792 29.689 202.987 29.768 Q 203.182 29.847 203.388 29.929 Q 203.594 30.011 203.789 30.109 Q 203.984 30.208 204.139 30.351 Q 204.294 30.495 204.387 30.701 Q 204.481 30.907 204.481 31.204 Z M 208.015 32.412 L 207.799 32.412 L 207.026 29.924 L 207.013 29.753 L 207 29.924 L 206.227 32.412 L 206.008 32.412 L 204.905 29.112 L 205.308 29.112 L 206.095 31.606 L 206.107 31.777 L 206.12 31.606 L 206.894 29.112 L 207.132 29.112 L 207.902 31.606 L 207.915 31.777 L 207.928 31.606 L 208.715 29.112 L 209.117 29.112 Z M 211.653 32.412 L 211.434 32.083 Q 211.299 32.261 211.096 32.368 Q 210.893 32.476 210.651 32.476 L 210.551 32.476 Q 210.351 32.476 210.174 32.401 Q 209.997 32.325 209.865 32.193 Q 209.733 32.061 209.657 31.883 Q 209.581 31.706 209.581 31.506 L 209.581 31.474 Q 209.581 31.274 209.657 31.097 Q 209.733 30.92 209.865 30.788 Q 209.997 30.656 210.174 30.58 Q 210.351 30.504 210.551 30.504 L 211.389 30.504 L 211.389 29.995 Q 211.389 29.876 211.344 29.771 Q 211.299 29.666 211.221 29.589 Q 211.144 29.512 211.039 29.466 Q 210.935 29.421 210.815 29.421 L 210.583 29.421 Q 210.464 29.421 210.359 29.466 Q 210.255 29.512 210.177 29.589 Q 210.1 29.666 210.055 29.771 Q 210.01 29.876 210.01 29.995 L 210.01 30.114 L 209.613 30.05 L 209.613 30.018 Q 209.613 29.818 209.689 29.641 Q 209.765 29.463 209.897 29.331 Q 210.029 29.199 210.206 29.123 Q 210.384 29.048 210.583 29.048 L 210.815 29.048 Q 211.015 29.048 211.192 29.123 Q 211.37 29.199 211.502 29.331 Q 211.634 29.463 211.71 29.641 Q 211.785 29.818 211.785 30.018 L 211.785 32.412 Z M 211.389 30.814 L 210.551 30.814 Q 210.432 30.814 210.327 30.859 Q 210.222 30.904 210.145 30.983 Q 210.068 31.062 210.023 31.166 Q 209.977 31.271 209.977 31.39 L 209.977 31.529 Q 209.977 31.648 210.023 31.753 Q 210.068 31.858 210.145 31.935 Q 210.222 32.012 210.327 32.058 Q 210.432 32.103 210.551 32.103 L 210.815 32.103 Q 210.935 32.103 211.039 32.058 Q 211.144 32.012 211.221 31.935 Q 211.299 31.858 211.344 31.753 Q 211.389 31.648 211.389 31.529 Z M 214.785 31.506 Q 214.785 31.706 214.71 31.883 Q 214.634 32.061 214.502 32.193 Q 214.37 32.325 214.192 32.401 Q 214.015 32.476 213.815 32.476 L 213.715 32.476 Q 213.493 32.476 213.303 32.386 Q 213.113 32.296 212.977 32.135 L 212.977 33.733 L 212.581 33.733 L 212.581 29.112 L 212.713 29.112 L 212.929 29.447 Q 213.064 29.263 213.269 29.156 Q 213.474 29.048 213.715 29.048 L 213.815 29.048 Q 214.015 29.048 214.192 29.123 Q 214.37 29.199 214.502 29.331 Q 214.634 29.463 214.71 29.641 Q 214.785 29.818 214.785 30.018 L 214.785 31.506 Z M 214.389 29.995 Q 214.389 29.876 214.344 29.771 Q 214.299 29.666 214.221 29.589 Q 214.144 29.512 214.039 29.466 Q 213.935 29.421 213.815 29.421 L 213.551 29.421 Q 213.432 29.421 213.327 29.466 Q 213.222 29.512 213.145 29.589 Q 213.068 29.666 213.023 29.771 Q 212.977 29.876 212.977 29.995 L 212.977 31.529 Q 212.977 31.648 213.023 31.753 Q 213.068 31.858 213.145 31.935 Q 213.222 32.012 213.327 32.058 Q 213.432 32.103 213.551 32.103 L 213.815 32.103 Q 213.935 32.103 214.039 32.058 Q 214.144 32.012 214.221 31.935 Q 214.299 31.858 214.344 31.753 Q 214.389 31.648 214.389 31.529 Z M 219.485 32.412 L 217.744 30.101 L 219.485 27.791 L 220 27.791 L 218.225 30.101 L 220 32.412 Z M 217.229 32.412 L 217.229 27.791 L 217.645 27.791 L 217.645 32.412 Z M 220.626 28.319 L 220.626 27.791 L 221.087 27.791 L 221.087 28.319 Z M 220.659 32.412 L 220.659 29.112 L 221.055 29.112 L 221.055 32.412 Z M 223.182 32.412 Q 223.001 32.412 222.842 32.344 Q 222.682 32.277 222.564 32.157 Q 222.447 32.038 222.378 31.88 Q 222.308 31.722 222.308 31.542 L 222.308 29.489 L 221.715 29.489 L 221.715 29.112 L 222.308 29.112 L 222.308 28.319 L 222.705 28.255 L 222.705 29.112 L 223.543 29.112 L 223.543 29.489 L 222.705 29.489 L 222.705 31.561 Q 222.705 31.661 222.742 31.747 Q 222.779 31.832 222.843 31.896 Q 222.908 31.961 222.995 31.998 Q 223.082 32.035 223.182 32.035 L 223.543 32.035 L 223.543 32.412 Z" style="fill: rgb(255, 0, 0);"/>
  <line x1="0" y1="25" x2="230" y2="25" id="line-2" style="paint-order: fill; stroke-dasharray: 2px; stroke: rgb(255, 0, 0); stroke-width: 0.1px;"/>
  <path d="M 199.58 17.278 Q 199.58 17.513 199.491 17.719 Q 199.402 17.925 199.248 18.08 Q 199.093 18.235 198.885 18.323 Q 198.677 18.412 198.442 18.412 L 196.979 18.412 L 196.979 13.791 L 198.442 13.791 Q 198.677 13.791 198.885 13.879 Q 199.093 13.968 199.248 14.123 Q 199.402 14.277 199.491 14.485 Q 199.58 14.693 199.58 14.928 L 199.58 14.973 Q 199.58 15.138 199.536 15.288 Q 199.493 15.437 199.412 15.566 Q 199.331 15.695 199.222 15.8 Q 199.112 15.905 198.977 15.976 Q 199.112 16.047 199.222 16.151 Q 199.331 16.256 199.412 16.387 Q 199.493 16.517 199.536 16.667 Q 199.58 16.817 199.58 16.981 L 199.58 17.278 Z M 199.164 16.913 Q 199.164 16.759 199.106 16.625 Q 199.048 16.491 198.946 16.391 Q 198.845 16.291 198.711 16.233 Q 198.577 16.175 198.423 16.175 L 197.395 16.175 L 197.395 18.016 L 198.423 18.016 Q 198.577 18.016 198.711 17.958 Q 198.845 17.9 198.946 17.8 Q 199.048 17.7 199.106 17.566 Q 199.164 17.432 199.164 17.278 Z M 199.164 14.928 Q 199.164 14.774 199.106 14.64 Q 199.048 14.506 198.946 14.405 Q 198.845 14.303 198.711 14.245 Q 198.577 14.187 198.423 14.187 L 197.395 14.187 L 197.395 15.779 L 198.423 15.779 Q 198.577 15.779 198.711 15.721 Q 198.845 15.663 198.946 15.562 Q 199.048 15.46 199.106 15.326 Q 199.164 15.193 199.164 15.038 Z M 201.207 15.489 Q 201.088 15.489 200.983 15.534 Q 200.879 15.579 200.801 15.657 Q 200.724 15.734 200.679 15.839 Q 200.634 15.943 200.634 16.063 L 200.634 18.412 L 200.237 18.412 L 200.237 15.112 L 200.369 15.112 L 200.585 15.447 Q 200.721 15.263 200.925 15.156 Q 201.13 15.048 201.372 15.048 L 201.604 15.048 L 201.604 15.489 Z M 204.2 18.412 L 203.981 18.083 Q 203.846 18.261 203.643 18.368 Q 203.44 18.476 203.198 18.476 L 203.098 18.476 Q 202.898 18.476 202.721 18.401 Q 202.544 18.325 202.412 18.193 Q 202.279 18.061 202.204 17.883 Q 202.128 17.706 202.128 17.506 L 202.128 17.474 Q 202.128 17.274 202.204 17.097 Q 202.279 16.92 202.412 16.788 Q 202.544 16.656 202.721 16.58 Q 202.898 16.504 203.098 16.504 L 203.936 16.504 L 203.936 15.995 Q 203.936 15.876 203.891 15.771 Q 203.846 15.666 203.768 15.589 Q 203.691 15.512 203.586 15.466 Q 203.481 15.421 203.362 15.421 L 203.13 15.421 Q 203.011 15.421 202.906 15.466 Q 202.801 15.512 202.724 15.589 Q 202.647 15.666 202.602 15.771 Q 202.557 15.876 202.557 15.995 L 202.557 16.114 L 202.16 16.05 L 202.16 16.018 Q 202.16 15.818 202.236 15.641 Q 202.312 15.463 202.444 15.331 Q 202.576 15.199 202.753 15.123 Q 202.93 15.048 203.13 15.048 L 203.362 15.048 Q 203.562 15.048 203.739 15.123 Q 203.917 15.199 204.049 15.331 Q 204.181 15.463 204.257 15.641 Q 204.332 15.818 204.332 16.018 L 204.332 18.412 Z M 203.936 16.814 L 203.098 16.814 Q 202.979 16.814 202.874 16.859 Q 202.769 16.904 202.692 16.983 Q 202.615 17.062 202.569 17.166 Q 202.524 17.271 202.524 17.39 L 202.524 17.529 Q 202.524 17.648 202.569 17.753 Q 202.615 17.858 202.692 17.935 Q 202.769 18.012 202.874 18.058 Q 202.979 18.103 203.098 18.103 L 203.362 18.103 Q 203.481 18.103 203.586 18.058 Q 203.691 18.012 203.768 17.935 Q 203.846 17.858 203.891 17.753 Q 203.936 17.648 203.936 17.529 Z M 207.332 17.506 Q 207.332 17.706 207.257 17.883 Q 207.181 18.061 207.049 18.193 Q 206.917 18.325 206.739 18.401 Q 206.562 18.476 206.362 18.476 L 206.098 18.476 Q 205.898 18.476 205.721 18.401 Q 205.544 18.325 205.412 18.193 Q 205.279 18.061 205.204 17.883 Q 205.128 17.706 205.128 17.506 L 205.128 16.018 Q 205.128 15.818 205.204 15.641 Q 205.279 15.463 205.412 15.331 Q 205.544 15.199 205.721 15.123 Q 205.898 15.048 206.098 15.048 L 206.362 15.048 Q 206.562 15.048 206.739 15.123 Q 206.917 15.199 207.049 15.331 Q 207.181 15.463 207.257 15.641 Q 207.332 15.818 207.332 16.018 L 207.332 16.15 L 206.936 16.214 L 206.936 15.995 Q 206.936 15.876 206.891 15.771 Q 206.846 15.666 206.768 15.589 Q 206.691 15.512 206.586 15.466 Q 206.481 15.421 206.362 15.421 L 206.098 15.421 Q 205.979 15.421 205.874 15.466 Q 205.769 15.512 205.692 15.589 Q 205.615 15.666 205.569 15.771 Q 205.524 15.876 205.524 15.995 L 205.524 17.529 Q 205.524 17.648 205.569 17.753 Q 205.615 17.858 205.692 17.935 Q 205.769 18.012 205.874 18.058 Q 205.979 18.103 206.098 18.103 L 206.362 18.103 Q 206.481 18.103 206.586 18.058 Q 206.691 18.012 206.768 17.935 Q 206.846 17.858 206.891 17.753 Q 206.936 17.648 206.936 17.529 L 206.936 17.31 L 207.332 17.374 L 207.332 17.506 Z M 208.228 14.319 L 208.228 13.791 L 208.689 13.791 L 208.689 14.319 Z M 208.26 18.412 L 208.26 15.112 L 208.656 15.112 L 208.656 18.412 Z M 211.389 18.412 L 211.389 15.995 Q 211.389 15.876 211.344 15.771 Q 211.299 15.666 211.221 15.589 Q 211.144 15.512 211.039 15.466 Q 210.935 15.421 210.815 15.421 L 210.551 15.421 Q 210.432 15.421 210.327 15.466 Q 210.222 15.512 210.145 15.589 Q 210.068 15.666 210.023 15.771 Q 209.977 15.876 209.977 15.995 L 209.977 18.412 L 209.581 18.412 L 209.581 15.112 L 209.713 15.112 L 209.929 15.447 Q 210.064 15.263 210.269 15.156 Q 210.474 15.048 210.715 15.048 L 210.815 15.048 Q 211.015 15.048 211.192 15.123 Q 211.37 15.199 211.502 15.331 Q 211.634 15.463 211.71 15.641 Q 211.785 15.818 211.785 16.018 L 211.785 18.412 Z M 214.81 18.828 Q 214.81 19.028 214.734 19.195 Q 214.658 19.363 214.526 19.482 Q 214.394 19.601 214.217 19.667 Q 214.04 19.733 213.84 19.733 L 213.675 19.733 Q 213.476 19.733 213.298 19.667 Q 213.121 19.601 212.989 19.482 Q 212.857 19.363 212.781 19.195 Q 212.705 19.028 212.705 18.828 L 212.705 18.815 Q 212.705 18.621 212.776 18.46 Q 212.847 18.299 212.97 18.18 Q 212.815 18.087 212.723 17.927 Q 212.631 17.767 212.631 17.574 Q 212.631 17.4 212.705 17.25 Q 212.78 17.1 212.908 17.007 Q 212.754 16.872 212.664 16.681 Q 212.573 16.491 212.573 16.266 L 212.573 16.018 Q 212.573 15.818 212.649 15.641 Q 212.725 15.463 212.857 15.331 Q 212.989 15.199 213.166 15.123 Q 213.343 15.048 213.543 15.048 L 213.708 15.048 Q 213.949 15.048 214.154 15.156 Q 214.359 15.263 214.494 15.447 L 214.71 15.112 L 214.842 15.112 L 214.842 16.266 Q 214.842 16.466 214.766 16.643 Q 214.691 16.82 214.558 16.952 Q 214.426 17.084 214.249 17.16 Q 214.072 17.236 213.872 17.236 L 213.298 17.236 Q 213.231 17.236 213.169 17.263 Q 213.108 17.291 213.061 17.336 Q 213.015 17.381 212.989 17.444 Q 212.963 17.506 212.963 17.574 Q 212.963 17.642 212.989 17.703 Q 213.015 17.764 213.061 17.811 Q 213.108 17.858 213.169 17.883 Q 213.231 17.909 213.298 17.909 L 213.84 17.909 Q 214.04 17.909 214.217 17.975 Q 214.394 18.041 214.526 18.161 Q 214.658 18.28 214.734 18.447 Q 214.81 18.615 214.81 18.815 L 214.81 18.828 Z M 214.449 15.995 Q 214.449 15.876 214.404 15.771 Q 214.359 15.666 214.28 15.589 Q 214.201 15.512 214.096 15.466 Q 213.991 15.421 213.872 15.421 L 213.543 15.421 Q 213.424 15.421 213.319 15.466 Q 213.215 15.512 213.137 15.589 Q 213.06 15.666 213.015 15.771 Q 212.97 15.876 212.97 15.995 L 212.97 16.288 Q 212.97 16.408 213.015 16.512 Q 213.06 16.617 213.137 16.694 Q 213.215 16.772 213.319 16.817 Q 213.424 16.862 213.543 16.862 L 213.872 16.862 Q 213.991 16.862 214.096 16.817 Q 214.201 16.772 214.28 16.694 Q 214.359 16.617 214.404 16.512 Q 214.449 16.408 214.449 16.288 Z M 214.433 18.795 Q 214.433 18.676 214.388 18.581 Q 214.343 18.486 214.265 18.422 Q 214.188 18.357 214.083 18.322 Q 213.978 18.286 213.859 18.286 L 213.656 18.286 Q 213.537 18.286 213.432 18.322 Q 213.327 18.357 213.25 18.422 Q 213.173 18.486 213.128 18.581 Q 213.082 18.676 213.082 18.795 L 213.082 18.847 Q 213.082 18.966 213.128 19.06 Q 213.173 19.153 213.25 19.219 Q 213.327 19.285 213.432 19.321 Q 213.537 19.356 213.656 19.356 L 213.859 19.356 Q 213.978 19.356 214.083 19.321 Q 214.188 19.285 214.265 19.219 Q 214.343 19.153 214.388 19.06 Q 214.433 18.966 214.433 18.847 Z M 219.477 18.412 L 217.737 16.101 L 219.477 13.791 L 219.993 13.791 L 218.217 16.101 L 219.993 18.412 Z M 217.221 18.412 L 217.221 13.791 L 217.637 13.791 L 217.637 18.412 Z M 220.626 14.319 L 220.626 13.791 L 221.087 13.791 L 221.087 14.319 Z M 220.659 18.412 L 220.659 15.112 L 221.055 15.112 L 221.055 18.412 Z M 223.182 18.412 Q 223.001 18.412 222.842 18.344 Q 222.682 18.277 222.564 18.157 Q 222.447 18.038 222.378 17.88 Q 222.308 17.722 222.308 17.542 L 222.308 15.489 L 221.715 15.489 L 221.715 15.112 L 222.308 15.112 L 222.308 14.319 L 222.705 14.255 L 222.705 15.112 L 223.543 15.112 L 223.543 15.489 L 222.705 15.489 L 222.705 17.561 Q 222.705 17.661 222.742 17.747 Q 222.779 17.832 222.843 17.896 Q 222.908 17.961 222.995 17.998 Q 223.082 18.035 223.182 18.035 L 223.543 18.035 L 223.543 18.412 Z" style="fill: rgb(62, 0, 255);"/>
  <line x1="0" y1="22" x2="230" y2="22" id="line-1" style="paint-order: fill; stroke-dasharray: 2px; stroke: rgb(62, 0, 255); stroke-width: 0.1px;"/>
  <line x1="0" y1="37" x2="230" y2="37" id="line-3" style="paint-order: fill; stroke-dasharray: 2px; stroke: rgb(255, 255, 255); stroke-width: 0.1px;"/>
</svg>