<svg width="20" height="20" viewBox="-3 -3 20 20" fill="none" xmlns="http://www.w3.org/2000/svg">
<path d="M12.0769 6.84171C12.0769 6.58678 12.2835 6.38017 12.5385 6.38017C12.7934 6.38017 13 6.58678 13 6.84171V10.6923C13 11.9668 11.9668 13 10.6923 13H3.30769C2.03323 13 1 11.9668 1 10.6923V3.30769C1 2.03323 2.03323 1 3.30769 1H7.7006C7.95553 1 8.16214 1.20661 8.16214 1.46154C8.16214 1.71647 7.95553 1.92308 7.7006 1.92308H3.30769C2.54309 1.92308 1.92308 2.54309 1.92308 3.30769V10.6923C1.92308 11.4569 2.54309 12.0769 3.30769 12.0769H10.6923C11.4569 12.0769 12.0769 11.4571 12.0769 10.6923V6.84171ZM11.8775 1.74946C12.0528 1.57007 12.3392 1.5634 12.5226 1.73431C12.706 1.90541 12.7191 2.19171 12.5523 2.37885L7.51689 7.77975C7.34309 7.96617 7.05102 7.97644 6.86442 7.80264C6.67801 7.62885 6.66773 7.33678 6.84153 7.15018L11.8775 1.74946Z" fill="#6B6B6B"/>
</svg>
