<?xml version="1.0" encoding="UTF-8"?><svg id="a" xmlns="http://www.w3.org/2000/svg" width="20" height="20" viewBox="0 0 20 20"><rect x="1.5" y="1.5" width="16" height="16" rx="1" ry="1" style="fill:none; stroke:#949494; stroke-linecap:round; stroke-linejoin:round;"/><path d="M7.5,3.5h8M7.5,5.5h4M7.5,8.5h8M7.5,10.5h4M7.5,15.5h4M7.5,13.5h8" style="fill:none; stroke:#949494; stroke-linecap:round; stroke-linejoin:round;"/><path d="M4.5,5.5h0c-.55,0-1-.45-1-1h0c0-.55.45-1,1-1h0c.55,0,1,.45,1,1h0c0,.55-.45,1-1,1ZM5.5,9.5h0c0-.55-.45-1-1-1h0c-.55,0-1,.45-1,1h0c0,.55.45,1,1,1h0c.55,0,1-.45,1-1ZM5.5,14.5h0c0-.55-.45-1-1-1h0c-.55,0-1,.45-1,1h0c0,.55.45,1,1,1h0c.55,0,1-.45,1-1Z" style="fill:none; stroke:#949494; stroke-linecap:round; stroke-linejoin:round;"/></svg>