<svg width="20" height="20" viewBox="0 0 20 20" fill="none" xmlns="http://www.w3.org/2000/svg">
<path d="M5.1875 7.11354V5.36946C5.1875 5.08343 5.21542 4.9797 5.26785 4.87514C5.32028 4.77057 5.39721 4.6885 5.49525 4.63258C5.59329 4.57666 5.6905 4.54688 5.95865 4.54688H14.0413C14.3095 4.54688 14.4067 4.57666 14.5048 4.63258C14.6028 4.6885 14.6797 4.77057 14.7322 4.87514C14.7846 4.9797 14.8125 5.08343 14.8125 5.36946V7.11354" fill="#00AE42" fill-opacity="0.16"/>
<path fill-rule="evenodd" clip-rule="evenodd" d="M5.79832 5.15234C5.79796 5.15389 5.79746 5.15625 5.79685 5.15957C5.79258 5.1832 5.78594 5.23986 5.78594 5.36789V7.11198C5.78594 7.44335 5.51731 7.71198 5.18594 7.71198C4.85457 7.71198 4.58594 7.44335 4.58594 7.11198V5.36789C4.58594 5.03721 4.61823 4.82742 4.72993 4.60465M5.79832 5.15234C5.82159 5.14928 5.86892 5.14531 5.95709 5.14531H14.0398C14.128 5.14531 14.1753 5.14928 14.1986 5.15234C14.1989 5.15389 14.1994 5.15625 14.2 5.15955C14.2043 5.18318 14.2109 5.23986 14.2109 5.36789V7.11198C14.2109 7.44335 14.4796 7.71198 14.8109 7.71198C15.1423 7.71198 15.4109 7.44335 15.4109 7.11198V5.36789C15.4109 5.03722 15.3787 4.82744 15.267 4.60467L15.267 4.60467C15.1635 4.39828 15.0052 4.22664 14.8005 4.10988L14.8005 4.10983C14.5759 3.98173 14.361 3.94531 14.0398 3.94531H5.95709C5.63592 3.94531 5.42102 3.98173 5.19642 4.10983L5.19638 4.10985C4.99163 4.22666 4.83337 4.39834 4.72993 4.60465M14.1945 5.14235C14.1937 5.14143 14.1934 5.1409 14.1934 5.1409C14.1934 5.1409 14.1937 5.14138 14.1942 5.14247C14.1942 5.14248 14.1942 5.14248 14.1942 5.14248L14.1945 5.14236C14.1949 5.14292 14.1955 5.14363 14.1963 5.14445C14.1988 5.14708 14.2014 5.14925 14.2037 5.15079C14.2024 5.15023 14.2017 5.14987 14.2017 5.14987C14.2017 5.14988 14.203 5.15053 14.2059 5.1522M14.2182 5.13045L14.1945 5.14236C14.1945 5.14236 14.1945 5.14236 14.1945 5.14235L14.2182 5.13044L14.2182 5.13045ZM14.2184 5.13036L14.2182 5.13044L14.5019 4.63323L14.2184 5.13036Z" fill="#00AE42"/>
<path d="M4.08594 15.2588L7.11174 11.9254L8.7159 13.2087L10.6409 10.9629L15.9005 15.2588" fill="#00AE42" fill-opacity="0.16"/>
<path fill-rule="evenodd" clip-rule="evenodd" d="M10.1877 10.5728C10.3997 10.3254 10.7705 10.2925 11.0228 10.4986L16.2824 14.7946C16.5391 15.0042 16.5772 15.3822 16.3676 15.6388C16.158 15.8954 15.78 15.9336 15.5233 15.7239L10.7175 11.7986L9.17381 13.5996C8.9633 13.8452 8.59601 13.8797 8.34343 13.6776L7.17947 12.7465L4.53256 15.6625C4.30984 15.9079 3.93038 15.9262 3.68502 15.7035C3.43966 15.4808 3.4213 15.1014 3.64402 14.856L6.66981 11.5225C6.88278 11.2879 7.24147 11.2593 7.4889 11.4573L8.64016 12.3783L10.1877 10.5728Z" fill="#00AE42"/>
<path fill-rule="evenodd" clip-rule="evenodd" d="M3.30469 7.11172C3.30469 6.78035 3.57332 6.51172 3.90469 6.51172H16.0964C16.4277 6.51172 16.6964 6.78035 16.6964 7.11172V15.4534C16.6964 15.7848 16.4277 16.0534 16.0964 16.0534H3.90469C3.57332 16.0534 3.30469 15.7848 3.30469 15.4534V7.11172ZM4.50469 7.71172V14.8534H15.4964V7.71172H4.50469Z" fill="#00AE42"/>
<path fill-rule="evenodd" clip-rule="evenodd" d="M6.27781 10.2568C6.70308 10.2568 7.04781 9.91207 7.04781 9.4868C7.04781 9.06153 6.70308 8.7168 6.27781 8.7168C5.85254 8.7168 5.50781 9.06153 5.50781 9.4868C5.50781 9.91207 5.85254 10.2568 6.27781 10.2568Z" fill="#00AE42"/>
</svg>
