solid OpenSCAD_Model
  facet normal 0 0 -1
    outer loop
      vertex 152.105 -159.998 -3
      vertex 152.002 -159.998 -3
      vertex 152.314 -159.984 -3
    endloop
  endfacet
  facet normal -0 0 -1
    outer loop
      vertex 152.314 -159.984 -3
      vertex 152.002 -159.998 -3
      vertex 152.521 -159.954 -3
    endloop
  endfacet
  facet normal 0 -0 -1
    outer loop
      vertex -152.002 159.998 -3
      vertex 152.002 159.998 -3
      vertex -155 157 -3
    endloop
  endfacet
  facet normal -0 0 -1
    outer loop
      vertex 152.521 -159.954 -3
      vertex 152.002 -159.998 -3
      vertex 152.726 -159.911 -3
    endloop
  endfacet
  facet normal -0 0 -1
    outer loop
      vertex 152.726 -159.911 -3
      vertex 152.002 -159.998 -3
      vertex 152.927 -159.853 -3
    endloop
  endfacet
  facet normal -0 0 -1
    outer loop
      vertex 152.927 -159.853 -3
      vertex 152.002 -159.998 -3
      vertex 153.124 -159.782 -3
    endloop
  endfacet
  facet normal -0 0 -1
    outer loop
      vertex 153.124 -159.782 -3
      vertex 152.002 -159.998 -3
      vertex 153.315 -159.696 -3
    endloop
  endfacet
  facet normal -0 0 -1
    outer loop
      vertex 153.315 -159.696 -3
      vertex 152.002 -159.998 -3
      vertex 153.5 -159.598 -3
    endloop
  endfacet
  facet normal -0 0 -1
    outer loop
      vertex 153.5 -159.598 -3
      vertex 152.002 -159.998 -3
      vertex 153.678 -159.487 -3
    endloop
  endfacet
  facet normal -0 0 -1
    outer loop
      vertex 153.678 -159.487 -3
      vertex 152.002 -159.998 -3
      vertex 153.847 -159.364 -3
    endloop
  endfacet
  facet normal -0 0 -1
    outer loop
      vertex 153.847 -159.364 -3
      vertex 152.002 -159.998 -3
      vertex 154.007 -159.229 -3
    endloop
  endfacet
  facet normal -0 0 -1
    outer loop
      vertex 154.007 -159.229 -3
      vertex 152.002 -159.998 -3
      vertex 154.158 -159.084 -3
    endloop
  endfacet
  facet normal -0 0 -1
    outer loop
      vertex 154.158 -159.084 -3
      vertex 152.002 -159.998 -3
      vertex 154.298 -158.928 -3
    endloop
  endfacet
  facet normal -0 0 -1
    outer loop
      vertex 154.298 -158.928 -3
      vertex 152.002 -159.998 -3
      vertex 154.427 -158.763 -3
    endloop
  endfacet
  facet normal -0 0 -1
    outer loop
      vertex 154.427 -158.763 -3
      vertex 152.002 -159.998 -3
      vertex 154.544 -158.59 -3
    endloop
  endfacet
  facet normal -0 0 -1
    outer loop
      vertex 154.544 -158.59 -3
      vertex 152.002 -159.998 -3
      vertex 154.649 -158.408 -3
    endloop
  endfacet
  facet normal -0 0 -1
    outer loop
      vertex 154.649 -158.408 -3
      vertex 152.002 -159.998 -3
      vertex 154.741 -158.22 -3
    endloop
  endfacet
  facet normal -0 0 -1
    outer loop
      vertex 154.741 -158.22 -3
      vertex 152.002 -159.998 -3
      vertex 154.819 -158.026 -3
    endloop
  endfacet
  facet normal -0 0 -1
    outer loop
      vertex 154.819 -158.026 -3
      vertex 152.002 -159.998 -3
      vertex 154.884 -157.827 -3
    endloop
  endfacet
  facet normal -0 0 -1
    outer loop
      vertex 154.884 -157.827 -3
      vertex 152.002 -159.998 -3
      vertex 154.934 -157.624 -3
    endloop
  endfacet
  facet normal -0 0 -1
    outer loop
      vertex 154.934 -157.624 -3
      vertex 152.002 -159.998 -3
      vertex 154.971 -157.418 -3
    endloop
  endfacet
  facet normal -0 0 -1
    outer loop
      vertex 154.971 -157.418 -3
      vertex 152.002 -159.998 -3
      vertex 154.993 -157.209 -3
    endloop
  endfacet
  facet normal -0 0 -1
    outer loop
      vertex 154.993 -157.209 -3
      vertex 152.002 -159.998 -3
      vertex 155 -157 -3
    endloop
  endfacet
  facet normal 0 -0 -1
    outer loop
      vertex 152 160 -3
      vertex 152.002 159.998 -3
      vertex -152.002 159.998 -3
    endloop
  endfacet
  facet normal 0 0 -1
    outer loop
      vertex 152.002 159.998 -3
      vertex 154.971 157.418 -3
      vertex 154.993 157.209 -3
    endloop
  endfacet
  facet normal -0 -0 -1
    outer loop
      vertex 154.884 157.827 -3
      vertex 154.934 157.624 -3
      vertex 152.002 159.998 -3
    endloop
  endfacet
  facet normal 0 0 -1
    outer loop
      vertex 154.741 158.22 -3
      vertex 152.002 159.998 -3
      vertex 154.649 158.408 -3
    endloop
  endfacet
  facet normal -0 -0 -1
    outer loop
      vertex 154.741 158.22 -3
      vertex 154.819 158.026 -3
      vertex 152.002 159.998 -3
    endloop
  endfacet
  facet normal 0 0 -1
    outer loop
      vertex 152.002 159.998 -3
      vertex 154.007 159.229 -3
      vertex 154.158 159.084 -3
    endloop
  endfacet
  facet normal 0 0 -1
    outer loop
      vertex 154.427 158.763 -3
      vertex 152.002 159.998 -3
      vertex 154.298 158.928 -3
    endloop
  endfacet
  facet normal -0 -0 -1
    outer loop
      vertex 154.427 158.763 -3
      vertex 154.544 158.59 -3
      vertex 152.002 159.998 -3
    endloop
  endfacet
  facet normal 0 0 -1
    outer loop
      vertex 154.298 158.928 -3
      vertex 152.002 159.998 -3
      vertex 154.158 159.084 -3
    endloop
  endfacet
  facet normal 0 0 -1
    outer loop
      vertex 152.002 159.998 -3
      vertex 152.927 159.853 -3
      vertex 153.124 159.782 -3
    endloop
  endfacet
  facet normal 0 0 -1
    outer loop
      vertex 153.847 159.364 -3
      vertex 152.002 159.998 -3
      vertex 153.678 159.487 -3
    endloop
  endfacet
  facet normal -0 -0 -1
    outer loop
      vertex 153.847 159.364 -3
      vertex 154.007 159.229 -3
      vertex 152.002 159.998 -3
    endloop
  endfacet
  facet normal 0 0 -1
    outer loop
      vertex 153.678 159.487 -3
      vertex 152.002 159.998 -3
      vertex 153.5 159.598 -3
    endloop
  endfacet
  facet normal 0 0 -1
    outer loop
      vertex 153.5 159.598 -3
      vertex 152.002 159.998 -3
      vertex 153.315 159.696 -3
    endloop
  endfacet
  facet normal 0 0 -1
    outer loop
      vertex 153.315 159.696 -3
      vertex 152.002 159.998 -3
      vertex 153.124 159.782 -3
    endloop
  endfacet
  facet normal 0 0 -1
    outer loop
      vertex 154.649 158.408 -3
      vertex 152.002 159.998 -3
      vertex 154.544 158.59 -3
    endloop
  endfacet
  facet normal 0 0 -1
    outer loop
      vertex 152.726 159.911 -3
      vertex 152.002 159.998 -3
      vertex 152.521 159.954 -3
    endloop
  endfacet
  facet normal -0 -0 -1
    outer loop
      vertex 152.726 159.911 -3
      vertex 152.927 159.853 -3
      vertex 152.002 159.998 -3
    endloop
  endfacet
  facet normal -0 -0 -1
    outer loop
      vertex 154.819 158.026 -3
      vertex 154.884 157.827 -3
      vertex 152.002 159.998 -3
    endloop
  endfacet
  facet normal -0 -0 -1
    outer loop
      vertex 152.314 159.984 -3
      vertex 152.521 159.954 -3
      vertex 152.002 159.998 -3
    endloop
  endfacet
  facet normal 0 0 -1
    outer loop
      vertex 152.002 159.998 -3
      vertex 154.934 157.624 -3
      vertex 154.971 157.418 -3
    endloop
  endfacet
  facet normal 0 0 -1
    outer loop
      vertex 152.002 159.998 -3
      vertex 152.105 159.998 -3
      vertex 152.314 159.984 -3
    endloop
  endfacet
  facet normal 0 0 -1
    outer loop
      vertex 155 157 -3
      vertex 152.002 159.998 -3
      vertex 154.993 157.209 -3
    endloop
  endfacet
  facet normal 0 -0 -1
    outer loop
      vertex -152 160 -3
      vertex 152 160 -3
      vertex -152.002 159.998 -3
    endloop
  endfacet
  facet normal 0 -0 -1
    outer loop
      vertex 152.002 159.998 -3
      vertex 155 157 -3
      vertex -155 157 -3
    endloop
  endfacet
  facet normal 0 0 -1
    outer loop
      vertex -155 157 -3
      vertex 155 157 -3
      vertex 155 -157 -3
    endloop
  endfacet
  facet normal 0 0 -1
    outer loop
      vertex -155 157 -3
      vertex -154.993 157.209 -3
      vertex -152.002 159.998 -3
    endloop
  endfacet
  facet normal -0 0 -1
    outer loop
      vertex -152.002 159.998 -3
      vertex -152.314 159.984 -3
      vertex -152.105 159.998 -3
    endloop
  endfacet
  facet normal 0 0 -1
    outer loop
      vertex -152.002 159.998 -3
      vertex -152.521 159.954 -3
      vertex -152.314 159.984 -3
    endloop
  endfacet
  facet normal 0 0 -1
    outer loop
      vertex -152.002 159.998 -3
      vertex -152.726 159.911 -3
      vertex -152.521 159.954 -3
    endloop
  endfacet
  facet normal 0 0 -1
    outer loop
      vertex -152.002 159.998 -3
      vertex -152.927 159.853 -3
      vertex -152.726 159.911 -3
    endloop
  endfacet
  facet normal 0 0 -1
    outer loop
      vertex -152.002 159.998 -3
      vertex -153.124 159.782 -3
      vertex -152.927 159.853 -3
    endloop
  endfacet
  facet normal 0 0 -1
    outer loop
      vertex -152.002 159.998 -3
      vertex -153.315 159.696 -3
      vertex -153.124 159.782 -3
    endloop
  endfacet
  facet normal 0 0 -1
    outer loop
      vertex -152.002 159.998 -3
      vertex -153.5 159.598 -3
      vertex -153.315 159.696 -3
    endloop
  endfacet
  facet normal 0 0 -1
    outer loop
      vertex -152.002 159.998 -3
      vertex -153.678 159.487 -3
      vertex -153.5 159.598 -3
    endloop
  endfacet
  facet normal 0 0 -1
    outer loop
      vertex -152.002 159.998 -3
      vertex -153.847 159.364 -3
      vertex -153.678 159.487 -3
    endloop
  endfacet
  facet normal 0 0 -1
    outer loop
      vertex -152.002 159.998 -3
      vertex -154.007 159.229 -3
      vertex -153.847 159.364 -3
    endloop
  endfacet
  facet normal 0 0 -1
    outer loop
      vertex -152.002 159.998 -3
      vertex -154.158 159.084 -3
      vertex -154.007 159.229 -3
    endloop
  endfacet
  facet normal 0 0 -1
    outer loop
      vertex -152.002 159.998 -3
      vertex -154.298 158.928 -3
      vertex -154.158 159.084 -3
    endloop
  endfacet
  facet normal 0 0 -1
    outer loop
      vertex -152.002 159.998 -3
      vertex -154.427 158.763 -3
      vertex -154.298 158.928 -3
    endloop
  endfacet
  facet normal 0 0 -1
    outer loop
      vertex -152.002 159.998 -3
      vertex -154.544 158.59 -3
      vertex -154.427 158.763 -3
    endloop
  endfacet
  facet normal 0 0 -1
    outer loop
      vertex -152.002 159.998 -3
      vertex -154.649 158.408 -3
      vertex -154.544 158.59 -3
    endloop
  endfacet
  facet normal 0 0 -1
    outer loop
      vertex -152.002 159.998 -3
      vertex -154.741 158.22 -3
      vertex -154.649 158.408 -3
    endloop
  endfacet
  facet normal 0 0 -1
    outer loop
      vertex -152.002 159.998 -3
      vertex -154.819 158.026 -3
      vertex -154.741 158.22 -3
    endloop
  endfacet
  facet normal 0 0 -1
    outer loop
      vertex -152.002 159.998 -3
      vertex -154.884 157.827 -3
      vertex -154.819 158.026 -3
    endloop
  endfacet
  facet normal 0 0 -1
    outer loop
      vertex -152.002 159.998 -3
      vertex -154.934 157.624 -3
      vertex -154.884 157.827 -3
    endloop
  endfacet
  facet normal 0 0 -1
    outer loop
      vertex -152.002 159.998 -3
      vertex -154.971 157.418 -3
      vertex -154.934 157.624 -3
    endloop
  endfacet
  facet normal 0 0 -1
    outer loop
      vertex -152.002 159.998 -3
      vertex -154.993 157.209 -3
      vertex -154.971 157.418 -3
    endloop
  endfacet
  facet normal 0 0 -1
    outer loop
      vertex -155 -157 -3
      vertex -155 157 -3
      vertex 155 -157 -3
    endloop
  endfacet
  facet normal 0 0 -1
    outer loop
      vertex 152.002 -159.998 -3
      vertex -155 -157 -3
      vertex 155 -157 -3
    endloop
  endfacet
  facet normal 0 0 -1
    outer loop
      vertex 152.002 -159.998 -3
      vertex -152.002 -159.998 -3
      vertex -155 -157 -3
    endloop
  endfacet
  facet normal 0 0 -1
    outer loop
      vertex -152.002 -159.998 -3
      vertex -154.971 -157.418 -3
      vertex -154.993 -157.209 -3
    endloop
  endfacet
  facet normal 0 0 -1
    outer loop
      vertex -154.884 -157.827 -3
      vertex -154.934 -157.624 -3
      vertex -152.002 -159.998 -3
    endloop
  endfacet
  facet normal 0 0 -1
    outer loop
      vertex -154.741 -158.22 -3
      vertex -152.002 -159.998 -3
      vertex -154.649 -158.408 -3
    endloop
  endfacet
  facet normal 0 0 -1
    outer loop
      vertex -154.741 -158.22 -3
      vertex -154.819 -158.026 -3
      vertex -152.002 -159.998 -3
    endloop
  endfacet
  facet normal 0 0 -1
    outer loop
      vertex -152.002 -159.998 -3
      vertex -154.007 -159.229 -3
      vertex -154.158 -159.084 -3
    endloop
  endfacet
  facet normal 0 0 -1
    outer loop
      vertex -154.427 -158.763 -3
      vertex -152.002 -159.998 -3
      vertex -154.298 -158.928 -3
    endloop
  endfacet
  facet normal 0 0 -1
    outer loop
      vertex -154.427 -158.763 -3
      vertex -154.544 -158.59 -3
      vertex -152.002 -159.998 -3
    endloop
  endfacet
  facet normal 0 0 -1
    outer loop
      vertex -154.298 -158.928 -3
      vertex -152.002 -159.998 -3
      vertex -154.158 -159.084 -3
    endloop
  endfacet
  facet normal 0 0 -1
    outer loop
      vertex -152.002 -159.998 -3
      vertex -152.927 -159.853 -3
      vertex -153.124 -159.782 -3
    endloop
  endfacet
  facet normal 0 0 -1
    outer loop
      vertex -153.847 -159.364 -3
      vertex -152.002 -159.998 -3
      vertex -153.678 -159.487 -3
    endloop
  endfacet
  facet normal 0 0 -1
    outer loop
      vertex -153.847 -159.364 -3
      vertex -154.007 -159.229 -3
      vertex -152.002 -159.998 -3
    endloop
  endfacet
  facet normal 0 0 -1
    outer loop
      vertex -153.678 -159.487 -3
      vertex -152.002 -159.998 -3
      vertex -153.5 -159.598 -3
    endloop
  endfacet
  facet normal 0 0 -1
    outer loop
      vertex -153.5 -159.598 -3
      vertex -152.002 -159.998 -3
      vertex -153.315 -159.696 -3
    endloop
  endfacet
  facet normal 0 0 -1
    outer loop
      vertex -153.315 -159.696 -3
      vertex -152.002 -159.998 -3
      vertex -153.124 -159.782 -3
    endloop
  endfacet
  facet normal 0 0 -1
    outer loop
      vertex -154.649 -158.408 -3
      vertex -152.002 -159.998 -3
      vertex -154.544 -158.59 -3
    endloop
  endfacet
  facet normal 0 0 -1
    outer loop
      vertex -152.726 -159.911 -3
      vertex -152.002 -159.998 -3
      vertex -152.521 -159.954 -3
    endloop
  endfacet
  facet normal 0 0 -1
    outer loop
      vertex -152.726 -159.911 -3
      vertex -152.927 -159.853 -3
      vertex -152.002 -159.998 -3
    endloop
  endfacet
  facet normal 0 0 -1
    outer loop
      vertex -154.819 -158.026 -3
      vertex -154.884 -157.827 -3
      vertex -152.002 -159.998 -3
    endloop
  endfacet
  facet normal 0 0 -1
    outer loop
      vertex -152.314 -159.984 -3
      vertex -152.521 -159.954 -3
      vertex -152.002 -159.998 -3
    endloop
  endfacet
  facet normal 0 0 -1
    outer loop
      vertex -152.002 -159.998 -3
      vertex -154.934 -157.624 -3
      vertex -154.971 -157.418 -3
    endloop
  endfacet
  facet normal 0 0 -1
    outer loop
      vertex -152.002 -159.998 -3
      vertex -152.105 -159.998 -3
      vertex -152.314 -159.984 -3
    endloop
  endfacet
  facet normal -0 0 -1
    outer loop
      vertex 152.002 -159.998 -3
      vertex 152 -160 -3
      vertex -152.002 -159.998 -3
    endloop
  endfacet
  facet normal 0 0 -1
    outer loop
      vertex -152.002 -159.998 -3
      vertex 152 -160 -3
      vertex -152 -160 -3
    endloop
  endfacet
  facet normal 0 0 -1
    outer loop
      vertex -155 -157 -3
      vertex -152.002 -159.998 -3
      vertex -154.993 -157.209 -3
    endloop
  endfacet
  facet normal 0 0 1
    outer loop
      vertex 152.314 -159.984 0
      vertex 152.002 -159.998 0
      vertex 152.105 -159.998 0
    endloop
  endfacet
  facet normal 0 0 1
    outer loop
      vertex 152.521 -159.954 0
      vertex 152.002 -159.998 0
      vertex 152.314 -159.984 0
    endloop
  endfacet
  facet normal 0 0 1
    outer loop
      vertex -155 157 0
      vertex 152.002 159.998 0
      vertex -152.002 159.998 0
    endloop
  endfacet
  facet normal 0 0 1
    outer loop
      vertex 152.726 -159.911 0
      vertex 152.002 -159.998 0
      vertex 152.521 -159.954 0
    endloop
  endfacet
  facet normal 0 0 1
    outer loop
      vertex 152.927 -159.853 0
      vertex 152.002 -159.998 0
      vertex 152.726 -159.911 0
    endloop
  endfacet
  facet normal 0 0 1
    outer loop
      vertex 153.124 -159.782 0
      vertex 152.002 -159.998 0
      vertex 152.927 -159.853 0
    endloop
  endfacet
  facet normal 0 0 1
    outer loop
      vertex 153.315 -159.696 0
      vertex 152.002 -159.998 0
      vertex 153.124 -159.782 0
    endloop
  endfacet
  facet normal 0 0 1
    outer loop
      vertex 153.5 -159.598 0
      vertex 152.002 -159.998 0
      vertex 153.315 -159.696 0
    endloop
  endfacet
  facet normal 0 0 1
    outer loop
      vertex 153.678 -159.487 0
      vertex 152.002 -159.998 0
      vertex 153.5 -159.598 0
    endloop
  endfacet
  facet normal 0 0 1
    outer loop
      vertex 153.847 -159.364 0
      vertex 152.002 -159.998 0
      vertex 153.678 -159.487 0
    endloop
  endfacet
  facet normal 0 0 1
    outer loop
      vertex 154.007 -159.229 0
      vertex 152.002 -159.998 0
      vertex 153.847 -159.364 0
    endloop
  endfacet
  facet normal 0 0 1
    outer loop
      vertex 154.158 -159.084 0
      vertex 152.002 -159.998 0
      vertex 154.007 -159.229 0
    endloop
  endfacet
  facet normal 0 0 1
    outer loop
      vertex 154.298 -158.928 0
      vertex 152.002 -159.998 0
      vertex 154.158 -159.084 0
    endloop
  endfacet
  facet normal 0 0 1
    outer loop
      vertex 154.427 -158.763 0
      vertex 152.002 -159.998 0
      vertex 154.298 -158.928 0
    endloop
  endfacet
  facet normal 0 0 1
    outer loop
      vertex 154.544 -158.59 0
      vertex 152.002 -159.998 0
      vertex 154.427 -158.763 0
    endloop
  endfacet
  facet normal 0 0 1
    outer loop
      vertex 154.649 -158.408 0
      vertex 152.002 -159.998 0
      vertex 154.544 -158.59 0
    endloop
  endfacet
  facet normal 0 0 1
    outer loop
      vertex 154.741 -158.22 0
      vertex 152.002 -159.998 0
      vertex 154.649 -158.408 0
    endloop
  endfacet
  facet normal 0 0 1
    outer loop
      vertex 154.819 -158.026 0
      vertex 152.002 -159.998 0
      vertex 154.741 -158.22 0
    endloop
  endfacet
  facet normal 0 0 1
    outer loop
      vertex 154.884 -157.827 0
      vertex 152.002 -159.998 0
      vertex 154.819 -158.026 0
    endloop
  endfacet
  facet normal 0 0 1
    outer loop
      vertex 154.934 -157.624 0
      vertex 152.002 -159.998 0
      vertex 154.884 -157.827 0
    endloop
  endfacet
  facet normal 0 0 1
    outer loop
      vertex 154.971 -157.418 0
      vertex 152.002 -159.998 0
      vertex 154.934 -157.624 0
    endloop
  endfacet
  facet normal 0 0 1
    outer loop
      vertex 154.993 -157.209 0
      vertex 152.002 -159.998 0
      vertex 154.971 -157.418 0
    endloop
  endfacet
  facet normal 0 0 1
    outer loop
      vertex 155 -157 0
      vertex 152.002 -159.998 0
      vertex 154.993 -157.209 0
    endloop
  endfacet
  facet normal 0 0 1
    outer loop
      vertex -152.002 159.998 0
      vertex 152.002 159.998 0
      vertex 152 160 0
    endloop
  endfacet
  facet normal 0 0 1
    outer loop
      vertex 154.993 157.209 0
      vertex 154.971 157.418 0
      vertex 152.002 159.998 0
    endloop
  endfacet
  facet normal 0 0 1
    outer loop
      vertex 152.002 159.998 0
      vertex 154.934 157.624 0
      vertex 154.884 157.827 0
    endloop
  endfacet
  facet normal 0 0 1
    outer loop
      vertex 154.649 158.408 0
      vertex 152.002 159.998 0
      vertex 154.741 158.22 0
    endloop
  endfacet
  facet normal 0 0 1
    outer loop
      vertex 152.002 159.998 0
      vertex 154.819 158.026 0
      vertex 154.741 158.22 0
    endloop
  endfacet
  facet normal 0 0 1
    outer loop
      vertex 154.158 159.084 0
      vertex 154.007 159.229 0
      vertex 152.002 159.998 0
    endloop
  endfacet
  facet normal 0 0 1
    outer loop
      vertex 154.298 158.928 0
      vertex 152.002 159.998 0
      vertex 154.427 158.763 0
    endloop
  endfacet
  facet normal 0 0 1
    outer loop
      vertex 152.002 159.998 0
      vertex 154.544 158.59 0
      vertex 154.427 158.763 0
    endloop
  endfacet
  facet normal 0 0 1
    outer loop
      vertex 154.158 159.084 0
      vertex 152.002 159.998 0
      vertex 154.298 158.928 0
    endloop
  endfacet
  facet normal 0 0 1
    outer loop
      vertex 153.124 159.782 0
      vertex 152.927 159.853 0
      vertex 152.002 159.998 0
    endloop
  endfacet
  facet normal 0 0 1
    outer loop
      vertex 153.678 159.487 0
      vertex 152.002 159.998 0
      vertex 153.847 159.364 0
    endloop
  endfacet
  facet normal 0 0 1
    outer loop
      vertex 152.002 159.998 0
      vertex 154.007 159.229 0
      vertex 153.847 159.364 0
    endloop
  endfacet
  facet normal 0 0 1
    outer loop
      vertex 153.5 159.598 0
      vertex 152.002 159.998 0
      vertex 153.678 159.487 0
    endloop
  endfacet
  facet normal 0 0 1
    outer loop
      vertex 153.315 159.696 0
      vertex 152.002 159.998 0
      vertex 153.5 159.598 0
    endloop
  endfacet
  facet normal 0 0 1
    outer loop
      vertex 153.124 159.782 0
      vertex 152.002 159.998 0
      vertex 153.315 159.696 0
    endloop
  endfacet
  facet normal 0 0 1
    outer loop
      vertex 154.544 158.59 0
      vertex 152.002 159.998 0
      vertex 154.649 158.408 0
    endloop
  endfacet
  facet normal 0 0 1
    outer loop
      vertex 152.521 159.954 0
      vertex 152.002 159.998 0
      vertex 152.726 159.911 0
    endloop
  endfacet
  facet normal 0 0 1
    outer loop
      vertex 152.002 159.998 0
      vertex 152.927 159.853 0
      vertex 152.726 159.911 0
    endloop
  endfacet
  facet normal 0 0 1
    outer loop
      vertex 152.002 159.998 0
      vertex 154.884 157.827 0
      vertex 154.819 158.026 0
    endloop
  endfacet
  facet normal 0 0 1
    outer loop
      vertex 152.002 159.998 0
      vertex 152.521 159.954 0
      vertex 152.314 159.984 0
    endloop
  endfacet
  facet normal 0 0 1
    outer loop
      vertex 154.971 157.418 0
      vertex 154.934 157.624 0
      vertex 152.002 159.998 0
    endloop
  endfacet
  facet normal 0 0 1
    outer loop
      vertex 152.314 159.984 0
      vertex 152.105 159.998 0
      vertex 152.002 159.998 0
    endloop
  endfacet
  facet normal 0 0 1
    outer loop
      vertex 154.993 157.209 0
      vertex 152.002 159.998 0
      vertex 155 157 0
    endloop
  endfacet
  facet normal 0 0 1
    outer loop
      vertex -152.002 159.998 0
      vertex 152 160 0
      vertex -152 160 0
    endloop
  endfacet
  facet normal 0 0 1
    outer loop
      vertex -155 157 0
      vertex 155 157 0
      vertex 152.002 159.998 0
    endloop
  endfacet
  facet normal 0 -0 1
    outer loop
      vertex 155 -157 0
      vertex 155 157 0
      vertex -155 157 0
    endloop
  endfacet
  facet normal 0 0 1
    outer loop
      vertex -152.002 159.998 0
      vertex -154.993 157.209 0
      vertex -155 157 0
    endloop
  endfacet
  facet normal -0 0 1
    outer loop
      vertex -152.105 159.998 0
      vertex -152.314 159.984 0
      vertex -152.002 159.998 0
    endloop
  endfacet
  facet normal -0 0 1
    outer loop
      vertex -152.314 159.984 0
      vertex -152.521 159.954 0
      vertex -152.002 159.998 0
    endloop
  endfacet
  facet normal -0 0 1
    outer loop
      vertex -152.521 159.954 0
      vertex -152.726 159.911 0
      vertex -152.002 159.998 0
    endloop
  endfacet
  facet normal -0 0 1
    outer loop
      vertex -152.726 159.911 0
      vertex -152.927 159.853 0
      vertex -152.002 159.998 0
    endloop
  endfacet
  facet normal -0 0 1
    outer loop
      vertex -152.927 159.853 0
      vertex -153.124 159.782 0
      vertex -152.002 159.998 0
    endloop
  endfacet
  facet normal -0 0 1
    outer loop
      vertex -153.124 159.782 0
      vertex -153.315 159.696 0
      vertex -152.002 159.998 0
    endloop
  endfacet
  facet normal -0 0 1
    outer loop
      vertex -153.315 159.696 0
      vertex -153.5 159.598 0
      vertex -152.002 159.998 0
    endloop
  endfacet
  facet normal -0 0 1
    outer loop
      vertex -153.5 159.598 0
      vertex -153.678 159.487 0
      vertex -152.002 159.998 0
    endloop
  endfacet
  facet normal -0 0 1
    outer loop
      vertex -153.678 159.487 0
      vertex -153.847 159.364 0
      vertex -152.002 159.998 0
    endloop
  endfacet
  facet normal -0 0 1
    outer loop
      vertex -153.847 159.364 0
      vertex -154.007 159.229 0
      vertex -152.002 159.998 0
    endloop
  endfacet
  facet normal -0 0 1
    outer loop
      vertex -154.007 159.229 0
      vertex -154.158 159.084 0
      vertex -152.002 159.998 0
    endloop
  endfacet
  facet normal -0 0 1
    outer loop
      vertex -154.158 159.084 0
      vertex -154.298 158.928 0
      vertex -152.002 159.998 0
    endloop
  endfacet
  facet normal -0 0 1
    outer loop
      vertex -154.298 158.928 0
      vertex -154.427 158.763 0
      vertex -152.002 159.998 0
    endloop
  endfacet
  facet normal -0 0 1
    outer loop
      vertex -154.427 158.763 0
      vertex -154.544 158.59 0
      vertex -152.002 159.998 0
    endloop
  endfacet
  facet normal -0 0 1
    outer loop
      vertex -154.544 158.59 0
      vertex -154.649 158.408 0
      vertex -152.002 159.998 0
    endloop
  endfacet
  facet normal -0 0 1
    outer loop
      vertex -154.649 158.408 0
      vertex -154.741 158.22 0
      vertex -152.002 159.998 0
    endloop
  endfacet
  facet normal -0 0 1
    outer loop
      vertex -154.741 158.22 0
      vertex -154.819 158.026 0
      vertex -152.002 159.998 0
    endloop
  endfacet
  facet normal -0 0 1
    outer loop
      vertex -154.819 158.026 0
      vertex -154.884 157.827 0
      vertex -152.002 159.998 0
    endloop
  endfacet
  facet normal -0 0 1
    outer loop
      vertex -154.884 157.827 0
      vertex -154.934 157.624 0
      vertex -152.002 159.998 0
    endloop
  endfacet
  facet normal -0 0 1
    outer loop
      vertex -154.934 157.624 0
      vertex -154.971 157.418 0
      vertex -152.002 159.998 0
    endloop
  endfacet
  facet normal -0 0 1
    outer loop
      vertex -154.971 157.418 0
      vertex -154.993 157.209 0
      vertex -152.002 159.998 0
    endloop
  endfacet
  facet normal 0 0 1
    outer loop
      vertex 155 -157 0
      vertex -155 157 0
      vertex -155 -157 0
    endloop
  endfacet
  facet normal 0 0 1
    outer loop
      vertex 155 -157 0
      vertex -155 -157 0
      vertex 152.002 -159.998 0
    endloop
  endfacet
  facet normal 0 0 1
    outer loop
      vertex -155 -157 0
      vertex -152.002 -159.998 0
      vertex 152.002 -159.998 0
    endloop
  endfacet
  facet normal 0 0 1
    outer loop
      vertex -154.993 -157.209 0
      vertex -154.971 -157.418 0
      vertex -152.002 -159.998 0
    endloop
  endfacet
  facet normal 0 0 1
    outer loop
      vertex -152.002 -159.998 0
      vertex -154.934 -157.624 0
      vertex -154.884 -157.827 0
    endloop
  endfacet
  facet normal -0 -0 1
    outer loop
      vertex -154.649 -158.408 0
      vertex -152.002 -159.998 0
      vertex -154.741 -158.22 0
    endloop
  endfacet
  facet normal 0 0 1
    outer loop
      vertex -152.002 -159.998 0
      vertex -154.819 -158.026 0
      vertex -154.741 -158.22 0
    endloop
  endfacet
  facet normal 0 0 1
    outer loop
      vertex -154.158 -159.084 0
      vertex -154.007 -159.229 0
      vertex -152.002 -159.998 0
    endloop
  endfacet
  facet normal -0 -0 1
    outer loop
      vertex -154.298 -158.928 0
      vertex -152.002 -159.998 0
      vertex -154.427 -158.763 0
    endloop
  endfacet
  facet normal 0 0 1
    outer loop
      vertex -152.002 -159.998 0
      vertex -154.544 -158.59 0
      vertex -154.427 -158.763 0
    endloop
  endfacet
  facet normal -0 -0 1
    outer loop
      vertex -154.158 -159.084 0
      vertex -152.002 -159.998 0
      vertex -154.298 -158.928 0
    endloop
  endfacet
  facet normal 0 0 1
    outer loop
      vertex -153.124 -159.782 0
      vertex -152.927 -159.853 0
      vertex -152.002 -159.998 0
    endloop
  endfacet
  facet normal -0 -0 1
    outer loop
      vertex -153.678 -159.487 0
      vertex -152.002 -159.998 0
      vertex -153.847 -159.364 0
    endloop
  endfacet
  facet normal 0 0 1
    outer loop
      vertex -152.002 -159.998 0
      vertex -154.007 -159.229 0
      vertex -153.847 -159.364 0
    endloop
  endfacet
  facet normal -0 -0 1
    outer loop
      vertex -153.5 -159.598 0
      vertex -152.002 -159.998 0
      vertex -153.678 -159.487 0
    endloop
  endfacet
  facet normal -0 -0 1
    outer loop
      vertex -153.315 -159.696 0
      vertex -152.002 -159.998 0
      vertex -153.5 -159.598 0
    endloop
  endfacet
  facet normal -0 -0 1
    outer loop
      vertex -153.124 -159.782 0
      vertex -152.002 -159.998 0
      vertex -153.315 -159.696 0
    endloop
  endfacet
  facet normal -0 -0 1
    outer loop
      vertex -154.544 -158.59 0
      vertex -152.002 -159.998 0
      vertex -154.649 -158.408 0
    endloop
  endfacet
  facet normal -0 -0 1
    outer loop
      vertex -152.521 -159.954 0
      vertex -152.002 -159.998 0
      vertex -152.726 -159.911 0
    endloop
  endfacet
  facet normal 0 0 1
    outer loop
      vertex -152.002 -159.998 0
      vertex -152.927 -159.853 0
      vertex -152.726 -159.911 0
    endloop
  endfacet
  facet normal 0 0 1
    outer loop
      vertex -152.002 -159.998 0
      vertex -154.884 -157.827 0
      vertex -154.819 -158.026 0
    endloop
  endfacet
  facet normal 0 0 1
    outer loop
      vertex -152.002 -159.998 0
      vertex -152.521 -159.954 0
      vertex -152.314 -159.984 0
    endloop
  endfacet
  facet normal 0 0 1
    outer loop
      vertex -154.971 -157.418 0
      vertex -154.934 -157.624 0
      vertex -152.002 -159.998 0
    endloop
  endfacet
  facet normal 0 0 1
    outer loop
      vertex -152.314 -159.984 0
      vertex -152.105 -159.998 0
      vertex -152.002 -159.998 0
    endloop
  endfacet
  facet normal -0 0 1
    outer loop
      vertex -152.002 -159.998 0
      vertex 152 -160 0
      vertex 152.002 -159.998 0
    endloop
  endfacet
  facet normal 0 -0 1
    outer loop
      vertex -152 -160 0
      vertex 152 -160 0
      vertex -152.002 -159.998 0
    endloop
  endfacet
  facet normal -0 -0 1
    outer loop
      vertex -154.993 -157.209 0
      vertex -152.002 -159.998 0
      vertex -155 -157 0
    endloop
  endfacet
  facet normal 0 -1 0
    outer loop
      vertex 152.105 -159.998 -3
      vertex 152.002 -159.998 0
      vertex 152.002 -159.998 -3
    endloop
  endfacet
  facet normal 0 -1 0
    outer loop
      vertex 152.105 -159.998 -3
      vertex 152.105 -159.998 0
      vertex 152.002 -159.998 0
    endloop
  endfacet
  facet normal 0.0668359 -0.997764 0
    outer loop
      vertex 152.314 -159.984 -3
      vertex 152.105 -159.998 0
      vertex 152.105 -159.998 -3
    endloop
  endfacet
  facet normal 0.0668359 -0.997764 0
    outer loop
      vertex 152.314 -159.984 -3
      vertex 152.314 -159.984 0
      vertex 152.105 -159.998 0
    endloop
  endfacet
  facet normal 0.143429 -0.989661 0
    outer loop
      vertex 152.521 -159.954 -3
      vertex 152.314 -159.984 0
      vertex 152.314 -159.984 -3
    endloop
  endfacet
  facet normal 0.143429 -0.989661 0
    outer loop
      vertex 152.521 -159.954 -3
      vertex 152.521 -159.954 0
      vertex 152.314 -159.984 0
    endloop
  endfacet
  facet normal 0.205289 -0.978701 0
    outer loop
      vertex 152.726 -159.911 -3
      vertex 152.521 -159.954 0
      vertex 152.521 -159.954 -3
    endloop
  endfacet
  facet normal 0.205289 -0.978701 0
    outer loop
      vertex 152.726 -159.911 -3
      vertex 152.726 -159.911 0
      vertex 152.521 -159.954 0
    endloop
  endfacet
  facet normal 0.277246 -0.960799 0
    outer loop
      vertex 152.927 -159.853 -3
      vertex 152.726 -159.911 0
      vertex 152.726 -159.911 -3
    endloop
  endfacet
  facet normal 0.277246 -0.960799 0
    outer loop
      vertex 152.927 -159.853 -3
      vertex 152.927 -159.853 0
      vertex 152.726 -159.911 0
    endloop
  endfacet
  facet normal 0.339058 -0.940766 0
    outer loop
      vertex 153.124 -159.782 -3
      vertex 152.927 -159.853 0
      vertex 152.927 -159.853 -3
    endloop
  endfacet
  facet normal 0.339058 -0.940766 0
    outer loop
      vertex 153.124 -159.782 -3
      vertex 153.124 -159.782 0
      vertex 152.927 -159.853 0
    endloop
  endfacet
  facet normal 0.410563 -0.911832 0
    outer loop
      vertex 153.315 -159.696 -3
      vertex 153.124 -159.782 0
      vertex 153.124 -159.782 -3
    endloop
  endfacet
  facet normal 0.410563 -0.911832 0
    outer loop
      vertex 153.315 -159.696 -3
      vertex 153.315 -159.696 0
      vertex 153.124 -159.782 0
    endloop
  endfacet
  facet normal 0.468107 -0.883672 0
    outer loop
      vertex 153.5 -159.598 -3
      vertex 153.315 -159.696 0
      vertex 153.315 -159.696 -3
    endloop
  endfacet
  facet normal 0.468107 -0.883672 0
    outer loop
      vertex 153.5 -159.598 -3
      vertex 153.5 -159.598 0
      vertex 153.315 -159.696 0
    endloop
  endfacet
  facet normal 0.529142 -0.848533 0
    outer loop
      vertex 153.678 -159.487 -3
      vertex 153.5 -159.598 0
      vertex 153.5 -159.598 -3
    endloop
  endfacet
  facet normal 0.529142 -0.848533 0
    outer loop
      vertex 153.678 -159.487 -3
      vertex 153.678 -159.487 0
      vertex 153.5 -159.598 0
    endloop
  endfacet
  facet normal 0.588456 -0.808529 0
    outer loop
      vertex 153.847 -159.364 -3
      vertex 153.678 -159.487 0
      vertex 153.678 -159.487 -3
    endloop
  endfacet
  facet normal 0.588456 -0.808529 0
    outer loop
      vertex 153.847 -159.364 -3
      vertex 153.847 -159.364 0
      vertex 153.678 -159.487 0
    endloop
  endfacet
  facet normal 0.644871 -0.764291 0
    outer loop
      vertex 154.007 -159.229 -3
      vertex 153.847 -159.364 0
      vertex 153.847 -159.364 -3
    endloop
  endfacet
  facet normal 0.644871 -0.764291 0
    outer loop
      vertex 154.007 -159.229 -3
      vertex 154.007 -159.229 0
      vertex 153.847 -159.364 0
    endloop
  endfacet
  facet normal 0.692631 -0.721292 0
    outer loop
      vertex 154.158 -159.084 -3
      vertex 154.007 -159.229 0
      vertex 154.007 -159.229 -3
    endloop
  endfacet
  facet normal 0.692631 -0.721292 0
    outer loop
      vertex 154.158 -159.084 -3
      vertex 154.158 -159.084 0
      vertex 154.007 -159.229 0
    endloop
  endfacet
  facet normal 0.744242 -0.66791 0
    outer loop
      vertex 154.298 -158.928 -3
      vertex 154.158 -159.084 0
      vertex 154.158 -159.084 -3
    endloop
  endfacet
  facet normal 0.744242 -0.66791 0
    outer loop
      vertex 154.298 -158.928 -3
      vertex 154.298 -158.928 0
      vertex 154.158 -159.084 0
    endloop
  endfacet
  facet normal 0.787807 -0.615922 0
    outer loop
      vertex 154.427 -158.763 -3
      vertex 154.298 -158.928 0
      vertex 154.298 -158.928 -3
    endloop
  endfacet
  facet normal 0.787807 -0.615922 0
    outer loop
      vertex 154.427 -158.763 -3
      vertex 154.427 -158.763 0
      vertex 154.298 -158.928 0
    endloop
  endfacet
  facet normal 0.828349 -0.560213 0
    outer loop
      vertex 154.544 -158.59 -3
      vertex 154.427 -158.763 0
      vertex 154.427 -158.763 -3
    endloop
  endfacet
  facet normal 0.828349 -0.560213 0
    outer loop
      vertex 154.544 -158.59 -3
      vertex 154.544 -158.59 0
      vertex 154.427 -158.763 0
    endloop
  endfacet
  facet normal 0.866186 -0.499722 0
    outer loop
      vertex 154.649 -158.408 -3
      vertex 154.544 -158.59 0
      vertex 154.544 -158.59 -3
    endloop
  endfacet
  facet normal 0.866186 -0.499722 0
    outer loop
      vertex 154.649 -158.408 -3
      vertex 154.649 -158.408 0
      vertex 154.544 -158.59 0
    endloop
  endfacet
  facet normal 0.898217 -0.439553 0
    outer loop
      vertex 154.741 -158.22 -3
      vertex 154.649 -158.408 0
      vertex 154.649 -158.408 -3
    endloop
  endfacet
  facet normal 0.898217 -0.439553 0
    outer loop
      vertex 154.741 -158.22 -3
      vertex 154.741 -158.22 0
      vertex 154.649 -158.408 0
    endloop
  endfacet
  facet normal 0.927816 -0.373039 0
    outer loop
      vertex 154.819 -158.026 -3
      vertex 154.741 -158.22 0
      vertex 154.741 -158.22 -3
    endloop
  endfacet
  facet normal 0.927816 -0.373039 0
    outer loop
      vertex 154.819 -158.026 -3
      vertex 154.819 -158.026 0
      vertex 154.741 -158.22 0
    endloop
  endfacet
  facet normal 0.950577 -0.31049 0
    outer loop
      vertex 154.884 -157.827 -3
      vertex 154.819 -158.026 0
      vertex 154.819 -158.026 -3
    endloop
  endfacet
  facet normal 0.950577 -0.31049 0
    outer loop
      vertex 154.884 -157.827 -3
      vertex 154.884 -157.827 0
      vertex 154.819 -158.026 0
    endloop
  endfacet
  facet normal 0.970981 -0.239158 0
    outer loop
      vertex 154.934 -157.624 -3
      vertex 154.884 -157.827 0
      vertex 154.884 -157.827 -3
    endloop
  endfacet
  facet normal 0.970981 -0.239158 0
    outer loop
      vertex 154.934 -157.624 -3
      vertex 154.934 -157.624 0
      vertex 154.884 -157.827 0
    endloop
  endfacet
  facet normal 0.98425 -0.176783 0
    outer loop
      vertex 154.971 -157.418 -3
      vertex 154.934 -157.624 0
      vertex 154.934 -157.624 -3
    endloop
  endfacet
  facet normal 0.98425 -0.176783 0
    outer loop
      vertex 154.971 -157.418 -3
      vertex 154.971 -157.418 0
      vertex 154.934 -157.624 0
    endloop
  endfacet
  facet normal 0.994505 -0.104685 0
    outer loop
      vertex 154.993 -157.209 -3
      vertex 154.971 -157.418 0
      vertex 154.971 -157.418 -3
    endloop
  endfacet
  facet normal 0.994505 -0.104685 0
    outer loop
      vertex 154.993 -157.209 -3
      vertex 154.993 -157.209 0
      vertex 154.971 -157.418 0
    endloop
  endfacet
  facet normal 0.99944 -0.0334741 0
    outer loop
      vertex 155 -157 -3
      vertex 154.993 -157.209 0
      vertex 154.993 -157.209 -3
    endloop
  endfacet
  facet normal 0.99944 -0.0334741 0
    outer loop
      vertex 155 -157 -3
      vertex 155 -157 0
      vertex 154.993 -157.209 0
    endloop
  endfacet
  facet normal 1 0 0
    outer loop
      vertex 155 157 -3
      vertex 155 -157 0
      vertex 155 -157 -3
    endloop
  endfacet
  facet normal 1 0 -0
    outer loop
      vertex 155 157 -3
      vertex 155 157 0
      vertex 155 -157 0
    endloop
  endfacet
  facet normal 0.99944 0.0334741 0
    outer loop
      vertex 154.993 157.209 -3
      vertex 155 157 0
      vertex 155 157 -3
    endloop
  endfacet
  facet normal 0.99944 0.0334741 -0
    outer loop
      vertex 154.993 157.209 -3
      vertex 154.993 157.209 0
      vertex 155 157 0
    endloop
  endfacet
  facet normal 0.994505 0.104685 0
    outer loop
      vertex 154.971 157.418 -3
      vertex 154.993 157.209 0
      vertex 154.993 157.209 -3
    endloop
  endfacet
  facet normal 0.994505 0.104685 -0
    outer loop
      vertex 154.971 157.418 -3
      vertex 154.971 157.418 0
      vertex 154.993 157.209 0
    endloop
  endfacet
  facet normal 0.98425 0.176783 0
    outer loop
      vertex 154.934 157.624 -3
      vertex 154.971 157.418 0
      vertex 154.971 157.418 -3
    endloop
  endfacet
  facet normal 0.98425 0.176783 -0
    outer loop
      vertex 154.934 157.624 -3
      vertex 154.934 157.624 0
      vertex 154.971 157.418 0
    endloop
  endfacet
  facet normal 0.970981 0.239158 0
    outer loop
      vertex 154.884 157.827 -3
      vertex 154.934 157.624 0
      vertex 154.934 157.624 -3
    endloop
  endfacet
  facet normal 0.970981 0.239158 -0
    outer loop
      vertex 154.884 157.827 -3
      vertex 154.884 157.827 0
      vertex 154.934 157.624 0
    endloop
  endfacet
  facet normal 0.950577 0.31049 0
    outer loop
      vertex 154.819 158.026 -3
      vertex 154.884 157.827 0
      vertex 154.884 157.827 -3
    endloop
  endfacet
  facet normal 0.950577 0.31049 -0
    outer loop
      vertex 154.819 158.026 -3
      vertex 154.819 158.026 0
      vertex 154.884 157.827 0
    endloop
  endfacet
  facet normal 0.927816 0.373039 0
    outer loop
      vertex 154.741 158.22 -3
      vertex 154.819 158.026 0
      vertex 154.819 158.026 -3
    endloop
  endfacet
  facet normal 0.927816 0.373039 -0
    outer loop
      vertex 154.741 158.22 -3
      vertex 154.741 158.22 0
      vertex 154.819 158.026 0
    endloop
  endfacet
  facet normal 0.898217 0.439553 0
    outer loop
      vertex 154.649 158.408 -3
      vertex 154.741 158.22 0
      vertex 154.741 158.22 -3
    endloop
  endfacet
  facet normal 0.898217 0.439553 -0
    outer loop
      vertex 154.649 158.408 -3
      vertex 154.649 158.408 0
      vertex 154.741 158.22 0
    endloop
  endfacet
  facet normal 0.866186 0.499722 0
    outer loop
      vertex 154.544 158.59 -3
      vertex 154.649 158.408 0
      vertex 154.649 158.408 -3
    endloop
  endfacet
  facet normal 0.866186 0.499722 -0
    outer loop
      vertex 154.544 158.59 -3
      vertex 154.544 158.59 0
      vertex 154.649 158.408 0
    endloop
  endfacet
  facet normal 0.828349 0.560213 0
    outer loop
      vertex 154.427 158.763 -3
      vertex 154.544 158.59 0
      vertex 154.544 158.59 -3
    endloop
  endfacet
  facet normal 0.828349 0.560213 -0
    outer loop
      vertex 154.427 158.763 -3
      vertex 154.427 158.763 0
      vertex 154.544 158.59 0
    endloop
  endfacet
  facet normal 0.787807 0.615922 0
    outer loop
      vertex 154.298 158.928 -3
      vertex 154.427 158.763 0
      vertex 154.427 158.763 -3
    endloop
  endfacet
  facet normal 0.787807 0.615922 -0
    outer loop
      vertex 154.298 158.928 -3
      vertex 154.298 158.928 0
      vertex 154.427 158.763 0
    endloop
  endfacet
  facet normal 0.744242 0.66791 0
    outer loop
      vertex 154.158 159.084 -3
      vertex 154.298 158.928 0
      vertex 154.298 158.928 -3
    endloop
  endfacet
  facet normal 0.744242 0.66791 -0
    outer loop
      vertex 154.158 159.084 -3
      vertex 154.158 159.084 0
      vertex 154.298 158.928 0
    endloop
  endfacet
  facet normal 0.692631 0.721292 0
    outer loop
      vertex 154.007 159.229 -3
      vertex 154.158 159.084 0
      vertex 154.158 159.084 -3
    endloop
  endfacet
  facet normal 0.692631 0.721292 -0
    outer loop
      vertex 154.007 159.229 -3
      vertex 154.007 159.229 0
      vertex 154.158 159.084 0
    endloop
  endfacet
  facet normal 0.644871 0.764291 0
    outer loop
      vertex 153.847 159.364 -3
      vertex 154.007 159.229 0
      vertex 154.007 159.229 -3
    endloop
  endfacet
  facet normal 0.644871 0.764291 -0
    outer loop
      vertex 153.847 159.364 -3
      vertex 153.847 159.364 0
      vertex 154.007 159.229 0
    endloop
  endfacet
  facet normal 0.588456 0.808529 0
    outer loop
      vertex 153.678 159.487 -3
      vertex 153.847 159.364 0
      vertex 153.847 159.364 -3
    endloop
  endfacet
  facet normal 0.588456 0.808529 -0
    outer loop
      vertex 153.678 159.487 -3
      vertex 153.678 159.487 0
      vertex 153.847 159.364 0
    endloop
  endfacet
  facet normal 0.529142 0.848533 0
    outer loop
      vertex 153.5 159.598 -3
      vertex 153.678 159.487 0
      vertex 153.678 159.487 -3
    endloop
  endfacet
  facet normal 0.529142 0.848533 -0
    outer loop
      vertex 153.5 159.598 -3
      vertex 153.5 159.598 0
      vertex 153.678 159.487 0
    endloop
  endfacet
  facet normal 0.468107 0.883672 0
    outer loop
      vertex 153.315 159.696 -3
      vertex 153.5 159.598 0
      vertex 153.5 159.598 -3
    endloop
  endfacet
  facet normal 0.468107 0.883672 -0
    outer loop
      vertex 153.315 159.696 -3
      vertex 153.315 159.696 0
      vertex 153.5 159.598 0
    endloop
  endfacet
  facet normal 0.410563 0.911832 0
    outer loop
      vertex 153.124 159.782 -3
      vertex 153.315 159.696 0
      vertex 153.315 159.696 -3
    endloop
  endfacet
  facet normal 0.410563 0.911832 -0
    outer loop
      vertex 153.124 159.782 -3
      vertex 153.124 159.782 0
      vertex 153.315 159.696 0
    endloop
  endfacet
  facet normal 0.339058 0.940766 0
    outer loop
      vertex 152.927 159.853 -3
      vertex 153.124 159.782 0
      vertex 153.124 159.782 -3
    endloop
  endfacet
  facet normal 0.339058 0.940766 -0
    outer loop
      vertex 152.927 159.853 -3
      vertex 152.927 159.853 0
      vertex 153.124 159.782 0
    endloop
  endfacet
  facet normal 0.277246 0.960799 0
    outer loop
      vertex 152.726 159.911 -3
      vertex 152.927 159.853 0
      vertex 152.927 159.853 -3
    endloop
  endfacet
  facet normal 0.277246 0.960799 -0
    outer loop
      vertex 152.726 159.911 -3
      vertex 152.726 159.911 0
      vertex 152.927 159.853 0
    endloop
  endfacet
  facet normal 0.205289 0.978701 0
    outer loop
      vertex 152.521 159.954 -3
      vertex 152.726 159.911 0
      vertex 152.726 159.911 -3
    endloop
  endfacet
  facet normal 0.205289 0.978701 -0
    outer loop
      vertex 152.521 159.954 -3
      vertex 152.521 159.954 0
      vertex 152.726 159.911 0
    endloop
  endfacet
  facet normal 0.143429 0.989661 0
    outer loop
      vertex 152.314 159.984 -3
      vertex 152.521 159.954 0
      vertex 152.521 159.954 -3
    endloop
  endfacet
  facet normal 0.143429 0.989661 -0
    outer loop
      vertex 152.314 159.984 -3
      vertex 152.314 159.984 0
      vertex 152.521 159.954 0
    endloop
  endfacet
  facet normal 0.0668359 0.997764 0
    outer loop
      vertex 152.105 159.998 -3
      vertex 152.314 159.984 0
      vertex 152.314 159.984 -3
    endloop
  endfacet
  facet normal 0.0668359 0.997764 -0
    outer loop
      vertex 152.105 159.998 -3
      vertex 152.105 159.998 0
      vertex 152.314 159.984 0
    endloop
  endfacet
  facet normal 0 1 0
    outer loop
      vertex 152.002 159.998 -3
      vertex 152.105 159.998 0
      vertex 152.105 159.998 -3
    endloop
  endfacet
  facet normal 0 1 0
    outer loop
      vertex 152.002 159.998 -3
      vertex 152.002 159.998 0
      vertex 152.105 159.998 0
    endloop
  endfacet
  facet normal 0.707107 0.707107 0
    outer loop
      vertex 152 160 -3
      vertex 152.002 159.998 0
      vertex 152.002 159.998 -3
    endloop
  endfacet
  facet normal 0.707107 0.707107 -0
    outer loop
      vertex 152 160 -3
      vertex 152 160 0
      vertex 152.002 159.998 0
    endloop
  endfacet
  facet normal 0 1 0
    outer loop
      vertex -152 160 -3
      vertex 152 160 0
      vertex 152 160 -3
    endloop
  endfacet
  facet normal 0 1 0
    outer loop
      vertex -152 160 -3
      vertex -152 160 0
      vertex 152 160 0
    endloop
  endfacet
  facet normal -0.707107 0.707107 0
    outer loop
      vertex -152.002 159.998 -3
      vertex -152 160 0
      vertex -152 160 -3
    endloop
  endfacet
  facet normal -0.707107 0.707107 0
    outer loop
      vertex -152.002 159.998 -3
      vertex -152.002 159.998 0
      vertex -152 160 0
    endloop
  endfacet
  facet normal 0 1 0
    outer loop
      vertex -152.105 159.998 -3
      vertex -152.002 159.998 0
      vertex -152.002 159.998 -3
    endloop
  endfacet
  facet normal 0 1 0
    outer loop
      vertex -152.105 159.998 -3
      vertex -152.105 159.998 0
      vertex -152.002 159.998 0
    endloop
  endfacet
  facet normal -0.0668359 0.997764 0
    outer loop
      vertex -152.314 159.984 -3
      vertex -152.105 159.998 0
      vertex -152.105 159.998 -3
    endloop
  endfacet
  facet normal -0.0668359 0.997764 0
    outer loop
      vertex -152.314 159.984 -3
      vertex -152.314 159.984 0
      vertex -152.105 159.998 0
    endloop
  endfacet
  facet normal -0.143429 0.989661 0
    outer loop
      vertex -152.521 159.954 -3
      vertex -152.314 159.984 0
      vertex -152.314 159.984 -3
    endloop
  endfacet
  facet normal -0.143429 0.989661 0
    outer loop
      vertex -152.521 159.954 -3
      vertex -152.521 159.954 0
      vertex -152.314 159.984 0
    endloop
  endfacet
  facet normal -0.205289 0.978701 0
    outer loop
      vertex -152.726 159.911 -3
      vertex -152.521 159.954 0
      vertex -152.521 159.954 -3
    endloop
  endfacet
  facet normal -0.205289 0.978701 0
    outer loop
      vertex -152.726 159.911 -3
      vertex -152.726 159.911 0
      vertex -152.521 159.954 0
    endloop
  endfacet
  facet normal -0.277246 0.960799 0
    outer loop
      vertex -152.927 159.853 -3
      vertex -152.726 159.911 0
      vertex -152.726 159.911 -3
    endloop
  endfacet
  facet normal -0.277246 0.960799 0
    outer loop
      vertex -152.927 159.853 -3
      vertex -152.927 159.853 0
      vertex -152.726 159.911 0
    endloop
  endfacet
  facet normal -0.339058 0.940766 0
    outer loop
      vertex -153.124 159.782 -3
      vertex -152.927 159.853 0
      vertex -152.927 159.853 -3
    endloop
  endfacet
  facet normal -0.339058 0.940766 0
    outer loop
      vertex -153.124 159.782 -3
      vertex -153.124 159.782 0
      vertex -152.927 159.853 0
    endloop
  endfacet
  facet normal -0.410563 0.911832 0
    outer loop
      vertex -153.315 159.696 -3
      vertex -153.124 159.782 0
      vertex -153.124 159.782 -3
    endloop
  endfacet
  facet normal -0.410563 0.911832 0
    outer loop
      vertex -153.315 159.696 -3
      vertex -153.315 159.696 0
      vertex -153.124 159.782 0
    endloop
  endfacet
  facet normal -0.468107 0.883672 0
    outer loop
      vertex -153.5 159.598 -3
      vertex -153.315 159.696 0
      vertex -153.315 159.696 -3
    endloop
  endfacet
  facet normal -0.468107 0.883672 0
    outer loop
      vertex -153.5 159.598 -3
      vertex -153.5 159.598 0
      vertex -153.315 159.696 0
    endloop
  endfacet
  facet normal -0.529142 0.848533 0
    outer loop
      vertex -153.678 159.487 -3
      vertex -153.5 159.598 0
      vertex -153.5 159.598 -3
    endloop
  endfacet
  facet normal -0.529142 0.848533 0
    outer loop
      vertex -153.678 159.487 -3
      vertex -153.678 159.487 0
      vertex -153.5 159.598 0
    endloop
  endfacet
  facet normal -0.588456 0.808529 0
    outer loop
      vertex -153.847 159.364 -3
      vertex -153.678 159.487 0
      vertex -153.678 159.487 -3
    endloop
  endfacet
  facet normal -0.588456 0.808529 0
    outer loop
      vertex -153.847 159.364 -3
      vertex -153.847 159.364 0
      vertex -153.678 159.487 0
    endloop
  endfacet
  facet normal -0.644871 0.764291 0
    outer loop
      vertex -154.007 159.229 -3
      vertex -153.847 159.364 0
      vertex -153.847 159.364 -3
    endloop
  endfacet
  facet normal -0.644871 0.764291 0
    outer loop
      vertex -154.007 159.229 -3
      vertex -154.007 159.229 0
      vertex -153.847 159.364 0
    endloop
  endfacet
  facet normal -0.692631 0.721292 0
    outer loop
      vertex -154.158 159.084 -3
      vertex -154.007 159.229 0
      vertex -154.007 159.229 -3
    endloop
  endfacet
  facet normal -0.692631 0.721292 0
    outer loop
      vertex -154.158 159.084 -3
      vertex -154.158 159.084 0
      vertex -154.007 159.229 0
    endloop
  endfacet
  facet normal -0.744242 0.66791 0
    outer loop
      vertex -154.298 158.928 -3
      vertex -154.158 159.084 0
      vertex -154.158 159.084 -3
    endloop
  endfacet
  facet normal -0.744242 0.66791 0
    outer loop
      vertex -154.298 158.928 -3
      vertex -154.298 158.928 0
      vertex -154.158 159.084 0
    endloop
  endfacet
  facet normal -0.787807 0.615922 0
    outer loop
      vertex -154.427 158.763 -3
      vertex -154.298 158.928 0
      vertex -154.298 158.928 -3
    endloop
  endfacet
  facet normal -0.787807 0.615922 0
    outer loop
      vertex -154.427 158.763 -3
      vertex -154.427 158.763 0
      vertex -154.298 158.928 0
    endloop
  endfacet
  facet normal -0.828349 0.560213 0
    outer loop
      vertex -154.544 158.59 -3
      vertex -154.427 158.763 0
      vertex -154.427 158.763 -3
    endloop
  endfacet
  facet normal -0.828349 0.560213 0
    outer loop
      vertex -154.544 158.59 -3
      vertex -154.544 158.59 0
      vertex -154.427 158.763 0
    endloop
  endfacet
  facet normal -0.866186 0.499722 0
    outer loop
      vertex -154.649 158.408 -3
      vertex -154.544 158.59 0
      vertex -154.544 158.59 -3
    endloop
  endfacet
  facet normal -0.866186 0.499722 0
    outer loop
      vertex -154.649 158.408 -3
      vertex -154.649 158.408 0
      vertex -154.544 158.59 0
    endloop
  endfacet
  facet normal -0.898217 0.439553 0
    outer loop
      vertex -154.741 158.22 -3
      vertex -154.649 158.408 0
      vertex -154.649 158.408 -3
    endloop
  endfacet
  facet normal -0.898217 0.439553 0
    outer loop
      vertex -154.741 158.22 -3
      vertex -154.741 158.22 0
      vertex -154.649 158.408 0
    endloop
  endfacet
  facet normal -0.927816 0.373039 0
    outer loop
      vertex -154.819 158.026 -3
      vertex -154.741 158.22 0
      vertex -154.741 158.22 -3
    endloop
  endfacet
  facet normal -0.927816 0.373039 0
    outer loop
      vertex -154.819 158.026 -3
      vertex -154.819 158.026 0
      vertex -154.741 158.22 0
    endloop
  endfacet
  facet normal -0.950577 0.31049 0
    outer loop
      vertex -154.884 157.827 -3
      vertex -154.819 158.026 0
      vertex -154.819 158.026 -3
    endloop
  endfacet
  facet normal -0.950577 0.31049 0
    outer loop
      vertex -154.884 157.827 -3
      vertex -154.884 157.827 0
      vertex -154.819 158.026 0
    endloop
  endfacet
  facet normal -0.970981 0.239158 0
    outer loop
      vertex -154.934 157.624 -3
      vertex -154.884 157.827 0
      vertex -154.884 157.827 -3
    endloop
  endfacet
  facet normal -0.970981 0.239158 0
    outer loop
      vertex -154.934 157.624 -3
      vertex -154.934 157.624 0
      vertex -154.884 157.827 0
    endloop
  endfacet
  facet normal -0.98425 0.176783 0
    outer loop
      vertex -154.971 157.418 -3
      vertex -154.934 157.624 0
      vertex -154.934 157.624 -3
    endloop
  endfacet
  facet normal -0.98425 0.176783 0
    outer loop
      vertex -154.971 157.418 -3
      vertex -154.971 157.418 0
      vertex -154.934 157.624 0
    endloop
  endfacet
  facet normal -0.994505 0.104685 0
    outer loop
      vertex -154.993 157.209 -3
      vertex -154.971 157.418 0
      vertex -154.971 157.418 -3
    endloop
  endfacet
  facet normal -0.994505 0.104685 0
    outer loop
      vertex -154.993 157.209 -3
      vertex -154.993 157.209 0
      vertex -154.971 157.418 0
    endloop
  endfacet
  facet normal -0.99944 0.0334741 0
    outer loop
      vertex -155 157 -3
      vertex -154.993 157.209 0
      vertex -154.993 157.209 -3
    endloop
  endfacet
  facet normal -0.99944 0.0334741 0
    outer loop
      vertex -155 157 -3
      vertex -155 157 0
      vertex -154.993 157.209 0
    endloop
  endfacet
  facet normal -1 0 0
    outer loop
      vertex -155 -157 -3
      vertex -155 157 0
      vertex -155 157 -3
    endloop
  endfacet
  facet normal -1 0 0
    outer loop
      vertex -155 -157 -3
      vertex -155 -157 0
      vertex -155 157 0
    endloop
  endfacet
  facet normal -0.99944 -0.0334741 0
    outer loop
      vertex -154.993 -157.209 -3
      vertex -155 -157 0
      vertex -155 -157 -3
    endloop
  endfacet
  facet normal -0.99944 -0.0334741 0
    outer loop
      vertex -154.993 -157.209 -3
      vertex -154.993 -157.209 0
      vertex -155 -157 0
    endloop
  endfacet
  facet normal -0.994505 -0.104685 0
    outer loop
      vertex -154.971 -157.418 -3
      vertex -154.993 -157.209 0
      vertex -154.993 -157.209 -3
    endloop
  endfacet
  facet normal -0.994505 -0.104685 0
    outer loop
      vertex -154.971 -157.418 -3
      vertex -154.971 -157.418 0
      vertex -154.993 -157.209 0
    endloop
  endfacet
  facet normal -0.98425 -0.176783 0
    outer loop
      vertex -154.934 -157.624 -3
      vertex -154.971 -157.418 0
      vertex -154.971 -157.418 -3
    endloop
  endfacet
  facet normal -0.98425 -0.176783 0
    outer loop
      vertex -154.934 -157.624 -3
      vertex -154.934 -157.624 0
      vertex -154.971 -157.418 0
    endloop
  endfacet
  facet normal -0.970981 -0.239158 0
    outer loop
      vertex -154.884 -157.827 -3
      vertex -154.934 -157.624 0
      vertex -154.934 -157.624 -3
    endloop
  endfacet
  facet normal -0.970981 -0.239158 0
    outer loop
      vertex -154.884 -157.827 -3
      vertex -154.884 -157.827 0
      vertex -154.934 -157.624 0
    endloop
  endfacet
  facet normal -0.950577 -0.31049 0
    outer loop
      vertex -154.819 -158.026 -3
      vertex -154.884 -157.827 0
      vertex -154.884 -157.827 -3
    endloop
  endfacet
  facet normal -0.950577 -0.31049 0
    outer loop
      vertex -154.819 -158.026 -3
      vertex -154.819 -158.026 0
      vertex -154.884 -157.827 0
    endloop
  endfacet
  facet normal -0.927816 -0.373039 0
    outer loop
      vertex -154.741 -158.22 -3
      vertex -154.819 -158.026 0
      vertex -154.819 -158.026 -3
    endloop
  endfacet
  facet normal -0.927816 -0.373039 0
    outer loop
      vertex -154.741 -158.22 -3
      vertex -154.741 -158.22 0
      vertex -154.819 -158.026 0
    endloop
  endfacet
  facet normal -0.898217 -0.439553 0
    outer loop
      vertex -154.649 -158.408 -3
      vertex -154.741 -158.22 0
      vertex -154.741 -158.22 -3
    endloop
  endfacet
  facet normal -0.898217 -0.439553 0
    outer loop
      vertex -154.649 -158.408 -3
      vertex -154.649 -158.408 0
      vertex -154.741 -158.22 0
    endloop
  endfacet
  facet normal -0.866186 -0.499722 0
    outer loop
      vertex -154.544 -158.59 -3
      vertex -154.649 -158.408 0
      vertex -154.649 -158.408 -3
    endloop
  endfacet
  facet normal -0.866186 -0.499722 0
    outer loop
      vertex -154.544 -158.59 -3
      vertex -154.544 -158.59 0
      vertex -154.649 -158.408 0
    endloop
  endfacet
  facet normal -0.828349 -0.560213 0
    outer loop
      vertex -154.427 -158.763 -3
      vertex -154.544 -158.59 0
      vertex -154.544 -158.59 -3
    endloop
  endfacet
  facet normal -0.828349 -0.560213 0
    outer loop
      vertex -154.427 -158.763 -3
      vertex -154.427 -158.763 0
      vertex -154.544 -158.59 0
    endloop
  endfacet
  facet normal -0.787807 -0.615922 0
    outer loop
      vertex -154.298 -158.928 -3
      vertex -154.427 -158.763 0
      vertex -154.427 -158.763 -3
    endloop
  endfacet
  facet normal -0.787807 -0.615922 0
    outer loop
      vertex -154.298 -158.928 -3
      vertex -154.298 -158.928 0
      vertex -154.427 -158.763 0
    endloop
  endfacet
  facet normal -0.744242 -0.66791 0
    outer loop
      vertex -154.158 -159.084 -3
      vertex -154.298 -158.928 0
      vertex -154.298 -158.928 -3
    endloop
  endfacet
  facet normal -0.744242 -0.66791 0
    outer loop
      vertex -154.158 -159.084 -3
      vertex -154.158 -159.084 0
      vertex -154.298 -158.928 0
    endloop
  endfacet
  facet normal -0.692631 -0.721292 0
    outer loop
      vertex -154.007 -159.229 -3
      vertex -154.158 -159.084 0
      vertex -154.158 -159.084 -3
    endloop
  endfacet
  facet normal -0.692631 -0.721292 0
    outer loop
      vertex -154.007 -159.229 -3
      vertex -154.007 -159.229 0
      vertex -154.158 -159.084 0
    endloop
  endfacet
  facet normal -0.644871 -0.764291 0
    outer loop
      vertex -153.847 -159.364 -3
      vertex -154.007 -159.229 0
      vertex -154.007 -159.229 -3
    endloop
  endfacet
  facet normal -0.644871 -0.764291 0
    outer loop
      vertex -153.847 -159.364 -3
      vertex -153.847 -159.364 0
      vertex -154.007 -159.229 0
    endloop
  endfacet
  facet normal -0.588456 -0.808529 0
    outer loop
      vertex -153.678 -159.487 -3
      vertex -153.847 -159.364 0
      vertex -153.847 -159.364 -3
    endloop
  endfacet
  facet normal -0.588456 -0.808529 0
    outer loop
      vertex -153.678 -159.487 -3
      vertex -153.678 -159.487 0
      vertex -153.847 -159.364 0
    endloop
  endfacet
  facet normal -0.529142 -0.848533 0
    outer loop
      vertex -153.5 -159.598 -3
      vertex -153.678 -159.487 0
      vertex -153.678 -159.487 -3
    endloop
  endfacet
  facet normal -0.529142 -0.848533 0
    outer loop
      vertex -153.5 -159.598 -3
      vertex -153.5 -159.598 0
      vertex -153.678 -159.487 0
    endloop
  endfacet
  facet normal -0.468107 -0.883672 0
    outer loop
      vertex -153.315 -159.696 -3
      vertex -153.5 -159.598 0
      vertex -153.5 -159.598 -3
    endloop
  endfacet
  facet normal -0.468107 -0.883672 0
    outer loop
      vertex -153.315 -159.696 -3
      vertex -153.315 -159.696 0
      vertex -153.5 -159.598 0
    endloop
  endfacet
  facet normal -0.410563 -0.911832 0
    outer loop
      vertex -153.124 -159.782 -3
      vertex -153.315 -159.696 0
      vertex -153.315 -159.696 -3
    endloop
  endfacet
  facet normal -0.410563 -0.911832 0
    outer loop
      vertex -153.124 -159.782 -3
      vertex -153.124 -159.782 0
      vertex -153.315 -159.696 0
    endloop
  endfacet
  facet normal -0.339058 -0.940766 0
    outer loop
      vertex -152.927 -159.853 -3
      vertex -153.124 -159.782 0
      vertex -153.124 -159.782 -3
    endloop
  endfacet
  facet normal -0.339058 -0.940766 0
    outer loop
      vertex -152.927 -159.853 -3
      vertex -152.927 -159.853 0
      vertex -153.124 -159.782 0
    endloop
  endfacet
  facet normal -0.277246 -0.960799 0
    outer loop
      vertex -152.726 -159.911 -3
      vertex -152.927 -159.853 0
      vertex -152.927 -159.853 -3
    endloop
  endfacet
  facet normal -0.277246 -0.960799 0
    outer loop
      vertex -152.726 -159.911 -3
      vertex -152.726 -159.911 0
      vertex -152.927 -159.853 0
    endloop
  endfacet
  facet normal -0.205289 -0.978701 0
    outer loop
      vertex -152.521 -159.954 -3
      vertex -152.726 -159.911 0
      vertex -152.726 -159.911 -3
    endloop
  endfacet
  facet normal -0.205289 -0.978701 0
    outer loop
      vertex -152.521 -159.954 -3
      vertex -152.521 -159.954 0
      vertex -152.726 -159.911 0
    endloop
  endfacet
  facet normal -0.143429 -0.989661 0
    outer loop
      vertex -152.314 -159.984 -3
      vertex -152.521 -159.954 0
      vertex -152.521 -159.954 -3
    endloop
  endfacet
  facet normal -0.143429 -0.989661 0
    outer loop
      vertex -152.314 -159.984 -3
      vertex -152.314 -159.984 0
      vertex -152.521 -159.954 0
    endloop
  endfacet
  facet normal -0.0668359 -0.997764 0
    outer loop
      vertex -152.105 -159.998 -3
      vertex -152.314 -159.984 0
      vertex -152.314 -159.984 -3
    endloop
  endfacet
  facet normal -0.0668359 -0.997764 0
    outer loop
      vertex -152.105 -159.998 -3
      vertex -152.105 -159.998 0
      vertex -152.314 -159.984 0
    endloop
  endfacet
  facet normal 0 -1 0
    outer loop
      vertex -152.002 -159.998 -3
      vertex -152.105 -159.998 0
      vertex -152.105 -159.998 -3
    endloop
  endfacet
  facet normal 0 -1 0
    outer loop
      vertex -152.002 -159.998 -3
      vertex -152.002 -159.998 0
      vertex -152.105 -159.998 0
    endloop
  endfacet
  facet normal -0.707107 -0.707107 0
    outer loop
      vertex -152 -160 -3
      vertex -152.002 -159.998 0
      vertex -152.002 -159.998 -3
    endloop
  endfacet
  facet normal -0.707107 -0.707107 0
    outer loop
      vertex -152 -160 -3
      vertex -152 -160 0
      vertex -152.002 -159.998 0
    endloop
  endfacet
  facet normal 0 -1 0
    outer loop
      vertex 152 -160 -3
      vertex -152 -160 0
      vertex -152 -160 -3
    endloop
  endfacet
  facet normal 0 -1 0
    outer loop
      vertex 152 -160 -3
      vertex 152 -160 0
      vertex -152 -160 0
    endloop
  endfacet
  facet normal 0.707107 -0.707107 0
    outer loop
      vertex 152.002 -159.998 -3
      vertex 152 -160 0
      vertex 152 -160 -3
    endloop
  endfacet
  facet normal 0.707107 -0.707107 0
    outer loop
      vertex 152.002 -159.998 -3
      vertex 152.002 -159.998 0
      vertex 152 -160 0
    endloop
  endfacet
endsolid OpenSCAD_Model
