solid OpenSCAD_Model
  facet normal 0 0 -1
    outer loop
      vertex 232.105 -234.998 -3
      vertex 232.002 -234.998 -3
      vertex 232.314 -234.984 -3
    endloop
  endfacet
  facet normal -0 0 -1
    outer loop
      vertex 232.314 -234.984 -3
      vertex 232.002 -234.998 -3
      vertex 232.521 -234.954 -3
    endloop
  endfacet
  facet normal -0 0 -1
    outer loop
      vertex 235 -232 -3
      vertex 232.002 -234.998 -3
      vertex 232.002 234.998 -3
    endloop
  endfacet
  facet normal -0 0 -1
    outer loop
      vertex 232.521 -234.954 -3
      vertex 232.002 -234.998 -3
      vertex 232.726 -234.911 -3
    endloop
  endfacet
  facet normal -0 0 -1
    outer loop
      vertex 232.726 -234.911 -3
      vertex 232.002 -234.998 -3
      vertex 232.927 -234.853 -3
    endloop
  endfacet
  facet normal -0 0 -1
    outer loop
      vertex 232.927 -234.853 -3
      vertex 232.002 -234.998 -3
      vertex 233.124 -234.782 -3
    endloop
  endfacet
  facet normal -0 0 -1
    outer loop
      vertex 233.124 -234.782 -3
      vertex 232.002 -234.998 -3
      vertex 233.315 -234.696 -3
    endloop
  endfacet
  facet normal -0 0 -1
    outer loop
      vertex 233.315 -234.696 -3
      vertex 232.002 -234.998 -3
      vertex 233.5 -234.598 -3
    endloop
  endfacet
  facet normal -0 0 -1
    outer loop
      vertex 233.5 -234.598 -3
      vertex 232.002 -234.998 -3
      vertex 233.678 -234.487 -3
    endloop
  endfacet
  facet normal -0 0 -1
    outer loop
      vertex 233.678 -234.487 -3
      vertex 232.002 -234.998 -3
      vertex 233.847 -234.364 -3
    endloop
  endfacet
  facet normal -0 0 -1
    outer loop
      vertex 233.847 -234.364 -3
      vertex 232.002 -234.998 -3
      vertex 234.007 -234.229 -3
    endloop
  endfacet
  facet normal -0 0 -1
    outer loop
      vertex 234.007 -234.229 -3
      vertex 232.002 -234.998 -3
      vertex 234.158 -234.084 -3
    endloop
  endfacet
  facet normal -0 0 -1
    outer loop
      vertex 234.158 -234.084 -3
      vertex 232.002 -234.998 -3
      vertex 234.298 -233.928 -3
    endloop
  endfacet
  facet normal -0 0 -1
    outer loop
      vertex 234.298 -233.928 -3
      vertex 232.002 -234.998 -3
      vertex 234.427 -233.763 -3
    endloop
  endfacet
  facet normal -0 0 -1
    outer loop
      vertex 234.427 -233.763 -3
      vertex 232.002 -234.998 -3
      vertex 234.544 -233.59 -3
    endloop
  endfacet
  facet normal -0 0 -1
    outer loop
      vertex 234.544 -233.59 -3
      vertex 232.002 -234.998 -3
      vertex 234.649 -233.408 -3
    endloop
  endfacet
  facet normal -0 0 -1
    outer loop
      vertex 234.649 -233.408 -3
      vertex 232.002 -234.998 -3
      vertex 234.741 -233.22 -3
    endloop
  endfacet
  facet normal -0 0 -1
    outer loop
      vertex 234.741 -233.22 -3
      vertex 232.002 -234.998 -3
      vertex 234.819 -233.026 -3
    endloop
  endfacet
  facet normal -0 0 -1
    outer loop
      vertex 234.819 -233.026 -3
      vertex 232.002 -234.998 -3
      vertex 234.884 -232.827 -3
    endloop
  endfacet
  facet normal -0 0 -1
    outer loop
      vertex 234.884 -232.827 -3
      vertex 232.002 -234.998 -3
      vertex 234.934 -232.624 -3
    endloop
  endfacet
  facet normal -0 0 -1
    outer loop
      vertex 234.934 -232.624 -3
      vertex 232.002 -234.998 -3
      vertex 234.971 -232.418 -3
    endloop
  endfacet
  facet normal -0 0 -1
    outer loop
      vertex 234.971 -232.418 -3
      vertex 232.002 -234.998 -3
      vertex 234.993 -232.209 -3
    endloop
  endfacet
  facet normal -0 0 -1
    outer loop
      vertex 234.993 -232.209 -3
      vertex 232.002 -234.998 -3
      vertex 235 -232 -3
    endloop
  endfacet
  facet normal 0 0 -1
    outer loop
      vertex 235 -232 -3
      vertex 232.002 234.998 -3
      vertex 235 232 -3
    endloop
  endfacet
  facet normal 0 0 -1
    outer loop
      vertex 232.002 234.998 -3
      vertex 234.971 232.418 -3
      vertex 234.993 232.209 -3
    endloop
  endfacet
  facet normal -0 -0 -1
    outer loop
      vertex 234.884 232.827 -3
      vertex 234.934 232.624 -3
      vertex 232.002 234.998 -3
    endloop
  endfacet
  facet normal 0 0 -1
    outer loop
      vertex 234.741 233.22 -3
      vertex 232.002 234.998 -3
      vertex 234.649 233.408 -3
    endloop
  endfacet
  facet normal -0 -0 -1
    outer loop
      vertex 234.741 233.22 -3
      vertex 234.819 233.026 -3
      vertex 232.002 234.998 -3
    endloop
  endfacet
  facet normal 0 0 -1
    outer loop
      vertex 232.002 234.998 -3
      vertex 234.007 234.229 -3
      vertex 234.158 234.084 -3
    endloop
  endfacet
  facet normal 0 0 -1
    outer loop
      vertex 234.427 233.763 -3
      vertex 232.002 234.998 -3
      vertex 234.298 233.928 -3
    endloop
  endfacet
  facet normal -0 -0 -1
    outer loop
      vertex 234.427 233.763 -3
      vertex 234.544 233.59 -3
      vertex 232.002 234.998 -3
    endloop
  endfacet
  facet normal 0 0 -1
    outer loop
      vertex 234.298 233.928 -3
      vertex 232.002 234.998 -3
      vertex 234.158 234.084 -3
    endloop
  endfacet
  facet normal 0 0 -1
    outer loop
      vertex 232.002 234.998 -3
      vertex 232.927 234.853 -3
      vertex 233.124 234.782 -3
    endloop
  endfacet
  facet normal 0 0 -1
    outer loop
      vertex 233.847 234.364 -3
      vertex 232.002 234.998 -3
      vertex 233.678 234.487 -3
    endloop
  endfacet
  facet normal -0 -0 -1
    outer loop
      vertex 233.847 234.364 -3
      vertex 234.007 234.229 -3
      vertex 232.002 234.998 -3
    endloop
  endfacet
  facet normal 0 0 -1
    outer loop
      vertex 233.678 234.487 -3
      vertex 232.002 234.998 -3
      vertex 233.5 234.598 -3
    endloop
  endfacet
  facet normal 0 0 -1
    outer loop
      vertex 233.5 234.598 -3
      vertex 232.002 234.998 -3
      vertex 233.315 234.696 -3
    endloop
  endfacet
  facet normal 0 0 -1
    outer loop
      vertex 233.315 234.696 -3
      vertex 232.002 234.998 -3
      vertex 233.124 234.782 -3
    endloop
  endfacet
  facet normal 0 0 -1
    outer loop
      vertex 234.649 233.408 -3
      vertex 232.002 234.998 -3
      vertex 234.544 233.59 -3
    endloop
  endfacet
  facet normal 0 0 -1
    outer loop
      vertex 232.726 234.911 -3
      vertex 232.002 234.998 -3
      vertex 232.521 234.954 -3
    endloop
  endfacet
  facet normal -0 -0 -1
    outer loop
      vertex 232.726 234.911 -3
      vertex 232.927 234.853 -3
      vertex 232.002 234.998 -3
    endloop
  endfacet
  facet normal -0 -0 -1
    outer loop
      vertex 234.819 233.026 -3
      vertex 234.884 232.827 -3
      vertex 232.002 234.998 -3
    endloop
  endfacet
  facet normal -0 -0 -1
    outer loop
      vertex 232.314 234.984 -3
      vertex 232.521 234.954 -3
      vertex 232.002 234.998 -3
    endloop
  endfacet
  facet normal 0 0 -1
    outer loop
      vertex 232.002 234.998 -3
      vertex 234.934 232.624 -3
      vertex 234.971 232.418 -3
    endloop
  endfacet
  facet normal 0 0 -1
    outer loop
      vertex 232.002 234.998 -3
      vertex 232.105 234.998 -3
      vertex 232.314 234.984 -3
    endloop
  endfacet
  facet normal 0 0 -1
    outer loop
      vertex 235 232 -3
      vertex 232.002 234.998 -3
      vertex 234.993 232.209 -3
    endloop
  endfacet
  facet normal 0 -0 -1
    outer loop
      vertex -232 235 -3
      vertex 232 235 -3
      vertex -232.002 234.998 -3
    endloop
  endfacet
  facet normal 0 0 -1
    outer loop
      vertex -232.002 234.998 -3
      vertex 232 235 -3
      vertex 232.002 234.998 -3
    endloop
  endfacet
  facet normal 0 0 -1
    outer loop
      vertex 232.002 -234.998 -3
      vertex -232.002 234.998 -3
      vertex 232.002 234.998 -3
    endloop
  endfacet
  facet normal 0 0 -1
    outer loop
      vertex -235 -232 -3
      vertex -235 232 -3
      vertex -232.002 -234.998 -3
    endloop
  endfacet
  facet normal -0 0 -1
    outer loop
      vertex -232.002 234.998 -3
      vertex -232.314 234.984 -3
      vertex -232.105 234.998 -3
    endloop
  endfacet
  facet normal 0 0 -1
    outer loop
      vertex -232.002 234.998 -3
      vertex -232.521 234.954 -3
      vertex -232.314 234.984 -3
    endloop
  endfacet
  facet normal 0 0 -1
    outer loop
      vertex -232.002 234.998 -3
      vertex -232.726 234.911 -3
      vertex -232.521 234.954 -3
    endloop
  endfacet
  facet normal 0 0 -1
    outer loop
      vertex -232.002 234.998 -3
      vertex -232.927 234.853 -3
      vertex -232.726 234.911 -3
    endloop
  endfacet
  facet normal 0 0 -1
    outer loop
      vertex -232.002 234.998 -3
      vertex -233.124 234.782 -3
      vertex -232.927 234.853 -3
    endloop
  endfacet
  facet normal 0 0 -1
    outer loop
      vertex -232.002 234.998 -3
      vertex -233.315 234.696 -3
      vertex -233.124 234.782 -3
    endloop
  endfacet
  facet normal 0 0 -1
    outer loop
      vertex -232.002 234.998 -3
      vertex -233.5 234.598 -3
      vertex -233.315 234.696 -3
    endloop
  endfacet
  facet normal 0 0 -1
    outer loop
      vertex -232.002 234.998 -3
      vertex -233.678 234.487 -3
      vertex -233.5 234.598 -3
    endloop
  endfacet
  facet normal 0 0 -1
    outer loop
      vertex -232.002 234.998 -3
      vertex -233.847 234.364 -3
      vertex -233.678 234.487 -3
    endloop
  endfacet
  facet normal 0 0 -1
    outer loop
      vertex -232.002 234.998 -3
      vertex -234.007 234.229 -3
      vertex -233.847 234.364 -3
    endloop
  endfacet
  facet normal 0 0 -1
    outer loop
      vertex -232.002 234.998 -3
      vertex -234.158 234.084 -3
      vertex -234.007 234.229 -3
    endloop
  endfacet
  facet normal 0 0 -1
    outer loop
      vertex -232.002 234.998 -3
      vertex -234.298 233.928 -3
      vertex -234.158 234.084 -3
    endloop
  endfacet
  facet normal 0 0 -1
    outer loop
      vertex -232.002 234.998 -3
      vertex -234.427 233.763 -3
      vertex -234.298 233.928 -3
    endloop
  endfacet
  facet normal 0 0 -1
    outer loop
      vertex -232.002 234.998 -3
      vertex -234.544 233.59 -3
      vertex -234.427 233.763 -3
    endloop
  endfacet
  facet normal 0 0 -1
    outer loop
      vertex -232.002 234.998 -3
      vertex -234.649 233.408 -3
      vertex -234.544 233.59 -3
    endloop
  endfacet
  facet normal 0 0 -1
    outer loop
      vertex -232.002 234.998 -3
      vertex -234.741 233.22 -3
      vertex -234.649 233.408 -3
    endloop
  endfacet
  facet normal 0 0 -1
    outer loop
      vertex -232.002 234.998 -3
      vertex -234.819 233.026 -3
      vertex -234.741 233.22 -3
    endloop
  endfacet
  facet normal 0 0 -1
    outer loop
      vertex -232.002 234.998 -3
      vertex -234.884 232.827 -3
      vertex -234.819 233.026 -3
    endloop
  endfacet
  facet normal 0 0 -1
    outer loop
      vertex -232.002 234.998 -3
      vertex -234.934 232.624 -3
      vertex -234.884 232.827 -3
    endloop
  endfacet
  facet normal 0 0 -1
    outer loop
      vertex -232.002 234.998 -3
      vertex -234.971 232.418 -3
      vertex -234.934 232.624 -3
    endloop
  endfacet
  facet normal 0 0 -1
    outer loop
      vertex -232.002 234.998 -3
      vertex -234.993 232.209 -3
      vertex -234.971 232.418 -3
    endloop
  endfacet
  facet normal 0 0 -1
    outer loop
      vertex -232.002 234.998 -3
      vertex -235 232 -3
      vertex -234.993 232.209 -3
    endloop
  endfacet
  facet normal 0 0 -1
    outer loop
      vertex -232.002 -234.998 -3
      vertex -235 232 -3
      vertex -232.002 234.998 -3
    endloop
  endfacet
  facet normal 0 0 -1
    outer loop
      vertex 232.002 -234.998 -3
      vertex -232.002 -234.998 -3
      vertex -232.002 234.998 -3
    endloop
  endfacet
  facet normal 0 0 -1
    outer loop
      vertex -232.002 -234.998 -3
      vertex -234.971 -232.418 -3
      vertex -234.993 -232.209 -3
    endloop
  endfacet
  facet normal 0 0 -1
    outer loop
      vertex -234.884 -232.827 -3
      vertex -234.934 -232.624 -3
      vertex -232.002 -234.998 -3
    endloop
  endfacet
  facet normal 0 0 -1
    outer loop
      vertex -234.741 -233.22 -3
      vertex -232.002 -234.998 -3
      vertex -234.649 -233.408 -3
    endloop
  endfacet
  facet normal 0 0 -1
    outer loop
      vertex -234.741 -233.22 -3
      vertex -234.819 -233.026 -3
      vertex -232.002 -234.998 -3
    endloop
  endfacet
  facet normal 0 0 -1
    outer loop
      vertex -232.002 -234.998 -3
      vertex -234.007 -234.229 -3
      vertex -234.158 -234.084 -3
    endloop
  endfacet
  facet normal 0 0 -1
    outer loop
      vertex -234.427 -233.763 -3
      vertex -232.002 -234.998 -3
      vertex -234.298 -233.928 -3
    endloop
  endfacet
  facet normal 0 0 -1
    outer loop
      vertex -234.427 -233.763 -3
      vertex -234.544 -233.59 -3
      vertex -232.002 -234.998 -3
    endloop
  endfacet
  facet normal 0 0 -1
    outer loop
      vertex -234.298 -233.928 -3
      vertex -232.002 -234.998 -3
      vertex -234.158 -234.084 -3
    endloop
  endfacet
  facet normal 0 0 -1
    outer loop
      vertex -232.002 -234.998 -3
      vertex -232.927 -234.853 -3
      vertex -233.124 -234.782 -3
    endloop
  endfacet
  facet normal 0 0 -1
    outer loop
      vertex -233.847 -234.364 -3
      vertex -232.002 -234.998 -3
      vertex -233.678 -234.487 -3
    endloop
  endfacet
  facet normal 0 0 -1
    outer loop
      vertex -233.847 -234.364 -3
      vertex -234.007 -234.229 -3
      vertex -232.002 -234.998 -3
    endloop
  endfacet
  facet normal 0 0 -1
    outer loop
      vertex -233.678 -234.487 -3
      vertex -232.002 -234.998 -3
      vertex -233.5 -234.598 -3
    endloop
  endfacet
  facet normal 0 0 -1
    outer loop
      vertex -233.5 -234.598 -3
      vertex -232.002 -234.998 -3
      vertex -233.315 -234.696 -3
    endloop
  endfacet
  facet normal 0 0 -1
    outer loop
      vertex -233.315 -234.696 -3
      vertex -232.002 -234.998 -3
      vertex -233.124 -234.782 -3
    endloop
  endfacet
  facet normal 0 0 -1
    outer loop
      vertex -234.649 -233.408 -3
      vertex -232.002 -234.998 -3
      vertex -234.544 -233.59 -3
    endloop
  endfacet
  facet normal 0 0 -1
    outer loop
      vertex -232.726 -234.911 -3
      vertex -232.002 -234.998 -3
      vertex -232.521 -234.954 -3
    endloop
  endfacet
  facet normal 0 0 -1
    outer loop
      vertex -232.726 -234.911 -3
      vertex -232.927 -234.853 -3
      vertex -232.002 -234.998 -3
    endloop
  endfacet
  facet normal 0 0 -1
    outer loop
      vertex -234.819 -233.026 -3
      vertex -234.884 -232.827 -3
      vertex -232.002 -234.998 -3
    endloop
  endfacet
  facet normal 0 0 -1
    outer loop
      vertex -232.314 -234.984 -3
      vertex -232.521 -234.954 -3
      vertex -232.002 -234.998 -3
    endloop
  endfacet
  facet normal 0 0 -1
    outer loop
      vertex -232.002 -234.998 -3
      vertex -234.934 -232.624 -3
      vertex -234.971 -232.418 -3
    endloop
  endfacet
  facet normal 0 0 -1
    outer loop
      vertex -232.002 -234.998 -3
      vertex -232.105 -234.998 -3
      vertex -232.314 -234.984 -3
    endloop
  endfacet
  facet normal -0 0 -1
    outer loop
      vertex 232.002 -234.998 -3
      vertex 232 -235 -3
      vertex -232.002 -234.998 -3
    endloop
  endfacet
  facet normal 0 0 -1
    outer loop
      vertex -232.002 -234.998 -3
      vertex 232 -235 -3
      vertex -232 -235 -3
    endloop
  endfacet
  facet normal 0 0 -1
    outer loop
      vertex -235 -232 -3
      vertex -232.002 -234.998 -3
      vertex -234.993 -232.209 -3
    endloop
  endfacet
  facet normal 0 0 1
    outer loop
      vertex 232.314 -234.984 0
      vertex 232.002 -234.998 0
      vertex 232.105 -234.998 0
    endloop
  endfacet
  facet normal 0 0 1
    outer loop
      vertex 232.521 -234.954 0
      vertex 232.002 -234.998 0
      vertex 232.314 -234.984 0
    endloop
  endfacet
  facet normal 0 0 1
    outer loop
      vertex 232.002 234.998 0
      vertex 232.002 -234.998 0
      vertex 235 -232 0
    endloop
  endfacet
  facet normal 0 0 1
    outer loop
      vertex 232.726 -234.911 0
      vertex 232.002 -234.998 0
      vertex 232.521 -234.954 0
    endloop
  endfacet
  facet normal 0 0 1
    outer loop
      vertex 232.927 -234.853 0
      vertex 232.002 -234.998 0
      vertex 232.726 -234.911 0
    endloop
  endfacet
  facet normal 0 0 1
    outer loop
      vertex 233.124 -234.782 0
      vertex 232.002 -234.998 0
      vertex 232.927 -234.853 0
    endloop
  endfacet
  facet normal 0 0 1
    outer loop
      vertex 233.315 -234.696 0
      vertex 232.002 -234.998 0
      vertex 233.124 -234.782 0
    endloop
  endfacet
  facet normal 0 0 1
    outer loop
      vertex 233.5 -234.598 0
      vertex 232.002 -234.998 0
      vertex 233.315 -234.696 0
    endloop
  endfacet
  facet normal 0 0 1
    outer loop
      vertex 233.678 -234.487 0
      vertex 232.002 -234.998 0
      vertex 233.5 -234.598 0
    endloop
  endfacet
  facet normal 0 0 1
    outer loop
      vertex 233.847 -234.364 0
      vertex 232.002 -234.998 0
      vertex 233.678 -234.487 0
    endloop
  endfacet
  facet normal 0 0 1
    outer loop
      vertex 234.007 -234.229 0
      vertex 232.002 -234.998 0
      vertex 233.847 -234.364 0
    endloop
  endfacet
  facet normal 0 0 1
    outer loop
      vertex 234.158 -234.084 0
      vertex 232.002 -234.998 0
      vertex 234.007 -234.229 0
    endloop
  endfacet
  facet normal 0 0 1
    outer loop
      vertex 234.298 -233.928 0
      vertex 232.002 -234.998 0
      vertex 234.158 -234.084 0
    endloop
  endfacet
  facet normal 0 0 1
    outer loop
      vertex 234.427 -233.763 0
      vertex 232.002 -234.998 0
      vertex 234.298 -233.928 0
    endloop
  endfacet
  facet normal 0 0 1
    outer loop
      vertex 234.544 -233.59 0
      vertex 232.002 -234.998 0
      vertex 234.427 -233.763 0
    endloop
  endfacet
  facet normal 0 0 1
    outer loop
      vertex 234.649 -233.408 0
      vertex 232.002 -234.998 0
      vertex 234.544 -233.59 0
    endloop
  endfacet
  facet normal 0 0 1
    outer loop
      vertex 234.741 -233.22 0
      vertex 232.002 -234.998 0
      vertex 234.649 -233.408 0
    endloop
  endfacet
  facet normal 0 0 1
    outer loop
      vertex 234.819 -233.026 0
      vertex 232.002 -234.998 0
      vertex 234.741 -233.22 0
    endloop
  endfacet
  facet normal 0 0 1
    outer loop
      vertex 234.884 -232.827 0
      vertex 232.002 -234.998 0
      vertex 234.819 -233.026 0
    endloop
  endfacet
  facet normal 0 0 1
    outer loop
      vertex 234.934 -232.624 0
      vertex 232.002 -234.998 0
      vertex 234.884 -232.827 0
    endloop
  endfacet
  facet normal 0 0 1
    outer loop
      vertex 234.971 -232.418 0
      vertex 232.002 -234.998 0
      vertex 234.934 -232.624 0
    endloop
  endfacet
  facet normal 0 0 1
    outer loop
      vertex 234.993 -232.209 0
      vertex 232.002 -234.998 0
      vertex 234.971 -232.418 0
    endloop
  endfacet
  facet normal 0 0 1
    outer loop
      vertex 235 -232 0
      vertex 232.002 -234.998 0
      vertex 234.993 -232.209 0
    endloop
  endfacet
  facet normal 0 0 1
    outer loop
      vertex 235 232 0
      vertex 232.002 234.998 0
      vertex 235 -232 0
    endloop
  endfacet
  facet normal 0 0 1
    outer loop
      vertex 234.993 232.209 0
      vertex 234.971 232.418 0
      vertex 232.002 234.998 0
    endloop
  endfacet
  facet normal 0 0 1
    outer loop
      vertex 232.002 234.998 0
      vertex 234.934 232.624 0
      vertex 234.884 232.827 0
    endloop
  endfacet
  facet normal 0 0 1
    outer loop
      vertex 234.649 233.408 0
      vertex 232.002 234.998 0
      vertex 234.741 233.22 0
    endloop
  endfacet
  facet normal 0 0 1
    outer loop
      vertex 232.002 234.998 0
      vertex 234.819 233.026 0
      vertex 234.741 233.22 0
    endloop
  endfacet
  facet normal 0 0 1
    outer loop
      vertex 234.158 234.084 0
      vertex 234.007 234.229 0
      vertex 232.002 234.998 0
    endloop
  endfacet
  facet normal 0 0 1
    outer loop
      vertex 234.298 233.928 0
      vertex 232.002 234.998 0
      vertex 234.427 233.763 0
    endloop
  endfacet
  facet normal 0 0 1
    outer loop
      vertex 232.002 234.998 0
      vertex 234.544 233.59 0
      vertex 234.427 233.763 0
    endloop
  endfacet
  facet normal 0 0 1
    outer loop
      vertex 234.158 234.084 0
      vertex 232.002 234.998 0
      vertex 234.298 233.928 0
    endloop
  endfacet
  facet normal 0 0 1
    outer loop
      vertex 233.124 234.782 0
      vertex 232.927 234.853 0
      vertex 232.002 234.998 0
    endloop
  endfacet
  facet normal 0 0 1
    outer loop
      vertex 233.678 234.487 0
      vertex 232.002 234.998 0
      vertex 233.847 234.364 0
    endloop
  endfacet
  facet normal 0 0 1
    outer loop
      vertex 232.002 234.998 0
      vertex 234.007 234.229 0
      vertex 233.847 234.364 0
    endloop
  endfacet
  facet normal 0 0 1
    outer loop
      vertex 233.5 234.598 0
      vertex 232.002 234.998 0
      vertex 233.678 234.487 0
    endloop
  endfacet
  facet normal 0 0 1
    outer loop
      vertex 233.315 234.696 0
      vertex 232.002 234.998 0
      vertex 233.5 234.598 0
    endloop
  endfacet
  facet normal 0 0 1
    outer loop
      vertex 233.124 234.782 0
      vertex 232.002 234.998 0
      vertex 233.315 234.696 0
    endloop
  endfacet
  facet normal 0 0 1
    outer loop
      vertex 234.544 233.59 0
      vertex 232.002 234.998 0
      vertex 234.649 233.408 0
    endloop
  endfacet
  facet normal 0 0 1
    outer loop
      vertex 232.521 234.954 0
      vertex 232.002 234.998 0
      vertex 232.726 234.911 0
    endloop
  endfacet
  facet normal 0 0 1
    outer loop
      vertex 232.002 234.998 0
      vertex 232.927 234.853 0
      vertex 232.726 234.911 0
    endloop
  endfacet
  facet normal 0 0 1
    outer loop
      vertex 232.002 234.998 0
      vertex 234.884 232.827 0
      vertex 234.819 233.026 0
    endloop
  endfacet
  facet normal 0 0 1
    outer loop
      vertex 232.002 234.998 0
      vertex 232.521 234.954 0
      vertex 232.314 234.984 0
    endloop
  endfacet
  facet normal 0 0 1
    outer loop
      vertex 234.971 232.418 0
      vertex 234.934 232.624 0
      vertex 232.002 234.998 0
    endloop
  endfacet
  facet normal 0 0 1
    outer loop
      vertex 232.314 234.984 0
      vertex 232.105 234.998 0
      vertex 232.002 234.998 0
    endloop
  endfacet
  facet normal 0 0 1
    outer loop
      vertex 234.993 232.209 0
      vertex 232.002 234.998 0
      vertex 235 232 0
    endloop
  endfacet
  facet normal 0 0 1
    outer loop
      vertex -232.002 234.998 0
      vertex 232 235 0
      vertex -232 235 0
    endloop
  endfacet
  facet normal 0 0 1
    outer loop
      vertex 232.002 234.998 0
      vertex 232 235 0
      vertex -232.002 234.998 0
    endloop
  endfacet
  facet normal 0 0 1
    outer loop
      vertex 232.002 234.998 0
      vertex -232.002 234.998 0
      vertex 232.002 -234.998 0
    endloop
  endfacet
  facet normal 0 0 1
    outer loop
      vertex -232.002 -234.998 0
      vertex -235 232 0
      vertex -235 -232 0
    endloop
  endfacet
  facet normal -0 0 1
    outer loop
      vertex -232.105 234.998 0
      vertex -232.314 234.984 0
      vertex -232.002 234.998 0
    endloop
  endfacet
  facet normal -0 0 1
    outer loop
      vertex -232.314 234.984 0
      vertex -232.521 234.954 0
      vertex -232.002 234.998 0
    endloop
  endfacet
  facet normal -0 0 1
    outer loop
      vertex -232.521 234.954 0
      vertex -232.726 234.911 0
      vertex -232.002 234.998 0
    endloop
  endfacet
  facet normal -0 0 1
    outer loop
      vertex -232.726 234.911 0
      vertex -232.927 234.853 0
      vertex -232.002 234.998 0
    endloop
  endfacet
  facet normal -0 0 1
    outer loop
      vertex -232.927 234.853 0
      vertex -233.124 234.782 0
      vertex -232.002 234.998 0
    endloop
  endfacet
  facet normal -0 0 1
    outer loop
      vertex -233.124 234.782 0
      vertex -233.315 234.696 0
      vertex -232.002 234.998 0
    endloop
  endfacet
  facet normal -0 0 1
    outer loop
      vertex -233.315 234.696 0
      vertex -233.5 234.598 0
      vertex -232.002 234.998 0
    endloop
  endfacet
  facet normal -0 0 1
    outer loop
      vertex -233.5 234.598 0
      vertex -233.678 234.487 0
      vertex -232.002 234.998 0
    endloop
  endfacet
  facet normal -0 0 1
    outer loop
      vertex -233.678 234.487 0
      vertex -233.847 234.364 0
      vertex -232.002 234.998 0
    endloop
  endfacet
  facet normal -0 0 1
    outer loop
      vertex -233.847 234.364 0
      vertex -234.007 234.229 0
      vertex -232.002 234.998 0
    endloop
  endfacet
  facet normal -0 0 1
    outer loop
      vertex -234.007 234.229 0
      vertex -234.158 234.084 0
      vertex -232.002 234.998 0
    endloop
  endfacet
  facet normal -0 0 1
    outer loop
      vertex -234.158 234.084 0
      vertex -234.298 233.928 0
      vertex -232.002 234.998 0
    endloop
  endfacet
  facet normal -0 0 1
    outer loop
      vertex -234.298 233.928 0
      vertex -234.427 233.763 0
      vertex -232.002 234.998 0
    endloop
  endfacet
  facet normal -0 0 1
    outer loop
      vertex -234.427 233.763 0
      vertex -234.544 233.59 0
      vertex -232.002 234.998 0
    endloop
  endfacet
  facet normal -0 0 1
    outer loop
      vertex -234.544 233.59 0
      vertex -234.649 233.408 0
      vertex -232.002 234.998 0
    endloop
  endfacet
  facet normal -0 0 1
    outer loop
      vertex -234.649 233.408 0
      vertex -234.741 233.22 0
      vertex -232.002 234.998 0
    endloop
  endfacet
  facet normal -0 0 1
    outer loop
      vertex -234.741 233.22 0
      vertex -234.819 233.026 0
      vertex -232.002 234.998 0
    endloop
  endfacet
  facet normal -0 0 1
    outer loop
      vertex -234.819 233.026 0
      vertex -234.884 232.827 0
      vertex -232.002 234.998 0
    endloop
  endfacet
  facet normal -0 0 1
    outer loop
      vertex -234.884 232.827 0
      vertex -234.934 232.624 0
      vertex -232.002 234.998 0
    endloop
  endfacet
  facet normal -0 0 1
    outer loop
      vertex -234.934 232.624 0
      vertex -234.971 232.418 0
      vertex -232.002 234.998 0
    endloop
  endfacet
  facet normal -0 0 1
    outer loop
      vertex -234.971 232.418 0
      vertex -234.993 232.209 0
      vertex -232.002 234.998 0
    endloop
  endfacet
  facet normal -0 0 1
    outer loop
      vertex -234.993 232.209 0
      vertex -235 232 0
      vertex -232.002 234.998 0
    endloop
  endfacet
  facet normal 0 0 1
    outer loop
      vertex -232.002 234.998 0
      vertex -235 232 0
      vertex -232.002 -234.998 0
    endloop
  endfacet
  facet normal 0 0 1
    outer loop
      vertex -232.002 234.998 0
      vertex -232.002 -234.998 0
      vertex 232.002 -234.998 0
    endloop
  endfacet
  facet normal 0 0 1
    outer loop
      vertex -234.993 -232.209 0
      vertex -234.971 -232.418 0
      vertex -232.002 -234.998 0
    endloop
  endfacet
  facet normal 0 0 1
    outer loop
      vertex -232.002 -234.998 0
      vertex -234.934 -232.624 0
      vertex -234.884 -232.827 0
    endloop
  endfacet
  facet normal -0 -0 1
    outer loop
      vertex -234.649 -233.408 0
      vertex -232.002 -234.998 0
      vertex -234.741 -233.22 0
    endloop
  endfacet
  facet normal 0 0 1
    outer loop
      vertex -232.002 -234.998 0
      vertex -234.819 -233.026 0
      vertex -234.741 -233.22 0
    endloop
  endfacet
  facet normal 0 0 1
    outer loop
      vertex -234.158 -234.084 0
      vertex -234.007 -234.229 0
      vertex -232.002 -234.998 0
    endloop
  endfacet
  facet normal -0 -0 1
    outer loop
      vertex -234.298 -233.928 0
      vertex -232.002 -234.998 0
      vertex -234.427 -233.763 0
    endloop
  endfacet
  facet normal 0 0 1
    outer loop
      vertex -232.002 -234.998 0
      vertex -234.544 -233.59 0
      vertex -234.427 -233.763 0
    endloop
  endfacet
  facet normal -0 -0 1
    outer loop
      vertex -234.158 -234.084 0
      vertex -232.002 -234.998 0
      vertex -234.298 -233.928 0
    endloop
  endfacet
  facet normal 0 0 1
    outer loop
      vertex -233.124 -234.782 0
      vertex -232.927 -234.853 0
      vertex -232.002 -234.998 0
    endloop
  endfacet
  facet normal -0 -0 1
    outer loop
      vertex -233.678 -234.487 0
      vertex -232.002 -234.998 0
      vertex -233.847 -234.364 0
    endloop
  endfacet
  facet normal 0 0 1
    outer loop
      vertex -232.002 -234.998 0
      vertex -234.007 -234.229 0
      vertex -233.847 -234.364 0
    endloop
  endfacet
  facet normal -0 -0 1
    outer loop
      vertex -233.5 -234.598 0
      vertex -232.002 -234.998 0
      vertex -233.678 -234.487 0
    endloop
  endfacet
  facet normal -0 -0 1
    outer loop
      vertex -233.315 -234.696 0
      vertex -232.002 -234.998 0
      vertex -233.5 -234.598 0
    endloop
  endfacet
  facet normal -0 -0 1
    outer loop
      vertex -233.124 -234.782 0
      vertex -232.002 -234.998 0
      vertex -233.315 -234.696 0
    endloop
  endfacet
  facet normal -0 -0 1
    outer loop
      vertex -234.544 -233.59 0
      vertex -232.002 -234.998 0
      vertex -234.649 -233.408 0
    endloop
  endfacet
  facet normal -0 -0 1
    outer loop
      vertex -232.521 -234.954 0
      vertex -232.002 -234.998 0
      vertex -232.726 -234.911 0
    endloop
  endfacet
  facet normal 0 0 1
    outer loop
      vertex -232.002 -234.998 0
      vertex -232.927 -234.853 0
      vertex -232.726 -234.911 0
    endloop
  endfacet
  facet normal 0 0 1
    outer loop
      vertex -232.002 -234.998 0
      vertex -234.884 -232.827 0
      vertex -234.819 -233.026 0
    endloop
  endfacet
  facet normal 0 0 1
    outer loop
      vertex -232.002 -234.998 0
      vertex -232.521 -234.954 0
      vertex -232.314 -234.984 0
    endloop
  endfacet
  facet normal 0 0 1
    outer loop
      vertex -234.971 -232.418 0
      vertex -234.934 -232.624 0
      vertex -232.002 -234.998 0
    endloop
  endfacet
  facet normal 0 0 1
    outer loop
      vertex -232.314 -234.984 0
      vertex -232.105 -234.998 0
      vertex -232.002 -234.998 0
    endloop
  endfacet
  facet normal -0 0 1
    outer loop
      vertex -232.002 -234.998 0
      vertex 232 -235 0
      vertex 232.002 -234.998 0
    endloop
  endfacet
  facet normal 0 -0 1
    outer loop
      vertex -232 -235 0
      vertex 232 -235 0
      vertex -232.002 -234.998 0
    endloop
  endfacet
  facet normal -0 -0 1
    outer loop
      vertex -234.993 -232.209 0
      vertex -232.002 -234.998 0
      vertex -235 -232 0
    endloop
  endfacet
  facet normal 0 -1 0
    outer loop
      vertex 232.105 -234.998 -3
      vertex 232.002 -234.998 0
      vertex 232.002 -234.998 -3
    endloop
  endfacet
  facet normal 0 -1 0
    outer loop
      vertex 232.105 -234.998 -3
      vertex 232.105 -234.998 0
      vertex 232.002 -234.998 0
    endloop
  endfacet
  facet normal 0.0668359 -0.997764 0
    outer loop
      vertex 232.314 -234.984 -3
      vertex 232.105 -234.998 0
      vertex 232.105 -234.998 -3
    endloop
  endfacet
  facet normal 0.0668359 -0.997764 0
    outer loop
      vertex 232.314 -234.984 -3
      vertex 232.314 -234.984 0
      vertex 232.105 -234.998 0
    endloop
  endfacet
  facet normal 0.143429 -0.989661 0
    outer loop
      vertex 232.521 -234.954 -3
      vertex 232.314 -234.984 0
      vertex 232.314 -234.984 -3
    endloop
  endfacet
  facet normal 0.143429 -0.989661 0
    outer loop
      vertex 232.521 -234.954 -3
      vertex 232.521 -234.954 0
      vertex 232.314 -234.984 0
    endloop
  endfacet
  facet normal 0.205289 -0.978701 0
    outer loop
      vertex 232.726 -234.911 -3
      vertex 232.521 -234.954 0
      vertex 232.521 -234.954 -3
    endloop
  endfacet
  facet normal 0.205289 -0.978701 0
    outer loop
      vertex 232.726 -234.911 -3
      vertex 232.726 -234.911 0
      vertex 232.521 -234.954 0
    endloop
  endfacet
  facet normal 0.277246 -0.960799 0
    outer loop
      vertex 232.927 -234.853 -3
      vertex 232.726 -234.911 0
      vertex 232.726 -234.911 -3
    endloop
  endfacet
  facet normal 0.277246 -0.960799 0
    outer loop
      vertex 232.927 -234.853 -3
      vertex 232.927 -234.853 0
      vertex 232.726 -234.911 0
    endloop
  endfacet
  facet normal 0.339058 -0.940766 0
    outer loop
      vertex 233.124 -234.782 -3
      vertex 232.927 -234.853 0
      vertex 232.927 -234.853 -3
    endloop
  endfacet
  facet normal 0.339058 -0.940766 0
    outer loop
      vertex 233.124 -234.782 -3
      vertex 233.124 -234.782 0
      vertex 232.927 -234.853 0
    endloop
  endfacet
  facet normal 0.410563 -0.911832 0
    outer loop
      vertex 233.315 -234.696 -3
      vertex 233.124 -234.782 0
      vertex 233.124 -234.782 -3
    endloop
  endfacet
  facet normal 0.410563 -0.911832 0
    outer loop
      vertex 233.315 -234.696 -3
      vertex 233.315 -234.696 0
      vertex 233.124 -234.782 0
    endloop
  endfacet
  facet normal 0.468107 -0.883672 0
    outer loop
      vertex 233.5 -234.598 -3
      vertex 233.315 -234.696 0
      vertex 233.315 -234.696 -3
    endloop
  endfacet
  facet normal 0.468107 -0.883672 0
    outer loop
      vertex 233.5 -234.598 -3
      vertex 233.5 -234.598 0
      vertex 233.315 -234.696 0
    endloop
  endfacet
  facet normal 0.529142 -0.848533 0
    outer loop
      vertex 233.678 -234.487 -3
      vertex 233.5 -234.598 0
      vertex 233.5 -234.598 -3
    endloop
  endfacet
  facet normal 0.529142 -0.848533 0
    outer loop
      vertex 233.678 -234.487 -3
      vertex 233.678 -234.487 0
      vertex 233.5 -234.598 0
    endloop
  endfacet
  facet normal 0.588456 -0.808529 0
    outer loop
      vertex 233.847 -234.364 -3
      vertex 233.678 -234.487 0
      vertex 233.678 -234.487 -3
    endloop
  endfacet
  facet normal 0.588456 -0.808529 0
    outer loop
      vertex 233.847 -234.364 -3
      vertex 233.847 -234.364 0
      vertex 233.678 -234.487 0
    endloop
  endfacet
  facet normal 0.644871 -0.764291 0
    outer loop
      vertex 234.007 -234.229 -3
      vertex 233.847 -234.364 0
      vertex 233.847 -234.364 -3
    endloop
  endfacet
  facet normal 0.644871 -0.764291 0
    outer loop
      vertex 234.007 -234.229 -3
      vertex 234.007 -234.229 0
      vertex 233.847 -234.364 0
    endloop
  endfacet
  facet normal 0.692631 -0.721292 0
    outer loop
      vertex 234.158 -234.084 -3
      vertex 234.007 -234.229 0
      vertex 234.007 -234.229 -3
    endloop
  endfacet
  facet normal 0.692631 -0.721292 0
    outer loop
      vertex 234.158 -234.084 -3
      vertex 234.158 -234.084 0
      vertex 234.007 -234.229 0
    endloop
  endfacet
  facet normal 0.744242 -0.66791 0
    outer loop
      vertex 234.298 -233.928 -3
      vertex 234.158 -234.084 0
      vertex 234.158 -234.084 -3
    endloop
  endfacet
  facet normal 0.744242 -0.66791 0
    outer loop
      vertex 234.298 -233.928 -3
      vertex 234.298 -233.928 0
      vertex 234.158 -234.084 0
    endloop
  endfacet
  facet normal 0.787807 -0.615922 0
    outer loop
      vertex 234.427 -233.763 -3
      vertex 234.298 -233.928 0
      vertex 234.298 -233.928 -3
    endloop
  endfacet
  facet normal 0.787807 -0.615922 0
    outer loop
      vertex 234.427 -233.763 -3
      vertex 234.427 -233.763 0
      vertex 234.298 -233.928 0
    endloop
  endfacet
  facet normal 0.828349 -0.560213 0
    outer loop
      vertex 234.544 -233.59 -3
      vertex 234.427 -233.763 0
      vertex 234.427 -233.763 -3
    endloop
  endfacet
  facet normal 0.828349 -0.560213 0
    outer loop
      vertex 234.544 -233.59 -3
      vertex 234.544 -233.59 0
      vertex 234.427 -233.763 0
    endloop
  endfacet
  facet normal 0.866186 -0.499722 0
    outer loop
      vertex 234.649 -233.408 -3
      vertex 234.544 -233.59 0
      vertex 234.544 -233.59 -3
    endloop
  endfacet
  facet normal 0.866186 -0.499722 0
    outer loop
      vertex 234.649 -233.408 -3
      vertex 234.649 -233.408 0
      vertex 234.544 -233.59 0
    endloop
  endfacet
  facet normal 0.898217 -0.439553 0
    outer loop
      vertex 234.741 -233.22 -3
      vertex 234.649 -233.408 0
      vertex 234.649 -233.408 -3
    endloop
  endfacet
  facet normal 0.898217 -0.439553 0
    outer loop
      vertex 234.741 -233.22 -3
      vertex 234.741 -233.22 0
      vertex 234.649 -233.408 0
    endloop
  endfacet
  facet normal 0.927816 -0.373039 0
    outer loop
      vertex 234.819 -233.026 -3
      vertex 234.741 -233.22 0
      vertex 234.741 -233.22 -3
    endloop
  endfacet
  facet normal 0.927816 -0.373039 0
    outer loop
      vertex 234.819 -233.026 -3
      vertex 234.819 -233.026 0
      vertex 234.741 -233.22 0
    endloop
  endfacet
  facet normal 0.950577 -0.31049 0
    outer loop
      vertex 234.884 -232.827 -3
      vertex 234.819 -233.026 0
      vertex 234.819 -233.026 -3
    endloop
  endfacet
  facet normal 0.950577 -0.31049 0
    outer loop
      vertex 234.884 -232.827 -3
      vertex 234.884 -232.827 0
      vertex 234.819 -233.026 0
    endloop
  endfacet
  facet normal 0.970981 -0.239158 0
    outer loop
      vertex 234.934 -232.624 -3
      vertex 234.884 -232.827 0
      vertex 234.884 -232.827 -3
    endloop
  endfacet
  facet normal 0.970981 -0.239158 0
    outer loop
      vertex 234.934 -232.624 -3
      vertex 234.934 -232.624 0
      vertex 234.884 -232.827 0
    endloop
  endfacet
  facet normal 0.98425 -0.176783 0
    outer loop
      vertex 234.971 -232.418 -3
      vertex 234.934 -232.624 0
      vertex 234.934 -232.624 -3
    endloop
  endfacet
  facet normal 0.98425 -0.176783 0
    outer loop
      vertex 234.971 -232.418 -3
      vertex 234.971 -232.418 0
      vertex 234.934 -232.624 0
    endloop
  endfacet
  facet normal 0.994505 -0.104685 0
    outer loop
      vertex 234.993 -232.209 -3
      vertex 234.971 -232.418 0
      vertex 234.971 -232.418 -3
    endloop
  endfacet
  facet normal 0.994505 -0.104685 0
    outer loop
      vertex 234.993 -232.209 -3
      vertex 234.993 -232.209 0
      vertex 234.971 -232.418 0
    endloop
  endfacet
  facet normal 0.99944 -0.0334741 0
    outer loop
      vertex 235 -232 -3
      vertex 234.993 -232.209 0
      vertex 234.993 -232.209 -3
    endloop
  endfacet
  facet normal 0.99944 -0.0334741 0
    outer loop
      vertex 235 -232 -3
      vertex 235 -232 0
      vertex 234.993 -232.209 0
    endloop
  endfacet
  facet normal 1 0 0
    outer loop
      vertex 235 232 -3
      vertex 235 -232 0
      vertex 235 -232 -3
    endloop
  endfacet
  facet normal 1 0 -0
    outer loop
      vertex 235 232 -3
      vertex 235 232 0
      vertex 235 -232 0
    endloop
  endfacet
  facet normal 0.99944 0.0334741 0
    outer loop
      vertex 234.993 232.209 -3
      vertex 235 232 0
      vertex 235 232 -3
    endloop
  endfacet
  facet normal 0.99944 0.0334741 -0
    outer loop
      vertex 234.993 232.209 -3
      vertex 234.993 232.209 0
      vertex 235 232 0
    endloop
  endfacet
  facet normal 0.994505 0.104685 0
    outer loop
      vertex 234.971 232.418 -3
      vertex 234.993 232.209 0
      vertex 234.993 232.209 -3
    endloop
  endfacet
  facet normal 0.994505 0.104685 -0
    outer loop
      vertex 234.971 232.418 -3
      vertex 234.971 232.418 0
      vertex 234.993 232.209 0
    endloop
  endfacet
  facet normal 0.98425 0.176783 0
    outer loop
      vertex 234.934 232.624 -3
      vertex 234.971 232.418 0
      vertex 234.971 232.418 -3
    endloop
  endfacet
  facet normal 0.98425 0.176783 -0
    outer loop
      vertex 234.934 232.624 -3
      vertex 234.934 232.624 0
      vertex 234.971 232.418 0
    endloop
  endfacet
  facet normal 0.970981 0.239158 0
    outer loop
      vertex 234.884 232.827 -3
      vertex 234.934 232.624 0
      vertex 234.934 232.624 -3
    endloop
  endfacet
  facet normal 0.970981 0.239158 -0
    outer loop
      vertex 234.884 232.827 -3
      vertex 234.884 232.827 0
      vertex 234.934 232.624 0
    endloop
  endfacet
  facet normal 0.950577 0.31049 0
    outer loop
      vertex 234.819 233.026 -3
      vertex 234.884 232.827 0
      vertex 234.884 232.827 -3
    endloop
  endfacet
  facet normal 0.950577 0.31049 -0
    outer loop
      vertex 234.819 233.026 -3
      vertex 234.819 233.026 0
      vertex 234.884 232.827 0
    endloop
  endfacet
  facet normal 0.927816 0.373039 0
    outer loop
      vertex 234.741 233.22 -3
      vertex 234.819 233.026 0
      vertex 234.819 233.026 -3
    endloop
  endfacet
  facet normal 0.927816 0.373039 -0
    outer loop
      vertex 234.741 233.22 -3
      vertex 234.741 233.22 0
      vertex 234.819 233.026 0
    endloop
  endfacet
  facet normal 0.898217 0.439553 0
    outer loop
      vertex 234.649 233.408 -3
      vertex 234.741 233.22 0
      vertex 234.741 233.22 -3
    endloop
  endfacet
  facet normal 0.898217 0.439553 -0
    outer loop
      vertex 234.649 233.408 -3
      vertex 234.649 233.408 0
      vertex 234.741 233.22 0
    endloop
  endfacet
  facet normal 0.866186 0.499722 0
    outer loop
      vertex 234.544 233.59 -3
      vertex 234.649 233.408 0
      vertex 234.649 233.408 -3
    endloop
  endfacet
  facet normal 0.866186 0.499722 -0
    outer loop
      vertex 234.544 233.59 -3
      vertex 234.544 233.59 0
      vertex 234.649 233.408 0
    endloop
  endfacet
  facet normal 0.828349 0.560213 0
    outer loop
      vertex 234.427 233.763 -3
      vertex 234.544 233.59 0
      vertex 234.544 233.59 -3
    endloop
  endfacet
  facet normal 0.828349 0.560213 -0
    outer loop
      vertex 234.427 233.763 -3
      vertex 234.427 233.763 0
      vertex 234.544 233.59 0
    endloop
  endfacet
  facet normal 0.787807 0.615922 0
    outer loop
      vertex 234.298 233.928 -3
      vertex 234.427 233.763 0
      vertex 234.427 233.763 -3
    endloop
  endfacet
  facet normal 0.787807 0.615922 -0
    outer loop
      vertex 234.298 233.928 -3
      vertex 234.298 233.928 0
      vertex 234.427 233.763 0
    endloop
  endfacet
  facet normal 0.744242 0.66791 0
    outer loop
      vertex 234.158 234.084 -3
      vertex 234.298 233.928 0
      vertex 234.298 233.928 -3
    endloop
  endfacet
  facet normal 0.744242 0.66791 -0
    outer loop
      vertex 234.158 234.084 -3
      vertex 234.158 234.084 0
      vertex 234.298 233.928 0
    endloop
  endfacet
  facet normal 0.692631 0.721292 0
    outer loop
      vertex 234.007 234.229 -3
      vertex 234.158 234.084 0
      vertex 234.158 234.084 -3
    endloop
  endfacet
  facet normal 0.692631 0.721292 -0
    outer loop
      vertex 234.007 234.229 -3
      vertex 234.007 234.229 0
      vertex 234.158 234.084 0
    endloop
  endfacet
  facet normal 0.644871 0.764291 0
    outer loop
      vertex 233.847 234.364 -3
      vertex 234.007 234.229 0
      vertex 234.007 234.229 -3
    endloop
  endfacet
  facet normal 0.644871 0.764291 -0
    outer loop
      vertex 233.847 234.364 -3
      vertex 233.847 234.364 0
      vertex 234.007 234.229 0
    endloop
  endfacet
  facet normal 0.588456 0.808529 0
    outer loop
      vertex 233.678 234.487 -3
      vertex 233.847 234.364 0
      vertex 233.847 234.364 -3
    endloop
  endfacet
  facet normal 0.588456 0.808529 -0
    outer loop
      vertex 233.678 234.487 -3
      vertex 233.678 234.487 0
      vertex 233.847 234.364 0
    endloop
  endfacet
  facet normal 0.529142 0.848533 0
    outer loop
      vertex 233.5 234.598 -3
      vertex 233.678 234.487 0
      vertex 233.678 234.487 -3
    endloop
  endfacet
  facet normal 0.529142 0.848533 -0
    outer loop
      vertex 233.5 234.598 -3
      vertex 233.5 234.598 0
      vertex 233.678 234.487 0
    endloop
  endfacet
  facet normal 0.468107 0.883672 0
    outer loop
      vertex 233.315 234.696 -3
      vertex 233.5 234.598 0
      vertex 233.5 234.598 -3
    endloop
  endfacet
  facet normal 0.468107 0.883672 -0
    outer loop
      vertex 233.315 234.696 -3
      vertex 233.315 234.696 0
      vertex 233.5 234.598 0
    endloop
  endfacet
  facet normal 0.410563 0.911832 0
    outer loop
      vertex 233.124 234.782 -3
      vertex 233.315 234.696 0
      vertex 233.315 234.696 -3
    endloop
  endfacet
  facet normal 0.410563 0.911832 -0
    outer loop
      vertex 233.124 234.782 -3
      vertex 233.124 234.782 0
      vertex 233.315 234.696 0
    endloop
  endfacet
  facet normal 0.339058 0.940766 0
    outer loop
      vertex 232.927 234.853 -3
      vertex 233.124 234.782 0
      vertex 233.124 234.782 -3
    endloop
  endfacet
  facet normal 0.339058 0.940766 -0
    outer loop
      vertex 232.927 234.853 -3
      vertex 232.927 234.853 0
      vertex 233.124 234.782 0
    endloop
  endfacet
  facet normal 0.277246 0.960799 0
    outer loop
      vertex 232.726 234.911 -3
      vertex 232.927 234.853 0
      vertex 232.927 234.853 -3
    endloop
  endfacet
  facet normal 0.277246 0.960799 -0
    outer loop
      vertex 232.726 234.911 -3
      vertex 232.726 234.911 0
      vertex 232.927 234.853 0
    endloop
  endfacet
  facet normal 0.205289 0.978701 0
    outer loop
      vertex 232.521 234.954 -3
      vertex 232.726 234.911 0
      vertex 232.726 234.911 -3
    endloop
  endfacet
  facet normal 0.205289 0.978701 -0
    outer loop
      vertex 232.521 234.954 -3
      vertex 232.521 234.954 0
      vertex 232.726 234.911 0
    endloop
  endfacet
  facet normal 0.143429 0.989661 0
    outer loop
      vertex 232.314 234.984 -3
      vertex 232.521 234.954 0
      vertex 232.521 234.954 -3
    endloop
  endfacet
  facet normal 0.143429 0.989661 -0
    outer loop
      vertex 232.314 234.984 -3
      vertex 232.314 234.984 0
      vertex 232.521 234.954 0
    endloop
  endfacet
  facet normal 0.0668359 0.997764 0
    outer loop
      vertex 232.105 234.998 -3
      vertex 232.314 234.984 0
      vertex 232.314 234.984 -3
    endloop
  endfacet
  facet normal 0.0668359 0.997764 -0
    outer loop
      vertex 232.105 234.998 -3
      vertex 232.105 234.998 0
      vertex 232.314 234.984 0
    endloop
  endfacet
  facet normal 0 1 0
    outer loop
      vertex 232.002 234.998 -3
      vertex 232.105 234.998 0
      vertex 232.105 234.998 -3
    endloop
  endfacet
  facet normal 0 1 0
    outer loop
      vertex 232.002 234.998 -3
      vertex 232.002 234.998 0
      vertex 232.105 234.998 0
    endloop
  endfacet
  facet normal 0.707107 0.707107 0
    outer loop
      vertex 232 235 -3
      vertex 232.002 234.998 0
      vertex 232.002 234.998 -3
    endloop
  endfacet
  facet normal 0.707107 0.707107 -0
    outer loop
      vertex 232 235 -3
      vertex 232 235 0
      vertex 232.002 234.998 0
    endloop
  endfacet
  facet normal 0 1 0
    outer loop
      vertex -232 235 -3
      vertex 232 235 0
      vertex 232 235 -3
    endloop
  endfacet
  facet normal 0 1 0
    outer loop
      vertex -232 235 -3
      vertex -232 235 0
      vertex 232 235 0
    endloop
  endfacet
  facet normal -0.707107 0.707107 0
    outer loop
      vertex -232.002 234.998 -3
      vertex -232 235 0
      vertex -232 235 -3
    endloop
  endfacet
  facet normal -0.707107 0.707107 0
    outer loop
      vertex -232.002 234.998 -3
      vertex -232.002 234.998 0
      vertex -232 235 0
    endloop
  endfacet
  facet normal 0 1 0
    outer loop
      vertex -232.105 234.998 -3
      vertex -232.002 234.998 0
      vertex -232.002 234.998 -3
    endloop
  endfacet
  facet normal 0 1 0
    outer loop
      vertex -232.105 234.998 -3
      vertex -232.105 234.998 0
      vertex -232.002 234.998 0
    endloop
  endfacet
  facet normal -0.0668359 0.997764 0
    outer loop
      vertex -232.314 234.984 -3
      vertex -232.105 234.998 0
      vertex -232.105 234.998 -3
    endloop
  endfacet
  facet normal -0.0668359 0.997764 0
    outer loop
      vertex -232.314 234.984 -3
      vertex -232.314 234.984 0
      vertex -232.105 234.998 0
    endloop
  endfacet
  facet normal -0.143429 0.989661 0
    outer loop
      vertex -232.521 234.954 -3
      vertex -232.314 234.984 0
      vertex -232.314 234.984 -3
    endloop
  endfacet
  facet normal -0.143429 0.989661 0
    outer loop
      vertex -232.521 234.954 -3
      vertex -232.521 234.954 0
      vertex -232.314 234.984 0
    endloop
  endfacet
  facet normal -0.205289 0.978701 0
    outer loop
      vertex -232.726 234.911 -3
      vertex -232.521 234.954 0
      vertex -232.521 234.954 -3
    endloop
  endfacet
  facet normal -0.205289 0.978701 0
    outer loop
      vertex -232.726 234.911 -3
      vertex -232.726 234.911 0
      vertex -232.521 234.954 0
    endloop
  endfacet
  facet normal -0.277246 0.960799 0
    outer loop
      vertex -232.927 234.853 -3
      vertex -232.726 234.911 0
      vertex -232.726 234.911 -3
    endloop
  endfacet
  facet normal -0.277246 0.960799 0
    outer loop
      vertex -232.927 234.853 -3
      vertex -232.927 234.853 0
      vertex -232.726 234.911 0
    endloop
  endfacet
  facet normal -0.339058 0.940766 0
    outer loop
      vertex -233.124 234.782 -3
      vertex -232.927 234.853 0
      vertex -232.927 234.853 -3
    endloop
  endfacet
  facet normal -0.339058 0.940766 0
    outer loop
      vertex -233.124 234.782 -3
      vertex -233.124 234.782 0
      vertex -232.927 234.853 0
    endloop
  endfacet
  facet normal -0.410563 0.911832 0
    outer loop
      vertex -233.315 234.696 -3
      vertex -233.124 234.782 0
      vertex -233.124 234.782 -3
    endloop
  endfacet
  facet normal -0.410563 0.911832 0
    outer loop
      vertex -233.315 234.696 -3
      vertex -233.315 234.696 0
      vertex -233.124 234.782 0
    endloop
  endfacet
  facet normal -0.468107 0.883672 0
    outer loop
      vertex -233.5 234.598 -3
      vertex -233.315 234.696 0
      vertex -233.315 234.696 -3
    endloop
  endfacet
  facet normal -0.468107 0.883672 0
    outer loop
      vertex -233.5 234.598 -3
      vertex -233.5 234.598 0
      vertex -233.315 234.696 0
    endloop
  endfacet
  facet normal -0.529142 0.848533 0
    outer loop
      vertex -233.678 234.487 -3
      vertex -233.5 234.598 0
      vertex -233.5 234.598 -3
    endloop
  endfacet
  facet normal -0.529142 0.848533 0
    outer loop
      vertex -233.678 234.487 -3
      vertex -233.678 234.487 0
      vertex -233.5 234.598 0
    endloop
  endfacet
  facet normal -0.588456 0.808529 0
    outer loop
      vertex -233.847 234.364 -3
      vertex -233.678 234.487 0
      vertex -233.678 234.487 -3
    endloop
  endfacet
  facet normal -0.588456 0.808529 0
    outer loop
      vertex -233.847 234.364 -3
      vertex -233.847 234.364 0
      vertex -233.678 234.487 0
    endloop
  endfacet
  facet normal -0.644871 0.764291 0
    outer loop
      vertex -234.007 234.229 -3
      vertex -233.847 234.364 0
      vertex -233.847 234.364 -3
    endloop
  endfacet
  facet normal -0.644871 0.764291 0
    outer loop
      vertex -234.007 234.229 -3
      vertex -234.007 234.229 0
      vertex -233.847 234.364 0
    endloop
  endfacet
  facet normal -0.692631 0.721292 0
    outer loop
      vertex -234.158 234.084 -3
      vertex -234.007 234.229 0
      vertex -234.007 234.229 -3
    endloop
  endfacet
  facet normal -0.692631 0.721292 0
    outer loop
      vertex -234.158 234.084 -3
      vertex -234.158 234.084 0
      vertex -234.007 234.229 0
    endloop
  endfacet
  facet normal -0.744242 0.66791 0
    outer loop
      vertex -234.298 233.928 -3
      vertex -234.158 234.084 0
      vertex -234.158 234.084 -3
    endloop
  endfacet
  facet normal -0.744242 0.66791 0
    outer loop
      vertex -234.298 233.928 -3
      vertex -234.298 233.928 0
      vertex -234.158 234.084 0
    endloop
  endfacet
  facet normal -0.787807 0.615922 0
    outer loop
      vertex -234.427 233.763 -3
      vertex -234.298 233.928 0
      vertex -234.298 233.928 -3
    endloop
  endfacet
  facet normal -0.787807 0.615922 0
    outer loop
      vertex -234.427 233.763 -3
      vertex -234.427 233.763 0
      vertex -234.298 233.928 0
    endloop
  endfacet
  facet normal -0.828349 0.560213 0
    outer loop
      vertex -234.544 233.59 -3
      vertex -234.427 233.763 0
      vertex -234.427 233.763 -3
    endloop
  endfacet
  facet normal -0.828349 0.560213 0
    outer loop
      vertex -234.544 233.59 -3
      vertex -234.544 233.59 0
      vertex -234.427 233.763 0
    endloop
  endfacet
  facet normal -0.866186 0.499722 0
    outer loop
      vertex -234.649 233.408 -3
      vertex -234.544 233.59 0
      vertex -234.544 233.59 -3
    endloop
  endfacet
  facet normal -0.866186 0.499722 0
    outer loop
      vertex -234.649 233.408 -3
      vertex -234.649 233.408 0
      vertex -234.544 233.59 0
    endloop
  endfacet
  facet normal -0.898217 0.439553 0
    outer loop
      vertex -234.741 233.22 -3
      vertex -234.649 233.408 0
      vertex -234.649 233.408 -3
    endloop
  endfacet
  facet normal -0.898217 0.439553 0
    outer loop
      vertex -234.741 233.22 -3
      vertex -234.741 233.22 0
      vertex -234.649 233.408 0
    endloop
  endfacet
  facet normal -0.927816 0.373039 0
    outer loop
      vertex -234.819 233.026 -3
      vertex -234.741 233.22 0
      vertex -234.741 233.22 -3
    endloop
  endfacet
  facet normal -0.927816 0.373039 0
    outer loop
      vertex -234.819 233.026 -3
      vertex -234.819 233.026 0
      vertex -234.741 233.22 0
    endloop
  endfacet
  facet normal -0.950577 0.31049 0
    outer loop
      vertex -234.884 232.827 -3
      vertex -234.819 233.026 0
      vertex -234.819 233.026 -3
    endloop
  endfacet
  facet normal -0.950577 0.31049 0
    outer loop
      vertex -234.884 232.827 -3
      vertex -234.884 232.827 0
      vertex -234.819 233.026 0
    endloop
  endfacet
  facet normal -0.970981 0.239158 0
    outer loop
      vertex -234.934 232.624 -3
      vertex -234.884 232.827 0
      vertex -234.884 232.827 -3
    endloop
  endfacet
  facet normal -0.970981 0.239158 0
    outer loop
      vertex -234.934 232.624 -3
      vertex -234.934 232.624 0
      vertex -234.884 232.827 0
    endloop
  endfacet
  facet normal -0.98425 0.176783 0
    outer loop
      vertex -234.971 232.418 -3
      vertex -234.934 232.624 0
      vertex -234.934 232.624 -3
    endloop
  endfacet
  facet normal -0.98425 0.176783 0
    outer loop
      vertex -234.971 232.418 -3
      vertex -234.971 232.418 0
      vertex -234.934 232.624 0
    endloop
  endfacet
  facet normal -0.994505 0.104685 0
    outer loop
      vertex -234.993 232.209 -3
      vertex -234.971 232.418 0
      vertex -234.971 232.418 -3
    endloop
  endfacet
  facet normal -0.994505 0.104685 0
    outer loop
      vertex -234.993 232.209 -3
      vertex -234.993 232.209 0
      vertex -234.971 232.418 0
    endloop
  endfacet
  facet normal -0.99944 0.0334741 0
    outer loop
      vertex -235 232 -3
      vertex -234.993 232.209 0
      vertex -234.993 232.209 -3
    endloop
  endfacet
  facet normal -0.99944 0.0334741 0
    outer loop
      vertex -235 232 -3
      vertex -235 232 0
      vertex -234.993 232.209 0
    endloop
  endfacet
  facet normal -1 0 0
    outer loop
      vertex -235 -232 -3
      vertex -235 232 0
      vertex -235 232 -3
    endloop
  endfacet
  facet normal -1 0 0
    outer loop
      vertex -235 -232 -3
      vertex -235 -232 0
      vertex -235 232 0
    endloop
  endfacet
  facet normal -0.99944 -0.0334741 0
    outer loop
      vertex -234.993 -232.209 -3
      vertex -235 -232 0
      vertex -235 -232 -3
    endloop
  endfacet
  facet normal -0.99944 -0.0334741 0
    outer loop
      vertex -234.993 -232.209 -3
      vertex -234.993 -232.209 0
      vertex -235 -232 0
    endloop
  endfacet
  facet normal -0.994505 -0.104685 0
    outer loop
      vertex -234.971 -232.418 -3
      vertex -234.993 -232.209 0
      vertex -234.993 -232.209 -3
    endloop
  endfacet
  facet normal -0.994505 -0.104685 0
    outer loop
      vertex -234.971 -232.418 -3
      vertex -234.971 -232.418 0
      vertex -234.993 -232.209 0
    endloop
  endfacet
  facet normal -0.98425 -0.176783 0
    outer loop
      vertex -234.934 -232.624 -3
      vertex -234.971 -232.418 0
      vertex -234.971 -232.418 -3
    endloop
  endfacet
  facet normal -0.98425 -0.176783 0
    outer loop
      vertex -234.934 -232.624 -3
      vertex -234.934 -232.624 0
      vertex -234.971 -232.418 0
    endloop
  endfacet
  facet normal -0.970981 -0.239158 0
    outer loop
      vertex -234.884 -232.827 -3
      vertex -234.934 -232.624 0
      vertex -234.934 -232.624 -3
    endloop
  endfacet
  facet normal -0.970981 -0.239158 0
    outer loop
      vertex -234.884 -232.827 -3
      vertex -234.884 -232.827 0
      vertex -234.934 -232.624 0
    endloop
  endfacet
  facet normal -0.950577 -0.31049 0
    outer loop
      vertex -234.819 -233.026 -3
      vertex -234.884 -232.827 0
      vertex -234.884 -232.827 -3
    endloop
  endfacet
  facet normal -0.950577 -0.31049 0
    outer loop
      vertex -234.819 -233.026 -3
      vertex -234.819 -233.026 0
      vertex -234.884 -232.827 0
    endloop
  endfacet
  facet normal -0.927816 -0.373039 0
    outer loop
      vertex -234.741 -233.22 -3
      vertex -234.819 -233.026 0
      vertex -234.819 -233.026 -3
    endloop
  endfacet
  facet normal -0.927816 -0.373039 0
    outer loop
      vertex -234.741 -233.22 -3
      vertex -234.741 -233.22 0
      vertex -234.819 -233.026 0
    endloop
  endfacet
  facet normal -0.898217 -0.439553 0
    outer loop
      vertex -234.649 -233.408 -3
      vertex -234.741 -233.22 0
      vertex -234.741 -233.22 -3
    endloop
  endfacet
  facet normal -0.898217 -0.439553 0
    outer loop
      vertex -234.649 -233.408 -3
      vertex -234.649 -233.408 0
      vertex -234.741 -233.22 0
    endloop
  endfacet
  facet normal -0.866186 -0.499722 0
    outer loop
      vertex -234.544 -233.59 -3
      vertex -234.649 -233.408 0
      vertex -234.649 -233.408 -3
    endloop
  endfacet
  facet normal -0.866186 -0.499722 0
    outer loop
      vertex -234.544 -233.59 -3
      vertex -234.544 -233.59 0
      vertex -234.649 -233.408 0
    endloop
  endfacet
  facet normal -0.828349 -0.560213 0
    outer loop
      vertex -234.427 -233.763 -3
      vertex -234.544 -233.59 0
      vertex -234.544 -233.59 -3
    endloop
  endfacet
  facet normal -0.828349 -0.560213 0
    outer loop
      vertex -234.427 -233.763 -3
      vertex -234.427 -233.763 0
      vertex -234.544 -233.59 0
    endloop
  endfacet
  facet normal -0.787807 -0.615922 0
    outer loop
      vertex -234.298 -233.928 -3
      vertex -234.427 -233.763 0
      vertex -234.427 -233.763 -3
    endloop
  endfacet
  facet normal -0.787807 -0.615922 0
    outer loop
      vertex -234.298 -233.928 -3
      vertex -234.298 -233.928 0
      vertex -234.427 -233.763 0
    endloop
  endfacet
  facet normal -0.744242 -0.66791 0
    outer loop
      vertex -234.158 -234.084 -3
      vertex -234.298 -233.928 0
      vertex -234.298 -233.928 -3
    endloop
  endfacet
  facet normal -0.744242 -0.66791 0
    outer loop
      vertex -234.158 -234.084 -3
      vertex -234.158 -234.084 0
      vertex -234.298 -233.928 0
    endloop
  endfacet
  facet normal -0.692631 -0.721292 0
    outer loop
      vertex -234.007 -234.229 -3
      vertex -234.158 -234.084 0
      vertex -234.158 -234.084 -3
    endloop
  endfacet
  facet normal -0.692631 -0.721292 0
    outer loop
      vertex -234.007 -234.229 -3
      vertex -234.007 -234.229 0
      vertex -234.158 -234.084 0
    endloop
  endfacet
  facet normal -0.644871 -0.764291 0
    outer loop
      vertex -233.847 -234.364 -3
      vertex -234.007 -234.229 0
      vertex -234.007 -234.229 -3
    endloop
  endfacet
  facet normal -0.644871 -0.764291 0
    outer loop
      vertex -233.847 -234.364 -3
      vertex -233.847 -234.364 0
      vertex -234.007 -234.229 0
    endloop
  endfacet
  facet normal -0.588456 -0.808529 0
    outer loop
      vertex -233.678 -234.487 -3
      vertex -233.847 -234.364 0
      vertex -233.847 -234.364 -3
    endloop
  endfacet
  facet normal -0.588456 -0.808529 0
    outer loop
      vertex -233.678 -234.487 -3
      vertex -233.678 -234.487 0
      vertex -233.847 -234.364 0
    endloop
  endfacet
  facet normal -0.529142 -0.848533 0
    outer loop
      vertex -233.5 -234.598 -3
      vertex -233.678 -234.487 0
      vertex -233.678 -234.487 -3
    endloop
  endfacet
  facet normal -0.529142 -0.848533 0
    outer loop
      vertex -233.5 -234.598 -3
      vertex -233.5 -234.598 0
      vertex -233.678 -234.487 0
    endloop
  endfacet
  facet normal -0.468107 -0.883672 0
    outer loop
      vertex -233.315 -234.696 -3
      vertex -233.5 -234.598 0
      vertex -233.5 -234.598 -3
    endloop
  endfacet
  facet normal -0.468107 -0.883672 0
    outer loop
      vertex -233.315 -234.696 -3
      vertex -233.315 -234.696 0
      vertex -233.5 -234.598 0
    endloop
  endfacet
  facet normal -0.410563 -0.911832 0
    outer loop
      vertex -233.124 -234.782 -3
      vertex -233.315 -234.696 0
      vertex -233.315 -234.696 -3
    endloop
  endfacet
  facet normal -0.410563 -0.911832 0
    outer loop
      vertex -233.124 -234.782 -3
      vertex -233.124 -234.782 0
      vertex -233.315 -234.696 0
    endloop
  endfacet
  facet normal -0.339058 -0.940766 0
    outer loop
      vertex -232.927 -234.853 -3
      vertex -233.124 -234.782 0
      vertex -233.124 -234.782 -3
    endloop
  endfacet
  facet normal -0.339058 -0.940766 0
    outer loop
      vertex -232.927 -234.853 -3
      vertex -232.927 -234.853 0
      vertex -233.124 -234.782 0
    endloop
  endfacet
  facet normal -0.277246 -0.960799 0
    outer loop
      vertex -232.726 -234.911 -3
      vertex -232.927 -234.853 0
      vertex -232.927 -234.853 -3
    endloop
  endfacet
  facet normal -0.277246 -0.960799 0
    outer loop
      vertex -232.726 -234.911 -3
      vertex -232.726 -234.911 0
      vertex -232.927 -234.853 0
    endloop
  endfacet
  facet normal -0.205289 -0.978701 0
    outer loop
      vertex -232.521 -234.954 -3
      vertex -232.726 -234.911 0
      vertex -232.726 -234.911 -3
    endloop
  endfacet
  facet normal -0.205289 -0.978701 0
    outer loop
      vertex -232.521 -234.954 -3
      vertex -232.521 -234.954 0
      vertex -232.726 -234.911 0
    endloop
  endfacet
  facet normal -0.143429 -0.989661 0
    outer loop
      vertex -232.314 -234.984 -3
      vertex -232.521 -234.954 0
      vertex -232.521 -234.954 -3
    endloop
  endfacet
  facet normal -0.143429 -0.989661 0
    outer loop
      vertex -232.314 -234.984 -3
      vertex -232.314 -234.984 0
      vertex -232.521 -234.954 0
    endloop
  endfacet
  facet normal -0.0668359 -0.997764 0
    outer loop
      vertex -232.105 -234.998 -3
      vertex -232.314 -234.984 0
      vertex -232.314 -234.984 -3
    endloop
  endfacet
  facet normal -0.0668359 -0.997764 0
    outer loop
      vertex -232.105 -234.998 -3
      vertex -232.105 -234.998 0
      vertex -232.314 -234.984 0
    endloop
  endfacet
  facet normal 0 -1 0
    outer loop
      vertex -232.002 -234.998 -3
      vertex -232.105 -234.998 0
      vertex -232.105 -234.998 -3
    endloop
  endfacet
  facet normal 0 -1 0
    outer loop
      vertex -232.002 -234.998 -3
      vertex -232.002 -234.998 0
      vertex -232.105 -234.998 0
    endloop
  endfacet
  facet normal -0.707107 -0.707107 0
    outer loop
      vertex -232 -235 -3
      vertex -232.002 -234.998 0
      vertex -232.002 -234.998 -3
    endloop
  endfacet
  facet normal -0.707107 -0.707107 0
    outer loop
      vertex -232 -235 -3
      vertex -232 -235 0
      vertex -232.002 -234.998 0
    endloop
  endfacet
  facet normal 0 -1 0
    outer loop
      vertex 232 -235 -3
      vertex -232 -235 0
      vertex -232 -235 -3
    endloop
  endfacet
  facet normal 0 -1 0
    outer loop
      vertex 232 -235 -3
      vertex 232 -235 0
      vertex -232 -235 0
    endloop
  endfacet
  facet normal 0.707107 -0.707107 0
    outer loop
      vertex 232.002 -234.998 -3
      vertex 232 -235 0
      vertex 232 -235 -3
    endloop
  endfacet
  facet normal 0.707107 -0.707107 0
    outer loop
      vertex 232.002 -234.998 -3
      vertex 232.002 -234.998 0
      vertex 232 -235 0
    endloop
  endfacet
endsolid OpenSCAD_Model
