solid OpenSCAD_Model
  facet normal 0 0 -1
    outer loop
      vertex 202.105 -204.998 -3
      vertex 202.002 -204.998 -3
      vertex 202.314 -204.984 -3
    endloop
  endfacet
  facet normal -0 0 -1
    outer loop
      vertex 202.314 -204.984 -3
      vertex 202.002 -204.998 -3
      vertex 202.521 -204.954 -3
    endloop
  endfacet
  facet normal -0 0 -1
    outer loop
      vertex 205 -202 -3
      vertex 202.002 -204.998 -3
      vertex 202.002 204.998 -3
    endloop
  endfacet
  facet normal -0 0 -1
    outer loop
      vertex 202.521 -204.954 -3
      vertex 202.002 -204.998 -3
      vertex 202.726 -204.911 -3
    endloop
  endfacet
  facet normal -0 0 -1
    outer loop
      vertex 202.726 -204.911 -3
      vertex 202.002 -204.998 -3
      vertex 202.927 -204.853 -3
    endloop
  endfacet
  facet normal -0 0 -1
    outer loop
      vertex 202.927 -204.853 -3
      vertex 202.002 -204.998 -3
      vertex 203.124 -204.782 -3
    endloop
  endfacet
  facet normal -0 0 -1
    outer loop
      vertex 203.124 -204.782 -3
      vertex 202.002 -204.998 -3
      vertex 203.315 -204.696 -3
    endloop
  endfacet
  facet normal -0 0 -1
    outer loop
      vertex 203.315 -204.696 -3
      vertex 202.002 -204.998 -3
      vertex 203.5 -204.598 -3
    endloop
  endfacet
  facet normal -0 0 -1
    outer loop
      vertex 203.5 -204.598 -3
      vertex 202.002 -204.998 -3
      vertex 203.678 -204.487 -3
    endloop
  endfacet
  facet normal -0 0 -1
    outer loop
      vertex 203.678 -204.487 -3
      vertex 202.002 -204.998 -3
      vertex 203.847 -204.364 -3
    endloop
  endfacet
  facet normal -0 0 -1
    outer loop
      vertex 203.847 -204.364 -3
      vertex 202.002 -204.998 -3
      vertex 204.007 -204.229 -3
    endloop
  endfacet
  facet normal -0 0 -1
    outer loop
      vertex 204.007 -204.229 -3
      vertex 202.002 -204.998 -3
      vertex 204.158 -204.084 -3
    endloop
  endfacet
  facet normal -0 0 -1
    outer loop
      vertex 204.158 -204.084 -3
      vertex 202.002 -204.998 -3
      vertex 204.298 -203.928 -3
    endloop
  endfacet
  facet normal -0 0 -1
    outer loop
      vertex 204.298 -203.928 -3
      vertex 202.002 -204.998 -3
      vertex 204.427 -203.763 -3
    endloop
  endfacet
  facet normal -0 0 -1
    outer loop
      vertex 204.427 -203.763 -3
      vertex 202.002 -204.998 -3
      vertex 204.544 -203.59 -3
    endloop
  endfacet
  facet normal -0 0 -1
    outer loop
      vertex 204.544 -203.59 -3
      vertex 202.002 -204.998 -3
      vertex 204.649 -203.408 -3
    endloop
  endfacet
  facet normal -0 0 -1
    outer loop
      vertex 204.649 -203.408 -3
      vertex 202.002 -204.998 -3
      vertex 204.741 -203.22 -3
    endloop
  endfacet
  facet normal -0 0 -1
    outer loop
      vertex 204.741 -203.22 -3
      vertex 202.002 -204.998 -3
      vertex 204.819 -203.026 -3
    endloop
  endfacet
  facet normal -0 0 -1
    outer loop
      vertex 204.819 -203.026 -3
      vertex 202.002 -204.998 -3
      vertex 204.884 -202.827 -3
    endloop
  endfacet
  facet normal -0 0 -1
    outer loop
      vertex 204.884 -202.827 -3
      vertex 202.002 -204.998 -3
      vertex 204.934 -202.624 -3
    endloop
  endfacet
  facet normal -0 0 -1
    outer loop
      vertex 204.934 -202.624 -3
      vertex 202.002 -204.998 -3
      vertex 204.971 -202.418 -3
    endloop
  endfacet
  facet normal -0 0 -1
    outer loop
      vertex 204.971 -202.418 -3
      vertex 202.002 -204.998 -3
      vertex 204.993 -202.209 -3
    endloop
  endfacet
  facet normal -0 0 -1
    outer loop
      vertex 204.993 -202.209 -3
      vertex 202.002 -204.998 -3
      vertex 205 -202 -3
    endloop
  endfacet
  facet normal 0 0 -1
    outer loop
      vertex 205 -202 -3
      vertex 202.002 204.998 -3
      vertex 205 202 -3
    endloop
  endfacet
  facet normal 0 0 -1
    outer loop
      vertex 202.002 204.998 -3
      vertex 204.971 202.418 -3
      vertex 204.993 202.209 -3
    endloop
  endfacet
  facet normal -0 -0 -1
    outer loop
      vertex 204.884 202.827 -3
      vertex 204.934 202.624 -3
      vertex 202.002 204.998 -3
    endloop
  endfacet
  facet normal 0 0 -1
    outer loop
      vertex 204.741 203.22 -3
      vertex 202.002 204.998 -3
      vertex 204.649 203.408 -3
    endloop
  endfacet
  facet normal -0 -0 -1
    outer loop
      vertex 204.741 203.22 -3
      vertex 204.819 203.026 -3
      vertex 202.002 204.998 -3
    endloop
  endfacet
  facet normal 0 0 -1
    outer loop
      vertex 202.002 204.998 -3
      vertex 204.007 204.229 -3
      vertex 204.158 204.084 -3
    endloop
  endfacet
  facet normal 0 0 -1
    outer loop
      vertex 204.427 203.763 -3
      vertex 202.002 204.998 -3
      vertex 204.298 203.928 -3
    endloop
  endfacet
  facet normal -0 -0 -1
    outer loop
      vertex 204.427 203.763 -3
      vertex 204.544 203.59 -3
      vertex 202.002 204.998 -3
    endloop
  endfacet
  facet normal 0 0 -1
    outer loop
      vertex 204.298 203.928 -3
      vertex 202.002 204.998 -3
      vertex 204.158 204.084 -3
    endloop
  endfacet
  facet normal 0 0 -1
    outer loop
      vertex 202.002 204.998 -3
      vertex 202.927 204.853 -3
      vertex 203.124 204.782 -3
    endloop
  endfacet
  facet normal 0 0 -1
    outer loop
      vertex 203.847 204.364 -3
      vertex 202.002 204.998 -3
      vertex 203.678 204.487 -3
    endloop
  endfacet
  facet normal -0 -0 -1
    outer loop
      vertex 203.847 204.364 -3
      vertex 204.007 204.229 -3
      vertex 202.002 204.998 -3
    endloop
  endfacet
  facet normal 0 0 -1
    outer loop
      vertex 203.678 204.487 -3
      vertex 202.002 204.998 -3
      vertex 203.5 204.598 -3
    endloop
  endfacet
  facet normal 0 0 -1
    outer loop
      vertex 203.5 204.598 -3
      vertex 202.002 204.998 -3
      vertex 203.315 204.696 -3
    endloop
  endfacet
  facet normal 0 0 -1
    outer loop
      vertex 203.315 204.696 -3
      vertex 202.002 204.998 -3
      vertex 203.124 204.782 -3
    endloop
  endfacet
  facet normal 0 0 -1
    outer loop
      vertex 204.649 203.408 -3
      vertex 202.002 204.998 -3
      vertex 204.544 203.59 -3
    endloop
  endfacet
  facet normal 0 0 -1
    outer loop
      vertex 202.726 204.911 -3
      vertex 202.002 204.998 -3
      vertex 202.521 204.954 -3
    endloop
  endfacet
  facet normal -0 -0 -1
    outer loop
      vertex 202.726 204.911 -3
      vertex 202.927 204.853 -3
      vertex 202.002 204.998 -3
    endloop
  endfacet
  facet normal -0 -0 -1
    outer loop
      vertex 204.819 203.026 -3
      vertex 204.884 202.827 -3
      vertex 202.002 204.998 -3
    endloop
  endfacet
  facet normal -0 -0 -1
    outer loop
      vertex 202.314 204.984 -3
      vertex 202.521 204.954 -3
      vertex 202.002 204.998 -3
    endloop
  endfacet
  facet normal 0 0 -1
    outer loop
      vertex 202.002 204.998 -3
      vertex 204.934 202.624 -3
      vertex 204.971 202.418 -3
    endloop
  endfacet
  facet normal 0 0 -1
    outer loop
      vertex 202.002 204.998 -3
      vertex 202.105 204.998 -3
      vertex 202.314 204.984 -3
    endloop
  endfacet
  facet normal 0 0 -1
    outer loop
      vertex 205 202 -3
      vertex 202.002 204.998 -3
      vertex 204.993 202.209 -3
    endloop
  endfacet
  facet normal 0 -0 -1
    outer loop
      vertex -202 205 -3
      vertex 202 205 -3
      vertex -202.002 204.998 -3
    endloop
  endfacet
  facet normal 0 0 -1
    outer loop
      vertex -202.002 204.998 -3
      vertex 202 205 -3
      vertex 202.002 204.998 -3
    endloop
  endfacet
  facet normal 0 0 -1
    outer loop
      vertex 202.002 -204.998 -3
      vertex -202.002 204.998 -3
      vertex 202.002 204.998 -3
    endloop
  endfacet
  facet normal 0 0 -1
    outer loop
      vertex -205 -202 -3
      vertex -205 202 -3
      vertex -202.002 -204.998 -3
    endloop
  endfacet
  facet normal -0 0 -1
    outer loop
      vertex -202.002 204.998 -3
      vertex -202.314 204.984 -3
      vertex -202.105 204.998 -3
    endloop
  endfacet
  facet normal 0 0 -1
    outer loop
      vertex -202.002 204.998 -3
      vertex -202.521 204.954 -3
      vertex -202.314 204.984 -3
    endloop
  endfacet
  facet normal 0 0 -1
    outer loop
      vertex -202.002 204.998 -3
      vertex -202.726 204.911 -3
      vertex -202.521 204.954 -3
    endloop
  endfacet
  facet normal 0 0 -1
    outer loop
      vertex -202.002 204.998 -3
      vertex -202.927 204.853 -3
      vertex -202.726 204.911 -3
    endloop
  endfacet
  facet normal 0 0 -1
    outer loop
      vertex -202.002 204.998 -3
      vertex -203.124 204.782 -3
      vertex -202.927 204.853 -3
    endloop
  endfacet
  facet normal 0 0 -1
    outer loop
      vertex -202.002 204.998 -3
      vertex -203.315 204.696 -3
      vertex -203.124 204.782 -3
    endloop
  endfacet
  facet normal 0 0 -1
    outer loop
      vertex -202.002 204.998 -3
      vertex -203.5 204.598 -3
      vertex -203.315 204.696 -3
    endloop
  endfacet
  facet normal 0 0 -1
    outer loop
      vertex -202.002 204.998 -3
      vertex -203.678 204.487 -3
      vertex -203.5 204.598 -3
    endloop
  endfacet
  facet normal 0 0 -1
    outer loop
      vertex -202.002 204.998 -3
      vertex -203.847 204.364 -3
      vertex -203.678 204.487 -3
    endloop
  endfacet
  facet normal 0 0 -1
    outer loop
      vertex -202.002 204.998 -3
      vertex -204.007 204.229 -3
      vertex -203.847 204.364 -3
    endloop
  endfacet
  facet normal 0 0 -1
    outer loop
      vertex -202.002 204.998 -3
      vertex -204.158 204.084 -3
      vertex -204.007 204.229 -3
    endloop
  endfacet
  facet normal 0 0 -1
    outer loop
      vertex -202.002 204.998 -3
      vertex -204.298 203.928 -3
      vertex -204.158 204.084 -3
    endloop
  endfacet
  facet normal 0 0 -1
    outer loop
      vertex -202.002 204.998 -3
      vertex -204.427 203.763 -3
      vertex -204.298 203.928 -3
    endloop
  endfacet
  facet normal 0 0 -1
    outer loop
      vertex -202.002 204.998 -3
      vertex -204.544 203.59 -3
      vertex -204.427 203.763 -3
    endloop
  endfacet
  facet normal 0 0 -1
    outer loop
      vertex -202.002 204.998 -3
      vertex -204.649 203.408 -3
      vertex -204.544 203.59 -3
    endloop
  endfacet
  facet normal 0 0 -1
    outer loop
      vertex -202.002 204.998 -3
      vertex -204.741 203.22 -3
      vertex -204.649 203.408 -3
    endloop
  endfacet
  facet normal 0 0 -1
    outer loop
      vertex -202.002 204.998 -3
      vertex -204.819 203.026 -3
      vertex -204.741 203.22 -3
    endloop
  endfacet
  facet normal 0 0 -1
    outer loop
      vertex -202.002 204.998 -3
      vertex -204.884 202.827 -3
      vertex -204.819 203.026 -3
    endloop
  endfacet
  facet normal 0 0 -1
    outer loop
      vertex -202.002 204.998 -3
      vertex -204.934 202.624 -3
      vertex -204.884 202.827 -3
    endloop
  endfacet
  facet normal 0 0 -1
    outer loop
      vertex -202.002 204.998 -3
      vertex -204.971 202.418 -3
      vertex -204.934 202.624 -3
    endloop
  endfacet
  facet normal 0 0 -1
    outer loop
      vertex -202.002 204.998 -3
      vertex -204.993 202.209 -3
      vertex -204.971 202.418 -3
    endloop
  endfacet
  facet normal 0 0 -1
    outer loop
      vertex -202.002 204.998 -3
      vertex -205 202 -3
      vertex -204.993 202.209 -3
    endloop
  endfacet
  facet normal 0 0 -1
    outer loop
      vertex -202.002 -204.998 -3
      vertex -205 202 -3
      vertex -202.002 204.998 -3
    endloop
  endfacet
  facet normal 0 0 -1
    outer loop
      vertex 202.002 -204.998 -3
      vertex -202.002 -204.998 -3
      vertex -202.002 204.998 -3
    endloop
  endfacet
  facet normal 0 0 -1
    outer loop
      vertex -202.002 -204.998 -3
      vertex -204.971 -202.418 -3
      vertex -204.993 -202.209 -3
    endloop
  endfacet
  facet normal 0 0 -1
    outer loop
      vertex -204.884 -202.827 -3
      vertex -204.934 -202.624 -3
      vertex -202.002 -204.998 -3
    endloop
  endfacet
  facet normal 0 0 -1
    outer loop
      vertex -204.741 -203.22 -3
      vertex -202.002 -204.998 -3
      vertex -204.649 -203.408 -3
    endloop
  endfacet
  facet normal 0 0 -1
    outer loop
      vertex -204.741 -203.22 -3
      vertex -204.819 -203.026 -3
      vertex -202.002 -204.998 -3
    endloop
  endfacet
  facet normal 0 0 -1
    outer loop
      vertex -202.002 -204.998 -3
      vertex -204.007 -204.229 -3
      vertex -204.158 -204.084 -3
    endloop
  endfacet
  facet normal 0 0 -1
    outer loop
      vertex -204.427 -203.763 -3
      vertex -202.002 -204.998 -3
      vertex -204.298 -203.928 -3
    endloop
  endfacet
  facet normal 0 0 -1
    outer loop
      vertex -204.427 -203.763 -3
      vertex -204.544 -203.59 -3
      vertex -202.002 -204.998 -3
    endloop
  endfacet
  facet normal 0 0 -1
    outer loop
      vertex -204.298 -203.928 -3
      vertex -202.002 -204.998 -3
      vertex -204.158 -204.084 -3
    endloop
  endfacet
  facet normal 0 0 -1
    outer loop
      vertex -202.002 -204.998 -3
      vertex -202.927 -204.853 -3
      vertex -203.124 -204.782 -3
    endloop
  endfacet
  facet normal 0 0 -1
    outer loop
      vertex -203.847 -204.364 -3
      vertex -202.002 -204.998 -3
      vertex -203.678 -204.487 -3
    endloop
  endfacet
  facet normal 0 0 -1
    outer loop
      vertex -203.847 -204.364 -3
      vertex -204.007 -204.229 -3
      vertex -202.002 -204.998 -3
    endloop
  endfacet
  facet normal 0 0 -1
    outer loop
      vertex -203.678 -204.487 -3
      vertex -202.002 -204.998 -3
      vertex -203.5 -204.598 -3
    endloop
  endfacet
  facet normal 0 0 -1
    outer loop
      vertex -203.5 -204.598 -3
      vertex -202.002 -204.998 -3
      vertex -203.315 -204.696 -3
    endloop
  endfacet
  facet normal 0 0 -1
    outer loop
      vertex -203.315 -204.696 -3
      vertex -202.002 -204.998 -3
      vertex -203.124 -204.782 -3
    endloop
  endfacet
  facet normal 0 0 -1
    outer loop
      vertex -204.649 -203.408 -3
      vertex -202.002 -204.998 -3
      vertex -204.544 -203.59 -3
    endloop
  endfacet
  facet normal 0 0 -1
    outer loop
      vertex -202.726 -204.911 -3
      vertex -202.002 -204.998 -3
      vertex -202.521 -204.954 -3
    endloop
  endfacet
  facet normal 0 0 -1
    outer loop
      vertex -202.726 -204.911 -3
      vertex -202.927 -204.853 -3
      vertex -202.002 -204.998 -3
    endloop
  endfacet
  facet normal 0 0 -1
    outer loop
      vertex -204.819 -203.026 -3
      vertex -204.884 -202.827 -3
      vertex -202.002 -204.998 -3
    endloop
  endfacet
  facet normal 0 0 -1
    outer loop
      vertex -202.314 -204.984 -3
      vertex -202.521 -204.954 -3
      vertex -202.002 -204.998 -3
    endloop
  endfacet
  facet normal 0 0 -1
    outer loop
      vertex -202.002 -204.998 -3
      vertex -204.934 -202.624 -3
      vertex -204.971 -202.418 -3
    endloop
  endfacet
  facet normal 0 0 -1
    outer loop
      vertex -202.002 -204.998 -3
      vertex -202.105 -204.998 -3
      vertex -202.314 -204.984 -3
    endloop
  endfacet
  facet normal -0 0 -1
    outer loop
      vertex 202.002 -204.998 -3
      vertex 202 -205 -3
      vertex -202.002 -204.998 -3
    endloop
  endfacet
  facet normal 0 0 -1
    outer loop
      vertex -202.002 -204.998 -3
      vertex 202 -205 -3
      vertex -202 -205 -3
    endloop
  endfacet
  facet normal 0 0 -1
    outer loop
      vertex -205 -202 -3
      vertex -202.002 -204.998 -3
      vertex -204.993 -202.209 -3
    endloop
  endfacet
  facet normal 0 0 1
    outer loop
      vertex 202.314 -204.984 0
      vertex 202.002 -204.998 0
      vertex 202.105 -204.998 0
    endloop
  endfacet
  facet normal 0 0 1
    outer loop
      vertex 202.521 -204.954 0
      vertex 202.002 -204.998 0
      vertex 202.314 -204.984 0
    endloop
  endfacet
  facet normal 0 0 1
    outer loop
      vertex 202.002 204.998 0
      vertex 202.002 -204.998 0
      vertex 205 -202 0
    endloop
  endfacet
  facet normal 0 0 1
    outer loop
      vertex 202.726 -204.911 0
      vertex 202.002 -204.998 0
      vertex 202.521 -204.954 0
    endloop
  endfacet
  facet normal 0 0 1
    outer loop
      vertex 202.927 -204.853 0
      vertex 202.002 -204.998 0
      vertex 202.726 -204.911 0
    endloop
  endfacet
  facet normal 0 0 1
    outer loop
      vertex 203.124 -204.782 0
      vertex 202.002 -204.998 0
      vertex 202.927 -204.853 0
    endloop
  endfacet
  facet normal 0 0 1
    outer loop
      vertex 203.315 -204.696 0
      vertex 202.002 -204.998 0
      vertex 203.124 -204.782 0
    endloop
  endfacet
  facet normal 0 0 1
    outer loop
      vertex 203.5 -204.598 0
      vertex 202.002 -204.998 0
      vertex 203.315 -204.696 0
    endloop
  endfacet
  facet normal 0 0 1
    outer loop
      vertex 203.678 -204.487 0
      vertex 202.002 -204.998 0
      vertex 203.5 -204.598 0
    endloop
  endfacet
  facet normal 0 0 1
    outer loop
      vertex 203.847 -204.364 0
      vertex 202.002 -204.998 0
      vertex 203.678 -204.487 0
    endloop
  endfacet
  facet normal 0 0 1
    outer loop
      vertex 204.007 -204.229 0
      vertex 202.002 -204.998 0
      vertex 203.847 -204.364 0
    endloop
  endfacet
  facet normal 0 0 1
    outer loop
      vertex 204.158 -204.084 0
      vertex 202.002 -204.998 0
      vertex 204.007 -204.229 0
    endloop
  endfacet
  facet normal 0 0 1
    outer loop
      vertex 204.298 -203.928 0
      vertex 202.002 -204.998 0
      vertex 204.158 -204.084 0
    endloop
  endfacet
  facet normal 0 0 1
    outer loop
      vertex 204.427 -203.763 0
      vertex 202.002 -204.998 0
      vertex 204.298 -203.928 0
    endloop
  endfacet
  facet normal 0 0 1
    outer loop
      vertex 204.544 -203.59 0
      vertex 202.002 -204.998 0
      vertex 204.427 -203.763 0
    endloop
  endfacet
  facet normal 0 0 1
    outer loop
      vertex 204.649 -203.408 0
      vertex 202.002 -204.998 0
      vertex 204.544 -203.59 0
    endloop
  endfacet
  facet normal 0 0 1
    outer loop
      vertex 204.741 -203.22 0
      vertex 202.002 -204.998 0
      vertex 204.649 -203.408 0
    endloop
  endfacet
  facet normal 0 0 1
    outer loop
      vertex 204.819 -203.026 0
      vertex 202.002 -204.998 0
      vertex 204.741 -203.22 0
    endloop
  endfacet
  facet normal 0 0 1
    outer loop
      vertex 204.884 -202.827 0
      vertex 202.002 -204.998 0
      vertex 204.819 -203.026 0
    endloop
  endfacet
  facet normal 0 0 1
    outer loop
      vertex 204.934 -202.624 0
      vertex 202.002 -204.998 0
      vertex 204.884 -202.827 0
    endloop
  endfacet
  facet normal 0 0 1
    outer loop
      vertex 204.971 -202.418 0
      vertex 202.002 -204.998 0
      vertex 204.934 -202.624 0
    endloop
  endfacet
  facet normal 0 0 1
    outer loop
      vertex 204.993 -202.209 0
      vertex 202.002 -204.998 0
      vertex 204.971 -202.418 0
    endloop
  endfacet
  facet normal 0 0 1
    outer loop
      vertex 205 -202 0
      vertex 202.002 -204.998 0
      vertex 204.993 -202.209 0
    endloop
  endfacet
  facet normal 0 0 1
    outer loop
      vertex 205 202 0
      vertex 202.002 204.998 0
      vertex 205 -202 0
    endloop
  endfacet
  facet normal 0 0 1
    outer loop
      vertex 204.993 202.209 0
      vertex 204.971 202.418 0
      vertex 202.002 204.998 0
    endloop
  endfacet
  facet normal 0 0 1
    outer loop
      vertex 202.002 204.998 0
      vertex 204.934 202.624 0
      vertex 204.884 202.827 0
    endloop
  endfacet
  facet normal 0 0 1
    outer loop
      vertex 204.649 203.408 0
      vertex 202.002 204.998 0
      vertex 204.741 203.22 0
    endloop
  endfacet
  facet normal 0 0 1
    outer loop
      vertex 202.002 204.998 0
      vertex 204.819 203.026 0
      vertex 204.741 203.22 0
    endloop
  endfacet
  facet normal 0 0 1
    outer loop
      vertex 204.158 204.084 0
      vertex 204.007 204.229 0
      vertex 202.002 204.998 0
    endloop
  endfacet
  facet normal 0 0 1
    outer loop
      vertex 204.298 203.928 0
      vertex 202.002 204.998 0
      vertex 204.427 203.763 0
    endloop
  endfacet
  facet normal 0 0 1
    outer loop
      vertex 202.002 204.998 0
      vertex 204.544 203.59 0
      vertex 204.427 203.763 0
    endloop
  endfacet
  facet normal 0 0 1
    outer loop
      vertex 204.158 204.084 0
      vertex 202.002 204.998 0
      vertex 204.298 203.928 0
    endloop
  endfacet
  facet normal 0 0 1
    outer loop
      vertex 203.124 204.782 0
      vertex 202.927 204.853 0
      vertex 202.002 204.998 0
    endloop
  endfacet
  facet normal 0 0 1
    outer loop
      vertex 203.678 204.487 0
      vertex 202.002 204.998 0
      vertex 203.847 204.364 0
    endloop
  endfacet
  facet normal 0 0 1
    outer loop
      vertex 202.002 204.998 0
      vertex 204.007 204.229 0
      vertex 203.847 204.364 0
    endloop
  endfacet
  facet normal 0 0 1
    outer loop
      vertex 203.5 204.598 0
      vertex 202.002 204.998 0
      vertex 203.678 204.487 0
    endloop
  endfacet
  facet normal 0 0 1
    outer loop
      vertex 203.315 204.696 0
      vertex 202.002 204.998 0
      vertex 203.5 204.598 0
    endloop
  endfacet
  facet normal 0 0 1
    outer loop
      vertex 203.124 204.782 0
      vertex 202.002 204.998 0
      vertex 203.315 204.696 0
    endloop
  endfacet
  facet normal 0 0 1
    outer loop
      vertex 204.544 203.59 0
      vertex 202.002 204.998 0
      vertex 204.649 203.408 0
    endloop
  endfacet
  facet normal 0 0 1
    outer loop
      vertex 202.521 204.954 0
      vertex 202.002 204.998 0
      vertex 202.726 204.911 0
    endloop
  endfacet
  facet normal 0 0 1
    outer loop
      vertex 202.002 204.998 0
      vertex 202.927 204.853 0
      vertex 202.726 204.911 0
    endloop
  endfacet
  facet normal 0 0 1
    outer loop
      vertex 202.002 204.998 0
      vertex 204.884 202.827 0
      vertex 204.819 203.026 0
    endloop
  endfacet
  facet normal 0 0 1
    outer loop
      vertex 202.002 204.998 0
      vertex 202.521 204.954 0
      vertex 202.314 204.984 0
    endloop
  endfacet
  facet normal 0 0 1
    outer loop
      vertex 204.971 202.418 0
      vertex 204.934 202.624 0
      vertex 202.002 204.998 0
    endloop
  endfacet
  facet normal 0 0 1
    outer loop
      vertex 202.314 204.984 0
      vertex 202.105 204.998 0
      vertex 202.002 204.998 0
    endloop
  endfacet
  facet normal 0 0 1
    outer loop
      vertex 204.993 202.209 0
      vertex 202.002 204.998 0
      vertex 205 202 0
    endloop
  endfacet
  facet normal 0 0 1
    outer loop
      vertex -202.002 204.998 0
      vertex 202 205 0
      vertex -202 205 0
    endloop
  endfacet
  facet normal 0 0 1
    outer loop
      vertex 202.002 204.998 0
      vertex 202 205 0
      vertex -202.002 204.998 0
    endloop
  endfacet
  facet normal 0 0 1
    outer loop
      vertex 202.002 204.998 0
      vertex -202.002 204.998 0
      vertex 202.002 -204.998 0
    endloop
  endfacet
  facet normal 0 0 1
    outer loop
      vertex -202.002 -204.998 0
      vertex -205 202 0
      vertex -205 -202 0
    endloop
  endfacet
  facet normal -0 0 1
    outer loop
      vertex -202.105 204.998 0
      vertex -202.314 204.984 0
      vertex -202.002 204.998 0
    endloop
  endfacet
  facet normal -0 0 1
    outer loop
      vertex -202.314 204.984 0
      vertex -202.521 204.954 0
      vertex -202.002 204.998 0
    endloop
  endfacet
  facet normal -0 0 1
    outer loop
      vertex -202.521 204.954 0
      vertex -202.726 204.911 0
      vertex -202.002 204.998 0
    endloop
  endfacet
  facet normal -0 0 1
    outer loop
      vertex -202.726 204.911 0
      vertex -202.927 204.853 0
      vertex -202.002 204.998 0
    endloop
  endfacet
  facet normal -0 0 1
    outer loop
      vertex -202.927 204.853 0
      vertex -203.124 204.782 0
      vertex -202.002 204.998 0
    endloop
  endfacet
  facet normal -0 0 1
    outer loop
      vertex -203.124 204.782 0
      vertex -203.315 204.696 0
      vertex -202.002 204.998 0
    endloop
  endfacet
  facet normal -0 0 1
    outer loop
      vertex -203.315 204.696 0
      vertex -203.5 204.598 0
      vertex -202.002 204.998 0
    endloop
  endfacet
  facet normal -0 0 1
    outer loop
      vertex -203.5 204.598 0
      vertex -203.678 204.487 0
      vertex -202.002 204.998 0
    endloop
  endfacet
  facet normal -0 0 1
    outer loop
      vertex -203.678 204.487 0
      vertex -203.847 204.364 0
      vertex -202.002 204.998 0
    endloop
  endfacet
  facet normal -0 0 1
    outer loop
      vertex -203.847 204.364 0
      vertex -204.007 204.229 0
      vertex -202.002 204.998 0
    endloop
  endfacet
  facet normal -0 0 1
    outer loop
      vertex -204.007 204.229 0
      vertex -204.158 204.084 0
      vertex -202.002 204.998 0
    endloop
  endfacet
  facet normal -0 0 1
    outer loop
      vertex -204.158 204.084 0
      vertex -204.298 203.928 0
      vertex -202.002 204.998 0
    endloop
  endfacet
  facet normal -0 0 1
    outer loop
      vertex -204.298 203.928 0
      vertex -204.427 203.763 0
      vertex -202.002 204.998 0
    endloop
  endfacet
  facet normal -0 0 1
    outer loop
      vertex -204.427 203.763 0
      vertex -204.544 203.59 0
      vertex -202.002 204.998 0
    endloop
  endfacet
  facet normal -0 0 1
    outer loop
      vertex -204.544 203.59 0
      vertex -204.649 203.408 0
      vertex -202.002 204.998 0
    endloop
  endfacet
  facet normal -0 0 1
    outer loop
      vertex -204.649 203.408 0
      vertex -204.741 203.22 0
      vertex -202.002 204.998 0
    endloop
  endfacet
  facet normal -0 0 1
    outer loop
      vertex -204.741 203.22 0
      vertex -204.819 203.026 0
      vertex -202.002 204.998 0
    endloop
  endfacet
  facet normal -0 0 1
    outer loop
      vertex -204.819 203.026 0
      vertex -204.884 202.827 0
      vertex -202.002 204.998 0
    endloop
  endfacet
  facet normal -0 0 1
    outer loop
      vertex -204.884 202.827 0
      vertex -204.934 202.624 0
      vertex -202.002 204.998 0
    endloop
  endfacet
  facet normal -0 0 1
    outer loop
      vertex -204.934 202.624 0
      vertex -204.971 202.418 0
      vertex -202.002 204.998 0
    endloop
  endfacet
  facet normal -0 0 1
    outer loop
      vertex -204.971 202.418 0
      vertex -204.993 202.209 0
      vertex -202.002 204.998 0
    endloop
  endfacet
  facet normal -0 0 1
    outer loop
      vertex -204.993 202.209 0
      vertex -205 202 0
      vertex -202.002 204.998 0
    endloop
  endfacet
  facet normal 0 0 1
    outer loop
      vertex -202.002 204.998 0
      vertex -205 202 0
      vertex -202.002 -204.998 0
    endloop
  endfacet
  facet normal 0 0 1
    outer loop
      vertex -202.002 204.998 0
      vertex -202.002 -204.998 0
      vertex 202.002 -204.998 0
    endloop
  endfacet
  facet normal 0 0 1
    outer loop
      vertex -204.993 -202.209 0
      vertex -204.971 -202.418 0
      vertex -202.002 -204.998 0
    endloop
  endfacet
  facet normal 0 0 1
    outer loop
      vertex -202.002 -204.998 0
      vertex -204.934 -202.624 0
      vertex -204.884 -202.827 0
    endloop
  endfacet
  facet normal -0 -0 1
    outer loop
      vertex -204.649 -203.408 0
      vertex -202.002 -204.998 0
      vertex -204.741 -203.22 0
    endloop
  endfacet
  facet normal 0 0 1
    outer loop
      vertex -202.002 -204.998 0
      vertex -204.819 -203.026 0
      vertex -204.741 -203.22 0
    endloop
  endfacet
  facet normal 0 0 1
    outer loop
      vertex -204.158 -204.084 0
      vertex -204.007 -204.229 0
      vertex -202.002 -204.998 0
    endloop
  endfacet
  facet normal -0 -0 1
    outer loop
      vertex -204.298 -203.928 0
      vertex -202.002 -204.998 0
      vertex -204.427 -203.763 0
    endloop
  endfacet
  facet normal 0 0 1
    outer loop
      vertex -202.002 -204.998 0
      vertex -204.544 -203.59 0
      vertex -204.427 -203.763 0
    endloop
  endfacet
  facet normal -0 -0 1
    outer loop
      vertex -204.158 -204.084 0
      vertex -202.002 -204.998 0
      vertex -204.298 -203.928 0
    endloop
  endfacet
  facet normal 0 0 1
    outer loop
      vertex -203.124 -204.782 0
      vertex -202.927 -204.853 0
      vertex -202.002 -204.998 0
    endloop
  endfacet
  facet normal -0 -0 1
    outer loop
      vertex -203.678 -204.487 0
      vertex -202.002 -204.998 0
      vertex -203.847 -204.364 0
    endloop
  endfacet
  facet normal 0 0 1
    outer loop
      vertex -202.002 -204.998 0
      vertex -204.007 -204.229 0
      vertex -203.847 -204.364 0
    endloop
  endfacet
  facet normal -0 -0 1
    outer loop
      vertex -203.5 -204.598 0
      vertex -202.002 -204.998 0
      vertex -203.678 -204.487 0
    endloop
  endfacet
  facet normal -0 -0 1
    outer loop
      vertex -203.315 -204.696 0
      vertex -202.002 -204.998 0
      vertex -203.5 -204.598 0
    endloop
  endfacet
  facet normal -0 -0 1
    outer loop
      vertex -203.124 -204.782 0
      vertex -202.002 -204.998 0
      vertex -203.315 -204.696 0
    endloop
  endfacet
  facet normal -0 -0 1
    outer loop
      vertex -204.544 -203.59 0
      vertex -202.002 -204.998 0
      vertex -204.649 -203.408 0
    endloop
  endfacet
  facet normal -0 -0 1
    outer loop
      vertex -202.521 -204.954 0
      vertex -202.002 -204.998 0
      vertex -202.726 -204.911 0
    endloop
  endfacet
  facet normal 0 0 1
    outer loop
      vertex -202.002 -204.998 0
      vertex -202.927 -204.853 0
      vertex -202.726 -204.911 0
    endloop
  endfacet
  facet normal 0 0 1
    outer loop
      vertex -202.002 -204.998 0
      vertex -204.884 -202.827 0
      vertex -204.819 -203.026 0
    endloop
  endfacet
  facet normal 0 0 1
    outer loop
      vertex -202.002 -204.998 0
      vertex -202.521 -204.954 0
      vertex -202.314 -204.984 0
    endloop
  endfacet
  facet normal 0 0 1
    outer loop
      vertex -204.971 -202.418 0
      vertex -204.934 -202.624 0
      vertex -202.002 -204.998 0
    endloop
  endfacet
  facet normal 0 0 1
    outer loop
      vertex -202.314 -204.984 0
      vertex -202.105 -204.998 0
      vertex -202.002 -204.998 0
    endloop
  endfacet
  facet normal -0 0 1
    outer loop
      vertex -202.002 -204.998 0
      vertex 202 -205 0
      vertex 202.002 -204.998 0
    endloop
  endfacet
  facet normal 0 -0 1
    outer loop
      vertex -202 -205 0
      vertex 202 -205 0
      vertex -202.002 -204.998 0
    endloop
  endfacet
  facet normal -0 -0 1
    outer loop
      vertex -204.993 -202.209 0
      vertex -202.002 -204.998 0
      vertex -205 -202 0
    endloop
  endfacet
  facet normal 0 -1 0
    outer loop
      vertex 202.105 -204.998 -3
      vertex 202.002 -204.998 0
      vertex 202.002 -204.998 -3
    endloop
  endfacet
  facet normal 0 -1 0
    outer loop
      vertex 202.105 -204.998 -3
      vertex 202.105 -204.998 0
      vertex 202.002 -204.998 0
    endloop
  endfacet
  facet normal 0.0668359 -0.997764 0
    outer loop
      vertex 202.314 -204.984 -3
      vertex 202.105 -204.998 0
      vertex 202.105 -204.998 -3
    endloop
  endfacet
  facet normal 0.0668359 -0.997764 0
    outer loop
      vertex 202.314 -204.984 -3
      vertex 202.314 -204.984 0
      vertex 202.105 -204.998 0
    endloop
  endfacet
  facet normal 0.143429 -0.989661 0
    outer loop
      vertex 202.521 -204.954 -3
      vertex 202.314 -204.984 0
      vertex 202.314 -204.984 -3
    endloop
  endfacet
  facet normal 0.143429 -0.989661 0
    outer loop
      vertex 202.521 -204.954 -3
      vertex 202.521 -204.954 0
      vertex 202.314 -204.984 0
    endloop
  endfacet
  facet normal 0.205289 -0.978701 0
    outer loop
      vertex 202.726 -204.911 -3
      vertex 202.521 -204.954 0
      vertex 202.521 -204.954 -3
    endloop
  endfacet
  facet normal 0.205289 -0.978701 0
    outer loop
      vertex 202.726 -204.911 -3
      vertex 202.726 -204.911 0
      vertex 202.521 -204.954 0
    endloop
  endfacet
  facet normal 0.277246 -0.960799 0
    outer loop
      vertex 202.927 -204.853 -3
      vertex 202.726 -204.911 0
      vertex 202.726 -204.911 -3
    endloop
  endfacet
  facet normal 0.277246 -0.960799 0
    outer loop
      vertex 202.927 -204.853 -3
      vertex 202.927 -204.853 0
      vertex 202.726 -204.911 0
    endloop
  endfacet
  facet normal 0.339058 -0.940766 0
    outer loop
      vertex 203.124 -204.782 -3
      vertex 202.927 -204.853 0
      vertex 202.927 -204.853 -3
    endloop
  endfacet
  facet normal 0.339058 -0.940766 0
    outer loop
      vertex 203.124 -204.782 -3
      vertex 203.124 -204.782 0
      vertex 202.927 -204.853 0
    endloop
  endfacet
  facet normal 0.410563 -0.911832 0
    outer loop
      vertex 203.315 -204.696 -3
      vertex 203.124 -204.782 0
      vertex 203.124 -204.782 -3
    endloop
  endfacet
  facet normal 0.410563 -0.911832 0
    outer loop
      vertex 203.315 -204.696 -3
      vertex 203.315 -204.696 0
      vertex 203.124 -204.782 0
    endloop
  endfacet
  facet normal 0.468107 -0.883672 0
    outer loop
      vertex 203.5 -204.598 -3
      vertex 203.315 -204.696 0
      vertex 203.315 -204.696 -3
    endloop
  endfacet
  facet normal 0.468107 -0.883672 0
    outer loop
      vertex 203.5 -204.598 -3
      vertex 203.5 -204.598 0
      vertex 203.315 -204.696 0
    endloop
  endfacet
  facet normal 0.529142 -0.848533 0
    outer loop
      vertex 203.678 -204.487 -3
      vertex 203.5 -204.598 0
      vertex 203.5 -204.598 -3
    endloop
  endfacet
  facet normal 0.529142 -0.848533 0
    outer loop
      vertex 203.678 -204.487 -3
      vertex 203.678 -204.487 0
      vertex 203.5 -204.598 0
    endloop
  endfacet
  facet normal 0.588456 -0.808529 0
    outer loop
      vertex 203.847 -204.364 -3
      vertex 203.678 -204.487 0
      vertex 203.678 -204.487 -3
    endloop
  endfacet
  facet normal 0.588456 -0.808529 0
    outer loop
      vertex 203.847 -204.364 -3
      vertex 203.847 -204.364 0
      vertex 203.678 -204.487 0
    endloop
  endfacet
  facet normal 0.644871 -0.764291 0
    outer loop
      vertex 204.007 -204.229 -3
      vertex 203.847 -204.364 0
      vertex 203.847 -204.364 -3
    endloop
  endfacet
  facet normal 0.644871 -0.764291 0
    outer loop
      vertex 204.007 -204.229 -3
      vertex 204.007 -204.229 0
      vertex 203.847 -204.364 0
    endloop
  endfacet
  facet normal 0.692631 -0.721292 0
    outer loop
      vertex 204.158 -204.084 -3
      vertex 204.007 -204.229 0
      vertex 204.007 -204.229 -3
    endloop
  endfacet
  facet normal 0.692631 -0.721292 0
    outer loop
      vertex 204.158 -204.084 -3
      vertex 204.158 -204.084 0
      vertex 204.007 -204.229 0
    endloop
  endfacet
  facet normal 0.744242 -0.66791 0
    outer loop
      vertex 204.298 -203.928 -3
      vertex 204.158 -204.084 0
      vertex 204.158 -204.084 -3
    endloop
  endfacet
  facet normal 0.744242 -0.66791 0
    outer loop
      vertex 204.298 -203.928 -3
      vertex 204.298 -203.928 0
      vertex 204.158 -204.084 0
    endloop
  endfacet
  facet normal 0.787807 -0.615922 0
    outer loop
      vertex 204.427 -203.763 -3
      vertex 204.298 -203.928 0
      vertex 204.298 -203.928 -3
    endloop
  endfacet
  facet normal 0.787807 -0.615922 0
    outer loop
      vertex 204.427 -203.763 -3
      vertex 204.427 -203.763 0
      vertex 204.298 -203.928 0
    endloop
  endfacet
  facet normal 0.828349 -0.560213 0
    outer loop
      vertex 204.544 -203.59 -3
      vertex 204.427 -203.763 0
      vertex 204.427 -203.763 -3
    endloop
  endfacet
  facet normal 0.828349 -0.560213 0
    outer loop
      vertex 204.544 -203.59 -3
      vertex 204.544 -203.59 0
      vertex 204.427 -203.763 0
    endloop
  endfacet
  facet normal 0.866186 -0.499722 0
    outer loop
      vertex 204.649 -203.408 -3
      vertex 204.544 -203.59 0
      vertex 204.544 -203.59 -3
    endloop
  endfacet
  facet normal 0.866186 -0.499722 0
    outer loop
      vertex 204.649 -203.408 -3
      vertex 204.649 -203.408 0
      vertex 204.544 -203.59 0
    endloop
  endfacet
  facet normal 0.898217 -0.439553 0
    outer loop
      vertex 204.741 -203.22 -3
      vertex 204.649 -203.408 0
      vertex 204.649 -203.408 -3
    endloop
  endfacet
  facet normal 0.898217 -0.439553 0
    outer loop
      vertex 204.741 -203.22 -3
      vertex 204.741 -203.22 0
      vertex 204.649 -203.408 0
    endloop
  endfacet
  facet normal 0.927816 -0.373039 0
    outer loop
      vertex 204.819 -203.026 -3
      vertex 204.741 -203.22 0
      vertex 204.741 -203.22 -3
    endloop
  endfacet
  facet normal 0.927816 -0.373039 0
    outer loop
      vertex 204.819 -203.026 -3
      vertex 204.819 -203.026 0
      vertex 204.741 -203.22 0
    endloop
  endfacet
  facet normal 0.950577 -0.31049 0
    outer loop
      vertex 204.884 -202.827 -3
      vertex 204.819 -203.026 0
      vertex 204.819 -203.026 -3
    endloop
  endfacet
  facet normal 0.950577 -0.31049 0
    outer loop
      vertex 204.884 -202.827 -3
      vertex 204.884 -202.827 0
      vertex 204.819 -203.026 0
    endloop
  endfacet
  facet normal 0.970981 -0.239158 0
    outer loop
      vertex 204.934 -202.624 -3
      vertex 204.884 -202.827 0
      vertex 204.884 -202.827 -3
    endloop
  endfacet
  facet normal 0.970981 -0.239158 0
    outer loop
      vertex 204.934 -202.624 -3
      vertex 204.934 -202.624 0
      vertex 204.884 -202.827 0
    endloop
  endfacet
  facet normal 0.98425 -0.176783 0
    outer loop
      vertex 204.971 -202.418 -3
      vertex 204.934 -202.624 0
      vertex 204.934 -202.624 -3
    endloop
  endfacet
  facet normal 0.98425 -0.176783 0
    outer loop
      vertex 204.971 -202.418 -3
      vertex 204.971 -202.418 0
      vertex 204.934 -202.624 0
    endloop
  endfacet
  facet normal 0.994505 -0.104685 0
    outer loop
      vertex 204.993 -202.209 -3
      vertex 204.971 -202.418 0
      vertex 204.971 -202.418 -3
    endloop
  endfacet
  facet normal 0.994505 -0.104685 0
    outer loop
      vertex 204.993 -202.209 -3
      vertex 204.993 -202.209 0
      vertex 204.971 -202.418 0
    endloop
  endfacet
  facet normal 0.99944 -0.0334741 0
    outer loop
      vertex 205 -202 -3
      vertex 204.993 -202.209 0
      vertex 204.993 -202.209 -3
    endloop
  endfacet
  facet normal 0.99944 -0.0334741 0
    outer loop
      vertex 205 -202 -3
      vertex 205 -202 0
      vertex 204.993 -202.209 0
    endloop
  endfacet
  facet normal 1 0 0
    outer loop
      vertex 205 202 -3
      vertex 205 -202 0
      vertex 205 -202 -3
    endloop
  endfacet
  facet normal 1 0 -0
    outer loop
      vertex 205 202 -3
      vertex 205 202 0
      vertex 205 -202 0
    endloop
  endfacet
  facet normal 0.99944 0.0334741 0
    outer loop
      vertex 204.993 202.209 -3
      vertex 205 202 0
      vertex 205 202 -3
    endloop
  endfacet
  facet normal 0.99944 0.0334741 -0
    outer loop
      vertex 204.993 202.209 -3
      vertex 204.993 202.209 0
      vertex 205 202 0
    endloop
  endfacet
  facet normal 0.994505 0.104685 0
    outer loop
      vertex 204.971 202.418 -3
      vertex 204.993 202.209 0
      vertex 204.993 202.209 -3
    endloop
  endfacet
  facet normal 0.994505 0.104685 -0
    outer loop
      vertex 204.971 202.418 -3
      vertex 204.971 202.418 0
      vertex 204.993 202.209 0
    endloop
  endfacet
  facet normal 0.98425 0.176783 0
    outer loop
      vertex 204.934 202.624 -3
      vertex 204.971 202.418 0
      vertex 204.971 202.418 -3
    endloop
  endfacet
  facet normal 0.98425 0.176783 -0
    outer loop
      vertex 204.934 202.624 -3
      vertex 204.934 202.624 0
      vertex 204.971 202.418 0
    endloop
  endfacet
  facet normal 0.970981 0.239158 0
    outer loop
      vertex 204.884 202.827 -3
      vertex 204.934 202.624 0
      vertex 204.934 202.624 -3
    endloop
  endfacet
  facet normal 0.970981 0.239158 -0
    outer loop
      vertex 204.884 202.827 -3
      vertex 204.884 202.827 0
      vertex 204.934 202.624 0
    endloop
  endfacet
  facet normal 0.950577 0.31049 0
    outer loop
      vertex 204.819 203.026 -3
      vertex 204.884 202.827 0
      vertex 204.884 202.827 -3
    endloop
  endfacet
  facet normal 0.950577 0.31049 -0
    outer loop
      vertex 204.819 203.026 -3
      vertex 204.819 203.026 0
      vertex 204.884 202.827 0
    endloop
  endfacet
  facet normal 0.927816 0.373039 0
    outer loop
      vertex 204.741 203.22 -3
      vertex 204.819 203.026 0
      vertex 204.819 203.026 -3
    endloop
  endfacet
  facet normal 0.927816 0.373039 -0
    outer loop
      vertex 204.741 203.22 -3
      vertex 204.741 203.22 0
      vertex 204.819 203.026 0
    endloop
  endfacet
  facet normal 0.898217 0.439553 0
    outer loop
      vertex 204.649 203.408 -3
      vertex 204.741 203.22 0
      vertex 204.741 203.22 -3
    endloop
  endfacet
  facet normal 0.898217 0.439553 -0
    outer loop
      vertex 204.649 203.408 -3
      vertex 204.649 203.408 0
      vertex 204.741 203.22 0
    endloop
  endfacet
  facet normal 0.866186 0.499722 0
    outer loop
      vertex 204.544 203.59 -3
      vertex 204.649 203.408 0
      vertex 204.649 203.408 -3
    endloop
  endfacet
  facet normal 0.866186 0.499722 -0
    outer loop
      vertex 204.544 203.59 -3
      vertex 204.544 203.59 0
      vertex 204.649 203.408 0
    endloop
  endfacet
  facet normal 0.828349 0.560213 0
    outer loop
      vertex 204.427 203.763 -3
      vertex 204.544 203.59 0
      vertex 204.544 203.59 -3
    endloop
  endfacet
  facet normal 0.828349 0.560213 -0
    outer loop
      vertex 204.427 203.763 -3
      vertex 204.427 203.763 0
      vertex 204.544 203.59 0
    endloop
  endfacet
  facet normal 0.787807 0.615922 0
    outer loop
      vertex 204.298 203.928 -3
      vertex 204.427 203.763 0
      vertex 204.427 203.763 -3
    endloop
  endfacet
  facet normal 0.787807 0.615922 -0
    outer loop
      vertex 204.298 203.928 -3
      vertex 204.298 203.928 0
      vertex 204.427 203.763 0
    endloop
  endfacet
  facet normal 0.744242 0.66791 0
    outer loop
      vertex 204.158 204.084 -3
      vertex 204.298 203.928 0
      vertex 204.298 203.928 -3
    endloop
  endfacet
  facet normal 0.744242 0.66791 -0
    outer loop
      vertex 204.158 204.084 -3
      vertex 204.158 204.084 0
      vertex 204.298 203.928 0
    endloop
  endfacet
  facet normal 0.692631 0.721292 0
    outer loop
      vertex 204.007 204.229 -3
      vertex 204.158 204.084 0
      vertex 204.158 204.084 -3
    endloop
  endfacet
  facet normal 0.692631 0.721292 -0
    outer loop
      vertex 204.007 204.229 -3
      vertex 204.007 204.229 0
      vertex 204.158 204.084 0
    endloop
  endfacet
  facet normal 0.644871 0.764291 0
    outer loop
      vertex 203.847 204.364 -3
      vertex 204.007 204.229 0
      vertex 204.007 204.229 -3
    endloop
  endfacet
  facet normal 0.644871 0.764291 -0
    outer loop
      vertex 203.847 204.364 -3
      vertex 203.847 204.364 0
      vertex 204.007 204.229 0
    endloop
  endfacet
  facet normal 0.588456 0.808529 0
    outer loop
      vertex 203.678 204.487 -3
      vertex 203.847 204.364 0
      vertex 203.847 204.364 -3
    endloop
  endfacet
  facet normal 0.588456 0.808529 -0
    outer loop
      vertex 203.678 204.487 -3
      vertex 203.678 204.487 0
      vertex 203.847 204.364 0
    endloop
  endfacet
  facet normal 0.529142 0.848533 0
    outer loop
      vertex 203.5 204.598 -3
      vertex 203.678 204.487 0
      vertex 203.678 204.487 -3
    endloop
  endfacet
  facet normal 0.529142 0.848533 -0
    outer loop
      vertex 203.5 204.598 -3
      vertex 203.5 204.598 0
      vertex 203.678 204.487 0
    endloop
  endfacet
  facet normal 0.468107 0.883672 0
    outer loop
      vertex 203.315 204.696 -3
      vertex 203.5 204.598 0
      vertex 203.5 204.598 -3
    endloop
  endfacet
  facet normal 0.468107 0.883672 -0
    outer loop
      vertex 203.315 204.696 -3
      vertex 203.315 204.696 0
      vertex 203.5 204.598 0
    endloop
  endfacet
  facet normal 0.410563 0.911832 0
    outer loop
      vertex 203.124 204.782 -3
      vertex 203.315 204.696 0
      vertex 203.315 204.696 -3
    endloop
  endfacet
  facet normal 0.410563 0.911832 -0
    outer loop
      vertex 203.124 204.782 -3
      vertex 203.124 204.782 0
      vertex 203.315 204.696 0
    endloop
  endfacet
  facet normal 0.339058 0.940766 0
    outer loop
      vertex 202.927 204.853 -3
      vertex 203.124 204.782 0
      vertex 203.124 204.782 -3
    endloop
  endfacet
  facet normal 0.339058 0.940766 -0
    outer loop
      vertex 202.927 204.853 -3
      vertex 202.927 204.853 0
      vertex 203.124 204.782 0
    endloop
  endfacet
  facet normal 0.277246 0.960799 0
    outer loop
      vertex 202.726 204.911 -3
      vertex 202.927 204.853 0
      vertex 202.927 204.853 -3
    endloop
  endfacet
  facet normal 0.277246 0.960799 -0
    outer loop
      vertex 202.726 204.911 -3
      vertex 202.726 204.911 0
      vertex 202.927 204.853 0
    endloop
  endfacet
  facet normal 0.205289 0.978701 0
    outer loop
      vertex 202.521 204.954 -3
      vertex 202.726 204.911 0
      vertex 202.726 204.911 -3
    endloop
  endfacet
  facet normal 0.205289 0.978701 -0
    outer loop
      vertex 202.521 204.954 -3
      vertex 202.521 204.954 0
      vertex 202.726 204.911 0
    endloop
  endfacet
  facet normal 0.143429 0.989661 0
    outer loop
      vertex 202.314 204.984 -3
      vertex 202.521 204.954 0
      vertex 202.521 204.954 -3
    endloop
  endfacet
  facet normal 0.143429 0.989661 -0
    outer loop
      vertex 202.314 204.984 -3
      vertex 202.314 204.984 0
      vertex 202.521 204.954 0
    endloop
  endfacet
  facet normal 0.0668359 0.997764 0
    outer loop
      vertex 202.105 204.998 -3
      vertex 202.314 204.984 0
      vertex 202.314 204.984 -3
    endloop
  endfacet
  facet normal 0.0668359 0.997764 -0
    outer loop
      vertex 202.105 204.998 -3
      vertex 202.105 204.998 0
      vertex 202.314 204.984 0
    endloop
  endfacet
  facet normal 0 1 0
    outer loop
      vertex 202.002 204.998 -3
      vertex 202.105 204.998 0
      vertex 202.105 204.998 -3
    endloop
  endfacet
  facet normal 0 1 0
    outer loop
      vertex 202.002 204.998 -3
      vertex 202.002 204.998 0
      vertex 202.105 204.998 0
    endloop
  endfacet
  facet normal 0.707107 0.707107 0
    outer loop
      vertex 202 205 -3
      vertex 202.002 204.998 0
      vertex 202.002 204.998 -3
    endloop
  endfacet
  facet normal 0.707107 0.707107 -0
    outer loop
      vertex 202 205 -3
      vertex 202 205 0
      vertex 202.002 204.998 0
    endloop
  endfacet
  facet normal 0 1 0
    outer loop
      vertex -202 205 -3
      vertex 202 205 0
      vertex 202 205 -3
    endloop
  endfacet
  facet normal 0 1 0
    outer loop
      vertex -202 205 -3
      vertex -202 205 0
      vertex 202 205 0
    endloop
  endfacet
  facet normal -0.707107 0.707107 0
    outer loop
      vertex -202.002 204.998 -3
      vertex -202 205 0
      vertex -202 205 -3
    endloop
  endfacet
  facet normal -0.707107 0.707107 0
    outer loop
      vertex -202.002 204.998 -3
      vertex -202.002 204.998 0
      vertex -202 205 0
    endloop
  endfacet
  facet normal 0 1 0
    outer loop
      vertex -202.105 204.998 -3
      vertex -202.002 204.998 0
      vertex -202.002 204.998 -3
    endloop
  endfacet
  facet normal 0 1 0
    outer loop
      vertex -202.105 204.998 -3
      vertex -202.105 204.998 0
      vertex -202.002 204.998 0
    endloop
  endfacet
  facet normal -0.0668359 0.997764 0
    outer loop
      vertex -202.314 204.984 -3
      vertex -202.105 204.998 0
      vertex -202.105 204.998 -3
    endloop
  endfacet
  facet normal -0.0668359 0.997764 0
    outer loop
      vertex -202.314 204.984 -3
      vertex -202.314 204.984 0
      vertex -202.105 204.998 0
    endloop
  endfacet
  facet normal -0.143429 0.989661 0
    outer loop
      vertex -202.521 204.954 -3
      vertex -202.314 204.984 0
      vertex -202.314 204.984 -3
    endloop
  endfacet
  facet normal -0.143429 0.989661 0
    outer loop
      vertex -202.521 204.954 -3
      vertex -202.521 204.954 0
      vertex -202.314 204.984 0
    endloop
  endfacet
  facet normal -0.205289 0.978701 0
    outer loop
      vertex -202.726 204.911 -3
      vertex -202.521 204.954 0
      vertex -202.521 204.954 -3
    endloop
  endfacet
  facet normal -0.205289 0.978701 0
    outer loop
      vertex -202.726 204.911 -3
      vertex -202.726 204.911 0
      vertex -202.521 204.954 0
    endloop
  endfacet
  facet normal -0.277246 0.960799 0
    outer loop
      vertex -202.927 204.853 -3
      vertex -202.726 204.911 0
      vertex -202.726 204.911 -3
    endloop
  endfacet
  facet normal -0.277246 0.960799 0
    outer loop
      vertex -202.927 204.853 -3
      vertex -202.927 204.853 0
      vertex -202.726 204.911 0
    endloop
  endfacet
  facet normal -0.339058 0.940766 0
    outer loop
      vertex -203.124 204.782 -3
      vertex -202.927 204.853 0
      vertex -202.927 204.853 -3
    endloop
  endfacet
  facet normal -0.339058 0.940766 0
    outer loop
      vertex -203.124 204.782 -3
      vertex -203.124 204.782 0
      vertex -202.927 204.853 0
    endloop
  endfacet
  facet normal -0.410563 0.911832 0
    outer loop
      vertex -203.315 204.696 -3
      vertex -203.124 204.782 0
      vertex -203.124 204.782 -3
    endloop
  endfacet
  facet normal -0.410563 0.911832 0
    outer loop
      vertex -203.315 204.696 -3
      vertex -203.315 204.696 0
      vertex -203.124 204.782 0
    endloop
  endfacet
  facet normal -0.468107 0.883672 0
    outer loop
      vertex -203.5 204.598 -3
      vertex -203.315 204.696 0
      vertex -203.315 204.696 -3
    endloop
  endfacet
  facet normal -0.468107 0.883672 0
    outer loop
      vertex -203.5 204.598 -3
      vertex -203.5 204.598 0
      vertex -203.315 204.696 0
    endloop
  endfacet
  facet normal -0.529142 0.848533 0
    outer loop
      vertex -203.678 204.487 -3
      vertex -203.5 204.598 0
      vertex -203.5 204.598 -3
    endloop
  endfacet
  facet normal -0.529142 0.848533 0
    outer loop
      vertex -203.678 204.487 -3
      vertex -203.678 204.487 0
      vertex -203.5 204.598 0
    endloop
  endfacet
  facet normal -0.588456 0.808529 0
    outer loop
      vertex -203.847 204.364 -3
      vertex -203.678 204.487 0
      vertex -203.678 204.487 -3
    endloop
  endfacet
  facet normal -0.588456 0.808529 0
    outer loop
      vertex -203.847 204.364 -3
      vertex -203.847 204.364 0
      vertex -203.678 204.487 0
    endloop
  endfacet
  facet normal -0.644871 0.764291 0
    outer loop
      vertex -204.007 204.229 -3
      vertex -203.847 204.364 0
      vertex -203.847 204.364 -3
    endloop
  endfacet
  facet normal -0.644871 0.764291 0
    outer loop
      vertex -204.007 204.229 -3
      vertex -204.007 204.229 0
      vertex -203.847 204.364 0
    endloop
  endfacet
  facet normal -0.692631 0.721292 0
    outer loop
      vertex -204.158 204.084 -3
      vertex -204.007 204.229 0
      vertex -204.007 204.229 -3
    endloop
  endfacet
  facet normal -0.692631 0.721292 0
    outer loop
      vertex -204.158 204.084 -3
      vertex -204.158 204.084 0
      vertex -204.007 204.229 0
    endloop
  endfacet
  facet normal -0.744242 0.66791 0
    outer loop
      vertex -204.298 203.928 -3
      vertex -204.158 204.084 0
      vertex -204.158 204.084 -3
    endloop
  endfacet
  facet normal -0.744242 0.66791 0
    outer loop
      vertex -204.298 203.928 -3
      vertex -204.298 203.928 0
      vertex -204.158 204.084 0
    endloop
  endfacet
  facet normal -0.787807 0.615922 0
    outer loop
      vertex -204.427 203.763 -3
      vertex -204.298 203.928 0
      vertex -204.298 203.928 -3
    endloop
  endfacet
  facet normal -0.787807 0.615922 0
    outer loop
      vertex -204.427 203.763 -3
      vertex -204.427 203.763 0
      vertex -204.298 203.928 0
    endloop
  endfacet
  facet normal -0.828349 0.560213 0
    outer loop
      vertex -204.544 203.59 -3
      vertex -204.427 203.763 0
      vertex -204.427 203.763 -3
    endloop
  endfacet
  facet normal -0.828349 0.560213 0
    outer loop
      vertex -204.544 203.59 -3
      vertex -204.544 203.59 0
      vertex -204.427 203.763 0
    endloop
  endfacet
  facet normal -0.866186 0.499722 0
    outer loop
      vertex -204.649 203.408 -3
      vertex -204.544 203.59 0
      vertex -204.544 203.59 -3
    endloop
  endfacet
  facet normal -0.866186 0.499722 0
    outer loop
      vertex -204.649 203.408 -3
      vertex -204.649 203.408 0
      vertex -204.544 203.59 0
    endloop
  endfacet
  facet normal -0.898217 0.439553 0
    outer loop
      vertex -204.741 203.22 -3
      vertex -204.649 203.408 0
      vertex -204.649 203.408 -3
    endloop
  endfacet
  facet normal -0.898217 0.439553 0
    outer loop
      vertex -204.741 203.22 -3
      vertex -204.741 203.22 0
      vertex -204.649 203.408 0
    endloop
  endfacet
  facet normal -0.927816 0.373039 0
    outer loop
      vertex -204.819 203.026 -3
      vertex -204.741 203.22 0
      vertex -204.741 203.22 -3
    endloop
  endfacet
  facet normal -0.927816 0.373039 0
    outer loop
      vertex -204.819 203.026 -3
      vertex -204.819 203.026 0
      vertex -204.741 203.22 0
    endloop
  endfacet
  facet normal -0.950577 0.31049 0
    outer loop
      vertex -204.884 202.827 -3
      vertex -204.819 203.026 0
      vertex -204.819 203.026 -3
    endloop
  endfacet
  facet normal -0.950577 0.31049 0
    outer loop
      vertex -204.884 202.827 -3
      vertex -204.884 202.827 0
      vertex -204.819 203.026 0
    endloop
  endfacet
  facet normal -0.970981 0.239158 0
    outer loop
      vertex -204.934 202.624 -3
      vertex -204.884 202.827 0
      vertex -204.884 202.827 -3
    endloop
  endfacet
  facet normal -0.970981 0.239158 0
    outer loop
      vertex -204.934 202.624 -3
      vertex -204.934 202.624 0
      vertex -204.884 202.827 0
    endloop
  endfacet
  facet normal -0.98425 0.176783 0
    outer loop
      vertex -204.971 202.418 -3
      vertex -204.934 202.624 0
      vertex -204.934 202.624 -3
    endloop
  endfacet
  facet normal -0.98425 0.176783 0
    outer loop
      vertex -204.971 202.418 -3
      vertex -204.971 202.418 0
      vertex -204.934 202.624 0
    endloop
  endfacet
  facet normal -0.994505 0.104685 0
    outer loop
      vertex -204.993 202.209 -3
      vertex -204.971 202.418 0
      vertex -204.971 202.418 -3
    endloop
  endfacet
  facet normal -0.994505 0.104685 0
    outer loop
      vertex -204.993 202.209 -3
      vertex -204.993 202.209 0
      vertex -204.971 202.418 0
    endloop
  endfacet
  facet normal -0.99944 0.0334741 0
    outer loop
      vertex -205 202 -3
      vertex -204.993 202.209 0
      vertex -204.993 202.209 -3
    endloop
  endfacet
  facet normal -0.99944 0.0334741 0
    outer loop
      vertex -205 202 -3
      vertex -205 202 0
      vertex -204.993 202.209 0
    endloop
  endfacet
  facet normal -1 0 0
    outer loop
      vertex -205 -202 -3
      vertex -205 202 0
      vertex -205 202 -3
    endloop
  endfacet
  facet normal -1 0 0
    outer loop
      vertex -205 -202 -3
      vertex -205 -202 0
      vertex -205 202 0
    endloop
  endfacet
  facet normal -0.99944 -0.0334741 0
    outer loop
      vertex -204.993 -202.209 -3
      vertex -205 -202 0
      vertex -205 -202 -3
    endloop
  endfacet
  facet normal -0.99944 -0.0334741 0
    outer loop
      vertex -204.993 -202.209 -3
      vertex -204.993 -202.209 0
      vertex -205 -202 0
    endloop
  endfacet
  facet normal -0.994505 -0.104685 0
    outer loop
      vertex -204.971 -202.418 -3
      vertex -204.993 -202.209 0
      vertex -204.993 -202.209 -3
    endloop
  endfacet
  facet normal -0.994505 -0.104685 0
    outer loop
      vertex -204.971 -202.418 -3
      vertex -204.971 -202.418 0
      vertex -204.993 -202.209 0
    endloop
  endfacet
  facet normal -0.98425 -0.176783 0
    outer loop
      vertex -204.934 -202.624 -3
      vertex -204.971 -202.418 0
      vertex -204.971 -202.418 -3
    endloop
  endfacet
  facet normal -0.98425 -0.176783 0
    outer loop
      vertex -204.934 -202.624 -3
      vertex -204.934 -202.624 0
      vertex -204.971 -202.418 0
    endloop
  endfacet
  facet normal -0.970981 -0.239158 0
    outer loop
      vertex -204.884 -202.827 -3
      vertex -204.934 -202.624 0
      vertex -204.934 -202.624 -3
    endloop
  endfacet
  facet normal -0.970981 -0.239158 0
    outer loop
      vertex -204.884 -202.827 -3
      vertex -204.884 -202.827 0
      vertex -204.934 -202.624 0
    endloop
  endfacet
  facet normal -0.950577 -0.31049 0
    outer loop
      vertex -204.819 -203.026 -3
      vertex -204.884 -202.827 0
      vertex -204.884 -202.827 -3
    endloop
  endfacet
  facet normal -0.950577 -0.31049 0
    outer loop
      vertex -204.819 -203.026 -3
      vertex -204.819 -203.026 0
      vertex -204.884 -202.827 0
    endloop
  endfacet
  facet normal -0.927816 -0.373039 0
    outer loop
      vertex -204.741 -203.22 -3
      vertex -204.819 -203.026 0
      vertex -204.819 -203.026 -3
    endloop
  endfacet
  facet normal -0.927816 -0.373039 0
    outer loop
      vertex -204.741 -203.22 -3
      vertex -204.741 -203.22 0
      vertex -204.819 -203.026 0
    endloop
  endfacet
  facet normal -0.898217 -0.439553 0
    outer loop
      vertex -204.649 -203.408 -3
      vertex -204.741 -203.22 0
      vertex -204.741 -203.22 -3
    endloop
  endfacet
  facet normal -0.898217 -0.439553 0
    outer loop
      vertex -204.649 -203.408 -3
      vertex -204.649 -203.408 0
      vertex -204.741 -203.22 0
    endloop
  endfacet
  facet normal -0.866186 -0.499722 0
    outer loop
      vertex -204.544 -203.59 -3
      vertex -204.649 -203.408 0
      vertex -204.649 -203.408 -3
    endloop
  endfacet
  facet normal -0.866186 -0.499722 0
    outer loop
      vertex -204.544 -203.59 -3
      vertex -204.544 -203.59 0
      vertex -204.649 -203.408 0
    endloop
  endfacet
  facet normal -0.828349 -0.560213 0
    outer loop
      vertex -204.427 -203.763 -3
      vertex -204.544 -203.59 0
      vertex -204.544 -203.59 -3
    endloop
  endfacet
  facet normal -0.828349 -0.560213 0
    outer loop
      vertex -204.427 -203.763 -3
      vertex -204.427 -203.763 0
      vertex -204.544 -203.59 0
    endloop
  endfacet
  facet normal -0.787807 -0.615922 0
    outer loop
      vertex -204.298 -203.928 -3
      vertex -204.427 -203.763 0
      vertex -204.427 -203.763 -3
    endloop
  endfacet
  facet normal -0.787807 -0.615922 0
    outer loop
      vertex -204.298 -203.928 -3
      vertex -204.298 -203.928 0
      vertex -204.427 -203.763 0
    endloop
  endfacet
  facet normal -0.744242 -0.66791 0
    outer loop
      vertex -204.158 -204.084 -3
      vertex -204.298 -203.928 0
      vertex -204.298 -203.928 -3
    endloop
  endfacet
  facet normal -0.744242 -0.66791 0
    outer loop
      vertex -204.158 -204.084 -3
      vertex -204.158 -204.084 0
      vertex -204.298 -203.928 0
    endloop
  endfacet
  facet normal -0.692631 -0.721292 0
    outer loop
      vertex -204.007 -204.229 -3
      vertex -204.158 -204.084 0
      vertex -204.158 -204.084 -3
    endloop
  endfacet
  facet normal -0.692631 -0.721292 0
    outer loop
      vertex -204.007 -204.229 -3
      vertex -204.007 -204.229 0
      vertex -204.158 -204.084 0
    endloop
  endfacet
  facet normal -0.644871 -0.764291 0
    outer loop
      vertex -203.847 -204.364 -3
      vertex -204.007 -204.229 0
      vertex -204.007 -204.229 -3
    endloop
  endfacet
  facet normal -0.644871 -0.764291 0
    outer loop
      vertex -203.847 -204.364 -3
      vertex -203.847 -204.364 0
      vertex -204.007 -204.229 0
    endloop
  endfacet
  facet normal -0.588456 -0.808529 0
    outer loop
      vertex -203.678 -204.487 -3
      vertex -203.847 -204.364 0
      vertex -203.847 -204.364 -3
    endloop
  endfacet
  facet normal -0.588456 -0.808529 0
    outer loop
      vertex -203.678 -204.487 -3
      vertex -203.678 -204.487 0
      vertex -203.847 -204.364 0
    endloop
  endfacet
  facet normal -0.529142 -0.848533 0
    outer loop
      vertex -203.5 -204.598 -3
      vertex -203.678 -204.487 0
      vertex -203.678 -204.487 -3
    endloop
  endfacet
  facet normal -0.529142 -0.848533 0
    outer loop
      vertex -203.5 -204.598 -3
      vertex -203.5 -204.598 0
      vertex -203.678 -204.487 0
    endloop
  endfacet
  facet normal -0.468107 -0.883672 0
    outer loop
      vertex -203.315 -204.696 -3
      vertex -203.5 -204.598 0
      vertex -203.5 -204.598 -3
    endloop
  endfacet
  facet normal -0.468107 -0.883672 0
    outer loop
      vertex -203.315 -204.696 -3
      vertex -203.315 -204.696 0
      vertex -203.5 -204.598 0
    endloop
  endfacet
  facet normal -0.410563 -0.911832 0
    outer loop
      vertex -203.124 -204.782 -3
      vertex -203.315 -204.696 0
      vertex -203.315 -204.696 -3
    endloop
  endfacet
  facet normal -0.410563 -0.911832 0
    outer loop
      vertex -203.124 -204.782 -3
      vertex -203.124 -204.782 0
      vertex -203.315 -204.696 0
    endloop
  endfacet
  facet normal -0.339058 -0.940766 0
    outer loop
      vertex -202.927 -204.853 -3
      vertex -203.124 -204.782 0
      vertex -203.124 -204.782 -3
    endloop
  endfacet
  facet normal -0.339058 -0.940766 0
    outer loop
      vertex -202.927 -204.853 -3
      vertex -202.927 -204.853 0
      vertex -203.124 -204.782 0
    endloop
  endfacet
  facet normal -0.277246 -0.960799 0
    outer loop
      vertex -202.726 -204.911 -3
      vertex -202.927 -204.853 0
      vertex -202.927 -204.853 -3
    endloop
  endfacet
  facet normal -0.277246 -0.960799 0
    outer loop
      vertex -202.726 -204.911 -3
      vertex -202.726 -204.911 0
      vertex -202.927 -204.853 0
    endloop
  endfacet
  facet normal -0.205289 -0.978701 0
    outer loop
      vertex -202.521 -204.954 -3
      vertex -202.726 -204.911 0
      vertex -202.726 -204.911 -3
    endloop
  endfacet
  facet normal -0.205289 -0.978701 0
    outer loop
      vertex -202.521 -204.954 -3
      vertex -202.521 -204.954 0
      vertex -202.726 -204.911 0
    endloop
  endfacet
  facet normal -0.143429 -0.989661 0
    outer loop
      vertex -202.314 -204.984 -3
      vertex -202.521 -204.954 0
      vertex -202.521 -204.954 -3
    endloop
  endfacet
  facet normal -0.143429 -0.989661 0
    outer loop
      vertex -202.314 -204.984 -3
      vertex -202.314 -204.984 0
      vertex -202.521 -204.954 0
    endloop
  endfacet
  facet normal -0.0668359 -0.997764 0
    outer loop
      vertex -202.105 -204.998 -3
      vertex -202.314 -204.984 0
      vertex -202.314 -204.984 -3
    endloop
  endfacet
  facet normal -0.0668359 -0.997764 0
    outer loop
      vertex -202.105 -204.998 -3
      vertex -202.105 -204.998 0
      vertex -202.314 -204.984 0
    endloop
  endfacet
  facet normal 0 -1 0
    outer loop
      vertex -202.002 -204.998 -3
      vertex -202.105 -204.998 0
      vertex -202.105 -204.998 -3
    endloop
  endfacet
  facet normal 0 -1 0
    outer loop
      vertex -202.002 -204.998 -3
      vertex -202.002 -204.998 0
      vertex -202.105 -204.998 0
    endloop
  endfacet
  facet normal -0.707107 -0.707107 0
    outer loop
      vertex -202 -205 -3
      vertex -202.002 -204.998 0
      vertex -202.002 -204.998 -3
    endloop
  endfacet
  facet normal -0.707107 -0.707107 0
    outer loop
      vertex -202 -205 -3
      vertex -202 -205 0
      vertex -202.002 -204.998 0
    endloop
  endfacet
  facet normal 0 -1 0
    outer loop
      vertex 202 -205 -3
      vertex -202 -205 0
      vertex -202 -205 -3
    endloop
  endfacet
  facet normal 0 -1 0
    outer loop
      vertex 202 -205 -3
      vertex 202 -205 0
      vertex -202 -205 0
    endloop
  endfacet
  facet normal 0.707107 -0.707107 0
    outer loop
      vertex 202.002 -204.998 -3
      vertex 202 -205 0
      vertex 202 -205 -3
    endloop
  endfacet
  facet normal 0.707107 -0.707107 0
    outer loop
      vertex 202.002 -204.998 -3
      vertex 202.002 -204.998 0
      vertex 202 -205 0
    endloop
  endfacet
endsolid OpenSCAD_Model
