solid OpenSCAD_Model
  facet normal 0 0 -1
    outer loop
      vertex 147.105 -112.498 -3
      vertex 147.002 -112.498 -3
      vertex 147.314 -112.484 -3
    endloop
  endfacet
  facet normal -0 0 -1
    outer loop
      vertex 147.314 -112.484 -3
      vertex 147.002 -112.498 -3
      vertex 147.521 -112.454 -3
    endloop
  endfacet
  facet normal -0 0 -1
    outer loop
      vertex 150 -109.5 -3
      vertex 147.002 -112.498 -3
      vertex 147.002 112.498 -3
    endloop
  endfacet
  facet normal -0 0 -1
    outer loop
      vertex 147.521 -112.454 -3
      vertex 147.002 -112.498 -3
      vertex 147.726 -112.411 -3
    endloop
  endfacet
  facet normal -0 0 -1
    outer loop
      vertex 147.726 -112.411 -3
      vertex 147.002 -112.498 -3
      vertex 147.927 -112.353 -3
    endloop
  endfacet
  facet normal -0 0 -1
    outer loop
      vertex 147.927 -112.353 -3
      vertex 147.002 -112.498 -3
      vertex 148.124 -112.282 -3
    endloop
  endfacet
  facet normal -0 0 -1
    outer loop
      vertex 148.124 -112.282 -3
      vertex 147.002 -112.498 -3
      vertex 148.315 -112.196 -3
    endloop
  endfacet
  facet normal -0 0 -1
    outer loop
      vertex 148.315 -112.196 -3
      vertex 147.002 -112.498 -3
      vertex 148.5 -112.098 -3
    endloop
  endfacet
  facet normal -0 0 -1
    outer loop
      vertex 148.5 -112.098 -3
      vertex 147.002 -112.498 -3
      vertex 148.678 -111.987 -3
    endloop
  endfacet
  facet normal -0 0 -1
    outer loop
      vertex 148.678 -111.987 -3
      vertex 147.002 -112.498 -3
      vertex 148.847 -111.864 -3
    endloop
  endfacet
  facet normal -0 0 -1
    outer loop
      vertex 148.847 -111.864 -3
      vertex 147.002 -112.498 -3
      vertex 149.007 -111.729 -3
    endloop
  endfacet
  facet normal -0 0 -1
    outer loop
      vertex 149.007 -111.729 -3
      vertex 147.002 -112.498 -3
      vertex 149.158 -111.584 -3
    endloop
  endfacet
  facet normal -0 0 -1
    outer loop
      vertex 149.158 -111.584 -3
      vertex 147.002 -112.498 -3
      vertex 149.298 -111.428 -3
    endloop
  endfacet
  facet normal -0 0 -1
    outer loop
      vertex 149.298 -111.428 -3
      vertex 147.002 -112.498 -3
      vertex 149.427 -111.263 -3
    endloop
  endfacet
  facet normal -0 0 -1
    outer loop
      vertex 149.427 -111.263 -3
      vertex 147.002 -112.498 -3
      vertex 149.544 -111.09 -3
    endloop
  endfacet
  facet normal -0 0 -1
    outer loop
      vertex 149.544 -111.09 -3
      vertex 147.002 -112.498 -3
      vertex 149.649 -110.908 -3
    endloop
  endfacet
  facet normal -0 0 -1
    outer loop
      vertex 149.649 -110.908 -3
      vertex 147.002 -112.498 -3
      vertex 149.741 -110.72 -3
    endloop
  endfacet
  facet normal -0 0 -1
    outer loop
      vertex 149.741 -110.72 -3
      vertex 147.002 -112.498 -3
      vertex 149.819 -110.526 -3
    endloop
  endfacet
  facet normal -0 0 -1
    outer loop
      vertex 149.819 -110.526 -3
      vertex 147.002 -112.498 -3
      vertex 149.884 -110.327 -3
    endloop
  endfacet
  facet normal -0 0 -1
    outer loop
      vertex 149.884 -110.327 -3
      vertex 147.002 -112.498 -3
      vertex 149.934 -110.124 -3
    endloop
  endfacet
  facet normal -0 0 -1
    outer loop
      vertex 149.934 -110.124 -3
      vertex 147.002 -112.498 -3
      vertex 149.971 -109.918 -3
    endloop
  endfacet
  facet normal -0 0 -1
    outer loop
      vertex 149.971 -109.918 -3
      vertex 147.002 -112.498 -3
      vertex 149.993 -109.709 -3
    endloop
  endfacet
  facet normal -0 0 -1
    outer loop
      vertex 149.993 -109.709 -3
      vertex 147.002 -112.498 -3
      vertex 150 -109.5 -3
    endloop
  endfacet
  facet normal 0 0 -1
    outer loop
      vertex 150 -109.5 -3
      vertex 147.002 112.498 -3
      vertex 150 109.5 -3
    endloop
  endfacet
  facet normal 0 0 -1
    outer loop
      vertex 147.002 112.498 -3
      vertex 149.971 109.918 -3
      vertex 149.993 109.709 -3
    endloop
  endfacet
  facet normal -0 -0 -1
    outer loop
      vertex 149.884 110.327 -3
      vertex 149.934 110.124 -3
      vertex 147.002 112.498 -3
    endloop
  endfacet
  facet normal 0 0 -1
    outer loop
      vertex 149.741 110.72 -3
      vertex 147.002 112.498 -3
      vertex 149.649 110.908 -3
    endloop
  endfacet
  facet normal -0 -0 -1
    outer loop
      vertex 149.741 110.72 -3
      vertex 149.819 110.526 -3
      vertex 147.002 112.498 -3
    endloop
  endfacet
  facet normal 0 0 -1
    outer loop
      vertex 147.002 112.498 -3
      vertex 149.007 111.729 -3
      vertex 149.158 111.584 -3
    endloop
  endfacet
  facet normal 0 0 -1
    outer loop
      vertex 149.427 111.263 -3
      vertex 147.002 112.498 -3
      vertex 149.298 111.428 -3
    endloop
  endfacet
  facet normal -0 -0 -1
    outer loop
      vertex 149.427 111.263 -3
      vertex 149.544 111.09 -3
      vertex 147.002 112.498 -3
    endloop
  endfacet
  facet normal 0 0 -1
    outer loop
      vertex 149.298 111.428 -3
      vertex 147.002 112.498 -3
      vertex 149.158 111.584 -3
    endloop
  endfacet
  facet normal 0 0 -1
    outer loop
      vertex 147.002 112.498 -3
      vertex 147.927 112.353 -3
      vertex 148.124 112.282 -3
    endloop
  endfacet
  facet normal 0 0 -1
    outer loop
      vertex 148.847 111.864 -3
      vertex 147.002 112.498 -3
      vertex 148.678 111.987 -3
    endloop
  endfacet
  facet normal -0 -0 -1
    outer loop
      vertex 148.847 111.864 -3
      vertex 149.007 111.729 -3
      vertex 147.002 112.498 -3
    endloop
  endfacet
  facet normal 0 0 -1
    outer loop
      vertex 148.678 111.987 -3
      vertex 147.002 112.498 -3
      vertex 148.5 112.098 -3
    endloop
  endfacet
  facet normal 0 0 -1
    outer loop
      vertex 148.5 112.098 -3
      vertex 147.002 112.498 -3
      vertex 148.315 112.196 -3
    endloop
  endfacet
  facet normal 0 0 -1
    outer loop
      vertex 148.315 112.196 -3
      vertex 147.002 112.498 -3
      vertex 148.124 112.282 -3
    endloop
  endfacet
  facet normal 0 0 -1
    outer loop
      vertex 149.649 110.908 -3
      vertex 147.002 112.498 -3
      vertex 149.544 111.09 -3
    endloop
  endfacet
  facet normal 0 0 -1
    outer loop
      vertex 147.726 112.411 -3
      vertex 147.002 112.498 -3
      vertex 147.521 112.454 -3
    endloop
  endfacet
  facet normal -0 -0 -1
    outer loop
      vertex 147.726 112.411 -3
      vertex 147.927 112.353 -3
      vertex 147.002 112.498 -3
    endloop
  endfacet
  facet normal -0 -0 -1
    outer loop
      vertex 149.819 110.526 -3
      vertex 149.884 110.327 -3
      vertex 147.002 112.498 -3
    endloop
  endfacet
  facet normal -0 -0 -1
    outer loop
      vertex 147.314 112.484 -3
      vertex 147.521 112.454 -3
      vertex 147.002 112.498 -3
    endloop
  endfacet
  facet normal 0 0 -1
    outer loop
      vertex 147.002 112.498 -3
      vertex 149.934 110.124 -3
      vertex 149.971 109.918 -3
    endloop
  endfacet
  facet normal 0 0 -1
    outer loop
      vertex 147.002 112.498 -3
      vertex 147.105 112.498 -3
      vertex 147.314 112.484 -3
    endloop
  endfacet
  facet normal 0 0 -1
    outer loop
      vertex 150 109.5 -3
      vertex 147.002 112.498 -3
      vertex 149.993 109.709 -3
    endloop
  endfacet
  facet normal 0 0 -1
    outer loop
      vertex 147.002 -112.498 -3
      vertex 147 112.5 -3
      vertex 147.002 112.498 -3
    endloop
  endfacet
  facet normal -0 0 -1
    outer loop
      vertex 147.002 -112.498 -3
      vertex 147 -112.5 -3
      vertex 147 112.5 -3
    endloop
  endfacet
  facet normal -0 -0 -1
    outer loop
      vertex 147 112.5 -3
      vertex 147 -112.5 -3
      vertex -147 112.5 -3
    endloop
  endfacet
  facet normal 0 0 -1
    outer loop
      vertex -147.002 -112.498 -3
      vertex -150 109.5 -3
      vertex -147.002 112.498 -3
    endloop
  endfacet
  facet normal -0 0 -1
    outer loop
      vertex -147.002 112.498 -3
      vertex -147.314 112.484 -3
      vertex -147.105 112.498 -3
    endloop
  endfacet
  facet normal 0 0 -1
    outer loop
      vertex -147.002 112.498 -3
      vertex -147.521 112.454 -3
      vertex -147.314 112.484 -3
    endloop
  endfacet
  facet normal 0 0 -1
    outer loop
      vertex -147.002 112.498 -3
      vertex -147.726 112.411 -3
      vertex -147.521 112.454 -3
    endloop
  endfacet
  facet normal 0 0 -1
    outer loop
      vertex -147.002 112.498 -3
      vertex -147.927 112.353 -3
      vertex -147.726 112.411 -3
    endloop
  endfacet
  facet normal 0 0 -1
    outer loop
      vertex -147.002 112.498 -3
      vertex -148.124 112.282 -3
      vertex -147.927 112.353 -3
    endloop
  endfacet
  facet normal 0 0 -1
    outer loop
      vertex -147.002 112.498 -3
      vertex -148.315 112.196 -3
      vertex -148.124 112.282 -3
    endloop
  endfacet
  facet normal 0 0 -1
    outer loop
      vertex -147.002 112.498 -3
      vertex -148.5 112.098 -3
      vertex -148.315 112.196 -3
    endloop
  endfacet
  facet normal 0 0 -1
    outer loop
      vertex -147.002 112.498 -3
      vertex -148.678 111.987 -3
      vertex -148.5 112.098 -3
    endloop
  endfacet
  facet normal 0 0 -1
    outer loop
      vertex -147.002 112.498 -3
      vertex -148.847 111.864 -3
      vertex -148.678 111.987 -3
    endloop
  endfacet
  facet normal 0 0 -1
    outer loop
      vertex -147.002 112.498 -3
      vertex -149.007 111.729 -3
      vertex -148.847 111.864 -3
    endloop
  endfacet
  facet normal 0 0 -1
    outer loop
      vertex -147.002 112.498 -3
      vertex -149.158 111.584 -3
      vertex -149.007 111.729 -3
    endloop
  endfacet
  facet normal 0 0 -1
    outer loop
      vertex -147.002 112.498 -3
      vertex -149.298 111.428 -3
      vertex -149.158 111.584 -3
    endloop
  endfacet
  facet normal 0 0 -1
    outer loop
      vertex -147.002 112.498 -3
      vertex -149.427 111.263 -3
      vertex -149.298 111.428 -3
    endloop
  endfacet
  facet normal 0 0 -1
    outer loop
      vertex -147.002 112.498 -3
      vertex -149.544 111.09 -3
      vertex -149.427 111.263 -3
    endloop
  endfacet
  facet normal 0 0 -1
    outer loop
      vertex -147.002 112.498 -3
      vertex -149.649 110.908 -3
      vertex -149.544 111.09 -3
    endloop
  endfacet
  facet normal 0 0 -1
    outer loop
      vertex -147.002 112.498 -3
      vertex -149.741 110.72 -3
      vertex -149.649 110.908 -3
    endloop
  endfacet
  facet normal 0 0 -1
    outer loop
      vertex -147.002 112.498 -3
      vertex -149.819 110.526 -3
      vertex -149.741 110.72 -3
    endloop
  endfacet
  facet normal 0 0 -1
    outer loop
      vertex -147.002 112.498 -3
      vertex -149.884 110.327 -3
      vertex -149.819 110.526 -3
    endloop
  endfacet
  facet normal 0 0 -1
    outer loop
      vertex -147.002 112.498 -3
      vertex -149.934 110.124 -3
      vertex -149.884 110.327 -3
    endloop
  endfacet
  facet normal 0 0 -1
    outer loop
      vertex -147.002 112.498 -3
      vertex -149.971 109.918 -3
      vertex -149.934 110.124 -3
    endloop
  endfacet
  facet normal 0 0 -1
    outer loop
      vertex -147.002 112.498 -3
      vertex -149.993 109.709 -3
      vertex -149.971 109.918 -3
    endloop
  endfacet
  facet normal 0 0 -1
    outer loop
      vertex -147.002 112.498 -3
      vertex -150 109.5 -3
      vertex -149.993 109.709 -3
    endloop
  endfacet
  facet normal 0 0 -1
    outer loop
      vertex -147.002 -112.498 -3
      vertex -150 -109.5 -3
      vertex -150 109.5 -3
    endloop
  endfacet
  facet normal 0 0 -1
    outer loop
      vertex -147.521 -112.454 -3
      vertex -147.002 -112.498 -3
      vertex -147.314 -112.484 -3
    endloop
  endfacet
  facet normal 0 0 -1
    outer loop
      vertex -147.002 -112.498 -3
      vertex -149.971 -109.918 -3
      vertex -149.993 -109.709 -3
    endloop
  endfacet
  facet normal 0 0 -1
    outer loop
      vertex -149.884 -110.327 -3
      vertex -149.934 -110.124 -3
      vertex -147.002 -112.498 -3
    endloop
  endfacet
  facet normal 0 0 -1
    outer loop
      vertex -149.741 -110.72 -3
      vertex -147.002 -112.498 -3
      vertex -149.649 -110.908 -3
    endloop
  endfacet
  facet normal 0 0 -1
    outer loop
      vertex -149.741 -110.72 -3
      vertex -149.819 -110.526 -3
      vertex -147.002 -112.498 -3
    endloop
  endfacet
  facet normal 0 0 -1
    outer loop
      vertex -147.002 -112.498 -3
      vertex -149.007 -111.729 -3
      vertex -149.158 -111.584 -3
    endloop
  endfacet
  facet normal 0 0 -1
    outer loop
      vertex -149.427 -111.263 -3
      vertex -147.002 -112.498 -3
      vertex -149.298 -111.428 -3
    endloop
  endfacet
  facet normal 0 0 -1
    outer loop
      vertex -149.427 -111.263 -3
      vertex -149.544 -111.09 -3
      vertex -147.002 -112.498 -3
    endloop
  endfacet
  facet normal 0 0 -1
    outer loop
      vertex -149.298 -111.428 -3
      vertex -147.002 -112.498 -3
      vertex -149.158 -111.584 -3
    endloop
  endfacet
  facet normal 0 0 -1
    outer loop
      vertex -147.002 -112.498 -3
      vertex -147.927 -112.353 -3
      vertex -148.124 -112.282 -3
    endloop
  endfacet
  facet normal 0 0 -1
    outer loop
      vertex -148.847 -111.864 -3
      vertex -147.002 -112.498 -3
      vertex -148.678 -111.987 -3
    endloop
  endfacet
  facet normal 0 0 -1
    outer loop
      vertex -148.847 -111.864 -3
      vertex -149.007 -111.729 -3
      vertex -147.002 -112.498 -3
    endloop
  endfacet
  facet normal 0 0 -1
    outer loop
      vertex -148.678 -111.987 -3
      vertex -147.002 -112.498 -3
      vertex -148.5 -112.098 -3
    endloop
  endfacet
  facet normal 0 0 -1
    outer loop
      vertex -148.5 -112.098 -3
      vertex -147.002 -112.498 -3
      vertex -148.315 -112.196 -3
    endloop
  endfacet
  facet normal 0 0 -1
    outer loop
      vertex -148.315 -112.196 -3
      vertex -147.002 -112.498 -3
      vertex -148.124 -112.282 -3
    endloop
  endfacet
  facet normal 0 0 -1
    outer loop
      vertex -149.649 -110.908 -3
      vertex -147.002 -112.498 -3
      vertex -149.544 -111.09 -3
    endloop
  endfacet
  facet normal 0 0 -1
    outer loop
      vertex -147.726 -112.411 -3
      vertex -147.002 -112.498 -3
      vertex -147.521 -112.454 -3
    endloop
  endfacet
  facet normal 0 0 -1
    outer loop
      vertex -147.726 -112.411 -3
      vertex -147.927 -112.353 -3
      vertex -147.002 -112.498 -3
    endloop
  endfacet
  facet normal 0 0 -1
    outer loop
      vertex -149.819 -110.526 -3
      vertex -149.884 -110.327 -3
      vertex -147.002 -112.498 -3
    endloop
  endfacet
  facet normal 0 0 -1
    outer loop
      vertex -149.934 -110.124 -3
      vertex -149.971 -109.918 -3
      vertex -147.002 -112.498 -3
    endloop
  endfacet
  facet normal 0 0 -1
    outer loop
      vertex -147.105 -112.498 -3
      vertex -147.314 -112.484 -3
      vertex -147.002 -112.498 -3
    endloop
  endfacet
  facet normal 0 0 -1
    outer loop
      vertex -147.002 -112.498 -3
      vertex -149.993 -109.709 -3
      vertex -150 -109.5 -3
    endloop
  endfacet
  facet normal 0 -0 -1
    outer loop
      vertex -147 112.5 -3
      vertex -147 -112.5 -3
      vertex -147.002 112.498 -3
    endloop
  endfacet
  facet normal 0 0 -1
    outer loop
      vertex -147 112.5 -3
      vertex 147 -112.5 -3
      vertex -147 -112.5 -3
    endloop
  endfacet
  facet normal 0 0 -1
    outer loop
      vertex -147 -112.5 -3
      vertex -147.002 -112.498 -3
      vertex -147.002 112.498 -3
    endloop
  endfacet
  facet normal 0 0 1
    outer loop
      vertex 147.314 -112.484 0
      vertex 147.002 -112.498 0
      vertex 147.105 -112.498 0
    endloop
  endfacet
  facet normal 0 0 1
    outer loop
      vertex 147.521 -112.454 0
      vertex 147.002 -112.498 0
      vertex 147.314 -112.484 0
    endloop
  endfacet
  facet normal 0 0 1
    outer loop
      vertex 147.002 112.498 0
      vertex 147.002 -112.498 0
      vertex 150 -109.5 0
    endloop
  endfacet
  facet normal 0 0 1
    outer loop
      vertex 147.726 -112.411 0
      vertex 147.002 -112.498 0
      vertex 147.521 -112.454 0
    endloop
  endfacet
  facet normal 0 0 1
    outer loop
      vertex 147.927 -112.353 0
      vertex 147.002 -112.498 0
      vertex 147.726 -112.411 0
    endloop
  endfacet
  facet normal 0 0 1
    outer loop
      vertex 148.124 -112.282 0
      vertex 147.002 -112.498 0
      vertex 147.927 -112.353 0
    endloop
  endfacet
  facet normal 0 0 1
    outer loop
      vertex 148.315 -112.196 0
      vertex 147.002 -112.498 0
      vertex 148.124 -112.282 0
    endloop
  endfacet
  facet normal 0 0 1
    outer loop
      vertex 148.5 -112.098 0
      vertex 147.002 -112.498 0
      vertex 148.315 -112.196 0
    endloop
  endfacet
  facet normal 0 0 1
    outer loop
      vertex 148.678 -111.987 0
      vertex 147.002 -112.498 0
      vertex 148.5 -112.098 0
    endloop
  endfacet
  facet normal 0 0 1
    outer loop
      vertex 148.847 -111.864 0
      vertex 147.002 -112.498 0
      vertex 148.678 -111.987 0
    endloop
  endfacet
  facet normal 0 0 1
    outer loop
      vertex 149.007 -111.729 0
      vertex 147.002 -112.498 0
      vertex 148.847 -111.864 0
    endloop
  endfacet
  facet normal 0 0 1
    outer loop
      vertex 149.158 -111.584 0
      vertex 147.002 -112.498 0
      vertex 149.007 -111.729 0
    endloop
  endfacet
  facet normal 0 0 1
    outer loop
      vertex 149.298 -111.428 0
      vertex 147.002 -112.498 0
      vertex 149.158 -111.584 0
    endloop
  endfacet
  facet normal 0 0 1
    outer loop
      vertex 149.427 -111.263 0
      vertex 147.002 -112.498 0
      vertex 149.298 -111.428 0
    endloop
  endfacet
  facet normal 0 0 1
    outer loop
      vertex 149.544 -111.09 0
      vertex 147.002 -112.498 0
      vertex 149.427 -111.263 0
    endloop
  endfacet
  facet normal 0 0 1
    outer loop
      vertex 149.649 -110.908 0
      vertex 147.002 -112.498 0
      vertex 149.544 -111.09 0
    endloop
  endfacet
  facet normal 0 0 1
    outer loop
      vertex 149.741 -110.72 0
      vertex 147.002 -112.498 0
      vertex 149.649 -110.908 0
    endloop
  endfacet
  facet normal 0 0 1
    outer loop
      vertex 149.819 -110.526 0
      vertex 147.002 -112.498 0
      vertex 149.741 -110.72 0
    endloop
  endfacet
  facet normal 0 0 1
    outer loop
      vertex 149.884 -110.327 0
      vertex 147.002 -112.498 0
      vertex 149.819 -110.526 0
    endloop
  endfacet
  facet normal 0 0 1
    outer loop
      vertex 149.934 -110.124 0
      vertex 147.002 -112.498 0
      vertex 149.884 -110.327 0
    endloop
  endfacet
  facet normal 0 0 1
    outer loop
      vertex 149.971 -109.918 0
      vertex 147.002 -112.498 0
      vertex 149.934 -110.124 0
    endloop
  endfacet
  facet normal 0 0 1
    outer loop
      vertex 149.993 -109.709 0
      vertex 147.002 -112.498 0
      vertex 149.971 -109.918 0
    endloop
  endfacet
  facet normal 0 0 1
    outer loop
      vertex 150 -109.5 0
      vertex 147.002 -112.498 0
      vertex 149.993 -109.709 0
    endloop
  endfacet
  facet normal 0 0 1
    outer loop
      vertex 150 109.5 0
      vertex 147.002 112.498 0
      vertex 150 -109.5 0
    endloop
  endfacet
  facet normal 0 0 1
    outer loop
      vertex 149.993 109.709 0
      vertex 149.971 109.918 0
      vertex 147.002 112.498 0
    endloop
  endfacet
  facet normal 0 0 1
    outer loop
      vertex 147.002 112.498 0
      vertex 149.934 110.124 0
      vertex 149.884 110.327 0
    endloop
  endfacet
  facet normal 0 0 1
    outer loop
      vertex 149.649 110.908 0
      vertex 147.002 112.498 0
      vertex 149.741 110.72 0
    endloop
  endfacet
  facet normal 0 0 1
    outer loop
      vertex 147.002 112.498 0
      vertex 149.819 110.526 0
      vertex 149.741 110.72 0
    endloop
  endfacet
  facet normal 0 0 1
    outer loop
      vertex 149.158 111.584 0
      vertex 149.007 111.729 0
      vertex 147.002 112.498 0
    endloop
  endfacet
  facet normal 0 0 1
    outer loop
      vertex 149.298 111.428 0
      vertex 147.002 112.498 0
      vertex 149.427 111.263 0
    endloop
  endfacet
  facet normal 0 0 1
    outer loop
      vertex 147.002 112.498 0
      vertex 149.544 111.09 0
      vertex 149.427 111.263 0
    endloop
  endfacet
  facet normal 0 0 1
    outer loop
      vertex 149.158 111.584 0
      vertex 147.002 112.498 0
      vertex 149.298 111.428 0
    endloop
  endfacet
  facet normal 0 0 1
    outer loop
      vertex 148.124 112.282 0
      vertex 147.927 112.353 0
      vertex 147.002 112.498 0
    endloop
  endfacet
  facet normal 0 0 1
    outer loop
      vertex 148.678 111.987 0
      vertex 147.002 112.498 0
      vertex 148.847 111.864 0
    endloop
  endfacet
  facet normal 0 0 1
    outer loop
      vertex 147.002 112.498 0
      vertex 149.007 111.729 0
      vertex 148.847 111.864 0
    endloop
  endfacet
  facet normal 0 0 1
    outer loop
      vertex 148.5 112.098 0
      vertex 147.002 112.498 0
      vertex 148.678 111.987 0
    endloop
  endfacet
  facet normal 0 0 1
    outer loop
      vertex 148.315 112.196 0
      vertex 147.002 112.498 0
      vertex 148.5 112.098 0
    endloop
  endfacet
  facet normal 0 0 1
    outer loop
      vertex 148.124 112.282 0
      vertex 147.002 112.498 0
      vertex 148.315 112.196 0
    endloop
  endfacet
  facet normal 0 0 1
    outer loop
      vertex 149.544 111.09 0
      vertex 147.002 112.498 0
      vertex 149.649 110.908 0
    endloop
  endfacet
  facet normal 0 0 1
    outer loop
      vertex 147.521 112.454 0
      vertex 147.002 112.498 0
      vertex 147.726 112.411 0
    endloop
  endfacet
  facet normal 0 0 1
    outer loop
      vertex 147.002 112.498 0
      vertex 147.927 112.353 0
      vertex 147.726 112.411 0
    endloop
  endfacet
  facet normal 0 0 1
    outer loop
      vertex 147.002 112.498 0
      vertex 149.884 110.327 0
      vertex 149.819 110.526 0
    endloop
  endfacet
  facet normal 0 0 1
    outer loop
      vertex 147.002 112.498 0
      vertex 147.521 112.454 0
      vertex 147.314 112.484 0
    endloop
  endfacet
  facet normal 0 0 1
    outer loop
      vertex 149.971 109.918 0
      vertex 149.934 110.124 0
      vertex 147.002 112.498 0
    endloop
  endfacet
  facet normal 0 0 1
    outer loop
      vertex 147.314 112.484 0
      vertex 147.105 112.498 0
      vertex 147.002 112.498 0
    endloop
  endfacet
  facet normal 0 0 1
    outer loop
      vertex 149.993 109.709 0
      vertex 147.002 112.498 0
      vertex 150 109.5 0
    endloop
  endfacet
  facet normal 0 0 1
    outer loop
      vertex 147.002 112.498 0
      vertex 147 112.5 0
      vertex 147.002 -112.498 0
    endloop
  endfacet
  facet normal 0 0 1
    outer loop
      vertex 147 112.5 0
      vertex 147 -112.5 0
      vertex 147.002 -112.498 0
    endloop
  endfacet
  facet normal -0 0 1
    outer loop
      vertex -147 112.5 0
      vertex 147 -112.5 0
      vertex 147 112.5 0
    endloop
  endfacet
  facet normal 0 0 1
    outer loop
      vertex -147.002 112.498 0
      vertex -150 109.5 0
      vertex -147.002 -112.498 0
    endloop
  endfacet
  facet normal -0 0 1
    outer loop
      vertex -147.105 112.498 0
      vertex -147.314 112.484 0
      vertex -147.002 112.498 0
    endloop
  endfacet
  facet normal -0 0 1
    outer loop
      vertex -147.314 112.484 0
      vertex -147.521 112.454 0
      vertex -147.002 112.498 0
    endloop
  endfacet
  facet normal -0 0 1
    outer loop
      vertex -147.521 112.454 0
      vertex -147.726 112.411 0
      vertex -147.002 112.498 0
    endloop
  endfacet
  facet normal -0 0 1
    outer loop
      vertex -147.726 112.411 0
      vertex -147.927 112.353 0
      vertex -147.002 112.498 0
    endloop
  endfacet
  facet normal -0 0 1
    outer loop
      vertex -147.927 112.353 0
      vertex -148.124 112.282 0
      vertex -147.002 112.498 0
    endloop
  endfacet
  facet normal -0 0 1
    outer loop
      vertex -148.124 112.282 0
      vertex -148.315 112.196 0
      vertex -147.002 112.498 0
    endloop
  endfacet
  facet normal -0 0 1
    outer loop
      vertex -148.315 112.196 0
      vertex -148.5 112.098 0
      vertex -147.002 112.498 0
    endloop
  endfacet
  facet normal -0 0 1
    outer loop
      vertex -148.5 112.098 0
      vertex -148.678 111.987 0
      vertex -147.002 112.498 0
    endloop
  endfacet
  facet normal -0 0 1
    outer loop
      vertex -148.678 111.987 0
      vertex -148.847 111.864 0
      vertex -147.002 112.498 0
    endloop
  endfacet
  facet normal -0 0 1
    outer loop
      vertex -148.847 111.864 0
      vertex -149.007 111.729 0
      vertex -147.002 112.498 0
    endloop
  endfacet
  facet normal -0 0 1
    outer loop
      vertex -149.007 111.729 0
      vertex -149.158 111.584 0
      vertex -147.002 112.498 0
    endloop
  endfacet
  facet normal -0 0 1
    outer loop
      vertex -149.158 111.584 0
      vertex -149.298 111.428 0
      vertex -147.002 112.498 0
    endloop
  endfacet
  facet normal -0 0 1
    outer loop
      vertex -149.298 111.428 0
      vertex -149.427 111.263 0
      vertex -147.002 112.498 0
    endloop
  endfacet
  facet normal -0 0 1
    outer loop
      vertex -149.427 111.263 0
      vertex -149.544 111.09 0
      vertex -147.002 112.498 0
    endloop
  endfacet
  facet normal -0 0 1
    outer loop
      vertex -149.544 111.09 0
      vertex -149.649 110.908 0
      vertex -147.002 112.498 0
    endloop
  endfacet
  facet normal -0 0 1
    outer loop
      vertex -149.649 110.908 0
      vertex -149.741 110.72 0
      vertex -147.002 112.498 0
    endloop
  endfacet
  facet normal -0 0 1
    outer loop
      vertex -149.741 110.72 0
      vertex -149.819 110.526 0
      vertex -147.002 112.498 0
    endloop
  endfacet
  facet normal -0 0 1
    outer loop
      vertex -149.819 110.526 0
      vertex -149.884 110.327 0
      vertex -147.002 112.498 0
    endloop
  endfacet
  facet normal -0 0 1
    outer loop
      vertex -149.884 110.327 0
      vertex -149.934 110.124 0
      vertex -147.002 112.498 0
    endloop
  endfacet
  facet normal -0 0 1
    outer loop
      vertex -149.934 110.124 0
      vertex -149.971 109.918 0
      vertex -147.002 112.498 0
    endloop
  endfacet
  facet normal -0 0 1
    outer loop
      vertex -149.971 109.918 0
      vertex -149.993 109.709 0
      vertex -147.002 112.498 0
    endloop
  endfacet
  facet normal -0 0 1
    outer loop
      vertex -149.993 109.709 0
      vertex -150 109.5 0
      vertex -147.002 112.498 0
    endloop
  endfacet
  facet normal 0 0 1
    outer loop
      vertex -150 109.5 0
      vertex -150 -109.5 0
      vertex -147.002 -112.498 0
    endloop
  endfacet
  facet normal -0 -0 1
    outer loop
      vertex -147.314 -112.484 0
      vertex -147.002 -112.498 0
      vertex -147.521 -112.454 0
    endloop
  endfacet
  facet normal 0 0 1
    outer loop
      vertex -149.993 -109.709 0
      vertex -149.971 -109.918 0
      vertex -147.002 -112.498 0
    endloop
  endfacet
  facet normal 0 0 1
    outer loop
      vertex -147.002 -112.498 0
      vertex -149.934 -110.124 0
      vertex -149.884 -110.327 0
    endloop
  endfacet
  facet normal -0 -0 1
    outer loop
      vertex -149.649 -110.908 0
      vertex -147.002 -112.498 0
      vertex -149.741 -110.72 0
    endloop
  endfacet
  facet normal 0 0 1
    outer loop
      vertex -147.002 -112.498 0
      vertex -149.819 -110.526 0
      vertex -149.741 -110.72 0
    endloop
  endfacet
  facet normal 0 0 1
    outer loop
      vertex -149.158 -111.584 0
      vertex -149.007 -111.729 0
      vertex -147.002 -112.498 0
    endloop
  endfacet
  facet normal -0 -0 1
    outer loop
      vertex -149.298 -111.428 0
      vertex -147.002 -112.498 0
      vertex -149.427 -111.263 0
    endloop
  endfacet
  facet normal 0 0 1
    outer loop
      vertex -147.002 -112.498 0
      vertex -149.544 -111.09 0
      vertex -149.427 -111.263 0
    endloop
  endfacet
  facet normal -0 -0 1
    outer loop
      vertex -149.158 -111.584 0
      vertex -147.002 -112.498 0
      vertex -149.298 -111.428 0
    endloop
  endfacet
  facet normal 0 0 1
    outer loop
      vertex -148.124 -112.282 0
      vertex -147.927 -112.353 0
      vertex -147.002 -112.498 0
    endloop
  endfacet
  facet normal -0 -0 1
    outer loop
      vertex -148.678 -111.987 0
      vertex -147.002 -112.498 0
      vertex -148.847 -111.864 0
    endloop
  endfacet
  facet normal 0 0 1
    outer loop
      vertex -147.002 -112.498 0
      vertex -149.007 -111.729 0
      vertex -148.847 -111.864 0
    endloop
  endfacet
  facet normal -0 -0 1
    outer loop
      vertex -148.5 -112.098 0
      vertex -147.002 -112.498 0
      vertex -148.678 -111.987 0
    endloop
  endfacet
  facet normal -0 -0 1
    outer loop
      vertex -148.315 -112.196 0
      vertex -147.002 -112.498 0
      vertex -148.5 -112.098 0
    endloop
  endfacet
  facet normal -0 -0 1
    outer loop
      vertex -148.124 -112.282 0
      vertex -147.002 -112.498 0
      vertex -148.315 -112.196 0
    endloop
  endfacet
  facet normal -0 -0 1
    outer loop
      vertex -149.544 -111.09 0
      vertex -147.002 -112.498 0
      vertex -149.649 -110.908 0
    endloop
  endfacet
  facet normal -0 -0 1
    outer loop
      vertex -147.521 -112.454 0
      vertex -147.002 -112.498 0
      vertex -147.726 -112.411 0
    endloop
  endfacet
  facet normal 0 0 1
    outer loop
      vertex -147.002 -112.498 0
      vertex -147.927 -112.353 0
      vertex -147.726 -112.411 0
    endloop
  endfacet
  facet normal 0 0 1
    outer loop
      vertex -147.002 -112.498 0
      vertex -149.884 -110.327 0
      vertex -149.819 -110.526 0
    endloop
  endfacet
  facet normal 0 0 1
    outer loop
      vertex -147.002 -112.498 0
      vertex -149.971 -109.918 0
      vertex -149.934 -110.124 0
    endloop
  endfacet
  facet normal 0 0 1
    outer loop
      vertex -147.002 -112.498 0
      vertex -147.314 -112.484 0
      vertex -147.105 -112.498 0
    endloop
  endfacet
  facet normal 0 0 1
    outer loop
      vertex -150 -109.5 0
      vertex -149.993 -109.709 0
      vertex -147.002 -112.498 0
    endloop
  endfacet
  facet normal -0 0 1
    outer loop
      vertex -147.002 112.498 0
      vertex -147 -112.5 0
      vertex -147 112.5 0
    endloop
  endfacet
  facet normal 0 0 1
    outer loop
      vertex -147 -112.5 0
      vertex 147 -112.5 0
      vertex -147 112.5 0
    endloop
  endfacet
  facet normal 0 0 1
    outer loop
      vertex -147.002 112.498 0
      vertex -147.002 -112.498 0
      vertex -147 -112.5 0
    endloop
  endfacet
  facet normal 0 -1 0
    outer loop
      vertex 147.105 -112.498 -3
      vertex 147.002 -112.498 0
      vertex 147.002 -112.498 -3
    endloop
  endfacet
  facet normal 0 -1 0
    outer loop
      vertex 147.105 -112.498 -3
      vertex 147.105 -112.498 0
      vertex 147.002 -112.498 0
    endloop
  endfacet
  facet normal 0.0668359 -0.997764 0
    outer loop
      vertex 147.314 -112.484 -3
      vertex 147.105 -112.498 0
      vertex 147.105 -112.498 -3
    endloop
  endfacet
  facet normal 0.0668359 -0.997764 0
    outer loop
      vertex 147.314 -112.484 -3
      vertex 147.314 -112.484 0
      vertex 147.105 -112.498 0
    endloop
  endfacet
  facet normal 0.143429 -0.989661 0
    outer loop
      vertex 147.521 -112.454 -3
      vertex 147.314 -112.484 0
      vertex 147.314 -112.484 -3
    endloop
  endfacet
  facet normal 0.143429 -0.989661 0
    outer loop
      vertex 147.521 -112.454 -3
      vertex 147.521 -112.454 0
      vertex 147.314 -112.484 0
    endloop
  endfacet
  facet normal 0.205289 -0.978701 0
    outer loop
      vertex 147.726 -112.411 -3
      vertex 147.521 -112.454 0
      vertex 147.521 -112.454 -3
    endloop
  endfacet
  facet normal 0.205289 -0.978701 0
    outer loop
      vertex 147.726 -112.411 -3
      vertex 147.726 -112.411 0
      vertex 147.521 -112.454 0
    endloop
  endfacet
  facet normal 0.277246 -0.960799 0
    outer loop
      vertex 147.927 -112.353 -3
      vertex 147.726 -112.411 0
      vertex 147.726 -112.411 -3
    endloop
  endfacet
  facet normal 0.277246 -0.960799 0
    outer loop
      vertex 147.927 -112.353 -3
      vertex 147.927 -112.353 0
      vertex 147.726 -112.411 0
    endloop
  endfacet
  facet normal 0.339058 -0.940766 0
    outer loop
      vertex 148.124 -112.282 -3
      vertex 147.927 -112.353 0
      vertex 147.927 -112.353 -3
    endloop
  endfacet
  facet normal 0.339058 -0.940766 0
    outer loop
      vertex 148.124 -112.282 -3
      vertex 148.124 -112.282 0
      vertex 147.927 -112.353 0
    endloop
  endfacet
  facet normal 0.410563 -0.911832 0
    outer loop
      vertex 148.315 -112.196 -3
      vertex 148.124 -112.282 0
      vertex 148.124 -112.282 -3
    endloop
  endfacet
  facet normal 0.410563 -0.911832 0
    outer loop
      vertex 148.315 -112.196 -3
      vertex 148.315 -112.196 0
      vertex 148.124 -112.282 0
    endloop
  endfacet
  facet normal 0.468107 -0.883672 0
    outer loop
      vertex 148.5 -112.098 -3
      vertex 148.315 -112.196 0
      vertex 148.315 -112.196 -3
    endloop
  endfacet
  facet normal 0.468107 -0.883672 0
    outer loop
      vertex 148.5 -112.098 -3
      vertex 148.5 -112.098 0
      vertex 148.315 -112.196 0
    endloop
  endfacet
  facet normal 0.529142 -0.848533 0
    outer loop
      vertex 148.678 -111.987 -3
      vertex 148.5 -112.098 0
      vertex 148.5 -112.098 -3
    endloop
  endfacet
  facet normal 0.529142 -0.848533 0
    outer loop
      vertex 148.678 -111.987 -3
      vertex 148.678 -111.987 0
      vertex 148.5 -112.098 0
    endloop
  endfacet
  facet normal 0.588456 -0.808529 0
    outer loop
      vertex 148.847 -111.864 -3
      vertex 148.678 -111.987 0
      vertex 148.678 -111.987 -3
    endloop
  endfacet
  facet normal 0.588456 -0.808529 0
    outer loop
      vertex 148.847 -111.864 -3
      vertex 148.847 -111.864 0
      vertex 148.678 -111.987 0
    endloop
  endfacet
  facet normal 0.644871 -0.764291 0
    outer loop
      vertex 149.007 -111.729 -3
      vertex 148.847 -111.864 0
      vertex 148.847 -111.864 -3
    endloop
  endfacet
  facet normal 0.644871 -0.764291 0
    outer loop
      vertex 149.007 -111.729 -3
      vertex 149.007 -111.729 0
      vertex 148.847 -111.864 0
    endloop
  endfacet
  facet normal 0.692631 -0.721292 0
    outer loop
      vertex 149.158 -111.584 -3
      vertex 149.007 -111.729 0
      vertex 149.007 -111.729 -3
    endloop
  endfacet
  facet normal 0.692631 -0.721292 0
    outer loop
      vertex 149.158 -111.584 -3
      vertex 149.158 -111.584 0
      vertex 149.007 -111.729 0
    endloop
  endfacet
  facet normal 0.744242 -0.66791 0
    outer loop
      vertex 149.298 -111.428 -3
      vertex 149.158 -111.584 0
      vertex 149.158 -111.584 -3
    endloop
  endfacet
  facet normal 0.744242 -0.66791 0
    outer loop
      vertex 149.298 -111.428 -3
      vertex 149.298 -111.428 0
      vertex 149.158 -111.584 0
    endloop
  endfacet
  facet normal 0.787807 -0.615922 0
    outer loop
      vertex 149.427 -111.263 -3
      vertex 149.298 -111.428 0
      vertex 149.298 -111.428 -3
    endloop
  endfacet
  facet normal 0.787807 -0.615922 0
    outer loop
      vertex 149.427 -111.263 -3
      vertex 149.427 -111.263 0
      vertex 149.298 -111.428 0
    endloop
  endfacet
  facet normal 0.828349 -0.560213 0
    outer loop
      vertex 149.544 -111.09 -3
      vertex 149.427 -111.263 0
      vertex 149.427 -111.263 -3
    endloop
  endfacet
  facet normal 0.828349 -0.560213 0
    outer loop
      vertex 149.544 -111.09 -3
      vertex 149.544 -111.09 0
      vertex 149.427 -111.263 0
    endloop
  endfacet
  facet normal 0.866186 -0.499722 0
    outer loop
      vertex 149.649 -110.908 -3
      vertex 149.544 -111.09 0
      vertex 149.544 -111.09 -3
    endloop
  endfacet
  facet normal 0.866186 -0.499722 0
    outer loop
      vertex 149.649 -110.908 -3
      vertex 149.649 -110.908 0
      vertex 149.544 -111.09 0
    endloop
  endfacet
  facet normal 0.898217 -0.439553 0
    outer loop
      vertex 149.741 -110.72 -3
      vertex 149.649 -110.908 0
      vertex 149.649 -110.908 -3
    endloop
  endfacet
  facet normal 0.898217 -0.439553 0
    outer loop
      vertex 149.741 -110.72 -3
      vertex 149.741 -110.72 0
      vertex 149.649 -110.908 0
    endloop
  endfacet
  facet normal 0.927816 -0.373039 0
    outer loop
      vertex 149.819 -110.526 -3
      vertex 149.741 -110.72 0
      vertex 149.741 -110.72 -3
    endloop
  endfacet
  facet normal 0.927816 -0.373039 0
    outer loop
      vertex 149.819 -110.526 -3
      vertex 149.819 -110.526 0
      vertex 149.741 -110.72 0
    endloop
  endfacet
  facet normal 0.950577 -0.31049 0
    outer loop
      vertex 149.884 -110.327 -3
      vertex 149.819 -110.526 0
      vertex 149.819 -110.526 -3
    endloop
  endfacet
  facet normal 0.950577 -0.31049 0
    outer loop
      vertex 149.884 -110.327 -3
      vertex 149.884 -110.327 0
      vertex 149.819 -110.526 0
    endloop
  endfacet
  facet normal 0.970981 -0.239158 0
    outer loop
      vertex 149.934 -110.124 -3
      vertex 149.884 -110.327 0
      vertex 149.884 -110.327 -3
    endloop
  endfacet
  facet normal 0.970981 -0.239158 0
    outer loop
      vertex 149.934 -110.124 -3
      vertex 149.934 -110.124 0
      vertex 149.884 -110.327 0
    endloop
  endfacet
  facet normal 0.98425 -0.176783 0
    outer loop
      vertex 149.971 -109.918 -3
      vertex 149.934 -110.124 0
      vertex 149.934 -110.124 -3
    endloop
  endfacet
  facet normal 0.98425 -0.176783 0
    outer loop
      vertex 149.971 -109.918 -3
      vertex 149.971 -109.918 0
      vertex 149.934 -110.124 0
    endloop
  endfacet
  facet normal 0.994505 -0.104685 0
    outer loop
      vertex 149.993 -109.709 -3
      vertex 149.971 -109.918 0
      vertex 149.971 -109.918 -3
    endloop
  endfacet
  facet normal 0.994505 -0.104685 0
    outer loop
      vertex 149.993 -109.709 -3
      vertex 149.993 -109.709 0
      vertex 149.971 -109.918 0
    endloop
  endfacet
  facet normal 0.99944 -0.0334741 0
    outer loop
      vertex 150 -109.5 -3
      vertex 149.993 -109.709 0
      vertex 149.993 -109.709 -3
    endloop
  endfacet
  facet normal 0.99944 -0.0334741 0
    outer loop
      vertex 150 -109.5 -3
      vertex 150 -109.5 0
      vertex 149.993 -109.709 0
    endloop
  endfacet
  facet normal 1 0 0
    outer loop
      vertex 150 109.5 -3
      vertex 150 -109.5 0
      vertex 150 -109.5 -3
    endloop
  endfacet
  facet normal 1 0 -0
    outer loop
      vertex 150 109.5 -3
      vertex 150 109.5 0
      vertex 150 -109.5 0
    endloop
  endfacet
  facet normal 0.99944 0.0334741 0
    outer loop
      vertex 149.993 109.709 -3
      vertex 150 109.5 0
      vertex 150 109.5 -3
    endloop
  endfacet
  facet normal 0.99944 0.0334741 -0
    outer loop
      vertex 149.993 109.709 -3
      vertex 149.993 109.709 0
      vertex 150 109.5 0
    endloop
  endfacet
  facet normal 0.994505 0.104685 0
    outer loop
      vertex 149.971 109.918 -3
      vertex 149.993 109.709 0
      vertex 149.993 109.709 -3
    endloop
  endfacet
  facet normal 0.994505 0.104685 -0
    outer loop
      vertex 149.971 109.918 -3
      vertex 149.971 109.918 0
      vertex 149.993 109.709 0
    endloop
  endfacet
  facet normal 0.98425 0.176783 0
    outer loop
      vertex 149.934 110.124 -3
      vertex 149.971 109.918 0
      vertex 149.971 109.918 -3
    endloop
  endfacet
  facet normal 0.98425 0.176783 -0
    outer loop
      vertex 149.934 110.124 -3
      vertex 149.934 110.124 0
      vertex 149.971 109.918 0
    endloop
  endfacet
  facet normal 0.970981 0.239158 0
    outer loop
      vertex 149.884 110.327 -3
      vertex 149.934 110.124 0
      vertex 149.934 110.124 -3
    endloop
  endfacet
  facet normal 0.970981 0.239158 -0
    outer loop
      vertex 149.884 110.327 -3
      vertex 149.884 110.327 0
      vertex 149.934 110.124 0
    endloop
  endfacet
  facet normal 0.950577 0.31049 0
    outer loop
      vertex 149.819 110.526 -3
      vertex 149.884 110.327 0
      vertex 149.884 110.327 -3
    endloop
  endfacet
  facet normal 0.950577 0.31049 -0
    outer loop
      vertex 149.819 110.526 -3
      vertex 149.819 110.526 0
      vertex 149.884 110.327 0
    endloop
  endfacet
  facet normal 0.927816 0.373039 0
    outer loop
      vertex 149.741 110.72 -3
      vertex 149.819 110.526 0
      vertex 149.819 110.526 -3
    endloop
  endfacet
  facet normal 0.927816 0.373039 -0
    outer loop
      vertex 149.741 110.72 -3
      vertex 149.741 110.72 0
      vertex 149.819 110.526 0
    endloop
  endfacet
  facet normal 0.898217 0.439553 0
    outer loop
      vertex 149.649 110.908 -3
      vertex 149.741 110.72 0
      vertex 149.741 110.72 -3
    endloop
  endfacet
  facet normal 0.898217 0.439553 -0
    outer loop
      vertex 149.649 110.908 -3
      vertex 149.649 110.908 0
      vertex 149.741 110.72 0
    endloop
  endfacet
  facet normal 0.866186 0.499722 0
    outer loop
      vertex 149.544 111.09 -3
      vertex 149.649 110.908 0
      vertex 149.649 110.908 -3
    endloop
  endfacet
  facet normal 0.866186 0.499722 -0
    outer loop
      vertex 149.544 111.09 -3
      vertex 149.544 111.09 0
      vertex 149.649 110.908 0
    endloop
  endfacet
  facet normal 0.828349 0.560213 0
    outer loop
      vertex 149.427 111.263 -3
      vertex 149.544 111.09 0
      vertex 149.544 111.09 -3
    endloop
  endfacet
  facet normal 0.828349 0.560213 -0
    outer loop
      vertex 149.427 111.263 -3
      vertex 149.427 111.263 0
      vertex 149.544 111.09 0
    endloop
  endfacet
  facet normal 0.787807 0.615922 0
    outer loop
      vertex 149.298 111.428 -3
      vertex 149.427 111.263 0
      vertex 149.427 111.263 -3
    endloop
  endfacet
  facet normal 0.787807 0.615922 -0
    outer loop
      vertex 149.298 111.428 -3
      vertex 149.298 111.428 0
      vertex 149.427 111.263 0
    endloop
  endfacet
  facet normal 0.744242 0.66791 0
    outer loop
      vertex 149.158 111.584 -3
      vertex 149.298 111.428 0
      vertex 149.298 111.428 -3
    endloop
  endfacet
  facet normal 0.744242 0.66791 -0
    outer loop
      vertex 149.158 111.584 -3
      vertex 149.158 111.584 0
      vertex 149.298 111.428 0
    endloop
  endfacet
  facet normal 0.692631 0.721292 0
    outer loop
      vertex 149.007 111.729 -3
      vertex 149.158 111.584 0
      vertex 149.158 111.584 -3
    endloop
  endfacet
  facet normal 0.692631 0.721292 -0
    outer loop
      vertex 149.007 111.729 -3
      vertex 149.007 111.729 0
      vertex 149.158 111.584 0
    endloop
  endfacet
  facet normal 0.644871 0.764291 0
    outer loop
      vertex 148.847 111.864 -3
      vertex 149.007 111.729 0
      vertex 149.007 111.729 -3
    endloop
  endfacet
  facet normal 0.644871 0.764291 -0
    outer loop
      vertex 148.847 111.864 -3
      vertex 148.847 111.864 0
      vertex 149.007 111.729 0
    endloop
  endfacet
  facet normal 0.588456 0.808529 0
    outer loop
      vertex 148.678 111.987 -3
      vertex 148.847 111.864 0
      vertex 148.847 111.864 -3
    endloop
  endfacet
  facet normal 0.588456 0.808529 -0
    outer loop
      vertex 148.678 111.987 -3
      vertex 148.678 111.987 0
      vertex 148.847 111.864 0
    endloop
  endfacet
  facet normal 0.529142 0.848533 0
    outer loop
      vertex 148.5 112.098 -3
      vertex 148.678 111.987 0
      vertex 148.678 111.987 -3
    endloop
  endfacet
  facet normal 0.529142 0.848533 -0
    outer loop
      vertex 148.5 112.098 -3
      vertex 148.5 112.098 0
      vertex 148.678 111.987 0
    endloop
  endfacet
  facet normal 0.468107 0.883672 0
    outer loop
      vertex 148.315 112.196 -3
      vertex 148.5 112.098 0
      vertex 148.5 112.098 -3
    endloop
  endfacet
  facet normal 0.468107 0.883672 -0
    outer loop
      vertex 148.315 112.196 -3
      vertex 148.315 112.196 0
      vertex 148.5 112.098 0
    endloop
  endfacet
  facet normal 0.410563 0.911832 0
    outer loop
      vertex 148.124 112.282 -3
      vertex 148.315 112.196 0
      vertex 148.315 112.196 -3
    endloop
  endfacet
  facet normal 0.410563 0.911832 -0
    outer loop
      vertex 148.124 112.282 -3
      vertex 148.124 112.282 0
      vertex 148.315 112.196 0
    endloop
  endfacet
  facet normal 0.339058 0.940766 0
    outer loop
      vertex 147.927 112.353 -3
      vertex 148.124 112.282 0
      vertex 148.124 112.282 -3
    endloop
  endfacet
  facet normal 0.339058 0.940766 -0
    outer loop
      vertex 147.927 112.353 -3
      vertex 147.927 112.353 0
      vertex 148.124 112.282 0
    endloop
  endfacet
  facet normal 0.277246 0.960799 0
    outer loop
      vertex 147.726 112.411 -3
      vertex 147.927 112.353 0
      vertex 147.927 112.353 -3
    endloop
  endfacet
  facet normal 0.277246 0.960799 -0
    outer loop
      vertex 147.726 112.411 -3
      vertex 147.726 112.411 0
      vertex 147.927 112.353 0
    endloop
  endfacet
  facet normal 0.205289 0.978701 0
    outer loop
      vertex 147.521 112.454 -3
      vertex 147.726 112.411 0
      vertex 147.726 112.411 -3
    endloop
  endfacet
  facet normal 0.205289 0.978701 -0
    outer loop
      vertex 147.521 112.454 -3
      vertex 147.521 112.454 0
      vertex 147.726 112.411 0
    endloop
  endfacet
  facet normal 0.143429 0.989661 0
    outer loop
      vertex 147.314 112.484 -3
      vertex 147.521 112.454 0
      vertex 147.521 112.454 -3
    endloop
  endfacet
  facet normal 0.143429 0.989661 -0
    outer loop
      vertex 147.314 112.484 -3
      vertex 147.314 112.484 0
      vertex 147.521 112.454 0
    endloop
  endfacet
  facet normal 0.0668359 0.997764 0
    outer loop
      vertex 147.105 112.498 -3
      vertex 147.314 112.484 0
      vertex 147.314 112.484 -3
    endloop
  endfacet
  facet normal 0.0668359 0.997764 -0
    outer loop
      vertex 147.105 112.498 -3
      vertex 147.105 112.498 0
      vertex 147.314 112.484 0
    endloop
  endfacet
  facet normal 0 1 0
    outer loop
      vertex 147.002 112.498 -3
      vertex 147.105 112.498 0
      vertex 147.105 112.498 -3
    endloop
  endfacet
  facet normal 0 1 0
    outer loop
      vertex 147.002 112.498 -3
      vertex 147.002 112.498 0
      vertex 147.105 112.498 0
    endloop
  endfacet
  facet normal 0.707107 0.707107 0
    outer loop
      vertex 147 112.5 -3
      vertex 147.002 112.498 0
      vertex 147.002 112.498 -3
    endloop
  endfacet
  facet normal 0.707107 0.707107 -0
    outer loop
      vertex 147 112.5 -3
      vertex 147 112.5 0
      vertex 147.002 112.498 0
    endloop
  endfacet
  facet normal 0 1 0
    outer loop
      vertex -147 112.5 -3
      vertex 147 112.5 0
      vertex 147 112.5 -3
    endloop
  endfacet
  facet normal 0 1 0
    outer loop
      vertex -147 112.5 -3
      vertex -147 112.5 0
      vertex 147 112.5 0
    endloop
  endfacet
  facet normal -0.707107 0.707107 0
    outer loop
      vertex -147.002 112.498 -3
      vertex -147 112.5 0
      vertex -147 112.5 -3
    endloop
  endfacet
  facet normal -0.707107 0.707107 0
    outer loop
      vertex -147.002 112.498 -3
      vertex -147.002 112.498 0
      vertex -147 112.5 0
    endloop
  endfacet
  facet normal 0 1 0
    outer loop
      vertex -147.105 112.498 -3
      vertex -147.002 112.498 0
      vertex -147.002 112.498 -3
    endloop
  endfacet
  facet normal 0 1 0
    outer loop
      vertex -147.105 112.498 -3
      vertex -147.105 112.498 0
      vertex -147.002 112.498 0
    endloop
  endfacet
  facet normal -0.0668359 0.997764 0
    outer loop
      vertex -147.314 112.484 -3
      vertex -147.105 112.498 0
      vertex -147.105 112.498 -3
    endloop
  endfacet
  facet normal -0.0668359 0.997764 0
    outer loop
      vertex -147.314 112.484 -3
      vertex -147.314 112.484 0
      vertex -147.105 112.498 0
    endloop
  endfacet
  facet normal -0.143429 0.989661 0
    outer loop
      vertex -147.521 112.454 -3
      vertex -147.314 112.484 0
      vertex -147.314 112.484 -3
    endloop
  endfacet
  facet normal -0.143429 0.989661 0
    outer loop
      vertex -147.521 112.454 -3
      vertex -147.521 112.454 0
      vertex -147.314 112.484 0
    endloop
  endfacet
  facet normal -0.205289 0.978701 0
    outer loop
      vertex -147.726 112.411 -3
      vertex -147.521 112.454 0
      vertex -147.521 112.454 -3
    endloop
  endfacet
  facet normal -0.205289 0.978701 0
    outer loop
      vertex -147.726 112.411 -3
      vertex -147.726 112.411 0
      vertex -147.521 112.454 0
    endloop
  endfacet
  facet normal -0.277246 0.960799 0
    outer loop
      vertex -147.927 112.353 -3
      vertex -147.726 112.411 0
      vertex -147.726 112.411 -3
    endloop
  endfacet
  facet normal -0.277246 0.960799 0
    outer loop
      vertex -147.927 112.353 -3
      vertex -147.927 112.353 0
      vertex -147.726 112.411 0
    endloop
  endfacet
  facet normal -0.339058 0.940766 0
    outer loop
      vertex -148.124 112.282 -3
      vertex -147.927 112.353 0
      vertex -147.927 112.353 -3
    endloop
  endfacet
  facet normal -0.339058 0.940766 0
    outer loop
      vertex -148.124 112.282 -3
      vertex -148.124 112.282 0
      vertex -147.927 112.353 0
    endloop
  endfacet
  facet normal -0.410563 0.911832 0
    outer loop
      vertex -148.315 112.196 -3
      vertex -148.124 112.282 0
      vertex -148.124 112.282 -3
    endloop
  endfacet
  facet normal -0.410563 0.911832 0
    outer loop
      vertex -148.315 112.196 -3
      vertex -148.315 112.196 0
      vertex -148.124 112.282 0
    endloop
  endfacet
  facet normal -0.468107 0.883672 0
    outer loop
      vertex -148.5 112.098 -3
      vertex -148.315 112.196 0
      vertex -148.315 112.196 -3
    endloop
  endfacet
  facet normal -0.468107 0.883672 0
    outer loop
      vertex -148.5 112.098 -3
      vertex -148.5 112.098 0
      vertex -148.315 112.196 0
    endloop
  endfacet
  facet normal -0.529142 0.848533 0
    outer loop
      vertex -148.678 111.987 -3
      vertex -148.5 112.098 0
      vertex -148.5 112.098 -3
    endloop
  endfacet
  facet normal -0.529142 0.848533 0
    outer loop
      vertex -148.678 111.987 -3
      vertex -148.678 111.987 0
      vertex -148.5 112.098 0
    endloop
  endfacet
  facet normal -0.588456 0.808529 0
    outer loop
      vertex -148.847 111.864 -3
      vertex -148.678 111.987 0
      vertex -148.678 111.987 -3
    endloop
  endfacet
  facet normal -0.588456 0.808529 0
    outer loop
      vertex -148.847 111.864 -3
      vertex -148.847 111.864 0
      vertex -148.678 111.987 0
    endloop
  endfacet
  facet normal -0.644871 0.764291 0
    outer loop
      vertex -149.007 111.729 -3
      vertex -148.847 111.864 0
      vertex -148.847 111.864 -3
    endloop
  endfacet
  facet normal -0.644871 0.764291 0
    outer loop
      vertex -149.007 111.729 -3
      vertex -149.007 111.729 0
      vertex -148.847 111.864 0
    endloop
  endfacet
  facet normal -0.692631 0.721292 0
    outer loop
      vertex -149.158 111.584 -3
      vertex -149.007 111.729 0
      vertex -149.007 111.729 -3
    endloop
  endfacet
  facet normal -0.692631 0.721292 0
    outer loop
      vertex -149.158 111.584 -3
      vertex -149.158 111.584 0
      vertex -149.007 111.729 0
    endloop
  endfacet
  facet normal -0.744242 0.66791 0
    outer loop
      vertex -149.298 111.428 -3
      vertex -149.158 111.584 0
      vertex -149.158 111.584 -3
    endloop
  endfacet
  facet normal -0.744242 0.66791 0
    outer loop
      vertex -149.298 111.428 -3
      vertex -149.298 111.428 0
      vertex -149.158 111.584 0
    endloop
  endfacet
  facet normal -0.787807 0.615922 0
    outer loop
      vertex -149.427 111.263 -3
      vertex -149.298 111.428 0
      vertex -149.298 111.428 -3
    endloop
  endfacet
  facet normal -0.787807 0.615922 0
    outer loop
      vertex -149.427 111.263 -3
      vertex -149.427 111.263 0
      vertex -149.298 111.428 0
    endloop
  endfacet
  facet normal -0.828349 0.560213 0
    outer loop
      vertex -149.544 111.09 -3
      vertex -149.427 111.263 0
      vertex -149.427 111.263 -3
    endloop
  endfacet
  facet normal -0.828349 0.560213 0
    outer loop
      vertex -149.544 111.09 -3
      vertex -149.544 111.09 0
      vertex -149.427 111.263 0
    endloop
  endfacet
  facet normal -0.866186 0.499722 0
    outer loop
      vertex -149.649 110.908 -3
      vertex -149.544 111.09 0
      vertex -149.544 111.09 -3
    endloop
  endfacet
  facet normal -0.866186 0.499722 0
    outer loop
      vertex -149.649 110.908 -3
      vertex -149.649 110.908 0
      vertex -149.544 111.09 0
    endloop
  endfacet
  facet normal -0.898217 0.439553 0
    outer loop
      vertex -149.741 110.72 -3
      vertex -149.649 110.908 0
      vertex -149.649 110.908 -3
    endloop
  endfacet
  facet normal -0.898217 0.439553 0
    outer loop
      vertex -149.741 110.72 -3
      vertex -149.741 110.72 0
      vertex -149.649 110.908 0
    endloop
  endfacet
  facet normal -0.927816 0.373039 0
    outer loop
      vertex -149.819 110.526 -3
      vertex -149.741 110.72 0
      vertex -149.741 110.72 -3
    endloop
  endfacet
  facet normal -0.927816 0.373039 0
    outer loop
      vertex -149.819 110.526 -3
      vertex -149.819 110.526 0
      vertex -149.741 110.72 0
    endloop
  endfacet
  facet normal -0.950577 0.31049 0
    outer loop
      vertex -149.884 110.327 -3
      vertex -149.819 110.526 0
      vertex -149.819 110.526 -3
    endloop
  endfacet
  facet normal -0.950577 0.31049 0
    outer loop
      vertex -149.884 110.327 -3
      vertex -149.884 110.327 0
      vertex -149.819 110.526 0
    endloop
  endfacet
  facet normal -0.970981 0.239158 0
    outer loop
      vertex -149.934 110.124 -3
      vertex -149.884 110.327 0
      vertex -149.884 110.327 -3
    endloop
  endfacet
  facet normal -0.970981 0.239158 0
    outer loop
      vertex -149.934 110.124 -3
      vertex -149.934 110.124 0
      vertex -149.884 110.327 0
    endloop
  endfacet
  facet normal -0.98425 0.176783 0
    outer loop
      vertex -149.971 109.918 -3
      vertex -149.934 110.124 0
      vertex -149.934 110.124 -3
    endloop
  endfacet
  facet normal -0.98425 0.176783 0
    outer loop
      vertex -149.971 109.918 -3
      vertex -149.971 109.918 0
      vertex -149.934 110.124 0
    endloop
  endfacet
  facet normal -0.994505 0.104685 0
    outer loop
      vertex -149.993 109.709 -3
      vertex -149.971 109.918 0
      vertex -149.971 109.918 -3
    endloop
  endfacet
  facet normal -0.994505 0.104685 0
    outer loop
      vertex -149.993 109.709 -3
      vertex -149.993 109.709 0
      vertex -149.971 109.918 0
    endloop
  endfacet
  facet normal -0.99944 0.0334741 0
    outer loop
      vertex -150 109.5 -3
      vertex -149.993 109.709 0
      vertex -149.993 109.709 -3
    endloop
  endfacet
  facet normal -0.99944 0.0334741 0
    outer loop
      vertex -150 109.5 -3
      vertex -150 109.5 0
      vertex -149.993 109.709 0
    endloop
  endfacet
  facet normal -1 0 0
    outer loop
      vertex -150 -109.5 -3
      vertex -150 109.5 0
      vertex -150 109.5 -3
    endloop
  endfacet
  facet normal -1 0 0
    outer loop
      vertex -150 -109.5 -3
      vertex -150 -109.5 0
      vertex -150 109.5 0
    endloop
  endfacet
  facet normal -0.99944 -0.0334741 0
    outer loop
      vertex -149.993 -109.709 -3
      vertex -150 -109.5 0
      vertex -150 -109.5 -3
    endloop
  endfacet
  facet normal -0.99944 -0.0334741 0
    outer loop
      vertex -149.993 -109.709 -3
      vertex -149.993 -109.709 0
      vertex -150 -109.5 0
    endloop
  endfacet
  facet normal -0.994505 -0.104685 0
    outer loop
      vertex -149.971 -109.918 -3
      vertex -149.993 -109.709 0
      vertex -149.993 -109.709 -3
    endloop
  endfacet
  facet normal -0.994505 -0.104685 0
    outer loop
      vertex -149.971 -109.918 -3
      vertex -149.971 -109.918 0
      vertex -149.993 -109.709 0
    endloop
  endfacet
  facet normal -0.98425 -0.176783 0
    outer loop
      vertex -149.934 -110.124 -3
      vertex -149.971 -109.918 0
      vertex -149.971 -109.918 -3
    endloop
  endfacet
  facet normal -0.98425 -0.176783 0
    outer loop
      vertex -149.934 -110.124 -3
      vertex -149.934 -110.124 0
      vertex -149.971 -109.918 0
    endloop
  endfacet
  facet normal -0.970981 -0.239158 0
    outer loop
      vertex -149.884 -110.327 -3
      vertex -149.934 -110.124 0
      vertex -149.934 -110.124 -3
    endloop
  endfacet
  facet normal -0.970981 -0.239158 0
    outer loop
      vertex -149.884 -110.327 -3
      vertex -149.884 -110.327 0
      vertex -149.934 -110.124 0
    endloop
  endfacet
  facet normal -0.950577 -0.31049 0
    outer loop
      vertex -149.819 -110.526 -3
      vertex -149.884 -110.327 0
      vertex -149.884 -110.327 -3
    endloop
  endfacet
  facet normal -0.950577 -0.31049 0
    outer loop
      vertex -149.819 -110.526 -3
      vertex -149.819 -110.526 0
      vertex -149.884 -110.327 0
    endloop
  endfacet
  facet normal -0.927816 -0.373039 0
    outer loop
      vertex -149.741 -110.72 -3
      vertex -149.819 -110.526 0
      vertex -149.819 -110.526 -3
    endloop
  endfacet
  facet normal -0.927816 -0.373039 0
    outer loop
      vertex -149.741 -110.72 -3
      vertex -149.741 -110.72 0
      vertex -149.819 -110.526 0
    endloop
  endfacet
  facet normal -0.898217 -0.439553 0
    outer loop
      vertex -149.649 -110.908 -3
      vertex -149.741 -110.72 0
      vertex -149.741 -110.72 -3
    endloop
  endfacet
  facet normal -0.898217 -0.439553 0
    outer loop
      vertex -149.649 -110.908 -3
      vertex -149.649 -110.908 0
      vertex -149.741 -110.72 0
    endloop
  endfacet
  facet normal -0.866186 -0.499722 0
    outer loop
      vertex -149.544 -111.09 -3
      vertex -149.649 -110.908 0
      vertex -149.649 -110.908 -3
    endloop
  endfacet
  facet normal -0.866186 -0.499722 0
    outer loop
      vertex -149.544 -111.09 -3
      vertex -149.544 -111.09 0
      vertex -149.649 -110.908 0
    endloop
  endfacet
  facet normal -0.828349 -0.560213 0
    outer loop
      vertex -149.427 -111.263 -3
      vertex -149.544 -111.09 0
      vertex -149.544 -111.09 -3
    endloop
  endfacet
  facet normal -0.828349 -0.560213 0
    outer loop
      vertex -149.427 -111.263 -3
      vertex -149.427 -111.263 0
      vertex -149.544 -111.09 0
    endloop
  endfacet
  facet normal -0.787807 -0.615922 0
    outer loop
      vertex -149.298 -111.428 -3
      vertex -149.427 -111.263 0
      vertex -149.427 -111.263 -3
    endloop
  endfacet
  facet normal -0.787807 -0.615922 0
    outer loop
      vertex -149.298 -111.428 -3
      vertex -149.298 -111.428 0
      vertex -149.427 -111.263 0
    endloop
  endfacet
  facet normal -0.744242 -0.66791 0
    outer loop
      vertex -149.158 -111.584 -3
      vertex -149.298 -111.428 0
      vertex -149.298 -111.428 -3
    endloop
  endfacet
  facet normal -0.744242 -0.66791 0
    outer loop
      vertex -149.158 -111.584 -3
      vertex -149.158 -111.584 0
      vertex -149.298 -111.428 0
    endloop
  endfacet
  facet normal -0.692631 -0.721292 0
    outer loop
      vertex -149.007 -111.729 -3
      vertex -149.158 -111.584 0
      vertex -149.158 -111.584 -3
    endloop
  endfacet
  facet normal -0.692631 -0.721292 0
    outer loop
      vertex -149.007 -111.729 -3
      vertex -149.007 -111.729 0
      vertex -149.158 -111.584 0
    endloop
  endfacet
  facet normal -0.644871 -0.764291 0
    outer loop
      vertex -148.847 -111.864 -3
      vertex -149.007 -111.729 0
      vertex -149.007 -111.729 -3
    endloop
  endfacet
  facet normal -0.644871 -0.764291 0
    outer loop
      vertex -148.847 -111.864 -3
      vertex -148.847 -111.864 0
      vertex -149.007 -111.729 0
    endloop
  endfacet
  facet normal -0.588456 -0.808529 0
    outer loop
      vertex -148.678 -111.987 -3
      vertex -148.847 -111.864 0
      vertex -148.847 -111.864 -3
    endloop
  endfacet
  facet normal -0.588456 -0.808529 0
    outer loop
      vertex -148.678 -111.987 -3
      vertex -148.678 -111.987 0
      vertex -148.847 -111.864 0
    endloop
  endfacet
  facet normal -0.529142 -0.848533 0
    outer loop
      vertex -148.5 -112.098 -3
      vertex -148.678 -111.987 0
      vertex -148.678 -111.987 -3
    endloop
  endfacet
  facet normal -0.529142 -0.848533 0
    outer loop
      vertex -148.5 -112.098 -3
      vertex -148.5 -112.098 0
      vertex -148.678 -111.987 0
    endloop
  endfacet
  facet normal -0.468107 -0.883672 0
    outer loop
      vertex -148.315 -112.196 -3
      vertex -148.5 -112.098 0
      vertex -148.5 -112.098 -3
    endloop
  endfacet
  facet normal -0.468107 -0.883672 0
    outer loop
      vertex -148.315 -112.196 -3
      vertex -148.315 -112.196 0
      vertex -148.5 -112.098 0
    endloop
  endfacet
  facet normal -0.410563 -0.911832 0
    outer loop
      vertex -148.124 -112.282 -3
      vertex -148.315 -112.196 0
      vertex -148.315 -112.196 -3
    endloop
  endfacet
  facet normal -0.410563 -0.911832 0
    outer loop
      vertex -148.124 -112.282 -3
      vertex -148.124 -112.282 0
      vertex -148.315 -112.196 0
    endloop
  endfacet
  facet normal -0.339058 -0.940766 0
    outer loop
      vertex -147.927 -112.353 -3
      vertex -148.124 -112.282 0
      vertex -148.124 -112.282 -3
    endloop
  endfacet
  facet normal -0.339058 -0.940766 0
    outer loop
      vertex -147.927 -112.353 -3
      vertex -147.927 -112.353 0
      vertex -148.124 -112.282 0
    endloop
  endfacet
  facet normal -0.277246 -0.960799 0
    outer loop
      vertex -147.726 -112.411 -3
      vertex -147.927 -112.353 0
      vertex -147.927 -112.353 -3
    endloop
  endfacet
  facet normal -0.277246 -0.960799 0
    outer loop
      vertex -147.726 -112.411 -3
      vertex -147.726 -112.411 0
      vertex -147.927 -112.353 0
    endloop
  endfacet
  facet normal -0.205289 -0.978701 0
    outer loop
      vertex -147.521 -112.454 -3
      vertex -147.726 -112.411 0
      vertex -147.726 -112.411 -3
    endloop
  endfacet
  facet normal -0.205289 -0.978701 0
    outer loop
      vertex -147.521 -112.454 -3
      vertex -147.521 -112.454 0
      vertex -147.726 -112.411 0
    endloop
  endfacet
  facet normal -0.143429 -0.989661 0
    outer loop
      vertex -147.314 -112.484 -3
      vertex -147.521 -112.454 0
      vertex -147.521 -112.454 -3
    endloop
  endfacet
  facet normal -0.143429 -0.989661 0
    outer loop
      vertex -147.314 -112.484 -3
      vertex -147.314 -112.484 0
      vertex -147.521 -112.454 0
    endloop
  endfacet
  facet normal -0.0668359 -0.997764 0
    outer loop
      vertex -147.105 -112.498 -3
      vertex -147.314 -112.484 0
      vertex -147.314 -112.484 -3
    endloop
  endfacet
  facet normal -0.0668359 -0.997764 0
    outer loop
      vertex -147.105 -112.498 -3
      vertex -147.105 -112.498 0
      vertex -147.314 -112.484 0
    endloop
  endfacet
  facet normal 0 -1 0
    outer loop
      vertex -147.002 -112.498 -3
      vertex -147.105 -112.498 0
      vertex -147.105 -112.498 -3
    endloop
  endfacet
  facet normal 0 -1 0
    outer loop
      vertex -147.002 -112.498 -3
      vertex -147.002 -112.498 0
      vertex -147.105 -112.498 0
    endloop
  endfacet
  facet normal -0.707107 -0.707107 0
    outer loop
      vertex -147 -112.5 -3
      vertex -147.002 -112.498 0
      vertex -147.002 -112.498 -3
    endloop
  endfacet
  facet normal -0.707107 -0.707107 0
    outer loop
      vertex -147 -112.5 -3
      vertex -147 -112.5 0
      vertex -147.002 -112.498 0
    endloop
  endfacet
  facet normal 0 -1 0
    outer loop
      vertex 147 -112.5 -3
      vertex -147 -112.5 0
      vertex -147 -112.5 -3
    endloop
  endfacet
  facet normal 0 -1 0
    outer loop
      vertex 147 -112.5 -3
      vertex 147 -112.5 0
      vertex -147 -112.5 0
    endloop
  endfacet
  facet normal 0.707107 -0.707107 0
    outer loop
      vertex 147.002 -112.498 -3
      vertex 147 -112.5 0
      vertex 147 -112.5 -3
    endloop
  endfacet
  facet normal 0.707107 -0.707107 0
    outer loop
      vertex 147.002 -112.498 -3
      vertex 147.002 -112.498 0
      vertex 147 -112.5 0
    endloop
  endfacet
endsolid OpenSCAD_Model
