<?xml version="1.0" encoding="UTF-8" standalone="no"?>
<svg
   sodipodi:docname="ender2pro.svg"
   inkscape:version="1.1.1 (c3084ef, 2021-09-22)"
   id="svg1883"
   version="1.1"
   viewBox="0 0 165 165"
   height="165mm"
   width="165mm"
   xmlns:inkscape="http://www.inkscape.org/namespaces/inkscape"
   xmlns:sodipodi="http://sodipodi.sourceforge.net/DTD/sodipodi-0.dtd"
   xmlns="http://www.w3.org/2000/svg"
   xmlns:svg="http://www.w3.org/2000/svg"
   xmlns:rdf="http://www.w3.org/1999/02/22-rdf-syntax-ns#"
   xmlns:cc="http://creativecommons.org/ns#"
   xmlns:dc="http://purl.org/dc/elements/1.1/">
  <defs
     id="defs1877">
    <inkscape:path-effect
       effect="powermask"
       id="path-effect10621"
       is_visible="true"
       lpeversion="1"
       uri="#mask-powermask-path-effect10621"
       invert="false"
       hide_mask="false"
       background="true"
       background_color="#ffffffff" />
    <clipPath
       clipPathUnits="userSpaceOnUse"
       id="clipPath5117">
      <rect
         style="fill:none;stroke:#ff0000;stroke-width:0.264583"
         id="rect5119"
         width="130.17416"
         height="67.649559"
         x="82.341125"
         y="10.933263" />
    </clipPath>
    <clipPath
       clipPathUnits="userSpaceOnUse"
       id="clipPath20688">
      <path
         class="fil0"
         d="m 197.15634,295.39432 c 2.9752,-6.47138 4.58554,-13.34438 2.89136,-18.83154 -2.22034,-7.19131 -8.57174,-12.40036 -15.31243,-15.72945 -4.67953,-2.31137 -27.27127,-9.69958 -24.85395,-13.8194 4.03834,-6.8854 -3.76358,-10.52631 -8.39338,-15.48545 -12.34947,-13.22438 -16.80509,-19.32556 -29.32556,-26.89378 -12.07651,-7.30021 -28.452932,-8.42824 -37.680794,-7.78872 24.572844,3.4403 45.829774,15.81545 36.555894,25.79774 -5.06264,5.45056 -15.7967,4.69534 -34.104145,-1.82295 -19.311732,-6.8758 -44.673263,-19.03955 -56.493185,-42.20222 5.177932,27.5418 37.372129,44.31428 60.223232,53.37754 -10.903501,2.82848 -17.326221,4.63324 -29.893805,11.02432 -17.49799,-4.47363 -36.360249,-5.22885 -53.6264977,12.43136 18.0349827,-8.81145 32.0182027,-9.62968 36.8011627,-2.91548 -8.071017,5.86927 -13.725718,10.88131 -18.675537,17.82951 -16.5470361,5.13515 -25.79205255,10.3993 -30.4413274,24.90572 7.1293567,-10.87331 15.6277164,-15.74845 23.2661994,-12.52336 -3.064878,7.33751 -4.541015,15.41944 -4.262119,24.49671 C 6.5946964,313.13324 1.4965279,321.04827 0.14800177,339.92881 4.3828319,324.41536 10.049142,318.40219 15.076378,318.9632 c 0.09347,0.53052 0.188812,1.06394 0.292736,1.60015 1.398086,7.22381 3.552087,13.32739 6.235503,18.95555 -6.213955,6.38738 -9.756565,14.95243 -7.896938,36.89106 0.680318,-15.05143 4.63022,-26.27275 12.930673,-28.23981 4.017217,6.32518 10.385771,16.21047 15.049053,23.67168 3.001193,4.80244 4.401112,12.15335 4.00984,19.87158 H 149.02724 c 7.48523,-40.96719 -50.430813,-54.87959 -65.475413,-68.08697 -6.805284,-5.97447 -11.871317,-18.50654 -9.604275,-27.32579 2.886093,-11.23332 11.351378,-21.62362 21.530757,-25.35673 4.277773,3.73951 6.634311,5.45726 8.267611,10.90331 5.01729,16.73449 7.86124,24.75272 31.10017,38.39011 6.4796,3.80161 13.18779,1.60595 18.99686,0.80772 -3.62964,-0.86312 -6.78485,-1.00652 -10.41579,-1.86875 3.35739,-0.67012 6.01322,-3.73951 6.73954,-5.60926 -4.61077,2.71858 -10.15602,2.23876 -16.63908,-1.43764 3.33473,-0.71312 7.67801,-2.44717 10.1588,-3.78731 -4.78522,0.26571 -11.83379,-0.55442 -14.01871,-2.80078 -1.78982,-1.84016 -3.81959,-4.67154 -4.47065,-7.16351 3.78781,2.30087 8.44321,0.24851 11.60906,-0.008 -5.26143,-0.96923 -14.38899,-5.65796 -16.64706,-9.59538 -4.03672,-7.0344 -6.94378,-13.53839 -7.66358,-20.32658 8.63829,8.42054 17.86699,18.02352 26.03384,25.93574 9.56477,9.26557 21.32692,16.19147 32.57346,17.96152 9.0327,1.42144 11.20024,2.20527 17.54215,9.45298 -3.06536,-10.71431 -11.55416,-11.02932 -15.94519,-12.60437 6.5024,-0.31541 12.9966,0.31641 20.40566,5.04335 -6.95763,-8.82296 -14.29137,-7.97603 -21.64309,-7.88043 -7.59526,0.0994 -18.8472,-3.78921 -27.57979,-12.91937 -8.82237,-9.22537 -16.29667,-16.48648 -24.52303,-29.33085 9.5172,2.70908 18.57439,8.23614 21.56852,18.47953 1.00529,-5.49735 0.0881,-10.6733 -2.75243,-15.53144 5.00888,-0.51052 12.94989,7.90722 20.41562,20.8336 0.0904,-4.60084 0.70113,-8.10704 -1.14651,-14.91643 8.07077,1.34584 12.67596,5.53086 17.22361,14.91643 2.0629,-3.65731 3.07685,-8.03063 -0.3095,-12.97038 9.29391,2.02456 11.50878,9.76358 14.97485,17.2525 0.99538,-4.06262 1.8136,-7.59082 2.5992,-9.45867 2.02028,-0.0631 5.23775,3.20329 5.22109,12.68236 z m -10.96337,-29.54885 c 1.60171,0.80102 4.18018,2.62018 4.56164,5.50606 -1.54438,-1.05533 -2.87138,-0.1348 -5.26289,-2.03996 -2.26593,-1.81235 -2.8008,-3.13059 -3.97646,-3.6362 1.59164,-0.39962 3.63687,-0.35181 4.67771,0.1701 z m -48.3337,-29.50685 c 4.56319,2.29026 5.29211,3.72221 8.41964,9.90028 -4.7265,-3.6831 -7.37206,-0.33461 -10.9315,-3.09139 -3.28794,-2.54657 -5.62125,-6.18947 -9.98399,-7.63102 4.53178,-1.12893 9.53325,-0.66432 12.49575,0.82213 z"
         id="path20690"
         style="stroke-width:1.00001" />
    </clipPath>
    <clipPath
       clipPathUnits="userSpaceOnUse"
       id="clipPath20688-5">
      <path
         class="fil0"
         d="m 197.15634,295.39432 c 2.9752,-6.47138 4.58554,-13.34438 2.89136,-18.83154 -2.22034,-7.19131 -8.57174,-12.40036 -15.31243,-15.72945 -4.67953,-2.31137 -27.27127,-9.69958 -24.85395,-13.8194 4.03834,-6.8854 -3.76358,-10.52631 -8.39338,-15.48545 -12.34947,-13.22438 -16.80509,-19.32556 -29.32556,-26.89378 -12.07651,-7.30021 -28.452932,-8.42824 -37.680794,-7.78872 24.572844,3.4403 45.829774,15.81545 36.555894,25.79774 -5.06264,5.45056 -15.7967,4.69534 -34.104145,-1.82295 -19.311732,-6.8758 -44.673263,-19.03955 -56.493185,-42.20222 5.177932,27.5418 37.372129,44.31428 60.223232,53.37754 -10.903501,2.82848 -17.326221,4.63324 -29.893805,11.02432 -17.49799,-4.47363 -36.360249,-5.22885 -53.6264977,12.43136 18.0349827,-8.81145 32.0182027,-9.62968 36.8011627,-2.91548 -8.071017,5.86927 -13.725718,10.88131 -18.675537,17.82951 -16.5470361,5.13515 -25.79205255,10.3993 -30.4413274,24.90572 7.1293567,-10.87331 15.6277164,-15.74845 23.2661994,-12.52336 -3.064878,7.33751 -4.541015,15.41944 -4.262119,24.49671 C 6.5946964,313.13324 1.4965279,321.04827 0.14800177,339.92881 4.3828319,324.41536 10.049142,318.40219 15.076378,318.9632 c 0.09347,0.53052 0.188812,1.06394 0.292736,1.60015 1.398086,7.22381 3.552087,13.32739 6.235503,18.95555 -6.213955,6.38738 -9.756565,14.95243 -7.896938,36.89106 0.680318,-15.05143 4.63022,-26.27275 12.930673,-28.23981 4.017217,6.32518 10.385771,16.21047 15.049053,23.67168 3.001193,4.80244 4.401112,12.15335 4.00984,19.87158 H 149.02724 c 7.48523,-40.96719 -50.430813,-54.87959 -65.475413,-68.08697 -6.805284,-5.97447 -11.871317,-18.50654 -9.604275,-27.32579 2.886093,-11.23332 11.351378,-21.62362 21.530757,-25.35673 4.277773,3.73951 6.634311,5.45726 8.267611,10.90331 5.01729,16.73449 7.86124,24.75272 31.10017,38.39011 6.4796,3.80161 13.18779,1.60595 18.99686,0.80772 -3.62964,-0.86312 -6.78485,-1.00652 -10.41579,-1.86875 3.35739,-0.67012 6.01322,-3.73951 6.73954,-5.60926 -4.61077,2.71858 -10.15602,2.23876 -16.63908,-1.43764 3.33473,-0.71312 7.67801,-2.44717 10.1588,-3.78731 -4.78522,0.26571 -11.83379,-0.55442 -14.01871,-2.80078 -1.78982,-1.84016 -3.81959,-4.67154 -4.47065,-7.16351 3.78781,2.30087 8.44321,0.24851 11.60906,-0.008 -5.26143,-0.96923 -14.38899,-5.65796 -16.64706,-9.59538 -4.03672,-7.0344 -6.94378,-13.53839 -7.66358,-20.32658 8.63829,8.42054 17.86699,18.02352 26.03384,25.93574 9.56477,9.26557 21.32692,16.19147 32.57346,17.96152 9.0327,1.42144 11.20024,2.20527 17.54215,9.45298 -3.06536,-10.71431 -11.55416,-11.02932 -15.94519,-12.60437 6.5024,-0.31541 12.9966,0.31641 20.40566,5.04335 -6.95763,-8.82296 -14.29137,-7.97603 -21.64309,-7.88043 -7.59526,0.0994 -18.8472,-3.78921 -27.57979,-12.91937 -8.82237,-9.22537 -16.29667,-16.48648 -24.52303,-29.33085 9.5172,2.70908 18.57439,8.23614 21.56852,18.47953 1.00529,-5.49735 0.0881,-10.6733 -2.75243,-15.53144 5.00888,-0.51052 12.94989,7.90722 20.41562,20.8336 0.0904,-4.60084 0.70113,-8.10704 -1.14651,-14.91643 8.07077,1.34584 12.67596,5.53086 17.22361,14.91643 2.0629,-3.65731 3.07685,-8.03063 -0.3095,-12.97038 9.29391,2.02456 11.50878,9.76358 14.97485,17.2525 0.99538,-4.06262 1.8136,-7.59082 2.5992,-9.45867 2.02028,-0.0631 5.23775,3.20329 5.22109,12.68236 z m -10.96337,-29.54885 c 1.60171,0.80102 4.18018,2.62018 4.56164,5.50606 -1.54438,-1.05533 -2.87138,-0.1348 -5.26289,-2.03996 -2.26593,-1.81235 -2.8008,-3.13059 -3.97646,-3.6362 1.59164,-0.39962 3.63687,-0.35181 4.67771,0.1701 z m -48.3337,-29.50685 c 4.56319,2.29026 5.29211,3.72221 8.41964,9.90028 -4.7265,-3.6831 -7.37206,-0.33461 -10.9315,-3.09139 -3.28794,-2.54657 -5.62125,-6.18947 -9.98399,-7.63102 4.53178,-1.12893 9.53325,-0.66432 12.49575,0.82213 z"
         id="path20690-8"
         style="stroke-width:1.00001" />
    </clipPath>
    <clipPath
       clipPathUnits="userSpaceOnUse"
       id="clipPath23072">
      <rect
         style="fill:none;stroke:#ffffff;stroke-width:0.805163"
         id="rect23074"
         width="208.97418"
         height="164.65826"
         x="-3.9334209"
         y="176.14117" />
    </clipPath>
    <clipPath
       clipPathUnits="userSpaceOnUse"
       id="clipPath895">
      <rect
         style="opacity:0.5;fill:#ffaaaa;fill-rule:evenodd"
         id="rect897"
         width="221.60664"
         height="162.60388"
         x="-0.27700832"
         y="0.83102494" />
    </clipPath>
    <filter
       id="mask-powermask-path-effect9986_inverse"
       inkscape:label="filtermask-powermask-path-effect9986"
       style="color-interpolation-filters:sRGB"
       height="100"
       width="100"
       x="-50"
       y="-50">
      <feColorMatrix
         id="mask-powermask-path-effect9986_primitive1"
         values="1"
         type="saturate"
         result="fbSourceGraphic" />
      <feColorMatrix
         id="mask-powermask-path-effect9986_primitive2"
         values="-1 0 0 0 1 0 -1 0 0 1 0 0 -1 0 1 0 0 0 1 0 "
         in="fbSourceGraphic" />
    </filter>
    <filter
       id="mask-powermask-path-effect10018_inverse"
       inkscape:label="filtermask-powermask-path-effect10018"
       style="color-interpolation-filters:sRGB"
       height="100"
       width="100"
       x="-50"
       y="-50">
      <feColorMatrix
         id="mask-powermask-path-effect10018_primitive1"
         values="1"
         type="saturate"
         result="fbSourceGraphic" />
      <feColorMatrix
         id="mask-powermask-path-effect10018_primitive2"
         values="-1 0 0 0 1 0 -1 0 0 1 0 0 -1 0 1 0 0 0 1 0 "
         in="fbSourceGraphic" />
    </filter>
    <filter
       id="filter11064"
       inkscape:label="filtermask-powermask-path-effect10018"
       style="color-interpolation-filters:sRGB"
       height="100"
       width="100"
       x="-50"
       y="-50">
      <feColorMatrix
         id="feColorMatrix11060"
         values="1"
         type="saturate"
         result="fbSourceGraphic" />
      <feColorMatrix
         id="feColorMatrix11062"
         values="-1 0 0 0 1 0 -1 0 0 1 0 0 -1 0 1 0 0 0 1 0 "
         in="fbSourceGraphic" />
    </filter>
    <mask
       maskUnits="userSpaceOnUse"
       id="mask-powermask-path-effect10621">
      <path
         id="mask-powermask-path-effect10621_box"
         style="fill:#ffffff;fill-opacity:1"
         d="m 104.23039,182.58066 h 57.48739 v 12.39121 h -57.48739 z" />
      <text
         xml:space="preserve"
         style="font-style:normal;font-weight:normal;font-size:8.81944px;line-height:0.85;font-family:sans-serif;letter-spacing:0px;word-spacing:0px;display:inline;fill:#000000;fill-opacity:1;stroke:none;stroke-width:0.264583"
         x="106.05002"
         y="192.01009"
         id="text10619"><tspan
           sodipodi:role="line"
           id="tspan10617"
           style="font-style:normal;font-variant:normal;font-weight:normal;font-stretch:normal;font-size:8.81944px;font-family:'Blippo Black';-inkscape-font-specification:'Blippo Black, ';fill:#000000;stroke:none;stroke-width:0.264583"
           x="106.05002"
           y="192.01009">ENDER 2 PRO</tspan></text>
    </mask>
    <filter
       id="mask-powermask-path-effect10621_inverse"
       inkscape:label="filtermask-powermask-path-effect10621"
       style="color-interpolation-filters:sRGB"
       height="100"
       width="100"
       x="-50"
       y="-50">
      <feColorMatrix
         id="mask-powermask-path-effect10621_primitive1"
         values="1"
         type="saturate"
         result="fbSourceGraphic" />
      <feColorMatrix
         id="mask-powermask-path-effect10621_primitive2"
         values="-1 0 0 0 1 0 -1 0 0 1 0 0 -1 0 1 0 0 0 1 0 "
         in="fbSourceGraphic" />
    </filter>
  </defs>
  <sodipodi:namedview
     inkscape:snap-page="false"
     inkscape:window-maximized="0"
     inkscape:window-y="138"
     inkscape:window-x="1571"
     inkscape:window-height="2107"
     inkscape:window-width="1920"
     borderlayer="false"
     showgrid="false"
     inkscape:document-rotation="0"
     inkscape:current-layer="layer5"
     inkscape:document-units="mm"
     inkscape:cy="506.375"
     inkscape:cx="501.625"
     inkscape:zoom="4"
     inkscape:pageshadow="2"
     inkscape:pageopacity="0"
     borderopacity="1"
     bordercolor="#f14bac"
     pagecolor="#5d5d5d"
     id="base"
     inkscape:pagecheckerboard="0"
     showguides="false"
     width="165mm">
    <inkscape:grid
       id="grid2446"
       type="xygrid" />
  </sodipodi:namedview>
  <metadata
     id="metadata1880">
    <rdf:RDF>
      <cc:Work
         rdf:about="">
        <dc:format>image/svg+xml</dc:format>
        <dc:type
           rdf:resource="http://purl.org/dc/dcmitype/StillImage" />
      </cc:Work>
    </rdf:RDF>
  </metadata>
  <g
     id="layer1"
     inkscape:groupmode="layer"
     inkscape:label="Layer 1"
     style="display:inline">
    <path
       id="path2645"
       d="M 75.530508,0.39234999 V 164.60765"
       style="fill:none;stroke:#ffffff;stroke-width:0.7847;stroke-linecap:round;stroke-linejoin:round;stroke-miterlimit:4;stroke-dasharray:none;stroke-opacity:1" />
    <path
       id="path2647"
       d="M 0.57866092,89.528573 H 164.60785"
       style="fill:none;stroke:#ffffff;stroke-width:0.784304;stroke-linecap:round;stroke-linejoin:round;stroke-miterlimit:4;stroke-dasharray:none;stroke-opacity:1" />
    <path
       id="path2649"
       d="M 25.534746,0.31386444 V 164.52916"
       style="fill:none;stroke:#ffffff;stroke-width:0.523133;stroke-linecap:round;stroke-linejoin:round;stroke-miterlimit:4;stroke-dasharray:none;stroke-opacity:1" />
    <path
       id="path2651"
       d="M 50.532626,0.31386444 V 164.52916"
       style="fill:none;stroke:#ffffff;stroke-width:0.523133;stroke-linecap:round;stroke-linejoin:round;stroke-miterlimit:4;stroke-dasharray:none;stroke-opacity:1" />
    <path
       id="path2653"
       d="M 100.52839,0.26156649 V 164.47687"
       style="fill:none;stroke:#ffffff;stroke-width:0.523133;stroke-linecap:round;stroke-linejoin:round;stroke-miterlimit:4;stroke-dasharray:none;stroke-opacity:1" />
    <path
       id="path2655"
       d="M 125.52609,0.52063839 V 144.99223"
       style="fill:none;stroke:#ffffff;stroke-width:0.527077;stroke-linecap:round;stroke-linejoin:round;stroke-miterlimit:4;stroke-dasharray:none;stroke-opacity:1"
       sodipodi:nodetypes="cc" />
    <path
       id="path2655-8"
       d="M 150.7928,0.52014583 V 144.99409"
       style="display:inline;fill:none;stroke:#ffffff;stroke-width:0.527082;stroke-linecap:round;stroke-linejoin:round;stroke-miterlimit:4;stroke-dasharray:none;stroke-opacity:1"
       sodipodi:nodetypes="cc" />
    <path
       style="fill:none;stroke:#ffffff;stroke-width:0.523466;stroke-linecap:round;stroke-linejoin:round;stroke-miterlimit:4;stroke-dasharray:none;stroke-opacity:1"
       d="M 164.73831,39.528774 H 0.261733"
       id="path2649-5" />
    <path
       style="display:inline;fill:none;stroke:#ffffff;stroke-width:0.523462;stroke-linecap:round;stroke-linejoin:round;stroke-miterlimit:4;stroke-dasharray:none;stroke-opacity:1"
       d="M 164.73827,14.262058 H 0.26133672"
       id="path2649-5-3" />
    <path
       style="fill:none;stroke:#ffffff;stroke-width:0.523253;stroke-linecap:round;stroke-linejoin:round;stroke-miterlimit:4;stroke-dasharray:none;stroke-opacity:1"
       d="M 164.5362,64.528964 H 0.26162651"
       id="path2651-4" />
    <path
       style="fill:none;stroke:#ffffff;stroke-width:0.523578;stroke-linecap:round;stroke-linejoin:round;stroke-miterlimit:4;stroke-dasharray:none;stroke-opacity:1"
       d="M 164.73824,114.52879 H 0.26178899"
       id="path2653-9" />
    <path
       style="fill:none;stroke:#ffffff;stroke-width:0.52357;stroke-linecap:round;stroke-linejoin:round;stroke-miterlimit:4;stroke-dasharray:none;stroke-opacity:1"
       d="M 164.73803,139.52917 H 0.261785"
       id="path2655-5" />
    <path
       id="path2681"
       d="M 5.9196883,0 V 164"
       style="fill:none;stroke:#fdfdfd;stroke-width:0.260946;stroke-linecap:butt;stroke-linejoin:miter;stroke-miterlimit:4;stroke-dasharray:0.521894, 0.260946;stroke-dashoffset:0;stroke-opacity:1" />
    <path
       id="path2683"
       d="M 10.520369,165.03963 V 0"
       style="fill:none;stroke:#fdfdfd;stroke-width:0.261772;stroke-linecap:butt;stroke-linejoin:miter;stroke-miterlimit:4;stroke-dasharray:0.523545, 0.261772;stroke-dashoffset:0;stroke-opacity:1" />
    <path
       id="path2685"
       d="M 15.538016,0 V 165"
       style="fill:none;stroke:#fdfdfd;stroke-width:0.261741;stroke-linecap:butt;stroke-linejoin:miter;stroke-miterlimit:4;stroke-dasharray:0.523482, 0.261741;stroke-dashoffset:0;stroke-opacity:1" />
    <path
       id="path2687"
       d="M 20.5613,164.71099 V 0.28900659"
       style="fill:none;stroke:#fdfdfd;stroke-width:0.261272;stroke-linecap:butt;stroke-linejoin:miter;stroke-miterlimit:4;stroke-dasharray:0.522543, 0.261272;stroke-dashoffset:0;stroke-opacity:1" />
    <path
       style="fill:none;stroke:#fdfdfd;stroke-width:0.261725;stroke-linecap:butt;stroke-linejoin:miter;stroke-miterlimit:4;stroke-dasharray:0.523448, 0.261725;stroke-dashoffset:0;stroke-opacity:1"
       d="M 30.516646,0 V 165"
       id="path2681-2" />
    <path
       style="fill:none;stroke:#fdfdfd;stroke-width:0.261725;stroke-linecap:butt;stroke-linejoin:miter;stroke-miterlimit:4;stroke-dasharray:0.523448, 0.261725;stroke-dashoffset:0;stroke-opacity:1"
       d="M 35.533664,165 V 0"
       id="path2683-1" />
    <path
       style="fill:none;stroke:#fdfdfd;stroke-width:0.261725;stroke-linecap:butt;stroke-linejoin:miter;stroke-miterlimit:4;stroke-dasharray:0.523448, 0.261725;stroke-dashoffset:0;stroke-opacity:1"
       d="M 40.550681,0 V 165"
       id="path2685-5" />
    <path
       style="fill:none;stroke:#fdfdfd;stroke-width:0.261272;stroke-linecap:butt;stroke-linejoin:miter;stroke-miterlimit:4;stroke-dasharray:0.522542, 0.261272;stroke-dashoffset:0;stroke-opacity:1"
       d="M 45.568153,164.42199 V 0"
       id="path2687-4" />
    <path
       style="fill:none;stroke:#fdfdfd;stroke-width:0.261272;stroke-linecap:butt;stroke-linejoin:miter;stroke-miterlimit:4;stroke-dasharray:0.522542, 0.261272;stroke-dashoffset:0;stroke-opacity:1"
       d="M 55.496817,0.5780088 V 165"
       id="path2681-9" />
    <path
       style="fill:none;stroke:#fdfdfd;stroke-width:0.261272;stroke-linecap:butt;stroke-linejoin:miter;stroke-miterlimit:4;stroke-dasharray:0.522542, 0.261272;stroke-dashoffset:0;stroke-opacity:1"
       d="M 60.514061,165 V 0.5780088"
       id="path2683-8" />
    <path
       style="fill:none;stroke:#fdfdfd;stroke-width:0.261272;stroke-linecap:butt;stroke-linejoin:miter;stroke-miterlimit:4;stroke-dasharray:0.522542, 0.261272;stroke-dashoffset:0;stroke-opacity:1"
       d="M 65.531304,0.5780088 V 165"
       id="path2685-4" />
    <path
       style="fill:none;stroke:#fdfdfd;stroke-width:0.261272;stroke-linecap:butt;stroke-linejoin:miter;stroke-miterlimit:4;stroke-dasharray:0.522542, 0.261272;stroke-dashoffset:0;stroke-opacity:1"
       d="M 70.548551,165 V 0.5780088"
       id="path2687-7" />
    <path
       style="fill:none;stroke:#fdfdfd;stroke-width:0.261272;stroke-linecap:butt;stroke-linejoin:miter;stroke-miterlimit:4;stroke-dasharray:0.522542, 0.261272;stroke-dashoffset:0;stroke-opacity:1"
       d="M 80.530126,0 V 164.42199"
       id="path2681-3" />
    <path
       style="fill:none;stroke:#fdfdfd;stroke-width:0.261272;stroke-linecap:butt;stroke-linejoin:miter;stroke-miterlimit:4;stroke-dasharray:0.522542, 0.261272;stroke-dashoffset:0;stroke-opacity:1"
       d="M 85.54737,164.42199 V 0"
       id="path2683-6" />
    <path
       style="fill:none;stroke:#fdfdfd;stroke-width:0.261272;stroke-linecap:butt;stroke-linejoin:miter;stroke-miterlimit:4;stroke-dasharray:0.522542, 0.261272;stroke-dashoffset:0;stroke-opacity:1"
       d="M 90.564613,0 V 164.42199"
       id="path2685-3" />
    <path
       style="fill:none;stroke:#fdfdfd;stroke-width:0.261272;stroke-linecap:butt;stroke-linejoin:miter;stroke-miterlimit:4;stroke-dasharray:0.522542, 0.261272;stroke-dashoffset:0;stroke-opacity:1"
       d="M 95.58186,164.42199 V 0"
       id="path2687-44" />
    <path
       style="fill:none;stroke:#fdfdfd;stroke-width:0.245356;stroke-linecap:butt;stroke-linejoin:miter;stroke-miterlimit:4;stroke-dasharray:0.49071, 0.245356;stroke-dashoffset:0;stroke-opacity:1"
       d="M 105.49288,0.26112385 V 145.26113"
       id="path2681-36" />
    <path
       style="fill:none;stroke:#fdfdfd;stroke-width:0.263627;stroke-linecap:butt;stroke-linejoin:miter;stroke-miterlimit:4;stroke-dasharray:0.527255, 0.263627;stroke-dashoffset:0;stroke-opacity:1"
       d="M 110.52826,144.83663 110.51066,0.26112518"
       id="path2683-5"
       sodipodi:nodetypes="cc" />
    <path
       style="fill:none;stroke:#fdfdfd;stroke-width:0.263785;stroke-linecap:butt;stroke-linejoin:miter;stroke-miterlimit:4;stroke-dasharray:0.527567, 0.263785;stroke-dashoffset:0;stroke-opacity:1"
       d="M 115.52738,0.26109458 V 145.00611"
       id="path2685-7"
       sodipodi:nodetypes="cc" />
    <path
       style="fill:none;stroke:#fdfdfd;stroke-width:0.262791;stroke-linecap:butt;stroke-linejoin:miter;stroke-miterlimit:4;stroke-dasharray:0.52558, 0.262791;stroke-dashoffset:0;stroke-opacity:1"
       d="M 120.52681,145.22906 120.54421,0.26109342"
       id="path2687-48"
       sodipodi:nodetypes="cc" />
    <path
       style="fill:none;stroke:#fdfdfd;stroke-width:0.263754;stroke-linecap:butt;stroke-linejoin:miter;stroke-miterlimit:4;stroke-dasharray:0.527507, 0.263754;stroke-dashoffset:0;stroke-opacity:1"
       d="M 130.49069,0.26094092 130.52589,145.12762"
       id="path2681-0"
       sodipodi:nodetypes="cc" />
    <path
       style="fill:none;stroke:#fdfdfd;stroke-width:0.263991;stroke-linecap:butt;stroke-linejoin:miter;stroke-miterlimit:4;stroke-dasharray:0.527981, 0.263991;stroke-dashoffset:0;stroke-opacity:1"
       d="M 135.52576,145.22909 V 0.26109341"
       id="path2683-0"
       sodipodi:nodetypes="cc" />
    <path
       style="fill:none;stroke:#fdfdfd;stroke-width:0.245759;stroke-linecap:butt;stroke-linejoin:miter;stroke-miterlimit:4;stroke-dasharray:0.491516, 0.245759;stroke-dashoffset:0;stroke-opacity:1"
       d="M 140.52496,0.26109458 V 145.2289"
       id="path2685-2"
       sodipodi:nodetypes="cc" />
    <path
       style="fill:none;stroke:#fdfdfd;stroke-width:0.2449;stroke-linecap:butt;stroke-linejoin:miter;stroke-miterlimit:4;stroke-dasharray:0.4898, 0.2449;stroke-dashoffset:0;stroke-opacity:1"
       d="M 145.54274,144.72125 V 0.26109341"
       id="path2687-47" />
    <path
       style="display:inline;fill:none;stroke:#fdfdfd;stroke-width:0.2449;stroke-linecap:butt;stroke-linejoin:miter;stroke-miterlimit:4;stroke-dasharray:0.4898, 0.2449;stroke-dashoffset:0;stroke-opacity:1"
       d="M 155.64945,144.72125 V 0.26109341"
       id="path2687-47-0" />
    <path
       style="display:inline;fill:none;stroke:#fdfdfd;stroke-width:0.2449;stroke-linecap:butt;stroke-linejoin:miter;stroke-miterlimit:4;stroke-dasharray:0.4898, 0.2449;stroke-dashoffset:0;stroke-opacity:1"
       d="M 160.64912,144.46015 V 0"
       id="path2687-47-0-7" />
    <path
       style="fill:none;stroke:#fdfdfd;stroke-width:0.261731;stroke-linecap:butt;stroke-linejoin:miter;stroke-miterlimit:4;stroke-dasharray:0.523462, 0.261731;stroke-dashoffset:0;stroke-opacity:1"
       d="M 164.73022,19.493669 0.54341598,19.537749"
       id="path2681-39"
       sodipodi:nodetypes="cc" />
    <path
       style="display:inline;fill:none;stroke:#fdfdfd;stroke-width:0.261731;stroke-linecap:butt;stroke-linejoin:miter;stroke-miterlimit:4;stroke-dasharray:0.523462, 0.261731;stroke-dashoffset:0;stroke-opacity:1"
       d="M 164.18725,9.1309306 3.5028807e-5,9.1750102"
       id="path2681-39-3"
       sodipodi:nodetypes="cc" />
    <path
       style="display:inline;fill:none;stroke:#fdfdfd;stroke-width:0.261731;stroke-linecap:butt;stroke-linejoin:miter;stroke-miterlimit:4;stroke-dasharray:0.523462, 0.261731;stroke-dashoffset:0;stroke-opacity:1"
       d="M 164.18725,4.1308657 3.5028712e-5,4.1749463"
       id="path2681-39-3-8"
       sodipodi:nodetypes="cc" />
    <path
       style="fill:none;stroke:#fdfdfd;stroke-width:0.261731;stroke-linecap:butt;stroke-linejoin:miter;stroke-miterlimit:4;stroke-dasharray:0.523462, 0.261731;stroke-dashoffset:0;stroke-opacity:1"
       d="M 0.54341598,24.535667 164.73022,24.50922"
       id="path2683-3"
       sodipodi:nodetypes="cc" />
    <path
       style="fill:none;stroke:#fdfdfd;stroke-width:0.261731;stroke-linecap:butt;stroke-linejoin:miter;stroke-miterlimit:4;stroke-dasharray:0.523462, 0.261731;stroke-dashoffset:0;stroke-opacity:1"
       d="M 164.73022,29.524769 0.54341598,29.533569"
       id="path2685-51"
       sodipodi:nodetypes="cc" />
    <path
       style="fill:none;stroke:#fdfdfd;stroke-width:0.261731;stroke-linecap:butt;stroke-linejoin:miter;stroke-miterlimit:4;stroke-dasharray:0.523462, 0.261731;stroke-dashoffset:0;stroke-opacity:1"
       d="M 0.54341598,34.531506 164.73022,34.540306"
       id="path2687-486"
       sodipodi:nodetypes="cc" />
    <path
       id="path2681-2-1"
       d="M 164.73831,44.526775 H 0.26173001"
       style="fill:none;stroke:#fdfdfd;stroke-width:0.261733;stroke-linecap:butt;stroke-linejoin:miter;stroke-miterlimit:4;stroke-dasharray:0.523466, 0.261733;stroke-dashoffset:0;stroke-opacity:1"
       sodipodi:nodetypes="cc" />
    <path
       id="path2683-1-9"
       d="M 0.26173001,49.524787 164.76699,49.507154"
       style="fill:none;stroke:#fdfdfd;stroke-width:0.261756;stroke-linecap:butt;stroke-linejoin:miter;stroke-miterlimit:4;stroke-dasharray:0.523512, 0.261756;stroke-dashoffset:0;stroke-opacity:1"
       sodipodi:nodetypes="cc" />
    <path
       id="path2685-5-4"
       d="M 164.76699,54.522784 H 0.26173001"
       style="fill:none;stroke:#fdfdfd;stroke-width:0.261756;stroke-linecap:butt;stroke-linejoin:miter;stroke-miterlimit:4;stroke-dasharray:0.523512, 0.261756;stroke-dashoffset:0;stroke-opacity:1"
       sodipodi:nodetypes="cc" />
    <path
       id="path2687-4-9"
       d="M 0.26173001,59.520781 164.76699,59.538412"
       style="fill:none;stroke:#fdfdfd;stroke-width:0.261756;stroke-linecap:butt;stroke-linejoin:miter;stroke-miterlimit:4;stroke-dasharray:0.523512, 0.261756;stroke-dashoffset:0;stroke-opacity:1"
       sodipodi:nodetypes="cc" />
    <path
       id="path2681-9-6"
       d="M 164.99992,69.476511 0.26163051,69.529422"
       style="fill:none;stroke:#fdfdfd;stroke-width:0.262439;stroke-linecap:butt;stroke-linejoin:miter;stroke-miterlimit:4;stroke-dasharray:0.524876, 0.262439;stroke-dashoffset:0;stroke-opacity:1"
       sodipodi:nodetypes="cc" />
    <path
       id="path2683-8-0"
       d="M 0.26163051,74.528715 164.99992,74.493441"
       style="fill:none;stroke:#fdfdfd;stroke-width:0.262439;stroke-linecap:butt;stroke-linejoin:miter;stroke-miterlimit:4;stroke-dasharray:0.524876, 0.262439;stroke-dashoffset:0;stroke-opacity:1"
       sodipodi:nodetypes="cc" />
    <path
       id="path2685-4-7"
       d="M 164.99998,79.511592 0.26163051,79.529133"
       style="fill:none;stroke:#fdfdfd;stroke-width:0.261746;stroke-linecap:butt;stroke-linejoin:miter;stroke-miterlimit:4;stroke-dasharray:0.52349, 0.261746;stroke-dashoffset:0;stroke-opacity:1"
       sodipodi:nodetypes="cc" />
    <path
       id="path2681-3-7"
       d="M 164.60785,94.511131 0.57866092,94.528771"
       style="fill:none;stroke:#fdfdfd;stroke-width:0.261435;stroke-linecap:butt;stroke-linejoin:miter;stroke-miterlimit:4;stroke-dasharray:0.522869, 0.261435;stroke-dashoffset:0;stroke-opacity:1"
       sodipodi:nodetypes="cc" />
    <path
       id="path2683-6-0"
       d="M 0.57825518,99.52892 H 164.49225"
       style="fill:none;stroke:#fdfdfd;stroke-width:0.261344;stroke-linecap:butt;stroke-linejoin:miter;stroke-miterlimit:4;stroke-dasharray:0.522686, 0.261344;stroke-dashoffset:0;stroke-opacity:1"
       sodipodi:nodetypes="cc" />
    <path
       id="path2685-3-3"
       d="M 164.49225,104.54679 H 0"
       style="fill:none;stroke:#fdfdfd;stroke-width:0.261344;stroke-linecap:butt;stroke-linejoin:miter;stroke-miterlimit:4;stroke-dasharray:0.522686, 0.261344;stroke-dashoffset:0;stroke-opacity:1" />
    <path
       id="path2687-44-3"
       d="M 0.57825518,109.52937 164.49225,109.56467"
       style="fill:none;stroke:#fdfdfd;stroke-width:0.261344;stroke-linecap:butt;stroke-linejoin:miter;stroke-miterlimit:4;stroke-dasharray:0.522686, 0.261344;stroke-dashoffset:0;stroke-opacity:1"
       sodipodi:nodetypes="cc" />
    <path
       id="path2681-36-5"
       d="M 164.22371,119.47607 0.26141613,119.52897"
       style="fill:none;stroke:#fdfdfd;stroke-width:0.261843;stroke-linecap:butt;stroke-linejoin:miter;stroke-miterlimit:4;stroke-dasharray:0.523684, 0.261843;stroke-dashoffset:0;stroke-opacity:1"
       sodipodi:nodetypes="cc" />
    <path
       id="path2683-5-1"
       d="M 0.261787,124.52907 164.2922,124.49377"
       style="fill:none;stroke:#fdfdfd;stroke-width:0.261898;stroke-linecap:butt;stroke-linejoin:miter;stroke-miterlimit:4;stroke-dasharray:0.523793, 0.261898;stroke-dashoffset:0;stroke-opacity:1"
       sodipodi:nodetypes="cc" />
    <path
       id="path2685-7-5"
       d="M 164.2922,129.5116 0.261787,129.52924"
       style="fill:none;stroke:#fdfdfd;stroke-width:0.261898;stroke-linecap:butt;stroke-linejoin:miter;stroke-miterlimit:4;stroke-dasharray:0.523793, 0.261898;stroke-dashoffset:0;stroke-opacity:1"
       sodipodi:nodetypes="cc" />
    <path
       id="path2687-48-9"
       d="M 0.261787,134.52941 H 164.76009"
       style="fill:none;stroke:#fdfdfd;stroke-width:0.262271;stroke-linecap:butt;stroke-linejoin:miter;stroke-miterlimit:4;stroke-dasharray:0.52454, 0.262271;stroke-dashoffset:0;stroke-opacity:1"
       sodipodi:nodetypes="cc" />
    <path
       id="path2681-0-8"
       d="M 105.52917,144.52915 H 0.52916996"
       style="fill:none;stroke:#fdfdfd;stroke-width:0.209165;stroke-linecap:butt;stroke-linejoin:miter;stroke-miterlimit:4;stroke-dasharray:0.41833, 0.209165;stroke-dashoffset:0;stroke-opacity:1"
       sodipodi:nodetypes="cc" />
    <path
       id="path2683-0-5"
       d="M 0.52916996,149.52917 H 105.52917"
       style="fill:none;stroke:#fdfdfd;stroke-width:0.25;stroke-linecap:butt;stroke-linejoin:miter;stroke-miterlimit:4;stroke-dasharray:0.499998, 0.25;stroke-dashoffset:0;stroke-opacity:1"
       sodipodi:nodetypes="cc" />
    <path
       id="path2685-2-7"
       d="M 105.52917,154.52919 H 0.52916996"
       style="fill:none;stroke:#fdfdfd;stroke-width:0.209165;stroke-linecap:butt;stroke-linejoin:miter;stroke-miterlimit:4;stroke-dasharray:0.41833, 0.209165;stroke-dashoffset:0;stroke-opacity:1"
       sodipodi:nodetypes="cc" />
    <path
       id="path2687-47-6"
       d="M 0,159.52917 H 165"
       style="fill:none;stroke:#fdfdfd;stroke-width:0.262666;stroke-linecap:butt;stroke-linejoin:miter;stroke-miterlimit:4;stroke-dasharray:0.525331, 0.262666;stroke-dashoffset:0;stroke-opacity:1"
       sodipodi:nodetypes="cc" />
    <g
       transform="matrix(1.0000018,0,0,1,0.57252904,161.62872)"
       style="font-style:normal;font-variant:normal;font-weight:bold;font-stretch:normal;font-size:1.76389px;line-height:1.25;font-family:Consolas;-inkscape-font-specification:'Consolas, Bold';font-variant-ligatures:normal;font-variant-caps:normal;font-variant-numeric:normal;font-variant-east-asian:normal;display:inline;fill:#ffffff;fill-opacity:1;stroke:none;stroke-width:0.264583"
       id="text966-0-4"
       aria-label="125">
      <path
         id="path188"
         d="M 121.63635,2.0732279 V 1.8863313 h 0.2868 V 1.1628608 l -0.24977,0.1378039 -0.0689,-0.1713936 0.35743,-0.18861909 h 0.17656 V 1.8863313 h 0.24718 v 0.1868966 z" />
      <path
         id="path190"
         d="M 122.58805,2.0732279 V 1.9181985 l 0.26614,-0.2661338 q 0.0749,-0.074931 0.11972,-0.1291912 0.0456,-0.05426 0.0698,-0.096463 0.025,-0.043064 0.0327,-0.079237 0.008,-0.036174 0.008,-0.074931 0,-0.031867 -0.0103,-0.060289 -0.0103,-0.029283 -0.0301,-0.049954 -0.0198,-0.021532 -0.05,-0.03359 -0.0301,-0.012919 -0.0689,-0.012919 -0.0663,0 -0.12316,0.029283 -0.0568,0.028422 -0.10766,0.076654 l -0.1111,-0.1429716 q 0.0732,-0.068041 0.1645,-0.10852056 0.0922,-0.0413412 0.19895,-0.0413412 0.0827,0 0.14987,0.0215319 0.0672,0.0206706 0.11455,0.0620118 0.0482,0.041341 0.0741,0.1033529 0.0267,0.062012 0.0267,0.1429716 0,0.067179 -0.0181,0.125746 -0.0181,0.057705 -0.0525,0.112827 -0.0344,0.055122 -0.0853,0.1102431 -0.0499,0.055122 -0.11455,0.1162721 l -0.16364,0.1558906 h 0.47456 v 0.1937868 z" />
      <path
         id="path192"
         d="m 124.31491,1.7132152 q 0,0.090434 -0.0379,0.1610583 -0.0379,0.069763 -0.10507,0.1179946 -0.0672,0.048231 -0.15848,0.073208 -0.0913,0.024977 -0.19809,0.024977 -0.0267,0 -0.0568,-0.00172 -0.0301,-0.00172 -0.0611,-0.00431 -0.031,-0.00258 -0.0603,-0.00689 -0.0293,-0.00345 -0.0543,-0.00775 V 1.8863313 q 0.0491,0.012058 0.11282,0.019809 0.0637,0.00689 0.13006,0.00689 0.12919,0 0.19637,-0.049093 0.068,-0.049954 0.068,-0.1378039 0,-0.091295 -0.0629,-0.1352201 -0.0629,-0.044786 -0.20326,-0.044786 H 123.6035 V 0.94754221 h 0.6494 V 1.1456353 h -0.45303 v 0.229099 h 0.081 q 0.0861,0 0.1645,0.015503 0.0784,0.015503 0.1378,0.05426 0.0603,0.037896 0.0956,0.1033529 0.0362,0.065457 0.0362,0.1653647 z" />
    </g>
    <g
       transform="matrix(1.0000018,0,0,1,0.57252904,161.62872)"
       style="font-style:normal;font-variant:normal;font-weight:bold;font-stretch:normal;font-size:1.76389px;line-height:1.25;font-family:Consolas;-inkscape-font-specification:'Consolas, Bold';font-variant-ligatures:normal;font-variant-caps:normal;font-variant-numeric:normal;font-variant-east-asian:normal;display:inline;fill:#ffffff;fill-opacity:1;stroke:none;stroke-width:0.264583"
       id="text966-0-9"
       aria-label="100">
      <path
         id="path181"
         d="M 96.636346,2.0732279 V 1.8863313 H 96.92315 V 1.1628608 l -0.249769,0.1378039 -0.0689,-0.1713936 0.357429,-0.18861909 h 0.176561 V 1.8863313 h 0.247186 v 0.1868966 z" />
      <path
         id="path183"
         d="m 98.401097,1.505648 q 0,0.1386652 -0.03014,0.2480471 -0.03015,0.1093818 -0.08871,0.185174 -0.0577,0.074931 -0.141249,0.1145495 -0.08354,0.039619 -0.191203,0.039619 -0.09302,0 -0.171393,-0.032728 -0.07838,-0.032729 -0.13522,-0.1024917 -0.05684,-0.070624 -0.08871,-0.1800063 -0.03187,-0.1093819 -0.03187,-0.2618275 0,-0.1386652 0.03014,-0.248047 0.03101,-0.1093819 0.08871,-0.1843127 0.0577,-0.075792 0.14211,-0.11541081 0.08441,-0.0396186 0.191203,-0.0396186 0.09302,0 0.171394,0.0327284 0.07838,0.0327284 0.134359,0.10249171 0.05684,0.069763 0.08871,0.179145 0.03187,0.1093819 0.03187,0.2626887 z m -0.666626,0.00345 q 0,0.017225 0,0.032728 0,0.014642 0.0017,0.030145 l 0.422047,-0.304896 q -0.03015,-0.085266 -0.0801,-0.125746 -0.04909,-0.041341 -0.116272,-0.041341 -0.04823,0 -0.08957,0.024977 -0.04134,0.024116 -0.07235,0.074931 -0.03014,0.050815 -0.04823,0.1274686 -0.01722,0.076653 -0.01722,0.1817289 z m 0.454753,0.00345 q 0,-0.014642 -8.62e-4,-0.029283 -8.61e-4,-0.015503 -8.61e-4,-0.029283 L 97.76806,1.7571402 q 0.02756,0.083544 0.07751,0.1240235 0.04995,0.04048 0.116272,0.04048 0.04823,0 0.08957,-0.024977 0.0422,-0.024977 0.07235,-0.074931 0.03101,-0.050815 0.04823,-0.1274686 0.01723,-0.077515 0.01723,-0.1817289 z" />
      <path
         id="path185"
         d="m 99.372615,1.505648 q 0,0.1386652 -0.03014,0.2480471 -0.03014,0.1093818 -0.08871,0.185174 -0.05771,0.074931 -0.141249,0.1145495 -0.08354,0.039619 -0.191203,0.039619 -0.09302,0 -0.171394,-0.032728 -0.07838,-0.032729 -0.13522,-0.1024917 -0.05684,-0.070624 -0.08871,-0.1800063 -0.03187,-0.1093819 -0.03187,-0.2618275 0,-0.1386652 0.03014,-0.248047 0.03101,-0.1093819 0.08871,-0.1843127 0.0577,-0.075792 0.14211,-0.11541081 0.0844,-0.0396186 0.191203,-0.0396186 0.09302,0 0.171393,0.0327284 0.07838,0.0327284 0.134359,0.10249171 0.05684,0.069763 0.08871,0.179145 0.03187,0.1093819 0.03187,0.2626887 z m -0.666627,0.00345 q 0,0.017225 0,0.032728 0,0.014642 0.0017,0.030145 l 0.422047,-0.304896 q -0.03014,-0.085266 -0.0801,-0.125746 -0.04909,-0.041341 -0.116272,-0.041341 -0.04823,0 -0.08957,0.024977 -0.04134,0.024116 -0.07235,0.074931 -0.03014,0.050815 -0.04823,0.1274686 -0.01723,0.076653 -0.01723,0.1817289 z m 0.454753,0.00345 q 0,-0.014642 -8.61e-4,-0.029283 -8.61e-4,-0.015503 -8.61e-4,-0.029283 l -0.419441,0.3031686 q 0.02756,0.083544 0.07752,0.1240235 0.04995,0.04048 0.116272,0.04048 0.04823,0 0.08957,-0.024977 0.0422,-0.024977 0.07235,-0.074931 0.03101,-0.050815 0.04823,-0.1274686 0.01722,-0.077515 0.01722,-0.1817289 z" />
    </g>
    <g
       transform="matrix(1.0000018,0,0,1,0.57252904,161.62872)"
       style="font-style:normal;font-variant:normal;font-weight:bold;font-stretch:normal;font-size:1.76389px;line-height:1.25;font-family:Consolas;-inkscape-font-specification:'Consolas, Bold';font-variant-ligatures:normal;font-variant-caps:normal;font-variant-numeric:normal;font-variant-east-asian:normal;display:inline;fill:#ffffff;fill-opacity:1;stroke:none;stroke-width:0.264583"
       id="text966-0-99"
       aria-label="25">
      <path
         id="path166"
         style="stroke-width:0.264583"
         d="M 22.616538,2.0732279 V 1.9181985 l 0.266134,-0.2661338 q 0.07493,-0.074931 0.119717,-0.1291912 0.04565,-0.05426 0.06976,-0.096463 0.02498,-0.043064 0.03273,-0.079237 0.0078,-0.036174 0.0078,-0.074931 0,-0.031867 -0.01034,-0.060289 -0.01034,-0.029283 -0.03014,-0.049954 -0.01981,-0.021532 -0.04995,-0.03359 -0.03015,-0.012919 -0.0689,-0.012919 -0.06632,0 -0.123163,0.029283 -0.05684,0.028422 -0.107659,0.076654 L 22.611371,1.0784559 q 0.07321,-0.068041 0.164503,-0.10852056 0.09216,-0.0413412 0.198955,-0.0413412 0.08268,0 0.149861,0.0215319 0.06718,0.0206706 0.11455,0.0620118 0.04823,0.041341 0.07407,0.1033529 0.0267,0.062012 0.0267,0.1429716 0,0.067179 -0.01809,0.125746 -0.01809,0.057705 -0.05254,0.112827 -0.03445,0.055122 -0.08527,0.1102431 -0.04995,0.055122 -0.114549,0.1162721 l -0.163642,0.1558906 h 0.474562 v 0.1937868 z" />
      <path
         id="path168"
         style="stroke-width:0.264583"
         d="m 24.343394,1.7132152 q 0,0.090434 -0.0379,0.1610583 -0.0379,0.069763 -0.105076,0.1179946 -0.06718,0.048231 -0.158474,0.073208 -0.0913,0.024977 -0.198093,0.024977 -0.0267,0 -0.05685,-0.00172 -0.03014,-0.00172 -0.06115,-0.00431 -0.03101,-0.00258 -0.06029,-0.00689 -0.02928,-0.00345 -0.05426,-0.00775 V 1.8863313 q 0.04909,0.012058 0.112827,0.019809 0.06374,0.00689 0.130053,0.00689 0.129191,0 0.19637,-0.049093 0.06804,-0.049954 0.06804,-0.1378039 0,-0.091295 -0.06287,-0.1352201 -0.06287,-0.044786 -0.203261,-0.044786 H 23.631981 V 0.94754221 h 0.649401 V 1.1456353 h -0.45303 v 0.229099 h 0.08096 q 0.08613,0 0.164504,0.015503 0.07838,0.015503 0.137804,0.05426 0.06029,0.037896 0.0956,0.1033529 0.03617,0.065457 0.03617,0.1653647 z" />
    </g>
    <g
       transform="matrix(1.0000018,0,0,1,0.57252904,161.62872)"
       style="font-style:normal;font-variant:normal;font-weight:bold;font-stretch:normal;font-size:1.76389px;line-height:1.25;font-family:Consolas;-inkscape-font-specification:'Consolas, Bold';font-variant-ligatures:normal;font-variant-caps:normal;font-variant-numeric:normal;font-variant-east-asian:normal;display:inline;fill:#ffffff;fill-opacity:1;stroke:none;stroke-width:0.264583"
       id="text966-0-3"
       aria-label="50">
      <path
         id="path171"
         style="stroke-width:0.264583"
         d="m 48.371874,1.7132152 q 0,0.090434 -0.0379,0.1610583 -0.0379,0.069763 -0.105075,0.1179946 -0.06718,0.048231 -0.158475,0.073208 -0.0913,0.024977 -0.198093,0.024977 -0.0267,0 -0.05684,-0.00172 -0.03015,-0.00172 -0.06115,-0.00431 -0.03101,-0.00258 -0.06029,-0.00689 -0.02928,-0.00345 -0.05426,-0.00775 V 1.8863313 q 0.04909,0.012058 0.112827,0.019809 0.06373,0.00689 0.130052,0.00689 0.129191,0 0.196371,-0.049093 0.06804,-0.049954 0.06804,-0.1378039 0,-0.091295 -0.06287,-0.1352201 -0.06287,-0.044786 -0.203261,-0.044786 H 47.660462 V 0.94754221 h 0.6494 V 1.1456353 h -0.45303 v 0.229099 h 0.08096 q 0.08613,0 0.164503,0.015503 0.07838,0.015503 0.137804,0.05426 0.06029,0.037896 0.0956,0.1033529 0.03617,0.065457 0.03617,0.1653647 z" />
      <path
         id="path173"
         style="stroke-width:0.264583"
         d="m 49.401097,1.505648 q 0,0.1386652 -0.03014,0.2480471 -0.03014,0.1093818 -0.08871,0.185174 -0.0577,0.074931 -0.141249,0.1145495 -0.08354,0.039619 -0.191203,0.039619 -0.09302,0 -0.171393,-0.032728 -0.07838,-0.032729 -0.13522,-0.1024917 -0.05684,-0.070624 -0.08871,-0.1800063 -0.03187,-0.1093819 -0.03187,-0.2618275 0,-0.1386652 0.03015,-0.248047 0.03101,-0.1093819 0.08871,-0.1843127 0.0577,-0.075792 0.14211,-0.11541081 0.0844,-0.0396186 0.191203,-0.0396186 0.09302,0 0.171394,0.0327284 0.07838,0.0327284 0.134359,0.10249171 0.05684,0.069763 0.08871,0.179145 0.03187,0.1093819 0.03187,0.2626887 z m -0.666626,0.00345 q 0,0.017225 0,0.032728 0,0.014642 0.0017,0.030145 l 0.422047,-0.304896 q -0.03014,-0.085266 -0.0801,-0.125746 -0.04909,-0.041341 -0.116272,-0.041341 -0.04823,0 -0.08957,0.024977 -0.04134,0.024116 -0.07235,0.074931 -0.03015,0.050815 -0.04823,0.1274686 -0.01723,0.076653 -0.01723,0.1817289 z m 0.454753,0.00345 q 0,-0.014642 -8.62e-4,-0.029283 -8.61e-4,-0.015503 -8.61e-4,-0.029283 L 48.76806,1.7571402 q 0.02756,0.083544 0.07751,0.1240235 0.04995,0.04048 0.116272,0.04048 0.04823,0 0.08957,-0.024977 0.0422,-0.024977 0.07235,-0.074931 0.03101,-0.050815 0.04823,-0.1274686 0.01723,-0.077515 0.01723,-0.1817289 z" />
    </g>
    <g
       transform="matrix(1.0000018,0,0,1,0.57252904,161.62872)"
       style="font-style:normal;font-variant:normal;font-weight:bold;font-stretch:normal;font-size:1.76389px;line-height:1.25;font-family:Consolas;-inkscape-font-specification:'Consolas, Bold';font-variant-ligatures:normal;font-variant-caps:normal;font-variant-numeric:normal;font-variant-east-asian:normal;display:inline;fill:#ffffff;fill-opacity:1;stroke:none;stroke-width:0.264583"
       id="text966-0-7"
       aria-label="75">
      <path
         id="path176"
         style="stroke-width:0.264583"
         d="M 72.926595,2.0732279 H 72.688884 L 73.136746,1.150803 H 72.596727 V 0.94754221 h 0.782037 V 1.1309937 Z" />
      <path
         id="path178"
         style="stroke-width:0.264583"
         d="m 74.343392,1.7132152 q 0,0.090434 -0.0379,0.1610583 -0.0379,0.069763 -0.105076,0.1179946 -0.06718,0.048231 -0.158474,0.073208 -0.0913,0.024977 -0.198093,0.024977 -0.0267,0 -0.05684,-0.00172 -0.03014,-0.00172 -0.06115,-0.00431 -0.03101,-0.00258 -0.06029,-0.00689 -0.02928,-0.00345 -0.05426,-0.00775 V 1.8863313 q 0.04909,0.012058 0.112826,0.019809 0.06373,0.00689 0.130053,0.00689 0.129191,0 0.19637,-0.049093 0.06804,-0.049954 0.06804,-0.1378039 0,-0.091295 -0.06287,-0.1352201 -0.06287,-0.044786 -0.203261,-0.044786 H 73.631979 V 0.94754221 H 74.28138 V 1.1456353 h -0.45303 v 0.229099 h 0.08096 q 0.08613,0 0.164504,0.015503 0.07838,0.015503 0.137804,0.05426 0.06029,0.037896 0.0956,0.1033529 0.03617,0.065457 0.03617,0.1653647 z" />
    </g>
    <g
       transform="matrix(1.0000018,0,0,1,0.57252904,161.62872)"
       style="font-style:normal;font-variant:normal;font-weight:bold;font-stretch:normal;font-size:1.76389px;line-height:1.25;font-family:Consolas;-inkscape-font-specification:'Consolas, Bold';font-variant-ligatures:normal;font-variant-caps:normal;font-variant-numeric:normal;font-variant-east-asian:normal;display:inline;fill:#ffffff;fill-opacity:1;stroke:none;stroke-width:0.264583"
       id="text966-0-5-1"
       aria-label="150">
      <path
         id="path195"
         style="stroke-width:0.264583"
         d="M 146.47099,2.0732279 V 1.8863313 h 0.2868 V 1.1628608 l -0.24977,0.1378039 -0.0689,-0.1713936 0.35743,-0.18861909 h 0.17656 V 1.8863313 h 0.24719 v 0.1868966 z" />
      <path
         id="path197"
         style="stroke-width:0.264583"
         d="m 148.17803,1.7132152 q 0,0.090434 -0.0379,0.1610583 -0.0379,0.069763 -0.10508,0.1179946 -0.0672,0.048231 -0.15847,0.073208 -0.0913,0.024977 -0.1981,0.024977 -0.0267,0 -0.0568,-0.00172 -0.0301,-0.00172 -0.0611,-0.00431 -0.031,-0.00258 -0.0603,-0.00689 -0.0293,-0.00345 -0.0543,-0.00775 V 1.8863313 q 0.0491,0.012058 0.11283,0.019809 0.0637,0.00689 0.13005,0.00689 0.12919,0 0.19637,-0.049093 0.068,-0.049954 0.068,-0.1378039 0,-0.091295 -0.0629,-0.1352201 -0.0629,-0.044786 -0.20326,-0.044786 h -0.22049 V 0.94754221 h 0.6494 V 1.1456353 h -0.45303 v 0.229099 h 0.081 q 0.0861,0 0.1645,0.015503 0.0784,0.015503 0.13781,0.05426 0.0603,0.037896 0.0956,0.1033529 0.0362,0.065457 0.0362,0.1653647 z" />
      <path
         id="path199"
         style="stroke-width:0.264583"
         d="m 149.20726,1.505648 q 0,0.1386652 -0.0301,0.2480471 -0.0301,0.1093818 -0.0887,0.185174 -0.0577,0.074931 -0.14125,0.1145495 -0.0835,0.039619 -0.1912,0.039619 -0.093,0 -0.1714,-0.032728 -0.0784,-0.032729 -0.13522,-0.1024917 -0.0568,-0.070624 -0.0887,-0.1800063 -0.0319,-0.1093819 -0.0319,-0.2618275 0,-0.1386652 0.0301,-0.248047 0.031,-0.1093819 0.0887,-0.1843127 0.0577,-0.075792 0.14211,-0.11541081 0.0844,-0.0396186 0.1912,-0.0396186 0.093,0 0.1714,0.0327284 0.0784,0.0327284 0.13436,0.10249171 0.0568,0.069763 0.0887,0.179145 0.0319,0.1093819 0.0319,0.2626879 z m -0.66663,0.00345 q 0,0.017225 0,0.032728 0,0.014642 0.002,0.030145 l 0.42203,-0.3048912 q -0.0301,-0.085266 -0.0801,-0.125746 -0.0491,-0.041341 -0.11627,-0.041341 -0.0482,0 -0.0896,0.024977 -0.0413,0.024116 -0.0723,0.074931 -0.0301,0.050815 -0.0482,0.1274686 -0.0172,0.076653 -0.0172,0.1817289 z m 0.45475,0.00345 q 0,-0.014642 -8.6e-4,-0.029283 -8.6e-4,-0.015503 -8.6e-4,-0.029283 l -0.41944,0.3031686 q 0.0276,0.083544 0.0775,0.1240235 0.05,0.04048 0.11628,0.04048 0.0482,0 0.0896,-0.024977 0.0422,-0.024977 0.0723,-0.074931 0.031,-0.050815 0.0482,-0.1274686 0.0172,-0.077515 0.0172,-0.1817289 z" />
    </g>
    <path
       sodipodi:nodetypes="cc"
       style="display:inline;fill:none;stroke:#fdfdfd;stroke-width:0.261627;stroke-linecap:butt;stroke-linejoin:miter;stroke-miterlimit:4;stroke-dasharray:0.523253, 0.261627;stroke-dashoffset:0;stroke-opacity:1"
       d="M 164.5362,84.529273 0.84115215,84.546913"
       id="path2685-4-7-5" />
    <g
       style="font-style:normal;font-variant:normal;font-weight:normal;font-stretch:normal;font-size:8.81944px;line-height:1.25;font-family:'Bauhaus 93';-inkscape-font-specification:'Bauhaus 93, Normal';font-variant-ligatures:normal;font-variant-caps:normal;font-variant-numeric:normal;font-variant-east-asian:normal;display:inline;fill:#000000;fill-opacity:1;stroke:none;stroke-width:0.264583"
       id="text893"
       aria-label="ENDER 2"
       transform="translate(0,-1)">
      <g
         id="g220" />
    </g>
    <g
       aria-label="125"
       id="text966-0-4-0"
       style="font-style:normal;font-variant:normal;font-weight:bold;font-stretch:normal;font-size:1.76389px;line-height:1.25;font-family:Consolas;-inkscape-font-specification:'Consolas, Bold';font-variant-ligatures:normal;font-variant-caps:normal;font-variant-numeric:normal;font-variant-east-asian:normal;display:inline;fill:#ffffff;fill-opacity:1;stroke:none;stroke-width:0.264583"
       transform="matrix(1.0000018,0,0,1,-120.0522,39.34553)">
      <path
         d="M 121.63635,2.0732279 V 1.8863313 h 0.2868 V 1.1628608 l -0.24977,0.1378039 -0.0689,-0.1713936 0.35743,-0.18861909 h 0.17656 V 1.8863313 h 0.24718 v 0.1868966 z"
         id="path188-1" />
      <path
         d="M 122.58805,2.0732279 V 1.9181985 l 0.26614,-0.2661338 q 0.0749,-0.074931 0.11972,-0.1291912 0.0456,-0.05426 0.0698,-0.096463 0.025,-0.043064 0.0327,-0.079237 0.008,-0.036174 0.008,-0.074931 0,-0.031867 -0.0103,-0.060289 -0.0103,-0.029283 -0.0301,-0.049954 -0.0198,-0.021532 -0.05,-0.03359 -0.0301,-0.012919 -0.0689,-0.012919 -0.0663,0 -0.12316,0.029283 -0.0568,0.028422 -0.10766,0.076654 l -0.1111,-0.1429716 q 0.0732,-0.068041 0.1645,-0.10852056 0.0922,-0.0413412 0.19895,-0.0413412 0.0827,0 0.14987,0.0215319 0.0672,0.0206706 0.11455,0.0620118 0.0482,0.041341 0.0741,0.1033529 0.0267,0.062012 0.0267,0.1429716 0,0.067179 -0.0181,0.125746 -0.0181,0.057705 -0.0525,0.112827 -0.0344,0.055122 -0.0853,0.1102431 -0.0499,0.055122 -0.11455,0.1162721 l -0.16364,0.1558906 h 0.47456 v 0.1937868 z"
         id="path190-2" />
      <path
         d="m 124.31491,1.7132152 q 0,0.090434 -0.0379,0.1610583 -0.0379,0.069763 -0.10507,0.1179946 -0.0672,0.048231 -0.15848,0.073208 -0.0913,0.024977 -0.19809,0.024977 -0.0267,0 -0.0568,-0.00172 -0.0301,-0.00172 -0.0611,-0.00431 -0.031,-0.00258 -0.0603,-0.00689 -0.0293,-0.00345 -0.0543,-0.00775 V 1.8863313 q 0.0491,0.012058 0.11282,0.019809 0.0637,0.00689 0.13006,0.00689 0.12919,0 0.19637,-0.049093 0.068,-0.049954 0.068,-0.1378039 0,-0.091295 -0.0629,-0.1352201 -0.0629,-0.044786 -0.20326,-0.044786 H 123.6035 V 0.94754221 h 0.6494 V 1.1456353 h -0.45303 v 0.229099 h 0.081 q 0.0861,0 0.1645,0.015503 0.0784,0.015503 0.1378,0.05426 0.0603,0.037896 0.0956,0.1033529 0.0362,0.065457 0.0362,0.1653647 z"
         id="path192-3" />
    </g>
    <g
       aria-label="100"
       id="text966-0-9-0"
       style="font-style:normal;font-variant:normal;font-weight:bold;font-stretch:normal;font-size:1.76389px;line-height:1.25;font-family:Consolas;-inkscape-font-specification:'Consolas, Bold';font-variant-ligatures:normal;font-variant-caps:normal;font-variant-numeric:normal;font-variant-east-asian:normal;display:inline;fill:#ffffff;fill-opacity:1;stroke:none;stroke-width:0.264583"
       transform="matrix(1.0000018,0,0,1,-95.236042,64.165623)">
      <path
         d="M 96.636346,2.0732279 V 1.8863313 H 96.92315 V 1.1628608 l -0.249769,0.1378039 -0.0689,-0.1713936 0.357429,-0.18861909 h 0.176561 V 1.8863313 h 0.247186 v 0.1868966 z"
         id="path181-5" />
      <path
         d="m 98.401097,1.505648 q 0,0.1386652 -0.03014,0.2480471 -0.03015,0.1093818 -0.08871,0.185174 -0.0577,0.074931 -0.141249,0.1145495 -0.08354,0.039619 -0.191203,0.039619 -0.09302,0 -0.171393,-0.032728 -0.07838,-0.032729 -0.13522,-0.1024917 -0.05684,-0.070624 -0.08871,-0.1800063 -0.03187,-0.1093819 -0.03187,-0.2618275 0,-0.1386652 0.03014,-0.248047 0.03101,-0.1093819 0.08871,-0.1843127 0.0577,-0.075792 0.14211,-0.11541081 0.08441,-0.0396186 0.191203,-0.0396186 0.09302,0 0.171394,0.0327284 0.07838,0.0327284 0.134359,0.10249171 0.05684,0.069763 0.08871,0.179145 0.03187,0.1093819 0.03187,0.2626887 z m -0.666626,0.00345 q 0,0.017225 0,0.032728 0,0.014642 0.0017,0.030145 l 0.422047,-0.304896 q -0.03015,-0.085266 -0.0801,-0.125746 -0.04909,-0.041341 -0.116272,-0.041341 -0.04823,0 -0.08957,0.024977 -0.04134,0.024116 -0.07235,0.074931 -0.03014,0.050815 -0.04823,0.1274686 -0.01722,0.076653 -0.01722,0.1817289 z m 0.454753,0.00345 q 0,-0.014642 -8.62e-4,-0.029283 -8.61e-4,-0.015503 -8.61e-4,-0.029283 L 97.76806,1.7571402 q 0.02756,0.083544 0.07751,0.1240235 0.04995,0.04048 0.116272,0.04048 0.04823,0 0.08957,-0.024977 0.0422,-0.024977 0.07235,-0.074931 0.03101,-0.050815 0.04823,-0.1274686 0.01723,-0.077515 0.01723,-0.1817289 z"
         id="path183-5" />
      <path
         d="m 99.372615,1.505648 q 0,0.1386652 -0.03014,0.2480471 -0.03014,0.1093818 -0.08871,0.185174 -0.05771,0.074931 -0.141249,0.1145495 -0.08354,0.039619 -0.191203,0.039619 -0.09302,0 -0.171394,-0.032728 -0.07838,-0.032729 -0.13522,-0.1024917 -0.05684,-0.070624 -0.08871,-0.1800063 -0.03187,-0.1093819 -0.03187,-0.2618275 0,-0.1386652 0.03014,-0.248047 0.03101,-0.1093819 0.08871,-0.1843127 0.0577,-0.075792 0.14211,-0.11541081 0.0844,-0.0396186 0.191203,-0.0396186 0.09302,0 0.171393,0.0327284 0.07838,0.0327284 0.134359,0.10249171 0.05684,0.069763 0.08871,0.179145 0.03187,0.1093819 0.03187,0.2626887 z m -0.666627,0.00345 q 0,0.017225 0,0.032728 0,0.014642 0.0017,0.030145 l 0.422047,-0.304896 q -0.03014,-0.085266 -0.0801,-0.125746 -0.04909,-0.041341 -0.116272,-0.041341 -0.04823,0 -0.08957,0.024977 -0.04134,0.024116 -0.07235,0.074931 -0.03014,0.050815 -0.04823,0.1274686 -0.01723,0.076653 -0.01723,0.1817289 z m 0.454753,0.00345 q 0,-0.014642 -8.61e-4,-0.029283 -8.61e-4,-0.015503 -8.61e-4,-0.029283 l -0.419441,0.3031686 q 0.02756,0.083544 0.07752,0.1240235 0.04995,0.04048 0.116272,0.04048 0.04823,0 0.08957,-0.024977 0.0422,-0.024977 0.07235,-0.074931 0.03101,-0.050815 0.04823,-0.1274686 0.01722,-0.077515 0.01722,-0.1817289 z"
         id="path185-2" />
    </g>
    <g
       aria-label="25"
       id="text966-0-99-1"
       style="font-style:normal;font-variant:normal;font-weight:bold;font-stretch:normal;font-size:1.76389px;line-height:1.25;font-family:Consolas;-inkscape-font-specification:'Consolas, Bold';font-variant-ligatures:normal;font-variant-caps:normal;font-variant-numeric:normal;font-variant-east-asian:normal;display:inline;fill:#ffffff;fill-opacity:1;stroke:none;stroke-width:0.264583"
       transform="matrix(1.0000018,0,0,1,-21.136554,139.18404)">
      <path
         d="M 22.616538,2.0732279 V 1.9181985 l 0.266134,-0.2661338 q 0.07493,-0.074931 0.119717,-0.1291912 0.04565,-0.05426 0.06976,-0.096463 0.02498,-0.043064 0.03273,-0.079237 0.0078,-0.036174 0.0078,-0.074931 0,-0.031867 -0.01034,-0.060289 -0.01034,-0.029283 -0.03014,-0.049954 -0.01981,-0.021532 -0.04995,-0.03359 -0.03015,-0.012919 -0.0689,-0.012919 -0.06632,0 -0.123163,0.029283 -0.05684,0.028422 -0.107659,0.076654 L 22.611371,1.0784559 q 0.07321,-0.068041 0.164503,-0.10852056 0.09216,-0.0413412 0.198955,-0.0413412 0.08268,0 0.149861,0.0215319 0.06718,0.0206706 0.11455,0.0620118 0.04823,0.041341 0.07407,0.1033529 0.0267,0.062012 0.0267,0.1429716 0,0.067179 -0.01809,0.125746 -0.01809,0.057705 -0.05254,0.112827 -0.03445,0.055122 -0.08527,0.1102431 -0.04995,0.055122 -0.114549,0.1162721 l -0.163642,0.1558906 h 0.474562 v 0.1937868 z"
         style="stroke-width:0.264583"
         id="path166-8" />
      <path
         d="m 24.343394,1.7132152 q 0,0.090434 -0.0379,0.1610583 -0.0379,0.069763 -0.105076,0.1179946 -0.06718,0.048231 -0.158474,0.073208 -0.0913,0.024977 -0.198093,0.024977 -0.0267,0 -0.05685,-0.00172 -0.03014,-0.00172 -0.06115,-0.00431 -0.03101,-0.00258 -0.06029,-0.00689 -0.02928,-0.00345 -0.05426,-0.00775 V 1.8863313 q 0.04909,0.012058 0.112827,0.019809 0.06374,0.00689 0.130053,0.00689 0.129191,0 0.19637,-0.049093 0.06804,-0.049954 0.06804,-0.1378039 0,-0.091295 -0.06287,-0.1352201 -0.06287,-0.044786 -0.203261,-0.044786 H 23.631981 V 0.94754221 h 0.649401 V 1.1456353 h -0.45303 v 0.229099 h 0.08096 q 0.08613,0 0.164504,0.015503 0.07838,0.015503 0.137804,0.05426 0.06029,0.037896 0.0956,0.1033529 0.03617,0.065457 0.03617,0.1653647 z"
         style="stroke-width:0.264583"
         id="path168-6" />
    </g>
    <g
       aria-label="50"
       id="text966-0-3-4"
       style="font-style:normal;font-variant:normal;font-weight:bold;font-stretch:normal;font-size:1.76389px;line-height:1.25;font-family:Consolas;-inkscape-font-specification:'Consolas, Bold';font-variant-ligatures:normal;font-variant-caps:normal;font-variant-numeric:normal;font-variant-east-asian:normal;display:inline;fill:#ffffff;fill-opacity:1;stroke:none;stroke-width:0.264583"
       transform="matrix(1.0000018,0,0,1,-46.229394,114.13436)">
      <path
         d="m 48.371874,1.7132152 q 0,0.090434 -0.0379,0.1610583 -0.0379,0.069763 -0.105075,0.1179946 -0.06718,0.048231 -0.158475,0.073208 -0.0913,0.024977 -0.198093,0.024977 -0.0267,0 -0.05684,-0.00172 -0.03015,-0.00172 -0.06115,-0.00431 -0.03101,-0.00258 -0.06029,-0.00689 -0.02928,-0.00345 -0.05426,-0.00775 V 1.8863313 q 0.04909,0.012058 0.112827,0.019809 0.06373,0.00689 0.130052,0.00689 0.129191,0 0.196371,-0.049093 0.06804,-0.049954 0.06804,-0.1378039 0,-0.091295 -0.06287,-0.1352201 -0.06287,-0.044786 -0.203261,-0.044786 H 47.660462 V 0.94754221 h 0.6494 V 1.1456353 h -0.45303 v 0.229099 h 0.08096 q 0.08613,0 0.164503,0.015503 0.07838,0.015503 0.137804,0.05426 0.06029,0.037896 0.0956,0.1033529 0.03617,0.065457 0.03617,0.1653647 z"
         style="stroke-width:0.264583"
         id="path171-2" />
      <path
         d="m 49.401097,1.505648 q 0,0.1386652 -0.03014,0.2480471 -0.03014,0.1093818 -0.08871,0.185174 -0.0577,0.074931 -0.141249,0.1145495 -0.08354,0.039619 -0.191203,0.039619 -0.09302,0 -0.171393,-0.032728 -0.07838,-0.032729 -0.13522,-0.1024917 -0.05684,-0.070624 -0.08871,-0.1800063 -0.03187,-0.1093819 -0.03187,-0.2618275 0,-0.1386652 0.03015,-0.248047 0.03101,-0.1093819 0.08871,-0.1843127 0.0577,-0.075792 0.14211,-0.11541081 0.0844,-0.0396186 0.191203,-0.0396186 0.09302,0 0.171394,0.0327284 0.07838,0.0327284 0.134359,0.10249171 0.05684,0.069763 0.08871,0.179145 0.03187,0.1093819 0.03187,0.2626887 z m -0.666626,0.00345 q 0,0.017225 0,0.032728 0,0.014642 0.0017,0.030145 l 0.422047,-0.304896 q -0.03014,-0.085266 -0.0801,-0.125746 -0.04909,-0.041341 -0.116272,-0.041341 -0.04823,0 -0.08957,0.024977 -0.04134,0.024116 -0.07235,0.074931 -0.03015,0.050815 -0.04823,0.1274686 -0.01723,0.076653 -0.01723,0.1817289 z m 0.454753,0.00345 q 0,-0.014642 -8.62e-4,-0.029283 -8.61e-4,-0.015503 -8.61e-4,-0.029283 L 48.76806,1.7571402 q 0.02756,0.083544 0.07751,0.1240235 0.04995,0.04048 0.116272,0.04048 0.04823,0 0.08957,-0.024977 0.0422,-0.024977 0.07235,-0.074931 0.03101,-0.050815 0.04823,-0.1274686 0.01723,-0.077515 0.01723,-0.1817289 z"
         style="stroke-width:0.264583"
         id="path173-7" />
    </g>
    <g
       aria-label="75"
       id="text966-0-7-6"
       style="font-style:normal;font-variant:normal;font-weight:bold;font-stretch:normal;font-size:1.76389px;line-height:1.25;font-family:Consolas;-inkscape-font-specification:'Consolas, Bold';font-variant-ligatures:normal;font-variant-caps:normal;font-variant-numeric:normal;font-variant-east-asian:normal;display:inline;fill:#ffffff;fill-opacity:1;stroke:none;stroke-width:0.264583"
       transform="matrix(1.0000018,0,0,1,-71.046079,89.57365)">
      <path
         d="M 72.926595,2.0732279 H 72.688884 L 73.136746,1.150803 H 72.596727 V 0.94754221 h 0.782037 V 1.1309937 Z"
         style="stroke-width:0.264583"
         id="path176-3" />
      <path
         d="m 74.343392,1.7132152 q 0,0.090434 -0.0379,0.1610583 -0.0379,0.069763 -0.105076,0.1179946 -0.06718,0.048231 -0.158474,0.073208 -0.0913,0.024977 -0.198093,0.024977 -0.0267,0 -0.05684,-0.00172 -0.03014,-0.00172 -0.06115,-0.00431 -0.03101,-0.00258 -0.06029,-0.00689 -0.02928,-0.00345 -0.05426,-0.00775 V 1.8863313 q 0.04909,0.012058 0.112826,0.019809 0.06373,0.00689 0.130053,0.00689 0.129191,0 0.19637,-0.049093 0.06804,-0.049954 0.06804,-0.1378039 0,-0.091295 -0.06287,-0.1352201 -0.06287,-0.044786 -0.203261,-0.044786 H 73.631979 V 0.94754221 H 74.28138 V 1.1456353 h -0.45303 v 0.229099 h 0.08096 q 0.08613,0 0.164504,0.015503 0.07838,0.015503 0.137804,0.05426 0.06029,0.037896 0.0956,0.1033529 0.03617,0.065457 0.03617,0.1653647 z"
         style="stroke-width:0.264583"
         id="path178-3" />
    </g>
    <g
       aria-label="150"
       id="text966-0-5-1-6"
       style="font-style:normal;font-variant:normal;font-weight:bold;font-stretch:normal;font-size:1.76389px;line-height:1.25;font-family:Consolas;-inkscape-font-specification:'Consolas, Bold';font-variant-ligatures:normal;font-variant-caps:normal;font-variant-numeric:normal;font-variant-east-asian:normal;display:inline;fill:#ffffff;fill-opacity:1;stroke:none;stroke-width:0.264583"
       transform="matrix(1.0000018,0,0,1,-144.97061,14.517603)">
      <path
         d="M 146.47099,2.0732279 V 1.8863313 h 0.2868 V 1.1628608 l -0.24977,0.1378039 -0.0689,-0.1713936 0.35743,-0.18861909 h 0.17656 V 1.8863313 h 0.24719 v 0.1868966 z"
         style="stroke-width:0.264583"
         id="path195-7" />
      <path
         d="m 148.17803,1.7132152 q 0,0.090434 -0.0379,0.1610583 -0.0379,0.069763 -0.10508,0.1179946 -0.0672,0.048231 -0.15847,0.073208 -0.0913,0.024977 -0.1981,0.024977 -0.0267,0 -0.0568,-0.00172 -0.0301,-0.00172 -0.0611,-0.00431 -0.031,-0.00258 -0.0603,-0.00689 -0.0293,-0.00345 -0.0543,-0.00775 V 1.8863313 q 0.0491,0.012058 0.11283,0.019809 0.0637,0.00689 0.13005,0.00689 0.12919,0 0.19637,-0.049093 0.068,-0.049954 0.068,-0.1378039 0,-0.091295 -0.0629,-0.1352201 -0.0629,-0.044786 -0.20326,-0.044786 h -0.22049 V 0.94754221 h 0.6494 V 1.1456353 h -0.45303 v 0.229099 h 0.081 q 0.0861,0 0.1645,0.015503 0.0784,0.015503 0.13781,0.05426 0.0603,0.037896 0.0956,0.1033529 0.0362,0.065457 0.0362,0.1653647 z"
         style="stroke-width:0.264583"
         id="path197-7" />
      <path
         d="m 149.20726,1.505648 q 0,0.1386652 -0.0301,0.2480471 -0.0301,0.1093818 -0.0887,0.185174 -0.0577,0.074931 -0.14125,0.1145495 -0.0835,0.039619 -0.1912,0.039619 -0.093,0 -0.1714,-0.032728 -0.0784,-0.032729 -0.13522,-0.1024917 -0.0568,-0.070624 -0.0887,-0.1800063 -0.0319,-0.1093819 -0.0319,-0.2618275 0,-0.1386652 0.0301,-0.248047 0.031,-0.1093819 0.0887,-0.1843127 0.0577,-0.075792 0.14211,-0.11541081 0.0844,-0.0396186 0.1912,-0.0396186 0.093,0 0.1714,0.0327284 0.0784,0.0327284 0.13436,0.10249171 0.0568,0.069763 0.0887,0.179145 0.0319,0.1093819 0.0319,0.2626879 z m -0.66663,0.00345 q 0,0.017225 0,0.032728 0,0.014642 0.002,0.030145 l 0.42203,-0.3048912 q -0.0301,-0.085266 -0.0801,-0.125746 -0.0491,-0.041341 -0.11627,-0.041341 -0.0482,0 -0.0896,0.024977 -0.0413,0.024116 -0.0723,0.074931 -0.0301,0.050815 -0.0482,0.1274686 -0.0172,0.076653 -0.0172,0.1817289 z m 0.45475,0.00345 q 0,-0.014642 -8.6e-4,-0.029283 -8.6e-4,-0.015503 -8.6e-4,-0.029283 l -0.41944,0.3031686 q 0.0276,0.083544 0.0775,0.1240235 0.05,0.04048 0.11628,0.04048 0.0482,0 0.0896,-0.024977 0.0422,-0.024977 0.0723,-0.074931 0.031,-0.050815 0.0482,-0.1274686 0.0172,-0.077515 0.0172,-0.1817289 z"
         style="stroke-width:0.264583"
         id="path199-0" />
    </g>
    <path
       id="path2643"
       d="M 0.54635501,0.54635501 H 164.45363 V 164.45365 H 0.54635501 Z"
       style="fill:none;stroke:#ffffff;stroke-width:1.09271;stroke-linecap:round;stroke-linejoin:round;stroke-miterlimit:4;stroke-dasharray:none;stroke-opacity:1" />
  </g>
  <g
     inkscape:groupmode="layer"
     id="layer3"
     inkscape:label="Logo"
     style="display:inline" />
  <g
     inkscape:groupmode="layer"
     id="layer5"
     inkscape:label="Text"
     style="display:inline">
    <path
       style="display:inline;fill:#ffffff;stroke:#ffffff;stroke-width:0.134951"
       d="m 104.88629,176.54145 v -5.06066 h 17.54361 17.5436 v 5.06066 5.06065 h -17.5436 -17.54361 z m 15.26222,2.7584 c 1.85599,-0.94086 2.19249,-3.76768 0.60434,-5.07677 -0.70702,-0.58278 -1.30281,-0.71803 -3.1631,-0.71803 h -1.63749 v 3.0364 3.03639 h 0.91433 0.91434 l -0.0168,-1.7881 c -0.0229,-2.44189 -0.0375,-2.39538 0.75182,-2.39538 0.79975,0 1.19464,0.2946 1.3031,0.97214 0.0692,0.43211 0.0243,0.55548 -0.3311,0.91091 -0.32373,0.32374 -0.52805,0.41112 -0.9613,0.41112 h -0.55018 v 0.93341 c 0,0.61828 0.057,0.95776 0.16869,1.00555 0.29305,0.12534 1.49871,-0.0718 2.0033,-0.32764 z m -10.26904,-0.59919 v -0.87718 l -0.70849,-0.002 c -0.38967,-0.001 -0.79218,-0.0551 -0.89447,-0.11986 -0.34842,-0.22069 -0.002,-0.41788 0.73375,-0.41788 h 0.73426 v -0.73517 -0.73518 l -0.69788,-0.0408 c -1.00007,-0.0584 -1.01429,-0.35327 -0.0195,-0.40491 l 0.78488,-0.0407 0.0399,-0.91092 0.0399,-0.91092 h -1.15995 c -2.10283,0 -2.36111,0.33214 -2.36111,3.0364 0,2.7057 0.2425,3.02144 2.32791,3.03099 l 1.18082,0.005 z m 2.56613,-1.11334 c 0.002,-2.04046 0.0798,-2.42895 0.45665,-2.28433 0.18526,0.0711 0.21604,0.38155 0.21604,2.17888 v 2.09597 h 0.94466 0.94465 l -7.9e-4,-2.19295 c -7.9e-4,-2.4824 -0.0977,-2.99029 -0.67548,-3.54389 -0.34293,-0.32854 -0.5443,-0.3996 -1.26179,-0.44529 -0.92698,-0.059 -1.41479,0.11043 -1.92887,0.67006 -0.45847,0.49909 -0.58492,1.24478 -0.58573,3.45407 l -7.9e-4,2.058 h 0.94465 0.94466 l 0.002,-1.99052 z m 13.49302,1.11334 v -0.87718 l -0.70849,-0.002 c -0.38967,-0.001 -0.79218,-0.0551 -0.89447,-0.11986 -0.34842,-0.22069 -0.002,-0.41788 0.73374,-0.41788 h 0.73427 v -0.74222 -0.74223 h -0.74223 c -0.55844,0 -0.74223,-0.0485 -0.74223,-0.1957 0,-0.14357 0.20666,-0.20647 0.77597,-0.23616 l 0.77596,-0.0405 0.0399,-0.91092 0.0399,-0.91092 -1.18698,5.3e-4 c -0.93719,5.3e-4 -1.27748,0.0557 -1.61697,0.26268 -0.71129,0.43371 -0.7845,0.69251 -0.7845,2.77321 0,2.08069 0.0732,2.3395 0.7845,2.77321 0.33904,0.20672 0.67972,0.26228 1.6108,0.26268 l 1.18082,5.3e-4 z m 2.69901,-1.291 v -2.16817 l 0.36997,0.0427 c 0.49915,0.0576 0.56686,0.46289 0.11197,0.67015 -0.31237,0.14233 -0.34702,0.23335 -0.34732,0.91241 -2.6e-4,0.55341 0.11408,1.01487 0.42924,1.73269 l 0.42958,0.9784 h 0.98774 c 0.54326,0 0.98774,-0.0186 0.98774,-0.0413 0,-0.0227 -0.21208,-0.56722 -0.4713,-1.21007 l -0.47131,-1.16882 0.33636,-0.49565 c 0.41056,-0.605 0.4579,-1.62756 0.10314,-2.22813 -0.41022,-0.69443 -1.12846,-0.92887 -2.84579,-0.92887 h -1.50933 v 3.0364 3.03639 h 0.94466 0.94465 z m 9.85142,1.22352 v -0.94465 h -0.47428 -0.47427 l 0.4068,-0.80586 c 0.93706,-1.85631 0.13685,-3.51072 -1.69872,-3.51206 -0.8225,-5.3e-4 -1.45277,0.37071 -1.82808,1.07699 -0.27983,0.52658 -0.3285,1.4866 -0.0981,1.93403 0.21538,0.41819 0.67709,0.90204 0.86077,0.90204 0.20407,0 0.82096,-1.32175 0.76661,-1.64255 -0.0482,-0.28457 0.33074,-0.48496 0.53356,-0.28214 0.0906,0.0906 -0.20287,0.78161 -0.88625,2.08711 -0.56191,1.07343 -1.02166,1.99221 -1.02166,2.04172 0,0.0495 0.88056,0.09 1.95679,0.09 h 1.95679 z"
       id="path1315" />
    <path
       id="rect15522"
       width="55.487389"
       height="10.391213"
       x="105.23039"
       y="183.58066"
       style="display:inline;fill:#ffffff;stroke-width:0.416406"
       sodipodi:type="rect"
       d="m 105.23039,183.58066 h 55.48739 v 10.39121 h -55.48739 z"
       mask="url(#mask-powermask-path-effect10621)"
       inkscape:path-effect="#path-effect10621"
       transform="matrix(1,0,0,1.0133391,0.13860982,-41.81399)" />
  </g>
</svg>
