<?xml version="1.0" encoding="UTF-8" standalone="no"?>
<svg
   sodipodi:docname="ender2pro.svg"
   inkscape:version="1.1.1 (c3084ef, 2021-09-22)"
   id="svg1883"
   version="1.1"
   viewBox="0 0 150 150"
   height="150mm"
   width="150mm"
   xmlns:inkscape="http://www.inkscape.org/namespaces/inkscape"
   xmlns:sodipodi="http://sodipodi.sourceforge.net/DTD/sodipodi-0.dtd"
   xmlns="http://www.w3.org/2000/svg"
   xmlns:svg="http://www.w3.org/2000/svg"
   xmlns:rdf="http://www.w3.org/1999/02/22-rdf-syntax-ns#"
   xmlns:cc="http://creativecommons.org/ns#"
   xmlns:dc="http://purl.org/dc/elements/1.1/">
  <defs
     id="defs1877">
    <clipPath
       clipPathUnits="userSpaceOnUse"
       id="clipPath5117">
      <rect
         style="fill:none;stroke:#ff0000;stroke-width:0.264583"
         id="rect5119"
         width="130.17416"
         height="67.649559"
         x="82.341125"
         y="10.933263" />
    </clipPath>
  </defs>
  <sodipodi:namedview
     inkscape:snap-page="false"
     inkscape:window-maximized="0"
     inkscape:window-y="25"
     inkscape:window-x="147"
     inkscape:window-height="1147"
     inkscape:window-width="1726"
     borderlayer="false"
     showgrid="false"
     inkscape:document-rotation="0"
     inkscape:current-layer="layer3"
     inkscape:document-units="mm"
     inkscape:cy="192.91328"
     inkscape:cx="332.98233"
     inkscape:zoom="0.78532695"
     inkscape:pageshadow="2"
     inkscape:pageopacity="0"
     borderopacity="1"
     bordercolor="#f14bac"
     pagecolor="#5d5d5d"
     id="base"
     inkscape:pagecheckerboard="0"
     showguides="true">
    <inkscape:grid
       id="grid2446"
       type="xygrid" />
  </sodipodi:namedview>
  <metadata
     id="metadata1880">
    <rdf:RDF>
      <cc:Work
         rdf:about="">
        <dc:format>image/svg+xml</dc:format>
        <dc:type
           rdf:resource="http://purl.org/dc/dcmitype/StillImage" />
      </cc:Work>
    </rdf:RDF>
  </metadata>
  <g
     inkscape:label="Layer 2"
     id="layer2"
     inkscape:groupmode="layer"
     style="display:none" />
  <g
     id="layer1"
     inkscape:groupmode="layer"
     inkscape:label="Layer 1"
     style="display:inline">
    <path
       id="path2645"
       d="M 75,0 V 150"
       style="fill:none;stroke:#ff0000;stroke-width:0.75;stroke-linecap:round;stroke-linejoin:round;stroke-miterlimit:4;stroke-dasharray:none;stroke-opacity:1" />
    <path
       id="path2647"
       d="M 0.05127813,75 H 164.58675"
       style="fill:none;stroke:#ff0000;stroke-width:0.785499;stroke-linecap:round;stroke-linejoin:round;stroke-miterlimit:4;stroke-dasharray:none;stroke-opacity:1" />
    <path
       id="path2649"
       d="M 25,0 V 150"
       style="fill:none;stroke:#ff0000;stroke-width:0.5;stroke-linecap:round;stroke-linejoin:round;stroke-miterlimit:4;stroke-dasharray:none;stroke-opacity:1" />
    <path
       id="path2651"
       d="M 50,0 V 150"
       style="fill:none;stroke:#ff0000;stroke-width:0.5;stroke-linecap:round;stroke-linejoin:round;stroke-miterlimit:4;stroke-dasharray:none;stroke-opacity:1" />
    <path
       id="path2653"
       d="M 100,0 V 150"
       style="fill:none;stroke:#ff0000;stroke-width:0.5;stroke-linecap:round;stroke-linejoin:round;stroke-miterlimit:4;stroke-dasharray:none;stroke-opacity:1" />
    <path
       id="path2655"
       d="M 125,0.26804101 V 149.70754"
       style="fill:none;stroke:#ff0000;stroke-width:0.536082;stroke-linecap:round;stroke-linejoin:round;stroke-miterlimit:4;stroke-dasharray:none;stroke-opacity:1"
       sodipodi:nodetypes="cc" />
    <path
       id="path2655-8"
       d="M 150.26804,0.26804101 V 149.70754"
       style="display:inline;fill:none;stroke:#ff0000;stroke-width:0.536082;stroke-linecap:round;stroke-linejoin:round;stroke-miterlimit:4;stroke-dasharray:none;stroke-opacity:1"
       sodipodi:nodetypes="cc" />
    <path
       style="fill:none;stroke:#ff0000;stroke-width:0.524245;stroke-linecap:round;stroke-linejoin:round;stroke-miterlimit:4;stroke-dasharray:none;stroke-opacity:1"
       d="M 164.9871,24.999994 H 0.01588258"
       id="path2649-5" />
    <path
       style="fill:none;stroke:#ff0000;stroke-width:0.523665;stroke-linecap:round;stroke-linejoin:round;stroke-miterlimit:4;stroke-dasharray:none;stroke-opacity:1"
       d="M 164.58675,50 H 0.05128033"
       id="path2651-4" />
    <path
       style="fill:none;stroke:#ff0000;stroke-width:0.524368;stroke-linecap:round;stroke-linejoin:round;stroke-miterlimit:4;stroke-dasharray:none;stroke-opacity:1"
       d="M 164.97806,100 H 2.0000005e-6"
       id="path2653-9" />
    <path
       style="fill:none;stroke:#ff0000;stroke-width:0.523391;stroke-linecap:round;stroke-linejoin:round;stroke-miterlimit:4;stroke-dasharray:none;stroke-opacity:1"
       d="M 164.36357,125 H 2.0000005e-6"
       id="path2655-5" />
    <path
       id="path2681"
       d="M 4.9735417,-0.26458333 V 150.26458"
       style="fill:none;stroke:#fdfdfd;stroke-width:0.25;stroke-linecap:butt;stroke-linejoin:miter;stroke-miterlimit:4;stroke-dasharray:0.5, 0.25;stroke-dashoffset:0;stroke-opacity:1" />
    <path
       id="path2683"
       d="M 9.9911806,150.26458 V -0.26458333"
       style="fill:none;stroke:#fdfdfd;stroke-width:0.25;stroke-linecap:butt;stroke-linejoin:miter;stroke-miterlimit:4;stroke-dasharray:0.5, 0.25;stroke-dashoffset:0;stroke-opacity:1" />
    <path
       id="path2685"
       d="M 15.008819,-0.26458333 V 150.26458"
       style="fill:none;stroke:#fdfdfd;stroke-width:0.25;stroke-linecap:butt;stroke-linejoin:miter;stroke-miterlimit:4;stroke-dasharray:0.5, 0.25;stroke-dashoffset:0;stroke-opacity:1" />
    <path
       id="path2687"
       d="M 20.026458,150.26458 V -0.26458333"
       style="fill:none;stroke:#fdfdfd;stroke-width:0.25;stroke-linecap:butt;stroke-linejoin:miter;stroke-miterlimit:4;stroke-dasharray:0.5, 0.25;stroke-dashoffset:0;stroke-opacity:1" />
    <path
       style="fill:none;stroke:#fdfdfd;stroke-width:0.25;stroke-linecap:butt;stroke-linejoin:miter;stroke-miterlimit:4;stroke-dasharray:0.499999, 0.25;stroke-dashoffset:0;stroke-opacity:1"
       d="M 29.982361,-0.52917 V 150"
       id="path2681-2" />
    <path
       style="fill:none;stroke:#fdfdfd;stroke-width:0.25;stroke-linecap:butt;stroke-linejoin:miter;stroke-miterlimit:4;stroke-dasharray:0.499999, 0.25;stroke-dashoffset:0;stroke-opacity:1"
       d="M 35,150 V -0.52917"
       id="path2683-1" />
    <path
       style="fill:none;stroke:#fdfdfd;stroke-width:0.25;stroke-linecap:butt;stroke-linejoin:miter;stroke-miterlimit:4;stroke-dasharray:0.499999, 0.25;stroke-dashoffset:0;stroke-opacity:1"
       d="M 40.017638,-0.52917 V 150"
       id="path2685-5" />
    <path
       style="fill:none;stroke:#fdfdfd;stroke-width:0.25;stroke-linecap:butt;stroke-linejoin:miter;stroke-miterlimit:4;stroke-dasharray:0.499999, 0.25;stroke-dashoffset:0;stroke-opacity:1"
       d="M 45.035278,150 V -0.52917"
       id="path2687-4" />
    <path
       style="fill:none;stroke:#fdfdfd;stroke-width:0.25;stroke-linecap:butt;stroke-linejoin:miter;stroke-miterlimit:4;stroke-dasharray:0.499999, 0.25;stroke-dashoffset:0;stroke-opacity:1"
       d="M 54.964723,0 V 150.52917"
       id="path2681-9" />
    <path
       style="fill:none;stroke:#fdfdfd;stroke-width:0.25;stroke-linecap:butt;stroke-linejoin:miter;stroke-miterlimit:4;stroke-dasharray:0.499999, 0.25;stroke-dashoffset:0;stroke-opacity:1"
       d="M 59.982362,150.52917 V 0"
       id="path2683-8" />
    <path
       style="fill:none;stroke:#fdfdfd;stroke-width:0.25;stroke-linecap:butt;stroke-linejoin:miter;stroke-miterlimit:4;stroke-dasharray:0.499999, 0.25;stroke-dashoffset:0;stroke-opacity:1"
       d="M 65,0 V 150.52917"
       id="path2685-4" />
    <path
       style="fill:none;stroke:#fdfdfd;stroke-width:0.25;stroke-linecap:butt;stroke-linejoin:miter;stroke-miterlimit:4;stroke-dasharray:0.499999, 0.25;stroke-dashoffset:0;stroke-opacity:1"
       d="M 70.01764,150.52917 V 0"
       id="path2687-7" />
    <path
       style="fill:none;stroke:#fdfdfd;stroke-width:0.25;stroke-linecap:butt;stroke-linejoin:miter;stroke-miterlimit:4;stroke-dasharray:0.499999, 0.25;stroke-dashoffset:0;stroke-opacity:1"
       d="M 80,-0.52917033 V 150"
       id="path2681-3" />
    <path
       style="fill:none;stroke:#fdfdfd;stroke-width:0.25;stroke-linecap:butt;stroke-linejoin:miter;stroke-miterlimit:4;stroke-dasharray:0.499999, 0.25;stroke-dashoffset:0;stroke-opacity:1"
       d="M 85.017639,150 V -0.52917033"
       id="path2683-6" />
    <path
       style="fill:none;stroke:#fdfdfd;stroke-width:0.25;stroke-linecap:butt;stroke-linejoin:miter;stroke-miterlimit:4;stroke-dasharray:0.499999, 0.25;stroke-dashoffset:0;stroke-opacity:1"
       d="M 90.035277,-0.52917033 V 150"
       id="path2685-3" />
    <path
       style="fill:none;stroke:#fdfdfd;stroke-width:0.25;stroke-linecap:butt;stroke-linejoin:miter;stroke-miterlimit:4;stroke-dasharray:0.499999, 0.25;stroke-dashoffset:0;stroke-opacity:1"
       d="M 95.052918,150 V -0.52917033"
       id="path2687-44" />
    <path
       style="fill:none;stroke:#fdfdfd;stroke-width:0.25;stroke-linecap:butt;stroke-linejoin:miter;stroke-miterlimit:4;stroke-dasharray:0.499999, 0.25;stroke-dashoffset:0;stroke-opacity:1"
       d="M 104.96472,0 V 150.52917"
       id="path2681-36" />
    <path
       style="fill:none;stroke:#fdfdfd;stroke-width:0.2682;stroke-linecap:butt;stroke-linejoin:miter;stroke-miterlimit:4;stroke-dasharray:0.536399, 0.2682;stroke-dashoffset:0;stroke-opacity:1"
       d="M 110,149.61688 109.98236,0"
       id="path2683-5"
       sodipodi:nodetypes="cc" />
    <path
       style="fill:none;stroke:#fdfdfd;stroke-width:0.268337;stroke-linecap:butt;stroke-linejoin:miter;stroke-miterlimit:4;stroke-dasharray:0.536672, 0.268337;stroke-dashoffset:0;stroke-opacity:1"
       d="M 115,0 V 149.76947"
       id="path2685-7"
       sodipodi:nodetypes="cc" />
    <path
       style="fill:none;stroke:#fdfdfd;stroke-width:0.26811;stroke-linecap:butt;stroke-linejoin:miter;stroke-miterlimit:4;stroke-dasharray:0.536219, 0.26811;stroke-dashoffset:0;stroke-opacity:1"
       d="M 120,149.5164 120.01764,0"
       id="path2687-48"
       sodipodi:nodetypes="cc" />
    <path
       style="fill:none;stroke:#fdfdfd;stroke-width:0.268305;stroke-linecap:butt;stroke-linejoin:miter;stroke-miterlimit:4;stroke-dasharray:0.53661, 0.268305;stroke-dashoffset:0;stroke-opacity:1"
       d="M 129.96474,-1.5917449e-4 129.99998,149.89519"
       id="path2681-0"
       sodipodi:nodetypes="cc" />
    <path
       style="fill:none;stroke:#fdfdfd;stroke-width:0.259437;stroke-linecap:butt;stroke-linejoin:miter;stroke-miterlimit:4;stroke-dasharray:0.518873, 0.259437;stroke-dashoffset:0;stroke-opacity:1"
       d="M 135,140 V 0"
       id="path2683-0"
       sodipodi:nodetypes="cc" />
    <path
       style="fill:none;stroke:#fdfdfd;stroke-width:0.25;stroke-linecap:butt;stroke-linejoin:miter;stroke-miterlimit:4;stroke-dasharray:0.499999, 0.25;stroke-dashoffset:0;stroke-opacity:1"
       d="M 140,0 V 150"
       id="path2685-2"
       sodipodi:nodetypes="cc" />
    <path
       style="fill:none;stroke:#fdfdfd;stroke-width:0.25;stroke-linecap:butt;stroke-linejoin:miter;stroke-miterlimit:4;stroke-dasharray:0.499999, 0.25;stroke-dashoffset:0;stroke-opacity:1"
       d="M 145.01764,150.52917 V 0"
       id="path2687-47" />
    <path
       style="display:inline;fill:none;stroke:#fdfdfd;stroke-width:0.25;stroke-linecap:butt;stroke-linejoin:miter;stroke-miterlimit:4;stroke-dasharray:0.499999, 0.25;stroke-dashoffset:0;stroke-opacity:1"
       d="M 155.125,150.52917 V 0"
       id="path2687-47-0" />
    <path
       style="display:inline;fill:none;stroke:#fdfdfd;stroke-width:0.25;stroke-linecap:butt;stroke-linejoin:miter;stroke-miterlimit:4;stroke-dasharray:0.499999, 0.25;stroke-dashoffset:0;stroke-opacity:1"
       d="M 160.125,150.52917 V 0"
       id="path2687-47-0-7" />
    <path
       style="fill:none;stroke:#fdfdfd;stroke-width:0.262123;stroke-linecap:butt;stroke-linejoin:miter;stroke-miterlimit:4;stroke-dasharray:0.524245, 0.262123;stroke-dashoffset:0;stroke-opacity:1"
       d="M 164.6961,4.9644965 0.01588038,5.0085756"
       id="path2681-39"
       sodipodi:nodetypes="cc" />
    <path
       style="fill:none;stroke:#fdfdfd;stroke-width:0.262123;stroke-linecap:butt;stroke-linejoin:miter;stroke-miterlimit:4;stroke-dasharray:0.524245, 0.262123;stroke-dashoffset:0;stroke-opacity:1"
       d="M 0.01588038,10.00643 164.6961,9.9799826"
       id="path2683-3"
       sodipodi:nodetypes="cc" />
    <path
       style="fill:none;stroke:#fdfdfd;stroke-width:0.262123;stroke-linecap:butt;stroke-linejoin:miter;stroke-miterlimit:4;stroke-dasharray:0.524245, 0.262123;stroke-dashoffset:0;stroke-opacity:1"
       d="M 164.6961,14.995468 0.01588038,15.004285"
       id="path2685-51"
       sodipodi:nodetypes="cc" />
    <path
       style="fill:none;stroke:#fdfdfd;stroke-width:0.262123;stroke-linecap:butt;stroke-linejoin:miter;stroke-miterlimit:4;stroke-dasharray:0.524245, 0.262123;stroke-dashoffset:0;stroke-opacity:1"
       d="M 0.01588038,20.00214 164.6961,20.010936"
       id="path2687-486"
       sodipodi:nodetypes="cc" />
    <path
       id="path2681-2-1"
       d="M 164.9871,29.997849 H 0.01588038"
       style="fill:none;stroke:#fdfdfd;stroke-width:0.262123;stroke-linecap:butt;stroke-linejoin:miter;stroke-miterlimit:4;stroke-dasharray:0.524245, 0.262123;stroke-dashoffset:0;stroke-opacity:1"
       sodipodi:nodetypes="cc" />
    <path
       id="path2683-1-9"
       d="M 0.01588038,34.995715 165.01587,34.978082"
       style="fill:none;stroke:#fdfdfd;stroke-width:0.262146;stroke-linecap:butt;stroke-linejoin:miter;stroke-miterlimit:4;stroke-dasharray:0.524291, 0.262146;stroke-dashoffset:0;stroke-opacity:1"
       sodipodi:nodetypes="cc" />
    <path
       id="path2685-5-4"
       d="M 165.01587,39.993566 H 0.01588038"
       style="fill:none;stroke:#fdfdfd;stroke-width:0.262146;stroke-linecap:butt;stroke-linejoin:miter;stroke-miterlimit:4;stroke-dasharray:0.524291, 0.262146;stroke-dashoffset:0;stroke-opacity:1"
       sodipodi:nodetypes="cc" />
    <path
       id="path2687-4-9"
       d="M 0.01588038,44.991417 165.01587,45.009049"
       style="fill:none;stroke:#fdfdfd;stroke-width:0.262146;stroke-linecap:butt;stroke-linejoin:miter;stroke-miterlimit:4;stroke-dasharray:0.524291, 0.262146;stroke-dashoffset:0;stroke-opacity:1"
       sodipodi:nodetypes="cc" />
    <path
       id="path2681-9-6"
       d="M 165.05121,54.947471 0.05128438,55.000383"
       style="fill:none;stroke:#fdfdfd;stroke-width:0.262646;stroke-linecap:butt;stroke-linejoin:miter;stroke-miterlimit:4;stroke-dasharray:0.525289, 0.262646;stroke-dashoffset:0;stroke-opacity:1"
       sodipodi:nodetypes="cc" />
    <path
       id="path2683-8-0"
       d="M 0.05128438,59.999597 165.05121,59.964323"
       style="fill:none;stroke:#fdfdfd;stroke-width:0.262646;stroke-linecap:butt;stroke-linejoin:miter;stroke-miterlimit:4;stroke-dasharray:0.525289, 0.262646;stroke-dashoffset:0;stroke-opacity:1"
       sodipodi:nodetypes="cc" />
    <path
       id="path2685-4-7"
       d="M 165.05127,64.982397 0.0512843,64.999941"
       style="fill:none;stroke:#fdfdfd;stroke-width:0.261952;stroke-linecap:butt;stroke-linejoin:miter;stroke-miterlimit:4;stroke-dasharray:0.523902, 0.261952;stroke-dashoffset:0;stroke-opacity:1"
       sodipodi:nodetypes="cc" />
    <path
       id="path2681-3-7"
       d="M 164.58675,79.98236 0.05127813,80"
       style="fill:none;stroke:#fdfdfd;stroke-width:0.261833;stroke-linecap:butt;stroke-linejoin:miter;stroke-miterlimit:4;stroke-dasharray:0.523665, 0.261833;stroke-dashoffset:0;stroke-opacity:1"
       sodipodi:nodetypes="cc" />
    <path
       id="path2683-6-0"
       d="M 0.05087053,84.999954 H 164.4708"
       style="fill:none;stroke:#fdfdfd;stroke-width:0.261742;stroke-linecap:butt;stroke-linejoin:miter;stroke-miterlimit:4;stroke-dasharray:0.523482, 0.261742;stroke-dashoffset:0;stroke-opacity:1"
       sodipodi:nodetypes="cc" />
    <path
       id="path2685-3-3"
       d="M 164.4708,90.017617 H -0.529169"
       style="fill:none;stroke:#fdfdfd;stroke-width:0.261742;stroke-linecap:butt;stroke-linejoin:miter;stroke-miterlimit:4;stroke-dasharray:0.523482, 0.261742;stroke-dashoffset:0;stroke-opacity:1" />
    <path
       id="path2687-44-3"
       d="M 0.05087053,95 164.4708,95.03528"
       style="fill:none;stroke:#fdfdfd;stroke-width:0.261742;stroke-linecap:butt;stroke-linejoin:miter;stroke-miterlimit:4;stroke-dasharray:0.523482, 0.261742;stroke-dashoffset:0;stroke-opacity:1"
       sodipodi:nodetypes="cc" />
    <path
       id="path2681-36-5"
       d="M 164.46196,104.94713 -3.7159101e-4,105.00005"
       style="fill:none;stroke:#fdfdfd;stroke-width:0.262238;stroke-linecap:butt;stroke-linejoin:miter;stroke-miterlimit:4;stroke-dasharray:0.524475, 0.262238;stroke-dashoffset:0;stroke-opacity:1"
       sodipodi:nodetypes="cc" />
    <path
       id="path2683-5-1"
       d="m 0,109.99998 164.53066,-0.0353"
       style="fill:none;stroke:#fdfdfd;stroke-width:0.262293;stroke-linecap:butt;stroke-linejoin:miter;stroke-miterlimit:4;stroke-dasharray:0.524584, 0.262293;stroke-dashoffset:0;stroke-opacity:1"
       sodipodi:nodetypes="cc" />
    <path
       id="path2685-7-5"
       d="M 164.53066,114.98236 0,115"
       style="fill:none;stroke:#fdfdfd;stroke-width:0.262293;stroke-linecap:butt;stroke-linejoin:miter;stroke-miterlimit:4;stroke-dasharray:0.524584, 0.262293;stroke-dashoffset:0;stroke-opacity:1"
       sodipodi:nodetypes="cc" />
    <path
       id="path2687-48-9"
       d="M 0,120.00002 H 164.99997"
       style="fill:none;stroke:#fdfdfd;stroke-width:0.262667;stroke-linecap:butt;stroke-linejoin:miter;stroke-miterlimit:4;stroke-dasharray:0.525332, 0.262667;stroke-dashoffset:0;stroke-opacity:1"
       sodipodi:nodetypes="cc" />
    <path
       id="path2681-0-8"
       d="M 165,130 H 0"
       style="fill:none;stroke:#fdfdfd;stroke-width:0.262202;stroke-linecap:butt;stroke-linejoin:miter;stroke-miterlimit:4;stroke-dasharray:0.524404, 0.262202;stroke-dashoffset:0;stroke-opacity:1"
       sodipodi:nodetypes="cc" />
    <path
       id="path2683-0-5"
       d="M 0,135 H 165"
       style="fill:none;stroke:#fdfdfd;stroke-width:0.313391;stroke-linecap:butt;stroke-linejoin:miter;stroke-miterlimit:4;stroke-dasharray:0.626782, 0.313391;stroke-dashoffset:0;stroke-opacity:1"
       sodipodi:nodetypes="cc" />
    <path
       id="path2685-2-7"
       d="M 165,140 H 0"
       style="fill:none;stroke:#fdfdfd;stroke-width:0.262202;stroke-linecap:butt;stroke-linejoin:miter;stroke-miterlimit:4;stroke-dasharray:0.524404, 0.262202;stroke-dashoffset:0;stroke-opacity:1"
       sodipodi:nodetypes="cc" />
    <path
       id="path2687-47-6"
       d="M 0,145 H 165"
       style="fill:none;stroke:#fdfdfd;stroke-width:0.262666;stroke-linecap:butt;stroke-linejoin:miter;stroke-miterlimit:4;stroke-dasharray:0.525331, 0.262666;stroke-dashoffset:0;stroke-opacity:1"
       sodipodi:nodetypes="cc" />
    <path
       style="display:inline;fill:none;stroke:#fdfdfd;stroke-width:0.25;stroke-linecap:butt;stroke-linejoin:miter;stroke-miterlimit:4;stroke-dasharray:0.499999, 0.25;stroke-dashoffset:0;stroke-opacity:1"
       d="M 135,150 V 140"
       id="path2683-5-5-2"
       sodipodi:nodetypes="cc" />
    <g
       transform="translate(0.04335936,147.09955)"
       style="font-style:normal;font-variant:normal;font-weight:bold;font-stretch:normal;font-size:1.76389px;line-height:1.25;font-family:Consolas;-inkscape-font-specification:'Consolas, Bold';font-variant-ligatures:normal;font-variant-caps:normal;font-variant-numeric:normal;font-variant-east-asian:normal;display:inline;fill:#ffffff;fill-opacity:1;stroke:none;stroke-width:0.264583"
       id="text966-0-4"
       aria-label="125">
      <path
         id="path188"
         d="M 121.63635,2.0732279 V 1.8863313 h 0.2868 V 1.1628608 l -0.24977,0.1378039 -0.0689,-0.1713936 0.35743,-0.18861909 h 0.17656 V 1.8863313 h 0.24718 v 0.1868966 z" />
      <path
         id="path190"
         d="M 122.58805,2.0732279 V 1.9181985 l 0.26614,-0.2661338 q 0.0749,-0.074931 0.11972,-0.1291912 0.0456,-0.05426 0.0698,-0.096463 0.025,-0.043064 0.0327,-0.079237 0.008,-0.036174 0.008,-0.074931 0,-0.031867 -0.0103,-0.060289 -0.0103,-0.029283 -0.0301,-0.049954 -0.0198,-0.021532 -0.05,-0.03359 -0.0301,-0.012919 -0.0689,-0.012919 -0.0663,0 -0.12316,0.029283 -0.0568,0.028422 -0.10766,0.076654 l -0.1111,-0.1429716 q 0.0732,-0.068041 0.1645,-0.10852056 0.0922,-0.0413412 0.19895,-0.0413412 0.0827,0 0.14987,0.0215319 0.0672,0.0206706 0.11455,0.0620118 0.0482,0.041341 0.0741,0.1033529 0.0267,0.062012 0.0267,0.1429716 0,0.067179 -0.0181,0.125746 -0.0181,0.057705 -0.0525,0.112827 -0.0344,0.055122 -0.0853,0.1102431 -0.0499,0.055122 -0.11455,0.1162721 l -0.16364,0.1558906 h 0.47456 v 0.1937868 z" />
      <path
         id="path192"
         d="m 124.31491,1.7132152 q 0,0.090434 -0.0379,0.1610583 -0.0379,0.069763 -0.10507,0.1179946 -0.0672,0.048231 -0.15848,0.073208 -0.0913,0.024977 -0.19809,0.024977 -0.0267,0 -0.0568,-0.00172 -0.0301,-0.00172 -0.0611,-0.00431 -0.031,-0.00258 -0.0603,-0.00689 -0.0293,-0.00345 -0.0543,-0.00775 V 1.8863313 q 0.0491,0.012058 0.11282,0.019809 0.0637,0.00689 0.13006,0.00689 0.12919,0 0.19637,-0.049093 0.068,-0.049954 0.068,-0.1378039 0,-0.091295 -0.0629,-0.1352201 -0.0629,-0.044786 -0.20326,-0.044786 H 123.6035 V 0.94754221 h 0.6494 V 1.1456353 h -0.45303 v 0.229099 h 0.081 q 0.0861,0 0.1645,0.015503 0.0784,0.015503 0.1378,0.05426 0.0603,0.037896 0.0956,0.1033529 0.0362,0.065457 0.0362,0.1653647 z" />
    </g>
    <g
       transform="translate(0.04335936,147.09955)"
       style="font-style:normal;font-variant:normal;font-weight:bold;font-stretch:normal;font-size:1.76389px;line-height:1.25;font-family:Consolas;-inkscape-font-specification:'Consolas, Bold';font-variant-ligatures:normal;font-variant-caps:normal;font-variant-numeric:normal;font-variant-east-asian:normal;display:inline;fill:#ffffff;fill-opacity:1;stroke:none;stroke-width:0.264583"
       id="text966-0-9"
       aria-label="100">
      <path
         id="path181"
         d="M 96.636346,2.0732279 V 1.8863313 H 96.92315 V 1.1628608 l -0.249769,0.1378039 -0.0689,-0.1713936 0.357429,-0.18861909 h 0.176561 V 1.8863313 h 0.247186 v 0.1868966 z" />
      <path
         id="path183"
         d="m 98.401097,1.505648 q 0,0.1386652 -0.03014,0.2480471 -0.03015,0.1093818 -0.08871,0.185174 -0.0577,0.074931 -0.141249,0.1145495 -0.08354,0.039619 -0.191203,0.039619 -0.09302,0 -0.171393,-0.032728 -0.07838,-0.032729 -0.13522,-0.1024917 -0.05684,-0.070624 -0.08871,-0.1800063 -0.03187,-0.1093819 -0.03187,-0.2618275 0,-0.1386652 0.03014,-0.248047 0.03101,-0.1093819 0.08871,-0.1843127 0.0577,-0.075792 0.14211,-0.11541081 0.08441,-0.0396186 0.191203,-0.0396186 0.09302,0 0.171394,0.0327284 0.07838,0.0327284 0.134359,0.10249171 0.05684,0.069763 0.08871,0.179145 0.03187,0.1093819 0.03187,0.2626887 z m -0.666626,0.00345 q 0,0.017225 0,0.032728 0,0.014642 0.0017,0.030145 l 0.422047,-0.304896 q -0.03015,-0.085266 -0.0801,-0.125746 -0.04909,-0.041341 -0.116272,-0.041341 -0.04823,0 -0.08957,0.024977 -0.04134,0.024116 -0.07235,0.074931 -0.03014,0.050815 -0.04823,0.1274686 -0.01722,0.076653 -0.01722,0.1817289 z m 0.454753,0.00345 q 0,-0.014642 -8.62e-4,-0.029283 -8.61e-4,-0.015503 -8.61e-4,-0.029283 L 97.76806,1.7571402 q 0.02756,0.083544 0.07751,0.1240235 0.04995,0.04048 0.116272,0.04048 0.04823,0 0.08957,-0.024977 0.0422,-0.024977 0.07235,-0.074931 0.03101,-0.050815 0.04823,-0.1274686 0.01723,-0.077515 0.01723,-0.1817289 z" />
      <path
         id="path185"
         d="m 99.372615,1.505648 q 0,0.1386652 -0.03014,0.2480471 -0.03014,0.1093818 -0.08871,0.185174 -0.05771,0.074931 -0.141249,0.1145495 -0.08354,0.039619 -0.191203,0.039619 -0.09302,0 -0.171394,-0.032728 -0.07838,-0.032729 -0.13522,-0.1024917 -0.05684,-0.070624 -0.08871,-0.1800063 -0.03187,-0.1093819 -0.03187,-0.2618275 0,-0.1386652 0.03014,-0.248047 0.03101,-0.1093819 0.08871,-0.1843127 0.0577,-0.075792 0.14211,-0.11541081 0.0844,-0.0396186 0.191203,-0.0396186 0.09302,0 0.171393,0.0327284 0.07838,0.0327284 0.134359,0.10249171 0.05684,0.069763 0.08871,0.179145 0.03187,0.1093819 0.03187,0.2626887 z m -0.666627,0.00345 q 0,0.017225 0,0.032728 0,0.014642 0.0017,0.030145 l 0.422047,-0.304896 q -0.03014,-0.085266 -0.0801,-0.125746 -0.04909,-0.041341 -0.116272,-0.041341 -0.04823,0 -0.08957,0.024977 -0.04134,0.024116 -0.07235,0.074931 -0.03014,0.050815 -0.04823,0.1274686 -0.01723,0.076653 -0.01723,0.1817289 z m 0.454753,0.00345 q 0,-0.014642 -8.61e-4,-0.029283 -8.61e-4,-0.015503 -8.61e-4,-0.029283 l -0.419441,0.3031686 q 0.02756,0.083544 0.07752,0.1240235 0.04995,0.04048 0.116272,0.04048 0.04823,0 0.08957,-0.024977 0.0422,-0.024977 0.07235,-0.074931 0.03101,-0.050815 0.04823,-0.1274686 0.01722,-0.077515 0.01722,-0.1817289 z" />
    </g>
    <g
       transform="translate(0.04335936,147.09955)"
       style="font-style:normal;font-variant:normal;font-weight:bold;font-stretch:normal;font-size:1.76389px;line-height:1.25;font-family:Consolas;-inkscape-font-specification:'Consolas, Bold';font-variant-ligatures:normal;font-variant-caps:normal;font-variant-numeric:normal;font-variant-east-asian:normal;display:inline;fill:#ffffff;fill-opacity:1;stroke:none;stroke-width:0.264583"
       id="text966-0-99"
       aria-label="25">
      <path
         id="path166"
         style="stroke-width:0.264583"
         d="M 22.616538,2.0732279 V 1.9181985 l 0.266134,-0.2661338 q 0.07493,-0.074931 0.119717,-0.1291912 0.04565,-0.05426 0.06976,-0.096463 0.02498,-0.043064 0.03273,-0.079237 0.0078,-0.036174 0.0078,-0.074931 0,-0.031867 -0.01034,-0.060289 -0.01034,-0.029283 -0.03014,-0.049954 -0.01981,-0.021532 -0.04995,-0.03359 -0.03015,-0.012919 -0.0689,-0.012919 -0.06632,0 -0.123163,0.029283 -0.05684,0.028422 -0.107659,0.076654 L 22.611371,1.0784559 q 0.07321,-0.068041 0.164503,-0.10852056 0.09216,-0.0413412 0.198955,-0.0413412 0.08268,0 0.149861,0.0215319 0.06718,0.0206706 0.11455,0.0620118 0.04823,0.041341 0.07407,0.1033529 0.0267,0.062012 0.0267,0.1429716 0,0.067179 -0.01809,0.125746 -0.01809,0.057705 -0.05254,0.112827 -0.03445,0.055122 -0.08527,0.1102431 -0.04995,0.055122 -0.114549,0.1162721 l -0.163642,0.1558906 h 0.474562 v 0.1937868 z" />
      <path
         id="path168"
         style="stroke-width:0.264583"
         d="m 24.343394,1.7132152 q 0,0.090434 -0.0379,0.1610583 -0.0379,0.069763 -0.105076,0.1179946 -0.06718,0.048231 -0.158474,0.073208 -0.0913,0.024977 -0.198093,0.024977 -0.0267,0 -0.05685,-0.00172 -0.03014,-0.00172 -0.06115,-0.00431 -0.03101,-0.00258 -0.06029,-0.00689 -0.02928,-0.00345 -0.05426,-0.00775 V 1.8863313 q 0.04909,0.012058 0.112827,0.019809 0.06374,0.00689 0.130053,0.00689 0.129191,0 0.19637,-0.049093 0.06804,-0.049954 0.06804,-0.1378039 0,-0.091295 -0.06287,-0.1352201 -0.06287,-0.044786 -0.203261,-0.044786 H 23.631981 V 0.94754221 h 0.649401 V 1.1456353 h -0.45303 v 0.229099 h 0.08096 q 0.08613,0 0.164504,0.015503 0.07838,0.015503 0.137804,0.05426 0.06029,0.037896 0.0956,0.1033529 0.03617,0.065457 0.03617,0.1653647 z" />
    </g>
    <g
       transform="translate(0.04335936,147.09955)"
       style="font-style:normal;font-variant:normal;font-weight:bold;font-stretch:normal;font-size:1.76389px;line-height:1.25;font-family:Consolas;-inkscape-font-specification:'Consolas, Bold';font-variant-ligatures:normal;font-variant-caps:normal;font-variant-numeric:normal;font-variant-east-asian:normal;display:inline;fill:#ffffff;fill-opacity:1;stroke:none;stroke-width:0.264583"
       id="text966-0-3"
       aria-label="50">
      <path
         id="path171"
         style="stroke-width:0.264583"
         d="m 48.371874,1.7132152 q 0,0.090434 -0.0379,0.1610583 -0.0379,0.069763 -0.105075,0.1179946 -0.06718,0.048231 -0.158475,0.073208 -0.0913,0.024977 -0.198093,0.024977 -0.0267,0 -0.05684,-0.00172 -0.03015,-0.00172 -0.06115,-0.00431 -0.03101,-0.00258 -0.06029,-0.00689 -0.02928,-0.00345 -0.05426,-0.00775 V 1.8863313 q 0.04909,0.012058 0.112827,0.019809 0.06373,0.00689 0.130052,0.00689 0.129191,0 0.196371,-0.049093 0.06804,-0.049954 0.06804,-0.1378039 0,-0.091295 -0.06287,-0.1352201 -0.06287,-0.044786 -0.203261,-0.044786 H 47.660462 V 0.94754221 h 0.6494 V 1.1456353 h -0.45303 v 0.229099 h 0.08096 q 0.08613,0 0.164503,0.015503 0.07838,0.015503 0.137804,0.05426 0.06029,0.037896 0.0956,0.1033529 0.03617,0.065457 0.03617,0.1653647 z" />
      <path
         id="path173"
         style="stroke-width:0.264583"
         d="m 49.401097,1.505648 q 0,0.1386652 -0.03014,0.2480471 -0.03014,0.1093818 -0.08871,0.185174 -0.0577,0.074931 -0.141249,0.1145495 -0.08354,0.039619 -0.191203,0.039619 -0.09302,0 -0.171393,-0.032728 -0.07838,-0.032729 -0.13522,-0.1024917 -0.05684,-0.070624 -0.08871,-0.1800063 -0.03187,-0.1093819 -0.03187,-0.2618275 0,-0.1386652 0.03015,-0.248047 0.03101,-0.1093819 0.08871,-0.1843127 0.0577,-0.075792 0.14211,-0.11541081 0.0844,-0.0396186 0.191203,-0.0396186 0.09302,0 0.171394,0.0327284 0.07838,0.0327284 0.134359,0.10249171 0.05684,0.069763 0.08871,0.179145 0.03187,0.1093819 0.03187,0.2626887 z m -0.666626,0.00345 q 0,0.017225 0,0.032728 0,0.014642 0.0017,0.030145 l 0.422047,-0.304896 q -0.03014,-0.085266 -0.0801,-0.125746 -0.04909,-0.041341 -0.116272,-0.041341 -0.04823,0 -0.08957,0.024977 -0.04134,0.024116 -0.07235,0.074931 -0.03015,0.050815 -0.04823,0.1274686 -0.01723,0.076653 -0.01723,0.1817289 z m 0.454753,0.00345 q 0,-0.014642 -8.62e-4,-0.029283 -8.61e-4,-0.015503 -8.61e-4,-0.029283 L 48.76806,1.7571402 q 0.02756,0.083544 0.07751,0.1240235 0.04995,0.04048 0.116272,0.04048 0.04823,0 0.08957,-0.024977 0.0422,-0.024977 0.07235,-0.074931 0.03101,-0.050815 0.04823,-0.1274686 0.01723,-0.077515 0.01723,-0.1817289 z" />
    </g>
    <g
       transform="translate(0.04335936,147.09955)"
       style="font-style:normal;font-variant:normal;font-weight:bold;font-stretch:normal;font-size:1.76389px;line-height:1.25;font-family:Consolas;-inkscape-font-specification:'Consolas, Bold';font-variant-ligatures:normal;font-variant-caps:normal;font-variant-numeric:normal;font-variant-east-asian:normal;display:inline;fill:#ffffff;fill-opacity:1;stroke:none;stroke-width:0.264583"
       id="text966-0-7"
       aria-label="75">
      <path
         id="path176"
         style="stroke-width:0.264583"
         d="M 72.926595,2.0732279 H 72.688884 L 73.136746,1.150803 H 72.596727 V 0.94754221 h 0.782037 V 1.1309937 Z" />
      <path
         id="path178"
         style="stroke-width:0.264583"
         d="m 74.343392,1.7132152 q 0,0.090434 -0.0379,0.1610583 -0.0379,0.069763 -0.105076,0.1179946 -0.06718,0.048231 -0.158474,0.073208 -0.0913,0.024977 -0.198093,0.024977 -0.0267,0 -0.05684,-0.00172 -0.03014,-0.00172 -0.06115,-0.00431 -0.03101,-0.00258 -0.06029,-0.00689 -0.02928,-0.00345 -0.05426,-0.00775 V 1.8863313 q 0.04909,0.012058 0.112826,0.019809 0.06373,0.00689 0.130053,0.00689 0.129191,0 0.19637,-0.049093 0.06804,-0.049954 0.06804,-0.1378039 0,-0.091295 -0.06287,-0.1352201 -0.06287,-0.044786 -0.203261,-0.044786 H 73.631979 V 0.94754221 H 74.28138 V 1.1456353 h -0.45303 v 0.229099 h 0.08096 q 0.08613,0 0.164504,0.015503 0.07838,0.015503 0.137804,0.05426 0.06029,0.037896 0.0956,0.1033529 0.03617,0.065457 0.03617,0.1653647 z" />
    </g>
    <g
       transform="translate(0.04335936,147.09955)"
       style="font-style:normal;font-variant:normal;font-weight:bold;font-stretch:normal;font-size:1.76389px;line-height:1.25;font-family:Consolas;-inkscape-font-specification:'Consolas, Bold';font-variant-ligatures:normal;font-variant-caps:normal;font-variant-numeric:normal;font-variant-east-asian:normal;display:inline;fill:#ffffff;fill-opacity:1;stroke:none;stroke-width:0.264583"
       id="text966-0-5-1"
       aria-label="150">
      <path
         id="path195"
         style="stroke-width:0.264583"
         d="M 146.47099,2.0732279 V 1.8863313 h 0.2868 V 1.1628608 l -0.24977,0.1378039 -0.0689,-0.1713936 0.35743,-0.18861909 h 0.17656 V 1.8863313 h 0.24719 v 0.1868966 z" />
      <path
         id="path197"
         style="stroke-width:0.264583"
         d="m 148.17803,1.7132152 q 0,0.090434 -0.0379,0.1610583 -0.0379,0.069763 -0.10508,0.1179946 -0.0672,0.048231 -0.15847,0.073208 -0.0913,0.024977 -0.1981,0.024977 -0.0267,0 -0.0568,-0.00172 -0.0301,-0.00172 -0.0611,-0.00431 -0.031,-0.00258 -0.0603,-0.00689 -0.0293,-0.00345 -0.0543,-0.00775 V 1.8863313 q 0.0491,0.012058 0.11283,0.019809 0.0637,0.00689 0.13005,0.00689 0.12919,0 0.19637,-0.049093 0.068,-0.049954 0.068,-0.1378039 0,-0.091295 -0.0629,-0.1352201 -0.0629,-0.044786 -0.20326,-0.044786 h -0.22049 V 0.94754221 h 0.6494 V 1.1456353 h -0.45303 v 0.229099 h 0.081 q 0.0861,0 0.1645,0.015503 0.0784,0.015503 0.13781,0.05426 0.0603,0.037896 0.0956,0.1033529 0.0362,0.065457 0.0362,0.1653647 z" />
      <path
         id="path199"
         style="stroke-width:0.264583"
         d="m 149.20726,1.505648 q 0,0.1386652 -0.0301,0.2480471 -0.0301,0.1093818 -0.0887,0.185174 -0.0577,0.074931 -0.14125,0.1145495 -0.0835,0.039619 -0.1912,0.039619 -0.093,0 -0.1714,-0.032728 -0.0784,-0.032729 -0.13522,-0.1024917 -0.0568,-0.070624 -0.0887,-0.1800063 -0.0319,-0.1093819 -0.0319,-0.2618275 0,-0.1386652 0.0301,-0.248047 0.031,-0.1093819 0.0887,-0.1843127 0.0577,-0.075792 0.14211,-0.11541081 0.0844,-0.0396186 0.1912,-0.0396186 0.093,0 0.1714,0.0327284 0.0784,0.0327284 0.13436,0.10249171 0.0568,0.069763 0.0887,0.179145 0.0319,0.1093819 0.0319,0.2626879 z m -0.66663,0.00345 q 0,0.017225 0,0.032728 0,0.014642 0.002,0.030145 l 0.42203,-0.3048912 q -0.0301,-0.085266 -0.0801,-0.125746 -0.0491,-0.041341 -0.11627,-0.041341 -0.0482,0 -0.0896,0.024977 -0.0413,0.024116 -0.0723,0.074931 -0.0301,0.050815 -0.0482,0.1274686 -0.0172,0.076653 -0.0172,0.1817289 z m 0.45475,0.00345 q 0,-0.014642 -8.6e-4,-0.029283 -8.6e-4,-0.015503 -8.6e-4,-0.029283 l -0.41944,0.3031686 q 0.0276,0.083544 0.0775,0.1240235 0.05,0.04048 0.11628,0.04048 0.0482,0 0.0896,-0.024977 0.0422,-0.024977 0.0723,-0.074931 0.031,-0.050815 0.0482,-0.1274686 0.0172,-0.077515 0.0172,-0.1817289 z" />
    </g>
    <path
       sodipodi:nodetypes="cc"
       style="display:inline;fill:none;stroke:#fdfdfd;stroke-width:0.261833;stroke-linecap:butt;stroke-linejoin:miter;stroke-miterlimit:4;stroke-dasharray:0.523665, 0.261833;stroke-dashoffset:0;stroke-opacity:1"
       d="M 164.58675,70 0.63172636,70.01764"
       id="path2685-4-7-5" />
    <g
       style="font-style:normal;font-variant:normal;font-weight:normal;font-stretch:normal;font-size:8.81944px;line-height:1.25;font-family:'Bauhaus 93';-inkscape-font-specification:'Bauhaus 93, Normal';font-variant-ligatures:normal;font-variant-caps:normal;font-variant-numeric:normal;font-variant-east-asian:normal;display:inline;fill:#000000;fill-opacity:1;stroke:none;stroke-width:0.264583"
       id="text893"
       aria-label="ENDER 2">
      <g
         id="g220" />
    </g>
    <g
       aria-label="125"
       id="text966-0-4-0"
       style="font-style:normal;font-variant:normal;font-weight:bold;font-stretch:normal;font-size:1.76389px;line-height:1.25;font-family:Consolas;-inkscape-font-specification:'Consolas, Bold';font-variant-ligatures:normal;font-variant-caps:normal;font-variant-numeric:normal;font-variant-east-asian:normal;display:inline;fill:#ffffff;fill-opacity:1;stroke:none;stroke-width:0.264583"
       transform="translate(-120.58115,24.81636)">
      <path
         d="M 121.63635,2.0732279 V 1.8863313 h 0.2868 V 1.1628608 l -0.24977,0.1378039 -0.0689,-0.1713936 0.35743,-0.18861909 h 0.17656 V 1.8863313 h 0.24718 v 0.1868966 z"
         id="path188-1" />
      <path
         d="M 122.58805,2.0732279 V 1.9181985 l 0.26614,-0.2661338 q 0.0749,-0.074931 0.11972,-0.1291912 0.0456,-0.05426 0.0698,-0.096463 0.025,-0.043064 0.0327,-0.079237 0.008,-0.036174 0.008,-0.074931 0,-0.031867 -0.0103,-0.060289 -0.0103,-0.029283 -0.0301,-0.049954 -0.0198,-0.021532 -0.05,-0.03359 -0.0301,-0.012919 -0.0689,-0.012919 -0.0663,0 -0.12316,0.029283 -0.0568,0.028422 -0.10766,0.076654 l -0.1111,-0.1429716 q 0.0732,-0.068041 0.1645,-0.10852056 0.0922,-0.0413412 0.19895,-0.0413412 0.0827,0 0.14987,0.0215319 0.0672,0.0206706 0.11455,0.0620118 0.0482,0.041341 0.0741,0.1033529 0.0267,0.062012 0.0267,0.1429716 0,0.067179 -0.0181,0.125746 -0.0181,0.057705 -0.0525,0.112827 -0.0344,0.055122 -0.0853,0.1102431 -0.0499,0.055122 -0.11455,0.1162721 l -0.16364,0.1558906 h 0.47456 v 0.1937868 z"
         id="path190-2" />
      <path
         d="m 124.31491,1.7132152 q 0,0.090434 -0.0379,0.1610583 -0.0379,0.069763 -0.10507,0.1179946 -0.0672,0.048231 -0.15848,0.073208 -0.0913,0.024977 -0.19809,0.024977 -0.0267,0 -0.0568,-0.00172 -0.0301,-0.00172 -0.0611,-0.00431 -0.031,-0.00258 -0.0603,-0.00689 -0.0293,-0.00345 -0.0543,-0.00775 V 1.8863313 q 0.0491,0.012058 0.11282,0.019809 0.0637,0.00689 0.13006,0.00689 0.12919,0 0.19637,-0.049093 0.068,-0.049954 0.068,-0.1378039 0,-0.091295 -0.0629,-0.1352201 -0.0629,-0.044786 -0.20326,-0.044786 H 123.6035 V 0.94754221 h 0.6494 V 1.1456353 h -0.45303 v 0.229099 h 0.081 q 0.0861,0 0.1645,0.015503 0.0784,0.015503 0.1378,0.05426 0.0603,0.037896 0.0956,0.1033529 0.0362,0.065457 0.0362,0.1653647 z"
         id="path192-3" />
    </g>
    <g
       aria-label="100"
       id="text966-0-9-0"
       style="font-style:normal;font-variant:normal;font-weight:bold;font-stretch:normal;font-size:1.76389px;line-height:1.25;font-family:Consolas;-inkscape-font-specification:'Consolas, Bold';font-variant-ligatures:normal;font-variant-caps:normal;font-variant-numeric:normal;font-variant-east-asian:normal;display:inline;fill:#ffffff;fill-opacity:1;stroke:none;stroke-width:0.264583"
       transform="translate(-95.765044,49.636453)">
      <path
         d="M 96.636346,2.0732279 V 1.8863313 H 96.92315 V 1.1628608 l -0.249769,0.1378039 -0.0689,-0.1713936 0.357429,-0.18861909 h 0.176561 V 1.8863313 h 0.247186 v 0.1868966 z"
         id="path181-5" />
      <path
         d="m 98.401097,1.505648 q 0,0.1386652 -0.03014,0.2480471 -0.03015,0.1093818 -0.08871,0.185174 -0.0577,0.074931 -0.141249,0.1145495 -0.08354,0.039619 -0.191203,0.039619 -0.09302,0 -0.171393,-0.032728 -0.07838,-0.032729 -0.13522,-0.1024917 -0.05684,-0.070624 -0.08871,-0.1800063 -0.03187,-0.1093819 -0.03187,-0.2618275 0,-0.1386652 0.03014,-0.248047 0.03101,-0.1093819 0.08871,-0.1843127 0.0577,-0.075792 0.14211,-0.11541081 0.08441,-0.0396186 0.191203,-0.0396186 0.09302,0 0.171394,0.0327284 0.07838,0.0327284 0.134359,0.10249171 0.05684,0.069763 0.08871,0.179145 0.03187,0.1093819 0.03187,0.2626887 z m -0.666626,0.00345 q 0,0.017225 0,0.032728 0,0.014642 0.0017,0.030145 l 0.422047,-0.304896 q -0.03015,-0.085266 -0.0801,-0.125746 -0.04909,-0.041341 -0.116272,-0.041341 -0.04823,0 -0.08957,0.024977 -0.04134,0.024116 -0.07235,0.074931 -0.03014,0.050815 -0.04823,0.1274686 -0.01722,0.076653 -0.01722,0.1817289 z m 0.454753,0.00345 q 0,-0.014642 -8.62e-4,-0.029283 -8.61e-4,-0.015503 -8.61e-4,-0.029283 L 97.76806,1.7571402 q 0.02756,0.083544 0.07751,0.1240235 0.04995,0.04048 0.116272,0.04048 0.04823,0 0.08957,-0.024977 0.0422,-0.024977 0.07235,-0.074931 0.03101,-0.050815 0.04823,-0.1274686 0.01723,-0.077515 0.01723,-0.1817289 z"
         id="path183-5" />
      <path
         d="m 99.372615,1.505648 q 0,0.1386652 -0.03014,0.2480471 -0.03014,0.1093818 -0.08871,0.185174 -0.05771,0.074931 -0.141249,0.1145495 -0.08354,0.039619 -0.191203,0.039619 -0.09302,0 -0.171394,-0.032728 -0.07838,-0.032729 -0.13522,-0.1024917 -0.05684,-0.070624 -0.08871,-0.1800063 -0.03187,-0.1093819 -0.03187,-0.2618275 0,-0.1386652 0.03014,-0.248047 0.03101,-0.1093819 0.08871,-0.1843127 0.0577,-0.075792 0.14211,-0.11541081 0.0844,-0.0396186 0.191203,-0.0396186 0.09302,0 0.171393,0.0327284 0.07838,0.0327284 0.134359,0.10249171 0.05684,0.069763 0.08871,0.179145 0.03187,0.1093819 0.03187,0.2626887 z m -0.666627,0.00345 q 0,0.017225 0,0.032728 0,0.014642 0.0017,0.030145 l 0.422047,-0.304896 q -0.03014,-0.085266 -0.0801,-0.125746 -0.04909,-0.041341 -0.116272,-0.041341 -0.04823,0 -0.08957,0.024977 -0.04134,0.024116 -0.07235,0.074931 -0.03014,0.050815 -0.04823,0.1274686 -0.01723,0.076653 -0.01723,0.1817289 z m 0.454753,0.00345 q 0,-0.014642 -8.61e-4,-0.029283 -8.61e-4,-0.015503 -8.61e-4,-0.029283 l -0.419441,0.3031686 q 0.02756,0.083544 0.07752,0.1240235 0.04995,0.04048 0.116272,0.04048 0.04823,0 0.08957,-0.024977 0.0422,-0.024977 0.07235,-0.074931 0.03101,-0.050815 0.04823,-0.1274686 0.01722,-0.077515 0.01722,-0.1817289 z"
         id="path185-2" />
    </g>
    <g
       aria-label="25"
       id="text966-0-99-1"
       style="font-style:normal;font-variant:normal;font-weight:bold;font-stretch:normal;font-size:1.76389px;line-height:1.25;font-family:Consolas;-inkscape-font-specification:'Consolas, Bold';font-variant-ligatures:normal;font-variant-caps:normal;font-variant-numeric:normal;font-variant-east-asian:normal;display:inline;fill:#ffffff;fill-opacity:1;stroke:none;stroke-width:0.264583"
       transform="translate(-21.665685,124.65487)">
      <path
         d="M 22.616538,2.0732279 V 1.9181985 l 0.266134,-0.2661338 q 0.07493,-0.074931 0.119717,-0.1291912 0.04565,-0.05426 0.06976,-0.096463 0.02498,-0.043064 0.03273,-0.079237 0.0078,-0.036174 0.0078,-0.074931 0,-0.031867 -0.01034,-0.060289 -0.01034,-0.029283 -0.03014,-0.049954 -0.01981,-0.021532 -0.04995,-0.03359 -0.03015,-0.012919 -0.0689,-0.012919 -0.06632,0 -0.123163,0.029283 -0.05684,0.028422 -0.107659,0.076654 L 22.611371,1.0784559 q 0.07321,-0.068041 0.164503,-0.10852056 0.09216,-0.0413412 0.198955,-0.0413412 0.08268,0 0.149861,0.0215319 0.06718,0.0206706 0.11455,0.0620118 0.04823,0.041341 0.07407,0.1033529 0.0267,0.062012 0.0267,0.1429716 0,0.067179 -0.01809,0.125746 -0.01809,0.057705 -0.05254,0.112827 -0.03445,0.055122 -0.08527,0.1102431 -0.04995,0.055122 -0.114549,0.1162721 l -0.163642,0.1558906 h 0.474562 v 0.1937868 z"
         style="stroke-width:0.264583"
         id="path166-8" />
      <path
         d="m 24.343394,1.7132152 q 0,0.090434 -0.0379,0.1610583 -0.0379,0.069763 -0.105076,0.1179946 -0.06718,0.048231 -0.158474,0.073208 -0.0913,0.024977 -0.198093,0.024977 -0.0267,0 -0.05685,-0.00172 -0.03014,-0.00172 -0.06115,-0.00431 -0.03101,-0.00258 -0.06029,-0.00689 -0.02928,-0.00345 -0.05426,-0.00775 V 1.8863313 q 0.04909,0.012058 0.112827,0.019809 0.06374,0.00689 0.130053,0.00689 0.129191,0 0.19637,-0.049093 0.06804,-0.049954 0.06804,-0.1378039 0,-0.091295 -0.06287,-0.1352201 -0.06287,-0.044786 -0.203261,-0.044786 H 23.631981 V 0.94754221 h 0.649401 V 1.1456353 h -0.45303 v 0.229099 h 0.08096 q 0.08613,0 0.164504,0.015503 0.07838,0.015503 0.137804,0.05426 0.06029,0.037896 0.0956,0.1033529 0.03617,0.065457 0.03617,0.1653647 z"
         style="stroke-width:0.264583"
         id="path168-6" />
    </g>
    <g
       aria-label="50"
       id="text966-0-3-4"
       style="font-style:normal;font-variant:normal;font-weight:bold;font-stretch:normal;font-size:1.76389px;line-height:1.25;font-family:Consolas;-inkscape-font-specification:'Consolas, Bold';font-variant-ligatures:normal;font-variant-caps:normal;font-variant-numeric:normal;font-variant-east-asian:normal;display:inline;fill:#ffffff;fill-opacity:1;stroke:none;stroke-width:0.264583"
       transform="translate(-46.758479,99.60519)">
      <path
         d="m 48.371874,1.7132152 q 0,0.090434 -0.0379,0.1610583 -0.0379,0.069763 -0.105075,0.1179946 -0.06718,0.048231 -0.158475,0.073208 -0.0913,0.024977 -0.198093,0.024977 -0.0267,0 -0.05684,-0.00172 -0.03015,-0.00172 -0.06115,-0.00431 -0.03101,-0.00258 -0.06029,-0.00689 -0.02928,-0.00345 -0.05426,-0.00775 V 1.8863313 q 0.04909,0.012058 0.112827,0.019809 0.06373,0.00689 0.130052,0.00689 0.129191,0 0.196371,-0.049093 0.06804,-0.049954 0.06804,-0.1378039 0,-0.091295 -0.06287,-0.1352201 -0.06287,-0.044786 -0.203261,-0.044786 H 47.660462 V 0.94754221 h 0.6494 V 1.1456353 h -0.45303 v 0.229099 h 0.08096 q 0.08613,0 0.164503,0.015503 0.07838,0.015503 0.137804,0.05426 0.06029,0.037896 0.0956,0.1033529 0.03617,0.065457 0.03617,0.1653647 z"
         style="stroke-width:0.264583"
         id="path171-2" />
      <path
         d="m 49.401097,1.505648 q 0,0.1386652 -0.03014,0.2480471 -0.03014,0.1093818 -0.08871,0.185174 -0.0577,0.074931 -0.141249,0.1145495 -0.08354,0.039619 -0.191203,0.039619 -0.09302,0 -0.171393,-0.032728 -0.07838,-0.032729 -0.13522,-0.1024917 -0.05684,-0.070624 -0.08871,-0.1800063 -0.03187,-0.1093819 -0.03187,-0.2618275 0,-0.1386652 0.03015,-0.248047 0.03101,-0.1093819 0.08871,-0.1843127 0.0577,-0.075792 0.14211,-0.11541081 0.0844,-0.0396186 0.191203,-0.0396186 0.09302,0 0.171394,0.0327284 0.07838,0.0327284 0.134359,0.10249171 0.05684,0.069763 0.08871,0.179145 0.03187,0.1093819 0.03187,0.2626887 z m -0.666626,0.00345 q 0,0.017225 0,0.032728 0,0.014642 0.0017,0.030145 l 0.422047,-0.304896 q -0.03014,-0.085266 -0.0801,-0.125746 -0.04909,-0.041341 -0.116272,-0.041341 -0.04823,0 -0.08957,0.024977 -0.04134,0.024116 -0.07235,0.074931 -0.03015,0.050815 -0.04823,0.1274686 -0.01723,0.076653 -0.01723,0.1817289 z m 0.454753,0.00345 q 0,-0.014642 -8.62e-4,-0.029283 -8.61e-4,-0.015503 -8.61e-4,-0.029283 L 48.76806,1.7571402 q 0.02756,0.083544 0.07751,0.1240235 0.04995,0.04048 0.116272,0.04048 0.04823,0 0.08957,-0.024977 0.0422,-0.024977 0.07235,-0.074931 0.03101,-0.050815 0.04823,-0.1274686 0.01723,-0.077515 0.01723,-0.1817289 z"
         style="stroke-width:0.264583"
         id="path173-7" />
    </g>
    <g
       aria-label="75"
       id="text966-0-7-6"
       style="font-style:normal;font-variant:normal;font-weight:bold;font-stretch:normal;font-size:1.76389px;line-height:1.25;font-family:Consolas;-inkscape-font-specification:'Consolas, Bold';font-variant-ligatures:normal;font-variant-caps:normal;font-variant-numeric:normal;font-variant-east-asian:normal;display:inline;fill:#ffffff;fill-opacity:1;stroke:none;stroke-width:0.264583"
       transform="translate(-71.57512,75.04448)">
      <path
         d="M 72.926595,2.0732279 H 72.688884 L 73.136746,1.150803 H 72.596727 V 0.94754221 h 0.782037 V 1.1309937 Z"
         style="stroke-width:0.264583"
         id="path176-3" />
      <path
         d="m 74.343392,1.7132152 q 0,0.090434 -0.0379,0.1610583 -0.0379,0.069763 -0.105076,0.1179946 -0.06718,0.048231 -0.158474,0.073208 -0.0913,0.024977 -0.198093,0.024977 -0.0267,0 -0.05684,-0.00172 -0.03014,-0.00172 -0.06115,-0.00431 -0.03101,-0.00258 -0.06029,-0.00689 -0.02928,-0.00345 -0.05426,-0.00775 V 1.8863313 q 0.04909,0.012058 0.112826,0.019809 0.06373,0.00689 0.130053,0.00689 0.129191,0 0.19637,-0.049093 0.06804,-0.049954 0.06804,-0.1378039 0,-0.091295 -0.06287,-0.1352201 -0.06287,-0.044786 -0.203261,-0.044786 H 73.631979 V 0.94754221 H 74.28138 V 1.1456353 h -0.45303 v 0.229099 h 0.08096 q 0.08613,0 0.164504,0.015503 0.07838,0.015503 0.137804,0.05426 0.06029,0.037896 0.0956,0.1033529 0.03617,0.065457 0.03617,0.1653647 z"
         style="stroke-width:0.264583"
         id="path178-3" />
    </g>
    <g
       aria-label="150"
       id="text966-0-5-1-6"
       style="font-style:normal;font-variant:normal;font-weight:bold;font-stretch:normal;font-size:1.76389px;line-height:1.25;font-family:Consolas;-inkscape-font-specification:'Consolas, Bold';font-variant-ligatures:normal;font-variant-caps:normal;font-variant-numeric:normal;font-variant-east-asian:normal;display:inline;fill:#ffffff;fill-opacity:1;stroke:none;stroke-width:0.264583"
       transform="translate(-145.49952,-0.01156767)">
      <path
         d="M 146.47099,2.0732279 V 1.8863313 h 0.2868 V 1.1628608 l -0.24977,0.1378039 -0.0689,-0.1713936 0.35743,-0.18861909 h 0.17656 V 1.8863313 h 0.24719 v 0.1868966 z"
         style="stroke-width:0.264583"
         id="path195-7" />
      <path
         d="m 148.17803,1.7132152 q 0,0.090434 -0.0379,0.1610583 -0.0379,0.069763 -0.10508,0.1179946 -0.0672,0.048231 -0.15847,0.073208 -0.0913,0.024977 -0.1981,0.024977 -0.0267,0 -0.0568,-0.00172 -0.0301,-0.00172 -0.0611,-0.00431 -0.031,-0.00258 -0.0603,-0.00689 -0.0293,-0.00345 -0.0543,-0.00775 V 1.8863313 q 0.0491,0.012058 0.11283,0.019809 0.0637,0.00689 0.13005,0.00689 0.12919,0 0.19637,-0.049093 0.068,-0.049954 0.068,-0.1378039 0,-0.091295 -0.0629,-0.1352201 -0.0629,-0.044786 -0.20326,-0.044786 h -0.22049 V 0.94754221 h 0.6494 V 1.1456353 h -0.45303 v 0.229099 h 0.081 q 0.0861,0 0.1645,0.015503 0.0784,0.015503 0.13781,0.05426 0.0603,0.037896 0.0956,0.1033529 0.0362,0.065457 0.0362,0.1653647 z"
         style="stroke-width:0.264583"
         id="path197-7" />
      <path
         d="m 149.20726,1.505648 q 0,0.1386652 -0.0301,0.2480471 -0.0301,0.1093818 -0.0887,0.185174 -0.0577,0.074931 -0.14125,0.1145495 -0.0835,0.039619 -0.1912,0.039619 -0.093,0 -0.1714,-0.032728 -0.0784,-0.032729 -0.13522,-0.1024917 -0.0568,-0.070624 -0.0887,-0.1800063 -0.0319,-0.1093819 -0.0319,-0.2618275 0,-0.1386652 0.0301,-0.248047 0.031,-0.1093819 0.0887,-0.1843127 0.0577,-0.075792 0.14211,-0.11541081 0.0844,-0.0396186 0.1912,-0.0396186 0.093,0 0.1714,0.0327284 0.0784,0.0327284 0.13436,0.10249171 0.0568,0.069763 0.0887,0.179145 0.0319,0.1093819 0.0319,0.2626879 z m -0.66663,0.00345 q 0,0.017225 0,0.032728 0,0.014642 0.002,0.030145 l 0.42203,-0.3048912 q -0.0301,-0.085266 -0.0801,-0.125746 -0.0491,-0.041341 -0.11627,-0.041341 -0.0482,0 -0.0896,0.024977 -0.0413,0.024116 -0.0723,0.074931 -0.0301,0.050815 -0.0482,0.1274686 -0.0172,0.076653 -0.0172,0.1817289 z m 0.45475,0.00345 q 0,-0.014642 -8.6e-4,-0.029283 -8.6e-4,-0.015503 -8.6e-4,-0.029283 l -0.41944,0.3031686 q 0.0276,0.083544 0.0775,0.1240235 0.05,0.04048 0.11628,0.04048 0.0482,0 0.0896,-0.024977 0.0422,-0.024977 0.0723,-0.074931 0.031,-0.050815 0.0482,-0.1274686 0.0172,-0.077515 0.0172,-0.1817289 z"
         style="stroke-width:0.264583"
         id="path199-0" />
    </g>
    <path
       id="path2643"
       d="M 0,0 H 165.125 V 150.52917 H 0 Z"
       style="fill:none;stroke:#ff0000;stroke-width:1.05106;stroke-linecap:round;stroke-linejoin:round;stroke-miterlimit:4;stroke-dasharray:none;stroke-opacity:1" />
  </g>
  <g
     inkscape:groupmode="layer"
     id="layer3"
     inkscape:label="Logo"
     style="display:inline">
    <path
       class="fil0"
       d="m 199.26243,63.154777 c 1.57567,-2.884644 2.41472,-5.948307 1.47992,-8.39423 -1.2251,-3.20555 -4.66669,-5.527505 -8.31024,-7.011462 -2.52943,-1.030301 -14.72547,-4.323622 -13.44059,-6.160047 2.14648,-3.069188 -2.06978,-4.692136 -4.58329,-6.902692 -6.70442,-5.894815 -9.12877,-8.614441 -15.90211,-11.988 -6.53315,-3.254097 -15.35662,-3.756922 -20.32323,-3.47185 13.24671,1.533523 24.7444,7.049796 19.7912,11.499436 -2.70396,2.429606 -8.48743,2.092963 -18.37278,-0.812587 -10.42766,-3.064912 -24.1348,-8.486947 -30.59474,-18.811792 2.90111,12.276853 20.30656,19.75325 32.64913,23.793233 -5.86003,1.260805 -9.31131,2.065279 -16.05289,4.91413 -9.44108,-1.994137 -19.60165,-2.33078 -28.827341,5.541324 9.675881,-3.927739 17.202601,-4.292465 19.805751,-1.29959 -4.32227,2.616248 -7.34686,4.850386 -9.98394,7.947571 -8.889664,2.289011 -13.846619,4.635525 -16.290895,11.101815 3.794699,-4.846819 8.351147,-7.019929 12.477745,-5.582335 -1.62043,3.270723 -2.38226,6.873274 -2.19491,10.919497 -3.872939,2.624762 -6.585933,6.152915 -7.234849,14.568986 2.216992,-6.915177 5.243709,-9.595569 7.953229,-9.345494 0.0525,0.236488 0.10604,0.474252 0.16424,0.713273 0.78245,3.220037 1.96738,5.940729 3.43544,8.449504 -3.3201,2.847198 -5.192764,6.665099 -4.10154,16.444323 0.30474,-6.709232 2.38586,-11.711176 6.84767,-12.587999 2.18919,2.819475 5.65917,7.225874 8.20093,10.551738 1.63582,2.140704 2.41977,5.417401 2.24067,8.857831 h 55.64392 c 3.86309,-18.261274 -27.38205,-24.462778 -35.53774,-30.350018 -3.68915,-2.663142 -6.46856,-8.249353 -5.28382,-12.180568 1.50818,-5.007296 6.02427,-9.63881 11.49067,-11.302854 2.3189,1.6669 3.59494,2.43259 4.49677,4.860191 2.77037,7.459457 4.33467,11.033612 16.90483,17.112529 3.50486,1.694584 7.10828,0.715859 10.23325,0.360046 -1.95813,-0.38474 -3.65782,-0.448664 -5.61665,-0.833004 1.80524,-0.29871 3.22287,-1.666897 3.60632,-2.500347 -2.47177,1.211815 -5.4599,0.997938 -8.96611,-0.640836 1.79284,-0.317874 4.12463,-1.090834 5.45505,-1.688206 -2.5758,0.118427 -6.37485,-0.247148 -7.56061,-1.248458 -0.97137,-0.820254 -2.07602,-2.082355 -2.43682,-3.193157 2.04918,1.025618 4.54775,0.11076 6.25153,-0.0034 -2.83728,-0.432035 -7.77174,-2.522057 -9.00383,-4.277171 -2.2026,-3.135611 -3.7947,-6.034786 -4.2101,-9.060652 4.68624,3.753489 9.69525,8.03405 14.12555,11.560957 5.18866,4.130158 11.55098,7.217403 17.61456,8.006411 4.87,0.633612 6.04043,0.983004 9.48528,4.213696 -1.69458,-4.775943 -6.26716,-4.91636 -8.63819,-5.61844 3.50027,-0.140604 7.00006,0.141031 11.00922,2.248088 -3.78283,-3.932864 -7.72865,-3.555342 -11.68719,-3.512727 -4.08972,0.04432 -10.16487,-1.689055 -14.90482,-5.758858 -4.78866,-4.11224 -8.84335,-7.348907 -13.32588,-13.074332 5.13616,1.207582 10.03614,3.671286 11.69046,8.237319 0.51883,-2.450468 0.003,-4.757667 -1.54581,-6.923198 2.69523,-0.227569 7.006,3.524674 11.07926,9.286653 0.0297,-2.05084 0.34438,-3.61374 -0.67846,-6.649053 4.35168,0.599913 6.84874,2.465399 9.3361,6.649053 1.09588,-1.630257 1.62402,-3.579684 -0.21993,-5.781593 5.01314,0.902454 6.23755,4.352152 8.13471,7.690363 0.51937,-1.810925 0.94555,-3.383636 1.36095,-4.216237 1.08767,-0.0281 2.83369,1.42788 2.86353,5.653211 z m -6.0248,-13.171511 c 0.86582,0.357063 2.26175,1.167954 2.47902,2.454348 -0.83598,-0.470419 -1.54683,-0.06008 -2.84249,-0.90932 -1.22761,-0.807862 -1.52104,-1.395471 -2.15624,-1.620849 0.8555,-0.178145 1.95705,-0.156824 2.51971,0.07581 z M 167.08878,36.830483 c 2.46669,1.020893 2.86508,1.659187 4.57456,4.413088 -2.5603,-1.64176 -3.97127,-0.149156 -5.89934,-1.377998 -1.781,-1.135145 -3.05239,-2.758984 -5.40766,-3.401555 2.43576,-0.503225 5.13098,-0.296113 6.73238,0.366465 z"
       id="path4842"
       style="fill:#ff0000;stroke-width:0.489947"
       clip-path="url(#clipPath5117)"
       transform="matrix(0.3186874,0,0,0.28972468,39.791819,110.30812)" />
    <path
       sodipodi:nodetypes="cccccscsccsssccscsscscccccccssssccsscssccsscsccscscsccscsscscscsssccsssccccsccsscsccscscsccscsscscscscccccssscccc"
       d="m 67.020638,134.55487 -2.1e-4,10.24981 h 35.291362 v -10.25 z m 8.12259,2.01941 c 0.66867,0 1.17978,0.20044 1.53295,0.60064 0.35605,0.40018 0.53409,0.97529 0.53409,1.72563 v 3.84905 h -1.76328 v -3.84905 c 0,-0.36782 -0.12846,-0.5519 -0.38609,-0.5519 -0.24896,0 -0.37361,0.18408 -0.37361,0.5519 v 3.84905 h -1.76274 v -3.91101 c 0,-0.68562 0.20102,-1.23423 0.60339,-1.6462 0.40526,-0.41196 0.94369,-0.61811 1.61529,-0.61811 z m 23.391391,0 c 0.57318,0 1.059504,0.20486 1.458984,0.61388 0.402347,0.409 0.603377,0.90595 0.603377,1.49151 0,0.33547 -0.0737,0.64755 -0.22145,0.93592 l -0.703417,1.39037 h 0.989997 v 1.74364 h -3.829781 l 1.90186,-3.62818 0.0651,-0.12394 c 0.0521,-0.097 0.0781,-0.19239 0.0781,-0.28655 0,-0.23835 -0.13768,-0.35752 -0.41267,-0.35752 -0.10711,0 -0.20084,0.041 -0.28189,0.12342 -0.0781,0.0795 -0.11724,0.17343 -0.11724,0.28231 0,0.12357 0.0521,0.23575 0.15631,0.33579 l -0.76022,1.37712 c -0.31842,-0.2001 -0.56285,-0.4548 -0.73365,-0.76376 -0.1708,-0.30897 -0.25637,-0.65013 -0.25637,-1.02384 0,-0.57969 0.20154,-1.07586 0.60391,-1.48782 0.40238,-0.4149 0.8887,-0.62235 1.45896,-0.62235 z m -28.037681,0.15042 h 1.53295 v 1.72988 h -1.12444 c -0.30395,0 -0.45593,0.10023 -0.45593,0.30031 0,0.11771 0.036,0.20027 0.10838,0.24736 0.0723,0.0442 0.20136,0.0662 0.38662,0.0662 h 0.97282 v 1.34164 h -1.15101 c -0.15631,0 -0.26742,0.0233 -0.334,0.0705 -0.0636,0.0471 -0.0958,0.12652 -0.0958,0.23834 0,0.12654 0.0335,0.2104 0.10005,0.2516 0.0665,0.0383 0.20243,0.0577 0.408,0.0577 h 1.1854 v 1.7214 h -1.38497 c -0.65132,0 -1.14941,-0.15761 -1.49388,-0.47246 -0.34448,-0.3178 -0.51689,-0.77554 -0.51689,-1.37289 v -2.36122 c 0,-0.57674 0.16245,-1.02384 0.48667,-1.34163 0.32711,-0.3178 0.78558,-0.4767 1.37612,-0.4767 z m 7.79453,0 h 2.29683 c 1.00739,0 1.79639,0.23211 2.36665,0.69704 0.67738,0.55614 1.01606,1.31091 1.01606,2.26429 0,0.91221 -0.28965,1.65685 -0.8686,2.23359 -0.57895,0.57674 -1.32453,0.86494 -2.23638,0.86494 -0.10712,0 -0.28208,-0.006 -0.52523,-0.0175 v -1.77012 h 0.28241 c 1.02764,0 1.54129,-0.43697 1.54129,-1.31092 0,-0.82097 -0.50497,-1.23145 -1.51523,-1.23145 h -0.59506 v 4.29502 h -1.76274 z m 8.25463,0 h 1.53242 v 1.72988 h -1.12444 c -0.30395,0 -0.45592,0.10023 -0.45592,0.30031 0,0.11771 0.036,0.20027 0.10837,0.24736 0.0723,0.0442 0.20136,0.0662 0.38663,0.0662 h 0.97231 v 1.34164 h -1.1505 c -0.15633,0 -0.26795,0.0233 -0.33453,0.0705 -0.0636,0.0471 -0.0953,0.12652 -0.0953,0.23834 0,0.12654 0.0334,0.2104 0.10006,0.2516 0.0666,0.0383 0.2025,0.0577 0.40799,0.0577 h 1.1854 v 1.7214 h -1.38497 c -0.65133,0 -1.1494,-0.15761 -1.49388,-0.47246 -0.34447,-0.3178 -0.51636,-0.77554 -0.51636,-1.37289 v -2.36122 c 0,-0.57674 0.16194,-1.02384 0.48615,-1.34163 0.32711,-0.3178 0.78609,-0.4767 1.37664,-0.4767 z m 2.54849,0 h 2.26245 c 0.68895,0 1.22304,0.17344 1.60225,0.52066 0.42265,0.38842 0.63361,0.88147 0.63361,1.47882 0,0.60911 -0.2618,1.1224 -0.78576,1.54025 l 1.01608,2.48517 h -1.84978 l -0.85557,-1.94227 v -1.54926 h 0.13913 c 0.37052,0 0.55596,-0.16201 0.55596,-0.4857 0,-0.28541 -0.21456,-0.42796 -0.64299,-0.42796 h -0.31263 v 4.40519 h -1.76275 z"
       style="display:inline;fill:#ffffff;stroke:#fdfdfd;stroke-width:0;stroke-linecap:butt;stroke-linejoin:round;stroke-miterlimit:4;stroke-dasharray:none;stroke-dashoffset:0"
       id="rect205" />
  </g>
</svg>
