<?xml version="1.0" encoding="UTF-8" standalone="no"?>
<svg
   sodipodi:docname="ender2pro.svg"
   inkscape:version="1.1.1 (c3084ef, 2021-09-22)"
   id="svg1883"
   version="1.1"
   viewBox="0 0 165 165"
   height="165mm"
   width="165mm"
   xmlns:inkscape="http://www.inkscape.org/namespaces/inkscape"
   xmlns:sodipodi="http://sodipodi.sourceforge.net/DTD/sodipodi-0.dtd"
   xmlns="http://www.w3.org/2000/svg"
   xmlns:svg="http://www.w3.org/2000/svg"
   xmlns:rdf="http://www.w3.org/1999/02/22-rdf-syntax-ns#"
   xmlns:cc="http://creativecommons.org/ns#"
   xmlns:dc="http://purl.org/dc/elements/1.1/">
  <defs
     id="defs1877">
    <clipPath
       clipPathUnits="userSpaceOnUse"
       id="clipPath5117">
      <rect
         style="fill:none;stroke:#ff0000;stroke-width:0.264583"
         id="rect5119"
         width="130.17416"
         height="67.649559"
         x="82.341125"
         y="10.933263" />
    </clipPath>
  </defs>
  <sodipodi:namedview
     inkscape:snap-page="false"
     inkscape:window-maximized="0"
     inkscape:window-y="25"
     inkscape:window-x="147"
     inkscape:window-height="1147"
     inkscape:window-width="1726"
     borderlayer="false"
     showgrid="false"
     inkscape:document-rotation="0"
     inkscape:current-layer="layer1"
     inkscape:document-units="mm"
     inkscape:cy="655.57567"
     inkscape:cx="1018.8623"
     inkscape:zoom="0.54227149"
     inkscape:pageshadow="2"
     inkscape:pageopacity="0"
     borderopacity="1"
     bordercolor="#f14bac"
     pagecolor="#5d5d5d"
     id="base"
     inkscape:pagecheckerboard="0"
     showguides="false"
     width="165mm">
    <inkscape:grid
       id="grid2446"
       type="xygrid" />
  </sodipodi:namedview>
  <metadata
     id="metadata1880">
    <rdf:RDF>
      <cc:Work
         rdf:about="">
        <dc:format>image/svg+xml</dc:format>
        <dc:type
           rdf:resource="http://purl.org/dc/dcmitype/StillImage" />
      </cc:Work>
    </rdf:RDF>
  </metadata>
  <g
     inkscape:label="Layer 2"
     id="layer2"
     inkscape:groupmode="layer"
     style="display:none" />
  <g
     id="layer1"
     inkscape:groupmode="layer"
     inkscape:label="Layer 1"
     style="display:inline">
    <path
       id="path2645"
       d="M 75.530508,0.57845144 V 164.79375"
       style="fill:none;stroke:#ff0000;stroke-width:0.7847;stroke-linecap:round;stroke-linejoin:round;stroke-miterlimit:4;stroke-dasharray:none;stroke-opacity:1" />
    <path
       id="path2647"
       d="M 0.58044805,90.52917 H 165.11622"
       style="fill:none;stroke:#ff0000;stroke-width:0.785499;stroke-linecap:round;stroke-linejoin:round;stroke-miterlimit:4;stroke-dasharray:none;stroke-opacity:1" />
    <path
       id="path2649"
       d="M 25.534746,0.57845144 V 164.79375"
       style="fill:none;stroke:#ff0000;stroke-width:0.523133;stroke-linecap:round;stroke-linejoin:round;stroke-miterlimit:4;stroke-dasharray:none;stroke-opacity:1" />
    <path
       id="path2651"
       d="M 50.532626,0.57845144 V 164.79375"
       style="fill:none;stroke:#ff0000;stroke-width:0.523133;stroke-linecap:round;stroke-linejoin:round;stroke-miterlimit:4;stroke-dasharray:none;stroke-opacity:1" />
    <path
       id="path2653"
       d="M 100.52839,0.57845144 V 164.79375"
       style="fill:none;stroke:#ff0000;stroke-width:0.523133;stroke-linecap:round;stroke-linejoin:round;stroke-miterlimit:4;stroke-dasharray:none;stroke-opacity:1" />
    <path
       id="path2655"
       d="M 125.52627,0.87189433 V 164.47358"
       style="fill:none;stroke:#ff0000;stroke-width:0.560885;stroke-linecap:round;stroke-linejoin:round;stroke-miterlimit:4;stroke-dasharray:none;stroke-opacity:1"
       sodipodi:nodetypes="cc" />
    <path
       id="path2655-8"
       d="M 150.79264,0.87285768 V 165.31054"
       style="display:inline;fill:none;stroke:#ff0000;stroke-width:0.562317;stroke-linecap:round;stroke-linejoin:round;stroke-miterlimit:4;stroke-dasharray:none;stroke-opacity:1"
       sodipodi:nodetypes="cc" />
    <path
       style="fill:none;stroke:#ff0000;stroke-width:0.524245;stroke-linecap:round;stroke-linejoin:round;stroke-miterlimit:4;stroke-dasharray:none;stroke-opacity:1"
       d="M 165.51657,40.529164 H 0.54505299"
       id="path2649-5" />
    <path
       style="display:inline;fill:none;stroke:#ff0000;stroke-width:0.524245;stroke-linecap:round;stroke-linejoin:round;stroke-miterlimit:4;stroke-dasharray:none;stroke-opacity:1"
       d="M 165.23364,15.262123 H 0.26212251"
       id="path2649-5-3" />
    <path
       style="fill:none;stroke:#ff0000;stroke-width:0.523665;stroke-linecap:round;stroke-linejoin:round;stroke-miterlimit:4;stroke-dasharray:none;stroke-opacity:1"
       d="M 165.11622,65.52917 H 0.58045005"
       id="path2651-4" />
    <path
       style="fill:none;stroke:#ff0000;stroke-width:0.524368;stroke-linecap:round;stroke-linejoin:round;stroke-miterlimit:4;stroke-dasharray:none;stroke-opacity:1"
       d="M 165.50753,115.52917 H 0.52917196"
       id="path2653-9" />
    <path
       style="fill:none;stroke:#ff0000;stroke-width:0.523391;stroke-linecap:round;stroke-linejoin:round;stroke-miterlimit:4;stroke-dasharray:none;stroke-opacity:1"
       d="M 164.89304,140.52917 H 0.52917196"
       id="path2655-5" />
    <path
       id="path2681"
       d="M 5.9196883,0 V 164.87285"
       style="fill:none;stroke:#fdfdfd;stroke-width:0.26164;stroke-linecap:butt;stroke-linejoin:miter;stroke-miterlimit:4;stroke-dasharray:0.52328, 0.26164;stroke-dashoffset:0;stroke-opacity:1" />
    <path
       id="path2683"
       d="M 10.520369,165.03963 V 0"
       style="fill:none;stroke:#fdfdfd;stroke-width:0.261772;stroke-linecap:butt;stroke-linejoin:miter;stroke-miterlimit:4;stroke-dasharray:0.523545, 0.261772;stroke-dashoffset:0;stroke-opacity:1" />
    <path
       id="path2685"
       d="M 15.538016,0.264587 V 165.26459"
       style="fill:none;stroke:#fdfdfd;stroke-width:0.261741;stroke-linecap:butt;stroke-linejoin:miter;stroke-miterlimit:4;stroke-dasharray:0.523482, 0.261741;stroke-dashoffset:0;stroke-opacity:1" />
    <path
       id="path2687"
       d="M 20.5613,164.71099 V 0.28900659"
       style="fill:none;stroke:#fdfdfd;stroke-width:0.261272;stroke-linecap:butt;stroke-linejoin:miter;stroke-miterlimit:4;stroke-dasharray:0.522543, 0.261272;stroke-dashoffset:0;stroke-opacity:1" />
    <path
       style="fill:none;stroke:#fdfdfd;stroke-width:0.261725;stroke-linecap:butt;stroke-linejoin:miter;stroke-miterlimit:4;stroke-dasharray:0.523448, 0.261725;stroke-dashoffset:0;stroke-opacity:1"
       d="M 30.516646,0 V 165"
       id="path2681-2" />
    <path
       style="fill:none;stroke:#fdfdfd;stroke-width:0.261725;stroke-linecap:butt;stroke-linejoin:miter;stroke-miterlimit:4;stroke-dasharray:0.523448, 0.261725;stroke-dashoffset:0;stroke-opacity:1"
       d="M 35.533664,165 V 0"
       id="path2683-1" />
    <path
       style="fill:none;stroke:#fdfdfd;stroke-width:0.261725;stroke-linecap:butt;stroke-linejoin:miter;stroke-miterlimit:4;stroke-dasharray:0.523448, 0.261725;stroke-dashoffset:0;stroke-opacity:1"
       d="M 40.550681,0 V 165"
       id="path2685-5" />
    <path
       style="fill:none;stroke:#fdfdfd;stroke-width:0.261272;stroke-linecap:butt;stroke-linejoin:miter;stroke-miterlimit:4;stroke-dasharray:0.522542, 0.261272;stroke-dashoffset:0;stroke-opacity:1"
       d="M 45.568153,164.42199 V 0"
       id="path2687-4" />
    <path
       style="fill:none;stroke:#fdfdfd;stroke-width:0.261272;stroke-linecap:butt;stroke-linejoin:miter;stroke-miterlimit:4;stroke-dasharray:0.522542, 0.261272;stroke-dashoffset:0;stroke-opacity:1"
       d="M 55.496817,0.5780088 V 165"
       id="path2681-9" />
    <path
       style="fill:none;stroke:#fdfdfd;stroke-width:0.261272;stroke-linecap:butt;stroke-linejoin:miter;stroke-miterlimit:4;stroke-dasharray:0.522542, 0.261272;stroke-dashoffset:0;stroke-opacity:1"
       d="M 60.514061,165 V 0.5780088"
       id="path2683-8" />
    <path
       style="fill:none;stroke:#fdfdfd;stroke-width:0.261272;stroke-linecap:butt;stroke-linejoin:miter;stroke-miterlimit:4;stroke-dasharray:0.522542, 0.261272;stroke-dashoffset:0;stroke-opacity:1"
       d="M 65.531304,0.5780088 V 165"
       id="path2685-4" />
    <path
       style="fill:none;stroke:#fdfdfd;stroke-width:0.261272;stroke-linecap:butt;stroke-linejoin:miter;stroke-miterlimit:4;stroke-dasharray:0.522542, 0.261272;stroke-dashoffset:0;stroke-opacity:1"
       d="M 70.548551,165 V 0.5780088"
       id="path2687-7" />
    <path
       style="fill:none;stroke:#fdfdfd;stroke-width:0.261272;stroke-linecap:butt;stroke-linejoin:miter;stroke-miterlimit:4;stroke-dasharray:0.522542, 0.261272;stroke-dashoffset:0;stroke-opacity:1"
       d="M 80.530126,0 V 164.42199"
       id="path2681-3" />
    <path
       style="fill:none;stroke:#fdfdfd;stroke-width:0.261272;stroke-linecap:butt;stroke-linejoin:miter;stroke-miterlimit:4;stroke-dasharray:0.522542, 0.261272;stroke-dashoffset:0;stroke-opacity:1"
       d="M 85.54737,164.42199 V 0"
       id="path2683-6" />
    <path
       style="fill:none;stroke:#fdfdfd;stroke-width:0.261272;stroke-linecap:butt;stroke-linejoin:miter;stroke-miterlimit:4;stroke-dasharray:0.522542, 0.261272;stroke-dashoffset:0;stroke-opacity:1"
       d="M 90.564613,0 V 164.42199"
       id="path2685-3" />
    <path
       style="fill:none;stroke:#fdfdfd;stroke-width:0.261272;stroke-linecap:butt;stroke-linejoin:miter;stroke-miterlimit:4;stroke-dasharray:0.522542, 0.261272;stroke-dashoffset:0;stroke-opacity:1"
       d="M 95.58186,164.42199 V 0"
       id="path2687-44" />
    <path
       style="fill:none;stroke:#fdfdfd;stroke-width:0.261272;stroke-linecap:butt;stroke-linejoin:miter;stroke-miterlimit:4;stroke-dasharray:0.522542, 0.261272;stroke-dashoffset:0;stroke-opacity:1"
       d="M 105.49288,0.5780088 V 165"
       id="path2681-36" />
    <path
       style="fill:none;stroke:#fdfdfd;stroke-width:0.281274;stroke-linecap:butt;stroke-linejoin:miter;stroke-miterlimit:4;stroke-dasharray:0.562548, 0.281274;stroke-dashoffset:0;stroke-opacity:1"
       d="M 110.52826,165.15637 110.51066,0.57801013"
       id="path2683-5"
       sodipodi:nodetypes="cc" />
    <path
       style="fill:none;stroke:#fdfdfd;stroke-width:0.281418;stroke-linecap:butt;stroke-linejoin:miter;stroke-miterlimit:4;stroke-dasharray:0.562835, 0.281418;stroke-dashoffset:0;stroke-opacity:1"
       d="M 115.5277,0.57801013 V 165.32422"
       id="path2685-7"
       sodipodi:nodetypes="cc" />
    <path
       style="fill:none;stroke:#fdfdfd;stroke-width:0.280358;stroke-linecap:butt;stroke-linejoin:miter;stroke-miterlimit:4;stroke-dasharray:0.560715, 0.280358;stroke-dashoffset:0;stroke-opacity:1"
       d="M 120.52706,165.57798 120.5445,0.57800881"
       id="path2687-48"
       sodipodi:nodetypes="cc" />
    <path
       style="fill:none;stroke:#fdfdfd;stroke-width:0.281385;stroke-linecap:butt;stroke-linejoin:miter;stroke-miterlimit:4;stroke-dasharray:0.56277, 0.281385;stroke-dashoffset:0;stroke-opacity:1"
       d="M 130.4908,0.57783524 130.526,165.46252"
       id="path2681-0"
       sodipodi:nodetypes="cc" />
    <path
       style="fill:none;stroke:#fdfdfd;stroke-width:0.281639;stroke-linecap:butt;stroke-linejoin:miter;stroke-miterlimit:4;stroke-dasharray:0.563276, 0.281639;stroke-dashoffset:0;stroke-opacity:1"
       d="M 135.52581,165.57801 V 0.5780088"
       id="path2683-0"
       sodipodi:nodetypes="cc" />
    <path
       style="fill:none;stroke:#fdfdfd;stroke-width:0.262188;stroke-linecap:butt;stroke-linejoin:miter;stroke-miterlimit:4;stroke-dasharray:0.524374, 0.262188;stroke-dashoffset:0;stroke-opacity:1"
       d="M 140.52494,0.57801013 V 165.5778"
       id="path2685-2"
       sodipodi:nodetypes="cc" />
    <path
       style="fill:none;stroke:#fdfdfd;stroke-width:0.261272;stroke-linecap:butt;stroke-linejoin:miter;stroke-miterlimit:4;stroke-dasharray:0.522542, 0.261272;stroke-dashoffset:0;stroke-opacity:1"
       d="M 145.54265,165 V 0.5780088"
       id="path2687-47" />
    <path
       style="display:inline;fill:none;stroke:#fdfdfd;stroke-width:0.261272;stroke-linecap:butt;stroke-linejoin:miter;stroke-miterlimit:4;stroke-dasharray:0.522542, 0.261272;stroke-dashoffset:0;stroke-opacity:1"
       d="M 155.64922,165 V 0.5780088"
       id="path2687-47-0" />
    <path
       style="display:inline;fill:none;stroke:#fdfdfd;stroke-width:0.261272;stroke-linecap:butt;stroke-linejoin:miter;stroke-miterlimit:4;stroke-dasharray:0.522542, 0.261272;stroke-dashoffset:0;stroke-opacity:1"
       d="M 160.64882,165 V 0.5780088"
       id="path2687-47-0-7" />
    <path
       style="fill:none;stroke:#fdfdfd;stroke-width:0.262123;stroke-linecap:butt;stroke-linejoin:miter;stroke-miterlimit:4;stroke-dasharray:0.524245, 0.262123;stroke-dashoffset:0;stroke-opacity:1"
       d="M 165.22557,20.493667 0.54504999,20.537746"
       id="path2681-39"
       sodipodi:nodetypes="cc" />
    <path
       style="display:inline;fill:none;stroke:#fdfdfd;stroke-width:0.262123;stroke-linecap:butt;stroke-linejoin:miter;stroke-miterlimit:4;stroke-dasharray:0.524245, 0.262123;stroke-dashoffset:0;stroke-opacity:1"
       d="M 164.68096,10.131062 3.5081211e-5,10.175141"
       id="path2681-39-3"
       sodipodi:nodetypes="cc" />
    <path
       style="display:inline;fill:none;stroke:#fdfdfd;stroke-width:0.262123;stroke-linecap:butt;stroke-linejoin:miter;stroke-miterlimit:4;stroke-dasharray:0.524245, 0.262123;stroke-dashoffset:0;stroke-opacity:1"
       d="M 164.68096,5.1310615 3.5081115e-5,5.1751415"
       id="path2681-39-3-8"
       sodipodi:nodetypes="cc" />
    <path
       style="fill:none;stroke:#fdfdfd;stroke-width:0.262123;stroke-linecap:butt;stroke-linejoin:miter;stroke-miterlimit:4;stroke-dasharray:0.524245, 0.262123;stroke-dashoffset:0;stroke-opacity:1"
       d="M 0.54504999,25.5356 165.22557,25.509153"
       id="path2683-3"
       sodipodi:nodetypes="cc" />
    <path
       style="fill:none;stroke:#fdfdfd;stroke-width:0.262123;stroke-linecap:butt;stroke-linejoin:miter;stroke-miterlimit:4;stroke-dasharray:0.524245, 0.262123;stroke-dashoffset:0;stroke-opacity:1"
       d="M 165.22557,30.524638 0.54504999,30.533438"
       id="path2685-51"
       sodipodi:nodetypes="cc" />
    <path
       style="fill:none;stroke:#fdfdfd;stroke-width:0.262123;stroke-linecap:butt;stroke-linejoin:miter;stroke-miterlimit:4;stroke-dasharray:0.524245, 0.262123;stroke-dashoffset:0;stroke-opacity:1"
       d="M 0.54504999,35.53131 165.22557,35.54011"
       id="path2687-486"
       sodipodi:nodetypes="cc" />
    <path
       id="path2681-2-1"
       d="M 165.51657,45.527019 H 0.54504999"
       style="fill:none;stroke:#fdfdfd;stroke-width:0.262123;stroke-linecap:butt;stroke-linejoin:miter;stroke-miterlimit:4;stroke-dasharray:0.524245, 0.262123;stroke-dashoffset:0;stroke-opacity:1"
       sodipodi:nodetypes="cc" />
    <path
       id="path2683-1-9"
       d="M 0.54504999,50.524885 165.54534,50.507252"
       style="fill:none;stroke:#fdfdfd;stroke-width:0.262146;stroke-linecap:butt;stroke-linejoin:miter;stroke-miterlimit:4;stroke-dasharray:0.524291, 0.262146;stroke-dashoffset:0;stroke-opacity:1"
       sodipodi:nodetypes="cc" />
    <path
       id="path2685-5-4"
       d="M 165.54534,55.522736 H 0.54504999"
       style="fill:none;stroke:#fdfdfd;stroke-width:0.262146;stroke-linecap:butt;stroke-linejoin:miter;stroke-miterlimit:4;stroke-dasharray:0.524291, 0.262146;stroke-dashoffset:0;stroke-opacity:1"
       sodipodi:nodetypes="cc" />
    <path
       id="path2687-4-9"
       d="M 0.54504999,60.520587 165.54534,60.538217"
       style="fill:none;stroke:#fdfdfd;stroke-width:0.262146;stroke-linecap:butt;stroke-linejoin:miter;stroke-miterlimit:4;stroke-dasharray:0.524291, 0.262146;stroke-dashoffset:0;stroke-opacity:1"
       sodipodi:nodetypes="cc" />
    <path
       id="path2681-9-6"
       d="M 165.58068,70.476641 0.58045405,70.529551"
       style="fill:none;stroke:#fdfdfd;stroke-width:0.262646;stroke-linecap:butt;stroke-linejoin:miter;stroke-miterlimit:4;stroke-dasharray:0.525289, 0.262646;stroke-dashoffset:0;stroke-opacity:1"
       sodipodi:nodetypes="cc" />
    <path
       id="path2683-8-0"
       d="M 0.58045405,75.528767 165.58068,75.493493"
       style="fill:none;stroke:#fdfdfd;stroke-width:0.262646;stroke-linecap:butt;stroke-linejoin:miter;stroke-miterlimit:4;stroke-dasharray:0.525289, 0.262646;stroke-dashoffset:0;stroke-opacity:1"
       sodipodi:nodetypes="cc" />
    <path
       id="path2685-4-7"
       d="M 165.58074,80.511567 0.58045405,80.529107"
       style="fill:none;stroke:#fdfdfd;stroke-width:0.261952;stroke-linecap:butt;stroke-linejoin:miter;stroke-miterlimit:4;stroke-dasharray:0.523902, 0.261952;stroke-dashoffset:0;stroke-opacity:1"
       sodipodi:nodetypes="cc" />
    <path
       id="path2681-3-7"
       d="M 165.11622,95.51153 0.58044805,95.52917"
       style="fill:none;stroke:#fdfdfd;stroke-width:0.261833;stroke-linecap:butt;stroke-linejoin:miter;stroke-miterlimit:4;stroke-dasharray:0.523665, 0.261833;stroke-dashoffset:0;stroke-opacity:1"
       sodipodi:nodetypes="cc" />
    <path
       id="path2683-6-0"
       d="M 0.58004105,100.52912 H 165.00027"
       style="fill:none;stroke:#fdfdfd;stroke-width:0.261742;stroke-linecap:butt;stroke-linejoin:miter;stroke-miterlimit:4;stroke-dasharray:0.523482, 0.261742;stroke-dashoffset:0;stroke-opacity:1"
       sodipodi:nodetypes="cc" />
    <path
       id="path2685-3-3"
       d="M 165.00027,105.54679 H 0"
       style="fill:none;stroke:#fdfdfd;stroke-width:0.261742;stroke-linecap:butt;stroke-linejoin:miter;stroke-miterlimit:4;stroke-dasharray:0.523482, 0.261742;stroke-dashoffset:0;stroke-opacity:1" />
    <path
       id="path2687-44-3"
       d="M 0.58004105,110.52917 165.00027,110.56447"
       style="fill:none;stroke:#fdfdfd;stroke-width:0.261742;stroke-linecap:butt;stroke-linejoin:miter;stroke-miterlimit:4;stroke-dasharray:0.523482, 0.261742;stroke-dashoffset:0;stroke-opacity:1"
       sodipodi:nodetypes="cc" />
    <path
       id="path2681-36-5"
       d="M 164.99143,120.4763 0.52879796,120.5292"
       style="fill:none;stroke:#fdfdfd;stroke-width:0.262238;stroke-linecap:butt;stroke-linejoin:miter;stroke-miterlimit:4;stroke-dasharray:0.524475, 0.262238;stroke-dashoffset:0;stroke-opacity:1"
       sodipodi:nodetypes="cc" />
    <path
       id="path2683-5-1"
       d="M 0.52916996,125.52915 165.06013,125.49385"
       style="fill:none;stroke:#fdfdfd;stroke-width:0.262293;stroke-linecap:butt;stroke-linejoin:miter;stroke-miterlimit:4;stroke-dasharray:0.524584, 0.262293;stroke-dashoffset:0;stroke-opacity:1"
       sodipodi:nodetypes="cc" />
    <path
       id="path2685-7-5"
       d="M 165.06013,130.51153 0.52916996,130.52917"
       style="fill:none;stroke:#fdfdfd;stroke-width:0.262293;stroke-linecap:butt;stroke-linejoin:miter;stroke-miterlimit:4;stroke-dasharray:0.524584, 0.262293;stroke-dashoffset:0;stroke-opacity:1"
       sodipodi:nodetypes="cc" />
    <path
       id="path2687-48-9"
       d="M 0.52916996,135.52919 H 165.52944"
       style="fill:none;stroke:#fdfdfd;stroke-width:0.262667;stroke-linecap:butt;stroke-linejoin:miter;stroke-miterlimit:4;stroke-dasharray:0.525332, 0.262667;stroke-dashoffset:0;stroke-opacity:1"
       sodipodi:nodetypes="cc" />
    <path
       id="path2681-0-8"
       d="M 165.52947,145.52917 H 0.52916996"
       style="fill:none;stroke:#fdfdfd;stroke-width:0.262202;stroke-linecap:butt;stroke-linejoin:miter;stroke-miterlimit:4;stroke-dasharray:0.524404, 0.262202;stroke-dashoffset:0;stroke-opacity:1"
       sodipodi:nodetypes="cc" />
    <path
       id="path2683-0-5"
       d="M 0.52916996,150.52917 H 165.52947"
       style="fill:none;stroke:#fdfdfd;stroke-width:0.313391;stroke-linecap:butt;stroke-linejoin:miter;stroke-miterlimit:4;stroke-dasharray:0.626782, 0.313391;stroke-dashoffset:0;stroke-opacity:1"
       sodipodi:nodetypes="cc" />
    <path
       id="path2685-2-7"
       d="M 165.52947,155.52917 H 0.52916996"
       style="fill:none;stroke:#fdfdfd;stroke-width:0.262202;stroke-linecap:butt;stroke-linejoin:miter;stroke-miterlimit:4;stroke-dasharray:0.524404, 0.262202;stroke-dashoffset:0;stroke-opacity:1"
       sodipodi:nodetypes="cc" />
    <path
       id="path2687-47-6"
       d="M 0.52916996,160.52917 H 165.52947"
       style="fill:none;stroke:#fdfdfd;stroke-width:0.262666;stroke-linecap:butt;stroke-linejoin:miter;stroke-miterlimit:4;stroke-dasharray:0.525331, 0.262666;stroke-dashoffset:0;stroke-opacity:1"
       sodipodi:nodetypes="cc" />
    <g
       transform="matrix(1.0000018,0,0,1,0.57252904,162.62872)"
       style="font-style:normal;font-variant:normal;font-weight:bold;font-stretch:normal;font-size:1.76389px;line-height:1.25;font-family:Consolas;-inkscape-font-specification:'Consolas, Bold';font-variant-ligatures:normal;font-variant-caps:normal;font-variant-numeric:normal;font-variant-east-asian:normal;display:inline;fill:#ffffff;fill-opacity:1;stroke:none;stroke-width:0.264583"
       id="text966-0-4"
       aria-label="125">
      <path
         id="path188"
         d="M 121.63635,2.0732279 V 1.8863313 h 0.2868 V 1.1628608 l -0.24977,0.1378039 -0.0689,-0.1713936 0.35743,-0.18861909 h 0.17656 V 1.8863313 h 0.24718 v 0.1868966 z" />
      <path
         id="path190"
         d="M 122.58805,2.0732279 V 1.9181985 l 0.26614,-0.2661338 q 0.0749,-0.074931 0.11972,-0.1291912 0.0456,-0.05426 0.0698,-0.096463 0.025,-0.043064 0.0327,-0.079237 0.008,-0.036174 0.008,-0.074931 0,-0.031867 -0.0103,-0.060289 -0.0103,-0.029283 -0.0301,-0.049954 -0.0198,-0.021532 -0.05,-0.03359 -0.0301,-0.012919 -0.0689,-0.012919 -0.0663,0 -0.12316,0.029283 -0.0568,0.028422 -0.10766,0.076654 l -0.1111,-0.1429716 q 0.0732,-0.068041 0.1645,-0.10852056 0.0922,-0.0413412 0.19895,-0.0413412 0.0827,0 0.14987,0.0215319 0.0672,0.0206706 0.11455,0.0620118 0.0482,0.041341 0.0741,0.1033529 0.0267,0.062012 0.0267,0.1429716 0,0.067179 -0.0181,0.125746 -0.0181,0.057705 -0.0525,0.112827 -0.0344,0.055122 -0.0853,0.1102431 -0.0499,0.055122 -0.11455,0.1162721 l -0.16364,0.1558906 h 0.47456 v 0.1937868 z" />
      <path
         id="path192"
         d="m 124.31491,1.7132152 q 0,0.090434 -0.0379,0.1610583 -0.0379,0.069763 -0.10507,0.1179946 -0.0672,0.048231 -0.15848,0.073208 -0.0913,0.024977 -0.19809,0.024977 -0.0267,0 -0.0568,-0.00172 -0.0301,-0.00172 -0.0611,-0.00431 -0.031,-0.00258 -0.0603,-0.00689 -0.0293,-0.00345 -0.0543,-0.00775 V 1.8863313 q 0.0491,0.012058 0.11282,0.019809 0.0637,0.00689 0.13006,0.00689 0.12919,0 0.19637,-0.049093 0.068,-0.049954 0.068,-0.1378039 0,-0.091295 -0.0629,-0.1352201 -0.0629,-0.044786 -0.20326,-0.044786 H 123.6035 V 0.94754221 h 0.6494 V 1.1456353 h -0.45303 v 0.229099 h 0.081 q 0.0861,0 0.1645,0.015503 0.0784,0.015503 0.1378,0.05426 0.0603,0.037896 0.0956,0.1033529 0.0362,0.065457 0.0362,0.1653647 z" />
    </g>
    <g
       transform="matrix(1.0000018,0,0,1,0.57252904,162.62872)"
       style="font-style:normal;font-variant:normal;font-weight:bold;font-stretch:normal;font-size:1.76389px;line-height:1.25;font-family:Consolas;-inkscape-font-specification:'Consolas, Bold';font-variant-ligatures:normal;font-variant-caps:normal;font-variant-numeric:normal;font-variant-east-asian:normal;display:inline;fill:#ffffff;fill-opacity:1;stroke:none;stroke-width:0.264583"
       id="text966-0-9"
       aria-label="100">
      <path
         id="path181"
         d="M 96.636346,2.0732279 V 1.8863313 H 96.92315 V 1.1628608 l -0.249769,0.1378039 -0.0689,-0.1713936 0.357429,-0.18861909 h 0.176561 V 1.8863313 h 0.247186 v 0.1868966 z" />
      <path
         id="path183"
         d="m 98.401097,1.505648 q 0,0.1386652 -0.03014,0.2480471 -0.03015,0.1093818 -0.08871,0.185174 -0.0577,0.074931 -0.141249,0.1145495 -0.08354,0.039619 -0.191203,0.039619 -0.09302,0 -0.171393,-0.032728 -0.07838,-0.032729 -0.13522,-0.1024917 -0.05684,-0.070624 -0.08871,-0.1800063 -0.03187,-0.1093819 -0.03187,-0.2618275 0,-0.1386652 0.03014,-0.248047 0.03101,-0.1093819 0.08871,-0.1843127 0.0577,-0.075792 0.14211,-0.11541081 0.08441,-0.0396186 0.191203,-0.0396186 0.09302,0 0.171394,0.0327284 0.07838,0.0327284 0.134359,0.10249171 0.05684,0.069763 0.08871,0.179145 0.03187,0.1093819 0.03187,0.2626887 z m -0.666626,0.00345 q 0,0.017225 0,0.032728 0,0.014642 0.0017,0.030145 l 0.422047,-0.304896 q -0.03015,-0.085266 -0.0801,-0.125746 -0.04909,-0.041341 -0.116272,-0.041341 -0.04823,0 -0.08957,0.024977 -0.04134,0.024116 -0.07235,0.074931 -0.03014,0.050815 -0.04823,0.1274686 -0.01722,0.076653 -0.01722,0.1817289 z m 0.454753,0.00345 q 0,-0.014642 -8.62e-4,-0.029283 -8.61e-4,-0.015503 -8.61e-4,-0.029283 L 97.76806,1.7571402 q 0.02756,0.083544 0.07751,0.1240235 0.04995,0.04048 0.116272,0.04048 0.04823,0 0.08957,-0.024977 0.0422,-0.024977 0.07235,-0.074931 0.03101,-0.050815 0.04823,-0.1274686 0.01723,-0.077515 0.01723,-0.1817289 z" />
      <path
         id="path185"
         d="m 99.372615,1.505648 q 0,0.1386652 -0.03014,0.2480471 -0.03014,0.1093818 -0.08871,0.185174 -0.05771,0.074931 -0.141249,0.1145495 -0.08354,0.039619 -0.191203,0.039619 -0.09302,0 -0.171394,-0.032728 -0.07838,-0.032729 -0.13522,-0.1024917 -0.05684,-0.070624 -0.08871,-0.1800063 -0.03187,-0.1093819 -0.03187,-0.2618275 0,-0.1386652 0.03014,-0.248047 0.03101,-0.1093819 0.08871,-0.1843127 0.0577,-0.075792 0.14211,-0.11541081 0.0844,-0.0396186 0.191203,-0.0396186 0.09302,0 0.171393,0.0327284 0.07838,0.0327284 0.134359,0.10249171 0.05684,0.069763 0.08871,0.179145 0.03187,0.1093819 0.03187,0.2626887 z m -0.666627,0.00345 q 0,0.017225 0,0.032728 0,0.014642 0.0017,0.030145 l 0.422047,-0.304896 q -0.03014,-0.085266 -0.0801,-0.125746 -0.04909,-0.041341 -0.116272,-0.041341 -0.04823,0 -0.08957,0.024977 -0.04134,0.024116 -0.07235,0.074931 -0.03014,0.050815 -0.04823,0.1274686 -0.01723,0.076653 -0.01723,0.1817289 z m 0.454753,0.00345 q 0,-0.014642 -8.61e-4,-0.029283 -8.61e-4,-0.015503 -8.61e-4,-0.029283 l -0.419441,0.3031686 q 0.02756,0.083544 0.07752,0.1240235 0.04995,0.04048 0.116272,0.04048 0.04823,0 0.08957,-0.024977 0.0422,-0.024977 0.07235,-0.074931 0.03101,-0.050815 0.04823,-0.1274686 0.01722,-0.077515 0.01722,-0.1817289 z" />
    </g>
    <g
       transform="matrix(1.0000018,0,0,1,0.57252904,162.62872)"
       style="font-style:normal;font-variant:normal;font-weight:bold;font-stretch:normal;font-size:1.76389px;line-height:1.25;font-family:Consolas;-inkscape-font-specification:'Consolas, Bold';font-variant-ligatures:normal;font-variant-caps:normal;font-variant-numeric:normal;font-variant-east-asian:normal;display:inline;fill:#ffffff;fill-opacity:1;stroke:none;stroke-width:0.264583"
       id="text966-0-99"
       aria-label="25">
      <path
         id="path166"
         style="stroke-width:0.264583"
         d="M 22.616538,2.0732279 V 1.9181985 l 0.266134,-0.2661338 q 0.07493,-0.074931 0.119717,-0.1291912 0.04565,-0.05426 0.06976,-0.096463 0.02498,-0.043064 0.03273,-0.079237 0.0078,-0.036174 0.0078,-0.074931 0,-0.031867 -0.01034,-0.060289 -0.01034,-0.029283 -0.03014,-0.049954 -0.01981,-0.021532 -0.04995,-0.03359 -0.03015,-0.012919 -0.0689,-0.012919 -0.06632,0 -0.123163,0.029283 -0.05684,0.028422 -0.107659,0.076654 L 22.611371,1.0784559 q 0.07321,-0.068041 0.164503,-0.10852056 0.09216,-0.0413412 0.198955,-0.0413412 0.08268,0 0.149861,0.0215319 0.06718,0.0206706 0.11455,0.0620118 0.04823,0.041341 0.07407,0.1033529 0.0267,0.062012 0.0267,0.1429716 0,0.067179 -0.01809,0.125746 -0.01809,0.057705 -0.05254,0.112827 -0.03445,0.055122 -0.08527,0.1102431 -0.04995,0.055122 -0.114549,0.1162721 l -0.163642,0.1558906 h 0.474562 v 0.1937868 z" />
      <path
         id="path168"
         style="stroke-width:0.264583"
         d="m 24.343394,1.7132152 q 0,0.090434 -0.0379,0.1610583 -0.0379,0.069763 -0.105076,0.1179946 -0.06718,0.048231 -0.158474,0.073208 -0.0913,0.024977 -0.198093,0.024977 -0.0267,0 -0.05685,-0.00172 -0.03014,-0.00172 -0.06115,-0.00431 -0.03101,-0.00258 -0.06029,-0.00689 -0.02928,-0.00345 -0.05426,-0.00775 V 1.8863313 q 0.04909,0.012058 0.112827,0.019809 0.06374,0.00689 0.130053,0.00689 0.129191,0 0.19637,-0.049093 0.06804,-0.049954 0.06804,-0.1378039 0,-0.091295 -0.06287,-0.1352201 -0.06287,-0.044786 -0.203261,-0.044786 H 23.631981 V 0.94754221 h 0.649401 V 1.1456353 h -0.45303 v 0.229099 h 0.08096 q 0.08613,0 0.164504,0.015503 0.07838,0.015503 0.137804,0.05426 0.06029,0.037896 0.0956,0.1033529 0.03617,0.065457 0.03617,0.1653647 z" />
    </g>
    <g
       transform="matrix(1.0000018,0,0,1,0.57252904,162.62872)"
       style="font-style:normal;font-variant:normal;font-weight:bold;font-stretch:normal;font-size:1.76389px;line-height:1.25;font-family:Consolas;-inkscape-font-specification:'Consolas, Bold';font-variant-ligatures:normal;font-variant-caps:normal;font-variant-numeric:normal;font-variant-east-asian:normal;display:inline;fill:#ffffff;fill-opacity:1;stroke:none;stroke-width:0.264583"
       id="text966-0-3"
       aria-label="50">
      <path
         id="path171"
         style="stroke-width:0.264583"
         d="m 48.371874,1.7132152 q 0,0.090434 -0.0379,0.1610583 -0.0379,0.069763 -0.105075,0.1179946 -0.06718,0.048231 -0.158475,0.073208 -0.0913,0.024977 -0.198093,0.024977 -0.0267,0 -0.05684,-0.00172 -0.03015,-0.00172 -0.06115,-0.00431 -0.03101,-0.00258 -0.06029,-0.00689 -0.02928,-0.00345 -0.05426,-0.00775 V 1.8863313 q 0.04909,0.012058 0.112827,0.019809 0.06373,0.00689 0.130052,0.00689 0.129191,0 0.196371,-0.049093 0.06804,-0.049954 0.06804,-0.1378039 0,-0.091295 -0.06287,-0.1352201 -0.06287,-0.044786 -0.203261,-0.044786 H 47.660462 V 0.94754221 h 0.6494 V 1.1456353 h -0.45303 v 0.229099 h 0.08096 q 0.08613,0 0.164503,0.015503 0.07838,0.015503 0.137804,0.05426 0.06029,0.037896 0.0956,0.1033529 0.03617,0.065457 0.03617,0.1653647 z" />
      <path
         id="path173"
         style="stroke-width:0.264583"
         d="m 49.401097,1.505648 q 0,0.1386652 -0.03014,0.2480471 -0.03014,0.1093818 -0.08871,0.185174 -0.0577,0.074931 -0.141249,0.1145495 -0.08354,0.039619 -0.191203,0.039619 -0.09302,0 -0.171393,-0.032728 -0.07838,-0.032729 -0.13522,-0.1024917 -0.05684,-0.070624 -0.08871,-0.1800063 -0.03187,-0.1093819 -0.03187,-0.2618275 0,-0.1386652 0.03015,-0.248047 0.03101,-0.1093819 0.08871,-0.1843127 0.0577,-0.075792 0.14211,-0.11541081 0.0844,-0.0396186 0.191203,-0.0396186 0.09302,0 0.171394,0.0327284 0.07838,0.0327284 0.134359,0.10249171 0.05684,0.069763 0.08871,0.179145 0.03187,0.1093819 0.03187,0.2626887 z m -0.666626,0.00345 q 0,0.017225 0,0.032728 0,0.014642 0.0017,0.030145 l 0.422047,-0.304896 q -0.03014,-0.085266 -0.0801,-0.125746 -0.04909,-0.041341 -0.116272,-0.041341 -0.04823,0 -0.08957,0.024977 -0.04134,0.024116 -0.07235,0.074931 -0.03015,0.050815 -0.04823,0.1274686 -0.01723,0.076653 -0.01723,0.1817289 z m 0.454753,0.00345 q 0,-0.014642 -8.62e-4,-0.029283 -8.61e-4,-0.015503 -8.61e-4,-0.029283 L 48.76806,1.7571402 q 0.02756,0.083544 0.07751,0.1240235 0.04995,0.04048 0.116272,0.04048 0.04823,0 0.08957,-0.024977 0.0422,-0.024977 0.07235,-0.074931 0.03101,-0.050815 0.04823,-0.1274686 0.01723,-0.077515 0.01723,-0.1817289 z" />
    </g>
    <g
       transform="matrix(1.0000018,0,0,1,0.57252904,162.62872)"
       style="font-style:normal;font-variant:normal;font-weight:bold;font-stretch:normal;font-size:1.76389px;line-height:1.25;font-family:Consolas;-inkscape-font-specification:'Consolas, Bold';font-variant-ligatures:normal;font-variant-caps:normal;font-variant-numeric:normal;font-variant-east-asian:normal;display:inline;fill:#ffffff;fill-opacity:1;stroke:none;stroke-width:0.264583"
       id="text966-0-7"
       aria-label="75">
      <path
         id="path176"
         style="stroke-width:0.264583"
         d="M 72.926595,2.0732279 H 72.688884 L 73.136746,1.150803 H 72.596727 V 0.94754221 h 0.782037 V 1.1309937 Z" />
      <path
         id="path178"
         style="stroke-width:0.264583"
         d="m 74.343392,1.7132152 q 0,0.090434 -0.0379,0.1610583 -0.0379,0.069763 -0.105076,0.1179946 -0.06718,0.048231 -0.158474,0.073208 -0.0913,0.024977 -0.198093,0.024977 -0.0267,0 -0.05684,-0.00172 -0.03014,-0.00172 -0.06115,-0.00431 -0.03101,-0.00258 -0.06029,-0.00689 -0.02928,-0.00345 -0.05426,-0.00775 V 1.8863313 q 0.04909,0.012058 0.112826,0.019809 0.06373,0.00689 0.130053,0.00689 0.129191,0 0.19637,-0.049093 0.06804,-0.049954 0.06804,-0.1378039 0,-0.091295 -0.06287,-0.1352201 -0.06287,-0.044786 -0.203261,-0.044786 H 73.631979 V 0.94754221 H 74.28138 V 1.1456353 h -0.45303 v 0.229099 h 0.08096 q 0.08613,0 0.164504,0.015503 0.07838,0.015503 0.137804,0.05426 0.06029,0.037896 0.0956,0.1033529 0.03617,0.065457 0.03617,0.1653647 z" />
    </g>
    <g
       transform="matrix(1.0000018,0,0,1,0.57252904,162.62872)"
       style="font-style:normal;font-variant:normal;font-weight:bold;font-stretch:normal;font-size:1.76389px;line-height:1.25;font-family:Consolas;-inkscape-font-specification:'Consolas, Bold';font-variant-ligatures:normal;font-variant-caps:normal;font-variant-numeric:normal;font-variant-east-asian:normal;display:inline;fill:#ffffff;fill-opacity:1;stroke:none;stroke-width:0.264583"
       id="text966-0-5-1"
       aria-label="150">
      <path
         id="path195"
         style="stroke-width:0.264583"
         d="M 146.47099,2.0732279 V 1.8863313 h 0.2868 V 1.1628608 l -0.24977,0.1378039 -0.0689,-0.1713936 0.35743,-0.18861909 h 0.17656 V 1.8863313 h 0.24719 v 0.1868966 z" />
      <path
         id="path197"
         style="stroke-width:0.264583"
         d="m 148.17803,1.7132152 q 0,0.090434 -0.0379,0.1610583 -0.0379,0.069763 -0.10508,0.1179946 -0.0672,0.048231 -0.15847,0.073208 -0.0913,0.024977 -0.1981,0.024977 -0.0267,0 -0.0568,-0.00172 -0.0301,-0.00172 -0.0611,-0.00431 -0.031,-0.00258 -0.0603,-0.00689 -0.0293,-0.00345 -0.0543,-0.00775 V 1.8863313 q 0.0491,0.012058 0.11283,0.019809 0.0637,0.00689 0.13005,0.00689 0.12919,0 0.19637,-0.049093 0.068,-0.049954 0.068,-0.1378039 0,-0.091295 -0.0629,-0.1352201 -0.0629,-0.044786 -0.20326,-0.044786 h -0.22049 V 0.94754221 h 0.6494 V 1.1456353 h -0.45303 v 0.229099 h 0.081 q 0.0861,0 0.1645,0.015503 0.0784,0.015503 0.13781,0.05426 0.0603,0.037896 0.0956,0.1033529 0.0362,0.065457 0.0362,0.1653647 z" />
      <path
         id="path199"
         style="stroke-width:0.264583"
         d="m 149.20726,1.505648 q 0,0.1386652 -0.0301,0.2480471 -0.0301,0.1093818 -0.0887,0.185174 -0.0577,0.074931 -0.14125,0.1145495 -0.0835,0.039619 -0.1912,0.039619 -0.093,0 -0.1714,-0.032728 -0.0784,-0.032729 -0.13522,-0.1024917 -0.0568,-0.070624 -0.0887,-0.1800063 -0.0319,-0.1093819 -0.0319,-0.2618275 0,-0.1386652 0.0301,-0.248047 0.031,-0.1093819 0.0887,-0.1843127 0.0577,-0.075792 0.14211,-0.11541081 0.0844,-0.0396186 0.1912,-0.0396186 0.093,0 0.1714,0.0327284 0.0784,0.0327284 0.13436,0.10249171 0.0568,0.069763 0.0887,0.179145 0.0319,0.1093819 0.0319,0.2626879 z m -0.66663,0.00345 q 0,0.017225 0,0.032728 0,0.014642 0.002,0.030145 l 0.42203,-0.3048912 q -0.0301,-0.085266 -0.0801,-0.125746 -0.0491,-0.041341 -0.11627,-0.041341 -0.0482,0 -0.0896,0.024977 -0.0413,0.024116 -0.0723,0.074931 -0.0301,0.050815 -0.0482,0.1274686 -0.0172,0.076653 -0.0172,0.1817289 z m 0.45475,0.00345 q 0,-0.014642 -8.6e-4,-0.029283 -8.6e-4,-0.015503 -8.6e-4,-0.029283 l -0.41944,0.3031686 q 0.0276,0.083544 0.0775,0.1240235 0.05,0.04048 0.11628,0.04048 0.0482,0 0.0896,-0.024977 0.0422,-0.024977 0.0723,-0.074931 0.031,-0.050815 0.0482,-0.1274686 0.0172,-0.077515 0.0172,-0.1817289 z" />
    </g>
    <path
       sodipodi:nodetypes="cc"
       style="display:inline;fill:none;stroke:#fdfdfd;stroke-width:0.261833;stroke-linecap:butt;stroke-linejoin:miter;stroke-miterlimit:4;stroke-dasharray:0.523665, 0.261833;stroke-dashoffset:0;stroke-opacity:1"
       d="M 165.11622,85.52917 1.1608971,85.54681"
       id="path2685-4-7-5" />
    <g
       style="font-style:normal;font-variant:normal;font-weight:normal;font-stretch:normal;font-size:8.81944px;line-height:1.25;font-family:'Bauhaus 93';-inkscape-font-specification:'Bauhaus 93, Normal';font-variant-ligatures:normal;font-variant-caps:normal;font-variant-numeric:normal;font-variant-east-asian:normal;display:inline;fill:#000000;fill-opacity:1;stroke:none;stroke-width:0.264583"
       id="text893"
       aria-label="ENDER 2">
      <g
         id="g220" />
    </g>
    <g
       aria-label="125"
       id="text966-0-4-0"
       style="font-style:normal;font-variant:normal;font-weight:bold;font-stretch:normal;font-size:1.76389px;line-height:1.25;font-family:Consolas;-inkscape-font-specification:'Consolas, Bold';font-variant-ligatures:normal;font-variant-caps:normal;font-variant-numeric:normal;font-variant-east-asian:normal;display:inline;fill:#ffffff;fill-opacity:1;stroke:none;stroke-width:0.264583"
       transform="matrix(1.0000018,0,0,1,-120.0522,40.34553)">
      <path
         d="M 121.63635,2.0732279 V 1.8863313 h 0.2868 V 1.1628608 l -0.24977,0.1378039 -0.0689,-0.1713936 0.35743,-0.18861909 h 0.17656 V 1.8863313 h 0.24718 v 0.1868966 z"
         id="path188-1" />
      <path
         d="M 122.58805,2.0732279 V 1.9181985 l 0.26614,-0.2661338 q 0.0749,-0.074931 0.11972,-0.1291912 0.0456,-0.05426 0.0698,-0.096463 0.025,-0.043064 0.0327,-0.079237 0.008,-0.036174 0.008,-0.074931 0,-0.031867 -0.0103,-0.060289 -0.0103,-0.029283 -0.0301,-0.049954 -0.0198,-0.021532 -0.05,-0.03359 -0.0301,-0.012919 -0.0689,-0.012919 -0.0663,0 -0.12316,0.029283 -0.0568,0.028422 -0.10766,0.076654 l -0.1111,-0.1429716 q 0.0732,-0.068041 0.1645,-0.10852056 0.0922,-0.0413412 0.19895,-0.0413412 0.0827,0 0.14987,0.0215319 0.0672,0.0206706 0.11455,0.0620118 0.0482,0.041341 0.0741,0.1033529 0.0267,0.062012 0.0267,0.1429716 0,0.067179 -0.0181,0.125746 -0.0181,0.057705 -0.0525,0.112827 -0.0344,0.055122 -0.0853,0.1102431 -0.0499,0.055122 -0.11455,0.1162721 l -0.16364,0.1558906 h 0.47456 v 0.1937868 z"
         id="path190-2" />
      <path
         d="m 124.31491,1.7132152 q 0,0.090434 -0.0379,0.1610583 -0.0379,0.069763 -0.10507,0.1179946 -0.0672,0.048231 -0.15848,0.073208 -0.0913,0.024977 -0.19809,0.024977 -0.0267,0 -0.0568,-0.00172 -0.0301,-0.00172 -0.0611,-0.00431 -0.031,-0.00258 -0.0603,-0.00689 -0.0293,-0.00345 -0.0543,-0.00775 V 1.8863313 q 0.0491,0.012058 0.11282,0.019809 0.0637,0.00689 0.13006,0.00689 0.12919,0 0.19637,-0.049093 0.068,-0.049954 0.068,-0.1378039 0,-0.091295 -0.0629,-0.1352201 -0.0629,-0.044786 -0.20326,-0.044786 H 123.6035 V 0.94754221 h 0.6494 V 1.1456353 h -0.45303 v 0.229099 h 0.081 q 0.0861,0 0.1645,0.015503 0.0784,0.015503 0.1378,0.05426 0.0603,0.037896 0.0956,0.1033529 0.0362,0.065457 0.0362,0.1653647 z"
         id="path192-3" />
    </g>
    <g
       aria-label="100"
       id="text966-0-9-0"
       style="font-style:normal;font-variant:normal;font-weight:bold;font-stretch:normal;font-size:1.76389px;line-height:1.25;font-family:Consolas;-inkscape-font-specification:'Consolas, Bold';font-variant-ligatures:normal;font-variant-caps:normal;font-variant-numeric:normal;font-variant-east-asian:normal;display:inline;fill:#ffffff;fill-opacity:1;stroke:none;stroke-width:0.264583"
       transform="matrix(1.0000018,0,0,1,-95.236042,65.165623)">
      <path
         d="M 96.636346,2.0732279 V 1.8863313 H 96.92315 V 1.1628608 l -0.249769,0.1378039 -0.0689,-0.1713936 0.357429,-0.18861909 h 0.176561 V 1.8863313 h 0.247186 v 0.1868966 z"
         id="path181-5" />
      <path
         d="m 98.401097,1.505648 q 0,0.1386652 -0.03014,0.2480471 -0.03015,0.1093818 -0.08871,0.185174 -0.0577,0.074931 -0.141249,0.1145495 -0.08354,0.039619 -0.191203,0.039619 -0.09302,0 -0.171393,-0.032728 -0.07838,-0.032729 -0.13522,-0.1024917 -0.05684,-0.070624 -0.08871,-0.1800063 -0.03187,-0.1093819 -0.03187,-0.2618275 0,-0.1386652 0.03014,-0.248047 0.03101,-0.1093819 0.08871,-0.1843127 0.0577,-0.075792 0.14211,-0.11541081 0.08441,-0.0396186 0.191203,-0.0396186 0.09302,0 0.171394,0.0327284 0.07838,0.0327284 0.134359,0.10249171 0.05684,0.069763 0.08871,0.179145 0.03187,0.1093819 0.03187,0.2626887 z m -0.666626,0.00345 q 0,0.017225 0,0.032728 0,0.014642 0.0017,0.030145 l 0.422047,-0.304896 q -0.03015,-0.085266 -0.0801,-0.125746 -0.04909,-0.041341 -0.116272,-0.041341 -0.04823,0 -0.08957,0.024977 -0.04134,0.024116 -0.07235,0.074931 -0.03014,0.050815 -0.04823,0.1274686 -0.01722,0.076653 -0.01722,0.1817289 z m 0.454753,0.00345 q 0,-0.014642 -8.62e-4,-0.029283 -8.61e-4,-0.015503 -8.61e-4,-0.029283 L 97.76806,1.7571402 q 0.02756,0.083544 0.07751,0.1240235 0.04995,0.04048 0.116272,0.04048 0.04823,0 0.08957,-0.024977 0.0422,-0.024977 0.07235,-0.074931 0.03101,-0.050815 0.04823,-0.1274686 0.01723,-0.077515 0.01723,-0.1817289 z"
         id="path183-5" />
      <path
         d="m 99.372615,1.505648 q 0,0.1386652 -0.03014,0.2480471 -0.03014,0.1093818 -0.08871,0.185174 -0.05771,0.074931 -0.141249,0.1145495 -0.08354,0.039619 -0.191203,0.039619 -0.09302,0 -0.171394,-0.032728 -0.07838,-0.032729 -0.13522,-0.1024917 -0.05684,-0.070624 -0.08871,-0.1800063 -0.03187,-0.1093819 -0.03187,-0.2618275 0,-0.1386652 0.03014,-0.248047 0.03101,-0.1093819 0.08871,-0.1843127 0.0577,-0.075792 0.14211,-0.11541081 0.0844,-0.0396186 0.191203,-0.0396186 0.09302,0 0.171393,0.0327284 0.07838,0.0327284 0.134359,0.10249171 0.05684,0.069763 0.08871,0.179145 0.03187,0.1093819 0.03187,0.2626887 z m -0.666627,0.00345 q 0,0.017225 0,0.032728 0,0.014642 0.0017,0.030145 l 0.422047,-0.304896 q -0.03014,-0.085266 -0.0801,-0.125746 -0.04909,-0.041341 -0.116272,-0.041341 -0.04823,0 -0.08957,0.024977 -0.04134,0.024116 -0.07235,0.074931 -0.03014,0.050815 -0.04823,0.1274686 -0.01723,0.076653 -0.01723,0.1817289 z m 0.454753,0.00345 q 0,-0.014642 -8.61e-4,-0.029283 -8.61e-4,-0.015503 -8.61e-4,-0.029283 l -0.419441,0.3031686 q 0.02756,0.083544 0.07752,0.1240235 0.04995,0.04048 0.116272,0.04048 0.04823,0 0.08957,-0.024977 0.0422,-0.024977 0.07235,-0.074931 0.03101,-0.050815 0.04823,-0.1274686 0.01722,-0.077515 0.01722,-0.1817289 z"
         id="path185-2" />
    </g>
    <g
       aria-label="25"
       id="text966-0-99-1"
       style="font-style:normal;font-variant:normal;font-weight:bold;font-stretch:normal;font-size:1.76389px;line-height:1.25;font-family:Consolas;-inkscape-font-specification:'Consolas, Bold';font-variant-ligatures:normal;font-variant-caps:normal;font-variant-numeric:normal;font-variant-east-asian:normal;display:inline;fill:#ffffff;fill-opacity:1;stroke:none;stroke-width:0.264583"
       transform="matrix(1.0000018,0,0,1,-21.136554,140.18404)">
      <path
         d="M 22.616538,2.0732279 V 1.9181985 l 0.266134,-0.2661338 q 0.07493,-0.074931 0.119717,-0.1291912 0.04565,-0.05426 0.06976,-0.096463 0.02498,-0.043064 0.03273,-0.079237 0.0078,-0.036174 0.0078,-0.074931 0,-0.031867 -0.01034,-0.060289 -0.01034,-0.029283 -0.03014,-0.049954 -0.01981,-0.021532 -0.04995,-0.03359 -0.03015,-0.012919 -0.0689,-0.012919 -0.06632,0 -0.123163,0.029283 -0.05684,0.028422 -0.107659,0.076654 L 22.611371,1.0784559 q 0.07321,-0.068041 0.164503,-0.10852056 0.09216,-0.0413412 0.198955,-0.0413412 0.08268,0 0.149861,0.0215319 0.06718,0.0206706 0.11455,0.0620118 0.04823,0.041341 0.07407,0.1033529 0.0267,0.062012 0.0267,0.1429716 0,0.067179 -0.01809,0.125746 -0.01809,0.057705 -0.05254,0.112827 -0.03445,0.055122 -0.08527,0.1102431 -0.04995,0.055122 -0.114549,0.1162721 l -0.163642,0.1558906 h 0.474562 v 0.1937868 z"
         style="stroke-width:0.264583"
         id="path166-8" />
      <path
         d="m 24.343394,1.7132152 q 0,0.090434 -0.0379,0.1610583 -0.0379,0.069763 -0.105076,0.1179946 -0.06718,0.048231 -0.158474,0.073208 -0.0913,0.024977 -0.198093,0.024977 -0.0267,0 -0.05685,-0.00172 -0.03014,-0.00172 -0.06115,-0.00431 -0.03101,-0.00258 -0.06029,-0.00689 -0.02928,-0.00345 -0.05426,-0.00775 V 1.8863313 q 0.04909,0.012058 0.112827,0.019809 0.06374,0.00689 0.130053,0.00689 0.129191,0 0.19637,-0.049093 0.06804,-0.049954 0.06804,-0.1378039 0,-0.091295 -0.06287,-0.1352201 -0.06287,-0.044786 -0.203261,-0.044786 H 23.631981 V 0.94754221 h 0.649401 V 1.1456353 h -0.45303 v 0.229099 h 0.08096 q 0.08613,0 0.164504,0.015503 0.07838,0.015503 0.137804,0.05426 0.06029,0.037896 0.0956,0.1033529 0.03617,0.065457 0.03617,0.1653647 z"
         style="stroke-width:0.264583"
         id="path168-6" />
    </g>
    <g
       aria-label="50"
       id="text966-0-3-4"
       style="font-style:normal;font-variant:normal;font-weight:bold;font-stretch:normal;font-size:1.76389px;line-height:1.25;font-family:Consolas;-inkscape-font-specification:'Consolas, Bold';font-variant-ligatures:normal;font-variant-caps:normal;font-variant-numeric:normal;font-variant-east-asian:normal;display:inline;fill:#ffffff;fill-opacity:1;stroke:none;stroke-width:0.264583"
       transform="matrix(1.0000018,0,0,1,-46.229394,115.13436)">
      <path
         d="m 48.371874,1.7132152 q 0,0.090434 -0.0379,0.1610583 -0.0379,0.069763 -0.105075,0.1179946 -0.06718,0.048231 -0.158475,0.073208 -0.0913,0.024977 -0.198093,0.024977 -0.0267,0 -0.05684,-0.00172 -0.03015,-0.00172 -0.06115,-0.00431 -0.03101,-0.00258 -0.06029,-0.00689 -0.02928,-0.00345 -0.05426,-0.00775 V 1.8863313 q 0.04909,0.012058 0.112827,0.019809 0.06373,0.00689 0.130052,0.00689 0.129191,0 0.196371,-0.049093 0.06804,-0.049954 0.06804,-0.1378039 0,-0.091295 -0.06287,-0.1352201 -0.06287,-0.044786 -0.203261,-0.044786 H 47.660462 V 0.94754221 h 0.6494 V 1.1456353 h -0.45303 v 0.229099 h 0.08096 q 0.08613,0 0.164503,0.015503 0.07838,0.015503 0.137804,0.05426 0.06029,0.037896 0.0956,0.1033529 0.03617,0.065457 0.03617,0.1653647 z"
         style="stroke-width:0.264583"
         id="path171-2" />
      <path
         d="m 49.401097,1.505648 q 0,0.1386652 -0.03014,0.2480471 -0.03014,0.1093818 -0.08871,0.185174 -0.0577,0.074931 -0.141249,0.1145495 -0.08354,0.039619 -0.191203,0.039619 -0.09302,0 -0.171393,-0.032728 -0.07838,-0.032729 -0.13522,-0.1024917 -0.05684,-0.070624 -0.08871,-0.1800063 -0.03187,-0.1093819 -0.03187,-0.2618275 0,-0.1386652 0.03015,-0.248047 0.03101,-0.1093819 0.08871,-0.1843127 0.0577,-0.075792 0.14211,-0.11541081 0.0844,-0.0396186 0.191203,-0.0396186 0.09302,0 0.171394,0.0327284 0.07838,0.0327284 0.134359,0.10249171 0.05684,0.069763 0.08871,0.179145 0.03187,0.1093819 0.03187,0.2626887 z m -0.666626,0.00345 q 0,0.017225 0,0.032728 0,0.014642 0.0017,0.030145 l 0.422047,-0.304896 q -0.03014,-0.085266 -0.0801,-0.125746 -0.04909,-0.041341 -0.116272,-0.041341 -0.04823,0 -0.08957,0.024977 -0.04134,0.024116 -0.07235,0.074931 -0.03015,0.050815 -0.04823,0.1274686 -0.01723,0.076653 -0.01723,0.1817289 z m 0.454753,0.00345 q 0,-0.014642 -8.62e-4,-0.029283 -8.61e-4,-0.015503 -8.61e-4,-0.029283 L 48.76806,1.7571402 q 0.02756,0.083544 0.07751,0.1240235 0.04995,0.04048 0.116272,0.04048 0.04823,0 0.08957,-0.024977 0.0422,-0.024977 0.07235,-0.074931 0.03101,-0.050815 0.04823,-0.1274686 0.01723,-0.077515 0.01723,-0.1817289 z"
         style="stroke-width:0.264583"
         id="path173-7" />
    </g>
    <g
       aria-label="75"
       id="text966-0-7-6"
       style="font-style:normal;font-variant:normal;font-weight:bold;font-stretch:normal;font-size:1.76389px;line-height:1.25;font-family:Consolas;-inkscape-font-specification:'Consolas, Bold';font-variant-ligatures:normal;font-variant-caps:normal;font-variant-numeric:normal;font-variant-east-asian:normal;display:inline;fill:#ffffff;fill-opacity:1;stroke:none;stroke-width:0.264583"
       transform="matrix(1.0000018,0,0,1,-71.046079,90.57365)">
      <path
         d="M 72.926595,2.0732279 H 72.688884 L 73.136746,1.150803 H 72.596727 V 0.94754221 h 0.782037 V 1.1309937 Z"
         style="stroke-width:0.264583"
         id="path176-3" />
      <path
         d="m 74.343392,1.7132152 q 0,0.090434 -0.0379,0.1610583 -0.0379,0.069763 -0.105076,0.1179946 -0.06718,0.048231 -0.158474,0.073208 -0.0913,0.024977 -0.198093,0.024977 -0.0267,0 -0.05684,-0.00172 -0.03014,-0.00172 -0.06115,-0.00431 -0.03101,-0.00258 -0.06029,-0.00689 -0.02928,-0.00345 -0.05426,-0.00775 V 1.8863313 q 0.04909,0.012058 0.112826,0.019809 0.06373,0.00689 0.130053,0.00689 0.129191,0 0.19637,-0.049093 0.06804,-0.049954 0.06804,-0.1378039 0,-0.091295 -0.06287,-0.1352201 -0.06287,-0.044786 -0.203261,-0.044786 H 73.631979 V 0.94754221 H 74.28138 V 1.1456353 h -0.45303 v 0.229099 h 0.08096 q 0.08613,0 0.164504,0.015503 0.07838,0.015503 0.137804,0.05426 0.06029,0.037896 0.0956,0.1033529 0.03617,0.065457 0.03617,0.1653647 z"
         style="stroke-width:0.264583"
         id="path178-3" />
    </g>
    <g
       aria-label="150"
       id="text966-0-5-1-6"
       style="font-style:normal;font-variant:normal;font-weight:bold;font-stretch:normal;font-size:1.76389px;line-height:1.25;font-family:Consolas;-inkscape-font-specification:'Consolas, Bold';font-variant-ligatures:normal;font-variant-caps:normal;font-variant-numeric:normal;font-variant-east-asian:normal;display:inline;fill:#ffffff;fill-opacity:1;stroke:none;stroke-width:0.264583"
       transform="matrix(1.0000018,0,0,1,-144.97061,15.517603)">
      <path
         d="M 146.47099,2.0732279 V 1.8863313 h 0.2868 V 1.1628608 l -0.24977,0.1378039 -0.0689,-0.1713936 0.35743,-0.18861909 h 0.17656 V 1.8863313 h 0.24719 v 0.1868966 z"
         style="stroke-width:0.264583"
         id="path195-7" />
      <path
         d="m 148.17803,1.7132152 q 0,0.090434 -0.0379,0.1610583 -0.0379,0.069763 -0.10508,0.1179946 -0.0672,0.048231 -0.15847,0.073208 -0.0913,0.024977 -0.1981,0.024977 -0.0267,0 -0.0568,-0.00172 -0.0301,-0.00172 -0.0611,-0.00431 -0.031,-0.00258 -0.0603,-0.00689 -0.0293,-0.00345 -0.0543,-0.00775 V 1.8863313 q 0.0491,0.012058 0.11283,0.019809 0.0637,0.00689 0.13005,0.00689 0.12919,0 0.19637,-0.049093 0.068,-0.049954 0.068,-0.1378039 0,-0.091295 -0.0629,-0.1352201 -0.0629,-0.044786 -0.20326,-0.044786 h -0.22049 V 0.94754221 h 0.6494 V 1.1456353 h -0.45303 v 0.229099 h 0.081 q 0.0861,0 0.1645,0.015503 0.0784,0.015503 0.13781,0.05426 0.0603,0.037896 0.0956,0.1033529 0.0362,0.065457 0.0362,0.1653647 z"
         style="stroke-width:0.264583"
         id="path197-7" />
      <path
         d="m 149.20726,1.505648 q 0,0.1386652 -0.0301,0.2480471 -0.0301,0.1093818 -0.0887,0.185174 -0.0577,0.074931 -0.14125,0.1145495 -0.0835,0.039619 -0.1912,0.039619 -0.093,0 -0.1714,-0.032728 -0.0784,-0.032729 -0.13522,-0.1024917 -0.0568,-0.070624 -0.0887,-0.1800063 -0.0319,-0.1093819 -0.0319,-0.2618275 0,-0.1386652 0.0301,-0.248047 0.031,-0.1093819 0.0887,-0.1843127 0.0577,-0.075792 0.14211,-0.11541081 0.0844,-0.0396186 0.1912,-0.0396186 0.093,0 0.1714,0.0327284 0.0784,0.0327284 0.13436,0.10249171 0.0568,0.069763 0.0887,0.179145 0.0319,0.1093819 0.0319,0.2626879 z m -0.66663,0.00345 q 0,0.017225 0,0.032728 0,0.014642 0.002,0.030145 l 0.42203,-0.3048912 q -0.0301,-0.085266 -0.0801,-0.125746 -0.0491,-0.041341 -0.11627,-0.041341 -0.0482,0 -0.0896,0.024977 -0.0413,0.024116 -0.0723,0.074931 -0.0301,0.050815 -0.0482,0.1274686 -0.0172,0.076653 -0.0172,0.1817289 z m 0.45475,0.00345 q 0,-0.014642 -8.6e-4,-0.029283 -8.6e-4,-0.015503 -8.6e-4,-0.029283 l -0.41944,0.3031686 q 0.0276,0.083544 0.0775,0.1240235 0.05,0.04048 0.11628,0.04048 0.0482,0 0.0896,-0.024977 0.0422,-0.024977 0.0723,-0.074931 0.031,-0.050815 0.0482,-0.1274686 0.0172,-0.077515 0.0172,-0.1817289 z"
         style="stroke-width:0.264583"
         id="path199-0" />
    </g>
    <path
       id="path2643"
       d="M 0.52916996,0.49903255 H 165.65447 V 166.05834 H 0.52916996 Z"
       style="fill:none;stroke:#ff0000;stroke-width:1.10228;stroke-linecap:round;stroke-linejoin:round;stroke-miterlimit:4;stroke-dasharray:none;stroke-opacity:1" />
  </g>
  <g
     inkscape:groupmode="layer"
     id="layer3"
     inkscape:label="Logo"
     style="display:inline">
    <path
       class="fil0"
       d="m 199.26243,63.154777 c 1.57567,-2.884644 2.41472,-5.948307 1.47992,-8.39423 -1.2251,-3.20555 -4.66669,-5.527505 -8.31024,-7.011462 -2.52943,-1.030301 -14.72547,-4.323622 -13.44059,-6.160047 2.14648,-3.069188 -2.06978,-4.692136 -4.58329,-6.902692 -6.70442,-5.894815 -9.12877,-8.614441 -15.90211,-11.988 -6.53315,-3.254097 -15.35662,-3.756922 -20.32323,-3.47185 13.24671,1.533523 24.7444,7.049796 19.7912,11.499436 -2.70396,2.429606 -8.48743,2.092963 -18.37278,-0.812587 -10.42766,-3.064912 -24.1348,-8.486947 -30.59474,-18.811792 2.90111,12.276853 20.30656,19.75325 32.64913,23.793233 -5.86003,1.260805 -9.31131,2.065279 -16.05289,4.91413 -9.44108,-1.994137 -19.60165,-2.33078 -28.827341,5.541324 9.675881,-3.927739 17.202601,-4.292465 19.805751,-1.29959 -4.32227,2.616248 -7.34686,4.850386 -9.98394,7.947571 -8.889664,2.289011 -13.846619,4.635525 -16.290895,11.101815 3.794699,-4.846819 8.351147,-7.019929 12.477745,-5.582335 -1.62043,3.270723 -2.38226,6.873274 -2.19491,10.919497 -3.872939,2.624762 -6.585933,6.152915 -7.234849,14.568986 2.216992,-6.915177 5.243709,-9.595569 7.953229,-9.345494 0.0525,0.236488 0.10604,0.474252 0.16424,0.713273 0.78245,3.220037 1.96738,5.940729 3.43544,8.449504 -3.3201,2.847198 -5.192764,6.665099 -4.10154,16.444323 0.30474,-6.709232 2.38586,-11.711176 6.84767,-12.587999 2.18919,2.819475 5.65917,7.225874 8.20093,10.551738 1.63582,2.140704 2.41977,5.417401 2.24067,8.857831 h 55.64392 c 3.86309,-18.261274 -27.38205,-24.462778 -35.53774,-30.350018 -3.68915,-2.663142 -6.46856,-8.249353 -5.28382,-12.180568 1.50818,-5.007296 6.02427,-9.63881 11.49067,-11.302854 2.3189,1.6669 3.59494,2.43259 4.49677,4.860191 2.77037,7.459457 4.33467,11.033612 16.90483,17.112529 3.50486,1.694584 7.10828,0.715859 10.23325,0.360046 -1.95813,-0.38474 -3.65782,-0.448664 -5.61665,-0.833004 1.80524,-0.29871 3.22287,-1.666897 3.60632,-2.500347 -2.47177,1.211815 -5.4599,0.997938 -8.96611,-0.640836 1.79284,-0.317874 4.12463,-1.090834 5.45505,-1.688206 -2.5758,0.118427 -6.37485,-0.247148 -7.56061,-1.248458 -0.97137,-0.820254 -2.07602,-2.082355 -2.43682,-3.193157 2.04918,1.025618 4.54775,0.11076 6.25153,-0.0034 -2.83728,-0.432035 -7.77174,-2.522057 -9.00383,-4.277171 -2.2026,-3.135611 -3.7947,-6.034786 -4.2101,-9.060652 4.68624,3.753489 9.69525,8.03405 14.12555,11.560957 5.18866,4.130158 11.55098,7.217403 17.61456,8.006411 4.87,0.633612 6.04043,0.983004 9.48528,4.213696 -1.69458,-4.775943 -6.26716,-4.91636 -8.63819,-5.61844 3.50027,-0.140604 7.00006,0.141031 11.00922,2.248088 -3.78283,-3.932864 -7.72865,-3.555342 -11.68719,-3.512727 -4.08972,0.04432 -10.16487,-1.689055 -14.90482,-5.758858 -4.78866,-4.11224 -8.84335,-7.348907 -13.32588,-13.074332 5.13616,1.207582 10.03614,3.671286 11.69046,8.237319 0.51883,-2.450468 0.003,-4.757667 -1.54581,-6.923198 2.69523,-0.227569 7.006,3.524674 11.07926,9.286653 0.0297,-2.05084 0.34438,-3.61374 -0.67846,-6.649053 4.35168,0.599913 6.84874,2.465399 9.3361,6.649053 1.09588,-1.630257 1.62402,-3.579684 -0.21993,-5.781593 5.01314,0.902454 6.23755,4.352152 8.13471,7.690363 0.51937,-1.810925 0.94555,-3.383636 1.36095,-4.216237 1.08767,-0.0281 2.83369,1.42788 2.86353,5.653211 z m -6.0248,-13.171511 c 0.86582,0.357063 2.26175,1.167954 2.47902,2.454348 -0.83598,-0.470419 -1.54683,-0.06008 -2.84249,-0.90932 -1.22761,-0.807862 -1.52104,-1.395471 -2.15624,-1.620849 0.8555,-0.178145 1.95705,-0.156824 2.51971,0.07581 z M 167.08878,36.830483 c 2.46669,1.020893 2.86508,1.659187 4.57456,4.413088 -2.5603,-1.64176 -3.97127,-0.149156 -5.89934,-1.377998 -1.781,-1.135145 -3.05239,-2.758984 -5.40766,-3.401555 2.43576,-0.503225 5.13098,-0.296113 6.73238,0.366465 z"
       id="path4842"
       style="fill:#ff0000;stroke-width:0.489947"
       clip-path="url(#clipPath5117)"
       transform="matrix(0.31868798,0,0,0.28972468,40.321061,125.83729)" />
    <path
       sodipodi:nodetypes="cccccscsccsssccscsscscccccccssssccsscssccsscsccscscsccscsscscscsssccsssccccsccsscsccscscsccscsscscscscccccssscccc"
       d="m 67.549929,150.08404 -2.1e-4,10.24981 h 35.291431 v -10.25 z m 8.122605,2.01941 c 0.668671,0 1.179782,0.20044 1.532953,0.60064 0.35605,0.40018 0.534091,0.97529 0.534091,1.72563 v 3.84905 h -1.763284 v -3.84905 c 0,-0.36782 -0.12846,-0.5519 -0.38609,-0.5519 -0.248961,0 -0.373611,0.18408 -0.373611,0.5519 v 3.84905 H 73.45385 v -3.91101 c 0,-0.68562 0.20102,-1.23423 0.603391,-1.6462 0.405261,-0.41196 0.943692,-0.61811 1.615293,-0.61811 z m 23.391433,0 c 0.573181,0 1.059503,0.20486 1.458983,0.61388 0.40235,0.409 0.60338,0.90595 0.60338,1.49151 0,0.33547 -0.0737,0.64755 -0.22145,0.93592 l -0.70342,1.39037 h 0.99 v 1.74364 h -3.829786 l 1.901863,-3.62818 0.0651,-0.12394 c 0.0521,-0.097 0.0781,-0.19239 0.0781,-0.28655 0,-0.23835 -0.13768,-0.35752 -0.412671,-0.35752 -0.10711,0 -0.20084,0.041 -0.281891,0.12342 -0.0781,0.0795 -0.11724,0.17343 -0.11724,0.28231 0,0.12357 0.0521,0.23575 0.156311,0.33579 l -0.760222,1.37712 c -0.31842,-0.2001 -0.562851,-0.4548 -0.733651,-0.76376 -0.1708,-0.30897 -0.256371,-0.65013 -0.256371,-1.02384 0,-0.57969 0.201541,-1.07586 0.603911,-1.48782 0.402381,-0.4149 0.888702,-0.62235 1.458963,-0.62235 z m -28.037732,0.15042 h 1.532953 v 1.72988 h -1.124442 c -0.30395,0 -0.455931,0.10023 -0.455931,0.30031 0,0.11771 0.036,0.20027 0.108381,0.24736 0.0723,0.0442 0.20136,0.0662 0.38662,0.0662 h 0.972822 v 1.34164 h -1.151012 c -0.15631,0 -0.267421,0.0233 -0.334001,0.0705 -0.0636,0.0471 -0.0958,0.12652 -0.0958,0.23834 0,0.12654 0.0335,0.2104 0.10005,0.2516 0.0665,0.0383 0.202431,0.0577 0.408001,0.0577 h 1.185402 v 1.7214 h -1.384972 c -0.651321,0 -1.149412,-0.15761 -1.493883,-0.47246 -0.344481,-0.3178 -0.516891,-0.77554 -0.516891,-1.37289 v -2.36122 c 0,-0.57674 0.16245,-1.02384 0.486671,-1.34163 0.327111,-0.3178 0.785581,-0.4767 1.376122,-0.4767 z m 7.794545,0 h 2.296834 c 1.007392,0 1.796393,0.23211 2.366654,0.69704 0.677381,0.55614 1.016062,1.31091 1.016062,2.26429 0,0.91221 -0.289651,1.65685 -0.868602,2.23359 -0.578951,0.57674 -1.324532,0.86494 -2.236384,0.86494 -0.10712,0 -0.28208,-0.006 -0.525231,-0.0175 v -1.77012 h 0.282411 c 1.027642,0 1.541293,-0.43697 1.541293,-1.31092 0,-0.82097 -0.504971,-1.23145 -1.515233,-1.23145 h -0.595061 v 4.29502 H 78.82078 Z m 8.254644,0 h 1.532423 v 1.72988 h -1.124442 c -0.30395,0 -0.455921,0.10023 -0.455921,0.30031 0,0.11771 0.036,0.20027 0.108371,0.24736 0.0723,0.0442 0.20136,0.0662 0.38663,0.0662 h 0.972312 v 1.34164 h -1.150502 c -0.15633,0 -0.267951,0.0233 -0.334531,0.0705 -0.0636,0.0471 -0.0953,0.12652 -0.0953,0.23834 0,0.12654 0.0334,0.2104 0.10006,0.2516 0.0666,0.0383 0.202501,0.0577 0.407991,0.0577 h 1.185402 v 1.7214 h -1.384972 c -0.651331,0 -1.149402,-0.15761 -1.493883,-0.47246 -0.344471,-0.3178 -0.516361,-0.77554 -0.516361,-1.37289 v -2.36122 c 0,-0.57674 0.16194,-1.02384 0.486151,-1.34163 0.327111,-0.3178 0.786091,-0.4767 1.376642,-0.4767 z m 2.548495,0 h 2.262454 c 0.688951,0 1.223042,0.17344 1.602253,0.52066 0.422651,0.38842 0.633611,0.88147 0.633611,1.47882 0,0.60911 -0.2618,1.1224 -0.785761,1.54025 l 1.016082,2.48517 h -1.849784 l -0.855571,-1.94227 v -1.54926 h 0.13913 c 0.370521,0 0.555961,-0.16201 0.555961,-0.4857 0,-0.28541 -0.21456,-0.42796 -0.642991,-0.42796 h -0.312631 v 4.40519 h -1.762753 z"
       style="display:inline;fill:#ffffff;stroke:#fdfdfd;stroke-width:0;stroke-linecap:butt;stroke-linejoin:round;stroke-miterlimit:4;stroke-dasharray:none;stroke-dashoffset:0"
       id="rect205" />
  </g>
</svg>
