<?xml version="1.0" encoding="UTF-8" standalone="no"?>
<svg
   sodipodi:docname="ender2pro.svg"
   inkscape:version="1.1.1 (c3084ef, 2021-09-22)"
   id="svg1883"
   version="1.1"
   viewBox="0 0 166.02917 166.02917"
   height="166.02917mm"
   width="166.02917mm"
   xmlns:inkscape="http://www.inkscape.org/namespaces/inkscape"
   xmlns:sodipodi="http://sodipodi.sourceforge.net/DTD/sodipodi-0.dtd"
   xmlns="http://www.w3.org/2000/svg"
   xmlns:svg="http://www.w3.org/2000/svg"
   xmlns:rdf="http://www.w3.org/1999/02/22-rdf-syntax-ns#"
   xmlns:cc="http://creativecommons.org/ns#"
   xmlns:dc="http://purl.org/dc/elements/1.1/">
  <defs
     id="defs1877" />
  <sodipodi:namedview
     inkscape:snap-page="false"
     inkscape:window-maximized="0"
     inkscape:window-y="25"
     inkscape:window-x="448"
     inkscape:window-height="1227"
     inkscape:window-width="1600"
     borderlayer="false"
     showgrid="false"
     inkscape:document-rotation="0"
     inkscape:current-layer="layer1"
     inkscape:document-units="mm"
     inkscape:cy="273.25679"
     inkscape:cx="270.34593"
     inkscape:zoom="1.3741653"
     inkscape:pageshadow="2"
     inkscape:pageopacity="0"
     borderopacity="1"
     bordercolor="#f14bac"
     pagecolor="#5d5d5d"
     id="base"
     inkscape:pagecheckerboard="0"
     width="165mm">
    <inkscape:grid
       id="grid2446"
       type="xygrid"
       originx="0.52916899"
       originy="0.52917032" />
  </sodipodi:namedview>
  <metadata
     id="metadata1880">
    <rdf:RDF>
      <cc:Work
         rdf:about="">
        <dc:format>image/svg+xml</dc:format>
        <dc:type
           rdf:resource="http://purl.org/dc/dcmitype/StillImage" />
      </cc:Work>
    </rdf:RDF>
  </metadata>
  <g
     inkscape:label="Layer 2"
     id="layer2"
     inkscape:groupmode="layer"
     transform="translate(0.529169,0.52917033)"
     style="display:inline">
    <path
       id="rect346"
       style="display:inline;fill:#ffffff;fill-rule:evenodd;stroke-width:0.236623"
       d="m 97.449555,145.09211 v 10.20042 h 55.800205 v -10.20042 z m 8.336955,1.83245 c 0.71438,0 1.36733,0.36191 1.77302,0.97927 0.41451,0.635 0.44959,1.3049 0.44959,2.08101 v 3.35173 h -1.83452 v -3.80132 c 0,-0.45861 -0.1058,-0.68781 -0.40566,-0.68781 -0.32632,0 -0.37052,0.26448 -0.37052,0.68781 v 3.80132 h -1.84278 v -3.35173 -0.17622 c 0,-0.47625 0.0176,-0.97906 0.26458,-1.56114 0.34396,-0.81139 1.11963,-1.32292 1.96629,-1.32292 z m 23.56859,0 c 1.3141,0 2.23139,0.97896 2.23139,2.11667 0,0.53798 -0.21188,0.9526 -0.47646,1.42885 l -0.59066,1.06712 h 1.05833 v 1.79937 h -4.10104 l 2.24896,-3.78375 c 0.0529,-0.097 0.0966,-0.24691 0.0966,-0.40566 0,-0.34396 -0.19392,-0.52038 -0.55552,-0.52038 -0.32632,0 -0.55552,0.22924 -0.55552,0.54674 0,0.17639 0.0619,0.29983 0.22066,0.40566 l -0.79375,1.36736 c -0.7232,-0.37042 -1.09399,-0.9616 -1.09399,-1.78181 0,-1.25236 0.95278,-2.24017 2.31097,-2.24017 z m 7.62124,0 c 1.33173,0 2.33732,1.01458 2.33732,2.2934 0,1.19063 -0.90833,1.98438 -2.13423,1.98438 -0.0882,0 -0.1943,3e-5 -0.3266,-0.009 v -1.56114 c 0.0441,0.009 0.0882,0.009 0.12351,0.009 0.33514,0 0.55604,-0.22052 0.55604,-0.52038 0,-0.28222 -0.23816,-0.5116 -0.52038,-0.5116 -0.42334,0 -0.52039,0.31761 -0.52039,0.89969 v 3.82767 h -1.87843 v -3.51038 -0.29972 c 0,-0.44097 0.0264,-0.88171 0.27337,-1.38441 0.37041,-0.75847 1.13729,-1.2175 2.08979,-1.2175 z m 11.27321,0 c 0.88195,0 1.7024,0.35312 2.31976,0.97048 0.59972,0.60855 0.95239,1.44619 0.95239,2.30167 0,0.74084 -0.25548,1.48184 -0.73173,2.07274 -0.60854,0.75848 -1.52618,1.19063 -2.54042,1.19063 -0.74083,0 -1.48135,-0.25601 -2.06344,-0.73226 -0.75847,-0.61736 -1.19941,-1.54333 -1.19941,-2.53111 0,-0.8643 0.34382,-1.68431 0.96119,-2.30167 0.60854,-0.61736 1.46382,-0.97048 2.30166,-0.97048 z m -46.61317,0.12351 h 1.20871 v 1.83451 h -1.19941 c -0.23813,0 -0.37052,0.0528 -0.37052,0.29094 0,0.23812 0.12358,0.31781 0.37052,0.31781 h 1.11983 v 1.40198 h -1.29656 c -0.23813,0 -0.36174,0.0533 -0.36174,0.29146 0,0.23812 0.11479,0.31729 0.36174,0.31729 h 1.37614 v 1.83451 h -1.05833 -0.24702 c -0.44097,0 -0.86437,-0.0177 -1.30534,-0.2558 -0.590907,-0.32631 -0.91726,-0.88201 -0.91726,-1.43763 v -2.3549 c 0,-0.73201 0.02649,-1.28733 0.652674,-1.79886 0.414516,-0.34395 0.952186,-0.44131 1.666566,-0.44131 z m 7.23418,0 h 1.85208 0.34365 c 0.49389,0 1.0675,0.0268 1.76424,0.31781 1.14652,0.47625 1.86086,1.56083 1.86086,2.83083 0,1.27882 -0.71437,2.35507 -1.85208,2.84014 -0.46743,0.19403 -0.97045,0.29972 -1.50843,0.29972 h -0.29973 v -1.87844 h 0.3266 c 0.9084,0 1.45521,-0.52055 1.45521,-1.2702 0,-0.82903 -0.5733,-1.26142 -1.71101,-1.26142 H 110.749 v 4.41006 h -1.87844 z m 8.71678,0 h 1.2082 v 1.83451 h -1.19941 c -0.23813,0 -0.37052,0.0528 -0.37052,0.29094 0,0.23812 0.12357,0.31781 0.37052,0.31781 h 1.12034 v 1.40198 h -1.29656 c -0.23812,0 -0.36174,0.0533 -0.36174,0.29146 0,0.23812 0.1148,0.31729 0.36174,0.31729 h 1.37563 v 1.83451 h -1.05834 -0.24701 c -0.44097,0 -0.86386,-0.0177 -1.30483,-0.2558 -0.5909,-0.32631 -0.91726,-0.88201 -0.91726,-1.43763 v -2.3549 c 0,-0.73201 0.0265,-1.28733 0.65268,-1.79886 0.41451,-0.34395 0.95219,-0.44131 1.66656,-0.44131 z m 1.96319,0 h 2.30167 c 0.55562,0 1.05816,0.009 1.63142,0.43253 0.54681,0.40569 0.85577,1.02264 0.85577,1.69292 -10e-6,0.65264 -0.29122,1.16455 -0.88212,1.62316 l 1.09347,2.53989 h -1.97559 l -0.85524,-1.97559 v -1.6583 h 0.20257 c 0.33514,0 0.51159,-0.0968 0.51159,-0.44079 0,-0.35278 -0.18527,-0.41445 -0.51159,-0.41445 h -0.49351 v 4.48913 h -1.87844 z m 20.29127,0 h 2.30218 c 0.55563,0 1.05816,0.009 1.63143,0.43253 0.5468,0.40569 0.85524,1.02264 0.85524,1.69292 0,0.65264 -0.2907,1.16455 -0.8816,1.62316 l 1.09348,2.53989 h -1.97559 l -0.85525,-1.97559 v -1.6583 h 0.20257 c 0.33514,0 0.5116,-0.0968 0.5116,-0.44079 0,-0.35278 -0.18528,-0.41445 -0.5116,-0.41445 h -0.49402 v 4.48913 h -1.87844 z m 8.41654,1.71979 c -0.78493,0 -1.42834,0.64392 -1.42834,1.42885 0,0.79375 0.63459,1.42007 1.42834,1.42007 0.79375,0 1.42007,-0.62632 1.42007,-1.42007 0,-0.78493 -0.63514,-1.42885 -1.42007,-1.42885 z" />
  </g>
  <g
     id="layer1"
     inkscape:groupmode="layer"
     inkscape:label="Layer 1"
     style="display:inline"
     transform="translate(0.529169,0.52917033)">
    <path
       id="path2643"
       d="M 0.04966897,0.04966897 H 164.95033 V 164.95033 H 0.04966897 Z"
       style="fill:none;stroke:#ffffff;stroke-width:1.09934;stroke-linecap:round;stroke-linejoin:round;stroke-miterlimit:4;stroke-dasharray:none;stroke-opacity:1" />
    <path
       id="path2645"
       d="M 75,-0.13595834 V 164.82762"
       style="fill:none;stroke:#ffffff;stroke-width:0.786424;stroke-linecap:round;stroke-linejoin:round;stroke-miterlimit:4;stroke-dasharray:none;stroke-opacity:1" />
    <path
       id="path2647"
       d="M 0.01821215,90 H 164.98179"
       style="fill:none;stroke:#ffffff;stroke-width:0.786424;stroke-linecap:round;stroke-linejoin:round;stroke-miterlimit:4;stroke-dasharray:none;stroke-opacity:1" />
    <path
       id="path2649"
       d="M 25.012141,-0.13595834 V 164.82762"
       style="fill:none;stroke:#ffffff;stroke-width:0.524283;stroke-linecap:round;stroke-linejoin:round;stroke-miterlimit:4;stroke-dasharray:none;stroke-opacity:1" />
    <path
       id="path2651"
       d="M 50.006071,-0.13595834 V 164.82762"
       style="fill:none;stroke:#ffffff;stroke-width:0.524283;stroke-linecap:round;stroke-linejoin:round;stroke-miterlimit:4;stroke-dasharray:none;stroke-opacity:1" />
    <path
       id="path2653"
       d="M 99.993929,-0.28314159 V 144.6248"
       style="fill:none;stroke:#ffffff;stroke-width:0.49138;stroke-linecap:round;stroke-linejoin:round;stroke-miterlimit:4;stroke-dasharray:none;stroke-opacity:1" />
    <path
       id="path2655"
       d="M 124.98786,-0.26523432 V 144.6672"
       style="fill:none;stroke:#ffffff;stroke-width:0.527872;stroke-linecap:round;stroke-linejoin:round;stroke-miterlimit:4;stroke-dasharray:none;stroke-opacity:1"
       sodipodi:nodetypes="cc" />
    <path
       id="path2655-2"
       d="M 150.02344,-0.26523432 V 144.6672"
       style="display:inline;fill:none;stroke:#ffffff;stroke-width:0.527872;stroke-linecap:round;stroke-linejoin:round;stroke-miterlimit:4;stroke-dasharray:none;stroke-opacity:1"
       sodipodi:nodetypes="cc" />
    <path
       style="fill:none;stroke:#ffffff;stroke-width:0.524282;stroke-linecap:round;stroke-linejoin:round;stroke-miterlimit:4;stroke-dasharray:none;stroke-opacity:1"
       d="M 164.98179,40.012141 H 0.01821435"
       id="path2649-5" />
    <path
       style="display:inline;fill:none;stroke:#ffffff;stroke-width:0.524282;stroke-linecap:round;stroke-linejoin:round;stroke-miterlimit:4;stroke-dasharray:none;stroke-opacity:1"
       d="M 164.98155,14.979971 H 0.01797199"
       id="path2649-5-8" />
    <path
       style="fill:none;stroke:#ffffff;stroke-width:0.524282;stroke-linecap:round;stroke-linejoin:round;stroke-miterlimit:4;stroke-dasharray:none;stroke-opacity:1"
       d="M 164.98179,65.006071 H 0.01821435"
       id="path2651-4" />
    <path
       style="fill:none;stroke:#ffffff;stroke-width:0.524282;stroke-linecap:round;stroke-linejoin:round;stroke-miterlimit:4;stroke-dasharray:none;stroke-opacity:1"
       d="M 164.98179,114.99393 H 0.01821435"
       id="path2653-9" />
    <path
       style="fill:none;stroke:#ffffff;stroke-width:0.524282;stroke-linecap:round;stroke-linejoin:round;stroke-miterlimit:4;stroke-dasharray:none;stroke-opacity:1"
       d="M 164.98179,139.98786 H 0.01821435"
       id="path2655-5" />
    <path
       id="path2681"
       d="M 4.9735417,-0.26458333 V 165.26458"
       style="fill:none;stroke:#fdfdfd;stroke-width:0.25;stroke-linecap:butt;stroke-linejoin:miter;stroke-miterlimit:4;stroke-dasharray:0.5, 0.25;stroke-dashoffset:0;stroke-opacity:1" />
    <path
       id="path2683"
       d="M 9.9972278,165.26483 V -0.23826333"
       style="fill:none;stroke:#fdfdfd;stroke-width:0.262094;stroke-linecap:butt;stroke-linejoin:miter;stroke-miterlimit:4;stroke-dasharray:0.524189, 0.262094;stroke-dashoffset:0;stroke-opacity:1" />
    <path
       id="path2685"
       d="M 15.013135,-0.23826333 V 165.26483"
       style="fill:none;stroke:#fdfdfd;stroke-width:0.262094;stroke-linecap:butt;stroke-linejoin:miter;stroke-miterlimit:4;stroke-dasharray:0.524189, 0.262094;stroke-dashoffset:0;stroke-opacity:1" />
    <path
       id="path2687"
       d="M 20.029042,165.26483 V -0.23826333"
       style="fill:none;stroke:#fdfdfd;stroke-width:0.262094;stroke-linecap:butt;stroke-linejoin:miter;stroke-miterlimit:4;stroke-dasharray:0.524189, 0.262094;stroke-dashoffset:0;stroke-opacity:1" />
    <path
       style="fill:none;stroke:#fdfdfd;stroke-width:0.262094;stroke-linecap:butt;stroke-linejoin:miter;stroke-miterlimit:4;stroke-dasharray:0.524188, 0.262094;stroke-dashoffset:0;stroke-opacity:1"
       d="M 29.981509,-0.52917033 V 164.97393"
       id="path2681-2" />
    <path
       style="fill:none;stroke:#fdfdfd;stroke-width:0.262094;stroke-linecap:butt;stroke-linejoin:miter;stroke-miterlimit:4;stroke-dasharray:0.524188, 0.262094;stroke-dashoffset:0;stroke-opacity:1"
       d="M 34.997416,164.97393 V -0.52917033"
       id="path2683-1" />
    <path
       style="fill:none;stroke:#fdfdfd;stroke-width:0.262094;stroke-linecap:butt;stroke-linejoin:miter;stroke-miterlimit:4;stroke-dasharray:0.524188, 0.262094;stroke-dashoffset:0;stroke-opacity:1"
       d="M 40.013322,-0.52917033 V 164.97393"
       id="path2685-5" />
    <path
       style="fill:none;stroke:#fdfdfd;stroke-width:0.262094;stroke-linecap:butt;stroke-linejoin:miter;stroke-miterlimit:4;stroke-dasharray:0.524188, 0.262094;stroke-dashoffset:0;stroke-opacity:1"
       d="M 45.029231,164.97393 V -0.52917033"
       id="path2687-4" />
    <path
       style="fill:none;stroke:#fdfdfd;stroke-width:0.261312;stroke-linecap:butt;stroke-linejoin:miter;stroke-miterlimit:4;stroke-dasharray:0.522622, 0.261312;stroke-dashoffset:0;stroke-opacity:1"
       d="M 54.970379,0.04904167 V 164.52883"
       id="path2681-9" />
    <path
       style="fill:none;stroke:#fdfdfd;stroke-width:0.261312;stroke-linecap:butt;stroke-linejoin:miter;stroke-miterlimit:4;stroke-dasharray:0.522622, 0.261312;stroke-dashoffset:0;stroke-opacity:1"
       d="M 59.987388,164.52883 V 0.04904167"
       id="path2683-8" />
    <path
       style="fill:none;stroke:#fdfdfd;stroke-width:0.261312;stroke-linecap:butt;stroke-linejoin:miter;stroke-miterlimit:4;stroke-dasharray:0.522622, 0.261312;stroke-dashoffset:0;stroke-opacity:1"
       d="M 65.004395,0.04904167 V 164.52883"
       id="path2685-4" />
    <path
       style="fill:none;stroke:#fdfdfd;stroke-width:0.261312;stroke-linecap:butt;stroke-linejoin:miter;stroke-miterlimit:4;stroke-dasharray:0.522622, 0.261312;stroke-dashoffset:0;stroke-opacity:1"
       d="M 70.021405,164.52883 V 0.04904167"
       id="path2687-7" />
    <path
       style="fill:none;stroke:#fdfdfd;stroke-width:0.261312;stroke-linecap:butt;stroke-linejoin:miter;stroke-miterlimit:4;stroke-dasharray:0.522622, 0.261312;stroke-dashoffset:0;stroke-opacity:1"
       d="M 80.002511,-0.52917033 V 163.95062"
       id="path2681-3" />
    <path
       style="fill:none;stroke:#fdfdfd;stroke-width:0.261312;stroke-linecap:butt;stroke-linejoin:miter;stroke-miterlimit:4;stroke-dasharray:0.522622, 0.261312;stroke-dashoffset:0;stroke-opacity:1"
       d="M 85.01952,163.95062 V -0.52917033"
       id="path2683-6" />
    <path
       style="fill:none;stroke:#fdfdfd;stroke-width:0.261312;stroke-linecap:butt;stroke-linejoin:miter;stroke-miterlimit:4;stroke-dasharray:0.522622, 0.261312;stroke-dashoffset:0;stroke-opacity:1"
       d="M 90.036528,-0.52917033 V 163.95062"
       id="path2685-3" />
    <path
       style="fill:none;stroke:#fdfdfd;stroke-width:0.261312;stroke-linecap:butt;stroke-linejoin:miter;stroke-miterlimit:4;stroke-dasharray:0.522622, 0.261312;stroke-dashoffset:0;stroke-opacity:1"
       d="M 95.053538,163.95062 V -0.52917033"
       id="path2687-44" />
    <path
       style="fill:none;stroke:#fdfdfd;stroke-width:0.245348;stroke-linecap:butt;stroke-linejoin:miter;stroke-miterlimit:4;stroke-dasharray:0.490694, 0.245348;stroke-dashoffset:0;stroke-opacity:1"
       d="M 104.96427,0.04904167 V 145.04904"
       id="path2681-36" />
    <path
       style="fill:none;stroke:#fdfdfd;stroke-width:0.264112;stroke-linecap:butt;stroke-linejoin:miter;stroke-miterlimit:4;stroke-dasharray:0.528224, 0.264112;stroke-dashoffset:0;stroke-opacity:1"
       d="M 109.9988,145.04903 109.98118,0.04904167"
       id="path2683-5"
       sodipodi:nodetypes="cc" />
    <path
       style="fill:none;stroke:#fdfdfd;stroke-width:0.263959;stroke-linecap:butt;stroke-linejoin:miter;stroke-miterlimit:4;stroke-dasharray:0.527917, 0.263959;stroke-dashoffset:0;stroke-opacity:1"
       d="M 114.99919,0.04904227 V 145.04899"
       id="path2685-7"
       sodipodi:nodetypes="cc" />
    <path
       style="fill:none;stroke:#fdfdfd;stroke-width:0.263959;stroke-linecap:butt;stroke-linejoin:miter;stroke-miterlimit:4;stroke-dasharray:0.527917, 0.263959;stroke-dashoffset:0;stroke-opacity:1"
       d="M 119.99653,145.04899 120.01412,0.04904227"
       id="path2687-48"
       sodipodi:nodetypes="cc" />
    <path
       style="fill:none;stroke:#fdfdfd;stroke-width:0.263598;stroke-linecap:butt;stroke-linejoin:miter;stroke-miterlimit:4;stroke-dasharray:0.527194, 0.263598;stroke-dashoffset:0;stroke-opacity:1"
       d="M 129.95634,0.04904227 129.99163,144.64899"
       id="path2681-0"
       sodipodi:nodetypes="cc" />
    <path
       style="fill:none;stroke:#fdfdfd;stroke-width:0.263598;stroke-linecap:butt;stroke-linejoin:miter;stroke-miterlimit:4;stroke-dasharray:0.527194, 0.263598;stroke-dashoffset:0;stroke-opacity:1"
       d="M 134.98904,144.64899 V 0.04904227"
       id="path2683-0"
       sodipodi:nodetypes="cc" />
    <path
       style="fill:none;stroke:#fdfdfd;stroke-width:0.245849;stroke-linecap:butt;stroke-linejoin:miter;stroke-miterlimit:4;stroke-dasharray:0.491697, 0.245849;stroke-dashoffset:0;stroke-opacity:1"
       d="M 140.00037,0.04903965 V 145.04904"
       id="path2685-2"
       sodipodi:nodetypes="cc" />
    <path
       style="fill:none;stroke:#fdfdfd;stroke-width:0.245078;stroke-linecap:butt;stroke-linejoin:miter;stroke-miterlimit:4;stroke-dasharray:0.490154, 0.245078;stroke-dashoffset:0;stroke-opacity:1"
       d="M 145.0201,144.64901 V 0.04903965"
       id="path2687-47" />
    <path
       style="display:inline;fill:none;stroke:#fdfdfd;stroke-width:0.261383;stroke-linecap:butt;stroke-linejoin:miter;stroke-miterlimit:4;stroke-dasharray:0.522763, 0.261383;stroke-dashoffset:0;stroke-opacity:1"
       d="M 155.02037,164.52883 V 0.04882967"
       id="path2687-47-8" />
    <path
       style="display:inline;fill:none;stroke:#fdfdfd;stroke-width:0.261383;stroke-linecap:butt;stroke-linejoin:miter;stroke-miterlimit:4;stroke-dasharray:0.522763, 0.261383;stroke-dashoffset:0;stroke-opacity:1"
       d="M 160.01152,164.45083 V -0.02917033"
       id="path2687-47-8-9" />
    <path
       style="fill:none;stroke:#fdfdfd;stroke-width:0.262146;stroke-linecap:butt;stroke-linejoin:miter;stroke-miterlimit:4;stroke-dasharray:0.524292, 0.262146;stroke-dashoffset:0;stroke-opacity:1"
       d="M 164.70884,19.961975 0.05273017,20.006069"
       id="path2681-39"
       sodipodi:nodetypes="cc" />
    <path
       style="display:inline;fill:none;stroke:#fdfdfd;stroke-width:0.262146;stroke-linecap:butt;stroke-linejoin:miter;stroke-miterlimit:4;stroke-dasharray:0.524292, 0.262146;stroke-dashoffset:0;stroke-opacity:1"
       d="M 164.12698,9.9619027 -0.5291339,10.005993"
       id="path2681-39-4"
       sodipodi:nodetypes="cc" />
    <path
       style="display:inline;fill:none;stroke:#fdfdfd;stroke-width:0.262146;stroke-linecap:butt;stroke-linejoin:miter;stroke-miterlimit:4;stroke-dasharray:0.524292, 0.262146;stroke-dashoffset:0;stroke-opacity:1"
       d="M 164.12698,4.9619027 -0.5291339,5.0059927"
       id="path2681-39-4-7"
       sodipodi:nodetypes="cc" />
    <path
       style="fill:none;stroke:#fdfdfd;stroke-width:0.262146;stroke-linecap:butt;stroke-linejoin:miter;stroke-miterlimit:4;stroke-dasharray:0.524292, 0.262146;stroke-dashoffset:0;stroke-opacity:1"
       d="M 0.05273017,25.005541 164.70884,24.979083"
       id="path2683-3"
       sodipodi:nodetypes="cc" />
    <path
       style="fill:none;stroke:#fdfdfd;stroke-width:0.262146;stroke-linecap:butt;stroke-linejoin:miter;stroke-miterlimit:4;stroke-dasharray:0.524292, 0.262146;stroke-dashoffset:0;stroke-opacity:1"
       d="M 164.70884,29.996193 0.05273017,30.005013"
       id="path2685-51"
       sodipodi:nodetypes="cc" />
    <path
       style="fill:none;stroke:#fdfdfd;stroke-width:0.262146;stroke-linecap:butt;stroke-linejoin:miter;stroke-miterlimit:4;stroke-dasharray:0.524292, 0.262146;stroke-dashoffset:0;stroke-opacity:1"
       d="M 0.05273017,35.004485 164.70884,35.013284"
       id="path2687-486"
       sodipodi:nodetypes="cc" />
    <path
       id="path2681-2-1"
       d="M 164.9998,45.003429 H 0.05273017"
       style="fill:none;stroke:#fdfdfd;stroke-width:0.262146;stroke-linecap:butt;stroke-linejoin:miter;stroke-miterlimit:4;stroke-dasharray:0.524292, 0.262146;stroke-dashoffset:0;stroke-opacity:1"
       sodipodi:nodetypes="cc" />
    <path
       id="path2683-1-9"
       d="M 0.05273017,50.002901 164.9998,49.985263"
       style="fill:none;stroke:#fdfdfd;stroke-width:0.262146;stroke-linecap:butt;stroke-linejoin:miter;stroke-miterlimit:4;stroke-dasharray:0.524292, 0.262146;stroke-dashoffset:0;stroke-opacity:1"
       sodipodi:nodetypes="cc" />
    <path
       id="path2685-5-4"
       d="M 164.9998,55.002373 H 0.05273017"
       style="fill:none;stroke:#fdfdfd;stroke-width:0.262146;stroke-linecap:butt;stroke-linejoin:miter;stroke-miterlimit:4;stroke-dasharray:0.524292, 0.262146;stroke-dashoffset:0;stroke-opacity:1"
       sodipodi:nodetypes="cc" />
    <path
       id="path2687-4-9"
       d="M 0.05273017,60.001845 164.9998,60.019483"
       style="fill:none;stroke:#fdfdfd;stroke-width:0.262146;stroke-linecap:butt;stroke-linejoin:miter;stroke-miterlimit:4;stroke-dasharray:0.524292, 0.262146;stroke-dashoffset:0;stroke-opacity:1"
       sodipodi:nodetypes="cc" />
    <path
       id="path2681-9-6"
       d="M 164.4179,69.947875 0.05273017,70.00079"
       style="fill:none;stroke:#fdfdfd;stroke-width:0.262146;stroke-linecap:butt;stroke-linejoin:miter;stroke-miterlimit:4;stroke-dasharray:0.524292, 0.262146;stroke-dashoffset:0;stroke-opacity:1"
       sodipodi:nodetypes="cc" />
    <path
       id="path2683-8-0"
       d="M 0.05273017,75.000262 164.4179,74.964985"
       style="fill:none;stroke:#fdfdfd;stroke-width:0.262146;stroke-linecap:butt;stroke-linejoin:miter;stroke-miterlimit:4;stroke-dasharray:0.524292, 0.262146;stroke-dashoffset:0;stroke-opacity:1"
       sodipodi:nodetypes="cc" />
    <path
       id="path2685-4-7"
       d="M 164.4179,79.982096 0.05273017,79.999734"
       style="fill:none;stroke:#fdfdfd;stroke-width:0.262146;stroke-linecap:butt;stroke-linejoin:miter;stroke-miterlimit:4;stroke-dasharray:0.524292, 0.262146;stroke-dashoffset:0;stroke-opacity:1"
       sodipodi:nodetypes="cc" />
    <path
       id="path2681-3-7"
       d="M 164.9998,94.980512 0.05273017,94.99815"
       style="fill:none;stroke:#fdfdfd;stroke-width:0.262146;stroke-linecap:butt;stroke-linejoin:miter;stroke-miterlimit:4;stroke-dasharray:0.524292, 0.262146;stroke-dashoffset:0;stroke-opacity:1"
       sodipodi:nodetypes="cc" />
    <path
       id="path2683-6-0"
       d="M 0.05273017,99.997622 H 164.9998"
       style="fill:none;stroke:#fdfdfd;stroke-width:0.262146;stroke-linecap:butt;stroke-linejoin:miter;stroke-miterlimit:4;stroke-dasharray:0.524292, 0.262146;stroke-dashoffset:0;stroke-opacity:1"
       sodipodi:nodetypes="cc" />
    <path
       id="path2685-3-3"
       d="M 164.9998,105.01473 H -0.529169"
       style="fill:none;stroke:#fdfdfd;stroke-width:0.262146;stroke-linecap:butt;stroke-linejoin:miter;stroke-miterlimit:4;stroke-dasharray:0.524292, 0.262146;stroke-dashoffset:0;stroke-opacity:1" />
    <path
       id="path2687-44-3"
       d="M 0.05273017,109.99657 164.9998,110.03186"
       style="fill:none;stroke:#fdfdfd;stroke-width:0.262146;stroke-linecap:butt;stroke-linejoin:miter;stroke-miterlimit:4;stroke-dasharray:0.524292, 0.262146;stroke-dashoffset:0;stroke-opacity:1"
       sodipodi:nodetypes="cc" />
    <path
       id="path2681-36-5"
       d="M 164.4179,119.9426 0.05273017,119.99551"
       style="fill:none;stroke:#fdfdfd;stroke-width:0.262146;stroke-linecap:butt;stroke-linejoin:miter;stroke-miterlimit:4;stroke-dasharray:0.524292, 0.262146;stroke-dashoffset:0;stroke-opacity:1"
       sodipodi:nodetypes="cc" />
    <path
       id="path2683-5-1"
       d="M 0.05273017,124.99498 164.4179,124.95969"
       style="fill:none;stroke:#fdfdfd;stroke-width:0.262146;stroke-linecap:butt;stroke-linejoin:miter;stroke-miterlimit:4;stroke-dasharray:0.524292, 0.262146;stroke-dashoffset:0;stroke-opacity:1"
       sodipodi:nodetypes="cc" />
    <path
       id="path2685-7-5"
       d="M 164.4179,129.97682 0.05273017,129.99445"
       style="fill:none;stroke:#fdfdfd;stroke-width:0.262146;stroke-linecap:butt;stroke-linejoin:miter;stroke-miterlimit:4;stroke-dasharray:0.524292, 0.262146;stroke-dashoffset:0;stroke-opacity:1"
       sodipodi:nodetypes="cc" />
    <path
       id="path2687-48-9"
       d="M 0.05273017,134.99393 H 164.4179"
       style="fill:none;stroke:#fdfdfd;stroke-width:0.262146;stroke-linecap:butt;stroke-linejoin:miter;stroke-miterlimit:4;stroke-dasharray:0.524292, 0.262146;stroke-dashoffset:0;stroke-opacity:1"
       sodipodi:nodetypes="cc" />
    <path
       id="path2681-0-8"
       d="M 165,145 H 0"
       style="fill:none;stroke:#fdfdfd;stroke-width:0.262203;stroke-linecap:butt;stroke-linejoin:miter;stroke-miterlimit:4;stroke-dasharray:0.524403, 0.262203;stroke-dashoffset:0;stroke-opacity:1"
       sodipodi:nodetypes="cc" />
    <path
       id="path2683-0-5"
       d="M 0,150 H 97.464513"
       style="fill:none;stroke:#fdfdfd;stroke-width:0.240862;stroke-linecap:butt;stroke-linejoin:miter;stroke-miterlimit:4;stroke-dasharray:0.481723, 0.240862;stroke-dashoffset:0;stroke-opacity:1"
       sodipodi:nodetypes="cc" />
    <path
       id="path2685-2-7"
       d="M 150,155 H 0"
       style="fill:none;stroke:#fdfdfd;stroke-width:0.25;stroke-linecap:butt;stroke-linejoin:miter;stroke-miterlimit:4;stroke-dasharray:0.499999, 0.25;stroke-dashoffset:0;stroke-opacity:1"
       sodipodi:nodetypes="cc" />
    <path
       id="path2687-47-6"
       d="M 0,160 H 165"
       style="fill:none;stroke:#fdfdfd;stroke-width:0.262666;stroke-linecap:butt;stroke-linejoin:miter;stroke-miterlimit:4;stroke-dasharray:0.525331, 0.262666;stroke-dashoffset:0;stroke-opacity:1"
       sodipodi:nodetypes="cc" />
    <path
       sodipodi:nodetypes="cc"
       id="path2683-5-5"
       d="M 110,165 V 155"
       style="display:inline;fill:none;stroke:#fdfdfd;stroke-width:0.25;stroke-linecap:butt;stroke-linejoin:miter;stroke-miterlimit:4;stroke-dasharray:0.499999, 0.25;stroke-dashoffset:0;stroke-opacity:1" />
    <path
       sodipodi:nodetypes="cc"
       id="path2683-5-5-7"
       d="m 104.90153,164.99983 v -10"
       style="display:inline;fill:none;stroke:#fdfdfd;stroke-width:0.25;stroke-linecap:butt;stroke-linejoin:miter;stroke-miterlimit:4;stroke-dasharray:0.499999, 0.25;stroke-dashoffset:0;stroke-opacity:1" />
    <path
       style="display:inline;fill:none;stroke:#fdfdfd;stroke-width:0.25;stroke-linecap:butt;stroke-linejoin:miter;stroke-miterlimit:4;stroke-dasharray:0.499999, 0.25;stroke-dashoffset:0;stroke-opacity:1"
       d="M 115,165 V 155"
       id="path2683-5-5-6"
       sodipodi:nodetypes="cc" />
    <path
       style="display:inline;fill:none;stroke:#fdfdfd;stroke-width:0.25;stroke-linecap:butt;stroke-linejoin:miter;stroke-miterlimit:4;stroke-dasharray:0.499999, 0.25;stroke-dashoffset:0;stroke-opacity:1"
       d="M 120,165 V 155"
       id="path2683-5-5-0"
       sodipodi:nodetypes="cc" />
    <path
       style="display:inline;fill:none;stroke:#fdfdfd;stroke-width:0.25;stroke-linecap:butt;stroke-linejoin:miter;stroke-miterlimit:4;stroke-dasharray:0.499999, 0.25;stroke-dashoffset:0;stroke-opacity:1"
       d="M 130,165 V 155"
       id="path2683-5-5-9"
       sodipodi:nodetypes="cc" />
    <path
       style="display:inline;fill:none;stroke:#fdfdfd;stroke-width:0.25;stroke-linecap:butt;stroke-linejoin:miter;stroke-miterlimit:4;stroke-dasharray:0.499999, 0.25;stroke-dashoffset:0;stroke-opacity:1"
       d="M 135,165 V 155"
       id="path2683-5-5-2"
       sodipodi:nodetypes="cc" />
    <path
       style="display:inline;fill:none;stroke:#fdfdfd;stroke-width:0.25;stroke-linecap:butt;stroke-linejoin:miter;stroke-miterlimit:4;stroke-dasharray:0.499999, 0.25;stroke-dashoffset:0;stroke-opacity:1"
       d="m 139.99583,164.79728 v -10"
       id="path2683-5-5-2-6"
       sodipodi:nodetypes="cc" />
    <path
       style="display:inline;fill:none;stroke:#fdfdfd;stroke-width:0.25;stroke-linecap:butt;stroke-linejoin:miter;stroke-miterlimit:4;stroke-dasharray:0.499999, 0.25;stroke-dashoffset:0;stroke-opacity:1"
       d="m 144.99583,165.13073 v -10"
       id="path2683-5-5-2-6-8"
       sodipodi:nodetypes="cc" />
    <path
       sodipodi:nodetypes="cc"
       style="display:inline;fill:none;stroke:#ffffff;stroke-width:0.487698;stroke-linecap:round;stroke-linejoin:round;stroke-miterlimit:4;stroke-dasharray:none;stroke-opacity:1"
       d="m 125,155.41867 v 9.51398"
       id="path2655-0" />
    <path
       sodipodi:nodetypes="cc"
       style="display:inline;fill:none;stroke:#ffffff;stroke-width:0.487698;stroke-linecap:round;stroke-linejoin:round;stroke-miterlimit:4;stroke-dasharray:none;stroke-opacity:1"
       d="m 150,155 v 9.51398"
       id="path2655-0-5" />
    <path
       sodipodi:nodetypes="cc"
       style="display:inline;fill:none;stroke:#ffffff;stroke-width:0.483417;stroke-linecap:round;stroke-linejoin:round;stroke-miterlimit:4;stroke-dasharray:none;stroke-opacity:1"
       d="m 99.99783,155.30367 v 9.34772"
       id="path2655-0-9" />
    <g
       transform="translate(0.04335936,162.09955)"
       style="font-style:normal;font-variant:normal;font-weight:bold;font-stretch:normal;font-size:1.76389px;line-height:1.25;font-family:Consolas;-inkscape-font-specification:'Consolas, Bold';font-variant-ligatures:normal;font-variant-caps:normal;font-variant-numeric:normal;font-variant-east-asian:normal;display:inline;fill:#ffffff;fill-opacity:1;stroke:none;stroke-width:0.264583"
       id="text966-0-4"
       aria-label="125">
      <path
         id="path188"
         d="M 121.63635,2.0732279 V 1.8863313 h 0.2868 V 1.1628608 l -0.24977,0.1378039 -0.0689,-0.1713936 0.35743,-0.18861909 h 0.17656 V 1.8863313 h 0.24718 v 0.1868966 z" />
      <path
         id="path190"
         d="M 122.58805,2.0732279 V 1.9181985 l 0.26614,-0.2661338 q 0.0749,-0.074931 0.11972,-0.1291912 0.0456,-0.05426 0.0698,-0.096463 0.025,-0.043064 0.0327,-0.079237 0.008,-0.036174 0.008,-0.074931 0,-0.031867 -0.0103,-0.060289 -0.0103,-0.029283 -0.0301,-0.049954 -0.0198,-0.021532 -0.05,-0.03359 -0.0301,-0.012919 -0.0689,-0.012919 -0.0663,0 -0.12316,0.029283 -0.0568,0.028422 -0.10766,0.076654 l -0.1111,-0.1429716 q 0.0732,-0.068041 0.1645,-0.10852056 0.0922,-0.0413412 0.19895,-0.0413412 0.0827,0 0.14987,0.0215319 0.0672,0.0206706 0.11455,0.0620118 0.0482,0.041341 0.0741,0.1033529 0.0267,0.062012 0.0267,0.1429716 0,0.067179 -0.0181,0.125746 -0.0181,0.057705 -0.0525,0.112827 -0.0344,0.055122 -0.0853,0.1102431 -0.0499,0.055122 -0.11455,0.1162721 l -0.16364,0.1558906 h 0.47456 v 0.1937868 z" />
      <path
         id="path192"
         d="m 124.31491,1.7132152 q 0,0.090434 -0.0379,0.1610583 -0.0379,0.069763 -0.10507,0.1179946 -0.0672,0.048231 -0.15848,0.073208 -0.0913,0.024977 -0.19809,0.024977 -0.0267,0 -0.0568,-0.00172 -0.0301,-0.00172 -0.0611,-0.00431 -0.031,-0.00258 -0.0603,-0.00689 -0.0293,-0.00345 -0.0543,-0.00775 V 1.8863313 q 0.0491,0.012058 0.11282,0.019809 0.0637,0.00689 0.13006,0.00689 0.12919,0 0.19637,-0.049093 0.068,-0.049954 0.068,-0.1378039 0,-0.091295 -0.0629,-0.1352201 -0.0629,-0.044786 -0.20326,-0.044786 H 123.6035 V 0.94754221 h 0.6494 V 1.1456353 h -0.45303 v 0.229099 h 0.081 q 0.0861,0 0.1645,0.015503 0.0784,0.015503 0.1378,0.05426 0.0603,0.037896 0.0956,0.1033529 0.0362,0.065457 0.0362,0.1653647 z" />
    </g>
    <g
       transform="translate(0.04335936,162.09955)"
       style="font-style:normal;font-variant:normal;font-weight:bold;font-stretch:normal;font-size:1.76389px;line-height:1.25;font-family:Consolas;-inkscape-font-specification:'Consolas, Bold';font-variant-ligatures:normal;font-variant-caps:normal;font-variant-numeric:normal;font-variant-east-asian:normal;display:inline;fill:#ffffff;fill-opacity:1;stroke:none;stroke-width:0.264583"
       id="text966-0-9"
       aria-label="100">
      <path
         id="path181"
         d="M 96.636346,2.0732279 V 1.8863313 H 96.92315 V 1.1628608 l -0.249769,0.1378039 -0.0689,-0.1713936 0.357429,-0.18861909 h 0.176561 V 1.8863313 h 0.247186 v 0.1868966 z" />
      <path
         id="path183"
         d="m 98.401097,1.505648 q 0,0.1386652 -0.03014,0.2480471 -0.03015,0.1093818 -0.08871,0.185174 -0.0577,0.074931 -0.141249,0.1145495 -0.08354,0.039619 -0.191203,0.039619 -0.09302,0 -0.171393,-0.032728 -0.07838,-0.032729 -0.13522,-0.1024917 -0.05684,-0.070624 -0.08871,-0.1800063 -0.03187,-0.1093819 -0.03187,-0.2618275 0,-0.1386652 0.03014,-0.248047 0.03101,-0.1093819 0.08871,-0.1843127 0.0577,-0.075792 0.14211,-0.11541081 0.08441,-0.0396186 0.191203,-0.0396186 0.09302,0 0.171394,0.0327284 0.07838,0.0327284 0.134359,0.10249171 0.05684,0.069763 0.08871,0.179145 0.03187,0.1093819 0.03187,0.2626887 z m -0.666626,0.00345 q 0,0.017225 0,0.032728 0,0.014642 0.0017,0.030145 l 0.422047,-0.304896 q -0.03015,-0.085266 -0.0801,-0.125746 -0.04909,-0.041341 -0.116272,-0.041341 -0.04823,0 -0.08957,0.024977 -0.04134,0.024116 -0.07235,0.074931 -0.03014,0.050815 -0.04823,0.1274686 -0.01722,0.076653 -0.01722,0.1817289 z m 0.454753,0.00345 q 0,-0.014642 -8.62e-4,-0.029283 -8.61e-4,-0.015503 -8.61e-4,-0.029283 L 97.76806,1.7571402 q 0.02756,0.083544 0.07751,0.1240235 0.04995,0.04048 0.116272,0.04048 0.04823,0 0.08957,-0.024977 0.0422,-0.024977 0.07235,-0.074931 0.03101,-0.050815 0.04823,-0.1274686 0.01723,-0.077515 0.01723,-0.1817289 z" />
      <path
         id="path185"
         d="m 99.372615,1.505648 q 0,0.1386652 -0.03014,0.2480471 -0.03014,0.1093818 -0.08871,0.185174 -0.05771,0.074931 -0.141249,0.1145495 -0.08354,0.039619 -0.191203,0.039619 -0.09302,0 -0.171394,-0.032728 -0.07838,-0.032729 -0.13522,-0.1024917 -0.05684,-0.070624 -0.08871,-0.1800063 -0.03187,-0.1093819 -0.03187,-0.2618275 0,-0.1386652 0.03014,-0.248047 0.03101,-0.1093819 0.08871,-0.1843127 0.0577,-0.075792 0.14211,-0.11541081 0.0844,-0.0396186 0.191203,-0.0396186 0.09302,0 0.171393,0.0327284 0.07838,0.0327284 0.134359,0.10249171 0.05684,0.069763 0.08871,0.179145 0.03187,0.1093819 0.03187,0.2626887 z m -0.666627,0.00345 q 0,0.017225 0,0.032728 0,0.014642 0.0017,0.030145 l 0.422047,-0.304896 q -0.03014,-0.085266 -0.0801,-0.125746 -0.04909,-0.041341 -0.116272,-0.041341 -0.04823,0 -0.08957,0.024977 -0.04134,0.024116 -0.07235,0.074931 -0.03014,0.050815 -0.04823,0.1274686 -0.01723,0.076653 -0.01723,0.1817289 z m 0.454753,0.00345 q 0,-0.014642 -8.61e-4,-0.029283 -8.61e-4,-0.015503 -8.61e-4,-0.029283 l -0.419441,0.3031686 q 0.02756,0.083544 0.07752,0.1240235 0.04995,0.04048 0.116272,0.04048 0.04823,0 0.08957,-0.024977 0.0422,-0.024977 0.07235,-0.074931 0.03101,-0.050815 0.04823,-0.1274686 0.01722,-0.077515 0.01722,-0.1817289 z" />
    </g>
    <g
       transform="translate(0.04335936,162.09955)"
       style="font-style:normal;font-variant:normal;font-weight:bold;font-stretch:normal;font-size:1.76389px;line-height:1.25;font-family:Consolas;-inkscape-font-specification:'Consolas, Bold';font-variant-ligatures:normal;font-variant-caps:normal;font-variant-numeric:normal;font-variant-east-asian:normal;display:inline;fill:#ffffff;fill-opacity:1;stroke:none;stroke-width:0.264583"
       id="text966-0-99"
       aria-label="25">
      <path
         id="path166"
         style="stroke-width:0.264583"
         d="M 22.616538,2.0732279 V 1.9181985 l 0.266134,-0.2661338 q 0.07493,-0.074931 0.119717,-0.1291912 0.04565,-0.05426 0.06976,-0.096463 0.02498,-0.043064 0.03273,-0.079237 0.0078,-0.036174 0.0078,-0.074931 0,-0.031867 -0.01034,-0.060289 -0.01034,-0.029283 -0.03014,-0.049954 -0.01981,-0.021532 -0.04995,-0.03359 -0.03015,-0.012919 -0.0689,-0.012919 -0.06632,0 -0.123163,0.029283 -0.05684,0.028422 -0.107659,0.076654 L 22.611371,1.0784559 q 0.07321,-0.068041 0.164503,-0.10852056 0.09216,-0.0413412 0.198955,-0.0413412 0.08268,0 0.149861,0.0215319 0.06718,0.0206706 0.11455,0.0620118 0.04823,0.041341 0.07407,0.1033529 0.0267,0.062012 0.0267,0.1429716 0,0.067179 -0.01809,0.125746 -0.01809,0.057705 -0.05254,0.112827 -0.03445,0.055122 -0.08527,0.1102431 -0.04995,0.055122 -0.114549,0.1162721 l -0.163642,0.1558906 h 0.474562 v 0.1937868 z" />
      <path
         id="path168"
         style="stroke-width:0.264583"
         d="m 24.343394,1.7132152 q 0,0.090434 -0.0379,0.1610583 -0.0379,0.069763 -0.105076,0.1179946 -0.06718,0.048231 -0.158474,0.073208 -0.0913,0.024977 -0.198093,0.024977 -0.0267,0 -0.05685,-0.00172 -0.03014,-0.00172 -0.06115,-0.00431 -0.03101,-0.00258 -0.06029,-0.00689 -0.02928,-0.00345 -0.05426,-0.00775 V 1.8863313 q 0.04909,0.012058 0.112827,0.019809 0.06374,0.00689 0.130053,0.00689 0.129191,0 0.19637,-0.049093 0.06804,-0.049954 0.06804,-0.1378039 0,-0.091295 -0.06287,-0.1352201 -0.06287,-0.044786 -0.203261,-0.044786 H 23.631981 V 0.94754221 h 0.649401 V 1.1456353 h -0.45303 v 0.229099 h 0.08096 q 0.08613,0 0.164504,0.015503 0.07838,0.015503 0.137804,0.05426 0.06029,0.037896 0.0956,0.1033529 0.03617,0.065457 0.03617,0.1653647 z" />
    </g>
    <g
       transform="translate(0.04335936,162.09955)"
       style="font-style:normal;font-variant:normal;font-weight:bold;font-stretch:normal;font-size:1.76389px;line-height:1.25;font-family:Consolas;-inkscape-font-specification:'Consolas, Bold';font-variant-ligatures:normal;font-variant-caps:normal;font-variant-numeric:normal;font-variant-east-asian:normal;display:inline;fill:#ffffff;fill-opacity:1;stroke:none;stroke-width:0.264583"
       id="text966-0-3"
       aria-label="50">
      <path
         id="path171"
         style="stroke-width:0.264583"
         d="m 48.371874,1.7132152 q 0,0.090434 -0.0379,0.1610583 -0.0379,0.069763 -0.105075,0.1179946 -0.06718,0.048231 -0.158475,0.073208 -0.0913,0.024977 -0.198093,0.024977 -0.0267,0 -0.05684,-0.00172 -0.03015,-0.00172 -0.06115,-0.00431 -0.03101,-0.00258 -0.06029,-0.00689 -0.02928,-0.00345 -0.05426,-0.00775 V 1.8863313 q 0.04909,0.012058 0.112827,0.019809 0.06373,0.00689 0.130052,0.00689 0.129191,0 0.196371,-0.049093 0.06804,-0.049954 0.06804,-0.1378039 0,-0.091295 -0.06287,-0.1352201 -0.06287,-0.044786 -0.203261,-0.044786 H 47.660462 V 0.94754221 h 0.6494 V 1.1456353 h -0.45303 v 0.229099 h 0.08096 q 0.08613,0 0.164503,0.015503 0.07838,0.015503 0.137804,0.05426 0.06029,0.037896 0.0956,0.1033529 0.03617,0.065457 0.03617,0.1653647 z" />
      <path
         id="path173"
         style="stroke-width:0.264583"
         d="m 49.401097,1.505648 q 0,0.1386652 -0.03014,0.2480471 -0.03014,0.1093818 -0.08871,0.185174 -0.0577,0.074931 -0.141249,0.1145495 -0.08354,0.039619 -0.191203,0.039619 -0.09302,0 -0.171393,-0.032728 -0.07838,-0.032729 -0.13522,-0.1024917 -0.05684,-0.070624 -0.08871,-0.1800063 -0.03187,-0.1093819 -0.03187,-0.2618275 0,-0.1386652 0.03015,-0.248047 0.03101,-0.1093819 0.08871,-0.1843127 0.0577,-0.075792 0.14211,-0.11541081 0.0844,-0.0396186 0.191203,-0.0396186 0.09302,0 0.171394,0.0327284 0.07838,0.0327284 0.134359,0.10249171 0.05684,0.069763 0.08871,0.179145 0.03187,0.1093819 0.03187,0.2626887 z m -0.666626,0.00345 q 0,0.017225 0,0.032728 0,0.014642 0.0017,0.030145 l 0.422047,-0.304896 q -0.03014,-0.085266 -0.0801,-0.125746 -0.04909,-0.041341 -0.116272,-0.041341 -0.04823,0 -0.08957,0.024977 -0.04134,0.024116 -0.07235,0.074931 -0.03015,0.050815 -0.04823,0.1274686 -0.01723,0.076653 -0.01723,0.1817289 z m 0.454753,0.00345 q 0,-0.014642 -8.62e-4,-0.029283 -8.61e-4,-0.015503 -8.61e-4,-0.029283 L 48.76806,1.7571402 q 0.02756,0.083544 0.07751,0.1240235 0.04995,0.04048 0.116272,0.04048 0.04823,0 0.08957,-0.024977 0.0422,-0.024977 0.07235,-0.074931 0.03101,-0.050815 0.04823,-0.1274686 0.01723,-0.077515 0.01723,-0.1817289 z" />
    </g>
    <g
       transform="translate(0.04335936,162.09955)"
       style="font-style:normal;font-variant:normal;font-weight:bold;font-stretch:normal;font-size:1.76389px;line-height:1.25;font-family:Consolas;-inkscape-font-specification:'Consolas, Bold';font-variant-ligatures:normal;font-variant-caps:normal;font-variant-numeric:normal;font-variant-east-asian:normal;display:inline;fill:#ffffff;fill-opacity:1;stroke:none;stroke-width:0.264583"
       id="text966-0-7"
       aria-label="75">
      <path
         id="path176"
         style="stroke-width:0.264583"
         d="M 72.926595,2.0732279 H 72.688884 L 73.136746,1.150803 H 72.596727 V 0.94754221 h 0.782037 V 1.1309937 Z" />
      <path
         id="path178"
         style="stroke-width:0.264583"
         d="m 74.343392,1.7132152 q 0,0.090434 -0.0379,0.1610583 -0.0379,0.069763 -0.105076,0.1179946 -0.06718,0.048231 -0.158474,0.073208 -0.0913,0.024977 -0.198093,0.024977 -0.0267,0 -0.05684,-0.00172 -0.03014,-0.00172 -0.06115,-0.00431 -0.03101,-0.00258 -0.06029,-0.00689 -0.02928,-0.00345 -0.05426,-0.00775 V 1.8863313 q 0.04909,0.012058 0.112826,0.019809 0.06373,0.00689 0.130053,0.00689 0.129191,0 0.19637,-0.049093 0.06804,-0.049954 0.06804,-0.1378039 0,-0.091295 -0.06287,-0.1352201 -0.06287,-0.044786 -0.203261,-0.044786 H 73.631979 V 0.94754221 H 74.28138 V 1.1456353 h -0.45303 v 0.229099 h 0.08096 q 0.08613,0 0.164504,0.015503 0.07838,0.015503 0.137804,0.05426 0.06029,0.037896 0.0956,0.1033529 0.03617,0.065457 0.03617,0.1653647 z" />
    </g>
    <g
       transform="translate(0.04335936,162.09955)"
       style="font-style:normal;font-variant:normal;font-weight:bold;font-stretch:normal;font-size:1.76389px;line-height:1.25;font-family:Consolas;-inkscape-font-specification:'Consolas, Bold';font-variant-ligatures:normal;font-variant-caps:normal;font-variant-numeric:normal;font-variant-east-asian:normal;display:inline;fill:#ffffff;fill-opacity:1;stroke:none;stroke-width:0.264583"
       id="text966-0-5-1"
       aria-label="150">
      <path
         id="path195"
         style="stroke-width:0.264583"
         d="M 146.47099,2.0732279 V 1.8863313 h 0.2868 V 1.1628608 l -0.24977,0.1378039 -0.0689,-0.1713936 0.35743,-0.18861909 h 0.17656 V 1.8863313 h 0.24719 v 0.1868966 z" />
      <path
         id="path197"
         style="stroke-width:0.264583"
         d="m 148.17803,1.7132152 q 0,0.090434 -0.0379,0.1610583 -0.0379,0.069763 -0.10508,0.1179946 -0.0672,0.048231 -0.15847,0.073208 -0.0913,0.024977 -0.1981,0.024977 -0.0267,0 -0.0568,-0.00172 -0.0301,-0.00172 -0.0611,-0.00431 -0.031,-0.00258 -0.0603,-0.00689 -0.0293,-0.00345 -0.0543,-0.00775 V 1.8863313 q 0.0491,0.012058 0.11283,0.019809 0.0637,0.00689 0.13005,0.00689 0.12919,0 0.19637,-0.049093 0.068,-0.049954 0.068,-0.1378039 0,-0.091295 -0.0629,-0.1352201 -0.0629,-0.044786 -0.20326,-0.044786 h -0.22049 V 0.94754221 h 0.6494 V 1.1456353 h -0.45303 v 0.229099 h 0.081 q 0.0861,0 0.1645,0.015503 0.0784,0.015503 0.13781,0.05426 0.0603,0.037896 0.0956,0.1033529 0.0362,0.065457 0.0362,0.1653647 z" />
      <path
         id="path199"
         style="stroke-width:0.264583"
         d="m 149.20726,1.505648 q 0,0.1386652 -0.0301,0.2480471 -0.0301,0.1093818 -0.0887,0.185174 -0.0577,0.074931 -0.14125,0.1145495 -0.0835,0.039619 -0.1912,0.039619 -0.093,0 -0.1714,-0.032728 -0.0784,-0.032729 -0.13522,-0.1024917 -0.0568,-0.070624 -0.0887,-0.1800063 -0.0319,-0.1093819 -0.0319,-0.2618275 0,-0.1386652 0.0301,-0.248047 0.031,-0.1093819 0.0887,-0.1843127 0.0577,-0.075792 0.14211,-0.11541081 0.0844,-0.0396186 0.1912,-0.0396186 0.093,0 0.1714,0.0327284 0.0784,0.0327284 0.13436,0.10249171 0.0568,0.069763 0.0887,0.179145 0.0319,0.1093819 0.0319,0.2626879 z m -0.66663,0.00345 q 0,0.017225 0,0.032728 0,0.014642 0.002,0.030145 l 0.42203,-0.3048912 q -0.0301,-0.085266 -0.0801,-0.125746 -0.0491,-0.041341 -0.11627,-0.041341 -0.0482,0 -0.0896,0.024977 -0.0413,0.024116 -0.0723,0.074931 -0.0301,0.050815 -0.0482,0.1274686 -0.0172,0.076653 -0.0172,0.1817289 z m 0.45475,0.00345 q 0,-0.014642 -8.6e-4,-0.029283 -8.6e-4,-0.015503 -8.6e-4,-0.029283 l -0.41944,0.3031686 q 0.0276,0.083544 0.0775,0.1240235 0.05,0.04048 0.11628,0.04048 0.0482,0 0.0896,-0.024977 0.0422,-0.024977 0.0723,-0.074931 0.031,-0.050815 0.0482,-0.1274686 0.0172,-0.077515 0.0172,-0.1817289 z" />
    </g>
    <path
       sodipodi:nodetypes="cc"
       style="display:inline;fill:none;stroke:#fdfdfd;stroke-width:0.262146;stroke-linecap:butt;stroke-linejoin:miter;stroke-miterlimit:4;stroke-dasharray:0.524292, 0.262146;stroke-dashoffset:0;stroke-opacity:1"
       d="M 164.9998,84.999206 0.63463045,85.016844"
       id="path2685-4-7-5" />
    <path
       sodipodi:nodetypes="cc"
       style="display:inline;fill:none;stroke:#fdfdfd;stroke-width:0.263112;stroke-linecap:butt;stroke-linejoin:miter;stroke-miterlimit:4;stroke-dasharray:0.526224, 0.263112;stroke-dashoffset:0;stroke-opacity:1"
       d="m 153.34858,150 h 11.07649"
       id="path2683-0-5-5" />
    <path
       sodipodi:nodetypes="cc"
       style="display:inline;fill:none;stroke:#fdfdfd;stroke-width:0.263112;stroke-linecap:butt;stroke-linejoin:miter;stroke-miterlimit:4;stroke-dasharray:0.526224, 0.263112;stroke-dashoffset:0;stroke-opacity:1"
       d="m 153.01348,155.00039 h 11.07649"
       id="path2683-0-5-5-7" />
    <g
       style="font-style:normal;font-variant:normal;font-weight:normal;font-stretch:normal;font-size:8.81944px;line-height:1.25;font-family:'Bauhaus 93';-inkscape-font-specification:'Bauhaus 93, Normal';font-variant-ligatures:normal;font-variant-caps:normal;font-variant-numeric:normal;font-variant-east-asian:normal;display:inline;fill:#000000;fill-opacity:1;stroke:none;stroke-width:0.264583"
       id="text893"
       aria-label="ENDER 2">
      <g
         id="g220" />
    </g>
    <g
       aria-label="125"
       id="text966-0-4-0"
       style="font-style:normal;font-variant:normal;font-weight:bold;font-stretch:normal;font-size:1.76389px;line-height:1.25;font-family:Consolas;-inkscape-font-specification:'Consolas, Bold';font-variant-ligatures:normal;font-variant-caps:normal;font-variant-numeric:normal;font-variant-east-asian:normal;display:inline;fill:#ffffff;fill-opacity:1;stroke:none;stroke-width:0.264583"
       transform="translate(-120.58115,39.81636)">
      <path
         d="M 121.63635,2.0732279 V 1.8863313 h 0.2868 V 1.1628608 l -0.24977,0.1378039 -0.0689,-0.1713936 0.35743,-0.18861909 h 0.17656 V 1.8863313 h 0.24718 v 0.1868966 z"
         id="path188-1" />
      <path
         d="M 122.58805,2.0732279 V 1.9181985 l 0.26614,-0.2661338 q 0.0749,-0.074931 0.11972,-0.1291912 0.0456,-0.05426 0.0698,-0.096463 0.025,-0.043064 0.0327,-0.079237 0.008,-0.036174 0.008,-0.074931 0,-0.031867 -0.0103,-0.060289 -0.0103,-0.029283 -0.0301,-0.049954 -0.0198,-0.021532 -0.05,-0.03359 -0.0301,-0.012919 -0.0689,-0.012919 -0.0663,0 -0.12316,0.029283 -0.0568,0.028422 -0.10766,0.076654 l -0.1111,-0.1429716 q 0.0732,-0.068041 0.1645,-0.10852056 0.0922,-0.0413412 0.19895,-0.0413412 0.0827,0 0.14987,0.0215319 0.0672,0.0206706 0.11455,0.0620118 0.0482,0.041341 0.0741,0.1033529 0.0267,0.062012 0.0267,0.1429716 0,0.067179 -0.0181,0.125746 -0.0181,0.057705 -0.0525,0.112827 -0.0344,0.055122 -0.0853,0.1102431 -0.0499,0.055122 -0.11455,0.1162721 l -0.16364,0.1558906 h 0.47456 v 0.1937868 z"
         id="path190-2" />
      <path
         d="m 124.31491,1.7132152 q 0,0.090434 -0.0379,0.1610583 -0.0379,0.069763 -0.10507,0.1179946 -0.0672,0.048231 -0.15848,0.073208 -0.0913,0.024977 -0.19809,0.024977 -0.0267,0 -0.0568,-0.00172 -0.0301,-0.00172 -0.0611,-0.00431 -0.031,-0.00258 -0.0603,-0.00689 -0.0293,-0.00345 -0.0543,-0.00775 V 1.8863313 q 0.0491,0.012058 0.11282,0.019809 0.0637,0.00689 0.13006,0.00689 0.12919,0 0.19637,-0.049093 0.068,-0.049954 0.068,-0.1378039 0,-0.091295 -0.0629,-0.1352201 -0.0629,-0.044786 -0.20326,-0.044786 H 123.6035 V 0.94754221 h 0.6494 V 1.1456353 h -0.45303 v 0.229099 h 0.081 q 0.0861,0 0.1645,0.015503 0.0784,0.015503 0.1378,0.05426 0.0603,0.037896 0.0956,0.1033529 0.0362,0.065457 0.0362,0.1653647 z"
         id="path192-3" />
    </g>
    <g
       aria-label="100"
       id="text966-0-9-0"
       style="font-style:normal;font-variant:normal;font-weight:bold;font-stretch:normal;font-size:1.76389px;line-height:1.25;font-family:Consolas;-inkscape-font-specification:'Consolas, Bold';font-variant-ligatures:normal;font-variant-caps:normal;font-variant-numeric:normal;font-variant-east-asian:normal;display:inline;fill:#ffffff;fill-opacity:1;stroke:none;stroke-width:0.264583"
       transform="translate(-95.765044,64.636453)">
      <path
         d="M 96.636346,2.0732279 V 1.8863313 H 96.92315 V 1.1628608 l -0.249769,0.1378039 -0.0689,-0.1713936 0.357429,-0.18861909 h 0.176561 V 1.8863313 h 0.247186 v 0.1868966 z"
         id="path181-5" />
      <path
         d="m 98.401097,1.505648 q 0,0.1386652 -0.03014,0.2480471 -0.03015,0.1093818 -0.08871,0.185174 -0.0577,0.074931 -0.141249,0.1145495 -0.08354,0.039619 -0.191203,0.039619 -0.09302,0 -0.171393,-0.032728 -0.07838,-0.032729 -0.13522,-0.1024917 -0.05684,-0.070624 -0.08871,-0.1800063 -0.03187,-0.1093819 -0.03187,-0.2618275 0,-0.1386652 0.03014,-0.248047 0.03101,-0.1093819 0.08871,-0.1843127 0.0577,-0.075792 0.14211,-0.11541081 0.08441,-0.0396186 0.191203,-0.0396186 0.09302,0 0.171394,0.0327284 0.07838,0.0327284 0.134359,0.10249171 0.05684,0.069763 0.08871,0.179145 0.03187,0.1093819 0.03187,0.2626887 z m -0.666626,0.00345 q 0,0.017225 0,0.032728 0,0.014642 0.0017,0.030145 l 0.422047,-0.304896 q -0.03015,-0.085266 -0.0801,-0.125746 -0.04909,-0.041341 -0.116272,-0.041341 -0.04823,0 -0.08957,0.024977 -0.04134,0.024116 -0.07235,0.074931 -0.03014,0.050815 -0.04823,0.1274686 -0.01722,0.076653 -0.01722,0.1817289 z m 0.454753,0.00345 q 0,-0.014642 -8.62e-4,-0.029283 -8.61e-4,-0.015503 -8.61e-4,-0.029283 L 97.76806,1.7571402 q 0.02756,0.083544 0.07751,0.1240235 0.04995,0.04048 0.116272,0.04048 0.04823,0 0.08957,-0.024977 0.0422,-0.024977 0.07235,-0.074931 0.03101,-0.050815 0.04823,-0.1274686 0.01723,-0.077515 0.01723,-0.1817289 z"
         id="path183-5" />
      <path
         d="m 99.372615,1.505648 q 0,0.1386652 -0.03014,0.2480471 -0.03014,0.1093818 -0.08871,0.185174 -0.05771,0.074931 -0.141249,0.1145495 -0.08354,0.039619 -0.191203,0.039619 -0.09302,0 -0.171394,-0.032728 -0.07838,-0.032729 -0.13522,-0.1024917 -0.05684,-0.070624 -0.08871,-0.1800063 -0.03187,-0.1093819 -0.03187,-0.2618275 0,-0.1386652 0.03014,-0.248047 0.03101,-0.1093819 0.08871,-0.1843127 0.0577,-0.075792 0.14211,-0.11541081 0.0844,-0.0396186 0.191203,-0.0396186 0.09302,0 0.171393,0.0327284 0.07838,0.0327284 0.134359,0.10249171 0.05684,0.069763 0.08871,0.179145 0.03187,0.1093819 0.03187,0.2626887 z m -0.666627,0.00345 q 0,0.017225 0,0.032728 0,0.014642 0.0017,0.030145 l 0.422047,-0.304896 q -0.03014,-0.085266 -0.0801,-0.125746 -0.04909,-0.041341 -0.116272,-0.041341 -0.04823,0 -0.08957,0.024977 -0.04134,0.024116 -0.07235,0.074931 -0.03014,0.050815 -0.04823,0.1274686 -0.01723,0.076653 -0.01723,0.1817289 z m 0.454753,0.00345 q 0,-0.014642 -8.61e-4,-0.029283 -8.61e-4,-0.015503 -8.61e-4,-0.029283 l -0.419441,0.3031686 q 0.02756,0.083544 0.07752,0.1240235 0.04995,0.04048 0.116272,0.04048 0.04823,0 0.08957,-0.024977 0.0422,-0.024977 0.07235,-0.074931 0.03101,-0.050815 0.04823,-0.1274686 0.01722,-0.077515 0.01722,-0.1817289 z"
         id="path185-2" />
    </g>
    <g
       aria-label="25"
       id="text966-0-99-1"
       style="font-style:normal;font-variant:normal;font-weight:bold;font-stretch:normal;font-size:1.76389px;line-height:1.25;font-family:Consolas;-inkscape-font-specification:'Consolas, Bold';font-variant-ligatures:normal;font-variant-caps:normal;font-variant-numeric:normal;font-variant-east-asian:normal;display:inline;fill:#ffffff;fill-opacity:1;stroke:none;stroke-width:0.264583"
       transform="translate(-21.665685,139.65487)">
      <path
         d="M 22.616538,2.0732279 V 1.9181985 l 0.266134,-0.2661338 q 0.07493,-0.074931 0.119717,-0.1291912 0.04565,-0.05426 0.06976,-0.096463 0.02498,-0.043064 0.03273,-0.079237 0.0078,-0.036174 0.0078,-0.074931 0,-0.031867 -0.01034,-0.060289 -0.01034,-0.029283 -0.03014,-0.049954 -0.01981,-0.021532 -0.04995,-0.03359 -0.03015,-0.012919 -0.0689,-0.012919 -0.06632,0 -0.123163,0.029283 -0.05684,0.028422 -0.107659,0.076654 L 22.611371,1.0784559 q 0.07321,-0.068041 0.164503,-0.10852056 0.09216,-0.0413412 0.198955,-0.0413412 0.08268,0 0.149861,0.0215319 0.06718,0.0206706 0.11455,0.0620118 0.04823,0.041341 0.07407,0.1033529 0.0267,0.062012 0.0267,0.1429716 0,0.067179 -0.01809,0.125746 -0.01809,0.057705 -0.05254,0.112827 -0.03445,0.055122 -0.08527,0.1102431 -0.04995,0.055122 -0.114549,0.1162721 l -0.163642,0.1558906 h 0.474562 v 0.1937868 z"
         style="stroke-width:0.264583"
         id="path166-8" />
      <path
         d="m 24.343394,1.7132152 q 0,0.090434 -0.0379,0.1610583 -0.0379,0.069763 -0.105076,0.1179946 -0.06718,0.048231 -0.158474,0.073208 -0.0913,0.024977 -0.198093,0.024977 -0.0267,0 -0.05685,-0.00172 -0.03014,-0.00172 -0.06115,-0.00431 -0.03101,-0.00258 -0.06029,-0.00689 -0.02928,-0.00345 -0.05426,-0.00775 V 1.8863313 q 0.04909,0.012058 0.112827,0.019809 0.06374,0.00689 0.130053,0.00689 0.129191,0 0.19637,-0.049093 0.06804,-0.049954 0.06804,-0.1378039 0,-0.091295 -0.06287,-0.1352201 -0.06287,-0.044786 -0.203261,-0.044786 H 23.631981 V 0.94754221 h 0.649401 V 1.1456353 h -0.45303 v 0.229099 h 0.08096 q 0.08613,0 0.164504,0.015503 0.07838,0.015503 0.137804,0.05426 0.06029,0.037896 0.0956,0.1033529 0.03617,0.065457 0.03617,0.1653647 z"
         style="stroke-width:0.264583"
         id="path168-6" />
    </g>
    <g
       aria-label="50"
       id="text966-0-3-4"
       style="font-style:normal;font-variant:normal;font-weight:bold;font-stretch:normal;font-size:1.76389px;line-height:1.25;font-family:Consolas;-inkscape-font-specification:'Consolas, Bold';font-variant-ligatures:normal;font-variant-caps:normal;font-variant-numeric:normal;font-variant-east-asian:normal;display:inline;fill:#ffffff;fill-opacity:1;stroke:none;stroke-width:0.264583"
       transform="translate(-46.758479,114.60519)">
      <path
         d="m 48.371874,1.7132152 q 0,0.090434 -0.0379,0.1610583 -0.0379,0.069763 -0.105075,0.1179946 -0.06718,0.048231 -0.158475,0.073208 -0.0913,0.024977 -0.198093,0.024977 -0.0267,0 -0.05684,-0.00172 -0.03015,-0.00172 -0.06115,-0.00431 -0.03101,-0.00258 -0.06029,-0.00689 -0.02928,-0.00345 -0.05426,-0.00775 V 1.8863313 q 0.04909,0.012058 0.112827,0.019809 0.06373,0.00689 0.130052,0.00689 0.129191,0 0.196371,-0.049093 0.06804,-0.049954 0.06804,-0.1378039 0,-0.091295 -0.06287,-0.1352201 -0.06287,-0.044786 -0.203261,-0.044786 H 47.660462 V 0.94754221 h 0.6494 V 1.1456353 h -0.45303 v 0.229099 h 0.08096 q 0.08613,0 0.164503,0.015503 0.07838,0.015503 0.137804,0.05426 0.06029,0.037896 0.0956,0.1033529 0.03617,0.065457 0.03617,0.1653647 z"
         style="stroke-width:0.264583"
         id="path171-2" />
      <path
         d="m 49.401097,1.505648 q 0,0.1386652 -0.03014,0.2480471 -0.03014,0.1093818 -0.08871,0.185174 -0.0577,0.074931 -0.141249,0.1145495 -0.08354,0.039619 -0.191203,0.039619 -0.09302,0 -0.171393,-0.032728 -0.07838,-0.032729 -0.13522,-0.1024917 -0.05684,-0.070624 -0.08871,-0.1800063 -0.03187,-0.1093819 -0.03187,-0.2618275 0,-0.1386652 0.03015,-0.248047 0.03101,-0.1093819 0.08871,-0.1843127 0.0577,-0.075792 0.14211,-0.11541081 0.0844,-0.0396186 0.191203,-0.0396186 0.09302,0 0.171394,0.0327284 0.07838,0.0327284 0.134359,0.10249171 0.05684,0.069763 0.08871,0.179145 0.03187,0.1093819 0.03187,0.2626887 z m -0.666626,0.00345 q 0,0.017225 0,0.032728 0,0.014642 0.0017,0.030145 l 0.422047,-0.304896 q -0.03014,-0.085266 -0.0801,-0.125746 -0.04909,-0.041341 -0.116272,-0.041341 -0.04823,0 -0.08957,0.024977 -0.04134,0.024116 -0.07235,0.074931 -0.03015,0.050815 -0.04823,0.1274686 -0.01723,0.076653 -0.01723,0.1817289 z m 0.454753,0.00345 q 0,-0.014642 -8.62e-4,-0.029283 -8.61e-4,-0.015503 -8.61e-4,-0.029283 L 48.76806,1.7571402 q 0.02756,0.083544 0.07751,0.1240235 0.04995,0.04048 0.116272,0.04048 0.04823,0 0.08957,-0.024977 0.0422,-0.024977 0.07235,-0.074931 0.03101,-0.050815 0.04823,-0.1274686 0.01723,-0.077515 0.01723,-0.1817289 z"
         style="stroke-width:0.264583"
         id="path173-7" />
    </g>
    <g
       aria-label="75"
       id="text966-0-7-6"
       style="font-style:normal;font-variant:normal;font-weight:bold;font-stretch:normal;font-size:1.76389px;line-height:1.25;font-family:Consolas;-inkscape-font-specification:'Consolas, Bold';font-variant-ligatures:normal;font-variant-caps:normal;font-variant-numeric:normal;font-variant-east-asian:normal;display:inline;fill:#ffffff;fill-opacity:1;stroke:none;stroke-width:0.264583"
       transform="translate(-71.57512,90.04448)">
      <path
         d="M 72.926595,2.0732279 H 72.688884 L 73.136746,1.150803 H 72.596727 V 0.94754221 h 0.782037 V 1.1309937 Z"
         style="stroke-width:0.264583"
         id="path176-3" />
      <path
         d="m 74.343392,1.7132152 q 0,0.090434 -0.0379,0.1610583 -0.0379,0.069763 -0.105076,0.1179946 -0.06718,0.048231 -0.158474,0.073208 -0.0913,0.024977 -0.198093,0.024977 -0.0267,0 -0.05684,-0.00172 -0.03014,-0.00172 -0.06115,-0.00431 -0.03101,-0.00258 -0.06029,-0.00689 -0.02928,-0.00345 -0.05426,-0.00775 V 1.8863313 q 0.04909,0.012058 0.112826,0.019809 0.06373,0.00689 0.130053,0.00689 0.129191,0 0.19637,-0.049093 0.06804,-0.049954 0.06804,-0.1378039 0,-0.091295 -0.06287,-0.1352201 -0.06287,-0.044786 -0.203261,-0.044786 H 73.631979 V 0.94754221 H 74.28138 V 1.1456353 h -0.45303 v 0.229099 h 0.08096 q 0.08613,0 0.164504,0.015503 0.07838,0.015503 0.137804,0.05426 0.06029,0.037896 0.0956,0.1033529 0.03617,0.065457 0.03617,0.1653647 z"
         style="stroke-width:0.264583"
         id="path178-3" />
    </g>
    <g
       aria-label="150"
       id="text966-0-5-1-6"
       style="font-style:normal;font-variant:normal;font-weight:bold;font-stretch:normal;font-size:1.76389px;line-height:1.25;font-family:Consolas;-inkscape-font-specification:'Consolas, Bold';font-variant-ligatures:normal;font-variant-caps:normal;font-variant-numeric:normal;font-variant-east-asian:normal;display:inline;fill:#ffffff;fill-opacity:1;stroke:none;stroke-width:0.264583"
       transform="translate(-145.49952,14.988432)">
      <path
         d="M 146.47099,2.0732279 V 1.8863313 h 0.2868 V 1.1628608 l -0.24977,0.1378039 -0.0689,-0.1713936 0.35743,-0.18861909 h 0.17656 V 1.8863313 h 0.24719 v 0.1868966 z"
         style="stroke-width:0.264583"
         id="path195-7" />
      <path
         d="m 148.17803,1.7132152 q 0,0.090434 -0.0379,0.1610583 -0.0379,0.069763 -0.10508,0.1179946 -0.0672,0.048231 -0.15847,0.073208 -0.0913,0.024977 -0.1981,0.024977 -0.0267,0 -0.0568,-0.00172 -0.0301,-0.00172 -0.0611,-0.00431 -0.031,-0.00258 -0.0603,-0.00689 -0.0293,-0.00345 -0.0543,-0.00775 V 1.8863313 q 0.0491,0.012058 0.11283,0.019809 0.0637,0.00689 0.13005,0.00689 0.12919,0 0.19637,-0.049093 0.068,-0.049954 0.068,-0.1378039 0,-0.091295 -0.0629,-0.1352201 -0.0629,-0.044786 -0.20326,-0.044786 h -0.22049 V 0.94754221 h 0.6494 V 1.1456353 h -0.45303 v 0.229099 h 0.081 q 0.0861,0 0.1645,0.015503 0.0784,0.015503 0.13781,0.05426 0.0603,0.037896 0.0956,0.1033529 0.0362,0.065457 0.0362,0.1653647 z"
         style="stroke-width:0.264583"
         id="path197-7" />
      <path
         d="m 149.20726,1.505648 q 0,0.1386652 -0.0301,0.2480471 -0.0301,0.1093818 -0.0887,0.185174 -0.0577,0.074931 -0.14125,0.1145495 -0.0835,0.039619 -0.1912,0.039619 -0.093,0 -0.1714,-0.032728 -0.0784,-0.032729 -0.13522,-0.1024917 -0.0568,-0.070624 -0.0887,-0.1800063 -0.0319,-0.1093819 -0.0319,-0.2618275 0,-0.1386652 0.0301,-0.248047 0.031,-0.1093819 0.0887,-0.1843127 0.0577,-0.075792 0.14211,-0.11541081 0.0844,-0.0396186 0.1912,-0.0396186 0.093,0 0.1714,0.0327284 0.0784,0.0327284 0.13436,0.10249171 0.0568,0.069763 0.0887,0.179145 0.0319,0.1093819 0.0319,0.2626879 z m -0.66663,0.00345 q 0,0.017225 0,0.032728 0,0.014642 0.002,0.030145 l 0.42203,-0.3048912 q -0.0301,-0.085266 -0.0801,-0.125746 -0.0491,-0.041341 -0.11627,-0.041341 -0.0482,0 -0.0896,0.024977 -0.0413,0.024116 -0.0723,0.074931 -0.0301,0.050815 -0.0482,0.1274686 -0.0172,0.076653 -0.0172,0.1817289 z m 0.45475,0.00345 q 0,-0.014642 -8.6e-4,-0.029283 -8.6e-4,-0.015503 -8.6e-4,-0.029283 l -0.41944,0.3031686 q 0.0276,0.083544 0.0775,0.1240235 0.05,0.04048 0.11628,0.04048 0.0482,0 0.0896,-0.024977 0.0422,-0.024977 0.0723,-0.074931 0.031,-0.050815 0.0482,-0.1274686 0.0172,-0.077515 0.0172,-0.1817289 z"
         style="stroke-width:0.264583"
         id="path199-0" />
    </g>
  </g>
</svg>
