solid OpenSCAD_Model
  facet normal 0 0 -1
    outer loop
      vertex 114.605 -117.498 -3
      vertex 114.502 -117.498 -3
      vertex 114.814 -117.484 -3
    endloop
  endfacet
  facet normal -0 0 -1
    outer loop
      vertex 114.814 -117.484 -3
      vertex 114.502 -117.498 -3
      vertex 115.021 -117.454 -3
    endloop
  endfacet
  facet normal -0 0 -1
    outer loop
      vertex 117.5 -114.5 -3
      vertex 114.502 -117.498 -3
      vertex 114.502 117.498 -3
    endloop
  endfacet
  facet normal -0 0 -1
    outer loop
      vertex 115.021 -117.454 -3
      vertex 114.502 -117.498 -3
      vertex 115.226 -117.411 -3
    endloop
  endfacet
  facet normal -0 0 -1
    outer loop
      vertex 115.226 -117.411 -3
      vertex 114.502 -117.498 -3
      vertex 115.427 -117.353 -3
    endloop
  endfacet
  facet normal -0 0 -1
    outer loop
      vertex 115.427 -117.353 -3
      vertex 114.502 -117.498 -3
      vertex 115.624 -117.282 -3
    endloop
  endfacet
  facet normal -0 0 -1
    outer loop
      vertex 115.624 -117.282 -3
      vertex 114.502 -117.498 -3
      vertex 115.815 -117.196 -3
    endloop
  endfacet
  facet normal -0 0 -1
    outer loop
      vertex 115.815 -117.196 -3
      vertex 114.502 -117.498 -3
      vertex 116 -117.098 -3
    endloop
  endfacet
  facet normal -0 0 -1
    outer loop
      vertex 116 -117.098 -3
      vertex 114.502 -117.498 -3
      vertex 116.178 -116.987 -3
    endloop
  endfacet
  facet normal -0 0 -1
    outer loop
      vertex 116.178 -116.987 -3
      vertex 114.502 -117.498 -3
      vertex 116.347 -116.864 -3
    endloop
  endfacet
  facet normal -0 0 -1
    outer loop
      vertex 116.347 -116.864 -3
      vertex 114.502 -117.498 -3
      vertex 116.507 -116.729 -3
    endloop
  endfacet
  facet normal -0 0 -1
    outer loop
      vertex 116.507 -116.729 -3
      vertex 114.502 -117.498 -3
      vertex 116.658 -116.584 -3
    endloop
  endfacet
  facet normal -0 0 -1
    outer loop
      vertex 116.658 -116.584 -3
      vertex 114.502 -117.498 -3
      vertex 116.798 -116.428 -3
    endloop
  endfacet
  facet normal -0 0 -1
    outer loop
      vertex 116.798 -116.428 -3
      vertex 114.502 -117.498 -3
      vertex 116.927 -116.263 -3
    endloop
  endfacet
  facet normal -0 0 -1
    outer loop
      vertex 116.927 -116.263 -3
      vertex 114.502 -117.498 -3
      vertex 117.044 -116.09 -3
    endloop
  endfacet
  facet normal -0 0 -1
    outer loop
      vertex 117.044 -116.09 -3
      vertex 114.502 -117.498 -3
      vertex 117.149 -115.908 -3
    endloop
  endfacet
  facet normal -0 0 -1
    outer loop
      vertex 117.149 -115.908 -3
      vertex 114.502 -117.498 -3
      vertex 117.241 -115.72 -3
    endloop
  endfacet
  facet normal -0 0 -1
    outer loop
      vertex 117.241 -115.72 -3
      vertex 114.502 -117.498 -3
      vertex 117.319 -115.526 -3
    endloop
  endfacet
  facet normal -0 0 -1
    outer loop
      vertex 117.319 -115.526 -3
      vertex 114.502 -117.498 -3
      vertex 117.384 -115.327 -3
    endloop
  endfacet
  facet normal -0 0 -1
    outer loop
      vertex 117.384 -115.327 -3
      vertex 114.502 -117.498 -3
      vertex 117.434 -115.124 -3
    endloop
  endfacet
  facet normal -0 0 -1
    outer loop
      vertex 117.434 -115.124 -3
      vertex 114.502 -117.498 -3
      vertex 117.471 -114.918 -3
    endloop
  endfacet
  facet normal -0 0 -1
    outer loop
      vertex 117.471 -114.918 -3
      vertex 114.502 -117.498 -3
      vertex 117.493 -114.709 -3
    endloop
  endfacet
  facet normal -0 0 -1
    outer loop
      vertex 117.493 -114.709 -3
      vertex 114.502 -117.498 -3
      vertex 117.5 -114.5 -3
    endloop
  endfacet
  facet normal 0 0 -1
    outer loop
      vertex 117.5 -114.5 -3
      vertex 114.502 117.498 -3
      vertex 117.5 114.5 -3
    endloop
  endfacet
  facet normal 0 0 -1
    outer loop
      vertex 114.502 117.498 -3
      vertex 117.471 114.918 -3
      vertex 117.493 114.709 -3
    endloop
  endfacet
  facet normal -0 -0 -1
    outer loop
      vertex 117.384 115.327 -3
      vertex 117.434 115.124 -3
      vertex 114.502 117.498 -3
    endloop
  endfacet
  facet normal 0 0 -1
    outer loop
      vertex 117.241 115.72 -3
      vertex 114.502 117.498 -3
      vertex 117.149 115.908 -3
    endloop
  endfacet
  facet normal -0 -0 -1
    outer loop
      vertex 117.241 115.72 -3
      vertex 117.319 115.526 -3
      vertex 114.502 117.498 -3
    endloop
  endfacet
  facet normal 0 0 -1
    outer loop
      vertex 114.502 117.498 -3
      vertex 116.507 116.729 -3
      vertex 116.658 116.584 -3
    endloop
  endfacet
  facet normal 0 0 -1
    outer loop
      vertex 116.927 116.263 -3
      vertex 114.502 117.498 -3
      vertex 116.798 116.428 -3
    endloop
  endfacet
  facet normal -0 -0 -1
    outer loop
      vertex 116.927 116.263 -3
      vertex 117.044 116.09 -3
      vertex 114.502 117.498 -3
    endloop
  endfacet
  facet normal 0 0 -1
    outer loop
      vertex 116.798 116.428 -3
      vertex 114.502 117.498 -3
      vertex 116.658 116.584 -3
    endloop
  endfacet
  facet normal 0 0 -1
    outer loop
      vertex 114.502 117.498 -3
      vertex 115.427 117.353 -3
      vertex 115.624 117.282 -3
    endloop
  endfacet
  facet normal 0 0 -1
    outer loop
      vertex 116.347 116.864 -3
      vertex 114.502 117.498 -3
      vertex 116.178 116.987 -3
    endloop
  endfacet
  facet normal -0 -0 -1
    outer loop
      vertex 116.347 116.864 -3
      vertex 116.507 116.729 -3
      vertex 114.502 117.498 -3
    endloop
  endfacet
  facet normal 0 0 -1
    outer loop
      vertex 116.178 116.987 -3
      vertex 114.502 117.498 -3
      vertex 116 117.098 -3
    endloop
  endfacet
  facet normal 0 0 -1
    outer loop
      vertex 116 117.098 -3
      vertex 114.502 117.498 -3
      vertex 115.815 117.196 -3
    endloop
  endfacet
  facet normal 0 0 -1
    outer loop
      vertex 115.815 117.196 -3
      vertex 114.502 117.498 -3
      vertex 115.624 117.282 -3
    endloop
  endfacet
  facet normal 0 0 -1
    outer loop
      vertex 117.149 115.908 -3
      vertex 114.502 117.498 -3
      vertex 117.044 116.09 -3
    endloop
  endfacet
  facet normal 0 0 -1
    outer loop
      vertex 115.226 117.411 -3
      vertex 114.502 117.498 -3
      vertex 115.021 117.454 -3
    endloop
  endfacet
  facet normal -0 -0 -1
    outer loop
      vertex 115.226 117.411 -3
      vertex 115.427 117.353 -3
      vertex 114.502 117.498 -3
    endloop
  endfacet
  facet normal -0 -0 -1
    outer loop
      vertex 117.319 115.526 -3
      vertex 117.384 115.327 -3
      vertex 114.502 117.498 -3
    endloop
  endfacet
  facet normal -0 -0 -1
    outer loop
      vertex 114.814 117.484 -3
      vertex 115.021 117.454 -3
      vertex 114.502 117.498 -3
    endloop
  endfacet
  facet normal 0 0 -1
    outer loop
      vertex 114.502 117.498 -3
      vertex 117.434 115.124 -3
      vertex 117.471 114.918 -3
    endloop
  endfacet
  facet normal 0 0 -1
    outer loop
      vertex 114.502 117.498 -3
      vertex 114.605 117.498 -3
      vertex 114.814 117.484 -3
    endloop
  endfacet
  facet normal 0 0 -1
    outer loop
      vertex 117.5 114.5 -3
      vertex 114.502 117.498 -3
      vertex 117.493 114.709 -3
    endloop
  endfacet
  facet normal 0 -0 -1
    outer loop
      vertex -114.5 117.5 -3
      vertex 114.5 117.5 -3
      vertex -114.502 117.498 -3
    endloop
  endfacet
  facet normal 0 0 -1
    outer loop
      vertex -114.502 117.498 -3
      vertex 114.5 117.5 -3
      vertex 114.502 117.498 -3
    endloop
  endfacet
  facet normal 0 0 -1
    outer loop
      vertex 114.502 -117.498 -3
      vertex -114.502 117.498 -3
      vertex 114.502 117.498 -3
    endloop
  endfacet
  facet normal 0 0 -1
    outer loop
      vertex -117.5 -114.5 -3
      vertex -117.5 114.5 -3
      vertex -114.502 -117.498 -3
    endloop
  endfacet
  facet normal -0 0 -1
    outer loop
      vertex -114.502 117.498 -3
      vertex -114.814 117.484 -3
      vertex -114.605 117.498 -3
    endloop
  endfacet
  facet normal 0 0 -1
    outer loop
      vertex -114.502 117.498 -3
      vertex -115.021 117.454 -3
      vertex -114.814 117.484 -3
    endloop
  endfacet
  facet normal 0 0 -1
    outer loop
      vertex -114.502 117.498 -3
      vertex -115.226 117.411 -3
      vertex -115.021 117.454 -3
    endloop
  endfacet
  facet normal 0 0 -1
    outer loop
      vertex -114.502 117.498 -3
      vertex -115.427 117.353 -3
      vertex -115.226 117.411 -3
    endloop
  endfacet
  facet normal 0 0 -1
    outer loop
      vertex -114.502 117.498 -3
      vertex -115.624 117.282 -3
      vertex -115.427 117.353 -3
    endloop
  endfacet
  facet normal 0 0 -1
    outer loop
      vertex -114.502 117.498 -3
      vertex -115.815 117.196 -3
      vertex -115.624 117.282 -3
    endloop
  endfacet
  facet normal 0 0 -1
    outer loop
      vertex -114.502 117.498 -3
      vertex -116 117.098 -3
      vertex -115.815 117.196 -3
    endloop
  endfacet
  facet normal 0 0 -1
    outer loop
      vertex -114.502 117.498 -3
      vertex -116.178 116.987 -3
      vertex -116 117.098 -3
    endloop
  endfacet
  facet normal 0 0 -1
    outer loop
      vertex -114.502 117.498 -3
      vertex -116.347 116.864 -3
      vertex -116.178 116.987 -3
    endloop
  endfacet
  facet normal 0 0 -1
    outer loop
      vertex -114.502 117.498 -3
      vertex -116.507 116.729 -3
      vertex -116.347 116.864 -3
    endloop
  endfacet
  facet normal 0 0 -1
    outer loop
      vertex -114.502 117.498 -3
      vertex -116.658 116.584 -3
      vertex -116.507 116.729 -3
    endloop
  endfacet
  facet normal 0 0 -1
    outer loop
      vertex -114.502 117.498 -3
      vertex -116.798 116.428 -3
      vertex -116.658 116.584 -3
    endloop
  endfacet
  facet normal 0 0 -1
    outer loop
      vertex -114.502 117.498 -3
      vertex -116.927 116.263 -3
      vertex -116.798 116.428 -3
    endloop
  endfacet
  facet normal 0 0 -1
    outer loop
      vertex -114.502 117.498 -3
      vertex -117.044 116.09 -3
      vertex -116.927 116.263 -3
    endloop
  endfacet
  facet normal 0 0 -1
    outer loop
      vertex -114.502 117.498 -3
      vertex -117.149 115.908 -3
      vertex -117.044 116.09 -3
    endloop
  endfacet
  facet normal 0 0 -1
    outer loop
      vertex -114.502 117.498 -3
      vertex -117.241 115.72 -3
      vertex -117.149 115.908 -3
    endloop
  endfacet
  facet normal 0 0 -1
    outer loop
      vertex -114.502 117.498 -3
      vertex -117.319 115.526 -3
      vertex -117.241 115.72 -3
    endloop
  endfacet
  facet normal 0 0 -1
    outer loop
      vertex -114.502 117.498 -3
      vertex -117.384 115.327 -3
      vertex -117.319 115.526 -3
    endloop
  endfacet
  facet normal 0 0 -1
    outer loop
      vertex -114.502 117.498 -3
      vertex -117.434 115.124 -3
      vertex -117.384 115.327 -3
    endloop
  endfacet
  facet normal 0 0 -1
    outer loop
      vertex -114.502 117.498 -3
      vertex -117.471 114.918 -3
      vertex -117.434 115.124 -3
    endloop
  endfacet
  facet normal 0 0 -1
    outer loop
      vertex -114.502 117.498 -3
      vertex -117.493 114.709 -3
      vertex -117.471 114.918 -3
    endloop
  endfacet
  facet normal 0 0 -1
    outer loop
      vertex -114.502 117.498 -3
      vertex -117.5 114.5 -3
      vertex -117.493 114.709 -3
    endloop
  endfacet
  facet normal 0 0 -1
    outer loop
      vertex -114.502 -117.498 -3
      vertex -117.5 114.5 -3
      vertex -114.502 117.498 -3
    endloop
  endfacet
  facet normal 0 0 -1
    outer loop
      vertex 114.502 -117.498 -3
      vertex -114.502 -117.498 -3
      vertex -114.502 117.498 -3
    endloop
  endfacet
  facet normal 0 0 -1
    outer loop
      vertex -114.502 -117.498 -3
      vertex -117.471 -114.918 -3
      vertex -117.493 -114.709 -3
    endloop
  endfacet
  facet normal 0 0 -1
    outer loop
      vertex -117.384 -115.327 -3
      vertex -117.434 -115.124 -3
      vertex -114.502 -117.498 -3
    endloop
  endfacet
  facet normal 0 0 -1
    outer loop
      vertex -117.241 -115.72 -3
      vertex -114.502 -117.498 -3
      vertex -117.149 -115.908 -3
    endloop
  endfacet
  facet normal 0 0 -1
    outer loop
      vertex -117.241 -115.72 -3
      vertex -117.319 -115.526 -3
      vertex -114.502 -117.498 -3
    endloop
  endfacet
  facet normal 0 0 -1
    outer loop
      vertex -114.502 -117.498 -3
      vertex -116.507 -116.729 -3
      vertex -116.658 -116.584 -3
    endloop
  endfacet
  facet normal 0 0 -1
    outer loop
      vertex -116.927 -116.263 -3
      vertex -114.502 -117.498 -3
      vertex -116.798 -116.428 -3
    endloop
  endfacet
  facet normal 0 0 -1
    outer loop
      vertex -116.927 -116.263 -3
      vertex -117.044 -116.09 -3
      vertex -114.502 -117.498 -3
    endloop
  endfacet
  facet normal 0 0 -1
    outer loop
      vertex -116.798 -116.428 -3
      vertex -114.502 -117.498 -3
      vertex -116.658 -116.584 -3
    endloop
  endfacet
  facet normal 0 0 -1
    outer loop
      vertex -114.502 -117.498 -3
      vertex -115.427 -117.353 -3
      vertex -115.624 -117.282 -3
    endloop
  endfacet
  facet normal 0 0 -1
    outer loop
      vertex -116.347 -116.864 -3
      vertex -114.502 -117.498 -3
      vertex -116.178 -116.987 -3
    endloop
  endfacet
  facet normal 0 0 -1
    outer loop
      vertex -116.347 -116.864 -3
      vertex -116.507 -116.729 -3
      vertex -114.502 -117.498 -3
    endloop
  endfacet
  facet normal 0 0 -1
    outer loop
      vertex -116.178 -116.987 -3
      vertex -114.502 -117.498 -3
      vertex -116 -117.098 -3
    endloop
  endfacet
  facet normal 0 0 -1
    outer loop
      vertex -116 -117.098 -3
      vertex -114.502 -117.498 -3
      vertex -115.815 -117.196 -3
    endloop
  endfacet
  facet normal 0 0 -1
    outer loop
      vertex -115.815 -117.196 -3
      vertex -114.502 -117.498 -3
      vertex -115.624 -117.282 -3
    endloop
  endfacet
  facet normal 0 0 -1
    outer loop
      vertex -117.149 -115.908 -3
      vertex -114.502 -117.498 -3
      vertex -117.044 -116.09 -3
    endloop
  endfacet
  facet normal 0 0 -1
    outer loop
      vertex -115.226 -117.411 -3
      vertex -114.502 -117.498 -3
      vertex -115.021 -117.454 -3
    endloop
  endfacet
  facet normal 0 0 -1
    outer loop
      vertex -115.226 -117.411 -3
      vertex -115.427 -117.353 -3
      vertex -114.502 -117.498 -3
    endloop
  endfacet
  facet normal 0 0 -1
    outer loop
      vertex -117.319 -115.526 -3
      vertex -117.384 -115.327 -3
      vertex -114.502 -117.498 -3
    endloop
  endfacet
  facet normal 0 0 -1
    outer loop
      vertex -114.814 -117.484 -3
      vertex -115.021 -117.454 -3
      vertex -114.502 -117.498 -3
    endloop
  endfacet
  facet normal 0 0 -1
    outer loop
      vertex -114.502 -117.498 -3
      vertex -117.434 -115.124 -3
      vertex -117.471 -114.918 -3
    endloop
  endfacet
  facet normal 0 0 -1
    outer loop
      vertex -114.502 -117.498 -3
      vertex -114.605 -117.498 -3
      vertex -114.814 -117.484 -3
    endloop
  endfacet
  facet normal -0 0 -1
    outer loop
      vertex 114.502 -117.498 -3
      vertex 114.5 -117.5 -3
      vertex -114.502 -117.498 -3
    endloop
  endfacet
  facet normal 0 0 -1
    outer loop
      vertex -114.502 -117.498 -3
      vertex 114.5 -117.5 -3
      vertex -114.5 -117.5 -3
    endloop
  endfacet
  facet normal 0 0 -1
    outer loop
      vertex -117.5 -114.5 -3
      vertex -114.502 -117.498 -3
      vertex -117.493 -114.709 -3
    endloop
  endfacet
  facet normal 0 0 1
    outer loop
      vertex 114.814 -117.484 0
      vertex 114.502 -117.498 0
      vertex 114.605 -117.498 0
    endloop
  endfacet
  facet normal 0 0 1
    outer loop
      vertex 115.021 -117.454 0
      vertex 114.502 -117.498 0
      vertex 114.814 -117.484 0
    endloop
  endfacet
  facet normal 0 0 1
    outer loop
      vertex 114.502 117.498 0
      vertex 114.502 -117.498 0
      vertex 117.5 -114.5 0
    endloop
  endfacet
  facet normal 0 0 1
    outer loop
      vertex 115.226 -117.411 0
      vertex 114.502 -117.498 0
      vertex 115.021 -117.454 0
    endloop
  endfacet
  facet normal 0 0 1
    outer loop
      vertex 115.427 -117.353 0
      vertex 114.502 -117.498 0
      vertex 115.226 -117.411 0
    endloop
  endfacet
  facet normal 0 0 1
    outer loop
      vertex 115.624 -117.282 0
      vertex 114.502 -117.498 0
      vertex 115.427 -117.353 0
    endloop
  endfacet
  facet normal 0 0 1
    outer loop
      vertex 115.815 -117.196 0
      vertex 114.502 -117.498 0
      vertex 115.624 -117.282 0
    endloop
  endfacet
  facet normal 0 0 1
    outer loop
      vertex 116 -117.098 0
      vertex 114.502 -117.498 0
      vertex 115.815 -117.196 0
    endloop
  endfacet
  facet normal 0 0 1
    outer loop
      vertex 116.178 -116.987 0
      vertex 114.502 -117.498 0
      vertex 116 -117.098 0
    endloop
  endfacet
  facet normal 0 0 1
    outer loop
      vertex 116.347 -116.864 0
      vertex 114.502 -117.498 0
      vertex 116.178 -116.987 0
    endloop
  endfacet
  facet normal 0 0 1
    outer loop
      vertex 116.507 -116.729 0
      vertex 114.502 -117.498 0
      vertex 116.347 -116.864 0
    endloop
  endfacet
  facet normal 0 0 1
    outer loop
      vertex 116.658 -116.584 0
      vertex 114.502 -117.498 0
      vertex 116.507 -116.729 0
    endloop
  endfacet
  facet normal 0 0 1
    outer loop
      vertex 116.798 -116.428 0
      vertex 114.502 -117.498 0
      vertex 116.658 -116.584 0
    endloop
  endfacet
  facet normal 0 0 1
    outer loop
      vertex 116.927 -116.263 0
      vertex 114.502 -117.498 0
      vertex 116.798 -116.428 0
    endloop
  endfacet
  facet normal 0 0 1
    outer loop
      vertex 117.044 -116.09 0
      vertex 114.502 -117.498 0
      vertex 116.927 -116.263 0
    endloop
  endfacet
  facet normal 0 0 1
    outer loop
      vertex 117.149 -115.908 0
      vertex 114.502 -117.498 0
      vertex 117.044 -116.09 0
    endloop
  endfacet
  facet normal 0 0 1
    outer loop
      vertex 117.241 -115.72 0
      vertex 114.502 -117.498 0
      vertex 117.149 -115.908 0
    endloop
  endfacet
  facet normal 0 0 1
    outer loop
      vertex 117.319 -115.526 0
      vertex 114.502 -117.498 0
      vertex 117.241 -115.72 0
    endloop
  endfacet
  facet normal 0 0 1
    outer loop
      vertex 117.384 -115.327 0
      vertex 114.502 -117.498 0
      vertex 117.319 -115.526 0
    endloop
  endfacet
  facet normal 0 0 1
    outer loop
      vertex 117.434 -115.124 0
      vertex 114.502 -117.498 0
      vertex 117.384 -115.327 0
    endloop
  endfacet
  facet normal 0 0 1
    outer loop
      vertex 117.471 -114.918 0
      vertex 114.502 -117.498 0
      vertex 117.434 -115.124 0
    endloop
  endfacet
  facet normal 0 0 1
    outer loop
      vertex 117.493 -114.709 0
      vertex 114.502 -117.498 0
      vertex 117.471 -114.918 0
    endloop
  endfacet
  facet normal 0 0 1
    outer loop
      vertex 117.5 -114.5 0
      vertex 114.502 -117.498 0
      vertex 117.493 -114.709 0
    endloop
  endfacet
  facet normal 0 0 1
    outer loop
      vertex 117.5 114.5 0
      vertex 114.502 117.498 0
      vertex 117.5 -114.5 0
    endloop
  endfacet
  facet normal 0 0 1
    outer loop
      vertex 117.493 114.709 0
      vertex 117.471 114.918 0
      vertex 114.502 117.498 0
    endloop
  endfacet
  facet normal 0 0 1
    outer loop
      vertex 114.502 117.498 0
      vertex 117.434 115.124 0
      vertex 117.384 115.327 0
    endloop
  endfacet
  facet normal 0 0 1
    outer loop
      vertex 117.149 115.908 0
      vertex 114.502 117.498 0
      vertex 117.241 115.72 0
    endloop
  endfacet
  facet normal 0 0 1
    outer loop
      vertex 114.502 117.498 0
      vertex 117.319 115.526 0
      vertex 117.241 115.72 0
    endloop
  endfacet
  facet normal 0 0 1
    outer loop
      vertex 116.658 116.584 0
      vertex 116.507 116.729 0
      vertex 114.502 117.498 0
    endloop
  endfacet
  facet normal 0 0 1
    outer loop
      vertex 116.798 116.428 0
      vertex 114.502 117.498 0
      vertex 116.927 116.263 0
    endloop
  endfacet
  facet normal 0 0 1
    outer loop
      vertex 114.502 117.498 0
      vertex 117.044 116.09 0
      vertex 116.927 116.263 0
    endloop
  endfacet
  facet normal 0 0 1
    outer loop
      vertex 116.658 116.584 0
      vertex 114.502 117.498 0
      vertex 116.798 116.428 0
    endloop
  endfacet
  facet normal 0 0 1
    outer loop
      vertex 115.624 117.282 0
      vertex 115.427 117.353 0
      vertex 114.502 117.498 0
    endloop
  endfacet
  facet normal 0 0 1
    outer loop
      vertex 116.178 116.987 0
      vertex 114.502 117.498 0
      vertex 116.347 116.864 0
    endloop
  endfacet
  facet normal 0 0 1
    outer loop
      vertex 114.502 117.498 0
      vertex 116.507 116.729 0
      vertex 116.347 116.864 0
    endloop
  endfacet
  facet normal 0 0 1
    outer loop
      vertex 116 117.098 0
      vertex 114.502 117.498 0
      vertex 116.178 116.987 0
    endloop
  endfacet
  facet normal 0 0 1
    outer loop
      vertex 115.815 117.196 0
      vertex 114.502 117.498 0
      vertex 116 117.098 0
    endloop
  endfacet
  facet normal 0 0 1
    outer loop
      vertex 115.624 117.282 0
      vertex 114.502 117.498 0
      vertex 115.815 117.196 0
    endloop
  endfacet
  facet normal 0 0 1
    outer loop
      vertex 117.044 116.09 0
      vertex 114.502 117.498 0
      vertex 117.149 115.908 0
    endloop
  endfacet
  facet normal 0 0 1
    outer loop
      vertex 115.021 117.454 0
      vertex 114.502 117.498 0
      vertex 115.226 117.411 0
    endloop
  endfacet
  facet normal 0 0 1
    outer loop
      vertex 114.502 117.498 0
      vertex 115.427 117.353 0
      vertex 115.226 117.411 0
    endloop
  endfacet
  facet normal 0 0 1
    outer loop
      vertex 114.502 117.498 0
      vertex 117.384 115.327 0
      vertex 117.319 115.526 0
    endloop
  endfacet
  facet normal 0 0 1
    outer loop
      vertex 114.502 117.498 0
      vertex 115.021 117.454 0
      vertex 114.814 117.484 0
    endloop
  endfacet
  facet normal 0 0 1
    outer loop
      vertex 117.471 114.918 0
      vertex 117.434 115.124 0
      vertex 114.502 117.498 0
    endloop
  endfacet
  facet normal 0 0 1
    outer loop
      vertex 114.814 117.484 0
      vertex 114.605 117.498 0
      vertex 114.502 117.498 0
    endloop
  endfacet
  facet normal 0 0 1
    outer loop
      vertex 117.493 114.709 0
      vertex 114.502 117.498 0
      vertex 117.5 114.5 0
    endloop
  endfacet
  facet normal 0 0 1
    outer loop
      vertex -114.502 117.498 0
      vertex 114.5 117.5 0
      vertex -114.5 117.5 0
    endloop
  endfacet
  facet normal 0 0 1
    outer loop
      vertex 114.502 117.498 0
      vertex 114.5 117.5 0
      vertex -114.502 117.498 0
    endloop
  endfacet
  facet normal 0 0 1
    outer loop
      vertex 114.502 117.498 0
      vertex -114.502 117.498 0
      vertex 114.502 -117.498 0
    endloop
  endfacet
  facet normal 0 0 1
    outer loop
      vertex -114.502 -117.498 0
      vertex -117.5 114.5 0
      vertex -117.5 -114.5 0
    endloop
  endfacet
  facet normal -0 0 1
    outer loop
      vertex -114.605 117.498 0
      vertex -114.814 117.484 0
      vertex -114.502 117.498 0
    endloop
  endfacet
  facet normal -0 0 1
    outer loop
      vertex -114.814 117.484 0
      vertex -115.021 117.454 0
      vertex -114.502 117.498 0
    endloop
  endfacet
  facet normal -0 0 1
    outer loop
      vertex -115.021 117.454 0
      vertex -115.226 117.411 0
      vertex -114.502 117.498 0
    endloop
  endfacet
  facet normal -0 0 1
    outer loop
      vertex -115.226 117.411 0
      vertex -115.427 117.353 0
      vertex -114.502 117.498 0
    endloop
  endfacet
  facet normal -0 0 1
    outer loop
      vertex -115.427 117.353 0
      vertex -115.624 117.282 0
      vertex -114.502 117.498 0
    endloop
  endfacet
  facet normal -0 0 1
    outer loop
      vertex -115.624 117.282 0
      vertex -115.815 117.196 0
      vertex -114.502 117.498 0
    endloop
  endfacet
  facet normal -0 0 1
    outer loop
      vertex -115.815 117.196 0
      vertex -116 117.098 0
      vertex -114.502 117.498 0
    endloop
  endfacet
  facet normal -0 0 1
    outer loop
      vertex -116 117.098 0
      vertex -116.178 116.987 0
      vertex -114.502 117.498 0
    endloop
  endfacet
  facet normal -0 0 1
    outer loop
      vertex -116.178 116.987 0
      vertex -116.347 116.864 0
      vertex -114.502 117.498 0
    endloop
  endfacet
  facet normal -0 0 1
    outer loop
      vertex -116.347 116.864 0
      vertex -116.507 116.729 0
      vertex -114.502 117.498 0
    endloop
  endfacet
  facet normal -0 0 1
    outer loop
      vertex -116.507 116.729 0
      vertex -116.658 116.584 0
      vertex -114.502 117.498 0
    endloop
  endfacet
  facet normal -0 0 1
    outer loop
      vertex -116.658 116.584 0
      vertex -116.798 116.428 0
      vertex -114.502 117.498 0
    endloop
  endfacet
  facet normal -0 0 1
    outer loop
      vertex -116.798 116.428 0
      vertex -116.927 116.263 0
      vertex -114.502 117.498 0
    endloop
  endfacet
  facet normal -0 0 1
    outer loop
      vertex -116.927 116.263 0
      vertex -117.044 116.09 0
      vertex -114.502 117.498 0
    endloop
  endfacet
  facet normal -0 0 1
    outer loop
      vertex -117.044 116.09 0
      vertex -117.149 115.908 0
      vertex -114.502 117.498 0
    endloop
  endfacet
  facet normal -0 0 1
    outer loop
      vertex -117.149 115.908 0
      vertex -117.241 115.72 0
      vertex -114.502 117.498 0
    endloop
  endfacet
  facet normal -0 0 1
    outer loop
      vertex -117.241 115.72 0
      vertex -117.319 115.526 0
      vertex -114.502 117.498 0
    endloop
  endfacet
  facet normal -0 0 1
    outer loop
      vertex -117.319 115.526 0
      vertex -117.384 115.327 0
      vertex -114.502 117.498 0
    endloop
  endfacet
  facet normal -0 0 1
    outer loop
      vertex -117.384 115.327 0
      vertex -117.434 115.124 0
      vertex -114.502 117.498 0
    endloop
  endfacet
  facet normal -0 0 1
    outer loop
      vertex -117.434 115.124 0
      vertex -117.471 114.918 0
      vertex -114.502 117.498 0
    endloop
  endfacet
  facet normal -0 0 1
    outer loop
      vertex -117.471 114.918 0
      vertex -117.493 114.709 0
      vertex -114.502 117.498 0
    endloop
  endfacet
  facet normal -0 0 1
    outer loop
      vertex -117.493 114.709 0
      vertex -117.5 114.5 0
      vertex -114.502 117.498 0
    endloop
  endfacet
  facet normal 0 0 1
    outer loop
      vertex -114.502 117.498 0
      vertex -117.5 114.5 0
      vertex -114.502 -117.498 0
    endloop
  endfacet
  facet normal 0 0 1
    outer loop
      vertex -114.502 117.498 0
      vertex -114.502 -117.498 0
      vertex 114.502 -117.498 0
    endloop
  endfacet
  facet normal 0 0 1
    outer loop
      vertex -117.493 -114.709 0
      vertex -117.471 -114.918 0
      vertex -114.502 -117.498 0
    endloop
  endfacet
  facet normal 0 0 1
    outer loop
      vertex -114.502 -117.498 0
      vertex -117.434 -115.124 0
      vertex -117.384 -115.327 0
    endloop
  endfacet
  facet normal -0 -0 1
    outer loop
      vertex -117.149 -115.908 0
      vertex -114.502 -117.498 0
      vertex -117.241 -115.72 0
    endloop
  endfacet
  facet normal 0 0 1
    outer loop
      vertex -114.502 -117.498 0
      vertex -117.319 -115.526 0
      vertex -117.241 -115.72 0
    endloop
  endfacet
  facet normal 0 0 1
    outer loop
      vertex -116.658 -116.584 0
      vertex -116.507 -116.729 0
      vertex -114.502 -117.498 0
    endloop
  endfacet
  facet normal -0 -0 1
    outer loop
      vertex -116.798 -116.428 0
      vertex -114.502 -117.498 0
      vertex -116.927 -116.263 0
    endloop
  endfacet
  facet normal 0 0 1
    outer loop
      vertex -114.502 -117.498 0
      vertex -117.044 -116.09 0
      vertex -116.927 -116.263 0
    endloop
  endfacet
  facet normal -0 -0 1
    outer loop
      vertex -116.658 -116.584 0
      vertex -114.502 -117.498 0
      vertex -116.798 -116.428 0
    endloop
  endfacet
  facet normal 0 0 1
    outer loop
      vertex -115.624 -117.282 0
      vertex -115.427 -117.353 0
      vertex -114.502 -117.498 0
    endloop
  endfacet
  facet normal -0 -0 1
    outer loop
      vertex -116.178 -116.987 0
      vertex -114.502 -117.498 0
      vertex -116.347 -116.864 0
    endloop
  endfacet
  facet normal 0 0 1
    outer loop
      vertex -114.502 -117.498 0
      vertex -116.507 -116.729 0
      vertex -116.347 -116.864 0
    endloop
  endfacet
  facet normal -0 -0 1
    outer loop
      vertex -116 -117.098 0
      vertex -114.502 -117.498 0
      vertex -116.178 -116.987 0
    endloop
  endfacet
  facet normal -0 -0 1
    outer loop
      vertex -115.815 -117.196 0
      vertex -114.502 -117.498 0
      vertex -116 -117.098 0
    endloop
  endfacet
  facet normal -0 -0 1
    outer loop
      vertex -115.624 -117.282 0
      vertex -114.502 -117.498 0
      vertex -115.815 -117.196 0
    endloop
  endfacet
  facet normal -0 -0 1
    outer loop
      vertex -117.044 -116.09 0
      vertex -114.502 -117.498 0
      vertex -117.149 -115.908 0
    endloop
  endfacet
  facet normal -0 -0 1
    outer loop
      vertex -115.021 -117.454 0
      vertex -114.502 -117.498 0
      vertex -115.226 -117.411 0
    endloop
  endfacet
  facet normal 0 0 1
    outer loop
      vertex -114.502 -117.498 0
      vertex -115.427 -117.353 0
      vertex -115.226 -117.411 0
    endloop
  endfacet
  facet normal 0 0 1
    outer loop
      vertex -114.502 -117.498 0
      vertex -117.384 -115.327 0
      vertex -117.319 -115.526 0
    endloop
  endfacet
  facet normal 0 0 1
    outer loop
      vertex -114.502 -117.498 0
      vertex -115.021 -117.454 0
      vertex -114.814 -117.484 0
    endloop
  endfacet
  facet normal 0 0 1
    outer loop
      vertex -117.471 -114.918 0
      vertex -117.434 -115.124 0
      vertex -114.502 -117.498 0
    endloop
  endfacet
  facet normal 0 0 1
    outer loop
      vertex -114.814 -117.484 0
      vertex -114.605 -117.498 0
      vertex -114.502 -117.498 0
    endloop
  endfacet
  facet normal -0 0 1
    outer loop
      vertex -114.502 -117.498 0
      vertex 114.5 -117.5 0
      vertex 114.502 -117.498 0
    endloop
  endfacet
  facet normal 0 -0 1
    outer loop
      vertex -114.5 -117.5 0
      vertex 114.5 -117.5 0
      vertex -114.502 -117.498 0
    endloop
  endfacet
  facet normal -0 -0 1
    outer loop
      vertex -117.493 -114.709 0
      vertex -114.502 -117.498 0
      vertex -117.5 -114.5 0
    endloop
  endfacet
  facet normal 0 -1 0
    outer loop
      vertex 114.605 -117.498 -3
      vertex 114.502 -117.498 0
      vertex 114.502 -117.498 -3
    endloop
  endfacet
  facet normal 0 -1 0
    outer loop
      vertex 114.605 -117.498 -3
      vertex 114.605 -117.498 0
      vertex 114.502 -117.498 0
    endloop
  endfacet
  facet normal 0.0668359 -0.997764 0
    outer loop
      vertex 114.814 -117.484 -3
      vertex 114.605 -117.498 0
      vertex 114.605 -117.498 -3
    endloop
  endfacet
  facet normal 0.0668359 -0.997764 0
    outer loop
      vertex 114.814 -117.484 -3
      vertex 114.814 -117.484 0
      vertex 114.605 -117.498 0
    endloop
  endfacet
  facet normal 0.143429 -0.989661 0
    outer loop
      vertex 115.021 -117.454 -3
      vertex 114.814 -117.484 0
      vertex 114.814 -117.484 -3
    endloop
  endfacet
  facet normal 0.143429 -0.989661 0
    outer loop
      vertex 115.021 -117.454 -3
      vertex 115.021 -117.454 0
      vertex 114.814 -117.484 0
    endloop
  endfacet
  facet normal 0.205289 -0.978701 0
    outer loop
      vertex 115.226 -117.411 -3
      vertex 115.021 -117.454 0
      vertex 115.021 -117.454 -3
    endloop
  endfacet
  facet normal 0.205289 -0.978701 0
    outer loop
      vertex 115.226 -117.411 -3
      vertex 115.226 -117.411 0
      vertex 115.021 -117.454 0
    endloop
  endfacet
  facet normal 0.277246 -0.960799 0
    outer loop
      vertex 115.427 -117.353 -3
      vertex 115.226 -117.411 0
      vertex 115.226 -117.411 -3
    endloop
  endfacet
  facet normal 0.277246 -0.960799 0
    outer loop
      vertex 115.427 -117.353 -3
      vertex 115.427 -117.353 0
      vertex 115.226 -117.411 0
    endloop
  endfacet
  facet normal 0.339058 -0.940766 0
    outer loop
      vertex 115.624 -117.282 -3
      vertex 115.427 -117.353 0
      vertex 115.427 -117.353 -3
    endloop
  endfacet
  facet normal 0.339058 -0.940766 0
    outer loop
      vertex 115.624 -117.282 -3
      vertex 115.624 -117.282 0
      vertex 115.427 -117.353 0
    endloop
  endfacet
  facet normal 0.410563 -0.911832 0
    outer loop
      vertex 115.815 -117.196 -3
      vertex 115.624 -117.282 0
      vertex 115.624 -117.282 -3
    endloop
  endfacet
  facet normal 0.410563 -0.911832 0
    outer loop
      vertex 115.815 -117.196 -3
      vertex 115.815 -117.196 0
      vertex 115.624 -117.282 0
    endloop
  endfacet
  facet normal 0.468107 -0.883672 0
    outer loop
      vertex 116 -117.098 -3
      vertex 115.815 -117.196 0
      vertex 115.815 -117.196 -3
    endloop
  endfacet
  facet normal 0.468107 -0.883672 0
    outer loop
      vertex 116 -117.098 -3
      vertex 116 -117.098 0
      vertex 115.815 -117.196 0
    endloop
  endfacet
  facet normal 0.529142 -0.848533 0
    outer loop
      vertex 116.178 -116.987 -3
      vertex 116 -117.098 0
      vertex 116 -117.098 -3
    endloop
  endfacet
  facet normal 0.529142 -0.848533 0
    outer loop
      vertex 116.178 -116.987 -3
      vertex 116.178 -116.987 0
      vertex 116 -117.098 0
    endloop
  endfacet
  facet normal 0.588456 -0.808529 0
    outer loop
      vertex 116.347 -116.864 -3
      vertex 116.178 -116.987 0
      vertex 116.178 -116.987 -3
    endloop
  endfacet
  facet normal 0.588456 -0.808529 0
    outer loop
      vertex 116.347 -116.864 -3
      vertex 116.347 -116.864 0
      vertex 116.178 -116.987 0
    endloop
  endfacet
  facet normal 0.644871 -0.764291 0
    outer loop
      vertex 116.507 -116.729 -3
      vertex 116.347 -116.864 0
      vertex 116.347 -116.864 -3
    endloop
  endfacet
  facet normal 0.644871 -0.764291 0
    outer loop
      vertex 116.507 -116.729 -3
      vertex 116.507 -116.729 0
      vertex 116.347 -116.864 0
    endloop
  endfacet
  facet normal 0.692631 -0.721292 0
    outer loop
      vertex 116.658 -116.584 -3
      vertex 116.507 -116.729 0
      vertex 116.507 -116.729 -3
    endloop
  endfacet
  facet normal 0.692631 -0.721292 0
    outer loop
      vertex 116.658 -116.584 -3
      vertex 116.658 -116.584 0
      vertex 116.507 -116.729 0
    endloop
  endfacet
  facet normal 0.744242 -0.66791 0
    outer loop
      vertex 116.798 -116.428 -3
      vertex 116.658 -116.584 0
      vertex 116.658 -116.584 -3
    endloop
  endfacet
  facet normal 0.744242 -0.66791 0
    outer loop
      vertex 116.798 -116.428 -3
      vertex 116.798 -116.428 0
      vertex 116.658 -116.584 0
    endloop
  endfacet
  facet normal 0.787807 -0.615922 0
    outer loop
      vertex 116.927 -116.263 -3
      vertex 116.798 -116.428 0
      vertex 116.798 -116.428 -3
    endloop
  endfacet
  facet normal 0.787807 -0.615922 0
    outer loop
      vertex 116.927 -116.263 -3
      vertex 116.927 -116.263 0
      vertex 116.798 -116.428 0
    endloop
  endfacet
  facet normal 0.828349 -0.560213 0
    outer loop
      vertex 117.044 -116.09 -3
      vertex 116.927 -116.263 0
      vertex 116.927 -116.263 -3
    endloop
  endfacet
  facet normal 0.828349 -0.560213 0
    outer loop
      vertex 117.044 -116.09 -3
      vertex 117.044 -116.09 0
      vertex 116.927 -116.263 0
    endloop
  endfacet
  facet normal 0.866186 -0.499722 0
    outer loop
      vertex 117.149 -115.908 -3
      vertex 117.044 -116.09 0
      vertex 117.044 -116.09 -3
    endloop
  endfacet
  facet normal 0.866186 -0.499722 0
    outer loop
      vertex 117.149 -115.908 -3
      vertex 117.149 -115.908 0
      vertex 117.044 -116.09 0
    endloop
  endfacet
  facet normal 0.898217 -0.439553 0
    outer loop
      vertex 117.241 -115.72 -3
      vertex 117.149 -115.908 0
      vertex 117.149 -115.908 -3
    endloop
  endfacet
  facet normal 0.898217 -0.439553 0
    outer loop
      vertex 117.241 -115.72 -3
      vertex 117.241 -115.72 0
      vertex 117.149 -115.908 0
    endloop
  endfacet
  facet normal 0.927816 -0.373039 0
    outer loop
      vertex 117.319 -115.526 -3
      vertex 117.241 -115.72 0
      vertex 117.241 -115.72 -3
    endloop
  endfacet
  facet normal 0.927816 -0.373039 0
    outer loop
      vertex 117.319 -115.526 -3
      vertex 117.319 -115.526 0
      vertex 117.241 -115.72 0
    endloop
  endfacet
  facet normal 0.950577 -0.31049 0
    outer loop
      vertex 117.384 -115.327 -3
      vertex 117.319 -115.526 0
      vertex 117.319 -115.526 -3
    endloop
  endfacet
  facet normal 0.950577 -0.31049 0
    outer loop
      vertex 117.384 -115.327 -3
      vertex 117.384 -115.327 0
      vertex 117.319 -115.526 0
    endloop
  endfacet
  facet normal 0.970981 -0.239158 0
    outer loop
      vertex 117.434 -115.124 -3
      vertex 117.384 -115.327 0
      vertex 117.384 -115.327 -3
    endloop
  endfacet
  facet normal 0.970981 -0.239158 0
    outer loop
      vertex 117.434 -115.124 -3
      vertex 117.434 -115.124 0
      vertex 117.384 -115.327 0
    endloop
  endfacet
  facet normal 0.98425 -0.176783 0
    outer loop
      vertex 117.471 -114.918 -3
      vertex 117.434 -115.124 0
      vertex 117.434 -115.124 -3
    endloop
  endfacet
  facet normal 0.98425 -0.176783 0
    outer loop
      vertex 117.471 -114.918 -3
      vertex 117.471 -114.918 0
      vertex 117.434 -115.124 0
    endloop
  endfacet
  facet normal 0.994505 -0.104685 0
    outer loop
      vertex 117.493 -114.709 -3
      vertex 117.471 -114.918 0
      vertex 117.471 -114.918 -3
    endloop
  endfacet
  facet normal 0.994505 -0.104685 0
    outer loop
      vertex 117.493 -114.709 -3
      vertex 117.493 -114.709 0
      vertex 117.471 -114.918 0
    endloop
  endfacet
  facet normal 0.99944 -0.0334741 0
    outer loop
      vertex 117.5 -114.5 -3
      vertex 117.493 -114.709 0
      vertex 117.493 -114.709 -3
    endloop
  endfacet
  facet normal 0.99944 -0.0334741 0
    outer loop
      vertex 117.5 -114.5 -3
      vertex 117.5 -114.5 0
      vertex 117.493 -114.709 0
    endloop
  endfacet
  facet normal 1 0 0
    outer loop
      vertex 117.5 114.5 -3
      vertex 117.5 -114.5 0
      vertex 117.5 -114.5 -3
    endloop
  endfacet
  facet normal 1 0 -0
    outer loop
      vertex 117.5 114.5 -3
      vertex 117.5 114.5 0
      vertex 117.5 -114.5 0
    endloop
  endfacet
  facet normal 0.99944 0.0334741 0
    outer loop
      vertex 117.493 114.709 -3
      vertex 117.5 114.5 0
      vertex 117.5 114.5 -3
    endloop
  endfacet
  facet normal 0.99944 0.0334741 -0
    outer loop
      vertex 117.493 114.709 -3
      vertex 117.493 114.709 0
      vertex 117.5 114.5 0
    endloop
  endfacet
  facet normal 0.994505 0.104685 0
    outer loop
      vertex 117.471 114.918 -3
      vertex 117.493 114.709 0
      vertex 117.493 114.709 -3
    endloop
  endfacet
  facet normal 0.994505 0.104685 -0
    outer loop
      vertex 117.471 114.918 -3
      vertex 117.471 114.918 0
      vertex 117.493 114.709 0
    endloop
  endfacet
  facet normal 0.98425 0.176783 0
    outer loop
      vertex 117.434 115.124 -3
      vertex 117.471 114.918 0
      vertex 117.471 114.918 -3
    endloop
  endfacet
  facet normal 0.98425 0.176783 -0
    outer loop
      vertex 117.434 115.124 -3
      vertex 117.434 115.124 0
      vertex 117.471 114.918 0
    endloop
  endfacet
  facet normal 0.970981 0.239158 0
    outer loop
      vertex 117.384 115.327 -3
      vertex 117.434 115.124 0
      vertex 117.434 115.124 -3
    endloop
  endfacet
  facet normal 0.970981 0.239158 -0
    outer loop
      vertex 117.384 115.327 -3
      vertex 117.384 115.327 0
      vertex 117.434 115.124 0
    endloop
  endfacet
  facet normal 0.950577 0.31049 0
    outer loop
      vertex 117.319 115.526 -3
      vertex 117.384 115.327 0
      vertex 117.384 115.327 -3
    endloop
  endfacet
  facet normal 0.950577 0.31049 -0
    outer loop
      vertex 117.319 115.526 -3
      vertex 117.319 115.526 0
      vertex 117.384 115.327 0
    endloop
  endfacet
  facet normal 0.927816 0.373039 0
    outer loop
      vertex 117.241 115.72 -3
      vertex 117.319 115.526 0
      vertex 117.319 115.526 -3
    endloop
  endfacet
  facet normal 0.927816 0.373039 -0
    outer loop
      vertex 117.241 115.72 -3
      vertex 117.241 115.72 0
      vertex 117.319 115.526 0
    endloop
  endfacet
  facet normal 0.898217 0.439553 0
    outer loop
      vertex 117.149 115.908 -3
      vertex 117.241 115.72 0
      vertex 117.241 115.72 -3
    endloop
  endfacet
  facet normal 0.898217 0.439553 -0
    outer loop
      vertex 117.149 115.908 -3
      vertex 117.149 115.908 0
      vertex 117.241 115.72 0
    endloop
  endfacet
  facet normal 0.866186 0.499722 0
    outer loop
      vertex 117.044 116.09 -3
      vertex 117.149 115.908 0
      vertex 117.149 115.908 -3
    endloop
  endfacet
  facet normal 0.866186 0.499722 -0
    outer loop
      vertex 117.044 116.09 -3
      vertex 117.044 116.09 0
      vertex 117.149 115.908 0
    endloop
  endfacet
  facet normal 0.828349 0.560213 0
    outer loop
      vertex 116.927 116.263 -3
      vertex 117.044 116.09 0
      vertex 117.044 116.09 -3
    endloop
  endfacet
  facet normal 0.828349 0.560213 -0
    outer loop
      vertex 116.927 116.263 -3
      vertex 116.927 116.263 0
      vertex 117.044 116.09 0
    endloop
  endfacet
  facet normal 0.787807 0.615922 0
    outer loop
      vertex 116.798 116.428 -3
      vertex 116.927 116.263 0
      vertex 116.927 116.263 -3
    endloop
  endfacet
  facet normal 0.787807 0.615922 -0
    outer loop
      vertex 116.798 116.428 -3
      vertex 116.798 116.428 0
      vertex 116.927 116.263 0
    endloop
  endfacet
  facet normal 0.744242 0.66791 0
    outer loop
      vertex 116.658 116.584 -3
      vertex 116.798 116.428 0
      vertex 116.798 116.428 -3
    endloop
  endfacet
  facet normal 0.744242 0.66791 -0
    outer loop
      vertex 116.658 116.584 -3
      vertex 116.658 116.584 0
      vertex 116.798 116.428 0
    endloop
  endfacet
  facet normal 0.692631 0.721292 0
    outer loop
      vertex 116.507 116.729 -3
      vertex 116.658 116.584 0
      vertex 116.658 116.584 -3
    endloop
  endfacet
  facet normal 0.692631 0.721292 -0
    outer loop
      vertex 116.507 116.729 -3
      vertex 116.507 116.729 0
      vertex 116.658 116.584 0
    endloop
  endfacet
  facet normal 0.644871 0.764291 0
    outer loop
      vertex 116.347 116.864 -3
      vertex 116.507 116.729 0
      vertex 116.507 116.729 -3
    endloop
  endfacet
  facet normal 0.644871 0.764291 -0
    outer loop
      vertex 116.347 116.864 -3
      vertex 116.347 116.864 0
      vertex 116.507 116.729 0
    endloop
  endfacet
  facet normal 0.588456 0.808529 0
    outer loop
      vertex 116.178 116.987 -3
      vertex 116.347 116.864 0
      vertex 116.347 116.864 -3
    endloop
  endfacet
  facet normal 0.588456 0.808529 -0
    outer loop
      vertex 116.178 116.987 -3
      vertex 116.178 116.987 0
      vertex 116.347 116.864 0
    endloop
  endfacet
  facet normal 0.529142 0.848533 0
    outer loop
      vertex 116 117.098 -3
      vertex 116.178 116.987 0
      vertex 116.178 116.987 -3
    endloop
  endfacet
  facet normal 0.529142 0.848533 -0
    outer loop
      vertex 116 117.098 -3
      vertex 116 117.098 0
      vertex 116.178 116.987 0
    endloop
  endfacet
  facet normal 0.468107 0.883672 0
    outer loop
      vertex 115.815 117.196 -3
      vertex 116 117.098 0
      vertex 116 117.098 -3
    endloop
  endfacet
  facet normal 0.468107 0.883672 -0
    outer loop
      vertex 115.815 117.196 -3
      vertex 115.815 117.196 0
      vertex 116 117.098 0
    endloop
  endfacet
  facet normal 0.410563 0.911832 0
    outer loop
      vertex 115.624 117.282 -3
      vertex 115.815 117.196 0
      vertex 115.815 117.196 -3
    endloop
  endfacet
  facet normal 0.410563 0.911832 -0
    outer loop
      vertex 115.624 117.282 -3
      vertex 115.624 117.282 0
      vertex 115.815 117.196 0
    endloop
  endfacet
  facet normal 0.339058 0.940766 0
    outer loop
      vertex 115.427 117.353 -3
      vertex 115.624 117.282 0
      vertex 115.624 117.282 -3
    endloop
  endfacet
  facet normal 0.339058 0.940766 -0
    outer loop
      vertex 115.427 117.353 -3
      vertex 115.427 117.353 0
      vertex 115.624 117.282 0
    endloop
  endfacet
  facet normal 0.277246 0.960799 0
    outer loop
      vertex 115.226 117.411 -3
      vertex 115.427 117.353 0
      vertex 115.427 117.353 -3
    endloop
  endfacet
  facet normal 0.277246 0.960799 -0
    outer loop
      vertex 115.226 117.411 -3
      vertex 115.226 117.411 0
      vertex 115.427 117.353 0
    endloop
  endfacet
  facet normal 0.205289 0.978701 0
    outer loop
      vertex 115.021 117.454 -3
      vertex 115.226 117.411 0
      vertex 115.226 117.411 -3
    endloop
  endfacet
  facet normal 0.205289 0.978701 -0
    outer loop
      vertex 115.021 117.454 -3
      vertex 115.021 117.454 0
      vertex 115.226 117.411 0
    endloop
  endfacet
  facet normal 0.143429 0.989661 0
    outer loop
      vertex 114.814 117.484 -3
      vertex 115.021 117.454 0
      vertex 115.021 117.454 -3
    endloop
  endfacet
  facet normal 0.143429 0.989661 -0
    outer loop
      vertex 114.814 117.484 -3
      vertex 114.814 117.484 0
      vertex 115.021 117.454 0
    endloop
  endfacet
  facet normal 0.0668359 0.997764 0
    outer loop
      vertex 114.605 117.498 -3
      vertex 114.814 117.484 0
      vertex 114.814 117.484 -3
    endloop
  endfacet
  facet normal 0.0668359 0.997764 -0
    outer loop
      vertex 114.605 117.498 -3
      vertex 114.605 117.498 0
      vertex 114.814 117.484 0
    endloop
  endfacet
  facet normal 0 1 0
    outer loop
      vertex 114.502 117.498 -3
      vertex 114.605 117.498 0
      vertex 114.605 117.498 -3
    endloop
  endfacet
  facet normal 0 1 0
    outer loop
      vertex 114.502 117.498 -3
      vertex 114.502 117.498 0
      vertex 114.605 117.498 0
    endloop
  endfacet
  facet normal 0.707107 0.707107 0
    outer loop
      vertex 114.5 117.5 -3
      vertex 114.502 117.498 0
      vertex 114.502 117.498 -3
    endloop
  endfacet
  facet normal 0.707107 0.707107 -0
    outer loop
      vertex 114.5 117.5 -3
      vertex 114.5 117.5 0
      vertex 114.502 117.498 0
    endloop
  endfacet
  facet normal 0 1 0
    outer loop
      vertex -114.5 117.5 -3
      vertex 114.5 117.5 0
      vertex 114.5 117.5 -3
    endloop
  endfacet
  facet normal 0 1 0
    outer loop
      vertex -114.5 117.5 -3
      vertex -114.5 117.5 0
      vertex 114.5 117.5 0
    endloop
  endfacet
  facet normal -0.707107 0.707107 0
    outer loop
      vertex -114.502 117.498 -3
      vertex -114.5 117.5 0
      vertex -114.5 117.5 -3
    endloop
  endfacet
  facet normal -0.707107 0.707107 0
    outer loop
      vertex -114.502 117.498 -3
      vertex -114.502 117.498 0
      vertex -114.5 117.5 0
    endloop
  endfacet
  facet normal 0 1 0
    outer loop
      vertex -114.605 117.498 -3
      vertex -114.502 117.498 0
      vertex -114.502 117.498 -3
    endloop
  endfacet
  facet normal 0 1 0
    outer loop
      vertex -114.605 117.498 -3
      vertex -114.605 117.498 0
      vertex -114.502 117.498 0
    endloop
  endfacet
  facet normal -0.0668359 0.997764 0
    outer loop
      vertex -114.814 117.484 -3
      vertex -114.605 117.498 0
      vertex -114.605 117.498 -3
    endloop
  endfacet
  facet normal -0.0668359 0.997764 0
    outer loop
      vertex -114.814 117.484 -3
      vertex -114.814 117.484 0
      vertex -114.605 117.498 0
    endloop
  endfacet
  facet normal -0.143429 0.989661 0
    outer loop
      vertex -115.021 117.454 -3
      vertex -114.814 117.484 0
      vertex -114.814 117.484 -3
    endloop
  endfacet
  facet normal -0.143429 0.989661 0
    outer loop
      vertex -115.021 117.454 -3
      vertex -115.021 117.454 0
      vertex -114.814 117.484 0
    endloop
  endfacet
  facet normal -0.205289 0.978701 0
    outer loop
      vertex -115.226 117.411 -3
      vertex -115.021 117.454 0
      vertex -115.021 117.454 -3
    endloop
  endfacet
  facet normal -0.205289 0.978701 0
    outer loop
      vertex -115.226 117.411 -3
      vertex -115.226 117.411 0
      vertex -115.021 117.454 0
    endloop
  endfacet
  facet normal -0.277246 0.960799 0
    outer loop
      vertex -115.427 117.353 -3
      vertex -115.226 117.411 0
      vertex -115.226 117.411 -3
    endloop
  endfacet
  facet normal -0.277246 0.960799 0
    outer loop
      vertex -115.427 117.353 -3
      vertex -115.427 117.353 0
      vertex -115.226 117.411 0
    endloop
  endfacet
  facet normal -0.339058 0.940766 0
    outer loop
      vertex -115.624 117.282 -3
      vertex -115.427 117.353 0
      vertex -115.427 117.353 -3
    endloop
  endfacet
  facet normal -0.339058 0.940766 0
    outer loop
      vertex -115.624 117.282 -3
      vertex -115.624 117.282 0
      vertex -115.427 117.353 0
    endloop
  endfacet
  facet normal -0.410563 0.911832 0
    outer loop
      vertex -115.815 117.196 -3
      vertex -115.624 117.282 0
      vertex -115.624 117.282 -3
    endloop
  endfacet
  facet normal -0.410563 0.911832 0
    outer loop
      vertex -115.815 117.196 -3
      vertex -115.815 117.196 0
      vertex -115.624 117.282 0
    endloop
  endfacet
  facet normal -0.468107 0.883672 0
    outer loop
      vertex -116 117.098 -3
      vertex -115.815 117.196 0
      vertex -115.815 117.196 -3
    endloop
  endfacet
  facet normal -0.468107 0.883672 0
    outer loop
      vertex -116 117.098 -3
      vertex -116 117.098 0
      vertex -115.815 117.196 0
    endloop
  endfacet
  facet normal -0.529142 0.848533 0
    outer loop
      vertex -116.178 116.987 -3
      vertex -116 117.098 0
      vertex -116 117.098 -3
    endloop
  endfacet
  facet normal -0.529142 0.848533 0
    outer loop
      vertex -116.178 116.987 -3
      vertex -116.178 116.987 0
      vertex -116 117.098 0
    endloop
  endfacet
  facet normal -0.588456 0.808529 0
    outer loop
      vertex -116.347 116.864 -3
      vertex -116.178 116.987 0
      vertex -116.178 116.987 -3
    endloop
  endfacet
  facet normal -0.588456 0.808529 0
    outer loop
      vertex -116.347 116.864 -3
      vertex -116.347 116.864 0
      vertex -116.178 116.987 0
    endloop
  endfacet
  facet normal -0.644871 0.764291 0
    outer loop
      vertex -116.507 116.729 -3
      vertex -116.347 116.864 0
      vertex -116.347 116.864 -3
    endloop
  endfacet
  facet normal -0.644871 0.764291 0
    outer loop
      vertex -116.507 116.729 -3
      vertex -116.507 116.729 0
      vertex -116.347 116.864 0
    endloop
  endfacet
  facet normal -0.692631 0.721292 0
    outer loop
      vertex -116.658 116.584 -3
      vertex -116.507 116.729 0
      vertex -116.507 116.729 -3
    endloop
  endfacet
  facet normal -0.692631 0.721292 0
    outer loop
      vertex -116.658 116.584 -3
      vertex -116.658 116.584 0
      vertex -116.507 116.729 0
    endloop
  endfacet
  facet normal -0.744242 0.66791 0
    outer loop
      vertex -116.798 116.428 -3
      vertex -116.658 116.584 0
      vertex -116.658 116.584 -3
    endloop
  endfacet
  facet normal -0.744242 0.66791 0
    outer loop
      vertex -116.798 116.428 -3
      vertex -116.798 116.428 0
      vertex -116.658 116.584 0
    endloop
  endfacet
  facet normal -0.787807 0.615922 0
    outer loop
      vertex -116.927 116.263 -3
      vertex -116.798 116.428 0
      vertex -116.798 116.428 -3
    endloop
  endfacet
  facet normal -0.787807 0.615922 0
    outer loop
      vertex -116.927 116.263 -3
      vertex -116.927 116.263 0
      vertex -116.798 116.428 0
    endloop
  endfacet
  facet normal -0.828349 0.560213 0
    outer loop
      vertex -117.044 116.09 -3
      vertex -116.927 116.263 0
      vertex -116.927 116.263 -3
    endloop
  endfacet
  facet normal -0.828349 0.560213 0
    outer loop
      vertex -117.044 116.09 -3
      vertex -117.044 116.09 0
      vertex -116.927 116.263 0
    endloop
  endfacet
  facet normal -0.866186 0.499722 0
    outer loop
      vertex -117.149 115.908 -3
      vertex -117.044 116.09 0
      vertex -117.044 116.09 -3
    endloop
  endfacet
  facet normal -0.866186 0.499722 0
    outer loop
      vertex -117.149 115.908 -3
      vertex -117.149 115.908 0
      vertex -117.044 116.09 0
    endloop
  endfacet
  facet normal -0.898217 0.439553 0
    outer loop
      vertex -117.241 115.72 -3
      vertex -117.149 115.908 0
      vertex -117.149 115.908 -3
    endloop
  endfacet
  facet normal -0.898217 0.439553 0
    outer loop
      vertex -117.241 115.72 -3
      vertex -117.241 115.72 0
      vertex -117.149 115.908 0
    endloop
  endfacet
  facet normal -0.927816 0.373039 0
    outer loop
      vertex -117.319 115.526 -3
      vertex -117.241 115.72 0
      vertex -117.241 115.72 -3
    endloop
  endfacet
  facet normal -0.927816 0.373039 0
    outer loop
      vertex -117.319 115.526 -3
      vertex -117.319 115.526 0
      vertex -117.241 115.72 0
    endloop
  endfacet
  facet normal -0.950577 0.31049 0
    outer loop
      vertex -117.384 115.327 -3
      vertex -117.319 115.526 0
      vertex -117.319 115.526 -3
    endloop
  endfacet
  facet normal -0.950577 0.31049 0
    outer loop
      vertex -117.384 115.327 -3
      vertex -117.384 115.327 0
      vertex -117.319 115.526 0
    endloop
  endfacet
  facet normal -0.970981 0.239158 0
    outer loop
      vertex -117.434 115.124 -3
      vertex -117.384 115.327 0
      vertex -117.384 115.327 -3
    endloop
  endfacet
  facet normal -0.970981 0.239158 0
    outer loop
      vertex -117.434 115.124 -3
      vertex -117.434 115.124 0
      vertex -117.384 115.327 0
    endloop
  endfacet
  facet normal -0.98425 0.176783 0
    outer loop
      vertex -117.471 114.918 -3
      vertex -117.434 115.124 0
      vertex -117.434 115.124 -3
    endloop
  endfacet
  facet normal -0.98425 0.176783 0
    outer loop
      vertex -117.471 114.918 -3
      vertex -117.471 114.918 0
      vertex -117.434 115.124 0
    endloop
  endfacet
  facet normal -0.994505 0.104685 0
    outer loop
      vertex -117.493 114.709 -3
      vertex -117.471 114.918 0
      vertex -117.471 114.918 -3
    endloop
  endfacet
  facet normal -0.994505 0.104685 0
    outer loop
      vertex -117.493 114.709 -3
      vertex -117.493 114.709 0
      vertex -117.471 114.918 0
    endloop
  endfacet
  facet normal -0.99944 0.0334741 0
    outer loop
      vertex -117.5 114.5 -3
      vertex -117.493 114.709 0
      vertex -117.493 114.709 -3
    endloop
  endfacet
  facet normal -0.99944 0.0334741 0
    outer loop
      vertex -117.5 114.5 -3
      vertex -117.5 114.5 0
      vertex -117.493 114.709 0
    endloop
  endfacet
  facet normal -1 0 0
    outer loop
      vertex -117.5 -114.5 -3
      vertex -117.5 114.5 0
      vertex -117.5 114.5 -3
    endloop
  endfacet
  facet normal -1 0 0
    outer loop
      vertex -117.5 -114.5 -3
      vertex -117.5 -114.5 0
      vertex -117.5 114.5 0
    endloop
  endfacet
  facet normal -0.99944 -0.0334741 0
    outer loop
      vertex -117.493 -114.709 -3
      vertex -117.5 -114.5 0
      vertex -117.5 -114.5 -3
    endloop
  endfacet
  facet normal -0.99944 -0.0334741 0
    outer loop
      vertex -117.493 -114.709 -3
      vertex -117.493 -114.709 0
      vertex -117.5 -114.5 0
    endloop
  endfacet
  facet normal -0.994505 -0.104685 0
    outer loop
      vertex -117.471 -114.918 -3
      vertex -117.493 -114.709 0
      vertex -117.493 -114.709 -3
    endloop
  endfacet
  facet normal -0.994505 -0.104685 0
    outer loop
      vertex -117.471 -114.918 -3
      vertex -117.471 -114.918 0
      vertex -117.493 -114.709 0
    endloop
  endfacet
  facet normal -0.98425 -0.176783 0
    outer loop
      vertex -117.434 -115.124 -3
      vertex -117.471 -114.918 0
      vertex -117.471 -114.918 -3
    endloop
  endfacet
  facet normal -0.98425 -0.176783 0
    outer loop
      vertex -117.434 -115.124 -3
      vertex -117.434 -115.124 0
      vertex -117.471 -114.918 0
    endloop
  endfacet
  facet normal -0.970981 -0.239158 0
    outer loop
      vertex -117.384 -115.327 -3
      vertex -117.434 -115.124 0
      vertex -117.434 -115.124 -3
    endloop
  endfacet
  facet normal -0.970981 -0.239158 0
    outer loop
      vertex -117.384 -115.327 -3
      vertex -117.384 -115.327 0
      vertex -117.434 -115.124 0
    endloop
  endfacet
  facet normal -0.950577 -0.31049 0
    outer loop
      vertex -117.319 -115.526 -3
      vertex -117.384 -115.327 0
      vertex -117.384 -115.327 -3
    endloop
  endfacet
  facet normal -0.950577 -0.31049 0
    outer loop
      vertex -117.319 -115.526 -3
      vertex -117.319 -115.526 0
      vertex -117.384 -115.327 0
    endloop
  endfacet
  facet normal -0.927816 -0.373039 0
    outer loop
      vertex -117.241 -115.72 -3
      vertex -117.319 -115.526 0
      vertex -117.319 -115.526 -3
    endloop
  endfacet
  facet normal -0.927816 -0.373039 0
    outer loop
      vertex -117.241 -115.72 -3
      vertex -117.241 -115.72 0
      vertex -117.319 -115.526 0
    endloop
  endfacet
  facet normal -0.898217 -0.439553 0
    outer loop
      vertex -117.149 -115.908 -3
      vertex -117.241 -115.72 0
      vertex -117.241 -115.72 -3
    endloop
  endfacet
  facet normal -0.898217 -0.439553 0
    outer loop
      vertex -117.149 -115.908 -3
      vertex -117.149 -115.908 0
      vertex -117.241 -115.72 0
    endloop
  endfacet
  facet normal -0.866186 -0.499722 0
    outer loop
      vertex -117.044 -116.09 -3
      vertex -117.149 -115.908 0
      vertex -117.149 -115.908 -3
    endloop
  endfacet
  facet normal -0.866186 -0.499722 0
    outer loop
      vertex -117.044 -116.09 -3
      vertex -117.044 -116.09 0
      vertex -117.149 -115.908 0
    endloop
  endfacet
  facet normal -0.828349 -0.560213 0
    outer loop
      vertex -116.927 -116.263 -3
      vertex -117.044 -116.09 0
      vertex -117.044 -116.09 -3
    endloop
  endfacet
  facet normal -0.828349 -0.560213 0
    outer loop
      vertex -116.927 -116.263 -3
      vertex -116.927 -116.263 0
      vertex -117.044 -116.09 0
    endloop
  endfacet
  facet normal -0.787807 -0.615922 0
    outer loop
      vertex -116.798 -116.428 -3
      vertex -116.927 -116.263 0
      vertex -116.927 -116.263 -3
    endloop
  endfacet
  facet normal -0.787807 -0.615922 0
    outer loop
      vertex -116.798 -116.428 -3
      vertex -116.798 -116.428 0
      vertex -116.927 -116.263 0
    endloop
  endfacet
  facet normal -0.744242 -0.66791 0
    outer loop
      vertex -116.658 -116.584 -3
      vertex -116.798 -116.428 0
      vertex -116.798 -116.428 -3
    endloop
  endfacet
  facet normal -0.744242 -0.66791 0
    outer loop
      vertex -116.658 -116.584 -3
      vertex -116.658 -116.584 0
      vertex -116.798 -116.428 0
    endloop
  endfacet
  facet normal -0.692631 -0.721292 0
    outer loop
      vertex -116.507 -116.729 -3
      vertex -116.658 -116.584 0
      vertex -116.658 -116.584 -3
    endloop
  endfacet
  facet normal -0.692631 -0.721292 0
    outer loop
      vertex -116.507 -116.729 -3
      vertex -116.507 -116.729 0
      vertex -116.658 -116.584 0
    endloop
  endfacet
  facet normal -0.644871 -0.764291 0
    outer loop
      vertex -116.347 -116.864 -3
      vertex -116.507 -116.729 0
      vertex -116.507 -116.729 -3
    endloop
  endfacet
  facet normal -0.644871 -0.764291 0
    outer loop
      vertex -116.347 -116.864 -3
      vertex -116.347 -116.864 0
      vertex -116.507 -116.729 0
    endloop
  endfacet
  facet normal -0.588456 -0.808529 0
    outer loop
      vertex -116.178 -116.987 -3
      vertex -116.347 -116.864 0
      vertex -116.347 -116.864 -3
    endloop
  endfacet
  facet normal -0.588456 -0.808529 0
    outer loop
      vertex -116.178 -116.987 -3
      vertex -116.178 -116.987 0
      vertex -116.347 -116.864 0
    endloop
  endfacet
  facet normal -0.529142 -0.848533 0
    outer loop
      vertex -116 -117.098 -3
      vertex -116.178 -116.987 0
      vertex -116.178 -116.987 -3
    endloop
  endfacet
  facet normal -0.529142 -0.848533 0
    outer loop
      vertex -116 -117.098 -3
      vertex -116 -117.098 0
      vertex -116.178 -116.987 0
    endloop
  endfacet
  facet normal -0.468107 -0.883672 0
    outer loop
      vertex -115.815 -117.196 -3
      vertex -116 -117.098 0
      vertex -116 -117.098 -3
    endloop
  endfacet
  facet normal -0.468107 -0.883672 0
    outer loop
      vertex -115.815 -117.196 -3
      vertex -115.815 -117.196 0
      vertex -116 -117.098 0
    endloop
  endfacet
  facet normal -0.410563 -0.911832 0
    outer loop
      vertex -115.624 -117.282 -3
      vertex -115.815 -117.196 0
      vertex -115.815 -117.196 -3
    endloop
  endfacet
  facet normal -0.410563 -0.911832 0
    outer loop
      vertex -115.624 -117.282 -3
      vertex -115.624 -117.282 0
      vertex -115.815 -117.196 0
    endloop
  endfacet
  facet normal -0.339058 -0.940766 0
    outer loop
      vertex -115.427 -117.353 -3
      vertex -115.624 -117.282 0
      vertex -115.624 -117.282 -3
    endloop
  endfacet
  facet normal -0.339058 -0.940766 0
    outer loop
      vertex -115.427 -117.353 -3
      vertex -115.427 -117.353 0
      vertex -115.624 -117.282 0
    endloop
  endfacet
  facet normal -0.277246 -0.960799 0
    outer loop
      vertex -115.226 -117.411 -3
      vertex -115.427 -117.353 0
      vertex -115.427 -117.353 -3
    endloop
  endfacet
  facet normal -0.277246 -0.960799 0
    outer loop
      vertex -115.226 -117.411 -3
      vertex -115.226 -117.411 0
      vertex -115.427 -117.353 0
    endloop
  endfacet
  facet normal -0.205289 -0.978701 0
    outer loop
      vertex -115.021 -117.454 -3
      vertex -115.226 -117.411 0
      vertex -115.226 -117.411 -3
    endloop
  endfacet
  facet normal -0.205289 -0.978701 0
    outer loop
      vertex -115.021 -117.454 -3
      vertex -115.021 -117.454 0
      vertex -115.226 -117.411 0
    endloop
  endfacet
  facet normal -0.143429 -0.989661 0
    outer loop
      vertex -114.814 -117.484 -3
      vertex -115.021 -117.454 0
      vertex -115.021 -117.454 -3
    endloop
  endfacet
  facet normal -0.143429 -0.989661 0
    outer loop
      vertex -114.814 -117.484 -3
      vertex -114.814 -117.484 0
      vertex -115.021 -117.454 0
    endloop
  endfacet
  facet normal -0.0668359 -0.997764 0
    outer loop
      vertex -114.605 -117.498 -3
      vertex -114.814 -117.484 0
      vertex -114.814 -117.484 -3
    endloop
  endfacet
  facet normal -0.0668359 -0.997764 0
    outer loop
      vertex -114.605 -117.498 -3
      vertex -114.605 -117.498 0
      vertex -114.814 -117.484 0
    endloop
  endfacet
  facet normal 0 -1 0
    outer loop
      vertex -114.502 -117.498 -3
      vertex -114.605 -117.498 0
      vertex -114.605 -117.498 -3
    endloop
  endfacet
  facet normal 0 -1 0
    outer loop
      vertex -114.502 -117.498 -3
      vertex -114.502 -117.498 0
      vertex -114.605 -117.498 0
    endloop
  endfacet
  facet normal -0.707107 -0.707107 0
    outer loop
      vertex -114.5 -117.5 -3
      vertex -114.502 -117.498 0
      vertex -114.502 -117.498 -3
    endloop
  endfacet
  facet normal -0.707107 -0.707107 0
    outer loop
      vertex -114.5 -117.5 -3
      vertex -114.5 -117.5 0
      vertex -114.502 -117.498 0
    endloop
  endfacet
  facet normal 0 -1 0
    outer loop
      vertex 114.5 -117.5 -3
      vertex -114.5 -117.5 0
      vertex -114.5 -117.5 -3
    endloop
  endfacet
  facet normal 0 -1 0
    outer loop
      vertex 114.5 -117.5 -3
      vertex 114.5 -117.5 0
      vertex -114.5 -117.5 0
    endloop
  endfacet
  facet normal 0.707107 -0.707107 0
    outer loop
      vertex 114.502 -117.498 -3
      vertex 114.5 -117.5 0
      vertex 114.5 -117.5 -3
    endloop
  endfacet
  facet normal 0.707107 -0.707107 0
    outer loop
      vertex 114.502 -117.498 -3
      vertex 114.502 -117.498 0
      vertex 114.5 -117.5 0
    endloop
  endfacet
endsolid OpenSCAD_Model
