<svg id="Layer_1" data-name="Layer 1" xmlns="http://www.w3.org/2000/svg" width="220.5mm" height="220.5mm" viewBox="0 0 625.1 625.1">
  <title>ender3_bed_texture</title>
  <path d="M567.7,567.8" style="fill: none;stroke: #fff;stroke-linecap: round;stroke-linejoin: round;stroke-width: 1.5px"/>
  <path d="M.8,624.4" style="fill: none;stroke: #fff;stroke-linecap: round;stroke-linejoin: round;stroke-width: 1.5px"/>
  <line x1="624.4" y1="624.4" x2="624.4" y2="0.8" style="fill: none;stroke: #fff;stroke-linecap: round;stroke-linejoin: round;stroke-width: 1.5px"/>
  <path d="M57.4,57.3" style="fill: none;stroke: #fff;stroke-linecap: round;stroke-linejoin: round;stroke-width: 1.5px"/>
  <path d="M624.4.8" style="fill: none;stroke: #fff;stroke-linecap: round;stroke-linejoin: round;stroke-width: 1.5px"/>
  <line x1="0.8" y1="0.8" x2="0.8" y2="624.4" style="fill: none;stroke: #fff;stroke-linecap: round;stroke-linejoin: round;stroke-width: 1.5px"/>
  <line x1="0.8" y1="624.4" x2="0.8" y2="0.8" style="fill: none;stroke: #fff;stroke-linecap: round;stroke-linejoin: round;stroke-width: 1.5px"/>
  <line x1="624.4" y1="0.8" x2="624.4" y2="624.4" style="fill: none;stroke: #fff;stroke-linecap: round;stroke-linejoin: round;stroke-width: 1.5px"/>
  <line x1="0.8" y1="624.4" x2="624.4" y2="624.4" style="fill: none;stroke: #fff;stroke-linecap: round;stroke-linejoin: round;stroke-width: 1.5px"/>
  <line x1="0.8" y1="0.8" x2="624.4" y2="0.8" style="fill: none;stroke: #fff;stroke-linecap: round;stroke-linejoin: round;stroke-width: 1.5px"/>
  <g>
    <path d="M567.7,440.2" style="fill: none"/>
    <path d="M57.4,440.2" style="fill: none"/>
    <path d="M567.7,312.6" style="fill: none"/>
    <path d="M57.4,312.6" style="fill: none"/>
    <path d="M57.4,184.9" style="fill: none"/>
    <path d="M567.7,184.9" style="fill: none"/>
    <path d="M185,57.3" style="fill: none"/>
    <path d="M185,567.8" style="fill: none"/>
    <path d="M312.6,567.8" style="fill: none"/>
    <path d="M312.6,57.3" style="fill: none"/>
    <path d="M440.1,57.3" style="fill: none"/>
    <path d="M440.1,541.3" style="fill: none"/>
  </g>
  <g>
    <path d="M430.9,398H194.2V227.1H430.9Zm-56.7-90.7a2.5,2.5,0,0,0,.2-.6c-.1-.4-.1-.8-.2-1.1-.8-4.3-1-8.6.9-12.8,1-2.2.8-4.4.5-6.7a9.7,9.7,0,0,1,.1-1.7c.4-2.2.8-4.4-.8-6.2a3.9,3.9,0,0,1-.9-3.1c0-2.9-.8-4.2-3.6-5.2a24.5,24.5,0,0,0-3.7-.8,3.6,3.6,0,0,1-3-2.6c-.1-.8-.3-1.6-.4-2.4a6.4,6.4,0,0,0-4.6-5.6,26.3,26.3,0,0,1-8.4-4.1,4.5,4.5,0,0,1-1.6-4.4,2.7,2.7,0,0,0,0-.9c-.3.3-.8.5-.8.8a4.9,4.9,0,0,0,1.7,5.1,25,25,0,0,0,7.4,3.9c4.1,1.2,5.4,2.7,5.8,7.1a4.3,4.3,0,0,0,3.6,3.9,11.3,11.3,0,0,0,1.8.3c3.9.6,5.5,2.5,4.6,6.3,0,.1-.1.2-.2.3h-1.1c-.5-2.6-1.2-3.2-3.8-3.2h-6.8a2.1,2.1,0,0,1-2.3-1.7c-.3-1.4-.5-2.8-.7-4.1a4.2,4.2,0,0,0-2.5-4c-2.3-.9-4.6-1.9-7-2.6a16,16,0,0,1-6.8-3.9,6.2,6.2,0,0,1-.7-8.2,3.7,3.7,0,0,0,.5-1.1c-.4-.1-.7,0-.8.2a7.1,7.1,0,0,0-.9,8.1,12.9,12.9,0,0,0,6.6,5.1l8.1,2.9c2,.7,2.5,1.7,2.7,3.8a22.3,22.3,0,0,0,.8,4.5c.5,1.5,1.5,2,3.1,2h7a2.7,2.7,0,0,1,1.3.2,1.9,1.9,0,0,1,.7,1.4,1.4,1.4,0,0,1-.7,1l-5.1,2.4a10.4,10.4,0,0,1-9.1.4l-4.9-2c-6.7-3.1-12-7.6-15-14.6a10.2,10.2,0,0,0-6.5-5.8,11.4,11.4,0,0,1-6.3-5.5c-2.1-4-1.8-8.1-.7-12.2.5-1.7,1.3-3.4,1.9-5.2l-.6.6c-3.4,5-6.1,10.3-6.4,16.5-.1,1.2-.1,2.4-.1,3.6s-.3,1-1,.8a14.8,14.8,0,0,1-7.9-5,36.6,36.6,0,0,1-5.1-9.8c-.6-1.6-1.1-3.2-1.6-4.8-.5.4-.7.7-.7,1.1a29.4,29.4,0,0,0-.5,5.1c.1,2.9.6,5.7.8,8.6s-.8,3.7-2.8,3.6a49.8,49.8,0,0,1-5.3-.5c-4.4-.5-8.8-1.3-13.3-.6s-6.1,1.3-9.1,2a1.1,1.1,0,0,1-1.5-.5,3.8,3.8,0,0,0-3.1-1.7l-7-.6-.3.2a3.4,3.4,0,0,0,3,1.7c1.2.1,2.5.1,3.7.3a4.2,4.2,0,0,1,1.7,1,2.6,2.6,0,0,1-1.5.6c-4.2.1-8.4.4-12.7.1a14.4,14.4,0,0,1-7.7-2.3c-.6-.4-1.4-1-2.3-.3a5,5,0,0,0,1.2,1.3c4.2,2.9,8.8,5,14,5.1a77.9,77.9,0,0,0,18.6-1.5,30,30,0,0,1,17.3,1.4l-6.3.4-2.7.5-8.3.9-11.7,1.9a1.6,1.6,0,0,1-1.7-.6,7,7,0,0,0-4.9-2l-5.5.4a12.2,12.2,0,0,1-9-2.6l-1-.5c.4.7.6,1.2.9,1.6,1.8,2.6,4.2,4.2,7.5,3.9a29.5,29.5,0,0,1,4.2-.1c1,0,2,.3,3,.4v.5c-11.9,1.3-23.4.6-33-8a3.7,3.7,0,0,0,1.2,3.5c6.4,6.5,14.6,9.3,23.4,10.2a73.3,73.3,0,0,0,19.8-1.1,90.3,90.3,0,0,1,17.2-1.6,26,26,0,0,1,3.9.5v.4l-4.7,3.2c-3.7,2.5-7.4,4.9-11.7,6.3s-9.1,3.4-14,3.8-9,.5-13.5.8a3.4,3.4,0,0,0-1,0c-.3.2-.8.5-.9.8a1.4,1.4,0,0,0,.5,1,3.7,3.7,0,0,0,1.8.5h5.8l10-.2c1.7,0,3.3-.5,5-.5,5.5.2,10.7-1.4,15.9-3s7.9-2.1,12-2,10.1.2,15.1.5c2.8.1,5.5.9,7.4,3.3.6.7.7,1.3-.2,1.7s-2.8,1.6-4.3,1.7a69.2,69.2,0,0,1-9.1-.3c-1.1,0-2.3-.3-3.4-.4a1.6,1.6,0,0,0,.9.9c1.7,1,3.4,2,5.2,2.9a70.3,70.3,0,0,0,7.8,3.8c2.4,1,5,1.7,7.4,2.5a47.9,47.9,0,0,1,12.8,5.9,51.3,51.3,0,0,1,8.8,8,16.9,16.9,0,0,1,2.3,3.6c.8,1.7.6,2.7-.9,3.9s-6.1,2.2-9.3,1.2-8.2-4.6-11.1-8.5l-.7-.9h-.3c.3.9.6,1.9,1,2.8a22.2,22.2,0,0,0,6.6,8c.3.2.4.6.7.9s-.7.5-1,.5a33.9,33.9,0,0,1-4.5.2,45.8,45.8,0,0,1-13-3.6l-6.5-2.8a.9.9,0,0,0,.4.6c4.7,2.5,9.3,5.1,14.1,7.5a12.6,12.6,0,0,0,5.1,1.5,47.1,47.1,0,0,0,21.6-3.8l3.3-1.6c2.8-1.5,5.7-3,8.4-4.7.6-.3,1.3-1.3,1.2-1.6s-1.4-.2-2.1-.1-.7-.1-1.1-.1a3.8,3.8,0,0,1,.3-1c.7-.9,1.3-1.9,2.2-3a30.2,30.2,0,0,0-4.5,1.4,2.2,2.2,0,0,1-2.9-.8,30.1,30.1,0,0,1-4.5-8.5,24.3,24.3,0,0,1-1.4-9.7c.1-1.7,1.1-3.1,2.7-3.2a18.9,18.9,0,0,1,5.3.2,26.1,26.1,0,0,1,5.4,2.5,14.5,14.5,0,0,1,6.6,7.2,3.7,3.7,0,0,1-.6,4,24,24,0,0,0-1.7,3.2l.4.2,2.8-1.9v.3a2.5,2.5,0,0,0,1.5-.2c1.4-.8,1.8-.8,2.9.6S373.6,306.3,374.2,307.3ZM236.7,355.8c.2-.6.2-.8.3-1.1,2.4-5.1,4.8-10.1,7.1-15.3a2.2,2.2,0,0,1,2.2-1.4h12.3a22.8,22.8,0,0,1,4.4.5c2.1.4,2.6,1.1,2.4,3.3a27,27,0,0,1-.7,4.1c3.3.3,4-.1,5.2-2.9l2.4-5.3c.6-1.5,1.3-3,1.9-4.6H231.8a4,4,0,0,0-2.3,1,2.4,2.4,0,0,0-.6,1.7c.1.8.9.8,1.6.8l1.9.3a1.5,1.5,0,0,1,1.3,2.1,21.3,21.3,0,0,1-1.1,3.3c-5.4,11.5-10.8,23-16.1,34.6-1.6,3.4-3.9,5.7-8,5.6a3.5,3.5,0,0,0-2.3,1.5c-.9,1.2-.4,2,1.1,2h41.8a1.9,1.9,0,0,0,1.7-.9l5.4-7.3c1.3-1.7,2.6-3.3,3.7-5a1.5,1.5,0,0,0,.2-1.3c-.1-.3-.7-.5-1.1-.6a3.2,3.2,0,0,0-3.2,1.3,22,22,0,0,1-2.7,2.6,19.3,19.3,0,0,1-8.3,5.1c-6.1,1.6-12.2,1.1-18.4.8-1.1-.1-1.3-.5-.7-1.7,2.7-5.8,5.4-11.6,8.2-17.4a1.5,1.5,0,0,1,1.3-.8c2.1-.1,4.2,0,6.3,0h6.1c3.1.2,3.7.9,3.1,3.9-.2,1.1-.5,2.2-.8,3.4,2.5.4,4-.2,5-2.7s2.1-4.5,3.1-6.7l4-8.7c.6-1.2.2-1.6-1.1-1.8a2.6,2.6,0,0,0-2.8,1.5,10.5,10.5,0,0,1-1.8,2.5c-1.1,1.6-2.5,2.9-4.5,3Zm88.6,27.8c-.3.8-.5,1.1-.6,1.5a3.2,3.2,0,0,0-.1,1.3,1.9,1.9,0,0,0,1.5.2l4.6-1.3,8.8-2.7a2.1,2.1,0,0,0,1.4-2.2c0-1-.9-1-1.7-1-2.5-.1-2.7-.5-1.7-2.7,2.5-5.5,5-10.9,7.6-16.3l12.6-27.2a1.7,1.7,0,0,0,0-1.4,1.8,1.8,0,0,0-1.3-.2l-12.8,3.2a2.9,2.9,0,0,0-1.8,2.3c.2,1.3,1.2,1,2.1,1h.3c2,0,2.2.4,1.4,2.2L342,348l-1.1,2.4a21.3,21.3,0,0,0-3.6-1.5,14.9,14.9,0,0,0-8.1.4c-5.6,1.6-10.2,4.9-14.3,8.9s-8.8,11.1-9.9,18.3c-.8,4.7,1.3,8.6,5.3,9.7a19,19,0,0,0,6.3.4A18.5,18.5,0,0,0,325.3,383.6Zm-54.1-28.8,2.2.3c1.8-.1,2.1.2,1.5,2-.1.2-.1.4-.2.6-3.4,7.2-6.8,14.4-10.1,21.6a5.7,5.7,0,0,1-5,3.5,2.8,2.8,0,0,0-1.9.9,1.6,1.6,0,0,0-.5,1.6c0,.3.8.7,1.3.7h14.9a5.8,5.8,0,0,0,2.2-.8,2.1,2.1,0,0,0,.8-1.6c0-.3-.8-.8-1.3-.9-2.3-.3-2.7-.9-1.8-3a3.6,3.6,0,0,1,.4-.9c2.5-5.4,5.2-10.6,7.4-16.1a11.8,11.8,0,0,1,7.1-6.9,1.9,1.9,0,0,1,.8-.3,15.8,15.8,0,0,1,3.8-.5c1.8.1,2.6,1,2.1,2.8s-1.6,4.4-2.5,6.5c-2.3,5-4.7,9.9-7.1,14.8-1,2.1-2.5,3.6-5,3.7a3.3,3.3,0,0,0-2,1.1,1.7,1.7,0,0,0-.3,1.4c.1.4.8.7,1.2.7h15a3.4,3.4,0,0,0,2.3-1.3c.8-.8.3-1.7-.8-1.9s-2.4-.7-1.7-2.8a6.1,6.1,0,0,1,.5-1.2c2.6-5.5,5.2-11,7.7-16.6a32.3,32.3,0,0,0,2.2-5.9c1.1-4.6-1.2-7.5-5.9-7.6s-7.1,1.3-10.3,3.1l-2.4,1.4a8.5,8.5,0,0,1,.8-2.4c.3-.6.8-1.4.1-1.8a2.7,2.7,0,0,0-1.8-.1c-3.6,1-7.2,2.1-10.9,3C272.5,352.1,271.6,352.8,271.2,354.8Zm110.5,17.5-.7-.5c-1.1-.8-1.9-.6-2.9.3s-3.5,3-5.3,4.3a16.7,16.7,0,0,1-10.6,3,5.8,5.8,0,0,1-5.6-5.4,18.6,18.6,0,0,1,1.5-7.7,2.1,2.1,0,0,1,2.4-1.7h20.6c2.1,0,2.9-.6,3.5-2.6a32,32,0,0,0,1-4.2c.7-4.9-1.6-8.2-6.4-9a20,20,0,0,0-12,1.7c-8.2,3.6-14,9.7-17.8,17.8-1.6,3.4-2.9,6.9-2.6,10.8s1.7,5.5,4.8,6.7a16,16,0,0,0,9.2.5,30,30,0,0,0,13.5-6.6A32.9,32.9,0,0,0,381.7,372.3Zm25.5-19.5c.3-.7.8-1.6,1.1-2.5s.2-1.1-.1-1.4a1.8,1.8,0,0,0-1.3-.1l-4.4,1.3-9.1,2.6a2.1,2.1,0,0,0-1.6,2.1c0,1.3,1.1,1.1,2,1,2.7-.3,3,.1,1.9,2.5l-9.9,21.3a4.4,4.4,0,0,1-3.3,2.6l-3.3.6c-.6.2-1.6,1.6-1.4,2.2s.8,1,1.6,1h17.7c1-.2,2.4-1.5,2.3-2.2s-1.3-1-2.1-1.1c-2.8-.4-3.2-1-2.3-3.6l.3-.9c2.4-5.2,4.9-10.2,7.2-15.4a13.7,13.7,0,0,1,6.4-6.8c1.1-.6,1.8-.5,2.5.5a3.9,3.9,0,0,0,5,1.3,8,8,0,0,0,4.9-5.8,2.5,2.5,0,0,0-2.3-3.3,9.9,9.9,0,0,0-4.2.4A76,76,0,0,0,407.2,352.8Z" style="fill: none"/>
    <path d="M374.2,307.3c-.6-1-1.1-1.7-1.6-2.4s-1.5-1.4-2.9-.6a2.5,2.5,0,0,1-1.5.2v-.3l-2.8,1.9-.4-.2a24,24,0,0,1,1.7-3.2,3.7,3.7,0,0,0,.6-4,14.5,14.5,0,0,0-6.6-7.2,26.1,26.1,0,0,0-5.4-2.5,18.9,18.9,0,0,0-5.3-.2c-1.6.1-2.6,1.5-2.7,3.2a24.3,24.3,0,0,0,1.4,9.7,30.1,30.1,0,0,0,4.5,8.5,2.2,2.2,0,0,0,2.9.8,30.2,30.2,0,0,1,4.5-1.4c-.9,1.1-1.5,2.1-2.2,3a3.8,3.8,0,0,0-.3,1c.4,0,.8.2,1.1.1s1.6-.9,2.1.1-.6,1.3-1.2,1.6c-2.7,1.7-5.6,3.2-8.4,4.7l-3.3,1.6a47.1,47.1,0,0,1-21.6,3.8,12.6,12.6,0,0,1-5.1-1.5c-4.8-2.4-9.4-5-14.1-7.5a.9.9,0,0,1-.4-.6l6.5,2.8a45.8,45.8,0,0,0,13,3.6,33.9,33.9,0,0,0,4.5-.2c.3,0,.6-.3,1-.5s-.4-.7-.7-.9a22.2,22.2,0,0,1-6.6-8c-.4-.9-.7-1.9-1-2.8h.3l.7.9c2.9,3.9,6.4,7,11.1,8.5s6.5,1.2,9.3-1.2,1.7-2.2.9-3.9a16.9,16.9,0,0,0-2.3-3.6,51.3,51.3,0,0,0-8.8-8,47.9,47.9,0,0,0-12.8-5.9c-2.4-.8-5-1.5-7.4-2.5a70.3,70.3,0,0,1-7.8-3.8c-1.8-.9-3.5-1.9-5.2-2.9a1.6,1.6,0,0,1-.9-.9c1.1.1,2.3.4,3.4.4a69.2,69.2,0,0,0,9.1.3c1.5-.1,2.9-1,4.3-1.7s.8-1,.2-1.7c-1.9-2.4-4.6-3.2-7.4-3.3-5-.3-10.1-.3-15.1-.5s-8,.9-12,2-10.4,3.2-15.9,3c-1.7,0-3.3.5-5,.5l-10,.2h-5.8a3.7,3.7,0,0,1-1.8-.5,1.4,1.4,0,0,1-.5-1c.1-.3.6-.6.9-.8a3.4,3.4,0,0,1,1,0c4.5-.3,9-.4,13.5-.8s9.4-2.3,14-3.8,8-3.8,11.7-6.3l4.7-3.2v-.4a26,26,0,0,0-3.9-.5,90.3,90.3,0,0,0-17.2,1.6,73.3,73.3,0,0,1-19.8,1.1c-8.8-.9-17-3.7-23.4-10.2a3.7,3.7,0,0,1-1.2-3.5c9.6,8.6,21.1,9.3,33,8v-.5c-1-.1-2-.4-3-.4a29.5,29.5,0,0,0-4.2.1c-3.3.3-5.7-1.3-7.5-3.9-.3-.4-.5-.9-.9-1.6l1,.5a12.2,12.2,0,0,0,9,2.6l5.5-.4a7,7,0,0,1,4.9,2,1.6,1.6,0,0,0,1.7.6l11.7-1.9,8.3-.9,2.7-.5,6.3-.4a30,30,0,0,0-17.3-1.4,77.9,77.9,0,0,1-18.6,1.5c-5.2-.1-9.8-2.2-14-5.1a5,5,0,0,1-1.2-1.3c.9-.7,1.7-.1,2.3.3a14.4,14.4,0,0,0,7.7,2.3c4.3.3,8.5,0,12.7-.1a2.6,2.6,0,0,0,1.5-.6,4.2,4.2,0,0,0-1.7-1c-1.2-.2-2.5-.2-3.7-.3a3.4,3.4,0,0,1-3-1.7l.3-.2,7,.6a3.8,3.8,0,0,1,3.1,1.7,1.1,1.1,0,0,0,1.5.5c3-.7,6-1.5,9.1-2s8.9.1,13.3.6a49.8,49.8,0,0,0,5.3.5c2,.1,2.9-1.3,2.8-3.6s-.7-5.7-.8-8.6a29.4,29.4,0,0,1,.5-5.1c0-.4.2-.7.7-1.1.5,1.6,1,3.2,1.6,4.8a36.6,36.6,0,0,0,5.1,9.8,14.8,14.8,0,0,0,7.9,5c.7.2,1.1,0,1-.8s0-2.4.1-3.6c.3-6.2,3-11.5,6.4-16.5l.6-.6c-.6,1.8-1.4,3.5-1.9,5.2-1.1,4.1-1.4,8.2.7,12.2a11.4,11.4,0,0,0,6.3,5.5,10.2,10.2,0,0,1,6.5,5.8c3,7,8.3,11.5,15,14.6l4.9,2a10.4,10.4,0,0,0,9.1-.4l5.1-2.4a1.4,1.4,0,0,0,.7-1,1.9,1.9,0,0,0-.7-1.4,2.7,2.7,0,0,0-1.3-.2h-7c-1.6,0-2.6-.5-3.1-2a22.3,22.3,0,0,1-.8-4.5c-.2-2.1-.7-3.1-2.7-3.8l-8.1-2.9a12.9,12.9,0,0,1-6.6-5.1,7.1,7.1,0,0,1,.9-8.1c.1-.2.4-.3.8-.2a3.7,3.7,0,0,1-.5,1.1,6.2,6.2,0,0,0,.7,8.2,16,16,0,0,0,6.8,3.9c2.4.7,4.7,1.7,7,2.6a4.2,4.2,0,0,1,2.5,4c.2,1.3.4,2.7.7,4.1a2.1,2.1,0,0,0,2.3,1.7h6.8c2.6,0,3.3.6,3.8,3.2h1.1c.1-.1.2-.2.2-.3.9-3.8-.7-5.7-4.6-6.3a11.3,11.3,0,0,1-1.8-.3,4.3,4.3,0,0,1-3.6-3.9c-.4-4.4-1.7-5.9-5.8-7.1a25,25,0,0,1-7.4-3.9,4.9,4.9,0,0,1-1.7-5.1c0-.3.5-.5.8-.8a2.7,2.7,0,0,1,0,.9,4.5,4.5,0,0,0,1.6,4.4,26.3,26.3,0,0,0,8.4,4.1,6.4,6.4,0,0,1,4.6,5.6c.1.8.3,1.6.4,2.4a3.6,3.6,0,0,0,3,2.6,24.5,24.5,0,0,1,3.7.8c2.8,1,3.6,2.3,3.6,5.2a3.9,3.9,0,0,0,.9,3.1c1.6,1.8,1.2,4,.8,6.2a9.7,9.7,0,0,0-.1,1.7c.3,2.3.5,4.5-.5,6.7-1.9,4.2-1.7,8.5-.9,12.8.1.3.1.7.2,1.1A2.5,2.5,0,0,1,374.2,307.3Zm-36.6-30.7v-.5l-8.5-6.1-.3.3a1.6,1.6,0,0,0,.2,1l3.9,6.5a1.8,1.8,0,0,0,.8.5Z" style="fill: #fff"/>
    <path d="M236.7,355.8l15.1-.5c2-.1,3.4-1.4,4.5-3a10.5,10.5,0,0,0,1.8-2.5,2.6,2.6,0,0,1,2.8-1.5c1.3.2,1.7.6,1.1,1.8l-4,8.7c-1,2.2-2.2,4.4-3.1,6.7s-2.5,3.1-5,2.7c.3-1.2.6-2.3.8-3.4.6-3,0-3.7-3.1-3.9h-6.1c-2.1,0-4.2-.1-6.3,0a1.5,1.5,0,0,0-1.3.8c-2.8,5.8-5.5,11.6-8.2,17.4-.6,1.2-.4,1.6.7,1.7,6.2.3,12.3.8,18.4-.8a19.3,19.3,0,0,0,8.3-5.1,22,22,0,0,0,2.7-2.6,3.2,3.2,0,0,1,3.2-1.3c.4.1,1,.3,1.1.6a1.5,1.5,0,0,1-.2,1.3c-1.1,1.7-2.4,3.3-3.7,5l-5.4,7.3a1.9,1.9,0,0,1-1.7.9H207.3c-1.5,0-2-.8-1.1-2a3.5,3.5,0,0,1,2.3-1.5c4.1.1,6.4-2.2,8-5.6,5.3-11.6,10.7-23.1,16.1-34.6a21.3,21.3,0,0,0,1.1-3.3,1.5,1.5,0,0,0-1.3-2.1l-1.9-.3c-.7,0-1.5,0-1.6-.8a2.4,2.4,0,0,1,.6-1.7,4,4,0,0,1,2.3-1h42.4c-.6,1.6-1.3,3.1-1.9,4.6l-2.4,5.3c-1.2,2.8-1.9,3.2-5.2,2.9a27,27,0,0,0,.7-4.1c.2-2.2-.3-2.9-2.4-3.3a22.8,22.8,0,0,0-4.4-.5H246.3a2.2,2.2,0,0,0-2.2,1.4c-2.3,5.2-4.7,10.2-7.1,15.3C236.9,355,236.9,355.2,236.7,355.8Z" style="fill: #fff"/>
    <path d="M325.3,383.6a18.5,18.5,0,0,1-8.7,3,19,19,0,0,1-6.3-.4c-4-1.1-6.1-5-5.3-9.7,1.1-7.2,4.7-13.2,9.9-18.3s8.7-7.3,14.3-8.9a14.9,14.9,0,0,1,8.1-.4,21.3,21.3,0,0,1,3.6,1.5L342,348l3.6-7.7c.8-1.8.6-2.2-1.4-2.2h-.3c-.9,0-1.9.3-2.1-1a2.9,2.9,0,0,1,1.8-2.3l12.8-3.2a1.8,1.8,0,0,1,1.3.2,1.7,1.7,0,0,1,0,1.4l-12.6,27.2c-2.6,5.4-5.1,10.8-7.6,16.3-1,2.2-.8,2.6,1.7,2.7.8,0,1.7,0,1.7,1a2.1,2.1,0,0,1-1.4,2.2l-8.8,2.7-4.6,1.3a1.9,1.9,0,0,1-1.5-.2,3.2,3.2,0,0,1,.1-1.3C324.8,384.7,325,384.4,325.3,383.6Zm-10.1-9.9c-.1,3.6,1,5.8,2.9,6.6,3.5,1.5,9.1-.6,10.7-4,2.3-5,4.7-9.9,6.9-14.8a21.2,21.2,0,0,0,1.4-4,3.8,3.8,0,0,0-3.7-4.6,11.9,11.9,0,0,0-4.2.6,17.3,17.3,0,0,0-7.7,6.2C318.1,364.2,315.7,369.1,315.2,373.7Z" style="fill: #fff"/>
    <path d="M271.2,354.8c.4-2,1.3-2.7,2.8-3,3.7-.9,7.3-2,10.9-3a2.7,2.7,0,0,1,1.8.1c.7.4.2,1.2-.1,1.8a8.5,8.5,0,0,0-.8,2.4l2.4-1.4c3.2-1.8,6.5-3.2,10.3-3.1s7,3,5.9,7.6a32.3,32.3,0,0,1-2.2,5.9c-2.5,5.6-5.1,11.1-7.7,16.6a6.1,6.1,0,0,0-.5,1.2c-.7,2.1-.4,2.5,1.7,2.8s1.6,1.1.8,1.9a3.4,3.4,0,0,1-2.3,1.3h-15c-.4,0-1.1-.3-1.2-.7a1.7,1.7,0,0,1,.3-1.4,3.3,3.3,0,0,1,2-1.1c2.5-.1,4-1.6,5-3.7,2.4-4.9,4.8-9.8,7.1-14.8.9-2.1,1.8-4.3,2.5-6.5s-.3-2.7-2.1-2.8a15.8,15.8,0,0,0-3.8.5,1.9,1.9,0,0,0-.8.3,11.8,11.8,0,0,0-7.1,6.9c-2.2,5.5-4.9,10.7-7.4,16.1a3.6,3.6,0,0,0-.4.9c-.9,2.1-.5,2.7,1.8,3,.5.1,1.3.6,1.3.9a2.1,2.1,0,0,1-.8,1.6,5.8,5.8,0,0,1-2.2.8H258.5c-.5,0-1.3-.4-1.3-.7a1.6,1.6,0,0,1,.5-1.6,2.8,2.8,0,0,1,1.9-.9,5.7,5.7,0,0,0,5-3.5c3.3-7.2,6.7-14.4,10.1-21.6.1-.2.1-.4.2-.6.6-1.8.3-2.1-1.5-2Z" style="fill: #fff"/>
    <path d="M381.7,372.3a32.9,32.9,0,0,1-7.4,7.5,30,30,0,0,1-13.5,6.6,16,16,0,0,1-9.2-.5c-3.1-1.2-4.5-3.5-4.8-6.7s1-7.4,2.6-10.8c3.8-8.1,9.6-14.2,17.8-17.8a20,20,0,0,1,12-1.7c4.8.8,7.1,4.1,6.4,9a32,32,0,0,1-1,4.2c-.6,2-1.4,2.6-3.5,2.6H360.5a2.1,2.1,0,0,0-2.4,1.7,18.6,18.6,0,0,0-1.5,7.7,5.8,5.8,0,0,0,5.6,5.4,16.7,16.7,0,0,0,10.6-3c1.8-1.3,3.6-2.8,5.3-4.3s1.8-1.1,2.9-.3Zm-20.1-12.2h10.8c3.2,0,3.4-.1,3.4-3.4,0-.1.1-.3,0-.4a2.5,2.5,0,0,0-2.3-2.7C369,352.7,364.6,355.1,361.6,360.1Z" style="fill: #fff"/>
    <path d="M407.2,352.8a76,76,0,0,1,7.6-3.7,9.9,9.9,0,0,1,4.2-.4,2.5,2.5,0,0,1,2.3,3.3,8,8,0,0,1-4.9,5.8,3.9,3.9,0,0,1-5-1.3c-.7-1-1.4-1.1-2.5-.5a13.7,13.7,0,0,0-6.4,6.8c-2.3,5.2-4.8,10.2-7.2,15.4l-.3.9c-.9,2.6-.5,3.2,2.3,3.6.8.1,1.9-.3,2.1,1.1s-1.3,2-2.3,2.2H379.4c-.8,0-1.4-.1-1.6-1s.8-2,1.4-2.2l3.3-.6a4.4,4.4,0,0,0,3.3-2.6l9.9-21.3c1.1-2.4.8-2.8-1.9-2.5-.9.1-2,.3-2-1a2.1,2.1,0,0,1,1.6-2.1l9.1-2.6,4.4-1.3a1.8,1.8,0,0,1,1.3.1c.3.3.2,1,.1,1.4S407.5,352.1,407.2,352.8Z" style="fill: #fff"/>
    <path d="M337.6,276.6l-3.8,1.7a1.8,1.8,0,0,1-.8-.5l-3.9-6.5a1.6,1.6,0,0,1-.2-1l.3-.3,8.5,6.1Z" style="fill: none"/>
    <path d="M315.2,373.7c.5-4.6,2.9-9.5,6.3-14a17.3,17.3,0,0,1,7.7-6.2,11.9,11.9,0,0,1,4.2-.6,3.8,3.8,0,0,1,3.7,4.6,21.2,21.2,0,0,1-1.4,4c-2.2,4.9-4.6,9.8-6.9,14.8-1.6,3.4-7.2,5.5-10.7,4C316.2,379.5,315.1,377.3,315.2,373.7Z" style="fill: none;stroke: #fff;stroke-miterlimit: 10"/>
    <path d="M361.6,360.1c3-5,7.4-7.4,11.9-6.5a2.5,2.5,0,0,1,2.3,2.7c.1.1,0,.3,0,.4,0,3.3-.2,3.4-3.4,3.4Z" style="fill: none;stroke: #fff;stroke-miterlimit: 10"/>
  </g>
</svg>
