solid OpenSCAD_Model
  facet normal 0 0 -1
    outer loop
      vertex 127.105 -129.998 -3
      vertex 127.002 -129.998 -3
      vertex 127.314 -129.984 -3
    endloop
  endfacet
  facet normal -0 0 -1
    outer loop
      vertex 127.314 -129.984 -3
      vertex 127.002 -129.998 -3
      vertex 127.521 -129.954 -3
    endloop
  endfacet
  facet normal -0 0 -1
    outer loop
      vertex 130 -127 -3
      vertex 127.002 -129.998 -3
      vertex 127.002 129.998 -3
    endloop
  endfacet
  facet normal -0 0 -1
    outer loop
      vertex 127.521 -129.954 -3
      vertex 127.002 -129.998 -3
      vertex 127.726 -129.911 -3
    endloop
  endfacet
  facet normal -0 0 -1
    outer loop
      vertex 127.726 -129.911 -3
      vertex 127.002 -129.998 -3
      vertex 127.927 -129.853 -3
    endloop
  endfacet
  facet normal -0 0 -1
    outer loop
      vertex 127.927 -129.853 -3
      vertex 127.002 -129.998 -3
      vertex 128.124 -129.782 -3
    endloop
  endfacet
  facet normal -0 0 -1
    outer loop
      vertex 128.124 -129.782 -3
      vertex 127.002 -129.998 -3
      vertex 128.315 -129.696 -3
    endloop
  endfacet
  facet normal -0 0 -1
    outer loop
      vertex 128.315 -129.696 -3
      vertex 127.002 -129.998 -3
      vertex 128.5 -129.598 -3
    endloop
  endfacet
  facet normal -0 0 -1
    outer loop
      vertex 128.5 -129.598 -3
      vertex 127.002 -129.998 -3
      vertex 128.678 -129.487 -3
    endloop
  endfacet
  facet normal -0 0 -1
    outer loop
      vertex 128.678 -129.487 -3
      vertex 127.002 -129.998 -3
      vertex 128.847 -129.364 -3
    endloop
  endfacet
  facet normal -0 0 -1
    outer loop
      vertex 128.847 -129.364 -3
      vertex 127.002 -129.998 -3
      vertex 129.007 -129.229 -3
    endloop
  endfacet
  facet normal -0 0 -1
    outer loop
      vertex 129.007 -129.229 -3
      vertex 127.002 -129.998 -3
      vertex 129.158 -129.084 -3
    endloop
  endfacet
  facet normal -0 0 -1
    outer loop
      vertex 129.158 -129.084 -3
      vertex 127.002 -129.998 -3
      vertex 129.298 -128.928 -3
    endloop
  endfacet
  facet normal -0 0 -1
    outer loop
      vertex 129.298 -128.928 -3
      vertex 127.002 -129.998 -3
      vertex 129.427 -128.763 -3
    endloop
  endfacet
  facet normal -0 0 -1
    outer loop
      vertex 129.427 -128.763 -3
      vertex 127.002 -129.998 -3
      vertex 129.544 -128.59 -3
    endloop
  endfacet
  facet normal -0 0 -1
    outer loop
      vertex 129.544 -128.59 -3
      vertex 127.002 -129.998 -3
      vertex 129.649 -128.408 -3
    endloop
  endfacet
  facet normal -0 0 -1
    outer loop
      vertex 129.649 -128.408 -3
      vertex 127.002 -129.998 -3
      vertex 129.741 -128.22 -3
    endloop
  endfacet
  facet normal -0 0 -1
    outer loop
      vertex 129.741 -128.22 -3
      vertex 127.002 -129.998 -3
      vertex 129.819 -128.026 -3
    endloop
  endfacet
  facet normal -0 0 -1
    outer loop
      vertex 129.819 -128.026 -3
      vertex 127.002 -129.998 -3
      vertex 129.884 -127.827 -3
    endloop
  endfacet
  facet normal -0 0 -1
    outer loop
      vertex 129.884 -127.827 -3
      vertex 127.002 -129.998 -3
      vertex 129.934 -127.624 -3
    endloop
  endfacet
  facet normal -0 0 -1
    outer loop
      vertex 129.934 -127.624 -3
      vertex 127.002 -129.998 -3
      vertex 129.971 -127.418 -3
    endloop
  endfacet
  facet normal -0 0 -1
    outer loop
      vertex 129.971 -127.418 -3
      vertex 127.002 -129.998 -3
      vertex 129.993 -127.209 -3
    endloop
  endfacet
  facet normal -0 0 -1
    outer loop
      vertex 129.993 -127.209 -3
      vertex 127.002 -129.998 -3
      vertex 130 -127 -3
    endloop
  endfacet
  facet normal 0 0 -1
    outer loop
      vertex 130 -127 -3
      vertex 127.002 129.998 -3
      vertex 130 127 -3
    endloop
  endfacet
  facet normal 0 0 -1
    outer loop
      vertex 127.002 129.998 -3
      vertex 129.971 127.418 -3
      vertex 129.993 127.209 -3
    endloop
  endfacet
  facet normal -0 -0 -1
    outer loop
      vertex 129.884 127.827 -3
      vertex 129.934 127.624 -3
      vertex 127.002 129.998 -3
    endloop
  endfacet
  facet normal 0 0 -1
    outer loop
      vertex 129.741 128.22 -3
      vertex 127.002 129.998 -3
      vertex 129.649 128.408 -3
    endloop
  endfacet
  facet normal -0 -0 -1
    outer loop
      vertex 129.741 128.22 -3
      vertex 129.819 128.026 -3
      vertex 127.002 129.998 -3
    endloop
  endfacet
  facet normal 0 0 -1
    outer loop
      vertex 127.002 129.998 -3
      vertex 129.007 129.229 -3
      vertex 129.158 129.084 -3
    endloop
  endfacet
  facet normal 0 0 -1
    outer loop
      vertex 129.427 128.763 -3
      vertex 127.002 129.998 -3
      vertex 129.298 128.928 -3
    endloop
  endfacet
  facet normal -0 -0 -1
    outer loop
      vertex 129.427 128.763 -3
      vertex 129.544 128.59 -3
      vertex 127.002 129.998 -3
    endloop
  endfacet
  facet normal 0 0 -1
    outer loop
      vertex 129.298 128.928 -3
      vertex 127.002 129.998 -3
      vertex 129.158 129.084 -3
    endloop
  endfacet
  facet normal 0 0 -1
    outer loop
      vertex 127.002 129.998 -3
      vertex 127.927 129.853 -3
      vertex 128.124 129.782 -3
    endloop
  endfacet
  facet normal 0 0 -1
    outer loop
      vertex 128.847 129.364 -3
      vertex 127.002 129.998 -3
      vertex 128.678 129.487 -3
    endloop
  endfacet
  facet normal -0 -0 -1
    outer loop
      vertex 128.847 129.364 -3
      vertex 129.007 129.229 -3
      vertex 127.002 129.998 -3
    endloop
  endfacet
  facet normal 0 0 -1
    outer loop
      vertex 128.678 129.487 -3
      vertex 127.002 129.998 -3
      vertex 128.5 129.598 -3
    endloop
  endfacet
  facet normal 0 0 -1
    outer loop
      vertex 128.5 129.598 -3
      vertex 127.002 129.998 -3
      vertex 128.315 129.696 -3
    endloop
  endfacet
  facet normal 0 0 -1
    outer loop
      vertex 128.315 129.696 -3
      vertex 127.002 129.998 -3
      vertex 128.124 129.782 -3
    endloop
  endfacet
  facet normal 0 0 -1
    outer loop
      vertex 129.649 128.408 -3
      vertex 127.002 129.998 -3
      vertex 129.544 128.59 -3
    endloop
  endfacet
  facet normal 0 0 -1
    outer loop
      vertex 127.726 129.911 -3
      vertex 127.002 129.998 -3
      vertex 127.521 129.954 -3
    endloop
  endfacet
  facet normal -0 -0 -1
    outer loop
      vertex 127.726 129.911 -3
      vertex 127.927 129.853 -3
      vertex 127.002 129.998 -3
    endloop
  endfacet
  facet normal -0 -0 -1
    outer loop
      vertex 129.819 128.026 -3
      vertex 129.884 127.827 -3
      vertex 127.002 129.998 -3
    endloop
  endfacet
  facet normal -0 -0 -1
    outer loop
      vertex 127.314 129.984 -3
      vertex 127.521 129.954 -3
      vertex 127.002 129.998 -3
    endloop
  endfacet
  facet normal 0 0 -1
    outer loop
      vertex 127.002 129.998 -3
      vertex 129.934 127.624 -3
      vertex 129.971 127.418 -3
    endloop
  endfacet
  facet normal 0 0 -1
    outer loop
      vertex 127.002 129.998 -3
      vertex 127.105 129.998 -3
      vertex 127.314 129.984 -3
    endloop
  endfacet
  facet normal 0 0 -1
    outer loop
      vertex 130 127 -3
      vertex 127.002 129.998 -3
      vertex 129.993 127.209 -3
    endloop
  endfacet
  facet normal 0 -0 -1
    outer loop
      vertex -127 130 -3
      vertex 127 130 -3
      vertex -127.002 129.998 -3
    endloop
  endfacet
  facet normal 0 0 -1
    outer loop
      vertex -127.002 129.998 -3
      vertex 127 130 -3
      vertex 127.002 129.998 -3
    endloop
  endfacet
  facet normal 0 0 -1
    outer loop
      vertex 127.002 -129.998 -3
      vertex -127.002 129.998 -3
      vertex 127.002 129.998 -3
    endloop
  endfacet
  facet normal 0 0 -1
    outer loop
      vertex -130 -127 -3
      vertex -130 127 -3
      vertex -127.002 -129.998 -3
    endloop
  endfacet
  facet normal -0 0 -1
    outer loop
      vertex -127.002 129.998 -3
      vertex -127.314 129.984 -3
      vertex -127.105 129.998 -3
    endloop
  endfacet
  facet normal 0 0 -1
    outer loop
      vertex -127.002 129.998 -3
      vertex -127.521 129.954 -3
      vertex -127.314 129.984 -3
    endloop
  endfacet
  facet normal 0 0 -1
    outer loop
      vertex -127.002 129.998 -3
      vertex -127.726 129.911 -3
      vertex -127.521 129.954 -3
    endloop
  endfacet
  facet normal 0 0 -1
    outer loop
      vertex -127.002 129.998 -3
      vertex -127.927 129.853 -3
      vertex -127.726 129.911 -3
    endloop
  endfacet
  facet normal 0 0 -1
    outer loop
      vertex -127.002 129.998 -3
      vertex -128.124 129.782 -3
      vertex -127.927 129.853 -3
    endloop
  endfacet
  facet normal 0 0 -1
    outer loop
      vertex -127.002 129.998 -3
      vertex -128.315 129.696 -3
      vertex -128.124 129.782 -3
    endloop
  endfacet
  facet normal 0 0 -1
    outer loop
      vertex -127.002 129.998 -3
      vertex -128.5 129.598 -3
      vertex -128.315 129.696 -3
    endloop
  endfacet
  facet normal 0 0 -1
    outer loop
      vertex -127.002 129.998 -3
      vertex -128.678 129.487 -3
      vertex -128.5 129.598 -3
    endloop
  endfacet
  facet normal 0 0 -1
    outer loop
      vertex -127.002 129.998 -3
      vertex -128.847 129.364 -3
      vertex -128.678 129.487 -3
    endloop
  endfacet
  facet normal 0 0 -1
    outer loop
      vertex -127.002 129.998 -3
      vertex -129.007 129.229 -3
      vertex -128.847 129.364 -3
    endloop
  endfacet
  facet normal 0 0 -1
    outer loop
      vertex -127.002 129.998 -3
      vertex -129.158 129.084 -3
      vertex -129.007 129.229 -3
    endloop
  endfacet
  facet normal 0 0 -1
    outer loop
      vertex -127.002 129.998 -3
      vertex -129.298 128.928 -3
      vertex -129.158 129.084 -3
    endloop
  endfacet
  facet normal 0 0 -1
    outer loop
      vertex -127.002 129.998 -3
      vertex -129.427 128.763 -3
      vertex -129.298 128.928 -3
    endloop
  endfacet
  facet normal 0 0 -1
    outer loop
      vertex -127.002 129.998 -3
      vertex -129.544 128.59 -3
      vertex -129.427 128.763 -3
    endloop
  endfacet
  facet normal 0 0 -1
    outer loop
      vertex -127.002 129.998 -3
      vertex -129.649 128.408 -3
      vertex -129.544 128.59 -3
    endloop
  endfacet
  facet normal 0 0 -1
    outer loop
      vertex -127.002 129.998 -3
      vertex -129.741 128.22 -3
      vertex -129.649 128.408 -3
    endloop
  endfacet
  facet normal 0 0 -1
    outer loop
      vertex -127.002 129.998 -3
      vertex -129.819 128.026 -3
      vertex -129.741 128.22 -3
    endloop
  endfacet
  facet normal 0 0 -1
    outer loop
      vertex -127.002 129.998 -3
      vertex -129.884 127.827 -3
      vertex -129.819 128.026 -3
    endloop
  endfacet
  facet normal 0 0 -1
    outer loop
      vertex -127.002 129.998 -3
      vertex -129.934 127.624 -3
      vertex -129.884 127.827 -3
    endloop
  endfacet
  facet normal 0 0 -1
    outer loop
      vertex -127.002 129.998 -3
      vertex -129.971 127.418 -3
      vertex -129.934 127.624 -3
    endloop
  endfacet
  facet normal 0 0 -1
    outer loop
      vertex -127.002 129.998 -3
      vertex -129.993 127.209 -3
      vertex -129.971 127.418 -3
    endloop
  endfacet
  facet normal 0 0 -1
    outer loop
      vertex -127.002 129.998 -3
      vertex -130 127 -3
      vertex -129.993 127.209 -3
    endloop
  endfacet
  facet normal 0 0 -1
    outer loop
      vertex -127.002 -129.998 -3
      vertex -130 127 -3
      vertex -127.002 129.998 -3
    endloop
  endfacet
  facet normal 0 0 -1
    outer loop
      vertex 127.002 -129.998 -3
      vertex -127.002 -129.998 -3
      vertex -127.002 129.998 -3
    endloop
  endfacet
  facet normal 0 0 -1
    outer loop
      vertex -127.002 -129.998 -3
      vertex -129.971 -127.418 -3
      vertex -129.993 -127.209 -3
    endloop
  endfacet
  facet normal 0 0 -1
    outer loop
      vertex -129.884 -127.827 -3
      vertex -129.934 -127.624 -3
      vertex -127.002 -129.998 -3
    endloop
  endfacet
  facet normal 0 0 -1
    outer loop
      vertex -129.741 -128.22 -3
      vertex -127.002 -129.998 -3
      vertex -129.649 -128.408 -3
    endloop
  endfacet
  facet normal 0 0 -1
    outer loop
      vertex -129.741 -128.22 -3
      vertex -129.819 -128.026 -3
      vertex -127.002 -129.998 -3
    endloop
  endfacet
  facet normal 0 0 -1
    outer loop
      vertex -127.002 -129.998 -3
      vertex -129.007 -129.229 -3
      vertex -129.158 -129.084 -3
    endloop
  endfacet
  facet normal 0 0 -1
    outer loop
      vertex -129.427 -128.763 -3
      vertex -127.002 -129.998 -3
      vertex -129.298 -128.928 -3
    endloop
  endfacet
  facet normal 0 0 -1
    outer loop
      vertex -129.427 -128.763 -3
      vertex -129.544 -128.59 -3
      vertex -127.002 -129.998 -3
    endloop
  endfacet
  facet normal 0 0 -1
    outer loop
      vertex -129.298 -128.928 -3
      vertex -127.002 -129.998 -3
      vertex -129.158 -129.084 -3
    endloop
  endfacet
  facet normal 0 0 -1
    outer loop
      vertex -127.002 -129.998 -3
      vertex -127.927 -129.853 -3
      vertex -128.124 -129.782 -3
    endloop
  endfacet
  facet normal 0 0 -1
    outer loop
      vertex -128.847 -129.364 -3
      vertex -127.002 -129.998 -3
      vertex -128.678 -129.487 -3
    endloop
  endfacet
  facet normal 0 0 -1
    outer loop
      vertex -128.847 -129.364 -3
      vertex -129.007 -129.229 -3
      vertex -127.002 -129.998 -3
    endloop
  endfacet
  facet normal 0 0 -1
    outer loop
      vertex -128.678 -129.487 -3
      vertex -127.002 -129.998 -3
      vertex -128.5 -129.598 -3
    endloop
  endfacet
  facet normal 0 0 -1
    outer loop
      vertex -128.5 -129.598 -3
      vertex -127.002 -129.998 -3
      vertex -128.315 -129.696 -3
    endloop
  endfacet
  facet normal 0 0 -1
    outer loop
      vertex -128.315 -129.696 -3
      vertex -127.002 -129.998 -3
      vertex -128.124 -129.782 -3
    endloop
  endfacet
  facet normal 0 0 -1
    outer loop
      vertex -129.649 -128.408 -3
      vertex -127.002 -129.998 -3
      vertex -129.544 -128.59 -3
    endloop
  endfacet
  facet normal 0 0 -1
    outer loop
      vertex -127.726 -129.911 -3
      vertex -127.002 -129.998 -3
      vertex -127.521 -129.954 -3
    endloop
  endfacet
  facet normal 0 0 -1
    outer loop
      vertex -127.726 -129.911 -3
      vertex -127.927 -129.853 -3
      vertex -127.002 -129.998 -3
    endloop
  endfacet
  facet normal 0 0 -1
    outer loop
      vertex -129.819 -128.026 -3
      vertex -129.884 -127.827 -3
      vertex -127.002 -129.998 -3
    endloop
  endfacet
  facet normal 0 0 -1
    outer loop
      vertex -127.314 -129.984 -3
      vertex -127.521 -129.954 -3
      vertex -127.002 -129.998 -3
    endloop
  endfacet
  facet normal 0 0 -1
    outer loop
      vertex -127.002 -129.998 -3
      vertex -129.934 -127.624 -3
      vertex -129.971 -127.418 -3
    endloop
  endfacet
  facet normal 0 0 -1
    outer loop
      vertex -127.002 -129.998 -3
      vertex -127.105 -129.998 -3
      vertex -127.314 -129.984 -3
    endloop
  endfacet
  facet normal -0 0 -1
    outer loop
      vertex 127.002 -129.998 -3
      vertex 127 -130 -3
      vertex -127.002 -129.998 -3
    endloop
  endfacet
  facet normal 0 0 -1
    outer loop
      vertex -127.002 -129.998 -3
      vertex 127 -130 -3
      vertex -127 -130 -3
    endloop
  endfacet
  facet normal 0 0 -1
    outer loop
      vertex -130 -127 -3
      vertex -127.002 -129.998 -3
      vertex -129.993 -127.209 -3
    endloop
  endfacet
  facet normal 0 0 1
    outer loop
      vertex 127.314 -129.984 0
      vertex 127.002 -129.998 0
      vertex 127.105 -129.998 0
    endloop
  endfacet
  facet normal 0 0 1
    outer loop
      vertex 127.521 -129.954 0
      vertex 127.002 -129.998 0
      vertex 127.314 -129.984 0
    endloop
  endfacet
  facet normal 0 0 1
    outer loop
      vertex 127.002 129.998 0
      vertex 127.002 -129.998 0
      vertex 130 -127 0
    endloop
  endfacet
  facet normal 0 0 1
    outer loop
      vertex 127.726 -129.911 0
      vertex 127.002 -129.998 0
      vertex 127.521 -129.954 0
    endloop
  endfacet
  facet normal 0 0 1
    outer loop
      vertex 127.927 -129.853 0
      vertex 127.002 -129.998 0
      vertex 127.726 -129.911 0
    endloop
  endfacet
  facet normal 0 0 1
    outer loop
      vertex 128.124 -129.782 0
      vertex 127.002 -129.998 0
      vertex 127.927 -129.853 0
    endloop
  endfacet
  facet normal 0 0 1
    outer loop
      vertex 128.315 -129.696 0
      vertex 127.002 -129.998 0
      vertex 128.124 -129.782 0
    endloop
  endfacet
  facet normal 0 0 1
    outer loop
      vertex 128.5 -129.598 0
      vertex 127.002 -129.998 0
      vertex 128.315 -129.696 0
    endloop
  endfacet
  facet normal 0 0 1
    outer loop
      vertex 128.678 -129.487 0
      vertex 127.002 -129.998 0
      vertex 128.5 -129.598 0
    endloop
  endfacet
  facet normal 0 0 1
    outer loop
      vertex 128.847 -129.364 0
      vertex 127.002 -129.998 0
      vertex 128.678 -129.487 0
    endloop
  endfacet
  facet normal 0 0 1
    outer loop
      vertex 129.007 -129.229 0
      vertex 127.002 -129.998 0
      vertex 128.847 -129.364 0
    endloop
  endfacet
  facet normal 0 0 1
    outer loop
      vertex 129.158 -129.084 0
      vertex 127.002 -129.998 0
      vertex 129.007 -129.229 0
    endloop
  endfacet
  facet normal 0 0 1
    outer loop
      vertex 129.298 -128.928 0
      vertex 127.002 -129.998 0
      vertex 129.158 -129.084 0
    endloop
  endfacet
  facet normal 0 0 1
    outer loop
      vertex 129.427 -128.763 0
      vertex 127.002 -129.998 0
      vertex 129.298 -128.928 0
    endloop
  endfacet
  facet normal 0 0 1
    outer loop
      vertex 129.544 -128.59 0
      vertex 127.002 -129.998 0
      vertex 129.427 -128.763 0
    endloop
  endfacet
  facet normal 0 0 1
    outer loop
      vertex 129.649 -128.408 0
      vertex 127.002 -129.998 0
      vertex 129.544 -128.59 0
    endloop
  endfacet
  facet normal 0 0 1
    outer loop
      vertex 129.741 -128.22 0
      vertex 127.002 -129.998 0
      vertex 129.649 -128.408 0
    endloop
  endfacet
  facet normal 0 0 1
    outer loop
      vertex 129.819 -128.026 0
      vertex 127.002 -129.998 0
      vertex 129.741 -128.22 0
    endloop
  endfacet
  facet normal 0 0 1
    outer loop
      vertex 129.884 -127.827 0
      vertex 127.002 -129.998 0
      vertex 129.819 -128.026 0
    endloop
  endfacet
  facet normal 0 0 1
    outer loop
      vertex 129.934 -127.624 0
      vertex 127.002 -129.998 0
      vertex 129.884 -127.827 0
    endloop
  endfacet
  facet normal 0 0 1
    outer loop
      vertex 129.971 -127.418 0
      vertex 127.002 -129.998 0
      vertex 129.934 -127.624 0
    endloop
  endfacet
  facet normal 0 0 1
    outer loop
      vertex 129.993 -127.209 0
      vertex 127.002 -129.998 0
      vertex 129.971 -127.418 0
    endloop
  endfacet
  facet normal 0 0 1
    outer loop
      vertex 130 -127 0
      vertex 127.002 -129.998 0
      vertex 129.993 -127.209 0
    endloop
  endfacet
  facet normal 0 0 1
    outer loop
      vertex 130 127 0
      vertex 127.002 129.998 0
      vertex 130 -127 0
    endloop
  endfacet
  facet normal 0 0 1
    outer loop
      vertex 129.993 127.209 0
      vertex 129.971 127.418 0
      vertex 127.002 129.998 0
    endloop
  endfacet
  facet normal 0 0 1
    outer loop
      vertex 127.002 129.998 0
      vertex 129.934 127.624 0
      vertex 129.884 127.827 0
    endloop
  endfacet
  facet normal 0 0 1
    outer loop
      vertex 129.649 128.408 0
      vertex 127.002 129.998 0
      vertex 129.741 128.22 0
    endloop
  endfacet
  facet normal 0 0 1
    outer loop
      vertex 127.002 129.998 0
      vertex 129.819 128.026 0
      vertex 129.741 128.22 0
    endloop
  endfacet
  facet normal 0 0 1
    outer loop
      vertex 129.158 129.084 0
      vertex 129.007 129.229 0
      vertex 127.002 129.998 0
    endloop
  endfacet
  facet normal 0 0 1
    outer loop
      vertex 129.298 128.928 0
      vertex 127.002 129.998 0
      vertex 129.427 128.763 0
    endloop
  endfacet
  facet normal 0 0 1
    outer loop
      vertex 127.002 129.998 0
      vertex 129.544 128.59 0
      vertex 129.427 128.763 0
    endloop
  endfacet
  facet normal 0 0 1
    outer loop
      vertex 129.158 129.084 0
      vertex 127.002 129.998 0
      vertex 129.298 128.928 0
    endloop
  endfacet
  facet normal 0 0 1
    outer loop
      vertex 128.124 129.782 0
      vertex 127.927 129.853 0
      vertex 127.002 129.998 0
    endloop
  endfacet
  facet normal 0 0 1
    outer loop
      vertex 128.678 129.487 0
      vertex 127.002 129.998 0
      vertex 128.847 129.364 0
    endloop
  endfacet
  facet normal 0 0 1
    outer loop
      vertex 127.002 129.998 0
      vertex 129.007 129.229 0
      vertex 128.847 129.364 0
    endloop
  endfacet
  facet normal 0 0 1
    outer loop
      vertex 128.5 129.598 0
      vertex 127.002 129.998 0
      vertex 128.678 129.487 0
    endloop
  endfacet
  facet normal 0 0 1
    outer loop
      vertex 128.315 129.696 0
      vertex 127.002 129.998 0
      vertex 128.5 129.598 0
    endloop
  endfacet
  facet normal 0 0 1
    outer loop
      vertex 128.124 129.782 0
      vertex 127.002 129.998 0
      vertex 128.315 129.696 0
    endloop
  endfacet
  facet normal 0 0 1
    outer loop
      vertex 129.544 128.59 0
      vertex 127.002 129.998 0
      vertex 129.649 128.408 0
    endloop
  endfacet
  facet normal 0 0 1
    outer loop
      vertex 127.521 129.954 0
      vertex 127.002 129.998 0
      vertex 127.726 129.911 0
    endloop
  endfacet
  facet normal 0 0 1
    outer loop
      vertex 127.002 129.998 0
      vertex 127.927 129.853 0
      vertex 127.726 129.911 0
    endloop
  endfacet
  facet normal 0 0 1
    outer loop
      vertex 127.002 129.998 0
      vertex 129.884 127.827 0
      vertex 129.819 128.026 0
    endloop
  endfacet
  facet normal 0 0 1
    outer loop
      vertex 127.002 129.998 0
      vertex 127.521 129.954 0
      vertex 127.314 129.984 0
    endloop
  endfacet
  facet normal 0 0 1
    outer loop
      vertex 129.971 127.418 0
      vertex 129.934 127.624 0
      vertex 127.002 129.998 0
    endloop
  endfacet
  facet normal 0 0 1
    outer loop
      vertex 127.314 129.984 0
      vertex 127.105 129.998 0
      vertex 127.002 129.998 0
    endloop
  endfacet
  facet normal 0 0 1
    outer loop
      vertex 129.993 127.209 0
      vertex 127.002 129.998 0
      vertex 130 127 0
    endloop
  endfacet
  facet normal 0 0 1
    outer loop
      vertex -127.002 129.998 0
      vertex 127 130 0
      vertex -127 130 0
    endloop
  endfacet
  facet normal 0 0 1
    outer loop
      vertex 127.002 129.998 0
      vertex 127 130 0
      vertex -127.002 129.998 0
    endloop
  endfacet
  facet normal 0 0 1
    outer loop
      vertex 127.002 129.998 0
      vertex -127.002 129.998 0
      vertex 127.002 -129.998 0
    endloop
  endfacet
  facet normal 0 0 1
    outer loop
      vertex -127.002 -129.998 0
      vertex -130 127 0
      vertex -130 -127 0
    endloop
  endfacet
  facet normal -0 0 1
    outer loop
      vertex -127.105 129.998 0
      vertex -127.314 129.984 0
      vertex -127.002 129.998 0
    endloop
  endfacet
  facet normal -0 0 1
    outer loop
      vertex -127.314 129.984 0
      vertex -127.521 129.954 0
      vertex -127.002 129.998 0
    endloop
  endfacet
  facet normal -0 0 1
    outer loop
      vertex -127.521 129.954 0
      vertex -127.726 129.911 0
      vertex -127.002 129.998 0
    endloop
  endfacet
  facet normal -0 0 1
    outer loop
      vertex -127.726 129.911 0
      vertex -127.927 129.853 0
      vertex -127.002 129.998 0
    endloop
  endfacet
  facet normal -0 0 1
    outer loop
      vertex -127.927 129.853 0
      vertex -128.124 129.782 0
      vertex -127.002 129.998 0
    endloop
  endfacet
  facet normal -0 0 1
    outer loop
      vertex -128.124 129.782 0
      vertex -128.315 129.696 0
      vertex -127.002 129.998 0
    endloop
  endfacet
  facet normal -0 0 1
    outer loop
      vertex -128.315 129.696 0
      vertex -128.5 129.598 0
      vertex -127.002 129.998 0
    endloop
  endfacet
  facet normal -0 0 1
    outer loop
      vertex -128.5 129.598 0
      vertex -128.678 129.487 0
      vertex -127.002 129.998 0
    endloop
  endfacet
  facet normal -0 0 1
    outer loop
      vertex -128.678 129.487 0
      vertex -128.847 129.364 0
      vertex -127.002 129.998 0
    endloop
  endfacet
  facet normal -0 0 1
    outer loop
      vertex -128.847 129.364 0
      vertex -129.007 129.229 0
      vertex -127.002 129.998 0
    endloop
  endfacet
  facet normal -0 0 1
    outer loop
      vertex -129.007 129.229 0
      vertex -129.158 129.084 0
      vertex -127.002 129.998 0
    endloop
  endfacet
  facet normal -0 0 1
    outer loop
      vertex -129.158 129.084 0
      vertex -129.298 128.928 0
      vertex -127.002 129.998 0
    endloop
  endfacet
  facet normal -0 0 1
    outer loop
      vertex -129.298 128.928 0
      vertex -129.427 128.763 0
      vertex -127.002 129.998 0
    endloop
  endfacet
  facet normal -0 0 1
    outer loop
      vertex -129.427 128.763 0
      vertex -129.544 128.59 0
      vertex -127.002 129.998 0
    endloop
  endfacet
  facet normal -0 0 1
    outer loop
      vertex -129.544 128.59 0
      vertex -129.649 128.408 0
      vertex -127.002 129.998 0
    endloop
  endfacet
  facet normal -0 0 1
    outer loop
      vertex -129.649 128.408 0
      vertex -129.741 128.22 0
      vertex -127.002 129.998 0
    endloop
  endfacet
  facet normal -0 0 1
    outer loop
      vertex -129.741 128.22 0
      vertex -129.819 128.026 0
      vertex -127.002 129.998 0
    endloop
  endfacet
  facet normal -0 0 1
    outer loop
      vertex -129.819 128.026 0
      vertex -129.884 127.827 0
      vertex -127.002 129.998 0
    endloop
  endfacet
  facet normal -0 0 1
    outer loop
      vertex -129.884 127.827 0
      vertex -129.934 127.624 0
      vertex -127.002 129.998 0
    endloop
  endfacet
  facet normal -0 0 1
    outer loop
      vertex -129.934 127.624 0
      vertex -129.971 127.418 0
      vertex -127.002 129.998 0
    endloop
  endfacet
  facet normal -0 0 1
    outer loop
      vertex -129.971 127.418 0
      vertex -129.993 127.209 0
      vertex -127.002 129.998 0
    endloop
  endfacet
  facet normal -0 0 1
    outer loop
      vertex -129.993 127.209 0
      vertex -130 127 0
      vertex -127.002 129.998 0
    endloop
  endfacet
  facet normal 0 0 1
    outer loop
      vertex -127.002 129.998 0
      vertex -130 127 0
      vertex -127.002 -129.998 0
    endloop
  endfacet
  facet normal 0 0 1
    outer loop
      vertex -127.002 129.998 0
      vertex -127.002 -129.998 0
      vertex 127.002 -129.998 0
    endloop
  endfacet
  facet normal 0 0 1
    outer loop
      vertex -129.993 -127.209 0
      vertex -129.971 -127.418 0
      vertex -127.002 -129.998 0
    endloop
  endfacet
  facet normal 0 0 1
    outer loop
      vertex -127.002 -129.998 0
      vertex -129.934 -127.624 0
      vertex -129.884 -127.827 0
    endloop
  endfacet
  facet normal -0 -0 1
    outer loop
      vertex -129.649 -128.408 0
      vertex -127.002 -129.998 0
      vertex -129.741 -128.22 0
    endloop
  endfacet
  facet normal 0 0 1
    outer loop
      vertex -127.002 -129.998 0
      vertex -129.819 -128.026 0
      vertex -129.741 -128.22 0
    endloop
  endfacet
  facet normal 0 0 1
    outer loop
      vertex -129.158 -129.084 0
      vertex -129.007 -129.229 0
      vertex -127.002 -129.998 0
    endloop
  endfacet
  facet normal -0 -0 1
    outer loop
      vertex -129.298 -128.928 0
      vertex -127.002 -129.998 0
      vertex -129.427 -128.763 0
    endloop
  endfacet
  facet normal 0 0 1
    outer loop
      vertex -127.002 -129.998 0
      vertex -129.544 -128.59 0
      vertex -129.427 -128.763 0
    endloop
  endfacet
  facet normal -0 -0 1
    outer loop
      vertex -129.158 -129.084 0
      vertex -127.002 -129.998 0
      vertex -129.298 -128.928 0
    endloop
  endfacet
  facet normal 0 0 1
    outer loop
      vertex -128.124 -129.782 0
      vertex -127.927 -129.853 0
      vertex -127.002 -129.998 0
    endloop
  endfacet
  facet normal -0 -0 1
    outer loop
      vertex -128.678 -129.487 0
      vertex -127.002 -129.998 0
      vertex -128.847 -129.364 0
    endloop
  endfacet
  facet normal 0 0 1
    outer loop
      vertex -127.002 -129.998 0
      vertex -129.007 -129.229 0
      vertex -128.847 -129.364 0
    endloop
  endfacet
  facet normal -0 -0 1
    outer loop
      vertex -128.5 -129.598 0
      vertex -127.002 -129.998 0
      vertex -128.678 -129.487 0
    endloop
  endfacet
  facet normal -0 -0 1
    outer loop
      vertex -128.315 -129.696 0
      vertex -127.002 -129.998 0
      vertex -128.5 -129.598 0
    endloop
  endfacet
  facet normal -0 -0 1
    outer loop
      vertex -128.124 -129.782 0
      vertex -127.002 -129.998 0
      vertex -128.315 -129.696 0
    endloop
  endfacet
  facet normal -0 -0 1
    outer loop
      vertex -129.544 -128.59 0
      vertex -127.002 -129.998 0
      vertex -129.649 -128.408 0
    endloop
  endfacet
  facet normal -0 -0 1
    outer loop
      vertex -127.521 -129.954 0
      vertex -127.002 -129.998 0
      vertex -127.726 -129.911 0
    endloop
  endfacet
  facet normal 0 0 1
    outer loop
      vertex -127.002 -129.998 0
      vertex -127.927 -129.853 0
      vertex -127.726 -129.911 0
    endloop
  endfacet
  facet normal 0 0 1
    outer loop
      vertex -127.002 -129.998 0
      vertex -129.884 -127.827 0
      vertex -129.819 -128.026 0
    endloop
  endfacet
  facet normal 0 0 1
    outer loop
      vertex -127.002 -129.998 0
      vertex -127.521 -129.954 0
      vertex -127.314 -129.984 0
    endloop
  endfacet
  facet normal 0 0 1
    outer loop
      vertex -129.971 -127.418 0
      vertex -129.934 -127.624 0
      vertex -127.002 -129.998 0
    endloop
  endfacet
  facet normal 0 0 1
    outer loop
      vertex -127.314 -129.984 0
      vertex -127.105 -129.998 0
      vertex -127.002 -129.998 0
    endloop
  endfacet
  facet normal -0 0 1
    outer loop
      vertex -127.002 -129.998 0
      vertex 127 -130 0
      vertex 127.002 -129.998 0
    endloop
  endfacet
  facet normal 0 -0 1
    outer loop
      vertex -127 -130 0
      vertex 127 -130 0
      vertex -127.002 -129.998 0
    endloop
  endfacet
  facet normal -0 -0 1
    outer loop
      vertex -129.993 -127.209 0
      vertex -127.002 -129.998 0
      vertex -130 -127 0
    endloop
  endfacet
  facet normal 0 -1 0
    outer loop
      vertex 127.105 -129.998 -3
      vertex 127.002 -129.998 0
      vertex 127.002 -129.998 -3
    endloop
  endfacet
  facet normal 0 -1 0
    outer loop
      vertex 127.105 -129.998 -3
      vertex 127.105 -129.998 0
      vertex 127.002 -129.998 0
    endloop
  endfacet
  facet normal 0.0668359 -0.997764 0
    outer loop
      vertex 127.314 -129.984 -3
      vertex 127.105 -129.998 0
      vertex 127.105 -129.998 -3
    endloop
  endfacet
  facet normal 0.0668359 -0.997764 0
    outer loop
      vertex 127.314 -129.984 -3
      vertex 127.314 -129.984 0
      vertex 127.105 -129.998 0
    endloop
  endfacet
  facet normal 0.143429 -0.989661 0
    outer loop
      vertex 127.521 -129.954 -3
      vertex 127.314 -129.984 0
      vertex 127.314 -129.984 -3
    endloop
  endfacet
  facet normal 0.143429 -0.989661 0
    outer loop
      vertex 127.521 -129.954 -3
      vertex 127.521 -129.954 0
      vertex 127.314 -129.984 0
    endloop
  endfacet
  facet normal 0.205289 -0.978701 0
    outer loop
      vertex 127.726 -129.911 -3
      vertex 127.521 -129.954 0
      vertex 127.521 -129.954 -3
    endloop
  endfacet
  facet normal 0.205289 -0.978701 0
    outer loop
      vertex 127.726 -129.911 -3
      vertex 127.726 -129.911 0
      vertex 127.521 -129.954 0
    endloop
  endfacet
  facet normal 0.277246 -0.960799 0
    outer loop
      vertex 127.927 -129.853 -3
      vertex 127.726 -129.911 0
      vertex 127.726 -129.911 -3
    endloop
  endfacet
  facet normal 0.277246 -0.960799 0
    outer loop
      vertex 127.927 -129.853 -3
      vertex 127.927 -129.853 0
      vertex 127.726 -129.911 0
    endloop
  endfacet
  facet normal 0.339058 -0.940766 0
    outer loop
      vertex 128.124 -129.782 -3
      vertex 127.927 -129.853 0
      vertex 127.927 -129.853 -3
    endloop
  endfacet
  facet normal 0.339058 -0.940766 0
    outer loop
      vertex 128.124 -129.782 -3
      vertex 128.124 -129.782 0
      vertex 127.927 -129.853 0
    endloop
  endfacet
  facet normal 0.410563 -0.911832 0
    outer loop
      vertex 128.315 -129.696 -3
      vertex 128.124 -129.782 0
      vertex 128.124 -129.782 -3
    endloop
  endfacet
  facet normal 0.410563 -0.911832 0
    outer loop
      vertex 128.315 -129.696 -3
      vertex 128.315 -129.696 0
      vertex 128.124 -129.782 0
    endloop
  endfacet
  facet normal 0.468107 -0.883672 0
    outer loop
      vertex 128.5 -129.598 -3
      vertex 128.315 -129.696 0
      vertex 128.315 -129.696 -3
    endloop
  endfacet
  facet normal 0.468107 -0.883672 0
    outer loop
      vertex 128.5 -129.598 -3
      vertex 128.5 -129.598 0
      vertex 128.315 -129.696 0
    endloop
  endfacet
  facet normal 0.529142 -0.848533 0
    outer loop
      vertex 128.678 -129.487 -3
      vertex 128.5 -129.598 0
      vertex 128.5 -129.598 -3
    endloop
  endfacet
  facet normal 0.529142 -0.848533 0
    outer loop
      vertex 128.678 -129.487 -3
      vertex 128.678 -129.487 0
      vertex 128.5 -129.598 0
    endloop
  endfacet
  facet normal 0.588456 -0.808529 0
    outer loop
      vertex 128.847 -129.364 -3
      vertex 128.678 -129.487 0
      vertex 128.678 -129.487 -3
    endloop
  endfacet
  facet normal 0.588456 -0.808529 0
    outer loop
      vertex 128.847 -129.364 -3
      vertex 128.847 -129.364 0
      vertex 128.678 -129.487 0
    endloop
  endfacet
  facet normal 0.644871 -0.764291 0
    outer loop
      vertex 129.007 -129.229 -3
      vertex 128.847 -129.364 0
      vertex 128.847 -129.364 -3
    endloop
  endfacet
  facet normal 0.644871 -0.764291 0
    outer loop
      vertex 129.007 -129.229 -3
      vertex 129.007 -129.229 0
      vertex 128.847 -129.364 0
    endloop
  endfacet
  facet normal 0.692631 -0.721292 0
    outer loop
      vertex 129.158 -129.084 -3
      vertex 129.007 -129.229 0
      vertex 129.007 -129.229 -3
    endloop
  endfacet
  facet normal 0.692631 -0.721292 0
    outer loop
      vertex 129.158 -129.084 -3
      vertex 129.158 -129.084 0
      vertex 129.007 -129.229 0
    endloop
  endfacet
  facet normal 0.744242 -0.66791 0
    outer loop
      vertex 129.298 -128.928 -3
      vertex 129.158 -129.084 0
      vertex 129.158 -129.084 -3
    endloop
  endfacet
  facet normal 0.744242 -0.66791 0
    outer loop
      vertex 129.298 -128.928 -3
      vertex 129.298 -128.928 0
      vertex 129.158 -129.084 0
    endloop
  endfacet
  facet normal 0.787807 -0.615922 0
    outer loop
      vertex 129.427 -128.763 -3
      vertex 129.298 -128.928 0
      vertex 129.298 -128.928 -3
    endloop
  endfacet
  facet normal 0.787807 -0.615922 0
    outer loop
      vertex 129.427 -128.763 -3
      vertex 129.427 -128.763 0
      vertex 129.298 -128.928 0
    endloop
  endfacet
  facet normal 0.828349 -0.560213 0
    outer loop
      vertex 129.544 -128.59 -3
      vertex 129.427 -128.763 0
      vertex 129.427 -128.763 -3
    endloop
  endfacet
  facet normal 0.828349 -0.560213 0
    outer loop
      vertex 129.544 -128.59 -3
      vertex 129.544 -128.59 0
      vertex 129.427 -128.763 0
    endloop
  endfacet
  facet normal 0.866186 -0.499722 0
    outer loop
      vertex 129.649 -128.408 -3
      vertex 129.544 -128.59 0
      vertex 129.544 -128.59 -3
    endloop
  endfacet
  facet normal 0.866186 -0.499722 0
    outer loop
      vertex 129.649 -128.408 -3
      vertex 129.649 -128.408 0
      vertex 129.544 -128.59 0
    endloop
  endfacet
  facet normal 0.898217 -0.439553 0
    outer loop
      vertex 129.741 -128.22 -3
      vertex 129.649 -128.408 0
      vertex 129.649 -128.408 -3
    endloop
  endfacet
  facet normal 0.898217 -0.439553 0
    outer loop
      vertex 129.741 -128.22 -3
      vertex 129.741 -128.22 0
      vertex 129.649 -128.408 0
    endloop
  endfacet
  facet normal 0.927816 -0.373039 0
    outer loop
      vertex 129.819 -128.026 -3
      vertex 129.741 -128.22 0
      vertex 129.741 -128.22 -3
    endloop
  endfacet
  facet normal 0.927816 -0.373039 0
    outer loop
      vertex 129.819 -128.026 -3
      vertex 129.819 -128.026 0
      vertex 129.741 -128.22 0
    endloop
  endfacet
  facet normal 0.950577 -0.31049 0
    outer loop
      vertex 129.884 -127.827 -3
      vertex 129.819 -128.026 0
      vertex 129.819 -128.026 -3
    endloop
  endfacet
  facet normal 0.950577 -0.31049 0
    outer loop
      vertex 129.884 -127.827 -3
      vertex 129.884 -127.827 0
      vertex 129.819 -128.026 0
    endloop
  endfacet
  facet normal 0.970981 -0.239158 0
    outer loop
      vertex 129.934 -127.624 -3
      vertex 129.884 -127.827 0
      vertex 129.884 -127.827 -3
    endloop
  endfacet
  facet normal 0.970981 -0.239158 0
    outer loop
      vertex 129.934 -127.624 -3
      vertex 129.934 -127.624 0
      vertex 129.884 -127.827 0
    endloop
  endfacet
  facet normal 0.98425 -0.176783 0
    outer loop
      vertex 129.971 -127.418 -3
      vertex 129.934 -127.624 0
      vertex 129.934 -127.624 -3
    endloop
  endfacet
  facet normal 0.98425 -0.176783 0
    outer loop
      vertex 129.971 -127.418 -3
      vertex 129.971 -127.418 0
      vertex 129.934 -127.624 0
    endloop
  endfacet
  facet normal 0.994505 -0.104685 0
    outer loop
      vertex 129.993 -127.209 -3
      vertex 129.971 -127.418 0
      vertex 129.971 -127.418 -3
    endloop
  endfacet
  facet normal 0.994505 -0.104685 0
    outer loop
      vertex 129.993 -127.209 -3
      vertex 129.993 -127.209 0
      vertex 129.971 -127.418 0
    endloop
  endfacet
  facet normal 0.99944 -0.0334741 0
    outer loop
      vertex 130 -127 -3
      vertex 129.993 -127.209 0
      vertex 129.993 -127.209 -3
    endloop
  endfacet
  facet normal 0.99944 -0.0334741 0
    outer loop
      vertex 130 -127 -3
      vertex 130 -127 0
      vertex 129.993 -127.209 0
    endloop
  endfacet
  facet normal 1 0 0
    outer loop
      vertex 130 127 -3
      vertex 130 -127 0
      vertex 130 -127 -3
    endloop
  endfacet
  facet normal 1 0 -0
    outer loop
      vertex 130 127 -3
      vertex 130 127 0
      vertex 130 -127 0
    endloop
  endfacet
  facet normal 0.99944 0.0334741 0
    outer loop
      vertex 129.993 127.209 -3
      vertex 130 127 0
      vertex 130 127 -3
    endloop
  endfacet
  facet normal 0.99944 0.0334741 -0
    outer loop
      vertex 129.993 127.209 -3
      vertex 129.993 127.209 0
      vertex 130 127 0
    endloop
  endfacet
  facet normal 0.994505 0.104685 0
    outer loop
      vertex 129.971 127.418 -3
      vertex 129.993 127.209 0
      vertex 129.993 127.209 -3
    endloop
  endfacet
  facet normal 0.994505 0.104685 -0
    outer loop
      vertex 129.971 127.418 -3
      vertex 129.971 127.418 0
      vertex 129.993 127.209 0
    endloop
  endfacet
  facet normal 0.98425 0.176783 0
    outer loop
      vertex 129.934 127.624 -3
      vertex 129.971 127.418 0
      vertex 129.971 127.418 -3
    endloop
  endfacet
  facet normal 0.98425 0.176783 -0
    outer loop
      vertex 129.934 127.624 -3
      vertex 129.934 127.624 0
      vertex 129.971 127.418 0
    endloop
  endfacet
  facet normal 0.970981 0.239158 0
    outer loop
      vertex 129.884 127.827 -3
      vertex 129.934 127.624 0
      vertex 129.934 127.624 -3
    endloop
  endfacet
  facet normal 0.970981 0.239158 -0
    outer loop
      vertex 129.884 127.827 -3
      vertex 129.884 127.827 0
      vertex 129.934 127.624 0
    endloop
  endfacet
  facet normal 0.950577 0.31049 0
    outer loop
      vertex 129.819 128.026 -3
      vertex 129.884 127.827 0
      vertex 129.884 127.827 -3
    endloop
  endfacet
  facet normal 0.950577 0.31049 -0
    outer loop
      vertex 129.819 128.026 -3
      vertex 129.819 128.026 0
      vertex 129.884 127.827 0
    endloop
  endfacet
  facet normal 0.927816 0.373039 0
    outer loop
      vertex 129.741 128.22 -3
      vertex 129.819 128.026 0
      vertex 129.819 128.026 -3
    endloop
  endfacet
  facet normal 0.927816 0.373039 -0
    outer loop
      vertex 129.741 128.22 -3
      vertex 129.741 128.22 0
      vertex 129.819 128.026 0
    endloop
  endfacet
  facet normal 0.898217 0.439553 0
    outer loop
      vertex 129.649 128.408 -3
      vertex 129.741 128.22 0
      vertex 129.741 128.22 -3
    endloop
  endfacet
  facet normal 0.898217 0.439553 -0
    outer loop
      vertex 129.649 128.408 -3
      vertex 129.649 128.408 0
      vertex 129.741 128.22 0
    endloop
  endfacet
  facet normal 0.866186 0.499722 0
    outer loop
      vertex 129.544 128.59 -3
      vertex 129.649 128.408 0
      vertex 129.649 128.408 -3
    endloop
  endfacet
  facet normal 0.866186 0.499722 -0
    outer loop
      vertex 129.544 128.59 -3
      vertex 129.544 128.59 0
      vertex 129.649 128.408 0
    endloop
  endfacet
  facet normal 0.828349 0.560213 0
    outer loop
      vertex 129.427 128.763 -3
      vertex 129.544 128.59 0
      vertex 129.544 128.59 -3
    endloop
  endfacet
  facet normal 0.828349 0.560213 -0
    outer loop
      vertex 129.427 128.763 -3
      vertex 129.427 128.763 0
      vertex 129.544 128.59 0
    endloop
  endfacet
  facet normal 0.787807 0.615922 0
    outer loop
      vertex 129.298 128.928 -3
      vertex 129.427 128.763 0
      vertex 129.427 128.763 -3
    endloop
  endfacet
  facet normal 0.787807 0.615922 -0
    outer loop
      vertex 129.298 128.928 -3
      vertex 129.298 128.928 0
      vertex 129.427 128.763 0
    endloop
  endfacet
  facet normal 0.744242 0.66791 0
    outer loop
      vertex 129.158 129.084 -3
      vertex 129.298 128.928 0
      vertex 129.298 128.928 -3
    endloop
  endfacet
  facet normal 0.744242 0.66791 -0
    outer loop
      vertex 129.158 129.084 -3
      vertex 129.158 129.084 0
      vertex 129.298 128.928 0
    endloop
  endfacet
  facet normal 0.692631 0.721292 0
    outer loop
      vertex 129.007 129.229 -3
      vertex 129.158 129.084 0
      vertex 129.158 129.084 -3
    endloop
  endfacet
  facet normal 0.692631 0.721292 -0
    outer loop
      vertex 129.007 129.229 -3
      vertex 129.007 129.229 0
      vertex 129.158 129.084 0
    endloop
  endfacet
  facet normal 0.644871 0.764291 0
    outer loop
      vertex 128.847 129.364 -3
      vertex 129.007 129.229 0
      vertex 129.007 129.229 -3
    endloop
  endfacet
  facet normal 0.644871 0.764291 -0
    outer loop
      vertex 128.847 129.364 -3
      vertex 128.847 129.364 0
      vertex 129.007 129.229 0
    endloop
  endfacet
  facet normal 0.588456 0.808529 0
    outer loop
      vertex 128.678 129.487 -3
      vertex 128.847 129.364 0
      vertex 128.847 129.364 -3
    endloop
  endfacet
  facet normal 0.588456 0.808529 -0
    outer loop
      vertex 128.678 129.487 -3
      vertex 128.678 129.487 0
      vertex 128.847 129.364 0
    endloop
  endfacet
  facet normal 0.529142 0.848533 0
    outer loop
      vertex 128.5 129.598 -3
      vertex 128.678 129.487 0
      vertex 128.678 129.487 -3
    endloop
  endfacet
  facet normal 0.529142 0.848533 -0
    outer loop
      vertex 128.5 129.598 -3
      vertex 128.5 129.598 0
      vertex 128.678 129.487 0
    endloop
  endfacet
  facet normal 0.468107 0.883672 0
    outer loop
      vertex 128.315 129.696 -3
      vertex 128.5 129.598 0
      vertex 128.5 129.598 -3
    endloop
  endfacet
  facet normal 0.468107 0.883672 -0
    outer loop
      vertex 128.315 129.696 -3
      vertex 128.315 129.696 0
      vertex 128.5 129.598 0
    endloop
  endfacet
  facet normal 0.410563 0.911832 0
    outer loop
      vertex 128.124 129.782 -3
      vertex 128.315 129.696 0
      vertex 128.315 129.696 -3
    endloop
  endfacet
  facet normal 0.410563 0.911832 -0
    outer loop
      vertex 128.124 129.782 -3
      vertex 128.124 129.782 0
      vertex 128.315 129.696 0
    endloop
  endfacet
  facet normal 0.339058 0.940766 0
    outer loop
      vertex 127.927 129.853 -3
      vertex 128.124 129.782 0
      vertex 128.124 129.782 -3
    endloop
  endfacet
  facet normal 0.339058 0.940766 -0
    outer loop
      vertex 127.927 129.853 -3
      vertex 127.927 129.853 0
      vertex 128.124 129.782 0
    endloop
  endfacet
  facet normal 0.277246 0.960799 0
    outer loop
      vertex 127.726 129.911 -3
      vertex 127.927 129.853 0
      vertex 127.927 129.853 -3
    endloop
  endfacet
  facet normal 0.277246 0.960799 -0
    outer loop
      vertex 127.726 129.911 -3
      vertex 127.726 129.911 0
      vertex 127.927 129.853 0
    endloop
  endfacet
  facet normal 0.205289 0.978701 0
    outer loop
      vertex 127.521 129.954 -3
      vertex 127.726 129.911 0
      vertex 127.726 129.911 -3
    endloop
  endfacet
  facet normal 0.205289 0.978701 -0
    outer loop
      vertex 127.521 129.954 -3
      vertex 127.521 129.954 0
      vertex 127.726 129.911 0
    endloop
  endfacet
  facet normal 0.143429 0.989661 0
    outer loop
      vertex 127.314 129.984 -3
      vertex 127.521 129.954 0
      vertex 127.521 129.954 -3
    endloop
  endfacet
  facet normal 0.143429 0.989661 -0
    outer loop
      vertex 127.314 129.984 -3
      vertex 127.314 129.984 0
      vertex 127.521 129.954 0
    endloop
  endfacet
  facet normal 0.0668359 0.997764 0
    outer loop
      vertex 127.105 129.998 -3
      vertex 127.314 129.984 0
      vertex 127.314 129.984 -3
    endloop
  endfacet
  facet normal 0.0668359 0.997764 -0
    outer loop
      vertex 127.105 129.998 -3
      vertex 127.105 129.998 0
      vertex 127.314 129.984 0
    endloop
  endfacet
  facet normal 0 1 0
    outer loop
      vertex 127.002 129.998 -3
      vertex 127.105 129.998 0
      vertex 127.105 129.998 -3
    endloop
  endfacet
  facet normal 0 1 0
    outer loop
      vertex 127.002 129.998 -3
      vertex 127.002 129.998 0
      vertex 127.105 129.998 0
    endloop
  endfacet
  facet normal 0.707107 0.707107 0
    outer loop
      vertex 127 130 -3
      vertex 127.002 129.998 0
      vertex 127.002 129.998 -3
    endloop
  endfacet
  facet normal 0.707107 0.707107 -0
    outer loop
      vertex 127 130 -3
      vertex 127 130 0
      vertex 127.002 129.998 0
    endloop
  endfacet
  facet normal 0 1 0
    outer loop
      vertex -127 130 -3
      vertex 127 130 0
      vertex 127 130 -3
    endloop
  endfacet
  facet normal 0 1 0
    outer loop
      vertex -127 130 -3
      vertex -127 130 0
      vertex 127 130 0
    endloop
  endfacet
  facet normal -0.707107 0.707107 0
    outer loop
      vertex -127.002 129.998 -3
      vertex -127 130 0
      vertex -127 130 -3
    endloop
  endfacet
  facet normal -0.707107 0.707107 0
    outer loop
      vertex -127.002 129.998 -3
      vertex -127.002 129.998 0
      vertex -127 130 0
    endloop
  endfacet
  facet normal 0 1 0
    outer loop
      vertex -127.105 129.998 -3
      vertex -127.002 129.998 0
      vertex -127.002 129.998 -3
    endloop
  endfacet
  facet normal 0 1 0
    outer loop
      vertex -127.105 129.998 -3
      vertex -127.105 129.998 0
      vertex -127.002 129.998 0
    endloop
  endfacet
  facet normal -0.0668359 0.997764 0
    outer loop
      vertex -127.314 129.984 -3
      vertex -127.105 129.998 0
      vertex -127.105 129.998 -3
    endloop
  endfacet
  facet normal -0.0668359 0.997764 0
    outer loop
      vertex -127.314 129.984 -3
      vertex -127.314 129.984 0
      vertex -127.105 129.998 0
    endloop
  endfacet
  facet normal -0.143429 0.989661 0
    outer loop
      vertex -127.521 129.954 -3
      vertex -127.314 129.984 0
      vertex -127.314 129.984 -3
    endloop
  endfacet
  facet normal -0.143429 0.989661 0
    outer loop
      vertex -127.521 129.954 -3
      vertex -127.521 129.954 0
      vertex -127.314 129.984 0
    endloop
  endfacet
  facet normal -0.205289 0.978701 0
    outer loop
      vertex -127.726 129.911 -3
      vertex -127.521 129.954 0
      vertex -127.521 129.954 -3
    endloop
  endfacet
  facet normal -0.205289 0.978701 0
    outer loop
      vertex -127.726 129.911 -3
      vertex -127.726 129.911 0
      vertex -127.521 129.954 0
    endloop
  endfacet
  facet normal -0.277246 0.960799 0
    outer loop
      vertex -127.927 129.853 -3
      vertex -127.726 129.911 0
      vertex -127.726 129.911 -3
    endloop
  endfacet
  facet normal -0.277246 0.960799 0
    outer loop
      vertex -127.927 129.853 -3
      vertex -127.927 129.853 0
      vertex -127.726 129.911 0
    endloop
  endfacet
  facet normal -0.339058 0.940766 0
    outer loop
      vertex -128.124 129.782 -3
      vertex -127.927 129.853 0
      vertex -127.927 129.853 -3
    endloop
  endfacet
  facet normal -0.339058 0.940766 0
    outer loop
      vertex -128.124 129.782 -3
      vertex -128.124 129.782 0
      vertex -127.927 129.853 0
    endloop
  endfacet
  facet normal -0.410563 0.911832 0
    outer loop
      vertex -128.315 129.696 -3
      vertex -128.124 129.782 0
      vertex -128.124 129.782 -3
    endloop
  endfacet
  facet normal -0.410563 0.911832 0
    outer loop
      vertex -128.315 129.696 -3
      vertex -128.315 129.696 0
      vertex -128.124 129.782 0
    endloop
  endfacet
  facet normal -0.468107 0.883672 0
    outer loop
      vertex -128.5 129.598 -3
      vertex -128.315 129.696 0
      vertex -128.315 129.696 -3
    endloop
  endfacet
  facet normal -0.468107 0.883672 0
    outer loop
      vertex -128.5 129.598 -3
      vertex -128.5 129.598 0
      vertex -128.315 129.696 0
    endloop
  endfacet
  facet normal -0.529142 0.848533 0
    outer loop
      vertex -128.678 129.487 -3
      vertex -128.5 129.598 0
      vertex -128.5 129.598 -3
    endloop
  endfacet
  facet normal -0.529142 0.848533 0
    outer loop
      vertex -128.678 129.487 -3
      vertex -128.678 129.487 0
      vertex -128.5 129.598 0
    endloop
  endfacet
  facet normal -0.588456 0.808529 0
    outer loop
      vertex -128.847 129.364 -3
      vertex -128.678 129.487 0
      vertex -128.678 129.487 -3
    endloop
  endfacet
  facet normal -0.588456 0.808529 0
    outer loop
      vertex -128.847 129.364 -3
      vertex -128.847 129.364 0
      vertex -128.678 129.487 0
    endloop
  endfacet
  facet normal -0.644871 0.764291 0
    outer loop
      vertex -129.007 129.229 -3
      vertex -128.847 129.364 0
      vertex -128.847 129.364 -3
    endloop
  endfacet
  facet normal -0.644871 0.764291 0
    outer loop
      vertex -129.007 129.229 -3
      vertex -129.007 129.229 0
      vertex -128.847 129.364 0
    endloop
  endfacet
  facet normal -0.692631 0.721292 0
    outer loop
      vertex -129.158 129.084 -3
      vertex -129.007 129.229 0
      vertex -129.007 129.229 -3
    endloop
  endfacet
  facet normal -0.692631 0.721292 0
    outer loop
      vertex -129.158 129.084 -3
      vertex -129.158 129.084 0
      vertex -129.007 129.229 0
    endloop
  endfacet
  facet normal -0.744242 0.66791 0
    outer loop
      vertex -129.298 128.928 -3
      vertex -129.158 129.084 0
      vertex -129.158 129.084 -3
    endloop
  endfacet
  facet normal -0.744242 0.66791 0
    outer loop
      vertex -129.298 128.928 -3
      vertex -129.298 128.928 0
      vertex -129.158 129.084 0
    endloop
  endfacet
  facet normal -0.787807 0.615922 0
    outer loop
      vertex -129.427 128.763 -3
      vertex -129.298 128.928 0
      vertex -129.298 128.928 -3
    endloop
  endfacet
  facet normal -0.787807 0.615922 0
    outer loop
      vertex -129.427 128.763 -3
      vertex -129.427 128.763 0
      vertex -129.298 128.928 0
    endloop
  endfacet
  facet normal -0.828349 0.560213 0
    outer loop
      vertex -129.544 128.59 -3
      vertex -129.427 128.763 0
      vertex -129.427 128.763 -3
    endloop
  endfacet
  facet normal -0.828349 0.560213 0
    outer loop
      vertex -129.544 128.59 -3
      vertex -129.544 128.59 0
      vertex -129.427 128.763 0
    endloop
  endfacet
  facet normal -0.866186 0.499722 0
    outer loop
      vertex -129.649 128.408 -3
      vertex -129.544 128.59 0
      vertex -129.544 128.59 -3
    endloop
  endfacet
  facet normal -0.866186 0.499722 0
    outer loop
      vertex -129.649 128.408 -3
      vertex -129.649 128.408 0
      vertex -129.544 128.59 0
    endloop
  endfacet
  facet normal -0.898217 0.439553 0
    outer loop
      vertex -129.741 128.22 -3
      vertex -129.649 128.408 0
      vertex -129.649 128.408 -3
    endloop
  endfacet
  facet normal -0.898217 0.439553 0
    outer loop
      vertex -129.741 128.22 -3
      vertex -129.741 128.22 0
      vertex -129.649 128.408 0
    endloop
  endfacet
  facet normal -0.927816 0.373039 0
    outer loop
      vertex -129.819 128.026 -3
      vertex -129.741 128.22 0
      vertex -129.741 128.22 -3
    endloop
  endfacet
  facet normal -0.927816 0.373039 0
    outer loop
      vertex -129.819 128.026 -3
      vertex -129.819 128.026 0
      vertex -129.741 128.22 0
    endloop
  endfacet
  facet normal -0.950577 0.31049 0
    outer loop
      vertex -129.884 127.827 -3
      vertex -129.819 128.026 0
      vertex -129.819 128.026 -3
    endloop
  endfacet
  facet normal -0.950577 0.31049 0
    outer loop
      vertex -129.884 127.827 -3
      vertex -129.884 127.827 0
      vertex -129.819 128.026 0
    endloop
  endfacet
  facet normal -0.970981 0.239158 0
    outer loop
      vertex -129.934 127.624 -3
      vertex -129.884 127.827 0
      vertex -129.884 127.827 -3
    endloop
  endfacet
  facet normal -0.970981 0.239158 0
    outer loop
      vertex -129.934 127.624 -3
      vertex -129.934 127.624 0
      vertex -129.884 127.827 0
    endloop
  endfacet
  facet normal -0.98425 0.176783 0
    outer loop
      vertex -129.971 127.418 -3
      vertex -129.934 127.624 0
      vertex -129.934 127.624 -3
    endloop
  endfacet
  facet normal -0.98425 0.176783 0
    outer loop
      vertex -129.971 127.418 -3
      vertex -129.971 127.418 0
      vertex -129.934 127.624 0
    endloop
  endfacet
  facet normal -0.994505 0.104685 0
    outer loop
      vertex -129.993 127.209 -3
      vertex -129.971 127.418 0
      vertex -129.971 127.418 -3
    endloop
  endfacet
  facet normal -0.994505 0.104685 0
    outer loop
      vertex -129.993 127.209 -3
      vertex -129.993 127.209 0
      vertex -129.971 127.418 0
    endloop
  endfacet
  facet normal -0.99944 0.0334741 0
    outer loop
      vertex -130 127 -3
      vertex -129.993 127.209 0
      vertex -129.993 127.209 -3
    endloop
  endfacet
  facet normal -0.99944 0.0334741 0
    outer loop
      vertex -130 127 -3
      vertex -130 127 0
      vertex -129.993 127.209 0
    endloop
  endfacet
  facet normal -1 0 0
    outer loop
      vertex -130 -127 -3
      vertex -130 127 0
      vertex -130 127 -3
    endloop
  endfacet
  facet normal -1 0 0
    outer loop
      vertex -130 -127 -3
      vertex -130 -127 0
      vertex -130 127 0
    endloop
  endfacet
  facet normal -0.99944 -0.0334741 0
    outer loop
      vertex -129.993 -127.209 -3
      vertex -130 -127 0
      vertex -130 -127 -3
    endloop
  endfacet
  facet normal -0.99944 -0.0334741 0
    outer loop
      vertex -129.993 -127.209 -3
      vertex -129.993 -127.209 0
      vertex -130 -127 0
    endloop
  endfacet
  facet normal -0.994505 -0.104685 0
    outer loop
      vertex -129.971 -127.418 -3
      vertex -129.993 -127.209 0
      vertex -129.993 -127.209 -3
    endloop
  endfacet
  facet normal -0.994505 -0.104685 0
    outer loop
      vertex -129.971 -127.418 -3
      vertex -129.971 -127.418 0
      vertex -129.993 -127.209 0
    endloop
  endfacet
  facet normal -0.98425 -0.176783 0
    outer loop
      vertex -129.934 -127.624 -3
      vertex -129.971 -127.418 0
      vertex -129.971 -127.418 -3
    endloop
  endfacet
  facet normal -0.98425 -0.176783 0
    outer loop
      vertex -129.934 -127.624 -3
      vertex -129.934 -127.624 0
      vertex -129.971 -127.418 0
    endloop
  endfacet
  facet normal -0.970981 -0.239158 0
    outer loop
      vertex -129.884 -127.827 -3
      vertex -129.934 -127.624 0
      vertex -129.934 -127.624 -3
    endloop
  endfacet
  facet normal -0.970981 -0.239158 0
    outer loop
      vertex -129.884 -127.827 -3
      vertex -129.884 -127.827 0
      vertex -129.934 -127.624 0
    endloop
  endfacet
  facet normal -0.950577 -0.31049 0
    outer loop
      vertex -129.819 -128.026 -3
      vertex -129.884 -127.827 0
      vertex -129.884 -127.827 -3
    endloop
  endfacet
  facet normal -0.950577 -0.31049 0
    outer loop
      vertex -129.819 -128.026 -3
      vertex -129.819 -128.026 0
      vertex -129.884 -127.827 0
    endloop
  endfacet
  facet normal -0.927816 -0.373039 0
    outer loop
      vertex -129.741 -128.22 -3
      vertex -129.819 -128.026 0
      vertex -129.819 -128.026 -3
    endloop
  endfacet
  facet normal -0.927816 -0.373039 0
    outer loop
      vertex -129.741 -128.22 -3
      vertex -129.741 -128.22 0
      vertex -129.819 -128.026 0
    endloop
  endfacet
  facet normal -0.898217 -0.439553 0
    outer loop
      vertex -129.649 -128.408 -3
      vertex -129.741 -128.22 0
      vertex -129.741 -128.22 -3
    endloop
  endfacet
  facet normal -0.898217 -0.439553 0
    outer loop
      vertex -129.649 -128.408 -3
      vertex -129.649 -128.408 0
      vertex -129.741 -128.22 0
    endloop
  endfacet
  facet normal -0.866186 -0.499722 0
    outer loop
      vertex -129.544 -128.59 -3
      vertex -129.649 -128.408 0
      vertex -129.649 -128.408 -3
    endloop
  endfacet
  facet normal -0.866186 -0.499722 0
    outer loop
      vertex -129.544 -128.59 -3
      vertex -129.544 -128.59 0
      vertex -129.649 -128.408 0
    endloop
  endfacet
  facet normal -0.828349 -0.560213 0
    outer loop
      vertex -129.427 -128.763 -3
      vertex -129.544 -128.59 0
      vertex -129.544 -128.59 -3
    endloop
  endfacet
  facet normal -0.828349 -0.560213 0
    outer loop
      vertex -129.427 -128.763 -3
      vertex -129.427 -128.763 0
      vertex -129.544 -128.59 0
    endloop
  endfacet
  facet normal -0.787807 -0.615922 0
    outer loop
      vertex -129.298 -128.928 -3
      vertex -129.427 -128.763 0
      vertex -129.427 -128.763 -3
    endloop
  endfacet
  facet normal -0.787807 -0.615922 0
    outer loop
      vertex -129.298 -128.928 -3
      vertex -129.298 -128.928 0
      vertex -129.427 -128.763 0
    endloop
  endfacet
  facet normal -0.744242 -0.66791 0
    outer loop
      vertex -129.158 -129.084 -3
      vertex -129.298 -128.928 0
      vertex -129.298 -128.928 -3
    endloop
  endfacet
  facet normal -0.744242 -0.66791 0
    outer loop
      vertex -129.158 -129.084 -3
      vertex -129.158 -129.084 0
      vertex -129.298 -128.928 0
    endloop
  endfacet
  facet normal -0.692631 -0.721292 0
    outer loop
      vertex -129.007 -129.229 -3
      vertex -129.158 -129.084 0
      vertex -129.158 -129.084 -3
    endloop
  endfacet
  facet normal -0.692631 -0.721292 0
    outer loop
      vertex -129.007 -129.229 -3
      vertex -129.007 -129.229 0
      vertex -129.158 -129.084 0
    endloop
  endfacet
  facet normal -0.644871 -0.764291 0
    outer loop
      vertex -128.847 -129.364 -3
      vertex -129.007 -129.229 0
      vertex -129.007 -129.229 -3
    endloop
  endfacet
  facet normal -0.644871 -0.764291 0
    outer loop
      vertex -128.847 -129.364 -3
      vertex -128.847 -129.364 0
      vertex -129.007 -129.229 0
    endloop
  endfacet
  facet normal -0.588456 -0.808529 0
    outer loop
      vertex -128.678 -129.487 -3
      vertex -128.847 -129.364 0
      vertex -128.847 -129.364 -3
    endloop
  endfacet
  facet normal -0.588456 -0.808529 0
    outer loop
      vertex -128.678 -129.487 -3
      vertex -128.678 -129.487 0
      vertex -128.847 -129.364 0
    endloop
  endfacet
  facet normal -0.529142 -0.848533 0
    outer loop
      vertex -128.5 -129.598 -3
      vertex -128.678 -129.487 0
      vertex -128.678 -129.487 -3
    endloop
  endfacet
  facet normal -0.529142 -0.848533 0
    outer loop
      vertex -128.5 -129.598 -3
      vertex -128.5 -129.598 0
      vertex -128.678 -129.487 0
    endloop
  endfacet
  facet normal -0.468107 -0.883672 0
    outer loop
      vertex -128.315 -129.696 -3
      vertex -128.5 -129.598 0
      vertex -128.5 -129.598 -3
    endloop
  endfacet
  facet normal -0.468107 -0.883672 0
    outer loop
      vertex -128.315 -129.696 -3
      vertex -128.315 -129.696 0
      vertex -128.5 -129.598 0
    endloop
  endfacet
  facet normal -0.410563 -0.911832 0
    outer loop
      vertex -128.124 -129.782 -3
      vertex -128.315 -129.696 0
      vertex -128.315 -129.696 -3
    endloop
  endfacet
  facet normal -0.410563 -0.911832 0
    outer loop
      vertex -128.124 -129.782 -3
      vertex -128.124 -129.782 0
      vertex -128.315 -129.696 0
    endloop
  endfacet
  facet normal -0.339058 -0.940766 0
    outer loop
      vertex -127.927 -129.853 -3
      vertex -128.124 -129.782 0
      vertex -128.124 -129.782 -3
    endloop
  endfacet
  facet normal -0.339058 -0.940766 0
    outer loop
      vertex -127.927 -129.853 -3
      vertex -127.927 -129.853 0
      vertex -128.124 -129.782 0
    endloop
  endfacet
  facet normal -0.277246 -0.960799 0
    outer loop
      vertex -127.726 -129.911 -3
      vertex -127.927 -129.853 0
      vertex -127.927 -129.853 -3
    endloop
  endfacet
  facet normal -0.277246 -0.960799 0
    outer loop
      vertex -127.726 -129.911 -3
      vertex -127.726 -129.911 0
      vertex -127.927 -129.853 0
    endloop
  endfacet
  facet normal -0.205289 -0.978701 0
    outer loop
      vertex -127.521 -129.954 -3
      vertex -127.726 -129.911 0
      vertex -127.726 -129.911 -3
    endloop
  endfacet
  facet normal -0.205289 -0.978701 0
    outer loop
      vertex -127.521 -129.954 -3
      vertex -127.521 -129.954 0
      vertex -127.726 -129.911 0
    endloop
  endfacet
  facet normal -0.143429 -0.989661 0
    outer loop
      vertex -127.314 -129.984 -3
      vertex -127.521 -129.954 0
      vertex -127.521 -129.954 -3
    endloop
  endfacet
  facet normal -0.143429 -0.989661 0
    outer loop
      vertex -127.314 -129.984 -3
      vertex -127.314 -129.984 0
      vertex -127.521 -129.954 0
    endloop
  endfacet
  facet normal -0.0668359 -0.997764 0
    outer loop
      vertex -127.105 -129.998 -3
      vertex -127.314 -129.984 0
      vertex -127.314 -129.984 -3
    endloop
  endfacet
  facet normal -0.0668359 -0.997764 0
    outer loop
      vertex -127.105 -129.998 -3
      vertex -127.105 -129.998 0
      vertex -127.314 -129.984 0
    endloop
  endfacet
  facet normal 0 -1 0
    outer loop
      vertex -127.002 -129.998 -3
      vertex -127.105 -129.998 0
      vertex -127.105 -129.998 -3
    endloop
  endfacet
  facet normal 0 -1 0
    outer loop
      vertex -127.002 -129.998 -3
      vertex -127.002 -129.998 0
      vertex -127.105 -129.998 0
    endloop
  endfacet
  facet normal -0.707107 -0.707107 0
    outer loop
      vertex -127 -130 -3
      vertex -127.002 -129.998 0
      vertex -127.002 -129.998 -3
    endloop
  endfacet
  facet normal -0.707107 -0.707107 0
    outer loop
      vertex -127 -130 -3
      vertex -127 -130 0
      vertex -127.002 -129.998 0
    endloop
  endfacet
  facet normal 0 -1 0
    outer loop
      vertex 127 -130 -3
      vertex -127 -130 0
      vertex -127 -130 -3
    endloop
  endfacet
  facet normal 0 -1 0
    outer loop
      vertex 127 -130 -3
      vertex 127 -130 0
      vertex -127 -130 0
    endloop
  endfacet
  facet normal 0.707107 -0.707107 0
    outer loop
      vertex 127.002 -129.998 -3
      vertex 127 -130 0
      vertex 127 -130 -3
    endloop
  endfacet
  facet normal 0.707107 -0.707107 0
    outer loop
      vertex 127.002 -129.998 -3
      vertex 127.002 -129.998 0
      vertex 127 -130 0
    endloop
  endfacet
endsolid OpenSCAD_Model
