<?xml version="1.0" standalone="no"?><!DOCTYPE svg PUBLIC "-//W3C//DTD SVG 1.1//EN" "http://www.w3.org/Graphics/SVG/1.1/DTD/svg11.dtd"><svg t="1740057651953" class="icon" viewBox="0 0 1024 1024" version="1.1" xmlns="http://www.w3.org/2000/svg" p-id="1463" xmlns:xlink="http://www.w3.org/1999/xlink" width="200" height="200"><path d="M910.222222 0a113.777778 113.777778 0 0 1 113.777778 113.777778v796.444444a113.777778 113.777778 0 0 1-113.777778 113.777778H113.777778a113.777778 113.777778 0 0 1-113.777778-113.777778V113.777778a113.777778 113.777778 0 0 1 113.777778-113.777778h796.444444z m-114.915555 320.739556a45.909333 45.909333 0 0 0-65.080889 0l-310.897778 310.897777-135.907556-135.964444a45.909333 45.909333 0 0 0-65.080888 0 45.909333 45.909333 0 0 0 0 65.137778l168.561777 168.448a45.909333 45.909333 0 0 0 65.080889 0l343.608889-343.552a45.738667 45.738667 0 0 0-0.284444-64.967111z" fill="#00AE42" p-id="1464"></path></svg>