<?xml version="1.0" encoding="utf-8"?>
<!-- Generator: Adobe Illustrator 24.3.0, SVG Export Plug-In . SVG Version: 6.00 Build 0)  -->
<svg version="1.0" id="Layer_1" xmlns="http://www.w3.org/2000/svg" xmlns:xlink="http://www.w3.org/1999/xlink" x="0px" y="0px"
	 viewBox="0 0 128 128" enable-background="new 0 0 128 128" xml:space="preserve">
<g id="ADD">
	<path fill="#FFFFFF" d="M72.3,117.5H10.5v-75h75v23.27c1.61-0.56,3.28-0.99,5-1.29V41.04l27-27V72.3c1.89,1.71,3.57,3.65,5,5.76V8
		c0-0.05-0.01-0.1-0.02-0.15c0-0.06-0.01-0.11-0.02-0.17c-0.03-0.22-0.08-0.43-0.15-0.62c0,0,0-0.01,0-0.01c0,0,0,0,0,0
		c-0.01-0.03-0.03-0.05-0.04-0.08c-0.05-0.11-0.11-0.21-0.17-0.31c-0.03-0.04-0.05-0.08-0.08-0.11c-0.06-0.08-0.13-0.16-0.2-0.24
		c-0.03-0.03-0.06-0.07-0.09-0.1c-0.09-0.09-0.19-0.17-0.3-0.25c-0.01-0.01-0.02-0.02-0.04-0.03c-0.12-0.08-0.24-0.15-0.38-0.2
		c-0.04-0.02-0.09-0.03-0.13-0.05c-0.1-0.04-0.2-0.07-0.3-0.09c-0.05-0.01-0.09-0.02-0.14-0.03c-0.15-0.03-0.3-0.05-0.45-0.05H48
		c-0.57,0-1.12,0.19-1.56,0.55l-40,32c-0.03,0.03-0.06,0.06-0.09,0.09c-0.07,0.06-0.13,0.12-0.19,0.19
		c-0.05,0.06-0.1,0.12-0.15,0.18c-0.05,0.07-0.09,0.13-0.14,0.2c-0.04,0.07-0.08,0.14-0.12,0.21c-0.03,0.07-0.07,0.15-0.09,0.22
		c-0.03,0.08-0.05,0.16-0.07,0.24c-0.02,0.08-0.04,0.15-0.05,0.23c-0.01,0.09-0.02,0.18-0.03,0.27c0,0.04-0.01,0.08-0.01,0.13v80
		c0,1.38,1.12,2.5,2.5,2.5h70.06C75.95,121.07,74.01,119.39,72.3,117.5z M48.88,10.5h65.09l-27,27H15.13L48.88,10.5z"/>
	<g>
		<path fill="#ED6B21" d="M96,69.5c-14.61,0-26.5,11.89-26.5,26.5s11.89,26.5,26.5,26.5s26.5-11.89,26.5-26.5S110.61,69.5,96,69.5z
			 M96,117.5c-11.86,0-21.5-9.64-21.5-21.5S84.14,74.5,96,74.5s21.5,9.64,21.5,21.5S107.86,117.5,96,117.5z"/>
		<path fill="#ED6B21" d="M112,93.5H98.5V80c0-1.38-1.12-2.5-2.5-2.5s-2.5,1.12-2.5,2.5v13.5H80c-1.38,0-2.5,1.12-2.5,2.5
			s1.12,2.5,2.5,2.5h13.5V112c0,1.38,1.12,2.5,2.5,2.5s2.5-1.12,2.5-2.5V98.5H112c1.38,0,2.5-1.12,2.5-2.5S113.38,93.5,112,93.5z"/>
	</g>
</g>
</svg>
