<?xml version="1.0" encoding="utf-8"?>
<!-- Generator: Adobe Illustrator 23.0.1, SVG Export Plug-In . SVG Version: 6.00 Build 0)  -->
<svg version="1.0" id="Layer_1" xmlns="http://www.w3.org/2000/svg" xmlns:xlink="http://www.w3.org/1999/xlink" x="0px" y="0px"
	 viewBox="0 0 128 128" enable-background="new 0 0 128 128" xml:space="preserve">
<path fill="#FFFFFF" d="M87.29,22.62H34.71c-1.39,0-3.14,0.69-4.16,1.63L9.81,43.46c-1.05,0.98-1.82,2.73-1.82,4.16v54.31
	c0,1.9,1.55,3.45,3.45,3.45h55.17c1.4,0,3.15-0.7,4.16-1.67l12.41-11.83c0.69-0.66,0.72-1.75,0.06-2.44s-1.75-0.71-2.44-0.06
	L70.05,99.63v-53.2c0.26-0.19,0.51-0.39,0.72-0.61L87.3,28.29v33.12c0,0.35-0.02,0.64-0.04,0.85c-0.51,0.55-0.62,1.39-0.22,2.06
	c0.49,0.82,1.55,1.08,2.37,0.59l0.25-0.15c0.67-0.4,1.09-1.1,1.09-3.35V26.07C90.74,24.17,89.2,22.62,87.29,22.62z M11.44,47.62
	L11.44,47.62h55.17v54.31H11.44V47.62z M68.26,43.46c-0.33,0.35-1.18,0.71-1.65,0.71H14.12L32.9,26.78
	c0.37-0.35,1.31-0.71,1.82-0.71h49.94L68.26,43.46z"/>
<path id="_x2B__1_" fill="#ED6B21" d="M110.57,82.1c0,0.95-0.78,1.72-1.72,1.72h-4.31c-0.95,0-1.72,0.78-1.72,1.72v4.31
	c0,0.95-0.78,1.72-1.72,1.72h-4.31c-0.95,0-1.72-0.78-1.72-1.72v-4.31c0-0.95-0.78-1.72-1.72-1.72h-4.31
	c-0.95,0-1.72-0.78-1.72-1.72v-4.31c0-0.95,0.78-1.72,1.72-1.72h4.31c0.95,0,1.72-0.78,1.72-1.72v-4.31c0-0.95,0.78-1.72,1.72-1.72
	h4.31c0.95,0,1.72,0.78,1.72,1.72v4.31c0,0.95,0.78,1.72,1.72,1.72h4.31c0.95,0,1.72,0.78,1.72,1.72V82.1z M120.05,79.95
	c0-11.65-9.47-21.12-21.12-21.12S77.81,68.3,77.81,79.95s9.47,21.12,21.12,21.12S120.05,91.59,120.05,79.95z M116.6,79.95
	c0,9.74-7.93,17.67-17.67,17.67s-17.67-7.93-17.67-17.67s7.93-17.67,17.67-17.67S116.6,70.2,116.6,79.95z"/>
</svg>
