<?xml version="1.0" encoding="utf-8"?>
<!-- Generator: Adobe Illustrator 23.0.3, SVG Export Plug-In . SVG Version: 6.00 Build 0)  -->
<svg version="1.0" id="Layer_1" xmlns="http://www.w3.org/2000/svg" xmlns:xlink="http://www.w3.org/1999/xlink" x="0px" y="0px"
	 viewBox="0 0 16 16" enable-background="new 0 0 16 16" xml:space="preserve">
<g id="add_x5F_copies">
	<g>
		<path fill="#808080" d="M8,2c3.31,0,6,2.69,6,6s-2.69,6-6,6s-6-2.69-6-6S4.69,2,8,2 M8,1C4.13,1,1,4.13,1,8s3.13,7,7,7s7-3.13,7-7
			S11.87,1,8,1L8,1z"/>
	</g>
	<g>
		<path fill="#ED6B21" d="M12,8.75H4C3.59,8.75,3.25,8.41,3.25,8S3.59,7.25,4,7.25h8c0.41,0,0.75,0.34,0.75,0.75S12.41,8.75,12,8.75
			z"/>
	</g>
	<g>
		<path fill="#ED6B21" d="M8,12.75c-0.41,0-0.75-0.34-0.75-0.75V4c0-0.41,0.34-0.75,0.75-0.75S8.75,3.59,8.75,4v8
			C8.75,12.41,8.41,12.75,8,12.75z"/>
	</g>
</g>
</svg>
