<?xml version="1.0" encoding="utf-8"?>
<!-- Generator: Adobe Illustrator 23.0.3, SVG Export Plug-In . SVG Version: 6.00 Build 0)  -->
<svg version="1.0" id="Layer_1" xmlns="http://www.w3.org/2000/svg" xmlns:xlink="http://www.w3.org/1999/xlink" x="0px" y="0px"
	 viewBox="0 0 16 16" enable-background="new 0 0 16 16" xml:space="preserve">
<g id="add_x5F_part">
	<g>
		<path fill="#ED6B21" d="M14,5.5H8C7.72,5.5,7.5,5.28,7.5,5S7.72,4.5,8,4.5h6c0.28,0,0.5,0.22,0.5,0.5S14.28,5.5,14,5.5z"/>
	</g>
	<path fill="#808080" d="M10.98,9.78c-0.29,0-0.52,0.23-0.52,0.52v2.09v1.04c0,0.29-0.23,0.52-0.52,0.52H2.62
		c-0.29,0-0.53-0.24-0.53-0.53L2.04,6.12c0-0.14,0.05-0.27,0.15-0.37c0.1-0.1,0.23-0.15,0.37-0.15l3.19,0v0
		c0.29,0,0.52-0.23,0.52-0.52S6.04,4.55,5.75,4.55H3.66c-0.01,0-0.01,0-0.02,0l-1.08,0c-0.42,0-0.81,0.16-1.11,0.46
		C1.16,5.31,1,5.71,1,6.13l0.04,7.31C1.05,14.3,1.75,15,2.62,15h7.31c0.86,0,1.57-0.7,1.57-1.57v-1.04V10.3
		C11.5,10.01,11.27,9.78,10.98,9.78z"/>
</g>
</svg>
