<?xml version="1.0" encoding="utf-8"?>
<!-- Generator: Adobe Illustrator 23.0.3, SVG Export Plug-In . SVG Version: 6.00 Build 0)  -->
<svg version="1.0" id="Layer_1" xmlns="http://www.w3.org/2000/svg" xmlns:xlink="http://www.w3.org/1999/xlink" x="0px" y="0px"
	 viewBox="0 0 16 16" enable-background="new 0 0 16 16" xml:space="preserve">
<g id="advanced_x2B_">
	<path fill="#808080" d="M10.98,9.78c-0.29,0-0.52,0.23-0.52,0.52v2.09v1.04c0,0.29-0.23,0.52-0.52,0.52H2.62
		c-0.29,0-0.53-0.24-0.53-0.53L2.04,6.12c0-0.14,0.05-0.27,0.15-0.37c0.1-0.1,0.23-0.15,0.37-0.15l3.19,0v0
		c0.29,0,0.52-0.23,0.52-0.52S6.04,4.55,5.75,4.55H3.66c-0.01,0-0.01,0-0.02,0l-1.08,0c-0.42,0-0.81,0.16-1.11,0.46
		C1.16,5.31,1,5.71,1,6.13l0.04,7.31C1.05,14.3,1.75,15,2.62,15h7.31c0.86,0,1.57-0.7,1.57-1.57v-1.04V10.3
		C11.5,10.01,11.27,9.78,10.98,9.78z"/>
	<path fill="#ED6B21" d="M13.56,5.38c-0.01-0.13,0.06-0.33,0.15-0.43l0.13-0.15c0.09-0.1,0.12-0.29,0.07-0.42l-0.2-0.48
		c-0.05-0.13-0.21-0.24-0.35-0.25l-0.2-0.01c-0.14-0.01-0.32-0.1-0.41-0.2c-0.09-0.1-0.37-0.45-0.38-0.59l-0.01-0.2
		c-0.01-0.14-0.12-0.29-0.25-0.35l-0.48-0.2c-0.13-0.05-0.32-0.02-0.42,0.07L11.06,2.3c-0.1,0.09-0.3,0.16-0.44,0.15
		s-0.57-0.06-0.68-0.15L9.79,2.16C9.69,2.07,9.5,2.04,9.37,2.1L8.89,2.3C8.76,2.35,8.65,2.5,8.64,2.64l-0.01,0.2
		c-0.01,0.14-0.1,0.32-0.2,0.41c-0.1,0.09-0.45,0.37-0.59,0.38l-0.2,0.01C7.5,3.65,7.35,3.76,7.3,3.89L7.1,4.37
		C7.04,4.5,7.07,4.69,7.16,4.79L7.3,4.94c0.09,0.1,0.16,0.3,0.15,0.44C7.44,5.51,7.38,5.95,7.29,6.06L7.16,6.21
		C7.07,6.31,7.04,6.5,7.1,6.63l0.2,0.48C7.35,7.24,7.5,7.35,7.64,7.36l0.2,0.01c0.14,0.01,0.32,0.1,0.41,0.2
		c0.09,0.1,0.37,0.45,0.38,0.59l0.01,0.2C8.65,8.5,8.76,8.65,8.89,8.7l0.48,0.2C9.5,8.96,9.69,8.93,9.79,8.84L9.94,8.7
		c0.1-0.09,0.3-0.16,0.44-0.15c0.14,0.01,0.57,0.06,0.68,0.15l0.15,0.13c0.1,0.09,0.29,0.12,0.42,0.07l0.48-0.2
		c0.13-0.05,0.24-0.21,0.25-0.35l0.01-0.2c0.01-0.14,0.1-0.32,0.2-0.41s0.45-0.37,0.59-0.38l0.2-0.01c0.14-0.01,0.29-0.12,0.35-0.25
		l0.2-0.48c0.05-0.13,0.02-0.32-0.07-0.42L13.7,6.06C13.61,5.95,13.56,5.51,13.56,5.38z M10.5,7.55c-1.13,0-2.05-0.92-2.05-2.05
		s0.92-2.05,2.05-2.05s2.05,0.92,2.05,2.05S11.63,7.55,10.5,7.55z"/>
</g>
</svg>
