<?xml version="1.0" encoding="utf-8"?>
<!-- Generator: Adobe Illustrator 24.3.0, SVG Export Plug-In . SVG Version: 6.00 Build 0)  -->
<svg version="1.0" id="Layer_1" xmlns="http://www.w3.org/2000/svg" xmlns:xlink="http://www.w3.org/1999/xlink" x="0px" y="0px"
	 viewBox="0 0 128 128" enable-background="new 0 0 128 128" xml:space="preserve">
<g id="arrange">
	<g>
		<path fill="#FFFFFF" d="M120,122.5H8c-1.38,0-2.5-1.12-2.5-2.5V8c0-1.38,1.12-2.5,2.5-2.5h112c1.38,0,2.5,1.12,2.5,2.5v112
			C122.5,121.38,121.38,122.5,120,122.5z M10.5,117.5h107v-107h-107V117.5z"/>
	</g>
	<g>
		<path fill="#ED6B21" d="M104,58.5H24c-1.38,0-2.5-1.12-2.5-2.5V24c0-1.38,1.12-2.5,2.5-2.5h80c1.38,0,2.5,1.12,2.5,2.5v32
			C106.5,57.38,105.38,58.5,104,58.5z M26.5,53.5h75v-27h-75V53.5z"/>
	</g>
	<g>
		<path fill="#ED6B21" d="M48,106.5H24c-1.38,0-2.5-1.12-2.5-2.5V72c0-1.38,1.12-2.5,2.5-2.5h24c1.38,0,2.5,1.12,2.5,2.5v32
			C50.5,105.38,49.38,106.5,48,106.5z M26.5,101.5h19v-27h-19V101.5z"/>
	</g>
	<g>
		<path fill="#ED6B21" d="M104,106.5H64c-1.38,0-2.5-1.12-2.5-2.5V72c0-1.38,1.12-2.5,2.5-2.5h40c1.38,0,2.5,1.12,2.5,2.5v32
			C106.5,105.38,105.38,106.5,104,106.5z M66.5,101.5h35v-27h-35V101.5z"/>
	</g>
</g>
</svg>
