<?xml version="1.0" encoding="utf-8"?>
<!-- Generator: Adobe Illustrator 24.0.0, SVG Export Plug-In . SVG Version: 6.00 Build 0)  -->
<svg version="1.0" id="Layer_1" xmlns="http://www.w3.org/2000/svg" xmlns:xlink="http://www.w3.org/1999/xlink" x="0px" y="0px"
	 viewBox="0 0 16 16" enable-background="new 0 0 16 16" xml:space="preserve">
<g id="change_x5F_extruder_2_">
	<path fill="#ED6B21" d="M14.65,11.92c0.19-0.19,0.19-0.51,0-0.71L11.92,8.5c-0.19-0.19-0.35-0.13-0.35,0.15v1.29
		c0,0.27-0.22,0.5-0.5,0.5H7.5c-0.28,0-0.5,0.22-0.5,0.5v1.29c0,0.27,0.22,0.5,0.5,0.5h3.57c0.28,0,0.5,0.22,0.5,0.5v1.29
		c0,0.27,0.16,0.34,0.35,0.15L14.65,11.92z"/>
	<path fill="#ED6B21" d="M1.35,11.92c-0.19-0.19-0.19-0.51,0-0.71L4.08,8.5C4.27,8.3,4.43,8.37,4.43,8.64v1.29
		c0,0.27,0.23,0.5,0.5,0.5H8.5c0.27,0,0.5,0.22,0.5,0.5v1.29c0,0.27-0.23,0.5-0.5,0.5H4.93c-0.27,0-0.5,0.22-0.5,0.5v1.29
		c0,0.27-0.16,0.34-0.35,0.15L1.35,11.92z"/>
	<path fill="#808080" d="M14,2l0,4h-3c-0.55,0-1,0.45-1,1v0.47L8,8.8L6,7.46V7c0-0.55-0.45-1-1-1L2,6l0-4H14 M14,1H2
		C1.45,1,1,1.45,1,2v4c0,0.55,0.45,1,1,1h3v1l2.45,1.63C7.61,9.74,7.81,9.8,8,9.8c0.19,0,0.39-0.06,0.55-0.17L11,8V7h3
		c0.55,0,1-0.45,1-1V2C15,1.45,14.55,1,14,1L14,1z"/>
</g>
</svg>
