<?xml version="1.0" encoding="utf-8"?>
<!-- Generator: Adobe Illustrator 23.0.3, SVG Export Plug-In . SVG Version: 6.00 Build 0)  -->
<svg version="1.0" id="Layer_1" xmlns="http://www.w3.org/2000/svg" xmlns:xlink="http://www.w3.org/1999/xlink" x="0px" y="0px"
	 viewBox="0 0 16 16" enable-background="new 0 0 16 16" xml:space="preserve">
<g id="machine_x2B_cog">
	<path fill="#808080" d="M13.77,6.39c-0.13-0.47-0.32-0.92-0.55-1.33l0.43-1.3l-1.41-1.41l-1.3,0.43c-0.42-0.23-0.86-0.42-1.33-0.55
		L9,1H7L6.39,2.23C5.92,2.36,5.47,2.54,5.06,2.78l-1.3-0.43L2.34,3.76l0.43,1.3C2.54,5.47,2.36,5.92,2.23,6.39L1,7v2l1.23,0.61
		c0.13,0.47,0.32,0.92,0.55,1.33l-0.43,1.3l1.41,1.41l1.3-0.43c0.42,0.23,0.86,0.42,1.33,0.55L7,15h2l0.61-1.23
		c0.47-0.13,0.92-0.32,1.33-0.55l1.3,0.43l1.41-1.41l-0.43-1.3c0.23-0.42,0.42-0.86,0.55-1.33L15,9V7L13.77,6.39z M8,13
		c-2.76,0-5-2.24-5-5s2.24-5,5-5s5,2.24,5,5S10.76,13,8,13z"/>
	<path fill="#ED6B21" d="M11.3,7.08c-0.07-0.27-0.18-0.52-0.31-0.76l0.25-0.74l-0.81-0.81L9.68,5.01C9.45,4.88,9.19,4.78,8.92,4.7
		L8.57,4H7.43L7.08,4.7C6.81,4.78,6.55,4.88,6.32,5.01L5.58,4.77L4.77,5.58l0.25,0.74C4.88,6.55,4.78,6.81,4.7,7.08L4,7.43v1.14
		l0.7,0.35c0.07,0.27,0.18,0.52,0.31,0.76l-0.25,0.74l0.81,0.81l0.74-0.25c0.24,0.13,0.49,0.24,0.76,0.31L7.43,12h1.14l0.35-0.7
		c0.27-0.07,0.52-0.18,0.76-0.31l0.74,0.25l0.81-0.81l-0.25-0.74c0.13-0.24,0.24-0.49,0.31-0.76L12,8.57V7.43L11.3,7.08z M8,10.86
		c-1.58,0-2.86-1.28-2.86-2.86S6.42,5.14,8,5.14S10.86,6.42,10.86,8S9.58,10.86,8,10.86z"/>
</g>
</svg>
