<?xml version="1.0" encoding="utf-8"?>
<!-- Generator: Adobe Illustrator 24.0.0, SVG Export Plug-In . SVG Version: 6.00 Build 0)  -->
<svg version="1.0" id="Layer_1" xmlns="http://www.w3.org/2000/svg" xmlns:xlink="http://www.w3.org/1999/xlink" x="0px" y="0px"
	 viewBox="0 0 16 16" enable-background="new 0 0 16 16" xml:space="preserve">
<g id="hex_x5F_plus">
	<g>
		<path fill="#808080" d="M8,1.85l5.29,3.53V7v3.62L8,14.15l-5.29-3.53V7V5.38L8,1.85 M8,1L2,5v2v4l6,4l6-4V7V5L8,1L8,1z"/>
	</g>
	<g id="plus_1_">
		<g>
			<path fill="#ED6B21" d="M8,11.71c-0.39,0-0.71-0.32-0.71-0.71V5c0-0.39,0.32-0.71,0.71-0.71S8.71,4.61,8.71,5v6
				C8.71,11.39,8.39,11.71,8,11.71z"/>
		</g>
		<g>
			<path fill="#ED6B21" d="M11,8.71H5C4.61,8.71,4.29,8.39,4.29,8S4.61,7.29,5,7.29h6c0.39,0,0.71,0.32,0.71,0.71
				S11.39,8.71,11,8.71z"/>
		</g>
	</g>
</g>
</svg>
