<?xml version="1.0" encoding="utf-8"?>
<!-- Generator: Adobe Illustrator 23.0.3, SVG Export Plug-In . SVG Version: 6.00 Build 0)  -->
<svg version="1.0" id="Layer_1" xmlns="http://www.w3.org/2000/svg" xmlns:xlink="http://www.w3.org/1999/xlink" x="0px" y="0px"
	 viewBox="0 0 16 16" enable-background="new 0 0 16 16" xml:space="preserve">
<g id="cooling">
	<path fill="#808080" d="M14,1H2C1.45,1,1,1.45,1,2v12c0,0.55,0.45,1,1,1h12c0.55,0,1-0.45,1-1V2C15,1.45,14.55,1,14,1z M8,14
		c-3.31,0-6-2.69-6-6s2.69-6,6-6s6,2.69,6,6S11.31,14,8,14z"/>
	<g>
		<path fill="#ED6B21" d="M7.86,7.14C7.94,7.41,8,7.7,8,8c0,1.66-1.34,3-3,3c-0.3,0-0.59-0.06-0.86-0.14C4.51,12.09,5.64,13,7,13
			c1.66,0,3-1.34,3-3C10,8.64,9.09,7.51,7.86,7.14z"/>
	</g>
	<g>
		<path fill="#ED6B21" d="M8,8C6.34,8,5,6.66,5,5c0-0.3,0.06-0.59,0.14-0.86C3.91,4.51,3,5.64,3,7c0,1.66,1.34,3,3,3
			c1.36,0,2.49-0.91,2.86-2.14C8.59,7.94,8.3,8,8,8z"/>
	</g>
	<g>
		<path fill="#ED6B21" d="M10,6C8.64,6,7.51,6.91,7.14,8.14C7.41,8.06,7.7,8,8,8c1.66,0,3,1.34,3,3c0,0.3-0.06,0.59-0.14,0.86
			C12.09,11.49,13,10.36,13,9C13,7.34,11.66,6,10,6z"/>
	</g>
	<g>
		<path fill="#ED6B21" d="M8,8c0-1.66,1.34-3,3-3c0.3,0,0.59,0.06,0.86,0.14C11.49,3.91,10.36,3,9,3C7.34,3,6,4.34,6,6
			c0,1.36,0.91,2.49,2.14,2.86C8.06,8.59,8,8.3,8,8z"/>
	</g>
</g>
</svg>
