<?xml version="1.0" encoding="utf-8"?>
<!-- Generator: Adobe Illustrator 24.3.0, SVG Export Plug-In . SVG Version: 6.00 Build 0)  -->
<svg version="1.0" id="Layer_1" xmlns="http://www.w3.org/2000/svg" xmlns:xlink="http://www.w3.org/1999/xlink" x="0px" y="0px"
	 viewBox="0 0 128 128" enable-background="new 0 0 128 128" xml:space="preserve">
<g id="copy">
	<g>
		<path fill="#FFFFFF" d="M38.24,29.83l-15.49,8.94c-0.77,0.45-1.25,1.27-1.25,2.17v17.89c0,0.89,0.48,1.72,1.25,2.17l15.49,8.94
			c0.39,0.22,0.82,0.33,1.25,0.33s0.86-0.11,1.25-0.33L48,65.75v-5.77l-8.51,4.91l-12.99-7.5v-15l12.99-7.5L48,39.8v-5.77
			l-7.26-4.19C39.97,29.39,39.02,29.39,38.24,29.83z"/>
		<path fill="#FFFFFF" d="M48,85.5H10.5v-75h43V24c0,1.38,1.12,2.5,2.5,2.5h13.5V32h5v-8c0-0.17-0.02-0.33-0.05-0.49
			c-0.02-0.11-0.06-0.22-0.1-0.33c-0.02-0.05-0.02-0.09-0.04-0.14c-0.05-0.12-0.11-0.23-0.18-0.34c-0.02-0.03-0.03-0.06-0.05-0.09
			c-0.09-0.14-0.2-0.26-0.31-0.38L57.77,6.23c-0.12-0.12-0.24-0.22-0.38-0.31c-0.04-0.02-0.08-0.04-0.11-0.06
			c-0.1-0.06-0.2-0.12-0.32-0.17c-0.05-0.02-0.11-0.03-0.16-0.05c-0.1-0.03-0.2-0.07-0.3-0.09C56.33,5.52,56.17,5.5,56,5.5H8
			C6.62,5.5,5.5,6.62,5.5,8v80c0,1.38,1.12,2.5,2.5,2.5h40V85.5z M58.5,14.04l7.46,7.46H58.5V14.04z"/>
	</g>
	<g>
		<path fill="#ED6B21" d="M122.45,55.51c-0.02-0.11-0.06-0.22-0.1-0.33c-0.02-0.05-0.02-0.09-0.04-0.14
			c-0.05-0.12-0.11-0.23-0.18-0.34c-0.02-0.03-0.03-0.06-0.05-0.09c-0.09-0.14-0.2-0.26-0.31-0.38l-15.99-15.99
			c-0.12-0.12-0.24-0.22-0.38-0.31c-0.04-0.02-0.08-0.04-0.11-0.06c-0.1-0.06-0.2-0.12-0.32-0.17c-0.05-0.02-0.11-0.03-0.16-0.05
			c-0.1-0.03-0.2-0.07-0.3-0.09c-0.16-0.03-0.33-0.05-0.49-0.05H56c-1.38,0-2.5,1.12-2.5,2.5v80c0,1.38,1.12,2.5,2.5,2.5h64
			c1.38,0,2.5-1.12,2.5-2.5V56C122.5,55.83,122.48,55.67,122.45,55.51z M106.5,46.04l7.46,7.46h-7.46V46.04z M58.5,117.5v-75h43V56
			c0,1.38,1.12,2.5,2.5,2.5h13.5v59H58.5z"/>
		<path fill="#ED6B21" d="M104.23,70.78l-15.49-8.94c-0.77-0.45-1.73-0.45-2.5,0l-15.49,8.94c-0.77,0.45-1.25,1.27-1.25,2.17v17.89
			c0,0.89,0.48,1.72,1.25,2.17l15.49,8.94c0.39,0.22,0.82,0.33,1.25,0.33s0.86-0.11,1.25-0.33L104.23,93
			c0.77-0.45,1.25-1.27,1.25-2.17V72.94C105.48,72.05,105.01,71.23,104.23,70.78z M100.48,89.39l-12.99,7.5l-12.99-7.5v-15
			l12.99-7.5l12.99,7.5V89.39z"/>
	</g>
</g>
</svg>
