<?xml version="1.0" encoding="utf-8"?>
<!-- Generator: Adobe Illustrator 23.0.3, SVG Export Plug-In . SVG Version: 6.00 Build 0)  -->
<svg version="1.0" id="Layer_1" xmlns="http://www.w3.org/2000/svg" xmlns:xlink="http://www.w3.org/1999/xlink" x="0px" y="0px"
	 viewBox="0 0 128 128" enable-background="new 0 0 128 128" xml:space="preserve">
<g id="copy">
	<g>
		<path fill="#ED6B21" d="M115.76,51.2l-8.06-8.06c-2.47-2.47-6.97-4.34-10.47-4.34h-50.8c-4.2,0-7.62,3.42-7.62,7.62v66.04
			c0,4.2,3.42,7.62,7.62,7.62h66.04c4.2,0,7.62-3.42,7.62-7.62v-50.8C120.09,58.17,118.23,53.67,115.76,51.2z M111.42,54.04h-6.57
			v-6.57L111.42,54.04z M115.01,112.47c0,1.4-1.14,2.54-2.54,2.54H46.43c-1.4,0-2.54-1.14-2.54-2.54V46.42
			c0-1.4,1.14-2.54,2.54-2.54h50.8c0.74,0,1.63,0.18,2.54,0.46v12.24c0,1.4,1.14,2.54,2.54,2.54h12.24c0.28,0.91,0.46,1.8,0.46,2.54
			V112.47z"/>
		<path fill="#ED6B21" d="M53.97,59.13h35.72c1.4,0,2.54-1.14,2.54-2.54s-1.14-2.54-2.54-2.54H53.97c-1.4,0-2.54,1.14-2.54,2.54
			S52.56,59.13,53.97,59.13z"/>
		<path fill="#ED6B21" d="M104.93,69.29H53.97c-1.4,0-2.54,1.14-2.54,2.54s1.14,2.54,2.54,2.54h50.96c1.4,0,2.54-1.14,2.54-2.54
			S106.33,69.29,104.93,69.29z"/>
		<path fill="#ED6B21" d="M104.93,84.53H53.97c-1.4,0-2.54,1.14-2.54,2.54s1.14,2.54,2.54,2.54h50.96c1.4,0,2.54-1.14,2.54-2.54
			S106.33,84.53,104.93,84.53z"/>
		<path fill="#ED6B21" d="M104.93,99.77H53.97c-1.4,0-2.54,1.14-2.54,2.54s1.14,2.54,2.54,2.54h50.96c1.4,0,2.54-1.14,2.54-2.54
			S106.33,99.77,104.93,99.77z"/>
	</g>
	<g>
		<path fill="#808080" d="M85.27,20.71l-8.06-8.06c-2.47-2.47-6.97-4.34-10.47-4.34h-50.8c-4.2,0-7.62,3.42-7.62,7.62v66.04
			c0,4.2,3.42,7.62,7.62,7.62h17.78c1.4,0,2.54-1.14,2.54-2.54s-1.14-2.54-2.54-2.54H15.94c-1.4,0-2.54-1.14-2.54-2.54V15.94
			c0-1.4,1.14-2.54,2.54-2.54h50.8c0.74,0,1.63,0.18,2.54,0.46V26.1c0,1.4,1.14,2.54,2.54,2.54h12.45c0.16,0.49,0.25,0.93,0.25,1.27
			v3.81c0,1.4,1.14,2.54,2.54,2.54c1.4,0,2.54-1.14,2.54-2.54v-3.81C89.61,27.14,87.75,23.19,85.27,20.71z M74.37,16.99l6.57,6.57
			h-6.57V16.99z"/>
		<path fill="#808080" d="M59.21,23.56H23.48c-1.4,0-2.54,1.14-2.54,2.54s1.14,2.54,2.54,2.54h35.72c1.4,0,2.54-1.14,2.54-2.54
			S60.61,23.56,59.21,23.56z"/>
		<path fill="#808080" d="M28.73,38.8h-5.24c-1.4,0-2.54,1.14-2.54,2.54s1.14,2.54,2.54,2.54h5.24c1.4,0,2.54-1.14,2.54-2.54
			S30.13,38.8,28.73,38.8z"/>
		<path fill="#808080" d="M28.73,54.04h-5.24c-1.4,0-2.54,1.14-2.54,2.54s1.14,2.54,2.54,2.54h5.24c1.4,0,2.54-1.14,2.54-2.54
			S30.13,54.04,28.73,54.04z"/>
		<path fill="#808080" d="M28.73,69.29h-5.24c-1.4,0-2.54,1.14-2.54,2.54s1.14,2.54,2.54,2.54h5.24c1.4,0,2.54-1.14,2.54-2.54
			S30.13,69.29,28.73,69.29z"/>
	</g>
</g>
</svg>
