<?xml version="1.0" encoding="utf-8"?>
<!-- Generator: Adobe Illustrator 24.3.0, SVG Export Plug-In . SVG Version: 6.00 Build 0)  -->
<svg version="1.0" id="Layer_1" xmlns="http://www.w3.org/2000/svg" xmlns:xlink="http://www.w3.org/1999/xlink" x="0px" y="0px"
	 viewBox="0 0 128 128" enable-background="new 0 0 128 128" xml:space="preserve">
<g id="delete_x5F_all">
	<g>
		<path fill="#FFFFFF" d="M104,122.5H24c-1.29,0-2.37-0.99-2.49-2.27l-8-88c-0.06-0.7,0.17-1.39,0.64-1.91
			C14.63,29.8,15.3,29.5,16,29.5h96c0.7,0,1.37,0.3,1.85,0.81c0.47,0.52,0.71,1.21,0.64,1.91l-8,88
			C106.37,121.51,105.29,122.5,104,122.5z M26.28,117.5h75.43l7.55-83H18.74L26.28,117.5z"/>
	</g>
	<g>
		<path fill="#ED6B21" d="M112,26.5H16c-1.38,0-2.5-1.12-2.5-2.5v-8c0-1.38,1.12-2.5,2.5-2.5h29.5V8c0-1.38,1.12-2.5,2.5-2.5h32
			c1.38,0,2.5,1.12,2.5,2.5v5.5H112c1.38,0,2.5,1.12,2.5,2.5v8C114.5,25.38,113.38,26.5,112,26.5z M18.5,21.5h91v-3H80
			c-1.38,0-2.5-1.12-2.5-2.5v-5.5h-27V16c0,1.38-1.12,2.5-2.5,2.5H18.5V21.5z"/>
	</g>
</g>
</svg>
