<?xml version="1.0" encoding="utf-8"?>
<!-- Generator: Adobe Illustrator 23.0.1, SVG Export Plug-In . SVG Version: 6.00 Build 0)  -->
<svg version="1.0" id="Layer_1" xmlns="http://www.w3.org/2000/svg" xmlns:xlink="http://www.w3.org/1999/xlink" x="0px" y="0px"
	 viewBox="0 0 128 128" enable-background="new 0 0 128 128" xml:space="preserve">
<g id="DELETE_ALL_1_">
	<path fill="#808080" d="M103.52,43.87l-13.31,69.97H37.79L24.48,43.87H103.52 M108.77,37.87H19.23c-1.1,0-1.83,0.88-1.63,1.96
		l14.84,78.04c0.21,1.08,1.27,1.96,2.37,1.96h58.36c1.1,0,2.17-0.88,2.37-1.96l14.84-78.04C110.6,38.75,109.87,37.87,108.77,37.87
		L108.77,37.87z"/>
	<g>
		<path fill="#ED6B21" d="M89.38,22.97c-1.1,0-2-0.9-2-2v-10.9c0-1.1-0.9-2-2-2H42.62c-1.1,0-2,0.9-2,2v10.9c0,1.1-0.9,2-2,2H19.23
			c-1.1,0-2,0.9-2,2v3.45c0,1.1,0.9,2,2,2h89.54c1.1,0,2-0.9,2-2v-3.45c0-1.1-0.9-2-2-2H89.38z M79.59,20.97c0,1.1-0.9,2-2,2H50.41
			c-1.1,0-2-0.9-2-2v-3.45c0-1.1,0.9-2,2-2h27.18c1.1,0,2,0.9,2,2V20.97z"/>
	</g>
	<g>
		<path fill="#808080" d="M93.17,73.5H34.83c-0.83,0-1.5-0.67-1.5-1.5s0.67-1.5,1.5-1.5h58.34c0.83,0,1.5,0.67,1.5,1.5
			S94,73.5,93.17,73.5z"/>
	</g>
	<g>
		<path fill="#808080" d="M90.14,89.45H37.96c-0.83,0-1.5-0.67-1.5-1.5s0.67-1.5,1.5-1.5h52.18c0.83,0,1.5,0.67,1.5,1.5
			S90.97,89.45,90.14,89.45z"/>
	</g>
	<g>
		<path fill="#808080" d="M87.1,105.4H40.9c-0.83,0-1.5-0.67-1.5-1.5s0.67-1.5,1.5-1.5h46.2c0.83,0,1.5,0.67,1.5,1.5
			S87.93,105.4,87.1,105.4z"/>
	</g>
	<g>
		<path fill="#808080" d="M96.2,57.56H31.8c-0.83,0-1.5-0.67-1.5-1.5s0.67-1.5,1.5-1.5h64.4c0.83,0,1.5,0.67,1.5,1.5
			S97.03,57.56,96.2,57.56z"/>
	</g>
</g>
</svg>
