<?xml version="1.0" encoding="utf-8"?>
<!-- Generator: Adobe Illustrator 23.0.4, SVG Export Plug-In . SVG Version: 6.00 Build 0)  -->
<svg version="1.0" id="Layer_1" xmlns="http://www.w3.org/2000/svg" xmlns:xlink="http://www.w3.org/1999/xlink" x="0px" y="0px"
	 viewBox="0 0 16 16" enable-background="new 0 0 16 16" xml:space="preserve">
<g id="modifer_x5F_bed">
	
		<line fill="none" stroke="#ED6B21" stroke-width="2" stroke-linecap="round" stroke-linejoin="round" stroke-miterlimit="10" x1="2" y1="13" x2="13" y2="13"/>
	<path fill="#808080" d="M10.87,7.48c-0.2,0-0.37,0.16-0.37,0.37v1.47v0.74c0,0.2-0.17,0.37-0.37,0.37H4.97
		c-0.2,0-0.37-0.17-0.37-0.37L4.57,4.91c0-0.1,0.04-0.19,0.11-0.26c0.07-0.07,0.16-0.11,0.26-0.11l2.25,0v0
		c0.2,0,0.37-0.16,0.37-0.37c0-0.2-0.16-0.37-0.37-0.37H5.71c0,0-0.01,0-0.01,0l-0.76,0c-0.3,0-0.57,0.12-0.78,0.33
		C3.95,4.34,3.83,4.61,3.83,4.91l0.03,5.15c0,0.61,0.5,1.1,1.11,1.1h5.16c0.61,0,1.11-0.5,1.11-1.11V9.32V7.85
		C11.24,7.65,11.07,7.48,10.87,7.48z"/>
	<circle fill="#808080" stroke="#808080" stroke-miterlimit="10" cx="10.88" cy="4.12" r="2.12"/>
</g>
</svg>
