<?xml version="1.0" encoding="utf-8"?>
<!-- Generator: Adobe Illustrator 24.0.0, SVG Export Plug-In . SVG Version: 6.00 Build 0)  -->
<svg version="1.0" id="Layer_1" xmlns="http://www.w3.org/2000/svg" xmlns:xlink="http://www.w3.org/1999/xlink" x="0px" y="0px"
	 viewBox="0 0 16 16" enable-background="new 0 0 16 16" xml:space="preserve">
<g id="edit_x5F_uni">
	<path fill="#808080" d="M8,1.85l5.29,3.53V7v3.62L8,14.15l-5.29-3.53V7V5.38L8,1.85 M8,1L2,5v2v4l6,4l6-4V7V5L8,1L8,1z"/>
	<path fill="#ED6B21" d="M11.87,7.36l-0.43-0.22c-0.07-0.04-0.16-0.13-0.18-0.21l-0.2-0.48c-0.04-0.07-0.04-0.2-0.02-0.28l0.15-0.46
		c0.03-0.08,0-0.19-0.06-0.25l-0.6-0.6c-0.06-0.06-0.17-0.08-0.25-0.06L9.83,4.97c-0.08,0.03-0.2,0.02-0.28-0.02l-0.48-0.2
		C8.99,4.72,8.89,4.64,8.85,4.57L8.64,4.13C8.6,4.06,8.5,4,8.42,4H7.58C7.5,4,7.4,4.06,7.36,4.13L7.15,4.57
		C7.11,4.64,7.01,4.72,6.94,4.75l-0.48,0.2c-0.07,0.04-0.2,0.04-0.28,0.02L5.72,4.81c-0.08-0.03-0.19,0-0.25,0.06l-0.6,0.6
		C4.82,5.53,4.79,5.64,4.81,5.72l0.15,0.46c0.03,0.08,0.02,0.2-0.02,0.28l-0.2,0.48C4.72,7.01,4.64,7.11,4.57,7.15L4.13,7.36
		C4.06,7.4,4,7.5,4,7.58v0.84C4,8.5,4.06,8.6,4.13,8.64l0.43,0.22c0.07,0.04,0.16,0.13,0.18,0.21l0.2,0.48
		c0.04,0.07,0.04,0.2,0.02,0.28l-0.15,0.46c-0.03,0.08,0,0.19,0.06,0.25l0.6,0.6c0.06,0.06,0.17,0.08,0.25,0.06l0.46-0.15
		c0.08-0.03,0.2-0.02,0.28,0.02l0.48,0.2c0.08,0.03,0.17,0.11,0.21,0.18l0.22,0.43C7.4,11.94,7.5,12,7.58,12h0.84
		c0.08,0,0.18-0.06,0.22-0.13l0.22-0.43c0.04-0.07,0.13-0.16,0.21-0.18l0.48-0.2c0.07-0.04,0.2-0.04,0.28-0.02l0.46,0.15
		c0.08,0.03,0.19,0,0.25-0.06l0.6-0.6c0.06-0.06,0.08-0.17,0.06-0.25l-0.15-0.46c-0.03-0.08-0.02-0.2,0.02-0.28l0.2-0.48
		c0.03-0.08,0.11-0.17,0.18-0.21l0.43-0.22C11.94,8.6,12,8.5,12,8.42V7.58C12,7.5,11.94,7.4,11.87,7.36z M8,10.29
		c-1.26,0-2.29-1.03-2.29-2.29c0-1.26,1.03-2.29,2.29-2.29S10.29,6.74,10.29,8C10.29,9.26,9.26,10.29,8,10.29z"/>
</g>
</svg>
