<?xml version="1.0" encoding="utf-8"?>
<!-- Generator: Adobe Illustrator 23.0.4, SVG Export Plug-In . SVG Version: 6.00 Build 0)  -->
<svg version="1.0" id="Layer_1" xmlns="http://www.w3.org/2000/svg" xmlns:xlink="http://www.w3.org/1999/xlink" x="0px" y="0px"
	 viewBox="0 0 16 16" enable-background="new 0 0 16 16" xml:space="preserve">
<g id="edit_x5F_layers_x5F_some_1_">
	
		<line fill="none" stroke="#808080" stroke-width="2" stroke-linecap="round" stroke-miterlimit="10" x1="2" y1="11" x2="14" y2="11"/>
	
		<line fill="none" stroke="#808080" stroke-width="2" stroke-linecap="round" stroke-miterlimit="10" x1="2" y1="14" x2="14" y2="14"/>
	<path fill="#ED6B21" d="M7.68,8.87c0.18,0.18,0.47,0.18,0.64,0L11.19,6c0.18-0.18,0.12-0.32-0.13-0.32H9.62
		c-0.25,0-0.45-0.2-0.45-0.45V1.45C9.17,1.2,8.97,1,8.71,1H7.29C7.03,1,6.83,1.2,6.83,1.45v3.77c0,0.25-0.2,0.45-0.45,0.45H4.95
		C4.7,5.68,4.64,5.82,4.81,6L7.68,8.87z"/>
</g>
</svg>
