<?xml version="1.0" encoding="utf-8"?>
<!-- Generator: Adobe Illustrator 23.0.4, SVG Export Plug-In . SVG Version: 6.00 Build 0)  -->
<svg version="1.0" id="Layer_1" xmlns="http://www.w3.org/2000/svg" xmlns:xlink="http://www.w3.org/1999/xlink" x="0px" y="0px"
	 viewBox="0 0 16 16" enable-background="new 0 0 16 16" xml:space="preserve">
<g id="edit_x5F_layers_x5F_all">
	<path fill="#808080" d="M15,2.5H1C0.72,2.5,0.5,2.28,0.5,2S0.72,1.5,1,1.5h14c0.28,0,0.5,0.22,0.5,0.5S15.28,2.5,15,2.5z"/>
	<path fill="#808080" d="M15,4.5H1C0.72,4.5,0.5,4.28,0.5,4S0.72,3.5,1,3.5h14c0.28,0,0.5,0.22,0.5,0.5S15.28,4.5,15,4.5z"/>
	<path fill="#808080" d="M15,12.5H1c-0.28,0-0.5-0.22-0.5-0.5s0.22-0.5,0.5-0.5h14c0.28,0,0.5,0.22,0.5,0.5S15.28,12.5,15,12.5z"/>
	<path fill="#808080" d="M15,14.5H1c-0.28,0-0.5-0.22-0.5-0.5s0.22-0.5,0.5-0.5h14c0.28,0,0.5,0.22,0.5,0.5S15.28,14.5,15,14.5z"/>
	<g>
		<path fill="#808080" d="M5.86,10.36c-0.01,0.04-0.13-0.14-0.2-0.22l-0.2-0.02C5.16,10.1,4.85,9.89,4.73,9.6L4.69,9.5H1
			c-0.28,0-0.5,0.22-0.5,0.5s0.22,0.5,0.5,0.5h4.87L5.86,10.36z"/>
		<path fill="#808080" d="M15,9.5h-3.69l-0.04,0.1c-0.12,0.29-0.42,0.5-0.73,0.53l-0.18,0.01c0.04,0.01-0.13,0.13-0.21,0.2
			l-0.02,0.16H15c0.28,0,0.5-0.22,0.5-0.5S15.28,9.5,15,9.5z"/>
	</g>
	<g>
		<path fill="#808080" d="M4.7,8.29l0.11-0.13c-0.03,0.02,0-0.19,0.01-0.3L4.7,7.71C4.65,7.65,4.61,7.58,4.58,7.5H1
			C0.72,7.5,0.5,7.72,0.5,8S0.72,8.5,1,8.5h3.58C4.61,8.42,4.65,8.35,4.7,8.29z"/>
		<path fill="#808080" d="M15,7.5h-3.58c-0.03,0.08-0.08,0.15-0.13,0.21l-0.11,0.13l-0.01,0.02c0.01,0.12,0.04,0.32,0.06,0.38
			l0.06,0.05c0.05,0.06,0.1,0.13,0.13,0.21H15c0.28,0,0.5-0.22,0.5-0.5S15.28,7.5,15,7.5z"/>
	</g>
	<g>
		<path fill="#808080" d="M4.74,6.4c0.12-0.29,0.42-0.5,0.73-0.52l0.17-0.01C5.6,5.86,5.77,5.73,5.85,5.66L5.87,5.5H1
			C0.72,5.5,0.5,5.72,0.5,6S0.72,6.5,1,6.5h3.69L4.74,6.4z"/>
		<path fill="#808080" d="M15,5.5h-4.87l0.01,0.14c0-0.03,0.13,0.13,0.2,0.21l0.2,0.02c0.31,0.02,0.61,0.24,0.73,0.53l0.04,0.1H15
			c0.28,0,0.5-0.22,0.5-0.5S15.28,5.5,15,5.5z"/>
	</g>
	<path fill="#ED6B21" d="M10.67,7.89c-0.01-0.12,0.05-0.29,0.13-0.38l0.11-0.13c0.08-0.09,0.11-0.26,0.06-0.37L10.8,6.59
		c-0.05-0.11-0.18-0.21-0.3-0.22l-0.17-0.01c-0.12-0.01-0.28-0.09-0.36-0.18C9.89,6.1,9.65,5.79,9.64,5.67L9.63,5.5
		C9.62,5.38,9.52,5.24,9.41,5.2L8.99,5.02C8.88,4.98,8.71,5,8.62,5.08L8.49,5.2C8.4,5.28,8.22,5.33,8.11,5.33
		C7.99,5.32,7.6,5.27,7.51,5.2L7.38,5.08C7.29,5,7.13,4.98,7.01,5.02L6.59,5.2C6.48,5.24,6.38,5.38,6.37,5.5L6.36,5.67
		C6.35,5.79,6.27,5.95,6.19,6.03S5.79,6.35,5.67,6.36L5.5,6.37C5.38,6.38,5.24,6.48,5.2,6.59L5.02,7.01C4.98,7.12,5,7.29,5.08,7.38
		L5.2,7.51C5.28,7.6,5.33,7.78,5.33,7.89C5.32,8.01,5.27,8.4,5.2,8.49L5.08,8.62C5,8.71,4.98,8.87,5.02,8.99L5.2,9.41
		c0.05,0.11,0.18,0.21,0.3,0.22l0.17,0.01c0.12,0.01,0.28,0.09,0.36,0.18c0.08,0.09,0.32,0.39,0.33,0.51l0.01,0.17
		c0.01,0.12,0.11,0.26,0.22,0.3l0.42,0.17c0.11,0.05,0.28,0.02,0.37-0.06l0.13-0.11c0.09-0.08,0.26-0.14,0.38-0.13
		c0.12,0.01,0.5,0.05,0.59,0.13l0.13,0.11c0.09,0.08,0.26,0.11,0.37,0.06l0.42-0.17c0.11-0.05,0.21-0.18,0.22-0.3l0.01-0.17
		c0.01-0.12,0.09-0.28,0.18-0.36c0.09-0.08,0.39-0.32,0.51-0.33l0.17-0.01c0.12-0.01,0.26-0.11,0.3-0.22l0.17-0.42
		c0.05-0.11,0.02-0.28-0.06-0.37L10.8,8.49C10.72,8.4,10.68,8.01,10.67,7.89z M8,9.8c-0.99,0-1.8-0.8-1.8-1.8S7.01,6.2,8,6.2
		S9.8,7.01,9.8,8S8.99,9.8,8,9.8z"/>
</g>
</svg>
