<?xml version="1.0" encoding="utf-8"?>
<!-- Generator: Adobe Illustrator 23.0.4, SVG Export Plug-In . SVG Version: 6.00 Build 0)  -->
<svg version="1.0" id="Layer_1" xmlns="http://www.w3.org/2000/svg" xmlns:xlink="http://www.w3.org/1999/xlink" x="0px" y="0px"
	 viewBox="0 0 16 16" enable-background="new 0 0 16 16" xml:space="preserve">
<g id="edit_x5F_layers_x5F_all">
	<line fill="none" stroke="#808080" stroke-width="2" stroke-linecap="round" stroke-miterlimit="10" x1="2" y1="2" x2="6" y2="2"/>
	<line fill="none" stroke="#808080" stroke-width="2" stroke-linecap="round" stroke-miterlimit="10" x1="2" y1="6" x2="6" y2="6"/>
	
		<line fill="none" stroke="#808080" stroke-width="2" stroke-linecap="round" stroke-miterlimit="10" x1="2" y1="10" x2="14" y2="10"/>
	
		<line fill="none" stroke="#808080" stroke-width="2" stroke-linecap="round" stroke-miterlimit="10" x1="2" y1="14" x2="14" y2="14"/>
	<path fill="#ED6B21" d="M14.62,4.37c-0.01-0.14,0.06-0.34,0.15-0.44l0.13-0.15c0.09-0.11,0.12-0.3,0.07-0.43l-0.2-0.49
		c-0.05-0.13-0.21-0.24-0.35-0.25l-0.2-0.01c-0.14-0.01-0.33-0.1-0.42-0.21c-0.09-0.1-0.37-0.46-0.38-0.6l-0.01-0.2
		c-0.01-0.14-0.12-0.3-0.25-0.35l-0.49-0.2C12.52,0.97,12.33,1,12.22,1.1l-0.15,0.13c-0.11,0.09-0.31,0.16-0.44,0.15
		c-0.14-0.01-0.59-0.06-0.69-0.15L10.78,1.1c-0.11-0.09-0.3-0.12-0.43-0.07l-0.49,0.2C9.73,1.28,9.61,1.44,9.6,1.58l-0.01,0.2
		C9.58,1.92,9.49,2.11,9.38,2.2c-0.1,0.09-0.46,0.37-0.6,0.38L8.58,2.6c-0.14,0.01-0.3,0.12-0.35,0.25l-0.2,0.49
		C7.97,3.48,8,3.67,8.1,3.78l0.13,0.15c0.09,0.11,0.16,0.31,0.15,0.44C8.37,4.52,8.32,4.96,8.23,5.07L8.1,5.22
		C8,5.33,7.97,5.52,8.03,5.65l0.2,0.49C8.28,6.27,8.44,6.39,8.58,6.4l0.2,0.01c0.14,0.01,0.33,0.1,0.42,0.21
		c0.09,0.1,0.37,0.46,0.38,0.6l0.01,0.2c0.01,0.14,0.12,0.3,0.25,0.35l0.49,0.2C10.48,8.03,10.67,8,10.78,7.9l0.15-0.13
		c0.11-0.09,0.31-0.16,0.44-0.15c0.14,0.01,0.59,0.06,0.69,0.15l0.15,0.13c0.11,0.09,0.3,0.12,0.43,0.07l0.49-0.2
		c0.13-0.05,0.24-0.21,0.25-0.35l0.01-0.2c0.01-0.14,0.1-0.33,0.21-0.42s0.46-0.37,0.6-0.38l0.2-0.01c0.14-0.01,0.3-0.12,0.35-0.25
		l0.2-0.49C15.03,5.52,15,5.33,14.9,5.22l-0.13-0.15C14.68,4.96,14.63,4.51,14.62,4.37z M11.5,6.6c-1.16,0-2.1-0.94-2.1-2.1
		s0.94-2.1,2.1-2.1s2.1,0.94,2.1,2.1S12.66,6.6,11.5,6.6z"/>
</g>
</svg>
