<?xml version="1.0" encoding="utf-8"?>
<!-- Generator: Adobe Illustrator 24.0.3, SVG Export Plug-In . SVG Version: 6.00 Build 0)  -->
<svg version="1.0" id="Layer_1" xmlns="http://www.w3.org/2000/svg" xmlns:xlink="http://www.w3.org/1999/xlink" x="0px" y="0px"
	 viewBox="0 0 800 800" enable-background="new 0 0 800 800" xml:space="preserve">
<path fill="#ED6B21" d="M594.8,558.94v71.52H205.95v-71.52H594.8 M627.56,502.24H173.18c-13.21,0-23.93,10.71-23.93,23.93v137.06
	c0,13.21,10.71,23.93,23.93,23.93h454.38c13.21,0,23.93-10.71,23.93-23.93V526.17C651.49,512.96,640.78,502.24,627.56,502.24
	L627.56,502.24z"/>
<path fill="#ED6B21" d="M400.24,206.82l137.59,182.73H262.83L400.24,206.82 M400.23,128.4c-7.17,0-14.34,3.18-19.12,9.55
	L178.06,407.94c-11.86,15.77-0.61,38.31,19.12,38.31h406.34c19.74,0,30.99-22.55,19.11-38.32l-203.3-269.99
	C414.55,131.58,407.39,128.4,400.23,128.4L400.23,128.4z"/>
</svg>
