<?xml version="1.0" encoding="utf-8"?>
<!-- Generator: Adobe Illustrator 24.0.3, SVG Export Plug-In . SVG Version: 6.00 Build 0)  -->
<svg version="1.0" id="Layer_1" xmlns="http://www.w3.org/2000/svg" xmlns:xlink="http://www.w3.org/1999/xlink" x="0px" y="0px"
	 viewBox="0 0 800 800" enable-background="new 0 0 800 800" xml:space="preserve">
<g>
	<path fill="#808080" d="M580.82,576.8H462.03v0c0,3.06-0.99,6.04-2.82,8.49l-0.49,0.65c-36.26,48.48-43.59,55.36-45.99,57.62
		c-1.47,1.38-3.2,2.4-5.06,3.04v89.54h88.56h88.56h6.85V575.98C588.11,576.52,584.5,576.8,580.82,576.8z M476.02,697.94h-50.58
		v-33.13h50.58V697.94z M569.22,697.94h-50.58v-33.13h50.58V697.94z"/>
	<path fill="#808080" d="M431.96,235.69h-266.8c-8.78,0-15.9,7.12-15.9,15.9v365.74c0,8.78,7.12,15.9,15.9,15.9h237.87
		c9.06-8.5,38.91-48.51,44.83-56.43V251.59C447.86,242.81,440.74,235.69,431.96,235.69z M219.93,599.88c0,2.2-1.78,3.98-3.98,3.98
		h-22.97c-2.2,0-3.98-1.78-3.98-3.98v-81.28c0-2.2,1.78-3.98,3.98-3.98h22.97c2.2,0,3.98,1.78,3.98,3.98V599.88z M255.93,599.88
		c0,2.2-1.78,3.98-3.98,3.98h-22.97c-2.2,0-3.98-1.78-3.98-3.98v-81.28c0-2.2,1.78-3.98,3.98-3.98h22.97c2.2,0,3.98,1.78,3.98,3.98
		V599.88z M291.93,599.88c0,2.2-1.78,3.98-3.98,3.98h-22.97c-2.2,0-3.98-1.78-3.98-3.98v-81.28c0-2.2,1.78-3.98,3.98-3.98h22.97
		c2.2,0,3.98,1.78,3.98,3.98V599.88z M327.93,599.88c0,2.2-1.78,3.98-3.98,3.98h-22.97c-2.2,0-3.98-1.78-3.98-3.98v-81.28
		c0-2.2,1.78-3.98,3.98-3.98h22.97c2.2,0,3.98,1.78,3.98,3.98V599.88z M363.93,599.88c0,2.2-1.78,3.98-3.98,3.98h-22.97
		c-2.2,0-3.98-1.78-3.98-3.98v-81.28c0-2.2,1.78-3.98,3.98-3.98h22.97c2.2,0,3.98,1.78,3.98,3.98V599.88z M399.2,572.83
		c0,2.2-1.78,3.98-3.98,3.98h-22.97c-2.2,0-3.98-1.78-3.98-3.98v-54.22c0-2.2,1.78-3.98,3.98-3.98h22.97c2.2,0,3.98,1.78,3.98,3.98
		V572.83z"/>
	<path fill="#ED6B21" d="M580.82,62.53H406.78c-39.03,0-70.67,31.64-70.67,70.67v88.31h95.85c16.58,0,30.08,13.49,30.08,30.08V576.8
		h118.78c39.03,0,70.67-31.64,70.67-70.67V133.21C651.49,94.18,619.85,62.53,580.82,62.53z"/>
</g>
</svg>
