<?xml version="1.0" encoding="utf-8"?>
<!-- Generator: Adobe Illustrator 23.0.3, SVG Export Plug-In . SVG Version: 6.00 Build 0)  -->
<svg version="1.0" id="Layer_1" xmlns="http://www.w3.org/2000/svg" xmlns:xlink="http://www.w3.org/1999/xlink" x="0px" y="0px"
	 viewBox="0 0 16 16" enable-background="new 0 0 16 16" xml:space="preserve">
<g id="export_x5F_plater">
	<path fill="#808080" d="M13,2c0.55,0,1,0.45,1,1V13c0,0.55-0.45,1-1,1H3c-0.55,0-1-0.45-1-1V3c0-0.55,0.45-1,1-1H13 M13,1H3
		c-1.1,0-2,0.89-2,2V13c0,1.1,0.89,2,2,2H13c1.1,0,2-0.89,2-2V3C15,1.89,14.11,1,13,1L13,1z"/>
	<path fill="#ED6B21" d="M11.65,8.35c0.19-0.19,0.19-0.51,0-0.71L8.92,4.92C8.73,4.73,8.57,4.8,8.57,5.07v1.29
		c0,0.28-0.22,0.5-0.5,0.5H4.5C4.22,6.86,4,7.08,4,7.36v1.29c0,0.27,0.22,0.5,0.5,0.5h3.57c0.28,0,0.5,0.22,0.5,0.5v1.29
		c0,0.27,0.16,0.34,0.35,0.15L11.65,8.35z"/>
</g>
</svg>
