<?xml version="1.0" encoding="utf-8"?>
<!-- Generator: Adobe Illustrator 25.0.0, SVG Export Plug-In . SVG Version: 6.00 Build 0)  -->
<svg version="1.0" id="Layer_1" xmlns="http://www.w3.org/2000/svg" xmlns:xlink="http://www.w3.org/1999/xlink" x="0px" y="0px"
	 viewBox="0 0 128 128" enable-background="new 0 0 128 128" xml:space="preserve">
<g id="paint_x5F_supports">
	<path fill="#ED6B21" d="M88,38.93c-0.83,0-1.5,0.67-1.5,1.5V70.5h-5V45.14c0-0.83-0.67-1.5-1.5-1.5s-1.5,0.67-1.5,1.5V70.5h-5V49.8
		c0-0.83-0.67-1.5-1.5-1.5s-1.5,0.67-1.5,1.5v20.7h-5V53.84c0-0.83-0.67-1.5-1.5-1.5s-1.5,0.67-1.5,1.5V70.5h-5V49.8
		c0-0.83-0.67-1.5-1.5-1.5s-1.5,0.67-1.5,1.5v20.7h-5V45.14c0-0.83-0.67-1.5-1.5-1.5s-1.5,0.67-1.5,1.5V70.5h-5V40.43
		c0-0.83-0.67-1.5-1.5-1.5s-1.5,0.67-1.5,1.5V72v10.99c0,3.59,2.92,6.51,6.51,6.51h2.98c0.67,0.01,6.51,0.24,6.51,6.5v16
		c0,3.29,1.99,9.5,9.5,9.5s9.5-6.21,9.5-9.5V96c0-6.26,5.84-6.49,6.5-6.5h3c3.59,0,6.5-2.92,6.5-6.5V72V40.43
		C89.5,39.6,88.83,38.93,88,38.93z M86.5,83c0,1.93-1.57,3.5-3.5,3.5h-3c-3.29,0-9.5,1.99-9.5,9.5v15.99
		c-0.01,0.67-0.24,6.51-6.5,6.51s-6.49-5.84-6.5-6.5V96c0-7.51-6.21-9.5-9.5-9.5h-2.99c-1.94,0-3.51-1.57-3.51-3.51V73.5h45V83z"/>
	<g>
		<path fill="#808080" d="M64,48.03c-0.26,0-0.52-0.07-0.75-0.2l-48-27.69c-0.46-0.27-0.75-0.76-0.75-1.3V8c0-0.83,0.67-1.5,1.5-1.5
			s1.5,0.67,1.5,1.5v9.98L64,44.8l46.5-26.83V8c0-0.83,0.67-1.5,1.5-1.5s1.5,0.67,1.5,1.5v10.84c0,0.54-0.29,1.03-0.75,1.3
			l-48,27.69C64.52,47.97,64.26,48.03,64,48.03z"/>
	</g>
</g>
</svg>
