<?xml version="1.0" encoding="utf-8"?>
<!-- Generator: Adobe Illustrator 24.0.0, SVG Export Plug-In . SVG Version: 6.00 Build 0)  -->
<svg version="1.0" id="Layer_1" xmlns="http://www.w3.org/2000/svg" xmlns:xlink="http://www.w3.org/1999/xlink" x="0px" y="0px"
	 viewBox="0 0 128 128" enable-background="new 0 0 128 128" xml:space="preserve">
<g id="hollow">
	<g>
		<g>
			<path fill="#FFFFFF" d="M64,121.87c-0.39,0-0.77-0.11-1.11-0.34l-17.93-11.95c-0.92-0.61-1.17-1.85-0.55-2.77
				s1.86-1.17,2.77-0.55L64,117.47l17.03-11.35c0.92-0.61,2.16-0.36,2.77,0.55c0.61,0.92,0.36,2.16-0.55,2.77l-18.14,12.09
				C64.77,121.76,64.39,121.87,64,121.87z"/>
		</g>
		<g>
			<path fill="#FFFFFF" d="M90.96,103.89c-0.65,0-1.28-0.31-1.67-0.89c-0.61-0.92-0.36-2.16,0.55-2.77l20.04-13.36V41.13L64,10.53
				L18.11,41.13v45.75l20.03,13.36c0.92,0.61,1.17,1.85,0.55,2.77c-0.61,0.92-1.85,1.17-2.77,0.55L15,89.61
				c-0.56-0.37-0.89-1-0.89-1.66V40.06c0-0.67,0.33-1.29,0.89-1.66L62.89,6.47c0.67-0.45,1.55-0.45,2.22,0L113,38.39
				c0.56,0.37,0.89,1,0.89,1.66v47.89c0,0.67-0.33,1.29-0.89,1.66l-20.93,13.95C91.73,103.79,91.34,103.89,90.96,103.89z"/>
		</g>
	</g>
	<g>
		<g>
			<path fill="#ED6B21" d="M67.33,23.81c-0.38,0-0.77-0.11-1.11-0.34L64,22l-2.22,1.48c-0.92,0.61-2.16,0.36-2.77-0.55
				c-0.61-0.92-0.36-2.16,0.55-2.77l3.33-2.22c0.67-0.45,1.55-0.45,2.22,0l3.33,2.22c0.92,0.61,1.17,1.85,0.55,2.77
				C68.61,23.5,67.97,23.81,67.33,23.81z"/>
		</g>
		<g>
			<path fill="#ED6B21" d="M36.09,40.2c-0.65,0-1.28-0.31-1.67-0.89c-0.61-0.92-0.36-2.16,0.55-2.77l5.46-3.64
				c0.92-0.61,2.16-0.36,2.77,0.55c0.61,0.92,0.36,2.16-0.55,2.77l-5.46,3.64C36.86,40.09,36.48,40.2,36.09,40.2z M48.38,32.01
				c-0.65,0-1.28-0.31-1.67-0.89c-0.61-0.92-0.36-2.16,0.55-2.77l5.46-3.64c0.92-0.61,2.16-0.36,2.77,0.55s0.36,2.16-0.55,2.77
				l-5.46,3.64C49.15,31.9,48.77,32.01,48.38,32.01z"/>
		</g>
		<g>
			<path fill="#ED6B21" d="M25.94,50.97c-1.1,0-2-0.9-2-2v-4c0-0.67,0.33-1.29,0.89-1.66l3.33-2.22c0.92-0.62,2.16-0.36,2.77,0.55
				s0.36,2.16-0.55,2.77l-2.44,1.62v2.93C27.94,50.07,27.04,50.97,25.94,50.97z"/>
		</g>
		<g>
			<path fill="#ED6B21" d="M25.94,70.29c-1.1,0-2-0.9-2-2v-8.59c0-1.1,0.9-2,2-2s2,0.9,2,2v8.59C27.94,69.4,27.04,70.29,25.94,70.29
				z"/>
		</g>
		<g>
			<path fill="#ED6B21" d="M29.26,87.25c-0.38,0-0.77-0.11-1.11-0.34l-3.33-2.22c-0.56-0.37-0.89-1-0.89-1.66v-4c0-1.1,0.9-2,2-2
				s2,0.9,2,2v2.93l2.44,1.62c0.92,0.61,1.17,1.85,0.55,2.77C30.54,86.94,29.91,87.25,29.26,87.25z"/>
		</g>
		<g>
			<path fill="#ED6B21" d="M53.84,103.64c-0.38,0-0.77-0.11-1.11-0.34l-5.46-3.64c-0.92-0.61-1.17-1.85-0.55-2.77
				c0.61-0.92,1.85-1.17,2.77-0.55l5.46,3.64c0.92,0.61,1.17,1.85,0.55,2.77C55.12,103.32,54.49,103.64,53.84,103.64z M41.55,95.44
				c-0.38,0-0.77-0.11-1.11-0.34l-5.46-3.64c-0.92-0.61-1.17-1.85-0.55-2.77c0.61-0.92,1.86-1.17,2.77-0.55l5.46,3.64
				c0.92,0.61,1.17,1.85,0.55,2.77C42.83,95.13,42.2,95.44,41.55,95.44z"/>
		</g>
		<g>
			<path fill="#ED6B21" d="M64,110.41c-0.39,0-0.77-0.11-1.11-0.34l-3.33-2.22c-0.92-0.61-1.17-1.85-0.55-2.77
				c0.61-0.92,1.85-1.17,2.77-0.55L64,106l2.22-1.48c0.92-0.61,2.16-0.37,2.77,0.55c0.61,0.92,0.36,2.16-0.55,2.77l-3.33,2.22
				C64.77,110.29,64.39,110.41,64,110.41z"/>
		</g>
		<g>
			<path fill="#ED6B21" d="M74.16,103.64c-0.65,0-1.28-0.31-1.67-0.89c-0.61-0.92-0.36-2.16,0.55-2.77l5.46-3.64
				c0.92-0.61,2.16-0.36,2.77,0.55c0.61,0.92,0.36,2.16-0.55,2.77l-5.46,3.64C74.92,103.53,74.54,103.64,74.16,103.64z M86.45,95.44
				c-0.65,0-1.28-0.31-1.67-0.89c-0.61-0.92-0.36-2.16,0.55-2.77l5.46-3.64c0.92-0.61,2.16-0.36,2.77,0.55
				c0.61,0.92,0.36,2.16-0.55,2.77l-5.46,3.64C87.21,95.33,86.83,95.44,86.45,95.44z"/>
		</g>
		<g>
			<path fill="#ED6B21" d="M98.74,87.25c-0.65,0-1.28-0.31-1.67-0.89c-0.61-0.92-0.36-2.16,0.55-2.77l2.44-1.62v-2.93
				c0-1.1,0.9-2,2-2s2,0.9,2,2v4c0,0.67-0.33,1.29-0.89,1.66l-3.33,2.22C99.5,87.14,99.12,87.25,98.74,87.25z"/>
		</g>
		<g>
			<path fill="#ED6B21" d="M102.06,70.29c-1.1,0-2-0.9-2-2v-8.59c0-1.1,0.9-2,2-2s2,0.9,2,2v8.59
				C104.06,69.4,103.17,70.29,102.06,70.29z"/>
		</g>
		<g>
			<path fill="#ED6B21" d="M102.06,50.97c-1.1,0-2-0.9-2-2v-2.93l-2.44-1.62c-0.92-0.61-1.17-1.85-0.55-2.77s1.85-1.17,2.77-0.55
				l3.33,2.22c0.56,0.37,0.89,1,0.89,1.66v4C104.06,50.07,103.17,50.97,102.06,50.97z"/>
		</g>
		<g>
			<path fill="#ED6B21" d="M91.91,40.2c-0.38,0-0.77-0.11-1.11-0.34l-5.46-3.64c-0.92-0.61-1.17-1.85-0.55-2.77
				c0.61-0.92,1.85-1.17,2.77-0.55l5.46,3.64c0.92,0.61,1.17,1.85,0.55,2.77C93.19,39.89,92.55,40.2,91.91,40.2z M79.62,32.01
				c-0.38,0-0.77-0.11-1.11-0.34l-5.46-3.64c-0.92-0.61-1.17-1.85-0.55-2.77s1.85-1.17,2.77-0.55l5.46,3.64
				c0.92,0.61,1.17,1.85,0.55,2.77C80.9,31.69,80.26,32.01,79.62,32.01z"/>
		</g>
	</g>
</g>
</svg>
