<?xml version="1.0" encoding="utf-8"?>
<!-- Generator: Adobe Illustrator 24.0.3, SVG Export Plug-In . SVG Version: 6.00 Build 0)  -->
<svg version="1.0" id="Layer_1" xmlns="http://www.w3.org/2000/svg" xmlns:xlink="http://www.w3.org/1999/xlink" x="0px" y="0px"
	 viewBox="0 0 16 16" enable-background="new 0 0 16 16" xml:space="preserve">
<g id="hollowing">
	<g>
		<g>
			<path fill="#808080" d="M9.73,13.27c-0.06-0.09-0.19-0.11-0.28-0.05l-1.28,0.85c-0.09,0.06-0.24,0.06-0.33,0l-1.28-0.85
				c-0.09-0.06-0.22-0.04-0.28,0.05L6.1,13.52c-0.06,0.09-0.04,0.21,0.05,0.27l1.68,1.12c0.09,0.06,0.24,0.06,0.33,0l1.68-1.12
				c0.09-0.06,0.11-0.18,0.05-0.27L9.73,13.27z"/>
		</g>
		<g>
			<path fill="#808080" d="M8.17,1.14c-0.09-0.06-0.24-0.06-0.33,0L2.17,4.92C2.07,4.98,2,5.12,2,5.23v1.6c0,0.11,0,0.29,0,0.4v3.6
				c0,0.11,0.07,0.25,0.17,0.31l2.82,1.88c0.09,0.06,0.22,0.04,0.28-0.05l0.18-0.25c0.06-0.09,0.04-0.21-0.05-0.27l-2.52-1.68
				c-0.09-0.06-0.17-0.2-0.17-0.31V7.23c0-0.11,0-0.29,0-0.4V5.61c0-0.11,0.07-0.25,0.17-0.31l4.96-3.31c0.09-0.06,0.24-0.06,0.33,0
				l4.96,3.31c0.09,0.06,0.17,0.2,0.17,0.31v1.22c0,0.11,0,0.29,0,0.4v3.22c0,0.11-0.07,0.25-0.17,0.31l-2.52,1.68
				c-0.09,0.06-0.11,0.18-0.05,0.27l0.18,0.25c0.06,0.09,0.19,0.11,0.28,0.05l2.82-1.88c0.09-0.06,0.17-0.2,0.17-0.31v-3.6
				c0-0.11,0-0.29,0-0.4v-1.6c0-0.11-0.07-0.25-0.17-0.31L8.17,1.14z"/>
		</g>
	</g>
	<g>
		<g>
			<path fill="#ED6B21" d="M8.83,3.91c-0.07,0-0.14-0.02-0.2-0.06L8,3.43L7.37,3.85c-0.17,0.11-0.39,0.06-0.5-0.1
				c-0.11-0.17-0.06-0.39,0.1-0.5L7.8,2.7c0.12-0.08,0.28-0.08,0.4,0l0.83,0.55c0.17,0.11,0.21,0.33,0.1,0.5
				C9.06,3.85,8.95,3.91,8.83,3.91z"/>
		</g>
		<g>
			<path fill="#ED6B21" d="M3.69,7.23c-0.2,0-0.36-0.16-0.36-0.36v-1c0-0.12,0.06-0.23,0.16-0.3l0.83-0.55
				c0.17-0.11,0.39-0.06,0.5,0.1s0.06,0.39-0.1,0.5L4.05,6.06v0.81C4.05,7.07,3.89,7.23,3.69,7.23z"/>
		</g>
		<g>
			<path fill="#ED6B21" d="M4.52,11.09c-0.07,0-0.14-0.02-0.2-0.06l-0.83-0.55c-0.1-0.07-0.16-0.18-0.16-0.3V9.19
				c0-0.2,0.16-0.36,0.36-0.36s0.36,0.16,0.36,0.36v0.8l0.67,0.44c0.17,0.11,0.21,0.33,0.1,0.5C4.75,11.03,4.64,11.09,4.52,11.09z"
				/>
		</g>
		<g>
			<path fill="#ED6B21" d="M8,13.42c-0.07,0-0.14-0.02-0.2-0.06l-0.83-0.55c-0.17-0.11-0.21-0.33-0.1-0.5s0.33-0.21,0.5-0.1L8,12.63
				l0.63-0.42c0.17-0.11,0.39-0.06,0.5,0.1s0.06,0.39-0.1,0.5L8.2,13.36C8.14,13.4,8.07,13.42,8,13.42z"/>
		</g>
		<g>
			<path fill="#ED6B21" d="M11.48,11.09c-0.12,0-0.23-0.06-0.3-0.16c-0.11-0.17-0.07-0.39,0.1-0.5l0.67-0.44v-0.8
				c0-0.2,0.16-0.36,0.36-0.36s0.36,0.16,0.36,0.36v0.99c0,0.12-0.06,0.23-0.16,0.3l-0.83,0.55C11.62,11.07,11.55,11.09,11.48,11.09
				z"/>
		</g>
		<g>
			<path fill="#ED6B21" d="M12.31,7.23c-0.2,0-0.36-0.16-0.36-0.36V6.06l-0.67-0.44c-0.17-0.11-0.21-0.33-0.1-0.5
				c0.11-0.17,0.33-0.21,0.5-0.1l0.83,0.55c0.1,0.07,0.16,0.18,0.16,0.3v1C12.67,7.07,12.51,7.23,12.31,7.23z"/>
		</g>
	</g>
</g>
</svg>
