<?xml version="1.0" encoding="utf-8"?>
<!-- Generator: Adobe Illustrator 23.0.3, SVG Export Plug-In . SVG Version: 6.00 Build 0)  -->
<svg version="1.0" id="Layer_1" xmlns="http://www.w3.org/2000/svg" xmlns:xlink="http://www.w3.org/1999/xlink" x="0px" y="0px"
	 viewBox="0 0 16 16" enable-background="new 0 0 16 16" xml:space="preserve">
<g id="import_x5F_config">
	<g>
		<path fill="#808080" d="M14.22,6.61c-0.25-0.12-0.52-0.43-0.6-0.68s-0.32-1.09-0.23-1.35l0.12-0.35c0.09-0.26,0-0.63-0.2-0.83
			L12.6,2.7c-0.19-0.19-0.57-0.28-0.83-0.2l-0.35,0.12c-0.26,0.09-0.67,0.06-0.91-0.05s-1-0.54-1.12-0.79L9.22,1.45
			C9.1,1.2,8.77,1,8.5,1h-1C7.22,1,6.9,1.2,6.78,1.45L6.61,1.78C6.49,2.02,6.18,2.3,5.93,2.38S4.84,2.7,4.58,2.62L4.23,2.5
			C3.97,2.41,3.6,2.5,3.4,2.7L2.7,3.4C2.5,3.6,2.41,3.97,2.5,4.23l0.12,0.35C2.7,4.84,2.68,5.25,2.57,5.49s-0.54,1-0.79,1.12
			L1.45,6.78C1.2,6.9,1,7.22,1,7.5v1c0,0.27,0.2,0.6,0.45,0.72l0.33,0.17c0.25,0.12,0.52,0.43,0.6,0.68s0.32,1.09,0.23,1.35
			L2.5,11.77c-0.09,0.26,0,0.63,0.2,0.83L3.4,13.3c0.19,0.19,0.57,0.28,0.83,0.2l0.35-0.12c0.26-0.09,0.67-0.06,0.91,0.05
			s1,0.54,1.12,0.79l0.17,0.33C6.9,14.8,7.22,15,7.5,15h1c0.27,0,0.6-0.2,0.72-0.45l0.17-0.33c0.12-0.25,0.43-0.52,0.68-0.6
			s1.09-0.32,1.35-0.23l0.35,0.12c0.26,0.09,0.63,0,0.83-0.2l0.71-0.71c0.19-0.19,0.28-0.57,0.2-0.83l-0.12-0.35
			c-0.09-0.26-0.06-0.67,0.05-0.91s0.54-1,0.79-1.12l0.33-0.17C14.8,9.1,15,8.77,15,8.5v-1c0-0.28-0.2-0.6-0.45-0.72L14.22,6.61z
			 M8,13c-2.76,0-5-2.24-5-5s2.24-5,5-5s5,2.24,5,5S10.76,13,8,13z"/>
	</g>
	<g>
		<path fill="#ED6B21" d="M8,12c-0.55,0-1-0.45-1-1V5c0-0.55,0.45-1,1-1s1,0.45,1,1v6C9,11.55,8.55,12,8,12z"/>
	</g>
	<g>
		<path fill="#ED6B21" d="M11,9H5C4.45,9,4,8.55,4,8s0.45-1,1-1h6c0.55,0,1,0.45,1,1S11.55,9,11,9z"/>
	</g>
</g>
</svg>
