<?xml version="1.0" encoding="utf-8"?>
<!-- Generator: Adobe Illustrator 23.0.3, SVG Export Plug-In . SVG Version: 6.00 Build 0)  -->
<svg version="1.0" id="Layer_1" xmlns="http://www.w3.org/2000/svg" xmlns:xlink="http://www.w3.org/1999/xlink" x="0px" y="0px"
	 viewBox="0 0 16 16" enable-background="new 0 0 16 16" xml:space="preserve">
<g id="import_x5F_config_x5F_bundle">
	<g>
		<g>
			<path fill="#808080" d="M1.2,12.61c0.11,0.08,0.21,0.22,0.23,0.31c0.02,0.09,0.04,0.43-0.03,0.55s-0.05,0.31,0.03,0.42l0.12,0.17
				c0.08,0.11,0.25,0.19,0.39,0.17c0.13-0.02,0.3,0.01,0.38,0.06s0.33,0.28,0.37,0.41c0.04,0.13,0.18,0.25,0.32,0.27l0.21,0.04
				c0.14,0.02,0.31-0.05,0.39-0.16s0.22-0.21,0.31-0.23c0.09-0.02,0.43-0.04,0.55,0.03c0.12,0.06,0.31,0.05,0.42-0.03l0.17-0.12
				c0.11-0.08,0.19-0.25,0.17-0.39c-0.02-0.13,0.01-0.3,0.06-0.38s0.28-0.33,0.41-0.37c0.13-0.04,0.25-0.18,0.27-0.32l0.04-0.21
				c0.02-0.14-0.05-0.31-0.16-0.39c-0.11-0.08-0.21-0.22-0.23-0.31c-0.02-0.09-0.04-0.43,0.03-0.55c0.06-0.12,0.05-0.31-0.03-0.42
				L5.5,10.98c-0.08-0.11-0.25-0.19-0.39-0.17c-0.13,0.02-0.3-0.01-0.38-0.06c-0.08-0.05-0.33-0.28-0.37-0.41
				c-0.04-0.13-0.18-0.25-0.32-0.27l-0.21-0.04c-0.14-0.02-0.31,0.05-0.39,0.16s-0.22,0.21-0.31,0.23S2.7,10.46,2.58,10.4
				c-0.12-0.06-0.31-0.05-0.42,0.03l-0.17,0.12c-0.11,0.08-0.19,0.25-0.17,0.39s-0.01,0.3-0.06,0.38c-0.05,0.08-0.28,0.33-0.41,0.37
				c-0.13,0.04-0.25,0.18-0.27,0.32l-0.04,0.21C1.02,12.36,1.09,12.53,1.2,12.61z M3.71,11.42c0.61,0.1,1.02,0.68,0.92,1.28
				c-0.1,0.61-0.68,1.02-1.28,0.92c-0.61-0.1-1.02-0.68-0.92-1.28C2.53,11.73,3.1,11.32,3.71,11.42z"/>
		</g>
	</g>
	<g>
		<g>
			<path fill="#808080" d="M10.39,4.47c0.13,0.03,0.28,0.13,0.33,0.21c0.05,0.08,0.19,0.38,0.18,0.52s0.07,0.3,0.19,0.38l0.18,0.11
				c0.12,0.07,0.31,0.08,0.42,0.01c0.12-0.07,0.28-0.11,0.38-0.09c0.09,0.02,0.41,0.13,0.5,0.24c0.09,0.1,0.26,0.17,0.4,0.13
				l0.21-0.05c0.13-0.03,0.27-0.16,0.3-0.29c0.03-0.13,0.13-0.28,0.21-0.33c0.08-0.05,0.38-0.19,0.52-0.18
				c0.13,0.01,0.3-0.07,0.38-0.19l0.11-0.18c0.07-0.12,0.08-0.31,0.01-0.42c-0.07-0.12-0.11-0.28-0.09-0.38
				c0.02-0.09,0.13-0.41,0.24-0.5c0.1-0.09,0.17-0.26,0.13-0.4l-0.05-0.21c-0.03-0.13-0.16-0.27-0.29-0.3
				c-0.13-0.03-0.28-0.13-0.33-0.21s-0.19-0.38-0.18-0.52c0.01-0.13-0.07-0.3-0.19-0.38l-0.18-0.11c-0.12-0.07-0.31-0.08-0.42-0.01
				c-0.12,0.07-0.28,0.11-0.38,0.09c-0.09-0.02-0.41-0.13-0.5-0.24c-0.09-0.1-0.26-0.17-0.4-0.13L11.87,1.1
				c-0.13,0.03-0.27,0.16-0.3,0.29s-0.13,0.28-0.21,0.33s-0.38,0.19-0.52,0.18s-0.3,0.07-0.38,0.19l-0.11,0.18
				c-0.07,0.12-0.08,0.31-0.01,0.42c0.07,0.12,0.11,0.28,0.09,0.38s-0.13,0.41-0.24,0.5c-0.1,0.09-0.17,0.26-0.13,0.4l0.05,0.21
				C10.13,4.3,10.26,4.44,10.39,4.47z M12.27,2.43c0.6-0.13,1.2,0.24,1.33,0.84c0.13,0.6-0.24,1.2-0.84,1.33
				c-0.6,0.13-1.2-0.24-1.33-0.84C11.3,3.16,11.67,2.56,12.27,2.43z"/>
		</g>
	</g>
	<g>
		<g>
			<path fill="#808080" d="M1.85,4.19C1.8,4.32,1.66,4.47,1.53,4.53L1.15,4.71C1.02,4.77,0.92,4.93,0.91,5.06L0.89,5.92
				c0,0.14,0.09,0.3,0.21,0.37l0.37,0.2C1.6,6.55,1.73,6.71,1.77,6.84l0.17,0.44C2,7.41,2,7.62,1.96,7.75l-0.15,0.4
				C1.76,8.28,1.8,8.47,1.89,8.57l0.58,0.62c0.09,0.1,0.28,0.15,0.41,0.11L3.3,9.17c0.13-0.04,0.34-0.02,0.46,0.04l0.43,0.2
				c0.13,0.05,0.28,0.19,0.34,0.32l0.18,0.39c0.06,0.12,0.22,0.23,0.35,0.23l0.85,0.03c0.14,0,0.3-0.09,0.37-0.21l0.2-0.37
				c0.07-0.12,0.23-0.25,0.36-0.29l0.44-0.17c0.13-0.06,0.33-0.06,0.46-0.02l0.4,0.15C8.28,9.5,8.47,9.47,8.57,9.37l0.62-0.58
				c0.1-0.09,0.15-0.28,0.11-0.41L9.17,7.97C9.13,7.84,9.16,7.63,9.22,7.51l0.2-0.43c0.05-0.13,0.19-0.28,0.32-0.34l0.39-0.18
				c0.12-0.06,0.23-0.22,0.23-0.35l0.03-0.85c0-0.14-0.09-0.3-0.21-0.37l-0.37-0.2C9.67,4.71,9.54,4.55,9.49,4.42L9.33,3.98
				C9.27,3.85,9.26,3.64,9.31,3.52l0.15-0.4C9.5,2.99,9.47,2.8,9.37,2.7L8.79,2.08c-0.09-0.1-0.28-0.15-0.41-0.11L7.97,2.09
				C7.84,2.13,7.63,2.11,7.51,2.05l-0.43-0.2C6.94,1.8,6.79,1.66,6.73,1.53L6.56,1.15C6.5,1.02,6.34,0.92,6.2,0.91L5.35,0.89
				c-0.14,0-0.3,0.09-0.37,0.21l-0.2,0.37C4.71,1.6,4.55,1.73,4.42,1.77L3.98,1.94C3.85,2,3.64,2,3.52,1.96l-0.4-0.15
				C2.99,1.76,2.8,1.8,2.7,1.89L2.08,2.48c-0.1,0.09-0.15,0.28-0.11,0.41L2.09,3.3c0.04,0.13,0.02,0.34-0.04,0.46L1.85,4.19z
				 M6.75,3.15c1.37,0.62,1.98,2.23,1.36,3.6s-2.23,1.98-3.6,1.36C3.15,7.5,2.54,5.89,3.15,4.52S5.38,2.54,6.75,3.15z"/>
		</g>
	</g>
	<g>
		<g>
			<path fill="#ED6B21" d="M11,15c-0.55,0-1-0.45-1-1V8c0-0.55,0.45-1,1-1s1,0.45,1,1v6C12,14.55,11.55,15,11,15z"/>
		</g>
	</g>
	<g>
		<g>
			<path fill="#ED6B21" d="M14,12H8c-0.55,0-1-0.45-1-1s0.45-1,1-1h6c0.55,0,1,0.45,1,1S14.55,12,14,12z"/>
		</g>
	</g>
</g>
</svg>
