<?xml version="1.0" encoding="utf-8"?>
<!-- Generator: Adobe Illustrator 24.3.0, SVG Export Plug-In . SVG Version: 6.00 Build 0)  -->
<svg version="1.0" id="Layer_1" xmlns="http://www.w3.org/2000/svg" xmlns:xlink="http://www.w3.org/1999/xlink" x="0px" y="0px"
	 viewBox="0 0 128 128" enable-background="new 0 0 128 128" xml:space="preserve">
<g id="instance_x5F_remove">
	<g>
		<path fill="#FFFFFF" d="M65.02,122.49c-1.36,0-2.47-1.09-2.5-2.45c-0.03-1.38,1.07-2.52,2.45-2.55c3.71-0.07,7.4-0.52,10.98-1.33
			c1.34-0.31,2.69,0.54,2.99,1.88c0.31,1.35-0.54,2.69-1.88,2.99c-3.91,0.89-7.95,1.38-12,1.46
			C65.05,122.49,65.04,122.49,65.02,122.49z M51.6,121.12c-0.18,0-0.37-0.02-0.55-0.06c-3.93-0.89-7.79-2.19-11.46-3.88
			c-1.25-0.58-1.8-2.06-1.23-3.32c0.58-1.25,2.06-1.8,3.32-1.23c3.35,1.54,6.88,2.73,10.47,3.55c1.35,0.3,2.19,1.64,1.89,2.99
			C53.78,120.33,52.74,121.12,51.6,121.12z M89.21,116.52c-0.91,0-1.79-0.5-2.23-1.37c-0.62-1.23-0.13-2.74,1.1-3.36
			c3.29-1.66,6.42-3.67,9.3-5.98c1.08-0.86,2.65-0.69,3.51,0.39c0.86,1.08,0.69,2.65-0.39,3.51c-3.15,2.52-6.58,4.72-10.17,6.53
			C89.97,116.44,89.58,116.52,89.21,116.52z M29.14,110.33c-0.55,0-1.1-0.18-1.56-0.54c-3.15-2.51-6.06-5.36-8.63-8.46
			c-0.88-1.06-0.73-2.64,0.33-3.52c1.06-0.88,2.64-0.74,3.52,0.33c2.35,2.84,5.01,5.44,7.9,7.74c1.08,0.86,1.26,2.43,0.4,3.51
			C30.61,110.01,29.88,110.33,29.14,110.33z M108.39,100.64c-0.53,0-1.07-0.17-1.52-0.52c-1.09-0.84-1.3-2.41-0.46-3.51
			c2.25-2.93,4.21-6.09,5.81-9.41c0.6-1.24,2.1-1.77,3.34-1.17c1.24,0.6,1.77,2.09,1.17,3.34c-1.75,3.63-3.89,7.09-6.35,10.29
			C109.88,100.31,109.14,100.64,108.39,100.64z M13.58,90.89c-0.93,0-1.82-0.52-2.25-1.41c-1.76-3.63-3.14-7.46-4.11-11.37
			c-0.33-1.34,0.49-2.7,1.83-3.03c1.34-0.33,2.7,0.49,3.03,1.83c0.89,3.58,2.15,7.07,3.76,10.39c0.6,1.24,0.08,2.74-1.16,3.34
			C14.32,90.81,13.94,90.89,13.58,90.89z M118.82,78.01c-0.17,0-0.34-0.02-0.51-0.05c-1.35-0.28-2.22-1.61-1.94-2.96
			c0.75-3.59,1.13-7.29,1.13-11l0-0.23c0-1.38,1.12-2.5,2.5-2.5s2.5,1.12,2.5,2.5l0,0.2c0,4.08-0.42,8.12-1.24,12.05
			C121.02,77.2,119.98,78.01,118.82,78.01z M8,66.62c-1.38,0-2.5-1.12-2.5-2.5V64c0-4.01,0.41-8.01,1.21-11.9
			c0.28-1.35,1.6-2.22,2.95-1.94c1.35,0.28,2.22,1.6,1.94,2.95C10.87,56.67,10.5,60.33,10.5,64v0.12C10.5,65.5,9.38,66.62,8,66.62z
			 M118.33,52.88c-1.12,0-2.14-0.76-2.42-1.89c-0.89-3.57-2.17-7.07-3.78-10.39c-0.61-1.24-0.09-2.74,1.15-3.34
			c1.24-0.6,2.74-0.09,3.34,1.15c1.77,3.63,3.16,7.45,4.14,11.36c0.33,1.34-0.48,2.7-1.82,3.03
			C118.74,52.85,118.53,52.88,118.33,52.88z M13.48,42.32c-0.36,0-0.73-0.08-1.08-0.25c-1.25-0.6-1.77-2.09-1.17-3.34
			c1.74-3.63,3.87-7.1,6.33-10.3c0.84-1.09,2.41-1.3,3.51-0.46c1.1,0.84,1.3,2.41,0.46,3.51c-2.25,2.93-4.2,6.1-5.79,9.42
			C15.3,41.79,14.41,42.32,13.48,42.32z M107.05,30.68c-0.72,0-1.43-0.31-1.92-0.9c-2.36-2.84-5.03-5.44-7.92-7.73
			c-1.08-0.86-1.26-2.43-0.41-3.51c0.86-1.08,2.43-1.26,3.51-0.41c3.16,2.5,6.07,5.34,8.65,8.44c0.88,1.06,0.74,2.64-0.32,3.52
			C108.18,30.49,107.61,30.68,107.05,30.68z M28.97,22.81c-0.73,0-1.46-0.32-1.95-0.94c-0.86-1.08-0.69-2.65,0.38-3.51
			c3.15-2.53,6.56-4.73,10.16-6.55c1.23-0.63,2.74-0.13,3.36,1.1c0.62,1.23,0.13,2.74-1.1,3.36c-3.28,1.67-6.41,3.69-9.29,6
			C30.07,22.63,29.52,22.81,28.97,22.81z M87.25,15.54c-0.35,0-0.7-0.07-1.04-0.23c-3.36-1.53-6.88-2.72-10.48-3.52
			c-1.35-0.3-2.2-1.64-1.89-2.99c0.3-1.35,1.64-2.2,2.99-1.89c3.94,0.88,7.79,2.18,11.46,3.86c1.26,0.57,1.81,2.06,1.23,3.31
			C89.11,15,88.2,15.54,87.25,15.54z M51.37,11.93c-1.14,0-2.17-0.78-2.43-1.94c-0.31-1.35,0.53-2.69,1.88-3
			c3.91-0.9,7.95-1.4,12-1.48c1.38-0.04,2.52,1.07,2.55,2.45c0.03,1.38-1.07,2.52-2.45,2.55c-3.7,0.07-7.39,0.53-10.97,1.35
			C51.75,11.91,51.56,11.93,51.37,11.93z"/>
	</g>
	<g>
		<path fill="#ED6B21" d="M96,66.5H32c-1.38,0-2.5-1.12-2.5-2.5s1.12-2.5,2.5-2.5h64c1.38,0,2.5,1.12,2.5,2.5S97.38,66.5,96,66.5z"
			/>
	</g>
</g>
</svg>
