<?xml version="1.0" encoding="utf-8"?>
<!-- Generator: Adobe Illustrator 23.0.3, SVG Export Plug-In . SVG Version: 6.00 Build 0)  -->
<svg version="1.0" id="Layer_1" xmlns="http://www.w3.org/2000/svg" xmlns:xlink="http://www.w3.org/1999/xlink" x="0px" y="0px"
	 viewBox="0 0 16 16" enable-background="new 0 0 16 16" xml:space="preserve">
<g id="lock_x5F_closed">
	<path fill="none" stroke="#FFFFFF" stroke-width="2" stroke-miterlimit="10" d="M4,8V4c0,0,0-2,2-2c1,0,3,0,4,0c2,0,2,2,2,2v4"/>
	<path fill="#FFFFFF" d="M13,8H3C2.45,8,2,8.45,2,9v5c0,0.55,0.45,1,1,1h10c0.55,0,1-0.45,1-1V9C14,8.45,13.55,8,13,8z M10,12H8.91
		c-0.21,0.58-0.76,1-1.41,1C6.67,13,6,12.33,6,11.5S6.67,10,7.5,10c0.65,0,1.2,0.42,1.41,1H10V12z"/>
</g>
</svg>
