<?xml version="1.0" encoding="utf-8"?>
<!-- Generator: Adobe Illustrator 25.4.1, SVG Export Plug-In . SVG Version: 6.00 Build 0)  -->
<svg version="1.0" id="Layer_1" xmlns="http://www.w3.org/2000/svg" xmlns:xlink="http://www.w3.org/1999/xlink" x="0px" y="0px"
	 width="128px" height="128px" viewBox="0 0 128 128" enable-background="new 0 0 128 128" xml:space="preserve">
<path fill="#808080" d="M52.87,108.38c-5.24,0-9.5-4.26-9.5-9.5s4.26-9.5,9.5-9.5s9.5,4.26,9.5,9.5S58.11,108.38,52.87,108.38z
	 M52.87,92.38c-3.58,0-6.5,2.92-6.5,6.5s2.92,6.5,6.5,6.5s6.5-2.92,6.5-6.5S56.46,92.38,52.87,92.38z M29.82,83.59
	c-5.24,0-9.5-4.26-9.5-9.5s4.26-9.5,9.5-9.5s9.5,4.26,9.5,9.5S35.06,83.59,29.82,83.59z M29.82,67.59c-3.58,0-6.5,2.92-6.5,6.5
	s2.92,6.5,6.5,6.5s6.5-2.92,6.5-6.5S33.4,67.59,29.82,67.59z M34,49.86c-5.24,0-9.5-4.26-9.5-9.5s4.26-9.5,9.5-9.5s9.5,4.26,9.5,9.5
	S39.24,49.86,34,49.86z M34,33.86c-3.58,0-6.5,2.92-6.5,6.5s2.92,6.5,6.5,6.5s6.5-2.92,6.5-6.5S37.59,33.86,34,33.86z M64,35.21
	c-5.24,0-9.5-4.26-9.5-9.5s4.26-9.5,9.5-9.5s9.5,4.26,9.5,9.5S69.24,35.21,64,35.21z M64,19.21c-3.58,0-6.5,2.92-6.5,6.5
	s2.92,6.5,6.5,6.5s6.5-2.92,6.5-6.5S67.58,19.21,64,19.21z M96.1,52.24c-5.24,0-9.5-4.26-9.5-9.5s4.26-9.5,9.5-9.5s9.5,4.26,9.5,9.5
	S101.34,52.24,96.1,52.24z M96.1,36.24c-3.58,0-6.5,2.92-6.5,6.5s2.92,6.5,6.5,6.5s6.5-2.92,6.5-6.5S99.69,36.24,96.1,36.24z
	 M72.54,120.87c2.6-0.39,4.78-2.06,5.81-4.46c1.06-2.47,0.77-5.29-0.8-7.52c-3.1-4.43-4.49-9.87-3.92-15.31
	c0.26-2.47,0.94-4.89,2.03-7.17c0.36-0.75,0.04-1.64-0.71-2c-0.75-0.36-1.64-0.04-2,0.71c-1.23,2.6-2.01,5.34-2.3,8.15
	c-0.64,6.16,0.94,12.32,4.45,17.34c0.96,1.38,1.15,3.11,0.5,4.62c-0.63,1.47-1.91,2.44-3.5,2.68c-3.29,0.49-6.66,0.68-10.01,0.57
	c-28.61-0.99-51.7-24.18-52.56-52.79c-0.46-15.2,5.2-29.48,15.94-40.21S50.49,9.07,65.68,9.53c28.62,0.86,51.8,23.94,52.79,52.56
	c0.11,3.25-0.06,6.51-0.52,9.69c-0.24,1.66-1.31,3.06-2.87,3.73c-1.52,0.66-3.16,0.5-4.49-0.42c-3.29-2.3-7.17-3.8-11.21-4.34
	c-0.83-0.11-1.58,0.47-1.68,1.29c-0.11,0.82,0.47,1.58,1.29,1.68c3.57,0.47,6.99,1.79,9.89,3.82c2.17,1.52,4.94,1.78,7.4,0.72
	c2.52-1.09,4.26-3.36,4.65-6.06c0.48-3.36,0.67-6.8,0.55-10.22c-1.04-30.19-25.5-54.55-55.7-55.45
	c-16.02-0.48-31.1,5.49-42.42,16.81C12.02,34.66,6.05,49.73,6.53,65.77c0.9,30.19,25.26,54.66,55.45,55.7
	c0.67,0.02,1.34,0.04,2.01,0.04C66.86,121.5,69.73,121.29,72.54,120.87z"/>
<path fill="#ED6B21" d="M115.41,105.01l-27.66-38.8c7.76-12.6-22.89-18.09-27.92-23.34c-2.48-2.6-0.44,35.31,15.58,32.26
	l29.74,37.59c0.54,0.91,3.45,5.54,7.39,6.36c0.39,0.08,0.78,0.12,1.16,0.12c1.26,0,2.48-0.42,3.58-1.25
	c1.36-1.02,2.14-2.41,2.27-4.01C119.87,109.95,116.14,105.79,115.41,105.01z M78.44,74.13c1.24-0.57,2.54-1.37,3.92-2.42
	c1.39-1.05,2.53-2.06,3.45-3.04l6.94,9.73l-6.85,5.15L78.44,74.13z M116.56,113.69c-0.06,0.76-0.4,1.35-1.08,1.85
	c-0.77,0.58-1.51,0.76-2.33,0.6c-2.38-0.49-4.75-3.78-5.46-5.01c-0.04-0.06-0.08-0.12-0.12-0.18L87.76,85.91l6.73-5.06l18.53,25.99
	c0.04,0.06,0.09,0.12,0.14,0.17C114.11,107.98,116.75,111.3,116.56,113.69z"/>
</svg>
