<?xml version="1.0" encoding="utf-8"?>
<!-- Generator: Adobe Illustrator 23.0.2, SVG Export Plug-In . SVG Version: 6.00 Build 0)  -->
<svg version="1.0" id="Layer_1" xmlns="http://www.w3.org/2000/svg" xmlns:xlink="http://www.w3.org/1999/xlink" x="0px" y="0px"
	 viewBox="0 0 128 128" enable-background="new 0 0 128 128" xml:space="preserve">
<g id="move">
	<g>
		<path fill="#FFFFFF" d="M83.47,86.79H44.53c-1.83,0-3.32-1.49-3.32-3.32V44.53c0-1.83,1.49-3.32,3.32-3.32h38.94
			c1.83,0,3.32,1.49,3.32,3.32v38.94C86.79,85.3,85.3,86.79,83.47,86.79z M44.53,44.21c-0.17,0-0.32,0.15-0.32,0.32v38.94
			c0,0.17,0.15,0.32,0.32,0.32h38.94c0.17,0,0.32-0.15,0.32-0.32V44.53c0-0.17-0.15-0.32-0.32-0.32H44.53z"/>
	</g>
	<g>
		<g>
			<g>
				<path fill="#ED6B21" d="M76.81,28.66H51.19c-1.06,0-1.9-0.46-2.31-1.25c-0.4-0.8-0.28-1.74,0.35-2.6L61.72,7.7
					c0.57-0.78,1.4-1.22,2.28-1.22c0,0,0,0,0,0c0.89,0,1.72,0.45,2.28,1.22l12.48,17.1c0.63,0.86,0.75,1.81,0.35,2.6
					C78.71,28.2,77.87,28.66,76.81,28.66z M52.33,25.66l23.34,0L64,9.67L52.33,25.66z"/>
			</g>
		</g>
		<g>
			<g>
				<path fill="#ED6B21" d="M26.44,79.35c-0.54,0-1.1-0.2-1.63-0.58L7.7,66.28c-0.78-0.57-1.22-1.4-1.22-2.28s0.45-1.72,1.22-2.29
					l17.1-12.48c0.86-0.62,1.81-0.75,2.6-0.35s1.25,1.25,1.25,2.31v25.61c0,1.06-0.46,1.9-1.25,2.31
					C27.1,79.27,26.77,79.35,26.44,79.35z M9.67,64l15.99,11.67l0-23.34L9.67,64z"/>
			</g>
		</g>
		<g>
			<g>
				<path fill="#ED6B21" d="M64,121.52c-0.89,0-1.72-0.45-2.28-1.22l-12.48-17.1c-0.63-0.86-0.75-1.81-0.35-2.6s1.25-1.25,2.31-1.25
					h25.61c1.06,0,1.9,0.46,2.31,1.25c0.4,0.8,0.28,1.74-0.35,2.6l-12.48,17.1C65.72,121.07,64.89,121.52,64,121.52L64,121.52z
					 M52.33,102.34L64,118.33l11.67-15.99L52.33,102.34z M76.87,102.34L76.87,102.34L76.87,102.34z"/>
			</g>
		</g>
		<g>
			<g>
				<path fill="#ED6B21" d="M101.56,79.35c-0.34,0-0.67-0.08-0.97-0.23c-0.8-0.41-1.25-1.25-1.25-2.31V51.19
					c0-1.06,0.46-1.9,1.25-2.31c0.8-0.41,1.75-0.28,2.6,0.35l17.1,12.48c0.78,0.57,1.22,1.4,1.22,2.29s-0.45,1.72-1.22,2.28
					l-17.1,12.48C102.67,79.15,102.1,79.35,101.56,79.35z M102.34,52.33l0,23.34L118.33,64L102.34,52.33z"/>
			</g>
		</g>
	</g>
</g>
</svg>
