<?xml version="1.0" encoding="iso-8859-1"?>
<!-- Generator: Adobe Illustrator 16.0.0, SVG Export Plug-In . SVG Version: 6.00 Build 0)  -->
<!DOCTYPE svg PUBLIC "-//W3C//DTD SVG 1.1//EN" "http://www.w3.org/Graphics/SVG/1.1/DTD/svg11.dtd">
<svg version="1.1" id="Capa_1" xmlns="http://www.w3.org/2000/svg" xmlns:xlink="http://www.w3.org/1999/xlink" x="0px" y="0px"
	 width="121.807px" height="121.807px" viewBox="0 0 121.807 121.807" style="enable-background:new 0 0 121.807 121.807;"
	 xml:space="preserve">
<g>
	<g>
		<path fill="#ED6B21" d="M7.308,75.519C3.271,75.519,0,78.789,0,82.827c0,4.036,3.271,7.31,7.308,7.31h18.897l-3.496,3.495
			c-2.855,2.854-2.855,7.48,0,10.337c1.428,1.427,3.299,2.141,5.167,2.141c1.869,0,3.74-0.714,5.167-2.139l13.833-13.834h67.621
			c4.037,0,7.31-3.272,7.31-7.31s-3.271-7.309-7.31-7.309H61.495L80.982,56.03h33.515c4.037,0,7.31-3.272,7.31-7.308
			c0-4.037-3.271-7.309-7.31-7.309H95.602l13.24-13.24c2.854-2.855,2.854-7.481,0-10.336c-2.855-2.855-7.479-2.853-10.334,0
			L74.932,41.414H7.308C3.271,41.414,0,44.685,0,48.723c0,4.036,3.271,7.308,7.308,7.308H60.31L40.821,75.519H7.308z"/>
	</g>
</g>
</svg>
