<?xml version="1.0" encoding="UTF-8" standalone="no"?>
<svg
   xmlns:dc="http://purl.org/dc/elements/1.1/"
   xmlns:cc="http://creativecommons.org/ns#"
   xmlns:rdf="http://www.w3.org/1999/02/22-rdf-syntax-ns#"
   xmlns:svg="http://www.w3.org/2000/svg"
   xmlns="http://www.w3.org/2000/svg"
   xmlns:sodipodi="http://sodipodi.sourceforge.net/DTD/sodipodi-0.dtd"
   xmlns:inkscape="http://www.inkscape.org/namespaces/inkscape"
   version="1.1"
   id="minimalize_window"
   x="0px"
   y="0px"
   viewBox="0 0 100 100"
   style="enable-background:new 0 0 100 100;"
   xml:space="preserve"
   sodipodi:docname="notification_documentation_hover.svg"
   inkscape:version="1.0 (4035a4fb49, 2020-05-01)"><metadata
   id="metadata23"><rdf:RDF><cc:Work
       rdf:about=""><dc:format>image/svg+xml</dc:format><dc:type
         rdf:resource="http://purl.org/dc/dcmitype/StillImage" /></cc:Work></rdf:RDF></metadata><defs
   id="defs21" /><sodipodi:namedview
   inkscape:document-rotation="0"
   pagecolor="#ffffff"
   bordercolor="#666666"
   borderopacity="1"
   objecttolerance="10"
   gridtolerance="10"
   guidetolerance="10"
   inkscape:pageopacity="0"
   inkscape:pageshadow="2"
   inkscape:window-width="2560"
   inkscape:window-height="1377"
   id="namedview19"
   showgrid="false"
   inkscape:zoom="10.08"
   inkscape:cx="50"
   inkscape:cy="50"
   inkscape:window-x="-8"
   inkscape:window-y="-8"
   inkscape:window-maximized="1"
   inkscape:current-layer="minimalize_window" />
<style
   type="text/css"
   id="style2">
	.st0{fill:#ED6B21;}
	.st1{fill:#EB6B21;}
	.st2{fill:none;stroke:#ED6B21;stroke-width:2.8346;stroke-miterlimit:10;}
</style>
<g
   id="g6"
   transform="matrix(1.15,0,0,1.15,-7.5,-7.5)">
	<path
   class="st0"
   d="M 80,92.8 H 20 C 12.9,92.8 7.2,87 7.2,80 V 20 C 7.2,12.9 13,7.2 20,7.2 h 60 c 7.1,0 12.8,5.8 12.8,12.8 v 60 c 0,7.1 -5.7,12.8 -12.8,12.8 z m -60,-80 c -4,0 -7.2,3.2 -7.2,7.2 v 60 c 0,3.9 3.2,7.2 7.2,7.2 h 60 c 3.9,0 7.2,-3.2 7.2,-7.2 V 20 C 87.2,16 84,12.8 80,12.8 Z"
   id="path4" />
</g>
<g
   id="g10"
   transform="matrix(1.15,0,0,1.15,-7.5,-7.5)">
	<path
   class="st1"
   d="M 31.9,67.7 H 65 c 0.1,0 0.2,0 0.3,0 0,0 0,0 0,0 0.7,0 1.3,-0.6 1.3,-1.3 V 47.9 C 57.1,50.8 51.6,43.4 47,36 c -1.8,-2.7 2,-4.6 2.8,-7.1 h -15.9 -2 c -3.4,0 -6.2,2.8 -6.2,6.2 0,0 0,0.1 0,0.1 0,3.1 0,32.1 0,35.9 0,0.1 0,0.1 0,0.2 0,3.3 2.6,6 5.8,6.2 0.1,0 0.1,0 0.2,0 h 33.6 c 0.7,0 1.3,-0.6 1.3,-1.3 v -4.8 c 0,-0.7 -0.6,-1.3 -1.3,-1.3 -0.7,0 -1.3,0.6 -1.3,1.3 v 3.5 H 31.9 c -1.9,0 -3.5,-1.5 -3.6,-3.5 0,0 0,-0.1 0,-0.1 0,-0.1 0,-0.1 0,-0.3 0.1,-1.8 1.6,-3.3 3.6,-3.3 z m 0.8,-32.6 c 0,-0.7 0.6,-1.3 1.3,-1.3 0.7,0 1.3,0.6 1.3,1.3 v 26 c 0,0.7 -0.6,1.3 -1.3,1.3 -0.7,0 -1.3,-0.6 -1.3,-1.3 z"
   id="path8" />
</g>
<polygon
   class="st2"
   points="54.9,19.8 46.9,33.8 54.9,47.8 71.1,47.8 79.2,33.8 71.1,19.8 "
   id="polygon12"
   transform="matrix(1.15,0,0,1.15,-7.5,-7.5)" />
<g
   id="g16"
   transform="matrix(1.15,0,0,1.15,-7.5,-7.5)">
	<path
   class="st0"
   d="m 59.6,31.6 c 1.6,-0.4 2.9,-0.6 3.8,-0.6 0.6,0 1,0.1 1.4,0.3 0.3,0.2 0.5,0.5 0.5,1 0,0.2 0,0.4 -0.1,0.5 l -1.7,8.3 c 0,0.2 -0.1,0.4 -0.1,0.5 0,0.4 0.1,0.6 0.4,0.7 0.3,0.1 0.8,0.2 1.6,0.2 l -0.1,0.6 c -1.5,0.4 -2.7,0.6 -3.6,0.6 -0.7,0 -1.2,-0.1 -1.5,-0.4 -0.4,-0.3 -0.5,-0.6 -0.5,-1.2 0,-0.2 0,-0.6 0.1,-0.9 l 1.6,-7.6 c 0.1,-0.4 0.1,-0.6 0.1,-0.7 0,-0.2 -0.1,-0.4 -0.3,-0.5 -0.2,-0.1 -0.8,-0.1 -1.7,-0.1 z m 6.6,-5.3 c 0,0.6 -0.2,1.1 -0.6,1.5 -0.4,0.4 -0.8,0.6 -1.4,0.6 -0.5,0 -1,-0.2 -1.3,-0.5 -0.3,-0.3 -0.5,-0.8 -0.5,-1.3 0,-0.6 0.2,-1.1 0.6,-1.5 0.4,-0.4 0.8,-0.5 1.4,-0.5 0.5,0 1,0.2 1.3,0.5 0.3,0.2 0.5,0.6 0.5,1.2 z"
   id="path14" />
</g>
<path
   id="path15"
   d="M 14.048833,99.095468 C 10.758797,98.776287 7.5585129,97.246225 5.156144,94.843856 2.702378,92.39009 1.2229673,89.248663 0.90064133,85.807586 c -0.14895496,-1.590207 -0.14895496,-70.024965 0,-71.615172 C 1.5626661,7.1247937 7.1461659,1.5575143 14.236111,0.89568416 c 1.551488,-0.14482788 70.023035,-0.14008542 71.571475,0.004957 4.714923,0.44164734 8.90055,3.11165724 11.36025,7.24669874 1.053844,1.7716328 1.752116,4.0052851 1.940273,6.2065901 0.07688,0.899426 0.09971,11.568412 0.07809,36.489324 -0.02915,33.604835 -0.03884,35.26143 -0.211522,36.160714 -0.593346,3.090004 -1.947825,5.664097 -4.12722,7.843492 -2.179385,2.179385 -4.753372,3.533814 -7.843492,4.127235 -0.900554,0.172942 -2.523851,0.181552 -36.507936,0.193651 -19.561012,0.007 -35.962251,-0.02583 -36.447199,-0.07288 z m 71.469642,-6.342539 c 3.509574,-0.435077 6.434988,-3.150322 7.155917,-6.641818 0.109946,-0.532474 0.133148,-6.842325 0.133148,-36.210317 V 14.335317 L 92.58317,13.492063 C 91.76058,10.400506 89.599494,8.2394197 86.507937,7.4168301 L 85.664683,7.1924603 H 50 14.335317 L 13.492063,7.4168301 C 10.424882,8.2329338 8.2941745,10.346391 7.4172519,13.44246 l -0.2247916,0.793651 -0.029436,35.119048 c -0.020768,24.777514 0.00225,35.396574 0.078183,36.061508 0.432718,3.78947 3.4199857,6.848151 7.1628477,7.334081 0.970581,0.12601 70.098451,0.128129 71.114421,0.0022 z"
   style="fill:#ed6b21;stroke-width:0.0992064" /><path
   id="path17"
   d="m 27.402334,81.347356 c -2.46563,-0.645993 -4.441405,-2.667097 -5.08098,-5.19755 -0.195316,-0.772763 -0.198338,-1.11524 -0.198338,-22.479171 0,-21.262694 0.0039,-21.709667 0.195519,-22.458924 0.630167,-2.46393 2.411238,-4.32372 4.963211,-5.182573 0.512441,-0.172459 1.154556,-0.186717 10.55483,-0.23436 l 10.009195,-0.05073 3.433266,-6.023277 3.433265,-6.023276 10.227283,-0.0035 10.227284,-0.0035 4.947674,8.556548 c 2.72122,4.706101 5.022042,8.690476 5.112937,8.854166 l 0.165263,0.29762 -5.085935,8.779761 -5.085937,8.779762 -3.085249,0.02621 -3.08525,0.02621 -0.02618,10.15999 c -0.02599,10.086364 -0.02766,10.161975 -0.230721,10.433928 -0.112498,0.150664 -0.327816,0.365981 -0.478485,0.478479 l -0.273943,0.204542 -20.007625,0.0496 -20.007626,0.0496 -0.64532,0.30517 c -0.863407,0.408303 -1.610615,1.150455 -2.012489,1.998871 -0.297084,0.627187 -0.318048,0.74183 -0.313398,1.713816 0.0041,0.850376 0.04647,1.141866 0.230898,1.587301 0.503415,1.215869 1.462305,2.105354 2.676354,2.482637 0.61847,0.1922 0.988675,0.195935 19.419643,0.195935 h 18.789153 v -2.217472 c 0,-2.136287 0.0082,-2.229479 0.223214,-2.545442 0.333394,-0.489856 0.678773,-0.704629 1.143441,-0.711041 0.472685,-0.0065 0.949227,0.238892 1.251943,0.644742 0.200471,0.26877 0.209871,0.405024 0.236118,3.422619 0.02536,2.915086 0.01385,3.167854 -0.15889,3.489927 -0.102423,0.190972 -0.33338,0.447669 -0.513236,0.570437 l -0.327012,0.223214 -19.950606,-0.0055 c -19.303761,-0.0053 -19.974038,-0.0116 -20.673273,-0.194797 z m 4.918865,-17.249815 c 0.21646,-0.110429 0.46075,-0.351687 0.591286,-0.583944 l 0.222436,-0.395771 -0.0016,-15.313873 -0.0016,-15.313874 -0.221583,-0.386498 c -0.57383,-1.000911 -2.022858,-1.00842 -2.605918,-0.0135 l -0.244632,0.417435 V 47.812673 63.11783 l 0.209179,0.372185 c 0.407473,0.725 1.302779,0.990007 2.052496,0.60753 z M 76.611628,40.277778 c 1.786692,-3.082838 3.676401,-6.349242 4.199352,-7.258677 l 0.95082,-1.653518 -4.19361,-7.250805 -4.193609,-7.250805 -8.434517,0.02535 -8.434516,0.02536 -4.093798,7.142857 c -2.547059,4.444106 -4.082321,7.220788 -4.063423,7.349119 0.03558,0.241604 8.073435,14.342072 8.237262,14.45028 0.06096,0.04027 3.86084,0.06259 8.444173,0.0496 l 8.333333,-0.02361 z"
   style="fill:#ed6b21;stroke-width:0.0992064" /><path
   id="path19"
   d="m 62.103975,42.442311 c -0.622813,-0.321464 -0.893312,-0.762703 -0.895015,-1.459958 -8.07e-4,-0.330477 0.427325,-2.594263 1.056162,-5.58455 1.288645,-6.127847 1.317398,-5.681554 -0.373774,-5.801597 -0.808155,-0.05736 -0.87932,-0.07931 -0.877924,-0.270784 0.0028,-0.3827 0.164573,-0.474726 1.244533,-0.707914 2.655322,-0.573345 4.18941,-0.539022 4.89721,0.109569 0.324612,0.297458 0.354127,0.36998 0.347372,0.853564 -0.0041,0.290667 -0.461556,2.693665 -1.01666,5.339994 -0.555103,2.646329 -1.036614,5.017302 -1.070022,5.268827 -0.11023,0.829884 0.170767,1.055853 1.449222,1.165421 l 0.744048,0.06377 -0.03233,0.296879 c -0.01778,0.163282 -0.0401,0.303981 -0.0496,0.312662 -0.0095,0.0087 -0.552989,0.138865 -1.207751,0.289294 -0.864367,0.198586 -1.54376,0.284648 -2.480158,0.314172 -1.198015,0.03777 -1.321357,0.02431 -1.735311,-0.189347 z"
   style="fill:#ed6b21;stroke-width:0.0992064" /><path
   id="path21"
   d="m 65.653905,25.00115 c -1.412607,-0.425822 -1.792539,-2.40789 -0.681087,-3.553165 0.738955,-0.761443 1.931874,-0.828272 2.893189,-0.16208 0.479355,0.332193 0.68558,0.775979 0.68558,1.47533 0,0.66711 -0.157427,1.080128 -0.606778,1.591911 -0.565433,0.643992 -1.462474,0.897729 -2.290904,0.648004 z"
   style="fill:#ed6b21;stroke-width:0.0992064" /><path
   style="fill:#000000;fill-opacity:0;stroke-width:0.0992064"
   d="m 56.2668,45.16369 c -0.213828,-0.368303 -2.006867,-3.504464 -3.984532,-6.969246 -1.977664,-3.464781 -3.665189,-6.419326 -3.750055,-6.565655 -0.152861,-0.263568 -0.115931,-0.333262 3.955354,-7.464657 l 4.109655,-7.198605 8.365484,0.02418 8.365485,0.02418 4.155528,7.183237 c 2.414733,4.174103 4.125947,7.233027 4.084913,7.302091 -0.03884,0.06537 -1.922726,3.317288 -4.186416,7.226485 l -4.115798,7.107631 h -8.305421 -8.30542 z m 9.060581,-2.54511 c 0.381944,-0.07091 1.057974,-0.209062 1.502288,-0.307016 0.805389,-0.177555 0.808018,-0.179166 0.864998,-0.530295 0.03143,-0.193709 0.03824,-0.371112 0.01513,-0.394228 -0.02312,-0.02312 -0.390044,-0.07712 -0.815395,-0.120015 -1.267326,-0.127799 -1.521223,-0.342968 -1.372926,-1.163511 0.03691,-0.204255 0.516108,-2.536551 1.064875,-5.18288 0.548766,-2.646329 1.016471,-4.990079 1.039344,-5.208333 0.128191,-1.223204 -1.101585,-1.796204 -3.302095,-1.538575 -0.912954,0.106886 -3.201538,0.552099 -3.289335,0.639896 -0.02147,0.02147 -0.06257,0.214441 -0.09132,0.428823 l -0.05228,0.389786 0.967632,0.05773 c 1.140886,0.06807 1.29529,0.164771 1.268794,0.79465 -0.0097,0.229992 -0.467226,2.546734 -1.016782,5.148317 -1.027858,4.865846 -1.126212,5.58727 -0.843081,6.183925 0.142543,0.300386 0.665851,0.741863 1.034364,0.872619 0.292418,0.103755 2.343938,0.05569 3.025794,-0.07089 z M 67.07349,25.083729 c 0.915135,-0.311219 1.577304,-1.268088 1.577304,-2.279289 0,-0.651129 -0.118532,-1.027765 -0.428235,-1.360722 -0.523722,-0.563041 -1.606209,-0.838493 -2.42525,-0.617133 -1.308437,0.353627 -1.971739,2.041196 -1.30878,3.329792 0.438649,0.852604 1.590098,1.265685 2.584961,0.927352 z"
   id="path18" /><path
   id="path20"
   d="m 56.2668,45.16369 c -0.213828,-0.368303 -2.006867,-3.504464 -3.984532,-6.969246 -1.977664,-3.464781 -3.665189,-6.419326 -3.750055,-6.565655 -0.152861,-0.263568 -0.115931,-0.333262 3.955354,-7.464657 l 4.109655,-7.198605 8.365484,0.02418 8.365485,0.02418 4.155528,7.183237 c 2.414733,4.174103 4.125947,7.233027 4.084913,7.302091 -0.03884,0.06537 -1.922726,3.317288 -4.186416,7.226485 l -4.115798,7.107631 h -8.305421 -8.30542 z m 9.060581,-2.54511 c 0.381944,-0.07091 1.057974,-0.209062 1.502288,-0.307016 0.805389,-0.177555 0.808018,-0.179166 0.864998,-0.530295 0.03143,-0.193709 0.03824,-0.371112 0.01513,-0.394228 -0.02312,-0.02312 -0.390044,-0.07712 -0.815395,-0.120015 -1.267326,-0.127799 -1.521223,-0.342968 -1.372926,-1.163511 0.03691,-0.204255 0.516108,-2.536551 1.064875,-5.18288 0.548766,-2.646329 1.016471,-4.990079 1.039344,-5.208333 0.128191,-1.223204 -1.101585,-1.796204 -3.302095,-1.538575 -0.912954,0.106886 -3.201538,0.552099 -3.289335,0.639896 -0.02147,0.02147 -0.06257,0.214441 -0.09132,0.428823 l -0.05228,0.389786 0.967632,0.05773 c 1.140886,0.06807 1.29529,0.164771 1.268794,0.79465 -0.0097,0.229992 -0.467226,2.546734 -1.016782,5.148317 -1.027858,4.865846 -1.126212,5.58727 -0.843081,6.183925 0.142543,0.300386 0.665851,0.741863 1.034364,0.872619 0.292418,0.103755 2.343938,0.05569 3.025794,-0.07089 z M 67.07349,25.083729 c 0.915135,-0.311219 1.577304,-1.268088 1.577304,-2.279289 0,-0.651129 -0.118532,-1.027765 -0.428235,-1.360722 -0.523722,-0.563041 -1.606209,-0.838493 -2.42525,-0.617133 -1.308437,0.353627 -1.971739,2.041196 -1.30878,3.329792 0.438649,0.852604 1.590098,1.265685 2.584961,0.927352 z"
   style="fill:#000000;fill-opacity:0;stroke-width:0.0992064" /></svg>
