<?xml version="1.0" encoding="UTF-8" standalone="no"?>
<svg
   xmlns:dc="http://purl.org/dc/elements/1.1/"
   xmlns:cc="http://creativecommons.org/ns#"
   xmlns:rdf="http://www.w3.org/1999/02/22-rdf-syntax-ns#"
   xmlns:svg="http://www.w3.org/2000/svg"
   xmlns="http://www.w3.org/2000/svg"
   xmlns:sodipodi="http://sodipodi.sourceforge.net/DTD/sodipodi-0.dtd"
   xmlns:inkscape="http://www.inkscape.org/namespaces/inkscape"
   inkscape:version="1.0 (4035a4fb49, 2020-05-01)"
   sodipodi:docname="notification_documentation.svg"
   xml:space="preserve"
   style="enable-background:new 0 0 100 100;"
   viewBox="0 0 100 100"
   y="0px"
   x="0px"
   id="minimalize_window"
   version="1.1"><metadata
   id="metadata23"><rdf:RDF><cc:Work
       rdf:about=""><dc:format>image/svg+xml</dc:format><dc:type
         rdf:resource="http://purl.org/dc/dcmitype/StillImage" /></cc:Work></rdf:RDF></metadata><defs
   id="defs21" /><sodipodi:namedview
   inkscape:current-layer="minimalize_window"
   inkscape:window-maximized="1"
   inkscape:window-y="-8"
   inkscape:window-x="-8"
   inkscape:cy="50"
   inkscape:cx="50"
   inkscape:zoom="10.08"
   showgrid="false"
   id="namedview19"
   inkscape:window-height="1377"
   inkscape:window-width="2560"
   inkscape:pageshadow="2"
   inkscape:pageopacity="0"
   guidetolerance="10"
   gridtolerance="10"
   objecttolerance="10"
   borderopacity="1"
   bordercolor="#666666"
   pagecolor="#ffffff" />
<style
   id="style2"
   type="text/css">
	.st0{fill:#ED6B21;}
	.st1{fill:#EB6B21;}
	.st2{fill:none;stroke:#ED6B21;stroke-width:2.8346;stroke-miterlimit:10;}
</style>
<g
   id="g6">
	<path
   id="path4"
   d="M80,92.8H20c-7.1,0-12.8-5.8-12.8-12.8V20c0-7.1,5.8-12.8,12.8-12.8h60c7.1,0,12.8,5.8,12.8,12.8v60   C92.8,87.1,87.1,92.8,80,92.8z M20,12.8c-4,0-7.2,3.2-7.2,7.2v60c0,3.9,3.2,7.2,7.2,7.2h60c3.9,0,7.2-3.2,7.2-7.2V20   c0-4-3.2-7.2-7.2-7.2H20z"
   class="st0" />
</g>
<g
   id="g10">
	<path
   id="path8"
   d="M31.9,67.7H65c0.1,0,0.2,0,0.3,0c0,0,0,0,0,0c0.7,0,1.3-0.6,1.3-1.3V47.9C57.1,50.8,51.6,43.4,47,36   c-1.8-2.7,2-4.6,2.8-7.1H33.9h-2c-3.4,0-6.2,2.8-6.2,6.2c0,0,0,0.1,0,0.1c0,3.1,0,32.1,0,35.9c0,0.1,0,0.1,0,0.2   c0,3.3,2.6,6,5.8,6.2c0.1,0,0.1,0,0.2,0h33.6c0.7,0,1.3-0.6,1.3-1.3v-4.8c0-0.7-0.6-1.3-1.3-1.3c-0.7,0-1.3,0.6-1.3,1.3v3.5H31.9   c-1.9,0-3.5-1.5-3.6-3.5c0,0,0-0.1,0-0.1c0-0.1,0-0.1,0-0.3C28.4,69.2,29.9,67.7,31.9,67.7z M32.7,35.1c0-0.7,0.6-1.3,1.3-1.3   c0.7,0,1.3,0.6,1.3,1.3v26c0,0.7-0.6,1.3-1.3,1.3c-0.7,0-1.3-0.6-1.3-1.3V35.1z"
   class="st1" />
</g>
<polygon
   id="polygon12"
   points="71.1,19.8 54.9,19.8 46.9,33.8 54.9,47.8 71.1,47.8 79.2,33.8 "
   class="st2" />
<g
   id="g16">
	<path
   id="path14"
   d="M59.6,31.6c1.6-0.4,2.9-0.6,3.8-0.6c0.6,0,1,0.1,1.4,0.3c0.3,0.2,0.5,0.5,0.5,1c0,0.2,0,0.4-0.1,0.5l-1.7,8.3   c0,0.2-0.1,0.4-0.1,0.5c0,0.4,0.1,0.6,0.4,0.7c0.3,0.1,0.8,0.2,1.6,0.2l-0.1,0.6c-1.5,0.4-2.7,0.6-3.6,0.6c-0.7,0-1.2-0.1-1.5-0.4   c-0.4-0.3-0.5-0.6-0.5-1.2c0-0.2,0-0.6,0.1-0.9l1.6-7.6c0.1-0.4,0.1-0.6,0.1-0.7c0-0.2-0.1-0.4-0.3-0.5s-0.8-0.1-1.7-0.1L59.6,31.6   z M66.2,26.3c0,0.6-0.2,1.1-0.6,1.5s-0.8,0.6-1.4,0.6c-0.5,0-1-0.2-1.3-0.5s-0.5-0.8-0.5-1.3c0-0.6,0.2-1.1,0.6-1.5   c0.4-0.4,0.8-0.5,1.4-0.5c0.5,0,1,0.2,1.3,0.5C66,25.3,66.2,25.7,66.2,26.3z"
   class="st0" />
</g>
<path
   id="path25"
   d="M 18.75,92.696085 C 16.846525,92.418222 15.645289,92.057103 14.248486,91.342827 10.768164,89.563113 8.3399658,86.370876 7.4768461,82.440476 7.2982304,81.627112 7.2916667,80.477245 7.2916667,50 c 0,-30.186048 0.00806,-31.633856 0.1805113,-32.417478 C 8.6132236,12.397531 12.392318,8.6115694 17.559524,7.4768461 18.372888,7.2982304 19.522755,7.2916667 50,7.2916667 c 30.186048,0 31.633856,0.00806 32.417478,0.1805113 3.232976,0.7114715 5.949953,2.4425305 7.826838,4.98669 1.078165,1.461476 1.917759,3.360629 2.286745,5.172592 0.168029,0.825133 0.177272,2.515491 0.177272,32.418143 0,30.365281 -0.0069,31.579027 -0.184138,32.385657 -0.592788,2.697863 -1.665191,4.687627 -3.53325,6.555685 -1.820587,1.820588 -3.639881,2.823244 -6.352056,3.500774 l -0.843254,0.210654 -31.39881,0.01496 C 33.12748,92.725556 18.886409,92.716002 18.75,92.696085 Z m 63.033409,-5.68899 c 2.670161,-0.682912 4.81496,-2.945768 5.315692,-5.608285 0.08202,-0.436105 0.104156,-8.923253 0.08281,-31.746032 L 87.152778,18.501984 86.882499,17.708333 C 86.496691,16.575445 85.97299,15.736341 85.118324,14.881675 84.26366,14.02701 83.424556,13.503308 82.291667,13.117501 L 81.498016,12.847222 H 50 18.501984 l -0.793651,0.270279 c -1.132888,0.385807 -1.971992,0.909509 -2.826658,1.764174 -0.854665,0.854666 -1.378367,1.69377 -1.764174,2.826658 l -0.270279,0.793651 -0.02736,31.200397 c -0.0307,35.008562 -0.09842,31.873352 0.723863,33.513124 0.958398,1.911204 2.60508,3.255124 4.642945,3.789286 0.689685,0.180778 1.691694,0.186837 31.772663,0.192128 30.5793,0.0054 31.07235,0.0024 31.82408,-0.189824 z"
   style="fill:#ed6b21;stroke-width:0.0992064" /><path
   id="path27"
   d="M 31.10119,77.410956 C 29.236131,77.16359 27.26527,75.760742 26.456573,74.104943 25.743058,72.644028 25.793651,74.24 25.793651,53.192882 c 0,-21.105337 -0.05179,-19.498035 0.673442,-20.901215 0.516693,-0.999701 1.719795,-2.185863 2.699574,-2.661563 1.41717,-0.688061 1.004089,-0.66185 10.430458,-0.66185 h 8.503851 l 3.004296,-5.257937 3.004296,-5.257936 h 8.891965 8.891965 l 4.392702,7.595571 c 2.415987,4.177565 4.398432,7.65483 4.405434,7.727255 0.007,0.07243 -1.973876,3.572492 -4.401951,7.777925 l -4.414683,7.646241 -2.65377,0.0035 -2.65377,0.0035 v 8.690364 c 0,9.52089 0.02413,9.12352 -0.578983,9.532993 -0.251764,0.17093 -1.088238,0.181768 -17.674985,0.229024 l -17.410714,0.0496 -0.545635,0.26067 c -0.808178,0.386097 -1.334723,0.894639 -1.70493,1.646635 -0.956715,1.943364 -0.03137,4.335797 1.966064,5.083131 0.535211,0.200248 0.68474,0.202025 17.004492,0.202025 h 16.464533 v -1.970748 c 0,-1.848306 0.01287,-1.987112 0.207172,-2.234125 0.246407,-0.313256 0.686109,-0.557032 1.004726,-0.557032 0.370158,0 0.891455,0.335976 1.086984,0.700561 0.162558,0.303108 0.181276,0.610677 0.181276,2.978657 0,2.58018 -0.0052,2.648365 -0.225191,2.977738 -0.123856,0.1854 -0.380553,0.415147 -0.570437,0.510549 -0.32502,0.163295 -1.341884,0.172595 -17.359134,0.158746 -9.357638,-0.0081 -17.147817,-0.03247 -17.311508,-0.05418 z m 3.7961,-15.349752 0.370567,-0.339589 0.02942,-13.474895 c 0.03317,-15.191489 0.09901,-13.919802 -0.741808,-14.326836 -0.714682,-0.345971 -1.475711,-0.06077 -1.77979,0.666999 -0.209076,0.500389 -0.203248,26.569953 0.0061,27.070877 0.19169,0.458779 0.677232,0.742196 1.272308,0.742663 0.400151,2.97e-4 0.529552,-0.05174 0.843254,-0.339219 z m 39.069271,-21.92944 c 1.987042,-3.435962 3.612804,-6.287187 3.612804,-6.336054 0,-0.04887 -1.638286,-2.918428 -3.640635,-6.376803 l -3.640635,-6.287955 -7.296865,10e-4 -7.296865,0.001 -3.521825,6.16072 c -1.937004,3.388396 -3.561749,6.244218 -3.610545,6.346273 -0.07048,0.147404 0.651296,1.481256 3.510617,6.487682 l 3.599337,6.302129 7.335903,-0.02543 7.335903,-0.02543 z"
   style="fill:#ed6b21;stroke-width:0.0992064" /><path
   id="path29"
   d="m 60.760765,43.552387 c -0.165409,-0.05195 -0.442153,-0.232699 -0.614986,-0.401675 -0.568258,-0.555577 -0.556378,-0.699058 0.458545,-5.537922 0.499397,-2.380983 0.907009,-4.491004 0.905804,-4.688936 -0.0031,-0.504502 -0.187277,-0.612246 -1.131453,-0.661803 l -0.817141,-0.04289 0.04188,-0.285344 c 0.04934,-0.336185 0.171481,-0.37906 1.942233,-0.681785 1.404394,-0.240093 2.132279,-0.2524 2.821555,-0.04771 0.613954,0.182325 0.859926,0.494928 0.849606,1.079751 -0.0039,0.222429 -0.415921,2.361006 -0.915544,4.752394 -0.885195,4.236877 -0.985384,4.85158 -0.830464,5.09522 0.114081,0.179414 0.50949,0.301375 1.225775,0.378083 0.616868,0.06606 0.646862,0.08131 0.603738,0.306901 -0.04922,0.257458 -0.168385,0.303858 -1.51063,0.588184 -0.90986,0.192734 -2.619763,0.276018 -3.028918,0.147529 z"
   style="fill:#ed6b21;stroke-width:0.0992064" /><path
   id="path31"
   d="m 63.669778,28.27496 c -0.763916,-0.230278 -1.194145,-0.869586 -1.183525,-1.758685 0.0075,-0.627237 0.328621,-1.275203 0.77853,-1.570898 0.617142,-0.405606 1.675768,-0.348886 2.29435,0.122929 1.508376,1.150494 -0.03285,3.766287 -1.889355,3.206654 z"
   style="fill:#ed6b21;stroke-width:0.0992064" /></svg>
