<?xml version="1.0" encoding="UTF-8" standalone="no"?>
<svg
   xmlns:dc="http://purl.org/dc/elements/1.1/"
   xmlns:cc="http://creativecommons.org/ns#"
   xmlns:rdf="http://www.w3.org/1999/02/22-rdf-syntax-ns#"
   xmlns:svg="http://www.w3.org/2000/svg"
   xmlns="http://www.w3.org/2000/svg"
   xmlns:sodipodi="http://sodipodi.sourceforge.net/DTD/sodipodi-0.dtd"
   xmlns:inkscape="http://www.inkscape.org/namespaces/inkscape"
   inkscape:version="1.0 (4035a4fb49, 2020-05-01)"
   height="200"
   width="200"
   sodipodi:docname="notification_info.svg"
   xml:space="preserve"
   enable-background="new 0 0 100 100"
   viewBox="0 0 200 200"
   y="0px"
   x="0px"
   id="warning"
   version="1.0"><metadata
   id="metadata19"><rdf:RDF><cc:Work
       rdf:about=""><dc:format>image/svg+xml</dc:format><dc:type
         rdf:resource="http://purl.org/dc/dcmitype/StillImage" /><dc:title /></cc:Work></rdf:RDF></metadata><defs
   id="defs17" /><sodipodi:namedview
   inkscape:current-layer="warning"
   inkscape:window-maximized="1"
   inkscape:window-y="-11"
   inkscape:window-x="-11"
   inkscape:cy="117.65848"
   inkscape:cx="108.69674"
   inkscape:zoom="5.04"
   showgrid="false"
   id="namedview15"
   inkscape:window-height="2066"
   inkscape:window-width="3840"
   inkscape:pageshadow="2"
   inkscape:pageopacity="0"
   guidetolerance="10"
   gridtolerance="10"
   objecttolerance="10"
   borderopacity="1"
   bordercolor="#666666"
   pagecolor="#ffffff"
   inkscape:document-rotation="0" />



<g
   id="g8"
   transform="matrix(2,0,0,2,0.17117674,0.68464711)"
   style="fill:#ed6b21;fill-opacity:1"><path
     id="path6"
     d="m 40.1,43.5 c 4.5,-1.2 8.2,-1.7 11,-1.7 1.7,0 3,0.3 4,0.9 0.9,0.6 1.4,1.5 1.4,2.8 0,0.5 -0.1,1.1 -0.2,1.6 l -5,23.9 c -0.1,0.7 -0.2,1.1 -0.2,1.4 0,1 0.4,1.7 1.3,2 0.8,0.3 2.4,0.5 4.6,0.5 l -0.2,1.8 c -4.3,1.1 -7.8,1.6 -10.5,1.6 -1.9,0 -3.3,-0.4 -4.4,-1.1 -1,-0.7 -1.6,-1.8 -1.6,-3.3 0,-0.7 0.1,-1.6 0.3,-2.7 l 4.6,-22 c 0.2,-1 0.3,-1.7 0.3,-2 0,-0.7 -0.3,-1.2 -0.9,-1.4 C 44,45.5 42.4,45.4 39.7,45.4 Z M 59.2,28.4 c 0,1.7 -0.5,3.1 -1.6,4.2 -1.1,1.1 -2.4,1.6 -4,1.6 -1.5,0 -2.8,-0.5 -3.8,-1.5 -1,-1 -1.5,-2.3 -1.5,-3.9 0,-1.8 0.5,-3.2 1.6,-4.2 1.1,-1 2.4,-1.5 4,-1.5 1.5,0 2.8,0.5 3.8,1.4 1,0.9 1.5,2.2 1.5,3.9 z"
     class="st1"
     style="fill:#ed6b21;fill-opacity:1" /></g><path
   id="path853"
   d="m 16.939336,52.048564 c 0.24576,-0.15442 19.08533,-11.001046 41.86572,-24.103596 L 100.22396,4.1221459 142.03917,28.183626 183.85441,52.245107 V 100.734 149.2229 l -41.81468,24.06212 -41.81467,24.06214 -41.816284,-24.06216 -41.81626,-24.06216 -0.05,-48.44676 -0.05,-48.446739 z M 63.764716,163.5414 c 19.88816,11.44426 36.295164,20.80774 36.460014,20.80774 0.16481,0 16.57129,-9.36332 36.45875,-20.80738 l 36.15903,-20.80738 V 100.73468 58.734992 L 136.68178,37.925746 C 116.79341,26.480662 100.38715,17.116638 100.22347,17.116804 100.05968,17.116972 83.653536,26.48106 63.765126,37.925887 l -36.16072,20.808776 v 41.999497 41.9995 z"
   style="opacity:0.999;fill:#ed6b21;fill-opacity:1;stroke-width:0.198413" /><path
   id="path855"
   d="m 89.952923,157.02042 c -4.242772,-0.58044 -7.113036,-2.32486 -8.380448,-5.09326 -0.626294,-1.368 -0.807444,-3.89074 -0.464458,-6.46814 0.1277,-0.95968 2.419926,-12.20538 5.093816,-24.99044 2.67389,-12.78508 4.908156,-23.917618 4.965016,-24.738958 0.115,-1.6621 -0.189601,-2.54084 -1.114721,-3.21606 -0.792772,-0.57856 -2.966462,-0.9222 -6.787666,-1.07302 -3.481347,-0.1374 -3.555832,-0.1494 -3.458944,-0.5573 0.05446,-0.22926 0.206042,-0.97334 0.336845,-1.6535 0.1308,-0.68016 0.338118,-1.31832 0.4607,-1.41814 0.28243,-0.22998 6.4844,-1.66782 9.46857,-2.19514 5.863452,-1.0361 12.531417,-1.47854 15.428597,-1.02374 5.36116,0.84161 7.82828,3.38728 7.50956,7.74872 -0.0602,0.82388 -2.44364,12.614038 -5.2965,26.200338 -3.08108,14.67312 -5.23336,25.36606 -5.30112,26.33702 -0.24186,3.46504 0.94802,4.64856 5.32416,5.29562 1.15984,0.1716 3.06554,0.31182 4.23488,0.31182 h 2.1261 l -0.1262,1.04166 c -0.0694,0.57292 -0.174,1.37074 -0.23232,1.77292 l -0.1062,0.73126 -2.51448,0.59446 c -8.31236,1.96515 -17.063901,2.95498 -21.165277,2.39389 z"
   style="opacity:0.999;fill:#ed6b21;fill-opacity:1;stroke-width:0.198413" /><path
   style="opacity:0.999;fill:#ed6b21;fill-opacity:1;stroke-width:0.280598"
   d="m 103.80449,68.371429 c -4.85388,-1.747057 -7.401434,-6.318219 -6.705139,-12.031262 0.68816,-5.646301 5.025269,-9.262423 11.052899,-9.215502 4.20991,0.03277 7.4957,1.946636 9.16606,5.33893 0.89045,1.808402 0.93519,2.048665 0.92966,4.992684 -0.007,3.886952 -0.60744,5.58627 -2.81498,7.970671 -2.18267,2.35755 -4.19782,3.227419 -7.70164,3.324532 -1.90628,0.05284 -3.02496,-0.05544 -3.92686,-0.380053 z"
   id="path859" /><path
   style="opacity:0.999;fill:#ed6b21;fill-opacity:1;stroke-width:0.280598"
   d="m 88.159837,156.51971 c -4.689261,-1.3224 -6.765722,-3.65088 -6.999725,-7.84929 -0.143463,-2.57397 -0.367006,-1.35766 5.236874,-28.49422 2.02374,-9.79989 3.976706,-19.42817 4.339925,-21.396181 1.189159,-6.443166 0.608576,-7.052275 -7.07692,-7.424629 -1.896078,-0.09186 -3.506416,-0.262489 -3.578529,-0.37917 -0.07211,-0.116682 0.01749,-0.855929 0.199113,-1.642772 0.380336,-1.647704 6.64e-4,-1.47536 6.265635,-2.844151 5.6684,-1.238451 9.941962,-1.750196 14.87169,-1.780835 6.11275,-0.03799 8.21381,0.630882 10.35608,3.296884 0.84162,1.047378 0.86697,1.161816 0.83925,3.788072 -0.0245,2.316986 -0.5437,5.179915 -3.59555,19.824542 -7.12659,34.19777 -7.24867,34.91174 -6.23405,36.46024 0.25629,0.39114 0.76211,0.90521 1.12406,1.14236 1.05449,0.69093 4.30303,1.25008 7.29332,1.25534 l 2.76816,0.005 -0.20111,1.61344 c -0.11061,0.88739 -0.33162,1.69456 -0.49112,1.79371 -0.42321,0.26308 -8.03018,1.8551 -11.29784,2.36446 -4.118692,0.64201 -11.953193,0.79357 -13.819263,0.26733 z"
   id="path861" /><path
   style="opacity:0.999;fill:#ed6b21;fill-opacity:1;stroke-width:0.204365"
   d="M 14.442311,50.587986 C 14.695444,50.428934 34.100201,39.256909 57.564008,25.761283 L 100.22547,1.2237759 143.29514,26.0071 l 43.0697,24.783326 v 49.943554 49.94357 l -43.06912,24.78398 -43.06911,24.78401 -43.07077,-24.78403 -43.070753,-24.78402 -0.0515,-49.90017 -0.0515,-49.900133 z M 62.672458,165.4256 c 20.484805,11.78759 37.384012,21.43197 37.553812,21.43197 0.16975,0 17.06843,-9.64422 37.55251,-21.4316 l 37.2438,-21.4316 V 100.73468 57.475007 L 137.77703,36.041484 c -20.48502,-11.788437 -37.38347,-21.433381 -37.55206,-21.43321 -0.1687,1.73e-4 -17.067028,9.645183 -37.55209,21.433355 L 25.427333,57.474668 v 43.259482 43.25948 z"
   id="path853-2" /><path
   style="opacity:0.999;fill:#ed6b21;fill-opacity:1;stroke-width:0.18254"
   d="M 23.59806,55.943454 C 23.824159,55.801388 41.156564,45.822492 62.114522,33.768146 l 38.105398,-21.916997 38.46998,22.136562 38.47002,22.136563 v 44.609776 44.60979 l -38.4695,22.13715 -38.46949,22.13717 -38.470985,-22.13719 -38.470959,-22.13718 -0.046,-44.57102 -0.046,-44.571001 z M 66.67741,158.51686 c 18.297107,10.52872 33.39156,19.14312 33.54322,19.14312 0.15162,0 15.24558,-8.61425 33.54204,-19.14279 L 167.02898,139.3744 V 100.73468 62.094968 L 133.7611,42.950461 C 115.4638,32.420984 100.37005,23.806082 100.21947,23.806235 100.06878,23.806389 84.975124,32.42135 66.677787,42.950591 L 33.409924,62.094665 v 38.639535 38.63954 z"
   id="path853-0" /></svg>
