<?xml version="1.0" encoding="UTF-8" standalone="no"?>
<svg
   xmlns:dc="http://purl.org/dc/elements/1.1/"
   xmlns:cc="http://creativecommons.org/ns#"
   xmlns:rdf="http://www.w3.org/1999/02/22-rdf-syntax-ns#"
   xmlns:svg="http://www.w3.org/2000/svg"
   xmlns="http://www.w3.org/2000/svg"
   xmlns:sodipodi="http://sodipodi.sourceforge.net/DTD/sodipodi-0.dtd"
   xmlns:inkscape="http://www.inkscape.org/namespaces/inkscape"
   version="1.1"
   id="minimalize_window"
   x="0px"
   y="0px"
   viewBox="0 0 100 100"
   style="enable-background:new 0 0 100 100;"
   xml:space="preserve"
   sodipodi:docname="notification_preferences_hover.svg"
   inkscape:version="1.0 (4035a4fb49, 2020-05-01)"><metadata
   id="metadata17"><rdf:RDF><cc:Work
       rdf:about=""><dc:format>image/svg+xml</dc:format><dc:type
         rdf:resource="http://purl.org/dc/dcmitype/StillImage" /></cc:Work></rdf:RDF></metadata><defs
   id="defs15" /><sodipodi:namedview
   inkscape:document-rotation="0"
   pagecolor="#ffffff"
   bordercolor="#666666"
   borderopacity="1"
   objecttolerance="10"
   gridtolerance="10"
   guidetolerance="10"
   inkscape:pageopacity="0"
   inkscape:pageshadow="2"
   inkscape:window-width="2560"
   inkscape:window-height="1377"
   id="namedview13"
   showgrid="false"
   inkscape:zoom="10.08"
   inkscape:cx="50"
   inkscape:cy="50"
   inkscape:window-x="-8"
   inkscape:window-y="-8"
   inkscape:window-maximized="1"
   inkscape:current-layer="minimalize_window" />
<style
   type="text/css"
   id="style2">
	.st0{fill:#ED6B21;}
</style>
<g
   transform="matrix(1.15,0,0,1.15,-7.5,-7.5)"
   id="g6">
	<path
   class="st0"
   d="M 80,92.8 H 20 C 12.9,92.8 7.2,87 7.2,80 V 20 C 7.2,12.9 13,7.2 20,7.2 h 60 c 7.1,0 12.8,5.8 12.8,12.8 v 60 c 0,7.1 -5.7,12.8 -12.8,12.8 z m -60,-80 c -4,0 -7.2,3.2 -7.2,7.2 v 60 c 0,3.9 3.2,7.2 7.2,7.2 h 60 c 3.9,0 7.2,-3.2 7.2,-7.2 V 20 C 87.2,16 84,12.8 80,12.8 Z"
   id="path4" />
</g>
<g
   transform="matrix(1.15,0,0,1.15,-7.5,-7.5)"
   id="g10">
	<path
   class="st0"
   d="m 80.5,44 -5.7,-0.7 c -0.6,-2.2 -1.4,-4.2 -2.5,-6.2 l 3.6,-4.5 c 0.5,-0.7 0.5,-1.8 -0.1,-2.4 L 69.9,24.3 C 69.3,23.7 68.2,23.6 67.5,24.2 L 63,27.8 c -1.9,-1.1 -4,-2 -6.1,-2.5 L 56,19.6 C 55.9,18.7 55.1,18 54.2,18 h -8.3 c -0.9,0 -1.7,0.7 -1.8,1.6 l -0.7,5.7 c -2.2,0.6 -4.2,1.4 -6.1,2.5 L 32.8,24.2 C 32.1,23.7 31,23.7 30.4,24.3 l -5.9,5.9 c -0.6,0.6 -0.7,1.7 -0.1,2.4 l 3.6,4.5 c -1.1,1.9 -2,4 -2.5,6.1 L 19.6,44 C 18.7,44.1 18,45 18,45.8 v 8.3 c 0,0.9 0.7,1.7 1.6,1.8 l 5.7,0.7 c 0.6,2.2 1.4,4.2 2.5,6.1 l -3.6,4.5 c -0.5,0.7 -0.5,1.8 0.1,2.4 l 5.9,5.9 c 0.6,0.6 1.7,0.7 2.4,0.1 L 37.1,72 c 1.9,1.1 4,2 6.1,2.5 l 0.7,5.7 c 0.1,0.9 0.9,1.6 1.8,1.6 H 54 c 0.9,0 1.7,-0.7 1.8,-1.6 l 0.7,-5.7 c 2.2,-0.6 4.2,-1.4 6.1,-2.5 l 4.5,3.6 c 0.7,0.5 1.8,0.5 2.4,-0.1 l 5.9,-5.9 C 76,69 76.1,67.9 75.5,67.2 l -3.6,-4.5 c 1.1,-1.9 2,-4 2.5,-6.1 l 5.7,-0.7 C 81,55.8 81.7,55 81.7,54.1 V 45.8 C 82,44.9 81.3,44.1 80.5,44 Z M 50,66.8 c -9.3,0 -16.8,-7.5 -16.8,-16.8 0,-9.3 7.5,-16.8 16.8,-16.8 9.3,0 16.8,7.5 16.8,16.8 0,9.3 -7.5,16.8 -16.8,16.8 z"
   id="path8" />
</g>
<path
   style="fill:#ed6b21;stroke-width:0.114087"
   d="M 14.0625,99.100498 C 11.873504,98.780955 10.492082,98.365668 8.8857589,97.544251 4.8833886,95.49758 2.0909607,91.826507 1.098373,87.306547 0.89296496,86.371179 0.88541671,85.048832 0.88541671,50 c 0,-34.713955 0.009269,-36.378934 0.20758799,-37.2801 C 2.4052071,6.7571607 6.7511657,2.4033048 12.693453,1.098373 13.628821,0.89296496 14.951168,0.88541671 50,0.88541671 c 34.713955,0 36.378934,0.009269 37.2801,0.20758799 3.717922,0.8181922 6.842446,2.8089101 9.000863,5.7346935 1.23989,1.6806974 2.205423,3.8647238 2.629757,5.9484808 0.193234,0.948903 0.203863,2.892815 0.203863,37.280864 0,34.920074 -0.0079,36.315882 -0.211759,37.243506 -0.681706,3.102542 -1.914969,5.390771 -4.063237,7.539038 -2.093675,2.093676 -4.185863,3.24673 -7.304865,4.02589 l -0.969742,0.242252 -36.108631,0.0172 c -19.859747,0.0095 -36.236979,-0.0015 -36.393849,-0.02443 z m 72.48842,-6.542339 c 3.070686,-0.785349 5.537204,-3.387633 6.113046,-6.449527 0.09432,-0.501521 0.11978,-10.261741 0.09523,-36.507937 l -0.0335,-35.823413 -0.310821,-0.912699 C 91.971195,11.561762 91.368939,10.596792 90.386073,9.6139263 89.403209,8.6310615 88.438239,8.0288042 87.135417,7.5851262 L 86.222718,7.2743053 H 50 13.777282 L 12.864583,7.5851262 C 11.561762,8.0288042 10.596792,8.6310615 9.6139263,9.6139263 8.6310615,10.596792 8.0288042,11.561762 7.5851262,12.864583 l -0.3108209,0.912699 -0.031464,35.880456 c -0.035305,40.259846 -0.113183,36.654355 0.8324425,38.540093 1.1021577,2.197884 2.9958422,3.743392 5.3393872,4.357679 0.793137,0.207894 1.945448,0.214862 36.538562,0.220947 35.166195,0.0062 35.733202,0.0028 36.597692,-0.218298 z"
   id="path19" /><path
   style="fill:#ed6b21;stroke-width:0.114087"
   d="m 44.225346,86.289674 c -0.258276,-0.117288 -0.612763,-0.400958 -0.78775,-0.630377 -0.298781,-0.391724 -0.340655,-0.595705 -0.687572,-3.349471 -0.203179,-1.612791 -0.404283,-3.227547 -0.446898,-3.588348 -0.05733,-0.485369 -0.123806,-0.656002 -0.255578,-0.656002 -0.490853,0 -3.599533,-1.172383 -5.158062,-1.945272 l -1.76607,-0.875808 -2.550289,2.045374 c -1.402659,1.124956 -2.735126,2.154431 -2.961038,2.287722 -0.48949,0.288805 -1.315714,0.311239 -1.810169,0.04915 -0.491321,-0.260432 -7.547346,-7.381051 -7.687453,-7.757829 -0.180482,-0.485356 -0.143528,-1.237721 0.0825,-1.67976 0.111067,-0.217198 1.133071,-1.555466 2.271129,-2.973928 l 2.069198,-2.579022 -0.661333,-1.299946 c -0.762297,-1.498404 -1.577863,-3.520142 -1.951101,-4.836653 -0.142314,-0.501984 -0.264519,-0.923238 -0.271565,-0.936122 -0.007,-0.01288 -1.525337,-0.207278 -3.373979,-0.431989 -1.848642,-0.22471 -3.504451,-0.465131 -3.679576,-0.534266 -0.496641,-0.196062 -0.865807,-0.532735 -1.110866,-1.013088 -0.214146,-0.419763 -0.22499,-0.690581 -0.22499,-5.618594 v -5.177573 l 0.265553,-0.502815 c 0.501925,-0.950373 0.789862,-1.045109 4.806994,-1.581592 1.942804,-0.259458 3.537037,-0.48225 3.542741,-0.495093 0.0057,-0.01285 0.132691,-0.459736 0.282194,-0.993094 0.395249,-1.410077 1.044282,-3.020226 1.873865,-4.648772 l 0.728493,-1.430094 -2.20155,-2.750497 c -2.146668,-2.681931 -2.563981,-3.349633 -2.406645,-3.850631 0.02674,-0.08516 0.08195,-0.308846 0.122694,-0.497089 0.05419,-0.250394 1.059634,-1.333073 3.745888,-4.033631 2.038316,-2.049171 3.835139,-3.762139 4.038935,-3.850446 0.50389,-0.218342 1.274015,-0.199461 1.747896,0.04285 0.217198,0.111067 1.555466,1.133071 2.973927,2.271129 l 2.579023,2.069198 1.32399,-0.676533 c 1.453618,-0.742771 3.396596,-1.52214 4.812608,-1.93044 0.501985,-0.144744 0.923239,-0.269172 0.936122,-0.276505 0.01288,-0.0074 0.207279,-1.525858 0.43199,-3.3745 0.22471,-1.848642 0.465131,-3.504451 0.534266,-3.679576 0.196062,-0.496641 0.532735,-0.865807 1.013088,-1.110866 0.419846,-0.214188 0.690687,-0.22499 5.641082,-0.22499 4.950396,0 5.221237,0.01081 5.641082,0.22499 0.481206,0.245494 0.818387,0.615723 1.011702,1.110866 0.06837,0.175125 0.360428,1.831229 0.649009,3.680231 0.288582,1.849001 0.534939,3.367631 0.547463,3.374733 0.01252,0.0071 0.382143,0.106202 0.821379,0.22022 1.227291,0.318586 3.218105,1.116175 4.809653,1.926912 L 64.97767,24.53555 67.728169,22.334 c 3.003664,-2.404188 3.304768,-2.571319 4.205111,-2.334088 0.421651,0.111102 0.966162,0.60627 4.17624,3.7978 2.050868,2.039019 3.762065,3.833195 3.850446,4.03716 0.218341,0.50389 0.199459,1.274015 -0.04286,1.747896 -0.111067,0.217198 -1.131236,1.553177 -2.26705,2.968842 l -2.065118,2.573936 0.614736,1.247989 c 0.742024,1.506398 1.640101,3.767449 1.991079,5.01287 0.141467,0.501984 0.262148,0.922407 0.268177,0.934273 0.006,0.01187 1.563259,0.212913 3.460508,0.446768 3.628425,0.447242 3.916239,0.522182 4.309259,1.122006 0.170591,0.260357 0.187742,0.832224 0.171749,5.726831 -0.01894,5.796539 -0.02864,5.903635 -0.58875,6.499845 -0.437169,0.465345 -1.046752,0.605697 -4.391888,1.011202 -1.82587,0.221334 -3.353214,0.402427 -3.394098,0.402427 -0.04088,0 -0.07434,0.08384 -0.07434,0.186307 0,0.497866 -1.166253,3.595381 -1.944836,5.165393 l -0.875373,1.765189 2.197052,2.744879 c 2.142157,2.676297 2.559424,3.344199 2.402146,3.845013 -0.02674,0.08516 -0.08195,0.308844 -0.122694,0.497089 -0.05419,0.250394 -1.059633,1.333072 -3.745887,4.03363 -2.038318,2.04917 -3.83514,3.762138 -4.038936,3.850447 -0.50389,0.218341 -1.274015,0.199459 -1.747895,-0.04286 -0.217198,-0.111067 -1.555466,-1.133072 -2.973929,-2.27113 l -2.579022,-2.069197 -1.299946,0.661334 c -1.498403,0.762295 -3.520142,1.577862 -4.836652,1.951099 -0.501984,0.142315 -0.92324,0.264519 -0.936122,0.271566 -0.01288,0.007 -0.206811,1.525337 -0.43095,3.373979 -0.410652,3.386936 -0.550123,3.995339 -1.0163,4.433288 -0.607355,0.570581 -0.732866,0.582319 -6.198034,0.579639 -4.743219,-0.0023 -5.142697,-0.01778 -5.578665,-0.215758 z m 7.616485,-17.014526 c 2.459737,-0.249189 4.522956,-0.828863 6.667399,-1.873247 8.724956,-4.249213 12.923355,-14.294796 9.860528,-23.593466 -0.475266,-1.442899 -1.675554,-3.798333 -2.599737,-5.101708 -0.983434,-1.386932 -3.089816,-3.493314 -4.476748,-4.476748 -1.303375,-0.924183 -3.658809,-2.124471 -5.101707,-2.599737 -4.867049,-1.603125 -10.133744,-1.256381 -14.700795,0.967857 -8.724127,4.248808 -12.933709,14.323756 -9.85798,23.593467 1.479945,4.460296 4.773689,8.434277 8.872589,10.70499 2.519706,1.395867 4.645985,2.034944 8.068529,2.425083 0.758793,0.08649 2.150683,0.0667 3.267922,-0.0465 z"
   id="path21" /></svg>
