<?xml version="1.0" encoding="utf-8"?>
<!-- Generator: Adobe Illustrator 24.2.3, SVG Export Plug-In . SVG Version: 6.00 Build 0)  -->
<svg version="1.0" id="minimalize_window" xmlns="http://www.w3.org/2000/svg" xmlns:xlink="http://www.w3.org/1999/xlink" x="0px"
	 y="0px" viewBox="0 0 100 100" enable-background="new 0 0 100 100" xml:space="preserve">
<g>
	<path fill="#ED6B21" d="M80,92.83H20c-7.08,0-12.83-5.76-12.83-12.84V20c0-7.08,5.76-12.83,12.83-12.83h60
		c7.08,0,12.84,5.76,12.84,12.83v60C92.83,87.08,87.08,92.83,80,92.83z M20,12.83c-3.95,0-7.17,3.21-7.17,7.17v60
		c0,3.95,3.21,7.17,7.17,7.17h60c3.95,0,7.17-3.21,7.17-7.17V20c0-3.95-3.21-7.17-7.17-7.17H20z"/>
</g>
<g>
	<path fill="#ED6B21" d="M70,75.67H30c-3.13,0-5.67-2.54-5.67-5.67v-5c0-3.13,2.54-5.67,5.67-5.67h40c3.13,0,5.67,2.54,5.67,5.67v5
		C75.67,73.13,73.13,75.67,70,75.67z"/>
</g>
</svg>
