<?xml version="1.0" encoding="UTF-8" standalone="no"?>
<svg
   xmlns:dc="http://purl.org/dc/elements/1.1/"
   xmlns:cc="http://creativecommons.org/ns#"
   xmlns:rdf="http://www.w3.org/1999/02/22-rdf-syntax-ns#"
   xmlns:svg="http://www.w3.org/2000/svg"
   xmlns="http://www.w3.org/2000/svg"
   xmlns:sodipodi="http://sodipodi.sourceforge.net/DTD/sodipodi-0.dtd"
   xmlns:inkscape="http://www.inkscape.org/namespaces/inkscape"
   version="1.1"
   id="Layer_1"
   x="0px"
   y="0px"
   viewBox="0 0 800 800"
   style="enable-background:new 0 0 800 800;"
   xml:space="preserve"
   sodipodi:docname="notification_eject_sd_hover.svg"
   inkscape:version="1.0 (4035a4fb49, 2020-05-01)"><metadata
   id="metadata15"><rdf:RDF><cc:Work
       rdf:about=""><dc:format>image/svg+xml</dc:format><dc:type
         rdf:resource="http://purl.org/dc/dcmitype/StillImage" /></cc:Work></rdf:RDF></metadata><defs
   id="defs13" /><sodipodi:namedview
   inkscape:document-rotation="0"
   pagecolor="#ffffff"
   bordercolor="#666666"
   borderopacity="1"
   objecttolerance="10"
   gridtolerance="10"
   guidetolerance="10"
   inkscape:pageopacity="0"
   inkscape:pageshadow="2"
   inkscape:window-width="3840"
   inkscape:window-height="2066"
   id="namedview11"
   showgrid="false"
   inkscape:zoom="1.26"
   inkscape:cx="400"
   inkscape:cy="396.42857"
   inkscape:window-x="-11"
   inkscape:window-y="-11"
   inkscape:window-maximized="1"
   inkscape:current-layer="Layer_1" />
<style
   type="text/css"
   id="style2">
	.st0{fill:#ED6B21;}
</style>
<path
   style="stroke-width:0.85"
   class="st0"
   d="m 565.50264,534.98775 v 60.775 h -330.565 v -60.775 h 330.565 m 27.88,-48.195 h -386.24 c -11.22,0 -20.315,9.095 -20.315,20.315 v 116.535 c 0,11.22 9.095,20.315 20.315,20.315 h 386.24 c 11.22,0 20.315,-9.095 20.315,-20.315 v -116.45 c 0,-11.22 -9.095,-20.4 -20.315,-20.4 z"
   id="path4" />
<path
   style="stroke-width:0.85"
   class="st0"
   d="m 400.09264,235.70275 116.96,155.295 h -233.75 l 116.79,-155.295 m 0,-66.64 c -6.12,0 -12.155,2.72 -16.235,8.16 l -172.635,229.5 c -10.115,13.43 -0.51,32.555 16.235,32.555 h 345.355 c 16.745,0 26.35,-19.125 16.235,-32.555 l -172.805,-229.5 c -3.995,-5.44 -10.03,-8.16 -16.15,-8.16 z"
   id="path6" />
<g
   id="g4"
   transform="matrix(0.9775,0,0,0.9775,53.547,53.54775)">
	<path
   id="path2"
   class="st0"
   d="M 597.2,701.3 H 110.6 C 53.2,701.3 6.5,654.6 6.5,597.2 V 110.6 C 6.5,53.2 53.2,6.5 110.6,6.5 h 486.6 c 57.4,0 104.1,46.7 104.1,104.1 v 486.6 c 0,57.4 -46.7,104.1 -104.1,104.1 z M 110.6,52.4 c -32,0 -58.2,26 -58.2,58.2 v 486.6 c 0,32 26,58.2 58.2,58.2 h 486.6 c 32,0 58.2,-26 58.2,-58.2 V 110.6 c 0,-32 -26,-58.2 -58.2,-58.2 z" />
</g>
<path
   style="fill:#ed6b21;fill-opacity:1;stroke-width:0.674603"
   d="m 150.65676,738.12999 c -12.4717,-1.39663 -26.66772,-5.94192 -37.84321,-12.11671 -17.754551,-9.80992 -33.768844,-26.68981 -42.418124,-44.71089 -5.985061,-12.4701 -8.760227,-23.35456 -9.821918,-38.52249 -0.48061,-6.8663 -0.640464,-87.42616 -0.497289,-250.61508 0.195544,-222.88027 0.294923,-240.94223 1.356742,-246.58759 4.2349,-22.51562 13.68014,-40.62012 29.200931,-55.97194 14.237938,-14.082924 31.958648,-23.427941 52.602238,-27.739791 5.87892,-1.227937 14.00696,-1.268146 256.3492,-1.268146 h 250.27778 l 7.08334,1.561512 c 21.30688,4.697075 36.90336,13.216072 51.96052,28.381502 14.67865,14.784203 23.1932,30.350373 27.76125,50.752683 l 1.56791,7.00271 v 250.95239 c 0,242.72256 -0.0418,251.15149 -1.26428,257.0238 -9.30592,44.69034 -45.18963,77.43352 -89.75566,81.90028 -9.17898,0.92002 -488.33076,0.87927 -496.55943,-0.0425 z M 652.87275,692.49 c 19.93824,-6.17834 34.6922,-21.42493 40.00111,-41.33675 l 1.51306,-5.67494 V 399.58544 153.69259 l -1.52571,-5.73412 c -5.66288,-21.28292 -21.4158,-36.89778 -42.2051,-41.83523 -5.63965,-1.33941 -7.66026,-1.3488 -253.17948,-1.17613 l -247.49447,0.17405 -4.72222,1.5953 c -18.05932,6.10093 -31.7315,19.23923 -37.4918,36.0278 -1.04762,3.05333 -2.22128,7.52472 -2.60813,9.93642 -0.47859,2.9836 -0.705,81.91876 -0.70847,246.99889 -0.005,218.14117 0.10226,243.1829 1.05916,248.25397 4.27172,22.63802 22.24346,40.86392 44.80877,45.4425 3.58848,0.72811 49.16893,0.87009 250.95237,0.78171 l 246.56747,-0.10801 z"
   id="path17" /><path
   style="fill:#ed6b21;fill-opacity:1;stroke-width:0.674603"
   d="m 218.59688,436.65333 c -4.13129,-2.06443 -6.86895,-4.83026 -9.31331,-9.40915 -1.8345,-3.43648 -1.79343,-12.82008 0.0723,-16.52778 1.6224,-3.22405 174.17376,-232.72362 177.28101,-235.79015 3.40221,-3.35765 7.0012,-4.88322 12.34326,-5.23218 4.15899,-0.27168 5.32913,-0.0718 8.86231,1.51379 2.23886,1.00474 4.97342,2.78734 6.07682,3.96132 4.02813,4.28582 175.25817,232.2757 176.9048,235.54571 2.34584,4.65861 2.38759,12.10251 0.0927,16.52929 -2.00877,3.87485 -5.74351,7.80536 -9.18863,9.67026 l -2.69841,1.4607 -178.1462,0.17362 -178.14619,0.17362 z m 298.67589,-45.66907 c -0.0611,-1.0035 -116.48775,-154.99008 -117.18534,-154.99008 -0.71184,0 -116.84805,154.02591 -116.8632,154.99008 -0.004,0.27827 52.6617,0.50595 117.03571,0.50595 64.374,0 117.02978,-0.22768 117.01283,-0.50595 z"
   id="path19" /><path
   style="fill:#ed6b21;fill-opacity:1;stroke-width:0.674603"
   d="m 202.23056,642.87591 c -4.08272,-1.10499 -7.53117,-3.30912 -10.37477,-6.63124 -4.63948,-5.42019 -4.43387,-2.10678 -4.42657,-71.33297 l 0.007,-62.44927 1.60268,-3.44194 c 1.88877,-4.05635 5.3977,-7.75734 9.36436,-9.8769 l 2.84915,-1.52243 h 199.00794 199.00793 l 2.84915,1.52243 c 3.96665,2.11956 7.47559,5.82055 9.36436,9.8769 l 1.60267,3.44194 0.007,62.44927 c 0.008,69.78764 0.26152,65.98231 -4.79028,71.72146 -1.4904,1.69319 -4.37627,3.87229 -6.52672,4.9283 l -3.85513,1.89304 -196.30953,0.12602 c -153.67069,0.0987 -196.97613,-0.0544 -199.37859,-0.70461 z M 565.87502,565.20052 V 534.50608 H 400.25994 234.64486 v 30.69444 30.69446 h 165.61508 165.61508 z"
   id="path21" /></svg>
