<svg xmlns="http://www.w3.org/2000/svg" width="100" height="100" viewBox="0 0 100 100">
  <polygon points="79.4 24.3 89.6 66.5 58.1 96.5 16.4 84.2 6.2 41.9 37.7 11.9 79.4 24.3" style="fill: #fff"/>
  <path d="M51.4,15.9c-6.3-.1-23.2,14.7-19.1,42S43.4,95,52.8,94.7s13.8-6.1,13-16.1S62.7,63.8,64.9,59s3.7-7.1,4.4-7.7-10.2-5.1-11.6-8c-4.1-8.5,6.3-17.7,1.8-22.2S51.4,15.9,51.4,15.9Z" style="fill: #fff"/>
  <path d="M49.3,35.8c-.8,1.8-2,11.3,7.3,13.8s13.1-4.9,13.6-10.4-6.9-4.9-10.6-5.1S50.5,33.2,49.3,35.8Z" style="fill: #fff"/>
  <path d="M24.3,27.7s-2.2,5.1-2.2,6.3.7,6,1.8,7.4,7,3.4,7.5,3.4,9.3-.2,12-8.3-17.2-9.6-17.2-9.6Z" style="fill: #fff"/>
  <path d="M69.7,26.4c10-16.9-30-22.5-40.8-11.5-2.6,2.7,2.6,15.4,7,11,.5-.8.7-1.5,1.3-2.4,4-6.3,7.1-6.4,13.5-5.8,9.1-.1,10.1.3,14.8,9.2C65.9,27.7,69.4,26.7,69.7,26.4Z"/>
  <path d="M39.7,91h-.1C31.3,77.7,29,60.4,30.2,45c.1-1.2,3.7-.2,4.6-.1-.6,13.7.5,45.9,17.8,48.1a10.3,10.3,0,0,0,9.9-6.3c3.6-12-5.6-26.6,4.9-36.9h0c1.9-2.1,5.4.5,3.6,2.8s-2.9,3.6-3.5,5.9c-3.1,9.2,2.8,18.9-.1,28.1s-16.1,14.3-24.3,7.7h0" style="fill: #ed6b21"/>
  <path d="M57.9,22.7C56,18,49.5,16.2,45.4,19.1l-.9,1a45.2,45.2,0,0,0-4.7-1.8c3.9-5.8,12.2-6.5,17.9-3l2.5,2.4h0A13.1,13.1,0,0,1,63,26.9a22.2,22.2,0,0,0-4.9-1.8c.1,0,.3,0,.3-.1A15.5,15.5,0,0,0,57.9,22.7Z" style="fill: #ed6b21"/>
  <path d="M43.1,94.3l.6.4Z" style="fill: #b6d2fb"/>
  <path d="M42.8,94.1l.3.2Z" style="fill: #b6d2fb"/>
  <path d="M42.2,93.5v0Z" style="fill: #b6d2fb"/>
  <path d="M54.7,14h0Z" style="fill: #b6d2fb"/>
  <path d="M54.1,13.8a.1.1,0,0,0-.1-.1A.1.1,0,0,1,54.1,13.8Z" style="fill: #b6d2fb"/>
  <path d="M42.2,71.1c-.8-2.9-4.1-22,2.6-18.1,1.9,2.2.1,5.8.6,8.5.6,4.2.2,10.6,4.7,12.5,6.7.5,3-8.6,2.9-12.4s-.2-6.8-.2-10.1a4.7,4.7,0,0,0-.3-2.6c3.1,1.8,5.1,1.7,8.9,2.1-6.5.8-.4,17.8-3.3,22.9C54.6,81.8,43.8,78.8,42.2,71.1Z" style="fill: #ed6b21"/>
  <path d="M55.2,37.1c5.6-3.2,10.7,5.4,5.1,8.7S49.6,40.4,55.2,37.1Z"/>
  <path d="M38.7,29c-1.5.3-2.9-1.1-4.2-1.4L36,23.7c1.9,0,3.7-.5,5.6-.1C40.4,24.8,39.4,27.5,38.7,29Z" style="fill: #ed6b21"/>
  <path d="M57.6,30l2.9,1.3,1.7,1.1a.6.6,0,0,0-.7.7c-.2,1.1-.2,1.1-1.3.8l-3-.6h-.6Z" style="fill: #ed6b21"/>
  <path d="M53.4,38.8c-1.5,3.5,1.4,9,5.7,7.4C54.5,48,50.8,42.3,53.4,38.8Z" style="fill: #ccc"/>
  <path d="M62.6,32.7l.6.6Z" style="fill: #909097"/>
  <path d="M64.2,33.6h0Z" style="fill: #909097"/>
  <path d="M63.3,33.3l.6.3Z" style="fill: #909097"/>
  <path d="M65.8,33.4l.3-.2Z" style="fill: #909097"/>
  <path d="M66.6,29.9v0Z" style="fill: #909097"/>
  <path d="M66.6,32.5l.2-.2Z" style="fill: #909097"/>
  <path d="M65.3,33.6h0Z" style="fill: #909097"/>
  <path d="M57.9,22.7a.3.3,0,0,0,.1.2A.3.3,0,0,1,57.9,22.7Z" style="fill: #90bdfe"/>
  <path d="M57.7,22.2v0Z" style="fill: #90bdfe"/>
  <path d="M46.2,20.8h0Z" style="fill: #909097"/>
  <path d="M46.3,22.4h0Z" style="fill: #909097"/>
  <path d="M66.9,31.9v0Z" style="fill: #909097"/>
  <path d="M42.4,23.7h0Z" style="fill: #909097"/>
  <path d="M31,32.6c5.3-3.9,11.4,4.2,6,7.9s-10.9-3.8-6.2-7.8Z"/>
  <path d="M29.4,34.5a5.9,5.9,0,0,0,6.3,6.8A5.1,5.1,0,0,1,29.4,34.5Z" style="fill: #c9c9c9"/>
  <path d="M37.7,43.3l1.4-.6-.3.4H37.7Z" style="fill: #909097"/>
  <path d="M35.2,64.1a.4.4,0,0,1,.1.3A.4.4,0,0,0,35.2,64.1Z" style="fill: #b6d2fb"/>
  <path d="M39.1,42.7l.8-.4Z" style="fill: #909097"/>
  <path d="M41.9,70v0Z" style="fill: #b6d2fb"/>
  <path d="M42.4,38.8v0Z" style="fill: #b6d2fb"/>
  <path d="M41.8,69.4v0Z" style="fill: #b6d2fb"/>
  <path d="M42.5,38.3v0Z" style="fill: #b6d2fb"/>
  <path d="M42.6,36.2v0Z" style="fill: #b6d2fb"/>
  <path d="M38.6,43.2h0Z" style="fill: #b6d2fb"/>
  <path d="M42.2,71.1v0Z" style="fill: #b6d2fb"/>
  <path d="M58.6,72.1v0Z" style="fill: #b6d2fb"/>
  <path d="M74.5,36.3c-6.3-1.7-12.8-3.3-19.3-3.6-3.2.3-6.3,1-9.4-.3-6.3-3.4-13.2-6.5-20.5-6.2a19.8,19.8,0,0,1-3.5-.3c-.4,1.4-.1.1-.6,2a7.3,7.3,0,0,1,.6,2.1c-.9,4.3-.8,10,3.1,12.9a11.7,11.7,0,0,0,15.9-1.3c.8-.8,1.3-1.8,2-2.6s1.6-3.1,3.2-2.9a2.5,2.5,0,0,1,2.1,2.4c.3,3.8,1,8.4,4.4,10.7,8.4,4.1,15,2.3,18-7a5.2,5.2,0,0,1,3.8-3.1C74.8,38.7,74.5,37,74.5,36.3ZM42.8,35.2c-1.2,4.6-5.6,8.8-10.5,8.9s-9.1-2.1-9.5-6.6.7-9.3,4.7-9.8S43,29.7,42.8,35.2Zm26.5,5.1c-.4,5-4.6,10.2-10,9.2-3.9-.6-8.3-2.7-9.2-6.8s-.8-8.2,5.2-8.2C58.7,34.5,69.3,34.3,69.3,40.3Z"/>
  <path d="M69.1,26.9c7-20-29.5-19.9-40.4-11.8C33.2,4.8,48.2-.5,58.3,4.1,65.9,8.2,78.2,19.9,69.1,26.9Z" style="fill: #4e595f"/>
  <path d="M39.8,18.3c2.5.7,6.9.3,6.5,4s-4,1.2-6,1.1C30.9,25.9,30.4,17.8,39.8,18.3Z" style="fill: #4e595f"/>
  <path d="M57.8,24.8c3.4.8,11.2,3.6,9.3,8s-6.3-2.4-9.7-2.7S53.1,23.6,57.8,24.8Z" style="fill: #4e595f"/>
</svg>
