<?xml version="1.0" encoding="UTF-8" standalone="no"?>
<svg
   xmlns:dc="http://purl.org/dc/elements/1.1/"
   xmlns:cc="http://creativecommons.org/ns#"
   xmlns:rdf="http://www.w3.org/1999/02/22-rdf-syntax-ns#"
   xmlns:svg="http://www.w3.org/2000/svg"
   xmlns="http://www.w3.org/2000/svg"
   xmlns:sodipodi="http://sodipodi.sourceforge.net/DTD/sodipodi-0.dtd"
   xmlns:inkscape="http://www.inkscape.org/namespaces/inkscape"
   inkscape:version="1.0 (4035a4fb49, 2020-05-01)"
   sodipodi:docname="notification_right_hover.svg"
   xml:space="preserve"
   style="enable-background:new 0 0 800 800;"
   viewBox="0 0 800 800"
   y="0px"
   x="0px"
   id="Layer_1"
   version="1.1"><metadata
   id="metadata15"><rdf:RDF><cc:Work
       rdf:about=""><dc:format>image/svg+xml</dc:format><dc:type
         rdf:resource="http://purl.org/dc/dcmitype/StillImage" /><dc:title /></cc:Work></rdf:RDF></metadata><defs
   id="defs13" /><sodipodi:namedview
   inkscape:current-layer="Layer_1"
   inkscape:window-maximized="1"
   inkscape:window-y="-11"
   inkscape:window-x="-11"
   inkscape:cy="396.42857"
   inkscape:cx="400"
   inkscape:zoom="1.26"
   showgrid="false"
   id="namedview11"
   inkscape:window-height="2066"
   inkscape:window-width="3840"
   inkscape:pageshadow="2"
   inkscape:pageopacity="0"
   guidetolerance="10"
   gridtolerance="10"
   objecttolerance="10"
   borderopacity="1"
   bordercolor="#666666"
   pagecolor="#ffffff"
   inkscape:document-rotation="0" />
<style
   id="style2"
   type="text/css">
	.st0{fill:#ED6B21;}
</style>

<path
   id="path6"
   d="m 460.47909,399.8897 -93.177,70.176 v -140.25 l 93.177,70.074 m 39.984,0 c 0,-3.672 -1.632,-7.293 -4.896,-9.741 l -137.7,-103.581 c -8.058,-6.069 -19.533,-0.306 -19.533,9.741 v 207.213 c 0,10.047 11.475,15.81 19.533,9.741 l 137.7,-103.683 c 3.264,-2.397 4.896,-6.018 4.896,-9.69 z"
   class="st0"
   style="stroke-width:0.51" />
<g
   transform="matrix(0.5865,0,0,0.5865,191.9219,191.92265)"
   id="g4">
	<path
   d="M 597.2,701.3 H 110.6 C 53.2,701.3 6.5,654.6 6.5,597.2 V 110.6 C 6.5,53.2 53.2,6.5 110.6,6.5 h 486.6 c 57.4,0 104.1,46.7 104.1,104.1 v 486.6 c 0,57.4 -46.7,104.1 -104.1,104.1 z M 110.6,52.4 c -32,0 -58.2,26 -58.2,58.2 v 486.6 c 0,32 26,58.2 58.2,58.2 h 486.6 c 32,0 58.2,-26 58.2,-58.2 V 110.6 c 0,-32 -26,-58.2 -58.2,-58.2 z"
   class="st0"
   id="path2" />
</g>
<path
   id="path17"
   d="m 250.18776,602.67199 c -7.48302,-0.83798 -16.00064,-3.56515 -22.70593,-7.27002 -10.65273,-5.88596 -20.26131,-16.01389 -25.45087,-26.82654 -3.59104,-7.48206 -5.25614,-14.01273 -5.89316,-23.11349 -0.28836,-4.11978 -0.38427,-52.4557 -0.29837,-150.36905 0.11733,-133.72816 0.17696,-144.56534 0.81405,-147.95255 2.54094,-13.50937 8.20808,-24.37207 17.52056,-33.58317 8.54276,-8.44975 19.17518,-14.05676 31.56134,-16.64387 3.52735,-0.73676 8.40418,-0.76089 153.80952,-0.76089 h 150.16667 l 4.25,0.93691 c 12.78413,2.81824 22.14202,7.92964 31.17631,17.0289 8.80719,8.87052 13.91592,18.21022 16.65675,30.45161 l 0.94075,4.20163 v 150.57143 c 0,145.63353 -0.0251,150.69089 -0.75857,154.21428 -5.58355,26.8142 -27.11378,46.46011 -53.85339,49.14017 -5.50739,0.55201 -292.99846,0.52756 -297.93567,-0.0255 z M 551.51735,575.288 c 11.96295,-3.707 20.81532,-12.85496 24.00067,-24.80205 l 0.90783,-3.40497 V 399.54526 252.00955 l -0.91542,-3.44047 c -3.39773,-12.76975 -12.84948,-22.13867 -25.32306,-25.10114 -3.38379,-0.80364 -4.59616,-0.80928 -151.90769,-0.70567 l -148.49668,0.10443 -2.83334,0.95718 c -10.83559,3.66055 -19.0389,11.54353 -22.49508,21.61668 -0.62857,1.83199 -1.33276,4.51483 -1.56487,5.96185 -0.28716,1.79016 -0.423,49.15126 -0.42509,148.19933 -0.003,130.8847 0.0614,145.90974 0.6355,148.95238 2.56303,13.58281 13.34608,24.51835 26.88526,27.2655 2.15309,0.43687 29.50136,0.52206 150.57143,0.46903 l 147.94048,-0.0648 z"
   style="fill:#ed6b21;fill-opacity:1;stroke-width:0.404762" /><path
   id="path19"
   d="m 339.90065,290.86016 c 1.23866,-2.47877 2.89816,-4.12137 5.64549,-5.58799 2.06189,-1.1007 7.69205,-1.07605 9.91667,0.0434 1.93443,0.97344 139.63418,104.50426 141.47409,106.36861 2.01459,2.04133 2.92994,4.20072 3.13931,7.40596 0.16301,2.49539 0.0431,3.19748 -0.90827,5.31738 -0.60285,1.34333 -1.67241,2.98406 -2.37679,3.6461 -2.5715,2.41688 -139.36543,105.1549 -141.32744,106.14288 -2.79516,1.4075 -7.2615,1.43255 -9.91757,0.0556 -2.32491,-1.20527 -4.68322,-3.44611 -5.80216,-5.51318 l -0.87642,-1.61905 -0.10417,-106.88772 -0.10417,-106.88771 z m 27.40144,179.20554 c 0.6021,-0.0367 92.99405,-69.89265 92.99405,-70.31121 0,-0.4271 -92.41555,-70.10883 -92.99405,-70.11792 -0.16696,-0.002 -0.30357,31.59702 -0.30357,70.22143 0,38.6244 0.13661,70.21787 0.30357,70.2077 z"
   style="fill:#ed6b21;fill-opacity:1;stroke-width:0.404762" /></svg>
