<?xml version="1.0" encoding="UTF-8" standalone="no"?>
<svg
   xmlns:dc="http://purl.org/dc/elements/1.1/"
   xmlns:cc="http://creativecommons.org/ns#"
   xmlns:rdf="http://www.w3.org/1999/02/22-rdf-syntax-ns#"
   xmlns:svg="http://www.w3.org/2000/svg"
   xmlns="http://www.w3.org/2000/svg"
   xmlns:sodipodi="http://sodipodi.sourceforge.net/DTD/sodipodi-0.dtd"
   xmlns:inkscape="http://www.inkscape.org/namespaces/inkscape"
   inkscape:version="1.0 (4035a4fb49, 2020-05-01)"
   sodipodi:docname="notification_clippy.svg"
   id="svg98"
   version="1.1"
   viewBox="0 0 99.999999 100"
   height="100"
   width="100">
  <metadata
     id="metadata104">
    <rdf:RDF>
      <cc:Work
         rdf:about="">
        <dc:format>image/svg+xml</dc:format>
        <dc:type
           rdf:resource="http://purl.org/dc/dcmitype/StillImage" />
        <dc:title></dc:title>
      </cc:Work>
    </rdf:RDF>
  </metadata>
  <defs
     id="defs102" />
  <sodipodi:namedview
     inkscape:current-layer="svg98"
     inkscape:window-maximized="1"
     inkscape:window-y="-8"
     inkscape:window-x="-8"
     inkscape:cy="52.833332"
     inkscape:cx="51.309458"
     inkscape:zoom="10.599369"
     showgrid="false"
     id="namedview100"
     inkscape:window-height="1377"
     inkscape:window-width="2560"
     inkscape:pageshadow="2"
     inkscape:pageopacity="0"
     guidetolerance="10"
     gridtolerance="10"
     objecttolerance="10"
     borderopacity="1"
     bordercolor="#666666"
     pagecolor="#ffffff"
     inkscape:document-rotation="0" />
  <path
     id="path4"
     style="fill:#ffffff"
     d="m 31.897322,15.575596 c -6.3,-0.1 -23.2000002,14.7 -19.1,42 4.1,27.3 11.1,37.1 20.5,36.8 9.4,-0.3 13.8,-6.1 13,-16.1 -0.8,-10 -3.1,-14.8 -0.9,-19.6 2.2,-4.8 3.7,-7.1 4.4,-7.7 0.7,-0.6 -10.2,-5.1 -11.6,-8 -4.1,-8.5 6.3,-17.7 1.8,-22.2 -4.5,-4.5 -8.1,-5.2 -8.1,-5.2 z" />
  <path
     id="path6"
     style="fill:#ffffff"
     d="m 29.797322,35.475596 c -0.8,1.8 -2,11.3 7.3,13.8 9.3,2.5 13.1,-4.9 13.6,-10.4 0.5,-5.5 -6.9,-4.9 -10.6,-5.1 -3.7,-0.2 -9.1,-0.9 -10.3,1.7 z" />
  <path
     id="path8"
     style="fill:#ffffff"
     d="m 4.7973218,27.375596 c 0,0 -2.2,5.1 -2.2,6.3 0,1.2 0.7,6 1.8,7.4 1.1,1.4 7.0000002,3.4 7.5000002,3.4 0.5,0 9.3,-0.2 12,-8.3 2.7,-8.1 -17.2000002,-9.6 -17.2000002,-9.6 z" />
  <path
     id="path10"
     d="m 50.197322,26.075596 c 10,-16.9000008 -30,-22.5000008 -40.8000004,-11.5 -2.5999998,2.7 2.6000004,15.4 7.0000004,11 0.5,-0.8 0.7,-1.5 1.3,-2.4 4,-6.3 7.1,-6.4 13.5,-5.8 9.1,-0.1 10.1,0.3 14.8,9.2 0.4,0.8 3.9,-0.2 4.2,-0.5 z" />
  <path
     id="path12"
     style="fill:#ed6b21"
     d="m 20.197322,90.675596 h -0.1 c -8.3,-13.3 -10.6000004,-30.6 -9.4,-46 0.1,-1.2 3.7,-0.2 4.6,-0.1 -0.6,13.7 0.5,45.9 17.8,48.1 a 10.3,10.3 0 0 0 9.9,-6.3 c 3.6,-12 -5.6,-26.6 4.9,-36.9 v 0 c 1.9,-2.1 5.4,0.5 3.6,2.8 -1.8,2.3 -2.9,3.6 -3.5,5.9 -3.1,9.2 2.8,18.9 -0.1,28.1 -2.9,9.2 -16.1,14.300004 -24.3,7.7 v 0" />
  <path
     id="path14"
     style="fill:#ed6b21"
     d="m 38.397322,22.375596 c -1.9,-4.7 -8.4,-6.5 -12.5,-3.6 l -0.9,1 a 45.2,45.2 0 0 0 -4.7,-1.8 c 3.9,-5.800001 12.2,-6.500001 17.9,-3 l 2.5,2.4 v 0 a 13.1,13.1 0 0 1 2.8,9.2 22.2,22.2 0 0 0 -4.9,-1.8 c 0.1,0 0.3,0 0.3,-0.1 a 15.5,15.5 0 0 0 -0.5,-2.3 z" />
  <path
     id="path16"
     style="fill:#b6d2fb"
     d="m 23.597322,93.975596 0.6,0.4 z" />
  <path
     id="path18"
     style="fill:#b6d2fb"
     d="M 21.097322,91.575596" />
  <path
     id="path20"
     style="fill:#b6d2fb"
     d="m 23.297322,93.775596 0.3,0.2 z" />
  <path
     id="path22"
     style="fill:#b6d2fb"
     d="M 22.697322,93.175596 Z" />
  <path
     id="path24"
     style="fill:#b6d2fb"
     d="M 35.197322,13.675596 Z" />
  <path
     id="path26"
     style="fill:#b6d2fb"
     d="m 34.597322,13.475596 a 0.1,0.1 0 0 0 -0.1,-0.1 0.1,0.1 0 0 1 0.1,0.1 z" />
  <path
     id="path28"
     style="fill:#ed6b21"
     d="m 22.697322,70.775596 c -0.8,-2.9 -4.1,-22 2.6,-18.1 1.9,2.2 0.1,5.8 0.6,8.5 0.6,4.2 0.2,10.6 4.7,12.5 6.7,0.5 3,-8.6 2.9,-12.4 -0.1,-3.8 -0.2,-6.8 -0.2,-10.1 a 4.7,4.7 0 0 0 -0.3,-2.6 c 3.1,1.8 5.1,1.7 8.9,2.1 -6.5,0.8 -0.4,17.8 -3.3,22.9 -3.5,7.9 -14.3,4.9 -15.9,-2.8 z" />
  <path
     id="path30"
     d="m 35.697322,36.775596 c 5.6,-3.2 10.7,5.4 5.1,8.7 -5.6,3.3 -10.7,-5.4 -5.1,-8.7 z" />
  <path
     id="path32"
     style="fill:#ed6b21"
     d="m 19.197322,28.675596 c -1.5,0.3 -2.9,-1.1 -4.2,-1.4 l 1.5,-3.9 c 1.9,0 3.7,-0.5 5.6,-0.1 -1.2,1.2 -2.2,3.9 -2.9,5.4 z" />
  <path
     id="path34"
     style="fill:#ed6b21"
     d="m 38.097322,29.675596 2.9,1.3 1.7,1.1 a 0.6,0.6 0 0 0 -0.7,0.7 c -0.2,1.1 -0.2,1.1 -1.3,0.8 l -3,-0.6 h -0.6 z" />
  <path
     id="path36"
     style="fill:#cccccc"
     d="m 33.897322,38.475596 c -1.5,3.5 1.4,9 5.7,7.4 -4.6,1.8 -8.3,-3.9 -5.7,-7.4 z" />
  <path
     id="path38"
     style="fill:#909097"
     d="m 43.097322,32.375596 0.6,0.6 z" />
  <path
     id="path40"
     style="fill:#909097"
     d="M 44.697322,33.275596 Z" />
  <path
     id="path42"
     style="fill:#909097"
     d="m 43.797322,32.975596 0.6,0.3 z" />
  <path
     id="path44"
     style="fill:#909097"
     d="m 46.297322,33.075596 0.3,-0.2 z" />
  <path
     id="path46"
     style="fill:#909097"
     d="M 47.097322,29.575596 Z" />
  <path
     id="path48"
     style="fill:#909097"
     d="m 47.097322,32.175596 0.2,-0.2 z" />
  <path
     id="path50"
     style="fill:#909097"
     d="M 45.797322,33.275596 Z" />
  <path
     id="path52"
     style="fill:#90bdfe"
     d="m 38.397322,22.375596 a 0.3,0.3 0 0 0 0.1,0.2 0.3,0.3 0 0 1 -0.1,-0.2 z" />
  <path
     id="path54"
     style="fill:#90bdfe"
     d="M 38.197322,21.875596 Z" />
  <path
     id="path56"
     style="fill:#909097"
     d="M 26.697322,20.475596 Z" />
  <path
     id="path58"
     style="fill:#909097"
     d="M 26.797322,22.075596 Z" />
  <path
     id="path60"
     style="fill:#909097"
     d="M 47.397322,31.575596 Z" />
  <path
     id="path62"
     style="fill:#909097"
     d="M 22.897322,23.375596 Z" />
  <path
     id="path64"
     d="m 11.497322,32.275596 c 5.3,-3.9 11.4,4.2 6,7.9 -5.4,3.7 -10.9000002,-3.8 -6.2,-7.8 z" />
  <path
     id="path66"
     style="fill:#c9c9c9"
     d="m 9.8973216,34.175596 a 5.9,5.9 0 0 0 6.3000004,6.8 5.1,5.1 0 0 1 -6.3000004,-6.8 z" />
  <path
     id="path68"
     style="fill:#909097"
     d="m 18.197322,42.975596 1.4,-0.6 -0.3,0.4 h -1.1 z" />
  <path
     id="path70"
     style="fill:#b6d2fb"
     d="m 15.697322,63.775596 a 0.4,0.4 0 0 1 0.1,0.3 0.4,0.4 0 0 0 -0.1,-0.3 z" />
  <path
     id="path72"
     style="fill:#909097"
     d="m 19.597322,42.375596 0.8,-0.4 z" />
  <path
     id="path74"
     style="fill:#b6d2fb"
     d="M 22.397322,69.675596 Z" />
  <path
     id="path76"
     style="fill:#b6d2fb"
     d="M 22.897322,38.475596 Z" />
  <path
     id="path78"
     style="fill:#b6d2fb"
     d="M 22.297322,69.075596 Z" />
  <path
     id="path80"
     style="fill:#b6d2fb"
     d="M 22.997322,37.975596 Z" />
  <path
     id="path82"
     style="fill:#b6d2fb"
     d="M 23.097322,35.875596 Z" />
  <path
     id="path84"
     style="fill:#b6d2fb"
     d="M 19.097322,42.875596 Z" />
  <path
     id="path86"
     style="fill:#b6d2fb"
     d="M 22.697322,70.775596 Z" />
  <path
     id="path88"
     style="fill:#b6d2fb"
     d="M 39.097322,71.775596 Z" />
  <path
     id="path90"
     d="m 54.997322,35.975596 c -6.3,-1.7 -12.8,-3.3 -19.3,-3.6 -3.2,0.3 -6.3,1 -9.4,-0.3 -6.3,-3.4 -13.2,-6.5 -20.5000002,-6.2 a 19.8,19.8 0 0 1 -3.5,-0.3 c -0.4,1.4 -0.1,0.1 -0.6,2 a 7.3,7.3 0 0 1 0.6,2.1 c -0.9,4.3 -0.8,10 3.1,12.9 a 11.7,11.7 0 0 0 15.9000002,-1.3 c 0.8,-0.8 1.3,-1.8 2,-2.6 0.7,-0.8 1.6,-3.1 3.2,-2.9 a 2.5,2.5 0 0 1 2.1,2.4 c 0.3,3.8 1,8.4 4.4,10.7 8.4,4.1 15,2.3 18,-7 a 5.2,5.2 0 0 1 3.8,-3.1 c 0.5,-0.4 0.2,-2.1 0.2,-2.8 z m -31.7,-1.1 c -1.2,4.6 -5.6,8.8 -10.5,8.9 -4.9000002,0.1 -9.1000002,-2.1 -9.5000002,-6.6 -0.4,-4.5 0.7,-9.3 4.7,-9.8 4.0000002,-0.5 15.5000002,2 15.3000002,7.5 z m 26.5,5.1 c -0.4,5 -4.6,10.2 -10,9.2 -3.9,-0.6 -8.3,-2.7 -9.2,-6.8 -0.9,-4.1 -0.8,-8.2 5.2,-8.2 3.4,0 14,-0.2 14,5.8 z" />
  <path
     id="path92"
     style="fill:#4e595f"
     d="m 49.597322,26.575596 c 7,-20.0000008 -29.5,-19.9000008 -40.4000004,-11.8 C 13.697322,4.4755952 28.697322,-0.8244048 38.797322,3.7755952 c 7.6,4.1 19.9,15.8000008 10.8,22.8000008 z" />
  <path
     id="path94"
     style="fill:#4e595f"
     d="m 20.297322,17.975596 c 2.5,0.7 6.9,0.3 6.5,4 -0.4,3.7 -4,1.2 -6,1.1 -9.4,2.5 -9.9,-5.6 -0.5,-5.1 z" />
  <path
     id="path96"
     style="fill:#4e595f"
     d="m 38.297322,24.475596 c 3.4,0.8 11.2,3.6 9.3,8 -1.9,4.4 -6.3,-2.4 -9.7,-2.7 -3.4,-0.3 -4.3,-6.5 0.4,-5.3 z" />
</svg>
