<?xml version="1.0" encoding="UTF-8" standalone="no"?>
<svg
   xmlns:dc="http://purl.org/dc/elements/1.1/"
   xmlns:cc="http://creativecommons.org/ns#"
   xmlns:rdf="http://www.w3.org/1999/02/22-rdf-syntax-ns#"
   xmlns:svg="http://www.w3.org/2000/svg"
   xmlns="http://www.w3.org/2000/svg"
   xmlns:sodipodi="http://sodipodi.sourceforge.net/DTD/sodipodi-0.dtd"
   xmlns:inkscape="http://www.inkscape.org/namespaces/inkscape"
   version="1.1"
   id="Layer_1"
   x="0px"
   y="0px"
   viewBox="0 0 800 800"
   style="enable-background:new 0 0 800 800;"
   xml:space="preserve"
   sodipodi:docname="notification_eject_sd.svg"
   inkscape:version="1.0 (4035a4fb49, 2020-05-01)"><metadata
   id="metadata15"><rdf:RDF><cc:Work
       rdf:about=""><dc:format>image/svg+xml</dc:format><dc:type
         rdf:resource="http://purl.org/dc/dcmitype/StillImage" /></cc:Work></rdf:RDF></metadata><defs
   id="defs13" /><sodipodi:namedview
   inkscape:document-rotation="0"
   pagecolor="#ffffff"
   bordercolor="#666666"
   borderopacity="1"
   objecttolerance="10"
   gridtolerance="10"
   guidetolerance="10"
   inkscape:pageopacity="0"
   inkscape:pageshadow="2"
   inkscape:window-width="1918"
   inkscape:window-height="2054"
   id="namedview11"
   showgrid="false"
   inkscape:zoom="1.26"
   inkscape:cx="400"
   inkscape:cy="401.5873"
   inkscape:window-x="0"
   inkscape:window-y="0"
   inkscape:window-maximized="0"
   inkscape:current-layer="Layer_1" />
<style
   type="text/css"
   id="style2">
	.st0{fill:#ED6B21;}
</style>
<path
   class="st0"
   d="M594.8,558.9v71.5H205.9v-71.5H594.8 M627.6,502.2H173.2c-13.2,0-23.9,10.7-23.9,23.9v137.1  c0,13.2,10.7,23.9,23.9,23.9h454.4c13.2,0,23.9-10.7,23.9-23.9V526.2C651.5,513,640.8,502.2,627.6,502.2L627.6,502.2z"
   id="path4" />
<path
   class="st0"
   d="M400.2,206.8l137.6,182.7h-275L400.2,206.8 M400.2,128.4c-7.2,0-14.3,3.2-19.1,9.6l-203.1,270  c-11.9,15.8-0.6,38.3,19.1,38.3h406.3c19.7,0,31-22.5,19.1-38.3l-203.3-270C414.5,131.6,407.4,128.4,400.2,128.4L400.2,128.4z"
   id="path6" />
<g
   id="g4"
   transform="matrix(1.15,0,0,1.15,-7.50075,-7.5)">
	<path
   id="path2"
   class="st0"
   d="M597.2,701.3H110.6c-57.4,0-104.1-46.7-104.1-104.1V110.6C6.5,53.2,53.2,6.5,110.6,6.5h486.6   c57.4,0,104.1,46.7,104.1,104.1v486.6C701.3,654.6,654.6,701.3,597.2,701.3z M110.6,52.4c-32,0-58.2,26-58.2,58.2v486.6   c0,32,26,58.2,58.2,58.2h486.6c32,0,58.2-26,58.2-58.2V110.6c0-32-26-58.2-58.2-58.2L110.6,52.4z" />
</g>
<path
   style="fill:#ed6b21;fill-opacity:1;stroke-width:0.793651"
   d="M 107.81901,798.00119 C 77.966509,794.83135 49.146122,779.90354 30.060545,757.72544 16.219297,741.64143 7.2605087,723.64471 2.5844311,702.53048 L 0.79365079,694.44444 V 399.60317 104.7619 L 2.5707889,96.74281 C 8.1200484,71.702533 18.222321,53.056007 35.651802,35.682695 53.220959,18.170156 71.802034,8.0954675 96.708127,2.5778576 L 104.7619,0.79365079 h 294.44445 c 281.74132,0 294.75136,0.0623952 301.55851,1.44626191 16.67428,3.3898194 30.80854,9.2277743 44.45639,18.3620833 30.56319,20.455498 49.17772,51.734599 52.83931,88.789134 0.52246,5.28681 0.71992,107.13501 0.57277,295.37077 -0.21452,274.44189 -0.28952,287.63907 -1.67476,294.84127 -9.63677,50.10325 -47.25156,87.71807 -97.3554,97.35548 -7.21079,1.38698 -20.15876,1.45445 -296.82539,1.54754 -159.10715,0.0532 -291.83859,-0.17373 -294.95877,-0.505 z m 582.70983,-52.40653 c 14.11333,-2.49918 25.86756,-8.65506 36.13916,-18.92666 10.4238,-10.4238 16.61917,-22.37735 18.96341,-36.58863 0.59763,-3.62296 0.78014,-91.16224 0.61306,-294.04762 -0.2267,-275.2812 -0.30507,-289.11319 -1.66353,-293.6508 -2.29132,-7.653498 -8.052,-18.790275 -12.80623,-24.757484 -7.93878,-9.964272 -18.57499,-17.346949 -31.48512,-21.854079 l -7.43245,-2.594784 -291.12328,-0.20372 C 142.50327,52.78948 110.02937,52.90047 105.30529,53.98405 79.968659,59.795581 61.031339,78.238321 54.164726,103.78898 l -1.754497,6.52848 -0.240323,282.14286 c -0.151001,177.27655 0.04527,285.53516 0.528069,291.26984 2.318854,27.5434 19.073236,49.76542 44.524247,59.05433 10.087718,3.68173 -4.026285,3.51395 301.243128,3.58099 197.57151,0.0434 288.82563,-0.19746 292.06349,-0.77082 z"
   id="path19" /><path
   id="path12"
   d="M 107.81901,798.00119 C 71.793616,794.17587 39.726024,774.51428 19.725029,743.98814 11.604149,731.59381 6.0410683,718.13847 2.5844311,702.53048 L 0.79365079,694.44444 V 399.20635 103.96825 L 3.035741,94.554887 C 8.7824143,70.427608 18.557382,52.794942 35.676163,35.676161 52.78713,18.565194 70.514246,8.724096 94.444444,3.0513179 l 9.523806,-2.25766869 h 294.84127 c 282.12524,0 295.14809,0.0623746 301.95534,1.44626189 16.66109,3.3871391 30.79289,9.2216269 44.45639,18.3543829 30.53954,20.412782 49.17677,51.732756 52.83931,88.796836 0.52246,5.28681 0.71992,107.13501 0.57277,295.37077 -0.21452,274.44188 -0.28952,287.63907 -1.67476,294.84127 -8.48938,44.13777 -38.62564,78.86883 -80.59962,92.88841 -19.37815,6.47239 11.16453,5.88739 -313.58117,6.0062 -159.10715,0.0579 -291.83859,-0.16532 -294.95877,-0.49659 z m 583.84766,-52.6969 c 13.48971,-2.42242 24.94716,-8.60413 35.32488,-19.05909 10.25229,-10.3286 16.66154,-22.92711 18.61985,-36.60068 0.66689,-4.65647 0.83196,-81.74243 0.62956,-294.0096 C 745.9846,126.77174 745.87745,107.60752 744.6044,102.9114 738.42079,80.100871 721.07257,62.283764 697.9879,55.03493 l -5.92441,-1.860328 H 399.20635 106.34921 L 98.809524,55.78721 C 75.623265,63.821579 59.178748,82.101475 53.902861,105.70593 52.59901,111.53938 52.514615,128.88593 52.47105,400 l -0.04629,288.09524 2.080286,7.60155 c 6.270993,22.91476 22.15377,39.95711 44.384633,47.62505 3.584011,1.23621 7.998091,1.91356 14.999211,2.30168 5.45635,0.30249 136.34921,0.59491 290.87301,0.64982 232.38849,0.0826 281.98128,-0.0849 286.90477,-0.96905 z"
   style="fill:#ed6b21;fill-opacity:1;stroke-width:0.793651" /><path
   id="path14"
   d="m 188.74939,444.33528 c -4.767,-1.68913 -10.12828,-6.7592 -12.71276,-12.02223 -2.90908,-5.92405 -3.07868,-13.78271 -0.41474,-19.21781 1.59087,-3.24578 204.04455,-273.05533 208.24079,-277.52202 0.98764,-1.05129 4.03672,-3.01468 6.77574,-4.3631 4.52929,-2.22976 5.50158,-2.41761 10.74224,-2.07541 6.86047,0.44798 10.76603,2.25377 15.37601,7.10932 3.73681,3.93587 203.30677,268.8636 207.0044,274.79691 2.05716,3.30097 2.4722,4.84315 2.70946,10.06767 0.23771,5.23447 -0.0137,6.8089 -1.6588,10.38763 -2.76417,6.01319 -5.53229,8.93875 -11.0814,11.71167 l -4.85687,2.42701 -208.40498,-0.0627 c -181.84257,-0.0547 -208.82739,-0.21233 -211.71909,-1.23698 z m 348.94902,-54.98925 c 0,-0.9027 -136.36908,-182.10669 -137.30528,-182.44799 -0.54415,-0.19837 -135.36926,178.28524 -137.53574,182.07198 -0.54249,0.9482 19.37332,1.10934 137.10317,1.10934 83.74346,0 137.73785,-0.28747 137.73785,-0.73333 z"
   style="fill:#ed6b21;fill-opacity:1;stroke-width:0.793651" /><path
   id="path16"
   d="m 168.25397,686.16973 c -7.05465,-1.71645 -13.06577,-6.58064 -16.33102,-13.21504 L 150,669.04762 v -74.20635 -74.20635 l 1.8935,-4.19003 c 1.12593,-2.49152 3.46026,-5.59868 5.75857,-7.66505 7.33695,-6.59655 -16.73947,-6.00214 243.08455,-6.00144 l 231.80306,6.3e-4 4.76912,2.2562 c 5.31341,2.5137 9.30333,6.56248 11.81369,11.98794 1.66145,3.59075 1.67116,4.0432 1.67116,77.8181 v 74.20635 l -1.92294,3.90707 c -2.44721,4.97227 -6.5951,9.12016 -11.60261,11.6026 l -3.93477,1.95064 -231.3492,0.12055 c -127.24207,0.0663 -232.42064,-0.14013 -233.73016,-0.45875 z m 426.5873,-91.72529 V 558.33333 H 400 205.15873 v 36.11111 36.11111 H 400 594.84127 Z"
   style="fill:#ed6b21;fill-opacity:1;stroke-width:0.793651" /></svg>
