<?xml version="1.0" encoding="UTF-8" standalone="no"?>
<svg
   xmlns:dc="http://purl.org/dc/elements/1.1/"
   xmlns:cc="http://creativecommons.org/ns#"
   xmlns:rdf="http://www.w3.org/1999/02/22-rdf-syntax-ns#"
   xmlns:svg="http://www.w3.org/2000/svg"
   xmlns="http://www.w3.org/2000/svg"
   xmlns:sodipodi="http://sodipodi.sourceforge.net/DTD/sodipodi-0.dtd"
   xmlns:inkscape="http://www.inkscape.org/namespaces/inkscape"
   version="1.1"
   id="Layer_1"
   x="0px"
   y="0px"
   viewBox="0 0 105.1 105.1"
   xml:space="preserve"
   sodipodi:docname="notification_clippy.svg"
   width="105.1"
   height="105.1"
   inkscape:version="1.0 (4035a4fb49, 2020-05-01)"><metadata
   id="metadata99"><rdf:RDF><cc:Work
       rdf:about=""><dc:format>image/svg+xml</dc:format><dc:type
         rdf:resource="http://purl.org/dc/dcmitype/StillImage" /><dc:title></dc:title></cc:Work></rdf:RDF></metadata><defs
   id="defs97" /><sodipodi:namedview
   inkscape:pagecheckerboard="true"
   inkscape:document-rotation="0"
   pagecolor="#ffffff"
   bordercolor="#666666"
   borderopacity="1"
   objecttolerance="10"
   gridtolerance="10"
   guidetolerance="10"
   inkscape:pageopacity="0"
   inkscape:pageshadow="2"
   inkscape:window-width="2560"
   inkscape:window-height="1377"
   id="namedview95"
   showgrid="false"
   inkscape:zoom="9.590866"
   inkscape:cx="31.799999"
   inkscape:cy="52.549999"
   inkscape:window-x="-8"
   inkscape:window-y="-8"
   inkscape:window-maximized="1"
   inkscape:current-layer="Layer_1" />
<style
   type="text/css"
   id="style2">
	.st0{fill:#FFFFFF;}
	.st1{fill:#ED6B21;}
	.st2{fill:#B6D2FB;}
	.st3{fill:#CCCCCC;}
	.st4{fill:#909097;}
	.st5{fill:#90BDFE;}
	.st6{fill:#C9C9C9;}
	.st7{fill:#4E595F;}
</style>
<path
   style="fill:#ffffff;fill-opacity:1"
   class="st0"
   d="m 9.5127976,51.5 c -1.6,9.4 3.0000004,29.7 4.7000004,34.2 3,7.9 5.8,16.1 16.2,18.5 10.4,2.4 19.2,-0.5 22.5,-5.6 6.9,-10.4 6.2,-17.8 4.7,-23.3 -1.5,-5.5 -2.9,-9.1 0.5,-15.2 3.4,-6.1 -0.7,-8 0.8,-12.1 1.5,-4.1 5.2,-6.5 5.1,-8.3 -0.1,-1.8 -3.1,-3.1 -4.3,-5 -1.2,-1.9 1.3,-5.1 1.8,-7.5 0.5,-2.4 0,-11.7 -7,-17.9 -4.7,-4.1 -8.9,-9.3 -22.3,-9.3 -5.7,0 -13.6,3 -18.8,8.2 -5.2000004,5.2 -6.0000004,13 -5.4000004,15.7 0.6,2.7 -7.19999999,-0.5 -7.39999999,3.3 -0.2,3.8 -1.1,16 1.49999999,19.2 4.3,5.2 7.4,5.1 7.4,5.1 z"
   id="path4" />
<path
   class="st0"
   d="m 33.612798,39 c -0.8,1.8 -2,11.3 7.3,13.8 9.3,2.5 13.1,-4.9 13.6,-10.4 0.5,-5.5 -6.9,-4.9 -10.6,-5.1 -3.7,-0.2 -9.1,-0.9 -10.3,1.7 z"
   id="path6" />
<path
   class="st0"
   d="m 8.6127976,30.9 c 0,0 -2.2,5.1 -2.2,6.3 0,1.2 0.7,6 1.8,7.4 1.1,1.4 7.0000004,3.4 7.5000004,3.4 0.5,0 9.3,-0.2 12,-8.3 2.7,-8.1 -17.2,-9.6 -17.2,-9.6 z"
   id="path8" />
<path
   style="fill:#000000;fill-opacity:1"
   d="m 54.012798,29.6 c 10,-16.9 -30,-22.5 -40.8,-11.5 -2.6,2.7 2.6,15.4 7,11 0.5,-0.8 0.7,-1.5 1.3,-2.4 4,-6.3 7.1,-6.4 13.5,-5.8 9.1,-0.1 10.1,0.3 14.8,9.2 0.4,0.8 3.9,-0.2 4.2,-0.5 z"
   id="path10" />
<path
   style="fill:#ed6b21;fill-opacity:1"
   class="st1"
   d="m 24.012798,94.2 v 0 c -8.4,-13.3 -10.7,-30.6 -9.5,-46 0.1,-1.2 3.7,-0.2 4.6,-0.1 -0.6,13.7 0.5,45.9 17.8,48.1 4.3,0.2 8.2,-2.3 9.9,-6.3 3.6,-12 -5.6,-26.6 4.9,-36.9 v 0 c 1.9,-2.1 5.4,0.5 3.6,2.8 -1.8,2.3 -2.9,3.6 -3.5,5.9 -3.1,9.2 2.8,18.9 -0.1,28.1 -2.9,9.2 -16.1,14.3 -24.3,7.7 v 0"
   id="path12" />
<path
   style="fill:#ed6b21;fill-opacity:1"
   class="st1"
   d="m 42.212798,25.9 c -1.9,-4.7 -8.4,-6.5 -12.5,-3.6 l -0.9,1 c -1.5,-0.7 -3.1,-1.3 -4.7,-1.8 3.9,-5.8 12.2,-6.5 17.9,-3 l 2.5,2.4 v 0 c 2.1,2.6 3.1,5.9 2.8,9.2 -1.6,-0.8 -3.2,-1.4 -4.9,-1.8 0.1,0 0.3,0 0.3,-0.1 -0.1,-0.8 -0.3,-1.5 -0.5,-2.3 z"
   id="path14" />
<path
   class="st2"
   d="M 24.912798,95.1"
   id="path16" />
<path
   class="st2"
   d="M 26.512798,96.7 Z"
   id="path18" />
<path
   class="st2"
   d="M 39.012798,17.2 Z"
   id="path20" />
<path
   class="st2"
   d="m 38.412798,17 c 0,-0.1 0,-0.1 -0.1,-0.1 0.1,0 0.1,0 0.1,0.1 z"
   id="path22" />
<path
   class="st1"
   d="m 26.512798,74.3 c -0.8,-2.9 -4.1,-22 2.6,-18.1 1.9,2.2 0.1,5.8 0.6,8.5 0.6,4.2 0.2,10.6 4.7,12.5 6.7,0.5 3,-8.6 2.9,-12.4 -0.1,-3.8 -0.2,-6.8 -0.2,-10.1 0.1,-0.9 0,-1.8 -0.3,-2.6 3.1,1.8 5.1,1.7 8.9,2.1 -6.5,0.8 -0.4,17.8 -3.3,22.9 -3.5,7.9 -14.3,4.9 -15.9,-2.8 z"
   id="path24" />
<path
   d="m 39.512798,40.3 c 5.6,-3.2 10.7,5.4 5.1,8.7 -5.6,3.3 -10.7,-5.4 -5.1,-8.7 z"
   id="path26" />
<path
   class="st1"
   d="m 23.012798,32.2 c -1.5,0.3 -2.9,-1.1 -4.2,-1.4 l 1.5,-3.9 c 1.9,0 3.7,-0.5 5.6,-0.1 -1.2,1.2 -2.2,3.9 -2.9,5.4 z"
   id="path28" />
<path
   class="st1"
   d="m 41.912798,33.2 2.9,1.3 1.7,1.1 c -0.3,-0.1 -0.6,0.2 -0.7,0.5 0,0.1 0,0.1 0,0.2 -0.2,1.1 -0.2,1.1 -1.3,0.8 l -3,-0.6 h -0.6 z"
   id="path30" />
<path
   class="st3"
   d="m 37.712798,42 c -1.5,3.5 1.4,9 5.7,7.4 -4.6,1.8 -8.3,-3.9 -5.7,-7.4 z"
   id="path32" />
<path
   class="st4"
   d="m 46.912798,35.9 0.6,0.6 z"
   id="path34" />
<path
   class="st4"
   d="M 48.512798,36.8 Z"
   id="path36" />
<path
   class="st4"
   d="m 47.612798,36.5 0.6,0.3 z"
   id="path38" />
<path
   class="st4"
   d="m 50.112798,36.6 0.3,-0.2 z"
   id="path40" />
<path
   class="st4"
   d="M 50.912798,33.1 Z"
   id="path42" />
<path
   class="st4"
   d="m 50.912798,35.7 0.2,-0.2 z"
   id="path44" />
<path
   class="st4"
   d="M 49.612798,36.8 Z"
   id="path46" />
<path
   class="st5"
   d="m 42.212798,25.9 c 0,0.1 0,0.1 0.1,0.2 -0.1,-0.1 -0.1,-0.1 -0.1,-0.2 z"
   id="path48" />
<path
   class="st5"
   d="M 42.012798,25.4 Z"
   id="path50" />
<path
   class="st4"
   d="M 30.512798,24 Z"
   id="path52" />
<path
   class="st4"
   d="M 30.612798,25.6 Z"
   id="path54" />
<path
   class="st4"
   d="M 51.212798,35.1 Z"
   id="path56" />
<path
   class="st4"
   d="M 26.712798,26.9 Z"
   id="path58" />
<path
   d="m 15.312798,35.8 c 5.3,-3.9 11.4,4.2 6,7.9 -5.4,3.7 -10.9,-3.8 -6.2,-7.8 z"
   id="path60" />
<path
   class="st6"
   d="m 13.712798,37.7 c -0.5,3.2 1.7,6.2 4.9,6.7 0.5,0.1 0.9,0.1 1.4,0.1 -2.7,0.9 -5.6,-0.6 -6.4,-3.3 -0.4,-1.1 -0.4,-2.4 0.1,-3.5 z"
   id="path62" />
<path
   class="st4"
   d="m 22.012798,46.5 1.4,-0.6 -0.3,0.4 h -1.1 z"
   id="path64" />
<path
   class="st2"
   d="m 19.512798,67.3 c 0.1,0.1 0.1,0.2 0.1,0.3 0,-0.1 0,-0.2 -0.1,-0.3 z"
   id="path66" />
<path
   class="st4"
   d="m 23.412798,45.9 0.8,-0.4 z"
   id="path68" />
<path
   class="st2"
   d="M 26.212798,73.2 Z"
   id="path70" />
<path
   class="st2"
   d="M 26.712798,42 Z"
   id="path72" />
<path
   class="st2"
   d="M 26.112798,72.6 Z"
   id="path74" />
<path
   class="st2"
   d="M 26.812798,41.5 Z"
   id="path76" />
<path
   class="st2"
   d="M 26.912798,39.4 Z"
   id="path78" />
<path
   class="st2"
   d="M 22.912798,46.4 Z"
   id="path80" />
<path
   class="st2"
   d="M 26.512798,74.3 Z"
   id="path82" />
<path
   class="st2"
   d="M 42.912798,75.3 Z"
   id="path84" />
<path
   style="fill:#000000;fill-opacity:1"
   d="m 58.812798,39.5 c -6.3,-1.7 -12.8,-3.3 -19.3,-3.6 -3.2,0.3 -6.3,1 -9.4,-0.3 -6.3,-3.4 -13.2,-6.5 -20.5000004,-6.2 -1.2,0 -2.3,-0.1 -3.5,-0.3 -0.4,1.4 -0.1,0.1 -0.6,2 0.3,0.7 0.5,1.4 0.6,2.1 -0.9,4.3 -0.8,10 3.1,12.9 4.8000004,3.8 11.8000004,3.2 15.9000004,-1.3 0.8,-0.8 1.3,-1.8 2,-2.6 0.7,-0.8 1.6,-3.1 3.2,-2.9 1.2,0.2 2.1,1.2 2.1,2.4 0.3,3.8 1,8.4 4.4,10.7 8.4,4.1 15,2.3 18,-7 0.7,-1.6 2.1,-2.8 3.8,-3.1 0.5,-0.4 0.2,-2.1 0.2,-2.8 z m -31.7,-1.1 c -1.2,4.6 -5.6,8.8 -10.5,8.9 -4.9,0.1 -9.1000004,-2.1 -9.5000004,-6.6 -0.4,-4.5 0.7,-9.3 4.7000004,-9.8 4,-0.5 15.5,2 15.3,7.5 z m 26.5,5.1 c -0.4,5 -4.6,10.2 -10,9.2 -3.9,-0.6 -8.3,-2.7 -9.2,-6.8 -0.9,-4.1 -0.8,-8.2 5.2,-8.2 3.4,0 14,-0.2 14,5.8 z"
   id="path86" />
<path
   style="fill:#4e595f;fill-opacity:1"
   class="st7"
   d="m 53.412798,30.1 c 7,-20 -29.5,-19.9 -40.4,-11.8 4.5,-10.3 19.5,-15.6 29.6,-11 7.6,4.1 19.9,15.8 10.8,22.8 z"
   id="path88" />
<path
   style="fill:#4e595f;fill-opacity:1"
   class="st7"
   d="m 24.112798,21.5 c 2.5,0.7 6.9,0.3 6.5,4 -0.4,3.7 -4,1.2 -6,1.1 -9.4,2.5 -9.9,-5.6 -0.5,-5.1 z"
   id="path90" />
<path
   style="fill:#4e595f;fill-opacity:1"
   class="st7"
   d="m 42.112798,28 c 3.4,0.8 11.2,3.6 9.3,8 -1.9,4.4 -6.3,-2.4 -9.7,-2.7 -3.4,-0.3 -4.3,-6.5 0.4,-5.3 z"
   id="path92" />
<path
   id="path907"
   d="m 18.203847,44.251067 c -2.585952,-0.625707 -4.478069,-3.00093 -4.482221,-5.626647 -0.0011,-0.68342 0.04118,-0.908987 0.22645,-1.208766 0.441896,-0.715002 0.880695,-1.188019 1.507624,-1.625187 0.800402,-0.558135 1.608194,-0.86189 2.488286,-0.935673 2.081527,-0.174508 4.256505,1.315589 5.114618,3.504069 0.333045,0.849378 0.330531,2.330672 -0.0054,3.174942 -0.353649,0.888833 -1.35261,1.910112 -2.402796,2.456479 -0.918889,0.478058 -1.356034,0.524654 -2.446572,0.260783 z"
   style="fill:#000000;fill-opacity:1;stroke-width:0.104266" /><path
   id="path909"
   d="m 43.217112,54.362256 c -1.943218,-0.297512 -3.33888,-0.695069 -5.161161,-1.47017 -1.305359,-0.555231 -1.994482,-1.04951 -2.764143,-1.982606 -1.495878,-1.813522 -2.40778,-4.627277 -2.762975,-8.525403 -0.102151,-1.121063 -0.171339,-1.444217 -0.400105,-1.868746 -0.326236,-0.605409 -0.869849,-1.030551 -1.530406,-1.19688 -1.019338,-0.256673 -1.750342,0.238123 -2.983689,2.019573 -2.508173,3.622814 -3.600603,4.733874 -5.753345,5.851461 -1.821647,0.945701 -3.395384,1.328823 -5.440505,1.324476 -2.547169,-0.0054 -4.845125,-0.75357 -6.8207806,-2.220671 C 7.6204019,44.82326 6.5440009,43.087949 5.9755831,40.450215 5.705185,39.195436 5.7069633,35.746995 5.978813,34.186736 L 6.1717353,33.079474 5.9432039,32.257817 C 5.6045903,31.040373 5.599982,30.882333 5.8782008,30.028571 l 0.2548315,-0.781994 0.3997782,0.02038 c 0.219878,0.01121 1.7135282,0.06673 3.3192226,0.123387 3.3674269,0.118812 5.1309339,0.341238 7.4960049,0.94545 3.274014,0.836422 5.951877,1.892767 10.333459,4.07627 1.98671,0.99005 3.18594,1.524443 3.753571,1.67264 1.336652,0.348972 3.220015,0.37873 5.952537,0.09405 2.06175,-0.214796 2.428949,-0.226305 3.766452,-0.118047 3.128919,0.253253 6.304237,0.75368 7.172083,1.130311 0.475333,0.206287 0.838465,0.279371 1.511855,0.304275 0.916849,0.03391 2.659862,0.416264 6.859779,1.504796 l 2.107086,0.546114 v 1.184337 c 0,1.045317 -0.02448,1.208817 -0.208532,1.39287 -0.114693,0.114692 -0.279941,0.208532 -0.36722,0.208532 -0.399071,0 -1.553858,0.653076 -2.135083,1.207471 -0.803627,0.766531 -1.163082,1.338414 -1.56757,2.493967 -1.269217,3.62593 -3.359798,6.269806 -5.910062,7.474222 -1.253059,0.591784 -2.249827,0.819533 -3.78316,0.864403 -0.716828,0.02098 -1.444082,0.01659 -1.616121,-0.0097 z m 3.182819,-1.647337 c 1.514866,-0.321157 2.87975,-1.09633 4.097362,-2.327056 1.255255,-1.268773 2.027096,-2.541243 2.615639,-4.312181 0.891164,-2.681533 0.651771,-4.328111 -0.830909,-5.715085 -1.251949,-1.171137 -2.939613,-1.849937 -5.728403,-2.304036 -2.556217,-0.416229 -6.983049,-0.548668 -8.646042,-0.258667 -2.109031,0.367784 -3.297459,1.361334 -3.762093,3.145187 -0.331474,1.272612 -0.133889,3.885116 0.429383,5.677372 0.45329,1.442308 1.681515,2.976999 3.170323,3.961384 1.33698,0.883996 3.354989,1.686242 5.054857,2.009523 0.45877,0.08725 0.927967,0.178572 1.042659,0.202941 0.472239,0.100334 1.921768,0.05534 2.557224,-0.07938 z M 18.803694,47.037565 c 1.040805,-0.278608 2.517066,-0.984883 3.458594,-1.654666 2.130276,-1.515432 3.785931,-3.70126 4.628677,-6.110867 0.297814,-0.851521 0.314685,-0.971769 0.219366,-1.563641 -0.377369,-2.343245 -2.74543,-4.273287 -6.934379,-5.651728 -2.776474,-0.913644 -6.416073,-1.446889 -8.25518,-1.209484 -2.7814215,0.359046 -4.3821575,2.474641 -4.8396737,6.396303 -0.1508038,1.292635 -0.066449,3.597072 0.1671795,4.567069 0.4244128,1.762109 1.6258649,3.27225 3.3857492,4.255647 0.776664,0.433989 2.314765,0.935665 3.418401,1.114965 1.313296,0.213363 3.685606,0.141665 4.751266,-0.143598 z"
   style="fill:#000000;fill-opacity:1;stroke-width:0.104266" /><path
   id="path911"
   d="M 34.354513,100.34287 C 32.636205,100.08376 31.2567,99.666463 29.892044,98.992995 28.514652,98.313242 27.769121,97.742627 25.838289,95.890325 24.227126,94.344691 24.020387,94.103877 23.356838,92.999893 17.48238,83.226214 14.287653,70.121179 14.283972,55.782241 c -5.51e-4,-2.145727 0.170082,-7.169062 0.246702,-7.262774 0.0073,-0.009 0.4356,0.02759 0.951716,0.08123 0.858983,0.08927 2.710027,-0.0084 3.336508,-0.176031 0.206602,-0.05528 0.208588,-0.0034 0.214625,5.605874 0.0046,4.287333 0.04966,6.256461 0.185566,8.111924 1.459457,19.925157 6.774837,31.21635 15.891611,33.757743 0.88693,0.247241 1.202189,0.283006 2.476055,0.280901 1.188142,-0.002 1.62461,-0.04681 2.345982,-0.241068 3.658803,-0.985257 6.479522,-3.812988 7.243904,-7.261912 0.347392,-1.567446 0.467852,-2.611776 0.541206,-4.691964 0.07559,-2.143451 -0.05225,-4.145496 -0.592334,-9.276936 -0.479678,-4.557473 -0.656907,-7.371033 -0.56829,-9.021724 0.290852,-5.417702 1.715904,-9.024223 4.831427,-12.227378 0.729882,-0.750412 0.981987,-0.941994 1.404813,-1.06756 0.659795,-0.195938 1.173275,-0.112988 1.865009,0.301281 0.727845,0.435896 1.184405,1.270675 1.079084,1.973009 -0.08007,0.533956 -0.303524,0.891663 -1.670256,2.673779 -1.220102,1.59092 -1.913107,2.940695 -2.40918,4.69239 -0.663476,2.342819 -0.725984,2.868697 -0.719438,6.052594 0.0063,3.042357 0.01296,3.115024 0.721562,7.81994 0.704671,4.678809 0.731973,4.974663 0.731264,7.924206 -7.3e-4,2.970111 -0.0829,3.696434 -0.633993,5.602807 -1.301694,4.502915 -5.185635,8.324439 -10.244257,10.079627 -1.801781,0.625161 -2.849081,0.802741 -4.969162,0.842581 -1.032232,0.0194 -2.017544,0.014 -2.189583,-0.0119 z"
   style="fill:#ed6b21;fill-opacity:1;stroke-width:0.104266" /><path
   id="path913"
   d="m 34.669114,81.623916 c -1.97568,-0.19567 -3.845887,-1.089074 -5.409188,-2.583989 -1.849916,-1.768992 -2.615443,-3.587976 -3.337625,-7.930603 -1.206148,-7.252808 -1.149117,-12.637889 0.153983,-14.539638 0.575104,-0.83931 1.470536,-1.03146 2.535223,-0.54403 0.506065,0.231684 0.589723,0.32046 0.904466,0.959793 0.300933,0.611282 0.352491,0.834111 0.389667,1.684118 0.02397,0.547975 -0.03759,1.714216 -0.139703,2.646779 -0.204973,1.87195 -0.184892,2.659837 0.151269,5.935141 0.452166,4.40558 0.881102,6.169497 1.887904,7.763655 0.505546,0.800478 1.385228,1.633031 2.117597,2.004151 0.471884,0.239121 0.615985,0.262464 1.321663,0.214096 2.354093,-0.161353 3.365104,-1.685375 3.19599,-4.817713 -0.03415,-0.632474 -0.232806,-2.135266 -0.441465,-3.339536 -0.679615,-3.922395 -0.689251,-4.084539 -0.824012,-13.867361 -0.01738,-1.261617 -0.06525,-2.374361 -0.106387,-2.472764 -0.05861,-0.140199 0.124744,-0.0924 0.84733,0.220917 1.919334,0.832222 3.937271,1.375916 5.679096,1.530121 l 0.794874,0.07037 -0.414173,0.414173 c -0.526913,0.526912 -0.956452,1.454655 -1.195989,2.583164 -0.295217,1.39083 -0.250663,5.093945 0.114785,9.540327 0.238753,2.904873 0.282279,3.931023 0.241039,5.68249 -0.05886,2.499602 -0.206448,3.220069 -0.957579,4.674396 -1.558396,3.017343 -4.222293,4.49743 -7.508765,4.171942 z"
   style="fill:#ed6b21;fill-opacity:1;stroke-width:0.104266" /><path
   id="path917"
   d="m 53.591566,29.761694 c 0,-0.03612 0.09315,-0.377943 0.207004,-0.759596 0.734444,-2.461979 0.679593,-5.291878 -0.141586,-7.304807 -0.956968,-2.345782 -3.124331,-4.439793 -6.054027,-5.849133 -2.576132,-1.239256 -5.828787,-2.070447 -9.859803,-2.519596 -1.809858,-0.20166 -7.265169,-0.171342 -9.279663,0.05157 -6.204926,0.686607 -11.322453,2.186475 -14.595817,4.277808 -0.314632,0.201018 -0.587492,0.350051 -0.606356,0.331187 -0.074,-0.074 0.641349,-1.355111 1.295036,-2.31925 3.289046,-4.851102 8.99613,-8.3620988 15.566879,-9.576741 3.65383,-0.6754324 7.441625,-0.4654261 10.686031,0.5924645 1.439666,0.4694263 2.455868,0.9869658 4.128235,2.1024625 4.92363,3.284143 8.882307,7.481577 10.642178,11.284035 1.285177,2.77681 1.292948,5.437442 0.02201,7.535411 -0.585813,0.967015 -2.010122,2.493402 -2.010122,2.154183 z"
   style="fill:#4e595f;fill-opacity:1;stroke-width:0.104266" /><path
   id="path919"
   d="m 50.123834,30.254164 c -0.100845,-0.0399 -0.632062,-0.891655 -1.180483,-1.892785 -0.54842,-1.00113 -1.289411,-2.267206 -1.646648,-2.813502 -0.357236,-0.546295 -0.732559,-1.204403 -0.83405,-1.462461 -0.657522,-1.671846 -1.615336,-2.997145 -3.306173,-4.574654 -1.143669,-1.067016 -1.387477,-1.241714 -2.429945,-1.741154 -2.03795,-0.976369 -3.947244,-1.399028 -6.319889,-1.399028 -3.655857,0 -6.681054,1.161315 -8.95888,3.439142 -0.390609,0.390607 -0.860567,0.919583 -1.044354,1.175501 l -0.334157,0.465305 -1.478254,0.05945 c -2.053627,0.0826 -3.2152,0.433446 -4.306334,1.300717 -0.726052,0.577092 -1.016585,1.186849 -0.957132,2.008782 0.03561,0.492297 0.108962,0.69814 0.360194,1.010787 0.355478,0.442376 1.429806,1.036615 2.081372,1.151262 l 0.428874,0.07546 -0.530428,1.37547 c -0.399491,1.035935 -0.582573,1.389481 -0.741671,1.432232 -0.405858,0.109057 -1.211531,0.05833 -1.590858,-0.100163 -1.130942,-0.472538 -2.38385,-1.926808 -3.309217,-3.841063 -1.043836,-2.159325 -1.460147,-3.864225 -1.390243,-5.6934 0.0564,-1.475757 0.217649,-1.782089 1.304447,-2.47808 4.52876,-2.900242 12.766469,-4.687599 20.62304,-4.474636 5.308389,0.143892 9.407956,0.982927 12.869464,2.633921 3.842502,1.832712 6.081214,4.449477 6.675071,7.802295 0.252386,1.424929 0.07669,3.596454 -0.432937,5.350877 -0.214762,0.739332 -0.229187,0.758823 -0.644338,0.870611 -1.380475,0.371723 -2.470908,0.491444 -2.906471,0.319107 z"
   style="fill:#000000;fill-opacity:1;stroke-width:0.104266" /><path
   id="path921"
   d="m 26.534572,26.993447 c -1.595431,-0.452756 -1.732326,-0.458843 -3.38864,-0.150679 -1.177941,0.219161 -2.979364,0.176973 -3.82717,-0.08963 -1.120411,-0.352326 -1.907453,-1.203012 -1.907453,-2.061701 0,-1.651129 2.015933,-2.910989 4.952629,-3.09515 1.173341,-0.07358 1.615692,-0.0374 3.545039,0.289971 2.380703,0.403955 3.193038,0.677597 3.895503,1.31223 0.589645,0.53271 0.782974,1.099257 0.723817,2.121143 -0.05554,0.959527 -0.298736,1.518867 -0.812038,1.867694 -0.534452,0.3632 -1.405721,0.310109 -3.181687,-0.193878 z"
   style="fill:#4e595f;fill-opacity:1;stroke-width:0.104266" /><path
   id="path923"
   d="M 46.188689,29.297886 C 45.701246,29.080623 44.734882,28.724033 44.041214,28.505463 L 42.779997,28.108064 42.547268,27.0612 c -0.367291,-1.652151 -0.85657,-2.568746 -1.960451,-3.672627 -1.701052,-1.701053 -4.248385,-2.643901 -6.753634,-2.499734 -0.573462,0.033 -1.324176,0.133798 -1.668253,0.223994 -0.840302,0.220275 -2.011068,0.782671 -2.472224,1.187571 l -0.376075,0.330199 -0.784285,-0.263276 C 28.100989,22.222525 27.170048,22.009558 26.463588,21.894066 25.757129,21.778575 24.956722,21.63332 24.684907,21.571279 l -0.494209,-0.112803 0.494209,-0.629665 c 1.698222,-2.16368 4.339866,-3.674759 7.318679,-4.186448 1.270961,-0.218321 3.526396,-0.219146 4.808868,-0.0018 1.292775,0.219133 3.003137,0.775347 4.136405,1.345169 0.760002,0.382139 1.140301,0.675866 2.271907,1.754724 0.799164,0.76191 1.564074,1.601247 1.856596,2.037245 0.713833,1.06395 1.478032,2.724479 1.781794,3.871662 0.422632,1.596106 0.634675,4.080247 0.346125,4.054937 -0.07168,-0.0063 -0.529149,-0.189192 -1.016592,-0.406455 z"
   style="fill:#ed6b21;fill-opacity:1;stroke-width:0.104266" /><path
   id="path925"
   d="m 22.363938,31.839918 c -0.344078,-0.140532 -1.249612,-0.471824 -2.012298,-0.736205 -0.79632,-0.276039 -1.370058,-0.52955 -1.347608,-0.595452 0.0215,-0.06312 0.317081,-0.848408 0.656841,-1.74509 l 0.617747,-1.630329 1.303324,-0.04644 c 0.716827,-0.02554 1.70214,-0.131856 2.189583,-0.236252 0.855364,-0.183193 1.876786,-0.162471 1.876786,0.03808 0,0.04351 -0.249885,0.458935 -0.5553,0.923157 -0.305414,0.464223 -0.898854,1.610466 -1.318754,2.547208 -0.4199,0.936742 -0.768241,1.710744 -0.774091,1.720005 -0.0058,0.0093 -0.292153,-0.09814 -0.63623,-0.238675 z"
   style="fill:#ed6b21;fill-opacity:1;stroke-width:0.104266" /><path
   id="path927"
   d="m 22.414732,31.861261 c -0.31614,-0.128793 -1.221588,-0.460309 -2.012107,-0.736702 -0.823805,-0.288031 -1.420348,-0.551305 -1.397577,-0.616795 0.02185,-0.06285 0.315392,-0.847373 0.652314,-1.743396 l 0.612586,-1.629133 1.30766,-0.05472 c 0.719212,-0.03009 1.709651,-0.136418 2.200975,-0.236276 0.906757,-0.184291 1.86973,-0.148395 1.86973,0.0697 0,0.05766 -0.113537,0.254192 -0.252305,0.436741 -0.431226,0.567279 -0.993848,1.626954 -1.69859,3.199219 -0.372714,0.83152 -0.684463,1.519432 -0.692774,1.528693 -0.0083,0.0093 -0.273771,-0.08854 -0.589912,-0.217331 z"
   style="fill:#ed6b21;fill-opacity:1;stroke-width:0.104266" /><path
   id="path929"
   d="m 44.937499,36.386054 c -0.258058,-0.0445 -1.211203,-0.164146 -2.1181,-0.265891 l -1.648904,-0.18499 0.06493,-0.268455 c 0.03571,-0.14765 0.205678,-0.728219 0.377699,-1.290152 0.288229,-0.941544 0.330696,-1.016756 0.541312,-0.958702 0.557516,0.153671 2.17893,1.039474 2.965461,1.620076 0.741086,0.547055 0.845709,0.661879 0.755928,0.829637 -0.05731,0.107088 -0.104203,0.291629 -0.104203,0.410092 0,0.23359 -0.06157,0.241591 -0.834127,0.108385 z"
   style="fill:#ed6b21;fill-opacity:1;stroke-width:0.104266" /><path
   id="path931"
   d="m 42.904314,52.511337 c -2.932693,-0.632088 -5.038855,-1.704993 -6.642986,-3.384017 -1.412519,-1.478468 -2.012846,-3.140383 -2.134526,-5.909116 -0.06871,-1.563479 0.03909,-2.248069 0.49889,-3.168212 0.378776,-0.757998 0.951273,-1.291674 1.823479,-1.699828 0.943721,-0.441621 2.000438,-0.598226 4.057028,-0.60125 7.48589,-0.01101 11.758325,1.445143 12.835036,4.374498 0.612957,1.667643 -0.425455,5.157963 -2.189672,7.359948 -2.174521,2.714101 -4.959473,3.736596 -8.247249,3.027977 z m 0.131319,-2.839529 c 0.244264,-0.02988 0.822819,-0.243873 1.285678,-0.475542 2.380074,-1.191265 3.34156,-3.652001 2.397622,-6.136245 -0.693333,-1.824706 -2.211432,-3.133221 -3.993342,-3.442036 -2.850628,-0.49403 -5.913352,2.0991 -5.919593,5.011968 -0.004,1.889485 1.1862,3.815593 2.873043,4.649276 1.00906,0.498704 1.765643,0.587193 3.356592,0.392579 z"
   style="fill:#ffffff;fill-opacity:1;stroke-width:0.104266" /><path
   id="path933"
   d="M 14.022668,47.069341 C 10.366037,46.383187 8.0926808,44.573506 7.3510665,41.758481 7.1259269,40.903895 7.0362648,38.651765 7.1767225,37.379315 7.5998889,33.545718 9.201248,31.360352 11.883045,30.956621 c 1.930474,-0.290624 6.328855,0.434143 9.132939,1.504928 3.560735,1.359724 5.591281,3.133412 5.977213,5.22111 0.100711,0.544793 0.08574,0.684966 -0.147315,1.379218 -1.230784,3.666446 -4.356388,6.742 -7.946008,7.818774 -0.773239,0.231946 -1.157562,0.279982 -2.479091,0.309856 -1.086799,0.02457 -1.818489,-0.0124 -2.398115,-0.121166 z m 5.161161,-2.332388 c 0.75189,-0.126086 2.06879,-0.848758 2.835073,-1.555799 1.974831,-1.822154 1.897673,-4.78598 -0.178805,-6.868402 -1.787781,-1.792897 -4.037134,-2.082777 -6.193591,-0.798182 -1.578022,0.940022 -2.572959,2.850383 -2.349706,4.511625 0.32364,2.408233 1.860133,4.177051 4.039868,4.650716 0.796056,0.172986 1.112326,0.183266 1.847161,0.06004 z"
   style="fill:#ffffff;fill-opacity:1;stroke-width:0.104266" /></svg>
