<?xml version="1.0" encoding="UTF-8" standalone="no"?>
<svg
   xmlns:dc="http://purl.org/dc/elements/1.1/"
   xmlns:cc="http://creativecommons.org/ns#"
   xmlns:rdf="http://www.w3.org/1999/02/22-rdf-syntax-ns#"
   xmlns:svg="http://www.w3.org/2000/svg"
   xmlns="http://www.w3.org/2000/svg"
   xmlns:sodipodi="http://sodipodi.sourceforge.net/DTD/sodipodi-0.dtd"
   xmlns:inkscape="http://www.inkscape.org/namespaces/inkscape"
   version="1.0"
   id="Layer_1"
   x="0px"
   y="0px"
   viewBox="0 0 16 16"
   enable-background="new 0 0 16 16"
   xml:space="preserve"
   sodipodi:docname="notification_info.svg"
   inkscape:version="1.0 (4035a4fb49, 2020-05-01)"><metadata
   id="metadata34"><rdf:RDF><cc:Work
       rdf:about=""><dc:format>image/svg+xml</dc:format><dc:type
         rdf:resource="http://purl.org/dc/dcmitype/StillImage" /></cc:Work></rdf:RDF></metadata><defs
   id="defs32" /><sodipodi:namedview
   inkscape:document-rotation="0"
   pagecolor="#ffffff"
   bordercolor="#666666"
   borderopacity="1"
   objecttolerance="10"
   gridtolerance="10"
   guidetolerance="10"
   inkscape:pageopacity="0"
   inkscape:pageshadow="2"
   inkscape:window-width="2560"
   inkscape:window-height="1377"
   id="namedview30"
   showgrid="false"
   inkscape:zoom="63"
   inkscape:cx="9.1772719"
   inkscape:cy="7.5427608"
   inkscape:window-x="-8"
   inkscape:window-y="-8"
   inkscape:window-maximized="1"
   inkscape:current-layer="Layer_1" />

<path
   style="opacity:0.999;fill:#ffffff;fill-opacity:1;stroke-width:0.015873"
   d="m 5.0758562,12.956344 -2.995572,-1.996026 -3e-6,-2.9920641 -3e-6,-2.9920635 2.999543,-1.9986482 2.9995439,-1.99864812 2.9995429,1.99864812 2.999544,1.9986482 v 2.9920635 2.9920641 l -2.995619,1.996031 c -1.64759,1.097818 -2.9991701,1.99603 -3.0035114,1.996027 -0.00434,-3e-6 -1.3559005,-0.898217 -3.0034654,-1.996032 z M 10.586352,12.087933 13.079365,10.429835 13.07891,7.9569809 13.078456,5.4841269 10.579608,3.8192828 8.0807599,2.1544387 5.5803665,3.8192828 3.0799732,5.4841269 l -3.04e-4,2.4726796 -3.04e-4,2.4726795 2.4880951,1.65688 c 1.3684524,0.911284 2.4965964,1.657507 2.5069867,1.658273 0.01039,7.66e-4 1.1407475,-0.744751 2.511905,-1.656706 z"
   id="path875" /><text
   xml:space="preserve"
   style="font-style:normal;font-weight:normal;font-size:40px;line-height:1.25;font-family:sans-serif;fill:#ffffff;fill-opacity:1;stroke:none;"
   x="6.9523811"
   y="10.841269"
   id="text881"><tspan
     sodipodi:role="line"
     id="tspan879"
     x="6.9523811"
     y="10.841269"
     style="font-size:8px;fill:#ffffff;fill-opacity:1;">i</tspan></text><path
   style="opacity:0.999;fill:#ffffff;fill-opacity:1;stroke-width:0.015873"
   d="M 7.6852084,8.6538719 V 6.4792687 H 8.0502877 8.4153671 V 8.6538719 10.828475 H 8.0502877 7.6852084 Z"
   id="path883" /><path
   style="opacity:0.999;fill:#ffffff;fill-opacity:1;stroke-width:0.015873"
   d="M 7.6375893,5.3602211 V 4.9872052 H 8.0502877 8.4629862 V 5.3602211 5.733237 H 8.0502877 7.6375893 Z"
   id="path885" /><path
   style="opacity:0.999;fill:#ffffff;fill-opacity:1;stroke-width:0.015873"
   d="M 5.0770415,12.945679 2.0820338,10.951771 V 7.9695094 4.9872476 L 5.0793998,2.9889613 8.0767658,0.99067485 11.071463,2.9833368 14.066161,4.9759987 V 7.96609 10.956181 l -2.989292,1.991703 c -1.644111,1.095436 -2.992786,1.991702 -2.997056,1.991702 -0.00427,0 -1.3555173,-0.897258 -3.0027715,-1.993907 z m 3.8501097,0.252104 C 9.3772519,12.90093 10.496135,12.158896 11.413559,11.548818 l 1.668043,-1.109232 3.9e-5,-2.4841268 3.8e-5,-2.484127 L 10.579605,3.8075241 8.0775303,2.1437159 5.5718455,3.8141032 3.0661607,5.4844905 v 2.4743839 2.4743846 l 2.1785715,1.447852 c 2.9131306,1.936032 2.8100528,1.86842 2.8387731,1.862029 0.013905,-0.0031 0.3935453,-0.248505 0.8436459,-0.545357 z"
   id="path889" /><path
   style="opacity:0.999;fill:#ffffff;fill-opacity:1;stroke-width:0.015873"
   d="M 7.6852084,8.6538719 V 6.4792687 H 8.0502877 8.4153671 V 8.6538719 10.828475 H 8.0502877 7.6852084 Z"
   id="path891" /><path
   style="opacity:0.999;fill:#ffffff;fill-opacity:1;stroke-width:0.015873"
   d="M 7.6375893,5.3602211 V 4.9872052 H 8.0502877 8.4629861 V 5.3602211 5.733237 H 8.0502877 7.6375893 Z"
   id="path893" /></svg>
