<?xml version="1.0" encoding="UTF-8" standalone="no"?>
<svg
   xmlns:dc="http://purl.org/dc/elements/1.1/"
   xmlns:cc="http://creativecommons.org/ns#"
   xmlns:rdf="http://www.w3.org/1999/02/22-rdf-syntax-ns#"
   xmlns:svg="http://www.w3.org/2000/svg"
   xmlns="http://www.w3.org/2000/svg"
   xmlns:sodipodi="http://sodipodi.sourceforge.net/DTD/sodipodi-0.dtd"
   xmlns:inkscape="http://www.inkscape.org/namespaces/inkscape"
   inkscape:version="1.0 (4035a4fb49, 2020-05-01)"
   sodipodi:docname="notification_preferences.svg"
   xml:space="preserve"
   style="enable-background:new 0 0 100 100;"
   viewBox="0 0 100 100"
   y="0px"
   x="0px"
   id="minimalize_window"
   version="1.1"><metadata
   id="metadata17"><rdf:RDF><cc:Work
       rdf:about=""><dc:format>image/svg+xml</dc:format><dc:type
         rdf:resource="http://purl.org/dc/dcmitype/StillImage" /></cc:Work></rdf:RDF></metadata><defs
   id="defs15" /><sodipodi:namedview
   inkscape:current-layer="minimalize_window"
   inkscape:window-maximized="1"
   inkscape:window-y="-8"
   inkscape:window-x="-8"
   inkscape:cy="50"
   inkscape:cx="50"
   inkscape:zoom="10.08"
   showgrid="false"
   id="namedview13"
   inkscape:window-height="1377"
   inkscape:window-width="2560"
   inkscape:pageshadow="2"
   inkscape:pageopacity="0"
   guidetolerance="10"
   gridtolerance="10"
   objecttolerance="10"
   borderopacity="1"
   bordercolor="#666666"
   pagecolor="#ffffff" />
<style
   id="style2"
   type="text/css">
	.st0{fill:#ED6B21;}
</style>
<g
   id="g6">
	<path
   id="path4"
   d="M80,92.8H20c-7.1,0-12.8-5.8-12.8-12.8V20c0-7.1,5.8-12.8,12.8-12.8h60c7.1,0,12.8,5.8,12.8,12.8v60   C92.8,87.1,87.1,92.8,80,92.8z M20,12.8c-4,0-7.2,3.2-7.2,7.2v60c0,3.9,3.2,7.2,7.2,7.2h60c3.9,0,7.2-3.2,7.2-7.2V20   c0-4-3.2-7.2-7.2-7.2H20z"
   class="st0" />
</g>
<g
   id="g10">
	<path
   id="path8"
   d="M80.5,44l-5.7-0.7c-0.6-2.2-1.4-4.2-2.5-6.2l3.6-4.5c0.5-0.7,0.5-1.8-0.1-2.4l-5.9-5.9   c-0.6-0.6-1.7-0.7-2.4-0.1l-4.5,3.6c-1.9-1.1-4-2-6.1-2.5L56,19.6c-0.1-0.9-0.9-1.6-1.8-1.6h-8.3c-0.9,0-1.7,0.7-1.8,1.6l-0.7,5.7   c-2.2,0.6-4.2,1.4-6.1,2.5l-4.5-3.6c-0.7-0.5-1.8-0.5-2.4,0.1l-5.9,5.9c-0.6,0.6-0.7,1.7-0.1,2.4l3.6,4.5c-1.1,1.9-2,4-2.5,6.1   L19.6,44C18.7,44.1,18,45,18,45.8v8.3c0,0.9,0.7,1.7,1.6,1.8l5.7,0.7c0.6,2.2,1.4,4.2,2.5,6.1l-3.6,4.5c-0.5,0.7-0.5,1.8,0.1,2.4   l5.9,5.9c0.6,0.6,1.7,0.7,2.4,0.1l4.5-3.6c1.9,1.1,4,2,6.1,2.5l0.7,5.7c0.1,0.9,0.9,1.6,1.8,1.6h8.3c0.9,0,1.7-0.7,1.8-1.6l0.7-5.7   c2.2-0.6,4.2-1.4,6.1-2.5l4.5,3.6c0.7,0.5,1.8,0.5,2.4-0.1l5.9-5.9c0.6-0.6,0.7-1.7,0.1-2.4l-3.6-4.5c1.1-1.9,2-4,2.5-6.1l5.7-0.7   c0.9-0.1,1.6-0.9,1.6-1.8v-8.3C82,44.9,81.3,44.1,80.5,44z M50,66.8c-9.3,0-16.8-7.5-16.8-16.8S40.7,33.2,50,33.2   S66.8,40.7,66.8,50S59.3,66.8,50,66.8z"
   class="st0" />
</g>
<path
   id="path19"
   d="M 18.75,92.696085 C 16.846525,92.418222 15.645289,92.057103 14.248486,91.342827 10.768164,89.563113 8.3399658,86.370876 7.4768461,82.440476 7.2982304,81.627112 7.2916667,80.477245 7.2916667,50 c 0,-30.186048 0.00806,-31.633856 0.1805113,-32.417478 C 8.6132236,12.397531 12.392318,8.6115694 17.559524,7.4768461 18.372888,7.2982304 19.522755,7.2916667 50,7.2916667 c 30.186048,0 31.633856,0.00806 32.417478,0.1805113 3.232976,0.7114715 5.949953,2.4425305 7.826838,4.98669 1.078165,1.461476 1.917759,3.360629 2.286745,5.172592 0.168029,0.825133 0.177272,2.515491 0.177272,32.418143 0,30.365281 -0.0069,31.579027 -0.184138,32.385657 -0.592788,2.697863 -1.665191,4.687627 -3.53325,6.555685 -1.820587,1.820588 -3.639881,2.823244 -6.352056,3.500774 l -0.843254,0.210654 -31.39881,0.01496 C 33.12748,92.725556 18.886409,92.716002 18.75,92.696085 Z m 63.033409,-5.68899 c 2.670161,-0.682912 4.81496,-2.945768 5.315692,-5.608285 0.08202,-0.436105 0.104156,-8.923253 0.08281,-31.746032 L 87.152778,18.501984 86.882499,17.708333 C 86.496691,16.575445 85.97299,15.736341 85.118324,14.881675 84.26366,14.02701 83.424556,13.503308 82.291667,13.117501 L 81.498016,12.847222 H 50 18.501984 l -0.793651,0.270279 c -1.132888,0.385807 -1.971992,0.909509 -2.826658,1.764174 -0.854665,0.854666 -1.378367,1.69377 -1.764174,2.826658 l -0.270279,0.793651 -0.02736,31.200397 c -0.0307,35.008562 -0.09842,31.873352 0.723863,33.513124 0.958398,1.911204 2.60508,3.255124 4.642945,3.789286 0.689685,0.180778 1.691694,0.186837 31.772663,0.192128 30.5793,0.0054 31.07235,0.0024 31.82408,-0.189824 z"
   style="fill:#ed6b21;stroke-width:0.0992064" /><path
   id="path21"
   d="m 44.978562,81.556238 c -0.224588,-0.101989 -0.532838,-0.348659 -0.685,-0.548154 -0.25981,-0.340629 -0.296222,-0.518004 -0.597889,-2.912583 -0.176677,-1.402427 -0.35155,-2.806563 -0.388607,-3.120303 -0.04985,-0.42206 -0.107657,-0.570436 -0.222242,-0.570436 -0.426828,0 -3.130028,-1.019464 -4.485271,-1.691541 l -1.535713,-0.761572 -2.217643,1.778586 c -1.219703,0.978222 -2.37837,1.873418 -2.574815,1.989323 -0.425644,0.251135 -1.144099,0.270643 -1.57406,0.04274 -0.427236,-0.226462 -6.56291,-6.418305 -6.684742,-6.745938 -0.156941,-0.422049 -0.124807,-1.076279 0.07174,-1.460661 0.09658,-0.188868 0.985279,-1.352579 1.974895,-2.586024 l 1.799302,-2.242628 -0.575072,-1.130388 c -0.662867,-1.30296 -1.372055,-3.060993 -1.696609,-4.205785 -0.123752,-0.436508 -0.230017,-0.802816 -0.236144,-0.814019 -0.0061,-0.0112 -1.32638,-0.180242 -2.933895,-0.375643 -1.607514,-0.1954 -3.047348,-0.404462 -3.199631,-0.464579 -0.431862,-0.170489 -0.752876,-0.463248 -0.96597,-0.880946 -0.186214,-0.365011 -0.195644,-0.600505 -0.195644,-4.885734 v -4.502237 l 0.230916,-0.437231 c 0.436456,-0.826411 0.686836,-0.90879 4.179995,-1.375297 1.689394,-0.225616 3.075684,-0.419348 3.080644,-0.430516 0.005,-0.01117 0.115383,-0.39977 0.245386,-0.86356 0.343695,-1.226154 0.908071,-2.626283 1.629448,-4.04241 l 0.633472,-1.24356 -1.914391,-2.391737 c -1.866668,-2.332114 -2.229549,-2.912724 -2.092735,-3.348375 0.02325,-0.07405 0.07126,-0.268561 0.10669,-0.432251 0.04712,-0.217734 0.921421,-1.159194 3.257294,-3.507505 1.772449,-1.781888 3.334904,-3.271425 3.512118,-3.348214 0.438165,-0.189863 1.107839,-0.173444 1.519909,0.03726 0.188868,0.09658 1.352579,0.985279 2.586024,1.974895 l 2.242628,1.799302 1.151296,-0.588289 c 1.264016,-0.645888 2.953562,-1.3236 4.184877,-1.678644 0.436508,-0.125864 0.802816,-0.234062 0.814019,-0.240439 0.0112,-0.0064 0.180242,-1.326833 0.375643,-2.934348 0.1954,-1.607514 0.404462,-3.047348 0.464579,-3.199631 0.170489,-0.431862 0.463248,-0.752876 0.880946,-0.96597 0.365084,-0.186251 0.600598,-0.195644 4.905289,-0.195644 4.304692,0 4.540206,0.0094 4.905289,0.195644 0.41844,0.213473 0.711641,0.535411 0.879741,0.96597 0.05945,0.152283 0.313415,1.592373 0.564355,3.200201 0.250941,1.607827 0.465165,2.928375 0.476055,2.93455 0.01089,0.0062 0.332298,0.09235 0.714243,0.191496 1.067209,0.277031 2.798352,0.970587 4.182307,1.675576 l 1.252472,0.638011 2.391738,-1.914391 c 2.611882,-2.090599 2.873711,-2.23593 3.656618,-2.029642 0.366653,0.09661 0.840141,0.527191 3.631513,3.302435 1.783364,1.77306 3.271361,3.333213 3.348214,3.510574 0.189862,0.438165 0.173443,1.107839 -0.03727,1.519909 -0.09658,0.188868 -0.983684,1.350589 -1.971348,2.581602 l -1.795755,2.238205 0.534553,1.085208 c 0.645239,1.309911 1.426175,3.276043 1.731373,4.359017 0.123015,0.436508 0.227955,0.802093 0.233198,0.812412 0.0052,0.01032 1.359355,0.185141 3.009137,0.388494 3.155152,0.388906 3.405425,0.454071 3.747182,0.975657 0.14834,0.226397 0.163254,0.723673 0.149347,4.979853 -0.01647,5.040469 -0.0249,5.133596 -0.511957,5.652039 -0.380147,0.404648 -0.910219,0.526693 -3.819033,0.879306 -1.587713,0.192465 -2.915838,0.349937 -2.951389,0.349937 -0.03555,0 -0.06464,0.0729 -0.06464,0.162006 0,0.432927 -1.014133,3.126418 -1.691162,4.491646 l -0.761194,1.534947 1.91048,2.386851 c 1.862745,2.327215 2.225586,2.907999 2.088823,3.34349 -0.02325,0.07405 -0.07126,0.26856 -0.106691,0.432251 -0.04712,0.217734 -0.92142,1.159193 -3.257293,3.507504 -1.77245,1.781887 -3.334904,3.271425 -3.512118,3.348215 -0.438165,0.189862 -1.107839,0.173443 -1.519909,-0.03727 -0.188868,-0.09658 -1.352579,-0.98528 -2.586025,-1.974896 l -2.242628,-1.799302 -1.130388,0.575073 c -1.302959,0.662866 -3.060993,1.372054 -4.205784,1.696608 -0.436508,0.123752 -0.802817,0.230017 -0.814019,0.236145 -0.0112,0.0061 -0.179836,1.32638 -0.374739,2.933894 -0.357089,2.945162 -0.478368,3.474208 -0.883739,3.855033 -0.528135,0.496158 -0.637275,0.506365 -5.389595,0.504034 -4.124538,-0.002 -4.471911,-0.01546 -4.851013,-0.187615 z m 6.62303,-14.79524 c 2.138902,-0.216686 3.933005,-0.72075 5.797738,-1.62891 7.586919,-3.694968 11.2377,-12.430258 8.574373,-20.516058 -0.413275,-1.254694 -1.457004,-3.302898 -2.260641,-4.436267 -0.85516,-1.206028 -2.686797,-3.037665 -3.892825,-3.892825 -1.133369,-0.803637 -3.181573,-1.847366 -4.436267,-2.260641 -4.232216,-1.394021 -8.811951,-1.092505 -12.7833,0.841615 -7.586197,3.694616 -11.246703,12.45544 -8.572156,20.516058 1.286909,3.878519 4.151034,7.334154 7.715295,9.308687 2.191048,1.213798 4.039987,1.769517 7.016112,2.108768 0.65982,0.07521 1.870159,0.058 2.841671,-0.04043 z"
   style="fill:#ed6b21;stroke-width:0.0992064" /></svg>
