<?xml version="1.0" encoding="utf-8"?>
<!-- Generator: Adobe Illustrator 23.0.3, SVG Export Plug-In . SVG Version: 6.00 Build 0)  -->
<svg version="1.0" id="Layer_1" xmlns="http://www.w3.org/2000/svg" xmlns:xlink="http://www.w3.org/1999/xlink" x="0px" y="0px"
	 viewBox="0 0 16 16" enable-background="new 0 0 16 16" xml:space="preserve">
<g id="number_x5F_of_x5F_copies">
	<g>
		<path fill="#808080" d="M13,2c0.55,0,1,0.45,1,1V13c0,0.55-0.45,1-1,1H3c-0.55,0-1-0.45-1-1V3c0-0.55,0.45-1,1-1H13 M13,1H3
			c-1.1,0-2,0.89-2,2V13c0,1.1,0.89,2,2,2H13c1.1,0,2-0.89,2-2V3C15,1.89,14.11,1,13,1L13,1z"/>
	</g>
	<g>
		<path fill="#ED6B21" d="M6,4.5H4C3.72,4.5,3.5,4.28,3.5,4S3.72,3.5,4,3.5h2c0.28,0,0.5,0.22,0.5,0.5S6.28,4.5,6,4.5z"/>
	</g>
	<g>
		<path fill="#ED6B21" d="M12,8.5H8C7.72,8.5,7.5,8.28,7.5,8S7.72,7.5,8,7.5h4c0.28,0,0.5,0.22,0.5,0.5S12.28,8.5,12,8.5z"/>
	</g>
	<g>
		<path fill="#ED6B21" d="M6,12.5H4c-0.28,0-0.5-0.22-0.5-0.5s0.22-0.5,0.5-0.5h2c0.28,0,0.5,0.22,0.5,0.5S6.28,12.5,6,12.5z"/>
	</g>
	<g>
		<path fill="#ED6B21" d="M5,12.5c-0.28,0-0.5-0.22-0.5-0.5V4c0-0.28,0.22-0.5,0.5-0.5S5.5,3.72,5.5,4v8C5.5,12.28,5.28,12.5,5,12.5
			z"/>
	</g>
	<g>
		<path fill="#ED6B21" d="M10,10.5c-0.28,0-0.5-0.22-0.5-0.5V6c0-0.28,0.22-0.5,0.5-0.5s0.5,0.22,0.5,0.5v4
			C10.5,10.28,10.28,10.5,10,10.5z"/>
	</g>
</g>
</svg>
