<?xml version="1.0" encoding="utf-8"?>
<!-- Generator: Adobe Illustrator 23.0.3, SVG Export Plug-In . SVG Version: 6.00 Build 0)  -->
<svg version="1.0" id="Layer_1" xmlns="http://www.w3.org/2000/svg" xmlns:xlink="http://www.w3.org/1999/xlink" x="0px" y="0px"
	 viewBox="0 0 16 16" enable-background="new 0 0 16 16" xml:space="preserve">
<g id="output_x2B_page_x5F_white">
	<g>
		<path fill="#808080" d="M14.5,10c-0.27,0-0.5,0.23-0.5,0.5v3c0,0.27-0.23,0.5-0.5,0.5h-11C2.22,14,2,13.77,2,13.5v-11
			C2,2.22,2.22,2,2.5,2h11C13.77,2,14,2.22,14,2.5v3C14,5.78,14.23,6,14.5,6l0,0C14.77,6,15,5.78,15,5.5v-4C15,1.23,14.77,1,14.5,1
			h-13C1.23,1,1,1.23,1,1.5v13C1,14.77,1.23,15,1.5,15h13c0.27,0,0.5-0.23,0.5-0.5v-4C15,10.23,14.77,10,14.5,10L14.5,10z"/>
	</g>
	<path fill="#808080" d="M11,10h-0.04c-0.39,0.57-0.94,1.04-1.63,1.32c-1.83,0.73-3.91-0.16-4.64-1.99s0.16-3.91,1.99-4.64
		C8.26,4.05,10.03,4.64,10.96,6H11V4.99c-0.11-0.11-0.2-0.23-0.32-0.33l-0.06-0.98L9.31,3.12L8.57,3.75
		C8.23,3.71,7.88,3.7,7.54,3.74L6.81,3.09L5.48,3.62L5.4,4.6C5.12,4.81,4.87,5.05,4.66,5.32L3.69,5.37L3.12,6.69l0.63,0.75
		C3.71,7.77,3.7,8.12,3.74,8.46L3.09,9.19l0.53,1.33L4.6,10.6c0.21,0.28,0.45,0.52,0.72,0.74l0.06,0.98l1.31,0.56l0.75-0.63
		c0.34,0.05,0.68,0.05,1.03,0.01l0.73,0.65l1.33-0.53l0.08-0.98c0.15-0.11,0.27-0.26,0.4-0.39V10z"/>
	<g>
		<path fill="#ED6B21" d="M14.65,8.35c0.19-0.19,0.19-0.51,0-0.71l-2.29-2.29C12.16,5.16,12,5.22,12,5.5v1C12,6.78,11.77,7,11.5,7
			h-3C8.23,7,8,7.22,8,7.5v1C8,8.77,8.23,9,8.5,9h3C11.77,9,12,9.23,12,9.5v1c0,0.27,0.16,0.34,0.35,0.15L14.65,8.35z"/>
	</g>
</g>
</svg>
