<?xml version="1.0" encoding="utf-8"?>
<!-- Generator: Adobe Illustrator 23.0.3, SVG Export Plug-In . SVG Version: 6.00 Build 0)  -->
<svg version="1.0" id="Layer_1" xmlns="http://www.w3.org/2000/svg" xmlns:xlink="http://www.w3.org/1999/xlink" x="0px" y="0px"
	 viewBox="0 0 128 128" enable-background="new 0 0 128 128" xml:space="preserve">
<g id="paste">
	<path fill="#808080" d="M33.73,107.03H15.94c-1.4,0-2.54-1.14-2.54-2.54V23.52c0-1.4,1.14-2.54,2.54-2.54h7.62v5.08
		c0,1.4,1.14,2.54,2.54,2.54h45.72c1.4,0,2.54-1.14,2.54-2.54v-5.08h7.62c1.4,0,2.54,1.14,2.54,2.54v10.16
		c0,1.4,1.14,2.54,2.54,2.54c1.4,0,2.54-1.14,2.54-2.54V23.52c0-4.2-3.42-7.62-7.62-7.62h-7.62v-5.08c0-1.4-1.14-2.54-2.54-2.54
		H26.11c-1.4,0-2.54,1.14-2.54,2.54v5.08h-7.62c-4.2,0-7.62,3.42-7.62,7.62v80.97c0,4.2,3.42,7.62,7.62,7.62h17.78
		c1.4,0,2.54-1.14,2.54-2.54C36.27,108.16,35.13,107.03,33.73,107.03z M28.65,13.36h40.64v10.16H28.65V13.36z"/>
	<g>
		<path fill="#ED6B21" d="M53.97,59.08h35.72c1.4,0,2.54-1.14,2.54-2.54c0-1.4-1.14-2.54-2.54-2.54H53.97
			c-1.4,0-2.54,1.14-2.54,2.54C51.43,57.94,52.56,59.08,53.97,59.08z"/>
		<path fill="#ED6B21" d="M104.93,69.24H53.97c-1.4,0-2.54,1.14-2.54,2.54c0,1.4,1.14,2.54,2.54,2.54h50.96
			c1.4,0,2.54-1.14,2.54-2.54C107.47,70.38,106.33,69.24,104.93,69.24z"/>
		<path fill="#ED6B21" d="M104.93,99.72H53.97c-1.4,0-2.54,1.14-2.54,2.54s1.14,2.54,2.54,2.54h50.96c1.4,0,2.54-1.14,2.54-2.54
			S106.33,99.72,104.93,99.72z"/>
		<path fill="#ED6B21" d="M115.75,51.15l-8.06-8.06c-2.47-2.47-6.97-4.34-10.47-4.34h-50.8c-4.2,0-7.62,3.42-7.62,7.62v66.04
			c0,4.2,3.42,7.62,7.62,7.62h66.04c4.2,0,7.62-3.42,7.62-7.62v-50.8C120.09,58.12,118.23,53.62,115.75,51.15z M104.85,47.43
			l6.57,6.57h-6.57V47.43z M115.01,112.42c0,1.4-1.14,2.54-2.54,2.54H46.43c-1.4,0-2.54-1.14-2.54-2.54V46.38
			c0-1.4,1.14-2.54,2.54-2.54h50.8c0.74,0,1.63,0.18,2.54,0.46v12.24c0,1.4,1.14,2.54,2.54,2.54h12.24c0.28,0.91,0.46,1.8,0.46,2.54
			V112.42z"/>
		<path fill="#ED6B21" d="M104.93,84.48H53.97c-1.4,0-2.54,1.14-2.54,2.54c0,1.4,1.14,2.54,2.54,2.54h50.96
			c1.4,0,2.54-1.14,2.54-2.54C107.47,85.62,106.33,84.48,104.93,84.48z"/>
	</g>
</g>
</svg>
