<?xml version="1.0" encoding="utf-8"?>
<!-- Generator: Adobe Illustrator 24.0.0, SVG Export Plug-In . SVG Version: 6.00 Build 0)  -->
<svg version="1.0" id="Layer_1" xmlns="http://www.w3.org/2000/svg" xmlns:xlink="http://www.w3.org/1999/xlink" x="0px" y="0px"
	 viewBox="0 0 16 16" enable-background="new 0 0 16 16" xml:space="preserve">
<g id="pause_x5F_print">
	<g>
		<path fill="#ED6B21" d="M8,1.85l5.29,3.53V7v3.62L8,14.15l-5.29-3.53V7V5.38L8,1.85 M8,1L2,5v2v4l6,4l6-4V7V5L8,1L8,1z"/>
	</g>
	<g>
		<path fill="#ED6B21" d="M6,11.71c-0.39,0-0.71-0.32-0.71-0.71V5c0-0.39,0.32-0.71,0.71-0.71S6.71,4.61,6.71,5v6
			C6.71,11.39,6.39,11.71,6,11.71z"/>
	</g>
	<g>
		<path fill="#ED6B21" d="M10,11.71c-0.39,0-0.71-0.32-0.71-0.71V5c0-0.39,0.32-0.71,0.71-0.71S10.71,4.61,10.71,5v6
			C10.71,11.39,10.39,11.71,10,11.71z"/>
	</g>
</g>
</svg>
