<?xml version="1.0" encoding="utf-8"?>
<!-- Generator: Adobe Illustrator 23.0.2, SVG Export Plug-In . SVG Version: 6.00 Build 0)  -->
<svg version="1.0" id="Layer_1" xmlns="http://www.w3.org/2000/svg" xmlns:xlink="http://www.w3.org/1999/xlink" x="0px" y="0px"
	 viewBox="0 0 128 128" enable-background="new 0 0 128 128" xml:space="preserve">
<g id="place">
	<g>
		<path fill="#FFFFFF" d="M101.56,93.65c-0.28,0-0.57-0.04-0.85-0.1L37.65,77.82c-0.9-0.22-1.67-0.79-2.15-1.59s-0.62-1.74-0.4-2.65
			l15.72-63.06c0.47-1.87,2.37-3.02,4.24-2.55l63.06,15.72c1.87,0.47,3.02,2.37,2.55,4.24l-15.72,63.06h0
			c-0.23,0.91-0.79,1.67-1.59,2.15C102.8,93.47,102.18,93.65,101.56,93.65z M54.21,10.87c-0.22,0-0.43,0.15-0.49,0.38L38.01,74.31
			c-0.04,0.17,0.02,0.31,0.06,0.38c0.04,0.07,0.13,0.19,0.31,0.23l63.06,15.72c0.17,0.04,0.31-0.02,0.38-0.06
			c0.07-0.04,0.19-0.13,0.23-0.3c0,0,0,0,0,0l15.72-63.06c0.07-0.26-0.1-0.54-0.37-0.61L54.33,10.88
			C54.29,10.87,54.25,10.87,54.21,10.87z"/>
	</g>
	<g>
		<path fill="#ED6B21" d="M118.02,120.54H9.98c-1.93,0-3.5-1.57-3.5-3.5v-4c0-1.93,1.57-3.5,3.5-3.5h108.04c1.93,0,3.5,1.57,3.5,3.5
			v4C121.52,118.97,119.95,120.54,118.02,120.54z M9.98,112.54c-0.27,0-0.5,0.23-0.5,0.5v4c0,0.27,0.23,0.5,0.5,0.5h108.04
			c0.27,0,0.5-0.23,0.5-0.5v-4c0-0.27-0.23-0.5-0.5-0.5H9.98z"/>
	</g>
	<g>
		<g>
			<path fill="#ED6B21" d="M15.99,103.92c-0.08,0-0.15,0-0.23-0.01c-0.92-0.09-1.69-0.72-2.11-1.73L7.42,87.2
				c-0.41-0.98-0.33-1.97,0.22-2.71c0.55-0.74,1.48-1.11,2.53-1L25.29,85c1.06,0.11,1.89,0.65,2.28,1.48
				c0.39,0.84,0.27,1.82-0.32,2.71l-9.08,13.43C17.61,103.46,16.82,103.92,15.99,103.92z M10.4,86.52l5.72,13.77l8.36-12.35
				L10.4,86.52z M24.81,87.43L24.81,87.43z"/>
		</g>
		<g>
			<path fill="#ED6B21" d="M17.54,85.9c-0.83,0-1.5-0.67-1.5-1.5c0-8.88,8.1-24.47,17.34-25.5c0.82-0.09,1.56,0.5,1.66,1.33
				c0.09,0.82-0.5,1.56-1.33,1.66c-6.94,0.77-14.67,14.08-14.67,22.52C19.04,85.22,18.37,85.9,17.54,85.9z"/>
		</g>
	</g>
</g>
</svg>
