<?xml version="1.0" encoding="utf-8"?>
<!-- Generator: Adobe Illustrator 23.0.3, SVG Export Plug-In . SVG Version: 6.00 Build 0)  -->
<svg version="1.0" id="Layer_1" xmlns="http://www.w3.org/2000/svg" xmlns:xlink="http://www.w3.org/1999/xlink" x="0px" y="0px"
	 viewBox="0 0 16 16" enable-background="new 0 0 16 16" xml:space="preserve">
<g id="plater">
	<path fill="#808080" d="M13,2c0.55,0,1,0.45,1,1V13c0,0.55-0.45,1-1,1H3c-0.55,0-1-0.45-1-1V3c0-0.55,0.45-1,1-1H13 M13,1H3
		c-1.1,0-2,0.89-2,2V13c0,1.1,0.89,2,2,2H13c1.1,0,2-0.89,2-2V3C15,1.89,14.11,1,13,1L13,1z"/>
	<path fill="#ED6B21" d="M8.42,3.28c-0.23-0.15-0.6-0.15-0.83,0l-3.46,2.3C3.9,5.73,3.71,6.08,3.71,6.36v1.85c0,0.28,0,0.54,0,0.58
		s0,0.31,0,0.58v0.27c0,0.27,0.19,0.62,0.42,0.78l3.46,2.3c0.23,0.15,0.6,0.15,0.83,0l3.46-2.3c0.23-0.15,0.42-0.5,0.42-0.78V9.38
		c0-0.28,0-0.54,0-0.58s0-0.31,0-0.58V6.36c0-0.28-0.19-0.62-0.42-0.78L8.42,3.28z"/>
</g>
</svg>
