<?xml version="1.0" encoding="utf-8"?>
<!-- Generator: Adobe Illustrator 23.0.2, SVG Export Plug-In . SVG Version: 6.00 Build 0)  -->
<svg version="1.0" id="Layer_1" xmlns="http://www.w3.org/2000/svg" xmlns:xlink="http://www.w3.org/1999/xlink" x="0px" y="0px"
	 viewBox="0 0 128 128" enable-background="new 0 0 128 128" xml:space="preserve">
<g id="preview">
	<g>
		<path fill="#FFFFFF" d="M90.72,121.38H8.12c-0.83,0-1.5-0.67-1.5-1.5s0.67-1.5,1.5-1.5h81.99l28.72-28.15
			c0.59-0.58,1.54-0.57,2.12,0.02c0.58,0.59,0.57,1.54-0.02,2.12l-29.16,28.57C91.49,121.23,91.11,121.38,90.72,121.38z"/>
	</g>
	<g>
		<path fill="#FFFFFF" d="M90.72,111.38H8.12c-0.83,0-1.5-0.67-1.5-1.5s0.67-1.5,1.5-1.5h81.99l28.72-28.14
			c0.59-0.58,1.54-0.57,2.12,0.02c0.58,0.59,0.57,1.54-0.02,2.12l-29.16,28.57C91.49,111.23,91.11,111.38,90.72,111.38z"/>
	</g>
	<g>
		<path fill="#FFFFFF" d="M90.72,101.38H8.12c-0.83,0-1.5-0.67-1.5-1.5s0.67-1.5,1.5-1.5h81.99l28.72-28.14
			c0.59-0.58,1.54-0.57,2.12,0.02s0.57,1.54-0.02,2.12l-29.16,28.57C91.49,101.23,91.11,101.38,90.72,101.38z"/>
	</g>
	<g>
		<path fill="#FFFFFF" d="M90.72,91.38H8.12c-0.83,0-1.5-0.67-1.5-1.5s0.67-1.5,1.5-1.5h81.99l28.72-28.15
			c0.59-0.58,1.54-0.57,2.12,0.02s0.57,1.54-0.02,2.12L91.77,90.95C91.49,91.23,91.11,91.38,90.72,91.38z"/>
	</g>
	<g>
		<path fill="#FFFFFF" d="M90.72,81.38H8.12c-0.83,0-1.5-0.67-1.5-1.5s0.67-1.5,1.5-1.5h81.99l28.72-28.15
			c0.59-0.58,1.54-0.57,2.12,0.02c0.58,0.59,0.57,1.54-0.02,2.12L91.77,80.95C91.49,81.23,91.11,81.38,90.72,81.38z"/>
	</g>
	<g>
		<path fill="#FFFFFF" d="M90.72,71.38H8.12c-0.83,0-1.5-0.67-1.5-1.5s0.67-1.5,1.5-1.5h81.99l28.72-28.15
			c0.59-0.58,1.54-0.57,2.12,0.02c0.58,0.59,0.57,1.54-0.02,2.12L91.77,70.95C91.49,71.23,91.11,71.38,90.72,71.38z"/>
	</g>
	<g>
		<path fill="#ED6B21" d="M90.72,61.38H8.12c-0.83,0-1.5-0.67-1.5-1.5s0.67-1.5,1.5-1.5h81.99l28.72-28.15
			c0.59-0.58,1.54-0.57,2.12,0.02c0.58,0.59,0.57,1.54-0.02,2.12L91.77,60.95C91.49,61.23,91.11,61.38,90.72,61.38z"/>
	</g>
	<g>
		<path fill="#FFFFFF" d="M90.72,51.38H8.12c-0.83,0-1.5-0.67-1.5-1.5s0.67-1.5,1.5-1.5h81.99l28.72-28.15
			c0.59-0.58,1.54-0.57,2.12,0.02s0.57,1.54-0.02,2.12L91.77,50.95C91.49,51.23,91.11,51.38,90.72,51.38z"/>
	</g>
	<g>
		<g>
			<path fill="#FFFFFF" d="M88.72,41.38H9.18c-1.68,0-2.22-0.95-2.37-1.36s-0.37-1.48,0.89-2.59L38.43,10.5
				c1.1-0.96,3.03-1.69,4.49-1.69h75.85c1.65,0,2.22,0.94,2.38,1.34s0.42,1.47-0.75,2.63c0,0,0,0,0,0L93.2,39.55
				C92.14,40.59,90.21,41.38,88.72,41.38z M11.17,38.38h77.55c0.71,0,1.87-0.47,2.37-0.97l26.01-25.6H42.92
				c-0.74,0-1.96,0.46-2.51,0.95L11.17,38.38z M118.89,11.82C118.89,11.82,118.89,11.82,118.89,11.82
				C118.89,11.82,118.89,11.82,118.89,11.82z M119.34,11.71L119.34,11.71L119.34,11.71z"/>
		</g>
	</g>
</g>
</svg>
