<?xml version="1.0" encoding="utf-8"?>
<!-- Generator: Adobe Illustrator 25.0.0, SVG Export Plug-In . SVG Version: 6.00 Build 0)  -->
<svg version="1.0" id="Layer_1" xmlns="http://www.w3.org/2000/svg" xmlns:xlink="http://www.w3.org/1999/xlink" x="0px" y="0px"
	 viewBox="0 0 1024 1024" enable-background="new 0 0 1024 1024" xml:space="preserve">
<circle fill="#FFFFFF" cx="512" cy="512" r="512"/>
<path fill="#333333" d="M308.97,650.05c0.72,0.89,1.44,1.77,2.17,2.65c0.47,0.57,0.94,1.13,1.42,1.69
	c5.82,6.94,11.97,13.7,18.49,20.22l435.89-435.89c-21.69-21.69-45.83-39.46-71.5-53.33c-0.46-0.25-0.93-0.51-1.39-0.75
	c-1.31-0.7-2.63-1.39-3.96-2.07c-0.58-0.3-1.16-0.59-1.73-0.88c-1.34-0.68-2.69-1.36-4.04-2.02c0,0,0,0,0,0l0,0
	c-23.73-11.59-48.64-19.95-74.07-25.08l0,0c0,0,0,0,0,0c-4.86-0.98-9.74-1.84-14.63-2.59c0,0,0,0-0.01,0
	c-2.44-0.37-4.89-0.71-7.34-1.03c0,0-0.01,0-0.01,0c-2.45-0.31-4.91-0.6-7.37-0.85l0,0l0,0c-8.26-0.85-16.54-1.39-24.83-1.58
	c-1.96-0.04-3.92-0.06-5.87-0.07c-0.4,0-0.79-0.01-1.19-0.01c-0.3,0-0.61,0.01-0.91,0.01c-1.78,0.01-3.57,0.03-5.35,0.06
	c-0.96,0.02-1.92,0.05-2.88,0.08c-1.03,0.03-2.05,0.07-3.08,0.11c-1.84,0.07-3.67,0.16-5.5,0.27c-0.56,0.03-1.12,0.07-1.68,0.1
	c-15.09,0.95-30.12,2.99-44.97,6.15l0,0c0,0,0,0,0,0c-2.2,0.47-4.39,0.96-6.58,1.48c-0.14,0.03-0.28,0.06-0.42,0.1
	c-2.11,0.5-4.22,1.03-6.33,1.57c-0.2,0.05-0.4,0.1-0.61,0.16c-2.07,0.54-4.14,1.11-6.2,1.7c-0.22,0.06-0.44,0.12-0.67,0.19
	c-2.06,0.59-4.12,1.21-6.17,1.84c-0.21,0.06-0.42,0.13-0.63,0.19c-2.07,0.65-4.14,1.31-6.2,2c-0.18,0.06-0.35,0.12-0.53,0.18
	c-2.09,0.71-4.18,1.43-6.26,2.18c-0.13,0.05-0.26,0.1-0.4,0.14c-2.12,0.77-4.24,1.56-6.35,2.38c-0.07,0.03-0.14,0.06-0.22,0.08
	c-2.17,0.84-4.33,1.71-6.48,2.6c0,0,0,0,0,0l0,0c-33.3,13.84-64.67,33.76-92.4,59.79h0c0,0,0,0,0,0c-0.94,0.88-1.87,1.77-2.8,2.66
	c-1.46,1.4-2.91,2.81-4.35,4.24c-1.43,1.43-2.84,2.88-4.23,4.34c-25.08,26.07-44.67,55.46-58.78,86.73v0c0,0,0,0,0,0
	c-2.06,4.57-4.01,9.17-5.83,13.82c-0.18,0.45-0.36,0.91-0.53,1.36c-0.54,1.4-1.08,2.8-1.61,4.21c0,0,0,0,0,0l0,0
	c-15.88,42.78-21.94,88.37-18.19,133.3c0,0,0,0,0,0l0,0c1.15,13.7,3.19,27.35,6.16,40.83c0.4,1.81,0.82,3.61,1.25,5.42
	c0.19,0.79,0.38,1.57,0.57,2.36c0.41,1.64,0.83,3.28,1.26,4.92c0.27,1.03,0.55,2.05,0.84,3.07c0.23,0.82,0.46,1.64,0.7,2.46
	c0.56,1.95,1.13,3.89,1.73,5.83c0.12,0.39,0.24,0.78,0.36,1.17c0.79,2.54,1.61,5.07,2.47,7.59c0,0,0,0,0,0l0,0
	c10.76,31.64,26.79,61.88,48.12,89.34C306.53,647,307.74,648.53,308.97,650.05z M346.52,261.4l26.16,17.44v51.62l-26.16,17.44
	l-26.16,17.44l-26.16-17.44l-9.53-6.35c13.53-31.12,32.34-59.34,56-84.05L346.52,261.4z M549.89,168.46l9.76,6.51v51.62
	l-26.16,17.44l-26.16,17.44l-46.15-30.77l-6.17-4.11v-42.45c30.19-10.41,61.74-15.69,93.99-15.69
	C549.29,168.44,549.59,168.45,549.89,168.46z M641.98,330.46v-51.62l26.16-17.44l26.16-17.44l23.46,15.64l-72.83,72.83
	L641.98,330.46z M509.79,467.58l-2.46,1.64L455,434.34v-51.62l10.98-7.32l41.34-27.56l26.16,17.44l26.16,17.44v35L509.79,467.58z
	 M330.35,642.09v-51.62l26.16-17.44l26.16-17.44l23.46,15.64l-72.83,72.83L330.35,642.09z M418.84,555.65l-26.16-17.44v-51.62
	l26.16-17.44L445,451.71l26.16,17.44l22.23,14.82l-72.83,72.83L418.84,555.65z M621.98,330.46l-26.16,17.44l-26.16,17.44
	l-52.32-34.88v-51.62l52.32-34.88l26.16,17.44l26.16,17.44V330.46z M624.65,352.72l-45,45v-15l26.16-17.44L624.65,352.72z
	 M445,243.96l26.16,17.44l26.16,17.44v51.62l-26.16,17.44L445,365.34l-26.16-17.44l-26.16-17.44v-51.62l26.16-17.44L445,243.96z
	 M408.84,365.27L435,382.72v51.62l-52.32,34.88l-26.16-17.44l-26.16-17.44v-51.62l26.16-17.44l26.16-17.44L408.84,365.27z
	 M346.52,469.15l26.16,17.44v51.62l-26.16,17.44l-26.16,17.44l-26.16-17.44l-20.57-13.72c-2.12-6.87-3.99-13.8-5.59-20.79v-34.56
	l26.16-17.44l26.16-17.44L346.52,469.15z M310.35,590.47v27.94c-9.53-14.02-17.77-28.84-24.69-44.4L310.35,590.47z M732.19,245.18
	l-27.89-18.59v-12.8c11.86,7.6,23.16,16.08,33.87,25.42L732.19,245.18z M657.46,189.55c9.2,3.73,18.15,7.91,26.85,12.53v24.51
	l-26.16,17.44l-26.16,17.44l-26.16-17.44l-26.16-17.44v-51.62l6.25-4.17C610.43,173.93,634.38,180.19,657.46,189.55z M435,191.87
	v34.72l-26.16,17.44l-26.16,17.44l-26.16-17.44l-1.21-0.81C378.99,221.68,405.73,204.45,435,191.87z M284.19,365.27l26.16,17.44
	v51.62l-49.37,32.92c-0.13-3.52-0.21-7.05-0.21-10.59c0-32.99,5.52-65.24,16.41-96.07L284.19,365.27z"/>
<path fill="#ED6B21" d="M759.84,687.31c0.31-0.74,0.63-1.49,0.94-2.23c0.51-1.24,1.01-2.48,1.51-3.72c0.3-0.75,0.59-1.5,0.88-2.26
	c15.37-39.59,22.26-81.7,20.67-123.56c-0.02-0.42-0.03-0.85-0.05-1.28c-0.08-1.87-0.18-3.74-0.29-5.61
	c-0.01-0.19-0.02-0.38-0.03-0.57c-0.12-1.99-0.27-3.98-0.43-5.96c0,0,0,0,0,0l0,0c-1.24-15.16-3.59-30.24-7.06-45.12l0,0
	c0,0,0,0,0,0c-0.58-2.49-1.19-4.98-1.84-7.46c0,0,0,0,0,0c-0.64-2.47-1.31-4.92-2.01-7.38c-0.01-0.02-0.01-0.05-0.02-0.07
	c-0.7-2.43-1.43-4.86-2.18-7.28c-0.01-0.04-0.02-0.07-0.03-0.11c-0.77-2.44-1.56-4.87-2.39-7.3c0,0,0,0,0,0l0,0
	c-10.8-31.61-26.88-61.81-48.25-89.23c-1.1-1.41-2.22-2.81-3.35-4.21c-0.8-0.99-1.61-1.98-2.43-2.96c-0.44-0.53-0.88-1.05-1.32-1.57
	c-5.77-6.88-11.87-13.57-18.34-20.04l-5.16,5.16l0,0l-14.42,14.42l0,0L590.4,452.8l-3.42,3.42l0,0l-60.3,60.3l0,0l-20,20l0,0
	l-2.64,2.64l0,0l-30.11,30.11l-96.89,96.89l0,0l-10.84,10.84l-76.42,76.42h0l-13.83,13.83l-18.03,18.03
	c18.94,18.94,39.73,34.89,61.78,47.87c1.78,1.05,3.56,2.07,5.36,3.08c0.86,0.48,1.72,0.95,2.58,1.42c1.13,0.62,2.26,1.24,3.4,1.84
	c0.89,0.47,1.78,0.95,2.67,1.41c1.25,0.65,2.5,1.28,3.75,1.91c28.95,14.55,59.72,24.25,91.1,29.1c0,0,0,0,0,0
	c2.44,0.38,4.88,0.72,7.32,1.04c0,0,0.01,0,0.01,0c2.45,0.32,4.89,0.61,7.34,0.87c0,0,0,0,0,0l0,0c8.87,0.94,17.78,1.5,26.69,1.67
	c1.44,0.03,2.87,0.04,4.31,0.05c0.54,0,1.08,0.02,1.62,0.02c0.41,0,0.83-0.01,1.24-0.01c1.49-0.01,2.97-0.02,4.46-0.05
	c1.11-0.02,2.23-0.05,3.34-0.08c0.66-0.02,1.31-0.05,1.97-0.07c2.2-0.08,4.4-0.18,6.59-0.3c0.26-0.02,0.52-0.03,0.79-0.05
	c15.01-0.89,29.97-2.88,44.75-5.95l0,0c0,0,0,0,0,0c2.3-0.48,4.61-0.99,6.9-1.52c0.04-0.01,0.08-0.02,0.12-0.03
	c2.26-0.53,4.52-1.08,6.77-1.66c0.08-0.02,0.15-0.04,0.23-0.06c2.22-0.57,4.43-1.17,6.64-1.79c0.11-0.03,0.21-0.06,0.32-0.09
	c2.18-0.62,4.36-1.26,6.54-1.93c0.13-0.04,0.25-0.08,0.38-0.12c2.16-0.67,4.31-1.35,6.46-2.07c0.13-0.04,0.26-0.09,0.39-0.13
	c2.15-0.72,4.29-1.46,6.42-2.22c0.12-0.04,0.24-0.09,0.35-0.13c2.15-0.78,4.3-1.57,6.44-2.4c0.08-0.03,0.15-0.06,0.23-0.09
	c37.07-14.33,71.92-36.1,102.27-65.29c1.46-1.39,2.91-2.8,4.34-4.23c1.43-1.43,2.84-2.89,4.24-4.35c0.9-0.94,1.8-1.88,2.69-2.83l0,0
	l0,0C726.34,750.82,746.03,720.02,759.84,687.31z M739.81,658.73l-26.16-17.44v-51.62l26.16-17.44l24.04-16.03
	c0.14,3.71,0.23,7.42,0.23,11.14c0,33.15-5.58,65.56-16.57,96.52L739.81,658.73z M474.09,855.53l-9.75-6.5v-51.62l26.16-17.44
	l26.16-17.44l26.16,17.44L569,797.41v42.74c-29.93,10.21-61.19,15.4-93.13,15.4C475.27,855.56,474.68,855.54,474.09,855.53z
	 M516.69,554.79l26.14,17.43L569,589.66v51.62l-26.16,17.44l-26.16,17.44l-26.16-17.44l-26.16-17.44v-34.15L516.69,554.79z
	 M579,658.66l26.16,17.44l26.16,17.44v51.62l-26.16,17.44L579,780.04l-26.16-17.44l-26.16-17.44v-51.62l26.16-17.44L579,658.66z
	 M402.02,693.54l26.16-17.44l26.16-17.44l26.16,17.44l26.16,17.44v51.62l-26.16,17.44l-26.16,17.44l-26.16-17.44l-26.16-17.44
	V693.54z M401.91,669.58l42.44-42.44v14.15l-26.16,17.44L401.91,669.58z M589,797.41l26.16-17.44l26.16-17.44l26.16,17.44l1.71,1.14
	c-23.82,21.6-50.73,38.83-80.2,51.38V797.41z M615.16,658.73L589,641.28v-51.62l26.16-17.44l26.16-17.44l26.16,17.44l26.16,17.44
	v51.62l-26.16,17.44l-26.16,17.44L615.16,658.73z M677.48,554.85l-26.16-17.44v-51.62l26.16-17.44l26.16-17.44l26.16,17.44
	l21.65,14.43c1.66,5.43,3.18,10.89,4.51,16.4v38.23l-26.16,17.44l-26.16,17.44L677.48,554.85z M739.55,450.8l-25.9-17.27v-29.18
	C723.7,418.98,732.35,434.49,739.55,450.8z M693.65,381.91v51.62l-26.16,17.44l-26.16,17.44l-22.95-15.3l72.83-72.83L693.65,381.91z
	 M605.16,468.35l26.16,17.44v51.62l-26.16,17.44L579,572.29l-26.16-17.44l-21.72-14.48l72.83-72.83L605.16,468.35z M379.58,691.91
	l2.44,1.63v51.62l-26.16,17.44l-26.16,17.44l-22.95-15.3L379.58,691.91z M292.32,779.16l27.38,18.25v12.26
	c-11.55-7.46-22.56-15.75-33.01-24.87L292.32,779.16z M339.7,821.46v-24.04l26.16-17.44l26.16-17.44l26.16,17.44l26.16,17.44v51.62
	l-6.11,4.07c-24.28-3.16-47.99-9.39-70.84-18.65C357.9,830.6,348.66,826.26,339.7,821.46z M677.48,762.6l-26.16-17.44v-51.62
	l26.16-17.44l26.16-17.44l26.16,17.44l10.18,6.79c-13.58,31.09-32.43,59.28-56.14,83.96L677.48,762.6z"/>
</svg>
