<?xml version="1.0" encoding="utf-8"?>
<!-- Generator: Adobe Illustrator 23.0.6, SVG Export Plug-In . SVG Version: 6.00 Build 0)  -->
<svg version="1.0" id="Layer_1" xmlns="http://www.w3.org/2000/svg" xmlns:xlink="http://www.w3.org/1999/xlink" x="0px" y="0px"
	 viewBox="0 0 16 16" enable-background="new 0 0 16 16" xml:space="preserve">
<path id="undo_1_" fill="#ED6B21" d="M1.95,7.01h10.24L8.86,2.51c-0.31-0.42-0.22-1.01,0.2-1.32c0.42-0.31,1.01-0.22,1.32,0.2
	l4.44,6.01c0,0.01,0.01,0.01,0.01,0.02c0.01,0.01,0.02,0.03,0.03,0.04c0.01,0.02,0.03,0.05,0.04,0.07c0.01,0.02,0.02,0.03,0.03,0.05
	c0.01,0.01,0.01,0.03,0.02,0.04c0.01,0.02,0.02,0.05,0.02,0.07c0.01,0.02,0.01,0.04,0.02,0.06c0,0.01,0,0.03,0.01,0.04
	c0,0.02,0.01,0.05,0.01,0.07c0,0.02,0.01,0.05,0.01,0.07c0,0.01,0,0.01,0,0.02c0,0.01,0,0.01,0,0.02c0,0.02,0,0.05-0.01,0.07
	c0,0.02,0,0.05-0.01,0.07c0,0.01,0,0.03-0.01,0.04c0,0.02-0.01,0.04-0.02,0.06c-0.01,0.02-0.01,0.05-0.02,0.07
	c-0.01,0.01-0.01,0.03-0.02,0.04c-0.01,0.02-0.02,0.04-0.03,0.05c-0.01,0.02-0.02,0.04-0.04,0.07c-0.01,0.01-0.02,0.03-0.03,0.04
	c0,0.01-0.01,0.01-0.01,0.02l-4.54,6.05c-0.19,0.25-0.47,0.38-0.76,0.38c-0.2,0-0.4-0.06-0.57-0.19c-0.42-0.31-0.5-0.91-0.19-1.32
	l3.41-4.54H1.95C1.42,8.91,1,8.48,1,7.96C1,7.44,1.42,7.01,1.95,7.01z"/>
</svg>
