<?xml version="1.0" encoding="utf-8"?>
<!-- Generator: Adobe Illustrator 24.3.0, SVG Export Plug-In . SVG Version: 6.00 Build 0)  -->
<svg version="1.0" id="Layer_1" xmlns="http://www.w3.org/2000/svg" xmlns:xlink="http://www.w3.org/1999/xlink" x="0px" y="0px"
	 viewBox="0 0 128 128" enable-background="new 0 0 128 128" xml:space="preserve">
<path fill="#ED6B21" d="M52.57,44.36h44.3l-23.01-18.4c-1.08-0.86-1.25-2.44-0.39-3.51c0.86-1.08,2.44-1.25,3.51-0.39l28.57,22.86
	c0.03,0.02,0.05,0.05,0.08,0.08c0.08,0.07,0.16,0.15,0.24,0.24c0.04,0.05,0.09,0.1,0.12,0.15c0.07,0.09,0.13,0.19,0.18,0.29
	c0.03,0.05,0.06,0.1,0.09,0.16c0.05,0.12,0.09,0.24,0.13,0.36c0.01,0.05,0.03,0.09,0.04,0.14c0.04,0.17,0.06,0.35,0.06,0.54
	s-0.02,0.36-0.06,0.54c-0.01,0.05-0.03,0.09-0.04,0.14c-0.03,0.12-0.07,0.25-0.13,0.36c-0.03,0.05-0.06,0.11-0.09,0.16
	c-0.06,0.1-0.11,0.2-0.18,0.29c-0.04,0.05-0.08,0.1-0.12,0.15c-0.07,0.08-0.15,0.16-0.24,0.24c-0.03,0.02-0.05,0.06-0.08,0.08
	L76.99,71.67c-0.46,0.37-1.01,0.55-1.56,0.55c-0.73,0-1.46-0.32-1.95-0.94c-0.86-1.08-0.69-2.65,0.39-3.51l23.01-18.4h-44.3
	c-14.38,0-26.07,11.7-26.07,26.07s11.7,26.07,26.07,26.07H64c1.38,0,2.5,1.12,2.5,2.5s-1.12,2.5-2.5,2.5H52.57
	c-17.13,0-31.07-13.94-31.07-31.07S35.44,44.36,52.57,44.36z"/>
</svg>
