<?xml version="1.0" encoding="utf-8"?>
<!-- Generator: Adobe Illustrator 24.3.0, SVG Export Plug-In . SVG Version: 6.00 Build 0)  -->
<svg version="1.0" id="Layer_1" xmlns="http://www.w3.org/2000/svg" xmlns:xlink="http://www.w3.org/1999/xlink" x="0px" y="0px"
	 viewBox="0 0 128 128" enable-background="new 0 0 128 128" xml:space="preserve">
<g id="redo">
	<g>
		<path fill="#ED6B21" d="M91.43,72.21c-0.73,0-1.46-0.32-1.95-0.94c-0.86-1.08-0.69-2.65,0.39-3.51L116,46.86l-26.13-20.9
			c-1.08-0.86-1.25-2.44-0.39-3.51c0.86-1.08,2.43-1.25,3.51-0.39l28.57,22.86c0.59,0.47,0.94,1.19,0.94,1.95s-0.35,1.48-0.94,1.95
			L92.99,71.67C92.53,72.04,91.98,72.21,91.43,72.21z"/>
	</g>
	<g>
		<path fill="#ED6B21" d="M80,106.5H36.57C19.44,106.5,5.5,92.56,5.5,75.43s13.94-31.07,31.07-31.07H120c1.38,0,2.5,1.12,2.5,2.5
			s-1.12,2.5-2.5,2.5H36.57c-14.38,0-26.07,11.7-26.07,26.07s11.7,26.07,26.07,26.07H80c1.38,0,2.5,1.12,2.5,2.5
			S81.38,106.5,80,106.5z"/>
	</g>
</g>
</svg>
