<?xml version="1.0" encoding="utf-8"?>
<!-- Generator: Adobe Illustrator 24.3.0, SVG Export Plug-In . SVG Version: 6.00 Build 0)  -->
<svg version="1.0" id="Layer_1" xmlns="http://www.w3.org/2000/svg" xmlns:xlink="http://www.w3.org/1999/xlink" x="0px" y="0px"
	 viewBox="0 0 128 128" enable-background="new 0 0 128 128" xml:space="preserve">
<g id="remove_1_">
	<g>
		<path fill="#FFFFFF" d="M98.71,29.29c0.49,0.49,1.13,0.73,1.77,0.73s1.28-0.24,1.77-0.73l7.05-7.05c0.98-0.98,0.98-2.56,0-3.54
			c-0.98-0.98-2.56-0.98-3.54,0l-7.05,7.05C97.73,26.74,97.73,28.32,98.71,29.29z"/>
		<path fill="#FFFFFF" d="M82,42.5h3.5V46c0,1.38,1.12,2.5,2.5,2.5s2.5-1.12,2.5-2.5v-4.96l3.51-3.51c0.98-0.98,0.98-2.56,0-3.54
			c-0.98-0.98-2.56-0.98-3.54,0l-3.51,3.51H82c-1.38,0-2.5,1.12-2.5,2.5S80.62,42.5,82,42.5z"/>
		<path fill="#FFFFFF" d="M113.97,10.5c-0.95,0.98-0.94,2.54,0.02,3.51c0.49,0.49,1.13,0.73,1.77,0.73c0.63,0,1.26-0.24,1.75-0.71
			c0.02,1.37,1.13,2.47,2.5,2.47c1.38,0,2.5-1.12,2.5-2.5V8c0-0.05-0.01-0.1-0.02-0.15c0-0.06-0.01-0.11-0.02-0.17
			c-0.03-0.22-0.08-0.43-0.15-0.62c0,0,0-0.01,0-0.01c0,0,0,0,0,0c-0.01-0.03-0.03-0.05-0.04-0.08c-0.05-0.11-0.11-0.21-0.17-0.31
			c-0.03-0.04-0.05-0.08-0.08-0.11c-0.06-0.08-0.13-0.16-0.2-0.24c-0.03-0.03-0.06-0.07-0.09-0.1c-0.09-0.09-0.19-0.17-0.3-0.25
			c-0.01-0.01-0.02-0.02-0.04-0.03c-0.12-0.08-0.24-0.15-0.38-0.2c-0.04-0.02-0.09-0.03-0.13-0.05c-0.1-0.04-0.2-0.07-0.3-0.09
			c-0.05-0.01-0.09-0.02-0.14-0.03c-0.15-0.03-0.3-0.05-0.45-0.05h-6c-1.38,0-2.5,1.12-2.5,2.5C111.5,9.37,112.6,10.48,113.97,10.5z
			"/>
		<path fill="#FFFFFF" d="M89.49,10.5h11.31c1.38,0,2.5-1.12,2.5-2.5s-1.12-2.5-2.5-2.5H89.49c-1.38,0-2.5,1.12-2.5,2.5
			S88.11,10.5,89.49,10.5z"/>
		<path fill="#FFFFFF" d="M88,57.92c-1.38,0-2.5,1.12-2.5,2.5v5.35c1.61-0.56,3.28-0.99,5-1.29v-4.06
			C90.5,59.04,89.38,57.92,88,57.92z"/>
		<path fill="#FFFFFF" d="M117.5,63.91c0,1.38,1.12,2.5,2.5,2.5s2.5-1.12,2.5-2.5V52.39c0-1.38-1.12-2.5-2.5-2.5s-2.5,1.12-2.5,2.5
			V63.91z"/>
		<path fill="#FFFFFF" d="M64.99,10.5H76.3c1.38,0,2.5-1.12,2.5-2.5s-1.12-2.5-2.5-2.5H64.99c-1.38,0-2.5,1.12-2.5,2.5
			S63.6,10.5,64.99,10.5z"/>
		<path fill="#FFFFFF" d="M120,24.94c-1.38,0-2.5,1.12-2.5,2.5v11.52c0,1.38,1.12,2.5,2.5,2.5s2.5-1.12,2.5-2.5V27.44
			C122.5,26.06,121.38,24.94,120,24.94z"/>
		<path fill="#FFFFFF" d="M14.76,37.63c0.59-0.88,0.58-2.07-0.12-2.94c-0.86-1.08-2.44-1.25-3.51-0.39l-4.69,3.75
			c-0.03,0.03-0.06,0.06-0.09,0.09c-0.07,0.06-0.13,0.12-0.19,0.19c-0.05,0.06-0.1,0.12-0.15,0.18c-0.05,0.07-0.09,0.13-0.14,0.2
			c-0.04,0.07-0.08,0.14-0.12,0.21c-0.03,0.07-0.07,0.15-0.09,0.22c-0.03,0.08-0.05,0.15-0.07,0.23c-0.02,0.08-0.04,0.15-0.05,0.23
			c-0.01,0.09-0.02,0.17-0.03,0.26c0,0.04-0.01,0.09-0.01,0.13v6c0,1.38,1.12,2.5,2.5,2.5s2.5-1.12,2.5-2.5v-3.5H14
			c1.38,0,2.5-1.12,2.5-2.5C16.5,38.89,15.77,37.95,14.76,37.63z"/>
		<path fill="#FFFFFF" d="M40.79,37.5H28.42c-1.38,0-2.5,1.12-2.5,2.5s1.12,2.5,2.5,2.5h12.36c1.38,0,2.5-1.12,2.5-2.5
			S42.17,37.5,40.79,37.5z"/>
		<path fill="#FFFFFF" d="M54.29,8c0-1.38-1.12-2.5-2.5-2.5H48c-0.57,0-1.12,0.19-1.56,0.55l-5.87,4.7
			c-1.08,0.86-1.25,2.44-0.39,3.51c0.49,0.62,1.22,0.94,1.95,0.94c0.55,0,1.1-0.18,1.56-0.55l5.19-4.15h2.91
			C53.17,10.5,54.29,9.38,54.29,8z"/>
		<path fill="#FFFFFF" d="M40.79,117.5H28.42c-1.38,0-2.5,1.12-2.5,2.5s1.12,2.5,2.5,2.5h12.36c1.38,0,2.5-1.12,2.5-2.5
			S42.17,117.5,40.79,117.5z"/>
		<path fill="#FFFFFF" d="M67.58,117.5H55.21c-1.38,0-2.5,1.12-2.5,2.5s1.12,2.5,2.5,2.5h12.36c1.38,0,2.5-1.12,2.5-2.5
			S68.96,117.5,67.58,117.5z"/>
		<path fill="#FFFFFF" d="M52.71,40c0,1.38,1.12,2.5,2.5,2.5h12.36c1.38,0,2.5-1.12,2.5-2.5s-1.12-2.5-2.5-2.5H55.21
			C53.83,37.5,52.71,38.62,52.71,40z"/>
		<path fill="#FFFFFF" d="M8,102.08c1.38,0,2.5-1.12,2.5-2.5V87.21c0-1.38-1.12-2.5-2.5-2.5s-2.5,1.12-2.5,2.5v12.36
			C5.5,100.96,6.62,102.08,8,102.08z"/>
		<path fill="#FFFFFF" d="M8,75.29c1.38,0,2.5-1.12,2.5-2.5V60.42c0-1.38-1.12-2.5-2.5-2.5s-2.5,1.12-2.5,2.5v12.36
			C5.5,74.17,6.62,75.29,8,75.29z"/>
		<path fill="#FFFFFF" d="M14,117.5h-3.5V114c0-1.38-1.12-2.5-2.5-2.5s-2.5,1.12-2.5,2.5v6c0,1.38,1.12,2.5,2.5,2.5h6
			c1.38,0,2.5-1.12,2.5-2.5S15.38,117.5,14,117.5z"/>
		<path fill="#FFFFFF" d="M33.77,19.38c-0.86-1.08-2.44-1.25-3.51-0.39l-8.83,7.07c-1.08,0.86-1.25,2.44-0.39,3.51
			c0.49,0.62,1.22,0.94,1.95,0.94c0.55,0,1.1-0.18,1.56-0.55l8.83-7.07C34.46,22.03,34.64,20.46,33.77,19.38z"/>
	</g>
	<g>
		<path fill="#ED6B21" d="M96,69.5c-14.61,0-26.5,11.89-26.5,26.5s11.89,26.5,26.5,26.5s26.5-11.89,26.5-26.5S110.61,69.5,96,69.5z
			 M96,117.5c-11.86,0-21.5-9.64-21.5-21.5S84.14,74.5,96,74.5s21.5,9.64,21.5,21.5S107.86,117.5,96,117.5z"/>
		<path fill="#ED6B21" d="M112,93.5H80c-1.38,0-2.5,1.12-2.5,2.5s1.12,2.5,2.5,2.5h32c1.38,0,2.5-1.12,2.5-2.5S113.38,93.5,112,93.5
			z"/>
	</g>
</g>
</svg>
