<?xml version="1.0" encoding="utf-8"?>
<!-- Generator: Adobe Illustrator 23.0.1, SVG Export Plug-In . SVG Version: 6.00 Build 0)  -->
<svg version="1.0" id="Layer_1" xmlns="http://www.w3.org/2000/svg" xmlns:xlink="http://www.w3.org/1999/xlink" x="0px" y="0px"
	 viewBox="0 0 128 128" enable-background="new 0 0 128 128" xml:space="preserve">
<path fill="#808080" d="M38.11,44.25H25.75c-0.95,0-1.72,0.77-1.72,1.72s0.77,1.72,1.72,1.72H38.1c0.95,0,1.72-0.77,1.72-1.72
	C39.83,45.02,39.06,44.25,38.11,44.25z M45.89,45.97c0,0.95,0.77,1.72,1.72,1.72h12.35c0.95,0,1.72-0.77,1.72-1.72
	s-0.77-1.72-1.72-1.72H47.61C46.66,44.25,45.89,45.02,45.89,45.97z M68.11,43.6c-0.33,0.28-0.52,0.65-0.59,1.04
	c-0.59,0.27-1,0.87-1,1.56v5.6c0,0.95,0.77,1.72,1.72,1.72c0.95,0,1.72-0.77,1.72-1.72v-5.34c0.12-0.06,0.24-0.13,0.35-0.22
	c0.13-0.11,0.25-0.23,0.36-0.34l8.27-8.77c0.65-0.69,0.62-1.78-0.07-2.43s-1.78-0.62-2.43,0.07l-8.27,8.78
	C68.16,43.56,68.14,43.58,68.11,43.6z M68.25,76.84c-0.95,0-1.72,0.77-1.72,1.72V89.1c0,0.95,0.77,1.72,1.72,1.72
	c0.95,0,1.72-0.77,1.72-1.72V78.56C69.97,77.61,69.2,76.84,68.25,76.84z M69.97,59.91c0-0.95-0.77-1.72-1.72-1.72
	c-0.95,0-1.72,0.77-1.72,1.72v10.54c0,0.95,0.77,1.72,1.72,1.72c0.95,0,1.72-0.77,1.72-1.72V59.91z M88.92,56.35
	c-0.95,0-1.72,0.77-1.72,1.72v3.4c0,0.34-0.02,0.63-0.04,0.85c-0.51,0.55-0.62,1.38-0.22,2.06c0.32,0.54,0.89,0.84,1.48,0.84
	c0.3,0,0.6-0.08,0.88-0.24l0.25-0.15c0.67-0.4,1.09-1.1,1.09-3.35v-3.4C90.64,57.12,89.87,56.35,88.92,56.35z M41.81,26.17h11.3
	c0.95,0,1.72-0.77,1.72-1.72s-0.77-1.72-1.72-1.72h-11.3c-0.95,0-1.72,0.77-1.72,1.72S40.86,26.17,41.81,26.17z M87.2,22.73h-5.39
	c-0.95,0-1.72,0.77-1.72,1.72s0.77,1.72,1.72,1.72h2.75l-1.58,1.68c-0.65,0.69-0.62,1.78,0.07,2.43c0.33,0.31,0.76,0.47,1.18,0.47
	c0.46,0,0.91-0.18,1.25-0.54l1.72-1.82v0.99c0,0.95,0.77,1.72,1.72,1.72c0.95,0,1.72-0.77,1.72-1.72v-3.21
	C90.64,24.27,89.09,22.73,87.2,22.73z M61.81,26.17h11.3c0.95,0,1.72-0.77,1.72-1.72s-0.77-1.72-1.72-1.72h-11.3
	c-0.95,0-1.72,0.77-1.72,1.72S60.86,26.17,61.81,26.17z M9.71,67.54c0.95,0,1.72-0.77,1.72-1.72v-11.3c0-0.95-0.77-1.72-1.72-1.72
	s-1.72,0.77-1.72,1.72v11.3C7.99,66.77,8.76,67.54,9.71,67.54z M24.65,33.86c0.42,0,0.84-0.15,1.17-0.46l7.04-6.52
	c0.14-0.13,0.46-0.34,0.9-0.51c0.89-0.34,1.34-1.33,1-2.22s-1.33-1.34-2.22-1c-0.8,0.3-1.52,0.73-2.03,1.2l-7.04,6.52
	c-0.7,0.65-0.74,1.74-0.09,2.43C23.73,33.68,24.19,33.86,24.65,33.86z M70.35,99.28l-0.37,0.36v-2.43c0-0.95-0.77-1.72-1.72-1.72
	c-0.95,0-1.72,0.77-1.72,1.72v4.72H61.3c-0.95,0-1.72,0.77-1.72,1.72s0.77,1.72,1.72,1.72h5.23c1.4,0,3.15-0.7,4.16-1.66l2.03-1.94
	c0.69-0.66,0.71-1.75,0.06-2.43C72.13,98.65,71.03,98.63,70.35,99.28z M52.6,101.93H41.3c-0.95,0-1.72,0.77-1.72,1.72
	s0.77,1.72,1.72,1.72h11.3c0.95,0,1.72-0.77,1.72-1.72S53.55,101.93,52.6,101.93z M88.92,36.35c-0.95,0-1.72,0.77-1.72,1.72v11.3
	c0,0.95,0.77,1.72,1.72,1.72c0.95,0,1.72-0.77,1.72-1.72v-11.3C90.64,37.12,89.87,36.35,88.92,36.35z M32.61,101.93H21.3
	c-0.95,0-1.72,0.77-1.72,1.72s0.77,1.72,1.72,1.72h11.3c0.95,0,1.72-0.77,1.72-1.72S33.56,101.93,32.61,101.93z M9.71,87.54
	c0.95,0,1.72-0.77,1.72-1.72v-11.3c0-0.95-0.77-1.72-1.72-1.72s-1.72,0.77-1.72,1.72v11.3C7.99,86.77,8.76,87.54,9.71,87.54z
	 M12.61,101.93h-1.18v-7.42c0-0.95-0.77-1.72-1.72-1.72s-1.72,0.77-1.72,1.72v7.42c0,1.9,1.54,3.44,3.44,3.44h1.18
	c0.95,0,1.72-0.77,1.72-1.72S13.56,101.93,12.61,101.93z M19.53,36.88c-0.65-0.7-1.74-0.74-2.43-0.09l-7.3,6.76
	c-0.55,0.51-0.93,1.15-1.16,1.6C8.22,46,8.56,47.03,9.41,47.46c0.25,0.12,0.51,0.18,0.77,0.18h0.01c0.14,0.04,0.29,0.07,0.45,0.07
	h5.6c0.95,0,1.72-0.77,1.72-1.72s-0.77-1.72-1.72-1.72h-2.13l5.33-4.94C20.14,38.66,20.18,37.57,19.53,36.88z M80.7,89.4l-4.05,3.86
	c-0.69,0.66-0.71,1.75-0.06,2.43c0.34,0.35,0.79,0.53,1.25,0.53c0.43,0,0.86-0.16,1.19-0.48l4.05-3.86
	c0.69-0.66,0.71-1.75,0.06-2.43C82.48,88.77,81.39,88.75,80.7,89.4z"/>
<g>
	<path fill="#ED6B21" d="M98.82,101.06c-11.63,0-21.09-9.46-21.09-21.09s9.46-21.09,21.09-21.09s21.09,9.46,21.09,21.09
		S110.45,101.06,98.82,101.06z M98.82,62.32c-9.73,0-17.65,7.92-17.65,17.65s7.92,17.65,17.65,17.65s17.65-7.92,17.65-17.65
		S108.55,62.32,98.82,62.32z"/>
</g>
<g>
	<path fill="#ED6B21" d="M110.44,81.84c0,1.1-0.9,2-2,2H89.2c-1.1,0-2-0.9-2-2v-3.75c0-1.1,0.9-2,2-2h19.25c1.1,0,2,0.9,2,2
		L110.44,81.84L110.44,81.84z"/>
</g>
</svg>
