<?xml version="1.0" encoding="utf-8"?>
<!-- Generator: Adobe Illustrator 23.0.2, SVG Export Plug-In . SVG Version: 6.00 Build 0)  -->
<svg version="1.0" id="Layer_1" xmlns="http://www.w3.org/2000/svg" xmlns:xlink="http://www.w3.org/1999/xlink" x="0px" y="0px"
	 viewBox="0 0 128 128" enable-background="new 0 0 128 128" xml:space="preserve">
<g id="rotate">
	<g>
		<path fill="#FFFFFF" d="M66.98,120.65c-0.9,0-1.79-0.34-2.47-1.02L25.27,80.4c-0.66-0.66-1.02-1.54-1.02-2.47s0.36-1.82,1.02-2.47
			L64.5,36.22c1.37-1.36,3.58-1.36,4.95,0l39.23,39.23c1.36,1.36,1.36,3.58,0,4.95l-39.23,39.23
			C68.77,120.31,67.88,120.65,66.98,120.65z M66.98,38.19c-0.13,0-0.26,0.05-0.35,0.14L27.39,77.57c-0.13,0.12-0.14,0.28-0.14,0.35
			s0.02,0.23,0.14,0.35l39.23,39.23c0.19,0.19,0.52,0.19,0.71,0l39.23-39.23c0.19-0.19,0.19-0.52,0-0.71L67.33,38.34
			C67.24,38.24,67.11,38.19,66.98,38.19z"/>
	</g>
	<g>
		<path fill="#ED6B21" d="M11.27,78.49c-0.65,0-1.25-0.43-1.44-1.08c-1.45-5.02-2.19-10.21-2.19-15.41
			c0-30.59,24.89-55.48,55.48-55.48c15.38,0,29.68,6.15,40.27,17.33c0.57,0.6,0.54,1.55-0.06,2.12c-0.6,0.57-1.55,0.54-2.12-0.06
			C91.2,15.34,77.67,9.52,63.12,9.52c-28.94,0-52.48,23.54-52.48,52.48c0,4.92,0.7,9.82,2.07,14.58c0.23,0.8-0.23,1.63-1.03,1.86
			C11.55,78.47,11.41,78.49,11.27,78.49z"/>
	</g>
	<g>
		<path fill="#ED6B21" d="M117.27,42.19c-0.22,0-0.44-0.02-0.67-0.07l-23.34-4.67c-1.07-0.21-1.84-0.84-2.11-1.73
			c-0.27-0.88,0.02-1.83,0.8-2.61l18.98-18.98c0.77-0.77,1.73-1.07,2.61-0.8c0.88,0.27,1.51,1.04,1.73,2.11v0l4.67,23.34
			c0.2,1.01-0.06,1.97-0.71,2.62C118.72,41.92,118.03,42.19,117.27,42.19z M94.64,34.66l22.29,4.47l-4.45-22.3L94.64,34.66z"/>
	</g>
</g>
</svg>
