<?xml version="1.0" encoding="utf-8"?>
<!-- Generator: Adobe Illustrator 23.0.2, SVG Export Plug-In . SVG Version: 6.00 Build 0)  -->
<svg version="1.0" id="Layer_1" xmlns="http://www.w3.org/2000/svg" xmlns:xlink="http://www.w3.org/1999/xlink" x="0px" y="0px"
	 viewBox="0 0 128 128" enable-background="new 0 0 128 128" xml:space="preserve">
<g id="scale">
	<g>
		<path fill="#FFFFFF" d="M118.05,121.55H57.99c-1.93,0-3.5-1.57-3.5-3.5V57.99c0-1.93,1.57-3.5,3.5-3.5h60.06
			c1.93,0,3.5,1.57,3.5,3.5v60.06C121.55,119.98,119.98,121.55,118.05,121.55z M57.99,57.49c-0.27,0-0.5,0.23-0.5,0.5v60.06
			c0,0.27,0.23,0.5,0.5,0.5h60.06c0.27,0,0.5-0.23,0.5-0.5V57.99c0-0.27-0.23-0.5-0.5-0.5H57.99z"/>
	</g>
	<g>
		<g>
			<path fill="#ED6B21" d="M43.54,121.55h-10.5c-0.83,0-1.5-0.67-1.5-1.5s0.67-1.5,1.5-1.5h10.5c0.83,0,1.5,0.67,1.5,1.5
				S44.37,121.55,43.54,121.55z"/>
		</g>
		<g>
			<path fill="#ED6B21" d="M18.35,121.55h-8.4c-1.93,0-3.5-1.57-3.5-3.5v-10.5c0-0.83,0.67-1.5,1.5-1.5s1.5,0.67,1.5,1.5v10.5
				c0,0.27,0.23,0.5,0.5,0.5h8.4c0.83,0,1.5,0.67,1.5,1.5S19.18,121.55,18.35,121.55z M7.95,94.36c-0.83,0-1.5-0.67-1.5-1.5V70.82
				c0-0.83,0.67-1.5,1.5-1.5s1.5,0.67,1.5,1.5v22.04C9.45,93.69,8.78,94.36,7.95,94.36z M7.95,57.63c-0.83,0-1.5-0.67-1.5-1.5V34.1
				c0-0.83,0.67-1.5,1.5-1.5s1.5,0.67,1.5,1.5v22.04C9.45,56.96,8.78,57.63,7.95,57.63z M7.95,20.91c-0.83,0-1.5-0.67-1.5-1.5V9.95
				c0-1.93,1.57-3.5,3.5-3.5h9.44c0.83,0,1.5,0.67,1.5,1.5s-0.67,1.5-1.5,1.5H9.95c-0.27,0-0.5,0.23-0.5,0.5v9.46
				C9.45,20.24,8.78,20.91,7.95,20.91z M120.05,19.83c-0.83,0-1.5-0.67-1.5-1.5V9.95c0-0.27-0.23-0.5-0.5-0.5h-10.52
				c-0.83,0-1.5-0.67-1.5-1.5s0.67-1.5,1.5-1.5h10.52c1.93,0,3.5,1.57,3.5,3.5v8.38C121.55,19.16,120.88,19.83,120.05,19.83z
				 M92.84,9.45H70.81c-0.83,0-1.5-0.67-1.5-1.5s0.67-1.5,1.5-1.5h22.04c0.83,0,1.5,0.67,1.5,1.5S93.67,9.45,92.84,9.45z
				 M56.12,9.45H34.08c-0.83,0-1.5-0.67-1.5-1.5s0.67-1.5,1.5-1.5h22.04c0.83,0,1.5,0.67,1.5,1.5S56.94,9.45,56.12,9.45z"/>
		</g>
		<g>
			<path fill="#ED6B21" d="M120.05,45.04c-0.83,0-1.5-0.67-1.5-1.5v-10.5c0-0.83,0.67-1.5,1.5-1.5s1.5,0.67,1.5,1.5v10.5
				C121.55,44.37,120.88,45.04,120.05,45.04z"/>
		</g>
	</g>
	<g>
		<path fill="#ED6B21" d="M49.38,44.41c0.78-0.78,0.78-2.05,0-2.83l-9.27-9.27c-0.78-0.78-0.78-2.05,0-2.83l4.95-4.95
			c0.78-0.78,0.51-1.41-0.59-1.41H25.13c-1.1,0-2,0.9-2,2v19.34c0,1.1,0.64,1.36,1.41,0.59l4.95-4.95c0.78-0.78,2.05-0.78,2.83,0
			l9.27,9.27c0.78,0.78,2.05,0.78,2.83,0L49.38,44.41z"/>
	</g>
</g>
</svg>
