<?xml version="1.0" encoding="utf-8"?>
<!-- Generator: Adobe Illustrator 24.3.0, SVG Export Plug-In . SVG Version: 6.00 Build 0)  -->
<svg version="1.0" id="Layer_1" xmlns="http://www.w3.org/2000/svg" xmlns:xlink="http://www.w3.org/1999/xlink" x="0px" y="0px"
	 viewBox="0 0 128 128" enable-background="new 0 0 128 128" xml:space="preserve">
<g id="settings">
	<g>
		<g>
			<path fill="#ED6B21" d="M51.99,81.99c-0.56,0-1.12-0.11-1.66-0.33c-1.06-0.44-1.88-1.27-2.32-2.33l-1.69-4.1
				c-1.61,0.12-3.24,0.11-4.86-0.02l-1.71,4.1c-0.91,2.19-3.44,3.22-5.62,2.31l-9.97-4.17c-2.19-0.91-3.22-3.44-2.31-5.62l1.71-4.1
				c-1.23-1.06-2.38-2.21-3.43-3.44l-4.1,1.69c-1.06,0.43-2.23,0.43-3.29-0.01c-1.06-0.44-1.88-1.27-2.32-2.33l-4.1-10
				c-0.9-2.19,0.15-4.71,2.34-5.61l4.1-1.69c-0.12-1.61-0.11-3.24,0.02-4.86l-4.1-1.71c-1.06-0.44-1.88-1.27-2.32-2.33
				c-0.44-1.06-0.43-2.23,0.01-3.29l4.17-9.97c0.44-1.06,1.27-1.88,2.33-2.32c1.06-0.44,2.23-0.43,3.29,0.01l4.1,1.71
				c1.06-1.23,2.21-2.38,3.44-3.43l-1.69-4.1c-0.44-1.06-0.43-2.23,0.01-3.29s1.27-1.88,2.33-2.32l10-4.1
				c2.19-0.9,4.71,0.15,5.61,2.34l1.69,4.1c1.61-0.12,3.24-0.11,4.86,0.02l1.71-4.1c0.44-1.06,1.27-1.88,2.33-2.32
				c1.06-0.44,2.23-0.43,3.29,0.01l9.97,4.17c1.06,0.44,1.88,1.27,2.32,2.33c0.44,1.06,0.43,2.23-0.01,3.29l-1.71,4.1
				c1.23,1.06,2.38,2.21,3.43,3.44l4.1-1.69c1.06-0.44,2.23-0.43,3.29,0.01c1.06,0.44,1.88,1.27,2.32,2.33l4.1,9.99
				c0.44,1.06,0.43,2.23-0.01,3.29s-1.27,1.88-2.33,2.32l-4.1,1.69c0.12,1.61,0.11,3.24-0.02,4.86l4.1,1.71
				c2.19,0.91,3.22,3.44,2.31,5.62l-4.17,9.97c-0.91,2.19-3.44,3.22-5.62,2.31l-4.1-1.71c-1.06,1.23-2.21,2.38-3.44,3.43l1.69,4.1
				c0.44,1.06,0.43,2.23-0.01,3.29c-0.44,1.06-1.27,1.88-2.33,2.32l-10,4.1C53.1,81.88,52.54,81.99,51.99,81.99z M46.77,70.18
				c1.75,0,3.33,1.03,4,2.66l1.61,3.93l8.7-3.57l-1.61-3.93c-0.72-1.75-0.21-3.75,1.27-4.97c1.25-1.03,2.42-2.2,3.47-3.46
				c1.22-1.47,3.2-1.97,4.95-1.24l3.95,1.65l3.62-8.67l-3.95-1.65c-1.74-0.73-2.78-2.49-2.59-4.39c0.16-1.63,0.17-3.28,0.02-4.9
				c-0.17-1.91,0.89-3.68,2.64-4.4l3.93-1.61l-3.57-8.7l-3.93,1.61c-1.75,0.72-3.75,0.21-4.97-1.27c-1.03-1.25-2.2-2.42-3.46-3.47
				c-1.47-1.22-1.97-3.21-1.24-4.94l1.65-3.95l-8.67-3.62l-1.65,3.95c-0.73,1.74-2.49,2.78-4.39,2.59c-1.63-0.16-3.28-0.17-4.9-0.02
				c-1.91,0.16-3.68-0.89-4.4-2.64l-1.61-3.93l-8.7,3.57l1.61,3.93c0.72,1.75,0.21,3.75-1.27,4.97c-1.25,1.04-2.42,2.2-3.47,3.46
				c-1.22,1.47-3.21,1.97-4.95,1.24l-3.95-1.65l-3.62,8.67l3.95,1.65c1.74,0.73,2.78,2.49,2.59,4.39c-0.16,1.63-0.17,3.28-0.02,4.9
				c0.17,1.91-0.89,3.68-2.64,4.4l-3.93,1.61l3.57,8.7l3.93-1.61c1.75-0.72,3.75-0.21,4.97,1.27c1.04,1.25,2.2,2.42,3.46,3.47
				c1.47,1.22,1.97,3.21,1.24,4.95l-1.65,3.95l8.67,3.62l1.65-3.95c0.73-1.74,2.49-2.79,4.39-2.59c1.63,0.16,3.28,0.17,4.9,0.02
				C46.5,70.19,46.63,70.18,46.77,70.18z M77.04,36.27C77.04,36.27,77.04,36.28,77.04,36.27L77.04,36.27z"/>
		</g>
		<g>
			<path fill="#ED6B21" d="M44,60.91c-2.21,0-4.42-0.44-6.52-1.32c-4.17-1.74-7.4-5-9.12-9.17c-1.71-4.18-1.7-8.77,0.04-12.93
				s5-7.4,9.17-9.12c4.18-1.71,8.77-1.7,12.93,0.04c4.17,1.74,7.4,5,9.12,9.17c1.71,4.18,1.7,8.77-0.04,12.93s-5,7.4-9.17,9.12
				C48.35,60.48,46.17,60.91,44,60.91z M44,32.09c-1.53,0-3.06,0.3-4.52,0.9c-2.94,1.21-5.23,3.49-6.46,6.42s-1.24,6.17-0.03,9.11
				c1.21,2.94,3.49,5.23,6.42,6.46c2.93,1.23,6.17,1.23,9.11,0.03c2.94-1.21,5.23-3.49,6.46-6.42s1.24-6.17,0.03-9.11l0,0
				c-1.21-2.94-3.49-5.23-6.42-6.46C47.11,32.4,45.56,32.09,44,32.09z"/>
		</g>
	</g>
	<g>
		<g>
			<path fill="#FFFFFF" d="M97.4,122.5h-7.98c-2.11,0-3.83-1.72-3.83-3.83v-2.81c-0.86-0.3-1.71-0.65-2.53-1.05l-1.99,1.99
				c-1.49,1.49-3.92,1.49-5.41,0l-5.64-5.65c-0.72-0.72-1.12-1.68-1.12-2.71c0-1.02,0.4-1.98,1.12-2.71l1.99-1.99
				c-0.4-0.82-0.75-1.67-1.05-2.53h-2.81c-2.11,0-3.83-1.72-3.83-3.83v-7.98c0-2.11,1.72-3.83,3.83-3.83h2.81
				c0.3-0.86,0.65-1.71,1.05-2.53l-1.99-1.99c-1.49-1.49-1.49-3.92,0-5.41l5.64-5.64c1.49-1.49,3.92-1.49,5.41,0L83.06,72
				c0.82-0.4,1.67-0.75,2.53-1.05v-2.81c0-2.11,1.72-3.83,3.83-3.83h7.98c2.11,0,3.83,1.72,3.83,3.83v2.81
				c0.86,0.3,1.71,0.65,2.53,1.05l1.99-1.99c1.45-1.45,3.97-1.45,5.41,0l5.64,5.64c1.49,1.49,1.49,3.92,0,5.41l-1.99,1.99
				c0.4,0.83,0.75,1.67,1.05,2.53h2.81c2.11,0,3.83,1.72,3.83,3.83v7.98c0,2.11-1.72,3.83-3.83,3.83h-2.81
				c-0.3,0.86-0.65,1.71-1.05,2.53l1.99,1.99c0.72,0.72,1.12,1.68,1.12,2.71c0,1.02-0.4,1.99-1.12,2.71l-5.64,5.64
				c-1.44,1.44-3.97,1.45-5.41,0l-1.99-1.99c-0.83,0.4-1.67,0.75-2.53,1.05v2.81C101.22,120.78,99.51,122.5,97.4,122.5z
				 M90.59,117.5h5.64v-2.49c0-1.69,1.1-3.16,2.73-3.67c1.11-0.34,2.19-0.79,3.23-1.34c1.5-0.8,3.3-0.53,4.49,0.65l1.78,1.78
				l3.99-3.99l-1.78-1.77c-1.19-1.19-1.45-3-0.66-4.5c0.55-1.04,1-2.12,1.34-3.23c0.51-1.63,1.98-2.73,3.67-2.73h2.49v-5.64h-2.49
				c-1.69,0-3.16-1.1-3.67-2.73c-0.34-1.11-0.79-2.19-1.34-3.23c-0.8-1.5-0.53-3.31,0.66-4.49l1.78-1.78l-3.99-3.99l-1.78,1.78
				c-1.19,1.19-3,1.45-4.5,0.65c-1.03-0.55-2.12-1-3.23-1.34c-1.63-0.51-2.73-1.98-2.73-3.67v-2.49h-5.64v2.49
				c0,1.69-1.1,3.16-2.73,3.67c-1.11,0.34-2.19,0.79-3.23,1.34c-1.5,0.8-3.31,0.53-4.5-0.66l-1.77-1.77l-3.99,3.99l1.78,1.78
				c1.19,1.19,1.45,2.99,0.65,4.5c-0.55,1.03-1,2.12-1.34,3.23c-0.51,1.63-1.98,2.73-3.67,2.73h-2.49v5.64h2.49
				c1.69,0,3.16,1.1,3.67,2.73c0.34,1.11,0.8,2.2,1.34,3.23c0.8,1.5,0.53,3.3-0.66,4.49l-1.78,1.78l3.99,3.99l1.78-1.78
				c1.19-1.19,2.99-1.45,4.49-0.66c1.04,0.55,2.13,1,3.23,1.34c1.63,0.51,2.73,1.98,2.73,3.67V117.5z M72.39,104.52
				C72.39,104.52,72.39,104.53,72.39,104.52C72.39,104.53,72.39,104.52,72.39,104.52z M72.62,83.67
				C72.62,83.67,72.62,83.67,72.62,83.67L72.62,83.67z M104.52,72.39C104.52,72.39,104.52,72.39,104.52,72.39
				C104.52,72.39,104.52,72.39,104.52,72.39z"/>
		</g>
		<g>
			<path fill="#FFFFFF" d="M93.41,106.54c-7.24,0-13.14-5.89-13.14-13.14s5.89-13.14,13.14-13.14s13.14,5.89,13.14,13.14
				S100.65,106.54,93.41,106.54z M93.41,85.27c-4.49,0-8.14,3.65-8.14,8.14s3.65,8.14,8.14,8.14s8.14-3.65,8.14-8.14
				S97.89,85.27,93.41,85.27z"/>
		</g>
	</g>
</g>
</svg>
