<?xml version="1.0" encoding="utf-8"?>
<!-- Generator: Adobe Illustrator 26.0.1, SVG Export Plug-In . SVG Version: 6.00 Build 0)  -->
<svg version="1.0" id="Layer_1" xmlns="http://www.w3.org/2000/svg" xmlns:xlink="http://www.w3.org/1999/xlink" x="0px" y="0px"
	 width="16px" height="16px" viewBox="0 0 16 16" enable-background="new 0 0 16 16" xml:space="preserve">
<g id="sinking">
	<g>
		<path fill="#808080" d="M15,10.5H1c-0.28,0-0.5-0.22-0.5-0.5S0.72,9.5,1,9.5h14c0.28,0,0.5,0.22,0.5,0.5S15.28,10.5,15,10.5z"/>
	</g>
	<g>
		<path fill="#808080" d="M14.78,5.47L5.97,1.05C5.88,1.01,5.78,1,5.69,1.03c-0.09,0.03-0.17,0.1-0.22,0.19L2.15,7.83
			C2.09,7.95,2.1,8.09,2.17,8.2c0.07,0.11,0.19,0.18,0.32,0.18h11.02c0.14,0,0.27-0.08,0.33-0.21l1.1-2.19
			C15.04,5.79,14.97,5.56,14.78,5.47z"/>
		<path fill="#ED6B21" d="M11.82,11.8c-0.07-0.11-0.19-0.18-0.32-0.18H4.99c-0.17,0-0.32,0.12-0.36,0.29
			c-0.04,0.17,0.04,0.34,0.2,0.42l5.21,2.61c0.05,0.03,0.11,0.04,0.17,0.04c0.04,0,0.08-0.01,0.12-0.02
			c0.09-0.03,0.17-0.1,0.22-0.19l1.31-2.61C11.9,12.05,11.89,11.91,11.82,11.8z"/>
	</g>
</g>
</svg>
