<?xml version="1.0" encoding="utf-8"?>
<!-- Generator: Adobe Illustrator 23.0.2, SVG Export Plug-In . SVG Version: 6.00 Build 0)  -->
<svg version="1.0" id="Layer_1" xmlns="http://www.w3.org/2000/svg" xmlns:xlink="http://www.w3.org/1999/xlink" x="0px" y="0px"
	 viewBox="0 0 128 128" enable-background="new 0 0 128 128" xml:space="preserve">
<g id="SLA_supports">
	<g>
		<path fill="#FFFFFF" d="M117.02,121.54H11.12c-1.93,0-3.5-1.57-3.5-3.5v-3.99c0-1.93,1.57-3.5,3.5-3.5h105.9
			c1.93,0,3.5,1.57,3.5,3.5v3.99C120.52,119.97,118.95,121.54,117.02,121.54z M11.12,113.55c-0.27,0-0.5,0.23-0.5,0.5v3.99
			c0,0.27,0.23,0.5,0.5,0.5h105.9c0.27,0,0.5-0.23,0.5-0.5v-3.99c0-0.27-0.23-0.5-0.5-0.5H11.12z"/>
	</g>
	<g>
		<path fill="#ED6B21" d="M32.08,108.06c-0.83,0-1.5-0.67-1.5-1.5v-18.8c0-0.83,0.67-1.5,1.5-1.5s1.5,0.67,1.5,1.5v18.8
			C33.58,107.39,32.9,108.06,32.08,108.06z"/>
	</g>
	<g>
		<path fill="#ED6B21" d="M48.02,108.06c-0.83,0-1.5-0.67-1.5-1.5v-8.14c0-0.83,0.67-1.5,1.5-1.5s1.5,0.67,1.5,1.5v8.14
			C49.52,107.39,48.85,108.06,48.02,108.06z"/>
	</g>
	<g>
		<path fill="#ED6B21" d="M88.04,108.06c-0.83,0-1.5-0.67-1.5-1.5V93.09c0-0.83,0.67-1.5,1.5-1.5s1.5,0.67,1.5,1.5v13.47
			C89.54,107.39,88.87,108.06,88.04,108.06z"/>
	</g>
	<path fill="#FFFFFF" d="M70.36,95.12l-6.29,4.2l-14.45-9.63l-2.5,2.6l15.96,10.64c0.3,0.2,0.64,0.3,0.99,0.3s0.69-0.1,0.99-0.3
		l7.9-5.27L70.36,95.12z"/>
	<polygon fill="#FFFFFF" points="88.97,86.99 86.35,84.46 77.91,90.09 80.5,92.63 	"/>
	<path fill="#FFFFFF" d="M103.99,35.1L65.05,9.14c-0.6-0.4-1.37-0.4-1.97,0L24.14,35.1c-0.49,0.33-0.79,0.88-0.79,1.48v38.91
		c0,0.59,0.3,1.15,0.79,1.48l15.47,10.32l2.5-2.6L26.9,74.54V37.53l37.16-24.78l37.16,24.78v37.01l-7.32,4.88l2.61,2.53l7.46-4.98
		c0.49-0.33,0.79-0.88,0.79-1.48V36.58C104.78,35.99,104.49,35.43,103.99,35.1z"/>
	<g>
		<path fill="#ED6B21" d="M96.16,108.06c-0.83,0-1.5-0.67-1.5-1.5V87.93L79,73.22c-0.6-0.57-0.63-1.52-0.07-2.12
			c0.57-0.6,1.52-0.63,2.12-0.07l16.13,15.15c0.3,0.28,0.47,0.68,0.47,1.09v19.27C97.66,107.39,96.99,108.06,96.16,108.06z"/>
	</g>
	<g>
		<path fill="#ED6B21" d="M40.08,108.06c-0.83,0-1.5-0.67-1.5-1.5V93.29c0-0.39,0.15-0.76,0.41-1.04l16.13-16.91
			c0.57-0.6,1.52-0.62,2.12-0.05c0.6,0.57,0.62,1.52,0.05,2.12L41.58,93.89v12.67C41.58,107.39,40.91,108.06,40.08,108.06z"/>
	</g>
	<g>
		<path fill="#ED6B21" d="M80.13,108.06c-0.83,0-1.5-0.67-1.5-1.5v-7.65L62.94,83.19c-0.59-0.59-0.58-1.54,0-2.12
			c0.59-0.58,1.54-0.59,2.12,0l16.13,16.15c0.28,0.28,0.44,0.66,0.44,1.06v8.27C81.63,107.39,80.96,108.06,80.13,108.06z"/>
	</g>
</g>
</svg>
