<?xml version="1.0" encoding="utf-8"?>
<!-- Generator: Adobe Illustrator 24.0.3, SVG Export Plug-In . SVG Version: 6.00 Build 0)  -->
<svg version="1.0" id="Layer_1" xmlns="http://www.w3.org/2000/svg" xmlns:xlink="http://www.w3.org/1999/xlink" x="0px" y="0px"
	 viewBox="0 0 16 16" enable-background="new 0 0 16 16" xml:space="preserve">
<g id="sla">
	<rect x="3" y="11" fill="#808080" width="1" height="4"/>
	<rect x="12" y="11" fill="#808080" width="1" height="4"/>
	<rect x="7.5" y="6.5" transform="matrix(-1.836970e-16 1 -1 -1.836970e-16 19.5 3.5)" fill="#808080" width="1" height="10"/>
	<rect x="7.5" y="9.5" transform="matrix(-1.836970e-16 1 -1 -1.836970e-16 22.5 6.5)" fill="#808080" width="1" height="10"/>
	<rect x="10.5" y="11.5" transform="matrix(-1.836970e-16 1 -1 -1.836970e-16 24.5 1.5)" fill="#808080" width="2" height="3"/>
	<rect x="3.5" y="11.5" transform="matrix(-1.836970e-16 1 -1 -1.836970e-16 17.5 8.5)" fill="#808080" width="2" height="3"/>
	<rect x="3" y="1" fill="#ED6B21" width="10" height="10"/>
</g>
</svg>
