<?xml version="1.0" encoding="utf-8"?>
<!-- Generator: Adobe Illustrator 24.3.0, SVG Export Plug-In . SVG Version: 6.00 Build 0)  -->
<svg version="1.0" id="Layer_1" xmlns="http://www.w3.org/2000/svg" xmlns:xlink="http://www.w3.org/1999/xlink" x="0px" y="0px"
	 viewBox="0 0 128 128" enable-background="new 0 0 128 128" xml:space="preserve">
<g id="split_x5F_objects">
	<g>
		<path fill="#FFFFFF" d="M32,90.5H8c-1.38,0-2.5-1.12-2.5-2.5V8c0-1.38,1.12-2.5,2.5-2.5h80c1.38,0,2.5,1.12,2.5,2.5v24
			c0,1.38-1.12,2.5-2.5,2.5s-2.5-1.12-2.5-2.5V10.5h-75v75H32c1.38,0,2.5,1.12,2.5,2.5S33.38,90.5,32,90.5z"/>
	</g>
	<g>
		<path fill="#ED6B21" d="M120,122.5H40c-1.38,0-2.5-1.12-2.5-2.5V40c0-1.38,1.12-2.5,2.5-2.5h80c1.38,0,2.5,1.12,2.5,2.5v80
			C122.5,121.38,121.38,122.5,120,122.5z M42.5,117.5h75v-75h-75V117.5z"/>
	</g>
	<g>
		<path fill="#ED6B21" d="M86,106.5H74c-6.89,0-12.5-5.61-12.5-12.5V66c0-6.89,5.61-12.5,12.5-12.5h12c6.89,0,12.5,5.61,12.5,12.5
			v28C98.5,100.89,92.89,106.5,86,106.5z M74,58.5c-4.14,0-7.5,3.36-7.5,7.5v28c0,4.14,3.36,7.5,7.5,7.5h12c4.14,0,7.5-3.36,7.5-7.5
			V66c0-4.14-3.36-7.5-7.5-7.5H74z"/>
	</g>
</g>
</svg>
