<?xml version="1.0" encoding="utf-8"?>
<!-- Generator: Adobe Illustrator 23.0.3, SVG Export Plug-In . SVG Version: 6.00 Build 0)  -->
<svg version="1.0" id="Layer_1" xmlns="http://www.w3.org/2000/svg" xmlns:xlink="http://www.w3.org/1999/xlink" x="0px" y="0px"
	 viewBox="0 0 16 16" enable-background="new 0 0 16 16" xml:space="preserve">
<g id="split_x5F_object_x5F_small">
	<path fill="#808080" d="M10.98,7.22c-0.29,0-0.52-0.23-0.52-0.52V4.61V3.57c0-0.29-0.23-0.52-0.52-0.52H2.62
		c-0.29,0-0.53,0.24-0.53,0.53l-0.04,7.31c0,0.14,0.05,0.27,0.15,0.37c0.1,0.1,0.23,0.15,0.37,0.15l3.19,0v0
		c0.29,0,0.52,0.23,0.52,0.52s-0.23,0.52-0.52,0.52H3.66c-0.01,0-0.01,0-0.02,0l-1.08,0c-0.42,0-0.81-0.16-1.11-0.46
		C1.16,11.69,1,11.29,1,10.87l0.04-7.31C1.05,2.7,1.75,2,2.62,2h7.31c0.86,0,1.57,0.7,1.57,1.57v1.04V6.7
		C11.5,6.99,11.27,7.22,10.98,7.22z"/>
	<g>
		<path fill="#ED6B21" d="M13.53,8H7.47C7.21,8,7,8.21,7,8.47v6.07C7,14.79,7.21,15,7.47,15h6.07c0.26,0,0.47-0.21,0.47-0.47V8.47
			C14,8.21,13.79,8,13.53,8z M12.36,12.68c0,1.14-0.57,1.65-1.88,1.65s-1.84-0.51-1.84-1.65v-2.33c0-1.17,0.51-1.65,1.84-1.65
			c1.33,0,1.88,0.48,1.88,1.65V12.68z"/>
		<path fill="#ED6B21" d="M10.47,9.57c-0.72,0-0.85,0.32-0.85,0.82v2.23c0,0.52,0.14,0.82,0.85,0.82c0.72,0,0.89-0.3,0.89-0.82V10.4
			C11.37,9.9,11.24,9.57,10.47,9.57z"/>
	</g>
</g>
</svg>
