<?xml version="1.0" encoding="utf-8"?>
<!-- Generator: Adobe Illustrator 23.0.1, SVG Export Plug-In . SVG Version: 6.00 Build 0)  -->
<svg version="1.0" id="Layer_1" xmlns="http://www.w3.org/2000/svg" xmlns:xlink="http://www.w3.org/1999/xlink" x="0px" y="0px"
	 viewBox="0 0 128 128" enable-background="new 0 0 128 128" xml:space="preserve">
<g id="OBJECTS">
	<g>
		<path fill="#FFFFFF" d="M34.63,91.95h-17.3c-4.96,0-9-4.04-9-9V17.28c0-4.96,4.04-9,9-9H83c4.96,0,9,4.04,9,9v17.3
			c0,1.66-1.34,3-3,3s-3-1.34-3-3v-17.3c0-1.65-1.35-3-3-3H17.32c-1.65,0-3,1.35-3,3v65.67c0,1.65,1.35,3,3,3h17.3
			c1.66,0,3,1.34,3,3S36.28,91.95,34.63,91.95z"/>
	</g>
	<g>
		<path fill="#ED6B21" d="M114.89,42.35H47.57c-2.85,0-5.18,2.33-5.18,5.18v67.32c0,2.85,2.33,5.18,5.18,5.18h67.32
			c2.85,0,5.18-2.33,5.18-5.18V47.52C120.07,44.68,117.74,42.35,114.89,42.35z M101.82,94.28c0,12.63-6.35,18.27-20.89,18.27
			s-20.42-5.64-20.42-18.27v-25.9c0-12.95,5.64-18.27,20.42-18.27c14.77,0,20.89,5.32,20.89,18.27V94.28z"/>
		<path fill="#ED6B21" d="M80.93,59.8c-7.94,0-9.45,3.58-9.45,9.14v24.78c0,5.8,1.51,9.13,9.45,9.13s9.93-3.33,9.93-9.13V68.94
			C90.86,63.38,89.43,59.8,80.93,59.8z"/>
	</g>
</g>
</svg>
