<?xml version="1.0" encoding="utf-8"?>
<!-- Generator: Adobe Illustrator 24.3.0, SVG Export Plug-In . SVG Version: 6.00 Build 0)  -->
<svg version="1.0" id="Layer_1" xmlns="http://www.w3.org/2000/svg" xmlns:xlink="http://www.w3.org/1999/xlink" x="0px" y="0px"
	 viewBox="0 0 128 128" enable-background="new 0 0 128 128" xml:space="preserve">
<g id="split_x5F_parts_1_">
	<g>
		<path fill="#FFFFFF" d="M32,90.5H8c-1.38,0-2.5-1.12-2.5-2.5V8c0-1.38,1.12-2.5,2.5-2.5h80c1.38,0,2.5,1.12,2.5,2.5v24
			c0,1.38-1.12,2.5-2.5,2.5s-2.5-1.12-2.5-2.5V10.5h-75v75H32c1.38,0,2.5,1.12,2.5,2.5S33.38,90.5,32,90.5z"/>
	</g>
	<g>
		<path fill="#ED6B21" d="M120,122.5H40c-1.38,0-2.5-1.12-2.5-2.5V40c0-1.38,1.12-2.5,2.5-2.5h80c1.38,0,2.5,1.12,2.5,2.5v80
			C122.5,121.38,121.38,122.5,120,122.5z M42.5,117.5h75v-75h-75V117.5z"/>
	</g>
	<g>
		<path fill="#ED6B21" d="M64,106.5c-1.38,0-2.5-1.12-2.5-2.5V61c0-4.14,3.36-7.5,7.5-7.5h17c6.89,0,12.5,5.61,12.5,12.5v4
			c0,6.89-5.61,12.5-12.5,12.5H66.5V104C66.5,105.38,65.38,106.5,64,106.5z M66.5,77.5H86c4.14,0,7.5-3.36,7.5-7.5v-4
			c0-4.14-3.36-7.5-7.5-7.5H69c-1.38,0-2.5,1.12-2.5,2.5V77.5z"/>
	</g>
</g>
</svg>
