<?xml version="1.0" encoding="utf-8"?>
<!-- Generator: Adobe Illustrator 23.0.1, SVG Export Plug-In . SVG Version: 6.00 Build 0)  -->
<svg version="1.0" id="Layer_1" xmlns="http://www.w3.org/2000/svg" xmlns:xlink="http://www.w3.org/1999/xlink" x="0px" y="0px"
	 viewBox="0 0 128 128" enable-background="new 0 0 128 128" xml:space="preserve">
<g id="PARTS">
	<g>
		<path fill="#FFFFFF" d="M34.63,91.95h-17.3c-4.96,0-9-4.04-9-9V17.28c0-4.96,4.04-9,9-9H83c4.96,0,9,4.04,9,9v17.3
			c0,1.66-1.34,3-3,3s-3-1.34-3-3v-17.3c0-1.65-1.35-3-3-3H17.32c-1.65,0-3,1.35-3,3v65.67c0,1.65,1.35,3,3,3h17.3
			c1.66,0,3,1.34,3,3S36.28,91.95,34.63,91.95z"/>
	</g>
	<g>
		<path fill="#ED6B21" d="M114.91,42.32H47.57c-2.85,0-5.18,2.33-5.18,5.18v67.34c0,2.85,2.33,5.18,5.18,5.18h67.34
			c2.85,0,5.18-2.33,5.18-5.18V47.5C120.09,44.65,117.76,42.32,114.91,42.32z M99.95,74.39c0,12.84-7.27,18.81-22.04,18.81h-4.28
			v19.05H62.25V50.09h15.66c15.02,0,22.04,5.41,22.04,18.57C99.95,68.66,99.95,74.39,99.95,74.39z"/>
		<path fill="#ED6B21" d="M78.07,60.26h-4.52v22.2h4.36c8.08,0,10.74-2.74,10.74-8.64v-4.6C88.65,63.33,86.71,60.26,78.07,60.26z"/>
	</g>
</g>
</svg>
