<?xml version="1.0" encoding="utf-8"?>
<!-- Generator: Adobe Illustrator 23.0.3, SVG Export Plug-In . SVG Version: 6.00 Build 0)  -->
<svg version="1.0" id="Layer_1" xmlns="http://www.w3.org/2000/svg" xmlns:xlink="http://www.w3.org/1999/xlink" x="0px" y="0px"
	 viewBox="0 0 16 16" enable-background="new 0 0 16 16" xml:space="preserve">
<g id="support_x5F_enfocer">
	<g>
		<path fill="#808080" d="M8,8.17c-0.4,0-0.8-0.1-1.11-0.31L2.55,4.97C1.95,4.57,1.5,3.72,1.5,3V2c0-0.28,0.22-0.5,0.5-0.5
			S2.5,1.72,2.5,2v1c0,0.38,0.29,0.93,0.61,1.14l4.34,2.89c0.29,0.19,0.82,0.19,1.11,0l4.34-2.89C13.21,3.93,13.5,3.38,13.5,3V2
			c0-0.28,0.22-0.5,0.5-0.5s0.5,0.22,0.5,0.5v1c0,0.72-0.45,1.57-1.05,1.97L9.11,7.86C8.8,8.07,8.4,8.17,8,8.17z"/>
	</g>
	<g>
		<path fill="#ED6B21" d="M13,14.5H3c-0.83,0-1.5-0.67-1.5-1.5V7c0-0.45,0.19-0.81,0.51-0.98c0.32-0.17,0.72-0.13,1.1,0.12
			l4.34,2.89c0.29,0.19,0.82,0.19,1.11,0l4.34-2.89c0.38-0.25,0.78-0.3,1.1-0.12C14.31,6.19,14.5,6.55,14.5,7v6
			C14.5,13.83,13.83,14.5,13,14.5z M2.5,6.94c0,0.02,0,0.04,0,0.06v6c0,0.28,0.22,0.5,0.5,0.5h10c0.28,0,0.5-0.22,0.5-0.5V7
			c0-0.02,0-0.04,0-0.06c-0.02,0.01-0.03,0.02-0.05,0.03L9.11,9.86c-0.62,0.41-1.6,0.41-2.22,0L2.55,6.97
			C2.54,6.96,2.52,6.95,2.5,6.94z M8.83,9.45L8.83,9.45L8.83,9.45z"/>
	</g>
</g>
</svg>
