<?xml version="1.0" encoding="utf-8"?>
<!-- Generator: Adobe Illustrator 23.0.3, SVG Export Plug-In . SVG Version: 6.00 Build 0)  -->
<svg version="1.0" id="Layer_1" xmlns="http://www.w3.org/2000/svg" xmlns:xlink="http://www.w3.org/1999/xlink" x="0px" y="0px"
	 viewBox="0 0 16 16" enable-background="new 0 0 16 16" xml:space="preserve">
<g id="support_x5F_blocker">
	<g>
		<path fill="#808080" d="M8,8.17c-0.4,0-0.8-0.1-1.11-0.31L2.55,4.97C1.95,4.57,1.5,3.72,1.5,3V2c0-0.28,0.22-0.5,0.5-0.5
			S2.5,1.72,2.5,2v1c0,0.38,0.29,0.93,0.61,1.14l4.34,2.89c0.29,0.19,0.82,0.19,1.11,0l4.34-2.89C13.21,3.93,13.5,3.38,13.5,3V2
			c0-0.28,0.22-0.5,0.5-0.5s0.5,0.22,0.5,0.5v1c0,0.72-0.45,1.57-1.05,1.97L9.11,7.86C8.8,8.07,8.4,8.17,8,8.17z"/>
	</g>
	<g>
		<path fill="#ED6B21" d="M11,8.38c-0.12,0-0.24-0.06-0.31-0.17c-0.11-0.17-0.07-0.41,0.1-0.52l3-2c0.12-0.08,0.26-0.08,0.38-0.02
			s0.2,0.19,0.2,0.33v2c0,0.21-0.17,0.38-0.38,0.38S13.62,8.21,13.62,8V6.7l-2.42,1.61C11.14,8.35,11.07,8.38,11,8.38z"/>
	</g>
	<g>
		<path fill="#ED6B21" d="M14,14.38h-3c-0.21,0-0.38-0.17-0.38-0.38s0.17-0.38,0.38-0.38h2.62V13c0-0.21,0.17-0.38,0.38-0.38
			s0.38,0.17,0.38,0.38v1C14.38,14.21,14.21,14.38,14,14.38z"/>
	</g>
	<g>
		<path fill="#ED6B21" d="M9,14.38H7c-0.21,0-0.38-0.17-0.38-0.38S6.79,13.62,7,13.62h2c0.21,0,0.38,0.17,0.38,0.38
			S9.21,14.38,9,14.38z"/>
	</g>
	<g>
		<path fill="#ED6B21" d="M14,11.38c-0.21,0-0.38-0.17-0.38-0.38v-1c0-0.21,0.17-0.38,0.38-0.38s0.38,0.17,0.38,0.38v1
			C14.38,11.21,14.21,11.38,14,11.38z"/>
	</g>
	<g>
		<path fill="#ED6B21" d="M8,10.38c-0.13,0-0.25-0.06-0.32-0.18C7.57,10.02,7.63,9.79,7.8,9.68l1.62-1C9.6,8.57,9.83,8.63,9.94,8.8
			c0.11,0.18,0.05,0.41-0.12,0.52l-1.62,1C8.14,10.36,8.07,10.38,8,10.38z"/>
	</g>
	<g>
		<path fill="#ED6B21" d="M5,8.38c-0.07,0-0.14-0.02-0.21-0.06L2.38,6.7V8c0,0.21-0.17,0.38-0.38,0.38S1.62,8.21,1.62,8V6
			c0-0.14,0.08-0.27,0.2-0.33C1.95,5.6,2.09,5.61,2.21,5.69l3,2c0.17,0.11,0.22,0.35,0.1,0.52C5.24,8.32,5.12,8.38,5,8.38z"/>
	</g>
	<g>
		<path fill="#ED6B21" d="M5,14.38H2c-0.21,0-0.38-0.17-0.38-0.38v-1c0-0.21,0.17-0.38,0.38-0.38S2.38,12.79,2.38,13v0.62H5
			c0.21,0,0.38,0.17,0.38,0.38S5.21,14.38,5,14.38z"/>
	</g>
	<g>
		<path fill="#ED6B21" d="M2,11.38c-0.21,0-0.38-0.17-0.38-0.38v-1c0-0.21,0.17-0.38,0.38-0.38S2.38,9.79,2.38,10v1
			C2.38,11.21,2.21,11.38,2,11.38z"/>
	</g>
	<g>
		<path fill="#ED6B21" d="M8,10.38c-0.07,0-0.14-0.02-0.2-0.06l-1.62-1C6.01,9.21,5.96,8.98,6.06,8.8C6.17,8.63,6.4,8.57,6.58,8.68
			l1.62,1c0.18,0.11,0.23,0.34,0.12,0.52C8.25,10.31,8.13,10.38,8,10.38z"/>
	</g>
</g>
</svg>
