<?xml version="1.0" encoding="utf-8"?>
<!-- Generator: Adobe Illustrator 25.2.1, SVG Export Plug-In . SVG Version: 6.00 Build 0)  -->
<svg version="1.1" id="Layer_1" xmlns="http://www.w3.org/2000/svg" xmlns:xlink="http://www.w3.org/1999/xlink" x="0px" y="0px"
    viewBox="0 0 330 330" style="enable-background:new 0 0 330 330;" xml:space="preserve">
<style type="text/css">
   .st0{display:none;}
   .st1{fill:none;stroke:#ED6B21;stroke-width:17.0079;stroke-linecap:round;stroke-miterlimit:10;}
</style>
<path id="XMLID_28_" class="st0" d="M180,315V51.2l49.4,49.4c5.9,5.9,15.4,5.9,21.2,0c5.9-5.9,5.9-15.4,0-21.2l-75-75
   c-5.9-5.9-15.4-5.9-21.2,0l-75,75C76.5,82.3,75,86.2,75,90s1.5,7.7,4.4,10.6c5.9,5.9,15.4,5.9,21.2,0L150,51.2V315
   c0,8.3,6.7,15,15,15S180,323.3,180,315z"
    style="fill:#ed6b21;"/>
<g id="XMLID_1_">
   <g>
   </g>
   <g>
      <polyline class="st1" points="113.6,84.5 164.3,18.3 164.3,18.3       "/>
      <polyline class="st1" points="216.4,84.5 164.3,18.3 164.3,18.3       "/>
   </g>
</g>
<line class="st1" x1="164.3" y1="263.3" x2="164.3" y2="18.3"/>
</svg>