<?xml version="1.0" encoding="UTF-8" standalone="no"?>
<svg
   xmlns:dc="http://purl.org/dc/elements/1.1/"
   xmlns:cc="http://creativecommons.org/ns#"
   xmlns:rdf="http://www.w3.org/1999/02/22-rdf-syntax-ns#"
   xmlns:svg="http://www.w3.org/2000/svg"
   xmlns="http://www.w3.org/2000/svg"
   xmlns:sodipodi="http://sodipodi.sourceforge.net/DTD/sodipodi-0.dtd"
   xmlns:inkscape="http://www.inkscape.org/namespaces/inkscape"
   inkscape:version="1.0 (4035a4fb49, 2020-05-01)"
   sodipodi:docname="toolbar_arrow.svg"
   xml:space="preserve"
   style="enable-background:new 0 0 330 330;"
   viewBox="0 0 330 330"
   y="0px"
   x="0px"
   id="Layer_1"
   version="1.1"><metadata
   id="metadata21"><rdf:RDF><cc:Work
       rdf:about=""><dc:format>image/svg+xml</dc:format><dc:type
         rdf:resource="http://purl.org/dc/dcmitype/StillImage" /><dc:title></dc:title></cc:Work></rdf:RDF></metadata><defs
   id="defs19" /><sodipodi:namedview
   inkscape:current-layer="Layer_1"
   inkscape:window-maximized="1"
   inkscape:window-y="-8"
   inkscape:window-x="-8"
   inkscape:cy="165"
   inkscape:cx="165"
   inkscape:zoom="3.0545455"
   showgrid="false"
   id="namedview17"
   inkscape:window-height="1377"
   inkscape:window-width="2560"
   inkscape:pageshadow="2"
   inkscape:pageopacity="0"
   guidetolerance="10"
   gridtolerance="10"
   objecttolerance="10"
   borderopacity="1"
   bordercolor="#666666"
   pagecolor="#ffffff" />
<style
   id="style2"
   type="text/css">
	.st0{display:none;}
	.st1{fill:none;stroke:#ED6B21;stroke-width:17.0079;stroke-linecap:round;stroke-miterlimit:10;}
</style>
<path
   d="M180,315V51.2l49.4,49.4c5.9,5.9,15.4,5.9,21.2,0c5.9-5.9,5.9-15.4,0-21.2l-75-75  c-5.9-5.9-15.4-5.9-21.2,0l-75,75C76.5,82.3,75,86.2,75,90s1.5,7.7,4.4,10.6c5.9,5.9,15.4,5.9,21.2,0L150,51.2V315  c0,8.3,6.7,15,15,15S180,323.3,180,315z"
   class="st0"
   id="XMLID_28_" />
<g
   id="XMLID_1_">
	<g
   id="g5">
	</g>
	<g
   id="g11">
		<polyline
   id="polyline7"
   points="113.6,84.5 164.3,18.3 164.3,18.3   "
   class="st1" />
		<polyline
   id="polyline9"
   points="216.4,84.5 164.3,18.3 164.3,18.3   "
   class="st1" />
	</g>
</g>
<line
   id="line14"
   y2="18.3"
   x2="164.3"
   y1="263.3"
   x1="164.3"
   class="st1" />
</svg>
