<?xml version="1.0" encoding="utf-8"?>
<!-- Generator: Adobe Illustrator 23.0.6, SVG Export Plug-In . SVG Version: 6.00 Build 0)  -->
<svg version="1.0" id="Layer_1" xmlns="http://www.w3.org/2000/svg" xmlns:xlink="http://www.w3.org/1999/xlink" x="0px" y="0px"
	 viewBox="0 0 16 16" enable-background="new 0 0 16 16" xml:space="preserve">
<path id="undo_1_" fill="#808080" d="M14.05,7.01H3.82l3.32-4.51c0.31-0.42,0.22-1.01-0.2-1.32c-0.42-0.31-1.01-0.22-1.32,0.2
	L1.18,7.4c0,0.01-0.01,0.01-0.01,0.02C1.17,7.43,1.16,7.44,1.15,7.46C1.13,7.48,1.12,7.5,1.11,7.53C1.1,7.54,1.09,7.56,1.08,7.58
	C1.08,7.59,1.07,7.61,1.06,7.62C1.06,7.65,1.05,7.67,1.04,7.69C1.04,7.71,1.03,7.73,1.02,7.75c0,0.01,0,0.03-0.01,0.04
	c0,0.02-0.01,0.05-0.01,0.07C1.01,7.89,1,7.92,1,7.94c0,0.01,0,0.01,0,0.02c0,0.01,0,0.01,0,0.02c0,0.02,0,0.05,0.01,0.07
	c0,0.02,0,0.05,0.01,0.07c0,0.01,0,0.03,0.01,0.04c0,0.02,0.01,0.04,0.02,0.06C1.05,8.26,1.06,8.28,1.07,8.3
	c0.01,0.01,0.01,0.03,0.02,0.04C1.09,8.36,1.1,8.38,1.11,8.4c0.01,0.02,0.02,0.04,0.04,0.07c0.01,0.01,0.02,0.03,0.03,0.04
	c0,0.01,0.01,0.01,0.01,0.02l4.54,6.05c0.19,0.25,0.47,0.38,0.76,0.38c0.2,0,0.4-0.06,0.57-0.19c0.42-0.31,0.5-0.91,0.19-1.32
	L3.84,8.91h10.22c0.52,0,0.95-0.42,0.95-0.95C15,7.44,14.58,7.01,14.05,7.01z"/>
</svg>
