<?xml version="1.0" encoding="utf-8"?>
<!-- Generator: Adobe Illustrator 23.0.3, SVG Export Plug-In . SVG Version: 6.00 Build 0)  -->
<svg version="1.0" id="Layer_1" xmlns="http://www.w3.org/2000/svg" xmlns:xlink="http://www.w3.org/1999/xlink" x="0px" y="0px"
	 viewBox="0 0 16 16" enable-background="new 0 0 16 16" xml:space="preserve">
<g id="gueue">
	<g>
		<path fill="#808080" d="M6,15.49H2.04c-0.83,0-1.5-0.67-1.51-1.5l-0.02-3.96c0-0.4,0.15-0.78,0.44-1.06C1.22,8.69,1.6,8.53,2,8.53
			l4,0c0.83,0,1.5,0.67,1.5,1.5v3.96C7.5,14.82,6.83,15.49,6,15.49z M6,9.53l-4,0c-0.13,0-0.26,0.05-0.35,0.15
			C1.56,9.77,1.51,9.9,1.51,10.03l0.02,3.96c0,0.28,0.23,0.5,0.51,0.5H6c0.28,0,0.5-0.22,0.5-0.5v-3.96C6.5,9.75,6.28,9.53,6,9.53z"
			/>
	</g>
	<g>
		<path fill="#808080" d="M6,7.5H2.04c-0.83,0-1.5-0.67-1.51-1.5L0.51,2.04c0-0.4,0.15-0.78,0.44-1.06C1.22,0.7,1.6,0.54,2,0.54l4,0
			c0,0,0,0,0,0c0.4,0,0.77,0.16,1.06,0.44C7.34,1.26,7.5,1.64,7.5,2.04V6C7.5,6.83,6.83,7.5,6,7.5z M6,1.54C6,1.54,6,1.54,6,1.54
			l-4,0c-0.13,0-0.26,0.05-0.35,0.15C1.56,1.78,1.51,1.9,1.51,2.04L1.53,6c0,0.28,0.23,0.5,0.51,0.5H6c0.28,0,0.5-0.22,0.5-0.5V2.04
			c0-0.13-0.05-0.26-0.15-0.35C6.26,1.59,6.13,1.54,6,1.54z"/>
	</g>
	<g>
		<path fill="#808080" d="M14,7.5h-3.96c-0.83,0-1.5-0.67-1.51-1.5L8.51,2.04c0-0.4,0.15-0.78,0.44-1.06C9.22,0.7,9.6,0.54,10,0.54
			l4,0h0c0.4,0,0.78,0.16,1.06,0.44c0.28,0.28,0.44,0.66,0.44,1.06V6C15.5,6.83,14.83,7.5,14,7.5z M14,1.54C14,1.54,14,1.54,14,1.54
			l-4,0c-0.13,0-0.26,0.05-0.35,0.15C9.56,1.78,9.5,1.9,9.51,2.04L9.53,6c0,0.27,0.23,0.5,0.51,0.5H14c0.28,0,0.5-0.22,0.5-0.5V2.04
			c0-0.13-0.05-0.26-0.15-0.35S14.13,1.54,14,1.54z"/>
	</g>
	<path fill="#ED6B21" d="M12,8.5c-1.93,0-3.5,1.57-3.5,3.5s1.57,3.5,3.5,3.5s3.5-1.57,3.5-3.5S13.93,8.5,12,8.5z M13.45,12.58H12
		c-0.09,0-0.17-0.02-0.24-0.06c-0.02-0.01-0.04-0.02-0.05-0.04c-0.05-0.03-0.1-0.07-0.14-0.12c-0.01-0.01-0.02-0.01-0.03-0.02
		l-1.25-1.67c-0.19-0.26-0.14-0.62,0.12-0.82c0.26-0.19,0.62-0.14,0.82,0.12l1.07,1.43h1.17c0.32,0,0.58,0.26,0.58,0.58
		C14.04,12.32,13.78,12.58,13.45,12.58z"/>
</g>
</svg>
