<?xml version="1.0" encoding="utf-8"?>
<!-- Generator: Adobe Illustrator 23.0.3, SVG Export Plug-In . SVG Version: 6.00 Build 0)  -->
<svg version="1.0" id="Layer_1" xmlns="http://www.w3.org/2000/svg" xmlns:xlink="http://www.w3.org/1999/xlink" x="0px" y="0px"
	 viewBox="0 0 16 16" enable-background="new 0 0 16 16" xml:space="preserve">
<g id="advanced_x2B_wrench">
	<g>
		<path fill="#808080" d="M7.61,3.81c-0.12-0.06-0.26-0.21-0.3-0.34S7.15,2.92,7.19,2.79l0.06-0.17c0.04-0.13,0-0.32-0.1-0.41
			L6.8,1.85c-0.1-0.1-0.28-0.14-0.41-0.1L6.21,1.81C6.08,1.85,5.88,1.84,5.76,1.78s-0.5-0.27-0.56-0.39L5.11,1.22
			C5.05,1.1,4.89,1,4.75,1h-0.5c-0.14,0-0.3,0.1-0.36,0.22L3.81,1.39c-0.06,0.12-0.21,0.26-0.34,0.3S2.92,1.85,2.79,1.81L2.62,1.75
			c-0.13-0.04-0.32,0-0.41,0.1L1.85,2.2c-0.1,0.1-0.14,0.28-0.1,0.41l0.06,0.17c0.04,0.13,0.03,0.33-0.03,0.45s-0.27,0.5-0.39,0.56
			L1.22,3.89C1.1,3.95,1,4.11,1,4.25v0.5c0,0.14,0.1,0.3,0.22,0.36l0.17,0.08c0.12,0.06,0.26,0.21,0.3,0.34s0.16,0.54,0.12,0.67
			L1.75,6.38c-0.04,0.13,0,0.32,0.1,0.41L2.2,7.15c0.1,0.1,0.28,0.14,0.41,0.1l0.17-0.06c0.13-0.04,0.33-0.03,0.45,0.03
			s0.5,0.27,0.56,0.39l0.08,0.17C3.95,7.9,4.11,8,4.25,8h0.5c0.14,0,0.3-0.1,0.36-0.22l0.08-0.17c0.06-0.12,0.21-0.26,0.34-0.3
			s0.54-0.16,0.67-0.12l0.17,0.06c0.13,0.04,0.32,0,0.41-0.1L7.15,6.8c0.1-0.1,0.14-0.28,0.1-0.41L7.19,6.21
			C7.15,6.08,7.16,5.88,7.22,5.76s0.27-0.5,0.39-0.56l0.17-0.08C7.9,5.05,8,4.89,8,4.75v-0.5c0-0.14-0.1-0.3-0.22-0.36L7.61,3.81z
			 M4.5,6.42c-1.06,0-1.92-0.86-1.92-1.92c0-1.06,0.86-1.92,1.92-1.92S6.42,3.44,6.42,4.5C6.42,5.56,5.56,6.42,4.5,6.42z"/>
	</g>
	<g>
		<path fill="#808080" d="M12.61,2.6c-0.12-0.06-0.24-0.18-0.28-0.27s-0.11-0.42-0.06-0.54s0-0.31-0.1-0.41l-0.15-0.15
			c-0.1-0.1-0.28-0.14-0.41-0.1s-0.3,0.04-0.39,0S10.86,0.9,10.8,0.78s-0.22-0.22-0.36-0.22h-0.21c-0.14,0-0.3,0.1-0.36,0.22
			S9.68,1.03,9.59,1.06S9.18,1.16,9.05,1.12s-0.31,0-0.41,0.1L8.49,1.37c-0.1,0.1-0.14,0.28-0.1,0.41s0.04,0.3,0,0.39
			S8.17,2.54,8.05,2.6S7.83,2.82,7.83,2.96v0.21c0,0.14,0.1,0.3,0.22,0.36S8.3,3.71,8.33,3.8s0.11,0.42,0.06,0.54s0,0.31,0.1,0.41
			l0.15,0.15c0.1,0.1,0.28,0.14,0.41,0.1s0.3-0.04,0.39,0s0.37,0.22,0.43,0.34s0.22,0.22,0.36,0.22h0.21c0.14,0,0.3-0.1,0.36-0.22
			s0.18-0.24,0.27-0.28s0.42-0.11,0.54-0.06s0.31,0,0.41-0.1l0.15-0.15c0.1-0.1,0.14-0.28,0.1-0.41s-0.04-0.3,0-0.39
			s0.22-0.37,0.34-0.43s0.22-0.22,0.22-0.36V2.96C12.83,2.82,12.74,2.66,12.61,2.6z M10.33,4.18c-0.62,0-1.11-0.5-1.11-1.11
			c0-0.62,0.5-1.11,1.11-1.11s1.11,0.5,1.11,1.11C11.45,3.68,10.95,4.18,10.33,4.18z"/>
	</g>
	<g>
		<path fill="#ED6B21" d="M14.38,9.89c-0.01-0.14,0.06-0.33,0.15-0.44l0.31-0.35c0.09-0.1,0.12-0.29,0.07-0.42l-0.35-0.85
			c-0.05-0.13-0.21-0.24-0.35-0.25l-0.47-0.03c-0.14-0.01-0.32-0.1-0.42-0.2l-0.37-0.37c-0.1-0.09-0.2-0.28-0.2-0.41l-0.03-0.47
			c-0.01-0.14-0.12-0.29-0.25-0.35L11.62,5.4c-0.13-0.05-0.32-0.02-0.42,0.07l-0.36,0.31c-0.1,0.09-0.3,0.16-0.44,0.15l-0.52,0
			C9.75,5.93,9.55,5.86,9.45,5.77L9.1,5.46C8.99,5.37,8.8,5.34,8.68,5.4L7.83,5.75C7.7,5.8,7.59,5.95,7.58,6.09L7.55,6.56
			c-0.01,0.14-0.1,0.32-0.2,0.42L6.98,7.34c-0.09,0.1-0.28,0.2-0.41,0.2L6.09,7.58C5.95,7.59,5.8,7.7,5.75,7.83L5.4,8.68
			C5.34,8.8,5.37,8.99,5.46,9.1l0.31,0.36c0.09,0.1,0.16,0.3,0.15,0.44l0,0.52c0.01,0.14-0.06,0.33-0.15,0.44L5.46,11.2
			c-0.09,0.1-0.12,0.29-0.07,0.42l0.35,0.85c0.05,0.13,0.21,0.24,0.35,0.25l0.47,0.03c0.14,0.01,0.32,0.1,0.42,0.2l0.37,0.37
			c0.1,0.09,0.2,0.28,0.2,0.41l0.03,0.47c0.01,0.14,0.12,0.29,0.25,0.35l0.85,0.35c0.13,0.05,0.32,0.02,0.42-0.07l0.36-0.31
			c0.1-0.09,0.3-0.16,0.44-0.15l0.52,0c0.14-0.01,0.33,0.06,0.44,0.15l0.35,0.31c0.1,0.09,0.29,0.12,0.42,0.07l0.85-0.35
			c0.13-0.05,0.24-0.21,0.25-0.35l0.03-0.47c0.01-0.14,0.1-0.32,0.2-0.42l0.37-0.37c0.09-0.1,0.28-0.2,0.41-0.21l0.47-0.03
			c0.14-0.01,0.29-0.12,0.35-0.25l0.35-0.85c0.05-0.13,0.02-0.32-0.07-0.42l-0.31-0.36c-0.09-0.1-0.16-0.3-0.15-0.44L14.38,9.89z
			 M10.15,13c-1.57,0-2.85-1.27-2.85-2.85S8.58,7.3,10.15,7.3S13,8.58,13,10.15S11.72,13,10.15,13z"/>
	</g>
</g>
</svg>
