<?xml version="1.0" encoding="utf-8"?>
<!-- Generator: Adobe Illustrator 23.0.3, SVG Export Plug-In . SVG Version: 6.00 Build 0)  -->
<svg version="1.0" id="Layer_1" xmlns="http://www.w3.org/2000/svg" xmlns:xlink="http://www.w3.org/1999/xlink" x="0px" y="0px"
	 viewBox="0 0 16 16" enable-background="new 0 0 16 16" xml:space="preserve">
<g id="advanced_x2B_wrench">
	<path fill="#808080" d="M7.39,3.69C7.32,3.46,7.23,3.24,7.11,3.03l0.22-0.65L6.62,1.67L5.97,1.89C5.76,1.77,5.54,1.68,5.31,1.61
		L5,1H4L3.69,1.61C3.46,1.68,3.24,1.77,3.03,1.89L2.38,1.67L1.67,2.38l0.22,0.65C1.77,3.24,1.68,3.46,1.61,3.69L1,4v1l0.61,0.31
		c0.07,0.23,0.16,0.46,0.27,0.67L1.67,6.62l0.71,0.71l0.65-0.22c0.21,0.12,0.43,0.21,0.67,0.28L4,8h1l0.31-0.61
		c0.23-0.07,0.46-0.16,0.67-0.28l0.65,0.22l0.71-0.71L7.11,5.97c0.12-0.21,0.21-0.43,0.27-0.67L8,5V4L7.39,3.69z"/>
	<path fill="#808080" d="M12.4,2.49c-0.05-0.17-0.11-0.33-0.2-0.48l0.15-0.46l-0.51-0.51L11.39,1.2c-0.15-0.08-0.31-0.15-0.48-0.2
		l-0.22-0.44H9.98L9.76,1C9.59,1.05,9.43,1.11,9.28,1.2L8.82,1.04L8.31,1.55l0.15,0.46c-0.08,0.15-0.15,0.31-0.2,0.48L7.83,2.71
		v0.71l0.44,0.22c0.05,0.17,0.11,0.33,0.2,0.48L8.31,4.58l0.51,0.51l0.46-0.15c0.15,0.08,0.31,0.15,0.48,0.2l0.22,0.44h0.71
		l0.22-0.44c0.17-0.05,0.33-0.11,0.48-0.2l0.46,0.15l0.51-0.51L12.2,4.12c0.08-0.15,0.15-0.31,0.2-0.48l0.44-0.22V2.71L12.4,2.49z"
		/>
	<path fill="#ED6B21" d="M14.36,10.66c0.04-0.34,0.04-0.68,0-1.02L15,8.91L14.46,7.6l-0.97-0.07c-0.21-0.27-0.45-0.51-0.72-0.72
		L12.7,5.84L11.39,5.3l-0.73,0.64c-0.34-0.04-0.68-0.04-1.02,0L8.91,5.3L7.6,5.84L7.53,6.81C7.26,7.02,7.02,7.26,6.81,7.53L5.84,7.6
		L5.3,8.91l0.64,0.73c-0.04,0.34-0.04,0.68,0,1.02L5.3,11.39l0.54,1.31l0.97,0.07c0.21,0.27,0.45,0.51,0.72,0.72l0.07,0.97L8.91,15
		l0.73-0.64c0.34,0.04,0.68,0.04,1.02,0L11.39,15l1.31-0.54l0.07-0.97c0.27-0.21,0.51-0.45,0.72-0.72l0.97-0.07L15,11.39
		L14.36,10.66z"/>
	<circle fill="#FFFFFF" cx="4.5" cy="4.5" r="1.92"/>
	<circle fill="#FFFFFF" cx="10.33" cy="3.06" r="1.11"/>
	<circle fill="#FFFFFF" cx="10.15" cy="10.15" r="2.85"/>
</g>
</svg>
