<svg width="732" height="760" viewBox="0 0 732 760" fill="none" xmlns="http://www.w3.org/2000/svg">
<g clip-path="url(#clip0_4523_22675)">
<path d="M392 733.699L372.1 753.499H377.8L397.6 733.699H392Z" fill="#CFD2D3"/>
<path d="M403.198 733.699L383.398 753.499H388.998L408.898 733.699H403.198Z" fill="#CFD2D3"/>
<path d="M414.499 733.699L394.699 753.499H400.399L420.199 733.699H414.499Z" fill="#CFD2D3"/>
<path d="M425.9 733.699L406 753.499H411.7L431.5 733.699H425.9Z" fill="#CFD2D3"/>
<path d="M437.198 733.699L417.398 753.499H422.998L442.898 733.699H437.198Z" fill="#CFD2D3"/>
<path d="M448.599 733.699L428.699 753.499H434.399L454.199 733.699H448.599Z" fill="#CFD2D3"/>
<path d="M459.9 733.699L440.1 753.499H445.7L465.6 733.699H459.9Z" fill="#CFD2D3"/>
<path d="M471.198 733.699L451.398 753.499H456.998L476.898 733.699H471.198Z" fill="#CFD2D3"/>
<path d="M482.599 733.699L462.699 753.499H468.399L488.199 733.699H482.599Z" fill="#CFD2D3"/>
<path d="M493.9 733.699L474 753.499H479.7L499.6 733.699H493.9Z" fill="#CFD2D3"/>
<path d="M278.298 733.699L258.398 753.499H264.098L283.998 733.699H278.298Z" fill="#CFD2D3"/>
<path d="M289.499 733.699L269.699 753.499H275.299L295.199 733.699H289.499Z" fill="#CFD2D3"/>
<path d="M300.9 733.699L281 753.499H286.7L306.5 733.699H300.9Z" fill="#CFD2D3"/>
<path d="M312.198 733.699L292.398 753.499H297.998L317.898 733.699H312.198Z" fill="#CFD2D3"/>
<path d="M323.499 733.699L303.699 753.499H309.399L329.199 733.699H323.499Z" fill="#CFD2D3"/>
<path d="M334.9 733.699L315 753.499H320.7L340.5 733.699H334.9Z" fill="#CFD2D3"/>
<path d="M346.198 733.699L326.398 753.499H331.998L351.898 733.699H346.198Z" fill="#CFD2D3"/>
<path d="M357.499 733.699L337.699 753.499H343.399L363.199 733.699H357.499Z" fill="#CFD2D3"/>
<path d="M368.9 733.699L349 753.499H354.7L374.5 733.699H368.9Z" fill="#CFD2D3"/>
<path d="M380.198 733.699L360.398 753.499H365.998L385.898 733.699H380.198Z" fill="#CFD2D3"/>
<path d="M491.098 753.5L502.398 742.2V736.5L485.398 753.5H491.098Z" fill="#CFD2D3"/>
<path d="M502.399 753.5V747.9L496.699 753.5H502.399Z" fill="#CFD2D3"/>
<path d="M265.499 733.699L254.199 744.999V750.699L271.199 733.699H265.499Z" fill="#CFD2D3"/>
<path d="M46 41H18V219.8H46V41Z" fill="#535656"/>
<path d="M35.8996 105.399V87.1992H22.5996V90.7992H32.5996C32.7996 90.7992 32.9996 90.9992 32.9996 91.1992V95.9992C32.9996 96.1992 32.7996 96.3992 32.5996 96.3992H22.5996V99.9992H32.5996C32.7996 99.9992 32.9996 100.199 32.9996 100.399V105.199C32.9996 105.399 32.7996 105.599 32.5996 105.599H22.5996V109.199H32.1996C34.2996 108.899 35.8996 107.399 35.8996 105.399Z" fill="#CFD2D3"/>
<path d="M25.8996 143.2C25.6996 143.2 25.4996 143 25.4996 142.8V134.2C25.4996 134 25.6996 133.8 25.8996 133.8H35.8996V130.5H26.2996C24.2996 130.5 22.5996 132.1 22.5996 134.1V143C22.5996 145 24.1996 146.6 26.2996 146.6H35.8996V143.3H25.8996V143.2Z" fill="#CFD2D3"/>
<path d="M35.9 80.3996V67.4996L33 68.5996V80.2996C33 80.4996 32.8 80.6996 32.6 80.6996H30.9V70.1996C30.9 68.1996 29.3 66.5996 27.2 66.5996H26.2C24.2 66.5996 22.5 68.1996 22.5 70.1996V83.9996H32.1C34.3 83.9996 35.9 82.3996 35.9 80.3996ZM25.5 80.5996V70.2996C25.5 70.0996 25.7 69.8996 25.9 69.8996H27.8C28 69.8996 28.2 70.0996 28.2 70.2996V80.5996H25.5Z" fill="#CFD2D3"/>
<path d="M35.8996 123.9V115.5H39.1996V111.9H22.5996V115.6V124C22.5996 126 24.1996 127.6 26.2996 127.6H32.1996C34.2996 127.5 35.8996 125.9 35.8996 123.9ZM25.8996 123.9C25.6996 123.9 25.4996 123.7 25.4996 123.5V115.5H32.9996V123.5C32.9996 123.7 32.7996 123.9 32.5996 123.9H25.8996Z" fill="#CFD2D3"/>
<path d="M28.0996 63.9C29.3996 63.8 30.4996 63.2 31.2996 62.2C31.9996 62.7 32.8996 63 33.8996 63.1C33.9996 63.1 34.8996 63.1 34.9996 63.1C37.7996 62.9 39.8996 60.2 39.8996 57C39.8996 57 39.8996 52.9 39.8996 49.7H36.8996L35.4996 46H22.5996V59.2C22.5996 59.2 22.5996 59.4 22.5996 59.5C22.7996 61.8 24.6996 63.7 27.0996 63.8C27.2996 63.9 27.8996 63.9 28.0996 63.9ZM36.8996 49.7V57.5C36.8996 57.7 36.7996 57.9 36.7996 58.2C36.4996 58.9 35.7996 59.5 34.8996 59.5C34.8996 59.5 34.5996 59.5 34.4996 59.5C33.7996 59.4 33.2996 59 33.0996 58.4C32.9996 58.1 32.8996 57.9 32.8996 57.6V49.9H36.8996V49.7ZM25.4996 58V49.7H29.8996V58C29.8996 59.2 28.8996 60.1 27.6996 60.1C26.4996 60.2 25.4996 59.2 25.4996 58Z" fill="#CFD2D3"/>
<path d="M39.9 49.6996H43.5L42 46.0996H38.5L39.9 49.6996Z" fill="#CFD2D3"/>
<path d="M25.7996 161.5H39.1996V157.9H22.5996V171.3L25.7996 170.1V161.5Z" fill="#CFD2D3"/>
<path d="M35.9 186.8V173.9L33 175V186.7C33 186.9 32.8 187.1 32.6 187.1H30.9V176.6C30.9 174.6 29.3 173 27.2 173H26.2C24.2 173 22.5 174.6 22.5 176.6V190.4H32.1C34.3 190.4 35.9 188.8 35.9 186.8ZM25.5 187.1V176.8C25.5 176.6 25.7 176.4 25.9 176.4H27.8C28 176.4 28.2 176.6 28.2 176.8V187.1H25.5Z" fill="#CFD2D3"/>
<path d="M35.8996 205.7V197.3H39.1996V197.2V193.6H22.5996V197.3V205.7C22.5996 207.7 24.1996 209.3 26.2996 209.3H32.1996C34.2996 209.3 35.8996 207.7 35.8996 205.7ZM25.8996 205.7C25.6996 205.7 25.4996 205.5 25.4996 205.3V197.3H32.9996V205.3C32.9996 205.5 32.7996 205.7 32.5996 205.7H25.8996Z" fill="#CFD2D3"/>
<path d="M254.199 733.699V739.399L259.899 733.699H254.199Z" fill="#CFD2D3"/>
</g>
<defs>
<clipPath id="clip0_4523_22675">
<rect width="732" height="760" fill="white"/>
</clipPath>
</defs>
</svg>
