<?xml version="1.0" encoding="UTF-8"?>
<!DOCTYPE svg PUBLIC "-//W3C//DTD SVG 1.0//EN" "http://www.w3.org/TR/2001/REC-SVG-20010904/DTD/svg10.dtd">
<!-- Creator: CorelDRAW -->
<svg xmlns="http://www.w3.org/2000/svg" xml:space="preserve" width="3549px" height="3549px" version="1.0" shape-rendering="geometricPrecision" text-rendering="geometricPrecision" image-rendering="optimizeQuality" fill-rule="evenodd" clip-rule="evenodd"
viewBox="0 0 3549 3549"
 xmlns:xlink="http://www.w3.org/1999/xlink"
 xmlns:xodm="http://www.corel.com/coreldraw/odm/2003">
 <g id="Layer_x0020_1">
  <metadata id="CorelCorpID_0Corel-Layer"/>
  <rect fill="none" stroke="white" stroke-width="5.91" stroke-miterlimit="22.9256" x="2.61" y="3.3" width="3543.09" height="3543.09"/>
  <line fill="none" stroke="white" stroke-width="1.18" stroke-linecap="round" stroke-linejoin="round" stroke-miterlimit="22.9256" x1="2.61" y1="121.4" x2="3545.7" y2= "121.4" />
  <line fill="none" stroke="white" stroke-width="1.18" stroke-linecap="round" stroke-linejoin="round" stroke-miterlimit="22.9256" x1="2.61" y1="239.5" x2="3545.7" y2= "239.5" />
  <line fill="none" stroke="white" stroke-width="1.18" stroke-linecap="round" stroke-linejoin="round" stroke-miterlimit="22.9256" x1="2.61" y1="357.61" x2="3545.7" y2= "357.61" />
  <line fill="none" stroke="white" stroke-width="1.18" stroke-linecap="round" stroke-linejoin="round" stroke-miterlimit="22.9256" x1="2.61" y1="475.71" x2="3545.7" y2= "475.71" />
  <line fill="none" stroke="white" stroke-width="5.91" stroke-linecap="round" stroke-linejoin="round" stroke-miterlimit="22.9256" x1="2.61" y1="593.81" x2="3545.7" y2= "593.81" />
  <line fill="none" stroke="white" stroke-width="1.18" stroke-linecap="round" stroke-linejoin="round" stroke-miterlimit="22.9256" x1="2.61" y1="711.92" x2="3545.7" y2= "711.92" />
  <line fill="none" stroke="white" stroke-width="1.18" stroke-linecap="round" stroke-linejoin="round" stroke-miterlimit="22.9256" x1="2.61" y1="830.02" x2="3545.7" y2= "830.02" />
  <line fill="none" stroke="white" stroke-width="1.18" stroke-linecap="round" stroke-linejoin="round" stroke-miterlimit="22.9256" x1="2.61" y1="948.12" x2="3545.7" y2= "948.12" />
  <line fill="none" stroke="white" stroke-width="1.18" stroke-linecap="round" stroke-linejoin="round" stroke-miterlimit="22.9256" x1="2.61" y1="1066.23" x2="3545.7" y2= "1066.23" />
  <line fill="none" stroke="white" stroke-width="5.91" stroke-linecap="round" stroke-linejoin="round" stroke-miterlimit="22.9256" x1="2.61" y1="1184.33" x2="3545.7" y2= "1184.33" />
  <line fill="none" stroke="white" stroke-width="1.18" stroke-linecap="round" stroke-linejoin="round" stroke-miterlimit="22.9256" x1="2.61" y1="1302.43" x2="3545.7" y2= "1302.43" />
  <line fill="none" stroke="white" stroke-width="1.18" stroke-linecap="round" stroke-linejoin="round" stroke-miterlimit="22.9256" x1="2.61" y1="1420.54" x2="3545.7" y2= "1420.54" />
  <line fill="none" stroke="white" stroke-width="1.18" stroke-linecap="round" stroke-linejoin="round" stroke-miterlimit="22.9256" x1="2.61" y1="1538.64" x2="3545.7" y2= "1538.64" />
  <line fill="none" stroke="white" stroke-width="1.18" stroke-linecap="round" stroke-linejoin="round" stroke-miterlimit="22.9256" x1="2.61" y1="1656.74" x2="3545.7" y2= "1656.74" />
  <line fill="none" stroke="white" stroke-width="5.91" stroke-linecap="round" stroke-linejoin="round" stroke-miterlimit="22.9256" x1="2.61" y1="1774.85" x2="3545.7" y2= "1774.85" />
  <line fill="none" stroke="white" stroke-width="1.18" stroke-linecap="round" stroke-linejoin="round" stroke-miterlimit="22.9256" x1="2.61" y1="1892.95" x2="3545.7" y2= "1892.95" />
  <line fill="none" stroke="white" stroke-width="1.18" stroke-linecap="round" stroke-linejoin="round" stroke-miterlimit="22.9256" x1="2.61" y1="2011.05" x2="3545.7" y2= "2011.05" />
  <line fill="none" stroke="white" stroke-width="1.18" stroke-linecap="round" stroke-linejoin="round" stroke-miterlimit="22.9256" x1="2.61" y1="2129.16" x2="3545.7" y2= "2129.16" />
  <line fill="none" stroke="white" stroke-width="1.18" stroke-linecap="round" stroke-linejoin="round" stroke-miterlimit="22.9256" x1="2.61" y1="2247.26" x2="3545.7" y2= "2247.26" />
  <line fill="none" stroke="white" stroke-width="5.91" stroke-linecap="round" stroke-linejoin="round" stroke-miterlimit="22.9256" x1="2.61" y1="2365.36" x2="3545.7" y2= "2365.36" />
  <line fill="none" stroke="white" stroke-width="1.18" stroke-linecap="round" stroke-linejoin="round" stroke-miterlimit="22.9256" x1="2.61" y1="2483.47" x2="3545.7" y2= "2483.47" />
  <line fill="none" stroke="white" stroke-width="1.18" stroke-linecap="round" stroke-linejoin="round" stroke-miterlimit="22.9256" x1="2.61" y1="2601.57" x2="3545.7" y2= "2601.57" />
  <line fill="none" stroke="white" stroke-width="1.18" stroke-linecap="round" stroke-linejoin="round" stroke-miterlimit="22.9256" x1="2.61" y1="2719.67" x2="3545.7" y2= "2719.67" />
  <line fill="none" stroke="white" stroke-width="1.18" stroke-linecap="round" stroke-linejoin="round" stroke-miterlimit="22.9256" x1="2.61" y1="2837.77" x2="3545.7" y2= "2837.77" />
  <line fill="none" stroke="white" stroke-width="5.91" stroke-linecap="round" stroke-linejoin="round" stroke-miterlimit="22.9256" x1="2.61" y1="2955.88" x2="3545.7" y2= "2955.88" />
  <line fill="none" stroke="white" stroke-width="1.18" stroke-linecap="round" stroke-linejoin="round" stroke-miterlimit="22.9256" x1="2.61" y1="3073.98" x2="3545.7" y2= "3073.98" />
  <line fill="none" stroke="white" stroke-width="1.18" stroke-linecap="round" stroke-linejoin="round" stroke-miterlimit="22.9256" x1="2.61" y1="3192.08" x2="3545.7" y2= "3192.08" />
  <line fill="none" stroke="white" stroke-width="1.18" stroke-linecap="round" stroke-linejoin="round" stroke-miterlimit="22.9256" x1="2.61" y1="3310.19" x2="3545.7" y2= "3310.19" />
  <line fill="none" stroke="white" stroke-width="1.18" stroke-linecap="round" stroke-linejoin="round" stroke-miterlimit="22.9256" x1="2.61" y1="3428.29" x2="1183.64" y2= "3428.29" />
  <line fill="none" stroke="white" stroke-width="1.18" stroke-linecap="round" stroke-linejoin="round" stroke-miterlimit="22.9256" x1="120.71" y1="3546.39" x2="120.71" y2= "3.3" />
  <line fill="none" stroke="white" stroke-width="1.18" stroke-linecap="round" stroke-linejoin="round" stroke-miterlimit="22.9256" x1="238.81" y1="3546.39" x2="238.81" y2= "3.3" />
  <line fill="none" stroke="white" stroke-width="1.18" stroke-linecap="round" stroke-linejoin="round" stroke-miterlimit="22.9256" x1="356.92" y1="3546.39" x2="356.92" y2= "3.3" />
  <line fill="none" stroke="white" stroke-width="1.18" stroke-linecap="round" stroke-linejoin="round" stroke-miterlimit="22.9256" x1="475.02" y1="3546.39" x2="475.02" y2= "3.3" />
  <line fill="none" stroke="white" stroke-width="5.91" stroke-linecap="round" stroke-linejoin="round" stroke-miterlimit="22.9256" x1="593.12" y1="3546.39" x2="593.12" y2= "3.3" />
  <line fill="none" stroke="white" stroke-width="1.18" stroke-linecap="round" stroke-linejoin="round" stroke-miterlimit="22.9256" x1="711.23" y1="3546.39" x2="711.23" y2= "3.3" />
  <line fill="none" stroke="white" stroke-width="1.18" stroke-linecap="round" stroke-linejoin="round" stroke-miterlimit="22.9256" x1="829.33" y1="3546.39" x2="829.33" y2= "3.3" />
  <line fill="none" stroke="white" stroke-width="1.18" stroke-linecap="round" stroke-linejoin="round" stroke-miterlimit="22.9256" x1="947.43" y1="3546.39" x2="947.43" y2= "3.3" />
  <line fill="none" stroke="white" stroke-width="1.18" stroke-linecap="round" stroke-linejoin="round" stroke-miterlimit="22.9256" x1="1065.53" y1="3546.39" x2="1065.53" y2= "3.3" />
  <line fill="none" stroke="white" stroke-width="5.91" stroke-linecap="round" stroke-linejoin="round" stroke-miterlimit="22.9256" x1="1183.64" y1="3546.39" x2="1183.64" y2= "3.3" />
  <line fill="none" stroke="white" stroke-width="1.18" stroke-linecap="round" stroke-linejoin="round" stroke-miterlimit="22.9256" x1="1301.74" y1="3310.19" x2="1301.74" y2= "3.3" />
  <line fill="none" stroke="white" stroke-width="1.18" stroke-linecap="round" stroke-linejoin="round" stroke-miterlimit="22.9256" x1="1419.84" y1="3310.19" x2="1419.84" y2= "3.3" />
  <line fill="none" stroke="white" stroke-width="1.18" stroke-linecap="round" stroke-linejoin="round" stroke-miterlimit="22.9256" x1="1537.95" y1="3310.19" x2="1537.95" y2= "3.3" />
  <line fill="none" stroke="white" stroke-width="1.18" stroke-linecap="round" stroke-linejoin="round" stroke-miterlimit="22.9256" x1="1656.05" y1="3310.19" x2="1656.05" y2= "3.3" />
  <line fill="none" stroke="white" stroke-width="5.91" stroke-linecap="round" stroke-linejoin="round" stroke-miterlimit="22.9256" x1="1774.15" y1="3310.19" x2="1774.15" y2= "3.3" />
  <line fill="none" stroke="white" stroke-width="1.18" stroke-linecap="round" stroke-linejoin="round" stroke-miterlimit="22.9256" x1="1892.26" y1="3310.19" x2="1892.26" y2= "3.3" />
  <line fill="none" stroke="white" stroke-width="1.18" stroke-linecap="round" stroke-linejoin="round" stroke-miterlimit="22.9256" x1="2010.36" y1="3310.19" x2="2010.36" y2= "3.3" />
  <line fill="none" stroke="white" stroke-width="1.18" stroke-linecap="round" stroke-linejoin="round" stroke-miterlimit="22.9256" x1="2128.46" y1="3310.19" x2="2128.46" y2= "3.3" />
  <line fill="none" stroke="white" stroke-width="1.18" stroke-linecap="round" stroke-linejoin="round" stroke-miterlimit="22.9256" x1="2246.57" y1="3310.19" x2="2246.57" y2= "3.3" />
  <line fill="none" stroke="white" stroke-width="5.91" stroke-linecap="round" stroke-linejoin="round" stroke-miterlimit="22.9256" x1="2364.67" y1="3546.39" x2="2364.67" y2= "3.3" />
  <line fill="none" stroke="white" stroke-width="1.18" stroke-linecap="round" stroke-linejoin="round" stroke-miterlimit="22.9256" x1="2482.77" y1="3546.39" x2="2482.77" y2= "3.3" />
  <line fill="none" stroke="white" stroke-width="1.18" stroke-linecap="round" stroke-linejoin="round" stroke-miterlimit="22.9256" x1="2600.88" y1="3546.39" x2="2600.88" y2= "3.3" />
  <line fill="none" stroke="white" stroke-width="1.18" stroke-linecap="round" stroke-linejoin="round" stroke-miterlimit="22.9256" x1="2718.98" y1="3546.39" x2="2718.98" y2= "3.3" />
  <line fill="none" stroke="white" stroke-width="1.18" stroke-linecap="round" stroke-linejoin="round" stroke-miterlimit="22.9256" x1="2837.08" y1="3546.39" x2="2837.08" y2= "3.3" />
  <line fill="none" stroke="white" stroke-width="5.91" stroke-linecap="round" stroke-linejoin="round" stroke-miterlimit="22.9256" x1="2955.19" y1="3546.39" x2="2955.19" y2= "3.3" />
  <line fill="none" stroke="white" stroke-width="1.18" stroke-linecap="round" stroke-linejoin="round" stroke-miterlimit="22.9256" x1="3073.29" y1="3546.39" x2="3073.29" y2= "3.3" />
  <line fill="none" stroke="white" stroke-width="1.18" stroke-linecap="round" stroke-linejoin="round" stroke-miterlimit="22.9256" x1="3191.39" y1="3546.39" x2="3191.39" y2= "3.3" />
  <line fill="none" stroke="white" stroke-width="1.18" stroke-linecap="round" stroke-linejoin="round" stroke-miterlimit="22.9256" x1="3309.5" y1="3546.39" x2="3309.5" y2= "3.3" />
  <line fill="none" stroke="white" stroke-width="1.18" stroke-linecap="round" stroke-linejoin="round" stroke-miterlimit="22.9256" x1="3427.6" y1="3546.39" x2="3427.6" y2= "3.3" />
  <line fill="none" stroke="white" stroke-width="1.18" stroke-miterlimit="22.9256" x1="2364.67" y1="3428.29" x2="3545.7" y2= "3428.29" />
  <g id="_105553362296960">
   <path fill="#F26E36" fill-rule="nonzero" d="M1681.56 3415.75c-0.31,-1.83 -0.92,-3.57 -1.91,-5.09 -0.98,-1.6 -2.2,-2.97 -3.64,-4.11 -1.45,-1.22 -3.12,-2.13 -4.95,-2.81 -1.82,-0.61 -3.72,-0.99 -5.77,-0.99 -3.65,0 -6.77,0.76 -9.36,2.13 -2.58,1.44 -4.63,3.34 -6.23,5.78 -1.6,2.35 -2.74,5.09 -3.5,8.13 -0.76,3.04 -1.06,6.23 -1.06,9.5 0,3.2 0.38,6.08 1.06,9.05 0.76,2.97 1.9,5.63 3.5,7.98 1.6,2.36 3.65,4.26 6.23,5.71 2.59,1.36 5.71,2.12 9.36,2.12 5.01,0 8.89,-1.59 11.7,-4.63 2.82,-3.12 4.57,-7.07 5.17,-12.02l15.82 0c-0.46,4.64 -1.52,8.82 -3.27,12.55 -1.75,3.72 -4.03,6.99 -6.84,9.58 -2.82,2.66 -6.16,4.71 -9.96,6.08 -3.88,1.45 -8.06,2.13 -12.62,2.13 -5.78,0 -10.88,-0.99 -15.36,-2.97 -4.56,-2.05 -8.37,-4.79 -11.48,-8.21 -3.12,-3.49 -5.55,-7.6 -7.15,-12.31 -1.67,-4.72 -2.51,-9.73 -2.51,-15.06 0,-5.39 0.84,-10.64 2.51,-15.43 1.67,-4.79 4.03,-8.9 7.15,-12.47 3.11,-3.5 6.92,-6.31 11.48,-8.29 4.48,-2.05 9.58,-3.04 15.36,-3.04 4.1,0 7.98,0.61 11.63,1.75 3.57,1.22 6.84,2.89 9.73,5.17 2.89,2.28 5.25,5.02 7.15,8.36 1.82,3.35 3.04,7.15 3.49,11.48l-15.81 0 0.08 -0.07z"/>
   <path fill="#F26E36" fill-rule="nonzero" d="M1756.75 3437.34c-0.69,2.97 -1.9,5.63 -3.5,7.98 -1.52,2.36 -3.65,4.26 -6.23,5.71 -2.51,1.36 -5.63,2.12 -9.36,2.12 -3.65,0 -6.76,-0.76 -9.35,-2.12 -2.51,-1.45 -4.64,-3.35 -6.23,-5.71 -1.6,-2.35 -2.74,-5.01 -3.5,-7.98 -0.68,-2.96 -1.06,-5.93 -1.06,-9.05 0,-3.27 0.38,-6.46 1.06,-9.5 0.76,-3.04 1.9,-5.78 3.5,-8.13 1.59,-2.44 3.65,-4.34 6.23,-5.78 2.59,-1.37 5.7,-2.13 9.35,-2.13 3.73,0 6.85,0.76 9.36,2.13 2.58,1.44 4.63,3.34 6.23,5.78 1.67,2.35 2.81,5.09 3.5,8.13 0.76,3.04 1.14,6.31 1.14,9.5 0,3.12 -0.38,6.16 -1.14,9.05zm14.97 -24.48c-1.67,-4.79 -4.1,-8.97 -7.22,-12.47 -3.12,-3.57 -6.92,-6.31 -11.4,-8.36 -4.56,-1.98 -9.66,-2.97 -15.44,-2.97 -5.7,0 -10.87,0.99 -15.35,2.97 -4.57,2.05 -8.37,4.79 -11.48,8.36 -3.12,3.5 -5.48,7.68 -7.15,12.47 -1.67,4.79 -2.51,9.88 -2.51,15.43 0,5.33 0.84,10.34 2.51,15.06 1.67,4.71 4.03,8.82 7.15,12.24 3.11,3.49 6.91,6.23 11.48,8.28 4.48,1.98 9.65,2.97 15.35,2.97 5.78,0 10.88,-0.99 15.44,-2.97 4.48,-2.05 8.28,-4.79 11.4,-8.28 3.12,-3.42 5.55,-7.53 7.22,-12.24 1.6,-4.72 2.44,-9.73 2.44,-15.06 0,-5.55 -0.76,-10.64 -2.44,-15.43z"/>
   <path fill="#F26E36" fill-rule="nonzero" d="M1823.8 3421.91c-1.9,1.67 -4.63,2.51 -8.36,2.51l-17.87 0 0 -20.91 17.87 0c3.73,0 6.46,0.83 8.36,2.43 1.9,1.6 2.89,4.11 2.89,7.83 0,3.8 -0.99,6.46 -2.89,8.14zm19.69 39.3c-0.38,-1.52 -0.68,-3.11 -0.83,-4.79 -0.23,-1.59 -0.31,-3.19 -0.38,-4.79 -0.08,-1.59 -0.15,-2.96 -0.23,-4.18 -0.15,-1.82 -0.38,-3.72 -0.76,-5.55 -0.38,-1.82 -0.99,-3.57 -1.82,-5.17 -0.84,-1.59 -1.91,-2.96 -3.2,-4.1 -1.37,-1.14 -3.04,-1.98 -5.02,-2.51l0 -0.23c4.19,-1.67 7.15,-4.11 8.98,-7.3 1.82,-3.19 2.73,-6.92 2.73,-11.33 0,-2.73 -0.45,-5.4 -1.44,-7.9 -1.07,-2.44 -2.51,-4.64 -4.41,-6.54 -1.9,-1.9 -4.18,-3.35 -6.85,-4.41 -2.65,-1.07 -5.7,-1.6 -8.97,-1.6l-40.06 0 0 74.2 16.34 0 0 -28.96 16.35 0c4.1,0 6.99,0.83 8.82,2.66 1.82,1.82 2.96,4.64 3.57,8.51 0.15,1.45 0.31,3.05 0.46,4.64 0.07,1.67 0.23,3.27 0.38,4.79 0.15,1.6 0.38,3.04 0.61,4.49 0.23,1.44 0.6,2.73 1.14,3.87l16.34 0c-0.83,-0.98 -1.37,-2.28 -1.75,-3.8z"/>
   <polygon fill="#F26E36" fill-rule="nonzero" points="1852.24,3390.81 1907.74,3390.81 1907.74,3404.57 1868.58,3404.57 1868.58,3420.46 1904.54,3420.46 1904.54,3433.16 1868.58,3433.16 1868.58,3451.33 1908.57,3451.33 1908.57,3465.09 1852.24,3465.09 "/>
  </g>
  <g id="_105553362398272">
   <path fill="white" fill-rule="nonzero" d="M1321.41 3418.64c-0.83,1.44 -1.9,2.51 -3.19,3.34 -1.29,0.76 -2.82,1.3 -4.56,1.6 -1.75,0.3 -3.58,0.46 -5.4,0.46l-12.7 0 0 -22.28 12.7 0c1.82,0 3.65,0.15 5.4,0.46 1.74,0.22 3.27,0.76 4.56,1.59 1.29,0.76 2.36,1.9 3.19,3.35 0.76,1.44 1.22,3.34 1.22,5.7 0,2.36 -0.46,4.26 -1.22,5.78zm15.59 -14.6c-0.92,-2.81 -2.44,-5.4 -4.49,-7.6 -2.05,-2.21 -4.71,-4.03 -7.91,-5.4 -3.27,-1.29 -7.22,-1.98 -11.86,-1.98l-33.52 0 0 74.28 16.34 0 0 -26.68 17.18 0c4.64,0 8.59,-0.61 11.86,-1.98 3.2,-1.37 5.86,-3.19 7.91,-5.4 2.05,-2.2 3.57,-4.71 4.49,-7.6 0.91,-2.81 1.44,-5.86 1.44,-8.82 0,-2.97 -0.53,-5.93 -1.44,-8.82z"/>
   <path fill="white" fill-rule="nonzero" d="M1385.5 3420.16c-1.9,1.67 -4.71,2.51 -8.36,2.51l-17.94 0 0 -20.91 17.94 0c3.65,0 6.46,0.76 8.36,2.43 1.9,1.6 2.89,4.11 2.89,7.83 0,3.8 -0.99,6.47 -2.89,8.14zm19.62 39.3c-0.38,-1.52 -0.61,-3.11 -0.84,-4.78 -0.15,-1.6 -0.3,-3.2 -0.3,-4.79 -0.08,-1.6 -0.16,-2.97 -0.23,-4.19 -0.15,-1.9 -0.38,-3.72 -0.76,-5.55 -0.38,-1.82 -0.99,-3.57 -1.83,-5.17 -0.83,-1.59 -1.9,-2.96 -3.26,-4.1 -1.3,-1.14 -2.97,-1.98 -4.95,-2.51l0 -0.23c4.11,-1.67 7.15,-4.1 8.97,-7.3 1.83,-3.19 2.74,-6.92 2.74,-11.33 0,-2.73 -0.53,-5.39 -1.52,-7.9 -0.99,-2.51 -2.43,-4.64 -4.33,-6.54 -1.9,-1.9 -4.18,-3.35 -6.84,-4.41 -2.67,-1.07 -5.71,-1.6 -9.05,-1.6l-39.99 0 0 74.21 16.34 0 0 -28.97 16.27 0c4.11,0 7.07,0.84 8.9,2.66 1.75,1.83 2.96,4.64 3.5,8.52 0.22,1.44 0.38,3.04 0.45,4.63 0.15,1.6 0.31,3.27 0.46,4.79 0.15,1.6 0.38,3.04 0.61,4.49 0.22,1.44 0.6,2.74 1.06,3.88l16.35 0c-0.76,-0.99 -1.3,-2.28 -1.75,-3.81z"/>
   <path fill="white" fill-rule="nonzero" d="M1476.13 3435.21c0,10.11 -2.82,17.56 -8.44,22.51 -5.63,4.94 -13.38,7.37 -23.27,7.37 -10.03,0 -17.86,-2.43 -23.34,-7.37 -5.55,-4.87 -8.28,-12.4 -8.28,-22.51l0 -46.15 16.34 0 0 46.23c0,1.97 0.15,3.95 0.54,5.93 0.3,1.9 1.06,3.65 2.12,5.17 1.14,1.52 2.66,2.73 4.64,3.65 1.98,0.91 4.64,1.37 7.98,1.37 5.86,0 9.81,-1.37 12.09,-3.96 2.21,-2.58 3.27,-6.61 3.27,-12.16l0 -46.23 16.35 0 0 46.23 0 -0.08z"/>
   <path fill="white" fill-rule="nonzero" d="M1497.26 3438.71c0,2.43 0.46,4.56 1.37,6.31 0.91,1.75 2.05,3.12 3.58,4.18 1.52,1.14 3.19,1.9 5.17,2.43 1.97,0.54 4.1,0.76 6.31,0.76 1.44,0 3.04,-0.07 4.71,-0.38 1.67,-0.22 3.19,-0.68 4.64,-1.37 1.52,-0.68 2.73,-1.67 3.65,-2.88 0.99,-1.22 1.44,-2.74 1.44,-4.64 0,-1.98 -0.61,-3.57 -1.9,-4.87 -1.29,-1.21 -2.96,-2.28 -5.02,-3.19 -2.13,-0.84 -4.48,-1.6 -7.07,-2.21 -2.66,-0.53 -5.32,-1.21 -8.06,-1.97 -2.73,-0.69 -5.47,-1.52 -8.06,-2.59 -2.66,-0.98 -5.01,-2.28 -7.07,-3.87 -2.13,-1.6 -3.8,-3.58 -5.09,-5.93 -1.29,-2.36 -1.9,-5.25 -1.9,-8.75 0,-3.8 0.84,-7.14 2.43,-9.96 1.6,-2.81 3.8,-5.09 6.39,-6.99 2.66,-1.9 5.62,-3.27 8.97,-4.18 3.34,-0.92 6.61,-1.3 9.96,-1.3 3.88,0 7.6,0.38 11.17,1.3 3.58,0.83 6.77,2.28 9.58,4.18 2.74,1.98 4.95,4.41 6.62,7.45 1.6,2.96 2.43,6.69 2.43,10.95l-15.81 0c-0.15,-2.21 -0.61,-4.03 -1.45,-5.48 -0.76,-1.44 -1.82,-2.58 -3.19,-3.42 -1.29,-0.83 -2.81,-1.44 -4.56,-1.82 -1.75,-0.31 -3.57,-0.46 -5.48,-0.46 -1.36,0 -2.66,0.08 -3.95,0.38 -1.37,0.31 -2.51,0.76 -3.57,1.45 -1.14,0.68 -1.98,1.59 -2.66,2.66 -0.76,1.06 -1.07,2.35 -1.07,3.87 0,1.52 0.23,2.67 0.84,3.58 0.53,0.91 1.67,1.75 3.27,2.43 1.59,0.76 3.88,1.52 6.76,2.28 2.89,0.84 6.62,1.83 11.26,2.97 0.91,0.22 2.13,0.53 3.57,0.91 1.44,0.38 2.97,0.91 4.64,1.52 1.59,0.68 3.27,1.52 4.86,2.58 1.68,0.99 3.12,2.29 4.49,3.81 1.37,1.52 2.43,3.34 3.27,5.47 0.83,2.13 1.29,4.56 1.29,7.37 0,3.35 -0.68,6.54 -1.98,9.43 -1.29,2.89 -3.27,5.48 -5.93,7.53 -2.58,2.13 -5.77,3.8 -9.65,5.02 -3.8,1.21 -8.29,1.82 -13.38,1.82 -4.11,0 -8.06,-0.53 -11.86,-1.6 -3.88,-0.98 -7.3,-2.58 -10.19,-4.71 -2.89,-2.2 -5.25,-4.94 -7,-8.29 -1.74,-3.27 -2.66,-7.22 -2.58,-11.86l15.81 0 0 0.08z"/>
   <path fill="white" fill-rule="nonzero" d="M1568.12 3434.6l9.66 -27.21 0.22 0 9.36 27.21 -19.24 0zm18.25 -45.54l-16.73 0 -28.2 74.28 16.57 0 5.78 -16.57 27.82 0 5.63 16.57 16.95 0 -27.82 -74.28z"/>
  </g>
  <g id="_105553362358720">
   <polygon fill="white" fill-rule="nonzero" points="2189.95,3390.74 2205.46,3390.74 2205.46,3451.79 2242.26,3451.79 2242.26,3465.09 2189.95,3465.09 "/>
   <path fill="white" fill-rule="nonzero" d="M1997.98 3410.58c-1.52,-2.36 -3.65,-4.26 -6.23,-5.7 -2.51,-1.37 -5.63,-2.13 -9.35,-2.13 -3.65,0 -6.77,0.76 -9.35,2.13 -2.59,1.44 -4.64,3.34 -6.24,5.7 -1.59,2.43 -2.74,5.17 -3.5,8.21 -0.68,3.04 -1.06,6.16 -1.06,9.43 0,3.11 0.38,6.16 1.06,9.12 0.76,2.97 1.91,5.63 3.5,7.98 1.6,2.36 3.73,4.26 6.24,5.63 2.58,1.44 5.7,2.13 9.35,2.13 3.72,0 6.84,-0.69 9.35,-2.13 2.58,-1.37 4.71,-3.27 6.23,-5.63 1.6,-2.35 2.82,-5.01 3.5,-7.98 0.76,-2.96 1.14,-6.01 1.14,-9.12 0,-3.12 -0.38,-6.39 -1.14,-9.43 -0.68,-3.04 -1.82,-5.78 -3.5,-8.21z"/>
   <path fill="white" fill-rule="nonzero" d="M2258 3467.05c0,5.09 -4.13,9.22 -9.22,9.22l-65.35 0c-5.09,0 -9.21,-4.13 -9.21,-9.22l0 -78.2c0,-5.09 4.12,-9.21 9.21,-9.21l65.35 0c5.09,0 9.22,4.12 9.22,9.21l0 78.2zm-102.34 -1.96l-56.41 0 0 -74.28 55.58 0 0 13.76 -39.23 0 0 15.89 36.04 0 0 12.7 -36.04 0 0 18.17 40.06 0 0 13.76zm-66.98 0l-16.34 0 -30.87 -49.72 -0.23 0 0 49.72 -15.28 0 0 -74.28 16.19 0 31.02 49.8 0.23 0 0 -49.8 15.28 0 0 74.28zm-72.22 -21.74c-1.68,4.71 -4.11,8.82 -7.23,12.24 -3.04,3.49 -6.91,6.23 -11.4,8.21 -4.56,2.05 -9.66,3.04 -15.43,3.04 -5.71,0 -10.87,-0.99 -15.36,-3.04 -4.56,-1.98 -8.36,-4.72 -11.48,-8.21 -3.12,-3.5 -5.47,-7.53 -7.15,-12.24 -1.67,-4.72 -2.51,-9.73 -2.51,-15.13 0,-5.48 0.84,-10.57 2.51,-15.36 1.68,-4.79 4.03,-8.97 7.15,-12.47 3.12,-3.57 6.92,-6.31 11.48,-8.36 4.49,-1.98 9.65,-2.97 15.36,-2.97 5.77,0 10.87,0.99 15.43,2.97 4.49,2.05 8.29,4.79 11.4,8.36 3.12,3.5 5.55,7.68 7.23,12.47 1.67,4.79 2.43,9.88 2.43,15.36 0,5.47 -0.84,10.41 -2.43,15.13zm233.02 -70.18l-307.15 0c-8.21,0 -14.98,6.69 -14.98,14.98l0 79.6c0,8.29 6.77,14.98 14.98,14.98l307.15 0c8.21,0 14.98,-6.69 14.98,-14.98l0 -79.6c0,-8.29 -6.77,-14.98 -14.98,-14.98z"/>
  </g>
 </g>
</svg>
