<?xml version="1.0" encoding="UTF-8" standalone="no"?>
<svg
   id="svg3128"
   width="710.10004"
   height="624.64417"
   viewBox="0 0 710.10006 624.64415"
   version="1.1"
   xml:space="preserve"
   sodipodi:docname="coreone_250x220.svg"
   inkscape:version="1.1 (c68e22c387, 2021-05-23)"
   xmlns:inkscape="http://www.inkscape.org/namespaces/inkscape"
   xmlns:sodipodi="http://sodipodi.sourceforge.net/DTD/sodipodi-0.dtd"
   xmlns="http://www.w3.org/2000/svg"
   xmlns:svg="http://www.w3.org/2000/svg"><sodipodi:namedview
     id="namedview93"
     pagecolor="#505050"
     bordercolor="#eeeeee"
     borderopacity="1"
     inkscape:pageshadow="0"
     inkscape:pageopacity="0"
     inkscape:pagecheckerboard="0"
     showgrid="false"
     inkscape:zoom="0.69879785"
     inkscape:cx="389.95541"
     inkscape:cy="404.2657"
     inkscape:window-width="1920"
     inkscape:window-height="1129"
     inkscape:window-x="-8"
     inkscape:window-y="-8"
     inkscape:window-maximized="1"
     inkscape:current-layer="svg3128" /><defs
     id="defs119"><clipPath
       clipPathUnits="userSpaceOnUse"
       id="clipPath121"><path
         d="M 0,683.556 H 720.393 V 0 H 0 Z"
         transform="translate(-422.26871,-18.997898)"
         id="path121" /></clipPath><clipPath
       clipPathUnits="userSpaceOnUse"
       id="clipPath123"><path
         d="M 0,683.556 H 720.393 V 0 H 0 Z"
         transform="translate(-415.25041,-14.8056)"
         id="path123" /></clipPath><clipPath
       clipPathUnits="userSpaceOnUse"
       id="clipPath125"><path
         d="M 0,683.556 H 720.393 V 0 H 0 Z"
         transform="translate(-262.33801,-23.423903)"
         id="path125" /></clipPath><clipPath
       clipPathUnits="userSpaceOnUse"
       id="clipPath127"><path
         d="M 0,683.556 H 720.393 V 0 H 0 Z"
         transform="translate(-276.75361,-23.730301)"
         id="path127" /></clipPath><clipPath
       clipPathUnits="userSpaceOnUse"
       id="clipPath129"><path
         d="M 0,683.556 H 720.393 V 0 H 0 Z"
         transform="translate(-303.22041,-20.880601)"
         id="path129" /></clipPath><clipPath
       clipPathUnits="userSpaceOnUse"
       id="clipPath131"><path
         d="M 0,683.556 H 720.393 V 0 H 0 Z"
         transform="translate(-308.00361,-20.103398)"
         id="path131" /></clipPath><clipPath
       clipPathUnits="userSpaceOnUse"
       id="clipPath133"><path
         d="M 0,683.556 H 720.393 V 0 H 0 Z"
         transform="translate(-324.03941,-21.021803)"
         id="path133" /></clipPath><clipPath
       clipPathUnits="userSpaceOnUse"
       id="clipPath135"><path
         d="M 0,683.556 H 720.393 V 0 H 0 Z"
         transform="translate(-350.61111,-25.685003)"
         id="path135" /></clipPath><clipPath
       clipPathUnits="userSpaceOnUse"
       id="clipPath137"><path
         d="M 0,683.556 H 720.393 V 0 H 0 Z"
         transform="translate(-358.75971,-22.858898)"
         id="path137" /></clipPath><clipPath
       clipPathUnits="userSpaceOnUse"
       id="clipPath139"><path
         d="M 0,683.556 H 720.393 V 0 H 0 Z"
         transform="translate(-376.88051,-23.730301)"
         id="path139" /></clipPath><clipPath
       clipPathUnits="userSpaceOnUse"
       id="clipPath141"><path
         d="M 0,683.556 H 720.393 V 0 H 0 Z"
         transform="translate(-389.25391,-31.337401)"
         id="path141" /></clipPath><clipPath
       clipPathUnits="userSpaceOnUse"
       id="clipPath6"><path
         d="M 0,114.52 H 114.52 V 0 H 0 Z"
         transform="translate(-35.267201,-32.161503)"
         id="path6" /></clipPath><clipPath
       clipPathUnits="userSpaceOnUse"
       id="clipPath4"><path
         d="M 0,114.52 H 114.52 V 0 H 0 Z"
         transform="translate(-61.726601,-60.946602)"
         id="path4" /></clipPath><clipPath
       clipPathUnits="userSpaceOnUse"
       id="clipPath2"><path
         d="M 0,114.52 H 114.52 V 0 H 0 Z"
         transform="translate(-70.093402,-32.743901)"
         id="path2" /></clipPath></defs><line
     id="line2794"
     x1="0.71597999"
     y1="1.0816071"
     x2="0.71597999"
     y2="623.92816"
     style="fill:none;stroke:#ffffff;stroke-width:1.43196;stroke-linecap:round;stroke-linejoin:round;stroke-dasharray:none" /><line
     id="line2796"
     x1="142.40959"
     y1="1.0816071"
     x2="142.40959"
     y2="623.50958"
     style="fill:none;stroke:#ffffff;stroke-width:1.43199px;stroke-linecap:round;stroke-linejoin:round" /><line
     id="line2798"
     x1="284.2016"
     y1="1.0246977"
     x2="284.2016"
     y2="567.26648"
     style="fill:none;stroke:#ffffff;stroke-width:1.36584px;stroke-linecap:round;stroke-linejoin:round" /><line
     id="line2800"
     x1="709.38403"
     y1="623.92816"
     x2="709.38403"
     y2="1.0816071"
     style="fill:none;stroke:#ffffff;stroke-width:1.43199px;stroke-linecap:round;stroke-linejoin:round" /><line
     id="line2802"
     x1="0.7100839"
     y1="596"
     x2="227.04564"
     y2="596"
     style="fill:none;stroke:#ffffff;stroke-width:1.3989;stroke-linecap:square;stroke-linejoin:round;stroke-miterlimit:4;stroke-dasharray:none" /><line
     id="line2802-8"
     x1="483.12857"
     y1="596.17096"
     x2="708.96826"
     y2="596.17096"
     style="fill:none;stroke:#ffffff;stroke-width:1.4;stroke-linecap:square;stroke-linejoin:round;stroke-miterlimit:4;stroke-dasharray:none" /><line
     id="line2806"
     x1="1.2000103"
     y1="454.30002"
     x2="709.40002"
     y2="454.30002"
     style="fill:none;stroke:#ffffff;stroke-width:1.4px;stroke-linecap:round;stroke-linejoin:round" /><line
     id="line2808"
     x1="1.2000103"
     y1="312.60001"
     x2="709.40002"
     y2="312.60001"
     style="fill:none;stroke:#ffffff;stroke-width:1.4px;stroke-linecap:round;stroke-linejoin:round" /><line
     id="line2810"
     x1="1.2000103"
     y1="170.8"
     x2="709.40002"
     y2="170.8"
     style="fill:none;stroke:#ffffff;stroke-width:1.4px;stroke-linecap:round;stroke-linejoin:round" /><line
     id="line2812"
     x1="1.2000103"
     y1="29.100002"
     x2="709.40002"
     y2="29.100002"
     style="fill:none;stroke:#ffffff;stroke-width:1.4px;stroke-linecap:round;stroke-linejoin:round" /><line
     id="line2814"
     x1="709.40002"
     y1="0.69999999"
     x2="0.70001024"
     y2="0.69999999"
     style="fill:none;stroke:#ffffff;stroke-width:1.4px;stroke-linecap:round;stroke-linejoin:round" /><line
     id="line2816"
     x1="425.92242"
     y1="1.1459428"
     x2="425.92242"
     y2="567.11206"
     style="fill:none;stroke:#ffffff;stroke-width:1.49174px;stroke-linecap:round;stroke-linejoin:round" /><line
     id="line2820"
     x1="567.63226"
     y1="1.2509574"
     x2="567.63226"
     y2="622.75647"
     style="fill:none;stroke:#ffffff;stroke-width:1.56321px;stroke-linecap:round;stroke-linejoin:round" /><line
     id="line2826"
     x1="85.812141"
     y1="1.0816071"
     x2="85.812141"
     y2="623.82355"
     style="fill:none;stroke:#ffffff;stroke-width:0.40914px;stroke-linecap:round;stroke-linejoin:round" /><line
     id="line2828"
     x1="114.11087"
     y1="1.0816071"
     x2="114.11087"
     y2="623.82355"
     style="fill:none;stroke:#ffffff;stroke-width:0.40914px;stroke-linecap:round;stroke-linejoin:round" /><line
     id="line2830"
     x1="170.80832"
     y1="1.0816071"
     x2="170.80832"
     y2="623.82355"
     style="fill:none;stroke:#ffffff;stroke-width:0.40914px;stroke-linecap:round;stroke-linejoin:round" /><line
     id="line2832"
     x1="199.10706"
     y1="1.0816071"
     x2="199.10706"
     y2="623.82355"
     style="fill:none;stroke:#ffffff;stroke-width:0.40914px;stroke-linecap:round;stroke-linejoin:round" /><line
     id="line2834"
     x1="227.50577"
     y1="1.0816071"
     x2="227.50577"
     y2="623.82355"
     style="fill:none;stroke:#ffffff;stroke-width:0.40914px;stroke-linecap:round;stroke-linejoin:round" /><line
     id="line2836"
     x1="255.80449"
     y1="1.0630002"
     x2="255.80449"
     y2="567.53357"
     style="fill:none;stroke:#ffffff;stroke-width:0.390217px;stroke-linecap:round;stroke-linejoin:round" /><line
     id="line2838"
     x1="312.47754"
     y1="1.0446645"
     x2="312.47754"
     y2="567.58325"
     style="fill:none;stroke:#ffffff;stroke-width:0.390326px;stroke-linecap:round;stroke-linejoin:round" /><line
     id="line2840"
     x1="340.88852"
     y1="1.0446645"
     x2="340.88852"
     y2="567.58325"
     style="fill:none;stroke:#ffffff;stroke-width:0.390326px;stroke-linecap:round;stroke-linejoin:round" /><line
     id="line2842"
     x1="680.98535"
     y1="1.0816071"
     x2="680.98535"
     y2="623.82355"
     style="fill:none;stroke:#ffffff;stroke-width:0.40914px;stroke-linecap:round;stroke-linejoin:round" /><line
     id="line2844"
     x1="29.1147"
     y1="1.0816071"
     x2="29.1147"
     y2="623.82355"
     style="fill:none;stroke:#ffffff;stroke-width:0.40914px;stroke-linecap:round;stroke-linejoin:round" /><line
     id="line2846"
     x1="57.413429"
     y1="1.0816071"
     x2="57.413429"
     y2="623.82355"
     style="fill:none;stroke:#ffffff;stroke-width:0.40914px;stroke-linecap:round;stroke-linejoin:round" /><line
     id="line2848"
     x1="1.5000103"
     y1="482.60001"
     x2="709.40002"
     y2="482.60001"
     style="fill:none;stroke:#ffffff;stroke-width:0.4px;stroke-linecap:round;stroke-linejoin:round" /><line
     id="line2850"
     x1="1.5000103"
     y1="511"
     x2="709.40002"
     y2="511"
     style="fill:none;stroke:#ffffff;stroke-width:0.4px;stroke-linecap:round;stroke-linejoin:round" /><line
     id="line2852"
     x1="1.5000103"
     y1="539.29999"
     x2="709.40002"
     y2="539.29999"
     style="fill:none;stroke:#ffffff;stroke-width:0.4px;stroke-linecap:round;stroke-linejoin:round" /><line
     id="line2854"
     x1="1.5000103"
     y1="567.70001"
     x2="709.40002"
     y2="567.70001"
     style="fill:none;stroke:#ffffff;stroke-width:0.4px;stroke-linecap:round;stroke-linejoin:round" /><line
     id="line2854-7"
     x1="1.5000103"
     y1="623.90002"
     x2="709.40002"
     y2="623.90002"
     style="fill:none;stroke:#ffffff;stroke-width:1.4;stroke-linecap:round;stroke-linejoin:round;stroke-dasharray:none" /><line
     id="line2856"
     x1="1.5000103"
     y1="425.90002"
     x2="709.40002"
     y2="425.90002"
     style="fill:none;stroke:#ffffff;stroke-width:0.4px;stroke-linecap:round;stroke-linejoin:round" /><line
     id="line2858"
     x1="1.5000103"
     y1="397.60001"
     x2="709.40002"
     y2="397.60001"
     style="fill:none;stroke:#ffffff;stroke-width:0.4px;stroke-linecap:round;stroke-linejoin:round" /><line
     id="line2860"
     x1="1.5000103"
     y1="369.20001"
     x2="709.40002"
     y2="369.20001"
     style="fill:none;stroke:#ffffff;stroke-width:0.4px;stroke-linecap:round;stroke-linejoin:round" /><line
     id="line2862"
     x1="1.5000103"
     y1="340.90002"
     x2="709.40002"
     y2="340.90002"
     style="fill:none;stroke:#ffffff;stroke-width:0.4px;stroke-linecap:round;stroke-linejoin:round" /><line
     id="line2864"
     x1="1.5000103"
     y1="284.20001"
     x2="709.40002"
     y2="284.20001"
     style="fill:none;stroke:#ffffff;stroke-width:0.4px;stroke-linecap:round;stroke-linejoin:round" /><line
     id="line2866"
     x1="1.5000103"
     y1="255.8"
     x2="709.40002"
     y2="255.8"
     style="fill:none;stroke:#ffffff;stroke-width:0.4px;stroke-linecap:round;stroke-linejoin:round" /><line
     id="line2868"
     x1="1.5000103"
     y1="227.5"
     x2="709.40002"
     y2="227.5"
     style="fill:none;stroke:#ffffff;stroke-width:0.4px;stroke-linecap:round;stroke-linejoin:round" /><line
     id="line2870"
     x1="1.5000103"
     y1="199.2"
     x2="709.40002"
     y2="199.2"
     style="fill:none;stroke:#ffffff;stroke-width:0.4px;stroke-linecap:round;stroke-linejoin:round" /><line
     id="line2872"
     x1="1.5000103"
     y1="142.5"
     x2="709.40002"
     y2="142.5"
     style="fill:none;stroke:#ffffff;stroke-width:0.4px;stroke-linecap:round;stroke-linejoin:round" /><line
     id="line2874"
     x1="1.5000103"
     y1="114.09999"
     x2="709.40002"
     y2="114.09999"
     style="fill:none;stroke:#ffffff;stroke-width:0.4px;stroke-linecap:round;stroke-linejoin:round" /><line
     id="line2876"
     x1="1.5000103"
     y1="85.799995"
     x2="709.40002"
     y2="85.799995"
     style="fill:none;stroke:#ffffff;stroke-width:0.4px;stroke-linecap:round;stroke-linejoin:round" /><line
     id="line2878"
     x1="1.5000103"
     y1="57.399998"
     x2="709.40002"
     y2="57.399998"
     style="fill:none;stroke:#ffffff;stroke-width:0.4px;stroke-linecap:round;stroke-linejoin:round" /><line
     id="line2880"
     x1="369.19958"
     y1="1.0677756"
     x2="369.19958"
     y2="567.58557"
     style="fill:none;stroke:#ffffff;stroke-width:0.416833px;stroke-linecap:round;stroke-linejoin:round" /><line
     id="line2884"
     x1="397.61011"
     y1="1.0809259"
     x2="397.61011"
     y2="567.65735"
     style="fill:none;stroke:#ffffff;stroke-width:0.426434px;stroke-linecap:round;stroke-linejoin:round" /><line
     id="line2888"
     x1="454.177"
     y1="1.0572188"
     x2="454.177"
     y2="567.38892"
     style="fill:none;stroke:#ffffff;stroke-width:0.426682;stroke-linecap:round;stroke-linejoin:round;stroke-dasharray:none" /><line
     id="line2892"
     x1="482.61209"
     y1="1.117534"
     x2="482.61209"
     y2="623.43823"
     style="fill:none;stroke:#ffffff;stroke-width:0.44687px;stroke-linecap:round;stroke-linejoin:round" /><line
     id="line2896"
     x1="510.91641"
     y1="1.117534"
     x2="510.91641"
     y2="623.43823"
     style="fill:none;stroke:#ffffff;stroke-width:0.44687px;stroke-linecap:round;stroke-linejoin:round" /><line
     id="line2900"
     x1="539.32092"
     y1="1.117534"
     x2="539.32092"
     y2="623.43823"
     style="fill:none;stroke:#ffffff;stroke-width:0.44687px;stroke-linecap:round;stroke-linejoin:round" /><line
     id="line2904"
     x1="595.95178"
     y1="1.1552095"
     x2="595.95178"
     y2="623.36298"
     style="fill:none;stroke:#ffffff;stroke-width:0.44691px;stroke-linecap:round;stroke-linejoin:round" /><line
     id="line2906"
     x1="624.26642"
     y1="1.1552095"
     x2="624.26642"
     y2="623.36298"
     style="fill:none;stroke:#ffffff;stroke-width:0.44691px;stroke-linecap:round;stroke-linejoin:round" /><line
     id="line2908"
     x1="652.68658"
     y1="1.1109135"
     x2="652.68658"
     y2="623.51703"
     style="fill:none;stroke:#ffffff;stroke-width:0.436853px;stroke-linecap:round;stroke-linejoin:round" /><path
     id="path120"
     d="M 0,0 C 0.361,0.533 0.624,1.134 0.789,1.802 0.954,2.469 1.036,3.156 1.036,3.862 1.036,4.6 0.954,5.314 0.789,6.005 0.624,6.696 0.361,7.313 0,7.854 -0.361,8.396 -0.832,8.828 -1.413,9.15 -1.994,9.471 -2.701,9.632 -3.533,9.632 -4.365,9.632 -5.071,9.471 -5.652,9.15 -6.233,8.828 -6.704,8.396 -7.065,7.854 -7.427,7.313 -7.689,6.696 -7.854,6.005 -8.019,5.314 -8.102,4.6 -8.102,3.862 c 0,-0.706 0.083,-1.393 0.248,-2.06 0.165,-0.668 0.427,-1.269 0.789,-1.802 0.361,-0.534 0.832,-0.962 1.413,-1.284 0.581,-0.322 1.287,-0.482 2.119,-0.482 0.832,0 1.539,0.16 2.12,0.482 C -0.832,-0.962 -0.361,-0.534 0,0"
     style="fill:#ffffff;fill-opacity:1;fill-rule:nonzero;stroke:none"
     transform="matrix(1.061059,0,0,-1.061059,420.81641,600.14683)"
     clip-path="url(#clipPath121)" /><path
     id="path122"
     d="m 0,0 c -1.021,0.455 -1.884,1.075 -2.591,1.86 -0.706,0.786 -1.248,1.712 -1.625,2.78 -0.377,1.067 -0.565,2.205 -0.565,3.415 0,1.24 0.188,2.402 0.565,3.485 0.377,1.084 0.919,2.026 1.625,2.826 0.707,0.801 1.57,1.429 2.591,1.884 1.021,0.456 2.182,0.683 3.486,0.683 1.303,0 2.465,-0.227 3.485,-0.683 1.021,-0.455 1.884,-1.083 2.591,-1.884 0.707,-0.8 1.248,-1.742 1.625,-2.826 0.377,-1.083 0.565,-2.245 0.565,-3.485 0,-1.21 -0.188,-2.348 -0.565,-3.415 C 10.81,3.572 10.269,2.646 9.562,1.86 8.855,1.075 7.992,0.455 6.971,0 5.951,-0.455 4.789,-0.683 3.486,-0.683 2.182,-0.683 1.021,-0.455 0,0 M 17.014,16.533 24.032,5.252 h 0.047 v 11.281 h 3.462 V -0.283 H 23.844 L 16.849,10.975 H 16.802 V -0.283 H 13.34 v 16.816 z m 25.501,0 V 13.424 H 33.637 V 9.821 h 8.148 V 6.948 H 33.637 V 2.826 h 9.067 V -0.283 H 29.939 V 16.533 Z M 46.901,-0.89 v 18.028 c 0,1.869 -1.515,3.385 -3.385,3.385 H -5.593 c -1.87,0 -3.385,-1.516 -3.385,-3.385 V -0.89 c 0,-1.87 1.515,-3.386 3.385,-3.386 h 49.109 c 1.87,0 3.385,1.516 3.385,3.386"
     style="fill:#ffffff;fill-opacity:1;fill-rule:nonzero;stroke:none"
     transform="matrix(1.061059,0,0,-1.061059,413.36958,604.59511)"
     clip-path="url(#clipPath123)" /><path
     id="path124"
     d="M 0,0 H 2.873 C 3.297,0 3.705,0.031 4.098,0.094 4.49,0.157 4.836,0.279 5.134,0.459 5.432,0.64 5.672,0.895 5.852,1.225 6.033,1.554 6.123,1.986 6.123,2.52 6.123,3.054 6.033,3.486 5.852,3.815 5.672,4.145 5.432,4.4 5.134,4.581 4.836,4.761 4.49,4.883 4.098,4.946 3.705,5.008 3.297,5.04 2.873,5.04 H 0 Z M -3.698,7.913 H 3.886 C 4.938,7.913 5.833,7.76 6.571,7.454 7.308,7.148 7.909,6.744 8.372,6.241 8.835,5.739 9.173,5.161 9.385,4.51 9.597,3.859 9.703,3.195 9.703,2.52 9.703,1.829 9.597,1.162 9.385,0.518 9.173,-0.126 8.835,-0.699 8.372,-1.201 7.909,-1.704 7.308,-2.108 6.571,-2.414 5.833,-2.72 4.938,-2.873 3.886,-2.873 H 0 v -6.029 h -3.698 z"
     style="fill:#ffffff;fill-opacity:1;fill-rule:nonzero;stroke:none"
     transform="matrix(1.061059,0,0,-1.061059,251.1205,595.45057)"
     clip-path="url(#clipPath125)" /><path
     id="path126"
     d="M 0,0 H 4.051 C 4.883,0 5.514,0.188 5.947,0.565 6.378,0.942 6.594,1.554 6.594,2.402 6.594,3.218 6.378,3.811 5.947,4.18 5.514,4.549 4.883,4.734 4.051,4.734 H 0 Z M -3.698,7.607 H 5.37 C 6.123,7.607 6.802,7.485 7.407,7.242 8.011,6.999 8.529,6.665 8.961,6.241 9.393,5.817 9.723,5.322 9.951,4.757 10.178,4.192 10.292,3.595 10.292,2.968 10.292,1.978 10.084,1.122 9.668,0.4 9.252,-0.322 8.573,-0.871 7.63,-1.248 v -0.047 c 0.456,-0.126 0.833,-0.318 1.131,-0.577 0.298,-0.259 0.542,-0.57 0.73,-0.931 0.189,-0.361 0.326,-0.75 0.412,-1.165 0.086,-0.417 0.145,-0.837 0.177,-1.261 0.015,-0.267 0.031,-0.581 0.047,-0.942 0.015,-0.361 0.043,-0.726 0.083,-1.095 0.039,-0.369 0.101,-0.726 0.188,-1.071 0.086,-0.346 0.216,-0.636 0.388,-0.872 H 7.089 C 6.979,-8.942 6.896,-8.648 6.842,-8.326 6.786,-8.004 6.739,-7.666 6.7,-7.313 6.661,-6.96 6.63,-6.599 6.606,-6.229 6.583,-5.861 6.547,-5.511 6.5,-5.181 6.374,-4.302 6.107,-3.659 5.699,-3.25 5.291,-2.842 4.624,-2.638 3.698,-2.638 H 0 v -6.571 h -3.698 z"
     style="fill:#ffffff;fill-opacity:1;fill-rule:nonzero;stroke:none"
     transform="matrix(1.061059,0,0,-1.061059,266.41631,595.12547)"
     clip-path="url(#clipPath127)" /><path
     id="path128"
     d="m 0,0 c 0,-2.277 -0.636,-3.973 -1.908,-5.087 -1.271,-1.115 -3.03,-1.672 -5.275,-1.672 -2.277,0 -4.039,0.553 -5.288,1.66 -1.248,1.107 -1.872,2.806 -1.872,5.099 v 10.457 h 3.698 V 0 c 0,-0.456 0.039,-0.903 0.118,-1.343 0.078,-0.439 0.243,-0.832 0.494,-1.177 0.251,-0.346 0.601,-0.62 1.048,-0.825 0.448,-0.204 1.048,-0.306 1.802,-0.306 1.319,0 2.229,0.295 2.732,0.884 0.502,0.588 0.753,1.511 0.753,2.767 V 10.457 H 0 Z"
     style="fill:#ffffff;fill-opacity:1;fill-rule:nonzero;stroke:none"
     transform="matrix(1.061059,0,0,-1.061059,294.49913,598.14917)"
     clip-path="url(#clipPath129)" /><path
     id="path130"
     d="m 0,0 c 0,-0.565 0.102,-1.045 0.306,-1.437 0.204,-0.392 0.475,-0.71 0.813,-0.954 0.337,-0.243 0.73,-0.424 1.177,-0.541 0.448,-0.118 0.923,-0.177 1.425,-0.177 0.33,0 0.683,0.027 1.06,0.083 0.377,0.054 0.73,0.16 1.06,0.317 0.33,0.157 0.604,0.373 0.824,0.648 0.22,0.275 0.33,0.624 0.33,1.048 0,0.456 -0.146,0.825 -0.436,1.107 C 6.268,0.377 5.888,0.616 5.417,0.812 4.946,1.008 4.412,1.174 3.815,1.307 3.219,1.44 2.614,1.593 2.002,1.766 1.374,1.923 0.762,2.116 0.165,2.343 -0.432,2.571 -0.966,2.865 -1.437,3.227 -1.908,3.588 -2.288,4.035 -2.579,4.569 -2.87,5.102 -3.015,5.762 -3.015,6.547 c 0,0.864 0.185,1.614 0.554,2.249 0.369,0.636 0.851,1.166 1.448,1.59 0.597,0.424 1.272,0.738 2.026,0.942 0.753,0.204 1.507,0.306 2.261,0.306 0.879,0 1.723,-0.098 2.531,-0.294 C 6.614,11.144 7.332,10.825 7.96,10.386 8.588,9.946 9.087,9.385 9.456,8.702 9.825,8.019 10.01,7.191 10.01,6.218 H 6.43 C 6.398,6.72 6.292,7.136 6.112,7.466 5.931,7.796 5.691,8.055 5.393,8.243 5.095,8.431 4.749,8.564 4.357,8.643 3.965,8.722 3.548,8.761 3.109,8.761 2.81,8.761 2.512,8.73 2.214,8.667 1.915,8.604 1.644,8.494 1.401,8.337 1.158,8.18 0.958,7.98 0.801,7.736 0.644,7.493 0.565,7.199 0.565,6.854 0.565,6.524 0.628,6.257 0.754,6.053 0.879,5.849 1.126,5.664 1.496,5.499 1.864,5.334 2.375,5.161 3.026,4.981 3.678,4.801 4.53,4.577 5.582,4.31 5.786,4.263 6.053,4.196 6.382,4.11 6.712,4.023 7.061,3.905 7.43,3.756 7.799,3.607 8.168,3.415 8.538,3.179 8.906,2.944 9.244,2.653 9.55,2.308 9.856,1.962 10.103,1.55 10.292,1.071 c 0.188,-0.478 0.283,-1.032 0.283,-1.66 0,-0.769 -0.15,-1.484 -0.448,-2.143 C 9.829,-3.391 9.385,-3.961 8.797,-4.44 8.208,-4.919 7.478,-5.295 6.606,-5.57 5.735,-5.844 4.726,-5.982 3.58,-5.982 c -0.927,0 -1.825,0.118 -2.697,0.353 -0.871,0.236 -1.637,0.597 -2.296,1.083 -0.66,0.487 -1.189,1.107 -1.59,1.861 -0.4,0.754 -0.593,1.649 -0.577,2.685 z"
     style="fill:#ffffff;fill-opacity:1;fill-rule:nonzero;stroke:none"
     transform="matrix(1.061059,0,0,-1.061059,299.57439,598.97382)"
     clip-path="url(#clipPath131)" /><path
     id="path132"
     d="M 0,0 H 4.357 L 2.237,6.171 H 2.19 Z M 0.353,10.316 H 4.145 L 10.434,-6.5 H 6.594 L 5.323,-2.755 H -0.966 L -2.284,-6.5 h -3.745 z"
     style="fill:#ffffff;fill-opacity:1;fill-rule:nonzero;stroke:none"
     transform="matrix(1.061059,0,0,-1.061059,316.58932,597.99935)"
     clip-path="url(#clipPath133)" /><path
     id="path134"
     d="m 0,0 c -0.063,0.424 -0.204,0.813 -0.424,1.166 -0.22,0.353 -0.495,0.663 -0.824,0.93 -0.33,0.267 -0.703,0.475 -1.119,0.624 -0.416,0.149 -0.852,0.224 -1.307,0.224 -0.833,0 -1.539,-0.161 -2.12,-0.483 C -6.375,2.139 -6.846,1.708 -7.207,1.166 -7.568,0.624 -7.831,0.008 -7.996,-0.683 c -0.165,-0.691 -0.247,-1.405 -0.247,-2.143 0,-0.707 0.082,-1.394 0.247,-2.061 0.165,-0.667 0.428,-1.268 0.789,-1.801 0.361,-0.535 0.832,-0.963 1.413,-1.284 0.581,-0.322 1.287,-0.483 2.12,-0.483 1.13,0 2.014,0.349 2.65,1.048 0.635,0.698 1.024,1.605 1.165,2.72 h 3.58 C 3.627,-5.739 3.383,-6.688 2.991,-7.537 2.598,-8.384 2.08,-9.107 1.437,-9.703 0.793,-10.3 0.039,-10.759 -0.824,-11.081 c -0.864,-0.322 -1.814,-0.483 -2.85,-0.483 -1.303,0 -2.465,0.228 -3.486,0.683 -1.02,0.455 -1.884,1.076 -2.591,1.861 -0.706,0.785 -1.248,1.711 -1.624,2.779 -0.377,1.067 -0.566,2.206 -0.566,3.415 0,1.24 0.189,2.402 0.566,3.486 0.376,1.083 0.918,2.025 1.624,2.826 0.707,0.801 1.571,1.428 2.591,1.884 1.021,0.455 2.183,0.683 3.486,0.683 0.926,0 1.801,-0.134 2.626,-0.401 C -0.224,5.385 0.514,4.997 1.166,4.487 1.817,3.976 2.355,3.345 2.779,2.591 3.203,1.837 3.47,0.973 3.58,0 Z"
     style="fill:#ed6c21;fill-opacity:1;fill-rule:nonzero;stroke:none"
     transform="matrix(1.061059,0,0,-1.061059,344.78346,593.05141)"
     clip-path="url(#clipPath135)" /><path
     id="path136"
     d="m 0,0 c 0,-0.707 0.082,-1.394 0.247,-2.061 0.165,-0.667 0.428,-1.268 0.789,-1.801 0.361,-0.534 0.832,-0.962 1.413,-1.284 0.581,-0.322 1.287,-0.483 2.12,-0.483 0.832,0 1.539,0.161 2.12,0.483 0.58,0.322 1.051,0.75 1.413,1.284 0.361,0.533 0.624,1.134 0.789,1.801 C 9.055,-1.394 9.138,-0.707 9.138,0 9.138,0.738 9.055,1.452 8.891,2.143 8.726,2.834 8.463,3.45 8.102,3.992 7.74,4.534 7.269,4.965 6.689,5.287 6.108,5.609 5.401,5.77 4.569,5.77 3.736,5.77 3.03,5.609 2.449,5.287 1.868,4.965 1.397,4.534 1.036,3.992 0.675,3.45 0.412,2.834 0.247,2.143 0.082,1.452 0,0.738 0,0 m -3.697,0 c 0,1.24 0.188,2.402 0.565,3.486 0.377,1.083 0.918,2.025 1.625,2.826 0.706,0.801 1.57,1.428 2.59,1.884 1.021,0.455 2.183,0.683 3.486,0.683 1.303,0 2.465,-0.228 3.486,-0.683 C 9.075,7.74 9.939,7.113 10.645,6.312 11.352,5.511 11.894,4.569 12.27,3.486 12.647,2.402 12.836,1.24 12.836,0 12.836,-1.209 12.647,-2.348 12.27,-3.415 11.894,-4.483 11.352,-5.409 10.645,-6.194 9.939,-6.979 9.075,-7.599 8.055,-8.055 7.034,-8.51 5.872,-8.738 4.569,-8.738 c -1.303,0 -2.465,0.228 -3.486,0.683 -1.02,0.456 -1.884,1.076 -2.59,1.861 -0.707,0.785 -1.248,1.711 -1.625,2.779 -0.377,1.067 -0.565,2.206 -0.565,3.415"
     style="fill:#ed6c21;fill-opacity:1;fill-rule:nonzero;stroke:none"
     transform="matrix(1.061059,0,0,-1.061059,353.42961,596.05008)"
     clip-path="url(#clipPath137)" /><path
     id="path138"
     d="M 0,0 H 4.051 C 4.883,0 5.514,0.188 5.947,0.565 6.378,0.942 6.594,1.554 6.594,2.402 6.594,3.218 6.378,3.811 5.947,4.18 5.514,4.549 4.883,4.734 4.051,4.734 H 0 Z M -3.698,7.607 H 5.37 C 6.123,7.607 6.802,7.485 7.407,7.242 8.011,6.999 8.529,6.665 8.961,6.241 9.393,5.817 9.723,5.322 9.951,4.757 10.178,4.192 10.292,3.595 10.292,2.968 10.292,1.978 10.084,1.122 9.668,0.4 9.252,-0.322 8.573,-0.871 7.63,-1.248 v -0.047 c 0.456,-0.126 0.833,-0.318 1.131,-0.577 0.298,-0.259 0.542,-0.57 0.73,-0.931 0.189,-0.361 0.326,-0.75 0.412,-1.165 0.086,-0.417 0.145,-0.837 0.177,-1.261 0.015,-0.267 0.031,-0.581 0.047,-0.942 0.015,-0.361 0.043,-0.726 0.083,-1.095 0.039,-0.369 0.101,-0.726 0.188,-1.071 0.086,-0.346 0.216,-0.636 0.388,-0.872 H 7.089 C 6.979,-8.942 6.896,-8.648 6.842,-8.326 6.786,-8.004 6.739,-7.666 6.7,-7.313 6.661,-6.96 6.63,-6.599 6.606,-6.229 6.583,-5.861 6.547,-5.511 6.5,-5.181 6.374,-4.302 6.107,-3.659 5.699,-3.25 5.291,-2.842 4.624,-2.638 3.698,-2.638 H 0 v -6.571 h -3.698 z"
     style="fill:#ed6c21;fill-opacity:1;fill-rule:nonzero;stroke:none"
     transform="matrix(1.061059,0,0,-1.061059,372.65686,595.12547)"
     clip-path="url(#clipPath139)" /><path
     id="path140"
     d="M 0,0 H 12.577 V -3.109 H 3.698 v -3.603 h 8.148 V -9.585 H 3.698 v -4.122 h 9.067 v -3.109 H 0 Z"
     style="fill:#ed6c21;fill-opacity:1;fill-rule:nonzero;stroke:none"
     transform="matrix(1.061059,0,0,-1.061059,385.78576,587.05389)"
     clip-path="url(#clipPath141)" /></svg>
