<?xml version="1.0" encoding="UTF-8"?><svg id="a" xmlns="http://www.w3.org/2000/svg" width="710.1" height="624.64" viewBox="0 0 710.1 624.64"><line id="b" x1=".72" y1="1.08" x2=".72" y2="623.93" style="fill:none; stroke:#fff; stroke-linecap:round; stroke-linejoin:round; stroke-width:1.43px;"/><line id="c" x1="709.38" y1="623.93" x2="709.38" y2="1.08" style="fill:none; stroke:#fff; stroke-linecap:round; stroke-linejoin:round; stroke-width:1.43px;"/><path d="M142.41,1.08v622.43M284.2,1.02v566.24M.71,596h226.34M483.13,596.17h225.84M1.2,454.3h708.2M1.2,312.6h708.2M1.2,170.8h708.2M1.2,29.1h708.2M709.4.7H.7M425.92,1.15v565.97M567.63,1.25v621.51M1.5,623.9h707.9" style="fill:none; stroke:#fff; stroke-linecap:round; stroke-linejoin:round; stroke-width:1.43px;"/><path d="M85.81,1.08v622.74M114.11,1.08v622.74M170.81,1.08v622.74M199.11,1.08v622.74M227.51,1.08v622.74M255.8,1.06v566.47M312.48,1.04v566.54M340.89,1.04v566.54M680.99,1.08v622.74M29.11,1.08v622.74M57.41,1.08v622.74M1.5,482.6h707.9M1.5,511h707.9M1.5,539.3h707.9M1.5,567.7h707.9M1.5,425.9h707.9M1.5,397.6h707.9M1.5,369.2h707.9M1.5,340.9h707.9M1.5,284.2h707.9M1.5,255.8h707.9M1.5,227.5h707.9M1.5,199.2h707.9M1.5,142.5h707.9M1.5,114.1h707.9M1.5,85.8h707.9M1.5,57.4h707.9M369.2,1.07v566.52M397.61,1.08v566.58M454.18,1.06v566.33M482.61,1.12v622.32M510.92,1.12v622.32M539.32,1.12v622.32M595.95,1.16v622.21M624.27,1.16v622.21M652.69,1.11v622.41" style="fill:none; stroke:#fff; stroke-linecap:round; stroke-linejoin:round; stroke-width:.41px;"/><path d="M420.82,600.15c.38-.57.66-1.2.84-1.91.18-.71.26-1.44.26-2.19s-.09-1.54-.26-2.27c-.18-.73-.45-1.39-.84-1.96-.38-.58-.88-1.03-1.5-1.38-.62-.34-1.37-.51-2.25-.51s-1.63.17-2.25.51c-.62.34-1.12.8-1.5,1.38-.38.57-.66,1.23-.84,1.96s-.26,1.49-.26,2.27.09,1.48.26,2.19c.18.71.45,1.35.84,1.91.38.57.88,1.02,1.5,1.36s1.37.51,2.25.51,1.63-.17,2.25-.51c.62-.34,1.12-.8,1.5-1.36M413.37,604.6c-1.08-.48-2-1.14-2.75-1.97-.75-.83-1.32-1.82-1.72-2.95-.4-1.13-.6-2.34-.6-3.62s.2-2.55.6-3.7c.4-1.15.98-2.15,1.72-3,.75-.85,1.67-1.52,2.75-2,1.08-.48,2.32-.72,3.7-.72s2.62.24,3.7.72c1.08.48,2,1.15,2.75,2,.75.85,1.32,1.85,1.72,3,.4,1.15.6,2.38.6,3.7s-.2,2.49-.6,3.62c-.4,1.13-.97,2.12-1.72,2.95-.75.83-1.67,1.49-2.75,1.97-1.08.48-2.32.72-3.7.72s-2.62-.24-3.7-.72M431.42,587.05l7.45,11.97h.05v-11.97h3.67v17.84h-3.92l-7.42-11.95h-.05v11.95h-3.67v-17.84h3.9ZM458.48,587.05v3.3h-9.42v3.82h8.65v3.05h-8.65v4.37h9.62v3.3h-13.54v-17.84h13.34ZM463.13,605.54v-19.13c0-1.98-1.61-3.59-3.59-3.59h-52.11c-1.98,0-3.59,1.61-3.59,3.59v19.13c0,1.98,1.61,3.59,3.59,3.59h52.11c1.98,0,3.59-1.61,3.59-3.59" style="fill:#fff;"/><path d="M251.12,595.45h3.05c.45,0,.88-.03,1.3-.1.42-.07.78-.2,1.1-.39.32-.19.57-.46.76-.81.19-.35.29-.81.29-1.37s-.1-1.02-.29-1.37c-.19-.35-.45-.62-.76-.81-.32-.19-.68-.32-1.1-.39-.42-.07-.85-.1-1.3-.1h-3.05v5.35ZM247.2,587.05h8.05c1.12,0,2.07.16,2.85.49.78.32,1.42.75,1.91,1.29.49.53.85,1.15,1.07,1.84.22.69.34,1.4.34,2.11s-.11,1.44-.34,2.12c-.22.68-.58,1.29-1.07,1.82-.49.53-1.13.96-1.91,1.29-.78.32-1.73.49-2.85.49h-4.12v6.4h-3.92v-17.84ZM266.42,595.13h4.3c.88,0,1.55-.2,2.01-.6.46-.4.69-1.05.69-1.95s-.23-1.5-.69-1.89c-.46-.39-1.13-.59-2.01-.59h-4.3v5.02ZM262.49,587.05h9.62c.8,0,1.52.13,2.16.39.64.26,1.19.61,1.65,1.06.46.45.81.98,1.05,1.57.24.6.36,1.23.36,1.9,0,1.05-.22,1.96-.66,2.72-.44.77-1.16,1.35-2.16,1.75v.05c.48.13.88.34,1.2.61.32.27.58.6.77.99.2.38.35.8.44,1.24.09.44.15.89.19,1.34.02.28.03.62.05,1,.02.38.05.77.09,1.16.04.39.11.77.2,1.14.09.37.23.67.41.93h-3.92c-.12-.28-.2-.6-.26-.94-.06-.34-.11-.7-.15-1.07-.04-.37-.07-.76-.1-1.15-.02-.39-.06-.76-.11-1.11-.13-.93-.42-1.61-.85-2.05-.43-.43-1.14-.65-2.12-.65h-3.92v6.97h-3.92v-17.84ZM294.5,598.15c0,2.42-.67,4.22-2.02,5.4-1.35,1.18-3.22,1.77-5.6,1.77s-4.29-.59-5.61-1.76c-1.32-1.17-1.99-2.98-1.99-5.41v-11.1h3.92v11.1c0,.48.04.96.13,1.43.08.47.26.88.52,1.25.27.37.64.66,1.11.88.48.22,1.11.32,1.91.32,1.4,0,2.37-.31,2.9-.94.53-.62.8-1.6.8-2.94v-11.1h3.92v11.1ZM299.57,598.97c0,.6.11,1.11.32,1.52.22.42.5.75.86,1.01.36.26.77.45,1.25.57.48.13.98.19,1.51.19.35,0,.72-.03,1.12-.09.4-.06.77-.17,1.12-.34.35-.17.64-.4.87-.69.23-.29.35-.66.35-1.11,0-.48-.15-.88-.46-1.17-.31-.3-.71-.55-1.21-.76-.5-.21-1.07-.38-1.7-.53-.63-.14-1.27-.3-1.92-.49-.67-.17-1.32-.37-1.95-.61-.63-.24-1.2-.55-1.7-.94-.5-.38-.9-.86-1.21-1.42-.31-.57-.46-1.27-.46-2.1,0-.92.2-1.71.59-2.39.39-.67.9-1.24,1.54-1.69.63-.45,1.35-.78,2.15-1,.8-.22,1.6-.32,2.4-.32.93,0,1.83.1,2.69.31.86.21,1.62.55,2.29,1.01.67.47,1.2,1.06,1.59,1.79.39.72.59,1.6.59,2.64h-3.8c-.03-.53-.15-.97-.34-1.32-.19-.35-.45-.62-.76-.82-.32-.2-.68-.34-1.1-.42-.42-.08-.86-.13-1.32-.13-.32,0-.63.03-.95.1-.32.07-.6.18-.86.35-.26.17-.47.38-.64.64-.17.26-.25.57-.25.94s.07.63.2.85c.13.22.39.41.79.59.39.18.93.36,1.62.55.69.19,1.6.43,2.71.71.22.05.5.12.85.21.35.09.72.22,1.11.38s.78.36,1.18.61c.39.25.75.56,1.07.92.32.37.59.8.79,1.31.2.51.3,1.1.3,1.76,0,.82-.16,1.57-.48,2.27-.32.7-.79,1.3-1.41,1.81-.62.51-1.4.91-2.32,1.2-.92.29-1.99.44-3.21.44-.98,0-1.94-.13-2.86-.37-.92-.25-1.74-.63-2.44-1.15-.7-.52-1.26-1.17-1.69-1.97-.42-.8-.63-1.75-.61-2.85h3.8ZM316.59,598h4.62l-2.25-6.55h-.05l-2.32,6.55ZM316.96,587.05h4.02l6.67,17.84h-4.07l-1.35-3.97h-6.67l-1.4,3.97h-3.97l6.77-17.84Z" style="fill:#fff;"/><path d="M344.78,593.05c-.07-.45-.22-.86-.45-1.24-.23-.37-.53-.7-.87-.99-.35-.28-.75-.5-1.19-.66-.44-.16-.9-.24-1.39-.24-.88,0-1.63.17-2.25.51s-1.12.8-1.5,1.37c-.38.58-.66,1.23-.84,1.96-.18.73-.26,1.49-.26,2.27s.09,1.48.26,2.19c.18.71.45,1.35.84,1.91.38.57.88,1.02,1.5,1.36.62.34,1.37.51,2.25.51,1.2,0,2.14-.37,2.81-1.11.67-.74,1.09-1.7,1.24-2.89h3.8c-.1,1.12-.36,2.12-.77,3.02-.42.9-.97,1.67-1.65,2.3-.68.63-1.48,1.12-2.4,1.46-.92.34-1.92.51-3.02.51-1.38,0-2.62-.24-3.7-.72-1.08-.48-2-1.14-2.75-1.97-.75-.83-1.32-1.82-1.72-2.95-.4-1.13-.6-2.34-.6-3.62s.2-2.55.6-3.7c.4-1.15.97-2.15,1.72-3,.75-.85,1.67-1.52,2.75-2,1.08-.48,2.32-.72,3.7-.72.98,0,1.91.14,2.79.43.87.28,1.66.69,2.35,1.24.69.54,1.26,1.21,1.71,2.01.45.8.73,1.72.85,2.75h-3.8ZM353.43,596.05c0,.75.09,1.48.26,2.19.18.71.45,1.35.84,1.91.38.57.88,1.02,1.5,1.36s1.37.51,2.25.51,1.63-.17,2.25-.51c.62-.34,1.12-.8,1.5-1.36.38-.57.66-1.2.84-1.91.17-.71.26-1.44.26-2.19s-.09-1.54-.26-2.27c-.18-.73-.45-1.39-.84-1.96-.38-.58-.88-1.03-1.5-1.37-.62-.34-1.37-.51-2.25-.51s-1.63.17-2.25.51c-.62.34-1.12.8-1.5,1.37-.38.58-.66,1.23-.84,1.96-.18.73-.26,1.49-.26,2.27M349.51,596.05c0-1.32.2-2.55.6-3.7.4-1.15.97-2.15,1.72-3,.75-.85,1.67-1.52,2.75-2,1.08-.48,2.32-.72,3.7-.72s2.62.24,3.7.72c1.08.48,2,1.15,2.75,2,.75.85,1.33,1.85,1.72,3,.4,1.15.6,2.38.6,3.7s-.2,2.49-.6,3.62c-.4,1.13-.97,2.12-1.72,2.95-.75.83-1.67,1.49-2.75,1.97-1.08.48-2.32.72-3.7.72s-2.62-.24-3.7-.72c-1.08-.48-2-1.14-2.75-1.97-.75-.83-1.32-1.82-1.72-2.95-.4-1.13-.6-2.34-.6-3.62M372.66,595.13h4.3c.88,0,1.55-.2,2.01-.6.46-.4.69-1.05.69-1.95s-.23-1.5-.69-1.89c-.46-.39-1.13-.59-2.01-.59h-4.3v5.02ZM368.73,587.05h9.62c.8,0,1.52.13,2.16.39.64.26,1.19.61,1.65,1.06.46.45.81.98,1.05,1.57.24.6.36,1.23.36,1.9,0,1.05-.22,1.96-.66,2.72-.44.77-1.16,1.35-2.16,1.75v.05c.48.13.88.34,1.2.61.32.27.58.6.77.99.2.38.35.8.44,1.24.09.44.15.89.19,1.34.02.28.03.62.05,1,.02.38.05.77.09,1.16.04.39.11.77.2,1.14.09.37.23.67.41.93h-3.92c-.12-.28-.2-.6-.26-.94-.06-.34-.11-.7-.15-1.07-.04-.37-.07-.76-.1-1.15-.02-.39-.06-.76-.11-1.11-.13-.93-.42-1.61-.85-2.05-.43-.43-1.14-.65-2.12-.65h-3.92v6.97h-3.92v-17.84ZM385.79,587.05h13.34v3.3h-9.42v3.82h8.65v3.05h-8.65v4.37h9.62v3.3h-13.54v-17.84Z" style="fill:#ed6c21;"/></svg>