<?xml version="1.0" encoding="UTF-8"?><svg id="a" xmlns="http://www.w3.org/2000/svg" width="512" height="512" viewBox="0 0 512 512"><path d="M277.85,489.47c4.6,0,7.4,2.8,7.4,8.1s-2.9,8.1-7.4,8.1-7.4-2.9-7.4-8.1,3-8.1,7.4-8.1ZM281.55,497.57c0-3.8-1.5-5.7-3.7-5.7s-3.8,1.9-3.8,5.7,1.3,5.6,3.8,5.6,3.7-1.9,3.7-5.6ZM293.65,499.37h-2.5v6h-3.3v-15.7h6.1c1.1-.04,2.19.16,3.2.6,1.63.64,2.68,2.25,2.6,4,.04,1.96-1.22,3.72-3.1,4.3h0l3.5,6.8h-3.6l-2.9-6ZM293.55,496.97c1.5,0,2.7-.7,2.7-2.5.07-1.32-.95-2.45-2.28-2.52-.14,0-.28,0-.42.02h-2.4v5h2.4ZM302.54,489.67h3.4v15.7h-3.4v-15.7ZM312.14,497.57c0,4,1.4,5.6,3.8,5.6s3.4-1.3,3.6-3.5v-.3h-3.7v-2.4h6.8v8.4h-2.6v-2.2h-.1c-.94,1.63-2.72,2.6-4.6,2.5-4.4,0-6.8-3.1-6.8-7.9s3-8.3,7.4-8.3,6.1,1.7,6.4,4.9h-3.4c-.16-1.51-1.49-2.62-3-2.5-2.4,0-3.8,2-3.8,5.7ZM325.64,489.67h3.4v15.7h-3.4v-15.7ZM332.24,489.67h3.7l5,8.5c.46.73.86,1.5,1.2,2.3h0v-10.8h3.1v15.7h-3.5l-5.3-8.7c-.45-.76-.82-1.56-1.1-2.4h-.1v11.1h-3v-15.7ZM357.34,501.87h-5.8l-1.1,3.5h-3.2l5.4-15.7h3.8l5.6,15.7h-3.6l-1.1-3.5ZM353.84,494.77l-1.5,4.6h4.2l-1.5-4.5c-.4-1.4-.6-2.3-.6-2.3h0c-.14.75-.35,1.48-.6,2.2ZM363.94,489.67h3.4v13h6.8v2.7h-10.2v-15.7ZM384.53,499.97v5.4h-3.4v-15.7h5.5c3.4,0,6,1.4,6,5s-2.8,5.3-6.3,5.3h-1.8ZM386.53,497.47c1.37.17,2.62-.8,2.79-2.17.02-.18.03-.35,0-.53,0-1.9-1.1-2.7-2.8-2.7h-2v5.4h2ZM400.63,499.37h-2.4v6h-3.4v-15.7h6.1c1.1-.04,2.19.16,3.2.6,1.68.59,2.74,2.23,2.6,4,.02,1.93-1.18,3.66-3,4.3h0l3.5,6.8h-3.7l-2.9-6ZM400.53,496.97c1.5,0,2.8-.7,2.8-2.5.07-1.32-.95-2.45-2.28-2.52-.14,0-.28,0-.42.02h-2.4v5h2.3ZM409.23,489.67h3.3v9.1c-.12,1.1.09,2.22.6,3.2,1.39,1.35,3.6,1.35,5,0,.6-.8.5-2.1.5-3.2v-9.1h3.3v10.2c0,3.9-2.5,5.8-6.4,5.8s-6.3-1.8-6.3-5.8v-10.2ZM432.93,493.87c.01-1.1-.87-2.01-1.98-2.02-.11,0-.22,0-.32.02-1.5,0-2.4.8-2.4,1.9s.6,1.7,2.1,1.9l2.4.5c2.8.5,4.1,2,4.1,4.3s-2.3,5.2-6.3,5.2-6.1-1.9-6.2-4.8h3.5c.1,1.38,1.3,2.41,2.67,2.31.04,0,.08,0,.13-.01,1.9,0,2.7-.9,2.7-2.1s-.5-1.7-2.2-2l-2.3-.4c-2.4-.5-4.1-1.9-4.1-4.4s2.2-4.8,5.9-4.8,5.7,2,5.8,4.4h-3.5ZM447.93,501.87h-5.7l-1.2,3.5h-3.2l5.5-15.7h3.7l5.6,15.7h-3.5l-1.2-3.5ZM444.43,494.77l-1.4,4.6h4.1l-1.4-4.5c-.28-.74-.48-1.51-.6-2.3h-.1c-.14.75-.35,1.48-.6,2.2ZM459.23,489.67h4.9l2.8,8.4c.29.75.53,1.52.7,2.3h0l.7-2.3,2.8-8.4h4.9v15.7h-3.3v-12.3h-.1c-.26,1.12-.6,2.22-1,3.3l-2.9,9h-2.5l-2.9-9c-.4-1.08-.74-2.18-1-3.3h0v12.3h-3.1v-15.7ZM479.12,489.67h3.4v15.7h-3.4v-15.7ZM485.72,489.67h3.7l5,8.5c.46.73.86,1.5,1.2,2.3h0v-10.8h3.1v15.7h-3.5l-5.3-8.7c-.45-.76-.82-1.56-1.1-2.4h-.1v11.1h-3v-15.7ZM501.82,489.67h3.4v15.7h-3.4v-15.7Z" style="fill:#fff;"/><rect x=".75" y=".75" width="510.5" height="510.5" style="fill:none; stroke:#fff; stroke-linecap:round; stroke-linejoin:round; stroke-width:1.5px;"/></svg>