<?xml version="1.0" encoding="UTF-8" standalone="no"?>
<svg
   id="svg3128"
   width="710.1"
   height="596.7"
   viewBox="0 0 710.1 596.7"
   version="1.1"
   sodipodi:docname="mk35.svg"
   inkscape:version="1.3 (0e150ed6c4, 2023-07-21)"
   xmlns:inkscape="http://www.inkscape.org/namespaces/inkscape"
   xmlns:sodipodi="http://sodipodi.sourceforge.net/DTD/sodipodi-0.dtd"
   xmlns="http://www.w3.org/2000/svg"
   xmlns:svg="http://www.w3.org/2000/svg">
  <sodipodi:namedview
     id="namedview1"
     pagecolor="#000000"
     bordercolor="#000000"
     borderopacity="0.25"
     inkscape:showpageshadow="2"
     inkscape:pageopacity="0.0"
     inkscape:pagecheckerboard="0"
     inkscape:deskcolor="#d1d1d1"
     inkscape:zoom="2.7800779"
     inkscape:cx="470.67027"
     inkscape:cy="448.36873"
     inkscape:window-width="2560"
     inkscape:window-height="1369"
     inkscape:window-x="-8"
     inkscape:window-y="-8"
     inkscape:window-maximized="1"
     inkscape:current-layer="svg3128" />
  <defs
     id="defs18">
    <rect
       x="327.60001"
       y="200.93479"
       width="168.88696"
       height="82.408697"
       id="rect18" />
  </defs>
  <line
     id="line2794"
     x1=".7"
     y1=".7"
     x2=".7"
     y2="596"
     style="fill: none; stroke: #fff; stroke-linecap: round; stroke-linejoin: round; stroke-width: 1.4px;" />
  <line
     id="line2796"
     x1="142.4"
     y1=".7"
     x2="142.4"
     y2="595.6"
     style="fill: none; stroke: #fff; stroke-linecap: round; stroke-linejoin: round; stroke-width: 1.4px;" />
  <line
     id="line2798"
     x1="284.2"
     y1=".7"
     x2="284.2"
     y2="595.6"
     style="fill: none; stroke: #fff; stroke-linecap: round; stroke-linejoin: round; stroke-width: 1.4px;" />
  <line
     id="line2800"
     x1="709.4"
     y1="596"
     x2="709.4"
     y2=".7"
     style="fill: none; stroke: #fff; stroke-linecap: round; stroke-linejoin: round; stroke-width: 1.4px;" />
  <line
     id="line2802"
     x1="1.2"
     y1="581.8"
     x2="709.4"
     y2="581.8"
     style="fill: none; stroke: #fff; stroke-linecap: round; stroke-linejoin: round; stroke-width: 1.4px;" />
  <line
     id="line2804"
     x1=".7"
     y1="596"
     x2="709.4"
     y2="596"
     style="fill: none; stroke: #fff; stroke-linecap: round; stroke-linejoin: round; stroke-width: 1.4px;" />
  <line
     id="line2806"
     x1="1.2"
     y1="440.1"
     x2="709.4"
     y2="440.1"
     style="fill: none; stroke: #fff; stroke-linecap: round; stroke-linejoin: round; stroke-width: 1.4px;" />
  <line
     id="line2808"
     x1="1.2"
     y1="298.4"
     x2="709.4"
     y2="298.4"
     style="fill: none; stroke: #fff; stroke-linecap: round; stroke-linejoin: round; stroke-width: 1.4px;" />
  <line
     id="line2810"
     x1="1.2"
     y1="156.6"
     x2="709.4"
     y2="156.6"
     style="fill: none; stroke: #fff; stroke-linecap: round; stroke-linejoin: round; stroke-width: 1.4px;" />
  <line
     id="line2812"
     x1="1.2"
     y1="14.9"
     x2="709.4"
     y2="14.9"
     style="fill: none; stroke: #fff; stroke-linecap: round; stroke-linejoin: round; stroke-width: 1.4px;" />
  <line
     id="line2814"
     x1="709.4"
     y1=".7"
     x2=".7"
     y2=".7"
     style="fill: none; stroke: #fff; stroke-linecap: round; stroke-linejoin: round; stroke-width: 1.4px;" />
  <line
     id="line2816"
     x1="425.9"
     y1=".7"
     x2="425.9"
     y2="499.4"
     style="fill: none; stroke: #fff; stroke-linecap: round; stroke-linejoin: round; stroke-width: 1.4px;" />
  <line
     id="line2818"
     x1="425.9"
     y1="522.6"
     x2="425.9"
     y2="595.7"
     style="fill: none; stroke: #fff; stroke-linecap: round; stroke-linejoin: round; stroke-width: 1.4px;" />
  <line
     id="line2820"
     x1="567.6"
     y1=".7"
     x2="567.6"
     y2="499.4"
     style="fill: none; stroke: #fff; stroke-linecap: round; stroke-linejoin: round; stroke-width: 1.4px;" />
  <line
     id="line2822"
     x1="567.6"
     y1="522.5"
     x2="567.6"
     y2="527.7"
     style="fill: none; stroke: #fff; stroke-linecap: round; stroke-linejoin: round; stroke-width: 1.4px;" />
  <line
     id="line2824"
     x1="567.6"
     y1="548.6"
     x2="567.6"
     y2="595.4"
     style="fill: none; stroke: #fff; stroke-linecap: round; stroke-linejoin: round; stroke-width: 1.4px;" />
  <line
     id="line2826"
     x1="85.8"
     y1=".7"
     x2="85.8"
     y2="595.9"
     style="fill: none; stroke: #fff; stroke-linecap: round; stroke-linejoin: round; stroke-width: .4px;" />
  <line
     id="line2828"
     x1="114.1"
     y1=".7"
     x2="114.1"
     y2="595.9"
     style="fill: none; stroke: #fff; stroke-linecap: round; stroke-linejoin: round; stroke-width: .4px;" />
  <line
     id="line2830"
     x1="170.8"
     y1=".7"
     x2="170.8"
     y2="595.9"
     style="fill: none; stroke: #fff; stroke-linecap: round; stroke-linejoin: round; stroke-width: .4px;" />
  <line
     id="line2832"
     x1="199.1"
     y1=".7"
     x2="199.1"
     y2="595.9"
     style="fill: none; stroke: #fff; stroke-linecap: round; stroke-linejoin: round; stroke-width: .4px;" />
  <line
     id="line2834"
     x1="227.5"
     y1=".7"
     x2="227.5"
     y2="595.9"
     style="fill: none; stroke: #fff; stroke-linecap: round; stroke-linejoin: round; stroke-width: .4px;" />
  <line
     id="line2836"
     x1="255.8"
     y1=".7"
     x2="255.8"
     y2="595.9"
     style="fill: none; stroke: #fff; stroke-linecap: round; stroke-linejoin: round; stroke-width: .4px;" />
  <line
     id="line2838"
     x1="312.5"
     y1=".7"
     x2="312.5"
     y2="595.9"
     style="fill: none; stroke: #fff; stroke-linecap: round; stroke-linejoin: round; stroke-width: .4px;" />
  <line
     id="line2840"
     x1="340.9"
     y1=".7"
     x2="340.9"
     y2="595.9"
     style="fill: none; stroke: #fff; stroke-linecap: round; stroke-linejoin: round; stroke-width: .4px;" />
  <line
     id="line2842"
     x1="681"
     y1=".7"
     x2="681"
     y2="595.9"
     style="fill: none; stroke: #fff; stroke-linecap: round; stroke-linejoin: round; stroke-width: .4px;" />
  <line
     id="line2844"
     x1="29.1"
     y1=".7"
     x2="29.1"
     y2="595.9"
     style="fill: none; stroke: #fff; stroke-linecap: round; stroke-linejoin: round; stroke-width: .4px;" />
  <line
     id="line2846"
     x1="57.4"
     y1=".7"
     x2="57.4"
     y2="595.9"
     style="fill: none; stroke: #fff; stroke-linecap: round; stroke-linejoin: round; stroke-width: .4px;" />
  <line
     id="line2848"
     x1="1.5"
     y1="468.4"
     x2="709.4"
     y2="468.4"
     style="fill: none; stroke: #fff; stroke-linecap: round; stroke-linejoin: round; stroke-width: .4px;" />
  <line
     id="line2850"
     x1="1.5"
     y1="496.8"
     x2="709.4"
     y2="496.8"
     style="fill: none; stroke: #fff; stroke-linecap: round; stroke-linejoin: round; stroke-width: .4px;" />
  <line
     id="line2852"
     x1="1.5"
     y1="525.1"
     x2="709.4"
     y2="525.1"
     style="fill: none; stroke: #fff; stroke-linecap: round; stroke-linejoin: round; stroke-width: .4px;" />
  <line
     id="line2854"
     x1="1.5"
     y1="553.5"
     x2="709.4"
     y2="553.5"
     style="fill: none; stroke: #fff; stroke-linecap: round; stroke-linejoin: round; stroke-width: .4px;" />
  <line
     id="line2856"
     x1="1.5"
     y1="411.7"
     x2="709.4"
     y2="411.7"
     style="fill: none; stroke: #fff; stroke-linecap: round; stroke-linejoin: round; stroke-width: .4px;" />
  <line
     id="line2858"
     x1="1.5"
     y1="383.4"
     x2="709.4"
     y2="383.4"
     style="fill: none; stroke: #fff; stroke-linecap: round; stroke-linejoin: round; stroke-width: .4px;" />
  <line
     id="line2860"
     x1="1.5"
     y1="355"
     x2="709.4"
     y2="355"
     style="fill: none; stroke: #fff; stroke-linecap: round; stroke-linejoin: round; stroke-width: .4px;" />
  <line
     id="line2862"
     x1="1.5"
     y1="326.7"
     x2="709.4"
     y2="326.7"
     style="fill: none; stroke: #fff; stroke-linecap: round; stroke-linejoin: round; stroke-width: .4px;" />
  <line
     id="line2864"
     x1="1.5"
     y1="270"
     x2="709.4"
     y2="270"
     style="fill: none; stroke: #fff; stroke-linecap: round; stroke-linejoin: round; stroke-width: .4px;" />
  <line
     id="line2866"
     x1="1.5"
     y1="241.7"
     x2="709.4"
     y2="241.7"
     style="fill: none; stroke: #fff; stroke-linecap: round; stroke-linejoin: round; stroke-width: .4px;" />
  <line
     id="line2868"
     x1="1.5"
     y1="213.3"
     x2="709.4"
     y2="213.3"
     style="fill: none; stroke: #fff; stroke-linecap: round; stroke-linejoin: round; stroke-width: .4px;" />
  <line
     id="line2870"
     x1="1.5"
     y1="185"
     x2="709.4"
     y2="185"
     style="fill: none; stroke: #fff; stroke-linecap: round; stroke-linejoin: round; stroke-width: .4px;" />
  <line
     id="line2872"
     x1="1.5"
     y1="128.3"
     x2="709.4"
     y2="128.3"
     style="fill: none; stroke: #fff; stroke-linecap: round; stroke-linejoin: round; stroke-width: .4px;" />
  <line
     id="line2874"
     x1="1.5"
     y1="99.9"
     x2="709.4"
     y2="99.9"
     style="fill: none; stroke: #fff; stroke-linecap: round; stroke-linejoin: round; stroke-width: .4px;" />
  <line
     id="line2876"
     x1="1.5"
     y1="71.6"
     x2="709.4"
     y2="71.6"
     style="fill: none; stroke: #fff; stroke-linecap: round; stroke-linejoin: round; stroke-width: .4px;" />
  <line
     id="line2878"
     x1="1.5"
     y1="43.2"
     x2="709.4"
     y2="43.2"
     style="fill: none; stroke: #fff; stroke-linecap: round; stroke-linejoin: round; stroke-width: .4px;" />
  <line
     id="line2880"
     x1="369.2"
     y1=".7"
     x2="369.2"
     y2="522.6"
     style="fill: none; stroke: #fff; stroke-linecap: round; stroke-linejoin: round; stroke-width: .4px;" />
  <line
     id="line2882"
     x1="369.2"
     y1="522.6"
     x2="369.2"
     y2="595.7"
     style="fill: none; stroke: #fff; stroke-linecap: round; stroke-linejoin: round; stroke-width: .4px;" />
  <line
     id="line2884"
     x1="397.6"
     y1=".7"
     x2="397.6"
     y2="499.4"
     style="fill: none; stroke: #fff; stroke-linecap: round; stroke-linejoin: round; stroke-width: .4px;" />
  <line
     id="line2886"
     x1="397.5"
     y1="522.6"
     x2="397.5"
     y2="595.7"
     style="fill: none; stroke: #fff; stroke-linecap: round; stroke-linejoin: round; stroke-width: .4px;" />
  <line
     id="line2888"
     x1="454.2"
     y1=".7"
     x2="454.2"
     y2="499.4"
     style="fill: none; stroke: #fff; stroke-linecap: round; stroke-linejoin: round; stroke-width: .4px;" />
  <line
     id="line2890"
     x1="454.3"
     y1="522.6"
     x2="454.3"
     y2="595.6"
     style="fill: none; stroke: #fff; stroke-linecap: round; stroke-linejoin: round; stroke-width: .4px;" />
  <line
     id="line2892"
     x1="482.6"
     y1=".7"
     x2="482.6"
     y2="499.4"
     style="fill: none; stroke: #fff; stroke-linecap: round; stroke-linejoin: round; stroke-width: .4px;" />
  <line
     id="line2894"
     x1="482.6"
     y1="522.6"
     x2="482.6"
     y2="595.6"
     style="fill: none; stroke: #fff; stroke-linecap: round; stroke-linejoin: round; stroke-width: .4px;" />
  <line
     id="line2896"
     x1="510.9"
     y1=".7"
     x2="510.9"
     y2="499.4"
     style="fill: none; stroke: #fff; stroke-linecap: round; stroke-linejoin: round; stroke-width: .4px;" />
  <line
     id="line2898"
     x1="510.9"
     y1="522.6"
     x2="510.9"
     y2="595.6"
     style="fill: none; stroke: #fff; stroke-linecap: round; stroke-linejoin: round; stroke-width: .4px;" />
  <line
     id="line2900"
     x1="539.3"
     y1=".7"
     x2="539.3"
     y2="499.4"
     style="fill: none; stroke: #fff; stroke-linecap: round; stroke-linejoin: round; stroke-width: .4px;" />
  <line
     id="line2902"
     x1="539.3"
     y1="522.6"
     x2="539.3"
     y2="595.6"
     style="fill: none; stroke: #fff; stroke-linecap: round; stroke-linejoin: round; stroke-width: .4px;" />
  <line
     id="line2904"
     x1="596"
     y1=".7"
     x2="596"
     y2="499.4"
     style="fill: none; stroke: #fff; stroke-linecap: round; stroke-linejoin: round; stroke-width: .4px;" />
  <line
     id="line2906"
     x1="624.3"
     y1=".7"
     x2="624.3"
     y2="499.4"
     style="fill: none; stroke: #fff; stroke-linecap: round; stroke-linejoin: round; stroke-width: .4px;" />
  <line
     id="line2908"
     x1="652.7"
     y1=".7"
     x2="652.7"
     y2="499.4"
     style="fill: none; stroke: #fff; stroke-linecap: round; stroke-linejoin: round; stroke-width: .4px;" />
  <line
     id="line2910"
     x1="652.7"
     y1="522.5"
     x2="652.7"
     y2="527.7"
     style="fill: none; stroke: #fff; stroke-linecap: round; stroke-linejoin: round; stroke-width: .4px;" />
  <line
     id="line2912"
     x1="652.6"
     y1="548.4"
     x2="652.6"
     y2="596"
     style="fill: none; stroke: #fff; stroke-linecap: round; stroke-linejoin: round; stroke-width: .4px;" />
  <line
     id="line2914"
     x1="624.3"
     y1="522.5"
     x2="624.3"
     y2="527.7"
     style="fill: none; stroke: #fff; stroke-linecap: round; stroke-linejoin: round; stroke-width: .4px;" />
  <line
     id="line2916"
     x1="624.3"
     y1="548.4"
     x2="624.3"
     y2="596"
     style="fill: none; stroke: #fff; stroke-linecap: round; stroke-linejoin: round; stroke-width: .4px;" />
  <line
     id="line2918"
     x1="596"
     y1="522.5"
     x2="596"
     y2="527.7"
     style="fill: none; stroke: #fff; stroke-linecap: round; stroke-linejoin: round; stroke-width: .4px;" />
  <line
     id="line2920"
     x1="596"
     y1="548.4"
     x2="596"
     y2="596"
     style="fill: none; stroke: #fff; stroke-linecap: round; stroke-linejoin: round; stroke-width: .4px;" />
  <path
     id="path3098"
     d="m548.6,532.1h2.1v4.8h0c.1-.2.3-.4.5-.6.2-.2.4-.3.7-.5.2-.1.5-.2.8-.3.3,0,.5-.1.8,0,.7,0,1.3.1,1.9.4.5.2,1,.6,1.4,1.1.4.5.6,1,.8,1.6.2.6.3,1.3.3,1.9,0,.6,0,1.2-.2,1.8-.2.6-.4,1.1-.7,1.6-.7,1-1.8,1.5-3,1.5-.3,0-.6,0-1,0-.3,0-.6-.1-.9-.2-.3-.1-.5-.3-.8-.5-.2-.2-.4-.5-.6-.8h0v1.3h-2v-12.9Zm7.2,8.2c0-.4,0-.8-.2-1.2-.1-.4-.3-.7-.5-1-.2-.3-.5-.6-.8-.7-.3-.2-.7-.3-1.1-.3-.8,0-1.5.3-2,.9-.5.7-.7,1.6-.7,2.4,0,.4,0,.9.2,1.3.1.4.3.7.5,1,.2.3.5.5.8.7.3.2.7.3,1.1.2.4,0,.8,0,1.2-.3.3-.2.6-.4.8-.7.2-.3.4-.7.5-1,0-.4.1-.8.1-1.2Z"
     style="fill: #fff;" />
  <path
     id="path3100"
     d="m558.5,535.6h2.2l2.4,7h0l2.4-7h2.1l-3.6,9.8c-.2.4-.3.8-.5,1.2-.2.4-.4.7-.6,1-.2.3-.5.5-.9.7-.4.2-.9.3-1.3.3-.5,0-1,0-1.4-.1v-1.7h.5c.2,0,.3,0,.5,0,.2,0,.4,0,.6,0,.1,0,.3-.1.4-.3.1-.1.2-.3.3-.4,0-.2.1-.4.2-.5l.2-.7-3.5-9.2Z"
     style="fill: #fff;" />
  <path
     id="path3102"
     d="m581.1,540.8c0,.5,0,1.1-.1,1.6,0,.5-.3,1-.6,1.4-.3.4-.8.8-1.3,1-.7.3-1.5.4-2.2.4-.6,0-1.2,0-1.7-.3-.5-.2-.9-.5-1.2-.9-.3-.4-.6-.8-.7-1.3-.1-.5-.2-1.1-.2-1.6v-.7h2.2v.7c0,.6,0,1.2.4,1.7.3.4.9.7,1.4.6.3,0,.6,0,.9-.2.2-.1.4-.3.6-.5.1-.2.2-.5.3-.8,0-.4,0-.7,0-1.1v-8.8h2.2v8.7Z"
     style="fill: #fff;" />
  <path
     id="path3104"
     d="m587.8,545.1c-.7,0-1.4-.1-2-.4-.6-.2-1.1-.6-1.5-1-.4-.4-.7-1-.9-1.5-.2-.6-.3-1.3-.3-2,0-.7,0-1.4.3-2,.2-.6.5-1.1.9-1.5.4-.4.9-.8,1.5-1,1.3-.5,2.7-.5,4,0,.6.2,1.1.6,1.5,1,.4.4.7,1,.9,1.5.2.6.3,1.3.3,2,0,.7,0,1.4-.3,2-.2.6-.5,1.1-.9,1.5-.4.4-.9.8-1.5,1-.6.3-1.3.4-2,.4Zm0-1.6c.4,0,.8,0,1.2-.3.3-.2.6-.4.8-.8.2-.3.4-.7.5-1.1.1-.4.2-.8.2-1.2,0-.4,0-.8-.2-1.2,0-.4-.3-.7-.5-1-.2-.3-.5-.6-.8-.8-.7-.4-1.6-.4-2.4,0-.3.2-.6.4-.8.8-.2.3-.4.6-.5,1,0,.4-.1.8-.2,1.2,0,.4,0,.8.2,1.2,0,.4.3.7.5,1.1.2.3.5.6.8.8.4.2.8.3,1.2.3h0Z"
     style="fill: #fff;" />
  <path
     id="path3106"
     d="m595.7,541.9c0,.5.3,1,.7,1.3.4.2.9.4,1.4.4.2,0,.4,0,.7,0,.2,0,.5,0,.7-.2.2,0,.4-.2.5-.4.3-.4.2-.9,0-1.3-.2-.2-.4-.3-.7-.4-.3-.1-.7-.2-1-.3l-1.1-.2c-.4,0-.7-.2-1.1-.3-.4-.1-.7-.3-1-.5-.3-.2-.5-.5-.6-.9-.2-.4-.3-.8-.2-1.2,0-.5.1-.9.4-1.3.2-.3.6-.6.9-.8.4-.2.8-.4,1.3-.4.4,0,.9-.1,1.3-.1.5,0,.9,0,1.4.2.4,0,.8.3,1.2.5.4.2.7.5.9.9.2.4.4.9.4,1.3h-2.1c0-.4-.3-.8-.7-1-.4-.2-.8-.3-1.2-.2-.2,0-.3,0-.5,0-.2,0-.4,0-.6.1-.2,0-.3.2-.4.3-.1.1-.2.3-.2.5,0,.2,0,.5.3.6.2.2.4.3.7.4.3.1.7.2,1,.3l1.1.2c.4,0,.7.2,1.1.3.4.1.7.3,1,.5.3.2.5.5.7.8.2.4.3.8.3,1.2,0,.5-.1,1-.4,1.4-.3.4-.6.7-1,.9-.4.2-.9.4-1.3.5-.5.1-1,.2-1.5.2-.5,0-1.1,0-1.6-.2-.5-.1-.9-.3-1.3-.6-.4-.3-.7-.6-.9-1-.2-.4-.3-.9-.3-1.4h2Z"
     style="fill: #fff;" />
  <path
     id="path3108"
     d="m605.1,540.8c0,.3,0,.7.2,1,0,.3.3.6.5.9.2.3.5.5.8.6.4.2.7.2,1.1.2.5,0,1.1,0,1.5-.3.4-.3.7-.7.8-1.2h1.9c0,.5-.3.9-.6,1.3-.3.4-.6.7-1,1-.4.3-.8.5-1.2.6-.5.1-1,.2-1.5.2-.7,0-1.3-.1-1.9-.4-.5-.2-1-.6-1.4-1-.4-.4-.7-1-.9-1.5-.2-.6-.3-1.3-.3-2,0-.6.1-1.3.3-1.9.2-.6.5-1.1.9-1.6.8-1,2-1.5,3.3-1.5.7,0,1.4.1,2,.5.6.3,1.1.7,1.5,1.2.4.5.7,1.1.8,1.7.2.7.2,1.3.1,2h-6.9Zm4.8-1.3c0-.3,0-.6-.2-.9-.1-.3-.3-.6-.5-.8-.2-.2-.4-.4-.7-.5-.3-.1-.6-.2-.9-.2-.3,0-.7,0-1,.2-.3.1-.5.3-.8.5-.2.2-.4.5-.5.8-.1.3-.2.7-.2,1h4.8Z"
     style="fill: #fff;" />
  <path
     id="path3110"
     d="m612.6,535.6h1.5v-.8c0-.5,0-1,.2-1.4.1-.3.3-.6.6-.8.2-.2.5-.3.8-.4.3,0,.7-.1,1,0,.5,0,.9,0,1.4,0v1.6c-.1,0-.3,0-.4,0h-.5c-.3,0-.5,0-.7.2-.2.2-.3.5-.3.8v1h1.7v1.5h-1.7v7.8h-2v-7.8h-1.5v-1.5Z"
     style="fill: #fff;" />
  <path
     id="path3112"
     d="m624.5,532.1h5.7c.8,0,1.5.1,2.2.4.5.2,1,.6,1.3,1,.3.4.5.8.6,1.3.1.4.2.9.2,1.3,0,.4,0,.9-.2,1.3-.1.5-.3.9-.6,1.3-.4.4-.8.8-1.3,1-.7.3-1.5.4-2.2.4h-3.4v4.9h-2.2v-12.9Zm2.2,6.1h3.3c.3,0,.5,0,.8-.1.3,0,.5-.2.7-.3.2-.2.4-.4.5-.7.1-.3.2-.7.2-1,0-.3,0-.7-.2-1-.2-.5-.7-.9-1.2-1-.3,0-.6,0-.8,0h-3.3v4.2Z"
     style="fill: #fff;" />
  <path
     id="path3114"
     d="m636.2,535.6h1.9v1.8h0c0-.3.2-.5.4-.7.2-.2.4-.5.6-.7.2-.2.5-.4.8-.5.3-.1.6-.2.9-.2h.8v2h-.4c-.1,0-.3,0-.5,0-.7,0-1.3.3-1.8.8-.2.3-.4.6-.5,1-.1.4-.2.9-.2,1.4v4.4h-2v-9.3Z"
     style="fill: #fff;" />
  <path
     id="path3116"
     d="m650.7,544.9h-2v-1.3h0c-.3.5-.7.9-1.1,1.1-.5.3-1,.4-1.5.4-1,0-1.9-.2-2.7-.9-.6-.8-.9-1.8-.8-2.7v-5.9h2v5.7c0,.6.1,1.2.5,1.7.3.3.8.5,1.3.5.4,0,.7,0,1.1-.2.3-.1.5-.3.7-.5.2-.2.3-.5.4-.8,0-.3.1-.7.1-1v-5.4h2v9.3Z"
     style="fill: #fff;" />
  <path
     id="path3118"
     d="m654.4,541.9c0,.5.3,1,.7,1.2.4.2.9.4,1.4.4.2,0,.4,0,.7,0,.2,0,.5,0,.7-.2.2,0,.4-.2.5-.4.1-.2.2-.4.2-.6,0-.2-.1-.5-.3-.7-.2-.2-.4-.3-.7-.4-.3-.1-.7-.2-1-.3l-1.1-.2c-.4,0-.7-.2-1.1-.3-.4-.1-.7-.3-1-.5-.3-.2-.5-.5-.7-.8-.2-.4-.3-.8-.3-1.2,0-.5.1-.9.4-1.3.2-.3.6-.6.9-.8.4-.2.8-.4,1.3-.4.4,0,.9-.1,1.3-.1.5,0,.9,0,1.4.2.4.1.8.3,1.2.5.4.2.7.5.9.9.2.4.4.9.4,1.3h-2.1c0-.4-.3-.8-.7-1-.4-.2-.8-.3-1.2-.2-.2,0-.3,0-.5,0-.2,0-.4,0-.5.1-.2,0-.3.2-.4.3-.1.1-.2.3-.2.5,0,.2,0,.5.3.6.2.2.4.3.7.4.3.1.7.2,1,.3l1.1.2c.4,0,.7.2,1.1.3.4.1.7.3,1,.5.3.2.5.5.7.8.2.4.3.8.3,1.2,0,.5-.1,1-.4,1.4-.3.4-.6.7-1,.9-.4.2-.9.4-1.3.5-.5.1-1,.2-1.5.2-.6,0-1.1,0-1.6-.2-.5-.1-.9-.3-1.3-.6-.4-.3-.7-.6-.9-1-.2-.4-.3-.9-.3-1.4h2.1Z"
     style="fill: #fff;" />
  <path
     id="path3120"
     d="m670,542.8c0,.2,0,.4,0,.5,0,.1.2.2.4.2h.5v1.4h-.3c0,0-.3.2-.3.2h-.4c-.1,0-.2,0-.3,0-.3,0-.7,0-1-.2-.3-.2-.5-.5-.5-.9-.4.4-.9.7-1.5.9-.6.2-1.1.3-1.7.3-.4,0-.8,0-1.2-.2-.4-.1-.7-.3-1-.5-.3-.2-.5-.5-.7-.8-.2-.4-.3-.8-.3-1.2,0-.5,0-1,.3-1.4.2-.3.5-.6.8-.8.4-.2.7-.4,1.2-.4.4,0,.9-.2,1.3-.2.3,0,.7-.1,1.1-.2.3,0,.6,0,.9-.2.2,0,.4-.2.6-.3.2-.2.2-.4.2-.7,0-.2,0-.5-.2-.7-.1-.2-.3-.3-.5-.4-.2,0-.4-.2-.6-.2-.2,0-.4,0-.7,0-.5,0-1,.1-1.4.4-.4.3-.6.7-.6,1.1h-2c0-.5.2-1,.4-1.5.3-.4.6-.7,1-1,.4-.2.9-.4,1.3-.5.5-.1,1-.2,1.5-.2.5,0,.9,0,1.3.2.4,0,.8.2,1.2.5.3.2.6.5.8.8.2.4.3.8.3,1.2v4.8Zm-2.1-2.6c-.3.2-.7.3-1.2.4-.5,0-.9.1-1.4.2-.2,0-.4,0-.6.2-.2,0-.4.1-.5.3-.2.1-.3.3-.4.5,0,.2-.1.4-.1.7,0,.2,0,.4.2.6.1.2.3.3.5.4.2,0,.4.2.6.2.2,0,.4,0,.6,0,.2,0,.5,0,.7,0,.3,0,.5-.2.8-.3.2-.1.4-.3.6-.5.2-.2.2-.5.2-.8v-1.5Z"
     style="fill: #fff;" />
  <g
     id="g5">
    <path
       d="m596.7,502.2h5.6l3.2,9.6c.5,1.5.8,2.6.8,2.6h0s.3-1.1.8-2.6l3.2-9.6h5.6v17.8h-3.8v-14h0s-.4,1.7-1.1,3.8l-3.4,10.2h-2.9l-3.4-10.2c-.7-2.1-1.1-3.8-1.1-3.8h0v13.9h-3.5v-17.8Z"
       style="fill: #ed6b21;"
       id="path1" />
    <path
       d="m623.3,520.1h-3.8v-17.8h3.8v7.9l6.5-7.9h4.3l-6.4,7.5,6.7,10.4h-4.4l-4.9-7.5-1.8,2.1v5.4Z"
       style="fill: #ed6b21;"
       id="path2" />
    <path
       style="font-weight:bold;font-size:26.6667px;font-family:Helvetica;-inkscape-font-specification:'Helvetica Bold';white-space:pre;fill:#ed6b20;stroke-width:1.00047"
       d="m 331.94857,220.21561 q 0,1.13281 0.36459,1.875 0.67708,1.36719 2.46094,1.36719 1.09375,0 1.90104,-0.74219 0.82032,-0.75521 0.82032,-2.16146 0,-1.86198 -1.51042,-2.48698 -0.85938,-0.35156 -2.70834,-0.35156 v -2.65626 q 1.8099,-0.026 2.52604,-0.35156 1.23699,-0.54687 1.23699,-2.21354 0,-1.08073 -0.63803,-1.75782 -0.625,-0.67708 -1.77083,-0.67708 -1.31511,0 -1.94011,0.83333 -0.61198,0.83334 -0.58594,2.22657 h -3.46354 q 0.0521,-1.40625 0.48177,-2.66928 0.45573,-1.10677 1.43229,-2.04427 0.72917,-0.66406 1.73178,-1.01563 1.0026,-0.35156 2.46094,-0.35156 2.70833,0 4.36198,1.40625 1.66667,1.39323 1.66667,3.75001 0,1.66667 -0.98959,2.8125 -0.625,0.71615 -1.30208,0.97656 0.50781,0 1.45833,0.8724 1.41928,1.31511 1.41928,3.59376 0,2.39583 -1.66667,4.21875 -1.65365,1.8099 -4.90886,1.8099 -4.01042,0 -5.57293,-2.61719 -0.82031,-1.39323 -0.91145,-3.64584 z m 12.14846,1.91407 h 3.94531 v 3.88021 h -3.94531 z m 10.14324,-1.17188 q 0.22135,1.21094 0.84635,1.875 0.625,0.65104 1.82292,0.65104 1.38021,0 2.09636,-0.96354 0.72917,-0.97656 0.72917,-2.44792 0,-1.44531 -0.67709,-2.4349 -0.67708,-1.0026 -2.10938,-1.0026 -0.67708,0 -1.17187,0.16927 -0.8724,0.3125 -1.31511,1.15885 l -3.33334,-0.15625 1.32813,-10.4297 h 10.40366 v 3.15105 h -7.72136 l -0.67709,4.12761 q 0.85938,-0.5599 1.34115,-0.74219 0.80729,-0.29948 1.96615,-0.29948 2.34375,0 4.08854,1.57552 1.7448,1.57553 1.7448,4.58334 0,2.61719 -1.67969,4.67449 -1.67969,2.05729 -5.02605,2.05729 -2.69532,0 -4.42709,-1.44531 -1.73177,-1.44532 -1.92708,-4.10157 z"
       id="text18"
       transform="matrix(0.98018322,0,0,0.94522957,313.88943,306.40108)"
       aria-label="3.5" />
  </g>
  <g
     id="g13">
    <path
       d="m385.6,511.3c0-1.3.2-2.6.6-3.7s1-2.1,1.7-3c.7-.9,1.7-1.5,2.8-2,1.1-.5,2.3-.7,3.7-.7s2.6.2,3.7.7c1.1.5,2,1.2,2.8,2s1.3,1.8,1.7,3,.6,2.4.6,3.7-.2,2.5-.6,3.6-1,2.1-1.7,2.9c-.7.8-1.7,1.5-2.8,2-1.1.5-2.3.7-3.7.7s-2.6-.2-3.7-.7c-1.1-.5-2-1.1-2.8-2-.7-.8-1.3-1.8-1.7-2.9-.4-1.1-.6-2.3-.6-3.6Zm3.9,0c0,.7.1,1.5.3,2.2.2.7.4,1.3.9,1.9.4.6.9,1,1.5,1.4s1.4.5,2.2.5,1.6-.2,2.2-.5,1.1-.8,1.5-1.4c.4-.6.6-1.2.9-1.9.2-.7.3-1.4.3-2.2s-.1-1.5-.3-2.3c-.2-.7-.4-1.4-.9-1.9-.4-.6-.9-1-1.5-1.4-.6-.3-1.4-.5-2.2-.5s-1.6.2-2.2.5c-.6.3-1.1.8-1.5,1.4s-.6,1.2-.9,1.9c-.2.7-.3,1.5-.3,2.3Z"
       style="fill: #959998;"
       id="path6" />
    <path
       d="m404.8,502.3h9.6c.8,0,1.5.1,2.1.4.6.3,1.2.6,1.6,1.1.4.4.8,1,1.1,1.6.2.6.4,1.2.4,1.9,0,1.1-.2,1.9-.6,2.7-.4.7-1.2,1.4-2.1,1.7h0c.5.2.9.4,1.2.6s.6.6.8,1c.2.4.3.8.4,1.2s.2.9.2,1.3,0,.6,0,1,0,.8.1,1.2c0,.4.1.8.2,1.1.1.4.2.7.4.9h-3.9c-.1-.3-.2-.6-.3-.9,0-.3-.1-.7-.1-1.1s0-.7-.1-1.2c0-.4,0-.7-.1-1.1-.1-.9-.4-1.6-.9-2s-1.1-.6-2.1-.6h-3.9v6.9h-3.9v-17.7Zm3.9,8.1h4.3c.9,0,1.6-.2,2-.6.4-.4.7-1.1.7-1.9s-.2-1.5-.7-1.9-1.1-.6-2-.6h-4.3v5Z"
       style="fill: #959998;"
       id="path7" />
    <path
       d="m421.8,502.3h3.9v17.8h-3.9v-17.8Z"
       style="fill: #959998;"
       id="path8" />
    <path
       d="m441,518.1c-.7.9-1.5,1.5-2.3,1.9s-1.7.5-2.6.5c-1.4,0-2.6-.2-3.7-.7-1.1-.5-2-1.1-2.8-2-.7-.8-1.3-1.8-1.7-2.9-.4-1.1-.6-2.3-.6-3.6s.2-2.6.6-3.7,1-2.1,1.7-3c.7-.9,1.7-1.5,2.8-2,1.1-.5,2.3-.7,3.7-.7s1.8.1,2.7.4c.9.3,1.6.7,2.3,1.2s1.3,1.2,1.7,2,.7,1.7.9,2.7h-3.7c-.2-1-.7-1.7-1.4-2.2s-1.5-.7-2.4-.7-1.6.2-2.2.5-1.1.8-1.5,1.4c-.4.6-.6,1.2-.9,1.9-.2.7-.3,1.5-.3,2.3s.1,1.5.3,2.2c.2.7.4,1.3.9,1.9.4.6.9,1,1.5,1.4.6.3,1.4.5,2.2.5,1.3,0,2.3-.3,3-1s1.1-1.6,1.3-2.9h-3.9v-2.9h7.5v9.6h-2.5l-.4-2Z"
       style="fill: #959998;"
       id="path9" />
    <path
       d="m446.3,502.3h3.9v17.8h-3.9v-17.8Z"
       style="fill: #959998;"
       id="path10" />
    <path
       d="m452.7,502.3h3.9l7.4,11.9h0v-11.9h3.7v17.8h-3.9l-7.4-11.9h0v11.9h-3.7v-17.8Z"
       style="fill: #959998;"
       id="path11" />
    <path
       d="m475.1,502.3h4l6.6,17.8h-4l-1.4-3.9h-6.6l-1.4,3.9h-3.9l6.7-17.8Zm-.4,10.9h4.6l-2.2-6.5h0l-2.3,6.5Z"
       style="fill: #959998;"
       id="path12" />
    <path
       d="m486.5,502.3h3.9v14.5h8.6v3.3h-12.6v-17.8h0Z"
       style="fill: #959998;"
       id="path13" />
  </g>
  <g
     id="g18">
    <path
       d="m508.9,502.3h8c1.1,0,2.1.2,2.8.5s1.4.7,1.9,1.3c.5.5.9,1.2,1.1,1.8.2.7.3,1.4.3,2.1s-.1,1.4-.3,2.1-.6,1.3-1.1,1.8c-.5.5-1.1,1-1.9,1.3s-1.7.5-2.8.5h-4.1v6.4h-3.9v-17.8Zm3.9,8.4h3c.4,0,.9,0,1.3-.1.4,0,.8-.2,1.1-.4.3-.2.6-.5.7-.8.2-.3.3-.8.3-1.4s-.1-1-.3-1.4c-.2-.3-.4-.6-.7-.8-.3-.2-.7-.3-1.1-.4s-.9-.1-1.3-.1h-3v5.3Z"
       style="fill: #fff;"
       id="path14" />
    <path
       d="m524.2,502.3h9.6c.8,0,1.5.1,2.1.4.6.3,1.2.6,1.6,1.1.4.4.8,1,1.1,1.6.2.6.4,1.2.4,1.9,0,1.1-.2,1.9-.6,2.7-.4.7-1.2,1.4-2.1,1.7h0c.5.2.9.4,1.2.6s.6.6.8,1c.2.4.3.8.4,1.2s.2.9.2,1.3,0,.6,0,1,0,.8.1,1.2c0,.4.1.8.2,1.1.1.4.2.7.4.9h-3.9c-.1-.3-.2-.6-.3-.9,0-.3-.1-.7-.1-1.1s0-.7-.1-1.2c0-.4,0-.7-.1-1.1-.1-.9-.4-1.6-.9-2s-1.1-.6-2.1-.6h-3.9v6.9h-3.9v-17.7Zm3.9,8.1h4.3c.9,0,1.5-.2,2-.6.4-.4.7-1.1.7-1.9s-.2-1.5-.7-1.9-1.1-.6-2-.6h-4.3v5Z"
       style="fill: #fff;"
       id="path15" />
    <path
       d="m556.1,513.3c0,2.4-.7,4.2-2,5.4-1.4,1.2-3.2,1.8-5.6,1.8s-4.3-.6-5.6-1.8c-1.3-1.2-2-3-2-5.4v-11.1h3.9v11.1c0,.5,0,1,.1,1.4,0,.5.3.9.5,1.3.3.4.6.6,1.1.9.5.2,1.1.3,1.9.3,1.4,0,2.3-.3,2.9-.9s.8-1.6.8-2.9v-11.1h3.9v11h0Z"
       style="fill: #fff;"
       id="path16" />
    <path
       d="m561.1,514.2c0,.6.1,1.1.3,1.5.2.4.5.7.9,1s.8.4,1.3.6,1,.2,1.5.2.7,0,1.1-.1.8-.2,1.1-.3.6-.4.9-.7c.2-.3.3-.6.3-1.1s-.2-.9-.5-1.2-.7-.5-1.2-.7c-.5-.2-1.1-.4-1.7-.5s-1.3-.3-1.9-.5c-.7-.2-1.3-.4-1.9-.6-.6-.2-1.2-.5-1.7-.9s-.9-.9-1.2-1.4c-.3-.6-.5-1.3-.5-2.1s.2-1.7.6-2.4.9-1.2,1.5-1.7,1.4-.8,2.1-1,1.6-.3,2.4-.3,1.8.1,2.7.3,1.6.5,2.3,1,1.2,1.1,1.6,1.8.6,1.6.6,2.6h-3.8c0-.5-.1-1-.3-1.3s-.4-.6-.7-.8-.7-.3-1.1-.4-.9-.1-1.3-.1-.6,0-1,.1c-.3,0-.6.2-.9.3-.3.2-.5.4-.6.6s-.2.6-.2.9,0,.6.2.9c.1.2.4.4.8.6s.9.4,1.6.5c.7.2,1.6.4,2.7.7.2,0,.5.1.9.2.3.1.7.2,1.1.4.4.2.8.4,1.2.6.4.2.7.5,1.1.9.3.4.6.8.8,1.3.2.5.3,1.1.3,1.8s-.2,1.6-.5,2.3c-.3.7-.8,1.3-1.4,1.8s-1.4.9-2.3,1.2c-.9.3-2,.4-3.2.4s-1.9-.1-2.9-.4-1.7-.6-2.4-1.2-1.3-1.2-1.7-2c-.4-.8-.6-1.7-.6-2.8h3.8Z"
       style="fill: #fff;"
       id="path17" />
    <path
       d="m578.5,502.3h4l6.6,17.8h-4l-1.4-3.9h-6.6l-1.4,3.9h-3.9l6.7-17.8Zm-.4,10.9h4.6l-2.2-6.5h0l-2.3,6.5Z"
       style="fill: #fff;"
       id="path18" />
  </g>
</svg>
