<?xml version="1.0" encoding="UTF-8" standalone="no"?>
<svg
   xmlns:dc="http://purl.org/dc/elements/1.1/"
   xmlns:cc="http://creativecommons.org/ns#"
   xmlns:rdf="http://www.w3.org/1999/02/22-rdf-syntax-ns#"
   xmlns:svg="http://www.w3.org/2000/svg"
   xmlns="http://www.w3.org/2000/svg"
   width="710.08"
   height="596.69"
   viewBox="0 0 710.08 596.69"
   version="1.1"
   id="svg3128">
  <metadata
     id="metadata3134">
    <rdf:RDF>
      <cc:Work
         rdf:about="">
        <dc:format>image/svg+xml</dc:format>
        <dc:type
           rdf:resource="http://purl.org/dc/dcmitype/StillImage" />
        <dc:title>MK3_bottom</dc:title>
      </cc:Work>
    </rdf:RDF>
  </metadata>
  <defs
     id="defs3132" />
  <title
     id="title2792">MK3_bottom</title>
    <path
     d="M377.71,502.59a8,8,0,0,1,3.44.72,7.6,7.6,0,0,1,2.58,1.95,8.78,8.78,0,0,1,1.62,2.85,10.85,10.85,0,0,1,0,6.94,8.67,8.67,0,0,1-1.62,2.85,7.45,7.45,0,0,1-2.58,1.94,8.71,8.71,0,0,1-6.89,0,7.64,7.64,0,0,1-2.58-1.94,8.67,8.67,0,0,1-1.62-2.85,11,11,0,0,1,0-6.94,8.78,8.78,0,0,1,1.62-2.85,7.8,7.8,0,0,1,2.58-1.95A8,8,0,0,1,377.71,502.59Zm0,2.45a4.94,4.94,0,0,0-2.37.55,4.7,4.7,0,0,0-1.62,1.48,6.87,6.87,0,0,0-.92,2.1,9.75,9.75,0,0,0,0,4.8,6.87,6.87,0,0,0,.92,2.1,4.7,4.7,0,0,0,1.62,1.48,4.94,4.94,0,0,0,2.37.55,4.87,4.87,0,0,0,2.36-.55,4.7,4.7,0,0,0,1.62-1.48,6.64,6.64,0,0,0,.92-2.1,9.45,9.45,0,0,0,0-4.8,6.64,6.64,0,0,0-.92-2.1,4.7,4.7,0,0,0-1.62-1.48A4.87,4.87,0,0,0,377.71,505Z"
     transform="translate(0.14 0.14)"
     fill="#fff"
     id="path3068" />
  <path
     d="M388.65,503h8.18a6.32,6.32,0,0,1,4.25,1.23,4.23,4.23,0,0,1,1.42,3.4,5,5,0,0,1-.36,2,4.42,4.42,0,0,1-.84,1.3,3.4,3.4,0,0,1-.95.71c-.31.14-.54.23-.68.28V512a2.88,2.88,0,0,1,.82.24,2.38,2.38,0,0,1,.83.61,3.38,3.38,0,0,1,.64,1.09,4.82,4.82,0,0,1,.25,1.69,15.32,15.32,0,0,0,.23,2.74,3.59,3.59,0,0,0,.71,1.77h-3.22a2.88,2.88,0,0,1-.4-1.23c0-.44-.06-.88-.06-1.29a12,12,0,0,0-.14-2,3.57,3.57,0,0,0-.53-1.42,2.18,2.18,0,0,0-1-.82,4.53,4.53,0,0,0-1.69-.27h-4.42v7.06h-3Zm3,7.8h4.92a3.17,3.17,0,0,0,2.19-.68,2.68,2.68,0,0,0,.74-2.05,3.21,3.21,0,0,0-.24-1.34,1.94,1.94,0,0,0-.66-.8,2.39,2.39,0,0,0-1-.38,5.83,5.83,0,0,0-1.12-.1h-4.87Z"
     transform="translate(0.14 0.14)"
     fill="#fff"
     id="path3070" />
  <path
     d="M405.55,503h3v17.14h-3Z"
     transform="translate(0.14 0.14)"
     fill="#fff"
     id="path3072" />
  <path
     d="M427.17,520.14h-1.92l-.46-2a7.15,7.15,0,0,1-2.4,1.9,6.83,6.83,0,0,1-2.76.53,8.11,8.11,0,0,1-3.44-.71,7.45,7.45,0,0,1-2.58-1.94,8.67,8.67,0,0,1-1.62-2.85,11,11,0,0,1,0-6.94,8.78,8.78,0,0,1,1.62-2.85,7.6,7.6,0,0,1,2.58-1.95,8,8,0,0,1,3.44-.72,9.3,9.3,0,0,1,2.66.38,6.89,6.89,0,0,1,2.24,1.1,6.1,6.1,0,0,1,1.63,1.83,6.49,6.49,0,0,1,.82,2.55h-2.93a3.73,3.73,0,0,0-1.51-2.55,4.42,4.42,0,0,0-1.35-.64,5.3,5.3,0,0,0-1.56-.22,4.87,4.87,0,0,0-2.36.55,4.7,4.7,0,0,0-1.62,1.48,6.64,6.64,0,0,0-.92,2.1,9.75,9.75,0,0,0,0,4.8,6.64,6.64,0,0,0,.92,2.1,4.7,4.7,0,0,0,1.62,1.48,4.87,4.87,0,0,0,2.36.55,5.84,5.84,0,0,0,2-.3,3.91,3.91,0,0,0,2.43-2.44,6.11,6.11,0,0,0,.33-2h-4.56v-2.28h7.3Z"
     transform="translate(0.14 0.14)"
     fill="#fff"
     id="path3074" />
  <path
     d="M430.43,503h3v17.14h-3Z"
     transform="translate(0.14 0.14)"
     fill="#fff"
     id="path3076" />
  <path
     d="M437,503h3.16L448,515.63h0V503h2.85v17.14h-3.17l-7.8-12.6h-.07v12.6H437Z"
     transform="translate(0.14 0.14)"
     fill="#fff"
     id="path3078" />
  <path
     d="M459,503h3.19l6.6,17.14h-3.22L464,515.6h-6.84l-1.61,4.54h-3.1ZM458,513.32h5.23L460.63,506h-.08Z"
     transform="translate(0.14 0.14)"
     fill="#fff"
     id="path3080" />
  <path
     d="M470.44,503h3v14.55h8.71v2.59H470.44Z"
     transform="translate(0.14 0.14)"
     fill="#fff"
     id="path3082" />
  <path
     d="M490.89,503h7.56a7.15,7.15,0,0,1,3,.53,4.61,4.61,0,0,1,1.78,1.32,4.38,4.38,0,0,1,.85,1.73,6.93,6.93,0,0,1,.23,1.73,6.78,6.78,0,0,1-.23,1.71,4.4,4.4,0,0,1-.85,1.72,4.59,4.59,0,0,1-1.78,1.31,7.34,7.34,0,0,1-3,.51h-4.56v6.58h-3Zm3,8.11h4.39a3.7,3.7,0,0,0,1-.14,3,3,0,0,0,1-.47,2.45,2.45,0,0,0,.72-.86,3,3,0,0,0,.27-1.36,3.5,3.5,0,0,0-.24-1.39,2.18,2.18,0,0,0-.65-.88,2.35,2.35,0,0,0-.93-.44,5.09,5.09,0,0,0-1.13-.12h-4.44Z"
     transform="translate(0.14 0.14)"
     fill="#fff"
     id="path3084" />
  <path
     d="M506.9,503h8.18a6.34,6.34,0,0,1,4.25,1.23,4.26,4.26,0,0,1,1.42,3.4,4.78,4.78,0,0,1-.37,2,4.41,4.41,0,0,1-.83,1.3,3.55,3.55,0,0,1-.95.71c-.31.14-.54.23-.69.28V512a2.94,2.94,0,0,1,.83.24,2.47,2.47,0,0,1,.83.61,3.38,3.38,0,0,1,.64,1.09,5.06,5.06,0,0,1,.25,1.69,15.36,15.36,0,0,0,.22,2.74,3.68,3.68,0,0,0,.71,1.77h-3.21a2.75,2.75,0,0,1-.4-1.23c0-.44-.06-.88-.06-1.29a13.09,13.09,0,0,0-.14-2,3.72,3.72,0,0,0-.53-1.42,2.23,2.23,0,0,0-1-.82,4.59,4.59,0,0,0-1.7-.27H509.9v7.06h-3Zm3,7.8h4.92a3.13,3.13,0,0,0,2.18-.68,2.64,2.64,0,0,0,.75-2.05,3.21,3.21,0,0,0-.24-1.34,2,2,0,0,0-.67-.8,2.33,2.33,0,0,0-1-.38,5.73,5.73,0,0,0-1.11-.1H509.9Z"
     transform="translate(0.14 0.14)"
     fill="#fff"
     id="path3086" />
  <path
     d="M523.6,503h3v10c0,.58,0,1.17.08,1.76a4,4,0,0,0,.49,1.59,3,3,0,0,0,1.2,1.17,5.93,5.93,0,0,0,4.53,0,3,3,0,0,0,1.2-1.17,3.94,3.94,0,0,0,.48-1.59,17.44,17.44,0,0,0,.09-1.76V503h3v11a7.48,7.48,0,0,1-.51,2.88,5.38,5.38,0,0,1-1.43,2,5.87,5.87,0,0,1-2.22,1.24,10.32,10.32,0,0,1-5.76,0,6,6,0,0,1-2.22-1.24,5.47,5.47,0,0,1-1.42-2,7.48,7.48,0,0,1-.51-2.88Z"
     transform="translate(0.14 0.14)"
     fill="#fff"
     id="path3088" />
  <path
     d="M543.09,514.43a3.93,3.93,0,0,0,.33,1.68,3.17,3.17,0,0,0,.94,1.14,4,4,0,0,0,1.38.64,6.47,6.47,0,0,0,1.69.21,5.45,5.45,0,0,0,1.68-.23,3.34,3.34,0,0,0,1.13-.59,2,2,0,0,0,.62-.83,2.41,2.41,0,0,0,.2-.94,2,2,0,0,0-.45-1.46,2.54,2.54,0,0,0-1-.66c-.61-.22-1.32-.43-2.12-.63s-1.81-.46-3-.78a6.41,6.41,0,0,1-1.84-.76,4.38,4.38,0,0,1-1.16-1,3.63,3.63,0,0,1-.61-1.23,4.89,4.89,0,0,1-.18-1.32,4.45,4.45,0,0,1,.54-2.24,4.68,4.68,0,0,1,1.43-1.57,6.18,6.18,0,0,1,2-.93,8.81,8.81,0,0,1,2.28-.3,9,9,0,0,1,2.53.35,6.3,6.3,0,0,1,2.09,1,5.17,5.17,0,0,1,1.43,1.72,5.11,5.11,0,0,1,.53,2.37h-3a2.88,2.88,0,0,0-1.13-2.34,4.45,4.45,0,0,0-2.57-.69,5.82,5.82,0,0,0-1.08.11,3.37,3.37,0,0,0-1,.36,2.22,2.22,0,0,0-.75.68,1.86,1.86,0,0,0-.3,1.08,1.82,1.82,0,0,0,.56,1.43,3.54,3.54,0,0,0,1.48.78l.75.21,1.48.39,1.59.42,1.12.3a5.1,5.1,0,0,1,1.46.72,4.55,4.55,0,0,1,1.05,1.05,4.11,4.11,0,0,1,.62,1.26,4.41,4.41,0,0,1,.21,1.34,4.87,4.87,0,0,1-.59,2.46,5.06,5.06,0,0,1-1.55,1.67,6.81,6.81,0,0,1-2.18,1,11,11,0,0,1-2.5.3,10.23,10.23,0,0,1-2.76-.36,6.63,6.63,0,0,1-2.26-1.11,5.37,5.37,0,0,1-1.53-1.91,6.15,6.15,0,0,1-.6-2.74Z"
     transform="translate(0.14 0.14)"
     fill="#fff"
     id="path3090" />
  <path
     d="M561.26,503h3.19l6.6,17.14h-3.22l-1.61-4.54h-6.84l-1.6,4.54h-3.1Zm-1.06,10.32h5.23L562.86,506h-.07Z"
     transform="translate(0.14 0.14)"
     fill="#fff"
     id="path3092" />
  <path
     d="M579,503h2.74v2.59H579Zm0,4.73h2.74v12.41H579Z"
     transform="translate(0.14 0.14)"
     fill="#fff"
     id="path3094" />
  <path
     d="M588.78,510.3a6.82,6.82,0,0,0,1.35-.1,3.71,3.71,0,0,0,1.2-.42,2.33,2.33,0,0,0,.85-.83,2.38,2.38,0,0,0,.32-1.29,2.19,2.19,0,0,0-.73-1.73,2.74,2.74,0,0,0-1.88-.65,2.59,2.59,0,0,0-1.25.29,2.63,2.63,0,0,0-.88.78,3.57,3.57,0,0,0-.51,1.1,4.44,4.44,0,0,0-.15,1.26h-2.73a7,7,0,0,1,.45-2.27,6.06,6.06,0,0,1,1.12-1.81,4.93,4.93,0,0,1,1.72-1.2,5.87,5.87,0,0,1,2.28-.43,6.69,6.69,0,0,1,1.93.29,5.51,5.51,0,0,1,1.7.84,4.08,4.08,0,0,1,1.21,1.4,4,4,0,0,1,.46,2,4.13,4.13,0,0,1-.58,2.22,3.28,3.28,0,0,1-1.8,1.38v.05a3.49,3.49,0,0,1,2.25,1.43,4.72,4.72,0,0,1,.8,2.77,4.65,4.65,0,0,1-.48,2.14,4.84,4.84,0,0,1-1.29,1.61,6.09,6.09,0,0,1-1.9,1,7.71,7.71,0,0,1-4.84-.06,4.88,4.88,0,0,1-1.82-1.19,5.12,5.12,0,0,1-1.12-1.84,7.54,7.54,0,0,1-.4-2.4h2.73a3.78,3.78,0,0,0,.76,2.55,2.87,2.87,0,0,0,2.41,1,3.42,3.42,0,0,0,2.29-.78,2.74,2.74,0,0,0,.93-2.22,2.77,2.77,0,0,0-.39-1.56,2.44,2.44,0,0,0-1-.87,3.85,3.85,0,0,0-1.4-.37,12.06,12.06,0,0,0-1.6,0Z"
     transform="translate(0.14 0.14)"
     fill="#fff"
     id="path3096" />
  <path
     d="M548.43,531.91h2.06v4.75h0a3.05,3.05,0,0,1,.52-.61,3.13,3.13,0,0,1,.68-.46,3.58,3.58,0,0,1,.77-.29,3.19,3.19,0,0,1,.8-.1,4.42,4.42,0,0,1,1.92.39,3.77,3.77,0,0,1,1.36,1.06,4.64,4.64,0,0,1,.81,1.58,6.65,6.65,0,0,1,.27,1.92,6.89,6.89,0,0,1-.24,1.82,4.89,4.89,0,0,1-.74,1.56,3.57,3.57,0,0,1-3,1.48,7.57,7.57,0,0,1-.95-.06,3.93,3.93,0,0,1-.91-.24,3.06,3.06,0,0,1-.78-.47,2.28,2.28,0,0,1-.59-.76h0v1.28h-2Zm7.17,8.21a5.06,5.06,0,0,0-.16-1.23,3.27,3.27,0,0,0-.49-1,2.6,2.6,0,0,0-.81-.74,2.17,2.17,0,0,0-1.12-.28,2.26,2.26,0,0,0-1.95.9,4,4,0,0,0-.66,2.4,4.54,4.54,0,0,0,.18,1.3,2.89,2.89,0,0,0,.51,1,2.69,2.69,0,0,0,.82.68,2.26,2.26,0,0,0,1.1.25,2.21,2.21,0,0,0,1.19-.29,2.47,2.47,0,0,0,.8-.74,3.09,3.09,0,0,0,.45-1.05A5.3,5.3,0,0,0,555.6,540.12Z"
     transform="translate(0.14 0.14)"
     fill="#fff"
     id="path3098" />
  <path
     d="M558.35,535.45h2.25L563,542.4h0l2.36-6.95h2.14l-3.64,9.81c-.17.42-.33.83-.49,1.21a4.62,4.62,0,0,1-.59,1,2.61,2.61,0,0,1-.87.7,3,3,0,0,1-1.32.26,9.73,9.73,0,0,1-1.43-.11v-1.73l.49.08a2.63,2.63,0,0,0,.49,0,1.66,1.66,0,0,0,.59-.09,1,1,0,0,0,.39-.26,1.69,1.69,0,0,0,.26-.41,3.65,3.65,0,0,0,.2-.54l.23-.72Z"
     transform="translate(0.14 0.14)"
     fill="#fff"
     id="path3100" />
  <path
     d="M580.94,540.62a9.81,9.81,0,0,1-.14,1.64,3.52,3.52,0,0,1-.59,1.42,3,3,0,0,1-1.28,1,5.47,5.47,0,0,1-2.22.38,4.33,4.33,0,0,1-1.74-.32,3.29,3.29,0,0,1-1.19-.86,3.57,3.57,0,0,1-.69-1.31,6.08,6.08,0,0,1-.21-1.64v-.68h2.25v.67a3.25,3.25,0,0,0,.37,1.7,1.49,1.49,0,0,0,1.39.6,2.08,2.08,0,0,0,.89-.16,1.31,1.31,0,0,0,.56-.48,2,2,0,0,0,.28-.78,6.81,6.81,0,0,0,.07-1.06v-8.84h2.25Z"
     transform="translate(0.14 0.14)"
     fill="#fff"
     id="path3102" />
  <path
     d="M587.66,545a5,5,0,0,1-2-.37,4.1,4.1,0,0,1-1.48-1,4.46,4.46,0,0,1-.92-1.55,6,6,0,0,1-.31-2,5.88,5.88,0,0,1,.31-2,4.37,4.37,0,0,1,.92-1.55,4.25,4.25,0,0,1,1.48-1,5.51,5.51,0,0,1,4,0,4.25,4.25,0,0,1,1.48,1,4.37,4.37,0,0,1,.92,1.55,5.88,5.88,0,0,1,.31,2,6,6,0,0,1-.31,2,4.46,4.46,0,0,1-.92,1.55,4.1,4.1,0,0,1-1.48,1A5,5,0,0,1,587.66,545Zm0-1.62a2.25,2.25,0,0,0,1.18-.29,2.4,2.4,0,0,0,.83-.75,3.2,3.2,0,0,0,.48-1.06,4.73,4.73,0,0,0,.15-1.19,4.85,4.85,0,0,0-.15-1.19,3,3,0,0,0-.48-1,2.4,2.4,0,0,0-.83-.75,2.57,2.57,0,0,0-2.37,0,2.49,2.49,0,0,0-.83.75,3,3,0,0,0-.48,1,4.85,4.85,0,0,0-.15,1.19,4.73,4.73,0,0,0,.15,1.19,3.2,3.2,0,0,0,.48,1.06,2.49,2.49,0,0,0,.83.75A2.26,2.26,0,0,0,587.66,543.39Z"
     transform="translate(0.14 0.14)"
     fill="#fff"
     id="path3104" />
  <path
     d="M595.61,541.77a1.54,1.54,0,0,0,.69,1.26,2.68,2.68,0,0,0,1.42.36,5.25,5.25,0,0,0,.65,0,3.12,3.12,0,0,0,.7-.17,1.45,1.45,0,0,0,.53-.37,1,1,0,0,0-.1-1.29,2.11,2.11,0,0,0-.69-.41,9,9,0,0,0-1-.26l-1.09-.23a9,9,0,0,1-1.11-.31,3.75,3.75,0,0,1-1-.48A2.34,2.34,0,0,1,594,539a2.44,2.44,0,0,1-.25-1.17,2.08,2.08,0,0,1,.37-1.27,2.66,2.66,0,0,1,.93-.83,4,4,0,0,1,1.26-.44,6.88,6.88,0,0,1,1.33-.13,6.12,6.12,0,0,1,1.37.15,3.84,3.84,0,0,1,1.19.5,2.88,2.88,0,0,1,.88.89,3,3,0,0,1,.44,1.32h-2.14a1.27,1.27,0,0,0-.67-1,3,3,0,0,0-1.22-.25,3.44,3.44,0,0,0-.51,0,2.42,2.42,0,0,0-.56.13,1.21,1.21,0,0,0-.44.29.7.7,0,0,0-.18.5.8.8,0,0,0,.26.61,2.14,2.14,0,0,0,.69.38,6.55,6.55,0,0,0,1,.27l1.12.23a9.92,9.92,0,0,1,1.1.31,3.66,3.66,0,0,1,1,.48,2.47,2.47,0,0,1,.69.78,2.36,2.36,0,0,1,.26,1.15,2.5,2.5,0,0,1-.38,1.4,2.94,2.94,0,0,1-1,.94,4.68,4.68,0,0,1-1.35.52,6.66,6.66,0,0,1-1.46.16,6.44,6.44,0,0,1-1.63-.2,3.79,3.79,0,0,1-1.3-.6,2.91,2.91,0,0,1-.87-1,3.18,3.18,0,0,1-.33-1.43Z"
     transform="translate(0.14 0.14)"
     fill="#fff"
     id="path3106" />
  <path
     d="M605,540.64a3.58,3.58,0,0,0,.15,1,2.54,2.54,0,0,0,.46.88,2.11,2.11,0,0,0,.77.61,2.6,2.6,0,0,0,1.12.22A2.46,2.46,0,0,0,609,543a2.27,2.27,0,0,0,.82-1.16h1.94a3.71,3.71,0,0,1-.56,1.35,3.78,3.78,0,0,1-.95,1,3.93,3.93,0,0,1-1.25.61,5,5,0,0,1-1.45.21,4.9,4.9,0,0,1-1.94-.36,3.91,3.91,0,0,1-1.44-1,4.25,4.25,0,0,1-.88-1.54,6.23,6.23,0,0,1-.29-2,5.68,5.68,0,0,1,.31-1.89,4.83,4.83,0,0,1,.9-1.56,4.23,4.23,0,0,1,3.29-1.47,4.15,4.15,0,0,1,2,.46,4.4,4.4,0,0,1,1.45,1.22,4.87,4.87,0,0,1,.83,1.73,5.31,5.31,0,0,1,.14,2Zm4.79-1.35a3.67,3.67,0,0,0-.21-.94,2.54,2.54,0,0,0-.47-.78,2.43,2.43,0,0,0-.72-.54,2.09,2.09,0,0,0-.94-.21,2.43,2.43,0,0,0-1,.19,2.34,2.34,0,0,0-.75.52,2.68,2.68,0,0,0-.51.79,2.8,2.8,0,0,0-.2,1Z"
     transform="translate(0.14 0.14)"
     fill="#fff"
     id="path3108" />
  <path
     d="M612.5,535.45H614v-.77a4,4,0,0,1,.22-1.43,2,2,0,0,1,.58-.85,1.79,1.79,0,0,1,.82-.39,4.22,4.22,0,0,1,1-.1A6.16,6.16,0,0,1,618,532v1.61a2.59,2.59,0,0,0-.42-.09l-.53,0a1.22,1.22,0,0,0-.72.2.88.88,0,0,0-.29.77v1h1.74V537h-1.74v7.78H614V537H612.5Z"
     transform="translate(0.14 0.14)"
     fill="#fff"
     id="path3110" />
  <path
     d="M624.38,531.91h5.67a5.47,5.47,0,0,1,2.23.39,3.68,3.68,0,0,1,1.33,1,3.51,3.51,0,0,1,.64,1.3,5.74,5.74,0,0,1,.17,1.3,5.57,5.57,0,0,1-.17,1.28,3.55,3.55,0,0,1-.64,1.29,3.45,3.45,0,0,1-1.33,1,5.47,5.47,0,0,1-2.23.39h-3.42v4.93h-2.25Zm2.25,6.08h3.29a2.61,2.61,0,0,0,.77-.11,2.14,2.14,0,0,0,.73-.35,1.83,1.83,0,0,0,.54-.65,2.16,2.16,0,0,0,.21-1,2.67,2.67,0,0,0-.18-1,1.7,1.7,0,0,0-1.19-1,3.73,3.73,0,0,0-.84-.09h-3.33Z"
     transform="translate(0.14 0.14)"
     fill="#fff"
     id="path3112" />
  <path
     d="M636.09,535.45H638v1.8h0a2,2,0,0,1,.36-.73,3.26,3.26,0,0,1,.63-.66,3,3,0,0,1,.81-.48,2.47,2.47,0,0,1,.92-.18l.5,0,.28,0v2l-.44-.06a3.39,3.39,0,0,0-.45,0,2.25,2.25,0,0,0-1.78.81,3,3,0,0,0-.54,1,4.44,4.44,0,0,0-.2,1.37v4.43h-2Z"
     transform="translate(0.14 0.14)"
     fill="#fff"
     id="path3114" />
  <path
     d="M650.6,544.76h-2v-1.3h0a2.79,2.79,0,0,1-1.13,1.13,3,3,0,0,1-1.52.42,3.39,3.39,0,0,1-2.65-.91,4,4,0,0,1-.82-2.74v-5.91h2.05v5.71a2.54,2.54,0,0,0,.47,1.73,1.72,1.72,0,0,0,1.31.5,2.48,2.48,0,0,0,1.08-.2,1.88,1.88,0,0,0,.7-.53,2.06,2.06,0,0,0,.39-.8,4.05,4.05,0,0,0,.12-1v-5.4h2.05Z"
     transform="translate(0.14 0.14)"
     fill="#fff"
     id="path3116" />
  <path
     d="M654.31,541.77A1.56,1.56,0,0,0,655,543a2.7,2.7,0,0,0,1.42.36,5.29,5.29,0,0,0,.66,0,2.91,2.91,0,0,0,.69-.17,1.41,1.41,0,0,0,.54-.37.9.9,0,0,0,.18-.64.89.89,0,0,0-.28-.65,2.06,2.06,0,0,0-.7-.41,8.18,8.18,0,0,0-1-.26l-1.1-.23a9.34,9.34,0,0,1-1.1-.31,3.6,3.6,0,0,1-1-.48,2.23,2.23,0,0,1-.67-.79,2.44,2.44,0,0,1-.26-1.17,2.14,2.14,0,0,1,.37-1.27,2.78,2.78,0,0,1,.94-.83,4,4,0,0,1,1.26-.44,6.86,6.86,0,0,1,1.32-.13,6.21,6.21,0,0,1,1.38.15,4,4,0,0,1,1.19.5,3,3,0,0,1,.88.89,3.17,3.17,0,0,1,.44,1.32h-2.14a1.28,1.28,0,0,0-.68-1,2.9,2.9,0,0,0-1.21-.25,3.46,3.46,0,0,0-.52,0,2.45,2.45,0,0,0-.55.13,1.13,1.13,0,0,0-.44.29.7.7,0,0,0-.18.5.77.77,0,0,0,.26.61,2.09,2.09,0,0,0,.68.38,7.08,7.08,0,0,0,1,.27l1.12.23a10.57,10.57,0,0,1,1.1.31,3.82,3.82,0,0,1,1,.48,2.33,2.33,0,0,1,.68.78,2.25,2.25,0,0,1,.26,1.15,2.42,2.42,0,0,1-.38,1.4,2.94,2.94,0,0,1-1,.94,4.51,4.51,0,0,1-1.34.52,6.73,6.73,0,0,1-1.46.16,6.52,6.52,0,0,1-1.64-.2,3.74,3.74,0,0,1-1.29-.6,2.91,2.91,0,0,1-.87-1,3.18,3.18,0,0,1-.33-1.43Z"
     transform="translate(0.14 0.14)"
     fill="#fff"
     id="path3118" />
  <path
     d="M669.9,542.69a1.05,1.05,0,0,0,.1.54.4.4,0,0,0,.38.16h.22l.29,0v1.42l-.28.08-.35.08-.36,0a1.84,1.84,0,0,1-.31,0,1.93,1.93,0,0,1-1-.25,1.23,1.23,0,0,1-.54-.88,3.69,3.69,0,0,1-1.51.86,5.86,5.86,0,0,1-1.72.27,4.3,4.3,0,0,1-1.2-.17,3.13,3.13,0,0,1-1-.5,2.52,2.52,0,0,1-.7-.85,2.65,2.65,0,0,1-.26-1.2,2.77,2.77,0,0,1,.31-1.4,2.42,2.42,0,0,1,.83-.85,3.87,3.87,0,0,1,1.15-.44,11.51,11.51,0,0,1,1.29-.2,8.81,8.81,0,0,1,1.06-.16,5,5,0,0,0,.89-.15,1.42,1.42,0,0,0,.62-.33.93.93,0,0,0,.22-.68,1,1,0,0,0-.19-.65,1.26,1.26,0,0,0-.47-.38,2,2,0,0,0-.62-.18,5,5,0,0,0-.65,0,2.58,2.58,0,0,0-1.42.36,1.41,1.41,0,0,0-.63,1.12h-2a3.19,3.19,0,0,1,.43-1.5,3,3,0,0,1,1-.95,3.74,3.74,0,0,1,1.32-.5,7.51,7.51,0,0,1,1.51-.15,6.07,6.07,0,0,1,1.35.15,3.94,3.94,0,0,1,1.2.46,2.62,2.62,0,0,1,.85.84,2.26,2.26,0,0,1,.33,1.25Zm-2.06-2.59a2.6,2.6,0,0,1-1.15.37,13.25,13.25,0,0,0-1.37.19,3.6,3.6,0,0,0-.63.15,1.71,1.71,0,0,0-.54.27,1.16,1.16,0,0,0-.36.45,1.51,1.51,0,0,0-.14.67.89.89,0,0,0,.2.58,1.35,1.35,0,0,0,.48.37,2.29,2.29,0,0,0,.61.19,4.54,4.54,0,0,0,.6,0,3.39,3.39,0,0,0,.74-.09,2.68,2.68,0,0,0,.75-.3,2.17,2.17,0,0,0,.58-.55,1.39,1.39,0,0,0,.23-.82Z"
     transform="translate(0.14 0.14)"
     fill="#fff"
     id="path3120" />
  <path
     d="M606.38,507.28h3.16l3.55,10.07h0l3.45-10.07h3.13v12.86h-2.14v-9.92h0L614,520.14h-1.85l-3.57-9.92h0v9.92h-2.14Z"
     transform="translate(0.14 0.14)"
     fill="#fff"
     id="path3122" />
  <path
     d="M622.41,507.28h2.25v5.85l5.73-5.85h2.77L628,512.41l5.49,7.73h-2.81L626.5,514l-1.84,1.82v4.32h-2.25Z"
     transform="translate(0.14 0.14)"
     fill="#fff"
     id="path3124" />
  <path
     d="M637.48,512.76a4.92,4.92,0,0,0,1-.08,2.9,2.9,0,0,0,.9-.31,1.81,1.81,0,0,0,.64-.62,1.86,1.86,0,0,0,.24-1,1.64,1.64,0,0,0-.55-1.3,2.07,2.07,0,0,0-1.41-.49,2,2,0,0,0-.94.22,1.84,1.84,0,0,0-.65.59,2.39,2.39,0,0,0-.39.82,3,3,0,0,0-.11.95h-2.05a5.19,5.19,0,0,1,.34-1.7,4.1,4.1,0,0,1,.84-1.36,3.54,3.54,0,0,1,1.28-.9,4.27,4.27,0,0,1,1.71-.33,5,5,0,0,1,1.45.22,4,4,0,0,1,1.28.63,3.18,3.18,0,0,1,.91,1.05,3.07,3.07,0,0,1,.34,1.47,3.15,3.15,0,0,1-.43,1.67,2.52,2.52,0,0,1-1.35,1v0a2.57,2.57,0,0,1,1.68,1.07,3.46,3.46,0,0,1,.61,2.08,3.53,3.53,0,0,1-.36,1.61,3.67,3.67,0,0,1-1,1.2,4.41,4.41,0,0,1-1.42.77,5.37,5.37,0,0,1-1.71.27,5.27,5.27,0,0,1-1.91-.32,3.54,3.54,0,0,1-1.37-.89,3.71,3.71,0,0,1-.84-1.38,6,6,0,0,1-.31-1.8H636a2.82,2.82,0,0,0,.56,1.91,2.18,2.18,0,0,0,1.81.77,2.56,2.56,0,0,0,1.72-.59,2.05,2.05,0,0,0,.69-1.66,2.11,2.11,0,0,0-.28-1.17,1.93,1.93,0,0,0-.76-.66,3.12,3.12,0,0,0-1.05-.28,11.87,11.87,0,0,0-1.2,0Z"
     transform="translate(0.14 0.14)"
     fill="#fff"
     id="path3126" />
</svg>
