<?xml version="1.0" encoding="UTF-8"?><svg id="a" xmlns="http://www.w3.org/2000/svg" width="710.08" height="596.69" viewBox="0 0 710.08 596.69"><path d="M377.85,502.73c1.19-.02,2.36.23,3.44.72.99.46,1.87,1.12,2.58,1.95.71.84,1.26,1.81,1.62,2.85.76,2.25.76,4.69,0,6.94-.35,1.04-.9,2.01-1.62,2.85-.71.83-1.59,1.49-2.58,1.94-2.2.95-4.69.95-6.89,0-.99-.46-1.87-1.12-2.58-1.94-.72-.84-1.27-1.81-1.62-2.85-.75-2.25-.75-4.69,0-6.94.36-1.04.91-2.01,1.62-2.85.71-.82,1.59-1.49,2.58-1.95,1.08-.49,2.26-.74,3.45-.72ZM377.85,505.18c-.82-.02-1.64.17-2.37.55-.65.36-1.2.87-1.62,1.48-.42.64-.73,1.35-.92,2.1-.4,1.58-.4,3.23,0,4.8.19.75.5,1.46.92,2.1.42.61.97,1.12,1.62,1.48.73.38,1.55.57,2.37.55.82.02,1.63-.17,2.36-.55.65-.36,1.2-.87,1.62-1.48.43-.64.74-1.35.92-2.1.41-1.57.41-3.23,0-4.8-.18-.75-.49-1.46-.92-2.1-.42-.61-.97-1.12-1.62-1.48-.72-.39-1.54-.6-2.36-.59v.04ZM388.79,503.14h8.18c1.52-.12,3.03.32,4.25,1.23.97.86,1.49,2.11,1.42,3.4.02.68-.1,1.36-.36,2-.2.48-.49.92-.84,1.3-.27.29-.59.53-.95.71-.31.14-.54.23-.68.28v.08c.28.04.56.12.82.24.32.14.6.35.83.61.28.32.5.69.64,1.09.18.54.27,1.12.25,1.69,0,.92.07,1.84.23,2.74.07.64.32,1.25.71,1.77h-3.22c-.22-.37-.36-.79-.4-1.23,0-.44-.06-.88-.06-1.29,0-.67-.04-1.34-.14-2-.07-.51-.25-.99-.53-1.42-.24-.37-.59-.65-1-.82-.54-.2-1.11-.29-1.69-.27h-4.42v7.06h-3l-.04-17.17ZM391.79,510.94h4.92c.79.05,1.57-.19,2.19-.68.53-.55.79-1.29.74-2.05.02-.46-.07-.92-.24-1.34-.14-.32-.37-.6-.66-.8-.3-.2-.64-.33-1-.38-.37-.07-.74-.1-1.12-.1h-4.87l.04,5.35ZM405.69,503.14h3v17.14h-3v-17.14ZM427.31,520.28h-1.92l-.46-2c-.65.8-1.47,1.45-2.4,1.9-.87.37-1.81.55-2.76.53-1.18.02-2.36-.22-3.44-.71-.99-.45-1.87-1.11-2.58-1.94-.72-.84-1.27-1.81-1.62-2.85-.75-2.25-.75-4.69,0-6.94.36-1.04.91-2.01,1.62-2.85.71-.83,1.59-1.49,2.58-1.95,1.08-.49,2.25-.74,3.44-.72.9,0,1.8.13,2.66.38.81.23,1.57.6,2.24,1.1.66.49,1.22,1.12,1.63,1.83.45.78.73,1.65.82,2.55h-2.93c-.13-1.02-.68-1.95-1.51-2.55-.41-.29-.87-.5-1.35-.64-.51-.15-1.03-.22-1.56-.22-.82-.02-1.63.17-2.36.55-.65.36-1.2.87-1.62,1.48-.43.64-.74,1.35-.92,2.1-.4,1.58-.4,3.23,0,4.8.18.75.49,1.46.92,2.1.42.61.97,1.12,1.62,1.48.73.38,1.54.57,2.36.55.68.02,1.36-.08,2-.3,1.14-.39,2.04-1.29,2.43-2.44.22-.64.33-1.32.33-2h-4.56v-2.28h7.3l.04,9.04ZM430.57,503.14h3v17.14h-3v-17.14ZM437.14,503.14h3.16l7.84,12.63h0v-12.63h2.85v17.14h-3.17l-7.8-12.6h-.07v12.6h-2.81v-17.14ZM459.14,503.14h3.19l6.6,17.14h-3.22l-1.57-4.54h-6.84l-1.61,4.54h-3.1l6.55-17.14ZM458.14,513.46h5.23l-2.6-7.32h-.08l-2.55,7.32ZM470.58,503.14h3v14.55h8.71v2.59h-11.71v-17.14ZM491.03,503.14h7.56c1.03-.04,2.05.14,3,.53.69.29,1.3.74,1.78,1.32.41.51.7,1.1.85,1.73.15.56.23,1.15.23,1.73,0,.58-.08,1.15-.23,1.71-.15.63-.44,1.22-.85,1.72-.48.58-1.09,1.02-1.78,1.31-.95.38-1.98.55-3,.51h-4.56v6.58h-3v-17.14ZM494.03,511.25h4.39c.34,0,.67-.05,1-.14.36-.09.7-.25,1-.47.3-.23.55-.52.72-.86.19-.43.29-.89.27-1.36.02-.47-.07-.95-.24-1.39-.14-.34-.36-.65-.65-.88-.27-.21-.59-.36-.93-.44-.37-.08-.75-.12-1.13-.12h-4.44v5.66ZM507.04,503.14h8.18c1.52-.11,3.03.32,4.25,1.23.96.86,1.49,2.11,1.42,3.4.02.69-.1,1.37-.37,2-.2.48-.48.92-.83,1.3-.27.29-.6.53-.95.71-.31.14-.54.23-.69.28v.08c.29.04.57.12.83.24.32.14.6.35.83.61.28.32.5.69.64,1.09.18.55.26,1.12.25,1.69,0,.92.06,1.84.22,2.74.08.64.32,1.25.71,1.77h-3.21c-.23-.37-.37-.79-.4-1.23,0-.44-.06-.88-.06-1.29,0-.67-.04-1.34-.14-2-.08-.5-.26-.99-.53-1.42-.24-.37-.59-.65-1-.82-.54-.2-1.12-.29-1.7-.27h-4.45v7.06h-3v-17.17ZM510.04,510.94h4.92c.79.06,1.56-.19,2.18-.68.53-.54.81-1.29.75-2.05.02-.46-.07-.92-.24-1.34-.15-.32-.38-.6-.67-.8-.3-.2-.64-.33-1-.38-.37-.07-.74-.1-1.11-.1h-4.83v5.35ZM523.74,503.14h3v10c0,.58,0,1.17.08,1.76.05.56.22,1.1.49,1.59.28.5.7.9,1.2,1.17,1.45.6,3.08.6,4.53,0,.5-.27.92-.67,1.2-1.17.27-.49.43-1.03.48-1.59.06-.58.09-1.17.09-1.76v-10h3v11c.02.98-.15,1.96-.51,2.88-.32.77-.81,1.45-1.43,2-.64.57-1.4.99-2.22,1.24-1.88.55-3.88.55-5.76,0-.82-.25-1.58-.67-2.22-1.24-.62-.55-1.1-1.23-1.42-2-.36-.92-.53-1.9-.51-2.88v-11ZM543.23,514.57c-.01.58.1,1.15.33,1.68.22.45.54.84.94,1.14.41.3.88.52,1.38.64.55.14,1.12.21,1.69.21.57.01,1.14-.07,1.68-.23.41-.12.79-.32,1.13-.59.28-.22.49-.5.62-.83.13-.3.2-.62.2-.94.05-.53-.11-1.05-.45-1.46-.28-.3-.62-.52-1-.66-.61-.22-1.32-.43-2.12-.63s-1.81-.46-3-.78c-.65-.16-1.27-.41-1.84-.76-.44-.26-.84-.6-1.16-1-.28-.37-.49-.78-.61-1.23-.12-.43-.18-.87-.18-1.32-.02-.78.17-1.55.54-2.24.35-.63.84-1.16,1.43-1.57.61-.43,1.28-.74,2-.93.74-.2,1.51-.3,2.28-.3.86,0,1.71.11,2.53.35.75.2,1.46.54,2.09,1,.6.46,1.08,1.05,1.43,1.72.36.74.55,1.55.53,2.37h-3c.02-.92-.4-1.78-1.13-2.34-.77-.49-1.66-.73-2.57-.69-.36,0-.72.04-1.08.11-.35.07-.69.19-1,.36-.3.17-.56.4-.75.68-.21.32-.31.7-.3,1.08-.03.54.17,1.06.56,1.43.42.37.93.64,1.48.78l.75.21,1.48.39,1.59.42,1.12.3c.52.16,1.02.4,1.46.72.41.29.76.64,1.05,1.05.28.38.49.81.62,1.26.14.43.21.89.21,1.34.02.86-.18,1.71-.59,2.46-.38.67-.91,1.24-1.55,1.67-.66.46-1.4.8-2.18,1-.82.2-1.66.3-2.5.3-.93,0-1.86-.11-2.76-.36-.82-.22-1.58-.6-2.26-1.11-.65-.51-1.17-1.16-1.53-1.91-.41-.85-.61-1.79-.6-2.74l3.04-.05ZM561.4,503.14h3.19l6.6,17.14h-3.22l-1.61-4.54h-6.84l-1.6,4.54h-3.1l6.58-17.14ZM560.34,513.46h5.23l-2.57-7.32h-.07l-2.59,7.32ZM579.14,503.14h2.74v2.59h-2.74v-2.59ZM579.14,507.87h2.74v12.41h-2.74v-12.41ZM588.92,510.44c.45.01.9-.02,1.35-.1.42-.07.83-.21,1.2-.42.35-.2.64-.48.85-.83.23-.39.34-.84.32-1.29.03-.66-.24-1.29-.73-1.73-.52-.44-1.19-.68-1.88-.65-.43,0-.86.09-1.25.29-.35.19-.65.46-.88.78-.23.33-.4.71-.51,1.1-.11.41-.16.83-.15,1.26h-2.73c.02-.78.18-1.54.45-2.27.26-.66.64-1.28,1.12-1.81.48-.52,1.07-.93,1.72-1.2.72-.29,1.5-.44,2.28-.43.65,0,1.3.1,1.93.29.61.18,1.19.46,1.7.84.51.37.92.85,1.21,1.4.32.62.48,1.3.46,2,.02.78-.18,1.55-.58,2.22-.42.66-1.05,1.15-1.8,1.38v.05c.91.16,1.72.67,2.25,1.43.55.82.83,1.79.8,2.77.01.74-.15,1.48-.48,2.14-.31.62-.75,1.17-1.29,1.61-.57.44-1.21.78-1.9,1-1.58.5-3.27.48-4.84-.06-.69-.25-1.31-.66-1.82-1.19-.5-.53-.88-1.15-1.12-1.84-.26-.77-.4-1.58-.4-2.4h2.73c-.06.91.21,1.82.76,2.55.6.7,1.49,1.07,2.41,1,.83.03,1.65-.25,2.29-.78.64-.56.98-1.38.93-2.22.03-.55-.11-1.09-.39-1.56-.25-.38-.59-.68-1-.87-.44-.21-.91-.34-1.4-.37-.53-.04-1.07-.04-1.6,0v-2.09ZM548.57,532.05h2.06v4.75h0c.15-.23.32-.43.52-.61.21-.18.43-.34.68-.46.24-.13.5-.22.77-.29.26-.07.53-.1.8-.1.66-.02,1.32.12,1.92.39.53.24.99.61,1.36,1.06.37.47.64,1.01.81,1.58.18.62.27,1.27.27,1.92,0,.61-.08,1.23-.24,1.82-.15.56-.4,1.09-.74,1.56-.69.96-1.82,1.51-3,1.48-.32,0-.63-.02-.95-.06-.31-.04-.62-.12-.91-.24-.28-.12-.54-.28-.78-.47-.25-.21-.45-.47-.59-.76h0v1.28h-2l.02-12.85ZM555.74,540.26c0-.41-.06-.83-.16-1.23-.1-.36-.27-.7-.49-1-.21-.3-.49-.55-.81-.74-.34-.19-.73-.29-1.12-.28-.76-.05-1.49.29-1.95.9-.47.71-.7,1.55-.66,2.4,0,.44.06.88.18,1.3.1.36.28.7.51,1,.23.28.5.51.82.68.34.17.72.26,1.1.25.42.02.83-.08,1.19-.29.32-.18.59-.44.8-.74.21-.32.37-.68.45-1.05.09-.39.14-.8.14-1.2ZM558.49,535.59h2.25l2.4,6.95h0l2.36-6.95h2.14l-3.64,9.81c-.17.42-.33.83-.49,1.21-.15.36-.35.69-.59,1-.24.29-.53.53-.87.7-.41.19-.87.27-1.32.26-.48,0-.96-.04-1.43-.11v-1.73l.49.08c.16.02.33.02.49,0,.2,0,.4-.02.59-.09.15-.05.28-.14.39-.26.11-.12.19-.26.26-.41.08-.17.15-.35.2-.54l.23-.72-3.46-9.2ZM581.08,540.76c0,.55-.05,1.1-.14,1.64-.09.51-.29,1-.59,1.42-.33.44-.77.79-1.28,1-.71.28-1.46.41-2.22.38-.6.01-1.19-.09-1.74-.32-.46-.19-.86-.49-1.19-.86-.32-.38-.55-.83-.69-1.31-.14-.53-.22-1.09-.21-1.64v-.68h2.25v.67c-.03.59.09,1.18.37,1.7.32.44.85.67,1.39.6.3.01.61-.04.89-.16.23-.1.42-.27.56-.48.15-.24.24-.5.28-.78.05-.35.07-.71.07-1.06v-8.84h2.25v8.72ZM587.8,545.14c-.68.02-1.37-.11-2-.37-.56-.22-1.07-.56-1.48-1-.41-.45-.72-.98-.92-1.55-.22-.64-.32-1.32-.31-2-.01-.68.09-1.36.31-2,.2-.57.51-1.1.92-1.55.42-.43.92-.78,1.48-1,1.29-.5,2.71-.5,4,0,.56.22,1.06.57,1.48,1,.41.45.72.98.92,1.55.22.64.32,1.32.31,2,.01.68-.09,1.36-.31,2-.2.57-.51,1.1-.92,1.55-.41.44-.92.78-1.48,1-.63.26-1.32.39-2,.37ZM587.8,543.52c.41.01.82-.09,1.18-.29.33-.18.62-.44.83-.75.22-.32.39-.68.48-1.06.1-.39.15-.79.15-1.19,0-.4-.05-.8-.15-1.19-.1-.36-.26-.7-.48-1-.21-.31-.5-.57-.83-.75-.74-.39-1.63-.39-2.37,0-.33.18-.61.44-.83.75-.22.3-.38.64-.48,1-.1.39-.15.79-.15,1.19,0,.4.05.8.15,1.19.09.38.26.74.48,1.06.22.31.5.57.83.75.36.21.77.31,1.19.3h0ZM595.75,541.91c0,.51.27.98.69,1.26.43.25.92.37,1.42.36.22.01.43.01.65,0,.24-.03.47-.09.7-.17.2-.08.38-.21.53-.37.29-.4.24-.94-.1-1.29-.2-.18-.44-.32-.69-.41-.33-.11-.66-.19-1-.26l-1.09-.23c-.38-.08-.75-.18-1.11-.31-.36-.11-.69-.27-1-.48-.27-.24-.48-.54-.61-.87-.18-.36-.27-.77-.25-1.17-.02-.45.11-.9.37-1.27.24-.35.56-.63.93-.83.39-.22.82-.36,1.26-.44.44-.09.88-.13,1.33-.13.46,0,.92.05,1.37.15.42.1.82.27,1.19.5.36.23.66.53.88.89.25.4.4.85.44,1.32h-2.14c-.04-.42-.29-.8-.67-1-.38-.17-.8-.25-1.22-.25-.17-.01-.34-.01-.51,0-.19.02-.38.06-.56.13-.17.06-.32.16-.44.29-.12.14-.19.32-.18.5,0,.23.09.45.26.61.2.17.44.3.69.38.33.12.66.21,1,.27l1.12.23c.37.08.74.19,1.1.31.36.11.69.27,1,.48.28.21.52.47.69.78.18.36.27.75.26,1.15.01.49-.12.98-.38,1.4-.25.39-.6.71-1,.94-.42.24-.88.42-1.35.52-.48.11-.97.16-1.46.16-.55,0-1.1-.06-1.63-.2-.47-.12-.91-.32-1.3-.6-.36-.26-.66-.6-.87-1-.22-.44-.33-.93-.33-1.43l2.01.08ZM605.14,540.78c0,.34.05.68.15,1,.09.32.25.62.46.88.21.26.47.47.77.61.35.16.73.23,1.12.22.52.05,1.05-.08,1.5-.35.39-.29.68-.7.82-1.16h1.94c-.1.48-.29.94-.56,1.35-.25.39-.57.73-.95,1-.38.28-.8.48-1.25.61-.47.14-.96.21-1.45.21-.66.01-1.32-.11-1.94-.36-.55-.22-1.04-.56-1.44-1-.4-.45-.7-.97-.88-1.54-.2-.65-.3-1.32-.29-2,0-.64.1-1.28.31-1.89.2-.57.5-1.1.9-1.56.82-.96,2.03-1.49,3.29-1.47.69-.02,1.38.14,2,.46.57.3,1.06.71,1.45,1.22.39.52.67,1.1.83,1.73.17.65.22,1.33.14,2l-6.92.04ZM609.93,539.43c-.03-.32-.1-.64-.21-.94-.11-.29-.27-.55-.47-.78-.2-.22-.45-.41-.72-.54-.29-.14-.61-.21-.94-.21-.34,0-.68.06-1,.19-.28.12-.54.3-.75.52-.22.23-.39.5-.51.79-.13.32-.2.66-.2,1l4.8-.03ZM612.64,535.59h1.5v-.77c-.01-.49.06-.97.22-1.43.12-.33.32-.62.58-.85.24-.2.52-.33.82-.39.33-.07.66-.11,1-.1.46-.02.92,0,1.38.09v1.61c-.14-.04-.28-.07-.42-.09h-.53c-.26-.01-.51.06-.72.2-.22.19-.33.48-.29.77v1h1.74v1.51h-1.74v7.78h-2.04v-7.78h-1.5v-1.55ZM624.52,532.05h5.67c.76-.03,1.52.11,2.23.39.51.23.97.57,1.33,1,.3.38.52.83.64,1.3.11.43.16.86.17,1.3,0,.43-.06.86-.17,1.28-.12.47-.34.91-.64,1.29-.36.44-.81.78-1.33,1-.71.28-1.47.42-2.23.39h-3.42v4.93h-2.25v-12.88ZM626.77,538.13h3.29c.26,0,.52-.04.77-.11.26-.07.51-.19.73-.35.23-.17.41-.39.54-.65.15-.31.22-.65.21-1,0-.34-.06-.68-.18-1-.21-.51-.66-.88-1.19-1-.28-.06-.56-.09-.84-.09h-3.33v4.2ZM636.23,535.59h1.91v1.8h0c.07-.27.19-.51.36-.73.18-.25.39-.47.63-.66.24-.2.52-.36.81-.48.29-.12.6-.18.92-.18h.78v2l-.44-.06c-.15,0-.3,0-.45,0-.69-.02-1.34.28-1.78.81-.24.3-.43.64-.54,1-.14.44-.21.91-.2,1.37v4.43h-2v-9.3ZM650.74,544.9h-2v-1.3h0c-.26.48-.65.87-1.13,1.13-.46.27-.98.42-1.52.42-.97.09-1.94-.24-2.65-.91-.6-.78-.89-1.76-.82-2.74v-5.91h2.05v5.71c-.06.61.11,1.23.47,1.73.35.35.82.53,1.31.5.37.01.74-.05,1.08-.2.27-.12.51-.3.7-.53.19-.24.32-.51.39-.8.08-.33.12-.66.12-1v-5.4h2.05l-.05,9.3ZM654.45,541.91c.02.5.28.95.69,1.23.43.25.92.37,1.42.36.22.01.44.01.66,0,.24-.03.47-.09.69-.17.21-.08.39-.21.54-.37.14-.18.2-.41.18-.64,0-.25-.1-.48-.28-.65-.2-.18-.44-.32-.7-.41-.33-.11-.66-.19-1-.26l-1.1-.23c-.37-.08-.74-.18-1.1-.31-.36-.11-.69-.27-1-.48-.28-.21-.51-.48-.67-.79-.18-.36-.27-.76-.26-1.17-.01-.45.12-.9.37-1.27.25-.34.57-.63.94-.83.39-.22.82-.36,1.26-.44.43-.09.88-.13,1.32-.13.46,0,.93.05,1.38.15.42.1.82.27,1.19.5.35.23.65.53.88.89.24.4.39.85.44,1.32h-2.14c-.04-.43-.3-.8-.68-1-.38-.17-.79-.25-1.21-.25-.17-.01-.35-.01-.52,0-.19.02-.37.07-.55.13-.17.06-.32.16-.44.29-.12.14-.19.32-.18.5,0,.23.09.46.26.61.2.17.43.3.68.38.33.11.66.2,1,.27l1.12.23c.37.08.74.19,1.1.31.35.11.69.27,1,.48.28.21.51.47.68.78.19.35.28.75.26,1.15.02.49-.11.98-.38,1.4-.25.39-.6.71-1,.94-.42.24-.87.42-1.34.52-.48.11-.97.16-1.46.16-.55,0-1.1-.06-1.64-.2-.46-.12-.9-.32-1.29-.6-.36-.26-.66-.6-.87-1-.22-.44-.33-.93-.33-1.43l2.08.03ZM670.04,542.83c-.02.19.02.37.1.54.09.12.23.18.38.16h.51v1.42l-.28.08-.35.08h-.36c-.1,0-.21,0-.31,0-.35,0-.7-.08-1-.25-.3-.2-.5-.52-.54-.88-.43.4-.95.7-1.51.86-.56.18-1.14.27-1.72.27-.41,0-.81-.06-1.2-.17-.36-.11-.7-.27-1-.5-.29-.23-.53-.52-.7-.85-.18-.37-.27-.79-.26-1.2-.02-.49.09-.97.31-1.4.2-.35.49-.64.83-.85.36-.21.75-.36,1.15-.44.43-.09.86-.16,1.29-.2.35-.07.7-.13,1.06-.16.3-.02.6-.07.89-.15.23-.06.44-.17.62-.33.16-.19.24-.43.22-.68.01-.23-.05-.46-.19-.65-.12-.16-.28-.29-.47-.38-.2-.09-.4-.15-.62-.18-.22-.01-.43-.01-.65,0-.5-.02-.99.11-1.42.36-.38.25-.61.67-.63,1.12h-2c.02-.53.16-1.04.43-1.5.26-.39.6-.72,1-.95.4-.25.85-.42,1.32-.5.5-.1,1-.15,1.51-.15.45,0,.91.05,1.35.15.42.09.83.24,1.2.46.34.21.64.5.85.84.23.38.34.81.33,1.25l-.14,4.78ZM667.98,540.24c-.35.21-.74.34-1.15.37-.46.04-.92.1-1.37.19-.21.03-.42.08-.63.15-.19.06-.38.15-.54.27-.16.12-.28.27-.36.45-.1.21-.15.44-.14.67,0,.21.07.42.2.58.13.16.29.28.48.37.19.09.4.16.61.19.2.01.4.01.6,0,.25,0,.5-.03.74-.09.26-.06.52-.16.75-.3.23-.15.42-.33.58-.55.16-.24.24-.53.23-.82v-1.48ZM606.52,507.42h3.16l3.55,10.07h0l3.45-10.07h3.13v12.86h-2.14v-9.92h0l-3.53,9.92h-1.85l-3.57-9.92h0v9.92h-2.14l-.06-12.86ZM622.55,507.42h2.25v5.85l5.73-5.85h2.77l-5.16,5.13,5.49,7.73h-2.81l-4.18-6.14-1.84,1.82v4.32h-2.25v-12.86ZM637.62,512.9c.34,0,.67-.02,1-.08.32-.05.62-.16.9-.31.26-.15.48-.36.64-.62.17-.3.26-.65.24-1,.02-.49-.18-.97-.55-1.3-.39-.33-.9-.51-1.41-.49-.33,0-.65.07-.94.22-.26.14-.48.34-.65.59-.18.25-.31.52-.39.82-.09.31-.12.63-.11.95h-2.05c.02-.58.13-1.16.34-1.7.19-.5.47-.97.84-1.36.35-.39.79-.7,1.28-.9.54-.23,1.12-.34,1.71-.33.49,0,.98.08,1.45.22.46.13.89.35,1.28.63.38.28.69.64.91,1.05.23.45.35.96.34,1.47.01.59-.13,1.16-.43,1.67-.32.48-.8.83-1.35,1h0c.68.12,1.29.5,1.68,1.07.42.61.63,1.34.61,2.08,0,.56-.11,1.11-.36,1.61-.24.47-.58.88-1,1.2-.42.34-.9.6-1.42.77-.55.18-1.13.27-1.71.27-.65.01-1.3-.1-1.91-.32-.52-.19-.99-.49-1.37-.89-.38-.39-.66-.86-.84-1.38-.19-.58-.3-1.19-.31-1.8h2.1c-.05.68.15,1.36.56,1.91.45.53,1.12.82,1.81.77.63.02,1.24-.19,1.72-.59.47-.42.73-1.03.69-1.66.02-.41-.08-.82-.28-1.17-.19-.28-.45-.51-.76-.66-.33-.15-.69-.25-1.05-.28-.4-.02-.8-.02-1.2,0v-1.46Z" style="fill:#fff;"/></svg>