<?xml version="1.0" encoding="UTF-8"?><svg id="a" xmlns="http://www.w3.org/2000/svg" width="710.1" height="596.7" viewBox="0 0 710.1 596.7"><path d="M567.6,522.5v5.2M709.4.7H.7M.7.7v595.3M709.4,596V.7M.7,596h708.7M142.4.7v594.9M284.2.7v594.9M1.2,581.8h708.2M1.2,440.1h708.2M1.2,298.4h708.2M1.2,156.6h708.2M1.2,14.9h708.2M425.9.7v498.7M425.9,522.6v73.1M567.6.7v498.7M567.6,548.6v46.8" style="fill:none; stroke:#fff; stroke-linecap:round; stroke-linejoin:round; stroke-width:1.4px;"/><path d="M85.8.7v595.2M114.1.7v595.2M170.8.7v595.2M199.1.7v595.2M227.5.7v595.2M255.8.7v595.2M312.5.7v595.2M340.9.7v595.2M681,.7v595.2M29.1.7v595.2M57.4.7v595.2M1.5,468.4h707.9M1.5,496.8h707.9M1.5,525.1h707.9M1.5,553.5h707.9M1.5,411.7h707.9M1.5,383.4h707.9M1.5,355h707.9M1.5,326.7h707.9M1.5,270h707.9M1.5,241.7h707.9M1.5,213.3h707.9M1.5,185h707.9M1.5,128.3h707.9M1.5,99.9h707.9M1.5,71.6h707.9M1.5,43.2h707.9M369.2.7v521.9M369.2,522.6v73.1M397.6.7v498.7M397.5,522.6v73.1M454.2.7v498.7M454.3,522.6v73M482.6.7v498.7M482.6,522.6v73M510.9.7v498.7M510.9,522.6v73M539.3.7v498.7M539.3,522.6v73M596,.7v498.7M624.3.7v498.7M652.7.7v498.7M652.7,522.5v5.2M652.6,548.4v47.6M624.3,522.5v5.2M624.3,548.4v47.6M596,522.5v5.2M596,548.4v47.6" style="fill:none; stroke:#fff; stroke-linecap:round; stroke-linejoin:round; stroke-width:.4px;"/><path d="M548.6,532.1h2.1v4.8h0c.1-.2.3-.4.5-.6.2-.2.4-.3.7-.5.2-.1.5-.2.8-.3.3,0,.5-.1.8,0,.7,0,1.3.1,1.9.4.5.2,1,.6,1.4,1.1s.6,1,.8,1.6.3,1.3.3,1.9,0,1.2-.2,1.8-.4,1.1-.7,1.6c-.7,1-1.8,1.5-3,1.5h-1c-.3,0-.6-.1-.9-.2-.3-.1-.5-.3-.8-.5-.2-.2-.4-.5-.6-.8h0v1.3h-2v-12.9l-.1-.2ZM555.8,540.3c0-.4,0-.8-.2-1.2-.1-.4-.3-.7-.5-1s-.5-.6-.8-.7c-.3-.2-.7-.3-1.1-.3-.8,0-1.5.3-2,.9-.5.7-.7,1.6-.7,2.4,0,.4,0,.9.2,1.3.1.4.3.7.5,1s.5.5.8.7.7.3,1.1.2c.4,0,.8,0,1.2-.3.3-.2.6-.4.8-.7s.4-.7.5-1c0-.4.1-.8.1-1.2l.1-.1ZM558.5,535.6h2.2l2.4,7h0l2.4-7h2.1l-3.6,9.8c-.2.4-.3.8-.5,1.2s-.4.7-.6,1c-.2.3-.5.5-.9.7s-.9.3-1.3.3c-.5,0-1,0-1.4-.1v-1.7h1.6c.1,0,.3-.1.4-.3.1-.1.2-.3.3-.4,0-.2.1-.4.2-.5l.2-.7-3.5-9.2v-.1ZM581.1,540.8c0,.5,0,1.1-.1,1.6,0,.5-.3,1-.6,1.4s-.8.8-1.3,1c-.7.3-1.5.4-2.2.4-.6,0-1.2,0-1.7-.3-.5-.2-.9-.5-1.2-.9s-.6-.8-.7-1.3c-.1-.5-.2-1.1-.2-1.6v-.7h2.2v.7c0,.6,0,1.2.4,1.7.3.4.9.7,1.4.6.3,0,.6,0,.9-.2.2-.1.4-.3.6-.5.1-.2.2-.5.3-.8v-9.9h2.2v8.8ZM587.8,545.1c-.7,0-1.4-.1-2-.4-.6-.2-1.1-.6-1.5-1s-.7-1-.9-1.5c-.2-.6-.3-1.3-.3-2s0-1.4.3-2c.2-.6.5-1.1.9-1.5s.9-.8,1.5-1c1.3-.5,2.7-.5,4,0,.6.2,1.1.6,1.5,1s.7,1,.9,1.5c.2.6.3,1.3.3,2s0,1.4-.3,2c-.2.6-.5,1.1-.9,1.5s-.9.8-1.5,1c-.6.3-1.3.4-2,.4ZM587.8,543.5c.4,0,.8,0,1.2-.3.3-.2.6-.4.8-.8.2-.3.4-.7.5-1.1.1-.4.2-.8.2-1.2s0-.8-.2-1.2c0-.4-.3-.7-.5-1s-.5-.6-.8-.8c-.7-.4-1.6-.4-2.4,0-.3.2-.6.4-.8.8-.2.3-.4.6-.5,1,0,.4-.1.8-.2,1.2,0,.4,0,.8.2,1.2,0,.4.3.7.5,1.1.2.3.5.6.8.8.4.2.8.3,1.2.3h0ZM595.7,541.9c0,.5.3,1,.7,1.3.4.2.9.4,1.4.4h.7c.2,0,.5,0,.7-.2.2,0,.4-.2.5-.4.3-.4.2-.9,0-1.3-.2-.2-.4-.3-.7-.4-.3-.1-.7-.2-1-.3l-1.1-.2c-.4,0-.7-.2-1.1-.3-.4-.1-.7-.3-1-.5s-.5-.5-.6-.9c-.2-.4-.3-.8-.2-1.2,0-.5.1-.9.4-1.3.2-.3.6-.6.9-.8.4-.2.8-.4,1.3-.4.4,0,.9-.1,1.3-.1.5,0,.9,0,1.4.2.4,0,.8.3,1.2.5s.7.5.9.9.4.9.4,1.3h-2.1c0-.4-.3-.8-.7-1s-.8-.3-1.2-.2h-.5c-.2,0-.4,0-.6.1-.2,0-.3.2-.4.3-.1.1-.2.3-.2.5s0,.5.3.6c.2.2.4.3.7.4.3.1.7.2,1,.3l1.1.2c.4,0,.7.2,1.1.3.4.1.7.3,1,.5s.5.5.7.8c.2.4.3.8.3,1.2,0,.5-.1,1-.4,1.4-.3.4-.6.7-1,.9s-.9.4-1.3.5c-.5.1-1,.2-1.5.2s-1.1,0-1.6-.2c-.5-.1-.9-.3-1.3-.6-.4-.3-.7-.6-.9-1s-.3-.9-.3-1.4h2l-.3-.1ZM605.1,540.8c0,.3,0,.7.2,1,0,.3.3.6.5.9.2.3.5.5.8.6.4.2.7.2,1.1.2.5,0,1.1,0,1.5-.3s.7-.7.8-1.2h1.9c0,.5-.3.9-.6,1.3-.3.4-.6.7-1,1s-.8.5-1.2.6c-.5.1-1,.2-1.5.2-.7,0-1.3-.1-1.9-.4-.5-.2-1-.6-1.4-1s-.7-1-.9-1.5c-.2-.6-.3-1.3-.3-2,0-.6.1-1.3.3-1.9.2-.6.5-1.1.9-1.6.8-1,2-1.5,3.3-1.5.7,0,1.4.1,2,.5.6.3,1.1.7,1.5,1.2s.7,1.1.8,1.7c.2.7.2,1.3.1,2h-6.9v.2ZM609.9,539.5c0-.3,0-.6-.2-.9-.1-.3-.3-.6-.5-.8s-.4-.4-.7-.5-.6-.2-.9-.2-.7,0-1,.2c-.3.1-.5.3-.8.5-.2.2-.4.5-.5.8s-.2.7-.2,1h4.8v-.1ZM612.6,535.6h1.5v-.8c0-.5,0-1,.2-1.4.1-.3.3-.6.6-.8.2-.2.5-.3.8-.4.3,0,.7-.1,1,0h1.4v1.6h-.9c-.3,0-.5,0-.7.2s-.3.5-.3.8v1h1.7v1.5h-1.7v7.8h-2v-7.8h-1.5v-1.5l-.1-.2ZM624.5,532.1h5.7c.8,0,1.5.1,2.2.4.5.2,1,.6,1.3,1s.5.8.6,1.3c.1.4.2.9.2,1.3s0,.9-.2,1.3c-.1.5-.3.9-.6,1.3-.4.4-.8.8-1.3,1-.7.3-1.5.4-2.2.4h-3.4v4.9h-2.2v-12.9h-.1ZM626.7,538.2h3.3c.3,0,.5,0,.8-.1.3,0,.5-.2.7-.3.2-.2.4-.4.5-.7s.2-.7.2-1,0-.7-.2-1c-.2-.5-.7-.9-1.2-1h-4.1v4.2-.1ZM636.2,535.6h1.9v1.8h0c0-.3.2-.5.4-.7s.4-.5.6-.7c.2-.2.5-.4.8-.5s.6-.2.9-.2h.8v2h-.9c-.7,0-1.3.3-1.8.8-.2.3-.4.6-.5,1s-.2.9-.2,1.4v4.4h-2v-9.3ZM650.7,544.9h-2v-1.3h0c-.3.5-.7.9-1.1,1.1-.5.3-1,.4-1.5.4-1,0-1.9-.2-2.7-.9-.6-.8-.9-1.8-.8-2.7v-5.9h2v5.7c0,.6.1,1.2.5,1.7.3.3.8.5,1.3.5.4,0,.7,0,1.1-.2.3-.1.5-.3.7-.5s.3-.5.4-.8c0-.3.1-.7.1-1v-5.4h2v9.3h0ZM654.4,541.9c0,.5.3,1,.7,1.2s.9.4,1.4.4h.7c.2,0,.5,0,.7-.2.2,0,.4-.2.5-.4s.2-.4.2-.6-.1-.5-.3-.7-.4-.3-.7-.4c-.3-.1-.7-.2-1-.3l-1.1-.2c-.4,0-.7-.2-1.1-.3-.4-.1-.7-.3-1-.5s-.5-.5-.7-.8c-.2-.4-.3-.8-.3-1.2,0-.5.1-.9.4-1.3.2-.3.6-.6.9-.8.4-.2.8-.4,1.3-.4.4,0,.9-.1,1.3-.1.5,0,.9,0,1.4.2.4.1.8.3,1.2.5s.7.5.9.9.4.9.4,1.3h-2.1c0-.4-.3-.8-.7-1s-.8-.3-1.2-.2h-.5c-.2,0-.4,0-.5.1-.2,0-.3.2-.4.3-.1.1-.2.3-.2.5s0,.5.3.6c.2.2.4.3.7.4.3.1.7.2,1,.3l1.1.2c.4,0,.7.2,1.1.3.4.1.7.3,1,.5s.5.5.7.8c.2.4.3.8.3,1.2,0,.5-.1,1-.4,1.4-.3.4-.6.7-1,.9s-.9.4-1.3.5c-.5.1-1,.2-1.5.2-.6,0-1.1,0-1.6-.2-.5-.1-.9-.3-1.3-.6-.4-.3-.7-.6-.9-1s-.3-.9-.3-1.4h2.1l-.2-.1ZM670,542.8v.5c0,.1.2.2.4.2h.5v1.4h-.3l-.3.2h-.7c-.3,0-.7,0-1-.2s-.5-.5-.5-.9c-.4.4-.9.7-1.5.9s-1.1.3-1.7.3c-.4,0-.8,0-1.2-.2-.4-.1-.7-.3-1-.5s-.5-.5-.7-.8c-.2-.4-.3-.8-.3-1.2,0-.5,0-1,.3-1.4.2-.3.5-.6.8-.8.4-.2.7-.4,1.2-.4.4,0,.9-.2,1.3-.2.3,0,.7-.1,1.1-.2.3,0,.6,0,.9-.2.2,0,.4-.2.6-.3.2-.2.2-.4.2-.7,0-.2,0-.5-.2-.7-.1-.2-.3-.3-.5-.4-.2,0-.4-.2-.6-.2h-.7c-.5,0-1,.1-1.4.4-.4.3-.6.7-.6,1.1h-2c0-.5.2-1,.4-1.5.3-.4.6-.7,1-1,.4-.2.9-.4,1.3-.5.5-.1,1-.2,1.5-.2s.9,0,1.3.2c.4,0,.8.2,1.2.5.3.2.6.5.8.8.2.4.3.8.3,1.2v4.8h.1ZM667.9,540.2c-.3.2-.7.3-1.2.4-.5,0-.9.1-1.4.2-.2,0-.4,0-.6.2-.2,0-.4.1-.5.3-.2.1-.3.3-.4.5,0,.2-.1.4-.1.7,0,.2,0,.4.2.6.1.2.3.3.5.4.2,0,.4.2.6.2h1.3c.3,0,.5-.2.8-.3.2-.1.4-.3.6-.5.2-.2.2-.5.2-.8v-1.9Z" style="fill:#fff;"/><path d="M596.7,502.2h5.6l3.2,9.6c.5,1.5.8,2.6.8,2.6h0s.3-1.1.8-2.6l3.2-9.6h5.6v17.8h-3.8v-14h0s-.4,1.7-1.1,3.8l-3.4,10.2h-2.9l-3.4-10.2c-.7-2.1-1.1-3.8-1.1-3.8h0v13.9h-3.5v-17.8.1ZM623.3,520.1h-3.8v-17.8h3.8v7.9l6.5-7.9h4.3l-6.4,7.5,6.7,10.4h-4.4l-4.9-7.5-1.8,2.1v5.4-.1ZM639.26,514.56c0,.71.12,1.3.36,1.77.44.86,1.25,1.29,2.41,1.29.71,0,1.34-.23,1.86-.7.54-.48.8-1.16.8-2.04,0-1.17-.49-1.96-1.48-2.35-.56-.22-1.45-.33-2.65-.33v-2.51c1.18-.02,2.01-.13,2.48-.33.81-.34,1.21-1.04,1.21-2.09,0-.68-.21-1.23-.63-1.66-.41-.43-.99-.64-1.74-.64-.86,0-1.49.26-1.9.79-.4.53-.59,1.23-.57,2.1h-3.39c.03-.89.19-1.73.47-2.52.3-.7.77-1.34,1.4-1.93.48-.42,1.04-.74,1.7-.96.66-.22,1.46-.33,2.41-.33,1.77,0,3.19.44,4.28,1.33,1.09.88,1.63,2.06,1.63,3.54,0,1.05-.32,1.94-.97,2.66-.41.45-.83.76-1.28.92.33,0,.81.27,1.43.82.93.83,1.39,1.96,1.39,3.4,0,1.51-.54,2.84-1.63,3.99-1.08,1.14-2.68,1.71-4.81,1.71-2.62,0-4.44-.82-5.46-2.47-.54-.88-.83-2.03-.89-3.45h3.57ZM651.17,516.36h3.87v3.67h-3.87v-3.67ZM661.11,515.26c.14.76.42,1.35.83,1.77.41.41,1,.62,1.79.62.9,0,1.59-.3,2.05-.91.48-.62.71-1.39.71-2.31s-.22-1.68-.66-2.3c-.44-.63-1.13-.95-2.07-.95-.44,0-.83.05-1.15.16-.57.2-1,.56-1.29,1.1l-3.27-.15,1.3-9.86h10.2v2.98h-7.57l-.66,3.9c.56-.35,1-.59,1.31-.7.53-.19,1.17-.28,1.93-.28,1.53,0,2.87.5,4.01,1.49,1.14.99,1.71,2.44,1.71,4.33,0,1.65-.55,3.12-1.65,4.42-1.1,1.3-2.74,1.94-4.93,1.94-1.76,0-3.21-.46-4.34-1.37-1.13-.91-1.76-2.2-1.89-3.88h3.62Z" style="fill:#ed6b21;"/><path d="M385.6,511.3c0-1.3.2-2.6.6-3.7s1-2.1,1.7-3,1.7-1.5,2.8-2c1.1-.5,2.3-.7,3.7-.7s2.6.2,3.7.7,2,1.2,2.8,2,1.3,1.8,1.7,3,.6,2.4.6,3.7-.2,2.5-.6,3.6-1,2.1-1.7,2.9c-.7.8-1.7,1.5-2.8,2-1.1.5-2.3.7-3.7.7s-2.6-.2-3.7-.7-2-1.1-2.8-2c-.7-.8-1.3-1.8-1.7-2.9-.4-1.1-.6-2.3-.6-3.6h0ZM389.5,511.3c0,.7.1,1.5.3,2.2.2.7.4,1.3.9,1.9.4.6.9,1,1.5,1.4s1.4.5,2.2.5,1.6-.2,2.2-.5,1.1-.8,1.5-1.4c.4-.6.6-1.2.9-1.9.2-.7.3-1.4.3-2.2s-.1-1.5-.3-2.3c-.2-.7-.4-1.4-.9-1.9-.4-.6-.9-1-1.5-1.4-.6-.3-1.4-.5-2.2-.5s-1.6.2-2.2.5-1.1.8-1.5,1.4-.6,1.2-.9,1.9c-.2.7-.3,1.5-.3,2.3ZM404.8,502.3h9.6c.8,0,1.5.1,2.1.4s1.2.6,1.6,1.1c.4.4.8,1,1.1,1.6.2.6.4,1.2.4,1.9,0,1.1-.2,1.9-.6,2.7-.4.7-1.2,1.4-2.1,1.7h0c.5.2.9.4,1.2.6s.6.6.8,1c.2.4.3.8.4,1.2s.2.9.2,1.3v1c0,.4,0,.8.1,1.2,0,.4.1.8.2,1.1.1.4.2.7.4.9h-3.9c-.1-.3-.2-.6-.3-.9,0-.3-.1-.7-.1-1.1s0-.7-.1-1.2c0-.4,0-.7-.1-1.1-.1-.9-.4-1.6-.9-2s-1.1-.6-2.1-.6h-3.9v6.9h-3.9v-17.7h-.1ZM408.7,510.4h4.3c.9,0,1.6-.2,2-.6s.7-1.1.7-1.9-.2-1.5-.7-1.9-1.1-.6-2-.6h-4.3v5ZM421.8,502.3h3.9v17.8h-3.9v-17.8ZM441,518.1c-.7.9-1.5,1.5-2.3,1.9s-1.7.5-2.6.5c-1.4,0-2.6-.2-3.7-.7s-2-1.1-2.8-2c-.7-.8-1.3-1.8-1.7-2.9-.4-1.1-.6-2.3-.6-3.6s.2-2.6.6-3.7,1-2.1,1.7-3,1.7-1.5,2.8-2c1.1-.5,2.3-.7,3.7-.7s1.8.1,2.7.4c.9.3,1.6.7,2.3,1.2s1.3,1.2,1.7,2,.7,1.7.9,2.7h-3.7c-.2-1-.7-1.7-1.4-2.2s-1.5-.7-2.4-.7-1.6.2-2.2.5-1.1.8-1.5,1.4-.6,1.2-.9,1.9c-.2.7-.3,1.5-.3,2.3s.1,1.5.3,2.2c.2.7.4,1.3.9,1.9.4.6.9,1,1.5,1.4.6.3,1.4.5,2.2.5,1.3,0,2.3-.3,3-1s1.1-1.6,1.3-2.9h-3.9v-2.9h7.5v9.6h-2.5l-.4-2-.2-.1ZM446.3,502.3h3.9v17.8h-3.9v-17.8ZM452.7,502.3h3.9l7.4,11.9h0v-11.9h3.7v17.8h-3.9l-7.4-11.9h0v11.9h-3.7v-17.8h0ZM475.1,502.3h4l6.6,17.8h-4l-1.4-3.9h-6.6l-1.4,3.9h-3.9l6.7-17.8h0ZM474.7,513.2h4.6l-2.2-6.5h0l-2.3,6.5h-.1ZM486.5,502.3h3.9v14.5h8.6v3.3h-12.6v-17.8h.1Z" style="fill:#959998;"/><path d="M508.9,502.3h8c1.1,0,2.1.2,2.8.5s1.4.7,1.9,1.3c.5.5.9,1.2,1.1,1.8.2.7.3,1.4.3,2.1s-.1,1.4-.3,2.1-.6,1.3-1.1,1.8-1.1,1-1.9,1.3-1.7.5-2.8.5h-4.1v6.4h-3.9v-17.8h0ZM512.8,510.7h3c.4,0,.9,0,1.3-.1.4,0,.8-.2,1.1-.4.3-.2.6-.5.7-.8.2-.3.3-.8.3-1.4s-.1-1-.3-1.4c-.2-.3-.4-.6-.7-.8-.3-.2-.7-.3-1.1-.4s-.9-.1-1.3-.1h-3v5.4ZM524.2,502.3h9.6c.8,0,1.5.1,2.1.4s1.2.6,1.6,1.1c.4.4.8,1,1.1,1.6.2.6.4,1.2.4,1.9,0,1.1-.2,1.9-.6,2.7-.4.7-1.2,1.4-2.1,1.7h0c.5.2.9.4,1.2.6s.6.6.8,1,.3.8.4,1.2.2.9.2,1.3v1c0,.4,0,.8.1,1.2,0,.4.1.8.2,1.1.1.4.2.7.4.9h-3.9c-.1-.3-.2-.6-.3-.9,0-.3-.1-.7-.1-1.1s0-.7-.1-1.2c0-.4,0-.7-.1-1.1-.1-.9-.4-1.6-.9-2s-1.1-.6-2.1-.6h-3.9v6.9h-3.9v-17.7h-.1ZM528.1,510.4h4.3c.9,0,1.5-.2,2-.6.4-.4.7-1.1.7-1.9s-.2-1.5-.7-1.9-1.1-.6-2-.6h-4.3v5ZM556.1,513.3c0,2.4-.7,4.2-2,5.4-1.4,1.2-3.2,1.8-5.6,1.8s-4.3-.6-5.6-1.8-2-3-2-5.4v-11.1h3.9v11.1c0,.5,0,1,.1,1.4,0,.5.3.9.5,1.3.3.4.6.6,1.1.9.5.2,1.1.3,1.9.3,1.4,0,2.3-.3,2.9-.9s.8-1.6.8-2.9v-11.1h3.9v11h.1ZM561.1,514.2c0,.6.1,1.1.3,1.5s.5.7.9,1,.8.4,1.3.6,1,.2,1.5.2.7,0,1.1-.1.8-.2,1.1-.3.6-.4.9-.7c.2-.3.3-.6.3-1.1s-.2-.9-.5-1.2-.7-.5-1.2-.7-1.1-.4-1.7-.5-1.3-.3-1.9-.5c-.7-.2-1.3-.4-1.9-.6-.6-.2-1.2-.5-1.7-.9s-.9-.9-1.2-1.4c-.3-.6-.5-1.3-.5-2.1s.2-1.7.6-2.4.9-1.2,1.5-1.7,1.4-.8,2.1-1,1.6-.3,2.4-.3,1.8.1,2.7.3,1.6.5,2.3,1,1.2,1.1,1.6,1.8.6,1.6.6,2.6h-3.8c0-.5-.1-1-.3-1.3s-.4-.6-.7-.8-.7-.3-1.1-.4-.9-.1-1.3-.1-.6,0-1,.1c-.3,0-.6.2-.9.3-.3.2-.5.4-.6.6s-.2.6-.2.9,0,.6.2.9c.1.2.4.4.8.6s.9.4,1.6.5c.7.2,1.6.4,2.7.7.2,0,.5.1.9.2.3.1.7.2,1.1.4l1.2.6c.4.2.7.5,1.1.9.3.4.6.8.8,1.3s.3,1.1.3,1.8-.2,1.6-.5,2.3-.8,1.3-1.4,1.8-1.4.9-2.3,1.2c-.9.3-2,.4-3.2.4s-1.9-.1-2.9-.4-1.7-.6-2.4-1.2-1.3-1.2-1.7-2-.6-1.7-.6-2.8h3.8-.2ZM578.5,502.3h4l6.6,17.8h-4l-1.4-3.9h-6.6l-1.4,3.9h-3.9l6.7-17.8h0ZM578.1,513.2h4.6l-2.2-6.5h0l-2.3,6.5h-.1Z" style="fill:#fff;"/></svg>