<?xml version="1.0" encoding="UTF-8" standalone="no"?>
<svg
   id="svg3128"
   width="710.1"
   height="596.7"
   viewBox="0 0 710.1 596.7"
   version="1.1"
   sodipodi:docname="mk4is.svg"
   inkscape:version="1.3.2 (091e20e, 2023-11-25, custom)"
   xmlns:inkscape="http://www.inkscape.org/namespaces/inkscape"
   xmlns:sodipodi="http://sodipodi.sourceforge.net/DTD/sodipodi-0.dtd"
   xmlns="http://www.w3.org/2000/svg"
   xmlns:svg="http://www.w3.org/2000/svg">
  <defs
     id="defs21" />
  <sodipodi:namedview
     id="namedview21"
     pagecolor="#ffffff"
     bordercolor="#000000"
     borderopacity="0.25"
     inkscape:showpageshadow="2"
     inkscape:pageopacity="0.0"
     inkscape:pagecheckerboard="0"
     inkscape:deskcolor="#d1d1d1"
     inkscape:zoom="1.9658119"
     inkscape:cx="354.81522"
     inkscape:cy="298.35001"
     inkscape:window-width="3440"
     inkscape:window-height="1369"
     inkscape:window-x="-8"
     inkscape:window-y="-8"
     inkscape:window-maximized="1"
     inkscape:current-layer="svg3128" />
  <path
     id="path3098"
     d="m548.6,532h2.1v4.8h0c.1-.2.3-.4.5-.6.2-.2.4-.3.7-.5.2-.1.5-.2.8-.3.3,0,.5-.1.8,0,.7,0,1.3.1,1.9.4.5.2,1,.6,1.4,1.1.4.5.6,1,.8,1.6.2.6.3,1.3.3,1.9,0,.6,0,1.2-.2,1.8-.2.6-.4,1.1-.7,1.6-.7,1-1.8,1.5-3,1.5-.3,0-.6,0-1,0-.3,0-.6-.1-.9-.2-.3-.1-.5-.3-.8-.5-.2-.2-.4-.5-.6-.8h0v1.3h-2v-12.9Zm7.2,8.2c0-.4,0-.8-.2-1.2-.1-.4-.3-.7-.5-1-.2-.3-.5-.6-.8-.7-.3-.2-.7-.3-1.1-.3-.8,0-1.5.3-2,.9-.5.7-.7,1.6-.7,2.4,0,.4,0,.9.2,1.3.1.4.3.7.5,1,.2.3.5.5.8.7.3.2.7.3,1.1.2.4,0,.8,0,1.2-.3.3-.2.6-.4.8-.7.2-.3.4-.7.5-1,0-.4.1-.8.1-1.2Z"
     style="fill: #fff;" />
  <path
     id="path3100"
     d="m558.5,535.6h2.2l2.4,7h0l2.4-7h2.1l-3.6,9.8c-.2.4-.3.8-.5,1.2-.2.4-.4.7-.6,1-.2.3-.5.5-.9.7-.4.2-.9.3-1.3.3-.5,0-1,0-1.4-.1v-1.7h.5c.2,0,.3,0,.5,0,.2,0,.4,0,.6,0,.1,0,.3-.1.4-.3.1-.1.2-.3.3-.4,0-.2.1-.4.2-.5l.2-.7-3.5-9.2Z"
     style="fill: #fff;" />
  <path
     id="path3102"
     d="m581.1,540.8c0,.5,0,1.1-.1,1.6,0,.5-.3,1-.6,1.4-.3.4-.8.8-1.3,1-.7.3-1.5.4-2.2.4-.6,0-1.2,0-1.7-.3-.5-.2-.9-.5-1.2-.9-.3-.4-.6-.8-.7-1.3-.1-.5-.2-1.1-.2-1.6v-.7h2.2v.7c0,.6,0,1.2.4,1.7.3.4.9.7,1.4.6.3,0,.6,0,.9-.2.2-.1.4-.3.6-.5.1-.2.2-.5.3-.8,0-.4,0-.7,0-1.1v-8.8h2.2v8.7Z"
     style="fill: #fff;" />
  <path
     id="path3104"
     d="m587.8,545.1c-.7,0-1.4-.1-2-.4-.6-.2-1.1-.6-1.5-1-.4-.4-.7-1-.9-1.5-.2-.6-.3-1.3-.3-2,0-.7,0-1.4.3-2,.2-.6.5-1.1.9-1.5.4-.4.9-.8,1.5-1,1.3-.5,2.7-.5,4,0,.6.2,1.1.6,1.5,1,.4.4.7,1,.9,1.5.2.6.3,1.3.3,2,0,.7,0,1.4-.3,2-.2.6-.5,1.1-.9,1.5-.4.4-.9.8-1.5,1-.6.3-1.3.4-2,.4Zm0-1.6c.4,0,.8,0,1.2-.3.3-.2.6-.4.8-.8.2-.3.4-.7.5-1.1.1-.4.2-.8.2-1.2,0-.4,0-.8-.2-1.2,0-.4-.3-.7-.5-1-.2-.3-.5-.6-.8-.8-.7-.4-1.6-.4-2.4,0-.3.2-.6.4-.8.8-.2.3-.4.6-.5,1,0,.4-.1.8-.2,1.2,0,.4,0,.8.2,1.2,0,.4.3.7.5,1.1.2.3.5.6.8.8.4.2.8.3,1.2.3h0Z"
     style="fill: #fff;" />
  <path
     id="path3106"
     d="m595.7,541.9c0,.5.3,1,.7,1.3.4.2.9.4,1.4.4.2,0,.4,0,.7,0,.2,0,.5,0,.7-.2.2,0,.4-.2.5-.4.3-.4.2-.9,0-1.3-.2-.2-.4-.3-.7-.4-.3-.1-.7-.2-1-.3l-1.1-.2c-.4,0-.7-.2-1.1-.3-.4-.1-.7-.3-1-.5-.3-.2-.5-.5-.6-.9-.2-.4-.3-.8-.2-1.2,0-.5.1-.9.4-1.3.2-.3.6-.6.9-.8.4-.2.8-.4,1.3-.4.4,0,.9-.1,1.3-.1.5,0,.9,0,1.4.2.4,0,.8.3,1.2.5.4.2.7.5.9.9.2.4.4.9.4,1.3h-2.1c0-.4-.3-.8-.7-1-.4-.2-.8-.3-1.2-.2-.2,0-.3,0-.5,0-.2,0-.4,0-.6.1-.2,0-.3.2-.4.3-.1.1-.2.3-.2.5,0,.2,0,.5.3.6.2.2.4.3.7.4.3.1.7.2,1,.3l1.1.2c.4,0,.7.2,1.1.3.4.1.7.3,1,.5.3.2.5.5.7.8.2.4.3.8.3,1.2,0,.5-.1,1-.4,1.4-.3.4-.6.7-1,.9-.4.2-.9.4-1.3.5-.5.1-1,.2-1.5.2-.5,0-1.1,0-1.6-.2-.5-.1-.9-.3-1.3-.6-.4-.3-.7-.6-.9-1-.2-.4-.3-.9-.3-1.4h2Z"
     style="fill: #fff;" />
  <path
     id="path3108"
     d="m605.1,540.8c0,.3,0,.7.2,1,0,.3.3.6.5.9.2.3.5.5.8.6.4.2.7.2,1.1.2.5,0,1.1,0,1.5-.3.4-.3.7-.7.8-1.2h1.9c0,.5-.3.9-.6,1.3-.3.4-.6.7-1,1-.4.3-.8.5-1.2.6-.5.1-1,.2-1.5.2-.7,0-1.3-.1-1.9-.4-.5-.2-1-.6-1.4-1-.4-.4-.7-1-.9-1.5-.2-.6-.3-1.3-.3-2,0-.6.1-1.3.3-1.9.2-.6.5-1.1.9-1.6.8-1,2-1.5,3.3-1.5.7,0,1.4.1,2,.5.6.3,1.1.7,1.5,1.2.4.5.7,1.1.8,1.7.2.7.2,1.3.1,2h-6.9Zm4.8-1.3c0-.3,0-.6-.2-.9-.1-.3-.3-.6-.5-.8-.2-.2-.4-.4-.7-.5-.3-.1-.6-.2-.9-.2-.3,0-.7,0-1,.2-.3.1-.5.3-.8.5-.2.2-.4.5-.5.8-.1.3-.2.7-.2,1h4.8Z"
     style="fill: #fff;" />
  <path
     id="path3110"
     d="m612.6,535.6h1.5v-.8c0-.5,0-1,.2-1.4.1-.3.3-.6.6-.8.2-.2.5-.3.8-.4.3,0,.7-.1,1,0,.5,0,.9,0,1.4,0v1.6c-.1,0-.3,0-.4,0h-.5c-.3,0-.5,0-.7.2-.2.2-.3.5-.3.8v1h1.7v1.5h-1.7v7.8h-2v-7.8h-1.5v-1.5Z"
     style="fill: #fff;" />
  <path
     id="path3112"
     d="m624.5,532h5.7c.8,0,1.5.1,2.2.4.5.2,1,.6,1.3,1,.3.4.5.8.6,1.3.1.4.2.9.2,1.3,0,.4,0,.9-.2,1.3-.1.5-.3.9-.6,1.3-.4.4-.8.8-1.3,1-.7.3-1.5.4-2.2.4h-3.4v4.9h-2.2v-12.9Zm2.2,6.1h3.3c.3,0,.5,0,.8-.1.3,0,.5-.2.7-.3.2-.2.4-.4.5-.7.1-.3.2-.7.2-1,0-.3,0-.7-.2-1-.2-.5-.7-.9-1.2-1-.3,0-.6,0-.8,0h-3.3v4.2Z"
     style="fill: #fff;" />
  <path
     id="path3114"
     d="m636.2,535.6h1.9v1.8h0c0-.3.2-.5.4-.7.2-.2.4-.5.6-.7.2-.2.5-.4.8-.5.3-.1.6-.2.9-.2h.8v2h-.4c-.1,0-.3,0-.5,0-.7,0-1.3.3-1.8.8-.2.3-.4.6-.5,1-.1.4-.2.9-.2,1.4v4.4h-2v-9.3Z"
     style="fill: #fff;" />
  <path
     id="path3116"
     d="m650.7,544.9h-2v-1.3h0c-.3.5-.7.9-1.1,1.1-.5.3-1,.4-1.5.4-1,0-1.9-.2-2.7-.9-.6-.8-.9-1.8-.8-2.7v-5.9h2v5.7c0,.6.1,1.2.5,1.7.3.3.8.5,1.3.5.4,0,.7,0,1.1-.2.3-.1.5-.3.7-.5.2-.2.3-.5.4-.8,0-.3.1-.7.1-1v-5.4h2v9.3Z"
     style="fill: #fff;" />
  <path
     id="path3118"
     d="m654.4,541.9c0,.5.3,1,.7,1.2.4.2.9.4,1.4.4.2,0,.4,0,.7,0,.2,0,.5,0,.7-.2.2,0,.4-.2.5-.4.1-.2.2-.4.2-.6,0-.2-.1-.5-.3-.7-.2-.2-.4-.3-.7-.4-.3-.1-.7-.2-1-.3l-1.1-.2c-.4,0-.7-.2-1.1-.3-.4-.1-.7-.3-1-.5-.3-.2-.5-.5-.7-.8-.2-.4-.3-.8-.3-1.2,0-.5.1-.9.4-1.3.2-.3.6-.6.9-.8.4-.2.8-.4,1.3-.4.4,0,.9-.1,1.3-.1.5,0,.9,0,1.4.2.4.1.8.3,1.2.5.4.2.7.5.9.9.2.4.4.9.4,1.3h-2.1c0-.4-.3-.8-.7-1-.4-.2-.8-.3-1.2-.2-.2,0-.3,0-.5,0-.2,0-.4,0-.5.1-.2,0-.3.2-.4.3-.1.1-.2.3-.2.5,0,.2,0,.5.3.6.2.2.4.3.7.4.3.1.7.2,1,.3l1.1.2c.4,0,.7.2,1.1.3.4.1.7.3,1,.5.3.2.5.5.7.8.2.4.3.8.3,1.2,0,.5-.1,1-.4,1.4-.3.4-.6.7-1,.9-.4.2-.9.4-1.3.5-.5.1-1,.2-1.5.2-.6,0-1.1,0-1.6-.2-.5-.1-.9-.3-1.3-.6-.4-.3-.7-.6-.9-1-.2-.4-.3-.9-.3-1.4h2.1Z"
     style="fill: #fff;" />
  <path
     id="path3120"
     d="m670,542.8c0,.2,0,.4,0,.5,0,.1.2.2.4.2h.5v1.4h-.3c0,0-.3.2-.3.2h-.4c-.1,0-.2,0-.3,0-.3,0-.7,0-1-.2-.3-.2-.5-.5-.5-.9-.4.4-.9.7-1.5.9-.6.2-1.1.3-1.7.3-.4,0-.8,0-1.2-.2-.4-.1-.7-.3-1-.5-.3-.2-.5-.5-.7-.8-.2-.4-.3-.8-.3-1.2,0-.5,0-1,.3-1.4.2-.3.5-.6.8-.8.4-.2.7-.4,1.2-.4.4,0,.9-.2,1.3-.2.3,0,.7-.1,1.1-.2.3,0,.6,0,.9-.2.2,0,.4-.2.6-.3.2-.2.2-.4.2-.7,0-.2,0-.5-.2-.7-.1-.2-.3-.3-.5-.4-.2,0-.4-.2-.6-.2-.2,0-.4,0-.7,0-.5,0-1,.1-1.4.4-.4.3-.6.7-.6,1.1h-2c0-.5.2-1,.4-1.5.3-.4.6-.7,1-1,.4-.2.9-.4,1.3-.5.5-.1,1-.2,1.5-.2.5,0,.9,0,1.3.2.4,0,.8.2,1.2.5.3.2.6.5.8.8.2.4.3.8.3,1.2v4.8Zm-2.1-2.6c-.3.2-.7.3-1.2.4-.5,0-.9.1-1.4.2-.2,0-.4,0-.6.2-.2,0-.4.1-.5.3-.2.1-.3.3-.4.5,0,.2-.1.4-.1.7,0,.2,0,.4.2.6.1.2.3.3.5.4.2,0,.4.2.6.2.2,0,.4,0,.6,0,.2,0,.5,0,.7,0,.3,0,.5-.2.8-.3.2-.1.4-.3.6-.5.2-.2.2-.5.2-.8v-1.5Z"
     style="fill: #fff;" />
  <g
     id="g8">
    <path
       d="m385.6,511.3c0-1.3.2-2.6.6-3.7s1-2.1,1.7-3c.7-.9,1.7-1.5,2.8-2,1.1-.5,2.3-.7,3.7-.7s2.6.2,3.7.7c1.1.5,2,1.2,2.8,2s1.3,1.8,1.7,3,.6,2.4.6,3.7-.2,2.5-.6,3.6-1,2.1-1.7,2.9c-.7.8-1.7,1.5-2.8,2-1.1.5-2.3.7-3.7.7s-2.6-.2-3.7-.7c-1.1-.5-2-1.1-2.8-2-.7-.8-1.3-1.8-1.7-2.9-.4-1.1-.6-2.3-.6-3.6Zm3.9,0c0,.7.1,1.5.3,2.2.2.7.4,1.3.9,1.9.4.6.9,1,1.5,1.4s1.4.5,2.2.5,1.6-.2,2.2-.5,1.1-.8,1.5-1.4c.4-.6.6-1.2.9-1.9.2-.7.3-1.4.3-2.2s-.1-1.5-.3-2.3c-.2-.7-.4-1.4-.9-1.9-.4-.6-.9-1-1.5-1.4-.6-.3-1.4-.5-2.2-.5s-1.6.2-2.2.5c-.6.3-1.1.8-1.5,1.4s-.6,1.2-.9,1.9c-.2.7-.3,1.5-.3,2.3Z"
       style="fill: #959998;"
       id="path1" />
    <path
       d="m404.8,502.3h9.6c.8,0,1.5.1,2.1.4.6.3,1.2.6,1.6,1.1.4.4.8,1,1.1,1.6.2.6.4,1.2.4,1.9,0,1.1-.2,1.9-.6,2.7-.4.7-1.2,1.4-2.1,1.7h0c.5.2.9.4,1.2.6s.6.6.8,1c.2.4.3.8.4,1.2s.2.9.2,1.3,0,.6,0,1,0,.8.1,1.2c0,.4.1.8.2,1.1.1.4.2.7.4.9h-3.9c-.1-.3-.2-.6-.3-.9,0-.3-.1-.7-.1-1.1s0-.7-.1-1.2c0-.4,0-.7-.1-1.1-.1-.9-.4-1.6-.9-2s-1.1-.6-2.1-.6h-3.9v6.9h-3.9v-17.7Zm3.9,8.1h4.3c.9,0,1.6-.2,2-.6.4-.4.7-1.1.7-1.9s-.2-1.5-.7-1.9-1.1-.6-2-.6h-4.3v5Z"
       style="fill: #959998;"
       id="path2" />
    <path
       d="m421.8,502.3h3.9v17.8h-3.9v-17.8Z"
       style="fill: #959998;"
       id="path3" />
    <path
       d="m441,518.1c-.7.9-1.5,1.5-2.3,1.9s-1.7.5-2.6.5c-1.4,0-2.6-.2-3.7-.7-1.1-.5-2-1.1-2.8-2-.7-.8-1.3-1.8-1.7-2.9-.4-1.1-.6-2.3-.6-3.6s.2-2.6.6-3.7,1-2.1,1.7-3c.7-.9,1.7-1.5,2.8-2,1.1-.5,2.3-.7,3.7-.7s1.8.1,2.7.4c.9.3,1.6.7,2.3,1.2s1.3,1.2,1.7,2,.7,1.7.9,2.7h-3.7c-.2-1-.7-1.7-1.4-2.2s-1.5-.7-2.4-.7-1.6.2-2.2.5-1.1.8-1.5,1.4c-.4.6-.6,1.2-.9,1.9-.2.7-.3,1.5-.3,2.3s.1,1.5.3,2.2c.2.7.4,1.3.9,1.9.4.6.9,1,1.5,1.4.6.3,1.4.5,2.2.5,1.3,0,2.3-.3,3-1s1.1-1.6,1.3-2.9h-3.9v-2.9h7.5v9.6h-2.5l-.4-2Z"
       style="fill: #959998;"
       id="path4" />
    <path
       d="m446.3,502.3h3.9v17.8h-3.9v-17.8Z"
       style="fill: #959998;"
       id="path5" />
    <path
       d="m452.7,502.3h3.9l7.4,11.9h0v-11.9h3.7v17.8h-3.9l-7.4-11.9h0v11.9h-3.7v-17.8Z"
       style="fill: #959998;"
       id="path6" />
    <path
       d="m475.1,502.3h4l6.6,17.8h-4l-1.4-3.9h-6.6l-1.4,3.9h-3.9l6.7-17.8Zm-.4,10.9h4.6l-2.2-6.5h0l-2.3,6.5Z"
       style="fill: #959998;"
       id="path7" />
    <path
       d="m486.5,502.3h3.9v14.5h8.6v3.3h-12.6v-17.8h0Z"
       style="fill: #959998;"
       id="path8" />
  </g>
  <g
     id="g13">
    <path
       d="m506.9,502.3h8c1.1,0,2.1.2,2.8.5s1.4.7,1.9,1.3c.5.5.9,1.2,1.1,1.8.2.7.3,1.4.3,2.1s-.1,1.4-.3,2.1-.6,1.3-1.1,1.8c-.5.5-1.1,1-1.9,1.3s-1.7.5-2.8.5h-4.1v6.4h-3.9v-17.8Zm3.9,8.4h3c.4,0,.9,0,1.3-.1.4,0,.8-.2,1.1-.4.3-.2.6-.5.7-.8.2-.3.3-.8.3-1.4s-.1-1-.3-1.4c-.2-.3-.4-.6-.7-.8-.3-.2-.7-.3-1.1-.4s-.9-.1-1.3-.1h-3v5.3Z"
       style="fill: #fff;"
       id="path9" />
    <path
       d="m522.2,502.3h9.6c.8,0,1.5.1,2.1.4.6.3,1.2.6,1.6,1.1.4.4.8,1,1.1,1.6.2.6.4,1.2.4,1.9,0,1.1-.2,1.9-.6,2.7-.4.7-1.2,1.4-2.1,1.7h0c.5.2.9.4,1.2.6s.6.6.8,1c.2.4.3.8.4,1.2s.2.9.2,1.3,0,.6,0,1,0,.8.1,1.2c0,.4.1.8.2,1.1.1.4.2.7.4.9h-3.9c-.1-.3-.2-.6-.3-.9,0-.3-.1-.7-.1-1.1s0-.7-.1-1.2c0-.4,0-.7-.1-1.1-.1-.9-.4-1.6-.9-2s-1.1-.6-2.1-.6h-3.9v6.9h-3.9v-17.7Zm3.9,8.1h4.3c.9,0,1.5-.2,2-.6.4-.4.7-1.1.7-1.9s-.2-1.5-.7-1.9-1.1-.6-2-.6h-4.3v5Z"
       style="fill: #fff;"
       id="path10" />
    <path
       d="m554.1,513.3c0,2.4-.7,4.2-2,5.4-1.4,1.2-3.2,1.8-5.6,1.8s-4.3-.6-5.6-1.8c-1.3-1.2-2-3-2-5.4v-11.1h3.9v11.1c0,.5,0,1,.1,1.4,0,.5.3.9.5,1.3.3.4.6.6,1.1.9.5.2,1.1.3,1.9.3,1.4,0,2.3-.3,2.9-.9s.8-1.6.8-2.9v-11.1h3.9v11h0Z"
       style="fill: #fff;"
       id="path11" />
    <path
       d="m559.1,514.2c0,.6.1,1.1.3,1.5.2.4.5.7.9,1s.8.4,1.3.6,1,.2,1.5.2.7,0,1.1-.1.8-.2,1.1-.3.6-.4.9-.7c.2-.3.3-.6.3-1.1s-.2-.9-.5-1.2-.7-.5-1.2-.7c-.5-.2-1.1-.4-1.7-.5s-1.3-.3-1.9-.5c-.7-.2-1.3-.4-1.9-.6-.6-.2-1.2-.5-1.7-.9s-.9-.9-1.2-1.4c-.3-.6-.5-1.3-.5-2.1s.2-1.7.6-2.4.9-1.2,1.5-1.7,1.4-.8,2.1-1,1.6-.3,2.4-.3,1.8.1,2.7.3,1.6.5,2.3,1,1.2,1.1,1.6,1.8.6,1.6.6,2.6h-3.8c0-.5-.1-1-.3-1.3s-.4-.6-.7-.8-.7-.3-1.1-.4-.9-.1-1.3-.1-.6,0-1,.1c-.3,0-.6.2-.9.3-.3.2-.5.4-.6.6s-.2.6-.2.9,0,.6.2.9c.1.2.4.4.8.6s.9.4,1.6.5c.7.2,1.6.4,2.7.7.2,0,.5.1.9.2.3.1.7.2,1.1.4.4.2.8.4,1.2.6.4.2.7.5,1.1.9.3.4.6.8.8,1.3.2.5.3,1.1.3,1.8s-.2,1.6-.5,2.3c-.3.7-.8,1.3-1.4,1.8s-1.4.9-2.3,1.2c-.9.3-2,.4-3.2.4s-1.9-.1-2.9-.4-1.7-.6-2.4-1.2-1.3-1.2-1.7-2c-.4-.8-.6-1.7-.6-2.8h3.8Z"
       style="fill: #fff;"
       id="path12" />
    <path
       d="m576.5,502.3h4l6.6,17.8h-4l-1.4-3.9h-6.6l-1.4,3.9h-3.9l6.7-17.8Zm-.4,10.9h4.6l-2.2-6.5h0l-2.3,6.5Z"
       style="fill: #fff;"
       id="path13" />
  </g>
  <g
     id="g16">
    <path
       d="m594.3,502.3h5.5l4.1,12.2h0l3.9-12.2h5.5v17.8h-3.7v-12.6h0l-4.4,12.6h-3l-4.4-12.5h0v12.5h-3.7v-17.8h0Z"
       style="fill: #ed6b21;"
       id="path14" />
    <path
       d="m616,502.3h3.9v7.4l6.9-7.4h4.9l-6.9,7,7.6,10.7h-4.9l-5.3-8-2.2,2.3v5.7h-3.9v-17.8Z"
       style="fill: #ed6b21;"
       id="path15" />
    <path
       d="m638.4,516.1h-7.4v-3.2l7.6-10.2h3.2v10.5h2.3v2.9h-2.3v4h-3.4v-4h0Zm0-9h0l-4.5,6.1h4.6v-6.1Z"
       style="fill: #ed6b21;"
       id="path16" />
  </g>
</svg>
