<?xml version="1.0" encoding="UTF-8" standalone="no"?>
<svg
   data-name="Layer 1"
   width="360mm"
   height="360mm"
   viewBox="0 0 1020.5 1020.5"
   version="1.1"
   id="svg4"
   xmlns="http://www.w3.org/2000/svg"
   xmlns:svg="http://www.w3.org/2000/svg">
  <defs
     id="defs4" />
  <path
     d="m 584.3,964.3 c 0,-1.9 0.3,-3.7 0.9,-5.3 0.6,-1.7 1.4,-3.1 2.5,-4.3 1.1,-1.2 2.4,-2.2 4,-2.9 1.6,-0.7 3.3,-1 5.3,-1 2,0 3.8,0.3 5.3,1 1.6,0.7 2.9,1.7 4,2.9 1.1,1.2 1.9,2.7 2.5,4.3 0.6,1.7 0.9,3.4 0.9,5.3 0,1.9 -0.3,3.6 -0.9,5.2 -0.6,1.6 -1.4,3 -2.5,4.2 -1.1,1.2 -2.4,2.1 -4,2.8 -1.6,0.7 -3.3,1 -5.3,1 -2,0 -3.8,-0.3 -5.3,-1 -1.6,-0.7 -2.9,-1.6 -4,-2.8 -1.1,-1.2 -1.9,-2.6 -2.5,-4.2 -0.6,-1.6 -0.9,-3.4 -0.9,-5.2 z m 5.7,0 c 0,1.1 0.1,2.1 0.4,3.2 0.3,1.1 0.7,1.9 1.2,2.8 0.6,0.8 1.3,1.5 2.2,2 0.9,0.5 2,0.7 3.2,0.7 1.2,0 2.4,-0.2 3.2,-0.7 0.9,-0.5 1.6,-1.1 2.2,-2 0.6,-0.8 1,-1.7 1.2,-2.8 0.2,-1.1 0.4,-2.1 0.4,-3.2 0,-1.1 -0.1,-2.2 -0.4,-3.3 -0.3,-1.1 -0.7,-2 -1.2,-2.8 -0.5,-0.8 -1.3,-1.5 -2.2,-2 -0.9,-0.5 -2,-0.7 -3.2,-0.7 -1.2,0 -2.4,0.2 -3.2,0.7 -0.9,0.5 -1.6,1.2 -2.2,2 -0.6,0.8 -1,1.8 -1.2,2.8 -0.3,1.1 -0.4,2.1 -0.4,3.3 z m 23.4,-13 h 13.9 c 1.2,0 2.2,0.2 3.1,0.6 0.9,0.4 1.7,0.9 2.4,1.5 0.7,0.6 1.2,1.4 1.5,2.3 0.3,0.9 0.5,1.8 0.5,2.7 0,1.5 -0.3,2.8 -1,3.9 -0.6,1.1 -1.7,1.9 -3.1,2.5 0.7,0.3 1.3,0.6 1.7,1 0.5,0.4 0.8,0.9 1.1,1.4 0.3,0.6 0.5,1.1 0.6,1.8 0.1,0.6 0.2,1.3 0.3,1.9 v 1.4 c 0,0.6 0,1.1 0.1,1.7 0,0.6 0.2,1.1 0.3,1.6 0.1,0.5 0.3,1 0.6,1.3 h -5.7 c -0.2,-0.4 -0.3,-0.9 -0.4,-1.3 0,-0.5 -0.2,-1 -0.2,-1.5 0,-0.5 -0.1,-1.1 -0.1,-1.7 0,-0.6 0,-1.1 -0.2,-1.6 -0.2,-1.3 -0.6,-2.3 -1.2,-3 -0.6,-0.6 -1.6,-0.9 -3.1,-0.9 h -5.7 v 10 h -5.7 v -25.7 z m 5.7,11.6 h 6.2 c 1.3,0 2.2,-0.3 2.9,-0.9 0.7,-0.6 1,-1.5 1,-2.8 0,-1.3 -0.3,-2.2 -1,-2.7 -0.7,-0.6 -1.6,-0.8 -2.9,-0.8 h -6.2 z m 20.3,-11.6 h 5.7 V 977 h -5.7 z m 29.2,22.8 c -1,1.3 -2.1,2.2 -3.3,2.7 -1.2,0.5 -2.5,0.8 -3.7,0.8 -2,0 -3.8,-0.3 -5.3,-1 -1.6,-0.7 -2.9,-1.6 -4,-2.8 -1.1,-1.2 -1.9,-2.6 -2.5,-4.2 -0.6,-1.6 -0.9,-3.4 -0.9,-5.2 0,-1.8 0.3,-3.7 0.9,-5.3 0.6,-1.7 1.4,-3.1 2.5,-4.3 1.1,-1.2 2.4,-2.2 4,-2.9 1.6,-0.7 3.3,-1 5.3,-1 2,0 2.6,0.2 3.8,0.6 1.2,0.4 2.3,1 3.3,1.7 1,0.8 1.8,1.7 2.5,2.8 0.7,1.1 1.1,2.4 1.2,3.9 H 667 c -0.3,-1.4 -1,-2.5 -2,-3.2 -1,-0.7 -2.1,-1.1 -3.5,-1.1 -1.4,0 -2.4,0.2 -3.2,0.7 -0.9,0.5 -1.6,1.2 -2.2,2 -0.6,0.8 -1,1.8 -1.2,2.8 -0.3,1.1 -0.4,2.1 -0.4,3.3 0,1.2 0.1,2.1 0.4,3.2 0.3,1.1 0.7,1.9 1.2,2.8 0.6,0.8 1.3,1.5 2.2,2 0.9,0.5 2,0.7 3.2,0.7 1.8,0 3.3,-0.5 4.3,-1.4 1,-0.9 1.6,-2.3 1.8,-4.1 h -5.7 v -4.2 h 10.8 v 13.9 h -3.6 l -0.6,-2.9 z m 8.8,-22.8 h 5.7 V 977 h -5.7 z m 10.6,0 h 5.6 l 10.7,17.2 v -17.2 h 5.3 V 977 h -5.7 L 693.2,959.8 V 977 h -5.3 v -25.7 z m 33.7,0 h 5.8 l 9.6,25.7 h -5.9 l -1.9,-5.7 h -9.6 l -2,5.7 H 712 l 9.8,-25.7 z m -0.5,15.8 h 6.7 l -3.2,-9.4 -3.3,9.4 z m 18.1,-15.8 h 5.7 v 21 h 12.5 v 4.8 h -18.2 v -25.7 z m 31.4,0 h 11.6 c 1.6,0 3,0.2 4.1,0.7 1.1,0.5 2,1.1 2.8,1.9 0.7,0.8 1.2,1.7 1.5,2.6 0.3,1 0.5,2 0.5,3 0,1 -0.2,2.1 -0.5,3.1 -0.3,1 -0.8,1.9 -1.5,2.6 -0.7,0.8 -1.6,1.4 -2.8,1.9 -1.2,0.5 -2.5,0.7 -4.1,0.7 h -5.9 v 9.2 h -5.7 z m 5.7,12.1 h 4.4 c 0.6,0 1.3,0 1.9,-0.1 0.6,0 1.1,-0.3 1.6,-0.6 0.5,-0.3 0.8,-0.7 1.1,-1.2 0.3,-0.5 0.4,-1.2 0.4,-2 0,-0.8 -0.1,-1.5 -0.4,-2 -0.3,-0.5 -0.6,-0.9 -1.1,-1.2 -0.5,-0.3 -1,-0.5 -1.6,-0.6 -0.6,0 -1.2,-0.1 -1.9,-0.1 h -4.4 v 7.7 z m 18.3,-12.1 h 13.9 c 1.2,0 2.2,0.2 3.1,0.6 0.9,0.4 1.7,0.9 2.4,1.5 0.7,0.6 1.2,1.4 1.5,2.3 0.3,0.9 0.5,1.8 0.5,2.7 0,1.5 -0.3,2.8 -1,3.9 -0.6,1.1 -1.7,1.9 -3.1,2.5 0.7,0.3 1.3,0.6 1.7,1 0.5,0.4 0.8,0.9 1.1,1.4 0.3,0.6 0.5,1.1 0.6,1.8 0.1,0.6 0.2,1.3 0.3,1.9 v 1.4 c 0,0.6 0,1.1 0.1,1.7 0,0.6 0.2,1.1 0.3,1.6 0.1,0.5 0.3,1 0.6,1.3 H 811 c -0.2,-0.4 -0.3,-0.9 -0.4,-1.3 -0.1,-0.4 -0.2,-1 -0.2,-1.5 0,-0.5 -0.1,-1.1 -0.1,-1.7 0,-0.6 0,-1.1 -0.2,-1.6 -0.2,-1.3 -0.6,-2.3 -1.2,-3 -0.6,-0.6 -1.6,-0.9 -3.1,-0.9 h -5.7 v 10 h -5.7 v -25.7 z m 5.7,11.6 h 6.2 c 1.3,0 2.2,-0.3 2.9,-0.9 0.7,-0.6 1,-1.5 1,-2.8 0,-1.3 -0.3,-2.2 -1,-2.7 -0.7,-0.6 -1.6,-0.8 -2.9,-0.8 h -6.2 z m 42.1,4.4 c 0,3.5 -1,6.1 -2.9,7.8 -1.9,1.7 -4.6,2.6 -8.1,2.6 -3.5,0 -6.2,-0.8 -8.1,-2.5 -1.9,-1.7 -2.9,-4.3 -2.9,-7.8 v -16 h 5.7 v 16 c 0,0.7 0,1.4 0.2,2.1 0.2,0.7 0.4,1.3 0.8,1.8 0.4,0.5 0.9,0.9 1.6,1.3 0.7,0.3 1.6,0.5 2.8,0.5 2,0 3.4,-0.5 4.2,-1.4 0.8,-0.9 1.2,-2.3 1.2,-4.2 v -16 h 5.7 v 16 z m 8.7,1.2 c 0,0.9 0.2,1.6 0.5,2.2 0.3,0.6 0.7,1.1 1.2,1.5 0.5,0.4 1.1,0.6 1.8,0.8 0.7,0.2 1.4,0.3 2.2,0.3 0.8,0 1,0 1.6,-0.1 0.6,0 1.1,-0.2 1.6,-0.5 0.5,-0.3 0.9,-0.6 1.3,-1 0.3,-0.4 0.5,-1 0.5,-1.6 0,-0.6 -0.2,-1.3 -0.7,-1.7 -0.4,-0.4 -1,-0.8 -1.7,-1.1 -0.7,-0.3 -1.5,-0.6 -2.4,-0.8 -0.9,-0.2 -1.8,-0.4 -2.8,-0.7 -1,-0.2 -1.9,-0.5 -2.8,-0.9 -0.9,-0.3 -1.7,-0.8 -2.4,-1.3 -0.7,-0.6 -1.3,-1.2 -1.7,-2.1 -0.4,-0.8 -0.7,-1.8 -0.7,-3 0,-1.2 0.3,-2.5 0.8,-3.4 0.6,-1 1.3,-1.8 2.2,-2.4 0.9,-0.6 1.9,-1.1 3.1,-1.4 1.2,-0.3 2.3,-0.5 3.5,-0.5 1.2,0 2.6,0.2 3.9,0.5 1.2,0.3 2.3,0.8 3.3,1.5 1,0.7 1.7,1.5 2.3,2.6 0.6,1 0.8,2.3 0.8,3.8 h -5.5 c 0,-0.8 -0.2,-1.4 -0.5,-1.9 -0.3,-0.5 -0.6,-0.9 -1.1,-1.2 -0.5,-0.3 -1,-0.5 -1.6,-0.6 -0.6,-0.1 -1.2,-0.2 -1.9,-0.2 -0.7,0 -0.9,0 -1.4,0.1 -0.5,0 -0.9,0.3 -1.2,0.5 -0.4,0.2 -0.7,0.5 -0.9,0.9 -0.2,0.4 -0.4,0.8 -0.4,1.4 0,0.6 0,0.9 0.3,1.2 0.2,0.3 0.6,0.6 1.1,0.8 0.6,0.3 1.3,0.5 2.3,0.8 1,0.3 2.3,0.6 3.9,1 0.3,0 0.7,0.2 1.2,0.3 0.5,0.1 1,0.3 1.6,0.5 0.6,0.2 1.1,0.5 1.7,0.9 0.6,0.4 1.1,0.8 1.5,1.3 0.5,0.5 0.8,1.2 1.1,1.9 0.3,0.7 0.4,1.6 0.4,2.5 0,0.9 -0.2,2.3 -0.7,3.3 -0.5,1 -1.1,1.9 -2,2.6 -0.9,0.7 -2,1.3 -3.3,1.7 -1.3,0.4 -2.9,0.6 -4.6,0.6 -1.7,0 -2.8,-0.2 -4.1,-0.5 -1.3,-0.4 -2.5,-0.9 -3.5,-1.7 -1,-0.7 -1.8,-1.7 -2.4,-2.8 -0.6,-1.2 -0.9,-2.5 -0.9,-4.1 z m 26.5,-17.2 h 5.8 l 9.6,25.7 h -5.9 l -1.9,-5.7 h -9.6 l -2,5.7 H 868 l 9.8,-25.7 z m -0.5,15.8 h 6.7 l -3.2,-9.4 -3.3,9.4 z m 34.5,-3.5 -8.3,-12.2 h 6.6 l 5,8.2 5.2,-8.2 h 6.2 l -8.2,12.3 9,13.4 h -6.7 l -5.6,-8.9 -5.7,8.9 h -6.4 l 9,-13.5 z m 17.7,-12.3 h 5.7 v 21 h 12.5 v 4.8 h -18.2 v -25.7 z"
     style="fill:#ffffff"
     id="path4" />
</svg>
