<svg data-name="Layer 1" xmlns="http://www.w3.org/2000/svg" width="360mm" height="360mm" viewBox="0 0 1020.5 1020.5"><path style="fill:none;stroke:#fff;stroke-miterlimit:10;stroke-width:5.7px" d="M0 0h1020.5v1020.5H0z"/><path style="fill:none;stroke:#fff;stroke-miterlimit:10;stroke-width:.7px" d="M0 0h1020.5v1020.5H0zM0 992.1h1020.5M954 963.8h66.5M0 963.8h576.3M0 935.4h1020.5M0 907.1h1020.5M0 878.7h1020.5M0 850.4h1020.5M0 822h1020.5M0 793.7h1020.5M0 765.4h1020.5M0 737h1020.5M0 708.7h1020.5M0 680.3h1020.5M0 652h1020.5M0 623.6h1020.5M0 595.3h1020.5M0 566.9h1020.5M0 538.6h1020.5M0 510.2h1020.5M0 481.9h1020.5M0 453.5h1020.5M0 425.2h1020.5M0 396.9h1020.5M0 368.5h1020.5M0 340.2h1020.5M0 311.8h1020.5M0 283.5h1020.5M0 255.1h1020.5M0 226.8h1020.5M0 198.4h1020.5M0 170.1h1020.5M0 141.7h1020.5M0 113.4h1020.5M0 85h1020.5M0 56.7h1020.5M0 28.3h1020.5M992.1 0v1020.5M963.8 0v1020.5M935.4 984.3v36.2M935.4 0v944.9M907.1 984.3v36.2M907.1 0v944.9M878.8 984.3l-.1 36.2M878.7 0v944.9M850.5 984.3l-.1 36.2M850.4 0v944.9M822.1 984.3l-.1 36.2M822 0v944.9M793.8 984.3l-.1 36.2M793.7 0v944.9M765.4 0v935.4M737 984.2v36.3M737 0v944.9M708.7 984.2v36.3M708.7 0v944.9M680.3 984.2v36.3M680.3 0v944.9M652 984.2v36.3M652 0v944.9M623.6 984.2v36.3M623.6 0v944.9M595.3 984.2v36.3M595.3 0v944.9M566.9 0v1020.5M538.6 0v1020.5M510.2 0v1020.5M481.9 0v1020.5M453.5 0v1020.5M425.2 0v1020.5M396.9 0v1020.5M368.5 0v1020.5M340.2 0v1020.5M311.8 0v1020.5M283.5 0v1020.5M255.1 0v1020.5M226.8 0v1020.5M198.4 0v1020.5M170.1 0v1020.5M141.7 0v1020.5M113.4 0v1020.5M85 0v1020.5M56.7 0v1020.5M28.3 0v1020.5"/><path style="fill:none;stroke:#fff;stroke-miterlimit:10;stroke-width:1.4px" d="M0 765.4h255.1v255.1H0zM255.1 765.4h255.1v255.1H255.1zM765.4 992.1v28.4H510.2V765.4h255.2v170M765.4 944.9V765.4h255.1v255.1H765.4v-36.3M0 510.2h255.1v255.1H0zM255.1 510.2h255.1v255.1H255.1zM510.2 510.2h255.1v255.1H510.2zM765.4 510.2h255.1v255.1H765.4zM0 255.1h255.1v255.1H0zM255.1 255.1h255.1v255.1H255.1zM510.2 255.1h255.1v255.1H510.2zM765.4 255.1h255.1v255.1H765.4zM0 0h255.1v255.1H0zM255.1 0h255.1v255.1H255.1zM510.2 0h255.1v255.1H510.2zM765.4 0h255.1v255.1H765.4z"/><path d="M584.3 964.3c0-1.9.3-3.7.9-5.3.6-1.7 1.4-3.1 2.5-4.3 1.1-1.2 2.4-2.2 4-2.9 1.6-.7 3.3-1 5.3-1s3.8.3 5.3 1c1.6.7 2.9 1.7 4 2.9s1.9 2.7 2.5 4.3c.6 1.7.9 3.4.9 5.3s-.3 3.6-.9 5.2c-.6 1.6-1.4 3-2.5 4.2-1.1 1.2-2.4 2.1-4 2.8-1.6.7-3.3 1-5.3 1s-3.8-.3-5.3-1c-1.6-.7-2.9-1.6-4-2.8-1.1-1.2-1.9-2.6-2.5-4.2-.6-1.6-.9-3.4-.9-5.2Zm5.7 0c0 1.1.1 2.1.4 3.2s.7 1.9 1.2 2.8c.6.8 1.3 1.5 2.2 2 .9.5 2 .7 3.2.7s2.4-.2 3.2-.7c.9-.5 1.6-1.1 2.2-2 .6-.8 1-1.7 1.2-2.8s.4-2.1.4-3.2-.1-2.2-.4-3.3c-.3-1.1-.7-2-1.2-2.8s-1.3-1.5-2.2-2c-.9-.5-2-.7-3.2-.7s-2.4.2-3.2.7c-.9.5-1.6 1.2-2.2 2-.6.8-1 1.8-1.2 2.8-.3 1.1-.4 2.1-.4 3.3ZM613.4 951.3h13.9c1.2 0 2.2.2 3.1.6.9.4 1.7.9 2.4 1.5s1.2 1.4 1.5 2.3c.3.9.5 1.8.5 2.7 0 1.5-.3 2.8-1 3.9-.6 1.1-1.7 1.9-3.1 2.5.7.3 1.3.6 1.7 1 .5.4.8.9 1.1 1.4.3.6.5 1.1.6 1.8.1.6.2 1.3.3 1.9v1.4c0 .6 0 1.1.1 1.7 0 .6.2 1.1.3 1.6.1.5.3 1 .6 1.3h-5.7c-.2-.4-.3-.9-.4-1.3 0-.5-.2-1-.2-1.5s-.1-1.1-.1-1.7c0-.6 0-1.1-.2-1.6-.2-1.3-.6-2.3-1.2-3-.6-.6-1.6-.9-3.1-.9h-5.7v10h-5.7v-25.7Zm5.7 11.6h6.2c1.3 0 2.2-.3 2.9-.9.7-.6 1-1.5 1-2.8s-.3-2.2-1-2.7c-.7-.6-1.6-.8-2.9-.8h-6.2v7.2ZM639.4 951.3h5.7V977h-5.7v-25.7ZM668.6 974.1c-1 1.3-2.1 2.2-3.3 2.7-1.2.5-2.5.8-3.7.8-2 0-3.8-.3-5.3-1-1.6-.7-2.9-1.6-4-2.8-1.1-1.2-1.9-2.6-2.5-4.2-.6-1.6-.9-3.4-.9-5.2s.3-3.7.9-5.3c.6-1.7 1.4-3.1 2.5-4.3 1.1-1.2 2.4-2.2 4-2.9 1.6-.7 3.3-1 5.3-1s2.6.2 3.8.6c1.2.4 2.3 1 3.3 1.7 1 .8 1.8 1.7 2.5 2.8s1.1 2.4 1.2 3.9H667c-.3-1.4-1-2.5-2-3.2-1-.7-2.1-1.1-3.5-1.1s-2.4.2-3.2.7c-.9.5-1.6 1.2-2.2 2-.6.8-1 1.8-1.2 2.8-.3 1.1-.4 2.1-.4 3.3s.1 2.1.4 3.2.7 1.9 1.2 2.8c.6.8 1.3 1.5 2.2 2 .9.5 2 .7 3.2.7 1.8 0 3.3-.5 4.3-1.4 1-.9 1.6-2.3 1.8-4.1h-5.7v-4.2h10.8v13.9h-3.6l-.6-2.9ZM677.4 951.3h5.7V977h-5.7v-25.7ZM688 951.3h5.6l10.7 17.2v-17.2h5.3V977h-5.7l-10.7-17.2V977h-5.3v-25.7ZM721.7 951.3h5.8l9.6 25.7h-5.9l-1.9-5.7h-9.6l-2 5.7H712l9.8-25.7Zm-.5 15.8h6.7l-3.2-9.4-3.3 9.4ZM739.3 951.3h5.7v21h12.5v4.8h-18.2v-25.7ZM770.7 951.3h11.6c1.6 0 3 .2 4.1.7s2 1.1 2.8 1.9c.7.8 1.2 1.7 1.5 2.6.3 1 .5 2 .5 3s-.2 2.1-.5 3.1-.8 1.9-1.5 2.6c-.7.8-1.6 1.4-2.8 1.9s-2.5.7-4.1.7h-5.9v9.2h-5.7v-25.7Zm5.7 12.1h4.4c.6 0 1.3 0 1.9-.1.6 0 1.1-.3 1.6-.6s.8-.7 1.1-1.2c.3-.5.4-1.2.4-2s-.1-1.5-.4-2c-.3-.5-.6-.9-1.1-1.2-.5-.3-1-.5-1.6-.6-.6 0-1.2-.1-1.9-.1h-4.4v7.7ZM794.7 951.3h13.9c1.2 0 2.2.2 3.1.6.9.4 1.7.9 2.4 1.5s1.2 1.4 1.5 2.3c.3.9.5 1.8.5 2.7 0 1.5-.3 2.8-1 3.9-.6 1.1-1.7 1.9-3.1 2.5.7.3 1.3.6 1.7 1 .5.4.8.9 1.1 1.4.3.6.5 1.1.6 1.8.1.6.2 1.3.3 1.9v1.4c0 .6 0 1.1.1 1.7 0 .6.2 1.1.3 1.6.1.5.3 1 .6 1.3H811c-.2-.4-.3-.9-.4-1.3s-.2-1-.2-1.5-.1-1.1-.1-1.7c0-.6 0-1.1-.2-1.6-.2-1.3-.6-2.3-1.2-3-.6-.6-1.6-.9-3.1-.9h-5.7v10h-5.7v-25.7Zm5.7 11.6h6.2c1.3 0 2.2-.3 2.9-.9.7-.6 1-1.5 1-2.8s-.3-2.2-1-2.7c-.7-.6-1.6-.8-2.9-.8h-6.2v7.2ZM842.5 967.3c0 3.5-1 6.1-2.9 7.8-1.9 1.7-4.6 2.6-8.1 2.6s-6.2-.8-8.1-2.5c-1.9-1.7-2.9-4.3-2.9-7.8v-16h5.7v16c0 .7 0 1.4.2 2.1s.4 1.3.8 1.8.9.9 1.6 1.3c.7.3 1.6.5 2.8.5 2 0 3.4-.5 4.2-1.4.8-.9 1.2-2.3 1.2-4.2v-16h5.7v16ZM851.2 968.5c0 .9.2 1.6.5 2.2.3.6.7 1.1 1.2 1.5.5.4 1.1.6 1.8.8.7.2 1.4.3 2.2.3s1 0 1.6-.1c.6 0 1.1-.2 1.6-.5s.9-.6 1.3-1c.3-.4.5-1 .5-1.6s-.2-1.3-.7-1.7c-.4-.4-1-.8-1.7-1.1-.7-.3-1.5-.6-2.4-.8-.9-.2-1.8-.4-2.8-.7-1-.2-1.9-.5-2.8-.9-.9-.3-1.7-.8-2.4-1.3-.7-.6-1.3-1.2-1.7-2.1-.4-.8-.7-1.8-.7-3s.3-2.5.8-3.4c.6-1 1.3-1.8 2.2-2.4.9-.6 1.9-1.1 3.1-1.4 1.2-.3 2.3-.5 3.5-.5s2.6.2 3.9.5c1.2.3 2.3.8 3.3 1.5s1.7 1.5 2.3 2.6c.6 1 .8 2.3.8 3.8h-5.5c0-.8-.2-1.4-.5-1.9s-.6-.9-1.1-1.2c-.5-.3-1-.5-1.6-.6-.6-.1-1.2-.2-1.9-.2s-.9 0-1.4.1c-.5 0-.9.3-1.2.5-.4.2-.7.5-.9.9-.2.4-.4.8-.4 1.4s0 .9.3 1.2c.2.3.6.6 1.1.8.6.3 1.3.5 2.3.8 1 .3 2.3.6 3.9 1 .3 0 .7.2 1.2.3.5.1 1 .3 1.6.5.6.2 1.1.5 1.7.9.6.4 1.1.8 1.5 1.3.5.5.8 1.2 1.1 1.9.3.7.4 1.6.4 2.5s-.2 2.3-.7 3.3c-.5 1-1.1 1.9-2 2.6-.9.7-2 1.3-3.3 1.7-1.3.4-2.9.6-4.6.6s-2.8-.2-4.1-.5c-1.3-.4-2.5-.9-3.5-1.7-1-.7-1.8-1.7-2.4-2.8-.6-1.2-.9-2.5-.9-4.1h5.5ZM877.7 951.3h5.8l9.6 25.7h-5.9l-1.9-5.7h-9.6l-2 5.7H868l9.8-25.7Zm-.5 15.8h6.7l-3.2-9.4-3.3 9.4ZM911.7 963.6l-8.3-12.2h6.6l5 8.2 5.2-8.2h6.2l-8.2 12.3 9 13.4h-6.7l-5.6-8.9-5.7 8.9h-6.4l9-13.5ZM929.4 951.3h5.7v21h12.5v4.8h-18.2v-25.7Z" style="fill:#fff"/></svg>