<svg xmlns="http://www.w3.org/2000/svg" viewbox="0 0 275 346" width="275" height="346" fill="#822EF5"><path d="M56.145 84.655c-20.238 13.483-33.613 36.496-33.613 62.586 0 41.448 33.725 75.168 75.167 75.168 12.086 0 23.497-2.879 33.62-7.964l-.021-.011-.13-.068c10.161 5.134 21.63 8.043 33.771 8.043 41.45 0 75.173-33.72 75.173-75.168 0-26.113-13.396-49.149-33.663-62.626-2.059-39.665-34.973-71.3-75.14-71.3-40.106 0-72.977 31.542-75.13 71.118l-.034.222zm17.165-8.664c5.779-26.71 29.585-46.787 58.001-46.787 32.728 0 59.353 26.626 59.353 59.354 0 17.274-7.424 32.845-19.238 43.702l-8.281-4.747-15.918 9.123 25.565 14.658c16.324-10.833 28.196-27.854 32.24-47.693 11.799 10.846 19.203 26.394 19.203 43.642 0 32.695-26.601 59.293-59.297 59.293-28.389 0-52.215-20.051-57.995-46.732l8.458-4.879v-18.245l-25.569 14.694c1.14 20.876 10.864 39.506 25.658 52.447l-.007-.017c-5.621 1.775-11.583 2.731-17.785 2.731-32.696 0-59.292-26.598-59.292-59.293 0-32.696 26.595-59.298 59.292-59.298 6.207 0 12.187.962 17.807 2.734l.037 9.626 15.859 9.063v-29.332c-10-5.084-21.58-7.965-33.661-7.965-8.555 0-16.797 1.443-24.466 4.09l.036-.169zm-50.757 211.932c0 20.764 15.907 37.241 36.132 37.241 5.5 0 10.717-1.62 15.717-3.552v-19.056c-4 2.473-9.78 4.736-15.263 4.736-10.556 0-18.251-8.186-18.251-19.48 0-11.627 7.544-19.919 18.311-19.919 6.144 0 12.203 2.265 15.203 4.956v-19.264c-6-2.586-10.65-3.658-15.807-3.658-20.235.001-36.042 16.677-36.042 37.996zm90.849 14.203c0 6.027-2.828 9.041-7.984 9.041-5.5 0-8.016-2.795-8.016-9.041v-27.726h-16v30.951c0 13.026 7.9 19.919 24.061 19.919 16.13 0 23.939-6.893 23.939-19.919v-30.951h-16v27.726zm121.888-5.921c-2.267-1.826-5.175-2.792-7.975-3.657-2.04-.538-5.698-1.398-7.107-2.479-.541-.43-.96-1.179-.96-1.934 0-2.048 2.04-3.552 5.066-3.552 2.789 0 5.801.859 8.936 2.473l5.486-11.192c-4.737-2.15-9.804-3.119-14.96-3.119-12.715 0-20.676 6.785-20.676 17.538 0 4.096 1.72 7.213 4.634 9.58 2.251 1.839 6.776 3.555 8.936 4.095 4.406 1.072 5.486 1.507 6.235 2.257.433.436.749 1.401.749 2.264 0 2.151-2.145 3.658-5.053 3.658-3.761 0-8.709-1.829-13.134-4.843l-5.925 12.16c6.146 3.769 12.179 5.595 18.518 5.595 13.45 0 22.069-7.21 22.069-18.398.001-4.741-2.053-8.188-4.839-10.446z"/><rect x="140" y="244" width="17" height="79"/><polygon points="187.402,259.4 170.402,259.4 170.402,274.4 163.402,274.4 163.402,288.4 170.402,288.4 170.402,323.4 187.402,323.4 187.402,288.4 198.402,288.4 198.402,274.4 187.402,274.4"/><circle cx="255.575" cy="317.174" r="6.964"/></svg>
