<!-- <svg width="90" height="28" viewBox="0 0 90 28" fill="none" xmlns="http://www.w3.org/2000/svg">
<path fill-rule="evenodd" clip-rule="evenodd" d="M51.3843 27.9464H43.8641C43.7205 27.9464 43.604 27.8296 43.604 27.6854V26.347C43.604 26.2028 43.7205 26.0859 43.8641 26.0859H51.3843V27.9464ZM51.224 20.5547H41.8278L42.5939 22.5871H51.1273C51.2712 22.5871 51.388 22.7042 51.388 22.8481L51.3845 24.0472H43.7679C42.3306 24.0472 41.1655 25.2157 41.1655 26.6567V27.3905C41.1655 28.8316 42.3306 29.9998 43.7679 29.9998H53.8235L53.8264 23.155C53.8264 21.7139 52.6612 20.5547 51.224 20.5547Z" fill="#abb3b8"/>
<mask id="mask0_851_5695"  maskUnits="userSpaceOnUse" x="56" y="18" width="12" height="13">
<path fill-rule="evenodd" clip-rule="evenodd" d="M56.1802 18.1982H67.5867V30.0002H56.1802V18.1982Z" fill="#abb3b8"/>
</mask>
<g mask="url(#mask0_851_5695)">
<path fill-rule="evenodd" clip-rule="evenodd" d="M64.9661 27.6881C64.9661 27.8323 64.8496 27.9492 64.7058 27.9492H58.8521V22.6279H64.7058C64.8496 22.6279 64.9661 22.7445 64.9661 22.8887V27.6881ZM64.9841 20.5548H58.8519V18.1982H58.8007H56.1802V30.0003H58.8519H64.9841C66.4216 30.0003 67.5867 28.8321 67.5867 27.391V23.1641C67.5867 21.723 66.4216 20.5548 64.9841 20.5548Z" fill="#abb3b8"/>
</g>
<path fill-rule="evenodd" clip-rule="evenodd" d="M73.3519 5.41455H60.1191V14.8597H62.7146V7.74865C62.7146 7.60442 62.8311 7.4876 62.9749 7.4876H66.4881C66.6319 7.4876 66.7485 7.60442 66.7485 7.74865V14.8597H69.3577V7.74865C69.3577 7.60442 69.4742 7.4876 69.6181 7.4876H73.0803C73.2241 7.4876 73.3407 7.60442 73.3407 7.74865V14.8597H75.9542V8.02382C75.9542 6.58275 74.7891 5.41455 73.3519 5.41455Z" fill="#abb3b8"/>
<mask id="mask1_851_5695"  maskUnits="userSpaceOnUse" x="91" y="5" width="13" height="10">
<path fill-rule="evenodd" clip-rule="evenodd" d="M91.6665 5.41455H103.333V14.8597H91.6665V5.41455Z" fill="#abb3b8"/>
</mask>
<g mask="url(#mask1_851_5695)">
<path fill-rule="evenodd" clip-rule="evenodd" d="M100.894 5.41455V12.5478C100.894 12.6917 100.778 12.8088 100.634 12.8088H94.3854C94.2416 12.8088 94.1251 12.6917 94.1251 12.5478V5.41455H91.6665V12.2504C91.6665 13.6915 92.8316 14.8597 94.2689 14.8597H100.731C102.168 14.8597 103.333 13.6915 103.333 12.2504V5.41455H100.894Z" fill="#abb3b8"/>
</g>
<path fill-rule="evenodd" clip-rule="evenodd" d="M47.543 11.2059C47.543 11.0616 47.6595 10.9448 47.803 10.9448H55.3233V12.8053H47.803C47.6595 12.8053 47.543 12.6885 47.543 12.5445V11.2059ZM47.7067 14.8595H57.762L57.7651 8.01468C57.7651 6.57332 56.6 5.41406 55.1628 5.41406H45.7665L46.5326 7.44673H55.0661C55.2099 7.44673 55.3267 7.56355 55.3267 7.70778L55.3233 8.90684H47.7067C46.2694 8.90684 45.104 10.075 45.104 11.5161V12.2502C45.104 13.691 46.2694 14.8595 47.7067 14.8595Z" fill="#abb3b8"/>
<path fill-rule="evenodd" clip-rule="evenodd" d="M86.8628 12.548C86.8628 12.6922 86.7466 12.809 86.6028 12.809H80.749V7.48779H86.6028C86.7466 7.48779 86.8628 7.60432 86.8628 7.74855V12.548ZM86.8813 5.4145H80.7491V3.05762H80.6976H78.0771V14.8599H80.7491H86.8813C88.3189 14.8599 89.4837 13.6917 89.4837 12.2506V8.02377C89.4837 6.5827 88.3189 5.4145 86.8813 5.4145Z" fill="#abb3b8"/>
<path fill-rule="evenodd" clip-rule="evenodd" d="M12.3262 29.9999H22.9939L22.9951 15.4101L12.3262 11.1982V29.9999Z" fill="#abb3b8"/>
<mask id="mask2_851_5695"  maskUnits="userSpaceOnUse" x="12" y="0" width="11" height="14">
<path fill-rule="evenodd" clip-rule="evenodd" d="M12.3262 0H22.9951V13.615H12.3262V0Z" fill="#abb3b8"/>
</mask>
<g mask="url(#mask2_851_5695)">
<path fill-rule="evenodd" clip-rule="evenodd" d="M12.3262 0V9.40071L22.9951 13.6152L22.9939 0H12.3262Z" fill="#abb3b8"/>
</g>
<mask id="mask3_851_5695"  maskUnits="userSpaceOnUse" x="0" y="0" width="11" height="19">
<path fill-rule="evenodd" clip-rule="evenodd" d="M0 0H10.6686V18.8016H0V0Z" fill="#abb3b8"/>
</mask>
<g mask="url(#mask3_851_5695)">
<path fill-rule="evenodd" clip-rule="evenodd" d="M0 0V18.8017L10.6686 14.5898L10.6675 0H0Z" fill="#abb3b8"/>
</g>
<path fill-rule="evenodd" clip-rule="evenodd" d="M0 30.0001H10.6675L10.6686 16.3853L0 20.5994V30.0001Z" fill="#abb3b8"/>
<path fill-rule="evenodd" clip-rule="evenodd" d="M30.1187 1.0487V3.59625L32.7903 2.56679V0.0195312L30.1187 1.0487Z" fill="#abb3b8"/>
<path fill-rule="evenodd" clip-rule="evenodd" d="M38.8374 12.8095H36.4752H32.79V9.6709H36.6012H37.3633H38.8374C39.1938 9.6709 39.5212 9.79176 39.7841 9.99338C40.1587 10.2801 40.4012 10.7309 40.4012 11.24C40.4012 12.1068 39.701 12.8095 38.8374 12.8095ZM32.79 4.66895H35.8222H38.4663C38.634 4.66895 38.7939 4.70644 38.9427 4.77077C39.4806 4.98335 39.8624 5.50832 39.8624 6.12386C39.8624 6.12386 39.8509 6.32923 39.8302 6.42731C39.7519 6.89661 39.4409 7.26899 39.0198 7.44379C38.8348 7.52974 38.6294 7.57878 38.4122 7.57878H35.5679H32.79V4.66895ZM38.0167 2.56689H32.7901V4.66764L30.1182 5.6971V14.8596H39.5935C39.6119 14.8598 39.63 14.8624 39.6485 14.8624C39.6672 14.8624 39.685 14.8598 39.7037 14.8596C41.6035 14.8298 43.1349 13.2786 43.1349 11.3668C43.1349 10.2883 42.6472 9.32458 41.8814 8.68337C41.897 8.66404 41.9111 8.64385 41.9257 8.62395C42.3903 8.01043 42.6688 7.24836 42.6688 6.41879C42.6688 4.8557 41.6884 3.5254 40.3121 3.00273C39.6807 2.73073 38.96 2.57786 38.2083 2.56747C38.181 2.56689 38.0843 2.56689 38.0167 2.56689Z" fill="#abb3b8"/>
<path fill-rule="evenodd" clip-rule="evenodd" d="M30 18.3335V30.0002H40L39.1454 27.7882H32.731V18.3335H30Z" fill="#abb3b8"/>
</svg> -->
<svg width="90" height="28" viewBox="0 0 90 28" fill="none" xmlns="http://www.w3.org/2000/svg">
<g clip-path="url(#clip0_15857_70398)">
<path d="M61.5083 20.1809L61.5483 20.1753H61.5152L61.5083 20.1809Z" fill="#abb3b8"/>
<path d="M59.7207 22.1718C59.7207 22.1213 59.7207 22.0719 59.7287 22.0225V22.0314C59.7253 22.0449 59.7218 22.1381 59.7207 22.1718Z" fill="#abb3b8"/>
<path d="M61.5698 20.1728C61.6326 20.166 61.6977 20.1638 61.7617 20.1627C61.6976 20.1621 61.6335 20.1654 61.5698 20.1728Z" fill="#abb3b8"/>
<path d="M77.3252 6.87378L77.3663 6.86816H77.3332L77.3252 6.87378Z" fill="#abb3b8"/>
<path d="M75.5376 8.86483C75.5376 8.8143 75.5376 8.76489 75.5456 8.71436V8.72446C75.5422 8.73682 75.5387 8.83002 75.5376 8.86483Z" fill="#abb3b8"/>
<path d="M77.3867 6.86463C77.4507 6.85902 77.5146 6.85565 77.5797 6.85565C77.5153 6.85467 77.4508 6.85767 77.3867 6.86463Z" fill="#abb3b8"/>
<path d="M46.4352 22.8238L44.3285 16.2544H42.2518L40.1426 22.8285L38.0911 15.645H36L38.855 26.1858H40.8585L43.2871 19.2858L45.7446 26.1858H47.7204L50.5755 15.645H48.4867L46.4352 22.8238Z" fill="#abb3b8"/>
<path d="M67.248 26.2012H69.2899V24.8774V15.645H67.248V26.2012Z" fill="#abb3b8"/>
<path d="M54.8236 18.1885C54.0045 18.1885 53.2038 18.4273 52.5227 18.8747C51.8416 19.3221 51.3108 19.958 50.9974 20.7021C50.6839 21.4461 50.6019 22.2648 50.7617 23.0546C50.9215 23.8445 51.3159 24.57 51.8951 25.1395C52.4743 25.7089 53.2122 26.0967 54.0156 26.2538C54.819 26.4109 55.6517 26.3303 56.4084 26.0221C57.1652 25.7139 57.812 25.192 58.267 24.5224C58.7221 23.8528 58.965 23.0656 58.965 22.2603C58.965 21.1804 58.5287 20.1447 57.752 19.3811C56.9753 18.6175 55.9219 18.1885 54.8236 18.1885ZM54.8236 24.5441C54.364 24.5449 53.9145 24.4115 53.532 24.161C53.1495 23.9104 52.8512 23.554 52.6749 23.1367C52.4985 22.7195 52.452 22.2601 52.5412 21.8169C52.6304 21.3736 52.8514 20.9663 53.1761 20.6466C53.5008 20.3268 53.9147 20.1089 54.3654 20.0205C54.8162 19.9321 55.2834 19.9771 55.7081 20.1499C56.1327 20.3226 56.4958 20.6154 56.7512 20.991C57.0066 21.3667 57.1429 21.8084 57.1429 22.2603C57.1435 22.866 56.8997 23.4472 56.4648 23.8763C56.0299 24.3054 55.4397 24.5473 54.8236 24.5489V24.5441Z" fill="#abb3b8"/>
<path d="M77.3591 15.645V18.9221C76.7383 18.4958 76.0106 18.2451 75.255 18.1972C74.4993 18.1492 73.7448 18.3058 73.0734 18.65C72.402 18.9942 71.8395 19.5127 71.4469 20.1493C71.0543 20.7858 70.8467 21.516 70.8467 22.2605C70.8467 23.0049 71.0543 23.7351 71.4469 24.3717C71.8395 25.0083 72.402 25.5268 73.0734 25.871C73.7448 26.2152 74.4993 26.3718 75.255 26.3238C76.0106 26.2759 76.7383 26.0251 77.3591 25.5989V26.2083H79.401V15.645H77.3591ZM74.9929 24.5491C74.5335 24.5493 74.0842 24.4156 73.7021 24.1648C73.3199 23.914 73.022 23.5573 72.846 23.14C72.67 22.7227 72.6238 22.2635 72.7133 21.8204C72.8028 21.3773 73.0239 20.9702 73.3487 20.6507C73.6736 20.3312 74.0875 20.1135 74.5381 20.0253C74.9888 19.9371 75.4559 19.9822 75.8804 20.1551C76.305 20.3279 76.6678 20.6206 76.9231 20.9962C77.1784 21.3718 77.3147 21.8135 77.3147 22.2652C77.3141 22.8705 77.0693 23.4509 76.634 23.8791C76.1988 24.3072 75.6086 24.5482 74.9929 24.5491Z" fill="#abb3b8"/>
<path d="M62.7724 22.5929C62.7724 22.5268 62.7724 22.5032 62.7808 22.4358C62.8205 21.9513 63.0279 21.4948 63.3684 21.1424C63.7089 20.79 64.162 20.5629 64.6521 20.4991H64.6593H64.6942H64.717C64.784 20.4914 64.8514 20.4879 64.9188 20.4885H64.9692H65.0509C65.117 20.4885 65.1818 20.498 65.2455 20.5074C65.3091 20.5169 65.3656 20.5251 65.3656 20.5251V18.3652C64.3994 18.3921 63.4763 18.7641 62.7688 19.4115V18.6274H60.7329V26.1852H62.7748V22.659C62.7748 22.659 62.7724 22.5964 62.7724 22.5929Z" fill="#abb3b8"/>
<path d="M55.9504 11.6453V12.2357H57.7689V4.37203H55.9504V4.91761C55.328 4.5009 54.6017 4.25892 53.8499 4.21773C53.098 4.17654 52.3489 4.33769 51.6832 4.68384C51.0176 5.02999 50.4605 5.54803 50.0719 6.18225C49.6834 6.81646 49.478 7.54283 49.478 8.28321C49.478 9.0236 49.6834 9.74997 50.0719 10.3842C50.4605 11.0184 51.0176 11.5364 51.6832 11.8826C52.3489 12.2287 53.098 12.3899 53.8499 12.3487C54.6017 12.3075 55.328 12.0655 55.9504 11.6488V11.6453ZM51.2961 8.28203C51.2959 7.83022 51.4319 7.38849 51.6871 7.01273C51.9423 6.63697 52.305 6.34405 52.7296 6.17104C53.1541 5.99803 53.6212 5.95271 54.072 6.04079C54.5227 6.12888 54.9367 6.34642 55.2616 6.6659C55.5866 6.98538 55.8078 7.39244 55.8974 7.83558C55.987 8.27872 55.9409 8.73803 55.765 9.1554C55.589 9.57278 55.2911 9.92946 54.9089 10.1803C54.5267 10.4312 54.0774 10.565 53.6179 10.5647C53.0024 10.5638 52.4124 10.323 51.9772 9.89511C51.542 9.46723 51.2971 8.88716 51.2961 8.28203Z" fill="#abb3b8"/>
<path d="M38.0599 5.46273L41.1612 11.5999H42.5545L45.6545 5.46273V12.2093H47.7132V1.66846H45.5152L41.8578 8.56735L38.1992 1.66846H36V12.2093H38.0599V5.46273Z" fill="#abb3b8"/>
<path d="M67.1903 4.37039H64.728L61.903 7.94028V1.66846H59.8623V12.2294H61.903V8.14222L64.8181 12.2294H67.2804L64.2668 8.0442L67.1903 4.37039Z" fill="#abb3b8"/>
<path d="M79.4055 8.59876C79.4055 8.53145 79.4055 8.50901 79.4139 8.44052C79.4538 7.9562 79.6613 7.49995 80.0018 7.14777C80.3423 6.79559 80.7953 6.56874 81.2852 6.505H81.2936H81.3284H81.3501C81.4175 6.49768 81.4853 6.49452 81.5531 6.49556H81.5651H81.6035H81.6852C81.75 6.49556 81.8149 6.505 81.8798 6.51445C81.9446 6.5239 81.9999 6.53098 81.9999 6.53098V4.37109C81.0317 4.39691 80.1063 4.7689 79.3971 5.41738V4.63326H77.3672V12.2289H79.4091V8.59876H79.4055Z" fill="#abb3b8"/>
<path d="M71.7317 10.5645C71.228 10.5634 70.7383 10.4017 70.3361 10.1036C69.9338 9.80544 69.6409 9.38703 69.5013 8.9112H75.8179C75.8534 8.70318 75.8719 8.4927 75.8732 8.28178C75.8737 7.27312 75.4936 6.30014 74.8064 5.55122C74.1192 4.8023 73.1738 4.33073 72.1532 4.22781C71.1327 4.12489 70.1096 4.39795 69.282 4.99411C68.4545 5.59027 67.8814 6.46713 67.6737 7.45489C67.466 8.44266 67.6384 9.47107 68.1577 10.341C68.6769 11.2109 69.506 11.8605 70.4844 12.1639C71.4628 12.4673 72.5209 12.4029 73.4538 11.9833C74.3868 11.5637 75.1282 10.8187 75.5344 9.89254H73.3724C73.1573 10.1051 72.9017 10.2739 72.6202 10.3892C72.3386 10.5045 72.0367 10.564 71.7317 10.5645ZM71.7317 5.99789C72.1908 5.99846 72.6394 6.13252 73.0211 6.38321C73.4028 6.6339 73.7006 6.99001 73.8769 7.40672H69.5877C69.7639 6.99011 70.0614 6.63404 70.4429 6.38334C70.8244 6.13265 71.2729 5.99853 71.7317 5.99789Z" fill="#abb3b8"/>
<path d="M27.2867 2.68142L20.8492 0.160571L20.4386 0L20.0257 0.160571L13.9977 2.51861L7.96978 0.160571L7.56139 0L7.15188 0.160571L0.713275 2.68142L0 2.96102V25.0401L0.713275 25.3186L7.15188 27.8394L7.56139 28L7.97091 27.8394L14 25.4814L20.028 27.8394L20.4386 28L20.8492 27.8394L27.2867 25.3186L28 25.0401V2.96102L27.2867 2.68142ZM20.4386 1.20372L26.8772 3.7257V12.8356L20.4386 10.3158V1.20372ZM14.4095 13.8787L20.4386 11.5207L26.4677 13.8787L26.7748 13.9989L26.4677 14.119L20.4386 16.4771L14.4095 14.119L14.1024 13.9989L14.4095 13.8787ZM7.56139 1.20372L14 3.7257V12.8356L7.56139 10.3147V1.20372ZM1.53343 13.8787L7.56139 11.5207L13.5905 13.8787L13.8976 13.9989L13.5905 14.119L7.56139 16.4771L1.53343 14.119L1.22629 13.9989L1.53343 13.8787ZM1.12504 24.2732V15.1588L7.56365 17.6785V26.7895L1.12504 24.2732ZM14.0022 24.2732V15.1588L20.4409 17.6785V26.7895L14.0022 24.2732Z" fill="#abb3b8"/>
</g>
</svg>
