<svg width="24" height="24" viewBox="0 0 24 24" fill="none" xmlns="http://www.w3.org/2000/svg">
<path fill-rule="evenodd" clip-rule="evenodd" d="M7.5 16.646V21.2895C7.5 21.3382 7.5071 21.3866 7.52109 21.4332C7.60044 21.6977 7.87918 21.8478 8.14367 21.7684L12 20.6115L15.8563 21.7684C15.9029 21.7824 15.9513 21.7895 16 21.7895C16.2761 21.7895 16.5 21.5656 16.5 21.2895V16.6462L15.7247 16.7081C15.0954 16.7583 14.498 17.0058 14.0175 17.4152L13.379 17.9594C12.5851 18.6359 11.4175 18.6359 10.6237 17.9594L9.98515 17.4152C9.50466 17.0058 8.90724 16.7583 8.27795 16.7081L7.5 16.646Z" fill="url(#paint0_linear_10080_34787)"/>
<path fill-rule="evenodd" clip-rule="evenodd" d="M11.2125 2.79872C11.7202 2.44222 12.4121 2.46866 12.8925 2.87803L13.531 3.42217C14.1316 3.93401 14.8784 4.24333 15.665 4.3061L16.5013 4.37284C17.1739 4.42651 17.708 4.9606 17.7616 5.63318L17.8284 6.46944C17.8912 7.25606 18.2005 8.00284 18.7123 8.60345L19.2565 9.24197C19.6941 9.75551 19.6941 10.5108 19.2565 11.0244L18.7123 11.6629C18.2005 12.2635 17.8912 13.0103 17.8284 13.7969L17.7616 14.6331C17.708 15.3057 17.1739 15.8398 16.5013 15.8935L15.665 15.9602C14.8784 16.023 14.1316 16.3323 13.531 16.8442L12.8925 17.3883C12.379 17.8259 11.6237 17.8259 11.1101 17.3883L10.4716 16.8442C9.871 16.3323 9.12423 16.023 8.33761 15.9602L7.50135 15.8935C6.82876 15.8398 6.29468 15.3057 6.241 14.6331L6.17427 13.7969C6.1115 13.0103 5.80217 12.2635 5.29033 11.6629L4.72569 12.1441L5.29033 11.6629L4.7462 11.0244C4.30856 10.5108 4.30856 9.75551 4.7462 9.24197L5.29033 8.60345C5.80217 8.00284 6.1115 7.25606 6.17427 6.46944L6.241 5.63318C6.29468 4.9606 6.82876 4.42651 7.50135 4.37284L8.33761 4.3061C9.12423 4.24333 9.871 3.93401 10.4716 3.42217L11.1101 2.87803C11.1433 2.84977 11.1775 2.82333 11.2125 2.79872ZM15 10.133C15 11.7898 13.6569 13.133 12 13.133C10.3431 13.133 9 11.7898 9 10.133C9 8.47613 10.3431 7.13298 12 7.13298C13.6569 7.13298 15 8.47613 15 10.133Z" fill="url(#paint1_linear_10080_34787)"/>
<defs>
<linearGradient id="paint0_linear_10080_34787" x1="12.3119" y1="13.1333" x2="12.6038" y2="22.5666" gradientUnits="userSpaceOnUse">
<stop stop-color="#eb4949" stop-opacity="0.24"/>
<stop offset="1" stop-color="#eb4949" stop-opacity="0.64"/>
</linearGradient>
<linearGradient id="paint1_linear_10080_34787" x1="12.0013" y1="1.7998" x2="12.0013" y2="18.4665" gradientUnits="userSpaceOnUse">
<stop stop-color="#eb4949"/>
<stop offset="1" stop-color="#eb4949" stop-opacity="0.64"/>
</linearGradient>
</defs>
</svg>
