<svg width="24" height="24" viewBox="0 0 24 24" fill="none" xmlns="http://www.w3.org/2000/svg">
<path fill-rule="evenodd" clip-rule="evenodd" d="M12.4145 8.28147C12.4145 7.82507 12.0445 7.45508 11.5881 7.45508C11.1317 7.45508 10.7617 7.82507 10.7617 8.28147V12.3419C10.7597 12.3655 10.7587 12.3893 10.7587 12.4133C10.7587 12.8604 11.1138 13.2246 11.5573 13.2392C11.5675 13.2396 11.5778 13.2398 11.5881 13.2398L11.6017 13.2397H14.0642C14.5206 13.2397 14.8906 12.8697 14.8906 12.4133C14.8906 11.9569 14.5206 11.5869 14.0642 11.5869H12.4145V8.28147ZM19 12C19 15.866 15.866 19 12 19C8.13401 19 5 15.866 5 12C5 8.13401 8.13401 5 12 5C15.866 5 19 8.13401 19 12Z" fill="url(#paint0_linear_10269_34622)"/>
<path fill-rule="evenodd" clip-rule="evenodd" d="M12 19C15.866 19 19 15.866 19 12C19 8.13401 15.866 5 12 5C8.13401 5 5 8.13401 5 12C5 15.866 8.13401 19 12 19ZM12 20.5C16.6944 20.5 20.5 16.6944 20.5 12C20.5 7.30558 16.6944 3.5 12 3.5C7.30558 3.5 3.5 7.30558 3.5 12C3.5 16.6944 7.30558 20.5 12 20.5Z" fill="#009688" fill-opacity="0.4"/>
<defs>
<linearGradient id="paint0_linear_10269_34622" x1="17.6667" y1="5.38889" x2="17.6667" y2="18.6111" gradientUnits="userSpaceOnUse">
<stop stop-color="#009688"/>
<stop offset="1" stop-color="#009688" stop-opacity="0.64"/>
</linearGradient>
</defs>
</svg>
