<svg width="20" height="20" viewBox="0 0 20 20" fill="none" xmlns="http://www.w3.org/2000/svg">
<rect x="4.90234" y="3.66992" width="4.22222" height="12.6667" fill="#DDDDDD"/>
<path fill-rule="evenodd" clip-rule="evenodd" d="M4.65234 4.46183C4.65234 3.7904 5.19665 3.24609 5.86808 3.24609H12.0255C12.3569 3.24609 12.6255 3.51472 12.6255 3.84609V6.3248H15.1042C15.4356 6.3248 15.7042 6.59343 15.7042 6.9248V15.5452C15.7042 16.2166 15.1599 16.7609 14.4885 16.7609H5.86808C5.19666 16.7609 4.65234 16.2166 4.65234 15.5452V4.46183ZM5.85333 4.45589C5.85289 4.45694 5.85234 4.45855 5.85234 4.46183V15.5452C5.85234 15.5485 5.85289 15.5501 5.85333 15.5511C5.85395 15.5526 5.85509 15.5544 5.85695 15.5563C5.85881 15.5582 5.86069 15.5593 5.86214 15.5599C5.86319 15.5604 5.8648 15.5609 5.86808 15.5609H14.4885C14.4917 15.5609 14.4934 15.5604 14.4944 15.5599C14.4959 15.5593 14.4977 15.5582 14.4996 15.5563C14.5014 15.5544 14.5026 15.5526 14.5032 15.5511C14.5036 15.5501 14.5042 15.5485 14.5042 15.5452V7.5248H12.0255C11.6941 7.5248 11.4255 7.25617 11.4255 6.9248V4.44609H5.86808C5.8648 4.44609 5.86319 4.44664 5.86214 4.44708C5.86069 4.4477 5.85881 4.44884 5.85695 4.4507C5.85509 4.45256 5.85395 4.45444 5.85333 4.45589Z" fill="#595959"/>
<path fill-rule="evenodd" clip-rule="evenodd" d="M11.6015 3.42183C11.8358 3.18752 12.2157 3.18752 12.45 3.42183L15.5287 6.50053C15.7631 6.73485 15.7631 7.11475 15.5287 7.34906C15.2944 7.58338 14.9145 7.58338 14.6802 7.34906L11.6015 4.27036C11.3672 4.03604 11.3672 3.65614 11.6015 3.42183Z" fill="#595959"/>
<path fill-rule="evenodd" clip-rule="evenodd" d="M10.1781 8.01758C10.5095 8.01758 10.7781 8.28621 10.7781 8.61758V12.9278C10.7781 13.2591 10.5095 13.5278 10.1781 13.5278C9.84675 13.5278 9.57812 13.2591 9.57812 12.9278V8.61758C9.57812 8.28621 9.84675 8.01758 10.1781 8.01758Z" fill="#595959"/>
<path fill-rule="evenodd" clip-rule="evenodd" d="M7.42188 10.7699C7.42188 10.4386 7.6905 10.1699 8.02188 10.1699H12.3321C12.6634 10.1699 12.9321 10.4386 12.9321 10.7699C12.9321 11.1013 12.6634 11.3699 12.3321 11.3699H8.02188C7.6905 11.3699 7.42188 11.1013 7.42188 10.7699Z" fill="#595959"/>
</svg>
