<svg width="20" height="20" viewBox="0 0 20 20" fill="none" xmlns="http://www.w3.org/2000/svg">
<rect x="4" y="5" width="4" height="10" fill="#DDDDDD"/>
<path fill-rule="evenodd" clip-rule="evenodd" d="M15.332 4.66797C16.0684 4.66797 16.6654 5.26492 16.6654 6.0013V14.0013C16.6654 14.7377 16.0684 15.3346 15.332 15.3346H4.66536C3.92898 15.3346 3.33203 14.7377 3.33203 14.0013V6.0013C3.33203 5.26492 3.92898 4.66797 4.66536 4.66797H15.332ZM15.3989 5.94098H4.59888V14.061H15.3989V5.94098ZM13.332 10.668C13.7002 10.668 13.9987 10.9664 13.9987 11.3346C13.9987 11.7028 13.7002 12.0013 13.332 12.0013H6.66536C6.29717 12.0013 5.9987 11.7028 5.9987 11.3346C5.9987 10.9664 6.29717 10.668 6.66536 10.668H13.332ZM13.3321 8.00098C13.7003 8.00098 13.9988 8.29945 13.9988 8.66764C13.9988 9.03583 13.7003 9.33431 13.3321 9.33431H10.6654C10.2973 9.33431 9.99878 9.03583 9.99878 8.66764C9.99878 8.29945 10.2973 8.00098 10.6654 8.00098H13.3321ZM8.66545 8.00098C9.03364 8.00098 9.33211 8.29945 9.33211 8.66764C9.33211 9.03583 9.03364 9.33431 8.66545 9.33431C8.29726 9.33431 7.99878 9.03583 7.99878 8.66764C7.99878 8.29945 8.29726 8.00098 8.66545 8.00098ZM6.66545 8.00098C7.03364 8.00098 7.33211 8.29945 7.33211 8.66764C7.33211 9.03583 7.03364 9.33431 6.66545 9.33431C6.29726 9.33431 5.99878 9.03583 5.99878 8.66764C5.99878 8.29945 6.29726 8.00098 6.66545 8.00098Z" fill="#595959"/>
</svg>
