<svg width="20" height="20" viewBox="0 0 20 20" fill="none" xmlns="http://www.w3.org/2000/svg">
<path fill-rule="evenodd" clip-rule="evenodd" d="M17.9731 8.96463C15.4396 5.76555 12.7815 4.16602 9.99863 4.16602C7.30011 4.16602 4.71884 5.67008 2.25483 8.6782L2.02416 8.96461L1.93976 9.0811C1.54591 9.67702 1.57404 10.4657 2.02416 11.0341C4.55762 14.2331 7.21578 15.8327 9.99863 15.8327C12.6972 15.8327 15.2784 14.3286 17.7424 11.3205L17.9731 11.0341L18.0575 10.9176C18.4514 10.3217 18.4232 9.53301 17.9731 8.96463ZM3.76915 9.46359C5.86016 6.99891 7.93124 5.83228 9.99853 5.83228C12.1358 5.83228 14.2795 7.08074 16.4494 9.7294L16.6664 9.99896L16.4443 10.2747L16.2279 10.5343C14.1369 12.999 12.0658 14.1656 9.99853 14.1656C7.86124 14.1656 5.71756 12.9171 3.5477 10.2685L3.33063 9.99893L3.55277 9.72319L3.76915 9.46359ZM9.99872 7.49976C11.3794 7.49976 12.4987 8.61904 12.4987 9.99976C12.4987 11.3805 11.3794 12.4998 9.99872 12.4998C8.61801 12.4998 7.49872 11.3805 7.49872 9.99976C7.49872 8.61904 8.61801 7.49976 9.99872 7.49976ZM9.1653 9.99935C9.1653 9.53911 9.53839 9.16602 9.99863 9.16602C10.4589 9.16602 10.832 9.53911 10.832 9.99935C10.832 10.4596 10.4589 10.8327 9.99863 10.8327C9.53839 10.8327 9.1653 10.4596 9.1653 9.99935Z" fill="#009688"/>
</svg>
