<?xml version="1.0" encoding="UTF-8"?><svg id="a" xmlns="http://www.w3.org/2000/svg" width="250mm" height="210mm" viewBox="0 0 708.66 595.28"><path id="b" d="M476.71,508.41l-31.73,18.32v36.64l31.73,18.32,31.73-18.32v-36.64l-31.73-18.32ZM465.49,524.83h9.16l-11.68,20.22h-9.16l11.68-20.22ZM483.81,524.83h9.16l-23.35,40.44h-9.16l23.35-40.44ZM490.45,545.05h9.16l-11.68,20.22h-9.16l11.68-20.22Z" style="fill:#fe0000;"/><path d="M519.44,520.77h5.64l11.61,30.83h.5l11.61-30.83h5.36l-14.39,35.92h-6.25l-14.06-35.92ZM570.37,557.24c-10.12,0-15.18-3.25-15.18-9.74v-16.99c0-6.86,5.06-10.29,15.18-10.29s15.34,3.41,15.34,10.24v17.05c0,3.47-1.41,5.96-4.24,7.47s-6.53,2.27-11.1,2.27h0ZM570.48,553.64c6.66,0,9.99-2.07,9.99-6.2v-17.1c0-4.43-3.35-6.64-10.04-6.64-3.24,0-5.73.5-7.48,1.49-1.71,1-2.57,2.71-2.57,5.15v17.1c0,4.13,3.37,6.2,10.1,6.2h0ZM590.61,520.77h12.72c3.2,0,5.69.2,7.48.61,1.82.37,3.14,1.05,3.96,2.05.86,1,1.28,2.45,1.28,4.37v6.2c0,2.14-.89,3.8-2.68,4.98-1.75,1.14-3.98,1.72-6.7,1.72l11.61,15.99h-6.64l-10.38-15.33h-5.24v15.33h-5.41v-35.92ZM603.11,537.81c2.68,0,4.59-.31,5.75-.94,1.19-.66,1.79-1.84,1.79-3.54v-4.98c0-2.69-2.34-4.04-7.03-4.04h-7.59v13.5h7.09ZM636.57,557.24c-10.12,0-15.18-3.25-15.18-9.74v-16.99c0-6.86,5.06-10.29,15.18-10.29s15.34,3.41,15.34,10.24v17.05c0,3.47-1.41,5.96-4.24,7.47s-6.53,2.27-11.1,2.27h0ZM636.69,553.64c6.66,0,9.99-2.07,9.99-6.2v-17.1c0-4.43-3.35-6.64-10.04-6.64-3.24,0-5.73.5-7.48,1.49-1.71,1-2.57,2.71-2.57,5.15v17.1c0,4.13,3.37,6.2,10.1,6.2h0ZM656.82,520.77h6.53l19.7,29.67v-29.67h4.74v35.92h-6.53l-19.7-30.16v30.16h-4.74v-35.92ZM520.89,563.56h4.65c3.28,0,4.92,1.12,4.92,3.35v5.17c0,2.12-1.63,3.17-4.9,3.17h-4.67v-11.7ZM525.44,574.07c2.24,0,3.35-.67,3.35-2.02v-5.16c0-.43-.09-.8-.27-1.1-.18-.3-.43-.52-.76-.67-.32-.13-.66-.22-1.01-.27-.35-.06-.76-.09-1.23-.09h-2.88v9.3h2.79ZM554.56,563.56h7.86v1.23h-6.11v3.82h5.52v1.23h-5.52v4.2h6.29v1.23h-8.04v-11.7ZM589.82,575.44c-1,0-2.19-.1-3.57-.29v-1.46c1.39.3,2.62.45,3.68.45.89,0,1.54-.1,1.95-.29.41-.2.61-.58.61-1.12v-1.51c0-.5-.14-.86-.43-1.06-.29-.2-.79-.31-1.51-.31h-1.37c-1.14,0-1.95-.23-2.43-.69s-.72-1.17-.72-2.13v-.94c0-.64.14-1.15.41-1.55.29-.4.76-.69,1.42-.88.67-.19,1.59-.29,2.76-.29.78,0,1.78.07,3.01.2v1.32c-1.37-.2-2.42-.31-3.14-.31-1.12,0-1.86.11-2.22.32-.37.23-.56.61-.56,1.14v1.33c0,.41.14.71.43.9.3.18.81.27,1.53.27h1.41c.81,0,1.43.1,1.87.29.46.19.78.49.96.88.19.38.29.91.29,1.57v.85c0,.83-.16,1.48-.47,1.97-.3.48-.77.82-1.41,1.03s-1.47.31-2.51.31h0ZM618.13,563.56h1.75v11.7h-1.75v-11.7ZM649.37,575.44c-.55,0-1.05-.02-1.48-.07-.42-.05-.87-.14-1.33-.27-.53-.14-.97-.32-1.33-.54-.36-.23-.66-.53-.88-.92-.24-.41-.36-.87-.36-1.37v-5.53c0-.67.17-1.25.52-1.73s.83-.83,1.44-1.05c.59-.2,1.15-.35,1.68-.43.54-.1,1.12-.14,1.75-.14,1.49,0,2.84.1,4.04.29v1.35c-.46-.11-1.11-.2-1.97-.29-.84-.1-1.52-.14-2.04-.14-2.46,0-3.7.71-3.7,2.13v5.52c0,.38.11.72.34,1.01.24.29.56.5.97.63.38.14.77.25,1.15.31.38.05.82.07,1.3.07.81,0,1.66-.11,2.58-.32v-4.09h-2.74v-1.23h4.36v6.29c-1.56.36-3,.54-4.31.54h0ZM677.78,563.56h2.11l6.36,9.66v-9.66h1.53v11.7h-2.11l-6.36-9.83v9.83h-1.53v-11.7Z" style="fill:#0a0a0a; fill-rule:evenodd;"/></svg>