<?xml version="1.0" encoding="UTF-8"?><svg id="a" xmlns="http://www.w3.org/2000/svg" width="751.18" height="802.21" viewBox="0 0 751.18 802.21"><path id="b" d="M747.86,26c-2.13-2.13-5.01-3.32-8.02-3.32h-93.54c-1.57,0-2.84-1.27-2.84-2.83h0v-11.34c0-4.69-3.81-8.5-8.5-8.5h-87.88c-4.69,0-8.5,3.81-8.5,8.5v11.34c0,1.57-1.27,2.84-2.84,2.84H215.43c-1.57,0-2.83-1.27-2.83-2.83h0v-11.34C212.6,3.81,208.79,0,204.1,0h-87.88c-4.69,0-8.5,3.81-8.5,8.5v11.34c0,1.57-1.27,2.84-2.83,2.84H11.34C5.08,22.68,0,27.75,0,34.02v728.5c0,6.26,5.08,11.34,11.34,11.34h185.32c5.55,0,10.75,2.71,13.93,7.25l7.99,11.42c4.24,6.06,11.18,9.67,18.58,9.67h276.86c7.4,0,14.33-3.61,18.58-9.67l7.99-11.42c3.18-4.55,8.38-7.25,13.93-7.25h185.32c6.26,0,11.34-5.07,11.34-11.34h0V34.02c0-3.01-1.19-5.89-3.32-8.02M195.59,19.84h-70.87c-.78.02-1.43-.6-1.46-1.38-.02-.78.6-1.43,1.38-1.46.03,0,.05,0,.08,0h70.87c.78.02,1.4.67,1.38,1.46-.02.75-.63,1.36-1.38,1.38M626.46,19.84h-70.87c-.78-.02-1.4-.67-1.38-1.46.02-.75.63-1.36,1.38-1.38h70.87c.78.02,1.4.67,1.38,1.46-.02.75-.63,1.36-1.38,1.38" style="fill:#474a4a;"/><path d="M367.21,777.03h7.33v2.18h-4.94v13.21h-2.39v-13.21h-4.74v-2.18h4.74ZM344.44,778.58c2.04,4.61,4.11,9.22,6.21,13.85h-2.54c-.64-1.43-1.29-2.87-1.93-4.3h-8.21c-.64,1.43-1.29,2.87-1.93,4.3h-2.54c2.08-4.62,4.17-9.23,6.25-13.85.26-.56.71-1.01,1.27-1.27,1.3-.59,2.83-.03,3.42,1.27M345.22,785.98c-.94-2.09-1.88-4.19-2.82-6.28-.03-.07-.09-.12-.15-.15-.17-.08-.37-.01-.46.15l-2.82,6.28h6.25ZM419.72,785.82c.01-.74.03-1.48.04-2.22h-9.26v-2.79c0-.9.73-1.63,1.63-1.63h7.63v-2.18h-8.42c-1.79,0-3.24,1.46-3.23,3.25v8.89c0,1.8,1.45,3.25,3.25,3.25h8.4v-2.18h-7.63c-.9,0-1.63-.73-1.63-1.63v-2.76h9.23M311.54,771.02l-7.17,3.17c-.86.37-1.41,1.22-1.41,2.16v14.9c0,.94.55,1.78,1.41,2.16l7.17,3.16v-2.15c0-.35-.21-.67-.53-.81l-5.21-2.3c-.23-.1-.38-.33-.38-.58v-13.9c0-.25.15-.48.38-.59l5.21-2.3c.32-.14.53-.45.53-.8v-2.12M309,777.02c0,.79-.01,1.59-.02,2.38,0,.2.12.37.3.45l1.88.82c.17.08.28.25.29.44v5.42c0,.19-.11.36-.28.44l-1.9.85c-.18.08-.3.25-.3.45v2.37l4.37-1.94c.35-.16.58-.51.58-.9v-8c0-.38-.23-.73-.58-.89l-4.34-1.89M321.02,777.03l-4.33,1.89c-.35.16-.57.51-.58.89v8c0,.39.23.74.58.9l4.36,1.94v-2.38c0-.19-.11-.37-.29-.44l-1.9-.85c-.17-.08-.28-.25-.29-.44v-5.42c0-.19.12-.36.29-.44l1.88-.82c.18-.08.29-.25.29-.44h0c0-.8,0-1.6-.01-2.39M377.68,792.43h2.39v-15.39h-2.39v15.39ZM442.64,792.43v-6.1l5.58-9.29h-3.01l-3.77,6.28-3.77-6.28h-3.01l5.59,9.29v6.1h2.39ZM360.5,792.43l-5.35-6.61h.95c2.42-.04,4.36-2.03,4.32-4.46-.04-2.37-1.95-4.29-4.32-4.32h-8v2.18h7.81c1.22,0,2.21.98,2.22,2.2,0,1.22-.98,2.21-2.2,2.22h-3.63c-.47,0-.85.38-.85.85,0,.2.07.39.19.54l6,7.4h2.87ZM434.31,792.43l-5.34-6.61h1c2.42-.04,4.36-2.03,4.32-4.46-.04-2.37-1.95-4.29-4.32-4.32h-8v2.18h7.81c1.22,0,2.21.98,2.22,2.2,0,1.22-.98,2.21-2.2,2.22h-3.63c-.47,0-.85.38-.85.85,0,.2.07.39.19.54l6,7.4h2.81ZM394.09,792.43v-2.18h-5.5c-.9,0-1.63-.73-1.63-1.63h0v-11.58h-2.39v12.14c0,1.79,1.46,3.24,3.25,3.25h6.27ZM406.12,792.43v-2.18h-5.5c-.9,0-1.63-.73-1.63-1.63h0v-11.58h-2.39v12.14c0,1.79,1.46,3.24,3.25,3.25h6.27ZM318.49,771.03v2.12c0,.35.21.66.53.8l5.21,2.3c.23.11.38.34.38.59v13.9c0,.25-.15.48-.38.58l-5.21,2.3c-.32.14-.53.46-.53.81v2.15l7.17-3.16c.86-.38,1.41-1.22,1.41-2.16v-14.91c0-.93-.55-1.78-1.41-2.15l-7.17-3.17" style="fill:#d1d4d3;"/><rect id="c" width="751.18" height="802.21" style="fill:none;"/><line x1="36.57" y1="30.2" x2="36.57" y2="767.2" style="fill:none; stroke:#d1d4d3; stroke-miterlimit:10;"/><line x1="66.05" y1="30.2" x2="66.05" y2="767.2" style="fill:none; stroke:#d1d4d3; stroke-miterlimit:10;"/><line x1="95.53" y1="30.2" x2="95.53" y2="767.2" style="fill:none; stroke:#d1d4d3; stroke-miterlimit:10;"/><line x1="125.01" y1="30.2" x2="125.01" y2="767.2" style="fill:none; stroke:#d1d4d3; stroke-miterlimit:10;"/><line x1="154.49" y1="30.2" x2="154.49" y2="767.2" style="fill:none; stroke:#d1d4d3; stroke-miterlimit:10; stroke-width:3px;"/><line x1="183.97" y1="30.2" x2="183.97" y2="767.2" style="fill:none; stroke:#d1d4d3; stroke-miterlimit:10;"/><line x1="213.45" y1="30.2" x2="213.45" y2="767.2" style="fill:none; stroke:#d1d4d3; stroke-miterlimit:10;"/><line x1="242.93" y1="30.2" x2="242.93" y2="767.2" style="fill:none; stroke:#d1d4d3; stroke-miterlimit:10;"/><line x1="272.41" y1="30.2" x2="272.41" y2="767.2" style="fill:none; stroke:#d1d4d3; stroke-miterlimit:10;"/><line x1="301.89" y1="30.2" x2="301.89" y2="767.2" style="fill:none; stroke:#d1d4d3; stroke-miterlimit:10; stroke-width:3px;"/><line x1="331.37" y1="30.2" x2="331.37" y2="767.2" style="fill:none; stroke:#d1d4d3; stroke-miterlimit:10;"/><line x1="360.85" y1="30.2" x2="360.85" y2="767.2" style="fill:none; stroke:#d1d4d3; stroke-miterlimit:10;"/><line x1="390.33" y1="30.2" x2="390.33" y2="767.2" style="fill:none; stroke:#d1d4d3; stroke-miterlimit:10;"/><line x1="419.81" y1="30.2" x2="419.81" y2="767.2" style="fill:none; stroke:#d1d4d3; stroke-miterlimit:10;"/><line x1="449.29" y1="30.2" x2="449.29" y2="767.2" style="fill:none; stroke:#d1d4d3; stroke-miterlimit:10; stroke-width:3px;"/><line x1="478.77" y1="30.2" x2="478.77" y2="767.2" style="fill:none; stroke:#d1d4d3; stroke-miterlimit:10;"/><line x1="508.25" y1="30.2" x2="508.25" y2="767.2" style="fill:none; stroke:#d1d4d3; stroke-miterlimit:10;"/><line x1="537.73" y1="30.2" x2="537.73" y2="767.2" style="fill:none; stroke:#d1d4d3; stroke-miterlimit:10;"/><line x1="567.21" y1="30.2" x2="567.21" y2="767.2" style="fill:none; stroke:#d1d4d3; stroke-miterlimit:10;"/><line x1="596.69" y1="30.2" x2="596.69" y2="767.2" style="fill:none; stroke:#d1d4d3; stroke-miterlimit:10; stroke-width:3px;"/><line x1="626.17" y1="30.2" x2="626.17" y2="767.2" style="fill:none; stroke:#d1d4d3; stroke-miterlimit:10;"/><line x1="655.65" y1="30.2" x2="655.65" y2="767.2" style="fill:none; stroke:#d1d4d3; stroke-miterlimit:10;"/><line x1="685.13" y1="30.2" x2="685.13" y2="767.2" style="fill:none; stroke:#d1d4d3; stroke-miterlimit:10;"/><line x1="714.61" y1="30.2" x2="714.61" y2="767.2" style="fill:none; stroke:#d1d4d3; stroke-miterlimit:10;"/><line x1="744.09" y1="59.68" x2="7.09" y2="59.68" style="fill:none; stroke:#d1d4d3; stroke-miterlimit:10;"/><line x1="744.09" y1="89.16" x2="7.09" y2="89.16" style="fill:none; stroke:#d1d4d3; stroke-miterlimit:10;"/><line x1="744.09" y1="118.64" x2="7.09" y2="118.64" style="fill:none; stroke:#d1d4d3; stroke-miterlimit:10;"/><line x1="744.09" y1="148.12" x2="7.09" y2="148.12" style="fill:none; stroke:#d1d4d3; stroke-miterlimit:10;"/><line x1="744.09" y1="177.6" x2="7.09" y2="177.6" style="fill:none; stroke:#d1d4d3; stroke-miterlimit:10; stroke-width:3px;"/><line x1="744.09" y1="207.08" x2="7.09" y2="207.08" style="fill:none; stroke:#d1d4d3; stroke-miterlimit:10;"/><line x1="744.09" y1="236.56" x2="7.09" y2="236.56" style="fill:none; stroke:#d1d4d3; stroke-miterlimit:10;"/><line x1="744.09" y1="266.04" x2="7.09" y2="266.04" style="fill:none; stroke:#d1d4d3; stroke-miterlimit:10;"/><line x1="744.09" y1="295.52" x2="7.09" y2="295.52" style="fill:none; stroke:#d1d4d3; stroke-miterlimit:10;"/><line x1="744.09" y1="325" x2="7.09" y2="325" style="fill:none; stroke:#d1d4d3; stroke-miterlimit:10; stroke-width:3px;"/><line x1="744.09" y1="354.48" x2="7.09" y2="354.48" style="fill:none; stroke:#d1d4d3; stroke-miterlimit:10;"/><line x1="744.09" y1="383.96" x2="7.09" y2="383.96" style="fill:none; stroke:#d1d4d3; stroke-miterlimit:10;"/><line x1="744.09" y1="413.44" x2="7.09" y2="413.44" style="fill:none; stroke:#d1d4d3; stroke-miterlimit:10;"/><line x1="744.09" y1="442.92" x2="7.09" y2="442.92" style="fill:none; stroke:#d1d4d3; stroke-miterlimit:10;"/><line x1="744.09" y1="472.4" x2="7.09" y2="472.4" style="fill:none; stroke:#d1d4d3; stroke-miterlimit:10; stroke-width:3px;"/><line x1="744.09" y1="501.88" x2="7.09" y2="501.88" style="fill:none; stroke:#d1d4d3; stroke-miterlimit:10;"/><line x1="744.09" y1="531.36" x2="7.09" y2="531.36" style="fill:none; stroke:#d1d4d3; stroke-miterlimit:10;"/><line x1="744.09" y1="560.84" x2="7.09" y2="560.84" style="fill:none; stroke:#d1d4d3; stroke-miterlimit:10;"/><line x1="744.09" y1="590.32" x2="7.09" y2="590.32" style="fill:none; stroke:#d1d4d3; stroke-miterlimit:10;"/><line x1="744.09" y1="619.8" x2="7.09" y2="619.8" style="fill:none; stroke:#d1d4d3; stroke-miterlimit:10; stroke-width:3px;"/><line x1="744.09" y1="649.28" x2="7.09" y2="649.28" style="fill:none; stroke:#d1d4d3; stroke-miterlimit:10;"/><line x1="744.09" y1="678.76" x2="7.09" y2="678.76" style="fill:none; stroke:#d1d4d3; stroke-miterlimit:10;"/><line x1="744.09" y1="708.24" x2="7.09" y2="708.24" style="fill:none; stroke:#d1d4d3; stroke-miterlimit:10;"/><line x1="744.09" y1="737.72" x2="7.09" y2="737.72" style="fill:none; stroke:#d1d4d3; stroke-miterlimit:10;"/><rect x="7.09" y="30.2" width="737" height="737" rx="6" ry="6" style="fill:none; stroke:#d1d4d3; stroke-miterlimit:10; stroke-width:2px;"/><path d="M28.72,74.23c1.56-.64,2.3-2.43,1.65-3.98-.31-.75-.9-1.34-1.65-1.65l-17.25-7.49v3.05l5.35,2.32v9.86l-5.35,2.32v3.05l17.25-7.49M19.53,67.65l7.8,3.39c.2.09.3.32.21.53-.04.09-.11.17-.21.21l-7.8,3.39v-7.51ZM30.6,104.48v5.95h-2.71v-5.95H11.47v-2.87h16.42v-5.7h2.71v5.7M19.68,164.75v-11.14h-3.47c-1.1-.02-2.01.86-2.03,1.96,0,0,0,0,0,0v9.18h-2.71v-10.1c.04-2.19,1.85-3.94,4.04-3.91h11.05c2.19-.04,4,1.71,4.04,3.91v10.1h-2.71v-9.18c-.02-1.1-.93-1.98-2.02-1.96h-3.48v11.14h-2.71ZM11.47,114.2h19.13v2.87H11.47v-2.87ZM11.47,189.42h7.57l11.55-6.71v3.62l-7.8,4.53,7.8,4.53v3.62l-11.56-6.71h-7.57v-2.88ZM11.48,90.07l9.2-7.2c.18-.14.4-.22.63-.23.58-.02,1.07.44,1.09,1.02v4.36c.05,1.44,1.21,2.59,2.65,2.65,1.52.06,2.8-1.13,2.85-2.65v-9.4h2.7v9.65c-.1,2.87-2.4,5.18-5.28,5.28-3.01.1-5.54-2.26-5.64-5.28v-1.14l-8.21,6.42v-3.49ZM11.48,178.8l9.2-7.2c.18-.14.4-.22.63-.23.58-.02,1.07.44,1.09,1.02v4.36c.05,1.44,1.21,2.59,2.65,2.65,1.52.06,2.8-1.13,2.85-2.65v-9.4h2.7v9.65c-.1,2.87-2.4,5.18-5.28,5.28-3.01.1-5.54-2.26-5.64-5.28v-1.14l-8.21,6.43v-3.48ZM11.47,126.4c.04-2.19,1.84-3.95,4.04-3.91h15.09v2.87h-14.4c-1.1-.02-2.01.86-2.02,1.96v6.61h-2.71v-7.53ZM11.47,140.86c.04-2.19,1.84-3.95,4.04-3.91h15.09v2.88h-14.4c-1.1-.02-2.01.86-2.02,1.96v6.61h-2.71v-7.53ZM30.74,213.06v14.24h-2.5v-5.76H11.47v-2.75h16.77v-5.73h2.5ZM24.62,235.27c-.55.87-1.34,1.56-2.26,2.01-1,.49-2.11.73-3.22.71-.49,0-.97-.05-1.45-.13v-9.27c-1.15,0-2.25.45-3.09,1.22-.69.71-1.07,1.68-1.04,2.68-.07,1.28.64,2.47,1.79,3.03l-1.18,1.96c-.95-.34-1.74-1.03-2.2-1.93-1.06-2.03-1.04-4.46.05-6.47.57-1.01,1.43-1.83,2.46-2.36,1.2-.61,2.54-.92,3.9-.88,1.33-.04,2.64.27,3.82.88,1.02.53,1.86,1.35,2.44,2.34.55.97.84,2.06.83,3.17.02,1.07-.26,2.12-.83,3.03M22.23,229.89c-.66-.68-1.54-1.11-2.49-1.21v6.57c.91,0,1.78-.34,2.46-.94.59-.56.91-1.35.88-2.16.01-.83-.29-1.64-.85-2.26M20.4,245.18l4.74,3.26v2.93l-6.79-4.81-6.87,4.81v-3.11l4.74-3.21-4.74-3.26v-2.98l6.77,4.84,6.9-4.84v3.16l-4.74,3.21ZM12.02,261.63c-.6-.87-.9-1.92-.84-2.98-.05-1.12.34-2.22,1.08-3.07.72-.79,2-1.18,3.84-1.18h6.71v-2.24h2.32v2.24h3.95v2.6h-3.95v3.9h-2.32v-3.9h-6.34c-1.9,0-2.84.68-2.84,2.04,0,.61.17,1.2.5,1.71l-2.11.89ZM25.14,272.25v2.62h-13.66v-2.32c.88-.03,1.62-.09,2.21-.18-.79-.38-1.45-.99-1.88-1.76-.42-.77-.63-1.63-.62-2.5-.05-1.3.48-2.55,1.45-3.41,1.19-.92,2.68-1.38,4.18-1.27h8.32v2.6h-7.53c-1.02-.06-2.03.18-2.91.69-.7.46-1.09,1.26-1.04,2.09-.01.92.37,1.81,1.05,2.43.82.71,1.89,1.08,2.98,1.01h7.45ZM25.27,285.89c-.1.33-.27.64-.5.9l-2.13-.99c.24-.39.37-.84.37-1.3.01-.94-.45-1.83-1.24-2.36-1.05-.66-2.29-.98-3.53-.9h-6.77v-2.62h13.66v2.32c-.84.03-1.58.08-2.21.15.75.32,1.41.83,1.9,1.49.42.61.64,1.33.63,2.08,0,.42-.06.84-.18,1.24M24.62,296.42c-.55.87-1.34,1.56-2.26,2.01-1,.49-2.11.73-3.22.71-.49,0-.97-.05-1.45-.13v-9.27c-1.15,0-2.25.45-3.09,1.22-.69.71-1.07,1.68-1.04,2.67-.07,1.28.64,2.47,1.79,3.03l-1.18,1.96c-.95-.34-1.74-1.03-2.2-1.93-1.06-2.03-1.04-4.46.05-6.47.57-1.01,1.43-1.83,2.46-2.36,1.2-.61,2.54-.92,3.9-.88,1.33-.04,2.64.27,3.82.88,1.02.53,1.86,1.35,2.44,2.34.55.97.84,2.06.83,3.17.02,1.07-.26,2.12-.83,3.03M22.23,291.04c-.66-.68-1.54-1.11-2.49-1.21v6.57c.91-.01,1.78-.34,2.46-.94.59-.56.91-1.35.88-2.16.01-.83-.29-1.64-.85-2.25M31.51,311.09v2.6H11.47v-2.29c1.19-.09,1.94-.14,2.24-.18-.8-.43-1.46-1.08-1.9-1.87-.42-.75-.63-1.6-.63-2.46,0-1.03.29-2.03.84-2.9.6-.94,1.45-1.69,2.46-2.16,1.2-.57,2.51-.85,3.83-.82,1.31-.03,2.62.25,3.8.82,1.01.48,1.86,1.23,2.48,2.16.56.86.86,1.87.86,2.9,0,.82-.2,1.63-.58,2.36-.4.75-.99,1.39-1.71,1.85h8.35ZM14.76,309.99c1,.81,2.27,1.21,3.56,1.11,1.27.1,2.52-.29,3.5-1.11.73-.69,1.14-1.66,1.13-2.66.03-1.01-.42-1.98-1.21-2.61-.99-.71-2.2-1.06-3.42-.98-1.24-.08-2.46.27-3.48.98-.81.62-1.27,1.59-1.24,2.61-.01,1.01.41,1.98,1.16,2.66M30.74,333.41c.02,1.22-.24,2.44-.76,3.54-.47.99-1.22,1.83-2.16,2.41-.96.58-2.07.87-3.19.85-1.12.02-2.22-.28-3.17-.85-.93-.58-1.67-1.41-2.15-2.39-.53-1.11-.79-2.33-.76-3.55v-3.23h-7.08v-2.73h19.27v5.96ZM21,333.07c-.07,1.13.28,2.24.99,3.12.67.75,1.64,1.15,2.64,1.11,1.01.04,1.98-.36,2.66-1.11.71-.88,1.07-1.99,1-3.12v-2.9h-7.29v2.9ZM20.13,353.65v-8h-6.16v9.22h-2.5v-11.94h19.3v11.67h-2.5v-8.94h-5.66v8h-2.48ZM11.47,358.21h19.27v2.72H11.47v-2.72ZM30.74,380.65c.02,1.22-.24,2.44-.76,3.54-.47.99-1.22,1.83-2.16,2.41-.96.58-2.07.87-3.19.85-1.12.02-2.22-.28-3.17-.85-.93-.58-1.67-1.41-2.15-2.39-.53-1.11-.79-2.33-.76-3.55v-3.23h-7.08v-2.72h19.27v5.96ZM21,380.32c-.07,1.13.28,2.24.99,3.12.67.75,1.64,1.15,2.64,1.11,1.01.04,1.98-.36,2.66-1.11.71-.88,1.07-1.99,1-3.12v-2.9h-7.29v2.9ZM11.47,389.89h20.03v2.62H11.47v-2.62ZM24,405.32c-1.13,1.04-2.63,1.57-4.16,1.46h-8.37v-2.27c.79-.03,1.35-.08,1.68-.13-1.33-.84-2.09-2.35-1.98-3.92,0-.84.16-1.67.5-2.43.31-.71.81-1.32,1.45-1.77.68-.46,1.48-.69,2.29-.66,1.27-.04,2.48.56,3.21,1.6.83,1.2,1.25,2.64,1.18,4.1,0,.97-.14,1.94-.39,2.88h.05c.97.08,1.94-.17,2.75-.71.61-.53.94-1.33.88-2.14.02-.68-.15-1.35-.51-1.92-.38-.55-.89-1-1.49-1.31l1.16-1.93c.97.43,1.78,1.15,2.32,2.06.59.98.89,2.11.87,3.26.06,1.42-.46,2.81-1.45,3.83M17.37,404.18c.24-.87.37-1.77.39-2.67.05-.83-.16-1.66-.6-2.37-.38-.55-1.02-.87-1.68-.84-.59-.03-1.16.23-1.54.69-.4.52-.6,1.16-.57,1.81-.02.87.27,1.72.83,2.39.57.67,1.42,1.04,2.3.99h.87ZM12.02,418.12c-.6-.87-.9-1.92-.84-2.98-.05-1.12.34-2.22,1.08-3.07.72-.79,2-1.18,3.84-1.18h6.71v-2.24h2.32v2.24h3.95v2.6h-3.95v3.9h-2.32v-3.9h-6.34c-1.9,0-2.84.68-2.84,2.04,0,.61.17,1.2.5,1.71l-2.11.89ZM24.62,428.56c-.55.87-1.34,1.56-2.26,2.01-1,.49-2.11.73-3.22.71-.49,0-.97-.05-1.45-.13v-9.27c-1.15,0-2.25.45-3.09,1.22-.69.72-1.07,1.68-1.04,2.68-.07,1.28.64,2.47,1.79,3.03l-1.18,1.96c-.95-.34-1.74-1.03-2.2-1.93-1.06-2.03-1.04-4.46.05-6.47.57-1.01,1.43-1.83,2.46-2.36,1.2-.61,2.54-.92,3.9-.88,1.33-.04,2.64.27,3.82.88,1.02.53,1.86,1.35,2.44,2.34.55.97.84,2.06.83,3.17.02,1.07-.26,2.12-.83,3.03M22.23,423.18c-.66-.68-1.54-1.11-2.49-1.21v6.57c.91,0,1.78-.34,2.46-.94.59-.56.91-1.35.88-2.16.01-.83-.29-1.64-.85-2.26" style="fill:#f8f8f8;"/></svg>