<svg xmlns="http://www.w3.org/2000/svg" width="180.622mm" height="180.622mm" viewBox="0 0 511.999 511.999"><rect width="512" height="512" style="fill:none"/><rect x="350.289" y="441.257" width="52.463" height="52.463" rx="6.278" style="fill:#e9e9e9"/><path d="M361.634,482.534a16.145,16.145,0,0,0,11.38,4.746A16.349,16.349,0,0,0,384.6,459.44Z" style="fill:#292826"/><path d="M384.6,459.44l-22.967,23.094.05.048a180.781,180.781,0,0,0,26.622-17.326,16.335,16.335,0,0,0-3.7-5.816" style="fill:#009789"/><path d="M380.111,447.7a16.349,16.349,0,0,0-11.52,27.841l22.967-23.094a16.142,16.142,0,0,0-11.447-4.747" style="fill:#292826"/><path d="M380.111,447.7a16.1,16.1,0,0,0-8.477,2.4,18.633,18.633,0,0,0-4.844-.611,18.937,18.937,0,0,0-7.769,1.741.519.519,0,0,0,.106.977,11.075,11.075,0,0,1,6.614,4.211,16.446,16.446,0,0,0-1.181,12.332,16.293,16.293,0,0,1,1.639-2.858c1.491-2.05,3.068-3.116,5.4-4.692,1.716-1.161,4.1-2.523,10.951-5.338a23.354,23.354,0,0,0,5.017-2.313c1.145-.681,2.017-1.324,2.293-2.329.019-.071.037-.141.053-.21a16.111,16.111,0,0,0-9.8-3.309" style="fill:#262523"/><path d="M382.824,453.185c.6,1.053-.6,2.865-2.663,4.047s-4.225,1.286-4.821.232.6-2.865,2.663-4.047,4.225-1.286,4.821-.232" style="fill:#fff"/><path d="M443.7,472.8a1.209,1.209,0,0,0-1.207,1.207v12.064a1.207,1.207,0,0,0,2.413,0V474.01a1.207,1.207,0,0,0-1.2-1.21Z" style="fill:#e9e9e9"/><path d="M475.35,472.8h-2.883a7.239,7.239,0,0,0,0,14.477h2.883a1.207,1.207,0,0,0,0-2.413h-2.883a4.826,4.826,0,0,1-.139-9.651c.046,0,.093,0,.139,0h2.883a1.207,1.207,0,0,0,0-2.413Z" style="fill:#e9e9e9"/><path d="M475.35,478.835h-3.507a1.207,1.207,0,0,0-.07,2.413c.024,0,.047,0,.07,0h3.507a1.207,1.207,0,0,0,0-2.413Z" style="fill:#e9e9e9"/><path d="M419.593,487.28h-5.844a1.2,1.2,0,0,1,0-2.4h5.844a1.82,1.82,0,0,0,0-3.64h-2.824a4.219,4.219,0,0,1-.014-8.438h4.791a1.2,1.2,0,0,1,0,2.4h-4.777a1.82,1.82,0,0,0,0,3.64h2.824a4.219,4.219,0,0,1,0,8.438Z" style="fill:#e9e9e9"/><path d="M459.072,484.07a4.826,4.826,0,1,1,0-8.06,1.209,1.209,0,0,0,1.526-.144h0a1.2,1.2,0,0,0,.015-1.7,1.243,1.243,0,0,0-.176-.148,7.238,7.238,0,1,0-.046,12.072,1.215,1.215,0,0,0,.208-1.875h0A1.206,1.206,0,0,0,459.072,484.07Z" style="fill:#e9e9e9"/><path d="M437.006,484.867h-3.487a3.019,3.019,0,0,1-3.016-3.016v-7.842a1.207,1.207,0,0,0-2.413,0v7.842a5.435,5.435,0,0,0,5.429,5.429h3.487a1.207,1.207,0,0,0,0-2.413Z" style="fill:#e9e9e9"/><path d="M489.278,475.216h-1.207A4.829,4.829,0,0,0,483.248,480v6.074a1.207,1.207,0,0,1-2.413,0V480a7.246,7.246,0,0,1,7.236-7.2h1.207a1.207,1.207,0,0,1,0,2.413Z" style="fill:#e9e9e9"/><path d="M422.248,450.681a6.713,6.713,0,1,1-6.713,6.713,6.713,6.713,0,0,1,6.713-6.713m0-2.985a9.7,9.7,0,1,0,9.7,9.7,9.7,9.7,0,0,0-9.7-9.7Z" style="fill:#009789"/><path d="M488.992,447.7a1.492,1.492,0,0,0-1.493,1.491h0v1.217a9.7,9.7,0,1,0,0,13.977V465.6a1.493,1.493,0,0,0,2.985,0V449.188A1.492,1.492,0,0,0,488.992,447.7Zm-8.206,16.411A6.713,6.713,0,1,1,487.5,457.4a6.714,6.714,0,0,1-6.713,6.713Z" style="fill:#009789"/><path d="M447.412,447.7H445.92a9.7,9.7,0,0,0-9.7,9.7h0v8.2a1.493,1.493,0,0,0,2.985,0v-8.2a6.72,6.72,0,0,1,6.713-6.713h1.492a1.493,1.493,0,0,0,.078-2.985h-.078Z" style="fill:#009789"/><path d="M465.293,462.929a6.713,6.713,0,1,1-.022-11.086,1.512,1.512,0,0,0,1.931-.153h0a1.5,1.5,0,0,0-.008-2.121,1.462,1.462,0,0,0-.229-.187,9.7,9.7,0,1,0,.019,16.01,1.5,1.5,0,0,0,.4-2.084,1.544,1.544,0,0,0-.179-.216h0A1.493,1.493,0,0,0,465.293,462.929Z" style="fill:#009789"/><path d="M511.153,502.649a8.5,8.5,0,0,1-8.5,8.5H492.582V512H512V492.582h-.847Z" style="fill:#009789"/><path d="M9.351,511.153a8.5,8.5,0,0,1-8.5-8.5V492.582H0V512H19.418v-.847Z" style="fill:#009789"/><path d="M.847,9.351a8.5,8.5,0,0,1,8.5-8.5H19.418V0H0V19.418H.847Z" style="fill:#009789"/><path d="M502.649.847a8.5,8.5,0,0,1,8.5,8.5V19.418H512V0H492.582V.847Z" style="fill:#009789"/></svg>