<svg xmlns="http://www.w3.org/2000/svg" width="2400" height="2400" viewBox="0 0 2400 2400"><path d="M716.322,2167.926c-2.079-.207-6.371-.659-9.538-1.005l-5.759-.63-1.991-1.991-1.991-1.991.6-2.31a7.932,7.932,0,0,1,2.979-3.866c4.841-3.172,23.84-6.967,50.8-10.148,13.964-1.647,50.508-5.277,59.492-5.909a67.446,67.446,0,0,0,9.18-1.075c.84-.3,9.79-1.289,19.888-2.209s22.734-2.148,28.08-2.728c38.959-4.23,56.453-6.523,64.26-8.42,2.673-.65,6.7-1.475,8.94-1.833l4.08-.651-.633-1.026-.634-1.025-12.626.01c-18.888.016-56.984,2.113-88.227,4.86-2.97.261-13.9,1.2-24.3,2.082-17.235,1.466-34.953,3.039-67.5,5.993-28.23,2.563-64.776,4.006-71.149,2.811l-4.01-.752-1.189-2.61-1.189-2.61,1.387-1.672c3.932-4.738,19.489-8.045,61.03-12.975,12.474-1.481,24.487-2.939,26.695-3.242s15.816-1.746,30.24-3.209,31.085-3.156,37.025-3.761,12.987-1.316,15.66-1.58c6.54-.647,31.964-3.576,42.66-4.915,4.752-.6,10.827-1.311,13.5-1.591a56.562,56.562,0,0,0,8.1-1.463l3.24-.953-8.1-.753c-10.217-.95-22.746-1.394-80.384-2.851-25.5-.644-46.818-1.452-47.373-1.8s-.766-2.44-.468-4.659l.541-4.036-12.792-13.914-12.791-13.915-.686-3.4a17.742,17.742,0,0,1-.3-5.4l.385-2H811.9l.315,3.24.316,3.24-7.875,9.73c-7.9,9.754-9.648,11.877-15.166,18.377-1.633,1.924-2.97,3.967-2.97,4.54v1.042l33.75.736c77.219,1.684,102.009,3.994,109.08,10.162,6.312,5.5-4.524,9.809-32,12.71-1.855.2-11.878,1.384-22.273,2.64s-23.517,2.714-29.16,3.24c-25.728,2.4-36.387,3.505-62.1,6.464-10.692,1.231-24.057,2.717-29.7,3.3-13.323,1.385-34.72,4.093-41.58,5.261l-5.4.921,5.4.12c2.97.065,13.9-.586,24.3-1.449,35.254-2.926,57.744-4.854,69.66-5.972,6.534-.612,18.2-1.591,25.92-2.174s19.386-1.544,25.92-2.135c24.449-2.209,48.142-3.324,68.04-3.2l20.52.126,4.212,1.458c4.641,1.606,6.007,3.112,6.032,6.652l.016,2.352-2.87,2.258c-2.689,2.115-10.552,4.9-17.258,6.118a16.176,16.176,0,0,0-3.831,1.083,48.55,48.55,0,0,1-8.175,1.439c-4.007.489-14.819,1.9-24.026,3.13-18.129,2.428-51.793,6.149-64.8,7.163-4.455.347-9.558.864-11.34,1.149s-8.343.98-14.58,1.545c-25.22,2.287-55.622,5.619-74.375,8.152-10.909,1.474-20.265,2.68-20.79,2.68a1.114,1.114,0,0,0-.955,1.218v1.218l75.06-.466,75.06-.464v1.815a4.5,4.5,0,0,1-1.456,3.024l-1.457,1.209-20.032,1.043c-18.411.96-116.275,1.288-125.015.42Zm24.786-129.383-1.026-1.026v-15.374c0-8.456.471-16.612,1.047-18.126l1.047-2.753,38.326.01,38.325.011.591.955c.324.525.908,9.018,1.3,18.873l.706,17.919-.979.01c-.539,0-18.379.126-39.644.27l-38.665.263-1.025-1.026Zm1.944-42.408-2.97-.45v-7.442l40.16.282,40.159.284.385,3.372.385,3.373-2.474.663c-2.7.723-70.818.649-75.645-.082Zm-1.62-12.9c-1.511-.61-1.777-4.5-.451-6.589l.866-1.363,39.253.283,39.254.284.168,3.24c.092,1.782-.352,3.6-.986,4.033-1.274.876-75.944.983-78.1.111Zm-.086-13.189-1.437-.91.357-3.123.356-3.123,39.566-.283,39.565-.283.527,3.523.527,3.523-1.212.793c-1.7,1.11-76.49,1-78.249-.117Zm.565-12.8-1.952-.477.332-3.419.331-3.419,39.353-.284,39.352-.283.891.891c.49.49.583,2.433.206,4.319l-.686,3.427-37.938-.139c-20.866-.077-38.816-.353-39.889-.616Zm-5.069-14.567c-12.88-3.72-21.56-6.988-25-9.412-13.891-9.791-29.008-20.864-32.213-23.6l-3.752-3.2,6.111-3.909c3.361-2.15,6.414-4.4,6.786-5a3.507,3.507,0,0,1,2.707-1.093h2.032l6.274,7.732c6.212,7.655,12.889,15.53,18.784,22.154l3.049,3.426,5.721-2.193c3.146-1.206,12.524-4.54,20.84-7.408l15.12-5.216,20.257-.036,20.258-.035,12.142,4.2c6.679,2.309,15.047,5.254,18.6,6.543l6.453,2.345,3.267-3.658c1.8-2.012,8.044-9.36,13.883-16.329l10.618-12.671,3.422,2.043c1.883,1.123,5.489,3.172,8.013,4.553l4.59,2.51-.036,1.691-.035,1.691-9.415,6.808c-5.177,3.743-14,10.134-19.605,14.2l-10.191,7.394-9.789,2.887c-5.384,1.588-10.9,3.338-12.27,3.889l-2.48,1-40.18-.11-40.179-.111-3.78-1.091Zm85.131-8.337c4.945-1.118,9.213-2.255,9.485-2.527.539-.539-.36-.9-16.4-6.622l-10.887-3.882H763.654l-12.056,4.206c-15.537,5.42-18.779,6.764-17.456,7.239.594.213,3.753,1.1,7.02,1.96l5.94,1.573,32.94.043,32.94.042,8.991-2.033Zm-105.094-18.7c-2.961-3.711-5.7-6.989-6.081-7.286-2.351-1.822-13.851-16.931-13.564-17.82,1.244-3.847,30.625-22.14,35.56-22.14a4.027,4.027,0,0,0,2.722-1.35l1.1-1.35-11.2-8.1c-6.162-4.455-11.214-8.666-11.226-9.357-.02-1.2,14.272-10.083,16.216-10.083.51,0,5.664,5.607,11.453,12.46l10.526,12.46,3.3-.811c4.72-1.16,37.443-.57,47.042.848l8.1,1.2,5.246-5.787c2.886-3.183,7.888-9.068,11.116-13.077s6.468-7.29,7.2-7.29,3.911,1.7,7.068,3.78,6.124,3.78,6.593,3.78a4.081,4.081,0,0,1,2.116,1.521l1.262,1.52-13.044,9.545-13.043,9.545,3.544,1.518c9.591,4.109,21.9,10.475,25.471,13.177,8.449,6.387,9.932,7.643,9.932,8.41,0,.908-23.136,28.771-24.685,29.728-.562.347-4.593-.824-8.958-2.6a70.069,70.069,0,0,0-9.017-3.245,13.317,13.317,0,0,1-3.827-1.444c-4.595-2.4-9.291-2.9-32.891-3.53l-22.682-.6-10.8,3.92c-13.172,4.782-26.619,9.189-28.08,9.2-.594,0-3.5-3.026-6.463-6.736Zm21.907-28.022a3.845,3.845,0,0,0-.954-6.312l-2.249-1.2-2.071,1.873c-2.576,2.331-2.638,4.34-.18,5.772C735.846,1889.206,737.225,1889.174,738.786,1887.613Zm86.573-.272,1.3-1.569-.671-2.112a4.958,4.958,0,0,0-2.509-2.818l-1.84-.705-1.927,2.38-1.927,2.38,1.815,2.006c2.182,2.411,4,2.55,5.757.438Z" style="fill:#d2d2d2"/><path d="M1253.521,2096.064V2059.7c1.3,0,87.565,0,130.47,0,7.9,0,9.9-3.384,9.947-9.569,0-4.979-1.418-8.636-9.388-8.636l-85.249-.046c-24.813-.051-43.81-19.564-43.218-44.265.519-21.633,18.323-40.808,40.061-41.259,32.411-.673,64.846-.174,97.529-.174v35.725c-1.263,0-63.505-.038-91.883.079-3.67,0-5.82,2.695-5.82,6.89a6.509,6.509,0,0,0,6.65,6.594c28.265-.091,56.53-.06,84.8-.051,26.1.009,44.1,18.305,44.454,44.436.219,16.372-5.11,29.737-18.685,39.315a39.065,39.065,0,0,1-22.776,7.383C1345.476,2096.209,1254.861,2096.064,1253.521,2096.064Zm-142.255-105.388v-34.807H963.642V2095.92h41.114v-53.842h67.9v-37.859h-67.847v-13.543Zm329.31-34.842c0,34.32-.165,70.191.075,104.509.136,19.473,16.744,35.671,36.371,35.788,26.793.159,53.591.287,80.381-.056,14.864-.19,25.8-7.5,32.74-20.7,3.7-7.04,3.743-16.47,3.743-25.12,0,0-32.568-24.94-33.7-25.672,0,5.653.009,10.815,0,15.976-.019,9.647-5.419,15.083-15.02,15.09q-27.357.016-54.714,0c-10.093,0-15.416-5.3-15.418-15.369-.006-26.894,0-83.089,0-84.446Zm-199.55,140.1V2059.66H1164.7V1955.845h-38.914v140.091Zm352.86-140.1-33.7-.177c0,17.726-.038,37.32.085,54.763l33.944,26.061v-31.274h0c26.655,26.68,58.919,58.22,85.523,84.951,0,0,46.046-.058,48.541-.058Zm134.3,112.839V1955.822H1615.282Z" style="fill:#d2d2d2"/></svg>