<?xml version="1.0" encoding="UTF-8"?><svg id="a" xmlns="http://www.w3.org/2000/svg" width="864.57" height="891.78" viewBox="0 0 864.57 891.78"><path d="M416.77,847.81c-.51-.51-1.13-.95-1.82-1.25-.7-.3-1.45-.47-2.24-.47h-6.99v3.02h1.11v16.18h3.02v-7.38h2.86c.79,0,1.54-.3,2.24-.6.7-.3,1.31-.79,1.82-1.3s.93-1.16,1.23-1.86c.3-.7.46-1.47.46-2.26s-.15-1.55-.46-2.25c-.3-.7-.72-1.32-1.23-1.83h0ZM415.41,853.02c-.15.35-.36.66-.63.93-.27.27-.58.52-.93.67-.35.15-.73.27-1.14.27h-2.85v-5.78h2.86c.4,0,.78,0,1.13.15s.67.32.93.59c.27.27.48.56.63.91s.23.72.23,1.13-.08.78-.23,1.13h0ZM437.02,846.54c-.72.3-1.35.72-1.88,1.25-.54.54-1.03,1.16-1.34,1.88-.31.72-.53,1.49-.53,2.31v5.82h3.14v-5.82c0-.42.03-.81.19-1.17s.36-.68.63-.96c.28-.28.59-.5.95-.65.35-.16.73-.23,1.15-.23h.18v-2.87h-.18c-.82,0-1.6.13-2.32.44h0ZM451.05,847.61c-.56-.55-1.21-1-1.94-1.32s-1.53-.49-2.37-.49-1.67.16-2.41.48-1.39.77-1.94,1.32c-.55.56-.99,1.21-1.31,1.95s-.49,1.54-.49,2.38.16,1.64.48,2.38.76,1.4,1.31,1.95c.55.56,1.2,1,1.94,1.32s1.55.49,2.41.49,1.64-.16,2.37-.48c.73-.32,1.38-.77,1.94-1.32.56-.56,1-1.21,1.32-1.95s.49-1.54.49-2.38-.16-1.64-.48-2.38-.77-1.4-1.32-1.95ZM449.61,853.17c-.16.38-.39.71-.67.99-.29.28-.62.5-1,.67-.37.17-.78.25-1.2.25s-.84-.09-1.22-.25c-.39-.17-.73-.4-1.01-.67-.28-.27-.51-.61-.67-.99s-.24-.79-.24-1.22.08-.83.24-1.21.39-.71.67-.99c.28-.28.62-.51,1.01-.67.38-.16.79-.24,1.22-.24s.83.08,1.21.24c.37.16.71.39.99.67.29.28.51.62.67.99s.24.78.24,1.21-.08.84-.24,1.22h0ZM453.79,848.98h7.21l-7.21,5.76v3.07s11.97.01,11.97.01v-3.1s-7.13-.01-7.13-.01l7.14-5.8v-2.8h-11.98v2.87ZM492.9,849.71c-.31-.72-.73-1.35-1.27-1.88-.53-.54-1.17-.96-1.88-1.27-.72-.31-1.49-.46-2.32-.46-.61,0-1.17.09-1.72.26-.44.14-.95.33-1.23.56v-.8h-4.26v2.87h1.11v8.84h3.14v-5.79c0-.42.05-.82.21-1.18.16-.37.36-.69.64-.96.28-.27.6-.49.95-.65.36-.16.74-.23,1.16-.23s.81.08,1.18.24.69.37.96.64.51.59.66.96c.16.36.26.76.26,1.18v5.79h2.87v-5.8c0-.82-.15-1.6-.46-2.32ZM477.15,847.05c-1.27-1-2.89-1.21-4-1.21-5.86,0-6.17,4.9-6.17,5.89,0,4.22,2.14,6.37,6.38,6.37,1.05,0,4.54-.22,5.65-3.68l.02-.05h-3.6c-.27.84-1.24,1.35-2.08,1.35-2.56,0-2.8-1.95-2.91-2.53h8.83v-.94c0-2.37-.76-4.11-2.13-5.2h.01ZM470.55,851.04c.21-1.81,1.08-2.28,2.52-2.28.52,0,2.24.18,2.5,2.28h-5.02ZM429.8,847.89c-.51-.51-1.12-.98-1.81-1.28-.69-.3-1.44-.51-2.22-.51h-2.82v-7.96h-3.98v2.54h1.16v17.12h2.82v-8.56h2.82c.39,0,.77-.03,1.12.12.35.16.66.31.92.57s.48.53.63.88c.14.34.24.69.24,1.08v5.91h2.87v-5.91c0-.78-.19-1.52-.49-2.2-.29-.68-.75-1.29-1.26-1.8h0ZM399.11,846.04h-4.31c.99-1.18,3.33-3.97,4.14-4.94.36-.44.04-1.11-.53-1.11h-14.1c-.93,0-2.31.76-3.09,1.69-8.28,9.88-8.82,10.52-8.82,10.52-.31.41-.05,1.04.5,1.04h3.35l-4.84,5.75c-.45.62-.02,1.5.75,1.53h4.38l-3.61,4.31c-.56.62-.57.71-.59.75h0c-.17.42.13.89.58.91h14.16c.93,0,2.32-.74,3.1-1.67,0,0,8.72-10.39,8.83-10.55.26-.34.09-.87-.34-1.01-.17-.05-.08-.02-3.47-.03.1-.12,4.51-5.37,4.64-5.53.18-.19.28-.43.28-.69,0-.54-.44-.98-.98-.98h-.03ZM373.8,852.32c-.14-.02-.19-.19-.1-.27l8.2-9.78c.67-.8,1.82-1.37,2.4-1.37h13.4c.08,0,.12.1.08.15l-4.18,4.99h-9.3c-.56,0-1.24.2-1.91.55-.66.35-1.26.82-1.68,1.33l-3.7,4.4c-3.42,0-3.19,0-3.2,0h0ZM384.23,852.32c.65-.67,1.72-1.26,2.41-1.26h2.75c-.7.78-1.79,1.26-2.33,1.26h-2.83ZM392.7,854.15c-.08.1-1.38,1.78-2.81,1.78h-8.33l1.49-1.78h9.65ZM386.64,849.75h0c-1.19,0-2.73.91-3.59,1.93-.53.66-.51.64-.51.64h-3.83l3-3.56c.73-.86,1.95-1.42,2.6-1.42h8.21l-2.02,2.41h-3.86ZM373.12,859.21c-.09,0-.13-.11-.07-.17l.36-.43h0l4.52-5.38h3.84l-2.87,3.43-2.14,2.55h-3.65.01ZM397.7,854.15c.06,0,.15.07.06.17.45-.53-8.31,9.91-8.31,9.91-.68.81-1.84,1.34-2.4,1.34h-13.39c-.07,0-.11-.09-.07-.15,0,0,6.24-7.44,6.87-8.19h9.42c1.33,0,2.82-1.06,3.54-1.92l.98-1.16h3.3ZM398.26,847.53c-3.4,4.05-3.27,3.9-4.79,5.7h-4.33c.59-.34,1.13-.78,1.52-1.25l3.89-4.65h3.66s.17.04.05.19h0ZM784.53,871.03h56.69v2.27h-56.69v-2.27ZM835.56,839.04c-3.6,3.44-8.76,9.66-11.32,11.18-2.02,1.2-2.02-2.59-.01-4.75,2.89-3.1,5.16-6.03,3.35-5.61-1.8.41-7.19,0-10.48-.58s-3.8-.54-4.75-.04c-1.19.63-5.94,2.9-7.32,4.53-1.35,1.6-3.53,4.16-4.6,5.44-3.07,3.67-5.83,1.99-4.69.55s6.31-8.23,6.31-8.23c0,0-.66.36-3.9,1.94-3.24,1.58-6.35-.35-4.24-1.59,2.1-1.24,10.48-6.11,10.48-6.11,0,0-2.38.49-7.48,1.09s-5.27-2.17-4.04-2.46c1.23-.29,13.96-3.34,15.63-3.5,1.67-.17,8.93-.77,12.82-1.32,3.88-.55,4.82-1.67,5.67-2.55.3-.31.93-1.33,1.61-2.51h-44.07v44.07h56.69v-37.36c-2.39,3.64-4.79,6.97-5.66,7.8h0ZM803.08,863.24c-.04.61-.19,1.19-.49,1.72-.3.52-.71.94-1.22,1.26-.35.23-.73.4-1.13.53h-.03c.11-.08.22-.16.33-.24.41-.34.64-.77.74-1.29.06-.36.06-.71,0-1.07-.07-.49-.22-.97-.42-1.42,0-.01-.01-.02-.02-.03h0c-.01.09-.02.18-.04.27-.03.17-.07.33-.15.48-.05.09-.1.17-.19.23-.03.02-.07.04-.11.06,0-.07-.01-.13-.02-.19-.05-.43-.2-.82-.41-1.2-.17-.29-.37-.55-.63-.77-.33-.29-.5-.66-.53-1.1-.02-.27.01-.54.09-.8v-.03h-.02c-.66.24-1.05.71-1.15,1.4-.02.13-.02.27-.01.4.02.46-.04.9-.25,1.32-.06.12-.14.23-.23.33-.01-.02-.02-.03-.03-.05-.11-.21-.25-.4-.45-.53-.1-.07-.21-.12-.34-.13.02.05.04.1.06.15.06.2.02.39-.05.58-.09.24-.19.48-.26.73-.16.61-.17,1.21.05,1.81.19.5.53.88.99,1.15.02.01.04.02.06.04h-.04c-.62-.2-1.18-.49-1.66-.92-.6-.53-.98-1.19-1.16-1.97-.12-.51-.14-1.02-.1-1.54.05-.6.2-1.16.42-1.72.09-.22.17-.44.24-.66.08-.26.09-.53,0-.79-.02-.07-.06-.14-.09-.22.04,0,.08,0,.11.02.3.07.54.23.75.44s.35.43.48.68c0,.01.01.02.02.04l.02.02c.07-.09.14-.17.21-.27.25-.37.41-.77.5-1.21.1-.47.11-.95.08-1.43-.02-.26.02-.51.07-.76.11-.5.33-.95.69-1.33.3-.33.67-.56,1.09-.72.05-.02.09-.04.15-.06v.04c-.15.48-.2.96-.15,1.46.08.72.39,1.32.94,1.79.38.33.68.72.94,1.16.31.53.54,1.09.66,1.7.04.22.06.44.09.65v.04s.06-.01.09-.02c.14-.06.24-.16.32-.28.14-.2.21-.42.27-.65.06-.24.1-.48.12-.73,0-.01,0-.03.02-.04.05.1.09.2.13.31.27.65.47,1.32.58,2.02.07.46.11.92.07,1.39v-.05ZM820.81,860.38c-.07,1.1-.34,2.14-.88,3.1-.54.94-1.28,1.68-2.19,2.26-.64.41-1.32.72-2.04.95-.01,0-.03,0-.05.01.2-.15.4-.28.59-.43.73-.61,1.16-1.39,1.32-2.32.12-.64.1-1.28.01-1.92-.13-.89-.39-1.74-.76-2.56,0-.02-.02-.04-.03-.06h-.02c-.02.15-.04.31-.07.47-.05.3-.12.59-.26.86-.08.16-.18.31-.33.41-.06.04-.13.06-.2.1,0-.05-.01-.1-.01-.14-.06-.58-.2-1.16-.43-1.7-.32-.76-.76-1.42-1.35-1.97-.61-.56-1.02-1.32-1.07-2.14-.03-.47.03-.92.17-1.37,0-.01,0-.03.01-.05h-.04c-1.18.44-1.88,1.28-2.07,2.53-.04.23-.03.48-.02.72.03.83-.06,1.62-.45,2.37-.11.21-.24.41-.42.6-.02-.03-.03-.06-.05-.09-.2-.37-.45-.71-.8-.96-.18-.13-.38-.22-.61-.24.04.1.08.18.11.27.1.36.03.7-.09,1.04-.16.44-.34.86-.46,1.31-.29,1.09-.31,2.18.09,3.26.34.9.95,1.58,1.78,2.07.04.02.07.04.11.08-.02,0-.05,0-.07-.02-1.11-.35-2.12-.88-3-1.66-1-.89-1.71-2.05-2.04-3.35-.3-1.18-.32-2.38-.16-3.6.12-.84.37-1.66.69-2.45.16-.4.31-.8.44-1.21.14-.47.17-.95.01-1.42-.04-.13-.11-.26-.17-.4.07.01.14.02.2.03.53.12.96.41,1.34.8.35.36.63.77.86,1.22.01.02.02.04.03.06l.03.03c.13-.16.26-.31.37-.48.46-.66.73-1.39.9-2.17.18-.85.2-1.71.14-2.57-.03-.42.02-.84.11-1.25.11-.53.28-1.04.54-1.51.64-1.14,1.57-1.86,2.68-2.3.08-.03.17-.06.27-.1,0,.03,0,.05-.02.07-.48,1.53-.43,3.12.34,4.77.15.33.42.58.71.79.88.64,1.53,1.46,2.06,2.37.56.96.98,1.97,1.19,3.05.08.39.11.78.16,1.18v.07c.06-.01.11-.02.15-.04.25-.1.43-.29.58-.5.24-.36.39-.76.49-1.17.11-.43.17-.87.21-1.31,0-.02,0-.05.03-.07.08.18.17.37.24.55.49,1.17.85,2.38,1.05,3.63.13.83.19,1.66.13,2.5h.02ZM831.49,863.24c-.04.61-.19,1.19-.49,1.72-.3.52-.71.94-1.22,1.26-.35.23-.73.4-1.13.53h-.03c.11-.08.22-.16.33-.24.41-.34.64-.77.74-1.29.06-.36.06-.71,0-1.07-.07-.49-.22-.97-.42-1.42,0-.01-.01-.02-.02-.03h0c-.01.09-.02.18-.04.27-.03.17-.07.33-.15.48-.05.09-.1.17-.19.23-.03.02-.07.04-.11.06,0-.07-.01-.13-.02-.19-.05-.43-.2-.82-.41-1.2-.17-.29-.37-.55-.63-.77-.33-.29-.5-.66-.53-1.1-.02-.27.01-.54.09-.8v-.03h-.02c-.66.24-1.05.71-1.15,1.4-.02.13-.02.27-.01.4.02.46-.04.9-.25,1.32-.06.12-.14.23-.23.33-.01-.02-.02-.03-.03-.05-.11-.21-.25-.4-.45-.53-.1-.07-.21-.12-.34-.13.02.05.04.1.06.15.06.2.02.39-.05.58-.09.24-.19.48-.26.73-.16.61-.17,1.21.05,1.81.19.5.53.88.99,1.15.02.01.04.02.06.04h-.04c-.62-.2-1.18-.49-1.66-.92-.6-.53-.98-1.19-1.16-1.97-.12-.51-.14-1.02-.1-1.54.05-.6.2-1.16.42-1.72.09-.22.17-.44.24-.66.08-.26.09-.53,0-.79-.02-.07-.06-.14-.09-.22.04,0,.08,0,.11.02.3.07.54.23.75.44s.35.43.48.68c0,.01.01.02.02.04l.02.02c.07-.09.14-.17.21-.27.25-.37.41-.77.5-1.21.1-.47.11-.95.08-1.43-.02-.26.02-.51.07-.76.11-.5.33-.95.69-1.33.3-.33.67-.56,1.09-.72.05-.02.09-.04.15-.06v.04c-.15.48-.2.96-.15,1.46.08.72.39,1.32.94,1.79.38.33.68.72.94,1.16.31.53.54,1.09.66,1.7.04.22.06.44.09.65v.04s.06-.01.09-.02c.14-.06.24-.16.32-.28.14-.2.21-.42.27-.65.06-.24.1-.48.12-.73,0-.01,0-.03.02-.04.05.1.09.2.13.31.27.65.47,1.32.58,2.02.07.46.11.92.07,1.39v-.05ZM823.54,800.07l-6.37-11.04c-.9-1.55-2.5-2.48-4.29-2.48s-3.4.93-4.29,2.48l-6.37,11.04c-.9,1.55-.9,3.41,0,4.96.9,1.55,2.5,2.48,4.29,2.48h12.75c1.79,0,3.4-.93,4.29-2.48.9-1.55.9-3.41,0-4.96h-.01ZM822.44,804.4c-.67,1.16-1.86,1.85-3.2,1.85h-12.75c-1.33,0-2.53-.69-3.2-1.85s-.67-2.54,0-3.69l6.37-11.04c.67-1.16,1.86-1.85,3.2-1.85s2.53.69,3.2,1.85l6.37,11.04c.67,1.16.67,2.54,0,3.69h.01ZM814.61,790.51c-.27-.47-.7-.8-1.21-.93-.17-.04-.34-.07-.53-.07s-.36.02-.53.07c-.24.06-.46.19-.66.33-.22.16-.41.35-.55.6l-6.37,11.04c-.36.63-.36,1.38,0,2,.36.63,1.01,1,1.73,1h12.75c.18,0,.36-.02.53-.07.34-.09.64-.27.89-.51.12-.12.23-.26.32-.42.36-.63.36-1.38,0-2l-6.37-11.04ZM813.83,802.93h-1.92v-1.44h1.92v1.44ZM813.68,800.41h-1.6l-.63-7.18h2.87l-.63,7.18h-.01ZM791.66,812.89c-.32-.4-.72-.71-1.21-.92-.49-.21-1.13-.32-1.92-.32h-4.01v8.74h4.01c.48,0,1.02-.08,1.61-.24.43-.12.84-.35,1.22-.69.38-.35.67-.78.89-1.29.21-.51.32-1.24.32-2.17,0-.6-.07-1.16-.21-1.69s-.37-1-.69-1.4v-.02ZM789.66,817.56c-.14.31-.32.53-.56.66-.24.13-.64.19-1.2.19h-.66v-4.78h.67c.7,0,1.2.17,1.5.51s.45.98.45,1.9c0,.7-.07,1.21-.2,1.52ZM796.11,811.65l-3.29,8.74h2.76l.43-1.44h3.07l.44,1.44h2.83l-3.28-8.74h-2.96ZM796.6,817.05l.95-3.14.96,3.14h-1.92,0ZM809.12,816.48l-3.29-4.83h-2.52v8.74h2.53v-4.8l3.28,4.8h2.54v-8.74h-2.54v4.83ZM817.84,817.22h1.81v.82c-.35.21-.67.36-.94.45s-.56.13-.86.13c-.64,0-1.13-.2-1.49-.61s-.53-1.08-.53-2.03c0-.89.18-1.54.53-1.95.35-.41.82-.62,1.42-.62.4,0,.72.09.98.26s.44.43.55.76l2.61-.47c-.16-.56-.4-1.03-.71-1.4-.32-.37-.71-.64-1.19-.81s-1.2-.26-2.17-.26-1.8.14-2.39.42c-.76.37-1.34.9-1.73,1.61-.39.71-.59,1.54-.59,2.49s.18,1.71.54,2.41c.36.7.87,1.23,1.52,1.58.65.35,1.5.53,2.54.53.84,0,1.57-.1,2.19-.3.61-.2,1.32-.57,2.12-1.11v-3.73h-4.17v1.82h-.04ZM826.38,816.69h4.21v-1.79h-4.21v-1.39h4.53v-1.86h-7.23v8.74h7.36v-1.98h-4.66v-1.72ZM839.91,817.85c-.06-.13-.19-.31-.38-.54s-.33-.39-.43-.46c-.15-.11-.38-.21-.7-.32.4-.09.72-.21.95-.35.36-.22.65-.5.85-.86.21-.35.31-.77.31-1.26,0-.56-.14-1.03-.41-1.42-.27-.39-.63-.65-1.07-.8-.44-.14-1.08-.21-1.91-.21h-4.5v8.74h2.71v-3.55h.24c.25,0,.47.07.66.2.14.1.31.33.49.67l1.44,2.67h3.05l-1.31-2.53v.02ZM837.63,814.8c-.11.15-.26.24-.44.27-.35.08-.59.12-.72.12h-1.14v-1.78h1.19c.49,0,.83.08,1.01.23.18.15.27.37.27.65,0,.19-.06.36-.17.51h0Z" style="fill:#fff;"/></svg>