<svg xmlns="http://www.w3.org/2000/svg" width="710.08" height="596.69" viewBox="0 0 710.08 596.69"><title>MK3_bottom</title><line x1="0.71" y1="0.71" x2="0.71" y2="595.98" fill="none" stroke="#fff" stroke-linecap="round" stroke-linejoin="round" stroke-width="1.42"/><line x1="142.44" y1="0.71" x2="142.44" y2="581.81" fill="none" stroke="#fff" stroke-linecap="round" stroke-linejoin="round" stroke-width="1.42"/><line x1="284.17" y1="0.71" x2="284.17" y2="581.81" fill="none" stroke="#fff" stroke-linecap="round" stroke-linejoin="round" stroke-width="1.42"/><line x1="709.37" y1="581.81" x2="709.37" y2="0.71" fill="none" stroke="#fff" stroke-linecap="round" stroke-linejoin="round" stroke-width="1.42"/><line x1="14.25" y1="581.81" x2="709.37" y2="581.81" fill="none" stroke="#fff" stroke-linecap="round" stroke-linejoin="round" stroke-width="1.42"/><line x1="0.71" y1="595.98" x2="709.37" y2="595.98" fill="none" stroke="#fff" stroke-linecap="round" stroke-linejoin="round" stroke-width="1.42"/><line x1="14.25" y1="440.08" x2="709.37" y2="440.08" fill="none" stroke="#fff" stroke-linecap="round" stroke-linejoin="round" stroke-width="1.42"/><line x1="14.25" y1="298.35" x2="709.37" y2="298.35" fill="none" stroke="#fff" stroke-linecap="round" stroke-linejoin="round" stroke-width="1.42"/><line x1="14.25" y1="156.61" x2="709.37" y2="156.61" fill="none" stroke="#fff" stroke-linecap="round" stroke-linejoin="round" stroke-width="1.42"/><line x1="14.25" y1="14.88" x2="709.37" y2="14.88" fill="none" stroke="#fff" stroke-linecap="round" stroke-linejoin="round" stroke-width="1.42"/><line x1="709.37" y1="0.71" x2="0.71" y2="0.71" fill="none" stroke="#fff" stroke-linecap="round" stroke-linejoin="round" stroke-width="1.42"/><line x1="425.91" y1="0.71" x2="425.91" y2="499.35" fill="none" stroke="#fff" stroke-linecap="round" stroke-linejoin="round" stroke-width="1.42"/><line x1="425.91" y1="522.54" x2="425.91" y2="581.81" fill="none" stroke="#fff" stroke-linecap="round" stroke-linejoin="round" stroke-width="1.42"/><line x1="567.64" y1="0.71" x2="567.64" y2="499.35" fill="none" stroke="#fff" stroke-linecap="round" stroke-linejoin="round" stroke-width="1.42"/><line x1="567.64" y1="522.54" x2="567.64" y2="527.69" fill="none" stroke="#fff" stroke-linecap="round" stroke-linejoin="round" stroke-width="1.42"/><line x1="567.64" y1="548.31" x2="567.64" y2="581.81" fill="none" stroke="#fff" stroke-linecap="round" stroke-linejoin="round" stroke-width="1.42"/><line x1="85.75" y1="0.71" x2="85.75" y2="581.81" fill="none" stroke="#fff" stroke-linecap="round" stroke-linejoin="round" stroke-width="0.37"/><line x1="114.09" y1="0.71" x2="114.09" y2="581.81" fill="none" stroke="#fff" stroke-linecap="round" stroke-linejoin="round" stroke-width="0.37"/><line x1="170.79" y1="0.71" x2="170.79" y2="581.81" fill="none" stroke="#fff" stroke-linecap="round" stroke-linejoin="round" stroke-width="0.37"/><line x1="199.13" y1="0.71" x2="199.13" y2="581.81" fill="none" stroke="#fff" stroke-linecap="round" stroke-linejoin="round" stroke-width="0.37"/><line x1="227.48" y1="0.71" x2="227.48" y2="581.81" fill="none" stroke="#fff" stroke-linecap="round" stroke-linejoin="round" stroke-width="0.37"/><line x1="255.83" y1="0.71" x2="255.83" y2="581.81" fill="none" stroke="#fff" stroke-linecap="round" stroke-linejoin="round" stroke-width="0.37"/><line x1="312.52" y1="0.71" x2="312.52" y2="581.81" fill="none" stroke="#fff" stroke-linecap="round" stroke-linejoin="round" stroke-width="0.37"/><line x1="340.87" y1="0.71" x2="340.87" y2="581.81" fill="none" stroke="#fff" stroke-linecap="round" stroke-linejoin="round" stroke-width="0.37"/><line x1="681.02" y1="0.71" x2="681.02" y2="581.81" fill="none" stroke="#fff" stroke-linecap="round" stroke-linejoin="round" stroke-width="0.37"/><line x1="29.06" y1="0.71" x2="29.06" y2="581.81" fill="none" stroke="#fff" stroke-linecap="round" stroke-linejoin="round" stroke-width="0.37"/><line x1="57.4" y1="0.71" x2="57.4" y2="581.81" fill="none" stroke="#fff" stroke-linecap="round" stroke-linejoin="round" stroke-width="0.37"/><line x1="14.25" y1="468.43" x2="709.37" y2="468.43" fill="none" stroke="#fff" stroke-linecap="round" stroke-linejoin="round" stroke-width="0.37"/><line x1="14.25" y1="496.77" x2="709.37" y2="496.77" fill="none" stroke="#fff" stroke-linecap="round" stroke-linejoin="round" stroke-width="0.37"/><line x1="14.25" y1="525.12" x2="709.37" y2="525.12" fill="none" stroke="#fff" stroke-linecap="round" stroke-linejoin="round" stroke-width="0.37"/><line x1="14.25" y1="553.46" x2="709.37" y2="553.46" fill="none" stroke="#fff" stroke-linecap="round" stroke-linejoin="round" stroke-width="0.37"/><line x1="14.25" y1="411.73" x2="709.37" y2="411.73" fill="none" stroke="#fff" stroke-linecap="round" stroke-linejoin="round" stroke-width="0.37"/><line x1="14.25" y1="383.39" x2="709.37" y2="383.39" fill="none" stroke="#fff" stroke-linecap="round" stroke-linejoin="round" stroke-width="0.37"/><line x1="14.25" y1="355.04" x2="709.37" y2="355.04" fill="none" stroke="#fff" stroke-linecap="round" stroke-linejoin="round" stroke-width="0.37"/><line x1="14.25" y1="326.69" x2="709.37" y2="326.69" fill="none" stroke="#fff" stroke-linecap="round" stroke-linejoin="round" stroke-width="0.37"/><line x1="14.25" y1="270" x2="709.37" y2="270" fill="none" stroke="#fff" stroke-linecap="round" stroke-linejoin="round" stroke-width="0.37"/><line x1="14.25" y1="241.65" x2="709.37" y2="241.65" fill="none" stroke="#fff" stroke-linecap="round" stroke-linejoin="round" stroke-width="0.37"/><line x1="14.25" y1="213.31" x2="709.37" y2="213.31" fill="none" stroke="#fff" stroke-linecap="round" stroke-linejoin="round" stroke-width="0.37"/><line x1="14.25" y1="184.96" x2="709.37" y2="184.96" fill="none" stroke="#fff" stroke-linecap="round" stroke-linejoin="round" stroke-width="0.37"/><line x1="14.25" y1="128.27" x2="709.37" y2="128.27" fill="none" stroke="#fff" stroke-linecap="round" stroke-linejoin="round" stroke-width="0.37"/><line x1="14.25" y1="99.92" x2="709.37" y2="99.92" fill="none" stroke="#fff" stroke-linecap="round" stroke-linejoin="round" stroke-width="0.37"/><line x1="14.25" y1="71.57" x2="709.37" y2="71.57" fill="none" stroke="#fff" stroke-linecap="round" stroke-linejoin="round" stroke-width="0.37"/><line x1="14.25" y1="43.23" x2="709.37" y2="43.23" fill="none" stroke="#fff" stroke-linecap="round" stroke-linejoin="round" stroke-width="0.37"/><line x1="369.21" y1="0.71" x2="369.21" y2="499.35" fill="none" stroke="#fff" stroke-linecap="round" stroke-linejoin="round" stroke-width="0.37"/><line x1="369.21" y1="522.54" x2="369.21" y2="581.81" fill="none" stroke="#fff" stroke-linecap="round" stroke-linejoin="round" stroke-width="0.37"/><line x1="397.56" y1="0.71" x2="397.56" y2="499.35" fill="none" stroke="#fff" stroke-linecap="round" stroke-linejoin="round" stroke-width="0.37"/><line x1="397.56" y1="522.54" x2="397.56" y2="581.81" fill="none" stroke="#fff" stroke-linecap="round" stroke-linejoin="round" stroke-width="0.37"/><line x1="454.25" y1="0.71" x2="454.25" y2="499.35" fill="none" stroke="#fff" stroke-linecap="round" stroke-linejoin="round" stroke-width="0.37"/><line x1="454.25" y1="522.54" x2="454.25" y2="581.81" fill="none" stroke="#fff" stroke-linecap="round" stroke-linejoin="round" stroke-width="0.37"/><line x1="482.6" y1="0.71" x2="482.6" y2="499.35" fill="none" stroke="#fff" stroke-linecap="round" stroke-linejoin="round" stroke-width="0.37"/><line x1="482.6" y1="522.54" x2="482.6" y2="581.81" fill="none" stroke="#fff" stroke-linecap="round" stroke-linejoin="round" stroke-width="0.37"/><line x1="510.94" y1="0.71" x2="510.94" y2="499.35" fill="none" stroke="#fff" stroke-linecap="round" stroke-linejoin="round" stroke-width="0.37"/><line x1="510.94" y1="522.54" x2="510.94" y2="581.81" fill="none" stroke="#fff" stroke-linecap="round" stroke-linejoin="round" stroke-width="0.37"/><line x1="539.29" y1="0.71" x2="539.29" y2="499.35" fill="none" stroke="#fff" stroke-linecap="round" stroke-linejoin="round" stroke-width="0.37"/><line x1="539.29" y1="522.54" x2="539.29" y2="581.81" fill="none" stroke="#fff" stroke-linecap="round" stroke-linejoin="round" stroke-width="0.37"/><line x1="595.98" y1="0.71" x2="595.98" y2="499.35" fill="none" stroke="#fff" stroke-linecap="round" stroke-linejoin="round" stroke-width="0.37"/><line x1="624.33" y1="0.71" x2="624.33" y2="499.35" fill="none" stroke="#fff" stroke-linecap="round" stroke-linejoin="round" stroke-width="0.37"/><line x1="652.68" y1="0.71" x2="652.68" y2="499.35" fill="none" stroke="#fff" stroke-linecap="round" stroke-linejoin="round" stroke-width="0.37"/><line x1="652.68" y1="522.54" x2="652.68" y2="527.69" fill="none" stroke="#fff" stroke-linecap="round" stroke-linejoin="round" stroke-width="0.37"/><line x1="652.68" y1="548.31" x2="652.68" y2="581.81" fill="none" stroke="#fff" stroke-linecap="round" stroke-linejoin="round" stroke-width="0.37"/><line x1="624.33" y1="522.54" x2="624.33" y2="527.69" fill="none" stroke="#fff" stroke-linecap="round" stroke-linejoin="round" stroke-width="0.37"/><line x1="624.33" y1="548.31" x2="624.33" y2="581.81" fill="none" stroke="#fff" stroke-linecap="round" stroke-linejoin="round" stroke-width="0.37"/><line x1="595.98" y1="522.54" x2="595.98" y2="527.69" fill="none" stroke="#fff" stroke-linecap="round" stroke-linejoin="round" stroke-width="0.37"/><line x1="595.98" y1="548.31" x2="595.98" y2="581.81" fill="none" stroke="#fff" stroke-linecap="round" stroke-linejoin="round" stroke-width="0.37"/><path d="M27,588.28a3.33,3.33,0,0,0,.56,0,2.26,2.26,0,0,0,.5-.16,1.32,1.32,0,0,0,.37-.29.92.92,0,0,0,.21-.43h.74V593h-1v-4H27Z" transform="translate(0.14 0.14)" fill="#fff"/><path d="M58.7,593H54.87a2.35,2.35,0,0,1,.34-1.22,3.21,3.21,0,0,1,.9-.9l.56-.39a4.56,4.56,0,0,0,.55-.4,2.56,2.56,0,0,0,.41-.47,1.23,1.23,0,0,0,.17-.58,2.11,2.11,0,0,0,0-.33.83.83,0,0,0-.14-.32.76.76,0,0,0-.29-.24,1,1,0,0,0-.48-.11.88.88,0,0,0-.45.11.83.83,0,0,0-.29.3,1.43,1.43,0,0,0-.16.44,2.53,2.53,0,0,0-.06.56H55a2.93,2.93,0,0,1,.12-.86,1.91,1.91,0,0,1,.37-.69,1.83,1.83,0,0,1,.61-.45,2.16,2.16,0,0,1,1.68,0,1.64,1.64,0,0,1,.56.43,1.56,1.56,0,0,1,.3.55,2.05,2.05,0,0,1,.09.58,1.74,1.74,0,0,1-.11.61,2.06,2.06,0,0,1-.28.5,2.63,2.63,0,0,1-.4.42l-.46.36-.48.32-.45.3a2.72,2.72,0,0,0-.35.32.91.91,0,0,0-.21.35H58.7Z" transform="translate(0.14 0.14)" fill="#fff"/><path d="M84.73,589.67l.45,0a1.57,1.57,0,0,0,.4-.14.86.86,0,0,0,.29-.28.83.83,0,0,0,.1-.43.75.75,0,0,0-.24-.58,1,1,0,0,0-1-.12.89.89,0,0,0-.29.26,1.14,1.14,0,0,0-.17.37,1.51,1.51,0,0,0,0,.42h-.91a2.39,2.39,0,0,1,.15-.76,2,2,0,0,1,.37-.6,1.59,1.59,0,0,1,.58-.4,1.81,1.81,0,0,1,.76-.15,2.31,2.31,0,0,1,.64.1,1.89,1.89,0,0,1,.57.28,1.31,1.31,0,0,1,.4.47,1.28,1.28,0,0,1,.16.65,1.36,1.36,0,0,1-.2.74,1,1,0,0,1-.6.46v0a1.13,1.13,0,0,1,.75.48,1.7,1.7,0,0,1,.11,1.64,1.6,1.6,0,0,1-.43.53,1.91,1.91,0,0,1-.63.34,2.43,2.43,0,0,1-.77.12,2.23,2.23,0,0,1-.85-.14,1.68,1.68,0,0,1-.61-.39,1.83,1.83,0,0,1-.37-.62,2.85,2.85,0,0,1-.14-.8h.92a1.25,1.25,0,0,0,.25.85,1,1,0,0,0,.8.34,1.12,1.12,0,0,0,.77-.26.93.93,0,0,0,.31-.74,1,1,0,0,0-.13-.52.87.87,0,0,0-.34-.29,1.16,1.16,0,0,0-.47-.12,3.09,3.09,0,0,0-.53,0Z" transform="translate(0.14 0.14)" fill="#fff"/><path d="M115.3,591.62h-.72V593h-.87v-1.33h-2.4v-.9l2.4-3.37h.87v3.55h.72ZM112,590.9h1.69v-2.46h0Z" transform="translate(0.14 0.14)" fill="#fff"/><path d="M140.58,587.35h2.9v.81h-2.21l-.29,1.43v0a1.19,1.19,0,0,1,.47-.32,1.65,1.65,0,0,1,.57-.11,2,2,0,0,1,.74.14,1.45,1.45,0,0,1,.55.39,1.62,1.62,0,0,1,.34.6,2.25,2.25,0,0,1,.12.74,2.49,2.49,0,0,1-.11.7,2.13,2.13,0,0,1-.34.65,1.82,1.82,0,0,1-1.49.66,2.57,2.57,0,0,1-.75-.1,1.84,1.84,0,0,1-.62-.33,1.7,1.7,0,0,1-.42-.53,1.87,1.87,0,0,1-.17-.74h.91a1,1,0,0,0,.32.7,1,1,0,0,0,.72.24,1.14,1.14,0,0,0,.48-.09.8.8,0,0,0,.33-.27,1,1,0,0,0,.17-.39,1.86,1.86,0,0,0,.06-.48,1.31,1.31,0,0,0-.07-.44,1,1,0,0,0-.19-.38.93.93,0,0,0-.33-.25,1.06,1.06,0,0,0-.48-.1,1.41,1.41,0,0,0-.54.11.65.65,0,0,0-.36.4H140Z" transform="translate(0.14 0.14)" fill="#fff"/><path d="M171,588.76a.85.85,0,0,0-.24-.55.78.78,0,0,0-.57-.22.94.94,0,0,0-.43.1,1,1,0,0,0-.31.24,1.68,1.68,0,0,0-.2.35,2.77,2.77,0,0,0-.12.41c0,.15,0,.29-.07.43l0,.4h0a1.17,1.17,0,0,1,.51-.5,1.53,1.53,0,0,1,.7-.16,2,2,0,0,1,.75.14,1.69,1.69,0,0,1,.55.4,1.79,1.79,0,0,1,.35.6,2.21,2.21,0,0,1,.12.74,2.13,2.13,0,0,1-.13.76,2,2,0,0,1-.38.61,1.87,1.87,0,0,1-.59.4,1.9,1.9,0,0,1-.76.14,2.06,2.06,0,0,1-1-.22,1.7,1.7,0,0,1-.62-.63,2.76,2.76,0,0,1-.32-.93,6.88,6.88,0,0,1-.09-1.15,5,5,0,0,1,.11-1,3,3,0,0,1,.36-.94,1.93,1.93,0,0,1,.65-.68,1.76,1.76,0,0,1,1-.27,1.68,1.68,0,0,1,.63.12,1.6,1.6,0,0,1,.52.31,1.5,1.5,0,0,1,.38.48,1.58,1.58,0,0,1,.16.62Zm-.88,3.54a.89.89,0,0,0,.44-.1.83.83,0,0,0,.3-.26.93.93,0,0,0,.19-.37,1.61,1.61,0,0,0,.06-.44,1.54,1.54,0,0,0-.06-.43.89.89,0,0,0-.19-.36.81.81,0,0,0-.3-.25.89.89,0,0,0-.44-.1,1,1,0,0,0-.43.09,1,1,0,0,0-.32.25,1.13,1.13,0,0,0-.19.36,1.62,1.62,0,0,0-.07.44,1.5,1.5,0,0,0,.07.44,1.23,1.23,0,0,0,.19.38,1,1,0,0,0,.32.26A1,1,0,0,0,170.09,592.3Z" transform="translate(0.14 0.14)" fill="#fff"/><path d="M196.57,587.35h3.84v.76a8.63,8.63,0,0,0-.8,1,7.28,7.28,0,0,0-.63,1.13,6.93,6.93,0,0,0-.44,1.26,8.62,8.62,0,0,0-.22,1.42h-1a6.54,6.54,0,0,1,.23-1.31,8.27,8.27,0,0,1,.46-1.26,9.7,9.7,0,0,1,.66-1.17,10.46,10.46,0,0,1,.81-1.05h-2.91Z" transform="translate(0.14 0.14)" fill="#fff"/><path d="M226.86,593.06a2.45,2.45,0,0,1-.78-.12,1.73,1.73,0,0,1-.63-.34A1.51,1.51,0,0,1,225,592a1.78,1.78,0,0,1-.15-.74,1.45,1.45,0,0,1,.27-.89,1.36,1.36,0,0,1,.75-.48h0a1.28,1.28,0,0,1-.59-.45,1.26,1.26,0,0,1-.2-.71,1.43,1.43,0,0,1,.45-1.12,2.25,2.25,0,0,1,2.59,0,1.43,1.43,0,0,1,.45,1.12,1.26,1.26,0,0,1-.2.71,1.28,1.28,0,0,1-.59.45h0a1.36,1.36,0,0,1,.75.48,1.45,1.45,0,0,1,.27.89,1.78,1.78,0,0,1-.15.74,1.51,1.51,0,0,1-.41.56,1.73,1.73,0,0,1-.63.34A2.47,2.47,0,0,1,226.86,593.06Zm0-.72a1.13,1.13,0,0,0,.77-.27,1,1,0,0,0,.3-.77.89.89,0,0,0-.3-.72,1.26,1.26,0,0,0-1.53,0,.89.89,0,0,0-.3.72,1,1,0,0,0,.3.77A1.12,1.12,0,0,0,226.86,592.34Zm0-4.39a.91.91,0,0,0-.62.23.88.88,0,0,0,0,1.24,1,1,0,0,0,1.27,0,.88.88,0,0,0,0-1.24A.92.92,0,0,0,226.86,588Z" transform="translate(0.14 0.14)" fill="#fff"/><path d="M254.41,591.53a.87.87,0,0,0,.24.56.81.81,0,0,0,.58.21.83.83,0,0,0,.58-.19,1.31,1.31,0,0,0,.34-.49,2.17,2.17,0,0,0,.17-.63c0-.22.05-.42.07-.61h0a1.33,1.33,0,0,1-.5.5,1.55,1.55,0,0,1-.71.17,1.85,1.85,0,0,1-.72-.14,1.68,1.68,0,0,1-.56-.38,1.83,1.83,0,0,1-.36-.59,2.36,2.36,0,0,1-.13-.78,2.33,2.33,0,0,1,.13-.76,1.84,1.84,0,0,1,.38-.61,1.62,1.62,0,0,1,.61-.4,2.09,2.09,0,0,1,.81-.15,1.92,1.92,0,0,1,1,.23,1.52,1.52,0,0,1,.6.63,2.75,2.75,0,0,1,.31.93,7,7,0,0,1,.09,1.15,5,5,0,0,1-.11,1,3.14,3.14,0,0,1-.35.93,2.08,2.08,0,0,1-.66.69,1.74,1.74,0,0,1-1,.26,1.69,1.69,0,0,1-.64-.11,1.71,1.71,0,0,1-.52-.31,1.55,1.55,0,0,1-.53-1.11Zm.87-3.54a1,1,0,0,0-.43.1.81.81,0,0,0-.3.25,1.16,1.16,0,0,0-.18.37,1.54,1.54,0,0,0-.06.43,1.56,1.56,0,0,0,.06.44,1.11,1.11,0,0,0,.18.38,1.08,1.08,0,0,0,.3.26,1,1,0,0,0,.43.1.93.93,0,0,0,.45-.1.9.9,0,0,0,.32-.26,1.35,1.35,0,0,0,.19-.38,1.56,1.56,0,0,0,.06-.44,1.54,1.54,0,0,0-.06-.43,1.43,1.43,0,0,0-.19-.37,1,1,0,0,0-.32-.25A1.06,1.06,0,0,0,255.28,588Z" transform="translate(0.14 0.14)" fill="#fff"/><path d="M278.65,588.28a3.43,3.43,0,0,0,.56,0,2.17,2.17,0,0,0,.49-.16,1.24,1.24,0,0,0,.38-.29.92.92,0,0,0,.21-.43H281V593h-1v-4h-1.38Z" transform="translate(0.14 0.14)" fill="#fff"/><path d="M284.91,587.23a1.67,1.67,0,0,1,1,.28,1.86,1.86,0,0,1,.59.71,3.13,3.13,0,0,1,.29.94,7,7,0,0,1,0,2,3.13,3.13,0,0,1-.29.94,1.94,1.94,0,0,1-.59.71,1.67,1.67,0,0,1-1,.27,1.7,1.7,0,0,1-1-.27,1.94,1.94,0,0,1-.59-.71,3.13,3.13,0,0,1-.29-.94,7,7,0,0,1,0-2,3.13,3.13,0,0,1,.29-.94,1.86,1.86,0,0,1,.59-.71A1.7,1.7,0,0,1,284.91,587.23Zm0,5.07a.7.7,0,0,0,.49-.17,1.12,1.12,0,0,0,.32-.46,2.69,2.69,0,0,0,.16-.69,6.91,6.91,0,0,0,0-1.66,2.52,2.52,0,0,0-.16-.68,1.09,1.09,0,0,0-.32-.47.71.71,0,0,0-.49-.18.74.74,0,0,0-.51.18,1.17,1.17,0,0,0-.31.47,3,3,0,0,0-.16.68,6.91,6.91,0,0,0,0,1.66,3.19,3.19,0,0,0,.16.69,1.2,1.2,0,0,0,.31.46A.73.73,0,0,0,284.91,592.3Z" transform="translate(0.14 0.14)" fill="#fff"/><path d="M307.81,588.28a3.43,3.43,0,0,0,.56,0,2.35,2.35,0,0,0,.49-.16,1.37,1.37,0,0,0,.38-.29.9.9,0,0,0,.2-.43h.75V593h-1v-4h-1.38Z" transform="translate(0.14 0.14)" fill="#fff"/><path d="M312.26,588.28a3.43,3.43,0,0,0,.56,0,2.17,2.17,0,0,0,.49-.16,1.24,1.24,0,0,0,.38-.29.9.9,0,0,0,.2-.43h.75V593h-1v-4h-1.38Z" transform="translate(0.14 0.14)" fill="#fff"/><path d="M335.34,588.28a3.33,3.33,0,0,0,.56,0,2.26,2.26,0,0,0,.5-.16,1.32,1.32,0,0,0,.37-.29.83.83,0,0,0,.21-.43h.74V593h-1v-4h-1.38Z" transform="translate(0.14 0.14)" fill="#fff"/><path d="M343.51,593h-3.83a2.35,2.35,0,0,1,.34-1.22,3.21,3.21,0,0,1,.9-.9l.57-.39a4.44,4.44,0,0,0,.54-.4,2.23,2.23,0,0,0,.41-.47,1.13,1.13,0,0,0,.17-.58,1.35,1.35,0,0,0,0-.33.83.83,0,0,0-.14-.32.7.7,0,0,0-.29-.24,1,1,0,0,0-.48-.11.88.88,0,0,0-.45.11.83.83,0,0,0-.29.3,1.75,1.75,0,0,0-.16.44,4.8,4.8,0,0,0-.06.56h-.91a2.93,2.93,0,0,1,.12-.86,1.92,1.92,0,0,1,.38-.69,1.69,1.69,0,0,1,.6-.45,2,2,0,0,1,.83-.17,2,2,0,0,1,.86.17,1.7,1.7,0,0,1,.55.43,1.56,1.56,0,0,1,.3.55,2.05,2.05,0,0,1,.09.58,1.74,1.74,0,0,1-.1.61,2.46,2.46,0,0,1-.28.5,4,4,0,0,1-.4.42l-.47.36-.48.32c-.16.1-.31.2-.44.3a2.27,2.27,0,0,0-.36.32.91.91,0,0,0-.21.35h2.73Z" transform="translate(0.14 0.14)" fill="#fff"/><path d="M363.69,588.28a3.43,3.43,0,0,0,.56,0,2.17,2.17,0,0,0,.49-.16,1.24,1.24,0,0,0,.38-.29.9.9,0,0,0,.2-.43h.75V593h-1v-4h-1.38Z" transform="translate(0.14 0.14)" fill="#fff"/><path d="M369.54,589.67l.45,0a1.45,1.45,0,0,0,.4-.14.78.78,0,0,0,.29-.28.83.83,0,0,0,.11-.43.76.76,0,0,0-.25-.58.93.93,0,0,0-.63-.22.86.86,0,0,0-.41.1.83.83,0,0,0-.3.26,1.4,1.4,0,0,0-.17.37,1.51,1.51,0,0,0,0,.42h-.91a2.39,2.39,0,0,1,.15-.76,1.86,1.86,0,0,1,.38-.6,1.47,1.47,0,0,1,.57-.4,1.84,1.84,0,0,1,.76-.15,2.31,2.31,0,0,1,.64.1,1.89,1.89,0,0,1,.57.28,1.44,1.44,0,0,1,.41.47,1.38,1.38,0,0,1,.15.65,1.45,1.45,0,0,1-.19.74,1.09,1.09,0,0,1-.6.46v0a1.09,1.09,0,0,1,.74.48,1.7,1.7,0,0,1,.11,1.64,1.48,1.48,0,0,1-.43.53,1.91,1.91,0,0,1-.63.34,2.42,2.42,0,0,1-.76.12,2.28,2.28,0,0,1-.86-.14,1.56,1.56,0,0,1-.6-.39,1.7,1.7,0,0,1-.38-.62,2.53,2.53,0,0,1-.13-.8h.91a1.25,1.25,0,0,0,.25.85,1,1,0,0,0,.81.34,1.1,1.1,0,0,0,.76-.26,1.06,1.06,0,0,0,.18-1.26.84.84,0,0,0-.33-.29,1.21,1.21,0,0,0-.47-.12,3.21,3.21,0,0,0-.54,0Z" transform="translate(0.14 0.14)" fill="#fff"/><path d="M391.9,588.28a3.43,3.43,0,0,0,.56,0,2.44,2.44,0,0,0,.5-.16,1.32,1.32,0,0,0,.37-.29.92.92,0,0,0,.21-.43h.74V593h-1v-4H391.9Z" transform="translate(0.14 0.14)" fill="#fff"/><path d="M400.11,591.62h-.72V593h-.87v-1.33h-2.4v-.9l2.4-3.37h.87v3.55h.72Zm-3.28-.72h1.69v-2.46h0Z" transform="translate(0.14 0.14)" fill="#fff"/><path d="M420.38,588.28a3.33,3.33,0,0,0,.56,0,2.26,2.26,0,0,0,.5-.16,1.32,1.32,0,0,0,.37-.29.83.83,0,0,0,.21-.43h.74V593h-1v-4h-1.38Z" transform="translate(0.14 0.14)" fill="#fff"/><path d="M425.4,587.35h2.9v.81h-2.22l-.29,1.43v0a1.19,1.19,0,0,1,.47-.32,1.65,1.65,0,0,1,.57-.11,1.91,1.91,0,0,1,.74.14,1.38,1.38,0,0,1,.55.39,1.79,1.79,0,0,1,.35.6,2.55,2.55,0,0,1,.11.74,2.17,2.17,0,0,1-.11.7,1.93,1.93,0,0,1-.34.65,2,2,0,0,1-.61.48,1.94,1.94,0,0,1-.88.18,2.57,2.57,0,0,1-.75-.1,1.84,1.84,0,0,1-.62-.33,1.7,1.7,0,0,1-.42-.53,1.87,1.87,0,0,1-.17-.74h.91a1,1,0,0,0,1,.94,1.22,1.22,0,0,0,.49-.09.84.84,0,0,0,.32-.27,1.17,1.17,0,0,0,.18-.39,2.44,2.44,0,0,0,.05-.48,1.31,1.31,0,0,0-.07-.44,1,1,0,0,0-.19-.38.85.85,0,0,0-.33-.25,1,1,0,0,0-.48-.1,1.41,1.41,0,0,0-.54.11.65.65,0,0,0-.36.4h-.91Z" transform="translate(0.14 0.14)" fill="#fff"/><path d="M448.73,588.28a3.43,3.43,0,0,0,.56,0,2.17,2.17,0,0,0,.49-.16,1.24,1.24,0,0,0,.38-.29.9.9,0,0,0,.2-.43h.75V593h-1v-4h-1.38Z" transform="translate(0.14 0.14)" fill="#fff"/><path d="M455.92,588.76a.85.85,0,0,0-.24-.55.8.8,0,0,0-.58-.22,1,1,0,0,0-.73.34,1.33,1.33,0,0,0-.2.35,2.77,2.77,0,0,0-.12.41,3.49,3.49,0,0,0-.07.43c0,.14,0,.27,0,.4h0a1.17,1.17,0,0,1,.51-.5,1.5,1.5,0,0,1,.7-.16,1.91,1.91,0,0,1,.74.14,1.63,1.63,0,0,1,.56.4,1.79,1.79,0,0,1,.35.6,2.21,2.21,0,0,1,.12.74,2.38,2.38,0,0,1-.13.76,2,2,0,0,1-.38.61,1.91,1.91,0,0,1-.6.4,1.87,1.87,0,0,1-.76.14,2,2,0,0,1-1-.22,1.81,1.81,0,0,1-.63-.63,2.75,2.75,0,0,1-.31-.93,6.88,6.88,0,0,1-.09-1.15,5,5,0,0,1,.11-1,3,3,0,0,1,.36-.94,1.93,1.93,0,0,1,.65-.68,1.74,1.74,0,0,1,1-.27,1.79,1.79,0,0,1,1.16.43,1.47,1.47,0,0,1,.37.48,1.42,1.42,0,0,1,.16.62ZM455,592.3a.83.83,0,0,0,.43-.1.79.79,0,0,0,.31-.26,1.29,1.29,0,0,0,.19-.37,1.61,1.61,0,0,0,.06-.44,1.54,1.54,0,0,0-.06-.43,1.23,1.23,0,0,0-.19-.36.76.76,0,0,0-.31-.25.83.83,0,0,0-.43-.1,1,1,0,0,0-.44.09,1,1,0,0,0-.5.61,1.31,1.31,0,0,0-.07.44,1.23,1.23,0,0,0,.07.44,1,1,0,0,0,.19.38,1,1,0,0,0,.31.26A1,1,0,0,0,455,592.3Z" transform="translate(0.14 0.14)" fill="#fff"/><path d="M477.08,588.28a3.43,3.43,0,0,0,.56,0,2.35,2.35,0,0,0,.49-.16,1.37,1.37,0,0,0,.38-.29.9.9,0,0,0,.2-.43h.75V593h-1v-4h-1.37Z" transform="translate(0.14 0.14)" fill="#fff"/><path d="M481.38,587.35h3.84v.76a9.8,9.8,0,0,0-.8,1,7.28,7.28,0,0,0-.63,1.13,7.78,7.78,0,0,0-.44,1.26,8.62,8.62,0,0,0-.22,1.42h-1a6.54,6.54,0,0,1,.23-1.31,8.27,8.27,0,0,1,.46-1.26,9.7,9.7,0,0,1,.66-1.17,10.46,10.46,0,0,1,.81-1.05h-2.91Z" transform="translate(0.14 0.14)" fill="#fff"/><path d="M505.42,588.28a3.33,3.33,0,0,0,.56,0,2.26,2.26,0,0,0,.5-.16,1.32,1.32,0,0,0,.37-.29.92.92,0,0,0,.21-.43h.74V593h-1v-4h-1.38Z" transform="translate(0.14 0.14)" fill="#fff"/><path d="M511.68,593.06a2.47,2.47,0,0,1-.79-.12,1.91,1.91,0,0,1-.63-.34,1.62,1.62,0,0,1-.41-.56,1.78,1.78,0,0,1-.15-.74,1.39,1.39,0,0,1,.28-.89,1.3,1.3,0,0,1,.74-.48h0a1.2,1.2,0,0,1-.58-.45,1.19,1.19,0,0,1-.21-.71,1.43,1.43,0,0,1,.45-1.12,1.91,1.91,0,0,1,1.3-.41,1.87,1.87,0,0,1,1.29.41,1.43,1.43,0,0,1,.45,1.12,1.26,1.26,0,0,1-.2.71,1.23,1.23,0,0,1-.59.45h0a1.36,1.36,0,0,1,.75.48,1.45,1.45,0,0,1,.28.89,1.78,1.78,0,0,1-.15.74,1.65,1.65,0,0,1-.42.56,1.77,1.77,0,0,1-.62.34A2.56,2.56,0,0,1,511.68,593.06Zm0-.72a1.12,1.12,0,0,0,.76-.27,1,1,0,0,0,.3-.77.89.89,0,0,0-.3-.72,1.12,1.12,0,0,0-.76-.26,1.08,1.08,0,0,0-.76.26.87.87,0,0,0-.31.72,1,1,0,0,0,.31.77A1.09,1.09,0,0,0,511.68,592.34Zm0-4.39a.92.92,0,0,0-.63.23.91.91,0,0,0,0,1.24,1,1,0,0,0,1.27,0,.88.88,0,0,0,0-1.24A.91.91,0,0,0,511.68,588Z" transform="translate(0.14 0.14)" fill="#fff"/><path d="M533.9,588.28a3.55,3.55,0,0,0,.57,0,2.35,2.35,0,0,0,.49-.16,1.32,1.32,0,0,0,.37-.29.83.83,0,0,0,.21-.43h.74V593h-1v-4H533.9Z" transform="translate(0.14 0.14)" fill="#fff"/><path d="M539.22,591.53a.83.83,0,0,0,.25.56.77.77,0,0,0,.57.21.87.87,0,0,0,.59-.19,1.44,1.44,0,0,0,.34-.49,2.53,2.53,0,0,0,.16-.63c0-.22,0-.42.07-.61h0a1.33,1.33,0,0,1-.5.5,1.52,1.52,0,0,1-.71.17,1.89,1.89,0,0,1-.72-.14,1.68,1.68,0,0,1-.56-.38,1.83,1.83,0,0,1-.36-.59,2.37,2.37,0,0,1-.12-.78,2.33,2.33,0,0,1,.12-.76,1.84,1.84,0,0,1,.38-.61,1.62,1.62,0,0,1,.61-.4,2.09,2.09,0,0,1,.81-.15,1.89,1.89,0,0,1,1,.23,1.61,1.61,0,0,1,.61.63,2.75,2.75,0,0,1,.3.93,7,7,0,0,1,.09,1.15,4.4,4.4,0,0,1-.11,1,3.14,3.14,0,0,1-.35.93,2.15,2.15,0,0,1-.65.69,1.77,1.77,0,0,1-1,.26,1.61,1.61,0,0,1-.63-.11,1.65,1.65,0,0,1-.53-.31,1.62,1.62,0,0,1-.37-.48,1.47,1.47,0,0,1-.16-.63Zm.87-3.54a1,1,0,0,0-.43.1.81.81,0,0,0-.3.25,1.16,1.16,0,0,0-.18.37,1.54,1.54,0,0,0-.06.43,1.56,1.56,0,0,0,.06.44,1.11,1.11,0,0,0,.18.38,1.08,1.08,0,0,0,.3.26,1,1,0,0,0,.43.1.88.88,0,0,0,.45-.1.82.82,0,0,0,.32-.26,1.13,1.13,0,0,0,.19-.38,1.56,1.56,0,0,0,.06-.44,1.54,1.54,0,0,0-.06-.43,1.18,1.18,0,0,0-.19-.37.89.89,0,0,0-.32-.25A1,1,0,0,0,540.09,588Z" transform="translate(0.14 0.14)" fill="#fff"/><path d="M566.24,593h-3.83a2.26,2.26,0,0,1,.34-1.22,3,3,0,0,1,.89-.9l.57-.39a4.56,4.56,0,0,0,.55-.4,2.17,2.17,0,0,0,.4-.47,1,1,0,0,0,.17-.58,2,2,0,0,0,0-.33,1.3,1.3,0,0,0-.14-.32.76.76,0,0,0-.29-.24,1,1,0,0,0-.48-.11.92.92,0,0,0-.46.11.81.81,0,0,0-.28.3,1.21,1.21,0,0,0-.16.44,2.53,2.53,0,0,0-.06.56h-.92a2.63,2.63,0,0,1,.13-.86,1.77,1.77,0,0,1,.37-.69,1.79,1.79,0,0,1,.6-.45,2.18,2.18,0,0,1,1.69,0,1.64,1.64,0,0,1,.56.43,1.56,1.56,0,0,1,.3.55,2,2,0,0,1,.08.58,1.74,1.74,0,0,1-.1.61,2.06,2.06,0,0,1-.28.5,3.16,3.16,0,0,1-.4.42l-.46.36-.49.32-.44.3a2.83,2.83,0,0,0-.36.32.78.78,0,0,0-.2.35h2.73Z" transform="translate(0.14 0.14)" fill="#fff"/><path d="M568.77,587.23a1.7,1.7,0,0,1,1,.28,1.86,1.86,0,0,1,.59.71,3.13,3.13,0,0,1,.29.94,7,7,0,0,1,0,2,3.13,3.13,0,0,1-.29.94,1.94,1.94,0,0,1-.59.71,1.7,1.7,0,0,1-1,.27,1.67,1.67,0,0,1-1-.27,1.94,1.94,0,0,1-.59-.71,3.13,3.13,0,0,1-.29-.94,7,7,0,0,1,0-2,3.13,3.13,0,0,1,.29-.94,1.86,1.86,0,0,1,.59-.71A1.67,1.67,0,0,1,568.77,587.23Zm0,5.07a.71.71,0,0,0,.5-.17,1.22,1.22,0,0,0,.32-.46,2.69,2.69,0,0,0,.16-.69,6.91,6.91,0,0,0,0-1.66,2.52,2.52,0,0,0-.16-.68,1.18,1.18,0,0,0-.32-.47.71.71,0,0,0-.5-.18.73.73,0,0,0-.5.18,1.17,1.17,0,0,0-.31.47,2.52,2.52,0,0,0-.16.68,6.91,6.91,0,0,0,0,1.66,2.69,2.69,0,0,0,.16.69,1.2,1.2,0,0,0,.31.46A.72.72,0,0,0,568.77,592.3Z" transform="translate(0.14 0.14)" fill="#fff"/><path d="M595.39,593h-3.82a2.25,2.25,0,0,1,.33-1.22,3.21,3.21,0,0,1,.9-.9l.57-.39a4.44,4.44,0,0,0,.54-.4,2.23,2.23,0,0,0,.41-.47,1.13,1.13,0,0,0,.17-.58,1.35,1.35,0,0,0,0-.33.83.83,0,0,0-.14-.32.7.7,0,0,0-.29-.24,1,1,0,0,0-.48-.11.88.88,0,0,0-.45.11.83.83,0,0,0-.29.3,1.75,1.75,0,0,0-.16.44,4.8,4.8,0,0,0-.06.56h-.91a2.93,2.93,0,0,1,.12-.86,1.92,1.92,0,0,1,.38-.69,1.69,1.69,0,0,1,.6-.45,2,2,0,0,1,.83-.17,2,2,0,0,1,.86.17,1.6,1.6,0,0,1,.55.43,1.56,1.56,0,0,1,.3.55,2.05,2.05,0,0,1,.09.58,1.74,1.74,0,0,1-.1.61,2.46,2.46,0,0,1-.28.5,3.16,3.16,0,0,1-.4.42l-.47.36-.48.32c-.16.1-.31.2-.44.3a2.27,2.27,0,0,0-.36.32.91.91,0,0,0-.21.35h2.73Z" transform="translate(0.14 0.14)" fill="#fff"/><path d="M596.13,588.28a3.43,3.43,0,0,0,.56,0,2.17,2.17,0,0,0,.49-.16,1.37,1.37,0,0,0,.38-.29.9.9,0,0,0,.2-.43h.75V593h-1v-4h-1.38Z" transform="translate(0.14 0.14)" fill="#fff"/><path d="M622.93,593H619.1a2.35,2.35,0,0,1,.34-1.22,3.21,3.21,0,0,1,.9-.9l.56-.39a4.56,4.56,0,0,0,.55-.4,2.56,2.56,0,0,0,.41-.47A1.12,1.12,0,0,0,622,589a2,2,0,0,0,0-.33,1,1,0,0,0-.14-.32.76.76,0,0,0-.29-.24,1,1,0,0,0-.48-.11.88.88,0,0,0-.45.11.83.83,0,0,0-.29.3,1.43,1.43,0,0,0-.16.44,2.53,2.53,0,0,0-.06.56h-.91a2.93,2.93,0,0,1,.12-.86,1.91,1.91,0,0,1,.37-.69,1.83,1.83,0,0,1,.61-.45,1.92,1.92,0,0,1,.83-.17,2,2,0,0,1,.85.17,1.64,1.64,0,0,1,.56.43,1.56,1.56,0,0,1,.3.55,2.05,2.05,0,0,1,.09.58,1.74,1.74,0,0,1-.11.61,2.06,2.06,0,0,1-.28.5,2.63,2.63,0,0,1-.4.42l-.46.36-.48.32-.45.3a2.72,2.72,0,0,0-.35.32.91.91,0,0,0-.21.35h2.73Z" transform="translate(0.14 0.14)" fill="#fff"/><path d="M627.38,593h-3.83a2.35,2.35,0,0,1,.34-1.22,3.21,3.21,0,0,1,.9-.9l.57-.39a5.39,5.39,0,0,0,.54-.4,2.23,2.23,0,0,0,.41-.47,1.13,1.13,0,0,0,.17-.58,1.35,1.35,0,0,0,0-.33.83.83,0,0,0-.14-.32.76.76,0,0,0-.29-.24,1,1,0,0,0-.48-.11.88.88,0,0,0-.45.11.83.83,0,0,0-.29.3,1.75,1.75,0,0,0-.16.44,4.8,4.8,0,0,0-.06.56h-.91a2.93,2.93,0,0,1,.12-.86,1.91,1.91,0,0,1,.37-.69,1.83,1.83,0,0,1,.61-.45,2,2,0,0,1,.83-.17,1.92,1.92,0,0,1,.85.17,1.64,1.64,0,0,1,.56.43,1.56,1.56,0,0,1,.3.55,2.05,2.05,0,0,1,.09.58,2,2,0,0,1-.1.61,2.46,2.46,0,0,1-.28.5,3.25,3.25,0,0,1-.41.42c-.14.12-.3.24-.46.36l-.48.32c-.16.1-.31.2-.44.3a2.27,2.27,0,0,0-.36.32.91.91,0,0,0-.21.35h2.73Z" transform="translate(0.14 0.14)" fill="#fff"/><path d="M651.28,593h-3.83a2.34,2.34,0,0,1,.33-1.22,3.21,3.21,0,0,1,.9-.9l.57-.39a4.56,4.56,0,0,0,.55-.4,2.17,2.17,0,0,0,.4-.47,1,1,0,0,0,.17-.58,2,2,0,0,0,0-.33,1.3,1.3,0,0,0-.14-.32.76.76,0,0,0-.29-.24,1,1,0,0,0-.48-.11.89.89,0,0,0-.46.11.81.81,0,0,0-.28.3,1.21,1.21,0,0,0-.16.44,2.53,2.53,0,0,0-.06.56h-.92a2.63,2.63,0,0,1,.13-.86,1.77,1.77,0,0,1,.37-.69,1.79,1.79,0,0,1,.6-.45,2.18,2.18,0,0,1,1.69,0,1.74,1.74,0,0,1,.56.43,1.56,1.56,0,0,1,.3.55,2,2,0,0,1,.08.58,1.74,1.74,0,0,1-.1.61,2.06,2.06,0,0,1-.28.5,3.16,3.16,0,0,1-.4.42l-.46.36c-.16.11-.32.22-.49.32l-.44.3a2.27,2.27,0,0,0-.36.32.78.78,0,0,0-.2.35h2.73Z" transform="translate(0.14 0.14)" fill="#fff"/><path d="M653.41,589.67l.45,0a1.45,1.45,0,0,0,.4-.14.86.86,0,0,0,.29-.28.83.83,0,0,0,.11-.43.76.76,0,0,0-.25-.58.93.93,0,0,0-.63-.22.86.86,0,0,0-.41.1.83.83,0,0,0-.3.26,1.4,1.4,0,0,0-.17.37,1.51,1.51,0,0,0,0,.42h-.91a2.39,2.39,0,0,1,.15-.76,1.86,1.86,0,0,1,.38-.6,1.47,1.47,0,0,1,.57-.4,1.84,1.84,0,0,1,.76-.15,2.31,2.31,0,0,1,.64.1,1.89,1.89,0,0,1,.57.28,1.44,1.44,0,0,1,.41.47,1.38,1.38,0,0,1,.15.65,1.45,1.45,0,0,1-.19.74,1.09,1.09,0,0,1-.6.46v0a1.11,1.11,0,0,1,.74.48,1.7,1.7,0,0,1,.11,1.64,1.48,1.48,0,0,1-.43.53,1.91,1.91,0,0,1-.63.34,2.42,2.42,0,0,1-.76.12,2.28,2.28,0,0,1-.86-.14,1.68,1.68,0,0,1-.61-.39,1.83,1.83,0,0,1-.37-.62,2.53,2.53,0,0,1-.13-.8h.91a1.25,1.25,0,0,0,.25.85,1,1,0,0,0,.81.34,1.1,1.1,0,0,0,.76-.26,1.06,1.06,0,0,0,.18-1.26.84.84,0,0,0-.33-.29,1.21,1.21,0,0,0-.47-.12,3.21,3.21,0,0,0-.54,0Z" transform="translate(0.14 0.14)" fill="#fff"/><path d="M679.49,593h-3.83a2.35,2.35,0,0,1,.34-1.22,3.17,3.17,0,0,1,.89-.9l.57-.39a4.56,4.56,0,0,0,.55-.4,2.17,2.17,0,0,0,.4-.47,1,1,0,0,0,.17-.58,2,2,0,0,0,0-.33,1,1,0,0,0-.14-.32.76.76,0,0,0-.29-.24,1,1,0,0,0-.48-.11.88.88,0,0,0-.45.11.83.83,0,0,0-.29.3,1.43,1.43,0,0,0-.16.44,2.53,2.53,0,0,0-.06.56h-.92a2.63,2.63,0,0,1,.13-.86,1.77,1.77,0,0,1,.37-.69,1.83,1.83,0,0,1,.61-.45,1.9,1.9,0,0,1,.82-.17,2,2,0,0,1,.86.17,1.64,1.64,0,0,1,.56.43,1.56,1.56,0,0,1,.3.55,2.05,2.05,0,0,1,.09.58,1.74,1.74,0,0,1-.11.61,2.06,2.06,0,0,1-.28.5,3.16,3.16,0,0,1-.4.42l-.46.36-.48.32-.45.3a2.72,2.72,0,0,0-.35.32.72.72,0,0,0-.21.35h2.73Z" transform="translate(0.14 0.14)" fill="#fff"/><path d="M684,591.62h-.72V593h-.87v-1.33H680v-.9l2.4-3.37h.87v3.55H684Zm-3.28-.72h1.69v-2.46h0Z" transform="translate(0.14 0.14)" fill="#fff"/><path d="M2.26,551.39a3.43,3.43,0,0,0,.56,0,1.76,1.76,0,0,0,.49-.16,1.37,1.37,0,0,0,.38-.29.9.9,0,0,0,.2-.43h.75v5.6h-1v-3.95H2.26Z" transform="translate(0.14 0.14)" fill="#fff"/><path d="M6.78,527.72H3a2.23,2.23,0,0,1,.33-1.22,3.11,3.11,0,0,1,.9-.91c.18-.13.37-.26.57-.38a3.83,3.83,0,0,0,.54-.41,2,2,0,0,0,.41-.47,1.13,1.13,0,0,0,.17-.58,1.22,1.22,0,0,0,0-.32.77.77,0,0,0-.14-.32.85.85,0,0,0-.28-.25,1,1,0,0,0-.49-.1.88.88,0,0,0-.45.11.89.89,0,0,0-.29.29,1.83,1.83,0,0,0-.16.45,4.41,4.41,0,0,0-.06.55H3.06a2.63,2.63,0,0,1,.13-.86,1.8,1.8,0,0,1,.37-.68,1.61,1.61,0,0,1,.6-.46A2,2,0,0,1,5,522a2,2,0,0,1,.86.17,1.58,1.58,0,0,1,.55.42,1.33,1.33,0,0,1,.3.56,2,2,0,0,1,.09.57,1.7,1.7,0,0,1-.1.61,1.89,1.89,0,0,1-.28.5,3.16,3.16,0,0,1-.4.42,5.32,5.32,0,0,1-.47.36l-.48.32c-.16.1-.31.2-.44.3a2.91,2.91,0,0,0-.36.32,1,1,0,0,0-.21.35H6.78Z" transform="translate(0.14 0.14)" fill="#fff"/><path d="M4.47,496.09a2.28,2.28,0,0,0,.45,0,1.06,1.06,0,0,0,.4-.14.66.66,0,0,0,.28-.27.85.85,0,0,0-.13-1,.91.91,0,0,0-.63-.22.82.82,0,0,0-.42.1.8.8,0,0,0-.29.26,1.14,1.14,0,0,0-.17.37,1.16,1.16,0,0,0,0,.42H3a2.33,2.33,0,0,1,.15-.76,1.84,1.84,0,0,1,.37-.6,1.64,1.64,0,0,1,.57-.4,1.87,1.87,0,0,1,.76-.15,2.05,2.05,0,0,1,.65.1,1.89,1.89,0,0,1,.57.28,1.31,1.31,0,0,1,.4.47,1.36,1.36,0,0,1,.15.65,1.38,1.38,0,0,1-.19.74,1.14,1.14,0,0,1-.6.46v0a1.15,1.15,0,0,1,.75.47,1.57,1.57,0,0,1,.27.93,1.51,1.51,0,0,1-.16.71,1.63,1.63,0,0,1-.43.54,2.07,2.07,0,0,1-.64.34,2.37,2.37,0,0,1-.76.12,2.23,2.23,0,0,1-.85-.14,1.51,1.51,0,0,1-.61-.4,1.56,1.56,0,0,1-.37-.61,2.53,2.53,0,0,1-.14-.8h.92a1.26,1.26,0,0,0,.25.85,1,1,0,0,0,.8.34,1.18,1.18,0,0,0,.77-.26.93.93,0,0,0,.31-.74,1,1,0,0,0-.13-.52.79.79,0,0,0-.34-.29,1.36,1.36,0,0,0-.47-.13,4.64,4.64,0,0,0-.53,0Z" transform="translate(0.14 0.14)" fill="#fff"/><path d="M6.82,469.69H6.1V471H5.24v-1.33H2.84v-.9l2.4-3.37H6.1V469h.72ZM3.54,469h1.7v-2.46h0Z" transform="translate(0.14 0.14)" fill="#fff"/><path d="M3.63,437.07h2.9v.82H4.31L4,439.31l0,0a1.23,1.23,0,0,1,.47-.32,1.58,1.58,0,0,1,.56-.1,1.79,1.79,0,0,1,.75.14,1.53,1.53,0,0,1,.55.39,1.82,1.82,0,0,1,.34.59,2.27,2.27,0,0,1,.11.75,2.45,2.45,0,0,1-.1.69,2,2,0,0,1-.35.65,1.77,1.77,0,0,1-.6.48,1.87,1.87,0,0,1-.88.19,2.58,2.58,0,0,1-.76-.11,1.78,1.78,0,0,1-.61-.32,1.49,1.49,0,0,1-.42-.54,1.83,1.83,0,0,1-.18-.74h.92a1,1,0,0,0,.31.7,1,1,0,0,0,.72.25,1,1,0,0,0,.49-.1.82.82,0,0,0,.32-.26,1,1,0,0,0,.18-.39,2.44,2.44,0,0,0,0-.48,1.63,1.63,0,0,0-.06-.45,1.43,1.43,0,0,0-.19-.37,1,1,0,0,0-.34-.26,1.13,1.13,0,0,0-.47-.09,1.33,1.33,0,0,0-.54.1.72.72,0,0,0-.37.41H3Z" transform="translate(0.14 0.14)" fill="#fff"/><path d="M5.54,410.14a.81.81,0,0,0-.25-.55.74.74,0,0,0-.57-.22.85.85,0,0,0-.43.1.89.89,0,0,0-.3.24,1.33,1.33,0,0,0-.2.35c0,.13-.09.27-.13.41a3.18,3.18,0,0,0-.06.43c0,.14,0,.27,0,.4h0a1.2,1.2,0,0,1,.5-.5,1.54,1.54,0,0,1,.71-.16,1.78,1.78,0,0,1,.74.14,1.74,1.74,0,0,1,.56.4,1.82,1.82,0,0,1,.34.59,2.27,2.27,0,0,1,.12.75,2.13,2.13,0,0,1-.13.76,1.71,1.71,0,0,1-.38.6,1.65,1.65,0,0,1-.59.41,1.87,1.87,0,0,1-.76.14,1.91,1.91,0,0,1-1-.23,1.63,1.63,0,0,1-.63-.62,2.55,2.55,0,0,1-.31-.93,6.88,6.88,0,0,1-.09-1.15,4.55,4.55,0,0,1,.11-1,3.14,3.14,0,0,1,.35-.93,2,2,0,0,1,.65-.68,1.78,1.78,0,0,1,1-.27,1.61,1.61,0,0,1,.63.12,1.48,1.48,0,0,1,.53.31,1.62,1.62,0,0,1,.37.48,1.39,1.39,0,0,1,.16.62Zm-.88,3.54a.85.85,0,0,0,.43-.1.86.86,0,0,0,.31-.26,1.06,1.06,0,0,0,.18-.37,1.61,1.61,0,0,0,.06-.44,1.54,1.54,0,0,0-.06-.43,1,1,0,0,0-.18-.36,1,1,0,0,0-.31-.26,1,1,0,0,0-.43-.09,1,1,0,0,0-.44.09,1,1,0,0,0-.32.25,1.23,1.23,0,0,0-.19.36,1.61,1.61,0,0,0-.06.44,1.33,1.33,0,0,0,.25.82,1.14,1.14,0,0,0,.32.26A1,1,0,0,0,4.66,413.68Z" transform="translate(0.14 0.14)" fill="#fff"/><path d="M2.92,380.38H6.76v.76a9.8,9.8,0,0,0-.8,1,7.28,7.28,0,0,0-.63,1.13,8.13,8.13,0,0,0-.44,1.26A8.79,8.79,0,0,0,4.67,386h-1a6.54,6.54,0,0,1,.23-1.31,8.27,8.27,0,0,1,.46-1.26A9.7,9.7,0,0,1,5,382.24a9.31,9.31,0,0,1,.81-1H2.92Z" transform="translate(0.14 0.14)" fill="#fff"/><path d="M4.87,357.75a2.52,2.52,0,0,1-.79-.12,1.93,1.93,0,0,1-.63-.35,1.66,1.66,0,0,1-.41-.56,1.7,1.7,0,0,1-.15-.73,1.45,1.45,0,0,1,.28-.89,1.3,1.3,0,0,1,.75-.48v0a1.16,1.16,0,0,1-.59-.44,1.21,1.21,0,0,1-.2-.71,1.45,1.45,0,0,1,.45-1.13,1.91,1.91,0,0,1,1.29-.4,1.91,1.91,0,0,1,1.29.4,1.42,1.42,0,0,1,.46,1.13,1.21,1.21,0,0,1-.21.71,1.12,1.12,0,0,1-.59.44v0a1.3,1.3,0,0,1,.75.48,1.39,1.39,0,0,1,.28.89,1.7,1.7,0,0,1-.15.73,1.66,1.66,0,0,1-.41.56,1.93,1.93,0,0,1-.63.35A2.52,2.52,0,0,1,4.87,357.75Zm0-.72a1.1,1.1,0,0,0,.76-.27,1,1,0,0,0,.31-.77.94.94,0,0,0-.31-.73,1.15,1.15,0,0,0-.76-.26,1.15,1.15,0,0,0-.76.26.93.93,0,0,0-.3.73,1,1,0,0,0,.3.77A1.1,1.1,0,0,0,4.87,357Zm0-4.39a.91.91,0,0,0-.62.22.81.81,0,0,0-.26.64.75.75,0,0,0,.25.61.92.92,0,0,0,.63.21.92.92,0,0,0,.63-.21.75.75,0,0,0,.25-.61.8.8,0,0,0-.25-.64A.93.93,0,0,0,4.87,352.64Z" transform="translate(0.14 0.14)" fill="#fff"/><path d="M3.93,327.87a.94.94,0,0,0,.25.56.77.77,0,0,0,.57.21.85.85,0,0,0,.59-.19,1.31,1.31,0,0,0,.34-.49,2.53,2.53,0,0,0,.16-.63c0-.22.06-.42.07-.61h0a1.44,1.44,0,0,1-.51.5,1.51,1.51,0,0,1-.7.17,1.9,1.9,0,0,1-.73-.14,1.64,1.64,0,0,1-.55-.38,1.54,1.54,0,0,1-.36-.59,2.13,2.13,0,0,1-.13-.78,2.09,2.09,0,0,1,.13-.76,1.82,1.82,0,0,1,.37-.61,1.7,1.7,0,0,1,.61-.4,2.1,2.1,0,0,1,.82-.15,1.88,1.88,0,0,1,1,.23,1.61,1.61,0,0,1,.61.63,3,3,0,0,1,.31.93,7,7,0,0,1,.08,1.15,5,5,0,0,1-.1,1,3.16,3.16,0,0,1-.36.93,2.15,2.15,0,0,1-.65.69,1.75,1.75,0,0,1-1,.26,1.67,1.67,0,0,1-.63-.11,1.76,1.76,0,0,1-.53-.31A1.55,1.55,0,0,1,3,327.87Zm.88-3.54a1,1,0,0,0-.44.1.81.81,0,0,0-.3.25,1.16,1.16,0,0,0-.18.37,1.54,1.54,0,0,0-.06.43,1.56,1.56,0,0,0,.06.44,1.11,1.11,0,0,0,.18.38,1.08,1.08,0,0,0,.3.26,1,1,0,0,0,.44.1.93.93,0,0,0,.45-.1.86.86,0,0,0,.31-.26,1.13,1.13,0,0,0,.19-.38,1.56,1.56,0,0,0,.06-.44,1.54,1.54,0,0,0-.06-.43,1.18,1.18,0,0,0-.19-.37,1,1,0,0,0-.31-.25A1.06,1.06,0,0,0,4.81,324.33Z" transform="translate(0.14 0.14)" fill="#fff"/><path d="M2.26,296.27a3.43,3.43,0,0,0,.56,0,1.49,1.49,0,0,0,.49-.16,1.2,1.2,0,0,0,.38-.29.9.9,0,0,0,.2-.43h.75v5.6h-1V297H2.26Z" transform="translate(0.14 0.14)" fill="#fff"/><path d="M8.51,295.23a1.65,1.65,0,0,1,1,.27,1.87,1.87,0,0,1,.6.71,3.44,3.44,0,0,1,.29.94,6.78,6.78,0,0,1,.07,1,7,7,0,0,1-.07,1,3.55,3.55,0,0,1-.29.94,1.84,1.84,0,0,1-.6.7,1.65,1.65,0,0,1-1,.28,1.67,1.67,0,0,1-1-.28,1.91,1.91,0,0,1-.59-.7,3.22,3.22,0,0,1-.29-.94,7,7,0,0,1-.07-1,6.78,6.78,0,0,1,.07-1,3.13,3.13,0,0,1,.29-.94,1.94,1.94,0,0,1,.59-.71A1.67,1.67,0,0,1,8.51,295.23Zm0,5.07a.71.71,0,0,0,.5-.18,1.15,1.15,0,0,0,.32-.46,3.09,3.09,0,0,0,.16-.68,7.44,7.44,0,0,0,0-.84,7.26,7.26,0,0,0,0-.83,3.09,3.09,0,0,0-.16-.68,1.26,1.26,0,0,0-.32-.47.82.82,0,0,0-1,0,1.24,1.24,0,0,0-.31.47,2.61,2.61,0,0,0-.16.68,5.53,5.53,0,0,0,0,.83,5.66,5.66,0,0,0,0,.84,2.61,2.61,0,0,0,.16.68,1.13,1.13,0,0,0,.31.46A.71.71,0,0,0,8.51,300.3Z" transform="translate(0.14 0.14)" fill="#fff"/><path d="M2.26,267.92a2.59,2.59,0,0,0,.56-.05,1.49,1.49,0,0,0,.49-.16,1.34,1.34,0,0,0,.38-.28.94.94,0,0,0,.2-.44h.75v5.61h-1v-4H2.26Z" transform="translate(0.14 0.14)" fill="#fff"/><path d="M6.71,267.92a2.59,2.59,0,0,0,.56-.05,1.49,1.49,0,0,0,.49-.16,1.21,1.21,0,0,0,.38-.28,1,1,0,0,0,.21-.44h.74v5.61h-1v-4H6.71Z" transform="translate(0.14 0.14)" fill="#fff"/><path d="M2.26,239.58a3.43,3.43,0,0,0,.56-.05,1.76,1.76,0,0,0,.49-.16,1.37,1.37,0,0,0,.38-.29.9.9,0,0,0,.2-.43h.75v5.6h-1V240.3H2.26Z" transform="translate(0.14 0.14)" fill="#fff"/><path d="M10.43,244.25H6.6A2.2,2.2,0,0,1,6.94,243a3,3,0,0,1,.89-.91l.57-.39a4.56,4.56,0,0,0,.55-.4,2.17,2.17,0,0,0,.4-.47,1,1,0,0,0,.17-.58,2,2,0,0,0,0-.33,1,1,0,0,0-.14-.32.87.87,0,0,0-.29-.24,1,1,0,0,0-.48-.1.88.88,0,0,0-.45.1.83.83,0,0,0-.29.3,1.21,1.21,0,0,0-.16.44,2.53,2.53,0,0,0-.06.56H6.7a2.63,2.63,0,0,1,.13-.86,1.77,1.77,0,0,1,.37-.69,1.89,1.89,0,0,1,.6-.45,2.18,2.18,0,0,1,1.69,0,1.64,1.64,0,0,1,.56.43,1.56,1.56,0,0,1,.3.55,2.05,2.05,0,0,1,.09.58,1.74,1.74,0,0,1-.11.61,2.06,2.06,0,0,1-.28.5,3.16,3.16,0,0,1-.4.42l-.46.36-.48.32-.45.3a3.73,3.73,0,0,0-.36.32.78.78,0,0,0-.2.35h2.73Z" transform="translate(0.14 0.14)" fill="#fff"/><path d="M2.26,211.23a3.43,3.43,0,0,0,.56,0,1.49,1.49,0,0,0,.49-.16,1.2,1.2,0,0,0,.38-.29.86.86,0,0,0,.2-.43h.75v5.61h-1v-4H2.26Z" transform="translate(0.14 0.14)" fill="#fff"/><path d="M8.11,212.62a1.71,1.71,0,0,0,.45,0,1.26,1.26,0,0,0,.4-.14.86.86,0,0,0,.29-.28.81.81,0,0,0,.1-.43.72.72,0,0,0-.24-.57.88.88,0,0,0-.63-.22.76.76,0,0,0-.41.1.91.91,0,0,0-.3.25,1.56,1.56,0,0,0-.17.37,1.51,1.51,0,0,0,0,.42H6.64a2.27,2.27,0,0,1,.15-.75,2,2,0,0,1,.37-.61,1.72,1.72,0,0,1,.58-.4,2,2,0,0,1,.76-.14,2.3,2.3,0,0,1,.64.09,2.16,2.16,0,0,1,.57.28,1.39,1.39,0,0,1,.4.47,1.29,1.29,0,0,1,.16.66,1.41,1.41,0,0,1-.2.74,1.06,1.06,0,0,1-.6.46h0a1.21,1.21,0,0,1,.75.48,1.7,1.7,0,0,1,.11,1.64,1.74,1.74,0,0,1-.43.54,2.12,2.12,0,0,1-.63.34,2.42,2.42,0,0,1-.76.12,2.5,2.5,0,0,1-.86-.14,1.85,1.85,0,0,1-.61-.4,1.83,1.83,0,0,1-.37-.62,2.48,2.48,0,0,1-.13-.8h.91a1.28,1.28,0,0,0,.25.86,1,1,0,0,0,.81.34,1.17,1.17,0,0,0,.76-.26.91.91,0,0,0,.31-.74.87.87,0,0,0-.13-.52.89.89,0,0,0-.34-.3,1.55,1.55,0,0,0-.46-.12,4.87,4.87,0,0,0-.54,0Z" transform="translate(0.14 0.14)" fill="#fff"/><path d="M2.26,182.88a2.59,2.59,0,0,0,.56,0,1.49,1.49,0,0,0,.49-.16,1.34,1.34,0,0,0,.38-.28.94.94,0,0,0,.2-.44h.75v5.61h-1v-4H2.26Z" transform="translate(0.14 0.14)" fill="#fff"/><path d="M10.47,186.23H9.75v1.33H8.88v-1.33H6.48v-.91L8.88,182h.87v3.56h.72Zm-3.29-.72h1.7V183h0Z" transform="translate(0.14 0.14)" fill="#fff"/><path d="M2.26,154.54a3.43,3.43,0,0,0,.56,0,1.76,1.76,0,0,0,.49-.16,1.37,1.37,0,0,0,.38-.29.9.9,0,0,0,.2-.43h.75v5.6h-1v-4H2.26Z" transform="translate(0.14 0.14)" fill="#fff"/><path d="M7.27,153.61h2.9v.81H8l-.29,1.43,0,0a1.13,1.13,0,0,1,.47-.32,1.64,1.64,0,0,1,.56-.11,2,2,0,0,1,.75.14A1.57,1.57,0,0,1,10,156a1.77,1.77,0,0,1,.34.6,2.27,2.27,0,0,1,.12.75,2.48,2.48,0,0,1-.11.69,2,2,0,0,1-.35.65,1.82,1.82,0,0,1-.6.48,2,2,0,0,1-.88.18,2.68,2.68,0,0,1-.76-.1,1.89,1.89,0,0,1-.61-.33,1.46,1.46,0,0,1-.42-.53,1.87,1.87,0,0,1-.17-.74h.91a.94.94,0,0,0,1,.94,1.16,1.16,0,0,0,.49-.09.87.87,0,0,0,.33-.27,1,1,0,0,0,.17-.39,1.86,1.86,0,0,0,.05-.48,1.61,1.61,0,0,0-.06-.44,1.13,1.13,0,0,0-.19-.38,1,1,0,0,0-.33-.25,1.06,1.06,0,0,0-.48-.1,1.41,1.41,0,0,0-.54.11.7.7,0,0,0-.37.4H6.67Z" transform="translate(0.14 0.14)" fill="#fff"/><path d="M2.26,126.19a3.43,3.43,0,0,0,.56,0,1.49,1.49,0,0,0,.49-.16,1.2,1.2,0,0,0,.38-.29.86.86,0,0,0,.2-.43h.75v5.61h-1v-4H2.26Z" transform="translate(0.14 0.14)" fill="#fff"/><path d="M9.45,126.68a.87.87,0,0,0-.24-.56.81.81,0,0,0-.58-.21.93.93,0,0,0-.42.09.84.84,0,0,0-.31.25,1.27,1.27,0,0,0-.2.34,2.9,2.9,0,0,0-.12.42,2,2,0,0,0-.07.42c0,.15,0,.28,0,.4l0,0a1.12,1.12,0,0,1,.51-.5,1.51,1.51,0,0,1,.7-.17,1.75,1.75,0,0,1,.74.15,1.49,1.49,0,0,1,.56.39,1.79,1.79,0,0,1,.35.6,2.25,2.25,0,0,1,.12.74,2.28,2.28,0,0,1-.13.76,1.77,1.77,0,0,1-.39.61,1.62,1.62,0,0,1-.59.4,1.87,1.87,0,0,1-.76.15,2,2,0,0,1-1-.23,1.7,1.7,0,0,1-.63-.62,2.91,2.91,0,0,1-.31-.93,7,7,0,0,1-.09-1.15,5.05,5.05,0,0,1,.11-1A3.14,3.14,0,0,1,7,126.1a2.18,2.18,0,0,1,.66-.69,1.82,1.82,0,0,1,1-.26,1.91,1.91,0,0,1,.64.11,1.94,1.94,0,0,1,.52.31,1.72,1.72,0,0,1,.37.48,1.47,1.47,0,0,1,.16.63Zm-.88,3.54a.94.94,0,0,0,.43-.1,1.13,1.13,0,0,0,.31-.26,1.16,1.16,0,0,0,.18-.37,1.67,1.67,0,0,0,.06-.44,1.54,1.54,0,0,0-.06-.43,1.16,1.16,0,0,0-.18-.37.94.94,0,0,0-.74-.35.89.89,0,0,0-.44.1.92.92,0,0,0-.31.24,1.2,1.2,0,0,0-.2.37,1.56,1.56,0,0,0-.06.44,1.61,1.61,0,0,0,.06.44,1.2,1.2,0,0,0,.2.37.86.86,0,0,0,.31.26A.89.89,0,0,0,8.57,130.22Z" transform="translate(0.14 0.14)" fill="#fff"/><path d="M2.26,97.84a3.43,3.43,0,0,0,.56,0,1.77,1.77,0,0,0,.49-.17,1.34,1.34,0,0,0,.38-.28.89.89,0,0,0,.2-.44h.75v5.61h-1v-4H2.26Z" transform="translate(0.14 0.14)" fill="#fff"/><path d="M6.57,96.91H10.4v.76a12.43,12.43,0,0,0-.8,1A8.34,8.34,0,0,0,9,99.83a8.49,8.49,0,0,0-.43,1.26,8.9,8.9,0,0,0-.23,1.43h-1a6.54,6.54,0,0,1,.23-1.31A7.59,7.59,0,0,1,8,100a6.75,6.75,0,0,1,.66-1.17,12.08,12.08,0,0,1,.8-1H6.57Z" transform="translate(0.14 0.14)" fill="#fff"/><path d="M2.26,69.5a3.43,3.43,0,0,0,.56,0,1.76,1.76,0,0,0,.49-.16A1.37,1.37,0,0,0,3.69,69a.9.9,0,0,0,.2-.43h.75v5.6h-1v-4H2.26Z" transform="translate(0.14 0.14)" fill="#fff"/><path d="M8.51,74.29a2.56,2.56,0,0,1-.79-.12,1.79,1.79,0,0,1-.62-.35,1.65,1.65,0,0,1-.42-.56,1.75,1.75,0,0,1-.14-.74,1.42,1.42,0,0,1,.27-.88,1.38,1.38,0,0,1,.75-.49h0A1.23,1.23,0,0,1,7,70.69a1.25,1.25,0,0,1-.2-.7,1.45,1.45,0,0,1,.45-1.13,1.86,1.86,0,0,1,1.29-.4,1.89,1.89,0,0,1,1.3.4A1.45,1.45,0,0,1,10.26,70a1.18,1.18,0,0,1-.21.7,1.2,1.2,0,0,1-.58.45h0a1.38,1.38,0,0,1,.75.49,1.42,1.42,0,0,1,.27.88,1.75,1.75,0,0,1-.15.74,1.62,1.62,0,0,1-.41.56,1.84,1.84,0,0,1-.63.35A2.47,2.47,0,0,1,8.51,74.29Zm0-.72a1.09,1.09,0,0,0,.76-.28,1,1,0,0,0,.31-.77.87.87,0,0,0-.31-.72,1.13,1.13,0,0,0-.76-.26,1.17,1.17,0,0,0-.76.26.89.89,0,0,0-.3.72,1,1,0,0,0,.3.77A1.13,1.13,0,0,0,8.51,73.57Zm0-4.39a.91.91,0,0,0-.62.22.79.79,0,0,0-.26.63.8.8,0,0,0,.25.62,1.07,1.07,0,0,0,1.27,0A.8.8,0,0,0,9.39,70a.78.78,0,0,0-.25-.63A.91.91,0,0,0,8.51,69.18Z" transform="translate(0.14 0.14)" fill="#fff"/><path d="M2.26,41.15a3.43,3.43,0,0,0,.56,0,1.49,1.49,0,0,0,.49-.16,1.2,1.2,0,0,0,.38-.29.86.86,0,0,0,.2-.43h.75v5.61h-1v-4H2.26Z" transform="translate(0.14 0.14)" fill="#fff"/><path d="M7.58,44.41a.9.9,0,0,0,.24.56.77.77,0,0,0,.57.21A.84.84,0,0,0,9,45a1.23,1.23,0,0,0,.34-.49,2.46,2.46,0,0,0,.17-.62c0-.22,0-.43.06-.61v0a1.17,1.17,0,0,1-.51.5,1.37,1.37,0,0,1-.7.17,1.9,1.9,0,0,1-.73-.13,1.64,1.64,0,0,1-.55-.38,1.58,1.58,0,0,1-.36-.6A2.13,2.13,0,0,1,6.56,42a2,2,0,0,1,.13-.75,1.64,1.64,0,0,1,.37-.61,1.73,1.73,0,0,1,.61-.41,2.35,2.35,0,0,1,.82-.14,2,2,0,0,1,1,.23,1.7,1.7,0,0,1,.6.62,2.89,2.89,0,0,1,.31.94A6.76,6.76,0,0,1,10.47,43a5.05,5.05,0,0,1-.11,1A2.91,2.91,0,0,1,10,45a1.93,1.93,0,0,1-.65.68,1.76,1.76,0,0,1-1,.27,1.9,1.9,0,0,1-.63-.11,1.62,1.62,0,0,1-.52-.32A1.5,1.5,0,0,1,6.82,45a1.53,1.53,0,0,1-.16-.62Zm.87-3.54A.94.94,0,0,0,8,41a.86.86,0,0,0-.31.25,1.16,1.16,0,0,0-.18.37,1.64,1.64,0,0,0,0,.88,1.06,1.06,0,0,0,.18.37.79.79,0,0,0,.31.26.83.83,0,0,0,.43.1,1.06,1.06,0,0,0,.45-.09.88.88,0,0,0,.31-.26,1,1,0,0,0,.19-.38,1.42,1.42,0,0,0,0-.88.89.89,0,0,0-.19-.36A.76.76,0,0,0,8.9,41,.93.93,0,0,0,8.45,40.87Z" transform="translate(0.14 0.14)" fill="#fff"/><path d="M6.78,17.48H3a2.25,2.25,0,0,1,.33-1.22,3.09,3.09,0,0,1,.9-.9L4.76,15a4.73,4.73,0,0,0,.54-.4,2.23,2.23,0,0,0,.41-.47,1.16,1.16,0,0,0,.17-.58,1.29,1.29,0,0,0,0-.33.83.83,0,0,0-.14-.32.85.85,0,0,0-.28-.25,1.15,1.15,0,0,0-.49-.1.88.88,0,0,0-.45.11.84.84,0,0,0-.29.3,1.62,1.62,0,0,0-.16.44,4.63,4.63,0,0,0-.06.55H3.06a2.67,2.67,0,0,1,.13-.86,1.8,1.8,0,0,1,.37-.68,1.69,1.69,0,0,1,.6-.45A2,2,0,0,1,5,11.76a2,2,0,0,1,.86.17,1.49,1.49,0,0,1,.55.43,1.3,1.3,0,0,1,.3.55,2,2,0,0,1,.09.57,1.66,1.66,0,0,1-.1.61,1.89,1.89,0,0,1-.28.5A2.28,2.28,0,0,1,6,15a5.32,5.32,0,0,1-.47.36c-.16.12-.32.22-.48.32L4.62,16a2.27,2.27,0,0,0-.36.32.88.88,0,0,0-.21.34H6.78Z" transform="translate(0.14 0.14)" fill="#fff"/><path d="M9.32,11.76a1.65,1.65,0,0,1,1,.28,1.84,1.84,0,0,1,.6.7,3.21,3.21,0,0,1,.28.94,5.85,5.85,0,0,1,.08,1,5.66,5.66,0,0,1-.08,1,3.12,3.12,0,0,1-.28.94,1.87,1.87,0,0,1-.6.71,1.65,1.65,0,0,1-1,.27,1.67,1.67,0,0,1-1-.27,1.94,1.94,0,0,1-.59-.71,3.13,3.13,0,0,1-.29-.94,6.83,6.83,0,0,1-.08-1,7.07,7.07,0,0,1,.08-1,3.22,3.22,0,0,1,.29-.94,1.91,1.91,0,0,1,.59-.7A1.67,1.67,0,0,1,9.32,11.76Zm0,5.07a.76.76,0,0,0,.5-.17,1.26,1.26,0,0,0,.32-.47,3,3,0,0,0,.16-.68,7.26,7.26,0,0,0,0-.83,7.12,7.12,0,0,0,0-.83,3.19,3.19,0,0,0-.16-.69,1.22,1.22,0,0,0-.32-.46.78.78,0,0,0-1,0,1.2,1.2,0,0,0-.31.46,2.69,2.69,0,0,0-.16.69,5.45,5.45,0,0,0,0,.83,5.53,5.53,0,0,0,0,.83,2.52,2.52,0,0,0,.16.68,1.24,1.24,0,0,0,.31.47A.76.76,0,0,0,9.32,16.83Z" transform="translate(0.14 0.14)" fill="#fff"/><path d="M5.72,578.6a1.58,1.58,0,0,1,1,.28,1.91,1.91,0,0,1,.59.7,3.22,3.22,0,0,1,.29.94,6.83,6.83,0,0,1,.08,1,7,7,0,0,1-.08,1,3.22,3.22,0,0,1-.29.94,1.91,1.91,0,0,1-.59.7,1.58,1.58,0,0,1-1,.28,1.58,1.58,0,0,1-1-.28,1.91,1.91,0,0,1-.59-.7,3.22,3.22,0,0,1-.29-.94,7,7,0,0,1-.08-1,6.83,6.83,0,0,1,.08-1,3.22,3.22,0,0,1,.29-.94,1.91,1.91,0,0,1,.59-.7A1.58,1.58,0,0,1,5.72,578.6Zm0,5.07a.78.78,0,0,0,.5-.17,1.14,1.14,0,0,0,.31-.47,2.93,2.93,0,0,0,.17-.68,7.39,7.39,0,0,0,0-.84,7,7,0,0,0,0-.82,3.17,3.17,0,0,0-.17-.69,1.14,1.14,0,0,0-.31-.47.78.78,0,0,0-.5-.17.76.76,0,0,0-.5.17,1.14,1.14,0,0,0-.31.47,3.17,3.17,0,0,0-.17.69,7,7,0,0,0,0,.82,7.39,7.39,0,0,0,0,.84,2.93,2.93,0,0,0,.17.68,1.14,1.14,0,0,0,.31.47A.76.76,0,0,0,5.72,583.67Z" transform="translate(0.14 0.14)" fill="#fff"/><path d="M703.46,593h-3.83a2.35,2.35,0,0,1,.34-1.22,3.21,3.21,0,0,1,.9-.9l.57-.39a5.39,5.39,0,0,0,.54-.4,2.23,2.23,0,0,0,.41-.47,1.13,1.13,0,0,0,.17-.58,1.35,1.35,0,0,0,0-.33.83.83,0,0,0-.14-.32.7.7,0,0,0-.29-.24,1,1,0,0,0-.48-.11.88.88,0,0,0-.45.11.83.83,0,0,0-.29.3,1.75,1.75,0,0,0-.16.44,4.8,4.8,0,0,0-.06.56h-.91a2.93,2.93,0,0,1,.12-.86,1.91,1.91,0,0,1,.37-.69,1.83,1.83,0,0,1,.61-.45,2,2,0,0,1,.83-.17,1.92,1.92,0,0,1,.85.17,1.64,1.64,0,0,1,.56.43,1.56,1.56,0,0,1,.3.55,2.05,2.05,0,0,1,.09.58,2,2,0,0,1-.1.61,2.46,2.46,0,0,1-.28.5,3.25,3.25,0,0,1-.41.42c-.14.12-.3.24-.46.36l-.48.32c-.16.1-.31.2-.44.3a2.27,2.27,0,0,0-.36.32.91.91,0,0,0-.21.35h2.73Z" transform="translate(0.14 0.14)" fill="#fff"/><path d="M704.76,587.35h2.9v.81h-2.22l-.29,1.43,0,0a1.13,1.13,0,0,1,.47-.32,1.59,1.59,0,0,1,.56-.11,1.88,1.88,0,0,1,.74.14,1.49,1.49,0,0,1,.56.39,1.77,1.77,0,0,1,.34.6,2.25,2.25,0,0,1,.11.74,2.47,2.47,0,0,1-.1.7,2.16,2.16,0,0,1-.35.65,2,2,0,0,1-.6.48,2,2,0,0,1-.88.18,2.59,2.59,0,0,1-.76-.1,1.8,1.8,0,0,1-.61-.33,1.46,1.46,0,0,1-.42-.53,1.72,1.72,0,0,1-.18-.74H705a1,1,0,0,0,.31.7,1,1,0,0,0,.72.24,1.22,1.22,0,0,0,.49-.09.84.84,0,0,0,.32-.27,1,1,0,0,0,.18-.39,2.44,2.44,0,0,0,0-.48,1.61,1.61,0,0,0-.06-.44,1.15,1.15,0,0,0-.2-.38.85.85,0,0,0-.33-.25,1,1,0,0,0-.47-.1,1.33,1.33,0,0,0-.54.11.7.7,0,0,0-.37.4h-.91Z" transform="translate(0.14 0.14)" fill="#fff"/><path d="M377.71,502.59a8,8,0,0,1,3.44.72,7.6,7.6,0,0,1,2.58,1.95,8.78,8.78,0,0,1,1.62,2.85,10.85,10.85,0,0,1,0,6.94,8.67,8.67,0,0,1-1.62,2.85,7.45,7.45,0,0,1-2.58,1.94,8.71,8.71,0,0,1-6.89,0,7.64,7.64,0,0,1-2.58-1.94,8.67,8.67,0,0,1-1.62-2.85,11,11,0,0,1,0-6.94,8.78,8.78,0,0,1,1.62-2.85,7.8,7.8,0,0,1,2.58-1.95A8,8,0,0,1,377.71,502.59Zm0,2.45a4.94,4.94,0,0,0-2.37.55,4.7,4.7,0,0,0-1.62,1.48,6.87,6.87,0,0,0-.92,2.1,9.75,9.75,0,0,0,0,4.8,6.87,6.87,0,0,0,.92,2.1,4.7,4.7,0,0,0,1.62,1.48,4.94,4.94,0,0,0,2.37.55,4.87,4.87,0,0,0,2.36-.55,4.7,4.7,0,0,0,1.62-1.48,6.64,6.64,0,0,0,.92-2.1,9.45,9.45,0,0,0,0-4.8,6.64,6.64,0,0,0-.92-2.1,4.7,4.7,0,0,0-1.62-1.48A4.87,4.87,0,0,0,377.71,505Z" transform="translate(0.14 0.14)" fill="#fff"/><path d="M388.65,503h8.18a6.32,6.32,0,0,1,4.25,1.23,4.23,4.23,0,0,1,1.42,3.4,5,5,0,0,1-.36,2,4.42,4.42,0,0,1-.84,1.3,3.4,3.4,0,0,1-.95.71c-.31.14-.54.23-.68.28V512a2.88,2.88,0,0,1,.82.24,2.38,2.38,0,0,1,.83.61,3.38,3.38,0,0,1,.64,1.09,4.82,4.82,0,0,1,.25,1.69,15.32,15.32,0,0,0,.23,2.74,3.59,3.59,0,0,0,.71,1.77h-3.22a2.88,2.88,0,0,1-.4-1.23c0-.44-.06-.88-.06-1.29a12,12,0,0,0-.14-2,3.57,3.57,0,0,0-.53-1.42,2.18,2.18,0,0,0-1-.82,4.53,4.53,0,0,0-1.69-.27h-4.42v7.06h-3Zm3,7.8h4.92a3.17,3.17,0,0,0,2.19-.68,2.68,2.68,0,0,0,.74-2.05,3.21,3.21,0,0,0-.24-1.34,1.94,1.94,0,0,0-.66-.8,2.39,2.39,0,0,0-1-.38,5.83,5.83,0,0,0-1.12-.1h-4.87Z" transform="translate(0.14 0.14)" fill="#fff"/><path d="M405.55,503h3v17.14h-3Z" transform="translate(0.14 0.14)" fill="#fff"/><path d="M427.17,520.14h-1.92l-.46-2a7.15,7.15,0,0,1-2.4,1.9,6.83,6.83,0,0,1-2.76.53,8.11,8.11,0,0,1-3.44-.71,7.45,7.45,0,0,1-2.58-1.94,8.67,8.67,0,0,1-1.62-2.85,11,11,0,0,1,0-6.94,8.78,8.78,0,0,1,1.62-2.85,7.6,7.6,0,0,1,2.58-1.95,8,8,0,0,1,3.44-.72,9.3,9.3,0,0,1,2.66.38,6.89,6.89,0,0,1,2.24,1.1,6.1,6.1,0,0,1,1.63,1.83,6.49,6.49,0,0,1,.82,2.55h-2.93a3.73,3.73,0,0,0-1.51-2.55,4.42,4.42,0,0,0-1.35-.64,5.3,5.3,0,0,0-1.56-.22,4.87,4.87,0,0,0-2.36.55,4.7,4.7,0,0,0-1.62,1.48,6.64,6.64,0,0,0-.92,2.1,9.75,9.75,0,0,0,0,4.8,6.64,6.64,0,0,0,.92,2.1,4.7,4.7,0,0,0,1.62,1.48,4.87,4.87,0,0,0,2.36.55,5.84,5.84,0,0,0,2-.3,3.91,3.91,0,0,0,2.43-2.44,6.11,6.11,0,0,0,.33-2h-4.56v-2.28h7.3Z" transform="translate(0.14 0.14)" fill="#fff"/><path d="M430.43,503h3v17.14h-3Z" transform="translate(0.14 0.14)" fill="#fff"/><path d="M437,503h3.16L448,515.63h0V503h2.85v17.14h-3.17l-7.8-12.6h-.07v12.6H437Z" transform="translate(0.14 0.14)" fill="#fff"/><path d="M459,503h3.19l6.6,17.14h-3.22L464,515.6h-6.84l-1.61,4.54h-3.1ZM458,513.32h5.23L460.63,506h-.08Z" transform="translate(0.14 0.14)" fill="#fff"/><path d="M470.44,503h3v14.55h8.71v2.59H470.44Z" transform="translate(0.14 0.14)" fill="#fff"/><path d="M490.89,503h7.56a7.15,7.15,0,0,1,3,.53,4.61,4.61,0,0,1,1.78,1.32,4.38,4.38,0,0,1,.85,1.73,6.93,6.93,0,0,1,.23,1.73,6.78,6.78,0,0,1-.23,1.71,4.4,4.4,0,0,1-.85,1.72,4.59,4.59,0,0,1-1.78,1.31,7.34,7.34,0,0,1-3,.51h-4.56v6.58h-3Zm3,8.11h4.39a3.7,3.7,0,0,0,1-.14,3,3,0,0,0,1-.47,2.45,2.45,0,0,0,.72-.86,3,3,0,0,0,.27-1.36,3.5,3.5,0,0,0-.24-1.39,2.18,2.18,0,0,0-.65-.88,2.35,2.35,0,0,0-.93-.44,5.09,5.09,0,0,0-1.13-.12h-4.44Z" transform="translate(0.14 0.14)" fill="#fff"/><path d="M506.9,503h8.18a6.34,6.34,0,0,1,4.25,1.23,4.26,4.26,0,0,1,1.42,3.4,4.78,4.78,0,0,1-.37,2,4.41,4.41,0,0,1-.83,1.3,3.55,3.55,0,0,1-.95.71c-.31.14-.54.23-.69.28V512a2.94,2.94,0,0,1,.83.24,2.47,2.47,0,0,1,.83.61,3.38,3.38,0,0,1,.64,1.09,5.06,5.06,0,0,1,.25,1.69,15.36,15.36,0,0,0,.22,2.74,3.68,3.68,0,0,0,.71,1.77h-3.21a2.75,2.75,0,0,1-.4-1.23c0-.44-.06-.88-.06-1.29a13.09,13.09,0,0,0-.14-2,3.72,3.72,0,0,0-.53-1.42,2.23,2.23,0,0,0-1-.82,4.59,4.59,0,0,0-1.7-.27H509.9v7.06h-3Zm3,7.8h4.92a3.13,3.13,0,0,0,2.18-.68,2.64,2.64,0,0,0,.75-2.05,3.21,3.21,0,0,0-.24-1.34,2,2,0,0,0-.67-.8,2.33,2.33,0,0,0-1-.38,5.73,5.73,0,0,0-1.11-.1H509.9Z" transform="translate(0.14 0.14)" fill="#fff"/><path d="M523.6,503h3v10c0,.58,0,1.17.08,1.76a4,4,0,0,0,.49,1.59,3,3,0,0,0,1.2,1.17,5.93,5.93,0,0,0,4.53,0,3,3,0,0,0,1.2-1.17,3.94,3.94,0,0,0,.48-1.59,17.44,17.44,0,0,0,.09-1.76V503h3v11a7.48,7.48,0,0,1-.51,2.88,5.38,5.38,0,0,1-1.43,2,5.87,5.87,0,0,1-2.22,1.24,10.32,10.32,0,0,1-5.76,0,6,6,0,0,1-2.22-1.24,5.47,5.47,0,0,1-1.42-2,7.48,7.48,0,0,1-.51-2.88Z" transform="translate(0.14 0.14)" fill="#fff"/><path d="M543.09,514.43a3.93,3.93,0,0,0,.33,1.68,3.17,3.17,0,0,0,.94,1.14,4,4,0,0,0,1.38.64,6.47,6.47,0,0,0,1.69.21,5.45,5.45,0,0,0,1.68-.23,3.34,3.34,0,0,0,1.13-.59,2,2,0,0,0,.62-.83,2.41,2.41,0,0,0,.2-.94,2,2,0,0,0-.45-1.46,2.54,2.54,0,0,0-1-.66c-.61-.22-1.32-.43-2.12-.63s-1.81-.46-3-.78a6.41,6.41,0,0,1-1.84-.76,4.38,4.38,0,0,1-1.16-1,3.63,3.63,0,0,1-.61-1.23,4.89,4.89,0,0,1-.18-1.32,4.45,4.45,0,0,1,.54-2.24,4.68,4.68,0,0,1,1.43-1.57,6.18,6.18,0,0,1,2-.93,8.81,8.81,0,0,1,2.28-.3,9,9,0,0,1,2.53.35,6.3,6.3,0,0,1,2.09,1,5.17,5.17,0,0,1,1.43,1.72,5.11,5.11,0,0,1,.53,2.37h-3a2.88,2.88,0,0,0-1.13-2.34,4.45,4.45,0,0,0-2.57-.69,5.82,5.82,0,0,0-1.08.11,3.37,3.37,0,0,0-1,.36,2.22,2.22,0,0,0-.75.68,1.86,1.86,0,0,0-.3,1.08,1.82,1.82,0,0,0,.56,1.43,3.54,3.54,0,0,0,1.48.78l.75.21,1.48.39,1.59.42,1.12.3a5.1,5.1,0,0,1,1.46.72,4.55,4.55,0,0,1,1.05,1.05,4.11,4.11,0,0,1,.62,1.26,4.41,4.41,0,0,1,.21,1.34,4.87,4.87,0,0,1-.59,2.46,5.06,5.06,0,0,1-1.55,1.67,6.81,6.81,0,0,1-2.18,1,11,11,0,0,1-2.5.3,10.23,10.23,0,0,1-2.76-.36,6.63,6.63,0,0,1-2.26-1.11,5.37,5.37,0,0,1-1.53-1.91,6.15,6.15,0,0,1-.6-2.74Z" transform="translate(0.14 0.14)" fill="#fff"/><path d="M561.26,503h3.19l6.6,17.14h-3.22l-1.61-4.54h-6.84l-1.6,4.54h-3.1Zm-1.06,10.32h5.23L562.86,506h-.07Z" transform="translate(0.14 0.14)" fill="#fff"/><path d="M579,503h2.74v2.59H579Zm0,4.73h2.74v12.41H579Z" transform="translate(0.14 0.14)" fill="#fff"/><path d="M588.78,510.3a6.82,6.82,0,0,0,1.35-.1,3.71,3.71,0,0,0,1.2-.42,2.33,2.33,0,0,0,.85-.83,2.38,2.38,0,0,0,.32-1.29,2.19,2.19,0,0,0-.73-1.73,2.74,2.74,0,0,0-1.88-.65,2.59,2.59,0,0,0-1.25.29,2.63,2.63,0,0,0-.88.78,3.57,3.57,0,0,0-.51,1.1,4.44,4.44,0,0,0-.15,1.26h-2.73a7,7,0,0,1,.45-2.27,6.06,6.06,0,0,1,1.12-1.81,4.93,4.93,0,0,1,1.72-1.2,5.87,5.87,0,0,1,2.28-.43,6.69,6.69,0,0,1,1.93.29,5.51,5.51,0,0,1,1.7.84,4.08,4.08,0,0,1,1.21,1.4,4,4,0,0,1,.46,2,4.13,4.13,0,0,1-.58,2.22,3.28,3.28,0,0,1-1.8,1.38v.05a3.49,3.49,0,0,1,2.25,1.43,4.72,4.72,0,0,1,.8,2.77,4.65,4.65,0,0,1-.48,2.14,4.84,4.84,0,0,1-1.29,1.61,6.09,6.09,0,0,1-1.9,1,7.71,7.71,0,0,1-4.84-.06,4.88,4.88,0,0,1-1.82-1.19,5.12,5.12,0,0,1-1.12-1.84,7.54,7.54,0,0,1-.4-2.4h2.73a3.78,3.78,0,0,0,.76,2.55,2.87,2.87,0,0,0,2.41,1,3.42,3.42,0,0,0,2.29-.78,2.74,2.74,0,0,0,.93-2.22,2.77,2.77,0,0,0-.39-1.56,2.44,2.44,0,0,0-1-.87,3.85,3.85,0,0,0-1.4-.37,12.06,12.06,0,0,0-1.6,0Z" transform="translate(0.14 0.14)" fill="#fff"/><path d="M548.43,531.91h2.06v4.75h0a3.05,3.05,0,0,1,.52-.61,3.13,3.13,0,0,1,.68-.46,3.58,3.58,0,0,1,.77-.29,3.19,3.19,0,0,1,.8-.1,4.42,4.42,0,0,1,1.92.39,3.77,3.77,0,0,1,1.36,1.06,4.64,4.64,0,0,1,.81,1.58,6.65,6.65,0,0,1,.27,1.92,6.89,6.89,0,0,1-.24,1.82,4.89,4.89,0,0,1-.74,1.56,3.57,3.57,0,0,1-3,1.48,7.57,7.57,0,0,1-.95-.06,3.93,3.93,0,0,1-.91-.24,3.06,3.06,0,0,1-.78-.47,2.28,2.28,0,0,1-.59-.76h0v1.28h-2Zm7.17,8.21a5.06,5.06,0,0,0-.16-1.23,3.27,3.27,0,0,0-.49-1,2.6,2.6,0,0,0-.81-.74,2.17,2.17,0,0,0-1.12-.28,2.26,2.26,0,0,0-1.95.9,4,4,0,0,0-.66,2.4,4.54,4.54,0,0,0,.18,1.3,2.89,2.89,0,0,0,.51,1,2.69,2.69,0,0,0,.82.68,2.26,2.26,0,0,0,1.1.25,2.21,2.21,0,0,0,1.19-.29,2.47,2.47,0,0,0,.8-.74,3.09,3.09,0,0,0,.45-1.05A5.3,5.3,0,0,0,555.6,540.12Z" transform="translate(0.14 0.14)" fill="#fff"/><path d="M558.35,535.45h2.25L563,542.4h0l2.36-6.95h2.14l-3.64,9.81c-.17.42-.33.83-.49,1.21a4.62,4.62,0,0,1-.59,1,2.61,2.61,0,0,1-.87.7,3,3,0,0,1-1.32.26,9.73,9.73,0,0,1-1.43-.11v-1.73l.49.08a2.63,2.63,0,0,0,.49,0,1.66,1.66,0,0,0,.59-.09,1,1,0,0,0,.39-.26,1.69,1.69,0,0,0,.26-.41,3.65,3.65,0,0,0,.2-.54l.23-.72Z" transform="translate(0.14 0.14)" fill="#fff"/><path d="M580.94,540.62a9.81,9.81,0,0,1-.14,1.64,3.52,3.52,0,0,1-.59,1.42,3,3,0,0,1-1.28,1,5.47,5.47,0,0,1-2.22.38,4.33,4.33,0,0,1-1.74-.32,3.29,3.29,0,0,1-1.19-.86,3.57,3.57,0,0,1-.69-1.31,6.08,6.08,0,0,1-.21-1.64v-.68h2.25v.67a3.25,3.25,0,0,0,.37,1.7,1.49,1.49,0,0,0,1.39.6,2.08,2.08,0,0,0,.89-.16,1.31,1.31,0,0,0,.56-.48,2,2,0,0,0,.28-.78,6.81,6.81,0,0,0,.07-1.06v-8.84h2.25Z" transform="translate(0.14 0.14)" fill="#fff"/><path d="M587.66,545a5,5,0,0,1-2-.37,4.1,4.1,0,0,1-1.48-1,4.46,4.46,0,0,1-.92-1.55,6,6,0,0,1-.31-2,5.88,5.88,0,0,1,.31-2,4.37,4.37,0,0,1,.92-1.55,4.25,4.25,0,0,1,1.48-1,5.51,5.51,0,0,1,4,0,4.25,4.25,0,0,1,1.48,1,4.37,4.37,0,0,1,.92,1.55,5.88,5.88,0,0,1,.31,2,6,6,0,0,1-.31,2,4.46,4.46,0,0,1-.92,1.55,4.1,4.1,0,0,1-1.48,1A5,5,0,0,1,587.66,545Zm0-1.62a2.25,2.25,0,0,0,1.18-.29,2.4,2.4,0,0,0,.83-.75,3.2,3.2,0,0,0,.48-1.06,4.73,4.73,0,0,0,.15-1.19,4.85,4.85,0,0,0-.15-1.19,3,3,0,0,0-.48-1,2.4,2.4,0,0,0-.83-.75,2.57,2.57,0,0,0-2.37,0,2.49,2.49,0,0,0-.83.75,3,3,0,0,0-.48,1,4.85,4.85,0,0,0-.15,1.19,4.73,4.73,0,0,0,.15,1.19,3.2,3.2,0,0,0,.48,1.06,2.49,2.49,0,0,0,.83.75A2.26,2.26,0,0,0,587.66,543.39Z" transform="translate(0.14 0.14)" fill="#fff"/><path d="M595.61,541.77a1.54,1.54,0,0,0,.69,1.26,2.68,2.68,0,0,0,1.42.36,5.25,5.25,0,0,0,.65,0,3.12,3.12,0,0,0,.7-.17,1.45,1.45,0,0,0,.53-.37,1,1,0,0,0-.1-1.29,2.11,2.11,0,0,0-.69-.41,9,9,0,0,0-1-.26l-1.09-.23a9,9,0,0,1-1.11-.31,3.75,3.75,0,0,1-1-.48A2.34,2.34,0,0,1,594,539a2.44,2.44,0,0,1-.25-1.17,2.08,2.08,0,0,1,.37-1.27,2.66,2.66,0,0,1,.93-.83,4,4,0,0,1,1.26-.44,6.88,6.88,0,0,1,1.33-.13,6.12,6.12,0,0,1,1.37.15,3.84,3.84,0,0,1,1.19.5,2.88,2.88,0,0,1,.88.89,3,3,0,0,1,.44,1.32h-2.14a1.27,1.27,0,0,0-.67-1,3,3,0,0,0-1.22-.25,3.44,3.44,0,0,0-.51,0,2.42,2.42,0,0,0-.56.13,1.21,1.21,0,0,0-.44.29.7.7,0,0,0-.18.5.8.8,0,0,0,.26.61,2.14,2.14,0,0,0,.69.38,6.55,6.55,0,0,0,1,.27l1.12.23a9.92,9.92,0,0,1,1.1.31,3.66,3.66,0,0,1,1,.48,2.47,2.47,0,0,1,.69.78,2.36,2.36,0,0,1,.26,1.15,2.5,2.5,0,0,1-.38,1.4,2.94,2.94,0,0,1-1,.94,4.68,4.68,0,0,1-1.35.52,6.66,6.66,0,0,1-1.46.16,6.44,6.44,0,0,1-1.63-.2,3.79,3.79,0,0,1-1.3-.6,2.91,2.91,0,0,1-.87-1,3.18,3.18,0,0,1-.33-1.43Z" transform="translate(0.14 0.14)" fill="#fff"/><path d="M605,540.64a3.58,3.58,0,0,0,.15,1,2.54,2.54,0,0,0,.46.88,2.11,2.11,0,0,0,.77.61,2.6,2.6,0,0,0,1.12.22A2.46,2.46,0,0,0,609,543a2.27,2.27,0,0,0,.82-1.16h1.94a3.71,3.71,0,0,1-.56,1.35,3.78,3.78,0,0,1-.95,1,3.93,3.93,0,0,1-1.25.61,5,5,0,0,1-1.45.21,4.9,4.9,0,0,1-1.94-.36,3.91,3.91,0,0,1-1.44-1,4.25,4.25,0,0,1-.88-1.54,6.23,6.23,0,0,1-.29-2,5.68,5.68,0,0,1,.31-1.89,4.83,4.83,0,0,1,.9-1.56,4.23,4.23,0,0,1,3.29-1.47,4.15,4.15,0,0,1,2,.46,4.4,4.4,0,0,1,1.45,1.22,4.87,4.87,0,0,1,.83,1.73,5.31,5.31,0,0,1,.14,2Zm4.79-1.35a3.67,3.67,0,0,0-.21-.94,2.54,2.54,0,0,0-.47-.78,2.43,2.43,0,0,0-.72-.54,2.09,2.09,0,0,0-.94-.21,2.43,2.43,0,0,0-1,.19,2.34,2.34,0,0,0-.75.52,2.68,2.68,0,0,0-.51.79,2.8,2.8,0,0,0-.2,1Z" transform="translate(0.14 0.14)" fill="#fff"/><path d="M612.5,535.45H614v-.77a4,4,0,0,1,.22-1.43,2,2,0,0,1,.58-.85,1.79,1.79,0,0,1,.82-.39,4.22,4.22,0,0,1,1-.1A6.16,6.16,0,0,1,618,532v1.61a2.59,2.59,0,0,0-.42-.09l-.53,0a1.22,1.22,0,0,0-.72.2.88.88,0,0,0-.29.77v1h1.74V537h-1.74v7.78H614V537H612.5Z" transform="translate(0.14 0.14)" fill="#fff"/><path d="M624.38,531.91h5.67a5.47,5.47,0,0,1,2.23.39,3.68,3.68,0,0,1,1.33,1,3.51,3.51,0,0,1,.64,1.3,5.74,5.74,0,0,1,.17,1.3,5.57,5.57,0,0,1-.17,1.28,3.55,3.55,0,0,1-.64,1.29,3.45,3.45,0,0,1-1.33,1,5.47,5.47,0,0,1-2.23.39h-3.42v4.93h-2.25Zm2.25,6.08h3.29a2.61,2.61,0,0,0,.77-.11,2.14,2.14,0,0,0,.73-.35,1.83,1.83,0,0,0,.54-.65,2.16,2.16,0,0,0,.21-1,2.67,2.67,0,0,0-.18-1,1.7,1.7,0,0,0-1.19-1,3.73,3.73,0,0,0-.84-.09h-3.33Z" transform="translate(0.14 0.14)" fill="#fff"/><path d="M636.09,535.45H638v1.8h0a2,2,0,0,1,.36-.73,3.26,3.26,0,0,1,.63-.66,3,3,0,0,1,.81-.48,2.47,2.47,0,0,1,.92-.18l.5,0,.28,0v2l-.44-.06a3.39,3.39,0,0,0-.45,0,2.25,2.25,0,0,0-1.78.81,3,3,0,0,0-.54,1,4.44,4.44,0,0,0-.2,1.37v4.43h-2Z" transform="translate(0.14 0.14)" fill="#fff"/><path d="M650.6,544.76h-2v-1.3h0a2.79,2.79,0,0,1-1.13,1.13,3,3,0,0,1-1.52.42,3.39,3.39,0,0,1-2.65-.91,4,4,0,0,1-.82-2.74v-5.91h2.05v5.71a2.54,2.54,0,0,0,.47,1.73,1.72,1.72,0,0,0,1.31.5,2.48,2.48,0,0,0,1.08-.2,1.88,1.88,0,0,0,.7-.53,2.06,2.06,0,0,0,.39-.8,4.05,4.05,0,0,0,.12-1v-5.4h2.05Z" transform="translate(0.14 0.14)" fill="#fff"/><path d="M654.31,541.77A1.56,1.56,0,0,0,655,543a2.7,2.7,0,0,0,1.42.36,5.29,5.29,0,0,0,.66,0,2.91,2.91,0,0,0,.69-.17,1.41,1.41,0,0,0,.54-.37.9.9,0,0,0,.18-.64.89.89,0,0,0-.28-.65,2.06,2.06,0,0,0-.7-.41,8.18,8.18,0,0,0-1-.26l-1.1-.23a9.34,9.34,0,0,1-1.1-.31,3.6,3.6,0,0,1-1-.48,2.23,2.23,0,0,1-.67-.79,2.44,2.44,0,0,1-.26-1.17,2.14,2.14,0,0,1,.37-1.27,2.78,2.78,0,0,1,.94-.83,4,4,0,0,1,1.26-.44,6.86,6.86,0,0,1,1.32-.13,6.21,6.21,0,0,1,1.38.15,4,4,0,0,1,1.19.5,3,3,0,0,1,.88.89,3.17,3.17,0,0,1,.44,1.32h-2.14a1.28,1.28,0,0,0-.68-1,2.9,2.9,0,0,0-1.21-.25,3.46,3.46,0,0,0-.52,0,2.45,2.45,0,0,0-.55.13,1.13,1.13,0,0,0-.44.29.7.7,0,0,0-.18.5.77.77,0,0,0,.26.61,2.09,2.09,0,0,0,.68.38,7.08,7.08,0,0,0,1,.27l1.12.23a10.57,10.57,0,0,1,1.1.31,3.82,3.82,0,0,1,1,.48,2.33,2.33,0,0,1,.68.78,2.25,2.25,0,0,1,.26,1.15,2.42,2.42,0,0,1-.38,1.4,2.94,2.94,0,0,1-1,.94,4.51,4.51,0,0,1-1.34.52,6.73,6.73,0,0,1-1.46.16,6.52,6.52,0,0,1-1.64-.2,3.74,3.74,0,0,1-1.29-.6,2.91,2.91,0,0,1-.87-1,3.18,3.18,0,0,1-.33-1.43Z" transform="translate(0.14 0.14)" fill="#fff"/><path d="M669.9,542.69a1.05,1.05,0,0,0,.1.54.4.4,0,0,0,.38.16h.22l.29,0v1.42l-.28.08-.35.08-.36,0a1.84,1.84,0,0,1-.31,0,1.93,1.93,0,0,1-1-.25,1.23,1.23,0,0,1-.54-.88,3.69,3.69,0,0,1-1.51.86,5.86,5.86,0,0,1-1.72.27,4.3,4.3,0,0,1-1.2-.17,3.13,3.13,0,0,1-1-.5,2.52,2.52,0,0,1-.7-.85,2.65,2.65,0,0,1-.26-1.2,2.77,2.77,0,0,1,.31-1.4,2.42,2.42,0,0,1,.83-.85,3.87,3.87,0,0,1,1.15-.44,11.51,11.51,0,0,1,1.29-.2,8.81,8.81,0,0,1,1.06-.16,5,5,0,0,0,.89-.15,1.42,1.42,0,0,0,.62-.33.93.93,0,0,0,.22-.68,1,1,0,0,0-.19-.65,1.26,1.26,0,0,0-.47-.38,2,2,0,0,0-.62-.18,5,5,0,0,0-.65,0,2.58,2.58,0,0,0-1.42.36,1.41,1.41,0,0,0-.63,1.12h-2a3.19,3.19,0,0,1,.43-1.5,3,3,0,0,1,1-.95,3.74,3.74,0,0,1,1.32-.5,7.51,7.51,0,0,1,1.51-.15,6.07,6.07,0,0,1,1.35.15,3.94,3.94,0,0,1,1.2.46,2.62,2.62,0,0,1,.85.84,2.26,2.26,0,0,1,.33,1.25Zm-2.06-2.59a2.6,2.6,0,0,1-1.15.37,13.25,13.25,0,0,0-1.37.19,3.6,3.6,0,0,0-.63.15,1.71,1.71,0,0,0-.54.27,1.16,1.16,0,0,0-.36.45,1.51,1.51,0,0,0-.14.67.89.89,0,0,0,.2.58,1.35,1.35,0,0,0,.48.37,2.29,2.29,0,0,0,.61.19,4.54,4.54,0,0,0,.6,0,3.39,3.39,0,0,0,.74-.09,2.68,2.68,0,0,0,.75-.3,2.17,2.17,0,0,0,.58-.55,1.39,1.39,0,0,0,.23-.82Z" transform="translate(0.14 0.14)" fill="#fff"/><path d="M606.38,507.28h3.16l3.55,10.07h0l3.45-10.07h3.13v12.86h-2.14v-9.92h0L614,520.14h-1.85l-3.57-9.92h0v9.92h-2.14Z" transform="translate(0.14 0.14)" fill="#fff"/><path d="M622.41,507.28h2.25v5.85l5.73-5.85h2.77L628,512.41l5.49,7.73h-2.81L626.5,514l-1.84,1.82v4.32h-2.25Z" transform="translate(0.14 0.14)" fill="#fff"/><path d="M637.48,512.76a4.92,4.92,0,0,0,1-.08,2.9,2.9,0,0,0,.9-.31,1.81,1.81,0,0,0,.64-.62,1.86,1.86,0,0,0,.24-1,1.64,1.64,0,0,0-.55-1.3,2.07,2.07,0,0,0-1.41-.49,2,2,0,0,0-.94.22,1.84,1.84,0,0,0-.65.59,2.39,2.39,0,0,0-.39.82,3,3,0,0,0-.11.95h-2.05a5.19,5.19,0,0,1,.34-1.7,4.1,4.1,0,0,1,.84-1.36,3.54,3.54,0,0,1,1.28-.9,4.27,4.27,0,0,1,1.71-.33,5,5,0,0,1,1.45.22,4,4,0,0,1,1.28.63,3.18,3.18,0,0,1,.91,1.05,3.07,3.07,0,0,1,.34,1.47,3.15,3.15,0,0,1-.43,1.67,2.52,2.52,0,0,1-1.35,1v0a2.57,2.57,0,0,1,1.68,1.07,3.46,3.46,0,0,1,.61,2.08,3.53,3.53,0,0,1-.36,1.61,3.67,3.67,0,0,1-1,1.2,4.41,4.41,0,0,1-1.42.77,5.37,5.37,0,0,1-1.71.27,5.27,5.27,0,0,1-1.91-.32,3.54,3.54,0,0,1-1.37-.89,3.71,3.71,0,0,1-.84-1.38,6,6,0,0,1-.31-1.8H636a2.82,2.82,0,0,0,.56,1.91,2.18,2.18,0,0,0,1.81.77,2.56,2.56,0,0,0,1.72-.59,2.05,2.05,0,0,0,.69-1.66,2.11,2.11,0,0,0-.28-1.17,1.93,1.93,0,0,0-.76-.66,3.12,3.12,0,0,0-1.05-.28,11.87,11.87,0,0,0-1.2,0Z" transform="translate(0.14 0.14)" fill="#fff"/></svg>