<svg width="430" height="430" fill="none" xmlns="http://www.w3.org/2000/svg"><path opacity=".9" fill-rule="evenodd" clip-rule="evenodd" d="m368.377 412.523 5.629 5.416 3.415.332-4.454-3.917-4.59-1.831Z" fill="#fff"/><path fill-rule="evenodd" clip-rule="evenodd" d="m373.927 417.992-5.626-5.434-3.467 6.239 3.868 5.772 5.225-6.577ZM368.777 424.583l5.237-6.557 3.427.305-4.115 4.602-4.549 1.65Z" fill="#fff"/><path d="M393.901 415.736h-1.504l1.531 2.166.766-1.039-.793-1.127ZM390.735 418.926l-3.811-3.375v1.631l5.039 4.45v-5.896h-1.228v3.19ZM396.399 415.736l-2.036 2.786v2.927h1.234v-2.528l2.324-3.185h-1.522ZM382.474 416.806l1.29 2.488h-.483l-.613 1.2h1.705l.498.955h1.377l-3.078-5.975-.696 1.332ZM386.924 421.449v.003h1.228v-2.286l-1.228-1.079v3.362Z" fill="#fff"/><path d="m382.103 417.545-2.007 3.905h1.372l1.319-2.563-.684-1.342ZM413.853 419.118a1.55 1.55 0 0 0 .545-.256 1.668 1.668 0 0 0 .684-1.412 1.61 1.61 0 0 0-.68-1.36 1.646 1.646 0 0 0-.575-.276 3.61 3.61 0 0 0-.861-.078h-.309v1.214h.441c.191-.015.382.015.559.088a.443.443 0 0 1 .221.416.482.482 0 0 1-.279.466 1.392 1.392 0 0 1-.547.077h-.395v1.2h.441a3.09 3.09 0 0 0 .755-.079ZM398.496 416.768a2.934 2.934 0 0 0-.624 1.836 3.012 3.012 0 0 0 1.174 2.375c.441.337.962.553 1.513.624v-1.239a1.841 1.841 0 0 1-1.129-.753 1.779 1.779 0 0 1-.159-1.751 1.75 1.75 0 0 1 .441-.611c.245-.209.537-.354.852-.421v-1.242a3.05 3.05 0 0 0-2.068 1.182ZM402.331 417.525l.962-.765a2.88 2.88 0 0 0-.882-.788 3.158 3.158 0 0 0-1.161-.377v1.242c.434.086.82.332 1.081.688ZM423.393 417.525l.964-.765a2.905 2.905 0 0 0-.882-.788 3.146 3.146 0 0 0-1.161-.377v1.242c.433.087.819.332 1.079.688ZM413.886 419.578c.009.04.014.081.014.122a.465.465 0 0 1-.322.486 1.727 1.727 0 0 1-.516.058h-.395v1.201h.403c.265.005.529-.019.788-.071.195-.044.378-.125.541-.24a1.748 1.748 0 0 0 .719-1.41 1.826 1.826 0 0 0-.151-.743c-.275.324-.66.537-1.081.597ZM419.56 416.768a2.92 2.92 0 0 0-.622 1.836 2.994 2.994 0 0 0 1.173 2.375 3.15 3.15 0 0 0 1.514.624v-1.239a1.842 1.842 0 0 1-1.132-.753 1.776 1.776 0 0 1-.159-1.751 1.73 1.73 0 0 1 .441-.611 1.92 1.92 0 0 1 .852-.421v-1.242a3.046 3.046 0 0 0-2.067 1.182ZM401.243 420.366v1.242a2.993 2.993 0 0 0 2.063-1.169l-.971-.752a1.797 1.797 0 0 1-1.092.679ZM423.398 419.687c-.27.355-.663.598-1.103.679v1.242c.406-.044.798-.17 1.154-.371a3 3 0 0 0 .91-.798l-.961-.752ZM417.626 415.736h-1.23v5.713h1.23v-5.713ZM405.92 419.832c-.125-.3-.18-.626-.159-.95v-3.146h-1.233v3.258c-.011.35.036.698.137 1.032.095.284.25.545.454.764.183.204.4.374.642.502.241.134.503.225.775.272v-1.255a1.118 1.118 0 0 1-.616-.477ZM407.999 418.886c.021.33-.037.661-.167.964a1.083 1.083 0 0 1-.62.459v1.255a2.41 2.41 0 0 0 .778-.267c.241-.133.459-.304.644-.507a2.07 2.07 0 0 0 .457-.764 3.3 3.3 0 0 0 .137-1.032v-3.258h-1.229v3.15ZM411.97 415.736h-1.23v5.713h1.23v-5.713Z" fill="#fff"/></svg>