<svg width="749" height="783" viewBox="0 0 749 783" fill="none" xmlns="http://www.w3.org/2000/svg">
<path d="M30.2798 432.56H28.0098V739.84H30.2798V432.56Z" fill="#898989"/>
<path d="M30.2798 14.17H28.0098V167.24H30.2798V14.17Z" fill="#898989"/>
<path d="M28.52 188.66C22.52 188.66 20.71 185.66 20.71 181.07V176H36.33V181.06C36.33 185.61 35.02 188.65 28.52 188.65M28.52 185.65C32.86 185.65 33.83 183.89 33.83 180.97V178.97H23.25V180.97C23.25 183.97 24.4 185.62 28.52 185.62V185.65Z" fill="#898989"/>
<path d="M26.79 191.22C31.69 191.22 33.09 193.36 33.09 197.05C33.09 200.74 31.69 202.9 26.79 202.9C21.89 202.9 20.48 200.76 20.48 197.05C20.48 193.34 21.88 191.22 26.79 191.22ZM26.79 200C29.94 200 30.93 199.25 30.93 197.05C30.93 194.85 29.93 194.12 26.79 194.12C23.65 194.12 22.67 194.86 22.67 197.05C22.67 199.24 23.63 200 26.79 200Z" fill="#898989"/>
<path d="M32.86 216.31H20.71V213.79L22.26 213.54C20.96 212.84 20.48 211.47 20.48 209.78C20.48 206.72 21.97 205.71 24.48 205.71H32.83V208.52H25.32C23.63 208.52 22.82 208.9 22.82 210.64C22.7346 211.272 22.8853 211.913 23.2432 212.441C23.6012 212.969 24.1413 213.346 24.76 213.5H32.86V216.31Z" fill="#898989"/>
<path d="M26.79 231.34C23.34 231.34 20.48 230.42 20.48 226.43C20.48 224.11 21.29 223.1 22.55 222.63L20.71 222.4V219.86H37.81V222.67H31.15C32.23 223.17 33.09 224.23 33.09 226.43C33.09 230.43 30.59 231.34 26.79 231.34ZM26.79 228.44C29.13 228.44 30.93 228.08 30.93 225.67C30.93 223.26 29.4 222.52 26.79 222.52C24.18 222.52 22.67 223.19 22.67 225.67C22.67 228.15 24.6 228.44 26.79 228.44Z" fill="#898989"/>
<path d="M23.54 234.22H37.81V237H24.22C23.09 237 22.82 237.29 22.82 238.06C22.8197 238.309 22.85 238.558 22.91 238.8H20.71C20.6135 238.357 20.5666 237.904 20.57 237.45C20.57 235.06 21.47 234.19 23.57 234.19" fill="#898989"/>
<path d="M26.2398 251.09L25.7298 243.09C23.7298 243.15 22.7298 244.09 22.7298 246.57C22.7283 247.946 23.0108 249.308 23.5598 250.57H21.2598C20.6773 249.157 20.4012 247.637 20.4498 246.11C20.4498 242.42 21.8498 240.28 26.7498 240.28C31.6498 240.28 33.0598 242.42 33.0598 246.11C33.0598 250.32 30.6698 251.2 27.8098 251.2C27.2742 251.2 26.7394 251.16 26.2098 251.08M28.1098 248.58C29.6098 248.58 30.8998 248.27 30.8998 246.11C30.8998 243.95 29.8198 243.21 27.6998 243.11L28.1098 248.58Z" fill="#898989"/>
<path d="M21.0496 259.3H23.6796C23.2498 260.761 23.031 262.277 23.0296 263.8C23.0296 265.96 23.5696 266.8 25.1396 266.8C26.7096 266.8 27.0296 266.28 27.6596 263.72C28.4496 260.43 29.3296 259.4 32.0996 259.4C35.2696 259.4 36.5796 261.33 36.5796 264.93C36.6016 266.285 36.4092 267.635 36.0096 268.93H33.5096C33.8905 267.665 34.0892 266.351 34.0996 265.03C34.0996 263.14 33.7196 262.29 32.1596 262.29C30.9896 262.29 30.6096 262.65 29.9996 265.12C29.1296 268.77 28.0696 269.74 25.0996 269.74C22.1296 269.74 20.4796 267.96 20.4796 263.88C20.4738 262.332 20.6653 260.79 21.0496 259.29" fill="#898989"/>
<path d="M32.86 275.53H20.71V272.71H32.86V275.53ZM36.26 272.53C37.63 272.53 37.77 272.87 37.77 274.13C37.77 275.39 37.63 275.73 36.26 275.73C34.89 275.73 34.73 275.39 34.73 274.13C34.73 272.87 34.91 272.53 36.26 272.53Z" fill="#898989"/>
<path d="M37.8097 289.88H20.7097V287.38L22.4897 287.11C21.3197 286.64 20.4897 285.52 20.4897 283.33C20.4897 279.33 22.9897 278.4 26.7997 278.4C30.2197 278.4 33.0997 279.4 33.0997 283.33C33.0997 285.61 32.3297 286.6 31.0997 287.09H37.7797L37.8097 289.88ZM26.8097 287.2C29.2797 287.2 30.9497 286.55 30.9497 284.1C30.9497 281.65 28.9497 281.33 26.8097 281.33C24.4697 281.33 22.6897 281.67 22.6897 284.1C22.6897 286.53 24.1697 287.2 26.7897 287.2H26.8097Z" fill="#898989"/>
<path d="M26.2398 303.59L25.7298 295.59C23.7298 295.66 22.7298 296.65 22.7298 299.08C22.7283 300.456 23.0108 301.818 23.5598 303.08H21.2598C20.6773 301.667 20.4012 300.147 20.4498 298.62C20.4498 294.93 21.8498 292.79 26.7498 292.79C31.6498 292.79 33.0598 294.93 33.0598 298.62C33.0598 302.83 30.6698 303.71 27.8098 303.71C27.2746 303.709 26.7401 303.672 26.2098 303.6M28.1098 301.1C29.6098 301.1 30.8998 300.78 30.8998 298.62C30.8998 296.46 29.8198 295.72 27.6998 295.62L28.1098 301.1Z" fill="#898989"/>
<path d="M37.8097 317.38H20.7097V314.88L22.4897 314.61C21.3197 314.14 20.4897 313.01 20.4897 310.83C20.4897 306.83 22.9897 305.9 26.7997 305.9C30.2197 305.9 33.0997 306.84 33.0997 310.83C33.0997 313.1 32.3297 314.09 31.0997 314.59H37.7797L37.8097 317.38ZM26.8097 314.7C29.2797 314.7 30.9497 314.05 30.9497 311.59C30.9497 309.13 28.9497 308.82 26.8097 308.82C24.4697 308.82 22.6897 309.16 22.6897 311.59C22.6897 314.02 24.1697 314.7 26.7897 314.7H26.8097Z" fill="#898989"/>
<path d="M36.33 326.67V332C36.33 336.68 34.8 338.14 31.02 338.14C26.94 338.14 25.52 336.39 25.52 332V330.09H20.71V326.67H36.33ZM28.27 331.55C28.27 333.87 28.88 334.66 30.95 334.66C33.02 334.66 33.63 333.85 33.63 331.55V330.09H28.27V331.55Z" fill="#898989"/>
<path d="M23.68 350.79H20.71V340.93H36.33V350.47H33.35V344.35H30.13V350.02H27.28V344.35H23.68V350.79Z" fill="#898989"/>
<path d="M36.3197 353.57H20.6997V356.99H36.3197V353.57Z" fill="#898989"/>
<path d="M21.0496 365.75H23.6796C23.2498 367.211 23.031 368.727 23.0296 370.25C23.0296 372.41 23.5696 373.25 25.1396 373.25C26.7096 373.25 27.0296 372.73 27.6596 370.16C28.4496 366.88 29.3296 365.84 32.0996 365.84C35.2696 365.84 36.5796 367.78 36.5796 371.38C36.6016 372.735 36.4092 374.085 36.0096 375.38H33.5096C33.8905 374.118 34.0892 372.808 34.0996 371.49C34.0996 369.6 33.7196 368.74 32.1596 368.74C30.9896 368.74 30.6096 369.1 29.9996 371.58C29.1296 375.22 28.0696 376.19 25.0996 376.19C22.1296 376.19 20.4796 374.41 20.4796 370.34C20.4738 368.792 20.6653 367.25 21.0496 365.75Z" fill="#898989"/>
<path d="M29 389.89H20.71V387.08H28.25C29.96 387.08 30.75 386.68 30.75 384.99C30.8566 384.33 30.7097 383.654 30.3388 383.097C29.9679 382.541 29.4003 382.145 28.75 381.99H20.75V379.2H37.85V382H31.29C32.57 382.67 33.09 384.16 33.09 385.82C33.09 388.91 31.6 389.87 29.04 389.87" fill="#898989"/>
<path d="M26.2398 403.53L25.7298 395.53C23.7298 395.6 22.7298 396.59 22.7298 399.02C22.7283 400.396 23.0108 401.758 23.5598 403.02H21.2598C20.6773 401.607 20.4012 400.087 20.4498 398.56C20.4498 394.87 21.8498 392.73 26.7498 392.73C31.6498 392.73 33.0598 394.87 33.0598 398.56C33.0598 402.77 30.6698 403.65 27.8098 403.65C27.2744 403.653 26.7396 403.617 26.2098 403.54M28.1098 401.04C29.6098 401.04 30.8998 400.72 30.8998 398.56C30.8998 396.4 29.8198 395.66 27.6998 395.56L28.1098 401.04Z" fill="#898989"/>
<path d="M26.2398 416.65L25.7298 408.65C23.7298 408.72 22.7298 409.71 22.7298 412.14C22.7283 413.516 23.0108 414.878 23.5598 416.14H21.2598C20.6773 414.727 20.4012 413.207 20.4498 411.68C20.4498 407.99 21.8498 405.85 26.7498 405.85C31.6498 405.85 33.0598 407.99 33.0598 411.68C33.0598 415.89 30.6698 416.77 27.8098 416.77C27.2746 416.769 26.7401 416.732 26.2098 416.66M28.1098 414.16C29.6098 414.16 30.8998 413.84 30.8998 411.68C30.8998 409.52 29.8198 408.78 27.6998 408.68L28.1098 414.16Z" fill="#898989"/>
<path d="M30.6098 422.63H24.7598C23.1798 422.63 22.7598 422.9 22.7598 424.14C22.7463 424.51 22.7833 424.88 22.8698 425.24H20.6898C20.6097 424.741 20.5696 424.236 20.5698 423.73C20.5698 420.83 21.3398 419.82 24.5698 419.82H30.6498V418.13H32.8998V419.82H35.7798V422.63H32.8598V425.31H30.6098V422.63Z" fill="#898989"/>
<path fill-rule="evenodd" clip-rule="evenodd" d="M721.8 742.52C722.08 741.43 722.56 741.43 722.44 740.06C722.319 739.289 721.971 738.572 721.44 738C721.01 737.481 720.752 736.842 720.7 736.17C720.759 734.992 721.102 733.846 721.7 732.83V732.74L722.7 733.43L722.64 733.5C721.39 735.17 721.51 736.38 722.74 737.99C723.74 739.28 723.9 741.81 722.59 742.99H722.53L721.86 742.66H721.79L721.8 742.52ZM724.46 742.52C724.631 741.996 724.838 741.485 725.08 740.99C725.23 740.628 725.23 740.222 725.08 739.86C724.847 739.214 724.535 738.599 724.15 738.03L724.05 737.85C723.677 737.306 723.45 736.676 723.39 736.02C723.432 734.88 723.778 733.772 724.39 732.81L724.44 732.7L725.33 733.49L725.28 733.56C724.07 735.21 724.28 736.42 725.45 737.99C726.45 739.27 726.61 741.81 725.3 742.99H725.24C725.01 742.88 724.78 742.76 724.54 742.66H724.47L724.46 742.52ZM727.74 742.95C727.49 742.85 727.28 742.72 727.03 742.62H727V742.55C727.17 742.047 727.374 741.556 727.61 741.08C727.98 740.08 727.18 738.82 726.61 737.99C725.34 736.05 725.93 734.74 726.87 732.86V732.77L727.87 733.46V733.53C726.62 735.21 726.76 736.42 728 738.02C729 739.3 729.16 741.84 727.85 743.02L727.74 742.95ZM730.49 744.77H718.81V743.77H730.49V744.77ZM738.81 747.87C733.98 739.62 729.27 731.31 724.44 723.06C719.62 731.31 714.91 739.62 710.08 747.87H738.81Z" fill="#9F9FA0"/>
<path fill-rule="evenodd" clip-rule="evenodd" d="M707.44 748.65C707.429 748.879 707.488 749.106 707.61 749.3C707.726 749.508 707.896 749.682 708.102 749.803C708.307 749.924 708.541 749.989 708.78 749.99H740.11C740.346 749.996 740.58 749.938 740.786 749.821C740.992 749.705 741.162 749.535 741.28 749.33C741.391 749.121 741.449 748.887 741.45 748.65C741.449 748.419 741.391 748.192 741.28 747.99L725.59 720.91C725.474 720.704 725.306 720.532 725.102 720.413C724.898 720.294 724.666 720.231 724.43 720.231C724.193 720.231 723.961 720.294 723.757 720.413C723.554 720.532 723.385 720.704 723.27 720.91L707.61 748C707.485 748.208 707.425 748.448 707.44 748.69M740.11 749.34H708.78C708.66 749.341 708.542 749.311 708.436 749.253C708.331 749.196 708.243 749.112 708.18 749.01C708.122 748.914 708.098 748.801 708.11 748.69C708.098 748.566 708.122 748.441 708.18 748.33L723.87 721.25C723.923 721.146 724.005 721.06 724.106 721.001C724.207 720.943 724.323 720.915 724.44 720.92C724.557 720.918 724.672 720.948 724.774 721.006C724.876 721.064 724.961 721.148 725.02 721.25L740.71 748.33C740.751 748.435 740.775 748.547 740.78 748.66C740.777 748.78 740.754 748.898 740.71 749.01C740.642 749.104 740.551 749.18 740.446 749.231C740.342 749.282 740.226 749.305 740.11 749.3V749.34Z" fill="#9F9FA0"/>
<path fill-rule="evenodd" clip-rule="evenodd" d="M708.85 776.77H740C740.375 776.767 740.733 776.617 740.998 776.351C741.262 776.085 741.41 775.725 741.41 775.35V755.51C741.41 755.135 741.262 754.775 740.998 754.509C740.733 754.243 740.375 754.093 740 754.09H708.85C708.475 754.093 708.116 754.243 707.852 754.509C707.588 754.775 707.44 755.135 707.44 755.51V775.35C707.44 775.725 707.588 776.085 707.852 776.351C708.116 776.617 708.475 776.767 708.85 776.77Z" fill="#9F9FA0"/>
<path fill-rule="evenodd" clip-rule="evenodd" d="M690.1 762.62V760.62C690.766 760.709 691.409 760.919 692 761.24C692.57 761.564 693.067 762.004 693.46 762.53L691.88 763.78C691.454 763.19 690.816 762.789 690.1 762.66M690.1 770.47V768.47C690.812 768.338 691.448 767.941 691.88 767.36L693.47 768.59C693.064 769.111 692.555 769.543 691.975 769.859C691.396 770.176 690.757 770.37 690.1 770.43V770.47ZM686.5 769.47C685.89 769.01 685.399 768.409 685.07 767.72C684.75 767.052 684.583 766.321 684.58 765.58C684.565 764.496 684.917 763.438 685.58 762.58C685.985 762.049 686.494 761.604 687.074 761.273C687.655 760.941 688.296 760.729 688.96 760.65V762.65C688.442 762.756 687.959 762.994 687.56 763.34C687.247 763.62 686.997 763.962 686.824 764.344C686.652 764.726 686.562 765.141 686.56 765.56C686.56 766.153 686.741 766.733 687.08 767.22C687.545 767.835 688.222 768.255 688.98 768.4V770.4C688.074 770.289 687.212 769.945 686.48 769.4L686.5 769.47ZM680.42 770.23V760.88H682.42V770.23H680.42ZM674.29 766.53V764.53H674.94C675.242 764.541 675.544 764.497 675.83 764.4C675.975 764.338 676.097 764.233 676.179 764.098C676.262 763.964 676.3 763.807 676.29 763.65C676.3 763.513 676.271 763.376 676.206 763.255C676.14 763.134 676.041 763.035 675.92 762.97C675.632 762.85 675.321 762.798 675.01 762.82H674.29V760.82H674.8C675.273 760.81 675.745 760.85 676.21 760.94C676.802 761.095 677.325 761.443 677.698 761.928C678.071 762.413 678.272 763.008 678.27 763.62C678.286 764.068 678.191 764.513 677.994 764.916C677.797 765.319 677.503 765.667 677.14 765.93C676.874 766.127 676.571 766.27 676.25 766.35C675.836 766.44 675.413 766.48 674.99 766.47L674.29 766.53ZM674.29 770.23V768.23H674.94C675.227 768.242 675.513 768.208 675.79 768.13C675.955 768.078 676.097 767.972 676.194 767.828C676.29 767.684 676.334 767.512 676.32 767.34C676.33 767.274 676.33 767.206 676.32 767.14C677.013 767.036 677.643 766.68 678.09 766.14C678.252 766.526 678.337 766.941 678.34 767.36C678.341 767.816 678.231 768.266 678.02 768.67C677.824 769.072 677.528 769.416 677.16 769.67C676.893 769.861 676.59 769.997 676.27 770.07C675.845 770.152 675.412 770.188 674.98 770.18L674.29 770.23ZM671.15 770.23V760.88H673.15V770.23H671.15ZM666.66 766.03V760.88H668.66V766.21C668.673 766.782 668.596 767.352 668.43 767.9C668.271 768.363 668.019 768.788 667.69 769.15C667.379 769.481 667.018 769.761 666.62 769.98C666.223 770.194 665.794 770.343 665.35 770.42V768.3C665.761 768.17 666.115 767.902 666.35 767.54C666.572 767.058 666.678 766.53 666.66 766V766.03ZM660.98 766.21V760.88H662.98V766C662.95 766.529 663.039 767.059 663.24 767.55C663.468 767.922 663.823 768.199 664.24 768.33V770.39C663.797 770.312 663.371 770.16 662.98 769.94C662.604 769.723 662.266 769.446 661.98 769.12C661.651 768.758 661.399 768.333 661.24 767.87C661.071 767.313 660.99 766.732 661 766.15L660.98 766.21ZM655.59 762.68V760.68C656.257 760.764 656.901 760.975 657.49 761.3C658.062 761.621 658.56 762.061 658.95 762.59L657.37 763.84C657.168 763.529 656.908 763.261 656.602 763.052C656.296 762.842 655.952 762.695 655.59 762.62V762.68ZM655.59 770.49V768.49C656.306 768.361 656.946 767.964 657.38 767.38L658.97 768.61C658.558 769.126 658.047 769.553 657.466 769.865C656.885 770.178 656.247 770.37 655.59 770.43V770.49ZM652 769.49C651.488 769.096 651.058 768.605 650.736 768.045C650.413 767.485 650.204 766.867 650.121 766.226C650.037 765.586 650.08 764.935 650.248 764.311C650.416 763.687 650.706 763.102 651.1 762.59C651.504 762.06 652.011 761.616 652.59 761.284C653.168 760.953 653.808 760.741 654.47 760.66V762.66C653.952 762.759 653.472 762.998 653.08 763.35C652.767 763.625 652.521 763.967 652.36 764.35C652.145 764.81 652.055 765.318 652.099 765.823C652.143 766.329 652.319 766.814 652.61 767.23C653.058 767.852 653.72 768.286 654.47 768.45V770.45C653.573 770.34 652.721 769.995 652 769.45V769.49ZM643.61 764.49L641.1 761H643.56L644.86 762.84L643.61 764.49ZM644.32 770.3V765.5L647.65 760.95H650.14L646.33 765.95V770.09L644.32 770.3ZM632.13 763.3V760.63L638.37 766.16V760.94H640.37V770.59L632.13 763.3ZM632.13 770.3V764.79L634.13 766.56V770.3H632.13ZM628.77 770.3L628 768.6H625.2L626.2 766.6H627L624.89 762.53L626.02 760.34L631.02 770.13L628.77 770.3ZM620.95 770.3L624.24 763.91L625.36 766.1L623.2 770.3H620.95ZM588.33 769.24L591.24 760.46H592.84L595.75 769.24H594.28L593.55 766.74H590.49L589.74 769.24H588.33ZM585.7 767C585.7 766.2 585.11 765.95 584.29 765.6L583.08 765.07C582.581 764.918 582.141 764.615 581.82 764.204C581.5 763.792 581.314 763.291 581.29 762.77C581.313 762.428 581.403 762.093 581.555 761.786C581.707 761.479 581.918 761.205 582.176 760.979C582.434 760.753 582.735 760.581 583.059 760.471C583.384 760.361 583.728 760.317 584.07 760.34H584.18C584.674 760.34 585.164 760.438 585.621 760.628C586.078 760.819 586.492 761.098 586.84 761.45L586.11 762.33C585.593 761.827 584.901 761.544 584.18 761.54C583.28 761.54 582.7 761.97 582.7 762.67C582.7 763.37 583.41 763.67 584.12 764L585.32 764.51C585.839 764.653 586.296 764.965 586.62 765.395C586.944 765.826 587.116 766.351 587.11 766.89C587.11 768.29 585.94 769.44 584.02 769.44C583.432 769.429 582.853 769.299 582.317 769.059C581.781 768.818 581.299 768.471 580.9 768.04L581.71 767.04C582.328 767.661 583.163 768.019 584.04 768.04C585.11 768.1 585.7 767.6 585.7 766.86V767ZM571.7 769.29L574.61 760.51H576.21L579.12 769.29H577.65L576.91 766.79H573.91L573.15 769.29H571.7ZM564.22 771.44L567.54 759.77H568.77L565.46 771.44H564.22ZM446.78 761.83L461.07 776.12C461.329 776.387 461.64 776.599 461.984 776.742C462.328 776.884 462.697 776.955 463.07 776.95H702.26C702.635 776.945 702.993 776.793 703.258 776.528C703.523 776.263 703.675 775.905 703.68 775.53V755.53C703.675 755.155 703.523 754.797 703.258 754.532C702.993 754.266 702.635 754.115 702.26 754.11H453.48C453.107 754.105 452.738 754.175 452.394 754.318C452.05 754.461 451.739 754.672 451.48 754.94L446.76 759.66C446.628 759.791 446.523 759.947 446.452 760.118C446.381 760.29 446.344 760.474 446.344 760.66C446.344 760.846 446.381 761.03 446.452 761.201C446.523 761.373 446.628 761.529 446.76 761.66L446.78 761.83ZM552.78 764.93C552.78 762.07 554.55 760.35 556.87 760.35C557.358 760.341 557.843 760.436 558.293 760.627C558.743 760.818 559.147 761.102 559.48 761.46L558.73 762.34C558.502 762.087 558.222 761.885 557.91 761.749C557.598 761.613 557.26 761.545 556.92 761.55C555.29 761.55 554.2 762.82 554.2 764.88C554.2 766.94 555.2 768.24 556.98 768.24C557.476 768.261 557.964 768.109 558.36 767.81V765.7H556.62V764.57H559.62V768.37C558.858 769.051 557.861 769.41 556.84 769.37C554.52 769.27 552.84 767.62 552.84 764.75L552.78 764.93ZM545 761.49V760.33H551.55V761.49H549V769.11H547.6V761.49H545ZM538.1 769.11V760.33H543.29V761.49H539.5V763.94H542.72V765.11H539.5V767.94H543.44V769.11H538.1ZM529.84 769.11V760.33H532.5C534.5 760.33 535.86 761 535.86 762.98C535.86 764.96 534.46 765.78 532.55 765.78H531.23V769.11H529.84ZM521.21 771.26L524.53 759.59H525.77L522.45 771.26H521.21ZM512.06 762.59C512.083 762.248 512.173 761.913 512.325 761.606C512.477 761.299 512.688 761.025 512.946 760.799C513.204 760.573 513.504 760.401 513.829 760.291C514.154 760.181 514.498 760.137 514.84 760.16H515C515.494 760.16 515.984 760.258 516.441 760.448C516.898 760.639 517.312 760.918 517.66 761.27L516.93 762.15C516.413 761.647 515.721 761.364 515 761.36C514.11 761.36 513.52 761.79 513.52 762.49C513.52 763.19 514.23 763.49 514.94 763.82L516.15 764.33C516.666 764.479 517.119 764.792 517.442 765.221C517.765 765.651 517.939 766.173 517.94 766.71C517.94 768.11 516.77 769.26 514.85 769.26C514.269 769.263 513.693 769.15 513.155 768.929C512.618 768.707 512.13 768.381 511.72 767.97L512.53 766.97C513.152 767.592 513.99 767.95 514.87 767.97C515.93 767.97 516.53 767.47 516.53 766.73C516.53 765.99 515.93 765.73 515.12 765.33L513.9 764.8C513.417 764.649 512.99 764.357 512.674 763.962C512.358 763.566 512.169 763.085 512.13 762.58L512.06 762.59ZM504 769.11V760.33H506.72C508.52 760.33 509.82 760.91 509.82 762.49C509.838 762.898 509.727 763.301 509.502 763.642C509.278 763.983 508.952 764.245 508.57 764.39V764.45C509.068 764.517 509.523 764.769 509.843 765.157C510.164 765.544 510.327 766.038 510.3 766.54C510.3 768.28 508.88 769.11 506.94 769.11H504ZM494.89 769.11L497.8 760.33H499.4L502.31 769.11H500.84L500.1 766.61H497.05L496.3 769.11H494.89ZM487.42 771.26L490.73 759.59H492L488.68 771.26H487.42ZM477.17 769.11L480.08 760.33H481.68L484.59 769.11H483.12L482.38 766.61H479.38L478.63 769.11H477.17ZM471.17 769.11V760.33H472.55V767.94H476.26V769.11H471.17ZM462.91 769.11V760.33H465.57C467.57 760.33 468.92 761 468.92 762.98C468.92 764.96 467.53 765.78 465.62 765.78H464.3V769.11H462.91Z" fill="#9F9FA0"/>
<path fill-rule="evenodd" clip-rule="evenodd" d="M464.3 764.68H465.49C466.9 764.68 467.57 764.14 467.57 762.98C467.57 761.82 466.84 761.44 465.44 761.44H464.3V764.68Z" fill="#9F9FA0"/>
<path fill-rule="evenodd" clip-rule="evenodd" d="M480 764.34L479.64 765.52H482L481.65 764.34C481.35 763.34 481.09 762.41 480.82 761.42H480.77C480.52 762.42 480.24 763.42 479.96 764.34" fill="#9F9FA0"/>
<path fill-rule="evenodd" clip-rule="evenodd" d="M497.75 764.34L497.39 765.52H499.79L499.44 764.34C499.16 763.34 498.88 762.41 498.61 761.42H498.56C498.31 762.42 498.04 763.42 497.75 764.34Z" fill="#9F9FA0"/>
<path fill-rule="evenodd" clip-rule="evenodd" d="M505.41 761.41V764H506.59C507.92 764 508.48 763.5 508.48 762.67C508.48 761.84 507.86 761.41 506.62 761.41H505.41Z" fill="#9F9FA0"/>
<path fill-rule="evenodd" clip-rule="evenodd" d="M506.8 765.05H505.41V768.05H506.8C508.17 768.05 508.96 767.56 508.96 766.48C508.96 765.4 508.2 765.07 506.8 765.07" fill="#9F9FA0"/>
<path fill-rule="evenodd" clip-rule="evenodd" d="M531.25 761.44V764.68H532.44C533.85 764.68 534.52 764.14 534.52 762.98C534.52 761.82 533.79 761.44 532.39 761.44H531.25Z" fill="#9F9FA0"/>
<path fill-rule="evenodd" clip-rule="evenodd" d="M575.33 761.42C575.08 762.42 574.8 763.42 574.52 764.34L574.16 765.52H576.55L576.21 764.34C575.93 763.34 575.65 762.41 575.37 761.42H575.33Z" fill="#9F9FA0"/>
<path fill-rule="evenodd" clip-rule="evenodd" d="M591.17 764.34L590.81 765.52H593.21L592.87 764.34C592.58 763.34 592.3 762.41 592.03 761.42C591.78 762.42 591.51 763.42 591.22 764.34" fill="#9F9FA0"/>
</svg>
