<?xml version="1.0" encoding="UTF-8"?><svg id="a" xmlns="http://www.w3.org/2000/svg" width="1000" height="1000" viewBox="0 0 1000 1000"><path d="M649.61,338.52c0,5.77-6.15,11.18-6.83,11.95-.68.77-1.93.64-2.99.64h-255.99c-1.5,0-1.71,1-1.71,1.71v19.2c0,1.63.4,1.49,1.92,1.49h123.09c12.67,0,13.23,4.69,13.23,10.24v157.22s-5.05,7.04-13.44,7.04c-6.5,0-11.29-5.29-11.95-7.04v-141.43h-135.46c-4.82,0-5.33-2.06-5.33-3.41v-64.42c0-6.07,5.66-6.19,7.04-6.19h281.37c2.87,1.76,7.04,7.24,7.04,13.01ZM651.95,377.56h-103.68s-5.55,4.42-5.55,11.73,4.89,15.57,5.76,15.57h81.92c2,0,2.13.52,2.13,1.07v21.12c0,1.39-1.3,1.07-2.13,1.07h-84.26c-2.36,0-3.2,1.81-3.2,2.56v137.17c0,1.55-.84,1.28-1.49,1.28h-66.56c-1.51,0-1.28-.32-1.28-1.28v-136.53c0-2.74-2.07-3.41-2.99-3.41h-107.09c-1.72,0-5.76,6.32-5.76,12.16,0,8.32,5.76,15.36,5.76,15.36h81.49c2.34,0,1.71.38,1.71,1.49v132.05c0,6.91,3.38,7.25,4.69,7.25h111.78c6.49,0,6.19-3.08,6.19-6.4v-134.61h77.22c11.29,0,11.95-4.05,11.95-5.12v-65.92c0-5.88-5.15-6.61-6.61-6.61ZM204.03,638.88v7.47h23.68v40.53h8.11v-40.53h24.11v-7.47h-55.89ZM351.86,673.44v-34.56h-8.32v36.05c0,2.69-.77,4.27-8.75,4.27s-8.53-2.34-8.53-4.48v-22.61c0-1.67-.7-13.01-13.87-13.01-11.65,0-13.65,8.18-13.65,13.23v21.12c0,3.61-.63,5.97-8.75,5.97s-8.96-2.79-8.96-5.55v-34.77h-7.89v34.56c0,1.8-1.42,13.01,16.21,13.01,14.46,0,17.28-6.71,17.28-12.59v-23.04c0-.7,1.43-4.27,5.76-4.27s5.55,2.38,5.55,4.69v21.76c0,1.79-.8,13.44,17.49,13.44s16.43-11.7,16.43-13.23ZM425.67,651.04v24.96c0,2.23-3,10.67-13.01,10.67h-33.07c-3.55,0-11.09-3.64-12.06-10.83,0-8.87,0-17.75,0-26.62.57-2.62,3.62-9.11,11.3-10.02,5.94,0,11.87,0,17.81,0s11.69,0,17.54,0c6.72.82,11.49,6.34,11.49,11.84ZM417.89,652c0-1.18-.37-2.21-1.17-3.05-1.48-1.57-3.28-2.47-5.46-2.49-2.99-.03-5.97,0-8.96,0-6.86,0-13.72,0-20.58,0-1.8,0-3.38.57-4.7,1.81-.91.86-1.41,1.86-1.4,3.19.04,7.23.02,14.47.02,21.7,0,.82.06,1.63.22,2.44.5,2.51,1.97,3.72,4.54,3.72,5.15,0,10.31,0,15.46,0h0c5.24,0,10.49,0,15.73,0,1.29,0,2.55-.18,3.73-.75,1.67-.8,2.58-2.1,2.57-4,0-7.52,0-15.04,0-22.55ZM463.86,638.88v7.47h23.79v40.21h7.79v-40.1h24.32v-7.57h-55.89ZM590.36,661.29c1.49-1.54,2.5-2.87,2.45-9.4,0-9.41-6.92-12.8-14.08-12.8h-44.37l-.11,47.46h7.89v-39.78h37.76c3.93,0,4.91,3.46,4.91,4.05v3.95c0,3.13-3.62,4.27-5.65,4.27h-32.75v7.68h31.89c6.5,0,6.61,4.49,6.61,5.87v13.97h7.79v-15.15c0-4.13-1.35-5.64-2.35-6.93-1.25-1.63-1.19-1.95,0-3.19ZM665.77,666.72v-7.68h-48.32v-7.15c0-4.15,5.07-5.65,6.4-5.65h41.81v-7.15h-42.77c-8.17,0-13.23,7.01-13.23,10.77v23.89c0,10.3,8.61,12.69,11.95,12.69h44.16v-7.25h-41.38c-6.32,0-6.72-3.8-6.72-4.69v-7.79h48.1ZM736.48,666.72v-7.68h-48.32v-7.15c0-4.15,5.07-5.65,6.4-5.65h41.81v-7.15h-42.77c-8.17,0-13.23,7.01-13.23,10.77v23.89c0,10.3,8.61,12.69,11.95,12.69h44.16v-7.25h-41.38c-6.32,0-6.72-3.8-6.72-4.69v-7.79h48.1ZM767.63,646.35h41.06v-7.36h-42.56c-5.4,0-14.4,3.39-14.4,13.33,0,12.66,10.05,14.4,12.91,14.4h29.23c4.63,0,6.51,1.74,6.51,6.51s-4.31,5.97-5.97,5.97h-42.66v7.36h42.98c9.54,0,13.55-6.95,13.55-14.72s-5.92-12.91-13.87-12.91h-29.12c-4,0-5.33-2.06-5.33-6.4s3.8-6.19,7.68-6.19Z" style="fill:#fff; opacity:.1;"/></svg>