<?xml version="1.0" encoding="UTF-8"?>
<svg id="_图层_1" data-name=" 图层 1" xmlns="http://www.w3.org/2000/svg" width="220mm" height="220mm" viewBox="0 0 623.6 623.6">
  <g>
    <rect x="501.8" y="570.2" width="105.6" height="33.3" style="fill: none;"/>
    <g>
      <path d="M534.9,596.6h0l-12.3-21.2c0-.3-.3-.3-.6-.3s-.5,.2-.6,.3l-12.3,21.2c0,.3,0,.5,0,.7,0,.3,.3,.3,.6,.3h24.5c.3,0,.5-.2,.6-.3,0-.3,0-.5,0-.7h0Zm-23.9-.3l11-19,11,19h-22Z" style="fill: #fff;"/>
      <rect x="516.7" y="593.9" width="10.8" height="1.1" style="fill: #fff;"/>
      <path d="M520,593.1l-.6-.4c1.1-1.6,.5-2.5,0-3.6-.7-1.1-1.4-2.5,0-4.4l.6,.4c-1.1,1.5-.6,2.5,0,3.6,.7,1.1,1.4,2.5,0,4.4h0Z" style="fill: #fff;"/>
      <path d="M522.6,593.1l-.6-.4c1.1-1.6,.5-2.5,0-3.6-.7-1.1-1.4-2.5,0-4.3l.6,.4c-1.1,1.5-.6,2.5,0,3.6,.7,1.1,1.4,2.5,0,4.3h0Z" style="fill: #fff;"/>
      <path d="M525.2,593.1l-.6-.4c1.1-1.6,.6-2.5,0-3.6-.7-1.2-1.4-2.5,0-4.4l.6,.4c-1.1,1.6-.6,2.5,0,3.6,.7,1.2,1.4,2.5,0,4.4Z" style="fill: #fff;"/>
    </g>
    <g>
      <path d="M541.3,584.3c-.5,0-.9,0-1.4-.2-.4,0-.8-.3-1-.6-.3-.3-.5-.7-.7-1.1-.2-.5-.3-1.1-.3-1.9s0-1.3,.3-1.7c.2-.5,.3-.8,.7-1.1,.3-.3,.6-.5,1-.6,.4,0,.8-.2,1.4-.2h.8c.3,0,.5,0,.7,.2v.8c-.2,0-.4-.2-.7-.2h-.8c-.3,0-.8,0-1,.2-.3,0-.5,.3-.8,.5-.2,.3-.3,.5-.4,.8s-.2,.8-.2,1.4,0,1,.2,1.4c0,.3,.3,.7,.4,.8s.4,.3,.7,.4,.6,.2,1,.2h.8c.3,0,.5,0,.8-.2v.8c-.2,0-.4,.2-.8,.3-.3,0-.6,0-1,0l.3-.2Z" style="fill: #fff;"/>
      <path d="M546.5,578.6c.4,0,.8,0,1.1,.2,.3,0,.5,.2,.7,.3s.3,.3,.3,.5c0,.2,0,.4,0,.7v3.9h-.8l-.2-.8c0,.2-.2,.3-.3,.4s-.3,.3-.4,.3-.3,.2-.6,.2h-.6c-.7,0-1.1-.2-1.4-.4s-.4-.7-.4-1.2,0-.6,.2-.8c0-.3,.3-.4,.4-.5,.2-.2,.4-.3,.7-.3s.6,0,.9,0h1.7v-.8c0-.2,0-.3-.2-.3s-.3-.2-.4-.3h-1.3c-.2,0-.4,0-.6,0v-.8h1.2v-.2Zm-.7,5c.4,0,.8,0,1.2-.3s.6-.4,.7-.8v-.9h-2.2c-.2,0-.3,0-.4,.2s-.2,.2-.3,.3v.5c0,.3,0,.5,.3,.7s.4,.3,.8,.3h0Z" style="fill: #fff;"/>
      <path d="M555,578.7v5.5h-.8v-.8l-.4,.4c0,0-.3,.2-.4,.3-.2,0-.3,0-.5,.2h-.5c-.3,0-.7,0-.9-.2-.3,0-.4-.2-.6-.3s-.3-.3-.3-.6,0-.4,0-.8v-3.8h.8v4.1c0,.2,0,.3,.2,.4s.2,.2,.3,.3,.3,0,.5,0h.5c.2,0,.3,0,.4-.2s.3-.2,.3-.3c0-.2,.2-.3,.3-.6v-3.7h1.1Z" style="fill: #fff;"/>
      <path d="M558.6,583.5h.6v.8h-1.4c-.2,0-.3-.2-.5-.3-.2-.2-.3-.3-.3-.5,0-.3,0-.5,0-.8v-3.1h-.8v-.8h.8v-1.3h.8v1.3h1.4v.8h-1.4v3.6c0,0,0,.3,0,.3s.2,.2,.3,.2h.5Z" style="fill: #fff;"/>
      <path d="M560.8,577.7c-.2,0-.3,0-.4,0,0,0,0-.2,0-.4s0-.3,0-.4c0,0,.3,0,.4,0s.3,0,.4,0c0,0,0,.2,0,.4s0,.3,0,.4c0,0-.3,0-.4,0Zm-.4,1h.8v5.5h-.8v-5.5Z" style="fill: #fff;"/>
      <path d="M565.3,584.3c-.4,0-.8,0-1.1-.2-.3,0-.6-.3-.8-.5-.3-.3-.4-.5-.5-.8s-.2-.8-.2-1.4,0-1,.2-1.4c0-.3,.3-.7,.5-.8,.3-.3,.5-.3,.8-.5,.3,0,.7-.2,1.1-.2s.8,0,1.1,.2c.3,0,.6,.3,.8,.5,.3,.3,.3,.5,.5,.8,0,.3,.2,.8,.2,1.4s0,1-.2,1.4c0,.3-.3,.7-.5,.8-.3,.3-.5,.3-.8,.5-.3,0-.7,.2-1.1,.2Zm0-.8c.3,0,.6,0,.8,0s.3-.2,.5-.3c0-.2,.2-.3,.3-.7s0-.6,0-1v-1c0-.3-.2-.5-.3-.7s-.3-.3-.5-.3c-.2,0-.4,0-.8,0s-.6,0-.8,0c-.2,0-.3,.2-.5,.3,0,.2-.3,.4-.3,.7v2c0,.3,.2,.5,.3,.7,.2,.2,.3,.3,.5,.3s.4,0,.8,0Z" style="fill: #fff;"/>
      <path d="M572,578.6c.3,0,.7,0,.9,.2,.3,0,.4,.3,.6,.3,.2,.2,.3,.3,.3,.6,0,.3,0,.4,0,.8v3.8h-.8v-4.1c0-.2,0-.3-.2-.4,0,0-.2-.2-.3-.3s-.3,0-.5,0h-.5c-.2,0-.3,0-.5,.2s-.3,.2-.4,.3-.3,.3-.3,.6v3.7h-.8v-5.5h.8v.8c0-.2,.2-.3,.3-.4s.3-.2,.4-.3,.3,0,.5-.2,.3,0,.5,0h-.2Z" style="fill: #fff;"/>
      <path d="M583.7,577.1v7.1h-.9v-3.5h-3.5v3.5h-.9v-7.1h.9v2.9h3.5v-2.9h.9Z" style="fill: #fff;"/>
      <path d="M586,577.7c-.2,0-.3,0-.4,0,0,0,0-.2,0-.4s0-.3,0-.4c0,0,.3,0,.4,0s.3,0,.4,0c0,0,0,.2,0,.4s0,.3,0,.4c0,0-.3,0-.4,0Zm-.4,1h.8v5.5h-.8v-5.5Z" style="fill: #fff;"/>
      <path d="M592.9,578.7v5.2c0,.8-.3,1.4-.7,1.8s-1.1,.7-2,.7-.5,0-.7,0c-.3,0-.4,0-.6,0v-.8c.4,0,.8,0,1.4,0s1.1-.2,1.4-.4,.4-.8,.4-1.4v-.6c0,.3-.3,.6-.6,.8s-.7,.3-1.2,.3-.8,0-1.1-.2-.5-.3-.7-.6-.3-.5-.3-.8c0-.3,0-.8,0-1.2s0-.8,0-1.1c0-.3,.2-.7,.3-.9s.4-.4,.7-.6,.7-.3,1.1-.3,.5,0,.8,0c.2,0,.3,.2,.5,.3,.2,0,.3,.3,.3,.3,0,.2,.2,.3,.3,.4v-1h.8Zm-2.5,4.8c.3,0,.6,0,.8-.2,.3,0,.4-.3,.5-.4s.3-.4,.3-.7v-1.7c0-.3-.2-.5-.3-.7s-.3-.3-.5-.4-.5-.2-.8-.2-.6,0-.8,.2c-.2,0-.3,.3-.4,.4s-.2,.4-.2,.7v1.6c0,.3,0,.5,.2,.7,0,.2,.3,.3,.4,.4s.4,.2,.8,.2h0Z" style="fill: #fff;"/>
      <path d="M597.4,578.6c.3,0,.7,0,.9,.2,.3,0,.4,.3,.6,.3,.2,.2,.3,.3,.3,.6,0,.3,0,.4,0,.8v3.8h-.8v-4.1c0-.2,0-.3-.2-.4,0,0-.2-.2-.3-.3s-.3,0-.5,0h-.5c-.2,0-.3,0-.5,.2s-.3,.2-.4,.3-.3,.3-.3,.6v3.7h-.8v-7.8h.8v3c0-.2,.2-.3,.3-.4s.3-.2,.4-.3,.3,0,.5-.2,.3,0,.5,0h-.2Z" style="fill: #fff;"/>
      <path d="M542.6,590.2h-2v6.3h-.9v-6.3h-2v-.8h5.1v.8h0Z" style="fill: #fff;"/>
      <path d="M547.7,593.1v.6l-3.7,.3c0,.3,0,.6,0,.8,0,.3,.2,.4,.3,.5,.2,.2,.3,.3,.5,.3,.3,0,.5,0,.8,0s.6,0,.9,0,.6-.2,.8-.3v.8s-.2,0-.3,0c-.2,0-.3,0-.4,0h-1.1c-.4,0-.8,0-1.1-.2-.3,0-.6-.3-.8-.5-.3-.3-.4-.5-.5-.8s-.2-.8-.2-1.4,0-1,.2-1.4c0-.3,.3-.7,.5-.8,.3-.3,.5-.3,.8-.5,.3,0,.7-.2,1-.2s.8,0,1.1,.2,.5,.3,.7,.5c.2,.3,.3,.5,.3,.8v.8l.2,.3Zm-.8,0v-.6c0-.2,0-.3-.2-.5s-.3-.3-.4-.3c-.2,0-.4-.2-.7-.2s-.6,0-.8,0c-.2,0-.3,.2-.5,.3,0,.2-.2,.3-.3,.6v.8l2.9-.3h0Z" style="fill: #fff;"/>
      <path d="M555.3,590.8c.3,0,.6,0,.8,.2,.3,0,.4,.3,.6,.3,.2,.2,.3,.3,.3,.6,0,.3,0,.4,0,.8v3.8h-.8v-3.5c0-.4,0-.8-.3-1-.2-.3-.4-.3-.8-.3h-.4c0,0-.3,0-.4,.2,0,0-.3,.2-.3,.3,0,0-.2,.3-.3,.5h0v3.9h-.8v-3.5c0-.4,0-.8-.2-1s-.4-.3-.8-.3h-.5c-.2,0-.3,0-.4,.2,0,0-.3,.2-.3,.3,0,.2-.2,.3-.3,.5v3.8h-.8v-5.5h.8v.8c.2-.3,.4-.5,.7-.7,.3,0,.6-.2,.9-.2s.8,0,1,.3c.3,.2,.4,.3,.6,.7,0-.2,.2-.3,.3-.4,0,0,.3-.2,.4-.3,.2,0,.3,0,.5-.2s.3,0,.5,0v-.2Z" style="fill: #fff;"/>
      <path d="M561.8,590.8c.4,0,.8,0,1.1,.2s.5,.3,.7,.6,.3,.6,.3,.9c0,.3,0,.8,0,1.2s0,.8,0,1.1c0,.3-.2,.7-.3,.9s-.4,.5-.7,.6c-.3,.2-.7,.3-1.1,.3s-.9,0-1.2-.3c-.3-.2-.4-.4-.6-.8v3h-.8v-7.5h.8v1c0-.3,.3-.6,.6-.8s.7-.3,1.2-.3h0Zm0,4.9c.3,0,.6,0,.8-.2s.3-.3,.4-.5c0-.2,.2-.4,.2-.7v-1.6c0-.3,0-.5-.2-.7,0-.2-.3-.3-.4-.4s-.4-.2-.8-.2-.6,0-.8,.2-.4,.3-.5,.4c-.2,.2-.3,.4-.3,.7v1.7c0,.3,.2,.5,.3,.7,.2,.2,.3,.3,.5,.4,.3,0,.5,.2,.8,.2Z" style="fill: #fff;"/>
      <path d="M570.2,593.1v.6l-3.7,.3c0,.3,0,.6,0,.8,0,.3,.2,.4,.3,.5,.2,.2,.3,.3,.5,.3,.3,0,.5,0,.8,0s.6,0,.9,0,.6-.2,.8-.3v.8s-.2,0-.3,0c-.2,0-.3,0-.4,0h-1.1c-.4,0-.8,0-1.1-.2-.3,0-.6-.3-.8-.5-.3-.3-.4-.5-.5-.8s-.2-.8-.2-1.4,0-1,.2-1.4c0-.3,.3-.7,.5-.8,.3-.3,.5-.3,.8-.5,.3,0,.7-.2,1-.2s.8,0,1.1,.2,.5,.3,.7,.5c.2,.3,.3,.5,.3,.8v.8l.2,.3Zm-.8,0v-.6c0-.2,0-.3-.2-.5s-.3-.3-.4-.3c-.2,0-.4-.2-.7-.2s-.6,0-.8,0c-.2,0-.3,.2-.5,.3,0,.2-.2,.3-.3,.6v.8l2.9-.3h0Z" style="fill: #fff;"/>
      <path d="M574.7,590.8v.8h-.7c-.2,0-.3,0-.5,.2-.2,0-.3,.3-.4,.3,0,.2-.3,.3-.3,.6v3.6h-.8v-5.5h.8v1c0-.3,.2-.4,.3-.6s.3-.3,.4-.3c.2,0,.3-.2,.5-.2h.6Z" style="fill: #fff;"/>
      <path d="M577.9,590.8c.4,0,.8,0,1.1,.2,.3,0,.5,.2,.7,.3s.3,.3,.3,.5c0,.2,0,.4,0,.7v3.9h-.8l-.2-.8c0,.2-.2,.3-.3,.4s-.3,.3-.4,.3-.3,.2-.6,.2h-.6c-.7,0-1.1-.2-1.4-.4s-.4-.7-.4-1.2,0-.6,.2-.8c0-.3,.3-.4,.4-.5,.2-.2,.4-.3,.7-.3s.6,0,.9,0h1.7v-.8c0-.2,0-.3-.2-.3s-.3-.2-.4-.3h-1.3c-.2,0-.4,0-.6,0v-.8h1.2v-.2Zm-.7,5c.4,0,.8,0,1.2-.3s.6-.4,.7-.8v-.9h-2.2c-.2,0-.3,0-.4,.2s-.2,.2-.3,.3v.5c0,.3,0,.5,.3,.7s.4,.3,.8,.3h0Z" style="fill: #fff;"/>
      <path d="M583.9,595.8h.6v.8h-1.4c-.2,0-.3-.2-.5-.3-.2-.2-.3-.3-.3-.5,0-.3,0-.5,0-.8v-3.1h-.8v-.8h.8v-1.3h.8v1.3h1.4v.8h-1.4v3.6c0,0,0,.3,0,.3s.2,.2,.3,.2h.5Z" style="fill: #fff;"/>
      <path d="M590.2,590.9v5.5h-.8v-.8l-.4,.4c0,0-.3,.2-.4,.3-.2,0-.3,0-.5,.2h-.5c-.3,0-.7,0-.9-.2-.3,0-.4-.2-.6-.3s-.3-.3-.3-.6,0-.4,0-.8v-3.8h.8v4.1c0,.2,0,.3,.2,.4s.2,.2,.3,.3,.3,0,.5,0h.5c.2,0,.3,0,.4-.2s.3-.2,.3-.3c0-.2,.2-.3,.3-.6v-3.7h1.1Z" style="fill: #fff;"/>
      <path d="M595,590.8v.8h-.7c-.2,0-.3,0-.5,.2-.2,0-.3,.3-.4,.3,0,.2-.3,.3-.3,.6v3.6h-.8v-5.5h.8v1c0-.3,.2-.4,.3-.6s.3-.3,.4-.3c.2,0,.3-.2,.5-.2h.6Z" style="fill: #fff;"/>
      <path d="M600.6,593.1v.6l-3.7,.3c0,.3,0,.6,0,.8,0,.3,.2,.4,.3,.5,.2,.2,.3,.3,.5,.3,.3,0,.5,0,.8,0s.6,0,.9,0,.6-.2,.8-.3v.8s-.2,0-.3,0c-.2,0-.3,0-.4,0h-1.1c-.4,0-.8,0-1.1-.2-.3,0-.6-.3-.8-.5-.3-.3-.4-.5-.5-.8s-.2-.8-.2-1.4,0-1,.2-1.4c0-.3,.3-.7,.5-.8,.3-.3,.5-.3,.8-.5,.3,0,.7-.2,1-.2s.8,0,1.1,.2,.5,.3,.7,.5c.2,.3,.3,.5,.3,.8v.8l.2,.3Zm-.8,0v-.6c0-.2,0-.3-.2-.5s-.3-.3-.4-.3c-.2,0-.4-.2-.7-.2s-.6,0-.8,0c-.2,0-.3,.2-.5,.3,0,.2-.2,.3-.3,.6v.8l2.9-.3h0Z" style="fill: #fff;"/>
    </g>
    <g>
      <path d="M498,608.7h.6l1.7,6.3h0l2-6.3h.8l2.1,6.3h0l1.7-6.3h.6l-1.9,6.9h-.7l-2.1-6.3h0l-2.1,6.3h-.7l-1.9-6.9h0Z" style="fill: #fff;"/>
      <path d="M508,608.7h.6l1.7,6.3h0l2-6.3h.8l2.1,6.3h0l1.7-6.3h.6l-1.9,6.9h-.7l-2.1-6.3h0l-2.1,6.3h-.7l-1.9-6.9h0Z" style="fill: #fff;"/>
      <path d="M517.9,608.7h.6l1.7,6.3h0l2-6.3h.8l2.1,6.3h0l1.7-6.3h.6l-1.9,6.9h-.7l-2.1-6.3h0l-2.1,6.3h-.7l-1.9-6.9h0Z" style="fill: #fff;"/>
      <path d="M528.5,615.7c-.2,0-.3,0-.4,0,0,0,0-.3,0-.5s0-.4,0-.4c0,0,.3,0,.4,0s.3,0,.4,0c0,0,0,.3,0,.4s0,.4,0,.5c0,0-.3,0-.4,0Z" style="fill: #fff;"/>
      <path d="M536.7,608.7v6.4c0,.9-.3,1.7-.8,2.2-.5,.5-1.4,.8-2.4,.8s-.6,0-.8,0-.5,0-.7,0v-.6c.3,0,.5,0,.8,.2h.8c.9,0,1.5-.3,1.9-.7s.6-1.1,.6-1.9v-.9c-.2,.5-.4,.8-.8,1.1s-.9,.4-1.7,.4-.9,0-1.3-.3c-.3-.2-.6-.3-.8-.7-.2-.3-.3-.7-.4-1.1s-.2-.9-.2-1.5,0-1,.2-1.4c0-.4,.3-.8,.4-1.1,.2-.3,.5-.5,.8-.7s.8-.3,1.3-.3,.7,0,1,0c.3,0,.5,.2,.7,.3l.5,.5c.2,.2,.3,.4,.3,.7v-1.4h.5Zm-3,6.4c.5,0,.8,0,1.2-.3s.6-.3,.8-.6,.3-.6,.4-.9,0-.8,0-1.2,0-.8,0-1.2c0-.3-.2-.7-.4-.9s-.4-.5-.8-.6-.7-.3-1.2-.3-.8,0-1.1,.2-.5,.3-.7,.6-.3,.6-.3,.9c0,.3,0,.8,0,1.3s0,.9,0,1.3c0,.3,.2,.7,.3,.9s.4,.4,.7,.6,.7,.2,1.1,.2Z" style="fill: #fff;"/>
      <path d="M544.2,611.4v.7l-4.9,.3c0,.5,0,.9,.2,1.3,0,.3,.3,.7,.4,.8,.2,.3,.4,.4,.8,.5s.7,.2,1.2,.2,.8,0,1.1,0c.4,0,.8-.2,1-.3v.6c0,0-.3,0-.4,.2-.2,0-.3,0-.5,.2-.2,0-.4,0-.6,0h-.7c-.5,0-1,0-1.4-.2-.4,0-.7-.3-.9-.6s-.4-.7-.5-1.1-.2-1-.2-1.7,0-1.3,.2-1.7,.3-.8,.5-1.1,.5-.5,.9-.6c.3,0,.8-.2,1.4-.2s1,0,1.4,.3c.3,.2,.6,.4,.8,.7s.3,.6,.3,.9,0,.7,0,1v-.2Zm-.6,.2v-1c0-.3-.2-.6-.3-.8-.2-.3-.3-.4-.6-.5s-.6-.2-1.1-.2-.8,0-1.1,.2c-.3,0-.5,.3-.7,.5s-.3,.5-.4,.8c0,.3,0,.8-.2,1.3l4.3-.3h0Z" style="fill: #fff;"/>
      <path d="M551.3,611.4v.7l-4.9,.3c0,.5,0,.9,.2,1.3,0,.3,.3,.7,.4,.8,.2,.3,.4,.4,.8,.5s.7,.2,1.2,.2,.8,0,1.1,0c.4,0,.8-.2,1-.3v.6c0,0-.3,0-.4,.2-.2,0-.3,0-.5,.2-.2,0-.4,0-.6,0h-.7c-.5,0-1,0-1.4-.2-.4,0-.7-.3-.9-.6s-.4-.7-.5-1.1-.2-1-.2-1.7,0-1.3,.2-1.7,.3-.8,.5-1.1,.5-.5,.9-.6c.3,0,.8-.2,1.4-.2s1,0,1.4,.3c.3,.2,.6,.4,.8,.7s.3,.6,.3,.9,0,.7,0,1v-.2Zm-.6,.2v-1c0-.3-.2-.6-.3-.8-.2-.3-.3-.4-.6-.5s-.6-.2-1.1-.2-.8,0-1.1,.2c-.3,0-.5,.3-.7,.5s-.3,.5-.4,.8c0,.3,0,.8-.2,1.3l4.3-.3h0Z" style="fill: #fff;"/>
      <path d="M558.3,611.4v.7l-4.9,.3c0,.5,0,.9,.2,1.3,0,.3,.3,.7,.4,.8,.2,.3,.4,.4,.8,.5s.7,.2,1.2,.2,.8,0,1.1,0c.4,0,.8-.2,1-.3v.6c0,0-.3,0-.4,.2-.2,0-.3,0-.5,.2-.2,0-.4,0-.6,0h-.7c-.5,0-1,0-1.4-.2-.4,0-.7-.3-.9-.6s-.4-.7-.5-1.1-.2-1-.2-1.7,0-1.3,.2-1.7,.3-.8,.5-1.1,.5-.5,.9-.6c.3,0,.8-.2,1.4-.2s1,0,1.4,.3c.3,.2,.6,.4,.8,.7s.3,.6,.3,.9,0,.7,0,1v-.2Zm-.6,.2v-1c0-.3-.2-.6-.3-.8-.2-.3-.3-.4-.6-.5s-.6-.2-1.1-.2-.8,0-1.1,.2c-.3,0-.5,.3-.7,.5s-.3,.5-.4,.8c0,.3,0,.8-.2,1.3l4.3-.3h0Z" style="fill: #fff;"/>
      <path d="M562.1,615.1h.9v.5h-1.7c-.3,0-.4-.2-.5-.3-.2-.2-.3-.3-.3-.7s0-.7,0-1.1v-4.3h-1.1v-.5h1.1v-1.6h.6v1.6h1.9v.5h-1.9v5.1c0,.2,0,.3,.2,.5s.2,.2,.3,.3h.5Z" style="fill: #fff;"/>
      <path d="M569.3,611.4v.7l-4.9,.3c0,.5,0,.9,.2,1.3,0,.3,.3,.7,.4,.8,.2,.3,.4,.4,.8,.5s.7,.2,1.2,.2,.8,0,1.1,0c.4,0,.8-.2,1-.3v.6c0,0-.3,0-.4,.2-.2,0-.3,0-.5,.2-.2,0-.4,0-.6,0h-.7c-.5,0-1,0-1.4-.2-.4,0-.7-.3-.9-.6s-.4-.7-.5-1.1-.2-1-.2-1.7,0-1.3,.2-1.7,.3-.8,.5-1.1,.5-.5,.9-.6c.3,0,.8-.2,1.4-.2s1,0,1.4,.3c.3,.2,.6,.4,.8,.7s.3,.6,.3,.9,0,.7,0,1v-.2Zm-.6,.2v-1c0-.3-.2-.6-.3-.8-.2-.3-.3-.4-.6-.5s-.6-.2-1.1-.2-.8,0-1.1,.2c-.3,0-.5,.3-.7,.5s-.3,.5-.4,.8c0,.3,0,.8-.2,1.3l4.3-.3h0Z" style="fill: #fff;"/>
      <path d="M573.8,615.7c-.5,0-.9,0-1.4-.2-.3,0-.7-.3-.9-.6s-.4-.7-.5-1.1-.2-1-.2-1.7,0-1.3,.2-1.7c0-.4,.3-.8,.5-1.1s.5-.5,.9-.6c.3,0,.8-.2,1.4-.2h1c.3,0,.6,0,.8,.2v.6c-.3,0-.5-.2-.8-.2h-.9c-.3,0-.8,0-1.1,.2-.3,0-.5,.3-.7,.5s-.3,.5-.4,.9c0,.4,0,.8,0,1.4s0,1,0,1.4c0,.4,.2,.7,.4,.9,.2,.3,.4,.4,.7,.5s.7,.2,1.1,.2,.7,0,1,0c.3,0,.6-.2,.8-.3v.6c-.2,0-.4,.2-.8,.3-.3,0-.7,0-1,0v-.2Z" style="fill: #fff;"/>
      <path d="M580.2,608.5c.4,0,.8,0,1.1,.2,.3,0,.5,.3,.7,.4s.3,.4,.3,.7c0,.3,0,.6,0,.9v4.8h-.6v-5.4c0-.3-.2-.5-.3-.6-.2-.2-.3-.3-.5-.3s-.5,0-.8,0h-.7c-.3,0-.4,0-.7,.3s-.4,.3-.6,.5-.3,.5-.3,.8v4.8h-.6v-9.7h.6v4c0-.3,.2-.4,.3-.6s.3-.3,.6-.4,.4-.2,.7-.3,.5,0,.8,0h0Z" style="fill: #fff;"/>
      <path d="M585.3,615.7c-.2,0-.3,0-.4,0,0,0,0-.3,0-.5s0-.4,0-.4c0,0,.3,0,.4,0s.3,0,.4,0c0,0,0,.3,0,.4s0,.4,0,.5c0,0-.3,0-.4,0Z" style="fill: #fff;"/>
      <path d="M590.1,615.7c-.5,0-.9,0-1.4-.2-.3,0-.7-.3-.9-.6s-.4-.7-.5-1.1-.2-1-.2-1.7,0-1.3,.2-1.7c0-.4,.3-.8,.5-1.1s.5-.5,.9-.6c.3,0,.8-.2,1.4-.2h1c.3,0,.6,0,.8,.2v.6c-.3,0-.5-.2-.8-.2h-.9c-.3,0-.8,0-1.1,.2-.3,0-.5,.3-.7,.5s-.3,.5-.4,.9c0,.4,0,.8,0,1.4s0,1,0,1.4c0,.4,.2,.7,.4,.9,.2,.3,.4,.4,.7,.5s.7,.2,1.1,.2,.7,0,1,0c.3,0,.6-.2,.8-.3v.6c-.2,0-.4,.2-.8,.3-.3,0-.7,0-1,0v-.2Z" style="fill: #fff;"/>
      <path d="M596.1,615.7c-.5,0-1,0-1.4-.2-.3,0-.7-.3-.9-.6s-.4-.7-.5-1.1-.2-1-.2-1.7,0-1.3,.2-1.7c0-.4,.3-.8,.5-1.1s.5-.5,.9-.6,.8-.2,1.4-.2,.9,0,1.4,.2c.3,0,.7,.3,.9,.6s.4,.7,.5,1.1,.2,1,.2,1.7,0,1.3-.2,1.7c0,.4-.3,.8-.5,1.1s-.6,.5-.9,.6c-.3,0-.8,.2-1.4,.2Zm0-.5c.4,0,.8,0,1.2-.2,.3,0,.5-.3,.8-.5,.2-.3,.3-.6,.4-.9s0-.8,0-1.4,0-1,0-1.4-.2-.7-.4-.9-.4-.4-.8-.5-.7-.2-1.1-.2-.8,0-1.1,.2c-.3,0-.5,.3-.8,.5-.2,.3-.3,.6-.3,.9s0,.8,0,1.4,0,1,0,1.4c0,.4,.2,.7,.3,.9s.4,.4,.8,.5,.7,.2,1.1,.2h0Z" style="fill: #fff;"/>
      <path d="M608.1,608.5c.4,0,.8,0,1,.2,.3,0,.5,.3,.7,.4s.3,.4,.3,.7c0,.3,0,.6,0,.9v4.8h-.6v-5.4c0-.3,0-.5-.3-.6,0-.2-.3-.3-.5-.3-.2,0-.5,0-.8,0h-.7c-.3,0-.4,0-.6,.3-.2,0-.3,.3-.5,.5-.2,.3-.3,.5-.3,.8h0v4.8h-.6v-5.4c0-.3,0-.5-.3-.6,0-.2-.3-.3-.5-.3s-.5,0-.8,0h-.7c-.3,0-.4,0-.6,.3-.2,0-.3,.3-.5,.5-.2,.2-.3,.5-.3,.8v4.9h-.6v-6.9h.6v1.2c0-.3,.2-.4,.3-.6s.3-.3,.5-.4c.2,0,.4-.2,.6-.3s.5,0,.7,0c.6,0,1.1,0,1.4,.3,.3,.3,.5,.6,.6,1,0-.3,.2-.4,.3-.6s.3-.3,.5-.4,.4-.2,.7-.3,.5,0,.8,0v-.2Z" style="fill: #fff;"/>
    </g>
  </g>
  <g>
    <path d="M20.2,605.8c-.3,0-.5,0-.6,0h0c-.3,0-.5-.1-.8-.2l-1.4-.5c-.2-.1-.6-.3-1-.6l-.9-.8c-.8-.8-1.5-2-1.9-3.5-.4-1.3-.5-2.9-.5-4.8s.3-3.7,.9-5.1c.7-1.8,1.9-3.1,3.6-4.1,.5-.3,1.1-.5,2-.6,.8-.1,4.4-.2,10.6-.2v3.6h-8.3c-1.6,0-2.8,.7-3.5,2-.6,1-.8,2.4-.8,4.1v2.1c.1,.3,.1,.5,.2,.7h0c0,.4,0,.7,.1,.9,.2,1,.6,1.8,1.3,2.4,.7,.6,3,.9,7.2,.9v-4.8h-5.2v-3.6h9.1v12.1h-9.8Z" style="fill: #fff; fill-rule: evenodd;"/>
    <path d="M40.7,605.8h-1.6c0,0-.6-.1-.6-.1-.1,0-.3,0-.5,0-.1,0-.2,0-.2,0-.1,0-.2,0-.2,0-1.8-.5-3.2-1.7-4.2-3.6-.4-.8-.7-1.6-.9-2.5-.2-.9-.3-1.8-.3-2.8,0-1.9,.1-3.5,.4-4.7,.3-1.3,.7-2.5,1.4-3.4,.8-1.1,1.7-1.9,2.8-2.3,.5-.2,1.1-.4,2-.5,.8-.1,3.6-.2,8.6-.2v3.6h-6.4c-2.9,0-4.4,1.6-4.4,4.8h10.8v3.6h-10.8c0,.8,0,1.5,.2,2,0,.3,.1,.6,.2,.9,0,.2,.2,.4,.4,.7l.7,.7c.2,.2,.5,.3,.8,.5,.3,.1,.7,.2,1,.2h7.4v3.6h-6.5Z" style="fill: #fff; fill-rule: evenodd;"/>
    <path d="M58.1,605.8h-1.6c0,0-.6-.1-.6-.1-.1,0-.3,0-.5,0-.1,0-.2,0-.2,0-.1,0-.2,0-.2,0-1.8-.5-3.2-1.7-4.2-3.6-.4-.8-.7-1.6-.9-2.5-.2-.9-.3-1.8-.3-2.8,0-1.9,.1-3.5,.4-4.7,.3-1.3,.7-2.5,1.4-3.4,.8-1.1,1.7-1.9,2.8-2.3,.5-.2,1.1-.4,2-.5,.8-.1,3.6-.2,8.6-.2v3.6h-6.4c-2.9,0-4.4,1.6-4.4,4.8h10.7v3.6h-10.7c0,.8,0,1.5,.2,2,0,.3,.1,.6,.2,.9,0,.2,.2,.4,.4,.7l.7,.7c.2,.2,.5,.3,.8,.5,.3,.1,.7,.2,1,.2h7.4v3.6h-6.5Z" style="fill: #fff; fill-rule: evenodd;"/>
    <path d="M75.4,605.8h-1.6c0,0-.6-.1-.6-.1-.1,0-.3,0-.5,0-.1,0-.2,0-.2,0-.1,0-.2,0-.2,0-1.8-.5-3.2-1.7-4.2-3.6-.4-.8-.7-1.6-.9-2.5-.2-.9-.3-1.8-.3-2.8,0-1.9,.1-3.5,.4-4.7,.3-1.3,.7-2.5,1.4-3.4,.8-1.1,1.7-1.9,2.8-2.3,.5-.2,1.1-.4,2-.5,.8-.1,3.6-.2,8.6-.2v3.6h-6.4c-2.9,0-4.4,1.6-4.4,4.8h10.8v3.6h-10.8c0,.8,0,1.5,.2,2,0,.3,.1,.6,.2,.9,0,.2,.2,.4,.4,.7l.7,.7c.2,.2,.5,.3,.8,.5,.3,.1,.7,.2,1,.2h7.4v3.6h-6.5Z" style="fill: #fff; fill-rule: evenodd;"/>
    <polygon points="93.4 589 93.4 605.8 89.4 605.8 89.4 589 83.5 589 83.5 585.4 99.4 585.4 99.4 589 93.4 589" style="fill: #fff; fill-rule: evenodd;"/>
    <path d="M108.7,605.8h-1.6c0,0-.6-.1-.6-.1-.1,0-.3,0-.5,0-.1,0-.2,0-.2,0-.1,0-.2,0-.2,0-1.8-.5-3.2-1.7-4.2-3.6-.4-.8-.7-1.6-.9-2.5-.2-.9-.3-1.8-.3-2.8,0-1.9,.1-3.5,.4-4.7,.3-1.3,.7-2.5,1.4-3.4,.8-1.1,1.7-1.9,2.8-2.3,.5-.2,1.1-.4,2-.5,.8-.1,3.6-.2,8.6-.2v3.6h-6.4c-2.9,0-4.4,1.6-4.4,4.8h10.7v3.6h-10.7c0,.8,0,1.5,.2,2,0,.3,.1,.6,.2,.9,0,.2,.2,.4,.4,.7l.7,.7c.2,.2,.5,.3,.8,.5,.3,.1,.7,.2,1,.2h7.4v3.6h-6.5Z" style="fill: #fff; fill-rule: evenodd;"/>
    <path d="M126.1,605.8h-1.6c0,0-.6-.1-.6-.1-.1,0-.3,0-.5,0-.1,0-.2,0-.2,0-.1,0-.2,0-.2,0-1.8-.5-3.2-1.7-4.2-3.6-.8-1.6-1.3-3.4-1.3-5.2s.1-3.5,.4-4.8c.3-1.3,.7-2.5,1.4-3.4,.8-1.1,1.7-1.9,2.8-2.3,.7-.2,1.3-.4,2-.5,.7-.1,3.6-.2,8.6-.2v3.5h-6.4c-1.2,0-2.2,.4-3,1.1-.6,.6-1,1.5-1.2,2.6-.2,1.2-.4,2.4-.4,3.6s.2,2.5,.5,3.5c.4,1.3,1.2,2.1,2.2,2.4h.4c0,.1,.5,.1,.5,.1h7.4v3.6h-6.5Z" style="fill: #fff; fill-rule: evenodd;"/>
    <polygon points="146.5 605.8 146.5 597.2 139.4 597.2 139.4 605.8 135.5 605.8 135.5 585.4 139.4 585.4 139.4 593.6 146.5 593.6 146.5 585.4 150.4 585.4 150.4 605.8 146.5 605.8" style="fill: #fff; fill-rule: evenodd;"/>
  </g>
  <rect x="1.4" y="1.4" width="620.8" height="620.8" style="fill: none; stroke: #fff; stroke-miterlimit: 10; stroke-width: .8px;"/>
  <line x1="163.4" y1="595.2" x2="487.3" y2="595.2" style="fill: none; stroke: #fff; stroke-miterlimit: 10; stroke-width: .8px;"/>
  <line x1="1.4" y1="568.2" x2="622.2" y2="568.2" style="fill: none; stroke: #fff; stroke-miterlimit: 10; stroke-width: .8px;"/>
  <line x1="1.4" y1="541.2" x2="622.2" y2="541.2" style="fill: none; stroke: #fff; stroke-miterlimit: 10; stroke-width: .8px;"/>
  <line x1="1.4" y1="514.2" x2="622.2" y2="514.2" style="fill: none; stroke: #fff; stroke-miterlimit: 10; stroke-width: .8px;"/>
  <line x1="1.4" y1="487.3" x2="622.2" y2="487.3" style="fill: none; stroke: #fff; stroke-miterlimit: 10; stroke-width: .8px;"/>
  <line x1="1.4" y1="460.3" x2="622.2" y2="460.3" style="fill: none; stroke: #fff; stroke-miterlimit: 10; stroke-width: .8px;"/>
  <line x1="1.4" y1="433.3" x2="622.2" y2="433.3" style="fill: none; stroke: #fff; stroke-miterlimit: 10; stroke-width: .8px;"/>
  <line x1="1.4" y1="406.3" x2="622.2" y2="406.3" style="fill: none; stroke: #fff; stroke-miterlimit: 10; stroke-width: .8px;"/>
  <line x1="1.4" y1="379.3" x2="622.2" y2="379.3" style="fill: none; stroke: #fff; stroke-miterlimit: 10; stroke-width: .8px;"/>
  <line x1="1.4" y1="352.3" x2="622.2" y2="352.3" style="fill: none; stroke: #fff; stroke-miterlimit: 10; stroke-width: .8px;"/>
  <line x1="1.4" y1="325.3" x2="622.2" y2="325.3" style="fill: none; stroke: #fff; stroke-miterlimit: 10; stroke-width: .8px;"/>
  <line x1="1.4" y1="298.3" x2="622.2" y2="298.3" style="fill: none; stroke: #fff; stroke-miterlimit: 10; stroke-width: .8px;"/>
  <line x1="1.4" y1="271.3" x2="622.2" y2="271.3" style="fill: none; stroke: #fff; stroke-miterlimit: 10; stroke-width: .8px;"/>
  <line x1="1.4" y1="244.3" x2="622.2" y2="244.3" style="fill: none; stroke: #fff; stroke-miterlimit: 10; stroke-width: .8px;"/>
  <line x1="1.4" y1="217.3" x2="622.2" y2="217.3" style="fill: none; stroke: #fff; stroke-miterlimit: 10; stroke-width: .8px;"/>
  <line x1="1.4" y1="190.4" x2="622.2" y2="190.4" style="fill: none; stroke: #fff; stroke-miterlimit: 10; stroke-width: .8px;"/>
  <line x1="1.4" y1="163.4" x2="622.2" y2="163.4" style="fill: none; stroke: #fff; stroke-miterlimit: 10; stroke-width: .8px;"/>
  <line x1="1.4" y1="136.4" x2="622.2" y2="136.4" style="fill: none; stroke: #fff; stroke-miterlimit: 10; stroke-width: .8px;"/>
  <line x1="1.4" y1="109.4" x2="622.2" y2="109.4" style="fill: none; stroke: #fff; stroke-miterlimit: 10; stroke-width: .8px;"/>
  <line x1="1.4" y1="82.4" x2="622.2" y2="82.4" style="fill: none; stroke: #fff; stroke-miterlimit: 10; stroke-width: .8px;"/>
  <line x1="1.4" y1="55.4" x2="622.2" y2="55.4" style="fill: none; stroke: #fff; stroke-miterlimit: 10; stroke-width: .8px;"/>
  <line x1="1.4" y1="28.4" x2="622.2" y2="28.4" style="fill: none; stroke: #fff; stroke-miterlimit: 10; stroke-width: .8px;"/>
  <line x1="595.2" y1="1.4" x2="595.2" y2="568.2" style="fill: none; stroke: #fff; stroke-miterlimit: 10; stroke-width: .8px;"/>
  <line x1="568.2" y1="1.4" x2="568.2" y2="568.2" style="fill: none; stroke: #fff; stroke-miterlimit: 10; stroke-width: .8px;"/>
  <line x1="541.2" y1="1.4" x2="541.2" y2="568.2" style="fill: none; stroke: #fff; stroke-miterlimit: 10; stroke-width: .8px;"/>
  <line x1="514.2" y1="1.4" x2="514.2" y2="568.2" style="fill: none; stroke: #fff; stroke-miterlimit: 10; stroke-width: .8px;"/>
  <line x1="487.3" y1="1.4" x2="487.3" y2="622.2" style="fill: none; stroke: #fff; stroke-miterlimit: 10; stroke-width: .8px;"/>
  <line x1="460.3" y1="1.4" x2="460.3" y2="622.2" style="fill: none; stroke: #fff; stroke-miterlimit: 10; stroke-width: .8px;"/>
  <line x1="433.3" y1="1.4" x2="433.3" y2="622.2" style="fill: none; stroke: #fff; stroke-miterlimit: 10; stroke-width: .8px;"/>
  <line x1="406.3" y1="1.4" x2="406.3" y2="622.2" style="fill: none; stroke: #fff; stroke-miterlimit: 10; stroke-width: .8px;"/>
  <line x1="379.3" y1="1.4" x2="379.3" y2="622.2" style="fill: none; stroke: #fff; stroke-miterlimit: 10; stroke-width: .8px;"/>
  <line x1="352.3" y1="1.4" x2="352.3" y2="622.2" style="fill: none; stroke: #fff; stroke-miterlimit: 10; stroke-width: .8px;"/>
  <line x1="325.3" y1="1.4" x2="325.3" y2="622.2" style="fill: none; stroke: #fff; stroke-miterlimit: 10; stroke-width: .8px;"/>
  <line x1="298.3" y1="1.4" x2="298.3" y2="622.2" style="fill: none; stroke: #fff; stroke-miterlimit: 10; stroke-width: .8px;"/>
  <line x1="271.3" y1="1.4" x2="271.3" y2="622.2" style="fill: none; stroke: #fff; stroke-miterlimit: 10; stroke-width: .8px;"/>
  <line x1="244.3" y1="1.4" x2="244.3" y2="622.2" style="fill: none; stroke: #fff; stroke-miterlimit: 10; stroke-width: .8px;"/>
  <line x1="217.3" y1="1.4" x2="217.3" y2="622.2" style="fill: none; stroke: #fff; stroke-miterlimit: 10; stroke-width: .8px;"/>
  <line x1="190.4" y1="1.4" x2="190.4" y2="622.2" style="fill: none; stroke: #fff; stroke-miterlimit: 10; stroke-width: .8px;"/>
  <line x1="163.4" y1="1.4" x2="163.4" y2="622.2" style="fill: none; stroke: #fff; stroke-miterlimit: 10; stroke-width: .8px;"/>
  <line x1="136.4" y1="1.4" x2="136.4" y2="568.2" style="fill: none; stroke: #fff; stroke-miterlimit: 10; stroke-width: .8px;"/>
  <line x1="109.4" y1="1.4" x2="109.4" y2="568.2" style="fill: none; stroke: #fff; stroke-miterlimit: 10; stroke-width: .8px;"/>
  <line x1="82.4" y1="1.4" x2="82.4" y2="568.2" style="fill: none; stroke: #fff; stroke-miterlimit: 10; stroke-width: .8px;"/>
  <line x1="55.4" y1="1.4" x2="55.4" y2="568.2" style="fill: none; stroke: #fff; stroke-miterlimit: 10; stroke-width: .8px;"/>
  <line x1="28.4" y1="1.4" x2="28.4" y2="568.2" style="fill: none; stroke: #fff; stroke-miterlimit: 10; stroke-width: .8px;"/>
</svg>