<?xml version="1.0" encoding="UTF-8"?>
<svg id="_图层_1" data-name=" 图层 1" xmlns="http://www.w3.org/2000/svg" width="250mm" height="250mm" viewBox="0 0 708.7 708.7">
  <g>
    <rect x="561.4" y="636.7" width="124.2" height="39.1" style="fill: none;"/>
    <g>
      <path d="M600.4,667.7h0l-14.4-24.9c0-.3-.4-.4-.7-.4s-.6,.2-.7,.4l-14.4,24.9c0,.3,0,.6,0,.8,0,.3,.4,.4,.7,.4h28.8c.3,0,.6-.2,.7-.4,0-.3,0-.6,0-.8h0Zm-28.1-.4l12.9-22.4,12.9,22.4h-25.9Z" style="fill: #fff;"/>
      <rect x="579" y="664.5" width="12.6" height="1.3" style="fill: #fff;"/>
      <path d="M582.8,663.6l-.7-.5c1.3-1.9,.6-3,0-4.3-.8-1.3-1.7-2.9,0-5.2l.7,.5c-1.3,1.8-.7,3,0,4.3,.8,1.3,1.7,2.9,0,5.2h0Z" style="fill: #fff;"/>
      <path d="M585.8,663.6l-.7-.5c1.3-1.9,.6-3,0-4.3-.8-1.3-1.7-2.9,0-5.1l.7,.5c-1.3,1.8-.7,3,0,4.3,.8,1.3,1.7,2.9,0,5.1h0Z" style="fill: #fff;"/>
      <path d="M588.9,663.6l-.7-.5c1.3-1.9,.7-3,0-4.3-.8-1.4-1.6-2.9,0-5.2l.7,.5c-1.3,1.9-.7,3,0,4.3,.8,1.4,1.6,2.9,0,5.2Z" style="fill: #fff;"/>
    </g>
    <g>
      <path d="M607.9,653.2c-.6,0-1.1,0-1.6-.2-.5,0-.9-.3-1.2-.7-.3-.3-.6-.8-.8-1.3-.2-.6-.3-1.3-.3-2.2s0-1.5,.3-2c.2-.6,.4-1,.8-1.3,.3-.3,.7-.6,1.2-.7,.5,0,1-.2,1.6-.2h1c.3,0,.6,0,.8,.2v1c-.2,0-.5-.2-.8-.2h-1c-.4,0-.9,0-1.2,.2-.4,0-.6,.3-.9,.6-.2,.3-.4,.6-.5,1s-.2,.9-.2,1.6,0,1.2,.2,1.6c0,.4,.3,.8,.5,1s.5,.4,.8,.5,.7,.2,1.2,.2h1c.3,0,.6,0,.9-.2v.9c-.2,0-.5,.2-.9,.3-.3,0-.7,0-1.2,0l.3-.2Z" style="fill: #fff;"/>
      <path d="M614,646.5c.5,0,.9,0,1.3,.2,.3,0,.6,.2,.8,.4s.3,.4,.4,.6c0,.2,0,.5,0,.8v4.6h-.9l-.2-1c0,.2-.2,.3-.4,.5s-.3,.3-.5,.3-.4,.2-.7,.2h-.7c-.8,0-1.3-.2-1.7-.5s-.5-.8-.5-1.4,0-.7,.2-1c0-.3,.3-.5,.5-.6,.2-.2,.5-.3,.8-.3s.7,0,1.1,0h2v-1c0-.2,0-.3-.2-.4s-.3-.2-.5-.3h-1.5c-.2,0-.5,0-.7,0v-.9h1.4v-.2Zm-.8,5.9c.5,0,1,0,1.4-.3s.7-.5,.8-.9v-1.1h-2.6c-.2,0-.4,0-.5,.2s-.2,.2-.3,.4v.6c0,.4,0,.6,.3,.8s.5,.3,1,.3h0Z" style="fill: #fff;"/>
      <path d="M624,646.6v6.5h-.9v-.9l-.5,.5c0,0-.3,.2-.5,.3-.2,0-.4,0-.6,.2h-.6c-.4,0-.8,0-1.1-.2-.3,0-.5-.2-.7-.4s-.3-.4-.3-.7,0-.5,0-.9v-4.5h1v4.8c0,.2,0,.4,.2,.5s.2,.2,.4,.3,.4,0,.6,0h.6c.2,0,.4,0,.5-.2s.3-.2,.4-.4c0-.2,.2-.4,.3-.7v-4.4h1.3Z" style="fill: #fff;"/>
      <path d="M628.3,652.3h.7v.9h-1.7c-.2,0-.4-.2-.6-.3-.2-.2-.3-.4-.3-.6,0-.3,0-.6,0-1v-3.7h-1v-.9h1v-1.5h1v1.5h1.6v.9h-1.6v4.2c0,0,0,.3,0,.4s.2,.2,.3,.2h.6Z" style="fill: #fff;"/>
      <path d="M630.8,645.4c-.2,0-.4,0-.5,0,0,0,0-.2,0-.5s0-.4,0-.5c0,0,.3,0,.5,0s.4,0,.5,0c0,0,0,.2,0,.5s0,.4,0,.5c0,0-.3,0-.5,0Zm-.5,1.2h1v6.5h-1v-6.5Z" style="fill: #fff;"/>
      <path d="M636.1,653.2c-.5,0-.9,0-1.3-.2-.4,0-.7-.3-.9-.6-.3-.3-.5-.6-.6-1s-.2-1-.2-1.6,0-1.2,.2-1.6c0-.4,.3-.8,.6-1,.3-.3,.6-.4,.9-.6,.4,0,.8-.2,1.3-.2s.9,0,1.3,.2c.4,0,.7,.3,.9,.6,.3,.3,.4,.6,.6,1,0,.4,.2,1,.2,1.6s0,1.2-.2,1.6c0,.4-.3,.8-.6,1-.3,.3-.6,.4-.9,.6-.4,0-.8,.2-1.3,.2Zm0-.9c.4,0,.7,0,.9,0s.4-.2,.6-.4c0-.2,.2-.4,.3-.8s0-.7,0-1.2v-1.2c0-.3-.2-.6-.3-.8s-.3-.3-.6-.4c-.2,0-.5,0-.9,0s-.7,0-.9,0c-.2,0-.4,.2-.6,.4,0,.2-.3,.5-.3,.8v2.4c0,.3,.2,.6,.3,.8,.2,.2,.3,.3,.6,.4s.5,0,.9,0Z" style="fill: #fff;"/>
      <path d="M644,646.5c.4,0,.8,0,1.1,.2,.3,0,.5,.3,.7,.4,.2,.2,.3,.4,.4,.7,0,.3,0,.5,0,.9v4.5h-1v-4.8c0-.2,0-.4-.2-.5,0,0-.2-.2-.4-.3s-.4,0-.6,0h-.6c-.2,0-.4,0-.6,.2s-.3,.2-.5,.4-.3,.4-.3,.7v4.4h-1v-6.5h1v.9c0-.2,.2-.4,.4-.5s.3-.2,.5-.3,.4,0,.6-.2,.4,0,.6,0h-.2Z" style="fill: #fff;"/>
      <path d="M657.8,644.8v8.4h-1.1v-4.1h-4.1v4.1h-1.1v-8.4h1.1v3.4h4.1v-3.4h1.1Z" style="fill: #fff;"/>
      <path d="M660.4,645.4c-.2,0-.4,0-.5,0,0,0,0-.2,0-.5s0-.4,0-.5c0,0,.3,0,.5,0s.4,0,.5,0c0,0,0,.2,0,.5s0,.4,0,.5c0,0-.3,0-.5,0Zm-.5,1.2h1v6.5h-1v-6.5Z" style="fill: #fff;"/>
      <path d="M668.6,646.6v6.1c0,.9-.3,1.6-.8,2.1s-1.3,.8-2.4,.8-.6,0-.8,0c-.3,0-.5,0-.7,0v-.9c.5,0,1,0,1.6,0s1.3-.2,1.6-.5,.5-.9,.5-1.6v-.7c0,.4-.4,.7-.7,.9s-.8,.3-1.4,.3-1,0-1.3-.2-.6-.4-.8-.7-.3-.6-.4-1c0-.4,0-.9,0-1.4s0-.9,0-1.3c0-.4,.2-.8,.4-1.1s.5-.5,.8-.7,.8-.3,1.3-.3,.6,0,.9,0c.2,0,.4,.2,.6,.3,.2,0,.3,.3,.4,.4,0,.2,.2,.3,.3,.5v-1.2h.9Zm-3,5.7c.4,0,.7,0,1-.2,.3,0,.5-.3,.6-.5s.3-.5,.3-.8v-2c0-.3-.2-.6-.3-.8s-.4-.4-.6-.5-.6-.2-1-.2-.7,0-.9,.2c-.2,0-.4,.3-.5,.5s-.2,.5-.2,.8v1.9c0,.3,0,.6,.2,.8,0,.2,.3,.4,.5,.5s.5,.2,.9,.2h0Z" style="fill: #fff;"/>
      <path d="M673.9,646.5c.4,0,.8,0,1.1,.2,.3,0,.5,.3,.7,.4,.2,.2,.3,.4,.4,.7,0,.3,0,.5,0,.9v4.5h-1v-4.8c0-.2,0-.4-.2-.5,0,0-.2-.2-.4-.3s-.4,0-.6,0h-.6c-.2,0-.4,0-.6,.2s-.3,.2-.5,.4-.3,.4-.3,.7v4.4h-1v-9.2h1v3.6c0-.2,.2-.4,.4-.5s.3-.2,.5-.3,.4,0,.6-.2,.4,0,.6,0h-.2Z" style="fill: #fff;"/>
      <path d="M609.3,660.2h-2.4v7.4h-1.1v-7.4h-2.4v-1h6v1h0Z" style="fill: #fff;"/>
      <path d="M615.4,663.6v.7l-4.4,.3c0,.4,0,.7,0,.9,0,.3,.2,.5,.3,.6,.2,.2,.4,.3,.6,.4,.3,0,.6,0,1,0s.7,0,1.1,0,.7-.2,.9-.3v1s-.2,0-.4,0c-.2,0-.3,0-.5,0h-1.3c-.5,0-.9,0-1.3-.2-.4,0-.7-.3-.9-.6-.3-.3-.5-.6-.6-1s-.2-1-.2-1.6,0-1.2,.2-1.6c0-.4,.3-.8,.6-1,.3-.3,.6-.4,.9-.6,.4,0,.8-.2,1.2-.2s1,0,1.3,.2,.6,.4,.8,.6c.2,.3,.3,.6,.4,.9v1l.2,.3Zm-1,0v-.7c0-.2,0-.4-.2-.6s-.3-.3-.5-.4c-.2,0-.5-.2-.8-.2s-.7,0-.9,0c-.2,0-.4,.2-.6,.4,0,.2-.2,.4-.3,.7v.9l3.4-.3h0Z" style="fill: #fff;"/>
      <path d="M624.3,660.9c.4,0,.7,0,1,.2,.3,0,.5,.3,.7,.4,.2,.2,.3,.4,.4,.7,0,.3,0,.5,0,.9v4.5h-1v-4.1c0-.5,0-.9-.3-1.2-.2-.3-.5-.4-1-.4h-.5c0,0-.3,0-.5,.2,0,0-.3,.2-.4,.3,0,0-.2,.3-.3,.6h0v4.6h-1v-4.1c0-.5,0-.9-.2-1.2s-.5-.4-1-.4h-.6c-.2,0-.3,0-.5,.2,0,0-.3,.2-.4,.4,0,.2-.2,.4-.3,.6v4.5h-1v-6.5h1v.9c.2-.4,.5-.6,.8-.8,.3,0,.7-.2,1.1-.2s.9,0,1.2,.3c.3,.2,.5,.4,.7,.8,0-.2,.2-.4,.4-.5,0,0,.3-.2,.5-.3,.2,0,.4,0,.6-.2s.4,0,.6,0v-.2Z" style="fill: #fff;"/>
      <path d="M632,660.9c.5,0,1,0,1.3,.2s.6,.4,.8,.7,.3,.7,.4,1.1c0,.4,0,.9,0,1.4s0,.9,0,1.3c0,.4-.2,.8-.4,1.1s-.5,.6-.8,.7c-.3,.2-.8,.3-1.3,.3s-1.1,0-1.4-.3c-.3-.2-.5-.5-.7-.9v3.5h-1v-8.9h1v1.2c0-.4,.4-.7,.7-.9s.8-.4,1.4-.4h0Zm0,5.8c.4,0,.7,0,.9-.2s.4-.3,.5-.6c0-.2,.2-.5,.2-.8v-1.9c0-.3,0-.6-.2-.8,0-.2-.3-.4-.5-.5s-.5-.2-.9-.2-.7,0-1,.2-.5,.3-.6,.5c-.2,.2-.3,.5-.3,.8v2c0,.3,.2,.6,.3,.8,.2,.2,.4,.4,.6,.5,.3,0,.6,.2,1,.2Z" style="fill: #fff;"/>
      <path d="M641.9,663.6v.7l-4.4,.3c0,.4,0,.7,0,.9,0,.3,.2,.5,.3,.6,.2,.2,.4,.3,.6,.4,.3,0,.6,0,1,0s.7,0,1.1,0,.7-.2,.9-.3v1s-.2,0-.4,0c-.2,0-.3,0-.5,0h-1.3c-.5,0-.9,0-1.3-.2-.4,0-.7-.3-.9-.6-.3-.3-.5-.6-.6-1s-.2-1-.2-1.6,0-1.2,.2-1.6c0-.4,.3-.8,.6-1,.3-.3,.6-.4,.9-.6,.4,0,.8-.2,1.2-.2s1,0,1.3,.2,.6,.4,.8,.6c.2,.3,.3,.6,.4,.9v1l.2,.3Zm-1,0v-.7c0-.2,0-.4-.2-.6s-.3-.3-.5-.4c-.2,0-.5-.2-.8-.2s-.7,0-.9,0c-.2,0-.4,.2-.6,.4,0,.2-.2,.4-.3,.7v.9l3.4-.3h0Z" style="fill: #fff;"/>
      <path d="M647.2,660.9v.9h-.8c-.2,0-.4,0-.6,.2-.2,0-.3,.3-.5,.4,0,.2-.3,.4-.3,.7v4.3h-1v-6.5h1v1.2c0-.3,.2-.5,.4-.7s.3-.3,.5-.4c.2,0,.4-.2,.6-.2h.7Z" style="fill: #fff;"/>
      <path d="M650.9,660.9c.5,0,.9,0,1.3,.2,.3,0,.6,.2,.8,.4s.3,.4,.4,.6c0,.2,0,.5,0,.8v4.6h-.9l-.2-1c0,.2-.2,.3-.4,.5s-.3,.3-.5,.3-.4,.2-.7,.2h-.7c-.8,0-1.3-.2-1.7-.5s-.5-.8-.5-1.4,0-.7,.2-1c0-.3,.3-.5,.5-.6,.2-.2,.5-.3,.8-.3s.7,0,1.1,0h2v-1c0-.2,0-.3-.2-.4s-.3-.2-.5-.3h-1.5c-.2,0-.5,0-.7,0v-.9h1.4v-.2Zm-.8,5.9c.5,0,1,0,1.4-.3s.7-.5,.8-.9v-1.1h-2.6c-.2,0-.4,0-.5,.2s-.2,.2-.3,.4v.6c0,.4,0,.6,.3,.8s.5,.3,1,.3h0Z" style="fill: #fff;"/>
      <path d="M658,666.8h.7v.9h-1.7c-.2,0-.4-.2-.6-.3-.2-.2-.3-.4-.3-.6,0-.3,0-.6,0-1v-3.7h-1v-.9h1v-1.5h1v1.5h1.6v.9h-1.6v4.2c0,0,0,.3,0,.4s.2,.2,.3,.2h.6Z" style="fill: #fff;"/>
      <path d="M665.4,661v6.5h-.9v-.9l-.5,.5c0,0-.3,.2-.5,.3-.2,0-.4,0-.6,.2h-.6c-.4,0-.8,0-1.1-.2-.3,0-.5-.2-.7-.4s-.3-.4-.3-.7,0-.5,0-.9v-4.5h1v4.8c0,.2,0,.4,.2,.5s.2,.2,.4,.3,.4,0,.6,0h.6c.2,0,.4,0,.5-.2s.3-.2,.4-.4c0-.2,.2-.4,.3-.7v-4.4h1.3Z" style="fill: #fff;"/>
      <path d="M671.1,660.9v.9h-.8c-.2,0-.4,0-.6,.2-.2,0-.3,.3-.5,.4,0,.2-.3,.4-.3,.7v4.3h-1v-6.5h1v1.2c0-.3,.2-.5,.4-.7s.3-.3,.5-.4c.2,0,.4-.2,.6-.2h.7Z" style="fill: #fff;"/>
      <path d="M677.7,663.6v.7l-4.4,.3c0,.4,0,.7,0,.9,0,.3,.2,.5,.3,.6,.2,.2,.4,.3,.6,.4,.3,0,.6,0,1,0s.7,0,1.1,0,.7-.2,.9-.3v1s-.2,0-.4,0c-.2,0-.3,0-.5,0h-1.3c-.5,0-.9,0-1.3-.2-.4,0-.7-.3-.9-.6-.3-.3-.5-.6-.6-1s-.2-1-.2-1.6,0-1.2,.2-1.6c0-.4,.3-.8,.6-1,.3-.3,.6-.4,.9-.6,.4,0,.8-.2,1.2-.2s1,0,1.3,.2,.6,.4,.8,.6c.2,.3,.3,.6,.4,.9v1l.2,.3Zm-1,0v-.7c0-.2,0-.4-.2-.6s-.3-.3-.5-.4c-.2,0-.5-.2-.8-.2s-.7,0-.9,0c-.2,0-.4,.2-.6,.4,0,.2-.2,.4-.3,.7v.9l3.4-.3h0Z" style="fill: #fff;"/>
    </g>
    <g>
      <path d="M557,681.9h.7l2,7.4h0l2.4-7.4h.9l2.5,7.4h0l2-7.4h.7l-2.3,8.2h-.8l-2.5-7.5h0l-2.5,7.5h-.8l-2.3-8.2h0Z" style="fill: #fff;"/>
      <path d="M568.7,681.9h.7l2,7.4h0l2.4-7.4h.9l2.5,7.4h0l2-7.4h.7l-2.3,8.2h-.8l-2.5-7.5h0l-2.5,7.5h-.8l-2.3-8.2h0Z" style="fill: #fff;"/>
      <path d="M580.4,681.9h.7l2,7.4h0l2.4-7.4h.9l2.5,7.4h0l2-7.4h.7l-2.3,8.2h-.8l-2.5-7.5h0l-2.5,7.5h-.8l-2.3-8.2h0Z" style="fill: #fff;"/>
      <path d="M592.8,690.2c-.2,0-.4,0-.5,0,0,0,0-.3,0-.6s0-.5,0-.5c0,0,.3,0,.5,0s.4,0,.5,0c0,0,0,.3,0,.5s0,.5,0,.6c0,0-.3,0-.5,0Z" style="fill: #fff;"/>
      <path d="M602.5,681.9v7.6c0,1.1-.3,2-.9,2.6-.6,.6-1.6,.9-2.8,.9s-.7,0-1,0-.6,0-.8,0v-.7c.3,0,.6,0,.9,.2h1c1.1,0,1.8-.3,2.3-.8s.7-1.3,.7-2.3v-1.1c-.2,.6-.5,1-1,1.3s-1.1,.5-2,.5-1.1,0-1.5-.3c-.4-.2-.7-.4-1-.8-.2-.3-.4-.8-.5-1.3s-.2-1.1-.2-1.8,0-1.2,.2-1.7c0-.5,.3-1,.5-1.3,.2-.4,.6-.6,1-.8s.9-.3,1.5-.3,.8,0,1.2,0c.3,0,.6,.2,.8,.4l.6,.6c.2,.2,.3,.5,.4,.8v-1.7h.6Zm-3.5,7.6c.6,0,1,0,1.4-.3s.7-.4,.9-.7,.4-.7,.5-1.1,0-.9,0-1.4,0-1,0-1.4c0-.4-.2-.8-.5-1.1s-.5-.6-.9-.7-.8-.3-1.4-.3-1,0-1.3,.2-.6,.4-.8,.7-.3,.7-.4,1.1c0,.4,0,.9,0,1.5s0,1.1,0,1.5c0,.4,.2,.8,.4,1.1s.5,.5,.8,.7,.8,.2,1.3,.2Z" style="fill: #fff;"/>
      <path d="M611.2,685.1v.8l-5.8,.4c0,.6,0,1.1,.2,1.5,0,.4,.3,.8,.5,1,.2,.3,.5,.5,.9,.6s.8,.2,1.4,.2,.9,0,1.3,0c.5,0,.9-.2,1.2-.4v.7c0,0-.3,0-.5,.2-.2,0-.4,0-.6,.2-.2,0-.5,0-.7,0h-.8c-.6,0-1.2,0-1.6-.2-.5,0-.8-.4-1.1-.7s-.5-.8-.6-1.3-.2-1.2-.2-2,0-1.5,.2-2,.3-1,.6-1.3,.6-.6,1.1-.7c.4,0,1-.2,1.6-.2s1.2,0,1.6,.3c.4,.2,.7,.5,.9,.8s.3,.7,.4,1.1,0,.8,0,1.2v-.2Zm-.7,.2v-1.2c0-.4-.2-.7-.3-.9-.2-.3-.4-.5-.7-.6s-.7-.2-1.3-.2-1,0-1.3,.2c-.4,0-.6,.3-.8,.6s-.4,.6-.5,1c0,.4,0,.9-.2,1.5l5.1-.4h0Z" style="fill: #fff;"/>
      <path d="M619.6,685.1v.8l-5.8,.4c0,.6,0,1.1,.2,1.5,0,.4,.3,.8,.5,1,.2,.3,.5,.5,.9,.6s.8,.2,1.4,.2,.9,0,1.3,0c.5,0,.9-.2,1.2-.4v.7c0,0-.3,0-.5,.2-.2,0-.4,0-.6,.2-.2,0-.5,0-.7,0h-.8c-.6,0-1.2,0-1.6-.2-.5,0-.8-.4-1.1-.7s-.5-.8-.6-1.3-.2-1.2-.2-2,0-1.5,.2-2,.3-1,.6-1.3,.6-.6,1.1-.7c.4,0,1-.2,1.6-.2s1.2,0,1.6,.3c.4,.2,.7,.5,.9,.8s.3,.7,.4,1.1,0,.8,0,1.2v-.2Zm-.7,.2v-1.2c0-.4-.2-.7-.3-.9-.2-.3-.4-.5-.7-.6s-.7-.2-1.3-.2-1,0-1.3,.2c-.4,0-.6,.3-.8,.6s-.4,.6-.5,1c0,.4,0,.9-.2,1.5l5.1-.4h0Z" style="fill: #fff;"/>
      <path d="M627.9,685.1v.8l-5.8,.4c0,.6,0,1.1,.2,1.5,0,.4,.3,.8,.5,1,.2,.3,.5,.5,.9,.6s.8,.2,1.4,.2,.9,0,1.3,0c.5,0,.9-.2,1.2-.4v.7c0,0-.3,0-.5,.2-.2,0-.4,0-.6,.2-.2,0-.5,0-.7,0h-.8c-.6,0-1.2,0-1.6-.2-.5,0-.8-.4-1.1-.7s-.5-.8-.6-1.3-.2-1.2-.2-2,0-1.5,.2-2,.3-1,.6-1.3,.6-.6,1.1-.7c.4,0,1-.2,1.6-.2s1.2,0,1.6,.3c.4,.2,.7,.5,.9,.8s.3,.7,.4,1.1,0,.8,0,1.2v-.2Zm-.7,.2v-1.2c0-.4-.2-.7-.3-.9-.2-.3-.4-.5-.7-.6s-.7-.2-1.3-.2-1,0-1.3,.2c-.4,0-.6,.3-.8,.6s-.4,.6-.5,1c0,.4,0,.9-.2,1.5l5.1-.4h0Z" style="fill: #fff;"/>
      <path d="M632.4,689.5h1.1v.6h-2c-.3,0-.5-.2-.6-.4-.2-.2-.3-.4-.3-.8s0-.8,0-1.3v-5.1h-1.3v-.6h1.3v-1.9h.7v1.9h2.3v.6h-2.3v6c0,.2,0,.4,.2,.6s.2,.2,.4,.3h.6Z" style="fill: #fff;"/>
      <path d="M640.8,685.1v.8l-5.8,.4c0,.6,0,1.1,.2,1.5,0,.4,.3,.8,.5,1,.2,.3,.5,.5,.9,.6s.8,.2,1.4,.2,.9,0,1.3,0c.5,0,.9-.2,1.2-.4v.7c0,0-.3,0-.5,.2-.2,0-.4,0-.6,.2-.2,0-.5,0-.7,0h-.8c-.6,0-1.2,0-1.6-.2-.5,0-.8-.4-1.1-.7s-.5-.8-.6-1.3-.2-1.2-.2-2,0-1.5,.2-2,.3-1,.6-1.3,.6-.6,1.1-.7c.4,0,1-.2,1.6-.2s1.2,0,1.6,.3c.4,.2,.7,.5,.9,.8s.3,.7,.4,1.1,0,.8,0,1.2v-.2Zm-.7,.2v-1.2c0-.4-.2-.7-.3-.9-.2-.3-.4-.5-.7-.6s-.7-.2-1.3-.2-1,0-1.3,.2c-.4,0-.6,.3-.8,.6s-.4,.6-.5,1c0,.4,0,.9-.2,1.5l5.1-.4h0Z" style="fill: #fff;"/>
      <path d="M646.1,690.2c-.6,0-1.1,0-1.6-.2-.4,0-.8-.4-1.1-.7s-.5-.8-.6-1.3-.2-1.2-.2-2,0-1.5,.2-2c0-.5,.3-1,.6-1.3s.6-.6,1.1-.7c.4,0,.9-.2,1.6-.2h1.2c.3,0,.7,0,.9,.2v.7c-.3,0-.6-.2-1-.2h-1.1c-.4,0-.9,0-1.3,.2-.3,0-.6,.3-.8,.6s-.4,.6-.5,1.1c0,.5,0,1,0,1.7s0,1.2,0,1.7c0,.5,.2,.8,.5,1.1,.2,.3,.5,.5,.8,.6s.8,.2,1.3,.2,.8,0,1.2,0c.3,0,.7-.2,1-.3v.7c-.2,0-.5,.2-.9,.3-.4,0-.8,0-1.2,0v-.2Z" style="fill: #fff;"/>
      <path d="M653.7,681.7c.5,0,.9,0,1.3,.2,.3,0,.6,.3,.8,.5s.3,.5,.4,.8c0,.3,0,.7,0,1.1v5.7h-.7v-6.4c0-.3-.2-.6-.3-.7-.2-.2-.4-.3-.6-.4s-.6,0-1,0h-.8c-.3,0-.5,0-.8,.3s-.5,.3-.7,.6-.3,.6-.4,1v5.7h-.7v-11.5h.7v4.7c0-.3,.2-.5,.4-.7s.4-.4,.7-.5,.5-.2,.8-.3,.6,0,.9,0h0Z" style="fill: #fff;"/>
      <path d="M659.6,690.2c-.2,0-.4,0-.5,0,0,0,0-.3,0-.6s0-.5,0-.5c0,0,.3,0,.5,0s.4,0,.5,0c0,0,0,.3,0,.5s0,.5,0,.6c0,0-.3,0-.5,0Z" style="fill: #fff;"/>
      <path d="M665.2,690.2c-.6,0-1.1,0-1.6-.2-.4,0-.8-.4-1.1-.7s-.5-.8-.6-1.3-.2-1.2-.2-2,0-1.5,.2-2c0-.5,.3-1,.6-1.3s.6-.6,1.1-.7c.4,0,.9-.2,1.6-.2h1.2c.3,0,.7,0,.9,.2v.7c-.3,0-.6-.2-1-.2h-1.1c-.4,0-.9,0-1.3,.2-.3,0-.6,.3-.8,.6s-.4,.6-.5,1.1c0,.5,0,1,0,1.7s0,1.2,0,1.7c0,.5,.2,.8,.5,1.1,.2,.3,.5,.5,.8,.6s.8,.2,1.3,.2,.8,0,1.2,0c.3,0,.7-.2,1-.3v.7c-.2,0-.5,.2-.9,.3-.4,0-.8,0-1.2,0v-.2Z" style="fill: #fff;"/>
      <path d="M672.4,690.2c-.6,0-1.2,0-1.6-.2-.4,0-.8-.4-1.1-.7s-.5-.8-.6-1.3-.2-1.2-.2-2,0-1.5,.2-2c0-.5,.3-1,.6-1.3s.6-.6,1.1-.7,1-.2,1.6-.2,1.1,0,1.6,.2c.4,0,.8,.4,1.1,.7s.5,.8,.6,1.3,.2,1.2,.2,2,0,1.5-.2,2c0,.5-.3,1-.6,1.3s-.7,.6-1.1,.7c-.4,0-1,.2-1.6,.2Zm0-.6c.5,0,1,0,1.4-.2,.4,0,.6-.3,.9-.6,.2-.3,.4-.7,.5-1.1s0-1,0-1.7,0-1.2,0-1.7-.2-.8-.5-1.1-.5-.5-.9-.6-.8-.2-1.3-.2-1,0-1.3,.2c-.4,0-.6,.3-.9,.6-.2,.3-.4,.7-.4,1.1s0,1,0,1.7,0,1.2,0,1.7c0,.5,.2,.8,.4,1.1s.5,.5,.9,.6,.8,.2,1.3,.2h0Z" style="fill: #fff;"/>
      <path d="M686.4,681.7c.5,0,.9,0,1.2,.2,.3,0,.6,.3,.8,.5s.3,.5,.4,.8c0,.3,0,.7,0,1.1v5.7h-.7v-6.4c0-.3,0-.6-.3-.7,0-.2-.3-.3-.6-.4-.2,0-.6,0-.9,0h-.8c-.3,0-.5,0-.7,.3-.2,0-.4,.3-.6,.6-.2,.3-.3,.6-.4,1h0v5.7h-.7v-6.4c0-.3,0-.6-.3-.7,0-.2-.3-.3-.6-.4s-.6,0-.9,0h-.8c-.3,0-.5,0-.7,.3-.2,0-.4,.3-.6,.6-.2,.2-.3,.6-.4,1v5.8h-.7v-8.2h.7v1.4c0-.3,.2-.5,.4-.7s.4-.3,.6-.5c.2,0,.5-.2,.7-.3s.6,0,.8,0c.7,0,1.3,0,1.6,.4,.4,.3,.6,.7,.7,1.2,0-.3,.2-.5,.4-.7s.4-.4,.6-.5,.5-.2,.8-.3,.6,0,.9,0v-.2Z" style="fill: #fff;"/>
    </g>
  </g>
  <g>
    <path d="M28.3,690c-.4,0-.6,0-.7,0h0c-.3,0-.6-.1-.9-.2l-1.6-.6c-.3-.1-.7-.4-1.2-.7l-1.1-.9c-1-.9-1.7-2.3-2.3-4.1-.4-1.5-.6-3.4-.6-5.6s.3-4.3,1-6c.8-2.1,2.2-3.7,4.2-4.8,.6-.3,1.3-.6,2.3-.7,.9-.1,5.1-.2,12.5-.2v4.2h-9.8c-1.9,0-3.3,.8-4.1,2.4-.7,1.2-1,2.8-1,4.8v2.5c.1,.4,.2,.6,.2,.8h0c0,.4,0,.8,.2,1,.2,1.2,.7,2.2,1.5,2.9,.8,.7,3.6,1.1,8.4,1.1v-5.6h-6.1v-4.2h10.7v14.2h-11.6Z" style="fill: #fff; fill-rule: evenodd;"/>
    <path d="M52.4,690h-1.9c0-.1-.7-.1-.7-.1-.2,0-.4,0-.6-.1-.1,0-.2,0-.2,0-.1,0-.2,0-.3,0-2.2-.6-3.8-2-5-4.2-.5-.9-.8-1.9-1.1-2.9-.3-1-.4-2.1-.4-3.2,0-2.2,.2-4.1,.5-5.6,.3-1.6,.9-2.9,1.6-4,.9-1.3,2-2.2,3.3-2.7,.5-.2,1.3-.4,2.3-.6,.9-.1,4.2-.2,10.1-.2v4.2h-7.5c-3.4,0-5.1,1.9-5.1,5.6h12.6v4.2h-12.6c0,1,0,1.8,.2,2.4,0,.4,.2,.7,.3,1,.1,.2,.3,.5,.5,.8l.8,.9c.3,.2,.6,.4,1,.5,.4,.1,.8,.2,1.1,.2h8.7v4.2h-7.7Z" style="fill: #fff; fill-rule: evenodd;"/>
    <path d="M72.9,690h-1.9c0-.1-.7-.1-.7-.1-.2,0-.4,0-.6-.1-.1,0-.2,0-.2,0-.1,0-.2,0-.3,0-2.2-.6-3.8-2-5-4.2-.5-.9-.8-1.9-1.1-2.9-.3-1-.4-2.1-.4-3.2,0-2.2,.2-4.1,.5-5.6,.3-1.6,.9-2.9,1.6-4,.9-1.3,2-2.2,3.3-2.7,.5-.2,1.3-.4,2.3-.6,.9-.1,4.2-.2,10.1-.2v4.2h-7.5c-3.4,0-5.1,1.9-5.1,5.6h12.6v4.2h-12.6c0,1,0,1.8,.2,2.4,0,.4,.2,.7,.3,1,.1,.2,.3,.5,.5,.8l.8,.9c.3,.2,.6,.4,1,.5,.4,.1,.8,.2,1.1,.2h8.7v4.2h-7.7Z" style="fill: #fff; fill-rule: evenodd;"/>
    <path d="M93.3,690h-1.9c0-.1-.7-.1-.7-.1-.2,0-.4,0-.6-.1-.1,0-.2,0-.2,0-.1,0-.2,0-.3,0-2.2-.6-3.8-2-5-4.2-.5-.9-.8-1.9-1.1-2.9-.3-1-.4-2.1-.4-3.2,0-2.2,.2-4.1,.5-5.6,.3-1.6,.9-2.9,1.6-4,.9-1.3,2-2.2,3.3-2.7,.5-.2,1.3-.4,2.3-.6,.9-.1,4.2-.2,10.1-.2v4.2h-7.5c-3.4,0-5.1,1.9-5.1,5.6h12.6v4.2h-12.6c0,1,0,1.8,.2,2.4,0,.4,.2,.7,.3,1,.1,.2,.3,.5,.5,.8l.8,.9c.3,.2,.6,.4,1,.5,.4,.1,.8,.2,1.1,.2h8.7v4.2h-7.7Z" style="fill: #fff; fill-rule: evenodd;"/>
    <polygon points="114.5 670.2 114.5 690 109.7 690 109.7 670.2 102.8 670.2 102.8 666.1 121.5 666.1 121.5 670.2 114.5 670.2" style="fill: #fff; fill-rule: evenodd;"/>
    <path d="M132.5,690h-1.9c0-.1-.7-.1-.7-.1-.2,0-.4,0-.6-.1-.1,0-.2,0-.2,0-.1,0-.2,0-.3,0-2.2-.6-3.8-2-5-4.2-.5-.9-.8-1.9-1.1-2.9-.3-1-.4-2.1-.4-3.2,0-2.2,.2-4.1,.5-5.6,.3-1.6,.9-2.9,1.6-4,.9-1.3,2-2.2,3.3-2.7,.5-.2,1.3-.4,2.3-.6,.9-.1,4.2-.2,10.1-.2v4.2h-7.5c-3.4,0-5.1,1.9-5.1,5.6h12.6v4.2h-12.6c0,1,0,1.8,.2,2.4,0,.4,.2,.7,.3,1,.1,.2,.3,.5,.5,.8l.8,.9c.3,.2,.6,.4,1,.5,.4,.1,.8,.2,1.1,.2h8.7v4.2h-7.7Z" style="fill: #fff; fill-rule: evenodd;"/>
    <path d="M152.9,690h-1.9c0-.1-.7-.1-.7-.1-.2,0-.4,0-.6-.1-.1,0-.2,0-.2,0-.1,0-.2,0-.3,0-2.2-.6-3.8-2-5-4.2-1-1.9-1.5-4-1.5-6.1s.2-4.1,.5-5.6c.3-1.6,.9-2.9,1.6-4,.9-1.3,2-2.2,3.3-2.7,.8-.3,1.6-.5,2.3-.6,.8-.1,4.2-.2,10.1-.2v4.1h-7.5c-1.5,0-2.6,.4-3.5,1.3-.7,.8-1.2,1.8-1.5,3.1-.3,1.4-.4,2.8-.4,4.2s.2,2.9,.5,4.1c.5,1.5,1.4,2.4,2.5,2.8h.5c0,.1,.5,.2,.5,.2h8.7v4.2h-7.7Z" style="fill: #fff; fill-rule: evenodd;"/>
    <polygon points="176.9 690 176.9 680 168.6 680 168.6 690 164 690 164 666 168.6 666 168.6 675.7 176.9 675.7 176.9 666 181.5 666 181.5 690 176.9 690" style="fill: #fff; fill-rule: evenodd;"/>
  </g>
  <rect x="1.4" y="1.4" width="705.8" height="705.8" style="fill: none; stroke: #fff; stroke-miterlimit: 10; stroke-width: .8px;"/>
  <line x1="199" y1="679" x2="537.8" y2="679" style="fill: none; stroke: #fff; stroke-miterlimit: 10; stroke-width: .8px;"/>
  <line x1="1.4" y1="650.8" x2="537.8" y2="650.8" style="fill: none; stroke: #fff; stroke-miterlimit: 10; stroke-width: .8px;"/>
  <line x1="1.4" y1="622.5" x2="707.2" y2="622.5" style="fill: none; stroke: #fff; stroke-miterlimit: 10; stroke-width: .8px;"/>
  <line x1="1.4" y1="594.3" x2="707.2" y2="594.3" style="fill: none; stroke: #fff; stroke-miterlimit: 10; stroke-width: .8px;"/>
  <line x1="1.4" y1="566.1" x2="707.2" y2="566.1" style="fill: none; stroke: #fff; stroke-miterlimit: 10; stroke-width: .8px;"/>
  <line x1="1.4" y1="537.8" x2="707.2" y2="537.8" style="fill: none; stroke: #fff; stroke-miterlimit: 10; stroke-width: .8px;"/>
  <line x1="1.4" y1="509.6" x2="707.2" y2="509.6" style="fill: none; stroke: #fff; stroke-miterlimit: 10; stroke-width: .8px;"/>
  <line x1="1.4" y1="481.4" x2="707.2" y2="481.4" style="fill: none; stroke: #fff; stroke-miterlimit: 10; stroke-width: .8px;"/>
  <line x1="1.4" y1="453.1" x2="707.2" y2="453.1" style="fill: none; stroke: #fff; stroke-miterlimit: 10; stroke-width: .8px;"/>
  <line x1="1.4" y1="424.9" x2="707.2" y2="424.9" style="fill: none; stroke: #fff; stroke-miterlimit: 10; stroke-width: .8px;"/>
  <line x1="1.4" y1="396.7" x2="707.2" y2="396.7" style="fill: none; stroke: #fff; stroke-miterlimit: 10; stroke-width: .8px;"/>
  <line x1="1.4" y1="368.4" x2="707.2" y2="368.4" style="fill: none; stroke: #fff; stroke-miterlimit: 10; stroke-width: .8px;"/>
  <line x1="1.4" y1="340.2" x2="707.2" y2="340.2" style="fill: none; stroke: #fff; stroke-miterlimit: 10; stroke-width: .8px;"/>
  <line x1="1.4" y1="312" x2="707.2" y2="312" style="fill: none; stroke: #fff; stroke-miterlimit: 10; stroke-width: .8px;"/>
  <line x1="1.4" y1="283.7" x2="707.2" y2="283.7" style="fill: none; stroke: #fff; stroke-miterlimit: 10; stroke-width: .8px;"/>
  <line x1="1.4" y1="255.5" x2="707.2" y2="255.5" style="fill: none; stroke: #fff; stroke-miterlimit: 10; stroke-width: .8px;"/>
  <line x1="1.4" y1="227.3" x2="707.2" y2="227.3" style="fill: none; stroke: #fff; stroke-miterlimit: 10; stroke-width: .8px;"/>
  <line x1="1.4" y1="199" x2="707.2" y2="199" style="fill: none; stroke: #fff; stroke-miterlimit: 10; stroke-width: .8px;"/>
  <line x1="1.4" y1="170.8" x2="707.2" y2="170.8" style="fill: none; stroke: #fff; stroke-miterlimit: 10; stroke-width: .8px;"/>
  <line x1="1.4" y1="142.6" x2="707.2" y2="142.6" style="fill: none; stroke: #fff; stroke-miterlimit: 10; stroke-width: .8px;"/>
  <line x1="1.4" y1="114.3" x2="707.2" y2="114.3" style="fill: none; stroke: #fff; stroke-miterlimit: 10; stroke-width: .8px;"/>
  <line x1="1.4" y1="86.1" x2="707.2" y2="86.1" style="fill: none; stroke: #fff; stroke-miterlimit: 10; stroke-width: .8px;"/>
  <line x1="1.4" y1="57.9" x2="707.2" y2="57.9" style="fill: none; stroke: #fff; stroke-miterlimit: 10; stroke-width: .8px;"/>
  <line x1="1.4" y1="29.7" x2="707.2" y2="29.7" style="fill: none; stroke: #fff; stroke-miterlimit: 10; stroke-width: .8px;"/>
  <line x1="679" y1="1.4" x2="679" y2="622.5" style="fill: none; stroke: #fff; stroke-miterlimit: 10; stroke-width: .8px;"/>
  <line x1="650.8" y1="1.4" x2="650.8" y2="622.5" style="fill: none; stroke: #fff; stroke-miterlimit: 10; stroke-width: .8px;"/>
  <line x1="622.5" y1="1.4" x2="622.5" y2="622.5" style="fill: none; stroke: #fff; stroke-miterlimit: 10; stroke-width: .8px;"/>
  <line x1="594.3" y1="1.4" x2="594.3" y2="622.5" style="fill: none; stroke: #fff; stroke-miterlimit: 10; stroke-width: .8px;"/>
  <line x1="566.1" y1="1.4" x2="566.1" y2="622.5" style="fill: none; stroke: #fff; stroke-miterlimit: 10; stroke-width: .8px;"/>
  <line x1="537.8" y1="1.4" x2="537.8" y2="707.2" style="fill: none; stroke: #fff; stroke-miterlimit: 10; stroke-width: .8px;"/>
  <line x1="509.6" y1="1.4" x2="509.6" y2="707.2" style="fill: none; stroke: #fff; stroke-miterlimit: 10; stroke-width: .8px;"/>
  <line x1="481.4" y1="1.4" x2="481.4" y2="707.2" style="fill: none; stroke: #fff; stroke-miterlimit: 10; stroke-width: .8px;"/>
  <line x1="453.1" y1="1.4" x2="453.1" y2="707.2" style="fill: none; stroke: #fff; stroke-miterlimit: 10; stroke-width: .8px;"/>
  <line x1="424.9" y1="1.4" x2="424.9" y2="707.2" style="fill: none; stroke: #fff; stroke-miterlimit: 10; stroke-width: .8px;"/>
  <line x1="396.7" y1="1.4" x2="396.7" y2="707.2" style="fill: none; stroke: #fff; stroke-miterlimit: 10; stroke-width: .8px;"/>
  <line x1="368.4" y1="1.4" x2="368.4" y2="707.2" style="fill: none; stroke: #fff; stroke-miterlimit: 10; stroke-width: .8px;"/>
  <line x1="340.2" y1="1.4" x2="340.2" y2="707.2" style="fill: none; stroke: #fff; stroke-miterlimit: 10; stroke-width: .8px;"/>
  <line x1="312" y1="1.4" x2="312" y2="707.2" style="fill: none; stroke: #fff; stroke-miterlimit: 10; stroke-width: .8px;"/>
  <line x1="283.7" y1="1.4" x2="283.7" y2="707.2" style="fill: none; stroke: #fff; stroke-miterlimit: 10; stroke-width: .8px;"/>
  <line x1="255.5" y1="1.4" x2="255.5" y2="707.2" style="fill: none; stroke: #fff; stroke-miterlimit: 10; stroke-width: .8px;"/>
  <line x1="227.3" y1="1.4" x2="227.3" y2="707.2" style="fill: none; stroke: #fff; stroke-miterlimit: 10; stroke-width: .8px;"/>
  <line x1="199" y1="1.4" x2="199" y2="707.2" style="fill: none; stroke: #fff; stroke-miterlimit: 10; stroke-width: .8px;"/>
  <line x1="170.8" y1="1.4" x2="170.8" y2="650.8" style="fill: none; stroke: #fff; stroke-miterlimit: 10; stroke-width: .8px;"/>
  <line x1="142.6" y1="1.4" x2="142.6" y2="650.8" style="fill: none; stroke: #fff; stroke-miterlimit: 10; stroke-width: .8px;"/>
  <line x1="114.3" y1="1.4" x2="114.3" y2="650.8" style="fill: none; stroke: #fff; stroke-miterlimit: 10; stroke-width: .8px;"/>
  <line x1="86.1" y1="1.4" x2="86.1" y2="650.8" style="fill: none; stroke: #fff; stroke-miterlimit: 10; stroke-width: .8px;"/>
  <line x1="57.9" y1="1.4" x2="57.9" y2="650.8" style="fill: none; stroke: #fff; stroke-miterlimit: 10; stroke-width: .8px;"/>
  <line x1="29.7" y1="1.4" x2="29.7" y2="650.8" style="fill: none; stroke: #fff; stroke-miterlimit: 10; stroke-width: .8px;"/>
</svg>