<?xml version="1.0" encoding="UTF-8"?>
<svg id="_图层_1" data-name=" 图层 1" xmlns="http://www.w3.org/2000/svg" width="320mm" height="320mm" viewBox="0 0 907.1 907.1">
  <g>
    <rect x="709.7" y="807.9" width="178.9" height="56.3" style="fill: none;"/>
    <g>
      <path d="M765.8,852.5h0l-20.8-35.8c-.1-.4-.6-.6-1-.6s-.9,.3-1,.6l-20.8,35.8c-.1,.4-.1,.9,0,1.1,.1,.4,.6,.6,1,.6h41.5c.4,0,.9-.3,1-.6,.1-.4,.1-.9,0-1.1h.1Zm-40.5-.6l18.7-32.2,18.7,32.2h-37.3Z" style="fill: #fff;"/>
      <rect x="735" y="847.9" width="18.2" height="1.9" style="fill: #fff;"/>
      <path d="M740.4,846.6l-1-.7c1.9-2.7,.9-4.3-.1-6.2-1.1-1.9-2.4-4.2,0-7.4l1,.7c-1.9,2.6-1,4.3,0,6.2,1.1,1.9,2.4,4.2,0,7.4h.1Z" style="fill: #fff;"/>
      <path d="M744.9,846.6l-1-.7c1.9-2.7,.9-4.3-.1-6.2-1.1-1.9-2.4-4.2,0-7.3l1,.7c-1.9,2.6-1,4.3,0,6.2,1.1,1.9,2.4,4.2,0,7.3h.1Z" style="fill: #fff;"/>
      <path d="M749.3,846.6l-1-.7c1.9-2.7,1-4.3,0-6.2-1.1-2-2.3-4.2,0-7.4l1,.7c-1.9,2.7-1,4.3,0,6.2,1.1,2,2.3,4.2,0,7.4Z" style="fill: #fff;"/>
    </g>
    <g>
      <path d="M776.6,831.7c-.9,0-1.6,0-2.3-.3-.7-.1-1.3-.4-1.7-1-.4-.4-.9-1.1-1.1-1.9-.3-.9-.4-1.9-.4-3.1s0-2.1,.4-2.9c.3-.9,.6-1.4,1.1-1.9,.4-.4,1-.9,1.7-1,.7-.1,1.4-.3,2.3-.3h1.4c.4,0,.9,.1,1.1,.3v1.4c-.3,0-.7-.3-1.1-.3h-1.4c-.6,0-1.3,0-1.7,.3-.6,.1-.9,.4-1.3,.9-.3,.4-.6,.9-.7,1.4s-.3,1.3-.3,2.3,0,1.7,.3,2.3c.1,.6,.4,1.1,.7,1.4s.7,.6,1.1,.7,1,.3,1.7,.3h1.4c.4,0,.9-.1,1.3-.3v1.3c-.3,.1-.7,.3-1.3,.4-.4,0-1,.1-1.7,.1l.4-.3Z" style="fill: #fff;"/>
      <path d="M785.5,822.1c.7,0,1.3,0,1.9,.3,.4,0,.9,.3,1.1,.6s.4,.6,.6,.9c0,.3,.1,.7,.1,1.1v6.6h-1.3l-.3-1.4c0,.3-.3,.4-.6,.7s-.4,.4-.7,.4-.6,.3-1,.3h-1c-1.1,0-1.9-.3-2.4-.7s-.7-1.1-.7-2,0-1,.3-1.4c.1-.4,.4-.7,.7-.9,.3-.3,.7-.4,1.1-.4s1-.1,1.6-.1h2.9v-1.4c0-.3-.1-.4-.3-.6s-.4-.3-.7-.4h-2.2c-.3,0-.7,0-1,.1v-1.3h2v-.3Zm-1.1,8.4c.7,0,1.4-.1,2-.4s1-.7,1.1-1.3v-1.6h-3.7c-.3,0-.6,0-.7,.3s-.3,.3-.4,.6v.9c0,.6,0,.9,.4,1.1s.7,.4,1.4,.4h-.1Z" style="fill: #fff;"/>
      <path d="M799.9,822.3v9.3h-1.3v-1.3l-.7,.7c-.1,.1-.4,.3-.7,.4-.3,0-.6,.1-.9,.3h-.9c-.6,0-1.1,0-1.6-.3-.4-.1-.7-.3-1-.6s-.4-.6-.4-1-.1-.7-.1-1.3v-6.4h1.4v6.9c0,.3,0,.6,.3,.7s.3,.3,.6,.4,.6,.1,.9,.1h.9c.3,0,.6,0,.7-.3s.4-.3,.6-.6c.1-.3,.3-.6,.4-1v-6.3h1.9Z" style="fill: #fff;"/>
      <path d="M806,830.4h1v1.3h-2.4c-.3,0-.6-.3-.9-.4-.3-.3-.4-.6-.4-.9,0-.4-.1-.9-.1-1.4v-5.3h-1.4v-1.3h1.4v-2.1h1.4v2.1h2.3v1.3h-2.3v6c0,.1,0,.4,.1,.6s.3,.3,.4,.3h.9Z" style="fill: #fff;"/>
      <path d="M809.6,820.5c-.3,0-.6,0-.7-.1,0,0-.1-.3-.1-.7s0-.6,.1-.7c0,0,.4-.1,.7-.1s.6,0,.7,.1c0,0,.1,.3,.1,.7s0,.6-.1,.7c0,0-.4,.1-.7,.1Zm-.7,1.7h1.4v9.3h-1.4v-9.3Z" style="fill: #fff;"/>
      <path d="M817.4,831.7c-.7,0-1.3,0-1.9-.3-.6-.1-1-.4-1.3-.9-.4-.4-.7-.9-.9-1.4s-.3-1.4-.3-2.3,0-1.7,.3-2.3c.1-.6,.4-1.1,.9-1.4,.4-.4,.9-.6,1.3-.9,.6-.1,1.1-.3,1.9-.3s1.3,0,1.9,.3c.6,.1,1,.4,1.3,.9,.4,.4,.6,.9,.9,1.4,.1,.6,.3,1.4,.3,2.3s0,1.7-.3,2.3c-.1,.6-.4,1.1-.9,1.4-.4,.4-.9,.6-1.3,.9-.6,.1-1.1,.3-1.9,.3Zm0-1.3c.6,0,1,0,1.3-.1s.6-.3,.9-.6c.1-.3,.3-.6,.4-1.1s0-1,0-1.7v-1.7c0-.4-.3-.9-.4-1.1s-.4-.4-.9-.6c-.3,0-.7-.1-1.3-.1s-1,0-1.3,.1c-.3,0-.6,.3-.9,.6-.1,.3-.4,.7-.4,1.1v3.4c0,.4,.3,.9,.4,1.1,.3,.3,.4,.4,.9,.6s.7,.1,1.3,.1Z" style="fill: #fff;"/>
      <path d="M828.7,822.1c.6,0,1.1,0,1.6,.3,.4,.1,.7,.4,1,.6,.3,.3,.4,.6,.6,1,0,.4,.1,.7,.1,1.3v6.4h-1.4v-6.9c0-.3,0-.6-.3-.7,0-.1-.3-.3-.6-.4s-.6-.1-.9-.1h-.9c-.3,0-.6,0-.9,.3s-.4,.3-.7,.6-.4,.6-.4,1v6.3h-1.4v-9.3h1.4v1.3c0-.3,.3-.6,.6-.7s.4-.3,.7-.4,.6-.1,.9-.3,.6,0,.9,0h-.3Z" style="fill: #fff;"/>
      <path d="M848.5,819.5v12h-1.6v-5.9h-5.9v5.9h-1.6v-12h1.6v4.9h5.9v-4.9h1.6Z" style="fill: #fff;"/>
      <path d="M852.4,820.5c-.3,0-.6,0-.7-.1,0,0-.1-.3-.1-.7s0-.6,.1-.7c0,0,.4-.1,.7-.1s.6,0,.7,.1c0,0,.1,.3,.1,.7s0,.6-.1,.7c0,0-.4,.1-.7,.1Zm-.7,1.7h1.4v9.3h-1.4v-9.3Z" style="fill: #fff;"/>
      <path d="M864.1,822.3v8.7c0,1.3-.4,2.3-1.1,3s-1.9,1.1-3.4,1.1-.9,0-1.1,0c-.4,0-.7,0-1-.1v-1.3c.7,0,1.4,.1,2.3,.1s1.9-.3,2.3-.7,.7-1.3,.7-2.3v-1c-.1,.6-.6,1-1,1.3s-1.1,.4-2,.4-1.4,0-1.9-.3-.9-.6-1.1-1-.4-.9-.6-1.4c0-.6-.1-1.3-.1-2s0-1.3,.1-1.9c0-.6,.3-1.1,.6-1.6s.7-.7,1.1-1,1.1-.4,1.9-.4,.9,0,1.3,.1c.3,0,.6,.3,.9,.4,.3,.1,.4,.4,.6,.6,.1,.3,.3,.4,.4,.7v-1.7h1.3Zm-4.3,8.2c.6,0,1,0,1.4-.3,.4-.1,.7-.4,.9-.7s.4-.7,.4-1.1v-2.9c0-.4-.3-.9-.4-1.1s-.6-.6-.9-.7-.9-.3-1.4-.3-1,0-1.3,.3c-.3,.1-.6,.4-.7,.7s-.3,.7-.3,1.1v2.7c0,.4,.1,.9,.3,1.1,.1,.3,.4,.6,.7,.7s.7,.3,1.3,.3h0Z" style="fill: #fff;"/>
      <path d="M871.7,822.1c.6,0,1.1,0,1.6,.3,.4,.1,.7,.4,1,.6,.3,.3,.4,.6,.6,1,0,.4,.1,.7,.1,1.3v6.4h-1.4v-6.9c0-.3,0-.6-.3-.7,0-.1-.3-.3-.6-.4s-.6-.1-.9-.1h-.9c-.3,0-.6,0-.9,.3s-.4,.3-.7,.6-.4,.6-.4,1v6.3h-1.4v-13.2h1.4v5.2c0-.3,.3-.6,.6-.7s.4-.3,.7-.4,.6-.1,.9-.3,.6,0,.9,0h-.3Z" style="fill: #fff;"/>
      <path d="M778.8,841.7h-3.4v10.6h-1.6v-10.6h-3.4v-1.4h8.6v1.4h-.1Z" style="fill: #fff;"/>
      <path d="M787.5,846.6v1l-6.3,.4c0,.6,0,1,.1,1.3,0,.4,.3,.7,.4,.9,.3,.3,.6,.4,.9,.6,.4,0,.9,.1,1.4,.1s1,0,1.6-.1,1-.3,1.3-.4v1.4s-.3,0-.6,.1c-.3,0-.4,0-.7,.1h-1.9c-.7,0-1.3,0-1.9-.3-.6-.1-1-.4-1.3-.9-.4-.4-.7-.9-.9-1.4s-.3-1.4-.3-2.3,0-1.7,.3-2.3c.1-.6,.4-1.1,.9-1.4,.4-.4,.9-.6,1.3-.9,.6-.1,1.1-.3,1.7-.3s1.4,0,1.9,.3,.9,.6,1.1,.9c.3,.4,.4,.9,.6,1.3v1.4l.3,.4Zm-1.4,0v-1c0-.3-.1-.6-.3-.9s-.4-.4-.7-.6c-.3-.1-.7-.3-1.1-.3s-1,0-1.3,.1c-.3,0-.6,.3-.9,.6-.1,.3-.3,.6-.4,1v1.3l4.9-.4h-.1Z" style="fill: #fff;"/>
      <path d="M800.3,842.7c.6,0,1,0,1.4,.3,.4,.1,.7,.4,1,.6,.3,.3,.4,.6,.6,1,0,.4,.1,.7,.1,1.3v6.4h-1.4v-5.9c0-.7,0-1.3-.4-1.7-.3-.4-.7-.6-1.4-.6h-.7c-.1,0-.4,0-.7,.3-.1,0-.4,.3-.6,.4-.1,.1-.3,.4-.4,.9h0v6.6h-1.4v-5.9c0-.7,0-1.3-.3-1.7s-.7-.6-1.4-.6h-.9c-.3,0-.4,0-.7,.3-.1,0-.4,.3-.6,.6-.1,.3-.3,.6-.4,.9v6.4h-1.4v-9.3h1.4v1.3c.3-.6,.7-.9,1.1-1.1,.4-.1,1-.3,1.6-.3s1.3,0,1.7,.4c.4,.3,.7,.6,1,1.1,0-.3,.3-.6,.6-.7,.1-.1,.4-.3,.7-.4,.3,0,.6-.1,.9-.3s.6,0,.9,0v-.3Z" style="fill: #fff;"/>
      <path d="M811.3,842.7c.7,0,1.4,0,1.9,.3s.9,.6,1.1,1,.4,1,.6,1.6c0,.6,.1,1.3,.1,2s0,1.3-.1,1.9c0,.6-.3,1.1-.6,1.6s-.7,.9-1.1,1c-.4,.3-1.1,.4-1.9,.4s-1.6-.1-2-.4c-.4-.3-.7-.7-1-1.3v5h-1.4v-12.7h1.4v1.7c.1-.6,.6-1,1-1.3s1.1-.6,2-.6h0Zm-.1,8.3c.6,0,1,0,1.3-.3s.6-.4,.7-.9c.1-.3,.3-.7,.3-1.1v-2.7c0-.4-.1-.9-.3-1.1-.1-.3-.4-.6-.7-.7s-.7-.3-1.3-.3-1,0-1.4,.3-.7,.4-.9,.7c-.3,.3-.4,.7-.4,1.1v2.9c0,.4,.3,.9,.4,1.1,.3,.3,.6,.6,.9,.7,.4,.1,.9,.3,1.4,.3Z" style="fill: #fff;"/>
      <path d="M825.7,846.6v1l-6.3,.4c0,.6,0,1,.1,1.3,0,.4,.3,.7,.4,.9,.3,.3,.6,.4,.9,.6,.4,0,.9,.1,1.4,.1s1,0,1.6-.1,1-.3,1.3-.4v1.4s-.3,0-.6,.1c-.3,0-.4,0-.7,.1h-1.9c-.7,0-1.3,0-1.9-.3-.6-.1-1-.4-1.3-.9-.4-.4-.7-.9-.9-1.4s-.3-1.4-.3-2.3,0-1.7,.3-2.3c.1-.6,.4-1.1,.9-1.4,.4-.4,.9-.6,1.3-.9,.6-.1,1.1-.3,1.7-.3s1.4,0,1.9,.3,.9,.6,1.1,.9c.3,.4,.4,.9,.6,1.3v1.4l.3,.4Zm-1.4,0v-1c0-.3-.1-.6-.3-.9s-.4-.4-.7-.6c-.3-.1-.7-.3-1.1-.3s-1,0-1.3,.1c-.3,0-.6,.3-.9,.6-.1,.3-.3,.6-.4,1v1.3l4.9-.4h-.1Z" style="fill: #fff;"/>
      <path d="M833.3,842.7v1.3h-1.1c-.3,0-.6,.1-.9,.3-.3,.1-.4,.4-.7,.6-.1,.3-.4,.6-.4,1v6.2h-1.4v-9.3h1.4v1.7c.1-.4,.3-.7,.6-1s.4-.4,.7-.6c.3,0,.6-.3,.9-.3h1Z" style="fill: #fff;"/>
      <path d="M838.6,842.7c.7,0,1.3,0,1.9,.3,.4,0,.9,.3,1.1,.6s.4,.6,.6,.9c0,.3,.1,.7,.1,1.1v6.6h-1.3l-.3-1.4c0,.3-.3,.4-.6,.7s-.4,.4-.7,.4-.6,.3-1,.3h-1c-1.1,0-1.9-.3-2.4-.7s-.7-1.1-.7-2,0-1,.3-1.4c.1-.4,.4-.7,.7-.9,.3-.3,.7-.4,1.1-.4s1-.1,1.6-.1h2.9v-1.4c0-.3-.1-.4-.3-.6s-.4-.3-.7-.4h-2.2c-.3,0-.7,0-1,.1v-1.3h2v-.3Zm-1.1,8.4c.7,0,1.4-.1,2-.4s1-.7,1.1-1.3v-1.6h-3.7c-.3,0-.6,0-.7,.3s-.3,.3-.4,.6v.9c0,.6,0,.9,.4,1.1s.7,.4,1.4,.4h-.1Z" style="fill: #fff;"/>
      <path d="M848.8,851.2h1v1.3h-2.4c-.3,0-.6-.3-.9-.4-.3-.3-.4-.6-.4-.9,0-.4-.1-.9-.1-1.4v-5.3h-1.4v-1.3h1.4v-2.1h1.4v2.1h2.3v1.3h-2.3v6c0,.1,0,.4,.1,.6s.3,.3,.4,.3h.9Z" style="fill: #fff;"/>
      <path d="M859.5,842.9v9.3h-1.3v-1.3l-.7,.7c-.1,.1-.4,.3-.7,.4-.3,0-.6,.1-.9,.3h-.9c-.6,0-1.1,0-1.6-.3-.4-.1-.7-.3-1-.6s-.4-.6-.4-1-.1-.7-.1-1.3v-6.4h1.4v6.9c0,.3,0,.6,.3,.7s.3,.3,.6,.4,.6,.1,.9,.1h.9c.3,0,.6,0,.7-.3s.4-.3,.6-.6c.1-.3,.3-.6,.4-1v-6.3h1.9Z" style="fill: #fff;"/>
      <path d="M867.7,842.7v1.3h-1.1c-.3,0-.6,.1-.9,.3-.3,.1-.4,.4-.7,.6-.1,.3-.4,.6-.4,1v6.2h-1.4v-9.3h1.4v1.7c.1-.4,.3-.7,.6-1s.4-.4,.7-.6c.3,0,.6-.3,.9-.3h1Z" style="fill: #fff;"/>
      <path d="M877.2,846.6v1l-6.3,.4c0,.6,0,1,.1,1.3,0,.4,.3,.7,.4,.9,.3,.3,.6,.4,.9,.6,.4,0,.9,.1,1.4,.1s1,0,1.6-.1,1-.3,1.3-.4v1.4s-.3,0-.6,.1c-.3,0-.4,0-.7,.1h-1.9c-.7,0-1.3,0-1.9-.3-.6-.1-1-.4-1.3-.9-.4-.4-.7-.9-.9-1.4s-.3-1.4-.3-2.3,0-1.7,.3-2.3c.1-.6,.4-1.1,.9-1.4,.4-.4,.9-.6,1.3-.9,.6-.1,1.1-.3,1.7-.3s1.4,0,1.9,.3,.9,.6,1.1,.9c.3,.4,.4,.9,.6,1.3v1.4l.3,.4Zm-1.4,0v-1c0-.3-.1-.6-.3-.9s-.4-.4-.7-.6c-.3-.1-.7-.3-1.1-.3s-1,0-1.3,.1c-.3,0-.6,.3-.9,.6-.1,.3-.3,.6-.4,1v1.3l4.9-.4h-.1Z" style="fill: #fff;"/>
    </g>
    <g>
      <path d="M703.3,872.9h1l2.9,10.6h0l3.4-10.6h1.3l3.6,10.6h0l2.9-10.6h1l-3.3,11.7h-1.1l-3.6-10.7h0l-3.6,10.7h-1.1l-3.3-11.7h0Z" style="fill: #fff;"/>
      <path d="M720.2,872.9h1l2.9,10.6h0l3.4-10.6h1.3l3.6,10.6h0l2.9-10.6h1l-3.3,11.7h-1.1l-3.6-10.7h0l-3.6,10.7h-1.1l-3.3-11.7h0Z" style="fill: #fff;"/>
      <path d="M737,872.9h1l2.9,10.6h0l3.4-10.6h1.3l3.6,10.6h0l2.9-10.6h1l-3.3,11.7h-1.1l-3.6-10.7h0l-3.6,10.7h-1.1l-3.3-11.7h0Z" style="fill: #fff;"/>
      <path d="M754.9,884.8c-.3,0-.6,0-.7-.1,0,0-.1-.4-.1-.9s0-.7,.1-.7c0,0,.4-.1,.7-.1s.6,0,.7,.1c0,0,.1,.4,.1,.7s0,.7-.1,.9c0,0-.4,.1-.7,.1Z" style="fill: #fff;"/>
      <path d="M768.9,872.9v10.9c0,1.6-.4,2.9-1.3,3.7-.9,.9-2.3,1.3-4,1.3s-1,0-1.4,0-.9,0-1.1-.1v-1c.4,0,.9,.1,1.3,.3h1.4c1.6,0,2.6-.4,3.3-1.1,.7-.7,1-1.9,1-3.3v-1.6c-.3,.9-.7,1.4-1.4,1.9s-1.6,.7-2.9,.7-1.6,0-2.2-.4c-.6-.3-1-.6-1.4-1.1-.3-.4-.6-1.1-.7-1.9s-.3-1.6-.3-2.6,0-1.7,.3-2.4c.1-.7,.4-1.4,.7-1.9,.3-.6,.9-.9,1.4-1.1s1.3-.4,2.2-.4,1.1,0,1.7,.1c.4,0,.9,.3,1.1,.6l.9,.9c.3,.3,.4,.7,.6,1.1v-2.4h.9Zm-5,10.9c.9,0,1.4,0,2-.4s1-.6,1.3-1,.6-1,.7-1.6,.1-1.3,.1-2,0-1.4-.1-2c0-.6-.3-1.1-.7-1.6s-.7-.9-1.3-1-1.1-.4-2-.4-1.4,0-1.9,.3-.9,.6-1.1,1-.4,1-.6,1.6c0,.6-.1,1.3-.1,2.1s0,1.6,.1,2.1c0,.6,.3,1.1,.6,1.6s.7,.7,1.1,1,1.1,.3,1.9,.3Z" style="fill: #fff;"/>
      <path d="M781.5,877.5v1.1l-8.3,.6c0,.9,0,1.6,.3,2.1,0,.6,.4,1.1,.7,1.4,.3,.4,.7,.7,1.3,.9,.6,.1,1.1,.3,2,.3s1.3,0,1.9-.1c.7,0,1.3-.3,1.7-.6v1c-.1,0-.4,.1-.7,.3-.3,0-.6,.1-.9,.3-.3,0-.7,0-1,.1h-1.1c-.9,0-1.7,0-2.3-.3-.7-.1-1.1-.6-1.6-1s-.7-1.1-.9-1.9-.3-1.7-.3-2.9,0-2.1,.3-2.9,.4-1.4,.9-1.9,.9-.9,1.6-1c.6-.1,1.4-.3,2.3-.3s1.7,.1,2.3,.4c.6,.3,1,.7,1.3,1.1s.4,1,.6,1.6,0,1.1,0,1.7v-.3Zm-1,.3v-1.7c0-.6-.3-1-.4-1.3-.3-.4-.6-.7-1-.9s-1-.3-1.9-.3-1.4,0-1.9,.3c-.6,.1-.9,.4-1.1,.9s-.6,.9-.7,1.4c0,.6-.1,1.3-.3,2.1l7.3-.6h0Z" style="fill: #fff;"/>
      <path d="M793.5,877.5v1.1l-8.3,.6c0,.9,0,1.6,.3,2.1,0,.6,.4,1.1,.7,1.4,.3,.4,.7,.7,1.3,.9,.6,.1,1.1,.3,2,.3s1.3,0,1.9-.1c.7,0,1.3-.3,1.7-.6v1c-.1,0-.4,.1-.7,.3-.3,0-.6,.1-.9,.3-.3,0-.7,0-1,.1h-1.1c-.9,0-1.7,0-2.3-.3-.7-.1-1.1-.6-1.6-1s-.7-1.1-.9-1.9-.3-1.7-.3-2.9,0-2.1,.3-2.9,.4-1.4,.9-1.9,.9-.9,1.6-1c.6-.1,1.4-.3,2.3-.3s1.7,.1,2.3,.4c.6,.3,1,.7,1.3,1.1s.4,1,.6,1.6,0,1.1,0,1.7v-.3Zm-1,.3v-1.7c0-.6-.3-1-.4-1.3-.3-.4-.6-.7-1-.9s-1-.3-1.9-.3-1.4,0-1.9,.3c-.6,.1-.9,.4-1.1,.9s-.6,.9-.7,1.4c0,.6-.1,1.3-.3,2.1l7.3-.6h0Z" style="fill: #fff;"/>
      <path d="M805.4,877.5v1.1l-8.3,.6c0,.9,0,1.6,.3,2.1,0,.6,.4,1.1,.7,1.4,.3,.4,.7,.7,1.3,.9s1.1,.3,2,.3,1.3,0,1.9-.1c.7,0,1.3-.3,1.7-.6v1c-.1,0-.4,.1-.7,.3-.3,0-.6,.1-.9,.3-.3,0-.7,0-1,.1h-1.1c-.9,0-1.7,0-2.3-.3-.7-.1-1.1-.6-1.6-1s-.7-1.1-.9-1.9-.3-1.7-.3-2.9,0-2.1,.3-2.9,.4-1.4,.9-1.9,.9-.9,1.6-1c.6-.1,1.4-.3,2.3-.3s1.7,.1,2.3,.4c.6,.3,1,.7,1.3,1.1s.4,1,.6,1.6c.1,.6,0,1.1,0,1.7v-.3Zm-1,.3v-1.7c0-.6-.3-1-.4-1.3-.3-.4-.6-.7-1-.9s-1-.3-1.9-.3-1.4,0-1.9,.3c-.6,.1-.9,.4-1.1,.9s-.6,.9-.7,1.4c0,.6-.1,1.3-.3,2.1l7.3-.6h0Z" style="fill: #fff;"/>
      <path d="M811.9,883.8h1.6v.9h-2.9c-.4,0-.7-.3-.9-.6-.3-.3-.4-.6-.4-1.1s-.1-1.1-.1-1.9v-7.3h-1.9v-.9h1.9v-2.7h1v2.7h3.3v.9h-3.3v8.6c0,.3,.1,.6,.3,.9s.3,.3,.6,.4h.9Z" style="fill: #fff;"/>
      <path d="M824.1,877.5v1.1l-8.3,.6c0,.9,0,1.6,.3,2.1,0,.6,.4,1.1,.7,1.4,.3,.4,.7,.7,1.3,.9s1.1,.3,2,.3,1.3,0,1.9-.1c.7,0,1.3-.3,1.7-.6v1c-.1,0-.4,.1-.7,.3-.3,0-.6,.1-.9,.3-.3,0-.7,0-1,.1h-1.1c-.9,0-1.7,0-2.3-.3-.7-.1-1.1-.6-1.6-1s-.7-1.1-.9-1.9-.3-1.7-.3-2.9,0-2.1,.3-2.9,.4-1.4,.9-1.9,.9-.9,1.6-1c.6-.1,1.4-.3,2.3-.3s1.7,.1,2.3,.4c.6,.3,1,.7,1.3,1.1s.4,1,.6,1.6,0,1.1,0,1.7v-.3Zm-1,.3v-1.7c0-.6-.3-1-.4-1.3-.3-.4-.6-.7-1-.9s-1-.3-1.9-.3-1.4,0-1.9,.3c-.6,.1-.9,.4-1.1,.9s-.6,.9-.7,1.4c0,.6-.1,1.3-.3,2.1l7.3-.6h0Z" style="fill: #fff;"/>
      <path d="M831.7,884.8c-.9,0-1.6,0-2.3-.3-.6-.1-1.1-.6-1.6-1s-.7-1.1-.9-1.9-.3-1.7-.3-2.9,0-2.1,.3-2.9c.1-.7,.4-1.4,.9-1.9s.9-.9,1.6-1c.6-.1,1.3-.3,2.3-.3h1.7c.4,0,1,.1,1.3,.3v1c-.4-.1-.9-.3-1.4-.3h-1.6c-.6,0-1.3,0-1.9,.3-.4,.1-.9,.4-1.1,.9s-.6,.9-.7,1.6c0,.7-.1,1.4-.1,2.4s0,1.7,.1,2.4c0,.7,.3,1.1,.7,1.6,.3,.4,.7,.7,1.1,.9s1.1,.3,1.9,.3,1.1,0,1.7-.1c.4,0,1-.3,1.4-.4v1c-.3,0-.7,.3-1.3,.4-.6,0-1.1,.1-1.7,.1v-.3Z" style="fill: #fff;"/>
      <path d="M842.6,872.7c.7,0,1.3,0,1.9,.3,.4,.1,.9,.4,1.1,.7s.4,.7,.6,1.1c0,.4,.1,1,.1,1.6v8.2h-1v-9.2c0-.4-.3-.9-.4-1-.3-.3-.6-.4-.9-.6s-.9-.1-1.4-.1h-1.1c-.4,0-.7,.1-1.1,.4s-.7,.4-1,.9-.4,.9-.6,1.4v8.2h-1v-16.5h1v6.7c0-.4,.3-.7,.6-1s.6-.6,1-.7,.7-.3,1.1-.4,.9,0,1.3,0h-.1Z" style="fill: #fff;"/>
      <path d="M851.2,884.8c-.3,0-.6,0-.7-.1,0,0-.1-.4-.1-.9s0-.7,.1-.7c0,0,.4-.1,.7-.1s.6,0,.7,.1c0,0,.1,.4,.1,.7s0,.7-.1,.9c0,0-.4,.1-.7,.1Z" style="fill: #fff;"/>
      <path d="M859.3,884.8c-.9,0-1.6,0-2.3-.3-.6-.1-1.1-.6-1.6-1s-.7-1.1-.9-1.9c-.1-.7-.3-1.7-.3-2.9s0-2.1,.3-2.9c.1-.7,.4-1.4,.9-1.9s.9-.9,1.6-1c.6-.1,1.3-.3,2.3-.3h1.7c.4,0,1,.1,1.3,.3v1c-.4-.1-.9-.3-1.4-.3h-1.6c-.6,0-1.3,0-1.9,.3-.4,.1-.9,.4-1.1,.9s-.6,.9-.7,1.6c0,.7-.1,1.4-.1,2.4s0,1.7,.1,2.4c0,.7,.3,1.1,.7,1.6,.3,.4,.7,.7,1.1,.9s1.1,.3,1.9,.3,1.1,0,1.7-.1c.4,0,1-.3,1.4-.4v1c-.3,0-.7,.3-1.3,.4-.6,0-1.1,.1-1.7,.1v-.3Z" style="fill: #fff;"/>
      <path d="M869.6,884.8c-.9,0-1.7,0-2.3-.3-.6-.1-1.1-.6-1.6-1s-.7-1.1-.9-1.9-.3-1.7-.3-2.9,0-2.1,.3-2.9c.1-.7,.4-1.4,.9-1.9s.9-.9,1.6-1,1.4-.3,2.3-.3,1.6,0,2.3,.3c.6,.1,1.1,.6,1.6,1s.7,1.1,.9,1.9,.3,1.7,.3,2.9,0,2.1-.3,2.9c-.1,.7-.4,1.4-.9,1.9s-1,.9-1.6,1c-.6,.1-1.4,.3-2.3,.3Zm0-.9c.7,0,1.4,0,2-.3,.6-.1,.9-.4,1.3-.9,.3-.4,.6-1,.7-1.6s.1-1.4,.1-2.4,0-1.7-.1-2.4-.3-1.1-.7-1.6-.7-.7-1.3-.9-1.1-.3-1.9-.3-1.4,0-1.9,.3c-.6,.1-.9,.4-1.3,.9-.3,.4-.6,1-.6,1.6s-.1,1.4-.1,2.4,0,1.7,.1,2.4c0,.7,.3,1.1,.6,1.6s.7,.7,1.3,.9,1.1,.3,1.9,.3h-.1Z" style="fill: #fff;"/>
      <path d="M889.8,872.7c.7,0,1.3,0,1.7,.3,.4,.1,.9,.4,1.1,.7s.4,.7,.6,1.1c0,.4,.1,1,.1,1.6v8.2h-1v-9.2c0-.4-.1-.9-.4-1-.1-.3-.4-.4-.9-.6-.3,0-.9-.1-1.3-.1h-1.1c-.4,0-.7,.1-1,.4-.3,.1-.6,.4-.9,.9-.3,.4-.4,.9-.6,1.4h0v8.2h-1v-9.2c0-.4-.1-.9-.4-1-.1-.3-.4-.4-.9-.6s-.9-.1-1.3-.1h-1.1c-.4,0-.7,.1-1,.4-.3,.1-.6,.4-.9,.9-.3,.3-.4,.9-.6,1.4v8.3h-1v-11.7h1v2c0-.4,.3-.7,.6-1s.6-.4,.9-.7c.3-.1,.7-.3,1-.4s.9,0,1.1,0c1,0,1.9,.1,2.3,.6,.6,.4,.9,1,1,1.7,0-.4,.3-.7,.6-1s.6-.6,.9-.7,.7-.3,1.1-.4,.9,0,1.3,0v-.3Z" style="fill: #fff;"/>
    </g>
  </g>
  <g>
    <path d="M30.4,880.3c-.5,0-.8,0-.9,0h0c-.4-.1-.8-.2-1.2-.3l-2.1-.8c-.4-.2-.9-.5-1.6-1l-1.4-1.2c-1.3-1.2-2.2-3-2.9-5.4-.5-2-.8-4.4-.8-7.3s.4-5.6,1.3-7.7c1-2.7,2.8-4.8,5.5-6.2,.7-.4,1.7-.7,3-.9,1.2-.2,6.6-.3,16.2-.3v5.4h-12.7c-2.4,0-4.2,1-5.4,3.1-.9,1.6-1.3,3.6-1.3,6.2v3.2c.2,.5,.2,.8,.2,1.1h0c0,.6,.1,1,.2,1.3,.3,1.6,1,2.8,2,3.7,1,.9,4.6,1.4,10.9,1.4v-7.3h-7.9v-5.5h13.9v18.4h-15Z" style="fill: #fff; fill-rule: evenodd;"/>
    <path d="M61.6,880.3h-2.5c0-.1-.9-.2-.9-.2-.2,0-.5,0-.7-.1-.2,0-.3,0-.3-.1-.2,0-.3,0-.4,0-2.8-.8-4.9-2.6-6.4-5.5-.6-1.2-1.1-2.4-1.4-3.8-.3-1.3-.5-2.7-.5-4.2,0-2.9,.2-5.3,.6-7.2,.4-2,1.1-3.8,2.1-5.2,1.1-1.7,2.6-2.9,4.3-3.5,.7-.3,1.7-.6,3-.8,1.1-.2,5.5-.3,13.1-.3v5.4h-9.7c-4.4,0-6.7,2.4-6.7,7.3h16.4v5.4h-16.4c0,1.2,0,2.3,.3,3.1,0,.5,.2,.9,.4,1.3,.1,.3,.4,.7,.7,1.1l1.1,1.1c.3,.3,.8,.5,1.3,.7,.5,.2,1,.3,1.5,.3h11.3v5.4h-10Z" style="fill: #fff; fill-rule: evenodd;"/>
    <path d="M88.1,880.3h-2.5c0-.1-.9-.2-.9-.2-.2,0-.5,0-.7-.1-.2,0-.3,0-.3-.1-.2,0-.3,0-.4,0-2.8-.8-4.9-2.6-6.4-5.5-.6-1.2-1.1-2.4-1.4-3.8-.3-1.3-.5-2.7-.5-4.2,0-2.9,.2-5.3,.6-7.2,.4-2,1.1-3.8,2.1-5.2,1.1-1.7,2.6-2.9,4.3-3.5,.7-.3,1.7-.6,3-.8,1.2-.2,5.5-.3,13.1-.3v5.4h-9.7c-4.4,0-6.7,2.4-6.7,7.3h16.4v5.4h-16.4c0,1.2,0,2.3,.3,3.1,0,.5,.2,.9,.4,1.3,.1,.3,.4,.7,.7,1.1l1.1,1.1c.3,.3,.8,.5,1.3,.7,.5,.2,1,.3,1.5,.3h11.3v5.4h-10Z" style="fill: #fff; fill-rule: evenodd;"/>
    <path d="M114.6,880.3h-2.5c0-.1-.9-.2-.9-.2-.2,0-.5,0-.7-.1-.2,0-.3,0-.3-.1-.2,0-.3,0-.4,0-2.8-.8-4.9-2.6-6.4-5.5-.6-1.2-1.1-2.4-1.4-3.8-.3-1.3-.5-2.7-.5-4.2,0-2.9,.2-5.3,.6-7.2,.4-2,1.1-3.8,2.1-5.2,1.1-1.7,2.6-2.9,4.3-3.5,.7-.3,1.7-.6,3-.8,1.1-.2,5.5-.3,13.1-.3v5.4h-9.7c-4.4,0-6.7,2.4-6.7,7.3h16.4v5.4h-16.4c0,1.2,0,2.3,.3,3.1,0,.5,.2,.9,.4,1.3,.1,.3,.4,.7,.7,1.1l1.1,1.1c.3,.3,.8,.5,1.3,.7,.5,.2,1,.3,1.5,.3h11.3v5.4h-10Z" style="fill: #fff; fill-rule: evenodd;"/>
    <polygon points="142 854.7 142 880.3 135.9 880.3 135.9 854.7 126.8 854.7 126.8 849.3 151.1 849.3 151.1 854.7 142 854.7" style="fill: #fff; fill-rule: evenodd;"/>
    <path d="M165.3,880.3h-2.5c0-.1-.9-.2-.9-.2-.2,0-.5,0-.7-.1-.2,0-.3,0-.3-.1-.2,0-.3,0-.4,0-2.8-.8-4.9-2.6-6.4-5.5-.6-1.2-1.1-2.4-1.4-3.8-.3-1.3-.5-2.7-.5-4.2,0-2.9,.2-5.3,.6-7.2,.4-2,1.1-3.8,2.1-5.2,1.1-1.7,2.6-2.9,4.3-3.5,.7-.3,1.7-.6,3-.8,1.1-.2,5.5-.3,13.1-.3v5.4h-9.7c-4.4,0-6.7,2.4-6.7,7.3h16.4v5.4h-16.4c0,1.2,0,2.3,.3,3.1,0,.5,.2,.9,.4,1.3,.1,.3,.4,.7,.7,1.1l1.1,1.1c.3,.3,.8,.5,1.3,.7,.5,.2,1,.3,1.5,.3h11.3v5.4h-10Z" style="fill: #fff; fill-rule: evenodd;"/>
    <path d="M191.8,880.3h-2.5c0-.1-.9-.2-.9-.2-.2,0-.5,0-.7-.1-.2,0-.3,0-.3-.1-.2,0-.3,0-.4,0-2.8-.8-4.9-2.6-6.4-5.5-1.3-2.5-1.9-5.1-1.9-7.9s.2-5.3,.6-7.3c.4-2,1.1-3.8,2.1-5.2,1.1-1.7,2.6-2.9,4.3-3.5,1-.4,2-.6,3-.8,1.1-.2,5.4-.3,13.1-.3v5.3h-9.7c-1.9,0-3.4,.6-4.5,1.7-.9,1-1.5,2.3-1.9,4-.4,1.8-.5,3.6-.5,5.5s.2,3.8,.7,5.3c.7,1.9,1.8,3.1,3.3,3.6l.6,.2h.7s11.3,0,11.3,0v5.4h-10Z" style="fill: #fff; fill-rule: evenodd;"/>
    <polygon points="222.9 880.3 222.9 867.3 212.1 867.3 212.1 880.3 206.1 880.3 206.1 849.2 212.1 849.2 212.1 861.8 222.9 861.8 222.9 849.2 228.8 849.2 228.8 880.3 222.9 880.3" style="fill: #fff; fill-rule: evenodd;"/>
  </g>
  <rect x="1.4" y="1.4" width="904.3" height="904.3" style="fill: none; stroke: #fff; stroke-miterlimit: 10; stroke-width: .8px;"/>
  <line x1="247.8" y1="878.3" x2="686.5" y2="878.3" style="fill: none; stroke: #fff; stroke-miterlimit: 10; stroke-width: .8px;"/>
  <line x1="248" y1="850.9" x2="686.5" y2="850.9" style="fill: none; stroke: #fff; stroke-miterlimit: 10; stroke-width: .8px;"/>
  <line x1="1.4" y1="823.5" x2="686.5" y2="823.5" style="fill: none; stroke: #fff; stroke-miterlimit: 10; stroke-width: .8px;"/>
  <line x1="1.4" y1="796.1" x2="905.7" y2="796.1" style="fill: none; stroke: #fff; stroke-miterlimit: 10; stroke-width: .8px;"/>
  <line x1="1.4" y1="768.7" x2="905.7" y2="768.7" style="fill: none; stroke: #fff; stroke-miterlimit: 10; stroke-width: .8px;"/>
  <line x1="1.4" y1="741.3" x2="905.7" y2="741.3" style="fill: none; stroke: #fff; stroke-miterlimit: 10; stroke-width: .8px;"/>
  <line x1="1.4" y1="713.9" x2="905.7" y2="713.9" style="fill: none; stroke: #fff; stroke-miterlimit: 10; stroke-width: .8px;"/>
  <line x1="1.4" y1="686.5" x2="905.7" y2="686.5" style="fill: none; stroke: #fff; stroke-miterlimit: 10; stroke-width: .8px;"/>
  <line x1="1.4" y1="659.1" x2="905.7" y2="659.1" style="fill: none; stroke: #fff; stroke-miterlimit: 10; stroke-width: .8px;"/>
  <line x1="1.4" y1="631.7" x2="905.7" y2="631.7" style="fill: none; stroke: #fff; stroke-miterlimit: 10; stroke-width: .8px;"/>
  <line x1="1.4" y1="604.3" x2="905.7" y2="604.3" style="fill: none; stroke: #fff; stroke-miterlimit: 10; stroke-width: .8px;"/>
  <line x1="1.4" y1="576.9" x2="905.7" y2="576.9" style="fill: none; stroke: #fff; stroke-miterlimit: 10; stroke-width: .8px;"/>
  <line x1="1.4" y1="549.4" x2="905.7" y2="549.4" style="fill: none; stroke: #fff; stroke-miterlimit: 10; stroke-width: .8px;"/>
  <line x1="1.4" y1="522" x2="905.7" y2="522" style="fill: none; stroke: #fff; stroke-miterlimit: 10; stroke-width: .8px;"/>
  <line x1="1.4" y1="494.6" x2="905.7" y2="494.6" style="fill: none; stroke: #fff; stroke-miterlimit: 10; stroke-width: .8px;"/>
  <line x1="1.4" y1="467.2" x2="905.7" y2="467.2" style="fill: none; stroke: #fff; stroke-miterlimit: 10; stroke-width: .8px;"/>
  <line x1="1.4" y1="439.8" x2="905.7" y2="439.8" style="fill: none; stroke: #fff; stroke-miterlimit: 10; stroke-width: .8px;"/>
  <line x1="1.4" y1="412.4" x2="905.7" y2="412.4" style="fill: none; stroke: #fff; stroke-miterlimit: 10; stroke-width: .8px;"/>
  <line x1="1.4" y1="385" x2="905.7" y2="385" style="fill: none; stroke: #fff; stroke-miterlimit: 10; stroke-width: .8px;"/>
  <line x1="1.4" y1="357.6" x2="905.7" y2="357.6" style="fill: none; stroke: #fff; stroke-miterlimit: 10; stroke-width: .8px;"/>
  <line x1="1.4" y1="330.2" x2="905.7" y2="330.2" style="fill: none; stroke: #fff; stroke-miterlimit: 10; stroke-width: .8px;"/>
  <line x1="1.4" y1="302.8" x2="905.7" y2="302.8" style="fill: none; stroke: #fff; stroke-miterlimit: 10; stroke-width: .8px;"/>
  <line x1="1.4" y1="275.4" x2="905.7" y2="275.4" style="fill: none; stroke: #fff; stroke-miterlimit: 10; stroke-width: .8px;"/>
  <line x1="1.4" y1="248" x2="905.7" y2="248" style="fill: none; stroke: #fff; stroke-miterlimit: 10; stroke-width: .8px;"/>
  <line x1="1.4" y1="220.6" x2="905.7" y2="220.6" style="fill: none; stroke: #fff; stroke-miterlimit: 10; stroke-width: .8px;"/>
  <line x1="1.4" y1="193.2" x2="905.7" y2="193.2" style="fill: none; stroke: #fff; stroke-miterlimit: 10; stroke-width: .8px;"/>
  <line x1="1.4" y1="165.8" x2="905.7" y2="165.8" style="fill: none; stroke: #fff; stroke-miterlimit: 10; stroke-width: .8px;"/>
  <line x1="1.4" y1="138.4" x2="905.7" y2="138.4" style="fill: none; stroke: #fff; stroke-miterlimit: 10; stroke-width: .8px;"/>
  <line x1="1.4" y1="111" x2="905.7" y2="111" style="fill: none; stroke: #fff; stroke-miterlimit: 10; stroke-width: .8px;"/>
  <line x1="1.4" y1="83.6" x2="905.7" y2="83.6" style="fill: none; stroke: #fff; stroke-miterlimit: 10; stroke-width: .8px;"/>
  <line x1="1.4" y1="56.2" x2="905.7" y2="56.2" style="fill: none; stroke: #fff; stroke-miterlimit: 10; stroke-width: .8px;"/>
  <line x1="1.4" y1="28.8" x2="905.7" y2="28.8" style="fill: none; stroke: #fff; stroke-miterlimit: 10; stroke-width: .8px;"/>
  <line x1="878.3" y1="1.4" x2="878.3" y2="796.1" style="fill: none; stroke: #fff; stroke-miterlimit: 10; stroke-width: .8px;"/>
  <line x1="850.9" y1="1.4" x2="850.9" y2="796.1" style="fill: none; stroke: #fff; stroke-miterlimit: 10; stroke-width: .8px;"/>
  <line x1="823.5" y1="1.4" x2="823.5" y2="796.1" style="fill: none; stroke: #fff; stroke-miterlimit: 10; stroke-width: .8px;"/>
  <line x1="796.1" y1="1.4" x2="796.1" y2="796.1" style="fill: none; stroke: #fff; stroke-miterlimit: 10; stroke-width: .8px;"/>
  <line x1="768.7" y1="1.4" x2="768.7" y2="796.1" style="fill: none; stroke: #fff; stroke-miterlimit: 10; stroke-width: .8px;"/>
  <line x1="741.3" y1="1.4" x2="741.3" y2="796.1" style="fill: none; stroke: #fff; stroke-miterlimit: 10; stroke-width: .8px;"/>
  <line x1="713.9" y1="1.4" x2="713.9" y2="796.1" style="fill: none; stroke: #fff; stroke-miterlimit: 10; stroke-width: .8px;"/>
  <line x1="686.5" y1="1.4" x2="686.5" y2="905.7" style="fill: none; stroke: #fff; stroke-miterlimit: 10; stroke-width: .8px;"/>
  <line x1="659.1" y1="1.4" x2="659.1" y2="905.7" style="fill: none; stroke: #fff; stroke-miterlimit: 10; stroke-width: .8px;"/>
  <line x1="631.7" y1="1.4" x2="631.7" y2="905.7" style="fill: none; stroke: #fff; stroke-miterlimit: 10; stroke-width: .8px;"/>
  <line x1="604.3" y1="1.4" x2="604.3" y2="905.7" style="fill: none; stroke: #fff; stroke-miterlimit: 10; stroke-width: .8px;"/>
  <line x1="576.9" y1="1.4" x2="576.9" y2="905.7" style="fill: none; stroke: #fff; stroke-miterlimit: 10; stroke-width: .8px;"/>
  <line x1="549.4" y1="1.4" x2="549.4" y2="905.7" style="fill: none; stroke: #fff; stroke-miterlimit: 10; stroke-width: .8px;"/>
  <line x1="522" y1="1.4" x2="522" y2="905.7" style="fill: none; stroke: #fff; stroke-miterlimit: 10; stroke-width: .8px;"/>
  <line x1="494.6" y1="1.4" x2="494.6" y2="905.7" style="fill: none; stroke: #fff; stroke-miterlimit: 10; stroke-width: .8px;"/>
  <line x1="467.2" y1="1.4" x2="467.2" y2="905.7" style="fill: none; stroke: #fff; stroke-miterlimit: 10; stroke-width: .8px;"/>
  <line x1="439.8" y1="1.4" x2="439.8" y2="905.7" style="fill: none; stroke: #fff; stroke-miterlimit: 10; stroke-width: .8px;"/>
  <line x1="412.4" y1="1.4" x2="412.4" y2="905.7" style="fill: none; stroke: #fff; stroke-miterlimit: 10; stroke-width: .8px;"/>
  <line x1="385" y1="1.4" x2="385" y2="905.7" style="fill: none; stroke: #fff; stroke-miterlimit: 10; stroke-width: .8px;"/>
  <line x1="357.6" y1="1.4" x2="357.6" y2="905.7" style="fill: none; stroke: #fff; stroke-miterlimit: 10; stroke-width: .8px;"/>
  <line x1="330.2" y1="1.4" x2="330.2" y2="905.7" style="fill: none; stroke: #fff; stroke-miterlimit: 10; stroke-width: .8px;"/>
  <line x1="302.8" y1="1.4" x2="302.8" y2="905.7" style="fill: none; stroke: #fff; stroke-miterlimit: 10; stroke-width: .8px;"/>
  <line x1="275.4" y1="1.4" x2="275.4" y2="905.7" style="fill: none; stroke: #fff; stroke-miterlimit: 10; stroke-width: .8px;"/>
  <line x1="248" y1="1.4" x2="248" y2="905.7" style="fill: none; stroke: #fff; stroke-miterlimit: 10; stroke-width: .8px;"/>
  <line x1="220.6" y1="1.4" x2="220.6" y2="821.9" style="fill: none; stroke: #fff; stroke-miterlimit: 10; stroke-width: .8px;"/>
  <line x1="193.2" y1="1.4" x2="193.2" y2="821.9" style="fill: none; stroke: #fff; stroke-miterlimit: 10; stroke-width: .8px;"/>
  <line x1="165.8" y1="1.4" x2="165.8" y2="823.5" style="fill: none; stroke: #fff; stroke-miterlimit: 10; stroke-width: .8px;"/>
  <line x1="138.4" y1="1.4" x2="138.4" y2="823.5" style="fill: none; stroke: #fff; stroke-miterlimit: 10; stroke-width: .8px;"/>
  <line x1="111" y1="1.4" x2="111" y2="823.5" style="fill: none; stroke: #fff; stroke-miterlimit: 10; stroke-width: .8px;"/>
  <line x1="83.6" y1="1.4" x2="83.6" y2="823.5" style="fill: none; stroke: #fff; stroke-miterlimit: 10; stroke-width: .8px;"/>
  <line x1="56.2" y1="1.4" x2="56.2" y2="823.5" style="fill: none; stroke: #fff; stroke-miterlimit: 10; stroke-width: .8px;"/>
  <line x1="28.8" y1="1.4" x2="28.8" y2="823.5" style="fill: none; stroke: #fff; stroke-miterlimit: 10; stroke-width: .8px;"/>
</svg>