<?xml version="1.0" encoding="UTF-8"?><svg id="a" xmlns="http://www.w3.org/2000/svg" width="1000" height="1000" viewBox="0 0 1000 1000"><path d="M779.71,978.48h-.9c-.4-.1-.8-.2-1.2-.3l-2.1-.8c-.4-.2-.9-.5-1.6-1l-1.4-1.2c-1.3-1.2-2.2-3-2.9-5.4-.5-2-.8-4.4-.8-7.3s.4-5.6,1.3-7.7c1-2.7,2.8-4.8,5.5-6.2.7-.4,1.7-.7,3-.9,1.2-.2,6.6-.3,16.2-.3v5.4h-12.7c-2.4,0-4.2,1-5.4,3.1-.9,1.6-1.3,3.6-1.3,6.2v3.2c.2.5.2.8.2,1.1h0c0,.6.1,1,.2,1.3.3,1.6,1,2.8,2,3.7s4.6,1.4,10.9,1.4v-7.3h-7.9v-5.5h13.9v18.4h-15v.1Z" style="fill:#fff; fill-rule:evenodd;"/><path d="M810.91,978.48h-2.5c0-.1-.9-.2-.9-.2-.2,0-.5,0-.7-.1-.2,0-.3,0-.3-.1h-.4c-2.8-.8-4.9-2.6-6.4-5.5-.6-1.2-1.1-2.4-1.4-3.8-.3-1.3-.5-2.7-.5-4.2,0-2.9.2-5.3.6-7.2.4-2,1.1-3.8,2.1-5.2,1.1-1.7,2.6-2.9,4.3-3.5.7-.3,1.7-.6,3-.8,1.1-.2,5.5-.3,13.1-.3v5.4h-9.7c-4.4,0-6.7,2.4-6.7,7.3h16.4v5.4h-16.4c0,1.2,0,2.3.3,3.1,0,.5.2.9.4,1.3.1.3.4.7.7,1.1l1.1,1.1c.3.3.8.5,1.3.7s1,.3,1.5.3h11.3v5.4h-10l-.2-.2Z" style="fill:#fff; fill-rule:evenodd;"/><path d="M837.41,978.48h-2.5c0-.1-.9-.2-.9-.2-.2,0-.5,0-.7-.1-.2,0-.3,0-.3-.1h-.4c-2.8-.8-4.9-2.6-6.4-5.5-.6-1.2-1.1-2.4-1.4-3.8-.3-1.3-.5-2.7-.5-4.2,0-2.9.2-5.3.6-7.2.4-2,1.1-3.8,2.1-5.2,1.1-1.7,2.6-2.9,4.3-3.5.7-.3,1.7-.6,3-.8,1.2-.2,5.5-.3,13.1-.3v5.4h-9.7c-4.4,0-6.7,2.4-6.7,7.3h16.4v5.4h-16.4c0,1.2,0,2.3.3,3.1,0,.5.2.9.4,1.3.1.3.4.7.7,1.1l1.1,1.1c.3.3.8.5,1.3.7s1,.3,1.5.3h11.3v5.4h-10l-.2-.2Z" style="fill:#fff; fill-rule:evenodd;"/><path d="M863.91,978.48h-2.5c0-.1-.9-.2-.9-.2-.2,0-.5,0-.7-.1-.2,0-.3,0-.3-.1h-.4c-2.8-.8-4.9-2.6-6.4-5.5-.6-1.2-1.1-2.4-1.4-3.8-.3-1.3-.5-2.7-.5-4.2,0-2.9.2-5.3.6-7.2.4-2,1.1-3.8,2.1-5.2,1.1-1.7,2.6-2.9,4.3-3.5.7-.3,1.7-.6,3-.8,1.1-.2,5.5-.3,13.1-.3v5.4h-9.7c-4.4,0-6.7,2.4-6.7,7.3h16.4v5.4h-16.4c0,1.2,0,2.3.3,3.1,0,.5.2.9.4,1.3.1.3.4.7.7,1.1l1.1,1.1c.3.3.8.5,1.3.7s1,.3,1.5.3h11.3v5.4h-10l-.2-.2Z" style="fill:#fff; fill-rule:evenodd;"/><polygon points="891.31 952.88 891.31 978.48 885.21 978.48 885.21 952.88 876.11 952.88 876.11 947.48 900.41 947.48 900.41 952.88 891.31 952.88" style="fill:#fff; fill-rule:evenodd;"/><path d="M914.61,978.48h-2.5c0-.1-.9-.2-.9-.2-.2,0-.5,0-.7-.1-.2,0-.3,0-.3-.1h-.4c-2.8-.8-4.9-2.6-6.4-5.5-.6-1.2-1.1-2.4-1.4-3.8-.3-1.3-.5-2.7-.5-4.2,0-2.9.2-5.3.6-7.2.4-2,1.1-3.8,2.1-5.2,1.1-1.7,2.6-2.9,4.3-3.5.7-.3,1.7-.6,3-.8,1.1-.2,5.5-.3,13.1-.3v5.4h-9.7c-4.4,0-6.7,2.4-6.7,7.3h16.4v5.4h-16.4c0,1.2,0,2.3.3,3.1,0,.5.2.9.4,1.3.1.3.4.7.7,1.1l1.1,1.1c.3.3.8.5,1.3.7s1,.3,1.5.3h11.3v5.4h-10l-.2-.2Z" style="fill:#fff; fill-rule:evenodd;"/><path d="M941.11,978.48h-2.5c0-.1-.9-.2-.9-.2-.2,0-.5,0-.7-.1-.2,0-.3,0-.3-.1h-.4c-2.8-.8-4.9-2.6-6.4-5.5-1.3-2.5-1.9-5.1-1.9-7.9s.2-5.3.6-7.3c.4-2,1.1-3.8,2.1-5.2,1.1-1.7,2.6-2.9,4.3-3.5,1-.4,2-.6,3-.8,1.1-.2,5.4-.3,13.1-.3v5.3h-9.7c-1.9,0-3.4.6-4.5,1.7-.9,1-1.5,2.3-1.9,4-.4,1.8-.5,3.6-.5,5.5s.2,3.8.7,5.3c.7,1.9,1.8,3.1,3.3,3.6l.6.2h12v5.4h-10v-.1Z" style="fill:#fff; fill-rule:evenodd;"/><polygon points="972.21 978.48 972.21 965.48 961.41 965.48 961.41 978.48 955.41 978.48 955.41 947.38 961.41 947.38 961.41 959.98 972.21 959.98 972.21 947.38 978.11 947.38 978.11 978.48 972.21 978.48" style="fill:#fff; fill-rule:evenodd;"/></svg>