<?xml version="1.0" encoding="UTF-8" standalone="no"?>
<svg
   xmlns:dc="http://purl.org/dc/elements/1.1/"
   xmlns:cc="http://creativecommons.org/ns#"
   xmlns:rdf="http://www.w3.org/1999/02/22-rdf-syntax-ns#"
   xmlns:svg="http://www.w3.org/2000/svg"
   xmlns="http://www.w3.org/2000/svg"
   xmlns:sodipodi="http://sodipodi.sourceforge.net/DTD/sodipodi-0.dtd"
   xmlns:inkscape="http://www.inkscape.org/namespaces/inkscape"
   width="230mm"
   height="230mm"
   viewBox="0 0 1150 1150"
   version="1.1"
   id="svg8"
   inkscape:version="1.0.1 (3bc2e813f5, 2020-09-07)"
   sodipodi:docname="AK.svg"
   inkscape:export-filename="D:\3D\_KOSSEL\Modello\AK.png"
   inkscape:export-xdpi="96"
   inkscape:export-ydpi="96">
  <defs
     id="defs2" />
  <sodipodi:namedview
     id="base"
     pagecolor="#ffffff"
     bordercolor="#666666"
     borderopacity="1.0"
     inkscape:pageopacity="0"
     inkscape:pageshadow="2"
     inkscape:zoom="0.95247222"
     inkscape:cx="435.19575"
     inkscape:cy="435.06924"
     inkscape:document-units="mm"
     inkscape:current-layer="layer1"
     inkscape:document-rotation="0"
     showgrid="true"
     inkscape:lockguides="true"
     inkscape:window-width="1920"
     inkscape:window-height="1017"
     inkscape:window-x="-8"
     inkscape:window-y="-8"
     inkscape:window-maximized="1"
     inkscape:pagecheckerboard="false">
    <inkscape:grid
       type="xygrid"
       id="grid10"
       spacingx="25.000001"
       spacingy="25.000001"
       originx="1150"
       originy="1150"
       units="mm" />
  </sodipodi:namedview>
  <metadata
     id="metadata5">
    <rdf:RDF>
      <cc:Work
         rdf:about="">
        <dc:format>image/svg+xml</dc:format>
        <dc:type
           rdf:resource="http://purl.org/dc/dcmitype/StillImage" />
        <dc:title></dc:title>
      </cc:Work>
    </rdf:RDF>
  </metadata>
  <g
     inkscape:label="Livello 1"
     inkscape:groupmode="layer"
     id="layer1">
    <ellipse
       style="fill:none;stroke:#ffffff;stroke-width:2.6046"
       id="path14"
       cx="575.72772"
       cy="575.56036"
       inkscape:export-xdpi="96"
       inkscape:export-ydpi="96"
       rx="573.00757"
       ry="573.02002" />
    <path
       style="fill:#ffffff;stroke:#ffffff;stroke-width:1.37827px;stroke-linecap:butt;stroke-linejoin:miter;stroke-opacity:1"
       d="M 2.7200455,523.46768 H 1148.7353"
       id="path18"
       inkscape:export-xdpi="96"
       inkscape:export-ydpi="96" />
    <path
       style="fill:#ffffff;stroke:#ffffff;stroke-width:1.37827px;stroke-linecap:butt;stroke-linejoin:miter;stroke-opacity:1"
       d="M 2.7200455,471.37493 H 1148.7353"
       id="path20"
       inkscape:export-xdpi="96"
       inkscape:export-ydpi="96" />
    <path
       style="fill:#ffffff;stroke:#ffffff;stroke-width:1.37827px;stroke-linecap:butt;stroke-linejoin:miter;stroke-opacity:1"
       d="M 2.7200455,419.2822 H 1148.7353"
       id="path22"
       inkscape:export-xdpi="96"
       inkscape:export-ydpi="96" />
    <path
       style="fill:#ffffff;stroke:#ffffff;stroke-width:1.37827px;stroke-linecap:butt;stroke-linejoin:miter;stroke-opacity:1"
       d="M 2.7200455,367.18946 H 1148.7353"
       id="path24"
       inkscape:export-xdpi="96"
       inkscape:export-ydpi="96" />
    <path
       style="fill:#ffffff;stroke:#ffffff;stroke-width:1.37827px;stroke-linecap:butt;stroke-linejoin:miter;stroke-opacity:1"
       d="M 54.811644,263.00401 H 1096.6436"
       id="path28"
       inkscape:export-xdpi="96"
       inkscape:export-ydpi="96" />
    <path
       style="fill:#ffffff;stroke:#ffffff;stroke-width:1.37827px;stroke-linecap:butt;stroke-linejoin:miter;stroke-opacity:1"
       d="M 54.811644,210.91128 H 1096.6436"
       id="path30"
       inkscape:export-xdpi="96"
       inkscape:export-ydpi="96" />
    <path
       style="fill:#ffffff;stroke:#ffffff;stroke-width:1.37827px;stroke-linecap:butt;stroke-linejoin:miter;stroke-opacity:1"
       d="M 54.811644,158.81854 H 1096.6436"
       id="path32"
       inkscape:export-xdpi="96"
       inkscape:export-ydpi="96" />
    <path
       style="fill:#ffffff;stroke:#ffffff;stroke-width:1.37827px;stroke-linecap:butt;stroke-linejoin:miter;stroke-opacity:1"
       d="M 54.811644,106.72581 H 1096.6436"
       id="path34"
       inkscape:export-xdpi="96"
       inkscape:export-ydpi="96" />
    <path
       style="fill:#ffffff;stroke:#ffffff;stroke-width:1.37827px;stroke-linecap:butt;stroke-linejoin:miter;stroke-opacity:1"
       d="M 2.7200455,627.65314 H 1148.7353"
       id="path36"
       inkscape:export-xdpi="96"
       inkscape:export-ydpi="96" />
    <path
       style="fill:#ffffff;stroke:#ffffff;stroke-width:1.37827px;stroke-linecap:butt;stroke-linejoin:miter;stroke-opacity:1"
       d="M 2.7200455,679.74588 H 1148.7353"
       id="path38"
       inkscape:export-xdpi="96"
       inkscape:export-ydpi="96" />
    <path
       style="fill:#ffffff;stroke:#ffffff;stroke-width:1.37827px;stroke-linecap:butt;stroke-linejoin:miter;stroke-opacity:1"
       d="M 2.7200455,731.83861 H 1148.7353"
       id="path40"
       inkscape:export-xdpi="96"
       inkscape:export-ydpi="96" />
    <path
       style="fill:#ffffff;stroke:#ffffff;stroke-width:1.37827px;stroke-linecap:butt;stroke-linejoin:miter;stroke-opacity:1"
       d="M 2.7200455,783.93134 H 1148.7353"
       id="path42"
       inkscape:export-xdpi="96"
       inkscape:export-ydpi="96" />
    <path
       style="fill:#ffffff;stroke:#ffffff;stroke-width:1.37827px;stroke-linecap:butt;stroke-linejoin:miter;stroke-opacity:1"
       d="m 54.811644,888.11677 v 0 H 1096.6436"
       id="path44"
       inkscape:export-xdpi="96"
       inkscape:export-ydpi="96" />
    <path
       style="fill:#ffffff;stroke:#ffffff;stroke-width:1.37827px;stroke-linecap:butt;stroke-linejoin:miter;stroke-opacity:1"
       d="M 106.90325,940.2095 H 1044.552"
       id="path46"
       inkscape:export-xdpi="96"
       inkscape:export-ydpi="96" />
    <path
       style="fill:#ffffff;stroke:#ffffff;stroke-width:1.37827px;stroke-linecap:butt;stroke-linejoin:miter;stroke-opacity:1"
       d="M 158.99485,992.30223 H 992.46047"
       id="path48"
       inkscape:export-xdpi="96"
       inkscape:export-ydpi="96" />
    <path
       style="fill:#ffffff;stroke:#ffffff;stroke-width:1.37827px;stroke-linecap:butt;stroke-linejoin:miter;stroke-opacity:1"
       d="M 211.08645,1044.395 H 940.36884"
       id="path50"
       inkscape:export-xdpi="96"
       inkscape:export-ydpi="96" />
    <path
       style="fill:#ffffff;stroke:#ffffff;stroke-width:1.31413px;stroke-linecap:butt;stroke-linejoin:miter;stroke-opacity:1"
       d="M 523.63605,2.5403476 V 1044.395"
       id="path52"
       inkscape:export-xdpi="96"
       inkscape:export-ydpi="96" />
    <path
       style="fill:#ffffff;stroke:#ffffff;stroke-width:1.31413px;stroke-linecap:butt;stroke-linejoin:miter;stroke-opacity:1"
       d="M 471.54444,2.5403476 V 1044.395"
       id="path54"
       inkscape:export-xdpi="96"
       inkscape:export-ydpi="96" />
    <path
       style="fill:#ffffff;stroke:#ffffff;stroke-width:1.31413px;stroke-linecap:butt;stroke-linejoin:miter;stroke-opacity:1"
       d="M 419.45285,1044.395 V 2.5403476"
       id="path56"
       inkscape:export-xdpi="96"
       inkscape:export-ydpi="96" />
    <path
       style="fill:#ffffff;stroke:#ffffff;stroke-width:1.37827px;stroke-linecap:butt;stroke-linejoin:miter;stroke-opacity:1"
       d="M 367.36125,2.5403476 V 1148.5805"
       id="path58"
       inkscape:export-xdpi="96"
       inkscape:export-ydpi="96" />
    <path
       style="fill:#ffffff;stroke:#ffffff;stroke-width:1.37827px;stroke-linecap:butt;stroke-linejoin:miter;stroke-opacity:1"
       d="M 263.17805,1096.4877 V 54.633081"
       id="path60"
       inkscape:export-xdpi="96"
       inkscape:export-ydpi="96" />
    <path
       style="fill:#ffffff;stroke:#ffffff;stroke-width:1.37827px;stroke-linecap:butt;stroke-linejoin:miter;stroke-opacity:1"
       d="M 211.08645,106.72581 V 1044.395"
       id="path62"
       inkscape:export-xdpi="96"
       inkscape:export-ydpi="96" />
    <path
       style="fill:#ffffff;stroke:#ffffff;stroke-width:1.37827px;stroke-linecap:butt;stroke-linejoin:miter;stroke-opacity:1"
       d="M 158.99485,992.30223 V 158.81854"
       id="path64"
       inkscape:export-xdpi="96"
       inkscape:export-ydpi="96" />
    <path
       style="fill:#ffffff;stroke:#ffffff;stroke-width:1.37827px;stroke-linecap:butt;stroke-linejoin:miter;stroke-opacity:1"
       d="M 106.90325,210.91128 V 940.2095"
       id="path66"
       inkscape:export-xdpi="96"
       inkscape:export-ydpi="96" />
    <path
       style="fill:#ffffff;stroke:#ffffff;stroke-width:1.31413px;stroke-linecap:butt;stroke-linejoin:miter;stroke-opacity:1"
       d="M 627.81923,1044.395 V 2.5403476"
       id="path68"
       inkscape:export-xdpi="96"
       inkscape:export-ydpi="96" />
    <path
       style="fill:#ffffff;stroke:#ffffff;stroke-width:1.31413px;stroke-linecap:butt;stroke-linejoin:miter;stroke-opacity:1"
       d="M 679.91086,2.5403476 V 1044.395"
       id="path70"
       inkscape:export-xdpi="96"
       inkscape:export-ydpi="96" />
    <path
       style="fill:#ffffff;stroke:#ffffff;stroke-width:1.31413px;stroke-linecap:butt;stroke-linejoin:miter;stroke-opacity:1"
       d="M 732.00245,1044.395 V 2.5403476"
       id="path72"
       inkscape:export-xdpi="96"
       inkscape:export-ydpi="96" />
    <path
       style="fill:#ffffff;stroke:#ffffff;stroke-width:1.37827px;stroke-linecap:butt;stroke-linejoin:miter;stroke-opacity:1"
       d="M 784.09409,2.5403476 V 1148.5805"
       id="path74"
       inkscape:export-xdpi="96"
       inkscape:export-ydpi="96" />
    <path
       style="fill:#ffffff;stroke:#ffffff;stroke-width:1.37827px;stroke-linecap:butt;stroke-linejoin:miter;stroke-opacity:1"
       d="M 888.27725,1096.4877 V 54.633081"
       id="path76"
       inkscape:export-xdpi="96"
       inkscape:export-ydpi="96" />
    <path
       style="fill:#ffffff;stroke:#ffffff;stroke-width:1.37827px;stroke-linecap:butt;stroke-linejoin:miter;stroke-opacity:1"
       d="M 940.36884,106.72581 V 1044.395"
       id="path78"
       inkscape:export-xdpi="96"
       inkscape:export-ydpi="96" />
    <path
       style="fill:#ffffff;stroke:#ffffff;stroke-width:1.37827px;stroke-linecap:butt;stroke-linejoin:miter;stroke-opacity:1"
       d="M 992.46047,992.30223 V 158.81854"
       id="path80"
       inkscape:export-xdpi="96"
       inkscape:export-ydpi="96" />
    <path
       style="fill:#ffffff;stroke:#ffffff;stroke-width:1.37827px;stroke-linecap:butt;stroke-linejoin:miter;stroke-opacity:1"
       d="M 1044.552,210.91128 V 940.2095"
       id="path82"
       inkscape:export-xdpi="96"
       inkscape:export-ydpi="96" />
    <path
       style="fill:#ffffff;stroke:#ffffff;stroke-width:2.48339;stroke-linecap:butt;stroke-linejoin:miter;stroke-opacity:1"
       d="M 575.72764,1044.395 V 2.5403476"
       id="path84"
       inkscape:export-xdpi="96"
       inkscape:export-ydpi="96" />
    <path
       style="fill:#ffffff;stroke:#ffffff;stroke-width:2.60461;stroke-linecap:butt;stroke-linejoin:miter;stroke-opacity:1"
       d="M 315.26965,1096.4877 V 54.633081"
       id="path86"
       inkscape:export-xdpi="96"
       inkscape:export-ydpi="96" />
    <path
       style="fill:#ffffff;stroke:#ffffff;stroke-width:2.60461;stroke-linecap:butt;stroke-linejoin:miter;stroke-opacity:1"
       d="M 54.811644,888.11677 V 315.09674"
       id="path88"
       inkscape:export-xdpi="96"
       inkscape:export-ydpi="96" />
    <path
       style="fill:#ffffff;stroke:#ffffff;stroke-width:2.60461;stroke-linecap:butt;stroke-linejoin:miter;stroke-opacity:1"
       d="M 836.18561,1096.4877 V 54.633081"
       id="path90"
       inkscape:export-xdpi="96"
       inkscape:export-ydpi="96" />
    <path
       style="fill:#ffffff;stroke:#ffffff;stroke-width:2.60461;stroke-linecap:butt;stroke-linejoin:miter;stroke-opacity:1"
       d="M 1096.6436,888.11677 V 315.09674"
       id="path92"
       inkscape:export-xdpi="96"
       inkscape:export-ydpi="96" />
    <path
       style="fill:#ffffff;stroke:#ffffff;stroke-width:2.60461;stroke-linecap:butt;stroke-linejoin:miter;stroke-opacity:1"
       d="M 2.7200461,575.56041 H 1148.7353"
       id="path94"
       inkscape:export-xdpi="96"
       inkscape:export-ydpi="96" />
    <path
       style="fill:#ffffff;stroke:#ffffff;stroke-width:2.60461;stroke-linecap:butt;stroke-linejoin:miter;stroke-opacity:1"
       d="M 54.811644,315.09674 H 1096.6436"
       id="path96"
       inkscape:export-xdpi="96"
       inkscape:export-ydpi="96" />
    <path
       style="fill:#ffffff;stroke:#ffffff;stroke-width:2.60461;stroke-linecap:butt;stroke-linejoin:miter;stroke-opacity:1"
       d="M 263.17805,54.633081 H 836.18561"
       id="path98"
       inkscape:export-xdpi="96"
       inkscape:export-ydpi="96" />
    <path
       style="fill:#ffffff;stroke:#ffffff;stroke-width:2.60461;stroke-linecap:butt;stroke-linejoin:miter;stroke-opacity:1"
       d="M 54.811644,836.02403 H 1096.6436"
       id="path100"
       inkscape:export-xdpi="96"
       inkscape:export-ydpi="96" />
    <path
       style="fill:#ffffff;stroke:#ffffff;stroke-width:2.60461;stroke-linecap:butt;stroke-linejoin:miter;stroke-opacity:1"
       d="m 263.17805,1096.4877 h 104.1832"
       id="path102"
       inkscape:export-xdpi="96"
       inkscape:export-ydpi="96" />
    <g
       inkscape:label="Image"
       id="g10"
       transform="matrix(1.378257,0,0,1.378287,365.35053,1307.1314)"
       style="fill:#ffffff;stroke:#ffffff">
      <path
         style="fill:#ffffff;stroke:#ffffff;stroke-width:0.282003"
         d="m 1.5822137,-143.97353 c 0,-0.62542 13.3174963,-24.09516 13.6248583,-24.01142 0.364479,0.0993 4.559909,7.42904 4.58019,8.00194 0.0069,0.19546 -1.986188,3.94058 -4.429128,8.32249 l -4.441709,7.96711 H 6.2493187 c -3.020692,0 -4.667105,-0.0988 -4.667105,-0.28012 z m 30.7185843,-2.69703 -1.653291,-2.97715 -5.350374,-0.004 c -2.942705,-0.002 -5.548084,-0.11927 -5.78973,-0.25999 -0.371237,-0.21617 -0.222472,-0.658 0.959509,-2.8497 2.341282,-4.34134 2.675558,-4.73501 4.0206,-4.73501 0.634867,0 1.23541,-0.12088 1.33454,-0.26862 0.09913,-0.14774 -1.678101,-3.5547 -3.949402,-7.57102 -2.271301,-4.01631 -4.127336,-7.45786 -4.124523,-7.64788 0.0098,-0.65902 4.308331,-7.92369 4.688523,-7.92369 0.370953,0 20.850933,36.19813 20.863527,36.87604 0.0048,0.25672 -1.121489,0.33831 -4.669902,0.33831 h -4.676189 z m 15.706987,-7.57077 c 0,-5.80952 0.102707,-10.56277 0.228238,-10.56277 0.507681,0 8.008699,6.30244 8.154402,6.85143 0.08633,0.32529 0.119763,3.63625 0.07428,7.35769 l -0.08269,6.76624 -4.187117,0.0751 -4.187116,0.0751 z m 16.675008,-3.02559 -16.675008,-13.56095 v -5.10761 c 0,-2.9858 0.114064,-5.10761 0.274575,-5.10761 0.151016,0 5.803623,4.50558 12.561349,10.01241 6.757727,5.50682 12.419,9.9726 12.580608,9.92396 0.18483,-0.0556 0.348333,-3.64441 0.440749,-9.67409 l 0.146916,-9.58566 h 4.113658 4.113659 l 0.07552,18.33653 c 0.0714,17.33913 0.04743,18.33619 -0.440749,18.33025 -0.283948,-0.004 -8.020018,-6.10871 -17.191272,-13.56723 z m 33.276554,4.1292 v -9.44429 l 1.55359,-1.99066 c 5.935783,-7.60567 12.110813,-15.30711 12.505803,-15.59708 0.58004,-0.42584 10.07808,-0.35718 10.22679,0.0739 0.0513,0.14886 -3.40866,4.68979 -7.68891,10.09095 l -7.78228,9.82031 v 8.24557 8.24557 h -4.40749 -4.407503 z m 81.570343,9.03237 c -4.10627,-1.0385 -8.64198,-4.32658 -10.25879,-7.43691 -1.66582,-3.20461 -1.73775,-3.81426 -1.89132,-16.03127 -0.078,-6.21219 -0.0575,-11.60493 0.0457,-11.98385 l 0.18774,-0.68894 4.03253,0.0753 4.03253,0.0753 0.16309,11.63794 c 0.11515,8.21701 0.27101,11.93845 0.53024,12.66028 0.47135,1.31251 1.83572,2.73764 3.46063,3.61477 l 1.28195,0.692 v 3.8987 c 0,2.14429 -0.0331,3.88782 -0.0735,3.87451 -0.0404,-0.0133 -0.72029,-0.18779 -1.51087,-0.38774 z m -41.31525,-0.28281 c -0.88884,-0.21365 -2.86934,-0.9555 -4.40111,-1.64853 -2.27941,-1.03131 -3.2147,-1.65773 -5.15175,-3.45048 -11.18735,-10.35392 -6.0348,-27.67128 9.39322,-31.56995 1.21846,-0.30791 2.34786,-0.48442 2.50976,-0.39225 0.17302,0.0985 0.29437,1.6696 0.29437,3.81118 v 3.6436 l -0.80804,0.30313 c -4.19026,1.57194 -6.32821,3.23467 -7.74506,6.02353 -1.6866,3.31982 -1.66188,6.81 0.0706,9.97129 1.47766,2.69627 3.59987,4.31111 7.67444,5.83965 l 0.80804,0.30313 v 3.7949 c 0,4.30683 0.19824,4.05414 -2.6445,3.3708 z m 7.63965,-3.3389 c 0,-3.40904 0.0567,-3.84964 0.51421,-3.99029 1.79025,-0.55046 4.23907,-1.80679 5.44102,-2.79141 0.87801,-0.71926 1.57065,-1.08751 1.85586,-0.9867 0.76525,0.27048 5.6572,3.79221 5.84679,4.20911 0.24919,0.54798 -3.38214,3.68471 -5.74358,4.96127 -1.90079,1.02754 -4.67239,1.9527 -6.77984,2.2631 l -1.13446,0.1671 z m 40.28281,0.2088 c -0.0179,-1.98991 0.0678,-3.75327 0.19025,-3.91857 0.12253,-0.1653 0.68556,-0.51448 1.25119,-0.77595 2.41416,-1.11598 3.42955,-2.68147 3.83245,-5.90877 0.1522,-1.21925 0.27775,-6.6927 0.27898,-12.16321 l 0.002,-9.94638 h 4.11366 4.11366 l -0.006,11.57028 c -0.006,12.76543 -0.13069,13.96771 -1.77343,17.04909 -1.32982,2.49444 -4.02538,4.88421 -7.08361,6.28006 -1.36743,0.62413 -3.02658,1.20154 -3.687,1.28313 l -1.20076,0.14835 -0.0325,-3.61803 z m 24.06656,-14.57934 v -18.13354 h 4.11366 4.11366 v 18.13354 18.13354 h -4.11366 -4.11366 z m 13.5163,14.50872 c 0,-3.05569 0.073,-3.65061 0.46478,-3.7891 0.25564,-0.0904 1.55833,-0.16428 2.89488,-0.16428 2.04329,0 2.58839,-0.0983 3.42462,-0.61734 0.95121,-0.59044 1.22485,-1.05543 1.58209,-2.68842 0.1292,-0.59062 0.40485,-0.79509 1.40653,-1.04331 1.65347,-0.40973 2.75419,-0.9414 4.23361,-2.0449 0.67363,-0.50247 1.36272,-0.91357 1.5313,-0.91357 0.31914,0 0.73329,1.23055 1.0607,3.15166 0.42627,2.50131 -0.9473,6.18625 -3.11243,8.34981 -2.53056,2.52873 -5.08202,3.3761 -10.18046,3.38105 l -3.30562,0.003 z m 24.68195,-14.50872 v -18.13354 h 4.11366 4.11366 v 18.13354 18.13354 h -4.11366 -4.11366 z m 34.0846,17.70944 c -0.88884,-0.21365 -2.86934,-0.9555 -4.40111,-1.64853 -6.81255,-3.0823 -11.16182,-9.60418 -11.16182,-16.73754 0,-6.97344 4.22954,-13.45036 10.85743,-16.6265 2.52915,-1.21199 6.67641,-2.37106 7.09717,-1.9835 0.14882,0.13708 0.23352,1.87786 0.18825,3.86841 l -0.0824,3.61918 -1.763,0.62208 c -4.75904,1.67923 -7.82415,5.71586 -7.87041,10.36501 -0.0484,4.86749 2.92998,8.89234 7.87041,10.6357 l 1.763,0.62212 0.0815,3.84383 c 0.0927,4.37082 0.28987,4.10938 -2.57911,3.41974 z m 7.63965,-3.33621 v -3.82949 l 0.80804,-0.28637 c 2.03084,-0.71973 3.99733,-1.74801 5.18606,-2.71182 0.71225,-0.57748 1.41986,-1.04996 1.57248,-1.04996 0.36747,0 6.06535,4.0268 6.20627,4.3861 0.1652,0.4212 -3.75075,3.74395 -5.61864,4.7675 -1.82385,0.99942 -4.99854,2.08873 -6.90633,2.36973 l -1.24788,0.1838 z m -66.278,-11.20811 c -0.081,-0.19433 -0.10987,-1.86897 -0.0643,-3.72143 l 0.083,-3.36811 2.79141,-0.15392 c 1.53528,-0.0847 3.07866,-0.29702 3.42974,-0.47193 2.34904,-1.17025 2.52411,-4.37605 0.30156,-5.52206 -0.35534,-0.18322 -1.9683,-0.3973 -3.58438,-0.47573 l -2.93833,-0.14261 -0.082,-3.75368 -0.082,-3.75368 3.75489,0.13809 c 4.39645,0.16169 5.31012,0.38064 7.68573,1.84185 4.09025,2.51587 5.94411,7.2189 4.63259,11.75237 -1.20055,4.14991 -4.88551,7.09166 -9.6843,7.73111 -2.79558,0.37251 -6.06861,0.31995 -6.24367,-0.10027 z m -129.323143,-8.37513 c -1.42286,-1.44737 -9.801638,-12.68416 -9.638888,-12.92672 0.208184,-0.31027 9.524888,-0.36643 10.008498,-0.0603 0.57464,0.36372 5.415593,6.82482 5.415593,7.22807 0,0.43466 -4.636693,6.36794 -4.976363,6.36794 -0.11561,0 -0.47959,-0.27403 -0.80884,-0.60896 z m 57.333073,-3.58947 c -1.25075,-1.08822 -2.63808,-1.8341 -5.20407,-2.79787 l -0.81635,-0.30661 0.0817,-3.72375 0.0818,-3.72375 1.02841,0.0778 c 1.82898,0.13837 5.74582,1.55973 7.8517,2.84926 2.17073,1.32924 4.48928,3.43343 4.48928,4.07424 0,0.30989 -4.48651,3.87157 -5.77347,4.58336 -0.19134,0.10582 -0.94466,-0.34152 -1.73904,-1.03268 z m 144.25236,0.003 c -1.27971,-1.10456 -2.67609,-1.85902 -5.18456,-2.80119 l -0.81635,-0.30661 0.0818,-3.72375 0.0817,-3.72375 0.99687,0.0739 c 1.56267,0.11589 5.29952,1.3637 7.09866,2.37039 1.90791,1.06754 4.12617,2.81143 4.97821,3.91361 l 0.5978,0.77327 -2.13447,1.5924 c -1.17391,0.87583 -2.6149,1.92394 -3.20212,2.32915 l -1.06771,0.73674 -1.42987,-1.23418 z"
         id="path42-3" />
    </g>
    <path
       style="fill:#ffffff;stroke:#ffffff;stroke-width:2.60461;stroke-linecap:butt;stroke-linejoin:miter;stroke-opacity:1"
       d="m 784.09409,1096.4877 h 52.09152"
       id="path69" />
  </g>
</svg>
