<?xml version="1.0" encoding="UTF-8"?><svg id="a" xmlns="http://www.w3.org/2000/svg" width="726" height="760" viewBox="0 0 726 760"><path d="M685.94,726.7c-.12-.2-.18-.43-.17-.66h.04c-.01-.24.05-.47.17-.68l15.62-27.05c.24-.43.69-.69,1.18-.69.48,0,.92.26,1.14.69l15.7,27.08c.1.2.16.42.17.65,0,.24-.06.48-.17.69-.25.41-.7.66-1.18.65h-31.32c-.49,0-.94-.26-1.18-.68h0ZM686.81,726.61c.11.06.23.09.35.09h31.32c.25,0,.47-.13.61-.33.04-.12.07-.24.07-.36,0-.07-.02-.15-.03-.22,0-.04-.02-.08-.03-.11l-15.7-27.07c-.11-.21-.33-.34-.57-.33h-.04s-.04,0-.04,0c-.21.02-.39.14-.49.33l-15.7,27.07c-.06.11-.08.24-.07.36-.01.11.01.23.07.33.07.1.16.18.26.24ZM700.18,719.91c.1-.4.23-.65.34-.88.2-.39.36-.71.29-1.58-.11-.77-.46-1.49-1-2.06-.43-.52-.68-1.15-.73-1.82.05-1.18.4-2.32,1-3.34l.05-.1,1,.69-.06.08c-1.24,1.66-1.12,2.88.11,4.49,1,1.28,1.16,3.82-.15,4.94h-.05c-.09-.04-.18-.09-.27-.14h0c-.09-.05-.18-.09-.27-.13-.04-.02-.09-.04-.13-.06h-.07l-.06-.09h0ZM702.83,719.91c.17-.52.39-1.04.63-1.53.15-.36.15-.77,0-1.13-.23-.65-.55-1.26-.93-1.83,0-.06-.07-.12-.11-.17-.36-.53-.59-1.15-.65-1.79.04-1.14.39-2.25,1-3.21l.06-.1.89.79-.05.06c-1.21,1.65-1,2.86.16,4.44,1,1.28,1.17,3.82-.14,4.94-.11-.05-.22-.1-.33-.16-.12-.06-.25-.12-.37-.17h-.08l-.08-.14h0ZM705.76,720.18h0c-.11-.06-.23-.12-.35-.17h-.08v-.08c.09-.35.24-.65.38-.94.09-.18.17-.35.23-.53.37-1-.42-2.26-1-3.08-1.28-1.94-.69-3.26.26-5.13v-.1l1,.69-.06.08c-1.25,1.67-1.11,2.88.13,4.49,1,1.28,1.17,3.82-.14,4.94h-.05.03c-.12-.06-.23-.12-.35-.17ZM708.86,722.16h-11.68v-1h11.68v1ZM717.18,725.26c-2.33-4-4.65-8-6.95-12.01-2.46-4.27-4.91-8.54-7.41-12.78-2.41,4.12-4.79,8.26-7.18,12.4-2.38,4.14-4.77,8.28-7.18,12.4h28.72ZM496.2,741.39v-2.59h1.22c1.24,0,1.86.45,1.86,1.27s-.56,1.32-1.9,1.32h-1.18ZM470.47,742.92l.35-1.18c.29-.93.56-1.93.81-2.93h.05l.17.6c.22.78.43,1.53.67,2.33l.34,1.18h-2.39ZM455.09,742.07v-3.23h1.15c1.39,0,2.12.39,2.12,1.54s-.67,1.69-2.08,1.69h-1.19ZM488.54,741.74l-.35,1.18h2.39l-.34-1.18c-.15-.55-.3-1.07-.46-1.6-.13-.44-.25-.88-.38-1.33h-.05c-.25,1-.52,2-.81,2.93h0ZM497.6,742.46h-1.4v3h1.4c1.37,0,2.15-.49,2.15-1.56s-.76-1.42-2.15-1.42v-.02ZM522.04,742.07v-3.23h1.15c1.39,0,2.12.39,2.12,1.54s-.67,1.69-2.07,1.69h-1.2ZM687.23,754.16h31.18c.78,0,1.41-.64,1.42-1.42v-19.84c0-.78-.64-1.41-1.42-1.42h-31.18c-.38,0-.74.15-1,.42-.27.27-.42.63-.42,1v19.84c0,.78.64,1.41,1.42,1.42h0ZM668.47,738.01v2.03c.71.13,1.35.53,1.78,1.12l1.58-1.25c-.4-.52-.89-.96-1.46-1.29-.59-.32-1.23-.53-1.9-.61h0ZM668.47,745.85v1.97c1.34-.12,2.56-.8,3.38-1.86l-1.59-1.23c-.44.58-1.08.98-1.79,1.12ZM663.45,745.1c.33.69.82,1.29,1.43,1.75v-.04c.72.54,1.57.88,2.46.99v-2c-.75-.16-1.41-.6-1.86-1.22-.34-.49-.52-1.07-.52-1.66.02-.84.38-1.64,1-2.21.4-.34.88-.58,1.39-.69v-2c-1.34.16-2.55.85-3.37,1.92-1.12,1.49-1.33,3.48-.53,5.16ZM658.8,738.25v9.36h2v-9.36h-2ZM652.67,741.91v2l.75-.05c.42,0,.85-.03,1.26-.12.32-.09.62-.23.89-.43.36-.26.66-.61.85-1.01.2-.4.29-.84.27-1.29.03-.88-.39-1.72-1.11-2.23-.3-.22-.64-.37-1-.45-.46-.1-.94-.14-1.41-.13h-.5v2h.71c.31-.02.63.03.92.15.24.14.38.4.37.68.02.33-.16.63-.46.76-.29.1-.6.14-.9.12h-.64ZM652.67,745.61v2l.69-.05c.43,0,.87-.03,1.29-.11.32-.08.62-.22.89-.4.36-.26.66-.6.86-1,.21-.41.31-.85.31-1.31,0-.42-.08-.84-.25-1.22-.44.54-1.07.9-1.76,1,0,.07,0,.13,0,.2.03.36-.19.69-.53.8-.28.07-.57.1-.86.09h-.64,0ZM649.53,738.25v9.36h2v-9.36h-2ZM645.04,738.25v5.11c.03.56-.07,1.11-.3,1.62-.23.37-.59.63-1,.75v2.06c.45-.07.87-.22,1.27-.44.4-.21.76-.49,1.06-.82.34-.36.59-.79.75-1.26.16-.54.23-1.11.22-1.68v-5.34h-2ZM639.35,738.25v5.3c-.02.58.05,1.16.21,1.72.15.47.4.9.74,1.26.3.33.66.61,1.05.82.4.21.82.36,1.26.44v-2.06c-.41-.13-.77-.4-1-.77-.21-.49-.3-1.03-.26-1.56v-5.15h-2ZM633.97,738.05v1.96c.72.13,1.36.53,1.8,1.12l1.56-1.18c-.4-.52-.89-.96-1.46-1.29-.59-.32-1.23-.53-1.9-.61h0ZM633.97,745.86v1.96c1.33-.12,2.56-.79,3.38-1.85l-1.6-1.23c-.43.58-1.07.98-1.78,1.12h0ZM628.94,745.11c.34.68.83,1.28,1.43,1.75v-.05c.72.55,1.57.9,2.46,1.01v-2c-.75-.16-1.41-.6-1.86-1.22-.34-.49-.52-1.07-.52-1.66,0-.42.09-.83.26-1.21.17-.38.42-.72.72-1,.4-.34.88-.58,1.4-.69v-2c-1.34.16-2.56.85-3.38,1.92-.66.86-1.01,1.92-1,3,0,.74.17,1.48.49,2.15h0ZM619.47,738.26l2.51,3.55,1.25-1.71-1.29-1.84h-2.47ZM622.69,742.82v4.8h2.02v-4.16l3.81-5.2h-2.49l-3.34,4.56h0ZM610.51,737.96v2.66l8.26,7.28v-9.66h-2v5.22l-6.26-5.5ZM610.51,742.06v5.56l2-.05v-3.75l-2-1.76ZM606.33,746.05l.82,1.57,2.2-.04-5-9.79-1.13,2.18,2.11,4.08h-.79l-1,2h2.79ZM602.61,741.22l-3.29,6.4h2.25l2.16-4.2-1.12-2.2ZM425.13,737.04l4.73-4.73c.52-.54,1.25-.84,2-.83h248.78c.78,0,1.41.64,1.41,1.42v19.84c0,.78-.63,1.41-1.41,1.42h-239.22c-.75,0-1.47-.29-2-.83l-14.29-14.29c-.55-.55-.55-1.45,0-2h0ZM543.66,742.14c0,2.88,1.65,4.52,4,4.52,1.04.04,2.06-.32,2.84-1.02v-3.81h-3v1.13h1.74v2.07c-.4.29-.89.45-1.39.43-1.77,0-2.77-1.31-2.77-3.37s1.08-3.32,2.71-3.32c.69-.02,1.35.27,1.82.78l.75-.88c-.67-.72-1.62-1.12-2.61-1.11-2.33,0-4.09,1.7-4.09,4.58h0ZM538.39,738.89v7.62h1.38v-7.62h2.6v-1.16h-6.55v1.16h2.57ZM528.91,737.73v8.78l5.32-.04v-1.17h-3.93v-2.84h3.22v-1.13h-3.22v-2.44h3.8v-1.16h-5.19ZM520.66,737.73v8.78h1.38v-3.33h1.33c1.9,0,3.3-.82,3.3-2.8s-1.35-2.65-3.35-2.65h-2.66ZM515.34,736.99l-3.31,11.66h1.23l3.32-11.66h-1.24ZM503.92,746.32c.54.22,1.11.33,1.69.33h0c1.92.01,3.09-1.13,3.09-2.54,0-1.1-.73-2.07-1.79-2.37l-1.2-.52-.06-.03c-.69-.31-1.36-.61-1.36-1.29s.58-1.13,1.48-1.13c.72,0,1.41.28,1.93.78l.73-.88c-.7-.71-1.66-1.11-2.66-1.11-.7-.08-1.4.13-1.95.58-.54.45-.88,1.09-.95,1.79.05,1.07.77,1.99,1.79,2.3l1.21.53c.82.35,1.41.67,1.41,1.41s-.59,1.24-1.66,1.24c-.88-.02-1.71-.38-2.33-1l-.81.95c.41.41.89.74,1.43.96h0ZM494.82,737.72v8.78h2.93c1.94,0,3.36-.84,3.36-2.58.06-1.04-.7-1.95-1.73-2.09v-.06c.77-.31,1.27-1.06,1.26-1.89,0-1.59-1.3-2.16-3.1-2.16h-2.72,0ZM488.61,737.72l-2.91,8.78h1.41l.75-2.51h3.06l.74,2.51h1.46l-2.91-8.78h-1.6,0ZM481.55,736.98l-3.32,11.66h1.23l3.31-11.66h-1.22ZM470.89,737.72l-2.91,8.78h1.41l.75-2.51h3.06l.74,2.51h1.46l-2.91-8.78h-1.6,0ZM461.98,737.72v8.78h5.09v-1.17h-3.71v-7.61h-1.38ZM453.73,737.72v8.78h1.38v-3.33h1.33c1.9,0,3.3-.82,3.3-2.8s-1.4-2.65-3.35-2.65h-2.66,0ZM22.83,34.73h-2.27v113.39h2.27V34.73h0ZM22.83,436.1h-2.27v283.46h2.27v-283.46h0ZM14.64,173.48c0,4.58,1.81,7.58,7.81,7.58,6.5,0,7.81-3.03,7.81-7.6v-5h-15.62v5.02ZM27.76,173.37c0,2.93-.97,4.69-5.31,4.69v-.03c-4.12,0-5.27-1.67-5.27-4.66v-2h10.58v2ZM20.71,183.62c4.91,0,6.31,2.14,6.31,5.83s-1.4,5.85-6.31,5.85-6.3-2.13-6.3-5.85,1.36-5.83,6.3-5.83ZM20.71,192.4c3.16,0,4.15-.74,4.15-2.95s-1-2.92-4.15-2.92-4.11.74-4.11,2.92.96,2.95,4.11,2.95ZM14.64,208.71h12.13v-2.81h-8.08c-1.29-.31-2.12-1.55-1.94-2.86,0-1.73.81-2.11,2.5-2.11h7.52v-2.82h-8.36c-2.51,0-4,1.02-4,4.08,0,1.69.48,3.06,1.78,3.76l-1.55.24s0,2.52,0,2.52ZM20.71,223.74c-3.44,0-6.3-.92-6.3-4.9,0-2.32.81-3.33,2.07-3.81l-1.84-.22v-2.54h17.13v2.81h-6.69c1.08.49,1.94,1.55,1.94,3.76,0,3.98-2.5,4.9-6.31,4.9ZM20.71,220.84c2.35,0,4.15-.36,4.15-2.77s-1.53-3.15-4.15-3.15-4.11.68-4.11,3.15,1.93,2.77,4.11,2.77ZM31.77,226.62h-14.3c-2.07,0-2.97.84-2.97,3.29,0,.46.04.91.14,1.36h2.2c-.06-.25-.09-.5-.09-.75,0-.76.27-1.06,1.4-1.06h13.62v-2.84ZM20.17,243.46l-.51-8c-2,.07-3,1.06-3,3.49,0,1.38.28,2.74.83,4h-2.3c-.58-1.41-.86-2.93-.81-4.45,0-3.7,1.4-5.83,6.3-5.83s6.31,2.13,6.31,5.83c0,4.2-2.39,5.08-5.25,5.08-.53,0-1.05-.04-1.57-.12h0ZM22.07,240.96c1.5,0,2.79-.31,2.79-2.47s-1.08-2.91-3.2-3l.41,5.47ZM17.61,251.71h-2.63c-.38,1.5-.58,3.04-.57,4.59,0,4.07,1.65,5.85,4.62,5.85s4.03-.97,4.9-4.61c.61-2.48.99-2.84,2.16-2.84,1.56,0,1.94.86,1.94,2.75,0,1.32-.21,2.63-.59,3.89h2.5c.4-1.29.59-2.64.57-4,0-3.6-1.31-5.54-4.48-5.54-2.77,0-3.65,1.04-4.44,4.32-.63,2.57-.95,3.09-2.52,3.09s-2.11-.84-2.11-3c0-1.52.22-3.04.65-4.5h0ZM26.77,265.12v2.81h-12.13v-2.81h12.13ZM30.18,264.94c1.36,0,1.5.34,1.5,1.6s-.14,1.59-1.51,1.59-1.53-.33-1.53-1.59.2-1.6,1.54-1.6ZM14.64,282.29h17.13v-2.79h-6.74c1.23-.5,2-1.49,2-3.76,0-3.98-2.88-4.93-6.31-4.93-3.8,0-6.3.93-6.3,4.93,0,2.18.83,3.31,2,3.78l-1.78.27v2.5h0ZM24.92,276.5c0,2.46-1.67,3.11-4.15,3.11h-.06c-2.61,0-4.05-.68-4.05-3.11s1.77-2.76,4.11-2.76c2.15,0,4.15.3,4.15,2.76ZM20.17,295.99l-.51-8c-2,.07-3,1.06-3,3.49,0,1.38.28,2.74.83,4h-2.3c-.58-1.41-.86-2.93-.81-4.45,0-3.69,1.4-5.83,6.3-5.83s6.31,2.14,6.31,5.83c0,4.21-2.39,5.08-5.25,5.08-.53,0-1.05-.04-1.57-.12ZM22.07,293.49c1.5,0,2.79-.31,2.79-2.47s-1.08-2.91-3.2-3l.41,5.47ZM14.64,309.78h17.13v-2.79h-6.74c1.23-.49,2-1.48,2-3.76,0-3.93-2.88-4.93-6.31-4.93-3.8,0-6.3.93-6.3,4.93,0,2.19.83,3.31,2,3.78l-1.78.27v2.5h0ZM24.92,304c0,2.45-1.67,3.1-4.15,3.1h-.06c-2.61,0-4.05-.67-4.05-3.1s1.77-2.77,4.11-2.77c2.15,0,4.15.32,4.15,2.77ZM30.26,319.07v5.39c0,4.68-1.53,6.14-5.31,6.14-4.08,0-5.5-1.75-5.5-6.14v-2h-4.81v-3.42l15.62.03ZM22.2,323.96c0,2.31.61,3.1,2.68,3.1s2.68-.81,2.68-3.1v-1.5h-5.36s0,1.5,0,1.5ZM14.61,343.19h3v-6.43h3.6v5.7h2.86v-5.7h3.19v6.12h3v-9.54h-15.65s0,9.85,0,9.85ZM30.26,345.98v3.42h-15.62v-3.42s15.62,0,15.62,0ZM17.61,358.15h-2.63c-.38,1.5-.58,3.05-.57,4.6,0,4.07,1.65,5.85,4.62,5.85s4.03-.97,4.9-4.62c.61-2.47.99-2.83,2.16-2.83,1.56,0,1.94.85,1.94,2.74,0,1.32-.21,2.64-.59,3.9h2.5c.4-1.29.59-2.64.57-4,0-3.6-1.31-5.53-4.48-5.53-2.77,0-3.65,1.03-4.44,4.32-.63,2.56-.95,3.08-2.52,3.08s-2.11-.84-2.11-3c0-1.53.22-3.05.65-4.51ZM22.97,382.3h-8.33v-2.84h7.54c1.71,0,2.5-.41,2.5-2.1.21-1.37-.66-2.67-2-3h-8v-2.81h17.09v2.91h-6.55c1.28.68,1.8,2.16,1.8,3.83,0,3.04-1.49,4.01-4.05,4.01ZM19.66,387.93l.51,8c.52.08,1.04.12,1.57.12,2.86,0,5.25-.88,5.25-5.09,0-3.69-1.41-5.83-6.31-5.83s-6.3,2.14-6.3,5.83c-.05,1.53.23,3.05.81,4.46h2.3c-.55-1.26-.83-2.62-.83-4,0-2.44,1-3.43,3-3.49ZM24.86,390.98c0,2.16-1.29,2.48-2.79,2.48l-.41-5.48c2.12.1,3.2.84,3.2,3ZM20.17,409.05l-.51-8c-2,.07-3,1.06-3,3.49,0,1.38.28,2.74.83,4h-2.3c-.58-1.41-.86-2.93-.81-4.45,0-3.69,1.4-5.83,6.3-5.83s6.31,2.14,6.31,5.83c0,4.21-2.39,5.08-5.25,5.08-.53,0-1.05-.04-1.57-.12h0ZM22.07,406.55c1.5,0,2.79-.31,2.79-2.47s-1.08-2.91-3.2-3l.41,5.47ZM18.69,415.03h5.85v2.68h2.23v-2.68h2.9v-2.81h-2.9v-1.69h-2.19v1.69h-6.08c-3.23,0-4,1.01-4,3.92,0,.51.04,1.01.12,1.51h2.18c-.09-.36-.12-.74-.11-1.11,0-1.24.42-1.51,2-1.51h0Z" style="fill:#9f9fa0; fill-rule:evenodd;"/></svg>