<svg width="430" height="430" viewBox="0 0 430 430" fill="none" xmlns="http://www.w3.org/2000/svg">
<path opacity="0.9" fill-rule="evenodd" clip-rule="evenodd" d="M368.377 412.523L374.006 417.939L377.421 418.271L372.967 414.354L368.377 412.523Z" fill="white"/>
<path fill-rule="evenodd" clip-rule="evenodd" d="M373.927 417.992L368.301 412.558L364.834 418.797L368.702 424.569L373.927 417.992Z" fill="white"/>
<path fill-rule="evenodd" clip-rule="evenodd" d="M368.777 424.583L374.014 418.026L377.441 418.331L373.326 422.933L368.777 424.583Z" fill="white"/>
<path d="M393.901 415.736H392.397L393.928 417.902L394.694 416.863L393.901 415.736Z" fill="white"/>
<path d="M390.735 418.926L386.924 415.551V417.182L391.963 421.632V415.736H390.735V418.926Z" fill="white"/>
<path d="M396.399 415.736L394.363 418.522V421.449H395.597V418.921L397.921 415.736H396.399Z" fill="white"/>
<path d="M382.474 416.806L383.764 419.294H383.281L382.668 420.494H384.373L384.871 421.449H386.248L383.17 415.474L382.474 416.806Z" fill="white"/>
<path d="M386.924 421.449V421.452H388.152V419.166L386.924 418.087V421.449Z" fill="white"/>
<path d="M382.103 417.545L380.096 421.45H381.468L382.787 418.887L382.103 417.545Z" fill="white"/>
<path d="M413.853 419.118C414.05 419.069 414.235 418.982 414.398 418.862C414.619 418.701 414.797 418.489 414.917 418.242C415.036 417.996 415.093 417.724 415.082 417.45C415.089 417.185 415.031 416.922 414.913 416.684C414.794 416.447 414.619 416.243 414.402 416.09C414.23 415.961 414.035 415.868 413.827 415.814C413.544 415.754 413.255 415.727 412.966 415.736H412.657V416.95H413.098C413.289 416.935 413.48 416.965 413.657 417.038C413.729 417.079 413.788 417.141 413.827 417.214C413.867 417.288 413.884 417.372 413.878 417.454C413.884 417.551 413.861 417.647 413.811 417.731C413.761 417.815 413.687 417.88 413.599 417.92C413.424 417.982 413.238 418.008 413.052 417.997H412.657V419.197H413.098C413.352 419.202 413.606 419.175 413.853 419.118Z" fill="white"/>
<path d="M398.496 416.768C398.086 417.291 397.866 417.939 397.872 418.604C397.873 419.063 397.98 419.516 398.183 419.928C398.386 420.34 398.681 420.699 399.046 420.979C399.487 421.316 400.008 421.532 400.559 421.603V420.364C400.101 420.266 399.697 419.997 399.43 419.611C399.254 419.358 399.146 419.064 399.118 418.757C399.091 418.45 399.143 418.141 399.271 417.86C399.372 417.626 399.523 417.418 399.712 417.249C399.957 417.04 400.249 416.895 400.564 416.828V415.586C400.158 415.634 399.764 415.763 399.409 415.966C399.055 416.169 398.744 416.442 398.496 416.768Z" fill="white"/>
<path d="M402.331 417.525L403.293 416.76C403.057 416.439 402.756 416.171 402.411 415.972C402.052 415.772 401.658 415.644 401.25 415.595V416.837C401.684 416.923 402.07 417.169 402.331 417.525Z" fill="white"/>
<path d="M423.393 417.525L424.357 416.76C424.12 416.44 423.82 416.171 423.475 415.972C423.117 415.772 422.723 415.644 422.314 415.595V416.837C422.747 416.924 423.133 417.169 423.393 417.525Z" fill="white"/>
<path d="M413.886 419.578C413.895 419.618 413.9 419.659 413.9 419.7C413.91 419.805 413.883 419.911 413.825 419.999C413.766 420.088 413.679 420.154 413.578 420.186C413.41 420.231 413.236 420.251 413.062 420.244H412.667V421.445H413.07C413.335 421.45 413.599 421.426 413.858 421.374C414.053 421.33 414.236 421.249 414.399 421.134C414.621 420.977 414.801 420.768 414.923 420.525C415.051 420.277 415.118 420.002 415.118 419.724C415.12 419.469 415.069 419.215 414.967 418.981C414.692 419.305 414.307 419.518 413.886 419.578Z" fill="white"/>
<path d="M419.56 416.768C419.15 417.291 418.93 417.939 418.938 418.604C418.939 419.063 419.044 419.517 419.248 419.928C419.451 420.34 419.747 420.699 420.111 420.979C420.552 421.317 421.074 421.532 421.625 421.603V420.364C421.165 420.266 420.76 419.997 420.493 419.611C420.317 419.358 420.211 419.064 420.183 418.757C420.155 418.45 420.208 418.141 420.334 417.86C420.435 417.626 420.585 417.417 420.775 417.249C421.019 417.039 421.313 416.895 421.627 416.828V415.586C421.221 415.634 420.828 415.763 420.473 415.966C420.118 416.169 419.808 416.442 419.56 416.768Z" fill="white"/>
<path d="M401.243 420.366V421.608C401.649 421.564 402.041 421.438 402.396 421.237C402.75 421.036 403.061 420.764 403.306 420.439L402.335 419.687C402.067 420.04 401.679 420.282 401.243 420.366Z" fill="white"/>
<path d="M423.398 419.687C423.128 420.042 422.735 420.285 422.295 420.366V421.608C422.701 421.564 423.093 421.438 423.449 421.237C423.803 421.036 424.113 420.764 424.359 420.439L423.398 419.687Z" fill="white"/>
<path d="M417.626 415.736H416.396V421.449H417.626V415.736Z" fill="white"/>
<path d="M405.92 419.832C405.795 419.532 405.74 419.206 405.761 418.882V415.736H404.528V418.994C404.517 419.344 404.564 419.692 404.665 420.026C404.76 420.31 404.915 420.571 405.119 420.79C405.302 420.994 405.519 421.164 405.761 421.292C406.002 421.426 406.264 421.517 406.536 421.564V420.309C406.28 420.229 406.062 420.06 405.92 419.832Z" fill="white"/>
<path d="M407.999 418.886C408.02 419.216 407.962 419.547 407.832 419.85C407.689 420.074 407.468 420.237 407.212 420.309V421.564C407.485 421.52 407.748 421.43 407.99 421.297C408.231 421.164 408.449 420.993 408.634 420.79C408.84 420.571 408.996 420.311 409.091 420.026C409.191 419.692 409.237 419.344 409.228 418.994V415.736H407.999V418.886Z" fill="white"/>
<path d="M411.97 415.736H410.74V421.449H411.97V415.736Z" fill="white"/>
</svg>
