<?xml version="1.0" encoding="UTF-8"?><svg id="a" xmlns="http://www.w3.org/2000/svg" width="749" height="783" viewBox="0 0 749 783"><path d="M30.28,432.56h-2.27v307.28h2.27v-307.28ZM30.28,14.17h-2.27v153.07h2.27V14.17ZM28.52,188.66c-6,0-7.81-3-7.81-7.59v-5.07h15.62v5.06c0,4.55-1.31,7.59-7.81,7.59M28.52,185.65c4.34,0,5.31-1.76,5.31-4.68v-2h-10.58v2c0,3,1.15,4.65,5.27,4.65v.03ZM26.79,191.22c4.9,0,6.3,2.14,6.3,5.83s-1.4,5.85-6.3,5.85-6.31-2.14-6.31-5.85,1.4-5.83,6.31-5.83ZM26.79,200c3.15,0,4.14-.75,4.14-2.95s-1-2.93-4.14-2.93-4.12.74-4.12,2.93.96,2.95,4.12,2.95ZM32.86,216.31h-12.15v-2.52l1.55-.25c-1.3-.7-1.78-2.07-1.78-3.76,0-3.06,1.49-4.07,4-4.07h8.35v2.81h-7.51c-1.69,0-2.5.38-2.5,2.12-.09.63.07,1.27.42,1.8.36.53.9.9,1.52,1.06h8.1v2.81ZM26.79,231.34c-3.45,0-6.31-.92-6.31-4.91,0-2.32.81-3.33,2.07-3.8l-1.84-.23v-2.54h17.1v2.81h-6.66c1.08.5,1.94,1.56,1.94,3.76,0,4-2.5,4.91-6.3,4.91ZM26.79,228.44c2.34,0,4.14-.36,4.14-2.77s-1.53-3.15-4.14-3.15-4.12.67-4.12,3.15,1.93,2.77,4.12,2.77ZM23.54,234.22h14.27v2.78h-13.59c-1.13,0-1.4.29-1.4,1.06,0,.25.03.5.09.74h-2.2c-.1-.44-.14-.9-.14-1.35,0-2.39.9-3.26,3-3.26M26.24,251.09l-.51-8c-2,.06-3,1-3,3.48,0,1.38.28,2.74.83,4h-2.3c-.58-1.41-.86-2.93-.81-4.46,0-3.69,1.4-5.83,6.3-5.83s6.31,2.14,6.31,5.83c0,4.21-2.39,5.09-5.25,5.09-.54,0-1.07-.04-1.6-.12M28.11,248.58c1.5,0,2.79-.31,2.79-2.47s-1.08-2.9-3.2-3l.41,5.47ZM21.05,259.3h2.63c-.43,1.46-.65,2.98-.65,4.5,0,2.16.54,3,2.11,3s1.89-.52,2.52-3.08c.79-3.29,1.67-4.32,4.44-4.32,3.17,0,4.48,1.93,4.48,5.53.02,1.36-.17,2.71-.57,4h-2.5c.38-1.26.58-2.58.59-3.9,0-1.89-.38-2.74-1.94-2.74-1.17,0-1.55.36-2.16,2.83-.87,3.65-1.93,4.62-4.9,4.62s-4.62-1.78-4.62-5.86c0-1.55.19-3.09.57-4.59M32.86,275.53h-12.15v-2.82h12.15v2.82ZM36.26,272.53c1.37,0,1.51.34,1.51,1.6s-.14,1.6-1.51,1.6-1.53-.34-1.53-1.6.18-1.6,1.53-1.6ZM37.81,289.88h-17.1v-2.5l1.78-.27c-1.17-.47-2-1.59-2-3.78,0-4,2.5-4.93,6.31-4.93,3.42,0,6.3,1,6.3,4.93,0,2.28-.77,3.27-2,3.76h6.68l.03,2.79ZM26.81,287.2c2.47,0,4.14-.65,4.14-3.1s-2-2.77-4.14-2.77c-2.34,0-4.12.34-4.12,2.77s1.48,3.1,4.1,3.1h.02ZM26.24,303.59l-.51-8c-2,.07-3,1.06-3,3.49,0,1.38.28,2.74.83,4h-2.3c-.58-1.41-.86-2.93-.81-4.46,0-3.69,1.4-5.83,6.3-5.83s6.31,2.14,6.31,5.83c0,4.21-2.39,5.09-5.25,5.09-.54,0-1.07-.04-1.6-.11M28.11,301.1c1.5,0,2.79-.32,2.79-2.48s-1.08-2.9-3.2-3l.41,5.48ZM37.81,317.38h-17.1v-2.5l1.78-.27c-1.17-.47-2-1.6-2-3.78,0-4,2.5-4.93,6.31-4.93,3.42,0,6.3.94,6.3,4.93,0,2.27-.77,3.26-2,3.76h6.68l.03,2.79ZM26.81,314.7c2.47,0,4.14-.65,4.14-3.11s-2-2.77-4.14-2.77c-2.34,0-4.12.34-4.12,2.77s1.48,3.11,4.1,3.11h.02ZM36.33,326.67v5.33c0,4.68-1.53,6.14-5.31,6.14-4.08,0-5.5-1.75-5.5-6.14v-1.91h-4.81v-3.42h15.62ZM28.27,331.55c0,2.32.61,3.11,2.68,3.11s2.68-.81,2.68-3.11v-1.46h-5.36v1.46ZM23.68,350.79h-2.97v-9.86h15.62v9.54h-2.98v-6.12h-3.22v5.67h-2.85v-5.67h-3.6v6.44ZM36.32,353.57h-15.62v3.42h15.62v-3.42ZM21.05,365.75h2.63c-.43,1.46-.65,2.98-.65,4.5,0,2.16.54,3,2.11,3s1.89-.52,2.52-3.09c.79-3.28,1.67-4.32,4.44-4.32,3.17,0,4.48,1.94,4.48,5.54.02,1.35-.17,2.7-.57,4h-2.5c.38-1.26.58-2.57.59-3.89,0-1.89-.38-2.75-1.94-2.75-1.17,0-1.55.36-2.16,2.84-.87,3.64-1.93,4.61-4.9,4.61s-4.62-1.78-4.62-5.85c0-1.55.19-3.09.57-4.59ZM29,389.89h-8.29v-2.81h7.54c1.71,0,2.5-.4,2.5-2.09.11-.66-.04-1.34-.41-1.89-.37-.56-.94-.95-1.59-1.11h-8v-2.79h17.1v2.8h-6.56c1.28.67,1.8,2.16,1.8,3.82,0,3.09-1.49,4.05-4.05,4.05M26.24,403.53l-.51-8c-2,.07-3,1.06-3,3.49,0,1.38.28,2.74.83,4h-2.3c-.58-1.41-.86-2.93-.81-4.46,0-3.69,1.4-5.83,6.3-5.83s6.31,2.14,6.31,5.83c0,4.21-2.39,5.09-5.25,5.09-.54,0-1.07-.03-1.6-.11M28.11,401.04c1.5,0,2.79-.32,2.79-2.48s-1.08-2.9-3.2-3l.41,5.48ZM26.24,416.65l-.51-8c-2,.07-3,1.06-3,3.49,0,1.38.28,2.74.83,4h-2.3c-.58-1.41-.86-2.93-.81-4.46,0-3.69,1.4-5.83,6.3-5.83s6.31,2.14,6.31,5.83c0,4.21-2.39,5.09-5.25,5.09-.54,0-1.07-.04-1.6-.11M28.11,414.16c1.5,0,2.79-.32,2.79-2.48s-1.08-2.9-3.2-3l.41,5.48ZM30.61,422.63h-5.85c-1.58,0-2,.27-2,1.51-.01.37.02.74.11,1.1h-2.18c-.08-.5-.12-1-.12-1.51,0-2.9.77-3.91,4-3.91h6.08v-1.69h2.25v1.69h2.88v2.81h-2.92v2.68h-2.25v-2.68ZM721.8,742.52c.28-1.09.76-1.09.64-2.46-.12-.77-.47-1.49-1-2.06-.43-.52-.69-1.16-.74-1.83.06-1.18.4-2.32,1-3.34v-.09l1,.69-.06.07c-1.25,1.67-1.13,2.88.1,4.49,1,1.29,1.16,3.82-.15,5h-.06l-.67-.33h-.07v-.14ZM724.46,742.52c.17-.52.38-1.04.62-1.53.15-.36.15-.77,0-1.13-.23-.65-.55-1.26-.93-1.83l-.1-.18c-.37-.54-.6-1.17-.66-1.83.04-1.14.39-2.25,1-3.21l.05-.11.89.79-.05.07c-1.21,1.65-1,2.86.17,4.43,1,1.28,1.16,3.82-.15,5h-.06c-.23-.11-.46-.23-.7-.33h-.07v-.14ZM727.74,742.95c-.25-.1-.46-.23-.71-.33h-.03v-.07c.17-.5.37-.99.61-1.47.37-1-.43-2.26-1-3.09-1.27-1.94-.68-3.25.26-5.13v-.09l1,.69v.07c-1.25,1.68-1.11,2.89.13,4.49,1,1.28,1.16,3.82-.15,5l-.11-.07ZM730.49,744.77h-11.68v-1h11.68v1ZM738.81,747.87c-4.83-8.25-9.54-16.56-14.37-24.81-4.82,8.25-9.53,16.56-14.36,24.81h28.73ZM707.44,748.65c-.01.23.05.46.17.65.12.21.29.38.49.5.21.12.44.19.68.19h31.33c.24,0,.47-.05.68-.17.21-.12.38-.29.49-.49.11-.21.17-.44.17-.68,0-.23-.06-.46-.17-.66l-15.69-27.08c-.12-.21-.28-.38-.49-.5-.2-.12-.44-.18-.67-.18s-.47.06-.67.18c-.2.12-.37.29-.49.5l-15.66,27.09c-.12.21-.18.45-.17.69M740.11,749.34h-31.33c-.12,0-.24-.03-.34-.09-.1-.06-.19-.14-.26-.24-.06-.1-.08-.21-.07-.32-.01-.12.01-.25.07-.36l15.69-27.08c.05-.1.14-.19.24-.25.1-.06.22-.09.33-.08.12,0,.23.03.33.09.1.06.19.14.25.24l15.69,27.08c.04.1.07.22.07.33,0,.12-.03.24-.07.35-.07.09-.16.17-.26.22-.1.05-.22.07-.34.07v.04ZM708.85,776.77h31.15c.38,0,.73-.15,1-.42.26-.27.41-.63.41-1v-19.84c0-.38-.15-.73-.41-1-.27-.27-.62-.42-1-.42h-31.15c-.38,0-.73.15-1,.42-.26.27-.41.63-.41,1v19.84c0,.38.15.74.41,1,.26.27.62.42,1,.42ZM690.1,762.62v-2c.67.09,1.31.3,1.9.62.57.32,1.07.76,1.46,1.29l-1.58,1.25c-.43-.59-1.06-.99-1.78-1.12M690.1,770.47v-2c.71-.13,1.35-.53,1.78-1.11l1.59,1.23c-.41.52-.91.95-1.49,1.27-.58.32-1.22.51-1.88.57v.04ZM686.5,769.47c-.61-.46-1.1-1.06-1.43-1.75-.32-.67-.49-1.4-.49-2.14-.02-1.08.34-2.14,1-3,.4-.53.91-.98,1.49-1.31.58-.33,1.22-.54,1.89-.62v2c-.52.11-1,.34-1.4.69-.31.28-.56.62-.74,1-.17.38-.26.8-.26,1.22,0,.59.18,1.17.52,1.66.46.62,1.14,1.04,1.9,1.18v2c-.91-.11-1.77-.46-2.5-1l.02.07ZM680.42,770.23v-9.35h2v9.35h-2ZM674.29,766.53v-2h.65c.3.01.6-.03.89-.13.14-.06.27-.17.35-.3.08-.13.12-.29.11-.45.01-.14-.02-.27-.08-.4-.07-.12-.16-.22-.29-.29-.29-.12-.6-.17-.91-.15h-.72v-2h.51c.47-.01.95.03,1.41.12.59.15,1.11.5,1.49.99.37.49.57,1.08.57,1.69.02.45-.08.89-.28,1.3-.2.4-.49.75-.85,1.01-.27.2-.57.34-.89.42-.41.09-.84.13-1.26.12l-.7.06ZM674.29,770.23v-2h.65c.29.01.57-.02.85-.1.17-.05.31-.16.4-.3.1-.14.14-.32.13-.49.01-.07.01-.13,0-.2.69-.1,1.32-.46,1.77-1,.16.39.25.8.25,1.22,0,.46-.11.91-.32,1.31-.2.4-.49.75-.86,1-.27.19-.57.33-.89.4-.43.08-.86.12-1.29.11l-.69.05ZM671.15,770.23v-9.35h2v9.35h-2ZM666.66,766.03v-5.15h2v5.33c.01.57-.06,1.14-.23,1.69-.16.46-.41.89-.74,1.25-.31.33-.67.61-1.07.83-.4.21-.83.36-1.27.44v-2.12c.41-.13.77-.4,1-.76.22-.48.33-1.01.31-1.54v.03ZM660.98,766.21v-5.33h2v5.12c-.03.53.06,1.06.26,1.55.23.37.58.65,1,.78v2.06c-.44-.08-.87-.23-1.26-.45-.38-.22-.71-.49-1-.82-.33-.36-.58-.79-.74-1.25-.17-.56-.25-1.14-.24-1.72l-.02.06ZM655.59,762.68v-2c.67.08,1.31.29,1.9.62.57.32,1.07.76,1.46,1.29l-1.58,1.25c-.2-.31-.46-.58-.77-.79-.31-.21-.65-.36-1.01-.43v.06ZM655.59,770.49v-2c.72-.13,1.36-.53,1.79-1.11l1.59,1.23c-.41.52-.92.94-1.5,1.26-.58.31-1.22.51-1.88.57v.06ZM652,769.49c-.51-.39-.94-.89-1.26-1.45-.32-.56-.53-1.18-.62-1.82-.08-.64-.04-1.29.13-1.92.17-.62.46-1.21.85-1.72.4-.53.91-.97,1.49-1.31.58-.33,1.22-.54,1.88-.62v2c-.52.1-1,.34-1.39.69-.31.28-.56.62-.72,1-.21.46-.3.97-.26,1.47.04.51.22.99.51,1.41.45.62,1.11,1.06,1.86,1.22v2c-.9-.11-1.75-.46-2.47-1v.04ZM643.61,764.49l-2.51-3.49h2.46l1.3,1.84-1.25,1.65ZM644.32,770.3v-4.8l3.33-4.55h2.49l-3.81,5v4.14l-2.01.21ZM632.13,763.3v-2.67l6.24,5.53v-5.22h2v9.65l-8.24-7.29ZM632.13,770.3v-5.51l2,1.77v3.74h-2ZM628.77,770.3l-.77-1.7h-2.8l1-2h.8l-2.11-4.07,1.13-2.19,5,9.79-2.25.17ZM620.95,770.3l3.29-6.39,1.12,2.19-2.16,4.2h-2.25ZM588.33,769.24l2.91-8.78h1.6l2.91,8.78h-1.47l-.73-2.5h-3.06l-.75,2.5h-1.41ZM585.7,767c0-.8-.59-1.05-1.41-1.4l-1.21-.53c-.5-.15-.94-.46-1.26-.87-.32-.41-.51-.91-.53-1.43.02-.34.11-.68.27-.98s.36-.58.62-.81.56-.4.88-.51c.32-.11.67-.15,1.01-.13h.11c.49,0,.98.1,1.44.29.46.19.87.47,1.22.82l-.73.88c-.52-.5-1.21-.79-1.93-.79-.9,0-1.48.43-1.48,1.13s.71,1,1.42,1.33l1.2.51c.52.14.98.46,1.3.89.32.43.5.96.49,1.49,0,1.4-1.17,2.55-3.09,2.55-.59-.01-1.17-.14-1.7-.38-.54-.24-1.02-.59-1.42-1.02l.81-1c.62.62,1.45.98,2.33,1,1.07.06,1.66-.44,1.66-1.18v.14ZM571.7,769.29l2.91-8.78h1.6l2.91,8.78h-1.47l-.74-2.5h-3l-.76,2.5h-1.45ZM564.22,771.44l3.32-11.67h1.23l-3.31,11.67h-1.24ZM446.78,761.83l14.29,14.29c.26.27.57.48.91.62.34.14.71.21,1.09.21h239.19c.38,0,.73-.16,1-.42s.42-.62.42-1v-20c0-.38-.16-.73-.42-1-.27-.27-.62-.42-1-.42h-248.78c-.37,0-.74.07-1.09.21-.34.14-.65.35-.91.62l-4.72,4.72c-.13.13-.24.29-.31.46-.07.17-.11.36-.11.54s.04.37.11.54c.07.17.18.33.31.46l.02.17ZM552.78,764.93c0-2.86,1.77-4.58,4.09-4.58.49,0,.97.09,1.42.28.45.19.85.47,1.19.83l-.75.88c-.23-.25-.51-.46-.82-.59-.31-.14-.65-.2-.99-.2-1.63,0-2.72,1.27-2.72,3.33s1,3.36,2.78,3.36c.5.02.98-.13,1.38-.43v-2.11h-1.74v-1.13h3v3.8c-.76.68-1.76,1.04-2.78,1-2.32-.1-4-1.75-4-4.62l-.06.18ZM545,761.49v-1.16h6.55v1.16h-2.55v7.62h-1.4v-7.62h-2.6ZM538.1,769.11v-8.78h5.19v1.16h-3.79v2.45h3.22v1.17h-3.22v2.83h3.94v1.17h-5.34ZM529.84,769.11v-8.78h2.66c2,0,3.36.67,3.36,2.65s-1.4,2.8-3.31,2.8h-1.32v3.33h-1.39ZM521.21,771.26l3.32-11.67h1.24l-3.32,11.67h-1.24ZM512.06,762.59c.02-.34.11-.68.27-.98.15-.31.36-.58.62-.81s.56-.4.88-.51c.33-.11.67-.15,1.01-.13h.16c.49,0,.98.1,1.44.29.46.19.87.47,1.22.82l-.73.88c-.52-.5-1.21-.79-1.93-.79-.89,0-1.48.43-1.48,1.13s.71,1,1.42,1.33l1.21.51c.52.15.97.46,1.29.89.32.43.5.95.5,1.49,0,1.4-1.17,2.55-3.09,2.55-.58,0-1.16-.11-1.69-.33-.54-.22-1.03-.55-1.44-.96l.81-1c.62.62,1.46.98,2.34,1,1.06,0,1.66-.5,1.66-1.24s-.6-1-1.41-1.4l-1.22-.53c-.48-.15-.91-.44-1.23-.84-.32-.4-.51-.88-.54-1.38h-.07ZM504,769.11v-8.78h2.72c1.8,0,3.1.58,3.1,2.16.02.41-.09.81-.32,1.15-.22.34-.55.6-.93.75v.06c.5.07.95.32,1.27.71.32.39.48.88.46,1.38,0,1.74-1.42,2.57-3.36,2.57h-2.94ZM494.89,769.11l2.91-8.78h1.6l2.91,8.78h-1.47l-.74-2.5h-3.05l-.75,2.5h-1.41ZM487.42,771.26l3.31-11.67h1.27l-3.32,11.67h-1.26ZM477.17,769.11l2.91-8.78h1.6l2.91,8.78h-1.47l-.74-2.5h-3l-.75,2.5h-1.46ZM471.17,769.11v-8.78h1.38v7.61h3.71v1.17h-5.09ZM462.91,769.11v-8.78h2.66c2,0,3.35.67,3.35,2.65s-1.39,2.8-3.3,2.8h-1.32v3.33h-1.39ZM464.3,764.68h1.19c1.41,0,2.08-.54,2.08-1.7s-.73-1.54-2.13-1.54h-1.14v3.24ZM480,764.34l-.36,1.18h2.36l-.35-1.18c-.3-1-.56-1.93-.83-2.92h-.05c-.25,1-.53,2-.81,2.92M497.75,764.34l-.36,1.18h2.4l-.35-1.18c-.28-1-.56-1.93-.83-2.92h-.05c-.25,1-.52,2-.81,2.92ZM505.41,761.41v2.59h1.18c1.33,0,1.89-.5,1.89-1.33s-.62-1.26-1.86-1.26h-1.21ZM506.8,765.05h-1.39v3h1.39c1.37,0,2.16-.49,2.16-1.57s-.76-1.41-2.16-1.41M531.25,761.44v3.24h1.19c1.41,0,2.08-.54,2.08-1.7s-.73-1.54-2.13-1.54h-1.14ZM575.33,761.42c-.25,1-.53,2-.81,2.92l-.36,1.18h2.39l-.34-1.18c-.28-1-.56-1.93-.84-2.92h-.04ZM591.17,764.34l-.36,1.18h2.4l-.34-1.18c-.29-1-.57-1.93-.84-2.92-.25,1-.52,2-.81,2.92" style="fill:#9f9fa0;"/></svg>