<svg width="726" height="760" fill="none" xmlns="http://www.w3.org/2000/svg"><path fill-rule="evenodd" clip-rule="evenodd" d="M685.939 726.699a1.205 1.205 0 0 1-.17-.66h.04c-.01-.239.049-.475.17-.68l15.62-27.05a1.356 1.356 0 0 1 1.18-.69 1.275 1.275 0 0 1 1.14.69l15.7 27.08c.105.201.163.423.17.65a1.626 1.626 0 0 1-.17.69 1.333 1.333 0 0 1-1.18.65h-31.32a1.352 1.352 0 0 1-1.18-.68Zm.874-.089a.751.751 0 0 0 .346.089h31.32a.745.745 0 0 0 .61-.33c.041-.116.065-.238.07-.36a1.282 1.282 0 0 0-.035-.216 1.152 1.152 0 0 0-.035-.114l-15.7-27.07a.625.625 0 0 0-.57-.33l-.045-.001-.038.002a.594.594 0 0 0-.487.329l-15.7 27.07a.623.623 0 0 0-.07.36.577.577 0 0 0 .07.33c.067.1.158.183.264.241Zm13.366-6.701c.1-.398.228-.65.344-.877.199-.391.362-.712.286-1.584a3.813 3.813 0 0 0-1-2.06 3.213 3.213 0 0 1-.73-1.82 7.199 7.199 0 0 1 1-3.339l.05-.101 1 .69-.06.081c-1.24 1.659-1.12 2.88.11 4.489 1 1.281 1.16 3.821-.15 4.94h-.05a8.43 8.43 0 0 1-.269-.135h-.001a6.593 6.593 0 0 0-.266-.133c-.044-.021-.088-.042-.134-.062h-.07l-.06-.089Zm2.65 0c.175-.524.386-1.036.63-1.531a1.512 1.512 0 0 0 0-1.13 8.49 8.49 0 0 0-.93-1.829c0-.06-.07-.121-.11-.171a3.818 3.818 0 0 1-.65-1.789 6.37 6.37 0 0 1 1-3.211l.06-.099.89.789-.05.06c-1.21 1.651-1 2.86.16 4.44 1 1.281 1.17 3.82-.14 4.94-.112-.051-.22-.105-.328-.158a6.304 6.304 0 0 0-.372-.171h-.08l-.08-.14Zm2.933.276-.002-.002c-.115-.057-.231-.115-.351-.165h-.08v-.08c.094-.347.237-.649.375-.94.085-.177.167-.351.235-.529.37-1-.42-2.26-1-3.081-1.28-1.94-.69-3.26.26-5.13v-.099l1 .69-.06.079c-1.25 1.67-1.11 2.881.13 4.491 1 1.28 1.17 3.82-.14 4.94h-.05l.03-.01a5.802 5.802 0 0 1-.347-.164Zm3.097 1.974h-11.68v-1h11.68v1Zm8.32 3.099a2029.054 2029.054 0 0 1-6.954-12.014c-2.457-4.268-4.915-8.538-7.406-12.785-2.41 4.119-4.795 8.26-7.18 12.4-2.384 4.14-4.769 8.279-7.18 12.399h28.72Zm-220.98 16.131v-2.59h1.22c1.24 0 1.86.45 1.86 1.27 0 .82-.56 1.32-1.9 1.32h-1.18Zm-25.73 1.53.35-1.18c.29-.93.56-1.93.81-2.93h.05l.17.601c.218.775.432 1.533.67 2.329l.34 1.18h-2.39Zm-15.38-.85v-3.23h1.15c1.39 0 2.12.39 2.12 1.54s-.67 1.69-2.08 1.69h-1.19Zm33.45-.33-.35 1.18h2.39l-.34-1.18c-.152-.546-.305-1.074-.458-1.601-.127-.44-.254-.88-.382-1.329h-.05c-.25 1-.52 2-.81 2.93Zm9.06.72h-1.4v3h1.4c1.37 0 2.15-.49 2.15-1.56 0-1.071-.76-1.42-2.15-1.42v-.02Zm24.441-.39v-3.23h1.15c1.39 0 2.12.39 2.12 1.54s-.67 1.69-2.07 1.69h-1.2Zm165.19 12.09h31.18a1.432 1.432 0 0 0 1.42-1.42v-19.84a1.433 1.433 0 0 0-1.42-1.42h-31.18a1.432 1.432 0 0 0-1.002.418 1.432 1.432 0 0 0-.418 1.002v19.84a1.431 1.431 0 0 0 1.42 1.42Zm-18.76-16.15v2.03a2.847 2.847 0 0 1 1.78 1.12l1.58-1.25a5.007 5.007 0 0 0-1.46-1.29 5.3 5.3 0 0 0-1.9-.61Zm0 7.84v1.97a4.826 4.826 0 0 0 3.38-1.86l-1.59-1.23a2.935 2.935 0 0 1-1.79 1.12Zm-5.02-.75a4.923 4.923 0 0 0 1.43 1.75v-.04a5.097 5.097 0 0 0 2.46.99v-2a3.079 3.079 0 0 1-1.86-1.22 2.909 2.909 0 0 1-.52-1.66 3.073 3.073 0 0 1 1-2.21c.4-.339.877-.576 1.39-.69v-2a5.002 5.002 0 0 0-3.37 1.92 5.003 5.003 0 0 0-.53 5.16Zm-4.65-6.85v9.36h2v-9.36h-2Zm-6.13 3.66v2l.75-.05c.423.009.846-.031 1.26-.12a2.74 2.74 0 0 0 .89-.43c.362-.261.655-.607.851-1.009.195-.401.287-.845.269-1.291a2.635 2.635 0 0 0-1.11-2.23 2.67 2.67 0 0 0-1-.45 6.187 6.187 0 0 0-1.41-.13h-.5v2h.71c.314-.024.629.028.92.15a.745.745 0 0 1 .37.68.77.77 0 0 1-.46.76c-.29.096-.596.137-.9.12h-.64Zm0 3.7v2l.69-.05a6.14 6.14 0 0 0 1.29-.11c.317-.081.618-.217.89-.4.362-.26.657-.603.86-1a2.88 2.88 0 0 0 .31-1.31 3.008 3.008 0 0 0-.25-1.22c-.442.54-1.07.896-1.76 1 .006.066.006.133 0 .2a.77.77 0 0 1-.53.8 3.04 3.04 0 0 1-.86.09h-.64Zm-3.14-7.36v9.36h2v-9.36h-2Zm-4.49 0v5.11a3.46 3.46 0 0 1-.3 1.62 1.738 1.738 0 0 1-1 .75v2.06a4.012 4.012 0 0 0 1.27-.44 3.951 3.951 0 0 0 1.06-.82c.338-.361.594-.791.75-1.26.16-.545.235-1.112.22-1.68v-5.34h-2Zm-5.69 0v5.3a5.41 5.41 0 0 0 .21 1.72c.151.468.404.899.74 1.26.302.329.657.606 1.05.82.395.21.82.358 1.26.44v-2.06a1.822 1.822 0 0 1-1-.77 3.392 3.392 0 0 1-.26-1.56v-5.15h-2Zm-5.38-.2v1.96c.72.13 1.364.531 1.8 1.12l1.56-1.18a5.092 5.092 0 0 0-1.46-1.29 5.3 5.3 0 0 0-1.9-.61Zm0 7.81v1.96a4.84 4.84 0 0 0 3.38-1.85l-1.6-1.23a2.914 2.914 0 0 1-1.78 1.12Zm-5.03-.75a5.002 5.002 0 0 0 1.43 1.75v-.05a5.133 5.133 0 0 0 2.46 1.01v-2a3.079 3.079 0 0 1-1.86-1.22 2.837 2.837 0 0 1-.52-1.66c.001-.418.09-.83.26-1.21.172-.378.416-.718.72-1a3.278 3.278 0 0 1 1.4-.69v-2a5 5 0 0 0-3.38 1.92 4.812 4.812 0 0 0-1 3c.001.744.168 1.478.49 2.15Zm-9.47-6.85 2.51 3.55 1.25-1.71-1.29-1.84h-2.47Zm3.22 4.56v4.8l2.02-.01v-4.15l3.81-5.2h-2.49l-3.34 4.56Zm-12.18-4.86v2.66l8.26 7.28v-9.66h-2v5.22l-6.26-5.5Zm0 4.1v5.56l2-.05v-3.75l-2-1.76Zm-4.18 3.99.82 1.57 2.2-.04-5-9.79-1.13 2.18 2.11 4.08h-.79l-1 2h2.79Zm-3.72-4.83-3.29 6.4h2.25l2.16-4.2-1.12-2.2Zm-177.48-4.18 4.73-4.73a2.713 2.713 0 0 1 2-.83h248.78a1.417 1.417 0 0 1 1.41 1.42v19.84a1.421 1.421 0 0 1-1.41 1.42H441.42a2.76 2.76 0 0 1-2-.83l-14.29-14.29a1.42 1.42 0 0 1 0-2Zm118.53 5.1c0 2.88 1.65 4.52 4 4.52a4.009 4.009 0 0 0 2.84-1.02v-3.81h-3v1.13h1.74v2.07a2.23 2.23 0 0 1-1.39.43c-1.77 0-2.77-1.31-2.77-3.37s1.08-3.32 2.71-3.32a2.39 2.39 0 0 1 1.82.78l.75-.88a3.507 3.507 0 0 0-2.61-1.11c-2.33 0-4.09 1.7-4.09 4.58Zm-5.27-3.25v7.62h1.38v-7.62h2.6v-1.16h-6.55v1.16h2.57Zm-9.48-1.16v8.78l5.32-.04v-1.17h-3.93v-2.84h3.22v-1.13h-3.22v-2.44h3.8v-1.16h-5.19Zm-8.25 0v8.78h1.38v-3.33h1.33c1.9 0 3.3-.82 3.3-2.8s-1.35-2.65-3.35-2.65h-2.66Zm-5.32-.74-3.31 11.66h1.23l3.32-11.66h-1.24Zm-11.42 9.328c.536.221 1.11.334 1.69.332v.01c1.92 0 3.09-1.14 3.09-2.55a2.444 2.444 0 0 0-1.79-2.37l-1.2-.52-.058-.026c-.69-.311-1.362-.613-1.362-1.294 0-.7.58-1.13 1.48-1.13.719.001 1.411.28 1.93.78l.73-.88a3.77 3.77 0 0 0-2.66-1.11 2.602 2.602 0 0 0-1.945.575 2.614 2.614 0 0 0-.945 1.795 2.523 2.523 0 0 0 1.79 2.3l1.21.53c.82.35 1.41.67 1.41 1.41 0 .74-.59 1.24-1.66 1.24a3.413 3.413 0 0 1-2.33-1l-.81.95c.408.411.894.737 1.43.958Zm-9.1-8.598v8.78h2.93c1.94 0 3.36-.84 3.36-2.58a2.002 2.002 0 0 0-1.73-2.09v-.06a2.008 2.008 0 0 0 1.26-1.89c0-1.59-1.3-2.16-3.1-2.16h-2.72Zm-6.21 0-2.91 8.78h1.41l.75-2.51h3.06l.74 2.51h1.46l-2.91-8.78h-1.6Zm-7.06-.74-3.32 11.66h1.23l3.31-11.66h-1.22Zm-10.66.74-2.91 8.78h1.41l.75-2.51h3.06l.74 2.51h1.46l-2.91-8.78h-1.6Zm-8.91 0v8.78h5.09v-1.17h-3.71v-7.61h-1.38Zm-8.25 0v8.78h1.38v-3.33h1.33c1.9 0 3.3-.82 3.3-2.8 0-1.981-1.4-2.65-3.35-2.65h-2.66Z" fill="#9F9FA0"/><path fill-rule="evenodd" clip-rule="evenodd" d="M22.83 34.728h-2.27V148.12h2.27V34.729Zm0 401.371h-2.27v283.46h2.27v-283.46Zm-8.19-262.62c0 4.58 1.81 7.58 7.81 7.58 6.5 0 7.81-3.03 7.81-7.601v-5H14.64v5.021Zm13.12-.111c0 2.93-.97 4.691-5.31 4.691v-.03c-4.12 0-5.27-1.67-5.27-4.661v-2h10.58v2Zm-7.05 10.251c4.91 0 6.31 2.14 6.31 5.83s-1.4 5.85-6.31 5.85-6.3-2.13-6.3-5.85c0-3.72 1.36-5.83 6.3-5.83Zm0 8.78c3.16 0 4.15-.74 4.15-2.95s-1-2.92-4.15-2.92c-3.15 0-4.11.74-4.11 2.92 0 2.18.96 2.95 4.11 2.95Zm-6.07 16.31h12.13v-2.81h-8.08a2.574 2.574 0 0 1-1.94-2.86c0-1.73.81-2.11 2.5-2.11h7.52v-2.82h-8.36c-2.51 0-4 1.02-4 4.08 0 1.69.48 3.06 1.78 3.76l-1.55.24v2.52Zm6.07 15.03c-3.44 0-6.3-.92-6.3-4.9 0-2.32.81-3.33 2.07-3.81l-1.84-.22v-2.54h17.13v2.81h-6.69c1.08.49 1.94 1.55 1.94 3.76 0 3.98-2.5 4.9-6.31 4.9Zm0-2.9c2.35 0 4.15-.36 4.15-2.77s-1.53-3.15-4.15-3.15-4.11.68-4.11 3.15c0 2.47 1.93 2.77 4.11 2.77Zm11.06 5.78h-14.3c-2.07 0-2.97.84-2.97 3.29a6.04 6.04 0 0 0 .14 1.36h2.2a3.48 3.48 0 0 1-.09-.75c0-.76.27-1.06 1.4-1.06h13.62v-2.84Zm-11.6 16.839-.51-8c-2 .07-3 1.06-3 3.49a9.928 9.928 0 0 0 .83 4h-2.3a10.729 10.729 0 0 1-.81-4.45c0-3.7 1.4-5.83 6.3-5.83s6.31 2.13 6.31 5.83c0 4.2-2.39 5.08-5.25 5.08-.526 0-1.051-.04-1.57-.12Zm1.9-2.5c1.5 0 2.79-.31 2.79-2.47s-1.08-2.91-3.2-3l.41 5.47Zm-4.46 10.75h-2.63a18.194 18.194 0 0 0-.57 4.59c0 4.07 1.65 5.85 4.62 5.85s4.03-.97 4.9-4.61c.61-2.48.99-2.84 2.16-2.84 1.56 0 1.94.86 1.94 2.75a13.626 13.626 0 0 1-.59 3.891h2.5a12.7 12.7 0 0 0 .57-4c0-3.601-1.31-5.541-4.48-5.541-2.77 0-3.65 1.041-4.44 4.32-.63 2.571-.95 3.09-2.52 3.09s-2.11-.84-2.11-3a15.695 15.695 0 0 1 .65-4.5Zm9.16 13.41v2.81H14.64v-2.81h12.13Zm3.41-.18c1.36.002 1.5.344 1.5 1.6 0 1.26-.14 1.59-1.51 1.59s-1.53-.33-1.53-1.59c0-1.256.198-1.598 1.54-1.6Zm-15.54 17.351h17.13v-2.79h-6.74c1.23-.5 2-1.49 2-3.76 0-3.98-2.88-4.93-6.31-4.93-3.8 0-6.3.93-6.3 4.93 0 2.18.83 3.31 2 3.78l-1.78.27v2.5Zm10.28-5.79c0 2.46-1.67 3.11-4.15 3.11h-.06c-2.61 0-4.05-.68-4.05-3.11 0-2.43 1.77-2.76 4.11-2.76 2.15 0 4.15.3 4.15 2.76Zm-4.75 19.489-.51-8c-2 .071-3 1.06-3 3.49a9.928 9.928 0 0 0 .83 4h-2.3a10.724 10.724 0 0 1-.81-4.449c0-3.69 1.4-5.831 6.3-5.831s6.31 2.141 6.31 5.831c0 4.209-2.39 5.079-5.25 5.079-.526 0-1.051-.04-1.57-.12Zm1.9-2.5c1.5 0 2.79-.31 2.79-2.47s-1.08-2.91-3.2-3l.41 5.47Zm-7.43 16.291h17.13v-2.79h-6.74c1.23-.49 2-1.48 2-3.76 0-3.93-2.88-4.93-6.31-4.93-3.8 0-6.3.93-6.3 4.93 0 2.19.83 3.31 2 3.78l-1.78.27v2.5Zm10.28-5.78c0 2.45-1.67 3.1-4.15 3.1h-.06c-2.61 0-4.05-.67-4.05-3.1s1.77-2.77 4.11-2.77c2.15 0 4.15.32 4.15 2.77Zm5.34 15.07v5.39c0 4.68-1.53 6.14-5.31 6.14-4.08 0-5.5-1.75-5.5-6.14v-2h-4.81v-3.42l15.62.03Zm-8.06 4.89c0 2.31.61 3.1 2.68 3.1 2.07 0 2.68-.81 2.68-3.1v-1.5H22.2v1.5Zm-7.59 19.23h3v-6.43h3.6v5.7h2.86v-5.7h3.19v6.12h3v-9.54H14.61v9.85Zm15.65 2.79v3.42H14.64v-3.42h15.62Zm-12.65 12.169h-2.63a18.286 18.286 0 0 0-.57 4.6c0 4.07 1.65 5.85 4.62 5.85s4.03-.97 4.9-4.62c.61-2.47.99-2.83 2.16-2.83 1.56 0 1.94.85 1.94 2.74a13.685 13.685 0 0 1-.59 3.9h2.5a12.75 12.75 0 0 0 .57-4c0-3.6-1.31-5.53-4.48-5.53-2.77 0-3.65 1.03-4.44 4.32-.63 2.56-.95 3.08-2.52 3.08s-2.11-.84-2.11-3a15.777 15.777 0 0 1 .65-4.51Zm5.36 24.151h-8.33v-2.84h7.54c1.71 0 2.5-.41 2.5-2.1a2.67 2.67 0 0 0-2-3h-8v-2.81h17.09v2.91h-6.55c1.28.68 1.8 2.16 1.8 3.83 0 3.04-1.49 4.01-4.05 4.01Zm-3.31 5.63.51 8c.519.079 1.043.12 1.57.12 2.86 0 5.25-.88 5.25-5.09 0-3.69-1.41-5.83-6.31-5.83-4.9 0-6.3 2.14-6.3 5.83-.05 1.527.226 3.047.81 4.46h2.3a10 10 0 0 1-.83-4c0-2.44 1-3.43 3-3.49Zm5.2 3.05c0 2.16-1.29 2.48-2.79 2.48l-.41-5.48c2.12.1 3.2.84 3.2 3Zm-4.69 18.07-.51-8c-2 .07-3 1.06-3 3.49a9.896 9.896 0 0 0 .83 4h-2.3a10.732 10.732 0 0 1-.81-4.45c0-3.69 1.4-5.83 6.3-5.83s6.31 2.14 6.31 5.83c0 4.21-2.39 5.08-5.25 5.08a10.579 10.579 0 0 1-1.57-.12Zm1.9-2.5c1.5 0 2.79-.31 2.79-2.47s-1.08-2.91-3.2-3l.41 5.47Zm-3.38 8.48h5.85v2.68h2.23v-2.68h2.9v-2.81h-2.9v-1.69h-2.19v1.69H18.5c-3.23 0-4 1.01-4 3.92.004.505.044 1.01.12 1.51h2.18a4.224 4.224 0 0 1-.11-1.11c0-1.24.42-1.51 2-1.51Z" fill="#898989"/></svg>