<svg width="230" height="230" fill="none" xmlns="http://www.w3.org/2000/svg"><path opacity=".9" fill-rule="evenodd" clip-rule="evenodd" d="m168.09 210.559 5.655 5.417 3.431.333-4.475-3.918-4.611-1.832Z" fill="#fff"/><path fill-rule="evenodd" clip-rule="evenodd" d="m173.666 216.029-5.652-5.435-3.483 6.241 3.886 5.773 5.249-6.579ZM168.493 222.622l5.261-6.56 3.443.306-4.134 4.603-4.57 1.651Z" fill="#fff"/><path d="M193.734 213.772h-1.511l1.538 2.167.769-1.038-.796-1.129ZM190.552 216.964l-3.829-3.377v1.631l5.064 4.453v-5.898h-1.235v3.191ZM196.243 213.772l-2.045 2.787v2.929h1.238v-2.529l2.336-3.187h-1.529ZM182.253 214.843l1.296 2.489h-.485l-.616 1.2h1.713l.501.956h1.383l-3.092-5.978-.7 1.333ZM186.723 219.488v.002h1.234v-2.286l-1.234-1.08v3.364Z" fill="#fff"/><path d="m181.881 215.582-2.017 3.906h1.379l1.325-2.564-.687-1.342ZM213.778 217.155c.198-.049.384-.137.548-.256a1.656 1.656 0 0 0 .687-1.412 1.598 1.598 0 0 0-.683-1.361 1.677 1.677 0 0 0-.578-.276 3.639 3.639 0 0 0-.865-.078h-.31v1.214h.443c.192-.015.384.015.561.089a.437.437 0 0 1 .222.416.482.482 0 0 1-.28.466 1.404 1.404 0 0 1-.549.077h-.397v1.2h.443c.255.005.51-.021.758-.079ZM198.35 214.805a2.927 2.927 0 0 0-.627 1.836 3 3 0 0 0 1.179 2.377 3.19 3.19 0 0 0 1.52.624v-1.24a1.848 1.848 0 0 1-1.134-.752 1.773 1.773 0 0 1-.16-1.753c.102-.233.253-.442.443-.611.246-.209.54-.354.856-.421v-1.242a3.076 3.076 0 0 0-2.077 1.182ZM202.202 215.562l.966-.766a2.884 2.884 0 0 0-.886-.788c-.36-.2-.756-.328-1.166-.377v1.243c.436.085.824.331 1.086.688ZM223.363 215.562l.968-.766a2.921 2.921 0 0 0-.886-.788c-.36-.2-.756-.328-1.166-.377v1.243a1.77 1.77 0 0 1 1.084.688ZM213.811 217.616c.009.04.014.081.014.121a.462.462 0 0 1-.324.486 1.71 1.71 0 0 1-.518.06h-.397v1.2h.405c.266.005.531-.018.792-.071.195-.044.379-.125.543-.24a1.745 1.745 0 0 0 .722-1.41 1.826 1.826 0 0 0-.151-.743 1.763 1.763 0 0 1-1.086.597ZM219.511 214.805a2.911 2.911 0 0 0-.625 1.836 2.995 2.995 0 0 0 1.179 2.377 3.17 3.17 0 0 0 1.521.624v-1.24a1.845 1.845 0 0 1-1.137-.752 1.78 1.78 0 0 1-.16-1.753c.101-.234.252-.442.443-.611a1.94 1.94 0 0 1 .856-.421v-1.242a3.076 3.076 0 0 0-2.077 1.182ZM201.109 218.404v1.242a2.993 2.993 0 0 0 2.072-1.169l-.975-.753a1.803 1.803 0 0 1-1.097.68ZM223.367 217.724a1.796 1.796 0 0 1-1.108.68v1.242a3.007 3.007 0 0 0 2.074-1.169l-.966-.753ZM217.568 213.772h-1.235v5.716h1.235v-5.716ZM205.808 217.87a2.11 2.11 0 0 1-.16-.951v-3.147h-1.239v3.259c-.011.35.036.698.138 1.033.095.285.251.544.456.763.184.205.402.375.645.503.242.134.505.225.778.272v-1.255a1.119 1.119 0 0 1-.618-.477ZM207.897 216.924c.021.329-.037.66-.168.964a1.09 1.09 0 0 1-.623.459v1.255c.274-.044.539-.134.782-.267.242-.133.461-.304.647-.508.207-.218.363-.478.459-.763.1-.335.146-.683.137-1.033v-3.259h-1.234v3.152ZM211.886 213.772h-1.235v5.716h1.235v-5.716Z" fill="#fff"/></svg>