<?xml version="1.0" standalone="no"?><!DOCTYPE svg PUBLIC "-//W3C//DTD SVG 1.1//EN" "http://www.w3.org/Graphics/SVG/1.1/DTD/svg11.dtd"><svg t="1695385857383" class="icon" viewBox="0 0 1024 1024" version="1.1" xmlns="http://www.w3.org/2000/svg" p-id="1746" xmlns:xlink="http://www.w3.org/1999/xlink" width="200" height="200"><path d="M943.104 216.064q-8.192 9.216-15.36 16.384l-12.288 12.288q-6.144 6.144-11.264 10.24l-138.24-139.264q8.192-8.192 20.48-19.456t20.48-17.408q20.48-16.384 44.032-14.336t37.888 9.216q15.36 8.192 34.304 28.672t29.184 43.008q5.12 14.336 6.656 33.792t-15.872 36.864zM551.936 329.728l158.72-158.72 138.24 138.24q-87.04 87.04-158.72 157.696-30.72 29.696-59.904 58.88t-53.248 52.224-39.424 38.4l-18.432 18.432q-7.168 7.168-16.384 14.336t-20.48 12.288-31.232 12.288-41.472 13.824-40.96 12.288-29.696 6.656q-19.456 2.048-20.992-3.584t1.536-25.088q1.024-10.24 5.12-30.208t8.192-40.448 8.704-38.4 7.68-25.088q5.12-11.264 10.752-19.456t15.872-18.432zM899.072 478.208q21.504 0 40.96 10.24t19.456 41.984l0 232.448q0 28.672-10.752 52.736t-29.184 41.984-41.984 27.648-48.128 9.728l-571.392 0q-24.576 0-48.128-10.752t-41.472-29.184-29.184-43.52-11.264-53.76l0-570.368q0-20.48 11.264-42.496t29.184-39.936 40.448-29.696 45.056-11.776l238.592 0q28.672 0 40.448 20.992t11.776 42.496-11.776 41.472-40.448 19.968l-187.392 0q-21.504 0-34.816 14.848t-13.312 36.352l0 481.28q0 20.48 13.312 34.304t34.816 13.824l474.112 0q21.504 0 36.864-13.824t15.36-34.304l0-190.464q0-14.336 6.656-24.576t16.384-16.384 21.504-8.704 23.04-2.56z" p-id="1747" fill="#00AE42"></path></svg>