<?xml version="1.0" encoding="UTF-8"?>
<svg xmlns="http://www.w3.org/2000/svg" viewBox="0 0 235.61 262.36">
  <defs>
    <style>
      .cls-1 {
        fill: none;
        stroke: #fff;
        stroke-linecap: round;
        stroke-linejoin: round;
        stroke-width: .25px;
      }
    </style>
  </defs>
  <g id="Make2D::隐藏线::曲线">
    <polyline class="cls-1" points="157.69 22.17 157.71 21.95 157.71 21.95"/>
    <line class="cls-1" x1="77.9" y1="21.95" x2="77.92" y2="22.16"/>
    <line class="cls-1" x1="78.21" y1="22.71" x2="78.37" y2="22.83"/>
    <line class="cls-1" x1="78.08" y1="22.54" x2="78.21" y2="22.7"/>
    <line class="cls-1" x1="78.75" y1="23" x2="78.97" y2="23.02"/>
    <line class="cls-1" x1="156.64" y1="23.02" x2="156.85" y2="23"/>
    <line class="cls-1" x1="157.4" y1="22.71" x2="157.52" y2="22.55"/>
    <polyline class="cls-1" points="156.85 23 157.05 22.94 157.23 22.84"/>
    <line class="cls-1" x1="157.23" y1="22.84" x2="157.39" y2="22.71"/>
    <polyline class="cls-1" points="157.69 22.17 157.63 22.36 157.52 22.55"/>
    <line class="cls-1" x1="78.69" y1="22.96" x2="78.75" y2="23"/>
    <line class="cls-1" x1="157.66" y1="22.23" x2="157.69" y2="22.17"/>
    <polyline class="cls-1" points="77.92 22.16 77.98 22.36 78.08 22.54"/>
    <polyline class="cls-1" points="78.75 23 78.56 22.94 78.37 22.83"/>
  </g>
  <g id="Make2D::可见线::曲线">
    <polyline class="cls-1" points="6.59 12.65 6.05 12.88 5.47 12.96 4.9 12.88 4.36 12.65 3.91 12.28 3.57 11.81"/>
    <polyline class="cls-1" points="157.71 21.95 157.71 17.81 157.71 13.68 157.71 9.54 157.63 8.7 157.38 7.9 156.99 7.16 156.46 6.51 155.81 5.98 155.07 5.59 154.27 5.34 153.43 5.26 148.34 5.26 143.25 5.26 138.16 5.26 133.07 5.26 127.98 5.26 122.9 5.26 117.81 5.26 112.72 5.26 107.63 5.26 102.54 5.26 97.45 5.26 92.36 5.26 87.27 5.26 82.18 5.26 81.35 5.34 80.54 5.59 79.8 5.98 79.15 6.51 78.62 7.16 78.23 7.9 77.98 8.7 77.9 9.54 77.9 13.68 77.9 17.81 77.9 21.95 77.9 21.95"/>
    <line class="cls-1" x1="157.71" y1="21.95" x2="157.63" y2="22.36"/>
    <line class="cls-1" x1="77.9" y1="21.95" x2="77.98" y2="22.36"/>
    <polyline class="cls-1" points="157.4 22.71 157.4 22.71 157.39 22.71"/>
    <line class="cls-1" x1="78.21" y1="22.71" x2="78.56" y2="22.94"/>
    <line class="cls-1" x1="157.4" y1="22.71" x2="157.05" y2="22.94"/>
    <polyline class="cls-1" points="157.39 22.71 157.4 22.71 157.4 22.71"/>
    <polyline class="cls-1" points="78.97 23.02 84.15 23.02 89.33 23.02 94.51 23.02 99.68 23.02 104.86 23.02 110.04 23.02 115.22 23.02 120.4 23.02 125.57 23.02 130.75 23.02 135.93 23.02 141.11 23.02 146.28 23.02 151.46 23.02 156.64 23.02 156.64 23.02"/>
    <line class="cls-1" x1="77.98" y1="22.36" x2="78.21" y2="22.71"/>
    <line class="cls-1" x1="156.64" y1="23.02" x2="157.05" y2="22.94"/>
    <line class="cls-1" x1="157.63" y1="22.36" x2="157.4" y2="22.71"/>
    <polyline class="cls-1" points="229.29 8.86 229.85 8.7 230.43 8.7 230.99 8.86 231.49 9.16 231.89 9.59 232.15 10.11 232.27 10.68 232.23 11.26"/>
    <line class="cls-1" x1="78.21" y1="22.7" x2="78.21" y2="22.71"/>
    <polygon class="cls-1" points="235.49 245.44 235.49 251.16 235.49 256.88 235.41 257.81 235.16 258.71 234.77 259.56 234.24 260.32 233.58 260.98 232.81 261.52 231.97 261.91 231.07 262.15 230.14 262.23 224.52 262.23 218.9 262.23 213.29 262.23 207.67 262.23 202.06 262.23 196.44 262.23 190.82 262.23 185.21 262.23 179.59 262.23 173.97 262.23 168.36 262.23 162.74 262.23 157.12 262.23 151.51 262.23 145.89 262.23 140.27 262.23 134.66 262.23 129.04 262.23 123.42 262.23 117.81 262.23 112.19 262.23 106.57 262.23 100.96 262.23 95.34 262.23 89.72 262.23 84.11 262.23 78.49 262.23 72.87 262.23 67.26 262.23 61.64 262.23 56.02 262.23 50.41 262.23 44.79 262.23 39.17 262.23 33.56 262.23 27.94 262.23 22.32 262.23 16.71 262.23 11.09 262.23 5.47 262.23 4.55 262.15 3.64 261.91 2.8 261.52 2.04 260.98 1.38 260.32 .84 259.56 .45 258.71 .21 257.81 .12 256.88 .12 251.16 .12 245.44 .12 239.72 .12 233.99 .12 228.27 .12 222.55 .12 216.83 .12 211.11 .12 205.38 .12 199.66 .12 193.94 .12 188.22 .12 182.49 .12 176.77 .12 171.05 .12 165.33 .12 159.6 .12 153.88 .12 148.16 .12 142.44 .12 136.71 .12 130.99 .12 125.27 .12 119.55 .12 113.83 .12 108.1 .12 102.38 .12 96.66 .12 90.94 .12 85.21 .12 79.49 .12 73.77 .12 68.05 .12 62.32 .12 56.6 .12 50.88 .12 45.16 .12 39.43 .12 33.71 .12 27.99 .12 22.27 .12 16.55 .12 10.82 .21 9.89 .45 8.99 .84 8.15 1.38 7.38 2.04 6.73 2.8 6.19 3.64 5.8 4.55 5.56 5.47 5.47 10.77 5.47 16.07 5.47 21.37 5.47 26.66 5.47 31.96 5.47 37.26 5.47 42.56 5.47 47.86 5.47 53.15 5.47 58.45 5.47 63.75 5.47 69.05 5.47 69.41 5.41 69.73 5.22 69.97 4.94 70.74 3.6 71.52 2.26 71.94 1.65 72.47 1.13 73.08 .7 73.76 .38 74.48 .19 75.22 .12 80.55 .12 85.87 .12 91.19 .12 96.51 .12 101.84 .12 107.16 .12 112.48 .12 117.81 .12 123.13 .12 128.45 .12 133.77 .12 139.1 .12 144.42 .12 149.74 .12 155.07 .12 160.39 .12 161.13 .19 161.85 .38 162.53 .7 163.14 1.13 163.67 1.65 164.1 2.26 164.87 3.6 165.64 4.94 165.88 5.22 166.2 5.41 166.57 5.47 171.86 5.47 177.16 5.47 182.46 5.47 187.76 5.47 193.05 5.47 198.35 5.47 203.65 5.47 208.95 5.47 214.25 5.47 219.54 5.47 224.84 5.47 230.14 5.47 231.07 5.56 231.97 5.8 232.81 6.19 233.58 6.73 234.24 7.38 234.77 8.15 235.16 8.99 235.41 9.89 235.49 10.82 235.49 16.55 235.49 22.27 235.49 27.99 235.49 33.71 235.49 39.43 235.49 45.16 235.49 50.88 235.49 56.6 235.49 62.32 235.49 68.05 235.49 73.77 235.49 79.49 235.49 85.21 235.49 90.94 235.49 96.66 235.49 102.38 235.49 108.1 235.49 113.83 235.49 119.55 235.49 125.27 235.49 130.99 235.49 136.71 235.49 142.44 235.49 148.16 235.49 153.88 235.49 159.6 235.49 165.33 235.49 171.05 235.49 176.77 235.49 182.49 235.49 188.22 235.49 193.94 235.49 199.66 235.49 205.38 235.49 211.11 235.49 216.83 235.49 222.55 235.49 228.27 235.49 233.99 235.49 239.72 235.49 245.44"/>
    <line class="cls-1" x1="78.21" y1="22.71" x2="78.69" y2="22.96"/>
    <polyline class="cls-1" points="231.25 12.65 230.72 12.88 230.14 12.96 229.56 12.88 229.03 12.65 228.57 12.28 228.24 11.81"/>
    <polygon class="cls-1" points="7.57 11.26 7.61 10.68 7.49 10.11 7.22 9.59 6.82 9.16 6.33 8.86 5.77 8.7 5.18 8.7 4.62 8.86 4.12 9.16 3.73 9.59 3.46 10.11 3.34 10.68 3.38 11.26 3.57 11.81 3.91 12.28 4.36 12.65 4.9 12.88 5.47 12.96 6.05 12.88 6.59 12.65 7.04 12.28 7.37 11.81 7.57 11.26"/>
    <line class="cls-1" x1="78.56" y1="22.94" x2="78.97" y2="23.02"/>
    <polyline class="cls-1" points="4.62 8.86 5.18 8.7 5.77 8.7 6.33 8.86 6.82 9.16 7.22 9.59 7.49 10.11 7.61 10.68 7.57 11.26"/>
    <polygon class="cls-1" points="232.23 11.26 232.27 10.68 232.15 10.11 231.89 9.59 231.49 9.16 230.99 8.86 230.43 8.7 229.85 8.7 229.29 8.86 228.79 9.16 228.39 9.59 228.12 10.11 228 10.68 228.04 11.26 228.24 11.81 228.57 12.28 229.03 12.65 229.56 12.88 230.14 12.96 230.72 12.88 231.25 12.65 231.7 12.28 232.04 11.81 232.23 11.26"/>
    <line class="cls-1" x1="157.4" y1="22.71" x2="157.66" y2="22.23"/>
  </g>
  <g id="Make2D::可见线::场景轮廓线">
    <polyline class="cls-1" points="157.39 22.71 157.4 22.71 157.4 22.71"/>
    <line class="cls-1" x1="77.9" y1="21.95" x2="77.98" y2="22.36"/>
    <line class="cls-1" x1="157.71" y1="21.95" x2="157.63" y2="22.36"/>
    <polyline class="cls-1" points="78.97 23.02 84.15 23.02 89.33 23.02 94.51 23.02 99.68 23.02 104.86 23.02 110.04 23.02 115.22 23.02 120.4 23.02 125.57 23.02 130.75 23.02 135.93 23.02 141.11 23.02 146.28 23.02 151.46 23.02 156.64 23.02 156.64 23.02"/>
    <line class="cls-1" x1="157.4" y1="22.71" x2="157.05" y2="22.94"/>
    <line class="cls-1" x1="156.64" y1="23.02" x2="157.05" y2="22.94"/>
    <line class="cls-1" x1="77.98" y1="22.36" x2="78.21" y2="22.71"/>
    <line class="cls-1" x1="78.21" y1="22.71" x2="78.69" y2="22.96"/>
    <polyline class="cls-1" points="229.29 8.86 229.85 8.7 230.43 8.7 230.99 8.86 231.49 9.16 231.89 9.59 232.15 10.11 232.27 10.68 232.23 11.26"/>
    <line class="cls-1" x1="157.4" y1="22.71" x2="157.66" y2="22.23"/>
    <polygon class="cls-1" points="232.23 11.26 232.27 10.68 232.15 10.11 231.89 9.59 231.49 9.16 230.99 8.86 230.43 8.7 229.85 8.7 229.29 8.86 228.79 9.16 228.39 9.59 228.12 10.11 228 10.68 228.04 11.26 228.24 11.81 228.57 12.28 229.03 12.65 229.56 12.88 230.14 12.96 230.72 12.88 231.25 12.65 231.7 12.28 232.04 11.81 232.23 11.26"/>
    <polyline class="cls-1" points="6.59 12.65 6.05 12.88 5.47 12.96 4.9 12.88 4.36 12.65 3.91 12.28 3.57 11.81"/>
    <polyline class="cls-1" points="4.62 8.86 5.18 8.7 5.77 8.7 6.33 8.86 6.82 9.16 7.22 9.59 7.49 10.11 7.61 10.68 7.57 11.26"/>
    <polyline class="cls-1" points="231.25 12.65 230.72 12.88 230.14 12.96 229.56 12.88 229.03 12.65 228.57 12.28 228.24 11.81"/>
    <polygon class="cls-1" points="7.57 11.26 7.61 10.68 7.49 10.11 7.22 9.59 6.82 9.16 6.33 8.86 5.77 8.7 5.18 8.7 4.62 8.86 4.12 9.16 3.73 9.59 3.46 10.11 3.34 10.68 3.38 11.26 3.57 11.81 3.91 12.28 4.36 12.65 4.9 12.88 5.47 12.96 6.05 12.88 6.59 12.65 7.04 12.28 7.37 11.81 7.57 11.26"/>
    <line class="cls-1" x1="78.21" y1="22.7" x2="78.21" y2="22.71"/>
    <polygon class="cls-1" points="235.49 245.44 235.49 251.16 235.49 256.88 235.41 257.81 235.16 258.71 234.77 259.56 234.24 260.32 233.58 260.98 232.81 261.52 231.97 261.91 231.07 262.15 230.14 262.23 224.52 262.23 218.9 262.23 213.29 262.23 207.67 262.23 202.06 262.23 196.44 262.23 190.82 262.23 185.21 262.23 179.59 262.23 173.97 262.23 168.36 262.23 162.74 262.23 157.12 262.23 151.51 262.23 145.89 262.23 140.27 262.23 134.66 262.23 129.04 262.23 123.42 262.23 117.81 262.23 112.19 262.23 106.57 262.23 100.96 262.23 95.34 262.23 89.72 262.23 84.11 262.23 78.49 262.23 72.87 262.23 67.26 262.23 61.64 262.23 56.02 262.23 50.41 262.23 44.79 262.23 39.17 262.23 33.56 262.23 27.94 262.23 22.32 262.23 16.71 262.23 11.09 262.23 5.47 262.23 4.55 262.15 3.64 261.91 2.8 261.52 2.04 260.98 1.38 260.32 .84 259.56 .45 258.71 .21 257.81 .12 256.88 .12 251.16 .12 245.44 .12 239.72 .12 233.99 .12 228.27 .12 222.55 .12 216.83 .12 211.11 .12 205.38 .12 199.66 .12 193.94 .12 188.22 .12 182.49 .12 176.77 .12 171.05 .12 165.33 .12 159.6 .12 153.88 .12 148.16 .12 142.44 .12 136.71 .12 130.99 .12 125.27 .12 119.55 .12 113.83 .12 108.1 .12 102.38 .12 96.66 .12 90.94 .12 85.21 .12 79.49 .12 73.77 .12 68.05 .12 62.32 .12 56.6 .12 50.88 .12 45.16 .12 39.43 .12 33.71 .12 27.99 .12 22.27 .12 16.55 .12 10.82 .21 9.89 .45 8.99 .84 8.15 1.38 7.38 2.04 6.73 2.8 6.19 3.64 5.8 4.55 5.56 5.47 5.47 10.77 5.47 16.07 5.47 21.37 5.47 26.66 5.47 31.96 5.47 37.26 5.47 42.56 5.47 47.86 5.47 53.15 5.47 58.45 5.47 63.75 5.47 69.05 5.47 69.41 5.41 69.73 5.22 69.97 4.94 70.74 3.6 71.52 2.26 71.94 1.65 72.47 1.13 73.08 .7 73.76 .38 74.48 .19 75.22 .12 80.55 .12 85.87 .12 91.19 .12 96.51 .12 101.84 .12 107.16 .12 112.48 .12 117.81 .12 123.13 .12 128.45 .12 133.77 .12 139.1 .12 144.42 .12 149.74 .12 155.07 .12 160.39 .12 161.13 .19 161.85 .38 162.53 .7 163.14 1.13 163.67 1.65 164.1 2.26 164.87 3.6 165.64 4.94 165.88 5.22 166.2 5.41 166.57 5.47 171.86 5.47 177.16 5.47 182.46 5.47 187.76 5.47 193.05 5.47 198.35 5.47 203.65 5.47 208.95 5.47 214.25 5.47 219.54 5.47 224.84 5.47 230.14 5.47 231.07 5.56 231.97 5.8 232.81 6.19 233.58 6.73 234.24 7.38 234.77 8.15 235.16 8.99 235.41 9.89 235.49 10.82 235.49 16.55 235.49 22.27 235.49 27.99 235.49 33.71 235.49 39.43 235.49 45.16 235.49 50.88 235.49 56.6 235.49 62.32 235.49 68.05 235.49 73.77 235.49 79.49 235.49 85.21 235.49 90.94 235.49 96.66 235.49 102.38 235.49 108.1 235.49 113.83 235.49 119.55 235.49 125.27 235.49 130.99 235.49 136.71 235.49 142.44 235.49 148.16 235.49 153.88 235.49 159.6 235.49 165.33 235.49 171.05 235.49 176.77 235.49 182.49 235.49 188.22 235.49 193.94 235.49 199.66 235.49 205.38 235.49 211.11 235.49 216.83 235.49 222.55 235.49 228.27 235.49 233.99 235.49 239.72 235.49 245.44"/>
    <polyline class="cls-1" points="157.71 21.95 157.71 17.81 157.71 13.68 157.71 9.54 157.63 8.7 157.38 7.9 156.99 7.16 156.46 6.51 155.81 5.98 155.07 5.59 154.27 5.34 153.43 5.26 148.34 5.26 143.25 5.26 138.16 5.26 133.07 5.26 127.98 5.26 122.9 5.26 117.81 5.26 112.72 5.26 107.63 5.26 102.54 5.26 97.45 5.26 92.36 5.26 87.27 5.26 82.18 5.26 81.35 5.34 80.54 5.59 79.8 5.98 79.15 6.51 78.62 7.16 78.23 7.9 77.98 8.7 77.9 9.54 77.9 13.68 77.9 17.81 77.9 21.95 77.9 21.95"/>
    <polyline class="cls-1" points="157.4 22.71 157.4 22.71 157.39 22.71"/>
  </g>
</svg>