<?xml version="1.0" encoding="UTF-8"?>
<svg id="_图层_1" data-name=" 图层 1" xmlns="http://www.w3.org/2000/svg" width="255mm" height="255mm" viewBox="0 0 722.8 722.8">
  <g>
    <rect x="569.4" y="644.9" width="124.7" height="39.3" style="fill: none;"/>
    <g>
      <path d="M608.5,676h0l-14.5-25c0-.3-.4-.4-.7-.4s-.6,.2-.7,.4l-14.5,25c0,.3,0,.6,0,.8,0,.3,.4,.4,.7,.4h28.9c.3,0,.6-.2,.7-.4,0-.3,0-.6,0-.8h0Zm-28.2-.4l13-22.5,13,22.5h-26Z" style="fill: #fff;"/>
      <rect x="587" y="672.8" width="12.7" height="1.3" style="fill: #fff;"/>
      <path d="M590.8,671.9l-.7-.5c1.3-1.9,.6-3,0-4.3-.8-1.3-1.7-2.9,0-5.2l.7,.5c-1.3,1.8-.7,3,0,4.3,.8,1.3,1.7,2.9,0,5.2h0Z" style="fill: #fff;"/>
      <path d="M593.9,671.9l-.7-.5c1.3-1.9,.6-3,0-4.3-.8-1.3-1.7-2.9,0-5.1l.7,.5c-1.3,1.8-.7,3,0,4.3,.8,1.3,1.7,2.9,0,5.1h0Z" style="fill: #fff;"/>
      <path d="M597,671.9l-.7-.5c1.3-1.9,.7-3,0-4.3-.8-1.4-1.6-2.9,0-5.2l.7,.5c-1.3,1.9-.7,3,0,4.3,.8,1.4,1.6,2.9,0,5.2Z" style="fill: #fff;"/>
    </g>
    <g>
      <path d="M616,661.5c-.6,0-1.1,0-1.6-.2-.5,0-.9-.3-1.2-.7-.3-.3-.6-.8-.8-1.3-.2-.6-.3-1.3-.3-2.2s0-1.5,.3-2c.2-.6,.4-1,.8-1.3,.3-.3,.7-.6,1.2-.7,.5,0,1-.2,1.6-.2h1c.3,0,.6,0,.8,.2v1c-.2,0-.5-.2-.8-.2h-1c-.4,0-.9,0-1.2,.2-.4,0-.6,.3-.9,.6-.2,.3-.4,.6-.5,1s-.2,.9-.2,1.6,0,1.2,.2,1.6c0,.4,.3,.8,.5,1s.5,.4,.8,.5,.7,.2,1.2,.2h1c.3,0,.6,0,.9-.2v.9c-.2,0-.5,.2-.9,.3-.3,0-.7,0-1.2,0l.3-.2Z" style="fill: #fff;"/>
      <path d="M622.2,654.8c.5,0,.9,0,1.3,.2,.3,0,.6,.2,.8,.4s.3,.4,.4,.6c0,.2,0,.5,0,.8v4.6h-.9l-.2-1c0,.2-.2,.3-.4,.5s-.3,.3-.5,.3-.4,.2-.7,.2h-.7c-.8,0-1.3-.2-1.7-.5s-.5-.8-.5-1.4,0-.7,.2-1c0-.3,.3-.5,.5-.6,.2-.2,.5-.3,.8-.3s.7,0,1.1,0h2v-1c0-.2,0-.3-.2-.4s-.3-.2-.5-.3h-1.5c-.2,0-.5,0-.7,0v-.9h1.4v-.2Zm-.8,5.9c.5,0,1,0,1.4-.3s.7-.5,.8-.9v-1.1h-2.6c-.2,0-.4,0-.5,.2s-.2,.2-.3,.4v.6c0,.4,0,.6,.3,.8s.5,.3,1,.3h0Z" style="fill: #fff;"/>
      <path d="M632.2,654.9v6.5h-.9v-.9l-.5,.5c0,0-.3,.2-.5,.3-.2,0-.4,0-.6,.2h-.6c-.4,0-.8,0-1.1-.2-.3,0-.5-.2-.7-.4s-.3-.4-.3-.7,0-.5,0-.9v-4.5h1v4.8c0,.2,0,.4,.2,.5s.2,.2,.4,.3,.4,0,.6,0h.6c.2,0,.4,0,.5-.2s.3-.2,.4-.4c0-.2,.2-.4,.3-.7v-4.4h1.3Z" style="fill: #fff;"/>
      <path d="M636.5,660.6h.7v.9h-1.7c-.2,0-.4-.2-.6-.3-.2-.2-.3-.4-.3-.6,0-.3,0-.6,0-1v-3.7h-1v-.9h1v-1.5h1v1.5h1.6v.9h-1.6v4.2c0,0,0,.3,0,.4s.2,.2,.3,.2h.6Z" style="fill: #fff;"/>
      <path d="M639,653.7c-.2,0-.4,0-.5,0,0,0,0-.2,0-.5s0-.4,0-.5c0,0,.3,0,.5,0s.4,0,.5,0c0,0,0,.2,0,.5s0,.4,0,.5c0,0-.3,0-.5,0Zm-.5,1.2h1v6.5h-1v-6.5Z" style="fill: #fff;"/>
      <path d="M644.4,661.5c-.5,0-.9,0-1.3-.2-.4,0-.7-.3-.9-.6-.3-.3-.5-.6-.6-1s-.2-1-.2-1.6,0-1.2,.2-1.6c0-.4,.3-.8,.6-1,.3-.3,.6-.4,.9-.6,.4,0,.8-.2,1.3-.2s.9,0,1.3,.2c.4,0,.7,.3,.9,.6,.3,.3,.4,.6,.6,1,0,.4,.2,1,.2,1.6s0,1.2-.2,1.6c0,.4-.3,.8-.6,1-.3,.3-.6,.4-.9,.6-.4,0-.8,.2-1.3,.2Zm0-.9c.4,0,.7,0,.9,0s.4-.2,.6-.4c0-.2,.2-.4,.3-.8s0-.7,0-1.2v-1.2c0-.3-.2-.6-.3-.8s-.3-.3-.6-.4c-.2,0-.5,0-.9,0s-.7,0-.9,0c-.2,0-.4,.2-.6,.4,0,.2-.3,.5-.3,.8v2.4c0,.3,.2,.6,.3,.8,.2,.2,.3,.3,.6,.4s.5,0,.9,0Z" style="fill: #fff;"/>
      <path d="M652.3,654.8c.4,0,.8,0,1.1,.2,.3,0,.5,.3,.7,.4,.2,.2,.3,.4,.4,.7,0,.3,0,.5,0,.9v4.5h-1v-4.8c0-.2,0-.4-.2-.5,0,0-.2-.2-.4-.3s-.4,0-.6,0h-.6c-.2,0-.4,0-.6,.2s-.3,.2-.5,.4-.3,.4-.3,.7v4.4h-1v-6.5h1v.9c0-.2,.2-.4,.4-.5s.3-.2,.5-.3,.4,0,.6-.2,.4,0,.6,0h-.2Z" style="fill: #fff;"/>
      <path d="M666.1,653v8.4h-1.1v-4.1h-4.1v4.1h-1.1v-8.4h1.1v3.4h4.1v-3.4h1.1Z" style="fill: #fff;"/>
      <path d="M668.8,653.7c-.2,0-.4,0-.5,0,0,0,0-.2,0-.5s0-.4,0-.5c0,0,.3,0,.5,0s.4,0,.5,0c0,0,0,.2,0,.5s0,.4,0,.5c0,0-.3,0-.5,0Zm-.5,1.2h1v6.5h-1v-6.5Z" style="fill: #fff;"/>
      <path d="M677,654.9v6.1c0,.9-.3,1.6-.8,2.1s-1.3,.8-2.4,.8-.6,0-.8,0c-.3,0-.5,0-.7,0v-.9c.5,0,1,0,1.6,0s1.3-.2,1.6-.5,.5-.9,.5-1.6v-.7c0,.4-.4,.7-.7,.9s-.8,.3-1.4,.3-1,0-1.3-.2-.6-.4-.8-.7-.3-.6-.4-1c0-.4,0-.9,0-1.4s0-.9,0-1.3c0-.4,.2-.8,.4-1.1s.5-.5,.8-.7,.8-.3,1.3-.3,.6,0,.9,0c.2,0,.4,.2,.6,.3,.2,0,.3,.3,.4,.4,0,.2,.2,.3,.3,.5v-1.2h.9Zm-3,5.7c.4,0,.7,0,1-.2,.3,0,.5-.3,.6-.5s.3-.5,.3-.8v-2c0-.3-.2-.6-.3-.8s-.4-.4-.6-.5-.6-.2-1-.2-.7,0-.9,.2c-.2,0-.4,.3-.5,.5s-.2,.5-.2,.8v1.9c0,.3,0,.6,.2,.8,0,.2,.3,.4,.5,.5s.5,.2,.9,.2h0Z" style="fill: #fff;"/>
      <path d="M682.3,654.8c.4,0,.8,0,1.1,.2,.3,0,.5,.3,.7,.4,.2,.2,.3,.4,.4,.7,0,.3,0,.5,0,.9v4.5h-1v-4.8c0-.2,0-.4-.2-.5,0,0-.2-.2-.4-.3s-.4,0-.6,0h-.6c-.2,0-.4,0-.6,.2s-.3,.2-.5,.4-.3,.4-.3,.7v4.4h-1v-9.2h1v3.6c0-.2,.2-.4,.4-.5s.3-.2,.5-.3,.4,0,.6-.2,.4,0,.6,0h-.2Z" style="fill: #fff;"/>
      <path d="M617.5,668.5h-2.4v7.4h-1.1v-7.4h-2.4v-1h6v1h0Z" style="fill: #fff;"/>
      <path d="M623.6,671.9v.7l-4.4,.3c0,.4,0,.7,0,.9,0,.3,.2,.5,.3,.6,.2,.2,.4,.3,.6,.4,.3,0,.6,0,1,0s.7,0,1.1,0,.7-.2,.9-.3v1s-.2,0-.4,0c-.2,0-.3,0-.5,0h-1.3c-.5,0-.9,0-1.3-.2-.4,0-.7-.3-.9-.6-.3-.3-.5-.6-.6-1s-.2-1-.2-1.6,0-1.2,.2-1.6c0-.4,.3-.8,.6-1,.3-.3,.6-.4,.9-.6,.4,0,.8-.2,1.2-.2s1,0,1.3,.2,.6,.4,.8,.6c.2,.3,.3,.6,.4,.9v1l.2,.3Zm-1,0v-.7c0-.2,0-.4-.2-.6s-.3-.3-.5-.4c-.2,0-.5-.2-.8-.2s-.7,0-.9,0c-.2,0-.4,.2-.6,.4,0,.2-.2,.4-.3,.7v.9l3.4-.3h-.1Z" style="fill: #fff;"/>
      <path d="M632.5,669.2c.4,0,.7,0,1,.2,.3,0,.5,.3,.7,.4,.2,.2,.3,.4,.4,.7,0,.3,0,.5,0,.9v4.5h-1v-4.1c0-.5,0-.9-.3-1.2-.2-.3-.5-.4-1-.4h-.5c0,0-.3,0-.5,.2,0,0-.3,.2-.4,.3,0,0-.2,.3-.3,.6h0v4.6h-1v-4.1c0-.5,0-.9-.2-1.2s-.5-.4-1-.4h-.6c-.2,0-.3,0-.5,.2,0,0-.3,.2-.4,.4,0,.2-.2,.4-.3,.6v4.5h-1v-6.5h1v.9c.2-.4,.5-.6,.8-.8,.3,0,.7-.2,1.1-.2s.9,0,1.2,.3c.3,.2,.5,.4,.7,.8,0-.2,.2-.4,.4-.5,0,0,.3-.2,.5-.3,.2,0,.4,0,.6-.2s.4,0,.6,0v-.2Z" style="fill: #fff;"/>
      <path d="M640.2,669.2c.5,0,1,0,1.3,.2s.6,.4,.8,.7,.3,.7,.4,1.1c0,.4,0,.9,0,1.4s0,.9,0,1.3c0,.4-.2,.8-.4,1.1s-.5,.6-.8,.7c-.3,.2-.8,.3-1.3,.3s-1.1,0-1.4-.3c-.3-.2-.5-.5-.7-.9v3.5h-1v-8.9h1v1.2c0-.4,.4-.7,.7-.9s.8-.4,1.4-.4h0Zm0,5.8c.4,0,.7,0,.9-.2s.4-.3,.5-.6c0-.2,.2-.5,.2-.8v-1.9c0-.3,0-.6-.2-.8,0-.2-.3-.4-.5-.5s-.5-.2-.9-.2-.7,0-1,.2-.5,.3-.6,.5c-.2,.2-.3,.5-.3,.8v2c0,.3,.2,.6,.3,.8,.2,.2,.4,.4,.6,.5,.3,0,.6,.2,1,.2Z" style="fill: #fff;"/>
      <path d="M650.2,671.9v.7l-4.4,.3c0,.4,0,.7,0,.9,0,.3,.2,.5,.3,.6,.2,.2,.4,.3,.6,.4,.3,0,.6,0,1,0s.7,0,1.1,0,.7-.2,.9-.3v1s-.2,0-.4,0c-.2,0-.3,0-.5,0h-1.3c-.5,0-.9,0-1.3-.2-.4,0-.7-.3-.9-.6-.3-.3-.5-.6-.6-1s-.2-1-.2-1.6,0-1.2,.2-1.6c0-.4,.3-.8,.6-1,.3-.3,.6-.4,.9-.6,.4,0,.8-.2,1.2-.2s1,0,1.3,.2,.6,.4,.8,.6c.2,.3,.3,.6,.4,.9v1l.2,.3Zm-1,0v-.7c0-.2,0-.4-.2-.6s-.3-.3-.5-.4c-.2,0-.5-.2-.8-.2s-.7,0-.9,0c-.2,0-.4,.2-.6,.4,0,.2-.2,.4-.3,.7v.9l3.4-.3h-.1Z" style="fill: #fff;"/>
      <path d="M655.5,669.2v.9h-.8c-.2,0-.4,0-.6,.2-.2,0-.3,.3-.5,.4,0,.2-.3,.4-.3,.7v4.3h-1v-6.5h1v1.2c0-.3,.2-.5,.4-.7s.3-.3,.5-.4c.2,0,.4-.2,.6-.2h.7Z" style="fill: #fff;"/>
      <path d="M659.2,669.2c.5,0,.9,0,1.3,.2,.3,0,.6,.2,.8,.4s.3,.4,.4,.6c0,.2,0,.5,0,.8v4.6h-.9l-.2-1c0,.2-.2,.3-.4,.5s-.3,.3-.5,.3-.4,.2-.7,.2h-.7c-.8,0-1.3-.2-1.7-.5s-.5-.8-.5-1.4,0-.7,.2-1c0-.3,.3-.5,.5-.6,.2-.2,.5-.3,.8-.3s.7,0,1.1,0h2v-1c0-.2,0-.3-.2-.4s-.3-.2-.5-.3h-1.5c-.2,0-.5,0-.7,0v-.9h1.4v-.2Zm-.8,5.9c.5,0,1,0,1.4-.3s.7-.5,.8-.9v-1.1h-2.6c-.2,0-.4,0-.5,.2s-.2,.2-.3,.4v.6c0,.4,0,.6,.3,.8s.5,.3,1,.3h0Z" style="fill: #fff;"/>
      <path d="M666.3,675.1h.7v.9h-1.7c-.2,0-.4-.2-.6-.3-.2-.2-.3-.4-.3-.6,0-.3,0-.6,0-1v-3.7h-1v-.9h1v-1.5h1v1.5h1.6v.9h-1.6v4.2c0,0,0,.3,0,.4s.2,.2,.3,.2h.6Z" style="fill: #fff;"/>
      <path d="M673.8,669.3v6.5h-.9v-.9l-.5,.5c0,0-.3,.2-.5,.3-.2,0-.4,0-.6,.2h-.6c-.4,0-.8,0-1.1-.2-.3,0-.5-.2-.7-.4s-.3-.4-.3-.7,0-.5,0-.9v-4.5h1v4.8c0,.2,0,.4,.2,.5s.2,.2,.4,.3,.4,0,.6,0h.6c.2,0,.4,0,.5-.2s.3-.2,.4-.4c0-.2,.2-.4,.3-.7v-4.4h1.3Z" style="fill: #fff;"/>
      <path d="M679.5,669.2v.9h-.8c-.2,0-.4,0-.6,.2-.2,0-.3,.3-.5,.4,0,.2-.3,.4-.3,.7v4.3h-1v-6.5h1v1.2c0-.3,.2-.5,.4-.7s.3-.3,.5-.4c.2,0,.4-.2,.6-.2h.7Z" style="fill: #fff;"/>
      <path d="M686.1,671.9v.7l-4.4,.3c0,.4,0,.7,0,.9,0,.3,.2,.5,.3,.6,.2,.2,.4,.3,.6,.4,.3,0,.6,0,1,0s.7,0,1.1,0,.7-.2,.9-.3v1s-.2,0-.4,0c-.2,0-.3,0-.5,0h-1.3c-.5,0-.9,0-1.3-.2-.4,0-.7-.3-.9-.6-.3-.3-.5-.6-.6-1s-.2-1-.2-1.6,0-1.2,.2-1.6c0-.4,.3-.8,.6-1,.3-.3,.6-.4,.9-.6,.4,0,.8-.2,1.2-.2s1,0,1.3,.2,.6,.4,.8,.6c.2,.3,.3,.6,.4,.9v1l.2,.3Zm-1,0v-.7c0-.2,0-.4-.2-.6s-.3-.3-.5-.4c-.2,0-.5-.2-.8-.2s-.7,0-.9,0c-.2,0-.4,.2-.6,.4,0,.2-.2,.4-.3,.7v.9l3.4-.3h-.1Z" style="fill: #fff;"/>
    </g>
    <g>
      <path d="M564.9,690.3h.7l2,7.4h0l2.4-7.4h.9l2.5,7.4h0l2-7.4h.7l-2.3,8.2h-.8l-2.5-7.5h0l-2.5,7.5h-.8l-2.3-8.2h0Z" style="fill: #fff;"/>
      <path d="M576.7,690.3h.7l2,7.4h0l2.4-7.4h.9l2.5,7.4h0l2-7.4h.7l-2.3,8.2h-.8l-2.5-7.5h0l-2.5,7.5h-.8l-2.3-8.2h0Z" style="fill: #fff;"/>
      <path d="M588.4,690.3h.7l2,7.4h0l2.4-7.4h.9l2.5,7.4h0l2-7.4h.7l-2.3,8.2h-.8l-2.5-7.5h0l-2.5,7.5h-.8l-2.3-8.2h0Z" style="fill: #fff;"/>
      <path d="M600.9,698.6c-.2,0-.4,0-.5,0,0,0,0-.3,0-.6s0-.5,0-.5c0,0,.3,0,.5,0s.4,0,.5,0c0,0,0,.3,0,.5s0,.5,0,.6c0,0-.3,0-.5,0Z" style="fill: #fff;"/>
      <path d="M610.6,690.3v7.6c0,1.1-.3,2-.9,2.6-.6,.6-1.6,.9-2.8,.9s-.7,0-1,0-.6,0-.8,0v-.7c.3,0,.6,0,.9,.2h1c1.1,0,1.8-.3,2.3-.8s.7-1.3,.7-2.3v-1.1c-.2,.6-.5,1-1,1.3s-1.1,.5-2,.5-1.1,0-1.5-.3c-.4-.2-.7-.4-1-.8-.2-.3-.4-.8-.5-1.3s-.2-1.1-.2-1.8,0-1.2,.2-1.7c0-.5,.3-1,.5-1.3,.2-.4,.6-.6,1-.8s.9-.3,1.5-.3,.8,0,1.2,0c.3,0,.6,.2,.8,.4l.6,.6c.2,.2,.3,.5,.4,.8v-1.7h.6Zm-3.5,7.6c.6,0,1,0,1.4-.3s.7-.4,.9-.7,.4-.7,.5-1.1,0-.9,0-1.4,0-1,0-1.4c0-.4-.2-.8-.5-1.1s-.5-.6-.9-.7-.8-.3-1.4-.3-1,0-1.3,.2-.6,.4-.8,.7-.3,.7-.4,1.1c0,.4,0,.9,0,1.5s0,1.1,0,1.5c0,.4,.2,.8,.4,1.1s.5,.5,.8,.7,.8,.2,1.3,.2Z" style="fill: #fff;"/>
      <path d="M619.4,693.5v.8l-5.8,.4c0,.6,0,1.1,.2,1.5,0,.4,.3,.8,.5,1,.2,.3,.5,.5,.9,.6s.8,.2,1.4,.2,.9,0,1.3,0c.5,0,.9-.2,1.2-.4v.7c0,0-.3,0-.5,.2-.2,0-.4,0-.6,.2-.2,0-.5,0-.7,0h-.8c-.6,0-1.2,0-1.6-.2-.5,0-.8-.4-1.1-.7s-.5-.8-.6-1.3-.2-1.2-.2-2,0-1.5,.2-2,.3-1,.6-1.3,.6-.6,1.1-.7c.4,0,1-.2,1.6-.2s1.2,0,1.6,.3c.4,.2,.7,.5,.9,.8s.3,.7,.4,1.1,0,.8,0,1.2v-.2Zm-.7,.2v-1.2c0-.4-.2-.7-.3-.9-.2-.3-.4-.5-.7-.6s-.7-.2-1.3-.2-1,0-1.3,.2c-.4,0-.6,.3-.8,.6s-.4,.6-.5,1c0,.4,0,.9-.2,1.5l5.1-.4h0Z" style="fill: #fff;"/>
      <path d="M627.8,693.5v.8l-5.8,.4c0,.6,0,1.1,.2,1.5,0,.4,.3,.8,.5,1,.2,.3,.5,.5,.9,.6s.8,.2,1.4,.2,.9,0,1.3,0c.5,0,.9-.2,1.2-.4v.7c0,0-.3,0-.5,.2-.2,0-.4,0-.6,.2-.2,0-.5,0-.7,0h-.8c-.6,0-1.2,0-1.6-.2-.5,0-.8-.4-1.1-.7s-.5-.8-.6-1.3-.2-1.2-.2-2,0-1.5,.2-2,.3-1,.6-1.3,.6-.6,1.1-.7c.4,0,1-.2,1.6-.2s1.2,0,1.6,.3c.4,.2,.7,.5,.9,.8s.3,.7,.4,1.1,0,.8,0,1.2v-.2Zm-.7,.2v-1.2c0-.4-.2-.7-.3-.9-.2-.3-.4-.5-.7-.6s-.7-.2-1.3-.2-1,0-1.3,.2c-.4,0-.6,.3-.8,.6s-.4,.6-.5,1c0,.4,0,.9-.2,1.5l5.1-.4h0Z" style="fill: #fff;"/>
      <path d="M636.1,693.5v.8l-5.8,.4c0,.6,0,1.1,.2,1.5,0,.4,.3,.8,.5,1,.2,.3,.5,.5,.9,.6s.8,.2,1.4,.2,.9,0,1.3,0c.5,0,.9-.2,1.2-.4v.7c0,0-.3,0-.5,.2-.2,0-.4,0-.6,.2-.2,0-.5,0-.7,0h-.8c-.6,0-1.2,0-1.6-.2-.5,0-.8-.4-1.1-.7s-.5-.8-.6-1.3-.2-1.2-.2-2,0-1.5,.2-2,.3-1,.6-1.3,.6-.6,1.1-.7c.4,0,1-.2,1.6-.2s1.2,0,1.6,.3c.4,.2,.7,.5,.9,.8s.3,.7,.4,1.1,0,.8,0,1.2v-.2Zm-.7,.2v-1.2c0-.4-.2-.7-.3-.9-.2-.3-.4-.5-.7-.6s-.7-.2-1.3-.2-1,0-1.3,.2c-.4,0-.6,.3-.8,.6s-.4,.6-.5,1c0,.4,0,.9-.2,1.5l5.1-.4h0Z" style="fill: #fff;"/>
      <path d="M640.6,697.9h1.1v.6h-2c-.3,0-.5-.2-.6-.4-.2-.2-.3-.4-.3-.8s0-.8,0-1.3v-5.1h-1.3v-.6h1.3v-1.9h.7v1.9h2.3v.6h-2.3v6c0,.2,0,.4,.2,.6s.2,.2,.4,.3h.6Z" style="fill: #fff;"/>
      <path d="M649.1,693.5v.8l-5.8,.4c0,.6,0,1.1,.2,1.5,0,.4,.3,.8,.5,1,.2,.3,.5,.5,.9,.6s.8,.2,1.4,.2,.9,0,1.3,0c.5,0,.9-.2,1.2-.4v.7c0,0-.3,0-.5,.2-.2,0-.4,0-.6,.2-.2,0-.5,0-.7,0h-.8c-.6,0-1.2,0-1.6-.2-.5,0-.8-.4-1.1-.7s-.5-.8-.6-1.3-.2-1.2-.2-2,0-1.5,.2-2,.3-1,.6-1.3,.6-.6,1.1-.7c.4,0,1-.2,1.6-.2s1.2,0,1.6,.3c.4,.2,.7,.5,.9,.8s.3,.7,.4,1.1,0,.8,0,1.2v-.2Zm-.7,.2v-1.2c0-.4-.2-.7-.3-.9-.2-.3-.4-.5-.7-.6s-.7-.2-1.3-.2-1,0-1.3,.2c-.4,0-.6,.3-.8,.6s-.4,.6-.5,1c0,.4,0,.9-.2,1.5l5.1-.4h0Z" style="fill: #fff;"/>
      <path d="M654.4,698.6c-.6,0-1.1,0-1.6-.2-.4,0-.8-.4-1.1-.7s-.5-.8-.6-1.3-.2-1.2-.2-2,0-1.5,.2-2c0-.5,.3-1,.6-1.3s.6-.6,1.1-.7c.4,0,.9-.2,1.6-.2h1.2c.3,0,.7,0,.9,.2v.7c-.3,0-.6-.2-1-.2h-1.1c-.4,0-.9,0-1.3,.2-.3,0-.6,.3-.8,.6s-.4,.6-.5,1.1c0,.5,0,1,0,1.7s0,1.2,0,1.7c0,.5,.2,.8,.5,1.1,.2,.3,.5,.5,.8,.6s.8,.2,1.3,.2,.8,0,1.2,0c.3,0,.7-.2,1-.3v.7c-.2,0-.5,.2-.9,.3-.4,0-.8,0-1.2,0v-.2Z" style="fill: #fff;"/>
      <path d="M662,690.1c.5,0,.9,0,1.3,.2,.3,0,.6,.3,.8,.5s.3,.5,.4,.8c0,.3,0,.7,0,1.1v5.7h-.7v-6.4c0-.3-.2-.6-.3-.7-.2-.2-.4-.3-.6-.4s-.6,0-1,0h-.8c-.3,0-.5,0-.8,.3s-.5,.3-.7,.6-.3,.6-.4,1v5.7h-.7v-11.5h.7v4.7c0-.3,.2-.5,.4-.7s.4-.4,.7-.5,.5-.2,.8-.3,.6,0,.9,0h-.1Z" style="fill: #fff;"/>
      <path d="M668,698.6c-.2,0-.4,0-.5,0,0,0,0-.3,0-.6s0-.5,0-.5c0,0,.3,0,.5,0s.4,0,.5,0c0,0,0,.3,0,.5s0,.5,0,.6c0,0-.3,0-.5,0Z" style="fill: #fff;"/>
      <path d="M673.6,698.6c-.6,0-1.1,0-1.6-.2-.4,0-.8-.4-1.1-.7s-.5-.8-.6-1.3-.2-1.2-.2-2,0-1.5,.2-2c0-.5,.3-1,.6-1.3s.6-.6,1.1-.7c.4,0,.9-.2,1.6-.2h1.2c.3,0,.7,0,.9,.2v.7c-.3,0-.6-.2-1-.2h-1.1c-.4,0-.9,0-1.3,.2-.3,0-.6,.3-.8,.6s-.4,.6-.5,1.1c0,.5,0,1,0,1.7s0,1.2,0,1.7c0,.5,.2,.8,.5,1.1,.2,.3,.5,.5,.8,.6s.8,.2,1.3,.2,.8,0,1.2,0c.3,0,.7-.2,1-.3v.7c-.2,0-.5,.2-.9,.3-.4,0-.8,0-1.2,0v-.2Z" style="fill: #fff;"/>
      <path d="M680.8,698.6c-.6,0-1.2,0-1.6-.2-.4,0-.8-.4-1.1-.7s-.5-.8-.6-1.3-.2-1.2-.2-2,0-1.5,.2-2c0-.5,.3-1,.6-1.3s.6-.6,1.1-.7,1-.2,1.6-.2,1.1,0,1.6,.2c.4,0,.8,.4,1.1,.7s.5,.8,.6,1.3,.2,1.2,.2,2,0,1.5-.2,2c0,.5-.3,1-.6,1.3s-.7,.6-1.1,.7c-.4,0-1,.2-1.6,.2Zm0-.6c.5,0,1,0,1.4-.2,.4,0,.6-.3,.9-.6,.2-.3,.4-.7,.5-1.1s0-1,0-1.7,0-1.2,0-1.7-.2-.8-.5-1.1-.5-.5-.9-.6-.8-.2-1.3-.2-1,0-1.3,.2c-.4,0-.6,.3-.9,.6-.2,.3-.4,.7-.4,1.1s0,1,0,1.7,0,1.2,0,1.7c0,.5,.2,.8,.4,1.1s.5,.5,.9,.6,.8,.2,1.3,.2h-.1Z" style="fill: #fff;"/>
      <path d="M694.9,690.1c.5,0,.9,0,1.2,.2,.3,0,.6,.3,.8,.5s.3,.5,.4,.8c0,.3,0,.7,0,1.1v5.7h-.7v-6.4c0-.3,0-.6-.3-.7,0-.2-.3-.3-.6-.4-.2,0-.6,0-.9,0h-.8c-.3,0-.5,0-.7,.3-.2,0-.4,.3-.6,.6-.2,.3-.3,.6-.4,1h0v5.7h-.7v-6.4c0-.3,0-.6-.3-.7,0-.2-.3-.3-.6-.4s-.6,0-.9,0h-.8c-.3,0-.5,0-.7,.3-.2,0-.4,.3-.6,.6-.2,.2-.3,.6-.4,1v5.8h-.7v-8.2h.7v1.4c0-.3,.2-.5,.4-.7s.4-.3,.6-.5c.2,0,.5-.2,.7-.3s.6,0,.8,0c.7,0,1.3,0,1.6,.4,.4,.3,.6,.7,.7,1.2,0-.3,.2-.5,.4-.7s.4-.4,.6-.5,.5-.2,.8-.3,.6,0,.9,0v-.2Z" style="fill: #fff;"/>
    </g>
  </g>
  <g>
    <path d="M34.1,698.5c-.4,0-.6,0-.7,0h0c-.3,0-.6-.1-.9-.2l-1.6-.6c-.3-.1-.7-.4-1.2-.7l-1.1-.9c-1-.9-1.7-2.3-2.3-4.2-.4-1.5-.6-3.4-.6-5.7s.3-4.3,1-6c.8-2.1,2.2-3.7,4.3-4.8,.6-.3,1.3-.6,2.3-.7,1-.1,5.1-.2,12.6-.2v4.2h-9.8c-1.9,0-3.3,.8-4.2,2.4-.7,1.2-1,2.8-1,4.8v2.5c.1,.4,.2,.6,.2,.8h0c0,.4,0,.8,.2,1,.2,1.2,.7,2.2,1.5,2.9,.8,.7,3.6,1.1,8.5,1.1v-5.6h-6.1v-4.3h10.8v14.3h-11.6Z" style="fill: #fff; fill-rule: evenodd;"/>
    <path d="M58.3,698.5h-1.9c0-.1-.7-.1-.7-.1-.2,0-.4,0-.6-.1-.1,0-.2,0-.2-.1-.1,0-.2,0-.3,0-2.2-.6-3.8-2-5-4.3-.5-.9-.9-1.9-1.1-3-.3-1-.4-2.1-.4-3.3,0-2.2,.2-4.1,.5-5.6,.3-1.6,.9-2.9,1.6-4.1,.9-1.3,2-2.2,3.3-2.8,.5-.2,1.3-.4,2.3-.6,.9-.1,4.3-.2,10.1-.2v4.2h-7.5c-3.4,0-5.2,1.9-5.2,5.6h12.7v4.2h-12.7c0,1,0,1.8,.2,2.4,0,.4,.2,.7,.3,1,.1,.2,.3,.5,.5,.8l.8,.9c.3,.2,.6,.4,1,.5,.4,.1,.8,.2,1.1,.2h8.8v4.2h-7.7Z" style="fill: #fff; fill-rule: evenodd;"/>
    <path d="M78.8,698.5h-1.9c0-.1-.7-.1-.7-.1-.2,0-.4,0-.6-.1-.1,0-.2,0-.2-.1-.1,0-.2,0-.3,0-2.2-.6-3.8-2-5-4.3-.5-.9-.9-1.9-1.1-3-.3-1-.4-2.1-.4-3.3,0-2.2,.2-4.1,.5-5.6,.3-1.6,.9-2.9,1.6-4.1,.9-1.3,2-2.2,3.3-2.8,.5-.2,1.3-.4,2.3-.6,.9-.1,4.3-.2,10.1-.2v4.2h-7.5c-3.4,0-5.2,1.9-5.2,5.6h12.7v4.2h-12.7c0,1,0,1.8,.2,2.4,0,.4,.2,.7,.3,1,.1,.2,.3,.5,.5,.8l.8,.9c.3,.2,.6,.4,1,.5,.4,.1,.8,.2,1.1,.2h8.8v4.2h-7.7Z" style="fill: #fff; fill-rule: evenodd;"/>
    <path d="M99.3,698.5h-1.9c0-.1-.7-.1-.7-.1-.2,0-.4,0-.6-.1-.1,0-.2,0-.2-.1-.1,0-.2,0-.3,0-2.2-.6-3.8-2-5-4.3-.5-.9-.9-1.9-1.1-3-.3-1-.4-2.1-.4-3.3,0-2.2,.2-4.1,.5-5.6,.3-1.6,.9-2.9,1.6-4.1,.9-1.3,2-2.2,3.3-2.8,.5-.2,1.3-.4,2.3-.6,.9-.1,4.3-.2,10.1-.2v4.2h-7.5c-3.4,0-5.2,1.9-5.2,5.6h12.7v4.2h-12.7c0,1,0,1.8,.2,2.4,0,.4,.2,.7,.3,1,.1,.2,.3,.5,.5,.8l.8,.9c.3,.2,.6,.4,1,.5,.4,.1,.8,.2,1.1,.2h8.8v4.2h-7.7Z" style="fill: #fff; fill-rule: evenodd;"/>
    <polygon points="120.6 678.6 120.6 698.5 115.8 698.5 115.8 678.6 108.9 678.6 108.9 674.4 127.7 674.4 127.7 678.6 120.6 678.6" style="fill: #fff; fill-rule: evenodd;"/>
    <path d="M138.7,698.5h-1.9c0-.1-.7-.1-.7-.1-.2,0-.4,0-.6-.1-.1,0-.2,0-.2-.1-.1,0-.2,0-.3,0-2.2-.6-3.8-2-5-4.3-.5-.9-.9-1.9-1.1-3-.3-1-.4-2.1-.4-3.3,0-2.2,.2-4.1,.5-5.6,.3-1.6,.9-2.9,1.6-4.1,.9-1.3,2-2.2,3.3-2.8,.5-.2,1.3-.4,2.3-.6,.9-.1,4.3-.2,10.1-.2v4.2h-7.5c-3.4,0-5.2,1.9-5.2,5.6h12.7v4.2h-12.7c0,1,0,1.8,.2,2.4,0,.4,.2,.7,.3,1,.1,.2,.3,.5,.5,.8l.8,.9c.3,.2,.6,.4,1,.5,.4,.1,.8,.2,1.1,.2h8.8v4.2h-7.7Z" style="fill: #fff; fill-rule: evenodd;"/>
    <path d="M159.2,698.5h-1.9c0-.1-.7-.1-.7-.1-.2,0-.4,0-.6-.1-.1,0-.2,0-.2-.1-.1,0-.2,0-.3,0-2.2-.6-3.8-2-5-4.3-1-1.9-1.5-4-1.5-6.2s.2-4.1,.5-5.6c.3-1.6,.9-2.9,1.6-4.1,.9-1.3,2-2.2,3.3-2.8,.8-.3,1.6-.5,2.3-.6,.9-.1,4.2-.2,10.1-.2v4.1h-7.5c-1.5,0-2.6,.4-3.5,1.3-.7,.8-1.2,1.8-1.5,3.1-.3,1.4-.4,2.8-.4,4.3s.2,3,.5,4.1c.5,1.5,1.4,2.4,2.6,2.8h.5c0,.1,.5,.2,.5,.2h8.8v4.2h-7.7Z" style="fill: #fff; fill-rule: evenodd;"/>
    <polygon points="183.3 698.5 183.3 688.4 174.9 688.4 174.9 698.5 170.3 698.5 170.3 674.3 174.9 674.3 174.9 684.1 183.3 684.1 183.3 674.3 187.9 674.3 187.9 698.5 183.3 698.5" style="fill: #fff; fill-rule: evenodd;"/>
  </g>
  <rect x="7.1" y="7.1" width="708.7" height="708.7" style="fill: none; stroke: #fff; stroke-miterlimit: 10; stroke-width: .8px;"/>
  <line x1="205.5" y1="687.4" x2="545.7" y2="687.4" style="fill: none; stroke: #fff; stroke-miterlimit: 10; stroke-width: .8px;"/>
  <line x1="7.1" y1="659.1" x2="545.7" y2="659.1" style="fill: none; stroke: #fff; stroke-miterlimit: 10; stroke-width: .8px;"/>
  <line x1="7.1" y1="630.7" x2="715.7" y2="630.7" style="fill: none; stroke: #fff; stroke-miterlimit: 10; stroke-width: .8px;"/>
  <line x1="7.1" y1="602.4" x2="715.7" y2="602.4" style="fill: none; stroke: #fff; stroke-miterlimit: 10; stroke-width: .8px;"/>
  <line x1="7.1" y1="574" x2="715.7" y2="574" style="fill: none; stroke: #fff; stroke-miterlimit: 10; stroke-width: .8px;"/>
  <line x1="7.1" y1="545.7" x2="715.7" y2="545.7" style="fill: none; stroke: #fff; stroke-miterlimit: 10; stroke-width: .8px;"/>
  <line x1="7.1" y1="517.3" x2="715.7" y2="517.3" style="fill: none; stroke: #fff; stroke-miterlimit: 10; stroke-width: .8px;"/>
  <line x1="7.1" y1="489" x2="715.7" y2="489" style="fill: none; stroke: #fff; stroke-miterlimit: 10; stroke-width: .8px;"/>
  <line x1="7.1" y1="460.6" x2="715.7" y2="460.6" style="fill: none; stroke: #fff; stroke-miterlimit: 10; stroke-width: .8px;"/>
  <line x1="7.1" y1="432.3" x2="715.7" y2="432.3" style="fill: none; stroke: #fff; stroke-miterlimit: 10; stroke-width: .8px;"/>
  <line x1="7.1" y1="403.9" x2="715.7" y2="403.9" style="fill: none; stroke: #fff; stroke-miterlimit: 10; stroke-width: .8px;"/>
  <line x1="7.1" y1="375.6" x2="715.7" y2="375.6" style="fill: none; stroke: #fff; stroke-miterlimit: 10; stroke-width: .8px;"/>
  <line x1="7.1" y1="347.2" x2="715.7" y2="347.2" style="fill: none; stroke: #fff; stroke-miterlimit: 10; stroke-width: .8px;"/>
  <line x1="7.1" y1="318.9" x2="715.7" y2="318.9" style="fill: none; stroke: #fff; stroke-miterlimit: 10; stroke-width: .8px;"/>
  <line x1="7.1" y1="290.6" x2="715.7" y2="290.6" style="fill: none; stroke: #fff; stroke-miterlimit: 10; stroke-width: .8px;"/>
  <line x1="7.1" y1="262.2" x2="715.7" y2="262.2" style="fill: none; stroke: #fff; stroke-miterlimit: 10; stroke-width: .8px;"/>
  <line x1="7.1" y1="233.9" x2="715.7" y2="233.9" style="fill: none; stroke: #fff; stroke-miterlimit: 10; stroke-width: .8px;"/>
  <line x1="7.1" y1="205.5" x2="715.7" y2="205.5" style="fill: none; stroke: #fff; stroke-miterlimit: 10; stroke-width: .8px;"/>
  <line x1="7.1" y1="177.2" x2="715.7" y2="177.2" style="fill: none; stroke: #fff; stroke-miterlimit: 10; stroke-width: .8px;"/>
  <line x1="7.1" y1="148.8" x2="715.7" y2="148.8" style="fill: none; stroke: #fff; stroke-miterlimit: 10; stroke-width: .8px;"/>
  <line x1="7.1" y1="120.5" x2="715.7" y2="120.5" style="fill: none; stroke: #fff; stroke-miterlimit: 10; stroke-width: .8px;"/>
  <line x1="7.1" y1="92.1" x2="715.7" y2="92.1" style="fill: none; stroke: #fff; stroke-miterlimit: 10; stroke-width: .8px;"/>
  <line x1="7.1" y1="63.8" x2="715.7" y2="63.8" style="fill: none; stroke: #fff; stroke-miterlimit: 10; stroke-width: .8px;"/>
  <line x1="7.1" y1="35.4" x2="715.7" y2="35.4" style="fill: none; stroke: #fff; stroke-miterlimit: 10; stroke-width: .8px;"/>
  <line x1="687.4" y1="7.1" x2="687.4" y2="630.7" style="fill: none; stroke: #fff; stroke-miterlimit: 10; stroke-width: .8px;"/>
  <line x1="659.1" y1="7.1" x2="659.1" y2="630.7" style="fill: none; stroke: #fff; stroke-miterlimit: 10; stroke-width: .8px;"/>
  <line x1="630.7" y1="7.1" x2="630.7" y2="630.7" style="fill: none; stroke: #fff; stroke-miterlimit: 10; stroke-width: .8px;"/>
  <line x1="602.4" y1="7.1" x2="602.4" y2="630.7" style="fill: none; stroke: #fff; stroke-miterlimit: 10; stroke-width: .8px;"/>
  <line x1="574" y1="7.1" x2="574" y2="630.7" style="fill: none; stroke: #fff; stroke-miterlimit: 10; stroke-width: .8px;"/>
  <line x1="545.7" y1="7.1" x2="545.7" y2="715.7" style="fill: none; stroke: #fff; stroke-miterlimit: 10; stroke-width: .8px;"/>
  <line x1="517.3" y1="7.1" x2="517.3" y2="715.7" style="fill: none; stroke: #fff; stroke-miterlimit: 10; stroke-width: .8px;"/>
  <line x1="489" y1="7.1" x2="489" y2="715.7" style="fill: none; stroke: #fff; stroke-miterlimit: 10; stroke-width: .8px;"/>
  <line x1="460.6" y1="7.1" x2="460.6" y2="715.7" style="fill: none; stroke: #fff; stroke-miterlimit: 10; stroke-width: .8px;"/>
  <line x1="432.3" y1="7.1" x2="432.3" y2="715.7" style="fill: none; stroke: #fff; stroke-miterlimit: 10; stroke-width: .8px;"/>
  <line x1="403.9" y1="7.1" x2="403.9" y2="715.7" style="fill: none; stroke: #fff; stroke-miterlimit: 10; stroke-width: .8px;"/>
  <line x1="375.6" y1="7.1" x2="375.6" y2="715.7" style="fill: none; stroke: #fff; stroke-miterlimit: 10; stroke-width: .8px;"/>
  <line x1="347.2" y1="7.1" x2="347.2" y2="715.7" style="fill: none; stroke: #fff; stroke-miterlimit: 10; stroke-width: .8px;"/>
  <line x1="318.9" y1="7.1" x2="318.9" y2="715.7" style="fill: none; stroke: #fff; stroke-miterlimit: 10; stroke-width: .8px;"/>
  <line x1="290.6" y1="7.1" x2="290.6" y2="715.7" style="fill: none; stroke: #fff; stroke-miterlimit: 10; stroke-width: .8px;"/>
  <line x1="262.2" y1="7.1" x2="262.2" y2="715.7" style="fill: none; stroke: #fff; stroke-miterlimit: 10; stroke-width: .8px;"/>
  <line x1="233.9" y1="7.1" x2="233.9" y2="715.7" style="fill: none; stroke: #fff; stroke-miterlimit: 10; stroke-width: .8px;"/>
  <line x1="205.5" y1="7.1" x2="205.5" y2="715.7" style="fill: none; stroke: #fff; stroke-miterlimit: 10; stroke-width: .8px;"/>
  <line x1="177.2" y1="7.1" x2="177.2" y2="659.1" style="fill: none; stroke: #fff; stroke-miterlimit: 10; stroke-width: .8px;"/>
  <line x1="148.8" y1="7.1" x2="148.8" y2="659.1" style="fill: none; stroke: #fff; stroke-miterlimit: 10; stroke-width: .8px;"/>
  <line x1="120.5" y1="7.1" x2="120.5" y2="659.1" style="fill: none; stroke: #fff; stroke-miterlimit: 10; stroke-width: .8px;"/>
  <line x1="92.1" y1="7.1" x2="92.1" y2="659.1" style="fill: none; stroke: #fff; stroke-miterlimit: 10; stroke-width: .8px;"/>
  <line x1="63.8" y1="7.1" x2="63.8" y2="659.1" style="fill: none; stroke: #fff; stroke-miterlimit: 10; stroke-width: .8px;"/>
  <line x1="35.4" y1="7.1" x2="35.4" y2="659.1" style="fill: none; stroke: #fff; stroke-miterlimit: 10; stroke-width: .8px;"/>
</svg>