<?xml version="1.0" encoding="utf-8"?>
<!-- Generator: Adobe Illustrator 23.0.3, SVG Export Plug-In . SVG Version: 6.00 Build 0)  -->
<svg version="1.0" id="Layer_1" xmlns="http://www.w3.org/2000/svg" xmlns:xlink="http://www.w3.org/1999/xlink" x="0px" y="0px"
	 viewBox="0 0 16 16" enable-background="new 0 0 16 16" xml:space="preserve">
<g id="add_x5F_part_1_">
	<g>
		<path fill="#ED6B21" d="M11,15c-0.55,0-1-0.45-1-1V8c0-0.55,0.45-1,1-1s1,0.45,1,1v6C12,14.55,11.55,15,11,15z"/>
	</g>
	<g>
		<path fill="#ED6B21" d="M14,12H8c-0.55,0-1-0.45-1-1s0.45-1,1-1h6c0.55,0,1,0.45,1,1S14.55,12,14,12z"/>
	</g>
	<g>
		<path fill="#FFFFFF" d="M10.98,6.22c-0.29,0-0.52-0.23-0.52-0.52V3.61V2.57c0-0.29-0.23-0.52-0.52-0.52H2.62
			c-0.29,0-0.53,0.24-0.53,0.53l-0.05,7.3c0,0.14,0.05,0.27,0.15,0.37c0.1,0.1,0.23,0.15,0.37,0.15h3.19l0,0
			c0.29,0,0.52,0.23,0.52,0.52s-0.23,0.52-0.52,0.52H3.66c-0.01,0-0.01,0-0.02,0H2.56c-0.42,0-0.81-0.16-1.11-0.46
			C1.16,10.69,1,10.29,1,9.87l0.04-7.31C1.05,1.7,1.75,1,2.62,1h7.31c0.86,0,1.57,0.7,1.57,1.57v1.04V5.7
			C11.5,5.99,11.27,6.22,10.98,6.22z"/>
	</g>
</g>
</svg>
