<?xml version="1.0" encoding="utf-8"?>
<!-- Generator: Adobe Illustrator 25.0.1, SVG Export Plug-In . SVG Version: 6.00 Build 0)  -->
<svg version="1.0" id="Layer_1" xmlns="http://www.w3.org/2000/svg" xmlns:xlink="http://www.w3.org/1999/xlink" x="0px" y="0px"
	 viewBox="0 0 16 16" enable-background="new 0 0 16 16" xml:space="preserve">
<g id="compare_1_">
	<g id="compare">
		<path fill="#ED6B21" d="M7.87,2.23c-1.54-1.54-4.04-1.54-5.59,0s-1.54,4.04,0,5.59c1.43,1.43,3.69,1.53,5.24,0.31l1.33,1.33
			c0,0-0.33,0.33,0,0.66c0.33,0.33,3.29,3.29,3.29,3.29s0.33,0.33,0.66,0c0.33-0.33,0.66-0.66,0.66-0.66s0.33-0.33,0-0.66
			c-0.33-0.33-3.29-3.29-3.29-3.29c-0.33-0.33-0.66,0-0.66,0L8.18,7.47C9.41,5.92,9.3,3.67,7.87,2.23z M7.52,7.47
			c-1.35,1.35-3.54,1.35-4.89,0s-1.35-3.54,0-4.89s3.54-1.35,4.89,0S8.87,6.12,7.52,7.47z"/>
	</g>
	<path fill="#FFFFFF" d="M7.49,4.35C7.43,4.16,7.36,3.97,7.26,3.8l0.18-0.54L6.85,2.67L6.31,2.85c-0.17-0.1-0.36-0.17-0.56-0.23
		L5.5,2.11H4.66L4.41,2.62c-0.2,0.05-0.38,0.13-0.56,0.23L3.31,2.67L2.72,3.26L2.9,3.8C2.8,3.97,2.72,4.16,2.67,4.35L2.16,4.61v0.83
		L2.67,5.7C2.72,5.9,2.8,6.08,2.9,6.26L2.72,6.8l0.59,0.59l0.54-0.18c0.17,0.1,0.36,0.17,0.56,0.23l0.26,0.51H5.5l0.26-0.51
		c0.2-0.05,0.38-0.13,0.56-0.23l0.54,0.18L7.44,6.8L7.26,6.26C7.36,6.08,7.43,5.9,7.49,5.7L8,5.45V4.61L7.49,4.35z M5.08,6.33
		c-0.72,0-1.3-0.58-1.3-1.3c0-0.72,0.58-1.3,1.3-1.3s1.3,0.58,1.3,1.3C6.38,5.75,5.8,6.33,5.08,6.33z"/>
	<path fill="#FFFFFF" d="M14.56,4.45c-0.05-0.17-0.11-0.33-0.2-0.48l0.15-0.46l-0.51-0.51l-0.46,0.15c-0.15-0.08-0.31-0.15-0.48-0.2
		l-0.22-0.44h-0.71l-0.22,0.44c-0.17,0.05-0.33,0.11-0.48,0.2l-0.46-0.15l-0.51,0.51l0.15,0.46c-0.08,0.15-0.15,0.31-0.2,0.48
		L10,4.67v0.71l0.44,0.22c0.05,0.17,0.11,0.33,0.2,0.48l-0.15,0.46l0.51,0.51l0.46-0.15c0.15,0.08,0.31,0.15,0.48,0.2l0.22,0.44
		h0.71l0.22-0.44c0.17-0.05,0.33-0.11,0.48-0.2l0.46,0.15l0.51-0.51l-0.15-0.46c0.08-0.15,0.15-0.31,0.2-0.48L15,5.39V4.67
		L14.56,4.45z M12.5,6.14c-0.62,0-1.11-0.5-1.11-1.11c0-0.62,0.5-1.11,1.11-1.11s1.11,0.5,1.11,1.11
		C13.61,5.64,13.11,6.14,12.5,6.14z"/>
	<path fill="#FFFFFF" d="M7.14,11.91c-0.05-0.17-0.11-0.33-0.2-0.48l0.15-0.46l-0.51-0.51l-0.46,0.15c-0.15-0.08-0.31-0.15-0.48-0.2
		L5.44,9.99H4.72L4.5,10.43c-0.17,0.05-0.33,0.11-0.48,0.2l-0.46-0.15l-0.51,0.51l0.15,0.46c-0.08,0.15-0.15,0.31-0.2,0.48
		l-0.44,0.22v0.71l0.44,0.22c0.05,0.17,0.11,0.33,0.2,0.48L3.06,14l0.51,0.51l0.46-0.15c0.15,0.08,0.31,0.15,0.48,0.2l0.22,0.44
		h0.71l0.22-0.44c0.17-0.05,0.33-0.11,0.48-0.2l0.46,0.15L7.1,14l-0.15-0.46c0.08-0.15,0.15-0.31,0.2-0.48l0.44-0.22v-0.71
		L7.14,11.91z M5.08,13.6c-0.62,0-1.11-0.5-1.11-1.11c0-0.62,0.5-1.11,1.11-1.11s1.11,0.5,1.11,1.11C6.19,13.11,5.69,13.6,5.08,13.6
		z"/>
</g>
</svg>
