<?xml version="1.0" encoding="utf-8"?>
<!-- Generator: Adobe Illustrator 23.0.3, SVG Export Plug-In . SVG Version: 6.00 Build 0)  -->
<svg version="1.1" id="Layer_1" xmlns="http://www.w3.org/2000/svg" xmlns:xlink="http://www.w3.org/1999/xlink" x="0px" y="0px"
	 viewBox="0 0 16 16" style="enable-background:new 0 0 16 16;" xml:space="preserve">
<style type="text/css">
	.st0{fill:#FFFFFF;}
	.st1{fill:#ED6B21;}
</style>
<g id="export_x5F_plater">
	<path class="st0" d="M13,2c0.5,0,1,0.4,1,1v10c0,0.5-0.4,1-1,1H3c-0.5,0-1-0.4-1-1V3c0-0.5,0.4-1,1-1H13 M13,1H3C1.9,1,1,1.9,1,3
		v10c0,1.1,0.9,2,2,2h10c1.1,0,2-0.9,2-2V3C15,1.9,14.1,1,13,1L13,1z"/>
	<path class="st1" d="M11.6,8.4c0.2-0.2,0.2-0.5,0-0.7L8.9,4.9C8.7,4.7,8.6,4.8,8.6,5.1v1.3c0,0.3-0.2,0.5-0.5,0.5H4.5
		C4.2,6.9,4,7.1,4,7.4v1.3C4,9,4.2,9.2,4.5,9.2h3.6c0.3,0,0.5,0.2,0.5,0.5V11c0,0.3,0.2,0.3,0.4,0.1L11.6,8.4z"/>
</g>
</svg>
