<?xml version="1.0" encoding="utf-8"?>
<!-- Generator: Adobe Illustrator 23.0.3, SVG Export Plug-In . SVG Version: 6.00 Build 0)  -->
<!DOCTYPE svg PUBLIC "-//W3C//DTD SVG 1.1//EN" "http://www.w3.org/Graphics/SVG/1.1/DTD/svg11.dtd" [
	<!ENTITY ns_extend "http://ns.adobe.com/Extensibility/1.0/">
	<!ENTITY ns_ai "http://ns.adobe.com/AdobeIllustrator/10.0/">
	<!ENTITY ns_graphs "http://ns.adobe.com/Graphs/1.0/">
	<!ENTITY ns_vars "http://ns.adobe.com/Variables/1.0/">
	<!ENTITY ns_imrep "http://ns.adobe.com/ImageReplacement/1.0/">
	<!ENTITY ns_sfw "http://ns.adobe.com/SaveForWeb/1.0/">
	<!ENTITY ns_custom "http://ns.adobe.com/GenericCustomNamespace/1.0/">
	<!ENTITY ns_adobe_xpath "http://ns.adobe.com/XPath/1.0/">
]>
<svg version="1.1" id="Layer_1" xmlns:x="&ns_extend;" xmlns:i="&ns_ai;" xmlns:graph="&ns_graphs;"
	 xmlns="http://www.w3.org/2000/svg" xmlns:xlink="http://www.w3.org/1999/xlink" x="0px" y="0px" viewBox="0 0 16 16"
	 style="enable-background:new 0 0 16 16;" xml:space="preserve">
<style type="text/css">
	.st0{fill:#FFFFFF;}
	.st1{fill:#ED6B21;}
</style>
<metadata>
	<sfw  xmlns="&ns_sfw;">
		<slices></slices>
		<sliceSourceBounds  bottomLeftOrigin="true" height="14" width="14" x="1" y="1"></sliceSourceBounds>
	</sfw>
</metadata>
<g id="import_x5F_plater">
	<g>
		<path class="st0" d="M13,2c0.5,0,1,0.4,1,1v10c0,0.5-0.4,1-1,1H3c-0.5,0-1-0.4-1-1V3c0-0.5,0.4-1,1-1H13 M13,1H3C1.9,1,1,1.9,1,3
			v10c0,1.1,0.9,2,2,2h10c1.1,0,2-0.9,2-2V3C15,1.9,14.1,1,13,1L13,1z"/>
	</g>
	<g>
		<path class="st1" d="M8,12c-0.6,0-1-0.4-1-1V5c0-0.6,0.4-1,1-1s1,0.4,1,1v6C9,11.6,8.6,12,8,12z"/>
	</g>
	<g>
		<path class="st1" d="M11,9H5C4.4,9,4,8.6,4,8s0.4-1,1-1h6c0.6,0,1,0.4,1,1C12,8.6,11.6,9,11,9z"/>
	</g>
</g>
</svg>
