<?xml version="1.0" encoding="utf-8"?>
<!-- Generator: Adobe Illustrator 23.0.3, SVG Export Plug-In . SVG Version: 6.00 Build 0)  -->
<svg version="1.0" id="Layer_1" xmlns="http://www.w3.org/2000/svg" xmlns:xlink="http://www.w3.org/1999/xlink" x="0px" y="0px"
	 viewBox="0 0 16 16" enable-background="new 0 0 16 16" xml:space="preserve">
<g id="machine_x2B_cog">
	<g>
		<path fill="#FFFFFF" d="M14.22,6.61c-0.25-0.12-0.52-0.43-0.6-0.68s-0.32-1.09-0.23-1.35l0.12-0.35c0.09-0.26,0-0.63-0.2-0.83
			L12.6,2.7c-0.19-0.19-0.57-0.28-0.83-0.2l-0.35,0.12c-0.26,0.09-0.67,0.06-0.91-0.05s-1-0.54-1.12-0.79L9.22,1.45
			C9.1,1.2,8.77,1,8.5,1h-1C7.22,1,6.9,1.2,6.78,1.45L6.61,1.78C6.49,2.02,6.18,2.3,5.93,2.38S4.84,2.7,4.58,2.62L4.23,2.5
			C3.97,2.41,3.6,2.5,3.4,2.7L2.7,3.4C2.5,3.6,2.41,3.97,2.5,4.23l0.12,0.35C2.7,4.84,2.68,5.25,2.57,5.49s-0.54,1-0.79,1.12
			L1.45,6.78C1.2,6.9,1,7.22,1,7.5v1c0,0.27,0.2,0.6,0.45,0.72l0.33,0.17c0.25,0.12,0.52,0.43,0.6,0.68s0.32,1.09,0.23,1.35
			L2.5,11.77c-0.09,0.26,0,0.63,0.2,0.83l0.7,0.7c0.19,0.19,0.57,0.28,0.83,0.2l0.35-0.12c0.26-0.09,0.67-0.06,0.91,0.05
			s1,0.54,1.12,0.79l0.17,0.33C6.9,14.8,7.22,15,7.5,15h1c0.27,0,0.6-0.2,0.72-0.45l0.17-0.33c0.12-0.25,0.43-0.52,0.68-0.6
			s1.09-0.32,1.35-0.23l0.35,0.12c0.26,0.09,0.63,0,0.83-0.2l0.71-0.71c0.19-0.19,0.28-0.57,0.2-0.83l-0.12-0.35
			c-0.09-0.26-0.06-0.67,0.05-0.91s0.54-1,0.79-1.12l0.33-0.17C14.8,9.1,15,8.77,15,8.5v-1c0-0.28-0.2-0.6-0.45-0.72L14.22,6.61z
			 M8,13c-2.76,0-5-2.24-5-5s2.24-5,5-5s5,2.24,5,5S10.76,13,8,13z"/>
	</g>
	<g>
		<path fill="#ED6B21" d="M11.65,7.25c-0.19-0.1-0.39-0.29-0.44-0.44s-0.17-0.67-0.1-0.87s-0.04-0.53-0.23-0.72l-0.1-0.1
			c-0.19-0.19-0.52-0.3-0.72-0.23s-0.48,0.07-0.62,0C9.3,4.83,8.84,4.54,8.75,4.35C8.65,4.16,8.35,4,8.07,4H7.93
			C7.65,4,7.35,4.16,7.25,4.35S6.96,4.74,6.81,4.79s-0.67,0.17-0.87,0.1S5.42,4.93,5.22,5.12l-0.1,0.1
			c-0.19,0.19-0.3,0.52-0.23,0.72s0.07,0.48,0,0.62C4.83,6.7,4.54,7.16,4.35,7.25C4.16,7.35,4,7.65,4,7.93v0.14
			c0,0.28,0.16,0.58,0.35,0.68s0.39,0.29,0.44,0.44c0.05,0.14,0.17,0.67,0.1,0.87s0.04,0.53,0.23,0.72l0.1,0.1
			c0.19,0.19,0.52,0.3,0.72,0.23s0.48-0.07,0.62,0s0.59,0.35,0.69,0.54C7.35,11.84,7.65,12,7.93,12h0.14c0.28,0,0.58-0.16,0.68-0.35
			c0.1-0.19,0.29-0.39,0.44-0.44c0.14-0.05,0.67-0.17,0.87-0.1s0.53-0.04,0.72-0.23l0.1-0.1c0.19-0.19,0.3-0.52,0.23-0.72
			s-0.07-0.48,0-0.62s0.35-0.59,0.54-0.69C11.84,8.65,12,8.35,12,8.07V7.93C12,7.65,11.84,7.35,11.65,7.25z M8,10.86
			c-1.58,0-2.86-1.28-2.86-2.86S6.42,5.14,8,5.14S10.86,6.42,10.86,8S9.58,10.86,8,10.86z"/>
	</g>
</g>
</svg>
