<?xml version="1.0" encoding="utf-8"?>
<!-- Generator: Adobe Illustrator 23.0.3, SVG Export Plug-In . SVG Version: 6.00 Build 0)  -->
<svg version="1.0" id="Layer_1" xmlns="http://www.w3.org/2000/svg" xmlns:xlink="http://www.w3.org/1999/xlink" x="0px" y="0px"
	 viewBox="0 0 16 16" enable-background="new 0 0 16 16" xml:space="preserve">
<g id="output_x2B_page_x5F_white">
	<path fill="#FFFFFF" d="M14.5,10c-0.27,0-0.5,0.23-0.5,0.5v3c0,0.27-0.23,0.5-0.5,0.5h-11C2.22,14,2,13.77,2,13.5v-11
		C2,2.22,2.22,2,2.5,2h11C13.77,2,14,2.22,14,2.5v3C14,5.78,14.23,6,14.5,6l0,0C14.77,6,15,5.78,15,5.5v-4C15,1.23,14.77,1,14.5,1
		h-13C1.23,1,1,1.23,1,1.5v13C1,14.77,1.23,15,1.5,15h13c0.27,0,0.5-0.23,0.5-0.5v-4C15,10.23,14.77,10,14.5,10L14.5,10z"/>
	<path fill="#FFFFFF" d="M11,10.5c0-0.27-0.01-0.5-0.02-0.5s-0.17,0.17-0.36,0.37c0,0-0.61,0.67-1.3,0.95
		c-1.83,0.73-3.91-0.16-4.64-1.99s0.16-3.91,1.99-4.64c1.59-0.64,3.88,1.02,3.88,1.02C10.77,5.87,10.97,6,10.98,6S11,5.78,11,5.5
		V5.49c0-0.28-0.04-0.55-0.1-0.62s-0.23-0.43-0.25-0.7s-0.24-0.58-0.49-0.68L9.77,3.32C9.52,3.21,9.15,3.26,8.94,3.44
		s-0.53,0.3-0.71,0.29S7.37,3.6,7.17,3.42S6.6,3.18,6.34,3.28l-0.4,0.16c-0.26,0.1-0.48,0.41-0.5,0.67S5.28,4.7,5.14,4.82
		s-0.69,0.5-0.96,0.52S3.6,5.58,3.49,5.83l-0.17,0.4C3.21,6.48,3.26,6.85,3.44,7.06s0.3,0.53,0.29,0.71S3.6,8.63,3.42,8.83
		S3.18,9.4,3.28,9.66l0.16,0.4c0.1,0.26,0.41,0.48,0.67,0.5s0.59,0.16,0.71,0.3s0.5,0.69,0.52,0.96s0.24,0.58,0.49,0.68l0.39,0.17
		c0.25,0.11,0.63,0.05,0.83-0.12s0.53-0.3,0.71-0.29s0.85,0.13,1.05,0.31s0.57,0.24,0.83,0.14l0.4-0.16c0.26-0.1,0.48-0.41,0.5-0.67
		s0.1-0.55,0.17-0.62S11,10.79,11,10.51V10.5z"/>
	<path fill="#ED6B21" d="M14.65,8.35c0.19-0.19,0.19-0.51,0-0.71l-2.29-2.29C12.16,5.16,12,5.22,12,5.5v1C12,6.78,11.77,7,11.5,7h-3
		C8.23,7,8,7.22,8,7.5v1C8,8.77,8.23,9,8.5,9h3C11.77,9,12,9.23,12,9.5v1c0,0.27,0.16,0.34,0.35,0.15L14.65,8.35z"/>
</g>
</svg>
