<?xml version="1.0" encoding="utf-8"?>
<!-- Generator: Adobe Illustrator 23.0.3, SVG Export Plug-In . SVG Version: 6.00 Build 0)  -->
<svg version="1.0" id="Layer_1" xmlns="http://www.w3.org/2000/svg" xmlns:xlink="http://www.w3.org/1999/xlink" x="0px" y="0px"
	 viewBox="0 0 16 16" enable-background="new 0 0 16 16" xml:space="preserve">
<g id="save">
	<g>
		<path fill="#FFFFFF" d="M12,2c1.44,0,2,0.56,2,2v10H2V2H12 M12,1H2C1.45,1,1,1.45,1,2v12c0,0.55,0.45,1,1,1h12c0.55,0,1-0.45,1-1
			V4C15,2,14,1,12,1L12,1z"/>
	</g>
	<g>
		<path fill="#FFFFFF" d="M10,8.5H3C2.72,8.5,2.5,8.28,2.5,8S2.72,7.5,3,7.5h7c0.28,0,0.5,0.22,0.5,0.5C10.5,8.28,10.28,8.5,10,8.5z
			"/>
	</g>
	<g>
		<path fill="#FFFFFF" d="M10,10.5H3c-0.28,0-0.5-0.22-0.5-0.5S2.72,9.5,3,9.5h7c0.28,0,0.5,0.22,0.5,0.5S10.28,10.5,10,10.5z"/>
	</g>
	<g>
		<path fill="#FFFFFF" d="M7,12.5H3c-0.28,0-0.5-0.22-0.5-0.5s0.22-0.5,0.5-0.5h4c0.28,0,0.5,0.22,0.5,0.5S7.28,12.5,7,12.5z"/>
	</g>
	<g>
		<path fill="#ED6B21" d="M11,1H5C4.45,1,4,1.45,4,2v3c0,0.55,0.45,1,1,1h6c0.55,0,1-0.45,1-1V2C12,1.45,11.55,1,11,1z M6,4.5
			C6,4.78,5.78,5,5.5,5S5,4.78,5,4.5v-2C5,2.22,5.22,2,5.5,2S6,2.22,6,2.5V4.5z"/>
	</g>
</g>
</svg>
