<?xml version="1.0" encoding="utf-8"?>
<!-- Generator: Adobe Illustrator 23.0.3, SVG Export Plug-In . SVG Version: 6.00 Build 0)  -->
<svg version="1.0" id="Layer_1" xmlns="http://www.w3.org/2000/svg" xmlns:xlink="http://www.w3.org/1999/xlink" x="0px" y="0px"
	 viewBox="0 0 16 16" enable-background="new 0 0 16 16" xml:space="preserve">
<path fill="#FFFFFF" d="M11.9,5.59L8.42,3.27c-0.23-0.15-0.6-0.15-0.83,0L4.1,5.59C3.87,5.75,3.69,6.1,3.69,6.37v0.44v1v0.44
	c0,0.28,0,0.72,0,1v0.44c0,0.28,0.19,0.62,0.42,0.78l3.48,2.32c0.23,0.15,0.6,0.15,0.83,0l3.48-2.32c0.23-0.15,0.42-0.5,0.42-0.78
	V9.25c0-0.28,0-0.72,0-1V7.81v-1V6.37C12.31,6.1,12.13,5.75,11.9,5.59z M11.47,7.81v0.44c0,0.27,0,0.71,0,0.99s-0.19,0.62-0.42,0.78
	l-2.64,1.76c-0.23,0.15-0.6,0.15-0.83,0l-2.64-1.76c-0.23-0.15-0.42-0.5-0.42-0.78c0-0.27,0-0.71,0-0.99V7.81V6.82
	c0-0.27,0.19-0.62,0.42-0.78l2.64-1.76c0.23-0.15,0.6-0.15,0.83,0l2.64,1.76c0.23,0.15,0.42,0.5,0.42,0.78V7.81z"/>
<path fill="#ED6B21" d="M13.17,4.47L8.83,1.58c-0.46-0.31-1.21-0.31-1.66,0L2.83,4.47C2.37,4.78,2,5.48,2,6.03s0,1.45,0,2v2
	c0,0.55,0.37,1.25,0.83,1.55l4.34,2.89c0.46,0.31,1.21,0.31,1.66,0l4.34-2.89c0.46-0.31,0.83-1,0.83-1.55v-2c0-0.55,0-1.45,0-2
	S13.63,4.78,13.17,4.47z M13.25,8.03v1.6c0,0.55-0.37,1.25-0.83,1.55l-3.59,2.39c-0.46,0.31-1.21,0.31-1.66,0l-3.59-2.39
	c-0.46-0.31-0.83-1-0.83-1.55v-1.6c0-0.48,0-1.14,0-1.6c0-0.55,0.37-1.25,0.83-1.55l3.59-2.39c0.46-0.31,1.21-0.31,1.66,0l3.59,2.39
	c0.46,0.31,0.83,1,0.83,1.55C13.25,6.89,13.25,7.55,13.25,8.03z"/>
</svg>
