<?xml version="1.0" encoding="utf-8"?>
<!-- Generator: Adobe Illustrator 23.0.3, SVG Export Plug-In . SVG Version: 6.00 Build 0)  -->
<svg version="1.0" id="Layer_1" xmlns="http://www.w3.org/2000/svg" xmlns:xlink="http://www.w3.org/1999/xlink" x="0px" y="0px"
	 viewBox="0 0 16 16" enable-background="new 0 0 16 16" xml:space="preserve">
<g id="support">
	<g>
		<path fill="#FFFFFF" d="M8.42,0.91c-0.23-0.15-0.6-0.15-0.83,0L3.11,3.89c-0.23,0.15-0.42,0.5-0.42,0.78v0.57c0,0.28,0,0.55,0,0.6
			s0,0.33,0,0.6V7.2c0,0.27,0,0.55,0,0.6s0,0.33,0,0.6v0.57c0,0.28,0.19,0.62,0.42,0.78l4.47,2.98c0.23,0.15,0.6,0.15,0.83,0
			l4.47-2.98c0.23-0.15,0.42-0.5,0.42-0.78V8.4c0-0.27,0-0.55,0-0.6s0-0.33,0-0.6V6.44c0-0.28,0-0.55,0-0.6s0-0.33,0-0.6V4.67
			c0-0.28-0.19-0.62-0.42-0.78L8.42,0.91z M12.42,5.24c0,0.28,0,0.55,0,0.6s0,0.33,0,0.6V7.2c0,0.27,0,0.55,0,0.6s0,0.33,0,0.6v0.09
			c0,0.28-0.19,0.62-0.42,0.78l-3.59,2.39c-0.23,0.15-0.6,0.15-0.83,0L3.99,9.27c-0.23-0.15-0.42-0.5-0.42-0.78V8.4
			c0-0.27,0-0.55,0-0.6s0-0.33,0-0.6V6.44c0-0.28,0-0.55,0-0.6s0-0.33,0-0.6v-0.1c0-0.27,0.19-0.62,0.42-0.78l3.59-2.39
			c0.23-0.15,0.6-0.15,0.83,0L12,4.36c0.23,0.15,0.42,0.5,0.42,0.78V5.24z"/>
	</g>
	<g>
		<g>
			<path fill="#ED6B21" d="M13,15.38c-0.21,0-0.38-0.17-0.38-0.38v-4c0-0.21,0.17-0.38,0.38-0.38s0.38,0.17,0.38,0.38v4
				C13.38,15.21,13.21,15.38,13,15.38z"/>
		</g>
		<g>
			
				<path fill="none" stroke="#ED6B21" stroke-width="0.75" stroke-linecap="round" stroke-linejoin="round" stroke-miterlimit="10" d="
				M12,11.49"/>
		</g>
		<g>
			
				<path fill="none" stroke="#ED6B21" stroke-width="0.75" stroke-linecap="round" stroke-linejoin="round" stroke-miterlimit="10" d="
				M12,15"/>
		</g>
		<g>
			<path fill="#ED6B21" d="M11,15.38c-0.21,0-0.38-0.17-0.38-0.38v-2.88c0-0.21,0.17-0.38,0.38-0.38s0.38,0.17,0.38,0.38V15
				C11.38,15.21,11.21,15.38,11,15.38z"/>
		</g>
		<g>
			
				<path fill="none" stroke="#ED6B21" stroke-width="0.75" stroke-linecap="round" stroke-linejoin="round" stroke-miterlimit="10" d="
				M10,12.79"/>
		</g>
		<g>
			
				<path fill="none" stroke="#ED6B21" stroke-width="0.75" stroke-linecap="round" stroke-linejoin="round" stroke-miterlimit="10" d="
				M10,15"/>
		</g>
		<g>
			<path fill="#ED6B21" d="M9,15.38c-0.21,0-0.38-0.17-0.38-0.38v-1.5c0-0.21,0.17-0.38,0.38-0.38s0.38,0.17,0.38,0.38V15
				C9.38,15.21,9.21,15.38,9,15.38z"/>
		</g>
	</g>
	<g>
		<g>
			<path fill="#ED6B21" d="M3,15.38c-0.21,0-0.38-0.17-0.38-0.38v-4c0-0.21,0.17-0.38,0.38-0.38S3.37,10.79,3.37,11v4
				C3.37,15.21,3.2,15.38,3,15.38z"/>
		</g>
		<g>
			
				<path fill="none" stroke="#ED6B21" stroke-width="0.75" stroke-linecap="round" stroke-linejoin="round" stroke-miterlimit="10" d="
				M4,11.49"/>
		</g>
		<g>
			
				<path fill="none" stroke="#ED6B21" stroke-width="0.75" stroke-linecap="round" stroke-linejoin="round" stroke-miterlimit="10" d="
				M4,15"/>
		</g>
		<g>
			<path fill="#ED6B21" d="M5,15.38c-0.21,0-0.38-0.17-0.38-0.38v-2.88c0-0.21,0.17-0.38,0.38-0.38s0.38,0.17,0.38,0.38V15
				C5.37,15.21,5.2,15.38,5,15.38z"/>
		</g>
		<g>
			
				<path fill="none" stroke="#ED6B21" stroke-width="0.75" stroke-linecap="round" stroke-linejoin="round" stroke-miterlimit="10" d="
				M6,12.79"/>
		</g>
		<g>
			
				<path fill="none" stroke="#ED6B21" stroke-width="0.75" stroke-linecap="round" stroke-linejoin="round" stroke-miterlimit="10" d="
				M6,15"/>
		</g>
		<g>
			<path fill="#ED6B21" d="M7,15.38c-0.21,0-0.38-0.17-0.38-0.38v-1.5c0-0.21,0.17-0.38,0.38-0.38s0.38,0.17,0.38,0.38V15
				C7.37,15.21,7.2,15.38,7,15.38z"/>
		</g>
	</g>
	<g>
		
			<path fill="none" stroke="#ED6B21" stroke-width="0.5" stroke-linecap="round" stroke-linejoin="round" stroke-miterlimit="10" d="
			M8,14"/>
	</g>
	<g>
		
			<path fill="none" stroke="#ED6B21" stroke-width="0.5" stroke-linecap="round" stroke-linejoin="round" stroke-miterlimit="10" d="
			M8,15"/>
	</g>
</g>
</svg>
