<?xml version="1.0" encoding="utf-8"?>
<!-- Generator: Adobe Illustrator 23.0.3, SVG Export Plug-In . SVG Version: 6.00 Build 0)  -->
<svg version="1.0" id="Layer_1" xmlns="http://www.w3.org/2000/svg" xmlns:xlink="http://www.w3.org/1999/xlink" x="0px" y="0px"
	 viewBox="0 0 16 16" enable-background="new 0 0 16 16" xml:space="preserve">
<g id="advanced_x2B_wrench">
	<path fill="#FFFFFF" d="M7.4,3.7C7.3,3.5,7.2,3.2,7.1,3l0.2-0.7L6.6,1.7L6,1.9C5.8,1.8,5.5,1.7,5.3,1.6L5,1H4L3.7,1.6
		C3.5,1.7,3.2,1.8,3,1.9L2.4,1.7L1.7,2.4L1.9,3C1.8,3.2,1.7,3.5,1.6,3.7L1,4v1l0.6,0.3C1.7,5.5,1.8,5.8,1.9,6L1.7,6.6l0.7,0.7L3,7.1
		c0.2,0.1,0.4,0.2,0.7,0.3L4,8h1l0.3-0.6C5.5,7.3,5.8,7.2,6,7.1l0.7,0.2l0.7-0.7L7.1,6c0.1-0.2,0.2-0.4,0.3-0.7L8,5V4L7.4,3.7z
		 M4.5,6.4c-1.1,0-1.9-0.9-1.9-1.9s0.9-1.9,1.9-1.9s1.9,0.9,1.9,1.9S5.6,6.4,4.5,6.4z"/>
	<path fill="#FFFFFF" d="M12.4,2.5c-0.1-0.2-0.1-0.3-0.2-0.5l0.1-0.5L11.8,1l-0.5,0.2C11.2,1.1,11.1,1,10.9,1l-0.2-0.4H10L9.8,1
		C9.6,1,9.4,1.1,9.3,1.2L8.8,1L8.3,1.5L8.5,2C8.4,2.2,8.3,2.3,8.3,2.5L7.8,2.7v0.7l0.4,0.2c0,0.2,0.1,0.3,0.2,0.5L8.3,4.6l0.5,0.5
		l0.5-0.2C9.4,5,9.6,5.1,9.8,5.1L10,5.6h0.7l0.2-0.4c0.2,0,0.3-0.1,0.5-0.2l0.5,0.2l0.5-0.5l-0.2-0.5c0.1-0.2,0.1-0.3,0.2-0.5
		l0.4-0.2V2.7L12.4,2.5z M10.3,4.2c-0.6,0-1.1-0.5-1.1-1.1S9.7,2,10.3,2s1.1,0.5,1.1,1.1S10.9,4.2,10.3,4.2z"/>
	<path fill="#ED6B21" d="M14.4,9.6L15,8.9l-0.5-1.3l-1-0.1C13.3,7.3,13,7,12.8,6.8l-0.1-1l-1.3-0.5l-0.7,0.6c-0.3,0-0.7,0-1,0
		L8.9,5.3L7.6,5.8l-0.1,1C7.3,7,7,7.3,6.8,7.5l-1,0.1L5.3,8.9l0.6,0.7c0,0.3,0,0.7,0,1l-0.6,0.7l0.5,1.3l1,0.1
		C7,13,7.3,13.3,7.5,13.5l0.1,1L8.9,15l0.7-0.6c0.3,0,0.7,0,1,0l0.7,0.6l1.3-0.5l0.1-1c0.3-0.2,0.5-0.5,0.7-0.7l1-0.1l0.5-1.3
		l-0.6-0.7C14.4,10.3,14.4,10,14.4,9.6z M10.2,13c-1.6,0-2.9-1.3-2.9-2.8c0-1.6,1.3-2.9,2.9-2.9S13,8.6,13,10.2
		C13,11.7,11.7,13,10.2,13z"/>
</g>
</svg>
