<svg xmlns="http://www.w3.org/2000/svg" width="100mm" height="200mm" viewBox="0 0 283.465 566.929"><path d="M182.7,191.52l11.544-13.144-20.724-9.4Z" style="fill:none;stroke:#e6e7e8;stroke-linecap:round;stroke-linejoin:round;stroke-width:1.39999997615814px"/><path d="M280.653,374.177V169.993l-80.868.3-44.974-20.31,70.68,171.779H197.24v2.652h29.343l3.143,7.63-29,11.208s.6,1.64.929,2.453l29.064-11.26,3.342,8.116L213.14,363.477l1.836,1.8,20.234-19.917h0l4.757,11.548,13.041,17.267Z" style="fill:none;stroke:#e6e7e8;stroke-linecap:round;stroke-linejoin:round;stroke-width:1.39999997615814px"/><path d="M270.263,397.018h10.39V379.071H256.706Z" style="fill:none;stroke:#e6e7e8;stroke-linecap:round;stroke-linejoin:round;stroke-width:1.39999997615814px"/><path d="M220.888,239.248a13.453,13.453,0,0,1,4.427-6.025l14.554,24.209-.106,20.371h0l-2.483-2.748h0a123.867,123.867,0,0,1-8.6-10.642h0a57.925,57.925,0,0,1-5.67-9.748,35.688,35.688,0,0,1-2.673-8.518A13.532,13.532,0,0,1,220.888,239.248Z" style="fill:none;stroke:#e6e7e8;stroke-linecap:round;stroke-linejoin:round;stroke-width:1.39999997615814px"/><g style="opacity:0.8"><path d="M9.046,558.145a4.578,4.578,0,0,1-1.053-3.223v-9.543a4.58,4.58,0,0,1,1.053-3.223,3.954,3.954,0,0,1,3.058-1.142,3.956,3.956,0,0,1,3.058,1.142,4.58,4.58,0,0,1,1.054,3.223v1.878h-2.64V545.2q0-1.649-1.4-1.649t-1.4,1.649v9.924q0,1.624,1.4,1.624t1.4-1.624v-2.716h2.64v2.513a4.579,4.579,0,0,1-1.054,3.223,3.956,3.956,0,0,1-3.058,1.142A3.954,3.954,0,0,1,9.046,558.145Z" style="fill:#ceff00"/><path d="M19.337,558.119a4.644,4.644,0,0,1-1.091-3.3v-9.339a4.645,4.645,0,0,1,1.091-3.3,4.094,4.094,0,0,1,3.147-1.168,4.1,4.1,0,0,1,3.147,1.168,4.65,4.65,0,0,1,1.091,3.3v9.339a4.648,4.648,0,0,1-1.091,3.3,4.094,4.094,0,0,1-3.147,1.168A4.091,4.091,0,0,1,19.337,558.119ZM23.93,555v-9.7q0-1.75-1.446-1.751T21.037,545.3V555q0,1.75,1.447,1.751T23.93,555Z" style="fill:#ceff00"/><path d="M29.108,541.268H33.22a4.065,4.065,0,0,1,3.121,1.117,4.64,4.64,0,0,1,1.041,3.273v1.751a4.642,4.642,0,0,1-1.041,3.275A4.068,4.068,0,0,1,33.22,551.8H31.9v7.233H29.108Zm4.112,7.994a1.312,1.312,0,0,0,1.027-.38,1.934,1.934,0,0,0,.343-1.295v-2.106a1.929,1.929,0,0,0-.343-1.294,1.312,1.312,0,0,0-1.027-.381H31.9v5.456Z" style="fill:#ceff00"/><path d="M41.847,551.47l-3.375-10.2h2.97l1.9,6.522h.05l1.9-6.522h2.715l-3.376,10.2v7.563H41.847Z" style="fill:#ceff00"/></g></svg>