<svg xmlns="http://www.w3.org/2000/svg" width="200mm" height="200mm" viewBox="0 0 566.929 566.929"><path d="M185.7,191.52l11.544-13.144-20.724-9.4Z" style="fill:none;stroke:#e6e7e8;stroke-linecap:round;stroke-linejoin:round;stroke-width:1.39999997615814px"/><path d="M283.653,374.177V169.993l-80.868.3-44.974-20.31,70.68,171.779H200.24v2.652h29.343l3.143,7.63-29,11.208s.6,1.64.929,2.453l29.064-11.26,3.342,8.116L216.14,363.477l1.836,1.8,20.234-19.917h0l4.757,11.548,13.041,17.267Z" style="fill:none;stroke:#e6e7e8;stroke-linecap:round;stroke-linejoin:round;stroke-width:1.39999997615814px"/><path d="M273.263,397.018h10.39V379.071H259.706Z" style="fill:none;stroke:#e6e7e8;stroke-linecap:round;stroke-linejoin:round;stroke-width:1.39999997615814px"/><path d="M223.888,239.248a13.453,13.453,0,0,1,4.427-6.025l14.554,24.209-.106,20.371h0l-2.483-2.748h0a123.867,123.867,0,0,1-8.6-10.642h0a57.925,57.925,0,0,1-5.67-9.748,35.688,35.688,0,0,1-2.673-8.518A13.532,13.532,0,0,1,223.888,239.248Z" style="fill:none;stroke:#e6e7e8;stroke-linecap:round;stroke-linejoin:round;stroke-width:1.39999997615814px"/></svg>