<svg xmlns="http://www.w3.org/2000/svg" width="85mm" height="200mm" viewBox="0 0 240.945 566.929"><path d="M139.7,191.52l11.544-13.144-20.724-9.4Z" style="fill:none;stroke:#e6e7e8;stroke-linecap:round;stroke-linejoin:round;stroke-width:1.39999997615814px"/><path d="M237.653,374.177V169.993l-80.868.3-44.974-20.31,70.68,171.779H154.24v2.652h29.343l3.143,7.63-29,11.208s.6,1.64.929,2.453l29.064-11.26,3.342,8.116L170.14,363.477l1.836,1.8,20.234-19.917h0l4.757,11.548,13.041,17.267Z" style="fill:none;stroke:#e6e7e8;stroke-linecap:round;stroke-linejoin:round;stroke-width:1.39999997615814px"/><path d="M227.263,397.018h10.39V379.071H213.706Z" style="fill:none;stroke:#e6e7e8;stroke-linecap:round;stroke-linejoin:round;stroke-width:1.39999997615814px"/><path d="M177.888,239.248a13.453,13.453,0,0,1,4.427-6.025l14.554,24.209-.106,20.371h0l-2.483-2.748h0a123.867,123.867,0,0,1-8.6-10.642h0a57.925,57.925,0,0,1-5.67-9.748,35.688,35.688,0,0,1-2.673-8.518A13.532,13.532,0,0,1,177.888,239.248Z" style="fill:none;stroke:#e6e7e8;stroke-linecap:round;stroke-linejoin:round;stroke-width:1.39999997615814px"/><g style="opacity:0.8"><path d="M8.17,541.268h3.985l1.776,12.715h.051l1.776-12.715h3.984v17.765H17.1V545.582h-.051l-2.03,13.451H12.687l-2.03-13.451h-.051v13.451H8.17Z" style="fill:#ceff00"/><path d="M22.331,541.268h2.791v17.765H22.331Z" style="fill:#ceff00"/><path d="M27.712,541.268h4.137a4.266,4.266,0,0,1,3.146,1,4.228,4.228,0,0,1,.991,3.083v1.091q0,2.766-1.827,3.5V550a2.181,2.181,0,0,1,1.433,1.244,6.261,6.261,0,0,1,.419,2.512v3.122a11.876,11.876,0,0,0,.051,1.231,3.04,3.04,0,0,0,.254.926H33.473a4.032,4.032,0,0,1-.2-.812,12.15,12.15,0,0,1-.051-1.37V553.6a2.751,2.751,0,0,0-.394-1.7,1.66,1.66,0,0,0-1.357-.483H30.5v7.614H27.712Zm3.807,7.614a1.675,1.675,0,0,0,1.256-.432A2.039,2.039,0,0,0,33.194,547v-1.37a2.261,2.261,0,0,0-.343-1.4,1.293,1.293,0,0,0-1.078-.431H30.5v5.076Z" style="fill:#ceff00"/><path d="M38.448,541.268h4.136a4.267,4.267,0,0,1,3.147,1,4.232,4.232,0,0,1,.99,3.083v1.091q0,2.766-1.827,3.5V550a2.179,2.179,0,0,1,1.433,1.244,6.244,6.244,0,0,1,.419,2.512v3.122a11.876,11.876,0,0,0,.051,1.231,3.04,3.04,0,0,0,.254.926H44.208a4.1,4.1,0,0,1-.2-.812,12.15,12.15,0,0,1-.051-1.37V553.6a2.752,2.752,0,0,0-.393-1.7,1.664,1.664,0,0,0-1.358-.483h-.964v7.614H38.448Zm3.806,7.614a1.672,1.672,0,0,0,1.256-.432A2.039,2.039,0,0,0,43.929,547v-1.37a2.254,2.254,0,0,0-.343-1.4,1.292,1.292,0,0,0-1.078-.431H41.239v5.076Z" style="fill:#ceff00"/><path d="M50.071,558.119a4.644,4.644,0,0,1-1.091-3.3v-9.339a4.645,4.645,0,0,1,1.091-3.3,4.094,4.094,0,0,1,3.147-1.168,4.1,4.1,0,0,1,3.147,1.168,4.65,4.65,0,0,1,1.091,3.3v9.339a4.648,4.648,0,0,1-1.091,3.3,4.094,4.094,0,0,1-3.147,1.168A4.091,4.091,0,0,1,50.071,558.119ZM54.664,555v-9.7q0-1.75-1.446-1.751T51.771,545.3V555q0,1.75,1.447,1.751T54.664,555Z" style="fill:#ceff00"/><path d="M59.842,541.268h4.137a3.571,3.571,0,0,1,4.137,4.086v1.091q0,2.766-1.828,3.5V550a2.181,2.181,0,0,1,1.434,1.244,6.261,6.261,0,0,1,.419,2.512v3.122a11.876,11.876,0,0,0,.051,1.231,3.04,3.04,0,0,0,.254.926H65.6a4.032,4.032,0,0,1-.2-.812,12.15,12.15,0,0,1-.051-1.37V553.6a2.751,2.751,0,0,0-.394-1.7,1.66,1.66,0,0,0-1.357-.483h-.965v7.614H59.842Zm3.807,7.614a1.675,1.675,0,0,0,1.256-.432A2.039,2.039,0,0,0,65.324,547v-1.37a2.261,2.261,0,0,0-.343-1.4,1.293,1.293,0,0,0-1.078-.431h-1.27v5.076Z" style="fill:#ceff00"/></g></svg>