<svg xmlns="http://www.w3.org/2000/svg" width="16" height="16" viewBox="0 0 16 16"><path d="M6.5,14.5a1,1,0,0,1-1-1v-9h-4a1,1,0,0,1-1-1v-2a1,1,0,0,1,1-1h12a1,1,0,0,1,1,1v2a1,1,0,0,1-1,1h-4v2" style="fill:none;stroke:#949494;stroke-linecap:round;stroke-linejoin:round"/><line x1="8.5" y1="8.5" x2="14.5" y2="14.5" style="fill:none;stroke:#009688;stroke-linejoin:round"/><line x1="14.5" y1="8.5" x2="8.5" y2="14.5" style="fill:none;stroke:#009688;stroke-linejoin:round"/><line x1="11.5" y1="8.5" x2="11.5" y2="14.5" style="fill:none;stroke:#009688;stroke-linecap:square;stroke-linejoin:round"/><line x1="14.5" y1="11.5" x2="8.5" y2="11.5" style="fill:none;stroke:#009688;stroke-linecap:square;stroke-linejoin:round"/></svg>