<svg width="30" height="30" xmlns="http://www.w3.org/2000/svg" fill="none">
 <defs>
  <clipPath id="clip0_7112_29417">
   <rect id="svg_1" fill="white" height="30" width="30"/>
  </clipPath>
 </defs>
 <g>
  <title>Layer 1</title>
  <g id="svg_2" clip-path="url(#clip0_7112_29417)">
   <path id="svg_3" stroke="black" d="m31.1539,-1.15234l-32.30771,0l0,32.30764l32.30771,0l0,-32.30764z"/>
   <path id="svg_4" fill="#6B6B6B" d="m20.8872,8.52665c-1.174,-1.06775 -2.6186,-1.79796 -4.1801,-2.10858c-1.6974,-0.33762 -3.4567,-0.16434 -5.0556,0.49793c-1.5989,0.66227 -2.96544,1.78379 -3.92691,3.2227c-0.96147,1.439 -1.47465,3.1307 -1.47465,4.8613c0,1.7306 0.51318,3.4223 1.47465,4.8613c0.96147,1.4389 2.32801,2.5604 3.92691,3.2227c1.5989,0.6623 3.3582,0.8356 5.0556,0.4979c1.6973,-0.3376 3.2564,-1.1709 4.4801,-2.3947l0.5303,0.5303l0.5304,0.5304l0.5303,0.5303c-0.3562,0.3562 -0.735,0.6861 -1.1333,0.988c-1.3221,1.0021 -2.8592,1.6963 -4.4989,2.0224c-2.1338,0.4245 -4.3455,0.2066 -6.3555,-0.6259c-2.01001,-0.8326 -3.72797,-2.2425 -4.93667,-4.0514c-1.20869,-1.809 -1.85383,-3.9357 -1.85383,-6.1113c0,-2.1756 0.64514,-4.3023 1.85383,-6.11127c1.2087,-1.80894 2.92666,-3.21884 4.93667,-4.0514c2.01,-0.83256 4.2217,-1.0504 6.3555,-0.62596c1.6397,0.32616 3.1768,1.02035 4.4989,2.02245c0.2889,0.21899 0.5675,0.45269 0.8347,0.70047l1.7503,-1.75035c0.1549,-0.15486 0.4201,-0.06025 0.4418,0.15768l0.5618,5.60788c0.0164,0.1632 -0.121,0.3006 -0.2842,0.2842l-5.608,-0.5617c-0.2178,-0.0218 -0.3124,-0.287 -0.1576,-0.4419l1.7035,-1.70345z" clip-rule="evenodd" fill-rule="evenodd"/>
  </g>
 </g>
</svg>