<svg xmlns="http://www.w3.org/2000/svg" width="64" height="74" viewBox="0 0 64 74"><line x1="23" y1="39" x2="23" y2="63" style="fill:none;stroke:#949494;stroke-linecap:round;stroke-width:2px;opacity:0.5"/><path d="M1,47c0-2.886,4.629-12,6-12s6,9.526,6,12a6,6,0,0,1-6,6A5.767,5.767,0,0,1,1,47Z" style="fill:none;stroke:#949494;stroke-linecap:round;stroke-width:2px"/><path d="M5,45c0,2,0,4,2,4" style="fill:none;stroke:#949494;stroke-linecap:round;stroke-width:2px"/><path d="M45,69H39" style="fill:none;stroke:#009688;stroke-linecap:square;stroke-miterlimit:10;stroke-width:2px"/><path d="M45,61H39" style="fill:none;stroke:#009688;stroke-linecap:square;stroke-miterlimit:10;stroke-width:2px"/><path d="M45,53H39" style="fill:none;stroke:#009688;stroke-linecap:square;stroke-miterlimit:10;stroke-width:2px"/><path d="M45,45H39" style="fill:none;stroke:#009688;stroke-linecap:square;stroke-miterlimit:10;stroke-width:2px"/><path d="M45,37H39" style="fill:none;stroke:#949494;stroke-linecap:square;stroke-width:2px"/><path d="M27,53.844V37a4,4,0,0,0-4-4h0a4,4,0,0,0-4,4V53.844a10,10,0,1,0,8,0Z" style="fill:none;stroke:#949494;stroke-linecap:round;stroke-width:2px"/><line x1="23" y1="55" x2="23" y2="63" style="fill:none;stroke:#009688;stroke-linecap:round;stroke-miterlimit:10;stroke-width:2px"/><circle cx="23" cy="63" r="5" style="fill:#009688"/><polyline points="1.5 27.5 1.5 23.5 33.5 23.5 33.5 27.5" style="fill:none;stroke:#009688;stroke-linecap:square;stroke-linejoin:round"/><polyline points="36.5 27.5 36.5 23.5 47.5 23.5 47.5 27.5" style="fill:none;stroke:#009688;stroke-linecap:square;stroke-linejoin:round"/><polyline points="61.5 7.5 17.5 7.5 17.5 19.5" style="fill:none;stroke:#949494;stroke-linecap:round"/><polyline points="61.5 49.5 55.5 49.5 55.5 17.5 41.5 17.5 41.5 19.5" style="fill:none;stroke:#949494;stroke-linecap:round"/></svg>