<svg width="30" height="30" xmlns="http://www.w3.org/2000/svg" fill="none">
 <defs>
  <clipPath id="clip0_7112_29427">
   <rect id="svg_1" fill="white" height="30" width="30"/>
  </clipPath>
 </defs>
 <g>
  <title>Layer 1</title>
  <g id="svg_2" clip-path="url(#clip0_7112_29427)">
   <path id="svg_3" stroke="black" d="m31.1539,-1.15234l-32.30771,0l0,32.30764l32.30771,0l0,-32.30764z"/>
   <path id="svg_4" fill="#6B6B6B" d="m11.4427,4.81286c0.0164,-0.16327 -0.121,-0.30059 -0.2842,-0.28418l-5.60789,0.56172c-0.21793,0.02178 -0.31254,0.28695 -0.15769,0.4418l1.75906,1.75906c-0.32956,0.33556 -0.63606,0.69067 -0.91816,1.06283c-1.0021,1.32201 -1.69629,2.85911 -2.02245,4.49891c-0.42444,2.1337 -0.2066,4.3455 0.62596,6.3555c0.83256,2.01 2.24246,3.7279 4.0514,4.9366c1.80897,1.2087 3.93567,1.8539 6.11127,1.8539c2.1756,0 4.3023,-0.6452 6.1113,-1.8539c1.8089,-1.2087 3.2188,-2.9266 4.0514,-4.9366c0.8325,-2.01 1.0504,-4.2218 0.6259,-6.3555c-0.3261,-1.6398 -1.0203,-3.1769 -2.0224,-4.49891c-0.3019,-0.39833 -0.6318,-0.77712 -0.988,-1.13331l-0.5303,0.53028l-0.5304,0.53038l-0.5303,0.53028c1.2238,1.22368 2.0571,2.78288 2.3947,4.48018c0.3377,1.6973 0.1644,3.4567 -0.4979,5.0556c-0.6623,1.5988 -1.7838,2.9654 -3.2227,3.9269c-1.439,0.9614 -3.1307,1.4746 -4.8613,1.4746c-1.7306,0 -3.4223,-0.5132 -4.8613,-1.4746c-1.43891,-0.9615 -2.56043,-2.3281 -3.2227,-3.9269c-0.66227,-1.5989 -0.83555,-3.3583 -0.49793,-5.0556c0.33117,-1.6649 1.1393,-3.1968 2.32494,-4.40961l1.69609,1.69611c0.1549,0.1549 0.42,0.0602 0.4419,-0.1576l0.5617,-5.60794z" clip-rule="evenodd" fill-rule="evenodd"/>
  </g>
 </g>
</svg>