<svg width="30" height="30" xmlns="http://www.w3.org/2000/svg" fill="none">
 <defs>
  <clipPath id="clip0_7112_29432">
   <rect id="svg_1" fill="white" height="30" width="30"/>
  </clipPath>
 </defs>
 <g>
  <title>Layer 1</title>
  <g id="svg_2" clip-path="url(#clip0_7112_29432)">
   <path id="svg_3" stroke="black" d="m31.1539,-1.15234l-32.30771,0l0,32.30764l32.30771,0l0,-32.30764z"/>
   <path id="svg_4" fill="#6B6B6B" d="m7.72445,19.8613c-0.96147,-1.439 -1.47465,-3.1307 -1.47465,-4.8613l2.55489,0c0.219,0 0.3396,-0.2544 0.201,-0.4239l-3.5682,-4.3626c-0.1039,-0.127 -0.2981,-0.127 -0.4019,0l-3.5682,4.3626c-0.1387,0.1695 -0.0181,0.4239 0.2009,0.4239l2.33157,0c0,0.5037 0.03459,1.0048 0.10275,1.5c0.22621,1.6434 0.82225,3.2212 1.75109,4.6113c1.20869,1.8089 2.92666,3.2188 4.9366,4.0514c2.01,0.8325 4.2218,1.0504 6.3556,0.6259c2.1337,-0.4244 4.0938,-1.472 5.6321,-3.0104c1.5384,-1.5384 2.5861,-3.4984 3.0105,-5.6322c0.4244,-2.1338 0.2066,-4.3455 -0.626,-6.3555c-0.8325,-2.01001 -2.2424,-3.72797 -4.0514,-4.93667c-1.3901,-0.92883 -2.9678,-1.52487 -4.6112,-1.75109c-0.4952,-0.06815 -0.9963,-0.10274 -1.5,-0.10274l0,0.74993l0,0.75007l0,0.74993c1.7306,0 3.4223,0.51319 4.8612,1.47466c1.439,0.96147 2.5605,2.32801 3.2228,3.92691c0.6622,1.5989 0.8355,3.3582 0.4979,5.0556c-0.3376,1.6973 -1.171,3.2564 -2.3947,4.4801c-1.2237,1.2237 -2.7828,2.0571 -4.4802,2.3947c-1.6973,0.3377 -3.4567,0.1644 -5.0555,-0.4979c-1.5989,-0.6623 -2.96548,-1.7838 -3.92695,-3.2227z" clip-rule="evenodd" fill-rule="evenodd"/>
  </g>
 </g>
</svg>