<svg width="30" height="30" xmlns="http://www.w3.org/2000/svg" fill="none">
 <defs>
  <clipPath id="clip0_7112_29465">
   <rect id="svg_1" fill="white" height="30" width="30"/>
  </clipPath>
 </defs>
 <g>
  <title>Layer 1</title>
  <g id="svg_2" clip-path="url(#clip0_7112_29465)">
   <path id="svg_3" stroke="black" d="m31.1539,-1.15234l-32.30771,0l0,32.30764l32.30771,0l0,-32.30764z"/>
   <path id="svg_4" fill="#6B6B6B" d="m19.8613,22.2754c-1.439,0.9615 -3.1307,1.4747 -4.8613,1.4747l0,-2.3962c0,-0.219 -0.2544,-0.3396 -0.4239,-0.201l-4.3626,3.5682c-0.127,0.1039 -0.127,0.2981 0,0.4019l4.3626,3.5682c0.1695,0.1387 0.4239,0.0181 0.4239,-0.2009l0,-2.4903c0.5037,0 1.0048,-0.0346 1.5,-0.1027c1.6434,-0.2263 3.2212,-0.8223 4.6113,-1.7511c1.8089,-1.2087 3.2188,-2.9267 4.0514,-4.9367c0.8325,-2.01 1.0504,-4.2217 0.6259,-6.3555c-0.4244,-2.1338 -1.472,-4.09379 -3.0104,-5.63217c-1.5384,-1.53838 -3.4984,-2.58603 -5.6322,-3.01046c-2.1338,-0.42444 -4.3455,-0.2066 -6.3555,0.62596c-2.01001,0.83256 -3.72797,2.24246 -4.93667,4.0514c-0.92883,1.39007 -1.52487,2.96787 -1.75109,4.61127c-0.06815,0.4952 -0.10274,0.9963 -0.10274,1.5l0.74993,0l0.75007,0l0.74993,0c0,-1.7306 0.51319,-3.4223 1.47466,-4.8613c0.96147,-1.43891 2.32801,-2.56043 3.92691,-3.2227c1.5989,-0.66227 3.3582,-0.83555 5.0556,-0.49793c1.6973,0.33762 3.2564,1.17099 4.4801,2.39471c1.2237,1.22372 2.0571,2.78282 2.3947,4.48022c0.3377,1.6973 0.1644,3.4566 -0.4979,5.0555c-0.6623,1.5989 -1.7838,2.9654 -3.2227,3.9269z" clip-rule="evenodd" fill-rule="evenodd"/>
  </g>
 </g>
</svg>