<svg width="30" height="30" xmlns="http://www.w3.org/2000/svg" fill="none">
 <defs>
  <clipPath id="clip0_7112_29422">
   <rect id="svg_1" fill="white" height="30" width="30"/>
  </clipPath>
 </defs>
 <g>
  <title>Layer 1</title>
  <g id="svg_2" clip-path="url(#clip0_7112_29422)">
   <path id="svg_3" stroke="black" d="m31.1539,-1.15234l-32.30771,0l0,32.30764l32.30771,0l0,-32.30764z"/>
   <path id="svg_4" fill="#6B6B6B" d="m19.7865,5.34178c0.127,-0.1039 0.127,-0.2981 0,-0.4019l-4.3626,-3.5682c-0.1695,-0.1387 -0.4239,-0.0181 -0.4239,0.2009l0,2.42777c-0.5037,0 -1.0048,0.03459 -1.5,0.10275c-1.6434,0.22621 -3.2212,0.82225 -4.61127,1.75109c-1.80894,1.20869 -3.21884,2.92666 -4.0514,4.93661c-0.83256,2.01 -1.0504,4.2218 -0.62596,6.3555c0.42443,2.1338 1.47208,4.0938 3.01046,5.6322c1.53838,1.5384 3.49837,2.5861 5.63217,3.0105c2.1338,0.4244 4.3455,0.2066 6.3555,-0.626c2.01,-0.8325 3.728,-2.2424 4.9367,-4.0514c0.9288,-1.3901 1.5248,-2.9679 1.7511,-4.6113c0.0681,-0.4951 0.1027,-0.9962 0.1027,-1.5l-0.7499,0l-0.7501,0l-0.7499,0c0,1.7306 -0.5132,3.4224 -1.4747,4.8613c-0.9615,1.439 -2.328,2.5605 -3.9269,3.2228c-1.5989,0.6622 -3.3582,0.8355 -5.0555,0.4979c-1.6974,-0.3376 -3.2565,-1.171 -4.48022,-2.3947c-1.22372,-1.2237 -2.05709,-2.7828 -2.39471,-4.4802c-0.33762,-1.6973 -0.16434,-3.4567 0.49793,-5.0556c0.66227,-1.5988 1.78379,-2.96539 3.2227,-3.92686c1.439,-0.96147 3.1307,-1.47465 4.8613,-1.47465l0,2.45869c0,0.219 0.2544,0.3396 0.4239,0.201l4.3626,-3.5682z" clip-rule="evenodd" fill-rule="evenodd"/>
  </g>
 </g>
</svg>