<svg width="417" height="36" viewBox="0 0 417 36" fill="none" xmlns="http://www.w3.org/2000/svg">
<path d="M416 5.53497H0V6.52497H416V5.53497Z" fill="#CFD2D3"/>
<path d="M329.47 16.825H332.41V16.115H328.91C328.56 16.115 328.27 16.405 328.27 16.745V20.515C328.27 20.865 328.56 21.155 328.91 21.155H331.94C332.29 21.155 332.58 20.865 332.58 20.515V18.155H330.49V18.865H331.56V20.265C331.56 20.365 331.48 20.445 331.38 20.445H329.46C329.36 20.445 329.28 20.365 329.28 20.265V17.005C329.28 16.905 329.36 16.825 329.46 16.825H329.47Z" fill="#CFD2D3"/>
<path d="M336.72 20.4449H334.74C334.64 20.4449 334.56 20.3649 334.56 20.2649V16.1949H333.54V20.5149C333.54 20.8649 333.83 21.1649 334.18 21.1649H336.72V20.4449Z" fill="#CFD2D3"/>
<path d="M341.38 20.275C341.38 20.375 341.3 20.455 341.2 20.455H338.91C338.81 20.455 338.73 20.375 338.73 20.275V16.205H337.7V20.525C337.7 20.885 337.99 21.175 338.35 21.175H341.78C342.14 21.175 342.43 20.885 342.43 20.525V16.205H341.4V20.275H341.38Z" fill="#CFD2D3"/>
<path d="M343.37 21.165H347.17V20.445H344.39V19.145C344.39 19.045 344.48 18.965 344.57 18.965H347.17V18.245H344.39V17.105C344.39 17.005 344.48 16.915 344.57 16.915H347.17V16.205H343.37V21.175V21.165Z" fill="#CFD2D3"/>
<path d="M351.92 16.9049H355.24V16.1949H351.35C350.99 16.1949 350.7 16.4849 350.7 16.8349V18.4849C350.7 18.8349 350.99 19.1149 351.33 19.1249H354.2C354.3 19.1249 354.4 19.2149 354.4 19.3149V20.2349C354.4 20.3449 354.3 20.4449 354.21 20.4449H350.87V21.1649H354.78C355.13 21.1649 355.42 20.8749 355.42 20.5149V19.0549C355.42 18.7049 355.13 18.4049 354.78 18.4049H351.93C351.83 18.4049 351.75 18.3249 351.75 18.2249V17.1049C351.75 17.0049 351.83 16.9149 351.93 16.9149L351.92 16.9049Z" fill="#CFD2D3"/>
<path d="M359.09 21.1649V16.9049H360.78V16.1949H356.38V16.9049H358.06V21.1649H359.09Z" fill="#CFD2D3"/>
<path d="M362.76 16.1949H361.74V21.1649H362.76V16.1949Z" fill="#CFD2D3"/>
<path d="M367.5 20.4349H364.92C364.82 20.4349 364.74 20.3549 364.74 20.2549V17.0949C364.74 16.9949 364.82 16.9149 364.92 16.9149H367.5V16.1949H364.35C364 16.1949 363.71 16.4849 363.71 16.8349V20.5149C363.71 20.8649 364 21.1649 364.35 21.1649H367.5V20.4349Z" fill="#CFD2D3"/>
<path d="M371.83 18.5649L372.82 16.1949H371.77L370.98 18.2149H369.48V16.1949H368.46V21.1649H369.48V18.9249H370.98L371.86 21.1649H372.91L371.83 18.5649Z" fill="#CFD2D3"/>
<path d="M376.45 16.8349V20.5149C376.45 20.8649 376.74 21.1649 377.09 21.1649H380.24V20.4349H377.66C377.56 20.4349 377.48 20.3549 377.48 20.2549V17.0949C377.48 16.9949 377.56 16.9149 377.66 16.9149H380.24V16.1949H377.09C376.74 16.1949 376.45 16.4849 376.45 16.8349Z" fill="#CFD2D3"/>
<path d="M385.27 16.1949H381.84C381.49 16.1949 381.2 16.4849 381.2 16.8349V21.1649H382.22V19.2049H384.89V21.1649H385.91V16.8349C385.91 16.4849 385.62 16.1949 385.27 16.1949ZM384.89 18.4849H382.22V17.1049C382.22 17.0049 382.3 16.9149 382.4 16.9149H384.7C384.8 16.9149 384.88 17.0049 384.88 17.1049V18.4849H384.89Z" fill="#CFD2D3"/>
<path d="M387.87 17.3649L390.45 21.1649H391.56V16.1949H390.56V19.9749L387.98 16.1949H386.87V21.1649H387.87V17.3649Z" fill="#CFD2D3"/>
<path d="M395.1 16.1949V21.1649H396.12V18.9649H398.34V21.1649H399.36V16.1949H398.34V18.2549H396.12V16.1949H395.1Z" fill="#CFD2D3"/>
<path d="M401.53 16.9049H404.13V16.1949H400.33V21.1649H404.13V20.4449H401.35V19.1449C401.35 19.0449 401.44 18.9649 401.53 18.9649H404.13V18.2449H401.35V17.1049C401.35 17.0049 401.44 16.9149 401.53 16.9149V16.9049Z" fill="#CFD2D3"/>
<path d="M406.11 20.255V16.185H405.09V20.505C405.09 20.855 405.38 21.155 405.73 21.155H408.27V20.435H406.29C406.19 20.435 406.11 20.355 406.11 20.255Z" fill="#CFD2D3"/>
<path d="M413.3 16.1949H409.23V21.1649H410.25V19.5549H413.29C413.64 19.5549 413.93 19.2649 413.93 18.9149V16.8349C413.93 16.4849 413.64 16.1949 413.29 16.1949H413.3ZM412.92 18.6549C412.92 18.7549 412.84 18.8349 412.74 18.8349H410.26V16.9049H412.73C412.83 16.9049 412.92 16.9849 412.92 17.0849V18.6549Z" fill="#CFD2D3"/>
<path d="M416.07 20.365H415.04V21.155H416.07V20.365Z" fill="#CFD2D3"/>
<path d="M318.14 29.235H311.31L321.11 19.435C321.82 18.725 321.82 17.565 321.11 16.855L316.06 11.805C315.37 11.115 314.17 11.115 313.48 11.805L301.54 23.745C301.19 24.085 301 24.545 301 25.035C301 25.525 301.19 25.985 301.54 26.325L305.58 30.365H306.44H310.17H318.14C318.45 30.365 318.71 30.115 318.71 29.795C318.71 29.475 318.46 29.225 318.14 29.225V29.235ZM314.28 12.605C314.54 12.345 314.99 12.345 315.26 12.605L320.31 17.655C320.58 17.925 320.58 18.365 320.31 18.635L312.69 26.255L306.66 20.225L314.28 12.605ZM309.7 29.235H306.44H306.05L302.34 25.525C302.21 25.395 302.14 25.225 302.14 25.035C302.14 24.845 302.21 24.675 302.34 24.545L305.86 21.025L311.89 27.055L309.71 29.235H309.7Z" fill="#CFD2D3"/>
<path d="M322.18 29.235H320.42C320.11 29.235 319.85 29.485 319.85 29.805C319.85 30.115 320.1 30.375 320.42 30.375H322.18C322.49 30.375 322.75 30.125 322.75 29.805C322.75 29.495 322.5 29.235 322.18 29.235Z" fill="#CFD2D3"/>
<path d="M330.53 25.5649C330.53 25.5649 330.55 25.4849 330.57 25.4449C330.63 25.2849 330.69 25.1049 330.75 24.9049H333.82V24.2949H330.93C330.97 24.1649 331.03 23.9249 331.11 23.5849L330.45 23.5049C330.42 23.6449 330.35 23.9149 330.24 24.2949H328.34V24.9049H330.05C329.99 25.0749 329.91 25.3349 329.78 25.6649H327.97V26.2749H329.54C329.41 26.5749 329.29 26.8449 329.16 27.0949V27.6249H332.55C332.17 28.0149 331.76 28.3949 331.32 28.7449C330.33 28.3949 329.56 28.1349 329 27.9649L328.8 28.5549C329.38 28.7349 330.08 28.9749 330.91 29.2749C331.74 29.5749 332.45 29.8349 333.03 30.0649L333.28 29.4549C332.95 29.3249 332.53 29.1749 332.02 28.9949C332.58 28.5049 333.06 28.0549 333.46 27.6249V27.0149H329.95C330.03 26.8349 330.14 26.5949 330.27 26.2849H334.19V25.6749H330.5C330.5 25.6749 330.53 25.6049 330.54 25.5749L330.53 25.5649Z" fill="#CFD2D3"/>
<path d="M335.88 26.765C335.88 27.305 335.86 27.715 335.83 28.005C335.8 28.295 335.74 28.565 335.66 28.795C335.58 29.035 335.44 29.335 335.25 29.695L335.85 30.025C336.06 29.635 336.22 29.275 336.32 28.955C336.42 28.635 336.49 28.285 336.52 27.905H338.19V29.795H338.83V27.905H340.48V28.815C340.48 28.985 340.46 29.105 340.41 29.165C340.36 29.225 340.27 29.255 340.12 29.255C339.92 29.255 339.68 29.225 339.38 29.185L339.49 29.855C339.77 29.885 340.01 29.895 340.2 29.895C340.44 29.895 340.62 29.875 340.75 29.825C340.88 29.775 340.97 29.695 341.03 29.575C341.09 29.455 341.12 29.275 341.12 29.045V23.875H335.87V26.765H335.88ZM338.83 24.515H340.48V25.595H338.83V24.515ZM338.83 26.245H340.48V27.275H338.83V26.245ZM336.56 24.515H338.19V25.595H336.56V24.515ZM336.56 27.005V26.245H338.19V27.275H336.56V27.005Z" fill="#CFD2D3"/>
<path d="M348.23 26.7149L347.65 26.5049C347.47 27.0549 347.26 27.4949 347.03 27.8349C346.81 27.5149 346.59 27.0749 346.39 26.5149L345.82 26.7249C346.05 27.3649 346.32 27.9049 346.63 28.3249C346.25 28.7349 345.72 29.1049 345.05 29.4249L345.43 30.0049C346.09 29.6549 346.63 29.2549 347.04 28.8049C347.46 29.2449 348 29.6249 348.66 29.9449L349.02 29.3449C348.35 29.0549 347.82 28.7149 347.44 28.3249C347.75 27.8849 348.02 27.3449 348.23 26.7049V26.7149Z" fill="#CFD2D3"/>
<path d="M345.52 27.035C345.95 26.565 346.36 26.0249 346.74 25.4249L346.21 25.075C345.82 25.695 345.44 26.205 345.06 26.625L345.52 27.035Z" fill="#CFD2D3"/>
<path d="M342.98 26.595C342.98 27.225 342.97 27.725 342.94 28.075C342.91 28.425 342.86 28.725 342.79 28.965C342.72 29.205 342.6 29.465 342.45 29.745L343.02 30.015C343.19 29.705 343.31 29.385 343.39 29.045C343.47 28.705 343.52 28.285 343.55 27.785H344.35V28.945C344.35 29.075 344.34 29.165 344.31 29.225C344.28 29.285 344.23 29.305 344.15 29.305C343.97 29.305 343.81 29.295 343.67 29.265L343.8 29.885C344.01 29.905 344.17 29.915 344.27 29.915C344.53 29.915 344.7 29.865 344.81 29.765C344.91 29.665 344.96 29.475 344.96 29.215V23.925H343V26.595H342.98ZM343.57 24.555H344.35V25.595H343.57V24.555ZM343.57 26.865V26.205H344.35V27.175H343.57V26.865Z" fill="#CFD2D3"/>
<path d="M347.34 25.435C347.68 25.835 348.09 26.335 348.56 26.945L349.04 26.525C348.66 26.035 348.25 25.545 347.8 25.055L347.34 25.435Z" fill="#CFD2D3"/>
<path d="M348.81 24.405H347.42C347.28 23.985 347.17 23.675 347.08 23.475L346.46 23.625C346.58 23.875 346.69 24.135 346.8 24.405H345.3V25.035H348.81V24.405Z" fill="#CFD2D3"/>
<path d="M355.18 26.645H356.24V26.125H353.85C353.89 26.035 353.94 25.885 354 25.695H355.88V25.175H354.13C354.15 25.075 354.18 24.925 354.22 24.715H356.05V24.195H354.29L354.37 23.575L353.76 23.555C353.74 23.785 353.71 24.005 353.69 24.195H352.21V24.715H353.61L353.51 25.175H352.31V25.695H353.35C353.31 25.835 353.25 25.985 353.18 26.125H352.08V26.645H352.89C352.59 27.105 352.17 27.535 351.62 27.945L351.97 28.425C352.32 28.165 352.62 27.895 352.87 27.625V28.025H353.77V28.525H352.23V29.055H353.77V29.965H354.35V29.055H355.9V28.525H354.35V28.025H355.24V27.645C355.52 27.955 355.82 28.215 356.15 28.415L356.47 27.895C356.19 27.745 355.94 27.565 355.73 27.355C355.52 27.145 355.33 26.915 355.15 26.645H355.18ZM354.38 27.505V26.915H353.8V27.505H353C353.24 27.235 353.44 26.945 353.6 26.645H354.56C354.74 26.965 354.93 27.255 355.14 27.505H354.37H354.38Z" fill="#CFD2D3"/>
<path d="M351.89 27.365L352.21 26.825C351.87 26.425 351.59 26.105 351.37 25.855V25.425H352.09V24.835H351.37V23.565H350.8V24.835H350.01V25.425H350.76C350.64 25.835 350.5 26.255 350.33 26.675C350.16 27.095 349.99 27.455 349.82 27.745L350.15 28.415C350.39 27.995 350.61 27.515 350.81 26.975V29.915H351.38V26.685C351.57 26.925 351.7 27.105 351.79 27.235L351.9 27.385L351.89 27.365Z" fill="#CFD2D3"/>
<path d="M360.99 25.495H358.06V28.345H360.99V25.495ZM360.36 27.725H358.69V26.115H360.36V27.725Z" fill="#CFD2D3"/>
<path d="M357.32 24.545H362.13V28.665C362.13 28.895 362.1 29.055 362.03 29.135C361.96 29.215 361.83 29.255 361.63 29.255C361.33 29.255 361 29.235 360.66 29.195L360.79 29.835C361.05 29.855 361.35 29.875 361.71 29.875C362.01 29.875 362.23 29.845 362.39 29.785C362.54 29.725 362.65 29.625 362.7 29.485C362.75 29.345 362.79 29.135 362.79 28.855V24.555H363.67V23.925H357.34V24.555L357.32 24.545Z" fill="#CFD2D3"/>
<path d="M367.22 28.015L365.63 28.795V26.845H367.12V24.045H364.82V24.715H366.49V26.185H364.95V28.795C364.95 28.925 364.88 29.045 364.75 29.165L365.08 29.775C365.23 29.685 365.46 29.555 365.76 29.405C366.24 29.175 366.76 28.935 367.33 28.685L367.22 28.015Z" fill="#CFD2D3"/>
<path d="M370.11 26.845C370.26 26.385 370.38 25.855 370.46 25.255H370.95V24.595H368.74C368.84 24.335 368.94 24.015 369.05 23.635L368.38 23.485C368.29 23.925 368.14 24.405 367.91 24.915C367.69 25.425 367.44 25.865 367.17 26.225L367.6 26.695C367.72 26.525 367.81 26.405 367.87 26.315C368.02 26.955 368.28 27.545 368.63 28.065C368.2 28.525 367.58 28.975 366.76 29.415L367.18 30.005C367.96 29.535 368.58 29.065 369.04 28.595C369.48 29.095 370.03 29.555 370.68 29.985L371.1 29.385C370.42 28.975 369.87 28.545 369.46 28.075C369.73 27.705 369.94 27.285 370.09 26.835L370.11 26.845ZM368.35 25.515L368.47 25.255H369.81C369.75 25.735 369.66 26.165 369.55 26.525C369.44 26.895 369.27 27.235 369.06 27.535C368.7 26.975 368.46 26.305 368.34 25.505L368.35 25.515Z" fill="#CFD2D3"/>
<path d="M372.75 29.935H373.39V29.695H376.93V29.935H377.57V28.145H372.75V29.935ZM373.39 28.645H376.93V29.195H373.39V28.645Z" fill="#CFD2D3"/>
<path d="M377.29 26.595H378.21V26.085H375.49V25.675H377.81V25.175H375.49V24.755H378.05V24.235H376.52C376.65 24.065 376.75 23.915 376.83 23.785L376.92 23.655L376.3 23.435C376.16 23.665 375.98 23.935 375.78 24.235H374.5C374.43 24.095 374.29 23.845 374.08 23.495L373.47 23.695C373.51 23.765 373.59 23.895 373.7 24.075C373.71 24.095 373.73 24.125 373.74 24.145C373.75 24.175 373.77 24.195 373.79 24.235H372.25V24.755H374.83V25.175H372.5V25.675H374.83V26.085H372.1V26.595H372.98C373.07 26.785 373.17 27.005 373.27 27.235H372.01V27.735H378.28V27.235H376.98C377.06 27.075 377.16 26.855 377.27 26.595H377.29ZM374.85 27.235H373.91L373.62 26.595H374.85V27.235ZM376.38 27.235H375.5V26.595H376.67C376.59 26.805 376.49 27.015 376.38 27.235Z" fill="#CFD2D3"/>
<path d="M383.97 23.585H383.31V26.605H382.2V29.965H382.84V29.555H384.7V29.965H385.34V26.615H383.97V25.335H385.65V24.705H383.97V23.595V23.585ZM384.71 27.225V28.915H382.85V27.225H384.71Z" fill="#CFD2D3"/>
<path d="M382.24 24.255L381.74 24.055C381.68 24.265 381.59 24.505 381.48 24.795C381.37 25.085 381.26 25.325 381.16 25.525L381.65 25.695C381.74 25.515 381.85 25.275 381.97 24.975C382.09 24.675 382.18 24.435 382.23 24.255H382.24Z" fill="#CFD2D3"/>
<path d="M379.85 24.045L379.35 24.245C379.42 24.415 379.51 24.645 379.61 24.945C379.71 25.245 379.79 25.495 379.85 25.695L380.35 25.515C380.29 25.305 380.21 25.045 380.1 24.735C380 24.435 379.91 24.205 379.84 24.045H379.85Z" fill="#CFD2D3"/>
<path d="M381.07 23.585H380.46V25.955H379.3V26.575H380.35C380.21 26.875 380.04 27.195 379.83 27.535C379.62 27.875 379.39 28.185 379.16 28.465L379.52 29.025C379.91 28.525 380.22 28.005 380.46 27.485V29.925H381.07V27.695C381.26 27.905 381.45 28.145 381.64 28.405L382.05 27.935C381.76 27.605 381.43 27.275 381.07 26.945V26.575H382.05V25.955H381.07V23.585Z" fill="#CFD2D3"/>
<path d="M388.66 26.275C388.47 26.355 388.3 26.425 388.14 26.475V25.415H388.73V24.815H388.14V23.595H387.54V24.815H386.76V25.415H387.54V26.705C387.25 26.805 386.95 26.905 386.62 27.005L386.75 27.615L387.54 27.335V28.975C387.54 29.095 387.52 29.175 387.49 29.215C387.45 29.255 387.39 29.285 387.29 29.285C387.1 29.285 386.92 29.265 386.76 29.235L386.87 29.835C387.07 29.855 387.26 29.875 387.44 29.875C387.62 29.875 387.76 29.855 387.86 29.805C387.96 29.765 388.03 29.685 388.08 29.575C388.12 29.465 388.15 29.305 388.15 29.105V27.115L388.7 26.925L388.67 26.275H388.66Z" fill="#CFD2D3"/>
<path d="M392.16 24.755H392.82V24.185H391.3C391.26 24.075 391.23 24.005 391.22 23.985C391.19 23.915 391.16 23.835 391.13 23.745C391.1 23.655 391.05 23.565 391.01 23.465L390.32 23.635C390.38 23.755 390.45 23.935 390.56 24.185H388.97V24.755H389.6L389.82 25.685H388.85V26.265H393.01V25.685H391.93L392.16 24.755ZM391.31 25.685H390.43L390.21 24.755H391.54C391.46 25.095 391.39 25.405 391.31 25.685Z" fill="#CFD2D3"/>
<path d="M390.77 26.485L390.14 26.375C390.1 26.515 390.01 26.725 389.89 27.015H388.72V27.585H389.6C389.45 27.875 389.29 28.115 389.14 28.325C389.65 28.525 390.08 28.705 390.43 28.855C390.02 29.045 389.41 29.215 388.6 29.375L388.81 29.965C389.34 29.855 389.79 29.735 390.16 29.605C390.53 29.475 390.85 29.325 391.1 29.145C391.61 29.375 392.15 29.645 392.72 29.945L392.99 29.375C392.61 29.185 392.14 28.965 391.59 28.715C391.86 28.425 392.09 28.045 392.28 27.565H393V26.995H390.55C390.64 26.785 390.71 26.615 390.77 26.475V26.485ZM391.62 27.585C391.46 27.965 391.26 28.265 391.02 28.485C390.59 28.295 390.25 28.155 390 28.065C390.09 27.935 390.18 27.775 390.28 27.585H391.62Z" fill="#CFD2D3"/>
<path d="M397.43 29.745H398.06V29.165H399.48V29.715H400.11V24.105H397.43V29.745ZM398.06 24.765H399.48V28.535H398.06V24.765Z" fill="#CFD2D3"/>
<path d="M396 26.4149V26.0749H397.09V25.4349H396V24.4849C396.45 24.3949 396.8 24.3149 397.03 24.2449L396.88 23.6349C396.53 23.7349 396.11 23.8349 395.61 23.9249C395.11 24.0149 394.65 24.0749 394.23 24.1249L394.36 24.7249C394.64 24.7049 394.97 24.6549 395.38 24.5949V25.4449H394.14V26.0849H395.25C395.11 26.4349 394.93 26.7849 394.71 27.1349C394.49 27.4849 394.26 27.8149 394.01 28.1149L394.38 28.7149C394.8 28.1949 395.13 27.6249 395.38 27.0149V29.9549H396.01V27.1649C396.27 27.4449 396.53 27.7449 396.79 28.0649L397.19 27.5649C396.8 27.1449 396.4 26.7649 396.01 26.4149H396Z" fill="#CFD2D3"/>
<path d="M405.44 24.545C405.34 24.365 405.24 24.175 405.12 23.985C405.01 23.795 404.91 23.635 404.83 23.515L404.31 23.815C404.37 23.895 404.46 24.045 404.58 24.265C404.7 24.475 404.81 24.675 404.91 24.855L405.44 24.535V24.545Z" fill="#CFD2D3"/>
<path d="M401.78 26.515C401.78 27.155 401.77 27.655 401.74 28.005C401.71 28.355 401.66 28.655 401.59 28.895C401.52 29.135 401.41 29.395 401.26 29.685L401.8 29.965C401.99 29.615 402.12 29.275 402.2 28.945C402.28 28.615 402.33 28.215 402.35 27.745H403.1V28.925C403.1 29.075 403.08 29.165 403.05 29.215C403.01 29.265 402.94 29.285 402.83 29.285C402.72 29.285 402.59 29.265 402.44 29.235L402.55 29.825C402.77 29.845 402.94 29.855 403.05 29.855C403.27 29.855 403.43 29.795 403.53 29.685C403.63 29.575 403.68 29.395 403.68 29.135V23.915H401.78V26.505V26.515ZM402.36 24.525H403.1V25.545H402.36V24.525ZM402.36 26.135H403.1V27.155H402.36V26.135Z" fill="#CFD2D3"/>
<path d="M407.24 28.515C407.24 28.725 407.24 28.865 407.23 28.935C407.23 29.065 407.21 29.145 407.18 29.205C407.15 29.255 407.1 29.295 407.02 29.305C406.97 29.305 406.94 29.315 406.91 29.315C406.88 29.315 406.84 29.315 406.78 29.305C406.7 29.295 406.65 29.255 406.62 29.205C406.59 29.155 406.58 29.065 406.58 28.935V27.375H407.34V24.905H406.58C406.75 24.595 406.9 24.325 407.02 24.095L407.19 23.775L406.62 23.525C406.55 23.685 406.44 23.895 406.29 24.175C406.14 24.445 406 24.695 405.87 24.915H404.18V27.385H404.81C404.81 27.755 404.76 28.065 404.69 28.305C404.62 28.545 404.51 28.765 404.36 28.945C404.21 29.125 404 29.305 403.73 29.465L404.17 29.985C404.46 29.765 404.7 29.535 404.87 29.295C405.04 29.055 405.17 28.785 405.26 28.485C405.35 28.185 405.39 27.815 405.4 27.385H405.95V29.125C405.95 29.375 406 29.565 406.09 29.675C406.19 29.795 406.33 29.855 406.53 29.875C406.66 29.875 406.76 29.885 406.82 29.885C406.89 29.885 406.99 29.885 407.11 29.875C407.32 29.855 407.48 29.785 407.58 29.685C407.68 29.585 407.73 29.405 407.74 29.165C407.74 29.025 407.76 28.875 407.77 28.705C407.77 28.535 407.78 28.395 407.79 28.285V28.135L407.24 28.025C407.24 28.145 407.24 28.305 407.24 28.515ZM404.79 26.785V25.515H406.73V26.785H404.79Z" fill="#CFD2D3"/>
<path d="M413.45 28.455H415.05V27.915H413.26V27.495H414.69V25.245H411.27V27.495H412.65C412.65 27.675 412.65 27.785 412.65 27.845C412.65 27.875 412.65 27.905 412.65 27.915H410.86V28.455H412.46C412.33 28.665 412.11 28.845 411.83 29.005C411.54 29.165 411.18 29.295 410.72 29.405L410.95 29.975C411.95 29.675 412.63 29.275 412.98 28.755C413.4 29.335 414.05 29.745 414.94 29.975L415.14 29.405C414.71 29.305 414.35 29.175 414.09 29.025C413.82 28.875 413.61 28.685 413.44 28.455H413.45ZM411.83 25.735H414.16V26.155H411.83V25.735ZM411.83 27.015V26.585H414.16V27.015H411.83Z" fill="#CFD2D3"/>
<path d="M413.47 23.545V24.145H412.46V23.545H411.88V24.145H410.96V24.695H411.88V25.055H412.46V24.695H413.47V25.055H414.05V24.695H415.07V24.145H414.05V23.545H413.47Z" fill="#CFD2D3"/>
<path d="M410.46 26.085L410.22 25.815V25.425H410.93V24.845H410.22V23.555H409.63V24.845H408.79V25.425H409.59C409.48 25.815 409.33 26.215 409.14 26.615C408.96 27.015 408.76 27.385 408.55 27.705L408.91 28.325C409.16 27.925 409.4 27.405 409.63 26.765V29.955H410.22V26.605C410.48 26.985 410.64 27.225 410.72 27.325L411.02 26.755L410.46 26.085Z" fill="#CFD2D3"/>
<path d="M202.12 10.615L190.91 21.825V16.155L196.45 10.615C196.45 10.615 26.64 10.525 25.98 10.615C25.32 10.705 24.81 11.275 24.81 11.955V29.105C24.81 29.785 25.32 30.355 25.98 30.445H190.9V27.485L207.78 10.605H202.11L202.12 10.615ZM34.75 28.305H29.2V23.425L34.75 21.235V28.305ZM29.2 22.495V12.735H34.75V20.315L29.2 22.505V22.495ZM41.17 28.305H35.62V18.545L41.17 20.735V28.315V28.305ZM41.17 19.795L35.62 17.605V12.725H41.17V19.795ZM62.39 20.515V28.305H46.81V12.725H62.39V20.515ZM81.16 20.775C81.16 21.395 80.65 21.905 80.03 21.905H74.65V24.755H72.84V15.965H80.03C80.65 15.965 81.16 16.475 81.16 17.095V20.775ZM88.09 24.755H83.59C82.97 24.755 82.46 24.235 82.46 23.615V15.975H84.27V23.165C84.27 23.345 84.41 23.485 84.6 23.485H88.1V24.755H88.09ZM97.72 24.755H95.91V21.285H91.19V24.755H89.38V17.095C89.38 16.475 89.89 15.965 90.51 15.965H96.58C97.2 15.965 97.71 16.475 97.71 17.095V24.755H97.72Z" fill="#CFD2D3"/>
<path d="M213.46 10.615L193.61 30.465H199.28L219.12 10.615H213.46Z" fill="#CFD2D3"/>
<path d="M224.79 10.615L204.95 30.465H210.62L230.46 10.615H224.79Z" fill="#CFD2D3"/>
<path d="M236.13 10.615L216.29 30.465H221.96L241.8 10.615H236.13Z" fill="#CFD2D3"/>
<path d="M247.47 10.615L227.63 30.465H233.3L253.14 10.615H247.47Z" fill="#CFD2D3"/>
<path d="M258.79 10.615L238.95 30.465H244.62L264.46 10.615H258.79Z" fill="#CFD2D3"/>
<path d="M270.13 10.615L250.29 30.465H255.96L275.8 10.615H270.13Z" fill="#CFD2D3"/>
<path d="M281.47 10.615L261.63 30.465H267.3L287.14 10.615H281.47Z" fill="#CFD2D3"/>
<path d="M278.64 30.465L289.98 19.115V13.455L272.97 30.465H278.64Z" fill="#CFD2D3"/>
<path d="M289.97 30.465L289.98 30.455V24.785L284.31 30.465H289.97Z" fill="#CFD2D3"/>
<path d="M95.6 17.235H91.53C91.35 17.235 91.2 17.395 91.2 17.575V20.015H95.92V17.575C95.92 17.395 95.78 17.235 95.59 17.235H95.6Z" fill="#CFD2D3"/>
<path d="M79.02 17.235H74.65V20.655H79.03C79.21 20.655 79.36 20.515 79.36 20.325V17.555C79.36 17.375 79.2 17.225 79.02 17.225V17.235Z" fill="#CFD2D3"/>
<path d="M54.6 16.625V17.925H55.9H57.2V19.225V20.515H55.9H54.6V23.115V25.715H55.9H57.2V24.415V23.115H58.5H59.8V19.225V15.325H57.2H54.6V16.625Z" fill="#CFD2D3"/>
<path d="M54.6 17.925H53.31H52.01V19.225V20.515H53.31H54.6V19.225V17.925Z" fill="#CFD2D3"/>
<path d="M52.01 15.325H50.71H49.41V16.625V17.925H50.71H52.01V16.625V15.325Z" fill="#CFD2D3"/>
</svg>
