<svg width="416" height="36" viewBox="0 0 416 36" fill="none" xmlns="http://www.w3.org/2000/svg">
<g clip-path="url(#clip0_3_329)">
<path d="M415.56 6H0V6.99H415.56V6Z" fill="#CFD2D3"/>
<path d="M194.61 21.1C194.79 21.1 194.94 20.96 194.94 20.77V18C194.94 17.82 194.78 17.67 194.6 17.67H190.23V21.09H194.61V21.1Z" fill="#CFD2D3"/>
<path d="M57.82 23.65V22.35V21.05H59.12H60.43V18.44V15.83H57.82H55.21V19.74V23.65H56.52H57.82Z" fill="#CFD2D3"/>
<path d="M220.39 20.77V18C220.39 17.82 220.23 17.67 220.05 17.67H215.68V21.09H220.06C220.24 21.09 220.39 20.95 220.39 20.76V20.77Z" fill="#CFD2D3"/>
<path d="M274.05 27.45H288.84C289.07 27.45 289.19 27.29 289.23 27.22C289.27 27.15 289.35 26.97 289.23 26.77L281.84 13.96C281.72 13.76 281.53 13.73 281.45 13.73C281.37 13.73 281.18 13.75 281.06 13.96L273.67 26.77C273.55 26.97 273.63 27.15 273.67 27.22C273.71 27.29 273.83 27.45 274.06 27.45H274.05ZM282.59 19.53C282.65 19.33 282.73 19.13 282.83 18.94C282.87 18.86 282.91 18.78 282.96 18.7H283.74C282.65 20.25 283.28 20.96 283.82 21.85C284.32 22.67 284.73 23.64 283.74 24.94H282.87C282.87 24.94 282.91 24.89 282.94 24.87C283.09 24.71 283.23 24.54 283.36 24.35C283.45 24.21 283.53 24.07 283.59 23.91C283.64 23.79 283.67 23.67 283.68 23.54C283.69 23.43 283.69 23.32 283.68 23.21C283.67 23.1 283.64 23 283.61 22.89C283.57 22.78 283.53 22.67 283.47 22.56C283.41 22.44 283.35 22.33 283.28 22.22C283.13 21.98 282.98 21.74 282.84 21.49C282.77 21.36 282.71 21.23 282.65 21.09C282.59 20.94 282.55 20.78 282.52 20.62C282.46 20.26 282.49 19.88 282.59 19.52V19.53ZM280.62 19.53C280.68 19.33 280.76 19.13 280.86 18.94C280.9 18.86 280.94 18.78 280.99 18.7H281.77C280.68 20.25 281.31 20.96 281.85 21.85C282.35 22.67 282.76 23.64 281.77 24.94H280.9C280.9 24.94 280.94 24.89 280.97 24.87C281.12 24.71 281.26 24.54 281.39 24.35C281.48 24.21 281.56 24.07 281.62 23.91C281.67 23.79 281.7 23.67 281.71 23.54C281.72 23.43 281.72 23.32 281.71 23.21C281.7 23.1 281.67 23 281.64 22.89C281.6 22.78 281.56 22.67 281.5 22.56C281.44 22.44 281.38 22.33 281.31 22.22C281.16 21.98 281.01 21.74 280.87 21.49C280.8 21.36 280.74 21.23 280.68 21.09C280.62 20.94 280.58 20.78 280.55 20.62C280.49 20.26 280.52 19.88 280.62 19.52V19.53ZM278.65 19.53C278.71 19.33 278.79 19.13 278.89 18.94C278.93 18.86 278.97 18.78 279.02 18.7H279.8C278.71 20.25 279.34 20.96 279.88 21.85C280.38 22.67 280.79 23.64 279.8 24.94H278.93C278.93 24.94 278.97 24.89 279 24.87C279.15 24.71 279.29 24.54 279.42 24.35C279.51 24.21 279.59 24.07 279.65 23.91C279.7 23.79 279.73 23.67 279.74 23.54C279.75 23.43 279.75 23.32 279.74 23.21C279.73 23.1 279.7 23 279.67 22.89C279.63 22.78 279.59 22.67 279.53 22.56C279.47 22.44 279.41 22.33 279.34 22.22C279.19 21.98 279.04 21.74 278.9 21.49C278.83 21.36 278.77 21.23 278.71 21.09C278.65 20.94 278.61 20.78 278.58 20.62C278.52 20.26 278.55 19.88 278.65 19.52V19.53ZM277.39 25.65H285.5V26.3H277.39V25.65Z" fill="#CFD2D3"/>
<path d="M57.82 26.26H59.12H60.43V24.96V23.65H59.12H57.82V24.96V26.26Z" fill="#CFD2D3"/>
<path d="M24.56 12.45V29.6C24.56 30.34 25.16 30.94 25.9 30.94H55.77H355.23V11.11H25.9C25.16 11.11 24.56 11.71 24.56 12.45ZM164.46 25.21H164.1V23.94H170C170.17 23.94 170.34 23.76 170.34 23.56V21.94C170.34 21.76 170.17 21.61 169.99 21.61H164.92C164.31 21.58 163.8 21.08 163.8 20.47V17.56C163.8 16.94 164.32 16.43 164.96 16.43H171.84V17.69H165.96C165.78 17.69 165.63 17.85 165.63 18.03V20.02C165.63 20.2 165.77 20.35 165.96 20.35H171C171.62 20.35 172.13 20.87 172.13 21.49V24.08C172.13 24.7 171.62 25.22 171 25.22H164.46V25.21ZM158.64 25.21H154.29V16.55H160.92C161.53 16.55 162.04 17.04 162.04 17.67V20.23L162.09 20.28C162.36 20.49 162.51 20.81 162.51 21.15V24.08C162.51 24.7 162 25.21 161.39 25.21H158.64ZM153 25.21H151.19V21.74H146.47V25.21H144.66V17.55C144.66 16.93 145.17 16.42 145.79 16.42H151.86C152.48 16.42 152.99 16.93 152.99 17.55V25.21H153ZM139.13 25.21L141.67 16.42H142.72L140.18 25.21H139.13ZM130.69 25.21C130.07 25.21 129.56 24.7 129.56 24.08V17.41C129.56 16.8 130.07 16.29 130.69 16.29H136.88V17.54H131.68C131.5 17.54 131.35 17.68 131.35 17.86V23.62C131.35 23.8 131.49 23.95 131.68 23.95H135.07C135.24 23.95 135.38 23.81 135.38 23.62V21.15H133.48V19.9H137.17V24.07C137.17 24.69 136.66 25.2 136.04 25.2H130.68L130.69 25.21ZM128.52 17.68H125.54V25.21H123.72V17.68H120.74V16.42H128.51V17.68H128.52ZM119.45 17.68H114.86C114.69 17.68 114.53 17.84 114.53 18.02V20.04H119.44V21.31H114.85C114.68 21.31 114.52 21.45 114.52 21.64V23.94H119.43V25.21H112.71V16.42H119.43V17.68H119.45ZM110.3 22.36H104.92V25.21H103.11V16.42H110.3C110.92 16.42 111.43 16.93 111.43 17.55V21.23C111.43 21.85 110.92 22.36 110.3 22.36ZM97.96 25.21H97.57L100.11 16.42H101.16L98.62 25.21H97.95H97.96ZM93.83 25.21V21.74H89.11V25.21H87.3V17.55C87.3 16.93 87.81 16.42 88.43 16.42H94.5C95.12 16.42 95.63 16.93 95.63 17.55V25.21H93.82H93.83ZM81.51 25.21C80.89 25.21 80.38 24.69 80.38 24.07V16.43H82.19V23.62C82.19 23.8 82.33 23.94 82.52 23.94H86.02V25.21H81.52H81.51ZM77.95 22.36H72.57V25.21H70.76V16.42H77.95C78.57 16.42 79.08 16.93 79.08 17.55V21.23C79.08 21.85 78.57 22.36 77.95 22.36ZM339.75 21.74H344.85V22.89H341.41C341.34 22.89 341.29 22.95 341.29 23.01V24.36H344.85V25.51H341.41C341.34 25.51 341.29 25.57 341.29 25.63V27.19H344.85V28.33H339.75V21.73V21.74ZM333.22 22.75C333.22 22.24 333.63 21.83 334.14 21.83H338.24V22.96H334.86C334.79 22.96 334.74 23.02 334.74 23.08V27.08C334.74 27.15 334.8 27.2 334.86 27.2H338.24V28.34H334.14C333.63 28.34 333.22 27.93 333.22 27.42V22.76V22.75ZM325.44 22.68C325.44 22.16 325.85 21.74 326.37 21.74H330.77C331.29 21.74 331.7 22.16 331.7 22.68V28.33H330.16V25.81H326.97V28.33H325.43V22.68H325.44ZM318.6 21.74H323.92V22.89H320.26C320.18 22.89 320.13 22.95 320.13 23.01V24.37H323.92V25.51H320.26C320.18 25.51 320.13 25.57 320.13 25.63V28.33H318.59V21.73L318.6 21.74ZM317.09 22.68V25.34C317.09 25.86 316.67 26.27 316.16 26.27H316.04L316.74 28.33H315.16L314.45 26.27H312.37V28.33H310.83V21.73H316.16C316.67 21.73 317.09 22.15 317.09 22.67V22.68ZM310.03 13.72H315.89V14.87H313.73V20.32H312.18V14.87H310.02V13.72H310.03ZM309.31 27.44C309.31 27.96 308.89 28.38 308.37 28.38H303.94C303.41 28.38 302.99 27.96 302.99 27.44V21.73H304.55V27.1C304.55 27.17 304.61 27.23 304.67 27.23H307.64C307.71 27.23 307.77 27.17 307.77 27.1V21.73H309.31V27.44ZM302.39 14.54C302.39 14.02 302.81 13.61 303.32 13.61H307.67C308.19 13.61 308.6 14.02 308.6 14.54V19.38C308.6 19.9 308.18 20.31 307.67 20.31H303.32C302.81 20.31 302.39 19.9 302.39 19.38V14.54ZM295.2 13.72H296.73V16.37H299.36V13.72H300.89V20.32H299.36V17.5H296.73V20.32H295.2V13.72ZM295.2 22.68C295.2 22.16 295.62 21.74 296.15 21.74H301.25V22.89H296.88C296.81 22.89 296.76 22.95 296.76 23.01V24.46C296.76 24.53 296.82 24.58 296.88 24.58H300.54C301.06 24.58 301.48 25 301.48 25.51V27.39C301.48 27.91 301.06 28.32 300.54 28.32H295.42V27.18H299.81C299.88 27.18 299.94 27.1 299.94 27.02V25.83C299.94 25.76 299.87 25.71 299.8 25.71H296.13C295.62 25.71 295.21 25.28 295.21 24.77V22.67L295.2 22.68ZM272.9 26.32L280.29 13.51C280.78 12.67 282.13 12.67 282.62 13.51L290.01 26.32C290.25 26.74 290.25 27.25 290.01 27.67C289.77 28.09 289.33 28.34 288.85 28.34H274.06C273.57 28.34 273.14 28.09 272.89 27.67C272.65 27.25 272.65 26.75 272.89 26.32H272.9ZM223.51 17.54C223.51 16.92 224.02 16.41 224.64 16.41H230.2V17.68H225.64C225.46 17.68 225.31 17.82 225.31 18.01V23.59C225.31 23.77 225.45 23.92 225.64 23.92H230.2V25.21H224.64C224.02 25.21 223.51 24.69 223.51 24.07V17.56V17.54ZM213.89 16.41H221.08C221.7 16.41 222.21 16.92 222.21 17.54V21.22C222.21 21.84 221.7 22.35 221.08 22.35H215.7V25.2H213.89V16.41ZM210.89 16.41H211.94L209.4 25.2H208.35L210.89 16.41ZM198.06 16.44H199.88V23.63C199.88 23.81 200.02 23.96 200.21 23.96H204.27C204.45 23.96 204.6 23.82 204.6 23.63V16.44H206.42V24.08C206.42 24.72 205.91 25.22 205.28 25.22H199.22C198.58 25.22 198.08 24.71 198.08 24.08V16.44H198.06ZM188.44 16.41H195.63C196.25 16.41 196.76 16.92 196.76 17.54V21.22C196.76 21.84 196.25 22.35 195.63 22.35H190.25V25.2H188.44V16.41ZM179.63 16.41H187.4V17.67H184.42V25.2H182.6V17.67H179.62V16.41H179.63ZM177.69 16.41L175.15 25.2H174.1L176.64 16.41H177.69ZM47.39 21.05V13.23H63.03V28.87H47.39V21.05ZM36.2 13.23H41.76V20.31L36.2 18.12V13.23ZM36.2 19.05L41.76 21.24V28.82H36.2V19.05ZM29.78 13.23H35.34V20.81L29.78 23V13.23ZM29.78 23.94L35.34 21.75V28.83H29.78V23.94Z" fill="#CFD2D3"/>
<path d="M55.21 24.96V23.65H52.61H50V24.96V26.26H52.61H55.21V24.96Z" fill="#CFD2D3"/>
<path d="M369.7 16.69H372.53V22.44H379V16.69H381.83L375.77 13.27L369.7 16.69Z" fill="#CFD2D3"/>
<path d="M379 23.95H372.53V25.82H379V23.95Z" fill="#CFD2D3"/>
<path d="M379 27.69H372.53V28.62H379V27.69Z" fill="#CFD2D3"/>
<path d="M409.55 13.27L403.49 16.69H406.32V22.44H412.79V16.69H415.62L409.55 13.27Z" fill="#CFD2D3"/>
<path d="M412.79 23.95H406.32V25.82H412.79V23.95Z" fill="#CFD2D3"/>
<path d="M412.79 27.69H406.32V28.62H412.79V27.69Z" fill="#CFD2D3"/>
<path d="M399.82 13.53H393.94L393.69 12.83H390.85L390.57 13.53H384.97V28.39H390.54L390.85 28.9C390.97 29.1 391.18 29.22 391.41 29.22H399.27C399.58 29.22 399.83 28.97 399.83 28.66V27.17V13.53H399.82ZM398.32 26.89H386.46V15.03H398.32V26.89Z" fill="#CFD2D3"/>
<path d="M315.55 25V23.01C315.55 22.94 315.48 22.89 315.42 22.89H312.35V25.13H315.42C315.5 25.13 315.55 25.07 315.55 25Z" fill="#CFD2D3"/>
<path d="M304.03 19.18H306.95C307.03 19.18 307.08 19.13 307.08 19.06V14.88C307.08 14.8 307.02 14.75 306.95 14.75H304.03C303.96 14.75 303.91 14.81 303.91 14.88V19.06C303.91 19.13 303.97 19.18 304.03 19.18Z" fill="#CFD2D3"/>
<path d="M330.15 23.01C330.15 22.94 330.09 22.89 330.03 22.89H327.08C327.01 22.89 326.96 22.95 326.96 23.01V24.68H330.15V23.01Z" fill="#CFD2D3"/>
<path d="M76.92 17.68H72.55V21.1H76.93C77.11 21.1 77.26 20.96 77.26 20.77V18C77.26 17.82 77.1 17.67 76.92 17.67V17.68Z" fill="#CFD2D3"/>
<path d="M93.49 17.68H89.42C89.24 17.68 89.09 17.84 89.09 18.02V20.46H93.81V18.02C93.81 17.84 93.67 17.68 93.48 17.68H93.49Z" fill="#CFD2D3"/>
<path d="M109.28 17.68H104.91V21.1H109.29C109.47 21.1 109.62 20.96 109.62 20.77V18C109.62 17.82 109.46 17.67 109.28 17.67V17.68Z" fill="#CFD2D3"/>
<path d="M156.08 17.8V20.26H159.93C160.1 20.26 160.26 20.12 160.26 19.93V18.12C160.26 17.94 160.1 17.79 159.93 17.79H156.08V17.8Z" fill="#CFD2D3"/>
<path d="M150.86 17.68H146.79C146.61 17.68 146.46 17.84 146.46 18.02V20.46H151.18V18.02C151.18 17.84 151.04 17.68 150.85 17.68H150.86Z" fill="#CFD2D3"/>
<path d="M160.39 21.5H156.07V23.94H160.39C160.57 23.94 160.72 23.8 160.72 23.61V21.8C160.72 21.63 160.58 21.49 160.39 21.49V21.5Z" fill="#CFD2D3"/>
</g>
<defs>
<clipPath id="clip0_3_329">
<rect width="415.62" height="24.94" fill="white" transform="translate(0 6)"/>
</clipPath>
</defs>
</svg>
