<svg width="416" height="36" viewBox="0 0 416 36" fill="none" xmlns="http://www.w3.org/2000/svg">
<path d="M415.56 5.52499H0V6.51499H415.56V5.52499Z" fill="#CED1D2"/>
<path d="M106.48 17.235H102.41C102.23 17.235 102.09 17.395 102.09 17.575V20.025H106.81V17.575C106.81 17.395 106.67 17.235 106.48 17.235Z" fill="#CED1D2"/>
<path d="M90.43 17.235H86.06V20.655H90.44C90.62 20.655 90.77 20.515 90.77 20.325V17.555C90.77 17.375 90.61 17.225 90.43 17.225V17.235Z" fill="#CED1D2"/>
<path d="M370.97 19.775H368.47V21.165H370.97V19.775Z" fill="#CED1D2"/>
<path d="M324.1 21.875H321V23.605H324.1V21.875Z" fill="#CED1D2"/>
<path d="M312.48 17.805H308.52V20.905H312.49C312.65 20.905 312.78 20.775 312.78 20.615V18.105C312.78 17.935 312.64 17.815 312.47 17.815H312.48V17.805Z" fill="#CED1D2"/>
<path d="M387.3 21.675H384.78V23.085H387.3V21.675Z" fill="#CED1D2"/>
<path d="M336.4 19.545H333.32V21.255H336.4V19.545Z" fill="#CED1D2"/>
<path d="M365.13 19.775H362.61V23.085H365.13V19.775Z" fill="#CED1D2"/>
<path d="M413.95 10.635H39.71C38.82 10.635 38.1 11.355 38.1 12.245V28.865C38.1 29.755 38.82 30.475 39.71 30.475H413.95C414.84 30.475 415.56 29.755 415.56 28.865V12.245C415.56 11.355 414.84 10.635 413.95 10.635ZM48.89 28.345H43.33V23.455L48.89 21.265V28.345ZM43.33 22.525V12.755H48.89V20.335L43.33 22.525ZM55.31 28.345H49.75V18.575L55.31 20.765V28.345ZM49.75 17.635V12.745H55.31V19.825L49.75 17.635ZM76.47 28.335H60.89V12.755H76.47V28.335ZM92.57 20.785C92.57 21.405 92.06 21.915 91.44 21.915H86.06V24.765H84.25V15.975H91.44C92.06 15.975 92.57 16.485 92.57 17.105V20.785ZM99.24 24.765H94.74C94.12 24.765 93.61 24.245 93.61 23.625V15.985H95.42V23.175C95.42 23.355 95.56 23.495 95.74 23.495H99.24V24.765ZM108.62 24.765H106.81V21.295H102.09V24.765H100.28V17.105C100.28 16.485 100.79 15.975 101.41 15.975H107.48C108.1 15.975 108.61 16.485 108.61 17.105V24.765H108.62ZM111.62 24.765H110.57L113.11 15.975H114.16L111.62 24.765ZM124.3 20.865C124.3 21.475 123.8 21.975 123.19 21.975H117.89V24.785H116.11V16.125H123.19C123.8 16.125 124.3 16.625 124.3 17.235V20.865ZM131.95 17.375H127.43C127.26 17.375 127.11 17.525 127.11 17.705V19.695H131.95V20.955H127.43C127.26 20.955 127.11 21.095 127.11 21.275V23.545H131.95V24.805H125.33V16.145H131.95V17.385V17.375ZM140.64 17.375H137.71V24.795H135.92V17.375H132.99V16.135H140.65V17.375H140.64ZM148.92 23.675C148.92 24.285 148.42 24.785 147.81 24.785H142.53C141.91 24.785 141.42 24.285 141.42 23.675V17.105C141.42 16.505 141.92 16.005 142.53 16.005H148.63V17.235H143.51C143.33 17.235 143.19 17.375 143.19 17.555V23.235C143.19 23.415 143.33 23.555 143.51 23.555H146.85C147.02 23.555 147.16 23.415 147.16 23.235V20.805H145.29V19.575H148.93V23.685L148.92 23.675ZM242.77 23.665C242.77 24.235 242.31 24.685 241.76 24.685H235.33V16.835H241.34C241.89 16.835 242.35 17.285 242.35 17.845V20.165L242.4 20.215C242.65 20.405 242.78 20.695 242.78 21.005V23.655L242.77 23.665ZM250.08 24.685H244.75C244.17 24.685 243.7 24.215 243.7 23.635V21.965C243.7 21.385 244.17 20.915 244.75 20.915H248.44V19.595H244.21V18.585H248.63C249.43 18.585 250.08 19.105 250.08 19.735V24.685ZM259.68 24.685H258.03V19.595H256.17V24.685H254.53V19.605H252.67V24.685H251.02V18.585H258.63C259.21 18.585 259.68 19.055 259.68 19.635V24.685ZM266.9 23.635C266.9 24.215 266.43 24.685 265.84 24.685H260.52V16.725H262.17V18.585H265.84C266.43 18.585 266.9 19.055 266.9 19.635V23.635ZM273.89 24.685H268.74C268.17 24.685 267.72 24.225 267.72 23.665V18.585H269.31V23.705H272.31V18.585H273.89V24.685ZM284.42 17.815H280.29C280.12 17.815 280 17.945 280 18.105V23.155C280 23.325 280.13 23.445 280.29 23.445H284.42V24.615H279.38C278.81 24.615 278.36 24.145 278.36 23.575V17.675C278.36 17.105 278.82 16.655 279.38 16.655H284.42V17.805V17.815ZM291.53 23.595C291.53 24.165 291.07 24.615 290.52 24.615H286.37C285.8 24.615 285.36 24.155 285.36 23.595V19.535C285.36 18.965 285.81 18.525 286.37 18.525H290.52C291.07 18.525 291.53 18.975 291.53 19.535V23.595ZM298.53 23.595C298.53 24.165 298.07 24.615 297.52 24.615H293.37C292.8 24.615 292.36 24.155 292.36 23.595V19.535C292.36 18.965 292.81 18.525 293.37 18.525H297.52C298.07 18.525 298.53 18.975 298.53 19.535V23.595ZM302.64 24.625H300.4C299.82 24.625 299.35 24.155 299.35 23.565V16.665H300.99V23.605H302.64V24.625ZM314.42 21.015C314.42 21.585 313.96 22.035 313.39 22.035H308.51V24.615H306.87V16.655H313.38C313.95 16.655 314.41 17.115 314.41 17.675V21.005H314.42V21.015ZM318.65 24.625H316.41C315.83 24.625 315.36 24.155 315.36 23.565V16.665H317V23.605H318.65V24.625ZM325.73 24.625H320.4C319.82 24.625 319.35 24.155 319.35 23.575V21.905C319.35 21.325 319.82 20.855 320.4 20.855H324.09V19.535H319.86V18.525H324.28C325.08 18.525 325.73 19.045 325.73 19.675V24.625ZM330.87 19.545H329.6V23.205C329.6 23.415 329.79 23.595 330 23.595H330.87V24.615H329.01C328.43 24.615 327.96 24.145 327.96 23.565V19.535H326.68V18.525H327.96V16.655H329.6V18.525H330.87V19.535V19.545ZM338.03 22.265H333.32V23.615H337.93V24.615H332.73C332.15 24.615 331.69 24.145 331.69 23.565V19.595C331.69 19.015 332.15 18.545 332.73 18.545H336.98C337.56 18.545 338.03 19.015 338.03 19.595V22.255V22.265ZM345 24.645H344.03L341.19 20.745L344.03 16.845H345L342.16 20.745L345 24.645ZM354.81 23.065C354.81 23.525 354.43 23.905 353.98 23.905H348.88V22.965H353.24C353.36 22.965 353.49 22.835 353.49 22.685V21.485C353.49 21.355 353.37 21.245 353.23 21.245H349.49C349.04 21.225 348.66 20.855 348.66 20.405V18.255C348.66 17.795 349.04 17.425 349.51 17.425H354.59V18.355H350.25C350.12 18.355 350.01 18.465 350.01 18.605V20.075C350.01 20.205 350.12 20.315 350.25 20.315H353.97C354.43 20.315 354.8 20.695 354.8 21.155V23.065H354.81ZM360.6 23.915H356.41C355.95 23.915 355.58 23.545 355.58 23.085V18.945H356.88V23.115H359.33V18.945H360.62V23.915H360.6ZM366.48 23.055C366.48 23.525 366.1 23.905 365.62 23.905H362.62V25.765H361.29V18.935H365.63C366.11 18.935 366.49 19.315 366.49 19.785V23.045L366.48 23.055ZM372.31 21.995H368.47V23.095H372.22V23.915H367.99C367.52 23.915 367.15 23.535 367.15 23.065V19.835C367.15 19.365 367.52 18.985 367.99 18.985H371.45C371.92 18.985 372.3 19.365 372.3 19.835V22.005H372.31V21.995ZM376.46 20.275H374.32V23.915H372.99V18.955H374.32V19.855L374.53 19.545C374.78 19.175 375.21 18.945 375.66 18.945H376.46V20.275ZM382.87 18.355H380.67V23.915H379.33V18.355H377.13V17.425H382.87V18.355ZM388.64 23.915H384.3C383.83 23.915 383.45 23.535 383.45 23.065V21.705C383.45 21.235 383.83 20.855 384.3 20.855H387.3V19.775H383.85V18.945H387.45C388.1 18.945 388.63 19.365 388.63 19.885V23.915H388.64ZM394.46 19.765H390.74V23.085H394.46V23.915H390.26C389.79 23.915 389.41 23.535 389.41 23.065V19.805C389.41 19.335 389.79 18.955 390.26 18.955H394.46V19.785V19.765ZM398.96 23.905L398.1 21.385H396.47V23.915H395.14V17.425H396.47V20.635H398.03L398.79 18.945H400.07L399.21 20.925L399.19 20.965L400.21 23.915H398.96V23.905ZM403.58 24.645H402.61L405.45 20.745L402.61 16.845H403.58L406.42 20.745L403.58 24.645Z" fill="#CED1D2"/>
<path d="M296.94 19.495H293.94V23.625H296.94V19.495Z" fill="#CED1D2"/>
<path d="M289.94 19.495H286.94V23.625H289.94V19.495Z" fill="#CED1D2"/>
<path d="M265.25 19.595H262.16V23.655H265.25V19.595Z" fill="#CED1D2"/>
<path d="M240.86 21.325H236.95V23.535H240.86C241.03 23.535 241.15 23.405 241.15 23.245V21.605C241.15 21.455 241.02 21.325 240.86 21.325Z" fill="#CED1D2"/>
<path d="M248.45 21.945H245.35V23.675H248.45V21.945Z" fill="#CED1D2"/>
<path d="M240.73 19.905V18.265C240.73 18.095 240.59 17.975 240.44 17.975H236.95V20.205H240.44C240.59 20.205 240.73 20.075 240.73 19.915V19.905Z" fill="#CED1D2"/>
<path d="M122.19 17.375H117.89V20.745H122.21C122.39 20.745 122.53 20.605 122.53 20.425V17.695C122.53 17.515 122.38 17.375 122.2 17.375H122.19Z" fill="#CED1D2"/>
<path d="M71.28 17.945V20.545H68.68V25.735H71.28V23.135H73.88V15.345H68.68V17.945H71.28Z" fill="#CED1D2"/>
<path d="M66.09 20.545H68.68V17.945H66.09V20.545Z" fill="#CED1D2"/>
<path d="M66.09 17.945V15.345H63.49V17.945H66.09Z" fill="#CED1D2"/>
</svg>
