<svg width="24" height="302" viewBox="0 0 24 302" fill="none" xmlns="http://www.w3.org/2000/svg">
<path d="M2.80001 128.42H20.8C22.24 128.42 23.4 129.58 23.4 131.02V145.85H20.97V133.79C20.97 132.98 20.3 132.31 19.49 132.31H4.06001C3.25001 132.31 2.62001 132.98 2.62001 133.79V145.85H0.200012V131.02C0.200012 129.58 1.36001 128.42 2.80001 128.42Z" fill="#B3B3B3"/>
<path d="M15.24 148.67C16.65 148.67 17.81 149.83 17.81 151.24V163.93C17.81 165.37 16.65 166.53 15.24 166.53H2.76C1.35 166.53 0.190002 165.37 0.190002 163.93V151.24C0.190002 149.83 1.35 148.67 2.76 148.67H15.24ZM15.87 152.43H2.13V162.73H15.87V152.43Z" fill="#B3B3B3"/>
<path d="M15.24 169.35C16.65 169.35 17.81 170.51 17.81 171.92V184.61C17.81 186.05 16.65 187.21 15.24 187.21H2.76C1.35 187.21 0.190002 186.05 0.190002 184.61V171.92C0.190002 170.51 1.35 169.35 2.76 169.35H15.24ZM15.87 173.11H2.13V183.41H15.87V173.11Z" fill="#B3B3B3"/>
<path d="M2.90001 190.02H23.64V193.96H2.23001V199.02H0.200012V192.69C0.200012 191.21 1.43001 190.02 2.91001 190.02H2.90001Z" fill="#B3B3B3"/>
<path d="M23.4 212.38V231.68C23.4 233.12 22.24 234.28 20.8 234.28H10.64C9.20001 234.28 8.04001 233.12 8.04001 231.68V216.25H0.200012V212.38H23.4ZM11.9 230.38L19.53 230.34C20.34 230.34 20.97 229.71 20.97 228.9V216.25H10.42V228.9C10.42 229.71 11.09 230.38 11.9 230.38Z" fill="#B3B3B3"/>
<path d="M2.90001 237.1H23.64V241.04H2.23001V246.1H0.200012V239.77C0.200012 238.29 1.43001 237.1 2.91001 237.1H2.90001Z" fill="#B3B3B3"/>
<path d="M8.00001 248.92C9.48001 248.92 10.67 250.12 10.67 251.56V263.44H15.8V250.47H17.8V263.48C17.8 265.62 16.47 267.38 14.81 267.38H0.200012V251.56C0.200012 250.12 1.40001 248.92 2.87001 248.92H8.00001ZM8.63001 252.82H2.20001V263.44H8.63001V252.82Z" fill="#B3B3B3"/>
<path d="M2.16001 278.73V280.87H0.200012V275.74C0.200012 274.26 1.36001 273.07 2.84001 273.07H15.67V269.17H17.67V273.07H23.4V276.97H17.67V280.87H15.67V276.97H3.96001C2.97001 276.97 2.17001 277.78 2.17001 278.73H2.16001Z" fill="#B3B3B3"/>
<path d="M15.14 282.99C16.62 282.99 17.81 284.19 17.81 285.66V298.81C17.81 300.29 16.62 301.48 15.14 301.48H7.44001V286.93H2.16001V301.17H0.200012V285.67C0.200012 284.19 1.40001 283 2.87001 283H15.14V282.99ZM15.88 286.93H9.48001V297.55H15.88V286.93Z" fill="#B3B3B3"/>
<path d="M23.41 0V17.93C23.41 19.58 22.07 20.95 20.39 20.95H13.46L13.32 21.09C12.76 21.83 11.88 22.21 10.96 22.21H3.06C1.37 22.21 0 20.84 0 19.19V0H23.41ZM10.02 16.52V4.85H3.41V16.52C3.41 17.01 3.8 17.4 4.29 17.4H9.17C9.63 17.4 10.01 17.01 10.01 16.52H10.02ZM13.39 15.25C13.39 15.71 13.78 16.13 14.27 16.13H19.16C19.65 16.13 20.04 15.71 20.04 15.25V4.85H13.4V15.25H13.39Z" fill="#B3B3B3"/>
<path d="M8.12 25.03C9.84 25.03 11.25 26.44 11.25 28.16V39.16H15.19V26.54H18.21V39.72C18.21 42.11 16.67 44.04 14.77 44.04H0V28.15C0 26.43 1.41 25.02 3.13 25.02H8.12V25.03ZM8.19 39.16V29.92H3.02V39.16H8.19Z" fill="#B3B3B3"/>
<path d="M15.08 72.71H0V67.79H15.19V62.24H0V57.35H15.15V51.8H0V46.88H18.21V69.59C18.21 71.31 16.8 72.72 15.08 72.72V72.71Z" fill="#B3B3B3"/>
<path d="M23.76 75.17V80.09H18.2V91.06C18.2 92.82 16.79 94.22 15.07 94.22H3.13C1.41 94.22 0 92.81 0 91.06V75.17H23.76ZM15.18 89.3V80.09H3.06V89.3H15.19H15.18Z" fill="#B3B3B3"/>
<path d="M18.21 115.11H0V99.75C0 98.06 1.37 96.69 3.06 96.69H18.21V101.44H2.92V110.4H18.21V115.11Z" fill="#B3B3B3"/>
</svg>
