<svg width="417" height="36" viewBox="0 0 417 36" fill="none" xmlns="http://www.w3.org/2000/svg">
<path d="M416 5.53H0V6.52H416V5.53Z" fill="#CED1D2"/>
<path d="M224.42 10.64L204.59 30.47H210.26L230.09 10.64H224.42Z" fill="#CED1D2"/>
<path d="M235.76 10.64L215.93 30.47H221.59L241.43 10.64H235.76Z" fill="#CED1D2"/>
<path d="M247.1 10.64L227.27 30.47H232.93L252.77 10.64H247.1Z" fill="#CED1D2"/>
<path d="M258.44 10.64L238.6 30.47H244.27L264.11 10.64H258.44Z" fill="#CED1D2"/>
<path d="M269.78 10.64L249.94 30.47H255.61L275.44 10.64H269.78Z" fill="#CED1D2"/>
<path d="M281.12 10.64L261.29 30.47H266.95L286.79 10.64H281.12Z" fill="#CED1D2"/>
<path d="M278.29 30.47L289.63 19.14V13.47L272.63 30.47H278.29Z" fill="#CED1D2"/>
<path d="M289.63 30.47V24.81L283.96 30.47H289.63Z" fill="#CED1D2"/>
<path d="M213.23 10.64L202.14 21.73V16.3L207.8 10.64H25.88C25.14 10.64 24.54 11.24 24.54 11.98V29.13C24.54 29.87 25.14 30.47 25.88 30.47H46.62H202.14V27.39L218.9 10.63H213.23V10.64ZM35.69 20.74C35.69 21.2 35.31 21.58 34.85 21.58H30.85V23.7H29.51V17.17H34.85C35.31 17.17 35.69 17.55 35.69 18.01V20.74ZM41.46 18.1H38.05C37.92 18.1 37.81 18.22 37.81 18.35V19.85H41.46V20.8H38.05C37.92 20.8 37.81 20.91 37.81 21.04V22.75H41.46V23.7H36.47V17.17H41.46V18.11V18.1ZM48.01 18.1H45.8V23.69H44.45V18.1H42.24V17.16H48.02V18.1H48.01ZM54.25 22.85C54.25 23.31 53.87 23.69 53.41 23.69H49.43C48.97 23.69 48.59 23.31 48.59 22.85V17.89C48.59 17.44 48.97 17.06 49.43 17.06H54.03V17.99H50.17C50.03 17.99 49.93 18.1 49.93 18.23V22.51C49.93 22.65 50.04 22.75 50.17 22.75H52.69C52.82 22.75 52.92 22.64 52.92 22.51V20.68H51.51V19.75H54.25V22.85ZM56.29 23.69H55.51L57.39 17.16H58.17L56.29 23.69ZM65.62 23.69H64.28V21.11H60.77V23.69H59.43V18C59.43 17.54 59.81 17.16 60.27 17.16H64.78C65.24 17.16 65.62 17.54 65.62 18V23.69ZM72.5 22.85C72.5 23.31 72.12 23.69 71.67 23.69H66.4V17.26H71.33C71.78 17.26 72.16 17.63 72.16 18.09V19.99L72.2 20.03C72.4 20.19 72.51 20.43 72.51 20.68V22.85H72.5ZM79.47 22.85C79.47 23.31 79.09 23.7 78.63 23.7H73.5V22.75H77.89C78.02 22.75 78.14 22.61 78.14 22.47V21.26C78.14 21.12 78.01 21.02 77.88 21.02H74.11C73.66 21 73.28 20.62 73.28 20.17V18.01C73.28 17.55 73.67 17.17 74.14 17.17H79.25V18.11H74.88C74.74 18.11 74.64 18.23 74.64 18.36V19.84C74.64 19.97 74.75 20.08 74.88 20.08H78.63C79.09 20.08 79.47 20.47 79.47 20.93V22.85ZM81.51 23.7H80.73L82.61 17.17H83.39L81.51 23.7ZM90.43 18.11H88.22V23.7H86.87V18.11H84.66V17.17H90.44V18.11H90.43ZM97.2 20.75C97.2 21.21 96.82 21.59 96.36 21.59H92.36V23.71H91.02V17.18H96.36C96.82 17.18 97.2 17.56 97.2 18.02V20.75ZM104.18 22.87C104.18 23.34 103.8 23.72 103.33 23.72H98.83C98.36 23.72 97.98 23.34 97.98 22.87V17.19H99.33V22.53C99.33 22.67 99.44 22.77 99.57 22.77H102.58C102.72 22.77 102.82 22.66 102.82 22.53V17.19H104.17V22.87H104.18ZM106.22 23.7H105.44L107.32 17.17H108.1L106.22 23.7ZM115.54 20.74C115.54 21.2 115.16 21.58 114.7 21.58H110.7V23.7H109.36V17.17H114.7C115.16 17.17 115.54 17.55 115.54 18.01V20.74ZM122.32 23.7H120.98V21.12H117.47V23.7H116.13V18.01C116.13 17.55 116.51 17.17 116.97 17.17H121.48C121.94 17.17 122.32 17.55 122.32 18.01V23.7ZM124.36 23.7H123.58L125.46 17.17H126.24L124.36 23.7ZM133.68 20.74C133.68 21.2 133.3 21.58 132.84 21.58H128.84V23.7H127.5V17.17H132.84C133.3 17.17 133.68 17.55 133.68 18.01V20.74ZM139.43 18.11H136.04C135.9 18.11 135.8 18.22 135.8 18.35V22.49C135.8 22.62 135.91 22.73 136.04 22.73H139.43V23.69H135.3C134.84 23.69 134.46 23.3 134.46 22.84V18C134.46 17.54 134.84 17.16 135.3 17.16H139.43V18.11ZM170.27 28.33H164.71V23.44L170.27 21.25V28.33ZM164.71 22.51V12.74H170.27V20.32L164.71 22.51ZM176.69 28.33H171.13V18.56L176.69 20.75V28.33ZM171.13 17.62V12.73H176.69V19.81L171.13 17.62ZM197.91 20.54V28.31H182.37V12.77H197.91V20.54Z" fill="#CED1D2"/>
<path d="M322.18 29.07H320.42C320.11 29.07 319.85 29.32 319.85 29.64C319.85 29.95 320.1 30.21 320.42 30.21H322.18C322.49 30.21 322.75 29.96 322.75 29.64C322.75 29.33 322.5 29.07 322.18 29.07Z" fill="#CED1D2"/>
<path d="M372.87 29.77H373.51V29.53H377.05V29.77H377.69V27.98H372.87V29.77ZM373.51 28.48H377.05V29.03H373.51V28.48Z" fill="#CED1D2"/>
<path d="M329.48 16.65H332.42V15.94H328.92C328.57 15.94 328.28 16.23 328.28 16.57V20.34C328.28 20.69 328.57 20.98 328.92 20.98H331.95C332.3 20.98 332.59 20.69 332.59 20.34V17.98H330.5V18.69H331.57V20.09C331.57 20.19 331.49 20.27 331.39 20.27H329.47C329.37 20.27 329.29 20.19 329.29 20.09V16.83C329.29 16.73 329.37 16.65 329.47 16.65H329.48Z" fill="#CED1D2"/>
<path d="M333.55 16.02V20.34C333.55 20.69 333.84 20.99 334.19 20.99H336.73V20.27H334.75C334.65 20.27 334.57 20.19 334.57 20.09V16.02H333.55Z" fill="#CED1D2"/>
<path d="M341.38 20.1C341.38 20.2 341.3 20.28 341.2 20.28H338.91C338.81 20.28 338.73 20.2 338.73 20.1V16.03H337.7V20.35C337.7 20.71 337.99 21 338.35 21H341.78C342.14 21 342.43 20.71 342.43 20.35V16.03H341.4V20.1H341.38Z" fill="#CED1D2"/>
<path d="M343.37 20.99H347.17V20.27H344.39V18.97C344.39 18.87 344.48 18.79 344.57 18.79H347.17V18.07H344.39V16.93C344.39 16.83 344.48 16.74 344.57 16.74H347.17V16.03H343.37V21V20.99Z" fill="#CED1D2"/>
<path d="M351.93 16.73H355.25V16.02H351.36C351 16.02 350.71 16.31 350.71 16.66V18.31C350.71 18.66 351 18.94 351.34 18.95H354.21C354.31 18.95 354.41 19.04 354.41 19.14V20.06C354.41 20.17 354.31 20.27 354.22 20.27H350.88V20.99H354.78C355.13 20.99 355.42 20.7 355.42 20.34V18.88C355.42 18.53 355.13 18.23 354.78 18.23H351.93C351.83 18.23 351.75 18.15 351.75 18.05V16.93C351.75 16.83 351.83 16.74 351.93 16.74V16.73Z" fill="#CED1D2"/>
<path d="M359.1 20.99V16.73H360.78V16.02H356.39V16.73H358.07V20.99H359.1Z" fill="#CED1D2"/>
<path d="M362.76 16.02H361.74V20.99H362.76V16.02Z" fill="#CED1D2"/>
<path d="M367.51 20.26H364.93C364.83 20.26 364.75 20.18 364.75 20.08V16.92C364.75 16.82 364.83 16.74 364.93 16.74H367.51V16.02H364.36C364.01 16.02 363.72 16.31 363.72 16.66V20.34C363.72 20.69 364.01 20.99 364.36 20.99H367.51V20.26Z" fill="#CED1D2"/>
<path d="M371.84 18.39L372.83 16.02H371.78L370.99 18.04H369.49V16.02H368.47V20.99H369.49V18.75H370.99L371.87 20.99H372.92L371.84 18.39Z" fill="#CED1D2"/>
<path d="M376.46 16.66V20.34C376.46 20.69 376.75 20.99 377.1 20.99H380.25V20.26H377.67C377.57 20.26 377.49 20.18 377.49 20.08V16.92C377.49 16.82 377.57 16.74 377.67 16.74H380.25V16.02H377.1C376.75 16.02 376.46 16.31 376.46 16.66Z" fill="#CED1D2"/>
<path d="M385.28 16.02H381.84C381.49 16.02 381.2 16.31 381.2 16.66V20.99H382.22V19.03H384.89V20.99H385.91V16.66C385.91 16.31 385.62 16.02 385.27 16.02H385.28ZM384.9 18.31H382.23V16.93C382.23 16.83 382.31 16.74 382.41 16.74H384.71C384.81 16.74 384.89 16.83 384.89 16.93V18.31H384.9Z" fill="#CED1D2"/>
<path d="M387.88 17.2L390.46 20.99H391.57V16.02H390.57V19.81L387.99 16.02H386.88V20.99H387.88V17.2Z" fill="#CED1D2"/>
<path d="M395.11 16.02V20.99H396.13V18.79H398.35V20.99H399.37V16.02H398.35V18.08H396.13V16.02H395.11Z" fill="#CED1D2"/>
<path d="M401.54 16.73H404.14V16.02H400.34V20.99H404.14V20.27H401.36V18.97C401.36 18.87 401.45 18.79 401.54 18.79H404.14V18.07H401.36V16.93C401.36 16.83 401.45 16.74 401.54 16.74V16.73Z" fill="#CED1D2"/>
<path d="M406.12 20.09V16.02H405.1V20.34C405.1 20.69 405.39 20.99 405.74 20.99H408.28V20.27H406.3C406.2 20.27 406.12 20.19 406.12 20.09Z" fill="#CED1D2"/>
<path d="M413.3 16.02H409.23V20.99H410.25V19.38H413.29C413.64 19.38 413.93 19.09 413.93 18.74V16.66C413.93 16.31 413.64 16.02 413.29 16.02H413.3ZM412.92 18.48C412.92 18.58 412.84 18.66 412.74 18.66H410.26V16.73H412.73C412.83 16.73 412.92 16.81 412.92 16.91V18.48Z" fill="#CED1D2"/>
<path d="M416.08 20.2H415.05V20.99H416.08V20.2Z" fill="#CED1D2"/>
<path d="M318.14 29.07H311.31L321.11 19.27C321.82 18.56 321.82 17.4 321.11 16.69L316.06 11.64C315.37 10.95 314.17 10.95 313.48 11.64L301.54 23.58C301.19 23.92 301 24.38 301 24.87C301 25.36 301.19 25.82 301.54 26.16L305.58 30.2H306.44H310.17H318.14C318.45 30.2 318.71 29.95 318.71 29.63C318.71 29.31 318.46 29.06 318.14 29.06V29.07ZM314.28 12.44C314.54 12.18 314.99 12.18 315.26 12.44L320.31 17.49C320.58 17.76 320.58 18.2 320.31 18.47L312.69 26.09L306.66 20.06L314.28 12.44ZM309.7 29.07H306.44H306.05L302.34 25.36C302.21 25.23 302.14 25.06 302.14 24.87C302.14 24.68 302.21 24.51 302.34 24.38L305.86 20.86L311.89 26.89L309.71 29.07H309.7Z" fill="#CED1D2"/>
<path d="M330.65 25.4C330.65 25.4 330.67 25.32 330.69 25.28C330.75 25.12 330.81 24.94 330.87 24.74H333.94V24.13H331.05C331.09 24 331.15 23.76 331.23 23.42L330.57 23.34C330.54 23.48 330.47 23.75 330.36 24.13H328.46V24.74H330.17C330.11 24.91 330.03 25.17 329.9 25.5H328.09V26.11H329.66C329.53 26.41 329.41 26.68 329.28 26.93V27.46H332.67C332.29 27.85 331.88 28.23 331.44 28.58C330.45 28.23 329.68 27.97 329.12 27.8L328.92 28.39C329.5 28.57 330.2 28.81 331.03 29.11C331.86 29.41 332.57 29.67 333.15 29.9L333.4 29.29C333.07 29.16 332.65 29.01 332.14 28.83C332.7 28.34 333.18 27.89 333.58 27.46V26.85H330.07C330.15 26.67 330.26 26.43 330.39 26.12H334.31V25.51H330.62C330.62 25.51 330.65 25.44 330.66 25.41L330.65 25.4Z" fill="#CED1D2"/>
<path d="M336 26.6C336 27.14 335.98 27.55 335.95 27.84C335.92 28.13 335.86 28.4 335.78 28.63C335.7 28.87 335.56 29.17 335.37 29.53L335.97 29.86C336.18 29.47 336.34 29.11 336.44 28.79C336.54 28.47 336.61 28.12 336.64 27.74H338.31V29.63H338.95V27.74H340.6V28.65C340.6 28.82 340.58 28.94 340.53 29C340.48 29.06 340.39 29.09 340.24 29.09C340.04 29.09 339.8 29.06 339.5 29.02L339.61 29.69C339.89 29.72 340.13 29.73 340.32 29.73C340.56 29.73 340.74 29.71 340.87 29.66C341 29.61 341.09 29.53 341.15 29.41C341.21 29.29 341.24 29.11 341.24 28.88V23.71H335.99V26.6H336ZM338.95 24.35H340.6V25.43H338.95V24.35ZM338.95 26.08H340.6V27.11H338.95V26.08ZM336.68 24.35H338.31V25.43H336.68V24.35ZM336.68 26.84V26.08H338.31V27.11H336.68V26.84Z" fill="#CED1D2"/>
<path d="M348.35 26.55L347.77 26.34C347.59 26.89 347.38 27.33 347.15 27.67C346.93 27.35 346.71 26.91 346.51 26.35L345.94 26.56C346.17 27.2 346.44 27.74 346.75 28.16C346.37 28.57 345.84 28.94 345.17 29.26L345.55 29.84C346.21 29.49 346.75 29.09 347.16 28.64C347.58 29.08 348.12 29.46 348.78 29.78L349.14 29.18C348.47 28.89 347.94 28.55 347.56 28.16C347.87 27.72 348.14 27.18 348.35 26.54V26.55Z" fill="#CED1D2"/>
<path d="M345.64 26.87C346.07 26.4 346.48 25.86 346.86 25.26L346.33 24.91C345.94 25.53 345.56 26.04 345.18 26.46L345.64 26.87Z" fill="#CED1D2"/>
<path d="M343.1 26.43C343.1 27.06 343.09 27.56 343.06 27.91C343.03 28.26 342.98 28.56 342.91 28.8C342.84 29.04 342.72 29.3 342.57 29.58L343.14 29.85C343.31 29.54 343.43 29.22 343.51 28.88C343.59 28.54 343.64 28.12 343.67 27.62H344.47V28.78C344.47 28.91 344.46 29 344.43 29.06C344.4 29.12 344.35 29.14 344.27 29.14C344.09 29.14 343.93 29.13 343.79 29.1L343.92 29.72C344.13 29.74 344.29 29.75 344.39 29.75C344.65 29.75 344.82 29.7 344.93 29.6C345.03 29.5 345.08 29.31 345.08 29.05V23.76H343.12V26.43H343.1ZM343.69 24.39H344.47V25.43H343.69V24.39ZM343.69 26.7V26.04H344.47V27.01H343.69V26.7Z" fill="#CED1D2"/>
<path d="M347.46 25.27C347.8 25.67 348.21 26.17 348.68 26.78L349.16 26.36C348.78 25.87 348.37 25.38 347.92 24.89L347.46 25.27Z" fill="#CED1D2"/>
<path d="M348.93 24.24H347.54C347.4 23.82 347.29 23.51 347.2 23.31L346.58 23.46C346.7 23.71 346.81 23.97 346.92 24.24H345.42V24.87H348.93V24.24Z" fill="#CED1D2"/>
<path d="M355.29 26.48H356.35V25.96H353.96C354 25.87 354.05 25.72 354.11 25.53H355.99V25.01H354.24C354.26 24.91 354.29 24.76 354.33 24.55H356.16V24.03H354.4L354.48 23.41L353.87 23.39C353.85 23.62 353.82 23.84 353.8 24.03H352.32V24.55H353.72L353.62 25.01H352.42V25.53H353.46C353.42 25.67 353.36 25.82 353.29 25.96H352.19V26.48H353C352.7 26.94 352.28 27.37 351.73 27.78L352.08 28.26C352.43 28 352.73 27.73 352.98 27.46V27.86H353.88V28.36H352.34V28.89H353.88V29.8H354.46V28.89H356.01V28.36H354.46V27.86H355.35V27.48C355.63 27.79 355.93 28.05 356.26 28.25L356.58 27.73C356.3 27.58 356.05 27.4 355.84 27.19C355.63 26.98 355.44 26.75 355.26 26.48H355.29ZM354.49 27.34V26.75H353.91V27.34H353.11C353.35 27.07 353.55 26.78 353.71 26.48H354.67C354.85 26.8 355.04 27.09 355.25 27.34H354.48H354.49Z" fill="#CED1D2"/>
<path d="M352 27.21L352.32 26.67C351.98 26.27 351.7 25.95 351.48 25.7V25.27H352.2V24.68H351.48V23.41H350.91V24.68H350.12V25.27H350.87C350.75 25.68 350.61 26.1 350.44 26.52C350.27 26.94 350.1 27.3 349.93 27.59L350.26 28.26C350.5 27.84 350.72 27.36 350.92 26.82V29.76H351.49V26.53C351.68 26.77 351.81 26.95 351.9 27.08L352.01 27.23L352 27.21Z" fill="#CED1D2"/>
<path d="M361.11 25.33H358.18V28.18H361.11V25.33ZM360.48 27.56H358.81V25.95H360.48V27.56Z" fill="#CED1D2"/>
<path d="M357.44 24.38H362.25V28.5C362.25 28.73 362.22 28.89 362.15 28.97C362.08 29.05 361.95 29.09 361.75 29.09C361.45 29.09 361.12 29.07 360.78 29.03L360.91 29.67C361.17 29.69 361.47 29.71 361.83 29.71C362.13 29.71 362.35 29.68 362.51 29.62C362.66 29.56 362.77 29.46 362.82 29.32C362.87 29.18 362.91 28.97 362.91 28.69V24.39H363.79V23.76H357.46V24.39L357.44 24.38Z" fill="#CED1D2"/>
<path d="M367.33 27.85L365.74 28.63V26.68H367.23V23.88H364.93V24.55H366.6V26.02H365.06V28.63C365.06 28.76 364.99 28.88 364.86 29L365.19 29.61C365.34 29.52 365.57 29.39 365.87 29.24C366.35 29.01 366.87 28.77 367.44 28.52L367.33 27.85Z" fill="#CED1D2"/>
<path d="M370.23 26.68C370.38 26.22 370.5 25.69 370.58 25.09H371.07V24.43H368.86C368.96 24.17 369.06 23.85 369.17 23.47L368.5 23.32C368.41 23.76 368.26 24.24 368.03 24.75C367.81 25.26 367.56 25.7 367.29 26.06L367.72 26.53C367.84 26.36 367.93 26.24 367.99 26.15C368.14 26.79 368.4 27.38 368.75 27.9C368.32 28.36 367.7 28.81 366.88 29.25L367.3 29.84C368.08 29.37 368.7 28.9 369.16 28.43C369.6 28.93 370.15 29.39 370.8 29.82L371.22 29.22C370.54 28.81 369.99 28.38 369.58 27.91C369.85 27.54 370.06 27.12 370.21 26.67L370.23 26.68ZM368.47 25.35L368.59 25.09H369.93C369.87 25.57 369.78 26 369.67 26.36C369.56 26.73 369.39 27.07 369.18 27.37C368.82 26.81 368.58 26.14 368.46 25.34L368.47 25.35Z" fill="#CED1D2"/>
<path d="M377.41 26.43H378.33V25.92H375.61V25.51H377.93V25.01H375.61V24.59H378.17V24.07H376.64C376.77 23.9 376.87 23.75 376.95 23.62L377.04 23.49L376.42 23.27C376.28 23.5 376.1 23.77 375.9 24.07H374.62C374.55 23.93 374.41 23.68 374.2 23.33L373.59 23.53C373.63 23.6 373.71 23.73 373.82 23.91C373.83 23.93 373.85 23.96 373.86 23.98C373.87 24.01 373.89 24.03 373.91 24.07H372.37V24.59H374.95V25.01H372.62V25.51H374.95V25.92H372.22V26.43H373.1C373.19 26.62 373.29 26.84 373.39 27.07H372.13V27.57H378.4V27.07H377.1C377.18 26.91 377.28 26.69 377.39 26.43H377.41ZM374.97 27.07H374.03L373.74 26.43H374.97V27.07ZM376.5 27.07H375.62V26.43H376.79C376.71 26.64 376.61 26.85 376.5 27.07Z" fill="#CED1D2"/>
<path d="M384.09 23.42H383.43V26.44H382.32V29.8H382.96V29.39H384.82V29.8H385.46V26.45H384.09V25.17H385.77V24.54H384.09V23.43V23.42ZM384.83 27.06V28.75H382.97V27.06H384.83Z" fill="#CED1D2"/>
<path d="M382.36 24.09L381.86 23.89C381.8 24.1 381.71 24.34 381.6 24.63C381.49 24.92 381.38 25.16 381.28 25.36L381.77 25.53C381.86 25.35 381.97 25.11 382.09 24.81C382.21 24.51 382.3 24.27 382.35 24.09H382.36Z" fill="#CED1D2"/>
<path d="M379.97 23.88L379.47 24.08C379.54 24.25 379.63 24.48 379.73 24.78C379.83 25.08 379.91 25.33 379.97 25.53L380.47 25.35C380.41 25.14 380.33 24.88 380.22 24.57C380.12 24.27 380.03 24.04 379.96 23.88H379.97Z" fill="#CED1D2"/>
<path d="M381.19 23.42H380.58V25.79H379.42V26.41H380.47C380.33 26.71 380.16 27.03 379.95 27.37C379.74 27.71 379.51 28.02 379.28 28.3L379.64 28.86C380.03 28.36 380.34 27.84 380.58 27.32V29.76H381.19V27.53C381.38 27.74 381.57 27.98 381.76 28.24L382.17 27.77C381.88 27.44 381.55 27.11 381.19 26.78V26.41H382.17V25.79H381.19V23.42Z" fill="#CED1D2"/>
<path d="M388.78 26.11C388.59 26.19 388.42 26.26 388.26 26.31V25.25H388.85V24.65H388.26V23.43H387.66V24.65H386.88V25.25H387.66V26.54C387.37 26.64 387.07 26.74 386.74 26.84L386.87 27.45L387.66 27.17V28.81C387.66 28.93 387.64 29.01 387.61 29.05C387.57 29.09 387.51 29.12 387.41 29.12C387.22 29.12 387.04 29.1 386.88 29.07L386.99 29.67C387.19 29.69 387.38 29.71 387.56 29.71C387.74 29.71 387.88 29.69 387.98 29.64C388.08 29.6 388.15 29.52 388.2 29.41C388.24 29.3 388.27 29.14 388.27 28.94V26.95L388.82 26.76L388.79 26.11H388.78Z" fill="#CED1D2"/>
<path d="M392.28 24.59H392.94V24.02H391.42C391.38 23.91 391.35 23.84 391.34 23.82C391.31 23.75 391.28 23.67 391.25 23.58C391.22 23.49 391.17 23.4 391.13 23.3L390.44 23.47C390.5 23.59 390.57 23.77 390.68 24.02H389.09V24.59H389.72L389.94 25.52H388.97V26.1H393.13V25.52H392.05L392.28 24.59ZM391.43 25.52H390.55L390.33 24.59H391.66C391.58 24.93 391.51 25.24 391.43 25.52Z" fill="#CED1D2"/>
<path d="M390.89 26.32L390.26 26.21C390.22 26.35 390.13 26.56 390.01 26.85H388.84V27.42H389.72C389.57 27.71 389.41 27.95 389.26 28.16C389.77 28.36 390.2 28.54 390.55 28.69C390.14 28.88 389.53 29.05 388.72 29.21L388.93 29.8C389.46 29.69 389.91 29.57 390.28 29.44C390.65 29.31 390.97 29.16 391.22 28.98C391.73 29.21 392.27 29.48 392.84 29.78L393.11 29.21C392.73 29.02 392.26 28.8 391.71 28.55C391.98 28.26 392.21 27.88 392.4 27.4H393.12V26.83H390.67C390.76 26.62 390.83 26.45 390.89 26.31V26.32ZM391.74 27.42C391.58 27.8 391.38 28.1 391.14 28.32C390.71 28.13 390.37 27.99 390.12 27.9C390.21 27.77 390.3 27.61 390.4 27.42H391.74Z" fill="#CED1D2"/>
<path d="M397.55 29.59H398.18V29.01H399.6V29.56H400.23V23.95H397.55V29.59ZM398.18 24.61H399.6V28.38H398.18V24.61Z" fill="#CED1D2"/>
<path d="M396.12 26.25V25.91H397.21V25.27H396.12V24.32C396.57 24.23 396.92 24.15 397.15 24.08L397 23.47C396.65 23.57 396.23 23.67 395.73 23.76C395.23 23.85 394.77 23.91 394.35 23.96L394.48 24.56C394.76 24.54 395.09 24.49 395.5 24.43V25.28H394.26V25.92H395.37C395.23 26.27 395.05 26.62 394.83 26.97C394.61 27.32 394.38 27.65 394.13 27.95L394.5 28.55C394.92 28.03 395.25 27.46 395.5 26.85V29.79H396.13V27C396.39 27.28 396.65 27.58 396.91 27.9L397.31 27.4C396.92 26.98 396.52 26.6 396.13 26.25H396.12Z" fill="#CED1D2"/>
<path d="M405.56 24.38C405.46 24.2 405.36 24.01 405.24 23.82C405.13 23.63 405.03 23.47 404.95 23.35L404.43 23.65C404.49 23.73 404.58 23.88 404.7 24.1C404.82 24.31 404.93 24.51 405.03 24.69L405.56 24.37V24.38Z" fill="#CED1D2"/>
<path d="M401.9 26.35C401.9 26.99 401.89 27.49 401.86 27.84C401.83 28.19 401.78 28.49 401.71 28.73C401.64 28.97 401.53 29.23 401.38 29.52L401.92 29.8C402.11 29.45 402.24 29.11 402.32 28.78C402.4 28.45 402.45 28.05 402.47 27.58H403.22V28.76C403.22 28.91 403.2 29 403.17 29.05C403.13 29.1 403.06 29.12 402.95 29.12C402.84 29.12 402.71 29.1 402.56 29.07L402.67 29.66C402.89 29.68 403.06 29.69 403.17 29.69C403.39 29.69 403.55 29.63 403.65 29.52C403.75 29.41 403.8 29.23 403.8 28.97V23.75H401.9V26.34V26.35ZM402.48 24.36H403.22V25.38H402.48V24.36ZM402.48 25.97H403.22V26.99H402.48V25.97Z" fill="#CED1D2"/>
<path d="M407.36 28.35C407.36 28.56 407.36 28.7 407.35 28.77C407.35 28.9 407.33 28.98 407.3 29.04C407.27 29.09 407.22 29.13 407.14 29.14C407.09 29.14 407.06 29.15 407.03 29.15C407 29.15 406.96 29.15 406.9 29.14C406.82 29.13 406.77 29.09 406.74 29.04C406.71 28.99 406.7 28.9 406.7 28.77V27.21H407.46V24.74H406.7C406.87 24.43 407.02 24.16 407.14 23.93L407.31 23.61L406.74 23.36C406.67 23.52 406.56 23.73 406.41 24.01C406.26 24.28 406.12 24.53 405.99 24.75H404.3V27.22H404.93C404.93 27.59 404.88 27.9 404.81 28.14C404.74 28.38 404.63 28.6 404.48 28.78C404.33 28.96 404.12 29.14 403.85 29.3L404.29 29.82C404.58 29.6 404.82 29.37 404.99 29.13C405.16 28.89 405.29 28.62 405.38 28.32C405.47 28.02 405.51 27.65 405.52 27.22H406.07V28.96C406.07 29.21 406.12 29.4 406.21 29.51C406.31 29.63 406.45 29.69 406.65 29.71C406.78 29.71 406.88 29.72 406.94 29.72C407.01 29.72 407.11 29.72 407.23 29.71C407.44 29.69 407.6 29.62 407.7 29.52C407.8 29.42 407.85 29.24 407.86 29C407.86 28.86 407.88 28.71 407.89 28.54C407.89 28.37 407.9 28.23 407.91 28.12V27.97L407.36 27.86C407.36 27.98 407.36 28.14 407.36 28.35ZM404.91 26.62V25.35H406.85V26.62H404.91Z" fill="#CED1D2"/>
<path d="M413.57 28.29H415.17V27.75H413.38V27.33H414.81V25.08H411.39V27.33H412.77C412.77 27.51 412.77 27.62 412.77 27.68C412.77 27.71 412.77 27.74 412.77 27.75H410.98V28.29H412.58C412.45 28.5 412.23 28.68 411.95 28.84C411.66 29 411.3 29.13 410.84 29.24L411.07 29.81C412.07 29.51 412.75 29.11 413.1 28.59C413.52 29.17 414.17 29.58 415.06 29.81L415.26 29.24C414.83 29.14 414.47 29.01 414.21 28.86C413.94 28.71 413.73 28.52 413.56 28.29H413.57ZM411.95 25.57H414.28V25.99H411.95V25.57ZM411.95 26.85V26.42H414.28V26.85H411.95Z" fill="#CED1D2"/>
<path d="M413.59 23.38V23.98H412.58V23.38H412V23.98H411.08V24.53H412V24.9H412.58V24.53H413.59V24.9H414.17V24.53H415.19V23.98H414.17V23.38H413.59Z" fill="#CED1D2"/>
<path d="M410.58 25.92L410.34 25.65V25.26H411.05V24.68H410.34V23.39H409.75V24.68H408.91V25.26H409.71C409.6 25.65 409.45 26.05 409.26 26.45C409.08 26.85 408.88 27.22 408.67 27.54L409.03 28.16C409.28 27.76 409.52 27.24 409.75 26.6V29.79H410.34V26.44C410.6 26.82 410.76 27.06 410.84 27.16L411.14 26.59L410.58 25.92Z" fill="#CED1D2"/>
<path d="M113.96 18.1H110.71V20.64H113.96C114.1 20.64 114.2 20.53 114.2 20.4V18.34C114.2 18.2 114.08 18.1 113.95 18.1H113.96Z" fill="#CED1D2"/>
<path d="M120.75 18.1H117.73C117.59 18.1 117.49 18.22 117.49 18.35V20.17H121V18.35C121 18.22 120.89 18.1 120.76 18.1H120.75Z" fill="#CED1D2"/>
<path d="M70.85 19.77V18.43C70.85 18.29 70.73 18.19 70.61 18.19H67.75V20.02H70.61C70.74 20.02 70.85 19.91 70.85 19.78V19.77Z" fill="#CED1D2"/>
<path d="M132.11 18.1H128.86V20.64H132.11C132.24 20.64 132.35 20.53 132.35 20.4V18.34C132.35 18.2 132.23 18.1 132.1 18.1H132.11Z" fill="#CED1D2"/>
<path d="M70.95 20.94H67.74V22.76H70.95C71.09 22.76 71.19 22.65 71.19 22.52V21.18C71.19 21.05 71.08 20.95 70.95 20.95V20.94Z" fill="#CED1D2"/>
<path d="M95.62 18.1H92.37V20.64H95.62C95.76 20.64 95.86 20.53 95.86 20.4V18.34C95.86 18.2 95.74 18.1 95.61 18.1H95.62Z" fill="#CED1D2"/>
<path d="M64.05 18.1H61.03C60.89 18.1 60.79 18.22 60.79 18.35V20.17H64.3V18.35C64.3 18.22 64.19 18.1 64.06 18.1H64.05Z" fill="#CED1D2"/>
<path d="M34.1 18.1H30.85V20.64H34.1C34.24 20.64 34.34 20.53 34.34 20.4V18.34C34.34 18.2 34.22 18.1 34.09 18.1H34.1Z" fill="#CED1D2"/>
<path d="M184.98 17.96V21.84V25.73H186.27H187.57V23.14V20.55H190.16H192.75V21.84V23.14H194.04H195.34V20.55V17.96H190.16H184.98Z" fill="#CED1D2"/>
<path d="M190.16 23.14V24.43V25.73H191.45H192.75V24.43V23.14H191.45H190.16Z" fill="#CED1D2"/>
</svg>
