<svg xmlns="http://www.w3.org/2000/svg" width="16" height="16" viewBox="0 0 16 16"><path d="M12.5,14.5h1a1,1,0,0,0,1-1V1.5a1,1,0,0,0-1-1h-1" style="fill:none;stroke:#949494;stroke-linecap:round;stroke-linejoin:round"/><path d="M2.5.5h-1a1,1,0,0,0-1,1v12a1,1,0,0,0,1,1h1" style="fill:none;stroke:#949494;stroke-linecap:round;stroke-linejoin:round"/><path d="M8,7v5H7V7H8M8,6H7A1,1,0,0,0,6,7v5a1,1,0,0,0,1,1H8a1,1,0,0,0,1-1V7A1,1,0,0,0,8,6Z" style="fill:#009688"/><path d="M7.5,3a.5.5,0,1,1-.5.5A.5.5,0,0,1,7.5,3m0-1A1.5,1.5,0,1,0,9,3.5,1.5,1.5,0,0,0,7.5,2Z" style="fill:#009688"/></svg>