<svg xmlns="http://www.w3.org/2000/svg" width="16" height="16" viewBox="0 0 16 16"><path d="M14.5,2.5v-1a1,1,0,0,0-1-1h-4" style="fill:none;stroke:#949494;stroke-linecap:square;stroke-linejoin:round"/><path d="M5.5.5h-4a1,1,0,0,0-1,1v1" style="fill:none;stroke:#949494;stroke-linecap:square;stroke-linejoin:round"/><path d="M.5,12.5v1a1,1,0,0,0,1,1h4" style="fill:none;stroke:#949494;stroke-linecap:square;stroke-linejoin:round"/><path d="M9.5,14.5h4a1,1,0,0,0,1-1v-1" style="fill:none;stroke:#949494;stroke-linecap:square;stroke-linejoin:round"/><line x1="7.5" y1="0.5" x2="7.5" y2="14.5" style="fill:none;stroke:#949494;stroke-linecap:square;stroke-linejoin:round"/><circle cx="11.5" cy="7.5" r="3" style="fill:none;stroke:#009688;stroke-miterlimit:10"/><circle cx="3.5" cy="7.5" r="3" style="fill:none;stroke:#009688;stroke-miterlimit:10"/><circle cx="3.5" cy="7.5" r="0.5" style="fill:#009688"/><circle cx="11.5" cy="7.5" r="0.5" style="fill:#009688"/></svg>