<svg width="100" height="100" viewBox="0 0 100 100" fill="none" xmlns="http://www.w3.org/2000/svg">
<g clip-path="url(#clip0_44_12301)">
<path fill-rule="evenodd" clip-rule="evenodd" d="M32.2533 15.2624C37.018 12.8234 42.3505 11.3358 48 11.0504V13.0531C42.7143 13.3347 37.7231 14.7256 33.2549 16.9972L32.2533 15.2624ZM28.791 17.2656C24.1876 20.2544 20.2542 24.1879 17.2655 28.7913L19.0002 29.7929C21.81 25.4912 25.4909 21.8102 29.7926 19.0004L28.791 17.2656ZM11.0504 48C11.3358 42.3506 12.8233 37.0183 15.2623 32.2536L16.997 33.2552C14.7255 37.7233 13.3347 42.7145 13.0532 48H11.0504ZM70.2069 81C74.5088 78.1901 78.1899 74.509 80.9998 70.2072L82.7345 71.2087C79.7457 75.8124 75.8121 79.7459 71.2084 82.7347L70.2069 81ZM88.9496 52C88.6643 57.6494 87.1767 62.9818 84.7377 67.7465L83.003 66.7449C85.2745 62.2768 86.6654 57.2856 86.9469 52H88.9496ZM52 11.0504V13.0531C57.2855 13.3347 62.2765 14.7254 66.7446 16.9969L67.7462 15.2621C62.9816 12.8232 57.6493 11.3358 52 11.0504ZM71.2085 17.2653L70.2069 19C74.5088 21.8099 78.1899 25.491 80.9998 29.7929L82.7346 28.7913C79.7458 24.1877 75.8121 20.2541 71.2085 17.2653ZM29.7926 80.9996C25.491 78.1898 21.81 74.5089 19.0002 70.2072L17.2655 71.2087C20.2542 75.8122 24.1876 79.7456 28.7911 82.7344L29.7926 80.9996ZM13.0532 52C13.3347 57.2856 14.7255 62.2767 16.9971 66.7449L15.2623 67.7465C12.8233 62.9818 11.3358 57.6494 11.0504 52H13.0532ZM84.7378 32.2536L83.003 33.2552C85.2745 37.7233 86.6654 42.7144 86.9469 48H88.9496C88.6643 42.3506 87.1767 37.0182 84.7378 32.2536Z" fill="#009688"/>
<path fill-rule="evenodd" clip-rule="evenodd" d="M4.46154 50C4.46154 24.8498 24.8498 4.46154 50 4.46154C75.1502 4.46154 95.5385 24.8498 95.5385 50C95.5385 66.1387 87.1432 80.3165 74.4817 88.4047L75.7138 90.5387C89.1106 82.0233 98 67.0498 98 50C98 23.4903 76.5097 2 50 2C23.4903 2 2 23.4903 2 50C2 67.0493 10.8889 82.0225 24.2851 90.538L25.5172 88.404C12.8563 80.3157 4.46154 66.1382 4.46154 50Z" fill="#6B6B6B"/>
</g>
<defs>
<clipPath id="clip0_44_12301">
<rect width="100" height="100" fill="white"/>
</clipPath>
</defs>
</svg>
