<svg width="54" height="54" viewBox="0 0 54 54" fill="none" xmlns="http://www.w3.org/2000/svg">
<path fill-rule="evenodd" clip-rule="evenodd" d="M45.7087 38.3055C43.8031 44.0795 37.9192 50.0033 27.2161 50.0033C16.4344 50.0033 10.1056 44.7155 8.07727 38.5938L8.50623 38.3615C8.86449 38.2887 9.28631 38.1478 9.80471 37.9747C11.502 37.4079 14.2347 36.4952 19.1613 36.4952C23.3358 36.4952 25.8759 37.5016 28.3182 38.4693C30.5793 39.3651 32.7565 40.2277 36.0692 40.2277C39.4226 40.2277 42.946 39.3069 45.7087 38.3055Z" fill="#23A4DC"/>
<path d="M7.35773 34.1636C7.35773 26.4128 22.7533 1.65861 27.216 1.65881C31.6787 1.65902 46.4052 27.5191 46.4052 34.1636C46.4052 40.8082 40.551 50.0033 27.216 50.0033C13.8811 50.0033 7.35773 41.9145 7.35773 34.1636Z" stroke="#E1E1E1" stroke-width="1.65888"/>
<path d="M26.1253 34.1844H34.8742V37.9766H19.795V35.1698L26.3941 27.7646C27.5287 26.4905 28.315 25.4952 28.753 24.7786C29.2108 24.042 29.4398 23.2856 29.4398 22.5092C29.4398 21.6532 29.2009 20.9665 28.7231 20.4489C28.2454 19.9313 27.5984 19.6725 26.7822 19.6725C25.9462 19.6725 25.2096 19.9811 24.5726 20.5982C23.9356 21.1954 23.4479 22.0514 23.1095 23.1661L19.7054 21.1954C20.223 19.4237 21.1586 18.0701 22.5123 17.1344C23.8659 16.1789 25.4286 15.7012 27.2003 15.7012C28.5937 15.7012 29.7981 15.9898 30.8133 16.5671C31.8484 17.1245 32.6348 17.9008 33.1722 18.8962C33.7296 19.8915 34.0083 21.0262 34.0083 22.3002C34.0083 23.5543 33.6998 24.7288 33.0827 25.8237C32.4855 26.8986 31.4105 28.302 29.8578 30.0339L26.1253 34.1844Z" fill="white"/>
</svg>
