<svg width="54" height="54" viewBox="0 0 54 54" fill="none" xmlns="http://www.w3.org/2000/svg">
<path fill-rule="evenodd" clip-rule="evenodd" d="M9.64204 26.4449C8.28847 29.5938 7.44196 32.3462 7.44196 34.1636C7.44196 41.1348 12.719 48.3795 23.4827 49.7664H30.8854C41.6905 48.2863 46.4895 40.1796 46.4895 34.1636C46.4895 32.6462 45.7214 30.1266 44.483 27.1418C41.9625 27.9536 38.9968 28.6157 36.1533 28.6157C32.8407 28.6157 30.6634 27.753 28.4023 26.8572C25.96 25.8896 23.4199 24.8832 19.2455 24.8832C14.3189 24.8832 11.5862 25.7958 9.88887 26.3626C9.80406 26.391 9.72183 26.4184 9.64204 26.4449Z" fill="#23A4DC"/>
<path d="M7.44189 34.1636C7.44189 26.4128 22.8374 1.65861 27.3002 1.65881C31.7629 1.65902 46.4894 27.5191 46.4894 34.1636C46.4894 40.8082 40.6351 50.0033 27.3002 50.0033C13.9652 50.0033 7.44189 41.9145 7.44189 34.1636Z" stroke="#E1E1E1" stroke-width="1.65888"/>
<path d="M31.0468 26.5702C32.2611 27.028 33.1867 27.7048 33.8237 28.6006C34.4608 29.4765 34.7793 30.5714 34.7793 31.8852C34.7793 33.2389 34.4309 34.4034 33.7342 35.3788C33.0573 36.3343 32.1317 37.0709 30.9572 37.5884C29.8026 38.0861 28.5186 38.3349 27.1053 38.3349C25.2938 38.3349 23.7112 37.9069 22.3576 37.051C21.0238 36.195 20.0783 34.9508 19.5209 33.3185L22.9548 31.3477C23.2733 32.3829 23.8008 33.1692 24.5373 33.7067C25.2739 34.2242 26.1 34.483 27.0157 34.483C27.9115 34.483 28.658 34.2242 29.2552 33.7067C29.8723 33.1891 30.1808 32.4725 30.1808 31.5568C30.1808 29.5462 28.648 28.5409 25.5824 28.5409H24.7762V24.9577H25.9407C27.0754 24.9577 27.9414 24.689 28.5385 24.1515C29.1557 23.5941 29.4642 22.9073 29.4642 22.0912C29.4642 21.3347 29.2154 20.7276 28.7177 20.2697C28.22 19.8119 27.5731 19.583 26.7768 19.583C25.9208 19.583 25.1743 19.8616 24.5373 20.419C23.9202 20.9565 23.4425 21.7329 23.1041 22.7481L19.8195 20.8669C20.337 19.1948 21.2428 17.9208 22.5367 17.0449C23.8306 16.1491 25.3635 15.7012 27.1351 15.7012C28.5087 15.7012 29.713 15.96 30.7482 16.4775C31.8032 16.9752 32.6194 17.6819 33.1967 18.5976C33.774 19.5133 34.0626 20.5683 34.0626 21.7627C34.0626 22.8775 33.8038 23.843 33.2863 24.6591C32.7886 25.4753 32.0421 26.1123 31.0468 26.5702Z" fill="white"/>
</svg>
