<svg width="54" height="54" viewBox="0 0 54 54" fill="none" xmlns="http://www.w3.org/2000/svg">
<path fill-rule="evenodd" clip-rule="evenodd" d="M9.80207 26.4449C8.4485 29.5938 7.60199 32.3462 7.60199 34.1636C7.60199 41.1348 12.879 48.3795 23.6428 49.7664H31.0454C41.8505 48.2863 46.6495 40.1796 46.6495 34.1636C46.6495 32.6462 45.8815 30.1266 44.643 27.1418C42.1225 27.9536 39.1568 28.6157 36.3134 28.6157C33.0007 28.6157 30.8235 27.753 28.5624 26.8572C26.1201 25.8896 23.58 24.8832 19.4055 24.8832C14.4789 24.8832 11.7462 25.7958 10.0489 26.3626C9.96409 26.391 9.88186 26.4184 9.80207 26.4449Z" fill="#94DFFF"/>
<path d="M7.60193 34.1636C7.60193 26.4128 22.9975 1.65861 27.4602 1.65881C31.9229 1.65902 46.6494 27.5191 46.6494 34.1636C46.6494 40.8082 40.7952 50.0033 27.4602 50.0033C14.1253 50.0033 7.60193 41.9145 7.60193 34.1636Z" stroke="#858585" stroke-width="1.65888"/>
<path d="M31.2068 26.5702C32.4211 27.028 33.3468 27.7048 33.9838 28.6006C34.6208 29.4765 34.9393 30.5714 34.9393 31.8852C34.9393 33.2389 34.5909 34.4034 33.8942 35.3788C33.2174 36.3343 32.2917 37.0709 31.1172 37.5884C29.9626 38.0861 28.6787 38.3349 27.2653 38.3349C25.4538 38.3349 23.8712 37.9069 22.5176 37.051C21.1839 36.195 20.2383 34.9508 19.6809 33.3185L23.1148 31.3477C23.4333 32.3829 23.9608 33.1692 24.6974 33.7067C25.4339 34.2242 26.26 34.483 27.1757 34.483C28.0715 34.483 28.818 34.2242 29.4152 33.7067C30.0323 33.1891 30.3409 32.4725 30.3409 31.5568C30.3409 29.5462 28.8081 28.5409 25.7425 28.5409H24.9362V24.9577H26.1008C27.2355 24.9577 28.1014 24.689 28.6986 24.1515C29.3157 23.5941 29.6242 22.9073 29.6242 22.0912C29.6242 21.3347 29.3754 20.7276 28.8777 20.2697C28.3801 19.8119 27.7331 19.583 26.9369 19.583C26.0809 19.583 25.3344 19.8616 24.6974 20.419C24.0803 20.9565 23.6025 21.7329 23.2641 22.7481L19.9795 20.8669C20.4971 19.1948 21.4028 17.9208 22.6968 17.0449C23.9907 16.1491 25.5235 15.7012 27.2952 15.7012C28.6687 15.7012 29.8731 15.96 30.9082 16.4775C31.9633 16.9752 32.7794 17.6819 33.3567 18.5976C33.934 19.5133 34.2227 20.5683 34.2227 21.7627C34.2227 22.8775 33.9639 23.843 33.4463 24.6591C32.9486 25.4753 32.2021 26.1123 31.2068 26.5702Z" fill="#858585"/>
</svg>
