<svg width="54" height="54" viewBox="0 0 54 54" fill="none" xmlns="http://www.w3.org/2000/svg">
<path fill-rule="evenodd" clip-rule="evenodd" d="M17.0576 13.3563C12.2364 20.8736 7.76624 29.9871 7.76624 34.1636C7.76624 41.1346 13.0429 48.379 23.8059 49.7662H31.2107C42.0151 48.2858 46.8137 40.1794 46.8137 34.1636C46.8137 31.0432 43.5658 23.6847 39.6583 16.757C38.6005 16.9125 37.5307 17.0034 36.4776 17.0034C33.165 17.0034 30.9877 16.1407 28.7266 15.2449C26.2843 14.2773 23.7442 13.2709 19.5698 13.2709C18.66 13.2709 17.825 13.302 17.0576 13.3563Z" fill="#94DFFF"/>
<path d="M7.76617 34.1636C7.76617 26.4128 23.1617 1.65861 27.6245 1.65881C32.0872 1.65902 46.8137 27.5191 46.8137 34.1636C46.8137 40.8082 40.9594 50.0033 27.6245 50.0033C14.2895 50.0033 7.76617 41.9145 7.76617 34.1636Z" stroke="#858585" stroke-width="1.65888"/>
<path d="M32.4015 24.7189V29.8249H35.3576V33.5275H32.4015V37.9766H28.1614V33.5275H18.7854V30.5714L26.3101 16.0894H30.8488L23.6526 29.8249H28.1614V24.7189H32.4015Z" fill="#858585"/>
</svg>
