<svg width="54" height="54" viewBox="0 0 54 54" fill="none" xmlns="http://www.w3.org/2000/svg">
<path d="M7.27356 34.1636C7.27356 26.4128 22.6691 1.65861 27.1318 1.65881C31.5946 1.65902 46.3211 27.5191 46.3211 34.1636C46.3211 40.8082 40.4668 50.0033 27.1318 50.0033C13.7969 50.0033 7.27356 41.9145 7.27356 34.1636Z" fill="#23A4DC"/>
<path d="M7.27356 34.1636C7.27356 26.4128 22.6691 1.65861 27.1318 1.65881C31.5946 1.65902 46.3211 27.5191 46.3211 34.1636C46.3211 40.8082 40.4668 50.0033 27.1318 50.0033C13.7969 50.0033 7.27356 41.9145 7.27356 34.1636Z" stroke="#E1E1E1" stroke-width="1.65888"/>
<path d="M27.8328 23.7633C29.0869 23.7633 30.2315 24.0619 31.2667 24.6591C32.3018 25.2364 33.118 26.0725 33.7152 27.1674C34.3124 28.2423 34.611 29.4865 34.611 30.8998C34.611 32.4326 34.2725 33.7664 33.5957 34.9011C32.9388 36.0158 32.0331 36.8718 30.8785 37.469C29.7239 38.0463 28.4499 38.3349 27.0564 38.3349C25.4042 38.3349 23.9709 37.9567 22.7566 37.2003C21.5622 36.4438 20.7162 35.2992 20.2185 33.7664L23.7121 31.7658C23.9709 32.6616 24.3889 33.3384 24.9662 33.7962C25.5435 34.2541 26.2203 34.483 26.9967 34.483C27.9721 34.483 28.7186 34.1645 29.2362 33.5275C29.7737 32.8706 30.0424 32.0445 30.0424 31.0491C30.0424 30.0538 29.7637 29.2277 29.2063 28.5708C28.6688 27.8939 27.8925 27.5555 26.8773 27.5555C25.5634 27.5555 24.5183 28.2025 23.742 29.4964L20.6365 27.9736L22.1295 16.0894H33.5957V19.792H25.7724L25.1752 24.3008C26.0312 23.9425 26.9171 23.7633 27.8328 23.7633Z" fill="white"/>
</svg>
