<svg xmlns="http://www.w3.org/2000/svg" width="50" height="50" viewBox="0 0 50 50"><path d="M18.5,7.5v-1a1,1,0,0,1,1-1h17a1,1,0,0,1,1,1v17a1,1,0,0,1-1,1h-1" style="fill:none;stroke:gray;stroke-linecap:round;stroke-linejoin:round"/><path d="M16.5,9.5v-1a1,1,0,0,1,1-1h17a1,1,0,0,1,1,1v17a1,1,0,0,1-1,1h-1" style="fill:none;stroke:gray;stroke-linecap:round;stroke-linejoin:round"/><rect x="14.5" y="9.5" width="19" height="19" rx="1" style="fill:none;stroke:gray;stroke-linecap:round;stroke-linejoin:round"/><polyline points="30.5 25.5 17.5 25.5 17.5 12.5" style="fill:none;stroke:#009688;stroke-linecap:round;stroke-linejoin:round"/><line x1="20.5" y1="22.5" x2="20.5" y2="18.5" style="fill:none;stroke:#009688;stroke-linecap:round;stroke-linejoin:round"/><line x1="24.5" y1="22.5" x2="24.5" y2="14.5" style="fill:none;stroke:#009688;stroke-linecap:round;stroke-linejoin:round"/><line x1="28.5" y1="22.5" x2="28.5" y2="16.5" style="fill:none;stroke:#009688;stroke-linecap:round;stroke-linejoin:round"/></svg>