<svg xmlns="http://www.w3.org/2000/svg" width="16" height="16" viewBox="0 0 16 16"><path d="M5.5,3.374A5.893,5.893,0,0,1,7.5,3a7.644,7.644,0,0,1,6.446,4.5,8.7,8.7,0,0,1-1.838,2.487l.717.717a9.687,9.687,0,0,0,2.221-3.2A8.654,8.654,0,0,0,7.5,2a7.069,7.069,0,0,0-2.765.614Z" style="fill:gray"/><path d="M7.5,4a3.464,3.464,0,0,0-1.165.214l4.451,4.451A3.464,3.464,0,0,0,11,7.5,3.5,3.5,0,0,0,7.5,4Z" style="fill:gray"/><path d="M9.505,11.626A5.893,5.893,0,0,1,7.5,12,7.644,7.644,0,0,1,1.054,7.5,8.7,8.7,0,0,1,2.892,5.013L2.175,4.3A9.687,9.687,0,0,0-.046,7.5,8.654,8.654,0,0,0,7.5,13a7.073,7.073,0,0,0,2.765-.614Z" style="fill:gray"/><path d="M7.5,11a3.464,3.464,0,0,0,1.165-.214L4.214,6.335A3.464,3.464,0,0,0,4,7.5,3.5,3.5,0,0,0,7.5,11Z" style="fill:gray"/><path d="M13.5,14a.5.5,0,0,1-.354-.146l-12-12a.5.5,0,0,1,.708-.708l12,12A.5.5,0,0,1,13.5,14Z" style="fill:gray"/></svg>