<svg width="7" height="7" viewBox="0 0 7 7" fill="none" xmlns="http://www.w3.org/2000/svg">
<path fill-rule="evenodd" clip-rule="evenodd" d="M0.809942 3.10759C0.613683 2.95218 0.327761 2.96513 0.146446 3.14645C-0.0488168 3.34171 -0.0488168 3.65829 0.146446 3.85355L2.97487 6.68198L3.01848 6.72083C3.21474 6.87625 3.50066 6.8633 3.68198 6.68198L6.51041 3.85355L6.54926 3.80994C6.70467 3.61368 6.69172 3.32776 6.51041 3.14645L6.4668 3.10759C6.27054 2.95218 5.98461 2.96513 5.8033 3.14645L3.32838 5.62132L0.853552 3.14645L0.809942 3.10759ZM0.809941 0.107593C0.613683 -0.0478196 0.32776 -0.0348685 0.146445 0.146446C-0.0488167 0.341709 -0.0488167 0.658291 0.146445 0.853553L2.97487 3.68198L3.01848 3.72083C3.21474 3.87625 3.50066 3.8633 3.68198 3.68198L6.51041 0.853554L6.54926 0.809943C6.70467 0.613684 6.69172 0.327762 6.51041 0.146447L6.4668 0.107593C6.27054 -0.0478193 5.98461 -0.0348683 5.8033 0.146447L3.32838 2.62132L0.853552 0.146446L0.809941 0.107593Z" fill="#6B6B6B"/>
</svg>
