<svg width="33" height="31" viewBox="0 0 33 31" fill="none" xmlns="http://www.w3.org/2000/svg">
<path d="M32.2153 5.96128C31.5988 5.73822 30.922 6.06267 30.7031 6.68294L29.7873 9.2678C28.7152 6.83324 27.022 4.6933 24.8661 3.08297C18.0116 -2.03427 8.24859 -0.636275 3.10974 6.20103C0.622547 9.50995 -0.425811 13.5882 0.15753 17.6832C0.743239 21.7949 2.90148 25.4283 6.2347 27.9153C9.02362 29.9956 12.2917 31 15.5327 31C20.2668 31 24.9454 28.8589 27.9935 24.802C29.3424 23.008 30.2665 20.9969 30.7374 18.8224C30.877 18.1794 30.4736 17.5437 29.8346 17.4029C29.198 17.2645 28.5662 17.6677 28.4265 18.313C28.0278 20.1464 27.248 21.845 26.1074 23.3623C21.7483 29.1595 13.4643 30.3416 7.64158 25.9985C4.82071 23.8931 2.99496 20.8204 2.49918 17.3445C2.00577 13.8853 2.8932 10.4392 4.99465 7.64198C9.35256 1.84243 17.6329 0.655561 23.4581 5.00105C25.5666 6.57558 27.1498 8.75131 28.0053 11.2121L23.9385 9.61134C23.3315 9.37397 22.644 9.67456 22.4062 10.2889C22.1683 10.9032 22.4701 11.5938 23.0782 11.8336L29.0631 14.1894C29.2039 14.2443 29.3495 14.2717 29.4926 14.2717C29.5128 14.2717 29.5305 14.2646 29.5506 14.2634C29.5956 14.2682 29.6405 14.2872 29.6855 14.2872C30.1706 14.2872 30.6274 13.9831 30.7989 13.4952L32.93 7.48691C33.1512 6.86544 32.8306 6.18195 32.2153 5.96128Z" fill="#353535"/>
</svg>
