<svg xmlns="http://www.w3.org/2000/svg" width="16" height="16" viewBox="0 0 16 16"><rect x="7" y="4" width="1" height="1" style="fill:#009688"/><rect x="7" y="2" width="1" height="1" style="fill:#009688"/><rect x="7" width="1" height="1" style="fill:#009688"/><rect y="7" width="1" height="1" style="fill:#009688"/><rect x="2" y="7" width="1" height="1" style="fill:#009688"/><rect x="4" y="7" width="1" height="1" style="fill:#009688"/><rect x="6" y="7" width="1" height="1" style="fill:#009688"/><rect x="8" y="7" width="1" height="1" style="fill:#009688"/><rect x="10" y="7" width="1" height="1" style="fill:#009688"/><rect x="12" y="7" width="1" height="1" style="fill:#009688"/><rect x="14" y="7" width="1" height="1" style="fill:#009688"/><rect x="7" y="14" width="1" height="1" style="fill:#009688"/><rect x="7" y="12" width="1" height="1" style="fill:#009688"/><rect x="7" y="10" width="1" height="1" style="fill:#009688"/><rect x="7" y="6" width="1" height="3" style="fill:#009688"/><circle cx="3" cy="3" r="2.5" style="fill:none;stroke:#949494;stroke-linecap:round;stroke-linejoin:round"/><circle cx="12" cy="3" r="2.5" style="fill:none;stroke:#949494;stroke-linecap:round;stroke-linejoin:round"/><circle cx="3" cy="12" r="2.5" style="fill:none;stroke:#949494;stroke-linecap:round;stroke-linejoin:round"/><circle cx="12" cy="12" r="2.5" style="fill:none;stroke:#949494;stroke-linecap:round;stroke-linejoin:round"/></svg>