<svg xmlns="http://www.w3.org/2000/svg" width="16" height="16" viewBox="0 0 16 16"><path d="M14.053,2.946l.09.209.066.172.085.263a4.91,4.91,0,0,1,.15.687l.033.283.022.433a6.015,6.015,0,0,1-.034.732,7.18,7.18,0,0,1-.244,1.234,8.938,8.938,0,0,1-.545,1.414l-.146.289a11.038,11.038,0,0,1-.863,1.379,12.225,12.225,0,0,1-1.045,1.24,12.4,12.4,0,0,1-1.15,1.051l-.488.372-.7.465-.818.454-.456.214a8.625,8.625,0,0,1-1.345.46,6.822,6.822,0,0,1-1.458.2l-.446-.006-.3-.024a4.976,4.976,0,0,1-.744-.136,4.53,4.53,0,0,1-.954-.368,4.224,4.224,0,0,1-.786-.532" style="fill:none;stroke:#949494;stroke-linecap:round;stroke-linejoin:round"/><path d="M13.584,2.164a4.333,4.333,0,0,1,.469.782" style="fill:none;stroke:#949494;stroke-linecap:round;stroke-linejoin:round"/><path d="M5.545,9.25a7.659,7.659,0,0,0,3.7-3.6" style="fill:none;stroke:#949494;stroke-linecap:round;stroke-linejoin:round"/><path d="M1.98,13.434a4.116,4.116,0,0,1-.719-.8l-.238-.394L.911,12.01l-.16-.4-.07-.226-.129-.609L.5,10.2a5.6,5.6,0,0,1,.029-.744A6.691,6.691,0,0,1,.75,8.321L1,7.575l.154-.369.171-.367a10.925,10.925,0,0,1,.612-1.076l.233-.346.5-.67c.256-.32.53-.63.819-.928s.566-.558.866-.818q.426-.368.878-.694l.606-.41.321-.2a10.036,10.036,0,0,1,1.2-.606L7.933.878,8.325.756,9.067.587,9.528.526,9.68.513a5.242,5.242,0,0,1,1.133.041l.279.05.159.037.221.06a4.317,4.317,0,0,1,.645.254,4.1,4.1,0,0,1,1.467,1.209,2.606,2.606,0,0,1,.287.48" style="fill:none;stroke:#949494;stroke-linecap:round;stroke-linejoin:round"/><path d="M9.438,5.155a4.52,4.52,0,0,1-.192.5" style="fill:none;stroke:#949494;stroke-linecap:round;stroke-linejoin:round"/><path d="M9.452,5.11l-.067.01-.311.07-.47.169-.192.087-.194.1-.572.346-.568.431-.567.529-.524.6a6.579,6.579,0,0,0-.437.637,5.191,5.191,0,0,0-.316.612L5.1,9.055l-.049.171-.033.14-.012.067" style="fill:none;stroke:#949494;stroke-linecap:round;stroke-linejoin:round"/><path d="M9.438,5.155a2.465,2.465,0,0,0,.083-1.463" style="fill:none;stroke:#949494;stroke-linecap:round;stroke-linejoin:round"/><path d="M5.545,9.25l.131-.057.417-.21.222-.129.216-.138a7.864,7.864,0,0,0,.672-.5,8.323,8.323,0,0,0,.683-.634,7.989,7.989,0,0,0,.623-.723A6.93,6.93,0,0,0,9,6.121l.234-.451" style="fill:none;stroke:#949494;stroke-linecap:round;stroke-linejoin:round"/><path d="M3.176,9.151a2.168,2.168,0,0,0,2.369.1" style="fill:none;stroke:#949494;stroke-linecap:round;stroke-linejoin:round"/><path d="M9.127,3.1a1.219,1.219,0,0,1,.394.593" style="fill:none;stroke:#949494;stroke-linecap:round;stroke-linejoin:round"/></svg>