<svg width="16" height="16" viewBox="0 0 16 16" fill="none" xmlns="http://www.w3.org/2000/svg">
<g opacity="0.88">
<path fill-rule="evenodd" clip-rule="evenodd" d="M4.59474 7.94346C4.33306 7.73624 3.95184 7.75351 3.71008 7.99526C3.44973 8.25561 3.44973 8.67772 3.71008 8.93807L7.48132 12.7093L7.53947 12.7611C7.80114 12.9683 8.18237 12.9511 8.42413 12.7093L12.1954 8.93807L12.2472 8.87992C12.4544 8.61824 12.4371 8.23701 12.1954 7.99526L12.1372 7.94346C11.8755 7.73624 11.4943 7.75351 11.2526 7.99526L7.95266 11.2951L4.65289 7.99526L4.59474 7.94346ZM4.59474 3.94346C4.33307 3.73624 3.95184 3.75351 3.71008 3.99526C3.44973 4.25561 3.44973 4.67772 3.71008 4.93807L7.48132 8.70931L7.53946 8.76111C7.80114 8.96833 8.18237 8.95106 8.42413 8.70931L12.1954 4.93807L12.2472 4.87992C12.4544 4.61824 12.4371 4.23701 12.1954 3.99526L12.1372 3.94346C11.8755 3.73624 11.4943 3.75351 11.2526 3.99526L7.95266 7.29509L4.65289 3.99526L4.59474 3.94346Z" fill="white"/>
</g>
</svg>
