<svg width="24" height="24" viewBox="0 0 24 24" fill="none" xmlns="http://www.w3.org/2000/svg">
<g clip-path="url(#clip0_5_11)">
<path d="M15 3.2C15.33 3.2 15.6 3.47 15.6 3.8V7.4C15.6 7.73 15.33 8 15 8H12.6H11.4H9C8.67 8 8.4 7.73 8.4 7.4V3.8C8.4 3.47 8.67 3.2 9 3.2H15ZM12.6 9.2H15C15.9938 9.2 16.8 8.39375 16.8 7.4V3.8C16.8 2.80625 15.9938 2 15 2H9C8.00625 2 7.2 2.80625 7.2 3.8V7.4C7.2 8.39375 8.00625 9.2 9 9.2H11.4V11H0.6C0.27 11 0 11.27 0 11.6C0 11.93 0.27 12.2 0.6 12.2H5.4V14H3C2.00625 14 1.2 14.8063 1.2 15.8V19.4C1.2 20.3938 2.00625 21.2 3 21.2H9C9.99375 21.2 10.8 20.3938 10.8 19.4V15.8C10.8 14.8063 9.99375 14 9 14H6.6V12.2H17.4V14H15C14.0063 14 13.2 14.8063 13.2 15.8V19.4C13.2 20.3938 14.0063 21.2 15 21.2H21C21.9938 21.2 22.8 20.3938 22.8 19.4V15.8C22.8 14.8063 21.9938 14 21 14H18.6V12.2H23.4C23.73 12.2 24 11.93 24 11.6C24 11.27 23.73 11 23.4 11H12.6V9.2ZM18.6 15.2H21C21.33 15.2 21.6 15.47 21.6 15.8V19.4C21.6 19.73 21.33 20 21 20H15C14.67 20 14.4 19.73 14.4 19.4V15.8C14.4 15.47 14.67 15.2 15 15.2H17.4H18.6ZM6.6 15.2H9C9.33 15.2 9.6 15.47 9.6 15.8V19.4C9.6 19.73 9.33 20 9 20H3C2.67 20 2.4 19.73 2.4 19.4V15.8C2.4 15.47 2.67 15.2 3 15.2H5.4H6.6Z" fill="black"/>
</g>
<defs>
<clipPath id="clip0_5_11">
<rect width="24" height="19.2" fill="white" transform="translate(0 2)"/>
</clipPath>
</defs>
</svg>
