<svg xmlns="http://www.w3.org/2000/svg" width="32" height="32" viewBox="0 0 32 32"><path d="M6.966,12.206,16,6.5l9.034,5.706a1,1,0,0,1,.466.845V24.5a1,1,0,0,1-1,1h-4a1,1,0,0,1-1-1v-7a1,1,0,0,0-1-1h-5a1,1,0,0,0-1,1v8h-5a1,1,0,0,1-1-1V13.051A1,1,0,0,1,6.966,12.206Z" style="fill:#009688;opacity:0.5"/><path d="M6.966,12.206,16,6.5l9.034,5.706a1,1,0,0,1,.466.845V24.5a1,1,0,0,1-1,1h-4a1,1,0,0,1-1-1v-7a1,1,0,0,0-1-1h-5a1,1,0,0,0-1,1v8h-5a1,1,0,0,1-1-1V13.051A1,1,0,0,1,6.966,12.206Z" style="fill:none;stroke:#009688;stroke-linecap:round;stroke-linejoin:round"/></svg>