<svg width="12" height="12" viewBox="0 0 12 12" fill="none" xmlns="http://www.w3.org/2000/svg">
<path d="M8.24992 0.719432C8.04278 0.719432 7.87489 0.558403 7.87489 0.359716C7.87489 0.161029 8.04278 0 8.24992 0H10.4407C11.3024 0 12 0.668987 12 1.49563V3.59702C12 3.72545 11.9285 3.84432 11.8125 3.90854C11.6965 3.97275 11.5535 3.97275 11.4375 3.90854C11.3214 3.84432 11.25 3.72559 11.25 3.59702V1.49563C11.25 1.06692 10.8877 0.719432 10.4407 0.719432H8.24992ZM11.25 7.74274C11.25 7.61431 11.3214 7.49544 11.4375 7.43122C11.5535 7.36701 11.6965 7.36701 11.8125 7.43122C11.9285 7.49544 12 7.61417 12 7.74274V10.0146C12 10.8411 11.3025 11.5102 10.4407 11.5102H8.96026C8.82637 11.5102 8.70244 11.4416 8.63549 11.3303C8.56854 11.2191 8.56854 11.0819 8.63549 10.9706C8.70244 10.8593 8.82622 10.7908 8.96026 10.7908H10.4407C10.8877 10.7908 11.25 10.4433 11.25 10.0146V7.74274ZM3.92778 10.7908C4.06167 10.7908 4.18561 10.8593 4.25255 10.9706C4.3195 11.0819 4.3195 11.2191 4.25255 11.3303C4.18561 11.4416 4.06182 11.5102 3.92778 11.5102H1.55927C1.14572 11.5102 0.749167 11.3525 0.456766 11.0721C0.164219 10.7916 0 10.4112 0 10.0146V7.91319C0 7.7145 0.167881 7.55347 0.375023 7.55347C0.582164 7.55347 0.750046 7.7145 0.750046 7.91319V10.0146C0.750046 10.4433 1.11232 10.7908 1.55927 10.7908H3.92778ZM0.750046 3.59688C0.750046 3.79556 0.582164 3.95659 0.375023 3.95659C0.167881 3.95659 0 3.79556 0 3.59688V1.49563C0 0.668987 0.697455 0 1.55927 0H3.75008C3.95722 0 4.12511 0.161029 4.12511 0.359716C4.12511 0.558403 3.95722 0.719432 3.75008 0.719432H1.55927C1.11232 0.719432 0.750046 1.06692 0.750046 1.49563V3.59688ZM5.99993 7.55361C7.28467 7.55361 8.4802 6.91399 9.61348 5.57531C8.4802 4.2365 7.28467 3.59702 5.99993 3.59702C4.71518 3.59702 3.51979 4.2365 2.38652 5.57517C3.51979 6.91399 4.71533 7.55361 5.99993 7.55361ZM5.99993 8.2729C4.46922 8.2729 3.0705 7.5248 1.8045 6.02847C1.5811 5.76431 1.5811 5.38618 1.8045 5.12202C3.0705 3.62568 4.46922 2.87759 5.99993 2.87759C7.53064 2.87759 8.9295 3.62568 10.1953 5.12202C10.4188 5.38618 10.4188 5.76431 10.1953 6.02847C8.9295 7.5248 7.53078 8.2729 5.99993 8.2729Z" fill="white"/>
<path d="M6.00018 6.47476C6.51788 6.47476 6.93773 6.07219 6.93773 5.57547C6.93773 5.07889 6.51803 4.67618 6.00018 4.67618C5.48232 4.67618 5.06262 5.07875 5.06262 5.57547C5.06277 6.07219 5.48247 6.47476 6.00018 6.47476ZM6.00018 7.19419C5.39721 7.19419 4.8401 6.88576 4.53861 6.38497C4.23713 5.88418 4.23713 5.26704 4.53861 4.76625C4.8401 4.26546 5.39721 3.95689 6.00018 3.95703C6.93217 3.95703 7.68749 4.6818 7.68749 5.57561C7.68763 6.46942 6.93217 7.19405 6.00018 7.19419Z" fill="white"/>
</svg>
