<svg width="250" height="240" viewBox="0 0 250 240" fill="none" xmlns="http://www.w3.org/2000/svg">
<g opacity="0.8">
<path d="M62.4199 158.739C62.4368 158.727 62.457 158.721 62.4778 158.721H183.293C183.391 158.721 183.431 158.846 183.351 158.902L128.68 197.765C128.663 197.777 128.643 197.783 128.622 197.783H7.80644C7.70904 197.783 7.66912 197.658 7.7485 197.602L62.4199 158.739Z" fill="#817E7E"/>
<rect x="8.15552" y="197.783" width="120.499" height="1.32416" fill="#686666"/>
<rect x="53.177" y="78.6074" width="39.7249" height="14.5658" fill="#B3B3B3"/>
<rect x="63.7703" y="93.1729" width="17.2141" height="14.5658" fill="#B3B3B3"/>
<rect x="71.7151" y="107.738" width="2.64832" height="14.5658" fill="#B3B3B3"/>
<circle cx="73.0397" cy="123.629" r="2.64832" fill="#67A0F5"/>
<rect opacity="0.15" x="0.210449" y="78.6084" width="128.444" height="128.444" fill="#352F2D"/>
<path d="M60.4598 35.5723H188.904L128.654 78.6075H0.210449L60.4598 35.5723Z" fill="#E1E1E1"/>
<path d="M128.654 78.6085L187.58 34.9111V163.355L128.654 207.052V78.6085Z" fill="#B8B8B8"/>
<path d="M94.2259 203.081L4.18286 120.983V203.081H94.2259Z" fill="white" fill-opacity="0.3"/>
<path fill-rule="evenodd" clip-rule="evenodd" d="M128.654 130.251H120.709V148.789H128.654V144.769C128.871 144.8 129.092 144.816 129.316 144.816C131.876 144.816 133.951 142.741 133.951 140.182C133.951 137.622 131.876 135.547 129.316 135.547C129.092 135.547 128.871 135.563 128.654 135.594V130.251Z" fill="#ACACAC"/>
</g>
<path d="M200.098 14.75H199.848V15V17.5854V17.8354H200.098H214.77L198.803 38.4069L198.75 38.4746V38.5602V41V41.25H199H220H220.25V41V38.4146V38.1646H220H203.388L219.319 17.6294L219.372 17.5618V17.4762V15V14.75H219.122H200.098Z" fill="#B8B8B8" stroke="#B8B8B8" stroke-width="0.5"/>
<path d="M237.627 0.75H237.377V1V2.4916V2.7416H237.627H245.796L236.802 14.4401L236.75 14.5074V14.5924V16V16.25H237H249H249.25V16V14.5084V14.2584H249H239.723L248.696 2.5809L248.748 2.51353V2.42857V1V0.75H248.498H237.627Z" fill="#B8B8B8" stroke="#B8B8B8" stroke-width="0.5"/>
<ellipse cx="101.5" cy="230" rx="75.5" ry="10" fill="#DEDEDE"/>
</svg>
