<svg width="16" height="16" viewBox="0 0 16 16" fill="none" xmlns="http://www.w3.org/2000/svg">
<g opacity="0.88">
<path fill-rule="evenodd" clip-rule="evenodd" d="M11.4053 8.05654C11.6669 8.26376 12.0482 8.24649 12.2899 8.00474C12.5503 7.74439 12.5503 7.32228 12.2899 7.06193L8.51868 3.29069L8.46053 3.23889C8.19886 3.03167 7.81763 3.04894 7.57587 3.29069L3.80464 7.06193L3.75283 7.12008C3.54562 7.38176 3.56288 7.76299 3.80464 8.00474L3.86278 8.05654C4.12446 8.26376 4.50569 8.24649 4.74745 8.00474L8.04734 4.70491L11.3471 8.00474L11.4053 8.05654ZM11.4053 12.0565C11.6669 12.2638 12.0482 12.2465 12.2899 12.0047C12.5503 11.7444 12.5503 11.3223 12.2899 11.0619L8.51868 7.29069L8.46054 7.23889C8.19886 7.03167 7.81763 7.04894 7.57587 7.29069L3.80464 11.0619L3.75283 11.1201C3.54562 11.3818 3.56288 11.763 3.80464 12.0047L3.86278 12.0565C4.12446 12.2638 4.50569 12.2465 4.74745 12.0047L8.04734 8.70491L11.3471 12.0047L11.4053 12.0565Z" fill="white"/>
</g>
</svg>
