<svg xmlns="http://www.w3.org/2000/svg" width="16" height="16" viewBox="0 0 16 16"><path d="M8,6A5.986,5.986,0,0,0,3.359,8.2l.654.817a4.951,4.951,0,0,1,7.974,0l.654-.817A5.986,5.986,0,0,0,8,6Z" style="fill:#009688"/><path d="M8,3A8.965,8.965,0,0,0,1.462,5.828L2.1,6.62a7.962,7.962,0,0,1,11.808,0l.634-.792A8.965,8.965,0,0,0,8,3Z" style="fill:#949494"/><path d="M0,4l.2.252a10.978,10.978,0,0,1,15.6,0L16,4V3.074a11.947,11.947,0,0,0-16,0Z" style="fill:#949494"/><path d="M8,10a2,2,0,1,1-2,2,2,2,0,0,1,2-2M8,9a3,3,0,1,0,3,3A3,3,0,0,0,8,9Z" style="fill:#009688"/></svg>