<svg xmlns="http://www.w3.org/2000/svg" width="16" height="16" viewBox="0 0 16 16"><rect x="0.5" y="0.5" width="14" height="14" rx="1" style="fill:none;stroke:#ff6f00;stroke-linecap:round;stroke-linejoin:round"/><line x1="2.5" y1="12.5" x2="12.5" y2="12.5" style="fill:none;stroke:#ff6f00;stroke-linecap:square;stroke-linejoin:round"/><path d="M11.5,10.5l.4-.4a.853.853,0,0,0,0-1.208L11.1,8.1a.853.853,0,0,1,0-1.208L11.9,6.1a.853.853,0,0,0,0-1.208L11.1,4.1a.853.853,0,0,1,0-1.208l.4-.4" style="fill:none;stroke:#ff6f00;stroke-linecap:round;stroke-linejoin:round"/><path d="M7.5,10.5l.4-.4A.853.853,0,0,0,7.9,8.9L7.1,8.1A.853.853,0,0,1,7.1,6.9L7.9,6.1A.853.853,0,0,0,7.9,4.9L7.1,4.1A.853.853,0,0,1,7.1,2.9l.4-.4" style="fill:none;stroke:#ff6f00;stroke-linecap:round;stroke-linejoin:round"/><path d="M3.5,10.5l.4-.4A.853.853,0,0,0,3.9,8.9L3.1,8.1A.853.853,0,0,1,3.1,6.9L3.9,6.1A.853.853,0,0,0,3.9,4.9L3.1,4.1A.853.853,0,0,1,3.1,2.9l.4-.4" style="fill:none;stroke:#ff6f00;stroke-linecap:round;stroke-linejoin:round"/></svg>