<svg xmlns="http://www.w3.org/2000/svg" width="16" height="16" viewBox="0 0 16 16"><path d="M.286,8.19a.976.976,0,0,1,0-1.38L6.81.286a.975.975,0,0,1,1.38,0L14.714,6.81a.976.976,0,0,1,0,1.38l-.843.843a6.941,6.941,0,0,0-1.789.385l1.925-1.935L7.5,1.01.993,7.517,2.858,9.372a6.193,6.193,0,0,0-.675.276,3.189,3.189,0,0,1-.33.109ZM9.833,13a7.4,7.4,0,0,1-1.207-.108L7.517,14.007l-1.98-1.969C5.412,12.027,5.293,12,5.165,12a4.333,4.333,0,0,0-.958.111l2.6,2.6a.975.975,0,0,0,1.38,0L9.908,13C9.883,13,9.858,13,9.833,13Zm2.551-1.55A4.979,4.979,0,0,1,14.5,11H15V10h-.5a5.9,5.9,0,0,0-2.55.55,5.366,5.366,0,0,1-4.233,0,6.157,6.157,0,0,0-5.1,0A4.979,4.979,0,0,1,.5,11H0v1H.5a5.9,5.9,0,0,0,2.55-.55,5.2,5.2,0,0,1,4.233,0,5.9,5.9,0,0,0,2.55.55A5.9,5.9,0,0,0,12.384,11.45Z" style="fill:#ff6f00"/></svg>