<svg xmlns="http://www.w3.org/2000/svg" width="24" height="24" viewBox="0 0 24 24"><path d="M20.5,13.5l-1,3h-2l-4.848,3.879M17.5,20.5l-3.529-1.176M12.5,3.5l-2,4,3,6-2,4m3-9-2,3m6,0-2,2v3.8M6.5,7.5l2,3-1,3,4,4,2,5m-9-11-1,2,2,3m9-11,4-1,2.176,2.176M17.5,9.5l2-1v-1l3-2m-7-2,2,1m-9,16-2,1m-2-2,1,1m1-2-1,2,1,2m12-4,2,1,2-2m-17-13-1,2-3,1m7-4,1-2m-6,16,2-1,4-1m-5-13,1,2,3,1m-6,2,1,1" style="fill:none;stroke:#009688;stroke-linecap:round;stroke-linejoin:round"/><rect x="1.5" y="1.5" width="21" height="21" rx="2" transform="translate(24 24) rotate(180)" style="fill:none;stroke:#949494;stroke-linecap:round;stroke-linejoin:round"/></svg>