<svg xmlns="http://www.w3.org/2000/svg" width="18" height="18" viewBox="0 0 18 18"><line x1="0.5" y1="16.5" x2="16.5" y2="16.5" style="fill:none;stroke:#009688;stroke-linecap:square;stroke-linejoin:round"/><path d="M1.5,13.5l.613-.643a1.439,1.439,0,0,0,0-1.964L.887,9.607a1.439,1.439,0,0,1,0-1.964L2.113,6.357a1.439,1.439,0,0,0,0-1.964L.887,3.107a1.439,1.439,0,0,1,0-1.964L1.5.5" style="fill:none;stroke:#949494;stroke-linecap:round;stroke-linejoin:round"/><path d="M8.5,13.5l.613-.643a1.439,1.439,0,0,0,0-1.964L7.887,9.607a1.439,1.439,0,0,1,0-1.964L9.113,6.357a1.439,1.439,0,0,0,0-1.964L7.887,3.107a1.439,1.439,0,0,1,0-1.964L8.5.5" style="fill:none;stroke:#949494;stroke-linecap:round;stroke-linejoin:round"/><path d="M15.5,13.5l.613-.643a1.439,1.439,0,0,0,0-1.964L14.887,9.607a1.439,1.439,0,0,1,0-1.964l1.226-1.286a1.439,1.439,0,0,0,0-1.964L14.887,3.107a1.439,1.439,0,0,1,0-1.964L15.5.5" style="fill:none;stroke:#949494;stroke-linecap:round;stroke-linejoin:round"/></svg>