<svg xmlns="http://www.w3.org/2000/svg" width="24" height="24" viewBox="0 0 24 24"><polyline points="8.5 9.5 6.5 9.5 9.5 12.5 6.5 15.5 9.5 15.5 9.5 18.5 12.5 15.5 15.5 18.5 15.5 15.5 18.5 15.5 15.5 12.5 18.5 9.5 15.583 9.5 15.5 6.5 12.5 9.5 7.5 4.5 7.5 6.5 1.5 6.5 1.5 8.5 5.5 12.5 1.5 16.5 1.5 18.5 6.5 18.5 6.5 22.5 9.929 22.5 12.5 19.5 15.071 22.5 18.5 22.5 18.5 18.5 22.5 18.5 22.5 15.071 19.5 12.5 22.5 9.929 22.5 6.5 18.5 6.5 18.5 1.5 15.929 1.5 12.5 5.5 8.5 1.5 4.5 1.5 4.5 3.5 1.5 3.5" style="fill:none;stroke:#009688;stroke-linecap:round;stroke-linejoin:round"/><rect x="1.5" y="1.5" width="21" height="21" rx="2" style="fill:none;stroke:#949494;stroke-linecap:round;stroke-linejoin:round"/></svg>