<svg xmlns="http://www.w3.org/2000/svg" width="18" height="18" viewBox="0 0 18 18"><path d="M1,16.5l.306-.792a3.853,3.853,0,0,0,0-2.416L.694,11.708a3.853,3.853,0,0,1,0-2.416l.612-1.584a3.853,3.853,0,0,0,0-2.416L.694,3.708a3.853,3.853,0,0,1,0-2.416L1,.5" style="fill:none;stroke:#949494;stroke-linecap:round;stroke-linejoin:round"/><path d="M6,16.5l.306-.549a1.9,1.9,0,0,0,0-1.676l-.612-1.1a1.9,1.9,0,0,1,0-1.676" style="fill:none;stroke:#949494;stroke-linecap:round;stroke-linejoin:round"/><path d="M11,16.5l.306-.549a1.9,1.9,0,0,0,0-1.676l-.612-1.1a1.9,1.9,0,0,1,0-1.676" style="fill:none;stroke:#949494;stroke-linecap:round;stroke-linejoin:round"/><path d="M16,16.5l.306-.792a3.853,3.853,0,0,0,0-2.416l-.612-1.584a3.853,3.853,0,0,1,0-2.416l.612-1.584a3.853,3.853,0,0,0,0-2.416l-.612-1.584a3.853,3.853,0,0,1,0-2.416L16,.5" style="fill:none;stroke:#949494;stroke-linecap:round;stroke-linejoin:round"/><path d="M5.5,4.5c-1,1-1,1-2,0" style="fill:none;stroke:#009688;stroke-linecap:round;stroke-linejoin:round"/><path d="M13.5,4.5c-1,1-1,1-2,0" style="fill:none;stroke:#009688;stroke-linecap:round;stroke-linejoin:round"/><path d="M11.5.5v4a6.375,6.375,0,0,1-6,0V.5" style="fill:none;stroke:#009688;stroke-linecap:round;stroke-linejoin:round"/><polygon points="3.5 0.5 13.5 0.5 13.5 4.5 8.5 9.5 3.5 4.5 3.5 0.5" style="fill:none;stroke:#009688;stroke-linecap:round;stroke-linejoin:round"/></svg>