<svg xmlns="http://www.w3.org/2000/svg" width="24" height="24" viewBox="0 0 24 24"><g style="opacity:0.75"><line x1="18.5" y1="14.167" x2="21.5" y2="12.5" style="fill:none;stroke:#949494;stroke-linecap:round;stroke-linejoin:round"/><line x1="12.5" y1="17.5" x2="12.5" y2="10.833" style="fill:none;stroke:#949494;stroke-linecap:round;stroke-linejoin:round"/><line x1="6.5" y1="7.5" x2="12.5" y2="10.833" style="fill:none;stroke:#949494;stroke-linecap:round;stroke-linejoin:round"/><line x1="18.5" y1="7.5" x2="22.5" y2="9.722" style="fill:none;stroke:#949494;stroke-linecap:round;stroke-linejoin:round"/><line x1="18.5" y1="7.5" x2="12.5" y2="10.833" style="fill:none;stroke:#949494;stroke-linecap:round;stroke-linejoin:round"/><line x1="6.5" y1="22.5" x2="6.5" y2="20.833" style="fill:none;stroke:#949494;stroke-linecap:round;stroke-linejoin:round"/><line x1="1.5" y1="18.056" x2="6.5" y2="20.833" style="fill:none;stroke:#949494;stroke-linecap:round;stroke-linejoin:round"/><line x1="12.5" y1="17.5" x2="6.5" y2="20.833" style="fill:none;stroke:#949494;stroke-linecap:round;stroke-linejoin:round"/><line x1="6.5" y1="7.5" x2="6.5" y2="1.5" style="fill:none;stroke:#949494;stroke-linecap:round;stroke-linejoin:round"/><line x1="18.5" y1="7.5" x2="18.5" y2="1.5" style="fill:none;stroke:#949494;stroke-linecap:round;stroke-linejoin:round"/><line x1="6.5" y1="7.5" x2="1.5" y2="10.278" style="fill:none;stroke:#949494;stroke-linecap:round;stroke-linejoin:round"/><line x1="18.5" y1="14.167" x2="18.5" y2="17.5" style="fill:none;stroke:#949494;stroke-linecap:round;stroke-linejoin:round"/><line x1="18.5" y1="20.833" x2="20" y2="20" style="fill:none;stroke:#949494;stroke-linecap:round;stroke-linejoin:round"/><line x1="15.5" y1="22.5" x2="15.5" y2="19.167" style="fill:none;stroke:#949494;stroke-linecap:round;stroke-linejoin:round"/><line x1="12.5" y1="17.5" x2="15.5" y2="19.167" style="fill:none;stroke:#949494;stroke-linecap:round;stroke-linejoin:round"/><line x1="18.5" y1="17.5" x2="22.5" y2="19.722" style="fill:none;stroke:#949494;stroke-linecap:round;stroke-linejoin:round"/><line x1="18.5" y1="17.5" x2="15.5" y2="19.167" style="fill:none;stroke:#949494;stroke-linecap:round;stroke-linejoin:round"/><line x1="18.5" y1="20.833" x2="18.5" y2="22.5" style="fill:none;stroke:#949494;stroke-linecap:round;stroke-linejoin:round"/><line x1="17" y1="20" x2="18.5" y2="20.833" style="fill:none;stroke:#949494;stroke-linecap:round;stroke-linejoin:round"/><line x1="15.5" y1="12.5" x2="18.5" y2="14.167" style="fill:none;stroke:#949494;stroke-linecap:round;stroke-linejoin:round"/><line x1="12.5" y1="4.167" x2="15.5" y2="2.5" style="fill:none;stroke:#949494;stroke-linecap:round;stroke-linejoin:round"/><line x1="12.5" y1="4.167" x2="12.5" y2="7.5" style="fill:none;stroke:#949494;stroke-linecap:round;stroke-linejoin:round"/><line x1="9.5" y1="2.5" x2="12.5" y2="4.167" style="fill:none;stroke:#949494;stroke-linecap:round;stroke-linejoin:round"/><line x1="1.5" y1="3.611" x2="3.5" y2="2.5" style="fill:none;stroke:#949494;stroke-linecap:round;stroke-linejoin:round"/></g><line x1="6.5" y1="7.5" x2="22.5" y2="7.5" style="fill:none;stroke:#009688;stroke-linecap:round;stroke-linejoin:round"/><line x1="12.5" y1="17.5" x2="22.5" y2="17.5" style="fill:none;stroke:#009688;stroke-linecap:round;stroke-linejoin:round"/><line x1="15.5" y1="22.5" x2="2.947" y2="1.578" style="fill:none;stroke:#009688;stroke-linecap:round;stroke-linejoin:round"/><line x1="10.1" y1="1.5" x2="6.5" y2="7.5" style="fill:none;stroke:#009688;stroke-linecap:round;stroke-linejoin:round"/><line x1="14.9" y1="1.5" x2="22.5" y2="14.167" style="fill:none;stroke:#009688;stroke-linecap:round;stroke-linejoin:round"/><line x1="12.5" y1="17.5" x2="21.808" y2="1.987" style="fill:none;stroke:#009688;stroke-linecap:round;stroke-linejoin:round"/><line x1="6.5" y1="7.5" x2="1.5" y2="15.833" style="fill:none;stroke:#009688;stroke-linecap:round;stroke-linejoin:round"/><line x1="1.5" y1="7.5" x2="6.5" y2="7.5" style="fill:none;stroke:#009688;stroke-linecap:round;stroke-linejoin:round"/><line x1="21.378" y1="22.297" x2="18.5" y2="17.5" style="fill:none;stroke:#009688;stroke-linecap:round;stroke-linejoin:round"/><line x1="18.5" y1="17.5" x2="15.5" y2="22.5" style="fill:none;stroke:#009688;stroke-linecap:round;stroke-linejoin:round"/><rect x="1.5" y="1.5" width="21" height="21" rx="2" style="fill:none;stroke:#949494;stroke-linecap:round;stroke-linejoin:round"/></svg>