<svg xmlns="http://www.w3.org/2000/svg" width="43" height="43" viewBox="0 0 43 43"><rect x="1.5" y="1.5" width="40" height="40" rx="3.5" style="fill:#e9e9e9"/><path d="M38,2a3,3,0,0,1,3,3V38a3,3,0,0,1-3,3H5a3,3,0,0,1-3-3V5A3,3,0,0,1,5,2H38m0-1H5A4,4,0,0,0,1,5V38a4,4,0,0,0,4,4H38a4,4,0,0,0,4-4V5a4,4,0,0,0-4-4Z" style="fill:#009688"/><line x1="6.5" y1="12.5" x2="10.5" y2="12.5" style="fill:none;stroke:#009688;stroke-linecap:square;stroke-linejoin:round"/><line x1="17.5" y1="12.5" x2="36.5" y2="12.5" style="fill:none;stroke:#009688;stroke-linecap:square;stroke-linejoin:round"/><rect x="10.5" y="6.5" width="7" height="12" rx="2" style="fill:none;stroke:#009688;stroke-linecap:square;stroke-linejoin:round"/><line x1="36.5" y1="30.5" x2="32.5" y2="30.5" style="fill:none;stroke:#009688;stroke-linecap:square;stroke-linejoin:round"/><line x1="25.5" y1="30.5" x2="6.5" y2="30.5" style="fill:none;stroke:#009688;stroke-linecap:square;stroke-linejoin:round"/><rect x="25.5" y="24.5" width="7" height="12" rx="2" transform="translate(58 61) rotate(-180)" style="fill:none;stroke:#009688;stroke-linecap:square;stroke-linejoin:round"/></svg>