<svg xmlns="http://www.w3.org/2000/svg" width="18" height="18" viewBox="0 0 18 18"><path d="M15.219,16.5H1.781a1,1,0,0,1-.97-1.243l1.31-5.242A2,2,0,0,1,4.062,8.5h8.876a2,2,0,0,1,1.941,1.515l1.31,5.242A1,1,0,0,1,15.219,16.5Z" style="fill:none;stroke:#949494;stroke-linecap:round;stroke-linejoin:round"/><circle cx="8.5" cy="12.5" r="3" style="fill:none;stroke:#949494;stroke-linecap:round;stroke-linejoin:round"/><line x1="7.5" y1="5.5" x2="7.5" y2="8.5" style="fill:none;stroke:#949494;stroke-linecap:round;stroke-linejoin:round"/><line x1="9.5" y1="5.5" x2="9.5" y2="8.5" style="fill:none;stroke:#949494;stroke-linecap:round;stroke-linejoin:round"/><line x1="8.5" y1="12.5" x2="9.5" y2="11.5" style="fill:none;stroke:#949494;stroke-linecap:round;stroke-linejoin:round"/><path d="M16.5,2.5v1a2,2,0,0,1-2,2H2.5a2,2,0,0,1-2-2v-1" style="fill:none;stroke:#949494;stroke-linecap:round;stroke-linejoin:round"/><path d="M13.562,2.5A6.162,6.162,0,0,0,8.438.5c-.86,0-1.771.84-2.687,1.75L3.5,1.5v2l2.251-.75c.916.91,1.827,1.75,2.687,1.75A6.162,6.162,0,0,0,13.562,2.5Z" style="fill:none;stroke:#009688;stroke-linecap:round;stroke-linejoin:round"/><line x1="9.5" y1="3.5" x2="8.5" y2="4.5" style="fill:none;stroke:#009688;stroke-linecap:round;stroke-linejoin:round"/><circle cx="10.5" cy="2.5" r="0.5" style="fill:#009688"/><line x1="12.5" y1="2.5" x2="13.5" y2="2.5" style="fill:none;stroke:#009688;stroke-linecap:round;stroke-miterlimit:10"/></svg>