<?xml version="1.0" standalone="no"?><!DOCTYPE svg PUBLIC "-//W3C//DTD SVG 1.1//EN" "http://www.w3.org/Graphics/SVG/1.1/DTD/svg11.dtd"><svg t="1647872792667" class="icon" viewBox="0 0 1024 1024" version="1.1" xmlns="http://www.w3.org/2000/svg" p-id="1714" xmlns:xlink="http://www.w3.org/1999/xlink" width="200" height="200"><defs><style type="text/css"></style></defs><path d="M480 64C214.912 64 0 278.912 0 544s214.912 480 480 480c265.088 0 480-214.912 480-480S745.088 64 480 64z m271.584 640c8.576-40.448 13.984-83.392 15.744-128h127.456a411.712 411.712 0 0 1-30.688 128h-112.512zM208.416 384a763.36 763.36 0 0 0-15.744 128H65.216c3.328-44.192 13.632-87.104 30.688-128h112.512z m477.632 0c9.6 40.96 15.392 83.84 17.28 128H512v-128h174.048zM512 320V132.672c14.592 4.256 29.056 11.36 43.232 21.376 26.592 18.752 52 47.616 73.536 83.488 14.88 24.8 27.744 52.416 38.496 82.496H512z m-180.768-82.496c21.536-35.872 46.944-64.736 73.536-83.488A145.824 145.824 0 0 1 448 132.64v187.328H292.736c10.752-30.08 23.616-57.696 38.496-82.496zM448 384v128H256.672c1.888-44.16 7.68-87.04 17.28-128H448zM95.904 704a412.608 412.608 0 0 1-30.688-128h127.456c1.76 44.608 7.168 87.552 15.744 128H95.904z m160.768-128H448v128H273.952c-9.6-40.96-15.392-83.84-17.28-128zM448 768v187.328a145.824 145.824 0 0 1-43.232-21.376c-26.592-18.752-52-47.616-73.536-83.488a463.296 463.296 0 0 1-38.496-82.496H448z m180.768 82.496c-21.536 35.872-46.944 64.736-73.536 83.488a146.592 146.592 0 0 1-43.232 21.376v-187.328h155.264a464.32 464.32 0 0 1-38.496 82.496zM512 704v-128h191.328c-1.888 44.16-7.68 87.04-17.28 128H512z m255.36-192a763.36 763.36 0 0 0-15.744-128h112.512c17.056 40.896 27.36 83.808 30.688 128H767.36z m63.296-192h-95.904c-18.624-58.752-44.384-110.304-75.328-151.424a415.168 415.168 0 0 1 114.72 81.28A418.24 418.24 0 0 1 830.656 320zM185.856 249.856a415.168 415.168 0 0 1 114.72-81.28C269.632 209.696 243.904 261.248 225.248 320H129.344a415.04 415.04 0 0 1 56.512-70.144zM129.344 768h95.904c18.656 58.752 44.384 110.304 75.328 151.424a415.168 415.168 0 0 1-114.72-81.28A418.24 418.24 0 0 1 129.344 768z m644.8 70.144a415.168 415.168 0 0 1-114.72 81.28c30.944-41.12 56.672-92.672 75.328-151.424h95.904a415.04 415.04 0 0 1-56.512 70.144z" p-id="1715" fill="#b9c8cb"></path></svg>