<svg width="28" height="27" viewBox="0 0 28 27" fill="none" xmlns="http://www.w3.org/2000/svg">
<path d="M11.9888 2.01601C12.8984 0.494662 15.1024 0.494662 16.012 2.01601L18.8677 6.79237C19.1958 7.34113 19.7339 7.73201 20.3572 7.87447L25.7821 9.11446C27.5101 9.50943 28.1913 11.6056 27.0254 12.9408L23.3652 17.1327C22.9449 17.6143 22.7394 18.2469 22.7964 18.8836L23.2936 24.4263C23.4519 26.1918 21.6687 27.4873 20.0386 26.7911L14.9209 24.6056C14.3329 24.3545 13.6679 24.3545 13.0799 24.6056L7.96209 26.7911C6.33196 27.4873 4.54887 26.1918 4.70722 24.4263L5.20434 18.8836C5.26145 18.2469 5.05595 17.6143 4.63544 17.1327L0.97533 12.9408C-0.19048 11.6056 0.490599 9.50943 2.21859 9.11446L7.64364 7.87447C8.2669 7.73201 8.80494 7.34113 9.13302 6.79237L11.9888 2.01601Z" fill="#DDDDDD"/>
</svg>
