<svg width="24" height="24" viewBox="0 0 24 24" fill="none" xmlns="http://www.w3.org/2000/svg">
<path d="M4 6C4 5.44772 4.44772 5 5 5H19C19.5523 5 20 5.44772 20 6V18C20 18.5523 19.5523 19 19 19H5C4.44772 19 4 18.5523 4 18V6Z" fill="white" fill-opacity="0.24"/>
<path fill-rule="evenodd" clip-rule="evenodd" d="M3.5 6C3.5 5.17157 4.17157 4.5 5 4.5H19C19.8284 4.5 20.5 5.17157 20.5 6V18C20.5 18.8284 19.8284 19.5 19 19.5H5C4.17157 19.5 3.5 18.8284 3.5 18V6ZM5 5.5C4.72386 5.5 4.5 5.72386 4.5 6V18C4.5 18.2761 4.72386 18.5 5 18.5H19C19.2761 18.5 19.5 18.2761 19.5 18V6C19.5 5.72386 19.2761 5.5 19 5.5H5Z" fill="white" fill-opacity="0.4"/>
<path fill-rule="evenodd" clip-rule="evenodd" d="M13.7306 10.7569L13.6702 10.839L10.785 15.3585L9.11563 12.7417C9.08006 12.686 9.03769 12.6355 8.98968 12.5916L8.91359 12.5306C8.60675 12.3169 8.20115 12.3785 7.96379 12.6596L7.90343 12.7417L5.62234 16.3167C5.54257 16.4418 5.5 16.5887 5.5 16.7389C5.5 17.1269 5.77789 17.4471 6.13706 17.4941L6.22844 17.5H17.7715C17.9153 17.5 18.0559 17.4555 18.1755 17.3722C18.4824 17.1584 18.584 16.7436 18.4269 16.4065L18.3776 16.3167L14.8824 10.839C14.8291 10.7554 14.7604 10.6836 14.6804 10.6279C14.3736 10.4142 13.968 10.4758 13.7306 10.7569Z" fill="white" fill-opacity="0.4"/>
<path fill-rule="evenodd" clip-rule="evenodd" d="M8.5 7C7.67157 7 7 7.67157 7 8.5C7 9.32843 7.67157 10 8.5 10C9.32843 10 10 9.32843 10 8.5C10 7.67157 9.32843 7 8.5 7Z" fill="white" fill-opacity="0.4"/>
</svg>
