<svg xmlns="http://www.w3.org/2000/svg" width="40" height="40" viewBox="0 0 40 40"><path d="M22.5,35h-4A1.5,1.5,0,0,1,17,33.5a.5.5,0,0,1,1,0,.5.5,0,0,0,.5.5h4a.5.5,0,0,0,.5-.5v-20A1.5,1.5,0,0,1,24.5,12h9a.5.5,0,0,0,.5-.5v-4a.5.5,0,0,0-.5-.5.5.5,0,0,1,0-1A1.5,1.5,0,0,1,35,7.5v4A1.5,1.5,0,0,1,33.5,13h-9a.5.5,0,0,0-.5.5v20A1.5,1.5,0,0,1,22.5,35ZM16,12.5a.5.5,0,0,0-.5-.5h-8a.5.5,0,0,1-.5-.5v-1a.5.5,0,0,0-1,0v1A1.5,1.5,0,0,0,7.5,13h8A.5.5,0,0,0,16,12.5Z" style="fill:#b6b6b6"/><path d="M20.5,33h-4A1.5,1.5,0,0,1,15,31.5v-20a.5.5,0,0,0-.5-.5h-9A1.5,1.5,0,0,1,4,9.5v-4A1.5,1.5,0,0,1,5.5,4h26A1.5,1.5,0,0,1,33,5.5v4A1.5,1.5,0,0,1,31.5,11h-9a.5.5,0,0,0-.5.5v20A1.5,1.5,0,0,1,20.5,33ZM5.5,5a.5.5,0,0,0-.5.5v4a.5.5,0,0,0,.5.5h9A1.5,1.5,0,0,1,16,11.5v20a.5.5,0,0,0,.5.5h4a.5.5,0,0,0,.5-.5v-20A1.5,1.5,0,0,1,22.5,10h9a.5.5,0,0,0,.5-.5v-4a.5.5,0,0,0-.5-.5Z" style="fill:#009688"/></svg>