<svg xmlns="http://www.w3.org/2000/svg" width="40" height="40" viewBox="0 0 40 40"><path d="M33.5,35H5.5A1.5,1.5,0,0,1,4,33.5V5.5A1.5,1.5,0,0,1,5.5,4h28A1.5,1.5,0,0,1,35,5.5v28A1.5,1.5,0,0,1,33.5,35ZM5.5,5a.5.5,0,0,0-.5.5v28a.5.5,0,0,0,.5.5h28a.5.5,0,0,0,.5-.5V5.5a.5.5,0,0,0-.5-.5Z" style="fill:#b6b6b6"/><path d="M30.5,32H8.5A1.5,1.5,0,0,1,7,30.5v-6A1.5,1.5,0,0,1,8.5,23h22A1.5,1.5,0,0,1,32,24.5v6A1.5,1.5,0,0,1,30.5,32Zm-22-8a.5.5,0,0,0-.5.5v6a.5.5,0,0,0,.5.5h22a.5.5,0,0,0,.5-.5v-6a.5.5,0,0,0-.5-.5Zm22-2h-6A1.5,1.5,0,0,1,23,20.5V8.5A1.5,1.5,0,0,1,24.5,7h6A1.5,1.5,0,0,1,32,8.5v12A1.5,1.5,0,0,1,30.5,22Zm-6-14a.5.5,0,0,0-.5.5v12a.5.5,0,0,0,.5.5h6a.5.5,0,0,0,.5-.5V8.5a.5.5,0,0,0-.5-.5Zm-6,6h-8a3.5,3.5,0,0,1,0-7h8a3.5,3.5,0,0,1,0,7Zm-8-6a2.5,2.5,0,0,0,0,5h8a2.5,2.5,0,0,0,0-5Zm8,14A3.5,3.5,0,1,1,22,18.5,3.5,3.5,0,0,1,18.5,22Zm0-6A2.5,2.5,0,1,0,21,18.5,2.5,2.5,0,0,0,18.5,16Zm-8,6A3.5,3.5,0,1,1,14,18.5,3.5,3.5,0,0,1,10.5,22Zm0-6A2.5,2.5,0,1,0,13,18.5,2.5,2.5,0,0,0,10.5,16Z" style="fill:#009688"/></svg>