<svg xmlns="http://www.w3.org/2000/svg" width="40" height="40" viewBox="0 0 40 40"><path d="M25.5,5h-2a.5.5,0,0,1,0-1h2a.5.5,0,0,1,0,1ZM21,4.5a.5.5,0,0,0-.5-.5h-2a.5.5,0,0,0,0,1h2A.5.5,0,0,0,21,4.5Zm-5,0a.5.5,0,0,0-.5-.5h-2a.5.5,0,0,0,0,1h2A.5.5,0,0,0,16,4.5Zm10,30a.5.5,0,0,0-.5-.5h-2a.5.5,0,0,0,0,1h2A.5.5,0,0,0,26,34.5Zm-5,0a.5.5,0,0,0-.5-.5h-2a.5.5,0,0,0,0,1h2A.5.5,0,0,0,21,34.5Zm-5,0a.5.5,0,0,0-.5-.5h-2a.5.5,0,0,0,0,1h2A.5.5,0,0,0,16,34.5ZM5,15.5v-2a.5.5,0,0,0-1,0v2a.5.5,0,0,0,1,0Zm0,5v-2a.5.5,0,0,0-1,0v2a.5.5,0,0,0,1,0Zm0,5v-2a.5.5,0,0,0-1,0v2a.5.5,0,0,0,1,0Zm30-10v-2a.5.5,0,0,0-1,0v2a.5.5,0,0,0,1,0Zm0,5v-2a.5.5,0,0,0-1,0v2a.5.5,0,0,0,1,0Zm0,5v-2a.5.5,0,0,0-1,0v2a.5.5,0,0,0,1,0Zm-9-1v-10A1.5,1.5,0,0,0,24.5,13h-10A1.5,1.5,0,0,0,13,14.5v10A1.5,1.5,0,0,0,14.5,26h10A1.5,1.5,0,0,0,26,24.5ZM24.5,14a.5.5,0,0,1,.5.5v10a.5.5,0,0,1-.5.5h-10a.5.5,0,0,1-.5-.5v-10a.5.5,0,0,1,.5-.5Z" style="fill:#2b3436"/><path d="M34.962,4.309A.5.5,0,0,0,34.5,4h-5a.5.5,0,0,0,0,1h3.793l-6.147,6.146a.5.5,0,0,0,.708.708L34,5.707V9.5a.5.5,0,0,0,1,0v-5A.5.5,0,0,0,34.962,4.309Z" style="fill:#009688"/><path d="M5.707,5H9.5a.5.5,0,0,0,0-1h-5a.5.5,0,0,0-.5.5v5a.5.5,0,0,0,1,0V5.707l6.146,6.147a.5.5,0,0,0,.708-.708Z" style="fill:#009688"/><path d="M34.5,29a.5.5,0,0,0-.5.5v3.793l-6.146-6.147a.5.5,0,0,0-.708.708L33.293,34H29.5a.5.5,0,0,0,0,1h5a.5.5,0,0,0,.5-.5v-5A.5.5,0,0,0,34.5,29Z" style="fill:#009688"/><path d="M11.146,27.146,5,33.293V29.5a.5.5,0,0,0-1,0v5a.5.5,0,0,0,.5.5h5a.5.5,0,0,0,0-1H5.707l6.147-6.146a.5.5,0,0,0-.708-.708Z" style="fill:#009688"/></svg>