<svg width="20" height="20" viewBox="0 0 20 20" fill="none" xmlns="http://www.w3.org/2000/svg">
<path d="M16.992 17.4421C16.8521 15.3781 15.8193 13.4579 14.1584 12.1736L14.0586 12.1054L14.0577 12.1066C13.9632 12.0495 13.8555 12.019 13.7448 12.019C13.3641 12.019 13.1367 12.2003 13.1367 12.504C13.1367 12.6808 13.2196 12.8471 13.3585 12.96L13.3568 12.9626L13.445 13.0249C14.8378 14.0081 15.622 15.4995 15.7756 17.4583L15.7773 17.4798C15.7759 17.4962 15.7751 17.5127 15.7751 17.5297C15.7751 17.8606 16.0469 18.129 16.382 18.129C16.706 18.129 16.9705 17.8785 16.9879 17.5628H17L16.992 17.4421ZM15.0378 7.404C15.0378 4.42429 12.5535 2 9.50005 2C6.44635 2 3.96207 4.42429 3.96207 7.404C3.96207 9.00946 4.6808 10.5068 5.9407 11.5394C3.67916 12.7314 2.17816 15.0052 2.00832 17.5158L2.00132 17.6203C2.00132 17.6225 2.00107 17.6246 2.00083 17.6268L2.00011 17.6365C1.99987 17.6415 2.00011 17.6468 2.00011 17.6518C2.00011 17.9324 2.23034 18.16 2.5147 18.16C2.79881 18.16 3.02928 17.9324 3.02928 17.6518C3.02928 17.6468 3.02904 17.6415 3.0288 17.6363H3.03943L3.0474 17.532C3.23391 15.1462 4.76511 13.0571 6.95369 12.1963C7.60719 12.4962 8.60472 12.8082 9.49933 12.8082C10.3282 12.8082 11.1332 12.6279 11.8998 12.2681L12.4612 11.9462L12.9198 11.6492C14.2657 10.6142 15.0378 9.06696 15.0378 7.404ZM9.49981 11.72C7.05974 11.72 5.07483 9.78344 5.07483 7.40329C5.07483 5.02362 7.05974 3.08748 9.49981 3.08748C11.9401 3.08748 13.9253 5.02362 13.9253 7.40329C13.9253 9.78344 11.9401 11.72 9.49981 11.72Z" fill="#EBEBEB"/>
</svg>
