<svg xmlns="http://www.w3.org/2000/svg" xml:space="preserve" width="146mm" height="182mm" viewBox="-147 -170.5 180 180">
<polygon fill="#F2F2F2" points="5.59,0.09 4.54,0.09 4.54,5.29 8.22,5.29 8.22,4.3 5.59,4.3 "/>
<polygon fill="#F2F2F2" points="-0,0.1 -0,5.29 3.85,5.29 3.85,4.3 1.04,4.3 1.04,3.16 3.31,3.16 3.31,2.17 1.04,2.17 1.04,1.08 3.85,1.08 3.85,0.1 "/>
<polygon fill="#F2F2F2" points="9.79,4.3 9.79,3.16 12.06,3.16 12.06,2.17 9.79,2.17 9.79,1.08 12.59,1.08 12.59,0.09 8.74,0.09 8.74,5.29 12.59,5.29 12.59,4.3 "/>
<path fill="#F2F2F2" d="M17 4.64l0 0.64 0.9 0 0 -2.92 -2.59 0 0 0.91 1.53 0c-0.08,0.24 -0.19,0.49 -0.37,0.68 -0.1,0.11 -0.22,0.19 -0.35,0.26 -0.13,0.07 -0.27,0.11 -0.42,0.13 -0.1,0.02 -0.2,0.02 -0.31,0.01 -0.09,-0 -0.18,-0.02 -0.26,-0.04 -0.07,-0.02 -0.15,-0.04 -0.22,-0.06 -0.08,-0.03 -0.17,-0.07 -0.24,-0.12 -0.16,-0.11 -0.3,-0.25 -0.41,-0.42 -0.04,-0.07 -0.08,-0.14 -0.12,-0.21 -0.07,-0.16 -0.13,-0.32 -0.15,-0.49 -0.02,-0.12 -0.03,-0.25 -0.03,-0.37 -0,-0.08 0,-0.15 0.01,-0.23 0.01,-0.11 0.05,-0.22 0.09,-0.33 0.05,-0.14 0.12,-0.28 0.2,-0.41 0.08,-0.12 0.17,-0.23 0.28,-0.32 0.09,-0.08 0.2,-0.15 0.31,-0.2 0.08,-0.04 0.16,-0.06 0.25,-0.09 0.06,-0.02 0.13,-0.03 0.19,-0.04 0.07,-0.01 0.13,-0.02 0.2,-0.02 0.09,-0 0.18,0.01 0.27,0.03 0.06,0.01 0.13,0.03 0.19,0.05 0.04,0.01 0.09,0.03 0.13,0.05 0.08,0.04 0.17,0.08 0.24,0.13 0.07,0.05 0.13,0.1 0.19,0.15 0.12,0.12 0.22,0.27 0.29,0.43 0.3,-0.19 0.59,-0.39 0.89,-0.58 -0.19,-0.34 -0.46,-0.63 -0.78,-0.84 -0.09,-0.06 -0.19,-0.12 -0.29,-0.17 -0.21,-0.1 -0.43,-0.17 -0.66,-0.21 -0.17,-0.03 -0.34,-0.05 -0.51,-0.04 -0.11,0 -0.21,0.01 -0.32,0.02 -0.2,0.02 -0.39,0.06 -0.58,0.13 -0.19,0.07 -0.38,0.16 -0.54,0.28 -0.16,0.11 -0.31,0.24 -0.44,0.38 -0.1,0.11 -0.18,0.23 -0.26,0.35 -0.07,0.11 -0.13,0.22 -0.18,0.34 -0.05,0.13 -0.09,0.26 -0.13,0.39 -0.05,0.17 -0.09,0.34 -0.1,0.52 -0.02,0.17 -0.01,0.35 -0,0.52 0.01,0.17 0.03,0.34 0.07,0.51 0.03,0.15 0.09,0.29 0.15,0.43 0.06,0.13 0.12,0.25 0.2,0.37 0.1,0.14 0.21,0.27 0.33,0.39 0.05,0.05 0.11,0.1 0.17,0.15 0.18,0.15 0.39,0.27 0.6,0.37 0.09,0.04 0.19,0.08 0.29,0.11 0.1,0.03 0.2,0.05 0.3,0.07 0.15,0.02 0.31,0.03 0.46,0.02 0.09,-0 0.18,-0.01 0.28,-0.02 0.07,-0.01 0.13,-0.02 0.2,-0.03 0.08,-0.02 0.16,-0.04 0.24,-0.07 0.05,-0.02 0.1,-0.03 0.15,-0.05 0.07,-0.03 0.13,-0.07 0.19,-0.11 0.06,-0.04 0.13,-0.07 0.19,-0.11 0.12,-0.08 0.21,-0.21 0.3,-0.32z"/>
<path fill="#F2F2F2" d="M24.08 3.08c-0.06,-0.16 -0.11,-0.33 -0.15,-0.5 -0.05,-0.19 -0.11,-0.39 -0.17,-0.58 -0.03,-0.11 -0.07,-0.21 -0.12,-0.31 -0.08,-0.19 -0.17,-0.38 -0.29,-0.55 -0.08,-0.13 -0.18,-0.25 -0.28,-0.35 -0.1,-0.1 -0.2,-0.18 -0.31,-0.26 -0.09,-0.07 -0.19,-0.13 -0.29,-0.19 -0.14,-0.08 -0.29,-0.14 -0.44,-0.19 -0.15,-0.05 -0.3,-0.09 -0.46,-0.11 -0.24,-0.04 -0.49,-0.03 -0.73,-0 -0.18,0.02 -0.36,0.06 -0.53,0.12 -0.13,0.04 -0.25,0.1 -0.37,0.16 -0.29,0.15 -0.55,0.35 -0.76,0.6 -0.11,0.13 -0.2,0.26 -0.28,0.41 -0.14,0.25 -0.26,0.52 -0.31,0.8 -0.03,0.14 -0.04,0.27 -0.05,0.41 -0.01,0.12 -0.01,0.24 -0,0.35 0.01,0.16 0.04,0.32 0.07,0.47 0.05,0.23 0.13,0.46 0.24,0.67 0.05,0.09 0.1,0.17 0.16,0.25 0.1,0.14 0.22,0.28 0.35,0.4 0.17,0.16 0.35,0.29 0.56,0.4 0.13,0.07 0.26,0.13 0.4,0.17 0.13,0.04 0.27,0.08 0.41,0.1 0.19,0.03 0.38,0.04 0.57,0.03 0.14,-0.01 0.28,-0.02 0.42,-0.05 0.18,-0.03 0.35,-0.09 0.51,-0.16 0.11,-0.04 0.21,-0.09 0.31,-0.15 0.22,-0.13 0.43,-0.3 0.61,-0.48 -0.21,-0.33 -0.41,-0.68 -0.61,-1.02 -0.07,0.13 -0.15,0.26 -0.25,0.36 -0.05,0.05 -0.1,0.1 -0.16,0.14 -0.07,0.05 -0.14,0.11 -0.21,0.15 -0.06,0.04 -0.13,0.06 -0.2,0.09 -0.05,0.02 -0.09,0.03 -0.14,0.05 -0.05,0.01 -0.1,0.03 -0.15,0.03 -0.08,0.01 -0.16,0.01 -0.24,0.01 -0.11,-0 -0.22,-0.01 -0.33,-0.04 -0.15,-0.04 -0.3,-0.1 -0.43,-0.18 -0.12,-0.07 -0.23,-0.16 -0.33,-0.26 -0.18,-0.19 -0.3,-0.44 -0.37,-0.7 -0.03,-0.11 -0.06,-0.23 -0.07,-0.34 -0.02,-0.21 0,-0.43 0.06,-0.64 0.08,-0.29 0.23,-0.56 0.45,-0.77 0.12,-0.12 0.26,-0.22 0.41,-0.29 0.08,-0.04 0.16,-0.06 0.24,-0.09 0.08,-0.02 0.17,-0.04 0.25,-0.05 0.11,-0.01 0.23,-0.01 0.34,0 0.12,0.02 0.24,0.05 0.35,0.1 0.1,0.04 0.19,0.09 0.27,0.15 0.09,0.06 0.17,0.13 0.25,0.21 0.12,0.13 0.22,0.27 0.3,0.42 0.04,0.06 0.07,0.13 0.1,0.19 0.07,0.15 0.12,0.3 0.16,0.45 0.04,0.15 0.08,0.29 0.12,0.44 0.08,0.27 0.16,0.54 0.27,0.8 0.1,0.22 0.22,0.44 0.38,0.63 0.18,0.22 0.4,0.41 0.64,0.56 0.2,0.13 0.42,0.23 0.65,0.29 0.16,0.05 0.32,0.08 0.48,0.1 0.25,0.03 0.5,0.02 0.75,-0.02 0.26,-0.04 0.52,-0.13 0.75,-0.25 0.24,-0.12 0.45,-0.28 0.64,-0.47 0.23,-0.23 0.41,-0.51 0.54,-0.81 0.13,-0.3 0.21,-0.62 0.23,-0.94 0.04,-0.46 -0.03,-0.93 -0.22,-1.35 -0.11,-0.23 -0.25,-0.45 -0.42,-0.64 -0.17,-0.19 -0.37,-0.36 -0.58,-0.49 -0.18,-0.11 -0.38,-0.2 -0.59,-0.26 -0.12,-0.04 -0.25,-0.06 -0.38,-0.08 -0.13,-0.02 -0.25,-0.03 -0.38,-0.03 -0.22,-0 -0.44,0.01 -0.66,0.06 -0.23,0.05 -0.46,0.12 -0.66,0.23 -0.13,0.07 -0.25,0.15 -0.36,0.24 -0.11,0.09 -0.22,0.19 -0.33,0.28 0.12,0.16 0.23,0.33 0.32,0.51 0.1,0.17 0.19,0.36 0.29,0.53 0.13,-0.27 0.34,-0.49 0.59,-0.65 0.14,-0.08 0.29,-0.15 0.45,-0.18 0.19,-0.04 0.38,-0.04 0.57,-0 0.19,0.04 0.38,0.12 0.55,0.23 0.17,0.11 0.32,0.26 0.43,0.43 0.12,0.17 0.2,0.36 0.25,0.56 0.1,0.41 0.05,0.85 -0.14,1.23 -0.07,0.14 -0.16,0.28 -0.27,0.39 -0.11,0.12 -0.23,0.22 -0.37,0.3 -0.15,0.09 -0.32,0.15 -0.49,0.17 -0.16,0.03 -0.32,0.03 -0.47,0 -0.14,-0.02 -0.27,-0.07 -0.4,-0.13 -0.31,-0.16 -0.56,-0.44 -0.73,-0.74 -0.07,-0.13 -0.13,-0.26 -0.18,-0.4z"/>
</svg>
