<svg width="146.483mm" height="182.019mm" viewBox="-50 -850 4350 4000" fill="none" xmlns="http://www.w3.org/2000/svg">
<rect x="23.5083" y="47.3984" width="35.2051" height="238.804" fill="#444646"/>
<path fill="#F2F2F2" d="M2469.29 3143.2c-17.64,-31.87 -35.28,-63.74 -52.92,-95.61l-21.22 0c17.64,31.87 35.28,63.74 52.92,95.61l21.22 0z"/>
<path fill="#F2F2F2" d="M2446.82 3047.6l-21.22 0c17.64,31.87 35.28,63.74 52.92,95.61l21.23 0c-17.64,-31.87 -35.28,-63.74 -52.92,-95.61z"/>
<polygon fill="#F2F2F2" points="1908.19,3042.91 1888.17,3042.91 1888.17,3142.38 1958.57,3142.38 1958.57,3123.49 1908.19,3123.49 "/>
<polygon fill="#F2F2F2" points="1801.32,3043.07 1801.32,3142.38 1874.86,3142.38 1874.86,3123.49 1821.3,3123.49 1821.3,3101.62 1864.6,3101.62 1864.6,3082.69 1821.3,3082.69 1821.3,3061.83 1874.86,3061.83 1874.86,3043.07 "/>
<polygon fill="#F2F2F2" points="1988.48,3123.49 1988.48,3101.62 2032.06,3101.62 2032.06,3082.69 1988.48,3082.69 1988.48,3061.83 2042.04,3061.83 2042.04,3042.91 1968.46,3042.91 1968.46,3142.39 2042.04,3142.39 2042.04,3123.49 "/>
<path fill="#F2F2F2" d="M2385.92 3047.6l-21.22 0c17.64,31.87 35.28,63.74 52.92,95.61l21.23 0c-17.64,-31.87 -35.28,-63.74 -52.92,-95.61z"/>
<path fill="#F2F2F2" d="M2408.38 3143.2c-15.49,-27.96 -30.96,-55.94 -46.44,-83.91l0 38.35c8.4,15.19 16.81,30.37 25.22,45.56l21.22 0z"/>
<path fill="#F2F2F2" d="M2126.41 3130.06l0 12.32 17.16 0 0 -55.82 -49.63 0 0 17.36 29.26 0c-1.61,4.58 -3.67,9.34 -7.06,12.96 -1.92,2.02 -4.24,3.67 -6.73,4.92 -2.49,1.24 -5.19,2.1 -7.95,2.51 -1.94,0.3 -3.89,0.37 -5.85,0.27 -1.68,-0.1 -3.36,-0.32 -5.01,-0.68 -1.4,-0.3 -2.79,-0.69 -4.13,-1.19 -1.62,-0.6 -3.19,-1.37 -4.63,-2.3 -3.14,-2.02 -5.75,-4.85 -7.78,-7.95 -0.83,-1.27 -1.56,-2.59 -2.21,-3.96 -1.41,-2.97 -2.41,-6.15 -2.96,-9.39 -0.4,-2.36 -0.57,-4.74 -0.57,-7.13 -0.01,-1.46 0.03,-2.92 0.24,-4.36 0.29,-2.15 0.9,-4.24 1.64,-6.27 1.01,-2.74 2.26,-5.4 3.86,-7.86 1.49,-2.29 3.27,-4.39 5.34,-6.17 1.8,-1.55 3.81,-2.86 5.97,-3.83 1.52,-0.69 3.1,-1.22 4.71,-1.65 1.22,-0.32 2.46,-0.59 3.71,-0.78 1.25,-0.19 2.51,-0.3 3.78,-0.31 1.76,-0.01 3.53,0.18 5.25,0.55 1.23,0.26 2.43,0.63 3.62,1.01 0.85,0.28 1.69,0.57 2.52,0.92 1.62,0.68 3.16,1.55 4.61,2.54 1.29,0.88 2.5,1.85 3.61,2.94 2.35,2.33 4.17,5.19 5.54,8.18 5.68,-3.71 11.36,-7.41 17.03,-11.12 -3.61,-6.41 -8.81,-11.97 -14.91,-16.07 -1.76,-1.18 -3.6,-2.25 -5.5,-3.17 -3.97,-1.93 -8.25,-3.25 -12.59,-4.02 -3.24,-0.59 -6.54,-0.86 -9.84,-0.82 -2.04,0.02 -4.09,0.17 -6.12,0.4 -3.74,0.44 -7.47,1.17 -11.03,2.4 -3.69,1.28 -7.18,3.09 -10.41,5.29 -3.07,2.09 -5.91,4.54 -8.39,7.31 -1.86,2.08 -3.53,4.33 -5.03,6.69 -1.32,2.07 -2.53,4.23 -3.5,6.48 -1.04,2.43 -1.81,4.96 -2.51,7.51 -0.89,3.23 -1.64,6.52 -1.99,9.86 -0.34,3.33 -0.27,6.69 -0.07,10.02 0.2,3.24 0.51,6.5 1.26,9.67 0.66,2.81 1.65,5.53 2.83,8.16 1.1,2.45 2.37,4.83 3.87,7.07 1.84,2.74 4,5.25 6.37,7.54 1.04,1 2.11,1.96 3.23,2.86 3.49,2.84 7.39,5.19 11.49,7.03 1.78,0.8 3.59,1.5 5.45,2.06 1.91,0.57 3.86,0.99 5.83,1.28 2.9,0.41 5.85,0.51 8.78,0.39 1.76,-0.07 3.52,-0.22 5.27,-0.42 1.29,-0.15 2.56,-0.32 3.83,-0.6 1.57,-0.34 3.1,-0.85 4.63,-1.32 0.96,-0.3 1.93,-0.6 2.86,-1.01 1.26,-0.55 2.43,-1.32 3.61,-2.01 1.19,-0.68 2.44,-1.3 3.57,-2.1 2.28,-1.61 4.07,-3.94 5.68,-6.16z"/>
<path fill="#F2F2F2" d="M2261.91 3100.05c-1.12,-3.11 -2.05,-6.3 -2.95,-9.49 -1.03,-3.71 -2.02,-7.43 -3.23,-11.09 -0.67,-2.02 -1.39,-4.02 -2.2,-5.99 -1.53,-3.67 -3.33,-7.23 -5.53,-10.55 -1.59,-2.42 -3.38,-4.71 -5.44,-6.75 -1.86,-1.84 -3.9,-3.46 -6.01,-5.01 -1.78,-1.31 -3.6,-2.57 -5.53,-3.66 -2.68,-1.52 -5.55,-2.69 -8.47,-3.65 -2.85,-0.94 -5.77,-1.7 -8.74,-2.14 -4.6,-0.68 -9.3,-0.62 -13.91,-0.05 -3.45,0.42 -6.87,1.14 -10.17,2.25 -2.42,0.83 -4.77,1.86 -7.04,3.06 -5.47,2.87 -10.57,6.69 -14.61,11.39 -2.06,2.4 -3.84,5.03 -5.42,7.77 -2.73,4.75 -4.91,9.94 -5.96,15.35 -0.5,2.6 -0.73,5.25 -0.89,7.89 -0.13,2.24 -0.22,4.5 -0.09,6.74 0.17,3.03 0.72,6.03 1.43,8.97 1.05,4.39 2.46,8.73 4.57,12.74 0.89,1.69 1.9,3.32 3.01,4.87 1.97,2.76 4.22,5.31 6.69,7.63 3.19,3 6.76,5.64 10.62,7.72 2.43,1.31 4.98,2.39 7.61,3.27 2.53,0.84 5.12,1.49 7.75,1.92 3.58,0.59 7.23,0.76 10.86,0.63 2.71,-0.1 5.41,-0.37 8.08,-0.91 3.35,-0.67 6.61,-1.73 9.76,-3.03 2.01,-0.82 3.99,-1.74 5.88,-2.81 4.3,-2.45 8.14,-5.74 11.67,-9.18 -4.09,-6.37 -7.89,-12.92 -11.67,-19.48 -1.31,2.48 -2.85,4.94 -4.82,6.96 -0.93,0.96 -1.96,1.83 -3.01,2.67 -1.28,1.03 -2.61,2.05 -4.05,2.87 -1.21,0.68 -2.49,1.22 -3.77,1.72 -0.9,0.34 -1.81,0.67 -2.73,0.94 -0.92,0.28 -1.86,0.51 -2.81,0.66 -1.5,0.23 -3.04,0.28 -4.56,0.26 -2.12,-0.03 -4.26,-0.2 -6.33,-0.67 -2.93,-0.68 -5.7,-1.97 -8.26,-3.5 -2.3,-1.39 -4.49,-3 -6.35,-4.95 -3.5,-3.68 -5.74,-8.51 -7.17,-13.3 -0.64,-2.14 -1.12,-4.33 -1.34,-6.56 -0.41,-4.07 0.04,-8.23 1.16,-12.16 1.58,-5.5 4.46,-10.69 8.55,-14.73 2.27,-2.24 4.91,-4.14 7.82,-5.47 1.47,-0.68 3,-1.22 4.57,-1.63 1.56,-0.41 3.17,-0.69 4.77,-0.86 2.15,-0.24 4.33,-0.28 6.49,0 2.3,0.3 4.55,0.98 6.68,1.86 1.82,0.75 3.58,1.67 5.21,2.78 1.71,1.16 3.27,2.55 4.69,4.06 2.24,2.41 4.12,5.14 5.71,8.01 0.67,1.2 1.28,2.42 1.84,3.67 1.26,2.79 2.25,5.69 3.13,8.62 0.84,2.78 1.58,5.57 2.36,8.36 1.45,5.18 3.02,10.36 5.2,15.29 1.91,4.3 4.3,8.42 7.24,12.09 3.4,4.22 7.56,7.87 12.16,10.74 3.88,2.43 8.08,4.32 12.46,5.61 3.02,0.9 6.12,1.51 9.25,1.85 4.79,0.53 9.64,0.4 14.39,-0.42 4.99,-0.85 9.86,-2.5 14.36,-4.81 4.5,-2.31 8.68,-5.31 12.26,-8.9 4.4,-4.42 7.81,-9.72 10.26,-15.44 2.43,-5.69 3.93,-11.84 4.44,-18 0.71,-8.81 -0.59,-17.79 -4.28,-25.88 -2.03,-4.44 -4.76,-8.59 -7.98,-12.25 -3.23,-3.67 -7,-6.88 -11.16,-9.45 -3.52,-2.17 -7.32,-3.88 -11.29,-5.05 -2.35,-0.69 -4.76,-1.2 -7.19,-1.54 -2.43,-0.34 -4.88,-0.52 -7.33,-0.56 -4.22,-0.08 -8.42,0.26 -12.56,1.1 -4.39,0.89 -8.71,2.35 -12.66,4.49 -2.45,1.34 -4.76,2.93 -6.96,4.65 -2.2,1.72 -4.3,3.56 -6.37,5.44 2.36,3.05 4.34,6.35 6.21,9.72 1.84,3.33 3.64,6.82 5.57,10.09 2.44,-5.15 6.42,-9.44 11.29,-12.36 2.67,-1.61 5.61,-2.81 8.67,-3.45 3.57,-0.76 7.32,-0.76 10.89,-0.06 3.73,0.74 7.28,2.24 10.42,4.37 3.26,2.19 6.05,5.03 8.27,8.26 2.21,3.22 3.88,6.85 4.86,10.63 1.99,7.81 1.01,16.32 -2.6,23.52 -1.37,2.71 -3.11,5.26 -5.17,7.5 -2.06,2.25 -4.45,4.19 -7.11,5.7 -2.92,1.66 -6.13,2.78 -9.44,3.32 -3,0.49 -6.07,0.51 -9.07,0 -2.63,-0.45 -5.19,-1.3 -7.57,-2.52 -5.98,-3.04 -10.77,-8.34 -13.99,-14.12 -1.35,-2.44 -2.44,-5 -3.38,-7.63z"/>
<path fill="#F2F2F2" d="M2361.94 3114.31l0 22.17c0,1.76 0.69,3.44 1.91,4.7 0.63,0.64 1.37,1.15 2.2,1.49 0.41,0.17 0.84,0.31 1.27,0.39 0.44,0.09 0.88,0.13 1.33,0.13l9.27 0c-5.33,-9.63 -10.66,-19.26 -15.99,-28.89z"/>
<path fill="#F2F2F2" d="M2477.27 3047.6l-21.22 0c17.64,31.87 35.28,63.74 52.92,95.61l21.23 0c-17.64,-31.87 -35.28,-63.74 -52.92,-95.61z"/>
<path fill="#F2F2F2" d="M110.82 2614.64l0 -24.6c-34.73,32.66 -69.45,65.33 -104.18,97.99l0 24.6c34.73,-32.66 69.45,-65.32 104.18,-97.99z"/>
<path fill="#F2F2F2" d="M110.82 2544.71l0 -24.6c-34.73,32.66 -69.45,65.33 -104.18,97.99l0 24.6c34.73,-32.66 69.45,-65.32 104.18,-97.99z"/>
<path fill="#F2F2F2" d="M6.64 2502.61c34.73,-32.66 69.45,-65.33 104.18,-97.99l0 -24.38c-34.73,32.66 -69.45,65.33 -104.18,97.99l0 24.38z"/>
<path fill="#F2F2F2" d="M110.82 2474.78l0 -24.6c-34.73,32.66 -69.45,65.33 -104.18,97.99l0 24.6c34.73,-32.66 69.45,-65.32 104.18,-97.99z"/>
<path fill="#F2F2F2" d="M110.82 2334.47l0 -24.38c-34.73,32.66 -69.45,65.33 -104.18,97.99l0 24.39c34.73,-32.67 69.45,-65.33 104.18,-98z"/>
<path fill="#F2F2F2" d="M6.64 2362.32c34.73,-32.67 69.45,-65.33 104.18,-98l0 -24.38c-34.73,32.67 -69.45,65.33 -104.18,98l0 24.38z"/>
<path fill="#F2F2F2" d="M6.64 2292.16c34.73,-32.67 69.45,-65.33 104.18,-98l0 -24.38c-34.73,32.67 -69.45,65.33 -104.18,98l0 24.38z"/>
<path fill="#F2F2F2" d="M6.64 2222.01c34.73,-32.67 69.45,-65.33 104.18,-98l0 -24.38c-34.73,32.67 -69.45,65.33 -104.18,98l0 24.38z"/>
<path fill="#F2F2F2" d="M90.99 2048.14c-28.11,26.45 -56.23,52.89 -84.35,79.34l0 24.38c32.31,-30.39 64.61,-60.77 96.91,-91.15 -4.18,-4.19 -8.37,-8.38 -12.56,-12.57z"/>
<path fill="#F2F2F2" d="M54.84 2011.98c-16.06,15.11 -32.14,30.23 -48.2,45.34l0 24.38c20.25,-19.05 40.51,-38.11 60.76,-57.16 -4.18,-4.19 -8.37,-8.38 -12.56,-12.57z"/>
<path fill="#F2F2F2" d="M6.64 2011.55c8.21,-7.72 16.42,-15.44 24.63,-23.16l-13.56 -13.56c-1.85,-1.86 -4.63,-2.41 -7.04,-1.42 -2.41,1 -4.02,3.36 -4.02,6l0 32.14z"/>
<path fill="#F2F2F2" d="M110.83 2825.09l0 -24.6c-23.73,22.31 -47.45,44.63 -71.17,66.95l26.15 0c15.01,-14.12 30.02,-28.23 45.03,-42.35z"/>
<path fill="#F2F2F2" d="M110.83 2754.5l0 -24.6c-34.73,32.66 -69.45,65.33 -104.18,97.99l0 24.6c34.73,-32.66 69.45,-65.32 104.18,-97.99z"/>
<path fill="#F2F2F2" d="M110.82 2684.57l0 -24.6c-34.73,32.66 -69.45,65.33 -104.18,97.99l0 24.6c34.73,-32.66 69.45,-65.33 104.18,-97.99z"/>
<polygon fill="#F2F2F2" points="167.56,2927.91 160.72,2889.54 129.19,2921.07 "/>
<path fill="#F2F2F2" d="M20.84 2925.72c-1.63,4.99 -6.65,8.05 -11.84,7.23 -5.19,-0.83 -9,-5.3 -9,-10.55 0,-5.25 3.82,-9.73 9,-10.56 5.19,-0.83 10.21,2.24 11.84,7.23l53.92 0 83.97 -83.97 0 -780.58c-48.55,-47.1 -97.1,-94.2 -145.65,-141.3 0,-562.36 0,-1307.92 0,-1892.38 -2.14,-0.7 -4,-2.05 -5.32,-3.86 -1.33,-1.83 -2.05,-4.03 -2.05,-6.29 0,-2.85 1.14,-5.58 3.15,-7.58 2.01,-2 4.72,-3.11 7.54,-3.11 2.81,0 5.52,1.11 7.53,3.11 2.01,2 3.15,4.73 3.15,7.58 0,2.26 -0.72,4.45 -2.05,6.29 -1.33,1.82 -3.19,3.17 -5.32,3.86 0.01,583.69 0,1329 0,1889.56 48.55,47.1 97.1,94.2 145.66,141.3 0,262.06 0,524.11 -0,786.17 -29.28,29.28 -58.57,58.57 -87.85,87.85l-56.67 0z"/>
<rect fill="#F2F2F2" x="59.16" y="699.41" width="82.88" height="8.64"/>
<path fill="#F2F2F2" d="M209.81 1767.94c16.19,8.97 16.19,23.59 0,32.56l-123.33 73.62c-15.71,8.97 -29.05,1.41 -29.05,-16.05l0 -147.23c0,-17.93 12.86,-25.48 29.05,-16.52l123.33 73.62zm-3.42 5.94l-123.33 -73.62c-5.77,-3.18 -10.36,-3.79 -13.77,-1.83 -3.34,1.92 -5.01,6.05 -5.01,12.4l0 147.23c0,6.07 1.7,10.05 5.11,11.94 3.52,1.96 8.05,1.37 13.57,-1.78l123.33 -73.62 0.1 -0.06 0.1 -0.06c5.74,-3.18 8.61,-6.61 8.61,-10.28 0,-3.68 -2.87,-7.11 -8.61,-10.28l-0.1 -0.05z"/>
<path fill="#F2F2F2" d="M114.78 1821.46l0 -74.48c0,-1.82 -0.77,-3.22 -2.32,-4.18l-18.1 -11.32c-1.64,-1.03 -3.31,-1.07 -5.01,-0.13 -1.7,0.94 -2.54,2.38 -2.54,4.32l0 97.11c0,1.94 0.85,3.38 2.54,4.32 1.7,0.94 3.36,0.89 5.01,-0.13l18.1 -11.31c1.55,-0.97 2.32,-2.36 2.32,-4.19zm-6.85 -73.42l-14.26 -8.92 0 90.18 14.26 -8.91 0 -72.35z"/>
<path fill="#F2F2F2" d="M150.84 1807.69c0.32,0.36 0.71,0.64 1.15,0.84 0.45,0.2 0.91,0.3 1.4,0.3 0.22,0 0.45,-0.02 0.67,-0.07 0.22,-0.04 0.44,-0.11 0.64,-0.2 0.21,-0.09 0.41,-0.19 0.59,-0.32 0.19,-0.13 0.36,-0.27 0.52,-0.43 0.16,-0.16 0.3,-0.33 0.42,-0.52 0.13,-0.19 0.23,-0.39 0.32,-0.59 0.09,-0.21 0.15,-0.42 0.2,-0.64 0.04,-0.22 0.07,-0.44 0.07,-0.67 0,-0.42 -0.08,-0.83 -0.23,-1.22 -0.15,-0.39 -0.37,-0.75 -0.65,-1.06l0 0 0 0c-2.5,-2.79 -6.75,-4.85 -12.76,-6.17 -2.06,-0.45 -4.05,-0.21 -5.97,0.72 -0.97,0.48 -2.2,1.34 -3.67,2.58 -1.4,1.19 -2.34,1.75 -2.79,1.7 -1.41,-0.15 -3.54,-2.04 -6.39,-5.67 -0.16,-0.2 -0.34,-0.39 -0.54,-0.55 -0.2,-0.16 -0.42,-0.3 -0.65,-0.41 -0.23,-0.11 -0.48,-0.2 -0.73,-0.26 -0.25,-0.06 -0.51,-0.09 -0.77,-0.09 -0.23,0 -0.45,0.02 -0.67,0.07 -0.22,0.04 -0.43,0.11 -0.64,0.2 -0.21,0.09 -0.41,0.19 -0.59,0.32 -0.19,0.13 -0.36,0.27 -0.52,0.43 -0.16,0.16 -0.3,0.33 -0.42,0.52 -0.13,0.19 -0.23,0.38 -0.32,0.59 -0.09,0.21 -0.15,0.42 -0.2,0.64 -0.04,0.22 -0.07,0.44 -0.07,0.67 0,0.38 0.06,0.76 0.19,1.12 0.13,0.36 0.31,0.69 0.54,1 4.04,5.14 7.72,7.89 11.05,8.25 1.67,0.18 3.31,-0.17 4.9,-1.05 0.78,-0.43 1.8,-1.18 3.05,-2.24 1.67,-1.41 2.92,-2.03 3.74,-1.85 4.57,1.01 7.62,2.36 9.13,4.05z"/>
<path fill="#F2F2F2" d="M150.84 1787.79c0.32,0.36 0.71,0.64 1.15,0.84 0.45,0.2 0.91,0.3 1.4,0.3 0.22,0 0.45,-0.02 0.67,-0.07 0.22,-0.04 0.44,-0.11 0.64,-0.2 0.21,-0.09 0.41,-0.19 0.59,-0.32 0.19,-0.12 0.36,-0.27 0.52,-0.42 0.16,-0.16 0.3,-0.33 0.42,-0.52 0.13,-0.19 0.23,-0.39 0.32,-0.59 0.09,-0.21 0.15,-0.42 0.2,-0.64 0.04,-0.22 0.07,-0.44 0.07,-0.67 0,-0.42 -0.08,-0.83 -0.23,-1.22 -0.15,-0.39 -0.37,-0.75 -0.65,-1.06l0 0 0 -0c-2.5,-2.79 -6.75,-4.85 -12.76,-6.17 -2.06,-0.45 -4.05,-0.21 -5.97,0.72 -0.97,0.48 -2.2,1.34 -3.67,2.58 -1.4,1.19 -2.34,1.75 -2.79,1.7 -1.41,-0.15 -3.54,-2.04 -6.39,-5.67 -0.16,-0.2 -0.34,-0.39 -0.54,-0.55 -0.2,-0.16 -0.42,-0.3 -0.65,-0.41 -0.23,-0.11 -0.48,-0.2 -0.73,-0.26 -0.25,-0.06 -0.51,-0.09 -0.77,-0.09 -0.23,0 -0.45,0.02 -0.67,0.07 -0.22,0.04 -0.43,0.11 -0.64,0.2 -0.21,0.09 -0.41,0.19 -0.59,0.32 -0.19,0.12 -0.36,0.27 -0.52,0.43 -0.16,0.16 -0.3,0.33 -0.42,0.52 -0.13,0.19 -0.23,0.39 -0.32,0.59 -0.09,0.21 -0.15,0.42 -0.2,0.64 -0.04,0.22 -0.07,0.44 -0.07,0.67 0,0.38 0.06,0.76 0.19,1.12 0.13,0.36 0.31,0.69 0.54,1 4.04,5.14 7.72,7.89 11.05,8.25 1.67,0.18 3.31,-0.17 4.9,-1.05 0.78,-0.43 1.8,-1.17 3.05,-2.24 1.67,-1.41 2.92,-2.03 3.74,-1.85 4.57,1.01 7.62,2.36 9.13,4.05z"/>
<path fill="#F2F2F2" d="M150.84 1767.87c0.32,0.36 0.71,0.64 1.15,0.84 0.45,0.2 0.91,0.3 1.4,0.3 0.22,0 0.45,-0.02 0.67,-0.07 0.22,-0.04 0.44,-0.11 0.64,-0.2 0.21,-0.09 0.41,-0.19 0.59,-0.32 0.19,-0.12 0.36,-0.27 0.52,-0.42 0.16,-0.16 0.3,-0.33 0.42,-0.52 0.13,-0.19 0.23,-0.39 0.32,-0.59 0.09,-0.21 0.15,-0.42 0.2,-0.64 0.04,-0.22 0.07,-0.44 0.07,-0.67 0,-0.42 -0.08,-0.83 -0.23,-1.22 -0.15,-0.39 -0.37,-0.75 -0.65,-1.06l0 0 0 -0c-2.5,-2.79 -6.75,-4.85 -12.76,-6.17 -2.06,-0.45 -4.05,-0.21 -5.97,0.72 -0.97,0.48 -2.2,1.34 -3.67,2.58 -1.4,1.19 -2.34,1.75 -2.79,1.7 -1.41,-0.15 -3.54,-2.04 -6.39,-5.67 -0.16,-0.2 -0.34,-0.39 -0.54,-0.55 -0.2,-0.16 -0.42,-0.3 -0.65,-0.41 -0.23,-0.11 -0.48,-0.2 -0.73,-0.26 -0.25,-0.06 -0.51,-0.09 -0.77,-0.09 -0.23,0 -0.45,0.02 -0.67,0.07 -0.22,0.04 -0.43,0.11 -0.64,0.2 -0.21,0.09 -0.41,0.19 -0.59,0.32 -0.19,0.12 -0.36,0.27 -0.52,0.43 -0.16,0.16 -0.3,0.33 -0.42,0.52 -0.13,0.19 -0.23,0.39 -0.32,0.59 -0.09,0.21 -0.15,0.42 -0.2,0.64 -0.04,0.22 -0.07,0.44 -0.07,0.67 0,0.38 0.06,0.76 0.19,1.12 0.13,0.36 0.31,0.69 0.54,1 4.04,5.14 7.72,7.89 11.05,8.25 1.67,0.18 3.31,-0.17 4.9,-1.05 0.78,-0.43 1.8,-1.17 3.05,-2.24 1.67,-1.41 2.92,-2.03 3.74,-1.85 4.57,1.01 7.62,2.36 9.13,4.05z"/>
<path fill="#F2F2F2" d="M71.77 159.28l-12.91 0 0 -41.51 10.81 0.03c20.1,12.31 32.53,19.62 37.32,21.95 4.78,2.33 8.51,3.49 11.17,3.49 2.06,0 3.59,-0.37 4.61,-1.07 1.01,-0.7 1.51,-1.77 1.51,-3.2 0,-1.44 -0.56,-2.52 -1.67,-3.22 -1.12,-0.7 -3.33,-1.05 -6.65,-1.05l-7.17 0 0 -16.93 2.76 0c4.22,0 7.57,0.22 10.01,0.65 2.44,0.43 4.85,1.51 7.2,3.22 2.36,1.72 4.16,3.95 5.37,6.69 1.21,2.74 1.82,6.02 1.82,9.85 0,7.51 -1.86,13.18 -5.58,17.04 -3.73,3.84 -8.43,5.77 -14.12,5.77 -4.34,0 -8.91,-1.08 -13.74,-3.25 -4.83,-2.17 -15.06,-8.56 -30.73,-19.16l0 20.69zm62.74 51.96l-12.05 0 0 -23.43 -12.93 0c3.46,2.93 5.18,6.71 5.18,11.33 0,5.21 -1.45,9.15 -4.37,11.83 -2.9,2.66 -8.49,4 -16.78,4l-10.79 0c-5.34,0 -9.28,-0.26 -11.78,-0.77 -2.5,-0.53 -4.83,-1.63 -6.97,-3.3 -2.12,-1.69 -3.76,-4.03 -4.89,-7.05 -1.13,-3.01 -1.7,-6.68 -1.7,-11.01 0,-4.86 0.84,-9.15 2.55,-12.86 1.69,-3.71 4.22,-6.34 7.59,-7.91 3.36,-1.56 8.56,-2.34 15.59,-2.34l4.11 0 0 18.84 -4.7 0c-4.88,0 -8.34,0.18 -10.39,0.53 -2.06,0.35 -3.08,1.55 -3.08,3.6 0,0.96 0.3,1.72 0.89,2.31 0.59,0.59 1.21,0.91 1.9,0.96 0.69,0.05 3.65,0.1 8.9,0.16l14.95 0c2.84,0 4.75,-0.3 5.78,-0.91 1.02,-0.59 1.53,-1.59 1.53,-2.98 0,-0.89 -0.27,-1.64 -0.8,-2.25 -0.53,-0.59 -1.08,-0.99 -1.69,-1.16 -0.6,-0.18 -2.01,-0.26 -4.21,-0.26l0 -18.65 38.16 0.77 0 40.55zm-20.18 58.81l0 -18.84c3.54,0 5.77,-0.03 6.68,-0.11 0.92,-0.08 1.7,-0.46 2.33,-1.15 0.62,-0.67 0.94,-1.59 0.94,-2.76 0,-0.97 -0.3,-1.77 -0.89,-2.41 -0.59,-0.62 -1.34,-0.99 -2.28,-1.08 -0.94,-0.1 -2.82,-0.14 -5.64,-0.14l-12.04 0c2.01,0.97 3.52,2.39 4.53,4.25 1,1.88 1.5,4.19 1.5,6.94 0,3.46 -0.94,6.52 -2.81,9.17 -1.87,2.66 -4.1,4.34 -6.71,5.05 -2.62,0.72 -6.15,1.08 -10.6,1.08l-6.01 0c-5.29,0 -9.23,-0.21 -11.81,-0.61 -2.58,-0.41 -4.97,-1.48 -7.16,-3.25 -2.2,-1.75 -3.91,-4.18 -5.12,-7.24 -1.21,-3.08 -1.82,-6.65 -1.82,-10.73 0,-5.08 0.7,-9.24 2.1,-12.48 1.4,-3.24 3.41,-5.74 6.04,-7.51 2.63,-1.75 5.39,-2.79 8.29,-3.08 2.88,-0.3 8.51,-0.45 16.85,-0.45l10.46 0c8.99,0 15.02,0.13 18.04,0.4 3.03,0.27 5.91,1.34 8.61,3.25 2.71,1.9 4.75,4.49 6.1,7.78 1.36,3.29 2.02,7.08 2.02,11.38 0,5.29 -0.86,9.65 -2.57,13.04 -1.72,3.4 -4.14,5.82 -7.25,7.29 -3.12,1.47 -7.06,2.2 -11.8,2.2zm-23.53 -18.84c2.66,0 4.5,-0.3 5.48,-0.89 1,-0.61 1.5,-1.58 1.5,-2.93 0,-1.32 -0.48,-2.3 -1.42,-2.9 -0.96,-0.62 -2.81,-0.92 -5.56,-0.92l-13.64 0c-3.33,0 -5.5,0.29 -6.54,0.88 -1.02,0.58 -1.53,1.55 -1.53,2.9 0,0.81 0.4,1.67 1.2,2.55 0.78,0.88 2.92,1.32 6.39,1.32l14.12 0zm30.03 65.97l-29.62 -7.46 -32.36 9.09 0 -18.33c8.19,-1.8 15.26,-3.17 21.15,-4.1 -7.38,-1.26 -14.43,-2.62 -21.15,-4.08l0 -15.76 32.36 8.13 29.62 -8.13 0 15.76c-12.7,2.54 -19.91,3.89 -21.63,4.08 10.6,1.8 17.82,3.16 21.63,4.1l0 16.7zm-49.06 48.2l-12.91 0 0 -41.51 10.81 0.03c20.1,12.31 32.53,19.62 37.32,21.95 4.78,2.33 8.51,3.49 11.17,3.49 2.06,0 3.59,-0.37 4.61,-1.07 1.01,-0.7 1.51,-1.77 1.51,-3.2 0,-1.44 -0.56,-2.52 -1.67,-3.22 -1.12,-0.7 -3.33,-1.05 -6.65,-1.05l-7.17 0 0 -16.93 2.76 0c4.22,0 7.57,0.22 10.01,0.65 2.44,0.43 4.85,1.51 7.2,3.22 2.36,1.72 4.16,3.95 5.37,6.69 1.21,2.74 1.82,6.03 1.82,9.85 0,7.51 -1.86,13.18 -5.58,17.04 -3.73,3.84 -8.43,5.77 -14.12,5.77 -4.34,0 -8.91,-1.08 -13.74,-3.25 -4.83,-2.17 -15.06,-8.56 -30.73,-19.16l0 20.69zm62.74 51.96l-12.05 0 0 -23.43 -12.93 0c3.46,2.93 5.18,6.71 5.18,11.33 0,5.21 -1.45,9.15 -4.37,11.83 -2.9,2.66 -8.49,4 -16.78,4l-10.79 0c-5.34,0 -9.28,-0.26 -11.78,-0.77 -2.5,-0.53 -4.83,-1.63 -6.97,-3.3 -2.12,-1.69 -3.76,-4.03 -4.89,-7.05 -1.13,-3.01 -1.7,-6.68 -1.7,-11.01 0,-4.86 0.84,-9.15 2.55,-12.86 1.69,-3.71 4.22,-6.34 7.59,-7.91 3.36,-1.56 8.56,-2.34 15.59,-2.34l4.11 0 0 18.84 -4.7 0c-4.88,0 -8.34,0.18 -10.39,0.53 -2.06,0.35 -3.08,1.55 -3.08,3.6 0,0.96 0.3,1.72 0.89,2.31 0.59,0.59 1.21,0.91 1.9,0.96 0.69,0.05 3.65,0.1 8.9,0.16l14.95 0c2.84,0 4.75,-0.3 5.78,-0.91 1.02,-0.59 1.53,-1.59 1.53,-2.98 0,-0.89 -0.27,-1.64 -0.8,-2.25 -0.53,-0.59 -1.08,-0.99 -1.69,-1.16 -0.6,-0.18 -2.01,-0.26 -4.21,-0.26l0 -18.65 38.16 0.77 0 40.55zm-20.18 58.81l0 -18.84c3.54,0 5.77,-0.03 6.68,-0.11 0.92,-0.08 1.7,-0.46 2.33,-1.15 0.62,-0.67 0.94,-1.59 0.94,-2.76 0,-0.97 -0.3,-1.77 -0.89,-2.41 -0.59,-0.62 -1.34,-0.99 -2.28,-1.08 -0.94,-0.1 -2.82,-0.14 -5.64,-0.14l-12.04 0c2.01,0.97 3.52,2.39 4.53,4.25 1,1.88 1.5,4.19 1.5,6.94 0,3.46 -0.94,6.52 -2.81,9.17 -1.87,2.66 -4.1,4.34 -6.71,5.05 -2.62,0.72 -6.15,1.08 -10.6,1.08l-6.01 0c-5.29,0 -9.23,-0.21 -11.81,-0.61 -2.58,-0.41 -4.97,-1.48 -7.16,-3.25 -2.2,-1.75 -3.91,-4.18 -5.12,-7.24 -1.21,-3.08 -1.82,-6.65 -1.82,-10.73 0,-5.08 0.7,-9.24 2.1,-12.48 1.4,-3.24 3.41,-5.74 6.04,-7.51 2.63,-1.75 5.39,-2.79 8.29,-3.08 2.88,-0.3 8.51,-0.45 16.85,-0.45l10.46 0c8.99,0 15.02,0.13 18.04,0.4 3.03,0.27 5.91,1.34 8.61,3.25 2.71,1.9 4.75,4.49 6.1,7.78 1.36,3.28 2.02,7.08 2.02,11.38 0,5.29 -0.86,9.65 -2.57,13.04 -1.72,3.4 -4.14,5.82 -7.25,7.29 -3.12,1.46 -7.06,2.2 -11.8,2.2zm-23.53 -18.84c2.66,0 4.5,-0.3 5.48,-0.89 1,-0.6 1.5,-1.58 1.5,-2.93 0,-1.32 -0.48,-2.3 -1.42,-2.9 -0.96,-0.62 -2.81,-0.92 -5.56,-0.92l-13.64 0c-3.33,0 -5.5,0.29 -6.54,0.88 -1.02,0.57 -1.53,1.55 -1.53,2.9 0,0.81 0.4,1.67 1.2,2.55 0.78,0.88 2.92,1.32 6.39,1.32l14.12 0zm30.03 47.32l-5.9 -0.29c2.34,1.47 4.11,3.21 5.28,5.23 1.18,2.01 1.77,4.32 1.77,6.9 0,5.04 -2.34,8.99 -7.05,11.89 2.34,1.58 4.11,3.36 5.28,5.35 1.18,1.99 1.77,4.19 1.77,6.63 0,3.19 -0.78,5.85 -2.34,7.94 -1.55,2.11 -3.46,3.44 -5.72,4.03 -2.25,0.59 -5.91,0.89 -11,0.89l-44.06 0 0 -18.27 40.41 0c5.29,0 8.56,-0.17 9.82,-0.54 1.26,-0.35 1.9,-1.18 1.9,-2.5 0,-1.34 -0.62,-2.2 -1.87,-2.58 -1.24,-0.4 -4.53,-0.59 -9.85,-0.59l-40.41 0 0 -18.27 39.37 0c6.07,0 9.72,-0.14 10.93,-0.45 1.21,-0.29 1.82,-1.12 1.82,-2.45 0,-0.84 -0.32,-1.55 -0.96,-2.15 -0.64,-0.59 -1.42,-0.91 -2.34,-0.97 -0.91,-0.06 -2.87,-0.1 -5.85,-0.1l-42.97 0 0 -18.27 61.98 0 0 18.55zm0 77.11l-5.9 -0.29c2.34,1.47 4.11,3.21 5.28,5.23 1.18,2.01 1.77,4.32 1.77,6.9 0,5.04 -2.34,8.99 -7.05,11.89 2.34,1.58 4.11,3.36 5.28,5.35 1.18,1.99 1.77,4.19 1.77,6.63 0,3.19 -0.78,5.85 -2.34,7.94 -1.55,2.11 -3.46,3.44 -5.72,4.03 -2.25,0.59 -5.91,0.89 -11,0.89l-44.06 0 0 -18.27 40.41 0c5.29,0 8.56,-0.17 9.82,-0.54 1.26,-0.35 1.9,-1.18 1.9,-2.5 0,-1.34 -0.62,-2.2 -1.87,-2.58 -1.24,-0.4 -4.53,-0.59 -9.85,-0.59l-40.41 0 0 -18.27 39.37 0c6.07,0 9.72,-0.14 10.93,-0.45 1.21,-0.29 1.82,-1.12 1.82,-2.45 0,-0.84 -0.32,-1.55 -0.96,-2.15 -0.64,-0.59 -1.42,-0.91 -2.34,-0.97 -0.91,-0.06 -2.87,-0.1 -5.85,-0.1l-42.97 0 0 -18.27 61.98 0 0 18.55z"/>
<path fill="#F2F2F2" d="M135.94 855.09l-75.65 -8.77 0 -24.52c11.62,-2.2 24.87,-4.19 39.72,-5.98 -6.39,-0.81 -19.64,-2.65 -39.72,-5.5l0 -24.37 75.65 -8.81 0 19.13 -26.43 2.07 -25.54 1.99c13.22,0.75 30.54,2.57 51.97,5.45l0 20.37c-2.25,0.24 -10.57,0.94 -24.99,2.09l-28.79 2.22c18.31,1.16 36.25,3 53.78,5.5l0 19.13zm-37.68 23.5l0 -17.69 4.16 0c4.8,0 8.49,0.56 11.11,1.66 2.6,1.1 4.89,3.33 6.88,6.66 1.99,3.33 3,7.65 3,12.99 0,6.38 -1.13,11.19 -3.39,14.43 -2.25,3.24 -5.02,5.18 -8.3,5.83 -3.28,0.65 -10.06,0.99 -20.31,0.99l-31.12 0 0 -18.36 5.53 0c-2.23,-1.15 -3.89,-2.65 -5.01,-4.46 -1.12,-1.82 -1.67,-3.98 -1.67,-6.52 0,-3.3 0.92,-6.33 2.77,-9.09 1.87,-2.76 5.91,-4.13 12.18,-4.13l5.1 0c4.64,0 7.79,0.73 9.48,2.2 1.69,1.47 3.65,5.1 5.88,10.9 2.44,6.2 4.06,9.52 4.91,9.96 0.84,0.43 2.55,0.65 5.15,0.65 3.24,0 5.34,-0.24 6.33,-0.73 0.97,-0.48 1.47,-1.29 1.47,-2.42 0,-1.29 -0.41,-2.09 -1.24,-2.39 -0.81,-0.32 -2.96,-0.48 -6.42,-0.48l-6.49 0zm-8.49 6.02c-2.22,-3.04 -4.07,-4.81 -5.56,-5.29 -1.5,-0.5 -3.64,-0.73 -6.44,-0.73 -3.22,0 -5.28,0.21 -6.22,0.64 -0.94,0.41 -1.4,1.26 -1.4,2.52 0,1.2 0.37,1.96 1.1,2.33 0.73,0.37 2.65,0.54 5.77,0.54l12.75 0zm32.5 47.45l-8.16 -0.67c5.87,2.76 8.96,6.74 9.31,11.95l-21.81 0c0,-3.46 -0.46,-6.01 -1.4,-7.63 -0.94,-1.63 -2.23,-2.62 -3.91,-3 -1.66,-0.37 -5.5,-0.56 -11.52,-0.56l-24.48 0 0 -18.84 61.98 0 0 18.75zm0 37.98l-5.75 -0.29c2.29,1.37 4.02,3.05 5.18,5.02 1.15,1.98 1.72,4.26 1.72,6.86 0,3.24 -0.76,5.88 -2.29,7.94 -1.51,2.06 -3.44,3.38 -5.77,3.97 -2.31,0.59 -6.19,0.89 -11.6,0.89l-43.45 0 0 -18.84 42.93 0c4.26,0 6.87,-0.14 7.8,-0.43 0.94,-0.27 1.4,-1.05 1.4,-2.34 0,-1.35 -0.54,-2.2 -1.61,-2.55 -1.08,-0.33 -3.95,-0.51 -8.62,-0.51l-41.89 0 0 -18.84 61.98 0 0 19.13zm13.68 53.68l-9.85 0 0 -19.41 9.85 0 0 19.41zm-13.68 0l-61.98 0 0 -19.41 61.98 0 0 19.41zm0 29.29l-5.75 -0.29c2.29,1.37 4.02,3.04 5.18,5.02 1.15,1.98 1.72,4.25 1.72,6.85 0,3.24 -0.76,5.88 -2.29,7.94 -1.51,2.06 -3.44,3.38 -5.77,3.97 -2.31,0.59 -6.19,0.89 -11.6,0.89l-43.45 0 0 -18.84 42.93 0c4.26,0 6.87,-0.14 7.8,-0.43 0.94,-0.27 1.4,-1.05 1.4,-2.34 0,-1.35 -0.54,-2.2 -1.61,-2.55 -1.08,-0.34 -3.95,-0.51 -8.62,-0.51l-41.89 0 0 -18.84 61.98 0 0 19.13zm0 77.21l-47.74 0c-6.44,0 -10.62,-0.15 -12.5,-0.45 -1.88,-0.29 -3.87,-1.36 -5.98,-3.16 -2.1,-1.82 -3.71,-4.34 -4.81,-7.56 -1.1,-3.24 -1.66,-7.3 -1.66,-12.19 0,-6.03 1.02,-10.86 3.06,-14.51 2.04,-3.65 6.06,-5.53 12.05,-5.66l0 18.27c-2.74,0 -4.11,1.02 -4.11,3.06 0,1.47 0.41,2.44 1.26,2.92 0.84,0.48 2.62,0.72 5.29,0.72l4.69 0c-1.47,-1.63 -2.57,-3.35 -3.32,-5.13 -0.75,-1.8 -1.13,-3.68 -1.13,-5.66 0,-3.41 0.69,-6.22 2.06,-8.42 1.37,-2.21 3.17,-3.71 5.39,-4.53 2.23,-0.81 5.4,-1.23 9.52,-1.23l22.51 0c5.88,0 10.12,1.07 12.7,3.19 2.58,2.13 3.87,5.39 3.87,9.74 0,2.38 -0.49,4.54 -1.46,6.5 -0.97,1.96 -2.42,3.72 -4.37,5.24l4.69 1.34 0 17.5zm-16.43 -18.84c2.84,0 4.64,-0.17 5.42,-0.51 0.78,-0.33 1.16,-1.08 1.16,-2.23 0,-1.13 -0.45,-1.93 -1.32,-2.39 -0.89,-0.46 -2.65,-0.7 -5.26,-0.7l-20.83 0c-2.77,0 -4.58,0.17 -5.39,0.53 -0.83,0.35 -1.24,1.1 -1.24,2.22 0,1.29 0.49,2.14 1.5,2.52 0.99,0.38 3.25,0.57 6.77,0.57l19.19 0zm30.11 61.2l-17.04 0c1.5,1.63 2.63,3.38 3.38,5.26 0.75,1.88 1.13,3.91 1.13,6.06 0,3.3 -0.84,6.1 -2.52,8.43 -1.69,2.31 -3.62,3.73 -5.82,4.26 -2.2,0.51 -6.22,0.76 -12.03,0.76l-42.75 0 0 -18.84 43.63 0c3.6,0 5.93,-0.18 6.95,-0.54 1.04,-0.37 1.55,-1.16 1.55,-2.42 0,-1.16 -0.53,-1.94 -1.59,-2.36 -1.05,-0.4 -3.16,-0.6 -6.3,-0.6l-44.23 0 0 -18.84 75.65 0 0 18.84zm-35.44 77.3l-15.19 0c-5.58,0 -9.66,-0.29 -12.27,-0.84 -2.6,-0.56 -5.02,-1.75 -7.29,-3.59 -2.26,-1.83 -3.92,-4.19 -5.01,-7.08 -1.07,-2.88 -1.61,-6.19 -1.61,-9.91 0,-4.18 0.46,-7.71 1.37,-10.6 0.92,-2.9 2.31,-5.15 4.16,-6.74 1.87,-1.61 4.11,-2.76 6.74,-3.44 2.63,-0.68 6.58,-1.02 11.84,-1.02l15.89 0c5.77,0 10.27,0.62 13.52,1.87 3.24,1.24 5.83,3.49 7.8,6.73 1.96,3.24 2.95,7.38 2.95,12.42 0,4.22 -0.64,7.86 -1.9,10.9 -1.26,3.03 -2.9,5.37 -4.92,7.03 -2.02,1.64 -4.11,2.77 -6.26,3.38 -2.15,0.61 -5.42,0.91 -9.82,0.91zm4.67 -18.84c3.17,0 5.18,-0.18 5.99,-0.51 0.83,-0.35 1.24,-1.08 1.24,-2.22 0,-1.13 -0.41,-1.88 -1.24,-2.26 -0.81,-0.37 -2.82,-0.56 -5.99,-0.56l-27.98 0c-2.93,0 -4.85,0.19 -5.72,0.56 -0.89,0.38 -1.34,1.11 -1.34,2.21 0,1.13 0.4,1.87 1.21,2.23 0.81,0.36 2.55,0.54 5.23,0.54l28.6 0zm25.31 48.24l-9.76 0 0 5.26 -9.85 0 0 -5.26 -33.14 0c-4.06,0 -6.34,0.22 -6.81,0.65 -0.46,0.43 -0.7,2.22 -0.7,5.37l-9.95 0 0 -7.63c0,-4.3 0.17,-7.38 0.54,-9.23 0.35,-1.83 1.18,-3.46 2.47,-4.86 1.29,-1.4 2.76,-2.28 4.43,-2.63 1.66,-0.34 5.56,-0.51 11.72,-0.51l31.43 0 0 -4.02 9.85 0 0 4.02 9.76 0 0 18.84zm-28.02 64.75l0 -16.64 3.36 0c2.87,0 4.67,-0.16 5.44,-0.49 0.77,-0.32 1.15,-1.15 1.15,-2.46 0,-1.05 -0.35,-1.85 -1.05,-2.38 -0.7,-0.53 -1.75,-0.8 -3.16,-0.8 -1.9,0 -3.3,0.13 -4.18,0.4 -0.89,0.26 -1.87,1.05 -2.92,2.38 -1.07,1.31 -2.62,4.02 -4.64,8.11 -2.68,5.47 -5.2,9.04 -7.57,10.74 -2.36,1.71 -5.8,2.57 -10.31,2.57 -5.05,0 -8.86,-0.65 -11.43,-1.96 -2.57,-1.31 -4.56,-3.49 -5.95,-6.55 -1.39,-3.08 -2.07,-6.76 -2.07,-11.1 0,-4.78 0.75,-8.89 2.23,-12.29 1.5,-3.41 3.52,-5.76 6.07,-7.03 2.55,-1.28 6.41,-1.91 11.57,-1.91l2.98 0 0 16.74 -3.91 0c-3.31,0 -5.47,0.21 -6.47,0.62 -0.99,0.43 -1.48,1.26 -1.48,2.49 0,1.34 0.34,2.26 1.01,2.79 0.67,0.53 2.09,0.8 4.22,0.8 2.97,0 4.81,-0.34 5.56,-1.02 0.75,-0.72 2.97,-4.37 6.65,-10.95 3.11,-5.53 5.93,-8.91 8.48,-10.12 2.54,-1.21 5.55,-1.82 9.04,-1.82 4.96,0 8.61,0.65 10.95,1.96 2.36,1.31 4.18,3.52 5.45,6.65 1.28,3.12 1.91,6.76 1.91,10.89 0,4.11 -0.53,7.6 -1.56,10.47 -1.05,2.88 -2.42,5.08 -4.15,6.63 -1.7,1.53 -3.3,2.47 -4.77,2.79 -1.47,0.34 -3.76,0.49 -6.87,0.49l-3.6 0zm19.8 52.98l-61.98 0 0 -19.18 5.16 0.34c-2.1,-1.31 -3.68,-2.92 -4.73,-4.83 -1.05,-1.91 -1.58,-4.11 -1.58,-6.6 0,-2.82 0.49,-5.18 1.5,-7.05 0.99,-1.87 2.31,-3.24 3.97,-4.13 1.66,-0.88 3.36,-1.44 5.16,-1.66 1.79,-0.21 5.34,-0.32 10.68,-0.32l41.81 0 0 18.84 -42.18 0c-4.83,0 -7.68,0.14 -8.59,0.45 -0.91,0.29 -1.35,1.1 -1.35,2.41 0,1.39 0.46,2.23 1.4,2.49 0.93,0.27 3.94,0.4 9.01,0.4l41.72 0 0 18.84zm0 28.96l-8.16 -0.67c5.87,2.76 8.96,6.74 9.31,11.96l-21.81 0c0,-3.46 -0.46,-6.01 -1.4,-7.63 -0.94,-1.63 -2.23,-2.62 -3.91,-3 -1.66,-0.37 -5.5,-0.56 -11.52,-0.56l-24.48 0 0 -18.84 61.98 0 0 18.75zm13.68 44.69l-9.56 0c0,-3.94 -0.17,-6.26 -0.54,-6.97 -0.37,-0.72 -1.4,-1.07 -3.11,-1.07l-1.99 0 0 8.03 -9.85 0 0 -4.59 -50.59 0 0 -18.84 50.59 0 0 -3.83 9.85 0 0 3.83c4.1,0 6.84,0.14 8.21,0.41 1.39,0.29 2.61,0.99 3.68,2.09 1.08,1.12 1.91,2.66 2.47,4.67 0.56,1.99 0.84,5.1 0.84,9.33l0 6.93zm-37.68 23.75l0 -17.69 4.16 0c4.8,0 8.49,0.56 11.11,1.66 2.6,1.1 4.89,3.33 6.88,6.66 1.99,3.33 3,7.65 3,12.99 0,6.38 -1.13,11.19 -3.39,14.43 -2.25,3.24 -5.02,5.18 -8.3,5.83 -3.28,0.65 -10.06,0.99 -20.31,0.99l-31.12 0 0 -18.36 5.53 0c-2.23,-1.15 -3.89,-2.65 -5.01,-4.46 -1.12,-1.82 -1.67,-3.98 -1.67,-6.52 0,-3.3 0.92,-6.33 2.77,-9.09 1.87,-2.76 5.91,-4.13 12.18,-4.13l5.1 0c4.64,0 7.79,0.73 9.48,2.2 1.69,1.47 3.65,5.1 5.88,10.9 2.44,6.2 4.06,9.52 4.91,9.96 0.84,0.43 2.55,0.65 5.15,0.65 3.24,0 5.34,-0.24 6.33,-0.73 0.97,-0.48 1.47,-1.29 1.47,-2.42 0,-1.29 -0.41,-2.09 -1.24,-2.39 -0.81,-0.32 -2.96,-0.48 -6.42,-0.48l-6.49 0zm-8.49 6.02c-2.22,-3.04 -4.07,-4.81 -5.56,-5.29 -1.5,-0.5 -3.64,-0.73 -6.44,-0.73 -3.22,0 -5.28,0.21 -6.22,0.64 -0.94,0.41 -1.4,1.26 -1.4,2.52 0,1.2 0.37,1.96 1.1,2.33 0.73,0.37 2.65,0.54 5.77,0.54l12.75 0zm9.07 70.5l0 -17.79 7.17 0c2.49,0 4.18,-0.21 5.07,-0.62 0.89,-0.41 1.34,-1.18 1.34,-2.3 0,-1.12 -0.38,-1.87 -1.16,-2.25 -0.78,-0.38 -2.52,-0.57 -5.23,-0.57l-29.25 0c-2.22,0 -3.87,0.29 -4.97,0.86 -1.1,0.56 -1.66,1.4 -1.66,2.52 0,1.29 0.58,2.17 1.72,2.63 1.15,0.46 3.31,0.68 6.52,0.68l7.35 0 0 16.83c-4.94,-0.03 -8.66,-0.21 -11.13,-0.54 -2.47,-0.32 -5.01,-1.37 -7.6,-3.14 -2.6,-1.75 -4.56,-4.06 -5.88,-6.9 -1.32,-2.84 -1.98,-6.34 -1.98,-10.53 0,-5.33 0.91,-9.57 2.74,-12.69 1.82,-3.11 4.37,-5.32 7.65,-6.61 3.3,-1.29 7.96,-1.94 14.01,-1.94l17.61 0c5.28,0 9.24,0.53 11.92,1.59 2.68,1.05 5.07,3.32 7.17,6.79 2.11,3.46 3.16,7.67 3.16,12.64 0,4.92 -1.05,9.13 -3.14,12.64 -2.09,3.49 -4.72,5.82 -7.91,6.97 -3.19,1.16 -7.7,1.74 -13.53,1.74zm-8.61 51.64l0 -24.48 -13.44 0c-2.81,0 -4.62,0.21 -5.44,0.6 -0.81,0.41 -1.21,1.2 -1.21,2.36 0,1.45 0.54,2.42 1.61,2.9 1.08,0.49 3.17,0.73 6.26,0.73l8.19 0 0 17.88 -4.59 0c-3.84,0 -6.79,-0.24 -8.85,-0.72 -2.06,-0.49 -4.26,-1.63 -6.6,-3.4 -2.34,-1.77 -4.1,-4.03 -5.28,-6.76 -1.16,-2.73 -1.75,-6.14 -1.75,-10.25 0,-3.99 0.57,-7.51 1.74,-10.57 1.15,-3.05 2.73,-5.42 4.73,-7.13 2.01,-1.7 4.22,-2.87 6.65,-3.52 2.41,-0.65 5.91,-0.99 10.54,-0.99l18.09 0c5.42,0 9.69,0.73 12.83,2.2 3.12,1.47 5.53,3.86 7.19,7.19 1.67,3.35 2.5,7.17 2.5,11.51 0,5.29 -1,9.66 -3.01,13.1 -2.01,3.44 -4.67,5.87 -7.99,7.25 -3.3,1.39 -7.97,2.07 -13.98,2.07l-8.21 0zm10.04 -18.84l4.53 0c3.22,0 5.28,-0.17 6.22,-0.53 0.94,-0.35 1.4,-1.07 1.4,-2.15 0,-1.34 -0.4,-2.17 -1.2,-2.49 -0.8,-0.32 -2.93,-0.48 -6.43,-0.48l-4.53 0 0 5.64z"/>
</svg>
