<svg id="Layer_1" data-name="Layer 1" xmlns="http://www.w3.org/2000/svg" xmlns:xlink="http://www.w3.org/1999/xlink" viewBox="0 0 490.24 512.04"><defs><style>.cls-1{fill:none;}.cls-2{clip-path:url(#clip-path);}.cls-3{fill:#bc9715;}.cls-4{fill:#2eb1d0;}.cls-5{fill:#fff;}.cls-6{fill:#bd9815;}</style><clipPath id="clip-path" transform="translate(-94.62 -84.4)"><rect id="SVGID" class="cls-1" x="-56.26" y="34.45" width="792" height="612"/></clipPath></defs><title>dmakers</title><g class="cls-2"><path class="cls-3" d="M94.74,330q0,117.2-.12,234.39c0,5.7,5.56,11.27,11.1,11.19,22.64-.31,45.28-.08,67.92-.2a5.8,5.8,0,0,1,5.29,2.86c3.52,4.94,7,9.93,10.84,14.63a10,10,0,0,0,8.1,3.54q32.35-.06,64.73,0,108.56,0,217.11.07c5.45,0,9.19-2,12.17-6.39s6.35-8.53,9.47-12.83a4.06,4.06,0,0,1,3.75-1.84c22.93.08,45.86-.12,68.79.18,5.38.07,11-5.52,11-11q-.23-234.54,0-469.07c0-5.6-5.64-11.06-10.94-11q-234.1.21-468.2,0c-5.53,0-11.12,5.48-11.1,11.19Q94.89,212.79,94.74,330Z" transform="translate(-94.62 -84.4)"/><path class="cls-4" d="M313.26,586.86c-1-3.08-2.18-6.18-3.08-9.35-.4-1.41-1.23-1.48-2.35-1.51-1.37,0-1.59,1.09-1.7,1.9-.6,4.6-1.32,9.18-2.33,13.71-.18.81.11,1.17,1,1.3,1.54.22,2.14-.66,2.36-1.84.52-2.78.9-5.59,1.45-9.07,1,3.39,1.83,6.17,2.69,8.93.3,1,.44,2.06,1.94,2,1.24-.06,1.73-.47,2.19-1.72,1-2.66,1.39-5.59,3.1-8.26.52,3,1.13,5.72,1.39,8.43.13,1.34.61,1.55,1.77,1.55,1.42,0,1.3-1,1.17-1.78-.74-4.77-1.55-9.53-2.31-14.31-.17-1.05-.94-.82-1.54-.78s-1.62-.45-2,1c-.78,2.91-1.9,5.72-2.81,8.59C314,586.18,313.88,586.67,313.26,586.86Z" transform="translate(-94.62 -84.4)"/><path class="cls-4" d="M289.23,584.49c0,.88-.3,1.9.06,2.59,1,1.85-2.53,5.35,2.07,5.79,8,.79,10.27-3,10.61-6.65.84-9-4.45-10.53-11.58-10.22-1.14,0-1.17.7-1.16,1.53C289.24,579.85,289.23,582.17,289.23,584.49Z" transform="translate(-94.62 -84.4)"/><path class="cls-4" d="M380.23,592.65c-.52-1-1-1.95-1.44-2.89-1-2.22-2.91-4.14.22-6.64,2.05-1.64.51-5.51-2-6.48-.43-.17-.88-.29-1.33-.42-4.81-1.39-6.29-.33-6.29,4.54,0,3.48,0,7,0,10.44,0,1.19.23,1.75,1.58,1.72s1.37-.68,1.35-1.65c0-1.54,0-3.09,0-4.64,0-.43-.19-1,.46-1.19s.93.31,1.13.7a34.58,34.58,0,0,1,2.09,4.34C376.66,592.51,377.84,593.44,380.23,592.65Z" transform="translate(-94.62 -84.4)"/><path class="cls-4" d="M324.54,592.66c1.87.35,3.41.69,3.74-1.82a1.69,1.69,0,0,1,2.05-1.48,16.14,16.14,0,0,0,4.05,0c1.9-.29,2.23,1.12,2.67,2.29a1.89,1.89,0,0,0,2.77,1.12c1.2-.51.21-1.45-.08-2.17-1.72-4.28-3.54-8.52-5.14-12.84-.39-1-.65-1.61-1.83-1.78-1.4-.21-1.89.65-2.27,1.62C328.5,582.56,326.56,587.55,324.54,592.66Z" transform="translate(-94.62 -84.4)"/><path class="cls-4" d="M346.13,585.87c3.58,1.66,2.93,7.77,8.71,6.94-1.08-2.81-3.09-4.82-4.65-7.07-1.33-1.92-1-3.15.42-4.66s2.49-3,3.79-4.65c-3.57-.71-3.57-.71-8.27,5.55,0-1.76,0-3,0-4.31,0-.93,0-1.68-1.31-1.69s-1.63.46-1.62,1.68c.06,4.46,0,8.92,0,13.38,0,1-.12,1.88,1.4,1.89s1.55-.69,1.52-1.79C346.09,589.34,346.13,587.53,346.13,585.87Z" transform="translate(-94.62 -84.4)"/><path class="cls-4" d="M357.74,584.62c0,2,.13,4.08,0,6.1s.59,2.33,2.3,2.19a42.5,42.5,0,0,1,4.92,0c1.07,0,1.56-.26,1.56-1.45s-.4-1.61-1.51-1.47a.7.7,0,0,1-.29,0c-1.55-.45-4.19,1.46-4.13-2.4.06-3.65,2.52-1.8,4-2.24a2.74,2.74,0,0,1,.86,0c1.24,0,1-.89,1-1.63s-.16-1.31-1.09-1.28-2.13-.07-3.19,0c-1.38.12-1.56-.61-1.54-1.75s.09-1.9,1.51-1.77c1,.09,1.94,0,2.9,0,1.19.09,1.46-.47,1.44-1.55s-.29-1.41-1.32-1.38c-2,0-4.06.07-6.08,0-1.31,0-1.35.7-1.34,1.66C357.76,580,357.74,582.3,357.74,584.62Z" transform="translate(-94.62 -84.4)"/><path class="cls-4" d="M382.74,579.55c-.36,2.76,1.39,4.23,3.12,5.58a9.81,9.81,0,0,1,2,1.59c.57.77,1.7,1.63.88,2.64a2.09,2.09,0,0,1-3.29,0c-1.42-1.72-2.89-.59-3.46.25s.69,1.94,1.65,2.55c2.65,1.69,5.54,1.33,7.3-.87s1.49-4.12-1.08-6.72c-1-1-2.05-2.05-3.06-3.08-.65-.66-1.76-1.35-.91-2.34a1.62,1.62,0,0,1,2.32.28c.31.32.66.83,1.2.48s1.64-.89,1.89-1.56-.69-1.31-1.33-1.66c-1.65-.93-3.47-1.61-5.24-.52C383.52,576.94,382.25,577.9,382.74,579.55Z" transform="translate(-94.62 -84.4)"/><path class="cls-5" d="M216.09,586.22c0-2.33-.92-3.18-3-3.26-2.39-.1-3.14,1.66-3.14,3.22a2.75,2.75,0,0,0,3.1,2.67C215.1,588.78,216.2,588,216.09,586.22Z" transform="translate(-94.62 -84.4)"/><path class="cls-5" d="M466.51,588.83a2.58,2.58,0,0,0,2.93-2.83c0-1.58-.81-3.11-3-3-2,.07-3,.79-3,2.9S464.3,588.87,466.51,588.83Z" transform="translate(-94.62 -84.4)"/><path class="cls-6" d="M292.14,584.48a5.48,5.48,0,0,0,0,1.72c.43,1.25-1.23,3.25,1.17,3.74a5.13,5.13,0,0,0,5.67-3.21,5.85,5.85,0,0,0-5.47-7.8c-.92-.06-1.45.14-1.41,1.22C292.18,581.59,292.14,583,292.14,584.48Z" transform="translate(-94.62 -84.4)"/><path class="cls-6" d="M374.4,582.38c1.33.36,2.43-.4,2.34-1.58-.13-1.55-1.71-1.72-3.05-1.88-1.49-.19-1.37.76-1.47,1.78C372.05,582.47,373.06,582.56,374.4,582.38Z" transform="translate(-94.62 -84.4)"/><path class="cls-6" d="M330,586.45h4.81c-.33-1-.58-2-1-2.88s-.91-1.84-1.44-2.88Z" transform="translate(-94.62 -84.4)"/></g></svg>